<?xml version="1.0" encoding="utf-8" standalone="no"?>
<!DOCTYPE svg PUBLIC "-//W3C//DTD SVG 1.1//EN"
  "http://www.w3.org/Graphics/SVG/1.1/DTD/svg11.dtd">
<svg xmlns:xlink="http://www.w3.org/1999/xlink" width="460.8pt" height="345.6pt" viewBox="0 0 460.8 345.6" xmlns="http://www.w3.org/2000/svg" version="1.1">
 <metadata>
  <rdf:RDF xmlns:dc="http://purl.org/dc/elements/1.1/" xmlns:cc="http://creativecommons.org/ns#" xmlns:rdf="http://www.w3.org/1999/02/22-rdf-syntax-ns#">
   <cc:Work>
    <dc:type rdf:resource="http://purl.org/dc/dcmitype/StillImage"/>
    <dc:date>2022-08-11T20:38:51.010168</dc:date>
    <dc:format>image/svg+xml</dc:format>
    <dc:creator>
     <cc:Agent>
      <dc:title>Matplotlib v3.5.2, https://matplotlib.org/</dc:title>
     </cc:Agent>
    </dc:creator>
   </cc:Work>
  </rdf:RDF>
 </metadata>
 <defs>
  <style type="text/css">*{stroke-linejoin: round; stroke-linecap: butt}</style>
 </defs>
 <g id="figure_1">
  <g id="patch_1">
   <path d="M 0 345.6 
L 460.8 345.6 
L 460.8 0 
L 0 0 
z
" style="fill: #ffffff"/>
  </g>
  <g id="axes_1">
   <g id="patch_2">
    <path d="M 57.6 307.584 
L 414.72 307.584 
L 414.72 41.472 
L 57.6 41.472 
z
" style="fill: #ffffff"/>
   </g>
   <g id="matplotlib.axis_1">
    <g id="xtick_1">
     <g id="line2d_1">
      <defs>
       <path id="ma587a5c341" d="M 0 0 
L 0 3.5 
" style="stroke: #000000; stroke-width: 0.8"/>
      </defs>
      <g>
       <use xlink:href="#ma587a5c341" x="73.832727" y="307.584" style="stroke: #000000; stroke-width: 0.8"/>
      </g>
     </g>
     <g id="text_1">
      <!-- 0 -->
      <g transform="translate(70.651477 322.182437)scale(0.1 -0.1)">
       <defs>
        <path id="DejaVuSans-30" d="M 2034 4250 
Q 1547 4250 1301 3770 
Q 1056 3291 1056 2328 
Q 1056 1369 1301 889 
Q 1547 409 2034 409 
Q 2525 409 2770 889 
Q 3016 1369 3016 2328 
Q 3016 3291 2770 3770 
Q 2525 4250 2034 4250 
z
M 2034 4750 
Q 2819 4750 3233 4129 
Q 3647 3509 3647 2328 
Q 3647 1150 3233 529 
Q 2819 -91 2034 -91 
Q 1250 -91 836 529 
Q 422 1150 422 2328 
Q 422 3509 836 4129 
Q 1250 4750 2034 4750 
z
" transform="scale(0.015625)"/>
       </defs>
       <use xlink:href="#DejaVuSans-30"/>
      </g>
     </g>
    </g>
    <g id="xtick_2">
     <g id="line2d_2">
      <g>
       <use xlink:href="#ma587a5c341" x="124.71902" y="307.584" style="stroke: #000000; stroke-width: 0.8"/>
      </g>
     </g>
     <g id="text_2">
      <!-- 50 -->
      <g transform="translate(118.35652 322.182437)scale(0.1 -0.1)">
       <defs>
        <path id="DejaVuSans-35" d="M 691 4666 
L 3169 4666 
L 3169 4134 
L 1269 4134 
L 1269 2991 
Q 1406 3038 1543 3061 
Q 1681 3084 1819 3084 
Q 2600 3084 3056 2656 
Q 3513 2228 3513 1497 
Q 3513 744 3044 326 
Q 2575 -91 1722 -91 
Q 1428 -91 1123 -41 
Q 819 9 494 109 
L 494 744 
Q 775 591 1075 516 
Q 1375 441 1709 441 
Q 2250 441 2565 725 
Q 2881 1009 2881 1497 
Q 2881 1984 2565 2268 
Q 2250 2553 1709 2553 
Q 1456 2553 1204 2497 
Q 953 2441 691 2322 
L 691 4666 
z
" transform="scale(0.015625)"/>
       </defs>
       <use xlink:href="#DejaVuSans-35"/>
       <use xlink:href="#DejaVuSans-30" x="63.623047"/>
      </g>
     </g>
    </g>
    <g id="xtick_3">
     <g id="line2d_3">
      <g>
       <use xlink:href="#ma587a5c341" x="175.605312" y="307.584" style="stroke: #000000; stroke-width: 0.8"/>
      </g>
     </g>
     <g id="text_3">
      <!-- 100 -->
      <g transform="translate(166.061562 322.182437)scale(0.1 -0.1)">
       <defs>
        <path id="DejaVuSans-31" d="M 794 531 
L 1825 531 
L 1825 4091 
L 703 3866 
L 703 4441 
L 1819 4666 
L 2450 4666 
L 2450 531 
L 3481 531 
L 3481 0 
L 794 0 
L 794 531 
z
" transform="scale(0.015625)"/>
       </defs>
       <use xlink:href="#DejaVuSans-31"/>
       <use xlink:href="#DejaVuSans-30" x="63.623047"/>
       <use xlink:href="#DejaVuSans-30" x="127.246094"/>
      </g>
     </g>
    </g>
    <g id="xtick_4">
     <g id="line2d_4">
      <g>
       <use xlink:href="#ma587a5c341" x="226.491604" y="307.584" style="stroke: #000000; stroke-width: 0.8"/>
      </g>
     </g>
     <g id="text_4">
      <!-- 150 -->
      <g transform="translate(216.947854 322.182437)scale(0.1 -0.1)">
       <use xlink:href="#DejaVuSans-31"/>
       <use xlink:href="#DejaVuSans-35" x="63.623047"/>
       <use xlink:href="#DejaVuSans-30" x="127.246094"/>
      </g>
     </g>
    </g>
    <g id="xtick_5">
     <g id="line2d_5">
      <g>
       <use xlink:href="#ma587a5c341" x="277.377897" y="307.584" style="stroke: #000000; stroke-width: 0.8"/>
      </g>
     </g>
     <g id="text_5">
      <!-- 200 -->
      <g transform="translate(267.834147 322.182437)scale(0.1 -0.1)">
       <defs>
        <path id="DejaVuSans-32" d="M 1228 531 
L 3431 531 
L 3431 0 
L 469 0 
L 469 531 
Q 828 903 1448 1529 
Q 2069 2156 2228 2338 
Q 2531 2678 2651 2914 
Q 2772 3150 2772 3378 
Q 2772 3750 2511 3984 
Q 2250 4219 1831 4219 
Q 1534 4219 1204 4116 
Q 875 4013 500 3803 
L 500 4441 
Q 881 4594 1212 4672 
Q 1544 4750 1819 4750 
Q 2544 4750 2975 4387 
Q 3406 4025 3406 3419 
Q 3406 3131 3298 2873 
Q 3191 2616 2906 2266 
Q 2828 2175 2409 1742 
Q 1991 1309 1228 531 
z
" transform="scale(0.015625)"/>
       </defs>
       <use xlink:href="#DejaVuSans-32"/>
       <use xlink:href="#DejaVuSans-30" x="63.623047"/>
       <use xlink:href="#DejaVuSans-30" x="127.246094"/>
      </g>
     </g>
    </g>
    <g id="xtick_6">
     <g id="line2d_6">
      <g>
       <use xlink:href="#ma587a5c341" x="328.264189" y="307.584" style="stroke: #000000; stroke-width: 0.8"/>
      </g>
     </g>
     <g id="text_6">
      <!-- 250 -->
      <g transform="translate(318.720439 322.182437)scale(0.1 -0.1)">
       <use xlink:href="#DejaVuSans-32"/>
       <use xlink:href="#DejaVuSans-35" x="63.623047"/>
       <use xlink:href="#DejaVuSans-30" x="127.246094"/>
      </g>
     </g>
    </g>
    <g id="xtick_7">
     <g id="line2d_7">
      <g>
       <use xlink:href="#ma587a5c341" x="379.150482" y="307.584" style="stroke: #000000; stroke-width: 0.8"/>
      </g>
     </g>
     <g id="text_7">
      <!-- 300 -->
      <g transform="translate(369.606732 322.182437)scale(0.1 -0.1)">
       <defs>
        <path id="DejaVuSans-33" d="M 2597 2516 
Q 3050 2419 3304 2112 
Q 3559 1806 3559 1356 
Q 3559 666 3084 287 
Q 2609 -91 1734 -91 
Q 1441 -91 1130 -33 
Q 819 25 488 141 
L 488 750 
Q 750 597 1062 519 
Q 1375 441 1716 441 
Q 2309 441 2620 675 
Q 2931 909 2931 1356 
Q 2931 1769 2642 2001 
Q 2353 2234 1838 2234 
L 1294 2234 
L 1294 2753 
L 1863 2753 
Q 2328 2753 2575 2939 
Q 2822 3125 2822 3475 
Q 2822 3834 2567 4026 
Q 2313 4219 1838 4219 
Q 1578 4219 1281 4162 
Q 984 4106 628 3988 
L 628 4550 
Q 988 4650 1302 4700 
Q 1616 4750 1894 4750 
Q 2613 4750 3031 4423 
Q 3450 4097 3450 3541 
Q 3450 3153 3228 2886 
Q 3006 2619 2597 2516 
z
" transform="scale(0.015625)"/>
       </defs>
       <use xlink:href="#DejaVuSans-33"/>
       <use xlink:href="#DejaVuSans-30" x="63.623047"/>
       <use xlink:href="#DejaVuSans-30" x="127.246094"/>
      </g>
     </g>
    </g>
   </g>
   <g id="matplotlib.axis_2">
    <g id="ytick_1">
     <g id="line2d_8">
      <defs>
       <path id="mf241e92c88" d="M 0 0 
L -3.5 0 
" style="stroke: #000000; stroke-width: 0.8"/>
      </defs>
      <g>
       <use xlink:href="#mf241e92c88" x="57.6" y="274.680677" style="stroke: #000000; stroke-width: 0.8"/>
      </g>
     </g>
     <g id="text_8">
      <!-- 9.0 -->
      <g transform="translate(34.696875 278.479896)scale(0.1 -0.1)">
       <defs>
        <path id="DejaVuSans-39" d="M 703 97 
L 703 672 
Q 941 559 1184 500 
Q 1428 441 1663 441 
Q 2288 441 2617 861 
Q 2947 1281 2994 2138 
Q 2813 1869 2534 1725 
Q 2256 1581 1919 1581 
Q 1219 1581 811 2004 
Q 403 2428 403 3163 
Q 403 3881 828 4315 
Q 1253 4750 1959 4750 
Q 2769 4750 3195 4129 
Q 3622 3509 3622 2328 
Q 3622 1225 3098 567 
Q 2575 -91 1691 -91 
Q 1453 -91 1209 -44 
Q 966 3 703 97 
z
M 1959 2075 
Q 2384 2075 2632 2365 
Q 2881 2656 2881 3163 
Q 2881 3666 2632 3958 
Q 2384 4250 1959 4250 
Q 1534 4250 1286 3958 
Q 1038 3666 1038 3163 
Q 1038 2656 1286 2365 
Q 1534 2075 1959 2075 
z
" transform="scale(0.015625)"/>
        <path id="DejaVuSans-2e" d="M 684 794 
L 1344 794 
L 1344 0 
L 684 0 
L 684 794 
z
" transform="scale(0.015625)"/>
       </defs>
       <use xlink:href="#DejaVuSans-39"/>
       <use xlink:href="#DejaVuSans-2e" x="63.623047"/>
       <use xlink:href="#DejaVuSans-30" x="95.410156"/>
      </g>
     </g>
    </g>
    <g id="ytick_2">
     <g id="line2d_9">
      <g>
       <use xlink:href="#mf241e92c88" x="57.6" y="235.92821" style="stroke: #000000; stroke-width: 0.8"/>
      </g>
     </g>
     <g id="text_9">
      <!-- 9.5 -->
      <g transform="translate(34.696875 239.727428)scale(0.1 -0.1)">
       <use xlink:href="#DejaVuSans-39"/>
       <use xlink:href="#DejaVuSans-2e" x="63.623047"/>
       <use xlink:href="#DejaVuSans-35" x="95.410156"/>
      </g>
     </g>
    </g>
    <g id="ytick_3">
     <g id="line2d_10">
      <g>
       <use xlink:href="#mf241e92c88" x="57.6" y="197.175742" style="stroke: #000000; stroke-width: 0.8"/>
      </g>
     </g>
     <g id="text_10">
      <!-- 10.0 -->
      <g transform="translate(28.334375 200.974961)scale(0.1 -0.1)">
       <use xlink:href="#DejaVuSans-31"/>
       <use xlink:href="#DejaVuSans-30" x="63.623047"/>
       <use xlink:href="#DejaVuSans-2e" x="127.246094"/>
       <use xlink:href="#DejaVuSans-30" x="159.033203"/>
      </g>
     </g>
    </g>
    <g id="ytick_4">
     <g id="line2d_11">
      <g>
       <use xlink:href="#mf241e92c88" x="57.6" y="158.423274" style="stroke: #000000; stroke-width: 0.8"/>
      </g>
     </g>
     <g id="text_11">
      <!-- 10.5 -->
      <g transform="translate(28.334375 162.222493)scale(0.1 -0.1)">
       <use xlink:href="#DejaVuSans-31"/>
       <use xlink:href="#DejaVuSans-30" x="63.623047"/>
       <use xlink:href="#DejaVuSans-2e" x="127.246094"/>
       <use xlink:href="#DejaVuSans-35" x="159.033203"/>
      </g>
     </g>
    </g>
    <g id="ytick_5">
     <g id="line2d_12">
      <g>
       <use xlink:href="#mf241e92c88" x="57.6" y="119.670806" style="stroke: #000000; stroke-width: 0.8"/>
      </g>
     </g>
     <g id="text_12">
      <!-- 11.0 -->
      <g transform="translate(28.334375 123.470025)scale(0.1 -0.1)">
       <use xlink:href="#DejaVuSans-31"/>
       <use xlink:href="#DejaVuSans-31" x="63.623047"/>
       <use xlink:href="#DejaVuSans-2e" x="127.246094"/>
       <use xlink:href="#DejaVuSans-30" x="159.033203"/>
      </g>
     </g>
    </g>
    <g id="ytick_6">
     <g id="line2d_13">
      <g>
       <use xlink:href="#mf241e92c88" x="57.6" y="80.918338" style="stroke: #000000; stroke-width: 0.8"/>
      </g>
     </g>
     <g id="text_13">
      <!-- 11.5 -->
      <g transform="translate(28.334375 84.717557)scale(0.1 -0.1)">
       <use xlink:href="#DejaVuSans-31"/>
       <use xlink:href="#DejaVuSans-31" x="63.623047"/>
       <use xlink:href="#DejaVuSans-2e" x="127.246094"/>
       <use xlink:href="#DejaVuSans-35" x="159.033203"/>
      </g>
     </g>
    </g>
    <g id="ytick_7">
     <g id="line2d_14">
      <g>
       <use xlink:href="#mf241e92c88" x="57.6" y="42.165871" style="stroke: #000000; stroke-width: 0.8"/>
      </g>
     </g>
     <g id="text_14">
      <!-- 12.0 -->
      <g transform="translate(28.334375 45.965089)scale(0.1 -0.1)">
       <use xlink:href="#DejaVuSans-31"/>
       <use xlink:href="#DejaVuSans-32" x="63.623047"/>
       <use xlink:href="#DejaVuSans-2e" x="127.246094"/>
       <use xlink:href="#DejaVuSans-30" x="159.033203"/>
      </g>
     </g>
    </g>
   </g>
   <g id="line2d_15">
    <path d="M 73.832727 76.506646 
L 74.850453 135.960115 
L 75.868179 146.514504 
L 76.885905 154.765058 
L 77.903631 138.184881 
L 78.921357 157.29919 
L 79.939082 167.358776 
L 80.956808 152.238197 
L 81.974534 174.338815 
L 82.99226 161.184365 
L 84.009986 168.91135 
L 85.027712 173.807736 
L 86.045437 190.581152 
L 87.063163 187.136611 
L 88.080889 197.52414 
L 89.098615 202.064082 
L 90.116341 205.674116 
L 91.134067 198.36635 
L 92.151793 196.507416 
L 93.169518 184.871099 
L 94.187244 191.277127 
L 95.20497 204.275708 
L 96.222696 211.562522 
L 97.240422 216.326411 
L 98.258148 219.38962 
L 99.275873 197.153044 
L 100.293599 199.279693 
L 101.311325 212.935314 
L 102.329051 218.0828 
L 103.346777 197.7062 
L 104.364503 202.769301 
L 105.382229 193.319236 
L 106.399954 211.97439 
L 107.41768 218.073269 
L 108.435406 197.7074 
L 109.453132 189.586828 
L 110.470858 210.067527 
L 111.488584 208.247133 
L 112.506309 195.099528 
L 113.524035 212.307291 
L 114.541761 208.965547 
L 115.559487 218.952948 
L 116.577213 198.531612 
L 117.594939 190.851839 
L 118.612665 188.128988 
L 119.63039 186.807854 
L 120.648116 186.990705 
L 121.665842 197.913728 
L 122.683568 189.355514 
L 123.701294 187.453848 
L 124.71902 188.290924 
L 125.736746 198.893275 
L 126.754471 190.083626 
L 127.772197 210.48792 
L 128.789923 218.935899 
L 129.807649 223.890808 
L 130.825375 228.026058 
L 131.843101 217.118076 
L 132.860826 223.583534 
L 133.878552 215.818746 
L 134.896278 201.216151 
L 135.914004 195.177679 
L 136.93173 192.140444 
L 137.949456 213.947114 
L 138.967182 53.568 
L 139.984907 81.251109 
L 141.002633 93.804683 
L 142.020359 100.962791 
L 143.038085 106.485318 
L 144.055811 123.929034 
L 145.073537 121.839568 
L 146.091262 136.856755 
L 147.108988 134.770115 
L 148.126714 121.418471 
L 149.14444 140.461899 
L 150.162166 139.353429 
L 151.179892 128.990642 
L 152.197618 124.663814 
L 153.215343 147.428068 
L 154.233069 158.391947 
L 155.250795 152.698078 
L 156.268521 139.190734 
L 157.286247 158.248819 
L 158.303973 154.6846 
L 159.321698 165.927662 
L 160.339424 160.172154 
L 161.35715 157.091783 
L 162.374876 144.373491 
L 163.392602 150.771045 
L 164.410328 164.294308 
L 165.428054 171.71142 
L 166.445779 153.909929 
L 167.463505 170.657966 
L 168.481231 152.665838 
L 169.498957 155.534024 
L 170.516683 168.713763 
L 171.534409 175.869212 
L 172.552135 168.749626 
L 173.56986 153.191549 
L 174.587586 169.129539 
L 175.605312 164.312801 
L 176.623038 151.948681 
L 177.640764 171.045923 
L 178.65849 167.281158 
L 179.676215 153.73992 
L 180.693941 158.239195 
L 181.711667 148.787872 
L 182.729393 169.646124 
L 183.747119 155.249397 
L 184.764845 160.600053 
L 185.782571 150.272592 
L 186.800296 157.47458 
L 187.818022 171.098351 
L 188.835748 164.412362 
L 189.853474 174.370044 
L 190.8712 168.571392 
L 191.888926 178.231207 
L 192.906651 157.536957 
L 193.924377 159.777861 
L 194.942103 173.383666 
L 195.959829 178.976127 
L 196.977555 158.704117 
L 197.995281 162.004184 
L 199.013007 162.370556 
L 200.030732 163.795196 
L 201.048458 175.429344 
L 202.066184 167.200453 
L 203.08391 177.07001 
L 204.101636 251.286238 
L 205.119362 193.093697 
L 206.137087 182.846473 
L 207.154813 174.49787 
L 209.190265 159.959714 
L 210.207991 177.645793 
L 211.225717 157.555496 
L 212.243443 145.443697 
L 213.261168 141.332642 
L 214.278894 135.711755 
L 215.29662 153.704834 
L 216.314346 159.774851 
L 217.332072 161.23272 
L 218.349798 150.001687 
L 219.367524 155.958831 
L 220.385249 133.381032 
L 221.402975 145.32645 
L 222.420701 148.049781 
L 223.438427 125.862945 
L 224.456153 127.758445 
L 225.473879 115.907138 
L 226.491604 121.767859 
L 227.50933 135.165419 
L 228.527056 129.411 
L 229.544782 139.622972 
L 230.562508 131.984663 
L 231.580234 115.60035 
L 232.59796 131.48657 
L 233.615685 138.033346 
L 234.633411 140.911561 
L 235.651137 129.833235 
L 236.668863 114.362272 
L 237.686589 119.06029 
L 238.704315 118.965616 
L 239.72204 131.70253 
L 240.739766 136.979652 
L 241.757492 138.039654 
L 242.775218 115.149753 
L 243.792944 118.040059 
L 244.81067 131.8945 
L 245.828396 114.391878 
L 246.846121 105.941566 
L 247.863847 114.334385 
L 248.881573 105.663021 
L 249.899299 112.348277 
L 250.917025 115.483539 
L 251.934751 106.040332 
L 252.952476 103.210476 
L 253.970202 102.69022 
L 254.987928 102.461703 
L 256.005654 113.954358 
L 257.02338 130.353568 
L 258.041106 125.860175 
L 259.058832 124.547169 
L 260.076557 135.712632 
L 261.094283 140.310963 
L 262.112009 142.511547 
L 263.129735 118.801267 
L 264.147461 131.400244 
L 265.165187 137.406123 
L 266.182913 128.511956 
L 267.200638 113.601522 
L 268.218364 118.761964 
L 270.253816 158.957865 
L 271.271542 171.286658 
L 272.289268 179.62151 
L 273.306993 173.276868 
L 274.324719 171.991198 
L 275.342445 197.71545 
L 276.360171 209.542607 
L 277.377897 192.354638 
L 278.395623 208.825036 
L 279.413349 217.641878 
L 280.431074 223.526711 
L 281.4488 215.109366 
L 282.466526 212.636382 
L 283.484252 200.282416 
L 284.501978 195.740278 
L 285.519704 206.941601 
L 286.537429 223.73033 
L 287.555155 218.63337 
L 288.572881 218.507516 
L 289.590607 228.916882 
L 290.608333 220.208883 
L 291.626059 228.400683 
L 292.643785 219.943529 
L 293.66151 230.262484 
L 294.679236 233.355916 
L 295.696962 210.648395 
L 296.714688 215.504585 
L 297.732414 204.246661 
L 298.75014 223.394295 
L 299.767865 232.050761 
L 300.785591 223.523633 
L 301.803317 210.757789 
L 302.821043 204.028339 
L 303.838769 212.382263 
L 304.856495 204.655007 
L 305.874221 225.830232 
L 306.891946 211.156447 
L 307.909672 206.734563 
L 308.927398 203.254076 
L 309.945124 200.729257 
L 310.96285 211.717547 
L 311.980576 215.53155 
L 312.998302 216.575519 
L 314.016027 206.295605 
L 315.033753 226.211712 
L 316.051479 210.494386 
L 317.069205 206.67958 
L 318.086931 216.805557 
L 319.104657 220.047372 
L 320.122382 231.603235 
L 321.140108 222.850612 
L 322.157834 210.398858 
L 323.17556 203.882779 
L 324.193286 213.805564 
L 325.211012 217.691274 
L 326.228738 229.746634 
L 327.246463 212.272962 
L 328.264189 228.63116 
L 329.281915 221.706346 
L 330.299641 222.389821 
L 331.317367 222.290505 
L 332.335093 211.352073 
L 334.370544 247.851681 
L 335.38827 270.098902 
L 336.405996 270.112262 
L 337.423722 261.446529 
L 338.441448 282.902171 
L 339.459174 272.501472 
L 340.476899 287.422753 
L 341.494625 285.900982 
L 342.512351 264.163956 
L 343.530077 278.563094 
L 344.547803 264.881136 
L 345.565529 286.715736 
L 346.583254 289.872039 
L 347.60098 269.043784 
L 348.618706 264.548094 
L 349.636432 293.355918 
L 350.654158 290.732911 
L 351.671884 265.771107 
L 352.68961 270.925532 
L 353.707335 289.192831 
L 354.725061 266.76541 
L 355.742787 271.524719 
L 356.760513 294.219381 
L 357.778239 268.751448 
L 358.795965 292.452478 
L 359.813691 294.84399 
L 360.831416 278.413414 
L 361.849142 295.305329 
L 362.866868 271.471255 
L 363.884594 280.810621 
L 364.90232 281.190469 
L 365.920046 278.985041 
L 366.937771 283.893923 
L 367.955497 271.615317 
L 368.973223 267.023723 
L 369.990949 293.241201 
L 371.008675 290.690943 
L 372.026401 272.291524 
L 373.044127 290.330178 
L 374.061852 295.488 
L 375.079578 267.048466 
L 376.097304 290.921261 
L 377.11503 293.231691 
L 378.132756 278.972223 
L 379.150482 281.532333 
L 380.168207 278.920141 
L 381.185933 283.746545 
L 382.203659 269.154937 
L 383.221385 292.661469 
L 384.239111 278.76618 
L 385.256837 283.622352 
L 386.274563 294.54846 
L 387.292288 271.197562 
L 388.310014 294.408409 
L 389.32774 268.854523 
L 390.345466 271.4372 
L 391.363192 282.710809 
L 392.380918 268.750428 
L 393.398643 292.313117 
L 394.416369 290.043432 
L 395.434095 292.627445 
L 396.451821 292.27373 
L 397.469547 266.685905 
L 398.487273 285.00382 
L 398.487273 285.00382 
" clip-path="url(#p2c3e240f57)" style="fill: none; stroke: #1f77b4; stroke-width: 1.5; stroke-linecap: square"/>
   </g>
   <g id="patch_3">
    <path d="M 57.6 307.584 
L 57.6 41.472 
" style="fill: none; stroke: #000000; stroke-width: 0.8; stroke-linejoin: miter; stroke-linecap: square"/>
   </g>
   <g id="patch_4">
    <path d="M 414.72 307.584 
L 414.72 41.472 
" style="fill: none; stroke: #000000; stroke-width: 0.8; stroke-linejoin: miter; stroke-linecap: square"/>
   </g>
   <g id="patch_5">
    <path d="M 57.6 307.584 
L 414.72 307.584 
" style="fill: none; stroke: #000000; stroke-width: 0.8; stroke-linejoin: miter; stroke-linecap: square"/>
   </g>
   <g id="patch_6">
    <path d="M 57.6 41.472 
L 414.72 41.472 
" style="fill: none; stroke: #000000; stroke-width: 0.8; stroke-linejoin: miter; stroke-linecap: square"/>
   </g>
   <g id="legend_1">
    <g id="patch_7">
     <path d="M 354.074688 64.150125 
L 407.72 64.150125 
Q 409.72 64.150125 409.72 62.150125 
L 409.72 48.472 
Q 409.72 46.472 407.72 46.472 
L 354.074688 46.472 
Q 352.074688 46.472 352.074688 48.472 
L 352.074688 62.150125 
Q 352.074688 64.150125 354.074688 64.150125 
z
" style="fill: #ffffff; opacity: 0.8; stroke: #cccccc; stroke-linejoin: miter"/>
    </g>
    <g id="line2d_16">
     <path d="M 356.074688 54.570438 
L 366.074688 54.570438 
L 376.074688 54.570438 
" style="fill: none; stroke: #1f77b4; stroke-width: 1.5; stroke-linecap: square"/>
    </g>
    <g id="text_15">
     <!-- set1 -->
     <g transform="translate(384.074688 58.070438)scale(0.1 -0.1)">
      <defs>
       <path id="DejaVuSans-73" d="M 2834 3397 
L 2834 2853 
Q 2591 2978 2328 3040 
Q 2066 3103 1784 3103 
Q 1356 3103 1142 2972 
Q 928 2841 928 2578 
Q 928 2378 1081 2264 
Q 1234 2150 1697 2047 
L 1894 2003 
Q 2506 1872 2764 1633 
Q 3022 1394 3022 966 
Q 3022 478 2636 193 
Q 2250 -91 1575 -91 
Q 1294 -91 989 -36 
Q 684 19 347 128 
L 347 722 
Q 666 556 975 473 
Q 1284 391 1588 391 
Q 1994 391 2212 530 
Q 2431 669 2431 922 
Q 2431 1156 2273 1281 
Q 2116 1406 1581 1522 
L 1381 1569 
Q 847 1681 609 1914 
Q 372 2147 372 2553 
Q 372 3047 722 3315 
Q 1072 3584 1716 3584 
Q 2034 3584 2315 3537 
Q 2597 3491 2834 3397 
z
" transform="scale(0.015625)"/>
       <path id="DejaVuSans-65" d="M 3597 1894 
L 3597 1613 
L 953 1613 
Q 991 1019 1311 708 
Q 1631 397 2203 397 
Q 2534 397 2845 478 
Q 3156 559 3463 722 
L 3463 178 
Q 3153 47 2828 -22 
Q 2503 -91 2169 -91 
Q 1331 -91 842 396 
Q 353 884 353 1716 
Q 353 2575 817 3079 
Q 1281 3584 2069 3584 
Q 2775 3584 3186 3129 
Q 3597 2675 3597 1894 
z
M 3022 2063 
Q 3016 2534 2758 2815 
Q 2500 3097 2075 3097 
Q 1594 3097 1305 2825 
Q 1016 2553 972 2059 
L 3022 2063 
z
" transform="scale(0.015625)"/>
       <path id="DejaVuSans-74" d="M 1172 4494 
L 1172 3500 
L 2356 3500 
L 2356 3053 
L 1172 3053 
L 1172 1153 
Q 1172 725 1289 603 
Q 1406 481 1766 481 
L 2356 481 
L 2356 0 
L 1766 0 
Q 1100 0 847 248 
Q 594 497 594 1153 
L 594 3053 
L 172 3053 
L 172 3500 
L 594 3500 
L 594 4494 
L 1172 4494 
z
" transform="scale(0.015625)"/>
      </defs>
      <use xlink:href="#DejaVuSans-73"/>
      <use xlink:href="#DejaVuSans-65" x="52.099609"/>
      <use xlink:href="#DejaVuSans-74" x="113.623047"/>
      <use xlink:href="#DejaVuSans-31" x="152.832031"/>
     </g>
    </g>
   </g>
  </g>
 </g>
 <defs>
  <clipPath id="p2c3e240f57">
   <rect x="57.6" y="41.472" width="357.12" height="266.112"/>
  </clipPath>
 </defs>
</svg>
