<?xml version="1.0" encoding="utf-8" standalone="no"?>
<!DOCTYPE svg PUBLIC "-//W3C//DTD SVG 1.1//EN"
  "http://www.w3.org/Graphics/SVG/1.1/DTD/svg11.dtd">
<svg xmlns:xlink="http://www.w3.org/1999/xlink" width="460.8pt" height="345.6pt" viewBox="0 0 460.8 345.6" xmlns="http://www.w3.org/2000/svg" version="1.1">
 <metadata>
  <rdf:RDF xmlns:dc="http://purl.org/dc/elements/1.1/" xmlns:cc="http://creativecommons.org/ns#" xmlns:rdf="http://www.w3.org/1999/02/22-rdf-syntax-ns#">
   <cc:Work>
    <dc:type rdf:resource="http://purl.org/dc/dcmitype/StillImage"/>
    <dc:date>2022-08-11T20:38:51.174206</dc:date>
    <dc:format>image/svg+xml</dc:format>
    <dc:creator>
     <cc:Agent>
      <dc:title>Matplotlib v3.5.2, https://matplotlib.org/</dc:title>
     </cc:Agent>
    </dc:creator>
   </cc:Work>
  </rdf:RDF>
 </metadata>
 <defs>
  <style type="text/css">*{stroke-linejoin: round; stroke-linecap: butt}</style>
 </defs>
 <g id="figure_1">
  <g id="patch_1">
   <path d="M 0 345.6 
L 460.8 345.6 
L 460.8 0 
L 0 0 
z
" style="fill: #ffffff"/>
  </g>
  <g id="axes_1">
   <g id="patch_2">
    <path d="M 57.6 307.584 
L 414.72 307.584 
L 414.72 41.472 
L 57.6 41.472 
z
" style="fill: #ffffff"/>
   </g>
   <g id="matplotlib.axis_1">
    <g id="xtick_1">
     <g id="line2d_1">
      <defs>
       <path id="m65931fd4e6" d="M 0 0 
L 0 3.5 
" style="stroke: #000000; stroke-width: 0.8"/>
      </defs>
      <g>
       <use xlink:href="#m65931fd4e6" x="73.832727" y="307.584" style="stroke: #000000; stroke-width: 0.8"/>
      </g>
     </g>
     <g id="text_1">
      <!-- 0 -->
      <g transform="translate(70.651477 322.182437)scale(0.1 -0.1)">
       <defs>
        <path id="DejaVuSans-30" d="M 2034 4250 
Q 1547 4250 1301 3770 
Q 1056 3291 1056 2328 
Q 1056 1369 1301 889 
Q 1547 409 2034 409 
Q 2525 409 2770 889 
Q 3016 1369 3016 2328 
Q 3016 3291 2770 3770 
Q 2525 4250 2034 4250 
z
M 2034 4750 
Q 2819 4750 3233 4129 
Q 3647 3509 3647 2328 
Q 3647 1150 3233 529 
Q 2819 -91 2034 -91 
Q 1250 -91 836 529 
Q 422 1150 422 2328 
Q 422 3509 836 4129 
Q 1250 4750 2034 4750 
z
" transform="scale(0.015625)"/>
       </defs>
       <use xlink:href="#DejaVuSans-30"/>
      </g>
     </g>
    </g>
    <g id="xtick_2">
     <g id="line2d_2">
      <g>
       <use xlink:href="#m65931fd4e6" x="124.71902" y="307.584" style="stroke: #000000; stroke-width: 0.8"/>
      </g>
     </g>
     <g id="text_2">
      <!-- 50 -->
      <g transform="translate(118.35652 322.182437)scale(0.1 -0.1)">
       <defs>
        <path id="DejaVuSans-35" d="M 691 4666 
L 3169 4666 
L 3169 4134 
L 1269 4134 
L 1269 2991 
Q 1406 3038 1543 3061 
Q 1681 3084 1819 3084 
Q 2600 3084 3056 2656 
Q 3513 2228 3513 1497 
Q 3513 744 3044 326 
Q 2575 -91 1722 -91 
Q 1428 -91 1123 -41 
Q 819 9 494 109 
L 494 744 
Q 775 591 1075 516 
Q 1375 441 1709 441 
Q 2250 441 2565 725 
Q 2881 1009 2881 1497 
Q 2881 1984 2565 2268 
Q 2250 2553 1709 2553 
Q 1456 2553 1204 2497 
Q 953 2441 691 2322 
L 691 4666 
z
" transform="scale(0.015625)"/>
       </defs>
       <use xlink:href="#DejaVuSans-35"/>
       <use xlink:href="#DejaVuSans-30" x="63.623047"/>
      </g>
     </g>
    </g>
    <g id="xtick_3">
     <g id="line2d_3">
      <g>
       <use xlink:href="#m65931fd4e6" x="175.605312" y="307.584" style="stroke: #000000; stroke-width: 0.8"/>
      </g>
     </g>
     <g id="text_3">
      <!-- 100 -->
      <g transform="translate(166.061562 322.182437)scale(0.1 -0.1)">
       <defs>
        <path id="DejaVuSans-31" d="M 794 531 
L 1825 531 
L 1825 4091 
L 703 3866 
L 703 4441 
L 1819 4666 
L 2450 4666 
L 2450 531 
L 3481 531 
L 3481 0 
L 794 0 
L 794 531 
z
" transform="scale(0.015625)"/>
       </defs>
       <use xlink:href="#DejaVuSans-31"/>
       <use xlink:href="#DejaVuSans-30" x="63.623047"/>
       <use xlink:href="#DejaVuSans-30" x="127.246094"/>
      </g>
     </g>
    </g>
    <g id="xtick_4">
     <g id="line2d_4">
      <g>
       <use xlink:href="#m65931fd4e6" x="226.491604" y="307.584" style="stroke: #000000; stroke-width: 0.8"/>
      </g>
     </g>
     <g id="text_4">
      <!-- 150 -->
      <g transform="translate(216.947854 322.182437)scale(0.1 -0.1)">
       <use xlink:href="#DejaVuSans-31"/>
       <use xlink:href="#DejaVuSans-35" x="63.623047"/>
       <use xlink:href="#DejaVuSans-30" x="127.246094"/>
      </g>
     </g>
    </g>
    <g id="xtick_5">
     <g id="line2d_5">
      <g>
       <use xlink:href="#m65931fd4e6" x="277.377897" y="307.584" style="stroke: #000000; stroke-width: 0.8"/>
      </g>
     </g>
     <g id="text_5">
      <!-- 200 -->
      <g transform="translate(267.834147 322.182437)scale(0.1 -0.1)">
       <defs>
        <path id="DejaVuSans-32" d="M 1228 531 
L 3431 531 
L 3431 0 
L 469 0 
L 469 531 
Q 828 903 1448 1529 
Q 2069 2156 2228 2338 
Q 2531 2678 2651 2914 
Q 2772 3150 2772 3378 
Q 2772 3750 2511 3984 
Q 2250 4219 1831 4219 
Q 1534 4219 1204 4116 
Q 875 4013 500 3803 
L 500 4441 
Q 881 4594 1212 4672 
Q 1544 4750 1819 4750 
Q 2544 4750 2975 4387 
Q 3406 4025 3406 3419 
Q 3406 3131 3298 2873 
Q 3191 2616 2906 2266 
Q 2828 2175 2409 1742 
Q 1991 1309 1228 531 
z
" transform="scale(0.015625)"/>
       </defs>
       <use xlink:href="#DejaVuSans-32"/>
       <use xlink:href="#DejaVuSans-30" x="63.623047"/>
       <use xlink:href="#DejaVuSans-30" x="127.246094"/>
      </g>
     </g>
    </g>
    <g id="xtick_6">
     <g id="line2d_6">
      <g>
       <use xlink:href="#m65931fd4e6" x="328.264189" y="307.584" style="stroke: #000000; stroke-width: 0.8"/>
      </g>
     </g>
     <g id="text_6">
      <!-- 250 -->
      <g transform="translate(318.720439 322.182437)scale(0.1 -0.1)">
       <use xlink:href="#DejaVuSans-32"/>
       <use xlink:href="#DejaVuSans-35" x="63.623047"/>
       <use xlink:href="#DejaVuSans-30" x="127.246094"/>
      </g>
     </g>
    </g>
    <g id="xtick_7">
     <g id="line2d_7">
      <g>
       <use xlink:href="#m65931fd4e6" x="379.150482" y="307.584" style="stroke: #000000; stroke-width: 0.8"/>
      </g>
     </g>
     <g id="text_7">
      <!-- 300 -->
      <g transform="translate(369.606732 322.182437)scale(0.1 -0.1)">
       <defs>
        <path id="DejaVuSans-33" d="M 2597 2516 
Q 3050 2419 3304 2112 
Q 3559 1806 3559 1356 
Q 3559 666 3084 287 
Q 2609 -91 1734 -91 
Q 1441 -91 1130 -33 
Q 819 25 488 141 
L 488 750 
Q 750 597 1062 519 
Q 1375 441 1716 441 
Q 2309 441 2620 675 
Q 2931 909 2931 1356 
Q 2931 1769 2642 2001 
Q 2353 2234 1838 2234 
L 1294 2234 
L 1294 2753 
L 1863 2753 
Q 2328 2753 2575 2939 
Q 2822 3125 2822 3475 
Q 2822 3834 2567 4026 
Q 2313 4219 1838 4219 
Q 1578 4219 1281 4162 
Q 984 4106 628 3988 
L 628 4550 
Q 988 4650 1302 4700 
Q 1616 4750 1894 4750 
Q 2613 4750 3031 4423 
Q 3450 4097 3450 3541 
Q 3450 3153 3228 2886 
Q 3006 2619 2597 2516 
z
" transform="scale(0.015625)"/>
       </defs>
       <use xlink:href="#DejaVuSans-33"/>
       <use xlink:href="#DejaVuSans-30" x="63.623047"/>
       <use xlink:href="#DejaVuSans-30" x="127.246094"/>
      </g>
     </g>
    </g>
   </g>
   <g id="matplotlib.axis_2">
    <g id="ytick_1">
     <g id="line2d_8">
      <defs>
       <path id="me104e1ed2c" d="M 0 0 
L -3.5 0 
" style="stroke: #000000; stroke-width: 0.8"/>
      </defs>
      <g>
       <use xlink:href="#me104e1ed2c" x="57.6" y="268.961628" style="stroke: #000000; stroke-width: 0.8"/>
      </g>
     </g>
     <g id="text_8">
      <!-- 8 -->
      <g transform="translate(44.2375 272.760847)scale(0.1 -0.1)">
       <defs>
        <path id="DejaVuSans-38" d="M 2034 2216 
Q 1584 2216 1326 1975 
Q 1069 1734 1069 1313 
Q 1069 891 1326 650 
Q 1584 409 2034 409 
Q 2484 409 2743 651 
Q 3003 894 3003 1313 
Q 3003 1734 2745 1975 
Q 2488 2216 2034 2216 
z
M 1403 2484 
Q 997 2584 770 2862 
Q 544 3141 544 3541 
Q 544 4100 942 4425 
Q 1341 4750 2034 4750 
Q 2731 4750 3128 4425 
Q 3525 4100 3525 3541 
Q 3525 3141 3298 2862 
Q 3072 2584 2669 2484 
Q 3125 2378 3379 2068 
Q 3634 1759 3634 1313 
Q 3634 634 3220 271 
Q 2806 -91 2034 -91 
Q 1263 -91 848 271 
Q 434 634 434 1313 
Q 434 1759 690 2068 
Q 947 2378 1403 2484 
z
M 1172 3481 
Q 1172 3119 1398 2916 
Q 1625 2713 2034 2713 
Q 2441 2713 2670 2916 
Q 2900 3119 2900 3481 
Q 2900 3844 2670 4047 
Q 2441 4250 2034 4250 
Q 1625 4250 1398 4047 
Q 1172 3844 1172 3481 
z
" transform="scale(0.015625)"/>
       </defs>
       <use xlink:href="#DejaVuSans-38"/>
      </g>
     </g>
    </g>
    <g id="ytick_2">
     <g id="line2d_9">
      <g>
       <use xlink:href="#me104e1ed2c" x="57.6" y="216.316943" style="stroke: #000000; stroke-width: 0.8"/>
      </g>
     </g>
     <g id="text_9">
      <!-- 10 -->
      <g transform="translate(37.875 220.116161)scale(0.1 -0.1)">
       <use xlink:href="#DejaVuSans-31"/>
       <use xlink:href="#DejaVuSans-30" x="63.623047"/>
      </g>
     </g>
    </g>
    <g id="ytick_3">
     <g id="line2d_10">
      <g>
       <use xlink:href="#me104e1ed2c" x="57.6" y="163.672258" style="stroke: #000000; stroke-width: 0.8"/>
      </g>
     </g>
     <g id="text_10">
      <!-- 12 -->
      <g transform="translate(37.875 167.471476)scale(0.1 -0.1)">
       <use xlink:href="#DejaVuSans-31"/>
       <use xlink:href="#DejaVuSans-32" x="63.623047"/>
      </g>
     </g>
    </g>
    <g id="ytick_4">
     <g id="line2d_11">
      <g>
       <use xlink:href="#me104e1ed2c" x="57.6" y="111.027573" style="stroke: #000000; stroke-width: 0.8"/>
      </g>
     </g>
     <g id="text_11">
      <!-- 14 -->
      <g transform="translate(37.875 114.826791)scale(0.1 -0.1)">
       <defs>
        <path id="DejaVuSans-34" d="M 2419 4116 
L 825 1625 
L 2419 1625 
L 2419 4116 
z
M 2253 4666 
L 3047 4666 
L 3047 1625 
L 3713 1625 
L 3713 1100 
L 3047 1100 
L 3047 0 
L 2419 0 
L 2419 1100 
L 313 1100 
L 313 1709 
L 2253 4666 
z
" transform="scale(0.015625)"/>
       </defs>
       <use xlink:href="#DejaVuSans-31"/>
       <use xlink:href="#DejaVuSans-34" x="63.623047"/>
      </g>
     </g>
    </g>
    <g id="ytick_5">
     <g id="line2d_12">
      <g>
       <use xlink:href="#me104e1ed2c" x="57.6" y="58.382888" style="stroke: #000000; stroke-width: 0.8"/>
      </g>
     </g>
     <g id="text_12">
      <!-- 16 -->
      <g transform="translate(37.875 62.182106)scale(0.1 -0.1)">
       <defs>
        <path id="DejaVuSans-36" d="M 2113 2584 
Q 1688 2584 1439 2293 
Q 1191 2003 1191 1497 
Q 1191 994 1439 701 
Q 1688 409 2113 409 
Q 2538 409 2786 701 
Q 3034 994 3034 1497 
Q 3034 2003 2786 2293 
Q 2538 2584 2113 2584 
z
M 3366 4563 
L 3366 3988 
Q 3128 4100 2886 4159 
Q 2644 4219 2406 4219 
Q 1781 4219 1451 3797 
Q 1122 3375 1075 2522 
Q 1259 2794 1537 2939 
Q 1816 3084 2150 3084 
Q 2853 3084 3261 2657 
Q 3669 2231 3669 1497 
Q 3669 778 3244 343 
Q 2819 -91 2113 -91 
Q 1303 -91 875 529 
Q 447 1150 447 2328 
Q 447 3434 972 4092 
Q 1497 4750 2381 4750 
Q 2619 4750 2861 4703 
Q 3103 4656 3366 4563 
z
" transform="scale(0.015625)"/>
       </defs>
       <use xlink:href="#DejaVuSans-31"/>
       <use xlink:href="#DejaVuSans-36" x="63.623047"/>
      </g>
     </g>
    </g>
   </g>
   <g id="line2d_13">
    <path d="M 73.832727 53.568 
L 74.850453 94.564729 
L 75.868179 105.111962 
L 76.885905 109.283763 
L 77.903631 115.091631 
L 78.921357 117.719269 
L 79.939082 130.296464 
L 80.956808 131.430808 
L 81.974534 144.652993 
L 82.99226 147.120203 
L 84.009986 155.230248 
L 85.027712 156.641158 
L 86.045437 159.349725 
L 87.063163 158.328349 
L 88.080889 167.432765 
L 89.098615 168.778896 
L 90.116341 174.232087 
L 91.134067 177.40809 
L 92.151793 176.095297 
L 93.169518 176.815725 
L 94.187244 181.317794 
L 95.20497 183.840352 
L 96.222696 185.787892 
L 97.240422 183.09656 
L 98.258148 186.72431 
L 99.275873 184.961484 
L 100.293599 188.13227 
L 101.311325 189.222161 
L 102.329051 182.320455 
L 103.346777 180.060247 
L 104.364503 187.15662 
L 105.382229 185.992774 
L 106.399954 185.853593 
L 107.41768 190.485538 
L 108.435406 188.414479 
L 109.453132 183.636737 
L 110.470858 181.691282 
L 111.488584 184.839381 
L 112.506309 190.622382 
L 113.524035 192.978584 
L 114.541761 186.378872 
L 115.559487 191.94134 
L 116.577213 185.839528 
L 117.594939 183.661662 
L 118.612665 187.183598 
L 119.63039 192.090284 
L 120.648116 185.792451 
L 121.665842 183.823574 
L 122.683568 183.233182 
L 123.701294 190.909143 
L 124.71902 186.184574 
L 125.736746 187.876735 
L 126.754471 184.293312 
L 127.772197 182.76815 
L 128.789923 186.578281 
L 129.807649 188.142089 
L 130.825375 192.660245 
L 131.843101 190.621339 
L 132.860826 190.244421 
L 133.878552 186.418683 
L 134.896278 184.638243 
L 135.914004 191.392628 
L 136.93173 193.844193 
L 137.949456 191.308378 
L 138.967182 139.883238 
L 139.984907 161.828528 
L 142.020359 168.023579 
L 143.038085 166.47607 
L 144.055811 167.692713 
L 145.073537 169.76481 
L 146.091262 175.86314 
L 147.108988 172.653841 
L 148.126714 180.033246 
L 149.14444 179.847874 
L 150.162166 176.544418 
L 151.179892 176.480807 
L 152.197618 181.360685 
L 153.215343 183.769584 
L 154.233069 180.913403 
L 155.250795 184.113161 
L 156.268521 190.01682 
L 157.286247 185.071239 
L 158.303973 191.175624 
L 159.321698 186.065974 
L 160.339424 188.50498 
L 161.35715 189.473035 
L 162.374876 185.876356 
L 163.392602 188.524996 
L 164.410328 190.276043 
L 165.428054 195.453336 
L 166.445779 189.485773 
L 167.463505 195.133084 
L 168.481231 198.0221 
L 169.498957 199.209762 
L 170.516683 199.978975 
L 171.534409 196.43634 
L 172.552135 198.550819 
L 173.56986 191.707014 
L 174.587586 189.215755 
L 175.605312 188.412566 
L 176.623038 192.240334 
L 177.640764 197.287995 
L 178.65849 199.508704 
L 179.676215 200.846356 
L 180.693941 197.703433 
L 181.711667 200.420029 
L 182.729393 193.117328 
L 183.747119 198.253511 
L 184.764845 200.780778 
L 185.782571 197.796984 
L 186.800296 200.648557 
L 187.818022 197.554509 
L 188.835748 200.029045 
L 189.853474 196.992204 
L 190.8712 195.532012 
L 191.888926 195.115606 
L 192.906651 199.123125 
L 193.924377 200.563434 
L 194.942103 201.551764 
L 195.959829 202.31453 
L 196.977555 194.894524 
L 197.995281 195.497589 
L 199.013007 195.055136 
L 200.030732 199.212749 
L 201.048458 197.565976 
L 202.066184 196.831579 
L 203.08391 192.324257 
L 204.101636 252.983216 
L 205.119362 265.764085 
L 206.137087 264.407038 
L 207.154813 268.334024 
L 208.172539 269.711105 
L 209.190265 262.880639 
L 210.207991 261.3835 
L 211.225717 269.080119 
L 212.243443 267.903698 
L 213.261168 271.661164 
L 214.278894 265.67557 
L 215.29662 272.119165 
L 216.314346 274.052625 
L 217.332072 274.827893 
L 218.349798 271.402687 
L 219.367524 274.735216 
L 220.385249 275.883431 
L 221.402975 268.482117 
L 222.420701 270.338181 
L 223.438427 266.548803 
L 224.456153 269.355042 
L 225.473879 274.434699 
L 226.491604 276.078607 
L 227.50933 268.81076 
L 228.527056 270.483983 
L 229.544782 266.999297 
L 230.562508 265.987343 
L 231.580234 273.819089 
L 232.59796 272.088715 
L 233.615685 276.023055 
L 234.633411 277.173503 
L 235.651137 277.727846 
L 236.668863 273.623875 
L 237.686589 276.323416 
L 238.704315 273.37917 
L 239.72204 268.428318 
L 240.739766 271.281413 
L 241.757492 271.726048 
L 242.775218 275.760804 
L 243.792944 277.261743 
L 244.81067 270.125707 
L 245.828396 271.807761 
L 246.846121 272.029942 
L 247.863847 276.201033 
L 248.881573 269.612494 
L 249.899299 275.410621 
L 250.917025 277.521814 
L 252.952476 278.469927 
L 256.005654 278.416906 
L 257.02338 274.275602 
L 258.041106 269.299402 
L 259.058832 271.952586 
L 260.076557 268.329989 
L 261.094283 267.200857 
L 262.112009 275.160614 
L 263.129735 273.248875 
L 264.147461 273.088782 
L 265.165187 272.774552 
L 266.182913 272.999834 
L 267.200638 268.785506 
L 268.218364 271.623272 
L 269.23609 270.212686 
L 270.253816 269.755324 
L 271.271542 274.028828 
L 272.289268 279.151394 
L 273.306993 276.297365 
L 274.324719 275.111502 
L 275.342445 271.918384 
L 276.360171 280.415989 
L 277.377897 273.923284 
L 278.395623 282.734503 
L 279.413349 282.909698 
L 280.431074 281.650204 
L 281.4488 282.937023 
L 282.466526 278.383602 
L 283.484252 276.320471 
L 284.501978 284.193441 
L 285.519704 279.616869 
L 286.537429 283.070559 
L 288.572881 275.592302 
L 289.590607 281.198839 
L 290.608333 276.346301 
L 291.626059 279.712558 
L 292.643785 275.975128 
L 293.66151 276.832834 
L 294.679236 285.448945 
L 295.696962 277.481881 
L 296.714688 285.41985 
L 297.732414 284.697216 
L 298.75014 285.629835 
L 300.785591 276.269041 
L 301.803317 277.970665 
L 302.821043 285.670385 
L 303.838769 284.903843 
L 304.856495 277.147305 
L 305.874221 281.12811 
L 306.891946 285.866363 
L 307.909672 281.045965 
L 308.927398 280.398799 
L 309.945124 281.312437 
L 310.96285 281.218599 
L 311.980576 277.271057 
L 312.998302 281.998571 
L 315.033753 281.885223 
L 316.051479 284.300247 
L 317.069205 276.648881 
L 318.086931 278.218727 
L 320.122382 285.867139 
L 321.140108 284.329869 
L 322.157834 282.16409 
L 323.17556 276.465168 
L 324.193286 284.582865 
L 326.228738 276.716604 
L 327.246463 277.489789 
L 328.264189 277.373426 
L 329.281915 286.030907 
L 330.299641 277.246369 
L 331.317367 286.022633 
L 332.335093 278.019528 
L 333.352818 276.470992 
L 334.370544 280.272204 
L 335.38827 286.26694 
L 336.405996 285.747923 
L 337.423722 291.625071 
L 339.459174 284.091729 
L 340.476899 286.847659 
L 341.494625 291.416433 
L 342.512351 285.500894 
L 343.530077 293.333702 
L 345.565529 285.803971 
L 346.583254 285.98672 
L 347.60098 290.105272 
L 348.618706 290.25884 
L 349.636432 294.339577 
L 350.654158 286.548855 
L 351.671884 289.059357 
L 352.68961 290.930206 
L 353.707335 286.080645 
L 354.725061 285.483186 
L 355.742787 293.574662 
L 356.760513 294.415309 
L 357.778239 293.578729 
L 358.795965 294.502707 
L 359.813691 291.257149 
L 360.831416 287.215665 
L 361.849142 290.413847 
L 362.866868 294.509005 
L 363.884594 295.316148 
L 364.90232 291.272361 
L 365.920046 293.68922 
L 366.937771 290.765746 
L 368.973223 290.689674 
L 369.990949 290.700634 
L 371.008675 289.940985 
L 372.026401 294.017556 
L 373.044127 290.858716 
L 374.061852 289.977411 
L 375.079578 291.630488 
L 376.097304 286.689213 
L 377.11503 293.916663 
L 378.132756 290.870326 
L 379.150482 290.766513 
L 380.168207 293.936479 
L 381.185933 286.159524 
L 382.203659 290.120685 
L 383.221385 290.892468 
L 384.239111 290.773688 
L 385.256837 291.531818 
L 386.274563 285.922917 
L 387.292288 286.148865 
L 388.310014 290.118828 
L 389.32774 290.889946 
L 390.345466 295.488 
L 391.363192 295.355599 
L 392.380918 291.392722 
L 393.398643 290.619811 
L 394.416369 290.73708 
L 395.434095 295.465211 
L 396.451821 290.626836 
L 397.469547 293.910657 
L 398.487273 289.079175 
L 398.487273 289.079175 
" clip-path="url(#p0e0a965f57)" style="fill: none; stroke: #1f77b4; stroke-width: 1.5; stroke-linecap: square"/>
   </g>
   <g id="patch_3">
    <path d="M 57.6 307.584 
L 57.6 41.472 
" style="fill: none; stroke: #000000; stroke-width: 0.8; stroke-linejoin: miter; stroke-linecap: square"/>
   </g>
   <g id="patch_4">
    <path d="M 414.72 307.584 
L 414.72 41.472 
" style="fill: none; stroke: #000000; stroke-width: 0.8; stroke-linejoin: miter; stroke-linecap: square"/>
   </g>
   <g id="patch_5">
    <path d="M 57.6 307.584 
L 414.72 307.584 
" style="fill: none; stroke: #000000; stroke-width: 0.8; stroke-linejoin: miter; stroke-linecap: square"/>
   </g>
   <g id="patch_6">
    <path d="M 57.6 41.472 
L 414.72 41.472 
" style="fill: none; stroke: #000000; stroke-width: 0.8; stroke-linejoin: miter; stroke-linecap: square"/>
   </g>
   <g id="legend_1">
    <g id="patch_7">
     <path d="M 354.074688 64.150125 
L 407.72 64.150125 
Q 409.72 64.150125 409.72 62.150125 
L 409.72 48.472 
Q 409.72 46.472 407.72 46.472 
L 354.074688 46.472 
Q 352.074688 46.472 352.074688 48.472 
L 352.074688 62.150125 
Q 352.074688 64.150125 354.074688 64.150125 
z
" style="fill: #ffffff; opacity: 0.8; stroke: #cccccc; stroke-linejoin: miter"/>
    </g>
    <g id="line2d_14">
     <path d="M 356.074688 54.570438 
L 366.074688 54.570438 
L 376.074688 54.570438 
" style="fill: none; stroke: #1f77b4; stroke-width: 1.5; stroke-linecap: square"/>
    </g>
    <g id="text_13">
     <!-- set2 -->
     <g transform="translate(384.074688 58.070438)scale(0.1 -0.1)">
      <defs>
       <path id="DejaVuSans-73" d="M 2834 3397 
L 2834 2853 
Q 2591 2978 2328 3040 
Q 2066 3103 1784 3103 
Q 1356 3103 1142 2972 
Q 928 2841 928 2578 
Q 928 2378 1081 2264 
Q 1234 2150 1697 2047 
L 1894 2003 
Q 2506 1872 2764 1633 
Q 3022 1394 3022 966 
Q 3022 478 2636 193 
Q 2250 -91 1575 -91 
Q 1294 -91 989 -36 
Q 684 19 347 128 
L 347 722 
Q 666 556 975 473 
Q 1284 391 1588 391 
Q 1994 391 2212 530 
Q 2431 669 2431 922 
Q 2431 1156 2273 1281 
Q 2116 1406 1581 1522 
L 1381 1569 
Q 847 1681 609 1914 
Q 372 2147 372 2553 
Q 372 3047 722 3315 
Q 1072 3584 1716 3584 
Q 2034 3584 2315 3537 
Q 2597 3491 2834 3397 
z
" transform="scale(0.015625)"/>
       <path id="DejaVuSans-65" d="M 3597 1894 
L 3597 1613 
L 953 1613 
Q 991 1019 1311 708 
Q 1631 397 2203 397 
Q 2534 397 2845 478 
Q 3156 559 3463 722 
L 3463 178 
Q 3153 47 2828 -22 
Q 2503 -91 2169 -91 
Q 1331 -91 842 396 
Q 353 884 353 1716 
Q 353 2575 817 3079 
Q 1281 3584 2069 3584 
Q 2775 3584 3186 3129 
Q 3597 2675 3597 1894 
z
M 3022 2063 
Q 3016 2534 2758 2815 
Q 2500 3097 2075 3097 
Q 1594 3097 1305 2825 
Q 1016 2553 972 2059 
L 3022 2063 
z
" transform="scale(0.015625)"/>
       <path id="DejaVuSans-74" d="M 1172 4494 
L 1172 3500 
L 2356 3500 
L 2356 3053 
L 1172 3053 
L 1172 1153 
Q 1172 725 1289 603 
Q 1406 481 1766 481 
L 2356 481 
L 2356 0 
L 1766 0 
Q 1100 0 847 248 
Q 594 497 594 1153 
L 594 3053 
L 172 3053 
L 172 3500 
L 594 3500 
L 594 4494 
L 1172 4494 
z
" transform="scale(0.015625)"/>
      </defs>
      <use xlink:href="#DejaVuSans-73"/>
      <use xlink:href="#DejaVuSans-65" x="52.099609"/>
      <use xlink:href="#DejaVuSans-74" x="113.623047"/>
      <use xlink:href="#DejaVuSans-32" x="152.832031"/>
     </g>
    </g>
   </g>
  </g>
 </g>
 <defs>
  <clipPath id="p0e0a965f57">
   <rect x="57.6" y="41.472" width="357.12" height="266.112"/>
  </clipPath>
 </defs>
</svg>
