<?xml version="1.0" encoding="utf-8" standalone="no"?>
<!DOCTYPE svg PUBLIC "-//W3C//DTD SVG 1.1//EN"
  "http://www.w3.org/Graphics/SVG/1.1/DTD/svg11.dtd">
<svg xmlns:xlink="http://www.w3.org/1999/xlink" width="460.8pt" height="345.6pt" viewBox="0 0 460.8 345.6" xmlns="http://www.w3.org/2000/svg" version="1.1">
 <metadata>
  <rdf:RDF xmlns:dc="http://purl.org/dc/elements/1.1/" xmlns:cc="http://creativecommons.org/ns#" xmlns:rdf="http://www.w3.org/1999/02/22-rdf-syntax-ns#">
   <cc:Work>
    <dc:type rdf:resource="http://purl.org/dc/dcmitype/StillImage"/>
    <dc:date>2022-08-11T15:16:59.167980</dc:date>
    <dc:format>image/svg+xml</dc:format>
    <dc:creator>
     <cc:Agent>
      <dc:title>Matplotlib v3.5.2, https://matplotlib.org/</dc:title>
     </cc:Agent>
    </dc:creator>
   </cc:Work>
  </rdf:RDF>
 </metadata>
 <defs>
  <style type="text/css">*{stroke-linejoin: round; stroke-linecap: butt}</style>
 </defs>
 <g id="figure_1">
  <g id="patch_1">
   <path d="M 0 345.6 
L 460.8 345.6 
L 460.8 0 
L 0 0 
z
" style="fill: #ffffff"/>
  </g>
  <g id="axes_1">
   <g id="patch_2">
    <path d="M 57.6 307.584 
L 414.72 307.584 
L 414.72 41.472 
L 57.6 41.472 
z
" style="fill: #ffffff"/>
   </g>
   <g id="matplotlib.axis_1">
    <g id="xtick_1">
     <g id="line2d_1">
      <defs>
       <path id="me6b626dd50" d="M 0 0 
L 0 3.5 
" style="stroke: #000000; stroke-width: 0.8"/>
      </defs>
      <g>
       <use xlink:href="#me6b626dd50" x="73.832727" y="307.584" style="stroke: #000000; stroke-width: 0.8"/>
      </g>
     </g>
     <g id="text_1">
      <!-- 0 -->
      <g transform="translate(70.651477 322.182437)scale(0.1 -0.1)">
       <defs>
        <path id="DejaVuSans-30" d="M 2034 4250 
Q 1547 4250 1301 3770 
Q 1056 3291 1056 2328 
Q 1056 1369 1301 889 
Q 1547 409 2034 409 
Q 2525 409 2770 889 
Q 3016 1369 3016 2328 
Q 3016 3291 2770 3770 
Q 2525 4250 2034 4250 
z
M 2034 4750 
Q 2819 4750 3233 4129 
Q 3647 3509 3647 2328 
Q 3647 1150 3233 529 
Q 2819 -91 2034 -91 
Q 1250 -91 836 529 
Q 422 1150 422 2328 
Q 422 3509 836 4129 
Q 1250 4750 2034 4750 
z
" transform="scale(0.015625)"/>
       </defs>
       <use xlink:href="#DejaVuSans-30"/>
      </g>
     </g>
    </g>
    <g id="xtick_2">
     <g id="line2d_2">
      <g>
       <use xlink:href="#me6b626dd50" x="137.266597" y="307.584" style="stroke: #000000; stroke-width: 0.8"/>
      </g>
     </g>
     <g id="text_2">
      <!-- 500 -->
      <g transform="translate(127.722847 322.182437)scale(0.1 -0.1)">
       <defs>
        <path id="DejaVuSans-35" d="M 691 4666 
L 3169 4666 
L 3169 4134 
L 1269 4134 
L 1269 2991 
Q 1406 3038 1543 3061 
Q 1681 3084 1819 3084 
Q 2600 3084 3056 2656 
Q 3513 2228 3513 1497 
Q 3513 744 3044 326 
Q 2575 -91 1722 -91 
Q 1428 -91 1123 -41 
Q 819 9 494 109 
L 494 744 
Q 775 591 1075 516 
Q 1375 441 1709 441 
Q 2250 441 2565 725 
Q 2881 1009 2881 1497 
Q 2881 1984 2565 2268 
Q 2250 2553 1709 2553 
Q 1456 2553 1204 2497 
Q 953 2441 691 2322 
L 691 4666 
z
" transform="scale(0.015625)"/>
       </defs>
       <use xlink:href="#DejaVuSans-35"/>
       <use xlink:href="#DejaVuSans-30" x="63.623047"/>
       <use xlink:href="#DejaVuSans-30" x="127.246094"/>
      </g>
     </g>
    </g>
    <g id="xtick_3">
     <g id="line2d_3">
      <g>
       <use xlink:href="#me6b626dd50" x="200.700467" y="307.584" style="stroke: #000000; stroke-width: 0.8"/>
      </g>
     </g>
     <g id="text_3">
      <!-- 1000 -->
      <g transform="translate(187.975467 322.182437)scale(0.1 -0.1)">
       <defs>
        <path id="DejaVuSans-31" d="M 794 531 
L 1825 531 
L 1825 4091 
L 703 3866 
L 703 4441 
L 1819 4666 
L 2450 4666 
L 2450 531 
L 3481 531 
L 3481 0 
L 794 0 
L 794 531 
z
" transform="scale(0.015625)"/>
       </defs>
       <use xlink:href="#DejaVuSans-31"/>
       <use xlink:href="#DejaVuSans-30" x="63.623047"/>
       <use xlink:href="#DejaVuSans-30" x="127.246094"/>
       <use xlink:href="#DejaVuSans-30" x="190.869141"/>
      </g>
     </g>
    </g>
    <g id="xtick_4">
     <g id="line2d_4">
      <g>
       <use xlink:href="#me6b626dd50" x="264.134337" y="307.584" style="stroke: #000000; stroke-width: 0.8"/>
      </g>
     </g>
     <g id="text_4">
      <!-- 1500 -->
      <g transform="translate(251.409337 322.182437)scale(0.1 -0.1)">
       <use xlink:href="#DejaVuSans-31"/>
       <use xlink:href="#DejaVuSans-35" x="63.623047"/>
       <use xlink:href="#DejaVuSans-30" x="127.246094"/>
       <use xlink:href="#DejaVuSans-30" x="190.869141"/>
      </g>
     </g>
    </g>
    <g id="xtick_5">
     <g id="line2d_5">
      <g>
       <use xlink:href="#me6b626dd50" x="327.568206" y="307.584" style="stroke: #000000; stroke-width: 0.8"/>
      </g>
     </g>
     <g id="text_5">
      <!-- 2000 -->
      <g transform="translate(314.843206 322.182437)scale(0.1 -0.1)">
       <defs>
        <path id="DejaVuSans-32" d="M 1228 531 
L 3431 531 
L 3431 0 
L 469 0 
L 469 531 
Q 828 903 1448 1529 
Q 2069 2156 2228 2338 
Q 2531 2678 2651 2914 
Q 2772 3150 2772 3378 
Q 2772 3750 2511 3984 
Q 2250 4219 1831 4219 
Q 1534 4219 1204 4116 
Q 875 4013 500 3803 
L 500 4441 
Q 881 4594 1212 4672 
Q 1544 4750 1819 4750 
Q 2544 4750 2975 4387 
Q 3406 4025 3406 3419 
Q 3406 3131 3298 2873 
Q 3191 2616 2906 2266 
Q 2828 2175 2409 1742 
Q 1991 1309 1228 531 
z
" transform="scale(0.015625)"/>
       </defs>
       <use xlink:href="#DejaVuSans-32"/>
       <use xlink:href="#DejaVuSans-30" x="63.623047"/>
       <use xlink:href="#DejaVuSans-30" x="127.246094"/>
       <use xlink:href="#DejaVuSans-30" x="190.869141"/>
      </g>
     </g>
    </g>
    <g id="xtick_6">
     <g id="line2d_6">
      <g>
       <use xlink:href="#me6b626dd50" x="391.002076" y="307.584" style="stroke: #000000; stroke-width: 0.8"/>
      </g>
     </g>
     <g id="text_6">
      <!-- 2500 -->
      <g transform="translate(378.277076 322.182437)scale(0.1 -0.1)">
       <use xlink:href="#DejaVuSans-32"/>
       <use xlink:href="#DejaVuSans-35" x="63.623047"/>
       <use xlink:href="#DejaVuSans-30" x="127.246094"/>
       <use xlink:href="#DejaVuSans-30" x="190.869141"/>
      </g>
     </g>
    </g>
   </g>
   <g id="matplotlib.axis_2">
    <g id="ytick_1">
     <g id="line2d_7">
      <defs>
       <path id="mdfff08f368" d="M 0 0 
L -3.5 0 
" style="stroke: #000000; stroke-width: 0.8"/>
      </defs>
      <g>
       <use xlink:href="#mdfff08f368" x="57.6" y="283.184381" style="stroke: #000000; stroke-width: 0.8"/>
      </g>
     </g>
     <g id="text_7">
      <!-- 4050 -->
      <g transform="translate(25.15 286.983599)scale(0.1 -0.1)">
       <defs>
        <path id="DejaVuSans-34" d="M 2419 4116 
L 825 1625 
L 2419 1625 
L 2419 4116 
z
M 2253 4666 
L 3047 4666 
L 3047 1625 
L 3713 1625 
L 3713 1100 
L 3047 1100 
L 3047 0 
L 2419 0 
L 2419 1100 
L 313 1100 
L 313 1709 
L 2253 4666 
z
" transform="scale(0.015625)"/>
       </defs>
       <use xlink:href="#DejaVuSans-34"/>
       <use xlink:href="#DejaVuSans-30" x="63.623047"/>
       <use xlink:href="#DejaVuSans-35" x="127.246094"/>
       <use xlink:href="#DejaVuSans-30" x="190.869141"/>
      </g>
     </g>
    </g>
    <g id="ytick_2">
     <g id="line2d_8">
      <g>
       <use xlink:href="#mdfff08f368" x="57.6" y="225.372668" style="stroke: #000000; stroke-width: 0.8"/>
      </g>
     </g>
     <g id="text_8">
      <!-- 4100 -->
      <g transform="translate(25.15 229.171887)scale(0.1 -0.1)">
       <use xlink:href="#DejaVuSans-34"/>
       <use xlink:href="#DejaVuSans-31" x="63.623047"/>
       <use xlink:href="#DejaVuSans-30" x="127.246094"/>
       <use xlink:href="#DejaVuSans-30" x="190.869141"/>
      </g>
     </g>
    </g>
    <g id="ytick_3">
     <g id="line2d_9">
      <g>
       <use xlink:href="#mdfff08f368" x="57.6" y="167.560955" style="stroke: #000000; stroke-width: 0.8"/>
      </g>
     </g>
     <g id="text_9">
      <!-- 4150 -->
      <g transform="translate(25.15 171.360174)scale(0.1 -0.1)">
       <use xlink:href="#DejaVuSans-34"/>
       <use xlink:href="#DejaVuSans-31" x="63.623047"/>
       <use xlink:href="#DejaVuSans-35" x="127.246094"/>
       <use xlink:href="#DejaVuSans-30" x="190.869141"/>
      </g>
     </g>
    </g>
    <g id="ytick_4">
     <g id="line2d_10">
      <g>
       <use xlink:href="#mdfff08f368" x="57.6" y="109.749242" style="stroke: #000000; stroke-width: 0.8"/>
      </g>
     </g>
     <g id="text_10">
      <!-- 4200 -->
      <g transform="translate(25.15 113.548461)scale(0.1 -0.1)">
       <use xlink:href="#DejaVuSans-34"/>
       <use xlink:href="#DejaVuSans-32" x="63.623047"/>
       <use xlink:href="#DejaVuSans-30" x="127.246094"/>
       <use xlink:href="#DejaVuSans-30" x="190.869141"/>
      </g>
     </g>
    </g>
    <g id="ytick_5">
     <g id="line2d_11">
      <g>
       <use xlink:href="#mdfff08f368" x="57.6" y="51.937529" style="stroke: #000000; stroke-width: 0.8"/>
      </g>
     </g>
     <g id="text_11">
      <!-- 4250 -->
      <g transform="translate(25.15 55.736748)scale(0.1 -0.1)">
       <use xlink:href="#DejaVuSans-34"/>
       <use xlink:href="#DejaVuSans-32" x="63.623047"/>
       <use xlink:href="#DejaVuSans-35" x="127.246094"/>
       <use xlink:href="#DejaVuSans-30" x="190.869141"/>
      </g>
     </g>
    </g>
   </g>
   <g id="line2d_12">
    <path d="M 73.832727 194.539942 
L 74.086463 186.387024 
L 74.467066 174.083403 
L 74.593934 180.012491 
L 74.847669 176.158753 
L 74.974537 177.196429 
L 75.101405 179.568177 
L 75.228272 179.568177 
L 75.482008 189.499484 
L 75.735743 174.972597 
L 75.989479 178.382021 
L 76.370082 150.365922 
L 76.49695 152.73767 
L 76.750685 169.487824 
L 77.258156 157.184769 
L 77.385024 156.295011 
L 77.638759 160.44571 
L 77.765627 157.777564 
L 77.892495 162.668978 
L 78.14623 188.16541 
L 78.399966 161.334904 
L 78.526834 158.22188 
L 78.653701 161.038507 
L 78.907437 169.784222 
L 79.161172 159.704433 
L 79.28804 160.593627 
L 79.414908 159.704433 
L 79.668643 176.90003 
L 79.922379 160.44571 
L 80.302982 181.495046 
L 80.42985 184.755988 
L 80.683585 178.826899 
L 80.810453 184.459589 
L 81.191056 170.525499 
L 81.317924 162.817459 
L 81.444792 164.744328 
L 81.698527 180.160973 
L 81.825395 181.198648 
L 81.952263 194.687859 
L 82.205998 190.092845 
L 82.332866 182.087842 
L 82.459734 182.53272 
L 82.586601 184.015275 
L 82.713469 182.829119 
L 82.840337 186.534939 
L 82.967205 198.690079 
L 83.22094 190.834121 
L 83.474675 201.506706 
L 83.982146 161.483385 
L 84.235882 184.904469 
L 84.489617 169.932704 
L 84.743353 194.984257 
L 84.870221 191.723315 
L 84.997088 185.497264 
L 85.250824 198.245763 
L 85.377692 196.170413 
L 85.631427 184.311673 
L 85.758295 178.085622 
L 86.01203 195.725535 
L 86.265766 177.196429 
L 86.392633 178.530502 
L 86.646369 204.174852 
L 86.900104 177.196429 
L 87.026972 181.346565 
L 87.15384 180.605852 
L 87.280708 184.015275 
L 87.534443 205.212527 
L 87.915046 181.939925 
L 88.168782 191.426917 
L 88.422517 167.116075 
L 88.676253 190.092845 
L 88.803121 178.530502 
L 88.929988 177.789224 
L 89.056856 182.9776 
L 89.310591 171.711656 
L 89.564327 196.31833 
L 89.818062 178.085622 
L 90.071798 190.24076 
L 90.325533 182.087842 
L 90.452401 184.163192 
L 90.959872 202.099501 
L 91.08674 193.946581 
L 91.340475 210.252421 
L 91.467343 202.840778 
L 91.594211 203.434139 
L 91.721079 212.32777 
L 91.974814 201.951584 
L 92.101682 208.325552 
L 92.355417 180.90225 
L 92.609153 196.466811 
L 92.862888 189.499484 
L 93.116624 190.68564 
L 93.243491 189.203085 
L 93.497227 194.391461 
L 93.624095 193.798666 
L 93.87783 206.398683 
L 94.004698 204.768211 
L 94.131566 195.725535 
L 94.258433 196.31833 
L 94.512169 209.956023 
L 94.639037 209.511709 
L 94.892772 192.612509 
L 95.146508 218.85022 
L 95.653978 191.723315 
L 95.780846 193.353786 
L 95.907714 196.615293 
L 96.034582 192.019714 
L 96.161449 192.019714 
L 96.288317 194.539942 
L 96.542053 188.16541 
L 96.66892 189.796446 
L 97.176391 175.713875 
L 97.303259 170.525499 
L 97.430127 173.490608 
L 97.683862 182.087842 
L 97.937598 178.826899 
L 98.064466 182.384239 
L 98.191333 195.577618 
L 98.318201 197.059607 
L 98.445069 196.31833 
L 98.825672 186.387024 
L 99.079407 190.537159 
L 99.206275 191.723315 
L 99.460011 208.177635 
L 99.713746 189.647965 
L 99.967482 188.462373 
L 100.094349 192.76099 
L 100.221217 203.582056 
L 100.474953 181.643526 
L 100.60182 183.718312 
L 100.728688 190.537159 
L 101.236159 180.012491 
L 101.363027 180.160973 
L 101.489894 178.530502 
L 101.616762 178.382021 
L 101.74363 181.495046 
L 101.870498 178.382021 
L 101.997365 171.859571 
L 102.251101 195.132738 
L 102.504836 182.384239 
L 102.631704 182.236323 
L 102.758572 173.787006 
L 103.012307 199.579837 
L 103.266043 174.528283 
L 103.392911 174.6762 
L 103.519778 178.826899 
L 103.773514 169.487824 
L 103.900382 169.636305 
L 104.027249 165.634086 
L 104.154117 155.553733 
L 104.280985 161.186988 
L 104.407852 174.972597 
L 104.53472 175.565394 
L 104.788456 150.662321 
L 105.042191 167.560955 
L 105.169059 161.334904 
L 105.295927 163.855134 
L 105.549662 182.681201 
L 105.67653 180.457371 
L 105.803398 175.268995 
L 105.930265 176.603068 
L 106.184001 186.090625 
L 106.310869 184.459589 
L 106.437736 186.534939 
L 106.564604 182.9776 
L 106.691472 183.421914 
L 106.945207 188.462373 
L 107.198943 187.276217 
L 107.452678 174.824681 
L 107.579546 164.596411 
L 107.706414 169.339907 
L 107.833281 180.605852 
L 107.960149 181.939925 
L 108.087017 178.974816 
L 108.213885 180.309454 
L 108.46762 170.67398 
L 108.721356 180.012491 
L 108.975091 174.23132 
L 109.355694 189.944363 
L 109.482562 189.203085 
L 109.736298 178.678418 
L 110.243769 199.134957 
L 110.370636 198.39368 
L 110.497504 189.944363 
L 110.624372 190.24076 
L 110.878107 184.60807 
L 111.131843 202.396464 
L 111.385578 188.906688 
L 111.512446 191.723315 
L 111.639314 188.017494 
L 111.893049 200.913909 
L 112.146785 185.200867 
L 112.273652 186.534939 
L 112.40052 184.755988 
L 112.527388 185.349348 
L 112.907991 195.874016 
L 113.161727 182.236323 
L 113.415462 193.798666 
L 113.922933 148.734886 
L 114.049801 154.812456 
L 114.176668 162.224663 
L 114.303536 152.292791 
L 114.430404 188.758771 
L 114.684139 186.831338 
L 114.937875 169.636305 
L 115.19161 180.90225 
L 115.318478 177.492827 
L 115.572214 177.047947 
L 115.825949 183.570395 
L 115.952817 189.351567 
L 116.079685 188.313891 
L 116.33342 179.123298 
L 116.714023 183.570395 
L 116.840891 181.643526 
L 116.967759 171.118859 
L 117.094626 172.15597 
L 117.348362 181.495046 
L 117.47523 182.53272 
L 117.602097 187.424698 
L 117.855833 177.789224 
L 117.982701 175.713875 
L 118.109568 175.565394 
L 118.490172 186.090625 
L 118.743907 202.692862 
L 118.997643 173.787006 
L 119.12451 179.271779 
L 119.251378 178.530502 
L 119.378246 171.711656 
L 119.758849 178.530502 
L 119.885717 181.050167 
L 120.139452 173.638525 
L 120.393188 189.203085 
L 120.520055 183.421914 
L 120.646923 185.349348 
L 120.900659 193.057389 
L 121.027526 196.170413 
L 121.154394 195.577618 
L 121.661865 181.495046 
L 121.788733 182.236323 
L 121.915601 181.939925 
L 122.042468 182.681201 
L 122.169336 189.351567 
L 122.423072 186.090625 
L 122.676807 192.168195 
L 122.803675 187.572615 
L 122.930542 178.678418 
L 123.184278 185.349348 
L 123.311146 180.457371 
L 123.438013 180.160973 
L 123.691749 190.834121 
L 123.945484 194.095063 
L 124.326088 182.384239 
L 124.452955 169.191426 
L 124.579823 168.302232 
L 124.833559 184.904469 
L 125.087294 175.713875 
L 125.34103 188.61029 
L 125.594765 177.937141 
L 125.8485 189.796446 
L 126.102236 193.798666 
L 126.229104 191.426917 
L 126.355971 183.273998 
L 126.482839 182.681201 
L 126.736575 188.758771 
L 126.863442 180.309454 
L 126.99031 179.716093 
L 127.244046 194.687859 
L 127.497781 180.012491 
L 127.624649 181.939925 
L 127.751517 180.90225 
L 127.878384 184.163192 
L 128.13212 193.946581 
L 128.512723 185.200867 
L 128.766458 189.499484 
L 129.020194 172.304451 
L 129.273929 184.904469 
L 129.400797 176.010272 
L 129.527665 175.862355 
L 129.654533 183.570395 
L 129.908268 180.309454 
L 130.162004 196.466811 
L 130.796342 178.530502 
L 130.92321 179.864574 
L 131.303813 193.650184 
L 131.430681 195.280655 
L 131.557549 200.024715 
L 131.811284 194.243544 
L 131.938152 198.245763 
L 132.06502 198.690079 
L 132.191887 195.132738 
L 132.445623 201.061826 
L 132.699358 187.127736 
L 132.826226 186.979819 
L 132.953094 182.9776 
L 133.079962 183.273998 
L 133.206829 186.387024 
L 133.333697 180.457371 
L 133.460565 182.681201 
L 133.587433 188.758771 
L 133.7143 188.462373 
L 133.841168 184.459589 
L 133.968036 184.904469 
L 134.094904 184.755988 
L 134.475507 193.946581 
L 134.602375 192.612509 
L 134.729242 188.017494 
L 134.85611 190.537159 
L 135.109845 199.134957 
L 135.490449 187.869013 
L 135.744184 201.655187 
L 135.99792 193.205869 
L 136.124787 196.615293 
L 136.378523 190.24076 
L 136.505391 192.168195 
L 136.759126 188.462373 
L 136.885994 191.278436 
L 137.012862 190.389242 
L 137.393465 184.60807 
L 137.520333 187.869013 
L 137.6472 185.793663 
L 137.900936 171.711656 
L 138.154671 180.309454 
L 138.408407 182.681201 
L 138.535274 183.421914 
L 138.78901 178.530502 
L 139.042745 184.015275 
L 139.296481 180.753768 
L 139.423349 181.643526 
L 139.677084 174.6762 
L 139.93082 186.238542 
L 140.057687 185.349348 
L 140.184555 175.565394 
L 140.311423 179.123298 
L 140.438291 186.387024 
L 140.692026 176.751549 
L 140.818894 182.384239 
L 141.072629 173.490608 
L 141.326365 183.125517 
L 141.453232 180.90225 
L 141.706968 184.459589 
L 141.833836 183.421914 
L 141.960703 183.718312 
L 142.214439 175.121078 
L 142.468174 181.495046 
L 142.595042 178.974816 
L 142.848778 188.017494 
L 143.102513 181.791443 
L 143.229381 182.384239 
L 143.356249 178.974816 
L 143.609984 188.906688 
L 143.863719 178.974816 
L 144.117455 181.939925 
L 144.244323 180.160973 
L 144.624926 184.163192 
L 144.878661 179.123298 
L 145.132397 186.090625 
L 145.386132 176.158753 
L 145.513 184.60807 
L 145.639868 184.163192 
L 145.766736 175.121078 
L 146.147339 186.979819 
L 146.274207 186.238542 
L 146.401074 187.572615 
L 146.527942 186.238542 
L 146.65481 186.979819 
L 146.781678 190.092845 
L 147.035413 190.24076 
L 147.289148 192.76099 
L 147.542884 184.163192 
L 147.796619 199.134957 
L 148.050355 181.198648 
L 148.177223 181.495046 
L 148.30409 185.793663 
L 148.430958 185.645746 
L 148.684694 180.309454 
L 148.811561 181.346565 
L 148.938429 181.198648 
L 149.065297 180.309454 
L 149.192165 181.346565 
L 149.319032 185.200867 
L 149.4459 185.200867 
L 149.699636 182.9776 
L 149.953371 193.946581 
L 150.333974 181.346565 
L 150.460842 183.421914 
L 150.58771 181.495046 
L 150.841445 191.723315 
L 151.095181 186.683421 
L 151.222048 186.387024 
L 151.348916 178.234104 
L 151.475784 181.346565 
L 151.729519 196.76321 
L 152.110123 181.198648 
L 152.23699 184.311673 
L 152.363858 191.723315 
L 152.871329 184.311673 
L 152.998197 184.755988 
L 153.125064 187.721096 
L 153.251932 187.276217 
L 153.505668 195.280655 
L 153.632535 191.426917 
L 153.759403 191.13052 
L 153.886271 198.98704 
L 154.140006 186.831338 
L 154.266874 187.572615 
L 154.393742 188.758771 
L 154.52061 187.424698 
L 154.774345 193.946581 
L 154.901213 183.421914 
L 155.028081 201.655187 
L 155.535552 178.826899 
L 155.662419 180.012491 
L 155.789287 185.349348 
L 156.043022 182.087842 
L 156.16989 182.236323 
L 156.296758 183.570395 
L 156.550493 195.577618 
L 156.677361 192.908907 
L 156.804229 185.497264 
L 157.057964 183.570395 
L 157.184832 185.05295 
L 157.3117 183.273998 
L 157.565435 170.377582 
L 157.946039 183.421914 
L 158.072906 181.791443 
L 158.199774 187.572615 
L 158.326642 188.017494 
L 158.580377 179.123298 
L 158.834113 186.090625 
L 158.96098 183.125517 
L 159.087848 185.349348 
L 159.341584 209.066829 
L 159.595319 181.939925 
L 159.722187 178.382021 
L 159.975922 188.313891 
L 160.10279 187.424698 
L 160.229658 177.937141 
L 160.483393 185.645746 
L 160.610261 182.53272 
L 160.863997 199.134957 
L 161.117732 182.9776 
L 161.371468 197.059607 
L 161.625203 205.953804 
L 161.878939 193.057389 
L 162.005806 197.949366 
L 162.259542 187.127736 
L 162.386409 187.869013 
L 162.640145 180.457371 
L 162.89388 194.539942 
L 163.147616 191.426917 
L 163.274484 191.13052 
L 163.401351 191.426917 
L 163.655087 173.193645 
L 163.781955 181.198648 
L 163.908822 181.346565 
L 164.03569 179.123298 
L 164.162558 188.462373 
L 164.289426 186.238542 
L 164.416293 180.753768 
L 164.670029 191.574834 
L 164.796897 187.127736 
L 164.923764 189.203085 
L 165.1775 173.638525 
L 165.431235 187.424698 
L 165.684971 175.713875 
L 165.938706 194.243544 
L 166.065574 194.391461 
L 166.192442 187.572615 
L 166.446177 196.021932 
L 166.573045 195.132738 
L 166.953648 184.163192 
L 167.207384 196.466811 
L 167.334251 190.68564 
L 167.461119 177.937141 
L 167.587987 178.974816 
L 167.841722 198.83856 
L 168.095458 178.974816 
L 168.222325 184.311673 
L 168.349193 181.495046 
L 168.476061 181.495046 
L 168.729796 205.212527 
L 169.1104 184.755988 
L 169.237267 191.278436 
L 169.364135 191.278436 
L 169.617871 169.191426 
L 169.871606 191.426917 
L 169.998474 180.160973 
L 170.252209 188.313891 
L 170.505945 176.603068 
L 170.75968 195.577618 
L 171.013416 185.349348 
L 171.140283 186.979819 
L 171.520887 173.787006 
L 172.155225 194.243544 
L 172.282093 186.238542 
L 172.408961 189.944363 
L 172.535829 200.024715 
L 172.789564 194.095063 
L 173.0433 204.619731 
L 173.423903 184.459589 
L 173.550771 173.934922 
L 173.677638 177.640743 
L 173.804506 187.424698 
L 174.058242 175.121078 
L 174.311977 185.645746 
L 174.565712 178.530502 
L 174.819448 182.384239 
L 174.946316 184.755988 
L 175.073183 192.019714 
L 175.200051 191.871797 
L 175.326919 182.087842 
L 175.453787 181.939925 
L 175.707522 200.321114 
L 175.83439 195.725535 
L 176.088125 181.791443 
L 176.341861 203.730537 
L 176.595596 190.537159 
L 176.722464 189.647965 
L 176.9762 185.645746 
L 177.229935 193.205869 
L 177.610538 196.76321 
L 177.991141 190.389242 
L 178.118009 191.13052 
L 178.371745 172.15597 
L 178.498612 174.083403 
L 178.62548 181.198648 
L 178.752348 181.050167 
L 178.879216 182.53272 
L 179.132951 188.462373 
L 179.259819 185.793663 
L 179.386687 189.203085 
L 179.640422 201.358789 
L 179.894158 185.200867 
L 180.147893 190.389242 
L 180.274761 186.831338 
L 180.401628 188.16541 
L 180.655364 202.247983 
L 181.035967 186.238542 
L 181.162835 187.276217 
L 181.289703 190.537159 
L 181.41657 197.504487 
L 181.543438 192.168195 
L 181.670306 180.457371 
L 181.797174 182.236323 
L 181.924041 190.092845 
L 182.050909 190.537159 
L 182.177777 190.092845 
L 182.304645 191.574834 
L 182.431512 188.758771 
L 182.55838 190.389242 
L 182.812116 184.311673 
L 182.938983 190.092845 
L 183.065851 189.499484 
L 183.192719 183.125517 
L 183.446454 203.434139 
L 183.70019 196.31833 
L 183.827057 194.095063 
L 183.953925 187.424698 
L 184.207661 210.104504 
L 184.461396 186.238542 
L 184.588264 188.462373 
L 184.715132 193.798666 
L 184.841999 190.389242 
L 184.968867 192.019714 
L 185.095735 195.874016 
L 185.222603 193.205869 
L 185.34947 184.60807 
L 185.476338 190.24076 
L 185.603206 201.061826 
L 185.730074 201.951584 
L 185.983809 184.60807 
L 186.237544 198.542162 
L 186.364412 191.13052 
L 186.49128 190.68564 
L 186.745015 208.621949 
L 186.871883 207.584274 
L 186.998751 203.285658 
L 187.125619 203.878453 
L 187.379354 213.21753 
L 187.506222 191.278436 
L 187.63309 188.61029 
L 187.759957 189.055169 
L 187.886825 192.76099 
L 188.013693 189.351567 
L 188.140561 189.055169 
L 188.267428 193.650184 
L 188.394296 193.353786 
L 188.774899 171.415257 
L 188.901767 174.083403 
L 189.155503 186.387024 
L 189.28237 181.346565 
L 189.409238 182.236323 
L 189.536106 180.309454 
L 189.662973 174.6762 
L 189.789841 176.90003 
L 189.916709 185.793663 
L 190.043577 181.495046 
L 190.170444 173.045728 
L 190.42418 189.647965 
L 190.677915 186.387024 
L 190.804783 186.090625 
L 190.931651 179.716093 
L 191.56599 194.095063 
L 191.692857 189.944363 
L 191.819725 192.464592 
L 192.073461 181.198648 
L 192.327196 201.210308 
L 192.834667 184.015275 
L 193.088402 200.172632 
L 193.342138 180.457371 
L 193.469006 184.904469 
L 193.595873 185.200867 
L 193.722741 182.829119 
L 193.849609 186.831338 
L 194.103344 198.690079 
L 194.35708 189.351567 
L 194.610815 196.911691 
L 194.864551 185.942144 
L 195.372022 209.066829 
L 195.625757 188.16541 
L 195.752625 188.906688 
L 195.879493 186.238542 
L 196.133228 173.193645 
L 196.386964 177.047947 
L 196.513831 176.158753 
L 196.640699 179.271779 
L 196.767567 178.826899 
L 196.894435 180.605852 
L 197.14817 199.283439 
L 197.275038 194.687859 
L 197.528773 174.083403 
L 197.782509 182.384239 
L 198.036244 176.751549 
L 198.163112 168.747111 
L 198.28998 168.005835 
L 198.543715 185.942144 
L 198.797451 179.271779 
L 198.924318 181.791443 
L 199.051186 180.309454 
L 199.178054 174.528283 
L 199.304922 175.121078 
L 199.558657 184.015275 
L 199.685525 184.755988 
L 199.93926 200.321114 
L 200.319864 169.784222 
L 200.700467 177.344346 
L 200.827335 174.083403 
L 200.954202 174.972597 
L 201.08107 177.789224 
L 201.207938 176.158753 
L 201.334805 177.937141 
L 201.461673 185.349348 
L 201.715409 180.309454 
L 201.969144 190.537159 
L 202.096012 189.796446 
L 202.349747 193.798666 
L 202.476615 191.574834 
L 202.730351 177.196429 
L 202.857218 179.568177 
L 202.984086 179.123298 
L 203.110954 178.085622 
L 203.364689 186.090625 
L 203.491557 183.570395 
L 203.618425 183.273998 
L 203.745293 195.874016 
L 203.87216 194.243544 
L 204.125896 183.125517 
L 204.252764 186.979819 
L 204.379631 186.534939 
L 204.506499 184.755988 
L 204.633367 184.60807 
L 205.01397 195.725535 
L 205.140838 196.021932 
L 205.394573 189.055169 
L 205.521441 187.276217 
L 205.648309 173.193645 
L 205.775176 172.304451 
L 206.028912 192.316111 
L 206.282647 180.457371 
L 206.536383 193.205869 
L 206.663251 191.723315 
L 206.790118 185.942144 
L 207.170722 198.245763 
L 207.297589 198.542162 
L 207.551325 189.647965 
L 207.80506 197.949366 
L 208.058796 183.273998 
L 208.185663 185.05295 
L 208.439399 199.134957 
L 208.693134 184.60807 
L 208.820002 184.311673 
L 208.94687 182.236323 
L 209.327473 193.205869 
L 209.581209 191.426917 
L 209.708076 183.866794 
L 209.961812 195.874016 
L 210.215547 172.600849 
L 210.469283 186.979819 
L 210.59615 178.530502 
L 210.723018 181.198648 
L 210.849886 189.055169 
L 211.103621 183.421914 
L 211.357357 194.984257 
L 211.73796 186.979819 
L 211.864828 189.944363 
L 212.118563 187.424698 
L 212.245431 186.831338 
L 212.372299 190.68564 
L 212.626034 200.321114 
L 212.752902 197.800885 
L 212.87977 192.908907 
L 213.133505 200.024715 
L 213.260373 195.725535 
L 213.387241 197.208088 
L 213.514108 201.210308 
L 213.767844 186.238542 
L 213.894712 187.127736 
L 214.021579 185.497264 
L 214.275315 176.90003 
L 214.52905 184.163192 
L 214.655918 184.459589 
L 214.909654 191.13052 
L 215.163389 182.829119 
L 215.290257 183.718312 
L 215.67086 196.76321 
L 215.797728 194.984257 
L 215.924596 190.24076 
L 216.051463 190.834121 
L 216.305199 197.208088 
L 216.685802 190.24076 
L 216.939537 205.508924 
L 217.193273 199.876234 
L 217.320141 197.208088 
L 217.447008 188.906688 
L 217.700744 194.243544 
L 217.827612 188.906688 
L 217.954479 188.61029 
L 218.081347 192.908907 
L 218.208215 192.019714 
L 218.335083 190.24076 
L 218.46195 190.24076 
L 218.588818 186.831338 
L 218.715686 188.16541 
L 218.842554 188.017494 
L 219.096289 177.789224 
L 219.350025 182.236323 
L 219.60376 184.163192 
L 219.730628 184.163192 
L 219.857495 183.866794 
L 219.984363 171.415257 
L 220.238099 183.125517 
L 220.491834 170.67398 
L 220.74557 177.937141 
L 220.999305 168.302232 
L 221.253041 187.424698 
L 221.379908 176.30667 
L 221.506776 175.268995 
L 221.633644 180.457371 
L 221.887379 171.711656 
L 222.014247 181.198648 
L 222.141115 178.530502 
L 222.267983 170.970378 
L 222.521718 178.678418 
L 222.648586 176.90003 
L 222.775453 177.196429 
L 222.902321 180.753768 
L 223.029189 180.605852 
L 223.409792 173.193645 
L 223.663528 175.417477 
L 223.790395 176.010272 
L 223.917263 183.866794 
L 224.044131 184.60807 
L 224.170999 180.605852 
L 224.297866 180.753768 
L 224.424734 181.939925 
L 224.551602 175.862355 
L 224.67847 177.047947 
L 224.805337 183.421914 
L 224.932205 181.346565 
L 225.059073 175.268995 
L 225.312808 183.570395 
L 225.439676 178.530502 
L 225.566544 178.678418 
L 225.693411 186.387024 
L 225.820279 184.904469 
L 225.947147 174.083403 
L 226.074015 178.382021 
L 226.200882 189.499484 
L 226.32775 188.906688 
L 226.454618 178.382021 
L 226.581486 179.864574 
L 226.708353 184.163192 
L 226.962089 181.346565 
L 227.215824 188.313891 
L 227.342692 189.499484 
L 227.46956 193.650184 
L 227.596428 193.650184 
L 227.723295 189.055169 
L 227.850163 188.61029 
L 227.977031 193.650184 
L 228.230766 189.647965 
L 228.357634 190.389242 
L 228.484502 189.351567 
L 228.611369 184.904469 
L 228.738237 185.942144 
L 228.991973 195.132738 
L 229.372576 183.866794 
L 229.626311 191.426917 
L 229.880047 180.753768 
L 230.006915 184.60807 
L 230.26065 180.309454 
L 230.387518 188.906688 
L 230.514386 189.647965 
L 230.641253 180.753768 
L 230.768121 181.643526 
L 231.148724 198.245763 
L 231.529328 185.200867 
L 231.656195 190.834121 
L 231.783063 187.424698 
L 231.909931 189.055169 
L 232.036798 194.984257 
L 232.163666 193.502267 
L 232.290534 189.944363 
L 232.417402 191.871797 
L 232.544269 187.572615 
L 232.671137 188.61029 
L 232.924873 201.358789 
L 233.178608 190.389242 
L 233.432344 187.869013 
L 233.559211 192.019714 
L 233.686079 191.574834 
L 233.812947 188.313891 
L 233.939815 188.61029 
L 234.066682 191.574834 
L 234.19355 188.462373 
L 234.701021 194.243544 
L 234.827889 196.615293 
L 234.954756 191.871797 
L 235.081624 193.946581 
L 235.208492 198.542162 
L 235.589095 188.462373 
L 235.842831 191.426917 
L 235.969698 189.796446 
L 236.096566 184.904469 
L 236.223434 147.845692 
L 236.350302 147.994174 
L 236.477169 152.58919 
L 236.604037 150.810237 
L 236.857773 145.473945 
L 237.111508 151.699996 
L 237.238376 151.106635 
L 237.365244 149.772561 
L 237.618979 160.593627 
L 237.872714 171.266776 
L 238.12645 146.956499 
L 238.253318 147.104416 
L 238.380185 144.139872 
L 238.760789 118.050642 
L 238.887656 118.050642 
L 239.141392 145.622426 
L 239.26826 142.36092 
L 239.395127 145.622426 
L 239.521995 145.918825 
L 239.775731 132.873927 
L 240.029466 136.431831 
L 240.156334 130.947058 
L 240.283202 139.247894 
L 240.536937 179.123298 
L 240.790672 141.175327 
L 240.91754 141.768124 
L 241.044408 142.953715 
L 241.298143 155.702214 
L 241.551879 144.139872 
L 241.678747 145.325464 
L 241.805614 145.029065 
L 242.05935 165.634086 
L 242.186218 162.224663 
L 242.313085 159.852915 
L 242.439953 162.668978 
L 242.566821 154.664539 
L 242.693689 159.111638 
L 242.820556 177.047947 
L 242.947424 176.90003 
L 243.074292 168.005835 
L 243.20116 172.452932 
L 243.581763 154.071743 
L 243.708631 163.410254 
L 243.835498 162.668978 
L 243.962366 160.742109 
L 244.216101 161.483385 
L 244.342969 217.664628 
L 244.469837 213.069048 
L 244.723572 190.389242 
L 245.231043 198.39368 
L 245.357911 195.132738 
L 245.484779 186.387024 
L 245.738514 208.770431 
L 245.865382 208.029154 
L 246.119118 221.518366 
L 246.372853 192.168195 
L 246.626589 219.591497 
L 246.880324 192.168195 
L 247.134059 217.368229 
L 247.387795 201.803103 
L 247.514663 212.32777 
L 247.895266 204.026935 
L 248.022134 197.356005 
L 248.275869 177.937141 
L 248.529605 189.944363 
L 248.78334 175.268995 
L 249.037076 196.615293 
L 249.290811 170.525499 
L 249.417679 156.147094 
L 249.671414 69.577442 
L 249.798282 69.577442 
L 249.92515 70.02232 
L 250.052017 60.535328 
L 250.305753 70.170237 
L 250.432621 71.652792 
L 250.559488 74.913733 
L 250.813224 64.686028 
L 250.940092 72.986864 
L 251.066959 72.838947 
L 251.193827 66.020101 
L 251.447563 84.845605 
L 251.701298 74.173021 
L 251.955034 93.294922 
L 252.208769 55.495433 
L 252.335637 53.568 
L 252.462505 287.779678 
L 252.71624 253.982126 
L 252.969975 259.466618 
L 253.096843 263.32092 
L 253.350579 279.03368 
L 253.477446 273.40099 
L 253.604314 280.664434 
L 253.731182 295.488 
L 253.984917 282.146705 
L 254.111785 289.55863 
L 254.238653 287.48328 
L 254.365521 278.737283 
L 254.492388 278.589084 
L 254.746124 260.800972 
L 254.872992 258.873821 
L 255.253595 268.064416 
L 255.380463 269.398489 
L 255.50733 266.285463 
L 255.761066 249.535028 
L 256.141669 273.993787 
L 256.268537 280.368036 
L 256.395404 275.920938 
L 256.522272 258.873821 
L 256.64914 259.02202 
L 256.902875 288.224275 
L 257.029743 285.704327 
L 257.283479 256.798471 
L 257.537214 282.443104 
L 257.79095 264.210396 
L 257.917817 266.878542 
L 258.044685 262.135046 
L 258.171553 253.09265 
L 258.298421 256.798471 
L 258.425288 266.433944 
L 258.552156 266.878542 
L 258.805892 251.0173 
L 259.059627 262.431444 
L 259.313362 246.273803 
L 259.44023 240.789031 
L 259.693966 221.518366 
L 259.947701 237.231409 
L 260.074569 239.751355 
L 260.455172 238.120885 
L 260.58204 182.681201 
L 260.835775 193.502267 
L 261.216379 170.970378 
L 261.343246 175.268995 
L 261.596982 170.081184 
L 261.850717 185.942144 
L 262.104453 176.603068 
L 262.23132 179.123298 
L 262.358188 175.268995 
L 262.485056 176.158753 
L 262.611924 191.13052 
L 262.738791 190.537159 
L 262.992527 176.455152 
L 263.246262 185.05295 
L 263.37313 190.24076 
L 263.626866 178.085622 
L 263.753733 183.421914 
L 264.261204 165.189206 
L 264.388072 167.709436 
L 264.641808 196.021932 
L 264.768675 183.125517 
L 264.895543 188.017494 
L 265.022411 187.276217 
L 265.149278 169.339907 
L 265.276146 178.678418 
L 265.403014 201.210308 
L 265.529882 197.800885 
L 265.656749 183.718312 
L 265.783617 187.127736 
L 266.417956 248.941949 
L 266.544824 232.78431 
L 266.798559 271.02896 
L 266.925427 270.880761 
L 267.179162 244.198453 
L 267.432898 263.617317 
L 267.686633 242.567982 
L 267.940369 264.951391 
L 268.067236 263.172721 
L 268.320972 254.426723 
L 268.44784 258.132544 
L 268.574707 266.137265 
L 268.701575 172.15597 
L 268.955311 167.116075 
L 269.335914 178.974816 
L 269.589649 196.31833 
L 269.843385 169.932704 
L 269.970253 151.996393 
L 270.09712 156.295011 
L 270.223988 173.045728 
L 270.350856 174.23132 
L 270.477724 163.410254 
L 270.604591 162.817459 
L 270.731459 163.410254 
L 270.858327 168.005835 
L 270.985195 180.309454 
L 271.112062 175.862355 
L 271.23893 159.259554 
L 271.365798 164.44793 
L 271.619533 186.534939 
L 271.873269 180.309454 
L 272.127004 156.591408 
L 272.38074 182.681201 
L 272.507607 177.047947 
L 272.634475 166.374799 
L 272.761343 167.560955 
L 273.015078 186.090625 
L 273.268814 173.787006 
L 273.522549 198.98704 
L 273.903153 170.67398 
L 274.03002 174.824681 
L 274.156888 188.16541 
L 274.283756 189.796446 
L 274.537491 170.67398 
L 274.664359 178.974816 
L 274.918094 159.259554 
L 275.044962 166.819678 
L 275.298698 192.168195 
L 275.679301 180.753768 
L 275.806169 180.90225 
L 276.059904 174.23132 
L 276.186772 173.787006 
L 276.31364 182.236323 
L 276.440507 200.469031 
L 276.567375 199.431356 
L 276.821111 151.847912 
L 276.947978 156.739889 
L 277.074846 156.887806 
L 277.328581 139.396375 
L 277.582317 152.440708 
L 277.836052 148.438489 
L 277.96292 149.328247 
L 278.216656 155.702214 
L 278.343523 158.073963 
L 278.470391 154.812456 
L 278.724127 143.843474 
L 278.977862 151.106635 
L 279.358465 126.055081 
L 279.485333 128.426829 
L 279.739069 146.659537 
L 279.865936 146.066741 
L 280.119672 141.323244 
L 280.246539 144.584751 
L 280.373407 144.139872 
L 280.500275 140.581968 
L 280.627143 141.175327 
L 280.75401 139.841255 
L 280.880878 140.137653 
L 281.134614 171.415257 
L 281.388349 141.91604 
L 281.515217 141.619643 
L 281.642085 142.36092 
L 281.89582 154.368142 
L 282.022688 142.805799 
L 282.149556 142.509401 
L 282.276423 148.438489 
L 282.403291 144.732668 
L 282.530159 147.994174 
L 282.657027 160.000832 
L 282.910762 148.734886 
L 283.03763 154.071743 
L 283.164497 154.516058 
L 283.418233 164.44793 
L 283.671968 153.330467 
L 283.798836 160.742109 
L 284.052572 143.694993 
L 284.179439 150.662321 
L 284.306307 150.662321 
L 284.433175 146.066741 
L 284.560043 153.330467 
L 284.68691 153.034068 
L 284.813778 142.953715 
L 284.940646 177.196429 
L 285.194381 173.193645 
L 285.448117 153.775345 
L 285.701852 162.817459 
L 285.82872 160.742109 
L 286.082456 156.295011 
L 286.336191 174.972597 
L 286.589926 170.229101 
L 286.716794 173.638525 
L 286.97053 165.040725 
L 287.224265 170.821896 
L 287.351133 162.817459 
L 287.478001 164.151532 
L 287.604868 173.342126 
L 287.731736 173.787006 
L 287.858604 172.008053 
L 287.985472 172.008053 
L 288.366075 181.198648 
L 288.61981 168.302232 
L 288.873546 163.855134 
L 289.000414 165.189206 
L 289.127281 168.450149 
L 289.254149 162.521061 
L 289.381017 163.706653 
L 289.634752 184.904469 
L 289.888488 165.040725 
L 290.015355 170.67398 
L 290.142223 165.337688 
L 290.269091 165.040725 
L 290.522826 188.313891 
L 290.90343 178.826899 
L 291.157165 183.273998 
L 291.410901 163.855134 
L 291.664636 175.417477 
L 291.791504 169.784222 
L 292.045239 182.384239 
L 292.298975 165.782003 
L 292.55271 186.238542 
L 292.806446 171.859571 
L 292.933313 172.15597 
L 293.060181 137.468942 
L 293.313917 131.687771 
L 293.440784 132.13265 
L 293.69452 142.36092 
L 293.948255 151.403598 
L 294.075123 150.513839 
L 294.328859 167.412474 
L 294.582594 156.739889 
L 294.709462 164.596411 
L 294.963197 157.036288 
L 295.090065 161.334904 
L 295.216933 155.702214 
L 295.3438 144.584751 
L 295.470668 145.473945 
L 295.597536 155.553733 
L 295.851271 143.250113 
L 296.105007 154.368142 
L 296.231875 145.177547 
L 296.358742 147.104416 
L 296.48561 152.292791 
L 296.612478 149.179766 
L 296.739346 150.217441 
L 296.866213 153.330467 
L 297.119949 147.104416 
L 297.500552 158.22188 
L 297.62742 158.963157 
L 297.881155 146.066741 
L 298.134891 163.558736 
L 298.261758 155.850131 
L 298.388626 155.405817 
L 298.515494 154.368142 
L 298.642362 142.36092 
L 298.769229 143.250113 
L 298.896097 153.034068 
L 299.022965 152.885587 
L 299.149833 152.14431 
L 299.2767 150.217441 
L 299.403568 142.509401 
L 299.530436 143.398595 
L 299.657304 149.179766 
L 300.164775 129.612985 
L 300.41851 139.692774 
L 300.545378 136.72823 
L 300.799113 150.217441 
L 300.925981 146.066741 
L 301.052849 145.918825 
L 301.179717 166.374799 
L 301.306584 168.005835 
L 301.433452 171.118859 
L 301.56032 167.857353 
L 301.687187 157.481167 
L 301.814055 160.000832 
L 301.940923 166.226881 
L 302.194658 155.702214 
L 302.448394 172.897247 
L 302.702129 155.850131 
L 302.828997 157.777564 
L 302.955865 151.403598 
L 303.082733 152.58919 
L 303.2096 164.596411 
L 303.336468 163.558736 
L 303.463336 154.960937 
L 303.590204 154.368142 
L 303.970807 167.560955 
L 304.224542 155.109419 
L 304.478278 167.560955 
L 304.858881 155.702214 
L 304.985749 156.295011 
L 305.239484 173.045728 
L 305.49322 168.15375 
L 305.746955 155.553733 
L 305.873823 162.668978 
L 306.000691 177.492827 
L 306.127558 178.234104 
L 306.381294 157.481167 
L 306.508162 157.629083 
L 306.761897 149.624646 
L 307.015633 157.925481 
L 307.1425 144.287789 
L 307.269368 146.659537 
L 307.396236 165.782003 
L 307.523103 164.744328 
L 307.649971 142.657318 
L 307.776839 143.547076 
L 308.030574 167.709436 
L 308.28431 144.881149 
L 308.538045 168.302232 
L 308.664913 168.59863 
L 308.918649 163.706653 
L 309.299252 172.304451 
L 309.42612 172.452932 
L 309.552987 175.565394 
L 309.679855 174.824681 
L 309.933591 166.968159 
L 310.187326 182.236323 
L 310.567929 145.029065 
L 310.694797 152.885587 
L 310.821665 168.59863 
L 310.948532 170.377582 
L 311.0754 161.483385 
L 311.202268 161.928265 
L 311.329136 161.186988 
L 311.456003 159.556516 
L 311.582871 163.113857 
L 311.709739 160.44571 
L 311.836607 150.810237 
L 311.963474 156.443492 
L 312.090342 170.67398 
L 312.21721 171.859571 
L 312.724681 149.772561 
L 313.105284 166.671761 
L 313.232152 167.560955 
L 313.485887 174.083403 
L 313.612755 175.862355 
L 313.739623 174.824681 
L 313.86649 177.789224 
L 313.993358 185.200867 
L 314.120226 185.05295 
L 314.373961 176.603068 
L 314.627697 172.15597 
L 314.881432 180.309454 
L 315.135168 166.819678 
L 315.262036 170.081184 
L 315.515771 163.706653 
L 315.896374 176.455152 
L 316.15011 162.668978 
L 316.276978 165.189206 
L 316.403845 170.081184 
L 316.784448 160.44571 
L 316.911316 162.521061 
L 317.165052 176.010272 
L 317.418787 158.666758 
L 317.545655 160.44571 
L 317.672523 159.408035 
L 317.79939 154.960937 
L 317.926258 155.998612 
L 318.306861 150.958718 
L 318.433729 154.071743 
L 318.560597 153.478382 
L 318.687465 154.664539 
L 318.814332 159.259554 
L 318.9412 170.525499 
L 319.068068 169.487824 
L 319.321803 151.551515 
L 319.448671 154.071743 
L 319.956142 110.342038 
L 320.08301 114.492738 
L 320.336745 132.13265 
L 320.463613 133.466723 
L 320.590481 141.91604 
L 320.844216 129.168106 
L 321.097952 121.460066 
L 321.224819 125.165887 
L 321.478555 124.276129 
L 321.73229 158.81524 
L 321.986026 137.024628 
L 322.112894 137.172544 
L 322.239761 132.577529 
L 322.366629 133.022409 
L 322.493497 142.36092 
L 322.747232 134.356482 
L 323.000968 141.175327 
L 323.254703 156.147094 
L 323.381571 152.14431 
L 323.508439 152.14431 
L 323.635306 156.887806 
L 323.762174 153.330467 
L 323.889042 158.22188 
L 324.01591 171.415257 
L 324.142777 170.67398 
L 324.269645 164.596411 
L 324.396513 169.784222 
L 324.777116 150.662321 
L 324.903984 152.885587 
L 325.030852 154.664539 
L 325.157719 158.666758 
L 325.284587 158.81524 
L 325.411455 161.779784 
L 325.538322 222.111725 
L 325.66519 220.777653 
L 325.792058 210.104504 
L 325.918926 188.906688 
L 326.045793 192.168195 
L 326.172661 201.506706 
L 326.426397 193.946581 
L 326.553264 197.949366 
L 326.680132 193.353786 
L 326.807 197.949366 
L 326.933868 209.363227 
L 327.187603 205.953804 
L 327.314471 214.699519 
L 327.568206 192.464592 
L 327.821942 211.883456 
L 328.075677 190.24076 
L 328.329413 210.400903 
L 328.583148 197.652968 
L 328.836884 214.255205 
L 329.090619 202.247983 
L 329.471222 183.866794 
L 329.724958 190.389242 
L 329.978693 184.904469 
L 330.105561 186.979819 
L 330.232429 194.539942 
L 330.359297 192.908907 
L 330.613032 167.857353 
L 330.7399 168.005835 
L 330.993635 177.789224 
L 331.120503 175.565394 
L 331.247371 169.191426 
L 331.374239 173.045728 
L 331.754842 170.821896 
L 332.008577 157.481167 
L 332.262313 167.116075 
L 332.38918 161.483385 
L 332.642916 174.528283 
L 332.896651 164.300012 
L 333.150387 186.831338 
L 333.53099 158.370361 
L 333.911593 100.26225 
L 334.165329 109.452844 
L 334.545932 135.394156 
L 334.6728 131.836252 
L 334.926535 151.996393 
L 335.180271 143.250113 
L 335.307138 149.921043 
L 335.434006 149.476164 
L 335.687742 139.989172 
L 335.941477 133.022409 
L 336.068345 134.208001 
L 336.32208 148.142091 
L 336.702684 155.257336 
L 336.829551 147.104416 
L 336.956419 151.106635 
L 337.210155 164.44793 
L 337.337022 168.747111 
L 337.46389 178.678418 
L 337.590758 173.193645 
L 337.717625 155.998612 
L 337.844493 162.96594 
L 338.098229 188.16541 
L 338.225096 187.276217 
L 338.478832 172.15597 
L 338.732567 198.542162 
L 339.366906 167.560955 
L 339.747509 185.05295 
L 340.001245 166.819678 
L 340.128113 169.04351 
L 340.25498 181.495046 
L 340.381848 176.90003 
L 340.635584 154.960937 
L 340.762451 153.626864 
L 340.889319 149.328247 
L 341.016187 149.328247 
L 341.523658 164.744328 
L 341.650525 163.558736 
L 341.904261 187.572615 
L 342.031129 188.017494 
L 342.284864 169.191426 
L 342.5386 172.15597 
L 342.665467 165.040725 
L 342.792335 168.302232 
L 343.046071 185.05295 
L 343.172938 172.749331 
L 343.299806 173.045728 
L 343.426674 177.196429 
L 343.553542 170.821896 
L 343.680409 171.711656 
L 343.807277 190.24076 
L 343.934145 189.647965 
L 344.18788 171.415257 
L 344.441616 181.643526 
L 344.568483 181.643526 
L 344.822219 172.897247 
L 344.949087 176.30667 
L 345.32969 166.819678 
L 345.583425 157.036288 
L 345.837161 185.05295 
L 345.964029 173.193645 
L 346.217764 178.826899 
L 346.344632 164.744328 
L 346.4715 173.490608 
L 346.598367 194.391461 
L 346.725235 185.497264 
L 347.232706 127.389154 
L 347.486441 164.44793 
L 347.613309 164.300012 
L 347.740177 153.775345 
L 347.993912 187.424698 
L 348.12078 185.200867 
L 348.374516 164.003051 
L 348.628251 173.490608 
L 348.881987 151.699996 
L 349.135722 171.266776 
L 349.26259 168.302232 
L 349.516325 152.58919 
L 349.643193 154.960937 
L 349.770061 160.149313 
L 349.896928 182.236323 
L 350.150664 185.942144 
L 350.277532 188.16541 
L 350.404399 182.9776 
L 350.531267 184.755988 
L 350.785003 208.177635 
L 351.165606 165.930484 
L 351.292474 169.784222 
L 351.419341 184.755988 
L 351.546209 186.387024 
L 351.673077 177.937141 
L 351.799945 178.382021 
L 351.926812 177.789224 
L 352.05368 180.605852 
L 352.180548 190.092845 
L 352.307416 187.276217 
L 352.434283 175.417477 
L 352.561151 176.158753 
L 352.814886 200.617512 
L 352.941754 200.321114 
L 353.19549 180.457371 
L 353.322357 169.339907 
L 353.576093 192.316111 
L 353.702961 192.464592 
L 353.956696 186.683421 
L 354.210432 200.765428 
L 354.464167 183.125517 
L 354.717903 213.958807 
L 355.098506 186.090625 
L 355.225374 189.055169 
L 355.352241 205.508924 
L 355.479109 205.508924 
L 355.732845 188.16541 
L 355.859712 194.984257 
L 356.113448 180.012491 
L 356.494051 208.621949 
L 356.747786 197.208088 
L 356.874654 205.06461 
L 357.001522 201.951584 
L 357.12839 188.61029 
L 357.255257 189.944363 
L 357.762728 215.29288 
L 357.889596 201.951584 
L 358.016464 170.229101 
L 358.143332 172.749331 
L 358.270199 170.821896 
L 358.523935 159.408035 
L 358.650803 160.000832 
L 358.77767 161.334904 
L 358.904538 158.963157 
L 359.031406 160.742109 
L 359.158273 160.89059 
L 359.285141 161.631302 
L 359.412009 165.189206 
L 359.538877 173.045728 
L 359.665744 169.636305 
L 359.792612 159.259554 
L 359.91948 160.742109 
L 360.046348 160.44571 
L 360.553819 117.457282 
L 360.680686 125.758683 
L 360.807554 141.619643 
L 360.934422 142.36092 
L 361.06129 139.247894 
L 361.188157 148.883368 
L 361.315025 147.697211 
L 361.695628 135.394156 
L 361.822496 135.542073 
L 361.949364 134.800796 
L 362.076231 132.725446 
L 362.329967 170.377582 
L 362.71057 138.210219 
L 362.964306 143.250113 
L 363.091173 151.403598 
L 363.344909 146.066741 
L 363.471777 147.400814 
L 363.598644 146.363139 
L 363.85238 165.930484 
L 364.106115 154.368142 
L 364.232983 164.300012 
L 364.359851 163.410254 
L 364.486719 165.930484 
L 364.613586 175.121078 
L 364.740454 174.23132 
L 364.867322 170.821896 
L 364.994189 173.490608 
L 365.247925 162.96594 
L 365.50166 157.777564 
L 365.628528 160.742109 
L 365.755396 168.450149 
L 365.882264 166.671761 
L 366.009131 166.968159 
L 366.135999 212.624169 
L 366.262867 211.587058 
L 366.516602 178.234104 
L 366.770338 190.834121 
L 367.024073 187.424698 
L 367.150941 192.76099 
L 367.277809 189.351567 
L 367.404677 192.464592 
L 367.531544 200.469031 
L 367.658412 200.172632 
L 367.78528 200.469031 
L 367.912148 204.619731 
L 368.165883 186.831338 
L 368.419618 200.617512 
L 368.673354 186.090625 
L 368.927089 202.840778 
L 369.180825 191.871797 
L 369.43456 206.102285 
L 370.068899 182.829119 
L 370.322635 188.313891 
L 370.57637 176.603068 
L 370.830106 196.170413 
L 370.956973 194.836341 
L 371.210709 168.15375 
L 371.337576 164.300012 
L 371.591312 186.979819 
L 371.71818 185.349348 
L 371.845047 178.382021 
L 371.971915 181.346565 
L 372.098783 177.640743 
L 372.225651 177.196429 
L 372.352518 180.605852 
L 372.606254 161.631302 
L 372.859989 174.972597 
L 372.986857 167.857353 
L 373.240593 179.123298 
L 373.494328 172.897247 
L 373.748064 191.723315 
L 374.128667 172.897247 
L 374.255534 179.271779 
L 374.50927 150.810237 
L 374.636138 151.551515 
L 374.763005 155.553733 
L 375.143609 179.864574 
L 375.270476 176.158753 
L 375.524212 197.800885 
L 375.777947 183.125517 
L 376.031683 193.502267 
L 376.158551 185.497264 
L 376.285418 187.276217 
L 376.539154 175.565394 
L 376.666022 176.158753 
L 376.792889 188.16541 
L 376.919757 186.387024 
L 377.046625 182.9776 
L 377.30036 192.168195 
L 377.427228 178.974816 
L 377.554096 181.050167 
L 377.807831 198.83856 
L 377.934699 201.951584 
L 378.061567 209.956023 
L 378.188434 206.991479 
L 378.44217 185.793663 
L 378.695905 220.48069 
L 378.822773 216.774869 
L 379.076509 200.024715 
L 379.330244 219.739978 
L 379.837715 193.650184 
L 379.964583 197.208088 
L 380.218318 207.880673 
L 380.345186 210.104504 
L 380.598921 191.871797 
L 380.725789 193.057389 
L 380.852657 205.953804 
L 380.979525 201.358789 
L 381.486996 169.487824 
L 381.740731 178.530502 
L 381.994467 190.092845 
L 382.248202 186.831338 
L 382.501938 210.845781 
L 382.628805 213.810325 
L 382.882541 193.798666 
L 383.136276 196.021932 
L 383.263144 187.424698 
L 383.390012 189.647965 
L 383.643747 206.842998 
L 383.897483 189.944363 
L 384.02435 193.502267 
L 384.278086 190.24076 
L 384.404954 205.508924 
L 384.531821 206.842998 
L 384.785557 185.349348 
L 384.912425 194.095063 
L 385.039292 195.132738 
L 385.16616 191.278436 
L 385.293028 191.278436 
L 385.419896 188.313891 
L 385.546763 189.203085 
L 385.800499 185.200867 
L 386.181102 170.67398 
L 386.434837 195.725535 
L 386.561705 187.127736 
L 386.688573 189.203085 
L 386.815441 188.758771 
L 386.942308 177.937141 
L 387.196044 208.918348 
L 387.449779 169.191426 
L 387.576647 170.081184 
L 387.703515 168.005835 
L 387.95725 128.723227 
L 388.084118 132.577529 
L 388.210986 127.389154 
L 388.337854 106.043421 
L 388.464721 109.452844 
L 388.591589 124.869489 
L 388.718457 123.090537 
L 388.972192 92.55421 
L 389.225928 107.229012 
L 389.479663 91.219572 
L 389.860266 119.384716 
L 390.114002 102.633997 
L 390.367737 123.090537 
L 390.494605 196.31833 
L 390.621473 192.612509 
L 390.748341 194.539942 
L 390.875208 198.690079 
L 391.128944 188.313891 
L 391.382679 212.179855 
L 391.763283 169.932704 
L 391.89015 174.6762 
L 392.143886 188.313891 
L 392.270753 181.939925 
L 392.397621 183.718312 
L 392.651357 182.087842 
L 392.778224 189.055169 
L 392.905092 187.869013 
L 393.03196 175.862355 
L 393.158828 177.789224 
L 393.412563 198.39368 
L 393.539431 199.876234 
L 393.666299 193.798666 
L 393.920034 172.15597 
L 394.17377 195.429136 
L 394.427505 191.13052 
L 394.554373 191.426917 
L 394.681241 192.464592 
L 394.808108 198.542162 
L 395.061844 189.055169 
L 395.315579 211.587058 
L 395.442447 205.508924 
L 395.696182 185.349348 
L 395.82305 187.721096 
L 396.076786 207.584274 
L 396.330521 188.16541 
L 396.457389 195.577618 
L 396.711124 178.530502 
L 397.091728 207.584274 
L 397.345463 193.057389 
L 397.472331 203.730537 
L 397.599199 202.692862 
L 397.726066 188.16541 
L 397.852934 189.055169 
L 397.979802 194.243544 
L 398.10667 193.650184 
L 398.360405 212.031373 
L 398.487273 195.429136 
L 398.487273 195.429136 
" clip-path="url(#pf70dcccdee)" style="fill: none; stroke: #1f77b4; stroke-width: 1.5; stroke-linecap: square"/>
   </g>
   <g id="patch_3">
    <path d="M 57.6 307.584 
L 57.6 41.472 
" style="fill: none; stroke: #000000; stroke-width: 0.8; stroke-linejoin: miter; stroke-linecap: square"/>
   </g>
   <g id="patch_4">
    <path d="M 414.72 307.584 
L 414.72 41.472 
" style="fill: none; stroke: #000000; stroke-width: 0.8; stroke-linejoin: miter; stroke-linecap: square"/>
   </g>
   <g id="patch_5">
    <path d="M 57.6 307.584 
L 414.72 307.584 
" style="fill: none; stroke: #000000; stroke-width: 0.8; stroke-linejoin: miter; stroke-linecap: square"/>
   </g>
   <g id="patch_6">
    <path d="M 57.6 41.472 
L 414.72 41.472 
" style="fill: none; stroke: #000000; stroke-width: 0.8; stroke-linejoin: miter; stroke-linecap: square"/>
   </g>
   <g id="legend_1">
    <g id="patch_7">
     <path d="M 354.074688 64.150125 
L 407.72 64.150125 
Q 409.72 64.150125 409.72 62.150125 
L 409.72 48.472 
Q 409.72 46.472 407.72 46.472 
L 354.074688 46.472 
Q 352.074688 46.472 352.074688 48.472 
L 352.074688 62.150125 
Q 352.074688 64.150125 354.074688 64.150125 
z
" style="fill: #ffffff; opacity: 0.8; stroke: #cccccc; stroke-linejoin: miter"/>
    </g>
    <g id="line2d_13">
     <path d="M 356.074688 54.570438 
L 366.074688 54.570438 
L 376.074688 54.570438 
" style="fill: none; stroke: #1f77b4; stroke-width: 1.5; stroke-linecap: square"/>
    </g>
    <g id="text_12">
     <!-- set1 -->
     <g transform="translate(384.074688 58.070438)scale(0.1 -0.1)">
      <defs>
       <path id="DejaVuSans-73" d="M 2834 3397 
L 2834 2853 
Q 2591 2978 2328 3040 
Q 2066 3103 1784 3103 
Q 1356 3103 1142 2972 
Q 928 2841 928 2578 
Q 928 2378 1081 2264 
Q 1234 2150 1697 2047 
L 1894 2003 
Q 2506 1872 2764 1633 
Q 3022 1394 3022 966 
Q 3022 478 2636 193 
Q 2250 -91 1575 -91 
Q 1294 -91 989 -36 
Q 684 19 347 128 
L 347 722 
Q 666 556 975 473 
Q 1284 391 1588 391 
Q 1994 391 2212 530 
Q 2431 669 2431 922 
Q 2431 1156 2273 1281 
Q 2116 1406 1581 1522 
L 1381 1569 
Q 847 1681 609 1914 
Q 372 2147 372 2553 
Q 372 3047 722 3315 
Q 1072 3584 1716 3584 
Q 2034 3584 2315 3537 
Q 2597 3491 2834 3397 
z
" transform="scale(0.015625)"/>
       <path id="DejaVuSans-65" d="M 3597 1894 
L 3597 1613 
L 953 1613 
Q 991 1019 1311 708 
Q 1631 397 2203 397 
Q 2534 397 2845 478 
Q 3156 559 3463 722 
L 3463 178 
Q 3153 47 2828 -22 
Q 2503 -91 2169 -91 
Q 1331 -91 842 396 
Q 353 884 353 1716 
Q 353 2575 817 3079 
Q 1281 3584 2069 3584 
Q 2775 3584 3186 3129 
Q 3597 2675 3597 1894 
z
M 3022 2063 
Q 3016 2534 2758 2815 
Q 2500 3097 2075 3097 
Q 1594 3097 1305 2825 
Q 1016 2553 972 2059 
L 3022 2063 
z
" transform="scale(0.015625)"/>
       <path id="DejaVuSans-74" d="M 1172 4494 
L 1172 3500 
L 2356 3500 
L 2356 3053 
L 1172 3053 
L 1172 1153 
Q 1172 725 1289 603 
Q 1406 481 1766 481 
L 2356 481 
L 2356 0 
L 1766 0 
Q 1100 0 847 248 
Q 594 497 594 1153 
L 594 3053 
L 172 3053 
L 172 3500 
L 594 3500 
L 594 4494 
L 1172 4494 
z
" transform="scale(0.015625)"/>
      </defs>
      <use xlink:href="#DejaVuSans-73"/>
      <use xlink:href="#DejaVuSans-65" x="52.099609"/>
      <use xlink:href="#DejaVuSans-74" x="113.623047"/>
      <use xlink:href="#DejaVuSans-31" x="152.832031"/>
     </g>
    </g>
   </g>
  </g>
 </g>
 <defs>
  <clipPath id="pf70dcccdee">
   <rect x="57.6" y="41.472" width="357.12" height="266.112"/>
  </clipPath>
 </defs>
</svg>
