<?xml version="1.0" encoding="utf-8" standalone="no"?>
<!DOCTYPE svg PUBLIC "-//W3C//DTD SVG 1.1//EN"
  "http://www.w3.org/Graphics/SVG/1.1/DTD/svg11.dtd">
<svg xmlns:xlink="http://www.w3.org/1999/xlink" width="460.8pt" height="345.6pt" viewBox="0 0 460.8 345.6" xmlns="http://www.w3.org/2000/svg" version="1.1">
 <metadata>
  <rdf:RDF xmlns:dc="http://purl.org/dc/elements/1.1/" xmlns:cc="http://creativecommons.org/ns#" xmlns:rdf="http://www.w3.org/1999/02/22-rdf-syntax-ns#">
   <cc:Work>
    <dc:type rdf:resource="http://purl.org/dc/dcmitype/StillImage"/>
    <dc:date>2022-08-11T15:16:59.562819</dc:date>
    <dc:format>image/svg+xml</dc:format>
    <dc:creator>
     <cc:Agent>
      <dc:title>Matplotlib v3.5.2, https://matplotlib.org/</dc:title>
     </cc:Agent>
    </dc:creator>
   </cc:Work>
  </rdf:RDF>
 </metadata>
 <defs>
  <style type="text/css">*{stroke-linejoin: round; stroke-linecap: butt}</style>
 </defs>
 <g id="figure_1">
  <g id="patch_1">
   <path d="M 0 345.6 
L 460.8 345.6 
L 460.8 0 
L 0 0 
z
" style="fill: #ffffff"/>
  </g>
  <g id="axes_1">
   <g id="patch_2">
    <path d="M 57.6 307.584 
L 414.72 307.584 
L 414.72 41.472 
L 57.6 41.472 
z
" style="fill: #ffffff"/>
   </g>
   <g id="matplotlib.axis_1">
    <g id="xtick_1">
     <g id="line2d_1">
      <defs>
       <path id="mebfb416ba9" d="M 0 0 
L 0 3.5 
" style="stroke: #000000; stroke-width: 0.8"/>
      </defs>
      <g>
       <use xlink:href="#mebfb416ba9" x="73.832727" y="307.584" style="stroke: #000000; stroke-width: 0.8"/>
      </g>
     </g>
     <g id="text_1">
      <!-- 0 -->
      <g transform="translate(70.651477 322.182437)scale(0.1 -0.1)">
       <defs>
        <path id="DejaVuSans-30" d="M 2034 4250 
Q 1547 4250 1301 3770 
Q 1056 3291 1056 2328 
Q 1056 1369 1301 889 
Q 1547 409 2034 409 
Q 2525 409 2770 889 
Q 3016 1369 3016 2328 
Q 3016 3291 2770 3770 
Q 2525 4250 2034 4250 
z
M 2034 4750 
Q 2819 4750 3233 4129 
Q 3647 3509 3647 2328 
Q 3647 1150 3233 529 
Q 2819 -91 2034 -91 
Q 1250 -91 836 529 
Q 422 1150 422 2328 
Q 422 3509 836 4129 
Q 1250 4750 2034 4750 
z
" transform="scale(0.015625)"/>
       </defs>
       <use xlink:href="#DejaVuSans-30"/>
      </g>
     </g>
    </g>
    <g id="xtick_2">
     <g id="line2d_2">
      <g>
       <use xlink:href="#mebfb416ba9" x="137.266597" y="307.584" style="stroke: #000000; stroke-width: 0.8"/>
      </g>
     </g>
     <g id="text_2">
      <!-- 500 -->
      <g transform="translate(127.722847 322.182437)scale(0.1 -0.1)">
       <defs>
        <path id="DejaVuSans-35" d="M 691 4666 
L 3169 4666 
L 3169 4134 
L 1269 4134 
L 1269 2991 
Q 1406 3038 1543 3061 
Q 1681 3084 1819 3084 
Q 2600 3084 3056 2656 
Q 3513 2228 3513 1497 
Q 3513 744 3044 326 
Q 2575 -91 1722 -91 
Q 1428 -91 1123 -41 
Q 819 9 494 109 
L 494 744 
Q 775 591 1075 516 
Q 1375 441 1709 441 
Q 2250 441 2565 725 
Q 2881 1009 2881 1497 
Q 2881 1984 2565 2268 
Q 2250 2553 1709 2553 
Q 1456 2553 1204 2497 
Q 953 2441 691 2322 
L 691 4666 
z
" transform="scale(0.015625)"/>
       </defs>
       <use xlink:href="#DejaVuSans-35"/>
       <use xlink:href="#DejaVuSans-30" x="63.623047"/>
       <use xlink:href="#DejaVuSans-30" x="127.246094"/>
      </g>
     </g>
    </g>
    <g id="xtick_3">
     <g id="line2d_3">
      <g>
       <use xlink:href="#mebfb416ba9" x="200.700467" y="307.584" style="stroke: #000000; stroke-width: 0.8"/>
      </g>
     </g>
     <g id="text_3">
      <!-- 1000 -->
      <g transform="translate(187.975467 322.182437)scale(0.1 -0.1)">
       <defs>
        <path id="DejaVuSans-31" d="M 794 531 
L 1825 531 
L 1825 4091 
L 703 3866 
L 703 4441 
L 1819 4666 
L 2450 4666 
L 2450 531 
L 3481 531 
L 3481 0 
L 794 0 
L 794 531 
z
" transform="scale(0.015625)"/>
       </defs>
       <use xlink:href="#DejaVuSans-31"/>
       <use xlink:href="#DejaVuSans-30" x="63.623047"/>
       <use xlink:href="#DejaVuSans-30" x="127.246094"/>
       <use xlink:href="#DejaVuSans-30" x="190.869141"/>
      </g>
     </g>
    </g>
    <g id="xtick_4">
     <g id="line2d_4">
      <g>
       <use xlink:href="#mebfb416ba9" x="264.134337" y="307.584" style="stroke: #000000; stroke-width: 0.8"/>
      </g>
     </g>
     <g id="text_4">
      <!-- 1500 -->
      <g transform="translate(251.409337 322.182437)scale(0.1 -0.1)">
       <use xlink:href="#DejaVuSans-31"/>
       <use xlink:href="#DejaVuSans-35" x="63.623047"/>
       <use xlink:href="#DejaVuSans-30" x="127.246094"/>
       <use xlink:href="#DejaVuSans-30" x="190.869141"/>
      </g>
     </g>
    </g>
    <g id="xtick_5">
     <g id="line2d_5">
      <g>
       <use xlink:href="#mebfb416ba9" x="327.568206" y="307.584" style="stroke: #000000; stroke-width: 0.8"/>
      </g>
     </g>
     <g id="text_5">
      <!-- 2000 -->
      <g transform="translate(314.843206 322.182437)scale(0.1 -0.1)">
       <defs>
        <path id="DejaVuSans-32" d="M 1228 531 
L 3431 531 
L 3431 0 
L 469 0 
L 469 531 
Q 828 903 1448 1529 
Q 2069 2156 2228 2338 
Q 2531 2678 2651 2914 
Q 2772 3150 2772 3378 
Q 2772 3750 2511 3984 
Q 2250 4219 1831 4219 
Q 1534 4219 1204 4116 
Q 875 4013 500 3803 
L 500 4441 
Q 881 4594 1212 4672 
Q 1544 4750 1819 4750 
Q 2544 4750 2975 4387 
Q 3406 4025 3406 3419 
Q 3406 3131 3298 2873 
Q 3191 2616 2906 2266 
Q 2828 2175 2409 1742 
Q 1991 1309 1228 531 
z
" transform="scale(0.015625)"/>
       </defs>
       <use xlink:href="#DejaVuSans-32"/>
       <use xlink:href="#DejaVuSans-30" x="63.623047"/>
       <use xlink:href="#DejaVuSans-30" x="127.246094"/>
       <use xlink:href="#DejaVuSans-30" x="190.869141"/>
      </g>
     </g>
    </g>
    <g id="xtick_6">
     <g id="line2d_6">
      <g>
       <use xlink:href="#mebfb416ba9" x="391.002076" y="307.584" style="stroke: #000000; stroke-width: 0.8"/>
      </g>
     </g>
     <g id="text_6">
      <!-- 2500 -->
      <g transform="translate(378.277076 322.182437)scale(0.1 -0.1)">
       <use xlink:href="#DejaVuSans-32"/>
       <use xlink:href="#DejaVuSans-35" x="63.623047"/>
       <use xlink:href="#DejaVuSans-30" x="127.246094"/>
       <use xlink:href="#DejaVuSans-30" x="190.869141"/>
      </g>
     </g>
    </g>
   </g>
   <g id="matplotlib.axis_2">
    <g id="ytick_1">
     <g id="line2d_7">
      <defs>
       <path id="mbc25d7bf37" d="M 0 0 
L -3.5 0 
" style="stroke: #000000; stroke-width: 0.8"/>
      </defs>
      <g>
       <use xlink:href="#mbc25d7bf37" x="57.6" y="290.690216" style="stroke: #000000; stroke-width: 0.8"/>
      </g>
     </g>
     <g id="text_7">
      <!-- 4080 -->
      <g transform="translate(25.15 294.489434)scale(0.1 -0.1)">
       <defs>
        <path id="DejaVuSans-34" d="M 2419 4116 
L 825 1625 
L 2419 1625 
L 2419 4116 
z
M 2253 4666 
L 3047 4666 
L 3047 1625 
L 3713 1625 
L 3713 1100 
L 3047 1100 
L 3047 0 
L 2419 0 
L 2419 1100 
L 313 1100 
L 313 1709 
L 2253 4666 
z
" transform="scale(0.015625)"/>
        <path id="DejaVuSans-38" d="M 2034 2216 
Q 1584 2216 1326 1975 
Q 1069 1734 1069 1313 
Q 1069 891 1326 650 
Q 1584 409 2034 409 
Q 2484 409 2743 651 
Q 3003 894 3003 1313 
Q 3003 1734 2745 1975 
Q 2488 2216 2034 2216 
z
M 1403 2484 
Q 997 2584 770 2862 
Q 544 3141 544 3541 
Q 544 4100 942 4425 
Q 1341 4750 2034 4750 
Q 2731 4750 3128 4425 
Q 3525 4100 3525 3541 
Q 3525 3141 3298 2862 
Q 3072 2584 2669 2484 
Q 3125 2378 3379 2068 
Q 3634 1759 3634 1313 
Q 3634 634 3220 271 
Q 2806 -91 2034 -91 
Q 1263 -91 848 271 
Q 434 634 434 1313 
Q 434 1759 690 2068 
Q 947 2378 1403 2484 
z
M 1172 3481 
Q 1172 3119 1398 2916 
Q 1625 2713 2034 2713 
Q 2441 2713 2670 2916 
Q 2900 3119 2900 3481 
Q 2900 3844 2670 4047 
Q 2441 4250 2034 4250 
Q 1625 4250 1398 4047 
Q 1172 3844 1172 3481 
z
" transform="scale(0.015625)"/>
       </defs>
       <use xlink:href="#DejaVuSans-34"/>
       <use xlink:href="#DejaVuSans-30" x="63.623047"/>
       <use xlink:href="#DejaVuSans-38" x="127.246094"/>
       <use xlink:href="#DejaVuSans-30" x="190.869141"/>
      </g>
     </g>
    </g>
    <g id="ytick_2">
     <g id="line2d_8">
      <g>
       <use xlink:href="#mbc25d7bf37" x="57.6" y="251.296159" style="stroke: #000000; stroke-width: 0.8"/>
      </g>
     </g>
     <g id="text_8">
      <!-- 4100 -->
      <g transform="translate(25.15 255.095377)scale(0.1 -0.1)">
       <use xlink:href="#DejaVuSans-34"/>
       <use xlink:href="#DejaVuSans-31" x="63.623047"/>
       <use xlink:href="#DejaVuSans-30" x="127.246094"/>
       <use xlink:href="#DejaVuSans-30" x="190.869141"/>
      </g>
     </g>
    </g>
    <g id="ytick_3">
     <g id="line2d_9">
      <g>
       <use xlink:href="#mbc25d7bf37" x="57.6" y="211.902102" style="stroke: #000000; stroke-width: 0.8"/>
      </g>
     </g>
     <g id="text_9">
      <!-- 4120 -->
      <g transform="translate(25.15 215.701321)scale(0.1 -0.1)">
       <use xlink:href="#DejaVuSans-34"/>
       <use xlink:href="#DejaVuSans-31" x="63.623047"/>
       <use xlink:href="#DejaVuSans-32" x="127.246094"/>
       <use xlink:href="#DejaVuSans-30" x="190.869141"/>
      </g>
     </g>
    </g>
    <g id="ytick_4">
     <g id="line2d_10">
      <g>
       <use xlink:href="#mbc25d7bf37" x="57.6" y="172.508045" style="stroke: #000000; stroke-width: 0.8"/>
      </g>
     </g>
     <g id="text_10">
      <!-- 4140 -->
      <g transform="translate(25.15 176.307264)scale(0.1 -0.1)">
       <use xlink:href="#DejaVuSans-34"/>
       <use xlink:href="#DejaVuSans-31" x="63.623047"/>
       <use xlink:href="#DejaVuSans-34" x="127.246094"/>
       <use xlink:href="#DejaVuSans-30" x="190.869141"/>
      </g>
     </g>
    </g>
    <g id="ytick_5">
     <g id="line2d_11">
      <g>
       <use xlink:href="#mbc25d7bf37" x="57.6" y="133.113988" style="stroke: #000000; stroke-width: 0.8"/>
      </g>
     </g>
     <g id="text_11">
      <!-- 4160 -->
      <g transform="translate(25.15 136.913207)scale(0.1 -0.1)">
       <defs>
        <path id="DejaVuSans-36" d="M 2113 2584 
Q 1688 2584 1439 2293 
Q 1191 2003 1191 1497 
Q 1191 994 1439 701 
Q 1688 409 2113 409 
Q 2538 409 2786 701 
Q 3034 994 3034 1497 
Q 3034 2003 2786 2293 
Q 2538 2584 2113 2584 
z
M 3366 4563 
L 3366 3988 
Q 3128 4100 2886 4159 
Q 2644 4219 2406 4219 
Q 1781 4219 1451 3797 
Q 1122 3375 1075 2522 
Q 1259 2794 1537 2939 
Q 1816 3084 2150 3084 
Q 2853 3084 3261 2657 
Q 3669 2231 3669 1497 
Q 3669 778 3244 343 
Q 2819 -91 2113 -91 
Q 1303 -91 875 529 
Q 447 1150 447 2328 
Q 447 3434 972 4092 
Q 1497 4750 2381 4750 
Q 2619 4750 2861 4703 
Q 3103 4656 3366 4563 
z
" transform="scale(0.015625)"/>
       </defs>
       <use xlink:href="#DejaVuSans-34"/>
       <use xlink:href="#DejaVuSans-31" x="63.623047"/>
       <use xlink:href="#DejaVuSans-36" x="127.246094"/>
       <use xlink:href="#DejaVuSans-30" x="190.869141"/>
      </g>
     </g>
    </g>
    <g id="ytick_6">
     <g id="line2d_12">
      <g>
       <use xlink:href="#mbc25d7bf37" x="57.6" y="93.719931" style="stroke: #000000; stroke-width: 0.8"/>
      </g>
     </g>
     <g id="text_12">
      <!-- 4180 -->
      <g transform="translate(25.15 97.51915)scale(0.1 -0.1)">
       <use xlink:href="#DejaVuSans-34"/>
       <use xlink:href="#DejaVuSans-31" x="63.623047"/>
       <use xlink:href="#DejaVuSans-38" x="127.246094"/>
       <use xlink:href="#DejaVuSans-30" x="190.869141"/>
      </g>
     </g>
    </g>
    <g id="ytick_7">
     <g id="line2d_13">
      <g>
       <use xlink:href="#mbc25d7bf37" x="57.6" y="54.325875" style="stroke: #000000; stroke-width: 0.8"/>
      </g>
     </g>
     <g id="text_13">
      <!-- 4200 -->
      <g transform="translate(25.15 58.125093)scale(0.1 -0.1)">
       <use xlink:href="#DejaVuSans-34"/>
       <use xlink:href="#DejaVuSans-32" x="63.623047"/>
       <use xlink:href="#DejaVuSans-30" x="127.246094"/>
       <use xlink:href="#DejaVuSans-30" x="190.869141"/>
      </g>
     </g>
    </g>
   </g>
   <g id="line2d_14">
    <path d="M 73.832727 187.911736 
L 73.959595 195.487591 
L 74.086463 194.982662 
L 74.340198 162.406586 
L 74.593934 200.285856 
L 74.720801 195.487591 
L 74.847669 198.77107 
L 75.101405 176.548437 
L 75.35514 190.942271 
L 75.482008 183.114434 
L 75.608876 183.619361 
L 75.862611 163.16446 
L 76.116347 186.901879 
L 76.370082 175.790563 
L 76.49695 185.892022 
L 76.750685 166.952867 
L 77.004421 194.73068 
L 77.258156 172.003116 
L 77.511892 182.861489 
L 77.638759 176.295492 
L 77.892495 185.639077 
L 78.019363 180.841773 
L 78.273098 154.325803 
L 78.780569 175.538579 
L 78.907437 168.467653 
L 79.034305 149.780483 
L 79.28804 175.285633 
L 79.414908 172.76099 
L 79.541776 169.982439 
L 79.668643 183.619361 
L 79.795511 182.356559 
L 79.922379 169.982439 
L 80.049247 176.295492 
L 80.176114 198.266141 
L 80.302982 193.467876 
L 80.556717 176.801381 
L 80.683585 173.770847 
L 80.810453 174.275777 
L 80.937321 180.841773 
L 81.064188 180.841773 
L 81.444792 165.185137 
L 81.571659 170.993259 
L 81.698527 166.699923 
L 81.825395 170.487368 
L 81.952263 164.427262 
L 82.205998 182.609505 
L 82.459734 167.457796 
L 82.586601 170.487368 
L 82.713469 181.85163 
L 83.094072 177.053365 
L 83.347808 145.740091 
L 83.601543 171.75017 
L 83.855279 161.396729 
L 84.109014 179.326026 
L 84.235882 180.588828 
L 84.36275 179.074042 
L 84.489617 170.235384 
L 84.743353 193.972805 
L 84.997088 165.437119 
L 85.123956 181.85163 
L 85.631427 145.488109 
L 85.758295 139.42704 
L 86.01203 176.801381 
L 86.265766 144.477289 
L 86.519501 146.24502 
L 86.900104 173.26592 
L 87.15384 158.366193 
L 87.407575 188.922556 
L 87.661311 162.659531 
L 87.788179 162.912476 
L 87.915046 161.144745 
L 88.168782 193.71986 
L 88.29565 189.427485 
L 88.549385 166.699923 
L 88.803121 180.335883 
L 89.183724 177.30631 
L 89.310591 173.517902 
L 89.437459 184.377236 
L 89.564327 181.093757 
L 89.818062 160.38687 
L 89.94493 175.790563 
L 90.198666 155.083678 
L 90.452401 188.669611 
L 90.706137 167.204851 
L 90.833004 179.830953 
L 90.959872 167.457796 
L 91.08674 135.386649 
L 91.213608 133.871863 
L 91.340475 148.770624 
L 91.467343 147.507822 
L 91.721079 176.295492 
L 91.974814 143.215448 
L 92.22855 200.032911 
L 92.482285 162.406586 
L 92.73602 177.558294 
L 92.989756 164.680208 
L 93.370359 187.659754 
L 93.497227 176.295492 
L 93.624095 150.285411 
L 93.750962 150.285411 
L 94.004698 181.093757 
L 94.131566 173.26592 
L 94.258433 181.093757 
L 94.512169 166.699923 
L 94.639037 167.962725 
L 94.765904 164.427262 
L 94.892772 150.79034 
L 95.01964 149.275554 
L 95.400243 177.053365 
L 95.653978 169.730457 
L 95.780846 170.740314 
L 96.415185 144.477289 
L 96.66892 174.022831 
L 96.795788 168.720598 
L 96.922656 174.022831 
L 97.049524 167.70978 
L 97.176391 152.811017 
L 97.303259 162.659531 
L 97.430127 188.669611 
L 97.556995 191.700144 
L 97.683862 188.417626 
L 97.937598 193.467876 
L 98.064466 194.73068 
L 98.191333 180.335883 
L 98.445069 206.346923 
L 98.698804 194.982662 
L 98.825672 195.992521 
L 98.95254 199.023054 
L 99.333143 172.2551 
L 99.460011 176.295492 
L 99.713746 204.326249 
L 99.967482 173.517902 
L 100.221217 201.548658 
L 100.474953 186.144006 
L 100.728688 182.103614 
L 100.982424 197.508268 
L 101.236159 177.30631 
L 101.489894 202.306533 
L 101.74363 176.043508 
L 101.997365 194.982662 
L 102.251101 174.528722 
L 102.377969 192.962948 
L 102.504836 194.22575 
L 102.631704 176.043508 
L 102.758572 175.285633 
L 102.88544 197.255323 
L 103.012307 194.73068 
L 103.139175 181.093757 
L 103.266043 181.598685 
L 103.519778 169.982439 
L 103.900382 199.527982 
L 104.027249 206.346923 
L 104.280985 177.558294 
L 104.407852 183.366416 
L 104.53472 182.103614 
L 104.661588 175.033651 
L 105.042191 197.508268 
L 105.295927 172.508045 
L 105.422794 177.81124 
L 105.67653 199.527982 
L 105.803398 199.780927 
L 106.057133 188.922556 
L 106.184001 189.679467 
L 106.437736 150.285411 
L 106.691472 167.70978 
L 106.81834 169.730457 
L 107.072075 205.841035 
L 107.198943 198.266141 
L 107.325811 199.275999 
L 107.452678 208.871568 
L 107.579546 204.579194 
L 107.706414 192.962948 
L 107.960149 192.458019 
L 108.087017 191.447199 
L 108.213885 184.62922 
L 108.340752 184.62922 
L 108.594488 216.952351 
L 108.848223 180.841773 
L 108.975091 189.679467 
L 109.101959 185.134148 
L 109.228827 173.517902 
L 109.355694 177.81124 
L 109.736298 203.31639 
L 109.863165 194.73068 
L 109.990033 177.053365 
L 110.116901 177.81124 
L 110.243769 197.255323 
L 110.370636 197.255323 
L 110.624372 173.012974 
L 110.878107 185.134148 
L 111.004975 179.326026 
L 111.131843 179.830953 
L 111.385578 200.285856 
L 111.639314 174.528722 
L 111.766181 182.103614 
L 112.019917 217.710224 
L 112.146785 215.437565 
L 112.273652 197.508268 
L 112.40052 196.245466 
L 112.527388 207.103837 
L 112.654256 208.114655 
L 113.034859 194.73068 
L 113.288594 204.326249 
L 113.415462 198.013195 
L 113.669197 217.205296 
L 113.922933 193.467876 
L 114.176668 217.205296 
L 114.303536 220.23583 
L 114.430404 192.205074 
L 114.557272 199.275999 
L 114.811007 177.558294 
L 115.064743 198.518125 
L 115.19161 196.245466 
L 115.318478 189.427485 
L 115.445346 196.750393 
L 115.699081 186.901879 
L 115.825949 191.195217 
L 115.952817 200.285856 
L 116.079685 201.043731 
L 116.206552 193.972805 
L 116.33342 180.335883 
L 116.460288 182.356559 
L 116.587155 197.003339 
L 116.714023 198.013195 
L 116.840891 186.649895 
L 116.967759 185.639077 
L 117.094626 186.396952 
L 117.221494 183.114434 
L 117.348362 183.619361 
L 117.602097 196.245466 
L 117.855833 178.821096 
L 118.109568 194.982662 
L 118.236436 190.942271 
L 118.490172 203.31639 
L 118.617039 198.266141 
L 118.870775 172.508045 
L 119.12451 178.316167 
L 119.251378 173.770847 
L 119.505114 178.821096 
L 119.631981 169.982439 
L 119.758849 171.498188 
L 120.012584 182.609505 
L 120.139452 182.103614 
L 120.26632 188.669611 
L 120.393188 188.164681 
L 120.773791 194.73068 
L 120.900659 188.164681 
L 121.027526 190.942271 
L 121.154394 188.417626 
L 121.281262 181.85163 
L 121.534997 187.659754 
L 121.661865 179.578971 
L 121.788733 180.588828 
L 121.915601 187.659754 
L 122.423072 175.285633 
L 122.549939 177.558294 
L 122.676807 173.26592 
L 123.05741 187.659754 
L 123.184278 180.083898 
L 123.311146 180.335883 
L 123.438013 179.578971 
L 123.564881 181.093757 
L 123.818617 168.972582 
L 123.945484 161.396729 
L 124.19922 172.76099 
L 124.326088 171.245243 
L 124.452955 172.003116 
L 124.833559 187.154824 
L 124.960426 193.71986 
L 125.087294 191.700144 
L 125.34103 206.09398 
L 125.594765 171.498188 
L 125.721633 189.679467 
L 125.8485 187.659754 
L 126.102236 169.225527 
L 126.355971 179.326026 
L 126.482839 192.458019 
L 126.99031 178.821096 
L 127.117178 178.063222 
L 127.497781 200.790786 
L 127.751517 183.114434 
L 128.005252 208.619584 
L 128.512723 179.830953 
L 128.766458 206.09398 
L 129.020194 181.346703 
L 129.147062 181.598685 
L 129.400797 195.992521 
L 129.527665 197.508268 
L 129.654533 201.043731 
L 129.7814 199.527982 
L 129.908268 190.942271 
L 130.162004 195.487591 
L 130.415739 173.26592 
L 130.542607 189.679467 
L 130.669475 160.38687 
L 130.796342 160.891799 
L 131.050078 189.427485 
L 131.303813 177.30631 
L 131.430681 191.700144 
L 131.557549 185.134148 
L 131.684416 165.185137 
L 131.811284 170.235384 
L 131.938152 188.922556 
L 132.191887 183.619361 
L 132.318755 188.922556 
L 132.445623 187.406808 
L 132.572491 178.821096 
L 132.826226 199.780927 
L 133.079962 191.700144 
L 133.206829 196.750393 
L 133.587433 170.235384 
L 133.841168 181.85163 
L 134.221771 167.962725 
L 134.348639 167.457796 
L 134.602375 177.30631 
L 134.729242 170.235384 
L 135.109845 176.295492 
L 135.236713 175.790563 
L 135.363581 170.993259 
L 135.617316 155.84155 
L 135.871052 177.053365 
L 135.99792 175.538579 
L 136.124787 175.033651 
L 136.251655 180.083898 
L 136.505391 170.740314 
L 136.632258 177.053365 
L 136.759126 172.76099 
L 136.885994 153.568891 
L 137.012862 154.831693 
L 137.266597 173.012974 
L 137.393465 170.993259 
L 137.520333 174.780706 
L 137.774068 164.680208 
L 138.408407 195.740536 
L 138.535274 195.487591 
L 138.662142 194.73068 
L 138.78901 184.124291 
L 139.042745 200.538802 
L 139.169613 195.992521 
L 139.296481 186.649895 
L 139.423349 187.659754 
L 139.550216 191.195217 
L 139.677084 184.62922 
L 139.93082 162.912476 
L 140.184555 189.17454 
L 140.311423 182.103614 
L 140.438291 162.406586 
L 140.565158 166.194994 
L 140.818894 184.882165 
L 141.199497 176.043508 
L 141.5801 192.458019 
L 141.833836 173.770847 
L 141.960703 177.053365 
L 142.087571 183.366416 
L 142.214439 182.356559 
L 142.341307 174.022831 
L 142.468174 176.043508 
L 142.595042 183.619361 
L 142.72191 183.619361 
L 142.848778 177.30631 
L 143.102513 191.195217 
L 143.356249 176.548437 
L 143.483116 185.892022 
L 143.609984 183.114434 
L 143.736852 176.295492 
L 143.863719 177.558294 
L 143.990587 176.043508 
L 144.117455 170.740314 
L 144.37119 191.447199 
L 144.624926 181.346703 
L 144.878661 188.669611 
L 145.259265 178.821096 
L 145.513 180.588828 
L 145.639868 182.356559 
L 145.766736 175.538579 
L 146.274207 187.406808 
L 146.401074 200.285856 
L 146.527942 196.245466 
L 146.65481 187.659754 
L 146.781678 191.700144 
L 147.035413 170.487368 
L 147.162281 174.780706 
L 147.416016 166.194994 
L 147.669752 188.417626 
L 147.796619 185.892022 
L 148.050355 195.992521 
L 148.177223 191.700144 
L 148.30409 182.861489 
L 148.430958 181.85163 
L 148.684694 176.295492 
L 148.811561 181.85163 
L 149.065297 177.558294 
L 149.319032 194.22575 
L 149.572768 169.730457 
L 149.826503 162.154602 
L 149.953371 162.154602 
L 150.207106 184.882165 
L 150.333974 185.134148 
L 150.714577 181.346703 
L 150.968313 196.498409 
L 151.222048 177.30631 
L 151.348916 178.063222 
L 151.475784 183.114434 
L 151.729519 179.326026 
L 151.983255 186.396952 
L 152.23699 174.275777 
L 152.363858 171.75017 
L 152.490726 178.569112 
L 152.744461 200.032911 
L 152.871329 193.71986 
L 153.125064 192.710003 
L 153.251932 194.22575 
L 153.505668 189.17454 
L 153.759403 201.043731 
L 154.013139 172.2551 
L 154.140006 175.538579 
L 154.266874 183.366416 
L 154.52061 175.538579 
L 154.774345 204.579194 
L 154.901213 203.821319 
L 155.028081 209.881425 
L 155.154948 222.255546 
L 155.281816 216.700367 
L 155.408684 191.195217 
L 155.535552 188.417626 
L 155.789287 217.963169 
L 155.916155 213.669833 
L 156.043022 215.437565 
L 156.296758 205.589051 
L 156.550493 215.689549 
L 157.057964 185.639077 
L 157.3117 202.811462 
L 157.438568 192.458019 
L 157.565435 192.205074 
L 157.692303 199.780927 
L 157.946039 185.639077 
L 158.072906 192.458019 
L 158.199774 206.346923 
L 158.45351 185.134148 
L 158.707245 192.458019 
L 158.834113 187.659754 
L 159.087848 200.538802 
L 159.214716 193.467876 
L 159.468451 168.214707 
L 159.595319 169.730457 
L 159.975922 189.17454 
L 160.229658 156.851409 
L 160.483393 187.659754 
L 160.610261 187.406808 
L 160.737129 180.841773 
L 160.990864 195.235607 
L 161.2446 183.366416 
L 161.371468 200.285856 
L 161.498335 202.053588 
L 161.752071 179.830953 
L 161.878939 181.598685 
L 162.132674 195.740536 
L 162.386409 188.164681 
L 162.640145 173.517902 
L 162.767013 177.30631 
L 163.020748 174.022831 
L 163.147616 173.517902 
L 163.274484 168.720598 
L 163.528219 187.911736 
L 163.655087 168.214707 
L 163.781955 165.942049 
L 163.908822 185.387093 
L 164.162558 174.780706 
L 164.289426 178.569112 
L 164.543161 139.175055 
L 164.796897 168.214707 
L 164.923764 158.114211 
L 165.050632 159.377013 
L 165.558103 184.882165 
L 165.684971 165.437119 
L 165.811838 171.498188 
L 165.938706 183.114434 
L 166.192442 158.619139 
L 166.319309 167.962725 
L 166.446177 168.214707 
L 166.573045 165.185137 
L 166.82678 143.720377 
L 166.953648 155.083678 
L 167.080516 182.103614 
L 167.207384 182.609505 
L 167.461119 171.498188 
L 167.714855 164.680208 
L 168.095458 183.871346 
L 168.222325 182.861489 
L 168.349193 180.083898 
L 168.602929 200.790786 
L 168.729796 192.458019 
L 168.856664 175.538579 
L 169.1104 173.012974 
L 169.237267 178.569112 
L 169.491003 200.790786 
L 169.744738 165.185137 
L 169.998474 187.659754 
L 170.125342 187.154824 
L 170.252209 187.406808 
L 170.379077 185.639077 
L 170.505945 180.588828 
L 170.632813 189.932413 
L 170.75968 185.639077 
L 171.013416 161.649674 
L 171.140283 183.114434 
L 171.394019 159.124068 
L 171.520887 170.235384 
L 171.647754 198.013195 
L 171.90149 179.830953 
L 172.028358 198.266141 
L 172.155225 190.690287 
L 172.282093 158.366193 
L 172.408961 160.638854 
L 172.535829 184.377236 
L 172.662696 179.326026 
L 172.789564 181.598685 
L 172.916432 198.013195 
L 173.170167 174.780706 
L 173.423903 219.22501 
L 173.677638 181.85163 
L 173.931374 193.21493 
L 174.185109 177.558294 
L 174.438845 197.255323 
L 174.565712 199.527982 
L 174.69258 189.679467 
L 174.946316 158.619139 
L 175.200051 190.184397 
L 175.326919 184.62922 
L 175.453787 191.700144 
L 175.707522 176.043508 
L 175.83439 178.063222 
L 175.961258 174.275777 
L 176.214993 160.38687 
L 176.341861 165.690064 
L 176.595596 183.619361 
L 176.722464 182.861489 
L 176.9762 179.326026 
L 177.103067 174.528722 
L 177.229935 174.780706 
L 177.356803 174.528722 
L 177.48367 163.922333 
L 177.610538 162.659531 
L 177.991141 181.093757 
L 178.118009 184.62922 
L 178.371745 162.659531 
L 178.62548 197.003339 
L 178.752348 196.245466 
L 178.879216 193.972805 
L 179.006083 199.780927 
L 179.132951 196.750393 
L 179.259819 196.498409 
L 179.386687 178.821096 
L 179.640422 194.982662 
L 179.76729 194.982662 
L 180.021025 183.871346 
L 180.147893 189.17454 
L 180.401628 157.861266 
L 180.528496 158.114211 
L 180.909099 184.377236 
L 181.162835 156.34648 
L 181.289703 163.669388 
L 181.41657 181.093757 
L 181.797174 164.932192 
L 181.924041 168.214707 
L 182.050909 178.821096 
L 182.177777 178.316167 
L 182.304645 164.174317 
L 182.431512 163.16446 
L 182.685248 181.85163 
L 182.938983 163.922333 
L 183.192719 174.275777 
L 183.319586 164.427262 
L 183.446454 163.417406 
L 183.573322 181.598685 
L 183.70019 181.598685 
L 183.827057 165.185137 
L 183.953925 163.417406 
L 184.080793 183.366416 
L 184.207661 183.366416 
L 184.334528 165.185137 
L 184.461396 164.174317 
L 184.588264 164.680208 
L 184.715132 157.104352 
L 184.841999 167.70978 
L 184.968867 189.17454 
L 185.095735 190.184397 
L 185.34947 179.074042 
L 185.603206 181.093757 
L 185.856941 163.16446 
L 186.110677 176.548437 
L 186.237544 175.790563 
L 186.49128 153.568891 
L 186.618148 159.124068 
L 186.871883 181.093757 
L 186.998751 183.114434 
L 187.252486 175.790563 
L 187.379354 176.295492 
L 187.506222 163.417406 
L 187.63309 137.912253 
L 187.759957 142.709557 
L 187.886825 154.073819 
L 188.013693 153.820874 
L 188.267428 182.103614 
L 188.394296 175.790563 
L 188.648032 181.093757 
L 188.901767 169.730457 
L 189.028635 165.690064 
L 189.155503 157.609282 
L 189.28237 157.609282 
L 189.409238 153.315946 
L 189.536106 153.063962 
L 189.789841 192.962948 
L 190.043577 159.377013 
L 190.170444 164.680208 
L 190.42418 157.104352 
L 190.551048 159.628997 
L 190.677915 158.366193 
L 190.804783 167.204851 
L 190.931651 185.892022 
L 191.058519 177.30631 
L 191.185386 158.619139 
L 191.312254 163.417406 
L 191.439122 180.335883 
L 191.56599 181.85163 
L 191.819725 155.588605 
L 192.073461 165.185137 
L 192.200328 161.396729 
L 192.327196 162.912476 
L 192.580931 169.982439 
L 192.834667 154.325803 
L 192.961535 154.578748 
L 193.21527 198.518125 
L 193.342138 194.22575 
L 193.469006 175.285633 
L 193.595873 181.346703 
L 193.722741 194.73068 
L 193.849609 193.467876 
L 194.103344 183.114434 
L 194.230212 183.619361 
L 194.35708 188.417626 
L 194.483948 183.366416 
L 194.610815 171.498188 
L 194.864551 189.427485 
L 195.118286 165.185137 
L 195.372022 191.195217 
L 195.498889 192.710003 
L 195.752625 219.729939 
L 195.879493 216.700367 
L 196.00636 205.841035 
L 196.260096 216.700367 
L 196.386964 214.932636 
L 196.513831 214.932636 
L 196.640699 218.973028 
L 196.894435 206.09398 
L 197.14817 219.982885 
L 197.528773 199.275999 
L 197.655641 200.032911 
L 197.909377 214.174763 
L 198.163112 202.053588 
L 198.28998 204.074265 
L 198.543715 197.76025 
L 198.797451 203.31639 
L 199.051186 186.144006 
L 199.304922 204.326249 
L 199.431789 191.195217 
L 199.685525 208.114655 
L 200.066128 176.043508 
L 200.319864 185.387093 
L 200.446731 181.093757 
L 200.700467 186.649895 
L 200.827335 174.275777 
L 200.954202 176.548437 
L 201.08107 189.679467 
L 201.207938 190.184397 
L 201.334805 185.639077 
L 201.588541 201.800642 
L 201.842276 188.417626 
L 201.969144 199.275999 
L 202.22288 187.911736 
L 202.349747 189.932413 
L 202.603483 184.124291 
L 202.857218 190.942271 
L 202.984086 186.901879 
L 203.237822 189.427485 
L 203.364689 189.932413 
L 203.618425 169.477512 
L 203.87216 124.78026 
L 203.999028 126.296008 
L 204.125896 133.871863 
L 204.252764 134.628774 
L 204.379631 130.3364 
L 204.506499 131.599202 
L 204.633367 127.810794 
L 204.887102 129.831471 
L 205.140838 106.598979 
L 205.394573 123.518419 
L 205.521441 111.902174 
L 205.648309 111.396283 
L 205.902044 131.093312 
L 206.028912 135.134665 
L 206.15578 143.972359 
L 206.282647 142.709557 
L 206.536383 146.24502 
L 206.790118 121.497743 
L 207.043854 132.356114 
L 207.297589 124.78026 
L 207.424457 124.275331 
L 207.551325 127.810794 
L 207.678192 138.669165 
L 207.931928 133.366934 
L 208.058796 135.386649 
L 208.312531 130.3364 
L 208.566267 151.043285 
L 208.693134 150.033428 
L 208.94687 131.851186 
L 209.200605 166.699923 
L 209.454341 133.366934 
L 209.581209 133.366934 
L 209.708076 135.134665 
L 209.961812 153.820874 
L 210.342415 129.578525 
L 210.469283 131.851186 
L 210.59615 136.649451 
L 210.849886 156.093534 
L 211.103621 147.002895 
L 211.230489 149.275554 
L 211.484225 137.407324 
L 211.73796 142.709557 
L 211.864828 179.326026 
L 211.991696 169.225527 
L 212.118563 174.528722 
L 212.245431 200.285856 
L 212.499167 174.528722 
L 212.626034 186.396952 
L 212.752902 185.892022 
L 212.87977 164.174317 
L 213.006638 168.467653 
L 213.133505 189.932413 
L 213.260373 189.679467 
L 213.387241 188.164681 
L 213.514108 194.73068 
L 213.640976 191.447199 
L 213.767844 179.578971 
L 214.021579 207.356782 
L 214.275315 190.942271 
L 214.402183 193.972805 
L 214.655918 174.275777 
L 214.782786 176.295492 
L 214.909654 184.882165 
L 215.036521 185.387093 
L 215.290257 192.962948 
L 215.543992 170.235384 
L 215.797728 190.942271 
L 215.924596 186.649895 
L 216.051463 189.679467 
L 216.178331 188.669611 
L 216.432067 180.841773 
L 216.81267 163.669388 
L 217.066405 184.882165 
L 217.193273 184.62922 
L 217.320141 178.569112 
L 217.447008 179.830953 
L 217.573876 183.871346 
L 217.700744 183.619361 
L 217.827612 184.62922 
L 217.954479 177.30631 
L 218.081347 161.396729 
L 218.208215 165.690064 
L 218.46195 192.205074 
L 218.969421 171.245243 
L 219.350025 199.780927 
L 219.476892 194.73068 
L 219.730628 210.13437 
L 219.984363 192.205074 
L 220.364966 209.629441 
L 220.618702 187.154824 
L 220.74557 195.235607 
L 220.872437 192.458019 
L 221.126173 171.245243 
L 221.379908 194.477734 
L 221.633644 168.467653 
L 222.014247 194.982662 
L 222.141115 191.952128 
L 222.39485 177.558294 
L 222.775453 196.498409 
L 223.029189 181.093757 
L 223.282924 188.417626 
L 223.53666 181.346703 
L 223.663528 189.932413 
L 223.790395 190.184397 
L 223.917263 180.841773 
L 224.044131 181.598685 
L 224.170999 199.527982 
L 224.297866 199.275999 
L 224.424734 190.942271 
L 224.551602 193.467876 
L 224.67847 199.023054 
L 224.932205 181.346703 
L 225.185941 184.882165 
L 225.312808 180.335883 
L 225.566544 191.952128 
L 225.693411 189.932413 
L 225.820279 189.932413 
L 225.947147 191.447199 
L 226.074015 194.73068 
L 226.200882 194.22575 
L 226.454618 174.780706 
L 226.708353 185.892022 
L 226.962089 175.285633 
L 227.215824 186.901879 
L 227.342692 184.62922 
L 227.596428 201.548658 
L 227.850163 182.103614 
L 227.977031 187.154824 
L 228.230766 149.780483 
L 228.484502 157.104352 
L 228.611369 153.315946 
L 228.865105 179.074042 
L 228.991973 176.043508 
L 229.245708 183.619361 
L 229.626311 166.699923 
L 229.753179 163.669388 
L 230.006915 164.427262 
L 230.133782 158.872084 
L 230.26065 162.912476 
L 230.387518 176.801381 
L 230.514386 174.780706 
L 230.768121 156.851409 
L 231.021857 140.436896 
L 231.148724 142.962503 
L 231.529328 172.76099 
L 231.656195 169.730457 
L 231.783063 161.649674 
L 231.909931 165.437119 
L 232.036798 176.043508 
L 232.163666 172.508045 
L 232.417402 162.154602 
L 232.671137 158.619139 
L 232.924873 158.619139 
L 233.178608 161.901656 
L 233.432344 148.265697 
L 233.559211 145.993036 
L 233.939815 181.093757 
L 234.066682 175.538579 
L 234.320418 179.578971 
L 234.447286 177.053365 
L 234.701021 183.366416 
L 235.081624 172.76099 
L 235.208492 164.427262 
L 235.33536 164.680208 
L 235.462227 166.699923 
L 235.715963 159.377013 
L 236.350302 217.710224 
L 236.604037 173.517902 
L 236.857773 224.528204 
L 236.98464 224.276222 
L 237.111508 201.295713 
L 237.365244 210.13437 
L 237.618979 194.982662 
L 237.745847 213.164904 
L 237.872714 208.114655 
L 238.12645 170.740314 
L 238.253318 176.043508 
L 238.507053 211.649157 
L 238.760789 177.81124 
L 239.014524 190.942271 
L 239.141392 187.659754 
L 239.26826 187.911736 
L 239.395127 197.255323 
L 239.521995 193.467876 
L 239.902598 170.235384 
L 240.156334 187.154824 
L 240.536937 155.84155 
L 240.663805 134.37679 
L 240.790672 146.74995 
L 240.91754 169.982439 
L 241.044408 168.972582 
L 241.298143 147.507822 
L 241.425011 121.244797 
L 241.551879 119.225082 
L 241.932482 164.932192 
L 242.05935 166.952867 
L 242.186218 171.498188 
L 242.313085 170.740314 
L 242.439953 158.872084 
L 242.820556 186.144006 
L 243.074292 168.720598 
L 243.328027 185.387093 
L 243.454895 183.619361 
L 243.835498 158.619139 
L 243.962366 175.033651 
L 244.216101 152.811017 
L 244.342969 213.922779 
L 244.469837 216.700367 
L 244.596705 214.427708 
L 244.977308 180.841773 
L 245.357911 191.195217 
L 245.484779 183.114434 
L 245.738514 132.104132 
L 246.372853 199.023054 
L 246.499721 188.669611 
L 246.626589 197.003339 
L 246.753456 224.528204 
L 247.007192 194.22575 
L 247.134059 209.629441 
L 247.260927 203.568374 
L 247.387795 178.569112 
L 247.514663 177.558294 
L 247.64153 177.81124 
L 247.768398 180.083898 
L 247.895266 174.780706 
L 248.149001 142.709557 
L 248.402737 187.154824 
L 248.910208 87.153935 
L 249.037076 89.174612 
L 249.163943 79.831025 
L 249.417679 53.820945 
L 249.544547 60.891871 
L 249.798282 85.134219 
L 250.052017 67.204922 
L 250.178885 73.265028 
L 250.305753 68.467725 
L 250.432621 72.002226 
L 250.686356 99.275108 
L 250.940092 67.709852 
L 251.066959 69.982511 
L 251.320695 104.831248 
L 251.447563 100.790857 
L 251.57443 75.285705 
L 251.701298 73.013046 
L 251.828166 98.518197 
L 251.955034 92.710075 
L 252.081901 71.750242 
L 252.208769 75.285705 
L 252.335637 109.123622 
L 252.462505 267.205259 
L 252.589372 263.164869 
L 252.71624 271.245652 
L 252.843108 295.488 
L 252.969975 292.205482 
L 253.096843 276.296382 
L 253.223711 285.387021 
L 253.350579 279.07397 
L 253.477446 244.983107 
L 253.604314 241.447645 
L 253.731182 262.912404 
L 253.85805 254.578676 
L 253.984917 260.387281 
L 254.111785 277.053774 
L 254.365521 258.114139 
L 254.492388 278.821505 
L 254.619256 279.831364 
L 254.999859 254.326692 
L 255.126727 236.14445 
L 255.253595 234.376719 
L 255.50733 264.932601 
L 255.634198 260.639744 
L 255.887933 240.437788 
L 256.014801 232.10406 
L 256.141669 234.881648 
L 256.395404 266.952795 
L 256.522272 268.720526 
L 256.64914 274.023721 
L 256.902875 240.437788 
L 257.029743 244.730162 
L 257.156611 252.810945 
L 257.410346 235.134593 
L 257.537214 239.679913 
L 257.79095 250.538284 
L 257.917817 248.013641 
L 258.171553 251.549104 
L 258.552156 227.811683 
L 258.679024 231.094201 
L 258.932759 216.195438 
L 259.186495 259.376941 
L 259.313362 258.619067 
L 259.567098 236.397395 
L 259.947701 260.892208 
L 260.074569 252.306016 
L 260.328304 262.912404 
L 260.455172 256.346408 
L 260.58204 170.993259 
L 260.835775 189.679467 
L 260.962643 186.901879 
L 261.216379 177.558294 
L 261.343246 186.901879 
L 261.470114 186.396952 
L 261.72385 158.619139 
L 261.850717 170.235384 
L 262.104453 195.740536 
L 262.485056 162.659531 
L 262.738791 183.366416 
L 262.992527 170.487368 
L 263.246262 201.295713 
L 263.499998 193.467876 
L 263.753733 174.022831 
L 264.007469 189.17454 
L 264.261204 160.638854 
L 264.768675 189.17454 
L 265.149278 168.214707 
L 265.276146 179.326026 
L 265.403014 177.81124 
L 265.529882 169.225527 
L 265.656749 175.538579 
L 265.783617 173.26592 
L 265.910485 159.377013 
L 266.037353 162.912476 
L 266.16422 181.85163 
L 266.417956 185.892022 
L 266.544824 182.609505 
L 266.798559 174.275777 
L 266.925427 183.114434 
L 267.179162 156.34648 
L 267.432898 177.81124 
L 267.686633 130.588382 
L 267.940369 174.528722 
L 268.067236 175.285633 
L 268.194104 168.972582 
L 268.44784 141.194771 
L 268.574707 150.79034 
L 268.701575 188.417626 
L 268.828443 166.699923 
L 268.955311 177.558294 
L 269.082178 177.81124 
L 269.209046 165.185137 
L 269.462782 222.003561 
L 269.716517 198.013195 
L 269.843385 209.881425 
L 269.970253 204.579194 
L 270.09712 190.690287 
L 270.223988 190.942271 
L 270.350856 189.17454 
L 270.604591 181.346703 
L 270.858327 209.376496 
L 270.985195 195.487591 
L 271.112062 166.446978 
L 271.23893 163.417406 
L 271.365798 185.639077 
L 271.619533 161.901656 
L 271.746401 164.174317 
L 272.000136 183.871346 
L 272.253872 186.144006 
L 272.38074 189.679467 
L 272.507607 187.911736 
L 272.634475 193.972805 
L 272.761343 208.114655 
L 273.015078 186.649895 
L 273.141946 197.255323 
L 273.268814 197.76025 
L 273.395682 175.033651 
L 273.522549 174.528722 
L 273.776285 194.73068 
L 274.03002 171.498188 
L 274.156888 183.366416 
L 274.410623 213.164904 
L 274.537491 210.6393 
L 274.791227 200.538802 
L 274.918094 198.266141 
L 275.044962 198.518125 
L 275.298698 175.285633 
L 275.552433 197.003339 
L 275.679301 190.942271 
L 275.806169 171.75017 
L 275.933036 176.801381 
L 276.059904 202.306533 
L 276.186772 196.750393 
L 276.31364 155.083678 
L 276.440507 151.043285 
L 276.567375 162.912476 
L 276.694243 153.820874 
L 276.947978 186.396952 
L 277.201714 134.37679 
L 277.328581 138.92211 
L 277.582317 172.508045 
L 277.709185 159.377013 
L 277.836052 169.225527 
L 277.96292 169.982439 
L 278.216656 147.760768 
L 278.470391 169.730457 
L 278.597259 163.417406 
L 278.850994 143.467432 
L 279.10473 175.033651 
L 279.358465 148.517679 
L 279.485333 153.568891 
L 279.612201 147.507822 
L 279.739069 148.770624 
L 279.992804 164.680208 
L 280.119672 159.377013 
L 280.373407 143.972359 
L 280.500275 153.063962 
L 280.75401 146.24502 
L 280.880878 150.033428 
L 281.007746 145.488109 
L 281.261481 114.931746 
L 281.515217 132.861043 
L 281.768952 154.831693 
L 282.022688 107.103909 
L 282.657027 153.568891 
L 282.910762 131.346257 
L 283.03763 132.104132 
L 283.164497 147.760768 
L 283.418233 143.720377 
L 283.545101 143.467432 
L 283.671968 126.296008 
L 283.798836 127.55881 
L 284.052572 166.952867 
L 284.433175 124.78026 
L 284.560043 136.649451 
L 284.68691 135.891577 
L 284.813778 132.104132 
L 285.194381 140.941826 
L 285.321249 134.628774 
L 285.574985 112.407103 
L 285.82872 130.083455 
L 286.209323 110.639372 
L 286.336191 93.972877 
L 286.589926 109.629513 
L 286.716794 105.589122 
L 286.843662 108.618695 
L 287.097397 119.478027 
L 287.351133 134.123845 
L 287.604868 118.215225 
L 287.731736 127.810794 
L 287.858604 118.467209 
L 287.985472 100.537912 
L 288.112339 107.103909 
L 288.366075 128.063739 
L 288.61981 94.477806 
L 288.746678 102.05366 
L 288.873546 127.55881 
L 289.000414 127.305866 
L 289.507884 95.487663 
L 289.634752 108.366711 
L 289.76162 107.861781 
L 289.888488 94.729788 
L 290.015355 94.477806 
L 290.269091 113.921889 
L 290.522826 100.790857 
L 290.649694 102.305644 
L 290.776562 106.850963 
L 290.90343 99.528053 
L 291.030297 99.780999 
L 291.284033 120.739868 
L 291.537768 83.113543 
L 291.918372 114.931746 
L 292.172107 100.790857 
L 292.298975 100.537912 
L 292.425842 105.589122 
L 292.679578 77.81035 
L 292.933313 108.113765 
L 293.060181 152.053142 
L 293.187049 144.730234 
L 293.313917 152.558071 
L 293.440784 186.901879 
L 293.567652 184.882165 
L 293.69452 164.932192 
L 293.821388 173.012974 
L 293.948255 163.417406 
L 294.075123 126.296008 
L 294.201991 133.366934 
L 294.328859 158.114211 
L 294.582594 137.659308 
L 294.709462 159.124068 
L 294.963197 134.37679 
L 295.090065 152.558071 
L 295.216933 149.780483 
L 295.3438 138.669165 
L 295.470668 145.740091 
L 295.597536 139.42704 
L 295.724404 124.528276 
L 295.978139 141.447716 
L 296.105007 142.962503 
L 296.231875 145.993036 
L 296.358742 143.972359 
L 296.612478 125.033206 
L 296.739346 130.3364 
L 296.993081 157.861266 
L 297.119949 148.770624 
L 297.373684 159.124068 
L 297.62742 142.204628 
L 297.754288 147.002895 
L 297.881155 141.952646 
L 298.008023 129.578525 
L 298.134891 129.831471 
L 298.388626 152.811017 
L 298.515494 153.063962 
L 298.769229 151.296231 
L 298.896097 151.80116 
L 299.022965 142.709557 
L 299.149833 124.528276 
L 299.2767 125.538135 
L 299.403568 139.42704 
L 299.530436 135.386649 
L 299.657304 138.417183 
L 299.911039 155.588605 
L 300.037907 140.941826 
L 300.164775 141.194771 
L 300.41851 170.740314 
L 300.545378 171.245243 
L 300.672246 171.245243 
L 300.799113 174.528722 
L 301.052849 152.306087 
L 301.179717 121.750688 
L 301.433452 148.012752 
L 301.687187 119.478027 
L 301.814055 121.497743 
L 301.940923 129.831471 
L 302.067791 130.841327 
L 302.321526 126.043062 
L 302.702129 134.628774 
L 302.828997 133.113988 
L 303.082733 118.720154 
L 303.336468 146.74995 
L 303.590204 123.518419 
L 303.843939 135.891577 
L 303.970807 137.154381 
L 304.097675 136.396506 
L 304.35141 127.052921 
L 304.478278 137.407324 
L 304.605145 137.659308 
L 304.858881 116.447493 
L 304.985749 113.921889 
L 305.112616 115.689621 
L 305.366352 128.063739 
L 305.620087 106.346034 
L 305.746955 111.649228 
L 305.873823 128.568669 
L 306.000691 128.568669 
L 306.127558 117.457352 
L 306.254426 116.194548 
L 306.381294 113.41696 
L 306.508162 114.426817 
L 306.761897 135.891577 
L 307.015633 131.346257 
L 307.1425 131.346257 
L 307.396236 137.407324 
L 307.523103 132.861043 
L 307.776839 117.96228 
L 307.903707 124.275331 
L 308.030574 120.234941 
L 308.157442 98.265251 
L 308.28431 101.800714 
L 308.411178 122.507599 
L 308.538045 122.002672 
L 308.664913 116.194548 
L 308.791781 124.528276 
L 308.918649 121.244797 
L 309.045516 104.831248 
L 309.172384 106.094052 
L 309.299252 123.012529 
L 309.42612 107.861781 
L 309.679855 109.881497 
L 309.806723 114.174835 
L 310.060458 143.720377 
L 310.187326 134.628774 
L 310.314194 135.639594 
L 310.441061 137.912253 
L 310.821665 122.255617 
L 310.948532 122.507599 
L 311.0754 123.265474 
L 311.202268 121.750688 
L 311.329136 124.528276 
L 311.456003 132.861043 
L 311.709739 106.346034 
L 311.963474 127.810794 
L 312.090342 123.265474 
L 312.21721 127.55881 
L 312.344078 125.033206 
L 312.470945 116.699478 
L 312.724681 137.154381 
L 312.978416 116.952423 
L 313.232152 133.366934 
L 313.35902 128.820651 
L 313.612755 115.437637 
L 313.739623 117.710296 
L 313.86649 122.255617 
L 314.120226 104.073375 
L 314.373961 133.366934 
L 314.627697 107.103909 
L 315.0083 149.275554 
L 315.262036 124.528276 
L 315.515771 144.730234 
L 315.642639 140.184914 
L 315.896374 118.215225 
L 316.023242 124.275331 
L 316.15011 136.144522 
L 316.276978 130.588382 
L 316.403845 117.204407 
L 316.657581 140.184914 
L 316.784448 135.891577 
L 316.911316 125.286151 
L 317.165052 134.628774 
L 317.291919 125.79108 
L 317.418787 217.457278 
L 317.545655 223.265402 
L 317.672523 211.144227 
L 317.79939 184.377236 
L 317.926258 185.892022 
L 318.179994 230.841256 
L 318.306861 201.043731 
L 318.433729 203.063445 
L 318.560597 217.457278 
L 318.814332 208.114655 
L 318.9412 220.23583 
L 319.068068 216.952351 
L 319.194936 209.629441 
L 319.321803 194.477734 
L 319.448671 194.477734 
L 319.702406 235.134593 
L 319.956142 197.003339 
L 320.08301 197.255323 
L 320.463613 212.659977 
L 320.590481 224.528204 
L 320.717348 215.942494 
L 320.971084 188.164681 
L 321.224819 197.255323 
L 321.351687 205.589051 
L 321.478555 204.831176 
L 321.605423 196.498409 
L 321.859158 156.598464 
L 321.986026 168.972582 
L 322.112894 195.992521 
L 322.239761 197.003339 
L 322.493497 176.043508 
L 322.620364 146.24502 
L 322.747232 144.730234 
L 323.000968 182.609505 
L 323.127835 181.346703 
L 323.381571 199.780927 
L 323.508439 198.013195 
L 323.635306 191.700144 
L 323.889042 210.6393 
L 324.01591 212.911959 
L 324.269645 189.17454 
L 324.396513 195.740536 
L 324.523381 214.67969 
L 324.650248 214.932636 
L 324.903984 189.427485 
L 325.030852 191.952128 
L 325.157719 208.114655 
L 325.284587 197.255323 
L 325.411455 176.548437 
L 325.66519 187.154824 
L 325.792058 185.639077 
L 326.172661 156.851409 
L 326.299529 161.649674 
L 326.426397 156.598464 
L 326.553264 160.638854 
L 326.680132 155.336623 
L 326.933868 109.629513 
L 327.187603 139.42704 
L 327.314471 137.407324 
L 327.568206 159.124068 
L 327.695074 153.315946 
L 327.821942 153.568891 
L 327.94881 164.427262 
L 328.075677 159.124068 
L 328.202545 167.204851 
L 328.329413 190.184397 
L 328.456281 190.437342 
L 328.583148 176.801381 
L 328.836884 188.164681 
L 328.963751 190.942271 
L 329.090619 183.366416 
L 329.344355 159.628997 
L 329.59809 211.649157 
L 329.851826 136.144522 
L 330.105561 71.245315 
L 330.232429 71.245315 
L 330.486164 54.072929 
L 330.613032 55.840661 
L 330.7399 53.568 
L 330.993635 77.558366 
L 331.247371 63.66946 
L 331.374239 71.245315 
L 331.501106 63.921444 
L 331.627974 68.719709 
L 331.881709 101.295785 
L 332.135445 81.093829 
L 332.516048 102.558589 
L 332.642916 104.32632 
L 332.896651 88.416737 
L 333.023519 110.891354 
L 333.150387 104.831248 
L 333.277255 81.598756 
L 333.404122 79.073152 
L 333.53099 111.396283 
L 333.657858 230.084344 
L 333.784726 231.346185 
L 334.038461 282.861898 
L 334.165329 273.518311 
L 334.292197 252.558961 
L 334.419064 269.47792 
L 334.545932 264.932601 
L 334.6728 229.578454 
L 334.799667 230.336328 
L 334.926535 250.791229 
L 335.053403 239.174984 
L 335.180271 247.255766 
L 335.307138 262.912404 
L 335.560874 226.295936 
L 335.687742 248.770553 
L 335.814609 249.528427 
L 335.941477 237.660197 
L 336.068345 236.902325 
L 336.195213 230.841256 
L 336.448948 207.356782 
L 336.702684 229.831399 
L 336.829551 225.791008 
L 337.083287 205.589051 
L 337.210155 198.77107 
L 337.337022 203.568374 
L 337.590758 226.295936 
L 337.717625 220.23583 
L 337.844493 226.800865 
L 337.971361 222.760473 
L 338.098229 206.346923 
L 338.225096 204.326249 
L 338.351964 211.902102 
L 338.6057 194.22575 
L 338.732567 195.487591 
L 338.986303 211.902102 
L 339.113171 222.003561 
L 339.240038 223.013418 
L 340.001245 197.508268 
L 340.128113 189.932413 
L 340.508716 238.417111 
L 340.762451 208.619584 
L 341.143054 253.821765 
L 341.269922 244.983107 
L 341.39679 246.24591 
L 341.523658 243.468321 
L 341.650525 235.892466 
L 341.777393 173.012974 
L 342.031129 200.538802 
L 342.411732 182.609505 
L 342.665467 185.387093 
L 342.792335 182.609505 
L 342.919203 165.690064 
L 343.046071 168.467653 
L 343.299806 202.558517 
L 343.680409 167.457796 
L 343.934145 186.144006 
L 344.18788 162.659531 
L 344.441616 193.467876 
L 344.822219 180.083898 
L 344.949087 180.841773 
L 345.075954 187.406808 
L 345.202822 183.871346 
L 345.456558 162.154602 
L 345.710293 176.801381 
L 345.837161 171.245243 
L 345.964029 182.103614 
L 346.090896 182.609505 
L 346.344632 157.861266 
L 346.4715 177.81124 
L 346.598367 175.285633 
L 346.725235 159.628997 
L 346.852103 160.38687 
L 347.105838 144.477289 
L 347.486441 175.790563 
L 347.613309 178.821096 
L 347.867045 163.669388 
L 348.12078 167.204851 
L 348.374516 153.315946 
L 348.628251 163.16446 
L 348.881987 127.810794 
L 349.135722 154.325803 
L 349.26259 154.073819 
L 349.389458 155.588605 
L 349.643193 123.265474 
L 349.770061 137.912253 
L 349.896928 174.528722 
L 350.023796 152.053142 
L 350.277532 162.154602 
L 350.404399 162.154602 
L 350.658135 205.589051 
L 350.785003 193.972805 
L 350.91187 193.467876 
L 351.038738 200.032911 
L 351.292474 189.679467 
L 351.419341 194.22575 
L 351.673077 180.335883 
L 351.799945 181.85163 
L 352.05368 197.255323 
L 352.180548 195.740536 
L 352.434283 173.26592 
L 352.561151 178.569112 
L 352.814886 171.245243 
L 352.941754 173.517902 
L 353.19549 194.73068 
L 353.449225 184.882165 
L 353.702961 192.710003 
L 353.956696 211.397173 
L 354.210432 188.417626 
L 354.464167 199.023054 
L 354.717903 171.498188 
L 354.84477 177.558294 
L 354.971638 197.003339 
L 355.225374 168.972582 
L 355.732845 208.366639 
L 355.859712 203.821319 
L 356.113448 189.932413 
L 356.240315 194.477734 
L 356.367183 186.901879 
L 356.494051 172.508045 
L 356.620919 170.993259 
L 356.747786 174.275777 
L 356.874654 173.517902 
L 357.001522 161.649674 
L 357.12839 169.225527 
L 357.255257 190.942271 
L 357.382125 179.830953 
L 357.635861 126.800937 
L 357.762728 132.104132 
L 357.889596 123.770403 
L 358.143332 234.881648 
L 358.270199 220.740759 
L 358.397067 183.366416 
L 358.523935 183.366416 
L 358.77767 237.407252 
L 358.904538 211.649157 
L 359.031406 213.669833 
L 359.158273 225.033134 
L 359.412009 211.902102 
L 359.538877 225.033134 
L 359.665744 225.538063 
L 359.91948 191.952128 
L 360.046348 197.003339 
L 360.300083 235.386577 
L 360.553819 198.518125 
L 360.680686 201.800642 
L 360.807554 208.114655 
L 361.06129 205.841035 
L 361.188157 225.791008 
L 361.315025 221.245687 
L 361.568761 187.659754 
L 361.695628 195.487591 
L 361.822496 192.205074 
L 362.076231 199.023054 
L 362.203099 193.467876 
L 362.456835 159.628997 
L 362.837438 191.195217 
L 362.964306 191.195217 
L 363.091173 186.396952 
L 363.344909 149.02357 
L 363.85238 195.487591 
L 363.979248 199.780927 
L 364.106115 200.032911 
L 364.232983 190.184397 
L 364.359851 195.235607 
L 364.486719 205.589051 
L 364.613586 206.851853 
L 364.867322 187.406808 
L 365.121057 209.124514 
L 365.247925 203.31639 
L 365.50166 182.609505 
L 365.628528 185.134148 
L 365.755396 195.740536 
L 366.135999 166.952867 
L 366.262867 170.740314 
L 367.024073 145.993036 
L 367.150941 150.285411 
L 367.277809 145.993036 
L 367.531544 103.568446 
L 367.658412 110.639372 
L 367.78528 128.063739 
L 367.912148 126.043062 
L 368.039015 128.568669 
L 368.292751 148.012752 
L 368.419618 152.306087 
L 368.546486 166.699923 
L 368.673354 155.588605 
L 368.800222 158.366193 
L 368.927089 181.093757 
L 369.053957 176.295492 
L 369.180825 157.104352 
L 369.43456 170.993259 
L 369.688296 161.144745 
L 369.942031 137.407324 
L 370.195767 187.154824 
L 370.703238 79.073152 
L 370.830106 75.790635 
L 370.956973 75.537689 
L 371.210709 58.61921 
L 371.337576 62.659603 
L 371.591312 85.134219 
L 371.71818 79.326098 
L 371.845047 65.184246 
L 371.971915 65.689175 
L 372.098783 67.709852 
L 372.225651 74.780778 
L 372.479386 100.790857 
L 372.606254 82.608615 
L 372.733122 81.598756 
L 372.859989 91.447271 
L 372.986857 91.9522 
L 373.240593 99.275108 
L 373.36746 86.397023 
L 373.494328 85.386203 
L 373.621196 103.3155 
L 373.874931 71.750242 
L 374.001799 76.295564 
L 374.128667 108.113765 
L 374.255534 193.972805 
L 374.382402 192.205074 
L 374.50927 209.881425 
L 374.636138 247.255766 
L 374.763005 242.962431 
L 374.889873 225.538063 
L 375.016741 238.165127 
L 375.143609 232.608987 
L 375.397344 193.467876 
L 375.524212 211.397173 
L 375.65108 205.084121 
L 375.777947 215.437565 
L 375.904815 239.174984 
L 376.031683 230.841256 
L 376.158551 206.09398 
L 376.412286 239.679913 
L 376.666022 216.195438 
L 376.792889 223.265402 
L 376.919757 215.689549 
L 377.046625 193.71986 
L 377.173492 191.952128 
L 377.30036 216.195438 
L 377.427228 217.205296 
L 377.680963 194.477734 
L 377.807831 187.154824 
L 377.934699 191.195217 
L 378.188434 215.942494 
L 378.315302 214.174763 
L 378.44217 222.508491 
L 378.569038 213.922779 
L 378.695905 193.467876 
L 378.822773 191.195217 
L 378.949641 204.831176 
L 379.203376 181.346703 
L 379.330244 185.387093 
L 379.58398 201.043731 
L 379.837715 209.881425 
L 380.218318 199.780927 
L 380.345186 197.255323 
L 380.598921 178.569112 
L 380.725789 177.053365 
L 380.979525 211.902102 
L 381.106392 216.700367 
L 381.360128 189.427485 
L 381.613863 235.134593 
L 381.867599 226.043952 
L 381.994467 234.376719 
L 382.121334 228.821542 
L 382.248202 216.952351 
L 382.37507 159.628997 
L 382.628805 189.679467 
L 382.755673 186.901879 
L 383.009409 177.053365 
L 383.136276 183.366416 
L 383.390012 169.225527 
L 383.516879 159.628997 
L 383.643747 165.437119 
L 383.897483 194.982662 
L 384.278086 153.568891 
L 384.531821 179.074042 
L 384.785557 160.38687 
L 385.039292 187.659754 
L 385.419896 174.275777 
L 385.673631 174.275777 
L 385.800499 172.2551 
L 386.054234 156.34648 
L 386.30797 164.174317 
L 386.434837 159.377013 
L 386.561705 166.699923 
L 386.688573 164.680208 
L 386.815441 152.306087 
L 386.942308 150.79034 
L 387.069176 169.477512 
L 387.196044 167.962725 
L 387.322912 151.548215 
L 387.576647 147.255838 
L 387.703515 142.204628 
L 388.210986 183.619361 
L 388.337854 180.083898 
L 388.591589 168.467653 
L 388.718457 174.022831 
L 388.972192 156.851409 
L 389.225928 175.285633 
L 389.479663 131.599202 
L 389.733399 164.427262 
L 389.860266 160.133925 
L 389.987134 162.406586 
L 390.114002 156.851409 
L 390.24087 141.6997 
L 390.367737 156.093534 
L 390.621473 122.255617 
L 390.748341 125.286151 
L 391.255812 167.70978 
L 391.509547 160.638854 
L 391.636415 163.16446 
L 391.89015 143.215448 
L 392.143886 153.063962 
L 392.397621 132.104132 
L 392.651357 170.487368 
L 392.778224 163.669388 
L 392.905092 146.497965 
L 393.03196 146.497965 
L 393.158828 153.063962 
L 393.285695 134.88172 
L 393.412563 134.123845 
L 393.666299 158.114211 
L 393.920034 167.204851 
L 394.046902 159.377013 
L 394.17377 158.619139 
L 394.300637 165.690064 
L 394.554373 185.387093 
L 394.808108 152.558071 
L 395.061844 174.780706 
L 395.315579 141.194771 
L 395.569315 169.225527 
L 395.82305 144.477289 
L 395.949918 148.517679 
L 396.330521 189.17454 
L 396.584257 168.467653 
L 396.711124 169.730457 
L 396.837992 173.770847 
L 396.96486 170.487368 
L 397.218595 155.84155 
L 397.472331 153.820874 
L 397.599199 141.447716 
L 397.726066 150.033428 
L 397.852934 175.033651 
L 397.979802 163.669388 
L 398.10667 117.96228 
L 398.233537 115.942566 
L 398.360405 129.831471 
L 398.487273 122.002672 
L 398.487273 122.002672 
" clip-path="url(#p5eebb6150f)" style="fill: none; stroke: #1f77b4; stroke-width: 1.5; stroke-linecap: square"/>
   </g>
   <g id="patch_3">
    <path d="M 57.6 307.584 
L 57.6 41.472 
" style="fill: none; stroke: #000000; stroke-width: 0.8; stroke-linejoin: miter; stroke-linecap: square"/>
   </g>
   <g id="patch_4">
    <path d="M 414.72 307.584 
L 414.72 41.472 
" style="fill: none; stroke: #000000; stroke-width: 0.8; stroke-linejoin: miter; stroke-linecap: square"/>
   </g>
   <g id="patch_5">
    <path d="M 57.6 307.584 
L 414.72 307.584 
" style="fill: none; stroke: #000000; stroke-width: 0.8; stroke-linejoin: miter; stroke-linecap: square"/>
   </g>
   <g id="patch_6">
    <path d="M 57.6 41.472 
L 414.72 41.472 
" style="fill: none; stroke: #000000; stroke-width: 0.8; stroke-linejoin: miter; stroke-linecap: square"/>
   </g>
   <g id="legend_1">
    <g id="patch_7">
     <path d="M 64.6 64.150125 
L 118.245312 64.150125 
Q 120.245312 64.150125 120.245312 62.150125 
L 120.245312 48.472 
Q 120.245312 46.472 118.245312 46.472 
L 64.6 46.472 
Q 62.6 46.472 62.6 48.472 
L 62.6 62.150125 
Q 62.6 64.150125 64.6 64.150125 
z
" style="fill: #ffffff; opacity: 0.8; stroke: #cccccc; stroke-linejoin: miter"/>
    </g>
    <g id="line2d_15">
     <path d="M 66.6 54.570438 
L 76.6 54.570438 
L 86.6 54.570438 
" style="fill: none; stroke: #1f77b4; stroke-width: 1.5; stroke-linecap: square"/>
    </g>
    <g id="text_14">
     <!-- set2 -->
     <g transform="translate(94.6 58.070438)scale(0.1 -0.1)">
      <defs>
       <path id="DejaVuSans-73" d="M 2834 3397 
L 2834 2853 
Q 2591 2978 2328 3040 
Q 2066 3103 1784 3103 
Q 1356 3103 1142 2972 
Q 928 2841 928 2578 
Q 928 2378 1081 2264 
Q 1234 2150 1697 2047 
L 1894 2003 
Q 2506 1872 2764 1633 
Q 3022 1394 3022 966 
Q 3022 478 2636 193 
Q 2250 -91 1575 -91 
Q 1294 -91 989 -36 
Q 684 19 347 128 
L 347 722 
Q 666 556 975 473 
Q 1284 391 1588 391 
Q 1994 391 2212 530 
Q 2431 669 2431 922 
Q 2431 1156 2273 1281 
Q 2116 1406 1581 1522 
L 1381 1569 
Q 847 1681 609 1914 
Q 372 2147 372 2553 
Q 372 3047 722 3315 
Q 1072 3584 1716 3584 
Q 2034 3584 2315 3537 
Q 2597 3491 2834 3397 
z
" transform="scale(0.015625)"/>
       <path id="DejaVuSans-65" d="M 3597 1894 
L 3597 1613 
L 953 1613 
Q 991 1019 1311 708 
Q 1631 397 2203 397 
Q 2534 397 2845 478 
Q 3156 559 3463 722 
L 3463 178 
Q 3153 47 2828 -22 
Q 2503 -91 2169 -91 
Q 1331 -91 842 396 
Q 353 884 353 1716 
Q 353 2575 817 3079 
Q 1281 3584 2069 3584 
Q 2775 3584 3186 3129 
Q 3597 2675 3597 1894 
z
M 3022 2063 
Q 3016 2534 2758 2815 
Q 2500 3097 2075 3097 
Q 1594 3097 1305 2825 
Q 1016 2553 972 2059 
L 3022 2063 
z
" transform="scale(0.015625)"/>
       <path id="DejaVuSans-74" d="M 1172 4494 
L 1172 3500 
L 2356 3500 
L 2356 3053 
L 1172 3053 
L 1172 1153 
Q 1172 725 1289 603 
Q 1406 481 1766 481 
L 2356 481 
L 2356 0 
L 1766 0 
Q 1100 0 847 248 
Q 594 497 594 1153 
L 594 3053 
L 172 3053 
L 172 3500 
L 594 3500 
L 594 4494 
L 1172 4494 
z
" transform="scale(0.015625)"/>
      </defs>
      <use xlink:href="#DejaVuSans-73"/>
      <use xlink:href="#DejaVuSans-65" x="52.099609"/>
      <use xlink:href="#DejaVuSans-74" x="113.623047"/>
      <use xlink:href="#DejaVuSans-32" x="152.832031"/>
     </g>
    </g>
   </g>
  </g>
 </g>
 <defs>
  <clipPath id="p5eebb6150f">
   <rect x="57.6" y="41.472" width="357.12" height="266.112"/>
  </clipPath>
 </defs>
</svg>
