<?xml version="1.0" encoding="utf-8" standalone="no"?>
<!DOCTYPE svg PUBLIC "-//W3C//DTD SVG 1.1//EN"
  "http://www.w3.org/Graphics/SVG/1.1/DTD/svg11.dtd">
<svg xmlns:xlink="http://www.w3.org/1999/xlink" width="460.8pt" height="345.6pt" viewBox="0 0 460.8 345.6" xmlns="http://www.w3.org/2000/svg" version="1.1">
 <metadata>
  <rdf:RDF xmlns:dc="http://purl.org/dc/elements/1.1/" xmlns:cc="http://creativecommons.org/ns#" xmlns:rdf="http://www.w3.org/1999/02/22-rdf-syntax-ns#">
   <cc:Work>
    <dc:type rdf:resource="http://purl.org/dc/dcmitype/StillImage"/>
    <dc:date>2022-08-11T15:19:11.319021</dc:date>
    <dc:format>image/svg+xml</dc:format>
    <dc:creator>
     <cc:Agent>
      <dc:title>Matplotlib v3.5.2, https://matplotlib.org/</dc:title>
     </cc:Agent>
    </dc:creator>
   </cc:Work>
  </rdf:RDF>
 </metadata>
 <defs>
  <style type="text/css">*{stroke-linejoin: round; stroke-linecap: butt}</style>
 </defs>
 <g id="figure_1">
  <g id="patch_1">
   <path d="M 0 345.6 
L 460.8 345.6 
L 460.8 0 
L 0 0 
z
" style="fill: #ffffff"/>
  </g>
  <g id="axes_1">
   <g id="patch_2">
    <path d="M 57.6 307.584 
L 414.72 307.584 
L 414.72 41.472 
L 57.6 41.472 
z
" style="fill: #ffffff"/>
   </g>
   <g id="matplotlib.axis_1">
    <g id="xtick_1">
     <g id="line2d_1">
      <defs>
       <path id="mfa3dbc19ab" d="M 0 0 
L 0 3.5 
" style="stroke: #000000; stroke-width: 0.8"/>
      </defs>
      <g>
       <use xlink:href="#mfa3dbc19ab" x="73.832727" y="307.584" style="stroke: #000000; stroke-width: 0.8"/>
      </g>
     </g>
     <g id="text_1">
      <!-- 0 -->
      <g transform="translate(70.651477 322.182437)scale(0.1 -0.1)">
       <defs>
        <path id="DejaVuSans-30" d="M 2034 4250 
Q 1547 4250 1301 3770 
Q 1056 3291 1056 2328 
Q 1056 1369 1301 889 
Q 1547 409 2034 409 
Q 2525 409 2770 889 
Q 3016 1369 3016 2328 
Q 3016 3291 2770 3770 
Q 2525 4250 2034 4250 
z
M 2034 4750 
Q 2819 4750 3233 4129 
Q 3647 3509 3647 2328 
Q 3647 1150 3233 529 
Q 2819 -91 2034 -91 
Q 1250 -91 836 529 
Q 422 1150 422 2328 
Q 422 3509 836 4129 
Q 1250 4750 2034 4750 
z
" transform="scale(0.015625)"/>
       </defs>
       <use xlink:href="#DejaVuSans-30"/>
      </g>
     </g>
    </g>
    <g id="xtick_2">
     <g id="line2d_2">
      <g>
       <use xlink:href="#mfa3dbc19ab" x="137.254205" y="307.584" style="stroke: #000000; stroke-width: 0.8"/>
      </g>
     </g>
     <g id="text_2">
      <!-- 1000 -->
      <g transform="translate(124.529205 322.182437)scale(0.1 -0.1)">
       <defs>
        <path id="DejaVuSans-31" d="M 794 531 
L 1825 531 
L 1825 4091 
L 703 3866 
L 703 4441 
L 1819 4666 
L 2450 4666 
L 2450 531 
L 3481 531 
L 3481 0 
L 794 0 
L 794 531 
z
" transform="scale(0.015625)"/>
       </defs>
       <use xlink:href="#DejaVuSans-31"/>
       <use xlink:href="#DejaVuSans-30" x="63.623047"/>
       <use xlink:href="#DejaVuSans-30" x="127.246094"/>
       <use xlink:href="#DejaVuSans-30" x="190.869141"/>
      </g>
     </g>
    </g>
    <g id="xtick_3">
     <g id="line2d_3">
      <g>
       <use xlink:href="#mfa3dbc19ab" x="200.675683" y="307.584" style="stroke: #000000; stroke-width: 0.8"/>
      </g>
     </g>
     <g id="text_3">
      <!-- 2000 -->
      <g transform="translate(187.950683 322.182437)scale(0.1 -0.1)">
       <defs>
        <path id="DejaVuSans-32" d="M 1228 531 
L 3431 531 
L 3431 0 
L 469 0 
L 469 531 
Q 828 903 1448 1529 
Q 2069 2156 2228 2338 
Q 2531 2678 2651 2914 
Q 2772 3150 2772 3378 
Q 2772 3750 2511 3984 
Q 2250 4219 1831 4219 
Q 1534 4219 1204 4116 
Q 875 4013 500 3803 
L 500 4441 
Q 881 4594 1212 4672 
Q 1544 4750 1819 4750 
Q 2544 4750 2975 4387 
Q 3406 4025 3406 3419 
Q 3406 3131 3298 2873 
Q 3191 2616 2906 2266 
Q 2828 2175 2409 1742 
Q 1991 1309 1228 531 
z
" transform="scale(0.015625)"/>
       </defs>
       <use xlink:href="#DejaVuSans-32"/>
       <use xlink:href="#DejaVuSans-30" x="63.623047"/>
       <use xlink:href="#DejaVuSans-30" x="127.246094"/>
       <use xlink:href="#DejaVuSans-30" x="190.869141"/>
      </g>
     </g>
    </g>
    <g id="xtick_4">
     <g id="line2d_4">
      <g>
       <use xlink:href="#mfa3dbc19ab" x="264.097161" y="307.584" style="stroke: #000000; stroke-width: 0.8"/>
      </g>
     </g>
     <g id="text_4">
      <!-- 3000 -->
      <g transform="translate(251.372161 322.182437)scale(0.1 -0.1)">
       <defs>
        <path id="DejaVuSans-33" d="M 2597 2516 
Q 3050 2419 3304 2112 
Q 3559 1806 3559 1356 
Q 3559 666 3084 287 
Q 2609 -91 1734 -91 
Q 1441 -91 1130 -33 
Q 819 25 488 141 
L 488 750 
Q 750 597 1062 519 
Q 1375 441 1716 441 
Q 2309 441 2620 675 
Q 2931 909 2931 1356 
Q 2931 1769 2642 2001 
Q 2353 2234 1838 2234 
L 1294 2234 
L 1294 2753 
L 1863 2753 
Q 2328 2753 2575 2939 
Q 2822 3125 2822 3475 
Q 2822 3834 2567 4026 
Q 2313 4219 1838 4219 
Q 1578 4219 1281 4162 
Q 984 4106 628 3988 
L 628 4550 
Q 988 4650 1302 4700 
Q 1616 4750 1894 4750 
Q 2613 4750 3031 4423 
Q 3450 4097 3450 3541 
Q 3450 3153 3228 2886 
Q 3006 2619 2597 2516 
z
" transform="scale(0.015625)"/>
       </defs>
       <use xlink:href="#DejaVuSans-33"/>
       <use xlink:href="#DejaVuSans-30" x="63.623047"/>
       <use xlink:href="#DejaVuSans-30" x="127.246094"/>
       <use xlink:href="#DejaVuSans-30" x="190.869141"/>
      </g>
     </g>
    </g>
    <g id="xtick_5">
     <g id="line2d_5">
      <g>
       <use xlink:href="#mfa3dbc19ab" x="327.518639" y="307.584" style="stroke: #000000; stroke-width: 0.8"/>
      </g>
     </g>
     <g id="text_5">
      <!-- 4000 -->
      <g transform="translate(314.793639 322.182437)scale(0.1 -0.1)">
       <defs>
        <path id="DejaVuSans-34" d="M 2419 4116 
L 825 1625 
L 2419 1625 
L 2419 4116 
z
M 2253 4666 
L 3047 4666 
L 3047 1625 
L 3713 1625 
L 3713 1100 
L 3047 1100 
L 3047 0 
L 2419 0 
L 2419 1100 
L 313 1100 
L 313 1709 
L 2253 4666 
z
" transform="scale(0.015625)"/>
       </defs>
       <use xlink:href="#DejaVuSans-34"/>
       <use xlink:href="#DejaVuSans-30" x="63.623047"/>
       <use xlink:href="#DejaVuSans-30" x="127.246094"/>
       <use xlink:href="#DejaVuSans-30" x="190.869141"/>
      </g>
     </g>
    </g>
    <g id="xtick_6">
     <g id="line2d_6">
      <g>
       <use xlink:href="#mfa3dbc19ab" x="390.940117" y="307.584" style="stroke: #000000; stroke-width: 0.8"/>
      </g>
     </g>
     <g id="text_6">
      <!-- 5000 -->
      <g transform="translate(378.215117 322.182437)scale(0.1 -0.1)">
       <defs>
        <path id="DejaVuSans-35" d="M 691 4666 
L 3169 4666 
L 3169 4134 
L 1269 4134 
L 1269 2991 
Q 1406 3038 1543 3061 
Q 1681 3084 1819 3084 
Q 2600 3084 3056 2656 
Q 3513 2228 3513 1497 
Q 3513 744 3044 326 
Q 2575 -91 1722 -91 
Q 1428 -91 1123 -41 
Q 819 9 494 109 
L 494 744 
Q 775 591 1075 516 
Q 1375 441 1709 441 
Q 2250 441 2565 725 
Q 2881 1009 2881 1497 
Q 2881 1984 2565 2268 
Q 2250 2553 1709 2553 
Q 1456 2553 1204 2497 
Q 953 2441 691 2322 
L 691 4666 
z
" transform="scale(0.015625)"/>
       </defs>
       <use xlink:href="#DejaVuSans-35"/>
       <use xlink:href="#DejaVuSans-30" x="63.623047"/>
       <use xlink:href="#DejaVuSans-30" x="127.246094"/>
       <use xlink:href="#DejaVuSans-30" x="190.869141"/>
      </g>
     </g>
    </g>
   </g>
   <g id="matplotlib.axis_2">
    <g id="ytick_1">
     <g id="line2d_7">
      <defs>
       <path id="m94b98fbd58" d="M 0 0 
L -3.5 0 
" style="stroke: #000000; stroke-width: 0.8"/>
      </defs>
      <g>
       <use xlink:href="#m94b98fbd58" x="57.6" y="293.024153" style="stroke: #000000; stroke-width: 0.8"/>
      </g>
     </g>
     <g id="text_7">
      <!-- 3400 -->
      <g transform="translate(25.15 296.823372)scale(0.1 -0.1)">
       <use xlink:href="#DejaVuSans-33"/>
       <use xlink:href="#DejaVuSans-34" x="63.623047"/>
       <use xlink:href="#DejaVuSans-30" x="127.246094"/>
       <use xlink:href="#DejaVuSans-30" x="190.869141"/>
      </g>
     </g>
    </g>
    <g id="ytick_2">
     <g id="line2d_8">
      <g>
       <use xlink:href="#m94b98fbd58" x="57.6" y="250.317896" style="stroke: #000000; stroke-width: 0.8"/>
      </g>
     </g>
     <g id="text_8">
      <!-- 3600 -->
      <g transform="translate(25.15 254.117115)scale(0.1 -0.1)">
       <defs>
        <path id="DejaVuSans-36" d="M 2113 2584 
Q 1688 2584 1439 2293 
Q 1191 2003 1191 1497 
Q 1191 994 1439 701 
Q 1688 409 2113 409 
Q 2538 409 2786 701 
Q 3034 994 3034 1497 
Q 3034 2003 2786 2293 
Q 2538 2584 2113 2584 
z
M 3366 4563 
L 3366 3988 
Q 3128 4100 2886 4159 
Q 2644 4219 2406 4219 
Q 1781 4219 1451 3797 
Q 1122 3375 1075 2522 
Q 1259 2794 1537 2939 
Q 1816 3084 2150 3084 
Q 2853 3084 3261 2657 
Q 3669 2231 3669 1497 
Q 3669 778 3244 343 
Q 2819 -91 2113 -91 
Q 1303 -91 875 529 
Q 447 1150 447 2328 
Q 447 3434 972 4092 
Q 1497 4750 2381 4750 
Q 2619 4750 2861 4703 
Q 3103 4656 3366 4563 
z
" transform="scale(0.015625)"/>
       </defs>
       <use xlink:href="#DejaVuSans-33"/>
       <use xlink:href="#DejaVuSans-36" x="63.623047"/>
       <use xlink:href="#DejaVuSans-30" x="127.246094"/>
       <use xlink:href="#DejaVuSans-30" x="190.869141"/>
      </g>
     </g>
    </g>
    <g id="ytick_3">
     <g id="line2d_9">
      <g>
       <use xlink:href="#m94b98fbd58" x="57.6" y="207.611639" style="stroke: #000000; stroke-width: 0.8"/>
      </g>
     </g>
     <g id="text_9">
      <!-- 3800 -->
      <g transform="translate(25.15 211.410858)scale(0.1 -0.1)">
       <defs>
        <path id="DejaVuSans-38" d="M 2034 2216 
Q 1584 2216 1326 1975 
Q 1069 1734 1069 1313 
Q 1069 891 1326 650 
Q 1584 409 2034 409 
Q 2484 409 2743 651 
Q 3003 894 3003 1313 
Q 3003 1734 2745 1975 
Q 2488 2216 2034 2216 
z
M 1403 2484 
Q 997 2584 770 2862 
Q 544 3141 544 3541 
Q 544 4100 942 4425 
Q 1341 4750 2034 4750 
Q 2731 4750 3128 4425 
Q 3525 4100 3525 3541 
Q 3525 3141 3298 2862 
Q 3072 2584 2669 2484 
Q 3125 2378 3379 2068 
Q 3634 1759 3634 1313 
Q 3634 634 3220 271 
Q 2806 -91 2034 -91 
Q 1263 -91 848 271 
Q 434 634 434 1313 
Q 434 1759 690 2068 
Q 947 2378 1403 2484 
z
M 1172 3481 
Q 1172 3119 1398 2916 
Q 1625 2713 2034 2713 
Q 2441 2713 2670 2916 
Q 2900 3119 2900 3481 
Q 2900 3844 2670 4047 
Q 2441 4250 2034 4250 
Q 1625 4250 1398 4047 
Q 1172 3844 1172 3481 
z
" transform="scale(0.015625)"/>
       </defs>
       <use xlink:href="#DejaVuSans-33"/>
       <use xlink:href="#DejaVuSans-38" x="63.623047"/>
       <use xlink:href="#DejaVuSans-30" x="127.246094"/>
       <use xlink:href="#DejaVuSans-30" x="190.869141"/>
      </g>
     </g>
    </g>
    <g id="ytick_4">
     <g id="line2d_10">
      <g>
       <use xlink:href="#m94b98fbd58" x="57.6" y="164.905381" style="stroke: #000000; stroke-width: 0.8"/>
      </g>
     </g>
     <g id="text_10">
      <!-- 4000 -->
      <g transform="translate(25.15 168.7046)scale(0.1 -0.1)">
       <use xlink:href="#DejaVuSans-34"/>
       <use xlink:href="#DejaVuSans-30" x="63.623047"/>
       <use xlink:href="#DejaVuSans-30" x="127.246094"/>
       <use xlink:href="#DejaVuSans-30" x="190.869141"/>
      </g>
     </g>
    </g>
    <g id="ytick_5">
     <g id="line2d_11">
      <g>
       <use xlink:href="#m94b98fbd58" x="57.6" y="122.199124" style="stroke: #000000; stroke-width: 0.8"/>
      </g>
     </g>
     <g id="text_11">
      <!-- 4200 -->
      <g transform="translate(25.15 125.998343)scale(0.1 -0.1)">
       <use xlink:href="#DejaVuSans-34"/>
       <use xlink:href="#DejaVuSans-32" x="63.623047"/>
       <use xlink:href="#DejaVuSans-30" x="127.246094"/>
       <use xlink:href="#DejaVuSans-30" x="190.869141"/>
      </g>
     </g>
    </g>
    <g id="ytick_6">
     <g id="line2d_12">
      <g>
       <use xlink:href="#m94b98fbd58" x="57.6" y="79.492867" style="stroke: #000000; stroke-width: 0.8"/>
      </g>
     </g>
     <g id="text_12">
      <!-- 4400 -->
      <g transform="translate(25.15 83.292086)scale(0.1 -0.1)">
       <use xlink:href="#DejaVuSans-34"/>
       <use xlink:href="#DejaVuSans-34" x="63.623047"/>
       <use xlink:href="#DejaVuSans-30" x="127.246094"/>
       <use xlink:href="#DejaVuSans-30" x="190.869141"/>
      </g>
     </g>
    </g>
   </g>
   <g id="line2d_13">
    <path d="M 73.832727 116.066981 
L 73.95957 115.026642 
L 74.149835 111.741617 
L 74.213256 112.453319 
L 74.276678 113.055648 
L 74.593785 121.049308 
L 74.657206 122.116965 
L 74.784049 117.791601 
L 74.847471 119.215212 
L 74.910892 121.815852 
L 74.974314 121.049308 
L 75.101157 118.667621 
L 75.228 119.872175 
L 75.354843 125.812683 
L 75.418264 124.909345 
L 75.545107 122.336022 
L 75.608529 123.020406 
L 75.989058 117.87376 
L 76.052479 119.078314 
L 76.1159 122.034909 
L 76.179322 121.323104 
L 76.242743 118.092713 
L 76.306165 118.31177 
L 76.369586 119.625801 
L 76.433008 118.695042 
L 76.496429 118.174873 
L 76.559851 118.612883 
L 76.750115 113.958985 
L 76.94038 120.857672 
L 77.067223 118.065396 
L 77.320909 122.883509 
L 77.38433 122.281284 
L 77.447752 120.228026 
L 77.511173 121.240944 
L 77.638016 125.210457 
L 77.701437 124.498652 
L 77.764859 125.51157 
L 77.82828 124.799868 
L 77.891702 122.664556 
L 77.955123 123.020406 
L 78.018545 124.608233 
L 78.081966 123.896427 
L 78.145388 122.171703 
L 78.272231 125.757944 
L 78.335652 124.936662 
L 78.462495 122.554975 
L 78.525917 123.157304 
L 78.65276 121.51474 
L 78.716181 121.678954 
L 78.779603 121.980067 
L 78.843024 121.405263 
L 78.906446 122.007488 
L 79.160131 132.574576 
L 79.350396 128.331267 
L 79.413817 127.537406 
L 79.54066 123.732212 
L 79.921189 134.134981 
L 80.111454 131.370022 
L 80.174875 132.054406 
L 80.301718 135.394273 
L 80.618825 131.725872 
L 80.682247 132.054406 
L 80.80909 134.928842 
L 80.872511 134.709889 
L 80.999354 134.436093 
L 81.126197 132.492416 
L 81.189619 134.572991 
L 81.25304 134.10756 
L 81.379883 132.109144 
L 81.443305 132.437678 
L 81.506726 131.999668 
L 81.570148 132.656631 
L 81.696991 135.832283 
L 81.760412 135.394273 
L 81.823833 134.655151 
L 81.887255 134.791944 
L 82.014098 275.722645 
L 82.394627 268.194312 
L 82.775156 254.944425 
L 82.901999 256.176296 
L 83.092263 254.889634 
L 83.472792 240.626881 
L 83.726478 238.382039 
L 83.980164 231.045342 
L 84.107007 233.454398 
L 84.23385 224.967885 
L 84.297271 225.104783 
L 84.550957 217.083649 
L 84.614379 217.904931 
L 84.6778 217.740664 
L 84.804643 210.622972 
L 84.868064 211.115721 
L 84.931486 210.376598 
L 85.058329 207.200998 
L 85.12175 207.885382 
L 85.502279 196.16853 
L 85.629122 185.300382 
L 85.692544 185.656233 
L 85.755965 186.066874 
L 85.882808 182.781798 
L 86.263337 169.887761 
L 87.087816 149.657079 
L 87.151238 149.657079 
L 87.468345 141.663314 
L 87.658609 139.938694 
L 87.785452 141.307464 
L 87.975717 135.202637 
L 88.039138 135.750124 
L 88.292824 131.972247 
L 88.356246 131.205807 
L 88.483089 132.273463 
L 88.609932 127.838519 
L 88.673353 128.084893 
L 88.736775 128.878858 
L 88.800196 128.386005 
L 88.927039 125.593729 
L 88.99046 126.004318 
L 89.053882 125.894842 
L 89.561254 114.917165 
L 89.878361 108.429067 
L 90.005204 108.702863 
L 90.132047 142.785709 
L 90.322312 142.156063 
L 90.449154 137.85812 
L 90.766262 145.742304 
L 90.829683 145.632827 
L 91.083369 141.225304 
L 91.210212 144.045001 
L 91.273634 143.223719 
L 91.337055 142.648811 
L 91.463898 144.756807 
L 91.590741 141.718052 
L 91.654163 141.827529 
L 91.844427 142.183484 
L 91.97127 142.758392 
L 92.034691 142.621494 
L 92.161534 144.236637 
L 92.41522 141.581155 
L 92.542063 142.238222 
L 92.668906 140.349284 
L 92.859171 143.524832 
L 92.922592 143.305878 
L 93.112857 141.772791 
L 93.176278 142.539335 
L 93.429964 137.091576 
L 93.810493 127.975417 
L 94.064179 133.614811 
L 94.254443 137.912858 
L 94.444708 143.086821 
L 94.634972 142.81313 
L 94.761815 143.935525 
L 94.825236 143.579674 
L 94.888658 143.798627 
L 94.952079 143.059504 
L 95.078922 139.473263 
L 95.39603 145.961309 
L 95.522873 145.05792 
L 95.649716 150.834212 
L 95.713137 150.615207 
L 95.776559 148.479894 
L 95.83998 149.191647 
L 95.903402 149.602289 
L 96.030245 147.111125 
L 96.157087 149.355914 
L 96.28393 148.370417 
L 96.410773 149.54755 
L 96.664459 145.523299 
L 96.727881 145.550668 
L 96.791302 145.112658 
L 96.918145 141.471678 
L 97.044988 149.492812 
L 97.10841 149.410653 
L 97.362096 145.550668 
L 97.425517 145.906571 
L 97.488939 145.742304 
L 97.615781 141.197883 
L 97.679203 142.183484 
L 97.869467 144.811545 
L 97.932889 144.017684 
L 97.99631 141.909688 
L 98.059732 142.074007 
L 98.123153 142.676232 
L 98.376839 137.666484 
L 98.440261 138.953093 
L 98.567104 144.017684 
L 98.693947 141.827529 
L 98.757368 141.93711 
L 98.884211 144.756807 
L 99.074475 141.581155 
L 99.137897 142.429858 
L 99.26474 145.085289 
L 99.391583 142.840447 
L 99.455004 142.922607 
L 99.518426 142.895185 
L 99.70869 141.718052 
L 99.898955 146.536217 
L 99.962376 148.534632 
L 100.025798 147.795509 
L 100.152641 145.413822 
L 100.216062 145.468561 
L 100.342905 141.444361 
L 100.469748 143.661729 
L 100.533169 141.663314 
L 100.596591 141.718052 
L 100.786855 146.426688 
L 100.850277 147.685981 
L 100.913698 147.439607 
L 101.103963 142.457175 
L 101.230806 144.318797 
L 101.357649 141.444361 
L 101.547913 145.05792 
L 101.674756 144.072422 
L 101.738178 144.565171 
L 101.801599 144.154478 
L 101.928442 140.924192 
L 101.991863 141.033668 
L 102.118706 143.743889 
L 102.245549 147.27534 
L 102.372392 141.581155 
L 102.435814 141.663314 
L 102.499235 142.566756 
L 102.562657 142.320382 
L 102.626078 142.265539 
L 102.6895 142.594073 
L 102.816343 141.85495 
L 102.943186 147.412237 
L 103.006607 150.095089 
L 103.070029 149.465443 
L 103.196872 146.016099 
L 103.260293 146.262474 
L 103.450557 144.181899 
L 103.513979 144.20932 
L 103.704243 145.605458 
L 103.831086 144.756807 
L 103.894508 145.687566 
L 103.957929 145.578037 
L 104.084772 142.621494 
L 104.211615 145.468561 
L 104.275037 145.359032 
L 104.528723 139.172151 
L 104.592144 139.199467 
L 104.655566 140.02075 
L 104.718987 139.555423 
L 104.782408 139.966012 
L 105.036094 145.140027 
L 105.28978 137.556903 
L 105.353202 138.104494 
L 105.670309 146.235105 
L 105.733731 146.043469 
L 105.797152 144.784176 
L 105.860574 145.441191 
L 105.923995 146.317212 
L 106.050838 141.143144 
L 106.11426 141.581155 
L 106.177681 141.690736 
L 106.241102 141.526416 
L 106.304524 72.977452 
L 106.367945 73.169088 
L 106.431367 72.758395 
L 106.55821 68.761564 
L 106.621631 69.117415 
L 106.685053 70.705241 
L 106.748474 70.185071 
L 106.938739 66.023922 
L 107.00216 66.188241 
L 107.382689 70.321969 
L 107.572954 66.023922 
L 107.636375 66.544092 
L 107.763218 66.297718 
L 107.890061 67.03684 
L 107.953482 67.009523 
L 108.016904 66.954785 
L 108.080325 66.653568 
L 108.460854 61.424867 
L 108.524276 61.780718 
L 108.651119 67.748646 
L 108.71454 70.513605 
L 108.777962 69.281734 
L 108.904805 66.461932 
L 109.031648 70.075595 
L 109.095069 69.747061 
L 109.15849 69.555425 
L 109.221912 69.993435 
L 109.348755 71.444364 
L 109.412176 69.91138 
L 109.475598 70.23981 
L 109.539019 73.388041 
L 109.602441 73.251143 
L 109.665862 69.966119 
L 109.729284 70.212493 
L 109.919548 74.483118 
L 110.046391 77.905041 
L 110.236656 75.386456 
L 110.300077 75.523354 
L 110.42692 73.333303 
L 110.617184 77.603928 
L 110.680606 76.59101 
L 110.807449 75.167503 
L 110.934292 73.55236 
L 110.997713 73.853472 
L 111.124556 72.59418 
L 111.251399 73.90821 
L 111.314821 72.758395 
L 111.378242 73.360724 
L 111.505085 76.235159 
L 111.568507 75.63283 
L 111.69535 76.536272 
L 112.012457 83.434959 
L 112.075878 82.558938 
L 112.1393 79.657082 
L 112.202721 80.505785 
L 112.329564 83.325482 
L 112.392986 83.544435 
L 112.456407 85.62501 
L 112.519829 84.721673 
L 112.58325 81.98403 
L 112.646672 82.860051 
L 112.710093 84.913309 
L 112.773515 84.475298 
L 112.900358 80.861636 
L 113.027201 86.364237 
L 113.090622 84.85857 
L 113.344308 79.38339 
L 113.471151 82.394724 
L 113.534572 82.203088 
L 113.661415 80.615262 
L 113.915101 85.570272 
L 113.978523 85.707169 
L 114.105366 84.228924 
L 114.359052 87.212836 
L 114.422473 169.641386 
L 114.485895 168.984371 
L 114.612738 164.686376 
L 114.676159 164.878012 
L 114.803002 163.728197 
L 115.246952 167.861976 
L 115.437217 163.646089 
L 115.500638 164.275735 
L 115.56406 164.440002 
L 115.690903 161.538145 
L 115.754324 161.620305 
L 115.944589 164.659007 
L 116.071432 163.700827 
L 116.198275 163.755618 
L 116.325117 161.154873 
L 116.388539 161.291771 
L 116.45196 160.908499 
L 116.642225 158.088802 
L 116.705646 159.594468 
L 116.832489 155.898751 
L 116.895911 156.282023 
L 116.959332 157.349679 
L 117.27644 150.259304 
L 117.339861 148.808428 
L 117.466704 152.860048 
L 117.530126 152.148243 
L 117.656969 150.916319 
L 117.72039 150.779474 
L 117.783811 150.834212 
L 117.910654 152.641043 
L 118.037497 147.822879 
L 118.100919 149.10954 
L 118.227762 152.367248 
L 118.291183 151.272222 
L 118.418026 152.914786 
L 118.544869 149.328545 
L 118.671712 150.533099 
L 118.798555 147.904986 
L 118.861977 149.301176 
L 118.925398 148.781006 
L 119.052241 146.727853 
L 119.179084 147.932407 
L 119.43277 144.838914 
L 119.496191 145.714935 
L 119.749877 152.668412 
L 119.940142 148.67153 
L 120.003563 149.246438 
L 120.130406 147.33013 
L 120.193828 147.877617 
L 120.320671 149.793925 
L 120.384092 149.219069 
L 120.510935 150.50573 
L 120.637778 148.315627 
L 120.701199 148.67153 
L 120.891464 151.491227 
L 121.018307 147.33013 
L 121.081728 148.151412 
L 121.208571 144.921022 
L 121.271993 145.906571 
L 121.525679 148.726268 
L 121.652522 149.301176 
L 121.715943 148.890535 
L 121.906208 144.756807 
L 121.969629 145.194817 
L 122.03305 144.619909 
L 122.096472 142.484596 
L 122.159893 142.621494 
L 122.286736 146.262474 
L 122.413579 144.784176 
L 122.477001 145.194817 
L 122.540422 112.91875 
L 122.603844 113.685294 
L 122.667265 115.108801 
L 122.730687 114.31494 
L 122.794108 112.672376 
L 122.85753 112.727114 
L 122.920951 112.754431 
L 123.047794 111.467821 
L 123.111216 111.686775 
L 123.364902 105.937903 
L 123.428323 106.211699 
L 123.682009 110.12637 
L 123.74543 109.825257 
L 123.872273 107.772104 
L 123.935695 108.237431 
L 124.062538 105.144042 
L 124.125959 105.280836 
L 124.189381 105.746267 
L 124.316224 109.962155 
L 124.379645 109.743098 
L 124.506488 108.045795 
L 124.56991 108.264852 
L 124.696753 113.055648 
L 124.760174 111.166709 
L 124.823596 108.976658 
L 124.950438 111.358345 
L 125.01386 109.113451 
L 125.077281 110.016893 
L 125.204124 112.426002 
L 125.267546 112.070047 
L 125.394389 110.071631 
L 125.45781 111.00239 
L 125.521232 110.920335 
L 125.584653 111.084549 
L 125.774918 113.438815 
L 125.838339 113.603134 
L 125.965182 110.865492 
L 126.092025 112.04273 
L 126.218868 105.883165 
L 126.28229 106.9234 
L 126.409132 112.699693 
L 126.72624 104.459554 
L 126.789661 104.897564 
L 127.17019 109.578883 
L 127.297033 108.292169 
L 127.423876 109.332509 
L 127.487298 108.976658 
L 127.550719 109.113451 
L 127.740984 112.590216 
L 127.804405 112.343842 
L 127.867826 112.699693 
L 128.058091 114.971903 
L 128.121512 115.218278 
L 128.311777 119.26995 
L 128.375198 119.023576 
L 128.43862 117.682124 
L 128.502041 118.092713 
L 128.819149 122.253862 
L 128.88257 121.377842 
L 128.945992 122.199124 
L 129.072835 126.004318 
L 129.136256 125.785365 
L 129.199677 124.909345 
L 129.263099 125.347355 
L 129.389942 129.809617 
L 129.453363 128.632484 
L 129.516785 129.26213 
L 129.643628 132.574576 
L 129.707049 132.054406 
L 129.770471 133.888607 
L 129.833892 133.833868 
L 129.897314 131.397443 
L 129.960735 132.355519 
L 130.024157 135.722807 
L 130.087578 135.147899 
L 130.151 132.027089 
L 130.214421 132.38294 
L 130.341264 135.777545 
L 130.404686 134.080243 
L 130.468107 134.326617 
L 130.848636 139.445842 
L 131.0389 134.791944 
L 131.102322 136.051237 
L 131.356008 139.58274 
L 131.419429 139.719637 
L 131.673115 137.639063 
L 131.86338 141.526416 
L 131.926801 140.568341 
L 131.990223 140.595658 
L 132.053644 140.431443 
L 132.180487 138.679402 
L 132.30733 139.719637 
L 132.370751 139.089991 
L 132.434173 139.500684 
L 132.497594 140.951508 
L 132.561016 140.89677 
L 132.624437 139.719637 
L 132.687859 139.911273 
L 132.75128 140.89677 
L 132.814702 140.705134 
L 132.941545 138.925776 
L 133.004966 141.170566 
L 133.068388 140.924192 
L 133.131809 139.007831 
L 133.195231 139.199467 
L 133.322074 138.73414 
L 133.448917 141.745474 
L 133.575759 138.29613 
L 133.639181 138.953093 
L 133.702602 138.350868 
L 133.766024 138.761457 
L 133.829445 138.843617 
L 134.273396 128.249212 
L 134.46366 129.645298 
L 134.590503 132.82095 
L 134.653925 131.808032 
L 134.717346 132.957848 
L 134.971032 141.772791 
L 135.034453 142.402437 
L 135.097875 142.128746 
L 135.224718 142.621494 
L 135.351561 143.68915 
L 135.668668 137.994913 
L 135.795511 138.186549 
L 135.985776 142.046586 
L 136.112619 141.909688 
L 136.302883 145.879202 
L 136.366304 144.510381 
L 136.429726 145.331663 
L 136.493147 145.05792 
L 136.61999 142.29296 
L 136.810255 144.838914 
L 136.873676 146.043469 
L 137.000519 144.619909 
L 137.063941 144.565171 
L 137.190784 141.964427 
L 137.254205 142.840447 
L 137.317627 142.238222 
L 137.507891 140.075488 
L 137.698156 146.45411 
L 137.951841 141.41694 
L 138.142106 140.349284 
L 138.205527 140.130226 
L 138.268949 140.431443 
L 138.395792 138.378185 
L 138.459213 138.925776 
L 138.586056 137.201053 
L 138.649478 138.104494 
L 138.712899 138.843617 
L 138.776321 142.977345 
L 138.839742 142.074007 
L 138.966585 138.761457 
L 139.093428 142.37512 
L 139.15685 142.101324 
L 139.220271 142.29296 
L 139.347114 141.772791 
L 139.473957 146.481479 
L 139.537378 145.906571 
L 139.664221 143.798627 
L 139.854486 145.988678 
L 140.04475 143.77131 
L 140.108172 144.291376 
L 140.171593 145.167448 
L 140.298436 143.716468 
L 140.552122 148.808428 
L 140.678965 144.866284 
L 140.805808 146.508848 
L 140.932651 140.677817 
L 140.996072 141.882371 
L 141.059494 143.278457 
L 141.186337 141.827529 
L 141.31318 145.906571 
L 141.376601 145.112658 
L 141.440023 145.304294 
L 141.503444 145.605458 
L 141.693709 138.515083 
L 141.75713 140.048171 
L 141.820552 141.718052 
L 141.947395 137.803382 
L 142.074238 141.33478 
L 142.20108 138.871038 
L 142.264502 139.281627 
L 142.327923 138.898355 
L 142.391345 139.007831 
L 142.454766 138.871038 
L 142.581609 137.33795 
L 142.708452 140.349284 
L 142.835295 142.840447 
L 143.02556 138.077073 
L 143.088981 139.391103 
L 143.215824 142.210801 
L 143.279246 141.553838 
L 143.342667 141.745474 
L 143.406089 141.581155 
L 143.46951 141.93711 
L 143.659774 146.946858 
L 143.850039 141.882371 
L 143.91346 142.37512 
L 143.976882 142.238222 
L 144.103725 140.759873 
L 144.167146 141.33478 
L 144.230568 143.415355 
L 144.293989 142.758392 
L 144.357411 141.362202 
L 144.484254 144.236637 
L 144.611097 140.54092 
L 144.674518 141.115828 
L 144.73794 141.882371 
L 144.991625 138.843617 
L 145.118468 135.50375 
L 145.18189 137.255791 
L 145.245311 136.160817 
L 145.308733 134.98358 
L 145.62584 142.539335 
L 145.879526 136.325032 
L 145.942948 135.887022 
L 146.260055 142.019165 
L 146.323477 142.594073 
L 146.450319 145.605458 
L 146.513741 145.140027 
L 146.704005 139.938694 
L 146.830848 140.924192 
L 146.89427 156.747402 
L 146.957691 156.555766 
L 147.147956 155.323843 
L 147.33822 156.829509 
L 147.401642 156.692664 
L 147.528485 154.885832 
L 147.591906 154.940571 
L 147.845592 160.634756 
L 147.909013 160.634756 
L 147.972435 160.963289 
L 148.099278 157.212781 
L 148.162699 157.486525 
L 148.226121 156.747402 
L 148.289542 154.639458 
L 148.352964 154.940571 
L 148.416385 156.665242 
L 148.479807 156.473659 
L 148.543228 155.816591 
L 148.60665 156.008227 
L 148.670071 155.980858 
L 148.923757 153.298058 
L 149.114022 151.956607 
L 149.177443 152.668412 
L 149.304286 158.472074 
L 149.367707 157.075884 
L 149.431129 154.009812 
L 149.49455 154.228817 
L 149.621393 157.596053 
L 149.748236 155.761853 
L 149.811658 156.473659 
L 149.875079 156.282023 
L 150.001922 153.900283 
L 150.065344 154.310924 
L 150.128765 155.953489 
L 150.192187 155.214366 
L 150.255608 153.380166 
L 150.31903 153.955074 
L 150.636137 159.703997 
L 151.016666 155.296474 
L 151.080087 155.323843 
L 151.20693 159.01956 
L 151.270352 158.718448 
L 151.650881 154.776356 
L 151.714302 153.024263 
L 151.777724 154.228817 
L 151.841145 154.58472 
L 151.904567 153.024263 
L 151.967988 153.298058 
L 152.094831 155.269104 
L 152.221674 153.298058 
L 152.285095 153.352797 
L 152.411938 158.253069 
L 152.47536 158.2257 
L 152.538781 157.815058 
L 152.602203 159.183827 
L 152.665624 158.745817 
L 152.792467 155.241735 
L 153.046153 158.006694 
L 153.490104 151.655494 
L 153.616946 155.132207 
L 153.680368 154.310924 
L 153.743789 154.748935 
L 153.807211 156.501028 
L 153.934054 151.983976 
L 153.997475 152.120873 
L 154.060897 153.955074 
L 154.124318 153.325428 
L 154.314583 150.01293 
L 154.504847 152.558884 
L 154.695112 149.54755 
L 154.758533 150.149827 
L 154.821955 150.669945 
L 154.948798 150.095089 
L 155.012219 111.823672 
L 155.07564 112.617638 
L 155.265905 108.675441 
L 155.329326 108.867077 
L 155.456169 109.770519 
L 155.773277 115.765764 
L 155.836698 116.121719 
L 155.963541 112.946067 
L 156.026963 113.219862 
L 156.153806 116.504991 
L 156.217227 115.245699 
L 156.280649 115.355175 
L 156.34407 115.218278 
L 156.407492 115.683709 
L 156.597756 119.543642 
L 156.78802 117.025057 
L 156.914863 118.585566 
L 157.168549 114.725529 
L 157.358814 119.434165 
L 157.485657 115.765764 
L 157.6125 119.105631 
L 157.929607 114.095883 
L 157.993028 114.889744 
L 158.119871 119.461586 
L 158.246714 118.065396 
L 158.5004 122.062226 
L 158.627243 118.339087 
L 158.754086 122.801349 
L 158.817508 122.554975 
L 158.880929 121.651637 
L 158.944351 121.87059 
L 159.007772 122.500237 
L 159.071194 121.815852 
L 159.134615 119.899597 
L 159.198037 120.145971 
L 159.261458 121.925329 
L 159.32488 121.460001 
L 159.388301 121.706376 
L 159.515144 124.170222 
L 159.641987 121.898012 
L 159.705408 122.39076 
L 159.76883 122.281284 
L 160.022516 120.447083 
L 160.085937 120.501822 
L 160.339623 129.398924 
L 160.403045 127.400509 
L 160.593309 125.100981 
L 160.656731 123.814267 
L 160.720152 124.060641 
L 160.846995 125.757944 
L 160.910416 125.675889 
L 161.100681 131.588975 
L 161.164102 130.411842 
L 161.227524 128.331267 
L 161.290945 129.179971 
L 161.417788 132.109144 
L 161.48121 132.054406 
L 161.608053 129.371607 
L 161.671474 131.178386 
L 161.734896 130.384525 
L 161.798317 128.659801 
L 161.92516 132.437678 
L 161.988582 131.725872 
L 162.052003 131.42476 
L 162.178846 132.273463 
L 162.242267 132.218621 
L 162.305689 131.753294 
L 162.36911 132.027089 
L 162.432532 131.917508 
L 162.495953 131.999668 
L 162.559375 132.081828 
L 162.686218 129.481083 
L 162.813061 133.669549 
L 162.876482 135.777545 
L 162.939904 134.627729 
L 163.003325 132.081828 
L 163.066747 132.738791 
L 163.19359 251.768825 
L 163.320433 249.578773 
L 163.383854 249.742988 
L 163.447276 249.578773 
L 163.954647 238.327301 
L 164.018069 239.175953 
L 164.144912 237.068009 
L 164.271755 239.312798 
L 164.398598 232.742645 
L 164.462019 233.180655 
L 164.525441 234.111414 
L 164.588862 233.919778 
L 164.90597 230.552541 
L 165.096234 225.132152 
L 165.286498 226.58308 
L 165.667027 216.454003 
L 165.730449 216.673008 
L 165.857292 218.096567 
L 165.984135 215.550613 
L 166.047556 216.125521 
L 166.110978 215.687511 
L 166.237821 213.689044 
L 166.301242 214.127106 
L 166.428085 212.046531 
L 166.808614 200.055937 
L 166.935457 200.959326 
L 166.998878 200.138044 
L 167.379407 186.806049 
L 167.50625 187.873705 
L 167.633093 187.408274 
L 167.823358 179.934679 
L 167.886779 180.34532 
L 167.950201 180.974966 
L 168.267308 174.733295 
L 168.330729 174.897561 
L 168.394151 174.541659 
L 168.520994 169.96992 
L 168.584415 170.271033 
L 168.77468 167.259699 
L 168.964944 168.984371 
L 169.091787 165.124387 
L 169.155209 165.261284 
L 169.21863 165.83614 
L 169.345473 163.372346 
L 169.408894 163.563982 
L 169.472316 163.673458 
L 169.535737 163.372346 
L 169.66258 163.947254 
L 170.423638 154.201448 
L 170.550481 151.710232 
L 170.613903 151.737601 
L 170.740746 148.096622 
L 170.804167 148.589423 
L 170.867588 148.260889 
L 171.121274 142.183484 
L 171.184696 142.046586 
L 171.248117 146.289843 
L 171.311539 146.262474 
L 171.501803 144.346114 
L 171.628646 141.4991 
L 171.945754 147.521766 
L 172.009175 147.138494 
L 172.19944 144.537802 
L 172.262861 144.537802 
L 172.389704 147.111125 
L 172.516547 144.455642 
L 172.64339 146.098207 
L 172.770233 143.935525 
L 172.833654 144.236637 
L 172.960497 145.331663 
L 173.023919 145.276925 
L 173.277605 147.795509 
L 173.341026 147.439607 
L 173.531291 145.05792 
L 173.594712 144.729438 
L 173.658134 145.085289 
L 173.721555 144.647278 
L 173.848398 142.758392 
L 174.102084 145.769673 
L 174.228927 142.539335 
L 174.292348 143.360617 
L 174.35577 145.249555 
L 174.419191 144.619909 
L 174.546034 141.745474 
L 174.736299 142.81313 
L 174.989985 143.990263 
L 175.053406 144.59254 
L 175.180249 147.904986 
L 175.24367 147.549135 
L 175.307092 146.700484 
L 175.370513 147.083756 
L 175.497356 148.562001 
L 175.560778 147.795509 
L 175.624199 147.959776 
L 175.687621 148.781006 
L 175.814464 146.426688 
L 176.004728 184.232726 
L 176.131571 181.248762 
L 176.194993 181.084495 
L 176.258414 181.3035 
L 176.321836 181.166602 
L 176.385257 180.619116 
L 176.5121 184.533838 
L 176.575521 183.329284 
L 176.638943 180.947597 
L 176.702364 181.166602 
L 176.829207 184.86232 
L 176.95605 183.219808 
L 177.019472 184.013669 
L 177.209736 179.852572 
L 177.273158 180.974966 
L 177.336579 180.892859 
L 177.463422 180.153684 
L 177.526844 180.126315 
L 177.653687 181.850987 
L 177.970794 173.775167 
L 178.034215 172.981254 
L 178.097637 173.145521 
L 178.287901 174.9523 
L 178.478166 171.940966 
L 178.541587 173.638269 
L 178.605009 172.899094 
L 178.795273 164.795853 
L 178.858695 164.878012 
L 179.048959 166.602684 
L 179.239224 161.620305 
L 179.302645 162.249951 
L 179.366067 138.268709 
L 179.429488 139.226889 
L 179.556331 136.106079 
L 179.619752 137.228474 
L 179.746595 141.663314 
L 179.93686 138.651981 
L 180.063703 141.800212 
L 180.127124 141.581155 
L 180.253967 139.117412 
L 180.317389 139.966012 
L 180.444232 141.991848 
L 180.634496 138.871038 
L 180.761339 139.254206 
L 180.888182 138.29613 
L 181.141868 144.921022 
L 181.268711 141.608576 
L 181.332132 142.019165 
L 181.395554 141.252725 
L 181.522397 138.569821 
L 181.64924 141.143144 
L 181.712661 139.199467 
L 181.776083 140.048171 
L 181.902926 145.03055 
L 182.283455 139.747058 
L 182.346876 140.759873 
L 182.410297 141.307464 
L 182.53714 139.692216 
L 182.663983 142.429858 
L 182.727405 142.128746 
L 182.854248 142.156063 
L 183.107934 140.842032 
L 183.171355 140.869453 
L 183.425041 143.196402 
L 183.615306 138.898355 
L 184.059256 142.484596 
L 184.186099 147.631243 
L 184.24952 146.919489 
L 184.376363 143.25114 
L 184.439785 143.716468 
L 184.503206 143.579674 
L 184.630049 142.128746 
L 184.693471 142.29296 
L 184.820314 145.523299 
L 185.010578 141.909688 
L 185.074 142.074007 
L 185.137421 141.964427 
L 185.264264 141.225304 
L 185.391107 142.101324 
L 185.454528 141.991848 
L 185.51795 142.265539 
L 185.708214 138.104494 
L 185.898479 138.241392 
L 186.025322 142.101324 
L 186.088743 141.882371 
L 186.152165 142.101324 
L 186.215586 143.470093 
L 186.279008 142.950028 
L 186.532694 137.748539 
L 186.596115 138.706719 
L 186.722958 142.512018 
L 186.786379 141.909688 
L 186.849801 142.019165 
L 186.913222 142.101324 
L 186.976644 141.608576 
L 187.103487 144.045001 
L 187.23033 141.635997 
L 187.293751 141.772791 
L 187.357173 141.882371 
L 187.420594 142.402437 
L 187.484016 91.428724 
L 187.547437 91.592938 
L 187.610859 91.866734 
L 187.737702 87.815061 
L 187.801123 89.156513 
L 187.864545 91.237088 
L 187.927966 90.032533 
L 188.11823 85.542955 
L 188.181652 85.761908 
L 188.308495 87.322313 
L 188.371916 86.774826 
L 188.435338 87.075938 
L 188.562181 89.402887 
L 188.625602 88.554288 
L 188.752445 85.707169 
L 188.94271 86.418975 
L 189.006131 86.391554 
L 189.132974 85.241738 
L 189.196396 85.378636 
L 189.323239 83.188585 
L 189.450082 85.022785 
L 189.576924 80.697421 
L 189.640346 81.409122 
L 189.703767 81.765077 
L 189.767189 80.724738 
L 189.894032 85.898805 
L 189.957453 84.968047 
L 190.020875 83.216006 
L 190.084296 83.927707 
L 190.147718 84.256241 
L 190.211139 83.90039 
L 190.528247 87.130677 
L 190.65509 84.968047 
L 190.718511 86.254656 
L 190.781933 85.597693 
L 190.845354 83.489697 
L 190.908776 84.009867 
L 191.035618 88.93756 
L 191.09904 88.335231 
L 191.225883 91.948893 
L 191.289304 91.510883 
L 191.416147 88.088857 
L 191.479569 88.307914 
L 191.606412 88.253176 
L 191.669833 88.116278 
L 191.860098 91.5382 
L 192.177205 86.884302 
L 192.240627 86.829564 
L 192.304048 86.336816 
L 192.367469 86.692666 
L 192.430891 86.802247 
L 192.494312 86.747405 
L 192.621155 88.964877 
L 192.684577 88.581605 
L 192.747998 88.691186 
L 192.81142 89.101775 
L 192.874841 88.034118 
L 192.938263 88.389969 
L 193.128527 92.250006 
L 193.191949 93.071288 
L 193.318792 90.908554 
L 193.382213 92.085687 
L 193.635899 95.535135 
L 193.762742 91.675098 
L 193.826163 92.633278 
L 193.889585 93.919887 
L 193.953006 93.071288 
L 194.079849 91.154928 
L 194.396957 95.836247 
L 194.5238 92.304744 
L 194.587221 92.906969 
L 194.650643 93.728251 
L 194.714064 93.45456 
L 194.840907 92.742754 
L 194.904329 93.043867 
L 195.094593 95.863564 
L 195.158015 96.082621 
L 195.284857 94.33058 
L 195.538543 99.093955 
L 195.665386 132.519838 
L 195.792229 129.481083 
L 195.855651 129.59056 
L 196.045915 130.54874 
L 196.172758 131.86277 
L 196.23618 131.835453 
L 196.426444 135.859601 
L 196.553287 132.054406 
L 196.616709 132.136566 
L 196.68013 134.436093 
L 196.743551 134.244457 
L 196.870394 131.890192 
L 196.997237 132.30078 
L 197.12408 135.804862 
L 197.187502 135.640647 
L 197.314345 134.737206 
L 197.377766 134.98358 
L 197.504609 133.25896 
L 197.758295 130.849852 
L 197.821717 130.98675 
L 197.94856 132.437678 
L 198.075403 130.877273 
L 198.138824 132.054406 
L 198.519353 125.183036 
L 198.646196 128.851437 
L 198.709617 128.413427 
L 198.773039 128.276529 
L 199.026725 130.521318 
L 199.090146 130.302365 
L 199.216989 127.893257 
L 199.407254 132.793529 
L 199.470675 132.027089 
L 199.534097 132.163883 
L 199.597518 132.711474 
L 199.724361 128.687222 
L 199.787782 128.769277 
L 199.851204 129.754879 
L 199.978047 127.893257 
L 200.10489 131.260545 
L 200.231733 128.331267 
L 200.295154 128.74196 
L 200.358576 128.878858 
L 200.421997 128.82412 
L 200.485419 128.632484 
L 200.612262 127.071975 
L 200.739105 129.645298 
L 200.929369 133.286278 
L 201.183055 131.479498 
L 201.246476 131.096226 
L 201.309898 131.260545 
L 201.436741 132.519838 
L 201.500162 132.30078 
L 201.563584 131.780611 
L 201.880691 135.120478 
L 202.070956 136.46193 
L 202.197799 134.600412 
L 202.26122 135.038423 
L 202.388063 133.423175 
L 202.451484 134.162402 
L 202.514906 134.928842 
L 202.578327 134.490832 
L 202.641749 134.709889 
L 202.768592 136.352453 
L 202.832013 136.270294 
L 202.958856 135.722807 
L 203.212542 133.477913 
L 203.275964 132.273463 
L 203.339385 132.684052 
L 203.466228 136.160817 
L 203.52965 135.585909 
L 203.593071 135.558488 
L 203.656493 135.969181 
L 203.719914 201.068803 
L 203.783336 200.986695 
L 203.910178 203.368382 
L 204.037021 200.247572 
L 204.100443 200.931957 
L 204.163864 200.603423 
L 204.290707 197.756357 
L 204.354129 198.303843 
L 204.41755 197.290977 
L 204.544393 193.732105 
L 204.607815 194.224854 
L 204.734658 192.664449 
L 204.861501 194.553387 
L 205.24203 186.587044 
L 205.305451 187.216638 
L 205.432294 186.669151 
L 205.495715 187.764177 
L 205.559137 186.806049 
L 205.68598 183.247177 
L 205.876244 184.698105 
L 206.003087 181.276131 
L 206.066509 182.152151 
L 206.12993 181.495136 
L 206.193352 179.606197 
L 206.256773 179.743043 
L 206.447038 180.838121 
L 206.573881 176.676971 
L 206.637302 177.60773 
L 206.700724 177.552992 
L 206.764145 177.060243 
L 206.827566 177.68989 
L 206.890988 177.60773 
L 206.954409 177.525623 
L 207.017831 177.16972 
L 207.144674 172.926515 
L 207.208095 174.076279 
L 207.271517 172.789618 
L 207.39836 164.96012 
L 207.461781 165.39813 
L 207.588624 168.108351 
L 207.969153 157.924535 
L 208.095996 159.512361 
L 208.159417 159.348094 
L 208.476525 154.14671 
L 208.539946 154.256186 
L 208.983897 149.328545 
L 209.237583 145.605458 
L 209.364426 145.660197 
L 209.427847 145.851833 
L 209.55469 147.71335 
L 209.681533 144.756807 
L 209.744954 145.742304 
L 209.808376 145.714935 
L 209.871797 145.304294 
L 209.935219 145.331663 
L 209.99864 145.49593 
L 210.125483 144.975812 
L 210.188905 145.140027 
L 210.252326 145.906571 
L 210.315748 145.714935 
L 210.442591 143.223719 
L 210.569434 146.043469 
L 210.696277 145.140027 
L 210.759698 145.632827 
L 210.82312 145.468561 
L 211.26707 139.473263 
L 211.393913 135.996498 
L 211.457334 138.268709 
L 211.520756 137.830699 
L 211.647599 135.175216 
L 211.71102 136.023919 
L 211.774442 135.202637 
L 211.837863 143.579674 
L 211.901285 142.621494 
L 212.028128 143.908104 
L 212.218392 140.650396 
L 212.535499 143.880786 
L 212.598921 144.975812 
L 212.852607 141.745474 
L 212.916028 142.238222 
L 213.042871 144.483012 
L 213.359979 140.924192 
L 213.677086 142.37512 
L 213.740508 142.320382 
L 213.803929 141.718052 
L 213.867351 141.827529 
L 213.930772 142.101324 
L 213.994193 142.019165 
L 214.121036 141.389519 
L 214.184458 141.581155 
L 214.247879 142.238222 
L 214.374722 139.473263 
L 214.438144 138.405607 
L 214.628408 142.648811 
L 214.69183 141.225304 
L 214.818673 138.706719 
L 214.945516 139.473263 
L 215.072359 138.542504 
L 215.13578 138.651981 
L 215.389466 134.956263 
L 215.769995 139.336365 
L 215.833416 138.569821 
L 215.896838 138.871038 
L 216.087102 142.347699 
L 216.150524 142.429858 
L 216.277367 145.797094 
L 216.340788 145.167448 
L 216.40421 143.606991 
L 216.467631 144.181899 
L 216.531053 145.194817 
L 216.594474 145.03055 
L 216.721317 142.648811 
L 216.84816 140.513498 
L 216.975003 140.951508 
L 217.101846 142.29296 
L 217.165267 142.429858 
L 217.228689 142.37512 
L 217.29211 141.663314 
L 217.482375 146.235105 
L 217.545796 144.948443 
L 217.672639 145.687566 
L 217.799482 142.210801 
L 217.926325 144.838914 
L 217.989747 144.811545 
L 218.11659 143.880786 
L 218.243432 144.893653 
L 218.370275 141.444361 
L 218.497118 143.524832 
L 218.687383 140.924192 
L 218.877647 145.687566 
L 219.131333 141.581155 
L 219.258176 142.019165 
L 219.385019 138.953093 
L 219.448441 139.309048 
L 219.575284 139.199467 
L 219.638705 140.45876 
L 219.702126 140.239807 
L 219.765548 138.29613 
L 219.828969 138.843617 
L 220.019234 141.471678 
L 220.146077 137.885437 
L 220.209498 138.898355 
L 220.336341 142.512018 
L 220.526606 141.006351 
L 220.590027 141.4991 
L 220.71687 144.674648 
L 220.843713 141.170566 
L 220.907135 142.074007 
L 221.033978 145.386453 
L 221.224242 141.991848 
L 221.287663 142.429858 
L 221.351085 142.238222 
L 221.477928 141.608576 
L 221.541349 142.101324 
L 221.731614 146.262474 
L 221.858457 141.882371 
L 221.921878 142.37512 
L 221.9853 143.278457 
L 222.112143 137.967596 
L 222.175564 139.418525 
L 222.238986 141.006351 
L 222.302407 139.938694 
L 222.365829 139.774376 
L 222.492672 142.81313 
L 222.556093 142.512018 
L 222.619514 142.594073 
L 222.682936 142.37512 
L 222.8732 138.077073 
L 223.000043 140.294545 
L 223.126886 138.405607 
L 223.253729 139.747058 
L 223.317151 138.925776 
L 223.380572 139.089991 
L 223.443994 139.418525 
L 223.507415 139.363787 
L 223.69768 138.980515 
L 223.761101 138.460345 
L 223.824523 138.843617 
L 223.951366 143.141664 
L 224.014787 142.621494 
L 224.14163 139.993433 
L 224.205051 140.349284 
L 224.268473 139.801797 
L 224.331894 140.294545 
L 224.458737 142.156063 
L 224.58558 142.128746 
L 224.649002 141.800212 
L 224.775845 146.673115 
L 224.839266 145.140027 
L 224.966109 141.526416 
L 225.029531 141.608576 
L 225.283217 140.650396 
L 225.410059 142.429858 
L 225.473481 142.183484 
L 225.536902 141.553838 
L 225.600324 141.882371 
L 225.663745 142.621494 
L 225.790588 138.679402 
L 225.85401 139.007831 
L 225.980853 142.128746 
L 226.29796 137.611746 
L 226.361382 137.803382 
L 226.424803 138.651981 
L 226.488225 138.213971 
L 226.551646 137.830699 
L 226.741911 142.539335 
L 226.805332 142.539335 
L 227.059018 138.679402 
L 227.122439 138.679402 
L 227.502968 145.222186 
L 227.56639 144.921022 
L 227.629811 145.167448 
L 227.693233 146.207683 
L 227.820076 141.800212 
L 227.883497 142.539335 
L 227.946919 143.25114 
L 228.01034 142.320382 
L 228.137183 110.016893 
L 228.327447 108.456488 
L 228.45429 110.427482 
L 228.707976 107.744683 
L 228.771398 107.826842 
L 229.025084 112.316421 
L 229.151927 111.714196 
L 229.469034 106.786502 
L 229.595877 108.374329 
L 229.659299 107.936319 
L 230.16667 103.282421 
L 230.293513 102.187447 
L 230.356935 102.762251 
L 230.483778 107.060298 
L 230.610621 104.788088 
L 230.800885 109.003975 
L 230.864307 108.210114 
L 230.927728 107.772104 
L 231.054571 108.867077 
L 231.244835 105.280836 
L 231.371678 107.169775 
L 231.498521 104.733349 
L 231.815629 112.48074 
L 232.259579 108.347012 
L 232.449844 112.590216 
L 232.513265 111.878411 
L 232.576686 111.632036 
L 232.703529 109.031396 
L 232.766951 109.743098 
L 232.893794 106.458073 
L 232.957215 107.607785 
L 233.020637 108.785022 
L 233.084058 107.854159 
L 233.14748 108.045795 
L 233.210901 109.003975 
L 233.274323 108.894499 
L 233.337744 108.894499 
L 233.464587 108.593386 
L 233.718273 114.123304 
L 233.781695 115.273016 
L 233.908538 111.084549 
L 233.971959 111.905832 
L 234.225645 114.999325 
L 234.352488 112.04273 
L 234.479331 114.944586 
L 234.669595 111.467821 
L 234.986703 115.9574 
L 235.050124 115.711026 
L 235.176967 114.342257 
L 235.30381 115.136118 
L 235.494074 111.467821 
L 235.684339 115.409914 
L 235.74776 114.917165 
L 235.874603 112.04273 
L 235.938025 112.508057 
L 236.128289 115.464652 
L 236.191711 126.798284 
L 236.255132 126.579226 
L 236.445397 122.034909 
L 236.508818 122.445498 
L 236.57224 122.39076 
L 236.635661 121.186206 
L 236.762504 125.51157 
L 236.825926 125.210457 
L 236.889347 124.580811 
L 237.079611 128.522903 
L 237.206454 125.100981 
L 237.269876 126.305535 
L 237.333297 125.94958 
L 237.523562 123.020406 
L 237.586983 123.923848 
L 237.777248 128.796699 
L 238.030934 126.059161 
L 238.348041 120.99457 
L 238.411462 121.980067 
L 238.538305 126.798284 
L 238.665148 122.226545 
L 238.791991 126.332852 
L 239.109099 116.368094 
L 239.489628 126.113899 
L 239.616471 125.730627 
L 239.679892 125.94958 
L 239.806735 121.596899 
L 240.060421 128.878858 
L 240.123842 131.068909 
L 240.187264 130.329787 
L 240.314107 127.783781 
L 240.377528 128.084893 
L 240.504371 123.650053 
L 240.567793 124.197539 
L 240.694636 126.113899 
L 240.821479 125.621151 
L 240.948322 127.291032 
L 241.202007 121.323104 
L 241.265429 122.445498 
L 241.455693 131.753294 
L 241.519115 132.163883 
L 241.582536 132.027089 
L 241.709379 128.988335 
L 241.963065 123.102566 
L 242.15333 125.812683 
L 242.280173 134.271879 
L 242.343594 133.039903 
L 242.470437 130.849852 
L 242.533859 131.014171 
L 242.59728 131.890192 
L 242.660701 131.3426 
L 242.724123 129.097811 
L 242.787544 129.782196 
L 242.850966 132.328202 
L 242.914387 132.163883 
L 242.977809 131.94493 
L 243.104652 135.640647 
L 243.168073 135.366852 
L 243.421759 133.998083 
L 243.485181 133.970766 
L 243.548602 134.764627 
L 243.612024 134.737206 
L 243.675445 134.627729 
L 243.802288 135.175216 
L 243.86571 134.299196 
L 243.929131 134.54557 
L 244.055974 139.719637 
L 244.119395 139.144729 
L 244.246238 137.85812 
L 244.373081 211.772736 
L 244.436503 210.869346 
L 244.499924 210.978875 
L 244.563346 210.67771 
L 245.134139 197.181449 
L 245.197561 197.838464 
L 245.324404 201.260439 
L 245.387825 200.630792 
L 245.514668 196.6887 
L 245.704932 190.091126 
L 245.831775 189.43411 
L 245.895197 189.625746 
L 245.958618 188.256925 
L 246.02204 188.284294 
L 246.085461 190.063757 
L 246.339147 183.657818 
L 246.402569 185.081325 
L 246.46599 186.504884 
L 246.592833 181.905777 
L 246.656255 182.973434 
L 246.783098 176.403228 
L 246.846519 176.759131 
L 246.909941 177.552992 
L 246.973362 176.813869 
L 247.036783 177.443515 
L 247.100205 177.22451 
L 247.290469 173.638269 
L 247.353891 173.446633 
L 247.607577 174.979669 
L 247.988106 160.224115 
L 248.051527 161.866679 
L 248.114949 162.66054 
L 248.368634 157.048514 
L 248.558899 150.286725 
L 248.812585 152.558884 
L 249.002849 142.429858 
L 249.066271 142.566756 
L 249.129692 143.634412 
L 249.193114 143.114242 
L 249.256535 142.785709 
L 249.319957 143.68915 
L 249.383378 143.168981 
L 249.637064 138.104494 
L 249.89075 138.980515 
L 249.954171 138.460345 
L 250.081014 141.4991 
L 250.144436 141.252725 
L 250.271279 135.120478 
L 250.3347 135.585909 
L 250.398122 135.585909 
L 250.461543 135.969181 
L 250.588386 138.761457 
L 250.715229 135.668069 
L 250.778651 136.023919 
L 250.842072 136.790463 
L 250.968915 134.080243 
L 251.032337 134.572991 
L 251.286022 135.804862 
L 251.349444 136.626145 
L 251.412865 136.352453 
L 251.60313 132.027089 
L 251.666551 130.46658 
L 251.729973 130.603478 
L 251.856816 131.725872 
L 251.983659 129.043073 
L 252.04708 129.782196 
L 252.364188 122.144386 
L 252.491031 150.149827 
L 252.617874 149.164278 
L 252.808138 144.756807 
L 252.934981 148.835797 
L 252.998402 148.370417 
L 253.061824 148.288258 
L 253.188667 149.602289 
L 253.378931 144.948443 
L 253.442353 145.167448 
L 253.505774 145.714935 
L 253.569196 145.660197 
L 253.696039 142.539335 
L 253.822882 145.550668 
L 253.886303 145.05792 
L 254.076568 143.032083 
L 254.139989 142.867868 
L 254.20341 142.019165 
L 254.330253 145.660197 
L 254.393675 145.550668 
L 254.583939 142.81313 
L 254.647361 144.017684 
L 254.774204 141.4991 
L 254.837625 141.827529 
L 254.964468 141.635997 
L 255.091311 142.785709 
L 255.154733 142.238222 
L 255.281576 145.961309 
L 255.344997 144.647278 
L 255.598683 137.721222 
L 255.662104 136.954678 
L 255.852369 141.41694 
L 256.042633 142.512018 
L 256.106055 142.019165 
L 256.169476 142.922607 
L 256.296319 146.016099 
L 256.486584 138.186549 
L 256.613427 138.350868 
L 256.867113 144.455642 
L 256.930534 144.483012 
L 256.993955 144.017684 
L 257.057377 144.346114 
L 257.18422 145.961309 
L 257.374484 141.33478 
L 257.437906 141.389519 
L 257.501327 141.526416 
L 257.755013 149.684448 
L 257.818435 147.822879 
L 257.881856 144.866284 
L 257.945278 145.003181 
L 258.008699 146.536217 
L 258.135542 142.922607 
L 258.198964 143.442776 
L 258.262385 145.112658 
L 258.389228 142.074007 
L 258.516071 145.331663 
L 258.579492 145.05792 
L 258.706335 145.660197 
L 258.769757 144.510381 
L 258.8966 138.104494 
L 258.960021 139.473263 
L 259.150286 142.867868 
L 259.277129 139.254206 
L 259.403972 143.360617 
L 259.467393 142.840447 
L 259.657658 139.309048 
L 259.721079 139.391103 
L 259.847922 139.473263 
L 259.911343 139.117412 
L 260.101608 135.284797 
L 260.165029 135.449012 
L 260.228451 137.392689 
L 260.355294 131.780611 
L 260.418715 134.21714 
L 260.60898 142.320382 
L 260.735823 138.350868 
L 260.799244 138.679402 
L 260.926087 142.950028 
L 261.116352 140.212386 
L 261.243195 142.402437 
L 261.49688 140.787294 
L 261.623723 142.950028 
L 261.813988 142.156063 
L 261.940831 141.93711 
L 262.004252 141.909688 
L 262.32136 146.180314 
L 262.448203 142.128746 
L 262.511624 142.37512 
L 262.575046 142.347699 
L 262.701889 139.007831 
L 262.828731 142.922607 
L 262.955574 138.679402 
L 263.145839 145.140027 
L 263.20926 145.632827 
L 263.272682 144.948443 
L 263.462946 138.73414 
L 263.589789 140.787294 
L 263.716632 137.33795 
L 263.906897 141.800212 
L 264.03374 138.350868 
L 264.097161 138.980515 
L 264.160583 139.336365 
L 264.414268 137.611746 
L 264.47769 138.405607 
L 264.604533 141.307464 
L 264.794797 137.967596 
L 264.858219 138.816195 
L 264.92164 138.706719 
L 264.985062 138.241392 
L 265.111905 140.349284 
L 265.238748 138.077073 
L 265.429012 144.647278 
L 265.555855 141.581155 
L 265.619276 142.101324 
L 265.682698 141.991848 
L 265.809541 138.925776 
L 265.872962 137.310529 
L 265.999805 140.294545 
L 266.063227 139.035253 
L 266.126648 137.556903 
L 266.19007 138.022335 
L 266.380334 139.966012 
L 266.507177 138.241392 
L 266.63402 140.97893 
L 266.697442 140.212386 
L 266.887706 134.928842 
L 267.141392 138.077073 
L 267.395078 143.114242 
L 267.648764 138.405607 
L 267.712185 138.679402 
L 267.839028 142.621494 
L 267.965871 141.362202 
L 268.029293 142.484596 
L 268.156136 139.555423 
L 268.282979 143.552253 
L 268.409822 138.898355 
L 268.536664 144.866284 
L 268.600086 144.756807 
L 268.726929 109.551462 
L 268.917193 105.554632 
L 269.107458 107.470991 
L 269.234301 109.031396 
L 269.361144 106.184278 
L 269.551408 112.727114 
L 269.678251 111.385662 
L 269.805094 112.562795 
L 269.931937 107.498308 
L 269.995358 108.73018 
L 270.05878 109.633621 
L 270.122201 108.40175 
L 270.185623 108.83976 
L 270.312466 112.316421 
L 270.439309 108.347012 
L 270.50273 108.374329 
L 270.566152 108.538648 
L 270.629573 108.073216 
L 270.756416 104.541713 
L 270.819838 105.061883 
L 270.946681 104.514396 
L 271.073524 109.852678 
L 271.136945 108.538648 
L 271.200367 106.458073 
L 271.263788 106.896083 
L 271.390631 108.648124 
L 271.454052 108.483805 
L 271.517474 107.799421 
L 271.580895 108.127955 
L 271.644317 109.496723 
L 271.707738 108.785022 
L 271.834581 105.60937 
L 271.898003 105.773689 
L 272.024846 104.404816 
L 272.088267 105.034462 
L 272.21511 108.648124 
L 272.278532 107.607785 
L 272.341953 108.73018 
L 272.468796 112.973488 
L 272.659061 108.894499 
L 272.849325 108.127955 
L 272.976168 109.962155 
L 273.103011 112.070047 
L 273.673804 105.007145 
L 273.800647 109.332509 
L 273.864069 108.292169 
L 273.92749 106.841345 
L 273.990912 107.52573 
L 274.37144 113.466237 
L 274.498283 111.768934 
L 274.625126 112.781852 
L 274.688548 112.727114 
L 274.815391 113.028227 
L 274.942234 111.933149 
L 275.069077 113.712611 
L 275.132498 113.274601 
L 275.259341 110.619118 
L 275.386184 115.820607 
L 275.703291 107.44357 
L 275.830134 111.166709 
L 276.08382 105.992642 
L 276.147242 107.087719 
L 276.210663 109.387247 
L 276.274085 108.511227 
L 276.337506 106.56755 
L 276.400928 107.553047 
L 276.654614 111.303503 
L 276.718035 111.796355 
L 276.781457 91.510883 
L 276.844878 92.551118 
L 277.035143 87.0212 
L 277.225407 88.992298 
L 277.35225 93.208186 
L 277.415671 92.250006 
L 277.605936 96.630108 
L 277.669357 96.274257 
L 277.7962 95.151863 
L 277.986465 95.945724 
L 278.049886 95.863564 
L 278.113308 95.17918 
L 278.240151 99.477227 
L 278.366994 102.461139 
L 278.874365 96.328995 
L 278.937787 93.919887 
L 279.06463 99.668863 
L 279.128051 99.203431 
L 279.254894 95.535135 
L 279.381737 99.422488 
L 279.572002 95.671928 
L 279.698845 90.771656 
L 279.889109 99.696179 
L 279.952531 98.053615 
L 280.015952 98.272672 
L 280.206216 104.815509 
L 280.269638 103.88475 
L 280.396481 98.026298 
L 280.523324 106.184278 
L 280.586745 105.472472 
L 280.650167 105.992642 
L 280.713588 107.607785 
L 280.840431 104.21318 
L 280.903853 104.733349 
L 280.967274 105.718846 
L 281.094117 101.475642 
L 281.157539 102.461139 
L 281.284382 106.074801 
L 281.411224 104.623873 
L 281.474646 105.144042 
L 281.791753 101.037631 
L 281.855175 102.160026 
L 282.108861 112.91875 
L 282.299125 108.073216 
L 282.48939 104.514396 
L 282.743076 107.991057 
L 282.869918 116.149036 
L 282.93334 115.245699 
L 283.060183 111.796355 
L 283.123604 112.891329 
L 283.187026 112.453319 
L 283.250447 112.617638 
L 283.313869 112.453319 
L 283.37729 111.686775 
L 283.757819 118.010658 
L 283.884662 115.273016 
L 283.948084 115.464652 
L 284.011505 116.094298 
L 284.074927 115.409914 
L 284.138348 115.51939 
L 284.265191 118.065396 
L 284.392034 116.285934 
L 284.518877 118.530723 
L 284.64572 122.527658 
L 284.709141 122.062226 
L 284.772563 120.392345 
L 284.835984 120.748196 
L 284.899406 295.022569 
L 284.962827 294.776194 
L 285.026249 294.52982 
L 285.153092 295.488 
L 285.723885 281.772681 
L 285.850728 283.168871 
L 285.914149 283.114133 
L 286.104414 277.009307 
L 286.231257 269.125071 
L 286.294678 269.15244 
L 286.738629 257.791491 
L 286.928893 252.699583 
L 287.055736 252.261573 
L 287.436265 237.04064 
L 287.499686 237.068009 
L 287.689951 234.166152 
L 287.816794 230.032424 
L 287.880215 230.415696 
L 288.007058 239.75086 
L 288.07048 239.312798 
L 289.338909 190.529136 
L 289.402331 190.118495 
L 289.719438 174.213177 
L 289.973124 169.01174 
L 290.290231 159.923002 
L 290.607339 156.008227 
L 290.67076 155.679746 
L 290.734182 155.789222 
L 291.051289 145.085289 
L 291.495239 136.325032 
L 291.622082 132.30078 
L 291.685504 132.793529 
L 291.812347 130.822535 
L 292.002611 128.933596 
L 292.256297 121.350525 
L 292.319719 121.624216 
L 292.700248 113.849509 
L 292.890512 108.538648 
L 292.953933 107.635206 
L 293.080776 141.280042 
L 293.397884 135.859601 
L 293.524727 138.679402 
L 293.588148 137.803382 
L 293.714991 140.97893 
L 293.778413 140.595658 
L 293.968677 136.37977 
L 294.032099 136.407191 
L 294.09552 138.131811 
L 294.158942 137.967596 
L 294.222363 135.832283 
L 294.285785 136.735725 
L 294.412627 139.856535 
L 294.602892 137.885437 
L 294.666313 138.159232 
L 294.729735 137.940175 
L 294.793156 137.228474 
L 294.919999 139.363787 
L 294.983421 138.898355 
L 295.110264 138.871038 
L 295.173685 138.460345 
L 295.237107 138.816195 
L 295.300528 138.679402 
L 295.490793 137.173735 
L 295.871321 139.747058 
L 296.188429 136.352453 
L 296.315272 134.54557 
L 296.442115 135.640647 
L 296.505536 135.50375 
L 296.568958 135.695386 
L 296.695801 134.21714 
L 296.759222 134.627729 
L 296.949487 139.528001 
L 297.139751 133.724288 
L 297.393437 142.210801 
L 297.456858 141.882371 
L 297.583701 138.378185 
L 297.710544 142.347699 
L 297.773966 141.991848 
L 297.837387 141.362202 
L 297.96423 137.556903 
L 298.027652 138.077073 
L 298.154495 139.144729 
L 298.344759 146.45411 
L 298.471602 141.033668 
L 298.535024 142.074007 
L 298.598445 144.537802 
L 298.661866 143.360617 
L 298.725288 142.347699 
L 298.852131 147.302761 
L 299.042395 143.497514 
L 299.105817 143.606991 
L 299.169238 144.674648 
L 299.23266 144.510381 
L 299.486346 140.02075 
L 299.67661 142.402437 
L 299.866875 136.023919 
L 300.057139 142.867868 
L 300.183982 139.309048 
L 300.247403 140.212386 
L 300.310825 141.280042 
L 300.437668 138.323447 
L 300.627932 134.10756 
L 300.691354 134.189719 
L 300.818197 138.433028 
L 300.94504 131.698556 
L 301.008461 132.547155 
L 301.198726 141.170566 
L 301.325569 137.447427 
L 301.38899 137.994913 
L 301.515833 142.895185 
L 301.706097 138.871038 
L 301.896362 141.635997 
L 302.023205 138.816195 
L 302.086626 138.871038 
L 302.213469 142.101324 
L 302.593998 136.817781 
L 302.911106 142.512018 
L 302.974527 141.909688 
L 303.10137 138.29613 
L 303.164791 138.104494 
L 303.228213 136.516668 
L 303.291634 136.763042 
L 303.418477 138.679402 
L 303.54532 135.777545 
L 303.672163 139.637478 
L 303.735585 139.336365 
L 303.862428 141.170566 
L 304.052692 135.722807 
L 304.179535 137.967596 
L 304.306378 134.271879 
L 304.433221 139.555423 
L 304.496642 139.06257 
L 304.623485 138.651981 
L 304.750328 137.748539 
L 304.81375 137.85812 
L 304.940593 134.928842 
L 305.194279 140.048171 
L 305.321122 135.120478 
L 305.384543 135.339535 
L 305.701651 137.830699 
L 305.765072 137.721222 
L 305.828493 138.049756 
L 305.955336 143.305878 
L 306.018758 142.676232 
L 306.082179 141.85495 
L 306.145601 141.964427 
L 306.209022 142.046586 
L 306.272444 141.991848 
L 306.462708 138.433028 
L 306.589551 142.539335 
L 306.716394 138.159232 
L 306.779816 138.186549 
L 306.97008 139.966012 
L 307.033502 139.637478 
L 307.096923 138.131811 
L 307.160345 139.199467 
L 307.223766 141.964427 
L 307.287187 141.033668 
L 307.41403 135.038423 
L 307.477452 135.449012 
L 307.540873 135.449012 
L 307.667716 134.408776 
L 307.731138 134.928842 
L 307.857981 139.336365 
L 307.921402 138.651981 
L 308.048245 140.404022 
L 308.23851 133.970766 
L 308.301931 134.244457 
L 308.428774 138.706719 
L 308.492196 138.405607 
L 308.555617 138.186549 
L 308.619039 139.473263 
L 308.68246 139.117412 
L 308.745881 137.803382 
L 308.872724 140.404022 
L 308.999567 134.326617 
L 309.062989 135.202637 
L 309.189832 139.199467 
L 309.253253 67.310636 
L 309.316675 67.392795 
L 309.380096 67.365374 
L 309.506939 63.395861 
L 309.570361 64.928949 
L 309.633782 67.119 
L 309.95089 60.028677 
L 310.077733 63.970769 
L 310.141154 63.532759 
L 310.204575 63.341123 
L 310.331418 64.381462 
L 310.521683 58.906282 
L 310.585104 60.165575 
L 310.648526 60.220313 
L 310.711947 59.672826 
L 310.775369 59.837041 
L 310.83879 60.220313 
L 310.965633 59.179973 
L 311.092476 59.207395 
L 311.219319 58.878861 
L 311.409584 53.568 
L 311.473005 53.814374 
L 311.536427 54.662973 
L 311.663269 58.741963 
L 311.790112 55.812789 
L 311.853534 56.059164 
L 312.043798 57.482671 
L 312.10722 56.661493 
L 312.170641 57.236296 
L 312.297484 60.521425 
L 312.614592 55.73063 
L 313.058542 62.547262 
L 313.248806 60.329789 
L 313.312228 60.192891 
L 313.375649 59.563245 
L 313.439071 59.590667 
L 313.629335 63.833871 
L 313.692757 63.286384 
L 313.756178 63.56018 
L 314.200129 60.576163 
L 314.26355 59.015759 
L 314.390393 63.341123 
L 314.453814 62.16399 
L 314.517236 61.014174 
L 314.770922 66.188241 
L 314.961186 69.336472 
L 315.024608 68.350871 
L 315.088029 66.516775 
L 315.151451 66.982102 
L 315.405137 70.185071 
L 315.53198 68.816302 
L 315.658823 70.541026 
L 315.722244 70.185071 
L 315.849087 68.542507 
L 315.97593 71.143251 
L 316.039351 70.513605 
L 316.166194 68.816302 
L 316.293037 65.394276 
L 316.41988 67.03684 
L 316.483302 66.817887 
L 316.546723 67.392795 
L 316.673566 65.750231 
L 316.800409 70.212493 
L 316.863831 69.363789 
L 316.990674 66.626251 
L 317.117517 70.431446 
L 317.180938 70.294548 
L 317.24436 70.321969 
L 317.307781 70.67782 
L 317.434624 162.879597 
L 317.624888 155.077468 
L 317.751731 153.325428 
L 318.068839 157.650792 
L 318.13226 157.158043 
L 318.195682 157.459156 
L 318.259103 158.14354 
L 318.385946 154.365715 
L 318.449368 155.02273 
L 318.512789 155.46074 
L 318.703054 151.354382 
L 318.893318 158.006694 
L 318.956739 157.103253 
L 319.210425 151.354382 
L 319.337268 148.315627 
L 319.40069 148.178781 
L 319.527533 143.962842 
L 319.654376 149.602289 
L 319.717797 148.644161 
L 319.84464 144.702017 
L 319.908062 146.590955 
L 319.971483 146.262474 
L 320.28859 136.872519 
L 320.478855 143.333196 
L 320.605698 142.457175 
L 320.669119 142.895185 
L 320.732541 142.840447 
L 320.795962 142.703654 
L 320.859384 142.758392 
L 320.986227 137.666484 
L 321.303334 145.468561 
L 321.430177 141.635997 
L 321.493599 141.991848 
L 321.55702 142.347699 
L 321.747284 135.366852 
L 321.874127 139.199467 
L 322.064392 135.585909 
L 322.127813 136.023919 
L 322.191235 135.531171 
L 322.381499 130.822535 
L 322.698607 139.144729 
L 322.952293 132.054406 
L 323.079135 126.98992 
L 323.142557 127.373192 
L 323.332821 131.698556 
L 323.459664 139.883852 
L 323.523086 138.241392 
L 323.586507 135.394273 
L 323.649929 135.42159 
L 323.71335 135.832283 
L 323.776772 135.777545 
L 323.903615 131.835453 
L 323.967036 131.917508 
L 324.093879 136.023919 
L 324.157301 134.54557 
L 324.347565 138.980515 
L 324.474408 135.558488 
L 324.537829 135.887022 
L 324.664672 136.790463 
L 324.791515 138.213971 
L 324.98178 137.474848 
L 325.108623 136.242873 
L 325.172044 136.89994 
L 325.298887 139.363787 
L 325.42573 138.022335 
L 325.552573 150.01293 
L 325.615995 148.534632 
L 325.679416 148.835797 
L 325.806259 152.558884 
L 325.933102 150.806843 
L 325.996523 151.299591 
L 326.059945 151.655494 
L 326.313631 144.09974 
L 326.377052 145.359032 
L 326.567317 150.341463 
L 326.630738 150.724735 
L 326.947846 143.661729 
L 327.074689 145.906571 
L 327.201532 145.085289 
L 327.328375 149.054802 
L 327.455217 143.743889 
L 327.835746 149.684448 
L 327.899168 149.328545 
L 327.962589 145.988678 
L 328.026011 146.289843 
L 328.216275 148.808428 
L 328.533383 144.674648 
L 328.660226 145.906571 
L 328.723647 145.769673 
L 328.787068 146.098207 
L 329.040754 137.830699 
L 329.231019 130.630899 
L 329.29444 131.096226 
L 329.357862 132.465099 
L 329.484705 127.893257 
L 329.738391 118.913995 
L 329.801812 119.105631 
L 329.865234 119.26995 
L 329.992077 122.91093 
L 330.245762 109.962155 
L 330.309184 110.12637 
L 330.436027 111.933149 
L 330.499448 111.768934 
L 330.56287 111.878411 
L 330.816556 107.744683 
L 330.879977 108.127955 
L 331.00682 109.332509 
L 331.070242 109.250349 
L 331.133663 108.949237 
L 331.260506 112.836591 
L 331.323928 112.617638 
L 331.450771 107.991057 
L 331.514192 108.429067 
L 331.831299 114.944586 
L 331.894721 113.329339 
L 331.958142 114.369678 
L 332.021564 116.012243 
L 332.148407 111.111971 
L 332.211828 112.179627 
L 332.338671 115.355175 
L 332.402093 114.75295 
L 332.465514 115.683709 
L 332.592357 119.324689 
L 332.846043 113.685294 
L 333.036308 119.488903 
L 333.099729 118.695042 
L 333.16315 117.846339 
L 333.353415 119.16037 
L 333.416836 119.406744 
L 333.480258 118.859257 
L 333.543679 119.215212 
L 333.670522 136.352453 
L 333.733944 136.489247 
L 333.797365 136.242873 
L 333.98763 133.560073 
L 334.304737 139.363787 
L 334.43158 138.460345 
L 334.621844 134.791944 
L 334.685266 135.147899 
L 334.748687 134.901525 
L 334.87553 132.246042 
L 335.002373 135.50375 
L 335.065795 135.06574 
L 335.129216 134.326617 
L 335.192638 134.846787 
L 335.256059 135.230059 
L 335.382902 132.30078 
L 335.509745 136.735725 
L 335.573167 135.038423 
L 335.636588 133.067324 
L 335.70001 134.10756 
L 335.763431 135.147899 
L 335.826853 134.54557 
L 335.890274 133.77913 
L 336.017117 134.655151 
L 336.080538 134.436093 
L 336.207381 136.023919 
L 336.270803 135.06574 
L 336.461067 139.309048 
L 336.58791 138.980515 
L 336.651332 138.29613 
L 336.841596 134.463515 
L 336.968439 135.093161 
L 337.285547 131.479498 
L 337.348968 132.437678 
L 337.475811 137.529586 
L 337.602654 129.535821 
L 337.666075 129.70014 
L 338.046604 139.445842 
L 338.173447 137.967596 
L 338.236869 138.460345 
L 338.363712 139.144729 
L 338.427133 139.06257 
L 338.553976 137.611746 
L 338.617398 136.817781 
L 338.680819 137.310529 
L 338.997926 146.317212 
L 339.124769 144.181899 
L 339.188191 144.811545 
L 339.315034 141.553838 
L 339.378455 141.909688 
L 339.441877 142.484596 
L 339.56872 141.280042 
L 339.822406 144.373535 
L 339.885827 144.154478 
L 340.139513 137.85812 
L 340.266356 142.484596 
L 340.329777 141.991848 
L 340.45662 135.531171 
L 340.583463 140.075488 
L 340.646885 138.953093 
L 340.900571 136.270294 
L 340.963992 136.626145 
L 341.154257 134.682468 
L 341.2811 131.041488 
L 341.344521 131.616396 
L 341.407943 132.30078 
L 341.534786 127.154134 
L 341.598207 128.605063 
L 341.788471 138.871038 
L 341.851893 138.433028 
L 341.978736 134.98358 
L 342.105579 141.033668 
L 342.232422 138.433028 
L 342.422686 139.500684 
L 342.486108 139.692216 
L 342.612951 137.940175 
L 342.739794 139.035253 
L 342.803215 138.816195 
L 342.866637 138.953093 
L 342.930058 138.898355 
L 343.056901 135.585909 
L 343.120323 135.750124 
L 343.183744 136.352453 
L 343.247165 135.449012 
L 343.310587 135.750124 
L 343.43743 139.363787 
L 343.500851 139.199467 
L 343.564273 139.035253 
L 343.88138 130.90459 
L 344.008223 134.244457 
L 344.135066 130.521318 
L 344.261909 136.242873 
L 344.325331 135.585909 
L 344.388752 135.339535 
L 344.452174 135.50375 
L 344.515595 133.998083 
L 344.642438 128.112314 
L 344.769281 131.86277 
L 344.896124 127.592145 
L 345.086388 132.246042 
L 345.213231 128.440848 
L 345.276653 128.906175 
L 345.340074 128.933596 
L 345.530339 127.34577 
L 345.59376 127.509985 
L 345.657182 127.893257 
L 345.784025 132.355519 
L 345.910868 127.646883 
L 345.974289 128.139631 
L 346.03771 129.316868 
L 346.101132 128.74196 
L 346.164553 128.358688 
L 346.227975 128.522903 
L 346.291396 128.851437 
L 346.418239 127.646883 
L 346.608504 136.790463 
L 346.671925 134.956263 
L 347.052454 129.782196 
L 347.179297 132.547155 
L 347.242719 131.890192 
L 347.30614 130.98675 
L 347.369562 131.260545 
L 347.559826 133.532756 
L 347.686669 132.081828 
L 347.813512 134.709889 
L 347.876933 134.080243 
L 348.003776 128.331267 
L 348.067198 129.398924 
L 348.194041 131.86277 
L 348.257462 131.780611 
L 348.384305 135.695386 
L 348.447727 135.120478 
L 348.57457 138.816195 
L 348.637991 137.474848 
L 348.828256 132.246042 
L 349.145363 138.651981 
L 349.208784 138.542504 
L 349.272206 138.706719 
L 349.335627 138.651981 
L 349.399049 139.363787 
L 349.46247 139.309048 
L 349.589313 134.052821 
L 349.779578 138.487766 
L 349.842999 164.768484 
L 349.906421 163.262817 
L 350.096685 160.114638 
L 350.160107 160.580017 
L 350.28695 163.509191 
L 350.413792 163.262817 
L 350.540635 160.744284 
L 350.7309 167.944084 
L 350.857743 166.849058 
L 350.921164 167.533443 
L 350.984586 166.876427 
L 351.111429 163.043812 
L 351.17485 163.810356 
L 351.238272 163.344977 
L 351.301693 162.195161 
L 351.365115 163.016443 
L 351.428536 164.878012 
L 351.491958 164.467371 
L 351.682222 161.83931 
L 352.062751 156.911669 
L 352.126172 156.80214 
L 352.253015 162.824807 
L 352.316437 162.414166 
L 352.44328 158.280438 
L 352.570123 160.908499 
L 352.633544 160.278853 
L 352.696966 158.718448 
L 352.760387 158.773186 
L 352.823809 160.634756 
L 352.88723 159.649207 
L 353.014073 155.406002 
L 353.077495 155.844012 
L 353.204337 151.080586 
L 353.267759 152.230402 
L 353.33118 154.037181 
L 353.394602 153.982443 
L 353.458023 153.599171 
L 353.648288 158.773186 
L 353.901974 153.955074 
L 354.028817 151.518596 
L 354.092238 152.339879 
L 354.282503 154.228817 
L 354.345924 154.338346 
L 354.663031 147.685981 
L 354.726453 148.452525 
L 354.853296 145.249555 
L 354.980139 148.616792 
L 355.106982 144.921022 
L 355.170403 145.140027 
L 355.360668 149.438074 
L 355.424089 148.425156 
L 355.487511 149.054802 
L 355.550932 151.080586 
L 355.614354 150.478309 
L 355.741197 148.534632 
L 355.804618 149.355914 
L 355.86804 148.808428 
L 355.931461 148.616792 
L 355.994883 149.355914 
L 356.121725 146.645694 
L 356.248568 148.370417 
L 356.438833 144.483012 
L 356.565676 149.739186 
L 356.819362 139.774376 
L 356.882783 136.680883 
L 357.009626 141.690736 
L 357.263312 136.571406 
L 357.326734 136.845202 
L 357.390155 138.569821 
L 357.453577 137.310529 
L 357.516998 135.147899 
L 357.580419 135.202637 
L 357.707262 136.489247 
L 357.834105 139.035253 
L 357.897527 138.706719 
L 358.02437 157.650792 
L 358.341477 149.054802 
L 358.404899 147.877617 
L 358.531742 153.7087 
L 358.595163 152.449407 
L 358.658585 151.710232 
L 358.785428 155.406002 
L 358.848849 154.721566 
L 358.975692 151.929237 
L 359.039113 152.805258 
L 359.165956 150.01293 
L 359.229378 150.341463 
L 359.292799 150.533099 
L 359.356221 151.244853 
L 359.546485 157.130674 
L 359.673328 152.613622 
L 359.73675 152.641043 
L 359.800171 153.325428 
L 360.117279 145.276925 
L 360.1807 145.742304 
L 360.244122 149.027433 
L 360.307543 148.781006 
L 360.370964 145.304294 
L 360.434386 145.578037 
L 360.497807 147.904986 
L 360.561229 147.658612 
L 360.878336 137.502165 
L 361.068601 145.413822 
L 361.195444 142.019165 
L 361.385708 145.769673 
L 361.44913 145.988678 
L 361.575973 141.444361 
L 361.702816 148.041884 
L 361.766237 146.618324 
L 361.829658 146.45411 
L 361.89308 148.562001 
L 361.956501 147.71335 
L 362.083344 144.318797 
L 362.146766 145.550668 
L 362.33703 141.088406 
L 362.400452 142.758392 
L 362.463873 142.676232 
L 362.780981 138.597243 
L 363.034667 137.009417 
L 363.224931 146.289843 
L 363.288352 146.152945 
L 363.668881 134.846787 
L 364.04941 147.685981 
L 364.112832 145.550668 
L 364.239675 142.730971 
L 364.429939 144.400852 
L 364.556782 141.718052 
L 364.620204 142.128746 
L 364.683625 142.347699 
L 364.747046 141.93711 
L 364.810468 142.128746 
L 364.937311 145.605458 
L 365.000732 145.49593 
L 365.254418 142.29296 
L 365.31784 142.29296 
L 365.444683 145.359032 
L 365.571526 142.730971 
L 365.634947 142.785709 
L 365.698369 142.950028 
L 365.888633 146.098207 
L 366.015476 144.948443 
L 366.142319 163.728197 
L 366.20574 164.631638 
L 366.332583 163.262817 
L 366.396005 163.563982 
L 366.459426 163.399715 
L 366.903377 148.123991 
L 366.966798 148.452525 
L 367.093641 151.135376 
L 367.220484 149.410653 
L 367.537592 138.350868 
L 367.727856 136.598827 
L 367.791277 136.735725 
L 367.854699 138.049756 
L 368.044963 132.711474 
L 368.108385 133.642232 
L 368.235228 135.42159 
L 368.362071 131.3426 
L 368.425492 132.465099 
L 368.615757 127.947995 
L 368.679178 128.714539 
L 368.806021 130.959433 
L 368.869443 130.001253 
L 369.059707 127.373192 
L 369.123128 127.044658 
L 369.249971 129.097811 
L 369.313393 128.960913 
L 369.567079 124.991504 
L 369.757343 117.381012 
L 369.820765 118.120134 
L 369.947608 119.16037 
L 370.074451 117.654703 
L 370.264715 111.4404 
L 370.328137 112.316421 
L 370.391558 112.015308 
L 370.454979 110.810754 
L 370.581822 113.685294 
L 370.89893 101.53038 
L 370.962351 102.077867 
L 371.089194 106.321175 
L 371.152616 105.664108 
L 371.216037 104.979724 
L 371.34288 106.677026 
L 371.469723 104.842826 
L 371.533145 104.870247 
L 371.596566 105.499893 
L 371.913673 112.781852 
L 372.040516 108.018478 
L 372.103938 108.83976 
L 372.230781 112.097468 
L 372.294202 111.714196 
L 372.357624 112.781852 
L 372.484467 109.743098 
L 372.547888 111.276185 
L 372.61131 113.219862 
L 372.674731 111.933149 
L 372.738153 111.248764 
L 373.118682 115.218278 
L 373.435789 108.264852 
L 373.49921 109.086135 
L 373.562632 109.879995 
L 373.626053 108.456488 
L 373.689475 108.538648 
L 373.752896 109.743098 
L 373.816318 109.223032 
L 374.006582 107.580468 
L 374.070004 105.60937 
L 374.133425 106.649709 
L 374.260268 142.785709 
L 374.577376 137.529586 
L 374.894483 143.470093 
L 374.957904 143.606991 
L 375.21159 137.748539 
L 375.338433 140.157648 
L 375.401855 139.445842 
L 375.465276 139.829114 
L 375.592119 143.032083 
L 375.782384 141.471678 
L 375.845805 141.608576 
L 375.972648 139.473263 
L 376.099491 143.442776 
L 376.162913 142.512018 
L 376.226334 141.93711 
L 376.353177 142.457175 
L 376.416598 142.210801 
L 376.543441 140.869453 
L 376.733706 142.128746 
L 376.797127 142.484596 
L 376.860549 142.265539 
L 376.92397 141.745474 
L 377.050813 144.784176 
L 377.114235 144.291376 
L 377.241078 141.307464 
L 377.304499 142.785709 
L 377.685028 134.080243 
L 377.938714 128.468165 
L 378.065557 136.160817 
L 378.128978 136.078658 
L 378.255821 131.50692 
L 378.63635 145.769673 
L 378.699772 144.537802 
L 378.763193 142.730971 
L 378.890036 145.687566 
L 378.953458 144.866284 
L 379.016879 145.085289 
L 379.0803 145.003181 
L 379.207143 141.33478 
L 379.524251 151.491227 
L 379.587672 150.396202 
L 379.651094 148.397787 
L 379.714515 149.739186 
L 379.777937 152.230402 
L 379.90478 147.685981 
L 380.031623 152.72315 
L 380.158466 148.014515 
L 380.412152 151.272222 
L 380.475573 151.162746 
L 380.665837 145.222186 
L 380.729259 145.769673 
L 380.856102 150.642576 
L 380.982945 145.49593 
L 381.046366 143.77131 
L 381.173209 150.615207 
L 381.236631 150.478309 
L 381.426895 146.782591 
L 381.490317 146.207683 
L 381.553738 147.028965 
L 381.61716 145.851833 
L 381.807424 140.650396 
L 381.870846 138.679402 
L 381.934267 139.281627 
L 381.997688 142.347699 
L 382.06111 141.170566 
L 382.187953 137.091576 
L 382.378217 142.046586 
L 382.441639 141.307464 
L 382.50506 138.843617 
L 382.568482 139.610161 
L 382.695325 144.045001 
L 382.822168 141.526416 
L 382.885589 142.347699 
L 382.949011 141.93711 
L 383.012432 142.402437 
L 383.075854 144.373535 
L 383.139275 143.360617 
L 383.266118 139.336365 
L 383.392961 142.566756 
L 383.583225 138.679402 
L 383.646647 138.898355 
L 383.710068 138.816195 
L 383.836911 137.255791 
L 384.090597 143.388038 
L 384.154019 142.484596 
L 384.280862 137.85812 
L 384.344283 138.62456 
L 384.471126 134.54557 
L 384.597969 138.597243 
L 384.724812 137.036838 
L 384.915076 140.814715 
L 384.978498 141.909688 
L 385.041919 141.41694 
L 385.232184 133.915924 
L 385.359027 135.394273 
L 385.48587 132.081828 
L 385.549291 132.738791 
L 385.676134 136.653566 
L 385.802977 134.600412 
L 385.866399 134.874104 
L 385.92982 135.06574 
L 386.120085 130.932012 
L 386.246927 132.985165 
L 386.37377 136.325032 
L 386.500613 131.370022 
L 386.564035 131.753294 
L 386.627456 132.38294 
L 386.690878 131.94493 
L 386.754299 131.561658 
L 386.817721 131.972247 
L 386.881142 131.917508 
L 386.944564 130.959433 
L 387.007985 131.068909 
L 387.19825 138.980515 
L 387.6422 130.98675 
L 387.769043 136.051237 
L 387.832464 135.94176 
L 387.959307 132.547155 
L 388.08615 135.50375 
L 388.212993 134.627729 
L 388.276415 134.655151 
L 388.403258 135.50375 
L 388.656944 128.796699 
L 388.783787 129.152549 
L 388.91063 127.756464 
L 389.227737 133.067324 
L 389.418001 127.263611 
L 389.481423 127.674304 
L 389.79853 136.325032 
L 389.925373 134.819365 
L 390.052216 136.544089 
L 390.242481 130.54874 
L 390.369324 133.176801 
L 390.496167 124.224961 
L 390.559588 124.033325 
L 390.686431 122.062226 
L 390.813274 125.894842 
L 390.876695 125.319934 
L 391.06696 122.39076 
L 391.130381 122.39076 
L 391.320646 128.906175 
L 391.384067 128.057576 
L 391.447489 128.659801 
L 391.51091 129.398924 
L 391.701175 124.361858 
L 391.764596 125.977001 
L 391.828018 125.675889 
L 391.891439 124.526073 
L 391.954861 124.690288 
L 392.081703 125.867525 
L 392.208546 123.294202 
L 392.271968 123.430995 
L 392.335389 124.170222 
L 392.398811 123.759529 
L 392.652497 119.926914 
L 392.715918 120.228026 
L 392.842761 126.059161 
L 393.033026 120.857672 
L 393.159869 123.430995 
L 393.286712 121.213627 
L 393.350133 121.761114 
L 393.413554 123.841689 
L 393.476976 123.732212 
L 393.603819 121.323104 
L 393.66724 122.500237 
L 393.730662 122.281284 
L 393.857505 119.324689 
L 393.984348 122.144386 
L 394.047769 121.733693 
L 394.174612 124.416597 
L 394.301455 121.925329 
L 394.364877 122.336022 
L 394.555141 121.158889 
L 394.618563 121.213627 
L 394.745406 123.951165 
L 394.872248 122.746611 
L 394.93567 122.965668 
L 395.062513 119.023576 
L 395.125934 119.26995 
L 395.252777 117.381012 
L 395.316199 118.39393 
L 395.37962 117.682124 
L 395.443042 115.656288 
L 395.569885 119.516325 
L 395.633306 118.31177 
L 395.696728 117.35359 
L 395.760149 117.983237 
L 395.823571 118.695042 
L 396.077257 123.321519 
L 396.140678 124.334437 
L 396.267521 121.980067 
L 396.330942 122.965668 
L 396.394364 124.088063 
L 396.457785 123.540576 
L 396.521207 123.951165 
L 396.584628 125.566308 
L 396.64805 125.402093 
L 396.711471 123.869005 
L 396.774893 124.662971 
L 396.838314 125.894842 
L 397.028579 120.282869 
L 397.092 123.047723 
L 397.155422 126.38759 
L 397.218843 124.662971 
L 397.472529 113.685294 
L 397.599372 115.738447 
L 397.662794 115.711026 
L 397.726215 115.492073 
L 397.853058 114.150621 
L 397.979901 116.696627 
L 398.170165 115.245699 
L 398.233587 115.492073 
L 398.36043 118.859257 
L 398.423851 118.640304 
L 398.487273 119.242529 
L 398.487273 119.242529 
" clip-path="url(#p9e7246c1c2)" style="fill: none; stroke: #1f77b4; stroke-width: 1.5; stroke-linecap: square"/>
   </g>
   <g id="patch_3">
    <path d="M 57.6 307.584 
L 57.6 41.472 
" style="fill: none; stroke: #000000; stroke-width: 0.8; stroke-linejoin: miter; stroke-linecap: square"/>
   </g>
   <g id="patch_4">
    <path d="M 414.72 307.584 
L 414.72 41.472 
" style="fill: none; stroke: #000000; stroke-width: 0.8; stroke-linejoin: miter; stroke-linecap: square"/>
   </g>
   <g id="patch_5">
    <path d="M 57.6 307.584 
L 414.72 307.584 
" style="fill: none; stroke: #000000; stroke-width: 0.8; stroke-linejoin: miter; stroke-linecap: square"/>
   </g>
   <g id="patch_6">
    <path d="M 57.6 41.472 
L 414.72 41.472 
" style="fill: none; stroke: #000000; stroke-width: 0.8; stroke-linejoin: miter; stroke-linecap: square"/>
   </g>
   <g id="legend_1">
    <g id="patch_7">
     <path d="M 354.074688 64.150125 
L 407.72 64.150125 
Q 409.72 64.150125 409.72 62.150125 
L 409.72 48.472 
Q 409.72 46.472 407.72 46.472 
L 354.074688 46.472 
Q 352.074688 46.472 352.074688 48.472 
L 352.074688 62.150125 
Q 352.074688 64.150125 354.074688 64.150125 
z
" style="fill: #ffffff; opacity: 0.8; stroke: #cccccc; stroke-linejoin: miter"/>
    </g>
    <g id="line2d_14">
     <path d="M 356.074688 54.570438 
L 366.074688 54.570438 
L 376.074688 54.570438 
" style="fill: none; stroke: #1f77b4; stroke-width: 1.5; stroke-linecap: square"/>
    </g>
    <g id="text_13">
     <!-- set2 -->
     <g transform="translate(384.074688 58.070438)scale(0.1 -0.1)">
      <defs>
       <path id="DejaVuSans-73" d="M 2834 3397 
L 2834 2853 
Q 2591 2978 2328 3040 
Q 2066 3103 1784 3103 
Q 1356 3103 1142 2972 
Q 928 2841 928 2578 
Q 928 2378 1081 2264 
Q 1234 2150 1697 2047 
L 1894 2003 
Q 2506 1872 2764 1633 
Q 3022 1394 3022 966 
Q 3022 478 2636 193 
Q 2250 -91 1575 -91 
Q 1294 -91 989 -36 
Q 684 19 347 128 
L 347 722 
Q 666 556 975 473 
Q 1284 391 1588 391 
Q 1994 391 2212 530 
Q 2431 669 2431 922 
Q 2431 1156 2273 1281 
Q 2116 1406 1581 1522 
L 1381 1569 
Q 847 1681 609 1914 
Q 372 2147 372 2553 
Q 372 3047 722 3315 
Q 1072 3584 1716 3584 
Q 2034 3584 2315 3537 
Q 2597 3491 2834 3397 
z
" transform="scale(0.015625)"/>
       <path id="DejaVuSans-65" d="M 3597 1894 
L 3597 1613 
L 953 1613 
Q 991 1019 1311 708 
Q 1631 397 2203 397 
Q 2534 397 2845 478 
Q 3156 559 3463 722 
L 3463 178 
Q 3153 47 2828 -22 
Q 2503 -91 2169 -91 
Q 1331 -91 842 396 
Q 353 884 353 1716 
Q 353 2575 817 3079 
Q 1281 3584 2069 3584 
Q 2775 3584 3186 3129 
Q 3597 2675 3597 1894 
z
M 3022 2063 
Q 3016 2534 2758 2815 
Q 2500 3097 2075 3097 
Q 1594 3097 1305 2825 
Q 1016 2553 972 2059 
L 3022 2063 
z
" transform="scale(0.015625)"/>
       <path id="DejaVuSans-74" d="M 1172 4494 
L 1172 3500 
L 2356 3500 
L 2356 3053 
L 1172 3053 
L 1172 1153 
Q 1172 725 1289 603 
Q 1406 481 1766 481 
L 2356 481 
L 2356 0 
L 1766 0 
Q 1100 0 847 248 
Q 594 497 594 1153 
L 594 3053 
L 172 3053 
L 172 3500 
L 594 3500 
L 594 4494 
L 1172 4494 
z
" transform="scale(0.015625)"/>
      </defs>
      <use xlink:href="#DejaVuSans-73"/>
      <use xlink:href="#DejaVuSans-65" x="52.099609"/>
      <use xlink:href="#DejaVuSans-74" x="113.623047"/>
      <use xlink:href="#DejaVuSans-32" x="152.832031"/>
     </g>
    </g>
   </g>
  </g>
 </g>
 <defs>
  <clipPath id="p9e7246c1c2">
   <rect x="57.6" y="41.472" width="357.12" height="266.112"/>
  </clipPath>
 </defs>
</svg>
