<?xml version="1.0" encoding="utf-8" standalone="no"?>
<!DOCTYPE svg PUBLIC "-//W3C//DTD SVG 1.1//EN"
  "http://www.w3.org/Graphics/SVG/1.1/DTD/svg11.dtd">
<svg xmlns:xlink="http://www.w3.org/1999/xlink" width="460.8pt" height="345.6pt" viewBox="0 0 460.8 345.6" xmlns="http://www.w3.org/2000/svg" version="1.1">
 <metadata>
  <rdf:RDF xmlns:dc="http://purl.org/dc/elements/1.1/" xmlns:cc="http://creativecommons.org/ns#" xmlns:rdf="http://www.w3.org/1999/02/22-rdf-syntax-ns#">
   <cc:Work>
    <dc:type rdf:resource="http://purl.org/dc/dcmitype/StillImage"/>
    <dc:date>2022-08-11T15:17:02.680685</dc:date>
    <dc:format>image/svg+xml</dc:format>
    <dc:creator>
     <cc:Agent>
      <dc:title>Matplotlib v3.5.2, https://matplotlib.org/</dc:title>
     </cc:Agent>
    </dc:creator>
   </cc:Work>
  </rdf:RDF>
 </metadata>
 <defs>
  <style type="text/css">*{stroke-linejoin: round; stroke-linecap: butt}</style>
 </defs>
 <g id="figure_1">
  <g id="patch_1">
   <path d="M 0 345.6 
L 460.8 345.6 
L 460.8 0 
L 0 0 
z
" style="fill: #ffffff"/>
  </g>
  <g id="axes_1">
   <g id="patch_2">
    <path d="M 57.6 307.584 
L 414.72 307.584 
L 414.72 41.472 
L 57.6 41.472 
z
" style="fill: #ffffff"/>
   </g>
   <g id="matplotlib.axis_1">
    <g id="xtick_1">
     <g id="line2d_1">
      <defs>
       <path id="m1a0e8b1740" d="M 0 0 
L 0 3.5 
" style="stroke: #000000; stroke-width: 0.8"/>
      </defs>
      <g>
       <use xlink:href="#m1a0e8b1740" x="73.832727" y="307.584" style="stroke: #000000; stroke-width: 0.8"/>
      </g>
     </g>
     <g id="text_1">
      <!-- 0 -->
      <g transform="translate(70.651477 322.182437)scale(0.1 -0.1)">
       <defs>
        <path id="DejaVuSans-30" d="M 2034 4250 
Q 1547 4250 1301 3770 
Q 1056 3291 1056 2328 
Q 1056 1369 1301 889 
Q 1547 409 2034 409 
Q 2525 409 2770 889 
Q 3016 1369 3016 2328 
Q 3016 3291 2770 3770 
Q 2525 4250 2034 4250 
z
M 2034 4750 
Q 2819 4750 3233 4129 
Q 3647 3509 3647 2328 
Q 3647 1150 3233 529 
Q 2819 -91 2034 -91 
Q 1250 -91 836 529 
Q 422 1150 422 2328 
Q 422 3509 836 4129 
Q 1250 4750 2034 4750 
z
" transform="scale(0.015625)"/>
       </defs>
       <use xlink:href="#DejaVuSans-30"/>
      </g>
     </g>
    </g>
    <g id="xtick_2">
     <g id="line2d_2">
      <g>
       <use xlink:href="#m1a0e8b1740" x="137.266597" y="307.584" style="stroke: #000000; stroke-width: 0.8"/>
      </g>
     </g>
     <g id="text_2">
      <!-- 500 -->
      <g transform="translate(127.722847 322.182437)scale(0.1 -0.1)">
       <defs>
        <path id="DejaVuSans-35" d="M 691 4666 
L 3169 4666 
L 3169 4134 
L 1269 4134 
L 1269 2991 
Q 1406 3038 1543 3061 
Q 1681 3084 1819 3084 
Q 2600 3084 3056 2656 
Q 3513 2228 3513 1497 
Q 3513 744 3044 326 
Q 2575 -91 1722 -91 
Q 1428 -91 1123 -41 
Q 819 9 494 109 
L 494 744 
Q 775 591 1075 516 
Q 1375 441 1709 441 
Q 2250 441 2565 725 
Q 2881 1009 2881 1497 
Q 2881 1984 2565 2268 
Q 2250 2553 1709 2553 
Q 1456 2553 1204 2497 
Q 953 2441 691 2322 
L 691 4666 
z
" transform="scale(0.015625)"/>
       </defs>
       <use xlink:href="#DejaVuSans-35"/>
       <use xlink:href="#DejaVuSans-30" x="63.623047"/>
       <use xlink:href="#DejaVuSans-30" x="127.246094"/>
      </g>
     </g>
    </g>
    <g id="xtick_3">
     <g id="line2d_3">
      <g>
       <use xlink:href="#m1a0e8b1740" x="200.700467" y="307.584" style="stroke: #000000; stroke-width: 0.8"/>
      </g>
     </g>
     <g id="text_3">
      <!-- 1000 -->
      <g transform="translate(187.975467 322.182437)scale(0.1 -0.1)">
       <defs>
        <path id="DejaVuSans-31" d="M 794 531 
L 1825 531 
L 1825 4091 
L 703 3866 
L 703 4441 
L 1819 4666 
L 2450 4666 
L 2450 531 
L 3481 531 
L 3481 0 
L 794 0 
L 794 531 
z
" transform="scale(0.015625)"/>
       </defs>
       <use xlink:href="#DejaVuSans-31"/>
       <use xlink:href="#DejaVuSans-30" x="63.623047"/>
       <use xlink:href="#DejaVuSans-30" x="127.246094"/>
       <use xlink:href="#DejaVuSans-30" x="190.869141"/>
      </g>
     </g>
    </g>
    <g id="xtick_4">
     <g id="line2d_4">
      <g>
       <use xlink:href="#m1a0e8b1740" x="264.134337" y="307.584" style="stroke: #000000; stroke-width: 0.8"/>
      </g>
     </g>
     <g id="text_4">
      <!-- 1500 -->
      <g transform="translate(251.409337 322.182437)scale(0.1 -0.1)">
       <use xlink:href="#DejaVuSans-31"/>
       <use xlink:href="#DejaVuSans-35" x="63.623047"/>
       <use xlink:href="#DejaVuSans-30" x="127.246094"/>
       <use xlink:href="#DejaVuSans-30" x="190.869141"/>
      </g>
     </g>
    </g>
    <g id="xtick_5">
     <g id="line2d_5">
      <g>
       <use xlink:href="#m1a0e8b1740" x="327.568206" y="307.584" style="stroke: #000000; stroke-width: 0.8"/>
      </g>
     </g>
     <g id="text_5">
      <!-- 2000 -->
      <g transform="translate(314.843206 322.182437)scale(0.1 -0.1)">
       <defs>
        <path id="DejaVuSans-32" d="M 1228 531 
L 3431 531 
L 3431 0 
L 469 0 
L 469 531 
Q 828 903 1448 1529 
Q 2069 2156 2228 2338 
Q 2531 2678 2651 2914 
Q 2772 3150 2772 3378 
Q 2772 3750 2511 3984 
Q 2250 4219 1831 4219 
Q 1534 4219 1204 4116 
Q 875 4013 500 3803 
L 500 4441 
Q 881 4594 1212 4672 
Q 1544 4750 1819 4750 
Q 2544 4750 2975 4387 
Q 3406 4025 3406 3419 
Q 3406 3131 3298 2873 
Q 3191 2616 2906 2266 
Q 2828 2175 2409 1742 
Q 1991 1309 1228 531 
z
" transform="scale(0.015625)"/>
       </defs>
       <use xlink:href="#DejaVuSans-32"/>
       <use xlink:href="#DejaVuSans-30" x="63.623047"/>
       <use xlink:href="#DejaVuSans-30" x="127.246094"/>
       <use xlink:href="#DejaVuSans-30" x="190.869141"/>
      </g>
     </g>
    </g>
    <g id="xtick_6">
     <g id="line2d_6">
      <g>
       <use xlink:href="#m1a0e8b1740" x="391.002076" y="307.584" style="stroke: #000000; stroke-width: 0.8"/>
      </g>
     </g>
     <g id="text_6">
      <!-- 2500 -->
      <g transform="translate(378.277076 322.182437)scale(0.1 -0.1)">
       <use xlink:href="#DejaVuSans-32"/>
       <use xlink:href="#DejaVuSans-35" x="63.623047"/>
       <use xlink:href="#DejaVuSans-30" x="127.246094"/>
       <use xlink:href="#DejaVuSans-30" x="190.869141"/>
      </g>
     </g>
    </g>
   </g>
   <g id="matplotlib.axis_2">
    <g id="ytick_1">
     <g id="line2d_7">
      <defs>
       <path id="m7131eb2b7d" d="M 0 0 
L -3.5 0 
" style="stroke: #000000; stroke-width: 0.8"/>
      </defs>
      <g>
       <use xlink:href="#m7131eb2b7d" x="57.6" y="260.756328" style="stroke: #000000; stroke-width: 0.8"/>
      </g>
     </g>
     <g id="text_7">
      <!-- 4050 -->
      <g transform="translate(25.15 264.555546)scale(0.1 -0.1)">
       <defs>
        <path id="DejaVuSans-34" d="M 2419 4116 
L 825 1625 
L 2419 1625 
L 2419 4116 
z
M 2253 4666 
L 3047 4666 
L 3047 1625 
L 3713 1625 
L 3713 1100 
L 3047 1100 
L 3047 0 
L 2419 0 
L 2419 1100 
L 313 1100 
L 313 1709 
L 2253 4666 
z
" transform="scale(0.015625)"/>
       </defs>
       <use xlink:href="#DejaVuSans-34"/>
       <use xlink:href="#DejaVuSans-30" x="63.623047"/>
       <use xlink:href="#DejaVuSans-35" x="127.246094"/>
       <use xlink:href="#DejaVuSans-30" x="190.869141"/>
      </g>
     </g>
    </g>
    <g id="ytick_2">
     <g id="line2d_8">
      <g>
       <use xlink:href="#m7131eb2b7d" x="57.6" y="208.658692" style="stroke: #000000; stroke-width: 0.8"/>
      </g>
     </g>
     <g id="text_8">
      <!-- 4100 -->
      <g transform="translate(25.15 212.457911)scale(0.1 -0.1)">
       <use xlink:href="#DejaVuSans-34"/>
       <use xlink:href="#DejaVuSans-31" x="63.623047"/>
       <use xlink:href="#DejaVuSans-30" x="127.246094"/>
       <use xlink:href="#DejaVuSans-30" x="190.869141"/>
      </g>
     </g>
    </g>
    <g id="ytick_3">
     <g id="line2d_9">
      <g>
       <use xlink:href="#m7131eb2b7d" x="57.6" y="156.561057" style="stroke: #000000; stroke-width: 0.8"/>
      </g>
     </g>
     <g id="text_9">
      <!-- 4150 -->
      <g transform="translate(25.15 160.360275)scale(0.1 -0.1)">
       <use xlink:href="#DejaVuSans-34"/>
       <use xlink:href="#DejaVuSans-31" x="63.623047"/>
       <use xlink:href="#DejaVuSans-35" x="127.246094"/>
       <use xlink:href="#DejaVuSans-30" x="190.869141"/>
      </g>
     </g>
    </g>
    <g id="ytick_4">
     <g id="line2d_10">
      <g>
       <use xlink:href="#m7131eb2b7d" x="57.6" y="104.463421" style="stroke: #000000; stroke-width: 0.8"/>
      </g>
     </g>
     <g id="text_10">
      <!-- 4200 -->
      <g transform="translate(25.15 108.26264)scale(0.1 -0.1)">
       <use xlink:href="#DejaVuSans-34"/>
       <use xlink:href="#DejaVuSans-32" x="63.623047"/>
       <use xlink:href="#DejaVuSans-30" x="127.246094"/>
       <use xlink:href="#DejaVuSans-30" x="190.869141"/>
      </g>
     </g>
    </g>
    <g id="ytick_5">
     <g id="line2d_11">
      <g>
       <use xlink:href="#m7131eb2b7d" x="57.6" y="52.365786" style="stroke: #000000; stroke-width: 0.8"/>
      </g>
     </g>
     <g id="text_11">
      <!-- 4250 -->
      <g transform="translate(25.15 56.165004)scale(0.1 -0.1)">
       <use xlink:href="#DejaVuSans-34"/>
       <use xlink:href="#DejaVuSans-32" x="63.623047"/>
       <use xlink:href="#DejaVuSans-35" x="127.246094"/>
       <use xlink:href="#DejaVuSans-30" x="190.869141"/>
      </g>
     </g>
    </g>
   </g>
   <g id="line2d_12">
    <path d="M 73.832727 183.812089 
L 74.086463 200.777398 
L 74.340198 183.544986 
L 74.467066 185.281405 
L 74.593934 185.548506 
L 74.720801 180.472548 
L 74.847669 180.205447 
L 74.974537 181.40766 
L 75.101405 177.667213 
L 75.228272 177.533916 
L 75.35514 183.812089 
L 75.482008 181.808568 
L 75.735743 168.049501 
L 75.989479 154.957935 
L 76.243214 167.514788 
L 76.49695 160.568606 
L 76.623818 166.179277 
L 76.750685 164.576156 
L 77.004421 146.809539 
L 77.511892 178.602325 
L 77.765627 168.316604 
L 77.892495 169.11791 
L 78.019363 170.186826 
L 78.14623 169.11791 
L 78.273098 171.522338 
L 78.399966 171.789439 
L 78.526834 169.78592 
L 78.653701 169.919215 
L 78.907437 166.980584 
L 79.161172 171.923245 
L 79.414908 168.850808 
L 79.668643 169.11791 
L 79.795511 170.587226 
L 79.922379 166.179277 
L 80.049247 166.312574 
L 80.302982 181.006753 
L 80.42985 170.721031 
L 80.556717 174.060571 
L 80.810453 192.228095 
L 80.937321 185.41521 
L 81.191056 193.029402 
L 81.444792 184.212996 
L 81.571659 185.281405 
L 81.825395 196.101839 
L 81.952263 184.747201 
L 82.07913 188.353842 
L 82.332866 204.784949 
L 82.459734 202.380011 
L 82.840337 185.148108 
L 83.094072 201.311602 
L 83.22094 201.177797 
L 83.347808 204.116938 
L 83.474675 200.242686 
L 83.728411 182.74368 
L 83.855279 185.949414 
L 84.109014 181.674762 
L 84.36275 203.048021 
L 84.616485 180.205447 
L 84.870221 191.025881 
L 84.997088 186.750721 
L 85.123956 193.563605 
L 85.250824 192.09429 
L 85.377692 185.816117 
L 85.631427 205.586255 
L 85.885163 194.632523 
L 86.01203 193.563605 
L 86.138898 194.231616 
L 86.265766 196.769849 
L 86.519501 188.353842 
L 86.773237 198.506268 
L 86.900104 194.231616 
L 87.15384 179.804539 
L 87.280708 186.216517 
L 87.534443 201.445408 
L 87.788179 191.025881 
L 88.041914 203.716031 
L 88.168782 201.979613 
L 88.549385 186.216517 
L 88.676253 187.685832 
L 88.929988 179.537437 
L 89.183724 187.552535 
L 89.437459 185.281405 
L 89.564327 187.552535 
L 89.94493 166.846778 
L 90.071798 140.797961 
L 90.198666 137.592226 
L 90.325533 142.13398 
L 90.452401 156.427251 
L 90.579269 148.81306 
L 90.706137 132.649565 
L 90.833004 136.79092 
L 90.959872 136.924217 
L 91.08674 126.371393 
L 91.340475 158.832187 
L 91.594211 132.649565 
L 91.847946 153.755721 
L 92.101682 131.180248 
L 92.22855 131.447351 
L 92.482285 155.225037 
L 92.609153 151.618396 
L 92.73602 144.672214 
L 92.989756 159.232587 
L 93.116624 149.213967 
L 93.243491 148.81306 
L 93.370359 152.954414 
L 93.497227 148.14505 
L 93.624095 147.744651 
L 93.750962 152.420211 
L 93.87783 152.1526 
L 94.004698 149.080161 
L 94.258433 156.160149 
L 94.512169 128.775821 
L 94.639037 137.859329 
L 94.765904 156.828159 
L 95.01964 130.913147 
L 95.273375 170.587226 
L 95.527111 138.79444 
L 95.653978 144.405111 
L 95.780846 141.733072 
L 95.907714 130.111331 
L 96.034582 129.844229 
L 96.415185 180.205447 
L 96.795788 236.444183 
L 96.922656 236.043275 
L 97.049524 238.04705 
L 97.430127 212.799538 
L 97.683862 218.009556 
L 98.064466 196.368941 
L 98.191333 172.991654 
L 98.318201 172.858357 
L 98.571936 168.717002 
L 98.825672 170.988133 
L 99.079407 163.774341 
L 99.206275 165.244165 
L 99.333143 169.251715 
L 99.460011 169.385012 
L 99.586878 169.78592 
L 99.840614 185.41521 
L 99.967482 186.216517 
L 100.094349 186.216517 
L 100.348085 166.44638 
L 100.474953 172.190347 
L 100.728688 191.827187 
L 100.855556 185.949414 
L 100.982424 188.487647 
L 101.109291 188.220546 
L 101.236159 180.472548 
L 101.363027 179.804539 
L 101.489894 186.216517 
L 101.616762 184.747201 
L 101.74363 179.671242 
L 101.870498 182.07567 
L 101.997365 180.739651 
L 102.124233 177.667213 
L 102.251101 183.277884 
L 102.377969 179.003232 
L 102.504836 169.919215 
L 102.758572 187.018332 
L 102.88544 185.148108 
L 103.139175 195.567635 
L 103.392911 182.74368 
L 103.646646 186.350322 
L 103.773514 187.285434 
L 104.154117 181.140559 
L 104.280985 184.480098 
L 104.407852 195.700932 
L 104.53472 197.036951 
L 104.788456 183.411181 
L 104.915323 183.544986 
L 105.042191 179.537437 
L 105.169059 180.739651 
L 105.295927 184.07919 
L 105.422794 182.609874 
L 105.549662 183.544986 
L 105.67653 186.216517 
L 105.803398 185.548506 
L 106.057133 177.667213 
L 106.184001 183.411181 
L 106.437736 152.019303 
L 106.564604 152.1526 
L 106.81834 172.858357 
L 106.945207 166.579676 
L 107.072075 167.648593 
L 107.198943 171.255235 
L 107.452678 155.358842 
L 107.706414 165.778369 
L 107.833281 163.10684 
L 107.960149 167.381492 
L 108.087017 166.980584 
L 108.213885 164.977063 
L 108.340752 169.919215 
L 108.46762 165.377462 
L 108.721356 151.217488 
L 108.848223 148.81306 
L 108.975091 151.618396 
L 109.228827 168.316604 
L 109.736298 151.618396 
L 109.863165 152.1526 
L 110.116901 155.625945 
L 110.370636 150.149079 
L 110.497504 152.954414 
L 110.624372 150.683284 
L 110.751239 153.889526 
L 110.878107 162.171728 
L 111.004975 160.4348 
L 111.25871 147.076641 
L 111.639314 153.488619 
L 111.893049 144.80551 
L 112.40052 166.179277 
L 112.527388 162.839738 
L 112.654256 163.373942 
L 112.781123 163.240136 
L 113.034859 149.481069 
L 113.161727 154.022823 
L 113.288594 153.889526 
L 113.54233 167.915696 
L 113.796065 155.893047 
L 114.049801 170.587226 
L 114.303536 160.301504 
L 114.430404 226.291758 
L 114.684139 235.375519 
L 114.937875 219.211771 
L 115.19161 225.623747 
L 115.445346 218.009556 
L 115.572214 218.677567 
L 115.952817 211.998232 
L 116.079685 212.132037 
L 116.206552 214.269108 
L 116.33342 211.731129 
L 116.587155 199.842286 
L 116.714023 200.510296 
L 117.094626 214.402914 
L 117.221494 210.929823 
L 117.602097 194.365421 
L 117.728965 196.502747 
L 118.109568 220.413984 
L 118.490172 199.174277 
L 118.743907 182.74368 
L 118.870775 183.010782 
L 119.12451 168.316604 
L 119.251378 171.389041 
L 119.378246 170.854327 
L 119.505114 165.911666 
L 119.758849 171.656143 
L 119.885717 169.919215 
L 120.139452 160.835708 
L 120.393188 154.156629 
L 120.520055 151.885497 
L 120.646923 146.809539 
L 120.900659 155.625945 
L 121.154394 140.530858 
L 121.40813 158.030373 
L 121.534997 149.347772 
L 121.661865 154.156629 
L 121.788733 164.44235 
L 122.042468 150.683284 
L 122.169336 152.420211 
L 122.549939 169.251715 
L 122.676807 167.915696 
L 122.803675 171.789439 
L 123.05741 187.685832 
L 123.184278 182.476069 
L 123.311146 169.251715 
L 123.438013 170.053021 
L 123.691749 186.750721 
L 123.818617 182.74368 
L 123.945484 185.014302 
L 124.072352 181.941865 
L 124.452955 157.763271 
L 124.960426 178.469028 
L 125.214162 164.977063 
L 125.467897 183.812089 
L 125.594765 176.865907 
L 125.721633 179.537437 
L 125.8485 186.350322 
L 126.102236 183.812089 
L 126.229104 189.288954 
L 126.355971 189.823159 
L 126.609707 181.140559 
L 126.863442 188.353842 
L 127.117178 182.07567 
L 127.370913 185.949414 
L 127.751517 161.236616 
L 127.878384 166.312574 
L 128.13212 182.476069 
L 128.258988 171.12143 
L 128.385855 170.186826 
L 128.639591 186.350322 
L 128.893326 182.07567 
L 129.020194 179.270335 
L 129.273929 170.721031 
L 129.527665 167.648593 
L 129.7814 173.125459 
L 129.908268 169.652114 
L 130.035136 172.056542 
L 130.162004 180.338743 
L 130.415739 166.846778 
L 130.542607 166.980584 
L 130.669475 172.190347 
L 130.796342 183.678792 
L 130.92321 182.609874 
L 131.176946 162.705932 
L 131.430681 171.12143 
L 131.684416 169.385012 
L 131.938152 186.617424 
L 132.191887 176.732101 
L 132.445623 183.411181 
L 132.572491 179.804539 
L 132.826226 190.090769 
L 132.953094 186.08322 
L 133.079962 187.552535 
L 133.206829 197.437859 
L 133.333697 195.032922 
L 133.460565 185.41521 
L 133.587433 185.816117 
L 133.7143 189.556056 
L 134.094904 184.613395 
L 134.221771 186.884526 
L 134.348639 192.495198 
L 134.602375 182.74368 
L 134.85611 202.380011 
L 135.109845 193.163207 
L 135.236713 193.43031 
L 135.490449 202.914725 
L 135.617316 195.834737 
L 135.871052 235.509071 
L 136.251655 159.767299 
L 136.378523 160.701903 
L 136.632258 153.622424 
L 137.139729 178.602325 
L 137.393465 208.524887 
L 137.520333 206.38756 
L 137.774068 222.818667 
L 138.154671 202.647622 
L 138.281539 201.845807 
L 138.78901 168.984105 
L 138.915878 170.053021 
L 139.042745 168.984105 
L 139.296481 165.644564 
L 139.550216 166.179277 
L 139.803952 170.453929 
L 139.93082 170.453929 
L 140.184555 169.518817 
L 140.565158 185.281405 
L 140.692026 187.018332 
L 140.945761 170.721031 
L 141.072629 176.865907 
L 141.326365 193.163207 
L 141.453232 195.567635 
L 141.5801 203.048021 
L 141.833836 184.212996 
L 142.087571 198.907175 
L 142.341307 182.876977 
L 142.595042 186.483618 
L 142.72191 185.548506 
L 142.848778 186.483618 
L 142.975645 186.08322 
L 143.102513 184.881005 
L 143.229381 185.548506 
L 143.736852 205.05205 
L 143.990587 192.495198 
L 144.244323 197.437859 
L 144.751794 166.312574 
L 144.878661 166.44638 
L 145.513 181.941865 
L 145.639868 183.812089 
L 145.766736 182.609874 
L 145.893603 183.678792 
L 146.147339 188.08674 
L 146.274207 189.422759 
L 146.401074 189.288954 
L 146.65481 181.808568 
L 146.781678 183.144078 
L 147.035413 150.149079 
L 147.162281 149.614875 
L 147.289148 154.022823 
L 147.542884 170.053021 
L 147.669752 166.713481 
L 147.796619 168.583705 
L 147.923487 168.583705 
L 148.177223 164.843257 
L 148.30409 163.774341 
L 148.938429 172.591255 
L 149.192165 168.182798 
L 149.4459 148.545957 
L 149.572768 152.553508 
L 149.826503 167.78189 
L 149.953371 166.579676 
L 150.080239 169.11791 
L 150.207106 163.507239 
L 150.333974 151.618396 
L 150.460842 153.755721 
L 150.714577 169.518817 
L 150.841445 165.644564 
L 150.968313 166.179277 
L 151.095181 168.583705 
L 151.348916 164.709452 
L 151.475784 171.389041 
L 151.602652 172.056542 
L 151.856387 150.282376 
L 151.983255 152.687313 
L 152.110123 158.297475 
L 152.23699 157.897077 
L 152.363858 152.1526 
L 152.490726 155.091741 
L 152.744461 170.053021 
L 152.871329 170.186826 
L 152.998197 174.193868 
L 153.505668 141.599775 
L 153.632535 131.180248 
L 153.886271 140.664663 
L 154.013139 131.981555 
L 154.140006 131.046443 
L 154.266874 135.588197 
L 154.52061 132.11536 
L 154.647477 134.385983 
L 154.774345 134.385983 
L 154.901213 132.649565 
L 155.154948 181.273855 
L 155.281816 190.224066 
L 155.535552 175.262785 
L 155.662419 175.663693 
L 155.916155 172.056542 
L 156.043022 171.789439 
L 156.296758 166.579676 
L 156.423626 169.11791 
L 156.550493 168.984105 
L 156.677361 167.381492 
L 156.804229 167.514788 
L 156.931097 162.973035 
L 157.184832 149.080161 
L 157.438568 157.897077 
L 157.692303 149.614875 
L 157.946039 153.488619 
L 158.072906 150.149079 
L 158.199774 142.534887 
L 158.326642 144.939315 
L 158.580377 168.182798 
L 158.834113 169.919215 
L 159.087848 152.954414 
L 159.341584 165.911666 
L 159.595319 162.171728 
L 159.722187 163.373942 
L 159.849055 162.171728 
L 160.10279 152.420211 
L 160.229658 155.358842 
L 160.356526 166.579676 
L 160.483393 166.179277 
L 160.737129 158.43128 
L 160.990864 167.114389 
L 161.2446 154.022823 
L 161.498335 171.522338 
L 161.625203 162.705932 
L 161.752071 161.904626 
L 162.005806 171.656143 
L 162.132674 171.12143 
L 162.386409 172.45745 
L 162.513277 170.988133 
L 162.640145 170.854327 
L 162.767013 171.789439 
L 162.89388 170.854327 
L 163.020748 176.197896 
L 163.147616 175.262785 
L 163.274484 178.201417 
L 163.528219 194.632523 
L 164.03569 166.846778 
L 164.289426 186.350322 
L 164.416293 186.617424 
L 164.543161 184.881005 
L 164.670029 186.08322 
L 164.796897 184.346293 
L 165.050632 169.652114 
L 165.304367 184.480098 
L 165.431235 185.816117 
L 165.558103 188.620944 
L 165.684971 186.483618 
L 165.811838 179.938344 
L 165.938706 180.472548 
L 166.192442 184.07919 
L 166.319309 183.544986 
L 166.573045 179.003232 
L 166.82678 188.487647 
L 167.207384 184.881005 
L 167.714855 183.010782 
L 168.095458 186.884526 
L 168.349193 171.12143 
L 168.476061 176.464999 
L 168.602929 191.693382 
L 168.729796 191.960484 
L 168.856664 182.876977 
L 168.983532 183.411181 
L 169.237267 189.689862 
L 169.364135 188.08674 
L 169.617871 182.342772 
L 169.871606 183.945894 
L 170.125342 179.270335 
L 170.379077 183.144078 
L 170.505945 182.609874 
L 170.632813 183.010782 
L 170.75968 180.472548 
L 171.013416 165.778369 
L 171.140283 164.44235 
L 171.267151 141.332674 
L 171.394019 142.401082 
L 171.520887 146.14153 
L 171.647754 155.75975 
L 171.90149 133.718482 
L 172.155225 140.797961 
L 172.282093 131.581156 
L 172.535829 152.553508 
L 172.789564 135.4549 
L 172.916432 140.797961 
L 173.0433 153.622424 
L 173.170167 148.81306 
L 173.297035 137.592226 
L 173.423903 142.534887 
L 173.677638 157.229066 
L 173.931374 150.416181 
L 174.185109 161.503718 
L 174.311977 154.156629 
L 174.565712 159.366392 
L 174.69258 151.351293 
L 174.819448 152.687313 
L 174.946316 159.232587 
L 175.073183 153.488619 
L 175.200051 154.957935 
L 175.326919 166.579676 
L 175.453787 166.579676 
L 175.707522 150.549987 
L 175.83439 154.289925 
L 175.961258 163.908147 
L 176.088125 161.904626 
L 176.214993 154.690833 
L 176.468729 173.526367 
L 176.722464 163.507239 
L 176.849332 168.583705 
L 176.9762 168.316604 
L 177.229935 158.164178 
L 177.356803 164.709452 
L 177.864274 221.883555 
L 177.991141 223.085768 
L 178.118009 219.87978 
L 178.244877 224.154432 
L 178.371745 221.215546 
L 178.62548 209.326702 
L 178.879216 214.135558 
L 179.132951 204.918245 
L 179.259819 206.788468 
L 179.386687 167.247686 
L 179.513554 166.713481 
L 179.640422 165.644564 
L 179.76729 167.247686 
L 179.894158 166.312574 
L 180.147893 158.297475 
L 180.528496 168.316604 
L 180.782232 164.041951 
L 181.289703 178.335223 
L 181.543438 161.236616 
L 181.670306 168.316604 
L 181.924041 187.018332 
L 182.050909 184.881005 
L 182.177777 185.281405 
L 182.304645 182.876977 
L 182.55838 167.247686 
L 182.685248 178.469028 
L 182.812116 177.801019 
L 182.938983 167.648593 
L 183.192719 178.335223 
L 183.319586 174.060571 
L 183.446454 175.930795 
L 183.573322 174.728581 
L 183.70019 168.316604 
L 184.207661 186.617424 
L 184.334528 185.41521 
L 184.588264 166.713481 
L 184.968867 182.609874 
L 185.095735 182.876977 
L 185.34947 168.984105 
L 185.476338 172.591255 
L 185.730074 186.216517 
L 186.110677 166.579676 
L 186.237544 168.182798 
L 186.364412 167.78189 
L 186.49128 165.377462 
L 186.618148 165.911666 
L 186.871883 169.385012 
L 187.252486 163.10684 
L 187.506222 172.724551 
L 187.759957 155.091741 
L 188.013693 174.327674 
L 188.267428 167.114389 
L 188.394296 169.919215 
L 188.648032 164.175248 
L 188.774899 165.644564 
L 189.028635 165.377462 
L 189.28237 168.182798 
L 189.409238 168.583705 
L 189.536106 168.182798 
L 189.789841 169.518817 
L 190.043577 153.622424 
L 190.297312 174.327674 
L 190.42418 173.259265 
L 190.551048 169.78592 
L 190.677915 171.389041 
L 190.931651 158.832187 
L 191.058519 160.835708 
L 191.185386 167.915696 
L 191.312254 165.377462 
L 191.439122 154.022823 
L 191.56599 153.354814 
L 191.819725 165.778369 
L 191.946593 162.973035 
L 192.200328 171.789439 
L 192.454064 150.015273 
L 192.580931 151.752201 
L 192.707799 155.75975 
L 192.834667 153.889526 
L 193.088402 146.14153 
L 193.21527 151.885497 
L 193.469006 169.251715 
L 193.722741 166.045472 
L 193.976477 170.587226 
L 194.230212 162.572127 
L 194.35708 168.583705 
L 194.483948 168.583705 
L 194.610815 169.919215 
L 194.737683 178.869427 
L 194.864551 176.732101 
L 194.991419 170.854327 
L 195.245154 185.014302 
L 195.372022 182.208966 
L 195.498889 183.144078 
L 195.752625 204.250235 
L 195.879493 205.586255 
L 196.133228 197.036951 
L 196.260096 198.239165 
L 196.513831 185.281405 
L 196.767567 192.628494 
L 197.021302 186.08322 
L 197.14817 186.08322 
L 197.275038 184.212996 
L 197.401906 185.949414 
L 197.528773 186.08322 
L 197.782509 182.342772 
L 197.909377 182.74368 
L 198.036244 184.747201 
L 198.163112 183.544986 
L 198.28998 178.335223 
L 198.416847 178.736131 
L 198.543715 180.071641 
L 198.797451 164.309053 
L 198.924318 169.385012 
L 199.178054 189.422759 
L 199.304922 191.025881 
L 199.685525 183.411181 
L 199.812393 183.277884 
L 199.93926 185.41521 
L 200.192996 183.277884 
L 200.446731 188.75475 
L 200.700467 182.74368 
L 200.827335 186.750721 
L 201.08107 181.674762 
L 201.207938 183.678792 
L 201.461673 180.338743 
L 201.588541 183.812089 
L 201.715409 183.411181 
L 201.842276 181.540957 
L 201.969144 186.350322 
L 202.096012 186.483618 
L 202.22288 179.403632 
L 202.349747 179.403632 
L 202.476615 186.216517 
L 202.603483 186.617424 
L 202.730351 181.808568 
L 202.984086 189.021852 
L 203.110954 187.41873 
L 203.364689 190.357871 
L 203.491557 189.422759 
L 203.618425 193.163207 
L 203.745293 171.923245 
L 203.87216 170.186826 
L 204.125896 186.750721 
L 204.252764 184.346293 
L 204.633367 167.114389 
L 205.01397 180.873456 
L 205.140838 180.472548 
L 205.394573 169.385012 
L 205.521441 163.507239 
L 205.775176 167.915696 
L 205.902044 167.514788 
L 206.15578 183.945894 
L 206.409515 163.240136 
L 206.663251 172.991654 
L 206.790118 169.518817 
L 207.043854 170.721031 
L 207.170722 166.713481 
L 207.297589 172.724551 
L 207.424457 185.41521 
L 207.551325 182.342772 
L 207.678192 169.11791 
L 207.80506 167.514788 
L 207.931928 171.923245 
L 208.185663 167.648593 
L 208.312531 169.78592 
L 208.566267 181.941865 
L 208.94687 166.579676 
L 209.073738 168.984105 
L 209.327473 182.609874 
L 209.581209 176.865907 
L 209.961812 183.678792 
L 210.215547 173.392562 
L 210.342415 177.266305 
L 210.469283 175.262785 
L 210.59615 169.11791 
L 210.849886 173.125459 
L 210.976754 170.453929 
L 211.230489 172.991654 
L 211.484225 170.988133 
L 211.73796 152.820609 
L 211.864828 178.869427 
L 211.991696 181.40766 
L 212.118563 181.540957 
L 212.372299 179.537437 
L 212.626034 168.850808 
L 213.006638 183.678792 
L 213.133505 181.941865 
L 213.260373 181.941865 
L 213.514108 188.08674 
L 213.640976 187.41873 
L 213.894712 184.212996 
L 214.275315 186.08322 
L 214.402183 184.346293 
L 214.52905 184.613395 
L 214.655918 187.819638 
L 214.782786 186.884526 
L 214.909654 184.881005 
L 215.036521 185.148108 
L 215.290257 180.205447 
L 215.543992 186.216517 
L 215.67086 183.010782 
L 215.797728 184.613395 
L 215.924596 188.220546 
L 216.305199 179.403632 
L 216.685802 182.876977 
L 216.81267 181.273855 
L 217.066405 200.510296 
L 217.447008 173.259265 
L 217.700744 165.511268 
L 217.954479 164.709452 
L 218.081347 165.911666 
L 218.208215 170.053021 
L 218.46195 193.697411 
L 218.715686 188.08674 
L 218.842554 197.036951 
L 218.969421 193.296504 
L 219.096289 181.808568 
L 219.476892 186.617424 
L 219.60376 191.960484 
L 219.730628 191.960484 
L 219.857495 190.224066 
L 219.984363 138.527338 
L 220.111231 138.393533 
L 220.238099 137.592226 
L 220.491834 138.527338 
L 220.74557 136.924217 
L 220.872437 133.718482 
L 220.999305 136.12291 
L 221.126173 145.740622 
L 221.253041 145.47352 
L 221.379908 138.527338 
L 221.633644 152.019303 
L 221.760512 151.618396 
L 221.887379 153.889526 
L 222.014247 151.885497 
L 222.141115 143.737102 
L 222.267983 147.744651 
L 222.39485 157.496169 
L 222.521718 157.362363 
L 222.648586 151.485099 
L 222.775453 151.351293 
L 222.902321 152.420211 
L 223.029189 150.549987 
L 223.156057 150.549987 
L 223.409792 152.954414 
L 223.663528 150.015273 
L 223.790395 150.683284 
L 224.044131 153.622424 
L 224.170999 150.683284 
L 224.297866 151.485099 
L 224.551602 154.957935 
L 224.67847 156.961965 
L 224.932205 165.244165 
L 225.185941 148.81306 
L 225.693411 154.690833 
L 225.820279 155.625945 
L 225.947147 151.752201 
L 226.074015 152.420211 
L 226.32775 164.175248 
L 226.581486 152.820609 
L 226.708353 154.42373 
L 226.835221 152.687313 
L 227.088957 160.167699 
L 227.342692 150.817089 
L 227.596428 156.561057 
L 227.850163 144.80551 
L 227.977031 148.679763 
L 228.103899 168.717002 
L 228.230766 156.828159 
L 228.357634 156.427251 
L 228.611369 168.4499 
L 228.738237 165.377462 
L 228.991973 170.320123 
L 229.245708 162.572127 
L 229.372576 163.641044 
L 229.499444 162.973035 
L 229.753179 169.518817 
L 229.880047 168.850808 
L 230.133782 172.591255 
L 230.26065 171.12143 
L 230.387518 168.049501 
L 230.641253 156.561057 
L 230.894989 171.522338 
L 231.021857 167.648593 
L 231.148724 167.247686 
L 231.275592 167.648593 
L 231.529328 151.752201 
L 231.656195 153.221517 
L 231.783063 157.095261 
L 231.909931 156.293954 
L 232.036798 152.1526 
L 232.163666 153.622424 
L 232.290534 157.362363 
L 232.417402 153.488619 
L 232.544269 154.957935 
L 232.671137 165.244165 
L 232.798005 162.839738 
L 232.924873 152.420211 
L 233.05174 152.820609 
L 233.178608 155.358842 
L 233.305476 155.091741 
L 233.432344 158.297475 
L 233.686079 148.41266 
L 233.812947 154.824638 
L 234.066682 172.724551 
L 234.320418 162.171728 
L 234.574153 167.514788 
L 234.827889 153.087711 
L 235.33536 167.247686 
L 235.462227 166.713481 
L 235.589095 166.846778 
L 235.715963 169.11791 
L 235.969698 164.576156 
L 236.096566 166.44638 
L 236.223434 84.960387 
L 236.477169 108.337165 
L 236.730905 99.119852 
L 236.98464 102.4599 
L 237.365244 88.567028 
L 237.618979 89.769242 
L 237.872714 107.802961 
L 237.999582 106.199839 
L 238.253318 82.288347 
L 238.380185 79.483521 
L 239.014524 115.81806 
L 239.141392 118.089191 
L 239.395127 105.264728 
L 239.648863 129.176219 
L 239.775731 130.111331 
L 240.029466 136.256206 
L 240.156334 132.382463 
L 240.283202 132.11536 
L 240.536937 134.252687 
L 240.790672 137.325124 
L 241.044408 136.657114 
L 241.298143 132.78337 
L 241.551879 138.527338 
L 241.805614 135.321094 
L 242.186218 139.195348 
L 242.439953 131.848259 
L 242.693689 157.362363 
L 242.947424 143.336194 
L 243.20116 162.705932 
L 243.328027 152.286405 
L 243.454895 153.354814 
L 243.581763 165.911666 
L 243.708631 166.713481 
L 243.835498 160.4348 
L 244.089234 164.309053 
L 244.216101 164.175248 
L 244.342969 217.341547 
L 244.469837 213.333998 
L 244.723572 221.349096 
L 244.85044 216.673792 
L 244.977308 217.608903 
L 245.104176 217.207995 
L 245.231043 213.601353 
L 245.865382 219.87978 
L 246.119118 212.799538 
L 246.372853 209.326702 
L 246.753456 222.284208 
L 247.007192 205.853356 
L 247.260927 220.146882 
L 247.387795 216.807343 
L 247.514663 217.074444 
L 247.64153 218.944668 
L 247.768398 214.002007 
L 247.895266 216.940893 
L 248.022134 223.21932 
L 248.275869 216.807343 
L 248.402737 216.807343 
L 248.656472 216.139332 
L 248.910208 214.536465 
L 249.163943 217.341547 
L 249.290811 218.811117 
L 249.544547 199.842286 
L 249.671414 207.72358 
L 249.798282 222.952218 
L 249.92515 219.612677 
L 250.052017 211.06312 
L 250.432621 223.486422 
L 250.559488 217.341547 
L 250.686356 205.319152 
L 250.813224 204.384041 
L 250.940092 210.929823 
L 251.066959 207.456478 
L 251.193827 198.10536 
L 251.320695 199.174277 
L 251.447563 203.448929 
L 251.57443 203.048021 
L 251.701298 200.376491 
L 251.828166 200.376491 
L 251.955034 202.246714 
L 252.335637 182.342772 
L 252.462505 131.981555 
L 252.589372 132.11536 
L 252.843108 139.996654 
L 253.096843 121.562028 
L 253.223711 133.050472 
L 253.350579 127.706903 
L 253.477446 112.879427 
L 253.731182 144.939315 
L 253.984917 133.317575 
L 254.111785 149.213967 
L 254.238653 148.679763 
L 254.492388 130.512239 
L 254.746124 140.13046 
L 254.872992 139.595746 
L 254.999859 141.065571 
L 255.126727 140.931766 
L 255.253595 139.996654 
L 255.50733 134.385983 
L 255.761066 140.263757 
L 256.014801 135.588197 
L 256.141669 138.12643 
L 256.268537 137.191318 
L 256.395404 132.78337 
L 256.522272 132.916667 
L 256.64914 136.924217 
L 256.776008 131.848259 
L 256.902875 119.424702 
L 257.029743 119.691804 
L 257.283479 138.393533 
L 257.410346 134.118881 
L 257.537214 138.12643 
L 257.664082 150.549987 
L 257.79095 149.748172 
L 257.917817 146.675733 
L 258.171553 169.251715 
L 258.425288 161.102811 
L 259.313362 243.123262 
L 259.44023 236.310631 
L 259.567098 219.345322 
L 259.693966 221.081994 
L 259.820833 232.436633 
L 259.947701 228.829737 
L 260.201437 214.002007 
L 260.328304 216.940893 
L 260.455172 209.326702 
L 260.58204 169.652114 
L 260.708908 168.182798 
L 260.835775 162.037923 
L 260.962643 161.503718 
L 261.216379 172.991654 
L 261.470114 165.11036 
L 261.72385 172.724551 
L 261.850717 167.381492 
L 261.977585 169.518817 
L 262.23132 185.816117 
L 262.358188 183.411181 
L 262.485056 188.220546 
L 262.611924 187.285434 
L 262.738791 176.999203 
L 262.865659 178.335223 
L 262.992527 190.624974 
L 263.119395 190.224066 
L 263.246262 186.483618 
L 263.37313 197.036951 
L 263.499998 197.972063 
L 263.753733 178.602325 
L 263.880601 188.888555 
L 264.007469 184.881005 
L 264.134337 175.262785 
L 264.388072 182.476069 
L 264.641808 165.911666 
L 264.768675 168.182798 
L 264.895543 168.182798 
L 265.022411 167.514788 
L 265.149278 169.11791 
L 265.276146 174.461478 
L 265.529882 189.155658 
L 265.783617 170.587226 
L 266.16422 171.789439 
L 266.291088 171.389041 
L 266.417956 168.984105 
L 266.544824 171.789439 
L 266.798559 196.636044 
L 266.925427 191.827187 
L 267.179162 167.648593 
L 267.30603 168.049501 
L 267.559766 158.698383 
L 267.813501 171.12143 
L 267.940369 169.251715 
L 268.194104 174.728581 
L 268.44784 167.114389 
L 268.574707 176.999203 
L 268.955311 162.037923 
L 269.209046 181.40766 
L 269.462782 170.320123 
L 269.589649 176.732101 
L 269.843385 165.778369 
L 269.970253 169.385012 
L 270.09712 167.915696 
L 270.223988 172.190347 
L 270.477724 187.285434 
L 270.604591 182.609874 
L 270.858327 187.018332 
L 271.23893 163.240136 
L 271.492665 179.403632 
L 271.746401 172.056542 
L 271.873269 175.663693 
L 272.000136 174.594775 
L 272.127004 165.377462 
L 272.253872 166.045472 
L 272.38074 171.789439 
L 272.507607 171.789439 
L 272.634475 171.12143 
L 272.888211 186.350322 
L 273.141946 170.988133 
L 273.395682 188.487647 
L 273.649417 168.4499 
L 273.903153 171.656143 
L 274.03002 167.381492 
L 274.283756 152.420211 
L 274.791227 181.540957 
L 275.044962 171.12143 
L 275.17183 180.472548 
L 275.425565 167.247686 
L 275.679301 182.07567 
L 275.806169 180.739651 
L 275.933036 185.41521 
L 276.186772 170.721031 
L 276.440507 186.216517 
L 276.694243 180.071641 
L 276.821111 167.247686 
L 277.074846 176.598804 
L 277.328581 170.053021 
L 277.582317 175.930795 
L 277.836052 168.717002 
L 277.96292 171.255235 
L 278.089788 169.919215 
L 278.216656 170.053021 
L 278.343523 172.858357 
L 278.470391 171.923245 
L 278.724127 162.973035 
L 278.977862 150.950385 
L 279.358465 168.984105 
L 279.485333 167.648593 
L 279.612201 168.182798 
L 279.739069 166.846778 
L 279.992804 154.289925 
L 280.246539 170.587226 
L 280.373407 169.518817 
L 280.627143 172.991654 
L 280.880878 167.514788 
L 281.388349 171.923245 
L 281.642085 167.648593 
L 281.768952 169.518817 
L 282.022688 167.114389 
L 282.276423 169.11791 
L 282.530159 167.915696 
L 282.783894 168.850808 
L 283.03763 166.312574 
L 283.291365 171.12143 
L 283.545101 164.44235 
L 283.798836 180.472548 
L 284.052572 170.186826 
L 284.306307 183.277884 
L 284.560043 169.652114 
L 284.68691 171.522338 
L 284.813778 179.003232 
L 285.067514 197.838257 
L 285.194381 205.05205 
L 285.321249 203.315123 
L 285.701852 188.620944 
L 285.82872 189.689862 
L 286.082456 200.510296 
L 286.209323 200.376491 
L 286.336191 196.636044 
L 286.589926 201.979613 
L 286.843662 190.75827 
L 287.224265 198.907175 
L 287.351133 202.246714 
L 287.604868 194.365421 
L 287.858604 202.380011 
L 287.985472 198.239165 
L 288.239207 202.380011 
L 288.366075 198.506268 
L 288.492943 198.773369 
L 288.61981 203.181826 
L 288.873546 198.372971 
L 289.000414 199.040472 
L 289.254149 200.376491 
L 289.507884 195.433829 
L 289.76162 202.780919 
L 289.888488 199.441379 
L 290.142223 183.945894 
L 290.395959 203.315123 
L 290.649694 197.437859 
L 290.90343 202.513817 
L 291.030297 201.845807 
L 291.157165 202.780919 
L 291.284033 200.643593 
L 291.537768 194.098319 
L 291.664636 197.036951 
L 291.791504 194.76582 
L 291.918372 189.823159 
L 292.045239 191.960484 
L 292.172107 197.972063 
L 292.298975 198.372971 
L 292.425842 197.437859 
L 292.55271 197.838257 
L 292.806446 183.411181 
L 292.933313 185.281405 
L 293.060181 161.904626 
L 293.187049 161.236616 
L 293.313917 166.980584 
L 293.440784 167.114389 
L 293.69452 150.950385 
L 293.821388 158.43128 
L 293.948255 155.225037 
L 294.075123 148.41266 
L 294.328859 169.78592 
L 294.582594 151.485099 
L 294.83633 168.316604 
L 295.090065 154.156629 
L 295.3438 169.652114 
L 295.470668 169.11791 
L 295.597536 165.511268 
L 295.851271 170.587226 
L 296.105007 166.44638 
L 296.358742 171.656143 
L 296.612478 166.980584 
L 296.866213 170.453929 
L 297.119949 170.854327 
L 297.373684 172.858357 
L 297.62742 168.4499 
L 297.754288 170.721031 
L 297.881155 170.587226 
L 298.008023 168.182798 
L 298.134891 168.850808 
L 298.261758 171.12143 
L 298.388626 170.320123 
L 298.769229 184.480098 
L 299.022965 176.999203 
L 299.657304 222.017106 
L 299.911039 218.276659 
L 300.037907 222.284208 
L 300.291642 215.872231 
L 300.545378 210.128008 
L 300.672246 209.459999 
L 300.799113 209.72761 
L 300.925981 211.597324 
L 301.052849 208.658692 
L 301.306584 173.392562 
L 301.433452 169.919215 
L 301.56032 171.389041 
L 301.687187 170.320123 
L 301.814055 170.453929 
L 301.940923 173.125459 
L 302.067791 170.453929 
L 302.194658 172.991654 
L 302.321526 179.003232 
L 302.575262 175.262785 
L 302.828997 186.750721 
L 302.955865 183.678792 
L 303.082733 185.548506 
L 303.2096 184.747201 
L 303.336468 178.602325 
L 303.463336 179.938344 
L 303.717071 199.308082 
L 303.843939 197.972063 
L 304.097675 188.888555 
L 304.224542 181.808568 
L 304.35141 183.411181 
L 304.478278 188.220546 
L 304.732013 184.480098 
L 304.858881 185.816117 
L 304.985749 185.682312 
L 305.112616 184.07919 
L 305.239484 184.881005 
L 305.366352 183.812089 
L 305.49322 181.540957 
L 305.620087 181.674762 
L 305.746955 183.812089 
L 306.000691 195.700932 
L 306.254426 183.411181 
L 306.381294 185.816117 
L 306.508162 182.876977 
L 306.635029 183.678792 
L 306.761897 193.163207 
L 306.888765 191.827187 
L 307.015633 183.812089 
L 307.1425 187.819638 
L 307.396236 199.308082 
L 307.523103 199.040472 
L 308.157442 170.988133 
L 308.411178 180.071641 
L 308.538045 181.140559 
L 308.664913 183.678792 
L 308.918649 180.472548 
L 309.172384 186.750721 
L 309.42612 168.984105 
L 309.552987 168.316604 
L 309.806723 186.483618 
L 310.060458 182.342772 
L 310.187326 180.739651 
L 310.441061 170.854327 
L 310.567929 175.128979 
L 310.694797 171.522338 
L 310.821665 171.923245 
L 310.948532 179.003232 
L 311.0754 179.671242 
L 311.202268 175.79699 
L 311.329136 176.197896 
L 311.456003 177.400111 
L 311.582871 175.262785 
L 311.836607 168.717002 
L 312.21721 186.483618 
L 312.344078 184.881005 
L 312.470945 185.014302 
L 312.597813 179.537437 
L 312.724681 166.846778 
L 312.851549 167.915696 
L 312.978416 176.464999 
L 313.105284 175.128979 
L 313.232152 169.385012 
L 313.35902 169.78592 
L 313.485887 172.591255 
L 313.612755 172.591255 
L 313.739623 172.056542 
L 313.993358 173.392562 
L 314.373961 166.312574 
L 314.500829 169.251715 
L 314.627697 166.312574 
L 314.754565 155.75975 
L 314.881432 154.557536 
L 315.135168 167.247686 
L 315.388903 170.053021 
L 315.515771 169.518817 
L 315.769507 174.728581 
L 316.023242 166.846778 
L 316.403845 182.74368 
L 316.530713 184.480098 
L 316.657581 182.208966 
L 316.784448 182.476069 
L 316.911316 185.148108 
L 317.038184 184.613395 
L 317.165052 185.41521 
L 317.291919 188.220546 
L 317.418787 97.517239 
L 317.672523 117.955385 
L 317.926258 98.051443 
L 318.053126 102.593197 
L 318.179994 103.127401 
L 318.433729 87.231009 
L 318.560597 85.227488 
L 318.687465 85.093683 
L 318.9412 87.765213 
L 319.068068 91.505661 
L 319.194936 90.971457 
L 319.575539 57.575549 
L 319.829274 74.139952 
L 319.956142 83.891469 
L 320.08301 84.559479 
L 320.209877 84.425673 
L 320.336745 87.364815 
L 320.590481 74.807961 
L 320.844216 104.864329 
L 320.971084 108.47097 
L 321.097952 117.955385 
L 321.224819 116.619367 
L 321.478555 101.791891 
L 321.73229 111.676706 
L 321.986026 116.619367 
L 322.112894 114.615846 
L 322.366629 119.291405 
L 322.620364 112.47852 
L 322.8741 118.623396 
L 323.000968 116.753172 
L 323.127835 117.955385 
L 323.381571 122.764242 
L 323.508439 112.211418 
L 323.635306 111.810511 
L 323.889042 137.993133 
L 324.01591 119.825609 
L 324.142777 119.424702 
L 324.396513 143.202897 
L 324.523381 136.256206 
L 324.650248 137.191318 
L 324.777116 144.538408 
L 324.903984 142.267786 
L 325.030852 135.4549 
L 325.284587 135.053993 
L 325.411455 139.46245 
L 325.538322 169.518817 
L 325.66519 169.518817 
L 325.918926 185.548506 
L 326.172661 176.999203 
L 326.299529 178.469028 
L 326.426397 173.259265 
L 326.553264 172.858357 
L 326.680132 174.995683 
L 327.060735 170.320123 
L 327.314471 149.481069 
L 327.441339 148.946865 
L 327.695074 147.610845 
L 327.94881 167.247686 
L 328.202545 144.405111 
L 328.456281 155.75975 
L 328.583148 152.553508 
L 328.836884 152.1526 
L 328.963751 147.610845 
L 329.090619 149.748172 
L 329.217487 156.427251 
L 329.344355 155.492139 
L 329.59809 146.942836 
L 329.851826 150.149079 
L 329.978693 146.408632 
L 330.105561 146.007724 
L 330.359297 148.14505 
L 330.486164 151.084191 
L 330.7399 135.722002 
L 330.993635 157.629974 
L 331.120503 154.824638 
L 331.247371 148.011753 
L 331.374239 147.744651 
L 331.627974 155.358842 
L 331.754842 153.087711 
L 332.008577 133.584676 
L 332.135445 136.79092 
L 332.262313 135.053993 
L 332.516048 113.546928 
L 332.769784 132.382463 
L 333.023519 129.310024 
L 333.150387 129.844229 
L 333.404122 108.203869 
L 333.53099 108.337165 
L 333.657858 53.568 
L 333.784726 56.373335 
L 333.911593 69.731495 
L 334.038461 66.258658 
L 334.165329 55.705325 
L 334.419064 58.510661 
L 334.545932 58.510661 
L 334.799667 69.331096 
L 334.926535 67.861271 
L 335.307138 79.349715 
L 335.434006 87.631916 
L 335.560874 84.025275 
L 335.814609 71.334616 
L 335.941477 72.403533 
L 336.32208 91.772762 
L 336.575816 72.403533 
L 336.829551 91.105261 
L 337.083287 66.52576 
L 337.337022 91.906568 
L 337.46389 78.681706 
L 337.590758 78.948807 
L 337.844493 91.238558 
L 337.971361 89.235038 
L 338.225096 69.8653 
L 338.6057 95.51321 
L 338.732567 101.257178 
L 338.859435 114.348744 
L 338.986303 115.016754 
L 339.113171 119.558508 
L 339.366906 139.195348 
L 339.493774 139.595746 
L 339.747509 156.026853 
L 339.874377 177.533916 
L 340.128113 245.127037 
L 340.635584 291.614256 
L 340.762451 295.488 
L 341.016187 248.065924 
L 341.39679 266.500549 
L 341.523658 268.771427 
L 341.650525 260.756328 
L 341.777393 101.524788 
L 342.031129 89.368334 
L 342.411732 108.203869 
L 342.5386 104.864329 
L 342.665467 105.665636 
L 343.046071 121.428732 
L 343.172938 118.890497 
L 343.680409 139.195348 
L 343.934145 118.890497 
L 344.441616 148.946865 
L 344.568483 155.625945 
L 344.695351 149.080161 
L 344.822219 135.321094 
L 344.949087 138.660634 
L 345.075954 152.954414 
L 345.202822 150.950385 
L 345.32969 143.202897 
L 345.456558 150.282376 
L 345.583425 148.545957 
L 345.837161 133.183769 
L 345.964029 136.256206 
L 346.090896 132.51576 
L 346.217764 132.51576 
L 346.725235 163.10684 
L 346.97897 147.877948 
L 347.105838 152.687313 
L 347.232706 153.087711 
L 347.359574 155.75975 
L 347.486441 161.369912 
L 347.740177 159.366392 
L 347.993912 186.617424 
L 348.12078 185.949414 
L 348.374516 167.915696 
L 348.501383 170.854327 
L 348.628251 167.915696 
L 348.755119 160.835708 
L 349.008854 168.182798 
L 349.135722 166.312574 
L 349.26259 167.114389 
L 349.389458 171.789439 
L 349.643193 167.78189 
L 349.770061 177.934315 
L 349.896928 262.092092 
L 350.150664 250.069698 
L 350.404399 272.511619 
L 350.658135 266.901203 
L 350.785003 267.168306 
L 351.038738 255.680115 
L 351.165606 257.683891 
L 351.292474 256.081022 
L 351.546209 270.908752 
L 351.673077 269.84009 
L 351.799945 266.901203 
L 351.926812 267.569213 
L 352.05368 269.572733 
L 352.180548 265.698989 
L 352.434283 243.123262 
L 352.688019 260.622776 
L 352.814886 260.22187 
L 352.941754 260.489225 
L 353.068622 265.298082 
L 353.19549 262.760103 
L 353.322357 253.542789 
L 353.449225 254.077248 
L 353.829828 272.378069 
L 353.956696 271.576508 
L 354.083564 269.17208 
L 354.337299 261.958542 
L 354.591035 270.107192 
L 354.84477 259.954767 
L 354.971638 259.821216 
L 355.098506 257.683891 
L 355.479109 239.516621 
L 355.605977 242.455253 
L 355.98658 257.01588 
L 356.113448 248.733679 
L 356.240315 248.466577 
L 356.367183 253.142136 
L 356.620919 239.917274 
L 357.001522 249.802342 
L 357.12839 251.405464 
L 357.382125 249.668791 
L 357.635861 254.477901 
L 357.889596 248.065924 
L 358.016464 179.938344 
L 358.270199 200.376491 
L 358.523935 181.40766 
L 358.77767 186.617424 
L 359.285141 168.182798 
L 359.538877 182.342772 
L 359.792612 172.324153 
L 360.173215 146.675733 
L 360.553819 167.381492 
L 360.680686 166.179277 
L 360.807554 166.179277 
L 360.934422 167.247686 
L 361.188157 151.217488 
L 361.568761 178.736131 
L 361.695628 185.816117 
L 361.822496 181.006753 
L 361.949364 167.114389 
L 362.076231 166.312574 
L 362.203099 170.587226 
L 362.329967 170.854327 
L 362.456835 176.999203 
L 362.583702 176.865907 
L 362.71057 172.724551 
L 362.964306 179.270335 
L 363.091173 168.717002 
L 363.218041 167.78189 
L 363.344909 177.667213 
L 363.471777 175.128979 
L 363.598644 167.381492 
L 363.725512 167.915696 
L 363.979248 179.270335 
L 364.232983 166.44638 
L 364.486719 187.285434 
L 364.740454 174.861878 
L 364.994189 204.784949 
L 365.247925 184.747201 
L 365.50166 193.697411 
L 365.628528 183.678792 
L 365.755396 184.747201 
L 365.882264 187.819638 
L 366.135999 182.476069 
L 366.262867 184.346293 
L 366.516602 189.956964 
L 366.64347 186.617424 
L 367.024073 167.381492 
L 367.404677 181.674762 
L 367.531544 179.136529 
L 367.912148 158.164178 
L 368.039015 153.354814 
L 368.165883 153.755721 
L 368.546486 176.732101 
L 368.800222 163.10684 
L 369.053957 168.717002 
L 369.180825 166.846778 
L 369.43456 169.78592 
L 369.561428 166.312574 
L 369.815164 181.941865 
L 369.942031 179.403632 
L 370.195767 167.78189 
L 370.322635 168.850808 
L 370.449502 166.713481 
L 370.57637 167.247686 
L 370.703238 169.385012 
L 370.956973 166.579676 
L 371.083841 167.247686 
L 371.337576 151.618396 
L 371.591312 174.060571 
L 371.71818 171.522338 
L 371.845047 165.644564 
L 371.971915 166.980584 
L 372.225651 171.522338 
L 372.352518 169.518817 
L 372.479386 165.511268 
L 372.606254 165.377462 
L 372.733122 163.507239 
L 372.986857 150.015273 
L 373.113725 150.282376 
L 373.494328 165.778369 
L 373.621196 166.579676 
L 373.748064 163.774341 
L 374.001799 146.675733 
L 374.128667 146.809539 
L 374.255534 177.266305 
L 374.382402 161.102811 
L 374.636138 195.032922 
L 374.889873 172.591255 
L 375.016741 183.678792 
L 375.270476 167.915696 
L 375.524212 194.632523 
L 375.65108 179.537437 
L 375.777947 180.338743 
L 375.904815 187.685832 
L 376.031683 181.808568 
L 376.285418 160.034402 
L 376.539154 196.903145 
L 376.666022 188.08674 
L 376.792889 169.518817 
L 376.919757 176.598804 
L 377.046625 193.964513 
L 377.173492 186.350322 
L 377.30036 166.980584 
L 377.427228 171.923245 
L 377.554096 188.220546 
L 377.680963 186.08322 
L 377.807831 181.006753 
L 377.934699 186.750721 
L 378.061567 185.014302 
L 378.188434 177.801019 
L 378.44217 183.277884 
L 378.569038 177.801019 
L 378.695905 165.11036 
L 378.822773 168.583705 
L 378.949641 183.678792 
L 379.076509 179.136529 
L 379.203376 169.11791 
L 379.457112 187.285434 
L 379.58398 178.335223 
L 379.837715 184.613395 
L 380.09145 161.503718 
L 380.218318 162.973035 
L 380.472054 204.250235 
L 380.852657 270.374294 
L 381.106392 286.404493 
L 381.486996 269.572733 
L 381.740731 246.462802 
L 381.994467 265.431633 
L 382.248202 237.245489 
L 382.37507 147.610845 
L 382.501938 148.011753 
L 382.628805 144.271306 
L 382.755673 146.675733 
L 382.882541 152.019303 
L 383.009409 151.217488 
L 383.263144 147.076641 
L 383.770615 151.618396 
L 384.151218 167.247686 
L 384.278086 166.579676 
L 384.531821 144.939315 
L 384.658689 153.488619 
L 384.785557 171.522338 
L 384.912425 171.789439 
L 385.039292 166.312574 
L 385.16616 172.324153 
L 385.293028 167.648593 
L 385.419896 150.950385 
L 385.546763 154.557536 
L 385.673631 169.652114 
L 385.800499 167.114389 
L 385.927367 160.4348 
L 386.054234 165.377462 
L 386.181102 161.369912 
L 386.30797 151.351293 
L 386.561705 155.225037 
L 386.688573 150.549987 
L 386.815441 151.084191 
L 387.196044 171.789439 
L 387.322912 170.587226 
L 387.449779 159.900596 
L 387.576647 160.301504 
L 387.703515 167.78189 
L 387.95725 164.977063 
L 388.084118 166.713481 
L 388.337854 155.492139 
L 388.591589 174.060571 
L 389.352795 150.015273 
L 389.479663 151.351293 
L 389.733399 159.499688 
L 389.860266 166.312574 
L 389.987134 164.977063 
L 390.114002 156.026853 
L 390.24087 156.427251 
L 390.367737 168.4499 
L 390.494605 168.583705 
L 390.748341 152.687313 
L 391.002076 173.526367 
L 391.255812 166.713481 
L 391.382679 169.385012 
L 391.636415 162.305024 
L 392.143886 170.453929 
L 392.270753 168.4499 
L 392.397621 163.908147 
L 392.651357 168.4499 
L 393.03196 148.946865 
L 393.412563 170.988133 
L 393.539431 166.846778 
L 393.666299 169.518817 
L 393.793166 164.175248 
L 393.920034 148.81306 
L 394.046902 150.015273 
L 394.300637 165.11036 
L 394.427505 162.037923 
L 394.681241 165.911666 
L 394.808108 164.309053 
L 394.934976 164.709452 
L 395.188711 170.587226 
L 395.315579 165.778369 
L 395.442447 154.957935 
L 395.569315 156.293954 
L 395.696182 163.10684 
L 395.82305 158.832187 
L 395.949918 148.545957 
L 396.076786 147.744651 
L 396.457389 170.053021 
L 396.584257 168.182798 
L 396.711124 163.240136 
L 396.96486 169.652114 
L 397.218595 148.011753 
L 397.472331 166.44638 
L 397.599199 164.709452 
L 397.852934 167.78189 
L 397.979802 166.179277 
L 398.360405 168.583705 
L 398.487273 168.984105 
L 398.487273 168.984105 
" clip-path="url(#p974736c255)" style="fill: none; stroke: #1f77b4; stroke-width: 1.5; stroke-linecap: square"/>
   </g>
   <g id="patch_3">
    <path d="M 57.6 307.584 
L 57.6 41.472 
" style="fill: none; stroke: #000000; stroke-width: 0.8; stroke-linejoin: miter; stroke-linecap: square"/>
   </g>
   <g id="patch_4">
    <path d="M 414.72 307.584 
L 414.72 41.472 
" style="fill: none; stroke: #000000; stroke-width: 0.8; stroke-linejoin: miter; stroke-linecap: square"/>
   </g>
   <g id="patch_5">
    <path d="M 57.6 307.584 
L 414.72 307.584 
" style="fill: none; stroke: #000000; stroke-width: 0.8; stroke-linejoin: miter; stroke-linecap: square"/>
   </g>
   <g id="patch_6">
    <path d="M 57.6 41.472 
L 414.72 41.472 
" style="fill: none; stroke: #000000; stroke-width: 0.8; stroke-linejoin: miter; stroke-linecap: square"/>
   </g>
   <g id="legend_1">
    <g id="patch_7">
     <path d="M 354.074688 64.150125 
L 407.72 64.150125 
Q 409.72 64.150125 409.72 62.150125 
L 409.72 48.472 
Q 409.72 46.472 407.72 46.472 
L 354.074688 46.472 
Q 352.074688 46.472 352.074688 48.472 
L 352.074688 62.150125 
Q 352.074688 64.150125 354.074688 64.150125 
z
" style="fill: #ffffff; opacity: 0.8; stroke: #cccccc; stroke-linejoin: miter"/>
    </g>
    <g id="line2d_13">
     <path d="M 356.074688 54.570438 
L 366.074688 54.570438 
L 376.074688 54.570438 
" style="fill: none; stroke: #1f77b4; stroke-width: 1.5; stroke-linecap: square"/>
    </g>
    <g id="text_12">
     <!-- set2 -->
     <g transform="translate(384.074688 58.070438)scale(0.1 -0.1)">
      <defs>
       <path id="DejaVuSans-73" d="M 2834 3397 
L 2834 2853 
Q 2591 2978 2328 3040 
Q 2066 3103 1784 3103 
Q 1356 3103 1142 2972 
Q 928 2841 928 2578 
Q 928 2378 1081 2264 
Q 1234 2150 1697 2047 
L 1894 2003 
Q 2506 1872 2764 1633 
Q 3022 1394 3022 966 
Q 3022 478 2636 193 
Q 2250 -91 1575 -91 
Q 1294 -91 989 -36 
Q 684 19 347 128 
L 347 722 
Q 666 556 975 473 
Q 1284 391 1588 391 
Q 1994 391 2212 530 
Q 2431 669 2431 922 
Q 2431 1156 2273 1281 
Q 2116 1406 1581 1522 
L 1381 1569 
Q 847 1681 609 1914 
Q 372 2147 372 2553 
Q 372 3047 722 3315 
Q 1072 3584 1716 3584 
Q 2034 3584 2315 3537 
Q 2597 3491 2834 3397 
z
" transform="scale(0.015625)"/>
       <path id="DejaVuSans-65" d="M 3597 1894 
L 3597 1613 
L 953 1613 
Q 991 1019 1311 708 
Q 1631 397 2203 397 
Q 2534 397 2845 478 
Q 3156 559 3463 722 
L 3463 178 
Q 3153 47 2828 -22 
Q 2503 -91 2169 -91 
Q 1331 -91 842 396 
Q 353 884 353 1716 
Q 353 2575 817 3079 
Q 1281 3584 2069 3584 
Q 2775 3584 3186 3129 
Q 3597 2675 3597 1894 
z
M 3022 2063 
Q 3016 2534 2758 2815 
Q 2500 3097 2075 3097 
Q 1594 3097 1305 2825 
Q 1016 2553 972 2059 
L 3022 2063 
z
" transform="scale(0.015625)"/>
       <path id="DejaVuSans-74" d="M 1172 4494 
L 1172 3500 
L 2356 3500 
L 2356 3053 
L 1172 3053 
L 1172 1153 
Q 1172 725 1289 603 
Q 1406 481 1766 481 
L 2356 481 
L 2356 0 
L 1766 0 
Q 1100 0 847 248 
Q 594 497 594 1153 
L 594 3053 
L 172 3053 
L 172 3500 
L 594 3500 
L 594 4494 
L 1172 4494 
z
" transform="scale(0.015625)"/>
      </defs>
      <use xlink:href="#DejaVuSans-73"/>
      <use xlink:href="#DejaVuSans-65" x="52.099609"/>
      <use xlink:href="#DejaVuSans-74" x="113.623047"/>
      <use xlink:href="#DejaVuSans-32" x="152.832031"/>
     </g>
    </g>
   </g>
  </g>
 </g>
 <defs>
  <clipPath id="p974736c255">
   <rect x="57.6" y="41.472" width="357.12" height="266.112"/>
  </clipPath>
 </defs>
</svg>
