<?xml version="1.0" encoding="utf-8" standalone="no"?>
<!DOCTYPE svg PUBLIC "-//W3C//DTD SVG 1.1//EN"
  "http://www.w3.org/Graphics/SVG/1.1/DTD/svg11.dtd">
<svg xmlns:xlink="http://www.w3.org/1999/xlink" width="460.8pt" height="345.6pt" viewBox="0 0 460.8 345.6" xmlns="http://www.w3.org/2000/svg" version="1.1">
 <metadata>
  <rdf:RDF xmlns:dc="http://purl.org/dc/elements/1.1/" xmlns:cc="http://creativecommons.org/ns#" xmlns:rdf="http://www.w3.org/1999/02/22-rdf-syntax-ns#">
   <cc:Work>
    <dc:type rdf:resource="http://purl.org/dc/dcmitype/StillImage"/>
    <dc:date>2022-08-11T15:17:03.061770</dc:date>
    <dc:format>image/svg+xml</dc:format>
    <dc:creator>
     <cc:Agent>
      <dc:title>Matplotlib v3.5.2, https://matplotlib.org/</dc:title>
     </cc:Agent>
    </dc:creator>
   </cc:Work>
  </rdf:RDF>
 </metadata>
 <defs>
  <style type="text/css">*{stroke-linejoin: round; stroke-linecap: butt}</style>
 </defs>
 <g id="figure_1">
  <g id="patch_1">
   <path d="M 0 345.6 
L 460.8 345.6 
L 460.8 0 
L 0 0 
z
" style="fill: #ffffff"/>
  </g>
  <g id="axes_1">
   <g id="patch_2">
    <path d="M 57.6 307.584 
L 414.72 307.584 
L 414.72 41.472 
L 57.6 41.472 
z
" style="fill: #ffffff"/>
   </g>
   <g id="matplotlib.axis_1">
    <g id="xtick_1">
     <g id="line2d_1">
      <defs>
       <path id="m0d8b889a41" d="M 0 0 
L 0 3.5 
" style="stroke: #000000; stroke-width: 0.8"/>
      </defs>
      <g>
       <use xlink:href="#m0d8b889a41" x="73.832727" y="307.584" style="stroke: #000000; stroke-width: 0.8"/>
      </g>
     </g>
     <g id="text_1">
      <!-- 0 -->
      <g transform="translate(70.651477 322.182437)scale(0.1 -0.1)">
       <defs>
        <path id="DejaVuSans-30" d="M 2034 4250 
Q 1547 4250 1301 3770 
Q 1056 3291 1056 2328 
Q 1056 1369 1301 889 
Q 1547 409 2034 409 
Q 2525 409 2770 889 
Q 3016 1369 3016 2328 
Q 3016 3291 2770 3770 
Q 2525 4250 2034 4250 
z
M 2034 4750 
Q 2819 4750 3233 4129 
Q 3647 3509 3647 2328 
Q 3647 1150 3233 529 
Q 2819 -91 2034 -91 
Q 1250 -91 836 529 
Q 422 1150 422 2328 
Q 422 3509 836 4129 
Q 1250 4750 2034 4750 
z
" transform="scale(0.015625)"/>
       </defs>
       <use xlink:href="#DejaVuSans-30"/>
      </g>
     </g>
    </g>
    <g id="xtick_2">
     <g id="line2d_2">
      <g>
       <use xlink:href="#m0d8b889a41" x="137.266597" y="307.584" style="stroke: #000000; stroke-width: 0.8"/>
      </g>
     </g>
     <g id="text_2">
      <!-- 500 -->
      <g transform="translate(127.722847 322.182437)scale(0.1 -0.1)">
       <defs>
        <path id="DejaVuSans-35" d="M 691 4666 
L 3169 4666 
L 3169 4134 
L 1269 4134 
L 1269 2991 
Q 1406 3038 1543 3061 
Q 1681 3084 1819 3084 
Q 2600 3084 3056 2656 
Q 3513 2228 3513 1497 
Q 3513 744 3044 326 
Q 2575 -91 1722 -91 
Q 1428 -91 1123 -41 
Q 819 9 494 109 
L 494 744 
Q 775 591 1075 516 
Q 1375 441 1709 441 
Q 2250 441 2565 725 
Q 2881 1009 2881 1497 
Q 2881 1984 2565 2268 
Q 2250 2553 1709 2553 
Q 1456 2553 1204 2497 
Q 953 2441 691 2322 
L 691 4666 
z
" transform="scale(0.015625)"/>
       </defs>
       <use xlink:href="#DejaVuSans-35"/>
       <use xlink:href="#DejaVuSans-30" x="63.623047"/>
       <use xlink:href="#DejaVuSans-30" x="127.246094"/>
      </g>
     </g>
    </g>
    <g id="xtick_3">
     <g id="line2d_3">
      <g>
       <use xlink:href="#m0d8b889a41" x="200.700467" y="307.584" style="stroke: #000000; stroke-width: 0.8"/>
      </g>
     </g>
     <g id="text_3">
      <!-- 1000 -->
      <g transform="translate(187.975467 322.182437)scale(0.1 -0.1)">
       <defs>
        <path id="DejaVuSans-31" d="M 794 531 
L 1825 531 
L 1825 4091 
L 703 3866 
L 703 4441 
L 1819 4666 
L 2450 4666 
L 2450 531 
L 3481 531 
L 3481 0 
L 794 0 
L 794 531 
z
" transform="scale(0.015625)"/>
       </defs>
       <use xlink:href="#DejaVuSans-31"/>
       <use xlink:href="#DejaVuSans-30" x="63.623047"/>
       <use xlink:href="#DejaVuSans-30" x="127.246094"/>
       <use xlink:href="#DejaVuSans-30" x="190.869141"/>
      </g>
     </g>
    </g>
    <g id="xtick_4">
     <g id="line2d_4">
      <g>
       <use xlink:href="#m0d8b889a41" x="264.134337" y="307.584" style="stroke: #000000; stroke-width: 0.8"/>
      </g>
     </g>
     <g id="text_4">
      <!-- 1500 -->
      <g transform="translate(251.409337 322.182437)scale(0.1 -0.1)">
       <use xlink:href="#DejaVuSans-31"/>
       <use xlink:href="#DejaVuSans-35" x="63.623047"/>
       <use xlink:href="#DejaVuSans-30" x="127.246094"/>
       <use xlink:href="#DejaVuSans-30" x="190.869141"/>
      </g>
     </g>
    </g>
    <g id="xtick_5">
     <g id="line2d_5">
      <g>
       <use xlink:href="#m0d8b889a41" x="327.568206" y="307.584" style="stroke: #000000; stroke-width: 0.8"/>
      </g>
     </g>
     <g id="text_5">
      <!-- 2000 -->
      <g transform="translate(314.843206 322.182437)scale(0.1 -0.1)">
       <defs>
        <path id="DejaVuSans-32" d="M 1228 531 
L 3431 531 
L 3431 0 
L 469 0 
L 469 531 
Q 828 903 1448 1529 
Q 2069 2156 2228 2338 
Q 2531 2678 2651 2914 
Q 2772 3150 2772 3378 
Q 2772 3750 2511 3984 
Q 2250 4219 1831 4219 
Q 1534 4219 1204 4116 
Q 875 4013 500 3803 
L 500 4441 
Q 881 4594 1212 4672 
Q 1544 4750 1819 4750 
Q 2544 4750 2975 4387 
Q 3406 4025 3406 3419 
Q 3406 3131 3298 2873 
Q 3191 2616 2906 2266 
Q 2828 2175 2409 1742 
Q 1991 1309 1228 531 
z
" transform="scale(0.015625)"/>
       </defs>
       <use xlink:href="#DejaVuSans-32"/>
       <use xlink:href="#DejaVuSans-30" x="63.623047"/>
       <use xlink:href="#DejaVuSans-30" x="127.246094"/>
       <use xlink:href="#DejaVuSans-30" x="190.869141"/>
      </g>
     </g>
    </g>
    <g id="xtick_6">
     <g id="line2d_6">
      <g>
       <use xlink:href="#m0d8b889a41" x="391.002076" y="307.584" style="stroke: #000000; stroke-width: 0.8"/>
      </g>
     </g>
     <g id="text_6">
      <!-- 2500 -->
      <g transform="translate(378.277076 322.182437)scale(0.1 -0.1)">
       <use xlink:href="#DejaVuSans-32"/>
       <use xlink:href="#DejaVuSans-35" x="63.623047"/>
       <use xlink:href="#DejaVuSans-30" x="127.246094"/>
       <use xlink:href="#DejaVuSans-30" x="190.869141"/>
      </g>
     </g>
    </g>
   </g>
   <g id="matplotlib.axis_2">
    <g id="ytick_1">
     <g id="line2d_7">
      <defs>
       <path id="m21909cefd4" d="M 0 0 
L -3.5 0 
" style="stroke: #000000; stroke-width: 0.8"/>
      </defs>
      <g>
       <use xlink:href="#m21909cefd4" x="57.6" y="287.691868" style="stroke: #000000; stroke-width: 0.8"/>
      </g>
     </g>
     <g id="text_7">
      <!-- 3900 -->
      <g transform="translate(25.15 291.491087)scale(0.1 -0.1)">
       <defs>
        <path id="DejaVuSans-33" d="M 2597 2516 
Q 3050 2419 3304 2112 
Q 3559 1806 3559 1356 
Q 3559 666 3084 287 
Q 2609 -91 1734 -91 
Q 1441 -91 1130 -33 
Q 819 25 488 141 
L 488 750 
Q 750 597 1062 519 
Q 1375 441 1716 441 
Q 2309 441 2620 675 
Q 2931 909 2931 1356 
Q 2931 1769 2642 2001 
Q 2353 2234 1838 2234 
L 1294 2234 
L 1294 2753 
L 1863 2753 
Q 2328 2753 2575 2939 
Q 2822 3125 2822 3475 
Q 2822 3834 2567 4026 
Q 2313 4219 1838 4219 
Q 1578 4219 1281 4162 
Q 984 4106 628 3988 
L 628 4550 
Q 988 4650 1302 4700 
Q 1616 4750 1894 4750 
Q 2613 4750 3031 4423 
Q 3450 4097 3450 3541 
Q 3450 3153 3228 2886 
Q 3006 2619 2597 2516 
z
" transform="scale(0.015625)"/>
        <path id="DejaVuSans-39" d="M 703 97 
L 703 672 
Q 941 559 1184 500 
Q 1428 441 1663 441 
Q 2288 441 2617 861 
Q 2947 1281 2994 2138 
Q 2813 1869 2534 1725 
Q 2256 1581 1919 1581 
Q 1219 1581 811 2004 
Q 403 2428 403 3163 
Q 403 3881 828 4315 
Q 1253 4750 1959 4750 
Q 2769 4750 3195 4129 
Q 3622 3509 3622 2328 
Q 3622 1225 3098 567 
Q 2575 -91 1691 -91 
Q 1453 -91 1209 -44 
Q 966 3 703 97 
z
M 1959 2075 
Q 2384 2075 2632 2365 
Q 2881 2656 2881 3163 
Q 2881 3666 2632 3958 
Q 2384 4250 1959 4250 
Q 1534 4250 1286 3958 
Q 1038 3666 1038 3163 
Q 1038 2656 1286 2365 
Q 1534 2075 1959 2075 
z
" transform="scale(0.015625)"/>
       </defs>
       <use xlink:href="#DejaVuSans-33"/>
       <use xlink:href="#DejaVuSans-39" x="63.623047"/>
       <use xlink:href="#DejaVuSans-30" x="127.246094"/>
       <use xlink:href="#DejaVuSans-30" x="190.869141"/>
      </g>
     </g>
    </g>
    <g id="ytick_2">
     <g id="line2d_8">
      <g>
       <use xlink:href="#m21909cefd4" x="57.6" y="250.15504" style="stroke: #000000; stroke-width: 0.8"/>
      </g>
     </g>
     <g id="text_8">
      <!-- 4000 -->
      <g transform="translate(25.15 253.954259)scale(0.1 -0.1)">
       <defs>
        <path id="DejaVuSans-34" d="M 2419 4116 
L 825 1625 
L 2419 1625 
L 2419 4116 
z
M 2253 4666 
L 3047 4666 
L 3047 1625 
L 3713 1625 
L 3713 1100 
L 3047 1100 
L 3047 0 
L 2419 0 
L 2419 1100 
L 313 1100 
L 313 1709 
L 2253 4666 
z
" transform="scale(0.015625)"/>
       </defs>
       <use xlink:href="#DejaVuSans-34"/>
       <use xlink:href="#DejaVuSans-30" x="63.623047"/>
       <use xlink:href="#DejaVuSans-30" x="127.246094"/>
       <use xlink:href="#DejaVuSans-30" x="190.869141"/>
      </g>
     </g>
    </g>
    <g id="ytick_3">
     <g id="line2d_9">
      <g>
       <use xlink:href="#m21909cefd4" x="57.6" y="212.618212" style="stroke: #000000; stroke-width: 0.8"/>
      </g>
     </g>
     <g id="text_9">
      <!-- 4100 -->
      <g transform="translate(25.15 216.417431)scale(0.1 -0.1)">
       <use xlink:href="#DejaVuSans-34"/>
       <use xlink:href="#DejaVuSans-31" x="63.623047"/>
       <use xlink:href="#DejaVuSans-30" x="127.246094"/>
       <use xlink:href="#DejaVuSans-30" x="190.869141"/>
      </g>
     </g>
    </g>
    <g id="ytick_4">
     <g id="line2d_10">
      <g>
       <use xlink:href="#m21909cefd4" x="57.6" y="175.081384" style="stroke: #000000; stroke-width: 0.8"/>
      </g>
     </g>
     <g id="text_10">
      <!-- 4200 -->
      <g transform="translate(25.15 178.880603)scale(0.1 -0.1)">
       <use xlink:href="#DejaVuSans-34"/>
       <use xlink:href="#DejaVuSans-32" x="63.623047"/>
       <use xlink:href="#DejaVuSans-30" x="127.246094"/>
       <use xlink:href="#DejaVuSans-30" x="190.869141"/>
      </g>
     </g>
    </g>
    <g id="ytick_5">
     <g id="line2d_11">
      <g>
       <use xlink:href="#m21909cefd4" x="57.6" y="137.544556" style="stroke: #000000; stroke-width: 0.8"/>
      </g>
     </g>
     <g id="text_11">
      <!-- 4300 -->
      <g transform="translate(25.15 141.343775)scale(0.1 -0.1)">
       <use xlink:href="#DejaVuSans-34"/>
       <use xlink:href="#DejaVuSans-33" x="63.623047"/>
       <use xlink:href="#DejaVuSans-30" x="127.246094"/>
       <use xlink:href="#DejaVuSans-30" x="190.869141"/>
      </g>
     </g>
    </g>
    <g id="ytick_6">
     <g id="line2d_12">
      <g>
       <use xlink:href="#m21909cefd4" x="57.6" y="100.007728" style="stroke: #000000; stroke-width: 0.8"/>
      </g>
     </g>
     <g id="text_12">
      <!-- 4400 -->
      <g transform="translate(25.15 103.806947)scale(0.1 -0.1)">
       <use xlink:href="#DejaVuSans-34"/>
       <use xlink:href="#DejaVuSans-34" x="63.623047"/>
       <use xlink:href="#DejaVuSans-30" x="127.246094"/>
       <use xlink:href="#DejaVuSans-30" x="190.869141"/>
      </g>
     </g>
    </g>
    <g id="ytick_7">
     <g id="line2d_13">
      <g>
       <use xlink:href="#m21909cefd4" x="57.6" y="62.4709" style="stroke: #000000; stroke-width: 0.8"/>
      </g>
     </g>
     <g id="text_13">
      <!-- 4500 -->
      <g transform="translate(25.15 66.270118)scale(0.1 -0.1)">
       <use xlink:href="#DejaVuSans-34"/>
       <use xlink:href="#DejaVuSans-35" x="63.623047"/>
       <use xlink:href="#DejaVuSans-30" x="127.246094"/>
       <use xlink:href="#DejaVuSans-30" x="190.869141"/>
      </g>
     </g>
    </g>
   </g>
   <g id="line2d_14">
    <path d="M 73.832727 197.603481 
L 73.959595 197.844134 
L 74.086463 196.929724 
L 74.340198 191.2992 
L 74.467066 193.224245 
L 74.720801 198.710341 
L 74.974537 194.667983 
L 75.228272 198.373463 
L 75.35514 197.603481 
L 75.608876 199.047219 
L 75.735743 197.651685 
L 75.862611 198.325259 
L 76.116347 203.570884 
L 76.243214 204.052191 
L 76.750685 200.779632 
L 77.004421 197.555277 
L 77.258156 198.181013 
L 77.385024 198.181013 
L 77.765627 206.073278 
L 77.892495 204.581519 
L 78.14623 198.517891 
L 78.399966 206.410156 
L 78.653701 202.415819 
L 78.780569 203.13778 
L 78.907437 201.694042 
L 79.034305 202.127145 
L 79.161172 203.955783 
L 79.28804 203.811537 
L 79.414908 202.848923 
L 79.541776 202.800902 
L 79.668643 203.52268 
L 79.922379 207.228341 
L 80.049247 209.345837 
L 80.176114 207.998323 
L 80.42985 203.426455 
L 80.683585 207.035892 
L 80.937321 203.52268 
L 81.064188 203.859558 
L 81.317924 202.752698 
L 81.444792 204.052191 
L 81.571659 204.100211 
L 81.825395 202.752698 
L 81.952263 202.800902 
L 82.205998 207.75767 
L 82.459734 203.859558 
L 82.713469 205.399521 
L 82.967205 205.062643 
L 83.094072 204.43709 
L 83.22094 204.870193 
L 83.347808 205.832624 
L 83.601543 203.811537 
L 83.728411 204.340865 
L 83.982146 198.662137 
L 84.235882 203.52268 
L 84.36275 203.763333 
L 84.489617 203.13778 
L 84.743353 199.528526 
L 84.870221 204.148415 
L 84.997088 204.43709 
L 85.250824 198.565912 
L 85.377692 199.432118 
L 85.504559 198.373463 
L 85.758295 190.047911 
L 85.885163 191.202975 
L 86.265766 198.421666 
L 86.392633 199.768997 
L 86.519501 198.90279 
L 86.646369 196.64105 
L 86.773237 196.544825 
L 87.026972 199.817201 
L 87.15384 197.459052 
L 87.280708 197.170378 
L 87.661311 201.645838 
L 87.915046 201.838471 
L 88.041914 202.704677 
L 88.168782 201.790267 
L 88.422517 197.074153 
L 88.549385 198.469687 
L 88.676253 198.373463 
L 88.803121 198.999015 
L 88.929988 200.394733 
L 89.183724 197.314807 
L 89.564327 204.725764 
L 89.818062 202.993352 
L 89.94493 204.677743 
L 90.071798 210.163839 
L 90.198666 209.730736 
L 90.325533 210.163839 
L 90.452401 210.019593 
L 90.579269 209.393857 
L 90.833004 211.607577 
L 91.08674 203.474659 
L 91.340475 208.960754 
L 91.467343 207.805873 
L 91.594211 208.960754 
L 91.721079 211.703802 
L 91.974814 203.955783 
L 92.22855 206.26591 
L 92.482285 203.859558 
L 92.609153 203.619088 
L 92.73602 202.752698 
L 92.989756 204.292661 
L 93.116624 203.041556 
L 93.370359 208.67208 
L 93.624095 202.897127 
L 93.750962 204.24464 
L 93.87783 207.083913 
L 94.004698 207.420791 
L 94.131566 207.228341 
L 94.385301 210.789575 
L 94.639037 204.677743 
L 94.892772 205.880828 
L 95.01964 205.014622 
L 95.146508 205.014622 
L 95.273375 206.121482 
L 95.400243 208.527651 
L 95.527111 208.575855 
L 95.653978 205.495929 
L 95.780846 206.843259 
L 95.907714 210.500717 
L 96.034582 210.260063 
L 96.161449 208.960754 
L 96.415185 211.126453 
L 96.66892 205.110847 
L 96.795788 207.37277 
L 97.049524 205.880828 
L 97.176391 209.201408 
L 97.303259 209.586307 
L 97.430127 206.410156 
L 97.556995 207.37277 
L 97.683862 206.843259 
L 97.81073 202.175349 
L 97.937598 201.597817 
L 98.064466 202.993352 
L 98.191333 203.089576 
L 98.445069 210.596942 
L 98.698804 202.993352 
L 99.206275 205.255276 
L 99.333143 204.533315 
L 99.460011 203.13778 
L 99.586878 203.185801 
L 99.713746 204.533315 
L 99.840614 204.003987 
L 100.094349 197.699706 
L 100.60182 201.212735 
L 100.855556 197.699706 
L 100.982424 197.988563 
L 101.109291 198.806566 
L 101.236159 198.758545 
L 101.489894 197.507256 
L 101.74363 201.694042 
L 101.870498 199.768997 
L 101.997365 199.720976 
L 102.251101 205.447725 
L 102.504836 201.790267 
L 102.631704 200.538978 
L 102.758572 197.940359 
L 102.88544 198.85477 
L 103.139175 203.907762 
L 103.392911 204.822172 
L 103.519778 202.897127 
L 103.773514 197.122174 
L 104.027249 200.154079 
L 104.280985 197.74791 
L 104.53472 199.528526 
L 104.788456 198.229034 
L 104.915323 199.047219 
L 105.295927 197.122174 
L 105.549662 196.64105 
L 105.803398 192.742938 
L 106.184001 198.421666 
L 106.310869 203.715312 
L 106.437736 203.859558 
L 106.691472 205.832624 
L 106.81834 205.784603 
L 107.072075 204.581519 
L 107.198943 204.581519 
L 107.452678 203.234005 
L 107.579546 205.062643 
L 107.706414 209.490082 
L 107.833281 209.056979 
L 107.960149 203.715312 
L 108.087017 203.378434 
L 108.213885 207.324566 
L 108.340752 207.132117 
L 108.594488 203.426455 
L 108.848223 204.003987 
L 109.101959 199.576547 
L 109.355694 204.533315 
L 109.482562 203.52268 
L 109.60943 203.715312 
L 109.736298 205.062643 
L 109.990033 201.260939 
L 110.116901 201.164714 
L 110.370636 197.892155 
L 110.624372 199.624751 
L 110.751239 197.699706 
L 110.878107 198.325259 
L 111.131843 204.677743 
L 111.385578 197.555277 
L 111.639314 202.993352 
L 111.893049 202.800902 
L 112.146785 207.468995 
L 112.654256 202.848923 
L 112.781123 203.570884 
L 112.907991 206.891463 
L 113.034859 206.362135 
L 113.288594 202.127145 
L 113.415462 202.464023 
L 113.54233 202.078941 
L 113.796065 202.464023 
L 114.049801 205.399521 
L 114.176668 205.159051 
L 114.303536 203.955783 
L 114.557272 193.753573 
L 114.684139 192.40606 
L 115.064743 194.379126 
L 115.318478 198.710341 
L 115.572214 192.791142 
L 115.825949 199.287873 
L 115.952817 197.507256 
L 116.33342 199.143444 
L 116.840891 210.548921 
L 117.094626 208.286997 
L 117.348362 210.115818 
L 117.602097 206.987688 
L 117.728965 207.517016 
L 117.855833 209.393857 
L 118.109568 209.345837 
L 118.363304 213.243765 
L 118.743907 207.805873 
L 118.997643 211.318903 
L 119.378246 205.159051 
L 119.505114 203.570884 
L 119.631981 204.533315 
L 119.758849 207.56522 
L 119.885717 206.891463 
L 120.012584 203.570884 
L 120.139452 203.474659 
L 120.520055 211.222678 
L 120.646923 211.703802 
L 120.773791 211.126453 
L 120.900659 209.538286 
L 121.027526 209.538286 
L 121.281262 213.773276 
L 121.534997 210.8858 
L 121.661865 211.84823 
L 121.915601 208.816325 
L 122.042468 212.906887 
L 122.169336 212.762641 
L 122.296204 208.960754 
L 122.423072 208.7201 
L 122.549939 196.929724 
L 122.803675 202.271574 
L 122.930542 200.972081 
L 123.05741 197.74791 
L 123.184278 198.614116 
L 123.311146 200.394733 
L 123.564881 197.988563 
L 123.818617 199.865405 
L 123.945484 198.806566 
L 124.072352 196.592846 
L 124.19922 197.266603 
L 124.326088 196.881703 
L 124.579823 192.21361 
L 124.833559 196.64105 
L 125.087294 198.132809 
L 125.214162 196.400396 
L 125.467897 201.501593 
L 125.721633 197.555277 
L 125.975368 199.624751 
L 126.102236 199.528526 
L 126.355971 192.261631 
L 126.609707 199.047219 
L 126.736575 198.229034 
L 126.863442 198.277238 
L 126.99031 200.105875 
L 127.117178 199.239669 
L 127.244046 197.411031 
L 127.370913 197.555277 
L 127.624649 202.22337 
L 127.751517 198.325259 
L 127.878384 198.90279 
L 128.005252 203.859558 
L 128.258988 202.127145 
L 128.385855 204.773968 
L 128.639591 198.999015 
L 128.766458 200.587182 
L 128.893326 200.442753 
L 129.020194 197.699706 
L 129.147062 197.555277 
L 129.273929 196.592846 
L 129.400797 194.523555 
L 129.654533 195.678435 
L 129.7814 196.159743 
L 130.162004 210.163839 
L 130.288871 209.538286 
L 130.415739 209.971389 
L 130.542607 211.270699 
L 130.669475 198.806566 
L 130.796342 198.999015 
L 131.050078 204.052191 
L 131.176946 201.886492 
L 131.303813 202.367799 
L 131.430681 204.003987 
L 131.684416 201.549613 
L 131.938152 203.282209 
L 132.06502 202.078941 
L 132.191887 203.570884 
L 132.318755 202.800902 
L 132.572491 195.53419 
L 132.826226 198.277238 
L 133.333697 196.496621 
L 133.587433 198.181013 
L 133.7143 197.218398 
L 133.968036 201.212735 
L 134.094904 199.287873 
L 134.221771 199.480322 
L 134.348639 201.453389 
L 134.602375 197.314807 
L 134.85611 204.340865 
L 134.982978 202.993352 
L 135.236713 197.988563 
L 135.363581 199.143444 
L 135.490449 198.710341 
L 135.871052 195.004862 
L 136.124787 192.40606 
L 136.251655 193.272266 
L 136.505391 198.565912 
L 136.632258 198.373463 
L 136.759126 197.844134 
L 136.885994 199.528526 
L 137.012862 199.672772 
L 137.266597 197.362827 
L 137.393465 198.229034 
L 137.520333 198.181013 
L 137.6472 198.950995 
L 137.774068 201.212735 
L 137.900936 200.683407 
L 138.027803 198.85477 
L 138.154671 199.335893 
L 138.281539 199.287873 
L 138.408407 197.988563 
L 138.535274 197.892155 
L 138.662142 198.181013 
L 139.042745 207.709466 
L 139.296481 203.234005 
L 139.550216 205.54395 
L 139.677084 203.907762 
L 139.803952 203.715312 
L 139.93082 204.870193 
L 140.184555 201.790267 
L 140.311423 202.464023 
L 140.438291 201.790267 
L 140.692026 196.015314 
L 141.199497 203.13778 
L 141.5801 198.469687 
L 141.706968 199.335893 
L 141.833836 197.555277 
L 142.087571 191.732303 
L 142.214439 191.876732 
L 142.341307 192.309835 
L 142.595042 189.614808 
L 142.848778 198.084788 
L 143.229381 191.395425 
L 143.483116 193.031612 
L 143.609984 192.40606 
L 143.863719 197.074153 
L 143.990587 196.785295 
L 144.244323 193.031612 
L 144.37119 192.40606 
L 144.498058 193.609145 
L 144.624926 193.657349 
L 144.878661 190.336769 
L 145.132397 192.646714 
L 145.386132 190.962322 
L 145.513 191.347404 
L 145.766736 188.219274 
L 145.893603 189.374338 
L 146.147339 185.668676 
L 146.274207 185.909329 
L 146.527942 185.620655 
L 146.781678 187.641742 
L 146.908545 211.078249 
L 147.035413 210.019593 
L 147.162281 210.067614 
L 147.416016 214.302513 
L 147.542884 211.655781 
L 147.669752 211.511352 
L 147.796619 213.09952 
L 148.050355 210.596942 
L 148.177223 212.521987 
L 148.30409 216.660661 
L 148.430958 215.794363 
L 148.684694 209.008958 
L 148.811561 210.982024 
L 149.572768 198.614116 
L 149.699636 198.421666 
L 149.826503 198.469687 
L 150.080239 199.528526 
L 150.333974 204.581519 
L 150.460842 203.667108 
L 150.714577 198.036584 
L 150.841445 199.528526 
L 150.968313 198.758545 
L 151.095181 198.999015 
L 151.348916 203.13778 
L 151.475784 202.752698 
L 151.729519 205.929032 
L 151.856387 203.089576 
L 151.983255 202.945331 
L 152.110123 204.918397 
L 152.23699 204.581519 
L 152.363858 204.677743 
L 152.617594 211.366924 
L 152.744461 211.318903 
L 152.871329 211.463148 
L 152.998197 211.126453 
L 153.251932 208.7201 
L 153.505668 211.078249 
L 153.632535 210.115818 
L 153.886271 207.132117 
L 154.013139 208.527651 
L 154.266874 207.180137 
L 154.52061 210.452696 
L 154.774345 209.490082 
L 154.901213 208.383222 
L 155.154948 199.287873 
L 155.281816 198.469687 
L 155.408684 198.710341 
L 155.662419 196.592846 
L 155.916155 202.512228 
L 156.16989 197.555277 
L 156.423626 201.934696 
L 156.550493 201.11651 
L 156.677361 203.570884 
L 156.804229 202.608452 
L 156.931097 198.950995 
L 157.057964 200.154079 
L 157.438568 208.479447 
L 157.692303 203.667108 
L 157.819171 205.54395 
L 157.946039 205.3515 
L 158.199774 201.886492 
L 158.326642 198.85477 
L 158.45351 200.779632 
L 158.580377 204.581519 
L 158.707245 203.52268 
L 158.834113 205.159051 
L 158.96098 210.500717 
L 159.087848 208.67208 
L 159.341584 200.490958 
L 159.595319 208.768304 
L 159.849055 203.282209 
L 159.975922 203.715312 
L 160.10279 203.715312 
L 160.229658 203.426455 
L 160.356526 205.255276 
L 160.483393 205.062643 
L 160.737129 202.704677 
L 161.2446 210.404492 
L 161.371468 209.442061 
L 161.498335 207.132117 
L 161.625203 207.132117 
L 161.878939 210.8858 
L 162.132674 209.008958 
L 162.259542 209.153204 
L 162.386409 207.035892 
L 162.513277 207.035892 
L 162.640145 209.345837 
L 162.767013 207.853894 
L 162.89388 204.533315 
L 163.020748 204.485294 
L 163.147616 202.897127 
L 163.401351 204.292661 
L 163.781955 202.993352 
L 163.908822 203.041556 
L 164.03569 203.282209 
L 164.162558 202.993352 
L 164.289426 203.041556 
L 164.543161 205.303296 
L 164.796897 203.619088 
L 164.923764 204.389069 
L 165.1775 197.507256 
L 165.431235 203.33023 
L 165.558103 202.656473 
L 165.811838 198.132809 
L 165.938706 198.999015 
L 166.065574 201.30896 
L 166.319309 198.229034 
L 166.446177 198.373463 
L 166.699913 198.373463 
L 166.953648 190.673647 
L 167.080516 192.454264 
L 167.207384 197.603481 
L 167.334251 197.892155 
L 167.461119 197.266603 
L 167.587987 199.143444 
L 167.714855 198.950995 
L 167.841722 196.159743 
L 167.96859 196.063518 
L 168.222325 199.720976 
L 168.476061 196.207947 
L 168.729796 200.00965 
L 168.856664 199.817201 
L 169.364135 203.426455 
L 169.617871 196.929724 
L 169.744738 197.79593 
L 169.871606 199.528526 
L 169.998474 199.576547 
L 170.125342 198.85477 
L 170.379077 196.496621 
L 170.505945 197.940359 
L 170.75968 203.715312 
L 170.886548 201.790267 
L 171.013416 201.694042 
L 171.140283 204.052191 
L 171.267151 201.790267 
L 171.520887 202.656473 
L 171.647754 200.2021 
L 171.774622 200.779632 
L 171.90149 204.725764 
L 172.028358 204.003987 
L 172.282093 197.459052 
L 172.408961 199.480322 
L 172.535829 199.143444 
L 172.662696 199.817201 
L 172.789564 203.619088 
L 172.916432 203.185801 
L 173.170167 197.074153 
L 173.297035 197.844134 
L 173.423903 197.555277 
L 173.550771 197.603481 
L 173.677638 197.507256 
L 173.804506 197.218398 
L 173.931374 198.132809 
L 174.058242 197.170378 
L 174.311977 192.358039 
L 174.565712 199.384097 
L 174.819448 193.079816 
L 175.073183 198.421666 
L 175.326919 196.977928 
L 175.453787 198.132809 
L 175.580654 198.084788 
L 175.83439 196.929724 
L 175.961258 197.025949 
L 176.214993 196.64105 
L 176.468729 197.459052 
L 176.595596 197.314807 
L 176.849332 197.651685 
L 177.103067 199.432118 
L 177.229935 198.85477 
L 177.356803 200.250304 
L 177.48367 204.003987 
L 177.610538 204.340865 
L 177.864274 198.469687 
L 177.991141 199.432118 
L 178.244877 198.181013 
L 178.371745 201.068489 
L 178.498612 200.731611 
L 178.62548 197.892155 
L 178.879216 200.394733 
L 179.132951 195.774844 
L 179.259819 196.496621 
L 179.386687 199.09524 
L 179.640422 208.816325 
L 179.894158 202.848923 
L 180.021025 202.800902 
L 180.274761 203.763333 
L 180.401628 205.207071 
L 180.528496 204.196436 
L 180.782232 201.501593 
L 180.909099 202.512228 
L 181.035967 202.367799 
L 181.289703 197.122174 
L 181.543438 199.143444 
L 181.797174 198.325259 
L 182.177777 198.373463 
L 182.431512 198.517891 
L 182.55838 198.325259 
L 182.685248 198.758545 
L 182.938983 202.704677 
L 183.192719 201.357164 
L 183.446454 205.303296 
L 183.70019 201.838471 
L 183.827057 201.645838 
L 183.953925 199.817201 
L 184.080793 200.779632 
L 184.334528 204.581519 
L 184.461396 204.485294 
L 184.588264 204.822172 
L 184.715132 203.426455 
L 184.968867 198.517891 
L 185.095735 198.85477 
L 185.34947 202.175349 
L 185.476338 201.934696 
L 185.730074 202.464023 
L 185.856941 202.415819 
L 186.110677 204.533315 
L 186.364412 197.844134 
L 186.618148 199.09524 
L 186.871883 197.651685 
L 187.125619 196.111722 
L 187.379354 203.089576 
L 187.506222 203.763333 
L 187.63309 203.715312 
L 188.013693 207.132117 
L 188.267428 202.656473 
L 188.521164 204.148415 
L 188.648032 202.271574 
L 188.774899 203.859558 
L 188.901767 209.586307 
L 189.028635 210.163839 
L 189.28237 201.30896 
L 189.536106 209.538286 
L 189.789841 203.089576 
L 189.916709 203.185801 
L 190.043577 205.062643 
L 190.297312 202.22337 
L 190.551048 203.955783 
L 190.677915 203.33023 
L 190.804783 203.426455 
L 190.931651 204.052191 
L 191.185386 202.367799 
L 191.312254 202.608452 
L 191.56599 198.084788 
L 191.819725 199.384097 
L 191.946593 197.892155 
L 192.073461 199.384097 
L 192.327196 204.581519 
L 192.707799 200.105875 
L 192.834667 198.806566 
L 192.961535 198.710341 
L 193.342138 204.773968 
L 193.469006 204.677743 
L 193.722741 199.480322 
L 193.849609 200.105875 
L 194.103344 205.3515 
L 194.230212 204.485294 
L 194.483948 197.892155 
L 194.610815 199.09524 
L 194.737683 202.22337 
L 194.991419 199.817201 
L 195.245154 204.918397 
L 195.372022 203.907762 
L 195.498889 203.859558 
L 195.625757 210.452696 
L 195.752625 210.019593 
L 195.879493 210.019593 
L 196.133228 209.297633 
L 196.260096 209.490082 
L 196.386964 210.452696 
L 196.513831 210.548921 
L 196.640699 209.634511 
L 196.767567 210.596942 
L 196.894435 213.195744 
L 197.021302 212.858866 
L 197.275038 210.308267 
L 197.401906 210.356288 
L 197.528773 210.212043 
L 197.655641 210.260063 
L 197.782509 210.789575 
L 198.036244 217.238101 
L 198.28998 212.23313 
L 198.416847 213.388194 
L 198.543715 212.185109 
L 198.797451 207.950119 
L 198.924318 208.527651 
L 199.178054 210.8858 
L 199.304922 210.982024 
L 199.558657 217.526867 
L 199.685525 215.457576 
L 199.93926 207.950119 
L 200.192996 212.521987 
L 200.446731 209.345837 
L 200.573599 209.538286 
L 200.700467 209.345837 
L 200.827335 208.816325 
L 200.954202 209.634511 
L 201.08107 209.153204 
L 201.207938 206.987688 
L 201.334805 207.324566 
L 201.461673 209.682715 
L 201.715409 210.404492 
L 201.842276 212.955091 
L 201.969144 212.810662 
L 202.096012 209.875165 
L 202.22288 209.538286 
L 202.349747 211.270699 
L 202.476615 211.318903 
L 202.730351 209.008958 
L 202.857218 209.77894 
L 202.984086 209.008958 
L 203.110954 207.37277 
L 203.237822 209.249612 
L 203.364689 209.105183 
L 203.491557 204.389069 
L 203.618425 203.811537 
L 203.87216 210.212043 
L 203.999028 211.318903 
L 204.252764 210.115818 
L 204.379631 210.019593 
L 204.506499 210.067614 
L 204.760234 209.297633 
L 204.887102 209.586307 
L 205.01397 210.741371 
L 205.140838 210.452696 
L 205.648309 203.474659 
L 205.775176 203.041556 
L 206.15578 207.998323 
L 206.409515 203.282209 
L 206.536383 203.52268 
L 206.663251 205.303296 
L 206.790118 205.3515 
L 207.170722 203.474659 
L 207.297589 204.773968 
L 207.424457 203.33023 
L 207.551325 198.758545 
L 207.678192 198.806566 
L 207.931928 204.581519 
L 208.058796 203.715312 
L 208.185663 203.859558 
L 208.312531 203.570884 
L 208.439399 202.945331 
L 208.566267 203.13778 
L 208.820002 203.041556 
L 208.94687 203.234005 
L 209.200605 204.100211 
L 209.454341 203.763333 
L 209.708076 204.052191 
L 209.834944 204.340865 
L 209.961812 202.608452 
L 210.215547 197.699706 
L 210.849886 203.378434 
L 210.976754 202.560248 
L 211.103621 204.822172 
L 211.357357 210.596942 
L 211.484225 208.816325 
L 211.73796 213.003295 
L 211.864828 197.74791 
L 211.991696 197.170378 
L 212.372299 200.442753 
L 212.87977 196.544825 
L 213.006638 196.592846 
L 213.260373 198.710341 
L 213.387241 197.79593 
L 213.640976 198.950995 
L 213.894712 194.186677 
L 214.021579 196.833499 
L 214.148447 196.689071 
L 214.402183 192.117386 
L 214.52905 193.994227 
L 214.782786 191.684282 
L 214.909654 191.876732 
L 215.036521 193.561124 
L 215.163389 193.51292 
L 215.290257 192.21361 
L 215.543992 195.293536 
L 215.67086 193.176041 
L 215.924596 198.277238 
L 216.051463 197.988563 
L 216.178331 197.940359 
L 216.305199 196.785295 
L 216.432067 193.994227 
L 216.558934 194.667983 
L 216.685802 196.833499 
L 216.939537 196.304171 
L 217.193273 196.592846 
L 217.320141 197.74791 
L 217.447008 197.74791 
L 217.573876 197.555277 
L 217.827612 198.229034 
L 217.954479 198.517891 
L 218.081347 198.517891 
L 218.335083 197.266603 
L 218.588818 197.651685 
L 218.715686 197.266603 
L 218.842554 197.507256 
L 218.969421 198.277238 
L 219.096289 198.132809 
L 219.223157 197.266603 
L 219.476892 198.758545 
L 219.730628 192.117386 
L 219.857495 194.956658 
L 220.111231 204.629539 
L 220.238099 204.966418 
L 220.364966 202.752698 
L 220.491834 202.560248 
L 220.618702 203.570884 
L 220.872437 202.512228 
L 220.999305 203.667108 
L 221.253041 202.271574 
L 221.379908 201.694042 
L 221.633644 198.469687 
L 221.760512 198.325259 
L 221.887379 198.90279 
L 222.141115 203.619088 
L 222.267983 203.282209 
L 222.39485 203.33023 
L 222.521718 203.619088 
L 222.648586 201.453389 
L 222.775453 201.501593 
L 222.902321 202.800902 
L 223.156057 199.239669 
L 223.282924 199.768997 
L 223.53666 201.212735 
L 223.790395 199.143444 
L 224.044131 204.533315 
L 224.551602 198.614116 
L 224.805337 201.549613 
L 225.059073 204.773968 
L 225.185941 204.677743 
L 225.439676 197.074153 
L 225.566544 198.181013 
L 225.693411 201.357164 
L 225.820279 200.683407 
L 225.947147 198.277238 
L 226.200882 199.528526 
L 226.32775 198.469687 
L 226.581486 200.731611 
L 226.962089 196.496621 
L 227.088957 197.074153 
L 227.215824 197.555277 
L 227.342692 197.218398 
L 227.596428 192.309835 
L 227.723295 193.849798 
L 227.850163 196.977928 
L 227.977031 196.833499 
L 228.230766 204.43709 
L 228.357634 204.292661 
L 228.611369 204.822172 
L 228.865105 202.848923 
L 228.991973 202.608452 
L 229.11884 202.656473 
L 229.626311 204.581519 
L 229.880047 202.415819 
L 230.006915 203.378434 
L 230.133782 203.33023 
L 230.514386 199.528526 
L 230.641253 200.2021 
L 230.894989 198.132809 
L 231.148724 199.768997 
L 231.275592 200.683407 
L 231.529328 203.859558 
L 232.163666 197.362827 
L 232.798005 204.24464 
L 232.924873 204.43709 
L 233.05174 203.282209 
L 233.178608 203.185801 
L 233.432344 204.43709 
L 233.559211 204.485294 
L 233.686079 204.918397 
L 234.066682 209.490082 
L 234.320418 203.955783 
L 234.447286 204.725764 
L 234.701021 210.260063 
L 235.081624 204.43709 
L 235.208492 205.110847 
L 235.33536 204.918397 
L 235.462227 205.592154 
L 235.715963 209.682715 
L 235.969698 210.308267 
L 236.096566 210.163839 
L 236.350302 202.560248 
L 236.604037 198.950995 
L 236.730905 198.084788 
L 236.857773 198.373463 
L 237.111508 203.234005 
L 237.365244 198.710341 
L 237.492111 199.720976 
L 237.618979 199.720976 
L 237.745847 200.298508 
L 237.872714 202.030921 
L 238.12645 197.555277 
L 238.253318 197.699706 
L 238.633921 204.533315 
L 238.887656 200.875856 
L 239.014524 201.212735 
L 239.395127 196.304171 
L 240.156334 202.848923 
L 240.410069 197.122174 
L 240.536937 198.229034 
L 240.91754 204.966418 
L 241.298143 197.362827 
L 241.551879 199.239669 
L 241.678747 198.036584 
L 241.805614 199.384097 
L 242.05935 204.677743 
L 242.313085 205.495929 
L 242.439953 205.399521 
L 242.566821 204.725764 
L 242.820556 202.752698 
L 243.074292 205.447725 
L 243.581763 198.662137 
L 243.708631 198.132809 
L 243.962366 204.340865 
L 244.216101 201.790267 
L 244.469837 209.586307 
L 244.596705 210.93382 
L 244.85044 209.105183 
L 244.977308 208.912733 
L 245.104176 207.661445 
L 245.231043 207.805873 
L 245.357911 207.661445 
L 245.484779 206.26591 
L 245.738514 210.019593 
L 245.99225 203.089576 
L 246.119118 204.24464 
L 246.245985 203.955783 
L 246.372853 202.752698 
L 246.626589 208.238977 
L 246.880324 204.822172 
L 247.007192 204.725764 
L 247.134059 204.43709 
L 247.387795 207.132117 
L 247.64153 204.43709 
L 247.768398 205.3515 
L 247.895266 203.619088 
L 248.149001 195.774844 
L 248.275869 198.469687 
L 248.402737 203.715312 
L 248.529605 204.148415 
L 248.656472 202.993352 
L 248.910208 205.399521 
L 249.163943 201.357164 
L 249.417679 204.43709 
L 249.544547 203.234005 
L 249.671414 203.715312 
L 249.798282 205.736399 
L 249.92515 205.592154 
L 250.052017 203.955783 
L 250.178885 203.811537 
L 250.432621 210.163839 
L 250.559488 207.902098 
L 250.686356 203.570884 
L 250.813224 203.282209 
L 250.940092 205.062643 
L 251.193827 204.100211 
L 251.320695 206.699014 
L 251.447563 206.169502 
L 251.701298 198.084788 
L 251.955034 203.715312 
L 252.081901 201.934696 
L 252.208769 201.886492 
L 252.589372 203.52268 
L 252.71624 203.715312 
L 252.969975 202.367799 
L 253.223711 204.629539 
L 253.477446 200.827836 
L 253.731182 204.533315 
L 253.984917 203.33023 
L 254.238653 204.581519 
L 254.492388 203.185801 
L 254.619256 203.619088 
L 254.746124 204.581519 
L 254.872992 204.629539 
L 255.126727 200.635386 
L 255.253595 201.164714 
L 255.380463 202.752698 
L 255.50733 202.22337 
L 255.634198 203.234005 
L 255.761066 205.255276 
L 256.014801 201.020285 
L 256.268537 204.629539 
L 256.395404 203.570884 
L 256.522272 204.148415 
L 256.64914 207.853894 
L 256.776008 207.902098 
L 256.902875 203.907762 
L 257.029743 203.570884 
L 257.156611 206.65081 
L 257.283479 205.880828 
L 257.410346 203.570884 
L 257.664082 203.763333 
L 257.917817 205.495929 
L 258.044685 204.003987 
L 258.171553 204.533315 
L 258.425288 210.019593 
L 258.552156 209.297633 
L 258.805892 210.500717 
L 259.059627 210.067614 
L 259.186495 210.019593 
L 259.313362 208.479447 
L 259.44023 208.575855 
L 259.567098 210.837596 
L 259.693966 209.393857 
L 259.947701 203.185801 
L 260.074569 204.822172 
L 260.328304 197.603481 
L 260.455172 198.084788 
L 260.58204 199.96163 
L 260.708908 205.014622 
L 260.835775 205.255276 
L 261.343246 197.122174 
L 261.470114 198.950995 
L 261.596982 198.999015 
L 261.72385 197.507256 
L 261.977585 197.844134 
L 262.23132 199.480322 
L 262.485056 191.587874 
L 262.611924 191.828528 
L 262.865659 196.64105 
L 262.992527 195.967293 
L 263.246262 190.577423 
L 263.37313 192.694734 
L 263.499998 192.887367 
L 263.626866 191.443629 
L 263.880601 192.935388 
L 264.007469 192.887367 
L 264.134337 193.32047 
L 264.388072 192.839163 
L 264.641808 196.785295 
L 264.895543 191.684282 
L 265.022411 191.443629 
L 265.149278 190.914301 
L 265.403014 192.117386 
L 265.529882 193.609145 
L 265.783617 198.132809 
L 266.16422 190.432994 
L 266.544824 198.614116 
L 266.671691 197.411031 
L 266.798559 198.421666 
L 266.925427 198.373463 
L 267.052295 196.496621 
L 267.30603 198.277238 
L 267.559766 190.962322 
L 267.813501 198.421666 
L 268.194104 191.347404 
L 268.574707 198.132809 
L 268.701575 197.892155 
L 268.828443 197.122174 
L 269.082178 202.848923 
L 269.335914 196.400396 
L 269.589649 198.469687 
L 269.716517 198.132809 
L 269.843385 196.448417 
L 269.970253 196.255967 
L 270.223988 205.495929 
L 270.477724 195.630415 
L 270.731459 202.993352 
L 270.985195 196.785295 
L 271.23893 199.432118 
L 271.492665 196.737275 
L 271.746401 199.191648 
L 271.873269 198.229034 
L 272.000136 199.384097 
L 272.127004 202.464023 
L 272.38074 198.421666 
L 272.507607 199.143444 
L 272.634475 198.90279 
L 272.761343 197.555277 
L 273.015078 199.432118 
L 273.141946 197.699706 
L 273.268814 197.940359 
L 273.395682 198.758545 
L 273.522549 198.614116 
L 273.776285 196.255967 
L 273.903153 196.448417 
L 274.03002 197.651685 
L 274.156888 197.218398 
L 274.283756 198.758545 
L 274.537491 204.485294 
L 274.791227 202.993352 
L 275.044962 198.662137 
L 275.298698 206.26591 
L 275.679301 196.352192 
L 275.933036 199.287873 
L 276.186772 198.614116 
L 276.31364 200.394733 
L 276.440507 204.003987 
L 276.567375 204.43709 
L 276.694243 200.346529 
L 276.821111 204.003987 
L 276.947978 203.619088 
L 277.074846 204.43709 
L 277.201714 202.560248 
L 277.328581 197.79593 
L 277.455449 198.373463 
L 277.709185 204.340865 
L 277.836052 202.464023 
L 278.089788 202.848923 
L 278.216656 202.560248 
L 278.343523 203.089576 
L 278.470391 204.24464 
L 278.597259 203.474659 
L 278.724127 201.742246 
L 278.850994 202.22337 
L 279.10473 204.918397 
L 279.231598 204.629539 
L 279.358465 204.773968 
L 279.612201 204.052191 
L 279.739069 204.629539 
L 279.992804 199.335893 
L 280.246539 204.148415 
L 280.373407 203.763333 
L 280.500275 203.52268 
L 280.627143 204.773968 
L 280.75401 204.677743 
L 281.134614 202.608452 
L 281.388349 206.506381 
L 281.515217 205.880828 
L 281.642085 203.811537 
L 281.89582 203.859558 
L 282.022688 203.13778 
L 282.276423 204.24464 
L 282.403291 203.378434 
L 282.530159 204.148415 
L 282.783894 207.324566 
L 283.03763 208.623876 
L 283.291365 204.100211 
L 283.418233 205.399521 
L 283.671968 210.212043 
L 283.925704 204.003987 
L 284.052572 205.159051 
L 284.179439 205.014622 
L 284.306307 203.859558 
L 284.560043 207.324566 
L 284.813778 203.426455 
L 284.940646 204.340865 
L 285.194381 207.853894 
L 285.448117 204.389069 
L 285.82872 205.880828 
L 285.955588 205.495929 
L 286.082456 206.217706 
L 286.336191 209.490082 
L 286.589926 207.035892 
L 286.716794 207.517016 
L 286.97053 203.041556 
L 287.224265 206.554585 
L 287.351133 206.217706 
L 287.604868 204.581519 
L 287.858604 205.255276 
L 288.112339 204.292661 
L 288.239207 204.581519 
L 288.492943 206.362135 
L 288.746678 201.453389 
L 289.000414 204.870193 
L 289.127281 204.340865 
L 289.254149 205.592154 
L 289.381017 207.998323 
L 289.507884 206.65081 
L 289.634752 203.474659 
L 289.76162 203.619088 
L 289.888488 205.159051 
L 290.015355 205.110847 
L 290.142223 203.907762 
L 290.269091 203.859558 
L 290.395959 204.870193 
L 290.522826 204.918397 
L 290.776562 204.148415 
L 290.90343 204.148415 
L 291.157165 205.3515 
L 291.410901 202.993352 
L 291.791504 204.725764 
L 292.045239 203.859558 
L 292.298975 202.945331 
L 292.55271 205.880828 
L 292.806446 204.629539 
L 292.933313 207.132117 
L 293.060181 204.581519 
L 293.187049 204.485294 
L 293.313917 204.822172 
L 293.567652 202.800902 
L 293.821388 207.613241 
L 294.075123 202.608452 
L 294.201991 205.159051 
L 294.328859 204.773968 
L 294.455726 203.13778 
L 294.709462 206.795239 
L 294.963197 203.378434 
L 295.3438 203.907762 
L 295.470668 204.100211 
L 295.724404 202.127145 
L 295.851271 203.955783 
L 295.978139 202.415819 
L 296.105007 199.480322 
L 296.358742 205.929032 
L 296.612478 200.875856 
L 296.866213 204.822172 
L 296.993081 204.196436 
L 297.119949 204.24464 
L 297.246817 204.822172 
L 297.373684 204.725764 
L 297.62742 202.993352 
L 297.881155 204.870193 
L 298.134891 203.667108 
L 298.515494 204.822172 
L 298.769229 204.100211 
L 299.022965 205.255276 
L 299.149833 204.340865 
L 299.2767 204.773968 
L 299.403568 205.880828 
L 299.784171 204.629539 
L 300.037907 204.581519 
L 300.164775 204.725764 
L 300.291642 204.581519 
L 300.41851 204.003987 
L 300.545378 204.196436 
L 300.672246 204.629539 
L 300.925981 201.742246 
L 301.433452 206.410156 
L 301.814055 202.897127 
L 301.940923 203.234005 
L 302.194658 205.640174 
L 302.448394 203.378434 
L 302.702129 204.629539 
L 302.828997 204.148415 
L 303.082733 202.656473 
L 303.336468 203.811537 
L 303.463336 203.619088 
L 303.970807 201.742246 
L 304.224542 203.907762 
L 304.35141 203.570884 
L 304.478278 203.619088 
L 304.732013 205.3515 
L 304.985749 203.907762 
L 305.239484 207.083913 
L 305.49322 203.234005 
L 305.620087 203.859558 
L 305.873823 203.859558 
L 306.000691 204.389069 
L 306.254426 208.527651 
L 306.508162 203.426455 
L 306.635029 203.52268 
L 306.888765 204.870193 
L 307.1425 208.238977 
L 307.269368 208.094548 
L 307.396236 209.153204 
L 307.523103 208.335202 
L 307.649971 204.677743 
L 307.776839 205.688378 
L 307.903707 208.7201 
L 308.157442 203.763333 
L 308.28431 206.025257 
L 308.411178 205.880828 
L 308.538045 204.24464 
L 308.664913 204.629539 
L 308.918649 203.13778 
L 309.172384 208.7201 
L 309.299252 199.913426 
L 309.42612 199.528526 
L 309.679855 204.003987 
L 309.933591 201.549613 
L 310.060458 201.645838 
L 310.187326 203.282209 
L 310.314194 202.078941 
L 310.441061 199.480322 
L 310.567929 200.779632 
L 310.821665 205.832624 
L 311.0754 200.298508 
L 311.329136 204.100211 
L 311.582871 202.897127 
L 311.709739 202.800902 
L 311.963474 201.212735 
L 312.090342 201.694042 
L 312.21721 201.11651 
L 312.344078 199.96163 
L 312.470945 200.250304 
L 312.724681 203.041556 
L 312.978416 199.384097 
L 313.232152 201.886492 
L 313.35902 201.694042 
L 313.739623 198.421666 
L 313.86649 198.662137 
L 314.120226 204.533315 
L 314.373961 201.212735 
L 314.500829 202.464023 
L 314.754565 198.662137 
L 315.0083 205.447725 
L 315.262036 204.581519 
L 315.388903 204.100211 
L 315.515771 202.704677 
L 315.642639 203.13778 
L 315.896374 204.629539 
L 316.276978 202.656473 
L 316.403845 202.656473 
L 316.657581 204.24464 
L 316.784448 203.763333 
L 316.911316 204.003987 
L 317.038184 205.303296 
L 317.165052 205.255276 
L 317.291919 204.292661 
L 317.418787 282.92755 
L 317.926258 277.826446 
L 318.053126 279.077643 
L 318.306861 284.275064 
L 318.433729 282.205681 
L 318.560597 282.35011 
L 318.814332 284.178839 
L 318.9412 283.697532 
L 319.068068 283.793849 
L 319.194936 283.64942 
L 319.321803 284.56383 
L 319.575539 288.943066 
L 319.829274 290.531233 
L 319.956142 290.338692 
L 320.209877 287.932522 
L 320.590481 282.061344 
L 320.717348 282.92755 
L 320.971084 289.56871 
L 321.097952 288.750616 
L 321.224819 289.231831 
L 321.351687 291.445551 
L 321.478555 290.771794 
L 321.73229 287.788093 
L 321.986026 294.236711 
L 322.493497 286.103793 
L 322.620364 286.440671 
L 322.747232 288.46185 
L 323.000968 285.766915 
L 323.254703 291.349326 
L 323.508439 295.488 
L 323.635306 293.659271 
L 323.889042 288.124972 
L 324.01591 288.702504 
L 324.142777 288.46185 
L 324.396513 288.798728 
L 324.650248 285.766915 
L 324.903984 284.178839 
L 325.157719 289.664935 
L 325.411455 284.611942 
L 325.538322 215.794363 
L 325.792058 222.291185 
L 326.045793 215.986904 
L 326.172661 216.612548 
L 326.299529 216.46812 
L 326.426397 215.746251 
L 326.553264 215.746251 
L 326.680132 215.938792 
L 326.933868 217.045652 
L 327.060735 215.409372 
L 327.187603 215.457576 
L 327.314471 215.216923 
L 327.568206 209.008958 
L 327.821942 215.986904 
L 328.202545 210.115818 
L 328.329413 211.174474 
L 328.583148 215.553801 
L 328.836884 210.163839 
L 328.963751 210.789575 
L 329.090619 207.950119 
L 329.344355 194.812229 
L 329.59809 204.870193 
L 329.724958 203.763333 
L 329.851826 204.100211 
L 329.978693 207.853894 
L 330.105561 207.468995 
L 330.359297 202.22337 
L 330.613032 204.485294 
L 330.7399 203.234005 
L 330.866768 203.089576 
L 330.993635 204.581519 
L 331.120503 204.485294 
L 331.374239 202.608452 
L 331.627974 204.148415 
L 331.754842 203.763333 
L 332.008577 198.036584 
L 332.262313 203.234005 
L 332.38918 201.549613 
L 332.516048 205.062643 
L 332.642916 203.667108 
L 332.896651 189.807441 
L 333.150387 194.331105 
L 333.277255 193.994227 
L 333.404122 194.186677 
L 333.53099 196.015314 
L 333.657858 192.742938 
L 333.784726 192.454264 
L 333.911593 193.753573 
L 334.038461 193.657349 
L 334.165329 192.40606 
L 334.292197 192.358039 
L 334.419064 193.224245 
L 334.6728 190.721668 
L 334.926535 192.40606 
L 335.053403 192.117386 
L 335.307138 193.801594 
L 335.560874 192.40606 
L 335.814609 193.51292 
L 335.941477 193.416695 
L 336.068345 193.657349 
L 336.195213 192.40606 
L 336.32208 189.99989 
L 336.448948 190.288565 
L 336.575816 191.924753 
L 336.702684 191.347404 
L 336.829551 191.395425 
L 336.956419 192.983592 
L 337.083287 192.598509 
L 337.210155 191.491649 
L 337.46389 192.742938 
L 337.590758 192.646714 
L 337.844493 197.699706 
L 337.971361 196.255967 
L 338.098229 193.12802 
L 338.351964 196.64105 
L 338.6057 191.924753 
L 338.732567 191.828528 
L 338.859435 191.539853 
L 339.113171 197.651685 
L 339.366906 194.090452 
L 339.620642 199.913426 
L 339.747509 198.277238 
L 340.001245 200.105875 
L 340.128113 198.565912 
L 340.25498 198.85477 
L 340.381848 200.298508 
L 340.635584 197.025949 
L 340.762451 202.608452 
L 340.889319 201.357164 
L 341.143054 190.240544 
L 341.269922 193.176041 
L 341.523658 186.005554 
L 341.650525 189.133684 
L 341.904261 205.688378 
L 342.031129 205.832624 
L 342.411732 200.587182 
L 342.5386 197.699706 
L 342.792335 201.982716 
L 343.046071 196.689071 
L 343.426674 201.982716 
L 343.680409 189.422359 
L 343.934145 198.565912 
L 344.18788 196.689071 
L 344.314748 197.988563 
L 344.441616 197.266603 
L 344.568483 197.459052 
L 344.695351 198.036584 
L 344.949087 196.929724 
L 345.202822 199.384097 
L 345.456558 198.421666 
L 345.837161 204.822172 
L 345.964029 203.570884 
L 346.090896 203.715312 
L 346.217764 203.619088 
L 346.344632 202.848923 
L 346.598367 204.24464 
L 346.97897 209.875165 
L 347.232706 203.667108 
L 347.359574 203.715312 
L 347.613309 212.810662 
L 347.867045 211.174474 
L 347.993912 213.195744 
L 348.247648 211.800026 
L 348.374516 213.580643 
L 348.501383 212.425763 
L 348.628251 209.249612 
L 348.755119 209.682715 
L 348.881987 211.030045 
L 349.008854 210.693167 
L 349.389458 209.153204 
L 349.516325 208.864529 
L 349.770061 214.543166 
L 349.896928 57.225458 
L 350.023796 53.80847 
L 350.277532 61.219611 
L 350.531267 54.097328 
L 350.785003 57.947235 
L 351.038738 53.568 
L 351.419341 64.925273 
L 351.546209 60.786508 
L 351.673077 60.449629 
L 351.926812 66.850135 
L 352.180548 64.973294 
L 352.307416 65.406397 
L 352.434283 66.609665 
L 352.561151 66.176378 
L 352.688019 65.165926 
L 353.322357 79.314268 
L 353.449225 78.592491 
L 353.576093 78.78494 
L 353.829828 82.683052 
L 353.956696 82.297969 
L 354.337299 88.458005 
L 354.464167 88.891108 
L 354.717903 96.735352 
L 354.971638 95.339635 
L 355.352241 102.125223 
L 355.732845 113.5307 
L 355.859712 113.241843 
L 356.240315 115.98489 
L 356.620919 123.492256 
L 356.747786 121.808047 
L 357.382125 131.528949 
L 357.635861 139.565826 
L 357.762728 140.191379 
L 357.889596 138.94009 
L 358.016464 198.421666 
L 358.143332 196.881703 
L 358.397067 192.550489 
L 358.650803 190.144319 
L 358.904538 196.64105 
L 359.031406 193.031612 
L 359.158273 192.742938 
L 359.285141 197.122174 
L 359.412009 197.411031 
L 359.538877 195.871068 
L 359.792612 198.469687 
L 360.046348 197.025949 
L 360.173215 198.710341 
L 360.426951 203.570884 
L 360.553819 203.282209 
L 360.680686 202.464023 
L 361.315025 195.052883 
L 361.568761 198.614116 
L 361.695628 198.132809 
L 361.949364 203.667108 
L 362.203099 197.266603 
L 362.329967 198.806566 
L 362.583702 204.052191 
L 362.71057 203.715312 
L 363.091173 197.651685 
L 363.218041 198.229034 
L 363.344909 199.817201 
L 363.598644 198.421666 
L 363.979248 205.207071 
L 364.106115 204.485294 
L 364.232983 204.677743 
L 364.359851 204.340865 
L 364.613586 202.848923 
L 364.867322 204.870193 
L 365.121057 203.763333 
L 365.247925 203.619088 
L 365.50166 201.838471 
L 365.755396 204.100211 
L 366.009131 204.629539 
L 366.135999 203.089576 
L 366.389735 205.640174 
L 366.64347 202.945331 
L 366.897206 203.763333 
L 367.277809 202.560248 
L 367.531544 204.822172 
L 367.658412 203.13778 
L 367.78528 203.763333 
L 367.912148 205.062643 
L 368.165883 199.865405 
L 368.419618 205.399521 
L 368.546486 203.570884 
L 368.800222 203.907762 
L 368.927089 203.33023 
L 369.053957 203.859558 
L 369.43456 202.319595 
L 369.688296 196.159743 
L 369.942031 188.700581 
L 370.068899 190.673647 
L 370.322635 198.662137 
L 370.449502 197.555277 
L 370.703238 199.768997 
L 370.956973 195.630415 
L 371.210709 202.752698 
L 371.464444 197.411031 
L 371.71818 202.608452 
L 371.845047 199.817201 
L 371.971915 200.731611 
L 372.225651 203.234005 
L 372.352518 203.667108 
L 372.606254 197.940359 
L 372.733122 199.09524 
L 372.859989 198.517891 
L 372.986857 200.250304 
L 373.113725 204.292661 
L 373.240593 201.886492 
L 373.36746 196.833499 
L 373.494328 197.122174 
L 373.748064 204.052191 
L 374.001799 201.549613 
L 374.255534 204.196436 
L 374.382402 203.282209 
L 374.763005 203.763333 
L 375.016741 205.640174 
L 375.270476 202.319595 
L 375.524212 205.062643 
L 375.65108 203.859558 
L 375.904815 207.083913 
L 376.158551 202.945331 
L 376.412286 204.918397 
L 376.666022 205.014622 
L 376.919757 203.089576 
L 377.173492 203.426455 
L 377.30036 202.848923 
L 377.427228 203.474659 
L 377.554096 205.062643 
L 377.807831 203.715312 
L 378.061567 204.773968 
L 378.188434 204.340865 
L 378.44217 206.699014 
L 378.695905 205.014622 
L 378.822773 205.736399 
L 378.949641 205.495929 
L 379.203376 204.148415 
L 379.330244 203.955783 
L 379.457112 204.389069 
L 379.58398 206.795239 
L 379.710847 206.843259 
L 379.837715 203.52268 
L 379.964583 203.13778 
L 380.218318 205.303296 
L 380.472054 205.399521 
L 380.725789 203.13778 
L 380.979525 204.292661 
L 381.23326 202.512228 
L 381.486996 205.640174 
L 381.740731 197.988563 
L 381.867599 198.90279 
L 381.994467 198.469687 
L 382.121334 196.737275 
L 382.248202 197.940359 
L 382.628805 212.425763 
L 382.882541 204.196436 
L 383.009409 204.340865 
L 383.136276 203.715312 
L 383.263144 204.43709 
L 383.390012 205.977053 
L 383.643747 202.464023 
L 383.897483 205.3515 
L 384.02435 205.014622 
L 384.278086 198.132809 
L 384.404954 198.036584 
L 384.785557 201.597817 
L 385.039292 197.79593 
L 385.293028 199.528526 
L 385.419896 197.940359 
L 385.546763 197.988563 
L 385.800499 204.24464 
L 386.054234 202.030921 
L 386.434837 203.667108 
L 386.815441 198.85477 
L 386.942308 199.480322 
L 387.322912 203.667108 
L 387.449779 203.089576 
L 387.576647 204.389069 
L 387.703515 203.33023 
L 387.95725 196.015314 
L 388.210986 204.196436 
L 388.464721 199.384097 
L 388.718457 204.581519 
L 388.972192 201.838471 
L 389.09906 201.164714 
L 389.352795 197.892155 
L 389.606531 199.239669 
L 389.987134 197.314807 
L 390.114002 197.603481 
L 390.494605 204.148415 
L 390.621473 203.378434 
L 390.875208 207.468995 
L 391.002076 206.073278 
L 391.128944 203.234005 
L 391.255812 203.282209 
L 391.382679 204.581519 
L 391.636415 204.43709 
L 391.763283 206.169502 
L 392.017018 210.789575 
L 392.270753 203.185801 
L 392.524489 208.67208 
L 392.778224 203.234005 
L 393.03196 204.581519 
L 393.285695 202.800902 
L 393.539431 204.052191 
L 393.666299 203.811537 
L 393.920034 205.447725 
L 394.17377 203.715312 
L 394.300637 204.003987 
L 394.554373 202.319595 
L 394.808108 204.196436 
L 395.061844 201.694042 
L 395.315579 206.169502 
L 395.569315 201.790267 
L 395.82305 203.715312 
L 395.949918 202.415819 
L 396.076786 203.282209 
L 396.330521 209.586307 
L 396.457389 208.286997 
L 396.711124 203.570884 
L 396.96486 204.870193 
L 397.091728 206.169502 
L 397.218595 205.592154 
L 397.472331 200.972081 
L 397.852934 204.24464 
L 397.979802 203.763333 
L 398.10667 204.340865 
L 398.360405 205.784603 
L 398.487273 204.822172 
L 398.487273 204.822172 
" clip-path="url(#p602bea59af)" style="fill: none; stroke: #1f77b4; stroke-width: 1.5; stroke-linecap: square"/>
   </g>
   <g id="patch_3">
    <path d="M 57.6 307.584 
L 57.6 41.472 
" style="fill: none; stroke: #000000; stroke-width: 0.8; stroke-linejoin: miter; stroke-linecap: square"/>
   </g>
   <g id="patch_4">
    <path d="M 414.72 307.584 
L 414.72 41.472 
" style="fill: none; stroke: #000000; stroke-width: 0.8; stroke-linejoin: miter; stroke-linecap: square"/>
   </g>
   <g id="patch_5">
    <path d="M 57.6 307.584 
L 414.72 307.584 
" style="fill: none; stroke: #000000; stroke-width: 0.8; stroke-linejoin: miter; stroke-linecap: square"/>
   </g>
   <g id="patch_6">
    <path d="M 57.6 41.472 
L 414.72 41.472 
" style="fill: none; stroke: #000000; stroke-width: 0.8; stroke-linejoin: miter; stroke-linecap: square"/>
   </g>
   <g id="legend_1">
    <g id="patch_7">
     <path d="M 354.074688 64.150125 
L 407.72 64.150125 
Q 409.72 64.150125 409.72 62.150125 
L 409.72 48.472 
Q 409.72 46.472 407.72 46.472 
L 354.074688 46.472 
Q 352.074688 46.472 352.074688 48.472 
L 352.074688 62.150125 
Q 352.074688 64.150125 354.074688 64.150125 
z
" style="fill: #ffffff; opacity: 0.8; stroke: #cccccc; stroke-linejoin: miter"/>
    </g>
    <g id="line2d_15">
     <path d="M 356.074688 54.570438 
L 366.074688 54.570438 
L 376.074688 54.570438 
" style="fill: none; stroke: #1f77b4; stroke-width: 1.5; stroke-linecap: square"/>
    </g>
    <g id="text_14">
     <!-- set3 -->
     <g transform="translate(384.074688 58.070438)scale(0.1 -0.1)">
      <defs>
       <path id="DejaVuSans-73" d="M 2834 3397 
L 2834 2853 
Q 2591 2978 2328 3040 
Q 2066 3103 1784 3103 
Q 1356 3103 1142 2972 
Q 928 2841 928 2578 
Q 928 2378 1081 2264 
Q 1234 2150 1697 2047 
L 1894 2003 
Q 2506 1872 2764 1633 
Q 3022 1394 3022 966 
Q 3022 478 2636 193 
Q 2250 -91 1575 -91 
Q 1294 -91 989 -36 
Q 684 19 347 128 
L 347 722 
Q 666 556 975 473 
Q 1284 391 1588 391 
Q 1994 391 2212 530 
Q 2431 669 2431 922 
Q 2431 1156 2273 1281 
Q 2116 1406 1581 1522 
L 1381 1569 
Q 847 1681 609 1914 
Q 372 2147 372 2553 
Q 372 3047 722 3315 
Q 1072 3584 1716 3584 
Q 2034 3584 2315 3537 
Q 2597 3491 2834 3397 
z
" transform="scale(0.015625)"/>
       <path id="DejaVuSans-65" d="M 3597 1894 
L 3597 1613 
L 953 1613 
Q 991 1019 1311 708 
Q 1631 397 2203 397 
Q 2534 397 2845 478 
Q 3156 559 3463 722 
L 3463 178 
Q 3153 47 2828 -22 
Q 2503 -91 2169 -91 
Q 1331 -91 842 396 
Q 353 884 353 1716 
Q 353 2575 817 3079 
Q 1281 3584 2069 3584 
Q 2775 3584 3186 3129 
Q 3597 2675 3597 1894 
z
M 3022 2063 
Q 3016 2534 2758 2815 
Q 2500 3097 2075 3097 
Q 1594 3097 1305 2825 
Q 1016 2553 972 2059 
L 3022 2063 
z
" transform="scale(0.015625)"/>
       <path id="DejaVuSans-74" d="M 1172 4494 
L 1172 3500 
L 2356 3500 
L 2356 3053 
L 1172 3053 
L 1172 1153 
Q 1172 725 1289 603 
Q 1406 481 1766 481 
L 2356 481 
L 2356 0 
L 1766 0 
Q 1100 0 847 248 
Q 594 497 594 1153 
L 594 3053 
L 172 3053 
L 172 3500 
L 594 3500 
L 594 4494 
L 1172 4494 
z
" transform="scale(0.015625)"/>
      </defs>
      <use xlink:href="#DejaVuSans-73"/>
      <use xlink:href="#DejaVuSans-65" x="52.099609"/>
      <use xlink:href="#DejaVuSans-74" x="113.623047"/>
      <use xlink:href="#DejaVuSans-33" x="152.832031"/>
     </g>
    </g>
   </g>
  </g>
 </g>
 <defs>
  <clipPath id="p602bea59af">
   <rect x="57.6" y="41.472" width="357.12" height="266.112"/>
  </clipPath>
 </defs>
</svg>
