<?xml version="1.0" encoding="utf-8" standalone="no"?>
<!DOCTYPE svg PUBLIC "-//W3C//DTD SVG 1.1//EN"
  "http://www.w3.org/Graphics/SVG/1.1/DTD/svg11.dtd">
<svg xmlns:xlink="http://www.w3.org/1999/xlink" width="460.8pt" height="345.6pt" viewBox="0 0 460.8 345.6" xmlns="http://www.w3.org/2000/svg" version="1.1">
 <metadata>
  <rdf:RDF xmlns:dc="http://purl.org/dc/elements/1.1/" xmlns:cc="http://creativecommons.org/ns#" xmlns:rdf="http://www.w3.org/1999/02/22-rdf-syntax-ns#">
   <cc:Work>
    <dc:type rdf:resource="http://purl.org/dc/dcmitype/StillImage"/>
    <dc:date>2022-08-11T15:17:10.055197</dc:date>
    <dc:format>image/svg+xml</dc:format>
    <dc:creator>
     <cc:Agent>
      <dc:title>Matplotlib v3.5.2, https://matplotlib.org/</dc:title>
     </cc:Agent>
    </dc:creator>
   </cc:Work>
  </rdf:RDF>
 </metadata>
 <defs>
  <style type="text/css">*{stroke-linejoin: round; stroke-linecap: butt}</style>
 </defs>
 <g id="figure_1">
  <g id="patch_1">
   <path d="M 0 345.6 
L 460.8 345.6 
L 460.8 0 
L 0 0 
z
" style="fill: #ffffff"/>
  </g>
  <g id="axes_1">
   <g id="patch_2">
    <path d="M 57.6 307.584 
L 414.72 307.584 
L 414.72 41.472 
L 57.6 41.472 
z
" style="fill: #ffffff"/>
   </g>
   <g id="matplotlib.axis_1">
    <g id="xtick_1">
     <g id="line2d_1">
      <defs>
       <path id="m0fd4d1fc11" d="M 0 0 
L 0 3.5 
" style="stroke: #000000; stroke-width: 0.8"/>
      </defs>
      <g>
       <use xlink:href="#m0fd4d1fc11" x="73.832727" y="307.584" style="stroke: #000000; stroke-width: 0.8"/>
      </g>
     </g>
     <g id="text_1">
      <!-- 0 -->
      <g transform="translate(70.651477 322.182437)scale(0.1 -0.1)">
       <defs>
        <path id="DejaVuSans-30" d="M 2034 4250 
Q 1547 4250 1301 3770 
Q 1056 3291 1056 2328 
Q 1056 1369 1301 889 
Q 1547 409 2034 409 
Q 2525 409 2770 889 
Q 3016 1369 3016 2328 
Q 3016 3291 2770 3770 
Q 2525 4250 2034 4250 
z
M 2034 4750 
Q 2819 4750 3233 4129 
Q 3647 3509 3647 2328 
Q 3647 1150 3233 529 
Q 2819 -91 2034 -91 
Q 1250 -91 836 529 
Q 422 1150 422 2328 
Q 422 3509 836 4129 
Q 1250 4750 2034 4750 
z
" transform="scale(0.015625)"/>
       </defs>
       <use xlink:href="#DejaVuSans-30"/>
      </g>
     </g>
    </g>
    <g id="xtick_2">
     <g id="line2d_2">
      <g>
       <use xlink:href="#m0fd4d1fc11" x="137.266597" y="307.584" style="stroke: #000000; stroke-width: 0.8"/>
      </g>
     </g>
     <g id="text_2">
      <!-- 500 -->
      <g transform="translate(127.722847 322.182437)scale(0.1 -0.1)">
       <defs>
        <path id="DejaVuSans-35" d="M 691 4666 
L 3169 4666 
L 3169 4134 
L 1269 4134 
L 1269 2991 
Q 1406 3038 1543 3061 
Q 1681 3084 1819 3084 
Q 2600 3084 3056 2656 
Q 3513 2228 3513 1497 
Q 3513 744 3044 326 
Q 2575 -91 1722 -91 
Q 1428 -91 1123 -41 
Q 819 9 494 109 
L 494 744 
Q 775 591 1075 516 
Q 1375 441 1709 441 
Q 2250 441 2565 725 
Q 2881 1009 2881 1497 
Q 2881 1984 2565 2268 
Q 2250 2553 1709 2553 
Q 1456 2553 1204 2497 
Q 953 2441 691 2322 
L 691 4666 
z
" transform="scale(0.015625)"/>
       </defs>
       <use xlink:href="#DejaVuSans-35"/>
       <use xlink:href="#DejaVuSans-30" x="63.623047"/>
       <use xlink:href="#DejaVuSans-30" x="127.246094"/>
      </g>
     </g>
    </g>
    <g id="xtick_3">
     <g id="line2d_3">
      <g>
       <use xlink:href="#m0fd4d1fc11" x="200.700467" y="307.584" style="stroke: #000000; stroke-width: 0.8"/>
      </g>
     </g>
     <g id="text_3">
      <!-- 1000 -->
      <g transform="translate(187.975467 322.182437)scale(0.1 -0.1)">
       <defs>
        <path id="DejaVuSans-31" d="M 794 531 
L 1825 531 
L 1825 4091 
L 703 3866 
L 703 4441 
L 1819 4666 
L 2450 4666 
L 2450 531 
L 3481 531 
L 3481 0 
L 794 0 
L 794 531 
z
" transform="scale(0.015625)"/>
       </defs>
       <use xlink:href="#DejaVuSans-31"/>
       <use xlink:href="#DejaVuSans-30" x="63.623047"/>
       <use xlink:href="#DejaVuSans-30" x="127.246094"/>
       <use xlink:href="#DejaVuSans-30" x="190.869141"/>
      </g>
     </g>
    </g>
    <g id="xtick_4">
     <g id="line2d_4">
      <g>
       <use xlink:href="#m0fd4d1fc11" x="264.134337" y="307.584" style="stroke: #000000; stroke-width: 0.8"/>
      </g>
     </g>
     <g id="text_4">
      <!-- 1500 -->
      <g transform="translate(251.409337 322.182437)scale(0.1 -0.1)">
       <use xlink:href="#DejaVuSans-31"/>
       <use xlink:href="#DejaVuSans-35" x="63.623047"/>
       <use xlink:href="#DejaVuSans-30" x="127.246094"/>
       <use xlink:href="#DejaVuSans-30" x="190.869141"/>
      </g>
     </g>
    </g>
    <g id="xtick_5">
     <g id="line2d_5">
      <g>
       <use xlink:href="#m0fd4d1fc11" x="327.568206" y="307.584" style="stroke: #000000; stroke-width: 0.8"/>
      </g>
     </g>
     <g id="text_5">
      <!-- 2000 -->
      <g transform="translate(314.843206 322.182437)scale(0.1 -0.1)">
       <defs>
        <path id="DejaVuSans-32" d="M 1228 531 
L 3431 531 
L 3431 0 
L 469 0 
L 469 531 
Q 828 903 1448 1529 
Q 2069 2156 2228 2338 
Q 2531 2678 2651 2914 
Q 2772 3150 2772 3378 
Q 2772 3750 2511 3984 
Q 2250 4219 1831 4219 
Q 1534 4219 1204 4116 
Q 875 4013 500 3803 
L 500 4441 
Q 881 4594 1212 4672 
Q 1544 4750 1819 4750 
Q 2544 4750 2975 4387 
Q 3406 4025 3406 3419 
Q 3406 3131 3298 2873 
Q 3191 2616 2906 2266 
Q 2828 2175 2409 1742 
Q 1991 1309 1228 531 
z
" transform="scale(0.015625)"/>
       </defs>
       <use xlink:href="#DejaVuSans-32"/>
       <use xlink:href="#DejaVuSans-30" x="63.623047"/>
       <use xlink:href="#DejaVuSans-30" x="127.246094"/>
       <use xlink:href="#DejaVuSans-30" x="190.869141"/>
      </g>
     </g>
    </g>
    <g id="xtick_6">
     <g id="line2d_6">
      <g>
       <use xlink:href="#m0fd4d1fc11" x="391.002076" y="307.584" style="stroke: #000000; stroke-width: 0.8"/>
      </g>
     </g>
     <g id="text_6">
      <!-- 2500 -->
      <g transform="translate(378.277076 322.182437)scale(0.1 -0.1)">
       <use xlink:href="#DejaVuSans-32"/>
       <use xlink:href="#DejaVuSans-35" x="63.623047"/>
       <use xlink:href="#DejaVuSans-30" x="127.246094"/>
       <use xlink:href="#DejaVuSans-30" x="190.869141"/>
      </g>
     </g>
    </g>
   </g>
   <g id="matplotlib.axis_2">
    <g id="ytick_1">
     <g id="line2d_7">
      <defs>
       <path id="meb6d15c1af" d="M 0 0 
L -3.5 0 
" style="stroke: #000000; stroke-width: 0.8"/>
      </defs>
      <g>
       <use xlink:href="#meb6d15c1af" x="57.6" y="288.138113" style="stroke: #000000; stroke-width: 0.8"/>
      </g>
     </g>
     <g id="text_7">
      <!-- 4000 -->
      <g transform="translate(25.15 291.937332)scale(0.1 -0.1)">
       <defs>
        <path id="DejaVuSans-34" d="M 2419 4116 
L 825 1625 
L 2419 1625 
L 2419 4116 
z
M 2253 4666 
L 3047 4666 
L 3047 1625 
L 3713 1625 
L 3713 1100 
L 3047 1100 
L 3047 0 
L 2419 0 
L 2419 1100 
L 313 1100 
L 313 1709 
L 2253 4666 
z
" transform="scale(0.015625)"/>
       </defs>
       <use xlink:href="#DejaVuSans-34"/>
       <use xlink:href="#DejaVuSans-30" x="63.623047"/>
       <use xlink:href="#DejaVuSans-30" x="127.246094"/>
       <use xlink:href="#DejaVuSans-30" x="190.869141"/>
      </g>
     </g>
    </g>
    <g id="ytick_2">
     <g id="line2d_8">
      <g>
       <use xlink:href="#meb6d15c1af" x="57.6" y="239.554798" style="stroke: #000000; stroke-width: 0.8"/>
      </g>
     </g>
     <g id="text_8">
      <!-- 4050 -->
      <g transform="translate(25.15 243.354017)scale(0.1 -0.1)">
       <use xlink:href="#DejaVuSans-34"/>
       <use xlink:href="#DejaVuSans-30" x="63.623047"/>
       <use xlink:href="#DejaVuSans-35" x="127.246094"/>
       <use xlink:href="#DejaVuSans-30" x="190.869141"/>
      </g>
     </g>
    </g>
    <g id="ytick_3">
     <g id="line2d_9">
      <g>
       <use xlink:href="#meb6d15c1af" x="57.6" y="190.971483" style="stroke: #000000; stroke-width: 0.8"/>
      </g>
     </g>
     <g id="text_9">
      <!-- 4100 -->
      <g transform="translate(25.15 194.770702)scale(0.1 -0.1)">
       <use xlink:href="#DejaVuSans-34"/>
       <use xlink:href="#DejaVuSans-31" x="63.623047"/>
       <use xlink:href="#DejaVuSans-30" x="127.246094"/>
       <use xlink:href="#DejaVuSans-30" x="190.869141"/>
      </g>
     </g>
    </g>
    <g id="ytick_4">
     <g id="line2d_10">
      <g>
       <use xlink:href="#meb6d15c1af" x="57.6" y="142.388168" style="stroke: #000000; stroke-width: 0.8"/>
      </g>
     </g>
     <g id="text_10">
      <!-- 4150 -->
      <g transform="translate(25.15 146.187387)scale(0.1 -0.1)">
       <use xlink:href="#DejaVuSans-34"/>
       <use xlink:href="#DejaVuSans-31" x="63.623047"/>
       <use xlink:href="#DejaVuSans-35" x="127.246094"/>
       <use xlink:href="#DejaVuSans-30" x="190.869141"/>
      </g>
     </g>
    </g>
    <g id="ytick_5">
     <g id="line2d_11">
      <g>
       <use xlink:href="#meb6d15c1af" x="57.6" y="93.804853" style="stroke: #000000; stroke-width: 0.8"/>
      </g>
     </g>
     <g id="text_11">
      <!-- 4200 -->
      <g transform="translate(25.15 97.604072)scale(0.1 -0.1)">
       <use xlink:href="#DejaVuSans-34"/>
       <use xlink:href="#DejaVuSans-32" x="63.623047"/>
       <use xlink:href="#DejaVuSans-30" x="127.246094"/>
       <use xlink:href="#DejaVuSans-30" x="190.869141"/>
      </g>
     </g>
    </g>
    <g id="ytick_6">
     <g id="line2d_12">
      <g>
       <use xlink:href="#meb6d15c1af" x="57.6" y="45.221538" style="stroke: #000000; stroke-width: 0.8"/>
      </g>
     </g>
     <g id="text_12">
      <!-- 4250 -->
      <g transform="translate(25.15 49.020757)scale(0.1 -0.1)">
       <use xlink:href="#DejaVuSans-34"/>
       <use xlink:href="#DejaVuSans-32" x="63.623047"/>
       <use xlink:href="#DejaVuSans-35" x="127.246094"/>
       <use xlink:href="#DejaVuSans-30" x="190.869141"/>
      </g>
     </g>
    </g>
   </g>
   <g id="line2d_13">
    <path d="M 73.832727 175.026287 
L 73.959595 173.780391 
L 74.21333 194.957782 
L 74.467066 174.777203 
L 74.720801 190.971483 
L 74.847669 191.843516 
L 74.974537 198.32137 
L 75.101405 198.32137 
L 75.228272 193.338496 
L 75.482008 205.172851 
L 75.735743 200.065198 
L 75.862611 199.193166 
L 75.989479 191.469651 
L 76.116347 191.469651 
L 76.243214 202.93038 
L 76.370082 201.809263 
L 76.49695 187.109964 
L 76.623818 190.597619 
L 76.750685 203.054922 
L 77.004421 181.628684 
L 77.385024 209.283692 
L 77.511892 208.287118 
L 77.765627 192.964633 
L 77.892495 203.553328 
L 78.019363 202.432211 
L 78.14623 190.22423 
L 78.273098 195.206867 
L 78.399966 195.331409 
L 78.526834 187.608132 
L 78.780569 209.283692 
L 79.034305 195.456188 
L 79.161172 201.311094 
L 79.28804 191.220568 
L 79.414908 190.971483 
L 79.541776 206.044883 
L 79.668643 201.809263 
L 79.795511 189.476503 
L 79.922379 193.462801 
L 80.049247 188.355385 
L 80.176114 173.033138 
L 80.42985 176.022624 
L 80.556717 166.181657 
L 80.683585 167.676638 
L 80.810453 164.686676 
L 80.937321 146.748331 
L 81.064188 146.997415 
L 81.191056 157.959975 
L 81.317924 151.232798 
L 81.444792 151.855746 
L 81.571659 160.451293 
L 81.825395 153.848896 
L 81.952263 173.531307 
L 82.07913 171.912021 
L 82.205998 177.517606 
L 82.332866 175.89832 
L 82.459734 165.309624 
L 82.586601 164.437592 
L 82.713469 164.93576 
L 82.840337 155.96635 
L 82.967205 158.209059 
L 83.094072 169.545007 
L 83.347808 161.696715 
L 83.474675 168.548196 
L 83.728411 158.08428 
L 83.855279 163.814644 
L 83.982146 162.568747 
L 84.109014 159.330176 
L 84.235882 160.575597 
L 84.36275 154.596149 
L 84.489617 156.215909 
L 84.616485 169.171144 
L 84.870221 149.613513 
L 84.997088 160.575597 
L 85.123956 161.572409 
L 85.250824 154.347065 
L 85.377692 161.572409 
L 85.504559 162.319663 
L 85.631427 156.464994 
L 85.885163 162.818306 
L 86.265766 147.993753 
L 86.392633 149.986902 
L 86.646369 165.06054 
L 86.900104 148.616701 
L 87.15384 165.06054 
L 87.407575 151.108019 
L 87.534443 151.232798 
L 87.788179 162.818306 
L 88.041914 152.353916 
L 88.29565 166.305961 
L 88.549385 145.502434 
L 88.676253 159.205396 
L 88.803121 158.831533 
L 88.929988 149.364428 
L 89.056856 156.464994 
L 89.183724 170.666124 
L 89.310591 165.807793 
L 89.564327 146.997415 
L 89.691195 147.495584 
L 90.071798 154.596149 
L 90.325533 145.25335 
L 90.579269 145.876298 
L 90.833004 149.11487 
L 90.959872 149.488733 
L 91.08674 147.744668 
L 91.340475 152.22961 
L 91.467343 145.004266 
L 91.594211 145.627214 
L 91.847946 154.471844 
L 91.974814 152.353916 
L 92.101682 153.475032 
L 92.355417 148.74148 
L 92.609153 161.821494 
L 92.862888 143.509285 
L 92.989756 148.243312 
L 93.243491 140.893188 
L 93.370359 149.737818 
L 93.497227 148.243312 
L 93.624095 136.782583 
L 93.750962 136.408719 
L 94.004698 143.011116 
L 94.131566 145.25335 
L 94.258433 154.097981 
L 94.385301 154.222759 
L 94.512169 147.869447 
L 94.639037 151.606663 
L 94.765904 160.949461 
L 94.892772 158.458143 
L 95.01964 149.11487 
L 95.146508 155.842045 
L 95.273375 169.046839 
L 95.400243 166.056878 
L 95.653978 140.021155 
L 95.780846 140.893188 
L 95.907714 139.77207 
L 96.034582 137.654616 
L 96.288317 157.710416 
L 96.542053 137.529837 
L 96.795788 160.824682 
L 97.049524 147.371279 
L 97.176391 150.609851 
L 97.303259 144.506096 
L 97.556995 154.970013 
L 97.683862 139.149122 
L 97.81073 137.654616 
L 97.937598 155.842045 
L 98.064466 155.592961 
L 98.191333 179.635534 
L 98.318201 176.894657 
L 98.698804 149.488733 
L 98.825672 152.976864 
L 98.95254 166.430741 
L 99.079407 161.074241 
L 99.206275 148.865785 
L 99.460011 167.302773 
L 99.586878 158.831533 
L 99.713746 158.333364 
L 99.840614 160.326514 
L 99.967482 149.986902 
L 100.094349 153.475032 
L 100.221217 168.922059 
L 100.348085 166.305961 
L 100.474953 155.592961 
L 100.728688 157.835195 
L 100.855556 148.492396 
L 100.982424 147.371279 
L 101.109291 156.09113 
L 101.363027 150.609851 
L 101.489894 154.970013 
L 101.74363 142.637253 
L 101.997365 162.195358 
L 102.124233 159.330176 
L 102.251101 154.596149 
L 102.504836 166.804605 
L 102.758572 151.730967 
L 102.88544 159.205396 
L 103.012307 157.212247 
L 103.139175 163.44078 
L 103.266043 177.891469 
L 103.392911 174.029475 
L 103.773514 145.627214 
L 103.900382 141.76522 
L 104.154117 165.433929 
L 104.280985 164.811455 
L 104.53472 152.852084 
L 104.661588 157.58611 
L 104.788456 156.838383 
L 105.042191 138.900038 
L 105.169059 140.270239 
L 105.295927 138.775733 
L 105.549662 162.319663 
L 105.803398 147.495584 
L 106.310869 172.41019 
L 106.437736 167.925722 
L 106.564604 179.75984 
L 106.691472 175.524456 
L 106.81834 157.835195 
L 106.945207 161.821494 
L 107.072075 178.763502 
L 107.198943 180.133703 
L 107.325811 176.271709 
L 107.579546 181.752988 
L 107.833281 166.555046 
L 108.213885 168.797754 
L 108.340752 168.672975 
L 108.46762 161.198546 
L 108.594488 164.437592 
L 108.721356 175.026287 
L 108.975091 170.167956 
L 109.101959 171.413378 
L 109.228827 168.548196 
L 109.482562 188.355385 
L 109.736298 165.683013 
L 109.863165 175.026287 
L 109.990033 173.780391 
L 110.116901 165.683013 
L 110.243769 168.050027 
L 110.370636 173.531307 
L 110.624372 162.319663 
L 110.878107 179.38645 
L 111.004975 172.908358 
L 111.25871 148.74148 
L 111.512446 169.794092 
L 111.766181 158.209059 
L 112.019917 176.022624 
L 112.40052 151.108019 
L 112.654256 138.401869 
L 112.907991 154.596149 
L 113.161727 118.345595 
L 113.288594 120.961692 
L 113.54233 132.42242 
L 113.669197 133.543538 
L 113.796065 138.152784 
L 113.922933 136.906889 
L 114.049801 132.546726 
L 114.176668 132.671505 
L 114.430404 142.014304 
L 114.557272 141.142271 
L 114.684139 158.458143 
L 114.811007 159.57926 
L 114.937875 141.142271 
L 115.064743 140.270239 
L 115.19161 150.236461 
L 115.318478 150.485545 
L 115.445346 152.976864 
L 115.572214 160.575597 
L 115.825949 144.256539 
L 116.079685 166.181657 
L 116.33342 139.149122 
L 116.460288 138.152784 
L 116.587155 138.152784 
L 116.840891 151.730967 
L 116.967759 149.737818 
L 117.094626 137.654616 
L 117.221494 139.024817 
L 117.348362 150.73463 
L 117.47523 144.256539 
L 117.602097 127.315005 
L 117.728965 136.034856 
L 117.982701 168.922059 
L 118.109568 162.942611 
L 118.363304 139.77207 
L 118.490172 150.609851 
L 118.617039 148.990565 
L 118.743907 137.778921 
L 118.997643 142.512947 
L 119.12451 138.401869 
L 119.378246 160.949461 
L 119.631981 146.249687 
L 119.758849 149.737818 
L 119.885717 138.775733 
L 120.012584 141.017967 
L 120.139452 157.710416 
L 120.26632 152.727779 
L 120.520055 133.668317 
L 120.646923 125.820024 
L 120.773791 110.372997 
L 120.900659 110.871166 
L 121.027526 110.248218 
L 121.40813 90.067639 
L 121.534997 67.520046 
L 121.661865 71.132481 
L 121.788733 85.209307 
L 122.042468 72.129293 
L 122.296204 86.330424 
L 122.423072 90.939671 
L 122.549939 161.323326 
L 122.676807 158.707228 
L 122.803675 160.700377 
L 122.930542 158.209059 
L 123.184278 148.865785 
L 123.311146 146.748331 
L 123.438013 139.89685 
L 123.691749 160.451293 
L 123.945484 147.495584 
L 124.072352 151.357578 
L 124.326088 142.886337 
L 124.452955 145.627214 
L 124.579823 140.644103 
L 124.833559 150.111681 
L 124.960426 140.021155 
L 125.087294 139.149122 
L 125.214162 155.468182 
L 125.467897 134.041706 
L 125.594765 151.730967 
L 125.721633 152.478695 
L 125.8485 138.152784 
L 126.102236 149.364428 
L 126.229104 148.990565 
L 126.355971 158.08428 
L 126.482839 155.343877 
L 126.609707 146.125382 
L 126.736575 148.74148 
L 126.99031 139.273902 
L 127.244046 165.184845 
L 127.497781 133.792622 
L 127.751517 162.195358 
L 128.005252 136.533024 
L 128.258988 150.360766 
L 128.385855 152.22961 
L 128.512723 151.232798 
L 128.639591 148.243312 
L 128.893326 164.188507 
L 129.147062 141.391356 
L 129.273929 150.73463 
L 129.400797 149.737818 
L 129.527665 145.004266 
L 129.7814 167.05369 
L 130.162004 140.145934 
L 130.288871 140.395018 
L 130.415739 141.89 
L 130.542607 148.492396 
L 130.796342 91.562619 
L 130.92321 93.0576 
L 131.176946 98.787964 
L 131.430681 108.878016 
L 131.811284 100.905418 
L 131.938152 100.033386 
L 132.06502 94.178717 
L 132.191887 94.92597 
L 132.445623 109.874828 
L 132.572491 107.133951 
L 132.826226 111.618893 
L 132.953094 110.746861 
L 133.206829 125.820024 
L 133.460565 106.137614 
L 133.587433 114.982244 
L 133.841168 112.989094 
L 133.968036 122.456674 
L 134.094904 116.850614 
L 134.221771 103.89538 
L 134.475507 126.193888 
L 134.729242 115.231329 
L 134.85611 119.342407 
L 135.109845 116.60153 
L 135.363581 140.270239 
L 135.490449 136.034856 
L 135.617316 136.034856 
L 135.871052 163.939422 
L 135.99792 161.074241 
L 136.251655 135.661466 
L 136.378523 136.408719 
L 136.505391 139.273902 
L 136.632258 136.657804 
L 136.885994 154.970013 
L 137.012862 148.492396 
L 137.139729 135.038518 
L 137.393465 154.970013 
L 137.6472 136.533024 
L 138.154671 153.973202 
L 138.281539 140.768882 
L 138.408407 139.77207 
L 138.535274 152.852084 
L 138.662142 154.222759 
L 138.78901 127.564089 
L 138.915878 128.311342 
L 139.042745 123.453011 
L 139.296481 107.881679 
L 139.423349 111.743199 
L 139.550216 125.321855 
L 139.677084 124.200739 
L 139.803952 113.1134 
L 140.057687 128.934291 
L 140.311423 118.22129 
L 140.438291 122.705757 
L 140.565158 116.22814 
L 140.692026 117.598342 
L 140.945761 137.031668 
L 141.199497 126.692056 
L 141.326365 125.197076 
L 141.5801 112.366146 
L 141.706968 122.830063 
L 141.960703 115.978581 
L 142.087571 127.439309 
L 142.214439 122.830063 
L 142.341307 109.500965 
L 142.595042 139.522986 
L 142.848778 129.806323 
L 143.102513 139.149122 
L 143.229381 131.176525 
L 143.356249 130.92744 
L 143.483116 135.536687 
L 143.609984 131.924252 
L 143.736852 138.028005 
L 143.863719 155.592961 
L 143.990587 150.609851 
L 144.244323 132.297641 
L 144.498058 113.362958 
L 144.751794 139.024817 
L 144.878661 138.775733 
L 145.132397 124.449823 
L 145.259265 138.775733 
L 145.386132 140.395018 
L 145.639868 116.850614 
L 145.766736 121.708945 
L 145.893603 120.712608 
L 146.147339 138.152784 
L 146.274207 135.661466 
L 146.401074 129.806323 
L 146.781678 144.381318 
L 146.908545 133.418758 
L 147.035413 137.529837 
L 147.162281 158.831533 
L 147.416016 131.425608 
L 147.542884 139.398207 
L 147.796619 158.831533 
L 147.923487 156.09113 
L 148.050355 156.714078 
L 148.177223 158.458143 
L 148.430958 147.12172 
L 148.684694 139.89685 
L 148.938429 152.852084 
L 149.065297 148.990565 
L 149.192165 151.606663 
L 149.319032 165.558708 
L 149.4459 166.181657 
L 149.699636 151.730967 
L 149.826503 156.963163 
L 149.953371 169.046839 
L 150.080239 169.669787 
L 150.333974 142.139083 
L 150.58771 152.976864 
L 150.714577 146.125382 
L 150.841445 149.613513 
L 150.968313 159.081091 
L 151.095181 156.963163 
L 151.222048 147.993753 
L 151.348916 150.236461 
L 151.475784 162.444442 
L 151.602652 157.337027 
L 151.856387 135.910551 
L 152.110123 154.347065 
L 152.363858 144.132233 
L 152.617594 154.720929 
L 152.744461 149.11487 
L 153.125064 112.241367 
L 153.251932 106.261918 
L 153.505668 123.57779 
L 153.632535 109.37666 
L 153.886271 71.506345 
L 154.013139 86.08134 
L 154.140006 87.825404 
L 154.266874 80.60006 
L 154.52061 91.811703 
L 154.774345 82.09504 
L 154.901213 87.078151 
L 155.028081 162.818306 
L 155.154948 155.094792 
L 155.408684 188.23108 
L 155.662419 147.2465 
L 155.916155 165.433929 
L 156.043022 168.174806 
L 156.16989 174.029475 
L 156.423626 162.444442 
L 156.677361 178.140554 
L 156.804229 180.008923 
L 156.931097 184.369086 
L 157.057964 182.749801 
L 157.184832 178.389638 
L 157.3117 180.507567 
L 157.565435 194.957782 
L 157.819171 169.420228 
L 157.946039 180.880956 
L 158.199774 154.970013 
L 158.580377 187.857217 
L 158.707245 189.103113 
L 158.96098 177.019436 
L 159.087848 189.974671 
L 159.214716 190.348535 
L 159.341584 174.154255 
L 159.595319 179.510755 
L 159.722187 174.403339 
L 159.975922 193.089411 
L 160.10279 179.38645 
L 160.229658 178.389638 
L 160.356526 186.237931 
L 160.483393 178.887807 
L 160.610261 178.514417 
L 160.737129 195.206867 
L 160.863997 196.452762 
L 160.990864 184.618171 
L 161.2446 182.375937 
L 161.371468 172.784054 
L 161.498335 172.161105 
L 161.625203 176.770353 
L 161.752071 176.645573 
L 162.005806 179.635534 
L 162.132674 168.797754 
L 162.259542 169.545007 
L 162.386409 182.749801 
L 162.640145 173.90517 
L 162.767013 178.264859 
L 163.147616 163.067391 
L 163.274484 165.807793 
L 163.401351 178.389638 
L 163.528219 178.389638 
L 163.781955 162.818306 
L 163.908822 162.070579 
L 164.03569 153.848896 
L 164.162558 158.707228 
L 164.289426 170.41704 
L 164.543161 151.232798 
L 164.670029 166.92891 
L 164.796897 168.548196 
L 164.923764 158.08428 
L 165.1775 165.309624 
L 165.431235 160.700377 
L 165.558103 151.855746 
L 165.684971 154.097981 
L 165.811838 169.295923 
L 166.065574 154.970013 
L 166.192442 167.177994 
L 166.319309 162.319663 
L 166.446177 150.73463 
L 166.699913 171.413378 
L 166.953648 162.568747 
L 167.207384 169.420228 
L 167.461119 144.879486 
L 167.587987 145.627214 
L 167.841722 166.92891 
L 168.095458 139.149122 
L 168.349193 168.299111 
L 168.602929 144.132233 
L 168.729796 146.249687 
L 168.983532 163.44078 
L 169.237267 144.506096 
L 169.491003 160.700377 
L 169.617871 143.883149 
L 169.744738 142.014304 
L 169.998474 164.561896 
L 170.125342 150.236461 
L 170.252209 155.842045 
L 170.379077 174.154255 
L 170.505945 170.043177 
L 170.75968 152.104831 
L 170.886548 143.758369 
L 171.013416 144.132233 
L 171.267151 171.662936 
L 171.520887 163.067391 
L 172.282093 177.891469 
L 172.408961 174.901508 
L 172.535829 177.393301 
L 172.789564 171.289072 
L 173.0433 187.608132 
L 173.297035 189.601282 
L 173.550771 179.635534 
L 173.804506 203.428786 
L 174.058242 177.268521 
L 174.185109 185.739287 
L 174.438845 178.264859 
L 174.69258 193.587581 
L 174.819448 182.625021 
L 174.946316 183.995222 
L 175.200051 192.341684 
L 175.453787 199.940656 
L 175.707522 186.237931 
L 175.83439 193.213717 
L 175.961258 206.543053 
L 176.088125 199.193166 
L 176.214993 183.123191 
L 176.341861 193.338496 
L 176.468729 213.394533 
L 176.595596 211.276842 
L 176.849332 174.901508 
L 177.356803 192.21738 
L 177.48367 202.432211 
L 177.737406 180.880956 
L 177.991141 211.650468 
L 178.371745 196.82639 
L 178.498612 194.583918 
L 178.752348 204.176276 
L 179.006083 186.860405 
L 179.132951 199.193166 
L 179.259819 199.193166 
L 179.513554 168.299111 
L 179.894158 144.755181 
L 180.021025 137.405057 
L 180.274761 159.081091 
L 180.401628 144.506096 
L 180.528496 150.360766 
L 180.655364 164.561896 
L 180.909099 142.014304 
L 181.035967 148.990565 
L 181.162835 143.634065 
L 181.289703 143.260201 
L 181.543438 164.437592 
L 181.797174 151.855746 
L 181.924041 148.74148 
L 182.050909 134.789433 
L 182.177777 133.169674 
L 182.304645 147.744668 
L 182.431512 147.993753 
L 182.55838 142.637253 
L 182.685248 147.2465 
L 182.812116 146.623552 
L 182.938983 139.149122 
L 183.065851 144.381318 
L 183.319586 162.070579 
L 183.446454 155.842045 
L 183.70019 166.181657 
L 183.953925 145.004266 
L 184.080793 158.956312 
L 184.334528 154.596149 
L 184.461396 173.033138 
L 184.588264 175.150592 
L 184.968867 145.12857 
L 185.095735 138.028005 
L 185.34947 166.92891 
L 185.476338 162.942611 
L 185.730074 147.993753 
L 185.856941 156.09113 
L 185.983809 151.730967 
L 186.237544 128.311342 
L 186.745015 169.171144 
L 186.998751 151.108019 
L 187.379354 159.703565 
L 187.506222 171.164293 
L 187.63309 167.551858 
L 187.759957 182.126853 
L 187.886825 180.756652 
L 188.013693 159.703565 
L 188.140561 157.710416 
L 188.394296 189.601282 
L 188.521164 189.850366 
L 188.648032 190.597619 
L 188.774899 194.210529 
L 188.901767 189.601282 
L 189.155503 174.901508 
L 189.28237 174.901508 
L 189.536106 182.126853 
L 189.789841 172.28541 
L 189.916709 183.123191 
L 190.043577 180.880956 
L 190.170444 172.659274 
L 190.297312 173.656085 
L 190.42418 179.635534 
L 190.677915 196.701847 
L 190.804783 186.113152 
L 190.931651 185.241119 
L 191.058519 196.82639 
L 191.185386 194.210529 
L 191.312254 182.251632 
L 191.439122 184.369086 
L 191.56599 194.833002 
L 191.692857 188.106301 
L 191.819725 175.150592 
L 191.946593 181.752988 
L 192.073461 196.32822 
L 192.200328 190.348535 
L 192.454064 169.171144 
L 192.707799 185.116339 
L 192.834667 183.621833 
L 192.961535 184.493866 
L 193.21527 205.920104 
L 193.469006 175.275371 
L 193.722741 179.635534 
L 193.849609 175.773541 
L 194.103344 204.92353 
L 194.35708 170.41704 
L 194.991419 201.435636 
L 195.245154 178.763502 
L 195.498889 192.715548 
L 195.625757 166.305961 
L 196.00636 170.790904 
L 196.260096 168.672975 
L 196.513831 173.282222 
L 196.640699 172.534969 
L 196.767567 172.659274 
L 196.894435 177.019436 
L 197.14817 171.662936 
L 197.401906 183.372748 
L 197.655641 174.901508 
L 197.909377 179.26167 
L 198.163112 169.794092 
L 198.416847 174.901508 
L 198.543715 171.413378 
L 198.797451 173.157443 
L 198.924318 170.541345 
L 199.051186 174.652423 
L 199.304922 186.487016 
L 199.558657 179.012586 
L 199.685525 179.012586 
L 200.066128 181.877768 
L 200.192996 181.503905 
L 200.446731 174.278559 
L 200.700467 182.251632 
L 200.827335 183.123191 
L 200.954202 185.490204 
L 201.207938 177.143742 
L 201.461673 187.234269 
L 201.715409 173.531307 
L 201.842276 177.019436 
L 202.096012 166.804605 
L 202.22288 167.177994 
L 202.349747 169.545007 
L 202.476615 168.174806 
L 202.603483 165.558708 
L 202.857218 167.302773 
L 203.110954 160.077429 
L 203.364689 172.036325 
L 203.618425 167.800943 
L 203.87216 168.672975 
L 203.999028 165.932572 
L 204.125896 166.305961 
L 204.252764 167.800943 
L 204.633367 158.956312 
L 204.760234 158.458143 
L 204.887102 157.212247 
L 205.267705 164.312812 
L 205.394573 162.195358 
L 205.648309 156.714078 
L 205.775176 155.592961 
L 205.902044 153.475032 
L 206.028912 153.475032 
L 206.282647 157.212247 
L 206.409515 157.461331 
L 206.663251 153.599812 
L 206.916986 157.58611 
L 207.043854 155.592961 
L 207.297589 156.589298 
L 207.424457 156.464994 
L 207.678192 160.949461 
L 207.80506 157.58611 
L 207.931928 157.461331 
L 208.312531 160.824682 
L 208.439399 164.561896 
L 208.566267 164.312812 
L 208.820002 157.337027 
L 208.94687 159.828344 
L 209.073738 157.461331 
L 209.200605 157.212247 
L 209.327473 155.717266 
L 209.454341 151.980052 
L 209.961812 162.319663 
L 210.08868 163.067391 
L 210.342415 158.582448 
L 210.59615 154.097981 
L 210.976754 162.568747 
L 211.103621 160.700377 
L 211.357357 152.976864 
L 211.484225 152.603 
L 211.611092 153.724117 
L 211.73796 152.852084 
L 211.991696 144.381318 
L 212.118563 142.637253 
L 212.372299 137.280752 
L 212.87977 144.755181 
L 213.133505 138.775733 
L 213.387241 141.516135 
L 213.514108 140.644103 
L 213.640976 138.900038 
L 213.767844 141.017967 
L 213.894712 140.768882 
L 214.021579 141.017967 
L 214.275315 147.371279 
L 214.52905 139.522986 
L 214.782786 143.011116 
L 215.036521 137.031668 
L 215.290257 139.77207 
L 215.417125 137.529837 
L 215.67086 142.886337 
L 215.797728 138.526649 
L 215.924596 141.640915 
L 216.051463 148.616701 
L 216.178331 146.249687 
L 216.305199 141.017967 
L 216.558934 148.118532 
L 216.685802 146.499246 
L 216.81267 146.748331 
L 217.066405 152.478695 
L 217.320141 148.492396 
L 217.447008 149.239649 
L 217.700744 137.280752 
L 218.081347 142.886337 
L 218.335083 151.232798 
L 218.46195 150.609851 
L 218.715686 144.256539 
L 218.842554 144.132233 
L 219.096289 140.768882 
L 219.350025 148.118532 
L 219.476892 144.256539 
L 219.60376 144.630402 
L 219.857495 151.232798 
L 219.984363 162.693527 
L 220.111231 158.707228 
L 220.238099 150.983714 
L 220.364966 152.353916 
L 220.491834 152.104831 
L 220.618702 149.986902 
L 220.872437 151.481883 
L 221.126173 144.755181 
L 221.506776 152.353916 
L 221.760512 143.260201 
L 222.014247 148.990565 
L 222.267983 145.004266 
L 222.39485 146.872635 
L 222.648586 143.011116 
L 222.775453 141.76522 
L 223.029189 134.41557 
L 223.282924 141.391356 
L 223.53666 132.42242 
L 223.663528 136.408719 
L 223.790395 145.502434 
L 223.917263 145.876298 
L 224.044131 142.388168 
L 224.297866 148.74148 
L 224.805337 136.782583 
L 225.059073 153.350728 
L 225.185941 151.980052 
L 225.312808 150.983714 
L 225.439676 153.724117 
L 225.693411 139.273902 
L 225.947147 149.239649 
L 226.074015 148.492396 
L 226.200882 146.499246 
L 226.32775 142.637253 
L 226.454618 145.378129 
L 226.581486 152.104831 
L 226.835221 142.388168 
L 226.962089 143.509285 
L 227.215824 140.768882 
L 227.723295 155.717266 
L 227.850163 155.592961 
L 227.977031 157.58611 
L 228.230766 168.672975 
L 228.357634 168.922059 
L 228.484502 169.669787 
L 228.738237 165.807793 
L 228.991973 171.413378 
L 229.245708 164.561896 
L 229.372576 166.92891 
L 229.499444 172.534969 
L 229.626311 170.915209 
L 229.753179 165.184845 
L 229.880047 165.06054 
L 230.006915 165.558708 
L 230.133782 162.818306 
L 230.26065 163.814644 
L 230.641253 169.295923 
L 230.768121 169.046839 
L 231.021857 167.925722 
L 231.275592 176.645573 
L 231.656195 166.92891 
L 231.783063 167.676638 
L 231.909931 166.804605 
L 232.163666 177.143742 
L 232.417402 168.672975 
L 232.671137 169.420228 
L 232.798005 167.676638 
L 233.05174 159.454481 
L 233.178608 159.703565 
L 233.305476 163.191695 
L 233.559211 157.58611 
L 233.686079 159.454481 
L 233.939815 165.932572 
L 234.447286 154.097981 
L 234.701021 155.468182 
L 234.954756 143.135421 
L 235.081624 144.879486 
L 235.589095 158.333364 
L 235.715963 156.340215 
L 235.969698 156.464994 
L 236.096566 154.845233 
L 236.223434 184.867255 
L 236.350302 186.61132 
L 236.604037 216.384258 
L 236.857773 174.777203 
L 237.238376 210.778435 
L 237.365244 215.761546 
L 237.618979 191.968295 
L 237.872714 221.616453 
L 237.999582 223.983229 
L 238.253318 247.278311 
L 238.507053 231.333116 
L 238.633921 241.672489 
L 238.760789 241.049779 
L 238.887656 219.747846 
L 239.014524 219.498524 
L 239.141392 237.063243 
L 239.26826 228.09407 
L 239.395127 204.300819 
L 239.521995 214.51565 
L 239.775731 246.655363 
L 240.156334 235.319414 
L 240.283202 243.914724 
L 240.410069 233.824434 
L 240.536937 213.76816 
L 240.790672 232.952401 
L 240.91754 221.99008 
L 241.171276 253.25776 
L 241.425011 219.623066 
L 241.551879 242.544522 
L 241.805614 227.097495 
L 242.05935 262.226933 
L 242.313085 228.717018 
L 242.439953 230.336541 
L 242.566821 219.249439 
L 242.693689 222.613028 
L 242.820556 232.952401 
L 242.947424 227.969527 
L 243.074292 229.58905 
L 243.20116 228.467934 
L 243.328027 212.024332 
L 243.454895 214.391108 
L 243.581763 230.585625 
L 243.708631 219.747846 
L 243.835498 219.249439 
L 243.962366 232.827859 
L 244.216101 221.118047 
L 244.342969 168.922059 
L 244.469837 169.420228 
L 244.596705 177.642385 
L 244.723572 174.901508 
L 244.977308 156.464994 
L 245.104176 160.700377 
L 245.231043 152.727779 
L 245.357911 157.337027 
L 245.484779 173.406528 
L 245.738514 141.391356 
L 245.99225 159.454481 
L 246.119118 156.589298 
L 246.245985 160.700377 
L 246.372853 159.953124 
L 246.499721 161.572409 
L 246.626589 158.458143 
L 246.753456 141.017967 
L 246.880324 154.222759 
L 247.007192 181.25482 
L 247.260927 158.209059 
L 247.387795 175.649235 
L 247.64153 147.869447 
L 247.895266 167.800943 
L 248.022134 159.57926 
L 248.149001 168.672975 
L 248.275869 166.804605 
L 248.402737 157.212247 
L 248.529605 156.464994 
L 248.78334 141.267051 
L 249.037076 177.891469 
L 249.290811 140.893188 
L 249.544547 185.614983 
L 249.798282 155.219097 
L 250.052017 168.797754 
L 250.178885 175.773541 
L 250.432621 153.350728 
L 250.686356 182.002073 
L 250.940092 140.768882 
L 251.193827 181.752988 
L 251.320695 163.939422 
L 251.447563 166.92891 
L 251.57443 193.961444 
L 251.701298 184.992034 
L 251.828166 161.323326 
L 251.955034 163.067391 
L 252.081901 161.074241 
L 252.208769 157.212247 
L 252.335637 171.538157 
L 252.462505 157.959975 
L 252.71624 122.830063 
L 252.969975 140.893188 
L 253.096843 141.142271 
L 253.223711 139.273902 
L 253.477446 146.249687 
L 253.731182 141.391356 
L 253.984917 130.304492 
L 254.238653 156.714078 
L 254.492388 142.263389 
L 254.619256 141.267051 
L 254.746124 144.132233 
L 254.872992 163.565559 
L 254.999859 165.433929 
L 255.253595 131.301304 
L 255.380463 145.378129 
L 255.634198 134.539876 
L 255.761066 149.737818 
L 255.887933 147.620364 
L 256.014801 129.681544 
L 256.141669 136.159635 
L 256.268537 151.855746 
L 256.522272 140.644103 
L 256.64914 148.865785 
L 256.776008 146.125382 
L 256.902875 134.41557 
L 257.029743 144.630402 
L 257.156611 165.558708 
L 257.283479 159.828344 
L 257.410346 137.405057 
L 257.537214 147.993753 
L 257.664082 177.517606 
L 257.79095 175.026287 
L 258.044685 135.287603 
L 258.298421 152.353916 
L 258.425288 146.249687 
L 258.679024 176.396489 
L 258.932759 133.668317 
L 259.186495 178.638722 
L 259.693966 138.650954 
L 259.947701 166.056878 
L 260.074569 145.12857 
L 260.201437 151.108019 
L 260.328304 180.008923 
L 260.455172 168.050027 
L 260.58204 293.743935 
L 260.708908 285.148389 
L 260.835775 265.465978 
L 260.962643 265.715063 
L 261.089511 263.098965 
L 261.216379 251.513695 
L 261.470114 280.539141 
L 261.596982 258.116091 
L 261.72385 265.964147 
L 261.850717 287.515165 
L 262.104453 252.884134 
L 262.23132 260.358325 
L 262.358188 258.116091 
L 262.485056 262.849881 
L 262.611924 280.913006 
L 262.738791 280.165515 
L 262.865659 267.832754 
L 263.119395 274.061524 
L 263.246262 254.254335 
L 263.37313 254.129793 
L 263.499998 274.559693 
L 263.626866 266.960722 
L 263.753733 252.261185 
L 264.007469 265.216657 
L 264.134337 260.732189 
L 264.388072 275.68081 
L 264.641808 267.459128 
L 264.895543 277.67396 
L 265.149278 256.994974 
L 265.276146 269.57682 
L 265.403014 267.832754 
L 265.529882 268.455702 
L 265.783617 295.488 
L 266.16422 237.68619 
L 266.291088 231.083794 
L 266.544824 283.279782 
L 266.671691 280.788226 
L 266.925427 260.483105 
L 267.052295 270.697937 
L 267.179162 271.445427 
L 267.432898 234.32284 
L 267.686633 245.036077 
L 267.940369 277.67396 
L 268.194104 243.541097 
L 268.320972 248.523971 
L 268.574707 263.223508 
L 268.828443 168.299111 
L 268.955311 185.241119 
L 269.082178 184.120002 
L 269.209046 163.689865 
L 269.335914 171.164293 
L 269.462782 191.843516 
L 269.589649 187.981522 
L 269.716517 176.894657 
L 269.970253 193.338496 
L 270.350856 174.029475 
L 270.604591 180.258008 
L 270.858327 161.946273 
L 271.112062 193.089411 
L 271.365798 161.074241 
L 271.492665 162.195358 
L 271.619533 170.666124 
L 271.873269 210.903215 
L 272.127004 187.483353 
L 272.253872 194.085749 
L 272.38074 192.21738 
L 272.507607 179.884619 
L 272.634475 182.500717 
L 272.761343 193.213717 
L 273.015078 156.09113 
L 273.141946 163.689865 
L 273.268814 189.974671 
L 273.395682 187.359048 
L 273.649417 157.087942 
L 273.776285 174.528118 
L 273.903153 176.396489 
L 274.03002 170.043177 
L 274.156888 174.652423 
L 274.410623 200.065198 
L 274.918094 157.337027 
L 275.044962 158.209059 
L 275.298698 194.833002 
L 275.552433 156.838383 
L 275.806169 178.015774 
L 275.933036 176.894657 
L 276.186772 187.981522 
L 276.440507 163.814644 
L 276.694243 173.033138 
L 276.947978 166.555046 
L 277.201714 200.563604 
L 277.455449 160.700377 
L 277.96292 190.473315 
L 278.216656 166.804605 
L 278.724127 200.937231 
L 278.850994 203.67787 
L 279.10473 191.096262 
L 279.358465 210.653894 
L 279.612201 186.61132 
L 279.739069 201.061772 
L 279.865936 189.850366 
L 279.992804 167.800943 
L 280.373407 206.667595 
L 280.500275 204.300819 
L 280.75401 188.729249 
L 280.880878 198.445912 
L 281.007746 191.469651 
L 281.134614 176.770353 
L 281.388349 195.456188 
L 281.515217 183.372748 
L 281.768952 207.788711 
L 282.022688 187.857217 
L 282.149556 197.449337 
L 282.403291 187.359048 
L 282.530159 204.42536 
L 282.657027 204.176276 
L 282.783894 189.601282 
L 282.910762 189.974671 
L 283.03763 186.985184 
L 283.164497 173.282222 
L 283.291365 176.645573 
L 283.418233 184.120002 
L 283.545101 179.136891 
L 283.671968 181.130041 
L 283.798836 178.015774 
L 283.925704 159.828344 
L 284.052572 162.319663 
L 284.179439 180.631872 
L 284.433175 172.161105 
L 284.560043 177.891469 
L 284.68691 169.046839 
L 284.813778 169.794092 
L 284.940646 146.249687 
L 285.067514 146.748331 
L 285.194381 153.848896 
L 285.321249 150.236461 
L 285.448117 137.778921 
L 285.574985 137.031668 
L 285.701852 138.650954 
L 285.82872 129.308154 
L 285.955588 133.543538 
L 286.082456 147.993753 
L 286.336191 124.200739 
L 286.589926 139.522986 
L 286.716794 126.069108 
L 286.843662 129.308154 
L 286.97053 136.159635 
L 287.097397 135.536687 
L 287.224265 133.294453 
L 287.351133 124.075959 
L 287.478001 129.432459 
L 287.604868 152.603 
L 287.731736 147.869447 
L 287.858604 134.789433 
L 287.985472 144.755181 
L 288.112339 138.028005 
L 288.239207 122.331894 
L 288.492943 142.139083 
L 288.61981 131.176525 
L 288.746678 131.301304 
L 288.873546 135.661466 
L 289.000414 135.038518 
L 289.127281 130.180187 
L 289.381017 112.864315 
L 289.634752 145.378129 
L 289.888488 113.736348 
L 290.142223 147.744668 
L 290.395959 129.432459 
L 290.522826 130.180187 
L 290.776562 137.778921 
L 291.030297 119.715796 
L 291.284033 142.637253 
L 291.537768 110.497776 
L 291.791504 147.744668 
L 291.918372 125.57094 
L 292.045239 125.944803 
L 292.172107 151.855746 
L 292.298975 148.367617 
L 292.55271 129.557239 
L 292.679578 121.584641 
L 292.806446 120.712608 
L 292.933313 136.408719 
L 293.060181 136.533024 
L 293.440784 113.612043 
L 293.69452 120.463524 
L 293.821388 118.594679 
L 294.075123 125.944803 
L 294.201991 124.200739 
L 294.328859 127.315005 
L 294.582594 112.241367 
L 294.83633 134.913739 
L 294.963197 127.688394 
L 295.216933 129.308154 
L 295.3438 126.442972 
L 295.597536 143.883149 
L 295.851271 111.245029 
L 295.978139 120.214439 
L 296.231875 112.989094 
L 296.358742 122.082809 
L 296.48561 120.836913 
L 296.612478 110.871166 
L 296.739346 113.736348 
L 296.866213 121.708945 
L 296.993081 121.335556 
L 297.119949 118.594679 
L 297.246817 121.95803 
L 297.373684 116.352445 
L 297.500552 104.019685 
L 297.62742 110.123913 
L 297.754288 128.436121 
L 297.881155 121.95803 
L 298.008023 100.781113 
L 298.134891 110.995945 
L 298.261758 134.913739 
L 298.388626 132.671505 
L 298.642362 91.06445 
L 298.896097 99.410438 
L 299.022965 94.427801 
L 299.2767 116.726309 
L 299.530436 84.960223 
L 299.784171 117.473563 
L 300.291642 91.686924 
L 300.545378 105.265581 
L 300.672246 88.697437 
L 300.799113 89.44469 
L 300.925981 109.750049 
L 301.052849 105.888529 
L 301.179717 221.865537 
L 301.306584 213.643618 
L 301.56032 192.466464 
L 301.687187 192.341684 
L 301.814055 181.877768 
L 302.067791 206.293968 
L 302.194658 188.23108 
L 302.321526 187.608132 
L 302.448394 204.42536 
L 302.702129 185.739287 
L 302.828997 189.103113 
L 302.955865 180.507567 
L 303.082733 182.749801 
L 303.2096 201.061772 
L 303.336468 201.809263 
L 303.463336 193.213717 
L 303.590204 195.829815 
L 303.717071 192.715548 
L 303.843939 176.645573 
L 303.970807 178.264859 
L 304.097675 195.206867 
L 304.224542 189.725586 
L 304.35141 179.38645 
L 304.605145 192.590769 
L 304.732013 180.756652 
L 304.858881 188.853554 
L 304.985749 205.048072 
L 305.112616 203.428786 
L 305.239484 195.206867 
L 305.49322 204.176276 
L 305.746955 185.739287 
L 305.873823 195.705272 
L 306.000691 195.58073 
L 306.127558 196.452762 
L 306.381294 214.51565 
L 306.888765 164.811455 
L 307.1425 197.449337 
L 307.269368 192.21738 
L 307.523103 179.884619 
L 307.649971 188.853554 
L 307.776839 189.725586 
L 308.030574 154.596149 
L 308.28431 160.077429 
L 308.538045 199.567029 
L 308.664913 191.594431 
L 308.791781 174.403339 
L 308.918649 178.638722 
L 309.172384 194.708697 
L 309.42612 166.92891 
L 309.552987 185.116339 
L 309.679855 187.109964 
L 309.806723 159.205396 
L 309.933591 157.212247 
L 310.187326 191.843516 
L 310.314194 182.625021 
L 310.567929 194.833002 
L 311.0754 170.915209 
L 311.202268 173.157443 
L 311.329136 171.787242 
L 311.456003 166.92891 
L 311.709739 184.369086 
L 311.963474 163.191695 
L 312.090342 164.686676 
L 312.21721 171.538157 
L 312.470945 203.802412 
L 312.724681 179.635534 
L 312.851549 194.459613 
L 312.978416 193.089411 
L 313.105284 174.154255 
L 313.232152 173.531307 
L 313.35902 184.992034 
L 313.612755 154.347065 
L 313.739623 161.946273 
L 313.86649 181.130041 
L 313.993358 173.282222 
L 314.247094 142.762032 
L 314.500829 159.703565 
L 314.627697 159.205396 
L 314.754565 158.209059 
L 315.0083 177.268521 
L 315.515771 142.139083 
L 315.642639 140.644103 
L 315.896374 171.413378 
L 316.15011 134.041706 
L 316.276978 137.903701 
L 316.403845 150.858934 
L 316.530713 151.108019 
L 316.784448 160.077429 
L 317.038184 136.657804 
L 317.291919 150.609851 
L 317.545655 143.758369 
L 317.79939 182.749801 
L 318.053126 144.755181 
L 318.306861 169.420228 
L 318.433729 173.157443 
L 318.560597 186.362236 
L 318.814332 168.174806 
L 319.068068 202.681296 
L 319.194936 202.805837 
L 319.448671 220.993505 
L 319.702406 212.397959 
L 319.956142 223.858686 
L 320.08301 207.664169 
L 320.209877 208.411659 
L 320.336745 226.350005 
L 320.463613 220.370557 
L 320.590481 199.068623 
L 320.717348 208.909829 
L 320.971084 240.302288 
L 321.097952 235.070093 
L 321.351687 214.51565 
L 321.478555 231.333116 
L 321.605423 226.350005 
L 321.73229 207.290543 
L 321.986026 227.222037 
L 322.112894 218.252864 
L 322.366629 248.399428 
L 322.620364 214.391108 
L 322.747232 230.585625 
L 322.8741 230.585625 
L 323.000968 228.84156 
L 323.254703 253.506845 
L 323.508439 226.350005 
L 323.635306 221.740995 
L 323.762174 208.660744 
L 324.01591 231.706743 
L 324.142777 222.613028 
L 324.269645 221.616453 
L 324.396513 214.391108 
L 324.523381 191.843516 
L 324.650248 200.812688 
L 324.777116 219.99693 
L 324.903984 200.688146 
L 325.030852 198.944081 
L 325.157719 222.363706 
L 325.284587 220.370557 
L 325.411455 216.259716 
L 325.538322 171.538157 
L 325.66519 173.282222 
L 325.792058 186.487016 
L 325.918926 180.382787 
L 326.045793 164.93576 
L 326.299529 174.278559 
L 326.426397 161.198546 
L 326.553264 163.689865 
L 326.680132 183.497054 
L 326.933868 160.575597 
L 327.187603 172.036325 
L 327.314471 166.430741 
L 327.568206 180.008923 
L 327.94881 168.174806 
L 328.075677 178.264859 
L 328.202545 198.32137 
L 328.456281 165.932572 
L 328.583148 188.60447 
L 328.710016 182.375937 
L 328.836884 163.939422 
L 329.090619 185.988372 
L 329.217487 179.75984 
L 329.344355 182.126853 
L 329.851826 157.959975 
L 329.978693 158.956312 
L 330.105561 180.258008 
L 330.232429 181.379599 
L 330.486164 154.970013 
L 330.7399 194.210529 
L 330.993635 164.686676 
L 331.120503 168.922059 
L 331.374239 188.729249 
L 331.627974 166.555046 
L 331.881709 197.947506 
L 332.135445 159.454481 
L 332.38918 188.480165 
L 332.516048 174.528118 
L 332.642916 178.638722 
L 332.769784 201.560179 
L 332.896651 197.822964 
L 333.150387 167.925722 
L 333.277255 168.050027 
L 333.53099 187.234269 
L 333.657858 175.399676 
L 333.784726 151.108019 
L 333.911593 148.616701 
L 334.165329 166.555046 
L 334.419064 171.912021 
L 334.545932 171.413378 
L 334.926535 179.012586 
L 335.180271 167.05369 
L 335.434006 198.944081 
L 335.560874 192.964633 
L 335.687742 192.466464 
L 335.814609 196.82639 
L 335.941477 194.459613 
L 336.195213 217.131748 
L 336.448948 183.372748 
L 336.702684 206.543053 
L 336.829551 199.816113 
L 337.083287 211.77501 
L 337.210155 200.563604 
L 337.337022 206.044883 
L 337.46389 217.25629 
L 337.590758 216.135173 
L 337.717625 212.148874 
L 337.844493 215.512225 
L 338.098229 202.307669 
L 338.351964 239.430256 
L 338.478832 228.966102 
L 338.6057 209.034608 
L 338.986303 250.268036 
L 339.240038 220.370557 
L 339.493774 236.689616 
L 339.620642 224.855261 
L 339.874377 259.735614 
L 340.128113 224.232313 
L 340.381848 263.223508 
L 340.635584 240.675915 
L 340.762451 237.437107 
L 340.889319 229.215187 
L 341.143054 255.499994 
L 341.269922 242.669064 
L 341.39679 254.503419 
L 341.523658 279.791651 
L 341.650525 268.704787 
L 341.904261 207.788711 
L 342.031129 189.601282 
L 342.284864 197.075473 
L 342.411732 184.867255 
L 342.665467 209.408234 
L 342.792335 187.359048 
L 342.919203 186.736099 
L 343.046071 204.549903 
L 343.299806 180.507567 
L 343.426674 183.24797 
L 343.553542 175.399676 
L 343.680409 178.887807 
L 343.807277 197.449337 
L 343.934145 198.196591 
L 344.061012 186.61132 
L 344.314748 192.21738 
L 344.568483 178.514417 
L 344.695351 188.60447 
L 344.949087 180.880956 
L 345.075954 191.718736 
L 345.202822 190.22423 
L 345.32969 179.884619 
L 345.583425 202.058347 
L 345.837161 193.089411 
L 346.090896 206.293968 
L 346.217764 187.359048 
L 346.344632 185.739287 
L 346.4715 200.439061 
L 346.725235 194.833002 
L 346.97897 222.73757 
L 347.359574 168.423891 
L 347.486441 158.333364 
L 347.867045 213.020907 
L 348.12078 191.718736 
L 348.374516 212.647043 
L 348.628251 176.645573 
L 348.881987 182.874106 
L 349.135722 216.508799 
L 349.389458 187.608132 
L 349.770061 210.031183 
L 350.023796 147.620364 
L 350.150664 168.922059 
L 350.277532 163.814644 
L 350.404399 137.031668 
L 350.531267 143.011116 
L 350.658135 164.686676 
L 350.91187 158.458143 
L 351.165606 178.389638 
L 351.419341 153.225948 
L 351.546209 159.57926 
L 351.673077 158.707228 
L 352.05368 147.2465 
L 352.180548 151.357578 
L 352.307416 167.427079 
L 352.561151 143.883149 
L 353.068622 195.456188 
L 353.19549 188.480165 
L 353.322357 170.666124 
L 353.576093 173.033138 
L 353.702961 163.565559 
L 353.829828 167.925722 
L 353.956696 184.244781 
L 354.083564 174.154255 
L 354.210432 145.378129 
L 354.337299 153.225948 
L 354.464167 182.998885 
L 354.591035 177.019436 
L 354.717903 152.478695 
L 354.84477 151.108019 
L 354.971638 169.545007 
L 355.098506 171.662936 
L 355.352241 164.561896 
L 355.605977 203.304244 
L 355.732845 194.957782 
L 355.98658 146.623552 
L 356.113448 142.512947 
L 356.240315 145.12857 
L 356.494051 176.770353 
L 356.747786 136.533024 
L 357.001522 158.956312 
L 357.12839 146.000603 
L 357.255257 149.239649 
L 357.382125 171.538157 
L 357.508993 164.93576 
L 357.762728 137.529837 
L 357.889596 157.58611 
L 358.016464 123.826875 
L 358.143332 124.947992 
L 358.397067 163.067391 
L 358.650803 123.826875 
L 358.904538 139.89685 
L 359.031406 142.886337 
L 359.158273 153.101643 
L 359.412009 138.526649 
L 359.665744 165.932572 
L 359.792612 158.333364 
L 359.91948 157.835195 
L 360.300083 169.669787 
L 360.553819 185.614983 
L 360.680686 164.561896 
L 360.807554 164.312812 
L 360.934422 185.864067 
L 361.06129 178.514417 
L 361.188157 156.340215 
L 361.568761 193.711885 
L 361.695628 189.725586 
L 361.949364 176.271709 
L 362.076231 189.601282 
L 362.203099 189.103113 
L 362.329967 172.036325 
L 362.583702 183.372748 
L 362.71057 181.130041 
L 362.964306 210.404809 
L 363.218041 184.992034 
L 363.344909 191.968295 
L 363.471777 188.978333 
L 363.598644 195.082324 
L 363.725512 219.000355 
L 363.85238 218.377407 
L 364.106115 197.449337 
L 364.232983 195.331409 
L 364.359851 176.521268 
L 364.486719 175.524456 
L 364.613586 176.770353 
L 365.247925 108.255068 
L 365.374793 127.190226 
L 365.50166 119.840576 
L 365.628528 121.086472 
L 365.755396 136.657804 
L 365.882264 134.913739 
L 366.009131 139.77207 
L 366.135999 180.631872 
L 366.262867 180.631872 
L 366.389735 191.843516 
L 366.516602 189.601282 
L 366.64347 178.140554 
L 366.770338 178.389638 
L 366.897206 177.268521 
L 367.024073 168.174806 
L 367.277809 190.473315 
L 367.531544 162.444442 
L 367.658412 177.268521 
L 367.78528 177.393301 
L 367.912148 164.93576 
L 368.165883 186.362236 
L 368.292751 183.372748 
L 368.546486 163.939422 
L 368.800222 187.483353 
L 369.053957 160.326514 
L 369.180825 182.002073 
L 369.307693 179.635534 
L 369.43456 171.289072 
L 369.561428 183.497054 
L 369.688296 183.372748 
L 369.815164 178.887807 
L 369.942031 187.857217 
L 370.068899 180.133703 
L 370.322635 158.707228 
L 370.449502 152.22961 
L 370.57637 155.468182 
L 370.830106 184.120002 
L 371.083841 156.215909 
L 371.337576 195.206867 
L 371.71818 164.063728 
L 371.971915 187.608132 
L 372.225651 157.461331 
L 372.479386 181.628684 
L 372.733122 149.613513 
L 372.986857 176.271709 
L 373.113725 164.312812 
L 373.240593 169.545007 
L 373.36746 190.348535 
L 373.494328 185.116339 
L 373.748064 164.437592 
L 374.001799 156.714078 
L 374.128667 170.043177 
L 374.382402 83.963411 
L 374.50927 81.098229 
L 374.763005 95.05075 
L 374.889873 95.673224 
L 375.143609 99.659997 
L 375.397344 96.670035 
L 375.524212 100.531555 
L 375.777947 82.967073 
L 376.031683 99.286132 
L 376.158551 91.313535 
L 376.412286 90.192418 
L 376.539154 84.462054 
L 376.792889 109.625744 
L 377.046625 80.350976 
L 377.173492 93.0576 
L 377.30036 93.306685 
L 377.427228 88.323574 
L 377.554096 92.060788 
L 377.807831 72.129293 
L 378.061567 83.963411 
L 378.315302 76.987625 
L 378.44217 79.229859 
L 378.695905 60.543786 
L 378.949641 86.08134 
L 379.076509 80.101891 
L 379.203376 66.523235 
L 379.330244 75.866508 
L 379.58398 97.542067 
L 379.837715 53.568 
L 379.964583 55.685454 
L 380.09145 60.41948 
L 380.218318 56.059318 
L 380.472054 87.57632 
L 380.725789 56.682266 
L 380.979525 93.430989 
L 381.23326 76.73854 
L 381.360128 75.741728 
L 381.486996 67.395266 
L 381.740731 90.441502 
L 381.867599 76.489455 
L 381.994467 76.115592 
L 382.121334 98.28932 
L 382.248202 97.666373 
L 382.37507 208.162575 
L 382.501938 203.553328 
L 382.755673 175.150592 
L 382.882541 180.507567 
L 383.009409 172.659274 
L 383.263144 183.372748 
L 383.390012 173.656085 
L 383.516879 176.521268 
L 383.643747 192.466464 
L 383.770615 186.985184 
L 384.02435 173.90517 
L 384.151218 166.804605 
L 384.278086 168.174806 
L 384.531821 186.860405 
L 384.785557 172.28541 
L 384.912425 174.901508 
L 385.16616 158.333364 
L 385.293028 174.154255 
L 385.419896 174.403339 
L 385.546763 168.797754 
L 385.673631 176.271709 
L 385.800499 175.773541 
L 385.927367 167.302773 
L 386.181102 196.203441 
L 386.434837 182.251632 
L 386.688573 201.560179 
L 386.942308 177.517606 
L 387.069176 190.22423 
L 387.196044 188.355385 
L 387.322912 192.839854 
L 387.449779 219.373982 
L 387.576647 219.747846 
L 387.830383 184.369086 
L 388.084118 164.561896 
L 388.337854 203.802412 
L 388.464721 199.068623 
L 388.591589 182.375937 
L 388.718457 187.359048 
L 388.845325 204.92353 
L 388.972192 201.311094 
L 389.225928 166.430741 
L 389.479663 175.275371 
L 389.733399 216.259716 
L 389.860266 207.664169 
L 389.987134 191.220568 
L 390.24087 207.290543 
L 390.367737 215.886088 
L 390.621473 164.93576 
L 390.748341 183.24797 
L 390.875208 179.38645 
L 391.002076 153.599812 
L 391.128944 154.845233 
L 391.255812 174.777203 
L 391.382679 174.528118 
L 391.509547 172.161105 
L 391.763283 180.008923 
L 392.270753 159.828344 
L 392.524489 175.773541 
L 392.651357 169.171144 
L 392.905092 193.338496 
L 393.158828 173.531307 
L 393.666299 215.636767 
L 393.920034 178.015774 
L 394.17377 186.487016 
L 394.300637 174.652423 
L 394.427505 178.638722 
L 394.554373 191.594431 
L 394.808108 165.433929 
L 394.934976 176.396489 
L 395.061844 199.193166 
L 395.188711 192.839854 
L 395.442447 165.433929 
L 395.696182 184.74295 
L 395.82305 184.992034 
L 395.949918 182.002073 
L 396.076786 190.09945 
L 396.203653 208.162575 
L 396.330521 199.317945 
L 396.584257 152.852084 
L 396.837992 143.758369 
L 396.96486 146.249687 
L 397.091728 145.25335 
L 397.472331 90.316723 
L 397.599199 95.05075 
L 397.726066 91.188755 
L 397.852934 90.939671 
L 397.979802 102.774263 
L 398.10667 99.659997 
L 398.360405 82.842293 
L 398.487273 98.165016 
L 398.487273 98.165016 
" clip-path="url(#pa20dae8991)" style="fill: none; stroke: #1f77b4; stroke-width: 1.5; stroke-linecap: square"/>
   </g>
   <g id="patch_3">
    <path d="M 57.6 307.584 
L 57.6 41.472 
" style="fill: none; stroke: #000000; stroke-width: 0.8; stroke-linejoin: miter; stroke-linecap: square"/>
   </g>
   <g id="patch_4">
    <path d="M 414.72 307.584 
L 414.72 41.472 
" style="fill: none; stroke: #000000; stroke-width: 0.8; stroke-linejoin: miter; stroke-linecap: square"/>
   </g>
   <g id="patch_5">
    <path d="M 57.6 307.584 
L 414.72 307.584 
" style="fill: none; stroke: #000000; stroke-width: 0.8; stroke-linejoin: miter; stroke-linecap: square"/>
   </g>
   <g id="patch_6">
    <path d="M 57.6 41.472 
L 414.72 41.472 
" style="fill: none; stroke: #000000; stroke-width: 0.8; stroke-linejoin: miter; stroke-linecap: square"/>
   </g>
   <g id="legend_1">
    <g id="patch_7">
     <path d="M 64.6 64.150125 
L 118.245312 64.150125 
Q 120.245312 64.150125 120.245312 62.150125 
L 120.245312 48.472 
Q 120.245312 46.472 118.245312 46.472 
L 64.6 46.472 
Q 62.6 46.472 62.6 48.472 
L 62.6 62.150125 
Q 62.6 64.150125 64.6 64.150125 
z
" style="fill: #ffffff; opacity: 0.8; stroke: #cccccc; stroke-linejoin: miter"/>
    </g>
    <g id="line2d_14">
     <path d="M 66.6 54.570438 
L 76.6 54.570438 
L 86.6 54.570438 
" style="fill: none; stroke: #1f77b4; stroke-width: 1.5; stroke-linecap: square"/>
    </g>
    <g id="text_13">
     <!-- set1 -->
     <g transform="translate(94.6 58.070438)scale(0.1 -0.1)">
      <defs>
       <path id="DejaVuSans-73" d="M 2834 3397 
L 2834 2853 
Q 2591 2978 2328 3040 
Q 2066 3103 1784 3103 
Q 1356 3103 1142 2972 
Q 928 2841 928 2578 
Q 928 2378 1081 2264 
Q 1234 2150 1697 2047 
L 1894 2003 
Q 2506 1872 2764 1633 
Q 3022 1394 3022 966 
Q 3022 478 2636 193 
Q 2250 -91 1575 -91 
Q 1294 -91 989 -36 
Q 684 19 347 128 
L 347 722 
Q 666 556 975 473 
Q 1284 391 1588 391 
Q 1994 391 2212 530 
Q 2431 669 2431 922 
Q 2431 1156 2273 1281 
Q 2116 1406 1581 1522 
L 1381 1569 
Q 847 1681 609 1914 
Q 372 2147 372 2553 
Q 372 3047 722 3315 
Q 1072 3584 1716 3584 
Q 2034 3584 2315 3537 
Q 2597 3491 2834 3397 
z
" transform="scale(0.015625)"/>
       <path id="DejaVuSans-65" d="M 3597 1894 
L 3597 1613 
L 953 1613 
Q 991 1019 1311 708 
Q 1631 397 2203 397 
Q 2534 397 2845 478 
Q 3156 559 3463 722 
L 3463 178 
Q 3153 47 2828 -22 
Q 2503 -91 2169 -91 
Q 1331 -91 842 396 
Q 353 884 353 1716 
Q 353 2575 817 3079 
Q 1281 3584 2069 3584 
Q 2775 3584 3186 3129 
Q 3597 2675 3597 1894 
z
M 3022 2063 
Q 3016 2534 2758 2815 
Q 2500 3097 2075 3097 
Q 1594 3097 1305 2825 
Q 1016 2553 972 2059 
L 3022 2063 
z
" transform="scale(0.015625)"/>
       <path id="DejaVuSans-74" d="M 1172 4494 
L 1172 3500 
L 2356 3500 
L 2356 3053 
L 1172 3053 
L 1172 1153 
Q 1172 725 1289 603 
Q 1406 481 1766 481 
L 2356 481 
L 2356 0 
L 1766 0 
Q 1100 0 847 248 
Q 594 497 594 1153 
L 594 3053 
L 172 3053 
L 172 3500 
L 594 3500 
L 594 4494 
L 1172 4494 
z
" transform="scale(0.015625)"/>
      </defs>
      <use xlink:href="#DejaVuSans-73"/>
      <use xlink:href="#DejaVuSans-65" x="52.099609"/>
      <use xlink:href="#DejaVuSans-74" x="113.623047"/>
      <use xlink:href="#DejaVuSans-31" x="152.832031"/>
     </g>
    </g>
   </g>
  </g>
 </g>
 <defs>
  <clipPath id="pa20dae8991">
   <rect x="57.6" y="41.472" width="357.12" height="266.112"/>
  </clipPath>
 </defs>
</svg>
