<?xml version="1.0" encoding="utf-8" standalone="no"?>
<!DOCTYPE svg PUBLIC "-//W3C//DTD SVG 1.1//EN"
  "http://www.w3.org/Graphics/SVG/1.1/DTD/svg11.dtd">
<svg xmlns:xlink="http://www.w3.org/1999/xlink" width="460.8pt" height="345.6pt" viewBox="0 0 460.8 345.6" xmlns="http://www.w3.org/2000/svg" version="1.1">
 <metadata>
  <rdf:RDF xmlns:dc="http://purl.org/dc/elements/1.1/" xmlns:cc="http://creativecommons.org/ns#" xmlns:rdf="http://www.w3.org/1999/02/22-rdf-syntax-ns#">
   <cc:Work>
    <dc:type rdf:resource="http://purl.org/dc/dcmitype/StillImage"/>
    <dc:date>2022-08-11T15:17:10.441283</dc:date>
    <dc:format>image/svg+xml</dc:format>
    <dc:creator>
     <cc:Agent>
      <dc:title>Matplotlib v3.5.2, https://matplotlib.org/</dc:title>
     </cc:Agent>
    </dc:creator>
   </cc:Work>
  </rdf:RDF>
 </metadata>
 <defs>
  <style type="text/css">*{stroke-linejoin: round; stroke-linecap: butt}</style>
 </defs>
 <g id="figure_1">
  <g id="patch_1">
   <path d="M 0 345.6 
L 460.8 345.6 
L 460.8 0 
L 0 0 
z
" style="fill: #ffffff"/>
  </g>
  <g id="axes_1">
   <g id="patch_2">
    <path d="M 57.6 307.584 
L 414.72 307.584 
L 414.72 41.472 
L 57.6 41.472 
z
" style="fill: #ffffff"/>
   </g>
   <g id="matplotlib.axis_1">
    <g id="xtick_1">
     <g id="line2d_1">
      <defs>
       <path id="mda6a75e326" d="M 0 0 
L 0 3.5 
" style="stroke: #000000; stroke-width: 0.8"/>
      </defs>
      <g>
       <use xlink:href="#mda6a75e326" x="73.832727" y="307.584" style="stroke: #000000; stroke-width: 0.8"/>
      </g>
     </g>
     <g id="text_1">
      <!-- 0 -->
      <g transform="translate(70.651477 322.182437)scale(0.1 -0.1)">
       <defs>
        <path id="DejaVuSans-30" d="M 2034 4250 
Q 1547 4250 1301 3770 
Q 1056 3291 1056 2328 
Q 1056 1369 1301 889 
Q 1547 409 2034 409 
Q 2525 409 2770 889 
Q 3016 1369 3016 2328 
Q 3016 3291 2770 3770 
Q 2525 4250 2034 4250 
z
M 2034 4750 
Q 2819 4750 3233 4129 
Q 3647 3509 3647 2328 
Q 3647 1150 3233 529 
Q 2819 -91 2034 -91 
Q 1250 -91 836 529 
Q 422 1150 422 2328 
Q 422 3509 836 4129 
Q 1250 4750 2034 4750 
z
" transform="scale(0.015625)"/>
       </defs>
       <use xlink:href="#DejaVuSans-30"/>
      </g>
     </g>
    </g>
    <g id="xtick_2">
     <g id="line2d_2">
      <g>
       <use xlink:href="#mda6a75e326" x="137.266597" y="307.584" style="stroke: #000000; stroke-width: 0.8"/>
      </g>
     </g>
     <g id="text_2">
      <!-- 500 -->
      <g transform="translate(127.722847 322.182437)scale(0.1 -0.1)">
       <defs>
        <path id="DejaVuSans-35" d="M 691 4666 
L 3169 4666 
L 3169 4134 
L 1269 4134 
L 1269 2991 
Q 1406 3038 1543 3061 
Q 1681 3084 1819 3084 
Q 2600 3084 3056 2656 
Q 3513 2228 3513 1497 
Q 3513 744 3044 326 
Q 2575 -91 1722 -91 
Q 1428 -91 1123 -41 
Q 819 9 494 109 
L 494 744 
Q 775 591 1075 516 
Q 1375 441 1709 441 
Q 2250 441 2565 725 
Q 2881 1009 2881 1497 
Q 2881 1984 2565 2268 
Q 2250 2553 1709 2553 
Q 1456 2553 1204 2497 
Q 953 2441 691 2322 
L 691 4666 
z
" transform="scale(0.015625)"/>
       </defs>
       <use xlink:href="#DejaVuSans-35"/>
       <use xlink:href="#DejaVuSans-30" x="63.623047"/>
       <use xlink:href="#DejaVuSans-30" x="127.246094"/>
      </g>
     </g>
    </g>
    <g id="xtick_3">
     <g id="line2d_3">
      <g>
       <use xlink:href="#mda6a75e326" x="200.700467" y="307.584" style="stroke: #000000; stroke-width: 0.8"/>
      </g>
     </g>
     <g id="text_3">
      <!-- 1000 -->
      <g transform="translate(187.975467 322.182437)scale(0.1 -0.1)">
       <defs>
        <path id="DejaVuSans-31" d="M 794 531 
L 1825 531 
L 1825 4091 
L 703 3866 
L 703 4441 
L 1819 4666 
L 2450 4666 
L 2450 531 
L 3481 531 
L 3481 0 
L 794 0 
L 794 531 
z
" transform="scale(0.015625)"/>
       </defs>
       <use xlink:href="#DejaVuSans-31"/>
       <use xlink:href="#DejaVuSans-30" x="63.623047"/>
       <use xlink:href="#DejaVuSans-30" x="127.246094"/>
       <use xlink:href="#DejaVuSans-30" x="190.869141"/>
      </g>
     </g>
    </g>
    <g id="xtick_4">
     <g id="line2d_4">
      <g>
       <use xlink:href="#mda6a75e326" x="264.134337" y="307.584" style="stroke: #000000; stroke-width: 0.8"/>
      </g>
     </g>
     <g id="text_4">
      <!-- 1500 -->
      <g transform="translate(251.409337 322.182437)scale(0.1 -0.1)">
       <use xlink:href="#DejaVuSans-31"/>
       <use xlink:href="#DejaVuSans-35" x="63.623047"/>
       <use xlink:href="#DejaVuSans-30" x="127.246094"/>
       <use xlink:href="#DejaVuSans-30" x="190.869141"/>
      </g>
     </g>
    </g>
    <g id="xtick_5">
     <g id="line2d_5">
      <g>
       <use xlink:href="#mda6a75e326" x="327.568206" y="307.584" style="stroke: #000000; stroke-width: 0.8"/>
      </g>
     </g>
     <g id="text_5">
      <!-- 2000 -->
      <g transform="translate(314.843206 322.182437)scale(0.1 -0.1)">
       <defs>
        <path id="DejaVuSans-32" d="M 1228 531 
L 3431 531 
L 3431 0 
L 469 0 
L 469 531 
Q 828 903 1448 1529 
Q 2069 2156 2228 2338 
Q 2531 2678 2651 2914 
Q 2772 3150 2772 3378 
Q 2772 3750 2511 3984 
Q 2250 4219 1831 4219 
Q 1534 4219 1204 4116 
Q 875 4013 500 3803 
L 500 4441 
Q 881 4594 1212 4672 
Q 1544 4750 1819 4750 
Q 2544 4750 2975 4387 
Q 3406 4025 3406 3419 
Q 3406 3131 3298 2873 
Q 3191 2616 2906 2266 
Q 2828 2175 2409 1742 
Q 1991 1309 1228 531 
z
" transform="scale(0.015625)"/>
       </defs>
       <use xlink:href="#DejaVuSans-32"/>
       <use xlink:href="#DejaVuSans-30" x="63.623047"/>
       <use xlink:href="#DejaVuSans-30" x="127.246094"/>
       <use xlink:href="#DejaVuSans-30" x="190.869141"/>
      </g>
     </g>
    </g>
    <g id="xtick_6">
     <g id="line2d_6">
      <g>
       <use xlink:href="#mda6a75e326" x="391.002076" y="307.584" style="stroke: #000000; stroke-width: 0.8"/>
      </g>
     </g>
     <g id="text_6">
      <!-- 2500 -->
      <g transform="translate(378.277076 322.182437)scale(0.1 -0.1)">
       <use xlink:href="#DejaVuSans-32"/>
       <use xlink:href="#DejaVuSans-35" x="63.623047"/>
       <use xlink:href="#DejaVuSans-30" x="127.246094"/>
       <use xlink:href="#DejaVuSans-30" x="190.869141"/>
      </g>
     </g>
    </g>
   </g>
   <g id="matplotlib.axis_2">
    <g id="ytick_1">
     <g id="line2d_7">
      <defs>
       <path id="m530f45e37d" d="M 0 0 
L -3.5 0 
" style="stroke: #000000; stroke-width: 0.8"/>
      </defs>
      <g>
       <use xlink:href="#m530f45e37d" x="57.6" y="293.321825" style="stroke: #000000; stroke-width: 0.8"/>
      </g>
     </g>
     <g id="text_7">
      <!-- 4000 -->
      <g transform="translate(25.15 297.121044)scale(0.1 -0.1)">
       <defs>
        <path id="DejaVuSans-34" d="M 2419 4116 
L 825 1625 
L 2419 1625 
L 2419 4116 
z
M 2253 4666 
L 3047 4666 
L 3047 1625 
L 3713 1625 
L 3713 1100 
L 3047 1100 
L 3047 0 
L 2419 0 
L 2419 1100 
L 313 1100 
L 313 1709 
L 2253 4666 
z
" transform="scale(0.015625)"/>
       </defs>
       <use xlink:href="#DejaVuSans-34"/>
       <use xlink:href="#DejaVuSans-30" x="63.623047"/>
       <use xlink:href="#DejaVuSans-30" x="127.246094"/>
       <use xlink:href="#DejaVuSans-30" x="190.869141"/>
      </g>
     </g>
    </g>
    <g id="ytick_2">
     <g id="line2d_8">
      <g>
       <use xlink:href="#m530f45e37d" x="57.6" y="260.061772" style="stroke: #000000; stroke-width: 0.8"/>
      </g>
     </g>
     <g id="text_8">
      <!-- 4500 -->
      <g transform="translate(25.15 263.860991)scale(0.1 -0.1)">
       <use xlink:href="#DejaVuSans-34"/>
       <use xlink:href="#DejaVuSans-35" x="63.623047"/>
       <use xlink:href="#DejaVuSans-30" x="127.246094"/>
       <use xlink:href="#DejaVuSans-30" x="190.869141"/>
      </g>
     </g>
    </g>
    <g id="ytick_3">
     <g id="line2d_9">
      <g>
       <use xlink:href="#m530f45e37d" x="57.6" y="226.801719" style="stroke: #000000; stroke-width: 0.8"/>
      </g>
     </g>
     <g id="text_9">
      <!-- 5000 -->
      <g transform="translate(25.15 230.600938)scale(0.1 -0.1)">
       <use xlink:href="#DejaVuSans-35"/>
       <use xlink:href="#DejaVuSans-30" x="63.623047"/>
       <use xlink:href="#DejaVuSans-30" x="127.246094"/>
       <use xlink:href="#DejaVuSans-30" x="190.869141"/>
      </g>
     </g>
    </g>
    <g id="ytick_4">
     <g id="line2d_10">
      <g>
       <use xlink:href="#m530f45e37d" x="57.6" y="193.541666" style="stroke: #000000; stroke-width: 0.8"/>
      </g>
     </g>
     <g id="text_10">
      <!-- 5500 -->
      <g transform="translate(25.15 197.340885)scale(0.1 -0.1)">
       <use xlink:href="#DejaVuSans-35"/>
       <use xlink:href="#DejaVuSans-35" x="63.623047"/>
       <use xlink:href="#DejaVuSans-30" x="127.246094"/>
       <use xlink:href="#DejaVuSans-30" x="190.869141"/>
      </g>
     </g>
    </g>
    <g id="ytick_5">
     <g id="line2d_11">
      <g>
       <use xlink:href="#m530f45e37d" x="57.6" y="160.281613" style="stroke: #000000; stroke-width: 0.8"/>
      </g>
     </g>
     <g id="text_11">
      <!-- 6000 -->
      <g transform="translate(25.15 164.080832)scale(0.1 -0.1)">
       <defs>
        <path id="DejaVuSans-36" d="M 2113 2584 
Q 1688 2584 1439 2293 
Q 1191 2003 1191 1497 
Q 1191 994 1439 701 
Q 1688 409 2113 409 
Q 2538 409 2786 701 
Q 3034 994 3034 1497 
Q 3034 2003 2786 2293 
Q 2538 2584 2113 2584 
z
M 3366 4563 
L 3366 3988 
Q 3128 4100 2886 4159 
Q 2644 4219 2406 4219 
Q 1781 4219 1451 3797 
Q 1122 3375 1075 2522 
Q 1259 2794 1537 2939 
Q 1816 3084 2150 3084 
Q 2853 3084 3261 2657 
Q 3669 2231 3669 1497 
Q 3669 778 3244 343 
Q 2819 -91 2113 -91 
Q 1303 -91 875 529 
Q 447 1150 447 2328 
Q 447 3434 972 4092 
Q 1497 4750 2381 4750 
Q 2619 4750 2861 4703 
Q 3103 4656 3366 4563 
z
" transform="scale(0.015625)"/>
       </defs>
       <use xlink:href="#DejaVuSans-36"/>
       <use xlink:href="#DejaVuSans-30" x="63.623047"/>
       <use xlink:href="#DejaVuSans-30" x="127.246094"/>
       <use xlink:href="#DejaVuSans-30" x="190.869141"/>
      </g>
     </g>
    </g>
    <g id="ytick_6">
     <g id="line2d_12">
      <g>
       <use xlink:href="#m530f45e37d" x="57.6" y="127.02156" style="stroke: #000000; stroke-width: 0.8"/>
      </g>
     </g>
     <g id="text_12">
      <!-- 6500 -->
      <g transform="translate(25.15 130.820779)scale(0.1 -0.1)">
       <use xlink:href="#DejaVuSans-36"/>
       <use xlink:href="#DejaVuSans-35" x="63.623047"/>
       <use xlink:href="#DejaVuSans-30" x="127.246094"/>
       <use xlink:href="#DejaVuSans-30" x="190.869141"/>
      </g>
     </g>
    </g>
    <g id="ytick_7">
     <g id="line2d_13">
      <g>
       <use xlink:href="#m530f45e37d" x="57.6" y="93.761507" style="stroke: #000000; stroke-width: 0.8"/>
      </g>
     </g>
     <g id="text_13">
      <!-- 7000 -->
      <g transform="translate(25.15 97.560726)scale(0.1 -0.1)">
       <defs>
        <path id="DejaVuSans-37" d="M 525 4666 
L 3525 4666 
L 3525 4397 
L 1831 0 
L 1172 0 
L 2766 4134 
L 525 4134 
L 525 4666 
z
" transform="scale(0.015625)"/>
       </defs>
       <use xlink:href="#DejaVuSans-37"/>
       <use xlink:href="#DejaVuSans-30" x="63.623047"/>
       <use xlink:href="#DejaVuSans-30" x="127.246094"/>
       <use xlink:href="#DejaVuSans-30" x="190.869141"/>
      </g>
     </g>
    </g>
    <g id="ytick_8">
     <g id="line2d_14">
      <g>
       <use xlink:href="#m530f45e37d" x="57.6" y="60.501454" style="stroke: #000000; stroke-width: 0.8"/>
      </g>
     </g>
     <g id="text_14">
      <!-- 7500 -->
      <g transform="translate(25.15 64.300673)scale(0.1 -0.1)">
       <use xlink:href="#DejaVuSans-37"/>
       <use xlink:href="#DejaVuSans-35" x="63.623047"/>
       <use xlink:href="#DejaVuSans-30" x="127.246094"/>
       <use xlink:href="#DejaVuSans-30" x="190.869141"/>
      </g>
     </g>
    </g>
   </g>
   <g id="line2d_15">
    <path d="M 73.832727 282.75536 
L 73.959595 283.429103 
L 74.086463 283.360862 
L 74.21333 283.437613 
L 74.340198 283.838455 
L 74.467066 283.582606 
L 74.720801 282.405707 
L 74.974537 282.960052 
L 75.228272 282.670066 
L 75.35514 282.874758 
L 75.608876 282.491001 
L 75.735743 282.465406 
L 75.862611 282.311903 
L 75.989479 282.405707 
L 76.243214 282.226609 
L 76.370082 282.465406 
L 76.623818 281.979303 
L 76.750685 282.789464 
L 76.877553 282.74685 
L 77.004421 281.919604 
L 77.131289 281.97076 
L 77.258156 282.149858 
L 77.511892 281.791663 
L 77.892495 283.028261 
L 78.019363 282.960052 
L 78.399966 281.859904 
L 78.780569 283.403509 
L 78.907437 283.122065 
L 79.034305 282.491001 
L 79.161172 282.815059 
L 79.28804 282.823601 
L 79.414908 281.851362 
L 79.541776 282.235152 
L 79.668643 283.181764 
L 79.922379 282.294851 
L 80.176114 283.267058 
L 80.42985 281.621108 
L 80.683585 282.056054 
L 80.810453 281.911061 
L 81.064188 283.881102 
L 81.317924 281.740506 
L 81.444792 282.1584 
L 81.571659 282.124263 
L 81.825395 281.663755 
L 81.952263 283.974906 
L 82.205998 283.412051 
L 82.332866 283.164712 
L 82.459734 283.446156 
L 82.713469 284.281912 
L 82.840337 284.188108 
L 83.094072 283.207359 
L 83.22094 283.608168 
L 83.347808 283.608168 
L 83.474675 283.207359 
L 83.728411 284.06871 
L 83.982146 284.043115 
L 84.235882 283.28411 
L 84.36275 283.67641 
L 84.616485 284.861819 
L 84.870221 283.778756 
L 85.123956 284.273369 
L 85.250824 283.983416 
L 85.377692 284.009011 
L 85.504559 284.375716 
L 85.758295 283.736109 
L 85.885163 284.119867 
L 86.01203 284.043115 
L 86.138898 283.011209 
L 86.265766 283.386456 
L 86.392633 284.426905 
L 86.646369 283.062366 
L 86.900104 285.040917 
L 87.15384 282.729765 
L 87.407575 283.719057 
L 87.534443 283.642305 
L 87.788179 284.222213 
L 88.168782 283.497312 
L 88.29565 283.991958 
L 88.422517 284.026063 
L 88.676253 282.866216 
L 88.929988 284.375716 
L 89.183724 283.318215 
L 89.310591 283.548502 
L 89.437459 283.829913 
L 89.691195 283.232953 
L 89.818062 283.301163 
L 89.94493 283.096503 
L 90.071798 284.179566 
L 90.325533 283.429103 
L 90.579269 284.239265 
L 90.833004 283.642305 
L 90.959872 283.574064 
L 91.08674 283.838455 
L 91.213608 284.60597 
L 91.340475 284.59746 
L 91.721079 283.08796 
L 91.847946 283.173254 
L 91.974814 283.829913 
L 92.101682 283.548502 
L 92.22855 282.908863 
L 92.482285 283.966364 
L 92.609153 283.855508 
L 92.73602 283.770214 
L 92.989756 285.32236 
L 93.243491 283.096503 
L 93.370359 283.565554 
L 93.624095 283.412051 
L 93.87783 284.418363 
L 94.004698 284.111357 
L 94.131566 283.156202 
L 94.258433 283.105013 
L 94.385301 283.957854 
L 94.512169 283.812861 
L 94.639037 283.232953 
L 94.892772 283.991958 
L 95.01964 283.488802 
L 95.146508 283.719057 
L 95.273375 284.426905 
L 95.400243 284.256317 
L 95.527111 283.770214 
L 95.653978 283.915207 
L 95.780846 284.281912 
L 96.034582 283.67641 
L 96.288317 284.196618 
L 96.66892 284.034605 
L 96.795788 283.702005 
L 96.922656 282.925915 
L 97.049524 282.95151 
L 97.303259 284.051657 
L 97.556995 284.060167 
L 97.81073 283.574064 
L 98.064466 284.034605 
L 98.318201 286.354267 
L 98.445069 285.91081 
L 98.698804 286.49926 
L 98.95254 285.13472 
L 99.206275 286.413966 
L 99.333143 285.91081 
L 99.586878 286.942716 
L 99.840614 286.11547 
L 99.967482 286.405456 
L 100.221217 285.996071 
L 100.474953 287.181513 
L 100.728688 286.277515 
L 100.982424 286.63571 
L 101.109291 286.516312 
L 101.236159 286.703919 
L 101.489894 286.072855 
L 101.74363 287.505587 
L 102.124233 286.175169 
L 102.251101 285.91932 
L 102.377969 285.953457 
L 102.631704 286.243411 
L 102.88544 286.081365 
L 103.012307 286.234868 
L 103.139175 286.141064 
L 103.266043 285.817006 
L 103.519778 285.782869 
L 103.773514 285.407654 
L 103.900382 285.535562 
L 104.027249 285.475863 
L 104.280985 286.627168 
L 104.53472 285.126211 
L 104.788456 286.789213 
L 105.042191 285.211504 
L 105.169059 285.595262 
L 105.295927 285.569667 
L 105.422794 285.365007 
L 105.549662 285.680556 
L 105.67653 285.603772 
L 105.930265 284.776558 
L 106.057133 284.895956 
L 106.184001 285.33087 
L 106.310869 284.043115 
L 106.437736 284.316016 
L 106.945207 282.491001 
L 107.198943 283.173254 
L 107.325811 282.925915 
L 107.452678 282.977104 
L 107.579546 283.369404 
L 107.833281 282.635961 
L 108.087017 284.017553 
L 108.213885 283.667868 
L 108.340752 282.729765 
L 108.46762 282.832111 
L 108.721356 283.821403 
L 108.975091 282.934457 
L 109.355694 284.196618 
L 109.736298 282.397165 
L 110.116901 283.557012 
L 110.370636 282.627452 
L 110.624372 283.403509 
L 110.878107 282.337465 
L 111.131843 283.548502 
L 111.385578 283.599658 
L 111.766181 283.557012 
L 111.893049 283.377914 
L 112.019917 282.857706 
L 112.146785 283.207359 
L 112.273652 284.40131 
L 112.40052 284.077252 
L 112.527388 282.567752 
L 112.654256 282.508053 
L 112.907991 283.565554 
L 113.034859 283.437613 
L 113.288594 282.960052 
L 113.415462 282.95151 
L 113.54233 282.798007 
L 113.796065 283.190307 
L 113.922933 283.070908 
L 114.176668 284.358663 
L 114.303536 284.230755 
L 114.430404 281.851362 
L 114.684139 283.369404 
L 114.811007 283.011209 
L 115.064743 283.258516 
L 115.318478 282.35455 
L 115.952817 283.719057 
L 116.206552 283.258516 
L 116.460288 282.780955 
L 116.587155 283.207359 
L 116.840891 283.011209 
L 116.967759 283.497312 
L 117.221494 282.977104 
L 117.348362 284.034605 
L 117.47523 283.983416 
L 117.602097 283.241463 
L 117.728965 283.727567 
L 117.855833 283.744652 
L 117.982701 282.994157 
L 118.109568 283.122065 
L 118.363304 283.966364 
L 118.617039 284.239265 
L 118.870775 283.08796 
L 118.997643 283.164712 
L 119.378246 285.160315 
L 119.631981 284.145461 
L 119.758849 284.486604 
L 119.885717 284.409853 
L 120.012584 283.599658 
L 120.26632 285.109158 
L 120.520055 284.145461 
L 120.773791 285.637909 
L 121.154394 283.497312 
L 121.661865 286.124012 
L 121.915601 284.426905 
L 122.042468 284.503656 
L 122.169336 284.495114 
L 122.423072 285.143263 
L 122.549939 286.089908 
L 122.930542 284.716858 
L 123.311146 285.970509 
L 123.438013 285.637909 
L 123.691749 284.742453 
L 123.818617 285.339413 
L 123.945484 285.109158 
L 124.072352 284.350153 
L 124.452955 285.160315 
L 124.579823 285.083564 
L 124.833559 284.136919 
L 125.214162 286.089908 
L 125.34103 285.578209 
L 125.594765 284.230755 
L 125.721633 284.59746 
L 125.975368 284.06871 
L 126.102236 284.682754 
L 126.229104 284.469519 
L 126.355971 283.923717 
L 126.609707 284.742453 
L 126.736575 284.051657 
L 126.863442 284.358663 
L 126.99031 285.057969 
L 127.244046 283.650815 
L 127.497781 285.71466 
L 127.751517 283.232953 
L 127.878384 283.608168 
L 128.13212 284.461009 
L 128.258988 284.324559 
L 128.385855 284.478062 
L 128.512723 284.418363 
L 128.639591 283.684952 
L 128.766458 283.67641 
L 129.020194 284.691264 
L 129.273929 283.497312 
L 129.400797 283.932259 
L 129.527665 284.79361 
L 129.654533 284.418363 
L 129.7814 283.463208 
L 129.908268 283.548502 
L 130.035136 283.949311 
L 130.162004 283.616711 
L 130.415739 283.829913 
L 130.542607 283.446156 
L 130.669475 286.268973 
L 130.796342 285.697608 
L 130.92321 285.782869 
L 131.176946 287.155918 
L 131.430681 286.234868 
L 131.684416 286.268973 
L 131.938152 287.113288 
L 132.318755 285.100616 
L 132.445623 285.220014 
L 132.699358 285.774359 
L 132.826226 285.441759 
L 132.953094 285.450269 
L 133.206829 286.11547 
L 133.333697 285.825516 
L 133.587433 286.857422 
L 133.841168 284.546303 
L 134.094904 285.279713 
L 134.221771 285.075054 
L 134.475507 286.490717 
L 134.602375 286.132522 
L 134.729242 285.049459 
L 134.85611 284.99827 
L 134.982978 285.72317 
L 135.236713 285.023864 
L 135.490449 285.902268 
L 135.617316 285.654961 
L 135.871052 286.473665 
L 136.124787 285.782869 
L 136.378523 286.763618 
L 136.632258 285.458811 
L 136.885994 286.473665 
L 137.012862 285.876705 
L 137.266597 286.149607 
L 137.520333 284.913008 
L 137.774068 285.748765 
L 137.900936 285.893758 
L 138.027803 286.25192 
L 138.281539 285.040917 
L 138.662142 285.347955 
L 138.78901 284.853309 
L 139.042745 285.18591 
L 139.169613 285.817006 
L 139.296481 285.851111 
L 139.550216 284.017553 
L 139.803952 285.458811 
L 139.93082 285.177367 
L 140.184555 286.234868 
L 140.565158 285.023864 
L 140.818894 285.117668 
L 141.072629 286.507769 
L 141.199497 286.10696 
L 141.326365 285.083564 
L 141.453232 285.305308 
L 141.5801 285.876705 
L 141.706968 285.484406 
L 141.833836 285.458811 
L 141.960703 285.578209 
L 142.087571 285.160315 
L 142.214439 285.168857 
L 142.341307 285.876705 
L 142.468174 285.654961 
L 142.72191 284.281912 
L 142.848778 284.367206 
L 143.102513 285.271171 
L 143.229381 285.006812 
L 143.356249 284.452467 
L 143.483116 284.759505 
L 143.609984 285.416164 
L 143.863719 284.367206 
L 143.990587 284.60597 
L 144.117455 284.452467 
L 144.244323 283.923717 
L 144.37119 283.940769 
L 144.498058 284.247807 
L 144.624926 284.034605 
L 144.878661 285.100616 
L 145.132397 283.292653 
L 145.259265 284.085762 
L 145.386132 285.603772 
L 145.513 285.032407 
L 145.639868 283.812861 
L 145.893603 284.043115 
L 146.020471 283.736109 
L 146.274207 284.307507 
L 146.527942 283.360862 
L 146.781678 284.188108 
L 146.908545 280.051909 
L 147.035413 280.350405 
L 147.542884 278.832395 
L 147.796619 279.625504 
L 147.923487 279.105296 
L 148.177223 280.231006 
L 148.30409 279.557295 
L 148.430958 279.497596 
L 148.557826 280.461261 
L 148.684694 280.563607 
L 148.938429 280.017804 
L 149.065297 280.043399 
L 149.319032 280.930312 
L 149.572768 280.265111 
L 149.826503 281.314102 
L 149.953371 281.911061 
L 150.080239 281.697859 
L 150.333974 280.111608 
L 150.714577 281.587003 
L 150.841445 280.751247 
L 150.968313 280.776809 
L 151.222048 282.405707 
L 151.475784 280.597711 
L 151.729519 282.874758 
L 151.856387 282.610367 
L 151.983255 282.064564 
L 152.23699 283.250006 
L 152.363858 283.011209 
L 152.617594 281.894009 
L 152.744461 282.141316 
L 152.998197 283.446156 
L 153.251932 282.098701 
L 153.505668 283.224411 
L 153.632535 283.08796 
L 153.759403 282.653014 
L 153.886271 282.670066 
L 154.140006 282.328956 
L 154.393742 283.267058 
L 154.52061 283.14766 
L 154.774345 284.452467 
L 154.901213 284.392768 
L 155.154948 287.752894 
L 155.535552 288.324291 
L 155.916155 286.814808 
L 156.043022 286.763618 
L 156.16989 286.874507 
L 156.423626 286.183711 
L 156.550493 286.294567 
L 156.677361 286.576011 
L 156.804229 286.533364 
L 157.057964 285.885215 
L 157.184832 286.25192 
L 157.438568 285.654961 
L 157.565435 286.072855 
L 157.819171 284.981217 
L 158.072906 285.851111 
L 158.199774 285.279713 
L 158.326642 285.433216 
L 158.45351 285.040917 
L 158.580377 284.281912 
L 158.834113 284.733911 
L 158.96098 284.938571 
L 159.087848 285.484406 
L 159.214716 285.339413 
L 159.468451 284.017553 
L 159.595319 284.213703 
L 159.975922 285.228557 
L 160.229658 284.162513 
L 160.356526 284.657159 
L 160.483393 284.691264 
L 160.610261 283.889612 
L 160.863997 285.177367 
L 161.117732 284.154004 
L 161.371468 284.913008 
L 161.625203 282.985614 
L 162.132674 284.810662 
L 162.259542 285.851111 
L 162.513277 283.505855 
L 162.767013 284.034605 
L 163.020748 282.934457 
L 163.147616 284.26486 
L 163.528219 283.352352 
L 163.908822 284.59746 
L 164.03569 284.273369 
L 164.162558 283.565554 
L 164.289426 283.650815 
L 164.416293 284.145461 
L 164.670029 283.463208 
L 164.923764 284.367206 
L 165.304367 283.616711 
L 165.431235 283.429103 
L 165.811838 285.262661 
L 166.065574 283.932259 
L 166.319309 284.776558 
L 166.446177 284.435415 
L 166.573045 284.503656 
L 166.699913 285.015354 
L 166.953648 284.316016 
L 167.080516 285.040917 
L 167.207384 284.708316 
L 167.334251 283.446156 
L 167.461119 284.051657 
L 167.587987 285.339413 
L 167.841722 283.267058 
L 168.095458 286.047261 
L 168.349193 282.883301 
L 168.602929 285.083564 
L 168.729796 284.708316 
L 168.856664 284.742453 
L 168.983532 285.288256 
L 169.1104 284.861819 
L 169.237267 283.736109 
L 169.364135 283.684952 
L 169.617871 284.861819 
L 169.871606 283.522907 
L 170.125342 285.390569 
L 170.379077 283.693462 
L 170.505945 284.256317 
L 170.632813 284.256317 
L 170.75968 283.642305 
L 171.013416 283.548502 
L 171.520887 281.322612 
L 171.774622 281.894009 
L 171.90149 281.552898 
L 172.155225 280.418646 
L 172.535829 282.004865 
L 172.916432 280.154255 
L 173.0433 280.375999 
L 173.170167 280.802404 
L 173.297035 280.734162 
L 173.423903 280.452751 
L 173.550771 280.52096 
L 173.677638 280.742704 
L 173.931374 280.231006 
L 174.185109 282.226609 
L 174.438845 279.753445 
L 174.565712 280.486855 
L 174.69258 280.435699 
L 174.819448 279.429355 
L 175.073183 281.689349 
L 175.200051 281.126462 
L 175.326919 279.625504 
L 175.453787 279.727851 
L 175.580654 280.358947 
L 175.83439 279.710798 
L 176.088125 280.691548 
L 176.214993 280.367457 
L 176.341861 280.563607 
L 176.468729 281.169109 
L 176.722464 280.068961 
L 176.849332 280.256601 
L 176.9762 280.700058 
L 177.229935 280.026347 
L 177.48367 280.742704 
L 177.610538 280.683005 
L 177.864274 280.486855 
L 177.991141 280.3163 
L 178.244877 279.446407 
L 178.62548 280.71711 
L 178.879216 279.565805 
L 179.132951 280.486855 
L 179.259819 280.375999 
L 179.386687 288.170788 
L 179.513554 288.605719 
L 179.640422 288.102563 
L 179.894158 288.87862 
L 180.147893 287.411767 
L 180.401628 288.699539 
L 180.528496 288.375464 
L 180.782232 289.057718 
L 180.909099 288.784816 
L 181.035967 288.827447 
L 181.162835 289.023597 
L 181.41657 288.588666 
L 181.670306 289.46707 
L 181.924041 288.170788 
L 182.177777 288.77629 
L 182.431512 288.622771 
L 182.685248 287.991691 
L 182.938983 289.714393 
L 183.192719 288.187841 
L 183.319586 288.324291 
L 183.446454 288.648366 
L 183.70019 288.05139 
L 183.827057 288.392517 
L 184.080793 287.821119 
L 184.207661 288.332817 
L 184.334528 288.094021 
L 184.461396 287.454414 
L 184.715132 287.693195 
L 184.841999 287.241212 
L 184.968867 287.369137 
L 185.095735 287.829645 
L 185.222603 287.804067 
L 185.476338 288.733643 
L 185.730074 286.814808 
L 185.983809 288.588666 
L 186.237544 287.283843 
L 186.871883 288.554546 
L 187.125619 286.431018 
L 187.252486 286.686867 
L 187.379354 287.650564 
L 187.506222 285.885215 
L 187.63309 285.902268 
L 187.886825 285.092106 
L 188.140561 284.486604 
L 188.394296 284.819205 
L 188.521164 284.785068 
L 188.774899 285.944915 
L 188.901767 284.861819 
L 189.028635 284.810662 
L 189.28237 286.089908 
L 189.536106 284.759505 
L 189.662973 284.930061 
L 189.789841 285.578209 
L 189.916709 285.637909 
L 190.170444 284.844767 
L 190.551048 285.578209 
L 190.804783 284.230755 
L 190.931651 283.335267 
L 191.058519 283.394966 
L 191.312254 284.870361 
L 191.56599 283.539959 
L 191.692857 284.725368 
L 191.819725 284.742453 
L 192.073461 283.139117 
L 192.327196 284.59746 
L 192.454064 284.435415 
L 192.707799 283.702005 
L 192.834667 283.829913 
L 192.961535 283.710515 
L 193.088402 283.335267 
L 193.342138 282.303361 
L 193.469006 283.846965 
L 193.595873 283.804318 
L 193.849609 280.879155 
L 194.103344 282.95151 
L 194.737683 280.452751 
L 194.864551 280.52096 
L 194.991419 280.768299 
L 195.118286 280.367457 
L 195.245154 280.802404 
L 195.372022 281.766101 
L 195.498889 281.697859 
L 195.752625 283.531417 
L 195.879493 283.864017 
L 196.133228 283.753161 
L 196.260096 283.761704 
L 196.513831 282.823601 
L 196.894435 283.667868 
L 197.401906 283.505855 
L 197.655641 283.08796 
L 197.782509 283.292653 
L 197.909377 283.258516 
L 198.036244 283.019751 
L 198.416847 283.14766 
L 198.543715 283.514365 
L 198.670583 283.522907 
L 198.797451 282.883301 
L 198.924318 282.849164 
L 199.051186 283.139117 
L 199.178054 282.985614 
L 199.558657 283.514365 
L 199.812393 283.48026 
L 199.93926 283.190307 
L 200.319864 283.198816 
L 200.573599 284.213703 
L 200.700467 284.136919 
L 201.08107 283.497312 
L 201.334805 283.548502 
L 201.588541 283.838455 
L 201.715409 283.761704 
L 201.969144 284.145461 
L 202.22288 283.591116 
L 202.476615 283.190307 
L 202.603483 283.292653 
L 202.857218 284.026063 
L 202.984086 284.06871 
L 203.110954 283.906664 
L 203.364689 283.335267 
L 203.491557 283.386456 
L 203.618425 283.053856 
L 203.745293 284.350153 
L 203.87216 284.486604 
L 203.999028 284.247807 
L 204.125896 283.633763 
L 204.252764 283.599658 
L 204.379631 284.051657 
L 204.633367 284.009011 
L 204.887102 283.991958 
L 205.01397 284.077252 
L 205.267705 283.215901 
L 205.775176 284.026063 
L 206.028912 283.420561 
L 206.536383 284.554813 
L 206.790118 283.966364 
L 206.916986 284.051657 
L 207.170722 283.770214 
L 207.424457 284.239265 
L 207.80506 283.87256 
L 207.931928 283.684952 
L 208.185663 283.974906 
L 208.439399 283.616711 
L 208.693134 284.435415 
L 209.073738 283.744652 
L 209.200605 283.957854 
L 209.327473 283.940769 
L 209.581209 284.188108 
L 209.834944 283.531417 
L 210.215547 284.026063 
L 210.59615 283.829913 
L 210.849886 284.239265 
L 211.230489 283.582606 
L 211.357357 283.770214 
L 211.73796 283.488802 
L 211.991696 284.119867 
L 212.245431 284.085762 
L 212.626034 284.392768 
L 212.752902 284.20516 
L 213.133505 284.384258 
L 213.260373 284.273369 
L 213.514108 283.599658 
L 213.640976 283.693462 
L 214.021579 283.548502 
L 214.402183 284.136919 
L 214.52905 284.009011 
L 214.782786 284.341611 
L 215.036521 283.045313 
L 215.290257 283.932259 
L 215.417125 283.778756 
L 215.67086 283.991958 
L 215.797728 283.48026 
L 216.051463 283.829913 
L 216.305199 283.471718 
L 216.685802 284.222213 
L 216.939537 283.940769 
L 217.066405 284.094304 
L 217.320141 284.077252 
L 217.573876 284.162513 
L 217.954479 284.171056 
L 218.081347 284.281912 
L 218.208215 284.20516 
L 218.46195 284.512166 
L 218.715686 283.67641 
L 218.969421 283.991958 
L 219.096289 283.838455 
L 219.350025 283.974906 
L 219.60376 283.522907 
L 219.857495 283.736109 
L 219.984363 285.057969 
L 220.238099 284.443957 
L 220.491834 284.930061 
L 220.618702 284.674212 
L 220.74557 284.716858 
L 220.999305 285.168857 
L 221.379908 285.211504 
L 221.633644 285.023864 
L 221.887379 285.075054 
L 222.014247 285.023864 
L 222.267983 285.484406 
L 222.648586 285.237067 
L 222.775453 285.32236 
L 223.029189 285.066511 
L 223.409792 285.441759 
L 224.044131 284.623055 
L 224.297866 285.151805 
L 224.551602 284.733911 
L 224.67847 284.716858 
L 224.805337 284.554813 
L 225.059073 284.972708 
L 225.439676 284.350153 
L 225.693411 284.59746 
L 225.820279 284.418363 
L 226.074015 285.057969 
L 226.32775 284.341611 
L 226.581486 285.18591 
L 226.835221 284.512166 
L 227.088957 284.904466 
L 227.596428 284.495114 
L 227.850163 284.682754 
L 227.977031 284.810662 
L 228.230766 283.386456 
L 228.357634 282.985614 
L 228.484502 283.164712 
L 228.611369 283.053856 
L 228.865105 282.414249 
L 228.991973 282.729765 
L 229.245708 282.738308 
L 229.499444 283.198816 
L 229.626311 282.994157 
L 229.753179 283.045313 
L 230.006915 283.343809 
L 230.26065 282.874758 
L 230.641253 283.343809 
L 230.768121 283.045313 
L 230.894989 283.079451 
L 231.148724 283.719057 
L 231.40246 283.08796 
L 231.656195 283.250006 
L 231.783063 283.045313 
L 231.909931 283.08796 
L 232.417402 283.838455 
L 232.671137 283.309705 
L 232.798005 283.522907 
L 233.05174 283.377914 
L 233.432344 283.957854 
L 233.559211 283.812861 
L 233.812947 283.309705 
L 234.066682 283.898155 
L 234.320418 283.412051 
L 234.574153 283.770214 
L 234.701021 283.488802 
L 234.827889 283.488802 
L 234.954756 283.633763 
L 235.208492 283.08796 
L 235.33536 283.139117 
L 235.589095 283.770214 
L 235.842831 283.557012 
L 236.096566 284.196618 
L 236.223434 264.197972 
L 236.350302 265.613635 
L 236.477169 265.767138 
L 236.604037 265.707439 
L 236.730905 266.005935 
L 236.98464 265.195773 
L 237.111508 264.777879 
L 237.238376 264.999623 
L 237.365244 265.562478 
L 237.618979 264.846088 
L 237.872714 265.83538 
L 238.253318 264.487925 
L 238.507053 264.939924 
L 238.633921 265.24693 
L 238.760789 266.261784 
L 239.014524 264.922872 
L 239.26826 266.807587 
L 239.395127 265.97183 
L 239.648863 267.199886 
L 239.902598 266.287379 
L 240.029466 266.628489 
L 240.410069 268.837294 
L 240.663805 266.96109 
L 240.790672 267.396036 
L 241.044408 269.229594 
L 241.171276 269.289293 
L 241.298143 269.204032 
L 241.425011 269.289293 
L 241.551879 269.604842 
L 241.678747 269.357535 
L 241.805614 268.717929 
L 242.05935 271.191093 
L 242.313085 269.638946 
L 242.566821 271.898941 
L 242.820556 269.32343 
L 243.074292 270.636748 
L 243.20116 270.687937 
L 243.454895 274.065099 
L 243.708631 271.003485 
L 243.962366 273.2805 
L 244.216101 271.873346 
L 244.342969 286.388371 
L 244.469837 286.166659 
L 244.85044 284.836257 
L 245.104176 285.680556 
L 245.231043 285.373517 
L 245.357911 284.409853 
L 245.484779 284.333069 
L 245.611647 285.305308 
L 245.738514 285.228557 
L 245.865382 284.495114 
L 246.119118 285.927862 
L 246.372853 284.614512 
L 246.499721 284.59746 
L 246.626589 284.716858 
L 246.753456 285.424707 
L 247.007192 288.15372 
L 247.134059 287.445888 
L 247.260927 285.680556 
L 247.387795 285.748765 
L 247.514663 286.354267 
L 247.64153 285.71466 
L 247.768398 285.979019 
L 247.895266 287.249738 
L 248.149001 286.124012 
L 248.275869 287.019468 
L 248.402737 286.780671 
L 248.529605 285.339413 
L 248.78334 288.528967 
L 249.037076 285.126211 
L 249.290811 288.844516 
L 249.544547 285.492916 
L 249.798282 287.821119 
L 249.92515 287.769962 
L 250.178885 288.392517 
L 250.305753 287.863766 
L 250.559488 286.209306 
L 250.813224 288.162246 
L 251.066959 286.286057 
L 251.320695 289.142995 
L 251.447563 288.861568 
L 251.57443 287.46294 
L 251.701298 287.454414 
L 251.828166 287.710263 
L 251.955034 287.394715 
L 252.208769 287.42882 
L 252.335637 286.63571 
L 252.589372 278.499795 
L 252.71624 277.962502 
L 252.969975 279.898406 
L 253.223711 278.593598 
L 253.350579 278.48271 
L 253.477446 278.832395 
L 253.731182 280.171307 
L 254.111785 278.0819 
L 254.238653 278.423043 
L 254.365521 279.267309 
L 254.492388 279.224695 
L 254.619256 278.516847 
L 254.746124 278.559494 
L 254.872992 278.81531 
L 254.999859 278.772696 
L 255.126727 278.968846 
L 255.380463 281.007063 
L 255.634198 277.868698 
L 255.887933 279.540211 
L 256.014801 278.337749 
L 256.141669 278.653298 
L 256.268537 280.503908 
L 256.395404 280.282163 
L 256.522272 277.843103 
L 256.64914 277.595797 
L 256.776008 279.318499 
L 256.902875 279.241747 
L 257.029743 278.823853 
L 257.283479 279.915458 
L 257.410346 279.744903 
L 257.664082 280.972959 
L 257.917817 279.292904 
L 258.044685 279.548753 
L 258.171553 280.086046 
L 258.425288 279.386708 
L 258.932759 281.356749 
L 259.44023 280.179849 
L 259.693966 281.126462 
L 259.820833 281.032658 
L 260.074569 279.105296 
L 260.455172 280.810914 
L 260.58204 287.966096 
L 260.708908 288.58014 
L 260.835775 288.170788 
L 261.089511 288.818921 
L 261.343246 286.533364 
L 261.596982 288.494846 
L 261.72385 288.145194 
L 261.977585 289.850843 
L 262.23132 289.27092 
L 262.358188 289.339145 
L 262.611924 287.974639 
L 262.865659 289.99582 
L 263.119395 287.488519 
L 263.37313 289.919069 
L 263.499998 289.654693 
L 263.880601 287.795541 
L 264.134337 289.654693 
L 264.388072 287.65909 
L 264.641808 288.827447 
L 264.768675 288.494846 
L 264.895543 288.520441 
L 265.022411 288.998018 
L 265.276146 288.085494 
L 265.403014 288.418095 
L 265.656749 287.053588 
L 265.910485 287.735842 
L 266.037353 287.224144 
L 266.671691 288.998018 
L 266.925427 286.277515 
L 267.179162 289.032139 
L 267.432898 287.079167 
L 267.686633 288.392517 
L 267.813501 287.497045 
L 267.940369 287.710263 
L 268.067236 288.298697 
L 268.320972 285.876705 
L 268.574707 287.045062 
L 268.701575 289.526769 
L 268.828443 289.791144 
L 269.082178 287.573813 
L 269.589649 279.062649 
L 269.843385 275.745154 
L 269.970253 274.210092 
L 271.112062 239.926643 
L 271.619533 228.967878 
L 271.873269 222.409671 
L 272.253872 211.817643 
L 272.507607 207.417085 
L 272.761343 199.195875 
L 273.015078 196.168366 
L 273.268814 188.723214 
L 273.649417 185.2693 
L 274.537491 175.956485 
L 274.791227 177.730344 
L 275.044962 174.225241 
L 275.298698 176.485236 
L 275.552433 175.19748 
L 275.679301 175.632395 
L 275.933036 177.235698 
L 276.186772 178.549048 
L 276.440507 180.339991 
L 276.694243 183.802447 
L 276.821111 277.587254 
L 277.201714 279.156453 
L 277.328581 279.096754 
L 277.582317 278.337749 
L 277.836052 278.090443 
L 277.96292 278.141599 
L 278.216656 277.152308 
L 278.470391 277.826051 
L 278.724127 277.024399 
L 278.850994 277.084099 
L 278.977862 277.399647 
L 279.10473 277.186445 
L 279.231598 277.382595 
L 279.358465 277.851646 
L 279.612201 276.188643 
L 279.739069 277.621359 
L 279.865936 277.757842 
L 279.992804 276.512701 
L 280.246539 277.084099 
L 280.500275 276.299499 
L 280.627143 276.623557 
L 280.880878 277.817509 
L 281.388349 275.796343 
L 281.768952 277.067046 
L 282.022688 276.009546 
L 282.276423 276.947648 
L 282.403291 276.052192 
L 282.530159 276.453002 
L 282.657027 277.860156 
L 282.783894 277.493451 
L 282.910762 276.401845 
L 283.164497 277.152308 
L 283.418233 275.079953 
L 283.798836 276.163048 
L 284.052572 278.644755 
L 284.306307 276.111892 
L 284.560043 277.084099 
L 284.813778 275.438148 
L 284.940646 280.538012 
L 285.321249 279.761955 
L 285.448117 279.744903 
L 285.701852 280.435699 
L 285.82872 280.375999 
L 285.955588 279.702256 
L 286.082456 279.651099 
L 286.209323 280.273653 
L 286.336191 280.299248 
L 286.463059 279.634047 
L 286.589926 279.93251 
L 286.716794 280.674463 
L 286.843662 280.469803 
L 287.097397 279.39525 
L 287.224265 279.659609 
L 287.604868 281.945166 
L 287.731736 281.527304 
L 287.858604 280.725652 
L 287.985472 280.7086 
L 288.112339 281.143514 
L 288.239207 280.896207 
L 288.366075 280.947364 
L 288.492943 281.518762 
L 288.746678 280.648901 
L 288.873546 281.262912 
L 289.000414 280.990011 
L 289.127281 279.779007 
L 289.254149 280.71711 
L 289.381017 282.653014 
L 289.634752 279.847249 
L 289.888488 282.635961 
L 290.142223 279.506106 
L 290.395959 281.604055 
L 290.522826 281.63816 
L 290.776562 282.02195 
L 290.90343 281.62965 
L 291.157165 280.256601 
L 291.410901 281.987813 
L 291.664636 280.555097 
L 291.918372 282.874758 
L 292.045239 282.346008 
L 292.172107 281.288507 
L 292.298975 281.493199 
L 292.425842 281.962251 
L 292.679578 281.365259 
L 292.806446 281.262912 
L 292.933313 280.742704 
L 293.187049 276.367741 
L 293.313917 276.256852 
L 293.567652 277.212007 
L 293.821388 276.546806 
L 293.948255 276.5724 
L 294.075123 276.896491 
L 294.328859 278.141599 
L 294.709462 276.384793 
L 294.963197 277.331405 
L 295.216933 276.487107 
L 295.470668 277.698143 
L 295.597536 277.519045 
L 295.724404 277.536098 
L 295.978139 279.634047 
L 296.231875 277.126745 
L 296.358742 278.107495 
L 296.48561 278.022201 
L 296.612478 276.870896 
L 296.739346 277.501993 
L 296.866213 279.292904 
L 296.993081 278.985898 
L 297.119949 277.015857 
L 297.246817 276.913543 
L 297.373684 278.133057 
L 297.62742 277.791947 
L 297.881155 278.909147 
L 298.008023 278.346259 
L 298.134891 278.491252 
L 298.261758 279.156453 
L 298.388626 278.883552 
L 298.515494 277.988096 
L 298.642362 278.201299 
L 298.769229 278.943251 
L 299.022965 278.269508 
L 299.2767 279.608452 
L 299.530436 279.744903 
L 299.911039 279.497596 
L 300.037907 279.190558 
L 300.164775 279.39525 
L 300.41851 280.026347 
L 300.672246 278.448605 
L 300.799113 278.712997 
L 301.052849 279.78755 
L 301.179717 287.599391 
L 301.306584 288.15372 
L 301.433452 287.838188 
L 301.687187 288.58014 
L 301.940923 286.789213 
L 302.194658 288.946845 
L 302.321526 288.24754 
L 302.448394 288.631297 
L 302.575262 289.390318 
L 302.828997 288.68247 
L 302.955865 289.202694 
L 303.082733 288.989492 
L 303.2096 288.44369 
L 303.463336 289.876422 
L 303.717071 287.880818 
L 303.970807 289.015071 
L 304.097675 288.929793 
L 304.224542 288.614245 
L 304.478278 287.727316 
L 304.732013 289.424423 
L 304.985749 287.360594 
L 305.112616 287.386189 
L 305.239484 287.752894 
L 305.49322 286.934174 
L 305.620087 287.352068 
L 305.746955 287.070641 
L 305.873823 286.49926 
L 306.000691 286.755109 
L 306.127558 286.524822 
L 306.254426 285.72317 
L 306.508162 286.567469 
L 306.635029 286.072855 
L 306.761897 286.030208 
L 306.888765 286.558959 
L 307.015633 286.473665 
L 307.1425 286.763618 
L 307.269368 287.403241 
L 307.523103 285.271171 
L 307.776839 287.258264 
L 308.030574 285.689065 
L 308.28431 286.294567 
L 308.411178 286.124012 
L 308.664913 287.087693 
L 308.918649 284.674212 
L 309.172384 285.731712 
L 309.299252 283.096503 
L 309.42612 283.164712 
L 309.933591 280.589201 
L 310.187326 279.5914 
L 310.314194 279.335551 
L 310.441061 279.565805 
L 310.567929 279.156453 
L 310.821665 276.521244 
L 310.948532 276.580943 
L 311.0754 276.086297 
L 311.456003 271.498099 
L 311.582871 271.591935 
L 311.963474 268.504694 
L 312.21721 267.813931 
L 312.344078 267.14873 
L 312.851549 261.955029 
L 312.978416 262.466728 
L 313.105284 262.202369 
L 313.35902 259.498917 
L 313.485887 259.882675 
L 313.612755 259.251578 
L 313.86649 256.633421 
L 313.993358 256.590774 
L 314.120226 256.428761 
L 314.754565 254.109067 
L 314.881432 253.802061 
L 315.0083 252.812802 
L 315.135168 252.761613 
L 315.262036 254.612256 
L 315.388903 254.578119 
L 315.642639 251.431211 
L 315.896374 253.20507 
L 316.276978 252.181706 
L 316.403845 252.070817 
L 316.530713 251.584714 
L 316.784448 252.139059 
L 316.911316 251.908804 
L 317.038184 252.514306 
L 317.291919 254.134662 
L 317.418787 292.613977 
L 317.545655 293.338878 
L 317.672523 293.065976 
L 317.79939 293.577674 
L 317.926258 294.814257 
L 318.053126 294.498725 
L 318.306861 292.818653 
L 318.560597 293.313299 
L 318.687465 292.938052 
L 318.814332 293.270652 
L 318.9412 294.225823 
L 319.068068 294.234349 
L 319.321803 292.818653 
L 319.448671 292.699271 
L 319.575539 292.810127 
L 319.702406 292.639572 
L 319.956142 293.94438 
L 320.209877 292.656624 
L 320.463613 294.021147 
L 320.590481 293.279178 
L 320.717348 293.594727 
L 320.844216 293.55208 
L 321.097952 292.596925 
L 321.224819 292.835722 
L 321.605423 294.490198 
L 321.986026 292.520174 
L 322.239761 294.046726 
L 322.366629 294.021147 
L 322.620364 293.458276 
L 322.747232 293.824997 
L 322.8741 293.441224 
L 323.000968 292.5287 
L 323.254703 294.848377 
L 323.508439 293.006277 
L 323.762174 294.387852 
L 324.01591 291.854973 
L 324.142777 292.23022 
L 324.269645 293.014803 
L 324.396513 293.040398 
L 324.650248 295.488 
L 324.903984 292.511648 
L 325.157719 294.379326 
L 325.411455 292.486053 
L 325.538322 284.844767 
L 325.918926 283.505855 
L 326.045793 283.821403 
L 326.299529 285.100616 
L 326.426397 284.571865 
L 326.553264 283.326757 
L 326.680132 283.48026 
L 326.807 284.614512 
L 326.933868 284.171056 
L 327.060735 283.301163 
L 327.314471 284.554813 
L 327.695074 283.224411 
L 327.821942 283.053856 
L 328.202545 286.320162 
L 328.329413 285.842568 
L 328.583148 283.821403 
L 328.710016 284.060167 
L 328.836884 283.932259 
L 328.963751 284.060167 
L 329.090619 284.80212 
L 329.344355 283.650815 
L 329.59809 284.59746 
L 329.724958 283.386456 
L 329.851826 283.87256 
L 329.978693 285.424707 
L 330.232429 282.456864 
L 330.486164 285.109158 
L 330.7399 281.697859 
L 330.993635 284.060167 
L 331.247371 284.06871 
L 331.374239 284.503656 
L 331.501106 284.026063 
L 331.754842 282.235152 
L 332.008577 284.051657 
L 332.262313 282.209557 
L 332.516048 284.921518 
L 332.642916 284.392768 
L 332.769784 283.070908 
L 332.896651 283.173254 
L 333.023519 283.616711 
L 333.277255 283.215901 
L 333.404122 283.002667 
L 333.53099 282.422759 
L 333.657858 286.456613 
L 333.911593 284.972708 
L 334.165329 286.209306 
L 334.419064 285.825516 
L 334.545932 285.629366 
L 334.6728 285.774359 
L 334.799667 286.780671 
L 334.926535 286.83186 
L 335.307138 284.375716 
L 335.434006 284.469519 
L 335.560874 285.254119 
L 335.687742 285.168857 
L 335.814609 284.529219 
L 336.32208 284.981217 
L 336.575816 286.883017 
L 336.829551 283.471718 
L 337.083287 284.947113 
L 337.210155 283.335267 
L 337.337022 283.736109 
L 337.46389 285.620856 
L 337.590758 285.356465 
L 337.717625 283.557012 
L 337.844493 283.420561 
L 337.971361 284.281912 
L 338.225096 283.795808 
L 338.351964 284.40131 
L 338.478832 284.298964 
L 338.6057 284.026063 
L 338.859435 285.697608 
L 339.113171 284.077252 
L 339.366906 284.913008 
L 339.620642 283.616711 
L 340.001245 285.160315 
L 340.25498 284.537761 
L 340.381848 284.623055 
L 340.635584 283.966364 
L 340.889319 285.109158 
L 341.016187 285.117668 
L 341.39679 283.377914 
L 341.650525 284.563356 
L 341.777393 284.281912 
L 341.904261 285.168857 
L 342.031129 284.768015 
L 342.284864 285.748765 
L 342.5386 282.849164 
L 342.792335 285.569667 
L 342.919203 284.955655 
L 343.172938 286.720972 
L 343.426674 285.851111 
L 343.553542 286.149607 
L 343.680409 285.851111 
L 343.807277 285.168857 
L 344.061012 286.669815 
L 344.314748 284.469519 
L 344.568483 286.985363 
L 345.075954 285.237067 
L 345.32969 286.959768 
L 345.583425 285.782869 
L 345.837161 286.533364 
L 345.964029 286.098417 
L 346.090896 286.226358 
L 346.217764 286.627168 
L 346.4715 285.765817 
L 346.598367 286.320162 
L 346.852103 284.981217 
L 347.105838 286.396913 
L 347.359574 285.373517 
L 347.613309 286.541906 
L 347.740177 286.738056 
L 347.867045 287.224144 
L 348.12078 285.365007 
L 348.374516 287.710263 
L 348.628251 286.354267 
L 348.881987 287.164444 
L 349.008854 286.49926 
L 349.26259 287.207091 
L 349.516325 285.202962 
L 349.770061 286.175169 
L 349.896928 289.944647 
L 350.023796 290.217548 
L 350.277532 284.861819 
L 350.785003 266.696731 
L 351.292474 242.246337 
L 352.561151 150.542394 
L 353.19549 110.348887 
L 353.829828 73.063523 
L 354.210432 62.531162 
L 354.464167 55.947393 
L 354.717903 54.28439 
L 354.971638 53.568 
L 355.225374 53.900601 
L 355.352241 53.730045 
L 355.605977 53.934738 
L 355.859712 53.934738 
L 356.494051 53.909143 
L 357.889596 53.909143 
L 358.016464 280.213954 
L 358.143332 281.672264 
L 358.397067 280.947364 
L 358.523935 282.141316 
L 358.650803 282.039002 
L 358.904538 280.367457 
L 359.158273 281.04971 
L 359.285141 280.546555 
L 359.665744 280.503908 
L 359.792612 280.529502 
L 360.046348 280.222496 
L 360.173215 280.52096 
L 360.300083 280.068961 
L 360.426951 280.367457 
L 360.553819 281.578461 
L 360.807554 280.546555 
L 360.934422 281.552898 
L 361.06129 281.63816 
L 361.315025 280.427156 
L 361.568761 279.548753 
L 361.822496 280.341862 
L 362.076231 281.697859 
L 362.203099 281.535814 
L 362.456835 280.111608 
L 362.583702 280.248059 
L 362.837438 281.928113 
L 362.964306 282.081649 
L 363.218041 280.990011 
L 363.344909 281.646702 
L 363.471777 281.544356 
L 363.598644 280.418646 
L 363.85238 283.207359 
L 364.106115 281.876957 
L 364.359851 282.977104 
L 364.613586 280.375999 
L 365.247925 284.000468 
L 365.374793 283.301163 
L 365.50166 281.774611 
L 365.755396 283.198816 
L 365.882264 282.883301 
L 366.009131 281.757558 
L 366.135999 283.719057 
L 366.389735 282.942967 
L 366.516602 282.635961 
L 366.64347 282.857706 
L 366.897206 284.196618 
L 367.024073 283.881102 
L 367.277809 282.815059 
L 367.404677 283.343809 
L 367.531544 283.215901 
L 367.658412 282.482459 
L 367.912148 283.335267 
L 368.039015 283.08796 
L 368.292751 283.198816 
L 368.419618 282.857706 
L 368.546486 283.377914 
L 368.800222 285.689065 
L 369.180825 283.557012 
L 369.307693 284.196618 
L 369.561428 283.207359 
L 369.688296 284.085762 
L 369.815164 284.026063 
L 369.942031 283.267058 
L 370.195767 284.085762 
L 370.322635 283.181764 
L 370.449502 283.625253 
L 370.57637 284.861819 
L 370.830106 283.019751 
L 371.083841 285.637909 
L 371.337576 282.328956 
L 371.591312 284.171056 
L 371.71818 284.094304 
L 371.971915 285.441759 
L 372.098783 284.80212 
L 372.352518 283.079451 
L 372.606254 284.759505 
L 372.859989 282.874758 
L 373.113725 285.279713 
L 373.240593 284.870361 
L 373.36746 284.043115 
L 373.494328 284.119867 
L 373.621196 284.375716 
L 373.874931 284.085762 
L 374.001799 284.043115 
L 374.128667 283.727567 
L 374.50927 281.646702 
L 374.763005 282.678608 
L 375.016741 282.294851 
L 375.143609 282.542158 
L 375.397344 284.017553 
L 375.524212 283.67641 
L 375.904815 281.962251 
L 376.031683 281.714911 
L 376.285418 282.090159 
L 376.412286 281.885499 
L 376.919757 282.448354 
L 377.173492 284.486604 
L 377.427228 281.578461 
L 377.554096 282.593315 
L 377.680963 282.542158 
L 377.807831 281.510252 
L 377.934699 282.2181 
L 378.061567 283.761704 
L 378.188434 283.343809 
L 378.315302 281.800205 
L 378.44217 281.783153 
L 378.569038 282.627452 
L 378.822773 282.2181 
L 379.076509 283.335267 
L 379.203376 282.823601 
L 379.457112 283.915207 
L 379.710847 281.962251 
L 379.964583 283.719057 
L 380.218318 282.721255 
L 380.472054 284.154004 
L 380.598921 284.333069 
L 381.106392 282.738308 
L 381.23326 282.439812 
L 381.360128 282.840654 
L 381.613863 284.145461 
L 381.867599 282.593315 
L 382.248202 283.275568 
L 382.501938 287.599391 
L 382.628805 287.607917 
L 382.755673 288.375464 
L 382.882541 288.460742 
L 383.136276 285.885215 
L 383.390012 288.102563 
L 383.516879 287.394715 
L 383.770615 288.511915 
L 384.02435 287.676143 
L 384.151218 288.042864 
L 384.278086 287.889345 
L 384.404954 287.394715 
L 384.658689 289.142995 
L 384.912425 286.84037 
L 385.16616 288.187841 
L 385.419896 287.053588 
L 385.546763 286.968295 
L 385.673631 287.070641 
L 385.927367 288.887146 
L 386.434837 286.917121 
L 386.688573 287.215617 
L 386.815441 287.207091 
L 387.069176 286.959768 
L 387.196044 287.147392 
L 387.449779 286.030208 
L 387.576647 286.192221 
L 387.703515 286.362809 
L 387.830383 285.987561 
L 387.95725 286.192221 
L 388.084118 286.823318 
L 388.210986 286.686867 
L 388.464721 287.778489 
L 388.718457 285.680556 
L 388.972192 287.633496 
L 389.225928 285.799921 
L 389.352795 286.089908 
L 389.479663 286.047261 
L 389.606531 285.672013 
L 389.860266 286.422508 
L 390.114002 283.787266 
L 390.367737 285.620856 
L 390.494605 280.094556 
L 390.621473 280.282163 
L 391.128944 278.235403 
L 391.255812 278.303645 
L 391.382679 278.405958 
L 391.509547 278.209808 
L 391.763283 279.301446 
L 391.89015 278.610651 
L 392.017018 278.764154 
L 392.143886 280.000752 
L 392.270753 280.103098 
L 392.524489 278.260998 
L 392.651357 278.576546 
L 392.905092 279.779007 
L 393.158828 278.764154 
L 393.412563 279.847249 
L 393.539431 280.341862 
L 393.666299 280.103098 
L 393.920034 277.706653 
L 394.046902 278.423043 
L 394.300637 280.12015 
L 394.554373 278.636245 
L 394.808108 279.685204 
L 395.061844 278.056306 
L 395.442447 280.375999 
L 395.696182 279.813112 
L 395.82305 279.872811 
L 395.949918 279.685204 
L 396.203653 278.260998 
L 396.330521 278.67035 
L 396.457389 280.793861 
L 396.584257 280.964449 
L 396.837992 278.235403 
L 397.218595 280.239549 
L 397.345463 279.267309 
L 397.472331 279.318499 
L 397.599199 279.702256 
L 397.852934 278.414501 
L 398.233537 280.068961 
L 398.360405 280.896207 
L 398.487273 280.981501 
L 398.487273 280.981501 
" clip-path="url(#p2a33919afe)" style="fill: none; stroke: #1f77b4; stroke-width: 1.5; stroke-linecap: square"/>
   </g>
   <g id="patch_3">
    <path d="M 57.6 307.584 
L 57.6 41.472 
" style="fill: none; stroke: #000000; stroke-width: 0.8; stroke-linejoin: miter; stroke-linecap: square"/>
   </g>
   <g id="patch_4">
    <path d="M 414.72 307.584 
L 414.72 41.472 
" style="fill: none; stroke: #000000; stroke-width: 0.8; stroke-linejoin: miter; stroke-linecap: square"/>
   </g>
   <g id="patch_5">
    <path d="M 57.6 307.584 
L 414.72 307.584 
" style="fill: none; stroke: #000000; stroke-width: 0.8; stroke-linejoin: miter; stroke-linecap: square"/>
   </g>
   <g id="patch_6">
    <path d="M 57.6 41.472 
L 414.72 41.472 
" style="fill: none; stroke: #000000; stroke-width: 0.8; stroke-linejoin: miter; stroke-linecap: square"/>
   </g>
   <g id="legend_1">
    <g id="patch_7">
     <path d="M 64.6 64.150125 
L 118.245312 64.150125 
Q 120.245312 64.150125 120.245312 62.150125 
L 120.245312 48.472 
Q 120.245312 46.472 118.245312 46.472 
L 64.6 46.472 
Q 62.6 46.472 62.6 48.472 
L 62.6 62.150125 
Q 62.6 64.150125 64.6 64.150125 
z
" style="fill: #ffffff; opacity: 0.8; stroke: #cccccc; stroke-linejoin: miter"/>
    </g>
    <g id="line2d_16">
     <path d="M 66.6 54.570438 
L 76.6 54.570438 
L 86.6 54.570438 
" style="fill: none; stroke: #1f77b4; stroke-width: 1.5; stroke-linecap: square"/>
    </g>
    <g id="text_15">
     <!-- set2 -->
     <g transform="translate(94.6 58.070438)scale(0.1 -0.1)">
      <defs>
       <path id="DejaVuSans-73" d="M 2834 3397 
L 2834 2853 
Q 2591 2978 2328 3040 
Q 2066 3103 1784 3103 
Q 1356 3103 1142 2972 
Q 928 2841 928 2578 
Q 928 2378 1081 2264 
Q 1234 2150 1697 2047 
L 1894 2003 
Q 2506 1872 2764 1633 
Q 3022 1394 3022 966 
Q 3022 478 2636 193 
Q 2250 -91 1575 -91 
Q 1294 -91 989 -36 
Q 684 19 347 128 
L 347 722 
Q 666 556 975 473 
Q 1284 391 1588 391 
Q 1994 391 2212 530 
Q 2431 669 2431 922 
Q 2431 1156 2273 1281 
Q 2116 1406 1581 1522 
L 1381 1569 
Q 847 1681 609 1914 
Q 372 2147 372 2553 
Q 372 3047 722 3315 
Q 1072 3584 1716 3584 
Q 2034 3584 2315 3537 
Q 2597 3491 2834 3397 
z
" transform="scale(0.015625)"/>
       <path id="DejaVuSans-65" d="M 3597 1894 
L 3597 1613 
L 953 1613 
Q 991 1019 1311 708 
Q 1631 397 2203 397 
Q 2534 397 2845 478 
Q 3156 559 3463 722 
L 3463 178 
Q 3153 47 2828 -22 
Q 2503 -91 2169 -91 
Q 1331 -91 842 396 
Q 353 884 353 1716 
Q 353 2575 817 3079 
Q 1281 3584 2069 3584 
Q 2775 3584 3186 3129 
Q 3597 2675 3597 1894 
z
M 3022 2063 
Q 3016 2534 2758 2815 
Q 2500 3097 2075 3097 
Q 1594 3097 1305 2825 
Q 1016 2553 972 2059 
L 3022 2063 
z
" transform="scale(0.015625)"/>
       <path id="DejaVuSans-74" d="M 1172 4494 
L 1172 3500 
L 2356 3500 
L 2356 3053 
L 1172 3053 
L 1172 1153 
Q 1172 725 1289 603 
Q 1406 481 1766 481 
L 2356 481 
L 2356 0 
L 1766 0 
Q 1100 0 847 248 
Q 594 497 594 1153 
L 594 3053 
L 172 3053 
L 172 3500 
L 594 3500 
L 594 4494 
L 1172 4494 
z
" transform="scale(0.015625)"/>
      </defs>
      <use xlink:href="#DejaVuSans-73"/>
      <use xlink:href="#DejaVuSans-65" x="52.099609"/>
      <use xlink:href="#DejaVuSans-74" x="113.623047"/>
      <use xlink:href="#DejaVuSans-32" x="152.832031"/>
     </g>
    </g>
   </g>
  </g>
 </g>
 <defs>
  <clipPath id="p2a33919afe">
   <rect x="57.6" y="41.472" width="357.12" height="266.112"/>
  </clipPath>
 </defs>
</svg>
