<?xml version="1.0" encoding="utf-8" standalone="no"?>
<!DOCTYPE svg PUBLIC "-//W3C//DTD SVG 1.1//EN"
  "http://www.w3.org/Graphics/SVG/1.1/DTD/svg11.dtd">
<svg xmlns:xlink="http://www.w3.org/1999/xlink" width="460.8pt" height="345.6pt" viewBox="0 0 460.8 345.6" xmlns="http://www.w3.org/2000/svg" version="1.1">
 <metadata>
  <rdf:RDF xmlns:dc="http://purl.org/dc/elements/1.1/" xmlns:cc="http://creativecommons.org/ns#" xmlns:rdf="http://www.w3.org/1999/02/22-rdf-syntax-ns#">
   <cc:Work>
    <dc:type rdf:resource="http://purl.org/dc/dcmitype/StillImage"/>
    <dc:date>2022-08-11T15:19:00.365576</dc:date>
    <dc:format>image/svg+xml</dc:format>
    <dc:creator>
     <cc:Agent>
      <dc:title>Matplotlib v3.5.2, https://matplotlib.org/</dc:title>
     </cc:Agent>
    </dc:creator>
   </cc:Work>
  </rdf:RDF>
 </metadata>
 <defs>
  <style type="text/css">*{stroke-linejoin: round; stroke-linecap: butt}</style>
 </defs>
 <g id="figure_1">
  <g id="patch_1">
   <path d="M 0 345.6 
L 460.8 345.6 
L 460.8 0 
L 0 0 
z
" style="fill: #ffffff"/>
  </g>
  <g id="axes_1">
   <g id="patch_2">
    <path d="M 57.6 307.584 
L 414.72 307.584 
L 414.72 41.472 
L 57.6 41.472 
z
" style="fill: #ffffff"/>
   </g>
   <g id="matplotlib.axis_1">
    <g id="xtick_1">
     <g id="line2d_1">
      <defs>
       <path id="m4d257d0d94" d="M 0 0 
L 0 3.5 
" style="stroke: #000000; stroke-width: 0.8"/>
      </defs>
      <g>
       <use xlink:href="#m4d257d0d94" x="73.832727" y="307.584" style="stroke: #000000; stroke-width: 0.8"/>
      </g>
     </g>
     <g id="text_1">
      <!-- 0 -->
      <g transform="translate(70.651477 322.182437)scale(0.1 -0.1)">
       <defs>
        <path id="DejaVuSans-30" d="M 2034 4250 
Q 1547 4250 1301 3770 
Q 1056 3291 1056 2328 
Q 1056 1369 1301 889 
Q 1547 409 2034 409 
Q 2525 409 2770 889 
Q 3016 1369 3016 2328 
Q 3016 3291 2770 3770 
Q 2525 4250 2034 4250 
z
M 2034 4750 
Q 2819 4750 3233 4129 
Q 3647 3509 3647 2328 
Q 3647 1150 3233 529 
Q 2819 -91 2034 -91 
Q 1250 -91 836 529 
Q 422 1150 422 2328 
Q 422 3509 836 4129 
Q 1250 4750 2034 4750 
z
" transform="scale(0.015625)"/>
       </defs>
       <use xlink:href="#DejaVuSans-30"/>
      </g>
     </g>
    </g>
    <g id="xtick_2">
     <g id="line2d_2">
      <g>
       <use xlink:href="#m4d257d0d94" x="137.254205" y="307.584" style="stroke: #000000; stroke-width: 0.8"/>
      </g>
     </g>
     <g id="text_2">
      <!-- 1000 -->
      <g transform="translate(124.529205 322.182437)scale(0.1 -0.1)">
       <defs>
        <path id="DejaVuSans-31" d="M 794 531 
L 1825 531 
L 1825 4091 
L 703 3866 
L 703 4441 
L 1819 4666 
L 2450 4666 
L 2450 531 
L 3481 531 
L 3481 0 
L 794 0 
L 794 531 
z
" transform="scale(0.015625)"/>
       </defs>
       <use xlink:href="#DejaVuSans-31"/>
       <use xlink:href="#DejaVuSans-30" x="63.623047"/>
       <use xlink:href="#DejaVuSans-30" x="127.246094"/>
       <use xlink:href="#DejaVuSans-30" x="190.869141"/>
      </g>
     </g>
    </g>
    <g id="xtick_3">
     <g id="line2d_3">
      <g>
       <use xlink:href="#m4d257d0d94" x="200.675683" y="307.584" style="stroke: #000000; stroke-width: 0.8"/>
      </g>
     </g>
     <g id="text_3">
      <!-- 2000 -->
      <g transform="translate(187.950683 322.182437)scale(0.1 -0.1)">
       <defs>
        <path id="DejaVuSans-32" d="M 1228 531 
L 3431 531 
L 3431 0 
L 469 0 
L 469 531 
Q 828 903 1448 1529 
Q 2069 2156 2228 2338 
Q 2531 2678 2651 2914 
Q 2772 3150 2772 3378 
Q 2772 3750 2511 3984 
Q 2250 4219 1831 4219 
Q 1534 4219 1204 4116 
Q 875 4013 500 3803 
L 500 4441 
Q 881 4594 1212 4672 
Q 1544 4750 1819 4750 
Q 2544 4750 2975 4387 
Q 3406 4025 3406 3419 
Q 3406 3131 3298 2873 
Q 3191 2616 2906 2266 
Q 2828 2175 2409 1742 
Q 1991 1309 1228 531 
z
" transform="scale(0.015625)"/>
       </defs>
       <use xlink:href="#DejaVuSans-32"/>
       <use xlink:href="#DejaVuSans-30" x="63.623047"/>
       <use xlink:href="#DejaVuSans-30" x="127.246094"/>
       <use xlink:href="#DejaVuSans-30" x="190.869141"/>
      </g>
     </g>
    </g>
    <g id="xtick_4">
     <g id="line2d_4">
      <g>
       <use xlink:href="#m4d257d0d94" x="264.097161" y="307.584" style="stroke: #000000; stroke-width: 0.8"/>
      </g>
     </g>
     <g id="text_4">
      <!-- 3000 -->
      <g transform="translate(251.372161 322.182437)scale(0.1 -0.1)">
       <defs>
        <path id="DejaVuSans-33" d="M 2597 2516 
Q 3050 2419 3304 2112 
Q 3559 1806 3559 1356 
Q 3559 666 3084 287 
Q 2609 -91 1734 -91 
Q 1441 -91 1130 -33 
Q 819 25 488 141 
L 488 750 
Q 750 597 1062 519 
Q 1375 441 1716 441 
Q 2309 441 2620 675 
Q 2931 909 2931 1356 
Q 2931 1769 2642 2001 
Q 2353 2234 1838 2234 
L 1294 2234 
L 1294 2753 
L 1863 2753 
Q 2328 2753 2575 2939 
Q 2822 3125 2822 3475 
Q 2822 3834 2567 4026 
Q 2313 4219 1838 4219 
Q 1578 4219 1281 4162 
Q 984 4106 628 3988 
L 628 4550 
Q 988 4650 1302 4700 
Q 1616 4750 1894 4750 
Q 2613 4750 3031 4423 
Q 3450 4097 3450 3541 
Q 3450 3153 3228 2886 
Q 3006 2619 2597 2516 
z
" transform="scale(0.015625)"/>
       </defs>
       <use xlink:href="#DejaVuSans-33"/>
       <use xlink:href="#DejaVuSans-30" x="63.623047"/>
       <use xlink:href="#DejaVuSans-30" x="127.246094"/>
       <use xlink:href="#DejaVuSans-30" x="190.869141"/>
      </g>
     </g>
    </g>
    <g id="xtick_5">
     <g id="line2d_5">
      <g>
       <use xlink:href="#m4d257d0d94" x="327.518639" y="307.584" style="stroke: #000000; stroke-width: 0.8"/>
      </g>
     </g>
     <g id="text_5">
      <!-- 4000 -->
      <g transform="translate(314.793639 322.182437)scale(0.1 -0.1)">
       <defs>
        <path id="DejaVuSans-34" d="M 2419 4116 
L 825 1625 
L 2419 1625 
L 2419 4116 
z
M 2253 4666 
L 3047 4666 
L 3047 1625 
L 3713 1625 
L 3713 1100 
L 3047 1100 
L 3047 0 
L 2419 0 
L 2419 1100 
L 313 1100 
L 313 1709 
L 2253 4666 
z
" transform="scale(0.015625)"/>
       </defs>
       <use xlink:href="#DejaVuSans-34"/>
       <use xlink:href="#DejaVuSans-30" x="63.623047"/>
       <use xlink:href="#DejaVuSans-30" x="127.246094"/>
       <use xlink:href="#DejaVuSans-30" x="190.869141"/>
      </g>
     </g>
    </g>
    <g id="xtick_6">
     <g id="line2d_6">
      <g>
       <use xlink:href="#m4d257d0d94" x="390.940117" y="307.584" style="stroke: #000000; stroke-width: 0.8"/>
      </g>
     </g>
     <g id="text_6">
      <!-- 5000 -->
      <g transform="translate(378.215117 322.182437)scale(0.1 -0.1)">
       <defs>
        <path id="DejaVuSans-35" d="M 691 4666 
L 3169 4666 
L 3169 4134 
L 1269 4134 
L 1269 2991 
Q 1406 3038 1543 3061 
Q 1681 3084 1819 3084 
Q 2600 3084 3056 2656 
Q 3513 2228 3513 1497 
Q 3513 744 3044 326 
Q 2575 -91 1722 -91 
Q 1428 -91 1123 -41 
Q 819 9 494 109 
L 494 744 
Q 775 591 1075 516 
Q 1375 441 1709 441 
Q 2250 441 2565 725 
Q 2881 1009 2881 1497 
Q 2881 1984 2565 2268 
Q 2250 2553 1709 2553 
Q 1456 2553 1204 2497 
Q 953 2441 691 2322 
L 691 4666 
z
" transform="scale(0.015625)"/>
       </defs>
       <use xlink:href="#DejaVuSans-35"/>
       <use xlink:href="#DejaVuSans-30" x="63.623047"/>
       <use xlink:href="#DejaVuSans-30" x="127.246094"/>
       <use xlink:href="#DejaVuSans-30" x="190.869141"/>
      </g>
     </g>
    </g>
   </g>
   <g id="matplotlib.axis_2">
    <g id="ytick_1">
     <g id="line2d_7">
      <defs>
       <path id="me961fabc26" d="M 0 0 
L -3.5 0 
" style="stroke: #000000; stroke-width: 0.8"/>
      </defs>
      <g>
       <use xlink:href="#me961fabc26" x="57.6" y="281.284597" style="stroke: #000000; stroke-width: 0.8"/>
      </g>
     </g>
     <g id="text_7">
      <!-- 4025 -->
      <g transform="translate(25.15 285.083816)scale(0.1 -0.1)">
       <use xlink:href="#DejaVuSans-34"/>
       <use xlink:href="#DejaVuSans-30" x="63.623047"/>
       <use xlink:href="#DejaVuSans-32" x="127.246094"/>
       <use xlink:href="#DejaVuSans-35" x="190.869141"/>
      </g>
     </g>
    </g>
    <g id="ytick_2">
     <g id="line2d_8">
      <g>
       <use xlink:href="#me961fabc26" x="57.6" y="251.179687" style="stroke: #000000; stroke-width: 0.8"/>
      </g>
     </g>
     <g id="text_8">
      <!-- 4050 -->
      <g transform="translate(25.15 254.978906)scale(0.1 -0.1)">
       <use xlink:href="#DejaVuSans-34"/>
       <use xlink:href="#DejaVuSans-30" x="63.623047"/>
       <use xlink:href="#DejaVuSans-35" x="127.246094"/>
       <use xlink:href="#DejaVuSans-30" x="190.869141"/>
      </g>
     </g>
    </g>
    <g id="ytick_3">
     <g id="line2d_9">
      <g>
       <use xlink:href="#me961fabc26" x="57.6" y="221.074777" style="stroke: #000000; stroke-width: 0.8"/>
      </g>
     </g>
     <g id="text_9">
      <!-- 4075 -->
      <g transform="translate(25.15 224.873996)scale(0.1 -0.1)">
       <defs>
        <path id="DejaVuSans-37" d="M 525 4666 
L 3525 4666 
L 3525 4397 
L 1831 0 
L 1172 0 
L 2766 4134 
L 525 4134 
L 525 4666 
z
" transform="scale(0.015625)"/>
       </defs>
       <use xlink:href="#DejaVuSans-34"/>
       <use xlink:href="#DejaVuSans-30" x="63.623047"/>
       <use xlink:href="#DejaVuSans-37" x="127.246094"/>
       <use xlink:href="#DejaVuSans-35" x="190.869141"/>
      </g>
     </g>
    </g>
    <g id="ytick_4">
     <g id="line2d_10">
      <g>
       <use xlink:href="#me961fabc26" x="57.6" y="190.969867" style="stroke: #000000; stroke-width: 0.8"/>
      </g>
     </g>
     <g id="text_10">
      <!-- 4100 -->
      <g transform="translate(25.15 194.769086)scale(0.1 -0.1)">
       <use xlink:href="#DejaVuSans-34"/>
       <use xlink:href="#DejaVuSans-31" x="63.623047"/>
       <use xlink:href="#DejaVuSans-30" x="127.246094"/>
       <use xlink:href="#DejaVuSans-30" x="190.869141"/>
      </g>
     </g>
    </g>
    <g id="ytick_5">
     <g id="line2d_11">
      <g>
       <use xlink:href="#me961fabc26" x="57.6" y="160.864957" style="stroke: #000000; stroke-width: 0.8"/>
      </g>
     </g>
     <g id="text_11">
      <!-- 4125 -->
      <g transform="translate(25.15 164.664176)scale(0.1 -0.1)">
       <use xlink:href="#DejaVuSans-34"/>
       <use xlink:href="#DejaVuSans-31" x="63.623047"/>
       <use xlink:href="#DejaVuSans-32" x="127.246094"/>
       <use xlink:href="#DejaVuSans-35" x="190.869141"/>
      </g>
     </g>
    </g>
    <g id="ytick_6">
     <g id="line2d_12">
      <g>
       <use xlink:href="#me961fabc26" x="57.6" y="130.760047" style="stroke: #000000; stroke-width: 0.8"/>
      </g>
     </g>
     <g id="text_12">
      <!-- 4150 -->
      <g transform="translate(25.15 134.559266)scale(0.1 -0.1)">
       <use xlink:href="#DejaVuSans-34"/>
       <use xlink:href="#DejaVuSans-31" x="63.623047"/>
       <use xlink:href="#DejaVuSans-35" x="127.246094"/>
       <use xlink:href="#DejaVuSans-30" x="190.869141"/>
      </g>
     </g>
    </g>
    <g id="ytick_7">
     <g id="line2d_13">
      <g>
       <use xlink:href="#me961fabc26" x="57.6" y="100.655137" style="stroke: #000000; stroke-width: 0.8"/>
      </g>
     </g>
     <g id="text_13">
      <!-- 4175 -->
      <g transform="translate(25.15 104.454356)scale(0.1 -0.1)">
       <use xlink:href="#DejaVuSans-34"/>
       <use xlink:href="#DejaVuSans-31" x="63.623047"/>
       <use xlink:href="#DejaVuSans-37" x="127.246094"/>
       <use xlink:href="#DejaVuSans-35" x="190.869141"/>
      </g>
     </g>
    </g>
    <g id="ytick_8">
     <g id="line2d_14">
      <g>
       <use xlink:href="#me961fabc26" x="57.6" y="70.550227" style="stroke: #000000; stroke-width: 0.8"/>
      </g>
     </g>
     <g id="text_14">
      <!-- 4200 -->
      <g transform="translate(25.15 74.349445)scale(0.1 -0.1)">
       <use xlink:href="#DejaVuSans-34"/>
       <use xlink:href="#DejaVuSans-32" x="63.623047"/>
       <use xlink:href="#DejaVuSans-30" x="127.246094"/>
       <use xlink:href="#DejaVuSans-30" x="190.869141"/>
      </g>
     </g>
    </g>
   </g>
   <g id="line2d_15">
    <path d="M 73.832727 145.889528 
L 73.896149 146.352861 
L 74.086413 205.945002 
L 74.213256 193.594638 
L 74.466942 207.489055 
L 74.657206 179.545289 
L 74.720628 180.934701 
L 74.847471 198.688954 
L 74.910892 195.292744 
L 75.037735 200.696046 
L 75.228 179.082544 
L 75.418264 196.218823 
L 75.481686 191.895946 
L 75.545107 192.050586 
L 75.67195 195.138104 
L 75.798793 193.131306 
L 75.925636 172.443587 
L 75.989058 176.612412 
L 76.052479 190.506533 
L 76.1159 189.580454 
L 76.242743 165.80522 
L 76.433008 197.299542 
L 76.559851 186.029604 
L 76.686694 196.218823 
L 76.750115 195.446796 
L 76.94038 173.678947 
L 77.003801 175.840386 
L 77.067223 176.457771 
L 77.194066 161.482342 
L 77.257487 164.7245 
L 77.320909 164.879141 
L 77.38433 159.320904 
L 77.511173 212.583663 
L 77.574594 200.541699 
L 77.638016 176.149079 
L 77.764859 216.134514 
L 77.891702 157.159466 
L 77.955123 168.738684 
L 78.018545 187.88235 
L 78.081966 177.692543 
L 78.208809 156.388028 
L 78.272231 160.401623 
L 78.335652 157.468746 
L 78.399074 159.166852 
L 78.525917 182.787446 
L 78.589338 203.783857 
L 78.65276 201.313726 
L 78.779603 179.699929 
L 78.843024 189.580454 
L 79.033288 164.415807 
L 79.09671 163.335089 
L 79.223553 151.293125 
L 79.477239 127.209197 
L 79.604082 129.524687 
L 79.667503 127.363836 
L 79.857768 104.051346 
L 79.921189 108.220172 
L 80.111454 125.665144 
L 80.174875 127.054556 
L 80.238297 126.283118 
L 80.301718 122.732267 
L 80.491982 149.440378 
L 80.555404 145.735476 
L 80.682247 136.626388 
L 80.745668 141.257958 
L 80.80909 148.822993 
L 80.872511 145.426782 
L 80.935933 149.903712 
L 81.062776 185.103526 
L 81.126197 178.61921 
L 81.316462 162.320811 
L 81.633569 152.065151 
L 81.696991 153.917896 
L 81.760412 147.124888 
L 81.823833 125.047758 
L 81.887255 130.296713 
L 82.140941 208.106441 
L 82.331205 189.425814 
L 82.52147 219.685365 
L 82.648313 215.516834 
L 82.711734 211.039905 
L 82.838577 179.082544 
L 82.901999 186.184245 
L 82.96542 192.205227 
L 83.092263 150.521098 
L 83.155685 162.717702 
L 83.40937 205.790655 
L 83.472792 206.253989 
L 83.536213 200.541699 
L 83.663056 147.742274 
L 83.726478 152.373843 
L 83.789899 165.033194 
L 83.853321 163.643781 
L 84.170428 144.96345 
L 84.23385 151.91051 
L 84.360693 185.412219 
L 84.614379 144.654756 
L 84.741221 181.552674 
L 84.804643 193.594638 
L 84.931486 174.142281 
L 85.058329 186.492938 
L 85.185172 173.833 
L 85.248593 176.149079 
L 85.565701 225.860693 
L 85.629122 220.920431 
L 85.692544 200.541699 
L 85.755965 203.47487 
L 85.819387 212.73801 
L 85.94623 191.587253 
L 86.073073 221.074777 
L 86.136494 215.671474 
L 86.199915 202.548792 
L 86.263337 203.62951 
L 86.326758 206.871375 
L 86.643866 186.64699 
L 86.707287 182.942087 
L 86.83413 217.215234 
L 86.897552 214.127423 
L 87.151238 187.110324 
L 87.468345 158.394825 
L 87.595188 182.478753 
L 87.658609 179.699929 
L 87.722031 172.134895 
L 87.785452 176.149079 
L 87.912295 173.061562 
L 88.039138 229.874583 
L 88.10256 217.215234 
L 88.165981 198.688954 
L 88.229403 204.401244 
L 88.292824 199.92402 
L 88.419667 158.086133 
L 88.54651 181.861368 
L 88.673353 157.622799 
L 88.927039 257.355016 
L 89.180725 231.572983 
L 89.561254 142.802011 
L 89.624675 143.419396 
L 89.688097 147.43358 
L 90.005204 192.51392 
L 90.195469 155.307309 
L 90.25889 150.984432 
L 90.385733 183.868166 
L 90.449154 174.142281 
L 90.512576 180.317316 
L 90.575997 180.163263 
L 90.70284 169.664763 
L 90.766262 171.826202 
L 90.829683 170.436789 
L 90.956526 199.769673 
L 91.019948 196.37317 
L 91.083369 195.755489 
L 91.146791 197.917222 
L 91.273634 189.271762 
L 91.337055 198.071568 
L 91.400477 196.836502 
L 91.463898 189.117122 
L 91.52732 193.131306 
L 91.590741 193.903332 
L 91.654163 186.80163 
L 91.717584 187.573656 
L 91.844427 194.520717 
L 91.97127 182.478753 
L 92.034691 185.720911 
L 92.351799 213.35569 
L 92.605485 190.815227 
L 92.795749 177.075158 
L 92.922592 195.91013 
L 92.986014 190.506533 
L 93.049435 185.720911 
L 93.176278 207.025721 
L 93.303121 182.633394 
L 93.366542 190.969867 
L 93.429964 204.401244 
L 93.493385 204.246897 
L 93.620228 197.917222 
L 93.747071 181.243395 
L 93.873914 196.37317 
L 94.000757 182.633394 
L 94.1276 198.071568 
L 94.191022 197.453888 
L 94.317865 178.773263 
L 94.381286 182.478753 
L 94.508129 197.299542 
L 94.698394 173.215614 
L 94.761815 175.531692 
L 94.888658 196.218823 
L 95.205765 168.429992 
L 95.269187 172.289536 
L 95.332608 184.640192 
L 95.39603 183.713525 
L 95.459451 181.706727 
L 95.522873 185.257578 
L 95.586294 182.633394 
L 95.649716 181.243395 
L 95.83998 200.07866 
L 95.903402 198.225915 
L 95.966823 191.895946 
L 96.030245 193.594638 
L 96.157087 211.348598 
L 96.220509 208.569774 
L 96.28393 210.113532 
L 96.537616 221.537816 
L 96.601038 218.4503 
L 96.727881 231.418636 
L 96.854724 209.341506 
L 96.918145 213.818729 
L 97.235253 252.260407 
L 97.55236 205.636309 
L 97.615781 206.871375 
L 97.742624 225.243014 
L 97.869467 198.534607 
L 97.932889 201.622418 
L 97.99631 207.489055 
L 98.059732 205.17327 
L 98.123153 208.260787 
L 98.249996 122.423573 
L 98.440261 148.5143 
L 98.503682 139.868546 
L 98.567104 138.170442 
L 98.693947 149.903712 
L 98.757368 146.970248 
L 98.884211 132.14946 
L 99.201318 148.050967 
L 99.26474 144.96345 
L 99.391583 138.787827 
L 99.455004 141.721292 
L 99.581847 151.138484 
L 99.70869 123.967039 
L 99.772112 132.14946 
L 99.835533 148.359659 
L 99.898955 136.626388 
L 99.962376 123.812986 
L 100.089219 150.212406 
L 100.152641 145.889528 
L 100.342905 142.184625 
L 100.469748 149.749072 
L 100.596591 135.85495 
L 100.660012 140.640572 
L 100.723434 149.749072 
L 100.786855 146.816195 
L 100.97712 142.338677 
L 101.103963 144.654756 
L 101.230806 129.061942 
L 101.357649 147.27894 
L 101.42107 144.346064 
L 101.484492 147.896914 
L 101.547913 144.500116 
L 101.611335 134.465537 
L 101.674756 137.553055 
L 101.801599 146.507502 
L 101.928442 141.257958 
L 102.055285 152.219203 
L 102.118706 145.889528 
L 102.182128 149.749072 
L 102.308971 166.422605 
L 102.372392 165.496526 
L 102.499235 143.265345 
L 102.626078 175.685745 
L 102.6895 169.047378 
L 102.943186 149.749072 
L 103.006607 150.367046 
L 103.13345 166.268554 
L 103.260293 144.96345 
L 103.387136 159.784238 
L 103.513979 139.714494 
L 103.640822 148.050967 
L 103.704243 146.970248 
L 103.767665 143.265345 
L 103.831086 144.654756 
L 103.894508 149.749072 
L 103.957929 148.205607 
L 104.021351 149.131686 
L 104.084772 154.380641 
L 104.211615 145.272143 
L 104.275037 162.563062 
L 104.338458 161.328291 
L 104.40188 144.654756 
L 104.528723 180.471956 
L 104.592144 168.275352 
L 104.655566 157.005414 
L 104.718987 167.657965 
L 104.782408 159.784238 
L 104.84583 140.640572 
L 104.909251 151.138484 
L 104.972673 167.657965 
L 105.036094 160.401623 
L 105.099516 154.689334 
L 105.226359 166.577246 
L 105.28978 165.95986 
L 105.416623 144.654756 
L 105.480045 150.212406 
L 105.543466 161.019597 
L 105.606888 157.77744 
L 105.670309 155.307309 
L 105.797152 165.187834 
L 105.860574 163.489728 
L 105.923995 158.394825 
L 105.987417 162.100317 
L 106.241102 188.963069 
L 106.304524 168.121299 
L 106.367945 168.892737 
L 106.431367 173.833 
L 106.494788 171.054176 
L 106.55821 162.563062 
L 106.621631 163.643781 
L 106.685053 168.584044 
L 106.748474 167.657965 
L 106.811896 163.180448 
L 106.875317 168.121299 
L 107.00216 188.963069 
L 107.255846 180.934701 
L 107.446111 169.20143 
L 107.572954 158.086133 
L 107.636375 161.328291 
L 107.699796 161.636983 
L 107.826639 142.184625 
L 107.953482 163.643781 
L 108.016904 159.320904 
L 108.143747 166.268554 
L 108.207168 164.570448 
L 108.397433 167.194632 
L 108.524276 162.563062 
L 108.651119 186.029604 
L 108.71454 179.699929 
L 108.777962 174.759666 
L 108.841383 182.324113 
L 109.095069 161.636983 
L 109.221912 165.033194 
L 109.412176 138.016389 
L 109.665862 147.124888 
L 109.792705 161.945676 
L 109.919548 157.314107 
L 109.98297 159.784238 
L 110.046391 157.931492 
L 110.173234 160.556264 
L 110.490342 120.724881 
L 110.553763 123.658346 
L 110.680606 129.370634 
L 110.744027 126.283118 
L 110.807449 128.907302 
L 110.934292 149.749072 
L 110.997713 144.500116 
L 111.124556 129.370634 
L 111.251399 139.4058 
L 111.314821 136.472336 
L 111.505085 148.205607 
L 111.568507 147.587633 
L 111.69535 150.058353 
L 111.758771 146.507502 
L 111.822193 148.050967 
L 111.885614 155.46136 
L 111.949036 152.837177 
L 112.075878 143.265345 
L 112.266143 145.580835 
L 112.456407 134.310897 
L 112.519829 121.033574 
L 112.58325 128.289915 
L 112.710093 146.661554 
L 112.773515 146.507502 
L 112.836936 148.977633 
L 112.900358 146.198221 
L 113.027201 167.657965 
L 113.154044 140.795213 
L 113.217465 141.566651 
L 113.344308 139.251161 
L 113.407729 140.795213 
L 113.471151 143.574037 
L 113.534572 142.184625 
L 113.661415 123.658346 
L 113.788258 130.451354 
L 113.85168 123.349652 
L 113.915101 126.283118 
L 113.978523 130.451354 
L 114.168787 125.047758 
L 114.359052 140.331879 
L 114.612738 199.92402 
L 114.676159 203.320524 
L 114.739581 199.92402 
L 114.866423 207.6434 
L 115.056688 193.285359 
L 115.246952 206.717028 
L 115.310374 206.253989 
L 115.437217 222.618535 
L 115.627481 195.446796 
L 115.690903 199.92402 
L 115.754324 194.520717 
L 115.817746 172.289536 
L 115.881167 174.296334 
L 116.00801 209.959186 
L 116.071432 201.931112 
L 116.134853 206.871375 
L 116.198275 209.032813 
L 116.388539 203.011831 
L 116.578803 161.791036 
L 116.705646 194.212025 
L 116.832489 170.900123 
L 116.959332 181.861368 
L 117.022754 181.398035 
L 117.213018 203.938204 
L 117.593547 166.577246 
L 117.656969 176.766464 
L 117.72039 169.51071 
L 117.783811 156.850773 
L 117.847233 160.556264 
L 117.910654 158.549466 
L 117.974076 152.373843 
L 118.100919 199.152288 
L 118.16434 197.762875 
L 118.227762 190.969867 
L 118.354605 210.113532 
L 118.481448 159.166852 
L 118.544869 173.98764 
L 118.608291 190.197841 
L 118.735134 157.468746 
L 118.798555 157.77744 
L 118.861977 161.328291 
L 118.925398 156.079335 
L 118.98882 158.549466 
L 119.242505 197.453888 
L 119.305927 190.506533 
L 119.496191 160.864957 
L 119.686456 147.27894 
L 119.813299 148.205607 
L 119.940142 124.121679 
L 120.003563 126.59181 
L 120.066985 127.054556 
L 120.130406 126.283118 
L 120.447514 97.258926 
L 120.574356 106.676119 
L 120.637778 103.125269 
L 120.764621 109.918277 
L 120.828042 104.823374 
L 120.891464 105.75004 
L 121.14515 139.4058 
L 121.271993 120.570828 
L 121.779365 163.798422 
L 121.842786 163.68788 
L 122.223315 163.026396 
L 122.286736 170.128097 
L 122.350158 168.892737 
L 122.413579 158.703518 
L 122.477001 169.973456 
L 122.540422 124.275731 
L 122.603844 138.016389 
L 122.730687 171.517508 
L 122.85753 154.843975 
L 122.920951 156.079335 
L 123.111216 187.264377 
L 123.238059 185.566271 
L 123.428323 159.012212 
L 123.555166 170.282149 
L 123.682009 128.907302 
L 123.74543 134.310897 
L 123.999116 184.794245 
L 124.062538 185.257578 
L 124.125959 183.404832 
L 124.316224 139.559853 
L 124.379645 144.191424 
L 124.443067 150.212406 
L 124.506488 146.198221 
L 124.56991 131.840766 
L 124.633331 132.766845 
L 124.696753 146.044169 
L 124.760174 144.346064 
L 124.823596 136.009003 
L 124.950438 162.563062 
L 125.01386 154.689334 
L 125.204124 128.444555 
L 125.394389 179.853982 
L 125.45781 163.335089 
L 125.521232 158.858159 
L 125.648075 184.3315 
L 125.774918 156.54208 
L 126.028604 195.601436 
L 126.218868 211.194252 
L 126.345711 181.552674 
L 126.472554 206.717028 
L 126.599397 197.299542 
L 126.662818 205.018923 
L 126.72624 203.938204 
L 126.853083 204.864576 
L 127.043347 180.626008 
L 127.106769 187.419017 
L 127.17019 184.948885 
L 127.233612 179.082544 
L 127.550719 203.62951 
L 127.740984 170.128097 
L 127.804405 172.598228 
L 127.867826 179.853982 
L 127.931248 177.847184 
L 128.058091 142.184625 
L 128.184934 171.826202 
L 128.311777 160.401623 
L 128.502041 168.275352 
L 128.628884 225.397654 
L 128.692306 218.4503 
L 128.945992 161.17365 
L 129.009413 160.710317 
L 129.136256 164.7245 
L 129.263099 142.184625 
L 129.516785 238.057004 
L 129.580206 237.748311 
L 129.833892 219.376672 
L 130.024157 139.559853 
L 130.151 140.949266 
L 130.214421 135.545669 
L 130.341264 167.503324 
L 130.404686 163.489728 
L 130.59495 191.741893 
L 130.785214 161.636983 
L 130.848636 148.977633 
L 130.912057 156.388028 
L 131.0389 178.927903 
L 131.165743 170.436789 
L 131.292586 146.970248 
L 131.482851 170.436789 
L 131.609694 162.717702 
L 131.673115 165.80522 
L 131.736537 165.341886 
L 131.799958 155.616001 
L 131.86338 156.54208 
L 131.926801 168.121299 
L 131.990223 166.268554 
L 132.053644 161.945676 
L 132.117065 165.341886 
L 132.243908 154.071949 
L 132.370751 165.95986 
L 132.497594 147.27894 
L 132.624437 160.710317 
L 132.687859 155.616001 
L 132.75128 157.77744 
L 132.814702 159.320904 
L 132.878123 152.219203 
L 132.941545 155.152668 
L 133.068388 167.503324 
L 133.131809 162.717702 
L 133.195231 164.7245 
L 133.258652 165.187834 
L 133.385495 145.117502 
L 133.512338 168.584044 
L 133.575759 158.703518 
L 133.639181 143.574037 
L 133.702602 146.507502 
L 133.766024 152.837177 
L 133.829445 149.595019 
L 133.892867 145.272143 
L 134.083131 176.612412 
L 134.209974 156.69672 
L 134.273396 160.710317 
L 134.336817 168.275352 
L 134.527082 143.265345 
L 134.590503 148.5143 
L 134.717346 145.889528 
L 134.780768 149.131686 
L 134.907611 140.949266 
L 135.034453 147.742274 
L 135.097875 146.970248 
L 135.161296 144.037371 
L 135.288139 129.524687 
L 135.414982 143.419396 
L 135.541825 135.236976 
L 135.605247 139.714494 
L 135.795511 125.511091 
L 135.858933 126.128478 
L 135.922354 128.444555 
L 136.049197 144.96345 
L 136.112619 141.103906 
L 136.17604 135.70031 
L 136.302883 147.896914 
L 136.366304 143.265345 
L 136.493147 163.798422 
L 136.61999 146.352861 
L 136.683412 147.896914 
L 137.127362 133.693512 
L 137.317627 150.212406 
L 137.507891 126.900504 
L 137.634734 142.184625 
L 137.698156 148.668352 
L 137.761577 148.359659 
L 137.824998 149.749072 
L 137.951841 127.209197 
L 138.015263 132.3041 
L 138.078684 135.545669 
L 138.142106 125.35645 
L 138.205527 126.283118 
L 138.33237 158.240185 
L 138.459213 144.500116 
L 138.522635 147.742274 
L 138.649478 125.665144 
L 138.712899 125.974425 
L 138.776321 159.475544 
L 138.839742 147.587633 
L 138.903164 145.272143 
L 139.093428 164.415807 
L 139.15685 163.335089 
L 139.220271 160.247572 
L 139.283692 165.95986 
L 139.347114 164.415807 
L 139.410535 151.91051 
L 139.473957 152.837177 
L 139.6008 161.636983 
L 139.981329 123.812986 
L 140.108172 146.198221 
L 140.171593 144.808809 
L 140.298436 136.009003 
L 140.361858 137.861748 
L 140.488701 143.265345 
L 140.552122 142.029985 
L 140.615544 138.325082 
L 140.678965 139.559853 
L 140.742386 146.816195 
L 140.805808 144.191424 
L 140.869229 139.251161 
L 140.996072 155.770054 
L 141.122915 141.566651 
L 141.186337 145.117502 
L 141.31318 159.938878 
L 141.376601 159.320904 
L 141.440023 161.636983 
L 141.75713 134.002205 
L 141.883973 149.131686 
L 141.947395 142.956651 
L 142.074238 164.879141 
L 142.137659 155.924694 
L 142.20108 139.714494 
L 142.264502 140.795213 
L 142.327923 147.43358 
L 142.391345 145.272143 
L 142.518188 141.103906 
L 142.581609 141.257958 
L 142.708452 142.493318 
L 142.898717 165.187834 
L 142.962138 164.7245 
L 143.02556 162.871755 
L 143.088981 163.180448 
L 143.215824 169.664763 
L 143.279246 166.268554 
L 143.342667 156.69672 
L 143.406089 157.622799 
L 143.46951 159.166852 
L 143.596353 150.212406 
L 143.723196 168.121299 
L 143.786617 161.328291 
L 143.850039 163.335089 
L 143.91346 167.194632 
L 143.976882 166.113913 
L 144.103725 154.998615 
L 144.293989 169.973456 
L 144.420832 146.816195 
L 144.547675 179.545289 
L 144.611097 175.994438 
L 144.674518 176.303131 
L 144.801361 163.643781 
L 144.928204 178.464569 
L 144.991625 164.415807 
L 145.118468 194.212025 
L 145.18189 185.103526 
L 145.245311 179.853982 
L 145.308733 184.3315 
L 145.498997 166.422605 
L 145.562419 173.370255 
L 145.62584 178.927903 
L 145.689262 176.921105 
L 145.752683 177.847184 
L 145.816105 182.942087 
L 146.069791 165.650579 
L 146.133212 167.503324 
L 146.196634 167.194632 
L 146.260055 169.047378 
L 146.386898 187.419017 
L 146.450319 181.861368 
L 146.513741 165.496526 
L 146.577162 165.80522 
L 146.767427 197.762875 
L 146.830848 192.51392 
L 147.021113 143.88273 
L 147.147956 154.998615 
L 147.211377 151.91051 
L 147.401642 146.044169 
L 147.465063 145.426782 
L 147.655328 169.356071 
L 147.845592 163.643781 
L 147.972435 143.110704 
L 148.035856 145.272143 
L 148.099278 150.058353 
L 148.226121 142.956651 
L 148.289542 144.808809 
L 148.416385 138.016389 
L 148.733493 147.742274 
L 148.796914 160.401623 
L 148.860336 159.938878 
L 148.923757 144.191424 
L 148.987179 149.131686 
L 149.0506 158.240185 
L 149.114022 146.044169 
L 149.177443 146.816195 
L 149.304286 170.59143 
L 149.557972 157.314107 
L 149.621393 160.401623 
L 149.684815 157.931492 
L 149.811658 150.212406 
L 149.875079 149.749072 
L 150.001922 126.900504 
L 150.065344 132.458152 
L 150.255608 143.88273 
L 150.31903 146.507502 
L 150.445873 165.187834 
L 150.509294 159.938878 
L 150.699559 141.721292 
L 150.76298 143.265345 
L 150.953244 114.395206 
L 151.080087 119.953443 
L 151.524038 169.356071 
L 151.777724 148.822993 
L 151.904567 165.80522 
L 151.967988 164.107115 
L 152.03141 163.952474 
L 152.094831 164.879141 
L 152.158252 167.966658 
L 152.285095 186.184245 
L 152.348517 183.404832 
L 152.411938 180.934701 
L 152.538781 163.643781 
L 152.665624 183.09614 
L 152.792467 165.341886 
L 152.855889 177.692543 
L 153.172996 144.500116 
L 153.299839 165.650579 
L 153.363261 160.710317 
L 153.426682 161.17365 
L 153.616946 179.236596 
L 153.680368 173.833 
L 153.807211 140.023187 
L 153.870632 147.43358 
L 153.934054 161.636983 
L 153.997475 157.468746 
L 154.124318 147.124888 
L 154.18774 146.044169 
L 154.251161 148.050967 
L 154.314583 155.616001 
L 154.378004 151.601817 
L 154.504847 132.921486 
L 154.63169 149.131686 
L 154.758533 142.184625 
L 154.821955 144.96345 
L 154.885376 143.72809 
L 154.948798 142.493318 
L 155.202483 211.811637 
L 155.265905 206.871375 
L 155.329326 194.82941 
L 155.456169 215.516834 
L 155.583012 198.688954 
L 155.646434 198.843594 
L 155.709855 196.990849 
L 155.836698 180.780648 
L 155.90012 183.404832 
L 155.963541 196.990849 
L 156.026963 189.734507 
L 156.090384 186.029604 
L 156.280649 210.885558 
L 156.407492 179.391237 
L 156.470913 182.942087 
L 156.534334 205.481963 
L 156.597756 203.011831 
L 156.661177 193.594638 
L 156.724599 196.52781 
L 156.851442 189.889148 
L 156.914863 196.52781 
L 156.978285 192.667972 
L 157.041706 186.64699 
L 157.105128 189.889148 
L 157.168549 190.661174 
L 157.295392 206.099642 
L 157.422235 175.840386 
L 157.485657 184.794245 
L 157.549078 198.380262 
L 157.6125 195.138104 
L 157.675921 195.91013 
L 157.739343 203.320524 
L 157.802764 198.843594 
L 157.866186 190.506533 
L 157.929607 194.675358 
L 157.993028 199.460981 
L 158.119871 189.734507 
L 158.183293 192.51392 
L 158.246714 195.601436 
L 158.373557 174.605026 
L 158.436979 176.612412 
L 158.5004 177.847184 
L 158.563822 175.222413 
L 158.690665 203.938204 
L 158.754086 199.615327 
L 158.817508 185.412219 
L 158.880929 190.815227 
L 158.944351 200.233007 
L 159.071194 158.240185 
L 159.134615 169.047378 
L 159.261458 187.264377 
L 159.388301 166.268554 
L 159.451722 167.503324 
L 159.832251 207.025721 
L 160.085937 182.478753 
L 160.403045 165.496526 
L 160.529888 147.43358 
L 160.720152 152.837177 
L 160.783573 150.984432 
L 160.973838 125.511091 
L 161.037259 127.826582 
L 161.100681 139.09652 
L 161.164102 133.693512 
L 161.227524 131.532073 
L 161.354367 150.675738 
L 161.417788 144.191424 
L 161.48121 146.816195 
L 161.544631 148.5143 
L 161.608053 145.735476 
L 161.734896 164.107115 
L 161.861739 144.191424 
L 161.988582 164.415807 
L 162.052003 161.17365 
L 162.115425 162.717702 
L 162.36911 181.089342 
L 162.432532 178.222319 
L 162.813061 161.019597 
L 162.876482 168.121299 
L 163.003325 146.044169 
L 163.066747 154.380641 
L 163.130168 157.77744 
L 163.257011 185.874964 
L 163.320433 185.412219 
L 163.383854 179.699929 
L 163.447276 184.3315 
L 163.510697 174.913719 
L 163.63754 147.27894 
L 163.764383 168.738684 
L 163.891226 147.742274 
L 164.018069 120.570828 
L 164.144912 149.286327 
L 164.271755 103.279908 
L 164.335176 114.703899 
L 164.588862 166.268554 
L 164.652284 166.268554 
L 164.715705 161.636983 
L 164.90597 125.511091 
L 165.032813 131.377432 
L 165.096234 126.128478 
L 165.159655 111.616382 
L 165.223077 116.247951 
L 165.286498 131.686126 
L 165.34992 126.900504 
L 165.413341 119.798802 
L 165.540184 143.72809 
L 165.730449 116.402591 
L 165.79387 106.058733 
L 165.920713 146.816195 
L 165.984135 144.191424 
L 166.110978 124.430372 
L 166.237821 153.14587 
L 166.364664 127.363836 
L 166.808614 182.170061 
L 166.935457 158.703518 
L 166.998878 165.95986 
L 167.0623 164.261167 
L 167.125721 160.401623 
L 167.189143 163.026396 
L 167.252564 165.650579 
L 167.379407 163.180448 
L 167.442829 163.798422 
L 167.569672 143.265345 
L 167.633093 146.816195 
L 167.696515 159.012212 
L 167.759936 153.454562 
L 167.823358 143.72809 
L 168.140465 184.022806 
L 168.203886 180.780648 
L 168.394151 146.507502 
L 168.457572 156.388028 
L 168.520994 154.071949 
L 168.584415 138.479134 
L 168.647837 138.633774 
L 168.77468 160.710317 
L 168.838101 158.549466 
L 168.901523 156.850773 
L 169.028366 164.107115 
L 169.091787 153.608615 
L 169.21863 193.748691 
L 169.282052 193.594638 
L 169.535737 156.69672 
L 169.66258 161.636983 
L 169.726002 163.643781 
L 169.852845 142.64737 
L 169.979688 201.159086 
L 170.106531 236.204552 
L 170.233374 219.067685 
L 170.296795 219.994058 
L 170.423638 205.17327 
L 170.613903 149.440378 
L 170.677324 156.079335 
L 170.804167 137.707108 
L 171.184696 186.80163 
L 171.248117 158.240185 
L 171.311539 164.570448 
L 171.37496 162.25437 
L 171.438382 144.346064 
L 171.501803 146.816195 
L 171.628646 178.61921 
L 171.755489 159.938878 
L 171.882332 140.486519 
L 172.326282 169.664763 
L 172.453125 163.489728 
L 172.516547 165.187834 
L 172.64339 154.22659 
L 172.706811 158.549466 
L 172.770233 157.468746 
L 172.833654 154.843975 
L 172.897076 160.710317 
L 172.960497 158.858159 
L 173.08734 142.184625 
L 173.214183 162.563062 
L 173.277605 159.938878 
L 173.341026 160.864957 
L 173.467869 167.812018 
L 173.531291 164.107115 
L 173.594712 165.341886 
L 173.658134 171.671561 
L 173.721555 168.738684 
L 173.911819 142.802011 
L 173.975241 139.714494 
L 174.038662 140.795213 
L 174.292348 154.843975 
L 174.419191 148.359659 
L 174.672877 165.650579 
L 174.736299 163.952474 
L 174.863142 145.735476 
L 174.989985 159.012212 
L 175.053406 146.816195 
L 175.116828 152.065151 
L 175.180249 164.570448 
L 175.24367 161.636983 
L 175.370513 158.703518 
L 175.560778 140.023187 
L 175.624199 139.251161 
L 175.751042 148.205607 
L 175.877885 141.721292 
L 176.004728 160.092931 
L 176.06815 153.299922 
L 176.321836 126.900504 
L 176.385257 125.511091 
L 176.5121 134.002205 
L 176.575521 127.826582 
L 176.638943 129.679328 
L 176.702364 134.156256 
L 176.765786 129.988021 
L 176.829207 132.766845 
L 176.892629 141.721292 
L 176.95605 139.714494 
L 177.082893 147.27894 
L 177.336579 127.054556 
L 177.400001 127.363836 
L 177.463422 132.14946 
L 177.590265 123.658346 
L 177.653687 125.511091 
L 177.717108 122.114292 
L 177.843951 147.43358 
L 177.907373 145.889528 
L 178.034215 119.490109 
L 178.351323 142.493318 
L 178.414744 142.029985 
L 178.541587 137.707108 
L 178.605009 143.574037 
L 178.66843 141.721292 
L 178.795273 123.967039 
L 178.922116 151.138484 
L 178.985538 141.257958 
L 179.048959 142.956651 
L 179.112381 146.661554 
L 179.239224 141.103906 
L 179.302645 148.359659 
L 179.366067 147.27894 
L 179.429488 142.493318 
L 179.746595 168.584044 
L 179.873438 166.268554 
L 179.93686 164.570448 
L 180.000281 158.240185 
L 180.063703 159.784238 
L 180.190546 166.731299 
L 180.317389 160.092931 
L 180.38081 160.556264 
L 180.444232 164.261167 
L 180.571075 147.742274 
L 180.697918 168.275352 
L 180.761339 166.422605 
L 180.888182 149.595019 
L 181.078446 158.858159 
L 181.205289 149.440378 
L 181.268711 154.998615 
L 181.332132 167.503324 
L 181.395554 163.798422 
L 181.458975 159.938878 
L 181.522397 165.033194 
L 181.585818 164.261167 
L 181.64924 163.952474 
L 181.776083 154.535282 
L 181.839504 157.005414 
L 181.966347 164.879141 
L 182.029769 164.415807 
L 182.09319 155.770054 
L 182.156612 157.931492 
L 182.220033 168.584044 
L 182.346876 142.184625 
L 182.473719 168.584044 
L 182.600562 157.931492 
L 182.663983 163.335089 
L 182.790826 143.574037 
L 182.854248 144.654756 
L 182.917669 144.191424 
L 183.171355 156.54208 
L 183.234777 165.95986 
L 183.298198 165.187834 
L 183.36162 163.798422 
L 183.488463 183.868166 
L 183.551884 177.847184 
L 183.615306 164.107115 
L 183.678727 165.80522 
L 183.80557 186.64699 
L 184.186099 161.482342 
L 184.24952 161.791036 
L 184.312942 165.95986 
L 184.439785 153.608615 
L 184.566628 163.335089 
L 184.630049 157.622799 
L 184.693471 158.086133 
L 184.883735 165.033194 
L 185.010578 143.265345 
L 185.137421 172.752281 
L 185.264264 160.556264 
L 185.51795 175.994438 
L 185.581371 161.945676 
L 185.644793 172.443587 
L 185.708214 184.948885 
L 185.835057 170.745482 
L 185.898479 174.605026 
L 186.025322 161.482342 
L 186.215586 167.194632 
L 186.342429 155.46136 
L 186.405851 158.240185 
L 186.469272 160.710317 
L 186.659536 144.808809 
L 186.786379 161.636983 
L 186.849801 158.703518 
L 186.976644 169.973456 
L 187.103487 154.998615 
L 187.166908 159.166852 
L 187.357173 187.110324 
L 187.420594 185.566271 
L 187.610859 154.998615 
L 187.67428 159.320904 
L 187.737702 159.012212 
L 187.801123 152.99123 
L 187.864545 155.924694 
L 187.927966 157.314107 
L 187.991388 152.528484 
L 188.11823 167.657965 
L 188.181652 163.798422 
L 188.308495 169.973456 
L 188.498759 154.689334 
L 188.562181 142.338677 
L 188.689024 165.033194 
L 188.815867 146.352861 
L 188.879288 148.359659 
L 189.006131 142.802011 
L 189.069553 142.956651 
L 189.132974 144.037371 
L 189.259817 153.917896 
L 189.323239 149.749072 
L 189.450082 156.388028 
L 189.513503 144.654756 
L 189.576924 146.507502 
L 189.703767 162.871755 
L 189.957453 151.138484 
L 190.084296 144.191424 
L 190.147718 146.198221 
L 190.211139 151.293125 
L 190.337982 143.574037 
L 190.401404 149.749072 
L 190.528247 122.732267 
L 190.591668 123.349652 
L 190.65509 129.061942 
L 190.718511 126.283118 
L 190.781933 124.430372 
L 190.908776 128.598608 
L 191.162461 148.668352 
L 191.225883 147.896914 
L 191.416147 142.956651 
L 191.54299 118.872723 
L 191.606412 122.577626 
L 191.733255 120.107496 
L 191.796676 129.524687 
L 191.860098 126.745863 
L 191.923519 115.167233 
L 192.050362 144.037371 
L 192.113784 139.559853 
L 192.240627 125.202399 
L 192.367469 117.637364 
L 192.430891 122.114292 
L 192.494312 128.135274 
L 192.557734 126.900504 
L 192.621155 127.054556 
L 192.747998 141.875932 
L 192.874841 161.019597 
L 193.001684 143.72809 
L 193.065106 145.272143 
L 193.128527 145.889528 
L 193.25537 157.005414 
L 193.318792 145.735476 
L 193.382213 146.352861 
L 193.445635 157.005414 
L 193.509056 149.595019 
L 193.572478 140.177239 
L 193.635899 144.654756 
L 193.762742 142.029985 
L 193.889585 161.17365 
L 193.953006 152.065151 
L 194.016428 153.763256 
L 194.206692 169.20143 
L 194.270114 163.798422 
L 194.396957 139.251161 
L 194.5238 151.138484 
L 194.650643 145.117502 
L 194.714064 147.43358 
L 194.777486 146.352861 
L 194.840907 146.044169 
L 194.904329 149.595019 
L 194.96775 148.822993 
L 195.094593 138.942468 
L 195.221436 150.367046 
L 195.348279 119.798802 
L 195.4117 125.819784 
L 195.475122 146.970248 
L 195.538543 143.88273 
L 195.601965 144.654756 
L 195.792229 161.791036 
L 195.855651 160.864957 
L 195.982494 155.46136 
L 196.109337 158.086133 
L 196.172758 156.54208 
L 196.363023 159.938878 
L 196.489866 155.616001 
L 196.616709 164.261167 
L 196.68013 163.952474 
L 196.806973 162.40901 
L 196.997237 149.286327 
L 197.060659 155.307309 
L 197.187502 163.952474 
L 197.250923 162.563062 
L 197.314345 163.798422 
L 197.441188 160.247572 
L 197.504609 163.335089 
L 197.568031 162.25437 
L 197.694874 148.668352 
L 197.885138 158.549466 
L 198.011981 155.152668 
L 198.138824 162.871755 
L 198.202245 161.791036 
L 198.265667 160.556264 
L 198.329088 161.328291 
L 198.455931 158.549466 
L 198.582774 164.570448 
L 198.646196 162.40901 
L 198.709617 159.475544 
L 198.773039 162.100317 
L 198.83646 161.328291 
L 198.899882 153.454562 
L 198.963303 156.079335 
L 199.026725 164.415807 
L 199.153568 147.742274 
L 199.280411 169.356071 
L 199.407254 147.27894 
L 199.534097 167.04058 
L 199.660939 147.27894 
L 199.787782 161.17365 
L 200.041468 146.816195 
L 200.10489 146.352861 
L 200.421997 166.885939 
L 200.54884 164.261167 
L 200.612262 164.415807 
L 200.929369 146.816195 
L 200.99279 149.440378 
L 201.056212 148.668352 
L 201.183055 143.574037 
L 201.309898 149.286327 
L 201.436741 144.500116 
L 201.500162 145.426782 
L 201.563584 145.889528 
L 201.690427 140.486519 
L 201.944113 145.889528 
L 202.007534 146.198221 
L 202.134377 144.037371 
L 202.197799 146.044169 
L 202.324642 160.401623 
L 202.388063 155.616001 
L 202.451484 147.43358 
L 202.514906 147.742274 
L 202.768592 157.468746 
L 202.895435 164.879141 
L 203.149121 160.445722 
L 203.402807 157.005414 
L 203.52965 166.577246 
L 203.656493 160.247572 
L 203.910178 175.377053 
L 204.037021 161.328291 
L 204.100443 164.570448 
L 204.354129 176.921105 
L 204.480972 166.422605 
L 204.607815 173.678947 
L 204.798079 161.636983 
L 204.988344 157.931492 
L 205.051765 157.931492 
L 205.305451 165.650579 
L 205.368872 162.871755 
L 205.495715 147.587633 
L 205.622558 160.247572 
L 205.749401 154.843975 
L 205.876244 162.25437 
L 206.003087 155.307309 
L 206.12993 165.496526 
L 206.256773 158.240185 
L 206.320195 158.703518 
L 206.383616 157.005414 
L 206.447038 157.622799 
L 206.573881 162.563062 
L 206.700724 147.43358 
L 206.764145 153.14587 
L 206.827566 164.415807 
L 206.890988 158.858159 
L 207.017831 144.654756 
L 207.334938 167.657965 
L 207.39836 168.121299 
L 207.461781 162.563062 
L 207.525203 162.717702 
L 207.588624 168.584044 
L 207.652046 168.275352 
L 207.715467 165.187834 
L 207.778889 166.422605 
L 207.84231 167.04058 
L 207.905732 165.650579 
L 208.032575 175.377053 
L 208.159417 170.436789 
L 208.222839 175.377053 
L 208.349682 160.710317 
L 208.413103 161.019597 
L 208.476525 163.952474 
L 208.539946 163.489728 
L 208.730211 164.107115 
L 208.793632 163.952474 
L 208.983897 155.46136 
L 209.047318 157.005414 
L 209.301004 160.864957 
L 209.364426 160.092931 
L 209.427847 160.247572 
L 209.491269 162.100317 
L 209.55469 161.328291 
L 209.681533 156.54208 
L 209.808376 164.879141 
L 209.871797 161.945676 
L 209.935219 162.40901 
L 209.99864 163.489728 
L 210.125483 157.468746 
L 210.442591 164.107115 
L 210.506012 164.415807 
L 210.569434 163.026396 
L 210.696277 169.356071 
L 210.759698 166.268554 
L 210.886541 176.303131 
L 211.140227 159.784238 
L 211.26707 156.69672 
L 211.330491 156.388028 
L 211.520756 164.415807 
L 211.584177 163.489728 
L 211.647599 161.17365 
L 211.774442 165.341886 
L 211.901285 278.042439 
L 212.028128 258.898774 
L 212.154971 276.189988 
L 212.408657 259.053415 
L 212.472078 257.663708 
L 212.535499 258.590082 
L 212.598921 258.898774 
L 212.725764 269.242633 
L 212.852607 258.898774 
L 212.916028 264.919756 
L 213.042871 253.186779 
L 213.106293 259.362108 
L 213.169714 256.891976 
L 213.359979 242.534228 
L 213.4234 240.372789 
L 213.550243 243.151613 
L 213.613665 238.82903 
L 213.677086 238.983377 
L 213.740508 240.218443 
L 213.867351 236.821938 
L 213.994193 240.990469 
L 214.438144 228.330825 
L 214.564987 218.141606 
L 214.69183 224.162588 
L 214.818673 216.134514 
L 214.882094 217.36958 
L 214.945516 220.457098 
L 215.008937 218.4503 
L 215.13578 211.502945 
L 215.262623 219.376672 
L 215.326045 217.36958 
L 215.452887 210.885558 
L 215.516309 213.510037 
L 215.833416 199.92402 
L 215.896838 200.07866 
L 215.960259 203.47487 
L 216.150524 194.675358 
L 216.213945 200.233007 
L 216.277367 199.152288 
L 216.40421 182.01542 
L 216.467631 182.787446 
L 216.657896 185.720911 
L 216.911581 177.075158 
L 217.038424 163.180448 
L 217.101846 167.657965 
L 217.165267 167.04058 
L 217.355532 162.40901 
L 217.418953 161.328291 
L 217.545796 165.496526 
L 217.672639 163.798422 
L 217.799482 160.556264 
L 217.862904 162.563062 
L 217.926325 161.791036 
L 218.053168 154.071949 
L 218.11659 154.843975 
L 218.306854 146.044169 
L 218.433697 148.822993 
L 218.497118 148.050967 
L 218.877647 120.570828 
L 218.941069 125.047758 
L 219.00449 120.570828 
L 219.131333 107.911479 
L 219.194755 107.756838 
L 219.321598 88.613173 
L 219.385019 90.774611 
L 219.511862 93.553436 
L 219.575284 91.237944 
L 219.828969 65.455324 
L 219.892391 65.301271 
L 219.955812 163.335089 
L 220.019234 162.563062 
L 220.146077 161.945676 
L 220.209498 162.25437 
L 220.27292 164.415807 
L 220.336341 164.107115 
L 220.399763 162.100317 
L 220.526606 167.812018 
L 220.590027 166.268554 
L 220.71687 162.100317 
L 220.970556 165.033194 
L 221.097399 157.931492 
L 221.16082 160.092931 
L 221.224242 162.717702 
L 221.287663 161.17365 
L 221.477928 156.54208 
L 221.541349 157.468746 
L 221.668192 160.556264 
L 221.795035 153.299922 
L 221.858457 154.689334 
L 221.921878 160.247572 
L 221.9853 157.159466 
L 222.048721 153.14587 
L 222.175564 162.871755 
L 222.238986 160.092931 
L 222.365829 149.749072 
L 222.492672 163.952474 
L 222.556093 161.636983 
L 222.619514 160.401623 
L 222.936622 142.493318 
L 223.126886 147.742274 
L 223.190308 158.240185 
L 223.253729 157.622799 
L 223.380572 148.050967 
L 223.443994 150.675738 
L 223.570837 147.742274 
L 223.761101 153.454562 
L 223.951366 161.482342 
L 224.078208 164.879141 
L 224.14163 164.7245 
L 224.268473 161.791036 
L 224.395316 165.496526 
L 224.522159 161.17365 
L 224.58558 161.945676 
L 224.649002 162.717702 
L 224.775845 159.938878 
L 224.902688 164.107115 
L 225.156374 159.938878 
L 225.219795 160.092931 
L 225.283217 160.864957 
L 225.410059 155.616001 
L 225.473481 161.636983 
L 225.600324 149.286327 
L 225.727167 161.17365 
L 225.790588 157.159466 
L 225.917431 162.100317 
L 225.980853 158.086133 
L 226.107696 163.643781 
L 226.171117 159.320904 
L 226.234539 161.482342 
L 226.361382 165.033194 
L 226.424803 163.026396 
L 226.488225 163.643781 
L 226.551646 164.7245 
L 226.678489 160.710317 
L 226.805332 165.80522 
L 226.868753 164.879141 
L 226.995596 167.657965 
L 227.059018 166.268554 
L 227.185861 162.40901 
L 227.249282 163.026396 
L 227.312704 163.026396 
L 227.502968 166.577246 
L 227.56639 167.657965 
L 227.693233 164.107115 
L 227.820076 173.370255 
L 227.946919 178.927903 
L 228.01034 176.766464 
L 228.137183 160.864957 
L 228.264026 159.166852 
L 228.45429 163.026396 
L 228.517712 161.636983 
L 228.581133 160.247572 
L 228.644555 161.328291 
L 228.771398 165.650579 
L 228.898241 163.180448 
L 228.961662 163.952474 
L 229.025084 165.187834 
L 229.151927 160.092931 
L 229.215348 161.791036 
L 229.27877 164.415807 
L 229.595877 149.440378 
L 229.72272 163.026396 
L 229.786141 160.864957 
L 229.849563 161.17365 
L 229.912984 162.25437 
L 229.976406 161.636983 
L 230.039827 162.40901 
L 230.16667 159.784238 
L 230.420356 164.107115 
L 230.547199 163.643781 
L 230.610621 166.113913 
L 230.674042 165.650579 
L 230.864307 159.784238 
L 230.927728 159.629597 
L 230.99115 160.864957 
L 231.181414 141.412598 
L 231.244835 144.500116 
L 231.4351 153.763256 
L 231.561943 164.7245 
L 231.625364 161.945676 
L 231.688786 162.717702 
L 231.752207 163.335089 
L 232.005893 159.784238 
L 232.196158 144.191424 
L 232.259579 142.493318 
L 232.323001 143.265345 
L 232.386422 149.595019 
L 232.449844 149.131686 
L 232.513265 146.507502 
L 232.703529 163.952474 
L 232.766951 161.328291 
L 232.957215 146.970248 
L 233.020637 151.601817 
L 233.084058 150.521098 
L 233.14748 151.601817 
L 233.274323 162.100317 
L 233.337744 159.784238 
L 233.401166 160.556264 
L 233.59143 166.113913 
L 233.654852 164.570448 
L 233.718273 164.7245 
L 233.781695 166.885939 
L 233.845116 165.95986 
L 233.971959 161.791036 
L 234.03538 163.335089 
L 234.225645 143.88273 
L 234.289066 144.96345 
L 234.542752 156.69672 
L 234.606174 154.535282 
L 234.669595 148.205607 
L 234.796438 162.871755 
L 234.923281 143.265345 
L 234.986703 144.191424 
L 235.113546 145.889528 
L 235.240389 147.742274 
L 235.430653 142.802011 
L 235.557496 146.661554 
L 235.684339 142.802011 
L 235.811182 147.587633 
L 235.874603 143.110704 
L 235.938025 143.88273 
L 236.001446 149.440378 
L 236.064868 146.044169 
L 236.128289 143.110704 
L 236.318554 204.555589 
L 236.445397 226.941413 
L 236.508818 217.832619 
L 236.635661 245.313052 
L 236.699083 238.82903 
L 236.762504 225.860693 
L 236.825926 228.176479 
L 236.952768 246.239425 
L 237.079611 214.127423 
L 237.206454 224.934321 
L 237.269876 218.295953 
L 237.46014 238.365697 
L 237.523562 232.499062 
L 237.586983 215.671474 
L 237.650405 221.383471 
L 237.777248 258.127042 
L 238.030934 237.748311 
L 238.094355 241.453509 
L 238.348041 216.597553 
L 238.411462 219.376672 
L 238.474884 240.527136 
L 238.538305 240.064096 
L 238.601727 212.73801 
L 238.665148 217.215234 
L 238.72857 235.741219 
L 238.791991 228.793864 
L 238.855413 227.250106 
L 238.918834 243.30596 
L 238.982256 241.453509 
L 239.109099 218.4503 
L 239.17252 222.927522 
L 239.299363 212.73801 
L 239.362785 217.678273 
L 239.426206 223.699255 
L 239.679892 181.706727 
L 239.743314 180.008622 
L 239.933578 245.930731 
L 239.996999 228.639517 
L 240.060421 238.82903 
L 240.123842 260.905866 
L 240.314107 198.225915 
L 240.377528 228.330825 
L 240.44095 224.471282 
L 240.567793 188.345095 
L 240.694636 203.011831 
L 240.758057 203.938204 
L 241.011743 231.881675 
L 241.709379 143.72809 
L 241.772801 145.735476 
L 241.836222 145.272143 
L 242.216751 107.293504 
L 242.533859 131.223381 
L 242.660701 114.395206 
L 242.787544 127.363836 
L 242.850966 126.900504 
L 242.914387 133.693512 
L 242.977809 132.458152 
L 243.04123 122.577626 
L 243.104652 127.517889 
L 243.231495 139.559853 
L 243.294916 138.633774 
L 243.485181 173.215614 
L 243.548602 182.787446 
L 243.612024 178.972002 
L 243.992553 156.079335 
L 244.182817 78.269314 
L 244.246238 81.048138 
L 244.499924 182.324113 
L 244.690189 163.180448 
L 244.75361 163.798422 
L 244.943875 202.857484 
L 245.070718 172.289536 
L 245.197561 137.707108 
L 245.324404 165.496526 
L 245.451247 114.395206 
L 245.768354 182.01542 
L 245.831775 182.633394 
L 245.958618 143.574037 
L 246.085461 104.205987 
L 246.212304 122.577626 
L 246.275726 120.262136 
L 246.339147 101.890497 
L 246.402569 104.51468 
L 246.46599 114.703899 
L 246.529412 108.682917 
L 246.592833 114.086514 
L 246.719676 154.22659 
L 246.973362 105.5954 
L 247.163626 168.275352 
L 247.290469 152.837177 
L 247.417312 177.075158 
L 247.544155 157.159466 
L 247.988106 210.885558 
L 248.114949 178.001824 
L 248.241792 210.885558 
L 248.305213 205.481963 
L 248.432056 224.316935 
L 248.495477 221.846803 
L 248.812585 181.398035 
L 248.876006 183.404832 
L 248.939428 182.787446 
L 249.066271 172.134895 
L 249.256535 199.92402 
L 249.319957 197.453888 
L 249.510221 163.489728 
L 249.573643 165.341886 
L 249.637064 169.20143 
L 249.700486 162.40901 
L 249.827328 133.538871 
L 249.954171 167.503324 
L 250.017593 165.187834 
L 250.081014 158.549466 
L 250.144436 162.871755 
L 250.207857 165.95986 
L 250.271279 162.717702 
L 250.398122 230.800956 
L 250.461543 229.257198 
L 250.651808 179.853982 
L 250.778651 163.643781 
L 250.842072 174.296334 
L 250.905494 173.215614 
L 251.032337 136.009003 
L 251.095758 154.380641 
L 251.286022 264.765409 
L 251.666551 184.022806 
L 251.793394 129.061942 
L 251.856816 138.633774 
L 251.983659 115.167233 
L 252.364188 193.439999 
L 252.491031 212.120624 
L 252.554452 211.657291 
L 252.617874 200.387354 
L 252.808138 237.130631 
L 252.871559 232.344715 
L 253.061824 182.942087 
L 253.125245 192.822612 
L 253.188667 198.843594 
L 253.252088 196.52781 
L 253.378931 195.292744 
L 253.505774 211.039905 
L 253.569196 204.709936 
L 253.632617 200.696046 
L 253.696039 205.945002 
L 253.949725 178.61921 
L 254.013146 174.759666 
L 254.076568 180.008622 
L 254.139989 174.142281 
L 254.266832 156.388028 
L 254.393675 181.552674 
L 254.457096 177.229798 
L 254.774204 145.580835 
L 254.837625 149.286327 
L 255.154733 122.114292 
L 255.408419 128.753249 
L 255.47184 130.142661 
L 255.598683 128.444555 
L 255.662104 130.142661 
L 255.788947 150.984432 
L 255.852369 147.27894 
L 255.979212 123.503705 
L 256.106055 148.205607 
L 256.232898 121.8056 
L 256.296319 126.283118 
L 256.359741 133.075538 
L 256.486584 125.665144 
L 256.676848 129.370634 
L 256.803691 112.851741 
L 256.930534 123.349652 
L 257.057377 102.661935 
L 257.120798 112.388408 
L 257.18422 108.99161 
L 257.247641 107.139453 
L 257.311063 110.072328 
L 257.374484 108.528864 
L 257.437906 109.146251 
L 257.501327 108.837557 
L 257.62817 104.978014 
L 257.881856 127.672529 
L 258.008699 124.584424 
L 258.072121 127.672529 
L 258.135542 126.745863 
L 258.198964 127.363836 
L 258.262385 127.054556 
L 258.452649 109.454943 
L 258.579492 102.044549 
L 258.833178 112.54246 
L 258.8966 112.54246 
L 258.960021 110.535662 
L 259.023443 112.079715 
L 259.34055 66.536043 
L 259.657658 111.153048 
L 259.721079 109.30089 
L 259.911343 82.900884 
L 259.974765 87.22376 
L 260.101608 109.30089 
L 260.165029 106.984812 
L 260.228451 104.669321 
L 260.355294 107.448145 
L 260.482137 102.661935 
L 260.545558 147.43358 
L 260.60898 142.64737 
L 260.672401 139.868546 
L 260.862666 170.900123 
L 260.926087 167.966658 
L 260.989509 159.629597 
L 261.05293 164.261167 
L 261.116352 159.784238 
L 261.243195 145.889528 
L 261.306616 148.822993 
L 261.370037 146.970248 
L 261.49688 148.668352 
L 261.750566 139.559853 
L 261.813988 143.265345 
L 262.131095 123.503705 
L 262.194517 123.349652 
L 262.32136 128.753249 
L 262.384781 123.812986 
L 262.511624 147.124888 
L 262.575046 143.88273 
L 262.638467 140.640572 
L 262.76531 149.903712 
L 262.828731 146.661554 
L 262.955574 126.43717 
L 263.082417 145.117502 
L 263.145839 136.163643 
L 263.20926 141.566651 
L 263.272682 142.338677 
L 263.336103 137.553055 
L 263.462946 151.293125 
L 263.526368 142.956651 
L 263.589789 147.43358 
L 263.653211 153.763256 
L 263.716632 148.205607 
L 263.780054 149.903712 
L 263.843475 156.079335 
L 263.906897 151.601817 
L 264.03374 134.774231 
L 264.224004 149.595019 
L 264.350847 144.96345 
L 264.604533 162.25437 
L 264.667954 161.636983 
L 264.794797 154.843975 
L 264.985062 185.103526 
L 265.048483 184.022806 
L 265.238748 159.166852 
L 265.365591 162.100317 
L 265.492434 174.296334 
L 265.619276 163.335089 
L 265.682698 174.913719 
L 265.746119 172.752281 
L 265.872962 162.717702 
L 265.936384 164.107115 
L 266.063227 173.215614 
L 266.19007 160.247572 
L 266.316913 196.990849 
L 266.507177 164.415807 
L 266.570599 168.275352 
L 266.697442 191.895946 
L 266.760863 179.699929 
L 266.887706 208.106441 
L 266.951128 198.688954 
L 267.204813 157.159466 
L 267.268235 159.320904 
L 267.395078 181.552674 
L 267.521921 176.612412 
L 267.648764 193.594638 
L 267.712185 192.822612 
L 267.90245 169.664763 
L 267.965871 174.759666 
L 268.156136 194.366077 
L 268.282979 175.222413 
L 268.536664 203.011831 
L 268.600086 201.313726 
L 268.79035 154.843975 
L 268.853772 160.247572 
L 268.980615 145.889528 
L 269.107458 168.429992 
L 269.170879 160.710317 
L 269.234301 161.17365 
L 269.61483 194.82941 
L 269.805094 157.314107 
L 269.868516 165.80522 
L 269.931937 164.261167 
L 270.185623 143.265345 
L 270.312466 145.580835 
L 270.439309 160.092931 
L 270.50273 157.005414 
L 270.629573 167.194632 
L 270.692995 163.335089 
L 270.883259 151.138484 
L 271.073524 166.268554 
L 271.136945 164.261167 
L 271.263788 145.117502 
L 271.390631 174.759666 
L 271.517474 147.587633 
L 271.580895 160.247572 
L 271.644317 157.622799 
L 271.77116 132.14946 
L 271.898003 141.103906 
L 271.961424 147.742274 
L 272.024846 145.580835 
L 272.088267 146.816195 
L 272.278532 175.531692 
L 272.341953 172.134895 
L 272.468796 155.307309 
L 272.532218 161.945676 
L 272.595639 157.931492 
L 272.849325 105.132066 
L 272.912746 103.588601 
L 272.976168 110.690303 
L 273.103011 80.894086 
L 273.229854 117.17403 
L 273.293275 109.30089 
L 273.546961 79.504673 
L 274.054333 148.050967 
L 274.181176 144.808809 
L 274.37144 163.180448 
L 274.434862 161.636983 
L 274.498283 143.72809 
L 274.561705 144.500116 
L 274.688548 165.80522 
L 274.751969 165.033194 
L 274.878812 145.426782 
L 274.942234 153.14587 
L 275.069077 168.429992 
L 275.259341 159.938878 
L 275.386184 168.121299 
L 275.513027 143.419396 
L 275.576449 129.061942 
L 275.63987 135.545669 
L 275.766713 160.092931 
L 275.893556 154.22659 
L 276.020399 120.262136 
L 276.08382 127.363836 
L 276.147242 137.244363 
L 276.274085 102.044549 
L 276.400928 132.458152 
L 276.527771 102.353242 
L 276.591192 107.911479 
L 276.654614 121.496907 
L 276.718035 119.181417 
L 276.9083 237.439618 
L 276.971721 259.207761 
L 277.035143 257.663708 
L 277.098564 242.070894 
L 277.225407 273.719857 
L 277.288828 264.456717 
L 277.35225 249.635929 
L 277.415671 250.098968 
L 277.542514 256.274297 
L 277.669357 233.57978 
L 277.732779 242.379881 
L 277.7962 251.025341 
L 277.859622 248.400863 
L 277.923043 250.098968 
L 278.049886 267.698875 
L 278.176729 237.593965 
L 278.240151 242.379881 
L 278.303572 262.295279 
L 278.366994 259.979493 
L 278.430415 249.481582 
L 278.493837 255.347924 
L 278.557258 254.884884 
L 278.874365 234.506154 
L 278.937787 232.036022 
L 279.001208 235.27818 
L 279.06463 252.877792 
L 279.128051 247.011451 
L 279.191473 222.309843 
L 279.254894 226.63272 
L 279.381737 243.151613 
L 279.445159 244.077986 
L 279.50858 243.4606 
L 279.889109 213.973076 
L 280.015952 230.800956 
L 280.269638 195.601436 
L 280.333059 188.036403 
L 280.459902 245.621744 
L 280.523324 245.313052 
L 280.586745 231.263996 
L 280.650167 241.144815 
L 280.713588 259.053415 
L 280.840431 203.938204 
L 280.903853 209.495852 
L 280.967274 238.057004 
L 281.030696 234.814846 
L 281.157539 199.152288 
L 281.601489 260.288481 
L 281.918596 206.408336 
L 281.982018 211.348598 
L 282.045439 207.025721 
L 282.299125 164.107115 
L 282.362547 163.952474 
L 282.425968 167.503324 
L 282.48939 164.415807 
L 282.743076 127.209197 
L 282.806497 129.215994 
L 282.869918 129.833968 
L 282.93334 124.739065 
L 283.123604 154.689334 
L 283.250447 143.265345 
L 283.504133 168.584044 
L 283.630976 144.808809 
L 283.757819 165.650579 
L 283.821241 161.482342 
L 283.884662 164.107115 
L 284.138348 199.769673 
L 284.64572 163.180448 
L 284.772563 117.637364 
L 284.835984 118.254749 
L 285.026249 208.260787 
L 285.08967 220.920431 
L 285.153092 211.657291 
L 285.279935 201.313726 
L 285.343356 203.938204 
L 285.533621 241.762201 
L 285.597042 237.902657 
L 285.787306 183.868166 
L 285.850728 203.783857 
L 285.914149 206.253989 
L 286.040992 151.91051 
L 286.104414 163.180448 
L 286.3581 212.274971 
L 286.421521 215.208142 
L 286.484943 210.422226 
L 286.675207 148.5143 
L 286.80205 164.107115 
L 286.928893 138.787827 
L 286.992315 140.023187 
L 287.055736 147.896914 
L 287.119158 144.96345 
L 287.182579 147.896914 
L 287.309422 187.727709 
L 287.372843 182.01542 
L 287.563108 137.553055 
L 287.753372 194.520717 
L 287.816794 181.861368 
L 287.880215 174.450974 
L 288.007058 186.64699 
L 288.133901 162.717702 
L 288.51443 225.552001 
L 288.577851 230.800956 
L 288.704694 195.601436 
L 288.831537 219.222032 
L 288.894959 209.804839 
L 288.95838 210.576571 
L 289.021802 221.537816 
L 289.085223 217.832619 
L 289.338909 186.955683 
L 289.402331 179.236596 
L 289.465752 183.713525 
L 289.529174 185.257578 
L 289.656017 162.25437 
L 289.846281 205.018923 
L 289.909703 205.018923 
L 289.973124 201.622418 
L 290.099967 175.531692 
L 290.163388 179.699929 
L 290.22681 184.948885 
L 290.417074 144.808809 
L 290.480496 161.636983 
L 290.607339 175.531692 
L 290.67076 175.531692 
L 290.797603 182.324113 
L 290.861025 180.471956 
L 291.051289 246.239425 
L 291.304975 180.780648 
L 291.368397 178.773263 
L 291.495239 184.176859 
L 291.622082 152.065151 
L 291.685504 169.973456 
L 291.875768 295.488 
L 292.256297 210.113532 
L 292.38314 155.616001 
L 292.446562 162.25437 
L 292.573405 141.721292 
L 292.953933 223.544909 
L 293.017355 140.177239 
L 293.080776 147.43358 
L 293.144198 148.5143 
L 293.207619 143.419396 
L 293.334462 167.812018 
L 293.461305 187.264377 
L 293.65157 143.574037 
L 293.714991 145.426782 
L 293.778413 147.896914 
L 294.09552 179.236596 
L 294.412627 156.69672 
L 294.476049 155.616001 
L 294.602892 145.426782 
L 294.729735 160.556264 
L 294.856578 135.545669 
L 294.983421 173.98764 
L 295.046842 171.208816 
L 295.173685 175.840386 
L 295.300528 155.307309 
L 295.36395 158.394825 
L 295.427371 157.622799 
L 295.681057 134.002205 
L 295.744479 126.128478 
L 295.871321 144.500116 
L 295.934743 140.949266 
L 296.061586 145.580835 
L 296.125007 141.566651 
L 296.188429 143.419396 
L 296.25185 143.72809 
L 296.315272 148.359659 
L 296.378693 161.482342 
L 296.442115 160.864957 
L 296.568958 141.103906 
L 296.695801 153.299922 
L 296.822644 141.875932 
L 296.886065 147.896914 
L 296.949487 158.703518 
L 297.012908 158.394825 
L 297.139751 163.952474 
L 297.393437 142.802011 
L 297.52028 152.219203 
L 297.583701 145.272143 
L 297.647123 148.359659 
L 297.710544 161.791036 
L 297.773966 161.328291 
L 297.837387 157.77744 
L 297.900809 161.945676 
L 298.217916 136.935669 
L 298.471602 161.17365 
L 298.535024 157.159466 
L 298.598445 158.394825 
L 298.661866 166.113913 
L 298.725288 165.033194 
L 298.852131 170.436789 
L 299.169238 143.419396 
L 299.296081 164.879141 
L 299.359503 160.401623 
L 299.422924 159.784238 
L 299.613189 169.664763 
L 299.803453 137.244363 
L 299.866875 144.037371 
L 299.930296 142.184625 
L 299.993718 145.117502 
L 300.183982 167.349273 
L 300.310825 164.7245 
L 300.501089 142.956651 
L 300.627932 166.268554 
L 300.691354 166.113913 
L 300.754775 163.643781 
L 300.881618 167.503324 
L 300.94504 164.261167 
L 301.071883 175.685745 
L 301.515833 219.376672 
L 301.579254 210.576571 
L 301.642676 215.208142 
L 301.706097 214.436116 
L 301.83294 198.534607 
L 302.086626 211.811637 
L 302.150048 210.576571 
L 302.213469 211.194252 
L 302.340312 197.145196 
L 302.403734 201.776765 
L 302.467155 206.562681 
L 302.65742 180.626008 
L 302.720841 184.794245 
L 302.784263 183.868166 
L 302.974527 180.008622 
L 303.10137 196.836502 
L 303.164791 194.984051 
L 303.228213 192.822612 
L 303.355056 205.481963 
L 303.54532 186.80163 
L 303.672163 199.615327 
L 303.925849 184.640192 
L 303.989271 197.145196 
L 304.052692 195.601436 
L 304.116114 179.236596 
L 304.179535 186.184245 
L 304.242957 200.07866 
L 304.306378 191.895946 
L 304.369799 187.264377 
L 304.433221 196.52781 
L 304.496642 193.285359 
L 304.623485 173.98764 
L 304.940593 192.822612 
L 305.004014 195.292744 
L 305.067436 182.633394 
L 305.130857 183.09614 
L 305.2577 207.334708 
L 305.384543 199.306634 
L 305.574808 224.779974 
L 305.638229 222.00115 
L 305.891915 196.218823 
L 305.955336 189.580454 
L 306.082179 206.099642 
L 306.209022 193.131306 
L 306.272444 204.401244 
L 306.335865 204.09255 
L 306.462708 192.51392 
L 306.652973 198.688954 
L 306.779816 191.124508 
L 306.906659 220.302751 
L 307.160345 190.969867 
L 307.287187 214.899448 
L 307.350609 201.313726 
L 307.477452 234.660499 
L 307.540873 223.390562 
L 307.794559 182.633394 
L 307.857981 184.022806 
L 307.984824 203.320524 
L 308.111667 196.682156 
L 308.23851 206.253989 
L 308.619039 192.205227 
L 308.745881 207.180068 
L 308.872724 181.552674 
L 308.936146 191.27856 
L 309.189832 222.927522 
L 309.253253 164.570448 
L 309.316675 165.033194 
L 309.506939 144.654756 
L 309.570361 146.507502 
L 309.697204 163.180448 
L 309.760625 162.100317 
L 309.824047 162.40901 
L 310.077733 188.345095 
L 310.267997 173.370255 
L 310.331418 156.079335 
L 310.39484 158.703518 
L 310.458261 165.95986 
L 310.711947 146.816195 
L 310.775369 143.574037 
L 310.83879 144.654756 
L 310.902212 145.426782 
L 311.029055 152.065151 
L 311.092476 150.521098 
L 311.219319 154.071949 
L 311.346162 146.816195 
L 311.536427 158.240185 
L 311.663269 163.335089 
L 311.790112 152.373843 
L 311.853534 145.426782 
L 311.980377 169.973456 
L 312.10722 143.110704 
L 312.234063 158.394825 
L 312.360906 140.023187 
L 312.55117 148.050967 
L 312.741435 159.475544 
L 312.868278 185.257578 
L 312.931699 179.236596 
L 312.99512 167.966658 
L 313.058542 169.973456 
L 313.121963 176.303131 
L 313.692757 87.532453 
L 313.8196 127.826582 
L 313.883021 126.283118 
L 314.073286 104.978014 
L 314.136707 98.802392 
L 314.644079 163.952474 
L 314.770922 155.46136 
L 314.834343 156.69672 
L 314.897765 158.086133 
L 314.961186 163.952474 
L 315.024608 161.019597 
L 315.088029 148.359659 
L 315.151451 153.14587 
L 315.214872 168.275352 
L 315.278294 162.563062 
L 315.468558 140.795213 
L 315.53198 143.574037 
L 315.658823 167.657965 
L 315.722244 165.187834 
L 315.785666 162.563062 
L 315.97593 182.01542 
L 316.039351 176.149079 
L 316.166194 139.868546 
L 316.229616 142.802011 
L 316.293037 158.858159 
L 316.356459 156.850773 
L 316.610145 130.760047 
L 316.673566 140.331879 
L 316.736988 139.09652 
L 316.863831 112.697101 
L 316.990674 131.377432 
L 317.117517 104.823374 
L 317.180938 114.858539 
L 317.24436 133.075538 
L 317.307781 129.215994 
L 317.434624 214.899448 
L 317.624888 247.628837 
L 317.68831 234.351807 
L 317.751731 244.077986 
L 317.815153 260.905866 
L 317.878574 250.562008 
L 317.941996 236.049912 
L 318.005417 245.467399 
L 318.13226 272.021457 
L 318.259103 235.27818 
L 318.322525 246.393771 
L 318.385946 253.341126 
L 318.512789 243.769293 
L 318.639632 257.200669 
L 318.703054 250.562008 
L 318.766475 229.257198 
L 318.829896 229.874583 
L 318.956739 269.39698 
L 319.147004 254.884884 
L 319.464111 217.986966 
L 319.527533 217.986966 
L 319.590954 219.994058 
L 319.717797 241.762201 
L 319.781219 221.537816 
L 319.84464 223.081869 
L 319.908062 241.453509 
L 319.971483 239.600762 
L 320.034905 234.351807 
L 320.161748 245.467399 
L 320.28859 220.611738 
L 320.352012 222.00115 
L 320.478855 213.35569 
L 320.542276 217.678273 
L 320.605698 221.229124 
L 320.859384 176.766464 
L 320.922805 170.745482 
L 321.049648 228.948504 
L 321.11307 226.941413 
L 321.176491 213.20105 
L 321.303334 244.541026 
L 321.430177 187.88235 
L 321.493599 193.748691 
L 321.55702 212.120624 
L 321.620441 208.106441 
L 321.747284 179.236596 
L 322.191235 231.727329 
L 322.508342 180.471956 
L 322.571764 180.317316 
L 322.762028 174.913719 
L 322.888871 142.956651 
L 322.952293 147.124888 
L 323.015714 149.749072 
L 323.2694 119.644162 
L 323.396243 106.521478 
L 323.459664 110.535662 
L 323.523086 105.286706 
L 323.649929 142.029985 
L 323.71335 135.082924 
L 323.776772 119.798802 
L 323.840193 126.59181 
L 323.903615 131.532073 
L 323.967036 126.128478 
L 324.093879 146.816195 
L 324.157301 141.566651 
L 324.220722 124.739065 
L 324.284144 127.672529 
L 324.410987 146.044169 
L 324.474408 141.412598 
L 324.728094 173.98764 
L 324.791515 169.708862 
L 325.172044 144.037371 
L 325.298887 94.942848 
L 325.362309 59.125648 
L 325.42573 61.441727 
L 325.615995 193.748691 
L 325.679416 202.085458 
L 325.869681 182.324113 
L 325.933102 184.176859 
L 326.123366 224.625627 
L 326.186788 219.222032 
L 326.377052 169.664763 
L 326.503895 192.050586 
L 326.630738 139.559853 
L 326.947846 201.159086 
L 327.011267 203.166178 
L 327.074689 198.843594 
L 327.264953 138.942468 
L 327.391796 145.117502 
L 327.455217 142.029985 
L 327.58206 127.209197 
L 327.645482 135.082924 
L 327.708903 131.377432 
L 327.772325 136.472336 
L 327.899168 174.142281 
L 328.152854 125.511091 
L 328.343118 182.478753 
L 328.40654 165.650579 
L 328.469961 161.636983 
L 328.596804 190.661174 
L 328.723647 161.791036 
L 328.977333 197.762875 
L 329.167597 209.804839 
L 329.29444 182.324113 
L 329.421283 209.18716 
L 329.484705 196.836502 
L 329.548126 200.850393 
L 329.611548 214.281769 
L 329.674969 207.797747 
L 329.738391 195.292744 
L 329.801812 197.145196 
L 329.865234 197.453888 
L 329.992077 177.847184 
L 330.055498 182.01542 
L 330.11892 178.773263 
L 330.182341 169.20143 
L 330.245762 172.752281 
L 330.372605 193.131306 
L 330.436027 191.587253 
L 330.499448 190.661174 
L 330.689713 164.415807 
L 330.816556 182.01542 
L 331.00682 137.089722 
L 331.197085 163.798422 
L 331.260506 160.247572 
L 331.450771 167.812018 
L 331.577614 235.432526 
L 331.641035 231.881675 
L 331.831299 182.478753 
L 331.894721 172.134895 
L 331.958142 174.759666 
L 332.021564 174.759666 
L 332.084985 172.134895 
L 332.211828 142.493318 
L 332.27525 161.636983 
L 332.465514 276.96172 
L 332.846043 202.703138 
L 332.972886 135.391616 
L 333.036308 145.272143 
L 333.099729 142.956651 
L 333.16315 134.61959 
L 333.480258 190.043788 
L 333.543679 203.783857 
L 333.607101 123.812986 
L 333.670522 126.283118 
L 333.733944 125.665144 
L 333.797365 123.04096 
L 333.924208 143.72809 
L 334.051051 158.858159 
L 334.241316 121.496907 
L 334.304737 128.289915 
L 334.368159 129.215994 
L 334.43158 127.826582 
L 334.558423 134.310897 
L 334.685266 154.380641 
L 334.812109 142.956651 
L 334.938952 146.507502 
L 335.002373 145.889528 
L 335.446324 107.602198 
L 335.573167 147.587633 
L 335.636588 144.037371 
L 335.763431 144.96345 
L 335.890274 124.584424 
L 335.953696 129.215994 
L 336.017117 128.135274 
L 336.270803 107.293504 
L 336.334224 108.528864 
L 336.461067 126.128478 
L 336.524489 113.932461 
L 336.58791 118.40939 
L 336.651332 123.967039 
L 336.778175 114.086514 
L 337.031861 138.787827 
L 337.158704 120.879521 
L 337.285547 136.472336 
L 337.412389 119.026776 
L 337.475811 123.503705 
L 337.539232 129.524687 
L 337.666075 121.342854 
L 337.792918 127.826582 
L 337.85634 126.128478 
L 337.919761 126.900504 
L 338.110026 130.451354 
L 338.236869 124.121679 
L 338.363712 136.009003 
L 338.490555 125.511091 
L 338.553976 130.142661 
L 338.617398 138.942468 
L 338.680819 134.61959 
L 338.744241 123.503705 
L 338.807662 128.444555 
L 338.997926 153.299922 
L 339.061348 152.065151 
L 339.124769 145.117502 
L 339.188191 145.580835 
L 339.441877 169.973456 
L 339.632141 146.816195 
L 339.758984 137.861748 
L 340.01267 164.261167 
L 340.076092 160.401623 
L 340.139513 161.482342 
L 340.202935 166.422605 
L 340.393199 133.384818 
L 340.45662 139.714494 
L 340.520042 137.707108 
L 340.583463 140.331879 
L 340.773728 166.113913 
L 340.837149 167.04058 
L 341.027414 143.574037 
L 341.090835 146.661554 
L 341.2811 168.738684 
L 341.344521 161.945676 
L 341.407943 159.938878 
L 341.534786 167.657965 
L 341.661629 161.482342 
L 341.72505 184.022806 
L 341.788471 183.09614 
L 341.851893 184.022806 
L 342.042157 213.973076 
L 342.105579 207.025721 
L 342.169 198.534607 
L 342.232422 205.790655 
L 342.295843 201.468073 
L 342.422686 183.25078 
L 342.612951 195.292744 
L 342.676372 197.608528 
L 342.739794 196.990849 
L 342.866637 188.963069 
L 342.99348 183.713525 
L 343.056901 184.640192 
L 343.120323 182.324113 
L 343.247165 164.107115 
L 343.310587 164.879141 
L 343.374008 167.657965 
L 343.564273 162.871755 
L 343.691116 172.598228 
L 343.817959 165.341886 
L 343.944802 183.713525 
L 344.071645 163.026396 
L 344.135066 165.187834 
L 344.261909 179.236596 
L 344.325331 176.766464 
L 344.388752 177.38385 
L 344.515595 162.100317 
L 344.642438 179.236596 
L 344.705859 161.17365 
L 344.769281 164.7245 
L 344.832702 173.215614 
L 344.896124 165.033194 
L 344.959545 169.047378 
L 345.022967 181.552674 
L 345.086388 174.296334 
L 345.213231 153.917896 
L 345.403496 170.900123 
L 345.466917 165.187834 
L 345.530339 165.341886 
L 345.59376 169.20143 
L 345.657182 163.489728 
L 345.720603 164.415807 
L 345.784025 175.222413 
L 345.847446 173.524307 
L 345.910868 163.643781 
L 345.974289 164.415807 
L 346.164553 193.903332 
L 346.291396 181.861368 
L 346.481661 163.180448 
L 346.545082 165.95986 
L 346.671925 185.874964 
L 346.798768 171.517508 
L 346.86219 180.163263 
L 346.925611 176.766464 
L 347.052454 162.871755 
L 347.242719 171.671561 
L 347.369562 158.858159 
L 347.496404 195.601436 
L 347.623247 159.784238 
L 347.686669 163.180448 
L 347.75009 165.650579 
L 347.876933 182.324113 
L 347.940355 175.685745 
L 348.067198 205.018923 
L 348.130619 203.166178 
L 348.384305 157.468746 
L 348.447727 158.549466 
L 348.637991 173.678947 
L 348.701413 173.833 
L 348.891677 191.124508 
L 349.01852 169.819404 
L 349.081941 173.678947 
L 349.145363 172.289536 
L 349.208784 165.80522 
L 349.335627 191.27856 
L 349.46247 162.100317 
L 349.716156 203.320524 
L 349.779578 201.776765 
L 349.906421 166.113913 
L 350.160107 157.005414 
L 350.28695 167.04058 
L 350.350371 164.261167 
L 350.413792 161.791036 
L 350.794321 186.492938 
L 351.111429 146.198221 
L 351.17485 140.177239 
L 351.238272 148.359659 
L 351.301693 143.88273 
L 351.365115 131.686126 
L 351.428536 134.774231 
L 351.618801 149.440378 
L 351.682222 144.346064 
L 351.809065 160.556264 
L 351.872486 154.380641 
L 351.935908 146.198221 
L 352.253015 177.229798 
L 352.44328 146.044169 
L 352.570123 168.892737 
L 352.696966 138.942468 
L 352.823809 150.984432 
L 352.950652 127.517889 
L 353.140916 145.272143 
L 353.204337 143.72809 
L 353.267759 145.272143 
L 353.458023 163.489728 
L 353.648288 154.22659 
L 353.711709 162.25437 
L 353.775131 160.556264 
L 354.282503 53.568 
L 354.345924 64.529245 
L 354.472767 93.398795 
L 354.59961 69.006174 
L 354.663031 69.160814 
L 354.726453 63.757219 
L 354.980139 92.93605 
L 355.233825 138.170442 
L 355.297246 134.61959 
L 355.360668 129.370634 
L 355.614354 151.601817 
L 355.741197 137.244363 
L 355.86804 147.742274 
L 356.058304 122.268933 
L 356.121725 125.202399 
L 356.248568 149.903712 
L 356.375411 137.861748 
L 356.502254 148.977633 
L 356.565676 148.5143 
L 356.692519 128.598608 
L 356.75594 116.865338 
L 356.819362 123.967039 
L 356.946205 150.212406 
L 357.073048 137.089722 
L 357.199891 103.433961 
L 357.326734 120.724881 
L 357.453577 81.048138 
L 357.580419 110.072328 
L 357.707262 98.030364 
L 357.834105 110.844356 
L 357.897527 109.146251 
L 358.02437 227.558798 
L 358.151213 269.242633 
L 358.214634 268.161914 
L 358.278056 250.407661 
L 358.341477 260.288481 
L 358.404899 277.425054 
L 358.46832 266.926848 
L 358.531742 253.032433 
L 358.595163 260.751519 
L 358.658585 276.498681 
L 358.722006 276.344335 
L 358.848849 241.916547 
L 358.975692 265.074397 
L 359.039113 257.818349 
L 359.102535 261.060213 
L 359.229378 275.572309 
L 359.419642 242.225534 
L 359.546485 276.807373 
L 359.673328 257.355016 
L 359.73675 257.663708 
L 360.117279 232.499062 
L 360.1807 236.358899 
L 360.244122 251.179687 
L 360.307543 249.790275 
L 360.370964 228.176479 
L 360.434386 232.499062 
L 360.497807 253.186779 
L 360.561229 250.716648 
L 360.62465 241.299162 
L 360.751493 253.958511 
L 360.878336 230.18357 
L 360.941758 232.808048 
L 361.005179 233.888767 
L 361.068601 227.404453 
L 361.132022 229.565891 
L 361.195444 234.660499 
L 361.44913 193.439999 
L 361.512551 190.661174 
L 361.639394 240.681481 
L 361.702816 233.425435 
L 361.766237 219.839711 
L 361.89308 253.341126 
L 362.019923 197.299542 
L 362.083344 202.548792 
L 362.146766 225.243014 
L 362.210187 217.36958 
L 362.33703 192.667972 
L 362.400452 202.394152 
L 362.463873 200.696046 
L 362.527295 203.62951 
L 362.780981 249.018249 
L 362.907824 220.766084 
L 362.971245 222.772882 
L 363.224931 185.720911 
L 363.288352 184.794245 
L 363.351774 189.425814 
L 363.478617 155.770054 
L 363.542038 165.95986 
L 363.60546 169.664763 
L 363.922567 121.651547 
L 364.04941 131.532073 
L 364.112832 124.584424 
L 364.239675 157.314107 
L 364.303096 155.924694 
L 364.429939 142.956651 
L 364.683625 158.240185 
L 364.747046 154.998615 
L 364.810468 147.43358 
L 364.873889 152.065151 
L 365.000732 164.415807 
L 365.064154 162.100317 
L 365.31784 197.453888 
L 365.381261 191.697794 
L 365.825212 142.956651 
L 366.015476 85.9884 
L 366.20574 185.720911 
L 366.269162 184.022806 
L 366.459426 171.517508 
L 366.522848 172.289536 
L 366.713112 205.481963 
L 366.776534 200.541699 
L 366.966798 155.307309 
L 367.093641 167.966658 
L 367.220484 114.395206 
L 367.283906 124.739065 
L 367.537592 169.973456 
L 367.601013 169.819404 
L 367.664434 164.570448 
L 367.854699 99.883111 
L 367.91812 106.676119 
L 367.981542 113.314486 
L 368.108385 85.216962 
L 368.171806 86.915068 
L 368.235228 101.118471 
L 368.298649 99.883111 
L 368.362071 103.279908 
L 368.488914 144.037371 
L 368.7426 95.869515 
L 368.806021 108.220172 
L 368.932864 150.212406 
L 369.059707 120.879521 
L 369.18655 154.071949 
L 369.313393 136.935669 
L 369.757343 188.499735 
L 369.884186 163.489728 
L 370.011029 186.955683 
L 370.074451 174.913719 
L 370.137872 176.921105 
L 370.201294 190.352482 
L 370.264715 188.963069 
L 370.581822 157.622799 
L 370.708665 160.864957 
L 370.835508 156.079335 
L 371.025773 188.499735 
L 371.34288 152.682536 
L 371.406302 165.187834 
L 371.469723 160.401623 
L 371.596566 125.511091 
L 371.723409 159.629597 
L 371.786831 157.314107 
L 371.850252 155.616001 
L 371.977095 165.033194 
L 372.040516 156.69672 
L 372.103938 171.980842 
L 372.230781 223.544909 
L 372.484467 157.314107 
L 372.547888 157.77744 
L 372.674731 162.100317 
L 372.801574 125.35645 
L 372.864996 139.4058 
L 372.991839 249.326942 
L 373.05526 245.004359 
L 373.245525 217.678273 
L 373.435789 172.443587 
L 373.562632 113.314486 
L 373.626053 123.349652 
L 373.689475 119.026776 
L 373.752896 114.395206 
L 373.879739 148.977633 
L 373.943161 148.359659 
L 374.006582 146.352861 
L 374.133425 177.229798 
L 374.260268 141.412598 
L 374.32369 140.640572 
L 374.387111 137.861748 
L 374.577376 169.664763 
L 374.640797 163.798422 
L 374.831061 134.465537 
L 375.021326 146.661554 
L 375.084747 148.822993 
L 375.148169 144.500116 
L 375.21159 148.668352 
L 375.275012 160.710317 
L 375.338433 157.622799 
L 375.465276 146.352861 
L 375.655541 142.338677 
L 375.782384 127.826582 
L 375.845805 141.257958 
L 375.909227 136.163643 
L 375.972648 119.026776 
L 376.03607 122.114292 
L 376.162913 146.352861 
L 376.226334 144.96345 
L 376.353177 142.802011 
L 376.48002 131.223381 
L 376.606863 140.640572 
L 376.733706 124.893705 
L 376.797127 127.363836 
L 376.92397 117.17403 
L 377.050813 131.06874 
L 377.114235 129.833968 
L 377.241078 133.693512 
L 377.367921 125.35645 
L 377.494764 139.559853 
L 377.558185 149.595019 
L 377.621606 147.742274 
L 377.748449 129.524687 
L 377.875292 145.580835 
L 377.938714 138.170442 
L 378.002135 121.033574 
L 378.065557 125.35645 
L 378.128978 141.412598 
L 378.1924 139.251161 
L 378.319243 128.289915 
L 378.446086 129.679328 
L 378.509507 129.215994 
L 378.572929 128.135274 
L 378.699772 132.3041 
L 378.826615 123.967039 
L 378.953458 129.370634 
L 379.016879 127.209197 
L 379.143722 119.953443 
L 379.207143 127.826582 
L 379.270565 122.268933 
L 379.333986 106.830759 
L 379.397408 109.146251 
L 379.587672 137.398414 
L 379.714515 127.517889 
L 379.841358 134.465537 
L 379.90478 133.384818 
L 380.031623 151.138484 
L 380.285309 125.047758 
L 380.34873 128.598608 
L 380.475573 145.735476 
L 380.538994 145.426782 
L 380.602416 149.131686 
L 380.729259 143.419396 
L 380.79268 152.373843 
L 381.109788 111.925075 
L 381.426895 151.447764 
L 381.553738 125.511091 
L 381.61716 125.665144 
L 381.744003 124.121679 
L 381.870846 143.574037 
L 381.934267 132.612792 
L 381.997688 138.942468 
L 382.06111 140.949266 
L 382.124531 129.988021 
L 382.187953 132.458152 
L 382.251374 140.023187 
L 382.314796 169.664763 
L 382.378217 157.314107 
L 382.441639 158.394825 
L 382.631903 186.184245 
L 382.695325 183.09614 
L 382.758746 183.713525 
L 382.822168 190.043788 
L 382.949011 163.798422 
L 383.012432 169.664763 
L 383.075854 172.134895 
L 383.139275 162.717702 
L 383.202697 165.033194 
L 383.266118 169.664763 
L 383.32954 167.04058 
L 383.392961 168.429992 
L 383.456382 165.187834 
L 383.519804 155.46136 
L 383.583225 157.77744 
L 383.646647 165.95986 
L 383.836911 145.889528 
L 384.027176 157.468746 
L 384.090597 158.549466 
L 384.154019 154.843975 
L 384.280862 170.282149 
L 384.407705 157.468746 
L 384.597969 168.275352 
L 384.724812 154.22659 
L 384.851655 170.282149 
L 385.041919 161.791036 
L 385.105341 163.489728 
L 385.168762 174.450974 
L 385.232184 171.826202 
L 385.295605 157.468746 
L 385.359027 158.549466 
L 385.422448 166.113913 
L 385.48587 164.879141 
L 385.549291 162.717702 
L 385.676134 168.275352 
L 385.802977 141.412598 
L 385.866399 144.346064 
L 385.993242 166.268554 
L 386.056663 161.328291 
L 386.120085 164.261167 
L 386.183506 167.657965 
L 386.246927 161.482342 
L 386.310349 165.341886 
L 386.437192 184.794245 
L 386.564035 176.303131 
L 386.754299 199.615327 
L 386.817721 198.071568 
L 387.134828 158.549466 
L 387.261671 179.236596 
L 387.325093 170.436789 
L 387.388514 171.671561 
L 387.451936 178.464569 
L 387.578779 159.784238 
L 387.6422 163.952474 
L 387.705621 165.187834 
L 387.769043 164.7245 
L 387.832464 170.128097 
L 387.959307 155.770054 
L 388.08615 196.218823 
L 388.212993 165.95986 
L 388.276415 166.113913 
L 388.339836 167.349273 
L 388.466679 185.874964 
L 388.530101 173.370255 
L 388.656944 202.394152 
L 388.720365 191.433201 
L 388.974051 154.535282 
L 389.037473 157.005414 
L 389.164315 175.222413 
L 389.291158 161.945676 
L 389.418001 180.934701 
L 389.608266 161.945676 
L 389.671687 165.187834 
L 389.735109 163.952474 
L 389.79853 158.549466 
L 389.925373 173.370255 
L 389.988795 165.496526 
L 390.052216 152.682536 
L 390.115638 158.240185 
L 390.305902 185.257578 
L 390.369324 184.640192 
L 390.496167 164.415807 
L 390.623009 161.019597 
L 390.749852 140.177239 
L 390.876695 160.247572 
L 390.940117 145.889528 
L 391.003538 151.293125 
L 391.06696 169.356071 
L 391.130381 168.584044 
L 391.193803 168.892737 
L 391.320646 178.310518 
L 391.447489 165.496526 
L 391.574332 145.889528 
L 391.637753 146.198221 
L 391.764596 141.412598 
L 391.828018 144.346064 
L 391.954861 136.163643 
L 392.145125 148.668352 
L 392.208546 148.050967 
L 392.271968 145.426782 
L 392.398811 164.261167 
L 392.525654 146.816195 
L 392.715918 167.503324 
L 392.842761 184.022806 
L 393.033026 167.194632 
L 393.159869 183.404832 
L 393.286712 158.703518 
L 393.350133 177.692543 
L 393.413554 173.370255 
L 393.540397 153.917896 
L 393.730662 165.341886 
L 393.794083 165.341886 
L 393.857505 166.577246 
L 394.047769 190.661174 
L 394.364877 174.759666 
L 394.681984 104.051346 
L 394.745406 113.469127 
L 394.808827 106.058733 
L 394.872248 84.136244 
L 394.93567 94.016769 
L 394.999091 115.321872 
L 395.062513 114.858539 
L 395.252777 90.774611 
L 395.316199 85.834349 
L 395.37962 87.687094 
L 395.886992 169.973456 
L 395.950414 161.328291 
L 396.013835 157.77744 
L 396.140678 168.121299 
L 396.2041 167.04058 
L 396.267521 162.563062 
L 396.330942 165.496526 
L 396.394364 167.812018 
L 396.584628 159.166852 
L 396.711471 141.875932 
L 396.838314 174.759666 
L 396.965157 165.650579 
L 397.155422 189.425814 
L 397.218843 180.471956 
L 397.345686 140.795213 
L 397.472529 170.282149 
L 397.535951 169.20143 
L 397.599372 169.664763 
L 397.662794 165.341886 
L 397.789636 140.023187 
L 397.916479 151.601817 
L 398.043322 125.974425 
L 398.170165 152.219203 
L 398.297008 132.766845 
L 398.423851 149.286327 
L 398.487273 146.816195 
" clip-path="url(#p805068756d)" style="fill: none; stroke: #1f77b4; stroke-width: 1.5; stroke-linecap: square"/>
   </g>
   <g id="patch_3">
    <path d="M 57.6 307.584 
L 57.6 41.472 
" style="fill: none; stroke: #000000; stroke-width: 0.8; stroke-linejoin: miter; stroke-linecap: square"/>
   </g>
   <g id="patch_4">
    <path d="M 414.72 307.584 
L 414.72 41.472 
" style="fill: none; stroke: #000000; stroke-width: 0.8; stroke-linejoin: miter; stroke-linecap: square"/>
   </g>
   <g id="patch_5">
    <path d="M 57.6 307.584 
L 414.72 307.584 
" style="fill: none; stroke: #000000; stroke-width: 0.8; stroke-linejoin: miter; stroke-linecap: square"/>
   </g>
   <g id="patch_6">
    <path d="M 57.6 41.472 
L 414.72 41.472 
" style="fill: none; stroke: #000000; stroke-width: 0.8; stroke-linejoin: miter; stroke-linecap: square"/>
   </g>
   <g id="legend_1">
    <g id="patch_7">
     <path d="M 64.6 64.150125 
L 118.245312 64.150125 
Q 120.245312 64.150125 120.245312 62.150125 
L 120.245312 48.472 
Q 120.245312 46.472 118.245312 46.472 
L 64.6 46.472 
Q 62.6 46.472 62.6 48.472 
L 62.6 62.150125 
Q 62.6 64.150125 64.6 64.150125 
z
" style="fill: #ffffff; opacity: 0.8; stroke: #cccccc; stroke-linejoin: miter"/>
    </g>
    <g id="line2d_16">
     <path d="M 66.6 54.570438 
L 76.6 54.570438 
L 86.6 54.570438 
" style="fill: none; stroke: #1f77b4; stroke-width: 1.5; stroke-linecap: square"/>
    </g>
    <g id="text_15">
     <!-- set2 -->
     <g transform="translate(94.6 58.070438)scale(0.1 -0.1)">
      <defs>
       <path id="DejaVuSans-73" d="M 2834 3397 
L 2834 2853 
Q 2591 2978 2328 3040 
Q 2066 3103 1784 3103 
Q 1356 3103 1142 2972 
Q 928 2841 928 2578 
Q 928 2378 1081 2264 
Q 1234 2150 1697 2047 
L 1894 2003 
Q 2506 1872 2764 1633 
Q 3022 1394 3022 966 
Q 3022 478 2636 193 
Q 2250 -91 1575 -91 
Q 1294 -91 989 -36 
Q 684 19 347 128 
L 347 722 
Q 666 556 975 473 
Q 1284 391 1588 391 
Q 1994 391 2212 530 
Q 2431 669 2431 922 
Q 2431 1156 2273 1281 
Q 2116 1406 1581 1522 
L 1381 1569 
Q 847 1681 609 1914 
Q 372 2147 372 2553 
Q 372 3047 722 3315 
Q 1072 3584 1716 3584 
Q 2034 3584 2315 3537 
Q 2597 3491 2834 3397 
z
" transform="scale(0.015625)"/>
       <path id="DejaVuSans-65" d="M 3597 1894 
L 3597 1613 
L 953 1613 
Q 991 1019 1311 708 
Q 1631 397 2203 397 
Q 2534 397 2845 478 
Q 3156 559 3463 722 
L 3463 178 
Q 3153 47 2828 -22 
Q 2503 -91 2169 -91 
Q 1331 -91 842 396 
Q 353 884 353 1716 
Q 353 2575 817 3079 
Q 1281 3584 2069 3584 
Q 2775 3584 3186 3129 
Q 3597 2675 3597 1894 
z
M 3022 2063 
Q 3016 2534 2758 2815 
Q 2500 3097 2075 3097 
Q 1594 3097 1305 2825 
Q 1016 2553 972 2059 
L 3022 2063 
z
" transform="scale(0.015625)"/>
       <path id="DejaVuSans-74" d="M 1172 4494 
L 1172 3500 
L 2356 3500 
L 2356 3053 
L 1172 3053 
L 1172 1153 
Q 1172 725 1289 603 
Q 1406 481 1766 481 
L 2356 481 
L 2356 0 
L 1766 0 
Q 1100 0 847 248 
Q 594 497 594 1153 
L 594 3053 
L 172 3053 
L 172 3500 
L 594 3500 
L 594 4494 
L 1172 4494 
z
" transform="scale(0.015625)"/>
      </defs>
      <use xlink:href="#DejaVuSans-73"/>
      <use xlink:href="#DejaVuSans-65" x="52.099609"/>
      <use xlink:href="#DejaVuSans-74" x="113.623047"/>
      <use xlink:href="#DejaVuSans-32" x="152.832031"/>
     </g>
    </g>
   </g>
  </g>
 </g>
 <defs>
  <clipPath id="p805068756d">
   <rect x="57.6" y="41.472" width="357.12" height="266.112"/>
  </clipPath>
 </defs>
</svg>
