<?xml version="1.0" encoding="utf-8" standalone="no"?>
<!DOCTYPE svg PUBLIC "-//W3C//DTD SVG 1.1//EN"
  "http://www.w3.org/Graphics/SVG/1.1/DTD/svg11.dtd">
<svg xmlns:xlink="http://www.w3.org/1999/xlink" width="460.8pt" height="345.6pt" viewBox="0 0 460.8 345.6" xmlns="http://www.w3.org/2000/svg" version="1.1">
 <metadata>
  <rdf:RDF xmlns:dc="http://purl.org/dc/elements/1.1/" xmlns:cc="http://creativecommons.org/ns#" xmlns:rdf="http://www.w3.org/1999/02/22-rdf-syntax-ns#">
   <cc:Work>
    <dc:type rdf:resource="http://purl.org/dc/dcmitype/StillImage"/>
    <dc:date>2022-08-11T15:19:00.790671</dc:date>
    <dc:format>image/svg+xml</dc:format>
    <dc:creator>
     <cc:Agent>
      <dc:title>Matplotlib v3.5.2, https://matplotlib.org/</dc:title>
     </cc:Agent>
    </dc:creator>
   </cc:Work>
  </rdf:RDF>
 </metadata>
 <defs>
  <style type="text/css">*{stroke-linejoin: round; stroke-linecap: butt}</style>
 </defs>
 <g id="figure_1">
  <g id="patch_1">
   <path d="M 0 345.6 
L 460.8 345.6 
L 460.8 0 
L 0 0 
z
" style="fill: #ffffff"/>
  </g>
  <g id="axes_1">
   <g id="patch_2">
    <path d="M 57.6 307.584 
L 414.72 307.584 
L 414.72 41.472 
L 57.6 41.472 
z
" style="fill: #ffffff"/>
   </g>
   <g id="matplotlib.axis_1">
    <g id="xtick_1">
     <g id="line2d_1">
      <defs>
       <path id="mb9aa7809db" d="M 0 0 
L 0 3.5 
" style="stroke: #000000; stroke-width: 0.8"/>
      </defs>
      <g>
       <use xlink:href="#mb9aa7809db" x="73.832727" y="307.584" style="stroke: #000000; stroke-width: 0.8"/>
      </g>
     </g>
     <g id="text_1">
      <!-- 0 -->
      <g transform="translate(70.651477 322.182437)scale(0.1 -0.1)">
       <defs>
        <path id="DejaVuSans-30" d="M 2034 4250 
Q 1547 4250 1301 3770 
Q 1056 3291 1056 2328 
Q 1056 1369 1301 889 
Q 1547 409 2034 409 
Q 2525 409 2770 889 
Q 3016 1369 3016 2328 
Q 3016 3291 2770 3770 
Q 2525 4250 2034 4250 
z
M 2034 4750 
Q 2819 4750 3233 4129 
Q 3647 3509 3647 2328 
Q 3647 1150 3233 529 
Q 2819 -91 2034 -91 
Q 1250 -91 836 529 
Q 422 1150 422 2328 
Q 422 3509 836 4129 
Q 1250 4750 2034 4750 
z
" transform="scale(0.015625)"/>
       </defs>
       <use xlink:href="#DejaVuSans-30"/>
      </g>
     </g>
    </g>
    <g id="xtick_2">
     <g id="line2d_2">
      <g>
       <use xlink:href="#mb9aa7809db" x="137.254205" y="307.584" style="stroke: #000000; stroke-width: 0.8"/>
      </g>
     </g>
     <g id="text_2">
      <!-- 1000 -->
      <g transform="translate(124.529205 322.182437)scale(0.1 -0.1)">
       <defs>
        <path id="DejaVuSans-31" d="M 794 531 
L 1825 531 
L 1825 4091 
L 703 3866 
L 703 4441 
L 1819 4666 
L 2450 4666 
L 2450 531 
L 3481 531 
L 3481 0 
L 794 0 
L 794 531 
z
" transform="scale(0.015625)"/>
       </defs>
       <use xlink:href="#DejaVuSans-31"/>
       <use xlink:href="#DejaVuSans-30" x="63.623047"/>
       <use xlink:href="#DejaVuSans-30" x="127.246094"/>
       <use xlink:href="#DejaVuSans-30" x="190.869141"/>
      </g>
     </g>
    </g>
    <g id="xtick_3">
     <g id="line2d_3">
      <g>
       <use xlink:href="#mb9aa7809db" x="200.675683" y="307.584" style="stroke: #000000; stroke-width: 0.8"/>
      </g>
     </g>
     <g id="text_3">
      <!-- 2000 -->
      <g transform="translate(187.950683 322.182437)scale(0.1 -0.1)">
       <defs>
        <path id="DejaVuSans-32" d="M 1228 531 
L 3431 531 
L 3431 0 
L 469 0 
L 469 531 
Q 828 903 1448 1529 
Q 2069 2156 2228 2338 
Q 2531 2678 2651 2914 
Q 2772 3150 2772 3378 
Q 2772 3750 2511 3984 
Q 2250 4219 1831 4219 
Q 1534 4219 1204 4116 
Q 875 4013 500 3803 
L 500 4441 
Q 881 4594 1212 4672 
Q 1544 4750 1819 4750 
Q 2544 4750 2975 4387 
Q 3406 4025 3406 3419 
Q 3406 3131 3298 2873 
Q 3191 2616 2906 2266 
Q 2828 2175 2409 1742 
Q 1991 1309 1228 531 
z
" transform="scale(0.015625)"/>
       </defs>
       <use xlink:href="#DejaVuSans-32"/>
       <use xlink:href="#DejaVuSans-30" x="63.623047"/>
       <use xlink:href="#DejaVuSans-30" x="127.246094"/>
       <use xlink:href="#DejaVuSans-30" x="190.869141"/>
      </g>
     </g>
    </g>
    <g id="xtick_4">
     <g id="line2d_4">
      <g>
       <use xlink:href="#mb9aa7809db" x="264.097161" y="307.584" style="stroke: #000000; stroke-width: 0.8"/>
      </g>
     </g>
     <g id="text_4">
      <!-- 3000 -->
      <g transform="translate(251.372161 322.182437)scale(0.1 -0.1)">
       <defs>
        <path id="DejaVuSans-33" d="M 2597 2516 
Q 3050 2419 3304 2112 
Q 3559 1806 3559 1356 
Q 3559 666 3084 287 
Q 2609 -91 1734 -91 
Q 1441 -91 1130 -33 
Q 819 25 488 141 
L 488 750 
Q 750 597 1062 519 
Q 1375 441 1716 441 
Q 2309 441 2620 675 
Q 2931 909 2931 1356 
Q 2931 1769 2642 2001 
Q 2353 2234 1838 2234 
L 1294 2234 
L 1294 2753 
L 1863 2753 
Q 2328 2753 2575 2939 
Q 2822 3125 2822 3475 
Q 2822 3834 2567 4026 
Q 2313 4219 1838 4219 
Q 1578 4219 1281 4162 
Q 984 4106 628 3988 
L 628 4550 
Q 988 4650 1302 4700 
Q 1616 4750 1894 4750 
Q 2613 4750 3031 4423 
Q 3450 4097 3450 3541 
Q 3450 3153 3228 2886 
Q 3006 2619 2597 2516 
z
" transform="scale(0.015625)"/>
       </defs>
       <use xlink:href="#DejaVuSans-33"/>
       <use xlink:href="#DejaVuSans-30" x="63.623047"/>
       <use xlink:href="#DejaVuSans-30" x="127.246094"/>
       <use xlink:href="#DejaVuSans-30" x="190.869141"/>
      </g>
     </g>
    </g>
    <g id="xtick_5">
     <g id="line2d_5">
      <g>
       <use xlink:href="#mb9aa7809db" x="327.518639" y="307.584" style="stroke: #000000; stroke-width: 0.8"/>
      </g>
     </g>
     <g id="text_5">
      <!-- 4000 -->
      <g transform="translate(314.793639 322.182437)scale(0.1 -0.1)">
       <defs>
        <path id="DejaVuSans-34" d="M 2419 4116 
L 825 1625 
L 2419 1625 
L 2419 4116 
z
M 2253 4666 
L 3047 4666 
L 3047 1625 
L 3713 1625 
L 3713 1100 
L 3047 1100 
L 3047 0 
L 2419 0 
L 2419 1100 
L 313 1100 
L 313 1709 
L 2253 4666 
z
" transform="scale(0.015625)"/>
       </defs>
       <use xlink:href="#DejaVuSans-34"/>
       <use xlink:href="#DejaVuSans-30" x="63.623047"/>
       <use xlink:href="#DejaVuSans-30" x="127.246094"/>
       <use xlink:href="#DejaVuSans-30" x="190.869141"/>
      </g>
     </g>
    </g>
    <g id="xtick_6">
     <g id="line2d_6">
      <g>
       <use xlink:href="#mb9aa7809db" x="390.940117" y="307.584" style="stroke: #000000; stroke-width: 0.8"/>
      </g>
     </g>
     <g id="text_6">
      <!-- 5000 -->
      <g transform="translate(378.215117 322.182437)scale(0.1 -0.1)">
       <defs>
        <path id="DejaVuSans-35" d="M 691 4666 
L 3169 4666 
L 3169 4134 
L 1269 4134 
L 1269 2991 
Q 1406 3038 1543 3061 
Q 1681 3084 1819 3084 
Q 2600 3084 3056 2656 
Q 3513 2228 3513 1497 
Q 3513 744 3044 326 
Q 2575 -91 1722 -91 
Q 1428 -91 1123 -41 
Q 819 9 494 109 
L 494 744 
Q 775 591 1075 516 
Q 1375 441 1709 441 
Q 2250 441 2565 725 
Q 2881 1009 2881 1497 
Q 2881 1984 2565 2268 
Q 2250 2553 1709 2553 
Q 1456 2553 1204 2497 
Q 953 2441 691 2322 
L 691 4666 
z
" transform="scale(0.015625)"/>
       </defs>
       <use xlink:href="#DejaVuSans-35"/>
       <use xlink:href="#DejaVuSans-30" x="63.623047"/>
       <use xlink:href="#DejaVuSans-30" x="127.246094"/>
       <use xlink:href="#DejaVuSans-30" x="190.869141"/>
      </g>
     </g>
    </g>
   </g>
   <g id="matplotlib.axis_2">
    <g id="ytick_1">
     <g id="line2d_7">
      <defs>
       <path id="mb21d991b9b" d="M 0 0 
L -3.5 0 
" style="stroke: #000000; stroke-width: 0.8"/>
      </defs>
      <g>
       <use xlink:href="#mb21d991b9b" x="57.6" y="283.04888" style="stroke: #000000; stroke-width: 0.8"/>
      </g>
     </g>
     <g id="text_7">
      <!-- 4000 -->
      <g transform="translate(25.15 286.848098)scale(0.1 -0.1)">
       <use xlink:href="#DejaVuSans-34"/>
       <use xlink:href="#DejaVuSans-30" x="63.623047"/>
       <use xlink:href="#DejaVuSans-30" x="127.246094"/>
       <use xlink:href="#DejaVuSans-30" x="190.869141"/>
      </g>
     </g>
    </g>
    <g id="ytick_2">
     <g id="line2d_8">
      <g>
       <use xlink:href="#mb21d991b9b" x="57.6" y="227.28712" style="stroke: #000000; stroke-width: 0.8"/>
      </g>
     </g>
     <g id="text_8">
      <!-- 4050 -->
      <g transform="translate(25.15 231.086338)scale(0.1 -0.1)">
       <use xlink:href="#DejaVuSans-34"/>
       <use xlink:href="#DejaVuSans-30" x="63.623047"/>
       <use xlink:href="#DejaVuSans-35" x="127.246094"/>
       <use xlink:href="#DejaVuSans-30" x="190.869141"/>
      </g>
     </g>
    </g>
    <g id="ytick_3">
     <g id="line2d_9">
      <g>
       <use xlink:href="#mb21d991b9b" x="57.6" y="171.52536" style="stroke: #000000; stroke-width: 0.8"/>
      </g>
     </g>
     <g id="text_9">
      <!-- 4100 -->
      <g transform="translate(25.15 175.324578)scale(0.1 -0.1)">
       <use xlink:href="#DejaVuSans-34"/>
       <use xlink:href="#DejaVuSans-31" x="63.623047"/>
       <use xlink:href="#DejaVuSans-30" x="127.246094"/>
       <use xlink:href="#DejaVuSans-30" x="190.869141"/>
      </g>
     </g>
    </g>
    <g id="ytick_4">
     <g id="line2d_10">
      <g>
       <use xlink:href="#mb21d991b9b" x="57.6" y="115.7636" style="stroke: #000000; stroke-width: 0.8"/>
      </g>
     </g>
     <g id="text_10">
      <!-- 4150 -->
      <g transform="translate(25.15 119.562819)scale(0.1 -0.1)">
       <use xlink:href="#DejaVuSans-34"/>
       <use xlink:href="#DejaVuSans-31" x="63.623047"/>
       <use xlink:href="#DejaVuSans-35" x="127.246094"/>
       <use xlink:href="#DejaVuSans-30" x="190.869141"/>
      </g>
     </g>
    </g>
    <g id="ytick_5">
     <g id="line2d_11">
      <g>
       <use xlink:href="#mb21d991b9b" x="57.6" y="60.00184" style="stroke: #000000; stroke-width: 0.8"/>
      </g>
     </g>
     <g id="text_11">
      <!-- 4200 -->
      <g transform="translate(25.15 63.801059)scale(0.1 -0.1)">
       <use xlink:href="#DejaVuSans-34"/>
       <use xlink:href="#DejaVuSans-32" x="63.623047"/>
       <use xlink:href="#DejaVuSans-30" x="127.246094"/>
       <use xlink:href="#DejaVuSans-30" x="190.869141"/>
      </g>
     </g>
    </g>
   </g>
   <g id="line2d_12">
    <path d="M 73.832727 140.641839 
L 73.896149 122.76976 
L 73.95957 128.345936 
L 74.022992 144.64536 
L 74.086413 141.213615 
L 74.149835 135.780655 
L 74.213256 143.930368 
L 74.276678 143.358591 
L 74.340099 133.493008 
L 74.403521 138.354192 
L 74.466942 145.64624 
L 74.593785 135.351552 
L 74.720628 149.64976 
L 74.784049 145.932128 
L 74.847471 147.790671 
L 74.910892 148.64888 
L 75.037735 147.362112 
L 75.101157 147.790671 
L 75.164578 151.794191 
L 75.228 149.506544 
L 75.291421 140.641839 
L 75.354843 141.928608 
L 75.418264 146.64712 
L 75.545107 138.21152 
L 75.67195 149.935648 
L 75.798793 129.2036 
L 75.925636 143.215375 
L 75.989058 142.786816 
L 76.052479 142.786816 
L 76.306165 148.219776 
L 76.369586 148.934767 
L 76.496429 140.641839 
L 76.559851 146.789791 
L 76.686694 131.634464 
L 76.750115 136.352432 
L 76.876958 156.0836 
L 76.94038 154.510943 
L 77.130644 132.635344 
L 77.320909 147.076223 
L 77.38433 147.218896 
L 77.447752 148.64888 
L 77.574594 140.355952 
L 77.764859 148.219776 
L 77.891702 144.64536 
L 77.955123 146.218015 
L 78.081966 142.6436 
L 78.145388 148.362992 
L 78.208809 148.219776 
L 78.272231 149.363872 
L 78.335652 158.943023 
L 78.399074 154.940048 
L 78.462495 145.788912 
L 78.525917 152.652399 
L 78.589338 154.225056 
L 78.65276 146.789791 
L 78.716181 147.362112 
L 78.779603 147.076223 
L 78.843024 147.648 
L 78.906446 157.370367 
L 78.969867 155.225936 
L 79.033288 145.217135 
L 79.160131 161.230672 
L 79.223553 156.798592 
L 79.350396 166.806848 
L 79.477239 157.656256 
L 79.54066 159.372128 
L 79.667503 146.789791 
L 79.730925 149.220656 
L 79.794346 145.932128 
L 80.111454 173.098015 
L 80.238297 160.087119 
L 80.301718 166.806848 
L 80.365139 165.09152 
L 80.428561 159.515344 
L 80.555404 167.807728 
L 80.618825 161.945663 
L 80.682247 165.377408 
L 80.745668 167.235952 
L 80.872511 157.513584 
L 80.999354 160.516224 
L 81.062776 167.950944 
L 81.126197 165.520079 
L 81.189619 154.940048 
L 81.25304 155.940928 
L 81.316462 156.941264 
L 81.443305 146.789791 
L 81.506726 150.07832 
L 81.633569 145.217135 
L 81.696991 146.64712 
L 81.823833 156.655376 
L 81.887255 151.365088 
L 81.950676 156.369487 
L 82.140941 131.634464 
L 82.331205 142.786816 
L 82.394627 144.216255 
L 82.458048 143.358591 
L 82.52147 140.927728 
L 82.648313 118.908911 
L 82.838577 99.750064 
L 83.028842 91.314464 
L 83.092263 91.457136 
L 83.155685 93.029791 
L 83.219106 92.458016 
L 83.345949 90.742144 
L 83.40937 92.028911 
L 83.472792 99.464176 
L 83.536213 98.749183 
L 83.599635 95.174768 
L 83.916742 128.060048 
L 83.980164 129.060384 
L 84.043585 126.20096 
L 84.170428 108.471552 
L 84.23385 113.619168 
L 84.360693 103.610368 
L 84.550957 124.914192 
L 84.6778 129.632704 
L 84.804643 127.773616 
L 84.868064 127.916832 
L 84.931486 127.20184 
L 84.994907 128.060048 
L 85.12175 139.784176 
L 85.248593 147.933887 
L 85.312015 148.076559 
L 85.438858 143.358591 
L 85.565701 158.657136 
L 85.692544 139.355072 
L 85.819387 148.505664 
L 85.94623 142.786816 
L 86.073073 130.776256 
L 86.136494 138.21152 
L 86.199915 134.208 
L 86.326758 121.053887 
L 86.707287 141.500048 
L 86.83413 124.914192 
L 86.897552 125.057408 
L 87.024395 137.496528 
L 87.087816 137.353312 
L 87.151238 136.20976 
L 87.278081 148.362992 
L 87.341502 144.64536 
L 87.404924 140.070064 
L 87.531767 150.936528 
L 87.658609 135.637439 
L 87.722031 141.070944 
L 87.848874 134.064783 
L 87.912295 145.074464 
L 88.039138 126.344176 
L 88.165981 147.076223 
L 88.292824 127.059168 
L 88.419667 147.076223 
L 88.609932 126.20096 
L 88.736775 132.206239 
L 88.863618 145.932128 
L 88.927039 145.64624 
L 89.053882 140.212736 
L 89.244146 128.488607 
L 89.370989 132.778016 
L 89.497832 128.488607 
L 89.624675 138.068304 
L 89.751518 128.345936 
L 89.81494 128.631824 
L 89.878361 128.060048 
L 90.005204 137.782415 
L 90.068626 135.494768 
L 90.195469 121.339776 
L 90.25889 127.773616 
L 90.322312 124.342416 
L 90.449154 108.471552 
L 90.639419 129.489487 
L 90.70284 124.1992 
L 90.766262 121.482992 
L 91.019948 131.920352 
L 91.083369 131.634464 
L 91.146791 139.498288 
L 91.210212 138.354192 
L 91.337055 123.19832 
L 91.463898 130.490368 
L 91.590741 122.76976 
L 91.781006 131.062143 
L 91.907848 128.345936 
L 91.97127 129.2036 
L 92.034691 127.345056 
L 92.161534 118.76624 
L 92.288377 139.784176 
L 92.478642 110.33064 
L 92.542063 111.760079 
L 92.605485 113.190064 
L 92.668906 113.046848 
L 92.732328 107.470672 
L 92.795749 111.33152 
L 92.986014 129.2036 
L 93.049435 125.485967 
L 93.176278 107.756559 
L 93.303121 127.916832 
L 93.429964 122.76976 
L 93.556807 131.634464 
L 93.620228 130.061263 
L 93.747071 129.489487 
L 93.810493 126.772735 
L 93.873914 127.345056 
L 93.937336 129.775376 
L 94.1276 102.895376 
L 94.254443 113.046848 
L 94.317865 112.760959 
L 94.508129 106.613008 
L 94.571551 109.472432 
L 94.698394 131.205359 
L 94.761815 125.915072 
L 94.888658 111.188304 
L 94.952079 111.760079 
L 95.078922 131.062143 
L 95.142344 130.776256 
L 95.205765 128.917712 
L 95.269187 131.777136 
L 95.332608 131.348031 
L 95.459451 127.345056 
L 95.586294 131.491248 
L 95.649716 130.061263 
L 95.713137 126.772735 
L 95.776559 128.20272 
L 95.83998 128.631824 
L 95.903402 126.772735 
L 95.966823 126.915952 
L 96.093666 129.632704 
L 96.157087 129.060384 
L 96.220509 129.060384 
L 96.410773 117.193584 
L 96.537616 127.916832 
L 96.601038 124.628303 
L 96.664459 125.915072 
L 96.791302 132.206239 
L 96.854724 130.776256 
L 96.981567 120.338896 
L 97.235253 127.345056 
L 97.362096 122.19744 
L 97.488939 131.491248 
L 97.55236 128.917712 
L 97.679203 136.781535 
L 97.806046 128.488607 
L 97.869467 129.2036 
L 98.123153 132.635344 
L 98.186575 148.791551 
L 98.249996 147.933887 
L 98.313418 149.077439 
L 98.376839 147.362112 
L 98.440261 141.64272 
L 98.503682 143.072704 
L 98.693947 150.221536 
L 98.757368 150.221536 
L 98.884211 140.785056 
L 98.947633 144.788576 
L 99.074475 125.771855 
L 99.137897 133.063903 
L 99.201318 142.500383 
L 99.26474 139.069184 
L 99.328161 135.20888 
L 99.455004 142.6436 
L 99.581847 121.053887 
L 99.645269 123.913311 
L 99.772112 135.494768 
L 99.898955 126.058288 
L 100.025798 134.350672 
L 100.152641 127.773616 
L 100.279484 133.922112 
L 100.342905 131.348031 
L 100.406327 128.917712 
L 100.533169 150.364752 
L 100.596591 146.789791 
L 100.786855 140.212736 
L 100.913698 150.793311 
L 101.040541 127.487727 
L 101.103963 130.633584 
L 101.230806 148.362992 
L 101.294227 141.213615 
L 101.357649 141.928608 
L 101.484492 151.508304 
L 101.738178 131.491248 
L 101.865021 127.630944 
L 101.928442 127.773616 
L 102.055285 147.504784 
L 102.118706 141.64272 
L 102.182128 141.070944 
L 102.245549 145.360352 
L 102.308971 139.926848 
L 102.372392 140.070064 
L 102.435814 143.787696 
L 102.562657 121.76888 
L 102.626078 122.912431 
L 102.816343 162.231552 
L 102.943186 132.063023 
L 103.006607 133.20712 
L 103.13345 148.076559 
L 103.196872 141.64272 
L 103.260293 141.785936 
L 103.323715 146.64712 
L 103.387136 145.788912 
L 103.450557 146.503904 
L 103.5774 152.938288 
L 103.704243 146.789791 
L 103.831086 157.942143 
L 104.148194 141.213615 
L 104.275037 139.069184 
L 104.40188 147.933887 
L 104.528723 141.356831 
L 104.655566 150.507424 
L 104.909251 144.359472 
L 104.972673 144.788576 
L 105.099516 142.500383 
L 105.226359 146.933007 
L 105.28978 145.503024 
L 105.416623 163.08976 
L 105.480045 156.369487 
L 105.543466 145.360352 
L 105.606888 146.075343 
L 105.670309 149.792431 
L 105.733731 147.933887 
L 105.860574 144.359472 
L 105.987417 150.07832 
L 106.050838 146.503904 
L 106.177681 157.799472 
L 106.241102 148.076559 
L 106.304524 150.364752 
L 106.685053 143.64448 
L 106.811896 147.076223 
L 106.938739 146.218015 
L 107.065582 123.055648 
L 107.129003 130.061263 
L 107.255846 151.0792 
L 107.319268 145.217135 
L 107.382689 146.503904 
L 107.446111 144.502144 
L 107.509532 138.925968 
L 107.636375 144.788576 
L 107.826639 121.625664 
L 107.890061 123.913311 
L 108.016904 133.778896 
L 108.143747 122.054768 
L 108.27059 131.777136 
L 108.397433 123.627424 
L 108.524276 130.490368 
L 108.587697 128.345936 
L 108.71454 130.347696 
L 108.777962 126.20096 
L 108.904805 136.781535 
L 108.968226 132.206239 
L 109.031648 122.76976 
L 109.095069 123.19832 
L 109.221912 139.498288 
L 109.348755 128.631824 
L 109.475598 133.20712 
L 109.602441 126.772735 
L 109.729284 145.360352 
L 109.792705 142.786816 
L 109.919548 128.20272 
L 110.046391 153.224176 
L 110.109813 146.64712 
L 110.173234 135.780655 
L 110.236656 137.925087 
L 110.300077 141.928608 
L 110.363499 138.925968 
L 110.42692 138.497408 
L 110.490342 146.075343 
L 110.553763 143.501263 
L 110.617184 136.066544 
L 110.680606 138.640079 
L 110.997713 128.345936 
L 111.124556 139.2124 
L 111.251399 150.07832 
L 111.378242 142.214495 
L 111.505085 155.225936 
L 111.69535 141.928608 
L 111.758771 142.071824 
L 111.885614 147.362112 
L 111.949036 147.076223 
L 112.075878 134.922991 
L 112.1393 135.780655 
L 112.202721 142.071824 
L 112.329564 187.825056 
L 112.392986 177.959472 
L 112.456407 160.802112 
L 112.519829 166.664175 
L 112.58325 168.093616 
L 112.836936 142.6436 
L 113.154044 167.807728 
L 113.280887 159.943903 
L 113.407729 169.380927 
L 113.534572 147.933887 
L 113.661415 166.378288 
L 113.915101 145.074464 
L 114.041944 161.659776 
L 114.105366 156.655376 
L 114.232209 164.805087 
L 114.29563 161.945663 
L 114.422473 153.510063 
L 114.549316 136.20976 
L 114.612738 147.362112 
L 114.676159 140.927728 
L 114.739581 135.20888 
L 114.803002 146.933007 
L 114.866423 141.070944 
L 114.929845 126.486847 
L 115.056688 155.940928 
L 115.183531 141.213615 
L 115.310374 162.08888 
L 115.500638 149.64976 
L 115.56406 148.505664 
L 115.690903 137.925087 
L 115.754324 142.786816 
L 115.817746 140.785056 
L 115.944589 123.484208 
L 116.00801 135.637439 
L 116.071432 133.636224 
L 116.134853 124.914192 
L 116.261696 147.076223 
L 116.325117 138.783296 
L 116.388539 132.063023 
L 116.45196 132.778016 
L 116.642225 127.487727 
L 116.705646 128.345936 
L 116.832489 131.491248 
L 116.959332 142.929488 
L 117.086175 121.911551 
L 117.149597 126.915952 
L 117.213018 131.348031 
L 117.27644 131.205359 
L 117.339861 130.347696 
L 117.466704 141.64272 
L 117.593547 126.772735 
L 117.656969 128.488607 
L 117.783811 124.056528 
L 117.847233 132.921232 
L 117.910654 131.062143 
L 117.974076 129.2036 
L 118.100919 141.356831 
L 118.227762 124.914192 
L 118.291183 137.067424 
L 118.354605 136.781535 
L 118.481448 121.053887 
L 118.798555 129.775376 
L 118.861977 129.346815 
L 118.98882 136.638319 
L 119.115663 129.489487 
L 119.179084 133.922112 
L 119.305927 110.902416 
L 119.369348 119.052127 
L 119.43277 137.067424 
L 119.496191 136.781535 
L 119.623034 125.771855 
L 119.749877 126.486847 
L 119.87672 133.636224 
L 120.003563 111.903296 
L 120.066985 112.045968 
L 120.130406 115.191824 
L 120.193828 113.475951 
L 120.320671 112.618287 
L 120.384092 109.186544 
L 120.447514 110.473312 
L 120.637778 118.337135 
L 120.764621 133.20712 
L 120.828042 123.484208 
L 120.891464 123.913311 
L 120.954885 128.488607 
L 121.018307 126.20096 
L 121.081728 126.772735 
L 121.208571 130.490368 
L 121.271993 130.776256 
L 121.335414 130.204479 
L 121.398836 127.487727 
L 121.462257 128.488607 
L 121.525679 130.919472 
L 121.5891 129.918592 
L 121.906208 118.623024 
L 122.03305 107.899775 
L 122.159893 121.053887 
L 122.223315 115.048608 
L 122.286736 119.623904 
L 122.350158 132.635344 
L 122.413579 125.915072 
L 122.477001 109.32976 
L 122.540422 155.654496 
L 122.603844 145.360352 
L 122.730687 151.222416 
L 122.85753 139.2124 
L 122.984373 154.940048 
L 123.047794 151.937408 
L 123.491744 106.75568 
L 123.682009 89.741264 
L 123.808852 104.897136 
L 123.935695 85.88096 
L 124.062538 113.046848 
L 124.125959 111.617408 
L 124.252802 107.184783 
L 124.379645 121.625664 
L 124.506488 132.206239 
L 124.633331 109.472432 
L 124.696753 109.615648 
L 124.760174 127.20184 
L 124.823596 126.058288 
L 124.950438 105.32624 
L 125.077281 132.492128 
L 125.140703 130.347696 
L 125.204124 125.915072 
L 125.330967 140.785056 
L 125.45781 127.059168 
L 125.648075 146.789791 
L 125.711496 143.358591 
L 125.774918 136.352432 
L 125.838339 138.925968 
L 125.901761 147.504784 
L 125.965182 145.503024 
L 126.028604 142.071824 
L 126.155447 154.653615 
L 126.28229 136.066544 
L 126.409132 148.934767 
L 126.853083 119.909791 
L 126.916504 108.900655 
L 126.979926 114.76272 
L 127.17019 137.21064 
L 127.233612 137.496528 
L 127.297033 132.206239 
L 127.360455 134.63656 
L 127.423876 143.215375 
L 127.487298 142.214495 
L 127.550719 132.492128 
L 127.614141 133.922112 
L 127.740984 150.221536 
L 127.931248 139.498288 
L 127.994669 141.64272 
L 128.058091 150.07832 
L 128.121512 148.362992 
L 128.184934 139.355072 
L 128.248355 143.787696 
L 128.311777 143.930368 
L 128.375198 127.487727 
L 128.43862 129.489487 
L 128.502041 149.220656 
L 128.565463 147.933887 
L 128.819149 123.484208 
L 128.88257 130.919472 
L 128.945992 128.917712 
L 129.009413 131.634464 
L 129.072835 141.213615 
L 129.136256 135.494768 
L 129.199677 128.20272 
L 129.263099 129.632704 
L 129.32652 132.206239 
L 129.453363 147.933887 
L 129.580206 136.924207 
L 129.643628 149.220656 
L 129.707049 140.212736 
L 129.833892 123.055648 
L 129.897314 123.055648 
L 130.024157 145.503024 
L 130.087578 154.08184 
L 130.214421 139.2124 
L 130.277843 143.787696 
L 130.341264 145.932128 
L 130.468107 128.345936 
L 130.59495 147.648 
L 130.721793 128.060048 
L 130.785214 130.776256 
L 130.848636 131.491248 
L 131.0389 111.617408 
L 131.102322 111.617408 
L 131.292586 147.362112 
L 131.356008 141.785936 
L 131.419429 142.357711 
L 131.546272 151.651519 
L 131.673115 138.354192 
L 131.799958 150.793311 
L 131.926801 127.630944 
L 132.053644 148.362992 
L 132.180487 139.355072 
L 132.370751 176.2436 
L 132.434173 170.381263 
L 132.497594 164.662415 
L 132.624437 183.106543 
L 132.75128 160.944783 
L 132.878123 175.814767 
L 133.004966 167.807728 
L 133.068388 165.949184 
L 133.322074 147.504784 
L 133.385495 150.364752 
L 133.448917 150.221536 
L 133.512338 148.362992 
L 133.575759 150.221536 
L 133.702602 145.64624 
L 133.766024 146.933007 
L 133.892867 148.791551 
L 133.956288 145.217135 
L 134.083131 161.517104 
L 134.146553 155.940928 
L 134.209974 150.793311 
L 134.273396 159.515344 
L 134.336817 153.939168 
L 134.400239 145.503024 
L 134.46366 159.086239 
L 134.527082 158.800352 
L 134.653925 136.638319 
L 134.717346 143.64448 
L 134.780768 142.786816 
L 134.907611 148.791551 
L 135.034453 161.802992 
L 135.224718 143.787696 
L 135.351561 159.228911 
L 135.414982 156.0836 
L 135.541825 142.6436 
L 135.668668 155.08272 
L 135.73209 151.365088 
L 135.795511 152.365967 
L 135.858933 154.940048 
L 135.985776 144.502144 
L 136.112619 152.365967 
L 136.239462 147.648 
L 136.302883 147.933887 
L 136.366304 145.788912 
L 136.429726 147.504784 
L 136.61999 161.659776 
L 136.937098 140.927728 
L 137.063941 147.218896 
L 137.127362 142.929488 
L 137.254205 151.0792 
L 137.317627 146.503904 
L 137.381048 147.218896 
L 137.507891 160.229791 
L 137.698156 142.357711 
L 137.761577 142.500383 
L 138.142106 162.660656 
L 138.205527 164.233312 
L 138.268949 162.51744 
L 138.459213 142.6436 
L 138.522635 147.218896 
L 138.586056 145.64624 
L 138.649478 147.648 
L 138.712899 157.656256 
L 138.903164 131.777136 
L 138.966585 134.779776 
L 139.093428 147.076223 
L 139.15685 146.075343 
L 139.220271 149.363872 
L 139.410535 129.489487 
L 139.473957 133.349792 
L 139.537378 132.206239 
L 139.6008 127.916832 
L 139.664221 131.491248 
L 139.791064 149.220656 
L 139.854486 144.788576 
L 139.917907 146.218015 
L 139.981329 145.360352 
L 140.171593 127.916832 
L 140.298436 139.069184 
L 140.361858 136.924207 
L 140.425279 124.056528 
L 140.488701 125.771855 
L 140.615544 144.931248 
L 140.742386 138.640079 
L 140.869229 143.787696 
L 140.932651 137.925087 
L 141.059494 151.0792 
L 141.122915 150.507424 
L 141.249758 146.64712 
L 141.31318 147.076223 
L 141.376601 149.64976 
L 141.440023 148.791551 
L 141.503444 149.363872 
L 141.566866 158.085359 
L 141.630287 157.370367 
L 141.820552 143.215375 
L 141.883973 144.216255 
L 141.947395 149.220656 
L 142.010816 145.788912 
L 142.20108 129.2036 
L 142.327923 131.777136 
L 142.454766 122.054768 
L 142.645031 127.059168 
L 142.708452 125.057408 
L 142.771874 122.912431 
L 142.898717 130.204479 
L 142.962138 122.626544 
L 143.02556 124.1992 
L 143.088981 125.20008 
L 143.215824 108.042992 
L 143.406089 140.785056 
L 143.532932 125.771855 
L 143.596353 128.774496 
L 143.723196 130.633584 
L 143.850039 141.785936 
L 143.91346 137.067424 
L 143.976882 140.212736 
L 144.103725 162.08888 
L 144.357411 138.068304 
L 144.420832 140.070064 
L 144.547675 151.365088 
L 144.611097 150.507424 
L 144.801361 128.20272 
L 144.928204 144.931248 
L 144.991625 142.214495 
L 145.055047 146.361232 
L 145.118468 143.358591 
L 145.245311 129.632704 
L 145.372154 145.217135 
L 145.562419 127.345056 
L 145.62584 131.348031 
L 145.816105 145.360352 
L 145.879526 141.213615 
L 145.942948 143.787696 
L 146.069791 161.373888 
L 146.196634 138.783296 
L 146.260055 138.925968 
L 146.640584 149.792431 
L 146.767427 161.088 
L 146.830848 157.370367 
L 146.957691 129.060384 
L 147.021113 131.777136 
L 147.084534 130.061263 
L 147.147956 127.059168 
L 147.211377 131.777136 
L 147.274799 129.489487 
L 147.465063 124.77152 
L 147.591906 123.055648 
L 147.655328 117.193584 
L 147.718749 120.624784 
L 147.782171 132.492128 
L 147.845592 131.777136 
L 147.909013 128.917712 
L 147.972435 135.351552 
L 148.035856 131.491248 
L 148.099278 126.486847 
L 148.162699 128.488607 
L 148.289542 130.347696 
L 148.416385 112.045968 
L 148.60665 132.492128 
L 148.796914 142.071824 
L 148.860336 146.64712 
L 148.923757 137.925087 
L 148.987179 138.640079 
L 149.0506 151.365088 
L 149.114022 142.357711 
L 149.177443 127.20184 
L 149.240865 129.060384 
L 149.431129 135.780655 
L 149.49455 137.925087 
L 149.621393 126.486847 
L 149.748236 148.362992 
L 149.875079 123.055648 
L 150.001922 148.64888 
L 150.065344 141.928608 
L 150.128765 129.060384 
L 150.192187 135.780655 
L 150.255608 145.64624 
L 150.31903 140.212736 
L 150.509294 130.490368 
L 150.636137 146.218015 
L 150.699559 139.355072 
L 150.76298 143.358591 
L 150.826401 152.509183 
L 150.889823 149.935648 
L 151.016666 139.926848 
L 151.143509 149.077439 
L 151.270352 123.627424 
L 151.333773 126.486847 
L 151.397195 134.064783 
L 151.460616 131.777136 
L 151.524038 126.486847 
L 151.714302 150.507424 
L 151.777724 147.648 
L 151.841145 148.64888 
L 151.967988 142.214495 
L 152.094831 150.793311 
L 152.221674 128.774496 
L 152.348517 152.223296 
L 152.47536 127.059168 
L 152.602203 155.08272 
L 152.665624 150.07832 
L 152.729046 139.926848 
L 152.792467 146.503904 
L 152.982732 179.675071 
L 153.172996 167.521839 
L 153.299839 172.669456 
L 153.490104 159.801232 
L 153.553525 160.373008 
L 153.743789 157.942143 
L 153.870632 153.510063 
L 153.934054 159.658016 
L 153.997475 158.228575 
L 154.060897 153.224176 
L 154.18774 168.093616 
L 154.251161 163.947424 
L 154.378004 148.219776 
L 154.441426 148.791551 
L 154.568269 150.793311 
L 154.63169 150.221536 
L 154.758533 145.64624 
L 154.885376 153.939168 
L 155.139062 124.914192 
L 155.265905 150.07832 
L 155.329326 147.790671 
L 155.392748 148.076559 
L 155.519591 125.343296 
L 155.583012 127.773616 
L 155.646434 133.349792 
L 155.773277 126.915952 
L 155.90012 141.213615 
L 156.026963 120.338896 
L 156.153806 149.935648 
L 156.217227 148.505664 
L 156.280649 145.788912 
L 156.34407 150.507424 
L 156.470913 125.771855 
L 156.534334 129.2036 
L 156.597756 140.070064 
L 156.661177 134.493888 
L 156.724599 125.629183 
L 156.78802 131.634464 
L 156.914863 142.929488 
L 157.041706 138.497408 
L 157.168549 148.64888 
L 157.231971 141.500048 
L 157.295392 144.64536 
L 157.358814 152.652399 
L 157.422235 147.790671 
L 157.485657 147.648 
L 157.549078 156.226816 
L 157.6125 150.65064 
L 157.739343 129.346815 
L 157.802764 131.491248 
L 158.05645 151.222416 
L 158.183293 130.919472 
L 158.246714 134.493888 
L 158.5004 146.789791 
L 158.563822 145.360352 
L 158.627243 149.363872 
L 158.754086 133.778896 
L 158.817508 137.496528 
L 158.880929 151.508304 
L 158.944351 150.507424 
L 159.071194 132.778016 
L 159.261458 144.931248 
L 159.32488 145.074464 
L 159.451722 149.935648 
L 159.641987 139.355072 
L 159.76883 144.073584 
L 159.895673 124.77152 
L 159.959094 129.632704 
L 160.085937 152.652399 
L 160.21278 139.926848 
L 160.276202 140.355952 
L 160.466466 151.651519 
L 160.593309 137.353312 
L 160.720152 149.363872 
L 160.783573 147.933887 
L 160.910416 145.932128 
L 160.973838 143.072704 
L 161.227524 154.796832 
L 161.290945 162.803871 
L 161.354367 159.372128 
L 161.48121 144.073584 
L 161.671474 158.800352 
L 162.052003 140.499167 
L 162.178846 146.933007 
L 162.36911 143.072704 
L 162.559375 129.632704 
L 162.686218 143.072704 
L 162.749639 141.356831 
L 162.813061 131.491248 
L 162.876482 132.206239 
L 162.939904 138.925968 
L 163.003325 133.922112 
L 163.066747 127.487727 
L 163.130168 190.255648 
L 163.19359 179.103296 
L 163.320433 181.676832 
L 163.447276 174.957103 
L 163.574119 201.836831 
L 163.63754 201.265056 
L 163.954647 173.669792 
L 164.018069 174.242112 
L 164.144912 176.529488 
L 164.208333 172.097135 
L 164.271755 173.956223 
L 164.398598 192.400352 
L 164.525441 157.942143 
L 164.652284 194.830944 
L 164.715705 185.537408 
L 164.779127 180.390063 
L 165.032813 224.57064 
L 165.096234 222.425935 
L 165.223077 207.985056 
L 165.286498 212.274464 
L 165.413341 225.714464 
L 165.540184 205.554463 
L 165.984135 246.303296 
L 166.110978 243.872703 
L 166.491507 276.185935 
L 166.618349 260.458287 
L 166.745192 274.613007 
L 166.872035 260.744176 
L 166.998878 267.60712 
L 167.189143 241.727999 
L 167.252564 241.585056 
L 167.315986 240.441232 
L 167.379407 242.871823 
L 167.50625 229.002992 
L 167.569672 229.860655 
L 167.823358 248.876832 
L 167.950201 239.011519 
L 168.013622 240.72712 
L 168.077043 242.013887 
L 168.394151 261.173007 
L 168.520994 255.168 
L 168.647837 277.615648 
L 168.711258 269.608879 
L 168.77468 256.883872 
L 168.838101 265.60536 
L 168.901523 276.185935 
L 168.964944 270.752703 
L 169.028366 272.182416 
L 169.091787 276.328879 
L 169.21863 262.88888 
L 169.345473 277.758592 
L 169.408894 276.471824 
L 169.66258 292.914463 
L 169.852845 266.177407 
L 170.043109 285.622415 
L 170.106531 279.188575 
L 170.169952 281.047119 
L 170.233374 291.055647 
L 170.296795 289.625936 
L 170.423638 267.464176 
L 170.48706 267.750063 
L 170.677324 288.625056 
L 170.740746 277.329759 
L 170.804167 279.617408 
L 170.93101 295.488 
L 171.057853 276.471824 
L 171.184696 293.7724 
L 171.248117 291.913583 
L 171.37496 279.045359 
L 171.438382 283.477711 
L 171.501803 280.189183 
L 171.692068 275.327999 
L 171.818911 282.476832 
L 171.882332 282.190944 
L 172.009175 268.322112 
L 172.136018 283.620927 
L 172.19944 281.047119 
L 172.262861 276.042992 
L 172.326282 278.759472 
L 172.389704 279.760352 
L 172.453125 277.329759 
L 172.516547 278.473584 
L 172.579968 283.04888 
L 172.64339 279.903295 
L 172.770233 263.746816 
L 172.960497 283.906816 
L 173.023919 277.901535 
L 173.08734 281.476224 
L 173.214183 295.202112 
L 173.277605 283.620927 
L 173.341026 284.04976 
L 173.404448 291.627696 
L 173.848398 248.162112 
L 173.911819 243.586816 
L 174.038662 252.880351 
L 174.102084 249.162992 
L 174.165505 254.739168 
L 174.546034 214.133007 
L 174.609456 214.562112 
L 174.863142 220.281232 
L 174.989985 207.555951 
L 175.053406 215.848879 
L 175.116828 212.84624 
L 175.24367 192.543295 
L 175.307092 194.830944 
L 175.497356 189.397712 
L 175.560778 190.827423 
L 175.687621 198.691248 
L 175.814464 190.112704 
L 175.877885 194.973888 
L 175.941307 194.258895 
L 176.06815 189.111824 
L 176.131571 179.675071 
L 176.194993 180.818896 
L 176.258414 191.256528 
L 176.321836 189.397712 
L 176.385257 181.819776 
L 176.448679 184.393584 
L 176.5121 183.821536 
L 176.575521 178.960352 
L 176.638943 180.818896 
L 176.702364 181.390943 
L 176.765786 179.532127 
L 176.892629 186.967119 
L 177.019472 172.955344 
L 177.146315 186.538016 
L 177.526844 160.944783 
L 177.653687 179.24624 
L 177.78053 163.232432 
L 177.843951 165.234192 
L 177.907373 159.228911 
L 177.970794 159.943903 
L 178.097637 167.379168 
L 178.161058 165.377408 
L 178.287901 152.509183 
L 178.351323 153.795952 
L 178.605009 168.665936 
L 178.66843 166.235072 
L 178.731852 167.235952 
L 178.795273 171.096255 
L 178.858695 168.665936 
L 179.048959 158.800352 
L 179.175802 154.225056 
L 179.302645 163.947424 
L 179.366067 119.76712 
L 179.429488 120.624784 
L 179.556331 110.044207 
L 179.683174 112.331856 
L 179.746595 110.759199 
L 179.810017 112.045968 
L 179.873438 111.474192 
L 179.93686 110.044207 
L 180.063703 113.905056 
L 180.253967 110.473312 
L 180.38081 112.904176 
L 180.634496 108.471552 
L 180.697918 109.043327 
L 180.761339 106.75568 
L 180.888182 123.19832 
L 180.951603 117.908032 
L 181.015025 104.897136 
L 181.141868 130.490368 
L 181.205289 121.482992 
L 181.268711 110.616528 
L 181.332132 111.045088 
L 181.395554 113.046848 
L 181.458975 112.760959 
L 181.522397 110.187424 
L 181.585818 114.190944 
L 181.712661 129.346815 
L 181.776083 126.915952 
L 181.839504 130.204479 
L 182.029769 108.900655 
L 182.156612 122.626544 
L 182.220033 120.053007 
L 182.346876 128.488607 
L 182.473719 115.048608 
L 182.600562 128.060048 
L 182.727405 111.045088 
L 182.790826 111.474192 
L 182.854248 115.620383 
L 182.917669 114.76272 
L 183.044512 110.33064 
L 183.171355 113.76184 
L 183.234777 113.332735 
L 183.298198 110.187424 
L 183.36162 111.617408 
L 183.425041 111.188304 
L 183.551884 92.172127 
L 183.615306 109.32976 
L 183.678727 107.470672 
L 183.80557 87.88272 
L 183.995834 113.475951 
L 184.059256 111.188304 
L 184.24952 91.88624 
L 184.376363 110.759199 
L 184.439785 108.042992 
L 184.566628 89.741264 
L 184.693471 113.046848 
L 184.820314 100.750944 
L 184.883735 103.610368 
L 184.947157 104.754464 
L 185.010578 101.751824 
L 185.074 105.32624 
L 185.137421 102.752704 
L 185.391107 78.017136 
L 185.51795 96.31832 
L 185.581371 88.740384 
L 185.644793 90.027152 
L 185.898479 101.894496 
L 185.9619 100.035952 
L 186.088743 104.325359 
L 186.152165 94.745664 
L 186.215586 96.604207 
L 186.279008 103.467151 
L 186.342429 98.463296 
L 186.405851 95.31744 
L 186.469272 96.31832 
L 186.596115 113.76184 
L 186.659536 111.617408 
L 186.786379 90.027152 
L 186.913222 104.611248 
L 186.976644 102.466816 
L 187.103487 91.743024 
L 187.357173 101.608607 
L 187.420594 98.32008 
L 187.610859 114.476831 
L 187.737702 95.174768 
L 187.801123 98.177408 
L 187.864545 98.177408 
L 187.991388 111.474192 
L 188.11823 102.752704 
L 188.181652 103.181263 
L 188.245073 98.32008 
L 188.562181 116.907696 
L 188.689024 101.751824 
L 188.752445 106.613008 
L 188.815867 111.188304 
L 189.006131 92.028911 
L 189.069553 94.745664 
L 189.259817 110.187424 
L 189.323239 110.33064 
L 189.450082 115.7636 
L 189.513503 108.614768 
L 189.576924 113.619168 
L 189.640346 121.482992 
L 189.767189 107.042111 
L 189.83061 107.756559 
L 189.957453 118.337135 
L 190.020875 117.193584 
L 190.147718 112.331856 
L 190.211139 113.190064 
L 190.337982 123.19832 
L 190.464825 113.332735 
L 190.528247 114.476831 
L 190.591668 111.760079 
L 190.65509 113.046848 
L 190.718511 114.476831 
L 190.781933 113.76184 
L 190.845354 114.76272 
L 190.972197 112.045968 
L 191.035618 109.472432 
L 191.09904 112.475072 
L 191.162461 125.20008 
L 191.225883 124.77152 
L 191.289304 113.619168 
L 191.352726 118.623024 
L 191.416147 130.776256 
L 191.479569 128.631824 
L 191.606412 112.331856 
L 191.733255 131.777136 
L 191.860098 106.183903 
L 191.923519 109.32976 
L 191.986941 112.475072 
L 192.050362 111.188304 
L 192.177205 105.612128 
L 192.304048 118.908911 
L 192.494312 111.474192 
L 192.621155 133.349792 
L 192.684577 128.631824 
L 192.81142 105.183023 
L 192.938263 113.905056 
L 193.001684 111.760079 
L 193.065106 105.32624 
L 193.128527 107.184783 
L 193.191949 114.76272 
L 193.25537 113.475951 
L 193.318792 109.758319 
L 193.572478 149.64976 
L 193.635899 142.357711 
L 193.762742 126.486847 
L 193.889585 135.780655 
L 194.016428 123.19832 
L 194.079849 124.485087 
L 194.270114 128.20272 
L 194.333535 129.489487 
L 194.396957 128.345936 
L 194.460378 129.632704 
L 194.5238 133.922112 
L 194.650643 121.76888 
L 194.777486 141.213615 
L 194.904329 124.628303 
L 194.96775 130.490368 
L 195.094593 132.348911 
L 195.158015 140.212736 
L 195.221436 137.639199 
L 195.284857 133.349792 
L 195.475122 150.793311 
L 195.665386 125.057408 
L 195.728808 125.343296 
L 195.792229 130.347696 
L 195.855651 127.916832 
L 195.919072 125.20008 
L 195.982494 128.20272 
L 196.045915 127.487727 
L 196.109337 125.343296 
L 196.23618 130.776256 
L 196.363023 127.630944 
L 196.489866 132.635344 
L 196.68013 128.774496 
L 196.806973 128.060048 
L 196.933816 128.917712 
L 196.997237 128.488607 
L 197.12408 125.485967 
L 197.187502 128.917712 
L 197.250923 128.488607 
L 197.314345 126.20096 
L 197.377766 127.345056 
L 197.504609 128.631824 
L 197.568031 128.060048 
L 197.694874 123.627424 
L 197.94856 130.061263 
L 198.075403 123.913311 
L 198.138824 128.060048 
L 198.265667 112.618287 
L 198.39251 124.77152 
L 198.455931 114.619503 
L 198.519353 118.623024 
L 198.582774 129.489487 
L 198.646196 128.917712 
L 198.899882 121.482992 
L 199.026725 128.345936 
L 199.090146 127.773616 
L 199.153568 126.630063 
L 199.280411 127.630944 
L 199.407254 126.344176 
L 199.534097 129.489487 
L 199.660939 123.913311 
L 199.724361 126.344176 
L 199.787782 129.775376 
L 199.851204 128.774496 
L 199.914625 127.345056 
L 200.041468 129.775376 
L 200.168311 127.916832 
L 200.231733 126.344176 
L 200.295154 126.486847 
L 200.358576 126.058288 
L 200.485419 122.483872 
L 200.612262 128.631824 
L 200.802526 124.342416 
L 200.865948 124.485087 
L 200.929369 127.345056 
L 200.99279 127.20184 
L 201.056212 126.344176 
L 201.119633 128.488607 
L 201.183055 128.060048 
L 201.436741 121.625664 
L 201.500162 124.1992 
L 201.563584 123.484208 
L 201.627005 122.626544 
L 201.753848 128.20272 
L 201.81727 127.059168 
L 201.880691 129.489487 
L 201.944113 129.060384 
L 202.007534 125.629183 
L 202.134377 129.060384 
L 202.197799 124.1992 
L 202.26122 125.485967 
L 202.324642 129.346815 
L 202.388063 127.916832 
L 202.451484 126.915952 
L 202.514906 127.773616 
L 202.70517 124.342416 
L 202.768592 124.1992 
L 202.895435 128.631824 
L 203.022278 113.475951 
L 203.085699 114.047728 
L 203.149121 114.905936 
L 203.212542 113.905056 
L 203.275964 114.047728 
L 203.339385 113.76184 
L 203.466228 112.189184 
L 203.593071 116.76448 
L 203.656493 114.619503 
L 203.719914 127.773616 
L 203.846757 112.904176 
L 203.910178 118.337135 
L 203.9736 115.048608 
L 204.037021 113.046848 
L 204.163864 126.058288 
L 204.227286 122.76976 
L 204.544393 93.029791 
L 204.671236 98.605967 
L 204.798079 91.171247 
L 204.924922 95.460656 
L 204.988344 95.031551 
L 205.115187 91.457136 
L 205.24203 98.177408 
L 205.305451 97.462416 
L 205.368872 97.3192 
L 205.432294 96.461536 
L 205.622558 111.903296 
L 205.749401 110.187424 
L 205.812823 110.473312 
L 205.876244 107.328 
L 205.939666 109.32976 
L 206.003087 111.045088 
L 206.12993 106.183903 
L 206.256773 113.332735 
L 206.320195 112.904176 
L 206.447038 116.907696 
L 206.510459 115.477711 
L 206.573881 112.189184 
L 206.637302 114.190944 
L 206.827566 125.485967 
L 207.081252 128.345936 
L 207.144674 127.059168 
L 207.208095 127.345056 
L 207.334938 131.348031 
L 207.461781 128.060048 
L 207.652046 130.490368 
L 207.778889 128.488607 
L 207.905732 125.20008 
L 207.969153 128.774496 
L 208.095996 113.046848 
L 208.159417 119.338016 
L 208.222839 128.488607 
L 208.28626 126.486847 
L 208.349682 125.629183 
L 208.413103 127.345056 
L 208.476525 126.058288 
L 208.603368 127.487727 
L 208.666789 126.772735 
L 208.730211 127.20184 
L 208.793632 127.059168 
L 208.857054 127.20184 
L 208.983897 129.346815 
L 209.047318 131.205359 
L 209.11074 130.204479 
L 209.174161 129.2036 
L 209.301004 132.921232 
L 209.364426 128.774496 
L 209.427847 129.346815 
L 209.491269 131.634464 
L 209.618111 125.915072 
L 209.744954 130.347696 
L 209.808376 128.345936 
L 209.871797 129.918592 
L 209.935219 128.917712 
L 209.99864 126.058288 
L 210.125483 129.060384 
L 210.188905 128.20272 
L 210.252326 130.347696 
L 210.315748 130.204479 
L 210.379169 127.487727 
L 210.442591 128.20272 
L 210.632855 130.204479 
L 210.696277 129.918592 
L 210.759698 128.488607 
L 210.82312 128.917712 
L 210.886541 128.488607 
L 211.013384 121.911551 
L 211.076805 123.913311 
L 211.26707 128.345936 
L 211.393913 127.487727 
L 211.457334 129.060384 
L 211.520756 128.631824 
L 211.584177 125.915072 
L 211.647599 126.058288 
L 211.774442 128.631824 
L 211.837863 128.774496 
L 212.218392 114.476831 
L 212.472078 129.775376 
L 212.535499 126.630063 
L 212.598921 126.20096 
L 212.725764 130.347696 
L 212.852607 127.916832 
L 212.97945 133.778896 
L 213.106293 128.774496 
L 213.169714 130.204479 
L 213.233136 132.206239 
L 213.296557 130.633584 
L 213.359979 131.920352 
L 213.486822 146.503904 
L 213.550243 145.932128 
L 213.613665 144.931248 
L 213.740508 147.362112 
L 213.803929 146.64712 
L 213.867351 144.64536 
L 213.930772 145.64624 
L 214.057615 148.362992 
L 214.247879 145.932128 
L 214.311301 146.075343 
L 214.374722 147.504784 
L 214.501565 143.930368 
L 214.564987 146.075343 
L 214.628408 148.791551 
L 214.69183 146.933007 
L 214.755251 147.362112 
L 214.818673 151.0792 
L 214.945516 142.214495 
L 215.072359 155.225936 
L 215.13578 148.505664 
L 215.199202 148.791551 
L 215.326045 158.228575 
L 215.389466 157.227695 
L 215.452887 158.657136 
L 215.57973 153.08096 
L 215.706573 164.805087 
L 215.833416 148.505664 
L 215.960259 156.655376 
L 216.023681 156.0836 
L 216.150524 165.09152 
L 216.277367 158.657136 
L 216.340788 162.231552 
L 216.40421 161.945663 
L 216.467631 162.231552 
L 216.531053 163.947424 
L 216.594474 163.804751 
L 216.721317 156.941264 
L 216.784738 158.657136 
L 216.911581 165.09152 
L 216.975003 161.088 
L 217.038424 162.51744 
L 217.101846 163.947424 
L 217.228689 161.802992 
L 217.29211 162.51744 
L 217.355532 162.231552 
L 217.418953 162.231552 
L 217.482375 162.08888 
L 217.609218 162.374768 
L 217.672639 161.945663 
L 217.799482 164.376528 
L 217.862904 163.947424 
L 217.926325 163.518319 
L 217.989747 163.947424 
L 218.11659 155.654496 
L 218.243432 164.519199 
L 218.306854 162.08888 
L 218.370275 160.516224 
L 218.497118 162.946543 
L 218.56054 162.08888 
L 218.623961 162.946543 
L 218.814226 156.369487 
L 218.877647 159.372128 
L 218.941069 158.800352 
L 219.00449 156.655376 
L 219.067912 157.799472 
L 219.194755 160.373008 
L 219.258176 162.803871 
L 219.321598 161.802992 
L 219.638705 147.504784 
L 219.702126 148.505664 
L 219.892391 156.798592 
L 219.955812 132.348911 
L 220.019234 138.068304 
L 220.209498 131.205359 
L 220.27292 132.921232 
L 220.399763 143.930368 
L 220.526606 127.487727 
L 220.590027 130.633584 
L 220.653449 129.918592 
L 220.71687 131.205359 
L 220.780292 130.633584 
L 220.843713 128.060048 
L 220.970556 140.927728 
L 221.097399 129.632704 
L 221.16082 133.922112 
L 221.224242 133.063903 
L 221.414506 126.486847 
L 221.541349 131.920352 
L 221.668192 125.485967 
L 221.795035 132.063023 
L 221.921878 130.347696 
L 222.048721 136.781535 
L 222.175564 127.916832 
L 222.302407 146.218015 
L 222.556093 131.062143 
L 222.619514 132.492128 
L 222.682936 143.787696 
L 222.746357 143.64448 
L 222.809779 132.492128 
L 222.8732 132.921232 
L 222.936622 137.925087 
L 223.000043 134.493888 
L 223.063465 133.063903 
L 223.190308 141.785936 
L 223.380572 128.917712 
L 223.443994 131.062143 
L 223.507415 131.491248 
L 223.634258 128.631824 
L 223.69768 128.488607 
L 223.824523 132.206239 
L 223.887944 128.774496 
L 223.951366 129.775376 
L 224.014787 133.493008 
L 224.078208 131.205359 
L 224.14163 129.346815 
L 224.205051 131.920352 
L 224.331894 123.627424 
L 224.395316 123.770639 
L 224.522159 136.495648 
L 224.58558 143.501263 
L 224.712423 127.773616 
L 224.775845 129.060384 
L 224.839266 132.206239 
L 224.902688 130.919472 
L 224.966109 131.491248 
L 225.029531 131.348031 
L 225.092952 130.347696 
L 225.283217 144.64536 
L 225.346638 141.785936 
L 225.410059 140.785056 
L 225.473481 142.500383 
L 225.600324 132.348911 
L 225.663745 136.495648 
L 225.727167 141.785936 
L 225.917431 126.915952 
L 225.980853 127.916832 
L 226.171117 132.206239 
L 226.234539 131.920352 
L 226.361382 127.916832 
L 226.488225 132.778016 
L 226.678489 128.631824 
L 226.741911 125.915072 
L 226.995596 132.348911 
L 227.059018 130.776256 
L 227.122439 131.634464 
L 227.249282 142.500383 
L 227.376125 127.059168 
L 227.502968 130.919472 
L 227.56639 128.631824 
L 227.629811 128.774496 
L 227.820076 133.349792 
L 227.883497 141.500048 
L 227.946919 141.356831 
L 228.137183 126.915952 
L 228.264026 122.054768 
L 228.390869 129.918592 
L 228.45429 128.20272 
L 228.517712 126.915952 
L 228.581133 127.20184 
L 228.644555 126.630063 
L 228.707976 127.916832 
L 228.834819 116.478592 
L 228.961662 131.205359 
L 229.025084 127.630944 
L 229.088505 128.774496 
L 229.151927 134.064783 
L 229.27877 120.910671 
L 229.405613 128.060048 
L 229.595877 115.477711 
L 229.72272 127.773616 
L 229.786141 127.487727 
L 229.912984 129.346815 
L 230.039827 132.206239 
L 230.103249 131.777136 
L 230.356935 128.917712 
L 230.420356 129.060384 
L 230.483778 129.2036 
L 230.737464 131.205359 
L 230.800885 128.060048 
L 230.927728 138.640079 
L 230.99115 134.779776 
L 231.054571 129.775376 
L 231.117993 132.492128 
L 231.181414 134.493888 
L 231.308257 128.488607 
L 231.371678 130.061263 
L 231.4351 136.495648 
L 231.498521 135.637439 
L 231.625364 126.630063 
L 231.87905 134.064783 
L 232.005893 133.063903 
L 232.132736 139.069184 
L 232.196158 134.779776 
L 232.323001 146.361232 
L 232.386422 143.787696 
L 232.576686 131.491248 
L 232.640108 131.920352 
L 232.703529 132.206239 
L 232.893794 145.788912 
L 232.957215 144.64536 
L 233.084058 142.500383 
L 233.210901 145.074464 
L 233.274323 144.216255 
L 233.401166 145.360352 
L 233.464587 144.502144 
L 233.528009 144.64536 
L 233.59143 145.932128 
L 233.654852 145.64624 
L 233.718273 145.217135 
L 233.781695 145.932128 
L 233.908538 143.215375 
L 234.098802 150.507424 
L 234.162223 147.648 
L 234.225645 145.64624 
L 234.289066 146.075343 
L 234.415909 148.362992 
L 234.542752 144.216255 
L 234.606174 144.359472 
L 234.669595 146.503904 
L 234.796438 142.214495 
L 234.923281 148.64888 
L 234.986703 147.076223 
L 235.050124 144.788576 
L 235.176967 150.507424 
L 235.240389 147.076223 
L 235.367232 157.370367 
L 235.430653 152.08008 
L 235.494074 145.64624 
L 235.557496 148.934767 
L 235.620917 148.362992 
L 235.684339 143.501263 
L 235.74776 144.788576 
L 235.938025 150.07832 
L 236.001446 149.935648 
L 236.128289 147.790671 
L 236.191711 153.224176 
L 236.318554 137.639199 
L 236.381975 148.219776 
L 236.445397 147.362112 
L 236.57224 132.778016 
L 236.635661 134.63656 
L 236.699083 124.77152 
L 236.762504 127.345056 
L 236.825926 144.931248 
L 236.889347 143.072704 
L 236.952768 130.204479 
L 237.079611 154.796832 
L 237.206454 127.487727 
L 237.333297 165.949184 
L 237.396719 154.940048 
L 237.46014 159.372128 
L 237.523562 180.390063 
L 237.586983 178.960352 
L 237.713826 156.0836 
L 237.840669 166.950064 
L 237.904091 159.515344 
L 237.967512 161.373888 
L 238.030934 166.235072 
L 238.221198 141.213615 
L 238.348041 170.810368 
L 238.474884 155.654496 
L 238.538305 166.235072 
L 238.601727 164.662415 
L 238.665148 163.804751 
L 238.72857 173.669792 
L 238.918834 125.915072 
L 238.982256 129.2036 
L 239.109099 138.21152 
L 239.235942 166.806848 
L 239.299363 165.377408 
L 239.489628 151.651519 
L 239.616471 155.511824 
L 239.743314 146.218015 
L 239.806735 160.658896 
L 239.870156 159.801232 
L 239.933578 145.64624 
L 239.996999 148.791551 
L 240.123842 169.094495 
L 240.250685 155.368607 
L 240.44095 166.0924 
L 240.567793 157.656256 
L 240.631214 160.516224 
L 240.758057 151.794191 
L 240.948322 166.520959 
L 241.011743 161.230672 
L 241.138586 140.641839 
L 241.265429 158.800352 
L 241.32885 148.219776 
L 241.392272 150.793311 
L 241.645958 178.531247 
L 241.709379 174.098895 
L 241.836222 153.795952 
L 241.899644 157.656256 
L 241.963065 156.798592 
L 242.026487 157.656256 
L 242.089908 156.0836 
L 242.216751 143.930368 
L 242.470437 182.24888 
L 242.533859 178.674191 
L 242.660701 158.943023 
L 242.850966 165.663295 
L 242.914387 168.665936 
L 242.977809 165.949184 
L 243.104652 182.534768 
L 243.231495 161.945663 
L 243.294916 163.518319 
L 243.421759 152.08008 
L 243.485181 152.365967 
L 243.675445 146.218015 
L 243.738867 147.218896 
L 243.86571 152.652399 
L 243.992553 144.64536 
L 244.055974 146.075343 
L 244.119395 142.071824 
L 244.246238 122.912431 
L 244.30966 157.656256 
L 244.373081 145.64624 
L 244.436503 147.790671 
L 244.563346 131.491248 
L 244.626767 141.500048 
L 244.75361 186.395072 
L 245.134139 110.902416 
L 245.197561 113.190064 
L 245.260982 110.902416 
L 245.324404 113.76184 
L 245.387825 111.617408 
L 245.451247 108.471552 
L 245.578089 136.495648 
L 245.704932 108.900655 
L 245.831775 129.2036 
L 245.895197 129.060384 
L 245.958618 128.345936 
L 246.085461 138.640079 
L 246.212304 151.0792 
L 246.275726 148.791551 
L 246.402569 128.345936 
L 246.529412 145.788912 
L 246.592833 139.784176 
L 246.719676 120.910671 
L 246.783098 126.630063 
L 246.909941 151.222416 
L 246.973362 146.075343 
L 247.036783 147.504784 
L 247.100205 149.935648 
L 247.163626 146.218015 
L 247.227048 146.789791 
L 247.290469 147.933887 
L 247.353891 145.932128 
L 247.607577 163.518319 
L 247.670998 167.950944 
L 247.73442 166.378288 
L 247.797841 161.945663 
L 247.924684 168.951824 
L 248.051527 142.786816 
L 248.114949 145.503024 
L 248.305213 152.223296 
L 248.368634 152.365967 
L 248.432056 146.64712 
L 248.558899 154.08184 
L 248.685742 143.358591 
L 248.939428 159.658016 
L 249.002849 158.800352 
L 249.129692 143.787696 
L 249.637064 180.390063 
L 249.763907 163.804751 
L 249.89075 178.674191 
L 249.954171 169.952704 
L 250.081014 178.531247 
L 250.207857 152.223296 
L 250.271279 168.522719 
L 250.3347 165.805967 
L 250.398122 159.801232 
L 250.461543 165.520079 
L 250.524965 164.662415 
L 250.715229 144.788576 
L 250.778651 154.367727 
L 250.842072 165.949184 
L 250.968915 143.358591 
L 251.222601 164.519199 
L 251.286022 156.941264 
L 251.349444 159.228911 
L 251.412865 173.241232 
L 251.476287 170.953584 
L 251.729973 143.501263 
L 251.856816 166.664175 
L 251.920237 166.235072 
L 251.983659 158.800352 
L 252.110502 170.381263 
L 252.237345 144.216255 
L 252.364188 169.380927 
L 252.427609 166.378288 
L 252.554452 145.64624 
L 252.617874 149.077439 
L 252.744716 130.204479 
L 252.871559 143.930368 
L 252.934981 141.070944 
L 252.998402 144.359472 
L 253.061824 142.500383 
L 253.188667 124.056528 
L 253.378931 167.665056 
L 253.442353 159.801232 
L 253.569196 171.52536 
L 253.696039 143.215375 
L 253.75946 145.074464 
L 253.822882 147.504784 
L 253.949725 124.056528 
L 254.076568 143.787696 
L 254.139989 142.500383 
L 254.20341 138.354192 
L 254.393675 160.516224 
L 254.520518 141.928608 
L 254.583939 152.365967 
L 254.647361 151.508304 
L 254.837625 127.20184 
L 254.901047 128.631824 
L 255.154733 165.09152 
L 255.218154 167.09328 
L 255.281576 159.228911 
L 255.344997 164.948304 
L 255.408419 162.51744 
L 255.47184 147.933887 
L 255.535262 149.077439 
L 255.598683 159.372128 
L 255.662104 157.656256 
L 255.725526 150.936528 
L 255.788947 154.510943 
L 255.852369 162.51744 
L 255.91579 161.517104 
L 255.979212 162.08888 
L 256.042633 168.522719 
L 256.169476 148.362992 
L 256.232898 162.374768 
L 256.296319 160.087119 
L 256.423162 123.913311 
L 256.486584 128.20272 
L 256.550005 125.771855 
L 256.613427 126.058288 
L 256.676848 127.916832 
L 256.993955 146.933007 
L 257.057377 145.788912 
L 257.18422 158.085359 
L 257.311063 138.640079 
L 257.437906 166.950064 
L 257.501327 162.231552 
L 257.62817 146.503904 
L 257.691592 146.64712 
L 257.755013 139.2124 
L 257.818435 139.640959 
L 258.008699 150.364752 
L 258.135542 144.502144 
L 258.389228 159.086239 
L 258.706335 138.068304 
L 258.833178 164.376528 
L 258.8966 156.512704 
L 258.960021 161.230672 
L 259.023443 164.09064 
L 259.150286 145.932128 
L 259.277129 161.659776 
L 259.403972 157.08448 
L 259.467393 153.510063 
L 259.530815 156.655376 
L 259.594236 155.225936 
L 259.657658 144.502144 
L 259.721079 145.788912 
L 259.847922 164.09064 
L 259.911343 159.086239 
L 259.974765 162.231552 
L 260.038186 166.235072 
L 260.165029 148.791551 
L 260.291872 158.800352 
L 260.355294 158.085359 
L 260.418715 159.801232 
L 260.482137 158.800352 
L 260.545558 168.951824 
L 260.60898 165.520079 
L 260.862666 144.931248 
L 260.989509 160.087119 
L 261.116352 147.790671 
L 261.179773 153.939168 
L 261.243195 149.363872 
L 261.370037 141.070944 
L 261.433459 143.930368 
L 261.560302 163.947424 
L 261.623723 158.657136 
L 261.877409 132.778016 
L 261.940831 135.923872 
L 262.067674 160.087119 
L 262.131095 151.794191 
L 262.194517 132.063023 
L 262.257938 138.21152 
L 262.32136 153.939168 
L 262.384781 149.792431 
L 262.448203 145.074464 
L 262.575046 161.517104 
L 262.701889 146.075343 
L 262.828731 169.380927 
L 262.892153 166.378288 
L 262.955574 164.805087 
L 263.018996 167.807728 
L 263.20926 159.228911 
L 263.272682 163.947424 
L 263.336103 162.374768 
L 263.399525 156.0836 
L 263.526368 167.379168 
L 263.653211 158.657136 
L 263.716632 164.805087 
L 264.03374 136.066544 
L 264.224004 126.772735 
L 264.287425 132.492128 
L 264.47769 163.232432 
L 264.667954 149.363872 
L 264.858219 139.2124 
L 264.985062 124.485087 
L 265.048483 129.918592 
L 265.238748 156.941264 
L 265.365591 155.225936 
L 265.492434 143.787696 
L 265.619276 163.232432 
L 265.746119 152.223296 
L 265.872962 171.239471 
L 265.936384 165.377408 
L 265.999805 166.664175 
L 266.063227 167.235952 
L 266.126648 164.09064 
L 266.19007 166.0924 
L 266.316913 175.52888 
L 266.380334 175.385664 
L 266.507177 153.510063 
L 266.570599 142.786816 
L 266.63402 148.791551 
L 266.697442 153.939168 
L 266.824285 142.357711 
L 266.887706 143.358591 
L 266.951128 143.787696 
L 267.014549 147.218896 
L 267.141392 165.377408 
L 267.204813 161.945663 
L 267.395078 131.348031 
L 267.521921 142.071824 
L 267.648764 123.627424 
L 267.839028 154.796832 
L 267.965871 136.924207 
L 268.029293 141.64272 
L 268.092714 147.790671 
L 268.156136 146.789791 
L 268.282979 135.780655 
L 268.536664 164.948304 
L 268.600086 159.515344 
L 268.726929 110.33064 
L 268.79035 114.047728 
L 268.853772 97.462416 
L 268.917193 97.748303 
L 268.980615 116.907696 
L 269.044036 113.332735 
L 269.107458 113.619168 
L 269.170879 126.772735 
L 269.234301 116.907696 
L 269.297722 106.75568 
L 269.361144 115.7636 
L 269.487987 90.88536 
L 269.551408 99.606847 
L 269.741673 114.333615 
L 269.805094 113.190064 
L 269.868516 107.756559 
L 269.931937 109.901535 
L 269.995358 109.901535 
L 270.122201 89.312704 
L 270.185623 92.601232 
L 270.312466 113.76184 
L 270.375887 109.901535 
L 270.566152 134.350672 
L 270.629573 131.777136 
L 270.692995 126.772735 
L 270.819838 146.64712 
L 270.883259 146.503904 
L 271.136945 122.626544 
L 271.200367 124.485087 
L 271.263788 131.634464 
L 271.390631 112.475072 
L 271.517474 135.494768 
L 271.580895 131.634464 
L 271.644317 126.630063 
L 271.834581 142.6436 
L 271.961424 120.624784 
L 272.151689 130.204479 
L 272.21511 128.917712 
L 272.278532 124.628303 
L 272.341953 127.630944 
L 272.405375 127.345056 
L 272.468796 119.76712 
L 272.532218 122.340656 
L 272.595639 133.349792 
L 272.659061 131.062143 
L 272.785903 114.76272 
L 272.849325 126.344176 
L 272.912746 125.915072 
L 273.039589 105.612128 
L 273.166432 124.485087 
L 273.229854 121.339776 
L 273.293275 107.042111 
L 273.356697 108.900655 
L 273.546961 127.773616 
L 273.673804 112.045968 
L 273.864069 147.790671 
L 273.990912 126.058288 
L 274.117755 154.367727 
L 274.244597 124.342416 
L 274.308019 130.061263 
L 274.37144 140.927728 
L 274.498283 119.481232 
L 274.688548 163.518319 
L 274.815391 186.824176 
L 274.878812 183.106543 
L 275.386184 137.925087 
L 275.576449 150.364752 
L 275.63987 147.933887 
L 275.703291 150.507424 
L 275.766713 149.64976 
L 275.830134 144.502144 
L 275.893556 146.64712 
L 275.956977 152.223296 
L 276.08382 140.785056 
L 276.147242 143.358591 
L 276.210663 148.934767 
L 276.274085 148.791551 
L 276.527771 137.353312 
L 276.781457 167.665056 
L 276.9083 144.359472 
L 277.035143 166.0924 
L 277.288828 143.930368 
L 277.415671 169.380927 
L 277.479093 159.801232 
L 277.542514 153.510063 
L 277.669357 171.52536 
L 277.7962 155.654496 
L 277.923043 190.112704 
L 277.986465 177.530367 
L 278.049886 179.818016 
L 278.113308 197.261535 
L 278.176729 192.972128 
L 278.303572 173.669792 
L 278.366994 179.818016 
L 278.493837 161.517104 
L 278.557258 164.376528 
L 278.620679 175.814767 
L 278.684101 171.954464 
L 278.747522 160.373008 
L 278.810944 161.230672 
L 278.937787 183.678592 
L 279.06463 172.097135 
L 279.318316 197.261535 
L 279.635423 161.373888 
L 279.698845 164.233312 
L 279.889109 197.404479 
L 280.015952 180.24712 
L 280.079373 180.96184 
L 280.269638 180.533007 
L 280.333059 178.531247 
L 280.459902 186.252127 
L 280.523324 173.383904 
L 280.586745 173.813008 
L 280.650167 191.828303 
L 280.713588 191.256528 
L 280.840431 169.380927 
L 280.967274 188.682719 
L 281.030696 185.680352 
L 281.094117 180.533007 
L 281.22096 195.116832 
L 281.284382 188.825935 
L 281.347803 179.389184 
L 281.411224 183.392703 
L 281.538067 194.973888 
L 281.66491 172.812128 
L 281.728332 176.815647 
L 281.855175 198.834192 
L 281.982018 190.970368 
L 282.235704 212.274464 
L 282.299125 206.412127 
L 282.425968 191.256528 
L 282.48939 196.260655 
L 282.616233 189.397712 
L 282.679654 193.830064 
L 282.806497 181.96272 
L 283.060183 213.704176 
L 283.187026 190.541536 
L 283.250447 192.114192 
L 283.440712 199.120351 
L 283.567555 191.828303 
L 283.694398 198.977408 
L 283.884662 181.390943 
L 284.011505 189.826543 
L 284.074927 186.967119 
L 284.328612 163.518319 
L 284.455455 173.669792 
L 284.582298 163.08976 
L 284.709141 174.670671 
L 284.835984 160.658896 
L 284.899406 217.135648 
L 284.962827 205.983296 
L 285.08967 201.979775 
L 285.153092 203.981536 
L 285.343356 244.730639 
L 285.406778 240.012127 
L 285.723885 180.818896 
L 285.787306 181.105056 
L 285.850728 180.675952 
L 285.914149 182.391823 
L 286.040992 178.674191 
L 286.167835 202.40888 
L 286.294678 171.954464 
L 286.421521 191.828303 
L 286.484943 191.542415 
L 286.611786 193.544175 
L 286.738629 212.84624 
L 286.80205 221.996832 
L 286.865472 215.991824 
L 286.992315 195.68888 
L 287.055736 199.978287 
L 287.119158 208.699776 
L 287.309422 174.670671 
L 287.372843 181.533887 
L 287.499686 217.135648 
L 287.563108 211.988303 
L 287.626529 211.702416 
L 287.689951 212.560352 
L 287.816794 197.261535 
L 288.007058 208.556831 
L 288.260744 227.28712 
L 288.387587 204.982416 
L 288.451009 210.272703 
L 288.51443 215.848879 
L 288.641273 190.398592 
L 288.704694 194.830944 
L 288.768116 194.688 
L 288.894959 182.677712 
L 288.95838 185.680352 
L 289.085223 180.675952 
L 289.148645 183.392703 
L 289.402331 172.097135 
L 289.529174 184.96536 
L 289.592595 184.250367 
L 289.78286 158.800352 
L 289.973124 183.106543 
L 290.036545 182.820656 
L 290.163388 185.394192 
L 290.290231 164.09064 
L 290.353653 167.379168 
L 290.417074 177.530367 
L 290.480496 170.810368 
L 290.543917 158.800352 
L 290.607339 166.664175 
L 290.67076 173.669792 
L 290.797603 159.658016 
L 290.861025 161.373888 
L 290.987868 145.360352 
L 291.114711 162.51744 
L 291.304975 146.075343 
L 291.368397 149.220656 
L 291.431818 160.944783 
L 291.495239 154.225056 
L 291.622082 139.069184 
L 291.812347 150.65064 
L 291.875768 146.218015 
L 292.002611 171.52536 
L 292.066033 162.803871 
L 292.192876 139.784176 
L 292.256297 138.497408 
L 292.319719 129.632704 
L 292.38314 134.493888 
L 292.446562 145.932128 
L 292.509983 143.787696 
L 292.573405 140.785056 
L 292.700248 152.509183 
L 292.827091 126.344176 
L 292.953933 150.364752 
L 293.017355 140.499167 
L 293.144198 126.915952 
L 293.207619 124.342416 
L 293.334462 110.044207 
L 293.397884 114.905936 
L 293.461305 112.618287 
L 293.524727 110.33064 
L 293.65157 123.627424 
L 293.778413 104.754464 
L 294.158942 137.067424 
L 294.53947 108.900655 
L 294.666313 120.768 
L 294.729735 115.477711 
L 294.793156 110.044207 
L 294.919999 135.637439 
L 294.983421 135.065663 
L 295.110264 114.476831 
L 295.173685 131.205359 
L 295.237107 127.773616 
L 295.300528 109.901535 
L 295.36395 110.616528 
L 295.427371 108.185664 
L 295.554214 89.88448 
L 295.8079 117.479472 
L 295.871321 111.760079 
L 295.934743 115.048608 
L 295.998164 115.048608 
L 296.125007 106.898896 
L 296.25185 112.045968 
L 296.315272 103.753584 
L 296.378693 104.039472 
L 296.442115 114.476831 
L 296.568958 96.604207 
L 296.632379 110.33064 
L 296.695801 107.613888 
L 296.759222 91.743024 
L 296.822644 100.607727 
L 296.886065 99.035072 
L 297.012908 69.00976 
L 297.07633 68.294768 
L 297.139751 61.145936 
L 297.203172 62.861264 
L 297.330015 70.153312 
L 297.52028 84.737407 
L 297.583701 82.020655 
L 297.647123 83.45064 
L 297.710544 94.602992 
L 297.773966 93.31568 
L 297.900809 70.582416 
L 298.091073 95.889759 
L 298.154495 90.742144 
L 298.217916 93.029791 
L 298.281338 95.603328 
L 298.408181 80.448 
L 298.535024 96.032431 
L 298.598445 94.31656 
L 298.725288 90.456255 
L 298.852131 96.31832 
L 299.042395 104.468032 
L 299.23266 93.029791 
L 299.296081 90.313583 
L 299.422924 115.7636 
L 299.486346 109.043327 
L 299.549767 110.759199 
L 299.613189 109.901535 
L 299.67661 97.033312 
L 299.740032 97.748303 
L 299.866875 113.190064 
L 300.057139 91.314464 
L 300.374246 117.479472 
L 300.437668 117.336255 
L 300.564511 122.19744 
L 300.754775 108.757439 
L 300.818197 107.756559 
L 300.94504 115.477711 
L 301.008461 112.475072 
L 301.071883 114.905936 
L 301.198726 199.120351 
L 301.452412 185.966239 
L 301.579254 195.974768 
L 301.706097 181.105056 
L 301.769519 182.677712 
L 301.83294 181.390943 
L 301.896362 177.530367 
L 301.959783 179.24624 
L 302.150048 189.397712 
L 302.213469 183.96448 
L 302.276891 184.393584 
L 302.340312 189.96976 
L 302.467155 166.235072 
L 302.530577 170.238591 
L 302.65742 195.402719 
L 302.720841 194.688 
L 302.847684 177.101536 
L 302.911106 185.251247 
L 303.037948 171.52536 
L 303.10137 174.098895 
L 303.164791 176.386544 
L 303.291634 172.383024 
L 303.481899 191.399472 
L 303.799006 173.956223 
L 303.925849 181.676832 
L 303.989271 177.24448 
L 304.116114 187.110063 
L 304.242957 174.528 
L 304.306378 182.9636 
L 304.369799 178.674191 
L 304.560064 154.940048 
L 304.81375 138.068304 
L 304.940593 150.65064 
L 305.067436 163.661535 
L 305.574808 121.911551 
L 305.765072 164.519199 
L 305.828493 160.944783 
L 306.018758 148.362992 
L 306.082179 145.217135 
L 306.209022 157.227695 
L 306.335865 145.503024 
L 306.462708 171.52536 
L 306.589551 163.375648 
L 306.652973 166.0924 
L 306.716394 165.805967 
L 306.843237 163.232432 
L 306.906659 165.09152 
L 306.97008 162.374768 
L 307.160345 128.060048 
L 307.223766 139.784176 
L 307.287187 149.506544 
L 307.41403 135.494768 
L 307.731138 161.517104 
L 307.794559 160.658896 
L 307.984824 141.500048 
L 308.111667 143.358591 
L 308.23851 127.916832 
L 308.365353 160.087119 
L 308.428774 155.368607 
L 308.555617 141.785936 
L 308.745881 155.368607 
L 308.872724 142.6436 
L 309.062989 162.803871 
L 309.12641 161.945663 
L 309.316675 143.358591 
L 309.380096 147.648 
L 309.506939 125.771855 
L 309.570361 132.348911 
L 309.633782 131.920352 
L 309.697204 131.348031 
L 309.760625 135.351552 
L 310.014311 111.188304 
L 310.077733 111.617408 
L 310.141154 125.915072 
L 310.204575 124.914192 
L 310.267997 121.053887 
L 310.331418 128.488607 
L 310.458261 113.619168 
L 310.585104 124.1992 
L 310.775369 98.463296 
L 311.219319 148.219776 
L 311.282741 136.352432 
L 311.346162 143.787696 
L 311.409584 157.227695 
L 311.473005 149.506544 
L 311.663269 139.784176 
L 311.726691 136.638319 
L 311.853534 150.07832 
L 311.980377 129.346815 
L 312.10722 153.510063 
L 312.170641 145.074464 
L 312.234063 138.068304 
L 312.297484 140.355952 
L 312.424327 144.502144 
L 312.55117 129.060384 
L 312.678013 144.931248 
L 312.741435 141.213615 
L 312.868278 132.492128 
L 312.931699 139.355072 
L 312.99512 136.781535 
L 313.058542 127.059168 
L 313.121963 134.208 
L 313.185385 147.218896 
L 313.248806 143.64448 
L 313.312228 137.925087 
L 313.439071 147.933887 
L 313.502492 146.361232 
L 313.629335 128.345936 
L 313.692757 128.774496 
L 313.8196 139.069184 
L 313.946443 122.76976 
L 314.136707 148.076559 
L 314.26355 125.20008 
L 314.453814 159.228911 
L 314.580657 129.346815 
L 314.7075 161.088 
L 314.834343 125.771855 
L 314.897765 135.637439 
L 314.961186 153.939168 
L 315.024608 146.503904 
L 315.088029 134.208 
L 315.405137 196.546544 
L 315.468558 190.112704 
L 315.595401 175.957439 
L 315.658823 176.529488 
L 315.785666 147.504784 
L 315.849087 149.935648 
L 316.102773 170.667696 
L 316.166194 169.666816 
L 316.229616 170.238591 
L 316.293037 172.097135 
L 316.41988 160.229791 
L 316.546723 165.09152 
L 316.673566 155.511824 
L 316.736988 157.656256 
L 316.800409 163.232432 
L 316.863831 161.373888 
L 317.117517 145.64624 
L 317.24436 169.237711 
L 317.307781 153.08096 
L 317.371202 165.520079 
L 317.498045 138.783296 
L 317.561467 150.221536 
L 317.624888 148.505664 
L 317.68831 141.64272 
L 317.751731 147.504784 
L 317.815153 145.074464 
L 317.878574 135.923872 
L 318.005417 169.5236 
L 318.068839 165.949184 
L 318.13226 156.941264 
L 318.259103 183.106543 
L 318.385946 159.658016 
L 318.512789 194.688 
L 318.576211 180.533007 
L 318.639632 188.682719 
L 318.703054 213.132127 
L 318.766475 211.130639 
L 318.893318 194.545055 
L 318.956739 197.261535 
L 319.147004 178.531247 
L 319.210425 184.250367 
L 319.273847 182.534768 
L 319.40069 164.233312 
L 319.527533 193.115072 
L 319.654376 179.389184 
L 319.717797 189.96976 
L 319.781219 187.253008 
L 319.84464 188.396832 
L 319.908062 194.688 
L 320.034905 153.652735 
L 320.098326 156.226816 
L 320.161748 159.086239 
L 320.225169 156.655376 
L 320.28859 158.800352 
L 320.478855 189.111824 
L 320.732541 173.52712 
L 320.795962 179.961232 
L 320.859384 175.671551 
L 320.922805 171.811248 
L 320.986227 182.9636 
L 321.049648 182.105664 
L 321.176491 162.946543 
L 321.303334 186.824176 
L 321.366756 175.671551 
L 321.430177 175.957439 
L 321.620441 183.392703 
L 321.747284 171.668576 
L 321.810706 174.242112 
L 321.874127 178.674191 
L 321.937549 175.814767 
L 322.00097 173.956223 
L 322.127813 182.534768 
L 322.254656 156.798592 
L 322.318078 157.08448 
L 322.444921 187.253008 
L 322.571764 173.098015 
L 322.82545 185.823296 
L 323.142557 171.096255 
L 323.205978 173.956223 
L 323.2694 173.383904 
L 323.332821 164.376528 
L 323.396243 167.379168 
L 323.586507 185.966239 
L 323.649929 197.690368 
L 323.71335 194.545055 
L 323.840193 171.668576 
L 323.967036 177.673583 
L 324.093879 173.956223 
L 324.220722 182.820656 
L 324.284144 187.110063 
L 324.410987 169.094495 
L 324.474408 171.811248 
L 324.537829 171.382143 
L 324.664672 159.801232 
L 324.728094 161.517104 
L 324.791515 160.658896 
L 324.918358 154.653615 
L 325.045201 166.806848 
L 325.108623 163.947424 
L 325.172044 161.373888 
L 325.235466 162.660656 
L 325.298887 166.235072 
L 325.362309 162.803871 
L 325.42573 151.794191 
L 325.489152 164.948304 
L 325.679416 146.933007 
L 325.806259 137.353312 
L 325.933102 175.957439 
L 325.996523 163.661535 
L 326.313631 106.469792 
L 326.377052 112.475072 
L 326.440474 109.32976 
L 326.503895 107.470672 
L 326.630738 90.742144 
L 326.757581 120.338896 
L 326.884424 93.744784 
L 327.011267 113.619168 
L 327.074689 107.613888 
L 327.391796 138.21152 
L 327.455217 133.20712 
L 327.58206 118.623024 
L 327.645482 118.908911 
L 327.708903 131.062143 
L 327.772325 128.631824 
L 327.899168 108.185664 
L 328.026011 147.648 
L 328.089432 141.356831 
L 328.152854 129.060384 
L 328.216275 131.205359 
L 328.279697 132.921232 
L 328.40654 125.629183 
L 328.596804 134.493888 
L 328.660226 146.503904 
L 328.723647 146.218015 
L 328.787068 146.503904 
L 328.85049 153.08096 
L 328.913911 152.365967 
L 328.977333 151.794191 
L 329.104176 169.094495 
L 329.231019 142.500383 
L 329.29444 144.359472 
L 329.484705 148.934767 
L 329.548126 151.794191 
L 329.611548 146.075343 
L 329.674969 146.218015 
L 329.738391 149.64976 
L 329.865234 132.778016 
L 329.928655 136.066544 
L 330.055498 135.494768 
L 330.182341 147.362112 
L 330.309184 125.343296 
L 330.689713 164.519199 
L 330.753134 164.09064 
L 330.943399 145.217135 
L 331.070242 160.802112 
L 331.133663 154.367727 
L 331.197085 165.805967 
L 331.260506 165.09152 
L 331.387349 135.065663 
L 331.450771 150.221536 
L 331.514192 144.64536 
L 331.577614 139.069184 
L 331.641035 147.504784 
L 331.704456 146.64712 
L 331.767878 145.64624 
L 331.831299 147.504784 
L 331.894721 140.355952 
L 331.958142 141.928608 
L 332.021564 149.220656 
L 332.148407 137.925087 
L 332.211828 140.212736 
L 332.338671 148.076559 
L 332.402093 147.790671 
L 332.465514 137.496528 
L 332.528936 143.930368 
L 332.592357 161.802992 
L 332.655779 156.941264 
L 332.846043 131.062143 
L 332.909465 127.916832 
L 333.036308 152.652399 
L 333.16315 139.926848 
L 333.289993 147.076223 
L 333.416836 123.913311 
L 333.543679 146.503904 
L 333.607101 138.354192 
L 333.670522 123.913311 
L 333.733944 125.057408 
L 333.797365 130.633584 
L 333.924208 111.045088 
L 334.051051 126.630063 
L 334.114473 123.19832 
L 334.241316 129.2036 
L 334.368159 107.899775 
L 334.558423 144.788576 
L 334.621844 138.21152 
L 334.748687 153.939168 
L 334.87553 120.910671 
L 334.938952 124.342416 
L 335.002373 131.491248 
L 335.129216 103.324479 
L 335.192638 112.475072 
L 335.256059 127.059168 
L 335.319481 121.911551 
L 335.382902 116.478592 
L 335.573167 132.206239 
L 335.70001 124.628303 
L 335.763431 135.494768 
L 335.826853 135.065663 
L 336.080538 104.468032 
L 336.397646 150.507424 
L 336.651332 129.2036 
L 336.714753 129.2036 
L 336.778175 133.636224 
L 336.905018 126.915952 
L 337.031861 133.063903 
L 337.095282 127.630944 
L 337.222125 148.934767 
L 337.348968 129.775376 
L 337.412389 146.361232 
L 337.475811 138.068304 
L 337.602654 93.458896 
L 337.792918 107.470672 
L 337.85634 109.043327 
L 338.046604 131.062143 
L 338.110026 129.632704 
L 338.173447 126.772735 
L 338.363712 146.789791 
L 338.490555 119.195344 
L 338.617398 145.360352 
L 338.680819 145.217135 
L 338.871083 133.922112 
L 338.934505 129.489487 
L 338.997926 129.775376 
L 339.061348 131.348031 
L 339.188191 140.641839 
L 339.315034 125.343296 
L 339.378455 129.2036 
L 339.505298 141.928608 
L 339.56872 141.785936 
L 339.885827 114.76272 
L 340.01267 147.076223 
L 340.076092 136.638319 
L 340.139513 140.355952 
L 340.202935 151.937408 
L 340.329777 129.346815 
L 340.45662 150.07832 
L 340.583463 136.781535 
L 340.646885 126.915952 
L 340.710306 133.20712 
L 340.773728 145.64624 
L 340.837149 142.500383 
L 340.900571 143.072704 
L 341.027414 163.375648 
L 341.154257 155.511824 
L 341.217678 156.798592 
L 341.598207 139.640959 
L 341.661629 143.930368 
L 341.72505 180.390063 
L 341.788471 175.671551 
L 341.915314 165.949184 
L 342.042157 174.098895 
L 342.105579 172.669456 
L 342.549529 157.799472 
L 342.739794 168.380047 
L 342.803215 164.662415 
L 342.866637 165.949184 
L 343.056901 144.216255 
L 343.120323 145.932128 
L 343.247165 166.806848 
L 343.310587 160.658896 
L 343.374008 141.213615 
L 343.43743 146.361232 
L 343.500851 158.943023 
L 343.564273 153.939168 
L 343.627694 149.363872 
L 343.754537 156.798592 
L 343.817959 156.512704 
L 343.88138 156.369487 
L 344.008223 168.951824 
L 344.071645 168.236832 
L 344.135066 165.520079 
L 344.198488 168.093616 
L 344.261909 167.950944 
L 344.579016 151.365088 
L 344.705859 162.08888 
L 344.769281 153.652735 
L 344.832702 157.370367 
L 344.896124 169.237711 
L 344.959545 166.378288 
L 345.213231 140.070064 
L 345.403496 127.916832 
L 345.466917 129.060384 
L 345.59376 162.51744 
L 345.657182 160.373008 
L 345.720603 151.937408 
L 345.784025 157.656256 
L 345.847446 155.511824 
L 346.164553 119.623904 
L 346.291396 151.365088 
L 346.354818 167.09328 
L 346.418239 161.230672 
L 346.608504 147.790671 
L 346.671925 145.360352 
L 346.798768 155.654496 
L 346.86219 146.075343 
L 346.925611 146.361232 
L 347.052454 164.805087 
L 347.179297 155.654496 
L 347.242719 158.657136 
L 347.30614 157.799472 
L 347.369562 157.799472 
L 347.559826 165.805967 
L 347.686669 141.785936 
L 347.75009 125.915072 
L 347.813512 130.919472 
L 347.876933 140.070064 
L 347.940355 135.923872 
L 348.003776 136.781535 
L 348.130619 148.791551 
L 348.257462 146.218015 
L 348.384305 154.940048 
L 348.511148 120.624784 
L 348.57457 124.056528 
L 348.637991 130.204479 
L 348.701413 128.060048 
L 348.764834 128.060048 
L 348.828256 126.915952 
L 349.01852 150.65064 
L 349.081941 145.074464 
L 349.145363 142.929488 
L 349.272206 148.791551 
L 349.335627 148.219776 
L 349.46247 138.783296 
L 349.652735 163.08976 
L 349.716156 158.514464 
L 349.779578 147.076223 
L 349.906421 107.470672 
L 349.969842 109.901535 
L 350.096685 94.173888 
L 350.160107 111.33152 
L 350.223528 109.758319 
L 350.28695 105.612128 
L 350.350371 115.620383 
L 350.667478 86.595951 
L 350.794321 100.750944 
L 350.857743 97.748303 
L 350.921164 107.328 
L 350.984586 103.896256 
L 351.048007 95.31744 
L 351.111429 99.178288 
L 351.17485 99.178288 
L 351.301693 84.88008 
L 351.365115 86.024176 
L 351.745644 115.620383 
L 351.809065 116.76448 
L 351.935908 107.899775 
L 351.999329 115.620383 
L 352.062751 115.477711 
L 352.189594 105.755344 
L 352.253015 106.041232 
L 352.316437 104.039472 
L 352.379858 105.468912 
L 352.44328 108.185664 
L 352.570123 95.460656 
L 352.696966 116.76448 
L 352.823809 106.469792 
L 352.950652 117.336255 
L 353.014073 111.33152 
L 353.140916 91.457136 
L 353.267759 110.044207 
L 353.33118 109.32976 
L 353.394602 107.470672 
L 353.458023 102.180383 
L 353.584866 112.760959 
L 353.648288 101.894496 
L 353.711709 104.468032 
L 353.775131 117.622144 
L 353.838552 109.472432 
L 353.901974 89.741264 
L 353.965395 92.88712 
L 354.028817 110.33064 
L 354.092238 108.757439 
L 354.219081 91.88624 
L 354.345924 96.31832 
L 354.409346 95.460656 
L 354.472767 91.171247 
L 354.536189 91.314464 
L 354.663031 102.180383 
L 354.853296 92.743904 
L 355.04356 116.478592 
L 355.170403 104.611248 
L 355.297246 126.20096 
L 355.424089 103.896256 
L 355.487511 113.046848 
L 355.550932 124.914192 
L 355.677775 99.035072 
L 355.741197 104.468032 
L 355.931461 147.790671 
L 355.994883 153.366847 
L 356.058304 150.507424 
L 356.502254 109.615648 
L 356.565676 110.33064 
L 356.75594 130.919472 
L 356.819362 128.774496 
L 356.882783 129.489487 
L 356.946205 130.061263 
L 357.073048 128.345936 
L 357.199891 131.634464 
L 357.326734 127.487727 
L 357.453577 130.776256 
L 357.580419 127.630944 
L 357.707262 120.624784 
L 357.834105 132.063023 
L 357.897527 127.630944 
L 357.960948 145.360352 
L 358.087791 120.624784 
L 358.214634 140.927728 
L 358.278056 132.778016 
L 358.341477 138.783296 
L 358.404899 136.20976 
L 358.46832 127.059168 
L 358.595163 151.508304 
L 358.658585 145.788912 
L 358.722006 141.64272 
L 358.848849 149.220656 
L 358.975692 139.498288 
L 359.102535 169.952704 
L 359.165956 160.087119 
L 359.229378 160.229791 
L 359.356221 180.818896 
L 359.483064 162.660656 
L 359.546485 164.805087 
L 359.673328 149.935648 
L 359.73675 152.652399 
L 359.800171 161.088 
L 359.863593 159.658016 
L 359.990436 152.08008 
L 360.117279 173.383904 
L 360.1807 168.808608 
L 360.244122 160.516224 
L 360.307543 166.664175 
L 360.497807 177.816527 
L 360.62465 142.214495 
L 360.688072 144.073584 
L 360.878336 152.795072 
L 361.068601 185.537408 
L 361.258865 168.665936 
L 361.322287 174.242112 
L 361.385708 182.534768 
L 361.44913 177.673583 
L 361.512551 171.096255 
L 361.639394 180.24712 
L 361.766237 168.808608 
L 361.89308 192.400352 
L 362.019923 182.9636 
L 362.210187 196.975648 
L 362.273609 194.115952 
L 362.33703 192.543295 
L 362.463873 201.408 
L 362.527295 199.120351 
L 362.590716 195.545936 
L 362.717559 207.698896 
L 362.844402 180.390063 
L 362.907824 191.113584 
L 363.034667 214.418896 
L 363.16151 211.416528 
L 363.224931 211.130639 
L 363.288352 213.132127 
L 363.415195 221.568 
L 363.60546 193.973008 
L 363.668881 198.977408 
L 363.732303 198.548304 
L 363.922567 193.401232 
L 364.04941 211.559472 
L 364.112832 206.698288 
L 364.239675 226.572128 
L 364.303096 219.280352 
L 364.366518 206.269184 
L 364.429939 208.270943 
L 364.620204 214.990943 
L 364.747046 203.552704 
L 364.873889 218.279472 
L 365.000732 204.839472 
L 365.127575 208.84272 
L 365.254418 216.277712 
L 365.381261 202.837711 
L 365.444683 203.838591 
L 365.508104 208.128 
L 365.571526 207.270064 
L 365.698369 210.415648 
L 365.825212 200.978895 
L 365.888633 210.12976 
L 366.015476 184.679472 
L 366.20574 142.500383 
L 366.269162 145.64624 
L 366.396005 133.349792 
L 366.522848 172.383024 
L 366.586269 162.374768 
L 366.839955 113.76184 
L 366.903377 108.471552 
L 366.966798 110.187424 
L 367.093641 108.185664 
L 367.220484 88.311824 
L 367.347327 110.187424 
L 367.47417 87.167728 
L 367.537592 98.749183 
L 367.601013 94.745664 
L 367.664434 90.599472 
L 367.981542 130.061263 
L 368.044963 126.772735 
L 368.171806 108.185664 
L 368.298649 123.627424 
L 368.362071 118.194463 
L 368.488914 105.612128 
L 368.679178 129.918592 
L 368.7426 128.488607 
L 368.806021 129.632704 
L 368.932864 120.338896 
L 369.059707 132.921232 
L 369.18655 123.913311 
L 369.440236 149.64976 
L 369.567079 133.922112 
L 369.693922 149.935648 
L 369.820765 124.914192 
L 369.947608 131.634464 
L 370.011029 130.490368 
L 370.074451 131.920352 
L 370.201294 127.20184 
L 370.264715 131.062143 
L 370.328137 128.20272 
L 370.454979 106.898896 
L 370.518401 112.904176 
L 370.581822 111.617408 
L 370.645244 114.047728 
L 370.708665 128.345936 
L 370.772087 125.057408 
L 370.962351 103.038592 
L 371.025773 104.611248 
L 371.34288 131.634464 
L 371.533145 110.044207 
L 371.596566 115.7636 
L 371.659988 114.190944 
L 371.723409 109.901535 
L 371.850252 119.623904 
L 371.913673 109.758319 
L 371.977095 109.901535 
L 372.040516 112.331856 
L 372.167359 92.028911 
L 372.294202 112.475072 
L 372.357624 104.468032 
L 372.421045 108.614768 
L 372.547888 105.612128 
L 372.61131 114.047728 
L 372.801574 88.597712 
L 372.864996 93.744784 
L 372.991839 96.31832 
L 373.05526 90.742144 
L 373.118682 93.888 
L 373.182103 113.475951 
L 373.245525 113.332735 
L 373.372367 75.443599 
L 373.435789 78.303023 
L 373.49921 77.874464 
L 373.626053 95.603328 
L 373.752896 79.161231 
L 373.816318 95.031551 
L 373.879739 93.602112 
L 374.006582 62.432703 
L 374.133425 80.162112 
L 374.196847 77.588032 
L 374.32369 65.292127 
L 374.387111 68.294768 
L 374.513954 56.284208 
L 374.640797 73.44184 
L 374.704219 71.154192 
L 374.831061 79.589792 
L 374.957904 53.568 
L 375.148169 91.88624 
L 375.21159 88.597712 
L 375.338433 102.323599 
L 375.465276 77.159472 
L 375.528698 83.307424 
L 375.592119 99.606847 
L 375.655541 87.88272 
L 375.718962 66.00712 
L 375.782384 72.011856 
L 375.909227 91.028031 
L 375.972648 86.595951 
L 376.162913 116.621264 
L 376.289755 94.31656 
L 376.416598 113.905056 
L 376.670284 85.451855 
L 376.987392 117.193584 
L 377.241078 104.039472 
L 377.367921 108.757439 
L 377.494764 93.173007 
L 377.558185 95.460656 
L 377.621606 95.31744 
L 377.685028 90.742144 
L 377.811871 109.043327 
L 377.875292 105.898016 
L 377.938714 103.753584 
L 378.002135 115.477711 
L 378.065557 109.758319 
L 378.128978 87.88272 
L 378.1924 89.741264 
L 378.255821 91.314464 
L 378.319243 81.44888 
L 378.382664 88.168608 
L 378.63635 116.049488 
L 378.699772 115.334495 
L 378.763193 111.760079 
L 378.890036 130.776256 
L 378.953458 128.631824 
L 379.0803 103.467151 
L 379.270565 125.629183 
L 379.397408 129.775376 
L 379.524251 109.186544 
L 379.587672 112.760959 
L 379.777937 116.76448 
L 379.90478 108.614768 
L 379.968201 113.046848 
L 380.095044 126.486847 
L 380.475573 106.469792 
L 380.602416 129.632704 
L 380.665837 110.902416 
L 380.729259 117.050368 
L 380.79268 133.20712 
L 380.919523 112.760959 
L 381.046366 129.346815 
L 381.236631 111.33152 
L 381.300052 113.190064 
L 381.61716 139.355072 
L 381.680581 130.919472 
L 381.744003 132.778016 
L 381.807424 138.068304 
L 381.934267 124.914192 
L 382.06111 130.061263 
L 382.124531 130.204479 
L 382.187953 137.925087 
L 382.251374 137.21064 
L 382.314796 208.699776 
L 382.378217 194.115952 
L 382.441639 194.258895 
L 382.50506 202.980655 
L 382.568482 199.835071 
L 382.631903 198.834192 
L 382.758746 204.12448 
L 382.885589 196.546544 
L 383.012432 199.40624 
L 383.139275 194.973888 
L 383.202697 196.260655 
L 383.32954 208.699776 
L 383.710068 174.957103 
L 383.836911 205.12536 
L 383.900333 203.40976 
L 384.027176 176.815647 
L 384.090597 188.968879 
L 384.154019 183.96448 
L 384.21744 177.24448 
L 384.280862 179.818016 
L 384.344283 181.533887 
L 384.407705 180.675952 
L 384.471126 177.816527 
L 384.534548 178.960352 
L 384.724812 201.979775 
L 384.851655 191.256528 
L 384.978498 179.961232 
L 385.041919 185.680352 
L 385.105341 183.535648 
L 385.168762 177.24448 
L 385.295605 185.108303 
L 385.359027 178.102416 
L 385.422448 179.961232 
L 385.48587 190.684479 
L 385.549291 188.682719 
L 385.739556 164.233312 
L 385.802977 164.233312 
L 385.866399 163.08976 
L 385.993242 146.503904 
L 386.056663 146.933007 
L 386.183506 170.381263 
L 386.246927 166.0924 
L 386.310349 163.375648 
L 386.37377 166.0924 
L 386.500613 158.085359 
L 386.564035 160.658896 
L 386.627456 159.228911 
L 386.754299 135.780655 
L 386.817721 142.357711 
L 386.944564 177.24448 
L 387.071407 163.661535 
L 387.134828 168.665936 
L 387.261671 154.796832 
L 387.388514 180.390063 
L 387.451936 171.382143 
L 387.515357 164.376528 
L 387.6422 179.389184 
L 387.705621 178.817408 
L 387.769043 181.819776 
L 387.895886 177.530367 
L 388.022729 186.967119 
L 388.149572 183.535648 
L 388.339836 152.509183 
L 388.403258 160.802112 
L 388.466679 167.09328 
L 388.530101 161.517104 
L 388.593522 161.802992 
L 388.974051 188.968879 
L 389.100894 160.087119 
L 389.164315 168.093616 
L 389.227737 171.52536 
L 389.291158 163.08976 
L 389.35458 164.519199 
L 389.481423 172.812128 
L 389.608266 189.826543 
L 389.735109 180.96184 
L 389.79853 182.9636 
L 389.988795 174.242112 
L 390.052216 166.806848 
L 390.115638 171.382143 
L 390.242481 191.685359 
L 390.305902 189.111824 
L 390.369324 176.672704 
L 390.496167 109.615648 
L 390.559588 113.619168 
L 390.686431 86.88184 
L 390.749852 95.603328 
L 390.813274 97.033312 
L 390.876695 95.603328 
L 390.940117 99.606847 
L 391.257224 74.442719 
L 391.384067 99.32096 
L 391.574332 91.743024 
L 391.637753 90.170368 
L 391.701175 97.3192 
L 391.891439 72.584176 
L 392.018282 74.156832 
L 392.398811 112.760959 
L 392.462232 90.170368 
L 392.525654 91.600352 
L 392.652497 121.339776 
L 392.77934 91.314464 
L 393.033026 108.614768 
L 393.159869 90.456255 
L 393.286712 110.044207 
L 393.350133 104.754464 
L 393.413554 99.464176 
L 393.476976 102.895376 
L 393.603819 113.332735 
L 393.730662 97.462416 
L 393.857505 113.190064 
L 393.920926 108.32888 
L 393.984348 108.614768 
L 394.111191 112.045968 
L 394.238034 106.32712 
L 394.301455 107.470672 
L 394.364877 112.045968 
L 394.428298 111.188304 
L 394.49172 106.613008 
L 394.555141 107.756559 
L 394.681984 116.192704 
L 394.808827 99.035072 
L 394.872248 91.028031 
L 394.93567 96.31832 
L 394.999091 99.464176 
L 395.062513 92.458016 
L 395.125934 96.175648 
L 395.252777 114.76272 
L 395.443042 108.900655 
L 395.633306 135.637439 
L 395.760149 107.756559 
L 395.886992 139.784176 
L 396.013835 105.183023 
L 396.077257 117.479472 
L 396.140678 132.635344 
L 396.267521 104.182143 
L 396.584628 168.522719 
L 396.901736 138.21152 
L 396.965157 127.487727 
L 397.028579 129.2036 
L 397.155422 126.344176 
L 397.282265 148.219776 
L 397.409108 135.780655 
L 397.472529 150.221536 
L 397.535951 141.070944 
L 397.599372 123.341536 
L 397.662794 130.633584 
L 397.726215 139.926848 
L 397.789636 133.349792 
L 397.853058 125.629183 
L 397.916479 127.059168 
L 398.043322 138.354192 
L 398.297008 123.913311 
L 398.423851 130.490368 
L 398.487273 123.770639 
L 398.487273 123.770639 
" clip-path="url(#p1ba980b39f)" style="fill: none; stroke: #1f77b4; stroke-width: 1.5; stroke-linecap: square"/>
   </g>
   <g id="patch_3">
    <path d="M 57.6 307.584 
L 57.6 41.472 
" style="fill: none; stroke: #000000; stroke-width: 0.8; stroke-linejoin: miter; stroke-linecap: square"/>
   </g>
   <g id="patch_4">
    <path d="M 414.72 307.584 
L 414.72 41.472 
" style="fill: none; stroke: #000000; stroke-width: 0.8; stroke-linejoin: miter; stroke-linecap: square"/>
   </g>
   <g id="patch_5">
    <path d="M 57.6 307.584 
L 414.72 307.584 
" style="fill: none; stroke: #000000; stroke-width: 0.8; stroke-linejoin: miter; stroke-linecap: square"/>
   </g>
   <g id="patch_6">
    <path d="M 57.6 41.472 
L 414.72 41.472 
" style="fill: none; stroke: #000000; stroke-width: 0.8; stroke-linejoin: miter; stroke-linecap: square"/>
   </g>
   <g id="legend_1">
    <g id="patch_7">
     <path d="M 64.6 64.150125 
L 118.245312 64.150125 
Q 120.245312 64.150125 120.245312 62.150125 
L 120.245312 48.472 
Q 120.245312 46.472 118.245312 46.472 
L 64.6 46.472 
Q 62.6 46.472 62.6 48.472 
L 62.6 62.150125 
Q 62.6 64.150125 64.6 64.150125 
z
" style="fill: #ffffff; opacity: 0.8; stroke: #cccccc; stroke-linejoin: miter"/>
    </g>
    <g id="line2d_13">
     <path d="M 66.6 54.570438 
L 76.6 54.570438 
L 86.6 54.570438 
" style="fill: none; stroke: #1f77b4; stroke-width: 1.5; stroke-linecap: square"/>
    </g>
    <g id="text_12">
     <!-- set3 -->
     <g transform="translate(94.6 58.070438)scale(0.1 -0.1)">
      <defs>
       <path id="DejaVuSans-73" d="M 2834 3397 
L 2834 2853 
Q 2591 2978 2328 3040 
Q 2066 3103 1784 3103 
Q 1356 3103 1142 2972 
Q 928 2841 928 2578 
Q 928 2378 1081 2264 
Q 1234 2150 1697 2047 
L 1894 2003 
Q 2506 1872 2764 1633 
Q 3022 1394 3022 966 
Q 3022 478 2636 193 
Q 2250 -91 1575 -91 
Q 1294 -91 989 -36 
Q 684 19 347 128 
L 347 722 
Q 666 556 975 473 
Q 1284 391 1588 391 
Q 1994 391 2212 530 
Q 2431 669 2431 922 
Q 2431 1156 2273 1281 
Q 2116 1406 1581 1522 
L 1381 1569 
Q 847 1681 609 1914 
Q 372 2147 372 2553 
Q 372 3047 722 3315 
Q 1072 3584 1716 3584 
Q 2034 3584 2315 3537 
Q 2597 3491 2834 3397 
z
" transform="scale(0.015625)"/>
       <path id="DejaVuSans-65" d="M 3597 1894 
L 3597 1613 
L 953 1613 
Q 991 1019 1311 708 
Q 1631 397 2203 397 
Q 2534 397 2845 478 
Q 3156 559 3463 722 
L 3463 178 
Q 3153 47 2828 -22 
Q 2503 -91 2169 -91 
Q 1331 -91 842 396 
Q 353 884 353 1716 
Q 353 2575 817 3079 
Q 1281 3584 2069 3584 
Q 2775 3584 3186 3129 
Q 3597 2675 3597 1894 
z
M 3022 2063 
Q 3016 2534 2758 2815 
Q 2500 3097 2075 3097 
Q 1594 3097 1305 2825 
Q 1016 2553 972 2059 
L 3022 2063 
z
" transform="scale(0.015625)"/>
       <path id="DejaVuSans-74" d="M 1172 4494 
L 1172 3500 
L 2356 3500 
L 2356 3053 
L 1172 3053 
L 1172 1153 
Q 1172 725 1289 603 
Q 1406 481 1766 481 
L 2356 481 
L 2356 0 
L 1766 0 
Q 1100 0 847 248 
Q 594 497 594 1153 
L 594 3053 
L 172 3053 
L 172 3500 
L 594 3500 
L 594 4494 
L 1172 4494 
z
" transform="scale(0.015625)"/>
      </defs>
      <use xlink:href="#DejaVuSans-73"/>
      <use xlink:href="#DejaVuSans-65" x="52.099609"/>
      <use xlink:href="#DejaVuSans-74" x="113.623047"/>
      <use xlink:href="#DejaVuSans-33" x="152.832031"/>
     </g>
    </g>
   </g>
  </g>
 </g>
 <defs>
  <clipPath id="p1ba980b39f">
   <rect x="57.6" y="41.472" width="357.12" height="266.112"/>
  </clipPath>
 </defs>
</svg>
