<?xml version="1.0" encoding="utf-8" standalone="no"?>
<!DOCTYPE svg PUBLIC "-//W3C//DTD SVG 1.1//EN"
  "http://www.w3.org/Graphics/SVG/1.1/DTD/svg11.dtd">
<svg xmlns:xlink="http://www.w3.org/1999/xlink" width="460.8pt" height="345.6pt" viewBox="0 0 460.8 345.6" xmlns="http://www.w3.org/2000/svg" version="1.1">
 <metadata>
  <rdf:RDF xmlns:dc="http://purl.org/dc/elements/1.1/" xmlns:cc="http://creativecommons.org/ns#" xmlns:rdf="http://www.w3.org/1999/02/22-rdf-syntax-ns#">
   <cc:Work>
    <dc:type rdf:resource="http://purl.org/dc/dcmitype/StillImage"/>
    <dc:date>2022-08-11T20:38:47.413680</dc:date>
    <dc:format>image/svg+xml</dc:format>
    <dc:creator>
     <cc:Agent>
      <dc:title>Matplotlib v3.5.2, https://matplotlib.org/</dc:title>
     </cc:Agent>
    </dc:creator>
   </cc:Work>
  </rdf:RDF>
 </metadata>
 <defs>
  <style type="text/css">*{stroke-linejoin: round; stroke-linecap: butt}</style>
 </defs>
 <g id="figure_1">
  <g id="patch_1">
   <path d="M 0 345.6 
L 460.8 345.6 
L 460.8 0 
L 0 0 
z
" style="fill: #ffffff"/>
  </g>
  <g id="axes_1">
   <g id="patch_2">
    <path d="M 57.6 307.584 
L 414.72 307.584 
L 414.72 41.472 
L 57.6 41.472 
z
" style="fill: #ffffff"/>
   </g>
   <g id="matplotlib.axis_1">
    <g id="xtick_1">
     <g id="line2d_1">
      <defs>
       <path id="m343f4fbc46" d="M 0 0 
L 0 3.5 
" style="stroke: #000000; stroke-width: 0.8"/>
      </defs>
      <g>
       <use xlink:href="#m343f4fbc46" x="73.832727" y="307.584" style="stroke: #000000; stroke-width: 0.8"/>
      </g>
     </g>
     <g id="text_1">
      <!-- 0 -->
      <g transform="translate(70.651477 322.182437)scale(0.1 -0.1)">
       <defs>
        <path id="DejaVuSans-30" d="M 2034 4250 
Q 1547 4250 1301 3770 
Q 1056 3291 1056 2328 
Q 1056 1369 1301 889 
Q 1547 409 2034 409 
Q 2525 409 2770 889 
Q 3016 1369 3016 2328 
Q 3016 3291 2770 3770 
Q 2525 4250 2034 4250 
z
M 2034 4750 
Q 2819 4750 3233 4129 
Q 3647 3509 3647 2328 
Q 3647 1150 3233 529 
Q 2819 -91 2034 -91 
Q 1250 -91 836 529 
Q 422 1150 422 2328 
Q 422 3509 836 4129 
Q 1250 4750 2034 4750 
z
" transform="scale(0.015625)"/>
       </defs>
       <use xlink:href="#DejaVuSans-30"/>
      </g>
     </g>
    </g>
    <g id="xtick_2">
     <g id="line2d_2">
      <g>
       <use xlink:href="#m343f4fbc46" x="124.71902" y="307.584" style="stroke: #000000; stroke-width: 0.8"/>
      </g>
     </g>
     <g id="text_2">
      <!-- 50 -->
      <g transform="translate(118.35652 322.182437)scale(0.1 -0.1)">
       <defs>
        <path id="DejaVuSans-35" d="M 691 4666 
L 3169 4666 
L 3169 4134 
L 1269 4134 
L 1269 2991 
Q 1406 3038 1543 3061 
Q 1681 3084 1819 3084 
Q 2600 3084 3056 2656 
Q 3513 2228 3513 1497 
Q 3513 744 3044 326 
Q 2575 -91 1722 -91 
Q 1428 -91 1123 -41 
Q 819 9 494 109 
L 494 744 
Q 775 591 1075 516 
Q 1375 441 1709 441 
Q 2250 441 2565 725 
Q 2881 1009 2881 1497 
Q 2881 1984 2565 2268 
Q 2250 2553 1709 2553 
Q 1456 2553 1204 2497 
Q 953 2441 691 2322 
L 691 4666 
z
" transform="scale(0.015625)"/>
       </defs>
       <use xlink:href="#DejaVuSans-35"/>
       <use xlink:href="#DejaVuSans-30" x="63.623047"/>
      </g>
     </g>
    </g>
    <g id="xtick_3">
     <g id="line2d_3">
      <g>
       <use xlink:href="#m343f4fbc46" x="175.605312" y="307.584" style="stroke: #000000; stroke-width: 0.8"/>
      </g>
     </g>
     <g id="text_3">
      <!-- 100 -->
      <g transform="translate(166.061562 322.182437)scale(0.1 -0.1)">
       <defs>
        <path id="DejaVuSans-31" d="M 794 531 
L 1825 531 
L 1825 4091 
L 703 3866 
L 703 4441 
L 1819 4666 
L 2450 4666 
L 2450 531 
L 3481 531 
L 3481 0 
L 794 0 
L 794 531 
z
" transform="scale(0.015625)"/>
       </defs>
       <use xlink:href="#DejaVuSans-31"/>
       <use xlink:href="#DejaVuSans-30" x="63.623047"/>
       <use xlink:href="#DejaVuSans-30" x="127.246094"/>
      </g>
     </g>
    </g>
    <g id="xtick_4">
     <g id="line2d_4">
      <g>
       <use xlink:href="#m343f4fbc46" x="226.491604" y="307.584" style="stroke: #000000; stroke-width: 0.8"/>
      </g>
     </g>
     <g id="text_4">
      <!-- 150 -->
      <g transform="translate(216.947854 322.182437)scale(0.1 -0.1)">
       <use xlink:href="#DejaVuSans-31"/>
       <use xlink:href="#DejaVuSans-35" x="63.623047"/>
       <use xlink:href="#DejaVuSans-30" x="127.246094"/>
      </g>
     </g>
    </g>
    <g id="xtick_5">
     <g id="line2d_5">
      <g>
       <use xlink:href="#m343f4fbc46" x="277.377897" y="307.584" style="stroke: #000000; stroke-width: 0.8"/>
      </g>
     </g>
     <g id="text_5">
      <!-- 200 -->
      <g transform="translate(267.834147 322.182437)scale(0.1 -0.1)">
       <defs>
        <path id="DejaVuSans-32" d="M 1228 531 
L 3431 531 
L 3431 0 
L 469 0 
L 469 531 
Q 828 903 1448 1529 
Q 2069 2156 2228 2338 
Q 2531 2678 2651 2914 
Q 2772 3150 2772 3378 
Q 2772 3750 2511 3984 
Q 2250 4219 1831 4219 
Q 1534 4219 1204 4116 
Q 875 4013 500 3803 
L 500 4441 
Q 881 4594 1212 4672 
Q 1544 4750 1819 4750 
Q 2544 4750 2975 4387 
Q 3406 4025 3406 3419 
Q 3406 3131 3298 2873 
Q 3191 2616 2906 2266 
Q 2828 2175 2409 1742 
Q 1991 1309 1228 531 
z
" transform="scale(0.015625)"/>
       </defs>
       <use xlink:href="#DejaVuSans-32"/>
       <use xlink:href="#DejaVuSans-30" x="63.623047"/>
       <use xlink:href="#DejaVuSans-30" x="127.246094"/>
      </g>
     </g>
    </g>
    <g id="xtick_6">
     <g id="line2d_6">
      <g>
       <use xlink:href="#m343f4fbc46" x="328.264189" y="307.584" style="stroke: #000000; stroke-width: 0.8"/>
      </g>
     </g>
     <g id="text_6">
      <!-- 250 -->
      <g transform="translate(318.720439 322.182437)scale(0.1 -0.1)">
       <use xlink:href="#DejaVuSans-32"/>
       <use xlink:href="#DejaVuSans-35" x="63.623047"/>
       <use xlink:href="#DejaVuSans-30" x="127.246094"/>
      </g>
     </g>
    </g>
    <g id="xtick_7">
     <g id="line2d_7">
      <g>
       <use xlink:href="#m343f4fbc46" x="379.150482" y="307.584" style="stroke: #000000; stroke-width: 0.8"/>
      </g>
     </g>
     <g id="text_7">
      <!-- 300 -->
      <g transform="translate(369.606732 322.182437)scale(0.1 -0.1)">
       <defs>
        <path id="DejaVuSans-33" d="M 2597 2516 
Q 3050 2419 3304 2112 
Q 3559 1806 3559 1356 
Q 3559 666 3084 287 
Q 2609 -91 1734 -91 
Q 1441 -91 1130 -33 
Q 819 25 488 141 
L 488 750 
Q 750 597 1062 519 
Q 1375 441 1716 441 
Q 2309 441 2620 675 
Q 2931 909 2931 1356 
Q 2931 1769 2642 2001 
Q 2353 2234 1838 2234 
L 1294 2234 
L 1294 2753 
L 1863 2753 
Q 2328 2753 2575 2939 
Q 2822 3125 2822 3475 
Q 2822 3834 2567 4026 
Q 2313 4219 1838 4219 
Q 1578 4219 1281 4162 
Q 984 4106 628 3988 
L 628 4550 
Q 988 4650 1302 4700 
Q 1616 4750 1894 4750 
Q 2613 4750 3031 4423 
Q 3450 4097 3450 3541 
Q 3450 3153 3228 2886 
Q 3006 2619 2597 2516 
z
" transform="scale(0.015625)"/>
       </defs>
       <use xlink:href="#DejaVuSans-33"/>
       <use xlink:href="#DejaVuSans-30" x="63.623047"/>
       <use xlink:href="#DejaVuSans-30" x="127.246094"/>
      </g>
     </g>
    </g>
   </g>
   <g id="matplotlib.axis_2">
    <g id="ytick_1">
     <g id="line2d_8">
      <defs>
       <path id="m8121527e1b" d="M 0 0 
L -3.5 0 
" style="stroke: #000000; stroke-width: 0.8"/>
      </defs>
      <g>
       <use xlink:href="#m8121527e1b" x="57.6" y="273.645857" style="stroke: #000000; stroke-width: 0.8"/>
      </g>
     </g>
     <g id="text_8">
      <!-- 4 -->
      <g transform="translate(44.2375 277.445076)scale(0.1 -0.1)">
       <defs>
        <path id="DejaVuSans-34" d="M 2419 4116 
L 825 1625 
L 2419 1625 
L 2419 4116 
z
M 2253 4666 
L 3047 4666 
L 3047 1625 
L 3713 1625 
L 3713 1100 
L 3047 1100 
L 3047 0 
L 2419 0 
L 2419 1100 
L 313 1100 
L 313 1709 
L 2253 4666 
z
" transform="scale(0.015625)"/>
       </defs>
       <use xlink:href="#DejaVuSans-34"/>
      </g>
     </g>
    </g>
    <g id="ytick_2">
     <g id="line2d_9">
      <g>
       <use xlink:href="#m8121527e1b" x="57.6" y="235.772723" style="stroke: #000000; stroke-width: 0.8"/>
      </g>
     </g>
     <g id="text_9">
      <!-- 6 -->
      <g transform="translate(44.2375 239.571942)scale(0.1 -0.1)">
       <defs>
        <path id="DejaVuSans-36" d="M 2113 2584 
Q 1688 2584 1439 2293 
Q 1191 2003 1191 1497 
Q 1191 994 1439 701 
Q 1688 409 2113 409 
Q 2538 409 2786 701 
Q 3034 994 3034 1497 
Q 3034 2003 2786 2293 
Q 2538 2584 2113 2584 
z
M 3366 4563 
L 3366 3988 
Q 3128 4100 2886 4159 
Q 2644 4219 2406 4219 
Q 1781 4219 1451 3797 
Q 1122 3375 1075 2522 
Q 1259 2794 1537 2939 
Q 1816 3084 2150 3084 
Q 2853 3084 3261 2657 
Q 3669 2231 3669 1497 
Q 3669 778 3244 343 
Q 2819 -91 2113 -91 
Q 1303 -91 875 529 
Q 447 1150 447 2328 
Q 447 3434 972 4092 
Q 1497 4750 2381 4750 
Q 2619 4750 2861 4703 
Q 3103 4656 3366 4563 
z
" transform="scale(0.015625)"/>
       </defs>
       <use xlink:href="#DejaVuSans-36"/>
      </g>
     </g>
    </g>
    <g id="ytick_3">
     <g id="line2d_10">
      <g>
       <use xlink:href="#m8121527e1b" x="57.6" y="197.899589" style="stroke: #000000; stroke-width: 0.8"/>
      </g>
     </g>
     <g id="text_10">
      <!-- 8 -->
      <g transform="translate(44.2375 201.698808)scale(0.1 -0.1)">
       <defs>
        <path id="DejaVuSans-38" d="M 2034 2216 
Q 1584 2216 1326 1975 
Q 1069 1734 1069 1313 
Q 1069 891 1326 650 
Q 1584 409 2034 409 
Q 2484 409 2743 651 
Q 3003 894 3003 1313 
Q 3003 1734 2745 1975 
Q 2488 2216 2034 2216 
z
M 1403 2484 
Q 997 2584 770 2862 
Q 544 3141 544 3541 
Q 544 4100 942 4425 
Q 1341 4750 2034 4750 
Q 2731 4750 3128 4425 
Q 3525 4100 3525 3541 
Q 3525 3141 3298 2862 
Q 3072 2584 2669 2484 
Q 3125 2378 3379 2068 
Q 3634 1759 3634 1313 
Q 3634 634 3220 271 
Q 2806 -91 2034 -91 
Q 1263 -91 848 271 
Q 434 634 434 1313 
Q 434 1759 690 2068 
Q 947 2378 1403 2484 
z
M 1172 3481 
Q 1172 3119 1398 2916 
Q 1625 2713 2034 2713 
Q 2441 2713 2670 2916 
Q 2900 3119 2900 3481 
Q 2900 3844 2670 4047 
Q 2441 4250 2034 4250 
Q 1625 4250 1398 4047 
Q 1172 3844 1172 3481 
z
" transform="scale(0.015625)"/>
       </defs>
       <use xlink:href="#DejaVuSans-38"/>
      </g>
     </g>
    </g>
    <g id="ytick_4">
     <g id="line2d_11">
      <g>
       <use xlink:href="#m8121527e1b" x="57.6" y="160.026454" style="stroke: #000000; stroke-width: 0.8"/>
      </g>
     </g>
     <g id="text_11">
      <!-- 10 -->
      <g transform="translate(37.875 163.825673)scale(0.1 -0.1)">
       <use xlink:href="#DejaVuSans-31"/>
       <use xlink:href="#DejaVuSans-30" x="63.623047"/>
      </g>
     </g>
    </g>
    <g id="ytick_5">
     <g id="line2d_12">
      <g>
       <use xlink:href="#m8121527e1b" x="57.6" y="122.15332" style="stroke: #000000; stroke-width: 0.8"/>
      </g>
     </g>
     <g id="text_12">
      <!-- 12 -->
      <g transform="translate(37.875 125.952539)scale(0.1 -0.1)">
       <use xlink:href="#DejaVuSans-31"/>
       <use xlink:href="#DejaVuSans-32" x="63.623047"/>
      </g>
     </g>
    </g>
    <g id="ytick_6">
     <g id="line2d_13">
      <g>
       <use xlink:href="#m8121527e1b" x="57.6" y="84.280186" style="stroke: #000000; stroke-width: 0.8"/>
      </g>
     </g>
     <g id="text_13">
      <!-- 14 -->
      <g transform="translate(37.875 88.079405)scale(0.1 -0.1)">
       <use xlink:href="#DejaVuSans-31"/>
       <use xlink:href="#DejaVuSans-34" x="63.623047"/>
      </g>
     </g>
    </g>
    <g id="ytick_7">
     <g id="line2d_14">
      <g>
       <use xlink:href="#m8121527e1b" x="57.6" y="46.407052" style="stroke: #000000; stroke-width: 0.8"/>
      </g>
     </g>
     <g id="text_14">
      <!-- 16 -->
      <g transform="translate(37.875 50.20627)scale(0.1 -0.1)">
       <use xlink:href="#DejaVuSans-31"/>
       <use xlink:href="#DejaVuSans-36" x="63.623047"/>
      </g>
     </g>
    </g>
   </g>
   <g id="line2d_15">
    <path d="M 73.832727 111.687823 
L 74.850453 169.344236 
L 75.868179 174.373614 
L 76.885905 186.341282 
L 77.903631 187.741662 
L 78.921357 201.140183 
L 79.939082 209.57327 
L 80.956808 220.205657 
L 81.974534 228.848089 
L 82.99226 234.919426 
L 84.009986 235.52951 
L 86.045437 241.883827 
L 87.063163 253.171571 
L 88.080889 252.703167 
L 89.098615 261.674255 
L 90.116341 258.656675 
L 91.134067 261.184218 
L 92.151793 264.911498 
L 93.169518 271.261462 
L 94.187244 273.132889 
L 95.20497 273.374519 
L 96.222696 270.58373 
L 97.240422 277.571952 
L 98.258148 275.919495 
L 99.275873 279.826091 
L 100.293599 280.7804 
L 102.329051 276.71197 
L 103.346777 274.551031 
L 104.364503 278.000178 
L 105.382229 284.227095 
L 106.399954 281.874672 
L 107.41768 283.731006 
L 108.435406 281.280028 
L 109.453132 283.048214 
L 110.470858 280.518611 
L 111.488584 282.216604 
L 112.506309 286.725329 
L 113.524035 284.106045 
L 114.541761 287.143746 
L 115.559487 283.058763 
L 116.577213 283.215295 
L 117.594939 284.774863 
L 118.612665 287.739253 
L 119.63039 285.008841 
L 120.648116 287.946999 
L 121.665842 279.512114 
L 122.683568 286.68995 
L 124.71902 283.976907 
L 125.736746 288.290207 
L 126.754471 286.916124 
L 127.772197 282.69581 
L 128.789923 285.571561 
L 129.807649 282.761729 
L 130.825375 281.368006 
L 131.843101 287.071792 
L 132.860826 284.250805 
L 133.878552 282.847085 
L 134.896278 287.121671 
L 135.914004 285.712899 
L 137.949456 285.729643 
L 138.967182 128.564939 
L 139.984907 189.234798 
L 141.002633 190.914752 
L 142.020359 198.215144 
L 143.038085 209.09963 
L 145.073537 225.627658 
L 146.091262 227.14407 
L 147.108988 237.97774 
L 148.126714 239.488367 
L 149.14444 246.885621 
L 151.179892 255.48792 
L 153.215343 265.79354 
L 154.233069 268.87202 
L 155.250795 271.364267 
L 156.268521 270.888999 
L 157.286247 275.88847 
L 158.303973 273.583024 
L 159.321698 276.754829 
L 160.339424 282.571119 
L 161.35715 282.526919 
L 162.374876 286.591284 
L 163.392602 279.182202 
L 165.428054 283.914807 
L 167.463505 291.106405 
L 168.481231 290.322952 
L 169.498957 283.792229 
L 170.516683 291.405276 
L 171.534409 290.442728 
L 172.552135 288.011328 
L 173.56986 291.217328 
L 174.587586 291.54397 
L 175.605312 290.415704 
L 176.623038 290.676694 
L 177.640764 293.750341 
L 178.65849 289.697713 
L 179.676215 287.042894 
L 180.693941 292.889448 
L 181.711667 287.356093 
L 182.729393 293.168585 
L 183.747119 290.445199 
L 185.782571 290.641927 
L 186.800296 293.564592 
L 187.818022 290.796984 
L 188.835748 290.861528 
L 189.853474 288.078119 
L 190.8712 295.229715 
L 191.888926 291.013373 
L 192.906651 293.89287 
L 193.924377 288.246096 
L 194.942103 295.377192 
L 195.959829 291.142482 
L 196.977555 291.165036 
L 197.995281 294.02497 
L 199.013007 291.201154 
L 200.030732 291.21533 
L 201.048458 295.488 
L 202.066184 289.816971 
L 203.08391 291.245362 
L 204.101636 108.857918 
L 205.119362 166.68091 
L 206.137087 171.195012 
L 207.154813 181.329589 
L 208.172539 185.106597 
L 209.190265 186.638508 
L 210.207991 194.52097 
L 213.261168 225.406103 
L 214.278894 229.956747 
L 215.29662 231.514445 
L 216.314346 235.706355 
L 218.349798 245.999817 
L 219.367524 244.811504 
L 220.385249 245.877452 
L 221.402975 248.23662 
L 222.420701 253.230049 
L 223.438427 252.338808 
L 225.473879 258.474356 
L 226.491604 255.583646 
L 227.50933 255.381261 
L 228.527056 265.009071 
L 229.544782 266.001398 
L 230.562508 262.628431 
L 231.580234 264.840826 
L 232.59796 262.70679 
L 234.633411 266.742531 
L 235.651137 270.088839 
L 236.668863 262.019067 
L 237.686589 270.943598 
L 239.72204 268.783248 
L 240.739766 263.388244 
L 241.757492 263.643222 
L 242.775218 272.391827 
L 243.792944 264.072459 
L 245.828396 270.092652 
L 246.846121 268.814009 
L 247.863847 270.359758 
L 248.881573 270.470839 
L 249.899299 271.989226 
L 250.917025 267.815045 
L 252.952476 270.798546 
L 253.970202 270.857068 
L 254.987928 268.067635 
L 256.005654 266.691751 
L 257.02338 270.990838 
L 259.058832 265.371021 
L 260.076557 266.815116 
L 261.094283 273.936315 
L 262.112009 265.431382 
L 263.129735 269.705525 
L 264.147461 268.295916 
L 266.182913 273.990931 
L 267.200638 272.574591 
L 268.218364 268.315971 
L 269.23609 92.699598 
L 270.253816 153.359326 
L 271.271542 156.449435 
L 272.289268 163.739777 
L 273.306993 173.194004 
L 274.324719 176.142404 
L 276.360171 196.889528 
L 277.377897 203.452554 
L 278.395623 207.793768 
L 279.413349 206.659685 
L 280.431074 216.73508 
L 281.4488 220.923231 
L 282.466526 226.250547 
L 283.484252 228.368688 
L 284.501978 227.176614 
L 285.519704 229.659042 
L 286.537429 237.695417 
L 287.555155 239.844597 
L 288.572881 238.94959 
L 289.590607 239.271112 
L 290.608333 246.497849 
L 291.626059 245.023614 
L 293.66151 247.340288 
L 294.679236 248.328845 
L 295.696962 243.531864 
L 296.714688 252.8417 
L 297.732414 247.863406 
L 299.767865 251.891598 
L 300.785591 249.553161 
L 301.803317 250.001068 
L 302.821043 256.081336 
L 303.838769 252.176335 
L 304.856495 252.493187 
L 305.874221 248.514645 
L 306.891946 254.446813 
L 307.909672 250.409454 
L 308.927398 249.187515 
L 309.945124 255.044354 
L 310.96285 258.040625 
L 311.980576 255.337954 
L 312.998302 251.198947 
L 314.016027 255.566969 
L 315.033753 258.50181 
L 316.051479 252.903598 
L 317.069205 255.816453 
L 318.086931 253.039034 
L 319.104657 255.934249 
L 320.122382 253.141024 
L 321.140108 253.181589 
L 322.157834 250.37567 
L 323.17556 251.825101 
L 324.193286 256.110202 
L 325.211012 253.289773 
L 326.228738 257.566689 
L 327.246463 250.478199 
L 329.281915 256.175619 
L 330.299641 257.6002 
L 331.317367 253.341575 
L 332.335093 253.341675 
L 333.352818 250.499494 
L 334.370544 53.568 
L 335.38827 108.194044 
L 336.405996 121.218917 
L 337.423722 124.019629 
L 338.441448 133.222543 
L 339.459174 135.911576 
L 340.476899 146.348226 
L 341.494625 150.38754 
L 342.512351 162.296471 
L 343.530077 172.158172 
L 344.547803 173.697019 
L 345.565529 177.929161 
L 346.583254 184.802643 
L 347.60098 188.564266 
L 348.618706 186.288954 
L 350.654158 197.308192 
L 351.671884 196.731204 
L 352.68961 193.114622 
L 353.707335 202.083553 
L 354.725061 205.174827 
L 355.742787 203.81614 
L 356.760513 205.124614 
L 357.778239 200.605206 
L 358.795965 210.180566 
L 359.813691 205.443406 
L 360.831416 206.286257 
L 361.849142 211.297522 
L 362.866868 210.54507 
L 363.884594 211.139797 
L 364.90232 208.830025 
L 365.920046 210.724348 
L 366.937771 213.986637 
L 367.955497 212.941266 
L 368.973223 210.433582 
L 371.008675 216.671612 
L 372.026401 211.222514 
L 373.044127 210.007274 
L 374.061852 211.608317 
L 375.079578 217.448423 
L 376.097304 211.907198 
L 378.132756 212.136438 
L 379.150482 215.069842 
L 380.168207 216.57051 
L 381.185933 209.538522 
L 382.203659 218.11917 
L 383.221385 209.647922 
L 385.256837 212.565506 
L 386.274563 216.854709 
L 387.292288 214.036905 
L 388.310014 216.894877 
L 389.32774 212.646984 
L 390.345466 218.336619 
L 391.363192 214.080819 
L 393.398643 214.080976 
L 394.416369 212.656621 
L 395.434095 212.650098 
L 396.451821 216.902142 
L 397.469547 215.471278 
L 398.487273 216.879164 
L 398.487273 216.879164 
" clip-path="url(#p48cd4d3eff)" style="fill: none; stroke: #1f77b4; stroke-width: 1.5; stroke-linecap: square"/>
   </g>
   <g id="patch_3">
    <path d="M 57.6 307.584 
L 57.6 41.472 
" style="fill: none; stroke: #000000; stroke-width: 0.8; stroke-linejoin: miter; stroke-linecap: square"/>
   </g>
   <g id="patch_4">
    <path d="M 414.72 307.584 
L 414.72 41.472 
" style="fill: none; stroke: #000000; stroke-width: 0.8; stroke-linejoin: miter; stroke-linecap: square"/>
   </g>
   <g id="patch_5">
    <path d="M 57.6 307.584 
L 414.72 307.584 
" style="fill: none; stroke: #000000; stroke-width: 0.8; stroke-linejoin: miter; stroke-linecap: square"/>
   </g>
   <g id="patch_6">
    <path d="M 57.6 41.472 
L 414.72 41.472 
" style="fill: none; stroke: #000000; stroke-width: 0.8; stroke-linejoin: miter; stroke-linecap: square"/>
   </g>
   <g id="legend_1">
    <g id="patch_7">
     <path d="M 354.074688 64.150125 
L 407.72 64.150125 
Q 409.72 64.150125 409.72 62.150125 
L 409.72 48.472 
Q 409.72 46.472 407.72 46.472 
L 354.074688 46.472 
Q 352.074688 46.472 352.074688 48.472 
L 352.074688 62.150125 
Q 352.074688 64.150125 354.074688 64.150125 
z
" style="fill: #ffffff; opacity: 0.8; stroke: #cccccc; stroke-linejoin: miter"/>
    </g>
    <g id="line2d_16">
     <path d="M 356.074688 54.570438 
L 366.074688 54.570438 
L 376.074688 54.570438 
" style="fill: none; stroke: #1f77b4; stroke-width: 1.5; stroke-linecap: square"/>
    </g>
    <g id="text_15">
     <!-- set2 -->
     <g transform="translate(384.074688 58.070438)scale(0.1 -0.1)">
      <defs>
       <path id="DejaVuSans-73" d="M 2834 3397 
L 2834 2853 
Q 2591 2978 2328 3040 
Q 2066 3103 1784 3103 
Q 1356 3103 1142 2972 
Q 928 2841 928 2578 
Q 928 2378 1081 2264 
Q 1234 2150 1697 2047 
L 1894 2003 
Q 2506 1872 2764 1633 
Q 3022 1394 3022 966 
Q 3022 478 2636 193 
Q 2250 -91 1575 -91 
Q 1294 -91 989 -36 
Q 684 19 347 128 
L 347 722 
Q 666 556 975 473 
Q 1284 391 1588 391 
Q 1994 391 2212 530 
Q 2431 669 2431 922 
Q 2431 1156 2273 1281 
Q 2116 1406 1581 1522 
L 1381 1569 
Q 847 1681 609 1914 
Q 372 2147 372 2553 
Q 372 3047 722 3315 
Q 1072 3584 1716 3584 
Q 2034 3584 2315 3537 
Q 2597 3491 2834 3397 
z
" transform="scale(0.015625)"/>
       <path id="DejaVuSans-65" d="M 3597 1894 
L 3597 1613 
L 953 1613 
Q 991 1019 1311 708 
Q 1631 397 2203 397 
Q 2534 397 2845 478 
Q 3156 559 3463 722 
L 3463 178 
Q 3153 47 2828 -22 
Q 2503 -91 2169 -91 
Q 1331 -91 842 396 
Q 353 884 353 1716 
Q 353 2575 817 3079 
Q 1281 3584 2069 3584 
Q 2775 3584 3186 3129 
Q 3597 2675 3597 1894 
z
M 3022 2063 
Q 3016 2534 2758 2815 
Q 2500 3097 2075 3097 
Q 1594 3097 1305 2825 
Q 1016 2553 972 2059 
L 3022 2063 
z
" transform="scale(0.015625)"/>
       <path id="DejaVuSans-74" d="M 1172 4494 
L 1172 3500 
L 2356 3500 
L 2356 3053 
L 1172 3053 
L 1172 1153 
Q 1172 725 1289 603 
Q 1406 481 1766 481 
L 2356 481 
L 2356 0 
L 1766 0 
Q 1100 0 847 248 
Q 594 497 594 1153 
L 594 3053 
L 172 3053 
L 172 3500 
L 594 3500 
L 594 4494 
L 1172 4494 
z
" transform="scale(0.015625)"/>
      </defs>
      <use xlink:href="#DejaVuSans-73"/>
      <use xlink:href="#DejaVuSans-65" x="52.099609"/>
      <use xlink:href="#DejaVuSans-74" x="113.623047"/>
      <use xlink:href="#DejaVuSans-32" x="152.832031"/>
     </g>
    </g>
   </g>
  </g>
 </g>
 <defs>
  <clipPath id="p48cd4d3eff">
   <rect x="57.6" y="41.472" width="357.12" height="266.112"/>
  </clipPath>
 </defs>
</svg>
