<?xml version="1.0" encoding="utf-8" standalone="no"?>
<!DOCTYPE svg PUBLIC "-//W3C//DTD SVG 1.1//EN"
  "http://www.w3.org/Graphics/SVG/1.1/DTD/svg11.dtd">
<svg xmlns:xlink="http://www.w3.org/1999/xlink" width="460.8pt" height="345.6pt" viewBox="0 0 460.8 345.6" xmlns="http://www.w3.org/2000/svg" version="1.1">
 <metadata>
  <rdf:RDF xmlns:dc="http://purl.org/dc/elements/1.1/" xmlns:cc="http://creativecommons.org/ns#" xmlns:rdf="http://www.w3.org/1999/02/22-rdf-syntax-ns#">
   <cc:Work>
    <dc:type rdf:resource="http://purl.org/dc/dcmitype/StillImage"/>
    <dc:date>2022-08-11T20:38:47.546145</dc:date>
    <dc:format>image/svg+xml</dc:format>
    <dc:creator>
     <cc:Agent>
      <dc:title>Matplotlib v3.5.2, https://matplotlib.org/</dc:title>
     </cc:Agent>
    </dc:creator>
   </cc:Work>
  </rdf:RDF>
 </metadata>
 <defs>
  <style type="text/css">*{stroke-linejoin: round; stroke-linecap: butt}</style>
 </defs>
 <g id="figure_1">
  <g id="patch_1">
   <path d="M 0 345.6 
L 460.8 345.6 
L 460.8 0 
L 0 0 
z
" style="fill: #ffffff"/>
  </g>
  <g id="axes_1">
   <g id="patch_2">
    <path d="M 57.6 307.584 
L 414.72 307.584 
L 414.72 41.472 
L 57.6 41.472 
z
" style="fill: #ffffff"/>
   </g>
   <g id="matplotlib.axis_1">
    <g id="xtick_1">
     <g id="line2d_1">
      <defs>
       <path id="mae66105629" d="M 0 0 
L 0 3.5 
" style="stroke: #000000; stroke-width: 0.8"/>
      </defs>
      <g>
       <use xlink:href="#mae66105629" x="73.832727" y="307.584" style="stroke: #000000; stroke-width: 0.8"/>
      </g>
     </g>
     <g id="text_1">
      <!-- 0 -->
      <g transform="translate(70.651477 322.182437)scale(0.1 -0.1)">
       <defs>
        <path id="DejaVuSans-30" d="M 2034 4250 
Q 1547 4250 1301 3770 
Q 1056 3291 1056 2328 
Q 1056 1369 1301 889 
Q 1547 409 2034 409 
Q 2525 409 2770 889 
Q 3016 1369 3016 2328 
Q 3016 3291 2770 3770 
Q 2525 4250 2034 4250 
z
M 2034 4750 
Q 2819 4750 3233 4129 
Q 3647 3509 3647 2328 
Q 3647 1150 3233 529 
Q 2819 -91 2034 -91 
Q 1250 -91 836 529 
Q 422 1150 422 2328 
Q 422 3509 836 4129 
Q 1250 4750 2034 4750 
z
" transform="scale(0.015625)"/>
       </defs>
       <use xlink:href="#DejaVuSans-30"/>
      </g>
     </g>
    </g>
    <g id="xtick_2">
     <g id="line2d_2">
      <g>
       <use xlink:href="#mae66105629" x="124.71902" y="307.584" style="stroke: #000000; stroke-width: 0.8"/>
      </g>
     </g>
     <g id="text_2">
      <!-- 50 -->
      <g transform="translate(118.35652 322.182437)scale(0.1 -0.1)">
       <defs>
        <path id="DejaVuSans-35" d="M 691 4666 
L 3169 4666 
L 3169 4134 
L 1269 4134 
L 1269 2991 
Q 1406 3038 1543 3061 
Q 1681 3084 1819 3084 
Q 2600 3084 3056 2656 
Q 3513 2228 3513 1497 
Q 3513 744 3044 326 
Q 2575 -91 1722 -91 
Q 1428 -91 1123 -41 
Q 819 9 494 109 
L 494 744 
Q 775 591 1075 516 
Q 1375 441 1709 441 
Q 2250 441 2565 725 
Q 2881 1009 2881 1497 
Q 2881 1984 2565 2268 
Q 2250 2553 1709 2553 
Q 1456 2553 1204 2497 
Q 953 2441 691 2322 
L 691 4666 
z
" transform="scale(0.015625)"/>
       </defs>
       <use xlink:href="#DejaVuSans-35"/>
       <use xlink:href="#DejaVuSans-30" x="63.623047"/>
      </g>
     </g>
    </g>
    <g id="xtick_3">
     <g id="line2d_3">
      <g>
       <use xlink:href="#mae66105629" x="175.605312" y="307.584" style="stroke: #000000; stroke-width: 0.8"/>
      </g>
     </g>
     <g id="text_3">
      <!-- 100 -->
      <g transform="translate(166.061562 322.182437)scale(0.1 -0.1)">
       <defs>
        <path id="DejaVuSans-31" d="M 794 531 
L 1825 531 
L 1825 4091 
L 703 3866 
L 703 4441 
L 1819 4666 
L 2450 4666 
L 2450 531 
L 3481 531 
L 3481 0 
L 794 0 
L 794 531 
z
" transform="scale(0.015625)"/>
       </defs>
       <use xlink:href="#DejaVuSans-31"/>
       <use xlink:href="#DejaVuSans-30" x="63.623047"/>
       <use xlink:href="#DejaVuSans-30" x="127.246094"/>
      </g>
     </g>
    </g>
    <g id="xtick_4">
     <g id="line2d_4">
      <g>
       <use xlink:href="#mae66105629" x="226.491604" y="307.584" style="stroke: #000000; stroke-width: 0.8"/>
      </g>
     </g>
     <g id="text_4">
      <!-- 150 -->
      <g transform="translate(216.947854 322.182437)scale(0.1 -0.1)">
       <use xlink:href="#DejaVuSans-31"/>
       <use xlink:href="#DejaVuSans-35" x="63.623047"/>
       <use xlink:href="#DejaVuSans-30" x="127.246094"/>
      </g>
     </g>
    </g>
    <g id="xtick_5">
     <g id="line2d_5">
      <g>
       <use xlink:href="#mae66105629" x="277.377897" y="307.584" style="stroke: #000000; stroke-width: 0.8"/>
      </g>
     </g>
     <g id="text_5">
      <!-- 200 -->
      <g transform="translate(267.834147 322.182437)scale(0.1 -0.1)">
       <defs>
        <path id="DejaVuSans-32" d="M 1228 531 
L 3431 531 
L 3431 0 
L 469 0 
L 469 531 
Q 828 903 1448 1529 
Q 2069 2156 2228 2338 
Q 2531 2678 2651 2914 
Q 2772 3150 2772 3378 
Q 2772 3750 2511 3984 
Q 2250 4219 1831 4219 
Q 1534 4219 1204 4116 
Q 875 4013 500 3803 
L 500 4441 
Q 881 4594 1212 4672 
Q 1544 4750 1819 4750 
Q 2544 4750 2975 4387 
Q 3406 4025 3406 3419 
Q 3406 3131 3298 2873 
Q 3191 2616 2906 2266 
Q 2828 2175 2409 1742 
Q 1991 1309 1228 531 
z
" transform="scale(0.015625)"/>
       </defs>
       <use xlink:href="#DejaVuSans-32"/>
       <use xlink:href="#DejaVuSans-30" x="63.623047"/>
       <use xlink:href="#DejaVuSans-30" x="127.246094"/>
      </g>
     </g>
    </g>
    <g id="xtick_6">
     <g id="line2d_6">
      <g>
       <use xlink:href="#mae66105629" x="328.264189" y="307.584" style="stroke: #000000; stroke-width: 0.8"/>
      </g>
     </g>
     <g id="text_6">
      <!-- 250 -->
      <g transform="translate(318.720439 322.182437)scale(0.1 -0.1)">
       <use xlink:href="#DejaVuSans-32"/>
       <use xlink:href="#DejaVuSans-35" x="63.623047"/>
       <use xlink:href="#DejaVuSans-30" x="127.246094"/>
      </g>
     </g>
    </g>
    <g id="xtick_7">
     <g id="line2d_7">
      <g>
       <use xlink:href="#mae66105629" x="379.150482" y="307.584" style="stroke: #000000; stroke-width: 0.8"/>
      </g>
     </g>
     <g id="text_7">
      <!-- 300 -->
      <g transform="translate(369.606732 322.182437)scale(0.1 -0.1)">
       <defs>
        <path id="DejaVuSans-33" d="M 2597 2516 
Q 3050 2419 3304 2112 
Q 3559 1806 3559 1356 
Q 3559 666 3084 287 
Q 2609 -91 1734 -91 
Q 1441 -91 1130 -33 
Q 819 25 488 141 
L 488 750 
Q 750 597 1062 519 
Q 1375 441 1716 441 
Q 2309 441 2620 675 
Q 2931 909 2931 1356 
Q 2931 1769 2642 2001 
Q 2353 2234 1838 2234 
L 1294 2234 
L 1294 2753 
L 1863 2753 
Q 2328 2753 2575 2939 
Q 2822 3125 2822 3475 
Q 2822 3834 2567 4026 
Q 2313 4219 1838 4219 
Q 1578 4219 1281 4162 
Q 984 4106 628 3988 
L 628 4550 
Q 988 4650 1302 4700 
Q 1616 4750 1894 4750 
Q 2613 4750 3031 4423 
Q 3450 4097 3450 3541 
Q 3450 3153 3228 2886 
Q 3006 2619 2597 2516 
z
" transform="scale(0.015625)"/>
       </defs>
       <use xlink:href="#DejaVuSans-33"/>
       <use xlink:href="#DejaVuSans-30" x="63.623047"/>
       <use xlink:href="#DejaVuSans-30" x="127.246094"/>
      </g>
     </g>
    </g>
   </g>
   <g id="matplotlib.axis_2">
    <g id="ytick_1">
     <g id="line2d_8">
      <defs>
       <path id="md0683ce062" d="M 0 0 
L -3.5 0 
" style="stroke: #000000; stroke-width: 0.8"/>
      </defs>
      <g>
       <use xlink:href="#md0683ce062" x="57.6" y="302.295521" style="stroke: #000000; stroke-width: 0.8"/>
      </g>
     </g>
     <g id="text_8">
      <!-- 2 -->
      <g transform="translate(44.2375 306.094739)scale(0.1 -0.1)">
       <use xlink:href="#DejaVuSans-32"/>
      </g>
     </g>
    </g>
    <g id="ytick_2">
     <g id="line2d_9">
      <g>
       <use xlink:href="#md0683ce062" x="57.6" y="268.85834" style="stroke: #000000; stroke-width: 0.8"/>
      </g>
     </g>
     <g id="text_9">
      <!-- 4 -->
      <g transform="translate(44.2375 272.657559)scale(0.1 -0.1)">
       <defs>
        <path id="DejaVuSans-34" d="M 2419 4116 
L 825 1625 
L 2419 1625 
L 2419 4116 
z
M 2253 4666 
L 3047 4666 
L 3047 1625 
L 3713 1625 
L 3713 1100 
L 3047 1100 
L 3047 0 
L 2419 0 
L 2419 1100 
L 313 1100 
L 313 1709 
L 2253 4666 
z
" transform="scale(0.015625)"/>
       </defs>
       <use xlink:href="#DejaVuSans-34"/>
      </g>
     </g>
    </g>
    <g id="ytick_3">
     <g id="line2d_10">
      <g>
       <use xlink:href="#md0683ce062" x="57.6" y="235.42116" style="stroke: #000000; stroke-width: 0.8"/>
      </g>
     </g>
     <g id="text_10">
      <!-- 6 -->
      <g transform="translate(44.2375 239.220378)scale(0.1 -0.1)">
       <defs>
        <path id="DejaVuSans-36" d="M 2113 2584 
Q 1688 2584 1439 2293 
Q 1191 2003 1191 1497 
Q 1191 994 1439 701 
Q 1688 409 2113 409 
Q 2538 409 2786 701 
Q 3034 994 3034 1497 
Q 3034 2003 2786 2293 
Q 2538 2584 2113 2584 
z
M 3366 4563 
L 3366 3988 
Q 3128 4100 2886 4159 
Q 2644 4219 2406 4219 
Q 1781 4219 1451 3797 
Q 1122 3375 1075 2522 
Q 1259 2794 1537 2939 
Q 1816 3084 2150 3084 
Q 2853 3084 3261 2657 
Q 3669 2231 3669 1497 
Q 3669 778 3244 343 
Q 2819 -91 2113 -91 
Q 1303 -91 875 529 
Q 447 1150 447 2328 
Q 447 3434 972 4092 
Q 1497 4750 2381 4750 
Q 2619 4750 2861 4703 
Q 3103 4656 3366 4563 
z
" transform="scale(0.015625)"/>
       </defs>
       <use xlink:href="#DejaVuSans-36"/>
      </g>
     </g>
    </g>
    <g id="ytick_4">
     <g id="line2d_11">
      <g>
       <use xlink:href="#md0683ce062" x="57.6" y="201.983979" style="stroke: #000000; stroke-width: 0.8"/>
      </g>
     </g>
     <g id="text_11">
      <!-- 8 -->
      <g transform="translate(44.2375 205.783198)scale(0.1 -0.1)">
       <defs>
        <path id="DejaVuSans-38" d="M 2034 2216 
Q 1584 2216 1326 1975 
Q 1069 1734 1069 1313 
Q 1069 891 1326 650 
Q 1584 409 2034 409 
Q 2484 409 2743 651 
Q 3003 894 3003 1313 
Q 3003 1734 2745 1975 
Q 2488 2216 2034 2216 
z
M 1403 2484 
Q 997 2584 770 2862 
Q 544 3141 544 3541 
Q 544 4100 942 4425 
Q 1341 4750 2034 4750 
Q 2731 4750 3128 4425 
Q 3525 4100 3525 3541 
Q 3525 3141 3298 2862 
Q 3072 2584 2669 2484 
Q 3125 2378 3379 2068 
Q 3634 1759 3634 1313 
Q 3634 634 3220 271 
Q 2806 -91 2034 -91 
Q 1263 -91 848 271 
Q 434 634 434 1313 
Q 434 1759 690 2068 
Q 947 2378 1403 2484 
z
M 1172 3481 
Q 1172 3119 1398 2916 
Q 1625 2713 2034 2713 
Q 2441 2713 2670 2916 
Q 2900 3119 2900 3481 
Q 2900 3844 2670 4047 
Q 2441 4250 2034 4250 
Q 1625 4250 1398 4047 
Q 1172 3844 1172 3481 
z
" transform="scale(0.015625)"/>
       </defs>
       <use xlink:href="#DejaVuSans-38"/>
      </g>
     </g>
    </g>
    <g id="ytick_5">
     <g id="line2d_12">
      <g>
       <use xlink:href="#md0683ce062" x="57.6" y="168.546799" style="stroke: #000000; stroke-width: 0.8"/>
      </g>
     </g>
     <g id="text_12">
      <!-- 10 -->
      <g transform="translate(37.875 172.346017)scale(0.1 -0.1)">
       <use xlink:href="#DejaVuSans-31"/>
       <use xlink:href="#DejaVuSans-30" x="63.623047"/>
      </g>
     </g>
    </g>
    <g id="ytick_6">
     <g id="line2d_13">
      <g>
       <use xlink:href="#md0683ce062" x="57.6" y="135.109618" style="stroke: #000000; stroke-width: 0.8"/>
      </g>
     </g>
     <g id="text_13">
      <!-- 12 -->
      <g transform="translate(37.875 138.908837)scale(0.1 -0.1)">
       <use xlink:href="#DejaVuSans-31"/>
       <use xlink:href="#DejaVuSans-32" x="63.623047"/>
      </g>
     </g>
    </g>
    <g id="ytick_7">
     <g id="line2d_14">
      <g>
       <use xlink:href="#md0683ce062" x="57.6" y="101.672438" style="stroke: #000000; stroke-width: 0.8"/>
      </g>
     </g>
     <g id="text_14">
      <!-- 14 -->
      <g transform="translate(37.875 105.471657)scale(0.1 -0.1)">
       <use xlink:href="#DejaVuSans-31"/>
       <use xlink:href="#DejaVuSans-34" x="63.623047"/>
      </g>
     </g>
    </g>
    <g id="ytick_8">
     <g id="line2d_15">
      <g>
       <use xlink:href="#md0683ce062" x="57.6" y="68.235257" style="stroke: #000000; stroke-width: 0.8"/>
      </g>
     </g>
     <g id="text_15">
      <!-- 16 -->
      <g transform="translate(37.875 72.034476)scale(0.1 -0.1)">
       <use xlink:href="#DejaVuSans-31"/>
       <use xlink:href="#DejaVuSans-36" x="63.623047"/>
      </g>
     </g>
    </g>
   </g>
   <g id="line2d_16">
    <path d="M 73.832727 118.552531 
L 74.850453 155.85759 
L 75.868179 156.55388 
L 76.885905 162.618656 
L 77.903631 167.882868 
L 78.921357 169.748399 
L 79.939082 179.545421 
L 80.956808 183.51722 
L 81.974534 190.481715 
L 82.99226 190.602516 
L 85.027712 193.510341 
L 86.045437 197.300379 
L 87.063163 198.411686 
L 88.080889 198.044789 
L 90.116341 206.413656 
L 91.134067 205.326899 
L 92.151793 206.622478 
L 93.169518 210.301919 
L 94.187244 206.334048 
L 95.20497 207.262497 
L 96.222696 210.589502 
L 97.240422 210.062242 
L 98.258148 215.736618 
L 99.275873 216.326039 
L 100.293599 213.090155 
L 101.311325 211.04999 
L 103.346777 211.8349 
L 105.382229 217.472974 
L 106.399954 215.225646 
L 108.435406 215.660901 
L 109.453132 213.333828 
L 110.470858 221.016816 
L 111.488584 216.142003 
L 112.506309 213.758046 
L 113.524035 217.628307 
L 114.541761 220.231021 
L 115.559487 219.05983 
L 116.577213 219.131597 
L 117.594939 221.701357 
L 118.612665 215.485078 
L 119.63039 216.784289 
L 120.648116 214.314758 
L 121.665842 216.854481 
L 122.683568 214.372964 
L 123.701294 219.409737 
L 126.754471 219.447876 
L 127.772197 216.945732 
L 128.789923 221.964021 
L 129.807649 219.456315 
L 130.825375 218.200146 
L 131.843101 221.957444 
L 132.860826 216.935588 
L 133.878552 214.419825 
L 134.896278 219.425906 
L 136.93173 216.895178 
L 137.949456 221.897579 
L 138.967182 110.659478 
L 139.984907 151.724627 
L 141.002633 152.419325 
L 142.020359 153.466933 
L 143.038085 162.491234 
L 145.073537 171.642812 
L 146.091262 173.105229 
L 147.108988 180.06813 
L 148.126714 185.202913 
L 149.14444 182.939839 
L 150.162166 190.615337 
L 151.179892 190.642096 
L 153.215343 200.160573 
L 154.233069 202.01402 
L 155.250795 201.00288 
L 156.268521 203.676208 
L 157.286247 203.716296 
L 158.303973 203.632455 
L 159.321698 205.932457 
L 160.339424 204.351518 
L 161.35715 208.930818 
L 162.374876 204.640275 
L 163.392602 206.551369 
L 165.428054 207.663386 
L 166.445779 208.129409 
L 167.463505 213.558861 
L 168.481231 208.911115 
L 169.498957 207.984711 
L 171.534409 213.550947 
L 172.552135 210.018544 
L 173.56986 207.713522 
L 174.587586 211.654317 
L 175.605312 208.050651 
L 176.623038 211.951494 
L 177.640764 213.327614 
L 178.65849 208.419009 
L 179.676215 211.020117 
L 180.693941 216.116791 
L 181.711667 211.171373 
L 182.729393 212.485632 
L 183.747119 215.045005 
L 184.764845 211.327031 
L 185.782571 208.855892 
L 186.800296 213.901795 
L 187.818022 211.418668 
L 188.835748 212.692148 
L 189.853474 212.707187 
L 190.8712 213.972043 
L 191.888926 211.471562 
L 192.906651 216.491173 
L 193.924377 212.73059 
L 194.942103 212.729061 
L 195.959829 208.963492 
L 196.977555 213.973071 
L 199.013007 213.955591 
L 200.030732 215.198376 
L 201.048458 211.42422 
L 202.066184 211.410525 
L 203.08391 215.157417 
L 204.101636 53.568 
L 205.119362 100.96119 
L 206.137087 110.578879 
L 207.154813 111.119964 
L 208.172539 121.002918 
L 209.190265 123.964717 
L 210.207991 126.180831 
L 213.261168 149.407084 
L 214.278894 150.341436 
L 215.29662 156.175344 
L 216.314346 156.836697 
L 217.332072 157.284136 
L 219.367524 164.783686 
L 221.402975 168.428946 
L 222.420701 170.046289 
L 223.438427 169.000813 
L 224.456153 169.054188 
L 225.473879 175.227865 
L 226.491604 173.741548 
L 227.50933 178.408896 
L 228.527056 174.214119 
L 230.562508 175.602561 
L 231.580234 181.199798 
L 232.59796 175.446757 
L 233.615685 182.175062 
L 234.633411 175.060069 
L 235.651137 177.931585 
L 236.668863 183.269681 
L 237.686589 176.031835 
L 238.704315 180.045874 
L 239.72204 180.268639 
L 241.757492 178.130018 
L 242.775218 183.297202 
L 243.792944 180.92194 
L 244.81067 179.783493 
L 246.846121 184.985706 
L 247.863847 180.044354 
L 248.881573 178.8537 
L 249.899299 182.668773 
L 250.917025 181.459438 
L 251.934751 185.257769 
L 252.952476 184.033438 
L 253.970202 185.310547 
L 254.987928 180.312495 
L 256.005654 182.83271 
L 257.02338 180.332776 
L 258.041106 182.844324 
L 259.058832 182.844413 
L 260.076557 177.825636 
L 261.094283 181.581171 
L 262.112009 181.57238 
L 263.129735 185.322905 
L 264.147461 180.294046 
L 265.165187 180.278862 
L 266.182913 179.008077 
L 267.200638 181.497447 
L 268.218364 180.223762 
L 269.23609 100.102275 
L 270.253816 132.386634 
L 271.271542 134.331656 
L 272.289268 137.883445 
L 274.324719 151.272165 
L 275.342445 154.794428 
L 276.360171 156.253126 
L 277.377897 164.466182 
L 278.395623 169.597206 
L 279.413349 171.092039 
L 280.431074 177.509851 
L 281.4488 178.786698 
L 282.466526 178.638696 
L 283.484252 178.266374 
L 284.501978 181.369874 
L 285.519704 182.862674 
L 286.537429 185.532144 
L 287.555155 185.568366 
L 288.572881 185.480653 
L 289.590607 192.792353 
L 290.608333 186.191952 
L 291.626059 194.529045 
L 292.643785 191.488502 
L 294.679236 195.233507 
L 295.696962 195.753797 
L 296.714688 189.946438 
L 297.732414 192.864188 
L 298.75014 190.720313 
L 299.767865 198.567251 
L 300.785591 193.839553 
L 301.803317 197.856169 
L 302.821043 194.319839 
L 303.838769 193.264783 
L 304.856495 197.201647 
L 305.874221 197.355732 
L 306.891946 194.983169 
L 307.909672 200.117035 
L 308.927398 198.966176 
L 309.945124 200.30945 
L 310.96285 195.37103 
L 311.980576 200.452825 
L 312.998302 195.493669 
L 314.016027 195.541308 
L 315.033753 193.073283 
L 316.051479 194.359879 
L 317.069205 200.655728 
L 318.086931 198.168652 
L 319.104657 194.422605 
L 320.122382 194.433691 
L 321.140108 199.456277 
L 322.157834 199.459632 
L 323.17556 194.444133 
L 324.193286 195.695171 
L 325.211012 198.197473 
L 327.246463 193.164094 
L 328.264189 195.660031 
L 329.281915 193.138693 
L 330.299641 198.139199 
L 333.352818 198.086347 
L 334.370544 295.488 
L 335.38827 224.512718 
L 336.405996 219.234703 
L 337.423722 205.730275 
L 338.441448 201.352825 
L 339.459174 193.743803 
L 340.476899 180.304939 
L 341.494625 174.756617 
L 342.512351 158.208916 
L 343.530077 150.334451 
L 345.565529 141.795695 
L 346.583254 134.109547 
L 347.60098 131.781769 
L 348.618706 126.141737 
L 349.636432 128.597493 
L 350.654158 122.99023 
L 351.671884 121.299655 
L 352.68961 114.844921 
L 353.707335 114.907971 
L 354.725061 110.203746 
L 355.742787 106.992291 
L 356.760513 105.253518 
L 357.778239 107.461879 
L 358.795965 102.282799 
L 359.813691 102.258277 
L 360.831416 104.86899 
L 361.849142 100.072861 
L 362.866868 99.142865 
L 363.884594 100.81288 
L 364.90232 101.309801 
L 365.920046 95.608734 
L 366.937771 96.243116 
L 368.973223 95.175654 
L 369.990949 97.223627 
L 371.008675 95.552155 
L 372.026401 96.426228 
L 373.044127 96.08031 
L 375.079578 97.984662 
L 376.097304 95.213282 
L 377.11503 89.956002 
L 378.132756 94.749475 
L 379.150482 90.783255 
L 380.168207 94.356153 
L 382.203659 89.003889 
L 383.221385 92.614874 
L 384.239111 93.728213 
L 385.256837 88.581168 
L 386.274563 90.96563 
L 387.292288 88.341811 
L 388.310014 89.486209 
L 389.32774 91.890355 
L 390.345466 90.53806 
L 391.363192 87.936567 
L 393.398643 92.776916 
L 394.416369 90.186772 
L 395.434095 88.853544 
L 396.451821 93.792494 
L 397.469547 89.956608 
L 398.487273 92.392363 
L 398.487273 92.392363 
" clip-path="url(#p8e6280a4f4)" style="fill: none; stroke: #1f77b4; stroke-width: 1.5; stroke-linecap: square"/>
   </g>
   <g id="patch_3">
    <path d="M 57.6 307.584 
L 57.6 41.472 
" style="fill: none; stroke: #000000; stroke-width: 0.8; stroke-linejoin: miter; stroke-linecap: square"/>
   </g>
   <g id="patch_4">
    <path d="M 414.72 307.584 
L 414.72 41.472 
" style="fill: none; stroke: #000000; stroke-width: 0.8; stroke-linejoin: miter; stroke-linecap: square"/>
   </g>
   <g id="patch_5">
    <path d="M 57.6 307.584 
L 414.72 307.584 
" style="fill: none; stroke: #000000; stroke-width: 0.8; stroke-linejoin: miter; stroke-linecap: square"/>
   </g>
   <g id="patch_6">
    <path d="M 57.6 41.472 
L 414.72 41.472 
" style="fill: none; stroke: #000000; stroke-width: 0.8; stroke-linejoin: miter; stroke-linecap: square"/>
   </g>
   <g id="legend_1">
    <g id="patch_7">
     <path d="M 354.074688 64.150125 
L 407.72 64.150125 
Q 409.72 64.150125 409.72 62.150125 
L 409.72 48.472 
Q 409.72 46.472 407.72 46.472 
L 354.074688 46.472 
Q 352.074688 46.472 352.074688 48.472 
L 352.074688 62.150125 
Q 352.074688 64.150125 354.074688 64.150125 
z
" style="fill: #ffffff; opacity: 0.8; stroke: #cccccc; stroke-linejoin: miter"/>
    </g>
    <g id="line2d_17">
     <path d="M 356.074688 54.570438 
L 366.074688 54.570438 
L 376.074688 54.570438 
" style="fill: none; stroke: #1f77b4; stroke-width: 1.5; stroke-linecap: square"/>
    </g>
    <g id="text_16">
     <!-- set3 -->
     <g transform="translate(384.074688 58.070438)scale(0.1 -0.1)">
      <defs>
       <path id="DejaVuSans-73" d="M 2834 3397 
L 2834 2853 
Q 2591 2978 2328 3040 
Q 2066 3103 1784 3103 
Q 1356 3103 1142 2972 
Q 928 2841 928 2578 
Q 928 2378 1081 2264 
Q 1234 2150 1697 2047 
L 1894 2003 
Q 2506 1872 2764 1633 
Q 3022 1394 3022 966 
Q 3022 478 2636 193 
Q 2250 -91 1575 -91 
Q 1294 -91 989 -36 
Q 684 19 347 128 
L 347 722 
Q 666 556 975 473 
Q 1284 391 1588 391 
Q 1994 391 2212 530 
Q 2431 669 2431 922 
Q 2431 1156 2273 1281 
Q 2116 1406 1581 1522 
L 1381 1569 
Q 847 1681 609 1914 
Q 372 2147 372 2553 
Q 372 3047 722 3315 
Q 1072 3584 1716 3584 
Q 2034 3584 2315 3537 
Q 2597 3491 2834 3397 
z
" transform="scale(0.015625)"/>
       <path id="DejaVuSans-65" d="M 3597 1894 
L 3597 1613 
L 953 1613 
Q 991 1019 1311 708 
Q 1631 397 2203 397 
Q 2534 397 2845 478 
Q 3156 559 3463 722 
L 3463 178 
Q 3153 47 2828 -22 
Q 2503 -91 2169 -91 
Q 1331 -91 842 396 
Q 353 884 353 1716 
Q 353 2575 817 3079 
Q 1281 3584 2069 3584 
Q 2775 3584 3186 3129 
Q 3597 2675 3597 1894 
z
M 3022 2063 
Q 3016 2534 2758 2815 
Q 2500 3097 2075 3097 
Q 1594 3097 1305 2825 
Q 1016 2553 972 2059 
L 3022 2063 
z
" transform="scale(0.015625)"/>
       <path id="DejaVuSans-74" d="M 1172 4494 
L 1172 3500 
L 2356 3500 
L 2356 3053 
L 1172 3053 
L 1172 1153 
Q 1172 725 1289 603 
Q 1406 481 1766 481 
L 2356 481 
L 2356 0 
L 1766 0 
Q 1100 0 847 248 
Q 594 497 594 1153 
L 594 3053 
L 172 3053 
L 172 3500 
L 594 3500 
L 594 4494 
L 1172 4494 
z
" transform="scale(0.015625)"/>
      </defs>
      <use xlink:href="#DejaVuSans-73"/>
      <use xlink:href="#DejaVuSans-65" x="52.099609"/>
      <use xlink:href="#DejaVuSans-74" x="113.623047"/>
      <use xlink:href="#DejaVuSans-33" x="152.832031"/>
     </g>
    </g>
   </g>
  </g>
 </g>
 <defs>
  <clipPath id="p8e6280a4f4">
   <rect x="57.6" y="41.472" width="357.12" height="266.112"/>
  </clipPath>
 </defs>
</svg>
