<?xml version="1.0" encoding="utf-8" standalone="no"?>
<!DOCTYPE svg PUBLIC "-//W3C//DTD SVG 1.1//EN"
  "http://www.w3.org/Graphics/SVG/1.1/DTD/svg11.dtd">
<svg xmlns:xlink="http://www.w3.org/1999/xlink" width="460.8pt" height="345.6pt" viewBox="0 0 460.8 345.6" xmlns="http://www.w3.org/2000/svg" version="1.1">
 <metadata>
  <rdf:RDF xmlns:dc="http://purl.org/dc/elements/1.1/" xmlns:cc="http://creativecommons.org/ns#" xmlns:rdf="http://www.w3.org/1999/02/22-rdf-syntax-ns#">
   <cc:Work>
    <dc:type rdf:resource="http://purl.org/dc/dcmitype/StillImage"/>
    <dc:date>2022-08-11T15:18:08.968592</dc:date>
    <dc:format>image/svg+xml</dc:format>
    <dc:creator>
     <cc:Agent>
      <dc:title>Matplotlib v3.5.2, https://matplotlib.org/</dc:title>
     </cc:Agent>
    </dc:creator>
   </cc:Work>
  </rdf:RDF>
 </metadata>
 <defs>
  <style type="text/css">*{stroke-linejoin: round; stroke-linecap: butt}</style>
 </defs>
 <g id="figure_1">
  <g id="patch_1">
   <path d="M 0 345.6 
L 460.8 345.6 
L 460.8 0 
L 0 0 
z
" style="fill: #ffffff"/>
  </g>
  <g id="axes_1">
   <g id="patch_2">
    <path d="M 57.6 307.584 
L 414.72 307.584 
L 414.72 41.472 
L 57.6 41.472 
z
" style="fill: #ffffff"/>
   </g>
   <g id="matplotlib.axis_1">
    <g id="xtick_1">
     <g id="line2d_1">
      <defs>
       <path id="m7ad759b216" d="M 0 0 
L 0 3.5 
" style="stroke: #000000; stroke-width: 0.8"/>
      </defs>
      <g>
       <use xlink:href="#m7ad759b216" x="73.832727" y="307.584" style="stroke: #000000; stroke-width: 0.8"/>
      </g>
     </g>
     <g id="text_1">
      <!-- 0 -->
      <g transform="translate(70.651477 322.182437)scale(0.1 -0.1)">
       <defs>
        <path id="DejaVuSans-30" d="M 2034 4250 
Q 1547 4250 1301 3770 
Q 1056 3291 1056 2328 
Q 1056 1369 1301 889 
Q 1547 409 2034 409 
Q 2525 409 2770 889 
Q 3016 1369 3016 2328 
Q 3016 3291 2770 3770 
Q 2525 4250 2034 4250 
z
M 2034 4750 
Q 2819 4750 3233 4129 
Q 3647 3509 3647 2328 
Q 3647 1150 3233 529 
Q 2819 -91 2034 -91 
Q 1250 -91 836 529 
Q 422 1150 422 2328 
Q 422 3509 836 4129 
Q 1250 4750 2034 4750 
z
" transform="scale(0.015625)"/>
       </defs>
       <use xlink:href="#DejaVuSans-30"/>
      </g>
     </g>
    </g>
    <g id="xtick_2">
     <g id="line2d_2">
      <g>
       <use xlink:href="#m7ad759b216" x="118.936165" y="307.584" style="stroke: #000000; stroke-width: 0.8"/>
      </g>
     </g>
     <g id="text_2">
      <!-- 500 -->
      <g transform="translate(109.392415 322.182437)scale(0.1 -0.1)">
       <defs>
        <path id="DejaVuSans-35" d="M 691 4666 
L 3169 4666 
L 3169 4134 
L 1269 4134 
L 1269 2991 
Q 1406 3038 1543 3061 
Q 1681 3084 1819 3084 
Q 2600 3084 3056 2656 
Q 3513 2228 3513 1497 
Q 3513 744 3044 326 
Q 2575 -91 1722 -91 
Q 1428 -91 1123 -41 
Q 819 9 494 109 
L 494 744 
Q 775 591 1075 516 
Q 1375 441 1709 441 
Q 2250 441 2565 725 
Q 2881 1009 2881 1497 
Q 2881 1984 2565 2268 
Q 2250 2553 1709 2553 
Q 1456 2553 1204 2497 
Q 953 2441 691 2322 
L 691 4666 
z
" transform="scale(0.015625)"/>
       </defs>
       <use xlink:href="#DejaVuSans-35"/>
       <use xlink:href="#DejaVuSans-30" x="63.623047"/>
       <use xlink:href="#DejaVuSans-30" x="127.246094"/>
      </g>
     </g>
    </g>
    <g id="xtick_3">
     <g id="line2d_3">
      <g>
       <use xlink:href="#m7ad759b216" x="164.039603" y="307.584" style="stroke: #000000; stroke-width: 0.8"/>
      </g>
     </g>
     <g id="text_3">
      <!-- 1000 -->
      <g transform="translate(151.314603 322.182437)scale(0.1 -0.1)">
       <defs>
        <path id="DejaVuSans-31" d="M 794 531 
L 1825 531 
L 1825 4091 
L 703 3866 
L 703 4441 
L 1819 4666 
L 2450 4666 
L 2450 531 
L 3481 531 
L 3481 0 
L 794 0 
L 794 531 
z
" transform="scale(0.015625)"/>
       </defs>
       <use xlink:href="#DejaVuSans-31"/>
       <use xlink:href="#DejaVuSans-30" x="63.623047"/>
       <use xlink:href="#DejaVuSans-30" x="127.246094"/>
       <use xlink:href="#DejaVuSans-30" x="190.869141"/>
      </g>
     </g>
    </g>
    <g id="xtick_4">
     <g id="line2d_4">
      <g>
       <use xlink:href="#m7ad759b216" x="209.143041" y="307.584" style="stroke: #000000; stroke-width: 0.8"/>
      </g>
     </g>
     <g id="text_4">
      <!-- 1500 -->
      <g transform="translate(196.418041 322.182437)scale(0.1 -0.1)">
       <use xlink:href="#DejaVuSans-31"/>
       <use xlink:href="#DejaVuSans-35" x="63.623047"/>
       <use xlink:href="#DejaVuSans-30" x="127.246094"/>
       <use xlink:href="#DejaVuSans-30" x="190.869141"/>
      </g>
     </g>
    </g>
    <g id="xtick_5">
     <g id="line2d_5">
      <g>
       <use xlink:href="#m7ad759b216" x="254.246479" y="307.584" style="stroke: #000000; stroke-width: 0.8"/>
      </g>
     </g>
     <g id="text_5">
      <!-- 2000 -->
      <g transform="translate(241.521479 322.182437)scale(0.1 -0.1)">
       <defs>
        <path id="DejaVuSans-32" d="M 1228 531 
L 3431 531 
L 3431 0 
L 469 0 
L 469 531 
Q 828 903 1448 1529 
Q 2069 2156 2228 2338 
Q 2531 2678 2651 2914 
Q 2772 3150 2772 3378 
Q 2772 3750 2511 3984 
Q 2250 4219 1831 4219 
Q 1534 4219 1204 4116 
Q 875 4013 500 3803 
L 500 4441 
Q 881 4594 1212 4672 
Q 1544 4750 1819 4750 
Q 2544 4750 2975 4387 
Q 3406 4025 3406 3419 
Q 3406 3131 3298 2873 
Q 3191 2616 2906 2266 
Q 2828 2175 2409 1742 
Q 1991 1309 1228 531 
z
" transform="scale(0.015625)"/>
       </defs>
       <use xlink:href="#DejaVuSans-32"/>
       <use xlink:href="#DejaVuSans-30" x="63.623047"/>
       <use xlink:href="#DejaVuSans-30" x="127.246094"/>
       <use xlink:href="#DejaVuSans-30" x="190.869141"/>
      </g>
     </g>
    </g>
    <g id="xtick_6">
     <g id="line2d_6">
      <g>
       <use xlink:href="#m7ad759b216" x="299.349916" y="307.584" style="stroke: #000000; stroke-width: 0.8"/>
      </g>
     </g>
     <g id="text_6">
      <!-- 2500 -->
      <g transform="translate(286.624916 322.182437)scale(0.1 -0.1)">
       <use xlink:href="#DejaVuSans-32"/>
       <use xlink:href="#DejaVuSans-35" x="63.623047"/>
       <use xlink:href="#DejaVuSans-30" x="127.246094"/>
       <use xlink:href="#DejaVuSans-30" x="190.869141"/>
      </g>
     </g>
    </g>
    <g id="xtick_7">
     <g id="line2d_7">
      <g>
       <use xlink:href="#m7ad759b216" x="344.453354" y="307.584" style="stroke: #000000; stroke-width: 0.8"/>
      </g>
     </g>
     <g id="text_7">
      <!-- 3000 -->
      <g transform="translate(331.728354 322.182437)scale(0.1 -0.1)">
       <defs>
        <path id="DejaVuSans-33" d="M 2597 2516 
Q 3050 2419 3304 2112 
Q 3559 1806 3559 1356 
Q 3559 666 3084 287 
Q 2609 -91 1734 -91 
Q 1441 -91 1130 -33 
Q 819 25 488 141 
L 488 750 
Q 750 597 1062 519 
Q 1375 441 1716 441 
Q 2309 441 2620 675 
Q 2931 909 2931 1356 
Q 2931 1769 2642 2001 
Q 2353 2234 1838 2234 
L 1294 2234 
L 1294 2753 
L 1863 2753 
Q 2328 2753 2575 2939 
Q 2822 3125 2822 3475 
Q 2822 3834 2567 4026 
Q 2313 4219 1838 4219 
Q 1578 4219 1281 4162 
Q 984 4106 628 3988 
L 628 4550 
Q 988 4650 1302 4700 
Q 1616 4750 1894 4750 
Q 2613 4750 3031 4423 
Q 3450 4097 3450 3541 
Q 3450 3153 3228 2886 
Q 3006 2619 2597 2516 
z
" transform="scale(0.015625)"/>
       </defs>
       <use xlink:href="#DejaVuSans-33"/>
       <use xlink:href="#DejaVuSans-30" x="63.623047"/>
       <use xlink:href="#DejaVuSans-30" x="127.246094"/>
       <use xlink:href="#DejaVuSans-30" x="190.869141"/>
      </g>
     </g>
    </g>
    <g id="xtick_8">
     <g id="line2d_8">
      <g>
       <use xlink:href="#m7ad759b216" x="389.556792" y="307.584" style="stroke: #000000; stroke-width: 0.8"/>
      </g>
     </g>
     <g id="text_8">
      <!-- 3500 -->
      <g transform="translate(376.831792 322.182437)scale(0.1 -0.1)">
       <use xlink:href="#DejaVuSans-33"/>
       <use xlink:href="#DejaVuSans-35" x="63.623047"/>
       <use xlink:href="#DejaVuSans-30" x="127.246094"/>
       <use xlink:href="#DejaVuSans-30" x="190.869141"/>
      </g>
     </g>
    </g>
   </g>
   <g id="matplotlib.axis_2">
    <g id="ytick_1">
     <g id="line2d_9">
      <defs>
       <path id="mbad7beba82" d="M 0 0 
L -3.5 0 
" style="stroke: #000000; stroke-width: 0.8"/>
      </defs>
      <g>
       <use xlink:href="#mbad7beba82" x="57.6" y="280.403044" style="stroke: #000000; stroke-width: 0.8"/>
      </g>
     </g>
     <g id="text_9">
      <!-- 4075 -->
      <g transform="translate(25.15 284.202263)scale(0.1 -0.1)">
       <defs>
        <path id="DejaVuSans-34" d="M 2419 4116 
L 825 1625 
L 2419 1625 
L 2419 4116 
z
M 2253 4666 
L 3047 4666 
L 3047 1625 
L 3713 1625 
L 3713 1100 
L 3047 1100 
L 3047 0 
L 2419 0 
L 2419 1100 
L 313 1100 
L 313 1709 
L 2253 4666 
z
" transform="scale(0.015625)"/>
        <path id="DejaVuSans-37" d="M 525 4666 
L 3525 4666 
L 3525 4397 
L 1831 0 
L 1172 0 
L 2766 4134 
L 525 4134 
L 525 4666 
z
" transform="scale(0.015625)"/>
       </defs>
       <use xlink:href="#DejaVuSans-34"/>
       <use xlink:href="#DejaVuSans-30" x="63.623047"/>
       <use xlink:href="#DejaVuSans-37" x="127.246094"/>
       <use xlink:href="#DejaVuSans-35" x="190.869141"/>
      </g>
     </g>
    </g>
    <g id="ytick_2">
     <g id="line2d_10">
      <g>
       <use xlink:href="#mbad7beba82" x="57.6" y="244.08708" style="stroke: #000000; stroke-width: 0.8"/>
      </g>
     </g>
     <g id="text_10">
      <!-- 4100 -->
      <g transform="translate(25.15 247.886299)scale(0.1 -0.1)">
       <use xlink:href="#DejaVuSans-34"/>
       <use xlink:href="#DejaVuSans-31" x="63.623047"/>
       <use xlink:href="#DejaVuSans-30" x="127.246094"/>
       <use xlink:href="#DejaVuSans-30" x="190.869141"/>
      </g>
     </g>
    </g>
    <g id="ytick_3">
     <g id="line2d_11">
      <g>
       <use xlink:href="#mbad7beba82" x="57.6" y="207.771116" style="stroke: #000000; stroke-width: 0.8"/>
      </g>
     </g>
     <g id="text_11">
      <!-- 4125 -->
      <g transform="translate(25.15 211.570335)scale(0.1 -0.1)">
       <use xlink:href="#DejaVuSans-34"/>
       <use xlink:href="#DejaVuSans-31" x="63.623047"/>
       <use xlink:href="#DejaVuSans-32" x="127.246094"/>
       <use xlink:href="#DejaVuSans-35" x="190.869141"/>
      </g>
     </g>
    </g>
    <g id="ytick_4">
     <g id="line2d_12">
      <g>
       <use xlink:href="#mbad7beba82" x="57.6" y="171.455152" style="stroke: #000000; stroke-width: 0.8"/>
      </g>
     </g>
     <g id="text_12">
      <!-- 4150 -->
      <g transform="translate(25.15 175.254371)scale(0.1 -0.1)">
       <use xlink:href="#DejaVuSans-34"/>
       <use xlink:href="#DejaVuSans-31" x="63.623047"/>
       <use xlink:href="#DejaVuSans-35" x="127.246094"/>
       <use xlink:href="#DejaVuSans-30" x="190.869141"/>
      </g>
     </g>
    </g>
    <g id="ytick_5">
     <g id="line2d_13">
      <g>
       <use xlink:href="#mbad7beba82" x="57.6" y="135.139188" style="stroke: #000000; stroke-width: 0.8"/>
      </g>
     </g>
     <g id="text_13">
      <!-- 4175 -->
      <g transform="translate(25.15 138.938407)scale(0.1 -0.1)">
       <use xlink:href="#DejaVuSans-34"/>
       <use xlink:href="#DejaVuSans-31" x="63.623047"/>
       <use xlink:href="#DejaVuSans-37" x="127.246094"/>
       <use xlink:href="#DejaVuSans-35" x="190.869141"/>
      </g>
     </g>
    </g>
    <g id="ytick_6">
     <g id="line2d_14">
      <g>
       <use xlink:href="#mbad7beba82" x="57.6" y="98.823224" style="stroke: #000000; stroke-width: 0.8"/>
      </g>
     </g>
     <g id="text_14">
      <!-- 4200 -->
      <g transform="translate(25.15 102.622443)scale(0.1 -0.1)">
       <use xlink:href="#DejaVuSans-34"/>
       <use xlink:href="#DejaVuSans-32" x="63.623047"/>
       <use xlink:href="#DejaVuSans-30" x="127.246094"/>
       <use xlink:href="#DejaVuSans-30" x="190.869141"/>
      </g>
     </g>
    </g>
    <g id="ytick_7">
     <g id="line2d_15">
      <g>
       <use xlink:href="#mbad7beba82" x="57.6" y="62.50726" style="stroke: #000000; stroke-width: 0.8"/>
      </g>
     </g>
     <g id="text_15">
      <!-- 4225 -->
      <g transform="translate(25.15 66.306479)scale(0.1 -0.1)">
       <use xlink:href="#DejaVuSans-34"/>
       <use xlink:href="#DejaVuSans-32" x="63.623047"/>
       <use xlink:href="#DejaVuSans-32" x="127.246094"/>
       <use xlink:href="#DejaVuSans-35" x="190.869141"/>
      </g>
     </g>
    </g>
   </g>
   <g id="line2d_16">
    <path d="M 73.832727 222.856428 
L 74.013141 215.77907 
L 74.193555 238.127574 
L 74.373969 212.799317 
L 74.464175 221.738576 
L 74.554382 218.758824 
L 74.644589 206.280885 
L 74.734796 210.564325 
L 74.91521 233.099373 
L 75.005417 226.580941 
L 75.18583 236.823888 
L 75.276037 230.305455 
L 75.456451 243.528154 
L 75.636865 231.795687 
L 75.727072 232.353904 
L 75.907485 233.471754 
L 75.997692 236.637343 
L 76.087899 230.119621 
L 76.268313 210.75087 
L 76.448727 234.588896 
L 76.538934 227.698082 
L 76.62914 228.257008 
L 76.719347 237.755193 
L 76.809554 229.74724 
L 76.899761 210.006108 
L 76.989968 213.358242 
L 77.080175 228.815934 
L 77.260589 209.819563 
L 77.441002 235.706746 
L 77.621416 225.090711 
L 77.80183 225.83618 
L 77.892037 237.382813 
L 77.982244 233.471754 
L 78.07245 211.12325 
L 78.162657 211.682176 
L 78.343071 230.305455 
L 78.523485 215.40669 
L 78.703899 212.799317 
L 78.794105 210.191944 
L 78.974519 216.524541 
L 79.154933 207.957661 
L 79.24514 209.633729 
L 79.425554 217.082756 
L 79.605967 199.948998 
L 79.786381 228.257008 
L 79.876588 226.580941 
L 80.057002 212.426936 
L 80.237415 225.649635 
L 80.417829 200.880305 
L 80.598243 212.799317 
L 80.778657 205.908504 
L 80.95907 220.249055 
L 81.049277 215.034309 
L 81.139484 217.455137 
L 81.319898 191.568663 
L 81.500312 205.722669 
L 81.590519 189.706052 
L 81.680725 196.596864 
L 81.770932 215.77907 
L 81.861139 211.682176 
L 81.951346 209.074803 
L 82.13176 215.593235 
L 82.312174 199.390782 
L 82.492587 217.641682 
L 82.673001 190.264977 
L 82.763208 193.803657 
L 83.033829 218.014063 
L 83.124035 213.730623 
L 83.304449 188.961292 
L 83.394656 191.009739 
L 83.57507 187.84415 
L 83.665277 190.451522 
L 83.755484 189.706052 
L 83.935897 199.017692 
L 84.116311 187.657605 
L 84.296725 205.163743 
L 84.386932 202.370536 
L 84.567345 212.985862 
L 84.837966 185.050232 
L 85.01838 193.431276 
L 85.198794 165.495646 
L 85.379207 197.15579 
L 85.559621 169.406705 
L 85.740035 202.928751 
L 85.830242 202.183991 
L 85.920449 188.588911 
L 86.010655 188.774747 
L 86.100862 196.03794 
L 86.281276 173.503599 
L 86.371483 192.49997 
L 86.551897 155.62508 
L 86.642104 163.819579 
L 86.73231 173.87598 
L 86.912724 167.730638 
L 87.183345 191.568663 
L 87.273552 191.009739 
L 87.363759 192.127589 
L 87.544172 190.264977 
L 87.634379 190.637358 
L 87.724586 190.264977 
L 87.905 185.050232 
L 87.995207 185.236777 
L 88.085414 188.961292 
L 88.265827 186.353919 
L 88.446241 213.917168 
L 88.626655 188.588911 
L 88.716862 195.107343 
L 88.897276 182.257023 
L 89.077689 195.665559 
L 89.34831 169.779085 
L 89.528724 189.706052 
L 89.618931 185.236777 
L 89.799344 193.803657 
L 89.979758 180.394413 
L 90.160172 254.330027 
L 90.250379 252.095388 
L 90.340586 240.176021 
L 90.430792 242.783394 
L 90.701413 263.828212 
L 90.79162 268.484032 
L 90.881827 266.24904 
L 91.062241 256.192284 
L 91.242654 278.913167 
L 91.423068 255.447523 
L 91.513275 260.475722 
L 91.603482 258.985847 
L 91.693689 255.633712 
L 91.874102 258.985847 
L 92.325137 209.633729 
L 92.415344 210.378489 
L 92.595757 231.236762 
L 92.866378 216.710377 
L 93.046792 241.107326 
L 93.227206 224.532494 
L 93.317412 225.090711 
L 93.497826 236.264962 
L 93.588033 235.333656 
L 93.67824 235.520201 
L 93.948861 270.90486 
L 94.039067 271.463784 
L 94.129274 275.374843 
L 94.399895 238.127574 
L 94.490102 241.479707 
L 94.760722 259.730962 
L 94.941136 247.625759 
L 95.031343 253.585265 
L 95.12155 251.722654 
L 95.301964 233.657589 
L 95.482377 244.646006 
L 95.752998 224.345949 
L 95.933412 238.127574 
L 96.113826 226.953322 
L 96.294239 246.507908 
L 96.384446 257.49597 
L 96.474653 255.633712 
L 96.56486 243.528154 
L 96.655067 246.694453 
L 96.745274 254.330027 
L 96.925687 236.264962 
L 97.015894 238.499955 
L 97.196308 219.690129 
L 97.376722 244.459461 
L 97.557136 211.682176 
L 97.647342 212.2411 
L 97.827756 240.548402 
L 98.098377 213.171697 
L 98.188584 226.767486 
L 98.278791 224.71833 
L 98.368997 234.030679 
L 98.459204 231.795687 
L 98.639618 207.398735 
L 98.729825 205.163743 
L 99.000446 186.353919 
L 99.180859 191.196284 
L 99.361273 178.5318 
L 99.541687 193.058186 
L 99.631894 190.264977 
L 99.812307 195.852104 
L 99.992721 180.580957 
L 100.173135 196.969245 
L 100.263342 192.313425 
L 100.443756 179.463106 
L 100.533962 187.657605 
L 100.624169 186.726298 
L 100.804583 164.750885 
L 101.255617 185.981538 
L 101.436031 191.382118 
L 101.706652 179.649651 
L 101.887066 207.957661 
L 102.067479 180.208577 
L 102.247893 192.87235 
L 102.428307 179.090726 
L 102.608721 160.467445 
L 102.698927 164.56434 
L 102.789134 163.447199 
L 102.879341 165.123265 
L 103.059755 191.941044 
L 103.149962 190.823903 
L 103.330376 184.118926 
L 103.420582 186.353919 
L 103.510789 192.49997 
L 103.600996 191.941044 
L 103.691203 191.196284 
L 103.78141 191.754499 
L 103.871617 188.588911 
L 104.052031 199.763163 
L 104.232444 189.520216 
L 104.412858 215.40669 
L 104.683479 198.831856 
L 104.863892 189.147835 
L 104.954099 193.617112 
L 105.134513 205.908504 
L 105.22472 202.928751 
L 105.314927 203.860057 
L 105.405134 210.75087 
L 105.495341 208.888258 
L 105.585548 202.928751 
L 105.675754 204.977907 
L 105.856168 213.544078 
L 106.036582 201.066849 
L 106.216996 207.771116 
L 106.307203 192.49997 
L 106.487616 216.710377 
L 106.66803 191.196284 
L 106.938651 254.143837 
L 107.028858 250.232777 
L 107.209271 234.588896 
L 107.299478 234.775441 
L 107.389685 236.079127 
L 107.570099 224.71833 
L 107.750513 234.961275 
L 108.021133 218.014063 
L 108.201547 230.864381 
L 108.381961 211.12325 
L 108.472168 213.171697 
L 108.652581 208.143497 
L 108.742788 214.289549 
L 108.923202 209.261348 
L 109.103616 226.208561 
L 109.284029 215.593235 
L 109.374236 218.945368 
L 109.55465 213.544078 
L 109.735064 216.524541 
L 109.825271 214.289549 
L 110.186098 186.540464 
L 110.456719 217.827518 
L 110.546926 214.475383 
L 110.637133 210.191944 
L 110.727339 213.917168 
L 110.817546 209.074803 
L 110.99796 185.422612 
L 111.178374 191.754499 
L 111.268581 189.147835 
L 111.448994 193.617112 
L 111.629408 182.815239 
L 111.719615 177.228114 
L 111.809822 178.159419 
L 112.080443 195.665559 
L 112.351063 175.925136 
L 112.44127 166.612787 
L 112.621684 191.382118 
L 112.892304 166.240406 
L 112.982511 168.661943 
L 113.162925 192.313425 
L 113.253132 191.568663 
L 113.433546 213.730623 
L 113.613959 188.402366 
L 113.704166 202.183991 
L 113.794373 201.625065 
L 113.974787 182.257023 
L 114.064994 189.520216 
L 114.155201 184.864396 
L 114.245408 192.127589 
L 114.335614 214.103004 
L 114.425821 212.2411 
L 114.516028 201.81161 
L 114.606235 202.556371 
L 114.696442 211.86801 
L 114.876856 194.176036 
L 115.057269 216.151451 
L 115.147476 211.309795 
L 115.32789 184.30547 
L 115.598511 213.917168 
L 115.688718 210.937414 
L 115.869131 205.350288 
L 115.959338 205.722669 
L 116.229959 210.937414 
L 116.410373 188.21653 
L 116.500579 190.637358 
L 116.680993 210.006108 
L 116.861407 190.264977 
L 117.041821 211.682176 
L 117.222234 199.763163 
L 117.402648 215.593235 
L 117.673269 186.168083 
L 117.853683 183.746546 
L 117.943889 186.912843 
L 118.034096 186.726298 
L 118.124303 185.050232 
L 118.485131 215.40669 
L 118.575338 215.034309 
L 118.755751 186.726298 
L 119.026372 218.014063 
L 119.116579 215.40669 
L 119.206786 209.819563 
L 119.387199 196.03794 
L 119.477406 213.171697 
L 119.567613 210.564325 
L 119.748027 183.933091 
L 119.928441 200.321379 
L 120.018648 194.548417 
L 120.289268 210.191944 
L 120.379475 218.200607 
L 120.469682 216.896922 
L 120.559889 202.742915 
L 120.650096 206.653975 
L 120.740303 217.455137 
L 121.191337 184.864396 
L 121.371751 195.107343 
L 121.461958 188.402366 
L 121.552164 189.892597 
L 121.642371 192.685805 
L 121.732578 191.382118 
L 121.912992 205.536124 
L 122.003199 200.135543 
L 122.093406 201.625065 
L 122.183613 210.378489 
L 122.364026 185.609157 
L 122.54444 211.86801 
L 122.634647 209.633729 
L 122.724854 220.249055 
L 122.905268 212.613481 
L 123.085681 234.216515 
L 123.266095 201.81161 
L 123.356302 209.633729 
L 123.536716 186.353919 
L 123.71713 217.269301 
L 123.807336 213.171697 
L 123.98775 235.14782 
L 124.077957 231.423307 
L 124.168164 223.601188 
L 124.258371 224.904875 
L 124.438785 231.236762 
L 124.619198 223.228807 
L 124.709405 237.196269 
L 124.799612 235.706746 
L 124.889819 220.43489 
L 125.070233 252.281579 
L 125.16044 241.666252 
L 125.250646 228.629389 
L 125.340853 232.540449 
L 125.521267 212.613481 
L 125.701681 231.609142 
L 125.882095 223.042262 
L 125.972301 224.160114 
L 126.152715 209.261348 
L 126.242922 214.475383 
L 126.423336 234.030679 
L 126.60375 199.204237 
L 126.693956 207.21219 
L 126.87437 197.900551 
L 127.054784 210.378489 
L 127.144991 203.860057 
L 127.235198 205.163743 
L 127.325405 209.074803 
L 127.415611 207.21219 
L 127.596025 194.548417 
L 127.776439 218.572988 
L 127.866646 216.151451 
L 127.956853 220.06251 
L 128.137266 238.6865 
L 128.407887 211.309795 
L 128.498094 217.641682 
L 128.678508 213.730623 
L 128.768715 215.220854 
L 128.858921 211.86801 
L 128.949128 212.426936 
L 129.039335 212.426936 
L 129.129542 207.21219 
L 129.219749 207.957661 
L 129.309956 210.006108 
L 129.580576 206.280885 
L 129.670783 205.908504 
L 129.851197 217.082756 
L 130.031611 208.330042 
L 130.121818 213.917168 
L 130.212025 212.985862 
L 130.392438 216.337996 
L 130.572852 210.378489 
L 130.753266 272.767471 
L 130.843473 271.277595 
L 130.93368 261.779409 
L 131.023886 263.828212 
L 131.384714 295.11562 
L 131.655335 272.208546 
L 131.745541 270.532479 
L 131.925955 279.844474 
L 132.196576 268.856413 
L 132.37699 277.050911 
L 132.467196 271.836165 
L 132.64761 248.183974 
L 132.737817 249.487661 
L 132.828024 247.625759 
L 132.918231 237.382813 
L 133.008438 239.803641 
L 133.279058 263.641667 
L 133.459472 245.390767 
L 133.639886 258.054896 
L 133.730093 247.439214 
L 133.8203 247.99814 
L 133.910506 259.917152 
L 134.000713 258.985847 
L 134.09092 251.350273 
L 134.181127 254.702407 
L 134.271334 250.977892 
L 134.451748 223.042262 
L 134.541955 223.973569 
L 134.722368 205.722669 
L 134.902782 209.819563 
L 134.992989 206.46743 
L 135.083196 209.819563 
L 135.26361 236.637343 
L 135.353816 236.079127 
L 135.53423 211.12325 
L 135.714644 217.641682 
L 135.804851 211.682176 
L 135.895058 215.40669 
L 135.985265 226.394396 
L 136.075471 224.160114 
L 136.255885 209.447184 
L 136.436299 211.12325 
L 136.616713 203.674221 
L 136.70692 204.604817 
L 136.797126 206.095049 
L 136.887333 205.908504 
L 137.067747 225.649635 
L 137.248161 208.330042 
L 137.338368 216.151451 
L 137.608988 201.998155 
L 137.789402 186.540464 
L 137.969816 219.131203 
L 138.15023 184.491307 
L 138.42085 217.827518 
L 138.691471 199.390782 
L 138.781678 211.12325 
L 138.962091 252.65396 
L 139.142505 211.495631 
L 139.232712 224.160114 
L 139.322919 221.18036 
L 139.503333 206.653975 
L 139.59354 206.653975 
L 139.683746 207.398735 
L 139.773953 210.006108 
L 139.954367 189.333671 
L 140.134781 205.722669 
L 140.224988 203.115296 
L 140.405402 211.12325 
L 140.495608 201.252684 
L 140.585815 201.625065 
L 140.676022 210.75087 
L 141.217263 159.163759 
L 141.487884 190.451522 
L 141.578091 187.471769 
L 141.668298 188.774747 
L 141.758505 194.176036 
L 141.848712 190.451522 
L 141.938918 191.009739 
L 142.119332 212.985862 
L 142.299746 186.353919 
L 142.48016 210.564325 
L 142.660573 177.601204 
L 142.840987 192.49997 
L 143.201815 153.762468 
L 143.382228 164.750885 
L 143.472435 160.095064 
L 143.562642 166.612787 
L 143.743056 194.176036 
L 143.92347 180.766792 
L 144.103883 195.479723 
L 144.284297 184.30547 
L 144.645125 191.568663 
L 144.825538 185.981538 
L 145.005952 207.026356 
L 145.36678 188.774747 
L 145.547193 185.050232 
L 145.6374 188.588911 
L 145.817814 205.908504 
L 145.908021 190.078432 
L 145.998228 193.431276 
L 146.088435 198.831856 
L 146.178642 192.49997 
L 146.359055 216.151451 
L 146.539469 198.645311 
L 146.629676 214.475383 
L 146.81009 204.604817 
L 146.900297 213.544078 
L 146.990503 209.633729 
L 147.170917 231.236762 
L 147.261124 226.208561 
L 147.351331 228.070463 
L 147.531745 258.799656 
L 147.802365 246.880289 
L 147.892572 249.115281 
L 147.982779 248.7429 
L 148.163193 234.40306 
L 148.343607 243.155775 
L 148.52402 235.892582 
L 148.704434 243.34232 
L 148.975055 225.83618 
L 149.155468 235.520201 
L 149.245675 228.815934 
L 149.426089 235.520201 
L 149.516296 232.726992 
L 149.606503 238.127574 
L 149.786917 258.241085 
L 150.237951 233.285209 
L 150.328158 233.657589 
L 150.598778 210.564325 
L 150.688985 213.917168 
L 150.869399 205.722669 
L 151.14002 232.353904 
L 151.230227 230.864381 
L 151.41064 210.006108 
L 151.591054 228.815934 
L 151.681261 227.139867 
L 151.771468 218.200607 
L 151.861675 218.945368 
L 152.042088 238.127574 
L 152.222502 230.864381 
L 152.402916 217.827518 
L 152.58333 241.852088 
L 152.763743 218.200607 
L 152.944157 228.629389 
L 153.124571 206.653975 
L 153.304985 211.12325 
L 153.485398 198.272932 
L 153.575605 185.609157 
L 153.665812 189.333671 
L 153.846226 214.661928 
L 153.936433 213.917168 
L 154.02664 214.661928 
L 154.116847 214.475383 
L 154.207053 210.937414 
L 154.477674 187.098679 
L 154.567881 190.264977 
L 154.748295 213.358242 
L 154.838502 208.330042 
L 154.928708 209.261348 
L 155.018915 215.220854 
L 155.109122 211.309795 
L 155.289536 229.001769 
L 155.46995 213.171697 
L 155.650363 238.6865 
L 155.920984 210.937414 
L 156.101398 234.961275 
L 156.191605 229.188314 
L 156.281812 230.492 
L 156.462225 233.844134 
L 156.642639 236.823888 
L 156.732846 234.030679 
L 156.823053 234.961275 
L 156.91326 234.775441 
L 157.093673 211.682176 
L 157.274087 232.726992 
L 157.454501 210.75087 
L 157.634915 231.050926 
L 157.725122 227.139867 
L 157.905535 240.548402 
L 157.995742 238.6865 
L 158.266363 223.973569 
L 158.35657 206.839811 
L 158.446777 207.584571 
L 158.62719 228.629389 
L 158.717397 226.580941 
L 158.897811 246.507908 
L 159.078225 233.285209 
L 159.168432 237.382813 
L 159.348845 213.171697 
L 159.619466 235.14782 
L 159.709673 231.609142 
L 159.980294 209.261348 
L 160.160707 230.492 
L 160.341121 211.12325 
L 160.431328 228.629389 
L 160.611742 215.593235 
L 160.701949 218.758824 
L 160.792155 216.151451 
L 160.882362 220.621434 
L 161.062776 235.892582 
L 161.152983 226.022016 
L 161.333397 236.823888 
L 161.784431 202.928751 
L 161.964845 222.856428 
L 162.145259 207.584571 
L 162.235465 216.337996 
L 162.325672 214.847764 
L 162.415879 206.839811 
L 162.506086 208.515877 
L 162.596293 209.819563 
L 162.6865 207.026356 
L 162.866914 211.495631 
L 162.95712 205.722669 
L 163.047327 213.171697 
L 163.137534 211.12325 
L 163.227741 203.115296 
L 163.317948 207.21219 
L 163.408155 205.722669 
L 163.498362 200.880305 
L 163.678775 211.682176 
L 163.859189 183.188329 
L 163.949396 191.196284 
L 164.12981 179.649651 
L 164.40043 191.941044 
L 164.490637 190.264977 
L 164.580844 186.353919 
L 164.671051 186.540464 
L 164.851465 189.333671 
L 165.031879 198.459477 
L 165.212292 184.864396 
L 165.302499 192.127589 
L 165.392706 191.568663 
L 165.482913 194.361872 
L 165.663327 220.06251 
L 165.84374 204.977907 
L 165.933947 205.908504 
L 166.114361 169.22016 
L 166.384982 193.058186 
L 166.655602 167.544093 
L 166.745809 169.406705 
L 166.926223 195.107343 
L 167.01643 193.989491 
L 167.196844 164.005415 
L 167.377257 177.78704 
L 167.467464 165.309101 
L 167.557671 167.171713 
L 167.738085 183.933091 
L 167.828292 183.188329 
L 168.008705 167.544093 
L 168.189119 182.257023 
L 168.279326 180.953337 
L 168.45974 202.370536 
L 168.640154 191.754499 
L 168.73036 199.017692 
L 168.820567 196.224485 
L 168.910774 185.236777 
L 169.000981 186.726298 
L 169.091188 193.617112 
L 169.181395 192.49997 
L 169.271602 190.823903 
L 169.452015 175.738591 
L 169.632429 204.418983 
L 169.722636 194.176036 
L 169.90305 216.710377 
L 170.083464 187.84415 
L 170.17367 189.520216 
L 170.354084 185.794993 
L 170.444291 191.009739 
L 170.534498 189.520216 
L 170.624705 184.491307 
L 170.895325 190.823903 
L 170.985532 190.264977 
L 171.075739 190.637358 
L 171.165946 195.852104 
L 171.34636 233.471754 
L 171.526774 225.277256 
L 171.707187 236.079127 
L 171.887601 236.451507 
L 172.068015 233.844134 
L 172.158222 237.755193 
L 172.338635 223.601188 
L 172.519049 250.418968 
L 172.609256 245.390767 
L 172.78967 221.925121 
L 172.970084 235.14782 
L 173.06029 230.305455 
L 173.240704 204.232438 
L 173.421118 215.77907 
L 173.601532 205.350288 
L 173.781945 213.544078 
L 173.872152 213.544078 
L 173.962359 211.682176 
L 174.052566 205.350288 
L 174.142773 207.026356 
L 174.23298 213.544078 
L 174.413394 210.378489 
L 174.593807 235.14782 
L 174.864428 210.564325 
L 175.044842 186.726298 
L 175.225256 191.196284 
L 175.315462 189.520216 
L 175.405669 191.754499 
L 175.586083 182.070479 
L 175.766497 202.370536 
L 175.856704 214.103004 
L 175.946911 212.054555 
L 176.127324 184.677851 
L 176.307738 201.625065 
L 176.488152 186.726298 
L 176.668566 209.447184 
L 176.848979 182.815239 
L 177.029393 189.706052 
L 177.1196 188.402366 
L 177.209807 190.451522 
L 177.300014 190.078432 
L 177.390221 188.402366 
L 177.480427 192.685805 
L 177.570634 203.301132 
L 177.660841 203.115296 
L 177.751048 186.540464 
L 177.841255 189.706052 
L 177.931462 208.330042 
L 178.111876 194.176036 
L 178.202082 200.507924 
L 178.382496 183.188329 
L 178.56291 201.998155 
L 178.743324 184.30547 
L 178.833531 186.353919 
L 179.013944 199.948998 
L 179.284565 187.471769 
L 179.555186 234.775441 
L 179.735599 203.674221 
L 179.916013 212.799317 
L 180.00622 207.584571 
L 180.186634 190.637358 
L 180.276841 199.576618 
L 180.367047 196.969245 
L 180.457254 183.374165 
L 180.637668 208.702422 
L 180.727875 200.694468 
L 180.818082 189.706052 
L 180.908289 191.754499 
L 180.998496 192.313425 
L 181.178909 184.491307 
L 181.359323 195.293178 
L 181.539737 188.029985 
L 181.629944 190.451522 
L 181.810357 178.718345 
L 182.080978 194.176036 
L 182.441806 186.353919 
L 182.532012 184.864396 
L 182.89284 192.87235 
L 183.073254 204.977907 
L 183.253667 183.188329 
L 183.343874 191.941044 
L 183.434081 190.823903 
L 183.524288 186.912843 
L 183.614495 190.637358 
L 183.794909 166.426951 
L 183.975322 185.609157 
L 184.065529 169.59254 
L 184.155736 176.110972 
L 184.33615 192.87235 
L 184.516564 182.44286 
L 184.696977 205.908504 
L 184.877391 188.029985 
L 184.967598 188.774747 
L 185.148012 210.191944 
L 185.238219 206.839811 
L 185.418632 184.30547 
L 185.599046 204.791362 
L 185.689253 205.350288 
L 186.050081 189.147835 
L 186.140287 189.147835 
L 186.410908 213.544078 
L 186.591322 207.026356 
L 186.681529 204.977907 
L 186.771736 199.763163 
L 186.952149 216.337996 
L 187.132563 208.515877 
L 187.22277 213.358242 
L 187.583597 204.977907 
L 187.764011 215.40669 
L 187.944425 205.163743 
L 188.124839 237.941029 
L 188.215046 237.196269 
L 188.395459 233.657589 
L 188.575873 238.314119 
L 188.756287 230.864381 
L 188.846494 233.099373 
L 188.936701 230.677836 
L 189.026907 231.050926 
L 189.207321 235.706746 
L 189.387735 238.6865 
L 189.568149 219.131203 
L 189.748562 231.795687 
L 189.838769 231.423307 
L 189.928976 234.40306 
L 190.019183 232.353904 
L 190.10939 225.83618 
L 190.199597 226.767486 
L 190.380011 251.350273 
L 190.560424 232.912828 
L 190.650631 234.216515 
L 190.831045 226.953322 
L 190.921252 233.657589 
L 191.101666 204.046602 
L 191.191872 208.702422 
L 191.282079 209.447184 
L 191.372286 196.969245 
L 191.462493 198.831856 
L 191.642907 220.06251 
L 191.823321 202.742915 
L 191.913527 205.908504 
L 192.003734 201.81161 
L 192.184148 187.657605 
L 192.454769 202.370536 
L 192.544976 196.969245 
L 192.725389 203.115296 
L 192.905803 183.188329 
L 192.99601 188.029985 
L 193.176424 207.584571 
L 193.356838 178.718345 
L 193.537251 188.21653 
L 193.717665 163.447199 
L 193.898079 175.925136 
L 194.168699 164.005415 
L 194.709941 217.082756 
L 194.800148 210.75087 
L 194.890354 212.613481 
L 195.070768 185.236777 
L 195.160975 187.657605 
L 195.341389 212.985862 
L 195.431596 209.819563 
L 195.521803 214.661928 
L 195.702216 188.029985 
L 195.792423 184.491307 
L 195.972837 191.941044 
L 196.153251 183.374165 
L 196.243458 191.009739 
L 196.333664 190.823903 
L 196.514078 182.815239 
L 196.694492 190.451522 
L 196.784699 189.147835 
L 196.874906 185.794993 
L 196.965113 186.353919 
L 197.235733 192.49997 
L 197.32594 192.87235 
L 197.686768 185.794993 
L 197.867181 190.078432 
L 198.047595 182.815239 
L 198.228009 188.588911 
L 198.318216 188.402366 
L 198.498629 185.609157 
L 198.588836 188.21653 
L 198.76925 172.386458 
L 198.859457 176.855733 
L 198.949664 174.62145 
L 199.039871 167.358257 
L 199.220284 188.961292 
L 199.400698 182.44286 
L 199.671319 188.961292 
L 199.761526 188.588911 
L 199.941939 180.766792 
L 200.122353 188.588911 
L 200.21256 187.285224 
L 200.302767 188.402366 
L 200.392974 187.84415 
L 200.573388 183.001784 
L 200.753801 185.794993 
L 200.844008 183.374165 
L 200.934215 177.042278 
L 201.114629 182.815239 
L 201.385249 168.661943 
L 201.475456 171.827533 
L 201.65587 184.491307 
L 201.836284 167.730638 
L 201.926491 172.386458 
L 202.016698 172.014078 
L 202.106904 169.22016 
L 202.738353 73.122586 
L 202.828559 74.240437 
L 202.918766 73.309131 
L 203.09918 57.292514 
L 203.189387 62.693805 
L 203.279594 61.575955 
L 203.369801 53.568 
L 203.550214 58.968582 
L 203.640421 56.920135 
L 203.730628 159.53614 
L 203.820835 159.163759 
L 203.911042 158.977214 
L 204.091456 156.184006 
L 204.271869 167.358257 
L 204.452283 145.19559 
L 204.632697 156.369841 
L 204.722904 156.742222 
L 204.903318 166.426951 
L 204.993524 159.908521 
L 205.173938 168.103019 
L 205.354352 162.701728 
L 205.534766 165.123265 
L 205.624973 164.378504 
L 205.715179 164.56434 
L 205.805386 166.054572 
L 205.895593 169.59254 
L 205.9858 168.661943 
L 206.076007 165.868027 
L 206.256421 179.463106 
L 206.436834 168.847779 
L 206.527041 170.338011 
L 206.707455 164.005415 
L 206.887869 166.054572 
L 207.068283 164.93672 
L 207.158489 166.240406 
L 207.248696 164.93672 
L 207.338903 160.653281 
L 207.42911 162.329347 
L 207.609524 170.710392 
L 207.789938 161.398751 
L 207.880144 165.868027 
L 208.060558 161.771132 
L 208.150765 166.799332 
L 208.240972 165.309101 
L 208.331179 158.791379 
L 208.421386 159.349595 
L 208.601799 164.005415 
L 208.782213 153.204252 
L 208.87242 156.184006 
L 209.052834 164.750885 
L 209.143041 162.515892 
L 209.323454 166.426951 
L 209.503868 159.53614 
L 209.594075 163.074818 
L 209.684282 158.232453 
L 209.774489 146.872365 
L 209.954903 163.260654 
L 210.135316 147.617127 
L 210.225523 156.184006 
L 210.405937 148.361887 
L 210.496144 155.438535 
L 210.676558 139.795008 
L 210.856971 149.852119 
L 211.127592 140.353934 
L 211.217799 141.471076 
L 211.48842 147.617127 
L 211.578626 147.617127 
L 211.75904 142.961307 
L 211.939454 170.338011 
L 212.029661 170.710392 
L 212.210075 161.584587 
L 212.390488 169.406705 
L 212.570902 170.896226 
L 212.751316 165.868027 
L 212.841523 162.701728 
L 213.021936 166.426951 
L 213.20235 160.095064 
L 213.382764 146.68582 
L 213.472971 149.106648 
L 213.563178 148.734268 
L 213.743591 142.588926 
L 214.014212 133.276576 
L 214.194626 120.426258 
L 214.37504 131.787055 
L 214.64566 121.171729 
L 214.735867 119.309116 
L 214.916281 121.916489 
L 215.186901 115.025677 
L 215.367315 117.633049 
L 215.457522 115.770438 
L 215.637936 106.272962 
L 215.728143 107.203559 
L 215.81835 106.086417 
L 216.08897 90.44289 
L 216.179177 90.628726 
L 216.540005 101.244052 
L 217.081246 75.916504 
L 217.171453 74.612818 
L 217.351866 69.398072 
L 217.442073 70.701759 
L 217.53228 70.515214 
L 217.712694 69.956998 
L 217.893108 70.887595 
L 217.983315 69.583908 
L 218.073521 71.44652 
L 218.253935 81.876011 
L 218.344142 72.93675 
L 218.434349 73.309131 
L 218.524556 80.75816 
L 218.70497 72.005445 
L 218.795176 72.377826 
L 218.885383 74.240437 
L 218.97559 72.563662 
L 219.156004 93.980859 
L 219.246211 90.628726 
L 219.336418 76.661265 
L 219.426625 79.826855 
L 219.607038 100.685837 
L 219.787452 96.774777 
L 219.877659 93.236099 
L 220.058073 259.358581 
L 220.14828 261.965599 
L 220.509107 253.026341 
L 220.689521 251.164083 
L 220.779728 246.507908 
L 220.960141 252.65396 
L 221.140555 232.912828 
L 221.230762 249.301826 
L 221.320969 248.7429 
L 221.411176 238.314119 
L 221.59159 255.261333 
L 221.772003 236.079127 
L 221.86221 246.880289 
L 221.952417 243.528154 
L 222.132831 232.353904 
L 222.223038 234.961275 
L 222.403451 231.050926 
L 222.493658 230.864381 
L 222.583865 231.795687 
L 222.764279 236.823888 
L 222.854486 235.706746 
L 222.944693 233.099373 
L 223.0349 234.961275 
L 223.215313 243.528154 
L 223.395727 235.706746 
L 223.485934 237.010432 
L 223.666348 253.21253 
L 223.756555 251.350273 
L 223.846761 248.183974 
L 224.027175 252.65396 
L 224.388003 245.390767 
L 224.47821 245.763148 
L 224.568416 246.880289 
L 224.658623 246.694453 
L 224.74883 245.390767 
L 224.929244 257.49597 
L 225.019451 250.977892 
L 225.199865 233.285209 
L 225.290071 242.969939 
L 225.380278 242.038633 
L 225.560692 236.637343 
L 225.650899 237.010432 
L 225.831313 242.411013 
L 226.011726 234.588896 
L 226.282347 256.937399 
L 226.462761 242.038633 
L 226.643175 246.322072 
L 226.823588 243.528154 
L 226.913795 247.066834 
L 227.004002 244.273625 
L 227.184416 232.353904 
L 227.274623 238.314119 
L 227.36483 237.382813 
L 227.455037 233.285209 
L 227.63545 240.920782 
L 227.725657 237.382813 
L 227.906071 240.920782 
L 227.996278 237.755193 
L 228.086485 205.722669 
L 228.176692 209.261348 
L 228.266898 212.426936 
L 228.447312 207.21219 
L 228.537519 207.771116 
L 228.80814 222.669883 
L 229.259174 208.888258 
L 229.349381 209.074803 
L 229.439588 211.86801 
L 229.620002 210.006108 
L 229.710208 210.191944 
L 229.800415 209.819563 
L 229.980829 214.475383 
L 230.071036 213.730623 
L 230.161243 214.103004 
L 230.25145 216.896922 
L 230.431863 210.378489 
L 230.612277 215.965615 
L 230.702484 213.917168 
L 230.882898 229.933076 
L 231.063312 223.414643 
L 231.153518 227.325703 
L 231.243725 225.649635 
L 231.333932 218.758824 
L 231.514346 227.139867 
L 231.69476 209.447184 
L 231.784967 211.86801 
L 231.875173 215.220854 
L 232.055587 208.330042 
L 232.326208 230.305455 
L 232.416415 226.580941 
L 232.596828 212.2411 
L 232.777242 213.730623 
L 232.867449 214.475383 
L 232.957656 213.171697 
L 233.228277 225.83618 
L 233.318483 224.904875 
L 233.498897 211.495631 
L 233.589104 214.661928 
L 233.769518 231.609142 
L 233.859725 227.884627 
L 234.040138 218.014063 
L 234.130345 221.552741 
L 234.310759 211.682176 
L 234.400966 215.593235 
L 234.761793 208.702422 
L 234.942207 215.77907 
L 235.032414 213.917168 
L 235.212828 222.856428 
L 235.393242 210.006108 
L 235.483448 211.309795 
L 235.573655 210.937414 
L 235.754069 207.026356 
L 236.02469 213.171697 
L 236.114897 212.985862 
L 236.29531 230.677836 
L 236.385517 234.216515 
L 236.475724 242.783394 
L 236.656138 219.504293 
L 236.836552 233.285209 
L 236.926758 230.492 
L 237.107172 215.77907 
L 237.287586 239.058879 
L 237.468 234.40306 
L 237.73862 210.937414 
L 237.828827 212.799317 
L 237.919034 210.378489 
L 238.099448 214.475383 
L 238.279862 201.625065 
L 238.370068 212.985862 
L 238.460275 211.495631 
L 238.640689 195.293178 
L 238.821103 210.564325 
L 239.001517 188.961292 
L 239.18193 210.191944 
L 239.632965 163.633034 
L 239.723172 179.463106 
L 239.813378 175.925136 
L 239.903585 167.171713 
L 240.174206 207.026356 
L 240.264413 214.847764 
L 240.35462 209.633729 
L 240.535033 180.022032 
L 240.805654 227.512248 
L 241.166482 182.44286 
L 241.346895 220.43489 
L 241.527309 208.702422 
L 241.617516 221.552741 
L 241.888137 189.706052 
L 241.978343 187.84415 
L 242.06855 189.706052 
L 242.248964 218.200607 
L 242.339171 203.115296 
L 242.429378 206.280885 
L 242.519585 213.171697 
L 242.699998 193.803657 
L 242.790205 207.584571 
L 242.880412 200.694468 
L 242.970619 182.815239 
L 243.151033 197.714715 
L 243.331447 176.483353 
L 243.51186 195.107343 
L 243.692274 184.30547 
L 243.782481 184.864396 
L 244.233515 216.524541 
L 244.413929 179.835487 
L 244.504136 193.058186 
L 244.68455 181.139173 
L 244.864963 213.730623 
L 245.045377 161.771132 
L 245.135584 167.730638 
L 245.225791 166.240406 
L 245.315998 157.301148 
L 245.496412 182.629404 
L 245.676825 164.56434 
L 245.767032 169.034324 
L 245.947446 153.949013 
L 246.218067 172.199913 
L 246.308274 169.779085 
L 246.39848 170.151466 
L 246.488687 179.649651 
L 246.578894 175.552046 
L 246.669101 161.212206 
L 246.849515 186.726298 
L 247.300549 134.207883 
L 247.480963 144.637373 
L 247.57117 142.961307 
L 247.661377 145.754515 
L 247.84179 125.641004 
L 247.931997 114.466751 
L 248.022204 118.75019 
L 248.202618 151.341641 
L 248.383032 137.37418 
L 248.473239 144.450828 
L 248.563445 142.774762 
L 248.653652 138.118942 
L 248.834066 152.086402 
L 249.01448 135.883949 
L 249.194894 147.244746 
L 249.375307 143.519523 
L 249.555721 168.103019 
L 249.736135 185.794993 
L 249.916549 194.920798 
L 250.006755 186.168083 
L 250.096962 165.309101 
L 250.187169 167.544093 
L 250.277376 183.188329 
L 250.638204 162.515892 
L 250.908824 170.896226 
L 251.089238 196.969245 
L 251.269652 186.726298 
L 251.359859 185.794993 
L 251.450065 188.402366 
L 251.540272 199.017692 
L 251.630479 197.52817 
L 251.810893 176.669898 
L 252.081514 212.426936 
L 252.17172 214.289549 
L 252.352134 204.604817 
L 252.532548 238.499955 
L 252.622755 238.872335 
L 252.712962 238.6865 
L 253.073789 273.698422 
L 253.163996 272.953661 
L 253.254203 262.15179 
L 253.34441 264.386782 
L 253.434617 262.15179 
L 253.524824 250.418968 
L 253.61503 252.467769 
L 253.705237 262.710716 
L 253.795444 257.309779 
L 253.975858 227.512248 
L 254.156272 259.172036 
L 254.246479 251.164083 
L 254.426892 209.261348 
L 254.607306 224.904875 
L 254.78772 185.050232 
L 254.968134 213.544078 
L 255.05834 213.544078 
L 255.148547 211.495631 
L 255.238754 200.507924 
L 255.328961 206.839811 
L 255.419168 223.042262 
L 255.599582 212.985862 
L 255.779995 235.520201 
L 256.23103 186.912843 
L 256.321237 187.285224 
L 256.411444 188.774747 
L 256.682064 163.074818 
L 256.772271 166.054572 
L 256.952685 194.734962 
L 257.133099 199.763163 
L 257.313512 161.398751 
L 257.493926 182.070479 
L 257.67434 163.074818 
L 257.854754 177.414659 
L 258.035167 161.584587 
L 258.215581 168.661943 
L 258.305788 166.799332 
L 258.486202 158.791379 
L 258.847029 196.783409 
L 258.937236 189.147835 
L 259.027443 192.49997 
L 259.11765 217.827518 
L 259.207857 213.730623 
L 259.38827 185.981538 
L 259.568684 169.034324 
L 259.749098 195.852104 
L 260.019719 167.544093 
L 260.200132 194.176036 
L 260.290339 193.989491 
L 260.470753 165.495646 
L 260.651167 243.900535 
L 260.741374 242.783394 
L 260.921787 205.163743 
L 261.011994 217.641682 
L 261.192408 182.257023 
L 261.282615 185.794993 
L 261.372822 194.361872 
L 261.463029 191.941044 
L 261.643442 176.110972 
L 261.823856 196.596864 
L 261.914063 192.87235 
L 262.00427 185.981538 
L 262.184684 204.604817 
L 262.365097 186.353919 
L 262.455304 195.665559 
L 262.545511 193.989491 
L 262.635718 185.236777 
L 262.725925 187.098679 
L 262.816132 182.629404 
L 262.996546 160.2809 
L 263.086752 166.799332 
L 263.176959 166.612787 
L 263.267166 168.661943 
L 263.357373 174.248361 
L 263.537787 158.977214 
L 263.718201 166.985168 
L 263.808407 168.661943 
L 263.988821 184.30547 
L 264.079028 177.414659 
L 264.259442 195.852104 
L 264.439856 155.997461 
L 264.530062 169.406705 
L 264.800683 137.932397 
L 264.981097 113.536155 
L 265.071304 124.151481 
L 265.161511 122.847795 
L 265.251717 116.888288 
L 265.432131 146.499275 
L 265.522338 166.799332 
L 265.612545 165.309101 
L 265.702752 147.989506 
L 265.883166 192.685805 
L 265.973372 181.139173 
L 266.063579 159.721976 
L 266.153786 163.074818 
L 266.3342 166.612787 
L 266.424407 168.288853 
L 266.514614 164.93672 
L 266.604821 166.426951 
L 266.875441 213.917168 
L 267.055855 196.783409 
L 267.236269 186.168083 
L 267.326476 187.098679 
L 267.416682 183.001784 
L 267.597096 199.204237 
L 267.77751 186.726298 
L 267.867717 190.078432 
L 267.957924 189.147835 
L 268.138337 212.426936 
L 268.318751 183.933091 
L 268.408958 194.734962 
L 268.589372 166.612787 
L 268.679579 204.977907 
L 268.769786 197.714715 
L 268.950199 223.973569 
L 269.040406 216.710377 
L 269.130613 211.12325 
L 269.401234 258.613466 
L 269.942475 235.520201 
L 270.032682 237.568648 
L 270.122889 236.637343 
L 270.303302 259.544771 
L 270.573923 246.880289 
L 270.754337 230.677836 
L 270.844544 245.949693 
L 271.024957 234.40306 
L 271.205371 249.487661 
L 271.295578 247.066834 
L 271.566199 275.002108 
L 271.656406 272.953661 
L 271.927026 254.516216 
L 272.10744 244.459461 
L 272.287854 214.103004 
L 272.378061 220.993815 
L 272.468267 219.317748 
L 272.648681 201.066849 
L 272.829095 240.734947 
L 272.919302 234.216515 
L 273.280129 176.297517 
L 273.55075 217.455137 
L 273.640957 212.2411 
L 273.821371 188.21653 
L 273.911577 188.588911 
L 274.001784 183.188329 
L 274.091991 183.933091 
L 274.362612 190.823903 
L 274.543026 159.721976 
L 274.633232 164.93672 
L 274.723439 161.956968 
L 274.813646 143.892612 
L 274.903853 150.596879 
L 274.99406 168.288853 
L 275.174474 140.167389 
L 275.264681 141.471076 
L 275.354887 141.657621 
L 275.445094 147.058201 
L 275.805922 196.783409 
L 276.076542 172.945384 
L 276.256956 160.653281 
L 276.347163 160.839826 
L 276.707991 192.87235 
L 276.888404 269.973909 
L 277.068818 274.443538 
L 277.159025 268.484032 
L 277.249232 270.90486 
L 277.429646 287.480047 
L 277.519852 284.127913 
L 277.700266 262.896905 
L 277.970887 295.488 
L 278.241507 278.726977 
L 278.421921 288.969924 
L 278.602335 280.961614 
L 278.692542 283.010417 
L 278.872956 256.378474 
L 279.053369 286.548741 
L 279.233783 265.131544 
L 279.414197 275.747224 
L 279.594611 263.455476 
L 279.775024 278.168052 
L 280.045645 243.714699 
L 280.135852 232.168068 
L 280.226059 236.823888 
L 280.406473 249.487661 
L 280.496679 246.322072 
L 280.7673 276.491985 
L 280.857507 275.747224 
L 280.947714 272.581282 
L 281.128128 244.459461 
L 281.398748 279.471739 
L 281.669369 251.350273 
L 281.759576 240.548402 
L 281.939989 259.917152 
L 282.120403 248.7429 
L 282.21061 263.641667 
L 282.300817 262.338335 
L 282.481231 234.961275 
L 282.571438 235.520201 
L 282.842058 266.24904 
L 282.932265 255.633712 
L 283.112679 270.532479 
L 283.293093 246.135527 
L 283.383299 255.447523 
L 283.563713 223.973569 
L 283.65392 232.168068 
L 283.744127 243.528154 
L 283.924541 211.682176 
L 284.104954 231.795687 
L 284.285368 221.738576 
L 284.375575 222.110957 
L 284.465782 226.022016 
L 284.555989 238.314119 
L 284.646196 237.941029 
L 284.736403 229.74724 
L 284.826609 250.791703 
L 285.007023 225.649635 
L 285.09723 228.629389 
L 285.277644 225.83618 
L 285.458058 238.872335 
L 285.638471 200.135543 
L 285.728678 201.066849 
L 285.909092 186.168083 
L 286.089506 209.261348 
L 286.360126 190.823903 
L 286.54054 180.394413 
L 286.630747 181.698099 
L 286.901368 195.665559 
L 286.991574 191.941044 
L 287.081781 196.783409 
L 287.171988 195.107343 
L 287.262195 190.637358 
L 287.442609 218.945368 
L 287.893643 162.143513 
L 287.98385 165.309101 
L 288.254471 188.029985 
L 288.525091 160.653281 
L 288.615298 163.819579 
L 288.795712 185.236777 
L 288.976126 160.095064 
L 289.066333 169.22016 
L 289.156539 167.358257 
L 289.246746 160.653281 
L 289.42716 172.014078 
L 289.607574 165.682191 
L 289.697781 167.171713 
L 289.878194 174.434906 
L 289.968401 172.199913 
L 290.148815 195.665559 
L 290.419436 213.917168 
L 290.509643 214.847764 
L 290.780263 185.050232 
L 290.87047 192.685805 
L 290.960677 191.196284 
L 291.050884 191.196284 
L 291.141091 189.706052 
L 291.231298 183.746546 
L 291.411711 201.998155 
L 291.501918 195.293178 
L 291.682332 221.366196 
L 291.772539 215.593235 
L 292.043159 199.576618 
L 292.223573 216.710377 
L 292.403987 189.333671 
L 292.764814 225.649635 
L 292.945228 210.75087 
L 293.125642 249.487661 
L 293.306056 230.305455 
L 293.396263 231.609142 
L 293.75709 260.848458 
L 293.937504 270.90486 
L 294.117918 247.253378 
L 294.298331 277.609481 
L 294.388538 270.346288 
L 294.568952 237.755193 
L 294.749366 263.083095 
L 294.839573 257.68216 
L 295.019986 210.378489 
L 295.2004 228.070463 
L 295.380814 195.293178 
L 295.561228 205.163743 
L 295.651434 213.171697 
L 295.741641 204.977907 
L 295.831848 182.257023 
L 295.922055 188.774747 
L 296.012262 204.977907 
L 296.192676 185.794993 
L 296.373089 207.771116 
L 296.64371 184.677851 
L 296.824124 160.467445 
L 296.914331 162.515892 
L 297.094744 141.098695 
L 297.184951 142.215836 
L 297.275158 141.843455 
L 297.365365 137.932397 
L 297.455572 142.215836 
L 297.726193 168.847779 
L 297.906606 152.645328 
L 297.996813 154.507939 
L 298.08702 167.544093 
L 298.177227 162.888273 
L 298.267434 146.31344 
L 298.447848 168.103019 
L 298.628261 137.932397 
L 298.808675 145.009754 
L 298.989089 141.098695 
L 299.079296 144.637373 
L 299.440123 192.127589 
L 299.53033 175.179667 
L 299.620537 177.228114 
L 299.710744 200.507924 
L 300.071571 171.641697 
L 300.161778 162.515892 
L 300.342192 191.568663 
L 300.612813 158.604834 
L 300.70302 164.93672 
L 300.883433 189.892597 
L 301.063847 162.515892 
L 301.244261 281.148159 
L 301.334468 285.803981 
L 301.514881 254.330027 
L 301.695295 266.24904 
L 301.875709 244.273625 
L 301.965916 245.949693 
L 302.056123 250.046587 
L 302.236536 230.677836 
L 302.41695 256.378474 
L 302.507157 250.605158 
L 302.597364 244.08708 
L 302.687571 249.860042 
L 302.777778 248.557064 
L 302.958191 228.070463 
L 303.138605 244.273625 
L 303.319019 229.933076 
L 303.409226 230.305455 
L 303.58964 205.722669 
L 303.86026 233.844134 
L 303.950467 231.423307 
L 304.040674 217.455137 
L 304.130881 219.690129 
L 304.221088 229.188314 
L 304.311295 224.345949 
L 304.401501 224.904875 
L 304.491708 239.058879 
L 304.581915 238.127574 
L 304.672122 227.884627 
L 304.852536 251.908843 
L 305.03295 205.722669 
L 305.213363 225.83618 
L 305.574191 180.394413 
L 305.664398 188.774747 
L 305.754605 186.353919 
L 305.844811 177.78704 
L 306.025225 209.819563 
L 306.115432 222.484047 
L 306.295846 208.330042 
L 306.47626 244.08708 
L 306.656673 228.070463 
L 306.837087 215.034309 
L 306.927294 224.904875 
L 307.017501 224.532494 
L 307.197915 206.095049 
L 307.468535 247.066834 
L 307.648949 234.216515 
L 307.739156 231.236762 
L 307.829363 224.160114 
L 307.91957 225.463799 
L 308.099983 237.196269 
L 308.19019 243.900535 
L 308.370604 233.471754 
L 308.551018 236.079127 
L 308.731431 265.504278 
L 308.911845 236.264962 
L 309.002052 245.204222 
L 309.092259 241.479707 
L 309.182466 229.74724 
L 309.36288 183.56071 
L 309.543293 200.507924 
L 309.6335 192.87235 
L 309.723707 195.479723 
L 309.994328 259.544771 
L 310.084535 256.937399 
L 310.355155 232.726992 
L 310.445362 226.953322 
L 310.535569 228.257008 
L 310.625776 233.099373 
L 310.715983 232.168068 
L 311.167017 245.949693 
L 311.347431 210.378489 
L 311.527845 238.127574 
L 311.708258 232.168068 
L 311.798465 234.216515 
L 311.888672 233.471754 
L 311.978879 234.961275 
L 312.2495 257.49597 
L 312.429913 236.823888 
L 312.52012 235.892582 
L 312.700534 241.107326 
L 312.880948 208.888258 
L 312.971155 209.074803 
L 313.061361 214.661928 
L 313.151568 201.625065 
L 313.241775 202.370536 
L 313.422189 245.949693 
L 313.602603 223.414643 
L 313.873223 183.374165 
L 313.96343 187.098679 
L 314.143844 217.455137 
L 314.324258 186.168083 
L 314.414465 190.078432 
L 314.504671 193.058186 
L 314.685085 181.511554 
L 314.955706 193.989491 
L 315.13612 156.369841 
L 315.226327 156.928767 
L 315.316533 157.487693 
L 315.40674 140.726314 
L 315.496947 143.706068 
L 315.587154 162.515892 
L 315.767568 140.353934 
L 315.947982 140.726314 
L 316.038188 142.588926 
L 316.308809 194.548417 
L 316.399016 195.852104 
L 316.489223 193.431276 
L 316.669637 179.649651 
L 316.85005 139.795008 
L 316.940257 148.361887 
L 317.120671 171.641697 
L 317.301085 194.361872 
L 317.391292 219.690129 
L 317.481498 212.054555 
L 317.661912 231.236762 
L 317.842326 202.370536 
L 318.02274 216.337996 
L 318.29336 207.398735 
L 318.473774 227.884627 
L 318.563981 239.617097 
L 318.654188 238.872335 
L 318.834602 213.171697 
L 319.105222 218.386443 
L 319.195429 222.856428 
L 319.285636 217.455137 
L 319.375843 204.232438 
L 319.46605 207.584571 
L 319.556257 218.014063 
L 319.646463 217.269301 
L 319.826877 208.515877 
L 319.917084 213.358242 
L 320.097498 206.095049 
L 320.368118 215.220854 
L 320.638739 185.236777 
L 320.728946 186.912843 
L 320.819153 187.84415 
L 321.089773 181.698099 
L 321.360394 216.524541 
L 321.631015 199.204237 
L 321.721222 186.540464 
L 321.991842 226.580941 
L 322.35267 183.001784 
L 322.533083 217.455137 
L 322.713497 200.135543 
L 322.803704 213.544078 
L 323.164532 188.21653 
L 323.254738 186.912843 
L 323.435152 204.604817 
L 323.525359 188.402366 
L 323.705773 220.993815 
L 323.886187 186.168083 
L 324.0666 197.714715 
L 324.156807 186.353919 
L 324.337221 197.52817 
L 324.517635 159.163759 
L 324.698048 195.665559 
L 324.878462 184.118926 
L 325.058876 189.147835 
L 325.23929 193.058186 
L 325.329497 189.520216 
L 325.50991 209.447184 
L 325.600117 198.645311 
L 325.780531 212.426936 
L 325.870738 206.653975 
L 326.051152 235.520201 
L 326.231565 184.118926 
L 326.321772 188.402366 
L 326.411979 187.471769 
L 326.502186 179.835487 
L 326.6826 213.171697 
L 326.863013 187.098679 
L 326.95322 189.333671 
L 327.043427 180.766792 
L 327.133634 160.653281 
L 327.223841 167.544093 
L 327.404255 190.264977 
L 327.494462 188.402366 
L 327.674875 196.411028 
L 327.855289 184.118926 
L 328.035703 209.447184 
L 328.216117 188.588911 
L 328.306323 193.058186 
L 328.576944 162.329347 
L 328.757358 169.406705 
L 328.847565 167.730638 
L 328.937772 168.661943 
L 329.027978 165.123265 
L 329.208392 140.353934 
L 329.388806 183.746546 
L 329.56922 156.556386 
L 329.659427 167.358257 
L 329.749633 163.819579 
L 329.83984 154.693775 
L 330.020254 169.59254 
L 330.200668 158.604834 
L 330.381082 169.964921 
L 330.561495 158.232453 
L 330.832116 194.920798 
L 330.922323 188.21653 
L 331.01253 192.313425 
L 331.102737 203.115296 
L 331.28315 177.228114 
L 331.373357 178.345964 
L 331.463564 188.029985 
L 331.553771 186.540464 
L 331.643978 184.677851 
L 331.824392 166.612787 
L 332.004805 189.333671 
L 332.095012 185.422612 
L 332.275426 221.18036 
L 332.45584 210.937414 
L 332.546047 213.358242 
L 332.636254 209.819563 
L 332.816667 214.847764 
L 332.997081 204.604817 
L 333.357909 231.236762 
L 333.538322 215.77907 
L 333.718736 236.264962 
L 333.89915 221.925121 
L 334.259977 254.702407 
L 334.350184 252.84015 
L 334.440391 247.253378 
L 334.530598 249.674206 
L 334.711012 228.443553 
L 334.891425 256.751209 
L 335.071839 225.463799 
L 335.162046 228.070463 
L 335.34246 253.957646 
L 335.432667 245.390767 
L 335.61308 206.46743 
L 335.793494 220.06251 
L 335.973908 181.698099 
L 336.244529 217.827518 
L 336.424942 186.168083 
L 336.605356 210.378489 
L 336.695563 196.224485 
L 336.78577 199.017692 
L 336.875977 216.151451 
L 336.966184 214.289549 
L 337.05639 208.702422 
L 337.146597 210.564325 
L 337.327011 184.677851 
L 337.507425 165.495646 
L 337.597632 165.309101 
L 337.687839 164.750885 
L 337.868252 156.556386 
L 337.958459 158.791379 
L 338.22908 194.361872 
L 338.4997 164.19196 
L 338.770321 169.22016 
L 338.950735 160.095064 
L 339.040942 167.171713 
L 339.221355 154.135558 
L 339.401769 167.171713 
L 339.582183 142.588926 
L 339.67239 149.106648 
L 339.94301 182.629404 
L 340.033217 191.382118 
L 340.213631 187.84415 
L 340.303838 195.665559 
L 340.394045 195.293178 
L 340.574459 183.933091 
L 340.754872 166.612787 
L 340.935286 196.03794 
L 341.1157 168.475398 
L 341.205907 170.896226 
L 341.476527 196.783409 
L 341.656941 170.338011 
L 341.837355 260.289533 
L 341.927562 259.358581 
L 342.107975 235.14782 
L 342.198182 245.018386 
L 342.288389 238.127574 
L 342.468803 215.220854 
L 342.649217 224.71833 
L 342.82963 208.515877 
L 343.100251 230.119621 
L 343.190458 226.953322 
L 343.370872 231.236762 
L 343.551285 215.77907 
L 343.641492 220.43489 
L 343.821906 205.536124 
L 344.00232 206.095049 
L 344.182734 178.5318 
L 344.363147 193.803657 
L 344.723975 181.325718 
L 344.814182 184.491307 
L 344.904389 187.471769 
L 345.175009 208.888258 
L 345.265216 207.21219 
L 345.44563 220.43489 
L 345.626044 185.422612 
L 345.806457 196.03794 
L 346.167285 141.28524 
L 346.347699 163.260654 
L 346.437905 158.791379 
L 346.528112 165.123265 
L 346.708526 202.556371 
L 346.88894 180.953337 
L 346.979147 188.402366 
L 347.069354 200.880305 
L 347.249767 184.677851 
L 347.339974 186.726298 
L 347.430181 185.236777 
L 347.610595 191.568663 
L 347.700802 180.766792 
L 347.791009 181.698099 
L 347.971422 220.06251 
L 348.151836 213.171697 
L 348.242043 214.847764 
L 348.512664 189.333671 
L 348.693077 201.066849 
L 348.873491 213.730623 
L 348.963698 212.799317 
L 349.144112 219.131203 
L 349.324525 245.018386 
L 349.504939 217.827518 
L 349.595146 227.512248 
L 349.685353 221.18036 
L 349.865767 201.998155 
L 349.955974 198.831856 
L 350.136387 222.110957 
L 350.226594 215.40669 
L 350.316801 216.524541 
L 350.587422 262.710716 
L 350.858042 231.609142 
L 350.948249 236.079127 
L 351.038456 234.030679 
L 351.128663 234.961275 
L 351.399284 248.7429 
L 351.489491 257.68216 
L 351.940525 228.257008 
L 352.030732 237.196269 
L 352.120939 237.010432 
L 352.211146 234.40306 
L 352.301352 237.382813 
L 352.481766 234.030679 
L 352.842594 261.779409 
L 352.932801 261.59322 
L 353.113214 250.605158 
L 353.203421 251.164083 
L 353.293628 246.322072 
L 353.474042 210.564325 
L 353.654456 221.366196 
L 353.744662 205.350288 
L 353.834869 205.722669 
L 354.10549 244.646006 
L 354.466317 163.260654 
L 354.556524 172.014078 
L 354.736938 208.702422 
L 354.827145 202.556371 
L 355.007559 187.098679 
L 355.097766 187.84415 
L 355.278179 170.151466 
L 355.5488 187.471769 
L 355.729214 151.714021 
L 355.909627 161.025661 
L 356.090041 137.932397 
L 356.180248 147.617127 
L 356.541076 135.883949 
L 356.631282 141.098695 
L 356.901903 181.698099 
L 356.99211 187.098679 
L 357.443144 134.766807 
L 357.894179 186.540464 
L 357.984386 248.7429 
L 358.074592 248.370519 
L 358.255006 257.68216 
L 358.43542 246.507908 
L 358.525627 251.908843 
L 358.615834 264.759163 
L 358.706041 260.848458 
L 358.886454 236.451507 
L 359.157075 270.532479 
L 359.247282 265.876659 
L 359.337489 255.447523 
L 359.517902 269.787718 
L 359.698316 252.65396 
L 359.87873 259.917152 
L 360.059144 246.135527 
L 360.239557 262.896905 
L 360.419971 235.520201 
L 360.600385 254.702407 
L 360.780799 244.831841 
L 360.961212 256.751209 
L 361.051419 254.330027 
L 361.231833 225.463799 
L 361.412247 210.75087 
L 361.502454 215.40669 
L 361.682867 213.730623 
L 361.953488 250.605158 
L 362.314316 226.022016 
L 362.584936 254.143837 
L 362.945764 227.698082 
L 363.126177 244.273625 
L 363.306591 232.168068 
L 363.487005 239.244716 
L 363.577212 236.823888 
L 363.667419 230.864381 
L 363.847832 211.12325 
L 364.028246 239.990185 
L 364.118453 226.953322 
L 364.20866 229.933076 
L 364.298867 244.08708 
L 364.840108 212.426936 
L 364.930315 219.131203 
L 365.110729 189.706052 
L 365.291142 219.131203 
L 365.381349 214.475383 
L 365.471556 207.584571 
L 365.65197 218.386443 
L 365.742177 215.77907 
L 365.832384 209.633729 
L 365.922591 211.495631 
L 366.012797 229.933076 
L 366.193211 162.143513 
L 366.373625 192.127589 
L 366.463832 186.168083 
L 366.644246 196.411028 
L 366.824659 158.791379 
L 366.914866 163.819579 
L 367.09528 155.438535 
L 367.275694 168.661943 
L 367.365901 167.544093 
L 367.636521 134.766807 
L 367.726728 139.795008 
L 367.907142 146.872365 
L 368.087556 161.212206 
L 368.177763 157.860072 
L 368.267969 159.721976 
L 368.448383 142.961307 
L 368.628797 169.779085 
L 368.809211 138.863703 
L 368.899418 150.782715 
L 369.170038 115.212222 
L 369.350452 128.434921 
L 369.530866 126.94469 
L 369.711279 114.09437 
L 369.801486 120.985184 
L 369.9819 162.701728 
L 370.072107 144.823209 
L 370.162314 145.19559 
L 370.252521 166.054572 
L 370.342728 164.93672 
L 370.432934 157.673527 
L 370.613348 191.009739 
L 370.793762 184.864396 
L 371.154589 212.613481 
L 371.244796 215.40669 
L 371.515417 244.831841 
L 371.695831 237.941029 
L 371.786038 238.499955 
L 371.966451 232.168068 
L 372.237072 239.058879 
L 372.417486 231.236762 
L 372.597899 253.026341 
L 372.688106 250.232777 
L 372.86852 277.237101 
L 372.958727 275.561034 
L 373.229348 256.937399 
L 373.409761 273.139852 
L 373.590175 255.261333 
L 373.770589 282.079112 
L 373.951003 286.921122 
L 374.131416 262.896905 
L 374.221623 207.026356 
L 374.31183 207.957661 
L 374.492244 197.714715 
L 374.762864 227.325703 
L 374.853071 236.079127 
L 375.123692 225.463799 
L 375.213899 216.337996 
L 375.304106 216.524541 
L 375.484519 241.666252 
L 375.75514 205.722669 
L 375.935554 227.884627 
L 376.025761 221.738576 
L 376.206174 183.374165 
L 376.296381 186.726298 
L 376.386588 194.734962 
L 376.567002 182.44286 
L 376.837623 211.495631 
L 377.018036 186.168083 
L 377.19845 208.143497 
L 377.378864 187.098679 
L 377.559278 212.2411 
L 378.100519 162.701728 
L 378.190726 165.309101 
L 378.280933 164.19196 
L 378.461346 139.609172 
L 378.551553 142.03 
L 378.822174 179.835487 
L 378.912381 178.90489 
L 379.092794 163.447199 
L 379.273208 165.123265 
L 379.363415 163.633034 
L 379.453622 159.163759 
L 379.634036 171.082771 
L 379.814449 159.349595 
L 379.904656 163.819579 
L 380.08507 161.771132 
L 380.175277 165.868027 
L 380.265484 161.584587 
L 380.355691 162.329347 
L 380.626311 194.548417 
L 380.716518 189.706052 
L 380.896932 219.317748 
L 381.077346 189.706052 
L 381.167553 195.665559 
L 381.347966 169.964921 
L 381.52838 196.783409 
L 381.799001 177.414659 
L 381.889208 183.001784 
L 382.069621 203.487677 
L 382.250035 178.718345 
L 382.430449 239.058879 
L 382.520656 241.479707 
L 382.701069 209.447184 
L 382.881483 220.06251 
L 383.061897 198.272932 
L 383.242311 207.398735 
L 383.422724 180.394413 
L 383.603138 195.479723 
L 383.693345 189.147835 
L 383.783552 191.196284 
L 383.873759 208.515877 
L 383.963966 206.46743 
L 384.144379 186.168083 
L 384.234586 195.479723 
L 384.415 186.168083 
L 384.505207 189.333671 
L 384.595414 188.21653 
L 384.775828 162.701728 
L 384.866035 169.406705 
L 385.046448 192.87235 
L 385.136655 185.609157 
L 385.317069 166.240406 
L 385.497483 188.402366 
L 385.58769 184.864396 
L 385.948517 203.301132 
L 386.038724 203.115296 
L 386.219138 178.90489 
L 386.399551 193.803657 
L 386.579965 166.426951 
L 386.670172 164.19196 
L 386.940793 145.568678 
L 387.391827 190.078432 
L 387.482034 170.523847 
L 387.572241 180.394413 
L 387.662448 203.487677 
L 387.933068 166.799332 
L 388.023275 169.779085 
L 388.203689 188.029985 
L 388.293896 171.455152 
L 388.384103 178.718345 
L 388.564516 204.418983 
L 388.74493 192.313425 
L 388.835137 192.87235 
L 389.195965 184.677851 
L 389.376378 202.928751 
L 389.556792 187.84415 
L 389.646999 189.333671 
L 389.737206 188.402366 
L 389.827413 190.264977 
L 389.91762 194.548417 
L 390.098033 180.766792 
L 390.18824 184.491307 
L 390.368654 160.653281 
L 390.458861 189.520216 
L 390.549068 182.44286 
L 390.729481 208.330042 
L 390.819688 201.066849 
L 390.909895 187.84415 
L 391.180516 248.929445 
L 391.270723 245.577312 
L 391.451136 228.815934 
L 391.541343 229.74724 
L 391.63155 223.973569 
L 391.721757 225.090711 
L 391.811964 229.74724 
L 391.902171 227.698082 
L 392.262998 241.107326 
L 392.353205 239.803641 
L 392.533619 218.945368 
L 392.623826 230.864381 
L 392.80424 222.856428 
L 393.255274 242.038633 
L 393.435688 263.828212 
L 393.616101 245.577312 
L 393.796515 247.99814 
L 393.886722 242.969939 
L 394.067136 214.847764 
L 394.157343 220.06251 
L 394.24755 215.593235 
L 394.337756 199.948998 
L 394.427963 206.839811 
L 394.608377 225.649635 
L 394.878998 182.629404 
L 395.059411 156.928767 
L 395.330032 191.009739 
L 395.420239 188.402366 
L 395.600653 168.103019 
L 395.96148 162.888273 
L 396.141894 170.896226 
L 396.322308 140.167389 
L 396.412515 148.175342 
L 396.502721 142.774762 
L 396.592928 120.612803 
L 396.683135 129.366227 
L 396.773342 152.086402 
L 397.13417 117.074124 
L 397.585204 171.455152 
L 397.675411 162.515892 
L 398.036238 113.536155 
L 398.216652 135.139188 
L 398.306859 142.961307 
L 398.397066 141.471076 
L 398.487273 142.402381 
L 398.487273 142.402381 
" clip-path="url(#pcc31989c9c)" style="fill: none; stroke: #1f77b4; stroke-width: 1.5; stroke-linecap: square"/>
   </g>
   <g id="patch_3">
    <path d="M 57.6 307.584 
L 57.6 41.472 
" style="fill: none; stroke: #000000; stroke-width: 0.8; stroke-linejoin: miter; stroke-linecap: square"/>
   </g>
   <g id="patch_4">
    <path d="M 414.72 307.584 
L 414.72 41.472 
" style="fill: none; stroke: #000000; stroke-width: 0.8; stroke-linejoin: miter; stroke-linecap: square"/>
   </g>
   <g id="patch_5">
    <path d="M 57.6 307.584 
L 414.72 307.584 
" style="fill: none; stroke: #000000; stroke-width: 0.8; stroke-linejoin: miter; stroke-linecap: square"/>
   </g>
   <g id="patch_6">
    <path d="M 57.6 41.472 
L 414.72 41.472 
" style="fill: none; stroke: #000000; stroke-width: 0.8; stroke-linejoin: miter; stroke-linecap: square"/>
   </g>
   <g id="legend_1">
    <g id="patch_7">
     <path d="M 354.074688 64.150125 
L 407.72 64.150125 
Q 409.72 64.150125 409.72 62.150125 
L 409.72 48.472 
Q 409.72 46.472 407.72 46.472 
L 354.074688 46.472 
Q 352.074688 46.472 352.074688 48.472 
L 352.074688 62.150125 
Q 352.074688 64.150125 354.074688 64.150125 
z
" style="fill: #ffffff; opacity: 0.8; stroke: #cccccc; stroke-linejoin: miter"/>
    </g>
    <g id="line2d_17">
     <path d="M 356.074688 54.570438 
L 366.074688 54.570438 
L 376.074688 54.570438 
" style="fill: none; stroke: #1f77b4; stroke-width: 1.5; stroke-linecap: square"/>
    </g>
    <g id="text_16">
     <!-- set1 -->
     <g transform="translate(384.074688 58.070438)scale(0.1 -0.1)">
      <defs>
       <path id="DejaVuSans-73" d="M 2834 3397 
L 2834 2853 
Q 2591 2978 2328 3040 
Q 2066 3103 1784 3103 
Q 1356 3103 1142 2972 
Q 928 2841 928 2578 
Q 928 2378 1081 2264 
Q 1234 2150 1697 2047 
L 1894 2003 
Q 2506 1872 2764 1633 
Q 3022 1394 3022 966 
Q 3022 478 2636 193 
Q 2250 -91 1575 -91 
Q 1294 -91 989 -36 
Q 684 19 347 128 
L 347 722 
Q 666 556 975 473 
Q 1284 391 1588 391 
Q 1994 391 2212 530 
Q 2431 669 2431 922 
Q 2431 1156 2273 1281 
Q 2116 1406 1581 1522 
L 1381 1569 
Q 847 1681 609 1914 
Q 372 2147 372 2553 
Q 372 3047 722 3315 
Q 1072 3584 1716 3584 
Q 2034 3584 2315 3537 
Q 2597 3491 2834 3397 
z
" transform="scale(0.015625)"/>
       <path id="DejaVuSans-65" d="M 3597 1894 
L 3597 1613 
L 953 1613 
Q 991 1019 1311 708 
Q 1631 397 2203 397 
Q 2534 397 2845 478 
Q 3156 559 3463 722 
L 3463 178 
Q 3153 47 2828 -22 
Q 2503 -91 2169 -91 
Q 1331 -91 842 396 
Q 353 884 353 1716 
Q 353 2575 817 3079 
Q 1281 3584 2069 3584 
Q 2775 3584 3186 3129 
Q 3597 2675 3597 1894 
z
M 3022 2063 
Q 3016 2534 2758 2815 
Q 2500 3097 2075 3097 
Q 1594 3097 1305 2825 
Q 1016 2553 972 2059 
L 3022 2063 
z
" transform="scale(0.015625)"/>
       <path id="DejaVuSans-74" d="M 1172 4494 
L 1172 3500 
L 2356 3500 
L 2356 3053 
L 1172 3053 
L 1172 1153 
Q 1172 725 1289 603 
Q 1406 481 1766 481 
L 2356 481 
L 2356 0 
L 1766 0 
Q 1100 0 847 248 
Q 594 497 594 1153 
L 594 3053 
L 172 3053 
L 172 3500 
L 594 3500 
L 594 4494 
L 1172 4494 
z
" transform="scale(0.015625)"/>
      </defs>
      <use xlink:href="#DejaVuSans-73"/>
      <use xlink:href="#DejaVuSans-65" x="52.099609"/>
      <use xlink:href="#DejaVuSans-74" x="113.623047"/>
      <use xlink:href="#DejaVuSans-31" x="152.832031"/>
     </g>
    </g>
   </g>
  </g>
 </g>
 <defs>
  <clipPath id="pcc31989c9c">
   <rect x="57.6" y="41.472" width="357.12" height="266.112"/>
  </clipPath>
 </defs>
</svg>
