<?xml version="1.0" encoding="utf-8" standalone="no"?>
<!DOCTYPE svg PUBLIC "-//W3C//DTD SVG 1.1//EN"
  "http://www.w3.org/Graphics/SVG/1.1/DTD/svg11.dtd">
<svg xmlns:xlink="http://www.w3.org/1999/xlink" width="460.8pt" height="345.6pt" viewBox="0 0 460.8 345.6" xmlns="http://www.w3.org/2000/svg" version="1.1">
 <metadata>
  <rdf:RDF xmlns:dc="http://purl.org/dc/elements/1.1/" xmlns:cc="http://creativecommons.org/ns#" xmlns:rdf="http://www.w3.org/1999/02/22-rdf-syntax-ns#">
   <cc:Work>
    <dc:type rdf:resource="http://purl.org/dc/dcmitype/StillImage"/>
    <dc:date>2022-08-11T15:18:09.421693</dc:date>
    <dc:format>image/svg+xml</dc:format>
    <dc:creator>
     <cc:Agent>
      <dc:title>Matplotlib v3.5.2, https://matplotlib.org/</dc:title>
     </cc:Agent>
    </dc:creator>
   </cc:Work>
  </rdf:RDF>
 </metadata>
 <defs>
  <style type="text/css">*{stroke-linejoin: round; stroke-linecap: butt}</style>
 </defs>
 <g id="figure_1">
  <g id="patch_1">
   <path d="M 0 345.6 
L 460.8 345.6 
L 460.8 0 
L 0 0 
z
" style="fill: #ffffff"/>
  </g>
  <g id="axes_1">
   <g id="patch_2">
    <path d="M 57.6 307.584 
L 414.72 307.584 
L 414.72 41.472 
L 57.6 41.472 
z
" style="fill: #ffffff"/>
   </g>
   <g id="matplotlib.axis_1">
    <g id="xtick_1">
     <g id="line2d_1">
      <defs>
       <path id="mc25d05b0b7" d="M 0 0 
L 0 3.5 
" style="stroke: #000000; stroke-width: 0.8"/>
      </defs>
      <g>
       <use xlink:href="#mc25d05b0b7" x="73.832727" y="307.584" style="stroke: #000000; stroke-width: 0.8"/>
      </g>
     </g>
     <g id="text_1">
      <!-- 0 -->
      <g transform="translate(70.651477 322.182437)scale(0.1 -0.1)">
       <defs>
        <path id="DejaVuSans-30" d="M 2034 4250 
Q 1547 4250 1301 3770 
Q 1056 3291 1056 2328 
Q 1056 1369 1301 889 
Q 1547 409 2034 409 
Q 2525 409 2770 889 
Q 3016 1369 3016 2328 
Q 3016 3291 2770 3770 
Q 2525 4250 2034 4250 
z
M 2034 4750 
Q 2819 4750 3233 4129 
Q 3647 3509 3647 2328 
Q 3647 1150 3233 529 
Q 2819 -91 2034 -91 
Q 1250 -91 836 529 
Q 422 1150 422 2328 
Q 422 3509 836 4129 
Q 1250 4750 2034 4750 
z
" transform="scale(0.015625)"/>
       </defs>
       <use xlink:href="#DejaVuSans-30"/>
      </g>
     </g>
    </g>
    <g id="xtick_2">
     <g id="line2d_2">
      <g>
       <use xlink:href="#mc25d05b0b7" x="118.936165" y="307.584" style="stroke: #000000; stroke-width: 0.8"/>
      </g>
     </g>
     <g id="text_2">
      <!-- 500 -->
      <g transform="translate(109.392415 322.182437)scale(0.1 -0.1)">
       <defs>
        <path id="DejaVuSans-35" d="M 691 4666 
L 3169 4666 
L 3169 4134 
L 1269 4134 
L 1269 2991 
Q 1406 3038 1543 3061 
Q 1681 3084 1819 3084 
Q 2600 3084 3056 2656 
Q 3513 2228 3513 1497 
Q 3513 744 3044 326 
Q 2575 -91 1722 -91 
Q 1428 -91 1123 -41 
Q 819 9 494 109 
L 494 744 
Q 775 591 1075 516 
Q 1375 441 1709 441 
Q 2250 441 2565 725 
Q 2881 1009 2881 1497 
Q 2881 1984 2565 2268 
Q 2250 2553 1709 2553 
Q 1456 2553 1204 2497 
Q 953 2441 691 2322 
L 691 4666 
z
" transform="scale(0.015625)"/>
       </defs>
       <use xlink:href="#DejaVuSans-35"/>
       <use xlink:href="#DejaVuSans-30" x="63.623047"/>
       <use xlink:href="#DejaVuSans-30" x="127.246094"/>
      </g>
     </g>
    </g>
    <g id="xtick_3">
     <g id="line2d_3">
      <g>
       <use xlink:href="#mc25d05b0b7" x="164.039603" y="307.584" style="stroke: #000000; stroke-width: 0.8"/>
      </g>
     </g>
     <g id="text_3">
      <!-- 1000 -->
      <g transform="translate(151.314603 322.182437)scale(0.1 -0.1)">
       <defs>
        <path id="DejaVuSans-31" d="M 794 531 
L 1825 531 
L 1825 4091 
L 703 3866 
L 703 4441 
L 1819 4666 
L 2450 4666 
L 2450 531 
L 3481 531 
L 3481 0 
L 794 0 
L 794 531 
z
" transform="scale(0.015625)"/>
       </defs>
       <use xlink:href="#DejaVuSans-31"/>
       <use xlink:href="#DejaVuSans-30" x="63.623047"/>
       <use xlink:href="#DejaVuSans-30" x="127.246094"/>
       <use xlink:href="#DejaVuSans-30" x="190.869141"/>
      </g>
     </g>
    </g>
    <g id="xtick_4">
     <g id="line2d_4">
      <g>
       <use xlink:href="#mc25d05b0b7" x="209.143041" y="307.584" style="stroke: #000000; stroke-width: 0.8"/>
      </g>
     </g>
     <g id="text_4">
      <!-- 1500 -->
      <g transform="translate(196.418041 322.182437)scale(0.1 -0.1)">
       <use xlink:href="#DejaVuSans-31"/>
       <use xlink:href="#DejaVuSans-35" x="63.623047"/>
       <use xlink:href="#DejaVuSans-30" x="127.246094"/>
       <use xlink:href="#DejaVuSans-30" x="190.869141"/>
      </g>
     </g>
    </g>
    <g id="xtick_5">
     <g id="line2d_5">
      <g>
       <use xlink:href="#mc25d05b0b7" x="254.246479" y="307.584" style="stroke: #000000; stroke-width: 0.8"/>
      </g>
     </g>
     <g id="text_5">
      <!-- 2000 -->
      <g transform="translate(241.521479 322.182437)scale(0.1 -0.1)">
       <defs>
        <path id="DejaVuSans-32" d="M 1228 531 
L 3431 531 
L 3431 0 
L 469 0 
L 469 531 
Q 828 903 1448 1529 
Q 2069 2156 2228 2338 
Q 2531 2678 2651 2914 
Q 2772 3150 2772 3378 
Q 2772 3750 2511 3984 
Q 2250 4219 1831 4219 
Q 1534 4219 1204 4116 
Q 875 4013 500 3803 
L 500 4441 
Q 881 4594 1212 4672 
Q 1544 4750 1819 4750 
Q 2544 4750 2975 4387 
Q 3406 4025 3406 3419 
Q 3406 3131 3298 2873 
Q 3191 2616 2906 2266 
Q 2828 2175 2409 1742 
Q 1991 1309 1228 531 
z
" transform="scale(0.015625)"/>
       </defs>
       <use xlink:href="#DejaVuSans-32"/>
       <use xlink:href="#DejaVuSans-30" x="63.623047"/>
       <use xlink:href="#DejaVuSans-30" x="127.246094"/>
       <use xlink:href="#DejaVuSans-30" x="190.869141"/>
      </g>
     </g>
    </g>
    <g id="xtick_6">
     <g id="line2d_6">
      <g>
       <use xlink:href="#mc25d05b0b7" x="299.349916" y="307.584" style="stroke: #000000; stroke-width: 0.8"/>
      </g>
     </g>
     <g id="text_6">
      <!-- 2500 -->
      <g transform="translate(286.624916 322.182437)scale(0.1 -0.1)">
       <use xlink:href="#DejaVuSans-32"/>
       <use xlink:href="#DejaVuSans-35" x="63.623047"/>
       <use xlink:href="#DejaVuSans-30" x="127.246094"/>
       <use xlink:href="#DejaVuSans-30" x="190.869141"/>
      </g>
     </g>
    </g>
    <g id="xtick_7">
     <g id="line2d_7">
      <g>
       <use xlink:href="#mc25d05b0b7" x="344.453354" y="307.584" style="stroke: #000000; stroke-width: 0.8"/>
      </g>
     </g>
     <g id="text_7">
      <!-- 3000 -->
      <g transform="translate(331.728354 322.182437)scale(0.1 -0.1)">
       <defs>
        <path id="DejaVuSans-33" d="M 2597 2516 
Q 3050 2419 3304 2112 
Q 3559 1806 3559 1356 
Q 3559 666 3084 287 
Q 2609 -91 1734 -91 
Q 1441 -91 1130 -33 
Q 819 25 488 141 
L 488 750 
Q 750 597 1062 519 
Q 1375 441 1716 441 
Q 2309 441 2620 675 
Q 2931 909 2931 1356 
Q 2931 1769 2642 2001 
Q 2353 2234 1838 2234 
L 1294 2234 
L 1294 2753 
L 1863 2753 
Q 2328 2753 2575 2939 
Q 2822 3125 2822 3475 
Q 2822 3834 2567 4026 
Q 2313 4219 1838 4219 
Q 1578 4219 1281 4162 
Q 984 4106 628 3988 
L 628 4550 
Q 988 4650 1302 4700 
Q 1616 4750 1894 4750 
Q 2613 4750 3031 4423 
Q 3450 4097 3450 3541 
Q 3450 3153 3228 2886 
Q 3006 2619 2597 2516 
z
" transform="scale(0.015625)"/>
       </defs>
       <use xlink:href="#DejaVuSans-33"/>
       <use xlink:href="#DejaVuSans-30" x="63.623047"/>
       <use xlink:href="#DejaVuSans-30" x="127.246094"/>
       <use xlink:href="#DejaVuSans-30" x="190.869141"/>
      </g>
     </g>
    </g>
    <g id="xtick_8">
     <g id="line2d_8">
      <g>
       <use xlink:href="#mc25d05b0b7" x="389.556792" y="307.584" style="stroke: #000000; stroke-width: 0.8"/>
      </g>
     </g>
     <g id="text_8">
      <!-- 3500 -->
      <g transform="translate(376.831792 322.182437)scale(0.1 -0.1)">
       <use xlink:href="#DejaVuSans-33"/>
       <use xlink:href="#DejaVuSans-35" x="63.623047"/>
       <use xlink:href="#DejaVuSans-30" x="127.246094"/>
       <use xlink:href="#DejaVuSans-30" x="190.869141"/>
      </g>
     </g>
    </g>
   </g>
   <g id="matplotlib.axis_2">
    <g id="ytick_1">
     <g id="line2d_9">
      <defs>
       <path id="m5938c2f8ed" d="M 0 0 
L -3.5 0 
" style="stroke: #000000; stroke-width: 0.8"/>
      </defs>
      <g>
       <use xlink:href="#m5938c2f8ed" x="57.6" y="298.98213" style="stroke: #000000; stroke-width: 0.8"/>
      </g>
     </g>
     <g id="text_9">
      <!-- 4025 -->
      <g transform="translate(25.15 302.781349)scale(0.1 -0.1)">
       <defs>
        <path id="DejaVuSans-34" d="M 2419 4116 
L 825 1625 
L 2419 1625 
L 2419 4116 
z
M 2253 4666 
L 3047 4666 
L 3047 1625 
L 3713 1625 
L 3713 1100 
L 3047 1100 
L 3047 0 
L 2419 0 
L 2419 1100 
L 313 1100 
L 313 1709 
L 2253 4666 
z
" transform="scale(0.015625)"/>
       </defs>
       <use xlink:href="#DejaVuSans-34"/>
       <use xlink:href="#DejaVuSans-30" x="63.623047"/>
       <use xlink:href="#DejaVuSans-32" x="127.246094"/>
       <use xlink:href="#DejaVuSans-35" x="190.869141"/>
      </g>
     </g>
    </g>
    <g id="ytick_2">
     <g id="line2d_10">
      <g>
       <use xlink:href="#m5938c2f8ed" x="57.6" y="266.537546" style="stroke: #000000; stroke-width: 0.8"/>
      </g>
     </g>
     <g id="text_10">
      <!-- 4050 -->
      <g transform="translate(25.15 270.336764)scale(0.1 -0.1)">
       <use xlink:href="#DejaVuSans-34"/>
       <use xlink:href="#DejaVuSans-30" x="63.623047"/>
       <use xlink:href="#DejaVuSans-35" x="127.246094"/>
       <use xlink:href="#DejaVuSans-30" x="190.869141"/>
      </g>
     </g>
    </g>
    <g id="ytick_3">
     <g id="line2d_11">
      <g>
       <use xlink:href="#m5938c2f8ed" x="57.6" y="234.092961" style="stroke: #000000; stroke-width: 0.8"/>
      </g>
     </g>
     <g id="text_11">
      <!-- 4075 -->
      <g transform="translate(25.15 237.89218)scale(0.1 -0.1)">
       <defs>
        <path id="DejaVuSans-37" d="M 525 4666 
L 3525 4666 
L 3525 4397 
L 1831 0 
L 1172 0 
L 2766 4134 
L 525 4134 
L 525 4666 
z
" transform="scale(0.015625)"/>
       </defs>
       <use xlink:href="#DejaVuSans-34"/>
       <use xlink:href="#DejaVuSans-30" x="63.623047"/>
       <use xlink:href="#DejaVuSans-37" x="127.246094"/>
       <use xlink:href="#DejaVuSans-35" x="190.869141"/>
      </g>
     </g>
    </g>
    <g id="ytick_4">
     <g id="line2d_12">
      <g>
       <use xlink:href="#m5938c2f8ed" x="57.6" y="201.648377" style="stroke: #000000; stroke-width: 0.8"/>
      </g>
     </g>
     <g id="text_12">
      <!-- 4100 -->
      <g transform="translate(25.15 205.447596)scale(0.1 -0.1)">
       <use xlink:href="#DejaVuSans-34"/>
       <use xlink:href="#DejaVuSans-31" x="63.623047"/>
       <use xlink:href="#DejaVuSans-30" x="127.246094"/>
       <use xlink:href="#DejaVuSans-30" x="190.869141"/>
      </g>
     </g>
    </g>
    <g id="ytick_5">
     <g id="line2d_13">
      <g>
       <use xlink:href="#m5938c2f8ed" x="57.6" y="169.203793" style="stroke: #000000; stroke-width: 0.8"/>
      </g>
     </g>
     <g id="text_13">
      <!-- 4125 -->
      <g transform="translate(25.15 173.003012)scale(0.1 -0.1)">
       <use xlink:href="#DejaVuSans-34"/>
       <use xlink:href="#DejaVuSans-31" x="63.623047"/>
       <use xlink:href="#DejaVuSans-32" x="127.246094"/>
       <use xlink:href="#DejaVuSans-35" x="190.869141"/>
      </g>
     </g>
    </g>
    <g id="ytick_6">
     <g id="line2d_14">
      <g>
       <use xlink:href="#m5938c2f8ed" x="57.6" y="136.759209" style="stroke: #000000; stroke-width: 0.8"/>
      </g>
     </g>
     <g id="text_14">
      <!-- 4150 -->
      <g transform="translate(25.15 140.558428)scale(0.1 -0.1)">
       <use xlink:href="#DejaVuSans-34"/>
       <use xlink:href="#DejaVuSans-31" x="63.623047"/>
       <use xlink:href="#DejaVuSans-35" x="127.246094"/>
       <use xlink:href="#DejaVuSans-30" x="190.869141"/>
      </g>
     </g>
    </g>
    <g id="ytick_7">
     <g id="line2d_15">
      <g>
       <use xlink:href="#m5938c2f8ed" x="57.6" y="104.314625" style="stroke: #000000; stroke-width: 0.8"/>
      </g>
     </g>
     <g id="text_15">
      <!-- 4175 -->
      <g transform="translate(25.15 108.113843)scale(0.1 -0.1)">
       <use xlink:href="#DejaVuSans-34"/>
       <use xlink:href="#DejaVuSans-31" x="63.623047"/>
       <use xlink:href="#DejaVuSans-37" x="127.246094"/>
       <use xlink:href="#DejaVuSans-35" x="190.869141"/>
      </g>
     </g>
    </g>
    <g id="ytick_8">
     <g id="line2d_16">
      <g>
       <use xlink:href="#m5938c2f8ed" x="57.6" y="71.870041" style="stroke: #000000; stroke-width: 0.8"/>
      </g>
     </g>
     <g id="text_16">
      <!-- 4200 -->
      <g transform="translate(25.15 75.669259)scale(0.1 -0.1)">
       <use xlink:href="#DejaVuSans-34"/>
       <use xlink:href="#DejaVuSans-32" x="63.623047"/>
       <use xlink:href="#DejaVuSans-30" x="127.246094"/>
       <use xlink:href="#DejaVuSans-30" x="190.869141"/>
      </g>
     </g>
    </g>
   </g>
   <g id="line2d_17">
    <path d="M 73.832727 153.064514 
L 73.922934 153.563855 
L 74.193555 217.78734 
L 74.373969 204.477139 
L 74.734796 219.451393 
L 75.005417 189.335911 
L 75.095624 190.833305 
L 75.276037 209.967371 
L 75.366244 206.307217 
L 75.546658 212.130449 
L 75.817279 188.837202 
L 76.087899 207.305268 
L 76.178106 202.646429 
L 76.268313 202.813087 
L 76.448727 206.140558 
L 76.538934 205.47519 
L 76.62914 203.977797 
L 76.809554 181.682284 
L 76.899761 186.175098 
L 76.989968 201.149034 
L 77.080175 200.150983 
L 77.260589 174.528 
L 77.531209 208.469978 
L 77.711623 196.32417 
L 77.892037 207.305268 
L 77.982244 206.473241 
L 78.252864 183.013653 
L 78.433278 186.00844 
L 78.613692 169.86916 
L 78.794105 173.529949 
L 78.884312 167.53974 
L 79.064726 224.941941 
L 79.154933 211.964107 
L 79.24514 185.675757 
L 79.425554 228.768755 
L 79.605967 165.210322 
L 79.696174 177.689446 
L 79.786381 198.320906 
L 80.057002 164.378929 
L 80.147209 168.70445 
L 80.237415 165.543638 
L 80.327622 167.373716 
L 80.508036 192.830041 
L 80.598243 215.458237 
L 80.68845 212.796134 
L 80.868864 189.502569 
L 80.95907 200.150983 
L 81.229691 173.030606 
L 81.319898 171.865897 
L 81.500312 158.888064 
L 81.861139 132.932396 
L 82.221967 220.11676 
L 82.40238 199.984324 
L 82.492587 199.984324 
L 82.582794 207.80461 
L 82.763208 232.595567 
L 83.033829 223.278206 
L 83.214242 188.837202 
L 83.394656 202.979746 
L 83.57507 158.056036 
L 84.026104 217.620998 
L 84.116311 218.120341 
L 84.206518 211.964107 
L 84.386932 155.061249 
L 84.477139 160.052772 
L 84.567345 173.695974 
L 84.657552 172.19858 
L 84.837966 160.052772 
L 84.928173 153.730514 
L 85.01838 154.728565 
L 85.108587 152.066463 
L 85.198794 159.553431 
L 85.379207 195.658803 
L 85.740035 151.733778 
L 85.830242 162.714876 
L 86.010655 204.477139 
L 86.191069 183.512995 
L 86.371483 196.823513 
L 86.551897 183.179678 
L 86.642104 185.675757 
L 87.093138 239.250826 
L 87.183345 233.926619 
L 87.273552 211.964107 
L 87.363759 215.125236 
L 87.453965 225.108283 
L 87.634379 202.313744 
L 87.814793 234.092961 
L 87.905 228.269728 
L 87.995207 214.127186 
L 88.085414 215.291895 
L 88.175621 218.785708 
L 88.446241 206.140558 
L 88.626655 196.989537 
L 88.716862 192.996699 
L 88.897276 229.933465 
L 88.987482 226.605677 
L 89.077689 213.794185 
L 89.167896 214.127186 
L 89.258103 209.634688 
L 89.528724 183.512995 
L 89.709137 173.862633 
L 89.799344 166.541689 
L 89.979758 192.497356 
L 90.069965 177.855471 
L 90.160172 186.341124 
L 90.340586 158.555379 
L 90.520999 193.994751 
L 90.611206 183.512995 
L 90.701413 190.167938 
L 90.79162 190.001912 
L 90.972034 178.687497 
L 91.062241 181.016917 
L 91.152447 179.519523 
L 91.332861 211.132081 
L 91.423068 207.47161 
L 91.513275 206.805925 
L 91.603482 209.135662 
L 91.783896 199.8183 
L 91.874102 209.302004 
L 91.964309 207.970952 
L 92.054516 199.651642 
L 92.23493 204.809823 
L 92.325137 197.156196 
L 92.415344 197.988222 
L 92.595757 205.47519 
L 92.776171 192.497356 
L 92.866378 195.991486 
L 93.227206 225.607309 
L 93.317412 225.773968 
L 93.497826 209.967371 
L 93.588033 208.802978 
L 93.948861 186.673808 
L 94.129274 206.972584 
L 94.309688 195.991486 
L 94.490102 218.95205 
L 94.670516 192.664015 
L 94.850929 216.123605 
L 94.941136 215.957263 
L 95.12155 209.135662 
L 95.301964 191.165989 
L 95.482377 207.47161 
L 95.662791 192.664015 
L 95.843205 209.302004 
L 95.933412 208.636319 
L 96.113826 188.503885 
L 96.204032 192.497356 
L 96.384446 208.469978 
L 96.655067 182.514311 
L 96.745274 185.010388 
L 96.925687 207.305268 
L 97.106101 189.835254 
L 97.196308 192.164674 
L 97.286515 188.670544 
L 97.376722 177.356763 
L 97.466929 181.51626 
L 97.557136 194.826776 
L 97.647342 193.828092 
L 97.737549 191.665331 
L 97.827756 195.492145 
L 98.00817 191.165989 
L 98.098377 200.98301 
L 98.278791 127.774847 
L 98.368997 135.42784 
L 98.549411 155.893275 
L 98.729825 144.74552 
L 98.910239 157.390669 
L 99.000446 154.229224 
L 99.180859 138.256603 
L 99.271066 141.418049 
L 99.361273 140.253339 
L 99.45148 143.248126 
L 99.631894 155.393934 
L 99.902514 145.410887 
L 99.992721 148.572333 
L 100.173135 158.721405 
L 100.353549 129.438266 
L 100.533962 155.726617 
L 100.714376 129.272241 
L 100.89479 157.723354 
L 101.075204 150.569068 
L 101.255617 149.071676 
L 101.436031 157.224011 
L 101.616445 142.250075 
L 101.796859 157.224011 
L 101.887066 154.063198 
L 101.977272 150.40241 
L 102.067479 151.56712 
L 102.157686 149.2377 
L 102.3381 151.733778 
L 102.518514 134.929132 
L 102.698927 154.561907 
L 102.789134 151.401095 
L 102.879341 155.227908 
L 102.969548 151.56712 
L 103.059755 140.75268 
L 103.149962 144.080152 
L 103.330376 153.730514 
L 103.510789 148.07299 
L 103.691203 159.886113 
L 103.78141 153.064514 
L 103.871617 157.224011 
L 104.052031 175.193367 
L 104.142237 174.195316 
L 104.322651 150.236386 
L 104.503065 185.176414 
L 104.954099 157.224011 
L 105.044306 157.890012 
L 105.22472 175.027343 
L 105.405134 152.066463 
L 105.585548 168.039083 
L 105.765961 146.409571 
L 105.946375 155.393934 
L 106.036582 154.229224 
L 106.126789 150.236386 
L 106.216996 151.733778 
L 106.397409 177.855471 
L 106.487616 183.179678 
L 106.577823 180.184891 
L 106.66803 171.03387 
L 106.758237 172.19858 
L 106.848444 177.522787 
L 106.938651 176.524736 
L 107.028858 171.699238 
L 107.119064 177.024079 
L 107.299478 199.485616 
L 107.570099 191.499305 
L 107.660306 190.833305 
L 107.750513 188.005177 
L 108.11134 166.209006 
L 108.291754 170.035819 
L 108.472168 149.071676 
L 108.652581 172.19858 
L 108.742788 167.53974 
L 108.923202 175.027343 
L 109.013409 173.197265 
L 109.284029 176.025394 
L 109.464443 171.03387 
L 109.644857 196.32417 
L 109.825271 184.178363 
L 109.915478 192.330698 
L 110.276305 170.035819 
L 110.366512 171.03387 
L 110.456719 173.695974 
L 110.727339 144.579494 
L 110.99796 150.735094 
L 111.088167 154.395882 
L 111.268581 170.368503 
L 111.448994 165.37698 
L 111.539201 168.039083 
L 111.629408 166.042347 
L 111.809822 168.871109 
L 112.260856 125.944136 
L 112.351063 129.105582 
L 112.531477 135.261815 
L 112.621684 131.934345 
L 112.711891 134.762473 
L 112.892304 157.224011 
L 112.982511 151.56712 
L 113.162925 135.261815 
L 113.343339 146.076887 
L 113.433546 142.915442 
L 113.704166 155.560592 
L 113.794373 154.894591 
L 113.974787 157.557328 
L 114.064994 153.730514 
L 114.155201 155.393934 
L 114.245408 163.380243 
L 114.335614 160.552115 
L 114.786649 214.958895 
L 114.876856 211.298423 
L 115.057269 219.617734 
L 115.32789 204.143823 
L 115.418097 207.80461 
L 115.598511 218.619366 
L 115.688718 218.120341 
L 115.869131 235.756696 
L 116.139752 206.473241 
L 116.229959 211.298423 
L 116.320166 205.47519 
L 116.410373 181.51626 
L 116.500579 183.679021 
L 116.680993 222.113496 
L 116.7712 213.461501 
L 116.951614 221.115128 
L 117.041821 218.286683 
L 117.132028 219.617734 
L 117.222234 214.626211 
L 117.492855 170.201844 
L 117.673269 205.142507 
L 117.853683 180.018866 
L 118.034096 191.831989 
L 118.124303 191.332648 
L 118.394924 215.624579 
L 118.755751 197.48888 
L 118.936165 175.360026 
L 119.026372 186.341124 
L 119.206786 164.877637 
L 119.296993 168.871109 
L 119.387199 166.708348 
L 119.477406 160.052772 
L 119.65782 210.466714 
L 119.748027 208.96932 
L 119.838234 201.648377 
L 120.018648 222.279838 
L 120.199061 167.373716 
L 120.379475 200.816352 
L 120.559889 165.543638 
L 120.650096 165.876322 
L 120.740303 169.703136 
L 120.830509 164.046245 
L 120.920716 166.708348 
L 121.281544 208.636319 
L 121.371751 201.149034 
L 121.552164 173.529949 
L 121.912992 154.561907 
L 122.003199 155.560592 
L 122.093406 155.560592 
L 122.273819 129.604925 
L 122.454233 132.765737 
L 122.54444 129.770949 
L 122.815061 180.684233 
L 122.995475 162.714876 
L 123.085681 164.046245 
L 123.266095 189.169887 
L 123.356302 197.654906 
L 123.446509 196.656855 
L 123.536716 195.824828 
L 123.807336 167.207057 
L 123.98775 179.352864 
L 124.168164 134.762473 
L 124.258371 140.586022 
L 124.619198 194.992802 
L 124.709405 195.492145 
L 124.799612 193.495408 
L 125.070233 146.242913 
L 125.250646 157.723354 
L 125.340853 153.397197 
L 125.43106 137.923919 
L 125.521267 138.92197 
L 125.611474 153.231172 
L 125.701681 151.401095 
L 125.791888 142.4161 
L 125.972301 171.03387 
L 126.333129 134.263764 
L 126.60375 189.668595 
L 126.784163 167.041032 
L 126.964577 194.494093 
L 127.144991 164.544953 
L 127.325405 189.668595 
L 127.415611 192.664015 
L 127.686232 218.785708 
L 127.776439 223.444548 
L 127.956853 191.499305 
L 128.137266 218.619366 
L 128.31768 208.469978 
L 128.407887 216.789289 
L 128.498094 215.624579 
L 128.678508 216.622947 
L 128.949128 190.500621 
L 129.039335 197.821565 
L 129.129542 195.15946 
L 129.219749 188.837202 
L 129.670783 215.291895 
L 129.941404 179.18684 
L 130.031611 181.848943 
L 130.121818 189.668595 
L 130.212025 187.505834 
L 130.392438 149.071676 
L 130.572852 181.016917 
L 130.663059 177.024079 
L 130.753266 181.183576 
L 130.93368 156.392618 
L 131.023886 164.378929 
L 131.2043 188.670544 
L 131.384714 179.519523 
L 131.565128 154.229224 
L 131.835748 179.519523 
L 132.016162 171.200529 
L 132.106369 174.528 
L 132.196576 174.028657 
L 132.286783 163.546902 
L 132.37699 164.544953 
L 132.467196 177.024079 
L 132.557403 175.027343 
L 132.64761 170.368503 
L 132.737817 174.028657 
L 132.918231 161.88285 
L 133.098645 174.694659 
L 133.279058 154.561907 
L 133.459472 169.037134 
L 133.549679 163.546902 
L 133.730093 167.53974 
L 133.8203 159.886113 
L 133.910506 163.04756 
L 134.09092 176.358077 
L 134.181127 171.200529 
L 134.361541 173.862633 
L 134.541955 152.232488 
L 134.722368 177.522787 
L 134.902782 150.569068 
L 134.992989 153.730514 
L 135.083196 160.552115 
L 135.26361 152.399147 
L 135.53423 186.175098 
L 135.714644 164.711612 
L 135.895058 177.190104 
L 136.165678 150.236386 
L 136.255885 155.893275 
L 136.436299 153.064514 
L 136.526506 156.558644 
L 136.70692 147.740307 
L 136.887333 155.061249 
L 136.97754 154.229224 
L 137.067747 151.068411 
L 137.248161 135.42784 
L 137.428575 150.40241 
L 137.608988 141.584073 
L 137.699195 146.409571 
L 137.969816 131.102318 
L 138.060023 131.767686 
L 138.15023 134.263764 
L 138.330643 152.066463 
L 138.511057 142.083416 
L 138.781678 167.706399 
L 138.962091 152.399147 
L 139.232712 173.030606 
L 139.322919 171.865897 
L 139.413126 168.538426 
L 139.503333 174.694659 
L 139.59354 173.030606 
L 139.683746 159.553431 
L 139.773953 160.552115 
L 139.954367 170.035819 
L 140.224988 152.399147 
L 140.315195 154.561907 
L 140.495608 129.272241 
L 140.676022 153.397197 
L 140.766229 151.899804 
L 140.946643 142.4161 
L 141.03685 144.412836 
L 141.217263 150.236386 
L 141.30747 148.905017 
L 141.397677 144.912179 
L 141.487884 146.242913 
L 141.578091 154.063198 
L 141.758505 145.91023 
L 141.938918 163.712927 
L 142.119332 148.405674 
L 142.209539 152.232488 
L 142.389953 168.205742 
L 142.48016 167.53974 
L 142.570367 170.035819 
L 142.75078 153.397197 
L 142.840987 155.061249 
L 142.931194 150.569068 
L 143.021401 140.253339 
L 143.201815 156.558644 
L 143.292022 149.903701 
L 143.472435 173.529949 
L 143.652849 146.409571 
L 143.743056 147.574281 
L 143.833263 154.728565 
L 144.103883 147.906966 
L 144.19409 148.07299 
L 144.374504 149.404358 
L 144.645125 173.862633 
L 144.735332 173.36329 
L 144.825538 171.366554 
L 144.915745 171.699238 
L 145.096159 178.687497 
L 145.186366 175.027343 
L 145.276573 164.711612 
L 145.36678 165.709663 
L 145.456987 167.373716 
L 145.6374 157.723354 
L 145.817814 177.024079 
L 145.908021 169.703136 
L 146.088435 176.025394 
L 146.178642 174.860684 
L 146.359055 162.881535 
L 146.629676 179.020181 
L 146.81009 154.063198 
L 146.900297 162.049509 
L 147.08071 150.901753 
L 147.261124 162.881535 
L 147.441538 155.560592 
L 147.531745 157.390669 
L 147.712158 152.565804 
L 147.982779 178.354814 
L 148.2534 172.19858 
L 148.433813 150.069727 
L 148.614227 157.557328 
L 148.794641 149.903701 
L 148.884848 151.899804 
L 149.065262 144.579494 
L 149.516296 155.061249 
L 149.606503 168.70445 
L 149.69671 168.205742 
L 149.786917 151.234437 
L 149.96733 166.37503 
L 150.057537 153.231172 
L 150.147744 154.063198 
L 150.328158 179.686181 
L 150.598778 167.041032 
L 150.688985 165.37698 
L 150.779192 168.70445 
L 150.869399 166.042347 
L 151.049813 157.723354 
L 151.14002 157.224011 
L 151.320433 132.599712 
L 151.681261 150.901753 
L 151.771468 153.730514 
L 151.951882 173.862633 
L 152.042088 168.205742 
L 152.222502 148.905017 
L 152.312709 148.572333 
L 152.402916 150.236386 
L 152.493123 143.248126 
L 152.673537 119.122535 
L 152.944157 132.599712 
L 153.124571 152.399147 
L 153.214778 143.414785 
L 153.485398 178.354814 
L 153.756019 162.382192 
L 153.846226 156.225959 
L 154.02664 174.528 
L 154.116847 172.697923 
L 154.207053 172.531264 
L 154.29726 173.529949 
L 154.387467 176.85742 
L 154.567881 196.490829 
L 154.748295 190.833305 
L 155.018915 170.035819 
L 155.109122 180.517574 
L 155.289536 224.109915 
L 155.379743 218.785708 
L 155.46995 205.807874 
L 155.650363 228.10307 
L 155.830777 209.967371 
L 155.920984 210.13403 
L 156.011191 208.137294 
L 156.191605 190.667279 
L 156.281812 193.495408 
L 156.372018 208.137294 
L 156.552432 196.32417 
L 156.823053 223.111864 
L 156.91326 212.796134 
L 157.003467 189.169887 
L 157.093673 192.996699 
L 157.18388 217.288315 
L 157.274087 214.626211 
L 157.364294 204.477139 
L 157.454501 207.638269 
L 157.634915 200.483667 
L 157.725122 207.638269 
L 157.905535 196.989537 
L 158.176156 206.972584 
L 158.266363 217.953999 
L 158.446777 185.343073 
L 158.536984 194.992802 
L 158.62719 209.634688 
L 158.717397 206.140558 
L 158.807604 206.972584 
L 158.897811 214.958895 
L 159.078225 201.149034 
L 159.168432 205.641849 
L 159.258639 210.799398 
L 159.439052 200.317009 
L 159.619466 206.6399 
L 159.79988 184.011704 
L 159.890087 186.175098 
L 159.980294 187.505834 
L 160.0705 184.677072 
L 160.250914 215.624579 
L 160.341121 210.965739 
L 160.431328 195.658803 
L 160.611742 211.631424 
L 160.792155 166.37503 
L 161.062776 197.654906 
L 161.24319 175.027343 
L 161.333397 176.358077 
L 161.604017 191.499305 
L 161.694224 194.494093 
L 161.874638 218.95205 
L 162.055052 194.494093 
L 162.145259 194.826776 
L 162.325672 188.503885 
L 162.6865 174.195316 
L 162.866914 154.728565 
L 163.137534 165.876322 
L 163.317948 196.157512 
L 163.408155 195.658803 
L 163.498362 189.502569 
L 163.588569 194.494093 
L 163.678775 184.344388 
L 163.859189 154.561907 
L 164.039603 177.689446 
L 164.220017 155.061249 
L 164.40043 125.778111 
L 164.580844 156.725302 
L 164.761258 107.143386 
L 165.302499 175.027343 
L 165.392706 170.035819 
L 165.663327 131.102318 
L 165.84374 137.424576 
L 165.933947 131.767686 
L 166.024154 116.127748 
L 166.114361 121.119271 
L 166.204568 137.75726 
L 166.384982 124.946085 
L 166.565395 150.735094 
L 166.745809 136.259866 
L 166.926223 110.138175 
L 167.106637 154.063198 
L 167.196844 151.234437 
L 167.377257 129.937608 
L 167.557671 160.884799 
L 167.738085 133.099054 
L 168.279326 189.335911 
L 168.369533 192.164674 
L 168.549947 166.874373 
L 168.640154 174.694659 
L 168.73036 172.863947 
L 168.820567 168.70445 
L 169.000981 174.361341 
L 169.181395 171.699238 
L 169.271602 172.365239 
L 169.452015 150.236386 
L 169.542222 154.063198 
L 169.632429 167.207057 
L 169.812843 150.735094 
L 170.083464 178.687497 
L 170.17367 183.346337 
L 170.263877 194.161409 
L 170.354084 190.667279 
L 170.624705 153.730514 
L 170.714912 164.378929 
L 170.805119 161.88285 
L 170.895325 145.078203 
L 170.985532 145.244862 
L 171.165946 169.037134 
L 171.256153 166.37503 
L 171.34636 173.197265 
L 171.436567 170.701187 
L 171.526774 151.401095 
L 171.61698 154.063198 
L 171.797394 188.337859 
L 171.977808 168.205742 
L 172.158222 147.241597 
L 172.78967 178.687497 
L 172.970084 172.032555 
L 173.06029 173.862633 
L 173.240704 162.049509 
L 173.330911 166.708348 
L 173.421118 165.543638 
L 173.511325 162.714876 
L 173.601532 169.037134 
L 173.691739 167.041032 
L 173.872152 149.071676 
L 174.052566 171.03387 
L 174.142773 168.205742 
L 174.23298 169.203793 
L 174.413394 176.690761 
L 174.5036 172.697923 
L 174.593807 174.028657 
L 174.684014 180.850258 
L 174.774221 177.689446 
L 174.954635 150.735094 
L 175.044842 149.737043 
L 175.135049 146.409571 
L 175.225256 147.574281 
L 175.315462 152.399147 
L 175.405669 151.068411 
L 175.586083 162.714876 
L 175.766497 155.726617 
L 175.946911 165.876322 
L 176.037117 167.373716 
L 176.127324 174.361341 
L 176.217531 172.531264 
L 176.397945 152.898488 
L 176.578359 167.207057 
L 176.668566 154.063198 
L 176.758772 159.720089 
L 176.848979 173.197265 
L 177.1196 166.874373 
L 177.300014 147.241597 
L 177.480427 145.91023 
L 177.660841 155.560592 
L 177.841255 148.572333 
L 178.021669 168.371767 
L 178.56291 131.102318 
L 178.743324 140.253339 
L 178.833531 133.597763 
L 178.923737 135.594499 
L 179.013944 140.419363 
L 179.104151 135.927183 
L 179.194358 138.92197 
L 179.374772 154.561907 
L 179.464979 149.404358 
L 179.555186 153.89654 
L 179.825806 173.695974 
L 179.916013 177.522787 
L 180.00622 174.860684 
L 180.096427 175.027343 
L 180.186634 173.197265 
L 180.276841 166.37503 
L 180.367047 168.039083 
L 180.547461 175.526051 
L 180.637668 173.36329 
L 180.727875 168.371767 
L 180.818082 168.871109 
L 180.908289 172.863947 
L 181.088702 155.061249 
L 181.269116 177.190104 
L 181.359323 175.193367 
L 181.539737 157.057985 
L 181.720151 166.874373 
L 181.810357 167.041032 
L 181.990771 156.891326 
L 182.080978 162.881535 
L 182.171185 176.358077 
L 182.351599 168.205742 
L 182.441806 173.695974 
L 182.532012 172.863947 
L 182.622219 172.531264 
L 182.802633 162.382192 
L 182.89284 165.044296 
L 183.073254 173.529949 
L 183.163461 173.030606 
L 183.253667 163.712927 
L 183.343874 166.042347 
L 183.434081 177.522787 
L 183.614495 149.071676 
L 183.794909 177.522787 
L 183.975322 166.042347 
L 184.065529 171.865897 
L 184.245943 150.569068 
L 184.33615 151.733778 
L 184.426357 151.234437 
L 184.516564 154.063198 
L 184.606771 161.550166 
L 184.696977 161.383508 
L 184.787184 164.544953 
L 184.877391 174.694659 
L 184.967598 173.862633 
L 185.057805 172.365239 
L 185.238219 193.994751 
L 185.328426 187.505834 
L 185.418632 172.697923 
L 185.508839 174.528 
L 185.689253 196.989537 
L 186.230494 169.86916 
L 186.320701 170.201844 
L 186.410908 174.694659 
L 186.591322 161.383508 
L 186.771736 171.865897 
L 186.861942 165.709663 
L 186.952149 166.209006 
L 187.132563 173.030606 
L 187.22277 173.695974 
L 187.403184 150.236386 
L 187.493391 174.195316 
L 187.583597 169.370452 
L 187.673804 162.881535 
L 187.764011 167.53974 
L 187.854218 167.207057 
L 187.944425 160.718141 
L 188.124839 165.37698 
L 188.215046 160.219431 
L 188.395459 176.524736 
L 188.485666 172.365239 
L 188.66608 179.020181 
L 188.936701 162.548218 
L 189.026907 149.2377 
L 189.207321 173.695974 
L 189.387735 153.563855 
L 189.477942 155.726617 
L 189.658356 149.737043 
L 189.748562 149.903701 
L 189.838769 151.068411 
L 190.019183 161.716825 
L 190.10939 157.224011 
L 190.289804 164.378929 
L 190.380011 151.733778 
L 190.470217 153.730514 
L 190.650631 171.366554 
L 190.740838 166.209006 
L 190.831045 167.207057 
L 191.191872 151.234437 
L 191.282079 153.397197 
L 191.372286 158.888064 
L 191.5527 150.569068 
L 191.642907 157.224011 
L 191.823321 128.107531 
L 191.913527 128.772898 
L 192.003734 134.929132 
L 192.184148 129.937608 
L 192.364562 134.429789 
L 192.635183 155.560592 
L 192.725389 156.059301 
L 192.815596 155.227908 
L 192.905803 151.56712 
L 192.99601 154.063198 
L 193.086217 149.903701 
L 193.266631 123.948034 
L 193.356838 127.940872 
L 193.537251 125.278769 
L 193.627458 135.42784 
L 193.717665 132.433053 
L 193.807872 119.954563 
L 193.988286 151.068411 
L 194.078493 146.242913 
L 194.258906 130.769635 
L 194.43932 122.616665 
L 194.619734 133.930446 
L 194.709941 132.599712 
L 194.800148 132.765737 
L 194.980561 148.738991 
L 195.160975 169.370452 
L 195.341389 150.735094 
L 195.521803 153.064514 
L 195.612009 151.733778 
L 195.88263 170.201844 
L 195.972837 169.203793 
L 196.153251 163.380243 
L 196.333664 166.209006 
L 196.423871 164.544953 
L 196.694492 168.205742 
L 196.874906 163.546902 
L 197.055319 172.863947 
L 197.145526 172.531264 
L 197.32594 170.867846 
L 197.416147 167.872424 
L 197.596561 156.725302 
L 197.867181 172.531264 
L 197.957388 171.03387 
L 198.047595 172.365239 
L 198.228009 168.538426 
L 198.318216 171.865897 
L 198.408423 170.701187 
L 198.588836 156.059301 
L 198.859457 166.708348 
L 199.039871 163.04756 
L 199.220284 171.366554 
L 199.400698 168.871109 
L 199.490905 169.703136 
L 199.671319 166.708348 
L 199.851733 173.197265 
L 200.032146 167.706399 
L 200.122353 170.535162 
L 200.21256 169.703136 
L 200.302767 161.217482 
L 200.392974 164.046245 
L 200.483181 173.030606 
L 200.663594 155.061249 
L 200.844008 178.354814 
L 201.024422 154.561907 
L 201.204836 175.859369 
L 201.385249 154.561907 
L 201.565663 169.536477 
L 201.926491 154.063198 
L 202.016698 153.563855 
L 202.467732 175.69271 
L 202.648146 172.863947 
L 202.738353 173.030606 
L 203.189387 154.063198 
L 203.279594 156.891326 
L 203.369801 156.059301 
L 203.550214 150.569068 
L 203.640421 153.89654 
L 203.820835 178.354814 
L 204.001249 184.843731 
L 204.181663 169.703136 
L 204.362076 177.024079 
L 204.452283 174.195316 
L 204.632697 186.507782 
L 204.813111 175.193367 
L 204.993524 183.013653 
L 205.173938 170.701187 
L 205.264145 170.035819 
L 205.354352 166.874373 
L 205.444559 167.207057 
L 205.624973 166.042347 
L 205.895593 172.032555 
L 205.9858 174.361341 
L 206.076007 171.366554 
L 206.256421 154.894591 
L 206.436834 168.538426 
L 206.617248 162.714876 
L 206.797662 170.701187 
L 206.978076 163.214219 
L 207.158489 174.195316 
L 207.338903 166.37503 
L 207.42911 166.874373 
L 207.519317 165.044296 
L 207.609524 165.709663 
L 207.789938 171.03387 
L 207.970351 154.728565 
L 208.150765 173.030606 
L 208.240972 167.041032 
L 208.421386 151.733778 
L 208.87242 176.524736 
L 208.962627 177.024079 
L 209.052834 171.03387 
L 209.143041 171.200529 
L 209.233248 177.522787 
L 209.323454 177.190104 
L 209.413661 173.862633 
L 209.594075 175.859369 
L 209.684282 174.361341 
L 209.864696 184.843731 
L 210.04511 179.519523 
L 210.135316 184.843731 
L 210.31573 169.037134 
L 210.405937 169.370452 
L 210.496144 172.531264 
L 210.586351 172.032555 
L 210.856971 172.697923 
L 210.947178 172.531264 
L 211.217799 163.380243 
L 211.308006 165.044296 
L 211.578626 168.039083 
L 211.668833 169.203793 
L 211.75904 168.371767 
L 211.939454 295.488 
L 212.119868 274.85654 
L 212.300281 293.491581 
L 212.480695 283.674876 
L 212.570902 281.844799 
L 212.751316 273.525487 
L 212.93173 274.85654 
L 213.112143 286.004296 
L 213.292557 274.85654 
L 213.382764 281.345456 
L 213.563178 268.700624 
L 213.653385 275.355882 
L 213.743591 272.693778 
L 213.924005 260.714313 
L 214.104419 254.890764 
L 214.284833 257.885551 
L 214.37504 253.227028 
L 214.465246 253.39337 
L 214.555453 254.724422 
L 214.735867 251.06395 
L 214.916281 255.556448 
L 215.547729 241.91293 
L 215.728143 230.931832 
L 215.908556 237.420749 
L 216.08897 228.768755 
L 216.179177 230.099807 
L 216.269384 233.427278 
L 216.359591 231.264517 
L 216.540005 223.777232 
L 216.720418 232.262884 
L 216.810625 230.099807 
L 216.991039 223.111864 
L 217.081246 225.94031 
L 217.53228 211.298423 
L 217.622487 211.465082 
L 217.712694 215.125236 
L 217.802901 212.296791 
L 217.983315 205.641849 
L 218.073521 211.631424 
L 218.163728 210.466714 
L 218.344142 191.998015 
L 218.434349 192.830041 
L 218.614763 195.492145 
L 218.70497 195.991486 
L 218.885383 190.999964 
L 218.97559 191.165989 
L 219.065797 186.673808 
L 219.246211 171.699238 
L 219.336418 176.524736 
L 219.426625 175.859369 
L 219.516831 172.697923 
L 219.607038 173.529949 
L 219.787452 169.703136 
L 219.877659 173.197265 
L 220.14828 170.701187 
L 220.238486 170.368503 
L 220.328693 170.701187 
L 220.4189 173.030606 
L 220.509107 172.697923 
L 220.599314 170.535162 
L 220.779728 176.690761 
L 220.869935 175.027343 
L 221.050348 170.535162 
L 221.411176 173.695974 
L 221.59159 166.042347 
L 221.772003 171.200529 
L 222.132831 164.544953 
L 222.223038 165.543638 
L 222.403451 168.871109 
L 222.583865 161.050823 
L 222.674072 162.548218 
L 222.764279 168.538426 
L 222.944693 160.884799 
L 223.125106 171.366554 
L 223.215313 168.371767 
L 223.395727 157.224011 
L 223.576141 172.531264 
L 223.846761 163.712927 
L 223.936968 157.390669 
L 224.027175 158.721405 
L 224.117382 155.893275 
L 224.207589 149.404358 
L 224.47821 155.061249 
L 224.568416 166.37503 
L 224.658623 165.709663 
L 224.839037 155.393934 
L 224.929244 158.222695 
L 225.109658 155.061249 
L 225.380278 161.217482 
L 225.560692 168.538426 
L 225.831313 173.529949 
L 225.92152 173.36329 
L 226.101933 170.201844 
L 226.282347 174.195316 
L 226.462761 169.536477 
L 226.552968 170.368503 
L 226.643175 171.200529 
L 226.823588 168.205742 
L 227.004002 172.697923 
L 227.184416 171.366554 
L 227.274623 170.701187 
L 227.36483 168.205742 
L 227.455037 168.371767 
L 227.545243 169.203793 
L 227.725657 163.546902 
L 227.815864 170.035819 
L 227.996278 156.725302 
L 228.086485 170.535162 
L 228.176692 169.203793 
L 228.357105 167.373716 
L 228.627726 171.533213 
L 228.80814 168.538426 
L 228.898347 169.703136 
L 229.07876 174.361341 
L 229.259174 171.699238 
L 229.439588 173.862633 
L 229.620002 168.371767 
L 229.800415 173.030606 
L 229.980829 165.044296 
L 230.071036 166.708348 
L 230.25145 156.891326 
L 230.431863 171.533213 
L 230.52207 169.203793 
L 230.612277 169.536477 
L 230.702484 170.701187 
L 230.792691 170.035819 
L 230.882898 170.867846 
L 231.063312 168.039083 
L 231.333932 171.865897 
L 231.424139 172.697923 
L 231.604553 172.19858 
L 231.69476 174.860684 
L 231.784967 174.361341 
L 232.055587 168.039083 
L 232.145794 167.872424 
L 232.236001 169.203793 
L 232.506622 148.239648 
L 232.596828 151.56712 
L 232.867449 161.550166 
L 233.047863 173.36329 
L 233.13807 170.368503 
L 233.318483 171.865897 
L 233.498897 168.70445 
L 233.589104 169.86916 
L 233.679311 168.039083 
L 233.859725 151.234437 
L 233.949932 151.234437 
L 234.040138 149.404358 
L 234.130345 150.236386 
L 234.220552 157.057985 
L 234.310759 156.558644 
L 234.400966 153.730514 
L 234.671587 172.531264 
L 234.761793 169.703136 
L 235.032414 154.229224 
L 235.122621 159.220746 
L 235.212828 158.056036 
L 235.303035 159.220746 
L 235.483448 170.535162 
L 235.573655 168.039083 
L 235.663862 168.871109 
L 235.844276 174.860684 
L 235.934483 174.860684 
L 236.02469 173.197265 
L 236.114897 173.36329 
L 236.475724 234.092961 
L 236.565931 240.415536 
L 236.656138 230.598832 
L 236.836552 260.214971 
L 236.926758 253.227028 
L 237.016965 239.250826 
L 237.107172 241.746588 
L 237.287586 261.213339 
L 237.468 226.605677 
L 237.648413 238.252458 
L 237.73862 231.098175 
L 238.009241 252.727686 
L 238.099448 246.405111 
L 238.189655 228.269728 
L 238.279862 234.425646 
L 238.460275 274.02483 
L 238.550482 265.372836 
L 238.640689 269.033308 
L 239.272137 229.26778 
L 239.362344 232.262884 
L 239.452551 255.057106 
L 239.542758 254.55808 
L 239.632965 225.108283 
L 239.723172 229.933465 
L 239.813378 249.89924 
L 239.993792 240.74822 
L 240.083999 258.051893 
L 240.174206 256.055474 
L 240.35462 231.264517 
L 240.444827 236.089697 
L 240.62524 225.108283 
L 240.805654 236.921406 
L 241.076275 194.161409 
L 241.256688 189.835254 
L 241.527309 260.880655 
L 241.617516 242.245613 
L 241.79793 277.019617 
L 241.888137 258.883919 
L 242.06855 209.468346 
L 242.158757 241.91293 
L 242.248964 237.753433 
L 242.429378 198.819614 
L 242.609792 214.626211 
L 242.699998 215.624579 
L 243.060826 245.739743 
L 243.331447 209.135662 
L 243.51186 190.334597 
L 243.692274 193.162725 
L 243.782481 190.999964 
L 244.053102 150.735094 
L 244.143308 152.898488 
L 244.233515 152.399147 
L 244.323722 129.438266 
L 244.594343 192.330698 
L 244.68455 179.519523 
L 244.864963 171.699238 
L 244.95517 172.365239 
L 245.225791 214.459869 
L 245.406205 181.51626 
L 245.586619 144.246177 
L 245.767032 174.195316 
L 245.947446 119.122535 
L 246.308274 186.507782 
L 246.488687 192.664015 
L 246.578894 181.349601 
L 246.849515 108.141437 
L 246.939722 113.465646 
L 247.029929 127.940872 
L 247.120135 125.445428 
L 247.210342 105.645993 
L 247.300549 108.474122 
L 247.390756 119.45522 
L 247.480963 112.966303 
L 247.57117 118.789853 
L 247.751584 162.049509 
L 247.931997 139.753996 
L 248.112411 109.638832 
L 248.383032 177.190104 
L 248.563445 160.552115 
L 248.743859 186.673808 
L 248.924273 165.210322 
L 249.194894 193.329383 
L 249.375307 211.631424 
L 249.555721 223.111864 
L 249.736135 187.672492 
L 249.916549 223.111864 
L 250.006755 217.288315 
L 250.096962 223.278206 
L 250.187169 237.587091 
L 250.277376 234.924987 
L 250.72841 191.332648 
L 250.818617 193.495408 
L 250.908824 192.830041 
L 251.089238 181.349601 
L 251.359859 211.298423 
L 251.450065 208.636319 
L 251.720686 172.032555 
L 251.9011 178.188155 
L 251.991307 170.867846 
L 252.17172 139.753996 
L 252.532548 224.442916 
L 252.622755 223.943573 
L 252.712962 211.797766 
L 252.983582 251.396634 
L 253.073789 246.238769 
L 253.34441 192.996699 
L 253.524824 210.13403 
L 253.705237 206.307217 
L 253.795444 206.307217 
L 253.975858 223.278206 
L 254.156272 212.130449 
L 254.246479 217.78734 
L 254.426892 191.165989 
L 254.517099 192.330698 
L 254.697513 184.178363 
L 254.78772 189.835254 
L 254.877927 183.512995 
L 255.05834 164.378929 
L 255.238754 191.499305 
L 255.599582 168.70445 
L 255.779995 152.73183 
L 255.870202 156.725302 
L 256.23103 129.770949 
L 256.321237 127.441529 
L 256.50165 132.599712 
L 256.591857 132.100369 
L 256.772271 136.093842 
L 256.952685 134.263764 
L 257.042892 136.093842 
L 257.223305 158.555379 
L 257.313512 154.561907 
L 257.493926 128.938923 
L 257.67434 155.560592 
L 257.854754 127.108846 
L 257.94496 131.934345 
L 258.035167 139.254654 
L 258.215581 131.268343 
L 258.305788 134.097105 
L 258.395995 132.433053 
L 258.486202 135.261815 
L 258.666615 117.459117 
L 258.847029 128.772898 
L 259.027443 106.477386 
L 259.11765 116.959774 
L 259.298064 111.302884 
L 259.38827 114.463696 
L 259.478477 112.800277 
L 259.568684 113.465646 
L 259.658891 113.132961 
L 259.839305 108.973465 
L 260.200132 133.431738 
L 260.380546 130.103633 
L 260.470753 133.431738 
L 260.56096 154.728565 
L 260.741374 146.575597 
L 261.011994 180.018866 
L 261.102201 176.85742 
L 261.192408 167.872424 
L 261.282615 172.863947 
L 261.372822 168.039083 
L 261.553235 153.064514 
L 261.643442 156.225959 
L 261.733649 154.229224 
L 261.914063 156.059301 
L 262.094477 153.397197 
L 262.27489 146.242913 
L 262.365097 150.236386 
L 262.725925 131.435002 
L 262.906339 128.772898 
L 263.086752 134.596448 
L 263.176959 129.272241 
L 263.357373 154.395882 
L 263.44758 150.901753 
L 263.537787 147.407623 
L 263.718201 157.390669 
L 263.808407 153.89654 
L 263.988821 132.100369 
L 264.169235 152.232488 
L 264.259442 142.582759 
L 264.439856 149.2377 
L 264.530062 144.080152 
L 264.710476 158.888064 
L 264.800683 149.903701 
L 264.981097 161.550166 
L 265.071304 155.560592 
L 265.161511 157.390669 
L 265.251717 164.046245 
L 265.341924 159.220746 
L 265.522338 141.085365 
L 265.792959 157.057985 
L 265.973372 152.066463 
L 266.3342 170.701187 
L 266.424407 170.035819 
L 266.604821 162.714876 
L 266.875441 195.326119 
L 266.965648 194.161409 
L 267.146062 176.192053 
L 267.236269 167.373716 
L 267.326476 168.70445 
L 267.416682 170.535162 
L 267.597096 183.679021 
L 267.77751 171.865897 
L 267.867717 184.344388 
L 267.957924 182.014968 
L 268.138337 171.200529 
L 268.228544 172.697923 
L 268.408958 182.514311 
L 268.589372 168.538426 
L 268.679579 176.524736 
L 268.859992 162.714876 
L 268.950199 168.538426 
L 269.130613 153.064514 
L 269.311027 177.356763 
L 269.401234 169.037134 
L 269.491441 169.536477 
L 269.762061 192.830041 
L 269.942475 203.811138 
L 270.032682 205.807874 
L 270.303302 165.37698 
L 270.393509 174.528 
L 270.483716 172.863947 
L 270.844544 150.236386 
L 270.934751 151.068411 
L 271.024957 152.73183 
L 271.205371 168.371767 
L 271.295578 165.044296 
L 271.385785 168.371767 
L 271.475992 176.025394 
L 271.836819 158.721405 
L 272.10744 175.027343 
L 272.197647 172.863947 
L 272.378061 152.232488 
L 272.558474 184.178363 
L 272.738888 154.894591 
L 272.829095 168.538426 
L 272.919302 165.709663 
L 273.099716 138.256603 
L 273.280129 147.906966 
L 273.370336 155.061249 
L 273.460543 152.73183 
L 273.55075 154.063198 
L 273.821371 185.010388 
L 273.911577 181.349601 
L 274.091991 163.214219 
L 274.182198 170.368503 
L 274.272405 166.042347 
L 274.543026 121.78464 
L 274.723439 107.47607 
L 274.813646 115.129697 
L 274.99406 83.017797 
L 275.174474 122.117322 
L 275.354887 106.644045 
L 275.445094 108.141437 
L 275.625508 81.520403 
L 276.347163 155.393934 
L 276.527577 151.899804 
L 276.707991 160.718141 
L 276.888404 230.931832 
L 277.068818 275.18954 
L 277.159025 273.525487 
L 277.249232 256.720841 
L 277.429646 290.829478 
L 277.610059 264.873811 
L 277.700266 265.372836 
L 277.88068 272.028095 
L 278.061094 247.56982 
L 278.241507 266.371204 
L 278.331714 263.542759 
L 278.421921 265.372836 
L 278.602335 284.340561 
L 278.782749 251.895977 
L 278.872956 257.053842 
L 278.963162 278.517011 
L 279.053369 276.021249 
L 279.143576 264.707469 
L 279.233783 271.029727 
L 279.32399 270.530701 
L 279.414197 263.875442 
L 279.504404 266.371204 
L 279.865231 245.906085 
L 279.955438 249.400215 
L 280.045645 268.367623 
L 280.135852 262.045365 
L 280.226059 235.424014 
L 280.316266 240.082853 
L 280.496679 257.885551 
L 280.586886 258.883919 
L 280.677093 258.218552 
L 281.218334 226.439335 
L 281.398748 244.575033 
L 281.579162 208.469978 
L 281.669369 210.633056 
L 281.849783 198.486932 
L 282.030196 260.547654 
L 282.120403 260.214971 
L 282.21061 245.074059 
L 282.391024 275.023198 
L 282.571438 215.624579 
L 282.661644 221.614153 
L 282.751851 252.395002 
L 282.842058 248.900872 
L 283.022472 210.466714 
L 283.293093 230.931832 
L 283.65392 276.35425 
L 284.104954 218.286683 
L 284.195161 223.61089 
L 284.285368 218.95205 
L 284.646196 172.697923 
L 284.736403 172.531264 
L 284.826609 176.358077 
L 284.916816 172.531264 
L 285.187437 233.926619 
L 285.277644 223.943573 
L 285.458058 212.796134 
L 285.548264 215.624579 
L 285.818885 256.388157 
L 285.909092 252.22866 
L 286.179713 193.994751 
L 286.360126 218.120341 
L 286.54054 159.553431 
L 287.081781 227.770387 
L 287.171988 222.612522 
L 287.442609 155.893275 
L 287.623023 172.697923 
L 287.803436 145.410887 
L 287.893643 146.742256 
L 287.98385 155.227908 
L 288.074057 152.066463 
L 288.164264 155.227908 
L 288.344678 198.154247 
L 288.434884 191.998015 
L 288.705505 144.080152 
L 288.976126 205.47519 
L 289.066333 191.831989 
L 289.156539 183.84568 
L 289.336953 196.989537 
L 289.517367 171.200529 
L 289.968401 228.43607 
L 290.148815 244.575033 
L 290.329229 206.6399 
L 290.509643 232.096226 
L 290.599849 221.947154 
L 290.690056 222.778863 
L 290.780263 234.591986 
L 290.87047 230.598832 
L 291.050884 212.463133 
L 291.141091 209.302004 
L 291.321504 189.003228 
L 291.501918 195.492145 
L 291.682332 170.701187 
L 291.952953 216.789289 
L 292.043159 216.789289 
L 292.133366 213.128817 
L 292.31378 185.010388 
L 292.494194 195.15946 
L 292.584401 184.677072 
L 292.764814 151.899804 
L 292.945228 183.013653 
L 293.035435 146.90828 
L 293.125642 154.728565 
L 293.215849 155.893275 
L 293.306056 150.40241 
L 293.396263 158.388721 
L 293.666883 197.654906 
L 293.937504 150.569068 
L 294.117918 155.227908 
L 294.298331 167.872424 
L 294.388538 165.876322 
L 294.568952 189.003228 
L 294.749366 173.36329 
L 294.839573 175.69271 
L 295.110193 163.546902 
L 295.290607 152.565804 
L 295.471021 168.871109 
L 295.651434 141.916757 
L 295.831848 183.346337 
L 295.922055 180.35155 
L 296.102469 185.343073 
L 296.282883 163.214219 
L 296.373089 166.541689 
L 296.463296 165.709663 
L 296.64371 150.569068 
L 296.733917 150.901753 
L 296.914331 131.767686 
L 297.094744 151.56712 
L 297.184951 147.740307 
L 297.365365 152.73183 
L 297.455572 148.405674 
L 297.726193 155.726617 
L 297.8164 169.86916 
L 297.906606 169.203793 
L 298.08702 147.906966 
L 298.267434 161.050823 
L 298.447848 148.738991 
L 298.808675 168.871109 
L 298.898882 172.531264 
L 299.169503 152.898488 
L 299.25971 149.737043 
L 299.440123 159.886113 
L 299.53033 152.399147 
L 299.620537 155.726617 
L 299.710744 170.201844 
L 299.800951 169.703136 
L 299.891158 165.876322 
L 299.981365 170.368503 
L 300.342192 148.405674 
L 300.432399 143.414785 
L 300.793226 169.536477 
L 300.883433 165.210322 
L 300.97364 166.541689 
L 301.063847 174.860684 
L 301.154054 193.662066 
L 301.244261 192.830041 
L 301.605088 231.929884 
L 301.695295 232.262884 
L 301.785502 222.778863 
L 301.875709 227.770387 
L 301.965916 226.938361 
L 302.14633 209.801029 
L 302.507157 224.109915 
L 302.597364 222.778863 
L 302.687571 223.444548 
L 302.867985 208.303636 
L 303.048398 218.453024 
L 303.319019 190.500621 
L 303.409226 194.992802 
L 303.499433 193.994751 
L 303.58964 191.332648 
L 303.679846 191.831989 
L 303.770053 189.835254 
L 303.950467 207.970952 
L 304.040674 205.974533 
L 304.130881 203.645113 
L 304.311295 217.288315 
L 304.401501 212.629475 
L 304.581915 197.156196 
L 304.762329 210.965739 
L 305.123156 194.826776 
L 305.213363 208.303636 
L 305.30357 206.6399 
L 305.393777 189.003228 
L 305.574191 211.465082 
L 305.664398 202.646429 
L 305.754605 197.654906 
L 305.844811 207.638269 
L 305.935018 204.143823 
L 306.115432 183.346337 
L 306.386053 202.979746 
L 306.47626 198.986273 
L 306.656673 206.307217 
L 306.74688 192.664015 
L 306.837087 193.162725 
L 307.017501 219.285051 
L 307.197915 210.633056 
L 307.468535 238.086116 
L 307.558742 235.091329 
L 307.739156 220.449444 
L 308.009776 200.150983 
L 308.19019 217.953999 
L 308.370604 203.977797 
L 308.460811 216.123605 
L 308.551018 215.790921 
L 308.731431 203.31243 
L 308.911845 208.802978 
L 309.002052 209.967371 
L 309.182466 201.815036 
L 309.272673 173.197265 
L 309.36288 173.695974 
L 309.6335 151.733778 
L 309.723707 153.730514 
L 309.904121 171.699238 
L 309.994328 170.535162 
L 310.084535 170.867846 
L 310.445362 198.819614 
L 310.535569 195.15946 
L 310.625776 196.157512 
L 310.80619 164.046245 
L 310.896396 166.874373 
L 310.986603 174.694659 
L 311.257224 160.219431 
L 311.437638 150.569068 
L 311.618051 152.565804 
L 311.798465 159.720089 
L 311.888672 158.056036 
L 312.069086 161.88285 
L 312.2495 154.063198 
L 312.429913 165.876322 
L 312.52012 166.37503 
L 312.700534 171.865897 
L 312.880948 160.052772 
L 312.971155 152.565804 
L 313.151568 179.020181 
L 313.331982 150.069727 
L 313.512396 166.541689 
L 313.69281 146.742256 
L 313.873223 153.064514 
L 314.143844 161.383508 
L 314.234051 167.706399 
L 314.414465 195.492145 
L 314.594878 176.85742 
L 314.685085 179.020181 
L 314.775292 185.841781 
L 314.955706 151.401095 
L 315.316533 111.635567 
L 315.40674 122.949349 
L 315.496947 114.797013 
L 315.587154 90.172081 
L 315.677361 101.985205 
L 315.767568 133.597763 
L 315.857775 131.934345 
L 316.038188 110.470857 
L 316.128395 108.973465 
L 316.218602 102.317889 
L 316.57943 127.608188 
L 316.759843 147.906966 
L 316.940257 172.531264 
L 317.120671 163.380243 
L 317.301085 166.209006 
L 317.481498 227.437703 
L 317.752119 262.710733 
L 317.842326 248.401847 
L 318.02274 277.019617 
L 318.203153 250.231924 
L 318.473774 288.999083 
L 318.654188 249.400215 
L 318.834602 268.866966 
L 319.015015 258.551235 
L 319.195429 273.026463 
L 319.285636 265.871862 
L 319.375843 242.911298 
L 319.46605 243.576665 
L 319.646463 286.170638 
L 319.73667 274.191172 
L 319.826877 275.023198 
L 320.187705 253.060687 
L 320.368118 230.765174 
L 320.458325 230.765174 
L 320.548532 232.928252 
L 320.728946 256.388157 
L 320.819153 234.591986 
L 320.90936 236.256039 
L 320.999567 256.055474 
L 321.089773 254.058737 
L 321.17998 248.401847 
L 321.360394 260.381313 
L 321.540808 233.593937 
L 321.631015 235.091329 
L 321.721222 232.262884 
L 321.811428 225.773968 
L 321.991842 234.259304 
L 322.262463 196.32417 
L 322.442877 179.852207 
L 322.62329 242.578614 
L 322.713497 240.415536 
L 322.803704 225.607309 
L 322.984118 259.382945 
L 323.164532 198.320906 
L 323.254738 204.643164 
L 323.344945 224.442916 
L 323.435152 220.11676 
L 323.615566 189.003228 
L 324.247014 245.573401 
L 324.698048 190.334597 
L 324.788255 190.167938 
L 324.878462 185.841781 
L 324.968669 188.670544 
L 325.058876 184.344388 
L 325.23929 149.903701 
L 325.419703 157.224011 
L 325.50991 150.569068 
L 325.780531 213.627843 
L 326.051152 192.330698 
L 326.141358 194.327435 
L 326.411979 237.919774 
L 326.502186 232.096226 
L 326.772807 178.687497 
L 326.95322 202.813087 
L 327.133634 146.242913 
L 327.494462 206.805925 
L 327.674875 214.792553 
L 327.765082 210.13403 
L 328.035703 145.577546 
L 328.216117 152.232488 
L 328.306323 148.905017 
L 328.486737 132.932396 
L 328.576944 141.418049 
L 328.667151 137.424576 
L 328.757358 142.915442 
L 328.937772 183.512995 
L 329.298599 131.102318 
L 329.388806 146.409571 
L 329.56922 192.497356 
L 329.749633 170.035819 
L 329.930047 201.315693 
L 330.110461 170.201844 
L 330.290875 188.503885 
L 330.381082 192.164674 
L 330.561495 213.794185 
L 330.651702 215.790921 
L 330.741909 221.947154 
L 330.922323 192.330698 
L 331.102737 221.28147 
L 331.192943 207.970952 
L 331.28315 212.296791 
L 331.373357 226.772019 
L 331.553771 206.307217 
L 331.643978 208.303636 
L 331.734185 208.636319 
L 331.914598 187.505834 
L 332.004805 191.998015 
L 332.095012 188.503885 
L 332.185219 178.188155 
L 332.275426 182.014968 
L 332.45584 203.977797 
L 332.636254 201.315693 
L 332.72646 193.994751 
L 332.906874 173.030606 
L 333.087288 191.998015 
L 333.357909 143.58081 
L 333.538322 170.867846 
L 333.628529 129.272241 
L 333.718736 131.934345 
L 333.808943 131.268343 
L 333.89915 128.440215 
L 334.079564 150.735094 
L 334.259977 167.041032 
L 334.530598 126.776162 
L 334.711012 135.095156 
L 334.801219 133.597763 
L 334.981632 140.586022 
L 335.162046 162.215533 
L 335.34246 149.903701 
L 335.522874 153.730514 
L 335.61308 153.064514 
L 335.703287 146.742256 
L 335.883701 125.944136 
L 335.973908 135.095156 
L 336.064115 131.767686 
L 336.244529 111.801593 
L 336.424942 154.894591 
L 336.515149 151.068411 
L 336.605356 151.899804 
L 336.695563 152.066463 
L 336.875977 130.103633 
L 336.966184 135.095156 
L 337.05639 133.930446 
L 337.417218 111.468909 
L 337.507425 112.800277 
L 337.687839 131.767686 
L 337.778045 118.623827 
L 337.958459 129.438266 
L 338.138873 118.789853 
L 338.4997 145.410887 
L 338.680114 126.110795 
L 338.860528 142.915442 
L 339.040942 124.114059 
L 339.221355 135.42784 
L 339.401769 126.610137 
L 339.582183 133.597763 
L 339.67239 131.767686 
L 339.94301 134.762473 
L 340.033217 136.426525 
L 340.213631 129.604925 
L 340.394045 142.4161 
L 340.574459 131.102318 
L 340.754872 145.577546 
L 340.845079 140.918706 
L 340.935286 128.938923 
L 341.025493 134.263764 
L 341.205907 156.891326 
L 341.296114 161.050823 
L 341.38632 159.720089 
L 341.476527 152.232488 
L 341.566734 152.73183 
L 341.656941 157.390669 
L 341.747148 194.161409 
L 341.837355 193.162725 
L 341.927562 194.161409 
L 342.198182 226.439335 
L 342.378596 209.801029 
L 342.468803 217.620998 
L 342.55901 212.962476 
L 342.739424 193.329383 
L 342.919837 203.977797 
L 343.100251 208.802978 
L 343.190458 208.137294 
L 343.370872 199.485616 
L 343.551285 193.828092 
L 343.641492 194.826776 
L 343.731699 192.330698 
L 343.912113 172.697923 
L 344.00232 173.529949 
L 344.092527 176.524736 
L 344.27294 171.533213 
L 344.363147 171.366554 
L 344.543561 181.848943 
L 344.723975 174.028657 
L 344.904389 193.828092 
L 345.084802 171.533213 
L 345.175009 173.862633 
L 345.355423 189.003228 
L 345.44563 186.341124 
L 345.535837 187.006491 
L 345.71625 170.535162 
L 345.896664 189.003228 
L 345.986871 169.536477 
L 346.077078 173.36329 
L 346.167285 182.514311 
L 346.257492 173.695974 
L 346.347699 178.02213 
L 346.437905 191.499305 
L 346.528112 183.679021 
L 346.708526 161.716825 
L 346.979147 180.018866 
L 347.069354 173.862633 
L 347.15956 174.028657 
L 347.249767 178.188155 
L 347.339974 172.032555 
L 347.430181 173.030606 
L 347.520388 184.677072 
L 347.610595 182.846994 
L 347.700802 172.19858 
L 347.791009 173.030606 
L 348.061629 204.809823 
L 348.242043 191.831989 
L 348.512664 171.699238 
L 348.60287 174.694659 
L 348.783284 196.157512 
L 348.963698 180.684233 
L 349.053905 190.001912 
L 349.144112 186.341124 
L 349.324525 171.366554 
L 349.504939 177.522787 
L 349.595146 180.850258 
L 349.77556 167.041032 
L 349.865767 176.85742 
L 349.955974 174.860684 
L 350.316801 165.044296 
L 350.497215 175.859369 
L 350.677629 170.201844 
L 351.038456 194.826776 
L 351.128663 193.495408 
L 351.21887 196.823513 
L 351.489491 159.720089 
L 351.579697 165.543638 
L 351.760111 146.90828 
L 351.850318 155.726617 
L 351.940525 150.901753 
L 352.030732 137.75726 
L 352.120939 141.085365 
L 352.301352 156.891326 
L 352.391559 156.891326 
L 352.481766 151.401095 
L 352.571973 156.059301 
L 352.66218 168.871109 
L 352.842594 153.397197 
L 353.023007 166.042347 
L 353.113214 165.876322 
L 353.293628 186.840467 
L 353.564249 153.231172 
L 353.744662 177.855471 
L 353.925076 145.577546 
L 354.10549 158.555379 
L 354.285904 133.265079 
L 354.556524 152.399147 
L 354.646731 150.735094 
L 354.736938 152.399147 
L 355.007559 172.032555 
L 355.278179 162.049509 
L 355.368386 170.701187 
L 355.458593 168.871109 
L 356.180248 53.568 
L 356.270455 65.381124 
L 356.450869 96.494339 
L 356.631282 70.205988 
L 356.721489 70.372646 
L 356.811696 64.549098 
L 356.901903 70.871989 
L 357.082317 93.166868 
L 357.172524 95.995631 
L 357.533351 144.74552 
L 357.623558 140.918706 
L 357.713765 135.261815 
L 357.894179 149.071676 
L 358.074592 241.080903 
L 358.255006 286.004296 
L 358.345213 284.839586 
L 358.43542 265.70552 
L 358.615834 294.822633 
L 358.796247 268.534281 
L 358.976661 293.824265 
L 359.066868 293.657923 
L 359.247282 256.554499 
L 359.427696 281.512115 
L 359.517902 273.692146 
L 359.608109 277.185959 
L 359.788523 292.825897 
L 360.059144 256.8875 
L 360.239557 294.156948 
L 360.419971 273.192805 
L 360.510178 273.525487 
L 360.600385 268.03494 
L 360.690592 268.866966 
L 360.780799 264.374468 
L 360.961212 247.237137 
L 361.051419 246.405111 
L 361.141626 250.564925 
L 361.231833 266.537546 
L 361.32204 265.040152 
L 361.412247 241.746588 
L 361.502454 246.405111 
L 361.592661 268.700624 
L 361.682867 266.038521 
L 361.773074 255.889132 
L 361.953488 269.532333 
L 362.133902 243.909666 
L 362.314316 247.902821 
L 362.404522 240.914563 
L 362.494729 243.243982 
L 362.584936 248.73453 
L 362.76535 210.799398 
L 362.855557 210.965739 
L 363.035971 201.315693 
L 363.216384 255.223447 
L 363.396798 232.761909 
L 363.577212 268.866966 
L 363.757626 208.469978 
L 363.847832 214.127186 
L 363.938039 238.585143 
L 364.028246 230.099807 
L 364.20866 203.478454 
L 364.298867 213.960527 
L 364.389074 212.130449 
L 364.479281 215.291895 
L 364.840108 264.208126 
L 365.020522 233.760277 
L 365.110729 235.923039 
L 365.291142 215.458237 
L 365.381349 212.463133 
L 365.561763 194.992802 
L 365.65197 199.984324 
L 365.832384 163.712927 
L 366.012797 178.687497 
L 366.103004 147.906966 
L 366.283418 195.991486 
L 366.373625 194.161409 
L 366.463832 184.178363 
L 366.554039 187.17315 
L 366.644246 180.684233 
L 366.734452 181.51626 
L 366.914866 217.121973 
L 367.005073 217.288315 
L 367.09528 211.964107 
L 367.365901 163.214219 
L 367.546314 176.85742 
L 367.726728 119.122535 
L 368.177763 179.020181 
L 368.267969 178.854156 
L 368.358176 173.197265 
L 368.628797 103.482599 
L 368.809211 117.957825 
L 368.989624 87.676636 
L 369.079831 89.506714 
L 369.170038 104.813968 
L 369.260245 103.482599 
L 369.350452 107.143386 
L 369.530866 151.068411 
L 369.891693 99.157077 
L 369.9819 112.467594 
L 370.162314 157.723354 
L 370.342728 126.110795 
L 370.523141 161.88285 
L 370.703555 143.414785 
L 371.335003 198.986273 
L 371.515417 172.032555 
L 371.695831 197.322222 
L 371.786038 184.344388 
L 371.876244 186.507782 
L 371.966451 200.98301 
L 372.056658 199.485616 
L 372.237072 188.837202 
L 372.327279 185.010388 
L 372.507693 165.709663 
L 372.688106 169.203793 
L 372.86852 164.046245 
L 373.139141 198.986273 
L 373.499968 160.552115 
L 373.590175 160.385456 
L 373.680382 173.862633 
L 373.770589 168.70445 
L 373.951003 131.102318 
L 374.131416 167.872424 
L 374.31183 148.239648 
L 374.402037 147.407623 
L 374.492244 144.412836 
L 374.582451 152.066463 
L 374.762864 178.687497 
L 374.943278 159.220746 
L 375.123692 140.75268 
L 375.304106 152.399147 
L 375.484519 156.225959 
L 375.574726 151.56712 
L 375.664933 156.059301 
L 375.75514 169.037134 
L 375.845347 165.709663 
L 376.025761 153.563855 
L 376.206174 152.565804 
L 376.296381 149.2377 
L 376.476795 133.597763 
L 376.567002 148.07299 
L 376.657209 142.582759 
L 376.747416 124.114059 
L 376.837623 127.441529 
L 377.018036 153.563855 
L 377.288657 149.737043 
L 377.469071 137.258552 
L 377.649484 147.407623 
L 377.829898 130.436951 
L 377.920105 133.099054 
L 378.100519 122.117322 
L 378.280933 137.091893 
L 378.371139 135.761158 
L 378.551553 139.920655 
L 378.731967 130.935659 
L 378.822174 135.261815 
L 379.002588 157.057985 
L 379.092794 155.061249 
L 379.273208 135.42784 
L 379.453622 152.73183 
L 379.543829 144.74552 
L 379.634036 126.276821 
L 379.724243 130.935659 
L 379.814449 148.239648 
L 379.904656 145.91023 
L 380.08507 134.097105 
L 380.265484 135.594499 
L 380.355691 135.095156 
L 380.445898 133.930446 
L 380.626311 138.423262 
L 380.806725 129.438266 
L 380.987139 135.261815 
L 381.077346 132.932396 
L 381.257759 125.112744 
L 381.347966 133.597763 
L 381.438173 127.608188 
L 381.52838 110.9702 
L 381.618587 113.465646 
L 381.889208 143.913493 
L 382.069621 133.265079 
L 382.250035 140.75268 
L 382.340242 178.687497 
L 382.430449 165.37698 
L 382.520656 166.541689 
L 382.701069 193.662066 
L 382.791276 196.490829 
L 382.881483 193.162725 
L 382.97169 193.828092 
L 383.061897 200.650326 
L 383.242311 172.365239 
L 383.332518 178.687497 
L 383.422724 181.349601 
L 383.512931 171.200529 
L 383.693345 178.687497 
L 383.783552 175.859369 
L 383.873759 177.356763 
L 383.963966 173.862633 
L 384.054173 163.380243 
L 384.144379 165.876322 
L 384.234586 174.694659 
L 384.505207 153.064514 
L 384.775828 165.543638 
L 384.866035 166.708348 
L 384.956241 162.714876 
L 385.136655 179.352864 
L 385.317069 165.543638 
L 385.58769 177.190104 
L 385.768103 162.049509 
L 385.948517 179.352864 
L 386.128931 172.19858 
L 386.219138 170.201844 
L 386.309345 172.032555 
L 386.399551 183.84568 
L 386.489758 181.016917 
L 386.579965 165.543638 
L 386.670172 166.708348 
L 386.760379 174.860684 
L 386.850586 173.529949 
L 386.940793 171.200529 
L 387.121206 177.190104 
L 387.30162 148.239648 
L 387.391827 151.401095 
L 387.572241 175.027343 
L 387.662448 169.703136 
L 387.842861 176.524736 
L 387.933068 169.86916 
L 388.023275 174.028657 
L 388.203689 194.992802 
L 388.384103 185.841781 
L 388.654723 210.965739 
L 388.74493 209.302004 
L 389.195965 166.708348 
L 389.376378 189.003228 
L 389.466585 179.519523 
L 389.556792 180.850258 
L 389.646999 188.171201 
L 389.827413 168.039083 
L 390.007826 173.862633 
L 390.098033 173.36329 
L 390.18824 179.18684 
L 390.368654 163.712927 
L 390.458861 174.195316 
L 390.549068 173.030606 
L 390.729481 169.370452 
L 390.909895 146.90828 
L 391.090309 168.538426 
L 391.180516 153.064514 
L 391.270723 158.888064 
L 391.36093 178.354814 
L 391.451136 177.522787 
L 391.541343 177.855471 
L 391.721757 188.005177 
L 391.811964 184.178363 
L 392.082585 153.064514 
L 392.172791 153.397197 
L 392.353205 148.239648 
L 392.443412 151.401095 
L 392.623826 142.582759 
L 392.894446 156.059301 
L 392.984653 155.393934 
L 393.07486 152.565804 
L 393.255274 172.863947 
L 393.435688 154.063198 
L 393.616101 174.361341 
L 393.706308 176.358077 
L 393.886722 194.161409 
L 394.067136 183.346337 
L 394.157343 176.025394 
L 394.337756 193.495408 
L 394.51817 166.874373 
L 394.608377 187.339175 
L 394.698584 182.68097 
L 394.878998 161.716825 
L 395.059411 171.200529 
L 395.239825 174.028657 
L 395.330032 175.360026 
L 395.600653 201.315693 
L 396.051687 184.178363 
L 396.232101 150.901753 
L 396.322308 150.901753 
L 396.502721 107.974779 
L 396.592928 118.124484 
L 396.683135 110.138175 
L 396.773342 86.511927 
L 396.953756 120.12122 
L 397.043963 119.621878 
L 397.314583 93.666211 
L 397.40479 88.342004 
L 397.494997 90.33874 
L 398.216652 179.020181 
L 398.397066 165.876322 
L 398.487273 170.701187 
L 398.487273 170.701187 
" clip-path="url(#p17d7ae1efe)" style="fill: none; stroke: #1f77b4; stroke-width: 1.5; stroke-linecap: square"/>
   </g>
   <g id="patch_3">
    <path d="M 57.6 307.584 
L 57.6 41.472 
" style="fill: none; stroke: #000000; stroke-width: 0.8; stroke-linejoin: miter; stroke-linecap: square"/>
   </g>
   <g id="patch_4">
    <path d="M 414.72 307.584 
L 414.72 41.472 
" style="fill: none; stroke: #000000; stroke-width: 0.8; stroke-linejoin: miter; stroke-linecap: square"/>
   </g>
   <g id="patch_5">
    <path d="M 57.6 307.584 
L 414.72 307.584 
" style="fill: none; stroke: #000000; stroke-width: 0.8; stroke-linejoin: miter; stroke-linecap: square"/>
   </g>
   <g id="patch_6">
    <path d="M 57.6 41.472 
L 414.72 41.472 
" style="fill: none; stroke: #000000; stroke-width: 0.8; stroke-linejoin: miter; stroke-linecap: square"/>
   </g>
   <g id="legend_1">
    <g id="patch_7">
     <path d="M 64.6 64.150125 
L 118.245312 64.150125 
Q 120.245312 64.150125 120.245312 62.150125 
L 120.245312 48.472 
Q 120.245312 46.472 118.245312 46.472 
L 64.6 46.472 
Q 62.6 46.472 62.6 48.472 
L 62.6 62.150125 
Q 62.6 64.150125 64.6 64.150125 
z
" style="fill: #ffffff; opacity: 0.8; stroke: #cccccc; stroke-linejoin: miter"/>
    </g>
    <g id="line2d_18">
     <path d="M 66.6 54.570438 
L 76.6 54.570438 
L 86.6 54.570438 
" style="fill: none; stroke: #1f77b4; stroke-width: 1.5; stroke-linecap: square"/>
    </g>
    <g id="text_17">
     <!-- set2 -->
     <g transform="translate(94.6 58.070438)scale(0.1 -0.1)">
      <defs>
       <path id="DejaVuSans-73" d="M 2834 3397 
L 2834 2853 
Q 2591 2978 2328 3040 
Q 2066 3103 1784 3103 
Q 1356 3103 1142 2972 
Q 928 2841 928 2578 
Q 928 2378 1081 2264 
Q 1234 2150 1697 2047 
L 1894 2003 
Q 2506 1872 2764 1633 
Q 3022 1394 3022 966 
Q 3022 478 2636 193 
Q 2250 -91 1575 -91 
Q 1294 -91 989 -36 
Q 684 19 347 128 
L 347 722 
Q 666 556 975 473 
Q 1284 391 1588 391 
Q 1994 391 2212 530 
Q 2431 669 2431 922 
Q 2431 1156 2273 1281 
Q 2116 1406 1581 1522 
L 1381 1569 
Q 847 1681 609 1914 
Q 372 2147 372 2553 
Q 372 3047 722 3315 
Q 1072 3584 1716 3584 
Q 2034 3584 2315 3537 
Q 2597 3491 2834 3397 
z
" transform="scale(0.015625)"/>
       <path id="DejaVuSans-65" d="M 3597 1894 
L 3597 1613 
L 953 1613 
Q 991 1019 1311 708 
Q 1631 397 2203 397 
Q 2534 397 2845 478 
Q 3156 559 3463 722 
L 3463 178 
Q 3153 47 2828 -22 
Q 2503 -91 2169 -91 
Q 1331 -91 842 396 
Q 353 884 353 1716 
Q 353 2575 817 3079 
Q 1281 3584 2069 3584 
Q 2775 3584 3186 3129 
Q 3597 2675 3597 1894 
z
M 3022 2063 
Q 3016 2534 2758 2815 
Q 2500 3097 2075 3097 
Q 1594 3097 1305 2825 
Q 1016 2553 972 2059 
L 3022 2063 
z
" transform="scale(0.015625)"/>
       <path id="DejaVuSans-74" d="M 1172 4494 
L 1172 3500 
L 2356 3500 
L 2356 3053 
L 1172 3053 
L 1172 1153 
Q 1172 725 1289 603 
Q 1406 481 1766 481 
L 2356 481 
L 2356 0 
L 1766 0 
Q 1100 0 847 248 
Q 594 497 594 1153 
L 594 3053 
L 172 3053 
L 172 3500 
L 594 3500 
L 594 4494 
L 1172 4494 
z
" transform="scale(0.015625)"/>
      </defs>
      <use xlink:href="#DejaVuSans-73"/>
      <use xlink:href="#DejaVuSans-65" x="52.099609"/>
      <use xlink:href="#DejaVuSans-74" x="113.623047"/>
      <use xlink:href="#DejaVuSans-32" x="152.832031"/>
     </g>
    </g>
   </g>
  </g>
 </g>
 <defs>
  <clipPath id="p17d7ae1efe">
   <rect x="57.6" y="41.472" width="357.12" height="266.112"/>
  </clipPath>
 </defs>
</svg>
