<?xml version="1.0" encoding="utf-8" standalone="no"?>
<!DOCTYPE svg PUBLIC "-//W3C//DTD SVG 1.1//EN"
  "http://www.w3.org/Graphics/SVG/1.1/DTD/svg11.dtd">
<svg xmlns:xlink="http://www.w3.org/1999/xlink" width="460.8pt" height="345.6pt" viewBox="0 0 460.8 345.6" xmlns="http://www.w3.org/2000/svg" version="1.1">
 <metadata>
  <rdf:RDF xmlns:dc="http://purl.org/dc/elements/1.1/" xmlns:cc="http://creativecommons.org/ns#" xmlns:rdf="http://www.w3.org/1999/02/22-rdf-syntax-ns#">
   <cc:Work>
    <dc:type rdf:resource="http://purl.org/dc/dcmitype/StillImage"/>
    <dc:date>2022-08-11T15:18:16.175670</dc:date>
    <dc:format>image/svg+xml</dc:format>
    <dc:creator>
     <cc:Agent>
      <dc:title>Matplotlib v3.5.2, https://matplotlib.org/</dc:title>
     </cc:Agent>
    </dc:creator>
   </cc:Work>
  </rdf:RDF>
 </metadata>
 <defs>
  <style type="text/css">*{stroke-linejoin: round; stroke-linecap: butt}</style>
 </defs>
 <g id="figure_1">
  <g id="patch_1">
   <path d="M 0 345.6 
L 460.8 345.6 
L 460.8 0 
L 0 0 
z
" style="fill: #ffffff"/>
  </g>
  <g id="axes_1">
   <g id="patch_2">
    <path d="M 57.6 307.584 
L 414.72 307.584 
L 414.72 41.472 
L 57.6 41.472 
z
" style="fill: #ffffff"/>
   </g>
   <g id="matplotlib.axis_1">
    <g id="xtick_1">
     <g id="line2d_1">
      <defs>
       <path id="m3915420fb1" d="M 0 0 
L 0 3.5 
" style="stroke: #000000; stroke-width: 0.8"/>
      </defs>
      <g>
       <use xlink:href="#m3915420fb1" x="73.832727" y="307.584" style="stroke: #000000; stroke-width: 0.8"/>
      </g>
     </g>
     <g id="text_1">
      <!-- 0 -->
      <g transform="translate(70.651477 322.182437)scale(0.1 -0.1)">
       <defs>
        <path id="DejaVuSans-30" d="M 2034 4250 
Q 1547 4250 1301 3770 
Q 1056 3291 1056 2328 
Q 1056 1369 1301 889 
Q 1547 409 2034 409 
Q 2525 409 2770 889 
Q 3016 1369 3016 2328 
Q 3016 3291 2770 3770 
Q 2525 4250 2034 4250 
z
M 2034 4750 
Q 2819 4750 3233 4129 
Q 3647 3509 3647 2328 
Q 3647 1150 3233 529 
Q 2819 -91 2034 -91 
Q 1250 -91 836 529 
Q 422 1150 422 2328 
Q 422 3509 836 4129 
Q 1250 4750 2034 4750 
z
" transform="scale(0.015625)"/>
       </defs>
       <use xlink:href="#DejaVuSans-30"/>
      </g>
     </g>
    </g>
    <g id="xtick_2">
     <g id="line2d_2">
      <g>
       <use xlink:href="#m3915420fb1" x="118.936165" y="307.584" style="stroke: #000000; stroke-width: 0.8"/>
      </g>
     </g>
     <g id="text_2">
      <!-- 500 -->
      <g transform="translate(109.392415 322.182437)scale(0.1 -0.1)">
       <defs>
        <path id="DejaVuSans-35" d="M 691 4666 
L 3169 4666 
L 3169 4134 
L 1269 4134 
L 1269 2991 
Q 1406 3038 1543 3061 
Q 1681 3084 1819 3084 
Q 2600 3084 3056 2656 
Q 3513 2228 3513 1497 
Q 3513 744 3044 326 
Q 2575 -91 1722 -91 
Q 1428 -91 1123 -41 
Q 819 9 494 109 
L 494 744 
Q 775 591 1075 516 
Q 1375 441 1709 441 
Q 2250 441 2565 725 
Q 2881 1009 2881 1497 
Q 2881 1984 2565 2268 
Q 2250 2553 1709 2553 
Q 1456 2553 1204 2497 
Q 953 2441 691 2322 
L 691 4666 
z
" transform="scale(0.015625)"/>
       </defs>
       <use xlink:href="#DejaVuSans-35"/>
       <use xlink:href="#DejaVuSans-30" x="63.623047"/>
       <use xlink:href="#DejaVuSans-30" x="127.246094"/>
      </g>
     </g>
    </g>
    <g id="xtick_3">
     <g id="line2d_3">
      <g>
       <use xlink:href="#m3915420fb1" x="164.039603" y="307.584" style="stroke: #000000; stroke-width: 0.8"/>
      </g>
     </g>
     <g id="text_3">
      <!-- 1000 -->
      <g transform="translate(151.314603 322.182437)scale(0.1 -0.1)">
       <defs>
        <path id="DejaVuSans-31" d="M 794 531 
L 1825 531 
L 1825 4091 
L 703 3866 
L 703 4441 
L 1819 4666 
L 2450 4666 
L 2450 531 
L 3481 531 
L 3481 0 
L 794 0 
L 794 531 
z
" transform="scale(0.015625)"/>
       </defs>
       <use xlink:href="#DejaVuSans-31"/>
       <use xlink:href="#DejaVuSans-30" x="63.623047"/>
       <use xlink:href="#DejaVuSans-30" x="127.246094"/>
       <use xlink:href="#DejaVuSans-30" x="190.869141"/>
      </g>
     </g>
    </g>
    <g id="xtick_4">
     <g id="line2d_4">
      <g>
       <use xlink:href="#m3915420fb1" x="209.143041" y="307.584" style="stroke: #000000; stroke-width: 0.8"/>
      </g>
     </g>
     <g id="text_4">
      <!-- 1500 -->
      <g transform="translate(196.418041 322.182437)scale(0.1 -0.1)">
       <use xlink:href="#DejaVuSans-31"/>
       <use xlink:href="#DejaVuSans-35" x="63.623047"/>
       <use xlink:href="#DejaVuSans-30" x="127.246094"/>
       <use xlink:href="#DejaVuSans-30" x="190.869141"/>
      </g>
     </g>
    </g>
    <g id="xtick_5">
     <g id="line2d_5">
      <g>
       <use xlink:href="#m3915420fb1" x="254.246479" y="307.584" style="stroke: #000000; stroke-width: 0.8"/>
      </g>
     </g>
     <g id="text_5">
      <!-- 2000 -->
      <g transform="translate(241.521479 322.182437)scale(0.1 -0.1)">
       <defs>
        <path id="DejaVuSans-32" d="M 1228 531 
L 3431 531 
L 3431 0 
L 469 0 
L 469 531 
Q 828 903 1448 1529 
Q 2069 2156 2228 2338 
Q 2531 2678 2651 2914 
Q 2772 3150 2772 3378 
Q 2772 3750 2511 3984 
Q 2250 4219 1831 4219 
Q 1534 4219 1204 4116 
Q 875 4013 500 3803 
L 500 4441 
Q 881 4594 1212 4672 
Q 1544 4750 1819 4750 
Q 2544 4750 2975 4387 
Q 3406 4025 3406 3419 
Q 3406 3131 3298 2873 
Q 3191 2616 2906 2266 
Q 2828 2175 2409 1742 
Q 1991 1309 1228 531 
z
" transform="scale(0.015625)"/>
       </defs>
       <use xlink:href="#DejaVuSans-32"/>
       <use xlink:href="#DejaVuSans-30" x="63.623047"/>
       <use xlink:href="#DejaVuSans-30" x="127.246094"/>
       <use xlink:href="#DejaVuSans-30" x="190.869141"/>
      </g>
     </g>
    </g>
    <g id="xtick_6">
     <g id="line2d_6">
      <g>
       <use xlink:href="#m3915420fb1" x="299.349916" y="307.584" style="stroke: #000000; stroke-width: 0.8"/>
      </g>
     </g>
     <g id="text_6">
      <!-- 2500 -->
      <g transform="translate(286.624916 322.182437)scale(0.1 -0.1)">
       <use xlink:href="#DejaVuSans-32"/>
       <use xlink:href="#DejaVuSans-35" x="63.623047"/>
       <use xlink:href="#DejaVuSans-30" x="127.246094"/>
       <use xlink:href="#DejaVuSans-30" x="190.869141"/>
      </g>
     </g>
    </g>
    <g id="xtick_7">
     <g id="line2d_7">
      <g>
       <use xlink:href="#m3915420fb1" x="344.453354" y="307.584" style="stroke: #000000; stroke-width: 0.8"/>
      </g>
     </g>
     <g id="text_7">
      <!-- 3000 -->
      <g transform="translate(331.728354 322.182437)scale(0.1 -0.1)">
       <defs>
        <path id="DejaVuSans-33" d="M 2597 2516 
Q 3050 2419 3304 2112 
Q 3559 1806 3559 1356 
Q 3559 666 3084 287 
Q 2609 -91 1734 -91 
Q 1441 -91 1130 -33 
Q 819 25 488 141 
L 488 750 
Q 750 597 1062 519 
Q 1375 441 1716 441 
Q 2309 441 2620 675 
Q 2931 909 2931 1356 
Q 2931 1769 2642 2001 
Q 2353 2234 1838 2234 
L 1294 2234 
L 1294 2753 
L 1863 2753 
Q 2328 2753 2575 2939 
Q 2822 3125 2822 3475 
Q 2822 3834 2567 4026 
Q 2313 4219 1838 4219 
Q 1578 4219 1281 4162 
Q 984 4106 628 3988 
L 628 4550 
Q 988 4650 1302 4700 
Q 1616 4750 1894 4750 
Q 2613 4750 3031 4423 
Q 3450 4097 3450 3541 
Q 3450 3153 3228 2886 
Q 3006 2619 2597 2516 
z
" transform="scale(0.015625)"/>
       </defs>
       <use xlink:href="#DejaVuSans-33"/>
       <use xlink:href="#DejaVuSans-30" x="63.623047"/>
       <use xlink:href="#DejaVuSans-30" x="127.246094"/>
       <use xlink:href="#DejaVuSans-30" x="190.869141"/>
      </g>
     </g>
    </g>
    <g id="xtick_8">
     <g id="line2d_8">
      <g>
       <use xlink:href="#m3915420fb1" x="389.556792" y="307.584" style="stroke: #000000; stroke-width: 0.8"/>
      </g>
     </g>
     <g id="text_8">
      <!-- 3500 -->
      <g transform="translate(376.831792 322.182437)scale(0.1 -0.1)">
       <use xlink:href="#DejaVuSans-33"/>
       <use xlink:href="#DejaVuSans-35" x="63.623047"/>
       <use xlink:href="#DejaVuSans-30" x="127.246094"/>
       <use xlink:href="#DejaVuSans-30" x="190.869141"/>
      </g>
     </g>
    </g>
   </g>
   <g id="matplotlib.axis_2">
    <g id="ytick_1">
     <g id="line2d_9">
      <defs>
       <path id="m9defafb640" d="M 0 0 
L -3.5 0 
" style="stroke: #000000; stroke-width: 0.8"/>
      </defs>
      <g>
       <use xlink:href="#m9defafb640" x="57.6" y="289.692278" style="stroke: #000000; stroke-width: 0.8"/>
      </g>
     </g>
     <g id="text_9">
      <!-- 3900 -->
      <g transform="translate(25.15 293.491497)scale(0.1 -0.1)">
       <defs>
        <path id="DejaVuSans-39" d="M 703 97 
L 703 672 
Q 941 559 1184 500 
Q 1428 441 1663 441 
Q 2288 441 2617 861 
Q 2947 1281 2994 2138 
Q 2813 1869 2534 1725 
Q 2256 1581 1919 1581 
Q 1219 1581 811 2004 
Q 403 2428 403 3163 
Q 403 3881 828 4315 
Q 1253 4750 1959 4750 
Q 2769 4750 3195 4129 
Q 3622 3509 3622 2328 
Q 3622 1225 3098 567 
Q 2575 -91 1691 -91 
Q 1453 -91 1209 -44 
Q 966 3 703 97 
z
M 1959 2075 
Q 2384 2075 2632 2365 
Q 2881 2656 2881 3163 
Q 2881 3666 2632 3958 
Q 2384 4250 1959 4250 
Q 1534 4250 1286 3958 
Q 1038 3666 1038 3163 
Q 1038 2656 1286 2365 
Q 1534 2075 1959 2075 
z
" transform="scale(0.015625)"/>
       </defs>
       <use xlink:href="#DejaVuSans-33"/>
       <use xlink:href="#DejaVuSans-39" x="63.623047"/>
       <use xlink:href="#DejaVuSans-30" x="127.246094"/>
       <use xlink:href="#DejaVuSans-30" x="190.869141"/>
      </g>
     </g>
    </g>
    <g id="ytick_2">
     <g id="line2d_10">
      <g>
       <use xlink:href="#m9defafb640" x="57.6" y="233.881115" style="stroke: #000000; stroke-width: 0.8"/>
      </g>
     </g>
     <g id="text_10">
      <!-- 4000 -->
      <g transform="translate(25.15 237.680333)scale(0.1 -0.1)">
       <defs>
        <path id="DejaVuSans-34" d="M 2419 4116 
L 825 1625 
L 2419 1625 
L 2419 4116 
z
M 2253 4666 
L 3047 4666 
L 3047 1625 
L 3713 1625 
L 3713 1100 
L 3047 1100 
L 3047 0 
L 2419 0 
L 2419 1100 
L 313 1100 
L 313 1709 
L 2253 4666 
z
" transform="scale(0.015625)"/>
       </defs>
       <use xlink:href="#DejaVuSans-34"/>
       <use xlink:href="#DejaVuSans-30" x="63.623047"/>
       <use xlink:href="#DejaVuSans-30" x="127.246094"/>
       <use xlink:href="#DejaVuSans-30" x="190.869141"/>
      </g>
     </g>
    </g>
    <g id="ytick_3">
     <g id="line2d_11">
      <g>
       <use xlink:href="#m9defafb640" x="57.6" y="178.069951" style="stroke: #000000; stroke-width: 0.8"/>
      </g>
     </g>
     <g id="text_11">
      <!-- 4100 -->
      <g transform="translate(25.15 181.86917)scale(0.1 -0.1)">
       <use xlink:href="#DejaVuSans-34"/>
       <use xlink:href="#DejaVuSans-31" x="63.623047"/>
       <use xlink:href="#DejaVuSans-30" x="127.246094"/>
       <use xlink:href="#DejaVuSans-30" x="190.869141"/>
      </g>
     </g>
    </g>
    <g id="ytick_4">
     <g id="line2d_12">
      <g>
       <use xlink:href="#m9defafb640" x="57.6" y="122.258788" style="stroke: #000000; stroke-width: 0.8"/>
      </g>
     </g>
     <g id="text_12">
      <!-- 4200 -->
      <g transform="translate(25.15 126.058007)scale(0.1 -0.1)">
       <use xlink:href="#DejaVuSans-34"/>
       <use xlink:href="#DejaVuSans-32" x="63.623047"/>
       <use xlink:href="#DejaVuSans-30" x="127.246094"/>
       <use xlink:href="#DejaVuSans-30" x="190.869141"/>
      </g>
     </g>
    </g>
    <g id="ytick_5">
     <g id="line2d_13">
      <g>
       <use xlink:href="#m9defafb640" x="57.6" y="66.447625" style="stroke: #000000; stroke-width: 0.8"/>
      </g>
     </g>
     <g id="text_13">
      <!-- 4300 -->
      <g transform="translate(25.15 70.246844)scale(0.1 -0.1)">
       <use xlink:href="#DejaVuSans-34"/>
       <use xlink:href="#DejaVuSans-33" x="63.623047"/>
       <use xlink:href="#DejaVuSans-30" x="127.246094"/>
       <use xlink:href="#DejaVuSans-30" x="190.869141"/>
      </g>
     </g>
    </g>
   </g>
   <g id="line2d_14">
    <path d="M 73.832727 158.607716 
L 73.922934 158.464373 
L 74.103348 163.97409 
L 74.283762 162.399768 
L 74.464175 164.832786 
L 74.734796 156.675581 
L 74.825003 156.604182 
L 75.005417 158.106832 
L 75.095624 157.89209 
L 75.276037 158.965256 
L 75.456451 158.035161 
L 75.636865 164.618044 
L 75.727072 163.330136 
L 75.907485 159.680882 
L 76.178106 156.318041 
L 76.268313 156.675581 
L 76.35852 156.246369 
L 76.448727 156.818652 
L 76.538934 156.103299 
L 76.62914 153.956695 
L 76.719347 154.528977 
L 76.899761 157.677348 
L 76.989968 157.820418 
L 77.080175 161.11186 
L 77.170382 159.60921 
L 77.260589 156.174698 
L 77.711623 166.192093 
L 77.80183 165.47674 
L 77.892037 166.621578 
L 77.982244 166.120694 
L 78.162657 163.043994 
L 78.343071 154.815391 
L 78.523485 163.401535 
L 78.703899 162.256698 
L 78.974519 155.530744 
L 79.154933 158.106832 
L 79.24514 156.961995 
L 79.335347 158.249903 
L 79.51576 163.473206 
L 79.696174 161.541345 
L 79.876588 164.975857 
L 79.966795 164.904185 
L 80.057002 164.689716 
L 80.147209 164.761115 
L 80.417829 164.975857 
L 80.598243 166.478507 
L 80.68845 166.836047 
L 80.868864 169.483535 
L 81.049277 164.904185 
L 81.139484 165.762881 
L 81.229691 164.618044 
L 81.319898 164.689716 
L 81.410105 165.405068 
L 81.590519 161.899157 
L 81.770932 163.83102 
L 81.861139 162.686182 
L 82.041553 157.319535 
L 82.13176 156.890324 
L 82.221967 157.89209 
L 82.40238 155.316274 
L 82.582794 157.677348 
L 82.763208 156.246369 
L 82.853415 156.961995 
L 82.943622 156.890324 
L 83.033829 156.890324 
L 83.484863 165.047256 
L 83.57507 164.689716 
L 83.665277 162.972323 
L 83.755484 163.687949 
L 83.84569 162.399768 
L 84.026104 154.385907 
L 84.206518 157.176465 
L 84.296725 155.673814 
L 84.386932 155.888557 
L 84.567345 157.74902 
L 84.657552 157.74902 
L 84.747759 157.248136 
L 84.837966 157.605949 
L 84.928173 157.534277 
L 85.01838 157.677348 
L 85.198794 160.610977 
L 85.289 158.035161 
L 85.379207 158.321302 
L 85.559621 165.333669 
L 85.740035 161.827486 
L 85.830242 163.473206 
L 85.920449 162.47144 
L 86.100862 157.319535 
L 86.281276 158.536044 
L 86.551897 155.244603 
L 86.642104 155.673814 
L 86.822517 155.316274 
L 87.002931 155.673814 
L 87.093138 155.602415 
L 87.273552 155.244603 
L 87.453965 156.38944 
L 87.724586 154.099766 
L 87.905 148.089437 
L 87.995207 150.379112 
L 88.085414 149.878229 
L 88.175621 149.949627 
L 88.356034 155.02986 
L 88.536448 148.017766 
L 88.626655 150.236041 
L 88.807069 148.947861 
L 88.987482 152.024833 
L 89.077689 150.879996 
L 89.258103 155.602415 
L 89.438517 149.305674 
L 89.618931 156.675581 
L 89.709137 155.387673 
L 89.799344 153.38414 
L 89.979758 156.532511 
L 90.160172 157.033394 
L 90.250379 156.532511 
L 90.340586 157.105066 
L 90.520999 154.314507 
L 90.79162 156.461112 
L 90.972034 155.673814 
L 91.242654 158.464373 
L 91.332861 157.74902 
L 91.423068 159.179998 
L 91.513275 162.829253 
L 91.603482 162.686182 
L 91.783896 155.745486 
L 91.964309 162.328369 
L 92.23493 157.033394 
L 92.325137 157.248136 
L 92.415344 158.679115 
L 92.505551 162.686182 
L 92.595757 161.827486 
L 92.685964 156.103299 
L 92.776171 156.38944 
L 92.956585 162.328369 
L 93.227206 163.97409 
L 93.317412 163.043994 
L 93.588033 155.888557 
L 93.768447 157.89209 
L 93.858654 157.820418 
L 94.039067 155.745486 
L 94.219481 160.96879 
L 94.309688 160.897391 
L 94.399895 160.96879 
L 94.490102 160.324836 
L 94.670516 156.747253 
L 94.760722 158.106832 
L 94.941136 155.459345 
L 95.12155 157.89209 
L 95.211757 157.033394 
L 95.392171 158.679115 
L 95.572584 155.602415 
L 95.662791 156.461112 
L 95.843205 155.745486 
L 95.933412 156.675581 
L 96.113826 156.103299 
L 96.204032 157.248136 
L 96.294239 156.961995 
L 96.384446 155.244603 
L 96.474653 156.461112 
L 96.745274 176.138089 
L 96.925687 174.850181 
L 97.015894 174.993252 
L 97.286515 164.761115 
L 97.466929 171.987952 
L 97.737549 163.902418 
L 97.917963 164.761115 
L 98.098377 170.05609 
L 98.278791 156.890324 
L 98.368997 159.108599 
L 98.549411 165.619811 
L 98.639618 163.187065 
L 98.729825 163.759348 
L 98.820032 165.190327 
L 98.910239 165.047256 
L 99.000446 165.047256 
L 99.090652 166.335164 
L 99.271066 174.349298 
L 99.361273 174.277626 
L 99.45148 173.848415 
L 99.541687 174.492369 
L 99.631894 173.991485 
L 99.812307 170.771443 
L 99.992721 172.703577 
L 100.082928 172.703577 
L 100.173135 173.41893 
L 100.353549 170.843115 
L 100.443756 174.134556 
L 100.533962 173.204461 
L 100.714376 165.047256 
L 100.984997 171.630139 
L 101.075204 170.342231 
L 101.255617 164.260231 
L 101.345824 163.902418 
L 101.436031 162.399768 
L 101.616445 166.263765 
L 101.706652 166.049023 
L 101.796859 165.619811 
L 101.887066 166.120694 
L 101.977272 166.049023 
L 102.067479 166.049023 
L 102.157686 165.762881 
L 102.247893 166.049023 
L 102.3381 165.977623 
L 102.518514 164.618044 
L 102.608721 164.546372 
L 102.698927 164.689716 
L 102.879341 166.621578 
L 102.969548 163.83102 
L 103.059755 165.047256 
L 103.240169 172.345764 
L 103.420582 174.134556 
L 103.510789 173.705344 
L 103.600996 173.204461 
L 103.691203 173.848415 
L 103.78141 173.776743 
L 103.871617 173.204461 
L 104.142237 173.919814 
L 104.232444 175.422464 
L 104.412858 173.633673 
L 104.593272 174.921581 
L 104.683479 173.347531 
L 104.863892 176.209488 
L 105.044306 173.41893 
L 105.134513 173.490602 
L 105.22472 173.27586 
L 105.405134 179.214789 
L 105.585548 183.722603 
L 105.675754 183.722603 
L 105.856168 186.155349 
L 106.036582 182.50623 
L 106.126789 183.078649 
L 106.216996 184.151951 
L 106.307203 145.692391 
L 106.397409 145.752072 
L 106.577823 145.871161 
L 106.66803 146.729857 
L 106.758237 144.511582 
L 106.848444 145.656419 
L 106.938651 144.297112 
L 107.028858 140.8626 
L 107.209271 147.803023 
L 107.299478 147.230741 
L 107.389685 146.801257 
L 107.570099 148.518649 
L 107.750513 147.373812 
L 107.840719 147.516882 
L 108.021133 148.303907 
L 108.11134 146.9446 
L 108.201547 147.015999 
L 108.381961 148.733391 
L 108.472168 148.446978 
L 108.652581 149.878229 
L 108.832995 147.946367 
L 109.013409 149.305674 
L 109.193823 146.9446 
L 109.464443 154.67232 
L 109.644857 149.949627 
L 109.735064 150.379112 
L 109.825271 149.520416 
L 110.186098 155.101532 
L 110.276305 155.244603 
L 110.456719 152.382373 
L 110.546926 153.241069 
L 110.727339 149.735158 
L 110.817546 149.949627 
L 111.178374 147.30214 
L 111.358788 147.946367 
L 111.448994 147.230741 
L 111.539201 147.445483 
L 111.719615 149.019532 
L 112.080443 147.445483 
L 112.170649 147.516882 
L 112.351063 148.089437 
L 112.44127 148.089437 
L 112.621684 146.872928 
L 112.802098 147.588554 
L 112.982511 146.9446 
L 113.253132 147.30214 
L 113.343339 146.014232 
L 113.433546 146.085904 
L 113.88458 179.000047 
L 113.974787 184.080416 
L 114.064994 183.579532 
L 114.245408 181.862276 
L 114.335614 181.218322 
L 114.425821 152.525716 
L 114.516028 155.960228 
L 114.696442 153.38414 
L 114.967063 158.536044 
L 115.057269 156.38944 
L 115.147476 157.033394 
L 115.237683 155.960228 
L 115.418097 151.881762 
L 115.508304 155.02986 
L 115.688718 149.735158 
L 115.869131 156.38944 
L 116.049545 153.527483 
L 116.229959 158.536044 
L 116.410373 156.246369 
L 116.500579 156.818652 
L 116.7712 147.803023 
L 116.861407 149.019532 
L 117.132028 147.230741 
L 117.222234 144.583253 
L 117.492855 149.377345 
L 117.673269 158.249903 
L 117.853683 148.017766 
L 118.034096 156.031627 
L 118.124303 154.314507 
L 118.485131 165.190327 
L 118.575338 164.045489 
L 118.936165 145.942833 
L 119.296993 155.459345 
L 119.567613 145.799762 
L 119.748027 149.520416 
L 119.838234 148.446978 
L 119.928441 149.735158 
L 120.108854 156.532511 
L 120.289268 155.673814 
L 120.379475 156.031627 
L 120.469682 155.745486 
L 120.830509 158.321302 
L 120.920716 157.462878 
L 121.010923 157.74902 
L 121.281544 165.548139 
L 121.371751 165.548139 
L 121.552164 164.832786 
L 121.642371 165.118927 
L 121.822785 160.467906 
L 121.912992 164.117161 
L 122.093406 155.172931 
L 122.183613 156.675581 
L 122.273819 158.392973 
L 122.364026 156.890324 
L 122.454233 157.820418 
L 122.634647 165.905952 
L 122.905268 163.258465 
L 122.995475 161.899157 
L 123.175888 166.049023 
L 123.266095 164.689716 
L 123.446509 157.74902 
L 123.98775 171.773209 
L 124.077957 171.272326 
L 124.348578 166.478507 
L 124.438785 167.05079 
L 124.709405 154.67232 
L 124.799612 158.321302 
L 124.980026 156.604182 
L 125.250646 160.396507 
L 125.340853 159.537811 
L 125.521267 164.832786 
L 125.701681 160.682648 
L 125.882095 163.401535 
L 125.972301 163.187065 
L 126.062508 163.473206 
L 126.242922 165.977623 
L 126.423336 163.473206 
L 126.513543 163.83102 
L 126.784163 157.033394 
L 126.87437 158.536044 
L 127.144991 147.946367 
L 127.235198 150.16437 
L 127.415611 146.157302 
L 127.596025 150.379112 
L 127.776439 147.588554 
L 127.956853 149.162603 
L 128.137266 151.953161 
L 128.588301 143.867628 
L 128.768715 145.799762 
L 128.858921 146.014232 
L 129.129542 157.105066 
L 129.219749 156.675581 
L 129.580576 165.619811 
L 129.670783 165.548139 
L 129.76099 164.618044 
L 129.851197 164.975857 
L 129.941404 164.904185 
L 130.031611 163.258465 
L 130.212025 168.124227 
L 130.392438 165.548139 
L 130.572852 172.417163 
L 130.663059 167.336931 
L 130.753266 170.270832 
L 131.023886 166.621578 
L 131.114093 165.619811 
L 131.384714 167.408602 
L 131.565128 171.773209 
L 131.655335 167.694743 
L 131.835748 172.846648 
L 131.925955 170.843115 
L 132.016162 170.485301 
L 132.106369 173.919814 
L 132.196576 173.562001 
L 132.37699 165.405068 
L 132.467196 166.478507 
L 132.64761 170.127489 
L 132.918231 164.975857 
L 133.098645 168.338697 
L 133.188851 167.480274 
L 133.369265 164.474973 
L 133.459472 165.619811 
L 133.549679 165.405068 
L 133.730093 168.052556 
L 133.8203 167.265531 
L 133.910506 167.480274 
L 134.000713 168.625111 
L 134.181127 155.673814 
L 134.361541 161.469673 
L 134.632161 155.960228 
L 134.812575 164.832786 
L 134.902782 164.260231 
L 135.26361 156.604182 
L 135.353816 157.105066 
L 135.53423 154.815391 
L 135.714644 157.89209 
L 135.895058 157.105066 
L 135.985265 157.89209 
L 136.436299 153.455811 
L 136.70692 158.178232 
L 136.887333 155.960228 
L 136.97754 155.316274 
L 137.248161 147.588554 
L 137.428575 154.67232 
L 137.518781 154.385907 
L 137.608988 151.380878 
L 137.789402 156.961995 
L 137.879609 153.670554 
L 137.969816 154.028094 
L 138.060023 157.033394 
L 138.330643 146.014232 
L 138.511057 152.382373 
L 138.691471 157.391207 
L 138.781678 182.720836 
L 138.871885 182.50623 
L 138.962091 182.50623 
L 139.142505 189.589997 
L 139.232712 186.155349 
L 139.322919 186.799439 
L 139.413126 188.945907 
L 139.503333 188.015812 
L 139.59354 188.874371 
L 139.86416 197.389253 
L 139.954367 197.532323 
L 140.134781 198.820231 
L 140.405402 191.521859 
L 140.495608 193.096044 
L 140.676022 192.523626 
L 140.766229 193.668463 
L 140.946643 190.663299 
L 141.03685 191.879671 
L 141.127057 190.734834 
L 141.30747 182.148417 
L 141.668298 185.58293 
L 142.029125 172.989718 
L 142.209539 180.144884 
L 142.299746 179.429531 
L 142.48016 183.794139 
L 142.660573 181.075115 
L 142.840987 181.790741 
L 143.021401 180.073485 
L 143.292022 183.722603 
L 143.472435 189.017578 
L 143.562642 186.656232 
L 143.743056 193.453857 
L 143.833263 193.096044 
L 144.013677 195.385719 
L 144.103883 194.741765 
L 144.19409 194.455488 
L 144.284297 196.244415 
L 144.374504 196.172744 
L 144.554918 192.738231 
L 144.645125 193.239115 
L 144.735332 192.380555 
L 144.915745 196.315951 
L 145.096159 191.092511 
L 145.186366 191.951207 
L 145.36678 188.516695 
L 145.456987 190.520092 
L 145.547193 189.589997 
L 145.727607 181.790741 
L 145.998228 188.58823 
L 146.268848 193.453857 
L 146.359055 194.026276 
L 146.449262 196.888369 
L 146.539469 195.886603 
L 146.719883 188.945907 
L 146.81009 190.377022 
L 146.990503 150.092698 
L 147.170917 149.091204 
L 147.261124 149.663486 
L 147.531745 148.518649 
L 147.621952 147.516882 
L 148.072986 159.25167 
L 148.163193 158.893857 
L 148.343607 155.745486 
L 148.433813 156.246369 
L 148.52402 155.459345 
L 148.704434 148.160836 
L 148.794641 149.806557 
L 148.884848 154.099766 
L 148.975055 153.16967 
L 149.065262 153.16967 
L 149.155468 155.101532 
L 149.245675 154.67232 
L 149.335882 154.385907 
L 149.426089 152.954928 
L 149.606503 148.160836 
L 149.69671 147.230741 
L 149.786917 148.59032 
L 149.96733 158.178232 
L 150.147744 154.457578 
L 150.328158 156.747253 
L 150.418365 156.532511 
L 150.508572 156.818652 
L 150.779192 165.047256 
L 150.869399 164.474973 
L 151.049813 158.893857 
L 151.14002 161.541345 
L 151.320433 156.747253 
L 151.41064 157.534277 
L 151.500847 157.677348 
L 151.771468 148.089437 
L 151.861675 151.023066 
L 152.042088 148.733391 
L 152.132295 150.16437 
L 152.222502 149.162603 
L 152.312709 150.450511 
L 152.402916 154.171437 
L 152.58333 149.377345 
L 152.673537 154.88679 
L 152.763743 154.314507 
L 152.85395 148.089437 
L 152.944157 148.80479 
L 153.034364 150.665253 
L 153.214778 143.080603 
L 153.395192 146.9446 
L 153.575605 139.860833 
L 153.665812 140.8626 
L 153.756019 140.218646 
L 153.936433 135.853766 
L 154.02664 136.927205 
L 154.477674 159.036928 
L 154.567881 158.965256 
L 154.658088 158.106832 
L 154.748295 158.392973 
L 154.838502 159.179998 
L 155.018915 153.670554 
L 155.199329 157.462878 
L 155.289536 157.605949 
L 155.379743 158.893857 
L 155.560157 165.190327 
L 155.920984 155.101532 
L 156.011191 155.172931 
L 156.281812 156.461112 
L 156.372018 156.532511 
L 156.552432 157.248136 
L 156.642639 157.105066 
L 156.823053 161.183532 
L 157.003467 157.105066 
L 157.18388 159.680882 
L 157.364294 156.532511 
L 157.634915 158.392973 
L 157.815329 152.883256 
L 158.266363 163.97409 
L 158.35657 162.47144 
L 158.446777 161.11186 
L 159.078225 180.073485 
L 159.348845 172.846648 
L 159.529259 163.115394 
L 159.709673 175.064651 
L 159.890087 173.347531 
L 159.980294 173.204461 
L 160.160707 164.117161 
L 160.341121 166.836047 
L 160.431328 166.692976 
L 160.611742 172.488835 
L 160.701949 172.774976 
L 160.882362 174.77851 
L 161.423604 192.022742 
L 161.51381 190.520092 
L 161.604017 190.877905 
L 161.874638 200.680694 
L 161.964845 200.179811 
L 162.055052 201.396184 
L 162.145259 200.108139 
L 162.325672 196.387486 
L 162.415879 197.246046 
L 162.506086 199.464185 
L 162.596293 198.033207 
L 162.776707 190.877905 
L 162.866914 192.738231 
L 162.95712 192.595161 
L 163.047327 191.164046 
L 163.137534 165.691209 
L 163.227741 165.762881 
L 163.317948 166.120694 
L 163.408155 165.762881 
L 163.588569 161.326602 
L 163.678775 163.902418 
L 163.768982 162.686182 
L 163.949396 157.033394 
L 164.039603 157.677348 
L 164.12981 157.534277 
L 164.490637 166.120694 
L 164.580844 166.406835 
L 164.761258 165.118927 
L 164.941672 163.258465 
L 165.031879 164.045489 
L 165.212292 149.878229 
L 165.302499 150.879996 
L 165.392706 153.670554 
L 165.57312 148.876462 
L 165.753534 156.818652 
L 165.933947 154.242836 
L 166.024154 154.743719 
L 166.204568 157.248136 
L 166.384982 155.530744 
L 166.565395 157.605949 
L 166.655602 156.38944 
L 166.836016 163.115394 
L 167.01643 156.747253 
L 167.196844 157.391207 
L 167.377257 154.958462 
L 167.467464 155.745486 
L 167.738085 147.30214 
L 167.828292 148.303907 
L 168.008705 146.586787 
L 168.189119 148.303907 
L 168.369533 141.434883 
L 168.549947 147.159069 
L 168.640154 145.084137 
L 168.73036 146.300645 
L 168.820567 145.942833 
L 169.000981 138.286511 
L 169.091188 138.644324 
L 169.271602 132.347855 
L 169.452015 139.145208 
L 169.542222 138.572925 
L 169.632429 138.930465 
L 169.812843 131.417487 
L 169.993257 139.216879 
L 170.17367 135.138413 
L 170.263877 137.070275 
L 170.354084 136.927205 
L 170.444291 137.642558 
L 170.895325 168.768182 
L 170.985532 169.841348 
L 171.165946 175.422464 
L 171.256153 169.412136 
L 171.34636 175.351065 
L 171.436567 174.635439 
L 171.61698 176.853442 
L 171.707187 173.848415 
L 171.797394 174.134556 
L 171.977808 175.279393 
L 172.068015 175.207722 
L 172.158222 174.492369 
L 172.248429 174.921581 
L 172.699463 184.00888 
L 172.970084 176.853442 
L 173.06029 174.850181 
L 173.150497 175.708605 
L 173.330911 172.918047 
L 173.511325 175.064651 
L 173.601532 173.06139 
L 173.691739 173.41893 
L 173.781945 174.134556 
L 173.962359 167.694743 
L 174.23298 174.420697 
L 174.413394 173.347531 
L 174.593807 175.923347 
L 174.774221 164.474973 
L 174.954635 169.769948 
L 175.044842 165.977623 
L 175.135049 166.049023 
L 175.225256 165.762881 
L 175.315462 166.692976 
L 175.495876 173.490602 
L 175.856704 163.97409 
L 175.946911 164.117161 
L 176.127324 161.970557 
L 176.307738 164.618044 
L 176.397945 163.83102 
L 176.488152 164.832786 
L 176.578359 164.546372 
L 176.758772 159.036928 
L 176.848979 160.539578 
L 177.029393 156.246369 
L 177.209807 160.897391 
L 177.300014 161.254931 
L 177.390221 164.474973 
L 177.480427 162.686182 
L 177.660841 155.459345 
L 177.751048 157.105066 
L 177.841255 156.890324 
L 177.931462 155.530744 
L 178.021669 155.673814 
L 178.111876 155.960228 
L 178.292289 156.961995 
L 178.472703 153.956695 
L 178.653117 159.179998 
L 178.833531 153.16967 
L 178.923737 148.446978 
L 179.013944 148.518649 
L 179.194358 158.536044 
L 179.284565 157.677348 
L 179.464979 191.879671 
L 179.735599 200.465952 
L 179.825806 199.607392 
L 179.916013 199.678928 
L 180.00622 199.464185 
L 180.457254 216.708418 
L 180.547461 215.849858 
L 180.637668 216.422277 
L 180.727875 218.497209 
L 180.818082 217.209301 
L 180.998496 210.769625 
L 181.088702 211.628185 
L 181.269116 214.991162 
L 181.539737 207.478183 
L 181.629944 207.191906 
L 181.900564 199.249579 
L 182.080978 201.324648 
L 182.171185 201.467719 
L 182.261392 201.968602 
L 182.441806 194.169346 
L 182.622219 190.663299 
L 182.712426 190.377022 
L 182.802633 190.520092 
L 183.163461 192.666696 
L 183.524288 190.591627 
L 183.704702 192.094278 
L 183.885116 189.375255 
L 183.975322 191.951207 
L 184.065529 191.164046 
L 184.155736 188.087346 
L 184.245943 190.520092 
L 184.426357 199.678928 
L 184.606771 200.036604 
L 184.787184 192.809767 
L 184.877391 194.383952 
L 184.967598 197.102975 
L 185.238219 191.307253 
L 185.418632 192.809767 
L 185.508839 192.309019 
L 185.689253 196.029673 
L 185.869667 189.589997 
L 185.959874 192.237348 
L 186.050081 190.591627 
L 186.140287 185.296788 
L 186.230494 185.797672 
L 186.501115 189.518461 
L 186.861942 201.038371 
L 186.952149 199.535721 
L 187.132563 201.253113 
L 187.312977 196.172744 
L 187.403184 196.244415 
L 187.583597 156.985704 
L 187.764011 156.890324 
L 188.124839 155.673814 
L 188.215046 154.242836 
L 188.305252 154.67232 
L 188.485666 163.330136 
L 188.575873 160.610977 
L 188.66608 161.541345 
L 188.756287 165.977623 
L 188.846494 164.904185 
L 188.936701 161.827486 
L 189.117114 164.761115 
L 189.207321 164.403302 
L 189.387735 158.679115 
L 189.568149 165.977623 
L 189.658356 163.258465 
L 189.838769 166.621578 
L 190.380011 161.11186 
L 190.560424 168.195627 
L 190.740838 165.405068 
L 190.831045 165.905952 
L 190.921252 165.762881 
L 191.191872 167.551673 
L 191.462493 173.776743 
L 191.5527 171.415669 
L 191.642907 171.773209 
L 191.733114 172.774976 
L 191.913527 170.700044 
L 192.093941 166.335164 
L 192.184148 168.410369 
L 192.274355 168.267298 
L 192.364562 168.124227 
L 192.544976 176.209488 
L 192.725389 174.492369 
L 192.905803 179.930414 
L 193.086217 173.991485 
L 193.176424 174.492369 
L 193.266631 174.420697 
L 193.447044 173.27586 
L 193.537251 173.633673 
L 193.627458 174.921581 
L 193.807872 170.700044 
L 193.898079 172.417163 
L 193.988286 170.485301 
L 194.168699 164.761115 
L 194.258906 164.474973 
L 194.43932 163.687949 
L 194.619734 157.534277 
L 195.070768 185.654601 
L 195.251182 182.219953 
L 195.431596 183.937345 
L 195.521803 182.076882 
L 195.612009 163.902418 
L 195.702216 164.761115 
L 195.792423 164.975857 
L 195.972837 165.762881 
L 196.063044 165.834553 
L 196.153251 165.691209 
L 196.423871 162.972323 
L 196.604285 156.174698 
L 196.784699 160.110093 
L 196.965113 157.963489 
L 197.055319 159.179998 
L 197.235733 158.464373 
L 197.416147 166.049023 
L 197.686768 162.399768 
L 197.867181 156.818652 
L 197.957388 157.319535 
L 198.137802 156.818652 
L 198.228009 156.961995 
L 198.408423 154.171437 
L 198.679043 158.822185 
L 198.859457 165.118927 
L 199.039871 156.031627 
L 199.220284 163.902418 
L 199.310491 163.687949 
L 199.400698 163.97409 
L 199.581112 166.406835 
L 199.671319 165.834553 
L 199.761526 166.836047 
L 199.851733 164.904185 
L 200.032146 154.88679 
L 200.122353 155.172931 
L 200.302767 159.036928 
L 200.392974 158.607716 
L 200.573388 157.462878 
L 200.753801 149.878229 
L 200.934215 156.318041 
L 201.024422 155.530744 
L 201.114629 154.457578 
L 201.295043 156.675581 
L 201.475456 155.316274 
L 201.565663 155.530744 
L 201.65587 156.246369 
L 201.746077 156.103299 
L 201.836284 156.532511 
L 201.926491 157.74902 
L 202.106904 155.459345 
L 202.287318 157.677348 
L 202.377525 156.961995 
L 202.557939 160.539578 
L 203.008973 154.67232 
L 203.09918 154.958462 
L 203.189387 154.528977 
L 203.369801 147.946367 
L 203.550214 149.591815 
L 203.640421 147.946367 
L 203.820835 158.822185 
L 204.001249 159.895624 
L 204.181663 156.675581 
L 204.362076 158.536044 
L 204.452283 157.105066 
L 204.54249 157.248136 
L 204.632697 156.961995 
L 204.722904 157.248136 
L 204.993524 164.761115 
L 205.083731 164.761115 
L 205.264145 167.05079 
L 205.444559 163.902418 
L 205.534766 165.333669 
L 205.624973 163.616277 
L 205.805386 154.528977 
L 205.9858 156.818652 
L 206.076007 156.747253 
L 206.346628 159.036928 
L 206.527041 162.328369 
L 206.797662 164.403302 
L 206.887869 164.474973 
L 207.068283 165.47674 
L 207.158489 164.975857 
L 207.248696 165.619811 
L 207.42911 168.911252 
L 207.609524 166.049023 
L 207.789938 167.336931 
L 207.880144 166.263765 
L 207.970351 166.406835 
L 208.060558 166.97939 
L 208.240972 161.827486 
L 208.331179 162.113627 
L 208.421386 162.900651 
L 208.601799 157.820418 
L 208.782213 165.405068 
L 208.962627 161.469673 
L 209.233248 164.546372 
L 209.323454 164.474973 
L 209.413661 165.261998 
L 209.503868 163.97409 
L 209.684282 156.38944 
L 209.864696 156.38944 
L 210.04511 158.607716 
L 210.135316 158.536044 
L 210.405937 156.532511 
L 210.676558 162.686182 
L 211.037385 165.548139 
L 211.217799 160.110093 
L 211.398213 165.548139 
L 211.48842 163.902418 
L 211.578626 163.97409 
L 211.668833 165.762881 
L 211.75904 165.548139 
L 211.849247 153.312741 
L 211.939454 155.602415 
L 212.210075 149.806557 
L 212.300281 147.373812 
L 212.570902 149.448744 
L 212.751316 154.028094 
L 212.841523 152.883256 
L 213.382764 155.673814 
L 213.563178 152.167903 
L 213.653385 152.954928 
L 213.833798 154.743719 
L 213.924005 154.528977 
L 214.104419 149.735158 
L 214.284833 156.532511 
L 214.37504 154.314507 
L 214.465246 148.518649 
L 214.555453 149.019532 
L 214.735867 154.385907 
L 214.826074 153.670554 
L 215.006488 156.318041 
L 215.096695 157.677348 
L 215.367315 146.372045 
L 215.547729 149.091204 
L 215.81835 147.445483 
L 215.998763 156.174698 
L 216.08897 155.02986 
L 216.359591 148.733391 
L 216.449798 146.872928 
L 216.540005 148.59032 
L 216.720418 146.372045 
L 216.900832 153.813624 
L 216.991039 151.237536 
L 217.171453 155.459345 
L 217.351866 146.300645 
L 217.442073 149.305674 
L 217.53228 149.162603 
L 217.622487 147.015999 
L 217.802901 149.735158 
L 217.893108 149.591815 
L 218.073521 150.092698 
L 218.434349 146.515116 
L 218.524556 146.300645 
L 218.70497 148.303907 
L 218.795176 148.303907 
L 218.885383 148.661719 
L 218.97559 148.375578 
L 219.065797 147.659953 
L 219.336418 156.246369 
L 219.516831 148.160836 
L 219.607038 148.232508 
L 219.787452 157.248136 
L 219.877659 156.318041 
L 220.058073 164.403302 
L 220.14828 163.759348 
L 220.328693 168.839581 
L 220.509107 166.406835 
L 221.050348 177.78381 
L 221.320969 180.359626 
L 221.501383 174.277626 
L 221.59159 174.77851 
L 221.772003 175.494136 
L 221.952417 178.785577 
L 222.132831 174.563767 
L 222.223038 176.853442 
L 222.493658 171.272326 
L 222.583865 172.059623 
L 222.674072 172.417163 
L 222.854486 174.706838 
L 223.125106 164.188832 
L 223.215313 164.331903 
L 223.395727 166.478507 
L 223.485934 165.190327 
L 223.666348 171.987952 
L 223.846761 165.118927 
L 224.027175 170.270832 
L 224.207589 164.689716 
L 224.297796 164.975857 
L 224.388003 165.691209 
L 224.47821 164.904185 
L 224.658623 166.478507 
L 224.74883 164.117161 
L 225.019451 173.490602 
L 225.109658 173.132789 
L 225.199865 173.919814 
L 225.290071 173.848415 
L 225.380278 173.633673 
L 225.470485 173.705344 
L 225.560692 173.562001 
L 225.741106 174.706838 
L 225.92152 173.204461 
L 226.101933 178.284694 
L 226.282347 174.635439 
L 226.372554 174.706838 
L 226.462761 174.134556 
L 226.643175 176.209488 
L 226.823588 174.062884 
L 226.913795 173.991485 
L 227.004002 174.062884 
L 227.274623 183.507997 
L 227.36483 183.007113 
L 227.455037 184.00888 
L 227.63545 189.589997 
L 227.906071 184.295022 
L 227.996278 184.581299 
L 228.176692 157.248136 
L 228.357105 156.675581 
L 228.537519 158.249903 
L 228.627726 157.677348 
L 228.717933 155.960228 
L 228.80814 156.031627 
L 228.988553 158.965256 
L 229.07876 156.604182 
L 229.259174 165.548139 
L 229.349381 164.689716 
L 229.439588 162.256698 
L 229.620002 165.261998 
L 229.800415 160.897391 
L 229.890622 157.176465 
L 230.071036 163.687949 
L 230.161243 161.970557 
L 230.25145 162.042228 
L 230.341657 164.474973 
L 230.431863 164.403302 
L 230.52207 163.902418 
L 230.612277 164.689716 
L 230.702484 163.902418 
L 230.882898 156.532511 
L 230.973105 158.822185 
L 231.153518 166.335164 
L 231.243725 163.544606 
L 231.333932 164.117161 
L 231.424139 164.761115 
L 231.514346 164.045489 
L 231.604553 164.188832 
L 231.784967 164.689716 
L 231.96538 166.764648 
L 232.145794 164.689716 
L 232.236001 164.975857 
L 232.416415 164.832786 
L 232.596828 164.260231 
L 232.687035 163.759348 
L 232.957656 155.745486 
L 233.13807 157.605949 
L 233.318483 156.174698 
L 233.589104 159.179998 
L 233.679311 158.750787 
L 233.769518 157.462878 
L 233.859725 157.534277 
L 233.949932 158.392973 
L 234.130345 156.604182 
L 234.220552 157.605949 
L 234.400966 152.740186 
L 234.58138 156.103299 
L 234.671587 153.38414 
L 234.761793 153.885023 
L 234.852 155.673814 
L 235.122621 148.160836 
L 235.212828 149.091204 
L 235.483448 157.534277 
L 235.573655 157.462878 
L 235.754069 158.035161 
L 235.844276 157.820418 
L 235.934483 158.035161 
L 236.02469 157.74902 
L 236.114897 155.888557 
L 236.205103 151.380878 
L 236.29531 155.673814 
L 236.475724 167.909486 
L 236.565931 164.904185 
L 236.746345 172.345764 
L 236.836552 166.263765 
L 236.926758 166.478507 
L 237.016965 164.403302 
L 237.197379 145.942833 
L 237.287586 148.375578 
L 237.377793 147.946367 
L 237.558207 151.595348 
L 237.828827 149.806557 
L 237.919034 152.740186 
L 238.009241 159.39474 
L 238.099448 158.178232 
L 238.189655 157.74902 
L 238.279862 165.118927 
L 238.370068 162.757581 
L 238.460275 157.462878 
L 238.640689 159.895624 
L 238.730896 159.39474 
L 238.821103 160.96879 
L 239.001517 145.513349 
L 239.091723 149.305674 
L 239.362344 171.987952 
L 239.452551 175.995019 
L 239.542758 175.780277 
L 239.632965 171.844881 
L 239.723172 173.06139 
L 239.903585 186.37009 
L 240.174206 201.610789 
L 240.264413 206.762558 
L 240.35462 201.467719 
L 240.535033 185.296788 
L 240.715447 168.124227 
L 240.805654 168.911252 
L 240.895861 175.136322 
L 240.986068 174.492369 
L 241.166482 166.621578 
L 241.346895 145.084137 
L 241.617516 148.661719 
L 241.79793 158.178232 
L 241.888137 157.74902 
L 242.06855 153.885023 
L 242.248964 165.118927 
L 242.429378 161.541345 
L 242.609792 172.274093 
L 242.790205 159.752553 
L 243.151033 179.930414 
L 243.24124 181.933812 
L 243.51186 165.762881 
L 243.602067 165.691209 
L 243.692274 166.907719 
L 243.782481 163.258465 
L 243.962895 149.735158 
L 244.053102 157.105066 
L 244.143308 155.459345 
L 244.233515 159.537811 
L 244.323722 140.576186 
L 244.413929 142.722791 
L 244.504136 141.363483 
L 244.774757 118.538135 
L 244.864963 121.400092 
L 244.95517 124.834604 
L 245.135584 120.469997 
L 245.225791 119.682972 
L 245.315998 120.469997 
L 245.496412 129.485625 
L 245.586619 131.059674 
L 245.767032 141.721024 
L 245.857239 140.504787 
L 245.947446 142.651391 
L 246.12786 129.199484 
L 246.218067 132.920137 
L 246.308274 126.122512 
L 246.488687 104.012789 
L 246.669101 115.818976 
L 246.759308 110.953485 
L 247.029929 128.77 
L 247.120135 122.902742 
L 247.210342 125.621901 
L 247.480963 137.571158 
L 247.57117 137.284745 
L 247.661377 137.499487 
L 247.751584 139.932232 
L 247.84179 139.002137 
L 247.931997 139.073809 
L 248.112411 148.375578 
L 248.292825 138.286511 
L 248.383032 141.005671 
L 248.473239 140.647858 
L 248.924273 115.389764 
L 249.01448 115.461163 
L 249.194894 117.89418 
L 249.465514 138.715996 
L 249.645928 128.77 
L 249.736135 132.705395 
L 249.826342 131.560558 
L 250.006755 133.063208 
L 250.547997 103.798047 
L 250.72841 115.675905 
L 250.818617 114.74581 
L 251.269652 102.223997 
L 251.359859 102.653209 
L 251.450065 105.014556 
L 251.540272 103.440507 
L 251.9011 117.536368 
L 251.991307 129.342555 
L 252.081514 128.483859 
L 252.17172 126.909809 
L 252.352134 144.08237 
L 252.442341 60.293953 
L 252.532548 65.159717 
L 252.622755 61.224321 
L 252.803169 68.379487 
L 252.983582 53.568 
L 253.254203 67.163251 
L 253.34441 65.803671 
L 253.705237 111.812181 
L 253.885651 135.138413 
L 254.156272 123.761438 
L 254.336685 130.344322 
L 254.426892 128.626929 
L 254.517099 129.127812 
L 254.607306 133.492692 
L 254.78772 124.548463 
L 254.877927 126.194184 
L 254.968134 124.548463 
L 255.148547 114.531068 
L 255.509375 138.00037 
L 255.689789 148.160836 
L 255.779995 147.516882 
L 255.960409 128.841671 
L 256.140823 137.714229 
L 256.321237 129.127812 
L 256.411444 129.628696 
L 256.682064 147.445483 
L 256.772271 147.946367 
L 256.862478 146.515116 
L 257.042892 133.492692 
L 257.133099 136.640791 
L 257.223305 134.279717 
L 257.403719 152.525716 
L 257.493926 150.879996 
L 257.584133 148.661719 
L 257.67434 156.532511 
L 257.764547 156.461112 
L 258.035167 140.290045 
L 258.215581 135.209812 
L 258.576409 150.522182 
L 258.666615 147.874695 
L 258.847029 136.712462 
L 258.937236 140.433116 
L 259.11765 137.714229 
L 259.207857 138.572925 
L 259.298064 138.715996 
L 259.478477 145.58502 
L 259.658891 136.569392 
L 259.839305 155.817158 
L 259.929512 153.097999 
L 260.200132 138.429582 
L 260.470753 164.904185 
L 260.56096 212.486881 
L 260.651167 211.842927 
L 260.741374 215.205904 
L 260.921787 236.31386 
L 261.192408 223.005159 
L 261.463029 242.467395 
L 261.733649 269.085069 
L 261.823856 269.085069 
L 261.914063 272.304975 
L 262.365097 252.127114 
L 262.455304 253.987441 
L 262.545511 256.563393 
L 262.816132 244.113116 
L 262.996546 229.301765 
L 263.176959 222.361069 
L 263.357373 229.874184 
L 263.44758 226.296465 
L 263.718201 197.389253 
L 263.808407 194.884836 
L 263.898614 195.242648 
L 264.079028 204.115206 
L 264.169235 210.984231 
L 264.259442 209.33851 
L 264.349649 205.260044 
L 264.439856 206.547952 
L 264.620269 202.469486 
L 264.710476 204.687625 
L 264.89089 199.821998 
L 265.071304 205.260044 
L 265.161511 205.045302 
L 265.251717 207.191906 
L 265.341924 203.900464 
L 265.432131 206.691022 
L 265.702752 238.961348 
L 265.792959 241.322558 
L 265.883166 240.821674 
L 266.063579 238.746742 
L 266.153786 238.317393 
L 266.3342 241.966512 
L 266.514614 226.081859 
L 266.695027 235.741441 
L 267.055855 221.073162 
L 267.236269 232.020788 
L 267.506889 207.692789 
L 267.867717 228.299998 
L 268.138337 241.68037 
L 268.228544 243.755439 
L 268.408958 237.601904 
L 268.589372 225.080092 
L 268.769786 160.873409 
L 268.950199 157.248136 
L 269.040406 158.464373 
L 269.130613 157.319535 
L 269.22082 158.178232 
L 269.401234 153.598882 
L 269.581647 159.680882 
L 269.762061 156.246369 
L 269.942475 166.907719 
L 270.122889 160.181765 
L 270.303302 173.919814 
L 270.393509 171.200927 
L 270.573923 156.318041 
L 270.66413 162.757581 
L 270.754337 161.326602 
L 270.844544 157.391207 
L 271.024957 165.905952 
L 271.385785 158.106832 
L 271.566199 161.11186 
L 271.746612 167.480274 
L 271.927026 154.743719 
L 272.017233 156.461112 
L 272.10744 155.459345 
L 272.197647 157.605949 
L 272.648681 185.511394 
L 272.738888 177.78381 
L 272.919302 185.082183 
L 273.55075 154.88679 
L 273.731164 158.035161 
L 273.821371 154.815391 
L 274.272405 166.406835 
L 274.452819 161.612743 
L 274.543026 163.043994 
L 274.903853 152.597115 
L 274.99406 144.08237 
L 275.084267 145.942833 
L 275.174474 147.803023 
L 275.264681 143.653158 
L 275.445094 147.731624 
L 275.625508 137.070275 
L 275.715715 139.789162 
L 275.896129 136.49772 
L 276.076542 158.178232 
L 276.256956 175.494136 
L 276.43737 174.062884 
L 276.617784 181.647534 
L 276.798197 159.036928 
L 276.888404 165.261998 
L 277.068818 181.218322 
L 277.159025 180.932045 
L 277.519852 193.525392 
L 277.610059 191.736465 
L 277.790473 173.27586 
L 277.88068 175.207722 
L 277.970887 173.848415 
L 278.151301 162.47144 
L 278.241507 165.047256 
L 278.421921 173.204461 
L 278.512128 172.059623 
L 278.872956 183.507997 
L 278.963162 183.794139 
L 279.143576 183.436462 
L 279.504404 171.773209 
L 279.684817 163.115394 
L 279.775024 163.187065 
L 279.865231 162.900651 
L 280.135852 181.146787 
L 280.226059 176.782043 
L 280.406473 189.160649 
L 280.586886 196.959904 
L 280.677093 197.460788 
L 280.857507 199.965069 
L 281.308541 164.403302 
L 281.398748 165.905952 
L 281.669369 180.574232 
L 281.939989 164.331903 
L 282.030196 164.331903 
L 282.21061 144.440183 
L 282.391024 157.105066 
L 282.481231 156.461112 
L 282.571438 154.457578 
L 282.661644 157.176465 
L 282.842058 172.631906 
L 282.932265 172.774976 
L 283.022472 173.204461 
L 283.112679 172.059623 
L 283.293093 166.907719 
L 283.65392 178.713906 
L 283.834334 185.797672 
L 284.014748 174.420697 
L 284.104954 174.563767 
L 284.285368 170.843115 
L 284.375575 170.986185 
L 284.555989 163.616277 
L 284.736403 173.132789 
L 284.826609 168.69651 
L 285.09723 143.152275 
L 285.548264 121.185622 
L 285.909092 132.490925 
L 286.269919 157.176465 
L 286.360126 156.318041 
L 286.630747 138.215113 
L 286.720954 137.785628 
L 286.811161 146.300645 
L 286.901368 141.721024 
L 287.081781 117.607767 
L 287.171988 122.258788 
L 287.352402 119.46823 
L 287.623023 140.576186 
L 287.713229 138.072042 
L 287.803436 140.361717 
L 287.98385 148.375578 
L 288.074057 147.087671 
L 288.254471 157.033394 
L 288.344678 156.031627 
L 288.615298 166.621578 
L 288.705505 163.043994 
L 288.795712 163.759348 
L 288.885919 167.265531 
L 288.976126 164.761115 
L 289.156539 156.890324 
L 289.246746 156.961995 
L 289.517367 141.864367 
L 289.607574 140.433116 
L 289.697781 136.068508 
L 289.787988 139.431349 
L 289.968401 156.747253 
L 290.148815 145.942833 
L 290.509643 157.105066 
L 290.87047 138.143441 
L 291.141091 123.475297 
L 291.231298 123.832837 
L 291.411711 131.990042 
L 291.501918 130.27265 
L 291.682332 123.689767 
L 291.772539 125.049346 
L 291.952953 120.112184 
L 292.133366 130.487392 
L 292.223573 130.773533 
L 292.494194 145.871161 
L 292.584401 151.523949 
L 292.764814 148.661719 
L 292.945228 165.977623 
L 293.035435 96.57121 
L 293.125642 104.942884 
L 293.215849 102.152326 
L 293.306056 103.511905 
L 293.396263 107.447301 
L 293.576676 92.922228 
L 293.75709 108.162926 
L 293.847297 106.302464 
L 293.937504 100.435206 
L 294.478745 141.721024 
L 294.568952 139.574692 
L 294.659159 140.933999 
L 294.839573 138.358183 
L 294.929779 140.003904 
L 295.290607 129.986508 
L 295.380814 130.057908 
L 295.561228 140.003904 
L 295.651434 135.281484 
L 295.741641 137.857299 
L 295.922055 149.448744 
L 296.282883 158.607716 
L 296.373089 155.459345 
L 296.553503 135.281484 
L 296.64371 139.574692 
L 296.733917 139.50302 
L 296.914331 126.051113 
L 297.184951 149.091204 
L 297.275158 148.375578 
L 297.455572 151.953161 
L 297.635986 138.072042 
L 297.8164 139.50302 
L 297.906606 136.998603 
L 297.996813 137.141674 
L 298.267434 148.733391 
L 298.538055 138.930465 
L 298.628261 139.431349 
L 298.808675 134.708929 
L 298.989089 138.572925 
L 299.079296 137.785628 
L 299.169503 140.790928 
L 299.25971 140.719529 
L 299.440123 125.478558 
L 299.53033 127.124279 
L 299.620537 131.417487 
L 299.710744 129.557297 
L 299.800951 129.843438 
L 299.981365 137.141674 
L 300.161778 136.640791 
L 300.251985 137.284745 
L 300.522606 151.094465 
L 300.793226 139.717763 
L 300.97364 147.874695 
L 301.063847 148.59032 
L 301.244261 199.178044 
L 301.514881 213.20237 
L 301.785502 196.673627 
L 302.14633 217.710185 
L 302.326743 233.881115 
L 302.41695 232.879348 
L 302.597364 243.89851 
L 302.867985 229.731113 
L 302.958191 232.378464 
L 303.048398 227.799115 
L 303.228812 212.129068 
L 303.409226 220.643813 
L 303.499433 220.429207 
L 303.679846 215.42051 
L 303.86026 212.129068 
L 304.040674 216.493811 
L 304.491708 186.22702 
L 304.672122 191.092511 
L 304.762329 190.80637 
L 305.03295 192.237348 
L 305.123156 191.020975 
L 305.213363 193.596928 
L 305.393777 204.544418 
L 305.574191 195.886603 
L 305.754605 199.893533 
L 305.935018 186.870974 
L 306.025225 192.952974 
L 306.205639 220.071395 
L 306.47626 224.00679 
L 306.566466 223.076695 
L 306.74688 219.570511 
L 306.837087 223.434371 
L 306.927294 223.14823 
L 307.107708 212.844557 
L 307.197915 217.352371 
L 307.288121 215.205904 
L 307.558742 205.045302 
L 307.648949 203.900464 
L 307.739156 205.403114 
L 308.099983 195.600325 
L 308.821638 231.162092 
L 308.911845 233.09409 
L 309.182466 213.488511 
L 309.36288 140.790928 
L 309.543293 137.070275 
L 309.904121 140.361717 
L 309.994328 138.787395 
L 310.084535 140.504787 
L 310.174741 144.440183 
L 310.355155 137.785628 
L 310.535569 151.237536 
L 310.715983 144.297112 
L 310.896396 151.023066 
L 311.167017 135.281484 
L 311.347431 144.154042 
L 311.618051 134.279717 
L 311.888672 139.145208 
L 311.978879 138.787395 
L 312.069086 137.857299 
L 312.159293 139.860833 
L 312.339706 152.096232 
L 312.52012 145.227208 
L 312.790741 150.092698 
L 312.880948 148.303907 
L 312.971155 143.867628 
L 313.061361 146.872928 
L 313.241775 158.321302 
L 313.331982 154.88679 
L 313.422189 156.818652 
L 313.602603 146.014232 
L 313.69281 149.234274 
L 313.873223 139.574692 
L 314.053637 149.305674 
L 314.143844 145.942833 
L 314.324258 150.951394 
L 314.504671 146.586787 
L 314.685085 147.659953 
L 314.775292 147.159069 
L 315.13612 151.023066 
L 315.226327 154.171437 
L 315.587154 145.513349 
L 315.677361 145.084137 
L 315.857775 136.712462 
L 315.947982 137.141674 
L 316.038188 139.789162 
L 316.218602 137.499487 
L 316.308809 138.715996 
L 316.489223 134.279717 
L 316.669637 147.946367 
L 316.85005 165.405068 
L 316.940257 164.689716 
L 317.030464 159.752553 
L 317.210878 165.047256 
L 317.301085 155.459345 
L 317.571705 187.801069 
L 317.661912 186.870974 
L 317.752119 184.151951 
L 317.932533 196.315951 
L 318.02274 192.309019 
L 318.112947 193.954604 
L 318.203153 191.66493 
L 318.383567 171.272326 
L 318.473774 170.771443 
L 318.563981 169.340464 
L 318.744395 172.918047 
L 319.015015 166.192093 
L 319.105222 167.05079 
L 319.285636 179.787343 
L 319.375843 176.138089 
L 319.556257 182.577765 
L 319.73667 174.062884 
L 319.917084 174.921581 
L 320.007291 178.427764 
L 320.097498 174.563767 
L 320.187705 163.687949 
L 320.277912 166.192093 
L 320.548532 190.591627 
L 320.728946 198.820231 
L 320.90936 190.233951 
L 321.450601 225.867253 
L 321.811428 201.181441 
L 321.901635 185.439859 
L 321.991842 186.441626 
L 322.082049 194.312417 
L 322.172256 192.952974 
L 322.35267 184.366557 
L 322.533083 159.895624 
L 322.62329 161.326602 
L 322.713497 163.97409 
L 322.803704 161.827486 
L 322.893911 163.473206 
L 323.074325 169.269065 
L 323.254738 163.902418 
L 323.435152 176.424231 
L 323.615566 171.987952 
L 323.79598 185.58293 
L 323.976393 177.78381 
L 324.427428 198.462555 
L 324.698048 182.219953 
L 324.788255 180.144884 
L 324.878462 181.933812 
L 324.968669 180.359626 
L 325.149083 162.113627 
L 325.23929 169.698277 
L 325.329497 167.766415 
L 325.419703 168.267298 
L 325.50991 138.787395 
L 325.600117 141.935766 
L 325.780531 128.55553 
L 325.960945 114.459669 
L 326.141358 122.401859 
L 326.411979 119.396558 
L 326.502186 121.543162 
L 326.863013 142.651391 
L 326.95322 142.57972 
L 327.043427 141.792695 
L 327.133634 144.225441 
L 327.314048 134.064975 
L 327.404255 138.715996 
L 327.494462 129.914837 
L 327.674875 107.16116 
L 327.855289 120.469997 
L 327.945496 116.820743 
L 328.035703 118.323392 
L 328.216117 125.764972 
L 328.306323 121.328693 
L 328.39653 122.401859 
L 328.576944 135.782367 
L 328.667151 134.923671 
L 328.757358 130.27265 
L 328.847565 130.773533 
L 329.298599 158.464373 
L 329.388806 157.248136 
L 329.930047 134.7806 
L 330.110461 117.536368 
L 330.200668 122.33046 
L 330.290875 121.972647 
L 330.381082 121.11395 
L 330.651702 142.651391 
L 330.741909 137.928971 
L 330.832116 138.501254 
L 330.922323 140.647858 
L 331.01253 139.789162 
L 331.102737 140.290045 
L 331.192943 139.145208 
L 331.643978 114.531068 
L 331.734185 114.531068 
L 331.914598 122.47353 
L 332.004805 122.831343 
L 332.275426 111.66911 
L 332.365633 112.813948 
L 332.45584 111.168227 
L 332.636254 115.675905 
L 332.72646 112.885347 
L 333.448115 144.511582 
L 333.538322 150.736925 
L 333.628529 58.07595 
L 333.718736 66.876837 
L 333.808943 65.6606 
L 333.989357 70.526091 
L 334.16977 58.147622 
L 334.350184 71.098646 
L 334.440391 70.812232 
L 334.530598 67.306321 
L 335.071839 139.431349 
L 335.162046 133.27795 
L 335.34246 128.55553 
L 335.522874 137.284745 
L 335.703287 129.342555 
L 335.883701 140.576186 
L 335.973908 135.639024 
L 336.154322 141.506554 
L 336.334735 128.197717 
L 336.605356 143.295346 
L 336.875977 152.382373 
L 336.966184 150.379112 
L 337.146597 135.567625 
L 337.327011 140.647858 
L 337.597632 130.201251 
L 337.778045 149.091204 
L 337.868252 147.373812 
L 337.958459 148.089437 
L 338.048666 146.515116 
L 338.22908 135.138413 
L 338.319287 137.642558 
L 338.409494 135.925438 
L 338.680114 156.747253 
L 338.770321 153.16967 
L 338.860528 153.813624 
L 339.131149 139.073809 
L 339.311562 130.129579 
L 339.67239 145.084137 
L 339.762597 154.600648 
L 339.852804 149.663486 
L 340.033217 136.569392 
L 340.123424 140.290045 
L 340.303838 129.986508 
L 340.394045 132.848466 
L 340.574459 140.075303 
L 340.664665 139.646091 
L 340.845079 136.211579 
L 341.1157 152.954928 
L 341.38632 137.141674 
L 341.656941 157.105066 
L 341.837355 235.812977 
L 341.927562 239.533766 
L 342.107975 258.423719 
L 342.288389 245.114883 
L 342.55901 257.350418 
L 342.649217 264.076371 
L 342.82963 295.488 
L 342.919837 294.844046 
L 343.010044 292.912184 
L 343.100251 294.772511 
L 343.190458 293.985486 
L 343.461079 281.320604 
L 343.731699 284.039626 
L 344.00232 272.948929 
L 344.27294 246.331255 
L 344.363147 247.404558 
L 344.543561 253.772834 
L 344.633768 249.837439 
L 344.904389 219.355905 
L 344.994595 217.424043 
L 345.084802 218.139533 
L 345.175009 220.071395 
L 345.355423 235.31223 
L 345.44563 232.593207 
L 345.626044 225.867253 
L 345.986871 217.638649 
L 346.077078 218.282603 
L 346.167285 220.715348 
L 346.257492 220.071395 
L 346.437905 223.362836 
L 346.528112 219.42744 
L 346.618319 224.221532 
L 346.88894 257.207347 
L 346.979147 259.497022 
L 347.15956 257.922836 
L 347.339974 259.711627 
L 347.430181 262.28758 
L 347.520388 260.498788 
L 347.700802 246.331255 
L 347.881215 252.842603 
L 348.061629 250.12358 
L 348.242043 237.387162 
L 348.422457 248.048511 
L 348.693077 222.933488 
L 348.783284 222.933488 
L 349.234319 250.052045 
L 349.414732 248.048511 
L 349.595146 249.551161 
L 349.77556 242.39586 
L 349.955974 145.227208 
L 350.136387 142.651391 
L 350.226594 148.59032 
L 350.316801 148.375578 
L 350.407008 148.232508 
L 350.497215 147.30214 
L 350.587422 145.012465 
L 350.677629 146.729857 
L 350.767836 152.167903 
L 350.948249 147.445483 
L 351.128663 158.321302 
L 351.309077 148.518649 
L 351.489491 164.403302 
L 351.760111 148.80479 
L 351.850318 149.878229 
L 352.030732 147.731624 
L 352.211146 151.81009 
L 352.391559 148.160836 
L 352.481766 149.878229 
L 352.66218 144.726324 
L 352.752387 146.729857 
L 352.932801 161.755814 
L 353.113214 155.673814 
L 353.293628 158.178232 
L 353.474042 156.747253 
L 353.564249 157.176465 
L 353.834869 171.057856 
L 353.925076 163.97409 
L 354.10549 174.349298 
L 354.195697 171.057856 
L 354.736938 146.658186 
L 354.827145 148.876462 
L 354.917352 148.518649 
L 355.007559 146.515116 
L 355.187972 149.949627 
L 355.278179 149.091204 
L 355.458593 158.321302 
L 355.639007 152.024833 
L 355.729214 157.677348 
L 355.819421 156.174698 
L 355.999834 146.9446 
L 356.090041 145.441949 
L 356.180248 138.572925 
L 356.270455 138.930465 
L 356.360662 141.649624 
L 356.450869 138.501254 
L 356.541076 139.288278 
L 356.631282 142.221907 
L 356.99211 129.127812 
L 357.082317 126.480325 
L 357.262731 151.023066 
L 357.443144 168.911252 
L 357.533351 166.120694 
L 357.623558 166.335164 
L 357.803972 179.715672 
L 357.894179 171.91628 
L 357.984386 145.012465 
L 358.074592 147.874695 
L 358.255006 155.530744 
L 358.345213 157.105066 
L 358.43542 165.548139 
L 358.525627 165.333669 
L 358.615834 157.462878 
L 358.796247 161.541345 
L 358.976661 146.014232 
L 359.157075 156.031627 
L 359.337489 147.946367 
L 359.427696 149.377345 
L 359.517902 153.312741 
L 359.698316 148.80479 
L 359.87873 158.035161 
L 359.968937 157.677348 
L 360.059144 154.600648 
L 360.419971 129.628696 
L 360.600385 123.904509 
L 360.780799 102.796552 
L 360.871006 104.728415 
L 360.961212 111.096555 
L 361.051419 110.810414 
L 361.141626 107.590371 
L 361.32204 114.173255 
L 361.412247 105.730181 
L 361.502454 106.588605 
L 361.773074 117.679439 
L 362.043695 124.047579 
L 362.133902 123.475297 
L 362.404522 108.305997 
L 362.494729 101.794786 
L 362.76535 122.831343 
L 362.855557 123.832837 
L 362.945764 128.126045 
L 363.126177 120.112184 
L 363.306591 132.061441 
L 363.396798 126.265855 
L 363.487005 130.129579 
L 363.667419 152.740186 
L 363.757626 152.668787 
L 363.938039 165.834553 
L 364.298867 187.801069 
L 364.389074 190.94944 
L 364.479281 189.375255 
L 365.020522 218.139533 
L 365.291142 209.624787 
L 365.471556 217.710185 
L 365.561763 216.064463 
L 365.742177 208.050602 
L 365.922591 217.495578 
L 366.012797 217.352371 
L 366.103004 183.722603 
L 366.193211 185.654601 
L 366.554039 169.984418 
L 366.734452 174.77851 
L 366.824659 173.06139 
L 367.005073 165.691209 
L 367.365901 174.277626 
L 367.546314 182.36316 
L 367.726728 180.574232 
L 367.907142 167.551673 
L 367.997349 170.843115 
L 368.087556 163.902418 
L 368.267969 144.368511 
L 368.448383 155.02986 
L 368.53859 148.303907 
L 368.628797 151.523949 
L 368.809211 162.185298 
L 368.899418 158.321302 
L 369.170038 167.766415 
L 369.350452 166.335164 
L 369.530866 169.984418 
L 369.621073 168.052556 
L 369.801486 177.139856 
L 369.891693 176.782043 
L 370.252521 172.202694 
L 370.523141 162.256698 
L 370.703555 154.67232 
L 370.793762 157.820418 
L 370.883969 157.176465 
L 370.974176 157.391207 
L 371.154589 164.403302 
L 371.335003 147.445483 
L 371.515417 158.106832 
L 371.605624 157.033394 
L 371.786038 158.249903 
L 372.237072 138.930465 
L 372.417486 147.373812 
L 372.778313 121.972647 
L 373.139141 104.585344 
L 373.319554 101.723114 
L 373.680382 118.466463 
L 373.860796 131.489159 
L 373.951003 132.061441 
L 374.131416 142.722791 
L 374.31183 183.937345 
L 374.402037 178.356092 
L 374.582451 183.007113 
L 374.762864 172.488835 
L 374.943278 182.577765 
L 375.123692 178.284694 
L 375.664933 224.221532 
L 375.75514 222.146463 
L 375.935554 213.560183 
L 376.025761 218.067997 
L 376.115968 217.280837 
L 376.296381 207.478183 
L 376.386588 214.991162 
L 376.476795 213.91786 
L 376.567002 206.476416 
L 376.747416 210.125535 
L 376.837623 204.472883 
L 377.018036 213.703253 
L 377.108243 210.912695 
L 377.19845 212.272138 
L 377.288657 215.706651 
L 377.378864 215.492045 
L 377.469071 217.78172 
L 377.559278 216.135999 
L 377.739691 205.403114 
L 377.920105 217.352371 
L 378.010312 217.853255 
L 378.190726 214.06093 
L 378.461346 227.083626 
L 378.551553 227.87065 
L 378.64176 225.867253 
L 378.822174 219.856788 
L 378.912381 219.355905 
L 379.002588 216.851488 
L 379.453622 228.800882 
L 379.814449 219.069628 
L 379.994863 209.266975 
L 380.08507 216.207534 
L 380.175277 215.205904 
L 380.265484 217.352371 
L 380.355691 224.937021 
L 380.445898 221.430974 
L 380.626311 209.48158 
L 380.716518 208.980697 
L 380.896932 205.403114 
L 381.257759 209.48158 
L 381.438173 204.258277 
L 381.618587 214.776556 
L 381.979414 192.380555 
L 382.159828 202.684091 
L 382.250035 201.825532 
L 382.340242 222.861953 
L 382.430449 222.504276 
L 382.701069 243.326091 
L 382.881483 236.886279 
L 382.97169 237.315627 
L 383.783552 292.769113 
L 383.873759 292.339765 
L 384.054173 283.037859 
L 384.144379 283.610278 
L 384.234586 289.477672 
L 384.324793 289.048324 
L 384.505207 283.109395 
L 384.595414 282.32237 
L 384.956241 266.938465 
L 385.136655 274.451579 
L 385.226862 270.87386 
L 385.497483 243.89851 
L 385.677896 240.17772 
L 385.85831 244.75707 
L 385.948517 249.121813 
L 386.038724 248.406324 
L 386.399551 238.889812 
L 386.489758 243.326091 
L 386.579965 242.467395 
L 386.670172 240.320927 
L 386.850586 243.183021 
L 387.031 238.675207 
L 387.121206 233.523302 
L 387.211413 236.31386 
L 387.482034 265.149673 
L 387.572241 267.296277 
L 387.933068 259.067674 
L 388.023275 260.140976 
L 388.113482 259.210744 
L 388.293896 246.760603 
L 388.564516 257.994371 
L 388.654723 256.706463 
L 388.835137 246.25972 
L 388.925344 250.338186 
L 389.015551 248.334789 
L 389.286171 228.085393 
L 389.646999 245.615766 
L 389.827413 253.915905 
L 389.91762 250.338186 
L 390.098033 254.130511 
L 390.368654 246.11665 
L 390.549068 146.085904 
L 391.090309 127.482092 
L 391.180516 127.982975 
L 391.36093 133.27795 
L 391.451136 132.061441 
L 391.63155 122.401859 
L 391.721757 122.044046 
L 391.902171 109.808648 
L 391.992378 115.103622 
L 392.082585 114.602739 
L 392.262998 99.218697 
L 392.443412 107.30423 
L 392.714033 95.641114 
L 392.80424 95.784185 
L 393.255274 75.463253 
L 393.345481 76.250278 
L 393.525895 97.85939 
L 393.886722 83.763529 
L 393.976929 82.761762 
L 394.157343 85.981532 
L 394.24755 86.697158 
L 394.427963 98.216931 
L 394.51817 94.567949 
L 394.698584 98.932556 
L 394.878998 96.929022 
L 395.149618 84.908366 
L 395.239825 82.69009 
L 395.330032 84.192741 
L 395.510446 97.85939 
L 395.600653 92.922228 
L 395.69086 96.141998 
L 395.781066 104.799813 
L 395.871273 101.937856 
L 395.96148 94.711019 
L 396.051687 95.641114 
L 396.141894 96.428139 
L 396.232101 93.208369 
L 396.502721 96.857624 
L 396.592928 103.798047 
L 396.683135 101.293902 
L 396.773342 92.922228 
L 396.953756 97.429906 
L 397.13417 87.198041 
L 397.224376 88.629019 
L 397.494997 84.407482 
L 397.585204 83.047903 
L 397.675411 87.698924 
L 398.036238 128.77 
L 398.216652 121.400092 
L 398.397066 130.057908 
L 398.487273 121.257021 
L 398.487273 121.257021 
" clip-path="url(#pf2efbc065f)" style="fill: none; stroke: #1f77b4; stroke-width: 1.5; stroke-linecap: square"/>
   </g>
   <g id="patch_3">
    <path d="M 57.6 307.584 
L 57.6 41.472 
" style="fill: none; stroke: #000000; stroke-width: 0.8; stroke-linejoin: miter; stroke-linecap: square"/>
   </g>
   <g id="patch_4">
    <path d="M 414.72 307.584 
L 414.72 41.472 
" style="fill: none; stroke: #000000; stroke-width: 0.8; stroke-linejoin: miter; stroke-linecap: square"/>
   </g>
   <g id="patch_5">
    <path d="M 57.6 307.584 
L 414.72 307.584 
" style="fill: none; stroke: #000000; stroke-width: 0.8; stroke-linejoin: miter; stroke-linecap: square"/>
   </g>
   <g id="patch_6">
    <path d="M 57.6 41.472 
L 414.72 41.472 
" style="fill: none; stroke: #000000; stroke-width: 0.8; stroke-linejoin: miter; stroke-linecap: square"/>
   </g>
   <g id="legend_1">
    <g id="patch_7">
     <path d="M 354.074688 64.150125 
L 407.72 64.150125 
Q 409.72 64.150125 409.72 62.150125 
L 409.72 48.472 
Q 409.72 46.472 407.72 46.472 
L 354.074688 46.472 
Q 352.074688 46.472 352.074688 48.472 
L 352.074688 62.150125 
Q 352.074688 64.150125 354.074688 64.150125 
z
" style="fill: #ffffff; opacity: 0.8; stroke: #cccccc; stroke-linejoin: miter"/>
    </g>
    <g id="line2d_15">
     <path d="M 356.074688 54.570438 
L 366.074688 54.570438 
L 376.074688 54.570438 
" style="fill: none; stroke: #1f77b4; stroke-width: 1.5; stroke-linecap: square"/>
    </g>
    <g id="text_14">
     <!-- set1 -->
     <g transform="translate(384.074688 58.070438)scale(0.1 -0.1)">
      <defs>
       <path id="DejaVuSans-73" d="M 2834 3397 
L 2834 2853 
Q 2591 2978 2328 3040 
Q 2066 3103 1784 3103 
Q 1356 3103 1142 2972 
Q 928 2841 928 2578 
Q 928 2378 1081 2264 
Q 1234 2150 1697 2047 
L 1894 2003 
Q 2506 1872 2764 1633 
Q 3022 1394 3022 966 
Q 3022 478 2636 193 
Q 2250 -91 1575 -91 
Q 1294 -91 989 -36 
Q 684 19 347 128 
L 347 722 
Q 666 556 975 473 
Q 1284 391 1588 391 
Q 1994 391 2212 530 
Q 2431 669 2431 922 
Q 2431 1156 2273 1281 
Q 2116 1406 1581 1522 
L 1381 1569 
Q 847 1681 609 1914 
Q 372 2147 372 2553 
Q 372 3047 722 3315 
Q 1072 3584 1716 3584 
Q 2034 3584 2315 3537 
Q 2597 3491 2834 3397 
z
" transform="scale(0.015625)"/>
       <path id="DejaVuSans-65" d="M 3597 1894 
L 3597 1613 
L 953 1613 
Q 991 1019 1311 708 
Q 1631 397 2203 397 
Q 2534 397 2845 478 
Q 3156 559 3463 722 
L 3463 178 
Q 3153 47 2828 -22 
Q 2503 -91 2169 -91 
Q 1331 -91 842 396 
Q 353 884 353 1716 
Q 353 2575 817 3079 
Q 1281 3584 2069 3584 
Q 2775 3584 3186 3129 
Q 3597 2675 3597 1894 
z
M 3022 2063 
Q 3016 2534 2758 2815 
Q 2500 3097 2075 3097 
Q 1594 3097 1305 2825 
Q 1016 2553 972 2059 
L 3022 2063 
z
" transform="scale(0.015625)"/>
       <path id="DejaVuSans-74" d="M 1172 4494 
L 1172 3500 
L 2356 3500 
L 2356 3053 
L 1172 3053 
L 1172 1153 
Q 1172 725 1289 603 
Q 1406 481 1766 481 
L 2356 481 
L 2356 0 
L 1766 0 
Q 1100 0 847 248 
Q 594 497 594 1153 
L 594 3053 
L 172 3053 
L 172 3500 
L 594 3500 
L 594 4494 
L 1172 4494 
z
" transform="scale(0.015625)"/>
      </defs>
      <use xlink:href="#DejaVuSans-73"/>
      <use xlink:href="#DejaVuSans-65" x="52.099609"/>
      <use xlink:href="#DejaVuSans-74" x="113.623047"/>
      <use xlink:href="#DejaVuSans-31" x="152.832031"/>
     </g>
    </g>
   </g>
  </g>
 </g>
 <defs>
  <clipPath id="pf2efbc065f">
   <rect x="57.6" y="41.472" width="357.12" height="266.112"/>
  </clipPath>
 </defs>
</svg>
