<?xml version="1.0" encoding="utf-8" standalone="no"?>
<!DOCTYPE svg PUBLIC "-//W3C//DTD SVG 1.1//EN"
  "http://www.w3.org/Graphics/SVG/1.1/DTD/svg11.dtd">
<svg xmlns:xlink="http://www.w3.org/1999/xlink" width="460.8pt" height="345.6pt" viewBox="0 0 460.8 345.6" xmlns="http://www.w3.org/2000/svg" version="1.1">
 <metadata>
  <rdf:RDF xmlns:dc="http://purl.org/dc/elements/1.1/" xmlns:cc="http://creativecommons.org/ns#" xmlns:rdf="http://www.w3.org/1999/02/22-rdf-syntax-ns#">
   <cc:Work>
    <dc:type rdf:resource="http://purl.org/dc/dcmitype/StillImage"/>
    <dc:date>2022-08-11T15:18:17.030787</dc:date>
    <dc:format>image/svg+xml</dc:format>
    <dc:creator>
     <cc:Agent>
      <dc:title>Matplotlib v3.5.2, https://matplotlib.org/</dc:title>
     </cc:Agent>
    </dc:creator>
   </cc:Work>
  </rdf:RDF>
 </metadata>
 <defs>
  <style type="text/css">*{stroke-linejoin: round; stroke-linecap: butt}</style>
 </defs>
 <g id="figure_1">
  <g id="patch_1">
   <path d="M 0 345.6 
L 460.8 345.6 
L 460.8 0 
L 0 0 
z
" style="fill: #ffffff"/>
  </g>
  <g id="axes_1">
   <g id="patch_2">
    <path d="M 57.6 307.584 
L 414.72 307.584 
L 414.72 41.472 
L 57.6 41.472 
z
" style="fill: #ffffff"/>
   </g>
   <g id="matplotlib.axis_1">
    <g id="xtick_1">
     <g id="line2d_1">
      <defs>
       <path id="mcb23aea2d2" d="M 0 0 
L 0 3.5 
" style="stroke: #000000; stroke-width: 0.8"/>
      </defs>
      <g>
       <use xlink:href="#mcb23aea2d2" x="73.832727" y="307.584" style="stroke: #000000; stroke-width: 0.8"/>
      </g>
     </g>
     <g id="text_1">
      <!-- 0 -->
      <g transform="translate(70.651477 322.182437)scale(0.1 -0.1)">
       <defs>
        <path id="DejaVuSans-30" d="M 2034 4250 
Q 1547 4250 1301 3770 
Q 1056 3291 1056 2328 
Q 1056 1369 1301 889 
Q 1547 409 2034 409 
Q 2525 409 2770 889 
Q 3016 1369 3016 2328 
Q 3016 3291 2770 3770 
Q 2525 4250 2034 4250 
z
M 2034 4750 
Q 2819 4750 3233 4129 
Q 3647 3509 3647 2328 
Q 3647 1150 3233 529 
Q 2819 -91 2034 -91 
Q 1250 -91 836 529 
Q 422 1150 422 2328 
Q 422 3509 836 4129 
Q 1250 4750 2034 4750 
z
" transform="scale(0.015625)"/>
       </defs>
       <use xlink:href="#DejaVuSans-30"/>
      </g>
     </g>
    </g>
    <g id="xtick_2">
     <g id="line2d_2">
      <g>
       <use xlink:href="#mcb23aea2d2" x="118.936165" y="307.584" style="stroke: #000000; stroke-width: 0.8"/>
      </g>
     </g>
     <g id="text_2">
      <!-- 500 -->
      <g transform="translate(109.392415 322.182437)scale(0.1 -0.1)">
       <defs>
        <path id="DejaVuSans-35" d="M 691 4666 
L 3169 4666 
L 3169 4134 
L 1269 4134 
L 1269 2991 
Q 1406 3038 1543 3061 
Q 1681 3084 1819 3084 
Q 2600 3084 3056 2656 
Q 3513 2228 3513 1497 
Q 3513 744 3044 326 
Q 2575 -91 1722 -91 
Q 1428 -91 1123 -41 
Q 819 9 494 109 
L 494 744 
Q 775 591 1075 516 
Q 1375 441 1709 441 
Q 2250 441 2565 725 
Q 2881 1009 2881 1497 
Q 2881 1984 2565 2268 
Q 2250 2553 1709 2553 
Q 1456 2553 1204 2497 
Q 953 2441 691 2322 
L 691 4666 
z
" transform="scale(0.015625)"/>
       </defs>
       <use xlink:href="#DejaVuSans-35"/>
       <use xlink:href="#DejaVuSans-30" x="63.623047"/>
       <use xlink:href="#DejaVuSans-30" x="127.246094"/>
      </g>
     </g>
    </g>
    <g id="xtick_3">
     <g id="line2d_3">
      <g>
       <use xlink:href="#mcb23aea2d2" x="164.039603" y="307.584" style="stroke: #000000; stroke-width: 0.8"/>
      </g>
     </g>
     <g id="text_3">
      <!-- 1000 -->
      <g transform="translate(151.314603 322.182437)scale(0.1 -0.1)">
       <defs>
        <path id="DejaVuSans-31" d="M 794 531 
L 1825 531 
L 1825 4091 
L 703 3866 
L 703 4441 
L 1819 4666 
L 2450 4666 
L 2450 531 
L 3481 531 
L 3481 0 
L 794 0 
L 794 531 
z
" transform="scale(0.015625)"/>
       </defs>
       <use xlink:href="#DejaVuSans-31"/>
       <use xlink:href="#DejaVuSans-30" x="63.623047"/>
       <use xlink:href="#DejaVuSans-30" x="127.246094"/>
       <use xlink:href="#DejaVuSans-30" x="190.869141"/>
      </g>
     </g>
    </g>
    <g id="xtick_4">
     <g id="line2d_4">
      <g>
       <use xlink:href="#mcb23aea2d2" x="209.143041" y="307.584" style="stroke: #000000; stroke-width: 0.8"/>
      </g>
     </g>
     <g id="text_4">
      <!-- 1500 -->
      <g transform="translate(196.418041 322.182437)scale(0.1 -0.1)">
       <use xlink:href="#DejaVuSans-31"/>
       <use xlink:href="#DejaVuSans-35" x="63.623047"/>
       <use xlink:href="#DejaVuSans-30" x="127.246094"/>
       <use xlink:href="#DejaVuSans-30" x="190.869141"/>
      </g>
     </g>
    </g>
    <g id="xtick_5">
     <g id="line2d_5">
      <g>
       <use xlink:href="#mcb23aea2d2" x="254.246479" y="307.584" style="stroke: #000000; stroke-width: 0.8"/>
      </g>
     </g>
     <g id="text_5">
      <!-- 2000 -->
      <g transform="translate(241.521479 322.182437)scale(0.1 -0.1)">
       <defs>
        <path id="DejaVuSans-32" d="M 1228 531 
L 3431 531 
L 3431 0 
L 469 0 
L 469 531 
Q 828 903 1448 1529 
Q 2069 2156 2228 2338 
Q 2531 2678 2651 2914 
Q 2772 3150 2772 3378 
Q 2772 3750 2511 3984 
Q 2250 4219 1831 4219 
Q 1534 4219 1204 4116 
Q 875 4013 500 3803 
L 500 4441 
Q 881 4594 1212 4672 
Q 1544 4750 1819 4750 
Q 2544 4750 2975 4387 
Q 3406 4025 3406 3419 
Q 3406 3131 3298 2873 
Q 3191 2616 2906 2266 
Q 2828 2175 2409 1742 
Q 1991 1309 1228 531 
z
" transform="scale(0.015625)"/>
       </defs>
       <use xlink:href="#DejaVuSans-32"/>
       <use xlink:href="#DejaVuSans-30" x="63.623047"/>
       <use xlink:href="#DejaVuSans-30" x="127.246094"/>
       <use xlink:href="#DejaVuSans-30" x="190.869141"/>
      </g>
     </g>
    </g>
    <g id="xtick_6">
     <g id="line2d_6">
      <g>
       <use xlink:href="#mcb23aea2d2" x="299.349916" y="307.584" style="stroke: #000000; stroke-width: 0.8"/>
      </g>
     </g>
     <g id="text_6">
      <!-- 2500 -->
      <g transform="translate(286.624916 322.182437)scale(0.1 -0.1)">
       <use xlink:href="#DejaVuSans-32"/>
       <use xlink:href="#DejaVuSans-35" x="63.623047"/>
       <use xlink:href="#DejaVuSans-30" x="127.246094"/>
       <use xlink:href="#DejaVuSans-30" x="190.869141"/>
      </g>
     </g>
    </g>
    <g id="xtick_7">
     <g id="line2d_7">
      <g>
       <use xlink:href="#mcb23aea2d2" x="344.453354" y="307.584" style="stroke: #000000; stroke-width: 0.8"/>
      </g>
     </g>
     <g id="text_7">
      <!-- 3000 -->
      <g transform="translate(331.728354 322.182437)scale(0.1 -0.1)">
       <defs>
        <path id="DejaVuSans-33" d="M 2597 2516 
Q 3050 2419 3304 2112 
Q 3559 1806 3559 1356 
Q 3559 666 3084 287 
Q 2609 -91 1734 -91 
Q 1441 -91 1130 -33 
Q 819 25 488 141 
L 488 750 
Q 750 597 1062 519 
Q 1375 441 1716 441 
Q 2309 441 2620 675 
Q 2931 909 2931 1356 
Q 2931 1769 2642 2001 
Q 2353 2234 1838 2234 
L 1294 2234 
L 1294 2753 
L 1863 2753 
Q 2328 2753 2575 2939 
Q 2822 3125 2822 3475 
Q 2822 3834 2567 4026 
Q 2313 4219 1838 4219 
Q 1578 4219 1281 4162 
Q 984 4106 628 3988 
L 628 4550 
Q 988 4650 1302 4700 
Q 1616 4750 1894 4750 
Q 2613 4750 3031 4423 
Q 3450 4097 3450 3541 
Q 3450 3153 3228 2886 
Q 3006 2619 2597 2516 
z
" transform="scale(0.015625)"/>
       </defs>
       <use xlink:href="#DejaVuSans-33"/>
       <use xlink:href="#DejaVuSans-30" x="63.623047"/>
       <use xlink:href="#DejaVuSans-30" x="127.246094"/>
       <use xlink:href="#DejaVuSans-30" x="190.869141"/>
      </g>
     </g>
    </g>
    <g id="xtick_8">
     <g id="line2d_8">
      <g>
       <use xlink:href="#mcb23aea2d2" x="389.556792" y="307.584" style="stroke: #000000; stroke-width: 0.8"/>
      </g>
     </g>
     <g id="text_8">
      <!-- 3500 -->
      <g transform="translate(376.831792 322.182437)scale(0.1 -0.1)">
       <use xlink:href="#DejaVuSans-33"/>
       <use xlink:href="#DejaVuSans-35" x="63.623047"/>
       <use xlink:href="#DejaVuSans-30" x="127.246094"/>
       <use xlink:href="#DejaVuSans-30" x="190.869141"/>
      </g>
     </g>
    </g>
   </g>
   <g id="matplotlib.axis_2">
    <g id="ytick_1">
     <g id="line2d_9">
      <defs>
       <path id="m27ecdc6fa5" d="M 0 0 
L -3.5 0 
" style="stroke: #000000; stroke-width: 0.8"/>
      </defs>
      <g>
       <use xlink:href="#m27ecdc6fa5" x="57.6" y="296.6128" style="stroke: #000000; stroke-width: 0.8"/>
      </g>
     </g>
     <g id="text_9">
      <!-- 3400 -->
      <g transform="translate(25.15 300.412019)scale(0.1 -0.1)">
       <defs>
        <path id="DejaVuSans-34" d="M 2419 4116 
L 825 1625 
L 2419 1625 
L 2419 4116 
z
M 2253 4666 
L 3047 4666 
L 3047 1625 
L 3713 1625 
L 3713 1100 
L 3047 1100 
L 3047 0 
L 2419 0 
L 2419 1100 
L 313 1100 
L 313 1709 
L 2253 4666 
z
" transform="scale(0.015625)"/>
       </defs>
       <use xlink:href="#DejaVuSans-33"/>
       <use xlink:href="#DejaVuSans-34" x="63.623047"/>
       <use xlink:href="#DejaVuSans-30" x="127.246094"/>
       <use xlink:href="#DejaVuSans-30" x="190.869141"/>
      </g>
     </g>
    </g>
    <g id="ytick_2">
     <g id="line2d_10">
      <g>
       <use xlink:href="#m27ecdc6fa5" x="57.6" y="249.189424" style="stroke: #000000; stroke-width: 0.8"/>
      </g>
     </g>
     <g id="text_10">
      <!-- 3600 -->
      <g transform="translate(25.15 252.988643)scale(0.1 -0.1)">
       <defs>
        <path id="DejaVuSans-36" d="M 2113 2584 
Q 1688 2584 1439 2293 
Q 1191 2003 1191 1497 
Q 1191 994 1439 701 
Q 1688 409 2113 409 
Q 2538 409 2786 701 
Q 3034 994 3034 1497 
Q 3034 2003 2786 2293 
Q 2538 2584 2113 2584 
z
M 3366 4563 
L 3366 3988 
Q 3128 4100 2886 4159 
Q 2644 4219 2406 4219 
Q 1781 4219 1451 3797 
Q 1122 3375 1075 2522 
Q 1259 2794 1537 2939 
Q 1816 3084 2150 3084 
Q 2853 3084 3261 2657 
Q 3669 2231 3669 1497 
Q 3669 778 3244 343 
Q 2819 -91 2113 -91 
Q 1303 -91 875 529 
Q 447 1150 447 2328 
Q 447 3434 972 4092 
Q 1497 4750 2381 4750 
Q 2619 4750 2861 4703 
Q 3103 4656 3366 4563 
z
" transform="scale(0.015625)"/>
       </defs>
       <use xlink:href="#DejaVuSans-33"/>
       <use xlink:href="#DejaVuSans-36" x="63.623047"/>
       <use xlink:href="#DejaVuSans-30" x="127.246094"/>
       <use xlink:href="#DejaVuSans-30" x="190.869141"/>
      </g>
     </g>
    </g>
    <g id="ytick_3">
     <g id="line2d_11">
      <g>
       <use xlink:href="#m27ecdc6fa5" x="57.6" y="201.766049" style="stroke: #000000; stroke-width: 0.8"/>
      </g>
     </g>
     <g id="text_11">
      <!-- 3800 -->
      <g transform="translate(25.15 205.565268)scale(0.1 -0.1)">
       <defs>
        <path id="DejaVuSans-38" d="M 2034 2216 
Q 1584 2216 1326 1975 
Q 1069 1734 1069 1313 
Q 1069 891 1326 650 
Q 1584 409 2034 409 
Q 2484 409 2743 651 
Q 3003 894 3003 1313 
Q 3003 1734 2745 1975 
Q 2488 2216 2034 2216 
z
M 1403 2484 
Q 997 2584 770 2862 
Q 544 3141 544 3541 
Q 544 4100 942 4425 
Q 1341 4750 2034 4750 
Q 2731 4750 3128 4425 
Q 3525 4100 3525 3541 
Q 3525 3141 3298 2862 
Q 3072 2584 2669 2484 
Q 3125 2378 3379 2068 
Q 3634 1759 3634 1313 
Q 3634 634 3220 271 
Q 2806 -91 2034 -91 
Q 1263 -91 848 271 
Q 434 634 434 1313 
Q 434 1759 690 2068 
Q 947 2378 1403 2484 
z
M 1172 3481 
Q 1172 3119 1398 2916 
Q 1625 2713 2034 2713 
Q 2441 2713 2670 2916 
Q 2900 3119 2900 3481 
Q 2900 3844 2670 4047 
Q 2441 4250 2034 4250 
Q 1625 4250 1398 4047 
Q 1172 3844 1172 3481 
z
" transform="scale(0.015625)"/>
       </defs>
       <use xlink:href="#DejaVuSans-33"/>
       <use xlink:href="#DejaVuSans-38" x="63.623047"/>
       <use xlink:href="#DejaVuSans-30" x="127.246094"/>
       <use xlink:href="#DejaVuSans-30" x="190.869141"/>
      </g>
     </g>
    </g>
    <g id="ytick_4">
     <g id="line2d_12">
      <g>
       <use xlink:href="#m27ecdc6fa5" x="57.6" y="154.342673" style="stroke: #000000; stroke-width: 0.8"/>
      </g>
     </g>
     <g id="text_12">
      <!-- 4000 -->
      <g transform="translate(25.15 158.141892)scale(0.1 -0.1)">
       <use xlink:href="#DejaVuSans-34"/>
       <use xlink:href="#DejaVuSans-30" x="63.623047"/>
       <use xlink:href="#DejaVuSans-30" x="127.246094"/>
       <use xlink:href="#DejaVuSans-30" x="190.869141"/>
      </g>
     </g>
    </g>
    <g id="ytick_5">
     <g id="line2d_13">
      <g>
       <use xlink:href="#m27ecdc6fa5" x="57.6" y="106.919298" style="stroke: #000000; stroke-width: 0.8"/>
      </g>
     </g>
     <g id="text_13">
      <!-- 4200 -->
      <g transform="translate(25.15 110.718516)scale(0.1 -0.1)">
       <use xlink:href="#DejaVuSans-34"/>
       <use xlink:href="#DejaVuSans-32" x="63.623047"/>
       <use xlink:href="#DejaVuSans-30" x="127.246094"/>
       <use xlink:href="#DejaVuSans-30" x="190.869141"/>
      </g>
     </g>
    </g>
    <g id="ytick_6">
     <g id="line2d_14">
      <g>
       <use xlink:href="#m27ecdc6fa5" x="57.6" y="59.495922" style="stroke: #000000; stroke-width: 0.8"/>
      </g>
     </g>
     <g id="text_14">
      <!-- 4400 -->
      <g transform="translate(25.15 63.295141)scale(0.1 -0.1)">
       <use xlink:href="#DejaVuSans-34"/>
       <use xlink:href="#DejaVuSans-34" x="63.623047"/>
       <use xlink:href="#DejaVuSans-30" x="127.246094"/>
       <use xlink:href="#DejaVuSans-30" x="190.869141"/>
      </g>
     </g>
    </g>
   </g>
   <g id="line2d_15">
    <path d="M 73.832727 121.389563 
L 74.013141 122.119091 
L 74.193555 126.162235 
L 74.373969 124.155888 
L 74.554382 125.523826 
L 74.644589 125.280688 
L 74.825003 128.047013 
L 75.005417 127.560623 
L 75.095624 128.563854 
L 75.18583 127.83421 
L 75.366244 125.250238 
L 75.546658 127.165467 
L 75.727072 128.50307 
L 75.907485 127.499838 
L 75.997692 127.469388 
L 76.087899 127.742976 
L 76.178106 127.226251 
L 76.35852 124.45981 
L 76.538934 125.463041 
L 76.719347 125.371807 
L 76.989968 124.551045 
L 77.080175 124.186223 
L 77.170382 124.368692 
L 77.350795 123.730282 
L 77.531209 125.250238 
L 77.711623 123.699832 
L 77.80183 124.247123 
L 77.892037 124.095104 
L 77.982244 123.517479 
L 78.07245 123.639048 
L 78.433278 124.45981 
L 78.613692 124.946317 
L 78.703899 124.733513 
L 78.884312 123.304676 
L 78.974519 123.699832 
L 79.064726 123.335126 
L 79.24514 121.450348 
L 79.51576 125.463041 
L 79.605967 124.399026 
L 79.786381 125.189454 
L 79.966795 124.703063 
L 80.147209 124.703063 
L 80.237415 125.007101 
L 80.327622 124.915867 
L 80.417829 125.311023 
L 80.508036 124.733513 
L 81.139484 112.20881 
L 81.229691 112.421613 
L 81.590519 114.610429 
L 81.680725 114.610429 
L 81.861139 119.018395 
L 82.041553 130.783004 
L 82.221967 129.050245 
L 82.40238 129.56697 
L 82.673001 128.351051 
L 82.853415 129.323832 
L 82.943622 128.898226 
L 83.394656 129.627754 
L 83.57507 128.98946 
L 83.665277 129.171813 
L 83.84569 128.776657 
L 84.116311 129.080579 
L 84.206518 129.718989 
L 84.296725 129.475851 
L 84.477139 128.646289 
L 85.01838 127.499838 
L 85.198794 128.898226 
L 85.379207 128.776657 
L 85.559621 128.898226 
L 85.740035 128.685423 
L 85.830242 129.019795 
L 86.010655 127.499838 
L 86.100862 127.894995 
L 86.281276 129.232598 
L 86.371483 128.320601 
L 86.551897 124.915867 
L 86.73231 125.402257 
L 87.002931 121.085526 
L 87.183345 122.24066 
L 87.453965 121.14631 
L 87.634379 119.048729 
L 87.724586 119.048729 
L 87.814793 118.592788 
L 87.995207 116.981598 
L 88.085414 117.376754 
L 88.175621 117.133616 
L 88.626655 118.258301 
L 88.716862 116.616776 
L 88.897276 109.807307 
L 88.987482 109.837641 
L 89.167896 107.071316 
L 89.438517 109.98966 
L 89.618931 110.384816 
L 89.709137 109.837641 
L 89.799344 109.898426 
L 89.889551 110.354482 
L 89.979758 110.324032 
L 90.160172 126.952664 
L 90.250379 127.499838 
L 90.520999 124.672613 
L 90.611206 125.007101 
L 90.701413 125.09822 
L 90.881827 124.703063 
L 91.242654 126.071001 
L 91.332861 125.645395 
L 91.513275 128.715757 
L 91.693689 125.736629 
L 91.964309 128.44217 
L 92.054516 128.837442 
L 92.23493 127.773426 
L 92.325137 127.894995 
L 92.505551 128.654973 
L 92.685964 126.344588 
L 92.776171 126.648626 
L 92.866378 126.587841 
L 93.136999 125.888648 
L 93.227206 125.919098 
L 93.317412 125.797413 
L 93.407619 125.007101 
L 93.497826 125.189454 
L 93.588033 125.341473 
L 93.67824 125.159004 
L 93.858654 125.250238 
L 94.219481 125.189454 
L 94.309688 125.432707 
L 94.399895 125.159004 
L 94.490102 124.52071 
L 94.580309 124.703063 
L 94.670516 125.371807 
L 94.850929 124.00387 
L 94.941136 124.247123 
L 95.12155 125.371807 
L 95.301964 124.277457 
L 95.392171 125.159004 
L 95.482377 125.067885 
L 95.662791 121.875954 
L 95.843205 123.608714 
L 95.933412 123.304676 
L 96.113826 124.064654 
L 96.204032 123.36546 
L 96.294239 123.39591 
L 96.474653 124.49026 
L 96.56486 124.186223 
L 96.655067 124.399026 
L 96.745274 125.007101 
L 96.925687 123.97342 
L 97.106101 124.794298 
L 97.196308 124.307907 
L 97.286515 124.551045 
L 97.376722 125.219904 
L 97.557136 124.247123 
L 97.647342 125.432707 
L 97.827756 123.639048 
L 98.00817 124.915867 
L 98.098377 124.703063 
L 98.278791 127.439054 
L 98.459204 128.199032 
L 98.639618 125.09822 
L 98.820032 126.770195 
L 98.910239 125.645395 
L 99.090652 128.381385 
L 99.271066 124.915867 
L 99.541687 127.803876 
L 99.631894 127.682192 
L 99.722101 127.439054 
L 99.812307 128.259817 
L 99.902514 128.229366 
L 100.173135 126.922213 
L 100.353549 125.280688 
L 100.443756 125.12867 
L 100.533962 125.219904 
L 100.714376 126.496607 
L 100.804583 125.979882 
L 100.89479 126.131901 
L 101.075204 124.611829 
L 101.165411 125.219904 
L 101.255617 126.192685 
L 101.436031 124.49026 
L 101.616445 125.189454 
L 101.796859 124.763848 
L 101.977272 125.554276 
L 102.157686 125.007101 
L 102.247893 125.159004 
L 102.428307 123.97342 
L 102.518514 124.45981 
L 102.608721 124.064654 
L 102.789134 121.997523 
L 102.969548 124.551045 
L 103.240169 122.210326 
L 103.330376 121.997523 
L 103.420582 122.301445 
L 103.510789 122.210326 
L 103.691203 121.298329 
L 103.871617 122.392679 
L 104.052031 121.602251 
L 104.322651 121.906288 
L 104.503065 123.426244 
L 104.593272 121.906288 
L 104.683479 122.119091 
L 104.773686 124.672613 
L 104.863892 124.155888 
L 104.954099 121.78472 
L 105.134513 125.007101 
L 105.22472 124.155888 
L 105.314927 123.547929 
L 105.405134 124.855082 
L 105.495341 124.45981 
L 105.675754 121.78472 
L 105.765961 122.27111 
L 105.856168 121.75427 
L 106.036582 119.930276 
L 106.216996 121.875954 
L 106.397409 126.131901 
L 106.487616 124.672613 
L 106.577823 124.824632 
L 107.119064 129.019795 
L 107.389685 128.016563 
L 107.479892 128.168582 
L 107.750513 127.37827 
L 107.930926 126.283804 
L 108.021133 125.979882 
L 108.11134 126.101451 
L 108.381961 129.171813 
L 108.472168 128.867776 
L 108.652581 127.104682 
L 108.742788 128.259817 
L 108.832995 128.077463 
L 108.923202 127.013448 
L 109.103616 128.290267 
L 109.193823 127.742976 
L 109.284029 128.016563 
L 109.374236 128.685423 
L 109.464443 128.563854 
L 109.644857 128.98946 
L 109.825271 128.594188 
L 110.005684 128.92856 
L 110.095891 129.323832 
L 110.276305 128.98946 
L 110.366512 130.114145 
L 110.456719 129.992576 
L 110.546926 129.080579 
L 110.727339 132.242176 
L 110.817546 132.090157 
L 110.907753 130.874239 
L 110.99796 131.846962 
L 111.268581 153.065912 
L 111.539201 284.726564 
L 111.629408 278.950661 
L 111.809822 295.488 
L 111.990236 292.022481 
L 112.080443 293.603222 
L 112.260856 289.28649 
L 112.351063 289.529686 
L 112.44127 288.404886 
L 112.711891 279.285033 
L 112.892304 274.360284 
L 112.982511 261.37964 
L 113.433546 145.557192 
L 113.974787 102.480998 
L 114.064994 100.535435 
L 114.335614 106.980082 
L 114.516028 121.602251 
L 114.606235 121.267879 
L 114.696442 121.359113 
L 114.876856 125.463041 
L 114.967063 124.186223 
L 115.147476 125.645395 
L 115.237683 124.611829 
L 115.32789 125.432707 
L 115.508304 130.205379 
L 115.598511 129.992576 
L 115.778924 132.637332 
L 115.959338 128.290267 
L 116.049545 128.594188 
L 116.139752 129.627754 
L 116.229959 129.475851 
L 116.320166 129.263048 
L 116.410373 129.414951 
L 116.500579 128.98946 
L 116.680993 130.235829 
L 117.041821 126.952664 
L 117.132028 127.560623 
L 117.222234 129.506185 
L 117.402648 125.402257 
L 117.492855 125.706295 
L 117.583062 125.09822 
L 117.763476 122.027857 
L 117.853683 122.058307 
L 117.943889 121.267879 
L 118.124303 123.639048 
L 118.304717 121.693485 
L 118.394924 122.24066 
L 118.575338 120.386332 
L 118.665544 120.69037 
L 118.845958 121.997523 
L 119.026372 122.027857 
L 119.206786 121.845504 
L 119.387199 121.389563 
L 119.567613 122.331895 
L 119.65782 121.693485 
L 119.748027 121.75427 
L 119.838234 121.359113 
L 119.928441 121.389563 
L 120.108854 125.858198 
L 120.289268 123.517479 
L 120.469682 124.794298 
L 120.650096 122.088641 
L 120.830509 122.453463 
L 120.920716 121.936738 
L 121.010923 122.210326 
L 121.281544 117.559107 
L 121.732578 105.064969 
L 121.822785 104.700147 
L 122.003199 106.432907 
L 122.093406 106.949748 
L 122.454233 115.157604 
L 122.54444 132.242176 
L 122.634647 130.904573 
L 122.815061 128.776657 
L 122.905268 128.95901 
L 122.995475 128.837442 
L 123.175888 126.344588 
L 123.356302 128.806992 
L 123.536716 127.591073 
L 123.71713 127.469388 
L 123.897543 129.779773 
L 123.98775 129.141363 
L 124.077957 127.560623 
L 124.168164 127.894995 
L 124.258371 128.259817 
L 124.438785 125.371807 
L 124.528991 126.800645 
L 124.619198 126.283804 
L 124.709405 126.496607 
L 124.799612 128.837442 
L 125.070233 125.741029 
L 125.611474 125.037435 
L 125.791888 128.624638 
L 125.882095 128.806992 
L 125.972301 129.475851 
L 126.062508 129.323832 
L 126.242922 127.591073 
L 126.333129 128.138248 
L 126.60375 125.159004 
L 126.87437 126.162235 
L 126.964577 126.040667 
L 127.235198 121.815054 
L 127.325405 120.69037 
L 127.505818 116.647226 
L 127.596025 116.373523 
L 127.776439 118.045498 
L 127.866646 117.680792 
L 127.956853 118.015163 
L 128.04706 117.923929 
L 128.227473 114.944801 
L 128.31768 115.491976 
L 128.407887 115.005585 
L 128.678508 111.11446 
L 128.768715 110.324032 
L 129.129542 112.87767 
L 129.219749 113.515963 
L 129.670783 99.866576 
L 129.76099 98.437854 
L 129.851197 98.680991 
L 130.212025 102.845704 
L 130.392438 102.632901 
L 130.482645 102.024941 
L 130.572852 102.511332 
L 130.753266 128.594188 
L 130.843473 128.320601 
L 131.2043 125.007101 
L 131.474921 125.554276 
L 131.565128 125.09822 
L 131.655335 125.280688 
L 131.835748 128.411835 
L 131.925955 127.742976 
L 132.016162 128.107798 
L 132.106369 129.718989 
L 132.196576 129.627754 
L 132.37699 128.259817 
L 132.557403 130.418182 
L 132.64761 130.326948 
L 132.828024 129.56697 
L 132.918231 130.023026 
L 133.008438 131.573317 
L 133.098645 131.512532 
L 133.188851 129.475851 
L 133.279058 129.901342 
L 133.369265 131.634159 
L 133.549679 128.806992 
L 133.639886 129.506185 
L 133.730093 129.384617 
L 133.8203 129.414951 
L 133.910506 129.931792 
L 134.181127 128.411835 
L 134.271334 128.867776 
L 134.451748 131.938196 
L 134.541955 130.813338 
L 134.632161 131.512532 
L 134.812575 133.154173 
L 135.083196 128.92856 
L 135.26361 131.086926 
L 135.444023 129.779773 
L 135.624437 131.786178 
L 135.804851 129.080579 
L 135.985265 132.698175 
L 136.165678 128.654973 
L 136.436299 130.175045 
L 136.616713 131.512532 
L 136.797126 130.357398 
L 137.067747 133.032546 
L 137.157954 132.272568 
L 137.248161 132.394137 
L 137.338368 133.275742 
L 137.428575 133.24535 
L 137.518781 132.485371 
L 137.608988 132.576548 
L 137.699195 133.154173 
L 137.789402 133.123781 
L 137.969816 132.637332 
L 138.060023 132.60694 
L 138.240436 134.187739 
L 138.42085 131.907746 
L 138.511057 132.211784 
L 138.601264 132.029373 
L 138.691471 132.211784 
L 138.871885 125.675845 
L 138.962091 126.162235 
L 139.052298 127.317485 
L 139.232712 123.882301 
L 139.322919 124.125438 
L 139.413126 125.402257 
L 139.503333 125.371807 
L 139.683746 126.73986 
L 139.86416 125.280688 
L 139.954367 125.919098 
L 140.044574 125.736629 
L 140.134781 125.280688 
L 140.315195 128.047013 
L 140.405402 127.591073 
L 140.495608 125.463041 
L 140.676022 127.439054 
L 141.03685 122.119091 
L 141.30747 125.493492 
L 141.397677 126.010216 
L 141.487884 125.341473 
L 141.668298 121.845504 
L 141.848712 125.432707 
L 142.029125 121.78472 
L 142.119332 122.392679 
L 142.209539 122.119091 
L 142.299746 122.362345 
L 142.48016 124.155888 
L 142.570367 123.517479 
L 142.660573 123.639048 
L 142.840987 123.335126 
L 142.931194 123.456695 
L 143.111608 121.389563 
L 143.201815 121.997523 
L 143.382228 121.024742 
L 143.562642 122.27111 
L 143.743056 121.541466 
L 143.833263 121.632701 
L 143.92347 121.207095 
L 144.013677 121.75427 
L 144.103883 121.663151 
L 144.19409 119.474335 
L 144.284297 119.504785 
L 144.464711 121.845504 
L 144.645125 120.05196 
L 144.735332 120.295098 
L 145.005952 121.815054 
L 145.096159 121.845504 
L 145.186366 121.997523 
L 145.276573 121.815054 
L 145.36678 122.149542 
L 145.456987 122.088641 
L 145.547193 121.11586 
L 145.6374 121.511132 
L 145.727607 122.666266 
L 145.817814 122.27111 
L 145.908021 122.544698 
L 145.998228 123.456695 
L 146.178642 121.450348 
L 146.268848 121.75427 
L 146.359055 122.362345 
L 146.449262 121.571917 
L 146.629676 119.170298 
L 146.81009 122.423129 
L 147.170917 120.203979 
L 147.351331 122.058307 
L 147.441538 121.419898 
L 147.712158 126.162235 
L 147.982779 124.429476 
L 148.072986 124.551045 
L 148.163193 124.52071 
L 148.343607 123.912635 
L 148.52402 123.152657 
L 148.704434 121.997523 
L 148.975055 125.767079 
L 149.155468 121.237545 
L 149.245675 121.450348 
L 149.335882 122.575148 
L 149.426089 121.997523 
L 149.516296 122.210326 
L 149.877123 124.368692 
L 150.057537 123.791067 
L 150.237951 124.277457 
L 150.328158 123.912635 
L 150.418365 122.666266 
L 150.598778 125.432707 
L 150.688985 125.280688 
L 150.869399 125.09822 
L 151.049813 127.621407 
L 151.14002 127.408604 
L 151.230227 127.013448 
L 151.41064 129.475851 
L 151.500847 127.742976 
L 151.591054 128.624638 
L 151.771468 133.214957 
L 151.861675 135.008501 
L 152.042088 164.98254 
L 152.132295 160.148969 
L 152.312709 146.134759 
L 152.402916 148.992318 
L 152.493123 147.563539 
L 152.58333 148.56677 
L 152.763743 153.278715 
L 152.85395 153.00507 
L 153.034364 158.446601 
L 153.124571 156.440254 
L 153.214778 157.899426 
L 153.395192 162.124981 
L 153.485398 162.368176 
L 153.575605 165.012933 
L 153.665812 164.98254 
L 154.02664 148.992318 
L 154.116847 148.627554 
L 154.29726 145.739603 
L 154.748295 154.92024 
L 154.928708 161.760159 
L 155.018915 110.050444 
L 155.109122 112.391279 
L 155.379743 117.194401 
L 155.46995 118.44077 
L 155.560157 117.407204 
L 155.650363 117.467988 
L 155.74057 117.923929 
L 155.830777 117.376754 
L 156.101398 121.936738 
L 156.191605 121.906288 
L 156.372018 123.730282 
L 156.552432 120.659919 
L 156.732846 123.487029 
L 156.91326 125.341473 
L 157.093673 124.824632 
L 157.18388 124.946317 
L 157.274087 125.493492 
L 157.364294 125.250238 
L 157.454501 124.49026 
L 157.544708 124.551045 
L 157.725122 124.429476 
L 157.905535 125.371807 
L 157.995742 125.219904 
L 158.266363 123.061538 
L 158.35657 123.487029 
L 158.446777 124.064654 
L 158.536984 123.821517 
L 158.717397 125.09822 
L 158.897811 121.815054 
L 159.078225 123.274226 
L 159.168432 121.602251 
L 159.348845 124.824632 
L 159.529259 121.75427 
L 159.709673 125.189454 
L 159.79988 124.551045 
L 160.250914 126.071001 
L 160.341121 126.73986 
L 160.521535 124.794298 
L 160.701949 128.776657 
L 160.792155 127.742976 
L 161.062776 129.901342 
L 161.152983 129.749439 
L 161.333397 125.858198 
L 161.51381 130.175045 
L 161.964845 120.143079 
L 162.235465 107.618491 
L 162.415879 106.341673 
L 162.506086 106.858513 
L 163.047327 117.528773 
L 163.227741 132.090157 
L 163.317948 131.390963 
L 163.498362 128.381385 
L 163.588569 129.506185 
L 163.678775 129.445401 
L 163.768982 128.290267 
L 163.949396 131.786178 
L 164.12981 130.023026 
L 164.40043 131.542982 
L 164.490637 131.573317 
L 164.671051 128.685423 
L 164.851465 129.718989 
L 165.031879 128.746207 
L 165.302499 129.323832 
L 165.392706 129.627754 
L 165.753534 127.882027 
L 166.204568 125.189454 
L 166.565395 129.293382 
L 166.655602 129.293382 
L 166.836016 128.47262 
L 166.926223 129.111029 
L 167.01643 129.019795 
L 167.196844 125.09822 
L 167.28705 125.280688 
L 167.467464 127.712642 
L 167.557671 127.013448 
L 167.738085 123.821517 
L 167.828292 123.39591 
L 168.008705 120.447117 
L 168.189119 117.133616 
L 168.369533 119.413551 
L 168.73036 114.397626 
L 168.820567 113.33361 
L 168.910774 114.184823 
L 169.000981 113.820001 
L 169.181395 109.229682 
L 169.271602 109.320916 
L 169.361809 108.37847 
L 169.452015 108.530488 
L 169.542222 108.530488 
L 169.632429 107.648941 
L 169.812843 110.202463 
L 170.263877 93.969104 
L 170.354084 93.421929 
L 170.444291 93.665066 
L 170.624705 95.002669 
L 170.714912 94.941885 
L 170.805119 95.093904 
L 170.985532 94.698632 
L 171.165946 95.793097 
L 171.256153 121.78472 
L 171.34636 121.663151 
L 171.526774 122.666266 
L 171.707187 120.933507 
L 171.887601 121.267879 
L 172.158222 119.291982 
L 172.428842 120.751154 
L 172.519049 120.234313 
L 172.609256 120.599135 
L 172.699463 121.997523 
L 172.78967 121.906288 
L 172.970084 120.295098 
L 173.150497 122.210326 
L 173.421118 121.602251 
L 173.511325 121.723935 
L 173.691739 122.27111 
L 173.872152 121.875954 
L 173.962359 121.78472 
L 174.23298 121.085526 
L 174.323187 121.085526 
L 174.5036 121.663151 
L 174.593807 121.450348 
L 174.684014 121.632701 
L 174.774221 121.480682 
L 174.864428 121.571917 
L 175.044842 124.429476 
L 175.135049 123.943085 
L 175.315462 125.159004 
L 175.495876 123.943085 
L 175.586083 123.912635 
L 175.766497 121.78472 
L 175.856704 123.426244 
L 176.037117 121.480682 
L 176.217531 125.219904 
L 176.397945 124.307907 
L 176.668566 125.61506 
L 176.848979 123.304676 
L 177.029393 124.095104 
L 177.1196 124.125438 
L 177.209807 124.45981 
L 177.390221 124.125438 
L 177.660841 125.189454 
L 177.931462 126.131901 
L 178.021669 125.919098 
L 178.111876 124.703063 
L 178.202082 125.067885 
L 178.56291 128.806992 
L 178.653117 128.047013 
L 178.833531 130.813338 
L 179.013944 128.624638 
L 179.104151 129.111029 
L 179.194358 128.685423 
L 179.284565 128.806992 
L 179.464979 125.554276 
L 179.645392 126.922213 
L 179.825806 124.946317 
L 179.916013 125.250238 
L 180.00622 125.61506 
L 180.186634 125.09822 
L 180.276841 125.675845 
L 180.367047 125.554276 
L 180.457254 124.946317 
L 180.637668 125.706295 
L 180.727875 125.432707 
L 180.818082 125.827863 
L 181.088702 128.563854 
L 181.359323 129.414951 
L 181.629944 124.946317 
L 181.720151 125.706295 
L 181.900564 127.591073 
L 181.990771 127.591073 
L 182.080978 126.982998 
L 182.261392 124.49026 
L 182.441806 126.101451 
L 182.622219 124.885416 
L 182.712426 123.943085 
L 183.163461 125.675845 
L 183.253667 125.61506 
L 183.343874 125.219904 
L 183.434081 125.371807 
L 183.524288 125.250238 
L 183.704702 123.851851 
L 183.794909 124.551045 
L 183.975322 121.997523 
L 184.155736 125.979882 
L 184.245943 125.12867 
L 184.33615 125.250238 
L 184.426357 126.314254 
L 184.516564 125.767079 
L 184.696977 126.405488 
L 184.787184 125.919098 
L 184.967598 127.499838 
L 185.057805 126.040667 
L 185.238219 126.679076 
L 185.328426 124.794298 
L 185.508839 129.384617 
L 185.599046 128.867776 
L 185.77946 127.043782 
L 185.869667 125.067885 
L 186.050081 127.83421 
L 186.230494 124.307907 
L 186.410908 125.888648 
L 186.501115 125.067885 
L 186.591322 125.675845 
L 186.681529 125.61506 
L 186.861942 123.943085 
L 186.952149 124.581495 
L 187.22277 119.960726 
L 187.312977 120.933507 
L 187.403184 120.568685 
L 187.583597 121.936738 
L 187.673804 121.967073 
L 187.764011 121.359113 
L 187.944425 121.997523 
L 188.034632 121.815054 
L 188.215046 124.733513 
L 188.305252 126.192685 
L 188.575873 124.703063 
L 188.66608 124.703063 
L 188.756287 125.12867 
L 188.846494 124.064654 
L 188.936701 121.511132 
L 189.026907 121.997523 
L 189.117114 124.095104 
L 189.297528 121.085526 
L 189.568149 126.314254 
L 189.838769 124.855082 
L 189.928976 125.706295 
L 190.10939 124.338242 
L 190.199597 124.855082 
L 190.289804 125.280688 
L 190.380011 125.250238 
L 190.560424 126.192685 
L 190.831045 128.594188 
L 191.011459 127.651857 
L 191.191872 129.019795 
L 191.282079 128.776657 
L 191.372286 129.080579 
L 191.462493 128.806992 
L 191.5527 129.202148 
L 191.733114 131.056592 
L 191.823321 130.995807 
L 192.003734 132.454979 
L 192.184148 130.509417 
L 192.454769 142.486829 
L 192.725389 211.220332 
L 192.905803 201.796441 
L 192.99601 204.714785 
L 193.176424 200.094074 
L 193.266631 200.702091 
L 193.627458 194.865346 
L 193.807872 190.548614 
L 193.898079 191.369377 
L 194.168699 180.699117 
L 194.349113 160.635417 
L 194.619734 133.123781 
L 194.980561 119.56557 
L 195.160975 121.298329 
L 195.251182 120.69037 
L 195.341389 120.994292 
L 195.521803 124.976651 
L 195.612009 122.757501 
L 195.702216 125.402257 
L 195.792423 125.159004 
L 195.88263 125.827863 
L 196.063044 129.56697 
L 196.153251 127.986229 
L 196.243458 128.351051 
L 196.333664 129.080579 
L 196.423871 128.715757 
L 196.514078 129.050245 
L 196.694492 131.17816 
L 196.784699 130.235829 
L 196.965113 131.786178 
L 197.145526 128.533404 
L 197.235733 128.685423 
L 197.416147 129.688654 
L 197.506354 129.59742 
L 197.596561 129.202148 
L 197.776974 129.901342 
L 197.867181 129.749439 
L 198.228009 128.654973 
L 198.318216 128.624638 
L 198.498629 129.263048 
L 198.679043 126.648626 
L 199.039871 121.632701 
L 199.220284 122.088641 
L 199.490905 121.480682 
L 199.581112 122.119091 
L 199.761526 120.781488 
L 199.941939 121.571917 
L 200.032146 121.328663 
L 200.21256 122.453463 
L 200.302767 122.088641 
L 200.392974 122.119091 
L 200.483181 122.119091 
L 200.573388 121.419898 
L 200.753801 123.426244 
L 200.934215 121.511132 
L 201.114629 122.119091 
L 201.295043 125.189454 
L 201.385249 124.581495 
L 201.475456 124.703063 
L 201.565663 125.463041 
L 201.836284 124.338242 
L 201.926491 124.551045 
L 202.016698 124.885416 
L 202.106904 124.855082 
L 202.197111 125.037435 
L 202.377525 121.936738 
L 202.557939 118.227967 
L 202.828559 108.986429 
L 202.918766 109.047213 
L 203.008973 108.925644 
L 203.09918 109.047213 
L 203.189387 109.746407 
L 203.640421 118.319201 
L 203.730628 133.184565 
L 203.820835 133.154173 
L 203.911042 133.154173 
L 204.091456 132.029373 
L 204.181663 132.728567 
L 204.362076 129.141363 
L 204.54249 132.029373 
L 204.632697 130.904573 
L 204.722904 130.965357 
L 204.813111 131.238945 
L 204.903318 130.570201 
L 205.083731 132.667782 
L 205.264145 130.266163 
L 205.354352 130.509417 
L 205.534766 128.746207 
L 205.624973 129.232598 
L 205.715179 129.56697 
L 205.805386 129.050245 
L 205.9858 131.573317 
L 206.166214 129.232598 
L 206.797662 128.50307 
L 207.068283 131.117376 
L 207.158489 130.69177 
L 207.338903 129.171813 
L 207.519317 130.661435 
L 207.789938 128.168582 
L 207.880144 128.077463 
L 207.970351 128.44217 
L 208.060558 129.445401 
L 208.150765 129.111029 
L 208.421386 125.402257 
L 208.511593 125.61506 
L 208.782213 120.477566 
L 208.962627 121.78472 
L 209.052834 121.359113 
L 209.143041 121.511132 
L 209.233248 121.328663 
L 209.323454 120.447117 
L 209.413661 120.477566 
L 209.503868 120.963957 
L 209.774489 116.282404 
L 209.864696 117.103166 
L 209.954903 116.920813 
L 210.04511 117.042382 
L 210.225523 117.863145 
L 210.31573 117.80236 
L 210.405937 118.44077 
L 211.037385 105.733713 
L 211.48842 109.564054 
L 211.668833 106.736944 
L 211.75904 108.925644 
L 211.939454 128.229366 
L 212.029661 128.259817 
L 212.119868 128.016563 
L 212.300281 125.219904 
L 212.390488 125.523826 
L 212.570902 124.885416 
L 212.751316 125.432707 
L 212.841523 125.007101 
L 213.021936 127.621407 
L 213.112143 126.587841 
L 213.20235 126.922213 
L 213.292557 129.445401 
L 213.382764 128.44217 
L 213.472971 126.131901 
L 213.743591 128.47262 
L 213.924005 128.533404 
L 214.014212 127.83421 
L 214.104419 127.986229 
L 214.194626 128.776657 
L 214.284833 128.016563 
L 214.465246 125.007101 
L 214.555453 125.463041 
L 214.735867 124.915867 
L 214.826074 125.09822 
L 214.916281 124.763848 
L 215.096695 124.915867 
L 215.277108 124.155888 
L 215.367315 124.125438 
L 215.637936 125.250238 
L 215.728143 125.067885 
L 215.908556 125.949432 
L 215.998763 125.311023 
L 216.08897 125.58461 
L 216.269384 122.27111 
L 216.359591 123.122323 
L 216.449798 124.885416 
L 216.630211 123.487029 
L 216.810625 124.855082 
L 216.900832 124.855082 
L 217.081246 123.578263 
L 217.171453 125.341473 
L 217.26166 124.307907 
L 217.442073 121.14631 
L 217.53228 122.331895 
L 217.712694 121.237545 
L 217.802901 122.027857 
L 217.893108 121.723935 
L 217.983315 120.599135 
L 218.073521 121.298329 
L 218.253935 124.03432 
L 218.344142 123.335126 
L 218.434349 123.639048 
L 218.524556 124.703063 
L 218.614763 124.277457 
L 218.795176 121.541466 
L 218.97559 122.301445 
L 219.156004 121.723935 
L 219.246211 122.24066 
L 219.426625 124.277457 
L 219.607038 122.058307 
L 219.697245 122.575148 
L 219.787452 122.149542 
L 219.877659 123.517479 
L 219.967866 131.573317 
L 220.058073 130.995807 
L 220.238486 133.214957 
L 220.509107 128.533404 
L 220.599314 129.658204 
L 220.689521 129.414951 
L 220.779728 129.354166 
L 220.869935 130.114145 
L 220.960141 130.05336 
L 221.050348 129.232598 
L 221.140555 129.354166 
L 221.411176 132.30296 
L 221.501383 132.363745 
L 221.681796 131.755785 
L 221.86221 132.485371 
L 222.132831 128.533404 
L 222.223038 129.658204 
L 222.313245 129.202148 
L 222.403451 129.445401 
L 222.493658 131.056592 
L 222.583865 130.539751 
L 222.764279 128.533404 
L 223.0349 129.749439 
L 223.215313 128.50307 
L 223.30552 128.624638 
L 223.395727 128.776657 
L 223.576141 128.685423 
L 223.846761 128.746207 
L 223.936968 128.685423 
L 224.027175 128.95901 
L 224.117382 128.806992 
L 224.297796 127.712642 
L 224.388003 127.894995 
L 224.568416 124.824632 
L 224.74883 128.351051 
L 224.929244 125.949432 
L 225.019451 126.25347 
L 225.199865 125.341473 
L 225.290071 125.61506 
L 225.470485 124.763848 
L 225.650899 125.979882 
L 225.831313 125.09822 
L 225.92152 125.250238 
L 226.011726 125.645395 
L 226.101933 125.554276 
L 226.19214 125.250238 
L 226.462761 127.742976 
L 226.552968 128.320601 
L 226.733381 125.493492 
L 226.913795 128.351051 
L 227.004002 127.560623 
L 227.184416 128.533404 
L 227.36483 125.037435 
L 227.545243 126.131901 
L 227.725657 124.00387 
L 227.815864 124.216673 
L 228.086485 128.411835 
L 228.176692 128.047013 
L 228.357105 125.979882 
L 228.537519 128.685423 
L 228.627726 128.563854 
L 228.717933 128.654973 
L 228.898347 132.30296 
L 229.168967 129.019795 
L 229.349381 129.506185 
L 229.439588 129.414951 
L 229.529795 128.95901 
L 229.620002 129.050245 
L 229.710208 129.080579 
L 229.890622 128.381385 
L 229.980829 128.50307 
L 230.161243 132.150942 
L 230.341657 128.351051 
L 230.431863 128.776657 
L 230.52207 129.688654 
L 230.702484 128.563854 
L 230.882898 129.354166 
L 230.973105 128.898226 
L 231.153518 130.08381 
L 231.243725 129.293382 
L 231.333932 129.658204 
L 231.424139 131.725393 
L 231.514346 131.299729 
L 231.604553 129.293382 
L 231.784967 132.454979 
L 231.875173 132.424587 
L 231.96538 132.029373 
L 232.236001 133.062939 
L 232.326208 132.394137 
L 232.416415 132.576548 
L 232.596828 134.430934 
L 232.687035 133.518937 
L 232.867449 136.893279 
L 232.957656 136.224536 
L 233.047863 135.798929 
L 233.228277 143.854825 
L 233.318483 140.024484 
L 233.589104 123.943085 
L 233.769518 120.447117 
L 233.859725 120.477566 
L 234.310759 112.938454 
L 234.491173 112.269594 
L 234.852 101.143394 
L 235.212828 75.42536 
L 235.483448 69.588556 
L 235.754069 63.447831 
L 235.844276 63.873438 
L 236.02469 63.569516 
L 236.114897 62.718303 
L 236.29531 83.906803 
L 236.385517 83.633216 
L 236.475724 87.797929 
L 236.656138 98.711441 
L 236.746345 95.671413 
L 236.926758 100.018594 
L 237.016965 98.346619 
L 237.468 114.762448 
L 237.558207 114.579979 
L 237.73862 109.807307 
L 238.189655 132.272568 
L 238.279862 131.664551 
L 238.370068 129.992576 
L 238.460275 130.326948 
L 238.550482 130.235829 
L 238.730896 126.131901 
L 238.821103 126.952664 
L 238.91131 125.432707 
L 239.001517 125.493492 
L 239.091723 128.047013 
L 239.18193 127.86466 
L 239.723172 117.163951 
L 239.903585 122.483913 
L 240.083999 119.018395 
L 240.264413 121.511132 
L 240.35462 120.568685 
L 240.535033 121.967073 
L 240.715447 119.504785 
L 241.076275 126.283804 
L 241.617516 121.328663 
L 241.707723 119.717473 
L 241.79793 121.78472 
L 241.978343 129.050245 
L 242.06855 129.810223 
L 242.248964 129.384617 
L 242.339171 129.627754 
L 242.519585 120.538351 
L 242.699998 133.883759 
L 242.970619 126.192685 
L 243.151033 114.276057 
L 243.421653 86.764363 
L 243.51186 87.098735 
L 243.692274 84.119607 
L 244.053102 96.188254 
L 244.233515 111.996007 
L 244.323722 158.416209 
L 244.413929 158.233798 
L 244.504136 156.805018 
L 244.774757 148.505928 
L 244.95517 146.773168 
L 245.045377 149.265964 
L 245.135584 149.235514 
L 245.315998 147.44197 
L 245.496412 144.857998 
L 245.676825 149.265964 
L 245.857239 142.821201 
L 245.947446 143.824432 
L 246.037653 144.402 
L 246.12786 141.24046 
L 246.218067 141.878812 
L 246.308274 142.608456 
L 246.39848 138.899684 
L 246.488687 139.598878 
L 246.578894 143.702806 
L 247.120135 130.400815 
L 247.390756 125.645395 
L 247.57117 128.563854 
L 247.751584 134.886932 
L 247.84179 133.366976 
L 247.931997 128.92856 
L 248.022204 129.323832 
L 248.112411 132.120549 
L 248.202618 131.786178 
L 248.473239 121.541466 
L 248.743859 128.806992 
L 249.01448 118.562338 
L 249.104687 116.525541 
L 249.375307 102.298529 
L 249.465514 102.632901 
L 249.736135 105.216872 
L 249.826342 104.517679 
L 250.006755 97.829779 
L 250.096962 99.532204 
L 250.187169 97.465073 
L 250.367583 86.399541 
L 250.638204 89.713157 
L 250.72841 90.412351 
L 250.818617 88.101966 
L 250.999031 97.373838 
L 251.179445 78.1309 
L 251.540272 56.42556 
L 251.630479 57.702378 
L 251.810893 64.147025 
L 251.9011 63.052675 
L 251.991307 64.23826 
L 252.081514 68.372638 
L 252.17172 68.159835 
L 252.261927 66.031803 
L 252.352134 69.1934 
L 252.532548 145.435565 
L 252.622755 145.861171 
L 252.712962 144.705979 
L 252.983582 135.069343 
L 253.073789 135.099735 
L 253.34441 128.806992 
L 253.524824 126.648626 
L 253.705237 129.445401 
L 253.795444 129.931792 
L 253.975858 135.251696 
L 254.156272 130.144595 
L 254.426892 134.248523 
L 254.607306 128.44217 
L 254.697513 129.111029 
L 255.05834 132.029373 
L 255.509375 125.311023 
L 255.599582 126.071001 
L 255.689789 126.192685 
L 255.779995 124.307907 
L 255.870202 124.611829 
L 256.140823 130.296614 
L 256.23103 130.478967 
L 256.321237 128.44217 
L 256.411444 129.384617 
L 256.50165 131.694943 
L 256.862478 125.645395 
L 257.042892 129.840557 
L 257.133099 129.779773 
L 257.403719 125.250238 
L 257.493926 125.858198 
L 257.67434 123.335126 
L 257.854754 128.837442 
L 258.035167 121.389563 
L 258.215581 125.58461 
L 258.305788 122.848735 
L 258.486202 125.888648 
L 258.576409 121.450348 
L 258.666615 121.663151 
L 258.756822 125.280688 
L 258.847029 124.855082 
L 258.937236 125.280688 
L 259.11765 129.384617 
L 259.298064 123.669498 
L 259.749098 135.616518 
L 259.839305 135.342931 
L 260.019719 143.094846 
L 260.290339 132.485371 
L 260.380546 133.123781 
L 260.470753 134.978109 
L 260.56096 161.304161 
L 260.651167 160.81777 
L 260.83158 164.070544 
L 261.282615 154.221047 
L 261.372822 153.461068 
L 261.553235 158.325033 
L 261.823856 150.937939 
L 261.914063 150.78592 
L 262.00427 150.329921 
L 262.27489 153.795498 
L 262.455304 162.155373 
L 262.545511 161.912178 
L 262.906339 153.521911 
L 262.996546 154.221047 
L 263.176959 156.805018 
L 263.357373 152.184308 
L 263.44758 149.083553 
L 263.537787 150.177903 
L 263.718201 153.947459 
L 263.898614 149.113945 
L 263.988821 149.053161 
L 264.169235 147.593989 
L 264.259442 146.62115 
L 264.349649 146.803561 
L 264.530062 148.688339 
L 264.89089 142.699632 
L 264.981097 142.486829 
L 265.161511 137.835668 
L 265.341924 143.946001 
L 265.522338 141.210068 
L 265.612545 141.605224 
L 265.702752 140.267679 
L 265.883166 141.970047 
L 266.063579 139.173271 
L 266.153786 141.54444 
L 266.514614 138.869292 
L 266.604821 141.301245 
L 266.785234 150.329921 
L 266.965648 146.31717 
L 267.146062 145.466015 
L 267.236269 146.347562 
L 267.687303 137.41012 
L 267.77751 139.294898 
L 267.867717 138.170098 
L 268.048131 128.837442 
L 268.138337 130.509417 
L 268.408958 117.315969 
L 268.499165 118.744691 
L 268.589372 117.011932 
L 268.679579 133.488545 
L 268.769786 131.664551 
L 268.859992 130.69177 
L 269.040406 132.120549 
L 269.130613 132.333352 
L 269.401234 140.814854 
L 269.491441 144.189196 
L 269.581647 143.550787 
L 269.852268 140.328464 
L 270.122889 138.474078 
L 270.213096 138.291667 
L 270.303302 137.653315 
L 270.393509 135.829321 
L 270.483716 136.042125 
L 270.754337 143.642021 
L 270.844544 143.398826 
L 271.024957 135.890106 
L 271.205371 140.11566 
L 271.295578 138.8389 
L 271.385785 138.869292 
L 271.566199 136.954121 
L 271.746612 142.243634 
L 271.836819 141.483656 
L 272.017233 142.486829 
L 272.197647 139.021252 
L 272.378061 145.374781 
L 272.468267 145.313997 
L 272.648681 142.547614 
L 272.829095 146.256386 
L 273.009509 145.131586 
L 273.189922 152.609914 
L 273.370336 148.23234 
L 273.640957 165.377755 
L 273.911577 270.925157 
L 274.001784 262.443656 
L 274.091991 263.842043 
L 274.182198 270.225964 
L 274.362612 265.878782 
L 274.543026 270.529943 
L 274.633232 269.435535 
L 274.723439 270.134729 
L 274.813646 269.131556 
L 274.903853 265.909232 
L 274.99406 266.395623 
L 275.084267 269.496378 
L 275.174474 269.313967 
L 275.264681 268.371578 
L 275.354887 269.222732 
L 275.445094 263.021223 
L 275.896129 186.231825 
L 276.166749 167.110514 
L 276.347163 162.824175 
L 276.43737 162.884959 
L 276.617784 166.593731 
L 276.707991 165.438539 
L 276.798197 89.439569 
L 276.888404 92.813854 
L 276.978611 92.935538 
L 277.068818 94.698632 
L 277.249232 102.906604 
L 277.339439 101.356197 
L 277.429646 102.967388 
L 277.519852 101.903372 
L 277.610059 98.407404 
L 278.061094 111.327263 
L 278.151301 111.935223 
L 278.331714 106.007301 
L 278.782749 119.261532 
L 278.872956 118.227967 
L 278.963162 118.44077 
L 279.053369 119.048729 
L 279.233783 116.282404 
L 279.32399 116.647226 
L 279.504404 113.242376 
L 279.594611 113.728766 
L 279.775024 117.467988 
L 280.045645 114.093588 
L 280.135852 114.610429 
L 280.316266 112.968788 
L 280.496679 116.890363 
L 280.586886 116.647226 
L 280.677093 116.70801 
L 280.7673 118.167182 
L 280.857507 117.954379 
L 280.947714 117.072716 
L 281.037921 117.315969 
L 281.128128 116.403973 
L 281.308541 112.330379 
L 281.488955 117.83281 
L 281.579162 117.437538 
L 281.759576 114.063254 
L 281.849783 114.884016 
L 281.939989 114.45841 
L 282.030196 114.823232 
L 282.120403 117.559107 
L 282.21061 117.376754 
L 282.300817 113.972019 
L 282.391024 114.336842 
L 282.571438 118.471104 
L 282.661644 117.011932 
L 282.751851 117.072716 
L 282.842058 118.471104 
L 282.932265 117.589557 
L 283.112679 112.360829 
L 283.293093 123.061538 
L 283.473506 121.14631 
L 283.744127 111.327263 
L 284.014748 94.789866 
L 284.195161 92.175444 
L 284.285368 93.178676 
L 284.736403 106.311338 
L 284.826609 111.783204 
L 285.007023 146.347562 
L 285.277644 139.507643 
L 285.367851 140.450032 
L 285.458058 140.206837 
L 285.548264 139.142879 
L 285.728678 140.176445 
L 285.818885 139.598878 
L 285.999299 140.966873 
L 286.089506 138.960468 
L 286.179713 139.264448 
L 286.269919 141.878812 
L 286.360126 141.149226 
L 286.54054 138.686881 
L 286.720954 137.89651 
L 286.811161 140.541267 
L 286.901368 140.146053 
L 286.991574 137.07569 
L 287.081781 137.622865 
L 287.171988 138.778057 
L 287.352402 133.701348 
L 287.98385 129.263048 
L 288.164264 133.366976 
L 288.254471 132.637332 
L 288.434884 133.154173 
L 288.615298 131.846962 
L 288.795712 133.579721 
L 289.066333 128.654973 
L 289.156539 129.354166 
L 289.246746 130.935023 
L 289.336953 130.783004 
L 289.607574 120.963957 
L 289.697781 122.301445 
L 289.787988 121.389563 
L 289.968401 112.391279 
L 290.148815 114.306391 
L 290.239022 113.060023 
L 290.329229 113.972019 
L 290.419436 113.151257 
L 290.599849 109.716073 
L 290.690056 111.72242 
L 290.780263 110.263248 
L 290.960677 102.754585 
L 291.141091 103.392994 
L 291.231298 103.970504 
L 291.321504 103.727366 
L 291.411711 102.876154 
L 291.592125 107.679276 
L 292.223573 79.164466 
L 292.403987 82.052475 
L 292.494194 81.079694 
L 292.584401 82.690769 
L 292.764814 88.557907 
L 292.855021 87.494007 
L 292.945228 88.709925 
L 293.125642 136.163693 
L 293.215849 137.440512 
L 293.306056 136.315712 
L 293.486469 132.090157 
L 293.576676 132.576548 
L 293.666883 133.762132 
L 293.75709 132.60694 
L 293.937504 128.806992 
L 294.027711 128.624638 
L 294.117918 128.806992 
L 294.298331 129.354166 
L 294.568952 135.008501 
L 294.749366 128.199032 
L 294.839573 129.141363 
L 295.019986 133.610171 
L 295.290607 129.202148 
L 295.380814 129.263048 
L 295.471021 129.141363 
L 295.651434 133.914151 
L 295.741641 131.451748 
L 295.922055 124.611829 
L 296.012262 125.919098 
L 296.192676 124.763848 
L 296.282883 125.067885 
L 296.463296 123.730282 
L 296.733917 127.256585 
L 296.914331 129.931792 
L 297.094744 132.333352 
L 297.545779 123.730282 
L 297.635986 124.581495 
L 297.726193 125.250238 
L 297.906606 124.642279 
L 298.08702 126.70941 
L 298.267434 121.480682 
L 298.357641 121.967073 
L 298.447848 123.213441 
L 298.628261 118.045498 
L 298.808675 121.11586 
L 298.898882 119.747923 
L 298.989089 119.960726 
L 299.169503 118.92716 
L 299.349916 120.751154 
L 299.440123 120.507901 
L 299.710744 126.071001 
L 299.891158 120.842273 
L 299.981365 122.027857 
L 300.342192 128.624638 
L 300.432399 126.101451 
L 300.522606 127.043782 
L 300.612813 132.454979 
L 300.70302 132.029373 
L 300.793226 128.685423 
L 301.063847 132.30296 
L 301.154054 133.73174 
L 301.244261 133.488545 
L 301.424675 135.342931 
L 301.695295 132.120549 
L 301.785502 133.24535 
L 301.965916 132.363745 
L 302.14633 136.862887 
L 302.326743 131.786178 
L 302.41695 134.765306 
L 302.507157 134.491718 
L 302.687571 132.333352 
L 302.777778 132.910978 
L 302.958191 137.501296 
L 303.138605 141.118834 
L 303.409226 136.315712 
L 303.499433 136.680534 
L 303.58964 136.923729 
L 303.770053 140.723678 
L 304.040674 131.482198 
L 304.130881 132.485371 
L 304.221088 132.667782 
L 304.401501 131.451748 
L 304.672122 132.971762 
L 304.762329 132.880528 
L 304.942743 132.454979 
L 305.123156 133.336526 
L 305.30357 135.251696 
L 305.393777 134.947717 
L 305.574191 133.458153 
L 305.754605 128.898226 
L 305.935018 134.704521 
L 306.115432 132.029373 
L 306.205639 133.488545 
L 306.295846 132.728567 
L 306.386053 133.123781 
L 306.566466 129.263048 
L 306.656673 130.843789 
L 306.74688 132.910978 
L 306.927294 131.330179 
L 307.017501 131.299729 
L 307.107708 127.499838 
L 307.197915 128.320601 
L 307.288121 133.488545 
L 307.468535 129.171813 
L 307.648949 132.181392 
L 307.739156 131.117376 
L 307.91957 132.30296 
L 308.009776 131.330179 
L 308.099983 132.515763 
L 308.19019 131.603767 
L 308.280397 129.323832 
L 308.370604 129.931792 
L 308.460811 129.019795 
L 308.641225 124.885416 
L 308.731431 124.794298 
L 309.002052 115.461642 
L 309.092259 116.099935 
L 309.182466 115.06637 
L 309.272673 123.97342 
L 309.36288 122.453463 
L 309.453086 121.541466 
L 309.543293 121.875954 
L 309.723707 120.872723 
L 309.813914 121.237545 
L 309.904121 122.483913 
L 310.084535 129.506185 
L 310.264948 127.742976 
L 310.445362 129.263048 
L 310.715983 125.09822 
L 310.80619 125.371807 
L 310.986603 124.00387 
L 311.07681 124.794298 
L 311.347431 130.509417 
L 311.437638 130.965357 
L 311.618051 125.858198 
L 311.798465 129.840557 
L 311.978879 127.83421 
L 312.159293 128.351051 
L 312.339706 131.026142 
L 312.610327 129.962242 
L 312.790741 128.411835 
L 313.151568 134.03572 
L 313.241775 133.914151 
L 313.331982 133.883759 
L 313.602603 135.342931 
L 313.783016 139.994034 
L 313.96343 137.531689 
L 314.234051 147.533146 
L 314.504671 208.089185 
L 314.594878 199.334096 
L 314.685085 200.458838 
L 314.775292 207.055561 
L 314.865499 205.900369 
L 314.955706 205.657174 
L 315.13612 210.004355 
L 315.226327 210.24755 
L 315.316533 212.4667 
L 315.40674 212.041094 
L 315.496947 210.004355 
L 315.677361 213.956264 
L 316.038188 205.413978 
L 316.489223 162.337784 
L 316.759843 152.366718 
L 316.940257 149.782747 
L 317.030464 150.633901 
L 317.210878 155.923472 
L 317.301085 154.737887 
L 317.391292 75.546928 
L 317.481498 79.377269 
L 317.571705 79.012447 
L 317.842326 94.181907 
L 317.932533 91.05076 
L 318.112947 96.066685 
L 318.203153 94.151457 
L 318.29336 96.61386 
L 318.563981 108.86486 
L 318.744395 112.512848 
L 318.924808 107.162551 
L 319.375843 129.56697 
L 319.46605 128.594188 
L 319.556257 127.986229 
L 319.646463 129.202148 
L 319.73667 128.016563 
L 319.917084 124.642279 
L 320.097498 122.119091 
L 320.277912 125.979882 
L 320.368118 125.797413 
L 320.819153 116.069601 
L 320.90936 116.70801 
L 321.089773 122.058307 
L 321.17998 119.352766 
L 321.270187 119.474335 
L 321.360394 121.541466 
L 321.540808 119.383101 
L 321.721222 120.659919 
L 321.901635 116.890363 
L 322.082049 118.775141 
L 322.262463 122.058307 
L 322.442877 119.322316 
L 322.62329 124.247123 
L 322.893911 119.109513 
L 322.984118 119.960726 
L 323.254738 126.131901 
L 323.435152 128.320601 
L 323.525359 128.259817 
L 323.705773 120.933507 
L 323.886187 135.677302 
L 324.247014 122.575148 
L 324.427428 104.304876 
L 324.607842 87.494007 
L 324.788255 85.578779 
L 324.878462 85.700347 
L 325.329497 103.605798 
L 325.419703 111.965673 
L 325.50991 159.632186 
L 325.600117 158.872208 
L 326.141358 145.982798 
L 326.231565 147.624381 
L 326.321772 147.381186 
L 326.411979 145.466015 
L 326.502186 145.678761 
L 326.592393 146.134759 
L 326.6826 144.249981 
L 326.772807 145.101193 
L 326.863013 147.806734 
L 327.043427 140.602051 
L 327.133634 141.84842 
L 327.223841 143.368434 
L 327.314048 141.878812 
L 327.494462 144.249981 
L 327.584668 140.237287 
L 327.674875 140.906031 
L 327.765082 144.371607 
L 328.12591 131.873012 
L 328.576944 124.338242 
L 328.667151 125.250238 
L 328.937772 132.910978 
L 329.027978 132.059765 
L 329.208392 127.742976 
L 329.298599 130.175045 
L 329.388806 129.810223 
L 329.659427 119.778373 
L 329.930047 126.131901 
L 330.200668 116.251954 
L 330.561495 101.569001 
L 330.651702 102.17696 
L 330.741909 102.815369 
L 330.832116 102.511332 
L 330.922323 104.274541 
L 331.01253 103.149741 
L 331.192943 97.282604 
L 331.28315 98.711441 
L 331.553771 84.241175 
L 331.643978 85.882816 
L 331.914598 88.436338 
L 332.004805 87.037951 
L 332.185219 95.033004 
L 332.365633 75.698947 
L 332.72646 53.568 
L 332.816667 54.935937 
L 332.997081 61.319916 
L 333.087288 60.195116 
L 333.177495 61.715072 
L 333.267702 65.606197 
L 333.357909 64.7551 
L 333.448115 63.265478 
L 333.538322 67.126269 
L 333.718736 140.11566 
L 333.89915 142.486829 
L 334.530598 127.712642 
L 334.711012 125.007101 
L 334.891425 128.685423 
L 334.981632 128.47262 
L 335.162046 134.370149 
L 335.34246 127.894995 
L 335.522874 132.819743 
L 335.61308 132.728567 
L 335.793494 127.83421 
L 335.973908 129.901342 
L 336.064115 129.810223 
L 336.244529 131.877354 
L 336.334735 131.117376 
L 336.695563 124.307907 
L 336.78577 124.277457 
L 336.966184 120.781488 
L 337.05639 121.78472 
L 337.417218 130.05336 
L 337.507425 128.411835 
L 337.597632 128.776657 
L 337.687839 131.482198 
L 337.958459 125.007101 
L 338.048666 125.61506 
L 338.138873 125.219904 
L 338.319287 127.074232 
L 338.4997 121.602251 
L 338.589907 121.75427 
L 338.680114 121.845504 
L 338.860528 119.717473 
L 339.040942 123.304676 
L 339.221355 117.437538 
L 339.401769 121.237545 
L 339.491976 119.717473 
L 339.67239 122.301445 
L 339.762597 119.261532 
L 339.852804 119.839157 
L 340.303838 126.22302 
L 340.484252 120.751154 
L 341.205907 140.358856 
L 341.38632 134.278915 
L 341.476527 134.978109 
L 341.566734 135.221304 
L 341.656941 135.98134 
L 341.747148 163.553761 
L 341.837355 161.516964 
L 342.017769 166.046498 
L 342.288389 156.774626 
L 342.378596 157.413036 
L 342.55901 156.257843 
L 342.649217 157.747408 
L 342.739424 157.534604 
L 342.919837 153.126697 
L 343.010044 153.82589 
L 343.190458 156.865861 
L 343.280665 156.561823 
L 343.370872 156.744234 
L 343.731699 165.104109 
L 344.092527 158.507444 
L 344.363147 162.064197 
L 344.453354 161.273769 
L 344.633768 153.400284 
L 344.723975 154.707495 
L 344.814182 158.173014 
L 344.904389 157.960211 
L 345.084802 152.792267 
L 345.265216 152.123523 
L 345.44563 150.390706 
L 345.535837 150.573117 
L 345.71625 153.673871 
L 345.986871 146.438797 
L 346.077078 146.955579 
L 346.167285 146.864345 
L 346.347699 143.398826 
L 346.528112 148.171556 
L 346.708526 145.587584 
L 346.798733 145.678761 
L 346.88894 143.854825 
L 346.979147 143.915609 
L 347.069354 144.037236 
L 347.249767 141.301245 
L 347.339974 142.851651 
L 347.520388 141.149226 
L 347.610595 142.000439 
L 347.700802 141.118834 
L 347.791009 143.338042 
L 347.971422 152.093131 
L 348.242043 147.685165 
L 348.33225 146.195601 
L 348.422457 147.168382 
L 348.693077 141.666067 
L 348.873491 136.802103 
L 348.963698 138.960468 
L 349.053905 138.078863 
L 349.234319 128.50307 
L 349.324525 130.509417 
L 349.595146 116.586326 
L 349.685353 118.714357 
L 349.77556 116.920813 
L 349.865767 129.962242 
L 350.046181 124.855082 
L 350.587422 135.890106 
L 350.677629 140.267679 
L 350.767836 139.386075 
L 350.858042 136.650084 
L 350.948249 136.954121 
L 351.038456 136.802103 
L 351.489491 131.938196 
L 351.579697 131.634159 
L 351.669904 132.971762 
L 351.940525 140.571659 
L 352.030732 140.571659 
L 352.211146 133.762132 
L 352.301352 134.400542 
L 352.391559 134.978109 
L 352.571973 133.062939 
L 352.66218 133.366976 
L 352.752387 133.306134 
L 352.932801 137.37967 
L 353.023007 136.5893 
L 353.113214 136.619692 
L 353.203421 137.41012 
L 353.383835 134.400542 
L 353.654456 140.358856 
L 353.834869 136.862887 
L 353.925076 137.531689 
L 354.015283 140.541267 
L 354.10549 139.902857 
L 354.195697 139.507643 
L 354.376111 147.13799 
L 354.556524 143.216415 
L 354.827145 160.057792 
L 355.097766 267.125209 
L 355.187972 259.646881 
L 355.278179 259.616488 
L 355.368386 266.334781 
L 355.5488 261.957265 
L 355.729214 265.757214 
L 355.819421 264.602021 
L 355.909627 265.210039 
L 355.999834 264.693198 
L 356.180248 261.71407 
L 356.360662 264.480395 
L 356.541076 263.294811 
L 356.631282 257.670926 
L 357.082317 183.313481 
L 357.443144 163.827348 
L 357.623558 160.51379 
L 357.803972 165.955322 
L 357.894179 163.979367 
L 357.984386 105.946516 
L 358.074592 109.594504 
L 358.255006 110.415266 
L 358.43542 114.792782 
L 358.615834 110.111229 
L 358.976661 114.306391 
L 359.247282 119.291982 
L 359.337489 119.109513 
L 359.517902 116.282404 
L 359.968937 131.482198 
L 360.059144 131.938196 
L 360.239557 136.558907 
L 360.329764 135.373323 
L 360.419971 132.576548 
L 360.510178 133.032546 
L 360.600385 134.52211 
L 360.690592 133.762132 
L 360.780799 133.944543 
L 360.871006 136.224536 
L 360.961212 135.586126 
L 361.231833 128.806992 
L 361.412247 127.682192 
L 361.502454 129.171813 
L 361.953488 147.563539 
L 362.043695 150.360314 
L 362.133902 150.208353 
L 362.224109 151.667525 
L 362.314316 154.95069 
L 362.404522 154.312281 
L 362.494729 153.278715 
L 362.76535 159.419382 
L 362.855557 159.38899 
L 362.945764 158.264248 
L 363.306591 163.827348 
L 363.396798 163.644937 
L 363.487005 161.000181 
L 363.667419 164.678561 
L 363.757626 164.404915 
L 363.847832 164.222562 
L 363.938039 164.617719 
L 364.118453 167.961669 
L 364.298867 163.097762 
L 364.479281 174.558392 
L 364.749901 166.228909 
L 364.840108 164.19217 
L 365.381349 133.792524 
L 365.471556 134.096562 
L 366.012797 144.067628 
L 366.193211 135.555734 
L 366.283418 134.339757 
L 366.463832 123.608714 
L 366.554039 124.915867 
L 366.644246 124.095104 
L 366.824659 120.751154 
L 366.914866 122.179876 
L 367.005073 121.967073 
L 367.185487 120.112745 
L 367.456108 121.693485 
L 367.636521 117.80236 
L 367.726728 118.197516 
L 367.907142 115.279173 
L 367.997349 117.346304 
L 368.087556 117.103166 
L 368.177763 112.148026 
L 368.267969 112.695201 
L 368.358176 116.130385 
L 368.628797 108.348135 
L 369.170038 102.328979 
L 369.350452 103.696916 
L 369.530866 107.77051 
L 369.711279 105.612145 
L 369.9819 108.37847 
L 370.252521 102.572116 
L 370.432934 103.727366 
L 370.523141 103.514563 
L 370.793762 97.100251 
L 370.883969 96.674644 
L 371.154589 87.129185 
L 371.335003 88.314769 
L 371.42521 87.311538 
L 371.515417 88.253985 
L 371.605624 87.706694 
L 371.786038 79.954894 
L 371.876244 82.629985 
L 371.966451 82.417182 
L 372.146865 74.087756 
L 372.327279 74.574147 
L 372.507693 77.370922 
L 372.597899 75.36446 
L 372.778313 81.566085 
L 373.319554 53.963156 
L 373.409761 54.206409 
L 373.590175 58.887963 
L 373.680382 57.823947 
L 373.770589 58.887963 
L 373.951003 63.6303 
L 374.041209 62.748637 
L 374.131416 64.603081 
L 374.221623 99.866576 
L 374.31183 99.440969 
L 374.402037 99.592988 
L 374.492244 99.501754 
L 374.672658 95.306707 
L 374.762864 96.097019 
L 374.853071 97.252269 
L 374.943278 95.823432 
L 375.033485 96.61386 
L 375.123692 99.866576 
L 375.304106 98.468188 
L 375.664933 112.938454 
L 375.75514 113.36406 
L 375.935554 106.828063 
L 376.115968 114.610429 
L 376.206174 114.701547 
L 376.386588 113.33361 
L 376.476795 114.184823 
L 376.567002 113.941569 
L 376.747416 115.978366 
L 377.469071 111.75287 
L 377.649484 109.95921 
L 378.100519 117.77191 
L 378.280933 119.383101 
L 378.371139 118.471104 
L 378.64176 113.485629 
L 378.822174 115.06637 
L 379.092794 113.394394 
L 379.273208 116.799129 
L 379.363415 116.70801 
L 379.453622 116.434423 
L 379.634036 118.531888 
L 379.814449 114.306391 
L 379.904656 116.859913 
L 379.994863 115.704779 
L 380.08507 112.938454 
L 380.265484 114.914351 
L 380.355691 113.455179 
L 380.445898 114.184823 
L 380.896932 123.183107 
L 381.077346 118.41032 
L 381.438173 127.742976 
L 381.52838 128.44217 
L 381.618587 127.226251 
L 381.799001 135.586126 
L 381.979414 128.290267 
L 382.069621 129.080579 
L 382.159828 129.202148 
L 382.250035 129.749439 
L 382.340242 173.008044 
L 382.430449 171.457637 
L 382.610863 170.940855 
L 382.881483 160.848162 
L 382.97169 162.155373 
L 383.152104 156.713842 
L 383.242311 156.805018 
L 383.422724 151.57629 
L 383.512931 152.305876 
L 383.603138 153.552303 
L 383.783552 151.91072 
L 384.144379 160.300987 
L 384.415 168.265706 
L 384.505207 168.660862 
L 384.595414 168.32649 
L 384.685621 168.539294 
L 384.866035 176.169583 
L 384.956241 176.108798 
L 385.046448 175.865603 
L 385.136655 176.503955 
L 385.226862 174.892822 
L 385.317069 175.409605 
L 385.497483 180.759902 
L 385.677896 178.388733 
L 385.768103 178.875123 
L 385.85831 178.814339 
L 385.948517 177.628755 
L 386.038724 178.145537 
L 386.128931 179.969531 
L 386.309345 178.267164 
L 386.399551 179.543925 
L 386.489758 178.236772 
L 386.670172 174.649626 
L 386.760379 174.710411 
L 386.940793 169.268879 
L 387.121206 173.980825 
L 387.30162 168.63047 
L 387.391827 169.208095 
L 387.482034 168.387275 
L 388.113482 152.640306 
L 388.203689 152.792267 
L 388.293896 151.515506 
L 388.384103 152.609914 
L 388.564516 158.051445 
L 388.835137 152.640306 
L 388.925344 152.549072 
L 389.015551 153.673871 
L 389.195965 152.70109 
L 389.286171 153.400284 
L 389.466585 149.782747 
L 389.646999 152.093131 
L 389.827413 144.88839 
L 389.91762 147.13799 
L 390.098033 135.038951 
L 390.18824 135.16052 
L 390.278447 138.656488 
L 390.368654 137.318885 
L 390.458861 142.365203 
L 390.819688 136.133301 
L 390.909895 136.072517 
L 391.000102 136.467731 
L 391.090309 135.890106 
L 391.270723 146.590757 
L 391.36093 144.736372 
L 391.451136 141.909262 
L 391.541343 142.152457 
L 391.811964 139.142879 
L 391.992378 137.774884 
L 392.172791 134.461326 
L 392.533619 140.662835 
L 392.623826 139.811681 
L 392.80424 132.576548 
L 392.984653 134.704521 
L 393.07486 132.30296 
L 393.165067 132.485371 
L 393.255274 133.42776 
L 393.345481 132.698175 
L 393.435688 133.73174 
L 393.525895 136.072517 
L 393.616101 135.555734 
L 393.706308 135.251696 
L 393.796515 136.254928 
L 393.976929 134.400542 
L 394.157343 138.352509 
L 394.698584 135.677302 
L 394.788791 136.467731 
L 394.969205 142.000439 
L 395.059411 140.480482 
L 395.149618 142.061223 
L 395.420239 153.278715 
L 395.69086 224.292152 
L 395.871273 213.287521 
L 395.96148 216.996235 
L 396.141894 209.213927 
L 396.322308 210.946744 
L 396.592928 207.20758 
L 396.773342 199.607683 
L 396.863549 199.911663 
L 397.224376 185.350278 
L 397.585204 143.885217 
L 397.765618 133.762132 
L 397.946031 131.026142 
L 398.216652 132.698175 
L 398.397066 140.936423 
L 398.487273 140.237287 
" clip-path="url(#peb8f4bff3d)" style="fill: none; stroke: #1f77b4; stroke-width: 1.5; stroke-linecap: square"/>
   </g>
   <g id="patch_3">
    <path d="M 57.6 307.584 
L 57.6 41.472 
" style="fill: none; stroke: #000000; stroke-width: 0.8; stroke-linejoin: miter; stroke-linecap: square"/>
   </g>
   <g id="patch_4">
    <path d="M 414.72 307.584 
L 414.72 41.472 
" style="fill: none; stroke: #000000; stroke-width: 0.8; stroke-linejoin: miter; stroke-linecap: square"/>
   </g>
   <g id="patch_5">
    <path d="M 57.6 307.584 
L 414.72 307.584 
" style="fill: none; stroke: #000000; stroke-width: 0.8; stroke-linejoin: miter; stroke-linecap: square"/>
   </g>
   <g id="patch_6">
    <path d="M 57.6 41.472 
L 414.72 41.472 
" style="fill: none; stroke: #000000; stroke-width: 0.8; stroke-linejoin: miter; stroke-linecap: square"/>
   </g>
   <g id="legend_1">
    <g id="patch_7">
     <path d="M 64.6 64.150125 
L 118.245312 64.150125 
Q 120.245312 64.150125 120.245312 62.150125 
L 120.245312 48.472 
Q 120.245312 46.472 118.245312 46.472 
L 64.6 46.472 
Q 62.6 46.472 62.6 48.472 
L 62.6 62.150125 
Q 62.6 64.150125 64.6 64.150125 
z
" style="fill: #ffffff; opacity: 0.8; stroke: #cccccc; stroke-linejoin: miter"/>
    </g>
    <g id="line2d_16">
     <path d="M 66.6 54.570438 
L 76.6 54.570438 
L 86.6 54.570438 
" style="fill: none; stroke: #1f77b4; stroke-width: 1.5; stroke-linecap: square"/>
    </g>
    <g id="text_15">
     <!-- set3 -->
     <g transform="translate(94.6 58.070438)scale(0.1 -0.1)">
      <defs>
       <path id="DejaVuSans-73" d="M 2834 3397 
L 2834 2853 
Q 2591 2978 2328 3040 
Q 2066 3103 1784 3103 
Q 1356 3103 1142 2972 
Q 928 2841 928 2578 
Q 928 2378 1081 2264 
Q 1234 2150 1697 2047 
L 1894 2003 
Q 2506 1872 2764 1633 
Q 3022 1394 3022 966 
Q 3022 478 2636 193 
Q 2250 -91 1575 -91 
Q 1294 -91 989 -36 
Q 684 19 347 128 
L 347 722 
Q 666 556 975 473 
Q 1284 391 1588 391 
Q 1994 391 2212 530 
Q 2431 669 2431 922 
Q 2431 1156 2273 1281 
Q 2116 1406 1581 1522 
L 1381 1569 
Q 847 1681 609 1914 
Q 372 2147 372 2553 
Q 372 3047 722 3315 
Q 1072 3584 1716 3584 
Q 2034 3584 2315 3537 
Q 2597 3491 2834 3397 
z
" transform="scale(0.015625)"/>
       <path id="DejaVuSans-65" d="M 3597 1894 
L 3597 1613 
L 953 1613 
Q 991 1019 1311 708 
Q 1631 397 2203 397 
Q 2534 397 2845 478 
Q 3156 559 3463 722 
L 3463 178 
Q 3153 47 2828 -22 
Q 2503 -91 2169 -91 
Q 1331 -91 842 396 
Q 353 884 353 1716 
Q 353 2575 817 3079 
Q 1281 3584 2069 3584 
Q 2775 3584 3186 3129 
Q 3597 2675 3597 1894 
z
M 3022 2063 
Q 3016 2534 2758 2815 
Q 2500 3097 2075 3097 
Q 1594 3097 1305 2825 
Q 1016 2553 972 2059 
L 3022 2063 
z
" transform="scale(0.015625)"/>
       <path id="DejaVuSans-74" d="M 1172 4494 
L 1172 3500 
L 2356 3500 
L 2356 3053 
L 1172 3053 
L 1172 1153 
Q 1172 725 1289 603 
Q 1406 481 1766 481 
L 2356 481 
L 2356 0 
L 1766 0 
Q 1100 0 847 248 
Q 594 497 594 1153 
L 594 3053 
L 172 3053 
L 172 3500 
L 594 3500 
L 594 4494 
L 1172 4494 
z
" transform="scale(0.015625)"/>
      </defs>
      <use xlink:href="#DejaVuSans-73"/>
      <use xlink:href="#DejaVuSans-65" x="52.099609"/>
      <use xlink:href="#DejaVuSans-74" x="113.623047"/>
      <use xlink:href="#DejaVuSans-33" x="152.832031"/>
     </g>
    </g>
   </g>
  </g>
 </g>
 <defs>
  <clipPath id="peb8f4bff3d">
   <rect x="57.6" y="41.472" width="357.12" height="266.112"/>
  </clipPath>
 </defs>
</svg>
