<?xml version="1.0" encoding="utf-8" standalone="no"?>
<!DOCTYPE svg PUBLIC "-//W3C//DTD SVG 1.1//EN"
  "http://www.w3.org/Graphics/SVG/1.1/DTD/svg11.dtd">
<svg xmlns:xlink="http://www.w3.org/1999/xlink" width="460.8pt" height="345.6pt" viewBox="0 0 460.8 345.6" xmlns="http://www.w3.org/2000/svg" version="1.1">
 <metadata>
  <rdf:RDF xmlns:dc="http://purl.org/dc/elements/1.1/" xmlns:cc="http://creativecommons.org/ns#" xmlns:rdf="http://www.w3.org/1999/02/22-rdf-syntax-ns#">
   <cc:Work>
    <dc:type rdf:resource="http://purl.org/dc/dcmitype/StillImage"/>
    <dc:date>2022-08-11T15:18:05.143305</dc:date>
    <dc:format>image/svg+xml</dc:format>
    <dc:creator>
     <cc:Agent>
      <dc:title>Matplotlib v3.5.2, https://matplotlib.org/</dc:title>
     </cc:Agent>
    </dc:creator>
   </cc:Work>
  </rdf:RDF>
 </metadata>
 <defs>
  <style type="text/css">*{stroke-linejoin: round; stroke-linecap: butt}</style>
 </defs>
 <g id="figure_1">
  <g id="patch_1">
   <path d="M 0 345.6 
L 460.8 345.6 
L 460.8 0 
L 0 0 
z
" style="fill: #ffffff"/>
  </g>
  <g id="axes_1">
   <g id="patch_2">
    <path d="M 57.6 307.584 
L 414.72 307.584 
L 414.72 41.472 
L 57.6 41.472 
z
" style="fill: #ffffff"/>
   </g>
   <g id="matplotlib.axis_1">
    <g id="xtick_1">
     <g id="line2d_1">
      <defs>
       <path id="m172dc550f8" d="M 0 0 
L 0 3.5 
" style="stroke: #000000; stroke-width: 0.8"/>
      </defs>
      <g>
       <use xlink:href="#m172dc550f8" x="73.832727" y="307.584" style="stroke: #000000; stroke-width: 0.8"/>
      </g>
     </g>
     <g id="text_1">
      <!-- 0 -->
      <g transform="translate(70.651477 322.182437)scale(0.1 -0.1)">
       <defs>
        <path id="DejaVuSans-30" d="M 2034 4250 
Q 1547 4250 1301 3770 
Q 1056 3291 1056 2328 
Q 1056 1369 1301 889 
Q 1547 409 2034 409 
Q 2525 409 2770 889 
Q 3016 1369 3016 2328 
Q 3016 3291 2770 3770 
Q 2525 4250 2034 4250 
z
M 2034 4750 
Q 2819 4750 3233 4129 
Q 3647 3509 3647 2328 
Q 3647 1150 3233 529 
Q 2819 -91 2034 -91 
Q 1250 -91 836 529 
Q 422 1150 422 2328 
Q 422 3509 836 4129 
Q 1250 4750 2034 4750 
z
" transform="scale(0.015625)"/>
       </defs>
       <use xlink:href="#DejaVuSans-30"/>
      </g>
     </g>
    </g>
    <g id="xtick_2">
     <g id="line2d_2">
      <g>
       <use xlink:href="#m172dc550f8" x="118.936165" y="307.584" style="stroke: #000000; stroke-width: 0.8"/>
      </g>
     </g>
     <g id="text_2">
      <!-- 500 -->
      <g transform="translate(109.392415 322.182437)scale(0.1 -0.1)">
       <defs>
        <path id="DejaVuSans-35" d="M 691 4666 
L 3169 4666 
L 3169 4134 
L 1269 4134 
L 1269 2991 
Q 1406 3038 1543 3061 
Q 1681 3084 1819 3084 
Q 2600 3084 3056 2656 
Q 3513 2228 3513 1497 
Q 3513 744 3044 326 
Q 2575 -91 1722 -91 
Q 1428 -91 1123 -41 
Q 819 9 494 109 
L 494 744 
Q 775 591 1075 516 
Q 1375 441 1709 441 
Q 2250 441 2565 725 
Q 2881 1009 2881 1497 
Q 2881 1984 2565 2268 
Q 2250 2553 1709 2553 
Q 1456 2553 1204 2497 
Q 953 2441 691 2322 
L 691 4666 
z
" transform="scale(0.015625)"/>
       </defs>
       <use xlink:href="#DejaVuSans-35"/>
       <use xlink:href="#DejaVuSans-30" x="63.623047"/>
       <use xlink:href="#DejaVuSans-30" x="127.246094"/>
      </g>
     </g>
    </g>
    <g id="xtick_3">
     <g id="line2d_3">
      <g>
       <use xlink:href="#m172dc550f8" x="164.039603" y="307.584" style="stroke: #000000; stroke-width: 0.8"/>
      </g>
     </g>
     <g id="text_3">
      <!-- 1000 -->
      <g transform="translate(151.314603 322.182437)scale(0.1 -0.1)">
       <defs>
        <path id="DejaVuSans-31" d="M 794 531 
L 1825 531 
L 1825 4091 
L 703 3866 
L 703 4441 
L 1819 4666 
L 2450 4666 
L 2450 531 
L 3481 531 
L 3481 0 
L 794 0 
L 794 531 
z
" transform="scale(0.015625)"/>
       </defs>
       <use xlink:href="#DejaVuSans-31"/>
       <use xlink:href="#DejaVuSans-30" x="63.623047"/>
       <use xlink:href="#DejaVuSans-30" x="127.246094"/>
       <use xlink:href="#DejaVuSans-30" x="190.869141"/>
      </g>
     </g>
    </g>
    <g id="xtick_4">
     <g id="line2d_4">
      <g>
       <use xlink:href="#m172dc550f8" x="209.143041" y="307.584" style="stroke: #000000; stroke-width: 0.8"/>
      </g>
     </g>
     <g id="text_4">
      <!-- 1500 -->
      <g transform="translate(196.418041 322.182437)scale(0.1 -0.1)">
       <use xlink:href="#DejaVuSans-31"/>
       <use xlink:href="#DejaVuSans-35" x="63.623047"/>
       <use xlink:href="#DejaVuSans-30" x="127.246094"/>
       <use xlink:href="#DejaVuSans-30" x="190.869141"/>
      </g>
     </g>
    </g>
    <g id="xtick_5">
     <g id="line2d_5">
      <g>
       <use xlink:href="#m172dc550f8" x="254.246479" y="307.584" style="stroke: #000000; stroke-width: 0.8"/>
      </g>
     </g>
     <g id="text_5">
      <!-- 2000 -->
      <g transform="translate(241.521479 322.182437)scale(0.1 -0.1)">
       <defs>
        <path id="DejaVuSans-32" d="M 1228 531 
L 3431 531 
L 3431 0 
L 469 0 
L 469 531 
Q 828 903 1448 1529 
Q 2069 2156 2228 2338 
Q 2531 2678 2651 2914 
Q 2772 3150 2772 3378 
Q 2772 3750 2511 3984 
Q 2250 4219 1831 4219 
Q 1534 4219 1204 4116 
Q 875 4013 500 3803 
L 500 4441 
Q 881 4594 1212 4672 
Q 1544 4750 1819 4750 
Q 2544 4750 2975 4387 
Q 3406 4025 3406 3419 
Q 3406 3131 3298 2873 
Q 3191 2616 2906 2266 
Q 2828 2175 2409 1742 
Q 1991 1309 1228 531 
z
" transform="scale(0.015625)"/>
       </defs>
       <use xlink:href="#DejaVuSans-32"/>
       <use xlink:href="#DejaVuSans-30" x="63.623047"/>
       <use xlink:href="#DejaVuSans-30" x="127.246094"/>
       <use xlink:href="#DejaVuSans-30" x="190.869141"/>
      </g>
     </g>
    </g>
    <g id="xtick_6">
     <g id="line2d_6">
      <g>
       <use xlink:href="#m172dc550f8" x="299.349916" y="307.584" style="stroke: #000000; stroke-width: 0.8"/>
      </g>
     </g>
     <g id="text_6">
      <!-- 2500 -->
      <g transform="translate(286.624916 322.182437)scale(0.1 -0.1)">
       <use xlink:href="#DejaVuSans-32"/>
       <use xlink:href="#DejaVuSans-35" x="63.623047"/>
       <use xlink:href="#DejaVuSans-30" x="127.246094"/>
       <use xlink:href="#DejaVuSans-30" x="190.869141"/>
      </g>
     </g>
    </g>
    <g id="xtick_7">
     <g id="line2d_7">
      <g>
       <use xlink:href="#m172dc550f8" x="344.453354" y="307.584" style="stroke: #000000; stroke-width: 0.8"/>
      </g>
     </g>
     <g id="text_7">
      <!-- 3000 -->
      <g transform="translate(331.728354 322.182437)scale(0.1 -0.1)">
       <defs>
        <path id="DejaVuSans-33" d="M 2597 2516 
Q 3050 2419 3304 2112 
Q 3559 1806 3559 1356 
Q 3559 666 3084 287 
Q 2609 -91 1734 -91 
Q 1441 -91 1130 -33 
Q 819 25 488 141 
L 488 750 
Q 750 597 1062 519 
Q 1375 441 1716 441 
Q 2309 441 2620 675 
Q 2931 909 2931 1356 
Q 2931 1769 2642 2001 
Q 2353 2234 1838 2234 
L 1294 2234 
L 1294 2753 
L 1863 2753 
Q 2328 2753 2575 2939 
Q 2822 3125 2822 3475 
Q 2822 3834 2567 4026 
Q 2313 4219 1838 4219 
Q 1578 4219 1281 4162 
Q 984 4106 628 3988 
L 628 4550 
Q 988 4650 1302 4700 
Q 1616 4750 1894 4750 
Q 2613 4750 3031 4423 
Q 3450 4097 3450 3541 
Q 3450 3153 3228 2886 
Q 3006 2619 2597 2516 
z
" transform="scale(0.015625)"/>
       </defs>
       <use xlink:href="#DejaVuSans-33"/>
       <use xlink:href="#DejaVuSans-30" x="63.623047"/>
       <use xlink:href="#DejaVuSans-30" x="127.246094"/>
       <use xlink:href="#DejaVuSans-30" x="190.869141"/>
      </g>
     </g>
    </g>
    <g id="xtick_8">
     <g id="line2d_8">
      <g>
       <use xlink:href="#m172dc550f8" x="389.556792" y="307.584" style="stroke: #000000; stroke-width: 0.8"/>
      </g>
     </g>
     <g id="text_8">
      <!-- 3500 -->
      <g transform="translate(376.831792 322.182437)scale(0.1 -0.1)">
       <use xlink:href="#DejaVuSans-33"/>
       <use xlink:href="#DejaVuSans-35" x="63.623047"/>
       <use xlink:href="#DejaVuSans-30" x="127.246094"/>
       <use xlink:href="#DejaVuSans-30" x="190.869141"/>
      </g>
     </g>
    </g>
   </g>
   <g id="matplotlib.axis_2">
    <g id="ytick_1">
     <g id="line2d_9">
      <defs>
       <path id="m682483afe3" d="M 0 0 
L -3.5 0 
" style="stroke: #000000; stroke-width: 0.8"/>
      </defs>
      <g>
       <use xlink:href="#m682483afe3" x="57.6" y="287.691868" style="stroke: #000000; stroke-width: 0.8"/>
      </g>
     </g>
     <g id="text_9">
      <!-- 3900 -->
      <g transform="translate(25.15 291.491087)scale(0.1 -0.1)">
       <defs>
        <path id="DejaVuSans-39" d="M 703 97 
L 703 672 
Q 941 559 1184 500 
Q 1428 441 1663 441 
Q 2288 441 2617 861 
Q 2947 1281 2994 2138 
Q 2813 1869 2534 1725 
Q 2256 1581 1919 1581 
Q 1219 1581 811 2004 
Q 403 2428 403 3163 
Q 403 3881 828 4315 
Q 1253 4750 1959 4750 
Q 2769 4750 3195 4129 
Q 3622 3509 3622 2328 
Q 3622 1225 3098 567 
Q 2575 -91 1691 -91 
Q 1453 -91 1209 -44 
Q 966 3 703 97 
z
M 1959 2075 
Q 2384 2075 2632 2365 
Q 2881 2656 2881 3163 
Q 2881 3666 2632 3958 
Q 2384 4250 1959 4250 
Q 1534 4250 1286 3958 
Q 1038 3666 1038 3163 
Q 1038 2656 1286 2365 
Q 1534 2075 1959 2075 
z
" transform="scale(0.015625)"/>
       </defs>
       <use xlink:href="#DejaVuSans-33"/>
       <use xlink:href="#DejaVuSans-39" x="63.623047"/>
       <use xlink:href="#DejaVuSans-30" x="127.246094"/>
       <use xlink:href="#DejaVuSans-30" x="190.869141"/>
      </g>
     </g>
    </g>
    <g id="ytick_2">
     <g id="line2d_10">
      <g>
       <use xlink:href="#m682483afe3" x="57.6" y="250.15504" style="stroke: #000000; stroke-width: 0.8"/>
      </g>
     </g>
     <g id="text_10">
      <!-- 4000 -->
      <g transform="translate(25.15 253.954259)scale(0.1 -0.1)">
       <defs>
        <path id="DejaVuSans-34" d="M 2419 4116 
L 825 1625 
L 2419 1625 
L 2419 4116 
z
M 2253 4666 
L 3047 4666 
L 3047 1625 
L 3713 1625 
L 3713 1100 
L 3047 1100 
L 3047 0 
L 2419 0 
L 2419 1100 
L 313 1100 
L 313 1709 
L 2253 4666 
z
" transform="scale(0.015625)"/>
       </defs>
       <use xlink:href="#DejaVuSans-34"/>
       <use xlink:href="#DejaVuSans-30" x="63.623047"/>
       <use xlink:href="#DejaVuSans-30" x="127.246094"/>
       <use xlink:href="#DejaVuSans-30" x="190.869141"/>
      </g>
     </g>
    </g>
    <g id="ytick_3">
     <g id="line2d_11">
      <g>
       <use xlink:href="#m682483afe3" x="57.6" y="212.618212" style="stroke: #000000; stroke-width: 0.8"/>
      </g>
     </g>
     <g id="text_11">
      <!-- 4100 -->
      <g transform="translate(25.15 216.417431)scale(0.1 -0.1)">
       <use xlink:href="#DejaVuSans-34"/>
       <use xlink:href="#DejaVuSans-31" x="63.623047"/>
       <use xlink:href="#DejaVuSans-30" x="127.246094"/>
       <use xlink:href="#DejaVuSans-30" x="190.869141"/>
      </g>
     </g>
    </g>
    <g id="ytick_4">
     <g id="line2d_12">
      <g>
       <use xlink:href="#m682483afe3" x="57.6" y="175.081384" style="stroke: #000000; stroke-width: 0.8"/>
      </g>
     </g>
     <g id="text_12">
      <!-- 4200 -->
      <g transform="translate(25.15 178.880603)scale(0.1 -0.1)">
       <use xlink:href="#DejaVuSans-34"/>
       <use xlink:href="#DejaVuSans-32" x="63.623047"/>
       <use xlink:href="#DejaVuSans-30" x="127.246094"/>
       <use xlink:href="#DejaVuSans-30" x="190.869141"/>
      </g>
     </g>
    </g>
    <g id="ytick_5">
     <g id="line2d_13">
      <g>
       <use xlink:href="#m682483afe3" x="57.6" y="137.544556" style="stroke: #000000; stroke-width: 0.8"/>
      </g>
     </g>
     <g id="text_13">
      <!-- 4300 -->
      <g transform="translate(25.15 141.343775)scale(0.1 -0.1)">
       <use xlink:href="#DejaVuSans-34"/>
       <use xlink:href="#DejaVuSans-33" x="63.623047"/>
       <use xlink:href="#DejaVuSans-30" x="127.246094"/>
       <use xlink:href="#DejaVuSans-30" x="190.869141"/>
      </g>
     </g>
    </g>
    <g id="ytick_6">
     <g id="line2d_14">
      <g>
       <use xlink:href="#m682483afe3" x="57.6" y="100.007728" style="stroke: #000000; stroke-width: 0.8"/>
      </g>
     </g>
     <g id="text_14">
      <!-- 4400 -->
      <g transform="translate(25.15 103.806947)scale(0.1 -0.1)">
       <use xlink:href="#DejaVuSans-34"/>
       <use xlink:href="#DejaVuSans-34" x="63.623047"/>
       <use xlink:href="#DejaVuSans-30" x="127.246094"/>
       <use xlink:href="#DejaVuSans-30" x="190.869141"/>
      </g>
     </g>
    </g>
    <g id="ytick_7">
     <g id="line2d_15">
      <g>
       <use xlink:href="#m682483afe3" x="57.6" y="62.4709" style="stroke: #000000; stroke-width: 0.8"/>
      </g>
     </g>
     <g id="text_15">
      <!-- 4500 -->
      <g transform="translate(25.15 66.270118)scale(0.1 -0.1)">
       <use xlink:href="#DejaVuSans-34"/>
       <use xlink:href="#DejaVuSans-35" x="63.623047"/>
       <use xlink:href="#DejaVuSans-30" x="127.246094"/>
       <use xlink:href="#DejaVuSans-30" x="190.869141"/>
      </g>
     </g>
    </g>
   </g>
   <g id="line2d_16">
    <path d="M 73.832727 197.603481 
L 73.922934 197.844134 
L 74.013141 196.929724 
L 74.193555 191.2992 
L 74.464175 198.710341 
L 74.644589 194.667983 
L 74.825003 198.373463 
L 74.91521 197.603481 
L 75.095624 199.047219 
L 75.18583 197.651685 
L 75.276037 198.325259 
L 75.456451 203.570884 
L 75.546658 204.052191 
L 75.907485 200.779632 
L 76.087899 197.555277 
L 76.268313 198.181013 
L 76.35852 198.181013 
L 76.62914 206.073278 
L 76.719347 204.581519 
L 76.899761 198.517891 
L 77.080175 206.410156 
L 77.260589 202.415819 
L 77.350795 203.13778 
L 77.441002 201.694042 
L 77.531209 202.127145 
L 77.621416 203.955783 
L 77.711623 203.811537 
L 77.892037 202.800902 
L 78.07245 204.918397 
L 78.252864 209.345837 
L 78.343071 207.998323 
L 78.523485 203.426455 
L 78.703899 207.035892 
L 78.884312 203.52268 
L 78.974519 203.859558 
L 79.154933 202.752698 
L 79.335347 204.100211 
L 79.51576 202.752698 
L 79.605967 202.993352 
L 79.696174 202.800902 
L 79.786381 204.533315 
L 79.966795 211.415128 
L 80.147209 206.169502 
L 80.327622 209.056979 
L 80.417829 208.527651 
L 80.68845 204.822172 
L 80.778657 205.592154 
L 80.95907 203.52268 
L 81.049277 203.763333 
L 81.229691 197.699706 
L 81.319898 197.988563 
L 81.500312 201.934696 
L 81.590519 202.175349 
L 81.861139 203.715312 
L 81.951346 202.800902 
L 82.13176 207.75767 
L 82.312174 203.859558 
L 82.492587 205.399521 
L 82.673001 205.062643 
L 82.763208 204.43709 
L 82.943622 205.832624 
L 83.124035 203.811537 
L 83.214242 204.340865 
L 83.394656 198.662137 
L 83.57507 203.52268 
L 83.665277 203.763333 
L 83.755484 203.13778 
L 83.935897 199.528526 
L 84.116311 204.43709 
L 84.296725 198.565912 
L 84.386932 199.432118 
L 84.477139 198.373463 
L 84.657552 190.047911 
L 84.747759 191.202975 
L 85.108587 199.768997 
L 85.198794 198.90279 
L 85.379207 196.544825 
L 85.559621 199.817201 
L 85.740035 197.170378 
L 86.010655 201.645838 
L 86.191069 201.838471 
L 86.281276 202.704677 
L 86.371483 201.790267 
L 86.551897 197.074153 
L 86.642104 198.469687 
L 86.73231 198.373463 
L 86.912724 200.394733 
L 87.093138 197.314807 
L 87.363759 204.725764 
L 87.544172 202.993352 
L 87.814793 209.490082 
L 87.905 209.056979 
L 88.085414 205.399521 
L 88.175621 206.747034 
L 88.265827 205.688378 
L 88.356034 202.945331 
L 88.446241 203.619088 
L 88.626655 209.345837 
L 88.716862 209.826961 
L 88.897276 207.180137 
L 88.987482 207.853894 
L 89.077689 209.490082 
L 89.34831 203.955783 
L 89.438517 204.870193 
L 89.618931 203.426455 
L 89.709137 203.715312 
L 89.889551 202.367799 
L 89.979758 203.234005 
L 90.069965 210.163839 
L 90.160172 209.730736 
L 90.250379 210.163839 
L 90.340586 210.019593 
L 90.430792 209.393857 
L 90.611206 211.607577 
L 90.79162 203.474659 
L 90.972034 208.960754 
L 91.062241 207.805873 
L 91.152447 208.960754 
L 91.242654 211.703802 
L 91.423068 203.955783 
L 91.513275 205.062643 
L 91.603482 206.26591 
L 91.874102 203.619088 
L 91.964309 202.752698 
L 92.144723 204.292661 
L 92.23493 203.041556 
L 92.415344 208.67208 
L 92.595757 202.897127 
L 92.685964 204.24464 
L 92.866378 207.420791 
L 92.956585 207.228341 
L 93.136999 210.789575 
L 93.317412 204.677743 
L 93.497826 205.880828 
L 93.67824 205.014622 
L 93.948861 208.575855 
L 94.039067 205.495929 
L 94.129274 206.843259 
L 94.219481 210.500717 
L 94.309688 210.260063 
L 94.399895 208.960754 
L 94.580309 211.126453 
L 94.760722 205.110847 
L 94.850929 207.37277 
L 95.031343 205.880828 
L 95.211757 209.586307 
L 95.301964 206.410156 
L 95.392171 207.37277 
L 95.482377 206.843259 
L 95.662791 201.597817 
L 96.023619 208.286997 
L 96.204032 203.234005 
L 96.384446 209.682715 
L 96.655067 203.185801 
L 96.745274 204.533315 
L 96.835481 204.43709 
L 96.925687 204.100211 
L 97.286515 205.54395 
L 97.466929 203.378434 
L 97.557136 203.619088 
L 97.647342 203.811537 
L 97.737549 203.667108 
L 97.917963 204.918397 
L 98.188584 203.089576 
L 98.368997 210.596942 
L 98.549411 202.993352 
L 98.639618 203.474659 
L 98.910239 205.255276 
L 99.090652 203.13778 
L 99.180859 203.185801 
L 99.271066 204.533315 
L 99.361273 204.003987 
L 99.541687 197.699706 
L 99.902514 201.212735 
L 100.082928 197.699706 
L 100.173135 197.988563 
L 100.263342 198.806566 
L 100.353549 198.758545 
L 100.533962 197.507256 
L 100.714376 201.694042 
L 100.89479 199.720976 
L 101.075204 205.447725 
L 101.436031 197.940359 
L 101.526238 198.85477 
L 101.706652 203.907762 
L 101.887066 204.822172 
L 102.157686 197.122174 
L 102.247893 199.09524 
L 102.3381 200.154079 
L 102.518514 197.74791 
L 102.698927 199.528526 
L 102.879341 198.229034 
L 102.969548 199.047219 
L 103.240169 197.122174 
L 103.420582 196.64105 
L 103.600996 192.742938 
L 103.961824 198.614116 
L 104.052031 199.09524 
L 104.142237 198.373463 
L 104.322651 205.207071 
L 104.503065 197.555277 
L 104.593272 198.325259 
L 104.683479 198.950995 
L 104.863892 197.844134 
L 104.954099 197.940359 
L 105.134513 199.239669 
L 105.314927 198.565912 
L 105.585548 199.96163 
L 105.675754 200.105875 
L 105.856168 197.555277 
L 105.946375 197.988563 
L 106.036582 197.507256 
L 106.216996 194.138472 
L 106.397409 203.859558 
L 106.577823 205.832624 
L 106.66803 205.784603 
L 106.938651 204.581519 
L 107.119064 203.234005 
L 107.209271 205.062643 
L 107.299478 209.490082 
L 107.389685 209.056979 
L 107.570099 203.378434 
L 107.660306 207.324566 
L 107.750513 207.132117 
L 107.930926 203.426455 
L 108.11134 204.003987 
L 108.291754 199.576547 
L 108.472168 204.533315 
L 108.562374 203.52268 
L 108.652581 203.715312 
L 108.742788 205.062643 
L 109.013409 201.164714 
L 109.193823 197.892155 
L 109.284029 198.614116 
L 109.374236 199.624751 
L 109.464443 197.699706 
L 109.55465 198.325259 
L 109.735064 204.677743 
L 109.915478 197.555277 
L 110.095891 202.993352 
L 110.186098 202.897127 
L 110.276305 202.800902 
L 110.456719 207.468995 
L 110.817546 202.848923 
L 110.907753 203.570884 
L 110.99796 206.891463 
L 111.088167 206.362135 
L 111.268581 202.127145 
L 111.358788 202.464023 
L 111.448994 202.078941 
L 111.629408 202.464023 
L 111.809822 205.399521 
L 111.900029 205.159051 
L 112.080443 203.811537 
L 112.170649 203.955783 
L 112.260856 203.763333 
L 112.44127 201.838471 
L 112.621684 198.999015 
L 112.802098 203.907762 
L 112.892304 201.597817 
L 112.982511 202.560248 
L 113.072718 205.207071 
L 113.162925 205.014622 
L 113.343339 203.763333 
L 113.433546 204.052191 
L 113.523753 203.811537 
L 113.613959 203.185801 
L 113.704166 203.234005 
L 113.974787 208.286997 
L 114.155201 206.795239 
L 114.335614 207.998323 
L 114.516028 193.753573 
L 114.606235 192.40606 
L 114.876856 194.379126 
L 115.057269 198.710341 
L 115.237683 192.791142 
L 115.418097 199.287873 
L 115.508304 197.507256 
L 115.778924 199.143444 
L 116.139752 210.548921 
L 116.320166 208.286997 
L 116.500579 210.115818 
L 116.680993 206.987688 
L 116.7712 207.517016 
L 116.861407 209.393857 
L 116.951614 209.345837 
L 117.041821 209.345837 
L 117.222234 213.243765 
L 117.492855 207.805873 
L 117.673269 211.318903 
L 117.943889 205.159051 
L 118.034096 203.570884 
L 118.124303 204.533315 
L 118.21451 207.56522 
L 118.304717 206.891463 
L 118.485131 203.474659 
L 118.755751 211.222678 
L 118.845958 211.703802 
L 118.936165 211.126453 
L 119.116579 209.538286 
L 119.296993 213.773276 
L 119.477406 210.8858 
L 119.567613 211.84823 
L 119.748027 208.816325 
L 119.838234 212.906887 
L 119.928441 212.762641 
L 120.108854 208.7201 
L 120.199061 210.115818 
L 120.289268 209.393857 
L 120.379475 210.404492 
L 120.559889 213.436398 
L 120.830509 203.955783 
L 121.010923 204.870193 
L 121.191337 203.13778 
L 121.461958 203.619088 
L 121.552164 203.715312 
L 121.732578 202.656473 
L 121.912992 198.325259 
L 122.003199 199.384097 
L 122.273819 204.918397 
L 122.454233 205.784603 
L 122.54444 196.929724 
L 122.634647 198.90279 
L 122.724854 202.271574 
L 122.815061 200.972081 
L 122.905268 197.74791 
L 123.085681 200.394733 
L 123.266095 197.988563 
L 123.446509 199.865405 
L 123.626923 196.592846 
L 123.807336 196.881703 
L 123.98775 192.21361 
L 124.168164 196.64105 
L 124.348578 198.132809 
L 124.438785 196.400396 
L 124.619198 201.501593 
L 124.799612 197.555277 
L 124.980026 199.624751 
L 125.070233 199.528526 
L 125.250646 192.261631 
L 125.43106 199.047219 
L 125.521267 198.229034 
L 125.611474 198.277238 
L 125.701681 200.105875 
L 125.882095 197.411031 
L 125.972301 197.555277 
L 126.152715 202.22337 
L 126.242922 198.325259 
L 126.333129 198.90279 
L 126.423336 203.859558 
L 126.513543 203.185801 
L 126.60375 202.127145 
L 126.693956 204.773968 
L 126.87437 198.999015 
L 126.964577 200.587182 
L 127.054784 200.442753 
L 127.235198 197.555277 
L 127.415611 194.523555 
L 127.505818 195.485986 
L 127.596025 195.678435 
L 127.686232 196.159743 
L 127.956853 210.163839 
L 128.04706 209.538286 
L 128.137266 209.971389 
L 128.31768 214.158175 
L 128.407887 217.141877 
L 128.498094 215.842567 
L 128.678508 209.345837 
L 128.768715 210.308267 
L 129.039335 202.945331 
L 129.219749 206.506381 
L 129.309956 206.073278 
L 129.400163 204.340865 
L 129.49037 204.389069 
L 129.580576 204.918397 
L 129.670783 204.389069 
L 129.76099 204.773968 
L 129.851197 203.955783 
L 130.121818 197.411031 
L 130.392438 199.384097 
L 130.482645 198.710341 
L 130.572852 199.720976 
L 130.663059 198.806566 
L 130.753266 198.999015 
L 130.93368 204.052191 
L 131.023886 201.886492 
L 131.114093 202.367799 
L 131.2043 204.003987 
L 131.384714 201.549613 
L 131.565128 203.282209 
L 131.655335 202.078941 
L 131.745541 203.570884 
L 131.835748 202.800902 
L 132.016162 195.53419 
L 132.196576 198.277238 
L 132.557403 196.496621 
L 132.737817 198.181013 
L 132.828024 197.218398 
L 133.008438 201.212735 
L 133.098645 199.287873 
L 133.188851 199.480322 
L 133.279058 201.453389 
L 133.459472 197.314807 
L 133.639886 204.340865 
L 133.730093 202.993352 
L 133.910506 197.988563 
L 134.000713 199.143444 
L 134.09092 198.710341 
L 134.361541 195.004862 
L 134.541955 192.40606 
L 134.632161 193.272266 
L 134.812575 198.565912 
L 134.902782 198.373463 
L 134.992989 197.844134 
L 135.173403 199.672772 
L 135.353816 197.362827 
L 135.714644 201.212735 
L 135.804851 200.683407 
L 135.895058 198.85477 
L 135.985265 199.335893 
L 136.075471 199.287873 
L 136.255885 197.892155 
L 136.346092 198.181013 
L 136.526506 202.271574 
L 136.70692 197.170378 
L 136.797126 197.218398 
L 136.97754 202.560248 
L 137.067747 201.645838 
L 137.248161 196.544825 
L 137.338368 198.85477 
L 137.428575 198.614116 
L 137.518781 198.806566 
L 137.789402 204.677743 
L 137.969816 197.988563 
L 138.060023 198.662137 
L 138.15023 198.662137 
L 138.240436 197.170378 
L 138.42085 201.453389 
L 138.511057 198.950995 
L 138.601264 199.09524 
L 138.871885 206.506381 
L 138.962091 207.709466 
L 139.142505 203.234005 
L 139.322919 205.54395 
L 139.503333 203.715312 
L 139.59354 204.870193 
L 139.773953 201.790267 
L 139.86416 202.464023 
L 139.954367 201.790267 
L 140.134781 196.015314 
L 140.495608 203.13778 
L 140.766229 198.469687 
L 140.856436 199.335893 
L 141.03685 194.042248 
L 141.127057 191.732303 
L 141.217263 191.876732 
L 141.30747 192.309835 
L 141.487884 189.614808 
L 141.668298 198.084788 
L 141.938918 191.395425 
L 142.119332 193.031612 
L 142.209539 192.40606 
L 142.389953 197.074153 
L 142.48016 196.785295 
L 142.75078 192.40606 
L 142.931194 193.657349 
L 143.111608 190.336769 
L 143.292022 192.646714 
L 143.472435 190.962322 
L 143.562642 191.347404 
L 143.743056 188.219274 
L 143.833263 189.374338 
L 144.013677 185.668676 
L 144.103883 185.909329 
L 144.284297 185.620655 
L 144.645125 192.358039 
L 144.735332 191.491649 
L 144.915745 198.565912 
L 145.005952 196.689071 
L 145.186366 191.876732 
L 145.36678 196.64105 
L 145.456987 195.389761 
L 145.547193 191.828528 
L 145.727607 198.517891 
L 145.817814 198.084788 
L 145.908021 196.929724 
L 146.178642 199.576547 
L 146.268848 199.287873 
L 146.359055 199.432118 
L 146.449262 199.335893 
L 146.629676 197.603481 
L 146.719883 197.651685 
L 146.81009 198.084788 
L 146.900297 211.078249 
L 146.990503 210.019593 
L 147.08071 210.067614 
L 147.261124 214.302513 
L 147.441538 211.511352 
L 147.531745 213.09952 
L 147.712158 210.596942 
L 147.892572 216.660661 
L 147.982779 215.794363 
L 148.163193 209.008958 
L 148.2534 210.982024 
L 148.794641 198.614116 
L 148.884848 198.421666 
L 148.975055 198.469687 
L 149.155468 199.528526 
L 149.335882 204.581519 
L 149.426089 203.667108 
L 149.606503 198.036584 
L 149.69671 199.528526 
L 149.786917 198.758545 
L 149.877123 198.999015 
L 150.057537 203.13778 
L 150.147744 202.752698 
L 150.328158 205.929032 
L 150.508572 202.945331 
L 150.598778 204.918397 
L 150.688985 204.581519 
L 150.779192 204.677743 
L 150.959606 211.366924 
L 151.049813 211.318903 
L 151.14002 211.463148 
L 151.230227 211.126453 
L 151.41064 208.7201 
L 151.591054 211.078249 
L 151.681261 210.115818 
L 151.861675 207.132117 
L 151.951882 208.527651 
L 152.132295 207.180137 
L 152.312709 210.452696 
L 152.493123 209.490082 
L 152.673537 207.950119 
L 152.944157 210.308267 
L 153.124571 207.56522 
L 153.304985 211.222678 
L 153.395192 210.837596 
L 153.485398 209.634511 
L 153.575605 210.019593 
L 153.665812 211.222678 
L 153.756019 210.93382 
L 153.936433 208.575855 
L 154.02664 208.7201 
L 154.116847 209.249612 
L 154.207053 208.960754 
L 154.29726 207.950119 
L 154.477674 215.650026 
L 154.658088 210.212043 
L 154.838502 214.398829 
L 154.928708 210.404492 
L 155.109122 199.287873 
L 155.199329 198.469687 
L 155.289536 198.710341 
L 155.46995 196.592846 
L 155.650363 202.512228 
L 155.830777 197.555277 
L 156.011191 201.934696 
L 156.101398 201.11651 
L 156.191605 203.570884 
L 156.281812 202.608452 
L 156.372018 198.950995 
L 156.462225 200.154079 
L 156.732846 208.479447 
L 156.91326 203.667108 
L 157.003467 205.54395 
L 157.093673 205.3515 
L 157.364294 198.85477 
L 157.454501 200.779632 
L 157.544708 204.581519 
L 157.634915 203.52268 
L 157.725122 205.159051 
L 157.815329 210.500717 
L 157.905535 208.67208 
L 158.085949 200.490958 
L 158.266363 208.768304 
L 158.446777 203.282209 
L 158.536984 203.715312 
L 158.62719 203.715312 
L 158.717397 203.426455 
L 158.807604 205.255276 
L 158.897811 205.062643 
L 159.078225 202.704677 
L 159.439052 210.404492 
L 159.529259 209.442061 
L 159.709673 207.132117 
L 159.890087 210.8858 
L 160.0705 209.008958 
L 160.160707 209.153204 
L 160.341121 207.035892 
L 160.431328 209.345837 
L 160.701949 204.485294 
L 160.792155 204.966418 
L 160.882362 204.485294 
L 161.152983 213.14754 
L 161.333397 210.067614 
L 161.423604 210.8858 
L 161.51381 210.645146 
L 161.784431 208.864529 
L 161.874638 209.105183 
L 161.964845 209.682715 
L 162.145259 207.75767 
L 162.415879 202.993352 
L 162.506086 203.234005 
L 162.596293 204.148415 
L 162.6865 203.811537 
L 162.776707 204.773968 
L 162.866914 206.939484 
L 162.95712 206.747034 
L 163.047327 206.65081 
L 163.137534 202.897127 
L 163.317948 204.292661 
L 163.588569 202.993352 
L 163.678775 203.041556 
L 163.768982 203.282209 
L 163.859189 202.993352 
L 163.949396 203.041556 
L 164.12981 205.303296 
L 164.310224 203.619088 
L 164.40043 204.389069 
L 164.580844 197.507256 
L 164.761258 203.33023 
L 164.851465 202.656473 
L 165.031879 198.132809 
L 165.122085 198.999015 
L 165.212292 201.30896 
L 165.392706 198.229034 
L 165.482913 198.373463 
L 165.663327 198.373463 
L 165.84374 190.673647 
L 165.933947 192.454264 
L 166.114361 197.892155 
L 166.204568 197.266603 
L 166.294775 199.143444 
L 166.384982 198.950995 
L 166.565395 196.063518 
L 166.745809 199.720976 
L 166.926223 196.207947 
L 167.106637 200.00965 
L 167.196844 199.817201 
L 167.557671 203.426455 
L 167.738085 196.929724 
L 167.828292 197.79593 
L 168.008705 199.576547 
L 168.189119 197.459052 
L 168.279326 196.496621 
L 168.369533 197.940359 
L 168.549947 203.715312 
L 168.73036 201.694042 
L 168.910774 204.629539 
L 169.000981 204.822172 
L 169.091188 205.54395 
L 169.271602 202.993352 
L 169.361809 204.629539 
L 169.542222 198.421666 
L 169.812843 203.474659 
L 169.90305 203.811537 
L 170.083464 201.357164 
L 170.17367 201.742246 
L 170.354084 203.907762 
L 170.534498 198.614116 
L 170.624705 199.143444 
L 170.714912 198.950995 
L 170.895325 196.400396 
L 170.985532 197.025949 
L 171.075739 196.881703 
L 171.165946 196.977928 
L 171.34636 202.560248 
L 171.436567 202.656473 
L 171.526774 200.2021 
L 171.61698 200.779632 
L 171.707187 204.725764 
L 171.797394 204.003987 
L 171.977808 197.459052 
L 172.068015 199.480322 
L 172.158222 199.143444 
L 172.248429 199.817201 
L 172.338635 203.619088 
L 172.428842 203.185801 
L 172.609256 197.074153 
L 172.699463 197.844134 
L 172.78967 197.555277 
L 172.879877 197.603481 
L 172.970084 197.507256 
L 173.06029 197.218398 
L 173.150497 198.132809 
L 173.240704 197.170378 
L 173.421118 192.358039 
L 173.601532 199.384097 
L 173.781945 193.079816 
L 173.962359 198.421666 
L 174.142773 196.977928 
L 174.23298 198.132809 
L 174.323187 198.084788 
L 174.5036 196.929724 
L 174.593807 197.025949 
L 174.774221 196.64105 
L 174.954635 197.459052 
L 175.044842 197.314807 
L 175.225256 197.651685 
L 175.405669 199.432118 
L 175.495876 198.85477 
L 175.586083 200.250304 
L 175.766497 204.340865 
L 175.946911 198.469687 
L 176.037117 199.432118 
L 176.217531 198.181013 
L 176.307738 201.068489 
L 176.397945 200.731611 
L 176.488152 197.892155 
L 176.668566 200.394733 
L 176.848979 195.774844 
L 177.029393 197.218398 
L 177.209807 200.779632 
L 177.390221 197.79593 
L 177.570634 204.43709 
L 177.660841 202.656473 
L 177.841255 197.170378 
L 177.931462 199.287873 
L 178.021669 198.999015 
L 178.111876 199.287873 
L 178.292289 203.13778 
L 178.472703 203.041556 
L 178.56291 202.848923 
L 178.833531 198.277238 
L 179.013944 203.33023 
L 179.104151 202.848923 
L 179.194358 201.982716 
L 179.284565 202.848923 
L 179.374772 199.09524 
L 179.555186 208.816325 
L 179.825806 202.800902 
L 180.00622 203.763333 
L 180.096427 205.207071 
L 180.186634 204.196436 
L 180.367047 201.501593 
L 180.457254 202.512228 
L 180.547461 202.367799 
L 180.727875 197.122174 
L 180.908289 199.143444 
L 180.998496 198.710341 
L 181.178909 198.325259 
L 181.269116 198.229034 
L 181.539737 198.517891 
L 181.629944 198.325259 
L 181.720151 198.758545 
L 181.900564 202.704677 
L 182.080978 201.357164 
L 182.261392 205.303296 
L 182.441806 201.838471 
L 182.532012 201.645838 
L 182.622219 199.817201 
L 182.712426 200.779632 
L 182.89284 204.581519 
L 182.983047 204.485294 
L 183.073254 204.822172 
L 183.253667 200.683407 
L 183.343874 198.517891 
L 183.434081 198.85477 
L 183.614495 202.175349 
L 183.704702 201.934696 
L 183.885116 202.464023 
L 183.975322 202.415819 
L 184.155736 204.533315 
L 184.33615 197.844134 
L 184.426357 198.469687 
L 184.516564 199.09524 
L 184.787184 196.64105 
L 184.877391 196.111722 
L 185.057805 203.089576 
L 185.238219 200.92406 
L 185.508839 204.485294 
L 185.599046 204.43709 
L 185.77946 199.287873 
L 185.869667 199.913426 
L 185.959874 202.704677 
L 186.140287 196.352192 
L 186.320701 206.073278 
L 186.501115 198.036584 
L 186.861942 204.052191 
L 187.042356 199.865405 
L 187.132563 200.92406 
L 187.312977 197.892155 
L 187.403184 199.09524 
L 187.493391 203.763333 
L 187.583597 203.715312 
L 187.854218 207.132117 
L 188.034632 202.656473 
L 188.215046 204.148415 
L 188.305252 202.271574 
L 188.395459 203.859558 
L 188.575873 210.163839 
L 188.756287 201.30896 
L 188.936701 209.538286 
L 189.117114 203.089576 
L 189.207321 203.185801 
L 189.297528 205.062643 
L 189.477942 202.22337 
L 189.658356 203.955783 
L 189.748562 203.33023 
L 189.838769 203.426455 
L 189.928976 204.052191 
L 190.10939 202.367799 
L 190.199597 202.608452 
L 190.380011 198.084788 
L 190.470217 198.565912 
L 190.560424 199.384097 
L 190.650631 197.892155 
L 190.740838 199.384097 
L 190.921252 204.581519 
L 191.282079 198.806566 
L 191.372286 198.710341 
L 191.642907 204.773968 
L 191.733114 204.677743 
L 191.913527 199.480322 
L 192.003734 200.105875 
L 192.184148 205.3515 
L 192.274355 204.485294 
L 192.454769 197.892155 
L 192.544976 199.09524 
L 192.635183 202.22337 
L 192.815596 199.817201 
L 192.99601 204.918397 
L 193.176424 203.859558 
L 193.266631 203.763333 
L 193.356838 202.415819 
L 193.537251 203.52268 
L 193.807872 197.988563 
L 194.168699 202.848923 
L 194.258906 204.052191 
L 194.43932 202.704677 
L 194.619734 204.677743 
L 194.800148 198.614116 
L 194.890354 200.2021 
L 195.070768 205.110847 
L 195.251182 204.196436 
L 195.341389 204.24464 
L 195.431596 204.822172 
L 195.521803 204.629539 
L 195.612009 210.452696 
L 195.702216 210.019593 
L 195.792423 210.019593 
L 195.972837 209.297633 
L 196.063044 209.490082 
L 196.243458 210.548921 
L 196.333664 209.634511 
L 196.423871 210.596942 
L 196.514078 213.195744 
L 196.604285 212.858866 
L 196.784699 210.308267 
L 196.874906 210.356288 
L 197.055319 210.260063 
L 197.145526 210.789575 
L 197.32594 217.238101 
L 197.506354 212.23313 
L 197.596561 213.388194 
L 197.686768 212.185109 
L 197.867181 207.950119 
L 197.957388 208.527651 
L 198.137802 210.8858 
L 198.228009 210.982024 
L 198.408423 217.526867 
L 198.498629 215.457576 
L 198.679043 207.950119 
L 198.859457 212.521987 
L 199.039871 209.345837 
L 199.130078 209.538286 
L 199.220284 209.345837 
L 199.310491 208.816325 
L 199.400698 209.634511 
L 199.490905 209.153204 
L 199.581112 206.987688 
L 199.671319 207.324566 
L 199.851733 209.971389 
L 199.941939 210.404492 
L 200.032146 212.955091 
L 200.122353 212.810662 
L 200.302767 209.538286 
L 200.483181 211.318903 
L 200.663594 209.008958 
L 200.753801 209.77894 
L 200.934215 207.37277 
L 201.024422 209.249612 
L 201.114629 209.105183 
L 201.295043 203.811537 
L 201.385249 206.891463 
L 201.475456 206.843259 
L 201.565663 206.795239 
L 201.746077 211.992659 
L 201.926491 208.816325 
L 202.016698 209.105183 
L 202.106904 208.816325 
L 202.287318 206.313931 
L 202.377525 203.715312 
L 202.467732 204.292661 
L 202.557939 207.613241 
L 202.648146 207.083913 
L 203.008973 197.940359 
L 203.09918 199.047219 
L 203.279594 202.464023 
L 203.369801 201.982716 
L 203.550214 204.485294 
L 203.640421 203.570884 
L 203.820835 210.212043 
L 203.911042 211.318903 
L 204.181663 210.019593 
L 204.271869 210.067614 
L 204.452283 209.297633 
L 204.54249 209.586307 
L 204.632697 210.741371 
L 204.722904 210.452696 
L 205.083731 203.474659 
L 205.173938 203.041556 
L 205.444559 207.998323 
L 205.624973 203.282209 
L 205.715179 203.52268 
L 205.895593 205.3515 
L 206.166214 203.474659 
L 206.256421 204.773968 
L 206.346628 203.33023 
L 206.436834 198.758545 
L 206.527041 198.806566 
L 206.707455 204.581519 
L 206.797662 203.715312 
L 206.887869 203.859558 
L 207.068283 202.945331 
L 207.158489 203.13778 
L 207.338903 203.041556 
L 207.42911 203.234005 
L 207.609524 204.100211 
L 207.789938 203.763333 
L 207.970351 204.052191 
L 208.060558 204.340865 
L 208.331179 197.699706 
L 208.421386 198.85477 
L 208.511593 199.335893 
L 208.782213 203.378434 
L 208.87242 202.560248 
L 209.143041 210.596942 
L 209.233248 208.816325 
L 209.413661 213.003295 
L 209.503868 210.500717 
L 209.594075 210.93382 
L 209.684282 212.666416 
L 209.954903 206.699014 
L 210.135316 204.340865 
L 210.496144 207.998323 
L 210.766765 204.196436 
L 210.947178 207.517016 
L 211.127592 203.089576 
L 211.217799 203.282209 
L 211.398213 202.319595 
L 211.578626 203.570884 
L 211.668833 202.848923 
L 211.939454 197.170378 
L 212.210075 200.442753 
L 212.570902 196.544825 
L 212.661109 196.592846 
L 212.841523 198.710341 
L 212.93173 197.79593 
L 213.112143 198.950995 
L 213.292557 194.186677 
L 213.382764 196.833499 
L 213.472971 196.689071 
L 213.653385 192.117386 
L 213.743591 193.994227 
L 213.924005 191.684282 
L 214.014212 191.876732 
L 214.104419 193.561124 
L 214.194626 193.51292 
L 214.284833 192.21361 
L 214.465246 195.293536 
L 214.555453 193.176041 
L 214.735867 198.277238 
L 214.826074 197.988563 
L 214.916281 197.940359 
L 215.006488 196.785295 
L 215.096695 193.994227 
L 215.186901 194.667983 
L 215.277108 196.833499 
L 215.367315 196.544825 
L 215.457522 196.304171 
L 215.637936 196.592846 
L 215.81835 197.74791 
L 215.908556 197.555277 
L 216.08897 198.229034 
L 216.269384 198.517891 
L 216.449798 197.266603 
L 216.630211 197.651685 
L 216.720418 197.266603 
L 216.810625 197.507256 
L 216.900832 198.277238 
L 216.991039 198.132809 
L 217.081246 197.266603 
L 217.26166 198.758545 
L 217.442073 192.117386 
L 217.712694 197.74791 
L 217.893108 197.074153 
L 217.983315 197.362827 
L 218.163728 199.239669 
L 218.253935 197.844134 
L 218.434349 193.609145 
L 218.614763 197.892155 
L 218.795176 198.469687 
L 218.97559 196.255967 
L 219.065797 195.871068 
L 219.246211 193.079816 
L 219.336418 193.368491 
L 219.426625 192.646714 
L 219.607038 198.229034 
L 219.697245 197.892155 
L 219.787452 197.122174 
L 219.877659 197.411031 
L 220.14828 204.966418 
L 220.328693 202.560248 
L 220.4189 203.570884 
L 220.599314 202.512228 
L 220.689521 203.667108 
L 220.960141 201.694042 
L 221.140555 198.469687 
L 221.230762 198.325259 
L 221.320969 198.90279 
L 221.501383 203.619088 
L 221.59159 203.282209 
L 221.681796 203.33023 
L 221.772003 203.619088 
L 221.86221 201.453389 
L 221.952417 201.501593 
L 222.042624 202.800902 
L 222.223038 199.239669 
L 222.313245 199.768997 
L 222.493658 201.212735 
L 222.674072 199.143444 
L 222.854486 204.533315 
L 223.215313 198.614116 
L 223.485934 203.041556 
L 223.576141 204.773968 
L 223.666348 204.677743 
L 223.846761 197.074153 
L 223.936968 198.181013 
L 224.027175 201.357164 
L 224.117382 200.683407 
L 224.207589 198.277238 
L 224.388003 199.528526 
L 224.47821 198.469687 
L 224.658623 200.731611 
L 224.929244 196.496621 
L 225.019451 197.074153 
L 225.109658 197.555277 
L 225.199865 197.218398 
L 225.380278 192.309835 
L 225.560692 196.977928 
L 225.650899 196.833499 
L 225.741106 196.255967 
L 225.92152 199.576547 
L 226.101933 204.389069 
L 226.282347 197.651685 
L 226.462761 198.469687 
L 226.643175 198.90279 
L 226.733381 197.988563 
L 226.913795 200.298508 
L 227.094209 196.689071 
L 227.274623 198.950995 
L 227.36483 198.421666 
L 227.455037 198.565912 
L 227.545243 198.469687 
L 227.725657 199.287873 
L 227.906071 197.314807 
L 227.996278 197.074153 
L 228.176692 204.43709 
L 228.266898 204.292661 
L 228.447312 204.822172 
L 228.627726 202.848923 
L 228.717933 202.608452 
L 228.80814 202.656473 
L 229.168967 204.581519 
L 229.349381 202.415819 
L 229.439588 203.378434 
L 229.529795 203.33023 
L 229.800415 199.528526 
L 229.890622 200.2021 
L 230.071036 198.132809 
L 230.341657 200.683407 
L 230.52207 203.859558 
L 230.973105 197.362827 
L 231.424139 204.24464 
L 231.514346 204.43709 
L 231.69476 203.185801 
L 231.96538 204.485294 
L 232.055587 204.918397 
L 232.326208 209.490082 
L 232.506622 203.955783 
L 232.596828 204.725764 
L 232.777242 210.260063 
L 233.047863 204.43709 
L 233.13807 205.110847 
L 233.228277 204.918397 
L 233.318483 205.592154 
L 233.589104 210.163839 
L 233.679311 210.308267 
L 234.040138 209.77894 
L 234.220552 208.431426 
L 234.310759 208.575855 
L 234.761793 213.532622 
L 235.032414 211.463148 
L 235.212828 210.308267 
L 235.303035 210.115818 
L 235.393242 210.308267 
L 235.663862 217.286214 
L 235.754069 216.949427 
L 235.844276 215.89068 
L 236.02469 217.911858 
L 236.114897 216.756886 
L 236.29531 202.560248 
L 236.565931 198.084788 
L 236.656138 198.373463 
L 236.836552 203.234005 
L 237.016965 198.710341 
L 237.197379 199.720976 
L 237.287586 200.298508 
L 237.377793 202.030921 
L 237.558207 197.555277 
L 237.648413 197.699706 
L 237.919034 204.533315 
L 238.099448 200.875856 
L 238.189655 201.212735 
L 238.460275 196.304171 
L 239.001517 202.848923 
L 239.18193 197.122174 
L 239.272137 198.229034 
L 239.542758 204.966418 
L 239.813378 197.362827 
L 239.903585 198.614116 
L 239.993792 199.239669 
L 240.083999 198.036584 
L 240.174206 199.384097 
L 240.444827 205.303296 
L 240.535033 205.495929 
L 240.62524 205.399521 
L 240.895861 202.752698 
L 241.076275 205.447725 
L 241.437102 198.662137 
L 241.527309 198.132809 
L 241.707723 204.340865 
L 241.978343 199.865405 
L 242.06855 197.892155 
L 242.158757 199.720976 
L 242.339171 204.918397 
L 242.429378 203.859558 
L 242.609792 204.629539 
L 242.790205 203.13778 
L 242.880412 203.185801 
L 242.970619 202.415819 
L 243.151033 203.13778 
L 243.421653 199.672772 
L 243.602067 194.475351 
L 243.782481 198.036584 
L 243.872688 197.555277 
L 244.053102 201.886492 
L 244.233515 197.940359 
L 244.413929 209.586307 
L 244.504136 210.93382 
L 244.68455 209.105183 
L 244.774757 208.912733 
L 244.864963 207.661445 
L 244.95517 207.805873 
L 245.045377 207.661445 
L 245.135584 206.26591 
L 245.315998 210.019593 
L 245.496412 203.089576 
L 245.586619 204.24464 
L 245.676825 203.955783 
L 245.767032 202.752698 
L 245.947446 208.238977 
L 246.12786 204.822172 
L 246.218067 204.725764 
L 246.308274 204.43709 
L 246.488687 207.132117 
L 246.669101 204.43709 
L 246.759308 205.3515 
L 246.849515 203.619088 
L 247.029929 195.774844 
L 247.300549 204.148415 
L 247.390756 202.993352 
L 247.57117 205.399521 
L 247.751584 201.357164 
L 247.931997 204.43709 
L 248.022204 203.234005 
L 248.112411 203.715312 
L 248.202618 205.736399 
L 248.292825 205.592154 
L 248.473239 203.811537 
L 248.653652 210.163839 
L 248.924273 203.282209 
L 249.01448 205.062643 
L 249.194894 204.100211 
L 249.2851 206.699014 
L 249.375307 206.169502 
L 249.555721 198.084788 
L 249.736135 203.715312 
L 249.916549 201.886492 
L 250.006755 202.560248 
L 250.096962 201.597817 
L 250.187169 201.742246 
L 250.277376 202.512228 
L 250.367583 201.838471 
L 250.45779 201.982716 
L 250.547997 202.078941 
L 250.72841 196.111722 
L 250.818617 197.555277 
L 250.999031 204.292661 
L 251.179445 198.85477 
L 251.269652 199.143444 
L 251.359859 199.817201 
L 251.720686 196.881703 
L 251.810893 197.603481 
L 251.9011 197.892155 
L 252.081514 196.304171 
L 252.261927 197.892155 
L 252.352134 197.603481 
L 252.532548 203.52268 
L 252.622755 203.715312 
L 252.803169 202.367799 
L 252.983582 204.629539 
L 253.163996 200.827836 
L 253.34441 204.533315 
L 253.524824 203.33023 
L 253.705237 204.581519 
L 253.885651 203.185801 
L 254.156272 204.629539 
L 254.336685 200.635386 
L 254.426892 201.164714 
L 254.517099 202.752698 
L 254.607306 202.22337 
L 254.78772 205.255276 
L 254.968134 201.020285 
L 255.148547 204.629539 
L 255.238754 203.570884 
L 255.328961 204.148415 
L 255.509375 207.902098 
L 255.689789 203.570884 
L 255.779995 206.65081 
L 255.870202 205.880828 
L 255.960409 203.570884 
L 256.050616 203.619088 
L 256.140823 203.763333 
L 256.321237 205.495929 
L 256.411444 204.003987 
L 256.50165 204.533315 
L 256.682064 210.019593 
L 256.772271 209.297633 
L 256.952685 210.500717 
L 257.042892 210.212043 
L 257.223305 210.019593 
L 257.313512 208.479447 
L 257.403719 208.575855 
L 257.493926 210.837596 
L 257.584133 209.393857 
L 257.764547 203.185801 
L 257.854754 204.822172 
L 258.035167 197.603481 
L 258.125374 198.084788 
L 258.305788 206.987688 
L 258.395995 206.313931 
L 258.576409 201.405368 
L 258.756822 204.966418 
L 258.937236 200.875856 
L 259.11765 203.955783 
L 259.298064 200.875856 
L 259.478477 204.100211 
L 259.658891 204.485294 
L 259.839305 201.357164 
L 260.019719 203.378434 
L 260.109925 204.340865 
L 260.200132 204.148415 
L 260.290339 203.426455 
L 260.470753 205.207071 
L 260.56096 199.96163 
L 260.741374 205.255276 
L 261.102201 197.122174 
L 261.282615 198.999015 
L 261.372822 197.507256 
L 261.463029 197.651685 
L 261.553235 197.844134 
L 261.733649 199.480322 
L 261.914063 191.587874 
L 262.00427 191.828528 
L 262.184684 196.64105 
L 262.27489 195.967293 
L 262.455304 190.577423 
L 262.635718 192.887367 
L 262.725925 191.443629 
L 263.086752 193.32047 
L 263.267166 192.839163 
L 263.44758 196.785295 
L 263.627994 191.684282 
L 263.808407 190.914301 
L 264.079028 193.609145 
L 264.259442 198.132809 
L 264.530062 190.432994 
L 264.800683 198.614116 
L 264.89089 197.411031 
L 264.981097 198.421666 
L 265.071304 198.373463 
L 265.161511 196.496621 
L 265.341924 198.277238 
L 265.522338 190.962322 
L 265.702752 198.421666 
L 265.973372 191.347404 
L 266.243993 198.132809 
L 266.3342 197.74791 
L 266.424407 197.79593 
L 266.514614 197.362827 
L 266.695027 204.677743 
L 266.785234 202.993352 
L 266.965648 195.822864 
L 267.146062 197.699706 
L 267.236269 197.362827 
L 267.326476 196.592846 
L 267.506889 200.2021 
L 267.687303 197.555277 
L 267.77751 199.239669 
L 267.957924 197.651685 
L 268.048131 198.277238 
L 268.228544 193.031612 
L 268.408958 197.025949 
L 268.589372 194.956658 
L 268.679579 197.892155 
L 268.769786 197.122174 
L 268.950199 202.848923 
L 269.130613 196.400396 
L 269.311027 198.469687 
L 269.401234 198.132809 
L 269.581647 196.255967 
L 269.762061 205.495929 
L 269.942475 195.630415 
L 270.122889 202.993352 
L 270.303302 196.785295 
L 270.483716 199.432118 
L 270.66413 196.737275 
L 270.844544 199.191648 
L 270.934751 198.229034 
L 271.024957 199.384097 
L 271.115164 202.464023 
L 271.295578 198.421666 
L 271.385785 199.143444 
L 271.475992 198.90279 
L 271.566199 197.555277 
L 271.746612 199.432118 
L 271.836819 197.699706 
L 271.927026 197.940359 
L 272.017233 198.758545 
L 272.10744 198.614116 
L 272.287854 196.255967 
L 272.378061 196.448417 
L 272.468267 197.651685 
L 272.558474 197.218398 
L 272.648681 198.758545 
L 272.829095 204.485294 
L 273.009509 202.993352 
L 273.189922 198.662137 
L 273.370336 206.26591 
L 273.640957 196.352192 
L 273.821371 199.287873 
L 274.001784 198.614116 
L 274.272405 204.43709 
L 274.452819 198.662137 
L 274.633232 205.592154 
L 274.903853 197.507256 
L 274.99406 198.132809 
L 275.174474 204.870193 
L 275.354887 202.367799 
L 275.445094 204.773968 
L 275.535301 204.340865 
L 275.625508 203.282209 
L 275.805922 203.859558 
L 275.986336 201.934696 
L 276.076542 203.13778 
L 276.256956 208.527651 
L 276.43737 204.100211 
L 276.617784 210.789575 
L 276.888404 203.619088 
L 276.978611 204.43709 
L 277.068818 202.560248 
L 277.159025 197.79593 
L 277.249232 198.373463 
L 277.429646 204.340865 
L 277.519852 202.464023 
L 277.610059 202.608452 
L 277.700266 202.848923 
L 277.790473 202.560248 
L 277.970887 204.24464 
L 278.061094 203.474659 
L 278.151301 201.742246 
L 278.241507 202.22337 
L 278.421921 204.918397 
L 278.512128 204.629539 
L 278.602335 204.773968 
L 278.782749 204.052191 
L 278.872956 204.629539 
L 279.053369 199.335893 
L 279.233783 204.148415 
L 279.32399 203.763333 
L 279.414197 203.52268 
L 279.504404 204.773968 
L 279.594611 204.677743 
L 279.865231 202.608452 
L 280.045645 206.506381 
L 280.135852 205.880828 
L 280.316266 203.811537 
L 280.406473 203.859558 
L 280.496679 203.13778 
L 280.677093 204.24464 
L 280.7673 203.378434 
L 280.857507 204.148415 
L 281.037921 207.324566 
L 281.218334 208.623876 
L 281.398748 204.100211 
L 281.488955 205.399521 
L 281.669369 210.212043 
L 281.849783 204.003987 
L 281.939989 205.159051 
L 282.030196 205.014622 
L 282.120403 203.859558 
L 282.300817 207.324566 
L 282.481231 203.426455 
L 282.571438 204.43709 
L 282.661644 203.907762 
L 282.751851 204.677743 
L 282.932265 209.393857 
L 283.112679 208.335202 
L 283.202886 208.094548 
L 283.563713 205.062643 
L 283.65392 205.495929 
L 283.744127 205.207071 
L 283.924541 203.570884 
L 284.014748 203.667108 
L 284.195161 202.271574 
L 284.285368 202.608452 
L 284.465782 204.24464 
L 284.646196 204.052191 
L 284.916816 204.340865 
L 285.09723 207.853894 
L 285.277644 204.389069 
L 285.548264 205.880828 
L 285.638471 205.495929 
L 285.728678 206.217706 
L 285.909092 209.490082 
L 286.089506 207.035892 
L 286.179713 207.517016 
L 286.360126 203.041556 
L 286.54054 206.554585 
L 286.630747 206.217706 
L 286.811161 204.581519 
L 286.991574 205.255276 
L 287.171988 204.292661 
L 287.262195 204.581519 
L 287.442609 206.362135 
L 287.623023 201.453389 
L 288.074057 207.998323 
L 288.164264 206.65081 
L 288.254471 203.474659 
L 288.344678 203.619088 
L 288.434884 205.159051 
L 288.525091 205.110847 
L 288.705505 203.859558 
L 288.885919 204.918397 
L 289.156539 204.148415 
L 289.336953 205.3515 
L 289.517367 202.993352 
L 289.787988 204.725764 
L 290.058608 203.33023 
L 290.148815 202.945331 
L 290.329229 205.880828 
L 290.509643 204.629539 
L 290.690056 208.960754 
L 291.411711 202.752698 
L 291.592125 207.468995 
L 291.682332 206.699014 
L 291.862746 202.800902 
L 291.952953 204.533315 
L 292.043159 204.43709 
L 292.133366 203.52268 
L 292.223573 203.859558 
L 292.31378 203.763333 
L 292.494194 204.822172 
L 292.674608 198.806566 
L 293.035435 204.581519 
L 293.125642 204.485294 
L 293.215849 204.822172 
L 293.396263 202.800902 
L 293.576676 207.613241 
L 293.75709 202.608452 
L 293.847297 205.159051 
L 293.937504 204.773968 
L 294.027711 203.13778 
L 294.208124 206.795239 
L 294.388538 203.378434 
L 294.749366 204.100211 
L 294.929779 202.127145 
L 295.019986 203.955783 
L 295.2004 199.480322 
L 295.380814 205.929032 
L 295.561228 200.875856 
L 295.741641 204.822172 
L 295.831848 204.196436 
L 295.922055 204.24464 
L 296.012262 204.822172 
L 296.102469 204.725764 
L 296.282883 202.993352 
L 296.463296 204.870193 
L 296.64371 203.667108 
L 296.914331 204.822172 
L 297.094744 204.100211 
L 297.275158 205.255276 
L 297.365365 204.340865 
L 297.455572 204.773968 
L 297.545779 205.880828 
L 297.906606 204.581519 
L 297.996813 204.581519 
L 298.08702 204.725764 
L 298.177227 204.581519 
L 298.267434 204.003987 
L 298.447848 204.629539 
L 298.628261 201.742246 
L 298.989089 205.592154 
L 299.169503 202.897127 
L 299.349916 208.094548 
L 299.53033 202.367799 
L 299.710744 205.110847 
L 299.891158 203.907762 
L 300.071571 208.190773 
L 300.251985 203.955783 
L 300.342192 204.196436 
L 300.432399 204.340865 
L 300.522606 203.570884 
L 300.612813 203.811537 
L 300.793226 205.303296 
L 300.883433 204.773968 
L 301.063847 207.132117 
L 301.154054 203.474659 
L 301.334468 206.410156 
L 301.605088 202.897127 
L 301.695295 203.234005 
L 301.875709 205.640174 
L 302.056123 203.378434 
L 302.14633 203.907762 
L 302.236536 204.629539 
L 302.326743 204.148415 
L 302.507157 202.656473 
L 302.687571 203.811537 
L 302.777778 203.619088 
L 303.138605 201.742246 
L 303.319019 203.907762 
L 303.409226 203.570884 
L 303.499433 203.619088 
L 303.679846 205.3515 
L 303.86026 203.907762 
L 304.040674 207.083913 
L 304.221088 203.234005 
L 304.401501 203.859558 
L 304.491708 203.859558 
L 304.581915 204.389069 
L 304.762329 208.527651 
L 304.942743 203.426455 
L 305.03295 203.52268 
L 305.30357 207.083913 
L 305.574191 209.153204 
L 305.664398 208.335202 
L 305.754605 204.677743 
L 305.844811 205.688378 
L 305.935018 208.7201 
L 306.115432 203.763333 
L 306.205639 206.025257 
L 306.295846 205.880828 
L 306.386053 204.24464 
L 306.47626 204.629539 
L 306.656673 203.13778 
L 306.837087 208.7201 
L 307.017501 206.843259 
L 307.107708 207.805873 
L 307.288121 211.703802 
L 307.378328 209.77894 
L 307.558742 203.715312 
L 307.739156 204.918397 
L 307.91957 202.945331 
L 308.099983 208.286997 
L 308.280397 204.24464 
L 308.460811 209.056979 
L 308.821638 204.196436 
L 308.911845 206.025257 
L 309.092259 203.715312 
L 309.182466 203.955783 
L 309.36288 199.528526 
L 309.543293 204.003987 
L 309.723707 201.549613 
L 309.813914 201.645838 
L 309.904121 203.282209 
L 310.084535 199.480322 
L 310.174741 200.779632 
L 310.355155 205.832624 
L 310.535569 200.298508 
L 310.715983 204.100211 
L 310.896396 202.897127 
L 310.986603 202.800902 
L 311.167017 201.212735 
L 311.257224 201.694042 
L 311.437638 199.96163 
L 311.527845 200.250304 
L 311.708258 203.041556 
L 311.888672 199.384097 
L 312.069086 201.886492 
L 312.159293 201.694042 
L 312.429913 198.421666 
L 312.52012 198.662137 
L 312.700534 204.533315 
L 312.880948 201.212735 
L 312.971155 202.464023 
L 313.151568 198.662137 
L 313.331982 205.447725 
L 313.69281 202.704677 
L 313.783016 203.13778 
L 313.96343 204.629539 
L 314.324258 202.656473 
L 314.504671 204.24464 
L 314.594878 203.763333 
L 314.685085 204.003987 
L 314.775292 205.303296 
L 314.865499 205.255276 
L 315.045913 204.292661 
L 315.13612 204.822172 
L 315.226327 204.340865 
L 315.40674 202.319595 
L 315.496947 202.22337 
L 315.587154 201.886492 
L 315.857775 204.533315 
L 315.947982 203.619088 
L 316.038188 204.24464 
L 316.218602 208.094548 
L 316.399016 203.811537 
L 316.489223 203.955783 
L 316.57943 202.560248 
L 316.669637 203.667108 
L 316.85005 207.998323 
L 317.030464 204.581519 
L 317.120671 205.640174 
L 317.210878 208.142752 
L 317.301085 207.468995 
L 317.391292 282.92755 
L 317.481498 281.483812 
L 317.752119 277.826446 
L 317.842326 279.077643 
L 318.02274 284.275064 
L 318.112947 282.205681 
L 318.203153 282.35011 
L 318.383567 284.178839 
L 318.473774 283.697532 
L 318.563981 283.793849 
L 318.654188 283.64942 
L 318.744395 284.56383 
L 319.015015 289.56871 
L 319.105222 290.531233 
L 319.195429 290.338692 
L 319.375843 287.932522 
L 319.646463 282.061344 
L 319.73667 282.92755 
L 319.917084 289.56871 
L 320.007291 288.750616 
L 320.097498 289.231831 
L 320.187705 291.445551 
L 320.277912 290.771794 
L 320.458325 287.788093 
L 320.638739 294.236711 
L 320.999567 286.103793 
L 321.089773 286.440671 
L 321.17998 288.46185 
L 321.360394 285.766915 
L 321.631015 293.033627 
L 321.721222 295.488 
L 321.811428 293.659271 
L 321.991842 288.124972 
L 322.082049 288.702504 
L 322.172256 288.46185 
L 322.35267 288.798728 
L 322.62329 284.996933 
L 322.713497 284.178839 
L 322.893911 289.664935 
L 323.074325 284.611942 
L 323.164532 286.055681 
L 323.344945 284.082523 
L 323.525359 291.204898 
L 323.615566 288.991178 
L 323.705773 289.183719 
L 323.79598 289.953701 
L 323.886187 288.028747 
L 323.976393 288.46185 
L 324.0666 289.279944 
L 324.337221 286.585009 
L 324.427428 285.911252 
L 324.517635 286.103793 
L 324.607842 285.14127 
L 324.788255 281.4357 
L 325.058876 284.178839 
L 325.23929 285.333812 
L 325.419703 284.034411 
L 325.50991 215.794363 
L 325.600117 219.981241 
L 325.690324 222.291185 
L 325.870738 215.986904 
L 325.960945 216.612548 
L 326.051152 216.46812 
L 326.231565 215.746251 
L 326.321772 215.938792 
L 326.502186 217.045652 
L 326.592393 215.409372 
L 326.6826 215.457576 
L 326.772807 215.216923 
L 326.95322 209.008958 
L 327.133634 215.986904 
L 327.404255 210.115818 
L 327.494462 211.174474 
L 327.674875 215.553801 
L 327.855289 210.163839 
L 327.945496 210.789575 
L 328.035703 207.950119 
L 328.216117 194.812229 
L 328.39653 204.870193 
L 328.486737 203.763333 
L 328.576944 204.100211 
L 328.667151 207.853894 
L 328.757358 207.468995 
L 328.937772 202.22337 
L 329.118185 204.485294 
L 329.298599 203.089576 
L 329.388806 204.581519 
L 329.479013 204.485294 
L 329.659427 202.608452 
L 329.83984 204.148415 
L 329.930047 203.763333 
L 330.110461 198.036584 
L 330.290875 203.234005 
L 330.381082 201.549613 
L 330.471288 205.062643 
L 330.561495 203.667108 
L 330.741909 189.807441 
L 330.922323 194.331105 
L 331.01253 193.994227 
L 331.102737 194.186677 
L 331.373357 198.181013 
L 331.463564 197.603481 
L 331.643978 193.801594 
L 331.734185 195.052883 
L 331.914598 190.432994 
L 332.185219 198.036584 
L 332.275426 197.266603 
L 332.45584 198.132809 
L 332.546047 197.507256 
L 332.636254 198.084788 
L 332.72646 197.362827 
L 332.906874 191.587874 
L 333.087288 193.898002 
L 333.267702 191.924753 
L 333.357909 192.165406 
L 333.538322 193.32047 
L 333.718736 192.454264 
L 333.808943 193.753573 
L 333.89915 193.657349 
L 334.079564 192.358039 
L 334.16977 193.224245 
L 334.350184 190.721668 
L 334.530598 192.40606 
L 334.620805 192.117386 
L 334.801219 193.801594 
L 334.981632 192.40606 
L 335.162046 193.51292 
L 335.252253 193.416695 
L 335.34246 193.657349 
L 335.522874 189.99989 
L 335.61308 190.288565 
L 335.703287 191.924753 
L 335.793494 191.347404 
L 335.883701 191.395425 
L 335.973908 192.983592 
L 336.064115 192.598509 
L 336.154322 191.491649 
L 336.334735 192.742938 
L 336.424942 192.646714 
L 336.605356 197.699706 
L 336.78577 193.12802 
L 336.875977 194.379126 
L 336.966184 196.64105 
L 337.236804 191.828528 
L 337.327011 191.539853 
L 337.507425 197.651685 
L 337.687839 194.090452 
L 337.868252 199.913426 
L 337.958459 198.277238 
L 338.138873 200.105875 
L 338.22908 198.565912 
L 338.319287 198.85477 
L 338.409494 200.298508 
L 338.589907 197.025949 
L 338.680114 202.608452 
L 338.770321 201.357164 
L 338.950735 190.240544 
L 339.040942 193.176041 
L 339.221355 186.005554 
L 339.491976 198.132809 
L 339.582183 196.977928 
L 339.762597 191.058546 
L 339.94301 199.576547 
L 340.033217 197.940359 
L 340.123424 192.935388 
L 340.213631 194.090452 
L 340.303838 198.758545 
L 340.484252 193.224245 
L 340.754872 198.277238 
L 340.845079 198.469687 
L 341.025493 196.881703 
L 341.296114 198.469687 
L 341.38632 199.913426 
L 341.566734 198.806566 
L 341.837355 205.688378 
L 341.927562 205.832624 
L 342.198182 200.587182 
L 342.288389 197.699706 
L 342.468803 201.982716 
L 342.649217 196.689071 
L 342.919837 201.982716 
L 343.100251 189.422359 
L 343.280665 198.565912 
L 343.370872 197.170378 
L 343.461079 196.689071 
L 343.551285 197.988563 
L 343.641492 197.266603 
L 343.731699 197.459052 
L 343.821906 198.036584 
L 344.00232 196.929724 
L 344.182734 199.384097 
L 344.363147 198.421666 
L 344.633768 204.822172 
L 344.723975 203.570884 
L 344.814182 203.715312 
L 344.904389 203.619088 
L 344.994595 202.848923 
L 345.175009 204.24464 
L 345.44563 209.875165 
L 345.626044 203.667108 
L 345.71625 203.715312 
L 345.896664 212.810662 
L 345.986871 211.944455 
L 346.077078 211.174474 
L 346.167285 213.195744 
L 346.347699 211.800026 
L 346.437905 213.580643 
L 346.528112 212.425763 
L 346.618319 209.249612 
L 346.708526 209.682715 
L 346.798733 211.030045 
L 347.069354 209.826961 
L 347.249767 208.864529 
L 347.520388 214.639391 
L 347.700802 212.185109 
L 347.881215 220.89556 
L 348.061629 215.120698 
L 348.151836 215.265035 
L 348.242043 216.227558 
L 348.33225 216.179354 
L 348.512664 213.965726 
L 348.693077 217.045652 
L 348.783284 216.46812 
L 348.873491 215.313147 
L 349.053905 216.035017 
L 349.144112 215.986904 
L 349.234319 214.639391 
L 349.414732 209.586307 
L 349.504939 210.404492 
L 349.595146 209.682715 
L 349.77556 210.404492 
L 349.955974 53.80847 
L 350.136387 61.219611 
L 350.316801 54.097328 
L 350.497215 57.947235 
L 350.677629 53.568 
L 350.948249 64.925273 
L 351.128663 60.449629 
L 351.309077 66.850135 
L 351.489491 64.973294 
L 351.579697 65.406397 
L 351.669904 66.609665 
L 351.760111 66.176378 
L 351.850318 65.165926 
L 352.301352 79.314268 
L 352.391559 78.592491 
L 352.481766 78.78494 
L 352.66218 82.683052 
L 352.752387 82.297969 
L 353.293628 96.735352 
L 353.383835 95.676513 
L 353.474042 95.339635 
L 353.834869 106.696908 
L 354.015283 113.5307 
L 354.10549 113.241843 
L 354.376111 115.98489 
L 354.646731 123.492256 
L 354.736938 121.808047 
L 355.187972 131.528949 
L 355.458593 140.191379 
L 355.5488 138.94009 
L 355.639007 138.988294 
L 355.909627 146.928763 
L 356.090041 144.907493 
L 356.631282 165.841606 
L 356.901903 169.643309 
L 356.99211 169.25841 
L 357.082317 168.344 
L 357.172524 169.499064 
L 357.803972 188.604356 
L 357.894179 187.9306 
L 357.984386 198.421666 
L 358.074592 196.881703 
L 358.255006 192.550489 
L 358.43542 190.144319 
L 358.615834 196.64105 
L 358.796247 192.742938 
L 358.976661 197.411031 
L 359.066868 195.871068 
L 359.247282 198.469687 
L 359.427696 197.025949 
L 359.698316 203.570884 
L 359.788523 203.282209 
L 359.968937 200.683407 
L 360.329764 195.052883 
L 360.510178 198.614116 
L 360.600385 198.132809 
L 360.780799 203.667108 
L 360.961212 197.266603 
L 361.051419 198.806566 
L 361.231833 204.052191 
L 361.32204 203.715312 
L 361.592661 197.651685 
L 361.682867 198.229034 
L 361.773074 199.817201 
L 361.953488 198.421666 
L 362.224109 205.207071 
L 362.314316 204.485294 
L 362.404522 204.677743 
L 362.494729 204.340865 
L 362.675143 202.848923 
L 362.855557 204.870193 
L 363.035971 203.763333 
L 363.126177 203.619088 
L 363.306591 201.838471 
L 363.577212 204.340865 
L 363.667419 204.629539 
L 363.757626 204.340865 
L 363.847832 202.993352 
L 363.938039 204.003987 
L 364.118453 209.634511 
L 364.20866 207.75767 
L 364.298867 208.479447 
L 364.389074 207.902098 
L 364.479281 204.773968 
L 364.659694 207.324566 
L 364.840108 203.907762 
L 364.930315 205.207071 
L 365.020522 204.629539 
L 365.110729 204.677743 
L 365.200936 204.773968 
L 365.381349 201.453389 
L 365.561763 204.24464 
L 365.65197 203.715312 
L 365.742177 204.100211 
L 365.922591 205.399521 
L 366.012797 205.110847 
L 366.103004 203.089576 
L 366.283418 205.640174 
L 366.463832 202.945331 
L 366.644246 203.763333 
L 366.914866 202.560248 
L 367.09528 204.822172 
L 367.185487 203.13778 
L 367.365901 205.062643 
L 367.546314 199.865405 
L 367.726728 205.399521 
L 367.816935 203.570884 
L 367.907142 203.859558 
L 367.997349 203.907762 
L 368.087556 203.33023 
L 368.177763 203.859558 
L 368.448383 202.319595 
L 368.628797 196.159743 
L 368.809211 188.700581 
L 368.899418 190.673647 
L 369.079831 198.662137 
L 369.170038 197.555277 
L 369.350452 199.768997 
L 369.530866 195.630415 
L 369.711279 202.752698 
L 369.891693 197.411031 
L 370.072107 202.608452 
L 370.162314 199.817201 
L 370.523141 203.667108 
L 370.703555 197.940359 
L 370.793762 199.09524 
L 370.883969 198.517891 
L 370.974176 200.250304 
L 371.064383 204.292661 
L 371.244796 196.833499 
L 371.335003 197.122174 
L 371.515417 204.052191 
L 371.695831 201.549613 
L 371.876244 204.966418 
L 372.146865 202.512228 
L 372.237072 202.800902 
L 372.327279 204.581519 
L 372.507693 199.865405 
L 372.688106 205.447725 
L 372.778313 204.870193 
L 373.048934 203.13778 
L 373.139141 203.13778 
L 373.319554 203.859558 
L 373.499968 201.453389 
L 373.590175 203.282209 
L 373.680382 202.127145 
L 373.860796 197.699706 
L 374.041209 198.999015 
L 374.131416 198.90279 
L 374.221623 204.196436 
L 374.31183 203.282209 
L 374.582451 203.763333 
L 374.762864 205.640174 
L 374.943278 202.319595 
L 375.123692 205.062643 
L 375.213899 203.859558 
L 375.394313 207.083913 
L 375.574726 202.945331 
L 375.845347 204.966418 
L 375.935554 205.014622 
L 376.115968 203.089576 
L 376.296381 203.426455 
L 376.386588 202.848923 
L 376.476795 203.474659 
L 376.567002 205.062643 
L 376.747416 203.715312 
L 376.927829 204.773968 
L 377.018036 204.340865 
L 377.19845 206.699014 
L 377.378864 205.014622 
L 377.469071 205.736399 
L 377.559278 205.495929 
L 377.739691 204.148415 
L 377.829898 203.955783 
L 377.920105 204.389069 
L 378.100519 206.843259 
L 378.280933 203.13778 
L 378.461346 205.303296 
L 378.64176 205.399521 
L 378.822174 203.13778 
L 379.002588 204.292661 
L 379.183001 202.512228 
L 379.363415 205.640174 
L 379.543829 197.988563 
L 379.634036 198.90279 
L 379.724243 198.469687 
L 379.814449 196.737275 
L 379.904656 197.940359 
L 380.175277 204.966418 
L 380.355691 198.229034 
L 380.536104 204.966418 
L 380.626311 203.955783 
L 380.716518 199.239669 
L 380.806725 199.384097 
L 380.987139 202.560248 
L 381.077346 202.22337 
L 381.257759 204.581519 
L 381.52838 202.800902 
L 381.708794 202.319595 
L 381.799001 202.415819 
L 381.979414 204.677743 
L 382.069621 203.811537 
L 382.159828 203.955783 
L 382.250035 204.822172 
L 382.340242 204.196436 
L 382.520656 212.425763 
L 382.701069 204.196436 
L 382.791276 204.340865 
L 382.881483 203.715312 
L 383.061897 205.977053 
L 383.242311 202.464023 
L 383.422724 205.3515 
L 383.512931 205.014622 
L 383.783552 198.036584 
L 384.054173 201.597817 
L 384.234586 197.79593 
L 384.415 199.528526 
L 384.505207 197.940359 
L 384.595414 197.988563 
L 384.775828 204.24464 
L 384.956241 202.030921 
L 385.226862 203.667108 
L 385.497483 198.85477 
L 385.58769 199.480322 
L 385.85831 203.667108 
L 385.948517 203.089576 
L 386.038724 204.389069 
L 386.128931 203.33023 
L 386.309345 196.015314 
L 386.489758 204.196436 
L 386.670172 199.384097 
L 386.850586 204.581519 
L 387.30162 197.892155 
L 387.482034 199.239669 
L 387.752655 197.314807 
L 387.842861 197.603481 
L 388.113482 203.33023 
L 388.203689 202.464023 
L 388.293896 203.041556 
L 388.47431 209.923185 
L 388.74493 201.934696 
L 388.925344 202.752698 
L 389.105758 198.132809 
L 389.286171 206.362135 
L 389.466585 202.319595 
L 389.737206 204.292661 
L 389.827413 204.24464 
L 390.007826 201.164714 
L 390.18824 198.373463 
L 390.368654 198.132809 
L 390.458861 204.148415 
L 390.549068 203.378434 
L 390.729481 207.468995 
L 390.819688 206.073278 
L 390.909895 203.234005 
L 391.000102 203.282209 
L 391.090309 204.581519 
L 391.180516 204.533315 
L 391.270723 204.43709 
L 391.36093 206.169502 
L 391.541343 210.789575 
L 391.721757 203.185801 
L 391.902171 208.67208 
L 392.082585 203.234005 
L 392.262998 204.581519 
L 392.443412 202.800902 
L 392.623826 204.052191 
L 392.714033 203.811537 
L 392.894446 205.447725 
L 393.07486 203.715312 
L 393.165067 204.003987 
L 393.345481 202.319595 
L 393.525895 204.196436 
L 393.706308 201.694042 
L 393.886722 206.169502 
L 394.067136 201.790267 
L 394.24755 203.715312 
L 394.337756 202.415819 
L 394.427963 203.282209 
L 394.608377 209.586307 
L 394.698584 208.286997 
L 394.878998 203.570884 
L 395.059411 204.870193 
L 395.149618 206.169502 
L 395.239825 205.592154 
L 395.420239 200.972081 
L 395.69086 204.24464 
L 395.781066 203.763333 
L 396.051687 205.784603 
L 396.232101 203.859558 
L 396.322308 204.292661 
L 396.412515 205.303296 
L 396.683135 199.576547 
L 396.953756 204.196436 
L 397.043963 203.282209 
L 397.224376 205.688378 
L 397.40479 204.24464 
L 397.494997 204.340865 
L 397.765618 201.742246 
L 398.036238 204.629539 
L 398.216652 203.282209 
L 398.487273 205.062643 
L 398.487273 205.062643 
" clip-path="url(#p219a7a86d7)" style="fill: none; stroke: #1f77b4; stroke-width: 1.5; stroke-linecap: square"/>
   </g>
   <g id="patch_3">
    <path d="M 57.6 307.584 
L 57.6 41.472 
" style="fill: none; stroke: #000000; stroke-width: 0.8; stroke-linejoin: miter; stroke-linecap: square"/>
   </g>
   <g id="patch_4">
    <path d="M 414.72 307.584 
L 414.72 41.472 
" style="fill: none; stroke: #000000; stroke-width: 0.8; stroke-linejoin: miter; stroke-linecap: square"/>
   </g>
   <g id="patch_5">
    <path d="M 57.6 307.584 
L 414.72 307.584 
" style="fill: none; stroke: #000000; stroke-width: 0.8; stroke-linejoin: miter; stroke-linecap: square"/>
   </g>
   <g id="patch_6">
    <path d="M 57.6 41.472 
L 414.72 41.472 
" style="fill: none; stroke: #000000; stroke-width: 0.8; stroke-linejoin: miter; stroke-linecap: square"/>
   </g>
   <g id="legend_1">
    <g id="patch_7">
     <path d="M 354.074688 64.150125 
L 407.72 64.150125 
Q 409.72 64.150125 409.72 62.150125 
L 409.72 48.472 
Q 409.72 46.472 407.72 46.472 
L 354.074688 46.472 
Q 352.074688 46.472 352.074688 48.472 
L 352.074688 62.150125 
Q 352.074688 64.150125 354.074688 64.150125 
z
" style="fill: #ffffff; opacity: 0.8; stroke: #cccccc; stroke-linejoin: miter"/>
    </g>
    <g id="line2d_17">
     <path d="M 356.074688 54.570438 
L 366.074688 54.570438 
L 376.074688 54.570438 
" style="fill: none; stroke: #1f77b4; stroke-width: 1.5; stroke-linecap: square"/>
    </g>
    <g id="text_16">
     <!-- set3 -->
     <g transform="translate(384.074688 58.070438)scale(0.1 -0.1)">
      <defs>
       <path id="DejaVuSans-73" d="M 2834 3397 
L 2834 2853 
Q 2591 2978 2328 3040 
Q 2066 3103 1784 3103 
Q 1356 3103 1142 2972 
Q 928 2841 928 2578 
Q 928 2378 1081 2264 
Q 1234 2150 1697 2047 
L 1894 2003 
Q 2506 1872 2764 1633 
Q 3022 1394 3022 966 
Q 3022 478 2636 193 
Q 2250 -91 1575 -91 
Q 1294 -91 989 -36 
Q 684 19 347 128 
L 347 722 
Q 666 556 975 473 
Q 1284 391 1588 391 
Q 1994 391 2212 530 
Q 2431 669 2431 922 
Q 2431 1156 2273 1281 
Q 2116 1406 1581 1522 
L 1381 1569 
Q 847 1681 609 1914 
Q 372 2147 372 2553 
Q 372 3047 722 3315 
Q 1072 3584 1716 3584 
Q 2034 3584 2315 3537 
Q 2597 3491 2834 3397 
z
" transform="scale(0.015625)"/>
       <path id="DejaVuSans-65" d="M 3597 1894 
L 3597 1613 
L 953 1613 
Q 991 1019 1311 708 
Q 1631 397 2203 397 
Q 2534 397 2845 478 
Q 3156 559 3463 722 
L 3463 178 
Q 3153 47 2828 -22 
Q 2503 -91 2169 -91 
Q 1331 -91 842 396 
Q 353 884 353 1716 
Q 353 2575 817 3079 
Q 1281 3584 2069 3584 
Q 2775 3584 3186 3129 
Q 3597 2675 3597 1894 
z
M 3022 2063 
Q 3016 2534 2758 2815 
Q 2500 3097 2075 3097 
Q 1594 3097 1305 2825 
Q 1016 2553 972 2059 
L 3022 2063 
z
" transform="scale(0.015625)"/>
       <path id="DejaVuSans-74" d="M 1172 4494 
L 1172 3500 
L 2356 3500 
L 2356 3053 
L 1172 3053 
L 1172 1153 
Q 1172 725 1289 603 
Q 1406 481 1766 481 
L 2356 481 
L 2356 0 
L 1766 0 
Q 1100 0 847 248 
Q 594 497 594 1153 
L 594 3053 
L 172 3053 
L 172 3500 
L 594 3500 
L 594 4494 
L 1172 4494 
z
" transform="scale(0.015625)"/>
      </defs>
      <use xlink:href="#DejaVuSans-73"/>
      <use xlink:href="#DejaVuSans-65" x="52.099609"/>
      <use xlink:href="#DejaVuSans-74" x="113.623047"/>
      <use xlink:href="#DejaVuSans-33" x="152.832031"/>
     </g>
    </g>
   </g>
  </g>
 </g>
 <defs>
  <clipPath id="p219a7a86d7">
   <rect x="57.6" y="41.472" width="357.12" height="266.112"/>
  </clipPath>
 </defs>
</svg>
