<?xml version="1.0" encoding="utf-8" standalone="no"?>
<!DOCTYPE svg PUBLIC "-//W3C//DTD SVG 1.1//EN"
  "http://www.w3.org/Graphics/SVG/1.1/DTD/svg11.dtd">
<svg xmlns:xlink="http://www.w3.org/1999/xlink" width="460.8pt" height="345.6pt" viewBox="0 0 460.8 345.6" xmlns="http://www.w3.org/2000/svg" version="1.1">
 <metadata>
  <rdf:RDF xmlns:dc="http://purl.org/dc/elements/1.1/" xmlns:cc="http://creativecommons.org/ns#" xmlns:rdf="http://www.w3.org/1999/02/22-rdf-syntax-ns#">
   <cc:Work>
    <dc:type rdf:resource="http://purl.org/dc/dcmitype/StillImage"/>
    <dc:date>2022-08-11T20:38:52.493191</dc:date>
    <dc:format>image/svg+xml</dc:format>
    <dc:creator>
     <cc:Agent>
      <dc:title>Matplotlib v3.5.2, https://matplotlib.org/</dc:title>
     </cc:Agent>
    </dc:creator>
   </cc:Work>
  </rdf:RDF>
 </metadata>
 <defs>
  <style type="text/css">*{stroke-linejoin: round; stroke-linecap: butt}</style>
 </defs>
 <g id="figure_1">
  <g id="patch_1">
   <path d="M 0 345.6 
L 460.8 345.6 
L 460.8 0 
L 0 0 
z
" style="fill: #ffffff"/>
  </g>
  <g id="axes_1">
   <g id="patch_2">
    <path d="M 57.6 307.584 
L 414.72 307.584 
L 414.72 41.472 
L 57.6 41.472 
z
" style="fill: #ffffff"/>
   </g>
   <g id="matplotlib.axis_1">
    <g id="xtick_1">
     <g id="line2d_1">
      <defs>
       <path id="m82a0c61757" d="M 0 0 
L 0 3.5 
" style="stroke: #000000; stroke-width: 0.8"/>
      </defs>
      <g>
       <use xlink:href="#m82a0c61757" x="73.832727" y="307.584" style="stroke: #000000; stroke-width: 0.8"/>
      </g>
     </g>
     <g id="text_1">
      <!-- 0 -->
      <g transform="translate(70.651477 322.182437)scale(0.1 -0.1)">
       <defs>
        <path id="DejaVuSans-30" d="M 2034 4250 
Q 1547 4250 1301 3770 
Q 1056 3291 1056 2328 
Q 1056 1369 1301 889 
Q 1547 409 2034 409 
Q 2525 409 2770 889 
Q 3016 1369 3016 2328 
Q 3016 3291 2770 3770 
Q 2525 4250 2034 4250 
z
M 2034 4750 
Q 2819 4750 3233 4129 
Q 3647 3509 3647 2328 
Q 3647 1150 3233 529 
Q 2819 -91 2034 -91 
Q 1250 -91 836 529 
Q 422 1150 422 2328 
Q 422 3509 836 4129 
Q 1250 4750 2034 4750 
z
" transform="scale(0.015625)"/>
       </defs>
       <use xlink:href="#DejaVuSans-30"/>
      </g>
     </g>
    </g>
    <g id="xtick_2">
     <g id="line2d_2">
      <g>
       <use xlink:href="#m82a0c61757" x="124.71902" y="307.584" style="stroke: #000000; stroke-width: 0.8"/>
      </g>
     </g>
     <g id="text_2">
      <!-- 50 -->
      <g transform="translate(118.35652 322.182437)scale(0.1 -0.1)">
       <defs>
        <path id="DejaVuSans-35" d="M 691 4666 
L 3169 4666 
L 3169 4134 
L 1269 4134 
L 1269 2991 
Q 1406 3038 1543 3061 
Q 1681 3084 1819 3084 
Q 2600 3084 3056 2656 
Q 3513 2228 3513 1497 
Q 3513 744 3044 326 
Q 2575 -91 1722 -91 
Q 1428 -91 1123 -41 
Q 819 9 494 109 
L 494 744 
Q 775 591 1075 516 
Q 1375 441 1709 441 
Q 2250 441 2565 725 
Q 2881 1009 2881 1497 
Q 2881 1984 2565 2268 
Q 2250 2553 1709 2553 
Q 1456 2553 1204 2497 
Q 953 2441 691 2322 
L 691 4666 
z
" transform="scale(0.015625)"/>
       </defs>
       <use xlink:href="#DejaVuSans-35"/>
       <use xlink:href="#DejaVuSans-30" x="63.623047"/>
      </g>
     </g>
    </g>
    <g id="xtick_3">
     <g id="line2d_3">
      <g>
       <use xlink:href="#m82a0c61757" x="175.605312" y="307.584" style="stroke: #000000; stroke-width: 0.8"/>
      </g>
     </g>
     <g id="text_3">
      <!-- 100 -->
      <g transform="translate(166.061562 322.182437)scale(0.1 -0.1)">
       <defs>
        <path id="DejaVuSans-31" d="M 794 531 
L 1825 531 
L 1825 4091 
L 703 3866 
L 703 4441 
L 1819 4666 
L 2450 4666 
L 2450 531 
L 3481 531 
L 3481 0 
L 794 0 
L 794 531 
z
" transform="scale(0.015625)"/>
       </defs>
       <use xlink:href="#DejaVuSans-31"/>
       <use xlink:href="#DejaVuSans-30" x="63.623047"/>
       <use xlink:href="#DejaVuSans-30" x="127.246094"/>
      </g>
     </g>
    </g>
    <g id="xtick_4">
     <g id="line2d_4">
      <g>
       <use xlink:href="#m82a0c61757" x="226.491604" y="307.584" style="stroke: #000000; stroke-width: 0.8"/>
      </g>
     </g>
     <g id="text_4">
      <!-- 150 -->
      <g transform="translate(216.947854 322.182437)scale(0.1 -0.1)">
       <use xlink:href="#DejaVuSans-31"/>
       <use xlink:href="#DejaVuSans-35" x="63.623047"/>
       <use xlink:href="#DejaVuSans-30" x="127.246094"/>
      </g>
     </g>
    </g>
    <g id="xtick_5">
     <g id="line2d_5">
      <g>
       <use xlink:href="#m82a0c61757" x="277.377897" y="307.584" style="stroke: #000000; stroke-width: 0.8"/>
      </g>
     </g>
     <g id="text_5">
      <!-- 200 -->
      <g transform="translate(267.834147 322.182437)scale(0.1 -0.1)">
       <defs>
        <path id="DejaVuSans-32" d="M 1228 531 
L 3431 531 
L 3431 0 
L 469 0 
L 469 531 
Q 828 903 1448 1529 
Q 2069 2156 2228 2338 
Q 2531 2678 2651 2914 
Q 2772 3150 2772 3378 
Q 2772 3750 2511 3984 
Q 2250 4219 1831 4219 
Q 1534 4219 1204 4116 
Q 875 4013 500 3803 
L 500 4441 
Q 881 4594 1212 4672 
Q 1544 4750 1819 4750 
Q 2544 4750 2975 4387 
Q 3406 4025 3406 3419 
Q 3406 3131 3298 2873 
Q 3191 2616 2906 2266 
Q 2828 2175 2409 1742 
Q 1991 1309 1228 531 
z
" transform="scale(0.015625)"/>
       </defs>
       <use xlink:href="#DejaVuSans-32"/>
       <use xlink:href="#DejaVuSans-30" x="63.623047"/>
       <use xlink:href="#DejaVuSans-30" x="127.246094"/>
      </g>
     </g>
    </g>
    <g id="xtick_6">
     <g id="line2d_6">
      <g>
       <use xlink:href="#m82a0c61757" x="328.264189" y="307.584" style="stroke: #000000; stroke-width: 0.8"/>
      </g>
     </g>
     <g id="text_6">
      <!-- 250 -->
      <g transform="translate(318.720439 322.182437)scale(0.1 -0.1)">
       <use xlink:href="#DejaVuSans-32"/>
       <use xlink:href="#DejaVuSans-35" x="63.623047"/>
       <use xlink:href="#DejaVuSans-30" x="127.246094"/>
      </g>
     </g>
    </g>
    <g id="xtick_7">
     <g id="line2d_7">
      <g>
       <use xlink:href="#m82a0c61757" x="379.150482" y="307.584" style="stroke: #000000; stroke-width: 0.8"/>
      </g>
     </g>
     <g id="text_7">
      <!-- 300 -->
      <g transform="translate(369.606732 322.182437)scale(0.1 -0.1)">
       <defs>
        <path id="DejaVuSans-33" d="M 2597 2516 
Q 3050 2419 3304 2112 
Q 3559 1806 3559 1356 
Q 3559 666 3084 287 
Q 2609 -91 1734 -91 
Q 1441 -91 1130 -33 
Q 819 25 488 141 
L 488 750 
Q 750 597 1062 519 
Q 1375 441 1716 441 
Q 2309 441 2620 675 
Q 2931 909 2931 1356 
Q 2931 1769 2642 2001 
Q 2353 2234 1838 2234 
L 1294 2234 
L 1294 2753 
L 1863 2753 
Q 2328 2753 2575 2939 
Q 2822 3125 2822 3475 
Q 2822 3834 2567 4026 
Q 2313 4219 1838 4219 
Q 1578 4219 1281 4162 
Q 984 4106 628 3988 
L 628 4550 
Q 988 4650 1302 4700 
Q 1616 4750 1894 4750 
Q 2613 4750 3031 4423 
Q 3450 4097 3450 3541 
Q 3450 3153 3228 2886 
Q 3006 2619 2597 2516 
z
" transform="scale(0.015625)"/>
       </defs>
       <use xlink:href="#DejaVuSans-33"/>
       <use xlink:href="#DejaVuSans-30" x="63.623047"/>
       <use xlink:href="#DejaVuSans-30" x="127.246094"/>
      </g>
     </g>
    </g>
   </g>
   <g id="matplotlib.axis_2">
    <g id="ytick_1">
     <g id="line2d_8">
      <defs>
       <path id="m141d2a596d" d="M 0 0 
L -3.5 0 
" style="stroke: #000000; stroke-width: 0.8"/>
      </defs>
      <g>
       <use xlink:href="#m141d2a596d" x="57.6" y="296.373175" style="stroke: #000000; stroke-width: 0.8"/>
      </g>
     </g>
     <g id="text_8">
      <!-- 42.5 -->
      <g transform="translate(28.334375 300.172393)scale(0.1 -0.1)">
       <defs>
        <path id="DejaVuSans-34" d="M 2419 4116 
L 825 1625 
L 2419 1625 
L 2419 4116 
z
M 2253 4666 
L 3047 4666 
L 3047 1625 
L 3713 1625 
L 3713 1100 
L 3047 1100 
L 3047 0 
L 2419 0 
L 2419 1100 
L 313 1100 
L 313 1709 
L 2253 4666 
z
" transform="scale(0.015625)"/>
        <path id="DejaVuSans-2e" d="M 684 794 
L 1344 794 
L 1344 0 
L 684 0 
L 684 794 
z
" transform="scale(0.015625)"/>
       </defs>
       <use xlink:href="#DejaVuSans-34"/>
       <use xlink:href="#DejaVuSans-32" x="63.623047"/>
       <use xlink:href="#DejaVuSans-2e" x="127.246094"/>
       <use xlink:href="#DejaVuSans-35" x="159.033203"/>
      </g>
     </g>
    </g>
    <g id="ytick_2">
     <g id="line2d_9">
      <g>
       <use xlink:href="#m141d2a596d" x="57.6" y="265.18492" style="stroke: #000000; stroke-width: 0.8"/>
      </g>
     </g>
     <g id="text_9">
      <!-- 45.0 -->
      <g transform="translate(28.334375 268.984139)scale(0.1 -0.1)">
       <use xlink:href="#DejaVuSans-34"/>
       <use xlink:href="#DejaVuSans-35" x="63.623047"/>
       <use xlink:href="#DejaVuSans-2e" x="127.246094"/>
       <use xlink:href="#DejaVuSans-30" x="159.033203"/>
      </g>
     </g>
    </g>
    <g id="ytick_3">
     <g id="line2d_10">
      <g>
       <use xlink:href="#m141d2a596d" x="57.6" y="233.996666" style="stroke: #000000; stroke-width: 0.8"/>
      </g>
     </g>
     <g id="text_10">
      <!-- 47.5 -->
      <g transform="translate(28.334375 237.795885)scale(0.1 -0.1)">
       <defs>
        <path id="DejaVuSans-37" d="M 525 4666 
L 3525 4666 
L 3525 4397 
L 1831 0 
L 1172 0 
L 2766 4134 
L 525 4134 
L 525 4666 
z
" transform="scale(0.015625)"/>
       </defs>
       <use xlink:href="#DejaVuSans-34"/>
       <use xlink:href="#DejaVuSans-37" x="63.623047"/>
       <use xlink:href="#DejaVuSans-2e" x="127.246094"/>
       <use xlink:href="#DejaVuSans-35" x="159.033203"/>
      </g>
     </g>
    </g>
    <g id="ytick_4">
     <g id="line2d_11">
      <g>
       <use xlink:href="#m141d2a596d" x="57.6" y="202.808412" style="stroke: #000000; stroke-width: 0.8"/>
      </g>
     </g>
     <g id="text_11">
      <!-- 50.0 -->
      <g transform="translate(28.334375 206.607631)scale(0.1 -0.1)">
       <use xlink:href="#DejaVuSans-35"/>
       <use xlink:href="#DejaVuSans-30" x="63.623047"/>
       <use xlink:href="#DejaVuSans-2e" x="127.246094"/>
       <use xlink:href="#DejaVuSans-30" x="159.033203"/>
      </g>
     </g>
    </g>
    <g id="ytick_5">
     <g id="line2d_12">
      <g>
       <use xlink:href="#m141d2a596d" x="57.6" y="171.620158" style="stroke: #000000; stroke-width: 0.8"/>
      </g>
     </g>
     <g id="text_12">
      <!-- 52.5 -->
      <g transform="translate(28.334375 175.419377)scale(0.1 -0.1)">
       <use xlink:href="#DejaVuSans-35"/>
       <use xlink:href="#DejaVuSans-32" x="63.623047"/>
       <use xlink:href="#DejaVuSans-2e" x="127.246094"/>
       <use xlink:href="#DejaVuSans-35" x="159.033203"/>
      </g>
     </g>
    </g>
    <g id="ytick_6">
     <g id="line2d_13">
      <g>
       <use xlink:href="#m141d2a596d" x="57.6" y="140.431904" style="stroke: #000000; stroke-width: 0.8"/>
      </g>
     </g>
     <g id="text_13">
      <!-- 55.0 -->
      <g transform="translate(28.334375 144.231122)scale(0.1 -0.1)">
       <use xlink:href="#DejaVuSans-35"/>
       <use xlink:href="#DejaVuSans-35" x="63.623047"/>
       <use xlink:href="#DejaVuSans-2e" x="127.246094"/>
       <use xlink:href="#DejaVuSans-30" x="159.033203"/>
      </g>
     </g>
    </g>
    <g id="ytick_7">
     <g id="line2d_14">
      <g>
       <use xlink:href="#m141d2a596d" x="57.6" y="109.243649" style="stroke: #000000; stroke-width: 0.8"/>
      </g>
     </g>
     <g id="text_14">
      <!-- 57.5 -->
      <g transform="translate(28.334375 113.042868)scale(0.1 -0.1)">
       <use xlink:href="#DejaVuSans-35"/>
       <use xlink:href="#DejaVuSans-37" x="63.623047"/>
       <use xlink:href="#DejaVuSans-2e" x="127.246094"/>
       <use xlink:href="#DejaVuSans-35" x="159.033203"/>
      </g>
     </g>
    </g>
    <g id="ytick_8">
     <g id="line2d_15">
      <g>
       <use xlink:href="#m141d2a596d" x="57.6" y="78.055395" style="stroke: #000000; stroke-width: 0.8"/>
      </g>
     </g>
     <g id="text_15">
      <!-- 60.0 -->
      <g transform="translate(28.334375 81.854614)scale(0.1 -0.1)">
       <defs>
        <path id="DejaVuSans-36" d="M 2113 2584 
Q 1688 2584 1439 2293 
Q 1191 2003 1191 1497 
Q 1191 994 1439 701 
Q 1688 409 2113 409 
Q 2538 409 2786 701 
Q 3034 994 3034 1497 
Q 3034 2003 2786 2293 
Q 2538 2584 2113 2584 
z
M 3366 4563 
L 3366 3988 
Q 3128 4100 2886 4159 
Q 2644 4219 2406 4219 
Q 1781 4219 1451 3797 
Q 1122 3375 1075 2522 
Q 1259 2794 1537 2939 
Q 1816 3084 2150 3084 
Q 2853 3084 3261 2657 
Q 3669 2231 3669 1497 
Q 3669 778 3244 343 
Q 2819 -91 2113 -91 
Q 1303 -91 875 529 
Q 447 1150 447 2328 
Q 447 3434 972 4092 
Q 1497 4750 2381 4750 
Q 2619 4750 2861 4703 
Q 3103 4656 3366 4563 
z
" transform="scale(0.015625)"/>
       </defs>
       <use xlink:href="#DejaVuSans-36"/>
       <use xlink:href="#DejaVuSans-30" x="63.623047"/>
       <use xlink:href="#DejaVuSans-2e" x="127.246094"/>
       <use xlink:href="#DejaVuSans-30" x="159.033203"/>
      </g>
     </g>
    </g>
    <g id="ytick_9">
     <g id="line2d_16">
      <g>
       <use xlink:href="#m141d2a596d" x="57.6" y="46.867141" style="stroke: #000000; stroke-width: 0.8"/>
      </g>
     </g>
     <g id="text_16">
      <!-- 62.5 -->
      <g transform="translate(28.334375 50.66636)scale(0.1 -0.1)">
       <use xlink:href="#DejaVuSans-36"/>
       <use xlink:href="#DejaVuSans-32" x="63.623047"/>
       <use xlink:href="#DejaVuSans-2e" x="127.246094"/>
       <use xlink:href="#DejaVuSans-35" x="159.033203"/>
      </g>
     </g>
    </g>
   </g>
   <g id="line2d_17">
    <path d="M 73.832727 265.96861 
L 74.850453 272.795653 
L 75.868179 274.802573 
L 76.885905 278.491333 
L 77.903631 280.661906 
L 78.921357 281.216746 
L 79.939082 283.964859 
L 80.956808 286.091517 
L 81.974534 285.003725 
L 82.99226 282.783541 
L 84.009986 286.9409 
L 85.027712 288.568787 
L 86.045437 285.694497 
L 87.063163 286.495386 
L 88.080889 286.468582 
L 89.098615 291.274351 
L 90.116341 289.264317 
L 91.134067 289.047458 
L 92.151793 293.138555 
L 93.169518 293.387756 
L 94.187244 293.401554 
L 95.20497 289.874514 
L 96.222696 290.070815 
L 97.240422 291.474632 
L 98.258148 294.043939 
L 99.275873 292.544185 
L 100.293599 292.645765 
L 101.311325 291.045514 
L 102.329051 293.965217 
L 103.346777 293.733945 
L 104.364503 291.526136 
L 105.382229 293.381621 
L 106.399954 294.445318 
L 107.41768 291.079925 
L 108.435406 294.087512 
L 109.453132 291.159527 
L 110.470858 291.274475 
L 111.488584 294.474946 
L 112.506309 291.26034 
L 113.524035 291.34754 
L 114.541761 291.68455 
L 115.559487 291.719998 
L 117.594939 295.488 
L 118.612665 293.454592 
L 119.63039 292.341791 
L 120.648116 291.941655 
L 121.665842 293.605009 
L 122.683568 291.645253 
L 123.701294 293.338541 
L 124.71902 291.543932 
L 125.736746 293.247131 
L 126.754471 291.46554 
L 127.772197 289.420527 
L 128.789923 292.320922 
L 129.807649 290.07457 
L 130.825375 292.445531 
L 131.843101 293.847746 
L 132.860826 293.31963 
L 133.878552 292.083761 
L 134.896278 290.541408 
L 135.914004 292.61856 
L 136.93173 293.718154 
L 137.949456 292.201341 
L 138.967182 238.723499 
L 139.984907 245.084833 
L 141.002633 249.305288 
L 142.020359 246.252023 
L 143.038085 249.54386 
L 144.055811 249.174077 
L 145.073537 251.053093 
L 146.091262 250.897367 
L 147.108988 251.307331 
L 148.126714 253.664195 
L 149.14444 253.284485 
L 150.162166 255.102614 
L 151.179892 255.442734 
L 152.197618 252.912659 
L 153.215343 253.797273 
L 154.233069 252.743173 
L 155.250795 253.19287 
L 156.268521 254.645612 
L 157.286247 255.433431 
L 158.303973 254.936021 
L 159.321698 258.508061 
L 160.339424 257.607926 
L 161.35715 257.896509 
L 162.374876 259.208504 
L 163.392602 257.964153 
L 164.410328 256.402872 
L 165.428054 259.531687 
L 166.445779 260.26472 
L 167.463505 260.420217 
L 168.481231 257.762265 
L 169.498957 258.293483 
L 170.516683 255.966364 
L 171.534409 256.587092 
L 172.552135 258.989476 
L 173.56986 258.203696 
L 174.587586 260.497857 
L 175.605312 260.795582 
L 176.623038 262.593484 
L 177.640764 261.654372 
L 178.65849 261.960763 
L 179.676215 259.411724 
L 180.693941 259.005963 
L 181.711667 258.070228 
L 182.729393 257.550428 
L 183.747119 260.179095 
L 184.764845 260.544002 
L 185.782571 256.773023 
L 186.800296 256.779502 
L 187.818022 257.003007 
L 188.835748 258.865155 
L 189.853474 258.861221 
L 190.8712 257.755812 
L 191.888926 255.351193 
L 192.906651 254.180434 
L 193.924377 259.327037 
L 194.942103 256.277907 
L 195.959829 256.230734 
L 196.977555 259.335767 
L 197.995281 259.775819 
L 199.013007 258.850855 
L 200.030732 260.258712 
L 201.048458 258.162819 
L 202.066184 256.971765 
L 203.08391 260.296126 
L 204.101636 250.862159 
L 205.119362 244.132 
L 206.137087 240.992845 
L 207.154813 241.312859 
L 208.172539 241.054071 
L 210.207991 233.629723 
L 211.225717 235.827624 
L 212.243443 231.399232 
L 213.261168 230.497078 
L 214.278894 230.787684 
L 215.29662 228.500803 
L 216.314346 230.629799 
L 217.332072 228.590176 
L 218.349798 229.741955 
L 219.367524 228.680227 
L 220.385249 226.178022 
L 221.402975 222.59103 
L 222.420701 224.407864 
L 223.438427 223.18534 
L 224.456153 226.773091 
L 226.491604 216.768875 
L 227.50933 217.217355 
L 228.527056 223.483531 
L 229.544782 225.170441 
L 230.562508 226.466325 
L 231.580234 222.04577 
L 232.59796 218.448242 
L 233.615685 215.526244 
L 234.633411 217.122805 
L 236.668863 217.35127 
L 237.686589 217.264429 
L 239.72204 219.619497 
L 240.739766 222.890694 
L 241.757492 221.16608 
L 242.775218 219.798998 
L 243.792944 220.26118 
L 244.81067 220.856061 
L 245.828396 217.999102 
L 246.846121 217.877479 
L 247.863847 221.184418 
L 248.881573 218.08221 
L 249.899299 218.265634 
L 250.917025 219.282214 
L 251.934751 220.075987 
L 252.952476 218.701562 
L 253.970202 216.885701 
L 254.987928 217.396299 
L 256.005654 213.929699 
L 257.02338 215.23271 
L 258.041106 217.599499 
L 259.058832 214.187245 
L 260.076557 209.12215 
L 261.094283 210.991218 
L 262.112009 215.452327 
L 263.129735 212.611112 
L 264.147461 213.963724 
L 265.165187 215.864832 
L 266.182913 215.531582 
L 267.200638 214.956359 
L 268.218364 213.059655 
L 269.23609 175.77682 
L 270.253816 178.136383 
L 271.271542 181.610334 
L 272.289268 185.945049 
L 273.306993 186.179268 
L 274.324719 189.620327 
L 275.342445 186.912438 
L 276.360171 194.864662 
L 277.377897 195.095448 
L 278.395623 197.42944 
L 279.413349 196.732347 
L 280.431074 194.674366 
L 281.4488 193.284072 
L 282.466526 194.212249 
L 283.484252 198.826874 
L 284.501978 199.067808 
L 285.519704 194.331235 
L 286.537429 198.712354 
L 287.555155 198.170348 
L 288.572881 198.880631 
L 289.590607 203.651239 
L 290.608333 200.904316 
L 291.626059 200.132217 
L 292.643785 203.358173 
L 293.66151 200.110402 
L 294.679236 198.45709 
L 295.696962 203.425064 
L 296.714688 204.003225 
L 297.732414 205.011968 
L 298.75014 197.943699 
L 299.767865 197.326146 
L 300.785591 199.328404 
L 301.803317 203.027805 
L 302.821043 200.186435 
L 303.838769 193.917599 
L 304.856495 197.955983 
L 305.874221 197.985543 
L 306.891946 194.797017 
L 307.909672 192.775091 
L 308.927398 196.143837 
L 309.945124 195.742728 
L 311.980576 200.43537 
L 312.998302 200.347757 
L 314.016027 197.4717 
L 315.033753 197.333608 
L 316.051479 194.946526 
L 317.069205 198.559019 
L 318.086931 194.756116 
L 319.104657 198.252276 
L 320.122382 199.30162 
L 321.140108 192.638353 
L 322.157834 193.52798 
L 324.193286 200.4138 
L 325.211012 204.077105 
L 326.228738 201.402522 
L 327.246463 193.04381 
L 328.264189 196.842153 
L 329.281915 198.14976 
L 330.299641 197.811954 
L 331.317367 193.920812 
L 332.335093 193.69057 
L 333.352818 196.06267 
L 334.370544 67.276261 
L 335.38827 63.243825 
L 336.405996 66.98998 
L 337.423722 64.484785 
L 338.441448 56.57147 
L 339.459174 60.077732 
L 340.476899 65.297301 
L 341.494625 60.642166 
L 342.512351 60.537502 
L 343.530077 58.94066 
L 344.547803 62.404556 
L 345.565529 72.907668 
L 346.583254 71.561038 
L 347.60098 70.744285 
L 348.618706 59.317995 
L 349.636432 57.004792 
L 350.654158 66.583125 
L 351.671884 71.744913 
L 353.707335 60.393689 
L 354.725061 69.978708 
L 355.742787 73.876063 
L 356.760513 67.246699 
L 357.778239 70.477427 
L 358.795965 76.78963 
L 359.813691 74.106869 
L 360.831416 66.273851 
L 361.849142 67.957558 
L 362.866868 67.514 
L 363.884594 59.200443 
L 364.90232 56.968883 
L 365.920046 55.456362 
L 366.937771 61.580291 
L 367.955497 75.99024 
L 368.973223 79.90311 
L 369.990949 75.050388 
L 371.008675 63.196878 
L 372.026401 70.487161 
L 373.044127 64.973435 
L 374.061852 58.136204 
L 375.079578 60.876542 
L 377.11503 77.647169 
L 378.132756 71.285606 
L 379.150482 57.995535 
L 380.168207 53.568 
L 381.185933 61.669933 
L 382.203659 67.860335 
L 383.221385 65.84921 
L 384.239111 76.240275 
L 385.256837 75.140105 
L 386.274563 71.425803 
L 387.292288 64.568227 
L 388.310014 70.666277 
L 389.32774 69.764051 
L 390.345466 69.934559 
L 391.363192 60.770845 
L 392.380918 56.935403 
L 393.398643 63.799095 
L 394.416369 68.787075 
L 395.434095 69.679415 
L 396.451821 59.916996 
L 397.469547 54.35063 
L 398.487273 55.094803 
L 398.487273 55.094803 
" clip-path="url(#pccb27f0be6)" style="fill: none; stroke: #1f77b4; stroke-width: 1.5; stroke-linecap: square"/>
   </g>
   <g id="patch_3">
    <path d="M 57.6 307.584 
L 57.6 41.472 
" style="fill: none; stroke: #000000; stroke-width: 0.8; stroke-linejoin: miter; stroke-linecap: square"/>
   </g>
   <g id="patch_4">
    <path d="M 414.72 307.584 
L 414.72 41.472 
" style="fill: none; stroke: #000000; stroke-width: 0.8; stroke-linejoin: miter; stroke-linecap: square"/>
   </g>
   <g id="patch_5">
    <path d="M 57.6 307.584 
L 414.72 307.584 
" style="fill: none; stroke: #000000; stroke-width: 0.8; stroke-linejoin: miter; stroke-linecap: square"/>
   </g>
   <g id="patch_6">
    <path d="M 57.6 41.472 
L 414.72 41.472 
" style="fill: none; stroke: #000000; stroke-width: 0.8; stroke-linejoin: miter; stroke-linecap: square"/>
   </g>
   <g id="legend_1">
    <g id="patch_7">
     <path d="M 64.6 64.150125 
L 118.245312 64.150125 
Q 120.245312 64.150125 120.245312 62.150125 
L 120.245312 48.472 
Q 120.245312 46.472 118.245312 46.472 
L 64.6 46.472 
Q 62.6 46.472 62.6 48.472 
L 62.6 62.150125 
Q 62.6 64.150125 64.6 64.150125 
z
" style="fill: #ffffff; opacity: 0.8; stroke: #cccccc; stroke-linejoin: miter"/>
    </g>
    <g id="line2d_18">
     <path d="M 66.6 54.570438 
L 76.6 54.570438 
L 86.6 54.570438 
" style="fill: none; stroke: #1f77b4; stroke-width: 1.5; stroke-linecap: square"/>
    </g>
    <g id="text_17">
     <!-- set1 -->
     <g transform="translate(94.6 58.070438)scale(0.1 -0.1)">
      <defs>
       <path id="DejaVuSans-73" d="M 2834 3397 
L 2834 2853 
Q 2591 2978 2328 3040 
Q 2066 3103 1784 3103 
Q 1356 3103 1142 2972 
Q 928 2841 928 2578 
Q 928 2378 1081 2264 
Q 1234 2150 1697 2047 
L 1894 2003 
Q 2506 1872 2764 1633 
Q 3022 1394 3022 966 
Q 3022 478 2636 193 
Q 2250 -91 1575 -91 
Q 1294 -91 989 -36 
Q 684 19 347 128 
L 347 722 
Q 666 556 975 473 
Q 1284 391 1588 391 
Q 1994 391 2212 530 
Q 2431 669 2431 922 
Q 2431 1156 2273 1281 
Q 2116 1406 1581 1522 
L 1381 1569 
Q 847 1681 609 1914 
Q 372 2147 372 2553 
Q 372 3047 722 3315 
Q 1072 3584 1716 3584 
Q 2034 3584 2315 3537 
Q 2597 3491 2834 3397 
z
" transform="scale(0.015625)"/>
       <path id="DejaVuSans-65" d="M 3597 1894 
L 3597 1613 
L 953 1613 
Q 991 1019 1311 708 
Q 1631 397 2203 397 
Q 2534 397 2845 478 
Q 3156 559 3463 722 
L 3463 178 
Q 3153 47 2828 -22 
Q 2503 -91 2169 -91 
Q 1331 -91 842 396 
Q 353 884 353 1716 
Q 353 2575 817 3079 
Q 1281 3584 2069 3584 
Q 2775 3584 3186 3129 
Q 3597 2675 3597 1894 
z
M 3022 2063 
Q 3016 2534 2758 2815 
Q 2500 3097 2075 3097 
Q 1594 3097 1305 2825 
Q 1016 2553 972 2059 
L 3022 2063 
z
" transform="scale(0.015625)"/>
       <path id="DejaVuSans-74" d="M 1172 4494 
L 1172 3500 
L 2356 3500 
L 2356 3053 
L 1172 3053 
L 1172 1153 
Q 1172 725 1289 603 
Q 1406 481 1766 481 
L 2356 481 
L 2356 0 
L 1766 0 
Q 1100 0 847 248 
Q 594 497 594 1153 
L 594 3053 
L 172 3053 
L 172 3500 
L 594 3500 
L 594 4494 
L 1172 4494 
z
" transform="scale(0.015625)"/>
      </defs>
      <use xlink:href="#DejaVuSans-73"/>
      <use xlink:href="#DejaVuSans-65" x="52.099609"/>
      <use xlink:href="#DejaVuSans-74" x="113.623047"/>
      <use xlink:href="#DejaVuSans-31" x="152.832031"/>
     </g>
    </g>
   </g>
  </g>
 </g>
 <defs>
  <clipPath id="pccb27f0be6">
   <rect x="57.6" y="41.472" width="357.12" height="266.112"/>
  </clipPath>
 </defs>
</svg>
