<?xml version="1.0" encoding="utf-8" standalone="no"?>
<!DOCTYPE svg PUBLIC "-//W3C//DTD SVG 1.1//EN"
  "http://www.w3.org/Graphics/SVG/1.1/DTD/svg11.dtd">
<svg xmlns:xlink="http://www.w3.org/1999/xlink" width="460.8pt" height="345.6pt" viewBox="0 0 460.8 345.6" xmlns="http://www.w3.org/2000/svg" version="1.1">
 <metadata>
  <rdf:RDF xmlns:dc="http://purl.org/dc/elements/1.1/" xmlns:cc="http://creativecommons.org/ns#" xmlns:rdf="http://www.w3.org/1999/02/22-rdf-syntax-ns#">
   <cc:Work>
    <dc:type rdf:resource="http://purl.org/dc/dcmitype/StillImage"/>
    <dc:date>2022-08-11T15:18:12.048112</dc:date>
    <dc:format>image/svg+xml</dc:format>
    <dc:creator>
     <cc:Agent>
      <dc:title>Matplotlib v3.5.2, https://matplotlib.org/</dc:title>
     </cc:Agent>
    </dc:creator>
   </cc:Work>
  </rdf:RDF>
 </metadata>
 <defs>
  <style type="text/css">*{stroke-linejoin: round; stroke-linecap: butt}</style>
 </defs>
 <g id="figure_1">
  <g id="patch_1">
   <path d="M 0 345.6 
L 460.8 345.6 
L 460.8 0 
L 0 0 
z
" style="fill: #ffffff"/>
  </g>
  <g id="axes_1">
   <g id="patch_2">
    <path d="M 57.6 307.584 
L 414.72 307.584 
L 414.72 41.472 
L 57.6 41.472 
z
" style="fill: #ffffff"/>
   </g>
   <g id="matplotlib.axis_1">
    <g id="xtick_1">
     <g id="line2d_1">
      <defs>
       <path id="m9657640e8e" d="M 0 0 
L 0 3.5 
" style="stroke: #000000; stroke-width: 0.8"/>
      </defs>
      <g>
       <use xlink:href="#m9657640e8e" x="73.832727" y="307.584" style="stroke: #000000; stroke-width: 0.8"/>
      </g>
     </g>
     <g id="text_1">
      <!-- 0 -->
      <g transform="translate(70.651477 322.182437)scale(0.1 -0.1)">
       <defs>
        <path id="DejaVuSans-30" d="M 2034 4250 
Q 1547 4250 1301 3770 
Q 1056 3291 1056 2328 
Q 1056 1369 1301 889 
Q 1547 409 2034 409 
Q 2525 409 2770 889 
Q 3016 1369 3016 2328 
Q 3016 3291 2770 3770 
Q 2525 4250 2034 4250 
z
M 2034 4750 
Q 2819 4750 3233 4129 
Q 3647 3509 3647 2328 
Q 3647 1150 3233 529 
Q 2819 -91 2034 -91 
Q 1250 -91 836 529 
Q 422 1150 422 2328 
Q 422 3509 836 4129 
Q 1250 4750 2034 4750 
z
" transform="scale(0.015625)"/>
       </defs>
       <use xlink:href="#DejaVuSans-30"/>
      </g>
     </g>
    </g>
    <g id="xtick_2">
     <g id="line2d_2">
      <g>
       <use xlink:href="#m9657640e8e" x="118.936165" y="307.584" style="stroke: #000000; stroke-width: 0.8"/>
      </g>
     </g>
     <g id="text_2">
      <!-- 500 -->
      <g transform="translate(109.392415 322.182437)scale(0.1 -0.1)">
       <defs>
        <path id="DejaVuSans-35" d="M 691 4666 
L 3169 4666 
L 3169 4134 
L 1269 4134 
L 1269 2991 
Q 1406 3038 1543 3061 
Q 1681 3084 1819 3084 
Q 2600 3084 3056 2656 
Q 3513 2228 3513 1497 
Q 3513 744 3044 326 
Q 2575 -91 1722 -91 
Q 1428 -91 1123 -41 
Q 819 9 494 109 
L 494 744 
Q 775 591 1075 516 
Q 1375 441 1709 441 
Q 2250 441 2565 725 
Q 2881 1009 2881 1497 
Q 2881 1984 2565 2268 
Q 2250 2553 1709 2553 
Q 1456 2553 1204 2497 
Q 953 2441 691 2322 
L 691 4666 
z
" transform="scale(0.015625)"/>
       </defs>
       <use xlink:href="#DejaVuSans-35"/>
       <use xlink:href="#DejaVuSans-30" x="63.623047"/>
       <use xlink:href="#DejaVuSans-30" x="127.246094"/>
      </g>
     </g>
    </g>
    <g id="xtick_3">
     <g id="line2d_3">
      <g>
       <use xlink:href="#m9657640e8e" x="164.039603" y="307.584" style="stroke: #000000; stroke-width: 0.8"/>
      </g>
     </g>
     <g id="text_3">
      <!-- 1000 -->
      <g transform="translate(151.314603 322.182437)scale(0.1 -0.1)">
       <defs>
        <path id="DejaVuSans-31" d="M 794 531 
L 1825 531 
L 1825 4091 
L 703 3866 
L 703 4441 
L 1819 4666 
L 2450 4666 
L 2450 531 
L 3481 531 
L 3481 0 
L 794 0 
L 794 531 
z
" transform="scale(0.015625)"/>
       </defs>
       <use xlink:href="#DejaVuSans-31"/>
       <use xlink:href="#DejaVuSans-30" x="63.623047"/>
       <use xlink:href="#DejaVuSans-30" x="127.246094"/>
       <use xlink:href="#DejaVuSans-30" x="190.869141"/>
      </g>
     </g>
    </g>
    <g id="xtick_4">
     <g id="line2d_4">
      <g>
       <use xlink:href="#m9657640e8e" x="209.143041" y="307.584" style="stroke: #000000; stroke-width: 0.8"/>
      </g>
     </g>
     <g id="text_4">
      <!-- 1500 -->
      <g transform="translate(196.418041 322.182437)scale(0.1 -0.1)">
       <use xlink:href="#DejaVuSans-31"/>
       <use xlink:href="#DejaVuSans-35" x="63.623047"/>
       <use xlink:href="#DejaVuSans-30" x="127.246094"/>
       <use xlink:href="#DejaVuSans-30" x="190.869141"/>
      </g>
     </g>
    </g>
    <g id="xtick_5">
     <g id="line2d_5">
      <g>
       <use xlink:href="#m9657640e8e" x="254.246479" y="307.584" style="stroke: #000000; stroke-width: 0.8"/>
      </g>
     </g>
     <g id="text_5">
      <!-- 2000 -->
      <g transform="translate(241.521479 322.182437)scale(0.1 -0.1)">
       <defs>
        <path id="DejaVuSans-32" d="M 1228 531 
L 3431 531 
L 3431 0 
L 469 0 
L 469 531 
Q 828 903 1448 1529 
Q 2069 2156 2228 2338 
Q 2531 2678 2651 2914 
Q 2772 3150 2772 3378 
Q 2772 3750 2511 3984 
Q 2250 4219 1831 4219 
Q 1534 4219 1204 4116 
Q 875 4013 500 3803 
L 500 4441 
Q 881 4594 1212 4672 
Q 1544 4750 1819 4750 
Q 2544 4750 2975 4387 
Q 3406 4025 3406 3419 
Q 3406 3131 3298 2873 
Q 3191 2616 2906 2266 
Q 2828 2175 2409 1742 
Q 1991 1309 1228 531 
z
" transform="scale(0.015625)"/>
       </defs>
       <use xlink:href="#DejaVuSans-32"/>
       <use xlink:href="#DejaVuSans-30" x="63.623047"/>
       <use xlink:href="#DejaVuSans-30" x="127.246094"/>
       <use xlink:href="#DejaVuSans-30" x="190.869141"/>
      </g>
     </g>
    </g>
    <g id="xtick_6">
     <g id="line2d_6">
      <g>
       <use xlink:href="#m9657640e8e" x="299.349916" y="307.584" style="stroke: #000000; stroke-width: 0.8"/>
      </g>
     </g>
     <g id="text_6">
      <!-- 2500 -->
      <g transform="translate(286.624916 322.182437)scale(0.1 -0.1)">
       <use xlink:href="#DejaVuSans-32"/>
       <use xlink:href="#DejaVuSans-35" x="63.623047"/>
       <use xlink:href="#DejaVuSans-30" x="127.246094"/>
       <use xlink:href="#DejaVuSans-30" x="190.869141"/>
      </g>
     </g>
    </g>
    <g id="xtick_7">
     <g id="line2d_7">
      <g>
       <use xlink:href="#m9657640e8e" x="344.453354" y="307.584" style="stroke: #000000; stroke-width: 0.8"/>
      </g>
     </g>
     <g id="text_7">
      <!-- 3000 -->
      <g transform="translate(331.728354 322.182437)scale(0.1 -0.1)">
       <defs>
        <path id="DejaVuSans-33" d="M 2597 2516 
Q 3050 2419 3304 2112 
Q 3559 1806 3559 1356 
Q 3559 666 3084 287 
Q 2609 -91 1734 -91 
Q 1441 -91 1130 -33 
Q 819 25 488 141 
L 488 750 
Q 750 597 1062 519 
Q 1375 441 1716 441 
Q 2309 441 2620 675 
Q 2931 909 2931 1356 
Q 2931 1769 2642 2001 
Q 2353 2234 1838 2234 
L 1294 2234 
L 1294 2753 
L 1863 2753 
Q 2328 2753 2575 2939 
Q 2822 3125 2822 3475 
Q 2822 3834 2567 4026 
Q 2313 4219 1838 4219 
Q 1578 4219 1281 4162 
Q 984 4106 628 3988 
L 628 4550 
Q 988 4650 1302 4700 
Q 1616 4750 1894 4750 
Q 2613 4750 3031 4423 
Q 3450 4097 3450 3541 
Q 3450 3153 3228 2886 
Q 3006 2619 2597 2516 
z
" transform="scale(0.015625)"/>
       </defs>
       <use xlink:href="#DejaVuSans-33"/>
       <use xlink:href="#DejaVuSans-30" x="63.623047"/>
       <use xlink:href="#DejaVuSans-30" x="127.246094"/>
       <use xlink:href="#DejaVuSans-30" x="190.869141"/>
      </g>
     </g>
    </g>
    <g id="xtick_8">
     <g id="line2d_8">
      <g>
       <use xlink:href="#m9657640e8e" x="389.556792" y="307.584" style="stroke: #000000; stroke-width: 0.8"/>
      </g>
     </g>
     <g id="text_8">
      <!-- 3500 -->
      <g transform="translate(376.831792 322.182437)scale(0.1 -0.1)">
       <use xlink:href="#DejaVuSans-33"/>
       <use xlink:href="#DejaVuSans-35" x="63.623047"/>
       <use xlink:href="#DejaVuSans-30" x="127.246094"/>
       <use xlink:href="#DejaVuSans-30" x="190.869141"/>
      </g>
     </g>
    </g>
   </g>
   <g id="matplotlib.axis_2">
    <g id="ytick_1">
     <g id="line2d_9">
      <defs>
       <path id="mb92e3441a2" d="M 0 0 
L -3.5 0 
" style="stroke: #000000; stroke-width: 0.8"/>
      </defs>
      <g>
       <use xlink:href="#mb92e3441a2" x="57.6" y="288.138113" style="stroke: #000000; stroke-width: 0.8"/>
      </g>
     </g>
     <g id="text_9">
      <!-- 4000 -->
      <g transform="translate(25.15 291.937332)scale(0.1 -0.1)">
       <defs>
        <path id="DejaVuSans-34" d="M 2419 4116 
L 825 1625 
L 2419 1625 
L 2419 4116 
z
M 2253 4666 
L 3047 4666 
L 3047 1625 
L 3713 1625 
L 3713 1100 
L 3047 1100 
L 3047 0 
L 2419 0 
L 2419 1100 
L 313 1100 
L 313 1709 
L 2253 4666 
z
" transform="scale(0.015625)"/>
       </defs>
       <use xlink:href="#DejaVuSans-34"/>
       <use xlink:href="#DejaVuSans-30" x="63.623047"/>
       <use xlink:href="#DejaVuSans-30" x="127.246094"/>
       <use xlink:href="#DejaVuSans-30" x="190.869141"/>
      </g>
     </g>
    </g>
    <g id="ytick_2">
     <g id="line2d_10">
      <g>
       <use xlink:href="#mb92e3441a2" x="57.6" y="239.554798" style="stroke: #000000; stroke-width: 0.8"/>
      </g>
     </g>
     <g id="text_10">
      <!-- 4050 -->
      <g transform="translate(25.15 243.354017)scale(0.1 -0.1)">
       <use xlink:href="#DejaVuSans-34"/>
       <use xlink:href="#DejaVuSans-30" x="63.623047"/>
       <use xlink:href="#DejaVuSans-35" x="127.246094"/>
       <use xlink:href="#DejaVuSans-30" x="190.869141"/>
      </g>
     </g>
    </g>
    <g id="ytick_3">
     <g id="line2d_11">
      <g>
       <use xlink:href="#mb92e3441a2" x="57.6" y="190.971483" style="stroke: #000000; stroke-width: 0.8"/>
      </g>
     </g>
     <g id="text_11">
      <!-- 4100 -->
      <g transform="translate(25.15 194.770702)scale(0.1 -0.1)">
       <use xlink:href="#DejaVuSans-34"/>
       <use xlink:href="#DejaVuSans-31" x="63.623047"/>
       <use xlink:href="#DejaVuSans-30" x="127.246094"/>
       <use xlink:href="#DejaVuSans-30" x="190.869141"/>
      </g>
     </g>
    </g>
    <g id="ytick_4">
     <g id="line2d_12">
      <g>
       <use xlink:href="#mb92e3441a2" x="57.6" y="142.388168" style="stroke: #000000; stroke-width: 0.8"/>
      </g>
     </g>
     <g id="text_12">
      <!-- 4150 -->
      <g transform="translate(25.15 146.187387)scale(0.1 -0.1)">
       <use xlink:href="#DejaVuSans-34"/>
       <use xlink:href="#DejaVuSans-31" x="63.623047"/>
       <use xlink:href="#DejaVuSans-35" x="127.246094"/>
       <use xlink:href="#DejaVuSans-30" x="190.869141"/>
      </g>
     </g>
    </g>
    <g id="ytick_5">
     <g id="line2d_13">
      <g>
       <use xlink:href="#mb92e3441a2" x="57.6" y="93.804853" style="stroke: #000000; stroke-width: 0.8"/>
      </g>
     </g>
     <g id="text_13">
      <!-- 4200 -->
      <g transform="translate(25.15 97.604072)scale(0.1 -0.1)">
       <use xlink:href="#DejaVuSans-34"/>
       <use xlink:href="#DejaVuSans-32" x="63.623047"/>
       <use xlink:href="#DejaVuSans-30" x="127.246094"/>
       <use xlink:href="#DejaVuSans-30" x="190.869141"/>
      </g>
     </g>
    </g>
    <g id="ytick_6">
     <g id="line2d_14">
      <g>
       <use xlink:href="#mb92e3441a2" x="57.6" y="45.221538" style="stroke: #000000; stroke-width: 0.8"/>
      </g>
     </g>
     <g id="text_14">
      <!-- 4250 -->
      <g transform="translate(25.15 49.020757)scale(0.1 -0.1)">
       <use xlink:href="#DejaVuSans-34"/>
       <use xlink:href="#DejaVuSans-32" x="63.623047"/>
       <use xlink:href="#DejaVuSans-35" x="127.246094"/>
       <use xlink:href="#DejaVuSans-30" x="190.869141"/>
      </g>
     </g>
    </g>
   </g>
   <g id="line2d_15">
    <path d="M 73.832727 175.026287 
L 73.922934 173.780391 
L 74.103348 194.957782 
L 74.283762 174.777203 
L 74.464175 190.971483 
L 74.554382 191.843516 
L 74.734796 198.32137 
L 74.825003 193.338496 
L 75.005417 205.172851 
L 75.18583 200.065198 
L 75.276037 199.193166 
L 75.456451 191.469651 
L 75.546658 202.93038 
L 75.636865 201.809263 
L 75.727072 187.109964 
L 75.817279 190.597619 
L 75.907485 203.054922 
L 76.087899 181.628684 
L 76.35852 209.283692 
L 76.448727 208.287118 
L 76.62914 192.964633 
L 76.719347 203.553328 
L 76.809554 202.432211 
L 76.899761 190.22423 
L 77.080175 195.331409 
L 77.170382 187.608132 
L 77.350795 209.283692 
L 77.531209 195.456188 
L 77.621416 201.311094 
L 77.80183 190.971483 
L 77.892037 206.044883 
L 77.982244 201.809263 
L 78.07245 189.476503 
L 78.162657 193.462801 
L 78.252864 188.355385 
L 78.343071 173.033138 
L 78.433278 175.275371 
L 78.523485 176.022624 
L 78.613692 166.181657 
L 78.703899 167.676638 
L 78.794105 164.686676 
L 78.884312 146.748331 
L 78.974519 146.997415 
L 79.064726 157.959975 
L 79.154933 151.232798 
L 79.24514 151.855746 
L 79.335347 160.451293 
L 79.51576 153.848896 
L 79.876588 176.770353 
L 80.057002 156.340215 
L 80.237415 172.41019 
L 80.327622 165.433929 
L 80.417829 169.171144 
L 80.508036 177.642385 
L 80.68845 165.807793 
L 80.868864 187.981522 
L 81.049277 171.538157 
L 81.229691 177.76669 
L 81.319898 175.649235 
L 81.410105 163.565559 
L 81.500312 166.305961 
L 81.590519 182.375937 
L 81.680725 176.770353 
L 81.861139 155.842045 
L 81.951346 173.531307 
L 82.041553 171.912021 
L 82.13176 177.517606 
L 82.221967 175.89832 
L 82.40238 164.437592 
L 82.492587 164.93576 
L 82.582794 155.96635 
L 82.673001 158.209059 
L 82.763208 169.545007 
L 82.943622 161.696715 
L 83.033829 168.548196 
L 83.214242 158.08428 
L 83.304449 163.814644 
L 83.394656 162.568747 
L 83.484863 159.330176 
L 83.57507 160.575597 
L 83.665277 154.596149 
L 83.755484 156.215909 
L 83.84569 169.171144 
L 84.026104 149.613513 
L 84.206518 161.572409 
L 84.296725 154.347065 
L 84.477139 162.319663 
L 84.567345 156.464994 
L 84.747759 162.818306 
L 85.01838 147.993753 
L 85.108587 149.986902 
L 85.289 165.06054 
L 85.469414 148.616701 
L 85.649828 165.06054 
L 85.830242 151.108019 
L 85.920449 151.232798 
L 86.100862 162.818306 
L 86.281276 152.353916 
L 86.46169 166.305961 
L 86.642104 145.502434 
L 86.73231 159.205396 
L 86.822517 158.831533 
L 86.912724 149.364428 
L 87.093138 170.666124 
L 87.183345 165.807793 
L 87.363759 146.997415 
L 87.453965 147.495584 
L 87.634379 152.852084 
L 87.814793 146.249687 
L 87.995207 160.077429 
L 88.085414 155.468182 
L 88.175621 156.464994 
L 88.265827 161.44763 
L 88.446241 159.330176 
L 88.536448 167.177994 
L 88.626655 165.932572 
L 88.807069 152.727779 
L 88.987482 169.545007 
L 89.438517 144.132233 
L 89.709137 160.700377 
L 89.799344 162.319663 
L 89.889551 158.956312 
L 89.979758 159.828344 
L 90.250379 145.25335 
L 90.430792 145.876298 
L 90.701413 149.488733 
L 90.79162 147.744668 
L 90.972034 152.22961 
L 91.062241 145.004266 
L 91.152447 145.627214 
L 91.332861 154.471844 
L 91.423068 152.353916 
L 91.513275 153.475032 
L 91.693689 148.74148 
L 91.874102 161.821494 
L 92.054516 143.509285 
L 92.144723 148.243312 
L 92.325137 140.893188 
L 92.415344 149.737818 
L 92.505551 148.243312 
L 92.685964 136.408719 
L 92.866378 143.011116 
L 92.956585 145.25335 
L 93.136999 154.222759 
L 93.227206 147.869447 
L 93.317412 151.606663 
L 93.407619 160.949461 
L 93.497826 158.458143 
L 93.588033 149.11487 
L 93.768447 169.046839 
L 93.858654 166.056878 
L 94.039067 140.021155 
L 94.129274 140.893188 
L 94.309688 137.654616 
L 94.490102 157.710416 
L 94.670516 137.529837 
L 94.850929 160.824682 
L 95.031343 147.371279 
L 95.12155 150.609851 
L 95.211757 144.506096 
L 95.392171 154.970013 
L 95.572584 137.654616 
L 95.662791 155.842045 
L 95.752998 155.592961 
L 95.843205 150.111681 
L 95.933412 157.461331 
L 96.023619 156.09113 
L 96.113826 154.970013 
L 96.204032 160.575597 
L 96.384446 138.900038 
L 96.56486 160.202208 
L 96.745274 137.031668 
L 96.835481 143.011116 
L 97.015894 165.06054 
L 97.286515 149.737818 
L 97.376722 155.96635 
L 97.737549 143.260201 
L 97.827756 144.132233 
L 97.917963 150.609851 
L 98.00817 150.485545 
L 98.098377 148.616701 
L 98.188584 179.635534 
L 98.278791 176.894657 
L 98.549411 149.488733 
L 98.639618 152.976864 
L 98.729825 166.430741 
L 98.820032 161.074241 
L 98.910239 148.865785 
L 99.090652 167.302773 
L 99.271066 158.333364 
L 99.361273 160.326514 
L 99.45148 149.986902 
L 99.541687 153.475032 
L 99.631894 168.922059 
L 99.722101 166.305961 
L 99.812307 155.592961 
L 99.902514 157.087942 
L 99.992721 157.835195 
L 100.173135 147.371279 
L 100.263342 156.09113 
L 100.443756 150.609851 
L 100.533962 154.970013 
L 100.714376 142.637253 
L 100.89479 162.195358 
L 100.984997 159.330176 
L 101.075204 154.596149 
L 101.255617 166.804605 
L 101.436031 151.730967 
L 101.526238 159.205396 
L 101.616445 157.212247 
L 101.706652 163.44078 
L 101.796859 177.891469 
L 101.887066 174.029475 
L 102.247893 141.76522 
L 102.428307 165.433929 
L 102.518514 164.811455 
L 102.698927 152.852084 
L 102.789134 157.58611 
L 102.879341 156.838383 
L 103.059755 138.900038 
L 103.149962 140.270239 
L 103.240169 138.775733 
L 103.420582 162.319663 
L 103.600996 147.495584 
L 103.961824 172.784054 
L 104.322651 146.623552 
L 104.412858 143.883149 
L 104.593272 151.980052 
L 104.683479 154.471844 
L 104.773686 166.056878 
L 104.863892 164.437592 
L 104.954099 156.589298 
L 105.044306 160.824682 
L 105.134513 158.707228 
L 105.22472 147.869447 
L 105.314927 149.239649 
L 105.495341 163.191695 
L 105.675754 157.461331 
L 105.856168 161.696715 
L 105.946375 159.57926 
L 106.126789 161.198546 
L 106.216996 156.09113 
L 106.307203 172.41019 
L 106.397409 167.925722 
L 106.487616 179.75984 
L 106.577823 175.524456 
L 106.66803 157.835195 
L 106.758237 161.821494 
L 106.938651 180.133703 
L 107.028858 176.271709 
L 107.209271 181.752988 
L 107.389685 166.555046 
L 107.660306 168.797754 
L 107.750513 168.672975 
L 107.840719 161.198546 
L 107.930926 164.437592 
L 108.021133 175.026287 
L 108.201547 170.167956 
L 108.291754 171.413378 
L 108.381961 168.548196 
L 108.562374 188.355385 
L 108.742788 165.683013 
L 108.832995 175.026287 
L 108.923202 173.780391 
L 109.013409 165.683013 
L 109.103616 168.050027 
L 109.193823 173.531307 
L 109.374236 162.319663 
L 109.55465 179.38645 
L 109.644857 172.908358 
L 109.825271 148.74148 
L 110.005684 169.794092 
L 110.186098 158.209059 
L 110.366512 176.022624 
L 110.727339 142.886337 
L 110.817546 138.401869 
L 110.99796 154.596149 
L 111.178374 118.345595 
L 111.268581 120.961692 
L 111.448994 132.42242 
L 111.539201 133.543538 
L 111.629408 138.152784 
L 111.719615 136.906889 
L 111.809822 132.546726 
L 111.900029 132.671505 
L 111.990236 137.654616 
L 112.080443 137.405057 
L 112.260856 127.564089 
L 112.711891 158.209059 
L 112.802098 158.209059 
L 112.892304 166.679826 
L 112.982511 165.06054 
L 113.072718 154.222759 
L 113.162925 158.582448 
L 113.433546 186.736099 
L 113.613959 167.05369 
L 113.794373 193.961444 
L 113.88458 192.590769 
L 114.245408 167.177994 
L 114.335614 174.777203 
L 114.516028 141.142271 
L 114.696442 159.57926 
L 114.876856 140.270239 
L 115.057269 150.485545 
L 115.147476 152.976864 
L 115.237683 160.575597 
L 115.418097 144.256539 
L 115.598511 166.181657 
L 115.778924 139.149122 
L 115.959338 138.152784 
L 116.139752 151.730967 
L 116.229959 149.737818 
L 116.320166 137.654616 
L 116.410373 139.024817 
L 116.500579 150.73463 
L 116.590786 144.256539 
L 116.680993 127.315005 
L 116.7712 136.034856 
L 116.951614 168.922059 
L 117.041821 162.942611 
L 117.222234 139.77207 
L 117.312441 150.609851 
L 117.402648 148.990565 
L 117.492855 137.778921 
L 117.673269 142.512947 
L 117.763476 138.401869 
L 117.943889 160.949461 
L 118.124303 146.249687 
L 118.21451 149.737818 
L 118.304717 138.775733 
L 118.394924 141.017967 
L 118.485131 157.710416 
L 118.575338 152.727779 
L 118.755751 133.668317 
L 119.206786 102.774263 
L 119.296993 101.528366 
L 119.477406 67.520046 
L 119.567613 71.132481 
L 119.65782 85.209307 
L 119.838234 72.129293 
L 120.018648 86.330424 
L 120.379475 107.632594 
L 120.469682 120.463524 
L 120.650096 101.777451 
L 120.830509 126.567277 
L 120.920716 122.580978 
L 121.10113 137.529837 
L 121.281544 118.345595 
L 121.461958 144.381318 
L 121.642371 128.560427 
L 121.912992 145.004266 
L 122.003199 131.550388 
L 122.093406 133.418758 
L 122.183613 150.111681 
L 122.273819 148.74148 
L 122.454233 131.924252 
L 122.54444 161.323326 
L 122.634647 158.707228 
L 122.724854 160.700377 
L 122.815061 158.209059 
L 122.995475 148.865785 
L 123.085681 146.748331 
L 123.175888 139.89685 
L 123.356302 160.451293 
L 123.536716 147.495584 
L 123.626923 151.357578 
L 123.807336 142.886337 
L 123.897543 145.627214 
L 123.98775 140.644103 
L 124.168164 150.111681 
L 124.348578 139.149122 
L 124.438785 155.468182 
L 124.619198 134.041706 
L 124.799612 152.478695 
L 124.889819 138.152784 
L 125.250646 158.08428 
L 125.340853 155.343877 
L 125.43106 146.125382 
L 125.521267 148.74148 
L 125.701681 139.273902 
L 125.882095 165.184845 
L 126.062508 133.792622 
L 126.242922 162.195358 
L 126.423336 136.533024 
L 126.693956 152.22961 
L 126.784163 151.232798 
L 126.87437 148.243312 
L 127.054784 164.188507 
L 127.235198 141.391356 
L 127.325405 150.73463 
L 127.415611 149.737818 
L 127.505818 145.004266 
L 127.686232 167.05369 
L 127.956853 140.145934 
L 128.04706 140.395018 
L 128.137266 141.89 
L 128.31768 151.980052 
L 128.407887 147.12172 
L 128.588301 162.444442 
L 128.768715 150.73463 
L 128.858921 153.475032 
L 128.949128 152.852084 
L 129.039335 154.720929 
L 129.129542 161.323326 
L 129.219749 158.209059 
L 129.309956 148.616701 
L 129.400163 148.865785 
L 129.580576 162.070579 
L 129.670783 160.949461 
L 129.941404 138.900038 
L 130.031611 139.149122 
L 130.392438 164.312812 
L 130.482645 160.700377 
L 130.572852 162.693527 
L 130.753266 91.562619 
L 130.93368 96.171866 
L 131.023886 98.787964 
L 131.2043 108.878016 
L 131.474921 100.905418 
L 131.565128 100.033386 
L 131.655335 94.178717 
L 131.745541 94.92597 
L 131.925955 109.874828 
L 132.016162 107.133951 
L 132.196576 111.618893 
L 132.286783 110.746861 
L 132.467196 125.820024 
L 132.64761 106.137614 
L 132.737817 114.982244 
L 132.828024 113.362958 
L 132.918231 112.989094 
L 133.008438 122.456674 
L 133.098645 116.850614 
L 133.188851 103.89538 
L 133.369265 126.193888 
L 133.549679 115.231329 
L 133.639886 119.342407 
L 133.8203 116.60153 
L 134.000713 140.270239 
L 134.181127 136.034856 
L 134.361541 163.939422 
L 134.451748 161.074241 
L 134.632161 135.661466 
L 134.722368 136.408719 
L 134.812575 139.273902 
L 134.902782 136.657804 
L 135.083196 154.970013 
L 135.26361 135.038518 
L 135.353816 142.512947 
L 135.444023 154.970013 
L 135.624437 136.533024 
L 135.985265 153.973202 
L 136.165678 139.77207 
L 136.346092 154.222759 
L 136.436299 154.845233 
L 136.526506 160.700377 
L 136.616713 155.468182 
L 136.70692 158.956312 
L 136.797126 168.050027 
L 136.97754 142.263389 
L 137.157954 166.056878 
L 137.338368 143.758369 
L 137.428575 148.74148 
L 137.608988 171.912021 
L 137.699195 167.177994 
L 137.789402 154.720929 
L 137.879609 158.458143 
L 137.969816 172.41019 
L 138.060023 166.430741 
L 138.15023 147.993753 
L 138.240436 148.367617 
L 138.601264 167.551858 
L 138.691471 165.433929 
L 138.781678 127.564089 
L 138.871885 128.311342 
L 139.142505 107.881679 
L 139.232712 111.743199 
L 139.322919 125.321855 
L 139.413126 124.200739 
L 139.503333 113.1134 
L 139.683746 128.934291 
L 139.86416 118.22129 
L 139.954367 122.705757 
L 140.044574 116.22814 
L 140.134781 117.598342 
L 140.315195 137.031668 
L 140.495608 126.692056 
L 140.585815 125.197076 
L 140.766229 112.366146 
L 140.856436 122.830063 
L 141.03685 115.978581 
L 141.127057 127.439309 
L 141.217263 122.830063 
L 141.30747 109.500965 
L 141.487884 139.522986 
L 141.578091 134.913739 
L 141.668298 129.806323 
L 141.848712 139.149122 
L 142.029125 130.92744 
L 142.119332 135.536687 
L 142.209539 131.924252 
L 142.299746 138.028005 
L 142.389953 155.592961 
L 142.48016 150.609851 
L 142.75078 122.954842 
L 142.840987 113.362958 
L 143.021401 139.024817 
L 143.111608 138.775733 
L 143.292022 124.449823 
L 143.472435 140.395018 
L 143.652849 116.850614 
L 144.013677 138.152784 
L 144.103883 135.661466 
L 144.19409 129.806323 
L 144.554918 155.219097 
L 144.645125 149.239649 
L 144.825538 135.038518 
L 145.005952 122.207589 
L 145.186366 130.803135 
L 145.276573 129.806323 
L 145.456987 142.762032 
L 145.547193 138.27709 
L 145.6374 138.775733 
L 145.817814 130.553576 
L 145.908021 132.048557 
L 146.088435 150.609851 
L 146.268848 137.654616 
L 146.359055 141.142271 
L 146.449262 139.522986 
L 146.539469 135.411907 
L 146.719883 140.270239 
L 146.900297 133.418758 
L 146.990503 137.529837 
L 147.08071 158.831533 
L 147.261124 131.425608 
L 147.351331 139.398207 
L 147.531745 158.831533 
L 147.621952 156.09113 
L 147.712158 156.714078 
L 147.802365 158.458143 
L 148.163193 139.89685 
L 148.343607 152.852084 
L 148.433813 148.990565 
L 148.52402 151.606663 
L 148.704434 166.181657 
L 148.884848 151.730967 
L 148.975055 156.963163 
L 149.155468 169.669787 
L 149.335882 142.139083 
L 149.516296 152.976864 
L 149.606503 146.125382 
L 149.69671 149.613513 
L 149.786917 159.081091 
L 149.877123 156.963163 
L 149.96733 147.993753 
L 150.057537 150.236461 
L 150.147744 162.444442 
L 150.237951 157.337027 
L 150.418365 135.910551 
L 150.598778 154.347065 
L 150.779192 144.132233 
L 150.959606 154.720929 
L 151.049813 149.11487 
L 151.41064 106.261918 
L 151.591054 123.57779 
L 151.861675 71.506345 
L 152.042088 87.825404 
L 152.132295 80.60006 
L 152.312709 91.811703 
L 152.493123 82.09504 
L 152.673537 87.202456 
L 152.763743 85.458391 
L 153.034364 96.670035 
L 153.485398 142.762032 
L 153.575605 143.634065 
L 153.756019 128.934291 
L 154.02664 170.41704 
L 154.116847 158.333364 
L 154.207053 147.2465 
L 154.387467 172.659274 
L 154.477674 170.167956 
L 154.567881 170.41704 
L 154.658088 169.918871 
L 154.838502 158.209059 
L 154.928708 166.305961 
L 155.109122 155.094792 
L 155.289536 188.23108 
L 155.46995 147.2465 
L 155.650363 165.433929 
L 155.830777 174.029475 
L 156.011191 162.444442 
L 156.281812 180.008923 
L 156.372018 184.369086 
L 156.462225 182.749801 
L 156.552432 178.389638 
L 156.642639 180.507567 
L 156.823053 194.957782 
L 157.003467 169.420228 
L 157.093673 180.880956 
L 157.274087 154.970013 
L 157.544708 187.857217 
L 157.634915 189.103113 
L 157.815329 177.019436 
L 157.995742 190.348535 
L 158.085949 174.154255 
L 158.176156 176.770353 
L 158.266363 179.510755 
L 158.35657 174.403339 
L 158.536984 193.089411 
L 158.717397 178.389638 
L 158.807604 186.237931 
L 158.988018 178.514417 
L 159.168432 196.452762 
L 159.348845 183.621833 
L 159.439052 182.375937 
L 159.619466 172.161105 
L 159.709673 176.770353 
L 159.79988 176.645573 
L 159.980294 179.635534 
L 160.0705 168.797754 
L 160.160707 169.545007 
L 160.250914 182.749801 
L 160.431328 173.90517 
L 160.521535 178.264859 
L 160.701949 167.676638 
L 160.792155 170.167956 
L 160.882362 167.177994 
L 161.062776 186.61132 
L 161.24319 149.862597 
L 161.423604 169.545007 
L 161.51381 163.565559 
L 161.694224 169.046839 
L 161.874638 159.330176 
L 162.055052 181.503905 
L 162.235465 162.568747 
L 162.415879 175.524456 
L 162.506086 171.538157 
L 162.6865 154.970013 
L 162.776707 164.312812 
L 162.866914 156.215909 
L 162.95712 136.28394 
L 163.047327 136.657804 
L 163.227741 165.807793 
L 163.408155 178.389638 
L 163.588569 162.818306 
L 163.678775 162.070579 
L 163.768982 153.848896 
L 163.859189 158.707228 
L 163.949396 170.41704 
L 164.12981 151.232798 
L 164.310224 168.548196 
L 164.40043 158.08428 
L 164.580844 165.309624 
L 164.761258 160.700377 
L 164.851465 151.855746 
L 164.941672 154.097981 
L 165.031879 169.295923 
L 165.212292 154.970013 
L 165.302499 167.177994 
L 165.392706 162.319663 
L 165.482913 150.73463 
L 165.663327 171.413378 
L 165.84374 162.568747 
L 166.024154 169.420228 
L 166.204568 144.879486 
L 166.294775 145.627214 
L 166.475189 166.92891 
L 166.655602 139.149122 
L 166.836016 168.299111 
L 167.01643 144.132233 
L 167.106637 146.249687 
L 167.28705 163.44078 
L 167.467464 144.506096 
L 167.647878 160.700377 
L 167.828292 142.014304 
L 168.008705 164.561896 
L 168.098912 150.236461 
L 168.189119 155.842045 
L 168.279326 174.154255 
L 168.369533 170.043177 
L 168.640154 143.758369 
L 168.73036 144.132233 
L 168.910774 157.835195 
L 169.000981 149.364428 
L 169.181395 172.036325 
L 169.361809 165.309624 
L 169.452015 171.787242 
L 169.632429 168.548196 
L 169.722636 175.275371 
L 169.812843 170.666124 
L 169.90305 157.087942 
L 169.993257 158.582448 
L 170.17367 165.932572 
L 170.354084 161.696715 
L 170.534498 139.398207 
L 170.624705 140.644103 
L 170.805119 158.458143 
L 170.895325 158.956312 
L 170.985532 160.451293 
L 171.075739 158.707228 
L 171.165946 160.451293 
L 171.256153 171.662936 
L 171.436567 163.067391 
L 171.977808 177.891469 
L 172.068015 174.901508 
L 172.158222 177.393301 
L 172.338635 171.289072 
L 172.609256 188.60447 
L 172.699463 189.601282 
L 172.879877 179.635534 
L 173.06029 203.428786 
L 173.240704 177.268521 
L 173.330911 185.739287 
L 173.511325 178.264859 
L 173.691739 193.587581 
L 173.781945 182.625021 
L 173.872152 183.995222 
L 174.052566 192.341684 
L 174.23298 199.940656 
L 174.413394 186.237931 
L 174.593807 206.543053 
L 174.684014 199.193166 
L 174.774221 183.123191 
L 174.954635 213.394533 
L 175.044842 211.276842 
L 175.225256 174.901508 
L 175.586083 192.21738 
L 175.67629 202.432211 
L 175.856704 180.880956 
L 176.037117 211.650468 
L 176.307738 196.82639 
L 176.397945 194.583918 
L 176.578359 204.176276 
L 176.758772 186.860405 
L 176.939186 199.193166 
L 177.029393 199.068623 
L 177.1196 204.176276 
L 177.209807 197.57388 
L 177.300014 199.442487 
L 177.390221 207.539627 
L 177.570634 180.880956 
L 177.751048 209.283692 
L 177.931462 182.002073 
L 178.202082 211.650468 
L 178.382496 191.345347 
L 178.472703 192.0926 
L 178.56291 202.681296 
L 178.653117 201.684721 
L 178.923737 188.355385 
L 179.013944 188.60447 
L 179.104151 200.065198 
L 179.194358 198.944081 
L 179.464979 168.299111 
L 179.825806 137.405057 
L 180.00622 159.081091 
L 180.096427 144.506096 
L 180.186634 150.360766 
L 180.276841 164.561896 
L 180.457254 142.014304 
L 180.547461 148.990565 
L 180.727875 143.260201 
L 180.908289 164.437592 
L 181.088702 151.855746 
L 181.178909 148.74148 
L 181.359323 133.169674 
L 181.539737 147.993753 
L 181.629944 142.637253 
L 181.720151 147.2465 
L 181.810357 146.623552 
L 181.900564 139.149122 
L 181.990771 144.381318 
L 182.171185 162.070579 
L 182.261392 155.842045 
L 182.441806 166.181657 
L 182.622219 145.004266 
L 182.712426 158.956312 
L 182.89284 154.596149 
L 183.073254 175.150592 
L 183.434081 138.028005 
L 183.614495 166.92891 
L 183.704702 162.942611 
L 183.885116 147.993753 
L 183.975322 156.09113 
L 184.065529 151.730967 
L 184.245943 128.311342 
L 184.606771 169.171144 
L 184.787184 151.108019 
L 184.877391 155.094792 
L 185.057805 159.703565 
L 185.148012 166.92891 
L 185.328426 143.260201 
L 185.418632 145.627214 
L 185.508839 145.12857 
L 185.599046 140.768882 
L 185.869667 149.737818 
L 186.050081 163.067391 
L 186.410908 146.374467 
L 186.501115 145.25335 
L 186.681529 160.949461 
L 186.861942 156.464994 
L 186.952149 158.707228 
L 187.132563 151.481883 
L 187.22277 157.58611 
L 187.312977 154.471844 
L 187.403184 143.883149 
L 187.493391 171.164293 
L 187.583597 167.551858 
L 187.673804 182.126853 
L 187.764011 180.756652 
L 187.944425 157.710416 
L 188.124839 189.601282 
L 188.215046 189.850366 
L 188.305252 190.597619 
L 188.395459 194.210529 
L 188.485666 189.601282 
L 188.66608 174.901508 
L 188.756287 174.901508 
L 188.936701 182.126853 
L 189.117114 172.28541 
L 189.207321 183.123191 
L 189.297528 180.880956 
L 189.387735 172.659274 
L 189.477942 173.656085 
L 189.748562 196.701847 
L 189.928976 185.241119 
L 190.019183 196.82639 
L 190.10939 194.210529 
L 190.199597 182.251632 
L 190.289804 184.369086 
L 190.380011 194.833002 
L 190.560424 175.150592 
L 190.650631 181.752988 
L 190.740838 196.32822 
L 190.831045 190.348535 
L 191.011459 169.171144 
L 191.191872 185.116339 
L 191.282079 183.621833 
L 191.372286 184.493866 
L 191.5527 205.920104 
L 191.733114 175.275371 
L 191.823321 178.763502 
L 191.913527 179.635534 
L 192.003734 175.773541 
L 192.184148 204.92353 
L 192.364562 170.41704 
L 192.815596 201.435636 
L 192.99601 178.763502 
L 193.176424 192.715548 
L 193.447044 159.330176 
L 193.627458 169.545007 
L 193.717665 166.804605 
L 193.898079 178.638722 
L 193.988286 177.019436 
L 194.168699 187.608132 
L 194.349113 170.41704 
L 194.43932 174.652423 
L 194.619734 198.072048 
L 194.800148 171.662936 
L 194.980561 199.940656 
L 195.070768 199.193166 
L 195.251182 194.334834 
L 195.431596 174.278559 
L 195.521803 178.389638 
L 195.612009 166.305961 
L 195.702216 168.299111 
L 195.88263 170.790904 
L 196.063044 168.672975 
L 196.243458 173.282222 
L 196.333664 172.534969 
L 196.423871 172.659274 
L 196.514078 177.019436 
L 196.694492 171.662936 
L 196.874906 183.372748 
L 197.055319 174.901508 
L 197.235733 179.26167 
L 197.416147 169.794092 
L 197.596561 174.901508 
L 197.686768 171.413378 
L 197.867181 173.157443 
L 197.957388 170.541345 
L 198.228009 186.487016 
L 198.318216 182.251632 
L 198.498629 179.012586 
L 198.76925 181.877768 
L 198.859457 181.503905 
L 199.039871 174.278559 
L 199.220284 182.251632 
L 199.310491 183.123191 
L 199.400698 185.490204 
L 199.581112 177.143742 
L 199.761526 187.234269 
L 199.941939 173.531307 
L 200.032146 177.019436 
L 200.21256 166.804605 
L 200.302767 167.177994 
L 200.392974 169.545007 
L 200.573388 165.558708 
L 200.663594 166.555046 
L 200.753801 167.302773 
L 200.934215 160.077429 
L 201.114629 172.036325 
L 201.295043 167.800943 
L 201.385249 169.669787 
L 201.565663 167.800943 
L 201.65587 173.282222 
L 201.746077 170.167956 
L 201.836284 160.202208 
L 201.926491 160.949461 
L 202.016698 167.551858 
L 202.197111 165.683013 
L 202.287318 168.797754 
L 202.467732 165.309624 
L 202.738353 172.659274 
L 202.918766 166.679826 
L 203.008973 169.046839 
L 203.09918 168.797754 
L 203.189387 163.814644 
L 203.369801 170.915209 
L 203.550214 165.184845 
L 203.640421 164.686676 
L 203.820835 168.672975 
L 203.911042 165.932572 
L 204.001249 166.305961 
L 204.091456 167.800943 
L 204.362076 158.956312 
L 204.452283 158.458143 
L 204.54249 157.212247 
L 204.813111 164.312812 
L 205.354352 153.475032 
L 205.624973 157.461331 
L 205.805386 153.599812 
L 205.9858 157.58611 
L 206.076007 155.592961 
L 206.256421 156.589298 
L 206.346628 156.464994 
L 206.527041 160.949461 
L 206.707455 157.461331 
L 206.978076 160.824682 
L 207.068283 164.561896 
L 207.158489 164.312812 
L 207.338903 157.337027 
L 207.42911 159.828344 
L 207.609524 157.212247 
L 207.699731 155.717266 
L 207.789938 151.980052 
L 208.240972 163.067391 
L 208.511593 156.464994 
L 208.601799 154.097981 
L 208.87242 162.568747 
L 208.962627 160.700377 
L 209.143041 152.976864 
L 209.233248 152.603 
L 209.323454 153.724117 
L 209.503868 151.232798 
L 209.774489 161.198546 
L 210.04511 157.212247 
L 210.135316 157.710416 
L 210.225523 154.970013 
L 210.31573 155.468182 
L 210.405937 162.568747 
L 210.496144 162.319663 
L 210.586351 158.209059 
L 210.766765 162.195358 
L 211.217799 150.73463 
L 211.48842 160.949461 
L 211.668833 155.96635 
L 211.75904 157.835195 
L 211.939454 144.381318 
L 212.210075 137.280752 
L 212.570902 144.755181 
L 212.751316 138.775733 
L 212.93173 141.516135 
L 213.112143 138.900038 
L 213.20235 141.017967 
L 213.292557 140.768882 
L 213.382764 141.017967 
L 213.563178 147.371279 
L 213.743591 139.522986 
L 213.924005 143.011116 
L 214.104419 137.031668 
L 214.284833 139.77207 
L 214.37504 137.529837 
L 214.555453 142.886337 
L 214.64566 138.526649 
L 214.735867 141.640915 
L 214.826074 148.616701 
L 215.006488 141.017967 
L 215.096695 143.509285 
L 215.186901 148.118532 
L 215.277108 146.499246 
L 215.367315 146.748331 
L 215.547729 152.478695 
L 215.728143 148.492396 
L 215.81835 149.239649 
L 215.998763 137.280752 
L 216.08897 138.900038 
L 216.359591 147.12172 
L 216.449798 151.232798 
L 216.540005 150.609851 
L 216.720418 144.256539 
L 216.810625 144.132233 
L 216.991039 140.768882 
L 217.171453 148.118532 
L 217.26166 144.256539 
L 217.351866 144.630402 
L 217.622487 153.475032 
L 217.712694 154.970013 
L 217.893108 152.104831 
L 217.983315 155.592961 
L 218.163728 142.512947 
L 218.253935 143.634065 
L 218.434349 151.855746 
L 218.614763 141.516135 
L 218.795176 154.845233 
L 218.885383 153.973202 
L 218.97559 150.236461 
L 219.156004 154.222759 
L 219.336418 148.990565 
L 219.426625 149.862597 
L 219.607038 145.876298 
L 219.787452 150.858934 
L 219.877659 151.606663 
L 219.967866 162.693527 
L 220.14828 150.983714 
L 220.238486 152.353916 
L 220.328693 152.104831 
L 220.4189 149.986902 
L 220.599314 151.481883 
L 220.779728 144.755181 
L 221.050348 152.353916 
L 221.230762 143.260201 
L 221.411176 148.990565 
L 221.59159 145.004266 
L 221.681796 146.872635 
L 222.132831 134.41557 
L 222.313245 141.391356 
L 222.493658 132.42242 
L 222.583865 136.408719 
L 222.764279 145.876298 
L 222.854486 142.388168 
L 223.0349 148.74148 
L 223.395727 136.782583 
L 223.576141 153.350728 
L 223.666348 151.980052 
L 223.756555 150.983714 
L 223.846761 153.724117 
L 224.027175 139.273902 
L 224.207589 149.239649 
L 224.297796 148.492396 
L 224.47821 142.637253 
L 224.568416 145.378129 
L 224.658623 152.104831 
L 224.839037 142.388168 
L 224.929244 143.509285 
L 225.109658 140.768882 
L 225.470485 155.717266 
L 225.560692 155.592961 
L 225.741106 160.326514 
L 225.831313 158.956312 
L 226.19214 143.758369 
L 226.372554 156.340215 
L 226.462761 155.96635 
L 226.643175 153.599812 
L 226.823588 156.714078 
L 227.004002 153.848896 
L 227.184416 158.956312 
L 227.274623 159.330176 
L 227.36483 162.942611 
L 227.455037 161.946273 
L 227.63545 158.08428 
L 227.906071 159.205396 
L 227.996278 157.212247 
L 228.266898 168.922059 
L 228.357105 169.669787 
L 228.537519 165.807793 
L 228.717933 171.413378 
L 228.898347 164.561896 
L 228.988553 166.92891 
L 229.07876 172.534969 
L 229.168967 170.915209 
L 229.349381 165.06054 
L 229.439588 165.558708 
L 229.529795 162.818306 
L 229.710208 165.932572 
L 229.890622 169.295923 
L 229.980829 169.046839 
L 230.161243 167.925722 
L 230.341657 176.645573 
L 230.612277 166.92891 
L 230.702484 167.676638 
L 230.792691 166.804605 
L 230.973105 177.143742 
L 231.153518 168.672975 
L 231.333932 169.420228 
L 231.424139 167.676638 
L 231.604553 159.454481 
L 231.69476 159.703565 
L 231.784967 163.191695 
L 231.96538 157.58611 
L 232.055587 159.454481 
L 232.236001 165.932572 
L 232.596828 154.097981 
L 232.777242 155.468182 
L 232.957656 143.135421 
L 233.047863 144.879486 
L 233.40869 158.333364 
L 233.498897 156.340215 
L 233.589104 156.464994 
L 233.679311 156.464994 
L 234.040138 149.239649 
L 234.491173 160.575597 
L 234.58138 160.326514 
L 234.671587 162.693527 
L 234.852 159.330176 
L 235.122621 171.912021 
L 235.212828 172.784054 
L 235.393242 167.925722 
L 235.573655 174.777203 
L 235.754069 171.413378 
L 235.934483 175.026287 
L 236.114897 165.932572 
L 236.385517 210.653894 
L 236.475724 216.384258 
L 236.656138 174.777203 
L 236.926758 210.778435 
L 237.016965 215.761546 
L 237.197379 191.968295 
L 237.558207 237.935275 
L 237.648413 247.278311 
L 237.828827 231.333116 
L 237.919034 241.672489 
L 238.009241 241.049779 
L 238.189655 219.498524 
L 238.279862 237.063243 
L 238.370068 228.09407 
L 238.460275 204.300819 
L 238.550482 214.51565 
L 238.730896 246.655363 
L 239.001517 235.319414 
L 239.091723 243.914724 
L 239.272137 213.76816 
L 239.452551 232.952401 
L 239.542758 221.99008 
L 239.723172 253.25776 
L 239.903585 219.623066 
L 239.993792 242.544522 
L 240.174206 227.097495 
L 240.35462 262.226933 
L 240.535033 228.717018 
L 240.62524 230.336541 
L 240.715447 219.249439 
L 240.805654 222.613028 
L 240.895861 232.952401 
L 240.986068 227.969527 
L 241.076275 229.58905 
L 241.166482 228.467934 
L 241.256688 212.024332 
L 241.346895 214.391108 
L 241.437102 230.585625 
L 241.617516 219.249439 
L 241.707723 232.827859 
L 241.888137 221.118047 
L 241.978343 219.498524 
L 242.06855 199.567029 
L 242.158757 202.681296 
L 242.248964 221.740995 
L 242.429378 180.008923 
L 242.609792 202.307669 
L 242.699998 195.456188 
L 242.790205 198.196591 
L 242.880412 204.92353 
L 243.060826 184.74295 
L 243.24124 212.397959 
L 243.421653 175.773541 
L 243.602067 196.452762 
L 243.692274 192.715548 
L 243.782481 170.666124 
L 243.872688 171.787242 
L 243.962895 199.940656 
L 244.053102 193.711885 
L 244.233515 159.454481 
L 244.504136 177.642385 
L 244.594343 174.901508 
L 244.774757 156.464994 
L 244.864963 160.700377 
L 244.95517 152.727779 
L 245.045377 157.337027 
L 245.135584 173.406528 
L 245.315998 141.391356 
L 245.496412 159.454481 
L 245.586619 156.589298 
L 245.676825 160.700377 
L 245.767032 159.953124 
L 245.857239 161.572409 
L 245.947446 158.458143 
L 246.037653 141.017967 
L 246.218067 181.25482 
L 246.308274 167.05369 
L 246.39848 158.209059 
L 246.488687 175.649235 
L 246.669101 147.869447 
L 246.849515 167.800943 
L 246.939722 159.57926 
L 247.029929 168.672975 
L 247.120135 166.804605 
L 247.390756 145.12857 
L 247.480963 141.267051 
L 247.661377 177.891469 
L 247.84179 140.893188 
L 248.022204 185.614983 
L 248.202618 155.219097 
L 248.473239 175.773541 
L 248.653652 153.350728 
L 248.834066 182.002073 
L 249.01448 140.768882 
L 249.194894 181.752988 
L 249.2851 163.939422 
L 249.375307 166.92891 
L 249.465514 193.961444 
L 249.555721 184.992034 
L 249.645928 161.323326 
L 249.736135 163.067391 
L 249.916549 157.212247 
L 250.096962 177.642385 
L 250.187169 167.302773 
L 250.367583 186.362236 
L 250.547997 165.06054 
L 250.72841 180.756652 
L 250.818617 179.510755 
L 250.908824 185.490204 
L 251.089238 165.807793 
L 251.179445 168.548196 
L 251.359859 187.732437 
L 251.450065 184.74295 
L 251.810893 156.09113 
L 251.991307 192.21738 
L 252.261927 185.614983 
L 252.352134 193.711885 
L 252.622755 122.830063 
L 252.803169 140.893188 
L 252.893375 141.142271 
L 252.983582 139.273902 
L 253.163996 146.249687 
L 253.34441 141.391356 
L 253.524824 130.304492 
L 253.705237 156.714078 
L 253.975858 141.267051 
L 254.066065 144.132233 
L 254.246479 165.433929 
L 254.426892 131.301304 
L 254.517099 145.378129 
L 254.697513 134.539876 
L 254.78772 149.737818 
L 254.877927 147.620364 
L 254.968134 129.681544 
L 255.05834 136.159635 
L 255.148547 151.855746 
L 255.328961 140.644103 
L 255.419168 148.865785 
L 255.509375 146.125382 
L 255.599582 134.41557 
L 255.779995 165.558708 
L 255.870202 159.828344 
L 255.960409 137.405057 
L 256.050616 147.993753 
L 256.140823 177.517606 
L 256.23103 175.026287 
L 256.411444 135.287603 
L 256.591857 152.353916 
L 256.682064 146.249687 
L 256.862478 176.396489 
L 257.042892 133.668317 
L 257.223305 178.638722 
L 257.584133 138.650954 
L 257.764547 166.056878 
L 257.854754 145.12857 
L 257.94496 151.108019 
L 258.035167 180.008923 
L 258.215581 160.202208 
L 258.305788 170.790904 
L 258.486202 157.835195 
L 258.576409 179.38645 
L 258.756822 143.38498 
L 258.937236 184.867255 
L 259.11765 129.931102 
L 259.207857 136.657804 
L 259.38827 169.545007 
L 259.568684 141.516135 
L 259.658891 142.263389 
L 259.749098 158.956312 
L 259.839305 156.464994 
L 260.019719 136.159635 
L 260.109925 139.149122 
L 260.200132 138.152784 
L 260.470753 153.724117 
L 260.56096 293.743935 
L 260.651167 285.148389 
L 260.741374 265.465978 
L 260.83158 265.715063 
L 260.921787 263.098965 
L 261.011994 251.513695 
L 261.192408 280.539141 
L 261.282615 258.116091 
L 261.372822 265.964147 
L 261.463029 287.515165 
L 261.643442 252.884134 
L 261.733649 260.358325 
L 261.823856 258.116091 
L 261.914063 262.849881 
L 262.00427 280.913006 
L 262.094477 280.165515 
L 262.184684 267.832754 
L 262.365097 274.061524 
L 262.545511 254.129793 
L 262.635718 274.559693 
L 262.816132 252.261185 
L 262.996546 265.216657 
L 263.086752 260.732189 
L 263.267166 275.68081 
L 263.44758 267.459128 
L 263.627994 277.67396 
L 263.808407 256.994974 
L 263.898614 269.57682 
L 263.988821 267.832754 
L 264.079028 268.455702 
L 264.259442 295.488 
L 264.530062 237.68619 
L 264.620269 231.083794 
L 264.800683 283.279782 
L 264.89089 280.788226 
L 265.071304 260.483105 
L 265.251717 271.445427 
L 265.432131 234.32284 
L 265.612545 245.036077 
L 265.792959 277.67396 
L 265.973372 243.541097 
L 266.063579 248.523971 
L 266.3342 269.327735 
L 266.695027 219.249439 
L 266.785234 211.401384 
L 267.055855 225.727294 
L 267.146062 235.319414 
L 267.236269 235.070093 
L 267.416682 220.495098 
L 267.506889 216.384258 
L 267.687303 201.311094 
L 267.867717 225.35343 
L 267.957924 219.124897 
L 268.048131 220.868962 
L 268.138337 226.599326 
L 268.318751 206.169425 
L 268.499165 217.131748 
L 268.769786 168.299111 
L 268.859992 185.241119 
L 268.950199 184.120002 
L 269.040406 163.689865 
L 269.130613 171.164293 
L 269.22082 191.843516 
L 269.311027 187.981522 
L 269.401234 176.894657 
L 269.581647 193.338496 
L 269.852268 174.029475 
L 270.032682 180.258008 
L 270.213096 161.946273 
L 270.393509 193.089411 
L 270.573923 161.074241 
L 270.66413 162.195358 
L 270.754337 170.666124 
L 270.934751 210.903215 
L 271.115164 187.483353 
L 271.205371 194.085749 
L 271.295578 192.21738 
L 271.385785 179.884619 
L 271.475992 182.500717 
L 271.566199 193.213717 
L 271.746612 156.09113 
L 271.836819 163.689865 
L 271.927026 189.974671 
L 272.017233 187.359048 
L 272.197647 157.087942 
L 272.378061 176.396489 
L 272.468267 170.043177 
L 272.558474 174.652423 
L 272.738888 200.065198 
L 273.099716 157.337027 
L 273.189922 158.209059 
L 273.370336 194.833002 
L 273.55075 156.838383 
L 273.731164 178.015774 
L 273.821371 176.894657 
L 274.001784 187.981522 
L 274.182198 163.814644 
L 274.452819 175.773541 
L 274.633232 168.548196 
L 274.723439 177.76669 
L 274.903853 160.575597 
L 274.99406 171.662936 
L 275.084267 169.171144 
L 275.174474 161.074241 
L 275.354887 179.26167 
L 275.445094 160.077429 
L 275.535301 161.572409 
L 275.805922 189.601282 
L 275.986336 142.637253 
L 276.347163 188.978333 
L 276.707991 158.209059 
L 277.068818 200.563604 
L 277.249232 160.700377 
L 277.610059 190.473315 
L 277.790473 166.804605 
L 278.151301 200.937231 
L 278.241507 203.67787 
L 278.421921 191.096262 
L 278.602335 210.653894 
L 278.782749 186.61132 
L 278.872956 201.061772 
L 279.053369 167.800943 
L 279.143576 179.510755 
L 279.32399 206.667595 
L 279.414197 204.300819 
L 279.594611 188.729249 
L 279.684817 198.445912 
L 279.865231 176.770353 
L 280.045645 195.456188 
L 280.135852 183.372748 
L 280.316266 207.788711 
L 280.496679 187.857217 
L 280.586886 197.449337 
L 280.7673 187.359048 
L 280.857507 204.42536 
L 280.947714 204.176276 
L 281.037921 189.601282 
L 281.128128 189.974671 
L 281.218334 186.985184 
L 281.308541 173.282222 
L 281.488955 184.120002 
L 281.579162 179.136891 
L 281.669369 181.130041 
L 281.759576 178.015774 
L 281.849783 159.828344 
L 281.939989 162.319663 
L 282.030196 180.631872 
L 282.21061 172.161105 
L 282.300817 177.891469 
L 282.391024 169.046839 
L 282.481231 169.794092 
L 282.571438 171.912021 
L 282.661644 156.09113 
L 282.751851 160.326514 
L 282.842058 171.164293 
L 283.022472 135.411907 
L 283.202886 151.855746 
L 283.293093 148.492396 
L 283.473506 164.063728 
L 283.65392 143.509285 
L 283.834334 166.430741 
L 284.014748 142.886337 
L 284.195161 158.08428 
L 284.285368 154.222759 
L 284.465782 134.041706 
L 284.555989 150.236461 
L 284.646196 146.748331 
L 284.826609 119.342407 
L 285.007023 146.748331 
L 285.09723 153.848896 
L 285.187437 150.236461 
L 285.367851 137.031668 
L 285.458058 138.650954 
L 285.548264 129.308154 
L 285.638471 133.543538 
L 285.728678 147.993753 
L 285.909092 124.200739 
L 286.089506 139.522986 
L 286.179713 126.069108 
L 286.360126 136.159635 
L 286.450333 135.536687 
L 286.54054 133.294453 
L 286.630747 124.075959 
L 286.720954 129.432459 
L 286.811161 152.603 
L 286.901368 147.869447 
L 286.991574 134.789433 
L 287.081781 144.755181 
L 287.171988 138.028005 
L 287.262195 122.331894 
L 287.442609 142.139083 
L 287.532816 131.176525 
L 287.623023 131.301304 
L 287.713229 135.661466 
L 287.803436 135.038518 
L 287.893643 130.180187 
L 288.074057 112.864315 
L 288.254471 145.378129 
L 288.434884 113.736348 
L 288.615298 147.744668 
L 288.795712 129.432459 
L 288.885919 130.180187 
L 289.066333 137.778921 
L 289.246746 119.715796 
L 289.42716 142.637253 
L 289.607574 110.497776 
L 289.787988 147.744668 
L 289.878194 125.57094 
L 289.968401 125.944803 
L 290.058608 151.855746 
L 290.148815 148.367617 
L 290.329229 129.557239 
L 290.509643 120.712608 
L 290.690056 139.273902 
L 290.780263 129.681544 
L 290.960677 145.25335 
L 291.141091 129.05907 
L 291.321504 143.634065 
L 291.411711 140.270239 
L 291.501918 146.000603 
L 291.592125 143.758369 
L 291.682332 131.301304 
L 291.772539 131.924252 
L 291.952953 146.125382 
L 292.223573 126.069108 
L 292.31378 113.238179 
L 292.403987 113.736348 
L 292.584401 135.411907 
L 292.674608 137.529837 
L 292.764814 144.007454 
L 292.855021 142.762032 
L 292.945228 142.512947 
L 293.125642 126.567277 
L 293.306056 113.612043 
L 293.486469 120.463524 
L 293.576676 118.594679 
L 293.75709 125.944803 
L 293.847297 124.200739 
L 293.937504 127.315005 
L 294.117918 112.241367 
L 294.298331 134.913739 
L 294.388538 127.688394 
L 294.478745 128.809986 
L 294.568952 129.308154 
L 294.659159 126.442972 
L 294.839573 143.883149 
L 295.019986 111.245029 
L 295.110193 120.214439 
L 295.290607 112.989094 
L 295.380814 122.082809 
L 295.471021 120.836913 
L 295.561228 110.871166 
L 295.651434 113.736348 
L 295.741641 121.708945 
L 295.831848 121.335556 
L 295.922055 118.594679 
L 296.012262 121.95803 
L 296.192676 104.019685 
L 296.282883 110.123913 
L 296.373089 128.436121 
L 296.463296 121.95803 
L 296.553503 100.781113 
L 296.64371 110.995945 
L 296.733917 134.913739 
L 296.824124 132.671505 
L 297.004538 91.06445 
L 297.184951 99.410438 
L 297.275158 94.427801 
L 297.455572 116.726309 
L 297.635986 84.960223 
L 297.8164 117.473563 
L 298.177227 91.686924 
L 298.357641 105.265581 
L 298.447848 88.697437 
L 298.538055 89.44469 
L 298.628261 109.750049 
L 298.718468 105.888529 
L 298.808675 97.417288 
L 298.898882 101.777451 
L 299.079296 93.555768 
L 299.169503 100.905418 
L 299.349916 74.994475 
L 299.53033 102.898568 
L 299.710744 68.392078 
L 299.800951 76.73854 
L 299.981365 97.791152 
L 300.251985 75.492644 
L 300.432399 84.711138 
L 300.70302 67.021877 
L 300.793226 71.880209 
L 300.883433 83.340937 
L 301.063847 80.350976 
L 301.154054 221.865537 
L 301.244261 213.643618 
L 301.424675 192.466464 
L 301.514881 192.341684 
L 301.605088 181.877768 
L 301.785502 206.293968 
L 301.965916 187.608132 
L 302.056123 204.42536 
L 302.236536 185.739287 
L 302.326743 189.103113 
L 302.41695 180.507567 
L 302.507157 182.749801 
L 302.687571 201.809263 
L 302.777778 193.213717 
L 302.867985 195.829815 
L 302.958191 192.715548 
L 303.048398 176.645573 
L 303.138605 178.264859 
L 303.228812 195.206867 
L 303.409226 179.38645 
L 303.58964 192.590769 
L 303.679846 180.756652 
L 303.86026 205.048072 
L 303.950467 203.428786 
L 304.040674 195.206867 
L 304.221088 204.176276 
L 304.401501 185.739287 
L 304.491708 195.705272 
L 304.581915 195.58073 
L 304.672122 196.452762 
L 304.852536 214.51565 
L 305.213363 164.811455 
L 305.393777 197.449337 
L 305.664398 179.884619 
L 305.844811 189.725586 
L 306.025225 154.596149 
L 306.205639 160.077429 
L 306.386053 199.567029 
L 306.47626 191.594431 
L 306.566466 174.403339 
L 306.74688 186.736099 
L 306.927294 202.681296 
L 307.107708 172.41019 
L 307.197915 175.026287 
L 307.378328 160.202208 
L 307.558742 168.050027 
L 307.648949 170.790904 
L 307.829363 184.244781 
L 307.91957 175.524456 
L 308.009776 178.638722 
L 308.099983 172.659274 
L 308.19019 158.831533 
L 308.280397 162.070579 
L 308.460811 179.635534 
L 308.551018 170.790904 
L 308.731431 180.880956 
L 308.911845 167.925722 
L 309.002052 172.659274 
L 309.092259 168.797754 
L 309.182466 154.596149 
L 309.272673 181.130041 
L 309.36288 166.92891 
L 309.543293 187.109964 
L 309.723707 157.212247 
L 309.904121 191.843516 
L 309.994328 182.625021 
L 310.174741 194.833002 
L 310.535569 170.915209 
L 310.625776 173.157443 
L 310.715983 171.787242 
L 310.80619 166.92891 
L 310.986603 184.369086 
L 311.167017 163.191695 
L 311.257224 164.686676 
L 311.347431 171.538157 
L 311.527845 203.802412 
L 311.708258 179.635534 
L 311.798465 194.459613 
L 311.888672 193.089411 
L 312.069086 173.531307 
L 312.159293 184.992034 
L 312.339706 154.347065 
L 312.429913 161.946273 
L 312.52012 181.130041 
L 312.610327 173.282222 
L 312.790741 142.762032 
L 312.971155 159.703565 
L 313.151568 158.209059 
L 313.331982 177.268521 
L 313.69281 142.139083 
L 313.783016 140.644103 
L 313.96343 171.413378 
L 314.143844 134.041706 
L 314.234051 137.903701 
L 314.414465 151.108019 
L 314.594878 160.077429 
L 314.775292 136.657804 
L 314.955706 150.609851 
L 315.226327 132.546726 
L 315.316533 138.27709 
L 315.496947 128.934291 
L 315.677361 139.522986 
L 315.767568 133.543538 
L 315.947982 146.872635 
L 316.128395 124.698907 
L 316.399016 157.337027 
L 316.57943 118.594679 
L 316.759843 155.717266 
L 316.85005 155.219097 
L 317.120671 134.41557 
L 317.210878 126.941141 
L 317.301085 128.436121 
L 317.571705 170.541345 
L 317.661912 182.749801 
L 317.842326 144.755181 
L 318.02274 169.420228 
L 318.112947 173.157443 
L 318.203153 186.362236 
L 318.383567 168.174806 
L 318.654188 202.805837 
L 318.834602 220.993505 
L 319.015015 212.397959 
L 319.195429 223.858686 
L 319.285636 207.664169 
L 319.375843 208.411659 
L 319.46605 226.350005 
L 319.556257 220.370557 
L 319.646463 199.068623 
L 319.917084 240.302288 
L 320.007291 235.070093 
L 320.187705 214.51565 
L 320.277912 231.333116 
L 320.368118 226.350005 
L 320.458325 207.290543 
L 320.638739 227.222037 
L 320.728946 218.252864 
L 320.90936 248.399428 
L 321.089773 214.391108 
L 321.270187 230.585625 
L 321.360394 228.84156 
L 321.540808 253.506845 
L 321.721222 226.350005 
L 321.811428 221.740995 
L 321.901635 208.660744 
L 322.082049 231.706743 
L 322.442877 191.843516 
L 322.62329 219.99693 
L 322.803704 198.944081 
L 322.893911 222.363706 
L 322.984118 220.370557 
L 323.074325 216.259716 
L 323.164532 222.862112 
L 323.344945 206.293968 
L 323.435152 228.84156 
L 323.525359 220.868962 
L 323.615566 200.688146 
L 323.79598 225.478209 
L 323.886187 222.488248 
L 324.0666 243.416555 
L 324.247014 232.454233 
L 324.427428 247.278311 
L 324.607842 220.619878 
L 324.698048 225.976379 
L 324.788255 240.053204 
L 324.878462 238.433681 
L 324.968669 212.647043 
L 325.058876 216.882663 
L 325.149083 249.022376 
L 325.23929 247.776481 
L 325.50991 171.538157 
L 325.600117 173.282222 
L 325.690324 186.487016 
L 325.780531 180.382787 
L 325.870738 164.93576 
L 326.051152 174.278559 
L 326.141358 161.198546 
L 326.231565 163.689865 
L 326.321772 183.497054 
L 326.502186 160.575597 
L 326.6826 172.036325 
L 326.772807 166.430741 
L 326.95322 180.008923 
L 327.223841 168.174806 
L 327.404255 198.32137 
L 327.584668 165.932572 
L 327.674875 188.60447 
L 327.765082 182.375937 
L 327.855289 163.939422 
L 328.035703 185.988372 
L 328.12591 179.75984 
L 328.216117 182.126853 
L 328.576944 157.959975 
L 328.667151 158.956312 
L 328.847565 181.379599 
L 329.027978 154.970013 
L 329.208392 194.210529 
L 329.388806 164.686676 
L 329.479013 168.922059 
L 329.659427 188.729249 
L 329.83984 166.555046 
L 330.020254 197.947506 
L 330.200668 159.454481 
L 330.381082 188.480165 
L 330.471288 174.528118 
L 330.561495 178.638722 
L 330.651702 201.560179 
L 330.741909 197.822964 
L 330.922323 167.925722 
L 331.01253 168.050027 
L 331.192943 187.234269 
L 331.28315 183.870918 
L 331.373357 171.662936 
L 331.553771 185.864067 
L 331.643978 171.662936 
L 331.734185 173.531307 
L 331.824392 183.621833 
L 331.914598 180.008923 
L 332.004805 182.998885 
L 332.095012 191.469651 
L 332.275426 164.93576 
L 332.365633 171.164293 
L 332.546047 188.355385 
L 332.816667 178.015774 
L 332.906874 155.219097 
L 332.997081 156.09113 
L 333.177495 181.130041 
L 333.267702 184.120002 
L 333.357909 192.839854 
L 333.448115 190.473315 
L 333.538322 193.836665 
L 333.808943 148.616701 
L 333.989357 166.555046 
L 334.440391 177.268521 
L 334.530598 179.012586 
L 334.711012 167.05369 
L 334.891425 198.944081 
L 335.071839 192.466464 
L 335.162046 196.82639 
L 335.252253 194.459613 
L 335.432667 217.131748 
L 335.61308 183.372748 
L 335.793494 206.543053 
L 335.883701 199.816113 
L 336.064115 211.77501 
L 336.154322 200.563604 
L 336.334735 217.25629 
L 336.424942 216.135173 
L 336.515149 212.148874 
L 336.605356 215.512225 
L 336.78577 202.307669 
L 336.966184 239.430256 
L 337.146597 209.034608 
L 337.417218 250.268036 
L 337.597632 220.370557 
L 337.778045 236.689616 
L 337.868252 224.855261 
L 338.048666 259.735614 
L 338.22908 224.232313 
L 338.409494 263.223508 
L 338.680114 237.437107 
L 338.770321 229.215187 
L 338.950735 255.499994 
L 339.040942 242.669064 
L 339.221355 279.791651 
L 339.311562 268.704787 
L 339.401769 261.3549 
L 339.491976 272.815628 
L 339.582183 262.351475 
L 339.67239 265.839605 
L 339.762597 286.643133 
L 339.94301 251.513695 
L 340.123424 292.622818 
L 340.303838 249.645087 
L 340.394045 257.244059 
L 340.574459 282.906155 
L 340.754872 258.739039 
L 340.845079 262.725338 
L 341.025493 284.276356 
L 341.205907 266.711637 
L 341.38632 267.832754 
L 341.656941 288.636519 
L 341.837355 207.788711 
L 341.927562 189.601282 
L 342.107975 197.075473 
L 342.198182 184.867255 
L 342.378596 209.408234 
L 342.55901 186.736099 
L 342.649217 204.549903 
L 342.82963 180.507567 
L 342.919837 183.24797 
L 343.010044 175.399676 
L 343.100251 178.887807 
L 343.280665 198.196591 
L 343.370872 186.61132 
L 343.551285 192.21738 
L 343.731699 178.514417 
L 343.821906 188.60447 
L 344.00232 180.880956 
L 344.092527 191.718736 
L 344.182734 190.22423 
L 344.27294 179.884619 
L 344.453354 202.058347 
L 344.543561 197.075473 
L 344.633768 193.089411 
L 344.814182 206.293968 
L 344.994595 185.739287 
L 345.084802 200.439061 
L 345.265216 194.833002 
L 345.44563 222.73757 
L 345.71625 168.423891 
L 345.806457 158.333364 
L 346.077078 213.020907 
L 346.257492 191.718736 
L 346.437905 212.647043 
L 346.618319 176.645573 
L 346.798733 182.874106 
L 346.979147 216.508799 
L 347.15956 187.608132 
L 347.520388 215.263141 
L 347.881215 185.241119 
L 347.971422 182.126853 
L 348.242043 202.307669 
L 348.422457 220.370557 
L 348.60287 201.061772 
L 348.693077 197.822964 
L 348.873491 183.497054 
L 349.053905 209.532776 
L 349.144112 202.681296 
L 349.234319 207.539627 
L 349.324525 219.124897 
L 349.504939 205.048072 
L 349.685353 225.104346 
L 349.77556 207.290543 
L 349.955974 147.620364 
L 350.046181 168.922059 
L 350.136387 163.814644 
L 350.226594 137.031668 
L 350.316801 143.011116 
L 350.407008 164.686676 
L 350.497215 161.323326 
L 350.587422 158.458143 
L 350.767836 178.389638 
L 350.948249 153.225948 
L 351.038456 159.57926 
L 351.128663 158.707228 
L 351.399284 147.2465 
L 351.489491 151.357578 
L 351.579697 167.427079 
L 351.760111 143.883149 
L 352.120939 195.456188 
L 352.211146 188.480165 
L 352.301352 170.666124 
L 352.391559 171.662936 
L 352.481766 173.033138 
L 352.571973 163.565559 
L 352.66218 167.925722 
L 352.752387 184.244781 
L 352.842594 174.154255 
L 352.932801 145.378129 
L 353.023007 153.225948 
L 353.113214 182.998885 
L 353.203421 177.019436 
L 353.383835 151.108019 
L 353.564249 171.662936 
L 353.744662 164.561896 
L 353.925076 203.304244 
L 354.015283 194.957782 
L 354.195697 146.623552 
L 354.285904 142.512947 
L 354.376111 145.12857 
L 354.556524 176.770353 
L 354.736938 136.533024 
L 354.917352 158.956312 
L 355.007559 146.000603 
L 355.097766 149.239649 
L 355.187972 171.538157 
L 355.278179 164.93576 
L 355.458593 137.529837 
L 355.639007 171.662936 
L 355.819421 154.471844 
L 355.999834 167.676638 
L 356.090041 166.804605 
L 356.180248 181.379599 
L 356.270455 178.514417 
L 356.360662 168.299111 
L 356.541076 191.469651 
L 356.631282 168.299111 
L 356.721489 171.289072 
L 356.99211 207.664169 
L 357.172524 168.922059 
L 357.533351 202.93038 
L 357.623558 202.556754 
L 357.803972 183.995222 
L 357.894179 190.348535 
L 357.984386 123.826875 
L 358.074592 124.947992 
L 358.255006 163.067391 
L 358.43542 123.826875 
L 358.615834 139.89685 
L 358.706041 142.886337 
L 358.796247 153.101643 
L 358.976661 138.526649 
L 359.157075 165.932572 
L 359.337489 157.835195 
L 359.788523 185.614983 
L 359.968937 164.312812 
L 360.059144 185.864067 
L 360.149351 178.514417 
L 360.239557 156.340215 
L 360.510178 193.711885 
L 360.690592 181.503905 
L 360.780799 176.271709 
L 360.871006 189.601282 
L 360.961212 189.103113 
L 361.051419 172.036325 
L 361.412247 197.200016 
L 361.502454 210.404809 
L 361.682867 184.992034 
L 361.773074 191.968295 
L 361.863281 188.978333 
L 361.953488 195.082324 
L 362.043695 219.000355 
L 362.133902 218.377407 
L 362.314316 197.449337 
L 362.404522 195.331409 
L 362.584936 175.524456 
L 362.675143 176.770353 
L 363.126177 108.255068 
L 363.216384 127.190226 
L 363.306591 119.840576 
L 363.396798 121.086472 
L 363.487005 136.657804 
L 363.577212 134.913739 
L 363.667419 139.77207 
L 364.028246 186.487016 
L 364.20866 156.589298 
L 364.389074 180.133703 
L 364.479281 182.625021 
L 364.659694 196.452762 
L 364.749901 188.480165 
L 364.840108 191.968295 
L 364.930315 205.795562 
L 365.020522 205.048072 
L 365.110729 195.456188 
L 365.200936 195.705272 
L 365.471556 208.536201 
L 365.65197 183.870918 
L 365.832384 206.916679 
L 365.922591 180.258008 
L 366.012797 180.880956 
L 366.193211 180.631872 
L 366.283418 191.843516 
L 366.373625 189.601282 
L 366.463832 178.140554 
L 366.554039 178.389638 
L 366.644246 177.268521 
L 366.734452 168.174806 
L 366.914866 190.473315 
L 367.09528 162.444442 
L 367.275694 177.393301 
L 367.365901 164.93576 
L 367.546314 186.362236 
L 367.636521 183.372748 
L 367.816935 163.939422 
L 367.997349 187.483353 
L 368.177763 160.326514 
L 368.267969 182.002073 
L 368.358176 179.635534 
L 368.448383 171.289072 
L 368.53859 183.497054 
L 368.628797 183.372748 
L 368.719004 178.887807 
L 368.809211 187.857217 
L 369.170038 152.22961 
L 369.260245 155.468182 
L 369.440659 184.120002 
L 369.621073 156.215909 
L 369.801486 195.206867 
L 370.072107 164.063728 
L 370.252521 187.608132 
L 370.432934 157.461331 
L 370.613348 181.628684 
L 370.793762 149.613513 
L 370.974176 176.271709 
L 371.064383 164.312812 
L 371.154589 169.545007 
L 371.244796 190.348535 
L 371.335003 185.116339 
L 371.515417 164.437592 
L 371.695831 156.714078 
L 371.786038 170.043177 
L 371.876244 169.295923 
L 371.966451 154.845233 
L 372.146865 181.005735 
L 372.237072 169.545007 
L 372.327279 171.413378 
L 372.417486 183.746138 
L 372.597899 178.015774 
L 372.688106 186.487016 
L 372.86852 166.804605 
L 372.958727 173.90517 
L 373.139141 185.614983 
L 373.319554 177.268521 
L 373.499968 151.606663 
L 373.590175 156.838383 
L 373.770589 177.517606 
L 373.860796 179.136891 
L 374.041209 187.109964 
L 374.131416 191.096262 
L 374.31183 83.963411 
L 374.402037 81.098229 
L 374.582451 95.05075 
L 374.672658 95.673224 
L 374.853071 99.659997 
L 375.033485 96.670035 
L 375.123692 100.531555 
L 375.304106 82.967073 
L 375.484519 99.286132 
L 375.664933 90.690587 
L 375.75514 90.192418 
L 375.845347 84.462054 
L 376.025761 109.625744 
L 376.206174 80.350976 
L 376.386588 93.306685 
L 376.476795 88.323574 
L 376.567002 92.060788 
L 376.747416 72.129293 
L 376.837623 76.987625 
L 376.927829 83.963411 
L 377.108243 76.987625 
L 377.19845 79.229859 
L 377.378864 60.543786 
L 377.559278 86.08134 
L 377.649484 80.101891 
L 377.739691 66.523235 
L 378.010312 97.542067 
L 378.190726 53.568 
L 378.280933 55.685454 
L 378.371139 60.41948 
L 378.461346 56.059318 
L 378.64176 87.57632 
L 378.822174 56.682266 
L 379.002588 93.430989 
L 379.183001 76.73854 
L 379.273208 75.741728 
L 379.363415 67.395266 
L 379.543829 90.441502 
L 379.724243 76.115592 
L 379.814449 98.28932 
L 379.904656 97.666373 
L 379.994863 89.195606 
L 380.265484 103.89538 
L 380.355691 113.861127 
L 380.536104 85.583171 
L 380.716518 123.951654 
L 380.896932 93.680074 
L 381.077346 125.695244 
L 381.167553 123.453011 
L 381.438173 110.871166 
L 381.618587 125.695244 
L 381.708794 119.217628 
L 381.889208 129.681544 
L 381.979414 130.055407 
L 382.250035 139.024817 
L 382.340242 208.162575 
L 382.430449 203.553328 
L 382.610863 175.150592 
L 382.701069 180.507567 
L 382.791276 172.659274 
L 382.97169 183.372748 
L 383.061897 173.656085 
L 383.152104 176.521268 
L 383.242311 192.466464 
L 383.603138 166.804605 
L 383.693345 168.174806 
L 383.873759 186.860405 
L 384.054173 172.28541 
L 384.144379 174.901508 
L 384.324793 158.333364 
L 384.505207 174.403339 
L 384.595414 168.797754 
L 384.685621 176.271709 
L 384.775828 175.773541 
L 384.866035 167.302773 
L 385.046448 196.203441 
L 385.136655 190.473315 
L 385.226862 182.251632 
L 385.407276 201.560179 
L 385.58769 177.517606 
L 385.677896 190.22423 
L 385.768103 188.355385 
L 385.85831 192.839854 
L 386.038724 219.747846 
L 386.309345 173.282222 
L 386.399551 164.561896 
L 386.579965 203.802412 
L 386.670172 199.068623 
L 386.760379 182.375937 
L 386.850586 187.359048 
L 386.940793 204.92353 
L 387.031 201.311094 
L 387.211413 166.430741 
L 387.391827 175.275371 
L 387.572241 216.259716 
L 387.752655 191.220568 
L 387.842861 197.449337 
L 388.113482 222.239163 
L 388.47431 194.459613 
L 388.564516 190.473315 
L 388.74493 197.449337 
L 388.835137 200.688146 
L 389.015551 219.747846 
L 389.195965 209.657319 
L 389.376378 200.563604 
L 389.466585 196.82639 
L 389.646999 214.266566 
L 389.737206 209.657319 
L 389.827413 211.525926 
L 389.91762 219.124897 
L 390.098033 211.650468 
L 390.18824 216.135173 
L 390.368654 205.048072 
L 390.549068 164.93576 
L 390.639275 183.24797 
L 390.729481 179.38645 
L 390.819688 153.599812 
L 390.909895 154.845233 
L 391.000102 174.777203 
L 391.090309 174.528118 
L 391.180516 172.161105 
L 391.36093 180.008923 
L 391.721757 159.828344 
L 391.902171 175.773541 
L 391.992378 169.171144 
L 392.172791 193.338496 
L 392.353205 173.531307 
L 392.714033 215.636767 
L 392.894446 178.015774 
L 392.984653 184.120002 
L 393.07486 186.487016 
L 393.165067 174.652423 
L 393.255274 178.638722 
L 393.345481 191.594431 
L 393.525895 165.433929 
L 393.706308 199.193166 
L 393.796515 192.839854 
L 393.976929 165.433929 
L 394.157343 184.74295 
L 394.24755 184.992034 
L 394.337756 182.002073 
L 394.51817 208.162575 
L 394.608377 199.317945 
L 394.788791 152.852084 
L 394.969205 143.758369 
L 395.059411 146.249687 
L 395.149618 145.25335 
L 395.420239 90.316723 
L 395.510446 95.05075 
L 395.69086 90.939671 
L 395.781066 102.774263 
L 395.871273 99.659997 
L 396.051687 82.842293 
L 396.232101 110.995945 
L 396.412515 103.521516 
L 396.863549 171.662936 
L 396.953756 158.582448 
L 397.13417 182.998885 
L 397.314583 162.568747 
L 397.585204 214.017482 
L 397.765618 185.241119 
L 398.036238 226.350005 
L 398.397066 201.933805 
L 398.487273 217.131748 
L 398.487273 217.131748 
" clip-path="url(#p64bc1af9da)" style="fill: none; stroke: #1f77b4; stroke-width: 1.5; stroke-linecap: square"/>
   </g>
   <g id="patch_3">
    <path d="M 57.6 307.584 
L 57.6 41.472 
" style="fill: none; stroke: #000000; stroke-width: 0.8; stroke-linejoin: miter; stroke-linecap: square"/>
   </g>
   <g id="patch_4">
    <path d="M 414.72 307.584 
L 414.72 41.472 
" style="fill: none; stroke: #000000; stroke-width: 0.8; stroke-linejoin: miter; stroke-linecap: square"/>
   </g>
   <g id="patch_5">
    <path d="M 57.6 307.584 
L 414.72 307.584 
" style="fill: none; stroke: #000000; stroke-width: 0.8; stroke-linejoin: miter; stroke-linecap: square"/>
   </g>
   <g id="patch_6">
    <path d="M 57.6 41.472 
L 414.72 41.472 
" style="fill: none; stroke: #000000; stroke-width: 0.8; stroke-linejoin: miter; stroke-linecap: square"/>
   </g>
   <g id="legend_1">
    <g id="patch_7">
     <path d="M 64.6 64.150125 
L 118.245312 64.150125 
Q 120.245312 64.150125 120.245312 62.150125 
L 120.245312 48.472 
Q 120.245312 46.472 118.245312 46.472 
L 64.6 46.472 
Q 62.6 46.472 62.6 48.472 
L 62.6 62.150125 
Q 62.6 64.150125 64.6 64.150125 
z
" style="fill: #ffffff; opacity: 0.8; stroke: #cccccc; stroke-linejoin: miter"/>
    </g>
    <g id="line2d_16">
     <path d="M 66.6 54.570438 
L 76.6 54.570438 
L 86.6 54.570438 
" style="fill: none; stroke: #1f77b4; stroke-width: 1.5; stroke-linecap: square"/>
    </g>
    <g id="text_15">
     <!-- set1 -->
     <g transform="translate(94.6 58.070438)scale(0.1 -0.1)">
      <defs>
       <path id="DejaVuSans-73" d="M 2834 3397 
L 2834 2853 
Q 2591 2978 2328 3040 
Q 2066 3103 1784 3103 
Q 1356 3103 1142 2972 
Q 928 2841 928 2578 
Q 928 2378 1081 2264 
Q 1234 2150 1697 2047 
L 1894 2003 
Q 2506 1872 2764 1633 
Q 3022 1394 3022 966 
Q 3022 478 2636 193 
Q 2250 -91 1575 -91 
Q 1294 -91 989 -36 
Q 684 19 347 128 
L 347 722 
Q 666 556 975 473 
Q 1284 391 1588 391 
Q 1994 391 2212 530 
Q 2431 669 2431 922 
Q 2431 1156 2273 1281 
Q 2116 1406 1581 1522 
L 1381 1569 
Q 847 1681 609 1914 
Q 372 2147 372 2553 
Q 372 3047 722 3315 
Q 1072 3584 1716 3584 
Q 2034 3584 2315 3537 
Q 2597 3491 2834 3397 
z
" transform="scale(0.015625)"/>
       <path id="DejaVuSans-65" d="M 3597 1894 
L 3597 1613 
L 953 1613 
Q 991 1019 1311 708 
Q 1631 397 2203 397 
Q 2534 397 2845 478 
Q 3156 559 3463 722 
L 3463 178 
Q 3153 47 2828 -22 
Q 2503 -91 2169 -91 
Q 1331 -91 842 396 
Q 353 884 353 1716 
Q 353 2575 817 3079 
Q 1281 3584 2069 3584 
Q 2775 3584 3186 3129 
Q 3597 2675 3597 1894 
z
M 3022 2063 
Q 3016 2534 2758 2815 
Q 2500 3097 2075 3097 
Q 1594 3097 1305 2825 
Q 1016 2553 972 2059 
L 3022 2063 
z
" transform="scale(0.015625)"/>
       <path id="DejaVuSans-74" d="M 1172 4494 
L 1172 3500 
L 2356 3500 
L 2356 3053 
L 1172 3053 
L 1172 1153 
Q 1172 725 1289 603 
Q 1406 481 1766 481 
L 2356 481 
L 2356 0 
L 1766 0 
Q 1100 0 847 248 
Q 594 497 594 1153 
L 594 3053 
L 172 3053 
L 172 3500 
L 594 3500 
L 594 4494 
L 1172 4494 
z
" transform="scale(0.015625)"/>
      </defs>
      <use xlink:href="#DejaVuSans-73"/>
      <use xlink:href="#DejaVuSans-65" x="52.099609"/>
      <use xlink:href="#DejaVuSans-74" x="113.623047"/>
      <use xlink:href="#DejaVuSans-31" x="152.832031"/>
     </g>
    </g>
   </g>
  </g>
 </g>
 <defs>
  <clipPath id="p64bc1af9da">
   <rect x="57.6" y="41.472" width="357.12" height="266.112"/>
  </clipPath>
 </defs>
</svg>
