<?xml version="1.0" encoding="utf-8" standalone="no"?>
<!DOCTYPE svg PUBLIC "-//W3C//DTD SVG 1.1//EN"
  "http://www.w3.org/Graphics/SVG/1.1/DTD/svg11.dtd">
<svg xmlns:xlink="http://www.w3.org/1999/xlink" width="460.8pt" height="345.6pt" viewBox="0 0 460.8 345.6" xmlns="http://www.w3.org/2000/svg" version="1.1">
 <metadata>
  <rdf:RDF xmlns:dc="http://purl.org/dc/elements/1.1/" xmlns:cc="http://creativecommons.org/ns#" xmlns:rdf="http://www.w3.org/1999/02/22-rdf-syntax-ns#">
   <cc:Work>
    <dc:type rdf:resource="http://purl.org/dc/dcmitype/StillImage"/>
    <dc:date>2022-08-11T15:17:05.385265</dc:date>
    <dc:format>image/svg+xml</dc:format>
    <dc:creator>
     <cc:Agent>
      <dc:title>Matplotlib v3.5.2, https://matplotlib.org/</dc:title>
     </cc:Agent>
    </dc:creator>
   </cc:Work>
  </rdf:RDF>
 </metadata>
 <defs>
  <style type="text/css">*{stroke-linejoin: round; stroke-linecap: butt}</style>
 </defs>
 <g id="figure_1">
  <g id="patch_1">
   <path d="M 0 345.6 
L 460.8 345.6 
L 460.8 0 
L 0 0 
z
" style="fill: #ffffff"/>
  </g>
  <g id="axes_1">
   <g id="patch_2">
    <path d="M 57.6 307.584 
L 414.72 307.584 
L 414.72 41.472 
L 57.6 41.472 
z
" style="fill: #ffffff"/>
   </g>
   <g id="matplotlib.axis_1">
    <g id="xtick_1">
     <g id="line2d_1">
      <defs>
       <path id="m76acb76e68" d="M 0 0 
L 0 3.5 
" style="stroke: #000000; stroke-width: 0.8"/>
      </defs>
      <g>
       <use xlink:href="#m76acb76e68" x="73.832727" y="307.584" style="stroke: #000000; stroke-width: 0.8"/>
      </g>
     </g>
     <g id="text_1">
      <!-- 0 -->
      <g transform="translate(70.651477 322.182437)scale(0.1 -0.1)">
       <defs>
        <path id="DejaVuSans-30" d="M 2034 4250 
Q 1547 4250 1301 3770 
Q 1056 3291 1056 2328 
Q 1056 1369 1301 889 
Q 1547 409 2034 409 
Q 2525 409 2770 889 
Q 3016 1369 3016 2328 
Q 3016 3291 2770 3770 
Q 2525 4250 2034 4250 
z
M 2034 4750 
Q 2819 4750 3233 4129 
Q 3647 3509 3647 2328 
Q 3647 1150 3233 529 
Q 2819 -91 2034 -91 
Q 1250 -91 836 529 
Q 422 1150 422 2328 
Q 422 3509 836 4129 
Q 1250 4750 2034 4750 
z
" transform="scale(0.015625)"/>
       </defs>
       <use xlink:href="#DejaVuSans-30"/>
      </g>
     </g>
    </g>
    <g id="xtick_2">
     <g id="line2d_2">
      <g>
       <use xlink:href="#m76acb76e68" x="137.266597" y="307.584" style="stroke: #000000; stroke-width: 0.8"/>
      </g>
     </g>
     <g id="text_2">
      <!-- 500 -->
      <g transform="translate(127.722847 322.182437)scale(0.1 -0.1)">
       <defs>
        <path id="DejaVuSans-35" d="M 691 4666 
L 3169 4666 
L 3169 4134 
L 1269 4134 
L 1269 2991 
Q 1406 3038 1543 3061 
Q 1681 3084 1819 3084 
Q 2600 3084 3056 2656 
Q 3513 2228 3513 1497 
Q 3513 744 3044 326 
Q 2575 -91 1722 -91 
Q 1428 -91 1123 -41 
Q 819 9 494 109 
L 494 744 
Q 775 591 1075 516 
Q 1375 441 1709 441 
Q 2250 441 2565 725 
Q 2881 1009 2881 1497 
Q 2881 1984 2565 2268 
Q 2250 2553 1709 2553 
Q 1456 2553 1204 2497 
Q 953 2441 691 2322 
L 691 4666 
z
" transform="scale(0.015625)"/>
       </defs>
       <use xlink:href="#DejaVuSans-35"/>
       <use xlink:href="#DejaVuSans-30" x="63.623047"/>
       <use xlink:href="#DejaVuSans-30" x="127.246094"/>
      </g>
     </g>
    </g>
    <g id="xtick_3">
     <g id="line2d_3">
      <g>
       <use xlink:href="#m76acb76e68" x="200.700467" y="307.584" style="stroke: #000000; stroke-width: 0.8"/>
      </g>
     </g>
     <g id="text_3">
      <!-- 1000 -->
      <g transform="translate(187.975467 322.182437)scale(0.1 -0.1)">
       <defs>
        <path id="DejaVuSans-31" d="M 794 531 
L 1825 531 
L 1825 4091 
L 703 3866 
L 703 4441 
L 1819 4666 
L 2450 4666 
L 2450 531 
L 3481 531 
L 3481 0 
L 794 0 
L 794 531 
z
" transform="scale(0.015625)"/>
       </defs>
       <use xlink:href="#DejaVuSans-31"/>
       <use xlink:href="#DejaVuSans-30" x="63.623047"/>
       <use xlink:href="#DejaVuSans-30" x="127.246094"/>
       <use xlink:href="#DejaVuSans-30" x="190.869141"/>
      </g>
     </g>
    </g>
    <g id="xtick_4">
     <g id="line2d_4">
      <g>
       <use xlink:href="#m76acb76e68" x="264.134337" y="307.584" style="stroke: #000000; stroke-width: 0.8"/>
      </g>
     </g>
     <g id="text_4">
      <!-- 1500 -->
      <g transform="translate(251.409337 322.182437)scale(0.1 -0.1)">
       <use xlink:href="#DejaVuSans-31"/>
       <use xlink:href="#DejaVuSans-35" x="63.623047"/>
       <use xlink:href="#DejaVuSans-30" x="127.246094"/>
       <use xlink:href="#DejaVuSans-30" x="190.869141"/>
      </g>
     </g>
    </g>
    <g id="xtick_5">
     <g id="line2d_5">
      <g>
       <use xlink:href="#m76acb76e68" x="327.568206" y="307.584" style="stroke: #000000; stroke-width: 0.8"/>
      </g>
     </g>
     <g id="text_5">
      <!-- 2000 -->
      <g transform="translate(314.843206 322.182437)scale(0.1 -0.1)">
       <defs>
        <path id="DejaVuSans-32" d="M 1228 531 
L 3431 531 
L 3431 0 
L 469 0 
L 469 531 
Q 828 903 1448 1529 
Q 2069 2156 2228 2338 
Q 2531 2678 2651 2914 
Q 2772 3150 2772 3378 
Q 2772 3750 2511 3984 
Q 2250 4219 1831 4219 
Q 1534 4219 1204 4116 
Q 875 4013 500 3803 
L 500 4441 
Q 881 4594 1212 4672 
Q 1544 4750 1819 4750 
Q 2544 4750 2975 4387 
Q 3406 4025 3406 3419 
Q 3406 3131 3298 2873 
Q 3191 2616 2906 2266 
Q 2828 2175 2409 1742 
Q 1991 1309 1228 531 
z
" transform="scale(0.015625)"/>
       </defs>
       <use xlink:href="#DejaVuSans-32"/>
       <use xlink:href="#DejaVuSans-30" x="63.623047"/>
       <use xlink:href="#DejaVuSans-30" x="127.246094"/>
       <use xlink:href="#DejaVuSans-30" x="190.869141"/>
      </g>
     </g>
    </g>
    <g id="xtick_6">
     <g id="line2d_6">
      <g>
       <use xlink:href="#m76acb76e68" x="391.002076" y="307.584" style="stroke: #000000; stroke-width: 0.8"/>
      </g>
     </g>
     <g id="text_6">
      <!-- 2500 -->
      <g transform="translate(378.277076 322.182437)scale(0.1 -0.1)">
       <use xlink:href="#DejaVuSans-32"/>
       <use xlink:href="#DejaVuSans-35" x="63.623047"/>
       <use xlink:href="#DejaVuSans-30" x="127.246094"/>
       <use xlink:href="#DejaVuSans-30" x="190.869141"/>
      </g>
     </g>
    </g>
   </g>
   <g id="matplotlib.axis_2">
    <g id="ytick_1">
     <g id="line2d_7">
      <defs>
       <path id="m93bc92836a" d="M 0 0 
L -3.5 0 
" style="stroke: #000000; stroke-width: 0.8"/>
      </defs>
      <g>
       <use xlink:href="#m93bc92836a" x="57.6" y="268.166058" style="stroke: #000000; stroke-width: 0.8"/>
      </g>
     </g>
     <g id="text_7">
      <!-- 4000 -->
      <g transform="translate(25.15 271.965277)scale(0.1 -0.1)">
       <defs>
        <path id="DejaVuSans-34" d="M 2419 4116 
L 825 1625 
L 2419 1625 
L 2419 4116 
z
M 2253 4666 
L 3047 4666 
L 3047 1625 
L 3713 1625 
L 3713 1100 
L 3047 1100 
L 3047 0 
L 2419 0 
L 2419 1100 
L 313 1100 
L 313 1709 
L 2253 4666 
z
" transform="scale(0.015625)"/>
       </defs>
       <use xlink:href="#DejaVuSans-34"/>
       <use xlink:href="#DejaVuSans-30" x="63.623047"/>
       <use xlink:href="#DejaVuSans-30" x="127.246094"/>
       <use xlink:href="#DejaVuSans-30" x="190.869141"/>
      </g>
     </g>
    </g>
    <g id="ytick_2">
     <g id="line2d_8">
      <g>
       <use xlink:href="#m93bc92836a" x="57.6" y="223.205942" style="stroke: #000000; stroke-width: 0.8"/>
      </g>
     </g>
     <g id="text_8">
      <!-- 4100 -->
      <g transform="translate(25.15 227.005161)scale(0.1 -0.1)">
       <use xlink:href="#DejaVuSans-34"/>
       <use xlink:href="#DejaVuSans-31" x="63.623047"/>
       <use xlink:href="#DejaVuSans-30" x="127.246094"/>
       <use xlink:href="#DejaVuSans-30" x="190.869141"/>
      </g>
     </g>
    </g>
    <g id="ytick_3">
     <g id="line2d_9">
      <g>
       <use xlink:href="#m93bc92836a" x="57.6" y="178.245826" style="stroke: #000000; stroke-width: 0.8"/>
      </g>
     </g>
     <g id="text_9">
      <!-- 4200 -->
      <g transform="translate(25.15 182.045045)scale(0.1 -0.1)">
       <use xlink:href="#DejaVuSans-34"/>
       <use xlink:href="#DejaVuSans-32" x="63.623047"/>
       <use xlink:href="#DejaVuSans-30" x="127.246094"/>
       <use xlink:href="#DejaVuSans-30" x="190.869141"/>
      </g>
     </g>
    </g>
    <g id="ytick_4">
     <g id="line2d_10">
      <g>
       <use xlink:href="#m93bc92836a" x="57.6" y="133.28571" style="stroke: #000000; stroke-width: 0.8"/>
      </g>
     </g>
     <g id="text_10">
      <!-- 4300 -->
      <g transform="translate(25.15 137.084929)scale(0.1 -0.1)">
       <defs>
        <path id="DejaVuSans-33" d="M 2597 2516 
Q 3050 2419 3304 2112 
Q 3559 1806 3559 1356 
Q 3559 666 3084 287 
Q 2609 -91 1734 -91 
Q 1441 -91 1130 -33 
Q 819 25 488 141 
L 488 750 
Q 750 597 1062 519 
Q 1375 441 1716 441 
Q 2309 441 2620 675 
Q 2931 909 2931 1356 
Q 2931 1769 2642 2001 
Q 2353 2234 1838 2234 
L 1294 2234 
L 1294 2753 
L 1863 2753 
Q 2328 2753 2575 2939 
Q 2822 3125 2822 3475 
Q 2822 3834 2567 4026 
Q 2313 4219 1838 4219 
Q 1578 4219 1281 4162 
Q 984 4106 628 3988 
L 628 4550 
Q 988 4650 1302 4700 
Q 1616 4750 1894 4750 
Q 2613 4750 3031 4423 
Q 3450 4097 3450 3541 
Q 3450 3153 3228 2886 
Q 3006 2619 2597 2516 
z
" transform="scale(0.015625)"/>
       </defs>
       <use xlink:href="#DejaVuSans-34"/>
       <use xlink:href="#DejaVuSans-33" x="63.623047"/>
       <use xlink:href="#DejaVuSans-30" x="127.246094"/>
       <use xlink:href="#DejaVuSans-30" x="190.869141"/>
      </g>
     </g>
    </g>
    <g id="ytick_5">
     <g id="line2d_11">
      <g>
       <use xlink:href="#m93bc92836a" x="57.6" y="88.325594" style="stroke: #000000; stroke-width: 0.8"/>
      </g>
     </g>
     <g id="text_11">
      <!-- 4400 -->
      <g transform="translate(25.15 92.124813)scale(0.1 -0.1)">
       <use xlink:href="#DejaVuSans-34"/>
       <use xlink:href="#DejaVuSans-34" x="63.623047"/>
       <use xlink:href="#DejaVuSans-30" x="127.246094"/>
       <use xlink:href="#DejaVuSans-30" x="190.869141"/>
      </g>
     </g>
    </g>
    <g id="ytick_6">
     <g id="line2d_12">
      <g>
       <use xlink:href="#m93bc92836a" x="57.6" y="43.365478" style="stroke: #000000; stroke-width: 0.8"/>
      </g>
     </g>
     <g id="text_12">
      <!-- 4500 -->
      <g transform="translate(25.15 47.164697)scale(0.1 -0.1)">
       <use xlink:href="#DejaVuSans-34"/>
       <use xlink:href="#DejaVuSans-35" x="63.623047"/>
       <use xlink:href="#DejaVuSans-30" x="127.246094"/>
       <use xlink:href="#DejaVuSans-30" x="190.869141"/>
      </g>
     </g>
    </g>
   </g>
   <g id="line2d_13">
    <path d="M 73.832727 265.456926 
L 73.959595 266.55206 
L 74.086463 266.090933 
L 74.21333 266.782678 
L 74.340198 270.990444 
L 74.467066 271.27869 
L 74.720801 262.056048 
L 74.847669 264.361791 
L 74.974537 261.364414 
L 75.101405 262.747793 
L 75.228272 268.338939 
L 75.608876 250.41263 
L 75.862611 256.52253 
L 76.623818 267.93544 
L 76.750685 266.609797 
L 77.004421 267.993177 
L 77.131289 266.263925 
L 77.258156 266.840306 
L 77.385024 268.166058 
L 77.765627 254.101643 
L 77.892495 254.678023 
L 78.019363 252.948771 
L 78.399966 259.577534 
L 78.653701 253.525152 
L 78.780569 254.447405 
L 78.907437 257.560037 
L 79.28804 247.299998 
L 79.414908 248.395133 
L 79.541776 248.279878 
L 79.795511 246.320008 
L 79.922379 247.415252 
L 80.049247 246.896499 
L 80.302982 245.167246 
L 80.683585 234.734216 
L 80.810453 235.944605 
L 80.937321 234.618852 
L 81.191056 226.433828 
L 81.317924 227.701954 
L 81.444792 225.972702 
L 81.571659 219.401675 
L 81.698527 222.975434 
L 81.825395 230.238205 
L 81.952263 176.574311 
L 82.07913 177.323573 
L 82.332866 184.413353 
L 82.713469 194.039604 
L 82.840337 193.174868 
L 82.967205 193.693622 
L 83.094072 191.388098 
L 83.22094 191.849115 
L 83.474675 199.111886 
L 83.728411 190.1776 
L 83.855279 191.56087 
L 84.109014 191.618607 
L 84.235882 191.56087 
L 84.36275 193.059613 
L 84.870221 204.645405 
L 84.997088 204.357379 
L 85.123956 203.723152 
L 85.250824 205.91364 
L 85.377692 205.798386 
L 85.504559 209.717907 
L 85.758295 221.303699 
L 85.885163 217.326441 
L 86.519501 226.030329 
L 86.773237 233.235473 
L 86.900104 231.736839 
L 87.026972 232.370846 
L 87.280708 241.766369 
L 87.407575 242.054615 
L 87.534443 240.671235 
L 87.788179 231.794466 
L 88.041914 243.956748 
L 88.29565 233.638972 
L 88.422517 242.976868 
L 88.549385 243.956748 
L 88.676253 238.59611 
L 88.929988 244.994255 
L 89.183724 240.728862 
L 89.437459 242.74625 
L 89.691195 235.137716 
L 89.94493 243.265113 
L 90.071798 278.253216 
L 90.325533 273.123196 
L 90.452401 275.717075 
L 90.579269 280.789467 
L 90.833004 272.604443 
L 90.959872 273.584323 
L 91.213608 274.62183 
L 91.467343 287.360603 
L 91.594211 286.726485 
L 91.847946 281.250593 
L 92.101682 279.982468 
L 92.482285 287.591111 
L 92.609153 287.591111 
L 92.862888 282.576346 
L 92.989756 284.593843 
L 93.243491 293.239994 
L 93.370359 290.991988 
L 93.497227 286.380722 
L 93.750962 292.260114 
L 94.004698 286.43835 
L 94.131566 289.666236 
L 94.258433 289.954371 
L 94.639037 285.919487 
L 94.892772 286.668858 
L 95.146508 290.069735 
L 95.400243 281.538839 
L 95.527111 283.959726 
L 95.780846 278.656715 
L 96.034582 281.481212 
L 96.161449 281.135339 
L 96.288317 281.365848 
L 96.795788 278.253216 
L 96.922656 275.774702 
L 97.176391 266.840306 
L 97.303259 266.95556 
L 97.430127 265.975679 
L 97.556995 266.436806 
L 97.683862 267.93544 
L 97.937598 263.439429 
L 98.064466 265.399298 
L 98.191333 199.342395 
L 98.318201 198.708387 
L 98.445069 199.918885 
L 98.571936 199.688377 
L 98.825672 186.949604 
L 98.95254 188.851847 
L 99.079407 192.829105 
L 99.206275 191.964369 
L 99.713746 178.015318 
L 99.840614 179.975078 
L 99.967482 178.015318 
L 100.094349 177.842327 
L 100.221217 179.456325 
L 100.474953 169.253803 
L 100.728688 171.213564 
L 101.363027 154.670524 
L 101.489894 153.690754 
L 101.74363 148.330006 
L 101.997365 138.300476 
L 102.124233 139.049737 
L 102.251101 137.435959 
L 102.377969 133.804464 
L 102.504836 135.07248 
L 102.631704 134.438472 
L 103.139175 117.319161 
L 103.266043 120.662192 
L 103.392911 118.990676 
L 103.773514 104.810897 
L 104.027249 107.981156 
L 104.280985 94.147358 
L 104.53472 86.654079 
L 104.661588 87.749104 
L 104.915323 79.794807 
L 105.169059 71.148547 
L 105.549662 56.680522 
L 105.67653 53.568 
L 105.803398 54.202008 
L 105.930265 57.372267 
L 106.057133 57.602775 
L 106.184001 55.873523 
L 106.310869 136.282978 
L 106.437736 136.686478 
L 106.564604 136.05247 
L 106.691472 136.282978 
L 106.945207 140.836727 
L 107.072075 140.721472 
L 107.325811 133.112719 
L 107.452678 134.323217 
L 107.579546 141.297743 
L 107.706414 140.029728 
L 107.833281 134.899708 
L 108.087017 143.949248 
L 108.213885 141.182489 
L 108.340752 141.413217 
L 108.46762 144.064503 
L 108.721356 142.681233 
L 108.848223 142.277733 
L 108.975091 143.833995 
L 109.101959 147.926507 
L 109.228827 146.946736 
L 109.355694 143.661223 
L 109.736298 151.327493 
L 109.990033 158.129028 
L 110.116901 158.071511 
L 110.370636 164.469546 
L 110.497504 164.757791 
L 110.751239 172.0783 
L 111.004975 168.619795 
L 111.25871 171.732317 
L 111.385578 171.213564 
L 111.639314 173.288578 
L 111.766181 169.772557 
L 111.893049 171.444072 
L 112.019917 177.669335 
L 112.273652 174.03806 
L 112.40052 178.995088 
L 112.527388 179.16808 
L 112.654256 177.323573 
L 112.907991 185.739106 
L 113.034859 183.0876 
L 113.415462 191.503353 
L 113.54233 191.15737 
L 113.796065 188.909364 
L 114.176668 200.149393 
L 114.303536 194.961857 
L 114.430404 169.715039 
L 114.557272 172.0783 
L 114.684139 171.617063 
L 114.811007 169.599566 
L 115.064743 171.905308 
L 115.318478 169.138549 
L 115.572214 171.156046 
L 115.699081 170.983055 
L 115.825949 172.424062 
L 115.952817 171.386554 
L 116.206552 163.489775 
L 116.33342 164.354292 
L 116.587155 168.446804 
L 116.714023 168.735049 
L 116.840891 170.925318 
L 116.967759 176.170812 
L 117.094626 176.055557 
L 117.221494 172.251071 
L 117.47523 176.631828 
L 117.602097 173.05807 
L 117.728965 174.153314 
L 117.855833 178.649326 
L 117.982701 177.78459 
L 118.236436 171.156046 
L 118.363304 171.098309 
L 118.490172 170.464301 
L 118.617039 168.850303 
L 118.743907 169.484311 
L 118.870775 171.156046 
L 118.997643 170.925318 
L 119.378246 169.715039 
L 119.631981 171.963045 
L 119.758849 171.040572 
L 119.885717 171.156046 
L 120.012584 171.501809 
L 120.139452 171.501809 
L 120.26632 171.328818 
L 120.393188 170.810064 
L 120.520055 170.925318 
L 120.773791 173.173324 
L 120.900659 172.885298 
L 121.154394 168.33155 
L 121.40813 170.579555 
L 121.661865 169.599566 
L 121.915601 171.098309 
L 122.042468 169.715039 
L 122.169336 170.003065 
L 122.423072 179.513842 
L 122.549939 205.798386 
L 122.676807 204.876133 
L 122.803675 206.662903 
L 123.05741 198.996632 
L 123.311146 207.70041 
L 123.564881 199.457868 
L 123.691749 199.400132 
L 123.945484 200.20713 
L 124.072352 200.264648 
L 124.19922 199.918885 
L 124.706691 191.964369 
L 124.960426 193.232605 
L 125.34103 193.232605 
L 125.467897 192.944359 
L 125.721633 193.232605 
L 125.975368 189.543592 
L 126.229104 197.152126 
L 126.482839 194.558358 
L 126.736575 198.535615 
L 126.863442 197.094389 
L 126.99031 196.979135 
L 127.244046 199.688377 
L 127.370913 199.111886 
L 127.497781 197.670879 
L 127.751517 200.841139 
L 127.878384 201.129384 
L 128.13212 207.469902 
L 128.766458 198.65087 
L 129.020194 204.760659 
L 129.273929 196.056881 
L 129.400797 198.593133 
L 129.654533 191.388098 
L 129.7814 193.808876 
L 130.035136 190.062346 
L 130.162004 191.272625 
L 130.288871 191.388098 
L 130.542607 187.699086 
L 130.669475 177.554082 
L 130.796342 177.265836 
L 130.92321 177.842327 
L 131.050078 177.842327 
L 131.176946 178.707063 
L 131.430681 170.176056 
L 131.557549 170.752547 
L 131.811284 173.231061 
L 132.06502 185.162835 
L 132.318755 180.493832 
L 132.445623 183.664091 
L 132.572491 183.894599 
L 132.699358 178.707063 
L 132.826226 179.398588 
L 132.953094 183.664091 
L 133.079962 183.606354 
L 133.206829 183.837082 
L 133.333697 184.701598 
L 133.460565 182.914829 
L 133.587433 184.240581 
L 133.841168 191.791598 
L 133.968036 190.408109 
L 134.094904 190.753871 
L 134.221771 191.733861 
L 134.475507 198.593133 
L 134.729242 196.921617 
L 134.982978 201.878646 
L 135.236713 198.593133 
L 135.363581 199.284877 
L 135.490449 198.24737 
L 135.617316 198.708387 
L 135.744184 200.725884 
L 135.99792 198.766124 
L 136.124787 199.976622 
L 136.251655 199.688377 
L 136.378523 198.593133 
L 136.632258 199.573123 
L 136.759126 201.187121 
L 137.012862 206.432394 
L 137.139729 205.279633 
L 137.266597 205.394887 
L 137.520333 206.835894 
L 137.774068 203.723152 
L 137.900936 204.760659 
L 138.027803 203.262135 
L 138.154671 203.262135 
L 138.281539 207.181656 
L 138.408407 205.74065 
L 138.535274 200.956392 
L 138.662142 202.224628 
L 138.78901 212.715175 
L 139.169613 210.985923 
L 139.296481 208.392155 
L 139.423349 208.334418 
L 139.677084 213.118675 
L 139.93082 210.06367 
L 140.057687 210.582424 
L 140.311423 206.835894 
L 140.565158 211.216651 
L 140.692026 210.06367 
L 140.945761 213.464657 
L 141.072629 212.542404 
L 141.199497 213.00342 
L 141.326365 212.83043 
L 141.453232 213.925674 
L 141.5801 217.902932 
L 141.706968 217.441915 
L 141.833836 212.945903 
L 141.960703 213.061157 
L 142.087571 215.424417 
L 142.341307 212.196421 
L 142.595042 217.960668 
L 142.72191 217.557169 
L 142.848778 218.594676 
L 143.102513 221.937926 
L 143.229381 221.822453 
L 143.483116 219.977946 
L 143.609984 220.381446 
L 143.736852 218.998176 
L 143.990587 224.301186 
L 144.244323 217.787677 
L 144.624926 228.681834 
L 144.751794 227.471336 
L 145.005529 219.632184 
L 145.132397 220.266192 
L 145.259265 224.589431 
L 145.386132 224.185932 
L 145.513 221.591944 
L 145.766736 224.128196 
L 146.020471 220.842682 
L 146.147339 220.842682 
L 146.274207 221.822453 
L 146.527942 225.22333 
L 146.781678 227.471336 
L 147.035413 212.484667 
L 147.162281 210.582424 
L 147.416016 221.130928 
L 147.669752 218.594676 
L 147.923487 220.208674 
L 148.050355 218.940439 
L 148.30409 221.995444 
L 148.684694 217.557169 
L 148.811561 217.72994 
L 148.938429 217.211187 
L 149.192165 219.977946 
L 149.4459 213.695165 
L 149.699636 221.534427 
L 149.953371 216.577179 
L 150.080239 218.652194 
L 150.207106 218.306431 
L 150.333974 214.502164 
L 150.460842 214.732673 
L 150.714577 220.842682 
L 150.841445 220.09342 
L 150.968313 220.612174 
L 151.222048 219.228684 
L 151.475784 221.937926 
L 151.602652 219.920429 
L 151.856387 222.341426 
L 151.983255 220.842682 
L 152.23699 223.43645 
L 152.490726 218.075923 
L 152.617594 220.669691 
L 152.744461 220.957936 
L 152.871329 219.747438 
L 152.998197 219.920429 
L 153.251932 218.13344 
L 153.505668 220.150937 
L 153.632535 220.439182 
L 153.886271 230.641704 
L 154.266874 221.937926 
L 154.393742 222.225952 
L 154.52061 225.972702 
L 154.647477 226.260947 
L 154.901213 218.075923 
L 155.154948 227.1832 
L 155.281816 227.298454 
L 155.408684 225.857447 
L 155.662419 227.701954 
L 155.916155 220.035683 
L 156.043022 220.727428 
L 156.16989 220.381446 
L 156.296758 220.957936 
L 156.423626 223.897687 
L 156.550493 222.283689 
L 156.677361 217.960668 
L 156.804229 218.075923 
L 157.184832 221.995444 
L 157.565435 228.508953 
L 157.819171 227.067946 
L 158.072906 232.659092 
L 158.199774 230.92984 
L 158.326642 230.872213 
L 158.45351 232.025084 
L 158.580377 230.468713 
L 158.96098 219.171167 
L 159.214716 217.960668 
L 159.468451 219.632184 
L 159.595319 219.51693 
L 159.722187 220.208674 
L 159.975922 213.868156 
L 160.229658 224.358704 
L 160.483393 218.13344 
L 160.610261 217.902932 
L 160.863997 212.772912 
L 160.990864 213.291666 
L 161.117732 214.502164 
L 161.498335 210.582424 
L 161.752071 204.472634 
L 162.132674 208.622663 
L 162.259542 207.527638 
L 162.640145 199.22714 
L 162.767013 199.745894 
L 163.020748 207.469902 
L 163.147616 182.453593 
L 163.274484 179.456325 
L 163.781955 189.831618 
L 164.03569 198.420141 
L 164.162558 197.325117 
L 164.289426 193.11735 
L 164.416293 194.615875 
L 164.543161 199.63064 
L 164.670029 198.132116 
L 164.923764 189.082356 
L 165.1775 195.249882 
L 165.304367 193.347859 
L 165.431235 195.134628 
L 165.558103 198.823641 
L 165.811838 195.307619 
L 166.192442 207.527638 
L 166.319309 205.74065 
L 166.953648 218.652194 
L 167.080516 218.364168 
L 167.334251 221.937926 
L 167.587987 220.266192 
L 167.714855 222.917697 
L 167.96859 228.912452 
L 168.095458 227.1832 
L 168.476061 235.771724 
L 168.729796 234.157726 
L 168.856664 235.25297 
L 169.1104 226.087956 
L 169.364135 234.157726 
L 169.491003 232.31322 
L 169.744738 235.425851 
L 169.871606 232.831973 
L 170.125342 234.561225 
L 170.252209 233.927217 
L 170.379077 235.483478 
L 170.632813 227.701954 
L 170.75968 232.370846 
L 170.886548 230.411086 
L 171.013416 225.742193 
L 171.140283 230.238205 
L 171.267151 256.983656 
L 171.520887 251.39251 
L 171.774622 256.580157 
L 172.028358 243.668612 
L 172.282093 248.337505 
L 172.408961 248.625751 
L 172.789564 266.263925 
L 173.0433 256.407275 
L 173.170167 256.868402 
L 173.423903 262.690166 
L 173.804506 266.033307 
L 174.058242 258.943417 
L 174.185109 260.84566 
L 174.311977 266.725051 
L 174.438845 266.782678 
L 174.565712 264.995799 
L 174.819448 266.55206 
L 174.946316 265.687434 
L 175.073183 266.55206 
L 175.200051 265.629807 
L 175.326919 262.22904 
L 175.453787 261.883167 
L 175.707522 264.995799 
L 175.83439 265.226308 
L 175.961258 264.361791 
L 176.214993 260.499787 
L 176.595596 258.597654 
L 176.722464 258.655281 
L 176.849332 258.309409 
L 176.9762 257.444783 
L 177.229935 251.911264 
L 177.48367 255.254404 
L 177.610538 255.13915 
L 177.737406 254.73565 
L 177.864274 253.064025 
L 177.991141 255.13915 
L 178.118009 259.289289 
L 178.371745 247.242261 
L 178.62548 252.891144 
L 178.752348 249.778512 
L 178.879216 252.314763 
L 179.006083 251.450137 
L 179.132951 244.533129 
L 179.259819 245.10962 
L 179.386687 202.512654 
L 179.513554 206.662903 
L 179.640422 205.855904 
L 180.021025 191.215107 
L 180.147893 193.232605 
L 180.274761 198.939115 
L 180.401628 198.24737 
L 180.655364 192.425606 
L 180.782232 192.54086 
L 180.909099 190.753871 
L 181.035967 191.330361 
L 181.162835 192.829105 
L 181.41657 192.252615 
L 181.670306 189.716363 
L 181.924041 191.906852 
L 182.177777 190.235117 
L 182.55838 181.646594 
L 182.812116 183.318329 
L 182.938983 183.4911 
L 183.319586 178.188089 
L 183.446454 178.937571 
L 183.70019 178.418817 
L 183.827057 179.398588 
L 183.953925 178.707063 
L 184.334528 171.617063 
L 184.588264 172.481799 
L 184.968867 162.913285 
L 185.222603 171.444072 
L 185.476338 160.780534 
L 185.730074 153.114263 
L 185.856941 153.978999 
L 186.110677 149.540505 
L 186.237544 150.059258 
L 186.745015 135.187953 
L 186.871883 134.496209 
L 186.998751 138.300476 
L 187.125619 137.896976 
L 187.252486 135.764224 
L 187.379354 136.62896 
L 187.506222 172.827561 
L 187.63309 171.847571 
L 187.886825 165.276545 
L 188.140561 170.521819 
L 188.267428 168.965558 
L 188.521164 171.444072 
L 188.648032 170.176056 
L 188.774899 170.69481 
L 189.028635 173.461569 
L 189.155503 173.231061 
L 189.28237 172.597053 
L 189.536106 170.233793 
L 189.662973 171.847571 
L 189.789841 171.847571 
L 189.916709 169.830294 
L 190.043577 170.29131 
L 190.170444 171.847571 
L 190.42418 170.118319 
L 190.551048 170.233793 
L 190.677915 170.003065 
L 190.931651 176.228329 
L 191.312254 184.240581 
L 191.439122 184.009853 
L 191.56599 182.914829 
L 191.819725 183.721828 
L 192.073461 179.802087 
L 192.200328 181.358348 
L 192.327196 184.932107 
L 192.580931 180.378578 
L 192.834667 186.488587 
L 193.088402 178.015318 
L 193.342138 187.180112 
L 193.469006 185.04758 
L 193.595873 185.393343 
L 193.722741 184.528607 
L 193.849609 184.816852 
L 193.976477 189.947092 
L 194.103344 190.1776 
L 194.230212 186.603842 
L 194.483948 193.981867 
L 194.737683 190.811608 
L 194.864551 191.272625 
L 195.118286 199.342395 
L 195.245154 198.593133 
L 195.498889 190.465845 
L 195.625757 248.337505 
L 195.752625 250.239639 
L 195.879493 249.375013 
L 196.00636 246.0895 
L 196.133228 247.588134 
L 196.260096 251.219519 
L 196.513831 246.781135 
L 196.640699 248.683378 
L 196.894435 247.876379 
L 197.021302 249.605631 
L 197.275038 241.478234 
L 197.401906 242.227496 
L 197.528773 242.112242 
L 197.655641 240.152481 
L 197.909377 244.129739 
L 198.163112 252.37239 
L 198.28998 251.104265 
L 198.416847 246.781135 
L 198.543715 247.530506 
L 198.670583 249.43264 
L 198.797451 248.45276 
L 198.924318 249.605631 
L 199.051186 252.77589 
L 199.178054 252.257136 
L 199.431789 239.230228 
L 199.558657 239.460737 
L 199.685525 241.36287 
L 199.93926 238.538483 
L 200.066128 240.38299 
L 200.700467 234.157726 
L 200.827335 234.849471 
L 201.08107 232.831973 
L 201.334805 235.022352 
L 201.588541 232.197965 
L 201.715409 233.638972 
L 201.842276 233.754226 
L 202.096012 231.218085 
L 202.22288 229.604087 
L 202.349747 226.030329 
L 202.476615 226.664446 
L 202.730351 231.852093 
L 203.237822 226.087956 
L 203.364689 225.338694 
L 203.618425 231.621585 
L 203.745293 165.103554 
L 203.87216 165.449536 
L 204.125896 171.156046 
L 204.252764 170.29131 
L 204.379631 170.579555 
L 204.633367 177.035328 
L 204.887102 177.208319 
L 205.140838 180.897331 
L 205.267705 179.975078 
L 205.521441 174.326305 
L 205.775176 179.975078 
L 205.902044 177.496564 
L 206.028912 177.265836 
L 206.282647 185.220352 
L 206.409515 183.030083 
L 206.536383 184.355836 
L 206.790118 193.232605 
L 206.916986 190.638617 
L 207.424457 196.979135 
L 207.551325 197.613362 
L 207.678192 198.939115 
L 207.931928 207.585156 
L 208.058796 204.241905 
L 208.185663 206.086412 
L 208.439399 213.291666 
L 208.566267 210.985923 
L 208.693134 210.870669 
L 208.94687 213.579911 
L 209.073738 213.983411 
L 209.454341 222.398943 
L 209.708076 212.599921 
L 209.961812 221.591944 
L 210.08868 218.825185 
L 210.342415 225.79982 
L 210.469283 218.767667 
L 210.59615 220.900199 
L 210.723018 226.318574 
L 211.103621 221.015673 
L 211.230489 218.652194 
L 211.357357 221.303699 
L 211.484225 220.323929 
L 211.611092 217.326441 
L 211.73796 219.11343 
L 211.864828 234.042472 
L 211.991696 234.157726 
L 212.118563 234.503598 
L 212.245431 233.927217 
L 212.372299 234.157726 
L 212.752902 224.012941 
L 213.133505 235.714097 
L 213.387241 243.32274 
L 213.640976 238.077357 
L 213.767844 239.806609 
L 213.894712 238.769102 
L 214.021579 239.57599 
L 214.148447 243.32274 
L 214.275315 243.207376 
L 214.402183 240.901743 
L 214.52905 241.535861 
L 214.655918 240.728862 
L 214.782786 241.823996 
L 215.036521 249.490267 
L 215.290257 240.440617 
L 215.543992 251.680646 
L 215.67086 250.643138 
L 215.924596 239.691355 
L 216.178331 247.761125 
L 216.432067 240.037117 
L 216.558934 240.440617 
L 216.685802 240.613608 
L 216.939537 245.224873 
L 217.193273 239.97949 
L 217.447008 242.458114 
L 217.573876 241.017107 
L 217.700744 241.478234 
L 217.827612 241.247616 
L 217.954479 240.440617 
L 218.081347 240.728862 
L 218.208215 241.881733 
L 218.335083 241.766369 
L 218.46195 239.97949 
L 218.588818 240.728862 
L 218.715686 242.688622 
L 219.096289 233.177845 
L 219.223157 234.27309 
L 219.476892 233.927217 
L 219.730628 231.275712 
L 219.857495 229.777078 
L 219.984363 212.657658 
L 220.111231 212.772912 
L 220.364966 206.778157 
L 220.491834 207.239393 
L 220.74557 199.918885 
L 220.999305 203.031627 
L 221.253041 197.843871 
L 221.379908 199.342395 
L 221.760512 191.215107 
L 222.014247 196.345127 
L 222.267983 190.235117 
L 222.521718 194.097121 
L 222.648586 191.15737 
L 222.775453 192.079624 
L 222.902321 191.849115 
L 223.156057 183.4911 
L 223.282924 184.586344 
L 223.409792 184.182845 
L 223.790395 176.286066 
L 223.917263 174.556814 
L 224.044131 174.845059 
L 224.297866 177.957581 
L 224.424734 178.072835 
L 224.551602 177.611818 
L 224.805337 169.657302 
L 225.059073 171.617063 
L 225.566544 157.091521 
L 225.820279 163.143793 
L 226.200882 151.039248 
L 226.32775 150.116995 
L 226.454618 150.347503 
L 226.708353 141.35548 
L 226.835221 141.182489 
L 227.342692 128.789699 
L 227.46956 127.694454 
L 227.596428 129.711952 
L 227.850163 128.270945 
L 227.977031 126.772201 
L 228.103899 164.181301 
L 228.230766 163.489775 
L 228.357634 161.414541 
L 228.611369 166.602298 
L 228.865105 162.336794 
L 229.11884 164.700055 
L 229.245708 163.777801 
L 229.372576 165.161291 
L 229.499444 165.161291 
L 229.626311 163.950792 
L 229.753179 164.181301 
L 230.006915 156.284522 
L 230.26065 162.164023 
L 230.514386 155.708031 
L 230.768121 164.873046 
L 230.894989 164.354292 
L 231.021857 162.336794 
L 231.275592 166.487043 
L 231.40246 165.795299 
L 231.529328 163.547293 
L 231.656195 164.757791 
L 231.909931 171.963045 
L 232.036798 170.752547 
L 232.163666 170.637292 
L 232.544269 178.534071 
L 232.798005 175.824829 
L 232.924873 179.917341 
L 233.05174 180.378578 
L 233.178608 177.496564 
L 233.432344 183.375846 
L 233.686079 174.326305 
L 233.939815 179.571579 
L 234.066682 179.917341 
L 234.320418 181.934839 
L 234.574153 183.952336 
L 234.827889 180.090332 
L 235.081624 190.350372 
L 235.208492 190.1776 
L 235.33536 189.370601 
L 235.462227 189.428118 
L 235.715963 193.463113 
L 235.842831 193.405376 
L 236.096566 189.485855 
L 236.350302 221.303699 
L 236.477169 221.534427 
L 236.604037 214.617418 
L 236.730905 215.481934 
L 236.857773 219.343938 
L 237.111508 211.447159 
L 237.238376 213.118675 
L 237.365244 212.484667 
L 237.492111 210.985923 
L 237.618979 214.040928 
L 237.745847 212.081168 
L 237.872714 206.662903 
L 238.12645 214.213919 
L 238.380185 210.813152 
L 239.014524 223.205942 
L 239.141392 226.260947 
L 239.395127 218.13344 
L 239.648863 227.586699 
L 239.775731 227.240827 
L 240.156334 213.695165 
L 240.283202 215.136172 
L 240.536937 212.542404 
L 240.663805 213.00342 
L 240.790672 213.925674 
L 240.91754 217.557169 
L 241.044408 216.34667 
L 241.171276 214.040928 
L 241.425011 219.574447 
L 241.551879 216.404188 
L 241.805614 220.323929 
L 241.932482 217.211187 
L 242.313085 223.378933 
L 242.439953 224.185932 
L 242.693689 231.448593 
L 242.947424 224.877457 
L 243.074292 225.626829 
L 243.20116 228.16308 
L 243.328027 228.451326 
L 243.581763 224.762203 
L 243.708631 227.356081 
L 243.835498 226.7797 
L 243.962366 223.609442 
L 244.216101 227.932572 
L 244.469837 217.038415 
L 244.977308 224.589431 
L 245.231043 220.554437 
L 245.357911 225.108076 
L 245.484779 224.992712 
L 245.611647 220.554437 
L 245.738514 220.784945 
L 245.865382 223.090688 
L 246.119118 209.833162 
L 246.372853 214.271656 
L 246.499721 210.409652 
L 246.626589 210.06367 
L 246.880324 215.366681 
L 247.134059 212.196421 
L 247.387795 221.303699 
L 247.64153 212.83043 
L 248.022134 226.20332 
L 248.275869 219.747438 
L 248.402737 220.439182 
L 248.529605 220.09342 
L 248.656472 218.825185 
L 248.910208 221.015673 
L 249.037076 218.248694 
L 249.163943 220.554437 
L 249.290811 226.260947 
L 249.417679 226.952582 
L 249.544547 225.684566 
L 249.671414 227.240827 
L 250.052017 239.921863 
L 250.305753 226.7797 
L 250.432621 229.604087 
L 250.559488 229.085333 
L 250.686356 226.837328 
L 250.940092 233.235473 
L 251.193827 225.453948 
L 251.320695 228.56658 
L 251.57443 227.125573 
L 251.701298 227.125573 
L 251.828166 225.972702 
L 252.208769 217.787677 
L 252.335637 221.015673 
L 252.462505 213.233929 
L 252.71624 214.329173 
L 252.843108 211.447159 
L 252.969975 211.908176 
L 253.096843 213.00342 
L 253.223711 211.562414 
L 253.604314 221.822453 
L 253.984917 241.996988 
L 254.238653 235.425851 
L 254.365521 235.022352 
L 254.619256 231.160458 
L 254.746124 232.31322 
L 254.999859 238.077357 
L 255.253595 232.774346 
L 255.380463 233.235473 
L 255.50733 237.327985 
L 255.634198 237.673857 
L 255.761066 237.673857 
L 256.014801 241.881733 
L 256.141669 241.478234 
L 256.395404 245.628373 
L 256.522272 244.072002 
L 256.64914 244.590866 
L 256.902875 252.1994 
L 257.029743 251.161892 
L 257.283479 253.409898 
L 257.410346 250.873756 
L 257.664082 252.026518 
L 257.79095 251.334883 
L 258.044685 256.637784 
L 258.298421 252.026518 
L 258.805892 263.958292 
L 259.059627 259.577534 
L 259.313362 271.048072 
L 259.567098 260.326906 
L 259.693966 260.730296 
L 259.947701 265.687434 
L 260.074569 263.612419 
L 260.328304 253.409898 
L 260.455172 256.52253 
L 260.58204 218.018186 
L 260.708908 224.877457 
L 260.835775 221.073191 
L 261.089511 210.179144 
L 261.216379 210.985923 
L 261.470114 221.591944 
L 261.72385 213.349402 
L 261.850717 213.983411 
L 261.977585 213.868156 
L 262.104453 214.732673 
L 262.485056 224.416441 
L 262.738791 211.620151 
L 262.865659 213.925674 
L 262.992527 221.534427 
L 263.119395 222.225952 
L 263.246262 220.323929 
L 263.626866 219.862692 
L 263.753733 218.882922 
L 263.880601 219.68992 
L 264.007469 219.632184 
L 264.261204 210.121407 
L 264.895543 227.356081 
L 265.022411 227.067946 
L 265.149278 226.20332 
L 265.656749 220.035683 
L 265.783617 220.439182 
L 265.910485 219.632184 
L 266.16422 205.048905 
L 266.417956 215.078435 
L 266.798559 198.881378 
L 266.925427 199.918885 
L 267.052295 201.187121 
L 267.30603 194.327629 
L 267.432898 198.477878 
L 267.559766 196.460381 
L 267.813501 181.992576 
L 268.067236 186.200342 
L 268.320972 184.355836 
L 268.44784 186.719096 
L 268.574707 181.761848 
L 268.701575 227.067946 
L 268.828443 223.782433 
L 268.955311 216.692433 
L 269.462782 227.932572 
L 269.716517 211.792922 
L 269.970253 217.72994 
L 270.223988 210.467169 
L 270.350856 212.599921 
L 270.477724 210.467169 
L 270.731459 203.838406 
L 270.858327 205.279633 
L 270.985195 205.279633 
L 271.112062 203.723152 
L 271.365798 211.620151 
L 271.619533 203.089144 
L 272.000136 212.599921 
L 272.253872 206.662903 
L 272.507607 214.502164 
L 272.761343 210.467169 
L 273.015078 213.118675 
L 273.268814 214.156182 
L 273.395682 214.213919 
L 273.522549 212.772912 
L 273.776285 203.665635 
L 274.03002 216.923161 
L 274.283756 205.164159 
L 274.410623 205.567658 
L 274.537491 206.489911 
L 274.664359 205.91364 
L 274.918094 201.705874 
L 275.044962 201.821128 
L 275.17183 205.164159 
L 275.298698 204.933651 
L 275.425565 204.011397 
L 275.552433 206.432394 
L 275.679301 206.144149 
L 275.806169 204.184388 
L 276.059904 209.717907 
L 276.186772 207.758147 
L 276.440507 199.400132 
L 276.694243 197.036872 
L 276.821111 265.918052 
L 276.947978 269.434184 
L 277.074846 268.396676 
L 277.201714 264.995799 
L 277.455449 268.91543 
L 277.709185 259.86578 
L 277.836052 260.557415 
L 277.96292 258.88579 
L 278.089788 261.191423 
L 278.216656 266.55206 
L 278.470391 257.848282 
L 278.724127 267.013187 
L 278.850994 265.745171 
L 278.977862 264.477046 
L 279.485333 277.96508 
L 279.612201 281.365848 
L 279.739069 281.250593 
L 279.992804 273.007942 
L 280.119672 272.950315 
L 280.246539 273.987822 
L 280.373407 273.123196 
L 280.500275 271.451571 
L 281.007746 256.810775 
L 281.261481 266.436806 
L 281.388349 266.263925 
L 281.515217 265.053426 
L 281.642085 266.14867 
L 281.89582 265.975679 
L 282.149556 268.281312 
L 282.403291 264.5923 
L 282.657027 258.712908 
L 282.910762 262.517175 
L 283.03763 262.286667 
L 283.291365 263.20892 
L 283.545101 255.657903 
L 283.925704 259.174035 
L 284.052572 258.309409 
L 284.306307 251.450137 
L 284.68691 256.11903 
L 284.813778 259.231662 
L 284.940646 163.662547 
L 285.067514 161.414541 
L 285.194381 163.547293 
L 285.448117 172.481799 
L 285.574985 173.461569 
L 285.955588 180.320841 
L 286.082456 182.050093 
L 286.209323 181.473822 
L 286.336191 182.223084 
L 286.463059 185.508597 
L 286.716794 176.631828 
L 286.97053 187.007341 
L 287.097397 184.586344 
L 287.224265 184.989844 
L 287.351133 190.465845 
L 287.478001 189.658846 
L 287.604868 183.837082 
L 287.731736 183.145337 
L 287.985472 194.270112 
L 288.112339 194.673611 
L 288.239207 194.673611 
L 288.61981 206.547648 
L 288.746678 207.469902 
L 289.000414 211.331905 
L 289.127281 211.158914 
L 289.507884 219.401675 
L 289.634752 219.343938 
L 290.395959 236.002232 
L 290.522826 234.042472 
L 290.649694 235.425851 
L 290.776562 234.964725 
L 290.90343 231.448593 
L 291.030297 232.082711 
L 291.410901 237.846848 
L 291.537768 237.097476 
L 291.664636 234.676589 
L 291.918372 238.250238 
L 292.045239 238.019729 
L 292.172107 241.593488 
L 292.298975 240.901743 
L 292.425842 235.714097 
L 292.55271 236.405732 
L 292.806446 240.037117 
L 292.933313 241.996988 
L 293.060181 280.155459 
L 293.187049 278.829706 
L 293.440784 272.25857 
L 293.69452 278.080335 
L 293.821388 271.855071 
L 293.948255 271.105809 
L 294.582594 294.91151 
L 294.83633 286.43835 
L 294.963197 287.187612 
L 295.090065 288.743983 
L 295.216933 288.340483 
L 295.3438 286.784112 
L 295.470668 287.82173 
L 295.597536 290.530862 
L 295.851271 281.538839 
L 295.978139 283.556226 
L 296.105007 289.435618 
L 296.231875 288.916864 
L 296.358742 285.516097 
L 296.48561 285.285478 
L 296.612478 287.129985 
L 296.866213 295.488 
L 297.119949 290.818997 
L 297.373684 295.372746 
L 297.62742 292.951749 
L 297.754288 293.643494 
L 298.008023 287.302976 
L 298.134891 287.533484 
L 298.388626 287.360603 
L 298.515494 288.80161 
L 298.642362 285.804232 
L 298.769229 280.155459 
L 299.022965 285.170224 
L 299.2767 280.73184 
L 299.530436 286.726485 
L 299.657304 284.881979 
L 299.911039 290.991988 
L 300.164775 277.96508 
L 300.545378 279.867214 
L 300.672246 282.230473 
L 300.925981 272.028062 
L 301.052849 273.469069 
L 301.179717 213.176412 
L 301.306584 212.715175 
L 301.814055 203.492644 
L 302.067791 212.657658 
L 302.575262 192.483123 
L 302.828997 201.187121 
L 303.082733 196.86388 
L 303.2096 193.11735 
L 303.463336 182.223084 
L 303.590204 189.024619 
L 303.717071 189.485855 
L 304.097675 176.228329 
L 304.224542 171.905308 
L 304.478278 173.05807 
L 304.985749 163.316785 
L 305.112616 162.62504 
L 305.239484 163.489775 
L 305.49322 163.20153 
L 305.620087 162.971022 
L 305.746955 161.357024 
L 306.127558 149.42525 
L 306.254426 151.21202 
L 306.381294 150.289766 
L 306.635029 133.400965 
L 306.761897 134.092709 
L 307.015633 136.398232 
L 307.1425 134.957225 
L 307.396236 116.627416 
L 307.523103 116.973179 
L 307.649971 118.414186 
L 308.664913 89.881855 
L 309.045516 93.743859 
L 309.172384 92.879343 
L 309.299252 156.457513 
L 309.42612 155.765768 
L 309.679855 144.468002 
L 309.806723 150.289766 
L 309.933591 150.866257 
L 310.060458 149.252259 
L 310.187326 151.096765 
L 310.314194 150.116995 
L 310.441061 147.638261 
L 310.694797 149.82875 
L 310.821665 148.906496 
L 311.0754 153.056526 
L 311.329136 141.35548 
L 311.582871 150.40524 
L 311.836607 141.067235 
L 312.090342 150.866257 
L 312.21721 147.177245 
L 312.597813 149.771013 
L 312.851549 158.936027 
L 312.978416 158.186765 
L 313.232152 162.913285 
L 313.485887 156.688022 
L 313.612755 162.22154 
L 313.739623 161.933295 
L 313.86649 156.91853 
L 313.993358 158.763036 
L 314.120226 164.123784 
L 314.247094 163.489775 
L 314.373961 161.414541 
L 314.627697 165.507054 
L 314.754565 163.20153 
L 314.881432 164.873046 
L 315.135168 172.135817 
L 315.388903 167.985787 
L 315.769507 172.885298 
L 316.023242 174.787322 
L 316.403845 182.223084 
L 316.530713 182.568847 
L 316.784448 184.932107 
L 316.911316 185.220352 
L 317.038184 185.969833 
L 317.291919 181.992576 
L 317.418787 164.123784 
L 317.545655 169.023295 
L 317.672523 168.850303 
L 317.79939 166.94806 
L 317.926258 171.156046 
L 318.053126 169.945548 
L 318.179994 162.509786 
L 318.306861 164.181301 
L 318.433729 167.35156 
L 318.560597 162.855548 
L 318.687465 163.489775 
L 318.814332 168.33155 
L 319.068068 161.011042 
L 319.194936 162.394531 
L 319.321803 164.930783 
L 319.448671 163.835538 
L 319.575539 165.334282 
L 319.829274 175.479067 
L 320.08301 169.772557 
L 320.336745 179.975078 
L 320.590481 175.709575 
L 320.844216 182.280601 
L 321.097952 178.130572 
L 321.351687 172.827561 
L 321.605423 178.130572 
L 321.73229 177.38131 
L 321.986026 181.473822 
L 322.239761 177.727072 
L 322.366629 178.822317 
L 322.493497 181.761848 
L 322.747232 176.516574 
L 323.000968 179.513842 
L 323.127835 179.110343 
L 323.381571 182.223084 
L 323.508439 180.493832 
L 323.762174 186.83435 
L 323.889042 186.315596 
L 324.142777 177.842327 
L 324.269645 178.361081 
L 324.523381 184.586344 
L 324.777116 170.176056 
L 324.903984 174.383822 
L 325.030852 171.271301 
L 325.157719 164.239038 
L 325.411455 181.992576 
L 325.538322 220.09342 
L 325.66519 218.191177 
L 325.918926 226.20332 
L 326.172661 228.278334 
L 326.299529 224.185932 
L 326.426397 224.012941 
L 326.553264 226.837328 
L 326.807 219.171167 
L 326.933868 221.88019 
L 327.060735 219.747438 
L 327.187603 211.331905 
L 327.314471 211.562414 
L 327.441339 216.404188 
L 327.568206 214.79041 
L 327.821942 209.833162 
L 328.075677 210.870669 
L 328.202545 212.772912 
L 328.329413 212.599921 
L 328.456281 212.196421 
L 328.710016 214.156182 
L 328.836884 214.38691 
L 329.090619 216.17368 
L 329.344355 212.196421 
L 329.471222 212.888167 
L 329.59809 212.254158 
L 329.724958 209.0839 
L 329.851826 211.101397 
L 329.978693 215.366681 
L 330.232429 210.582424 
L 330.486164 214.905664 
L 330.7399 222.110698 
L 330.866768 218.536939 
L 330.993635 220.4967 
L 331.120503 228.393698 
L 331.247371 226.7797 
L 331.501106 217.384178 
L 331.627974 217.441915 
L 331.754842 211.389422 
L 331.881709 210.813152 
L 332.008577 214.847927 
L 332.262313 203.550381 
L 332.516048 205.91364 
L 332.642916 205.452404 
L 332.769784 206.31714 
L 333.023519 201.475146 
L 333.150387 202.858636 
L 333.404122 197.901388 
L 333.53099 200.322385 
L 333.784726 198.132116 
L 334.038461 189.7741 
L 334.165329 194.788866 
L 334.292197 193.636104 
L 334.545932 182.453593 
L 335.053403 209.314408 
L 335.180271 208.276901 
L 335.560874 198.535615 
L 335.814609 199.457868 
L 335.941477 196.287609 
L 336.195213 206.432394 
L 336.448948 186.027351 
L 336.702684 191.733861 
L 336.829551 191.791598 
L 336.956419 194.500621 
L 337.210155 192.886623 
L 337.337022 198.362624 
L 337.46389 198.996632 
L 337.717625 188.505865 
L 337.971361 203.031627 
L 338.225096 191.042116 
L 338.478832 202.282145 
L 338.6057 198.766124 
L 338.732567 198.708387 
L 338.986303 191.964369 
L 339.113171 193.636104 
L 339.240038 196.979135 
L 339.366906 197.036872 
L 339.620642 193.11735 
L 339.747509 196.114618 
L 340.001245 212.196421 
L 340.128113 209.141417 
L 340.25498 200.725884 
L 340.381848 201.648138 
L 340.508716 210.813152 
L 340.635584 209.544916 
L 340.762451 204.241905 
L 341.016187 206.835894 
L 341.143054 207.585156 
L 341.269922 213.349402 
L 341.39679 211.620151 
L 341.523658 205.625395 
L 341.904261 222.802443 
L 342.411732 211.274168 
L 342.665467 214.213919 
L 343.046071 209.544916 
L 343.172938 205.798386 
L 343.299806 207.758147 
L 343.553542 214.329173 
L 343.807277 207.239393 
L 343.934145 203.204398 
L 344.061012 205.279633 
L 344.314748 211.792922 
L 344.568483 216.980679 
L 344.695351 214.79041 
L 344.949087 210.006152 
L 345.075954 212.888167 
L 345.32969 204.991387 
L 345.583425 213.522174 
L 345.710293 211.850659 
L 345.837161 213.349402 
L 346.090896 221.591944 
L 346.344632 219.055693 
L 346.598367 222.629451 
L 346.852103 217.211187 
L 346.97897 220.323929 
L 347.105838 215.309163 
L 347.232706 204.645405 
L 347.359574 203.607898 
L 347.613309 212.484667 
L 347.740177 214.38691 
L 347.867045 212.254158 
L 347.993912 206.259403 
L 348.12078 208.507409 
L 348.247648 213.291666 
L 348.374516 210.985923 
L 348.501383 211.620151 
L 348.628251 213.925674 
L 348.881987 208.046392 
L 349.008854 214.156182 
L 349.135722 212.772912 
L 349.26259 209.602653 
L 349.770061 218.421685 
L 349.896928 241.881733 
L 350.023796 242.054615 
L 350.150664 233.927217 
L 350.277532 235.944605 
L 350.404399 241.593488 
L 350.531267 239.633727 
L 350.658135 240.152481 
L 350.785003 242.91924 
L 351.038738 239.230228 
L 351.292474 245.974245 
L 351.546209 238.423229 
L 351.673077 240.555981 
L 351.926812 234.907098 
L 352.05368 236.982222 
L 352.307416 244.417874 
L 352.434283 245.686 
L 352.688019 245.051992 
L 352.814886 245.628373 
L 352.941754 245.513119 
L 353.322357 244.590866 
L 353.449225 245.743627 
L 353.702961 252.026518 
L 353.956696 252.660635 
L 354.337299 256.637784 
L 354.717903 253.409898 
L 354.84477 251.507764 
L 354.971638 254.793278 
L 355.098506 262.171413 
L 355.225374 261.076168 
L 355.479109 243.956748 
L 355.732845 247.876379 
L 356.113448 240.844116 
L 356.367183 248.510387 
L 356.620919 245.686 
L 356.747786 249.317386 
L 356.874654 246.435372 
L 357.001522 240.901743 
L 357.255257 250.470257 
L 357.382125 249.317386 
L 357.635861 253.525152 
L 357.889596 246.377745 
L 358.016464 247.934006 
L 358.143332 251.046638 
L 358.270199 250.643138 
L 358.397067 247.818752 
L 358.650803 253.237017 
L 358.904538 245.397755 
L 359.031406 244.821374 
L 359.158273 241.708742 
L 359.285141 243.149749 
L 359.412009 247.06938 
L 359.665744 239.287855 
L 359.792612 240.786489 
L 359.91948 244.763747 
L 360.046348 245.051992 
L 360.173215 244.417874 
L 360.553819 256.580157 
L 360.680686 255.600277 
L 360.807554 255.600277 
L 360.934422 254.73565 
L 361.188157 251.623018 
L 361.441893 253.064025 
L 361.568761 254.044016 
L 361.695628 251.968891 
L 361.949364 245.340128 
L 362.076231 246.147127 
L 362.203099 242.803987 
L 362.329967 243.32274 
L 362.583702 249.490267 
L 362.964306 244.879001 
L 363.091173 245.224873 
L 363.218041 244.648493 
L 363.471777 240.555981 
L 363.725512 240.959371 
L 363.979248 240.613608 
L 364.232983 237.789111 
L 364.486719 238.250238 
L 364.867322 227.010209 
L 365.121057 228.047826 
L 365.755396 207.412165 
L 366.009131 219.574447 
L 366.135999 190.869344 
L 366.262867 189.140093 
L 366.516602 199.861368 
L 366.64347 200.091876 
L 367.024073 208.853391 
L 367.150941 209.602653 
L 367.404677 204.530151 
L 367.658412 213.464657 
L 367.912148 202.512654 
L 368.165883 207.527638 
L 368.419618 202.512654 
L 368.546486 203.780889 
L 368.673354 208.334418 
L 368.800222 208.737917 
L 368.927089 207.873401 
L 369.180825 214.847927 
L 369.307693 214.559682 
L 369.815164 226.376201 
L 369.942031 224.243449 
L 370.068899 224.012941 
L 370.322635 232.543838 
L 370.449502 233.062592 
L 370.703238 242.458114 
L 370.830106 239.57599 
L 370.956973 243.265113 
L 371.210709 257.271901 
L 371.464444 259.635162 
L 371.591312 259.231662 
L 371.71818 259.86578 
L 371.845047 259.116408 
L 371.971915 255.13915 
L 372.098783 255.196777 
L 372.225651 258.367036 
L 372.352518 257.50241 
L 372.606254 262.22904 
L 372.859989 254.044016 
L 372.986857 256.868402 
L 373.113725 253.409898 
L 373.240593 253.237017 
L 373.36746 258.712908 
L 373.748064 253.006398 
L 374.001799 244.533129 
L 374.128667 247.299998 
L 374.255534 270.586945 
L 374.382402 272.604443 
L 374.50927 270.990444 
L 374.636138 271.336317 
L 374.763005 272.950315 
L 375.016741 263.842928 
L 375.143609 264.015919 
L 375.270476 266.667424 
L 375.65108 281.826974 
L 375.777947 282.461092 
L 376.031683 272.028062 
L 376.285418 274.276068 
L 376.412286 273.930195 
L 376.666022 280.155459 
L 376.792889 279.751959 
L 377.046625 269.261193 
L 377.427228 275.02533 
L 377.680963 272.25857 
L 377.934699 279.406087 
L 378.315302 267.070924 
L 378.569038 274.448949 
L 378.822773 264.5923 
L 379.203376 269.549438 
L 379.330244 271.566935 
L 379.58398 261.364414 
L 379.710847 263.900664 
L 379.837715 263.20892 
L 380.345186 255.081523 
L 380.598921 263.036039 
L 380.852657 255.196777 
L 380.979525 256.753148 
L 381.106392 261.422041 
L 381.360128 250.816019 
L 381.486996 251.79601 
L 381.613863 251.507764 
L 381.740731 247.472879 
L 381.867599 248.04926 
L 381.994467 249.144504 
L 382.121334 246.492999 
L 382.248202 247.645761 
L 382.37507 219.574447 
L 382.501938 221.591944 
L 382.628805 221.015673 
L 382.882541 213.695165 
L 383.136276 210.351915 
L 383.263144 213.291666 
L 383.390012 211.908176 
L 383.770615 198.766124 
L 383.897483 197.440371 
L 384.151218 201.244638 
L 384.404954 192.367869 
L 384.658689 179.34107 
L 384.912425 186.200342 
L 385.293028 175.01783 
L 385.546763 160.492288 
L 385.673631 163.143793 
L 385.800499 160.665279 
L 386.054234 148.560514 
L 386.181102 147.523007 
L 386.30797 149.771013 
L 386.434837 148.502997 
L 386.561705 144.813984 
L 386.815441 148.387743 
L 387.069176 136.571223 
L 387.196044 137.723985 
L 387.449779 132.30572 
L 387.576647 129.94246 
L 387.95725 112.477167 
L 388.210986 115.243927 
L 388.337854 113.457158 
L 388.591589 97.375354 
L 388.718457 97.548126 
L 388.845325 100.487877 
L 389.09906 95.646102 
L 389.225928 96.510618 
L 389.479663 81.351069 
L 389.733399 83.771846 
L 389.860266 81.351069 
L 390.114002 83.080321 
L 390.24087 82.619084 
L 390.367737 82.734338 
L 390.494605 144.929239 
L 390.748341 141.009717 
L 391.002076 141.931971 
L 391.128944 142.047225 
L 391.255812 143.372978 
L 391.382679 141.124972 
L 391.509547 135.879479 
L 391.636415 136.974723 
L 391.763283 143.833995 
L 391.89015 144.352748 
L 392.017018 140.490964 
L 392.270753 144.525739 
L 392.524489 141.240226 
L 392.778224 145.447993 
L 393.158828 158.302019 
L 393.412563 156.111531 
L 393.539431 156.399776 
L 393.793166 155.362269 
L 394.046902 157.206775 
L 394.427505 163.143793 
L 394.554373 162.279277 
L 394.681241 164.873046 
L 394.934976 171.963045 
L 395.061844 170.233793 
L 395.188711 170.406565 
L 395.315579 174.383822 
L 395.442447 174.153314 
L 395.569315 172.539316 
L 395.82305 184.125327 
L 396.076786 168.216296 
L 396.330521 175.824829 
L 396.457389 175.42133 
L 396.584257 176.343583 
L 396.837992 179.110343 
L 396.96486 180.032596 
L 397.218595 184.125327 
L 397.345463 184.009853 
L 397.472331 185.969833 
L 397.726066 192.310352 
L 397.852934 192.079624 
L 397.979802 193.290122 
L 398.233537 201.302375 
L 398.360405 200.495376 
L 398.487273 198.24737 
L 398.487273 198.24737 
" clip-path="url(#peb751abd70)" style="fill: none; stroke: #1f77b4; stroke-width: 1.5; stroke-linecap: square"/>
   </g>
   <g id="patch_3">
    <path d="M 57.6 307.584 
L 57.6 41.472 
" style="fill: none; stroke: #000000; stroke-width: 0.8; stroke-linejoin: miter; stroke-linecap: square"/>
   </g>
   <g id="patch_4">
    <path d="M 414.72 307.584 
L 414.72 41.472 
" style="fill: none; stroke: #000000; stroke-width: 0.8; stroke-linejoin: miter; stroke-linecap: square"/>
   </g>
   <g id="patch_5">
    <path d="M 57.6 307.584 
L 414.72 307.584 
" style="fill: none; stroke: #000000; stroke-width: 0.8; stroke-linejoin: miter; stroke-linecap: square"/>
   </g>
   <g id="patch_6">
    <path d="M 57.6 41.472 
L 414.72 41.472 
" style="fill: none; stroke: #000000; stroke-width: 0.8; stroke-linejoin: miter; stroke-linecap: square"/>
   </g>
   <g id="legend_1">
    <g id="patch_7">
     <path d="M 354.074688 64.150125 
L 407.72 64.150125 
Q 409.72 64.150125 409.72 62.150125 
L 409.72 48.472 
Q 409.72 46.472 407.72 46.472 
L 354.074688 46.472 
Q 352.074688 46.472 352.074688 48.472 
L 352.074688 62.150125 
Q 352.074688 64.150125 354.074688 64.150125 
z
" style="fill: #ffffff; opacity: 0.8; stroke: #cccccc; stroke-linejoin: miter"/>
    </g>
    <g id="line2d_14">
     <path d="M 356.074688 54.570438 
L 366.074688 54.570438 
L 376.074688 54.570438 
" style="fill: none; stroke: #1f77b4; stroke-width: 1.5; stroke-linecap: square"/>
    </g>
    <g id="text_13">
     <!-- set1 -->
     <g transform="translate(384.074688 58.070438)scale(0.1 -0.1)">
      <defs>
       <path id="DejaVuSans-73" d="M 2834 3397 
L 2834 2853 
Q 2591 2978 2328 3040 
Q 2066 3103 1784 3103 
Q 1356 3103 1142 2972 
Q 928 2841 928 2578 
Q 928 2378 1081 2264 
Q 1234 2150 1697 2047 
L 1894 2003 
Q 2506 1872 2764 1633 
Q 3022 1394 3022 966 
Q 3022 478 2636 193 
Q 2250 -91 1575 -91 
Q 1294 -91 989 -36 
Q 684 19 347 128 
L 347 722 
Q 666 556 975 473 
Q 1284 391 1588 391 
Q 1994 391 2212 530 
Q 2431 669 2431 922 
Q 2431 1156 2273 1281 
Q 2116 1406 1581 1522 
L 1381 1569 
Q 847 1681 609 1914 
Q 372 2147 372 2553 
Q 372 3047 722 3315 
Q 1072 3584 1716 3584 
Q 2034 3584 2315 3537 
Q 2597 3491 2834 3397 
z
" transform="scale(0.015625)"/>
       <path id="DejaVuSans-65" d="M 3597 1894 
L 3597 1613 
L 953 1613 
Q 991 1019 1311 708 
Q 1631 397 2203 397 
Q 2534 397 2845 478 
Q 3156 559 3463 722 
L 3463 178 
Q 3153 47 2828 -22 
Q 2503 -91 2169 -91 
Q 1331 -91 842 396 
Q 353 884 353 1716 
Q 353 2575 817 3079 
Q 1281 3584 2069 3584 
Q 2775 3584 3186 3129 
Q 3597 2675 3597 1894 
z
M 3022 2063 
Q 3016 2534 2758 2815 
Q 2500 3097 2075 3097 
Q 1594 3097 1305 2825 
Q 1016 2553 972 2059 
L 3022 2063 
z
" transform="scale(0.015625)"/>
       <path id="DejaVuSans-74" d="M 1172 4494 
L 1172 3500 
L 2356 3500 
L 2356 3053 
L 1172 3053 
L 1172 1153 
Q 1172 725 1289 603 
Q 1406 481 1766 481 
L 2356 481 
L 2356 0 
L 1766 0 
Q 1100 0 847 248 
Q 594 497 594 1153 
L 594 3053 
L 172 3053 
L 172 3500 
L 594 3500 
L 594 4494 
L 1172 4494 
z
" transform="scale(0.015625)"/>
      </defs>
      <use xlink:href="#DejaVuSans-73"/>
      <use xlink:href="#DejaVuSans-65" x="52.099609"/>
      <use xlink:href="#DejaVuSans-74" x="113.623047"/>
      <use xlink:href="#DejaVuSans-31" x="152.832031"/>
     </g>
    </g>
   </g>
  </g>
 </g>
 <defs>
  <clipPath id="peb751abd70">
   <rect x="57.6" y="41.472" width="357.12" height="266.112"/>
  </clipPath>
 </defs>
</svg>
