<?xml version="1.0" encoding="utf-8" standalone="no"?>
<!DOCTYPE svg PUBLIC "-//W3C//DTD SVG 1.1//EN"
  "http://www.w3.org/Graphics/SVG/1.1/DTD/svg11.dtd">
<svg xmlns:xlink="http://www.w3.org/1999/xlink" width="460.8pt" height="345.6pt" viewBox="0 0 460.8 345.6" xmlns="http://www.w3.org/2000/svg" version="1.1">
 <metadata>
  <rdf:RDF xmlns:dc="http://purl.org/dc/elements/1.1/" xmlns:cc="http://creativecommons.org/ns#" xmlns:rdf="http://www.w3.org/1999/02/22-rdf-syntax-ns#">
   <cc:Work>
    <dc:type rdf:resource="http://purl.org/dc/dcmitype/StillImage"/>
    <dc:date>2022-08-11T15:17:05.867372</dc:date>
    <dc:format>image/svg+xml</dc:format>
    <dc:creator>
     <cc:Agent>
      <dc:title>Matplotlib v3.5.2, https://matplotlib.org/</dc:title>
     </cc:Agent>
    </dc:creator>
   </cc:Work>
  </rdf:RDF>
 </metadata>
 <defs>
  <style type="text/css">*{stroke-linejoin: round; stroke-linecap: butt}</style>
 </defs>
 <g id="figure_1">
  <g id="patch_1">
   <path d="M 0 345.6 
L 460.8 345.6 
L 460.8 0 
L 0 0 
z
" style="fill: #ffffff"/>
  </g>
  <g id="axes_1">
   <g id="patch_2">
    <path d="M 57.6 307.584 
L 414.72 307.584 
L 414.72 41.472 
L 57.6 41.472 
z
" style="fill: #ffffff"/>
   </g>
   <g id="matplotlib.axis_1">
    <g id="xtick_1">
     <g id="line2d_1">
      <defs>
       <path id="mf7959ec634" d="M 0 0 
L 0 3.5 
" style="stroke: #000000; stroke-width: 0.8"/>
      </defs>
      <g>
       <use xlink:href="#mf7959ec634" x="73.832727" y="307.584" style="stroke: #000000; stroke-width: 0.8"/>
      </g>
     </g>
     <g id="text_1">
      <!-- 0 -->
      <g transform="translate(70.651477 322.182437)scale(0.1 -0.1)">
       <defs>
        <path id="DejaVuSans-30" d="M 2034 4250 
Q 1547 4250 1301 3770 
Q 1056 3291 1056 2328 
Q 1056 1369 1301 889 
Q 1547 409 2034 409 
Q 2525 409 2770 889 
Q 3016 1369 3016 2328 
Q 3016 3291 2770 3770 
Q 2525 4250 2034 4250 
z
M 2034 4750 
Q 2819 4750 3233 4129 
Q 3647 3509 3647 2328 
Q 3647 1150 3233 529 
Q 2819 -91 2034 -91 
Q 1250 -91 836 529 
Q 422 1150 422 2328 
Q 422 3509 836 4129 
Q 1250 4750 2034 4750 
z
" transform="scale(0.015625)"/>
       </defs>
       <use xlink:href="#DejaVuSans-30"/>
      </g>
     </g>
    </g>
    <g id="xtick_2">
     <g id="line2d_2">
      <g>
       <use xlink:href="#mf7959ec634" x="137.266597" y="307.584" style="stroke: #000000; stroke-width: 0.8"/>
      </g>
     </g>
     <g id="text_2">
      <!-- 500 -->
      <g transform="translate(127.722847 322.182437)scale(0.1 -0.1)">
       <defs>
        <path id="DejaVuSans-35" d="M 691 4666 
L 3169 4666 
L 3169 4134 
L 1269 4134 
L 1269 2991 
Q 1406 3038 1543 3061 
Q 1681 3084 1819 3084 
Q 2600 3084 3056 2656 
Q 3513 2228 3513 1497 
Q 3513 744 3044 326 
Q 2575 -91 1722 -91 
Q 1428 -91 1123 -41 
Q 819 9 494 109 
L 494 744 
Q 775 591 1075 516 
Q 1375 441 1709 441 
Q 2250 441 2565 725 
Q 2881 1009 2881 1497 
Q 2881 1984 2565 2268 
Q 2250 2553 1709 2553 
Q 1456 2553 1204 2497 
Q 953 2441 691 2322 
L 691 4666 
z
" transform="scale(0.015625)"/>
       </defs>
       <use xlink:href="#DejaVuSans-35"/>
       <use xlink:href="#DejaVuSans-30" x="63.623047"/>
       <use xlink:href="#DejaVuSans-30" x="127.246094"/>
      </g>
     </g>
    </g>
    <g id="xtick_3">
     <g id="line2d_3">
      <g>
       <use xlink:href="#mf7959ec634" x="200.700467" y="307.584" style="stroke: #000000; stroke-width: 0.8"/>
      </g>
     </g>
     <g id="text_3">
      <!-- 1000 -->
      <g transform="translate(187.975467 322.182437)scale(0.1 -0.1)">
       <defs>
        <path id="DejaVuSans-31" d="M 794 531 
L 1825 531 
L 1825 4091 
L 703 3866 
L 703 4441 
L 1819 4666 
L 2450 4666 
L 2450 531 
L 3481 531 
L 3481 0 
L 794 0 
L 794 531 
z
" transform="scale(0.015625)"/>
       </defs>
       <use xlink:href="#DejaVuSans-31"/>
       <use xlink:href="#DejaVuSans-30" x="63.623047"/>
       <use xlink:href="#DejaVuSans-30" x="127.246094"/>
       <use xlink:href="#DejaVuSans-30" x="190.869141"/>
      </g>
     </g>
    </g>
    <g id="xtick_4">
     <g id="line2d_4">
      <g>
       <use xlink:href="#mf7959ec634" x="264.134337" y="307.584" style="stroke: #000000; stroke-width: 0.8"/>
      </g>
     </g>
     <g id="text_4">
      <!-- 1500 -->
      <g transform="translate(251.409337 322.182437)scale(0.1 -0.1)">
       <use xlink:href="#DejaVuSans-31"/>
       <use xlink:href="#DejaVuSans-35" x="63.623047"/>
       <use xlink:href="#DejaVuSans-30" x="127.246094"/>
       <use xlink:href="#DejaVuSans-30" x="190.869141"/>
      </g>
     </g>
    </g>
    <g id="xtick_5">
     <g id="line2d_5">
      <g>
       <use xlink:href="#mf7959ec634" x="327.568206" y="307.584" style="stroke: #000000; stroke-width: 0.8"/>
      </g>
     </g>
     <g id="text_5">
      <!-- 2000 -->
      <g transform="translate(314.843206 322.182437)scale(0.1 -0.1)">
       <defs>
        <path id="DejaVuSans-32" d="M 1228 531 
L 3431 531 
L 3431 0 
L 469 0 
L 469 531 
Q 828 903 1448 1529 
Q 2069 2156 2228 2338 
Q 2531 2678 2651 2914 
Q 2772 3150 2772 3378 
Q 2772 3750 2511 3984 
Q 2250 4219 1831 4219 
Q 1534 4219 1204 4116 
Q 875 4013 500 3803 
L 500 4441 
Q 881 4594 1212 4672 
Q 1544 4750 1819 4750 
Q 2544 4750 2975 4387 
Q 3406 4025 3406 3419 
Q 3406 3131 3298 2873 
Q 3191 2616 2906 2266 
Q 2828 2175 2409 1742 
Q 1991 1309 1228 531 
z
" transform="scale(0.015625)"/>
       </defs>
       <use xlink:href="#DejaVuSans-32"/>
       <use xlink:href="#DejaVuSans-30" x="63.623047"/>
       <use xlink:href="#DejaVuSans-30" x="127.246094"/>
       <use xlink:href="#DejaVuSans-30" x="190.869141"/>
      </g>
     </g>
    </g>
    <g id="xtick_6">
     <g id="line2d_6">
      <g>
       <use xlink:href="#mf7959ec634" x="391.002076" y="307.584" style="stroke: #000000; stroke-width: 0.8"/>
      </g>
     </g>
     <g id="text_6">
      <!-- 2500 -->
      <g transform="translate(378.277076 322.182437)scale(0.1 -0.1)">
       <use xlink:href="#DejaVuSans-32"/>
       <use xlink:href="#DejaVuSans-35" x="63.623047"/>
       <use xlink:href="#DejaVuSans-30" x="127.246094"/>
       <use xlink:href="#DejaVuSans-30" x="190.869141"/>
      </g>
     </g>
    </g>
   </g>
   <g id="matplotlib.axis_2">
    <g id="ytick_1">
     <g id="line2d_7">
      <defs>
       <path id="m4e4891ab8a" d="M 0 0 
L -3.5 0 
" style="stroke: #000000; stroke-width: 0.8"/>
      </defs>
      <g>
       <use xlink:href="#m4e4891ab8a" x="57.6" y="273.777256" style="stroke: #000000; stroke-width: 0.8"/>
      </g>
     </g>
     <g id="text_7">
      <!-- 4000 -->
      <g transform="translate(25.15 277.576474)scale(0.1 -0.1)">
       <defs>
        <path id="DejaVuSans-34" d="M 2419 4116 
L 825 1625 
L 2419 1625 
L 2419 4116 
z
M 2253 4666 
L 3047 4666 
L 3047 1625 
L 3713 1625 
L 3713 1100 
L 3047 1100 
L 3047 0 
L 2419 0 
L 2419 1100 
L 313 1100 
L 313 1709 
L 2253 4666 
z
" transform="scale(0.015625)"/>
       </defs>
       <use xlink:href="#DejaVuSans-34"/>
       <use xlink:href="#DejaVuSans-30" x="63.623047"/>
       <use xlink:href="#DejaVuSans-30" x="127.246094"/>
       <use xlink:href="#DejaVuSans-30" x="190.869141"/>
      </g>
     </g>
    </g>
    <g id="ytick_2">
     <g id="line2d_8">
      <g>
       <use xlink:href="#m4e4891ab8a" x="57.6" y="221.185923" style="stroke: #000000; stroke-width: 0.8"/>
      </g>
     </g>
     <g id="text_8">
      <!-- 4100 -->
      <g transform="translate(25.15 224.985142)scale(0.1 -0.1)">
       <use xlink:href="#DejaVuSans-34"/>
       <use xlink:href="#DejaVuSans-31" x="63.623047"/>
       <use xlink:href="#DejaVuSans-30" x="127.246094"/>
       <use xlink:href="#DejaVuSans-30" x="190.869141"/>
      </g>
     </g>
    </g>
    <g id="ytick_3">
     <g id="line2d_9">
      <g>
       <use xlink:href="#m4e4891ab8a" x="57.6" y="168.594591" style="stroke: #000000; stroke-width: 0.8"/>
      </g>
     </g>
     <g id="text_9">
      <!-- 4200 -->
      <g transform="translate(25.15 172.39381)scale(0.1 -0.1)">
       <use xlink:href="#DejaVuSans-34"/>
       <use xlink:href="#DejaVuSans-32" x="63.623047"/>
       <use xlink:href="#DejaVuSans-30" x="127.246094"/>
       <use xlink:href="#DejaVuSans-30" x="190.869141"/>
      </g>
     </g>
    </g>
    <g id="ytick_4">
     <g id="line2d_10">
      <g>
       <use xlink:href="#m4e4891ab8a" x="57.6" y="116.003259" style="stroke: #000000; stroke-width: 0.8"/>
      </g>
     </g>
     <g id="text_10">
      <!-- 4300 -->
      <g transform="translate(25.15 119.802477)scale(0.1 -0.1)">
       <defs>
        <path id="DejaVuSans-33" d="M 2597 2516 
Q 3050 2419 3304 2112 
Q 3559 1806 3559 1356 
Q 3559 666 3084 287 
Q 2609 -91 1734 -91 
Q 1441 -91 1130 -33 
Q 819 25 488 141 
L 488 750 
Q 750 597 1062 519 
Q 1375 441 1716 441 
Q 2309 441 2620 675 
Q 2931 909 2931 1356 
Q 2931 1769 2642 2001 
Q 2353 2234 1838 2234 
L 1294 2234 
L 1294 2753 
L 1863 2753 
Q 2328 2753 2575 2939 
Q 2822 3125 2822 3475 
Q 2822 3834 2567 4026 
Q 2313 4219 1838 4219 
Q 1578 4219 1281 4162 
Q 984 4106 628 3988 
L 628 4550 
Q 988 4650 1302 4700 
Q 1616 4750 1894 4750 
Q 2613 4750 3031 4423 
Q 3450 4097 3450 3541 
Q 3450 3153 3228 2886 
Q 3006 2619 2597 2516 
z
" transform="scale(0.015625)"/>
       </defs>
       <use xlink:href="#DejaVuSans-34"/>
       <use xlink:href="#DejaVuSans-33" x="63.623047"/>
       <use xlink:href="#DejaVuSans-30" x="127.246094"/>
       <use xlink:href="#DejaVuSans-30" x="190.869141"/>
      </g>
     </g>
    </g>
    <g id="ytick_5">
     <g id="line2d_11">
      <g>
       <use xlink:href="#m4e4891ab8a" x="57.6" y="63.411926" style="stroke: #000000; stroke-width: 0.8"/>
      </g>
     </g>
     <g id="text_11">
      <!-- 4400 -->
      <g transform="translate(25.15 67.211145)scale(0.1 -0.1)">
       <use xlink:href="#DejaVuSans-34"/>
       <use xlink:href="#DejaVuSans-34" x="63.623047"/>
       <use xlink:href="#DejaVuSans-30" x="127.246094"/>
       <use xlink:href="#DejaVuSans-30" x="190.869141"/>
      </g>
     </g>
    </g>
   </g>
   <g id="line2d_12">
    <path d="M 73.832727 160.166368 
L 73.959595 154.435504 
L 74.086463 154.705138 
L 74.21333 158.683128 
L 74.340198 156.255914 
L 74.593934 146.209635 
L 74.847669 144.524041 
L 75.101405 153.423995 
L 75.482008 144.456505 
L 76.116347 155.244404 
L 76.243214 161.177878 
L 76.370082 161.312695 
L 76.49695 155.649111 
L 76.623818 155.851208 
L 76.750685 161.582328 
L 76.877553 161.515048 
L 77.004421 157.604338 
L 77.258156 159.694638 
L 77.511892 154.098334 
L 77.638759 154.367968 
L 77.765627 153.289178 
L 77.892495 156.053561 
L 78.019363 162.121851 
L 78.14623 160.233904 
L 78.273098 153.289178 
L 78.399966 155.783928 
L 78.526834 161.784681 
L 78.653701 161.987034 
L 78.907437 159.896735 
L 79.034305 161.649864 
L 79.28804 167.650618 
L 79.414908 166.032561 
L 79.541776 167.718154 
L 79.668643 167.246168 
L 79.795511 167.852971 
L 79.922379 175.808951 
L 80.049247 175.269684 
L 80.176114 165.627854 
L 80.302982 165.560574 
L 80.42985 171.021804 
L 80.556717 169.808197 
L 81.064188 160.571074 
L 81.317924 167.650618 
L 81.444792 169.134114 
L 81.571659 167.448264 
L 81.698527 163.605091 
L 81.825395 164.144614 
L 81.952263 72.109783 
L 82.205998 76.829392 
L 82.459734 94.494739 
L 82.840337 78.447706 
L 83.728411 97.326659 
L 83.855279 96.382686 
L 83.982146 92.539513 
L 84.235882 107.170585 
L 84.489617 100.023505 
L 84.743353 113.778142 
L 84.997088 109.934969 
L 85.123956 112.834169 
L 85.250824 113.104059 
L 85.377692 116.138075 
L 85.631427 126.858695 
L 85.758295 125.173102 
L 86.01203 139.467005 
L 86.519501 141.354951 
L 86.773237 144.996028 
L 86.900104 143.242898 
L 87.026972 143.782164 
L 87.280708 153.423995 
L 87.407575 151.064061 
L 87.534443 152.682374 
L 87.788179 166.976278 
L 87.915046 161.110341 
L 88.041914 162.256667 
L 88.29565 172.707397 
L 88.422517 176.213658 
L 88.549385 176.078841 
L 88.676253 170.886988 
L 88.803121 175.539317 
L 88.929988 185.787951 
L 89.183724 183.428017 
L 89.437459 199.0706 
L 89.564327 191.1819 
L 89.691195 194.485807 
L 89.818062 203.520577 
L 89.94493 202.71142 
L 90.071798 234.401165 
L 90.198666 231.569373 
L 90.325533 236.423928 
L 90.452401 247.279365 
L 90.579269 246.605024 
L 90.706137 239.053494 
L 90.959872 237.43531 
L 91.08674 234.738335 
L 91.340475 243.436063 
L 91.594211 229.681427 
L 92.101682 246.537616 
L 92.22855 247.548998 
L 92.355417 244.447445 
L 92.482285 246.470208 
L 92.73602 257.527869 
L 92.862888 252.808131 
L 93.116624 259.618041 
L 93.243491 256.651304 
L 93.370359 259.483224 
L 93.497227 265.888556 
L 93.750962 256.718841 
L 94.004698 271.619676 
L 94.131566 263.528751 
L 94.258433 265.349161 
L 94.385301 274.114426 
L 94.639037 271.349914 
L 94.765904 279.30615 
L 94.892772 278.766627 
L 95.01964 272.226479 
L 95.146508 271.484859 
L 95.273375 271.41745 
L 95.400243 271.147689 
L 95.907714 281.733364 
L 96.034582 280.721982 
L 96.161449 284.093297 
L 96.288317 295.488 
L 96.415185 294.476619 
L 96.542053 285.104679 
L 96.66892 286.925089 
L 96.795788 291.779644 
L 97.049524 285.778891 
L 97.176391 288.27364 
L 97.303259 287.531892 
L 97.430127 285.644074 
L 97.683862 291.307657 
L 97.937598 289.352431 
L 98.064466 292.5888 
L 98.191333 88.224352 
L 98.445069 85.662066 
L 98.571936 85.190079 
L 98.825672 76.222589 
L 98.95254 78.852156 
L 99.079407 78.245353 
L 99.206275 71.435443 
L 99.333143 72.244599 
L 99.460011 76.762113 
L 99.713746 64.76035 
L 99.967482 72.649049 
L 100.221217 69.952203 
L 100.474953 74.402179 
L 100.60182 73.930193 
L 100.855556 62.60277 
L 101.109291 67.457453 
L 101.236159 66.783113 
L 101.489894 76.290126 
L 101.616762 75.346153 
L 101.74363 73.727839 
L 101.870498 75.278616 
L 101.997365 73.997729 
L 102.124233 73.997729 
L 102.377969 87.550012 
L 102.631704 82.560512 
L 102.758572 86.336406 
L 102.88544 86.134052 
L 103.012307 84.380922 
L 103.392911 94.157569 
L 103.646646 92.337159 
L 104.280985 112.429719 
L 104.53472 108.451729 
L 104.788456 120.992759 
L 105.042191 111.148575 
L 105.422794 124.094312 
L 105.67653 119.441982 
L 105.803398 121.734379 
L 106.057133 130.364698 
L 106.184001 129.218628 
L 106.310869 145.130845 
L 106.437736 146.411731 
L 106.691472 154.974771 
L 106.945207 143.377715 
L 107.072075 146.681621 
L 107.198943 146.142098 
L 107.325811 143.310178 
L 107.579546 152.277668 
L 107.706414 150.187625 
L 107.833281 152.614838 
L 107.960149 160.908245 
L 108.087017 158.817944 
L 108.213885 150.592075 
L 108.340752 149.917991 
L 108.46762 151.805938 
L 108.721356 149.580821 
L 109.101959 158.885481 
L 109.228827 160.908245 
L 109.482562 158.278678 
L 109.736298 165.695391 
L 109.990033 159.627101 
L 110.116901 160.975524 
L 110.243769 159.761918 
L 110.370636 159.761918 
L 110.497504 162.324204 
L 110.624372 161.987034 
L 110.751239 162.728654 
L 111.004975 168.257421 
L 111.385578 166.908998 
L 111.512446 166.976278 
L 111.639314 169.605844 
L 111.893049 166.032561 
L 112.146785 180.394001 
L 112.40052 174.797698 
L 112.527388 177.696897 
L 112.781123 164.683881 
L 113.034859 178.910504 
L 113.161727 176.618108 
L 113.288594 173.853724 
L 113.54233 186.462034 
L 113.796065 175.269684 
L 113.922933 177.292447 
L 114.176668 169.066578 
L 114.303536 173.921261 
L 114.430404 201.228181 
L 114.557272 201.767703 
L 114.684139 200.351744 
L 114.811007 201.63263 
L 115.064743 207.768457 
L 115.318478 200.621377 
L 115.445346 200.284207 
L 115.572214 200.958547 
L 115.825949 209.319233 
L 116.079685 203.79021 
L 116.33342 208.577614 
L 116.460288 206.891763 
L 116.587155 206.689667 
L 116.967759 217.41003 
L 117.094626 214.578367 
L 117.221494 214.308477 
L 117.348362 216.803227 
L 117.47523 216.061607 
L 117.728965 213.02759 
L 117.855833 212.150896 
L 118.109568 207.835737 
L 118.236436 211.072107 
L 118.363304 211.409277 
L 118.490172 210.735194 
L 118.617039 212.555604 
L 118.743907 212.7577 
L 118.870775 209.588867 
L 118.997643 209.52133 
L 119.12451 212.28597 
L 119.251378 211.27446 
L 119.378246 209.184417 
L 119.505114 209.993317 
L 119.758849 217.00558 
L 119.885717 216.803227 
L 120.139452 210.398024 
L 120.26632 210.19567 
L 120.520055 217.207933 
L 120.646923 214.038843 
L 120.773791 207.36375 
L 120.900659 208.71243 
L 121.027526 213.836747 
L 121.154394 212.960054 
L 121.40813 209.386514 
L 121.534997 209.386514 
L 121.661865 209.993317 
L 121.788733 208.847247 
L 121.915601 209.926037 
L 122.042468 213.76921 
L 122.169336 213.36476 
L 122.296204 211.27446 
L 122.423072 214.038843 
L 122.549939 208.914527 
L 122.676807 209.656403 
L 122.930542 216.938044 
L 123.05741 217.545103 
L 123.311146 213.499577 
L 123.438013 214.578367 
L 123.564881 214.645647 
L 123.691749 216.196423 
L 123.945484 230.490583 
L 124.072352 230.423175 
L 124.19922 229.951188 
L 124.326088 230.96257 
L 124.579823 224.15266 
L 124.833559 230.895033 
L 125.087294 224.15266 
L 125.214162 226.175295 
L 125.34103 225.366266 
L 125.8485 217.207933 
L 125.975368 219.09588 
L 126.229104 227.591255 
L 126.482839 226.040478 
L 126.736575 226.242832 
L 126.863442 226.242832 
L 127.117178 223.680673 
L 127.751517 209.656403 
L 127.878384 210.19567 
L 128.005252 209.993317 
L 128.13212 212.28597 
L 128.258988 217.477566 
L 128.385855 215.050353 
L 128.512723 208.77971 
L 128.766458 214.848 
L 129.020194 208.37526 
L 129.147062 210.87001 
L 129.273929 210.263207 
L 129.527665 210.263207 
L 129.7814 200.958547 
L 129.908268 206.28496 
L 130.035136 204.46455 
L 130.162004 199.003063 
L 130.415739 201.700167 
L 130.542607 198.39626 
L 130.669475 222.534347 
L 130.796342 222.669163 
L 131.176946 234.131532 
L 131.430681 226.175295 
L 131.557549 226.31024 
L 131.811284 224.354885 
L 131.938152 222.601883 
L 132.445623 209.926037 
L 132.572491 208.77971 
L 132.699358 209.52133 
L 132.826226 209.11688 
L 132.953094 208.105627 
L 133.206829 213.499577 
L 133.333697 212.488067 
L 133.460565 208.577614 
L 133.587433 209.049344 
L 133.7143 210.735194 
L 133.841168 209.79122 
L 133.968036 210.060853 
L 134.094904 211.20718 
L 134.348639 208.240444 
L 134.602375 211.27446 
L 134.729242 208.510077 
L 134.85611 209.319233 
L 134.982978 212.150896 
L 135.236713 209.184417 
L 135.363581 213.36476 
L 135.490449 213.36476 
L 135.871052 205.47606 
L 136.124787 206.28496 
L 136.378523 199.879757 
L 136.632258 207.63364 
L 136.759126 207.094117 
L 137.012862 210.330487 
L 137.139729 210.128133 
L 137.266597 209.926037 
L 137.393465 211.409277 
L 137.6472 208.914527 
L 137.774068 209.656403 
L 137.900936 207.970553 
L 138.027803 207.903273 
L 138.281539 214.645647 
L 138.535274 209.11688 
L 138.662142 209.11688 
L 138.915878 200.14939 
L 139.042745 200.621377 
L 139.169613 203.31848 
L 139.296481 203.116127 
L 139.423349 200.014574 
L 139.550216 199.677404 
L 139.677084 201.56535 
L 139.93082 200.284207 
L 140.057687 200.756194 
L 140.565158 194.957794 
L 140.818894 199.138137 
L 141.072629 191.923521 
L 141.326365 195.699414 
L 141.5801 187.810714 
L 141.706968 188.956784 
L 141.833836 192.058337 
L 141.960703 191.856241 
L 142.087571 191.249437 
L 142.214439 191.856241 
L 142.341307 191.519071 
L 142.468174 191.721167 
L 142.595042 192.26069 
L 142.72191 190.642377 
L 142.848778 192.395507 
L 142.975645 197.115374 
L 143.102513 196.23868 
L 143.229381 192.328227 
L 143.356249 192.395507 
L 143.483116 193.676651 
L 143.609984 193.811467 
L 143.736852 193.74393 
L 143.863719 191.991057 
L 144.117455 197.452287 
L 144.244323 196.710667 
L 144.37119 197.924274 
L 144.624926 204.12738 
L 145.005529 199.947037 
L 145.132397 200.216927 
L 145.259265 201.834984 
L 145.639868 190.979547 
L 145.893603 193.069847 
L 146.020471 193.339481 
L 146.274207 192.530324 
L 146.65481 194.283454 
L 146.908545 195.83423 
L 147.162281 199.81222 
L 147.542884 191.451534 
L 147.669752 193.137127 
L 147.796619 192.800214 
L 147.923487 191.856241 
L 148.177223 193.474297 
L 148.30409 195.15989 
L 148.557826 206.21768 
L 148.938429 192.463044 
L 149.065297 192.463044 
L 149.192165 192.26069 
L 149.319032 194.75544 
L 149.4459 194.215917 
L 149.572768 191.788704 
L 149.826503 196.23868 
L 150.080239 191.856241 
L 150.207106 193.204664 
L 150.460842 191.384254 
L 150.714577 194.283454 
L 150.841445 192.66514 
L 151.095181 197.047837 
L 151.348916 191.856241 
L 151.602652 194.75544 
L 151.729519 193.00231 
L 151.983255 194.01382 
L 152.110123 193.069847 
L 152.23699 193.541834 
L 152.363858 195.092611 
L 152.490726 194.148637 
L 152.617594 194.890257 
L 152.871329 201.767703 
L 152.998197 201.497814 
L 153.125064 200.081854 
L 153.3788 194.283454 
L 153.632535 202.846494 
L 153.886271 200.284207 
L 154.140006 202.239434 
L 154.393742 200.081854 
L 154.647477 201.430534 
L 154.901213 200.823731 
L 155.028081 184.911514 
L 155.154948 183.360737 
L 155.281816 183.832467 
L 155.408684 182.753678 
L 155.916155 167.920251 
L 156.043022 168.122604 
L 156.423626 177.96653 
L 156.677361 167.650618 
L 157.057964 178.236421 
L 157.3117 177.157631 
L 157.565435 180.528817 
L 157.819171 176.011304 
L 158.072906 183.900004 
L 158.199774 181.674887 
L 158.326642 181.674887 
L 158.45351 183.630371 
L 158.580377 181.742424 
L 158.834113 176.415754 
L 159.087848 181.13562 
L 159.214716 184.709161 
L 159.341584 184.776441 
L 159.468451 181.000804 
L 159.595319 180.865987 
L 159.849055 184.911514 
L 160.10279 181.944778 
L 160.229658 183.900004 
L 160.483393 193.74393 
L 160.737129 188.754687 
L 160.990864 191.788704 
L 161.117732 192.530324 
L 161.371468 190.912267 
L 161.625203 191.923521 
L 161.752071 191.58635 
L 162.132674 185.181147 
L 162.513277 191.653887 
L 162.767013 192.193154 
L 162.89388 191.923521 
L 163.020748 189.968294 
L 163.147616 126.117075 
L 163.274484 126.386708 
L 163.655087 138.658105 
L 164.03569 125.442735 
L 164.162558 126.791158 
L 164.289426 124.701115 
L 164.416293 125.307919 
L 164.543161 127.667851 
L 164.670029 126.319171 
L 164.796897 126.521525 
L 164.923764 127.195865 
L 165.1775 122.273645 
L 165.431235 131.780658 
L 165.684971 125.645088 
L 165.938706 140.882965 
L 166.192442 125.307919 
L 166.446177 135.151845 
L 166.573045 134.545042 
L 166.699913 136.500268 
L 166.953648 141.894475 
L 167.080516 144.591321 
L 167.334251 152.614838 
L 167.461119 152.008035 
L 167.587987 152.345205 
L 167.714855 153.895981 
L 167.841722 154.030798 
L 168.095458 151.670864 
L 168.349193 151.198878 
L 168.476061 152.008035 
L 168.729796 159.761918 
L 168.983532 172.640118 
L 169.237267 159.761918 
L 169.364135 162.054314 
L 169.744738 176.820461 
L 169.871606 176.146121 
L 169.998474 174.864978 
L 170.379077 183.158384 
L 170.505945 184.709161 
L 170.75968 183.428017 
L 171.013416 186.327217 
L 171.140283 186.731924 
L 171.267151 216.129144 
L 171.394019 216.66841 
L 171.647754 235.412547 
L 171.774622 235.075376 
L 171.90149 227.186676 
L 172.028358 228.13065 
L 172.155225 231.434428 
L 172.408961 225.164042 
L 172.535829 230.760216 
L 172.662696 228.939806 
L 172.789564 225.029096 
L 173.0433 225.23145 
L 173.170167 224.489701 
L 173.297035 226.107887 
L 173.423903 229.748835 
L 173.550771 228.670045 
L 173.677638 225.23145 
L 173.931374 234.873151 
L 174.185109 230.895033 
L 174.438845 238.446691 
L 174.565712 239.660298 
L 174.819448 243.503471 
L 175.073183 240.941441 
L 175.453787 247.211828 
L 175.580654 251.661932 
L 175.707522 250.448326 
L 175.83439 245.728588 
L 176.088125 249.976339 
L 176.341861 239.59289 
L 176.468729 240.739088 
L 176.595596 240.469455 
L 176.722464 240.536863 
L 176.849332 241.75047 
L 177.48367 262.787002 
L 177.610538 262.247607 
L 177.864274 255.505106 
L 177.991141 255.842276 
L 178.118009 258.674067 
L 178.371745 254.358908 
L 178.498612 257.258236 
L 178.62548 257.258236 
L 178.752348 254.628669 
L 179.006083 257.527869 
L 179.259819 253.549879 
L 179.386687 146.142098 
L 179.513554 146.344451 
L 179.76729 152.547558 
L 180.021025 142.636095 
L 180.147893 143.580068 
L 180.274761 145.130845 
L 180.401628 141.354951 
L 180.528496 141.624584 
L 180.655364 145.130845 
L 180.909099 136.567805 
L 181.289703 143.310178 
L 181.41657 142.096571 
L 181.543438 137.376961 
L 181.670306 138.118582 
L 181.797174 141.624584 
L 182.050909 132.117828 
L 182.304645 138.051045 
L 182.55838 134.679858 
L 182.938983 145.670111 
L 183.065851 143.580068 
L 183.192719 143.647348 
L 183.319586 143.917238 
L 183.446454 144.860955 
L 183.573322 149.041298 
L 183.70019 148.097581 
L 183.827057 145.670111 
L 183.953925 149.108834 
L 184.080793 148.704384 
L 184.207661 143.647348 
L 184.334528 143.175361 
L 184.588264 146.276915 
L 184.841999 153.423995 
L 184.968867 151.536048 
L 185.095735 152.345205 
L 185.222603 154.435504 
L 185.476338 161.784681 
L 185.603206 154.300431 
L 185.730074 156.458011 
L 185.856941 167.246168 
L 185.983809 166.234657 
L 186.110677 158.278678 
L 186.237544 157.401984 
L 186.618148 163.402994 
L 186.871883 157.806691 
L 186.998751 157.469521 
L 187.125619 160.773428 
L 187.252486 168.190141 
L 187.379354 167.785434 
L 187.759957 178.708407 
L 187.886825 178.708407 
L 188.013693 174.393248 
L 188.140561 174.190894 
L 188.267428 176.415754 
L 188.394296 175.943767 
L 188.521164 173.718907 
L 188.648032 173.786187 
L 188.901767 177.359727 
L 189.028635 175.943767 
L 189.28237 180.326464 
L 189.409238 179.112857 
L 189.536106 176.483291 
L 189.662973 176.280937 
L 189.916709 179.989294 
L 190.043577 182.079594 
L 190.170444 181.944778 
L 190.297312 182.281947 
L 190.551048 184.574344 
L 190.677915 183.090847 
L 190.931651 186.731924 
L 191.058519 185.11361 
L 191.185386 185.046331 
L 191.439122 192.530324 
L 191.819725 184.843977 
L 191.946593 186.529571 
L 192.073461 190.77745 
L 192.200328 189.765941 
L 192.327196 186.125121 
L 192.580931 192.66514 
L 192.834667 190.103111 
L 192.961535 190.44028 
L 193.21527 184.439527 
L 193.469006 197.182654 
L 193.722741 191.1819 
L 193.849609 192.125874 
L 193.976477 193.474297 
L 194.103344 191.384254 
L 194.230212 193.474297 
L 194.483948 200.756194 
L 194.610815 199.81222 
L 194.864551 201.093364 
L 195.118286 200.48656 
L 195.245154 198.800967 
L 195.372022 198.598614 
L 195.498889 199.947037 
L 195.625757 191.856241 
L 195.752625 193.137127 
L 195.879493 191.991057 
L 196.00636 191.856241 
L 196.133228 190.170647 
L 196.386964 185.315964 
L 196.513831 185.248427 
L 196.767567 183.495554 
L 197.021302 189.361491 
L 197.275038 184.439527 
L 197.401906 184.843977 
L 197.782509 192.058337 
L 197.909377 191.788704 
L 198.163112 195.429781 
L 198.28998 194.957794 
L 198.416847 192.935031 
L 198.543715 193.474297 
L 198.670583 196.373497 
L 198.797451 195.294707 
L 198.924318 192.328227 
L 199.051186 192.867494 
L 199.178054 192.66514 
L 199.304922 190.77745 
L 199.431789 191.1819 
L 199.812393 195.429781 
L 200.192996 190.372744 
L 200.446731 194.081101 
L 200.573599 193.676651 
L 200.700467 191.923521 
L 200.827335 192.395507 
L 201.08107 203.588114 
L 201.334805 193.407017 
L 201.588541 200.081854 
L 201.715409 199.407771 
L 201.842276 200.48656 
L 202.096012 199.74494 
L 202.22288 201.497814 
L 202.476615 199.138137 
L 202.603483 199.947037 
L 202.857218 198.126627 
L 202.984086 199.205417 
L 203.110954 201.63263 
L 203.237822 201.767703 
L 203.364689 199.340234 
L 203.491557 200.284207 
L 203.618425 202.30697 
L 203.745293 65.299873 
L 203.87216 63.344389 
L 204.252764 67.187819 
L 204.506499 62.737586 
L 204.633367 63.074756 
L 204.760234 62.872403 
L 204.887102 62.400673 
L 205.140838 67.187819 
L 205.267705 65.501969 
L 205.394573 65.973956 
L 205.521441 70.08702 
L 205.648309 69.3454 
L 205.775176 67.322636 
L 206.028912 78.245353 
L 206.282647 69.74985 
L 206.536383 76.020236 
L 206.663251 72.042246 
L 206.916986 79.593776 
L 207.043854 76.694576 
L 207.170722 79.391679 
L 207.424457 87.010489 
L 207.678192 95.101542 
L 207.80506 94.022752 
L 207.931928 92.943963 
L 208.185663 104.675836 
L 208.439399 96.449965 
L 208.693134 103.057779 
L 208.820002 101.911452 
L 208.94687 102.113806 
L 209.200605 103.057779 
L 209.581209 120.588052 
L 209.834944 117.486498 
L 210.08868 118.160838 
L 210.342415 128.409472 
L 210.469283 126.251892 
L 210.59615 127.532779 
L 210.849886 135.826185 
L 210.976754 134.140592 
L 211.103621 137.579315 
L 211.230489 137.309425 
L 211.357357 135.421478 
L 211.611092 143.849701 
L 211.73796 143.782164 
L 211.864828 218.286724 
L 211.991696 218.08437 
L 212.372299 228.804862 
L 212.499167 225.6359 
L 212.626034 226.377648 
L 212.752902 228.063241 
L 213.006638 224.961688 
L 213.133505 225.568492 
L 213.260373 224.624646 
L 213.387241 225.6359 
L 213.640976 216.061607 
L 213.767844 219.297976 
L 213.894712 226.377648 
L 214.021579 226.107887 
L 214.148447 224.55711 
L 214.402183 234.670926 
L 214.52905 233.5246 
L 214.655918 228.872398 
L 214.909654 239.25572 
L 215.036521 238.17693 
L 215.163389 239.120903 
L 215.290257 242.761851 
L 215.543992 233.254966 
L 215.797728 241.683061 
L 215.924596 235.682308 
L 216.178331 249.571761 
L 216.432067 241.278483 
L 216.685802 248.56038 
L 216.939537 240.267101 
L 217.193273 242.222456 
L 217.447008 241.278483 
L 218.081347 252.268736 
L 218.46195 255.370289 
L 218.588818 256.44908 
L 218.715686 255.572514 
L 218.969421 249.706578 
L 219.223157 254.965711 
L 219.350025 255.033119 
L 219.60376 258.741476 
L 219.730628 256.786249 
L 219.857495 257.662686 
L 219.984363 140.748148 
L 220.111231 136.500268 
L 220.238099 136.567805 
L 220.364966 139.399725 
L 220.491834 138.927738 
L 220.74557 129.555542 
L 220.999305 128.881459 
L 221.126173 127.667851 
L 221.253041 128.341935 
L 221.379908 128.409472 
L 221.633644 125.779905 
L 221.887379 127.532779 
L 222.014247 126.791158 
L 222.267983 118.835179 
L 222.39485 120.453235 
L 222.521718 119.104812 
L 222.775453 109.732872 
L 222.902321 109.530519 
L 223.409792 117.082049 
L 223.663528 114.452482 
L 223.790395 115.328918 
L 223.917263 112.901705 
L 224.044131 113.710862 
L 224.170999 119.172349 
L 224.424734 113.508509 
L 224.551602 118.902458 
L 224.67847 115.733625 
L 224.805337 109.058532 
L 225.059073 114.722115 
L 225.312808 110.946479 
L 225.439676 110.541772 
L 225.566544 112.699352 
L 225.820279 119.779152 
L 226.200882 115.059285 
L 226.32775 115.935722 
L 226.454618 119.981249 
L 226.581486 118.767642 
L 226.835221 109.395702 
L 227.088957 112.092549 
L 227.215824 110.002506 
L 227.342692 110.204602 
L 227.46956 111.013758 
L 227.596428 109.732872 
L 227.850163 113.373692 
L 227.977031 112.227365 
L 228.103899 176.618108 
L 228.230766 178.168884 
L 228.357634 181.472791 
L 228.484502 179.989294 
L 228.738237 174.932514 
L 228.865105 177.022814 
L 228.991973 176.752924 
L 229.245708 173.651371 
L 229.499444 179.315211 
L 229.753179 185.11361 
L 230.006915 176.415754 
L 230.133782 177.494544 
L 230.387518 176.415754 
L 230.641253 178.506054 
L 230.768121 177.359727 
L 230.894989 177.899251 
L 231.021857 182.214411 
L 231.148724 181.337974 
L 231.275592 176.280937 
L 231.529328 180.461281 
L 231.656195 174.730161 
L 231.783063 175.943767 
L 231.909931 183.158384 
L 232.036798 183.360737 
L 232.163666 180.798451 
L 232.290534 182.416764 
L 232.417402 182.484044 
L 232.544269 180.663634 
L 232.798005 185.450781 
L 232.924873 180.326464 
L 233.05174 180.596097 
L 233.178608 185.85523 
L 233.432344 180.394001 
L 233.559211 183.158384 
L 233.812947 183.495554 
L 234.066682 193.271944 
L 234.320418 188.012811 
L 234.701021 190.305464 
L 234.954756 193.474297 
L 235.081624 191.923521 
L 235.33536 198.32898 
L 235.462227 195.564597 
L 235.589095 197.115374 
L 235.715963 201.9698 
L 235.969698 191.519071 
L 236.096566 192.59786 
L 236.223434 160.908245 
L 236.350302 158.683128 
L 236.604037 150.727148 
L 236.730905 150.255161 
L 236.98464 152.817191 
L 237.238376 149.243651 
L 237.492111 154.300431 
L 237.745847 147.018535 
L 237.872714 143.175361 
L 237.999582 143.917238 
L 238.253318 153.828445 
L 238.507053 148.367215 
L 238.760789 153.154361 
L 239.014524 149.917991 
L 239.141392 152.884728 
L 239.395127 162.121851 
L 239.521995 160.638354 
L 239.775731 151.401231 
L 239.902598 151.670864 
L 240.029466 150.794428 
L 240.156334 151.333951 
L 240.410069 161.043061 
L 240.663805 152.480021 
L 240.790672 152.075571 
L 240.91754 153.019545 
L 241.171276 159.020298 
L 241.298143 159.222651 
L 241.551879 162.526301 
L 241.932482 170.077831 
L 242.05935 168.527054 
L 242.186218 168.796944 
L 242.313085 168.122604 
L 242.439953 162.795934 
L 242.566821 162.593838 
L 242.693689 167.313448 
L 242.820556 167.246168 
L 242.947424 165.965024 
L 243.074292 169.808197 
L 243.20116 168.257421 
L 243.328027 163.605091 
L 243.581763 173.179384 
L 243.835498 169.403747 
L 243.962366 169.808197 
L 244.216101 176.752924 
L 244.342969 175.134867 
L 244.469837 176.415754 
L 244.723572 186.394754 
L 244.977308 185.518317 
L 245.104176 182.88875 
L 245.357911 167.111351 
L 245.611647 176.820461 
L 245.738514 175.336964 
L 245.865382 175.539317 
L 245.99225 183.023567 
L 246.119118 183.225664 
L 246.372853 164.077078 
L 246.626589 177.224911 
L 246.753456 166.841461 
L 246.880324 166.369474 
L 247.134059 178.640871 
L 247.387795 161.312695 
L 247.64153 168.527054 
L 247.768398 168.392237 
L 248.022134 174.460528 
L 248.149001 173.651371 
L 248.402737 181.944778 
L 248.529605 181.877241 
L 248.78334 186.86674 
L 248.910208 185.922767 
L 249.037076 183.900004 
L 249.163943 183.900004 
L 249.417679 176.146121 
L 249.544547 176.213658 
L 249.798282 179.112857 
L 249.92515 181.337974 
L 250.178885 191.653887 
L 250.305753 189.0916 
L 250.432621 183.69765 
L 250.813224 187.001557 
L 250.940092 191.451534 
L 251.193827 181.742424 
L 251.320695 189.765941 
L 251.447563 188.821967 
L 251.57443 182.146874 
L 251.701298 185.653134 
L 251.828166 185.518317 
L 251.955034 180.933267 
L 252.208769 192.59786 
L 252.335637 191.788704 
L 252.462505 216.26396 
L 252.589372 215.791973 
L 252.969975 238.986086 
L 253.350579 229.074623 
L 253.477446 227.523847 
L 253.731182 236.154166 
L 253.984917 223.680673 
L 254.111785 217.67992 
L 254.238653 218.960807 
L 254.365521 223.410912 
L 254.492388 223.545728 
L 254.999859 236.423928 
L 255.126727 237.030731 
L 255.253595 233.86177 
L 255.380463 235.142913 
L 255.50733 239.053494 
L 255.634198 237.704943 
L 255.761066 237.974705 
L 255.887933 243.503471 
L 256.014801 241.75047 
L 256.268537 231.839007 
L 256.395404 234.333756 
L 256.522272 233.457191 
L 256.64914 236.626153 
L 256.776008 245.930813 
L 256.902875 244.514853 
L 257.029743 238.379283 
L 257.283479 247.279365 
L 257.537214 238.514099 
L 257.664082 237.77248 
L 257.79095 235.412547 
L 258.044685 243.571008 
L 258.171553 242.896668 
L 258.298421 242.82926 
L 258.425288 244.245219 
L 258.679024 255.505106 
L 258.805892 253.145301 
L 259.059627 239.188311 
L 259.186495 240.267101 
L 259.313362 244.042866 
L 259.567098 242.964076 
L 259.693966 245.458826 
L 259.947701 243.099021 
L 260.074569 246.133038 
L 260.328304 238.918678 
L 260.455172 245.795996 
L 260.58204 104.271386 
L 260.708908 104.203849 
L 260.962643 114.924468 
L 261.216379 105.013005 
L 261.470114 113.238875 
L 261.596982 112.497255 
L 261.72385 112.497255 
L 261.850717 113.104059 
L 261.977585 112.429719 
L 262.104453 110.137322 
L 262.23132 110.541772 
L 262.485056 115.463735 
L 262.738791 111.350929 
L 263.119395 113.306155 
L 263.499998 112.160085 
L 263.626866 113.508509 
L 263.880601 126.251892 
L 264.134337 118.498008 
L 265.149278 135.826185 
L 265.276146 133.398971 
L 265.403014 133.870701 
L 265.529882 138.658105 
L 265.656749 137.983765 
L 265.910485 132.252645 
L 266.037353 131.645841 
L 266.16422 134.140592 
L 266.417956 143.647348 
L 266.544824 142.703375 
L 266.798559 144.591321 
L 267.052295 154.030798 
L 267.179162 150.592075 
L 267.432898 140.276162 
L 267.813501 152.682374 
L 267.940369 150.861965 
L 268.067236 151.873218 
L 268.320972 161.987034 
L 268.574707 160.436258 
L 268.701575 161.515048 
L 268.955311 168.055067 
L 269.082178 165.223404 
L 269.209046 158.345958 
L 269.335914 159.155115 
L 269.462782 164.481784 
L 269.589649 164.279431 
L 269.716517 160.638354 
L 269.843385 162.998288 
L 269.970253 168.257421 
L 270.09712 168.729408 
L 270.350856 171.358974 
L 270.477724 170.010551 
L 270.604591 171.493791 
L 270.858327 177.494544 
L 270.985195 174.528064 
L 271.112062 174.393248 
L 271.23893 176.618108 
L 271.365798 175.808951 
L 271.492665 173.853724 
L 271.746401 180.663634 
L 271.873269 174.864978 
L 272.000136 174.325711 
L 272.253872 182.416764 
L 272.38074 181.472791 
L 272.634475 185.383244 
L 272.888211 183.428017 
L 273.141946 173.584091 
L 273.522549 182.484044 
L 273.649417 181.472791 
L 273.903153 173.044568 
L 274.156888 179.584844 
L 274.283756 173.853724 
L 274.410623 176.078841 
L 274.537491 183.090847 
L 274.664359 183.360737 
L 275.044962 179.315211 
L 275.17183 175.539317 
L 275.298698 175.269684 
L 275.552433 181.202901 
L 275.679301 178.843224 
L 275.806169 181.405254 
L 275.933036 186.259937 
L 276.186772 184.169637 
L 276.440507 176.483291 
L 276.567375 183.900004 
L 276.694243 183.765187 
L 276.821111 164.009798 
L 277.074846 158.952761 
L 277.201714 159.222651 
L 277.328581 157.806691 
L 277.582317 151.738401 
L 277.709185 149.715638 
L 277.836052 150.457258 
L 278.089788 160.975524 
L 278.470391 150.052808 
L 278.850994 161.043061 
L 278.977862 158.885481 
L 279.231598 162.863471 
L 279.485333 160.638354 
L 279.612201 160.705891 
L 279.865936 158.143861 
L 280.119672 165.762671 
L 280.246539 164.683881 
L 280.500275 159.761918 
L 280.627143 159.829454 
L 280.75401 158.952761 
L 280.880878 161.447511 
L 281.134614 168.729408 
L 281.388349 159.357468 
L 281.642085 166.841461 
L 281.89582 163.537811 
L 282.149556 169.134114 
L 282.403291 167.111351 
L 282.530159 167.852971 
L 282.783894 172.235411 
L 282.910762 171.021804 
L 283.03763 166.504548 
L 283.164497 166.234657 
L 283.291365 168.392237 
L 283.418233 167.448264 
L 283.545101 168.594591 
L 283.671968 172.100594 
L 283.798836 170.212904 
L 283.925704 165.695391 
L 284.179439 168.864224 
L 284.306307 167.380984 
L 284.560043 173.112104 
L 284.813778 169.066578 
L 284.940646 63.883913 
L 285.067514 63.61428 
L 285.448117 74.536996 
L 285.574985 72.514233 
L 285.82872 64.693069 
L 285.955588 63.883913 
L 286.082456 61.793613 
L 286.336191 63.277109 
L 286.463059 60.849896 
L 286.716794 64.693069 
L 286.97053 53.568 
L 287.224265 68.468706 
L 287.351133 59.703569 
L 287.478001 58.96195 
L 287.731736 77.571013 
L 287.985472 60.580006 
L 288.239207 71.368163 
L 288.366075 72.783866 
L 288.746678 81.212089 
L 288.873546 81.751356 
L 289.254149 89.977226 
L 289.381017 89.370423 
L 289.634752 96.247869 
L 289.76162 96.180332 
L 290.015355 91.662819 
L 290.522826 104.069032 
L 290.776562 116.407709 
L 291.030297 108.721362 
L 291.410901 119.711615 
L 291.791504 123.015522 
L 292.172107 135.556551 
L 292.298975 138.388215 
L 292.55271 135.961001 
L 292.806446 149.850455 
L 292.933313 149.783175 
L 293.060181 221.99508 
L 293.313917 230.355638 
L 293.567652 244.514853 
L 293.821388 233.794361 
L 293.948255 236.01935 
L 294.075123 233.254966 
L 294.201991 233.659545 
L 294.328859 238.783733 
L 294.455726 237.637534 
L 294.709462 227.05186 
L 295.3438 239.25572 
L 295.470668 239.053494 
L 295.724404 245.32401 
L 295.851271 243.436063 
L 295.978139 244.717206 
L 296.231875 251.864158 
L 296.358742 253.010484 
L 296.48561 258.741476 
L 296.612478 259.011238 
L 296.739346 252.538498 
L 296.866213 252.201328 
L 296.993081 256.583896 
L 297.246817 249.436945 
L 297.500552 255.977093 
L 297.62742 253.886921 
L 297.881155 262.180199 
L 298.134891 252.673314 
L 298.261758 254.898303 
L 298.388626 254.089274 
L 298.515494 254.021738 
L 298.642362 255.707459 
L 298.769229 260.157436 
L 299.022965 273.035636 
L 299.149833 272.496241 
L 299.403568 279.575784 
L 299.657304 273.372677 
L 299.784171 273.507494 
L 300.037907 271.754493 
L 300.164775 271.956846 
L 300.291642 272.428704 
L 300.672246 279.171206 
L 300.799113 278.025007 
L 301.052849 279.440967 
L 301.179717 100.293396 
L 301.433452 94.090289 
L 301.56032 95.303895 
L 301.687187 94.831909 
L 301.940923 89.909946 
L 302.067791 90.786383 
L 302.321526 89.235606 
L 302.702129 80.537749 
L 302.828997 81.144552 
L 302.955865 81.616539 
L 303.082733 82.628049 
L 303.336468 76.290126 
L 303.590204 86.134052 
L 303.843939 76.155309 
L 303.970807 77.975719 
L 304.097675 76.896929 
L 304.35141 71.840149 
L 304.732013 86.134052 
L 304.858881 85.190079 
L 304.985749 85.257616 
L 305.112616 86.134052 
L 305.366352 92.809146 
L 305.620087 87.550012 
L 305.746955 89.572776 
L 305.873823 89.572776 
L 306.000691 88.493986 
L 306.127558 89.437959 
L 306.381294 86.268869 
L 306.635029 92.876682 
L 306.888765 93.685582 
L 307.015633 92.809146 
L 307.269368 102.922962 
L 307.396236 97.528756 
L 307.523103 98.068279 
L 307.649971 108.519009 
L 307.776839 107.642572 
L 308.030574 94.157569 
L 308.157442 99.079532 
L 308.411178 113.036522 
L 308.664913 101.709099 
L 308.918649 110.676589 
L 309.045516 111.081295 
L 309.172384 110.946479 
L 309.299252 150.120088 
L 309.42612 149.580821 
L 309.552987 150.322441 
L 309.679855 153.963518 
L 309.806723 151.198878 
L 309.933591 142.568558 
L 310.060458 144.456505 
L 310.187326 151.805938 
L 310.314194 149.715638 
L 310.567929 142.838448 
L 310.694797 143.175361 
L 310.948532 147.086071 
L 311.0754 145.670111 
L 311.329136 153.423995 
L 311.582871 148.232398 
L 311.836607 151.603585 
L 311.963474 152.277668 
L 312.21721 160.571074 
L 312.470945 152.682374 
L 312.724681 160.773428 
L 312.978416 154.705138 
L 313.232152 160.773428 
L 313.35902 158.143861 
L 313.485887 158.548311 
L 313.612755 159.694638 
L 313.739623 158.750665 
L 313.993358 159.694638 
L 314.120226 158.413494 
L 314.247094 158.683128 
L 314.373961 160.166368 
L 314.500829 157.806691 
L 314.627697 158.413494 
L 314.754565 162.054314 
L 315.0083 152.817191 
L 315.262036 163.402994 
L 315.515771 156.862718 
L 315.769507 162.863471 
L 315.896374 164.549064 
L 316.023242 168.257421 
L 316.15011 167.987787 
L 316.276978 166.706644 
L 316.530713 177.427264 
L 316.784448 173.516554 
L 316.911316 174.528064 
L 317.038184 174.056078 
L 317.291919 175.943767 
L 317.418787 191.114364 
L 317.545655 189.0916 
L 317.672523 189.42877 
L 317.79939 194.350734 
L 317.926258 194.485807 
L 318.053126 192.66514 
L 318.179994 193.474297 
L 318.306861 191.451534 
L 318.433729 191.721167 
L 318.560597 199.47505 
L 318.687465 198.800967 
L 318.814332 190.575097 
L 319.068068 190.979547 
L 319.194936 186.327217 
L 319.448671 193.271944 
L 319.575539 191.788704 
L 319.829274 201.160644 
L 320.08301 190.507561 
L 320.336745 199.677404 
L 320.590481 195.497061 
L 320.717348 200.823731 
L 320.844216 199.407771 
L 320.971084 191.384254 
L 321.097952 192.530324 
L 321.224819 195.15989 
L 321.351687 194.215917 
L 321.605423 202.64414 
L 321.859158 198.463797 
L 321.986026 199.407771 
L 322.239761 195.15989 
L 322.620364 201.90252 
L 322.747232 209.926037 
L 322.8741 209.11688 
L 323.000968 201.160644 
L 323.127835 201.767703 
L 323.254703 206.9593 
L 323.381571 207.161654 
L 323.635306 199.879757 
L 323.762174 202.441787 
L 323.889042 210.263207 
L 324.01591 207.498567 
L 324.142777 201.430534 
L 324.269645 203.72293 
L 324.396513 203.116127 
L 324.523381 200.823731 
L 324.777116 211.072107 
L 324.903984 208.847247 
L 325.030852 210.263207 
L 325.284587 199.407771 
L 325.411455 201.295717 
L 325.538322 246.402799 
L 325.66519 251.864158 
L 325.792058 251.931566 
L 325.918926 251.257354 
L 326.172661 257.662686 
L 326.426397 246.402799 
L 326.680132 248.762604 
L 326.807 246.807378 
L 326.933868 248.020985 
L 327.314471 254.628669 
L 327.568206 239.053494 
L 327.821942 250.987721 
L 328.075677 239.862651 
L 328.329413 247.077011 
L 328.583148 240.739088 
L 328.836884 244.177811 
L 328.963751 243.975458 
L 329.217487 241.4133 
L 329.344355 242.964076 
L 329.724958 256.044501 
L 329.978693 245.391418 
L 330.105561 246.065629 
L 330.232429 245.256601 
L 330.486164 240.604271 
L 330.613032 235.007968 
L 330.866768 246.402799 
L 331.120503 237.974705 
L 331.374239 249.099774 
L 331.627974 236.01935 
L 331.754842 237.43531 
L 332.008577 243.571008 
L 332.135445 240.67168 
L 332.38918 231.569373 
L 332.516048 235.547363 
L 332.642916 235.345138 
L 332.769784 231.029978 
L 332.896651 234.670926 
L 333.023519 233.254966 
L 333.150387 225.23145 
L 333.277255 225.905661 
L 333.404122 230.086005 
L 333.53099 226.647281 
L 333.657858 213.36476 
L 333.784726 213.76921 
L 334.165329 227.591255 
L 334.545932 216.26396 
L 334.799667 213.566857 
L 334.926535 216.26396 
L 335.053403 211.881263 
L 335.307138 198.598614 
L 335.434006 199.74494 
L 335.687742 192.463044 
L 335.941477 202.71142 
L 336.068345 200.688914 
L 336.32208 207.29647 
L 336.575816 198.463797 
L 336.702684 205.004074 
L 336.829551 205.610877 
L 336.956419 202.239434 
L 337.083287 202.913774 
L 337.210155 199.47505 
L 337.337022 192.935031 
L 337.46389 192.125874 
L 337.717625 193.74393 
L 337.971361 202.576603 
L 338.225096 190.912267 
L 338.478832 197.182654 
L 338.732567 187.473544 
L 338.859435 183.562834 
L 338.986303 185.11361 
L 339.240038 191.856241 
L 339.366906 191.114364 
L 339.620642 198.73343 
L 339.747509 195.766694 
L 339.874377 199.003063 
L 340.001245 197.789457 
L 340.25498 180.326464 
L 340.508716 185.787951 
L 340.762451 175.472037 
L 341.016187 184.709161 
L 341.143054 181.809961 
L 341.269922 182.349228 
L 341.523658 177.764434 
L 341.777393 184.506807 
L 341.904261 176.887741 
L 342.157996 188.68715 
L 342.411732 174.393248 
L 342.665467 190.372744 
L 342.919203 175.336964 
L 343.172938 182.214411 
L 343.426674 173.314201 
L 343.680409 178.640871 
L 344.061012 171.898498 
L 344.18788 175.202148 
L 344.314748 175.202148 
L 344.695351 165.627854 
L 344.949087 179.517307 
L 345.202822 177.090094 
L 345.32969 179.584844 
L 345.456558 177.96653 
L 345.583425 178.640871 
L 345.710293 183.562834 
L 345.837161 182.753678 
L 345.964029 179.922014 
L 346.090896 180.933267 
L 346.344632 185.85523 
L 346.4715 183.832467 
L 346.598367 184.506807 
L 346.725235 190.103111 
L 346.852103 188.68715 
L 346.97897 183.090847 
L 347.359574 186.462034 
L 347.740177 201.228181 
L 347.993912 190.77745 
L 348.247648 200.55384 
L 348.501383 186.057584 
L 348.628251 186.327217 
L 348.881987 193.474297 
L 349.008854 191.788704 
L 349.389458 195.766694 
L 349.643193 203.453297 
L 349.770061 200.351744 
L 349.896928 209.45405 
L 350.023796 207.228934 
L 350.150664 209.926037 
L 350.404399 201.362997 
L 350.658135 207.63364 
L 350.91187 196.845483 
L 351.165606 201.90252 
L 351.546209 208.71243 
L 351.799945 202.509324 
L 352.05368 211.813983 
L 352.307416 205.004074 
L 352.561151 208.577614 
L 352.688019 207.970553 
L 352.814886 208.510077 
L 352.941754 208.44254 
L 353.068622 203.04859 
L 353.19549 203.116127 
L 353.322357 211.20718 
L 353.449225 207.903273 
L 353.576093 200.688914 
L 353.829828 211.27446 
L 354.210432 202.037337 
L 354.337299 199.74494 
L 354.591035 202.037337 
L 354.717903 199.205417 
L 354.971638 202.239434 
L 355.225374 199.81222 
L 355.352241 201.362997 
L 355.479109 200.351744 
L 355.605977 200.958547 
L 355.732845 202.913774 
L 355.859712 202.104617 
L 355.98658 200.48656 
L 356.113448 201.025827 
L 356.240315 200.756194 
L 356.494051 191.721167 
L 356.747786 201.295717 
L 356.874654 199.542587 
L 357.255257 210.128133 
L 357.382125 207.970553 
L 357.635861 198.32898 
L 357.889596 202.239434 
L 358.016464 151.805938 
L 358.143332 151.805938 
L 358.270199 154.165615 
L 358.397067 153.558811 
L 358.650803 148.771665 
L 358.77767 148.569311 
L 359.031406 145.063308 
L 359.285141 155.042308 
L 359.665744 144.524041 
L 359.792612 144.119335 
L 360.046348 152.345205 
L 360.173215 150.389978 
L 360.300083 151.805938 
L 360.426951 154.772418 
L 360.680686 148.569311 
L 360.807554 148.704384 
L 361.188157 159.020298 
L 361.315025 156.929997 
L 361.568761 148.030045 
L 361.695628 151.198878 
L 361.822496 150.929244 
L 361.949364 148.771665 
L 362.329967 155.311941 
L 362.583702 149.850455 
L 362.837438 153.693628 
L 362.964306 149.850455 
L 363.091173 150.659611 
L 363.344909 162.391484 
L 363.598644 158.076324 
L 363.85238 158.885481 
L 364.106115 161.784681 
L 364.359851 159.289931 
L 364.486719 161.784681 
L 364.613586 161.515048 
L 364.740454 158.683128 
L 364.867322 158.952761 
L 365.121057 158.211141 
L 365.247925 161.380231 
L 365.374793 161.649864 
L 365.50166 159.964271 
L 365.628528 162.391484 
L 365.755396 162.121851 
L 365.882264 157.469521 
L 366.009131 160.031551 
L 366.135999 115.935722 
L 366.64347 132.454999 
L 366.770338 131.511025 
L 367.024073 116.340428 
L 367.277809 118.498008 
L 367.404677 118.498008 
L 367.658412 126.925975 
L 367.78528 128.072301 
L 367.912148 127.735132 
L 368.165883 122.341182 
L 368.419618 127.802668 
L 368.673354 125.105565 
L 368.927089 131.848195 
L 369.053957 127.802668 
L 369.180825 127.735132 
L 369.43456 134.612578 
L 369.561428 134.140592 
L 369.815164 138.118582 
L 370.195767 147.692875 
L 370.322635 153.289178 
L 370.449502 153.693628 
L 370.57637 153.221641 
L 370.703238 157.941508 
L 370.830106 156.660364 
L 370.956973 151.805938 
L 371.210709 151.131598 
L 371.464444 159.964271 
L 371.591312 159.222651 
L 371.71818 158.683128 
L 371.971915 176.752924 
L 372.225651 167.111351 
L 372.479386 177.224911 
L 372.733122 177.629617 
L 372.859989 175.000051 
L 372.986857 174.730161 
L 373.240593 185.653134 
L 373.36746 182.618861 
L 373.621196 185.787951 
L 373.748064 186.192401 
L 374.001799 195.564597 
L 374.128667 191.1819 
L 374.255534 243.16643 
L 374.382402 242.289865 
L 374.763005 264.540004 
L 375.016741 253.347526 
L 375.143609 254.763486 
L 375.397344 250.852776 
L 375.524212 254.628669 
L 375.65108 252.673314 
L 375.904815 245.458826 
L 376.031683 246.065629 
L 376.539154 252.673314 
L 376.666022 253.347526 
L 376.919757 261.101409 
L 377.173492 255.640051 
L 377.427228 261.034001 
L 377.554096 262.180199 
L 377.680963 266.697712 
L 377.807831 263.461214 
L 377.934699 256.853658 
L 378.061567 259.213462 
L 378.188434 264.674949 
L 378.44217 262.112791 
L 378.695905 272.293887 
L 378.822773 265.146936 
L 378.949641 266.427951 
L 379.076509 271.282506 
L 379.203376 268.855292 
L 379.457112 259.146054 
L 379.58398 260.090027 
L 379.837715 263.056764 
L 379.964583 264.270371 
L 380.472054 283.890944 
L 380.852657 267.641557 
L 381.23326 269.934082 
L 381.360128 269.596913 
L 381.613863 273.035636 
L 381.740731 269.866674 
L 381.867599 270.001491 
L 381.994467 271.754493 
L 382.121334 270.743111 
L 382.248202 270.877928 
L 382.37507 82.830146 
L 382.501938 80.537749 
L 382.628805 82.358416 
L 382.755673 87.212843 
L 382.882541 85.594786 
L 383.009409 80.470469 
L 383.136276 80.537749 
L 383.263144 82.897683 
L 383.390012 81.549259 
L 383.643747 85.324896 
L 383.897483 72.446952 
L 384.278086 81.616539 
L 384.404954 82.223342 
L 384.531821 79.661313 
L 384.658689 79.796129 
L 384.785557 82.965219 
L 385.039292 80.200579 
L 385.16616 82.021246 
L 385.293028 80.200579 
L 385.419896 81.279369 
L 385.800499 92.876682 
L 385.927367 95.438712 
L 386.054234 94.090289 
L 386.181102 94.697092 
L 386.942308 108.114559 
L 387.069176 105.013005 
L 387.196044 105.956979 
L 387.322912 111.890452 
L 387.576647 109.395702 
L 387.703515 112.429719 
L 387.830383 111.553282 
L 387.95725 112.160085 
L 388.337854 126.251892 
L 388.464721 128.881459 
L 388.591589 127.600315 
L 388.718457 128.611568 
L 388.845325 134.207871 
L 388.972192 133.129082 
L 389.09906 126.723879 
L 389.225928 126.925975 
L 389.606531 143.849701 
L 389.733399 143.647348 
L 389.860266 141.557305 
L 390.24087 155.244404 
L 390.367737 153.086824 
L 390.494605 143.310178 
L 390.621473 143.310178 
L 390.875208 146.411731 
L 391.128944 132.926985 
L 391.255812 142.433742 
L 391.382679 143.377715 
L 391.509547 132.994265 
L 391.636415 134.882212 
L 391.763283 144.388968 
L 392.017018 141.759401 
L 392.143886 150.457258 
L 392.270753 149.513284 
L 392.397621 143.175361 
L 392.524489 143.984518 
L 392.651357 146.276915 
L 392.778224 143.917238 
L 392.905092 143.984518 
L 393.158828 152.547558 
L 393.285695 147.625595 
L 393.412563 147.220888 
L 393.539431 152.749654 
L 393.666299 152.480021 
L 393.793166 150.794428 
L 394.046902 160.908245 
L 394.17377 155.446758 
L 394.300637 155.042308 
L 394.427505 159.222651 
L 394.554373 159.627101 
L 394.681241 158.278678 
L 394.808108 158.345958 
L 394.934976 158.683128 
L 395.188711 161.649864 
L 395.315579 160.840708 
L 395.442447 161.110341 
L 395.696182 165.897488 
L 395.82305 168.055067 
L 396.076786 160.908245 
L 396.584257 177.292447 
L 396.837992 169.673381 
L 397.345463 180.394001 
L 397.472331 177.899251 
L 397.599199 181.202901 
L 397.726066 188.147884 
L 397.852934 187.27119 
L 398.10667 183.900004 
L 398.233537 181.674887 
L 398.360405 182.956031 
L 398.487273 185.85523 
L 398.487273 185.85523 
" clip-path="url(#p4976d32244)" style="fill: none; stroke: #1f77b4; stroke-width: 1.5; stroke-linecap: square"/>
   </g>
   <g id="patch_3">
    <path d="M 57.6 307.584 
L 57.6 41.472 
" style="fill: none; stroke: #000000; stroke-width: 0.8; stroke-linejoin: miter; stroke-linecap: square"/>
   </g>
   <g id="patch_4">
    <path d="M 414.72 307.584 
L 414.72 41.472 
" style="fill: none; stroke: #000000; stroke-width: 0.8; stroke-linejoin: miter; stroke-linecap: square"/>
   </g>
   <g id="patch_5">
    <path d="M 57.6 307.584 
L 414.72 307.584 
" style="fill: none; stroke: #000000; stroke-width: 0.8; stroke-linejoin: miter; stroke-linecap: square"/>
   </g>
   <g id="patch_6">
    <path d="M 57.6 41.472 
L 414.72 41.472 
" style="fill: none; stroke: #000000; stroke-width: 0.8; stroke-linejoin: miter; stroke-linecap: square"/>
   </g>
   <g id="legend_1">
    <g id="patch_7">
     <path d="M 354.074688 64.150125 
L 407.72 64.150125 
Q 409.72 64.150125 409.72 62.150125 
L 409.72 48.472 
Q 409.72 46.472 407.72 46.472 
L 354.074688 46.472 
Q 352.074688 46.472 352.074688 48.472 
L 352.074688 62.150125 
Q 352.074688 64.150125 354.074688 64.150125 
z
" style="fill: #ffffff; opacity: 0.8; stroke: #cccccc; stroke-linejoin: miter"/>
    </g>
    <g id="line2d_13">
     <path d="M 356.074688 54.570438 
L 366.074688 54.570438 
L 376.074688 54.570438 
" style="fill: none; stroke: #1f77b4; stroke-width: 1.5; stroke-linecap: square"/>
    </g>
    <g id="text_12">
     <!-- set2 -->
     <g transform="translate(384.074688 58.070438)scale(0.1 -0.1)">
      <defs>
       <path id="DejaVuSans-73" d="M 2834 3397 
L 2834 2853 
Q 2591 2978 2328 3040 
Q 2066 3103 1784 3103 
Q 1356 3103 1142 2972 
Q 928 2841 928 2578 
Q 928 2378 1081 2264 
Q 1234 2150 1697 2047 
L 1894 2003 
Q 2506 1872 2764 1633 
Q 3022 1394 3022 966 
Q 3022 478 2636 193 
Q 2250 -91 1575 -91 
Q 1294 -91 989 -36 
Q 684 19 347 128 
L 347 722 
Q 666 556 975 473 
Q 1284 391 1588 391 
Q 1994 391 2212 530 
Q 2431 669 2431 922 
Q 2431 1156 2273 1281 
Q 2116 1406 1581 1522 
L 1381 1569 
Q 847 1681 609 1914 
Q 372 2147 372 2553 
Q 372 3047 722 3315 
Q 1072 3584 1716 3584 
Q 2034 3584 2315 3537 
Q 2597 3491 2834 3397 
z
" transform="scale(0.015625)"/>
       <path id="DejaVuSans-65" d="M 3597 1894 
L 3597 1613 
L 953 1613 
Q 991 1019 1311 708 
Q 1631 397 2203 397 
Q 2534 397 2845 478 
Q 3156 559 3463 722 
L 3463 178 
Q 3153 47 2828 -22 
Q 2503 -91 2169 -91 
Q 1331 -91 842 396 
Q 353 884 353 1716 
Q 353 2575 817 3079 
Q 1281 3584 2069 3584 
Q 2775 3584 3186 3129 
Q 3597 2675 3597 1894 
z
M 3022 2063 
Q 3016 2534 2758 2815 
Q 2500 3097 2075 3097 
Q 1594 3097 1305 2825 
Q 1016 2553 972 2059 
L 3022 2063 
z
" transform="scale(0.015625)"/>
       <path id="DejaVuSans-74" d="M 1172 4494 
L 1172 3500 
L 2356 3500 
L 2356 3053 
L 1172 3053 
L 1172 1153 
Q 1172 725 1289 603 
Q 1406 481 1766 481 
L 2356 481 
L 2356 0 
L 1766 0 
Q 1100 0 847 248 
Q 594 497 594 1153 
L 594 3053 
L 172 3053 
L 172 3500 
L 594 3500 
L 594 4494 
L 1172 4494 
z
" transform="scale(0.015625)"/>
      </defs>
      <use xlink:href="#DejaVuSans-73"/>
      <use xlink:href="#DejaVuSans-65" x="52.099609"/>
      <use xlink:href="#DejaVuSans-74" x="113.623047"/>
      <use xlink:href="#DejaVuSans-32" x="152.832031"/>
     </g>
    </g>
   </g>
  </g>
 </g>
 <defs>
  <clipPath id="p4976d32244">
   <rect x="57.6" y="41.472" width="357.12" height="266.112"/>
  </clipPath>
 </defs>
</svg>
