<?xml version="1.0" encoding="utf-8" standalone="no"?>
<!DOCTYPE svg PUBLIC "-//W3C//DTD SVG 1.1//EN"
  "http://www.w3.org/Graphics/SVG/1.1/DTD/svg11.dtd">
<svg xmlns:xlink="http://www.w3.org/1999/xlink" width="460.8pt" height="345.6pt" viewBox="0 0 460.8 345.6" xmlns="http://www.w3.org/2000/svg" version="1.1">
 <metadata>
  <rdf:RDF xmlns:dc="http://purl.org/dc/elements/1.1/" xmlns:cc="http://creativecommons.org/ns#" xmlns:rdf="http://www.w3.org/1999/02/22-rdf-syntax-ns#">
   <cc:Work>
    <dc:type rdf:resource="http://purl.org/dc/dcmitype/StillImage"/>
    <dc:date>2022-08-11T15:18:10.854902</dc:date>
    <dc:format>image/svg+xml</dc:format>
    <dc:creator>
     <cc:Agent>
      <dc:title>Matplotlib v3.5.2, https://matplotlib.org/</dc:title>
     </cc:Agent>
    </dc:creator>
   </cc:Work>
  </rdf:RDF>
 </metadata>
 <defs>
  <style type="text/css">*{stroke-linejoin: round; stroke-linecap: butt}</style>
 </defs>
 <g id="figure_1">
  <g id="patch_1">
   <path d="M 0 345.6 
L 460.8 345.6 
L 460.8 0 
L 0 0 
z
" style="fill: #ffffff"/>
  </g>
  <g id="axes_1">
   <g id="patch_2">
    <path d="M 57.6 307.584 
L 414.72 307.584 
L 414.72 41.472 
L 57.6 41.472 
z
" style="fill: #ffffff"/>
   </g>
   <g id="matplotlib.axis_1">
    <g id="xtick_1">
     <g id="line2d_1">
      <defs>
       <path id="m9f11230618" d="M 0 0 
L 0 3.5 
" style="stroke: #000000; stroke-width: 0.8"/>
      </defs>
      <g>
       <use xlink:href="#m9f11230618" x="73.832727" y="307.584" style="stroke: #000000; stroke-width: 0.8"/>
      </g>
     </g>
     <g id="text_1">
      <!-- 0 -->
      <g transform="translate(70.651477 322.182437)scale(0.1 -0.1)">
       <defs>
        <path id="DejaVuSans-30" d="M 2034 4250 
Q 1547 4250 1301 3770 
Q 1056 3291 1056 2328 
Q 1056 1369 1301 889 
Q 1547 409 2034 409 
Q 2525 409 2770 889 
Q 3016 1369 3016 2328 
Q 3016 3291 2770 3770 
Q 2525 4250 2034 4250 
z
M 2034 4750 
Q 2819 4750 3233 4129 
Q 3647 3509 3647 2328 
Q 3647 1150 3233 529 
Q 2819 -91 2034 -91 
Q 1250 -91 836 529 
Q 422 1150 422 2328 
Q 422 3509 836 4129 
Q 1250 4750 2034 4750 
z
" transform="scale(0.015625)"/>
       </defs>
       <use xlink:href="#DejaVuSans-30"/>
      </g>
     </g>
    </g>
    <g id="xtick_2">
     <g id="line2d_2">
      <g>
       <use xlink:href="#m9f11230618" x="118.936165" y="307.584" style="stroke: #000000; stroke-width: 0.8"/>
      </g>
     </g>
     <g id="text_2">
      <!-- 500 -->
      <g transform="translate(109.392415 322.182437)scale(0.1 -0.1)">
       <defs>
        <path id="DejaVuSans-35" d="M 691 4666 
L 3169 4666 
L 3169 4134 
L 1269 4134 
L 1269 2991 
Q 1406 3038 1543 3061 
Q 1681 3084 1819 3084 
Q 2600 3084 3056 2656 
Q 3513 2228 3513 1497 
Q 3513 744 3044 326 
Q 2575 -91 1722 -91 
Q 1428 -91 1123 -41 
Q 819 9 494 109 
L 494 744 
Q 775 591 1075 516 
Q 1375 441 1709 441 
Q 2250 441 2565 725 
Q 2881 1009 2881 1497 
Q 2881 1984 2565 2268 
Q 2250 2553 1709 2553 
Q 1456 2553 1204 2497 
Q 953 2441 691 2322 
L 691 4666 
z
" transform="scale(0.015625)"/>
       </defs>
       <use xlink:href="#DejaVuSans-35"/>
       <use xlink:href="#DejaVuSans-30" x="63.623047"/>
       <use xlink:href="#DejaVuSans-30" x="127.246094"/>
      </g>
     </g>
    </g>
    <g id="xtick_3">
     <g id="line2d_3">
      <g>
       <use xlink:href="#m9f11230618" x="164.039603" y="307.584" style="stroke: #000000; stroke-width: 0.8"/>
      </g>
     </g>
     <g id="text_3">
      <!-- 1000 -->
      <g transform="translate(151.314603 322.182437)scale(0.1 -0.1)">
       <defs>
        <path id="DejaVuSans-31" d="M 794 531 
L 1825 531 
L 1825 4091 
L 703 3866 
L 703 4441 
L 1819 4666 
L 2450 4666 
L 2450 531 
L 3481 531 
L 3481 0 
L 794 0 
L 794 531 
z
" transform="scale(0.015625)"/>
       </defs>
       <use xlink:href="#DejaVuSans-31"/>
       <use xlink:href="#DejaVuSans-30" x="63.623047"/>
       <use xlink:href="#DejaVuSans-30" x="127.246094"/>
       <use xlink:href="#DejaVuSans-30" x="190.869141"/>
      </g>
     </g>
    </g>
    <g id="xtick_4">
     <g id="line2d_4">
      <g>
       <use xlink:href="#m9f11230618" x="209.143041" y="307.584" style="stroke: #000000; stroke-width: 0.8"/>
      </g>
     </g>
     <g id="text_4">
      <!-- 1500 -->
      <g transform="translate(196.418041 322.182437)scale(0.1 -0.1)">
       <use xlink:href="#DejaVuSans-31"/>
       <use xlink:href="#DejaVuSans-35" x="63.623047"/>
       <use xlink:href="#DejaVuSans-30" x="127.246094"/>
       <use xlink:href="#DejaVuSans-30" x="190.869141"/>
      </g>
     </g>
    </g>
    <g id="xtick_5">
     <g id="line2d_5">
      <g>
       <use xlink:href="#m9f11230618" x="254.246479" y="307.584" style="stroke: #000000; stroke-width: 0.8"/>
      </g>
     </g>
     <g id="text_5">
      <!-- 2000 -->
      <g transform="translate(241.521479 322.182437)scale(0.1 -0.1)">
       <defs>
        <path id="DejaVuSans-32" d="M 1228 531 
L 3431 531 
L 3431 0 
L 469 0 
L 469 531 
Q 828 903 1448 1529 
Q 2069 2156 2228 2338 
Q 2531 2678 2651 2914 
Q 2772 3150 2772 3378 
Q 2772 3750 2511 3984 
Q 2250 4219 1831 4219 
Q 1534 4219 1204 4116 
Q 875 4013 500 3803 
L 500 4441 
Q 881 4594 1212 4672 
Q 1544 4750 1819 4750 
Q 2544 4750 2975 4387 
Q 3406 4025 3406 3419 
Q 3406 3131 3298 2873 
Q 3191 2616 2906 2266 
Q 2828 2175 2409 1742 
Q 1991 1309 1228 531 
z
" transform="scale(0.015625)"/>
       </defs>
       <use xlink:href="#DejaVuSans-32"/>
       <use xlink:href="#DejaVuSans-30" x="63.623047"/>
       <use xlink:href="#DejaVuSans-30" x="127.246094"/>
       <use xlink:href="#DejaVuSans-30" x="190.869141"/>
      </g>
     </g>
    </g>
    <g id="xtick_6">
     <g id="line2d_6">
      <g>
       <use xlink:href="#m9f11230618" x="299.349916" y="307.584" style="stroke: #000000; stroke-width: 0.8"/>
      </g>
     </g>
     <g id="text_6">
      <!-- 2500 -->
      <g transform="translate(286.624916 322.182437)scale(0.1 -0.1)">
       <use xlink:href="#DejaVuSans-32"/>
       <use xlink:href="#DejaVuSans-35" x="63.623047"/>
       <use xlink:href="#DejaVuSans-30" x="127.246094"/>
       <use xlink:href="#DejaVuSans-30" x="190.869141"/>
      </g>
     </g>
    </g>
    <g id="xtick_7">
     <g id="line2d_7">
      <g>
       <use xlink:href="#m9f11230618" x="344.453354" y="307.584" style="stroke: #000000; stroke-width: 0.8"/>
      </g>
     </g>
     <g id="text_7">
      <!-- 3000 -->
      <g transform="translate(331.728354 322.182437)scale(0.1 -0.1)">
       <defs>
        <path id="DejaVuSans-33" d="M 2597 2516 
Q 3050 2419 3304 2112 
Q 3559 1806 3559 1356 
Q 3559 666 3084 287 
Q 2609 -91 1734 -91 
Q 1441 -91 1130 -33 
Q 819 25 488 141 
L 488 750 
Q 750 597 1062 519 
Q 1375 441 1716 441 
Q 2309 441 2620 675 
Q 2931 909 2931 1356 
Q 2931 1769 2642 2001 
Q 2353 2234 1838 2234 
L 1294 2234 
L 1294 2753 
L 1863 2753 
Q 2328 2753 2575 2939 
Q 2822 3125 2822 3475 
Q 2822 3834 2567 4026 
Q 2313 4219 1838 4219 
Q 1578 4219 1281 4162 
Q 984 4106 628 3988 
L 628 4550 
Q 988 4650 1302 4700 
Q 1616 4750 1894 4750 
Q 2613 4750 3031 4423 
Q 3450 4097 3450 3541 
Q 3450 3153 3228 2886 
Q 3006 2619 2597 2516 
z
" transform="scale(0.015625)"/>
       </defs>
       <use xlink:href="#DejaVuSans-33"/>
       <use xlink:href="#DejaVuSans-30" x="63.623047"/>
       <use xlink:href="#DejaVuSans-30" x="127.246094"/>
       <use xlink:href="#DejaVuSans-30" x="190.869141"/>
      </g>
     </g>
    </g>
    <g id="xtick_8">
     <g id="line2d_8">
      <g>
       <use xlink:href="#m9f11230618" x="389.556792" y="307.584" style="stroke: #000000; stroke-width: 0.8"/>
      </g>
     </g>
     <g id="text_8">
      <!-- 3500 -->
      <g transform="translate(376.831792 322.182437)scale(0.1 -0.1)">
       <use xlink:href="#DejaVuSans-33"/>
       <use xlink:href="#DejaVuSans-35" x="63.623047"/>
       <use xlink:href="#DejaVuSans-30" x="127.246094"/>
       <use xlink:href="#DejaVuSans-30" x="190.869141"/>
      </g>
     </g>
    </g>
   </g>
   <g id="matplotlib.axis_2">
    <g id="ytick_1">
     <g id="line2d_9">
      <defs>
       <path id="maa037a9c1f" d="M 0 0 
L -3.5 0 
" style="stroke: #000000; stroke-width: 0.8"/>
      </defs>
      <g>
       <use xlink:href="#maa037a9c1f" x="57.6" y="286.683248" style="stroke: #000000; stroke-width: 0.8"/>
      </g>
     </g>
     <g id="text_9">
      <!-- 3950 -->
      <g transform="translate(25.15 290.482467)scale(0.1 -0.1)">
       <defs>
        <path id="DejaVuSans-39" d="M 703 97 
L 703 672 
Q 941 559 1184 500 
Q 1428 441 1663 441 
Q 2288 441 2617 861 
Q 2947 1281 2994 2138 
Q 2813 1869 2534 1725 
Q 2256 1581 1919 1581 
Q 1219 1581 811 2004 
Q 403 2428 403 3163 
Q 403 3881 828 4315 
Q 1253 4750 1959 4750 
Q 2769 4750 3195 4129 
Q 3622 3509 3622 2328 
Q 3622 1225 3098 567 
Q 2575 -91 1691 -91 
Q 1453 -91 1209 -44 
Q 966 3 703 97 
z
M 1959 2075 
Q 2384 2075 2632 2365 
Q 2881 2656 2881 3163 
Q 2881 3666 2632 3958 
Q 2384 4250 1959 4250 
Q 1534 4250 1286 3958 
Q 1038 3666 1038 3163 
Q 1038 2656 1286 2365 
Q 1534 2075 1959 2075 
z
" transform="scale(0.015625)"/>
       </defs>
       <use xlink:href="#DejaVuSans-33"/>
       <use xlink:href="#DejaVuSans-39" x="63.623047"/>
       <use xlink:href="#DejaVuSans-35" x="127.246094"/>
       <use xlink:href="#DejaVuSans-30" x="190.869141"/>
      </g>
     </g>
    </g>
    <g id="ytick_2">
     <g id="line2d_10">
      <g>
       <use xlink:href="#maa037a9c1f" x="57.6" y="245.804256" style="stroke: #000000; stroke-width: 0.8"/>
      </g>
     </g>
     <g id="text_10">
      <!-- 4000 -->
      <g transform="translate(25.15 249.603474)scale(0.1 -0.1)">
       <defs>
        <path id="DejaVuSans-34" d="M 2419 4116 
L 825 1625 
L 2419 1625 
L 2419 4116 
z
M 2253 4666 
L 3047 4666 
L 3047 1625 
L 3713 1625 
L 3713 1100 
L 3047 1100 
L 3047 0 
L 2419 0 
L 2419 1100 
L 313 1100 
L 313 1709 
L 2253 4666 
z
" transform="scale(0.015625)"/>
       </defs>
       <use xlink:href="#DejaVuSans-34"/>
       <use xlink:href="#DejaVuSans-30" x="63.623047"/>
       <use xlink:href="#DejaVuSans-30" x="127.246094"/>
       <use xlink:href="#DejaVuSans-30" x="190.869141"/>
      </g>
     </g>
    </g>
    <g id="ytick_3">
     <g id="line2d_11">
      <g>
       <use xlink:href="#maa037a9c1f" x="57.6" y="204.925263" style="stroke: #000000; stroke-width: 0.8"/>
      </g>
     </g>
     <g id="text_11">
      <!-- 4050 -->
      <g transform="translate(25.15 208.724482)scale(0.1 -0.1)">
       <use xlink:href="#DejaVuSans-34"/>
       <use xlink:href="#DejaVuSans-30" x="63.623047"/>
       <use xlink:href="#DejaVuSans-35" x="127.246094"/>
       <use xlink:href="#DejaVuSans-30" x="190.869141"/>
      </g>
     </g>
    </g>
    <g id="ytick_4">
     <g id="line2d_12">
      <g>
       <use xlink:href="#maa037a9c1f" x="57.6" y="164.046271" style="stroke: #000000; stroke-width: 0.8"/>
      </g>
     </g>
     <g id="text_12">
      <!-- 4100 -->
      <g transform="translate(25.15 167.84549)scale(0.1 -0.1)">
       <use xlink:href="#DejaVuSans-34"/>
       <use xlink:href="#DejaVuSans-31" x="63.623047"/>
       <use xlink:href="#DejaVuSans-30" x="127.246094"/>
       <use xlink:href="#DejaVuSans-30" x="190.869141"/>
      </g>
     </g>
    </g>
    <g id="ytick_5">
     <g id="line2d_13">
      <g>
       <use xlink:href="#maa037a9c1f" x="57.6" y="123.167279" style="stroke: #000000; stroke-width: 0.8"/>
      </g>
     </g>
     <g id="text_13">
      <!-- 4150 -->
      <g transform="translate(25.15 126.966498)scale(0.1 -0.1)">
       <use xlink:href="#DejaVuSans-34"/>
       <use xlink:href="#DejaVuSans-31" x="63.623047"/>
       <use xlink:href="#DejaVuSans-35" x="127.246094"/>
       <use xlink:href="#DejaVuSans-30" x="190.869141"/>
      </g>
     </g>
    </g>
    <g id="ytick_6">
     <g id="line2d_14">
      <g>
       <use xlink:href="#maa037a9c1f" x="57.6" y="82.288287" style="stroke: #000000; stroke-width: 0.8"/>
      </g>
     </g>
     <g id="text_14">
      <!-- 4200 -->
      <g transform="translate(25.15 86.087505)scale(0.1 -0.1)">
       <use xlink:href="#DejaVuSans-34"/>
       <use xlink:href="#DejaVuSans-32" x="63.623047"/>
       <use xlink:href="#DejaVuSans-30" x="127.246094"/>
       <use xlink:href="#DejaVuSans-30" x="190.869141"/>
      </g>
     </g>
    </g>
   </g>
   <g id="line2d_15">
    <path d="M 73.832727 145.808013 
L 73.922934 143.81636 
L 74.103348 129.037246 
L 74.193555 130.399746 
L 74.373969 125.892678 
L 74.644589 133.229738 
L 74.734796 133.125145 
L 74.825003 135.011807 
L 74.91521 134.592239 
L 75.005417 130.714323 
L 75.18583 142.45386 
L 75.276037 137.841799 
L 75.366244 129.666 
L 75.456451 130.818916 
L 75.546658 135.535969 
L 75.636865 135.011807 
L 75.727072 130.399746 
L 75.907485 143.606775 
L 76.087899 136.793477 
L 76.268313 147.170513 
L 76.35852 140.776783 
L 76.448727 141.720114 
L 76.538934 144.025944 
L 76.719347 141.720114 
L 76.809554 144.445513 
L 76.899761 141.615122 
L 77.080175 131.133492 
L 77.170382 130.294754 
L 77.260589 132.495992 
L 77.441002 140.043037 
L 77.531209 134.173069 
L 77.711623 136.164723 
L 77.80183 131.343077 
L 77.892037 132.286408 
L 78.162657 141.929698 
L 78.343071 148.009251 
L 78.433278 147.589682 
L 78.523485 147.694674 
L 78.703899 142.244275 
L 78.884312 148.533412 
L 79.064726 146.017597 
L 79.154933 146.436767 
L 79.335347 143.187606 
L 79.425554 143.81636 
L 79.605967 141.090961 
L 79.786381 143.81636 
L 79.876588 143.711767 
L 80.057002 140.776783 
L 80.147209 144.655098 
L 80.327622 135.1164 
L 80.508036 146.751343 
L 80.598243 145.074267 
L 80.68845 144.130936 
L 80.778657 146.227182 
L 80.868864 145.808013 
L 81.049277 141.090961 
L 81.139484 143.187606 
L 81.410105 132.076823 
L 81.590519 137.003062 
L 81.680725 137.108054 
L 81.770932 138.051384 
L 81.861139 144.235529 
L 82.041553 130.609331 
L 82.13176 130.08517 
L 82.221967 134.382654 
L 82.312174 134.068476 
L 82.492587 121.490202 
L 82.673001 133.020154 
L 82.763208 130.923908 
L 82.943622 120.232295 
L 83.57507 134.068476 
L 83.755484 130.923908 
L 83.84569 131.971831 
L 83.935897 131.133492 
L 84.116311 119.708134 
L 84.206518 122.014364 
L 84.386932 134.173069 
L 84.477139 130.190162 
L 84.567345 130.294754 
L 84.657552 133.7539 
L 84.837966 130.294754 
L 84.928173 134.382654 
L 85.01838 129.037246 
L 85.108587 116.773549 
L 85.198794 120.022711 
L 85.379207 133.648908 
L 85.469414 129.980577 
L 85.559621 130.714323 
L 85.740035 128.198509 
L 85.920449 131.343077 
L 86.010655 129.875585 
L 86.100862 130.399746 
L 86.191069 128.093916 
L 86.371483 118.869795 
L 86.551897 133.229738 
L 86.73231 131.657654 
L 86.822517 133.858891 
L 86.912724 133.439323 
L 87.093138 135.430977 
L 87.273552 133.125145 
L 87.363759 132.705577 
L 87.544172 126.521432 
L 87.814793 132.810569 
L 87.995207 130.399746 
L 88.175621 141.929698 
L 88.356034 130.190162 
L 88.446241 133.963484 
L 88.626655 129.561008 
L 88.807069 134.592239 
L 88.987482 132.810569 
L 89.167896 135.850146 
L 89.34831 133.125145 
L 89.438517 134.278061 
L 89.618931 132.600984 
L 89.889551 142.663444 
L 89.979758 141.720114 
L 90.069965 128.198509 
L 90.160172 134.068476 
L 90.250379 133.7539 
L 90.430792 129.246831 
L 90.79162 136.164723 
L 90.881827 141.405537 
L 90.972034 140.776783 
L 91.242654 130.818916 
L 91.332861 131.971831 
L 91.423068 134.906815 
L 91.603482 122.643118 
L 91.783896 131.762246 
L 91.874102 129.875585 
L 92.054516 135.1164 
L 92.23493 128.198509 
L 92.415344 133.33473 
L 92.505551 132.705577 
L 92.595757 131.238085 
L 92.956585 135.011807 
L 93.136999 141.720114 
L 93.317412 131.343077 
L 93.67824 145.074267 
L 93.768447 143.606775 
L 93.858654 144.75969 
L 93.948861 147.589682 
L 94.219481 131.343077 
L 94.309688 132.810569 
L 94.399895 133.020154 
L 94.490102 131.867238 
L 94.760722 143.292198 
L 94.941136 134.382654 
L 95.031343 134.487646 
L 95.12155 131.971831 
L 95.301964 135.011807 
L 95.482377 129.561008 
L 95.572584 133.125145 
L 95.662791 131.657654 
L 95.752998 127.36017 
L 95.933412 133.229738 
L 96.023619 132.705577 
L 96.113826 131.762246 
L 96.294239 134.487646 
L 96.384446 132.181815 
L 96.56486 136.164723 
L 96.745274 127.045593 
L 96.835481 127.674347 
L 97.015894 135.640561 
L 97.286515 129.666 
L 97.376722 130.08517 
L 97.466929 131.133492 
L 97.557136 129.037246 
L 97.647342 130.08517 
L 97.827756 137.841799 
L 98.00817 130.609331 
L 98.098377 131.657654 
L 98.459204 144.550106 
L 98.549411 143.711767 
L 98.639618 140.671791 
L 98.820032 131.133492 
L 98.910239 138.051384 
L 99.000446 137.632215 
L 99.090652 132.810569 
L 99.271066 141.090961 
L 99.361273 134.697231 
L 99.45148 135.011807 
L 99.541687 142.348868 
L 99.631894 140.043037 
L 99.812307 131.238085 
L 99.902514 134.697231 
L 99.992721 133.963484 
L 100.173135 128.303501 
L 100.353549 145.703021 
L 100.804583 130.609331 
L 100.89479 131.133492 
L 101.075204 142.873029 
L 101.255617 132.495992 
L 101.436031 142.348868 
L 101.616445 139.204299 
L 101.887066 143.187606 
L 102.157686 133.020154 
L 102.247893 134.802222 
L 102.3381 133.544315 
L 102.428307 135.850146 
L 102.608721 143.292198 
L 102.789134 147.275505 
L 102.969548 141.300944 
L 103.059755 142.139283 
L 103.240169 140.567199 
L 103.420582 143.39719 
L 103.691203 133.020154 
L 103.78141 134.382654 
L 104.052031 141.510529 
L 104.232444 145.598428 
L 104.412858 140.881376 
L 104.593272 148.009251 
L 104.863892 130.294754 
L 105.044306 133.544315 
L 105.134513 133.963484 
L 105.22472 133.125145 
L 105.405134 130.609331 
L 105.495341 130.294754 
L 105.585548 131.343077 
L 105.856168 143.81636 
L 106.036582 145.493436 
L 106.126789 143.81636 
L 106.216996 146.332174 
L 106.307203 131.867238 
L 106.397409 137.632215 
L 106.577823 134.382654 
L 106.66803 135.640561 
L 106.758237 135.325985 
L 106.938651 132.076823 
L 107.209271 145.703021 
L 107.299478 145.912605 
L 107.389685 148.533412 
L 107.479892 148.323428 
L 107.930926 132.076823 
L 108.11134 133.963484 
L 108.201547 131.867238 
L 108.381961 143.501783 
L 108.562374 131.867238 
L 108.652581 132.3914 
L 108.742788 133.544315 
L 108.832995 133.439323 
L 108.923202 132.810569 
L 109.013409 130.609331 
L 109.103616 131.238085 
L 109.193823 133.33473 
L 109.284029 131.133492 
L 109.374236 131.762246 
L 109.55465 140.357614 
L 109.644857 138.051384 
L 109.825271 145.388843 
L 109.915478 144.969275 
L 110.095891 140.462207 
L 110.186098 142.03469 
L 110.276305 141.090961 
L 110.366512 138.890122 
L 110.727339 145.703021 
L 110.99796 138.994715 
L 111.178374 129.666 
L 111.268581 131.343077 
L 111.358788 131.238085 
L 111.539201 134.173069 
L 111.629408 133.439323 
L 111.900029 145.493436 
L 111.990236 144.655098 
L 112.170649 146.436767 
L 112.351063 144.655098 
L 112.982511 130.818916 
L 113.162925 134.278061 
L 113.433546 122.538525 
L 113.523753 123.69144 
L 113.704166 121.699787 
L 113.88458 120.861448 
L 114.064994 133.33473 
L 114.155201 129.456416 
L 114.245408 130.08517 
L 114.425821 134.068476 
L 114.696442 118.660211 
L 114.786649 120.127703 
L 114.876856 118.240642 
L 114.967063 119.288965 
L 115.147476 122.433533 
L 115.237683 123.062287 
L 115.418097 120.651465 
L 115.508304 116.668557 
L 115.598511 116.773549 
L 115.778924 136.793477 
L 115.959338 125.997271 
L 116.139752 132.810569 
L 116.320166 123.796033 
L 116.500579 132.915162 
L 116.680993 118.240642 
L 116.861407 135.955138 
L 116.951614 131.133492 
L 117.041821 131.762246 
L 117.132028 133.229738 
L 117.222234 132.286408 
L 117.402648 138.890122 
L 117.492855 134.382654 
L 117.763476 113.733573 
L 117.943889 125.683093 
L 118.034096 124.634771 
L 118.21451 119.708134 
L 118.304717 120.756457 
L 118.485131 127.988924 
L 118.665544 115.725226 
L 119.116579 132.076823 
L 119.296993 128.198509 
L 119.477406 132.076823 
L 119.567613 131.657654 
L 119.65782 131.971831 
L 119.838234 134.592239 
L 120.108854 120.44188 
L 120.199061 122.223948 
L 120.379475 130.609331 
L 120.559889 122.118956 
L 120.740303 139.833453 
L 120.920716 133.33473 
L 121.010923 134.382654 
L 121.191337 129.456416 
L 121.281544 130.399746 
L 121.371751 132.600984 
L 121.461958 132.286408 
L 121.552164 129.875585 
L 121.822785 133.648908 
L 121.912992 134.697231 
L 122.003199 131.762246 
L 122.093406 134.382654 
L 122.364026 188.154298 
L 122.454233 196.330096 
L 122.634647 147.485089 
L 122.815061 154.402981 
L 123.175888 131.762246 
L 123.266095 135.325985 
L 123.356302 135.221392 
L 123.446509 132.181815 
L 123.71713 143.921352 
L 123.807336 140.567199 
L 124.168164 147.170513 
L 124.438785 145.808013 
L 124.709405 132.495992 
L 124.889819 140.14763 
L 124.980026 144.340521 
L 125.16044 142.244275 
L 125.340853 146.122589 
L 125.43106 145.598428 
L 125.521267 147.170513 
L 125.701681 140.567199 
L 125.882095 146.751343 
L 126.062508 143.501783 
L 126.152715 147.380097 
L 126.242922 146.960928 
L 126.333129 144.550106 
L 126.513543 147.799666 
L 126.693956 144.75969 
L 126.784163 144.235529 
L 126.964577 131.448069 
L 127.144991 143.711767 
L 127.325405 133.020154 
L 127.505818 146.017597 
L 127.596025 143.711767 
L 127.776439 144.75969 
L 127.866646 144.130936 
L 128.137266 132.810569 
L 128.227473 135.1164 
L 128.498094 145.598428 
L 128.588301 145.493436 
L 128.678508 149.581335 
L 128.768715 148.742997 
L 129.039335 131.343077 
L 129.219749 133.7539 
L 129.309956 132.286408 
L 129.400163 132.495992 
L 129.580576 134.592239 
L 129.670783 134.802222 
L 129.76099 134.068476 
L 129.941404 127.988924 
L 130.031611 126.731017 
L 130.212025 121.175626 
L 130.392438 131.657654 
L 130.482645 132.495992 
L 130.572852 135.011807 
L 130.663059 128.513085 
L 130.753266 134.592239 
L 130.93368 131.552662 
L 131.114093 135.221392 
L 131.294507 147.275505 
L 131.474921 145.493436 
L 131.655335 147.485089 
L 131.835748 140.043037 
L 131.925955 140.252622 
L 132.016162 144.340521 
L 132.106369 143.711767 
L 132.196576 144.340521 
L 132.286783 148.42842 
L 132.37699 146.960928 
L 132.467196 148.218835 
L 132.64761 160.901703 
L 132.828024 146.960928 
L 133.008438 161.320872 
L 133.188851 156.080058 
L 133.279058 157.337965 
L 133.549679 144.75969 
L 133.730093 158.805457 
L 133.910506 146.855936 
L 134.181127 158.700465 
L 134.541955 151.572988 
L 134.902782 132.3914 
L 134.992989 132.600984 
L 135.26361 148.113843 
L 135.444023 144.340521 
L 135.53423 145.703021 
L 135.714644 141.929698 
L 135.804851 143.39719 
L 135.895058 146.227182 
L 136.075471 140.881376 
L 136.255885 149.162166 
L 136.436299 145.283852 
L 136.526506 145.283852 
L 136.616713 146.332174 
L 136.797126 150.629658 
L 136.97754 144.655098 
L 137.157954 150.000504 
L 137.338368 134.487646 
L 137.428575 138.575545 
L 137.608988 148.42842 
L 137.879609 131.238085 
L 138.060023 135.011807 
L 138.330643 147.904259 
L 138.42085 147.170513 
L 138.601264 138.994715 
L 138.691471 141.720114 
L 138.781678 140.986368 
L 138.962091 146.227182 
L 139.052298 145.17886 
L 139.232712 143.81636 
L 139.413126 131.0285 
L 139.59354 133.648908 
L 139.683746 130.504339 
L 139.86416 136.269715 
L 140.044574 131.867238 
L 140.134781 132.3914 
L 140.224988 132.286408 
L 140.405402 131.133492 
L 140.585815 133.858891 
L 140.766229 128.72267 
L 140.946643 136.059731 
L 141.127057 131.448069 
L 141.217263 133.020154 
L 141.397677 123.901025 
L 141.487884 125.578101 
L 141.668298 132.810569 
L 141.758505 128.303501 
L 141.848712 129.037246 
L 142.029125 133.125145 
L 142.119332 133.33473 
L 142.209539 133.858891 
L 142.389953 131.343077 
L 142.48016 131.867238 
L 142.660573 127.255178 
L 143.021401 132.286408 
L 143.201815 134.173069 
L 143.382228 140.462207 
L 143.562642 131.133492 
L 143.743056 135.640561 
L 143.92347 134.592239 
L 144.103883 136.688884 
L 144.284297 131.448069 
L 144.374504 131.762246 
L 144.554918 135.325985 
L 144.735332 130.923908 
L 144.915745 135.325985 
L 145.096159 129.037246 
L 145.186366 132.705577 
L 145.276573 130.818916 
L 145.456987 119.288965 
L 145.547193 121.071033 
L 145.727607 128.72267 
L 145.908021 119.393957 
L 145.998228 123.272271 
L 146.088435 122.957694 
L 146.178642 124.529779 
L 146.359055 131.971831 
L 146.539469 134.278061 
L 146.719883 128.198509 
L 146.990503 135.850146 
L 147.170917 132.915162 
L 147.351331 135.1164 
L 147.531745 129.980577 
L 147.802365 137.213045 
L 148.2534 147.799666 
L 148.614227 132.181815 
L 148.794641 128.513085 
L 148.975055 135.640561 
L 149.155468 131.762246 
L 149.245675 132.915162 
L 149.426089 129.561008 
L 149.516296 131.238085 
L 149.69671 129.770992 
L 149.786917 132.286408 
L 149.96733 128.617678 
L 150.147744 135.325985 
L 150.237951 135.325985 
L 150.328158 138.260969 
L 150.508572 132.705577 
L 150.598778 133.544315 
L 150.688985 132.810569 
L 150.779192 130.818916 
L 151.049813 134.068476 
L 151.230227 146.332174 
L 151.320433 142.663444 
L 151.41064 132.286408 
L 151.500847 133.125145 
L 151.591054 135.221392 
L 151.771468 125.997271 
L 151.861675 132.286408 
L 152.042088 121.595194 
L 152.222502 131.657654 
L 152.312709 126.41644 
L 152.402916 128.093916 
L 152.58333 132.705577 
L 152.673537 131.552662 
L 152.763743 132.915162 
L 152.944157 142.873029 
L 153.124571 132.181815 
L 153.214778 134.173069 
L 153.304985 132.600984 
L 153.575605 120.44188 
L 153.665812 120.651465 
L 153.846226 134.068476 
L 154.116847 121.595194 
L 154.207053 121.071033 
L 154.477674 118.555219 
L 154.748295 121.699787 
L 155.018915 134.487646 
L 155.109122 133.858891 
L 155.379743 118.345634 
L 155.46995 120.651465 
L 155.650363 116.773549 
L 155.920984 130.190162 
L 156.011191 130.294754 
L 156.101398 129.980577 
L 156.372018 135.535969 
L 156.642639 118.450626 
L 156.823053 122.118956 
L 156.91326 121.38521 
L 157.093673 134.173069 
L 157.18388 131.762246 
L 157.274087 131.657654 
L 157.454501 139.938045 
L 157.544708 132.600984 
L 157.634915 132.915162 
L 157.725122 134.697231 
L 157.905535 130.714323 
L 157.995742 133.7539 
L 158.266363 129.770992 
L 158.35657 130.190162 
L 158.536984 134.278061 
L 158.807604 131.343077 
L 158.988018 120.861448 
L 159.168432 133.229738 
L 159.258639 125.158932 
L 159.439052 137.213045 
L 159.529259 135.011807 
L 159.619466 134.278061 
L 159.709673 139.099707 
L 159.79988 138.365961 
L 159.980294 132.705577 
L 160.0705 132.600984 
L 160.160707 130.609331 
L 160.341121 135.745553 
L 160.431328 133.858891 
L 160.611742 136.374308 
L 160.792155 131.657654 
L 160.882362 132.495992 
L 160.972569 132.286408 
L 161.152983 131.133492 
L 161.24319 132.3914 
L 161.423604 136.793477 
L 161.51381 134.592239 
L 161.604017 135.850146 
L 161.784431 146.855936 
L 161.874638 146.017597 
L 161.964845 146.751343 
L 162.055052 146.646351 
L 162.235465 130.923908 
L 162.325672 131.448069 
L 162.415879 132.181815 
L 162.596293 127.779339 
L 163.047327 152.935489 
L 163.227741 138.890122 
L 163.317948 139.413884 
L 163.408155 138.680138 
L 163.588569 131.552662 
L 163.678775 131.448069 
L 163.768982 129.666 
L 163.949396 131.448069 
L 164.039603 130.609331 
L 164.12981 130.714323 
L 164.40043 136.479299 
L 164.580844 150.524666 
L 164.761258 145.388843 
L 164.851465 146.227182 
L 165.031879 144.130936 
L 165.392706 132.286408 
L 165.57312 135.325985 
L 165.663327 134.592239 
L 165.753534 133.963484 
L 165.84374 134.173069 
L 165.933947 131.762246 
L 166.024154 133.125145 
L 166.114361 138.260969 
L 166.204568 135.850146 
L 166.294775 128.513085 
L 166.384982 130.609331 
L 166.565395 142.978021 
L 166.655602 142.558452 
L 166.745809 143.39719 
L 166.926223 132.705577 
L 167.106637 138.260969 
L 167.28705 133.439323 
L 167.377257 133.648908 
L 167.557671 129.037246 
L 167.647878 133.439323 
L 167.738085 132.810569 
L 167.828292 132.495992 
L 167.918499 134.697231 
L 168.008705 133.648908 
L 168.098912 135.535969 
L 168.189119 142.978021 
L 168.279326 142.558452 
L 168.369533 137.632215 
L 168.45974 142.03469 
L 168.549947 141.720114 
L 168.640154 133.229738 
L 168.73036 135.640561 
L 168.910774 145.17886 
L 169.000981 144.445513 
L 169.271602 147.799666 
L 169.361809 148.323428 
L 169.452015 143.81636 
L 169.542222 144.340521 
L 169.632429 145.17886 
L 169.812843 133.858891 
L 169.993257 145.283852 
L 170.083464 144.550106 
L 170.17367 142.348868 
L 170.263877 142.978021 
L 170.354084 144.655098 
L 170.444291 144.130936 
L 170.534498 142.45386 
L 170.714912 145.17886 
L 170.805119 144.75969 
L 170.895325 141.929698 
L 170.985532 142.244275 
L 171.075739 144.864682 
L 171.165946 140.671791 
L 171.256153 127.674347 
L 171.34636 130.08517 
L 171.526774 133.7539 
L 171.61698 134.697231 
L 171.707187 131.762246 
L 171.797394 132.495992 
L 171.977808 147.380097 
L 172.068015 145.912605 
L 172.158222 146.332174 
L 172.248429 148.42842 
L 172.428842 140.357614 
L 172.609256 147.485089 
L 172.78967 133.33473 
L 172.970084 144.340521 
L 173.06029 143.187606 
L 173.240704 146.541759 
L 173.330911 145.17886 
L 173.421118 145.493436 
L 173.511325 145.388843 
L 173.601532 144.445513 
L 173.691739 145.388843 
L 173.781945 145.17886 
L 173.962359 142.45386 
L 174.323187 146.227182 
L 174.593807 129.456416 
L 174.774221 144.340521 
L 174.864428 143.921352 
L 175.044842 154.298388 
L 175.135049 153.040481 
L 175.315462 133.020154 
L 175.405669 132.3914 
L 175.495876 133.544315 
L 175.586083 132.495992 
L 175.67629 133.020154 
L 175.856704 143.606775 
L 175.946911 139.623868 
L 176.037117 139.833453 
L 176.127324 146.122589 
L 176.217531 142.348868 
L 176.307738 129.875585 
L 176.488152 146.332174 
L 176.668566 132.600984 
L 176.758772 144.025944 
L 176.848979 140.986368 
L 176.939186 129.875585 
L 177.1196 145.912605 
L 177.209807 143.082614 
L 177.300014 143.39719 
L 177.390221 146.646351 
L 177.480427 145.283852 
L 177.570634 141.720114 
L 177.660841 143.39719 
L 177.751048 147.694674 
L 177.931462 130.399746 
L 178.111876 148.42842 
L 178.292289 130.504339 
L 178.382496 133.125145 
L 178.472703 133.544315 
L 178.56291 131.657654 
L 178.653117 134.173069 
L 178.743324 133.229738 
L 178.833531 134.697231 
L 179.013944 147.694674 
L 179.374772 129.351424 
L 179.464979 135.850146 
L 179.555186 135.325985 
L 179.645392 133.125145 
L 179.735599 134.487646 
L 179.825806 133.7539 
L 180.00622 120.966041 
L 180.186634 133.858891 
L 180.276841 127.255178 
L 180.367047 128.093916 
L 180.457254 131.552662 
L 180.547461 131.238085 
L 180.637668 130.923908 
L 180.727875 131.552662 
L 180.818082 133.544315 
L 180.998496 119.603541 
L 181.088702 121.175626 
L 181.178909 124.215602 
L 181.269116 117.402303 
L 181.359323 119.393957 
L 181.539737 136.898469 
L 181.629944 132.3914 
L 181.720151 133.229738 
L 181.810357 133.858891 
L 181.990771 118.345634 
L 182.171185 122.643118 
L 182.351599 120.232295 
L 182.712426 122.433533 
L 182.89284 131.971831 
L 182.983047 131.867238 
L 183.073254 130.714323 
L 183.343874 133.858891 
L 183.524288 133.229738 
L 183.885116 139.623868 
L 183.975322 143.606775 
L 184.155736 131.971831 
L 184.245943 134.592239 
L 184.33615 136.164723 
L 184.426357 134.802222 
L 184.606771 145.074267 
L 184.787184 142.139283 
L 184.967598 134.068476 
L 185.148012 140.252622 
L 185.238219 136.793477 
L 185.328426 137.527223 
L 185.418632 137.527223 
L 185.599046 129.666 
L 185.77946 140.671791 
L 186.140287 122.223948 
L 186.230494 128.72267 
L 186.320701 128.408093 
L 186.410908 119.813126 
L 186.501115 121.175626 
L 186.591322 123.481856 
L 186.681529 117.71688 
L 186.771736 121.595194 
L 186.952149 132.600984 
L 187.042356 134.278061 
L 187.22277 145.912605 
L 187.312977 141.300944 
L 187.583597 147.275505 
L 187.764011 139.833453 
L 187.854218 140.776783 
L 187.944425 143.81636 
L 188.034632 143.39719 
L 188.124839 140.986368 
L 188.575873 159.329618 
L 188.66608 159.119634 
L 188.846494 152.306735 
L 188.936701 155.136727 
L 189.026907 153.145074 
L 189.207321 144.864682 
L 189.387735 143.39719 
L 189.568149 159.329618 
L 189.748562 145.388843 
L 189.838769 145.598428 
L 189.928976 143.921352 
L 190.019183 144.130936 
L 190.10939 146.227182 
L 190.289804 144.864682 
L 190.380011 145.493436 
L 190.470217 143.921352 
L 190.560424 144.340521 
L 190.650631 145.912605 
L 190.831045 142.978021 
L 191.011459 147.380097 
L 191.101666 145.074267 
L 191.282079 131.0285 
L 191.462493 140.567199 
L 191.642907 131.552662 
L 191.733114 135.640561 
L 191.913527 148.323428 
L 192.003734 143.501783 
L 192.093941 143.81636 
L 192.184148 146.436767 
L 192.364562 132.3914 
L 192.544976 139.099707 
L 192.725389 133.020154 
L 192.905803 145.283852 
L 193.086217 143.187606 
L 193.356838 145.703021 
L 193.537251 143.81636 
L 193.898079 146.436767 
L 193.988286 143.39719 
L 194.168699 132.3914 
L 194.43932 146.436767 
L 194.529527 144.550106 
L 194.800148 131.133492 
L 194.890354 130.818916 
L 195.070768 129.246831 
L 195.251182 133.544315 
L 195.431596 128.932255 
L 195.521803 129.351424 
L 195.88263 113.838565 
L 196.063044 117.402303 
L 196.153251 114.152742 
L 196.333664 120.546872 
L 196.423871 119.498549 
L 196.514078 118.555219 
L 196.604285 119.918118 
L 196.784699 118.764803 
L 196.965113 122.957694 
L 197.145526 115.725226 
L 197.416147 120.966041 
L 197.506354 119.393957 
L 197.686768 126.940601 
L 197.867181 120.651465 
L 198.047595 134.802222 
L 198.228009 127.988924 
L 198.318216 131.971831 
L 198.498629 130.190162 
L 198.588836 132.076823 
L 198.859457 118.345634 
L 199.039871 121.909372 
L 199.220284 127.045593 
L 199.310491 126.206855 
L 199.490905 119.918118 
L 199.671319 125.683093 
L 199.851733 118.974388 
L 200.032146 131.0285 
L 200.122353 130.190162 
L 200.21256 128.093916 
L 200.392974 134.382654 
L 200.483181 129.666 
L 200.573388 130.504339 
L 200.663594 133.33473 
L 200.844008 129.875585 
L 200.934215 129.561008 
L 201.024422 127.883932 
L 201.295043 131.448069 
L 201.385249 131.238085 
L 201.565663 129.980577 
L 201.65587 130.399746 
L 201.836284 128.513085 
L 202.016698 131.448069 
L 202.106904 130.609331 
L 202.287318 131.133492 
L 202.377525 131.0285 
L 202.467732 130.714323 
L 202.648146 131.552662 
L 202.738353 129.456416 
L 202.828559 129.666 
L 202.918766 132.181815 
L 203.09918 127.464763 
L 203.369801 132.076823 
L 203.550214 122.014364 
L 203.640421 125.787686 
L 203.730628 142.558452 
L 203.820835 141.510529 
L 203.911042 142.03469 
L 204.001249 145.598428 
L 204.091456 142.348868 
L 204.271869 132.286408 
L 204.452283 133.648908 
L 204.54249 133.229738 
L 204.632697 133.648908 
L 204.722904 131.867238 
L 205.083731 136.374308 
L 205.264145 142.768037 
L 205.444559 141.405537 
L 205.534766 143.606775 
L 205.624973 143.187606 
L 205.805386 130.714323 
L 205.9858 135.221392 
L 206.076007 134.173069 
L 206.166214 134.802222 
L 206.346628 133.858891 
L 206.436834 133.7539 
L 206.527041 133.963484 
L 206.617248 135.1164 
L 206.707455 134.697231 
L 206.887869 130.399746 
L 206.978076 131.552662 
L 207.068283 135.221392 
L 207.248696 131.762246 
L 207.42911 142.03469 
L 207.519317 134.278061 
L 207.609524 136.269715 
L 207.699731 143.292198 
L 207.789938 141.929698 
L 208.060558 132.600984 
L 208.150765 131.867238 
L 208.331179 135.1164 
L 208.421386 133.229738 
L 208.511593 134.173069 
L 208.692006 140.252622 
L 208.782213 140.567199 
L 209.052834 143.292198 
L 209.323454 132.181815 
L 209.594075 143.082614 
L 209.684282 140.881376 
L 209.774489 141.300944 
L 209.864696 146.541759 
L 209.954903 146.227182 
L 210.135316 142.768037 
L 210.225523 142.348868 
L 210.31573 140.567199 
L 210.405937 140.671791 
L 210.676558 142.348868 
L 210.766765 141.720114 
L 210.947178 144.969275 
L 211.037385 142.558452 
L 211.127592 143.187606 
L 211.217799 141.510529 
L 211.308006 137.317638 
L 211.668833 144.655098 
L 211.75904 143.711767 
L 211.849247 131.133492 
L 211.939454 132.3914 
L 212.210075 133.7539 
L 212.300281 134.068476 
L 212.480695 135.745553 
L 212.570902 135.850146 
L 212.751316 136.793477 
L 213.021936 132.181815 
L 213.112143 132.3914 
L 213.20235 134.697231 
L 213.292557 134.592239 
L 213.382764 134.382654 
L 213.472971 136.898469 
L 213.653385 132.915162 
L 213.833798 144.130936 
L 214.014212 132.705577 
L 214.104419 132.810569 
L 214.37504 142.558452 
L 214.465246 142.558452 
L 214.64566 143.187606 
L 214.916281 148.323428 
L 215.186901 138.890122 
L 215.367315 144.655098 
L 215.457522 144.340521 
L 215.637936 148.533412 
L 215.728143 148.952581 
L 215.81835 148.009251 
L 216.08897 139.938045 
L 216.179177 139.413884 
L 216.540005 145.493436 
L 216.720418 144.025944 
L 216.810625 144.75969 
L 216.900832 143.187606 
L 216.991039 143.921352 
L 217.081246 146.017597 
L 217.26166 140.357614 
L 217.351866 145.074267 
L 217.442073 142.03469 
L 217.53228 132.076823 
L 217.622487 134.278061 
L 217.802901 143.921352 
L 217.893108 142.978021 
L 218.073521 147.170513 
L 218.163728 144.445513 
L 218.253935 144.655098 
L 218.344142 146.646351 
L 218.524556 138.470553 
L 218.614763 140.14763 
L 218.795176 146.436767 
L 218.97559 137.108054 
L 219.065797 137.213045 
L 219.156004 136.898469 
L 219.246211 137.317638 
L 219.607038 145.808013 
L 219.787452 138.680138 
L 220.058073 145.912605 
L 220.14828 146.436767 
L 220.328693 144.969275 
L 220.4189 144.969275 
L 220.599314 142.558452 
L 220.689521 145.074267 
L 220.869935 139.728461 
L 221.050348 146.436767 
L 221.230762 142.558452 
L 221.411176 145.493436 
L 221.59159 134.906815 
L 221.772003 141.195953 
L 221.952417 131.133492 
L 222.132831 142.768037 
L 222.223038 141.720114 
L 222.313245 141.929698 
L 222.403451 144.445513 
L 222.583865 133.125145 
L 222.764279 146.122589 
L 223.0349 132.915162 
L 223.125106 134.382654 
L 223.395727 143.187606 
L 223.485934 142.244275 
L 223.666348 144.550106 
L 223.846761 140.986368 
L 224.117382 132.495992 
L 224.388003 145.912605 
L 224.47821 144.235529 
L 224.568416 145.074267 
L 224.658623 144.969275 
L 224.74883 141.615122 
L 224.839037 142.45386 
L 225.019451 145.703021 
L 225.109658 144.235529 
L 225.199865 144.445513 
L 225.290071 145.912605 
L 225.470485 141.300944 
L 225.560692 141.929698 
L 225.741106 144.340521 
L 225.831313 142.873029 
L 225.92152 143.606775 
L 226.011726 145.493436 
L 226.19214 135.850146 
L 226.372554 146.751343 
L 226.643175 131.238085 
L 226.823588 136.164723 
L 227.004002 132.705577 
L 227.184416 133.858891 
L 227.274623 131.867238 
L 227.36483 132.076823 
L 227.63545 144.445513 
L 227.725657 144.340521 
L 227.815864 144.864682 
L 227.906071 143.606775 
L 227.996278 144.235529 
L 228.086485 129.875585 
L 228.176692 135.011807 
L 228.357105 132.286408 
L 228.447312 133.7539 
L 228.537519 132.915162 
L 228.627726 133.125145 
L 228.80814 134.906815 
L 228.988553 133.439323 
L 229.259174 141.615122 
L 229.349381 140.357614 
L 229.529795 143.606775 
L 229.800415 132.181815 
L 229.890622 132.810569 
L 229.980829 132.495992 
L 230.161243 138.365961 
L 230.431863 133.020154 
L 230.612277 136.059731 
L 230.792691 134.173069 
L 230.973105 135.745553 
L 231.153518 131.867238 
L 231.243725 135.1164 
L 231.333932 134.802222 
L 231.424139 135.011807 
L 231.604553 140.252622 
L 231.784967 134.592239 
L 231.875173 134.592239 
L 231.96538 132.600984 
L 232.145794 134.487646 
L 232.236001 132.286408 
L 232.326208 132.810569 
L 232.506622 138.890122 
L 232.596828 133.963484 
L 232.687035 134.382654 
L 232.777242 135.640561 
L 232.957656 131.552662 
L 233.047863 134.382654 
L 233.228277 131.0285 
L 233.318483 131.657654 
L 233.40869 131.448069 
L 233.498897 132.076823 
L 233.859725 142.244275 
L 233.949932 142.244275 
L 234.220552 141.615122 
L 234.400966 142.663444 
L 234.671587 131.971831 
L 234.761793 132.495992 
L 234.852 132.286408 
L 235.032414 138.156376 
L 235.303035 132.705577 
L 235.393242 131.762246 
L 235.483448 132.181815 
L 235.573655 131.552662 
L 235.663862 128.827263 
L 235.844276 132.286408 
L 236.02469 129.246831 
L 236.205103 133.858891 
L 236.29531 133.125145 
L 236.475724 118.974388 
L 236.926758 144.445513 
L 237.016965 144.340521 
L 237.107172 144.655098 
L 237.377793 129.351424 
L 237.468 132.705577 
L 237.558207 134.382654 
L 237.73862 120.127703 
L 238.009241 130.609331 
L 238.099448 130.399746 
L 238.370068 146.017597 
L 238.460275 145.808013 
L 238.640689 160.377541 
L 238.821103 141.300944 
L 238.91131 143.187606 
L 239.091723 131.552662 
L 239.272137 139.204299 
L 239.542758 127.150186 
L 239.723172 135.850146 
L 239.813378 135.430977 
L 239.903585 132.495992 
L 240.174206 116.039803 
L 240.715447 147.485089 
L 241.076275 131.0285 
L 241.437102 146.332174 
L 241.617516 150.315081 
L 241.888137 141.405537 
L 241.978343 141.615122 
L 242.06855 144.445513 
L 242.158757 142.348868 
L 242.248964 137.003062 
L 242.339171 137.736807 
L 242.609792 147.170513 
L 242.699998 148.323428 
L 243.060826 144.550106 
L 243.151033 144.025944 
L 243.24124 145.598428 
L 243.331447 145.17886 
L 243.51186 137.108054 
L 243.782481 146.227182 
L 243.872688 145.808013 
L 244.233515 158.281295 
L 244.323722 150.315081 
L 244.413929 150.943835 
L 244.594343 169.706455 
L 244.68455 164.151263 
L 244.864963 137.213045 
L 245.045377 132.181815 
L 245.225791 139.413884 
L 245.315998 131.867238 
L 245.406205 135.430977 
L 245.676825 160.901703 
L 245.947446 145.17886 
L 246.037653 146.332174 
L 246.12786 145.703021 
L 246.218067 146.332174 
L 246.39848 142.03469 
L 246.578894 156.289642 
L 246.759308 149.371751 
L 246.939722 144.340521 
L 247.029929 143.292198 
L 247.120135 140.14763 
L 247.210342 140.567199 
L 247.300549 140.776783 
L 247.480963 133.33473 
L 247.661377 150.420073 
L 247.84179 140.776783 
L 247.931997 147.694674 
L 248.022204 147.485089 
L 248.112411 143.921352 
L 248.383032 158.700465 
L 248.473239 159.329618 
L 248.563445 157.966719 
L 248.743859 142.768037 
L 248.924273 146.436767 
L 249.01448 143.187606 
L 249.194894 144.969275 
L 249.2851 142.663444 
L 249.465514 157.232973 
L 249.555721 156.394634 
L 249.645928 155.870473 
L 249.826342 146.646351 
L 249.916549 148.533412 
L 250.006755 153.774227 
L 250.096962 152.830896 
L 250.187169 152.411328 
L 250.367583 156.709211 
L 250.45779 161.74044 
L 250.547997 158.071711 
L 250.72841 144.550106 
L 250.818617 144.235529 
L 250.999031 138.156376 
L 251.269652 145.283852 
L 251.359859 143.921352 
L 251.540272 150.629658 
L 251.720686 139.728461 
L 251.9011 146.855936 
L 251.991307 143.292198 
L 252.081514 143.711767 
L 252.261927 158.805457 
L 252.352134 156.813804 
L 252.442341 123.796033 
L 252.532548 129.770992 
L 252.803169 112.999827 
L 252.893375 114.781895 
L 253.254203 143.606775 
L 253.795444 134.592239 
L 253.885651 131.448069 
L 253.975858 131.657654 
L 254.156272 137.841799 
L 254.426892 162.054618 
L 254.697513 144.75969 
L 254.78772 146.436767 
L 254.877927 146.332174 
L 254.968134 145.703021 
L 255.05834 147.380097 
L 255.509375 170.230616 
L 255.870202 144.025944 
L 256.050616 144.75969 
L 256.140823 148.323428 
L 256.321237 160.482533 
L 256.50165 146.960928 
L 256.591857 147.694674 
L 256.682064 145.17886 
L 256.772271 137.108054 
L 256.862478 138.156376 
L 257.042892 154.927142 
L 257.223305 141.300944 
L 257.403719 148.533412 
L 257.493926 142.45386 
L 257.584133 145.388843 
L 257.67434 144.75969 
L 257.764547 133.439323 
L 257.854754 133.648908 
L 258.035167 149.162166 
L 258.125374 144.340521 
L 258.215581 146.227182 
L 258.305788 151.572988 
L 258.395995 151.467997 
L 258.486202 149.686327 
L 258.576409 150.734251 
L 258.666615 150.210488 
L 258.756822 146.122589 
L 258.847029 149.371751 
L 258.937236 158.805457 
L 259.027443 153.669235 
L 259.11765 139.204299 
L 259.207857 139.623868 
L 259.38827 156.604219 
L 259.568684 144.864682 
L 259.749098 136.059731 
L 259.929512 142.768037 
L 260.019719 141.300944 
L 260.200132 146.122589 
L 260.470753 134.173069 
L 260.651167 161.845033 
L 260.83158 152.830896 
L 261.011994 159.85338 
L 261.192408 140.252622 
L 261.372822 151.782573 
L 261.463029 145.703021 
L 261.553235 148.113843 
L 261.643442 158.910049 
L 261.733649 156.394634 
L 261.823856 148.218835 
L 262.00427 153.145074 
L 262.184684 142.768037 
L 262.27489 147.170513 
L 262.365097 147.06592 
L 262.545511 139.413884 
L 262.725925 153.774227 
L 262.906339 145.808013 
L 262.996546 150.734251 
L 263.086752 149.476742 
L 263.176959 140.252622 
L 263.267166 141.510529 
L 263.357373 148.42842 
L 263.537787 139.099707 
L 263.718201 147.485089 
L 263.808407 145.912605 
L 263.898614 145.703021 
L 264.079028 152.516319 
L 264.259442 148.323428 
L 264.439856 132.810569 
L 264.620269 131.448069 
L 265.071304 147.380097 
L 265.161511 148.113843 
L 265.341924 140.252622 
L 265.522338 142.558452 
L 265.612545 139.938045 
L 265.702752 140.462207 
L 265.792959 142.663444 
L 265.973372 133.858891 
L 266.063579 136.688884 
L 266.3342 151.258412 
L 266.514614 151.153819 
L 266.604821 150.420073 
L 266.785234 141.615122 
L 266.965648 160.901703 
L 267.236269 141.929698 
L 267.506889 156.709211 
L 267.687303 143.711767 
L 267.77751 147.170513 
L 267.867717 146.017597 
L 268.048131 163.941279 
L 268.138337 161.425864 
L 268.228544 161.530457 
L 268.318751 170.230616 
L 268.408958 167.924585 
L 268.499165 162.369194 
L 268.589372 170.649785 
L 268.679579 142.558452 
L 268.769786 146.227182 
L 269.040406 140.357614 
L 269.311027 128.513085 
L 269.581647 155.765481 
L 269.942475 131.971831 
L 270.032682 133.229738 
L 270.122889 133.439323 
L 270.303302 139.413884 
L 270.483716 132.286408 
L 270.754337 151.048827 
L 271.024957 118.345634 
L 271.385785 143.39719 
L 271.656406 148.952581 
L 271.927026 142.978021 
L 272.017233 141.090961 
L 272.287854 145.074267 
L 272.468267 142.348868 
L 272.648681 152.306735 
L 272.919302 129.246831 
L 273.099716 140.567199 
L 273.189922 140.671791 
L 273.280129 142.348868 
L 273.370336 146.122589 
L 273.460543 145.17886 
L 273.55075 142.558452 
L 273.640957 144.75969 
L 273.731164 141.300944 
L 273.911577 131.238085 
L 274.001784 136.269715 
L 274.091991 135.325985 
L 274.182198 133.125145 
L 274.452819 152.411328 
L 274.633232 161.320872 
L 274.723439 159.958372 
L 274.813646 155.136727 
L 274.99406 130.190162 
L 275.084267 131.971831 
L 275.264681 120.966041 
L 275.354887 124.949347 
L 275.625508 142.139283 
L 276.076542 117.507295 
L 276.166749 120.756457 
L 276.256956 116.144396 
L 276.347163 120.337287 
L 276.527577 133.544315 
L 276.707991 136.479299 
L 276.888404 94.656976 
L 276.978611 96.229061 
L 277.068818 93.713246 
L 277.249232 82.078702 
L 277.339439 82.497872 
L 277.519852 94.761569 
L 277.610059 93.608653 
L 277.700266 95.076145 
L 277.790473 99.164045 
L 278.151301 90.883254 
L 278.331714 71.282496 
L 278.421921 71.701666 
L 278.602335 79.24871 
L 278.692542 74.846234 
L 278.872956 85.957017 
L 278.963162 81.764126 
L 279.053369 81.449549 
L 279.143576 89.31117 
L 279.233783 83.546194 
L 279.32399 66.041682 
L 279.414197 66.670436 
L 279.594611 78.829141 
L 279.684817 76.628302 
L 279.955438 86.376186 
L 280.045645 85.013686 
L 280.135852 81.239964 
L 280.226059 81.764126 
L 280.316266 82.497872 
L 280.677093 53.568 
L 280.7673 53.777984 
L 280.947714 69.60542 
L 281.037921 63.945037 
L 281.128128 67.718758 
L 281.308541 84.174948 
L 281.488955 67.089605 
L 281.579162 68.557097 
L 281.849783 61.534213 
L 281.939989 64.050029 
L 282.300817 92.141162 
L 282.391024 91.302823 
L 282.571438 83.231618 
L 282.661644 84.070355 
L 282.842058 75.999149 
L 282.932265 78.934133 
L 283.022472 76.94248 
L 283.112679 71.806657 
L 283.202886 71.91125 
L 283.383299 80.716202 
L 283.563713 78.934133 
L 283.65392 79.982456 
L 283.744127 84.384533 
L 283.834334 82.917041 
L 284.014748 64.259613 
L 284.104954 67.194597 
L 284.195161 65.517521 
L 284.375575 55.245077 
L 284.646196 72.644996 
L 284.736403 73.797911 
L 284.826609 80.820795 
L 284.916816 130.609331 
L 285.007023 129.246831 
L 285.09723 129.141839 
L 285.187437 134.906815 
L 285.277644 131.448069 
L 285.548264 103.146952 
L 285.818885 117.71688 
L 285.909092 114.99148 
L 285.999299 116.563565 
L 286.269919 136.059731 
L 286.720954 119.498549 
L 286.991574 115.515641 
L 287.081781 116.144396 
L 287.352402 121.38521 
L 287.532816 116.144396 
L 287.623023 116.878142 
L 287.803436 115.096472 
L 287.98385 120.232295 
L 288.074057 115.410649 
L 288.164264 117.192718 
L 288.525091 137.213045 
L 288.615298 135.955138 
L 288.705505 129.351424 
L 288.795712 129.561008 
L 289.336953 112.580658 
L 289.517367 117.926465 
L 289.607574 115.410649 
L 289.787988 118.450626 
L 289.878194 115.201065 
L 290.058608 128.408093 
L 290.239022 121.38521 
L 290.329229 123.272271 
L 290.509643 106.396513 
L 290.599849 107.130259 
L 290.690056 108.702343 
L 290.780263 108.387767 
L 290.87047 108.492759 
L 291.050884 122.643118 
L 291.141091 121.071033 
L 291.231298 113.419395 
L 291.321504 114.152742 
L 291.411711 113.943157 
L 291.592125 106.71069 
L 291.682332 106.920674 
L 291.772539 108.59775 
L 291.952953 96.019476 
L 292.043159 100.002384 
L 292.133366 104.614444 
L 292.31378 97.696552 
L 292.403987 99.268638 
L 292.494194 95.28573 
L 292.855021 109.541081 
L 292.945228 110.064843 
L 293.125642 282.700141 
L 293.306056 269.912282 
L 293.486469 271.694351 
L 293.75709 295.488 
L 293.847297 295.068631 
L 294.027711 283.224302 
L 294.117918 278.402657 
L 294.208124 279.555572 
L 294.298331 278.402657 
L 294.568952 259.220869 
L 294.749366 267.606451 
L 294.839573 268.025621 
L 295.019986 281.966395 
L 295.290607 261.631692 
L 295.561228 252.512562 
L 295.651434 252.198185 
L 295.741641 252.512562 
L 296.012262 255.342754 
L 296.102469 256.181292 
L 296.282883 246.118632 
L 296.373089 250.311524 
L 296.64371 279.870149 
L 296.733917 282.490556 
L 296.824124 293.391554 
L 296.914331 292.238639 
L 297.094744 269.80749 
L 297.184951 270.960605 
L 297.275158 269.702698 
L 297.455572 264.77626 
L 297.635986 273.581012 
L 297.8164 258.277538 
L 297.906606 259.954615 
L 297.996813 255.028177 
L 298.08702 243.812802 
L 298.267434 250.416316 
L 298.447848 230.39599 
L 298.538055 236.894711 
L 298.628261 236.056173 
L 298.718468 227.461205 
L 298.808675 228.404536 
L 298.898882 233.959927 
L 298.989089 233.540558 
L 299.25971 220.018953 
L 299.349916 220.228738 
L 299.53033 225.155175 
L 299.620537 218.97083 
L 299.800951 199.579457 
L 299.891158 204.820471 
L 300.071571 191.823027 
L 300.251985 176.938922 
L 300.342192 170.85937 
L 300.522606 181.655775 
L 300.612813 178.615999 
L 300.70302 179.035168 
L 300.793226 177.567876 
L 301.154054 149.581335 
L 301.334468 159.748787 
L 301.424675 158.281295 
L 301.785502 134.697231 
L 301.965916 150.000504 
L 302.14633 132.705577 
L 302.326743 143.39719 
L 302.507157 132.181815 
L 302.597364 136.269715 
L 303.048398 92.455738 
L 303.228812 109.750666 
L 303.319019 107.339843 
L 303.409226 107.025267 
L 303.58964 127.464763 
L 303.770053 110.798589 
L 303.950467 125.158932 
L 304.221088 103.98569 
L 304.311295 107.65442 
L 304.401501 106.815682 
L 304.491708 105.767359 
L 304.672122 109.331496 
L 304.762329 108.387767 
L 304.942743 116.249387 
L 305.03295 116.878142 
L 305.664398 192.032612 
L 305.754605 195.910926 
L 305.844811 193.814481 
L 306.025225 184.380975 
L 306.115432 183.752021 
L 306.205639 180.502661 
L 306.295846 183.332852 
L 306.47626 192.871151 
L 306.656673 186.162844 
L 306.74688 188.678459 
L 307.017501 204.29631 
L 307.197915 200.942157 
L 307.378328 185.953259 
L 307.558742 196.225304 
L 307.829363 165.828339 
L 307.91957 165.513763 
L 308.099983 173.794354 
L 308.370604 161.530457 
L 308.460811 163.731694 
L 308.641225 176.414761 
L 308.731431 174.213523 
L 308.821638 174.632892 
L 308.911845 177.882253 
L 309.092259 171.488324 
L 309.182466 180.188283 
L 309.272673 166.142517 
L 309.453086 178.091837 
L 309.543293 177.358091 
L 309.6335 180.922029 
L 309.904121 200.417996 
L 309.994328 203.143395 
L 310.174741 213.9396 
L 310.445362 193.080934 
L 310.535569 194.129058 
L 310.625776 198.216957 
L 310.715983 195.281973 
L 310.896396 183.123068 
L 311.07681 188.678459 
L 311.167017 189.726582 
L 311.347431 204.505895 
L 311.618051 180.083491 
L 311.708258 182.389322 
L 311.798465 188.049505 
L 311.888672 187.83992 
L 311.978879 182.179737 
L 312.159293 190.879697 
L 312.339706 180.188283 
L 312.610327 186.89659 
L 312.790741 199.26508 
L 312.880948 194.443434 
L 313.151568 220.228738 
L 313.241775 219.390199 
L 313.512396 194.024265 
L 313.602603 199.160287 
L 313.69281 198.321749 
L 313.783016 192.766358 
L 313.873223 192.975942 
L 313.96343 192.242197 
L 314.053637 186.162844 
L 314.143844 187.630336 
L 314.324258 197.168834 
L 314.414465 191.92782 
L 314.504671 192.871151 
L 314.685085 197.063842 
L 314.865499 192.347189 
L 315.226327 204.610887 
L 315.40674 194.967596 
L 315.587154 188.678459 
L 315.677361 193.709688 
L 315.767568 193.395312 
L 315.857775 187.001382 
L 316.128395 197.588003 
L 316.218602 197.483211 
L 316.669637 179.768915 
L 316.759843 180.712245 
L 316.85005 181.445991 
L 317.030464 184.59056 
L 317.210878 182.703899 
L 317.301085 178.19663 
L 317.391292 125.05394 
L 317.481498 127.779339 
L 317.571705 127.150186 
L 317.752119 117.821473 
L 318.02274 134.068476 
L 318.203153 132.181815 
L 318.383567 135.325985 
L 318.563981 131.0285 
L 318.744395 134.278061 
L 319.015015 120.44188 
L 319.195429 130.504339 
L 319.285636 126.731017 
L 319.375843 129.456416 
L 319.46605 135.955138 
L 319.556257 134.382654 
L 319.646463 137.841799 
L 319.826877 147.904259 
L 320.187705 131.343077 
L 320.277912 131.238085 
L 320.458325 133.544315 
L 320.728946 126.836009 
L 320.90936 139.413884 
L 321.17998 133.544315 
L 321.360394 119.288965 
L 321.540808 134.173069 
L 321.631015 130.294754 
L 321.721222 133.544315 
L 321.901635 148.009251 
L 322.172256 142.873029 
L 322.262463 141.195953 
L 322.713497 161.006695 
L 322.803704 158.700465 
L 323.074325 146.122589 
L 323.164532 147.170513 
L 323.254738 146.436767 
L 323.344945 147.06592 
L 323.525359 153.45965 
L 323.615566 154.088404 
L 323.79598 159.224626 
L 323.886187 157.12838 
L 324.0666 147.170513 
L 324.156807 145.912605 
L 324.247014 146.751343 
L 324.427428 159.434211 
L 324.517635 156.918796 
L 324.607842 148.009251 
L 324.698048 150.315081 
L 324.878462 159.958372 
L 324.968669 160.901703 
L 325.058876 160.692118 
L 325.23929 156.918796 
L 325.419703 167.400424 
L 325.50991 150.524666 
L 325.600117 151.153819 
L 325.690324 155.031735 
L 325.870738 164.570432 
L 326.141358 132.600984 
L 326.321772 145.703021 
L 326.502186 140.043037 
L 326.772807 148.323428 
L 326.863013 156.080058 
L 326.95322 154.717558 
L 327.133634 145.283852 
L 327.223841 145.912605 
L 327.314048 147.694674 
L 327.404255 147.380097 
L 327.584668 136.688884 
L 327.765082 147.170513 
L 327.855289 143.082614 
L 327.945496 145.808013 
L 328.12591 142.768037 
L 328.216117 144.130936 
L 328.39653 131.448069 
L 328.486737 135.325985 
L 328.667151 128.408093 
L 328.847565 146.332174 
L 329.027978 133.33473 
L 329.118185 145.074267 
L 329.208392 143.187606 
L 329.298599 139.309291 
L 329.479013 157.757134 
L 329.56922 157.652541 
L 329.749633 149.581335 
L 329.930047 142.978021 
L 330.020254 144.550106 
L 330.200668 143.501783 
L 330.290875 144.75969 
L 330.471288 142.139283 
L 330.651702 151.153819 
L 330.741909 148.323428 
L 330.832116 151.677581 
L 330.922323 151.572988 
L 331.01253 144.969275 
L 331.102737 145.703021 
L 331.192943 148.323428 
L 331.373357 143.187606 
L 331.553771 145.388843 
L 331.643978 148.42842 
L 331.734185 148.218835 
L 332.004805 131.0285 
L 332.095012 130.714323 
L 332.185219 130.923908 
L 332.365633 133.7539 
L 332.45584 132.600984 
L 332.546047 135.221392 
L 332.72646 144.235529 
L 332.906874 129.875585 
L 333.177495 141.195953 
L 333.267702 141.300944 
L 333.448115 147.380097 
L 333.538322 147.275505 
L 333.628529 127.464763 
L 333.718736 130.294754 
L 333.808943 129.666 
L 333.989357 118.555219 
L 334.079564 120.022711 
L 334.440391 145.493436 
L 334.620805 146.646351 
L 334.801219 140.986368 
L 334.891425 144.864682 
L 334.981632 143.082614 
L 335.071839 132.286408 
L 335.162046 132.705577 
L 335.252253 141.195953 
L 335.34246 140.252622 
L 335.432667 143.606775 
L 335.61308 160.063364 
L 335.793494 144.75969 
L 335.883701 144.655098 
L 335.973908 145.074267 
L 336.064115 143.921352 
L 336.154322 144.550106 
L 336.424942 149.895912 
L 336.695563 162.893356 
L 336.966184 144.130936 
L 337.05639 146.122589 
L 337.236804 144.864682 
L 337.417218 157.442558 
L 337.507425 156.394634 
L 337.687839 147.799666 
L 337.778045 148.009251 
L 337.958459 140.14763 
L 338.048666 140.671791 
L 338.22908 154.927142 
L 338.409494 140.043037 
L 338.589907 148.323428 
L 338.680114 142.348868 
L 338.860528 147.589682 
L 339.040942 134.697231 
L 339.221355 150.315081 
L 339.311562 146.017597 
L 339.401769 147.485089 
L 339.491976 155.346312 
L 339.582183 153.040481 
L 339.67239 147.275505 
L 339.852804 156.289642 
L 339.94301 144.655098 
L 340.033217 146.332174 
L 340.123424 159.748787 
L 340.303838 137.632215 
L 340.394045 142.03469 
L 340.484252 152.621311 
L 340.574459 151.363404 
L 340.935286 131.971831 
L 341.205907 137.527223 
L 341.38632 145.074267 
L 341.656941 132.076823 
L 341.837355 158.595872 
L 341.927562 158.176303 
L 342.017769 153.87882 
L 342.198182 155.031735 
L 342.378596 133.648908 
L 342.55901 147.485089 
L 342.739424 141.300944 
L 342.919837 149.371751 
L 343.100251 140.567199 
L 343.190458 145.808013 
L 343.280665 142.45386 
L 343.370872 132.495992 
L 343.461079 132.705577 
L 343.551285 138.156376 
L 343.731699 130.923908 
L 343.912113 147.06592 
L 344.00232 144.75969 
L 344.092527 142.663444 
L 344.182734 146.855936 
L 344.363147 132.286408 
L 344.453354 134.382654 
L 344.543561 137.42263 
L 344.723975 129.770992 
L 344.994595 135.850146 
L 345.084802 136.583892 
L 345.265216 144.340521 
L 345.44563 137.213045 
L 345.71625 117.926465 
L 345.986871 131.552662 
L 346.077078 130.190162 
L 346.167285 132.495992 
L 346.257492 140.14763 
L 346.347699 138.470553 
L 346.528112 130.08517 
L 346.618319 131.552662 
L 346.798733 128.932255 
L 346.88894 129.141839 
L 347.249767 120.861448 
L 347.430181 136.583892 
L 347.520388 134.906815 
L 347.610595 132.705577 
L 347.791009 138.156376 
L 347.971422 131.238085 
L 348.151836 143.082614 
L 348.422457 124.844356 
L 348.60287 134.173069 
L 348.693077 133.7539 
L 348.873491 125.368517 
L 348.963698 118.555219 
L 349.053905 118.764803 
L 349.324525 144.340521 
L 349.414732 144.550106 
L 349.504939 146.855936 
L 349.685353 144.130936 
L 349.77556 150.210488 
L 349.865767 143.39719 
L 349.955974 148.218835 
L 350.316801 140.776783 
L 350.497215 128.408093 
L 350.677629 148.218835 
L 350.767836 148.113843 
L 350.948249 142.768037 
L 351.128663 130.190162 
L 351.309077 136.164723 
L 351.399284 135.325985 
L 351.489491 138.78513 
L 351.579697 137.42263 
L 351.669904 131.0285 
L 351.760111 134.278061 
L 351.940525 145.598428 
L 352.211146 121.071033 
L 352.391559 135.221392 
L 352.481766 134.173069 
L 352.571973 133.125145 
L 352.752387 148.533412 
L 352.932801 145.074267 
L 353.023007 145.703021 
L 353.203421 144.969275 
L 353.474042 148.218835 
L 353.564249 146.122589 
L 353.654456 146.227182 
L 353.834869 154.193396 
L 354.10549 132.810569 
L 354.195697 136.374308 
L 354.285904 139.309291 
L 354.376111 133.439323 
L 354.556524 143.501783 
L 354.736938 129.351424 
L 354.827145 134.173069 
L 354.917352 131.343077 
L 355.007559 124.529779 
L 355.278179 131.343077 
L 355.368386 130.08517 
L 355.458593 130.714323 
L 355.819421 150.734251 
L 355.999834 146.855936 
L 356.541076 116.458972 
L 356.721489 131.867238 
L 356.811696 131.238085 
L 356.99211 120.127703 
L 357.082317 122.014364 
L 357.172524 112.999827 
L 357.262731 113.104819 
L 357.352937 118.031057 
L 357.443144 115.830218 
L 357.533351 117.087727 
L 357.894179 134.592239 
L 357.984386 132.705577 
L 358.164799 126.41644 
L 358.255006 118.660211 
L 358.345213 119.498549 
L 358.615834 134.487646 
L 358.796247 142.663444 
L 358.886454 142.978021 
L 358.976661 144.864682 
L 359.157075 136.164723 
L 359.337489 147.904259 
L 359.427696 144.235529 
L 359.608109 134.173069 
L 359.788523 148.42842 
L 359.87873 142.558452 
L 359.968937 146.855936 
L 360.149351 160.377541 
L 360.239557 163.836686 
L 360.329764 173.060608 
L 360.419971 169.077501 
L 360.600385 156.394634 
L 360.690592 161.111287 
L 360.871006 146.646351 
L 361.051419 153.145074 
L 361.32204 144.340521 
L 361.412247 147.485089 
L 361.592661 157.652541 
L 361.953488 130.609331 
L 362.133902 142.45386 
L 362.224109 133.33473 
L 362.494729 161.216279 
L 362.855557 141.300944 
L 362.945764 142.244275 
L 363.035971 142.558452 
L 363.126177 143.606775 
L 363.306591 147.06592 
L 363.487005 145.493436 
L 363.577212 145.493436 
L 363.757626 143.81636 
L 364.028246 147.170513 
L 364.118453 144.445513 
L 364.20866 144.655098 
L 364.298867 147.589682 
L 364.389074 147.485089 
L 364.569487 142.348868 
L 364.749901 144.025944 
L 364.840108 144.340521 
L 365.020522 147.170513 
L 365.200936 142.45386 
L 365.291142 144.340521 
L 365.381349 144.130936 
L 365.65197 141.824706 
L 365.922591 161.74044 
L 366.103004 171.069154 
L 366.193211 172.117277 
L 366.283418 168.972709 
L 366.463832 174.213523 
L 366.734452 155.451304 
L 366.914866 158.700465 
L 367.09528 153.250066 
L 367.275694 159.85338 
L 367.365901 159.434211 
L 367.546314 174.947269 
L 367.816935 158.176303 
L 367.907142 159.224626 
L 367.997349 157.232973 
L 368.267969 145.808013 
L 368.358176 145.283852 
L 368.448383 145.388843 
L 368.53859 146.541759 
L 368.628797 144.655098 
L 368.719004 144.75969 
L 368.809211 146.751343 
L 368.989624 139.518876 
L 369.079831 144.025944 
L 369.170038 142.244275 
L 369.260245 132.600984 
L 369.350452 135.535969 
L 369.530866 147.06592 
L 369.621073 145.388843 
L 369.711279 148.42842 
L 369.891693 144.025944 
L 370.072107 151.363404 
L 370.252521 147.799666 
L 370.342728 147.380097 
L 370.523141 139.309291 
L 370.703555 146.855936 
L 370.793762 143.187606 
L 370.883969 143.606775 
L 371.154589 150.629658 
L 371.335003 157.757134 
L 371.42521 158.176303 
L 371.605624 153.354658 
L 371.786038 159.539203 
L 371.876244 157.023388 
L 371.966451 157.337965 
L 372.056658 157.757134 
L 372.146865 157.023388 
L 372.327279 170.335408 
L 372.778313 157.232973 
L 372.958727 161.845033 
L 373.139141 157.54755 
L 373.319554 164.151263 
L 373.409761 157.757134 
L 373.499968 160.901703 
L 373.590175 168.343755 
L 373.770589 156.918796 
L 374.041209 173.374985 
L 374.131416 171.173947 
L 374.221623 131.133492 
L 374.31183 136.583892 
L 374.402037 143.711767 
L 374.582451 134.278061 
L 374.672658 139.099707 
L 374.943278 167.714802 
L 375.033485 172.012485 
L 375.123692 171.907693 
L 375.304106 172.536446 
L 375.394313 170.125624 
L 375.574726 172.012485 
L 375.75514 159.015041 
L 375.935554 171.488324 
L 376.025761 169.601662 
L 376.206174 184.380975 
L 376.386588 172.851023 
L 376.567002 181.970153 
L 376.657209 180.712245 
L 376.747416 176.624345 
L 376.837623 177.567876 
L 377.018036 185.953259 
L 377.108243 185.219513 
L 377.288657 190.355535 
L 377.559278 169.811247 
L 377.649484 170.754578 
L 377.739691 170.230616 
L 377.829898 172.746231 
L 377.920105 179.035168 
L 378.010312 178.720791 
L 378.371139 159.643795 
L 378.461346 159.748787 
L 378.64176 157.757134 
L 378.822174 171.593116 
L 379.002588 145.17886 
L 379.092794 147.485089 
L 379.183001 146.017597 
L 379.363415 132.600984 
L 379.453622 137.946791 
L 379.543829 135.430977 
L 379.634036 127.569755 
L 379.724243 129.351424 
L 379.814449 134.173069 
L 379.904656 131.657654 
L 379.994863 131.971831 
L 380.08507 135.325985 
L 380.175277 135.221392 
L 380.265484 133.439323 
L 380.355691 134.382654 
L 380.716518 146.227182 
L 380.896932 123.062287 
L 381.077346 135.430977 
L 381.167553 133.229738 
L 381.347966 133.020154 
L 381.52838 114.781895 
L 381.708794 120.546872 
L 381.799001 117.71688 
L 381.889208 119.393957 
L 381.979414 116.563565 
L 382.250035 102.203622 
L 382.430449 158.700465 
L 382.610863 157.966719 
L 382.791276 159.119634 
L 382.97169 141.195953 
L 383.061897 143.187606 
L 383.152104 148.323428 
L 383.332518 143.501783 
L 383.512931 162.474186 
L 383.693345 157.337965 
L 383.783552 162.15961 
L 383.963966 144.130936 
L 384.144379 158.49088 
L 384.324793 150.943835 
L 384.505207 171.069154 
L 384.595414 170.335408 
L 384.956241 145.283852 
L 385.046448 147.589682 
L 385.136655 158.386287 
L 385.226862 155.451304 
L 385.317069 146.541759 
L 385.497483 159.85338 
L 385.58769 157.862126 
L 385.677896 154.088404 
L 385.85831 161.425864 
L 386.219138 156.080058 
L 386.399551 151.153819 
L 386.579965 164.46544 
L 386.760379 157.757134 
L 386.940793 164.989602 
L 387.121206 158.49088 
L 387.211413 158.700465 
L 387.391827 156.499227 
L 387.572241 156.394634 
L 387.752655 152.725904 
L 387.842861 153.774227 
L 388.47431 166.142517 
L 388.564516 160.587126 
L 388.74493 172.012485 
L 389.105758 147.06592 
L 389.286171 156.499227 
L 389.466585 142.244275 
L 389.556792 143.711767 
L 389.646999 140.462207 
L 389.737206 141.405537 
L 390.098033 161.320872 
L 390.18824 161.111287 
L 390.368654 169.811247 
L 390.458861 132.705577 
L 390.549068 134.382654 
L 390.639275 134.068476 
L 390.729481 130.399746 
L 390.819688 131.343077 
L 390.909895 135.745553 
L 391.090309 132.600984 
L 391.36093 158.176303 
L 391.451136 154.612566 
L 391.811964 131.238085 
L 391.902171 130.818916 
L 392.262998 117.926465 
L 392.353205 121.490202 
L 392.533619 135.535969 
L 392.80424 106.081936 
L 393.07486 128.617678 
L 393.165067 127.36017 
L 393.616101 149.686327 
L 393.796515 143.606775 
L 393.976929 157.54755 
L 394.157343 144.75969 
L 394.427963 159.329618 
L 394.698584 148.218835 
L 394.878998 161.845033 
L 394.969205 154.82215 
L 395.059411 155.241719 
L 395.149618 159.958372 
L 395.330032 144.235529 
L 395.510446 153.145074 
L 395.600653 146.646351 
L 395.69086 149.266759 
L 395.781066 156.394634 
L 396.051687 145.388843 
L 396.322308 160.063364 
L 396.412515 159.329618 
L 396.592928 154.298388 
L 396.773342 144.655098 
L 396.863549 147.589682 
L 397.13417 132.3914 
L 397.224376 136.793477 
L 397.314583 143.501783 
L 397.40479 140.252622 
L 397.494997 131.552662 
L 397.585204 132.076823 
L 397.675411 133.7539 
L 397.765618 129.770992 
L 398.216652 148.218835 
L 398.306859 147.380097 
L 398.487273 157.232973 
L 398.487273 157.232973 
" clip-path="url(#p88277393b7)" style="fill: none; stroke: #1f77b4; stroke-width: 1.5; stroke-linecap: square"/>
   </g>
   <g id="patch_3">
    <path d="M 57.6 307.584 
L 57.6 41.472 
" style="fill: none; stroke: #000000; stroke-width: 0.8; stroke-linejoin: miter; stroke-linecap: square"/>
   </g>
   <g id="patch_4">
    <path d="M 414.72 307.584 
L 414.72 41.472 
" style="fill: none; stroke: #000000; stroke-width: 0.8; stroke-linejoin: miter; stroke-linecap: square"/>
   </g>
   <g id="patch_5">
    <path d="M 57.6 307.584 
L 414.72 307.584 
" style="fill: none; stroke: #000000; stroke-width: 0.8; stroke-linejoin: miter; stroke-linecap: square"/>
   </g>
   <g id="patch_6">
    <path d="M 57.6 41.472 
L 414.72 41.472 
" style="fill: none; stroke: #000000; stroke-width: 0.8; stroke-linejoin: miter; stroke-linecap: square"/>
   </g>
   <g id="legend_1">
    <g id="patch_7">
     <path d="M 354.074688 64.150125 
L 407.72 64.150125 
Q 409.72 64.150125 409.72 62.150125 
L 409.72 48.472 
Q 409.72 46.472 407.72 46.472 
L 354.074688 46.472 
Q 352.074688 46.472 352.074688 48.472 
L 352.074688 62.150125 
Q 352.074688 64.150125 354.074688 64.150125 
z
" style="fill: #ffffff; opacity: 0.8; stroke: #cccccc; stroke-linejoin: miter"/>
    </g>
    <g id="line2d_16">
     <path d="M 356.074688 54.570438 
L 366.074688 54.570438 
L 376.074688 54.570438 
" style="fill: none; stroke: #1f77b4; stroke-width: 1.5; stroke-linecap: square"/>
    </g>
    <g id="text_15">
     <!-- set2 -->
     <g transform="translate(384.074688 58.070438)scale(0.1 -0.1)">
      <defs>
       <path id="DejaVuSans-73" d="M 2834 3397 
L 2834 2853 
Q 2591 2978 2328 3040 
Q 2066 3103 1784 3103 
Q 1356 3103 1142 2972 
Q 928 2841 928 2578 
Q 928 2378 1081 2264 
Q 1234 2150 1697 2047 
L 1894 2003 
Q 2506 1872 2764 1633 
Q 3022 1394 3022 966 
Q 3022 478 2636 193 
Q 2250 -91 1575 -91 
Q 1294 -91 989 -36 
Q 684 19 347 128 
L 347 722 
Q 666 556 975 473 
Q 1284 391 1588 391 
Q 1994 391 2212 530 
Q 2431 669 2431 922 
Q 2431 1156 2273 1281 
Q 2116 1406 1581 1522 
L 1381 1569 
Q 847 1681 609 1914 
Q 372 2147 372 2553 
Q 372 3047 722 3315 
Q 1072 3584 1716 3584 
Q 2034 3584 2315 3537 
Q 2597 3491 2834 3397 
z
" transform="scale(0.015625)"/>
       <path id="DejaVuSans-65" d="M 3597 1894 
L 3597 1613 
L 953 1613 
Q 991 1019 1311 708 
Q 1631 397 2203 397 
Q 2534 397 2845 478 
Q 3156 559 3463 722 
L 3463 178 
Q 3153 47 2828 -22 
Q 2503 -91 2169 -91 
Q 1331 -91 842 396 
Q 353 884 353 1716 
Q 353 2575 817 3079 
Q 1281 3584 2069 3584 
Q 2775 3584 3186 3129 
Q 3597 2675 3597 1894 
z
M 3022 2063 
Q 3016 2534 2758 2815 
Q 2500 3097 2075 3097 
Q 1594 3097 1305 2825 
Q 1016 2553 972 2059 
L 3022 2063 
z
" transform="scale(0.015625)"/>
       <path id="DejaVuSans-74" d="M 1172 4494 
L 1172 3500 
L 2356 3500 
L 2356 3053 
L 1172 3053 
L 1172 1153 
Q 1172 725 1289 603 
Q 1406 481 1766 481 
L 2356 481 
L 2356 0 
L 1766 0 
Q 1100 0 847 248 
Q 594 497 594 1153 
L 594 3053 
L 172 3053 
L 172 3500 
L 594 3500 
L 594 4494 
L 1172 4494 
z
" transform="scale(0.015625)"/>
      </defs>
      <use xlink:href="#DejaVuSans-73"/>
      <use xlink:href="#DejaVuSans-65" x="52.099609"/>
      <use xlink:href="#DejaVuSans-74" x="113.623047"/>
      <use xlink:href="#DejaVuSans-32" x="152.832031"/>
     </g>
    </g>
   </g>
  </g>
 </g>
 <defs>
  <clipPath id="p88277393b7">
   <rect x="57.6" y="41.472" width="357.12" height="266.112"/>
  </clipPath>
 </defs>
</svg>
