<?xml version="1.0" encoding="utf-8" standalone="no"?>
<!DOCTYPE svg PUBLIC "-//W3C//DTD SVG 1.1//EN"
  "http://www.w3.org/Graphics/SVG/1.1/DTD/svg11.dtd">
<svg xmlns:xlink="http://www.w3.org/1999/xlink" width="460.8pt" height="345.6pt" viewBox="0 0 460.8 345.6" xmlns="http://www.w3.org/2000/svg" version="1.1">
 <metadata>
  <rdf:RDF xmlns:dc="http://purl.org/dc/elements/1.1/" xmlns:cc="http://creativecommons.org/ns#" xmlns:rdf="http://www.w3.org/1999/02/22-rdf-syntax-ns#">
   <cc:Work>
    <dc:type rdf:resource="http://purl.org/dc/dcmitype/StillImage"/>
    <dc:date>2022-08-11T15:17:17.340835</dc:date>
    <dc:format>image/svg+xml</dc:format>
    <dc:creator>
     <cc:Agent>
      <dc:title>Matplotlib v3.5.2, https://matplotlib.org/</dc:title>
     </cc:Agent>
    </dc:creator>
   </cc:Work>
  </rdf:RDF>
 </metadata>
 <defs>
  <style type="text/css">*{stroke-linejoin: round; stroke-linecap: butt}</style>
 </defs>
 <g id="figure_1">
  <g id="patch_1">
   <path d="M 0 345.6 
L 460.8 345.6 
L 460.8 0 
L 0 0 
z
" style="fill: #ffffff"/>
  </g>
  <g id="axes_1">
   <g id="patch_2">
    <path d="M 57.6 307.584 
L 414.72 307.584 
L 414.72 41.472 
L 57.6 41.472 
z
" style="fill: #ffffff"/>
   </g>
   <g id="matplotlib.axis_1">
    <g id="xtick_1">
     <g id="line2d_1">
      <defs>
       <path id="mbafa0e6ae0" d="M 0 0 
L 0 3.5 
" style="stroke: #000000; stroke-width: 0.8"/>
      </defs>
      <g>
       <use xlink:href="#mbafa0e6ae0" x="73.832727" y="307.584" style="stroke: #000000; stroke-width: 0.8"/>
      </g>
     </g>
     <g id="text_1">
      <!-- 0 -->
      <g transform="translate(70.651477 322.182437)scale(0.1 -0.1)">
       <defs>
        <path id="DejaVuSans-30" d="M 2034 4250 
Q 1547 4250 1301 3770 
Q 1056 3291 1056 2328 
Q 1056 1369 1301 889 
Q 1547 409 2034 409 
Q 2525 409 2770 889 
Q 3016 1369 3016 2328 
Q 3016 3291 2770 3770 
Q 2525 4250 2034 4250 
z
M 2034 4750 
Q 2819 4750 3233 4129 
Q 3647 3509 3647 2328 
Q 3647 1150 3233 529 
Q 2819 -91 2034 -91 
Q 1250 -91 836 529 
Q 422 1150 422 2328 
Q 422 3509 836 4129 
Q 1250 4750 2034 4750 
z
" transform="scale(0.015625)"/>
       </defs>
       <use xlink:href="#DejaVuSans-30"/>
      </g>
     </g>
    </g>
    <g id="xtick_2">
     <g id="line2d_2">
      <g>
       <use xlink:href="#mbafa0e6ae0" x="137.266597" y="307.584" style="stroke: #000000; stroke-width: 0.8"/>
      </g>
     </g>
     <g id="text_2">
      <!-- 500 -->
      <g transform="translate(127.722847 322.182437)scale(0.1 -0.1)">
       <defs>
        <path id="DejaVuSans-35" d="M 691 4666 
L 3169 4666 
L 3169 4134 
L 1269 4134 
L 1269 2991 
Q 1406 3038 1543 3061 
Q 1681 3084 1819 3084 
Q 2600 3084 3056 2656 
Q 3513 2228 3513 1497 
Q 3513 744 3044 326 
Q 2575 -91 1722 -91 
Q 1428 -91 1123 -41 
Q 819 9 494 109 
L 494 744 
Q 775 591 1075 516 
Q 1375 441 1709 441 
Q 2250 441 2565 725 
Q 2881 1009 2881 1497 
Q 2881 1984 2565 2268 
Q 2250 2553 1709 2553 
Q 1456 2553 1204 2497 
Q 953 2441 691 2322 
L 691 4666 
z
" transform="scale(0.015625)"/>
       </defs>
       <use xlink:href="#DejaVuSans-35"/>
       <use xlink:href="#DejaVuSans-30" x="63.623047"/>
       <use xlink:href="#DejaVuSans-30" x="127.246094"/>
      </g>
     </g>
    </g>
    <g id="xtick_3">
     <g id="line2d_3">
      <g>
       <use xlink:href="#mbafa0e6ae0" x="200.700467" y="307.584" style="stroke: #000000; stroke-width: 0.8"/>
      </g>
     </g>
     <g id="text_3">
      <!-- 1000 -->
      <g transform="translate(187.975467 322.182437)scale(0.1 -0.1)">
       <defs>
        <path id="DejaVuSans-31" d="M 794 531 
L 1825 531 
L 1825 4091 
L 703 3866 
L 703 4441 
L 1819 4666 
L 2450 4666 
L 2450 531 
L 3481 531 
L 3481 0 
L 794 0 
L 794 531 
z
" transform="scale(0.015625)"/>
       </defs>
       <use xlink:href="#DejaVuSans-31"/>
       <use xlink:href="#DejaVuSans-30" x="63.623047"/>
       <use xlink:href="#DejaVuSans-30" x="127.246094"/>
       <use xlink:href="#DejaVuSans-30" x="190.869141"/>
      </g>
     </g>
    </g>
    <g id="xtick_4">
     <g id="line2d_4">
      <g>
       <use xlink:href="#mbafa0e6ae0" x="264.134337" y="307.584" style="stroke: #000000; stroke-width: 0.8"/>
      </g>
     </g>
     <g id="text_4">
      <!-- 1500 -->
      <g transform="translate(251.409337 322.182437)scale(0.1 -0.1)">
       <use xlink:href="#DejaVuSans-31"/>
       <use xlink:href="#DejaVuSans-35" x="63.623047"/>
       <use xlink:href="#DejaVuSans-30" x="127.246094"/>
       <use xlink:href="#DejaVuSans-30" x="190.869141"/>
      </g>
     </g>
    </g>
    <g id="xtick_5">
     <g id="line2d_5">
      <g>
       <use xlink:href="#mbafa0e6ae0" x="327.568206" y="307.584" style="stroke: #000000; stroke-width: 0.8"/>
      </g>
     </g>
     <g id="text_5">
      <!-- 2000 -->
      <g transform="translate(314.843206 322.182437)scale(0.1 -0.1)">
       <defs>
        <path id="DejaVuSans-32" d="M 1228 531 
L 3431 531 
L 3431 0 
L 469 0 
L 469 531 
Q 828 903 1448 1529 
Q 2069 2156 2228 2338 
Q 2531 2678 2651 2914 
Q 2772 3150 2772 3378 
Q 2772 3750 2511 3984 
Q 2250 4219 1831 4219 
Q 1534 4219 1204 4116 
Q 875 4013 500 3803 
L 500 4441 
Q 881 4594 1212 4672 
Q 1544 4750 1819 4750 
Q 2544 4750 2975 4387 
Q 3406 4025 3406 3419 
Q 3406 3131 3298 2873 
Q 3191 2616 2906 2266 
Q 2828 2175 2409 1742 
Q 1991 1309 1228 531 
z
" transform="scale(0.015625)"/>
       </defs>
       <use xlink:href="#DejaVuSans-32"/>
       <use xlink:href="#DejaVuSans-30" x="63.623047"/>
       <use xlink:href="#DejaVuSans-30" x="127.246094"/>
       <use xlink:href="#DejaVuSans-30" x="190.869141"/>
      </g>
     </g>
    </g>
    <g id="xtick_6">
     <g id="line2d_6">
      <g>
       <use xlink:href="#mbafa0e6ae0" x="391.002076" y="307.584" style="stroke: #000000; stroke-width: 0.8"/>
      </g>
     </g>
     <g id="text_6">
      <!-- 2500 -->
      <g transform="translate(378.277076 322.182437)scale(0.1 -0.1)">
       <use xlink:href="#DejaVuSans-32"/>
       <use xlink:href="#DejaVuSans-35" x="63.623047"/>
       <use xlink:href="#DejaVuSans-30" x="127.246094"/>
       <use xlink:href="#DejaVuSans-30" x="190.869141"/>
      </g>
     </g>
    </g>
   </g>
   <g id="matplotlib.axis_2">
    <g id="ytick_1">
     <g id="line2d_7">
      <defs>
       <path id="m81ad68b720" d="M 0 0 
L -3.5 0 
" style="stroke: #000000; stroke-width: 0.8"/>
      </defs>
      <g>
       <use xlink:href="#m81ad68b720" x="57.6" y="268.282911" style="stroke: #000000; stroke-width: 0.8"/>
      </g>
     </g>
     <g id="text_7">
      <!-- 3900 -->
      <g transform="translate(25.15 272.08213)scale(0.1 -0.1)">
       <defs>
        <path id="DejaVuSans-33" d="M 2597 2516 
Q 3050 2419 3304 2112 
Q 3559 1806 3559 1356 
Q 3559 666 3084 287 
Q 2609 -91 1734 -91 
Q 1441 -91 1130 -33 
Q 819 25 488 141 
L 488 750 
Q 750 597 1062 519 
Q 1375 441 1716 441 
Q 2309 441 2620 675 
Q 2931 909 2931 1356 
Q 2931 1769 2642 2001 
Q 2353 2234 1838 2234 
L 1294 2234 
L 1294 2753 
L 1863 2753 
Q 2328 2753 2575 2939 
Q 2822 3125 2822 3475 
Q 2822 3834 2567 4026 
Q 2313 4219 1838 4219 
Q 1578 4219 1281 4162 
Q 984 4106 628 3988 
L 628 4550 
Q 988 4650 1302 4700 
Q 1616 4750 1894 4750 
Q 2613 4750 3031 4423 
Q 3450 4097 3450 3541 
Q 3450 3153 3228 2886 
Q 3006 2619 2597 2516 
z
" transform="scale(0.015625)"/>
        <path id="DejaVuSans-39" d="M 703 97 
L 703 672 
Q 941 559 1184 500 
Q 1428 441 1663 441 
Q 2288 441 2617 861 
Q 2947 1281 2994 2138 
Q 2813 1869 2534 1725 
Q 2256 1581 1919 1581 
Q 1219 1581 811 2004 
Q 403 2428 403 3163 
Q 403 3881 828 4315 
Q 1253 4750 1959 4750 
Q 2769 4750 3195 4129 
Q 3622 3509 3622 2328 
Q 3622 1225 3098 567 
Q 2575 -91 1691 -91 
Q 1453 -91 1209 -44 
Q 966 3 703 97 
z
M 1959 2075 
Q 2384 2075 2632 2365 
Q 2881 2656 2881 3163 
Q 2881 3666 2632 3958 
Q 2384 4250 1959 4250 
Q 1534 4250 1286 3958 
Q 1038 3666 1038 3163 
Q 1038 2656 1286 2365 
Q 1534 2075 1959 2075 
z
" transform="scale(0.015625)"/>
       </defs>
       <use xlink:href="#DejaVuSans-33"/>
       <use xlink:href="#DejaVuSans-39" x="63.623047"/>
       <use xlink:href="#DejaVuSans-30" x="127.246094"/>
       <use xlink:href="#DejaVuSans-30" x="190.869141"/>
      </g>
     </g>
    </g>
    <g id="ytick_2">
     <g id="line2d_8">
      <g>
       <use xlink:href="#m81ad68b720" x="57.6" y="228.245241" style="stroke: #000000; stroke-width: 0.8"/>
      </g>
     </g>
     <g id="text_8">
      <!-- 4000 -->
      <g transform="translate(25.15 232.04446)scale(0.1 -0.1)">
       <defs>
        <path id="DejaVuSans-34" d="M 2419 4116 
L 825 1625 
L 2419 1625 
L 2419 4116 
z
M 2253 4666 
L 3047 4666 
L 3047 1625 
L 3713 1625 
L 3713 1100 
L 3047 1100 
L 3047 0 
L 2419 0 
L 2419 1100 
L 313 1100 
L 313 1709 
L 2253 4666 
z
" transform="scale(0.015625)"/>
       </defs>
       <use xlink:href="#DejaVuSans-34"/>
       <use xlink:href="#DejaVuSans-30" x="63.623047"/>
       <use xlink:href="#DejaVuSans-30" x="127.246094"/>
       <use xlink:href="#DejaVuSans-30" x="190.869141"/>
      </g>
     </g>
    </g>
    <g id="ytick_3">
     <g id="line2d_9">
      <g>
       <use xlink:href="#m81ad68b720" x="57.6" y="188.20757" style="stroke: #000000; stroke-width: 0.8"/>
      </g>
     </g>
     <g id="text_9">
      <!-- 4100 -->
      <g transform="translate(25.15 192.006789)scale(0.1 -0.1)">
       <use xlink:href="#DejaVuSans-34"/>
       <use xlink:href="#DejaVuSans-31" x="63.623047"/>
       <use xlink:href="#DejaVuSans-30" x="127.246094"/>
       <use xlink:href="#DejaVuSans-30" x="190.869141"/>
      </g>
     </g>
    </g>
    <g id="ytick_4">
     <g id="line2d_10">
      <g>
       <use xlink:href="#m81ad68b720" x="57.6" y="148.1699" style="stroke: #000000; stroke-width: 0.8"/>
      </g>
     </g>
     <g id="text_10">
      <!-- 4200 -->
      <g transform="translate(25.15 151.969118)scale(0.1 -0.1)">
       <use xlink:href="#DejaVuSans-34"/>
       <use xlink:href="#DejaVuSans-32" x="63.623047"/>
       <use xlink:href="#DejaVuSans-30" x="127.246094"/>
       <use xlink:href="#DejaVuSans-30" x="190.869141"/>
      </g>
     </g>
    </g>
    <g id="ytick_5">
     <g id="line2d_11">
      <g>
       <use xlink:href="#m81ad68b720" x="57.6" y="108.132229" style="stroke: #000000; stroke-width: 0.8"/>
      </g>
     </g>
     <g id="text_11">
      <!-- 4300 -->
      <g transform="translate(25.15 111.931448)scale(0.1 -0.1)">
       <use xlink:href="#DejaVuSans-34"/>
       <use xlink:href="#DejaVuSans-33" x="63.623047"/>
       <use xlink:href="#DejaVuSans-30" x="127.246094"/>
       <use xlink:href="#DejaVuSans-30" x="190.869141"/>
      </g>
     </g>
    </g>
    <g id="ytick_6">
     <g id="line2d_12">
      <g>
       <use xlink:href="#m81ad68b720" x="57.6" y="68.094559" style="stroke: #000000; stroke-width: 0.8"/>
      </g>
     </g>
     <g id="text_12">
      <!-- 4400 -->
      <g transform="translate(25.15 71.893777)scale(0.1 -0.1)">
       <use xlink:href="#DejaVuSans-34"/>
       <use xlink:href="#DejaVuSans-34" x="63.623047"/>
       <use xlink:href="#DejaVuSans-30" x="127.246094"/>
       <use xlink:href="#DejaVuSans-30" x="190.869141"/>
      </g>
     </g>
    </g>
   </g>
   <g id="line2d_13">
    <path d="M 73.832727 210.433658 
L 73.959595 209.458326 
L 74.086463 211.768214 
L 74.21333 211.819532 
L 74.467066 210.638929 
L 74.720801 202.169437 
L 74.974537 204.838648 
L 75.101405 204.479325 
L 75.228272 205.095237 
L 75.608876 197.549661 
L 75.735743 198.627628 
L 75.989479 197.908983 
L 76.116347 197.703712 
L 76.750685 190.928099 
L 76.877553 189.542224 
L 77.131289 185.641093 
L 77.385024 189.490809 
L 77.638759 191.800697 
L 78.14623 185.692313 
L 78.273098 187.745612 
L 78.399966 186.616425 
L 78.653701 170.960484 
L 78.907437 173.835063 
L 79.034305 170.857848 
L 79.161172 171.114535 
L 79.414908 174.040334 
L 79.668643 172.141086 
L 79.795511 172.60324 
L 79.922379 173.886479 
L 80.049247 173.321689 
L 80.42985 169.77988 
L 80.683585 164.698342 
L 80.810453 166.0328 
L 80.937321 165.724893 
L 81.191056 160.694575 
L 81.317924 160.84843 
L 81.444792 160.489108 
L 81.571659 159.719243 
L 81.698527 157.255401 
L 81.952263 148.015848 
L 82.07913 148.323951 
L 82.205998 147.50267 
L 82.459734 143.601539 
L 82.586601 146.013965 
L 82.713469 145.911329 
L 82.967205 137.13393 
L 83.094072 136.466505 
L 83.347808 142.112833 
L 83.474675 141.650875 
L 83.728411 147.50267 
L 83.982146 144.525455 
L 84.235882 152.173667 
L 84.489617 147.400034 
L 84.616485 147.656526 
L 84.743353 147.245984 
L 84.870221 148.323951 
L 84.997088 151.249751 
L 85.123956 151.095699 
L 85.250824 148.477807 
L 85.377692 150.017732 
L 85.504559 154.072914 
L 85.631427 153.508321 
L 85.885163 146.629974 
L 86.138898 148.221315 
L 86.265766 147.091932 
L 86.392633 147.297203 
L 86.519501 148.426586 
L 86.646369 147.759162 
L 86.773237 149.042596 
L 86.900104 152.892312 
L 87.026972 151.86576 
L 87.280708 147.297203 
L 87.407575 148.221315 
L 87.661311 142.98553 
L 87.915046 138.776491 
L 88.168782 146.835245 
L 88.29565 146.373287 
L 88.422517 144.628091 
L 88.676253 149.247867 
L 88.803121 147.245984 
L 89.056856 141.137697 
L 89.310591 154.329602 
L 89.437459 153.662176 
L 89.564327 152.327718 
L 89.818062 158.436004 
L 89.94493 155.458789 
L 90.071798 180.816045 
L 90.198666 180.045985 
L 90.325533 180.76463 
L 90.579269 183.587794 
L 90.706137 181.123952 
L 90.959872 171.422637 
L 91.08674 172.295138 
L 91.974814 186.308322 
L 92.101682 185.846364 
L 92.22855 183.536574 
L 92.355417 183.331107 
L 92.482285 185.127719 
L 92.862888 177.787415 
L 92.989756 178.968018 
L 93.116624 177.120185 
L 93.243491 177.582143 
L 93.497227 184.871033 
L 93.624095 184.51171 
L 93.750962 185.487042 
L 93.87783 185.076499 
L 94.131566 181.739961 
L 94.258433 183.63921 
L 94.385301 182.869149 
L 94.639037 178.865382 
L 94.765904 178.865382 
L 94.892772 179.892129 
L 95.01964 179.840714 
L 95.146508 179.224704 
L 95.400243 174.707759 
L 95.527111 174.810395 
L 95.780846 182.355971 
L 95.907714 181.688546 
L 96.161449 179.943349 
L 96.288317 179.789298 
L 96.542053 180.148621 
L 96.66892 179.892129 
L 96.795788 178.916798 
L 97.176391 171.576493 
L 97.430127 179.738078 
L 97.683862 178.968018 
L 97.81073 177.274236 
L 98.064466 170.242034 
L 98.191333 262.841854 
L 98.445069 250.625282 
L 98.571936 250.933287 
L 99.333143 210.433658 
L 99.460011 209.663695 
L 99.713746 203.144671 
L 99.967482 206.891849 
L 100.094349 205.249288 
L 100.348085 196.985067 
L 100.60182 194.82923 
L 100.728688 194.726497 
L 101.109291 202.528759 
L 101.616762 196.31774 
L 101.870498 192.211337 
L 101.997365 190.774047 
L 102.251101 180.816045 
L 102.504836 177.736194 
L 102.631704 178.300788 
L 102.758572 179.584027 
L 102.88544 178.968018 
L 103.139175 175.785531 
L 103.266043 173.783647 
L 103.392911 173.629792 
L 103.519778 175.477624 
L 103.646646 172.859731 
L 103.900382 162.2345 
L 104.154117 167.572726 
L 104.53472 157.665943 
L 104.661588 156.588172 
L 105.042191 140.367637 
L 105.169059 142.420936 
L 105.295927 141.856342 
L 105.549662 134.977996 
L 105.803398 138.365753 
L 106.057133 135.183267 
L 106.184001 134.310766 
L 106.310869 190.671412 
L 106.437736 188.053519 
L 106.691472 194.007852 
L 107.072075 182.971785 
L 107.198943 183.998532 
L 107.325811 183.382522 
L 107.452678 180.969901 
L 107.579546 181.894013 
L 107.833281 187.283654 
L 107.960149 185.076499 
L 108.087017 185.538457 
L 108.213885 183.587794 
L 108.46762 178.506059 
L 108.594488 179.122069 
L 108.975091 186.462373 
L 109.101959 186.308322 
L 109.228827 186.667645 
L 109.60943 184.409074 
L 109.863165 178.865382 
L 109.990033 179.070848 
L 110.116901 178.865382 
L 110.243769 178.352204 
L 110.370636 178.403424 
L 110.624372 173.167834 
L 110.878107 179.789298 
L 111.004975 178.300788 
L 111.25871 180.251452 
L 111.512446 171.011899 
L 111.639314 176.196269 
L 111.766181 176.35032 
L 111.893049 171.268586 
L 112.019917 170.755212 
L 112.146785 171.525273 
L 112.40052 164.903613 
L 112.654256 167.264819 
L 112.907991 160.129785 
L 113.161727 165.724893 
L 113.288594 164.133552 
L 113.415462 165.724893 
L 113.54233 165.519622 
L 113.669197 166.289487 
L 113.796065 171.473857 
L 113.922933 170.755212 
L 114.049801 164.646926 
L 114.176668 163.979697 
L 114.303536 166.186851 
L 114.430404 132.257467 
L 114.684139 136.261234 
L 114.811007 135.74786 
L 115.064743 136.36387 
L 115.318478 133.797392 
L 115.445346 133.797392 
L 115.572214 135.645225 
L 115.825949 142.3183 
L 116.079685 135.491369 
L 116.33342 142.677623 
L 116.460288 141.188917 
L 116.587155 141.804927 
L 116.840891 148.323951 
L 116.967759 147.50267 
L 117.094626 147.50267 
L 117.348362 146.116601 
L 117.602097 148.426586 
L 117.728965 146.73261 
L 117.855833 148.118484 
L 118.109568 155.715476 
L 118.363304 154.226966 
L 118.617039 156.177434 
L 118.743907 157.974046 
L 118.997643 162.593822 
L 119.251378 150.890428 
L 119.505114 154.637508 
L 119.631981 152.327718 
L 119.758849 153.610957 
L 120.012584 160.283837 
L 120.26632 159.000598 
L 120.773791 162.490991 
L 120.900659 163.158416 
L 121.40813 160.078565 
L 121.661865 159.205869 
L 121.915601 161.156532 
L 122.169336 159.821878 
L 122.296204 160.899846 
L 122.423072 159.873294 
L 122.549939 198.216988 
L 122.676807 198.781581 
L 122.803675 198.370941 
L 123.05741 196.523109 
L 123.311146 198.678946 
L 123.564881 192.827346 
L 123.818617 197.241754 
L 124.072352 194.007852 
L 124.326088 199.500226 
L 124.579823 197.190338 
L 124.833559 206.583844 
L 125.087294 197.75503 
L 125.467897 201.142787 
L 125.721633 205.095237 
L 125.975368 203.042036 
L 126.102236 203.35004 
L 126.229104 202.990718 
L 126.355971 201.91275 
L 126.609707 198.114352 
L 126.863442 195.547777 
L 127.244046 198.16567 
L 127.497781 204.479325 
L 127.751517 199.910867 
L 128.005252 202.374708 
L 128.385855 192.057384 
L 128.512723 192.468024 
L 128.766458 201.245521 
L 129.020194 197.190338 
L 129.147062 197.447025 
L 129.273929 197.190338 
L 129.400797 197.241754 
L 129.654533 190.671412 
L 129.7814 192.057384 
L 129.908268 196.009735 
L 130.035136 196.471791 
L 130.162004 198.370941 
L 130.288871 202.272073 
L 130.415739 201.50211 
L 130.542607 198.524992 
L 130.669475 183.074616 
L 131.303813 179.173484 
L 131.557549 172.243918 
L 131.684416 172.346553 
L 131.938152 176.709643 
L 132.191887 185.487042 
L 132.318755 185.589677 
L 132.572491 187.232239 
L 133.206829 180.405307 
L 133.333697 178.249568 
L 133.460565 178.916798 
L 133.587433 180.867265 
L 133.841168 178.044101 
L 134.094904 181.380639 
L 134.221771 181.432054 
L 134.348639 184.51171 
L 134.475507 184.409074 
L 134.729242 178.352204 
L 134.982978 182.817929 
L 135.236713 178.660111 
L 135.363581 178.044101 
L 135.617316 180.200036 
L 135.871052 176.504176 
L 135.99792 176.966134 
L 136.378523 179.892129 
L 136.505391 179.892129 
L 136.759126 177.222821 
L 136.885994 176.914914 
L 137.139729 177.684779 
L 137.520333 172.295138 
L 137.6472 171.935815 
L 137.774068 171.114535 
L 138.027803 174.553708 
L 138.154671 174.399657 
L 138.281539 174.451072 
L 138.408407 172.911147 
L 138.662142 165.365571 
L 138.915878 77.847289 
L 139.042745 73.946158 
L 139.169613 78.771206 
L 139.423349 65.476666 
L 139.550216 66.246726 
L 139.677084 62.44823 
L 139.803952 53.978738 
L 139.93082 53.568 
L 140.057687 56.493995 
L 140.184555 55.621299 
L 140.311423 57.520547 
L 140.692026 67.478549 
L 140.818894 68.710568 
L 140.945761 68.351245 
L 141.072629 68.453881 
L 141.326365 72.662919 
L 142.087571 96.531666 
L 142.214439 97.198895 
L 142.341307 95.504919 
L 142.468174 98.020176 
L 142.595042 98.174227 
L 142.848778 90.320548 
L 143.102513 92.425068 
L 143.356249 100.535433 
L 143.483116 99.970644 
L 143.609984 100.84334 
L 144.117455 111.674038 
L 144.244323 110.544851 
L 144.498058 103.666504 
L 144.751794 113.059912 
L 144.878661 112.392683 
L 145.005529 110.647486 
L 145.132397 111.981945 
L 145.259265 116.191179 
L 145.386132 114.95916 
L 145.639868 103.307181 
L 145.893603 111.058029 
L 146.020471 109.210197 
L 146.147339 109.672154 
L 146.401074 116.139763 
L 146.527942 116.755772 
L 146.781678 114.805109 
L 146.908545 172.808511 
L 147.035413 172.551824 
L 147.289148 176.196269 
L 147.669752 165.98158 
L 147.796619 167.059547 
L 147.923487 166.751445 
L 148.050355 166.0328 
L 148.177223 167.829412 
L 148.430958 173.373105 
L 148.811561 165.519622 
L 149.065297 167.521506 
L 149.319032 166.0328 
L 149.699636 173.065198 
L 149.826503 172.65446 
L 149.953371 173.013783 
L 150.080239 172.757096 
L 150.460842 166.186851 
L 150.58771 168.034684 
L 150.714577 168.188735 
L 150.841445 165.724893 
L 150.968313 165.827529 
L 151.095181 166.64881 
L 151.222048 165.314155 
L 151.348916 165.262935 
L 151.602652 166.956717 
L 151.729519 167.162183 
L 151.856387 165.673478 
L 152.110123 159.205869 
L 152.23699 164.492875 
L 152.363858 164.287604 
L 152.490726 159.667827 
L 152.744461 165.314155 
L 152.998197 158.436004 
L 153.251932 161.823762 
L 153.505668 153.764812 
L 153.632535 153.662176 
L 154.013139 161.002482 
L 154.140006 158.846547 
L 154.266874 159.513971 
L 154.393742 164.441655 
L 154.52061 164.287604 
L 154.774345 159.257285 
L 154.901213 160.129785 
L 155.028081 206.378475 
L 155.154948 204.633279 
L 155.408684 209.663695 
L 155.535552 209.047686 
L 155.916155 201.348157 
L 156.16989 203.195989 
L 156.423626 204.376592 
L 156.550493 203.863316 
L 156.804229 200.834881 
L 156.931097 201.91275 
L 157.057964 201.861432 
L 157.3117 199.346273 
L 157.438568 198.832997 
L 157.692303 196.882431 
L 157.946039 195.445141 
L 158.072906 195.753146 
L 158.326642 191.492692 
L 158.45351 191.852015 
L 158.707245 191.492692 
L 158.834113 192.519342 
L 158.96098 192.416706 
L 159.341584 188.823579 
L 159.468451 189.388173 
L 159.595319 188.156155 
L 159.849055 180.867265 
L 159.975922 183.895896 
L 160.10279 183.536574 
L 160.229658 178.506059 
L 160.356526 178.557475 
L 160.610261 184.665761 
L 160.990864 178.968018 
L 161.117732 179.994765 
L 161.2446 179.224704 
L 161.371468 177.01755 
L 161.498335 177.479508 
L 161.625203 178.762746 
L 161.878939 172.962367 
L 162.005806 173.42452 
L 162.132674 174.553708 
L 162.386409 172.449189 
L 162.513277 172.243918 
L 162.767013 167.264819 
L 162.89388 167.983464 
L 163.020748 166.186851 
L 163.147616 155.61284 
L 163.655087 153.918864 
L 163.908822 155.715476 
L 164.289426 147.143348 
L 164.923764 154.740144 
L 165.050632 153.405685 
L 165.1775 154.586288 
L 165.431235 161.361804 
L 165.684971 158.076682 
L 165.811838 159.052013 
L 165.938706 158.590055 
L 166.065574 159.513971 
L 166.192442 161.259168 
L 166.319309 160.591939 
L 166.446177 161.926398 
L 166.573045 165.570842 
L 166.699913 164.800977 
L 166.953648 159.35992 
L 167.080516 159.821878 
L 167.207384 161.207753 
L 167.334251 161.259168 
L 167.461119 159.97593 
L 167.587987 160.335252 
L 167.841722 161.515855 
L 168.095458 167.264819 
L 168.349193 160.899846 
L 168.476061 161.721126 
L 168.602929 163.261052 
L 168.983532 158.281953 
L 169.1104 153.918864 
L 169.364135 160.951066 
L 169.617871 157.974046 
L 169.871606 161.464439 
L 170.125342 157.768579 
L 170.252209 158.076682 
L 170.505945 161.823762 
L 170.75968 159.513971 
L 171.013416 167.521506 
L 171.140283 164.954833 
L 171.267151 178.146737 
L 171.394019 175.836947 
L 171.520887 176.093633 
L 171.774622 179.122069 
L 171.90149 178.916798 
L 172.155225 173.783647 
L 172.662696 183.793065 
L 172.789564 185.487042 
L 173.0433 183.331107 
L 173.297035 185.230355 
L 173.550771 182.817929 
L 173.804506 185.743728 
L 173.931374 184.46049 
L 174.185109 185.692313 
L 174.311977 184.51171 
L 174.438845 184.922448 
L 174.69258 189.593445 
L 174.819448 189.490809 
L 174.946316 189.901449 
L 175.073183 189.542224 
L 175.326919 186.000416 
L 175.453787 186.872916 
L 175.580654 186.359738 
L 175.961258 183.125836 
L 176.088125 183.587794 
L 176.214993 182.407191 
L 176.468729 178.044101 
L 176.849332 181.483275 
L 177.103067 186.719061 
L 177.356803 183.228471 
L 177.864274 181.123952 
L 178.118009 178.454839 
L 178.371745 179.019433 
L 178.752348 184.922448 
L 179.132951 179.019433 
L 179.259819 176.555592 
L 179.386687 266.845621 
L 179.513554 263.355228 
L 179.640422 263.457864 
L 179.76729 264.895153 
L 180.021025 257.092891 
L 180.147893 258.273494 
L 180.274761 257.092891 
L 180.401628 252.781119 
L 180.528496 252.832437 
L 180.655364 253.859086 
L 181.289703 244.927636 
L 181.41657 244.670949 
L 181.670306 237.433378 
L 181.797174 237.997972 
L 182.050909 245.389594 
L 182.177777 244.927636 
L 182.304645 245.286959 
L 182.431512 249.393361 
L 182.55838 249.393361 
L 182.685248 244.722267 
L 182.812116 244.260309 
L 182.938983 245.440912 
L 183.319586 238.921985 
L 183.446454 238.613981 
L 183.573322 239.127257 
L 183.70019 239.127257 
L 183.827057 238.408612 
L 184.080793 241.488463 
L 184.461396 238.716617 
L 184.588264 239.229892 
L 184.841999 242.104472 
L 185.095735 230.965769 
L 185.222603 231.992321 
L 185.34947 234.302209 
L 185.476338 232.967653 
L 186.364412 207.353807 
L 186.745015 202.836764 
L 186.871883 202.066802 
L 187.252486 196.266422 
L 187.379354 194.264539 
L 187.506222 189.69608 
L 187.63309 189.234122 
L 187.886825 191.800697 
L 188.013693 191.390057 
L 188.267428 186.154271 
L 188.394296 186.462373 
L 188.521164 187.694196 
L 188.774899 184.51171 
L 189.028635 190.31209 
L 189.28237 185.641093 
L 189.662973 183.536574 
L 189.789841 182.355971 
L 189.916709 182.715293 
L 190.170444 186.205687 
L 190.297312 185.949 
L 190.42418 186.308322 
L 190.677915 185.076499 
L 190.804783 185.025084 
L 191.058519 178.454839 
L 191.185386 179.892129 
L 191.312254 179.840714 
L 191.439122 178.300788 
L 191.692857 179.481391 
L 191.819725 178.711526 
L 191.946593 178.762746 
L 192.327196 183.536574 
L 192.707799 177.01755 
L 192.961535 180.456723 
L 193.21527 174.194386 
L 193.342138 173.732427 
L 193.595873 171.422637 
L 193.722741 173.42452 
L 193.849609 171.21717 
L 193.976477 166.443538 
L 194.103344 168.342786 
L 194.230212 173.013783 
L 194.35708 173.270469 
L 194.483948 172.038451 
L 194.737683 174.297021 
L 194.991419 179.789298 
L 195.118286 178.454839 
L 195.372022 172.243918 
L 195.498889 175.939582 
L 195.625757 184.563126 
L 195.752625 184.049752 
L 196.00636 185.538457 
L 196.133228 185.743728 
L 196.260096 186.205687 
L 196.513831 178.557475 
L 196.640699 180.354087 
L 196.894435 184.563126 
L 197.021302 185.435822 
L 197.14817 184.46049 
L 197.275038 179.892129 
L 197.401906 179.532807 
L 197.655641 185.025084 
L 197.782509 183.741845 
L 197.909377 184.203803 
L 198.036244 185.589677 
L 198.416847 178.865382 
L 198.543715 179.173484 
L 198.670583 178.865382 
L 198.797451 178.146737 
L 198.924318 178.146737 
L 199.051186 178.352204 
L 199.304922 180.405307 
L 199.558657 178.814162 
L 199.685525 179.532807 
L 199.93926 179.27612 
L 200.066128 181.53469 
L 200.192996 181.329223 
L 200.446731 170.190618 
L 200.700467 172.397773 
L 200.954202 169.317922 
L 201.207938 173.578376 
L 201.334805 172.808511 
L 201.461673 170.909263 
L 201.588541 171.371221 
L 201.842276 177.274236 
L 202.096012 173.270469 
L 202.22288 175.067081 
L 202.857218 166.340903 
L 203.110954 171.730544 
L 203.364689 166.392123 
L 203.491557 168.137319 
L 203.87216 166.597589 
L 204.125896 166.597589 
L 204.252764 166.135436 
L 204.506499 167.367454 
L 204.760234 163.928281 
L 205.01397 165.724893 
L 205.267705 164.236383 
L 205.521441 168.240151 
L 205.775176 167.572726 
L 206.028912 174.297021 
L 206.282647 170.293254 
L 206.409515 170.652577 
L 206.536383 170.447305 
L 206.663251 171.319806 
L 206.916986 173.783647 
L 207.043854 173.835063 
L 207.297589 173.373105 
L 207.551325 171.987231 
L 207.80506 173.013783 
L 208.058796 170.498525 
L 208.312531 172.551824 
L 208.439399 172.911147 
L 208.693134 175.631675 
L 208.94687 172.911147 
L 209.200605 176.247685 
L 209.454341 170.909263 
L 209.708076 166.135436 
L 209.961812 175.067081 
L 210.215547 171.114535 
L 210.469283 172.859731 
L 210.59615 173.373105 
L 210.849886 170.447305 
L 211.103621 172.757096 
L 211.230489 172.449189 
L 211.357357 172.192502 
L 211.611092 178.608891 
L 211.73796 177.83883 
L 211.864828 179.686662 
L 211.991696 179.430171 
L 212.245431 181.945233 
L 212.626034 176.966134 
L 212.752902 175.426404 
L 213.006638 178.300788 
L 213.133505 178.916798 
L 213.387241 186.513594 
L 213.640976 184.973668 
L 213.767844 187.026967 
L 213.894712 186.616425 
L 214.148447 181.894013 
L 214.275315 184.768397 
L 214.52905 179.32734 
L 214.782786 185.384406 
L 215.036521 177.736194 
L 215.290257 183.793065 
L 215.417125 183.947116 
L 215.543992 184.357854 
L 215.924596 182.920565 
L 216.178331 184.203803 
L 216.305199 183.279887 
L 216.558934 177.325456 
L 216.81267 180.610774 
L 217.066405 178.198153 
L 217.193273 178.865382 
L 217.320141 178.711526 
L 217.447008 179.122069 
L 217.700744 182.150504 
L 217.954479 177.941466 
L 218.081347 178.608891 
L 218.208215 178.300788 
L 218.335083 178.454839 
L 218.46195 178.865382 
L 218.842554 172.757096 
L 218.969421 173.886479 
L 219.350025 179.994765 
L 219.476892 178.762746 
L 219.857495 170.703992 
L 219.984363 205.608513 
L 220.238099 196.625745 
L 220.364966 198.268306 
L 220.618702 189.542224 
L 220.74557 189.234122 
L 220.999305 178.814162 
L 221.126173 178.968018 
L 221.253041 178.814162 
L 221.379908 176.40154 
L 221.506776 176.966134 
L 221.633644 178.454839 
L 221.760512 178.557475 
L 221.887379 178.403424 
L 222.267983 172.295138 
L 222.521718 173.167834 
L 223.156057 185.846364 
L 223.282924 185.794949 
L 223.409792 185.89778 
L 223.663528 179.738078 
L 223.790395 179.635442 
L 224.170999 176.35032 
L 224.297866 176.914914 
L 224.551602 179.27612 
L 224.805337 178.095517 
L 224.932205 178.968018 
L 225.059073 178.968018 
L 225.185941 180.507943 
L 225.312808 184.357854 
L 225.439676 183.433938 
L 225.693411 170.601357 
L 225.947147 178.762746 
L 226.074015 176.914914 
L 226.200882 172.705876 
L 226.32775 172.346553 
L 226.454618 174.399657 
L 226.581486 172.089866 
L 226.835221 163.877061 
L 227.088957 167.059547 
L 227.342692 164.339019 
L 227.596428 167.47009 
L 227.977031 160.181201 
L 228.103899 177.83883 
L 228.230766 176.35032 
L 228.484502 179.584027 
L 228.738237 170.909263 
L 228.991973 166.854081 
L 229.245708 165.468206 
L 229.372576 166.0328 
L 229.499444 167.316039 
L 229.626311 167.059547 
L 229.880047 165.570842 
L 230.26065 160.745794 
L 230.387518 161.156532 
L 230.514386 160.232616 
L 230.894989 167.008132 
L 231.148724 166.392123 
L 231.275592 165.827529 
L 231.656195 159.103233 
L 231.783063 160.027149 
L 231.909931 160.437888 
L 232.417402 153.35427 
L 232.924873 159.821878 
L 233.05174 158.743911 
L 233.305476 152.840896 
L 233.559211 159.052013 
L 233.812947 153.200219 
L 233.939815 155.561425 
L 234.19355 149.504554 
L 234.447286 154.534873 
L 234.701021 145.2441 
L 234.954756 149.350502 
L 235.081624 148.631858 
L 235.208492 150.582521 
L 235.33536 150.223199 
L 235.462227 149.196452 
L 235.715963 155.407569 
L 235.969698 147.861993 
L 236.096566 151.762929 
L 236.223434 202.528759 
L 236.350302 199.089586 
L 236.477169 199.243637 
L 236.730905 203.863316 
L 237.111508 196.471791 
L 237.492111 198.678946 
L 237.618979 196.933749 
L 237.872714 192.9813 
L 238.12645 198.986951 
L 238.380185 192.621978 
L 238.507053 197.293072 
L 238.633921 197.857665 
L 238.887656 190.774047 
L 239.014524 192.775931 
L 239.141392 191.749379 
L 239.395127 186.821696 
L 239.648863 187.796832 
L 239.775731 186.205687 
L 239.902598 186.051635 
L 240.029466 185.127719 
L 240.156334 185.538457 
L 240.283202 189.388173 
L 240.410069 188.566893 
L 240.536937 186.154271 
L 240.790672 192.57066 
L 241.044408 182.355971 
L 241.298143 185.179135 
L 241.551879 180.405307 
L 241.805614 182.869149 
L 242.05935 180.507943 
L 242.313085 179.892129 
L 242.566821 178.095517 
L 242.693689 181.175368 
L 242.820556 181.123952 
L 242.947424 178.506059 
L 243.074292 178.660111 
L 243.328027 174.040334 
L 243.581763 178.095517 
L 243.835498 176.452956 
L 243.962366 178.865382 
L 244.089234 178.403424 
L 244.216101 173.167834 
L 244.342969 154.996831 
L 244.469837 154.637508 
L 244.596705 152.378938 
L 244.723572 153.918864 
L 244.85044 159.052013 
L 244.977308 159.308505 
L 245.357911 148.529222 
L 245.484779 148.580638 
L 245.738514 155.66406 
L 245.99225 153.764812 
L 246.499721 159.924514 
L 246.753456 161.977813 
L 247.134059 157.409452 
L 247.260927 158.281953 
L 247.514663 165.776113 
L 247.64153 160.951066 
L 247.768398 161.464439 
L 247.895266 167.008132 
L 248.022134 167.008132 
L 248.275869 160.643159 
L 248.529605 161.926398 
L 248.78334 159.565192 
L 249.290811 167.932048 
L 249.544547 167.624141 
L 249.671414 165.622258 
L 250.052017 154.329602 
L 250.178885 153.251634 
L 250.305753 156.998714 
L 250.559488 168.291371 
L 250.686356 166.135436 
L 250.813224 166.802861 
L 250.940092 168.445422 
L 251.193827 166.340903 
L 251.447563 159.154649 
L 251.57443 161.515855 
L 251.701298 166.802861 
L 251.955034 167.880828 
L 252.208769 176.042218 
L 252.335637 175.58026 
L 252.589372 185.641093 
L 252.71624 187.694196 
L 252.969975 184.614541 
L 253.096843 185.487042 
L 253.223711 183.331107 
L 253.477446 177.582143 
L 253.604314 179.789298 
L 253.85805 187.694196 
L 253.984917 187.848248 
L 254.111785 186.667645 
L 254.492388 192.673296 
L 254.746124 185.743728 
L 254.999859 188.515477 
L 255.126727 184.306439 
L 255.253595 183.895896 
L 255.380463 186.513594 
L 255.634198 182.509827 
L 255.887933 185.641093 
L 256.141669 190.928099 
L 256.268537 189.080266 
L 256.395404 184.819812 
L 256.522272 184.665761 
L 256.64914 185.435822 
L 256.902875 184.922448 
L 257.156611 183.844481 
L 257.410346 185.692313 
L 257.537214 184.973668 
L 257.917817 177.068965 
L 258.044685 179.738078 
L 258.298421 187.026967 
L 258.552156 183.895896 
L 258.679024 183.382522 
L 258.932759 184.51171 
L 259.186495 178.506059 
L 259.313362 178.968018 
L 259.44023 177.787415 
L 259.567098 177.684779 
L 259.693966 179.019433 
L 259.820833 178.968018 
L 259.947701 179.892129 
L 260.074569 179.635442 
L 260.455172 170.087983 
L 260.58204 222.701548 
L 260.708908 222.290908 
L 260.962643 226.962002 
L 261.216379 218.646463 
L 261.343246 220.750982 
L 261.596982 214.745332 
L 261.72385 217.722547 
L 261.850717 216.849949 
L 262.104453 206.737798 
L 262.23132 206.635162 
L 262.358188 206.994485 
L 262.485056 206.327158 
L 262.738791 196.625745 
L 262.865659 197.13902 
L 262.992527 198.884315 
L 263.246262 196.933749 
L 263.37313 198.781581 
L 263.626866 206.27584 
L 263.880601 197.190338 
L 264.134337 199.192222 
L 264.51494 189.850131 
L 264.641808 191.082052 
L 264.768675 190.209454 
L 264.895543 185.641093 
L 265.022411 185.538457 
L 265.149278 190.517458 
L 265.276146 190.928099 
L 265.529882 184.768397 
L 265.656749 185.230355 
L 265.783617 185.076499 
L 265.910485 186.821696 
L 266.037353 186.000416 
L 266.291088 175.52904 
L 266.671691 187.591561 
L 267.052295 180.456723 
L 267.432898 170.857848 
L 267.559766 170.601357 
L 267.813501 172.038451 
L 268.067236 168.188735 
L 268.320972 175.52904 
L 268.574707 164.133552 
L 268.701575 185.281771 
L 268.955311 189.388173 
L 269.462782 177.120185 
L 269.716517 172.60324 
L 270.09712 179.378755 
L 270.223988 179.584027 
L 270.350856 179.019433 
L 270.477724 177.684779 
L 270.731459 173.886479 
L 270.858327 173.373105 
L 270.985195 172.243918 
L 271.112062 174.451072 
L 271.365798 180.148621 
L 271.492665 178.968018 
L 271.619533 179.070848 
L 271.746401 179.019433 
L 271.873269 179.584027 
L 272.000136 178.352204 
L 272.253872 171.114535 
L 272.507607 173.681012 
L 272.634475 172.962367 
L 272.761343 174.245801 
L 272.888211 174.09175 
L 273.141946 171.83318 
L 273.395682 172.449189 
L 273.522549 173.732427 
L 273.649417 173.065198 
L 273.903153 167.521506 
L 274.156888 173.681012 
L 274.283756 172.859731 
L 274.537491 174.964251 
L 274.791227 170.242034 
L 275.044962 166.905496 
L 275.298698 166.238267 
L 275.679301 173.373105 
L 275.806169 173.270469 
L 276.059904 172.397773 
L 276.186772 172.911147 
L 276.31364 172.808511 
L 276.440507 172.089866 
L 276.567375 172.757096 
L 276.694243 171.063314 
L 276.821111 208.226405 
L 276.947978 204.787232 
L 277.201714 208.329041 
L 277.455449 206.789116 
L 277.582317 204.479325 
L 277.709185 200.116236 
L 277.836052 201.142787 
L 277.96292 205.454559 
L 278.089788 205.197872 
L 278.470391 197.498343 
L 278.597259 197.857665 
L 278.724127 198.781581 
L 278.977862 197.241754 
L 279.10473 198.319624 
L 279.231598 198.011619 
L 279.485333 191.54401 
L 279.865936 189.182902 
L 280.119672 184.46049 
L 280.373407 185.127719 
L 280.500275 185.33299 
L 280.627143 186.616425 
L 280.880878 185.127719 
L 281.007746 185.179135 
L 281.134614 184.922448 
L 281.261481 186.257102 
L 281.388349 185.89778 
L 281.642085 177.222821 
L 281.89582 178.608891 
L 282.022688 176.658227 
L 282.276423 180.405307 
L 282.403291 178.916798 
L 282.530159 175.990998 
L 282.657027 176.504176 
L 282.783894 178.506059 
L 283.03763 172.551824 
L 283.164497 172.808511 
L 283.291365 174.861615 
L 283.418233 174.040334 
L 283.671968 170.190618 
L 283.798836 170.703992 
L 283.925704 169.677245 
L 284.179439 165.468206 
L 284.433175 166.340903 
L 284.560043 166.443538 
L 284.68691 164.954833 
L 285.194381 140.983646 
L 285.321249 142.831478 
L 285.448117 148.426586 
L 285.574985 148.580638 
L 285.955588 138.468389 
L 286.082456 138.519804 
L 286.336191 142.574987 
L 286.463059 141.958978 
L 286.716794 148.272535 
L 286.97053 143.550123 
L 287.224265 150.736377 
L 287.478001 147.400034 
L 287.604868 147.913213 
L 287.731736 146.06538 
L 287.858604 146.784025 
L 288.112339 153.251634 
L 288.239207 149.299087 
L 288.366075 149.709825 
L 288.492943 154.432237 
L 288.61981 154.740144 
L 288.873546 145.654642 
L 289.127281 150.531106 
L 289.254149 148.323951 
L 289.507884 148.529222 
L 289.634752 148.221315 
L 289.888488 155.099466 
L 290.015355 154.278186 
L 290.142223 154.586288 
L 290.269091 152.019615 
L 290.395959 147.091932 
L 290.522826 147.348619 
L 290.649694 145.962745 
L 290.90343 136.979879 
L 291.157165 149.709825 
L 291.410901 147.091932 
L 291.664636 150.171783 
L 291.791504 147.913213 
L 292.045239 139.803043 
L 292.298975 149.145231 
L 292.55271 147.451255 
L 292.806446 158.897962 
L 292.933313 155.099466 
L 293.060181 163.363687 
L 293.187049 160.591939 
L 293.440784 165.314155 
L 293.948255 154.17555 
L 294.582594 169.626025 
L 294.709462 167.264819 
L 294.83633 167.983464 
L 295.090065 174.040334 
L 295.3438 168.90738 
L 295.470668 171.319806 
L 295.597536 169.523389 
L 295.724404 164.441655 
L 295.851271 165.057664 
L 295.978139 167.624141 
L 296.105007 165.570842 
L 296.231875 165.827529 
L 296.48561 173.527156 
L 296.612478 172.500409 
L 296.739346 173.116418 
L 296.866213 172.397773 
L 296.993081 170.601357 
L 297.119949 170.857848 
L 297.246817 169.77988 
L 297.500552 167.059547 
L 297.754288 165.262935 
L 298.008023 166.340903 
L 298.261758 166.854081 
L 298.515494 159.565192 
L 298.769229 168.496642 
L 298.896097 166.751445 
L 299.022965 166.597589 
L 299.149833 168.291371 
L 299.403568 165.365571 
L 299.657304 167.829412 
L 299.784171 165.724893 
L 300.037907 158.436004 
L 300.164775 159.616607 
L 300.41851 166.546174 
L 300.545378 167.264819 
L 300.672246 167.059547 
L 301.052849 158.692691 
L 301.179717 295.488 
L 301.433452 294.871991 
L 301.56032 293.332163 
L 301.814055 288.04506 
L 301.940923 288.147793 
L 302.194658 279.421614 
L 302.321526 282.039409 
L 302.448394 281.526133 
L 302.702129 272.235361 
L 302.828997 272.594683 
L 302.955865 274.185926 
L 303.082733 272.697319 
L 303.336468 263.560499 
L 303.463336 263.714551 
L 303.590204 263.30391 
L 303.717071 264.433098 
L 304.224542 276.495814 
L 304.478278 269.463514 
L 304.605145 269.360879 
L 305.112616 264.330462 
L 305.239484 264.073775 
L 305.366352 264.689785 
L 305.620087 262.123307 
L 305.873823 265.049107 
L 306.254426 262.944588 
L 306.381294 263.355228 
L 306.508162 265.357112 
L 306.635029 263.611817 
L 306.888765 254.680367 
L 307.1425 260.070008 
L 307.649971 248.520763 
L 308.030574 231.581681 
L 308.157442 231.119723 
L 308.411178 228.707199 
L 308.538045 228.142605 
L 308.791781 226.243357 
L 308.918649 225.730082 
L 309.172384 218.287141 
L 309.299252 180.405307 
L 309.42612 180.0974 
L 309.552987 180.918681 
L 309.679855 180.045985 
L 310.060458 171.16595 
L 310.187326 171.063314 
L 310.314194 170.549941 
L 310.441061 171.16595 
L 310.821665 173.886479 
L 311.0754 171.422637 
L 311.202268 171.987231 
L 311.329136 170.755212 
L 311.582871 165.673478 
L 311.709739 167.41887 
L 311.963474 174.656344 
L 312.21721 172.705876 
L 312.344078 173.373105 
L 312.470945 172.962367 
L 312.851549 165.416986 
L 313.105284 166.546174 
L 313.232152 165.878944 
L 313.35902 165.930165 
L 313.485887 166.956717 
L 313.612755 166.854081 
L 313.739623 167.777997 
L 313.993358 171.422637 
L 314.500829 163.825645 
L 314.754565 167.572726 
L 315.0083 161.772346 
L 315.135168 162.747678 
L 315.388903 159.513971 
L 315.515771 160.335252 
L 315.642639 159.462556 
L 315.769507 157.203986 
L 315.896374 158.384588 
L 316.276978 163.466323 
L 316.403845 163.466323 
L 316.530713 162.183084 
L 316.657581 162.490991 
L 316.911316 167.880828 
L 317.165052 160.027149 
L 317.291919 160.745794 
L 317.418787 173.578376 
L 317.672523 170.139203 
L 317.926258 173.527156 
L 318.179994 167.829412 
L 318.306861 164.903613 
L 318.433729 166.700225 
L 318.687465 171.884595 
L 318.9412 165.930165 
L 319.068068 167.983464 
L 319.321803 173.116418 
L 319.448671 172.192502 
L 319.575539 172.089866 
L 319.829274 173.065198 
L 319.956142 171.319806 
L 320.08301 171.627908 
L 320.209877 173.475741 
L 320.590481 164.184968 
L 320.844216 167.213403 
L 320.971084 167.162183 
L 321.605423 174.194386 
L 321.73229 172.911147 
L 321.986026 176.247685 
L 322.239761 164.184968 
L 322.493497 171.319806 
L 322.620364 166.751445 
L 322.747232 166.854081 
L 322.8741 173.116418 
L 323.000968 173.886479 
L 323.127835 171.83318 
L 323.381571 172.243918 
L 323.508439 171.011899 
L 323.762174 165.262935 
L 324.01591 169.933932 
L 324.142777 166.597589 
L 324.269645 166.64881 
L 324.396513 167.932048 
L 324.523381 165.776113 
L 324.650248 166.494758 
L 324.903984 171.781764 
L 325.030852 171.781764 
L 325.284587 174.451072 
L 325.411455 171.114535 
L 325.538322 177.376872 
L 325.792058 173.167834 
L 325.918926 173.629792 
L 326.172661 180.507943 
L 326.299529 180.302672 
L 326.680132 170.703992 
L 326.933868 176.760863 
L 327.187603 171.679128 
L 327.441339 179.173484 
L 327.568206 178.608891 
L 327.821942 184.357854 
L 327.94881 184.049752 
L 328.329413 177.325456 
L 328.456281 176.863498 
L 328.710016 186.359738 
L 328.963751 182.869149 
L 329.090619 187.026967 
L 329.217487 187.129603 
L 329.344355 184.51171 
L 329.471222 184.922448 
L 329.59809 186.410958 
L 329.851826 182.817929 
L 330.105561 185.589677 
L 330.232429 184.871033 
L 330.359297 186.410958 
L 330.486164 190.209454 
L 330.613032 190.414823 
L 331.247371 176.760863 
L 331.374239 176.555592 
L 331.501106 179.789298 
L 331.754842 190.004085 
L 331.881709 185.794949 
L 332.008577 185.743728 
L 332.262313 191.954651 
L 332.642916 184.255219 
L 332.769784 183.895896 
L 333.53099 200.732147 
L 333.657858 185.076499 
L 333.784726 185.179135 
L 334.038461 189.285538 
L 334.545932 178.762746 
L 334.6728 179.789298 
L 335.053403 185.487042 
L 335.434006 191.441374 
L 335.687742 191.338739 
L 335.814609 189.952767 
L 335.941477 185.487042 
L 336.068345 186.103051 
L 336.195213 184.665761 
L 336.32208 177.83883 
L 336.448948 179.840714 
L 336.575816 185.89778 
L 336.829551 177.01755 
L 336.956419 178.557475 
L 337.337022 185.692313 
L 337.590758 178.095517 
L 337.717625 177.582143 
L 337.844493 178.044101 
L 338.098229 179.378755 
L 338.351964 174.707759 
L 338.478832 178.095517 
L 338.6057 178.403424 
L 338.732567 176.914914 
L 338.859435 177.530923 
L 338.986303 175.220937 
L 339.113171 170.652577 
L 339.240038 172.346553 
L 339.493774 180.200036 
L 339.620642 179.32734 
L 339.874377 171.268586 
L 340.128113 174.861615 
L 340.25498 173.681012 
L 340.508716 167.110767 
L 340.635584 166.905496 
L 340.762451 167.47009 
L 340.889319 166.392123 
L 341.016187 167.572726 
L 341.143054 170.652577 
L 341.269922 170.34467 
L 341.650525 160.078565 
L 341.777393 100.176111 
L 341.904261 99.098143 
L 342.157996 103.974411 
L 342.411732 94.735054 
L 342.5386 98.430718 
L 342.792335 88.883259 
L 342.919203 91.347296 
L 343.046071 91.090609 
L 343.299806 82.210379 
L 343.426674 83.288346 
L 343.680409 88.677987 
L 344.061012 82.723752 
L 344.314748 81.389098 
L 344.441616 83.134295 
L 344.822219 99.251999 
L 345.075954 91.96311 
L 345.202822 93.041077 
L 345.32969 96.993624 
L 345.456558 94.735054 
L 345.583425 89.03731 
L 345.710293 88.575352 
L 345.964029 91.96311 
L 346.090896 89.80737 
L 346.217764 91.039193 
L 346.4715 98.790041 
L 346.725235 95.248232 
L 346.852103 95.351063 
L 347.105838 104.898327 
L 347.232706 102.691172 
L 347.486441 93.554451 
L 347.867045 110.493435 
L 347.993912 109.415468 
L 348.247648 105.206429 
L 348.374516 105.309065 
L 348.501383 104.5392 
L 348.628251 102.485901 
L 348.755119 102.896444 
L 349.26259 109.77479 
L 349.516325 116.293815 
L 349.770061 108.748238 
L 349.896928 172.089866 
L 350.023796 171.730544 
L 350.150664 174.245801 
L 350.277532 171.268586 
L 350.531267 160.643159 
L 350.658135 160.591939 
L 350.91187 159.462556 
L 351.038738 160.232616 
L 351.165606 159.719243 
L 351.419341 167.008132 
L 351.546209 164.595706 
L 351.673077 159.308505 
L 351.799945 159.308505 
L 351.926812 160.027149 
L 352.180548 157.255401 
L 352.434283 164.441655 
L 352.688019 170.190618 
L 352.941754 167.008132 
L 353.19549 167.316039 
L 353.449225 160.591939 
L 353.702961 161.207753 
L 353.829828 160.283837 
L 354.083564 160.386472 
L 354.210432 158.641276 
L 354.337299 159.103233 
L 354.591035 162.799094 
L 354.84477 161.926398 
L 355.098506 159.565192 
L 355.352241 167.008132 
L 355.479109 165.416986 
L 355.605977 166.905496 
L 355.732845 169.933932 
L 355.98658 163.877061 
L 356.113448 165.622258 
L 356.240315 165.673478 
L 356.494051 162.542407 
L 356.620919 161.926398 
L 356.747786 162.388355 
L 357.001522 167.110767 
L 357.255257 164.54429 
L 357.382125 167.932048 
L 357.508993 167.264819 
L 357.635861 163.72301 
L 357.889596 163.209636 
L 358.016464 188.464257 
L 358.270199 184.152388 
L 358.523935 185.487042 
L 358.650803 185.794949 
L 358.904538 177.787415 
L 359.031406 177.992881 
L 359.285141 184.51171 
L 359.412009 184.255219 
L 359.665744 172.089866 
L 359.91948 182.458606 
L 360.173215 177.428287 
L 360.426951 180.0974 
L 360.680686 173.527156 
L 361.06129 171.679128 
L 361.188157 171.525273 
L 361.315025 171.011899 
L 361.441893 171.679128 
L 361.568761 173.219054 
L 361.695628 173.116418 
L 361.822496 171.884595 
L 362.076231 176.042218 
L 362.329967 173.783647 
L 362.456835 177.171601 
L 362.583702 175.374988 
L 362.837438 164.800977 
L 362.964306 167.572726 
L 363.218041 163.517738 
L 363.471777 171.884595 
L 363.725512 168.188735 
L 363.85238 168.599473 
L 363.979248 168.496642 
L 364.359851 166.443538 
L 364.486719 167.008132 
L 364.613586 166.392123 
L 364.740454 166.546174 
L 364.994189 159.154649 
L 365.247925 164.492875 
L 365.50166 159.924514 
L 365.755396 161.002482 
L 365.882264 160.489108 
L 366.009131 156.28007 
L 366.135999 159.308505 
L 366.262867 158.179317 
L 366.389735 155.869527 
L 366.516602 156.331485 
L 366.770338 161.053897 
L 367.150941 151.86576 
L 367.277809 152.276302 
L 367.658412 155.253518 
L 368.039015 161.413219 
L 368.165883 158.846547 
L 368.292751 158.795326 
L 368.546486 166.392123 
L 368.800222 161.464439 
L 369.053957 160.078565 
L 369.307693 168.240151 
L 369.561428 163.158416 
L 369.688296 167.059547 
L 369.815164 167.521506 
L 370.068899 166.0328 
L 370.195767 166.392123 
L 370.322635 168.137319 
L 370.449502 168.240151 
L 370.703238 165.108884 
L 370.830106 166.546174 
L 371.083841 174.502292 
L 371.337576 173.270469 
L 371.464444 173.681012 
L 371.71818 164.082332 
L 371.845047 164.133552 
L 371.971915 161.310388 
L 372.098783 161.618491 
L 372.352518 174.297021 
L 372.479386 166.905496 
L 372.606254 166.084216 
L 372.733122 172.859731 
L 372.859989 173.013783 
L 373.113725 165.878944 
L 373.240593 165.570842 
L 373.621196 174.656344 
L 373.874931 180.969901 
L 374.001799 179.840714 
L 374.128667 179.738078 
L 374.382402 191.595328 
L 374.636138 197.960301 
L 375.016741 188.977435 
L 375.270476 184.665761 
L 375.397344 185.589677 
L 375.777947 198.063035 
L 375.904815 197.806347 
L 376.285418 204.633279 
L 376.666022 197.652394 
L 376.792889 196.061151 
L 377.046625 184.306439 
L 377.30036 192.468024 
L 377.427228 190.722729 
L 377.934699 196.625745 
L 378.061567 196.266422 
L 378.315302 191.749379 
L 378.44217 192.416706 
L 378.569038 191.595328 
L 378.695905 192.468024 
L 378.822773 190.517458 
L 378.949641 185.076499 
L 379.076509 186.872916 
L 379.203376 191.852015 
L 379.710847 183.279887 
L 379.837715 185.794949 
L 380.09145 193.340623 
L 380.345186 185.487042 
L 380.472054 185.179135 
L 380.598921 185.179135 
L 380.725789 184.973668 
L 380.852657 185.743728 
L 380.979525 183.741845 
L 381.23326 177.684779 
L 381.360128 179.532807 
L 381.486996 179.070848 
L 381.613863 180.918681 
L 381.740731 184.717177 
L 381.867599 184.203803 
L 382.248202 172.346553 
L 382.501938 147.400034 
L 382.628805 148.683273 
L 382.755673 152.840896 
L 383.009409 140.008314 
L 383.136276 141.137697 
L 383.263144 136.466505 
L 383.390012 127.432419 
L 383.516879 127.637691 
L 383.643747 129.434303 
L 383.897483 122.196829 
L 384.151218 130.51227 
L 384.278086 130.152948 
L 384.404954 128.613023 
L 384.531821 128.458971 
L 384.785557 130.152948 
L 384.912425 130.152948 
L 385.16616 136.825828 
L 385.419896 149.247867 
L 385.546763 146.73261 
L 385.673631 140.983646 
L 385.800499 141.086282 
L 385.927367 142.98553 
L 386.054234 140.470272 
L 386.30797 129.331667 
L 386.561705 133.130163 
L 386.688573 131.795509 
L 386.942308 135.542589 
L 387.069176 135.645225 
L 387.196044 138.057846 
L 387.322912 137.903795 
L 387.449779 143.550123 
L 387.703515 172.295138 
L 388.084118 159.103233 
L 388.210986 159.719243 
L 388.464721 162.28572 
L 389.352795 142.728843 
L 389.606531 142.215665 
L 390.114002 149.761045 
L 390.24087 148.1699 
L 390.367737 142.98553 
L 390.494605 175.836947 
L 390.748341 178.865382 
L 390.875208 175.52904 
L 391.128944 165.519622 
L 391.382679 164.441655 
L 391.509547 164.800977 
L 391.763283 164.133552 
L 392.017018 171.884595 
L 392.270753 165.21152 
L 392.524489 166.186851 
L 392.778224 164.954833 
L 392.905092 165.827529 
L 393.158828 175.067081 
L 393.412563 172.141086 
L 393.539431 172.449189 
L 393.666299 173.065198 
L 393.920034 171.473857 
L 394.046902 171.781764 
L 394.17377 170.190618 
L 394.300637 167.008132 
L 394.427505 168.034684 
L 394.554373 170.39589 
L 394.808108 164.903613 
L 394.934976 166.084216 
L 395.315579 171.268586 
L 395.696182 164.800977 
L 395.949918 167.983464 
L 396.076786 164.800977 
L 396.203653 164.492875 
L 396.330521 165.827529 
L 396.584257 160.027149 
L 396.837992 162.080449 
L 396.96486 159.719243 
L 397.091728 159.719243 
L 397.218595 160.181201 
L 397.345463 159.719243 
L 397.472331 159.873294 
L 397.599199 159.770463 
L 397.726066 158.53864 
L 397.852934 160.027149 
L 398.10667 169.369338 
L 398.360405 161.515855 
L 398.487273 164.390239 
L 398.487273 164.390239 
" clip-path="url(#p013efbe4fb)" style="fill: none; stroke: #1f77b4; stroke-width: 1.5; stroke-linecap: square"/>
   </g>
   <g id="patch_3">
    <path d="M 57.6 307.584 
L 57.6 41.472 
" style="fill: none; stroke: #000000; stroke-width: 0.8; stroke-linejoin: miter; stroke-linecap: square"/>
   </g>
   <g id="patch_4">
    <path d="M 414.72 307.584 
L 414.72 41.472 
" style="fill: none; stroke: #000000; stroke-width: 0.8; stroke-linejoin: miter; stroke-linecap: square"/>
   </g>
   <g id="patch_5">
    <path d="M 57.6 307.584 
L 414.72 307.584 
" style="fill: none; stroke: #000000; stroke-width: 0.8; stroke-linejoin: miter; stroke-linecap: square"/>
   </g>
   <g id="patch_6">
    <path d="M 57.6 41.472 
L 414.72 41.472 
" style="fill: none; stroke: #000000; stroke-width: 0.8; stroke-linejoin: miter; stroke-linecap: square"/>
   </g>
   <g id="legend_1">
    <g id="patch_7">
     <path d="M 354.074688 64.150125 
L 407.72 64.150125 
Q 409.72 64.150125 409.72 62.150125 
L 409.72 48.472 
Q 409.72 46.472 407.72 46.472 
L 354.074688 46.472 
Q 352.074688 46.472 352.074688 48.472 
L 352.074688 62.150125 
Q 352.074688 64.150125 354.074688 64.150125 
z
" style="fill: #ffffff; opacity: 0.8; stroke: #cccccc; stroke-linejoin: miter"/>
    </g>
    <g id="line2d_14">
     <path d="M 356.074688 54.570438 
L 366.074688 54.570438 
L 376.074688 54.570438 
" style="fill: none; stroke: #1f77b4; stroke-width: 1.5; stroke-linecap: square"/>
    </g>
    <g id="text_13">
     <!-- set1 -->
     <g transform="translate(384.074688 58.070438)scale(0.1 -0.1)">
      <defs>
       <path id="DejaVuSans-73" d="M 2834 3397 
L 2834 2853 
Q 2591 2978 2328 3040 
Q 2066 3103 1784 3103 
Q 1356 3103 1142 2972 
Q 928 2841 928 2578 
Q 928 2378 1081 2264 
Q 1234 2150 1697 2047 
L 1894 2003 
Q 2506 1872 2764 1633 
Q 3022 1394 3022 966 
Q 3022 478 2636 193 
Q 2250 -91 1575 -91 
Q 1294 -91 989 -36 
Q 684 19 347 128 
L 347 722 
Q 666 556 975 473 
Q 1284 391 1588 391 
Q 1994 391 2212 530 
Q 2431 669 2431 922 
Q 2431 1156 2273 1281 
Q 2116 1406 1581 1522 
L 1381 1569 
Q 847 1681 609 1914 
Q 372 2147 372 2553 
Q 372 3047 722 3315 
Q 1072 3584 1716 3584 
Q 2034 3584 2315 3537 
Q 2597 3491 2834 3397 
z
" transform="scale(0.015625)"/>
       <path id="DejaVuSans-65" d="M 3597 1894 
L 3597 1613 
L 953 1613 
Q 991 1019 1311 708 
Q 1631 397 2203 397 
Q 2534 397 2845 478 
Q 3156 559 3463 722 
L 3463 178 
Q 3153 47 2828 -22 
Q 2503 -91 2169 -91 
Q 1331 -91 842 396 
Q 353 884 353 1716 
Q 353 2575 817 3079 
Q 1281 3584 2069 3584 
Q 2775 3584 3186 3129 
Q 3597 2675 3597 1894 
z
M 3022 2063 
Q 3016 2534 2758 2815 
Q 2500 3097 2075 3097 
Q 1594 3097 1305 2825 
Q 1016 2553 972 2059 
L 3022 2063 
z
" transform="scale(0.015625)"/>
       <path id="DejaVuSans-74" d="M 1172 4494 
L 1172 3500 
L 2356 3500 
L 2356 3053 
L 1172 3053 
L 1172 1153 
Q 1172 725 1289 603 
Q 1406 481 1766 481 
L 2356 481 
L 2356 0 
L 1766 0 
Q 1100 0 847 248 
Q 594 497 594 1153 
L 594 3053 
L 172 3053 
L 172 3500 
L 594 3500 
L 594 4494 
L 1172 4494 
z
" transform="scale(0.015625)"/>
      </defs>
      <use xlink:href="#DejaVuSans-73"/>
      <use xlink:href="#DejaVuSans-65" x="52.099609"/>
      <use xlink:href="#DejaVuSans-74" x="113.623047"/>
      <use xlink:href="#DejaVuSans-31" x="152.832031"/>
     </g>
    </g>
   </g>
  </g>
 </g>
 <defs>
  <clipPath id="p013efbe4fb">
   <rect x="57.6" y="41.472" width="357.12" height="266.112"/>
  </clipPath>
 </defs>
</svg>
