<?xml version="1.0" encoding="utf-8" standalone="no"?>
<!DOCTYPE svg PUBLIC "-//W3C//DTD SVG 1.1//EN"
  "http://www.w3.org/Graphics/SVG/1.1/DTD/svg11.dtd">
<svg xmlns:xlink="http://www.w3.org/1999/xlink" width="460.8pt" height="345.6pt" viewBox="0 0 460.8 345.6" xmlns="http://www.w3.org/2000/svg" version="1.1">
 <metadata>
  <rdf:RDF xmlns:dc="http://purl.org/dc/elements/1.1/" xmlns:cc="http://creativecommons.org/ns#" xmlns:rdf="http://www.w3.org/1999/02/22-rdf-syntax-ns#">
   <cc:Work>
    <dc:type rdf:resource="http://purl.org/dc/dcmitype/StillImage"/>
    <dc:date>2022-08-11T15:17:08.490843</dc:date>
    <dc:format>image/svg+xml</dc:format>
    <dc:creator>
     <cc:Agent>
      <dc:title>Matplotlib v3.5.2, https://matplotlib.org/</dc:title>
     </cc:Agent>
    </dc:creator>
   </cc:Work>
  </rdf:RDF>
 </metadata>
 <defs>
  <style type="text/css">*{stroke-linejoin: round; stroke-linecap: butt}</style>
 </defs>
 <g id="figure_1">
  <g id="patch_1">
   <path d="M 0 345.6 
L 460.8 345.6 
L 460.8 0 
L 0 0 
z
" style="fill: #ffffff"/>
  </g>
  <g id="axes_1">
   <g id="patch_2">
    <path d="M 57.6 307.584 
L 414.72 307.584 
L 414.72 41.472 
L 57.6 41.472 
z
" style="fill: #ffffff"/>
   </g>
   <g id="matplotlib.axis_1">
    <g id="xtick_1">
     <g id="line2d_1">
      <defs>
       <path id="m7bcea306c0" d="M 0 0 
L 0 3.5 
" style="stroke: #000000; stroke-width: 0.8"/>
      </defs>
      <g>
       <use xlink:href="#m7bcea306c0" x="73.832727" y="307.584" style="stroke: #000000; stroke-width: 0.8"/>
      </g>
     </g>
     <g id="text_1">
      <!-- 0 -->
      <g transform="translate(70.651477 322.182437)scale(0.1 -0.1)">
       <defs>
        <path id="DejaVuSans-30" d="M 2034 4250 
Q 1547 4250 1301 3770 
Q 1056 3291 1056 2328 
Q 1056 1369 1301 889 
Q 1547 409 2034 409 
Q 2525 409 2770 889 
Q 3016 1369 3016 2328 
Q 3016 3291 2770 3770 
Q 2525 4250 2034 4250 
z
M 2034 4750 
Q 2819 4750 3233 4129 
Q 3647 3509 3647 2328 
Q 3647 1150 3233 529 
Q 2819 -91 2034 -91 
Q 1250 -91 836 529 
Q 422 1150 422 2328 
Q 422 3509 836 4129 
Q 1250 4750 2034 4750 
z
" transform="scale(0.015625)"/>
       </defs>
       <use xlink:href="#DejaVuSans-30"/>
      </g>
     </g>
    </g>
    <g id="xtick_2">
     <g id="line2d_2">
      <g>
       <use xlink:href="#m7bcea306c0" x="137.266597" y="307.584" style="stroke: #000000; stroke-width: 0.8"/>
      </g>
     </g>
     <g id="text_2">
      <!-- 500 -->
      <g transform="translate(127.722847 322.182437)scale(0.1 -0.1)">
       <defs>
        <path id="DejaVuSans-35" d="M 691 4666 
L 3169 4666 
L 3169 4134 
L 1269 4134 
L 1269 2991 
Q 1406 3038 1543 3061 
Q 1681 3084 1819 3084 
Q 2600 3084 3056 2656 
Q 3513 2228 3513 1497 
Q 3513 744 3044 326 
Q 2575 -91 1722 -91 
Q 1428 -91 1123 -41 
Q 819 9 494 109 
L 494 744 
Q 775 591 1075 516 
Q 1375 441 1709 441 
Q 2250 441 2565 725 
Q 2881 1009 2881 1497 
Q 2881 1984 2565 2268 
Q 2250 2553 1709 2553 
Q 1456 2553 1204 2497 
Q 953 2441 691 2322 
L 691 4666 
z
" transform="scale(0.015625)"/>
       </defs>
       <use xlink:href="#DejaVuSans-35"/>
       <use xlink:href="#DejaVuSans-30" x="63.623047"/>
       <use xlink:href="#DejaVuSans-30" x="127.246094"/>
      </g>
     </g>
    </g>
    <g id="xtick_3">
     <g id="line2d_3">
      <g>
       <use xlink:href="#m7bcea306c0" x="200.700467" y="307.584" style="stroke: #000000; stroke-width: 0.8"/>
      </g>
     </g>
     <g id="text_3">
      <!-- 1000 -->
      <g transform="translate(187.975467 322.182437)scale(0.1 -0.1)">
       <defs>
        <path id="DejaVuSans-31" d="M 794 531 
L 1825 531 
L 1825 4091 
L 703 3866 
L 703 4441 
L 1819 4666 
L 2450 4666 
L 2450 531 
L 3481 531 
L 3481 0 
L 794 0 
L 794 531 
z
" transform="scale(0.015625)"/>
       </defs>
       <use xlink:href="#DejaVuSans-31"/>
       <use xlink:href="#DejaVuSans-30" x="63.623047"/>
       <use xlink:href="#DejaVuSans-30" x="127.246094"/>
       <use xlink:href="#DejaVuSans-30" x="190.869141"/>
      </g>
     </g>
    </g>
    <g id="xtick_4">
     <g id="line2d_4">
      <g>
       <use xlink:href="#m7bcea306c0" x="264.134337" y="307.584" style="stroke: #000000; stroke-width: 0.8"/>
      </g>
     </g>
     <g id="text_4">
      <!-- 1500 -->
      <g transform="translate(251.409337 322.182437)scale(0.1 -0.1)">
       <use xlink:href="#DejaVuSans-31"/>
       <use xlink:href="#DejaVuSans-35" x="63.623047"/>
       <use xlink:href="#DejaVuSans-30" x="127.246094"/>
       <use xlink:href="#DejaVuSans-30" x="190.869141"/>
      </g>
     </g>
    </g>
    <g id="xtick_5">
     <g id="line2d_5">
      <g>
       <use xlink:href="#m7bcea306c0" x="327.568206" y="307.584" style="stroke: #000000; stroke-width: 0.8"/>
      </g>
     </g>
     <g id="text_5">
      <!-- 2000 -->
      <g transform="translate(314.843206 322.182437)scale(0.1 -0.1)">
       <defs>
        <path id="DejaVuSans-32" d="M 1228 531 
L 3431 531 
L 3431 0 
L 469 0 
L 469 531 
Q 828 903 1448 1529 
Q 2069 2156 2228 2338 
Q 2531 2678 2651 2914 
Q 2772 3150 2772 3378 
Q 2772 3750 2511 3984 
Q 2250 4219 1831 4219 
Q 1534 4219 1204 4116 
Q 875 4013 500 3803 
L 500 4441 
Q 881 4594 1212 4672 
Q 1544 4750 1819 4750 
Q 2544 4750 2975 4387 
Q 3406 4025 3406 3419 
Q 3406 3131 3298 2873 
Q 3191 2616 2906 2266 
Q 2828 2175 2409 1742 
Q 1991 1309 1228 531 
z
" transform="scale(0.015625)"/>
       </defs>
       <use xlink:href="#DejaVuSans-32"/>
       <use xlink:href="#DejaVuSans-30" x="63.623047"/>
       <use xlink:href="#DejaVuSans-30" x="127.246094"/>
       <use xlink:href="#DejaVuSans-30" x="190.869141"/>
      </g>
     </g>
    </g>
    <g id="xtick_6">
     <g id="line2d_6">
      <g>
       <use xlink:href="#m7bcea306c0" x="391.002076" y="307.584" style="stroke: #000000; stroke-width: 0.8"/>
      </g>
     </g>
     <g id="text_6">
      <!-- 2500 -->
      <g transform="translate(378.277076 322.182437)scale(0.1 -0.1)">
       <use xlink:href="#DejaVuSans-32"/>
       <use xlink:href="#DejaVuSans-35" x="63.623047"/>
       <use xlink:href="#DejaVuSans-30" x="127.246094"/>
       <use xlink:href="#DejaVuSans-30" x="190.869141"/>
      </g>
     </g>
    </g>
   </g>
   <g id="matplotlib.axis_2">
    <g id="ytick_1">
     <g id="line2d_7">
      <defs>
       <path id="mc87c00a55c" d="M 0 0 
L -3.5 0 
" style="stroke: #000000; stroke-width: 0.8"/>
      </defs>
      <g>
       <use xlink:href="#mc87c00a55c" x="57.6" y="264.087669" style="stroke: #000000; stroke-width: 0.8"/>
      </g>
     </g>
     <g id="text_7">
      <!-- 3900 -->
      <g transform="translate(25.15 267.886887)scale(0.1 -0.1)">
       <defs>
        <path id="DejaVuSans-33" d="M 2597 2516 
Q 3050 2419 3304 2112 
Q 3559 1806 3559 1356 
Q 3559 666 3084 287 
Q 2609 -91 1734 -91 
Q 1441 -91 1130 -33 
Q 819 25 488 141 
L 488 750 
Q 750 597 1062 519 
Q 1375 441 1716 441 
Q 2309 441 2620 675 
Q 2931 909 2931 1356 
Q 2931 1769 2642 2001 
Q 2353 2234 1838 2234 
L 1294 2234 
L 1294 2753 
L 1863 2753 
Q 2328 2753 2575 2939 
Q 2822 3125 2822 3475 
Q 2822 3834 2567 4026 
Q 2313 4219 1838 4219 
Q 1578 4219 1281 4162 
Q 984 4106 628 3988 
L 628 4550 
Q 988 4650 1302 4700 
Q 1616 4750 1894 4750 
Q 2613 4750 3031 4423 
Q 3450 4097 3450 3541 
Q 3450 3153 3228 2886 
Q 3006 2619 2597 2516 
z
" transform="scale(0.015625)"/>
        <path id="DejaVuSans-39" d="M 703 97 
L 703 672 
Q 941 559 1184 500 
Q 1428 441 1663 441 
Q 2288 441 2617 861 
Q 2947 1281 2994 2138 
Q 2813 1869 2534 1725 
Q 2256 1581 1919 1581 
Q 1219 1581 811 2004 
Q 403 2428 403 3163 
Q 403 3881 828 4315 
Q 1253 4750 1959 4750 
Q 2769 4750 3195 4129 
Q 3622 3509 3622 2328 
Q 3622 1225 3098 567 
Q 2575 -91 1691 -91 
Q 1453 -91 1209 -44 
Q 966 3 703 97 
z
M 1959 2075 
Q 2384 2075 2632 2365 
Q 2881 2656 2881 3163 
Q 2881 3666 2632 3958 
Q 2384 4250 1959 4250 
Q 1534 4250 1286 3958 
Q 1038 3666 1038 3163 
Q 1038 2656 1286 2365 
Q 1534 2075 1959 2075 
z
" transform="scale(0.015625)"/>
       </defs>
       <use xlink:href="#DejaVuSans-33"/>
       <use xlink:href="#DejaVuSans-39" x="63.623047"/>
       <use xlink:href="#DejaVuSans-30" x="127.246094"/>
       <use xlink:href="#DejaVuSans-30" x="190.869141"/>
      </g>
     </g>
    </g>
    <g id="ytick_2">
     <g id="line2d_8">
      <g>
       <use xlink:href="#mc87c00a55c" x="57.6" y="207.523682" style="stroke: #000000; stroke-width: 0.8"/>
      </g>
     </g>
     <g id="text_8">
      <!-- 4000 -->
      <g transform="translate(25.15 211.322901)scale(0.1 -0.1)">
       <defs>
        <path id="DejaVuSans-34" d="M 2419 4116 
L 825 1625 
L 2419 1625 
L 2419 4116 
z
M 2253 4666 
L 3047 4666 
L 3047 1625 
L 3713 1625 
L 3713 1100 
L 3047 1100 
L 3047 0 
L 2419 0 
L 2419 1100 
L 313 1100 
L 313 1709 
L 2253 4666 
z
" transform="scale(0.015625)"/>
       </defs>
       <use xlink:href="#DejaVuSans-34"/>
       <use xlink:href="#DejaVuSans-30" x="63.623047"/>
       <use xlink:href="#DejaVuSans-30" x="127.246094"/>
       <use xlink:href="#DejaVuSans-30" x="190.869141"/>
      </g>
     </g>
    </g>
    <g id="ytick_3">
     <g id="line2d_9">
      <g>
       <use xlink:href="#mc87c00a55c" x="57.6" y="150.959696" style="stroke: #000000; stroke-width: 0.8"/>
      </g>
     </g>
     <g id="text_9">
      <!-- 4100 -->
      <g transform="translate(25.15 154.758914)scale(0.1 -0.1)">
       <use xlink:href="#DejaVuSans-34"/>
       <use xlink:href="#DejaVuSans-31" x="63.623047"/>
       <use xlink:href="#DejaVuSans-30" x="127.246094"/>
       <use xlink:href="#DejaVuSans-30" x="190.869141"/>
      </g>
     </g>
    </g>
    <g id="ytick_4">
     <g id="line2d_10">
      <g>
       <use xlink:href="#mc87c00a55c" x="57.6" y="94.395709" style="stroke: #000000; stroke-width: 0.8"/>
      </g>
     </g>
     <g id="text_10">
      <!-- 4200 -->
      <g transform="translate(25.15 98.194928)scale(0.1 -0.1)">
       <use xlink:href="#DejaVuSans-34"/>
       <use xlink:href="#DejaVuSans-32" x="63.623047"/>
       <use xlink:href="#DejaVuSans-30" x="127.246094"/>
       <use xlink:href="#DejaVuSans-30" x="190.869141"/>
      </g>
     </g>
    </g>
   </g>
   <g id="line2d_11">
    <path d="M 73.832727 138.631619 
L 73.959595 136.891337 
L 74.21333 141.532456 
L 74.340198 141.024817 
L 74.593934 138.776619 
L 74.974537 144.795657 
L 75.101405 144.650657 
L 75.228272 147.333856 
L 75.35514 147.116217 
L 75.482008 143.635378 
L 75.608876 144.215655 
L 75.735743 143.417739 
L 75.989479 137.036338 
L 76.116347 139.211897 
L 76.370082 137.036338 
L 76.49695 139.646898 
L 76.750685 139.356898 
L 76.877553 141.242179 
L 77.004421 140.517177 
L 77.131289 138.559257 
L 77.385024 141.822457 
L 77.511892 139.791899 
L 77.638759 141.387456 
L 77.892495 145.230659 
L 78.019363 144.940658 
L 78.14623 145.375935 
L 78.526834 141.024817 
L 78.907437 137.2537 
L 79.034305 137.76134 
L 79.161172 137.978979 
L 79.28804 137.471339 
L 79.414908 137.688978 
L 79.668643 140.372177 
L 79.795511 138.341618 
L 79.922379 138.704257 
L 80.049247 144.143017 
L 80.176114 143.925378 
L 80.302982 138.486618 
L 80.42985 138.41398 
L 80.556717 140.662178 
L 80.810453 137.326339 
L 81.064188 136.746061 
L 81.317924 146.826216 
L 81.444792 146.826216 
L 81.571659 145.738298 
L 81.825395 148.276497 
L 82.07913 135.44078 
L 82.205998 134.570778 
L 82.332866 132.902858 
L 82.459734 129.712019 
L 82.586601 131.307301 
L 82.840337 136.818699 
L 82.967205 136.746061 
L 83.22094 139.284259 
L 83.474675 131.452301 
L 83.728411 137.616339 
L 83.982146 135.58578 
L 84.109014 135.803419 
L 84.36275 138.123979 
L 84.870221 136.09342 
L 84.997088 135.15078 
L 85.123956 135.58578 
L 85.377692 137.543978 
L 85.631427 138.26898 
L 85.885163 135.513419 
L 86.138898 138.559257 
L 86.392633 135.15078 
L 86.519501 138.92162 
L 86.646369 137.906341 
L 86.773237 131.452301 
L 86.900104 131.234939 
L 87.15384 137.833978 
L 87.280708 137.543978 
L 87.407575 136.746061 
L 87.534443 136.818699 
L 87.788179 138.196617 
L 88.041914 135.513419 
L 88.168782 135.368418 
L 88.422517 129.784382 
L 88.549385 126.666182 
L 88.676253 128.69674 
L 88.803121 133.555498 
L 88.929988 132.685219 
L 89.183724 125.723541 
L 89.437459 131.1623 
L 90.198666 126.666182 
L 90.452401 129.131741 
L 90.579269 129.494381 
L 90.706137 131.1623 
L 90.833004 131.307301 
L 91.08674 128.841741 
L 91.213608 127.53646 
L 91.340475 124.998262 
L 91.467343 126.521181 
L 91.594211 130.219659 
L 91.721079 130.654661 
L 91.847946 129.929382 
L 91.974814 130.00202 
L 92.22855 132.17758 
L 92.355417 131.452301 
L 92.482285 129.929382 
L 92.862888 130.727299 
L 92.989756 131.66994 
L 93.116624 130.799661 
L 93.243491 128.914379 
L 93.370359 128.769102 
L 93.624095 129.567019 
L 93.750962 128.624102 
L 93.87783 129.421743 
L 94.004698 131.307301 
L 94.131566 130.437022 
L 94.512169 121.880062 
L 94.765904 126.811182 
L 94.892772 125.868541 
L 95.146508 130.292021 
L 95.400243 126.956182 
L 95.527111 129.421743 
L 95.653978 126.811182 
L 95.780846 121.372422 
L 95.907714 121.082421 
L 96.161449 126.88382 
L 96.288317 124.127983 
L 96.415185 124.780623 
L 96.542053 127.681461 
L 96.66892 125.795902 
L 96.795788 120.647143 
L 96.922656 120.574782 
L 97.049524 123.475343 
L 97.176391 122.605064 
L 97.303259 120.429781 
L 97.430127 120.357143 
L 97.556995 121.590061 
L 97.683862 121.227421 
L 97.81073 119.776865 
L 97.937598 120.212142 
L 98.064466 119.922141 
L 98.191333 135.94842 
L 98.445069 139.57426 
L 98.698804 134.933141 
L 98.95254 139.284259 
L 99.206275 135.368418 
L 99.333143 135.94842 
L 99.460011 137.978979 
L 99.586878 138.051617 
L 99.713746 136.09342 
L 99.840614 137.326339 
L 100.094349 140.517177 
L 100.221217 140.73454 
L 100.348085 139.791899 
L 100.60182 135.44078 
L 100.728688 136.45606 
L 100.982424 130.219659 
L 101.236159 136.891337 
L 101.363027 135.223417 
L 101.489894 135.078141 
L 101.616762 133.410222 
L 101.74363 128.55174 
L 101.870498 128.914379 
L 102.124233 137.398977 
L 102.251101 138.994258 
L 102.377969 138.994258 
L 102.504836 140.372177 
L 102.631704 142.982737 
L 102.758572 141.967458 
L 103.012307 137.1087 
L 103.266043 139.791899 
L 103.392911 138.92162 
L 103.646646 135.803419 
L 103.773514 135.15078 
L 103.900382 135.223417 
L 104.154117 137.833978 
L 104.407852 135.513419 
L 104.53472 136.818699 
L 104.788456 129.929382 
L 105.042191 138.26898 
L 105.169059 137.906341 
L 105.295927 136.383698 
L 105.549662 138.26898 
L 105.67653 135.29578 
L 105.930265 128.116462 
L 106.057133 130.437022 
L 106.184001 130.074659 
L 106.437736 136.45606 
L 106.691472 132.685219 
L 106.81834 135.005779 
L 106.945207 134.715778 
L 107.198943 130.00202 
L 107.452678 130.944661 
L 107.706414 129.712019 
L 107.960149 135.44078 
L 108.213885 127.028821 
L 108.340752 127.971462 
L 108.46762 127.8991 
L 108.594488 127.463822 
L 108.721356 128.55174 
L 108.848223 128.55174 
L 108.975091 128.261463 
L 109.228827 130.147021 
L 109.482562 127.53646 
L 109.736298 130.799661 
L 109.863165 128.334101 
L 109.990033 128.334101 
L 110.243769 129.929382 
L 110.497504 140.0819 
L 110.624372 136.528698 
L 110.751239 128.986741 
L 111.004975 136.9637 
L 111.25871 127.101183 
L 111.512446 128.334101 
L 111.639314 127.8991 
L 111.893049 131.742578 
L 112.019917 131.597302 
L 112.146785 129.421743 
L 112.273652 131.452301 
L 112.40052 135.94842 
L 112.527388 133.845499 
L 112.781123 127.173821 
L 113.034859 130.074659 
L 113.161727 129.929382 
L 113.288594 129.34938 
L 113.669197 138.704257 
L 113.796065 136.818699 
L 113.922933 136.673698 
L 114.176668 138.994258 
L 114.557272 131.524939 
L 114.811007 138.92162 
L 114.937875 137.036338 
L 115.064743 137.471339 
L 115.318478 137.326339 
L 115.445346 139.356898 
L 115.572214 138.704257 
L 115.699081 137.398977 
L 115.952817 139.284259 
L 116.206552 134.715778 
L 116.33342 137.2537 
L 116.460288 136.891337 
L 116.587155 135.658419 
L 116.714023 135.58578 
L 116.840891 135.005779 
L 116.967759 135.94842 
L 117.221494 140.227176 
L 117.348362 139.356898 
L 117.47523 139.719537 
L 117.602097 138.631619 
L 117.728965 136.238421 
L 117.855833 136.60106 
L 118.109568 139.356898 
L 118.363304 139.791899 
L 118.617039 141.89482 
L 118.870775 138.341618 
L 119.12451 139.57426 
L 119.378246 137.471339 
L 119.505114 137.616339 
L 119.631981 138.41398 
L 119.758849 137.688978 
L 119.885717 135.803419 
L 120.012584 136.311059 
L 120.139452 137.471339 
L 120.393188 133.48286 
L 120.773791 138.41398 
L 121.027526 136.021058 
L 121.154394 136.528698 
L 121.281262 136.45606 
L 121.40813 134.78814 
L 121.534997 134.78814 
L 121.661865 136.383698 
L 122.042468 147.333856 
L 122.169336 145.520936 
L 122.296204 146.245938 
L 122.423072 144.795657 
L 122.676807 130.8723 
L 123.05741 121.154783 
L 123.184278 121.444784 
L 123.311146 123.837982 
L 123.564881 119.631864 
L 123.818617 121.952424 
L 123.945484 120.429781 
L 124.19922 112.017545 
L 124.452955 119.922141 
L 124.706691 112.887824 
L 124.960426 122.170063 
L 125.087294 119.486864 
L 125.34103 111.582544 
L 125.467897 112.525185 
L 125.594765 112.597823 
L 125.721633 113.322826 
L 125.975368 118.761861 
L 126.102236 117.673944 
L 126.355971 117.746582 
L 126.482839 116.586302 
L 126.609707 117.891582 
L 126.736575 120.574782 
L 126.99031 115.788385 
L 127.117178 117.963945 
L 127.244046 118.108945 
L 127.370913 114.918383 
L 127.497781 116.006024 
L 127.751517 119.704502 
L 127.878384 119.269225 
L 128.005252 117.238943 
L 128.13212 117.601582 
L 128.258988 121.952424 
L 128.385855 122.025062 
L 128.512723 119.196863 
L 128.639591 120.937145 
L 128.766458 120.792144 
L 128.893326 118.254221 
L 129.273929 119.631864 
L 129.400797 118.544223 
L 129.654533 108.391705 
L 129.7814 107.884065 
L 130.035136 110.059625 
L 130.162004 110.204625 
L 130.415739 104.693227 
L 130.542607 104.403226 
L 130.669475 121.154783 
L 130.796342 121.299784 
L 130.92321 121.807423 
L 131.050078 121.517422 
L 131.430681 129.421743 
L 131.557549 127.028821 
L 131.684416 127.173821 
L 131.811284 125.723541 
L 132.06502 118.399222 
L 132.445623 128.479102 
L 132.572491 128.116462 
L 132.699358 128.406739 
L 132.826226 129.567019 
L 132.953094 128.986741 
L 133.079962 127.826461 
L 133.460565 130.654661 
L 133.968036 137.616339 
L 134.221771 129.421743 
L 134.602375 139.57426 
L 134.982978 129.276742 
L 135.109845 128.769102 
L 135.236713 129.20438 
L 135.363581 131.089662 
L 135.617316 130.36466 
L 135.744184 132.902858 
L 135.871052 131.814941 
L 135.99792 129.131741 
L 136.124787 130.36466 
L 136.251655 129.05938 
L 136.505391 121.009783 
L 136.632258 122.242701 
L 136.759126 121.299784 
L 136.885994 122.170063 
L 137.139729 129.34938 
L 137.266597 127.753823 
L 137.520333 119.849503 
L 137.774068 128.986741 
L 138.027803 119.051863 
L 138.281539 121.952424 
L 138.535274 118.689223 
L 138.662142 119.849503 
L 138.915878 126.738819 
L 139.042745 128.1891 
L 139.296481 120.357143 
L 139.550216 129.85702 
L 139.677084 128.479102 
L 139.803952 129.05938 
L 139.93082 132.757581 
L 140.057687 132.757581 
L 140.184555 130.944661 
L 140.311423 131.0173 
L 140.438291 131.234939 
L 140.565158 129.929382 
L 140.692026 130.00202 
L 140.818894 131.234939 
L 141.072629 126.448543 
L 141.326365 129.639381 
L 141.5801 127.53646 
L 141.706968 130.074659 
L 141.833836 129.712019 
L 142.087571 126.303542 
L 142.341307 122.460063 
L 142.468174 123.620343 
L 142.72191 140.807178 
L 142.848778 149.291776 
L 142.975645 149.654415 
L 143.356249 140.009537 
L 143.609984 129.34938 
L 143.863719 130.944661 
L 144.117455 127.463822 
L 144.244323 127.608822 
L 144.37119 128.55174 
L 144.498058 128.624102 
L 144.751794 125.795902 
L 144.878661 126.738819 
L 145.132397 130.147021 
L 145.386132 125.433263 
L 145.513 126.08618 
L 145.639868 128.914379 
L 145.766736 127.826461 
L 145.893603 125.505902 
L 146.147339 141.097179 
L 146.527942 127.39146 
L 146.65481 129.276742 
L 146.781678 124.708261 
L 146.908545 137.2537 
L 147.035413 137.833978 
L 147.162281 137.76134 
L 147.289148 136.45606 
L 147.416016 137.471339 
L 147.542884 139.57426 
L 147.796619 137.688978 
L 148.050355 139.791899 
L 148.177223 139.356898 
L 148.30409 140.662178 
L 148.430958 144.360656 
L 148.557826 144.795657 
L 148.811561 137.398977 
L 149.065297 136.891337 
L 149.4459 131.307301 
L 149.572768 130.654661 
L 149.826503 136.021058 
L 149.953371 135.513419 
L 150.080239 134.425501 
L 150.333974 142.185097 
L 150.58771 137.688978 
L 150.714577 139.57426 
L 150.841445 138.994258 
L 151.095181 147.986496 
L 151.222048 145.665936 
L 151.348916 137.833978 
L 151.475784 137.688978 
L 151.602652 142.402459 
L 151.729519 141.459818 
L 151.856387 137.76134 
L 151.983255 137.906341 
L 152.110123 137.326339 
L 152.23699 137.906341 
L 152.490726 143.925378 
L 152.744461 140.299539 
L 152.998197 145.085658 
L 153.125064 143.417739 
L 153.3788 137.978979 
L 154.140006 184.317947 
L 154.266874 186.928646 
L 154.393742 186.058368 
L 154.52061 186.711007 
L 154.774345 190.626986 
L 154.901213 189.684207 
L 155.028081 137.326339 
L 155.281816 138.849258 
L 155.408684 139.719537 
L 155.662419 143.490377 
L 155.789287 142.475098 
L 156.043022 148.494135 
L 156.16989 148.204135 
L 156.296758 146.173576 
L 156.423626 146.971216 
L 156.550493 146.898578 
L 156.804229 144.143017 
L 156.931097 143.490377 
L 157.184832 135.94842 
L 157.438568 138.051617 
L 157.565435 137.833978 
L 157.692303 137.906341 
L 157.819171 136.528698 
L 157.946039 136.45606 
L 158.072906 137.2537 
L 158.326642 136.021058 
L 158.580377 138.41398 
L 158.707245 138.776619 
L 158.834113 139.936899 
L 159.087848 138.559257 
L 159.341584 139.57426 
L 159.595319 138.341618 
L 159.722187 138.341618 
L 159.849055 138.123979 
L 160.10279 136.9637 
L 160.229658 137.398977 
L 160.356526 137.398977 
L 160.483393 136.60106 
L 160.610261 137.1087 
L 160.990864 140.73454 
L 161.2446 139.284259 
L 161.371468 140.009537 
L 161.625203 138.123979 
L 161.878939 139.06662 
L 162.132674 136.383698 
L 162.259542 138.92162 
L 162.513277 148.421497 
L 162.767013 146.753578 
L 163.020748 149.291776 
L 163.274484 134.063138 
L 163.528219 130.074659 
L 163.781955 127.318821 
L 163.908822 127.826461 
L 164.03569 129.276742 
L 164.162558 127.101183 
L 164.416293 115.063383 
L 164.670029 100.632386 
L 164.923764 102.227667 
L 165.1775 92.147788 
L 165.304367 92.800428 
L 165.558103 94.323071 
L 165.811838 91.204871 
L 165.938706 93.67043 
L 166.065574 93.235429 
L 166.192442 88.811949 
L 166.446177 92.36515 
L 166.699913 73.148033 
L 166.953648 77.208874 
L 167.080516 74.888314 
L 167.207384 77.644152 
L 167.334251 83.372912 
L 167.461119 83.082912 
L 167.587987 80.327351 
L 167.841722 88.376671 
L 168.095458 80.83499 
L 168.476061 89.391951 
L 168.602929 88.59431 
L 168.729796 86.92639 
L 168.983532 91.494871 
L 169.237267 86.056112 
L 169.364135 86.78139 
L 169.617871 83.082912 
L 169.744738 84.750831 
L 170.125342 96.64363 
L 170.379077 91.494871 
L 170.632813 98.384188 
L 170.75968 98.239188 
L 170.886548 93.815431 
L 171.013416 93.598069 
L 171.140283 95.773628 
L 171.267151 131.234939 
L 171.394019 128.1891 
L 171.774622 137.688978 
L 171.90149 137.616339 
L 172.282093 133.772861 
L 172.535829 129.131741 
L 172.662696 129.276742 
L 172.789564 128.986741 
L 173.0433 136.09342 
L 173.297035 129.20438 
L 173.550771 131.597302 
L 173.804506 130.437022 
L 174.185109 137.471339 
L 174.311977 134.933141 
L 174.438845 136.311059 
L 174.565712 136.45606 
L 174.69258 132.83022 
L 174.819448 133.410222 
L 174.946316 135.803419 
L 175.073183 135.94842 
L 175.326919 138.559257 
L 175.580654 130.00202 
L 175.707522 129.929382 
L 176.088125 128.69674 
L 176.341861 130.944661 
L 176.595596 129.276742 
L 176.722464 130.292021 
L 176.849332 130.147021 
L 177.103067 124.925624 
L 177.356803 129.784382 
L 177.610538 128.0441 
L 177.737406 129.276742 
L 177.864274 128.769102 
L 177.991141 127.246459 
L 178.118009 128.261463 
L 178.244877 130.292021 
L 178.371745 129.494381 
L 178.62548 126.666182 
L 178.752348 128.55174 
L 179.006083 135.29578 
L 179.259819 129.131741 
L 179.386687 136.9637 
L 179.513554 137.1087 
L 179.640422 140.517177 
L 179.894158 135.731057 
L 180.147893 139.356898 
L 180.274761 136.9637 
L 180.528496 139.791899 
L 180.782232 136.673698 
L 180.909099 136.9637 
L 181.035967 136.09342 
L 181.162835 137.978979 
L 181.41657 149.581777 
L 181.670306 137.326339 
L 181.797174 138.051617 
L 181.924041 138.631619 
L 182.177777 134.2805 
L 182.304645 134.063138 
L 182.431512 130.074659 
L 182.55838 130.00202 
L 182.812116 137.398977 
L 182.938983 136.021058 
L 183.065851 136.746061 
L 183.446454 148.494135 
L 183.70019 145.738298 
L 183.953925 147.261217 
L 184.207661 141.242179 
L 184.461396 145.448298 
L 184.715132 137.543978 
L 184.841999 137.543978 
L 185.095735 133.555498 
L 185.222603 134.498139 
L 185.34947 133.9905 
L 185.476338 130.074659 
L 185.603206 130.00202 
L 185.730074 132.83022 
L 185.983809 130.944661 
L 186.237544 137.906341 
L 186.49128 129.85702 
L 186.618148 132.17758 
L 186.745015 136.60106 
L 186.998751 126.013541 
L 187.252486 129.712019 
L 187.379354 127.318821 
L 187.506222 139.06662 
L 187.63309 138.994258 
L 187.759957 137.906341 
L 187.886825 138.994258 
L 188.140561 131.379939 
L 188.267428 132.104941 
L 188.521164 130.654661 
L 188.648032 132.757581 
L 188.901767 131.089662 
L 189.155503 139.719537 
L 189.409238 129.494381 
L 189.536106 128.69674 
L 189.789841 135.731057 
L 190.043577 128.116462 
L 190.170444 128.55174 
L 190.42418 135.368418 
L 190.677915 128.55174 
L 190.931651 137.906341 
L 191.058519 135.078141 
L 191.185386 136.818699 
L 191.312254 140.299539 
L 191.56599 136.746061 
L 191.692857 138.559257 
L 191.819725 138.486618 
L 191.946593 135.29578 
L 192.073461 135.876058 
L 192.200328 137.978979 
L 192.580931 129.421743 
L 192.707799 129.929382 
L 192.961535 137.906341 
L 193.088402 137.978979 
L 193.21527 137.1087 
L 193.342138 137.688978 
L 193.469006 137.543978 
L 193.722741 140.589539 
L 193.976477 132.540219 
L 194.230212 139.211897 
L 194.35708 138.776619 
L 194.483948 137.471339 
L 194.610815 139.646898 
L 194.864551 148.421497 
L 195.372022 146.318576 
L 195.498889 143.127738 
L 195.625757 136.673698 
L 195.752625 136.311059 
L 195.879493 137.978979 
L 196.00636 138.123979 
L 196.133228 137.76134 
L 196.260096 137.978979 
L 196.640699 139.791899 
L 196.894435 138.994258 
L 197.021302 140.372177 
L 197.14817 140.517177 
L 197.275038 138.776619 
L 197.401906 138.776619 
L 197.528773 139.284259 
L 197.782509 135.29578 
L 197.909377 137.616339 
L 198.036244 137.2537 
L 198.163112 135.513419 
L 198.416847 137.181338 
L 198.543715 137.1087 
L 198.670583 137.471339 
L 198.924318 136.746061 
L 199.178054 137.471339 
L 199.431789 137.471339 
L 199.558657 137.326339 
L 199.812393 140.444539 
L 200.192996 136.021058 
L 200.446731 138.123979 
L 200.700467 135.94842 
L 200.954202 138.486618 
L 201.207938 135.513419 
L 201.461673 138.631619 
L 201.715409 135.005779 
L 201.969144 138.26898 
L 202.22288 134.860778 
L 202.349747 136.746061 
L 202.476615 135.876058 
L 202.603483 133.555498 
L 202.730351 134.208139 
L 202.984086 139.429259 
L 203.110954 139.936899 
L 203.237822 141.242179 
L 203.491557 144.868296 
L 204.125896 128.841741 
L 204.252764 128.624102 
L 204.379631 127.318821 
L 204.633367 129.34938 
L 204.760234 128.624102 
L 205.01397 130.437022 
L 205.394573 125.650902 
L 205.648309 128.334101 
L 205.775176 125.360901 
L 205.902044 125.650902 
L 206.15578 129.784382 
L 206.409515 124.925624 
L 206.536383 125.288263 
L 206.663251 127.173821 
L 206.790118 126.88382 
L 206.916986 127.028821 
L 207.170722 128.986741 
L 207.424457 124.127983 
L 207.678192 119.704502 
L 207.931928 121.154783 
L 208.185663 118.689223 
L 208.439399 123.982982 
L 208.693134 118.689223 
L 208.820002 120.067142 
L 209.073738 126.37618 
L 209.327473 120.212142 
L 209.581209 126.811182 
L 209.708076 121.299784 
L 209.834944 120.792144 
L 209.961812 122.170063 
L 210.215547 119.196863 
L 210.342415 119.849503 
L 210.59615 129.784382 
L 210.723018 127.53646 
L 210.849886 121.880062 
L 210.976754 121.662423 
L 211.357357 127.028821 
L 211.611092 120.139504 
L 211.73796 121.952424 
L 211.864828 128.1891 
L 211.991696 128.0441 
L 212.499167 134.425501 
L 212.626034 136.238421 
L 212.87977 130.50966 
L 213.006638 131.307301 
L 213.260373 128.624102 
L 213.514108 131.66994 
L 213.767844 130.944661 
L 213.894712 130.00202 
L 214.148447 132.32258 
L 214.275315 131.959941 
L 214.402183 132.757581 
L 214.655918 135.876058 
L 214.782786 134.1355 
L 215.036521 128.334101 
L 215.290257 129.567019 
L 215.417125 129.494381 
L 215.543992 128.55174 
L 215.67086 131.307301 
L 215.797728 136.891337 
L 215.924596 133.700499 
L 216.051463 127.39146 
L 216.305199 130.074659 
L 216.432067 128.0441 
L 216.558934 127.826461 
L 216.685802 128.769102 
L 216.81267 128.841741 
L 217.066405 131.307301 
L 217.193273 130.292021 
L 217.447008 131.524939 
L 217.700744 127.753823 
L 217.954479 129.276742 
L 218.081347 128.55174 
L 218.335083 130.219659 
L 218.46195 130.147021 
L 218.842554 128.55174 
L 218.969421 128.334101 
L 219.096289 127.681461 
L 219.223157 128.0441 
L 219.350025 129.421743 
L 219.476892 129.131741 
L 219.730628 128.406739 
L 219.857495 128.1891 
L 219.984363 133.772861 
L 220.111231 134.425501 
L 220.238099 137.906341 
L 220.491834 131.887579 
L 220.74557 138.41398 
L 220.872437 137.181338 
L 221.126173 137.978979 
L 221.253041 137.036338 
L 221.379908 137.1087 
L 221.633644 135.876058 
L 221.887379 137.1087 
L 222.014247 138.051617 
L 222.267983 133.772861 
L 222.521718 135.876058 
L 222.775453 134.063138 
L 223.029189 136.238421 
L 223.282924 134.208139 
L 223.409792 134.498139 
L 224.424734 139.284259 
L 224.805337 137.1087 
L 224.932205 137.616339 
L 225.059073 138.994258 
L 225.185941 138.994258 
L 225.439676 135.005779 
L 225.566544 135.731057 
L 225.693411 134.208139 
L 225.820279 130.799661 
L 225.947147 130.799661 
L 226.200882 136.673698 
L 226.32775 137.833978 
L 226.454618 137.543978 
L 226.708353 134.64314 
L 226.962089 139.501898 
L 227.342692 129.567019 
L 227.46956 129.639381 
L 227.723295 125.57854 
L 227.850163 128.479102 
L 227.977031 128.624102 
L 228.103899 155.383314 
L 228.357634 153.280255 
L 228.611369 154.078034 
L 228.865105 147.261217 
L 229.11884 149.654415 
L 229.245708 148.711774 
L 229.753179 153.062616 
L 230.133782 145.665936 
L 230.26065 147.261217 
L 230.514386 142.982737 
L 231.021857 146.681215 
L 231.275592 144.433018 
L 231.529328 149.581777 
L 231.783063 145.520936 
L 231.909931 147.333856 
L 232.036798 147.261217 
L 232.163666 146.245938 
L 232.417402 148.276497 
L 232.544269 146.100937 
L 232.671137 146.028576 
L 232.798005 147.188855 
L 233.05174 145.448298 
L 233.178608 145.810937 
L 233.305476 145.085658 
L 233.432344 145.303297 
L 233.686079 147.551218 
L 233.939815 146.100937 
L 234.19355 148.131496 
L 234.320418 147.478856 
L 234.447286 145.520936 
L 234.574153 145.883575 
L 234.701021 147.696495 
L 234.827889 147.913857 
L 235.081624 145.085658 
L 235.208492 145.230659 
L 235.33536 146.463577 
L 235.462227 146.390939 
L 235.589095 144.940658 
L 235.715963 145.013296 
L 235.969698 148.421497 
L 236.096566 146.463577 
L 236.223434 138.196617 
L 236.350302 140.009537 
L 236.604037 148.349135 
L 236.730905 146.100937 
L 236.857773 145.955937 
L 237.111508 144.940658 
L 237.238376 143.055376 
L 237.492111 136.166059 
L 237.745847 139.646898 
L 237.872714 139.501898 
L 237.999582 137.833978 
L 238.380185 129.712019 
L 238.507053 129.784382 
L 238.760789 130.654661 
L 238.887656 129.712019 
L 239.014524 127.753823 
L 239.141392 128.55174 
L 239.521995 134.208139 
L 239.775731 138.92162 
L 240.029466 139.936899 
L 240.283202 139.284259 
L 240.536937 140.0819 
L 240.663805 140.009537 
L 240.790672 139.57426 
L 241.044408 137.181338 
L 241.298143 139.211897 
L 241.551879 133.9905 
L 241.678747 133.845499 
L 241.932482 137.2537 
L 242.186218 128.769102 
L 242.439953 130.799661 
L 242.566821 130.147021 
L 242.693689 130.727299 
L 242.947424 125.143263 
L 243.074292 126.158542 
L 243.20116 124.925624 
L 243.328027 121.662423 
L 243.454895 124.345622 
L 243.708631 134.498139 
L 243.835498 135.658419 
L 243.962366 135.658419 
L 244.089234 135.368418 
L 244.216101 134.1355 
L 244.342969 144.070378 
L 244.85044 129.784382 
L 244.977308 127.826461 
L 245.231043 129.421743 
L 245.484779 142.982737 
L 245.611647 149.219138 
L 245.738514 149.581777 
L 245.99225 142.620098 
L 246.245985 148.929137 
L 246.499721 146.753578 
L 246.626589 149.726777 
L 246.753456 150.089417 
L 247.007192 145.448298 
L 247.134059 145.375935 
L 247.260927 143.853016 
L 247.387795 144.070378 
L 247.64153 147.116217 
L 247.768398 148.204135 
L 247.895266 150.597056 
L 248.022134 150.234417 
L 248.402737 145.013296 
L 248.529605 144.723019 
L 248.78334 135.29578 
L 249.037076 145.230659 
L 249.163943 138.92162 
L 249.290811 140.589539 
L 249.417679 148.276497 
L 249.544547 147.333856 
L 249.92515 139.791899 
L 250.052017 138.776619 
L 250.178885 140.517177 
L 250.432621 139.139259 
L 250.559488 139.501898 
L 250.813224 137.543978 
L 250.940092 137.833978 
L 251.193827 148.421497 
L 251.320695 147.551218 
L 251.57443 136.311059 
L 251.828166 140.372177 
L 252.208769 137.398977 
L 252.335637 137.76134 
L 252.589372 134.860778 
L 252.843108 139.211897 
L 253.096843 134.78814 
L 253.350579 137.326339 
L 253.731182 129.276742 
L 253.85805 130.36466 
L 254.111785 137.543978 
L 254.238653 136.528698 
L 254.365521 129.929382 
L 254.492388 130.50966 
L 254.746124 137.036338 
L 254.872992 135.731057 
L 255.126727 139.211897 
L 255.253595 139.06662 
L 255.380463 138.196617 
L 255.50733 136.45606 
L 255.634198 137.543978 
L 255.761066 135.658419 
L 256.014801 128.116462 
L 256.268537 135.44078 
L 256.395404 141.024817 
L 256.522272 138.631619 
L 256.776008 128.261463 
L 256.902875 130.219659 
L 257.029743 129.34938 
L 257.283479 129.567019 
L 257.410346 131.1623 
L 257.537214 135.731057 
L 257.79095 130.147021 
L 258.044685 135.368418 
L 258.298421 122.387702 
L 258.425288 121.735061 
L 258.679024 128.479102 
L 258.932759 127.028821 
L 259.059627 129.85702 
L 259.313362 120.719782 
L 259.567098 126.88382 
L 259.693966 124.490622 
L 259.820833 119.559502 
L 260.074569 128.69674 
L 260.328304 122.532702 
L 260.455172 123.692982 
L 260.58204 128.334101 
L 260.708908 127.53646 
L 260.835775 130.437022 
L 260.962643 129.85702 
L 261.089511 126.88382 
L 261.216379 130.147021 
L 261.343246 137.326339 
L 261.470114 135.29578 
L 261.596982 127.608822 
L 261.72385 130.219659 
L 261.850717 135.44078 
L 262.104453 129.639381 
L 262.358188 139.936899 
L 262.485056 137.471339 
L 262.611924 138.776619 
L 262.865659 132.17758 
L 263.119395 136.166059 
L 263.37313 127.318821 
L 263.626866 135.005779 
L 263.753733 129.34938 
L 263.880601 131.307301 
L 264.007469 136.746061 
L 264.261204 127.826461 
L 264.641808 146.245938 
L 264.768675 146.898578 
L 264.895543 145.158296 
L 265.149278 147.986496 
L 265.403014 138.631619 
L 265.529882 139.864537 
L 265.783617 127.971462 
L 265.910485 129.131741 
L 266.16422 136.891337 
L 266.291088 136.528698 
L 266.417956 138.776619 
L 266.544824 138.92162 
L 266.671691 137.616339 
L 266.925427 140.227176 
L 267.30603 134.1355 
L 267.432898 134.498139 
L 267.559766 137.471339 
L 268.067236 132.17758 
L 268.194104 127.101183 
L 268.320972 127.246459 
L 268.44784 130.50966 
L 268.574707 130.00202 
L 268.701575 122.460063 
L 268.955311 128.69674 
L 269.082178 127.608822 
L 269.209046 126.666182 
L 269.335914 128.841741 
L 269.462782 128.261463 
L 269.970253 120.502143 
L 270.09712 121.009783 
L 270.350856 131.379939 
L 270.477724 130.437022 
L 270.604591 128.406739 
L 270.858327 122.967703 
L 271.112062 128.116462 
L 271.23893 126.23118 
L 271.365798 127.8991 
L 271.492665 131.234939 
L 271.619533 130.727299 
L 271.873269 127.028821 
L 272.127004 136.60106 
L 272.38074 127.8991 
L 272.507607 128.261463 
L 272.634475 129.34938 
L 272.888211 141.169817 
L 273.015078 140.444539 
L 273.141946 137.326339 
L 273.395682 137.978979 
L 273.776285 136.166059 
L 273.903153 134.1355 
L 274.03002 135.368418 
L 274.156888 139.646898 
L 274.283756 139.719537 
L 274.537491 135.44078 
L 274.664359 136.238421 
L 274.918094 140.0819 
L 275.17183 134.570778 
L 275.679301 151.829974 
L 275.806169 154.513035 
L 275.933036 154.078034 
L 276.186772 147.261217 
L 276.31364 147.623857 
L 276.567375 146.753578 
L 276.694243 145.230659 
L 276.821111 109.261984 
L 277.074846 116.368663 
L 277.328581 111.364905 
L 277.455449 111.582544 
L 277.582317 111.147266 
L 277.709185 115.135745 
L 277.96292 130.437022 
L 278.089788 130.147021 
L 278.343523 142.547736 
L 278.724127 127.826461 
L 278.850994 129.05938 
L 279.10473 121.009783 
L 279.231598 124.200621 
L 279.358465 131.307301 
L 279.485333 131.379939 
L 279.865936 120.429781 
L 279.992804 119.196863 
L 280.500275 138.123979 
L 280.627143 138.994258 
L 280.75401 138.849258 
L 280.880878 138.92162 
L 281.388349 144.650657 
L 281.515217 143.708015 
L 281.642085 138.994258 
L 281.768952 138.704257 
L 281.89582 142.330097 
L 282.149556 138.341618 
L 282.530159 153.642894 
L 282.657027 152.554976 
L 282.783894 153.715395 
L 283.03763 160.604574 
L 283.164497 161.257213 
L 283.291365 160.822074 
L 283.418233 161.909854 
L 283.671968 165.970971 
L 283.925704 161.184713 
L 284.306307 168.364031 
L 284.433175 167.276251 
L 284.560043 164.593052 
L 284.68691 165.825832 
L 284.813778 165.100692 
L 285.067514 152.845254 
L 285.321249 155.383314 
L 285.448117 153.787895 
L 285.574985 154.150534 
L 285.82872 155.528314 
L 286.082456 165.390831 
L 286.209323 164.303052 
L 286.336191 164.303052 
L 286.463059 165.245693 
L 286.716794 161.184713 
L 286.97053 165.825832 
L 287.224265 155.165675 
L 287.478001 155.890954 
L 287.731736 153.135255 
L 288.112339 160.822074 
L 288.492943 166.478473 
L 288.873546 164.085413 
L 289.127281 165.680832 
L 289.381017 161.619852 
L 289.507884 165.753333 
L 289.634752 165.753333 
L 289.76162 161.837353 
L 289.888488 162.054992 
L 290.142223 165.318193 
L 290.269091 170.321951 
L 290.395959 169.95945 
L 290.522826 164.955692 
L 290.649694 165.173193 
L 290.776562 167.203751 
L 291.030297 161.982354 
L 291.664636 143.417739 
L 291.918372 149.581777 
L 292.172107 142.330097 
L 292.425842 149.364414 
L 292.806446 135.078141 
L 292.933313 139.936899 
L 293.060181 150.379417 
L 293.187049 150.379417 
L 293.313917 153.280255 
L 293.567652 145.448298 
L 293.69452 146.318576 
L 293.821388 148.131496 
L 294.328859 136.166059 
L 294.455726 136.09342 
L 294.582594 136.528698 
L 294.709462 137.688978 
L 294.83633 137.1087 
L 294.963197 134.063138 
L 295.090065 134.1355 
L 295.216933 138.196617 
L 295.3438 137.543978 
L 295.470668 134.570778 
L 295.851271 146.898578 
L 295.978139 145.810937 
L 296.105007 145.810937 
L 296.231875 146.753578 
L 296.358742 144.723019 
L 296.612478 135.368418 
L 296.866213 135.44078 
L 296.993081 137.1087 
L 297.119949 133.120221 
L 297.373684 117.166304 
L 297.62742 114.265743 
L 297.754288 114.628106 
L 298.008023 111.727544 
L 298.134891 114.193104 
L 298.388626 111.147266 
L 298.515494 114.193104 
L 298.642362 109.841986 
L 298.769229 101.502388 
L 298.896097 100.559747 
L 299.022965 101.575027 
L 299.149833 100.197108 
L 299.2767 100.414747 
L 299.530436 104.113225 
L 299.784171 96.208629 
L 300.037907 102.590306 
L 300.291642 92.075149 
L 300.545378 93.017791 
L 300.672246 92.510151 
L 300.925981 92.72779 
L 301.052849 93.308067 
L 301.179717 231.744696 
L 301.433452 228.698858 
L 301.687187 217.16856 
L 301.940923 222.244819 
L 302.194658 212.164801 
L 302.321526 213.252581 
L 302.448394 215.42814 
L 302.575262 212.672441 
L 302.702129 213.397581 
L 302.955865 220.7944 
L 303.082733 219.706758 
L 303.2096 220.069259 
L 303.336468 216.73342 
L 303.590204 208.176322 
L 303.717071 206.000763 
L 303.970807 199.981863 
L 304.097675 202.012284 
L 304.35141 198.603945 
L 304.605145 207.378681 
L 304.858881 198.966584 
L 305.239484 209.191601 
L 305.366352 207.741183 
L 306.000691 187.871287 
L 306.127558 190.481986 
L 306.254426 188.523927 
L 306.508162 182.214889 
L 306.761897 186.493507 
L 306.888765 186.711007 
L 307.015633 187.436148 
L 307.1425 185.550728 
L 307.523103 171.62737 
L 307.903707 161.909854 
L 308.030574 160.677073 
L 308.411178 154.005395 
L 308.664913 156.978733 
L 308.791781 153.932896 
L 308.918649 153.932896 
L 309.045516 156.035954 
L 309.172384 155.093175 
L 309.299252 122.242701 
L 309.42612 123.765344 
L 309.552987 128.406739 
L 309.679855 128.261463 
L 309.933591 121.154783 
L 310.187326 128.914379 
L 310.314194 128.841741 
L 310.441061 129.929382 
L 310.821665 149.074137 
L 310.948532 149.436776 
L 311.202268 139.57426 
L 311.582871 127.826461 
L 311.963474 119.486864 
L 312.090342 121.517422 
L 312.21721 120.647143 
L 312.470945 105.781145 
L 312.724681 111.509906 
L 313.232152 102.082667 
L 313.35902 104.910866 
L 313.485887 110.567265 
L 313.612755 108.101704 
L 313.739623 101.647389 
L 313.86649 101.575027 
L 313.993358 103.532947 
L 314.500829 92.655151 
L 314.754565 105.055866 
L 314.881432 104.620865 
L 315.135168 93.38043 
L 315.262036 95.84599 
L 315.388903 104.040587 
L 315.515771 104.910866 
L 315.769507 85.911111 
L 315.896374 84.96847 
L 316.276978 53.568 
L 316.530713 66.911356 
L 316.657581 65.316075 
L 317.038184 78.949432 
L 317.165052 76.048595 
L 317.291919 76.991512 
L 317.418787 135.658419 
L 317.545655 136.166059 
L 317.79939 140.444539 
L 317.926258 138.776619 
L 318.053126 139.429259 
L 318.179994 138.631619 
L 318.306861 136.818699 
L 318.433729 138.341618 
L 318.560597 136.09342 
L 318.687465 130.074659 
L 318.814332 132.97522 
L 318.9412 140.444539 
L 319.575539 123.765344 
L 319.702406 123.112704 
L 319.829274 120.502143 
L 319.956142 120.937145 
L 320.08301 123.040341 
L 320.209877 120.212142 
L 320.336745 120.792144 
L 320.590481 125.723541 
L 320.844216 130.219659 
L 321.224819 136.09342 
L 321.351687 135.078141 
L 321.478555 135.29578 
L 321.605423 136.746061 
L 322.239761 129.131741 
L 322.493497 131.307301 
L 322.747232 127.318821 
L 322.8741 127.318821 
L 323.127835 129.929382 
L 323.381571 127.753823 
L 323.508439 127.753823 
L 323.635306 127.608822 
L 323.762174 128.1891 
L 323.889042 129.85702 
L 324.01591 127.246459 
L 324.269645 120.864782 
L 324.396513 122.025062 
L 324.523381 120.574782 
L 324.650248 120.864782 
L 324.903984 130.074659 
L 325.030852 130.00202 
L 325.157719 128.841741 
L 325.284587 129.276742 
L 325.411455 126.956182 
L 325.538322 139.06662 
L 325.66519 138.92162 
L 325.792058 137.978979 
L 326.172661 127.971462 
L 326.299529 128.914379 
L 326.553264 137.543978 
L 326.933868 157.993875 
L 327.187603 149.944416 
L 327.441339 157.341234 
L 327.695074 155.528314 
L 327.94881 156.906233 
L 328.075677 156.471094 
L 328.202545 155.238314 
L 328.456281 148.276497 
L 328.583148 149.509415 
L 328.836884 153.642894 
L 329.217487 157.268735 
L 329.344355 156.398594 
L 329.59809 152.409976 
L 329.724958 152.337614 
L 329.978693 142.765098 
L 330.105561 146.608577 
L 330.232429 146.245938 
L 330.359297 140.517177 
L 330.613032 149.799415 
L 330.866768 145.303297 
L 330.993635 145.738298 
L 331.120503 145.085658 
L 331.374239 147.696495 
L 331.627974 142.910099 
L 331.754842 144.505656 
L 332.008577 139.57426 
L 332.262313 145.955937 
L 332.516048 149.944416 
L 332.769784 135.658419 
L 333.023519 141.024817 
L 333.53099 136.09342 
L 333.657858 139.936899 
L 333.784726 139.791899 
L 334.038461 140.299539 
L 334.292197 139.57426 
L 334.419064 139.646898 
L 334.799667 134.353139 
L 334.926535 129.929382 
L 335.053403 130.00202 
L 335.307138 137.1087 
L 335.434006 135.005779 
L 335.560874 134.933141 
L 335.814609 138.704257 
L 335.941477 137.688978 
L 336.068345 138.92162 
L 336.32208 145.955937 
L 336.448948 146.245938 
L 336.702684 136.09342 
L 336.956419 143.490377 
L 337.210155 128.55174 
L 337.590758 141.314817 
L 337.717625 141.387456 
L 337.971361 128.914379 
L 338.098229 130.727299 
L 338.225096 130.8723 
L 338.351964 128.69674 
L 338.478832 129.567019 
L 338.732567 135.94842 
L 338.986303 129.712019 
L 339.113171 135.513419 
L 339.240038 136.021058 
L 339.620642 121.517422 
L 339.874377 130.219659 
L 340.128113 127.971462 
L 340.25498 130.292021 
L 340.508716 126.88382 
L 340.635584 127.608822 
L 341.016187 120.574782 
L 341.269922 123.25798 
L 341.39679 120.284504 
L 341.650525 125.650902 
L 341.777393 130.147021 
L 341.904261 128.914379 
L 342.031129 131.307301 
L 342.157996 130.36466 
L 342.284864 127.608822 
L 342.792335 133.9905 
L 343.046071 139.06662 
L 343.172938 136.818699 
L 343.299806 136.746061 
L 343.426674 139.284259 
L 343.553542 139.284259 
L 343.680409 138.486618 
L 343.807277 139.864537 
L 344.061012 130.00202 
L 344.314748 136.09342 
L 344.441616 128.1891 
L 344.568483 128.406739 
L 344.822219 139.646898 
L 344.949087 134.933141 
L 345.202822 140.227176 
L 345.456558 131.452301 
L 345.837161 146.028576 
L 345.964029 145.448298 
L 346.217764 147.478856 
L 346.4715 136.891337 
L 346.598367 137.326339 
L 346.725235 137.2537 
L 346.97897 126.88382 
L 347.232706 137.978979 
L 347.486441 136.891337 
L 347.613309 138.486618 
L 347.867045 137.326339 
L 348.12078 138.776619 
L 348.247648 136.9637 
L 348.501383 129.567019 
L 348.881987 138.486618 
L 349.008854 135.731057 
L 349.26259 138.26898 
L 349.516325 128.986741 
L 349.643193 136.09342 
L 349.770061 136.45606 
L 349.896928 122.315063 
L 350.150664 122.532702 
L 350.404399 127.53646 
L 350.658135 126.811182 
L 350.785003 125.215901 
L 351.038738 120.357143 
L 351.292474 124.200621 
L 351.546209 135.078141 
L 351.673077 134.570778 
L 351.926812 128.116462 
L 352.05368 128.406739 
L 352.180548 128.116462 
L 352.307416 130.219659 
L 352.434283 129.784382 
L 352.561151 126.593543 
L 352.688019 129.494381 
L 352.814886 129.494381 
L 352.941754 122.605064 
L 353.068622 122.315063 
L 353.322357 133.120221 
L 353.576093 120.937145 
L 353.702961 121.952424 
L 354.210432 140.444539 
L 354.464167 134.425501 
L 354.84477 136.60106 
L 355.098506 131.524939 
L 355.479109 138.123979 
L 355.732845 134.1355 
L 355.859712 135.368418 
L 355.98658 140.444539 
L 356.113448 136.818699 
L 356.240315 129.34938 
L 356.494051 140.154538 
L 356.620919 140.0819 
L 356.747786 139.57426 
L 357.001522 147.261217 
L 357.382125 138.196617 
L 357.508993 139.936899 
L 357.762728 138.704257 
L 357.889596 137.616339 
L 358.016464 95.84599 
L 358.270199 105.055866 
L 358.397067 104.765865 
L 358.523935 104.548226 
L 358.650803 106.433785 
L 358.904538 102.662668 
L 359.031406 104.040587 
L 359.158273 103.895586 
L 359.285141 101.575027 
L 359.412009 105.055866 
L 359.538877 112.162545 
L 359.665744 110.277263 
L 359.91948 101.357388 
L 360.046348 101.720027 
L 360.300083 98.239188 
L 360.553819 92.87279 
L 360.680686 92.437788 
L 360.807554 91.132508 
L 361.06129 91.422509 
L 361.188157 89.609589 
L 361.315025 90.334591 
L 361.695628 101.575027 
L 361.949364 105.128228 
L 362.456835 113.758103 
L 362.583702 113.395464 
L 362.837438 109.624347 
L 362.964306 109.769624 
L 363.091173 110.857265 
L 363.344909 108.174067 
L 363.471777 108.971707 
L 363.85238 119.124224 
L 363.979248 117.456305 
L 364.106115 113.830465 
L 364.232983 113.395464 
L 364.359851 113.540464 
L 364.613586 111.219904 
L 364.867322 101.502388 
L 364.994189 100.922386 
L 365.121057 101.285026 
L 365.247925 99.979469 
L 365.628528 110.784627 
L 365.755396 109.261984 
L 365.882264 110.422264 
L 366.009131 108.536706 
L 366.135999 240.954434 
L 366.516602 238.633875 
L 366.770338 232.977476 
L 366.897206 233.630116 
L 367.150941 241.099435 
L 367.404677 249.729172 
L 367.531544 250.236811 
L 367.78528 248.278753 
L 368.039015 248.496253 
L 368.165883 248.786392 
L 368.292751 247.481112 
L 368.419618 248.061252 
L 368.673354 252.339732 
L 368.800222 251.687092 
L 369.053957 257.70613 
L 369.307693 253.71765 
L 369.561428 259.01141 
L 369.688296 258.93891 
L 369.815164 259.01141 
L 369.942031 259.59155 
L 370.195767 267.423508 
L 370.322635 266.335728 
L 370.449502 260.461829 
L 370.57637 260.969331 
L 370.830106 268.656288 
L 370.956973 265.392949 
L 371.083841 265.320448 
L 371.464444 275.110327 
L 371.591312 274.602826 
L 371.71818 273.587546 
L 371.971915 277.068385 
L 372.225651 276.270745 
L 372.352518 277.140886 
L 372.479386 276.923385 
L 372.733122 274.747826 
L 372.859989 277.213386 
L 373.113725 287.003402 
L 373.36746 281.347003 
L 373.748064 295.488 
L 374.001799 292.369662 
L 374.128667 294.835222 
L 374.255534 129.20438 
L 374.382402 129.20438 
L 374.50927 130.074659 
L 374.763005 129.131741 
L 375.016741 130.147021 
L 375.270476 126.158542 
L 375.904815 131.379939 
L 376.031683 129.784382 
L 376.158551 126.666182 
L 376.285418 127.173821 
L 376.412286 130.944661 
L 376.666022 130.074659 
L 376.919757 137.978979 
L 377.046625 137.76134 
L 377.30036 131.66994 
L 377.427228 136.238421 
L 377.554096 136.60106 
L 377.807831 126.158542 
L 377.934699 128.769102 
L 378.061567 127.826461 
L 378.315302 131.814941 
L 378.569038 124.853261 
L 378.695905 124.41826 
L 378.822773 123.475343 
L 378.949641 124.345622 
L 379.330244 135.58578 
L 379.58398 128.261463 
L 379.710847 131.0173 
L 379.837715 127.028821 
L 380.09145 117.818944 
L 380.725789 122.750341 
L 380.852657 122.605064 
L 381.106392 118.616585 
L 381.23326 121.154783 
L 381.360128 121.227421 
L 381.613863 117.673944 
L 381.867599 119.849503 
L 381.994467 119.994504 
L 382.121334 121.299784 
L 382.248202 121.227421 
L 382.37507 121.444784 
L 382.501938 119.559502 
L 382.628805 122.315063 
L 382.755673 122.170063 
L 382.882541 120.139504 
L 383.136276 126.303542 
L 383.390012 120.429781 
L 383.516879 122.460063 
L 383.643747 121.807423 
L 383.770615 119.341863 
L 383.897483 119.849503 
L 384.278086 127.753823 
L 384.404954 129.929382 
L 384.531821 126.593543 
L 384.658689 119.776865 
L 384.785557 120.574782 
L 384.912425 122.677702 
L 385.16616 117.093942 
L 385.293028 120.792144 
L 385.546763 120.284504 
L 385.800499 129.131741 
L 386.054234 119.051863 
L 386.181102 122.170063 
L 386.434837 131.089662 
L 386.688573 119.414502 
L 386.942308 121.227421 
L 387.196044 112.307546 
L 387.322912 112.815186 
L 387.576647 108.536706 
L 387.830383 114.048104 
L 387.95725 111.364905 
L 388.084118 113.395464 
L 388.337854 121.227421 
L 388.464721 118.254221 
L 388.591589 119.051863 
L 388.718457 121.227421 
L 389.09906 110.567265 
L 389.225928 112.452547 
L 389.479663 111.292267 
L 389.733399 116.078663 
L 389.987134 109.986986 
L 390.24087 112.452547 
L 390.367737 109.551985 
L 390.494605 102.952945 
L 390.748341 112.742823 
L 390.875208 111.147266 
L 391.002076 108.464067 
L 391.128944 110.349626 
L 391.255812 109.189346 
L 391.763283 101.212388 
L 391.89015 101.575027 
L 392.143886 104.983228 
L 392.270753 104.403226 
L 392.524489 92.72779 
L 392.778224 94.54071 
L 393.412563 107.666427 
L 393.666299 99.109467 
L 393.920034 107.449064 
L 394.046902 102.735306 
L 394.17377 102.372667 
L 394.427505 104.113225 
L 394.681241 113.685465 
L 394.808108 113.467826 
L 395.061844 106.216146 
L 395.188711 107.303787 
L 395.696182 93.52543 
L 395.82305 94.105708 
L 396.076786 102.952945 
L 396.457389 96.35363 
L 396.584257 101.212388 
L 396.711124 100.124746 
L 396.96486 90.044591 
L 397.218595 94.395709 
L 397.472331 92.655151 
L 397.599199 94.105708 
L 397.726066 94.250708 
L 397.979802 91.785149 
L 398.10667 90.26223 
L 398.487273 80.83499 
L 398.487273 80.83499 
" clip-path="url(#p8d363e2415)" style="fill: none; stroke: #1f77b4; stroke-width: 1.5; stroke-linecap: square"/>
   </g>
   <g id="patch_3">
    <path d="M 57.6 307.584 
L 57.6 41.472 
" style="fill: none; stroke: #000000; stroke-width: 0.8; stroke-linejoin: miter; stroke-linecap: square"/>
   </g>
   <g id="patch_4">
    <path d="M 414.72 307.584 
L 414.72 41.472 
" style="fill: none; stroke: #000000; stroke-width: 0.8; stroke-linejoin: miter; stroke-linecap: square"/>
   </g>
   <g id="patch_5">
    <path d="M 57.6 307.584 
L 414.72 307.584 
" style="fill: none; stroke: #000000; stroke-width: 0.8; stroke-linejoin: miter; stroke-linecap: square"/>
   </g>
   <g id="patch_6">
    <path d="M 57.6 41.472 
L 414.72 41.472 
" style="fill: none; stroke: #000000; stroke-width: 0.8; stroke-linejoin: miter; stroke-linecap: square"/>
   </g>
   <g id="legend_1">
    <g id="patch_7">
     <path d="M 354.074688 64.150125 
L 407.72 64.150125 
Q 409.72 64.150125 409.72 62.150125 
L 409.72 48.472 
Q 409.72 46.472 407.72 46.472 
L 354.074688 46.472 
Q 352.074688 46.472 352.074688 48.472 
L 352.074688 62.150125 
Q 352.074688 64.150125 354.074688 64.150125 
z
" style="fill: #ffffff; opacity: 0.8; stroke: #cccccc; stroke-linejoin: miter"/>
    </g>
    <g id="line2d_12">
     <path d="M 356.074688 54.570438 
L 366.074688 54.570438 
L 376.074688 54.570438 
" style="fill: none; stroke: #1f77b4; stroke-width: 1.5; stroke-linecap: square"/>
    </g>
    <g id="text_11">
     <!-- set1 -->
     <g transform="translate(384.074688 58.070438)scale(0.1 -0.1)">
      <defs>
       <path id="DejaVuSans-73" d="M 2834 3397 
L 2834 2853 
Q 2591 2978 2328 3040 
Q 2066 3103 1784 3103 
Q 1356 3103 1142 2972 
Q 928 2841 928 2578 
Q 928 2378 1081 2264 
Q 1234 2150 1697 2047 
L 1894 2003 
Q 2506 1872 2764 1633 
Q 3022 1394 3022 966 
Q 3022 478 2636 193 
Q 2250 -91 1575 -91 
Q 1294 -91 989 -36 
Q 684 19 347 128 
L 347 722 
Q 666 556 975 473 
Q 1284 391 1588 391 
Q 1994 391 2212 530 
Q 2431 669 2431 922 
Q 2431 1156 2273 1281 
Q 2116 1406 1581 1522 
L 1381 1569 
Q 847 1681 609 1914 
Q 372 2147 372 2553 
Q 372 3047 722 3315 
Q 1072 3584 1716 3584 
Q 2034 3584 2315 3537 
Q 2597 3491 2834 3397 
z
" transform="scale(0.015625)"/>
       <path id="DejaVuSans-65" d="M 3597 1894 
L 3597 1613 
L 953 1613 
Q 991 1019 1311 708 
Q 1631 397 2203 397 
Q 2534 397 2845 478 
Q 3156 559 3463 722 
L 3463 178 
Q 3153 47 2828 -22 
Q 2503 -91 2169 -91 
Q 1331 -91 842 396 
Q 353 884 353 1716 
Q 353 2575 817 3079 
Q 1281 3584 2069 3584 
Q 2775 3584 3186 3129 
Q 3597 2675 3597 1894 
z
M 3022 2063 
Q 3016 2534 2758 2815 
Q 2500 3097 2075 3097 
Q 1594 3097 1305 2825 
Q 1016 2553 972 2059 
L 3022 2063 
z
" transform="scale(0.015625)"/>
       <path id="DejaVuSans-74" d="M 1172 4494 
L 1172 3500 
L 2356 3500 
L 2356 3053 
L 1172 3053 
L 1172 1153 
Q 1172 725 1289 603 
Q 1406 481 1766 481 
L 2356 481 
L 2356 0 
L 1766 0 
Q 1100 0 847 248 
Q 594 497 594 1153 
L 594 3053 
L 172 3053 
L 172 3500 
L 594 3500 
L 594 4494 
L 1172 4494 
z
" transform="scale(0.015625)"/>
      </defs>
      <use xlink:href="#DejaVuSans-73"/>
      <use xlink:href="#DejaVuSans-65" x="52.099609"/>
      <use xlink:href="#DejaVuSans-74" x="113.623047"/>
      <use xlink:href="#DejaVuSans-31" x="152.832031"/>
     </g>
    </g>
   </g>
  </g>
 </g>
 <defs>
  <clipPath id="p8d363e2415">
   <rect x="57.6" y="41.472" width="357.12" height="266.112"/>
  </clipPath>
 </defs>
</svg>
