<?xml version="1.0" encoding="utf-8" standalone="no"?>
<!DOCTYPE svg PUBLIC "-//W3C//DTD SVG 1.1//EN"
  "http://www.w3.org/Graphics/SVG/1.1/DTD/svg11.dtd">
<svg xmlns:xlink="http://www.w3.org/1999/xlink" width="460.8pt" height="345.6pt" viewBox="0 0 460.8 345.6" xmlns="http://www.w3.org/2000/svg" version="1.1">
 <metadata>
  <rdf:RDF xmlns:dc="http://purl.org/dc/elements/1.1/" xmlns:cc="http://creativecommons.org/ns#" xmlns:rdf="http://www.w3.org/1999/02/22-rdf-syntax-ns#">
   <cc:Work>
    <dc:type rdf:resource="http://purl.org/dc/dcmitype/StillImage"/>
    <dc:date>2022-08-11T15:17:09.291022</dc:date>
    <dc:format>image/svg+xml</dc:format>
    <dc:creator>
     <cc:Agent>
      <dc:title>Matplotlib v3.5.2, https://matplotlib.org/</dc:title>
     </cc:Agent>
    </dc:creator>
   </cc:Work>
  </rdf:RDF>
 </metadata>
 <defs>
  <style type="text/css">*{stroke-linejoin: round; stroke-linecap: butt}</style>
 </defs>
 <g id="figure_1">
  <g id="patch_1">
   <path d="M 0 345.6 
L 460.8 345.6 
L 460.8 0 
L 0 0 
z
" style="fill: #ffffff"/>
  </g>
  <g id="axes_1">
   <g id="patch_2">
    <path d="M 57.6 307.584 
L 414.72 307.584 
L 414.72 41.472 
L 57.6 41.472 
z
" style="fill: #ffffff"/>
   </g>
   <g id="matplotlib.axis_1">
    <g id="xtick_1">
     <g id="line2d_1">
      <defs>
       <path id="me1a46de0f1" d="M 0 0 
L 0 3.5 
" style="stroke: #000000; stroke-width: 0.8"/>
      </defs>
      <g>
       <use xlink:href="#me1a46de0f1" x="73.832727" y="307.584" style="stroke: #000000; stroke-width: 0.8"/>
      </g>
     </g>
     <g id="text_1">
      <!-- 0 -->
      <g transform="translate(70.651477 322.182437)scale(0.1 -0.1)">
       <defs>
        <path id="DejaVuSans-30" d="M 2034 4250 
Q 1547 4250 1301 3770 
Q 1056 3291 1056 2328 
Q 1056 1369 1301 889 
Q 1547 409 2034 409 
Q 2525 409 2770 889 
Q 3016 1369 3016 2328 
Q 3016 3291 2770 3770 
Q 2525 4250 2034 4250 
z
M 2034 4750 
Q 2819 4750 3233 4129 
Q 3647 3509 3647 2328 
Q 3647 1150 3233 529 
Q 2819 -91 2034 -91 
Q 1250 -91 836 529 
Q 422 1150 422 2328 
Q 422 3509 836 4129 
Q 1250 4750 2034 4750 
z
" transform="scale(0.015625)"/>
       </defs>
       <use xlink:href="#DejaVuSans-30"/>
      </g>
     </g>
    </g>
    <g id="xtick_2">
     <g id="line2d_2">
      <g>
       <use xlink:href="#me1a46de0f1" x="137.266597" y="307.584" style="stroke: #000000; stroke-width: 0.8"/>
      </g>
     </g>
     <g id="text_2">
      <!-- 500 -->
      <g transform="translate(127.722847 322.182437)scale(0.1 -0.1)">
       <defs>
        <path id="DejaVuSans-35" d="M 691 4666 
L 3169 4666 
L 3169 4134 
L 1269 4134 
L 1269 2991 
Q 1406 3038 1543 3061 
Q 1681 3084 1819 3084 
Q 2600 3084 3056 2656 
Q 3513 2228 3513 1497 
Q 3513 744 3044 326 
Q 2575 -91 1722 -91 
Q 1428 -91 1123 -41 
Q 819 9 494 109 
L 494 744 
Q 775 591 1075 516 
Q 1375 441 1709 441 
Q 2250 441 2565 725 
Q 2881 1009 2881 1497 
Q 2881 1984 2565 2268 
Q 2250 2553 1709 2553 
Q 1456 2553 1204 2497 
Q 953 2441 691 2322 
L 691 4666 
z
" transform="scale(0.015625)"/>
       </defs>
       <use xlink:href="#DejaVuSans-35"/>
       <use xlink:href="#DejaVuSans-30" x="63.623047"/>
       <use xlink:href="#DejaVuSans-30" x="127.246094"/>
      </g>
     </g>
    </g>
    <g id="xtick_3">
     <g id="line2d_3">
      <g>
       <use xlink:href="#me1a46de0f1" x="200.700467" y="307.584" style="stroke: #000000; stroke-width: 0.8"/>
      </g>
     </g>
     <g id="text_3">
      <!-- 1000 -->
      <g transform="translate(187.975467 322.182437)scale(0.1 -0.1)">
       <defs>
        <path id="DejaVuSans-31" d="M 794 531 
L 1825 531 
L 1825 4091 
L 703 3866 
L 703 4441 
L 1819 4666 
L 2450 4666 
L 2450 531 
L 3481 531 
L 3481 0 
L 794 0 
L 794 531 
z
" transform="scale(0.015625)"/>
       </defs>
       <use xlink:href="#DejaVuSans-31"/>
       <use xlink:href="#DejaVuSans-30" x="63.623047"/>
       <use xlink:href="#DejaVuSans-30" x="127.246094"/>
       <use xlink:href="#DejaVuSans-30" x="190.869141"/>
      </g>
     </g>
    </g>
    <g id="xtick_4">
     <g id="line2d_4">
      <g>
       <use xlink:href="#me1a46de0f1" x="264.134337" y="307.584" style="stroke: #000000; stroke-width: 0.8"/>
      </g>
     </g>
     <g id="text_4">
      <!-- 1500 -->
      <g transform="translate(251.409337 322.182437)scale(0.1 -0.1)">
       <use xlink:href="#DejaVuSans-31"/>
       <use xlink:href="#DejaVuSans-35" x="63.623047"/>
       <use xlink:href="#DejaVuSans-30" x="127.246094"/>
       <use xlink:href="#DejaVuSans-30" x="190.869141"/>
      </g>
     </g>
    </g>
    <g id="xtick_5">
     <g id="line2d_5">
      <g>
       <use xlink:href="#me1a46de0f1" x="327.568206" y="307.584" style="stroke: #000000; stroke-width: 0.8"/>
      </g>
     </g>
     <g id="text_5">
      <!-- 2000 -->
      <g transform="translate(314.843206 322.182437)scale(0.1 -0.1)">
       <defs>
        <path id="DejaVuSans-32" d="M 1228 531 
L 3431 531 
L 3431 0 
L 469 0 
L 469 531 
Q 828 903 1448 1529 
Q 2069 2156 2228 2338 
Q 2531 2678 2651 2914 
Q 2772 3150 2772 3378 
Q 2772 3750 2511 3984 
Q 2250 4219 1831 4219 
Q 1534 4219 1204 4116 
Q 875 4013 500 3803 
L 500 4441 
Q 881 4594 1212 4672 
Q 1544 4750 1819 4750 
Q 2544 4750 2975 4387 
Q 3406 4025 3406 3419 
Q 3406 3131 3298 2873 
Q 3191 2616 2906 2266 
Q 2828 2175 2409 1742 
Q 1991 1309 1228 531 
z
" transform="scale(0.015625)"/>
       </defs>
       <use xlink:href="#DejaVuSans-32"/>
       <use xlink:href="#DejaVuSans-30" x="63.623047"/>
       <use xlink:href="#DejaVuSans-30" x="127.246094"/>
       <use xlink:href="#DejaVuSans-30" x="190.869141"/>
      </g>
     </g>
    </g>
    <g id="xtick_6">
     <g id="line2d_6">
      <g>
       <use xlink:href="#me1a46de0f1" x="391.002076" y="307.584" style="stroke: #000000; stroke-width: 0.8"/>
      </g>
     </g>
     <g id="text_6">
      <!-- 2500 -->
      <g transform="translate(378.277076 322.182437)scale(0.1 -0.1)">
       <use xlink:href="#DejaVuSans-32"/>
       <use xlink:href="#DejaVuSans-35" x="63.623047"/>
       <use xlink:href="#DejaVuSans-30" x="127.246094"/>
       <use xlink:href="#DejaVuSans-30" x="190.869141"/>
      </g>
     </g>
    </g>
   </g>
   <g id="matplotlib.axis_2">
    <g id="ytick_1">
     <g id="line2d_7">
      <defs>
       <path id="mf6cc97ab3f" d="M 0 0 
L -3.5 0 
" style="stroke: #000000; stroke-width: 0.8"/>
      </defs>
      <g>
       <use xlink:href="#mf6cc97ab3f" x="57.6" y="281.092236" style="stroke: #000000; stroke-width: 0.8"/>
      </g>
     </g>
     <g id="text_7">
      <!-- 3900 -->
      <g transform="translate(25.15 284.891455)scale(0.1 -0.1)">
       <defs>
        <path id="DejaVuSans-33" d="M 2597 2516 
Q 3050 2419 3304 2112 
Q 3559 1806 3559 1356 
Q 3559 666 3084 287 
Q 2609 -91 1734 -91 
Q 1441 -91 1130 -33 
Q 819 25 488 141 
L 488 750 
Q 750 597 1062 519 
Q 1375 441 1716 441 
Q 2309 441 2620 675 
Q 2931 909 2931 1356 
Q 2931 1769 2642 2001 
Q 2353 2234 1838 2234 
L 1294 2234 
L 1294 2753 
L 1863 2753 
Q 2328 2753 2575 2939 
Q 2822 3125 2822 3475 
Q 2822 3834 2567 4026 
Q 2313 4219 1838 4219 
Q 1578 4219 1281 4162 
Q 984 4106 628 3988 
L 628 4550 
Q 988 4650 1302 4700 
Q 1616 4750 1894 4750 
Q 2613 4750 3031 4423 
Q 3450 4097 3450 3541 
Q 3450 3153 3228 2886 
Q 3006 2619 2597 2516 
z
" transform="scale(0.015625)"/>
        <path id="DejaVuSans-39" d="M 703 97 
L 703 672 
Q 941 559 1184 500 
Q 1428 441 1663 441 
Q 2288 441 2617 861 
Q 2947 1281 2994 2138 
Q 2813 1869 2534 1725 
Q 2256 1581 1919 1581 
Q 1219 1581 811 2004 
Q 403 2428 403 3163 
Q 403 3881 828 4315 
Q 1253 4750 1959 4750 
Q 2769 4750 3195 4129 
Q 3622 3509 3622 2328 
Q 3622 1225 3098 567 
Q 2575 -91 1691 -91 
Q 1453 -91 1209 -44 
Q 966 3 703 97 
z
M 1959 2075 
Q 2384 2075 2632 2365 
Q 2881 2656 2881 3163 
Q 2881 3666 2632 3958 
Q 2384 4250 1959 4250 
Q 1534 4250 1286 3958 
Q 1038 3666 1038 3163 
Q 1038 2656 1286 2365 
Q 1534 2075 1959 2075 
z
" transform="scale(0.015625)"/>
       </defs>
       <use xlink:href="#DejaVuSans-33"/>
       <use xlink:href="#DejaVuSans-39" x="63.623047"/>
       <use xlink:href="#DejaVuSans-30" x="127.246094"/>
       <use xlink:href="#DejaVuSans-30" x="190.869141"/>
      </g>
     </g>
    </g>
    <g id="ytick_2">
     <g id="line2d_8">
      <g>
       <use xlink:href="#mf6cc97ab3f" x="57.6" y="224.948949" style="stroke: #000000; stroke-width: 0.8"/>
      </g>
     </g>
     <g id="text_8">
      <!-- 4000 -->
      <g transform="translate(25.15 228.748168)scale(0.1 -0.1)">
       <defs>
        <path id="DejaVuSans-34" d="M 2419 4116 
L 825 1625 
L 2419 1625 
L 2419 4116 
z
M 2253 4666 
L 3047 4666 
L 3047 1625 
L 3713 1625 
L 3713 1100 
L 3047 1100 
L 3047 0 
L 2419 0 
L 2419 1100 
L 313 1100 
L 313 1709 
L 2253 4666 
z
" transform="scale(0.015625)"/>
       </defs>
       <use xlink:href="#DejaVuSans-34"/>
       <use xlink:href="#DejaVuSans-30" x="63.623047"/>
       <use xlink:href="#DejaVuSans-30" x="127.246094"/>
       <use xlink:href="#DejaVuSans-30" x="190.869141"/>
      </g>
     </g>
    </g>
    <g id="ytick_3">
     <g id="line2d_9">
      <g>
       <use xlink:href="#mf6cc97ab3f" x="57.6" y="168.805661" style="stroke: #000000; stroke-width: 0.8"/>
      </g>
     </g>
     <g id="text_9">
      <!-- 4100 -->
      <g transform="translate(25.15 172.60488)scale(0.1 -0.1)">
       <use xlink:href="#DejaVuSans-34"/>
       <use xlink:href="#DejaVuSans-31" x="63.623047"/>
       <use xlink:href="#DejaVuSans-30" x="127.246094"/>
       <use xlink:href="#DejaVuSans-30" x="190.869141"/>
      </g>
     </g>
    </g>
    <g id="ytick_4">
     <g id="line2d_10">
      <g>
       <use xlink:href="#mf6cc97ab3f" x="57.6" y="112.662374" style="stroke: #000000; stroke-width: 0.8"/>
      </g>
     </g>
     <g id="text_10">
      <!-- 4200 -->
      <g transform="translate(25.15 116.461593)scale(0.1 -0.1)">
       <use xlink:href="#DejaVuSans-34"/>
       <use xlink:href="#DejaVuSans-32" x="63.623047"/>
       <use xlink:href="#DejaVuSans-30" x="127.246094"/>
       <use xlink:href="#DejaVuSans-30" x="190.869141"/>
      </g>
     </g>
    </g>
    <g id="ytick_5">
     <g id="line2d_11">
      <g>
       <use xlink:href="#mf6cc97ab3f" x="57.6" y="56.519087" style="stroke: #000000; stroke-width: 0.8"/>
      </g>
     </g>
     <g id="text_11">
      <!-- 4300 -->
      <g transform="translate(25.15 60.318305)scale(0.1 -0.1)">
       <use xlink:href="#DejaVuSans-34"/>
       <use xlink:href="#DejaVuSans-33" x="63.623047"/>
       <use xlink:href="#DejaVuSans-30" x="127.246094"/>
       <use xlink:href="#DejaVuSans-30" x="190.869141"/>
      </g>
     </g>
    </g>
   </g>
   <g id="line2d_12">
    <path d="M 73.832727 154.265975 
L 73.959595 153.834209 
L 74.21333 156.13751 
L 74.340198 155.777568 
L 74.467066 157.649102 
L 74.593934 157.28916 
L 74.720801 154.913762 
L 74.974537 156.353255 
L 75.101405 154.122053 
L 75.228272 157.720926 
L 75.482008 166.646283 
L 75.735743 163.191333 
L 75.862611 164.415081 
L 76.243214 158.728654 
L 76.370082 158.872576 
L 76.49695 157.864848 
L 76.623818 157.793024 
L 77.004421 164.486905 
L 77.385024 155.849392 
L 77.765627 154.049955 
L 77.892495 154.265975 
L 78.14623 158.22479 
L 78.273098 157.936946 
L 78.399966 156.353255 
L 78.653701 157.28916 
L 78.907437 154.553819 
L 79.034305 154.98586 
L 79.161172 157.360984 
L 79.28804 156.065412 
L 79.414908 149.011589 
L 79.541776 148.579549 
L 79.668643 156.353255 
L 79.795511 155.993587 
L 79.922379 150.523181 
L 80.176114 155.92149 
L 80.42985 146.780112 
L 80.556717 154.553819 
L 80.683585 155.417626 
L 80.937321 145.412716 
L 81.064188 147.427899 
L 81.191056 147.643918 
L 81.317924 149.155511 
L 81.571659 155.561547 
L 81.698527 155.201606 
L 81.952263 149.155511 
L 82.07913 149.731473 
L 82.205998 148.939491 
L 82.459734 146.63619 
L 82.586601 147.643918 
L 82.713469 147.572094 
L 82.840337 146.276248 
L 83.094072 148.579549 
L 83.347808 146.348346 
L 83.474675 146.852211 
L 83.728411 150.811025 
L 84.109014 146.63619 
L 84.235882 146.276248 
L 84.489617 148.867667 
L 84.616485 148.219881 
L 84.870221 148.795569 
L 84.997088 148.579549 
L 85.250824 146.63619 
L 85.631427 156.497452 
L 85.885163 151.962675 
L 86.01203 152.610461 
L 86.138898 152.466539 
L 86.265766 153.042227 
L 86.519501 156.13751 
L 86.773237 156.85712 
L 86.900104 157.28916 
L 87.026972 156.13751 
L 87.15384 153.186423 
L 87.280708 153.474267 
L 87.407575 155.129781 
L 87.788179 145.124598 
L 87.915046 146.564367 
L 88.168782 146.276248 
L 88.29565 146.780112 
L 88.676253 153.186423 
L 88.929988 156.497452 
L 89.183724 157.28916 
L 89.564327 146.924309 
L 89.691195 147.427899 
L 89.818062 146.060503 
L 89.94493 149.371531 
L 90.071798 144.836754 
L 90.198666 146.63619 
L 90.325533 146.420445 
L 90.452401 147.068231 
L 90.833004 151.674831 
L 91.340475 145.412716 
L 91.467343 145.772384 
L 91.594211 147.212152 
L 91.721079 147.356075 
L 91.847946 147.140054 
L 92.101682 148.795569 
L 92.22855 146.204424 
L 92.355417 149.011589 
L 92.482285 155.561547 
L 93.116624 141.957766 
L 93.370359 147.716017 
L 93.497227 144.476812 
L 93.624095 144.404988 
L 93.87783 146.852211 
L 94.004698 146.996133 
L 94.385301 137.206969 
L 94.512169 137.998951 
L 94.639037 137.206969 
L 95.01964 139.366348 
L 95.146508 139.654465 
L 95.273375 139.654465 
L 95.527111 140.517997 
L 95.780846 138.718561 
L 95.907714 140.517997 
L 96.034582 140.734018 
L 96.161449 139.510269 
L 96.288317 140.806116 
L 96.542053 145.340618 
L 96.66892 144.54891 
L 96.795788 144.836754 
L 96.922656 146.204424 
L 97.049524 144.76493 
L 97.303259 136.415261 
L 97.556995 147.859939 
L 97.683862 147.356075 
L 97.81073 144.76493 
L 97.937598 144.476812 
L 98.064466 144.54891 
L 98.191333 149.155511 
L 98.318201 148.651647 
L 98.445069 149.515453 
L 98.571936 149.155511 
L 98.825672 146.63619 
L 98.95254 147.716017 
L 99.206275 144.692832 
L 99.586878 148.435626 
L 99.840614 157.28916 
L 99.967482 154.841938 
L 100.094349 155.057683 
L 100.221217 156.85712 
L 100.474953 153.618189 
L 100.60182 152.68256 
L 100.855556 147.499997 
L 101.109291 145.052774 
L 101.236159 145.628462 
L 101.363027 145.340618 
L 101.489894 144.045046 
L 101.74363 148.291705 
L 101.870498 147.787841 
L 101.997365 146.420445 
L 102.124233 148.363803 
L 102.377969 154.481996 
L 102.631704 153.978132 
L 102.758572 155.777568 
L 102.88544 154.409898 
L 103.139175 143.18124 
L 103.392911 147.283977 
L 103.519778 146.204424 
L 103.900382 154.913762 
L 104.027249 155.129781 
L 104.154117 157.001042 
L 104.53472 146.996133 
L 104.661588 146.780112 
L 104.788456 143.469084 
L 104.915323 144.261066 
L 105.042191 147.283977 
L 105.169059 146.780112 
L 105.295927 151.314889 
L 105.549662 161.895761 
L 105.803398 154.122053 
L 105.930265 153.114326 
L 106.184001 148.219881 
L 106.310869 163.263431 
L 106.437736 163.263431 
L 106.691472 171.180923 
L 106.81834 167.941855 
L 106.945207 168.445719 
L 107.072075 172.188651 
L 107.198943 172.404534 
L 107.325811 173.052457 
L 107.452678 172.476632 
L 107.579546 169.597369 
L 107.706414 171.612826 
L 107.833281 171.396943 
L 107.960149 166.718381 
L 108.213885 171.324845 
L 108.340752 169.597369 
L 108.46762 171.180923 
L 108.594488 174.41999 
L 108.721356 173.700243 
L 109.101959 164.055139 
L 109.355694 168.877759 
L 109.990033 156.065412 
L 110.116901 158.584732 
L 110.243769 158.800752 
L 110.370636 157.504906 
L 110.497504 157.504906 
L 110.624372 158.512634 
L 110.751239 158.296888 
L 111.25871 143.109416 
L 111.385578 144.980676 
L 111.512446 148.579549 
L 111.639314 147.787841 
L 111.766181 145.052774 
L 112.019917 153.474267 
L 112.273652 145.48454 
L 112.527388 156.209334 
L 112.781123 153.474267 
L 112.907991 152.250519 
L 113.161727 145.48454 
L 113.288594 147.068231 
L 113.415462 146.852211 
L 113.54233 143.901124 
L 113.796065 147.572094 
L 114.049801 139.294523 
L 114.430404 154.697741 
L 114.557272 154.193877 
L 114.684139 157.145238 
L 114.811007 157.433082 
L 114.937875 157.145238 
L 115.064743 157.577004 
L 115.19161 157.504906 
L 115.318478 156.353255 
L 115.572214 148.363803 
L 115.952817 156.281432 
L 116.079685 158.44081 
L 116.33342 158.00877 
L 116.587155 166.862303 
L 116.840891 159.59246 
L 117.094626 163.335255 
L 117.221494 163.191333 
L 117.47523 164.630827 
L 117.602097 164.342983 
L 117.728965 164.342983 
L 118.363304 151.314889 
L 118.490172 149.875395 
L 118.743907 158.152966 
L 118.870775 156.281432 
L 118.997643 157.864848 
L 119.12451 163.407353 
L 119.251378 161.463721 
L 119.378246 156.353255 
L 119.505114 156.713198 
L 119.631981 158.368712 
L 119.758849 157.360984 
L 120.012584 152.466539 
L 120.26632 157.433082 
L 120.520055 153.546091 
L 120.773791 155.92149 
L 121.027526 155.201606 
L 121.281262 157.720926 
L 121.534997 146.132326 
L 121.661865 146.996133 
L 121.915601 155.849392 
L 122.042468 154.697741 
L 122.296204 156.209334 
L 122.423072 155.057683 
L 122.549939 140.446174 
L 122.676807 139.870212 
L 122.930542 137.998951 
L 123.05741 138.142874 
L 123.438013 137.495087 
L 123.564881 137.279067 
L 123.818617 137.639009 
L 124.072352 134.831845 
L 124.19922 135.335709 
L 124.326088 135.191787 
L 124.579823 129.577458 
L 124.960426 127.20206 
L 125.214162 130.44099 
L 125.34103 129.72138 
L 125.594765 134.543727 
L 125.721633 130.153147 
L 125.8485 129.793204 
L 126.102236 139.798388 
L 126.229104 135.767475 
L 126.482839 136.127417 
L 126.609707 134.184059 
L 126.863442 137.854755 
L 126.99031 137.279067 
L 127.244046 146.420445 
L 127.370913 146.348346 
L 127.624649 143.253338 
L 127.751517 138.646738 
L 127.878384 138.502816 
L 128.13212 144.76493 
L 128.385855 137.639009 
L 128.512723 142.173512 
L 128.639591 142.677376 
L 128.766458 140.590095 
L 129.020194 146.276248 
L 129.273929 140.66192 
L 129.527665 147.643918 
L 129.654533 147.212152 
L 129.7814 146.348346 
L 130.035136 140.734018 
L 130.415739 149.083413 
L 130.542607 159.016498 
L 130.796342 144.76493 
L 130.92321 144.33289 
L 131.176946 146.204424 
L 131.303813 145.844482 
L 131.430681 146.348346 
L 131.684416 149.011589 
L 131.811284 148.507724 
L 132.06502 143.901124 
L 132.191887 146.852211 
L 132.445623 142.893396 
L 132.572491 144.692832 
L 132.826226 139.150601 
L 133.079962 150.523181 
L 133.460565 144.620734 
L 133.587433 138.070776 
L 133.7143 137.279067 
L 133.841168 140.014133 
L 133.968036 140.014133 
L 134.221771 137.422989 
L 134.348639 139.654465 
L 134.602375 148.219881 
L 134.729242 144.836754 
L 134.85611 145.052774 
L 134.982978 146.996133 
L 135.109845 145.70056 
L 135.236713 145.556638 
L 135.363581 146.924309 
L 135.490449 146.708288 
L 135.617316 146.060503 
L 135.871052 147.499997 
L 136.124787 145.91658 
L 136.251655 147.356075 
L 136.378523 147.212152 
L 136.505391 146.708288 
L 136.759126 148.939491 
L 136.885994 147.068231 
L 137.012862 146.924309 
L 137.266597 148.435626 
L 137.520333 147.140054 
L 137.6472 148.363803 
L 137.774068 147.859939 
L 138.027803 143.109416 
L 138.281539 148.435626 
L 138.535274 141.741746 
L 138.662142 144.404988 
L 138.78901 158.44081 
L 139.042745 155.633646 
L 139.169613 155.561547 
L 139.296481 154.193877 
L 139.550216 160.096324 
L 139.803952 154.913762 
L 139.93082 155.993587 
L 140.184555 149.155511 
L 140.438291 155.417626 
L 140.692026 153.978132 
L 141.072629 156.785296 
L 141.326365 156.929218 
L 141.453232 158.080868 
L 141.706968 146.132326 
L 141.833836 146.348346 
L 142.087571 140.086231 
L 142.341307 147.643918 
L 142.468174 145.844482 
L 142.595042 146.204424 
L 142.72191 148.795569 
L 142.975645 148.291705 
L 143.229381 150.738927 
L 143.356249 154.049955 
L 143.483116 153.546091 
L 143.736852 137.566911 
L 143.863719 137.350891 
L 144.244323 147.859939 
L 144.37119 147.931762 
L 144.624926 151.674831 
L 144.878661 147.356075 
L 145.005529 148.219881 
L 145.132397 151.674831 
L 145.259265 150.883123 
L 145.386132 144.908852 
L 145.513 144.261066 
L 145.639868 147.787841 
L 145.766736 146.924309 
L 145.893603 148.651647 
L 146.147339 159.016498 
L 146.274207 157.145238 
L 146.401074 157.28916 
L 146.527942 158.872576 
L 146.65481 158.00877 
L 146.781678 156.13751 
L 146.908545 234.666014 
L 147.035413 237.977042 
L 147.289148 251.868942 
L 147.416016 251.149195 
L 147.923487 258.778843 
L 148.050355 257.483271 
L 148.177223 257.771115 
L 148.30409 262.521775 
L 148.430958 262.449814 
L 148.811561 249.565642 
L 148.938429 247.478225 
L 149.192165 250.285389 
L 149.699636 232.938539 
L 149.826503 234.16215 
L 149.953371 233.802345 
L 150.58771 220.558231 
L 150.714577 215.735748 
L 150.841445 215.591689 
L 150.968313 217.535184 
L 151.095181 214.008272 
L 151.602652 186.368394 
L 151.856387 163.04741 
L 152.110123 166.790205 
L 152.363858 154.553819 
L 152.490726 154.697741 
L 152.617594 157.649102 
L 152.871329 145.988405 
L 152.998197 146.060503 
L 153.125064 148.291705 
L 153.251932 147.356075 
L 153.886271 136.343437 
L 154.013139 136.271339 
L 154.140006 135.551455 
L 154.393742 137.422989 
L 154.647477 128.425808 
L 154.901213 133.392077 
L 155.154948 148.291705 
L 155.281816 148.723745 
L 155.408684 147.931762 
L 155.662419 153.186423 
L 156.16989 138.286795 
L 156.423626 148.075958 
L 156.550493 146.852211 
L 156.804229 156.713198 
L 157.057964 155.129781 
L 157.3117 157.433082 
L 157.692303 155.273704 
L 157.946039 152.466539 
L 158.199774 156.353255 
L 158.326642 156.209334 
L 158.45351 155.345802 
L 158.707245 145.844482 
L 158.96098 149.443355 
L 159.087848 147.931762 
L 159.214716 150.954947 
L 159.468451 157.864848 
L 159.595319 155.993587 
L 159.849055 158.00877 
L 160.10279 151.242791 
L 160.356526 156.569276 
L 160.483393 154.913762 
L 160.610261 155.417626 
L 160.737129 157.07314 
L 161.498335 146.060503 
L 161.752071 149.947219 
L 161.878939 148.867667 
L 162.005806 148.939491 
L 162.132674 149.803297 
L 162.386409 146.996133 
L 162.513277 148.723745 
L 162.640145 148.579549 
L 162.767013 149.371531 
L 162.89388 151.746655 
L 163.020748 149.227609 
L 163.147616 154.841938 
L 163.274484 152.898305 
L 163.528219 144.620734 
L 163.781955 148.651647 
L 163.908822 149.155511 
L 164.162558 147.859939 
L 164.289426 148.579549 
L 164.416293 148.00386 
L 164.670029 145.340618 
L 164.923764 150.019317 
L 165.050632 148.579549 
L 165.304367 144.476812 
L 165.431235 145.91658 
L 165.684971 145.988405 
L 165.811838 147.427899 
L 166.065574 145.196696 
L 166.192442 145.268794 
L 166.446177 138.934582 
L 166.82678 148.651647 
L 166.953648 148.435626 
L 167.207384 146.852211 
L 167.334251 148.291705 
L 167.461119 147.859939 
L 167.587987 149.515453 
L 167.714855 153.474267 
L 167.841722 153.618189 
L 167.96859 153.474267 
L 168.095458 154.338074 
L 168.349193 147.643918 
L 168.476061 147.716017 
L 168.602929 147.572094 
L 168.983532 141.885668 
L 169.1104 142.821298 
L 169.364135 147.140054 
L 169.491003 147.356075 
L 169.617871 149.011589 
L 169.744738 147.931762 
L 169.871606 149.515453 
L 170.125342 157.360984 
L 170.252209 156.569276 
L 170.379077 153.906034 
L 170.632813 146.564367 
L 170.75968 148.723745 
L 171.013416 146.564367 
L 171.140283 152.538637 
L 171.267151 146.63619 
L 171.394019 146.204424 
L 171.520887 146.276248 
L 171.647754 146.996133 
L 171.774622 146.852211 
L 171.90149 146.132326 
L 172.028358 146.780112 
L 172.155225 148.291705 
L 172.282093 148.435626 
L 172.535829 145.124598 
L 172.789564 154.193877 
L 172.916432 153.690287 
L 173.0433 152.826481 
L 173.297035 157.433082 
L 173.423903 154.98586 
L 173.550771 155.633646 
L 173.804506 157.360984 
L 173.931374 161.247974 
L 174.058242 161.175876 
L 174.311977 144.76493 
L 174.565712 149.155511 
L 174.69258 145.70056 
L 174.819448 145.988405 
L 174.946316 147.427899 
L 175.073183 147.283977 
L 175.326919 147.787841 
L 175.453787 147.212152 
L 175.83439 144.404988 
L 175.961258 144.045046 
L 176.088125 144.045046 
L 176.341861 147.212152 
L 176.595596 146.492269 
L 176.722464 146.996133 
L 176.849332 146.492269 
L 176.9762 146.996133 
L 177.229935 149.299433 
L 177.356803 148.939491 
L 177.48367 147.859939 
L 177.610538 147.787841 
L 177.737406 148.867667 
L 177.864274 147.716017 
L 177.991141 148.435626 
L 178.118009 154.122053 
L 178.244877 154.625917 
L 178.498612 146.348346 
L 178.62548 150.307161 
L 178.752348 149.947219 
L 179.006083 146.492269 
L 179.132951 146.204424 
L 179.259819 147.212152 
L 179.386687 154.841938 
L 179.513554 152.898305 
L 179.76729 159.088596 
L 180.021025 145.340618 
L 180.147893 145.48454 
L 180.274761 146.852211 
L 180.528496 144.404988 
L 180.909099 157.864848 
L 181.035967 158.296888 
L 181.162835 158.00877 
L 181.543438 153.618189 
L 181.797174 145.340618 
L 181.924041 146.780112 
L 182.177777 137.639009 
L 182.304645 138.070776 
L 182.431512 138.934582 
L 182.55838 137.782931 
L 182.685248 140.374076 
L 182.812116 145.48454 
L 182.938983 145.196696 
L 183.065851 142.893396 
L 183.446454 149.227609 
L 183.70019 155.70547 
L 183.827057 153.186423 
L 184.080793 158.584732 
L 184.334528 148.435626 
L 184.588264 157.936946 
L 184.841999 147.716017 
L 185.095735 149.155511 
L 185.34947 156.353255 
L 185.603206 153.258247 
L 185.856941 154.841938 
L 185.983809 152.394441 
L 186.110677 153.834209 
L 186.237544 157.577004 
L 186.364412 155.849392 
L 186.49128 156.209334 
L 186.745015 165.206789 
L 187.125619 148.507724 
L 187.252486 146.420445 
L 187.379354 146.276248 
L 187.506222 178.162922 
L 187.63309 177.371077 
L 187.886825 185.648648 
L 188.013693 182.481541 
L 188.140561 182.481541 
L 188.267428 182.985405 
L 188.394296 180.610144 
L 188.521164 182.553502 
L 188.648032 182.337619 
L 188.901767 176.147465 
L 189.155503 177.587096 
L 189.28237 180.970086 
L 189.409238 180.754066 
L 189.536106 175.427718 
L 189.662973 176.435447 
L 189.789841 181.114008 
L 189.916709 179.746338 
L 190.170444 170.533273 
L 190.297312 169.453448 
L 190.551048 174.41999 
L 191.058519 163.04741 
L 191.185386 162.399625 
L 191.312254 162.975312 
L 191.439122 164.415081 
L 191.56599 164.415081 
L 191.692857 164.559003 
L 191.946593 166.862303 
L 192.200328 157.001042 
L 192.454064 145.70056 
L 192.580931 147.356075 
L 192.834667 156.929218 
L 192.961535 154.409898 
L 193.21527 160.52809 
L 193.469006 153.690287 
L 193.849609 157.577004 
L 193.976477 157.577004 
L 194.230212 156.065412 
L 194.35708 155.92149 
L 194.610815 149.515453 
L 194.864551 157.720926 
L 194.991419 156.641374 
L 195.245154 152.754383 
L 195.498889 155.70547 
L 195.625757 148.219881 
L 195.752625 147.931762 
L 195.879493 147.356075 
L 196.00636 147.716017 
L 196.260096 152.178695 
L 196.767567 144.188968 
L 196.894435 145.412716 
L 197.14817 148.867667 
L 197.275038 149.371531 
L 197.655641 154.625917 
L 197.782509 155.129781 
L 198.28998 151.314889 
L 198.416847 151.314889 
L 198.670583 154.98586 
L 198.797451 154.98586 
L 198.924318 155.129781 
L 199.304922 147.212152 
L 199.431789 149.227609 
L 199.558657 148.363803 
L 199.685525 146.348346 
L 199.812393 147.859939 
L 200.066128 153.474267 
L 200.319864 148.723745 
L 200.446731 149.227609 
L 200.700467 146.63619 
L 200.954202 148.651647 
L 201.207938 145.556638 
L 201.334805 146.132326 
L 201.461673 147.787841 
L 201.588541 146.708288 
L 201.715409 144.045046 
L 201.842276 144.476812 
L 201.969144 146.348346 
L 202.096012 146.420445 
L 202.22288 146.63619 
L 202.349747 148.363803 
L 202.476615 148.507724 
L 202.730351 143.901124 
L 202.984086 147.643918 
L 203.110954 148.147783 
L 203.364689 147.283977 
L 203.491557 148.147783 
L 203.618425 147.931762 
L 203.745293 156.281432 
L 203.87216 154.122053 
L 204.125896 147.356075 
L 204.252764 149.011589 
L 204.379631 147.140054 
L 204.506499 149.299433 
L 204.633367 154.049955 
L 204.887102 147.140054 
L 205.140838 152.466539 
L 205.267705 148.795569 
L 205.394573 148.435626 
L 205.648309 153.618189 
L 205.775176 151.098869 
L 206.028912 144.980676 
L 206.282647 147.643918 
L 206.409515 147.931762 
L 206.536383 148.723745 
L 206.663251 148.723745 
L 206.790118 148.867667 
L 207.043854 147.068231 
L 207.297589 154.338074 
L 207.424457 154.98586 
L 207.678192 153.834209 
L 207.80506 154.553819 
L 207.931928 156.13751 
L 208.185663 155.70547 
L 208.312531 156.929218 
L 208.566267 155.489724 
L 208.693134 156.497452 
L 208.820002 155.561547 
L 209.073738 148.723745 
L 209.200605 151.314889 
L 209.327473 149.587277 
L 209.454341 145.844482 
L 209.581209 146.492269 
L 209.708076 148.291705 
L 209.961812 146.780112 
L 210.08868 147.140054 
L 210.215547 148.651647 
L 210.342415 148.579549 
L 210.469283 147.643918 
L 210.849886 155.849392 
L 211.230489 148.00386 
L 211.357357 148.00386 
L 211.484225 148.363803 
L 211.611092 147.787841 
L 211.73796 149.731473 
L 211.864828 147.140054 
L 211.991696 147.499997 
L 212.245431 145.340618 
L 212.752902 148.363803 
L 212.87977 147.931762 
L 213.133505 145.844482 
L 213.387241 146.63619 
L 213.514108 146.132326 
L 213.640976 146.132326 
L 213.894712 147.572094 
L 214.021579 145.844482 
L 214.148447 146.924309 
L 214.275315 152.538637 
L 214.402183 152.68256 
L 214.655918 147.068231 
L 214.909654 141.81357 
L 215.163389 146.420445 
L 215.290257 140.446174 
L 215.417125 139.870212 
L 215.67086 146.924309 
L 215.797728 147.212152 
L 216.178331 138.790659 
L 216.685802 145.772384 
L 216.939537 139.366348 
L 217.066405 140.014133 
L 217.193273 144.54891 
L 217.320141 143.541182 
L 217.447008 139.366348 
L 217.573876 139.510269 
L 217.827612 146.708288 
L 217.954479 146.060503 
L 218.081347 143.037318 
L 218.208215 143.685104 
L 218.335083 146.564367 
L 218.46195 145.556638 
L 218.588818 143.325162 
L 218.842554 147.859939 
L 218.969421 146.420445 
L 219.096289 142.389532 
L 219.223157 142.173512 
L 219.476892 147.283977 
L 219.730628 141.957766 
L 219.857495 142.605552 
L 219.984363 146.708288 
L 220.111231 146.348346 
L 220.238099 146.780112 
L 220.364966 147.643918 
L 220.618702 145.412716 
L 220.872437 148.579549 
L 220.999305 146.276248 
L 221.253041 148.939491 
L 221.379908 147.068231 
L 221.633644 153.762111 
L 221.760512 149.011589 
L 221.887379 148.723745 
L 222.014247 153.114326 
L 222.141115 152.754383 
L 222.267983 151.242791 
L 222.39485 151.170967 
L 222.902321 144.54891 
L 223.156057 145.628462 
L 223.282924 144.908852 
L 223.53666 148.219881 
L 223.790395 146.060503 
L 224.044131 150.451083 
L 224.297866 148.219881 
L 224.67847 155.849392 
L 224.932205 146.492269 
L 225.185941 149.227609 
L 225.439676 147.283977 
L 225.693411 152.106597 
L 225.820279 154.76984 
L 225.947147 154.913762 
L 226.200882 148.291705 
L 226.454618 149.371531 
L 226.581486 148.507724 
L 226.835221 155.273704 
L 226.962089 153.258247 
L 227.088957 154.122053 
L 227.215824 157.433082 
L 227.342692 157.720926 
L 227.723295 155.92149 
L 227.850163 155.849392 
L 227.977031 154.841938 
L 228.103899 162.759567 
L 228.230766 162.975312 
L 228.357634 164.990769 
L 228.484502 164.918945 
L 228.611369 165.278613 
L 228.738237 164.774749 
L 228.865105 162.975312 
L 228.991973 162.831391 
L 229.11884 165.638555 
L 229.372576 157.649102 
L 229.626311 160.168148 
L 229.753179 159.304616 
L 230.006915 164.055139 
L 230.133782 163.407353 
L 230.387518 166.070595 
L 230.641253 165.566731 
L 230.894989 158.800752 
L 231.275592 163.407353 
L 231.656195 154.98586 
L 231.783063 155.129781 
L 231.909931 154.553819 
L 232.036798 154.98586 
L 232.290534 157.720926 
L 232.417402 156.425354 
L 232.544269 156.929218 
L 232.671137 156.209334 
L 233.05174 145.628462 
L 233.432344 153.546091 
L 233.559211 152.610461 
L 233.686079 153.330345 
L 233.812947 155.129781 
L 234.066682 149.587277 
L 234.320418 156.641374 
L 234.447286 156.425354 
L 234.574153 155.633646 
L 234.701021 155.633646 
L 234.954756 153.546091 
L 235.208492 149.515453 
L 235.33536 151.458811 
L 235.462227 155.561547 
L 235.589095 155.417626 
L 235.715963 153.330345 
L 235.842831 154.049955 
L 235.969698 155.561547 
L 236.096566 155.417626 
L 236.223434 139.150601 
L 236.350302 138.57464 
L 236.604037 130.369166 
L 236.730905 134.255883 
L 236.857773 141.81357 
L 236.98464 140.950038 
L 237.238376 124.826662 
L 237.365244 123.243245 
L 237.872714 138.430717 
L 237.999582 137.495087 
L 238.12645 137.782931 
L 238.380185 146.060503 
L 238.633921 137.782931 
L 238.760789 142.749474 
L 238.887656 142.677376 
L 239.014524 139.654465 
L 239.26826 148.291705 
L 239.648863 143.39726 
L 239.902598 136.415261 
L 240.029466 137.854755 
L 240.283202 135.767475 
L 240.410069 137.854755 
L 240.663805 144.476812 
L 240.91754 148.435626 
L 241.044408 145.124598 
L 241.171276 138.502816 
L 241.298143 137.710833 
L 241.425011 140.87794 
L 241.551879 139.366348 
L 241.805614 123.603188 
L 241.932482 125.978311 
L 242.186218 140.086231 
L 242.313085 137.926853 
L 242.439953 137.782931 
L 242.566821 136.559183 
L 242.693689 136.703105 
L 242.947424 140.806116 
L 243.074292 139.150601 
L 243.328027 128.065866 
L 243.454895 127.777748 
L 243.708631 136.487359 
L 244.089234 139.078504 
L 244.216101 135.047591 
L 244.342969 149.443355 
L 244.469837 148.795569 
L 244.596705 147.212152 
L 244.723572 147.356075 
L 244.85044 146.420445 
L 244.977308 146.780112 
L 245.104176 148.219881 
L 245.357911 137.854755 
L 245.611647 149.803297 
L 245.738514 149.011589 
L 245.99225 155.201606 
L 246.245985 149.587277 
L 246.372853 149.803297 
L 246.626589 137.495087 
L 246.753456 137.926853 
L 247.007192 146.348346 
L 247.134059 142.317434 
L 247.260927 145.124598 
L 247.514663 158.512634 
L 247.64153 156.425354 
L 247.768398 157.936946 
L 247.895266 163.335255 
L 248.022134 162.903489 
L 248.656472 137.926853 
L 249.037076 160.024226 
L 249.290811 167.294069 
L 249.544547 154.338074 
L 249.671414 154.553819 
L 249.798282 155.417626 
L 250.178885 142.101688 
L 250.432621 138.934582 
L 250.559488 140.734018 
L 250.686356 144.54891 
L 250.940092 158.22479 
L 251.193827 157.217062 
L 251.320695 159.37644 
L 251.447563 158.584732 
L 251.57443 155.849392 
L 251.701298 156.13751 
L 251.828166 155.129781 
L 252.081901 145.844482 
L 252.208769 150.019317 
L 252.335637 158.944674 
L 252.462505 154.697741 
L 252.589372 155.489724 
L 252.71624 154.697741 
L 252.969975 158.22479 
L 253.223711 152.538637 
L 253.350579 154.409898 
L 253.477446 154.409898 
L 253.731182 146.348346 
L 253.984917 152.754383 
L 254.111785 152.826481 
L 254.238653 154.193877 
L 254.492388 159.304616 
L 254.619256 156.353255 
L 254.872992 162.687469 
L 254.999859 159.520362 
L 255.50733 136.127417 
L 255.887933 143.61328 
L 256.014801 138.790659 
L 256.141669 138.358619 
L 256.395404 149.947219 
L 256.64914 144.692832 
L 256.902875 140.734018 
L 257.029743 143.39726 
L 257.283479 153.330345 
L 257.537214 153.402169 
L 257.79095 156.641374 
L 257.917817 154.625917 
L 258.171553 147.572094 
L 258.298421 148.579549 
L 258.552156 152.610461 
L 258.679024 153.690287 
L 259.059627 159.16042 
L 259.313362 167.222245 
L 259.44023 167.797933 
L 259.820833 156.353255 
L 259.947701 158.44081 
L 260.074569 156.85712 
L 260.328304 145.844482 
L 260.455172 147.931762 
L 260.58204 158.44081 
L 260.708908 157.07314 
L 260.835775 157.649102 
L 260.962643 156.785296 
L 261.089511 152.754383 
L 261.216379 152.754383 
L 261.470114 157.504906 
L 261.72385 149.947219 
L 261.850717 146.708288 
L 261.977585 147.931762 
L 262.23132 155.489724 
L 262.358188 154.841938 
L 262.611924 162.255703 
L 262.865659 158.584732 
L 263.119395 163.191333 
L 263.246262 164.774749 
L 263.37313 164.774749 
L 263.626866 147.787841 
L 263.753733 145.628462 
L 264.007469 136.343437 
L 264.261204 147.643918 
L 264.388072 148.723745 
L 264.768675 165.494633 
L 264.895543 167.654011 
L 265.022411 167.654011 
L 265.149278 167.366167 
L 265.276146 164.126963 
L 265.656749 136.775203 
L 265.783617 135.911397 
L 266.544824 173.844165 
L 266.798559 161.175876 
L 266.925427 159.59246 
L 267.179162 149.803297 
L 267.432898 156.929218 
L 267.559766 156.209334 
L 267.686633 162.327527 
L 267.940369 184.784842 
L 268.067236 185.79257 
L 268.574707 160.815934 
L 268.701575 181.042047 
L 268.828443 176.435447 
L 269.082178 183.201425 
L 269.209046 182.553502 
L 269.335914 184.784842 
L 269.462782 185.000861 
L 269.589649 184.281114 
L 269.843385 191.982723 
L 269.970253 187.16024 
L 270.223988 190.471268 
L 270.350856 186.800298 
L 270.477724 188.527773 
L 270.604591 192.486587 
L 270.858327 189.175559 
L 271.112062 196.013499 
L 271.23893 193.350394 
L 271.492665 182.193697 
L 271.746401 184.353076 
L 272.507607 158.872576 
L 272.634475 157.07314 
L 273.015078 166.934127 
L 273.141946 169.453448 
L 273.268814 165.710653 
L 273.522549 146.852211 
L 273.649417 147.931762 
L 273.903153 155.92149 
L 274.156888 146.060503 
L 274.410623 150.954947 
L 274.664359 143.39726 
L 274.791227 144.188968 
L 275.044962 151.818753 
L 275.298698 153.114326 
L 275.679301 143.757202 
L 276.059904 148.075958 
L 276.186772 148.147783 
L 276.440507 141.021862 
L 276.694243 148.507724 
L 276.821111 152.898305 
L 276.947978 148.219881 
L 277.201714 157.720926 
L 277.328581 155.417626 
L 277.455449 155.273704 
L 277.582317 158.512634 
L 277.709185 154.98586 
L 277.96292 145.124598 
L 278.343523 167.006225 
L 278.597259 165.278613 
L 278.977862 167.941855 
L 279.231598 172.476632 
L 279.358465 171.828708 
L 279.485333 172.620554 
L 279.865936 190.759112 
L 279.992804 189.391579 
L 280.246539 183.56123 
L 280.500275 170.965039 
L 280.75401 180.610144 
L 280.880878 179.170513 
L 281.007746 179.890397 
L 281.261481 185.86453 
L 281.515217 187.951948 
L 281.642085 189.24752 
L 281.89582 187.520045 
L 282.149556 202.059731 
L 282.276423 199.036683 
L 282.403291 189.967404 
L 282.530159 189.319618 
L 282.783894 199.036683 
L 282.910762 196.733383 
L 283.164497 200.404216 
L 283.291365 199.468587 
L 283.545101 202.203653 
L 283.798836 198.316936 
L 283.925704 196.517363 
L 284.052572 197.813072 
L 284.306307 204.938856 
L 284.433175 203.211381 
L 284.68691 217.03132 
L 284.813778 216.671378 
L 284.940646 70.986674 
L 285.194381 70.410986 
L 285.448117 66.956036 
L 285.574985 67.531724 
L 285.701852 64.508814 
L 285.955588 53.568 
L 286.463059 75.881393 
L 286.589926 75.953217 
L 286.843662 79.912032 
L 287.224265 66.523996 
L 287.351133 68.107686 
L 287.731736 58.174601 
L 287.858604 59.254153 
L 288.112339 68.683374 
L 288.239207 67.099958 
L 288.366075 68.323706 
L 288.492943 75.017587 
L 288.61981 74.009859 
L 288.873546 65.804386 
L 289.000414 66.30825 
L 289.254149 60.621823 
L 289.507884 76.960945 
L 289.634752 77.968673 
L 289.76162 80.704014 
L 289.888488 86.174146 
L 290.015355 84.734652 
L 290.142223 79.408168 
L 290.269091 78.976402 
L 290.395959 80.91976 
L 290.522826 80.704014 
L 290.90343 69.907122 
L 291.030297 69.907122 
L 291.157165 68.683374 
L 291.284033 71.994403 
L 291.537768 85.742381 
L 291.664636 85.52636 
L 292.045239 97.11496 
L 292.172107 94.739835 
L 292.425842 96.683194 
L 292.679578 82.50345 
L 293.060181 102.225424 
L 293.187049 100.857754 
L 293.313917 101.865483 
L 293.567652 111.438625 
L 293.821388 109.711287 
L 294.075123 113.31016 
L 294.201991 111.438625 
L 294.328859 107.76793 
L 294.455726 108.703559 
L 294.582594 112.518452 
L 294.709462 111.22288 
L 294.83633 112.230608 
L 295.090065 124.107052 
L 295.216933 118.852665 
L 295.3438 120.004315 
L 295.470668 124.754837 
L 295.597536 124.250973 
L 295.851271 118.636645 
L 296.105007 107.911851 
L 296.48561 118.708469 
L 296.612478 117.916761 
L 296.739346 118.348801 
L 296.993081 122.163419 
L 297.119949 121.803751 
L 297.373684 119.572275 
L 297.500552 119.428353 
L 297.62742 118.348801 
L 297.754288 118.492723 
L 298.008023 122.955401 
L 298.134891 120.652101 
L 298.261758 122.379439 
L 298.388626 128.425808 
L 298.515494 126.914216 
L 298.769229 118.996587 
L 299.022965 119.572275 
L 299.149833 121.155965 
L 299.2767 120.220061 
L 299.403568 122.451537 
L 299.530436 126.770294 
L 299.657304 125.762566 
L 299.784171 126.05041 
L 300.037907 133.536273 
L 300.291642 128.857574 
L 300.545378 132.384623 
L 300.672246 131.952583 
L 300.925981 124.178875 
L 301.052849 124.178875 
L 301.179717 113.741926 
L 301.306584 113.52618 
L 301.433452 119.572275 
L 301.56032 119.788295 
L 301.814055 109.999132 
L 301.940923 112.446354 
L 302.067791 111.510724 
L 302.194658 108.487539 
L 302.321526 108.271793 
L 302.702129 120.867847 
L 302.828997 121.443809 
L 302.955865 120.939945 
L 303.082733 121.515633 
L 303.2096 121.371711 
L 303.463336 111.94249 
L 303.590204 113.741926 
L 303.843939 111.150782 
L 304.097675 123.171147 
L 304.35141 121.947673 
L 304.478278 122.019497 
L 304.732013 129.433262 
L 304.985749 126.194332 
L 305.366352 140.950038 
L 305.49322 137.350891 
L 305.746955 128.641554 
L 305.873823 130.081322 
L 306.254426 120.148237 
L 306.381294 120.292159 
L 306.508162 118.852665 
L 307.1425 136.919125 
L 307.396236 127.058138 
L 307.523103 126.914216 
L 307.776839 117.341073 
L 307.903707 118.060682 
L 308.157442 125.186604 
L 308.28431 125.618644 
L 308.538045 138.358619 
L 308.664913 135.695651 
L 309.045516 123.099324 
L 309.172384 118.852665 
L 309.299252 165.566731 
L 309.42612 167.006225 
L 309.679855 184.209016 
L 309.933591 173.124418 
L 310.060458 172.764476 
L 310.314194 168.085777 
L 310.567929 161.67974 
L 310.694797 163.263431 
L 310.821665 161.391897 
L 311.0754 153.042227 
L 311.329136 157.720926 
L 311.456003 155.777568 
L 311.582871 156.353255 
L 311.836607 166.430263 
L 311.963474 163.263431 
L 312.090342 165.278613 
L 312.21721 172.980359 
L 312.344078 172.404534 
L 312.724681 157.577004 
L 312.978416 148.075958 
L 313.105284 149.947219 
L 313.35902 158.00877 
L 313.485887 158.22479 
L 313.612755 157.649102 
L 313.993358 151.027045 
L 314.373961 105.752473 
L 314.627697 119.644373 
L 314.754565 115.541636 
L 315.0083 123.818933 
L 315.262036 117.700741 
L 315.642639 130.584913 
L 315.896374 134.903669 
L 316.276978 127.849846 
L 316.403845 129.937126 
L 316.657581 140.230154 
L 316.784448 140.014133 
L 317.038184 127.993768 
L 317.291919 130.513088 
L 317.418787 147.643918 
L 317.545655 147.427899 
L 317.672523 148.723745 
L 317.79939 145.772384 
L 317.926258 147.931762 
L 318.053126 155.993587 
L 318.179994 155.633646 
L 318.433729 139.870212 
L 318.560597 136.991223 
L 318.687465 139.726289 
L 318.9412 149.371531 
L 319.068068 149.947219 
L 319.448671 155.777568 
L 319.575539 153.474267 
L 319.702406 147.283977 
L 319.829274 148.579549 
L 319.956142 152.466539 
L 320.08301 149.371531 
L 320.209877 149.659375 
L 320.463613 157.720926 
L 320.590481 155.489724 
L 320.844216 157.145238 
L 321.351687 140.66192 
L 321.478555 140.230154 
L 321.986026 155.993587 
L 322.112894 156.497452 
L 322.493497 148.363803 
L 322.620364 149.083413 
L 322.747232 146.204424 
L 323.000968 133.968039 
L 323.127835 133.968039 
L 323.381571 149.587277 
L 323.508439 148.00386 
L 323.635306 143.972948 
L 323.762174 145.124598 
L 323.889042 147.859939 
L 324.01591 147.068231 
L 324.269645 149.299433 
L 324.523381 136.991223 
L 324.650248 137.854755 
L 325.030852 149.659375 
L 325.284587 145.772384 
L 325.411455 146.204424 
L 325.66519 148.00386 
L 325.792058 146.420445 
L 326.045793 146.996133 
L 326.172661 147.283977 
L 326.299529 145.844482 
L 326.426397 142.893396 
L 326.933868 150.451083 
L 327.187603 154.913762 
L 327.314471 155.633646 
L 327.441339 154.481996 
L 327.695074 144.980676 
L 327.94881 137.206969 
L 328.075677 143.829026 
L 328.202545 143.109416 
L 328.329413 136.775203 
L 328.456281 142.893396 
L 328.710016 156.353255 
L 328.836884 154.841938 
L 329.090619 161.463721 
L 329.217487 160.31207 
L 329.344355 157.001042 
L 329.851826 135.911397 
L 330.486164 165.134691 
L 330.866768 154.265975 
L 330.993635 157.28916 
L 331.120503 152.970403 
L 331.374239 135.911397 
L 331.627974 138.214697 
L 331.754842 138.646738 
L 332.262313 156.569276 
L 332.38918 156.13751 
L 332.516048 155.057683 
L 332.769784 156.785296 
L 333.150387 147.572094 
L 333.277255 147.931762 
L 333.404122 147.499997 
L 333.53099 152.898305 
L 333.657858 148.651647 
L 334.165329 159.880304 
L 334.419064 146.492269 
L 334.545932 147.499997 
L 334.6728 148.507724 
L 334.926535 144.117144 
L 335.180271 148.867667 
L 335.434006 147.716017 
L 335.687742 155.92149 
L 335.814609 148.723745 
L 335.941477 150.307161 
L 336.068345 158.152966 
L 336.195213 154.338074 
L 336.575816 136.271339 
L 336.702684 134.255883 
L 336.956419 140.517997 
L 337.210155 137.495087 
L 337.337022 137.998951 
L 337.590758 147.427899 
L 337.844493 137.998951 
L 338.098229 139.006406 
L 338.225096 141.741746 
L 338.478832 150.019317 
L 338.732567 148.00386 
L 338.986303 151.386713 
L 339.366906 146.420445 
L 339.620642 146.564367 
L 339.747509 147.140054 
L 339.874377 149.515453 
L 340.128113 157.864848 
L 340.25498 158.584732 
L 340.635584 166.862303 
L 340.762451 164.486905 
L 341.016187 154.913762 
L 341.143054 157.864848 
L 341.269922 154.049955 
L 341.523658 142.749474 
L 341.650525 144.476812 
L 341.777393 156.569276 
L 341.904261 156.929218 
L 342.031129 158.00877 
L 342.157996 155.561547 
L 342.411732 145.70056 
L 342.665467 152.106597 
L 343.172938 142.677376 
L 343.680409 159.952402 
L 343.807277 165.638555 
L 344.061012 161.391897 
L 344.18788 163.551275 
L 344.441616 171.468904 
L 344.568483 168.877759 
L 344.949087 141.741746 
L 345.075954 135.407533 
L 345.202822 137.063047 
L 345.456558 146.780112 
L 345.583425 148.507724 
L 345.964029 160.96013 
L 346.217764 167.510089 
L 346.344632 166.718381 
L 346.4715 160.600189 
L 346.852103 125.978311 
L 346.97897 125.906488 
L 347.486441 154.481996 
L 347.613309 158.512634 
L 347.740177 158.584732 
L 347.993912 154.625917 
L 348.501383 136.415261 
L 348.881987 150.163239 
L 349.135722 170.892941 
L 349.26259 170.74902 
L 349.516325 164.270885 
L 349.770061 150.091141 
L 349.896928 174.707971 
L 350.023796 173.412262 
L 350.277532 182.553502 
L 350.404399 181.689833 
L 350.785003 182.553502 
L 351.038738 189.535501 
L 351.292474 186.94422 
L 351.419341 188.31189 
L 351.673077 187.232201 
L 351.926812 191.694879 
L 352.05368 191.262976 
L 352.180548 190.255248 
L 352.434283 196.157558 
L 352.688019 182.337619 
L 352.941754 185.288706 
L 353.576093 162.687469 
L 353.702961 160.384168 
L 353.829828 160.815934 
L 354.083564 164.990769 
L 354.210432 165.566731 
L 354.464167 167.294069 
L 354.84477 146.420445 
L 354.971638 153.834209 
L 355.098506 154.193877 
L 355.352241 142.317434 
L 355.605977 148.651647 
L 355.859712 135.767475 
L 355.98658 138.430717 
L 356.240315 149.227609 
L 356.494051 152.538637 
L 356.747786 144.692832 
L 356.874654 144.33289 
L 357.255257 148.075958 
L 357.382125 147.859939 
L 357.635861 144.76493 
L 357.762728 148.075958 
L 357.889596 147.212152 
L 358.016464 114.389986 
L 358.143332 115.181695 
L 358.270199 111.438625 
L 358.523935 102.873211 
L 358.650803 106.760201 
L 358.77767 106.400259 
L 359.158273 91.788475 
L 359.412009 107.335889 
L 360.046348 150.019317 
L 360.173215 155.129781 
L 360.300083 155.417626 
L 360.426951 155.993587 
L 360.553819 157.28916 
L 360.680686 153.042227 
L 360.934422 139.510269 
L 361.06129 138.790659 
L 361.441893 127.993768 
L 361.822496 113.670102 
L 362.076231 109.783112 
L 362.203099 110.862938 
L 362.456835 114.46181 
L 362.583702 113.382258 
L 362.71057 113.886122 
L 362.837438 111.00686 
L 362.964306 104.888667 
L 363.091173 105.248609 
L 363.344909 111.654646 
L 363.598644 101.433716 
L 363.725512 106.472083 
L 363.979248 136.919125 
L 364.106115 140.950038 
L 364.232983 136.919125 
L 364.613586 110.79084 
L 364.740454 110.215152 
L 364.867322 110.719016 
L 364.994189 107.983675 
L 365.247925 99.41826 
L 365.50166 103.880939 
L 365.628528 103.593095 
L 365.755396 103.593095 
L 365.882264 103.449173 
L 366.009131 102.585367 
L 366.135999 190.39917 
L 366.389735 191.622918 
L 366.516602 191.982723 
L 366.770338 186.656376 
L 366.897206 187.376123 
L 367.024073 188.743793 
L 367.150941 187.304162 
L 367.277809 187.664104 
L 368.039015 204.866895 
L 368.419618 196.30148 
L 368.546486 200.404216 
L 368.800222 210.913127 
L 368.927089 205.802662 
L 369.053957 206.666331 
L 369.307693 218.111009 
L 369.43456 216.743338 
L 369.815164 231.139103 
L 370.322635 207.458176 
L 370.449502 208.609827 
L 370.703238 223.077552 
L 370.956973 229.267706 
L 371.210709 235.169878 
L 371.464444 230.419355 
L 371.591312 232.07487 
L 371.71818 230.635239 
L 371.971915 217.319164 
L 372.225651 215.735748 
L 372.352518 216.671378 
L 372.733122 232.650695 
L 372.859989 233.514364 
L 373.113725 240.640285 
L 373.36746 239.632557 
L 373.621196 232.578734 
L 373.874931 228.044094 
L 374.001799 228.331938 
L 374.128667 231.427084 
L 374.382402 280.876354 
L 374.50927 285.194973 
L 374.889873 285.123012 
L 375.016741 284.835168 
L 375.143609 285.194973 
L 375.270476 284.691109 
L 375.524212 281.956042 
L 375.777947 286.13074 
L 375.904815 284.259343 
L 376.031683 284.619147 
L 376.285418 295.488 
L 376.539154 291.025322 
L 376.666022 294.840077 
L 376.792889 293.760525 
L 377.30036 273.822394 
L 377.554096 282.315847 
L 377.807831 271.806937 
L 378.188434 276.629558 
L 378.315302 275.62183 
L 378.569038 270.295482 
L 378.822773 265.904764 
L 379.076509 271.375171 
L 379.330244 269.215792 
L 379.58398 266.624511 
L 379.710847 267.416356 
L 379.837715 266.192608 
L 380.09145 257.483271 
L 380.345186 255.539776 
L 380.472054 255.827757 
L 380.598921 257.19529 
L 380.852657 256.619465 
L 381.23326 268.927812 
L 381.486996 257.267388 
L 381.613863 257.843213 
L 381.740731 261.298163 
L 381.867599 259.354668 
L 382.121334 246.686517 
L 382.248202 247.910128 
L 382.37507 89.485175 
L 382.501938 90.421079 
L 382.628805 95.603367 
L 382.755673 94.235971 
L 383.009409 81.279702 
L 383.136276 84.230788 
L 383.263144 82.719196 
L 383.516879 76.025315 
L 383.770615 77.248789 
L 384.02435 87.469993 
L 384.151218 87.325797 
L 384.404954 95.459446 
L 384.531821 90.924943 
L 384.658689 90.421079 
L 384.785557 95.02768 
L 384.912425 95.459446 
L 385.039292 94.667737 
L 385.16616 92.580457 
L 385.546763 79.264245 
L 385.673631 76.745199 
L 385.927367 86.102323 
L 386.054234 86.462265 
L 386.688573 105.320433 
L 387.196044 92.940125 
L 387.449779 84.302886 
L 387.95725 105.608551 
L 388.084118 105.680375 
L 388.337854 114.173966 
L 388.718457 108.415715 
L 388.972192 100.642009 
L 389.09906 101.937581 
L 389.479663 112.37453 
L 389.733399 132.168602 
L 390.24087 111.22288 
L 390.367737 101.217696 
L 390.494605 175.139737 
L 390.621473 173.484223 
L 390.748341 175.787523 
L 390.875208 175.499679 
L 391.002076 171.756748 
L 391.128944 171.540865 
L 391.382679 167.797933 
L 391.509547 169.525546 
L 391.636415 169.525546 
L 392.143886 153.042227 
L 392.270753 155.849392 
L 392.397621 154.913762 
L 392.651357 144.54891 
L 392.905092 149.443355 
L 393.158828 146.492269 
L 393.285695 145.628462 
L 393.412563 146.060503 
L 393.539431 143.39726 
L 393.920034 122.739381 
L 394.17377 118.132781 
L 394.427505 121.155965 
L 394.554373 121.227789 
L 394.808108 132.096504 
L 394.934976 136.415261 
L 395.061844 132.384623 
L 395.442447 113.382258 
L 395.696182 121.803751 
L 395.82305 120.076139 
L 395.949918 115.037772 
L 396.203653 123.818933 
L 396.457389 112.302432 
L 396.711124 123.099324 
L 396.837992 121.803751 
L 397.091728 129.361438 
L 397.345463 118.852665 
L 397.472331 119.572275 
L 397.852934 133.752019 
L 397.979802 131.520817 
L 398.10667 125.042682 
L 398.233537 125.83439 
L 398.360405 131.376894 
L 398.487273 130.584913 
L 398.487273 130.584913 
" clip-path="url(#pd8d914acb9)" style="fill: none; stroke: #1f77b4; stroke-width: 1.5; stroke-linecap: square"/>
   </g>
   <g id="patch_3">
    <path d="M 57.6 307.584 
L 57.6 41.472 
" style="fill: none; stroke: #000000; stroke-width: 0.8; stroke-linejoin: miter; stroke-linecap: square"/>
   </g>
   <g id="patch_4">
    <path d="M 414.72 307.584 
L 414.72 41.472 
" style="fill: none; stroke: #000000; stroke-width: 0.8; stroke-linejoin: miter; stroke-linecap: square"/>
   </g>
   <g id="patch_5">
    <path d="M 57.6 307.584 
L 414.72 307.584 
" style="fill: none; stroke: #000000; stroke-width: 0.8; stroke-linejoin: miter; stroke-linecap: square"/>
   </g>
   <g id="patch_6">
    <path d="M 57.6 41.472 
L 414.72 41.472 
" style="fill: none; stroke: #000000; stroke-width: 0.8; stroke-linejoin: miter; stroke-linecap: square"/>
   </g>
   <g id="legend_1">
    <g id="patch_7">
     <path d="M 354.074688 64.150125 
L 407.72 64.150125 
Q 409.72 64.150125 409.72 62.150125 
L 409.72 48.472 
Q 409.72 46.472 407.72 46.472 
L 354.074688 46.472 
Q 352.074688 46.472 352.074688 48.472 
L 352.074688 62.150125 
Q 352.074688 64.150125 354.074688 64.150125 
z
" style="fill: #ffffff; opacity: 0.8; stroke: #cccccc; stroke-linejoin: miter"/>
    </g>
    <g id="line2d_13">
     <path d="M 356.074688 54.570438 
L 366.074688 54.570438 
L 376.074688 54.570438 
" style="fill: none; stroke: #1f77b4; stroke-width: 1.5; stroke-linecap: square"/>
    </g>
    <g id="text_12">
     <!-- set3 -->
     <g transform="translate(384.074688 58.070438)scale(0.1 -0.1)">
      <defs>
       <path id="DejaVuSans-73" d="M 2834 3397 
L 2834 2853 
Q 2591 2978 2328 3040 
Q 2066 3103 1784 3103 
Q 1356 3103 1142 2972 
Q 928 2841 928 2578 
Q 928 2378 1081 2264 
Q 1234 2150 1697 2047 
L 1894 2003 
Q 2506 1872 2764 1633 
Q 3022 1394 3022 966 
Q 3022 478 2636 193 
Q 2250 -91 1575 -91 
Q 1294 -91 989 -36 
Q 684 19 347 128 
L 347 722 
Q 666 556 975 473 
Q 1284 391 1588 391 
Q 1994 391 2212 530 
Q 2431 669 2431 922 
Q 2431 1156 2273 1281 
Q 2116 1406 1581 1522 
L 1381 1569 
Q 847 1681 609 1914 
Q 372 2147 372 2553 
Q 372 3047 722 3315 
Q 1072 3584 1716 3584 
Q 2034 3584 2315 3537 
Q 2597 3491 2834 3397 
z
" transform="scale(0.015625)"/>
       <path id="DejaVuSans-65" d="M 3597 1894 
L 3597 1613 
L 953 1613 
Q 991 1019 1311 708 
Q 1631 397 2203 397 
Q 2534 397 2845 478 
Q 3156 559 3463 722 
L 3463 178 
Q 3153 47 2828 -22 
Q 2503 -91 2169 -91 
Q 1331 -91 842 396 
Q 353 884 353 1716 
Q 353 2575 817 3079 
Q 1281 3584 2069 3584 
Q 2775 3584 3186 3129 
Q 3597 2675 3597 1894 
z
M 3022 2063 
Q 3016 2534 2758 2815 
Q 2500 3097 2075 3097 
Q 1594 3097 1305 2825 
Q 1016 2553 972 2059 
L 3022 2063 
z
" transform="scale(0.015625)"/>
       <path id="DejaVuSans-74" d="M 1172 4494 
L 1172 3500 
L 2356 3500 
L 2356 3053 
L 1172 3053 
L 1172 1153 
Q 1172 725 1289 603 
Q 1406 481 1766 481 
L 2356 481 
L 2356 0 
L 1766 0 
Q 1100 0 847 248 
Q 594 497 594 1153 
L 594 3053 
L 172 3053 
L 172 3500 
L 594 3500 
L 594 4494 
L 1172 4494 
z
" transform="scale(0.015625)"/>
      </defs>
      <use xlink:href="#DejaVuSans-73"/>
      <use xlink:href="#DejaVuSans-65" x="52.099609"/>
      <use xlink:href="#DejaVuSans-74" x="113.623047"/>
      <use xlink:href="#DejaVuSans-33" x="152.832031"/>
     </g>
    </g>
   </g>
  </g>
 </g>
 <defs>
  <clipPath id="pd8d914acb9">
   <rect x="57.6" y="41.472" width="357.12" height="266.112"/>
  </clipPath>
 </defs>
</svg>
