<?xml version="1.0" encoding="utf-8" standalone="no"?>
<!DOCTYPE svg PUBLIC "-//W3C//DTD SVG 1.1//EN"
  "http://www.w3.org/Graphics/SVG/1.1/DTD/svg11.dtd">
<svg xmlns:xlink="http://www.w3.org/1999/xlink" width="460.8pt" height="345.6pt" viewBox="0 0 460.8 345.6" xmlns="http://www.w3.org/2000/svg" version="1.1">
 <metadata>
  <rdf:RDF xmlns:dc="http://purl.org/dc/elements/1.1/" xmlns:cc="http://creativecommons.org/ns#" xmlns:rdf="http://www.w3.org/1999/02/22-rdf-syntax-ns#">
   <cc:Work>
    <dc:type rdf:resource="http://purl.org/dc/dcmitype/StillImage"/>
    <dc:date>2022-08-11T15:19:03.138033</dc:date>
    <dc:format>image/svg+xml</dc:format>
    <dc:creator>
     <cc:Agent>
      <dc:title>Matplotlib v3.5.2, https://matplotlib.org/</dc:title>
     </cc:Agent>
    </dc:creator>
   </cc:Work>
  </rdf:RDF>
 </metadata>
 <defs>
  <style type="text/css">*{stroke-linejoin: round; stroke-linecap: butt}</style>
 </defs>
 <g id="figure_1">
  <g id="patch_1">
   <path d="M 0 345.6 
L 460.8 345.6 
L 460.8 0 
L 0 0 
z
" style="fill: #ffffff"/>
  </g>
  <g id="axes_1">
   <g id="patch_2">
    <path d="M 57.6 307.584 
L 414.72 307.584 
L 414.72 41.472 
L 57.6 41.472 
z
" style="fill: #ffffff"/>
   </g>
   <g id="matplotlib.axis_1">
    <g id="xtick_1">
     <g id="line2d_1">
      <defs>
       <path id="m3a5a58306d" d="M 0 0 
L 0 3.5 
" style="stroke: #000000; stroke-width: 0.8"/>
      </defs>
      <g>
       <use xlink:href="#m3a5a58306d" x="73.832727" y="307.584" style="stroke: #000000; stroke-width: 0.8"/>
      </g>
     </g>
     <g id="text_1">
      <!-- 0 -->
      <g transform="translate(70.651477 322.182437)scale(0.1 -0.1)">
       <defs>
        <path id="DejaVuSans-30" d="M 2034 4250 
Q 1547 4250 1301 3770 
Q 1056 3291 1056 2328 
Q 1056 1369 1301 889 
Q 1547 409 2034 409 
Q 2525 409 2770 889 
Q 3016 1369 3016 2328 
Q 3016 3291 2770 3770 
Q 2525 4250 2034 4250 
z
M 2034 4750 
Q 2819 4750 3233 4129 
Q 3647 3509 3647 2328 
Q 3647 1150 3233 529 
Q 2819 -91 2034 -91 
Q 1250 -91 836 529 
Q 422 1150 422 2328 
Q 422 3509 836 4129 
Q 1250 4750 2034 4750 
z
" transform="scale(0.015625)"/>
       </defs>
       <use xlink:href="#DejaVuSans-30"/>
      </g>
     </g>
    </g>
    <g id="xtick_2">
     <g id="line2d_2">
      <g>
       <use xlink:href="#m3a5a58306d" x="137.254205" y="307.584" style="stroke: #000000; stroke-width: 0.8"/>
      </g>
     </g>
     <g id="text_2">
      <!-- 1000 -->
      <g transform="translate(124.529205 322.182437)scale(0.1 -0.1)">
       <defs>
        <path id="DejaVuSans-31" d="M 794 531 
L 1825 531 
L 1825 4091 
L 703 3866 
L 703 4441 
L 1819 4666 
L 2450 4666 
L 2450 531 
L 3481 531 
L 3481 0 
L 794 0 
L 794 531 
z
" transform="scale(0.015625)"/>
       </defs>
       <use xlink:href="#DejaVuSans-31"/>
       <use xlink:href="#DejaVuSans-30" x="63.623047"/>
       <use xlink:href="#DejaVuSans-30" x="127.246094"/>
       <use xlink:href="#DejaVuSans-30" x="190.869141"/>
      </g>
     </g>
    </g>
    <g id="xtick_3">
     <g id="line2d_3">
      <g>
       <use xlink:href="#m3a5a58306d" x="200.675683" y="307.584" style="stroke: #000000; stroke-width: 0.8"/>
      </g>
     </g>
     <g id="text_3">
      <!-- 2000 -->
      <g transform="translate(187.950683 322.182437)scale(0.1 -0.1)">
       <defs>
        <path id="DejaVuSans-32" d="M 1228 531 
L 3431 531 
L 3431 0 
L 469 0 
L 469 531 
Q 828 903 1448 1529 
Q 2069 2156 2228 2338 
Q 2531 2678 2651 2914 
Q 2772 3150 2772 3378 
Q 2772 3750 2511 3984 
Q 2250 4219 1831 4219 
Q 1534 4219 1204 4116 
Q 875 4013 500 3803 
L 500 4441 
Q 881 4594 1212 4672 
Q 1544 4750 1819 4750 
Q 2544 4750 2975 4387 
Q 3406 4025 3406 3419 
Q 3406 3131 3298 2873 
Q 3191 2616 2906 2266 
Q 2828 2175 2409 1742 
Q 1991 1309 1228 531 
z
" transform="scale(0.015625)"/>
       </defs>
       <use xlink:href="#DejaVuSans-32"/>
       <use xlink:href="#DejaVuSans-30" x="63.623047"/>
       <use xlink:href="#DejaVuSans-30" x="127.246094"/>
       <use xlink:href="#DejaVuSans-30" x="190.869141"/>
      </g>
     </g>
    </g>
    <g id="xtick_4">
     <g id="line2d_4">
      <g>
       <use xlink:href="#m3a5a58306d" x="264.097161" y="307.584" style="stroke: #000000; stroke-width: 0.8"/>
      </g>
     </g>
     <g id="text_4">
      <!-- 3000 -->
      <g transform="translate(251.372161 322.182437)scale(0.1 -0.1)">
       <defs>
        <path id="DejaVuSans-33" d="M 2597 2516 
Q 3050 2419 3304 2112 
Q 3559 1806 3559 1356 
Q 3559 666 3084 287 
Q 2609 -91 1734 -91 
Q 1441 -91 1130 -33 
Q 819 25 488 141 
L 488 750 
Q 750 597 1062 519 
Q 1375 441 1716 441 
Q 2309 441 2620 675 
Q 2931 909 2931 1356 
Q 2931 1769 2642 2001 
Q 2353 2234 1838 2234 
L 1294 2234 
L 1294 2753 
L 1863 2753 
Q 2328 2753 2575 2939 
Q 2822 3125 2822 3475 
Q 2822 3834 2567 4026 
Q 2313 4219 1838 4219 
Q 1578 4219 1281 4162 
Q 984 4106 628 3988 
L 628 4550 
Q 988 4650 1302 4700 
Q 1616 4750 1894 4750 
Q 2613 4750 3031 4423 
Q 3450 4097 3450 3541 
Q 3450 3153 3228 2886 
Q 3006 2619 2597 2516 
z
" transform="scale(0.015625)"/>
       </defs>
       <use xlink:href="#DejaVuSans-33"/>
       <use xlink:href="#DejaVuSans-30" x="63.623047"/>
       <use xlink:href="#DejaVuSans-30" x="127.246094"/>
       <use xlink:href="#DejaVuSans-30" x="190.869141"/>
      </g>
     </g>
    </g>
    <g id="xtick_5">
     <g id="line2d_5">
      <g>
       <use xlink:href="#m3a5a58306d" x="327.518639" y="307.584" style="stroke: #000000; stroke-width: 0.8"/>
      </g>
     </g>
     <g id="text_5">
      <!-- 4000 -->
      <g transform="translate(314.793639 322.182437)scale(0.1 -0.1)">
       <defs>
        <path id="DejaVuSans-34" d="M 2419 4116 
L 825 1625 
L 2419 1625 
L 2419 4116 
z
M 2253 4666 
L 3047 4666 
L 3047 1625 
L 3713 1625 
L 3713 1100 
L 3047 1100 
L 3047 0 
L 2419 0 
L 2419 1100 
L 313 1100 
L 313 1709 
L 2253 4666 
z
" transform="scale(0.015625)"/>
       </defs>
       <use xlink:href="#DejaVuSans-34"/>
       <use xlink:href="#DejaVuSans-30" x="63.623047"/>
       <use xlink:href="#DejaVuSans-30" x="127.246094"/>
       <use xlink:href="#DejaVuSans-30" x="190.869141"/>
      </g>
     </g>
    </g>
    <g id="xtick_6">
     <g id="line2d_6">
      <g>
       <use xlink:href="#m3a5a58306d" x="390.940117" y="307.584" style="stroke: #000000; stroke-width: 0.8"/>
      </g>
     </g>
     <g id="text_6">
      <!-- 5000 -->
      <g transform="translate(378.215117 322.182437)scale(0.1 -0.1)">
       <defs>
        <path id="DejaVuSans-35" d="M 691 4666 
L 3169 4666 
L 3169 4134 
L 1269 4134 
L 1269 2991 
Q 1406 3038 1543 3061 
Q 1681 3084 1819 3084 
Q 2600 3084 3056 2656 
Q 3513 2228 3513 1497 
Q 3513 744 3044 326 
Q 2575 -91 1722 -91 
Q 1428 -91 1123 -41 
Q 819 9 494 109 
L 494 744 
Q 775 591 1075 516 
Q 1375 441 1709 441 
Q 2250 441 2565 725 
Q 2881 1009 2881 1497 
Q 2881 1984 2565 2268 
Q 2250 2553 1709 2553 
Q 1456 2553 1204 2497 
Q 953 2441 691 2322 
L 691 4666 
z
" transform="scale(0.015625)"/>
       </defs>
       <use xlink:href="#DejaVuSans-35"/>
       <use xlink:href="#DejaVuSans-30" x="63.623047"/>
       <use xlink:href="#DejaVuSans-30" x="127.246094"/>
       <use xlink:href="#DejaVuSans-30" x="190.869141"/>
      </g>
     </g>
    </g>
   </g>
   <g id="matplotlib.axis_2">
    <g id="ytick_1">
     <g id="line2d_7">
      <defs>
       <path id="m1a4ef69457" d="M 0 0 
L -3.5 0 
" style="stroke: #000000; stroke-width: 0.8"/>
      </defs>
      <g>
       <use xlink:href="#m1a4ef69457" x="57.6" y="279.640816" style="stroke: #000000; stroke-width: 0.8"/>
      </g>
     </g>
     <g id="text_7">
      <!-- 4000 -->
      <g transform="translate(25.15 283.440035)scale(0.1 -0.1)">
       <use xlink:href="#DejaVuSans-34"/>
       <use xlink:href="#DejaVuSans-30" x="63.623047"/>
       <use xlink:href="#DejaVuSans-30" x="127.246094"/>
       <use xlink:href="#DejaVuSans-30" x="190.869141"/>
      </g>
     </g>
    </g>
    <g id="ytick_2">
     <g id="line2d_8">
      <g>
       <use xlink:href="#m1a4ef69457" x="57.6" y="236.421032" style="stroke: #000000; stroke-width: 0.8"/>
      </g>
     </g>
     <g id="text_8">
      <!-- 4050 -->
      <g transform="translate(25.15 240.22025)scale(0.1 -0.1)">
       <use xlink:href="#DejaVuSans-34"/>
       <use xlink:href="#DejaVuSans-30" x="63.623047"/>
       <use xlink:href="#DejaVuSans-35" x="127.246094"/>
       <use xlink:href="#DejaVuSans-30" x="190.869141"/>
      </g>
     </g>
    </g>
    <g id="ytick_3">
     <g id="line2d_9">
      <g>
       <use xlink:href="#m1a4ef69457" x="57.6" y="193.201247" style="stroke: #000000; stroke-width: 0.8"/>
      </g>
     </g>
     <g id="text_9">
      <!-- 4100 -->
      <g transform="translate(25.15 197.000466)scale(0.1 -0.1)">
       <use xlink:href="#DejaVuSans-34"/>
       <use xlink:href="#DejaVuSans-31" x="63.623047"/>
       <use xlink:href="#DejaVuSans-30" x="127.246094"/>
       <use xlink:href="#DejaVuSans-30" x="190.869141"/>
      </g>
     </g>
    </g>
    <g id="ytick_4">
     <g id="line2d_10">
      <g>
       <use xlink:href="#m1a4ef69457" x="57.6" y="149.981463" style="stroke: #000000; stroke-width: 0.8"/>
      </g>
     </g>
     <g id="text_10">
      <!-- 4150 -->
      <g transform="translate(25.15 153.780681)scale(0.1 -0.1)">
       <use xlink:href="#DejaVuSans-34"/>
       <use xlink:href="#DejaVuSans-31" x="63.623047"/>
       <use xlink:href="#DejaVuSans-35" x="127.246094"/>
       <use xlink:href="#DejaVuSans-30" x="190.869141"/>
      </g>
     </g>
    </g>
    <g id="ytick_5">
     <g id="line2d_11">
      <g>
       <use xlink:href="#m1a4ef69457" x="57.6" y="106.761678" style="stroke: #000000; stroke-width: 0.8"/>
      </g>
     </g>
     <g id="text_11">
      <!-- 4200 -->
      <g transform="translate(25.15 110.560897)scale(0.1 -0.1)">
       <use xlink:href="#DejaVuSans-34"/>
       <use xlink:href="#DejaVuSans-32" x="63.623047"/>
       <use xlink:href="#DejaVuSans-30" x="127.246094"/>
       <use xlink:href="#DejaVuSans-30" x="190.869141"/>
      </g>
     </g>
    </g>
    <g id="ytick_6">
     <g id="line2d_12">
      <g>
       <use xlink:href="#m1a4ef69457" x="57.6" y="63.541894" style="stroke: #000000; stroke-width: 0.8"/>
      </g>
     </g>
     <g id="text_12">
      <!-- 4250 -->
      <g transform="translate(25.15 67.341112)scale(0.1 -0.1)">
       <use xlink:href="#DejaVuSans-34"/>
       <use xlink:href="#DejaVuSans-32" x="63.623047"/>
       <use xlink:href="#DejaVuSans-35" x="127.246094"/>
       <use xlink:href="#DejaVuSans-30" x="190.869141"/>
      </g>
     </g>
    </g>
   </g>
   <g id="line2d_13">
    <path d="M 73.832727 179.016379 
L 73.896149 177.908027 
L 74.022992 196.747464 
L 74.149835 178.794793 
L 74.340099 193.977008 
L 74.466942 199.739717 
L 74.530364 195.306945 
L 74.657206 205.834804 
L 74.720628 202.177582 
L 74.847471 200.515267 
L 74.974314 193.644418 
L 75.037735 203.839898 
L 75.101157 202.842551 
L 75.164578 189.766034 
L 75.228 192.868657 
L 75.291421 203.950691 
L 75.418264 184.88988 
L 75.608529 209.491813 
L 75.67195 208.60526 
L 75.798793 194.974356 
L 75.862215 204.394073 
L 75.925636 203.396727 
L 75.989058 192.53649 
L 76.052479 196.96905 
L 76.1159 197.079843 
L 76.179322 190.209205 
L 76.306165 209.491813 
L 76.433008 197.190847 
L 76.496429 202.399379 
L 76.623272 193.201247 
L 76.686694 206.610565 
L 76.750115 202.842551 
L 76.813537 191.87131 
L 76.876958 195.417527 
L 76.94038 190.873963 
L 77.003801 177.24327 
L 77.067223 179.237964 
L 77.130644 179.902722 
L 77.194066 171.148183 
L 77.257487 172.47812 
L 77.320909 169.818246 
L 77.38433 153.86027 
L 77.447752 154.081855 
L 77.511173 163.834163 
L 77.574594 157.849658 
L 77.638016 158.403833 
L 77.701437 166.050444 
L 77.764859 162.393223 
L 77.82828 160.176942 
L 78.081966 180.567902 
L 78.208809 162.393223 
L 78.335652 176.689095 
L 78.399074 170.483003 
L 78.462495 173.807635 
L 78.525917 181.343663 
L 78.589338 175.691747 
L 78.65276 170.815593 
L 78.779603 190.541374 
L 78.906446 175.913333 
L 78.969867 177.797445 
L 79.033288 181.454244 
L 79.09671 179.570554 
L 79.160131 168.820899 
L 79.223553 171.258765 
L 79.286974 185.554638 
L 79.350396 180.567902 
L 79.477239 161.95005 
L 79.604082 180.013726 
L 79.667503 179.45955 
L 79.794346 162.393223 
L 80.048032 175.580743 
L 80.174875 166.161025 
L 80.238297 169.264071 
L 80.365139 179.016379 
L 80.491982 165.274682 
L 80.618825 180.567902 
L 80.80909 152.087161 
L 80.935933 166.382611 
L 80.999354 163.612155 
L 81.062776 158.182248 
L 81.126197 161.174289 
L 81.25304 166.715201 
L 81.379883 155.411793 
L 81.443305 157.960662 
L 81.570148 155.190206 
L 81.696991 166.050444 
L 81.760412 156.187553 
L 81.823833 157.073897 
L 81.950676 177.686442 
L 82.014098 176.245923 
L 82.077519 181.232659 
L 82.140941 179.79214 
L 82.267784 169.596661 
L 82.331205 170.039832 
L 82.394627 162.060633 
L 82.458048 164.055749 
L 82.52147 174.140224 
L 82.584891 170.483003 
L 82.648313 167.158372 
L 82.711734 173.25346 
L 82.775156 169.042485 
L 82.838577 163.944745 
L 82.901999 169.042485 
L 82.96542 167.934134 
L 83.155685 160.8417 
L 83.219106 162.28264 
L 83.282527 173.807635 
L 83.345949 166.826205 
L 83.40937 156.409139 
L 83.536213 167.04779 
L 83.599635 160.620114 
L 83.726478 167.712548 
L 83.789899 162.504227 
L 83.916742 168.156142 
L 84.107007 154.968198 
L 84.170428 156.741307 
L 84.297271 170.150836 
L 84.424114 155.522374 
L 84.550957 170.150836 
L 84.6778 157.738654 
L 84.741221 157.849658 
L 84.868064 168.156142 
L 84.994907 158.847006 
L 85.12175 171.258765 
L 85.248593 152.751918 
L 85.312015 164.942092 
L 85.375436 164.609503 
L 85.438858 156.187553 
L 85.502279 162.504227 
L 85.565701 175.137572 
L 85.629122 170.815593 
L 85.755965 154.081855 
L 85.819387 154.525027 
L 85.94623 159.290177 
L 86.073073 153.416676 
L 86.199915 165.717854 
L 86.263337 161.617461 
L 86.326758 162.504227 
L 86.39018 166.936786 
L 86.453601 165.163678 
L 86.517023 165.053096 
L 86.580444 172.034526 
L 86.643866 170.926597 
L 86.770709 159.179595 
L 86.897552 174.140224 
L 87.214659 151.532985 
L 87.468345 167.712548 
L 87.531767 164.720507 
L 87.595188 165.496267 
L 87.658609 168.599313 
L 87.785452 160.065938 
L 87.912295 167.823552 
L 88.10256 162.725812 
L 88.165981 164.609503 
L 88.292824 179.237964 
L 88.419667 157.738654 
L 88.483089 160.065938 
L 88.609932 175.580743 
L 88.673353 172.47812 
L 88.800196 148.540944 
L 88.863618 153.416676 
L 88.927039 158.847006 
L 88.99046 150.535638 
L 89.053882 152.973504 
L 89.180725 178.683789 
L 89.307568 147.100003 
L 89.370989 161.174289 
L 89.434411 158.95801 
L 89.497832 160.176942 
L 89.561254 169.042485 
L 89.81494 149.981463 
L 89.878361 145.54848 
L 90.068626 160.8417 
L 90.132047 155.300789 
L 90.195469 152.530332 
L 90.25889 152.751918 
L 90.322312 153.084508 
L 90.512576 156.298135 
L 90.575997 154.746612 
L 90.70284 158.736423 
L 90.766262 152.308747 
L 90.829683 152.862922 
L 90.956526 160.731118 
L 91.210212 155.633378 
L 91.337055 167.269376 
L 91.463898 150.97881 
L 91.52732 155.190206 
L 91.654163 148.651526 
L 91.717584 156.519721 
L 91.781006 155.190206 
L 91.907848 144.662137 
L 92.161534 160.398528 
L 92.224956 160.509532 
L 92.288377 154.857616 
L 92.351799 158.182248 
L 92.41522 166.493615 
L 92.478642 164.277335 
L 92.542063 155.965546 
L 92.605485 161.95005 
L 92.668906 173.697053 
L 92.732328 171.037179 
L 92.859171 147.875764 
L 92.922592 148.651526 
L 93.049435 145.770488 
L 93.176278 163.612155 
L 93.303121 145.659484 
L 93.429964 166.382611 
L 93.556807 154.414445 
L 93.620228 157.295483 
L 93.68365 151.865575 
L 93.810493 161.174289 
L 93.937336 145.770488 
L 94.000757 161.95005 
L 94.064179 161.728465 
L 94.1276 156.852311 
L 94.191022 163.390569 
L 94.254443 162.171636 
L 94.317865 161.174289 
L 94.381286 166.161025 
L 94.508129 146.878417 
L 94.571551 154.968198 
L 94.634972 165.828857 
L 94.761815 145.216313 
L 94.825236 150.535638 
L 94.952079 170.150836 
L 95.142344 156.519721 
L 95.205765 162.060633 
L 95.269187 159.401181 
L 95.459451 150.757224 
L 95.522873 151.532985 
L 95.586294 157.295483 
L 95.649716 157.184901 
L 95.776559 155.300789 
L 95.903402 142.778025 
L 96.030245 149.759876 
L 96.093666 148.873111 
L 96.157087 144.662137 
L 96.220509 146.989421 
L 96.347352 164.166331 
L 96.474195 141.559092 
L 96.601038 161.617461 
L 96.727881 140.45074 
L 96.854724 148.319358 
L 96.981567 138.345464 
L 97.10841 152.862922 
L 97.171831 146.878417 
L 97.235253 151.200395 
L 97.298674 162.060633 
L 97.362096 157.073897 
L 97.615781 139.675401 
L 97.742624 161.506879 
L 97.99631 139.675401 
L 98.186575 183.116771 
L 98.313418 172.47812 
L 98.440261 156.298135 
L 98.503682 159.401181 
L 98.567104 171.369769 
L 98.630525 166.604619 
L 98.693947 155.74396 
L 98.82079 172.14553 
L 98.947633 164.166331 
L 99.011054 165.93944 
L 99.074475 156.741307 
L 99.137897 159.844352 
L 99.201318 173.586049 
L 99.26474 171.258765 
L 99.328161 161.728465 
L 99.391583 163.058402 
L 99.455004 163.723159 
L 99.581847 154.414445 
L 99.645269 162.171636 
L 99.70869 159.512185 
L 99.772112 157.295483 
L 99.835533 161.174289 
L 99.962376 150.203049 
L 100.089219 167.601966 
L 100.152641 165.053096 
L 100.216062 160.8417 
L 100.342905 171.702359 
L 100.469748 158.292829 
L 100.723434 181.565248 
L 100.786855 178.129614 
L 101.040541 149.427287 
L 101.167384 170.483003 
L 101.230806 169.92925 
L 101.357649 159.290177 
L 101.42107 163.501573 
L 101.484492 162.836394 
L 101.611335 146.878417 
L 101.674756 148.09735 
L 101.738178 146.767836 
L 101.865021 167.712548 
L 101.928442 161.617461 
L 101.991863 154.525027 
L 102.245549 177.021685 
L 102.562657 151.311399 
L 102.816343 171.037179 
L 102.879764 169.596661 
L 102.943186 162.614808 
L 103.006607 166.382611 
L 103.070029 164.498921 
L 103.13345 154.857616 
L 103.196872 156.07655 
L 103.323715 168.488309 
L 103.450557 163.390569 
L 103.5774 167.158372 
L 103.640822 165.274682 
L 103.704243 166.382611 
L 103.767665 166.715201 
L 103.894508 161.95005 
L 104.084772 168.931481 
L 104.148194 179.348546 
L 104.211615 175.137572 
L 104.338458 162.171636 
L 104.465301 169.375075 
L 104.655566 160.065938 
L 104.718987 158.625419 
L 104.782408 159.401181 
L 104.909251 165.496267 
L 104.972673 164.277335 
L 105.036094 165.717854 
L 105.099516 164.498921 
L 105.226359 169.375075 
L 105.353202 157.295483 
L 105.416623 158.625419 
L 105.606888 165.163678 
L 105.670309 166.936786 
L 105.797152 157.295483 
L 105.860574 157.738654 
L 105.987417 162.393223 
L 106.304524 176.689095 
L 106.367945 172.699706 
L 106.431367 183.227353 
L 106.494788 179.45955 
L 106.55821 163.723159 
L 106.621631 167.269376 
L 106.748474 183.559943 
L 106.811896 180.124308 
L 106.938739 185.000462 
L 107.065582 171.480351 
L 107.129003 172.256112 
L 107.192425 172.367116 
L 107.255846 173.475467 
L 107.319268 173.364464 
L 107.382689 166.715201 
L 107.446111 169.596661 
L 107.509532 179.016379 
L 107.572954 175.913333 
L 107.636375 174.6944 
L 107.699796 175.802329 
L 107.763218 173.25346 
L 107.890061 190.873963 
L 108.016904 170.704589 
L 108.080325 179.016379 
L 108.143747 177.908027 
L 108.207168 170.704589 
L 108.27059 172.810288 
L 108.334011 177.686442 
L 108.460854 167.712548 
L 108.587697 182.895185 
L 108.651119 177.132266 
L 108.777962 155.633378 
L 108.904805 174.36181 
L 109.031648 164.055749 
L 109.15849 179.902722 
L 109.475598 146.435246 
L 109.602441 160.8417 
L 109.729284 128.593156 
L 109.792705 130.92044 
L 109.98297 142.113267 
L 110.046391 146.213659 
L 110.109813 145.105309 
L 110.173234 141.226502 
L 110.236656 141.337506 
L 110.300077 145.770488 
L 110.363499 145.54848 
L 110.490342 136.793941 
L 110.807449 164.055749 
L 110.87087 164.055749 
L 110.934292 171.591355 
L 110.997713 170.150836 
L 111.061135 160.509532 
L 111.124556 164.387917 
L 111.314821 189.433444 
L 111.441664 171.923945 
L 111.505085 180.678483 
L 111.568507 195.861121 
L 111.631928 194.641766 
L 111.885614 172.034526 
L 112.075878 188.546679 
L 112.1393 185.111465 
L 112.202721 185.333052 
L 112.266143 185.222048 
L 112.392986 177.353852 
L 112.456407 173.364464 
L 112.646672 181.343663 
L 112.773515 169.264071 
L 112.836936 170.926597 
L 112.900358 175.802329 
L 112.963779 175.137572 
L 113.027201 171.812941 
L 113.090622 173.697053 
L 113.280887 179.237964 
L 113.344308 184.114119 
L 113.534572 166.050444 
L 113.597994 172.367116 
L 113.724837 185.997809 
L 113.788258 183.559943 
L 113.915101 192.314482 
L 114.041944 173.586049 
L 114.105366 174.140224 
L 114.168787 171.812941 
L 114.29563 177.686442 
L 114.359052 171.480351 
L 114.485895 148.873111 
L 114.612738 165.274682 
L 114.739581 148.09735 
L 114.929845 159.401181 
L 114.993266 166.161025 
L 115.120109 151.643568 
L 115.246952 171.148183 
L 115.437217 146.213659 
L 115.500638 146.213659 
L 115.627481 158.292829 
L 115.690903 156.519721 
L 115.754324 145.770488 
L 115.817746 146.989421 
L 115.881167 157.406487 
L 115.944589 151.643568 
L 116.00801 136.572356 
L 116.071432 144.329547 
L 116.198275 173.586049 
L 116.261696 168.266724 
L 116.388539 147.654178 
L 116.45196 157.295483 
L 116.515382 155.854964 
L 116.578803 145.88107 
L 116.642225 149.427287 
L 116.705646 150.092467 
L 116.769068 146.435246 
L 116.895911 166.493615 
L 117.022754 153.416676 
L 117.086175 156.519721 
L 117.149597 146.767836 
L 117.213018 148.76253 
L 117.27644 163.612155 
L 117.339861 159.179595 
L 117.593547 121.500722 
L 117.656969 121.943894 
L 117.72039 121.389718 
L 117.974076 83.378677 
L 118.037497 86.592305 
L 118.100919 99.115069 
L 118.16434 89.806354 
L 118.227762 87.47907 
L 118.418026 104.212809 
L 118.608291 119.062856 
L 118.671712 130.477268 
L 118.735134 121.943894 
L 118.798555 113.854112 
L 118.925398 135.907176 
L 118.98882 132.360959 
L 119.115663 145.659484 
L 119.242505 128.593156 
L 119.369348 151.754572 
L 119.496191 137.680285 
L 119.686456 152.308747 
L 119.749877 140.340158 
L 119.813299 142.002263 
L 119.87672 156.852311 
L 119.940142 155.633378 
L 120.066985 140.672748 
L 120.193828 156.741307 
L 120.257249 154.414445 
L 120.384092 142.778025 
L 120.447514 144.218965 
L 120.510935 143.997379 
L 120.637778 160.952704 
L 120.764621 144.218965 
L 120.828042 148.42994 
L 120.954885 165.717854 
L 121.081728 150.757224 
L 121.14515 155.079202 
L 121.208571 162.28264 
L 121.398836 126.265872 
L 121.462257 135.242418 
L 121.525679 141.780677 
L 121.5891 139.342811 
L 121.652522 134.355654 
L 121.842786 147.432593 
L 121.906208 144.994727 
L 122.03305 138.123879 
L 122.096472 139.564397 
L 122.159893 134.577661 
L 122.223315 138.012875 
L 122.286736 146.102655 
L 122.413579 133.13672 
L 122.540422 166.826205 
L 122.603844 164.498921 
L 122.667265 166.272029 
L 122.730687 164.055749 
L 122.984373 147.765182 
L 123.111216 166.050444 
L 123.174637 159.179595 
L 123.364902 153.19509 
L 123.428323 150.424634 
L 123.491744 152.862922 
L 123.555166 148.42994 
L 123.682009 156.852311 
L 123.808852 147.100003 
L 123.872273 161.617461 
L 123.935695 153.19509 
L 123.999116 142.556438 
L 124.125959 158.95801 
L 124.189381 146.213659 
L 124.252802 150.97881 
L 124.443067 163.944745 
L 124.506488 161.506879 
L 124.56991 153.306093 
L 124.633331 155.633378 
L 124.760174 147.211007 
L 124.887017 170.261418 
L 125.01386 142.334853 
L 125.140703 167.601966 
L 125.267546 144.772719 
L 125.45781 158.736423 
L 125.521232 157.849658 
L 125.584653 155.190206 
L 125.711496 169.375075 
L 125.838339 149.094697 
L 125.901761 157.406487 
L 125.965182 156.519721 
L 126.028604 152.308747 
L 126.155447 171.923945 
L 126.345711 147.986768 
L 126.409132 148.208354 
L 126.472554 149.538291 
L 126.599397 158.514416 
L 126.662818 154.192437 
L 126.789661 167.823552 
L 126.853083 163.390569 
L 126.916504 157.406487 
L 126.979926 159.844352 
L 127.043347 159.290177 
L 127.106769 160.952704 
L 127.17019 166.826205 
L 127.233612 164.055749 
L 127.297033 155.522374 
L 127.360455 155.74396 
L 127.487298 167.490962 
L 127.550719 166.493615 
L 127.740984 146.878417 
L 127.804405 147.100003 
L 128.058091 169.485657 
L 128.121512 166.272029 
L 128.184934 168.045138 
L 128.248355 169.707242 
L 128.375198 153.416676 
L 128.502041 165.607271 
L 128.565463 163.723159 
L 128.628884 164.055749 
L 128.755727 161.506879 
L 128.88257 177.908027 
L 129.009413 155.300789 
L 129.072835 159.401181 
L 129.263099 179.902722 
L 129.389942 149.870459 
L 129.453363 158.292829 
L 129.516785 165.93944 
L 129.580206 156.298135 
L 129.643628 157.073897 
L 129.770471 190.652378 
L 129.897314 155.633378 
L 129.960735 162.504227 
L 130.151 187.881921 
L 130.277843 160.731118 
L 130.341264 170.704589 
L 130.404686 178.573207 
L 130.531529 166.272029 
L 130.59495 174.251228 
L 130.721793 104.766984 
L 130.848636 108.867376 
L 130.975479 116.957158 
L 131.0389 120.170785 
L 131.356008 107.094268 
L 131.419429 107.759026 
L 131.546272 121.05755 
L 131.609694 118.619262 
L 131.736537 122.609073 
L 131.799958 121.833312 
L 131.926801 135.242418 
L 132.053644 117.732919 
L 132.117065 125.601115 
L 132.180487 124.160596 
L 132.243908 123.828006 
L 132.30733 132.250377 
L 132.370751 127.263219 
L 132.434173 115.738225 
L 132.561016 135.575008 
L 132.624437 130.809436 
L 132.687859 125.822701 
L 132.75128 129.479922 
L 132.878123 127.041634 
L 133.004966 148.09735 
L 133.068388 144.329547 
L 133.131809 144.329547 
L 133.258652 169.153488 
L 133.322074 166.604619 
L 133.448917 143.997379 
L 133.512338 144.662137 
L 133.575759 147.211007 
L 133.639181 144.883723 
L 133.766024 161.174289 
L 133.829445 155.411793 
L 133.892867 143.443204 
L 133.956288 150.092467 
L 134.01971 161.174289 
L 134.146553 144.772719 
L 134.209974 149.427287 
L 134.400239 160.287524 
L 134.527082 147.654178 
L 134.653925 160.509532 
L 134.717346 161.063285 
L 134.780768 166.272029 
L 134.844189 161.617461 
L 134.907611 164.720507 
L 134.971032 172.810288 
L 135.097875 149.870459 
L 135.224718 171.037179 
L 135.351561 151.200395 
L 135.414982 155.633378 
L 135.541825 176.245923 
L 135.668668 160.952704 
L 135.73209 164.277335 
L 135.795511 176.689095 
L 135.858933 171.369769 
L 135.922354 154.968198 
L 135.985776 155.300789 
L 136.239462 172.367116 
L 136.429726 164.387917 
L 136.493147 160.398528 
L 136.61999 165.053096 
L 136.746833 162.060633 
L 136.810255 164.83151 
L 136.937098 182.230006 
L 137.063941 155.854964 
L 137.190784 176.356505 
L 137.317627 156.630725 
L 137.381048 158.625419 
L 137.44447 163.834163 
L 137.571313 152.530332 
L 137.698156 172.810288 
L 137.761577 162.947398 
L 137.824998 163.390569 
L 137.88842 177.132266 
L 137.951841 174.02922 
L 138.015263 169.818246 
L 138.078684 174.140224 
L 138.205527 159.401181 
L 138.33237 190.319787 
L 138.395792 181.011073 
L 138.586056 159.512185 
L 138.712899 186.662988 
L 138.776321 136.793941 
L 138.839742 137.458699 
L 139.030007 119.284442 
L 139.093428 122.719655 
L 139.15685 134.799247 
L 139.220271 133.8019 
L 139.283692 123.938588 
L 139.347114 129.812089 
L 139.410535 138.012875 
L 139.537378 128.482574 
L 139.6008 132.471963 
L 139.664221 126.709465 
L 139.727643 127.928399 
L 139.854486 145.216313 
L 140.108172 125.268525 
L 140.171593 123.27383 
L 140.235015 132.582545 
L 140.298436 128.70416 
L 140.361858 126.487457 
L 140.425279 136.682937 
L 140.488701 132.582545 
L 140.552122 120.724961 
L 140.678965 147.432593 
L 140.742386 143.3322 
L 140.805808 138.788636 
L 140.932651 147.100003 
L 141.059494 139.785983 
L 141.122915 143.886375 
L 141.186337 140.672748 
L 141.249758 146.102655 
L 141.31318 161.728465 
L 141.376601 157.295483 
L 141.630287 124.160596 
L 141.75713 146.989421 
L 141.820552 146.767836 
L 141.947395 134.023486 
L 142.074238 148.208354 
L 142.20108 127.263219 
L 142.454766 146.213659 
L 142.518188 143.997379 
L 142.581609 138.788636 
L 142.835295 161.395875 
L 142.898717 156.07655 
L 143.088981 136.461352 
L 143.152403 132.028791 
L 143.279246 139.675401 
L 143.342667 138.788636 
L 143.46951 150.314053 
L 143.723196 139.453393 
L 143.786617 140.78333 
L 143.91346 157.295483 
L 144.040303 145.770488 
L 144.103725 148.873111 
L 144.230568 143.775371 
L 144.293989 146.435246 
L 144.357411 148.09735 
L 144.420832 145.437898 
L 144.484254 147.211007 
L 144.73794 165.385263 
L 144.864783 148.984115 
L 144.991625 152.197743 
L 145.055047 151.865575 
L 145.18189 147.432593 
L 145.245311 143.553786 
L 145.308733 143.66479 
L 145.435576 150.314053 
L 145.62584 162.060633 
L 145.689262 157.184901 
L 145.752683 160.398528 
L 145.816105 163.390569 
L 145.942948 143.110615 
L 146.006369 149.870459 
L 146.069791 155.411793 
L 146.133212 154.857616 
L 146.260055 156.409139 
L 146.386898 154.857616 
L 146.513741 159.401181 
L 146.577162 157.960662 
L 146.704005 164.498921 
L 146.767427 163.279988 
L 146.830848 164.166331 
L 146.89427 142.002263 
L 146.957691 145.659484 
L 147.021113 164.609503 
L 147.084534 156.07655 
L 147.147956 140.229154 
L 147.211377 147.321589 
L 147.33822 164.609503 
L 147.401642 162.171636 
L 147.465063 162.725812 
L 147.528485 164.277335 
L 147.782171 147.765182 
L 147.909013 159.290177 
L 147.972435 155.854964 
L 148.035856 158.182248 
L 148.162699 171.148183 
L 148.289542 158.292829 
L 148.479807 174.251228 
L 148.60665 149.759876 
L 148.733493 159.401181 
L 148.796914 153.306093 
L 148.860336 156.409139 
L 148.923757 164.83151 
L 148.987179 162.947398 
L 149.0506 154.968198 
L 149.114022 156.963314 
L 149.177443 167.823552 
L 149.240865 163.279988 
L 149.367707 144.218965 
L 149.49455 160.620114 
L 149.621393 151.532985 
L 149.748236 160.952704 
L 149.875079 142.445857 
L 150.065344 117.843501 
L 150.192187 133.247724 
L 150.382451 86.924895 
L 150.445873 99.89083 
L 150.509294 101.442352 
L 150.572716 95.014676 
L 150.699559 104.988569 
L 150.826401 96.344612 
L 150.953244 100.888177 
L 151.016666 99.336654 
L 151.270352 119.506027 
L 151.460616 141.11592 
L 151.587459 151.089814 
L 151.714302 138.012875 
L 151.904567 174.915986 
L 151.967988 164.166331 
L 152.03141 154.303441 
L 152.158252 176.910681 
L 152.221674 174.6944 
L 152.285095 174.915986 
L 152.348517 174.472814 
L 152.47536 164.055749 
L 152.602203 173.807635 
L 153.109575 129.147332 
L 153.236418 139.342811 
L 153.363261 128.149984 
L 153.426682 131.25303 
L 153.490104 137.126531 
L 153.553525 136.128762 
L 153.616946 130.809436 
L 153.743789 141.670096 
L 153.807211 138.23446 
L 153.870632 138.012875 
L 153.934054 144.772719 
L 153.997475 144.329547 
L 154.124318 128.925746 
L 154.441426 159.179595 
L 154.504847 159.844352 
L 154.63169 146.54625 
L 154.695112 147.100003 
L 154.885376 149.427287 
L 154.948798 145.54848 
L 155.139062 182.562596 
L 155.202483 190.763381 
L 155.329326 154.303441 
L 155.519591 172.921292 
L 155.583012 178.129614 
L 155.709855 167.823552 
L 155.963541 187.327746 
L 156.090384 182.008421 
L 156.153806 183.892533 
L 156.280649 196.747464 
L 156.407492 174.02922 
L 156.470913 184.2247 
L 156.597756 161.174289 
L 156.851442 191.539142 
L 156.978285 180.789487 
L 157.105128 192.647072 
L 157.168549 178.240618 
L 157.231971 180.567902 
L 157.295392 183.005767 
L 157.358814 178.462203 
L 157.485657 195.085359 
L 157.6125 182.008421 
L 157.675921 188.990273 
L 157.802764 182.119424 
L 157.929607 198.077401 
L 158.05645 186.662988 
L 158.119871 185.554638 
L 158.246714 176.467509 
L 158.436979 182.784181 
L 158.5004 183.116771 
L 158.563822 173.475467 
L 158.627243 174.140224 
L 158.690665 185.887227 
L 158.754086 181.786835 
L 158.817508 178.019031 
L 158.880929 181.897417 
L 159.007772 172.47812 
L 159.071194 174.6944 
L 159.134615 172.034526 
L 159.261458 189.32244 
L 159.388301 156.630725 
L 159.515144 174.140224 
L 159.578565 168.820899 
L 159.641987 170.372422 
L 159.705408 173.697053 
L 159.832251 165.053096 
L 159.959094 184.778876 
L 160.085937 167.934134 
L 160.21278 179.45955 
L 160.276202 175.913333 
L 160.403045 161.174289 
L 160.466466 169.485657 
L 160.593309 144.551133 
L 160.656731 144.883723 
L 160.783573 174.251228 
L 160.846995 167.490962 
L 160.973838 151.976157 
L 161.227524 162.836394 
L 161.354367 153.306093 
L 161.608053 172.810288 
L 161.734896 159.844352 
L 161.798317 173.031874 
L 161.861739 169.92925 
L 161.988582 141.44851 
L 162.178846 164.83151 
L 162.305689 155.633378 
L 162.432532 173.25346 
L 162.559375 144.107961 
L 162.622796 147.654178 
L 162.686218 152.973504 
L 162.749639 145.992074 
L 162.876482 162.836394 
L 163.003325 145.992074 
L 163.257011 182.008421 
L 163.320433 182.008421 
L 163.510697 167.490962 
L 163.574119 160.176942 
L 163.63754 164.498921 
L 163.700961 174.915986 
L 163.827804 157.849658 
L 163.954647 173.25346 
L 164.018069 163.944745 
L 164.08149 167.934134 
L 164.144912 170.372422 
L 164.271755 166.272029 
L 164.335176 158.403833 
L 164.398598 160.398528 
L 164.462019 173.918639 
L 164.525441 168.377728 
L 164.588862 161.174289 
L 164.652284 172.034526 
L 164.715705 167.712548 
L 164.779127 157.406487 
L 164.90597 175.802329 
L 165.032813 167.934134 
L 165.159655 174.02922 
L 165.286498 152.197743 
L 165.34992 152.862922 
L 165.476763 171.812941 
L 165.603606 147.100003 
L 165.730449 173.031874 
L 165.857292 151.532985 
L 165.920713 153.416676 
L 166.047556 168.709895 
L 166.174399 151.865575 
L 166.301242 166.272029 
L 166.428085 149.648873 
L 166.554928 169.707242 
L 166.618349 156.963314 
L 166.681771 161.95005 
L 166.745192 178.240618 
L 166.808614 174.583397 
L 166.998878 151.200395 
L 167.0623 151.532985 
L 167.189143 163.723159 
L 167.252564 156.187553 
L 167.379407 176.356505 
L 167.442829 171.258765 
L 167.50625 170.372422 
L 167.569672 176.134919 
L 167.633093 174.251228 
L 167.696515 173.25346 
L 167.759936 179.237964 
L 167.823358 175.137572 
L 167.886779 163.058402 
L 167.950201 164.387917 
L 168.077043 170.926597 
L 168.203886 167.158372 
L 168.330729 147.321589 
L 168.394151 148.42994 
L 168.584415 164.720507 
L 168.647837 166.050444 
L 168.711258 164.498921 
L 168.838101 169.042485 
L 168.964944 151.311399 
L 169.091787 168.599313 
L 169.155209 163.612155 
L 169.282052 155.74396 
L 169.472316 173.031874 
L 169.66258 150.535638 
L 169.789423 174.36181 
L 169.852845 174.140224 
L 169.979688 136.01818 
L 170.043109 143.3322 
L 170.106531 150.092467 
L 170.169952 140.229154 
L 170.233374 141.670096 
L 170.360217 170.039832 
L 170.48706 126.598461 
L 170.740746 160.287524 
L 170.867588 137.348117 
L 170.93101 141.004916 
L 170.994431 139.785983 
L 171.057853 129.701507 
L 171.121274 132.139373 
L 171.184696 142.224271 
L 171.248117 176.024337 
L 171.311539 169.375075 
L 171.37496 168.377728 
L 171.755489 181.565248 
L 171.818911 178.905375 
L 171.882332 181.122077 
L 172.009175 175.691747 
L 172.19944 191.095549 
L 172.262861 191.982314 
L 172.389704 183.116771 
L 172.516547 204.283281 
L 172.64339 181.011073 
L 172.706811 188.546679 
L 172.770233 185.111465 
L 172.833654 181.897417 
L 172.960497 195.528531 
L 173.023919 185.776223 
L 173.08734 186.995156 
L 173.341026 201.180236 
L 173.467869 188.990273 
L 173.531291 195.195941 
L 173.594712 207.053737 
L 173.658134 200.515267 
L 173.721555 186.219395 
L 173.784976 195.306945 
L 173.848398 213.148823 
L 173.911819 211.264922 
L 174.038662 178.905375 
L 174.102084 182.119424 
L 174.35577 203.396727 
L 174.482613 184.2247 
L 174.609456 211.597301 
L 174.672877 205.502214 
L 174.863142 196.414874 
L 174.989985 204.94825 
L 175.116828 189.544026 
L 175.24367 200.515267 
L 175.307092 200.404474 
L 175.370513 204.94825 
L 175.433935 199.074748 
L 175.497356 200.737064 
L 175.560778 207.940291 
L 175.687621 184.2247 
L 175.814464 209.491813 
L 175.941307 185.222048 
L 176.004728 193.312251 
L 176.131571 211.597301 
L 176.258414 193.533837 
L 176.321836 194.198595 
L 176.385257 203.618313 
L 176.448679 202.731758 
L 176.638943 190.873963 
L 176.702364 191.095549 
L 176.765786 201.291029 
L 176.829207 200.293681 
L 177.082893 179.237964 
L 177.146315 183.227353 
L 177.209736 182.451592 
L 177.336579 177.686442 
L 177.400001 179.348546 
L 177.526844 194.974356 
L 177.653687 175.137572 
L 177.78053 195.417527 
L 177.907373 170.039832 
L 178.034215 178.794793 
L 178.097637 168.820899 
L 178.161058 169.042485 
L 178.22448 180.124308 
L 178.287901 178.683789 
L 178.351323 168.931481 
L 178.478166 191.982314 
L 178.541587 187.327746 
L 178.795273 165.93944 
L 178.922116 193.644418 
L 179.175802 164.166331 
L 179.239224 168.599313 
L 179.302645 184.778876 
L 179.366067 179.570554 
L 179.683174 145.54848 
L 179.810017 164.83151 
L 179.873438 151.865575 
L 179.93686 157.073897 
L 180.000281 169.707242 
L 180.127124 149.648873 
L 180.190546 155.854964 
L 180.317389 150.757224 
L 180.444232 169.596661 
L 180.697918 143.221618 
L 180.761339 141.780677 
L 180.888182 154.968198 
L 180.951603 150.203049 
L 181.015025 154.303441 
L 181.078446 153.749266 
L 181.141868 147.100003 
L 181.205289 151.754572 
L 181.332132 167.490962 
L 181.395554 161.95005 
L 181.522397 171.148183 
L 181.64924 152.308747 
L 181.712661 164.720507 
L 181.776083 161.506879 
L 181.839504 160.8417 
L 181.966347 179.12696 
L 182.220033 146.102655 
L 182.346876 171.812941 
L 182.410297 168.266724 
L 182.53714 154.968198 
L 182.600562 162.171636 
L 182.663983 158.292829 
L 182.790826 137.458699 
L 183.044512 173.807635 
L 183.107934 167.712548 
L 183.171355 157.738654 
L 183.234777 161.285293 
L 183.36162 165.385263 
L 183.425041 171.812941 
L 183.551884 150.757224 
L 183.615306 152.862922 
L 183.678727 152.419328 
L 183.742149 148.540944 
L 184.059256 168.377728 
L 184.122677 163.944745 
L 184.186099 163.168984 
L 184.376363 152.530332 
L 184.503206 166.493615 
L 184.566628 163.612155 
L 184.630049 162.504227 
L 184.693471 164.498921 
L 184.820314 158.071244 
L 184.883735 163.501573 
L 184.947157 160.731118 
L 185.074 150.757224 
L 185.264264 162.947398 
L 185.327685 178.573207 
L 185.391107 175.580743 
L 185.51795 161.285293 
L 185.644793 167.934134 
L 185.898479 151.311399 
L 186.215586 156.298135 
L 186.279008 159.401181 
L 186.405851 172.256112 
L 186.532694 153.638684 
L 186.596115 158.514416 
L 186.722958 165.163678 
L 186.786379 164.387917 
L 187.040065 150.868228 
L 187.103487 153.416676 
L 187.420594 176.356505 
L 187.484016 175.580743 
L 187.547437 172.367116 
L 187.610859 185.333052 
L 187.67428 184.114119 
L 187.801123 163.612155 
L 187.991388 192.2039 
L 188.054809 192.868657 
L 188.11823 196.082707 
L 188.371916 178.905375 
L 188.498759 185.333052 
L 188.625602 176.578091 
L 188.689024 186.219395 
L 188.752445 184.2247 
L 188.815867 176.910681 
L 188.879288 177.797445 
L 189.069553 198.298987 
L 189.196396 188.103507 
L 189.259817 198.40978 
L 189.323239 196.082707 
L 189.38666 185.444056 
L 189.450082 187.327746 
L 189.513503 196.63646 
L 189.576924 190.652378 
L 189.640346 179.12696 
L 189.703767 185.000462 
L 189.767189 197.966608 
L 189.83061 192.647072 
L 189.957453 173.807635 
L 190.084296 187.992503 
L 190.147718 186.662988 
L 190.211139 187.43875 
L 190.337982 206.499561 
L 190.464825 179.237964 
L 190.528247 182.34101 
L 190.591668 183.116771 
L 190.65509 179.681136 
L 190.781933 205.613007 
L 190.908776 174.915986 
L 190.972197 179.681136 
L 191.225883 202.510172 
L 191.352726 182.34101 
L 191.479569 194.75277 
L 191.669833 165.053096 
L 191.796676 174.140224 
L 191.860098 171.702359 
L 192.113784 186.884574 
L 192.177205 190.209205 
L 192.304048 174.915986 
L 192.430891 188.990273 
L 192.494312 199.51792 
L 192.621155 176.024337 
L 192.684577 186.330399 
L 192.747998 201.180236 
L 192.81142 200.515267 
L 192.938263 196.193289 
L 193.065106 178.351199 
L 193.128527 182.008421 
L 193.25537 212.373062 
L 193.318792 206.499561 
L 193.382213 200.847856 
L 193.509056 211.043336 
L 193.572478 207.275322 
L 193.699321 196.858257 
L 193.826163 211.597301 
L 194.016428 193.866005 
L 194.143271 199.407127 
L 194.270114 188.546679 
L 194.5238 200.626271 
L 194.587221 200.072095 
L 194.714064 186.108813 
L 194.96775 212.373062 
L 195.094593 228.885214 
L 195.221436 202.177582 
L 195.284857 207.386115 
L 195.4117 196.082707 
L 195.538543 198.077401 
L 195.601965 171.258765 
L 195.665386 173.031874 
L 195.792229 175.248576 
L 195.855651 174.583397 
L 195.919072 173.364464 
L 196.045915 177.464856 
L 196.109337 176.800099 
L 196.172758 176.910681 
L 196.23618 180.789487 
L 196.299601 178.019031 
L 196.363023 176.024337 
L 196.489866 186.441402 
L 196.616709 178.905375 
L 196.68013 181.675831 
L 196.743551 182.784181 
L 196.870394 174.36181 
L 196.997237 178.905375 
L 197.060659 175.802329 
L 197.12408 177.132266 
L 197.187502 177.353852 
L 197.250923 175.026568 
L 197.441188 189.211859 
L 197.504609 185.444056 
L 197.631452 182.562596 
L 197.821717 185.111465 
L 197.885138 184.778876 
L 198.011981 178.351199 
L 198.202245 186.219395 
L 198.265667 188.325093 
L 198.39251 180.900069 
L 198.519353 189.876616 
L 198.646196 177.686442 
L 198.709617 180.789487 
L 198.83646 171.702359 
L 198.899882 172.034526 
L 198.963303 174.140224 
L 199.026725 172.921292 
L 199.090146 170.594007 
L 199.153568 171.480351 
L 199.216989 172.14553 
L 199.343832 165.717854 
L 199.470675 176.356505 
L 199.534097 173.807635 
L 199.597518 172.588702 
L 199.660939 174.251228 
L 199.787782 172.588702 
L 199.851204 177.464856 
L 199.914625 174.6944 
L 199.978047 165.828857 
L 200.041468 166.493615 
L 200.10489 172.367116 
L 200.168311 170.815593 
L 200.231733 170.704589 
L 200.295154 173.475467 
L 200.421997 170.372422 
L 200.612262 176.910681 
L 200.739105 171.591355 
L 200.802526 173.697053 
L 200.865948 173.475467 
L 200.929369 169.042485 
L 200.99279 171.591355 
L 201.056212 175.359158 
L 201.309898 165.163678 
L 201.373319 166.161025 
L 201.436741 173.142878 
L 201.500162 170.926597 
L 201.563584 168.820899 
L 201.627005 172.588702 
L 201.753848 165.163678 
L 201.880691 175.913333 
L 202.007534 170.483003 
L 202.134377 174.472814 
L 202.26122 168.377728 
L 202.324642 170.261418 
L 202.388063 176.245923 
L 202.451484 174.02922 
L 202.641749 162.614808 
L 202.768592 165.607271 
L 202.832013 163.390569 
L 202.895435 164.83151 
L 202.958856 166.936786 
L 203.085699 162.28264 
L 203.212542 171.258765 
L 203.339385 162.614808 
L 203.466228 167.38038 
L 203.593071 162.171636 
L 203.783336 173.364464 
L 203.846757 170.926597 
L 203.910178 171.258765 
L 203.9736 172.588702 
L 204.227286 164.277335 
L 204.290707 163.168984 
L 204.480972 169.485657 
L 204.861501 159.844352 
L 205.051765 163.390569 
L 205.178608 159.955356 
L 205.305451 163.501573 
L 205.368872 161.728465 
L 205.432294 162.504227 
L 205.495715 162.614808 
L 205.559137 162.504227 
L 205.68598 166.493615 
L 205.812823 163.390569 
L 206.003087 166.382611 
L 206.066509 169.707242 
L 206.12993 169.485657 
L 206.256773 163.279988 
L 206.320195 165.496267 
L 206.573881 158.514416 
L 206.890988 168.377728 
L 207.144674 160.398528 
L 207.334938 167.934134 
L 207.39836 166.272029 
L 207.588624 159.068591 
L 207.652046 160.065938 
L 207.778889 157.849658 
L 207.969153 166.715201 
L 208.28626 161.174289 
L 208.349682 161.617461 
L 208.413103 167.934134 
L 208.476525 167.712548 
L 208.539946 164.055749 
L 208.603368 166.161025 
L 208.666789 167.601966 
L 208.983897 157.406487 
L 209.174161 166.493615 
L 209.301004 162.060633 
L 209.55469 168.709895 
L 209.681533 163.279988 
L 209.808376 168.045138 
L 210.062062 162.836394 
L 210.125483 163.944745 
L 210.188905 162.947398 
L 210.252326 159.290177 
L 210.315748 161.395875 
L 210.379169 162.504227 
L 210.506012 160.287524 
L 210.569434 161.285293 
L 210.632855 160.398528 
L 210.696277 156.187553 
L 210.759698 156.963314 
L 210.949963 165.828857 
L 211.013384 165.274682 
L 211.140227 162.836394 
L 211.203648 161.285293 
L 211.330491 169.92925 
L 211.393913 169.264071 
L 211.647599 159.290177 
L 211.71102 160.176942 
L 211.774442 158.847006 
L 211.964706 150.203049 
L 212.091549 145.437898 
L 212.345235 152.087161 
L 212.472078 146.767836 
L 212.535499 147.986768 
L 212.598921 149.205701 
L 212.662342 148.42994 
L 212.725764 146.878417 
L 212.789185 148.76253 
L 212.852607 148.540944 
L 212.916028 148.76253 
L 213.042871 154.414445 
L 213.169714 147.432593 
L 213.296557 150.535638 
L 213.4234 145.216313 
L 213.550243 147.654178 
L 213.613665 145.659484 
L 213.740508 150.424634 
L 213.803929 146.54625 
L 213.867351 149.316705 
L 213.930772 155.522374 
L 213.994193 153.416676 
L 214.057615 148.76253 
L 214.121036 150.97881 
L 214.184458 155.079202 
L 214.247879 153.638684 
L 214.311301 153.86027 
L 214.438144 158.95801 
L 214.564987 155.411793 
L 214.628408 156.07655 
L 214.755251 145.437898 
L 214.818673 146.878417 
L 215.008937 154.192437 
L 215.072359 157.849658 
L 215.13578 157.295483 
L 215.326045 151.532985 
L 215.452887 148.540944 
L 215.57973 155.079202 
L 215.643152 151.643568 
L 215.706573 151.976157 
L 215.960259 161.174289 
L 216.087102 158.625419 
L 216.150524 161.728465 
L 216.277367 150.092467 
L 216.340788 151.089814 
L 216.467631 158.403833 
L 216.594474 149.205701 
L 216.721317 161.063285 
L 216.784738 160.287524 
L 216.84816 156.963314 
L 216.911581 159.068591 
L 216.975003 160.509532 
L 217.101846 155.854964 
L 217.165267 156.630725 
L 217.29211 153.084508 
L 217.482375 158.182248 
L 217.545796 158.847006 
L 217.672639 152.530332 
L 217.736061 154.746612 
L 217.799482 154.081855 
L 217.926325 151.865575 
L 217.989747 153.416676 
L 218.053168 158.182248 
L 218.11659 157.849658 
L 218.243432 150.64622 
L 218.306854 151.865575 
L 218.433697 157.073897 
L 218.56054 144.218965 
L 218.687383 149.981463 
L 218.750804 143.997379 
L 218.814226 146.324242 
L 218.941069 154.525027 
L 219.00449 151.421981 
L 219.258176 160.952704 
L 219.385019 149.316705 
L 219.511862 158.625419 
L 219.575284 157.184901 
L 219.765548 152.530332 
L 219.828969 154.081855 
L 219.955812 168.045138 
L 220.019234 164.498921 
L 220.082655 157.628072 
L 220.146077 158.847006 
L 220.209498 158.625419 
L 220.27292 156.741307 
L 220.336341 157.738654 
L 220.399763 158.071244 
L 220.526606 152.087161 
L 220.71687 158.847006 
L 220.843713 150.757224 
L 220.907135 152.973504 
L 220.970556 155.854964 
L 221.097399 152.308747 
L 221.16082 153.970851 
L 221.477928 142.889029 
L 221.604771 149.094697 
L 221.731614 141.11592 
L 222.048721 153.416676 
L 222.112143 155.633378 
L 222.365829 144.994727 
L 222.492672 159.733771 
L 222.556093 158.514416 
L 222.619514 157.628072 
L 222.682936 160.065938 
L 222.809779 147.211007 
L 222.936622 156.07655 
L 223.000043 155.411793 
L 223.126886 150.203049 
L 223.190308 152.641336 
L 223.253729 158.625419 
L 223.317151 155.300789 
L 223.380572 149.981463 
L 223.443994 150.97881 
L 223.570837 148.540944 
L 223.824523 161.839046 
L 223.887944 161.728465 
L 224.014787 165.93944 
L 224.078208 164.720507 
L 224.331894 151.200395 
L 224.458737 162.393223 
L 224.522159 162.060633 
L 224.649002 159.955356 
L 224.775845 162.725812 
L 224.902688 160.176942 
L 225.029531 164.720507 
L 225.092952 165.053096 
L 225.156374 168.266724 
L 225.219795 167.38038 
L 225.346638 163.944745 
L 225.536902 164.942092 
L 225.663745 163.058402 
L 225.790588 168.599313 
L 225.85401 167.712548 
L 225.980853 171.702359 
L 226.234539 165.93944 
L 226.361382 159.622767 
L 226.424803 162.504227 
L 226.488225 162.171636 
L 226.551646 158.736423 
L 226.678489 167.04779 
L 226.741911 163.834163 
L 226.805332 164.83151 
L 226.868753 167.158372 
L 226.995596 160.509532 
L 227.059018 161.395875 
L 227.122439 161.174289 
L 227.185861 158.514416 
L 227.312704 168.377728 
L 227.376125 165.385263 
L 227.56639 157.849658 
L 227.883497 174.583397 
L 228.01034 165.163678 
L 228.073762 168.709895 
L 228.200605 173.586049 
L 228.264026 174.251228 
L 228.390869 170.815593 
L 228.517712 175.802329 
L 228.644555 169.707242 
L 228.707976 171.812941 
L 228.771398 176.800099 
L 228.834819 175.359158 
L 228.961662 170.150836 
L 229.025084 170.594007 
L 229.088505 168.156142 
L 229.151927 169.042485 
L 229.342191 173.918639 
L 229.405613 173.697053 
L 229.532456 172.699706 
L 229.659299 180.456898 
L 229.72272 177.353852 
L 229.849563 171.812941 
L 229.912984 172.47812 
L 229.976406 171.702359 
L 230.103249 180.900069 
L 230.230092 173.364464 
L 230.293513 173.697053 
L 230.356935 174.02922 
L 230.483778 168.266724 
L 230.547199 165.163678 
L 230.610621 165.385263 
L 230.674042 168.488309 
L 230.737464 166.604619 
L 230.800885 163.501573 
L 230.864307 165.163678 
L 230.99115 170.926597 
L 231.244835 160.398528 
L 231.308257 161.063285 
L 231.371678 161.617461 
L 231.498521 150.64622 
L 231.561943 152.197743 
L 231.815629 164.166331 
L 231.87905 162.393223 
L 231.942472 162.504227 
L 232.005893 162.504227 
L 232.259579 156.07655 
L 232.576686 166.161025 
L 232.640108 165.93944 
L 232.703529 168.045138 
L 232.766951 166.826205 
L 232.830372 165.053096 
L 233.084058 177.021685 
L 233.210901 172.699706 
L 233.337744 178.794793 
L 233.401166 177.464856 
L 233.464587 175.802329 
L 233.59143 179.016379 
L 233.718273 170.926597 
L 233.845116 175.359158 
L 233.908538 173.364464 
L 234.03538 177.575438 
L 234.162223 168.156142 
L 234.225645 169.707242 
L 234.289066 173.142878 
L 234.352488 171.702359 
L 234.479331 170.372422 
L 234.606174 164.720507 
L 234.733017 171.480351 
L 234.796438 169.153488 
L 234.923281 178.462203 
L 234.986703 176.800099 
L 235.113546 168.156142 
L 235.176967 171.702359 
L 235.30381 165.274682 
L 235.557496 181.454244 
L 235.684339 176.578091 
L 235.74776 177.686442 
L 235.811182 178.794793 
L 235.938025 173.031874 
L 236.001446 175.137572 
L 236.064868 174.36181 
L 236.128289 169.153488 
L 236.381975 215.808487 
L 236.508818 178.794793 
L 236.762504 215.254522 
L 236.889347 194.088012 
L 237.206454 243.291879 
L 237.333297 229.107011 
L 237.396719 238.304933 
L 237.46014 237.750968 
L 237.586983 218.578942 
L 237.650405 234.20454 
L 237.713826 226.225552 
L 237.777248 205.059043 
L 237.840669 214.146171 
L 237.967512 242.737704 
L 238.157777 232.653228 
L 238.221198 240.299628 
L 238.348041 213.481203 
L 238.411462 224.563236 
L 238.474884 230.54753 
L 238.538305 220.795434 
L 238.665148 248.611205 
L 238.791991 218.689735 
L 238.855413 239.080694 
L 238.918834 230.658323 
L 238.982256 225.338997 
L 239.109099 256.590194 
L 239.235942 226.779727 
L 239.299363 228.220457 
L 239.362785 218.357356 
L 239.426206 221.349609 
L 239.489628 230.54753 
L 239.553049 226.114759 
L 239.616471 227.555489 
L 239.679892 226.558142 
L 239.743314 211.929891 
L 239.806735 214.035378 
L 239.870156 228.442043 
L 239.933578 218.800739 
L 239.996999 218.357356 
L 240.060421 230.436737 
L 240.123842 223.455096 
L 240.250685 218.578942 
L 240.314107 200.847856 
L 240.377528 203.618313 
L 240.44095 220.573848 
L 240.567793 183.448939 
L 240.631214 194.198595 
L 240.694636 203.285934 
L 240.758057 197.190847 
L 240.8849 205.613007 
L 241.011743 187.660336 
L 241.138586 212.26227 
L 241.265429 179.681136 
L 241.392272 198.077401 
L 241.455693 194.75277 
L 241.519115 175.137572 
L 241.582536 176.134919 
L 241.645958 201.180236 
L 241.709379 195.639113 
L 241.836222 165.163678 
L 241.963065 199.628713 
L 242.026487 193.866005 
L 242.15333 169.707242 
L 242.280173 188.325093 
L 242.343594 199.185541 
L 242.407016 196.304293 
L 242.59728 177.908027 
L 242.724123 199.628713 
L 242.787544 197.744812 
L 242.914387 179.570554 
L 242.977809 189.766034 
L 243.104652 143.221618 
L 243.168073 125.157943 
L 243.231495 133.358306 
L 243.358338 162.171636 
L 243.485181 139.342811 
L 243.612024 172.588702 
L 243.738867 131.474616 
L 243.802288 133.026139 
L 243.86571 142.334853 
L 243.929131 136.682937 
L 244.055974 157.849658 
L 244.182817 135.575008 
L 244.373081 174.02922 
L 244.436503 181.343663 
L 244.499924 178.905375 
L 244.626767 162.504227 
L 244.690189 166.272029 
L 244.75361 159.179595 
L 244.817032 163.279988 
L 244.880453 177.575438 
L 245.007296 149.094697 
L 245.070718 159.622767 
L 245.134139 165.163678 
L 245.197561 162.614808 
L 245.260982 166.272029 
L 245.324404 165.607271 
L 245.387825 167.04779 
L 245.451247 164.277335 
L 245.514668 148.76253 
L 245.641511 184.55729 
L 245.704932 171.923945 
L 245.768354 164.055749 
L 245.831775 179.570554 
L 245.958618 154.857616 
L 246.085461 172.588702 
L 246.148883 165.274682 
L 246.212304 173.364464 
L 246.275726 171.702359 
L 246.529412 148.984115 
L 246.656255 181.565248 
L 246.783098 148.651526 
L 246.909941 188.436097 
L 247.036783 161.395875 
L 247.100205 165.828857 
L 247.227048 179.681136 
L 247.353891 159.733771 
L 247.480734 185.222048 
L 247.607577 148.540944 
L 247.73442 185.000462 
L 247.797841 169.153488 
L 247.861263 171.812941 
L 247.924684 195.861121 
L 247.988106 187.881921 
L 248.051527 166.826205 
L 248.114949 168.377728 
L 248.241792 163.168984 
L 248.368634 181.343663 
L 248.432056 172.14553 
L 248.558899 189.100855 
L 248.685742 170.150836 
L 248.812585 184.114119 
L 248.876006 183.005767 
L 248.939428 188.325093 
L 249.066271 170.815593 
L 249.129692 173.25346 
L 249.256535 190.319787 
L 249.319957 187.660336 
L 249.573643 162.171636 
L 249.700486 194.309599 
L 249.763907 191.539142 
L 249.89075 188.436097 
L 250.017593 207.386115 
L 250.144436 176.134919 
L 250.207857 185.665642 
L 250.271279 195.971703 
L 250.3347 191.760728 
L 250.461543 182.230006 
L 250.524965 183.338357 
L 250.651808 199.961303 
L 250.842072 157.738654 
L 250.968915 197.412432 
L 251.032337 196.082707 
L 251.15918 136.793941 
L 251.286022 167.712548 
L 251.412865 139.896987 
L 251.539708 181.565248 
L 251.666551 124.936357 
L 251.856816 157.406487 
L 251.920237 165.717854 
L 252.04708 129.036328 
L 252.110502 141.337506 
L 252.237345 109.532134 
L 252.300766 120.503375 
L 252.427609 163.834163 
L 252.554452 132.582545 
L 252.744716 148.873111 
L 252.808138 147.211007 
L 252.934981 153.416676 
L 252.998402 151.754572 
L 253.061824 149.094697 
L 253.188667 139.231808 
L 253.31551 162.725812 
L 253.505774 148.984115 
L 253.569196 151.532985 
L 253.696039 170.483003 
L 253.822882 140.118573 
L 253.886303 152.641336 
L 253.949725 147.654178 
L 254.013146 142.999611 
L 254.076568 156.519721 
L 254.139989 154.636031 
L 254.20341 138.677632 
L 254.266832 144.440551 
L 254.330253 158.403833 
L 254.393675 153.084508 
L 254.457096 148.42994 
L 254.520518 155.74396 
L 254.583939 153.306093 
L 254.647361 142.889029 
L 254.774204 170.594007 
L 254.837625 165.496267 
L 254.901047 145.54848 
L 254.964468 154.968198 
L 255.02789 181.232659 
L 255.091311 179.016379 
L 255.218154 143.66479 
L 255.344997 158.847006 
L 255.408419 153.416676 
L 255.535262 180.235312 
L 255.662104 142.224271 
L 255.788947 182.230006 
L 255.852369 171.702359 
L 256.042633 146.656832 
L 256.169476 171.037179 
L 256.232898 152.419328 
L 256.296319 157.738654 
L 256.359741 183.448939 
L 256.423162 172.810288 
L 256.486584 165.828857 
L 256.550005 175.248576 
L 256.676848 163.723159 
L 256.74027 182.895185 
L 256.803691 168.931481 
L 256.867113 150.868228 
L 256.993955 187.770917 
L 257.120798 138.899639 
L 257.18422 144.883723 
L 257.311063 174.140224 
L 257.437906 149.205701 
L 257.501327 149.870459 
L 257.564749 164.720507 
L 257.62817 162.504227 
L 257.755013 144.440551 
L 258.135542 160.620114 
L 258.262385 135.907176 
L 258.325807 139.231808 
L 258.452649 146.435246 
L 258.516071 142.224271 
L 258.579492 144.994727 
L 258.706335 161.617461 
L 258.833178 127.263219 
L 258.960021 158.736423 
L 259.086864 120.060204 
L 259.150286 128.37157 
L 259.213707 139.785983 
L 259.34055 122.387487 
L 259.467393 142.667442 
L 259.530815 126.15529 
L 259.594236 135.020833 
L 259.657658 163.612155 
L 259.721079 157.960662 
L 259.911343 125.601115 
L 259.974765 117.954504 
L 260.101608 163.501573 
L 260.228451 124.603767 
L 260.291872 125.046939 
L 260.355294 120.170785 
L 260.418715 126.044286 
L 260.482137 148.873111 
L 260.545558 284.627763 
L 260.60898 276.981153 
L 260.672401 259.471654 
L 260.735823 259.69324 
L 260.799244 257.365955 
L 260.862666 247.059683 
L 260.989509 272.88076 
L 261.05293 252.933184 
L 261.116352 259.914825 
L 261.179773 279.086641 
L 261.306616 248.278827 
L 261.370037 254.927878 
L 261.433459 252.933184 
L 261.49688 257.144369 
L 261.560302 273.21335 
L 261.623723 272.548382 
L 261.687145 261.577141 
L 261.750566 265.677533 
L 261.813988 267.118263 
L 261.940831 249.386967 
L 262.004252 267.561435 
L 262.067674 260.801379 
L 262.131095 247.724651 
L 262.194517 257.365955 
L 262.257938 259.249857 
L 262.32136 255.260468 
L 262.448203 268.558782 
L 262.575046 261.244762 
L 262.701889 270.331891 
L 262.828731 251.935836 
L 262.892153 263.128664 
L 262.955574 261.577141 
L 263.018996 262.131316 
L 263.145839 286.179286 
L 263.399525 228.885214 
L 263.526368 275.318838 
L 263.589789 273.102346 
L 263.716632 255.038882 
L 263.843475 264.79098 
L 263.970318 231.766675 
L 264.03374 235.423684 
L 264.160583 254.817085 
L 264.224004 270.331891 
L 264.350847 239.967249 
L 264.414268 244.40002 
L 264.604533 262.907078 
L 264.92164 211.375715 
L 265.175326 232.653228 
L 265.238748 232.431431 
L 265.492434 205.834804 
L 265.555855 202.399379 
L 265.682698 223.787474 
L 265.746119 218.246563 
L 265.809541 219.798086 
L 265.872962 224.895826 
L 265.999805 206.721358 
L 266.126648 216.473455 
L 266.253491 194.974356 
L 266.316913 197.966608 
L 266.380334 189.766034 
L 266.443756 194.75277 
L 266.570599 217.803181 
L 266.697442 195.528531 
L 266.824285 205.059043 
L 266.887706 203.729105 
L 267.014549 183.227353 
L 267.07797 183.892533 
L 267.141392 186.77357 
L 267.268235 183.892533 
L 267.331656 186.551984 
L 267.395078 182.562596 
L 267.458499 170.926597 
L 267.521921 173.142878 
L 267.585342 177.575438 
L 267.712185 137.458699 
L 267.775607 141.559092 
L 267.839028 149.981463 
L 267.90245 145.659484 
L 267.965871 143.221618 
L 268.092714 154.303441 
L 268.219557 134.245072 
L 268.282979 136.128762 
L 268.3464 145.992074 
L 268.409822 143.66479 
L 268.473243 142.667442 
L 268.663507 184.335704 
L 268.726929 173.031874 
L 268.79035 188.103507 
L 268.853772 187.10616 
L 268.917193 168.931481 
L 268.980615 175.580743 
L 269.044036 193.977008 
L 269.107458 190.541374 
L 269.170879 180.678483 
L 269.234301 187.881921 
L 269.297722 195.306945 
L 269.487987 178.129614 
L 269.61483 183.670525 
L 269.741673 167.38038 
L 269.868516 195.085359 
L 269.931937 184.335704 
L 269.995358 166.604619 
L 270.05878 167.601966 
L 270.185623 194.088012 
L 270.249044 210.932543 
L 270.312466 202.399379 
L 270.375887 190.098201 
L 270.439309 195.971703 
L 270.50273 194.309599 
L 270.566152 183.338357 
L 270.629573 185.665642 
L 270.692995 195.195941 
L 270.819838 162.171636 
L 270.883259 168.931481 
L 270.946681 192.314482 
L 271.010102 189.98762 
L 271.136945 163.058402 
L 271.263788 180.235312 
L 271.32721 174.583397 
L 271.390631 178.683789 
L 271.517474 201.291029 
L 271.77116 163.279988 
L 271.834581 164.055749 
L 271.961424 196.63646 
L 272.088267 162.836394 
L 272.151689 172.14553 
L 272.341953 186.995156 
L 272.405375 190.541374 
L 272.532218 169.042485 
L 272.595639 172.14553 
L 272.722482 179.681136 
L 272.849325 173.25346 
L 272.912746 181.454244 
L 273.039589 166.161025 
L 273.103011 176.024337 
L 273.166432 173.807635 
L 273.229854 166.604619 
L 273.356697 182.784181 
L 273.420118 165.717854 
L 273.48354 167.04779 
L 273.673804 191.982314 
L 273.800647 150.203049 
L 273.864069 161.174289 
L 274.054333 191.428138 
L 274.308019 164.055749 
L 274.37144 172.921292 
L 274.498283 211.819098 
L 274.561705 210.932543 
L 274.625126 215.476108 
L 274.751969 238.969901 
L 274.878812 224.341651 
L 275.005655 242.294533 
L 275.19592 219.354704 
L 275.259341 221.681987 
L 275.322763 222.346956 
L 275.576449 204.61566 
L 275.703291 225.006619 
L 275.766713 216.141076 
L 275.893556 188.214511 
L 276.274085 233.761369 
L 276.400928 201.401822 
L 276.464349 202.399379 
L 276.527771 206.610565 
L 276.591192 203.729105 
L 276.654614 205.834804 
L 276.718035 205.391421 
L 276.844878 171.480351 
L 276.971721 201.734411 
L 277.098564 166.272029 
L 277.35225 192.758076 
L 277.479093 171.702359 
L 277.7962 204.504866 
L 277.923043 193.312251 
L 278.049886 210.710747 
L 278.176729 189.32244 
L 278.240151 202.177582 
L 278.366994 172.588702 
L 278.430415 183.005767 
L 278.557258 207.16453 
L 278.620679 205.059043 
L 278.747522 191.206553 
L 278.810944 199.85051 
L 278.874365 193.644418 
L 278.937787 180.567902 
L 279.06463 197.190847 
L 279.128051 186.441402 
L 279.254894 208.161877 
L 279.381737 190.430791 
L 279.445159 198.963955 
L 279.572002 189.98762 
L 279.635423 205.169835 
L 279.698845 204.94825 
L 279.762266 191.982314 
L 279.825688 192.314482 
L 279.889109 189.65503 
L 279.952531 177.464856 
L 280.015952 180.456898 
L 280.079373 187.10616 
L 280.142795 182.673177 
L 280.206216 184.446286 
L 280.269638 181.675831 
L 280.333059 165.496267 
L 280.396481 167.712548 
L 280.459902 184.003115 
L 280.523324 178.794793 
L 280.586745 176.467509 
L 280.650167 181.565248 
L 280.713588 173.697053 
L 280.77701 174.36181 
L 280.840431 176.245923 
L 280.903853 162.171636 
L 280.967274 165.93944 
L 281.030696 175.580743 
L 281.157539 143.775371 
L 281.284382 158.403833 
L 281.347803 155.411793 
L 281.474646 169.264071 
L 281.601489 150.97881 
L 281.728332 171.369769 
L 281.855175 150.424634 
L 281.982018 163.944745 
L 282.045439 160.509532 
L 282.172282 142.556438 
L 282.235704 156.963314 
L 282.299125 153.86027 
L 282.425968 129.479922 
L 282.552811 167.158372 
L 282.743076 130.255682 
L 282.806497 131.696201 
L 282.996761 149.205701 
L 283.123604 136.461352 
L 283.250447 145.54848 
L 283.313869 157.073897 
L 283.37729 155.522374 
L 283.504133 139.453393 
L 283.567555 152.751918 
L 283.630976 147.432593 
L 283.757819 110.640485 
L 283.948084 139.342811 
L 284.011505 132.471963 
L 284.074927 126.044286 
L 284.20177 147.986768 
L 284.328612 114.740878 
L 284.392034 117.400329 
L 284.455455 123.717002 
L 284.518877 115.073045 
L 284.64572 137.791289 
L 284.772563 111.859418 
L 285.026249 160.176942 
L 285.08967 156.963314 
L 285.216513 145.216313 
L 285.279935 146.656832 
L 285.343356 138.345464 
L 285.406778 142.113267 
L 285.470199 154.968198 
L 285.597042 133.8019 
L 285.723885 147.432593 
L 285.787306 135.464004 
L 285.850728 138.345464 
L 285.914149 144.440551 
L 285.977571 143.886375 
L 286.040992 141.891681 
L 286.104414 133.690896 
L 286.167835 138.456046 
L 286.231257 159.068591 
L 286.294678 154.857616 
L 286.3581 143.221618 
L 286.421521 152.087161 
L 286.484943 146.102655 
L 286.548364 132.139373 
L 286.675207 149.759876 
L 286.738629 140.007569 
L 286.80205 140.118573 
L 286.865472 143.997379 
L 286.928893 143.443204 
L 286.992315 139.121225 
L 287.119158 123.717002 
L 287.246 152.641336 
L 287.372843 124.492763 
L 287.499686 154.746612 
L 287.563108 144.662137 
L 287.626529 138.456046 
L 287.689951 139.121225 
L 287.816794 145.88107 
L 287.943637 129.812089 
L 288.07048 150.203049 
L 288.197323 121.611725 
L 288.324166 154.746612 
L 288.387587 135.020833 
L 288.451009 135.353422 
L 288.51443 158.403833 
L 288.577851 155.300789 
L 288.768116 131.474616 
L 288.831537 130.698855 
L 288.95838 147.211007 
L 289.021802 138.677632 
L 289.148645 152.530332 
L 289.275488 138.123879 
L 289.402331 151.089814 
L 289.465752 148.09735 
L 289.529174 153.19509 
L 289.592595 151.200395 
L 289.656017 140.118573 
L 289.719438 140.672748 
L 289.846281 153.306093 
L 290.036545 135.464004 
L 290.099967 124.049592 
L 290.163388 124.492763 
L 290.353653 145.659484 
L 290.417074 151.421981 
L 290.480496 150.314053 
L 290.543917 150.092467 
L 290.607339 156.187553 
L 290.734182 131.696201 
L 290.861025 151.865575 
L 290.987868 138.899639 
L 291.051289 140.229154 
L 291.114711 142.889029 
L 291.241554 158.071244 
L 291.368397 130.144679 
L 291.431818 132.028791 
L 291.622082 161.95005 
L 291.748925 117.400329 
L 291.812347 126.487457 
L 291.875768 137.458699 
L 292.002611 121.722308 
L 292.129454 161.728465 
L 292.256297 106.540092 
L 292.446562 133.13672 
L 292.509983 143.3322 
L 292.636826 115.848806 
L 292.700248 124.160596 
L 292.763669 123.384834 
L 292.827091 109.421552 
L 292.890512 113.521522 
L 293.017355 144.772719 
L 293.080776 135.907176 
L 293.207619 124.382182 
L 293.334462 130.477268 
L 293.397884 128.814742 
L 293.524727 135.353422 
L 293.588148 133.8019 
L 293.65157 136.572356 
L 293.778413 123.162827 
L 293.905256 143.3322 
L 293.968677 136.904523 
L 294.032099 137.902293 
L 294.09552 138.345464 
L 294.158942 135.796594 
L 294.285785 151.311399 
L 294.412627 122.276483 
L 294.476049 130.255682 
L 294.53947 127.263219 
L 294.602892 123.828006 
L 294.666313 131.917787 
L 294.729735 130.809436 
L 294.793156 121.943894 
L 294.856578 124.492763 
L 294.919999 131.585197 
L 294.983421 131.25303 
L 295.046842 128.814742 
L 295.110264 131.806783 
L 295.237107 115.848806 
L 295.300528 121.279136 
L 295.36395 137.569703 
L 295.427371 131.806783 
L 295.490793 112.967769 
L 295.554214 122.054898 
L 295.617636 143.3322 
L 295.681057 141.337506 
L 295.8079 104.323812 
L 295.871321 109.421552 
L 295.934743 111.748414 
L 295.998164 107.315853 
L 296.125007 127.152638 
L 296.25185 98.893483 
L 296.378693 127.817395 
L 296.442115 120.724961 
L 296.632379 104.877565 
L 296.759222 116.957158 
L 296.822644 102.218114 
L 296.886065 102.882871 
L 296.949487 120.946546 
L 297.012908 117.511333 
L 297.203172 107.87003 
L 297.266594 106.540092 
L 297.330015 113.078351 
L 297.456858 90.02794 
L 297.583701 114.85146 
L 297.710544 84.154438 
L 297.773966 91.579462 
L 297.900809 110.307895 
L 298.091073 90.471112 
L 298.217916 98.671897 
L 298.408181 82.935506 
L 298.725288 100.555587 
L 298.852131 75.621064 
L 298.915552 78.835113 
L 298.978974 80.275632 
L 299.105817 77.28359 
L 299.169238 80.940811 
L 299.296081 99.89083 
L 299.422924 70.634328 
L 299.549767 91.91163 
L 299.67661 65.203999 
L 299.740032 67.974876 
L 299.803453 77.062004 
L 299.866875 74.069963 
L 299.930296 65.426006 
L 299.993718 70.745332 
L 300.057139 72.961612 
L 300.12056 61.214609 
L 300.183982 68.196462 
L 300.310825 95.236262 
L 300.501089 58.33315 
L 300.564511 53.568 
L 300.691354 95.679855 
L 300.818197 62.101375 
L 300.881618 63.209304 
L 300.94504 60.88202 
L 301.008461 66.201767 
L 301.071883 83.267673 
L 301.135304 220.684641 
L 301.198726 213.370409 
L 301.325569 194.531184 
L 301.38899 194.42018 
L 301.452412 185.111465 
L 301.579254 206.832151 
L 301.706097 190.209205 
L 301.769519 205.169835 
L 301.83294 196.747464 
L 302.023205 183.892533 
L 302.086626 185.887227 
L 302.213469 202.842551 
L 302.276891 195.195941 
L 302.340312 197.523225 
L 302.403734 194.75277 
L 302.467155 180.456898 
L 302.530577 181.897417 
L 302.593998 196.96905 
L 302.65742 192.092896 
L 302.720841 182.895185 
L 302.847684 194.641766 
L 302.911106 184.114119 
L 302.974527 191.317134 
L 303.037948 205.7238 
L 303.10137 204.283281 
L 303.164791 196.96905 
L 303.228213 201.069443 
L 303.291634 204.94825 
L 303.418477 188.546679 
L 303.481899 197.412432 
L 303.54532 197.301639 
L 303.608742 198.077401 
L 303.735585 214.146171 
L 303.989271 169.92925 
L 304.116114 198.963955 
L 304.179535 194.309599 
L 304.306378 183.338357 
L 304.433221 192.092896 
L 304.560064 160.8417 
L 304.623485 163.834163 
L 304.686907 165.717854 
L 304.81375 200.847856 
L 304.877171 193.755422 
L 304.940593 178.462203 
L 305.004014 182.230006 
L 305.194279 203.618313 
L 305.447965 172.699706 
L 305.511386 165.828857 
L 305.828493 187.217164 
L 306.082179 164.609503 
L 306.145601 167.490962 
L 306.272444 183.116771 
L 306.335865 175.248576 
L 306.399287 178.240618 
L 306.462708 184.2247 
L 306.589551 172.699706 
L 306.652973 176.910681 
L 306.716394 173.475467 
L 306.843237 159.290177 
L 307.160345 184.003115 
L 307.287187 168.377728 
L 307.41403 177.686442 
L 307.477452 175.691747 
L 307.604295 152.308747 
L 307.667716 154.081855 
L 307.731138 160.176942 
L 307.794559 159.401181 
L 307.857981 157.073897 
L 307.921402 157.960662 
L 307.984824 158.071244 
L 308.048245 154.303441 
L 308.175088 162.28264 
L 308.301931 133.912482 
L 308.365353 138.012875 
L 308.555617 147.432593 
L 308.619039 149.981463 
L 308.745881 138.012875 
L 308.809303 131.474616 
L 308.872724 134.355654 
L 309.12641 152.751918 
L 309.189832 157.184901 
L 309.253253 184.446286 
L 309.316675 171.812941 
L 309.443518 189.766034 
L 309.570361 163.168984 
L 309.697204 193.977008 
L 309.760625 185.776223 
L 309.824047 189.98762 
L 309.887468 196.63646 
L 310.141154 175.359158 
L 310.204575 177.353852 
L 310.267997 176.134919 
L 310.331418 171.812941 
L 310.458261 187.327746 
L 310.585104 168.488309 
L 310.648526 169.818246 
L 310.711947 175.913333 
L 310.83879 204.61566 
L 310.965633 183.116771 
L 311.029055 196.304293 
L 311.092476 195.085359 
L 311.219319 177.686442 
L 311.282741 187.881921 
L 311.409584 160.620114 
L 311.473005 167.38038 
L 311.536427 184.446286 
L 311.599848 177.464856 
L 311.726691 150.314053 
L 311.853534 165.385263 
L 311.916955 164.942092 
L 311.980377 164.055749 
L 312.10722 181.011073 
L 312.424327 148.42994 
L 312.55117 175.802329 
L 312.678013 142.556438 
L 312.741435 145.992074 
L 312.931699 161.174289 
L 312.99512 165.717854 
L 313.121963 144.883723 
L 313.248806 157.295483 
L 313.439071 141.226502 
L 313.502492 146.324242 
L 313.565914 142.667442 
L 313.629335 138.012875 
L 313.756178 147.432593 
L 313.8196 142.113267 
L 313.946443 153.970851 
L 314.073286 134.245072 
L 314.26355 163.279988 
L 314.390393 128.814742 
L 314.453814 142.445857 
L 314.517236 161.839046 
L 314.580657 161.395875 
L 314.834343 136.239766 
L 314.897765 137.569703 
L 315.088029 167.38038 
L 315.151451 164.720507 
L 315.341715 179.902722 
L 315.468558 167.490962 
L 315.595401 185.997809 
L 315.785666 161.174289 
L 315.849087 166.161025 
L 315.912508 164.609503 
L 316.039351 153.749266 
L 316.229616 159.290177 
L 316.293037 170.372422 
L 316.356459 165.607271 
L 316.483302 141.559092 
L 316.736988 166.936786 
L 316.863831 182.008421 
L 316.990674 152.973504 
L 317.054095 155.190206 
L 317.117517 154.081855 
L 317.180938 148.42994 
L 317.24436 152.862922 
L 317.307781 149.205701 
L 317.498045 175.026568 
L 317.561467 185.887227 
L 317.68831 152.087161 
L 317.941996 189.100855 
L 318.068839 172.921292 
L 318.322525 211.819098 
L 318.385946 219.908879 
L 318.449368 215.365315 
L 318.512789 212.26227 
L 318.639632 222.457749 
L 318.703054 208.051084 
L 318.766475 208.716052 
L 318.829896 224.674029 
L 318.893318 219.354704 
L 318.956739 200.404474 
L 319.020161 209.159224 
L 319.147004 237.086 
L 319.210425 232.431431 
L 319.337268 214.146171 
L 319.40069 229.107011 
L 319.464111 224.674029 
L 319.527533 207.718705 
L 319.590954 218.578942 
L 319.654376 225.44979 
L 319.717797 217.470802 
L 319.84464 244.289227 
L 319.971483 214.035378 
L 320.098326 228.442043 
L 320.161748 226.89052 
L 320.28859 248.832792 
L 320.478855 220.573848 
L 320.542276 208.937638 
L 320.669119 229.439391 
L 320.922805 193.977008 
L 320.986227 201.955997 
L 321.049648 219.022325 
L 321.176491 200.293681 
L 321.239913 221.127812 
L 321.303334 219.354704 
L 321.366756 215.697694 
L 321.430177 221.571195 
L 321.55702 206.832151 
L 321.620441 226.89052 
L 321.683863 219.798086 
L 321.747284 201.845204 
L 321.810706 213.592207 
L 322.064392 239.856455 
L 322.191235 230.104359 
L 322.318078 243.291879 
L 322.444921 219.5765 
L 322.508342 224.341651 
L 322.571764 236.864414 
L 322.635185 235.423684 
L 322.698607 212.483855 
L 322.762028 216.251869 
L 322.82545 244.843402 
L 322.888871 243.735052 
L 323.015714 217.360009 
L 323.142557 255.149675 
L 323.332821 223.011714 
L 323.396243 229.882562 
L 323.523086 238.969901 
L 323.776772 215.697694 
L 323.967036 258.917478 
L 324.093879 224.895826 
L 324.157301 230.54753 
L 324.284144 191.649724 
L 324.347565 176.245923 
L 324.410987 179.79214 
L 324.537829 214.811139 
L 324.664672 177.686442 
L 324.791515 210.932543 
L 324.918358 177.353852 
L 324.98178 179.12696 
L 325.045201 186.330399 
L 325.108623 181.011073 
L 325.235466 197.966608 
L 325.362309 178.019031 
L 325.42573 200.404474 
L 325.489152 175.913333 
L 325.552573 177.464856 
L 325.615995 189.211859 
L 325.679416 183.781529 
L 325.742838 170.039832 
L 325.806259 173.586049 
L 325.869681 178.351199 
L 325.933102 166.715201 
L 325.996523 168.931481 
L 326.059945 186.551984 
L 326.123366 179.016379 
L 326.186788 166.161025 
L 326.250209 174.251228 
L 326.313631 176.356505 
L 326.377052 171.369769 
L 326.503895 183.448939 
L 326.69416 172.921292 
L 326.821003 199.739717 
L 326.947846 170.926597 
L 327.011267 191.095549 
L 327.074689 185.554638 
L 327.13811 169.153488 
L 327.201532 181.232659 
L 327.264953 188.768265 
L 327.328375 183.227353 
L 327.391796 185.333052 
L 327.645482 163.834163 
L 327.708903 164.720507 
L 327.835746 184.668294 
L 327.962589 161.174289 
L 328.089432 196.082707 
L 328.216275 169.818246 
L 328.279697 173.586049 
L 328.40654 191.206553 
L 328.533383 171.480351 
L 328.660226 199.407127 
L 328.787068 165.163678 
L 328.913911 190.984967 
L 328.977333 178.573207 
L 329.040754 182.230006 
L 329.104176 202.620965 
L 329.167597 199.296334 
L 329.29444 172.699706 
L 329.357862 172.810288 
L 329.484705 189.876616 
L 329.548126 186.884574 
L 329.611548 176.024337 
L 329.738391 188.657682 
L 329.801812 176.024337 
L 329.865234 177.686442 
L 329.928655 186.662988 
L 329.992077 183.448939 
L 330.055498 186.108813 
L 330.11892 193.644418 
L 330.245762 170.039832 
L 330.309184 175.580743 
L 330.436027 190.873963 
L 330.626291 181.675831 
L 330.689713 161.395875 
L 330.753134 162.171636 
L 330.943399 187.10616 
L 331.00682 194.863352 
L 331.070242 192.758076 
L 331.197085 201.734411 
L 331.323928 170.261418 
L 331.450771 189.433444 
L 331.514192 186.884574 
L 331.641035 175.913333 
L 331.704456 178.351199 
L 331.831299 199.407127 
L 331.958142 165.717854 
L 332.021564 169.153488 
L 332.211828 207.16453 
L 332.338671 151.311399 
L 332.465514 182.451592 
L 332.592357 159.622767 
L 332.7192 190.209205 
L 332.846043 142.999611 
L 333.036308 165.496267 
L 333.099729 174.6944 
L 333.226572 138.23446 
L 333.289993 142.556438 
L 333.416836 121.833312 
L 333.480258 127.484805 
L 333.607101 179.348546 
L 333.670522 157.738654 
L 333.733944 155.522374 
L 333.924208 173.807635 
L 334.241316 182.562596 
L 334.368159 171.923945 
L 334.495002 200.293681 
L 334.558423 194.974356 
L 334.621844 194.531184 
L 334.87553 216.473455 
L 335.002373 186.441402 
L 335.129216 207.053737 
L 335.192638 201.069443 
L 335.319481 211.708094 
L 335.382902 201.734411 
L 335.446324 206.610565 
L 335.509745 216.584248 
L 335.573167 215.586901 
L 335.636588 212.040684 
L 335.70001 215.032725 
L 335.826853 203.285934 
L 335.953696 236.310238 
L 336.017117 227.001313 
L 336.080538 209.270228 
L 336.14396 222.346956 
L 336.270803 245.951543 
L 336.397646 219.354704 
L 336.524489 233.872162 
L 336.58791 223.344303 
L 336.714753 254.373914 
L 336.778175 240.74301 
L 336.841596 222.790128 
L 336.968439 257.476748 
L 337.031861 245.951543 
L 337.222125 227.222899 
L 337.348968 250.6059 
L 337.412389 239.191487 
L 337.539232 272.215792 
L 337.602654 262.352902 
L 337.666075 255.814433 
L 337.729497 266.009912 
L 337.792918 256.700987 
L 337.85634 259.804033 
L 337.919761 278.310879 
L 337.983183 264.458389 
L 338.046604 247.059683 
L 338.173447 283.630416 
L 338.30029 245.397367 
L 338.363712 252.157422 
L 338.490555 274.986459 
L 338.617398 253.487359 
L 338.680819 257.033576 
L 338.807662 276.205392 
L 338.934505 260.579793 
L 339.061348 261.577141 
L 339.315034 280.970753 
L 339.441877 263.128664 
L 339.56872 273.324143 
L 339.632141 272.659175 
L 339.695563 271.329237 
L 339.758984 273.21335 
L 339.822406 284.406177 
L 339.885827 283.741208 
L 340.01267 256.700987 
L 340.139513 286.622457 
L 340.266356 255.371261 
L 340.329777 262.352902 
L 340.393199 265.899119 
L 340.520042 256.922784 
L 340.646885 273.656522 
L 340.710306 262.242109 
L 340.837149 295.488 
L 340.900571 285.957489 
L 341.154257 244.178434 
L 341.2811 287.509011 
L 341.407943 256.922784 
L 341.471364 263.35025 
L 341.534786 255.814433 
L 341.598207 261.133969 
L 341.661629 285.292731 
L 341.851893 191.982314 
L 341.978736 198.631365 
L 342.042157 187.770917 
L 342.169 209.602606 
L 342.295843 189.433444 
L 342.359265 205.280628 
L 342.422686 194.42018 
L 342.612951 179.348546 
L 342.676372 182.451592 
L 342.803215 199.628713 
L 342.866637 189.32244 
L 342.930058 191.982314 
L 342.99348 194.309599 
L 343.120323 182.119424 
L 343.183744 191.095549 
L 343.247165 187.770917 
L 343.310587 184.2247 
L 343.374008 193.866005 
L 343.43743 192.53649 
L 343.500851 183.338357 
L 343.627694 203.064137 
L 343.691116 198.631365 
L 343.754537 195.085359 
L 343.88138 206.832151 
L 344.008223 188.546679 
L 344.071645 201.623618 
L 344.135066 197.412432 
L 344.198488 196.63646 
L 344.325331 221.460402 
L 344.579016 164.166331 
L 344.769281 212.816445 
L 344.896124 193.866005 
L 345.022967 212.483855 
L 345.14981 180.456898 
L 345.213231 183.227353 
L 345.276653 185.997809 
L 345.403496 215.919279 
L 345.530339 190.209205 
L 345.59376 198.853162 
L 345.784025 214.811139 
L 346.03771 188.103507 
L 346.101132 185.333052 
L 346.418239 219.354704 
L 346.608504 199.296334 
L 346.735347 186.551984 
L 346.86219 209.713399 
L 346.925611 203.618313 
L 346.989033 207.940291 
L 347.052454 218.246563 
L 347.115876 211.708094 
L 347.179297 205.7238 
L 347.30614 223.565889 
L 347.432983 198.298987 
L 347.496404 200.847856 
L 347.559826 194.198595 
L 347.623247 200.072095 
L 347.75009 228.33125 
L 347.876933 211.264922 
L 348.003776 217.692388 
L 348.067198 217.138424 
L 348.194041 202.399379 
L 348.320884 213.259616 
L 348.384305 213.03803 
L 348.447727 213.592207 
L 348.764834 235.423684 
L 348.891677 203.950691 
L 348.955098 209.602606 
L 349.01852 216.473455 
L 349.081941 213.03803 
L 349.145363 214.478761 
L 349.208784 219.465496 
L 349.399049 203.175141 
L 349.46247 205.169835 
L 349.525892 211.929891 
L 349.589313 211.597301 
L 349.652735 208.383674 
L 349.779578 227.444696 
L 349.906421 154.636031 
L 349.969842 173.586049 
L 350.033264 169.042485 
L 350.096685 145.216313 
L 350.160107 150.535638 
L 350.223528 169.818246 
L 350.28695 166.826205 
L 350.350371 164.277335 
L 350.477214 182.008421 
L 350.604057 159.622767 
L 350.667478 165.274682 
L 350.7309 164.498921 
L 350.921164 154.303441 
L 350.984586 157.960662 
L 351.048007 172.256112 
L 351.111429 161.617461 
L 351.17485 151.311399 
L 351.428536 197.190847 
L 351.745644 168.820899 
L 351.809065 172.699706 
L 351.872486 187.217164 
L 351.935908 178.240618 
L 351.999329 152.641336 
L 352.062751 159.622767 
L 352.126172 186.108813 
L 352.189594 180.789487 
L 352.316437 157.738654 
L 352.44328 176.024337 
L 352.570123 169.707242 
L 352.696966 204.172488 
L 352.760387 196.747464 
L 352.950652 150.092467 
L 353.014073 152.419328 
L 353.140916 180.567902 
L 353.267759 144.772719 
L 353.33118 156.630725 
L 353.394602 164.720507 
L 353.458023 153.19509 
L 353.521445 156.07655 
L 353.584866 175.913333 
L 353.648288 170.039832 
L 353.775131 145.659484 
L 353.901974 176.024337 
L 354.028817 160.731118 
L 354.15566 172.47812 
L 354.219081 171.702359 
L 354.282503 184.668294 
L 354.345924 182.119424 
L 354.409346 173.031874 
L 354.536189 193.644418 
L 354.59961 173.031874 
L 354.663031 175.691747 
L 354.853296 208.051084 
L 354.980139 173.586049 
L 355.04356 183.670525 
L 355.170403 201.955997 
L 355.233825 203.839898 
L 355.297246 203.50752 
L 355.424089 186.995156 
L 355.550932 203.175141 
L 355.804618 255.038882 
L 355.931461 284.849349 
L 356.058304 273.434936 
L 356.185147 293.27172 
L 356.248568 288.728155 
L 356.375411 271.107652 
L 356.438833 272.548382 
L 356.565676 268.004817 
L 356.692519 271.440241 
L 356.75594 267.450642 
L 356.882783 287.398218 
L 356.946205 281.413925 
L 357.073048 250.93849 
L 357.453577 294.490652 
L 357.580419 259.804033 
L 357.643841 265.123358 
L 357.707262 270.664481 
L 357.770684 264.901772 
L 357.834105 265.788326 
L 357.897527 267.893813 
L 357.960948 133.46931 
L 358.02437 134.466658 
L 358.151213 168.377728 
L 358.278056 133.46931 
L 358.46832 150.424634 
L 358.531742 159.512185 
L 358.658585 146.54625 
L 358.785428 170.926597 
L 358.912271 163.723159 
L 359.229378 188.436097 
L 359.356221 169.485657 
L 359.419642 188.657682 
L 359.483064 182.119424 
L 359.546485 162.393223 
L 359.609907 175.580743 
L 359.73675 195.639113 
L 359.927014 180.124308 
L 359.990436 191.982314 
L 360.053857 191.539142 
L 360.117279 176.356505 
L 360.1807 180.678483 
L 360.434386 210.489161 
L 360.561229 187.881921 
L 360.814915 218.13577 
L 360.878336 217.581595 
L 361.005179 198.963955 
L 361.068601 197.079843 
L 361.195444 179.45955 
L 361.258865 180.567902 
L 361.575973 119.616609 
L 361.639394 136.461352 
L 361.702816 129.923093 
L 361.766237 131.031444 
L 361.829658 144.883723 
L 361.89308 143.3322 
L 361.956501 147.654178 
L 362.210187 189.211859 
L 362.33703 162.614808 
L 362.590716 196.858257 
L 362.654138 198.077401 
L 362.717559 190.984967 
L 362.780981 194.088012 
L 362.844402 206.388768 
L 362.907824 205.7238 
L 362.971245 197.190847 
L 363.034667 197.412432 
L 363.224931 208.826845 
L 363.351774 186.884574 
L 363.478617 207.386115 
L 363.542038 183.670525 
L 363.60546 184.2247 
L 363.732303 226.779727 
L 363.795724 217.692388 
L 363.922567 196.193289 
L 364.112832 222.457749 
L 364.176253 220.130465 
L 364.303096 211.819098 
L 364.429939 231.544878 
L 364.493361 242.516119 
L 364.620204 205.059043 
L 364.683625 206.499561 
L 364.747046 217.803181 
L 364.937311 168.156142 
L 365.000732 176.134919 
L 365.127575 207.16453 
L 365.190997 199.51792 
L 365.254418 186.551984 
L 365.31784 189.433444 
L 365.381261 198.520573 
L 365.508104 174.36181 
L 365.571526 176.134919 
L 365.634947 183.227353 
L 365.698369 178.794793 
L 365.825212 192.758076 
L 365.952055 177.797445 
L 366.015476 202.510172 
L 366.078898 184.003115 
L 366.142319 184.003115 
L 366.20574 193.977008 
L 366.269162 191.982314 
L 366.332583 181.786835 
L 366.396005 182.008421 
L 366.459426 181.011073 
L 366.522848 172.921292 
L 366.649691 192.758076 
L 366.776534 167.823552 
L 366.903377 181.122077 
L 366.966798 170.039832 
L 367.093641 189.100855 
L 367.157063 186.441402 
L 367.283906 169.153488 
L 367.410749 190.098201 
L 367.537592 165.93944 
L 367.601013 185.222048 
L 367.664434 183.116771 
L 367.727856 175.691747 
L 367.791277 186.551984 
L 367.854699 186.441402 
L 367.91812 182.451592 
L 367.981542 190.430791 
L 368.235228 158.736423 
L 368.298649 161.617461 
L 368.425492 187.10616 
L 368.552335 162.28264 
L 368.679178 196.96905 
L 368.7426 186.219395 
L 368.869443 169.264071 
L 368.996285 190.209205 
L 369.123128 163.390569 
L 369.249971 184.88988 
L 369.376814 156.409139 
L 369.503657 180.124308 
L 369.567079 169.485657 
L 369.6305 174.140224 
L 369.693922 192.647072 
L 369.757343 187.992503 
L 369.947608 163.612155 
L 370.011029 162.725812 
L 370.074451 174.583397 
L 370.137872 173.918639 
L 370.201294 161.063285 
L 370.328137 184.335704 
L 370.391558 174.140224 
L 370.454979 175.802329 
L 370.518401 186.77357 
L 370.581822 183.116771 
L 370.645244 181.675831 
L 370.708665 189.211859 
L 370.835508 171.702359 
L 370.89893 178.019031 
L 371.025773 188.436097 
L 371.216037 171.702359 
L 371.279459 158.182248 
L 371.34288 162.836394 
L 371.533145 182.673177 
L 371.723409 193.312251 
L 371.786831 195.195941 
L 371.913673 169.485657 
L 372.040516 186.662988 
L 372.230781 176.910681 
L 372.294202 179.237964 
L 372.421045 194.75277 
L 372.547888 172.47812 
L 372.61131 173.364464 
L 372.801574 202.288586 
L 372.928417 158.625419 
L 372.991839 168.931481 
L 373.05526 182.895185 
L 373.118682 175.691747 
L 373.182103 176.467509 
L 373.308946 206.610565 
L 373.435789 160.8417 
L 373.689475 193.644418 
L 373.816318 172.034526 
L 373.879739 176.467509 
L 374.006582 162.947398 
L 374.070004 166.936786 
L 374.133425 173.807635 
L 374.32369 95.457848 
L 374.513954 108.423783 
L 374.640797 111.970422 
L 374.704219 110.86207 
L 374.76764 109.310548 
L 374.831061 112.745762 
L 374.957904 97.120374 
L 375.084747 111.637832 
L 375.21159 103.991222 
L 375.275012 103.548051 
L 375.338433 98.450311 
L 375.465276 120.835965 
L 375.592119 94.79309 
L 375.718962 106.318507 
L 375.972648 87.47907 
L 376.03607 91.801049 
L 376.099491 98.006717 
L 376.162913 94.238914 
L 376.226334 91.801049 
L 376.289755 93.795743 
L 376.416598 77.172586 
L 376.543441 99.89083 
L 376.606863 94.571504 
L 376.670284 82.491912 
L 376.733706 90.803701 
L 376.860549 110.086309 
L 376.987392 70.966918 
L 377.050813 72.850608 
L 377.114235 77.062004 
L 377.177656 73.183198 
L 377.304499 101.220767 
L 377.367921 88.698003 
L 377.431342 73.737373 
L 377.558185 106.429088 
L 377.621606 96.787784 
L 377.811871 83.267673 
L 377.938714 103.769636 
L 378.065557 91.025287 
L 378.128978 110.751066 
L 378.1924 110.196891 
L 378.255821 102.661286 
L 378.319243 106.540092 
L 378.382664 105.985917 
L 378.509507 124.603767 
L 378.63635 99.447658 
L 378.763193 133.580314 
L 378.890036 106.650674 
L 379.016879 135.131414 
L 379.0803 133.13672 
L 379.270565 121.943894 
L 379.397408 135.131414 
L 379.460829 129.368918 
L 379.714515 143.110615 
L 379.841358 146.989421 
L 379.90478 150.64622 
L 380.031623 122.387487 
L 380.095044 130.698855 
L 380.158466 137.680285 
L 380.221887 136.682937 
L 380.285309 137.458699 
L 380.475573 163.501573 
L 380.602416 139.785983 
L 380.729259 167.823552 
L 380.856102 134.466658 
L 380.982945 150.64622 
L 381.109788 140.118573 
L 381.236631 155.522374 
L 381.300052 144.218965 
L 381.363474 152.973504 
L 381.426895 177.132266 
L 381.490317 169.596661 
L 381.553738 157.517068 
L 381.61716 163.279988 
L 381.744003 147.875764 
L 381.870846 182.34101 
L 382.124531 144.994727 
L 382.314796 208.494467 
L 382.378217 204.394073 
L 382.50506 179.12696 
L 382.568482 183.892533 
L 382.631903 176.910681 
L 382.695325 180.235312 
L 382.758746 186.441402 
L 382.822168 177.797445 
L 382.885589 180.346316 
L 382.949011 194.531184 
L 383.012432 189.65503 
L 383.202697 171.702359 
L 383.266118 172.921292 
L 383.392961 189.544026 
L 383.519804 176.578091 
L 383.583225 178.905375 
L 383.710068 164.166331 
L 383.836911 178.462203 
L 383.900333 173.475467 
L 383.963754 180.124308 
L 384.027176 179.681136 
L 384.090597 172.14553 
L 384.21744 197.855604 
L 384.280862 192.758076 
L 384.344283 185.444056 
L 384.471126 202.620965 
L 384.597969 181.232659 
L 384.661391 192.53649 
L 384.724812 190.873963 
L 384.788233 194.863352 
L 384.915076 218.800739 
L 385.168762 169.707242 
L 385.295605 204.61566 
L 385.359027 200.404474 
L 385.422448 185.554638 
L 385.48587 189.98762 
L 385.549291 205.613007 
L 385.612713 202.399379 
L 385.739556 171.369769 
L 385.802977 175.470162 
L 385.866399 179.237964 
L 385.993242 215.697694 
L 386.056663 208.051084 
L 386.120085 193.422833 
L 386.183506 198.963955 
L 386.37377 221.017019 
L 386.690878 192.758076 
L 387.007985 218.800739 
L 387.261671 201.734411 
L 387.325093 198.40978 
L 387.451936 213.924585 
L 387.515357 209.824192 
L 387.578779 211.486508 
L 387.6422 218.246563 
L 387.705621 215.032725 
L 387.769043 211.597301 
L 387.832464 215.586901 
L 387.959307 205.7238 
L 388.022729 209.381021 
L 388.08615 212.151477 
L 388.149572 206.942944 
L 388.276415 227.222899 
L 388.339836 227.001313 
L 388.466679 214.589553 
L 388.593522 220.795434 
L 388.656944 219.133118 
L 388.783787 197.744812 
L 388.847208 198.631365 
L 389.100894 219.465496 
L 389.164315 218.578942 
L 389.227737 215.476108 
L 389.35458 231.323292 
L 389.481423 203.396727 
L 389.544844 209.934986 
L 389.608266 215.697694 
L 389.671687 212.594648 
L 389.735109 212.816445 
L 389.79853 216.251869 
L 389.988795 206.610565 
L 390.369324 234.869509 
L 390.496167 170.039832 
L 390.559588 186.330399 
L 390.623009 182.895185 
L 390.686431 159.955356 
L 390.749852 161.063285 
L 390.813274 178.794793 
L 390.876695 178.573207 
L 390.940117 176.467509 
L 391.06696 183.448939 
L 391.320646 165.496267 
L 391.447489 179.681136 
L 391.51091 173.807635 
L 391.637753 195.306945 
L 391.701175 184.003115 
L 391.764596 177.686442 
L 392.018282 215.143518 
L 392.145125 181.675831 
L 392.208546 187.10616 
L 392.271968 189.211859 
L 392.335389 178.683789 
L 392.398811 182.230006 
L 392.462232 193.755422 
L 392.525654 185.554638 
L 392.589075 170.483003 
L 392.652497 180.235312 
L 392.715918 200.515267 
L 392.77934 194.863352 
L 392.906183 170.483003 
L 393.096447 187.881921 
L 393.159869 185.222048 
L 393.286712 208.494467 
L 393.350133 200.626271 
L 393.540397 156.07655 
L 393.603819 151.200395 
L 393.66724 153.416676 
L 393.730662 152.530332 
L 393.920926 103.658632 
L 393.984348 107.87003 
L 394.111191 104.212809 
L 394.174612 114.740878 
L 394.238034 111.970422 
L 394.364877 97.00937 
L 394.49172 122.054898 
L 394.555141 117.954504 
L 394.618563 115.405635 
L 394.93567 176.024337 
L 394.999091 164.387917 
L 395.125934 186.108813 
L 395.252777 167.934134 
L 395.443042 213.703 
L 395.506463 202.177582 
L 395.569885 188.103507 
L 395.760149 224.674029 
L 396.013835 202.953344 
L 396.2041 230.769116 
L 396.394364 222.900921 
L 396.521207 229.993566 
L 396.64805 215.586901 
L 396.774893 235.756063 
L 396.838314 231.323292 
L 396.965157 212.594648 
L 397.092 227.112106 
L 397.218843 216.584248 
L 397.472529 236.088653 
L 397.535951 233.539783 
L 397.662794 208.60526 
L 397.789636 229.660976 
L 397.853058 227.777075 
L 397.916479 230.54753 
L 398.043322 253.043977 
L 398.170165 219.908879 
L 398.233587 224.341651 
L 398.297008 223.898478 
L 398.36043 215.254522 
L 398.423851 218.024978 
L 398.487273 219.5765 
L 398.487273 219.5765 
" clip-path="url(#p394254d224)" style="fill: none; stroke: #1f77b4; stroke-width: 1.5; stroke-linecap: square"/>
   </g>
   <g id="patch_3">
    <path d="M 57.6 307.584 
L 57.6 41.472 
" style="fill: none; stroke: #000000; stroke-width: 0.8; stroke-linejoin: miter; stroke-linecap: square"/>
   </g>
   <g id="patch_4">
    <path d="M 414.72 307.584 
L 414.72 41.472 
" style="fill: none; stroke: #000000; stroke-width: 0.8; stroke-linejoin: miter; stroke-linecap: square"/>
   </g>
   <g id="patch_5">
    <path d="M 57.6 307.584 
L 414.72 307.584 
" style="fill: none; stroke: #000000; stroke-width: 0.8; stroke-linejoin: miter; stroke-linecap: square"/>
   </g>
   <g id="patch_6">
    <path d="M 57.6 41.472 
L 414.72 41.472 
" style="fill: none; stroke: #000000; stroke-width: 0.8; stroke-linejoin: miter; stroke-linecap: square"/>
   </g>
   <g id="legend_1">
    <g id="patch_7">
     <path d="M 354.074688 64.150125 
L 407.72 64.150125 
Q 409.72 64.150125 409.72 62.150125 
L 409.72 48.472 
Q 409.72 46.472 407.72 46.472 
L 354.074688 46.472 
Q 352.074688 46.472 352.074688 48.472 
L 352.074688 62.150125 
Q 352.074688 64.150125 354.074688 64.150125 
z
" style="fill: #ffffff; opacity: 0.8; stroke: #cccccc; stroke-linejoin: miter"/>
    </g>
    <g id="line2d_14">
     <path d="M 356.074688 54.570438 
L 366.074688 54.570438 
L 376.074688 54.570438 
" style="fill: none; stroke: #1f77b4; stroke-width: 1.5; stroke-linecap: square"/>
    </g>
    <g id="text_13">
     <!-- set1 -->
     <g transform="translate(384.074688 58.070438)scale(0.1 -0.1)">
      <defs>
       <path id="DejaVuSans-73" d="M 2834 3397 
L 2834 2853 
Q 2591 2978 2328 3040 
Q 2066 3103 1784 3103 
Q 1356 3103 1142 2972 
Q 928 2841 928 2578 
Q 928 2378 1081 2264 
Q 1234 2150 1697 2047 
L 1894 2003 
Q 2506 1872 2764 1633 
Q 3022 1394 3022 966 
Q 3022 478 2636 193 
Q 2250 -91 1575 -91 
Q 1294 -91 989 -36 
Q 684 19 347 128 
L 347 722 
Q 666 556 975 473 
Q 1284 391 1588 391 
Q 1994 391 2212 530 
Q 2431 669 2431 922 
Q 2431 1156 2273 1281 
Q 2116 1406 1581 1522 
L 1381 1569 
Q 847 1681 609 1914 
Q 372 2147 372 2553 
Q 372 3047 722 3315 
Q 1072 3584 1716 3584 
Q 2034 3584 2315 3537 
Q 2597 3491 2834 3397 
z
" transform="scale(0.015625)"/>
       <path id="DejaVuSans-65" d="M 3597 1894 
L 3597 1613 
L 953 1613 
Q 991 1019 1311 708 
Q 1631 397 2203 397 
Q 2534 397 2845 478 
Q 3156 559 3463 722 
L 3463 178 
Q 3153 47 2828 -22 
Q 2503 -91 2169 -91 
Q 1331 -91 842 396 
Q 353 884 353 1716 
Q 353 2575 817 3079 
Q 1281 3584 2069 3584 
Q 2775 3584 3186 3129 
Q 3597 2675 3597 1894 
z
M 3022 2063 
Q 3016 2534 2758 2815 
Q 2500 3097 2075 3097 
Q 1594 3097 1305 2825 
Q 1016 2553 972 2059 
L 3022 2063 
z
" transform="scale(0.015625)"/>
       <path id="DejaVuSans-74" d="M 1172 4494 
L 1172 3500 
L 2356 3500 
L 2356 3053 
L 1172 3053 
L 1172 1153 
Q 1172 725 1289 603 
Q 1406 481 1766 481 
L 2356 481 
L 2356 0 
L 1766 0 
Q 1100 0 847 248 
Q 594 497 594 1153 
L 594 3053 
L 172 3053 
L 172 3500 
L 594 3500 
L 594 4494 
L 1172 4494 
z
" transform="scale(0.015625)"/>
      </defs>
      <use xlink:href="#DejaVuSans-73"/>
      <use xlink:href="#DejaVuSans-65" x="52.099609"/>
      <use xlink:href="#DejaVuSans-74" x="113.623047"/>
      <use xlink:href="#DejaVuSans-31" x="152.832031"/>
     </g>
    </g>
   </g>
  </g>
 </g>
 <defs>
  <clipPath id="p394254d224">
   <rect x="57.6" y="41.472" width="357.12" height="266.112"/>
  </clipPath>
 </defs>
</svg>
