<?xml version="1.0" encoding="utf-8" standalone="no"?>
<!DOCTYPE svg PUBLIC "-//W3C//DTD SVG 1.1//EN"
  "http://www.w3.org/Graphics/SVG/1.1/DTD/svg11.dtd">
<svg xmlns:xlink="http://www.w3.org/1999/xlink" width="460.8pt" height="345.6pt" viewBox="0 0 460.8 345.6" xmlns="http://www.w3.org/2000/svg" version="1.1">
 <metadata>
  <rdf:RDF xmlns:dc="http://purl.org/dc/elements/1.1/" xmlns:cc="http://creativecommons.org/ns#" xmlns:rdf="http://www.w3.org/1999/02/22-rdf-syntax-ns#">
   <cc:Work>
    <dc:type rdf:resource="http://purl.org/dc/dcmitype/StillImage"/>
    <dc:date>2022-08-11T15:18:57.302886</dc:date>
    <dc:format>image/svg+xml</dc:format>
    <dc:creator>
     <cc:Agent>
      <dc:title>Matplotlib v3.5.2, https://matplotlib.org/</dc:title>
     </cc:Agent>
    </dc:creator>
   </cc:Work>
  </rdf:RDF>
 </metadata>
 <defs>
  <style type="text/css">*{stroke-linejoin: round; stroke-linecap: butt}</style>
 </defs>
 <g id="figure_1">
  <g id="patch_1">
   <path d="M 0 345.6 
L 460.8 345.6 
L 460.8 0 
L 0 0 
z
" style="fill: #ffffff"/>
  </g>
  <g id="axes_1">
   <g id="patch_2">
    <path d="M 57.6 307.584 
L 414.72 307.584 
L 414.72 41.472 
L 57.6 41.472 
z
" style="fill: #ffffff"/>
   </g>
   <g id="matplotlib.axis_1">
    <g id="xtick_1">
     <g id="line2d_1">
      <defs>
       <path id="mc6055a1ef5" d="M 0 0 
L 0 3.5 
" style="stroke: #000000; stroke-width: 0.8"/>
      </defs>
      <g>
       <use xlink:href="#mc6055a1ef5" x="73.832727" y="307.584" style="stroke: #000000; stroke-width: 0.8"/>
      </g>
     </g>
     <g id="text_1">
      <!-- 0 -->
      <g transform="translate(70.651477 322.182437)scale(0.1 -0.1)">
       <defs>
        <path id="DejaVuSans-30" d="M 2034 4250 
Q 1547 4250 1301 3770 
Q 1056 3291 1056 2328 
Q 1056 1369 1301 889 
Q 1547 409 2034 409 
Q 2525 409 2770 889 
Q 3016 1369 3016 2328 
Q 3016 3291 2770 3770 
Q 2525 4250 2034 4250 
z
M 2034 4750 
Q 2819 4750 3233 4129 
Q 3647 3509 3647 2328 
Q 3647 1150 3233 529 
Q 2819 -91 2034 -91 
Q 1250 -91 836 529 
Q 422 1150 422 2328 
Q 422 3509 836 4129 
Q 1250 4750 2034 4750 
z
" transform="scale(0.015625)"/>
       </defs>
       <use xlink:href="#DejaVuSans-30"/>
      </g>
     </g>
    </g>
    <g id="xtick_2">
     <g id="line2d_2">
      <g>
       <use xlink:href="#mc6055a1ef5" x="137.254205" y="307.584" style="stroke: #000000; stroke-width: 0.8"/>
      </g>
     </g>
     <g id="text_2">
      <!-- 1000 -->
      <g transform="translate(124.529205 322.182437)scale(0.1 -0.1)">
       <defs>
        <path id="DejaVuSans-31" d="M 794 531 
L 1825 531 
L 1825 4091 
L 703 3866 
L 703 4441 
L 1819 4666 
L 2450 4666 
L 2450 531 
L 3481 531 
L 3481 0 
L 794 0 
L 794 531 
z
" transform="scale(0.015625)"/>
       </defs>
       <use xlink:href="#DejaVuSans-31"/>
       <use xlink:href="#DejaVuSans-30" x="63.623047"/>
       <use xlink:href="#DejaVuSans-30" x="127.246094"/>
       <use xlink:href="#DejaVuSans-30" x="190.869141"/>
      </g>
     </g>
    </g>
    <g id="xtick_3">
     <g id="line2d_3">
      <g>
       <use xlink:href="#mc6055a1ef5" x="200.675683" y="307.584" style="stroke: #000000; stroke-width: 0.8"/>
      </g>
     </g>
     <g id="text_3">
      <!-- 2000 -->
      <g transform="translate(187.950683 322.182437)scale(0.1 -0.1)">
       <defs>
        <path id="DejaVuSans-32" d="M 1228 531 
L 3431 531 
L 3431 0 
L 469 0 
L 469 531 
Q 828 903 1448 1529 
Q 2069 2156 2228 2338 
Q 2531 2678 2651 2914 
Q 2772 3150 2772 3378 
Q 2772 3750 2511 3984 
Q 2250 4219 1831 4219 
Q 1534 4219 1204 4116 
Q 875 4013 500 3803 
L 500 4441 
Q 881 4594 1212 4672 
Q 1544 4750 1819 4750 
Q 2544 4750 2975 4387 
Q 3406 4025 3406 3419 
Q 3406 3131 3298 2873 
Q 3191 2616 2906 2266 
Q 2828 2175 2409 1742 
Q 1991 1309 1228 531 
z
" transform="scale(0.015625)"/>
       </defs>
       <use xlink:href="#DejaVuSans-32"/>
       <use xlink:href="#DejaVuSans-30" x="63.623047"/>
       <use xlink:href="#DejaVuSans-30" x="127.246094"/>
       <use xlink:href="#DejaVuSans-30" x="190.869141"/>
      </g>
     </g>
    </g>
    <g id="xtick_4">
     <g id="line2d_4">
      <g>
       <use xlink:href="#mc6055a1ef5" x="264.097161" y="307.584" style="stroke: #000000; stroke-width: 0.8"/>
      </g>
     </g>
     <g id="text_4">
      <!-- 3000 -->
      <g transform="translate(251.372161 322.182437)scale(0.1 -0.1)">
       <defs>
        <path id="DejaVuSans-33" d="M 2597 2516 
Q 3050 2419 3304 2112 
Q 3559 1806 3559 1356 
Q 3559 666 3084 287 
Q 2609 -91 1734 -91 
Q 1441 -91 1130 -33 
Q 819 25 488 141 
L 488 750 
Q 750 597 1062 519 
Q 1375 441 1716 441 
Q 2309 441 2620 675 
Q 2931 909 2931 1356 
Q 2931 1769 2642 2001 
Q 2353 2234 1838 2234 
L 1294 2234 
L 1294 2753 
L 1863 2753 
Q 2328 2753 2575 2939 
Q 2822 3125 2822 3475 
Q 2822 3834 2567 4026 
Q 2313 4219 1838 4219 
Q 1578 4219 1281 4162 
Q 984 4106 628 3988 
L 628 4550 
Q 988 4650 1302 4700 
Q 1616 4750 1894 4750 
Q 2613 4750 3031 4423 
Q 3450 4097 3450 3541 
Q 3450 3153 3228 2886 
Q 3006 2619 2597 2516 
z
" transform="scale(0.015625)"/>
       </defs>
       <use xlink:href="#DejaVuSans-33"/>
       <use xlink:href="#DejaVuSans-30" x="63.623047"/>
       <use xlink:href="#DejaVuSans-30" x="127.246094"/>
       <use xlink:href="#DejaVuSans-30" x="190.869141"/>
      </g>
     </g>
    </g>
    <g id="xtick_5">
     <g id="line2d_5">
      <g>
       <use xlink:href="#mc6055a1ef5" x="327.518639" y="307.584" style="stroke: #000000; stroke-width: 0.8"/>
      </g>
     </g>
     <g id="text_5">
      <!-- 4000 -->
      <g transform="translate(314.793639 322.182437)scale(0.1 -0.1)">
       <defs>
        <path id="DejaVuSans-34" d="M 2419 4116 
L 825 1625 
L 2419 1625 
L 2419 4116 
z
M 2253 4666 
L 3047 4666 
L 3047 1625 
L 3713 1625 
L 3713 1100 
L 3047 1100 
L 3047 0 
L 2419 0 
L 2419 1100 
L 313 1100 
L 313 1709 
L 2253 4666 
z
" transform="scale(0.015625)"/>
       </defs>
       <use xlink:href="#DejaVuSans-34"/>
       <use xlink:href="#DejaVuSans-30" x="63.623047"/>
       <use xlink:href="#DejaVuSans-30" x="127.246094"/>
       <use xlink:href="#DejaVuSans-30" x="190.869141"/>
      </g>
     </g>
    </g>
    <g id="xtick_6">
     <g id="line2d_6">
      <g>
       <use xlink:href="#mc6055a1ef5" x="390.940117" y="307.584" style="stroke: #000000; stroke-width: 0.8"/>
      </g>
     </g>
     <g id="text_6">
      <!-- 5000 -->
      <g transform="translate(378.215117 322.182437)scale(0.1 -0.1)">
       <defs>
        <path id="DejaVuSans-35" d="M 691 4666 
L 3169 4666 
L 3169 4134 
L 1269 4134 
L 1269 2991 
Q 1406 3038 1543 3061 
Q 1681 3084 1819 3084 
Q 2600 3084 3056 2656 
Q 3513 2228 3513 1497 
Q 3513 744 3044 326 
Q 2575 -91 1722 -91 
Q 1428 -91 1123 -41 
Q 819 9 494 109 
L 494 744 
Q 775 591 1075 516 
Q 1375 441 1709 441 
Q 2250 441 2565 725 
Q 2881 1009 2881 1497 
Q 2881 1984 2565 2268 
Q 2250 2553 1709 2553 
Q 1456 2553 1204 2497 
Q 953 2441 691 2322 
L 691 4666 
z
" transform="scale(0.015625)"/>
       </defs>
       <use xlink:href="#DejaVuSans-35"/>
       <use xlink:href="#DejaVuSans-30" x="63.623047"/>
       <use xlink:href="#DejaVuSans-30" x="127.246094"/>
       <use xlink:href="#DejaVuSans-30" x="190.869141"/>
      </g>
     </g>
    </g>
   </g>
   <g id="matplotlib.axis_2">
    <g id="ytick_1">
     <g id="line2d_7">
      <defs>
       <path id="m8b189e8f44" d="M 0 0 
L -3.5 0 
" style="stroke: #000000; stroke-width: 0.8"/>
      </defs>
      <g>
       <use xlink:href="#m8b189e8f44" x="57.6" y="275.135847" style="stroke: #000000; stroke-width: 0.8"/>
      </g>
     </g>
     <g id="text_7">
      <!-- 4100 -->
      <g transform="translate(25.15 278.935066)scale(0.1 -0.1)">
       <use xlink:href="#DejaVuSans-34"/>
       <use xlink:href="#DejaVuSans-31" x="63.623047"/>
       <use xlink:href="#DejaVuSans-30" x="127.246094"/>
       <use xlink:href="#DejaVuSans-30" x="190.869141"/>
      </g>
     </g>
    </g>
    <g id="ytick_2">
     <g id="line2d_8">
      <g>
       <use xlink:href="#m8b189e8f44" x="57.6" y="242.40427" style="stroke: #000000; stroke-width: 0.8"/>
      </g>
     </g>
     <g id="text_8">
      <!-- 4120 -->
      <g transform="translate(25.15 246.203489)scale(0.1 -0.1)">
       <use xlink:href="#DejaVuSans-34"/>
       <use xlink:href="#DejaVuSans-31" x="63.623047"/>
       <use xlink:href="#DejaVuSans-32" x="127.246094"/>
       <use xlink:href="#DejaVuSans-30" x="190.869141"/>
      </g>
     </g>
    </g>
    <g id="ytick_3">
     <g id="line2d_9">
      <g>
       <use xlink:href="#m8b189e8f44" x="57.6" y="209.672692" style="stroke: #000000; stroke-width: 0.8"/>
      </g>
     </g>
     <g id="text_9">
      <!-- 4140 -->
      <g transform="translate(25.15 213.471911)scale(0.1 -0.1)">
       <use xlink:href="#DejaVuSans-34"/>
       <use xlink:href="#DejaVuSans-31" x="63.623047"/>
       <use xlink:href="#DejaVuSans-34" x="127.246094"/>
       <use xlink:href="#DejaVuSans-30" x="190.869141"/>
      </g>
     </g>
    </g>
    <g id="ytick_4">
     <g id="line2d_10">
      <g>
       <use xlink:href="#m8b189e8f44" x="57.6" y="176.941115" style="stroke: #000000; stroke-width: 0.8"/>
      </g>
     </g>
     <g id="text_10">
      <!-- 4160 -->
      <g transform="translate(25.15 180.740334)scale(0.1 -0.1)">
       <defs>
        <path id="DejaVuSans-36" d="M 2113 2584 
Q 1688 2584 1439 2293 
Q 1191 2003 1191 1497 
Q 1191 994 1439 701 
Q 1688 409 2113 409 
Q 2538 409 2786 701 
Q 3034 994 3034 1497 
Q 3034 2003 2786 2293 
Q 2538 2584 2113 2584 
z
M 3366 4563 
L 3366 3988 
Q 3128 4100 2886 4159 
Q 2644 4219 2406 4219 
Q 1781 4219 1451 3797 
Q 1122 3375 1075 2522 
Q 1259 2794 1537 2939 
Q 1816 3084 2150 3084 
Q 2853 3084 3261 2657 
Q 3669 2231 3669 1497 
Q 3669 778 3244 343 
Q 2819 -91 2113 -91 
Q 1303 -91 875 529 
Q 447 1150 447 2328 
Q 447 3434 972 4092 
Q 1497 4750 2381 4750 
Q 2619 4750 2861 4703 
Q 3103 4656 3366 4563 
z
" transform="scale(0.015625)"/>
       </defs>
       <use xlink:href="#DejaVuSans-34"/>
       <use xlink:href="#DejaVuSans-31" x="63.623047"/>
       <use xlink:href="#DejaVuSans-36" x="127.246094"/>
       <use xlink:href="#DejaVuSans-30" x="190.869141"/>
      </g>
     </g>
    </g>
    <g id="ytick_5">
     <g id="line2d_11">
      <g>
       <use xlink:href="#m8b189e8f44" x="57.6" y="144.209538" style="stroke: #000000; stroke-width: 0.8"/>
      </g>
     </g>
     <g id="text_11">
      <!-- 4180 -->
      <g transform="translate(25.15 148.008756)scale(0.1 -0.1)">
       <defs>
        <path id="DejaVuSans-38" d="M 2034 2216 
Q 1584 2216 1326 1975 
Q 1069 1734 1069 1313 
Q 1069 891 1326 650 
Q 1584 409 2034 409 
Q 2484 409 2743 651 
Q 3003 894 3003 1313 
Q 3003 1734 2745 1975 
Q 2488 2216 2034 2216 
z
M 1403 2484 
Q 997 2584 770 2862 
Q 544 3141 544 3541 
Q 544 4100 942 4425 
Q 1341 4750 2034 4750 
Q 2731 4750 3128 4425 
Q 3525 4100 3525 3541 
Q 3525 3141 3298 2862 
Q 3072 2584 2669 2484 
Q 3125 2378 3379 2068 
Q 3634 1759 3634 1313 
Q 3634 634 3220 271 
Q 2806 -91 2034 -91 
Q 1263 -91 848 271 
Q 434 634 434 1313 
Q 434 1759 690 2068 
Q 947 2378 1403 2484 
z
M 1172 3481 
Q 1172 3119 1398 2916 
Q 1625 2713 2034 2713 
Q 2441 2713 2670 2916 
Q 2900 3119 2900 3481 
Q 2900 3844 2670 4047 
Q 2441 4250 2034 4250 
Q 1625 4250 1398 4047 
Q 1172 3844 1172 3481 
z
" transform="scale(0.015625)"/>
       </defs>
       <use xlink:href="#DejaVuSans-34"/>
       <use xlink:href="#DejaVuSans-31" x="63.623047"/>
       <use xlink:href="#DejaVuSans-38" x="127.246094"/>
       <use xlink:href="#DejaVuSans-30" x="190.869141"/>
      </g>
     </g>
    </g>
    <g id="ytick_6">
     <g id="line2d_12">
      <g>
       <use xlink:href="#m8b189e8f44" x="57.6" y="111.47796" style="stroke: #000000; stroke-width: 0.8"/>
      </g>
     </g>
     <g id="text_12">
      <!-- 4200 -->
      <g transform="translate(25.15 115.277179)scale(0.1 -0.1)">
       <use xlink:href="#DejaVuSans-34"/>
       <use xlink:href="#DejaVuSans-32" x="63.623047"/>
       <use xlink:href="#DejaVuSans-30" x="127.246094"/>
       <use xlink:href="#DejaVuSans-30" x="190.869141"/>
      </g>
     </g>
    </g>
    <g id="ytick_7">
     <g id="line2d_13">
      <g>
       <use xlink:href="#m8b189e8f44" x="57.6" y="78.746383" style="stroke: #000000; stroke-width: 0.8"/>
      </g>
     </g>
     <g id="text_13">
      <!-- 4220 -->
      <g transform="translate(25.15 82.545602)scale(0.1 -0.1)">
       <use xlink:href="#DejaVuSans-34"/>
       <use xlink:href="#DejaVuSans-32" x="63.623047"/>
       <use xlink:href="#DejaVuSans-32" x="127.246094"/>
       <use xlink:href="#DejaVuSans-30" x="190.869141"/>
      </g>
     </g>
    </g>
    <g id="ytick_8">
     <g id="line2d_14">
      <g>
       <use xlink:href="#m8b189e8f44" x="57.6" y="46.014806" style="stroke: #000000; stroke-width: 0.8"/>
      </g>
     </g>
     <g id="text_14">
      <!-- 4240 -->
      <g transform="translate(25.15 49.814024)scale(0.1 -0.1)">
       <use xlink:href="#DejaVuSans-34"/>
       <use xlink:href="#DejaVuSans-32" x="63.623047"/>
       <use xlink:href="#DejaVuSans-34" x="127.246094"/>
       <use xlink:href="#DejaVuSans-30" x="190.869141"/>
      </g>
     </g>
    </g>
   </g>
   <g id="line2d_15">
    <path d="M 73.832727 167.499621 
L 73.896149 176.730949 
L 74.086413 151.133833 
L 74.149835 153.861198 
L 74.213256 157.218261 
L 74.340099 179.878647 
L 74.403521 172.534818 
L 74.466942 165.190989 
L 74.593785 183.655244 
L 74.784049 162.254258 
L 74.910892 150.084601 
L 75.037735 168.548055 
L 75.101157 164.771457 
L 75.228 161.414392 
L 75.354843 140.43294 
L 75.418264 145.25877 
L 75.545107 132.459412 
L 75.608529 137.285243 
L 75.862215 164.142556 
L 75.925636 159.526094 
L 76.052479 154.91043 
L 76.179322 183.23571 
L 76.242743 178.829415 
L 76.369586 155.119797 
L 76.496429 184.913843 
L 76.559851 180.927878 
L 76.686694 195.405369 
L 76.750115 194.565503 
L 76.813537 186.173241 
L 76.876958 187.642007 
L 76.94038 190.369372 
L 77.067223 179.459113 
L 77.130644 183.445078 
L 77.257487 161.414392 
L 77.38433 192.257672 
L 77.447752 185.753709 
L 77.638016 209.882859 
L 77.82828 181.556778 
L 77.955123 185.334176 
L 78.145388 181.556778 
L 78.272231 189.32014 
L 78.399074 181.137246 
L 78.525917 192.677204 
L 78.65276 153.022132 
L 78.716181 158.687027 
L 78.969867 189.110773 
L 79.09671 205.476562 
L 79.413817 156.798729 
L 79.477239 156.588563 
L 79.604082 172.115286 
L 79.667503 164.142556 
L 79.984611 195.195203 
L 80.111454 185.124009 
L 80.301718 162.044092 
L 80.428561 166.659755 
L 80.491982 162.463626 
L 80.555404 166.240223 
L 80.682247 183.655244 
L 80.745668 177.151281 
L 80.80909 177.990347 
L 80.999354 192.467838 
L 81.062776 184.913843 
L 81.126197 191.838138 
L 81.25304 229.18538 
L 81.316462 222.261884 
L 81.379883 224.569715 
L 81.443305 223.73065 
L 81.570148 211.141458 
L 81.633569 211.560992 
L 81.696991 211.141458 
L 81.760412 209.462526 
L 81.823833 209.882859 
L 81.887255 216.176655 
L 81.950676 202.119498 
L 82.014098 206.945327 
L 82.077519 214.498522 
L 82.140941 213.44929 
L 82.204362 214.708688 
L 82.267784 212.610224 
L 82.331205 204.217163 
L 82.394627 207.993761 
L 82.458048 213.239922 
L 82.584891 197.503035 
L 82.838577 213.44929 
L 82.901999 218.694653 
L 82.96542 216.806355 
L 83.092263 201.279632 
L 83.219106 219.954052 
L 83.345949 204.846863 
L 83.40937 208.833627 
L 83.472792 218.694653 
L 83.536213 215.757121 
L 83.599635 205.896095 
L 83.663056 207.993761 
L 83.726478 207.364861 
L 83.916742 181.556778 
L 83.980164 189.530307 
L 84.107007 218.485287 
L 84.297271 202.328864 
L 84.360693 184.284944 
L 84.424114 189.739672 
L 84.550957 211.560992 
L 84.614379 207.574227 
L 84.931486 239.257371 
L 84.994907 238.208139 
L 85.248593 219.324353 
L 85.312015 212.819591 
L 85.438858 245.761335 
L 85.502279 242.823804 
L 85.565701 242.194104 
L 85.692544 258.980225 
L 85.755965 255.832527 
L 85.882808 263.176356 
L 86.073073 222.47125 
L 86.136494 228.976013 
L 86.199915 225.408781 
L 86.326758 242.614436 
L 86.453601 241.984736 
L 86.580444 265.484187 
L 86.897552 234.431542 
L 86.960973 238.837039 
L 87.024395 239.466738 
L 87.087816 238.208139 
L 87.214659 244.922268 
L 87.341502 233.172144 
L 87.468345 241.984736 
L 87.658609 231.283844 
L 87.722031 232.75261 
L 87.848874 237.997973 
L 87.912295 237.368274 
L 88.039138 232.12291 
L 88.165981 241.984736 
L 88.292824 236.739373 
L 88.356246 243.453502 
L 88.419667 238.837039 
L 88.483089 226.877547 
L 88.54651 230.86431 
L 88.609932 234.011209 
L 88.736775 209.253159 
L 88.800196 219.324353 
L 88.863618 217.855587 
L 89.053882 205.266395 
L 89.117303 203.588264 
L 89.244146 224.779882 
L 89.307568 220.793118 
L 89.497832 203.79763 
L 89.561254 207.993761 
L 89.624675 216.386821 
L 89.688097 215.128222 
L 89.81494 187.642007 
L 89.878361 187.851375 
L 89.941783 192.257672 
L 90.005204 189.32014 
L 90.068626 189.110773 
L 90.385733 239.257371 
L 90.70284 207.364861 
L 90.893105 213.659456 
L 90.956526 208.62346 
L 91.083369 183.025544 
L 91.210212 208.414093 
L 91.273634 200.650732 
L 91.337055 185.543543 
L 91.400477 189.530307 
L 91.52732 210.511758 
L 91.590741 204.846863 
L 91.717584 221.422816 
L 91.844427 210.511758 
L 91.907848 214.498522 
L 91.97127 212.19069 
L 92.034691 207.784393 
L 92.098113 209.462526 
L 92.161534 215.337589 
L 92.224956 212.819591 
L 92.351799 200.650732 
L 92.605485 236.319841 
L 92.732328 259.399758 
L 92.859171 233.172144 
L 92.922592 234.431542 
L 92.986014 237.158907 
L 93.049435 236.948741 
L 93.176278 234.431542 
L 93.2397 237.788605 
L 93.303121 236.529207 
L 93.366542 233.38231 
L 93.429964 233.801842 
L 93.556807 232.12291 
L 93.68365 240.725338 
L 93.747071 239.257371 
L 93.810493 241.14567 
L 93.873914 239.886272 
L 94.064179 233.38231 
L 94.1276 229.815078 
L 94.254443 235.270607 
L 94.381286 215.967287 
L 94.508129 234.640909 
L 94.571551 232.12291 
L 94.888658 204.636697 
L 94.952079 205.057028 
L 95.015501 210.721924 
L 95.078922 205.057028 
L 95.142344 207.784393 
L 95.205765 220.582952 
L 95.269187 219.743886 
L 95.332608 221.212652 
L 95.39603 235.270607 
L 95.459451 230.654144 
L 95.586294 198.9718 
L 95.713137 212.400058 
L 95.776559 211.980524 
L 95.83998 210.511758 
L 95.966823 219.114186 
L 96.030245 215.128222 
L 96.220509 206.105461 
L 96.28393 202.119498 
L 96.410773 212.19069 
L 96.537616 187.431841 
L 96.664459 209.462526 
L 96.727881 205.685929 
L 96.981567 189.739672 
L 97.10841 200.231199 
L 97.298674 182.186478 
L 97.362096 184.704476 
L 97.55236 212.819591 
L 97.932889 180.29818 
L 98.059732 188.270908 
L 98.123153 187.222475 
L 98.186575 234.851075 
L 98.249996 234.221376 
L 98.313418 231.49401 
L 98.503682 212.400058 
L 98.567104 215.128222 
L 98.693947 200.021032 
L 98.757368 206.945327 
L 98.884211 246.180867 
L 98.947633 243.662869 
L 99.074475 237.788605 
L 99.201318 241.77457 
L 99.328161 212.400058 
L 99.391583 215.547755 
L 99.455004 216.176655 
L 99.581847 201.909332 
L 99.70869 209.672692 
L 99.772112 208.833627 
L 99.835533 209.882859 
L 99.962376 220.163418 
L 100.089219 207.574227 
L 100.152641 213.239922 
L 100.216062 207.574227 
L 100.342905 187.431841 
L 100.469748 217.645421 
L 100.533169 215.128222 
L 100.596591 211.771158 
L 100.723434 239.466738 
L 100.786855 238.417506 
L 100.850277 235.270607 
L 100.913698 240.935504 
L 100.97712 239.886272 
L 101.103963 228.346313 
L 101.230806 240.51597 
L 101.357649 261.70759 
L 101.547913 236.529207 
L 101.674756 237.578441 
L 101.801599 235.690141 
L 101.928442 222.891582 
L 102.182128 246.391033 
L 102.308971 263.176356 
L 102.372392 261.288056 
L 102.499235 266.533419 
L 102.626078 241.77457 
L 102.6895 243.873036 
L 102.752921 244.712101 
L 102.816343 236.529207 
L 102.943186 256.042693 
L 103.260293 209.042993 
L 103.323715 206.525794 
L 103.704243 243.03397 
L 103.894508 239.886272 
L 103.957929 230.025245 
L 104.021351 231.703378 
L 104.084772 238.837039 
L 104.211615 225.408781 
L 104.338458 251.845764 
L 104.40188 243.873036 
L 104.465301 232.333076 
L 104.528723 237.158907 
L 104.592144 242.823804 
L 104.782408 208.203927 
L 104.84583 213.659456 
L 104.909251 210.721924 
L 104.972673 209.462526 
L 105.099516 222.681416 
L 105.28978 214.498522 
L 105.416623 187.851375 
L 105.543466 194.14597 
L 105.670309 180.717712 
L 105.733731 184.704476 
L 105.797152 188.900607 
L 105.860574 185.334176 
L 105.923995 186.173241 
L 105.987417 189.110773 
L 106.050838 188.270908 
L 106.11426 185.543543 
L 106.177681 187.642007 
L 106.367945 225.828315 
L 106.431367 222.47125 
L 106.494788 213.239922 
L 106.55821 216.596987 
L 106.621631 219.534519 
L 106.685053 211.980524 
L 106.748474 217.225887 
L 106.875317 236.948741 
L 107.129003 213.029758 
L 107.255846 226.248647 
L 107.636375 204.217163 
L 107.699796 203.16873 
L 107.826639 213.868823 
L 108.016904 207.784393 
L 108.080325 208.62346 
L 108.207168 222.47125 
L 108.27059 234.431542 
L 108.334011 227.087713 
L 108.460854 207.574227 
L 108.524276 212.819591 
L 108.587697 209.882859 
L 108.71454 215.337589 
L 108.777962 211.560992 
L 108.841383 213.239922 
L 108.904805 221.212652 
L 108.968226 216.386821 
L 109.031648 213.868823 
L 109.095069 224.989249 
L 109.15849 224.779882 
L 109.348755 205.896095 
L 109.412176 201.070264 
L 109.539019 214.918055 
L 109.602441 209.462526 
L 109.665862 210.511758 
L 109.729284 215.337589 
L 109.792705 214.07899 
L 109.98297 204.217163 
L 110.046391 206.105461 
L 110.300077 235.060441 
L 110.363499 234.640909 
L 110.553763 202.328864 
L 110.617184 203.79763 
L 110.744027 215.757121 
L 110.807449 214.288355 
L 110.934292 211.351624 
L 110.997713 214.708688 
L 111.124556 238.417506 
L 111.187978 235.900307 
L 111.631928 207.154695 
L 111.758771 215.547755 
L 111.822193 213.029758 
L 112.075878 207.364861 
L 112.1393 209.042993 
L 112.202721 207.993761 
L 112.266143 208.203927 
L 112.392986 215.757121 
L 112.646672 181.347412 
L 112.710093 182.816178 
L 112.773515 189.32014 
L 112.836936 187.431841 
L 112.963779 183.655244 
L 113.090622 170.437153 
L 113.154044 174.842649 
L 113.407729 154.071364 
L 113.471151 150.504133 
L 113.534572 159.106561 
L 113.597994 153.022132 
L 113.788258 124.906218 
L 113.85168 115.674091 
L 113.978523 141.062639 
L 114.041944 133.508646 
L 114.105366 120.290555 
L 114.168787 127.633583 
L 114.232209 137.285243 
L 114.29563 130.990648 
L 114.359052 126.585149 
L 114.485895 214.07899 
L 114.676159 181.97711 
L 114.739581 184.704476 
L 114.803002 184.913843 
L 114.866423 186.802941 
L 114.929845 201.909332 
L 114.993266 201.699964 
L 115.056688 189.949839 
L 115.120109 190.579539 
L 115.183531 193.936604 
L 115.246952 191.418604 
L 115.310374 189.110773 
L 115.500638 159.316727 
L 115.690903 189.110773 
L 115.881167 159.526094 
L 115.944589 158.896395 
L 116.134853 142.950938 
L 116.198275 147.356437 
L 116.45196 162.883158 
L 116.515382 159.945626 
L 116.578803 156.169029 
L 116.642225 156.798729 
L 116.769068 175.262183 
L 116.959332 155.329963 
L 117.339861 214.07899 
L 117.403283 205.266395 
L 117.530126 213.868823 
L 117.593547 206.945327 
L 117.72039 223.311116 
L 117.847233 211.141458 
L 117.974076 236.739373 
L 118.037497 231.913544 
L 118.100919 234.640909 
L 118.16434 237.368274 
L 118.418026 209.042993 
L 118.481448 214.498522 
L 118.544869 212.400058 
L 118.608291 213.029758 
L 118.735134 235.060441 
L 118.861977 227.087713 
L 118.925398 230.86431 
L 119.242505 184.913843 
L 119.305927 187.851375 
L 119.496191 202.119498 
L 119.559613 212.610224 
L 119.623034 210.302392 
L 119.686456 213.239922 
L 120.066985 179.66848 
L 120.193828 189.949839 
L 120.320671 184.913843 
L 120.510935 209.462526 
L 120.574356 209.672692 
L 120.891464 164.56209 
L 121.018307 184.074777 
L 121.081728 177.151281 
L 121.14515 174.21375 
L 121.271993 188.061541 
L 121.398836 177.570815 
L 121.525679 182.396644 
L 121.5891 186.592775 
L 121.652522 185.124009 
L 121.715943 180.508345 
L 121.906208 213.868823 
L 121.969629 208.833627 
L 122.03305 209.882859 
L 122.096472 213.44929 
L 122.223315 183.655244 
L 122.350158 203.79763 
L 122.540422 163.932392 
L 122.730687 192.257672 
L 122.85753 174.423117 
L 122.920951 164.56209 
L 122.984373 171.066052 
L 123.047794 181.97711 
L 123.111216 175.052816 
L 123.174637 162.463626 
L 123.238059 165.190989 
L 123.364902 184.49431 
L 123.428323 179.039581 
L 123.555166 189.110773 
L 123.682009 172.744984 
L 123.808852 185.124009 
L 123.935695 158.267495 
L 123.999116 166.869921 
L 124.062538 176.730949 
L 124.189381 157.847961 
L 124.252802 166.450389 
L 124.316224 161.624558 
L 124.506488 136.446177 
L 124.696753 178.620047 
L 124.760174 161.833926 
L 124.823596 159.945626 
L 124.887017 161.414392 
L 124.950438 151.972898 
L 125.01386 159.945626 
L 125.267546 216.176655 
L 125.330967 218.694653 
L 125.394389 215.757121 
L 125.521232 245.761335 
L 125.584653 239.676905 
L 125.711496 242.614436 
L 125.901761 234.640909 
L 125.965182 238.417506 
L 126.092025 267.372487 
L 126.155447 263.176356 
L 126.218868 258.140359 
L 126.28229 258.559892 
L 126.345711 257.511459 
L 126.472554 264.854487 
L 126.662818 236.319841 
L 126.72624 242.823804 
L 126.789661 238.837039 
L 126.853083 239.466738 
L 126.916504 244.083202 
L 126.979926 240.725338 
L 127.043347 240.305804 
L 127.17019 245.131635 
L 127.297033 235.690141 
L 127.360455 237.158907 
L 127.423876 239.047205 
L 127.550719 216.386821 
L 127.740984 237.158907 
L 127.867826 213.239922 
L 127.931248 224.989249 
L 127.994669 244.922268 
L 128.058091 235.900307 
L 128.311777 213.239922 
L 128.375198 223.73065 
L 128.43862 218.904819 
L 128.502041 214.708688 
L 128.565463 218.275121 
L 128.692306 211.351624 
L 128.755727 217.225887 
L 128.819149 213.659456 
L 128.88257 210.511758 
L 128.945992 219.534519 
L 129.009413 218.275121 
L 129.072835 208.833627 
L 129.136256 210.931292 
L 129.199677 215.128222 
L 129.707049 182.396644 
L 129.833892 213.659456 
L 129.897314 211.141458 
L 130.087578 179.248947 
L 130.214421 195.614735 
L 130.468107 163.302692 
L 130.531529 163.722225 
L 130.59495 166.450389 
L 130.658371 157.847961 
L 130.975479 214.288355 
L 131.292586 162.044092 
L 131.482851 184.704476 
L 131.546272 183.025544 
L 131.673115 160.575326 
L 131.736537 163.932392 
L 131.799958 167.708989 
L 131.926801 160.785493 
L 132.053644 172.115286 
L 132.117065 167.289455 
L 132.687859 220.163418 
L 132.814702 242.614436 
L 132.941545 230.86431 
L 133.322074 292.550868 
L 133.385495 288.773871 
L 133.512338 262.966189 
L 133.639181 277.234313 
L 133.702602 269.470951 
L 133.766024 272.408482 
L 133.829445 274.925681 
L 133.956288 264.434955 
L 134.01971 265.903721 
L 134.083131 266.533419 
L 134.209974 259.399758 
L 134.336817 279.961676 
L 134.400239 277.234313 
L 134.717346 256.042693 
L 134.780768 256.042693 
L 134.907611 235.060441 
L 134.971032 239.257371 
L 135.034453 240.305804 
L 135.097875 236.319841 
L 135.224718 240.51597 
L 135.541825 213.239922 
L 135.605247 214.288355 
L 135.73209 207.993761 
L 135.985776 237.997973 
L 136.049197 234.221376 
L 136.17604 201.699964 
L 136.239462 209.882859 
L 136.302883 209.462526 
L 136.366304 211.141458 
L 136.429726 216.806355 
L 136.493147 215.967287 
L 136.556569 217.016521 
L 136.61999 216.176655 
L 136.746833 210.302392 
L 136.810255 210.511758 
L 136.873676 209.672692 
L 136.937098 212.19069 
L 137.000519 207.784393 
L 137.127362 186.802941 
L 137.190784 191.627972 
L 137.317627 183.445078 
L 137.381048 188.691239 
L 137.44447 186.592775 
L 137.507891 182.816178 
L 137.571313 188.900607 
L 137.634734 187.851375 
L 137.698156 182.396644 
L 137.824998 188.270908 
L 137.88842 178.409881 
L 137.951841 179.878647 
L 138.142106 192.677204 
L 138.205527 193.096738 
L 138.33237 160.155793 
L 138.395792 170.226986 
L 138.459213 175.472349 
L 138.586056 160.99486 
L 138.649478 170.01682 
L 138.712899 164.56209 
L 138.839742 209.672692 
L 138.903164 212.610224 
L 139.283692 156.798729 
L 139.537378 215.128222 
L 139.664221 191.838138 
L 139.727643 211.141458 
L 139.791064 210.511758 
L 139.917907 188.270908 
L 139.981329 190.999072 
L 140.298436 161.624558 
L 140.361858 164.142556 
L 140.488701 189.530307 
L 140.552122 188.270908 
L 140.678965 176.521581 
L 140.805808 183.86541 
L 140.932651 163.093324 
L 141.122915 212.819591 
L 141.186337 205.685929 
L 141.503444 265.274021 
L 141.566866 263.595888 
L 141.75713 241.984736 
L 141.883973 269.470951 
L 141.947395 268.631885 
L 142.010816 266.952953 
L 142.137659 260.238824 
L 142.264502 266.323253 
L 142.518188 256.042693 
L 142.581609 260.028658 
L 142.645031 256.671593 
L 142.708452 257.091127 
L 142.835295 295.488 
L 142.898717 284.997274 
L 142.962138 274.716314 
L 143.02556 282.689443 
L 143.088981 282.059743 
L 143.215824 269.260784 
L 143.279246 270.520183 
L 143.342667 267.163119 
L 143.406089 256.881759 
L 143.46951 257.930993 
L 143.532932 265.064653 
L 143.850039 228.976013 
L 143.91346 228.976013 
L 144.103725 239.676905 
L 144.230568 243.243336 
L 144.293989 239.257371 
L 144.420832 258.350525 
L 144.547675 228.765846 
L 144.611097 237.368274 
L 144.674518 235.270607 
L 144.73794 222.47125 
L 144.801361 223.940016 
L 144.928204 244.083202 
L 145.055047 218.904819 
L 145.118468 223.940016 
L 145.18189 223.520483 
L 145.372154 194.14597 
L 145.62584 211.560992 
L 145.689262 214.708688 
L 145.752683 212.19069 
L 146.006369 184.704476 
L 146.069791 182.396644 
L 146.133212 188.691239 
L 146.260055 161.624558 
L 146.323477 166.659755 
L 146.386898 168.968387 
L 146.450319 159.945626 
L 146.513741 160.785493 
L 146.577162 161.833926 
L 146.640584 160.785493 
L 146.704005 162.254258 
L 146.767427 157.218261 
L 146.830848 163.932392 
L 146.957691 212.19069 
L 147.021113 210.721924 
L 147.084534 206.525794 
L 147.211377 211.141458 
L 147.33822 187.431841 
L 147.465063 217.016521 
L 147.845592 184.284944 
L 147.972435 198.342899 
L 148.035856 191.838138 
L 148.099278 185.334176 
L 148.162699 185.753709 
L 148.226121 184.913843 
L 148.352964 187.012309 
L 148.416385 185.124009 
L 148.543228 191.418604 
L 148.670071 184.49431 
L 148.733493 184.49431 
L 148.796914 189.32014 
L 148.923757 205.896095 
L 149.0506 174.423117 
L 149.177443 189.530307 
L 149.304286 178.409881 
L 149.431129 185.543543 
L 149.49455 184.284944 
L 149.621393 189.110773 
L 149.875079 170.856686 
L 149.938501 159.945626 
L 150.001922 160.99486 
L 150.255608 183.23571 
L 150.31903 179.66848 
L 150.382451 175.682516 
L 150.509294 187.851375 
L 150.572716 178.409881 
L 150.953244 268.002185 
L 151.080087 246.600401 
L 151.143509 248.488699 
L 151.270352 264.645121 
L 151.333773 264.434955 
L 151.460616 256.671593 
L 151.587459 266.742787 
L 151.650881 260.658358 
L 151.777724 290.872337 
L 151.904567 261.497424 
L 151.967988 264.645121 
L 152.03141 269.680318 
L 152.158252 261.288056 
L 152.221674 264.434955 
L 152.285095 273.877248 
L 152.348517 267.792019 
L 152.411938 252.475464 
L 152.47536 255.62316 
L 152.538781 262.966189 
L 152.602203 258.140359 
L 152.855889 236.739373 
L 152.91931 241.984736 
L 153.236418 205.685929 
L 153.299839 208.203927 
L 153.363261 218.485287 
L 153.426682 214.918055 
L 153.490104 213.868823 
L 153.553525 210.511758 
L 153.616946 197.293667 
L 153.680368 197.922567 
L 153.743789 203.588264 
L 153.870632 174.423117 
L 153.934054 189.110773 
L 153.997475 187.012309 
L 154.060897 179.66848 
L 154.18774 204.636697 
L 154.314583 157.637795 
L 154.378004 159.945626 
L 154.504847 161.833926 
L 154.568269 166.240223 
L 154.695112 153.022132 
L 154.821955 167.708989 
L 154.948798 158.687027 
L 155.07564 190.579539 
L 155.139062 185.963075 
L 155.329326 157.218261 
L 155.456169 171.485586 
L 155.583012 163.302692 
L 155.709855 183.025544 
L 155.773277 177.151281 
L 155.836698 174.21375 
L 155.90012 179.878647 
L 156.026963 160.155793 
L 156.090384 164.142556 
L 156.217227 191.208438 
L 156.724599 142.740772 
L 156.851442 164.351924 
L 156.914863 157.428427 
L 156.978285 159.106561 
L 157.041706 174.423117 
L 157.105128 171.276218 
L 157.168549 161.205026 
L 157.231971 165.190989 
L 157.358814 193.51707 
L 157.422235 189.530307 
L 157.549078 161.205026 
L 157.675921 193.096738 
L 157.739343 185.543543 
L 157.866186 208.203927 
L 157.929607 204.636697 
L 158.05645 188.061541 
L 158.119871 188.270908 
L 158.183293 189.949839 
L 158.436979 179.248947 
L 158.563822 198.552267 
L 158.627243 191.418604 
L 158.754086 214.918055 
L 158.817508 210.302392 
L 159.007772 188.900607 
L 159.071194 188.691239 
L 159.198037 182.606012 
L 159.451722 189.949839 
L 159.515144 188.900607 
L 159.578565 185.963075 
L 159.705408 197.293667 
L 159.832251 175.052816 
L 159.895673 177.570815 
L 160.085937 187.222475 
L 160.149359 187.431841 
L 160.276202 207.784393 
L 160.403045 187.431841 
L 160.466466 191.418604 
L 160.529888 193.096738 
L 160.656731 181.766944 
L 160.720152 183.025544 
L 160.783573 181.347412 
L 160.846995 181.766944 
L 161.164102 216.386821 
L 161.227524 211.351624 
L 161.417788 186.592775 
L 161.544631 181.556778 
L 161.798317 189.949839 
L 161.861739 188.900607 
L 161.92516 185.963075 
L 161.988582 190.369372 
L 162.115425 211.141458 
L 162.178846 207.154695 
L 162.242267 203.378098 
L 162.305689 209.462526 
L 162.432532 240.305804 
L 162.495953 236.319841 
L 162.559375 232.12291 
L 162.622796 238.208139 
L 162.686218 235.060441 
L 162.749639 223.940016 
L 162.813061 227.297081 
L 162.876482 228.765846 
L 162.939904 215.547755 
L 163.003325 219.534519 
L 163.066747 240.725338 
L 163.130168 210.721924 
L 163.19359 215.757121 
L 163.320433 235.900307 
L 163.510697 209.882859 
L 163.63754 211.980524 
L 163.764383 206.945327 
L 164.08149 227.926781 
L 164.208333 211.771158 
L 164.271755 206.525794 
L 164.398598 234.221376 
L 164.462019 226.458015 
L 164.525441 209.462526 
L 164.588862 219.114186 
L 164.652284 235.690141 
L 164.715705 226.877547 
L 164.779127 222.261884 
L 164.842548 233.591676 
L 164.969391 207.574227 
L 165.096234 211.141458 
L 165.159655 211.980524 
L 165.34992 240.935504 
L 165.476763 220.793118 
L 165.540184 210.092226 
L 165.603606 212.400058 
L 165.920713 243.453502 
L 166.047556 236.948741 
L 166.174399 249.537932 
L 166.364664 234.011209 
L 166.428085 228.976013 
L 166.491507 229.18538 
L 166.681771 240.725338 
L 166.745192 240.935504 
L 166.935457 246.600401 
L 167.0623 256.671593 
L 167.189143 226.458015 
L 167.252564 229.395546 
L 167.315986 237.158907 
L 167.442829 228.346313 
L 167.569672 241.77457 
L 167.633093 241.355038 
L 167.759936 268.211552 
L 167.886779 251.006698 
L 168.013622 263.595888 
L 168.140465 237.788605 
L 168.267308 263.385722 
L 168.330729 259.609124 
L 168.520994 240.096438 
L 168.584415 240.725338 
L 168.647837 243.662869 
L 168.711258 242.194104 
L 168.838101 235.060441 
L 168.964944 238.417506 
L 169.028366 237.158907 
L 169.091787 237.578441 
L 169.155209 237.578441 
L 169.21863 237.158907 
L 169.345473 245.9715 
L 169.408894 241.77457 
L 169.472316 240.935504 
L 169.535737 255.62316 
L 169.599159 254.783295 
L 169.66258 237.368274 
L 169.726002 238.417506 
L 169.789423 246.391033 
L 169.916266 234.011209 
L 169.979688 237.578441 
L 170.106531 229.18538 
L 170.169952 230.444778 
L 170.296795 217.645421 
L 170.423638 243.03397 
L 170.48706 240.096438 
L 170.550481 235.479975 
L 170.677324 210.511758 
L 170.804167 236.109675 
L 170.867588 232.542444 
L 170.994431 208.833627 
L 171.057853 212.400058 
L 171.121274 217.436053 
L 171.184696 214.498522 
L 171.248117 184.074777 
L 171.311539 192.677204 
L 171.37496 206.945327 
L 171.438382 205.896095 
L 171.501803 205.476562 
L 171.628646 214.07899 
L 171.692068 208.833627 
L 171.755489 211.771158 
L 171.818911 210.302392 
L 171.882332 205.896095 
L 171.945754 206.105461 
L 172.009175 206.105461 
L 172.136018 194.356136 
L 172.262861 180.508345 
L 172.389704 188.481075 
L 172.453125 186.592775 
L 172.516547 179.878647 
L 172.579968 180.508345 
L 172.706811 194.565503 
L 172.770233 192.677204 
L 172.897076 214.288355 
L 173.150762 188.691239 
L 173.214183 190.999072 
L 173.594712 221.632184 
L 173.848398 257.301293 
L 173.911819 260.028658 
L 174.102084 235.690141 
L 174.165505 234.221376 
L 174.292348 236.319841 
L 174.35577 234.431542 
L 174.482613 241.984736 
L 174.609456 232.962776 
L 174.672877 235.270607 
L 174.79972 241.565204 
L 174.863142 240.935504 
L 175.053406 243.243336 
L 175.24367 235.479975 
L 175.307092 236.948741 
L 175.433935 241.77457 
L 175.560778 221.632184 
L 175.687621 235.479975 
L 175.814464 218.485287 
L 175.877885 224.779882 
L 175.941307 223.10095 
L 176.06815 209.462526 
L 176.194993 218.065753 
L 176.258414 215.128222 
L 176.385257 236.529207 
L 176.448679 230.86431 
L 176.5121 222.681416 
L 176.575521 228.765846 
L 176.765786 206.315627 
L 176.829207 211.980524 
L 176.95605 214.708688 
L 177.019472 214.498522 
L 177.146315 222.891582 
L 177.336579 207.993761 
L 177.463422 198.762433 
L 177.590265 209.042993 
L 177.653687 207.784393 
L 177.717108 206.525794 
L 177.78053 206.945327 
L 177.907373 213.659456 
L 177.970794 212.819591 
L 178.161058 195.614735 
L 178.287901 206.735161 
L 178.414744 198.132733 
L 178.541587 185.334176 
L 178.731852 208.833627 
L 178.795273 209.882859 
L 178.985538 180.927878 
L 179.112381 182.186478 
L 179.175802 181.556778 
L 179.302645 193.096738 
L 179.429488 233.801842 
L 179.492909 231.703378 
L 179.619752 211.560992 
L 179.683174 214.918055 
L 179.746595 217.436053 
L 179.873438 207.574227 
L 180.063703 239.886272 
L 180.127124 237.997973 
L 180.253967 234.431542 
L 180.38081 240.51597 
L 180.571075 208.833627 
L 180.634496 214.708688 
L 180.697918 210.931292 
L 180.761339 205.266395 
L 180.888182 212.610224 
L 180.951603 208.62346 
L 181.078446 227.507247 
L 181.205289 205.896095 
L 181.268711 209.882859 
L 181.332132 212.819591 
L 181.458975 202.119498 
L 181.64924 214.288355 
L 181.776083 210.721924 
L 181.902926 244.292569 
L 181.966347 238.837039 
L 182.029769 233.172144 
L 182.156612 249.328565 
L 182.283455 234.431542 
L 182.53714 267.582653 
L 182.600562 267.163119 
L 182.790826 241.77457 
L 182.854248 241.984736 
L 183.044512 237.788605 
L 183.107934 237.368274 
L 183.171355 239.676905 
L 183.234777 235.270607 
L 183.298198 239.676905 
L 183.488463 261.288056 
L 183.615306 274.296781 
L 183.742149 260.44899 
L 183.80557 262.966189 
L 183.932413 249.957464 
L 183.995834 253.105162 
L 184.059256 260.238824 
L 184.122677 258.140359 
L 184.24952 241.565204 
L 184.312942 243.873036 
L 184.376363 240.51597 
L 184.503206 226.668181 
L 184.693471 237.997973 
L 184.756892 239.466738 
L 184.820314 236.319841 
L 184.883735 238.837039 
L 185.010578 255.832527 
L 185.137421 235.900307 
L 185.264264 244.292569 
L 185.391107 235.270607 
L 185.51795 243.662869 
L 185.708214 234.640909 
L 185.771636 238.627673 
L 185.9619 210.092226 
L 186.025322 214.918055 
L 186.088743 216.806355 
L 186.152165 215.757121 
L 186.215586 215.967287 
L 186.342429 210.302392 
L 186.405851 216.176655 
L 186.596115 183.445078 
L 186.659536 195.824901 
L 186.722958 193.096738 
L 186.849801 181.97711 
L 186.913222 187.851375 
L 186.976644 187.222475 
L 187.040065 181.347412 
L 187.103487 182.816178 
L 187.166908 183.655244 
L 187.293751 175.891883 
L 187.420594 184.074777 
L 187.547437 226.877547 
L 187.610859 232.75261 
L 187.67428 228.136947 
L 187.801123 213.44929 
L 187.864545 214.288355 
L 187.927966 210.931292 
L 188.054809 232.962776 
L 188.11823 228.346313 
L 188.181652 214.498522 
L 188.245073 214.708688 
L 188.308495 215.547755 
L 188.371916 213.239922 
L 188.435338 213.44929 
L 188.498759 214.288355 
L 188.562181 211.980524 
L 188.752445 187.642007 
L 188.815867 190.160005 
L 189.069553 209.253159 
L 189.196396 190.788906 
L 189.323239 216.596987 
L 189.38666 214.498522 
L 189.450082 214.498522 
L 189.513503 209.462526 
L 189.640346 188.270908 
L 189.703767 189.739672 
L 189.894032 212.19069 
L 189.957453 207.784393 
L 190.020875 208.62346 
L 190.084296 209.462526 
L 190.147718 204.217163 
L 190.211139 204.846863 
L 190.337982 211.141458 
L 190.401404 211.351624 
L 190.591668 189.32014 
L 190.65509 203.16873 
L 190.718511 197.922567 
L 190.781933 182.606012 
L 190.845354 191.627972 
L 190.972197 206.315627 
L 191.035618 205.685929 
L 191.162461 197.922567 
L 191.416147 226.877547 
L 191.479569 227.926781 
L 191.606412 224.779882 
L 191.733255 211.141458 
L 191.860098 216.596987 
L 191.986941 240.935504 
L 192.113784 223.520483 
L 192.304048 239.886272 
L 192.430891 219.743886 
L 192.494312 220.793118 
L 192.557734 222.47125 
L 192.684577 211.351624 
L 192.747998 211.771158 
L 192.81142 210.511758 
L 192.938263 214.708688 
L 193.001684 213.239922 
L 193.128527 206.945327 
L 193.25537 211.141458 
L 193.382213 211.141458 
L 193.509056 219.534519 
L 193.572478 218.904819 
L 193.826163 201.489798 
L 193.889585 202.328864 
L 194.079849 217.225887 
L 194.206692 208.833627 
L 194.270114 210.302392 
L 194.333535 213.659456 
L 194.460378 205.057028 
L 194.5238 205.685929 
L 194.587221 205.266395 
L 194.714064 210.302392 
L 195.031172 184.49431 
L 195.094593 184.49431 
L 195.221436 196.034269 
L 195.348279 184.49431 
L 195.4117 185.753709 
L 195.475122 187.851375 
L 195.538543 185.753709 
L 195.601965 187.642007 
L 195.728808 208.833627 
L 195.855651 180.29818 
L 195.982494 189.32014 
L 196.172758 183.86541 
L 196.299601 203.16873 
L 196.363023 200.860098 
L 196.68013 180.088014 
L 196.870394 190.788906 
L 197.187502 176.730949 
L 197.250923 167.708989 
L 197.314345 172.954352 
L 197.441188 183.445078 
L 197.504609 180.508345 
L 197.631452 193.096738 
L 197.821717 184.704476 
L 197.94856 207.993761 
L 198.138824 180.508345 
L 198.265667 212.19069 
L 198.329088 208.62346 
L 198.39251 207.364861 
L 198.519353 217.645421 
L 198.582774 213.44929 
L 198.709617 191.627972 
L 198.83646 214.918055 
L 198.899882 206.945327 
L 198.963303 201.070264 
L 199.026725 204.636697 
L 199.153568 213.868823 
L 199.280411 202.748398 
L 199.343832 207.784393 
L 199.407254 214.918055 
L 199.534097 185.753709 
L 199.597518 186.802941 
L 199.660939 204.42733 
L 199.724361 201.489798 
L 199.787782 194.565503 
L 199.914625 202.958564 
L 200.168311 187.222475 
L 200.295154 214.288355 
L 200.421997 178.620047 
L 200.485419 185.753709 
L 200.54884 191.418604 
L 200.612262 186.802941 
L 200.739105 205.685929 
L 200.865948 214.288355 
L 201.056212 186.173241 
L 201.183055 186.802941 
L 201.309898 178.409881 
L 201.500162 186.382609 
L 201.627005 197.922567 
L 201.753848 210.511758 
L 201.81727 206.945327 
L 201.944113 184.49431 
L 202.007534 186.592775 
L 202.134377 179.248947 
L 202.26122 193.726437 
L 202.324642 184.704476 
L 202.388063 191.418604 
L 202.451484 204.636697 
L 202.578327 185.334176 
L 202.70517 217.436053 
L 202.768592 209.042993 
L 202.832013 202.958564 
L 202.958856 218.065753 
L 203.022278 217.225887 
L 203.085699 215.128222 
L 203.275964 233.172144 
L 203.466228 217.645421 
L 203.52965 211.771158 
L 203.656493 232.75261 
L 203.719914 209.672692 
L 203.783336 217.645421 
L 203.846757 231.913544 
L 203.910178 229.395546 
L 204.100443 208.203927 
L 204.227286 215.967287 
L 204.354129 206.525794 
L 204.607815 224.779882 
L 204.671236 224.779882 
L 204.734658 223.311116 
L 204.861501 207.993761 
L 204.988344 229.605711 
L 205.051765 223.10095 
L 205.115187 207.574227 
L 205.178608 214.918055 
L 205.24203 233.801842 
L 205.305451 231.283844 
L 205.559137 205.057028 
L 205.68598 211.141458 
L 205.812823 205.896095 
L 205.939666 234.011209 
L 206.066509 207.784393 
L 206.12993 209.042993 
L 206.193352 209.042993 
L 206.256773 214.07899 
L 206.383616 235.060441 
L 206.447038 230.025245 
L 206.573881 237.997973 
L 206.637302 234.431542 
L 206.700724 235.690141 
L 206.764145 238.208139 
L 207.017831 229.815078 
L 207.081252 231.703378 
L 207.208095 240.935504 
L 207.271517 239.047205 
L 207.334938 239.466738 
L 207.525203 237.578441 
L 207.652046 265.484187 
L 207.715467 252.68563 
L 207.778889 228.556479 
L 207.84231 230.86431 
L 207.905732 241.77457 
L 208.032575 226.038481 
L 208.159417 241.355038 
L 208.222839 232.12291 
L 208.349682 255.832527 
L 208.413103 243.243336 
L 208.476525 248.908232 
L 208.539946 262.337288 
L 208.666789 230.654144 
L 208.730211 237.997973 
L 208.793632 240.096438 
L 208.857054 234.851075 
L 208.920475 235.060441 
L 208.983897 239.676905 
L 209.047318 239.047205 
L 209.11074 234.640909 
L 209.237583 254.783295 
L 209.364426 237.368274 
L 209.427847 239.047205 
L 209.55469 238.417506 
L 209.618111 242.194104 
L 209.744954 234.431542 
L 209.808376 239.466738 
L 209.871797 239.257371 
L 209.935219 233.38231 
L 209.99864 235.060441 
L 210.125483 243.873036 
L 210.252326 235.270607 
L 210.315748 237.788605 
L 210.379169 240.305804 
L 210.506012 226.248647 
L 210.632855 214.498522 
L 210.696277 217.016521 
L 210.759698 216.176655 
L 210.82312 207.784393 
L 210.886541 214.288355 
L 211.013384 243.662869 
L 211.140227 228.556479 
L 211.26707 206.945327 
L 211.330491 211.141458 
L 211.457334 226.248647 
L 211.584177 202.748398 
L 211.71102 214.498522 
L 211.837863 203.16873 
L 212.154971 231.49401 
L 212.218392 232.12291 
L 212.345235 223.311116 
L 212.472078 208.62346 
L 212.535499 212.400058 
L 212.598921 211.141458 
L 212.662342 209.042993 
L 212.725764 211.771158 
L 212.852607 188.900607 
L 212.916028 193.306904 
L 213.042871 214.708688 
L 213.169714 190.999072 
L 213.296557 210.721924 
L 213.359979 201.489798 
L 213.4234 205.685929 
L 213.486822 215.757121 
L 213.550243 212.400058 
L 213.740508 201.699964 
L 213.930772 213.659456 
L 213.994193 213.029758 
L 214.121036 198.132733 
L 214.247879 212.400058 
L 214.311301 213.44929 
L 214.438144 240.096438 
L 214.501565 237.788605 
L 214.564987 239.676905 
L 214.69183 221.002486 
L 214.755251 228.136947 
L 214.818673 226.877547 
L 214.882094 220.373585 
L 215.008937 238.837039 
L 215.072359 234.851075 
L 215.13578 235.270607 
L 215.262623 216.806355 
L 215.389466 238.208139 
L 215.452887 232.333076 
L 215.516309 235.270607 
L 215.57973 236.739373 
L 215.643152 233.801842 
L 215.706573 240.935504 
L 215.769995 233.801842 
L 215.833416 213.029758 
L 215.896838 221.84235 
L 215.960259 241.355038 
L 216.023681 227.087713 
L 216.087102 209.042993 
L 216.150524 214.918055 
L 216.213945 216.596987 
L 216.277367 214.498522 
L 216.340788 219.743886 
L 216.40421 219.114186 
L 216.657896 206.525794 
L 216.721317 208.203927 
L 216.784738 207.574227 
L 216.84816 206.105461 
L 216.975003 217.436053 
L 217.038424 216.596987 
L 217.101846 216.386821 
L 217.165267 218.065753 
L 217.418953 201.699964 
L 217.482375 205.266395 
L 217.545796 210.931292 
L 217.609218 209.672692 
L 217.672639 209.042993 
L 217.736061 211.980524 
L 217.799482 210.721924 
L 217.862904 209.042993 
L 217.926325 210.931292 
L 217.989747 210.092226 
L 218.053168 210.302392 
L 218.11659 216.176655 
L 218.180011 215.547755 
L 218.433697 197.083501 
L 218.56054 211.141458 
L 218.687383 188.691239 
L 218.877647 212.610224 
L 218.941069 205.266395 
L 219.067912 186.173241 
L 219.194755 209.882859 
L 219.258176 209.042993 
L 219.321598 210.931292 
L 219.385019 208.62346 
L 219.511862 180.508345 
L 219.638705 195.614735 
L 219.765548 178.829415 
L 219.955812 237.578441 
L 220.082655 233.172144 
L 220.146077 234.221376 
L 220.209498 231.283844 
L 220.399763 214.918055 
L 220.463184 209.042993 
L 220.526606 213.029758 
L 220.653449 239.257371 
L 220.71687 237.578441 
L 220.843713 228.976013 
L 220.970556 240.725338 
L 221.097399 214.07899 
L 221.224242 224.569715 
L 221.351085 203.79763 
L 221.477928 220.582952 
L 221.541349 209.672692 
L 221.604771 209.882859 
L 221.731614 227.717413 
L 221.858457 209.672692 
L 221.921878 214.498522 
L 222.112143 209.462526 
L 222.175564 207.154695 
L 222.302407 219.954052 
L 222.365829 208.203927 
L 222.42925 213.659456 
L 222.556093 241.355038 
L 222.619514 230.444778 
L 222.682936 232.962776 
L 222.746357 239.676905 
L 222.809779 236.529207 
L 222.936622 230.025245 
L 223.126886 241.355038 
L 223.380572 224.779882 
L 223.507415 243.453502 
L 223.570837 240.096438 
L 223.824523 211.771158 
L 223.951366 242.194104 
L 224.014787 241.77457 
L 224.205051 264.225588 
L 224.268473 262.127124 
L 224.331894 254.993461 
L 224.395316 255.832527 
L 224.458737 262.337288 
L 224.775845 239.466738 
L 224.839266 241.355038 
L 225.029531 206.525794 
L 225.092952 217.436053 
L 225.219795 236.109675 
L 225.283217 234.221376 
L 225.346638 235.690141 
L 225.473481 242.40427 
L 225.536902 238.417506 
L 225.600324 241.984736 
L 225.663745 240.305804 
L 225.727167 231.283844 
L 225.790588 234.851075 
L 225.85401 243.03397 
L 225.917431 238.208139 
L 225.980853 234.221376 
L 226.171117 243.243336 
L 226.29796 232.333076 
L 226.361382 238.208139 
L 226.424803 233.801842 
L 226.551646 209.672692 
L 226.678489 217.855587 
L 226.741911 215.337589 
L 226.805332 218.904819 
L 226.868753 215.967287 
L 226.932175 216.596987 
L 226.995596 225.828315 
L 227.059018 219.743886 
L 227.185861 203.378098 
L 227.249282 211.771158 
L 227.312704 210.721924 
L 227.376125 206.315627 
L 227.439547 206.945327 
L 227.502968 208.62346 
L 227.56639 208.414093 
L 227.629811 207.154695 
L 227.756654 210.302392 
L 227.820076 205.685929 
L 227.883497 207.993761 
L 227.946919 210.931292 
L 228.01034 207.154695 
L 228.200605 231.49401 
L 228.327447 215.547755 
L 228.390869 217.645421 
L 228.517712 221.84235 
L 228.644555 239.466738 
L 228.834819 208.833627 
L 228.898241 209.253159 
L 229.025084 214.288355 
L 229.088505 211.141458 
L 229.151927 213.44929 
L 229.215348 216.806355 
L 229.342191 205.896095 
L 229.405613 206.315627 
L 229.532456 221.212652 
L 229.595877 220.793118 
L 229.849563 210.092226 
L 230.039827 226.877547 
L 230.356935 201.909332 
L 230.483778 213.868823 
L 230.547199 210.092226 
L 230.610621 211.771158 
L 230.674042 217.645421 
L 230.737464 213.868823 
L 230.800885 208.833627 
L 230.864307 210.931292 
L 230.927728 212.610224 
L 230.99115 212.400058 
L 231.054571 211.141458 
L 231.181414 205.476562 
L 231.244835 213.239922 
L 231.308257 207.993761 
L 231.371678 196.034269 
L 231.498521 213.659456 
L 231.752207 187.012309 
L 232.132736 232.962776 
L 232.259579 214.288355 
L 232.386422 217.016521 
L 232.449844 215.547755 
L 232.576686 239.676905 
L 232.703529 219.534519 
L 232.766951 224.359549 
L 232.893794 234.851075 
L 232.957215 226.877547 
L 233.020637 230.025245 
L 233.084058 238.627673 
L 233.14748 237.368274 
L 233.401166 226.458015 
L 233.464587 223.10095 
L 233.59143 235.060441 
L 233.654852 230.86431 
L 233.781695 215.757121 
L 233.908538 236.739373 
L 234.03538 205.685929 
L 234.162223 227.507247 
L 234.289066 207.364861 
L 234.352488 212.19069 
L 234.479331 203.588264 
L 234.542752 206.525794 
L 234.669595 216.596987 
L 234.733017 214.288355 
L 234.796438 209.672692 
L 234.85986 210.092226 
L 234.923281 214.07899 
L 234.986703 208.62346 
L 235.113546 189.739672 
L 235.240389 220.793118 
L 235.30381 218.065753 
L 235.367232 216.596987 
L 235.494074 183.445078 
L 235.557496 186.382609 
L 235.620917 192.048304 
L 235.684339 185.963075 
L 236.001446 214.918055 
L 236.128289 190.788906 
L 236.191711 165.401156 
L 236.255132 181.97711 
L 236.381975 154.071364 
L 236.508818 137.495409 
L 236.889347 184.913843 
L 236.952768 183.445078 
L 237.079611 158.476861 
L 237.143033 160.155793 
L 237.206454 153.861198 
L 237.269876 158.057329 
L 237.396719 192.257672 
L 237.650405 163.722225 
L 237.840669 157.428427 
L 237.904091 157.218261 
L 237.967512 160.785493 
L 238.094355 155.959662 
L 238.221198 194.14597 
L 238.28462 190.788906 
L 238.348041 184.913843 
L 238.411462 188.270908 
L 238.474884 190.369372 
L 238.72857 174.21375 
L 238.855413 193.096738 
L 238.918834 184.704476 
L 238.982256 183.655244 
L 239.109099 216.596987 
L 239.17252 210.302392 
L 239.299363 206.525794 
L 239.426206 208.203927 
L 239.616471 169.597287 
L 239.679892 178.409881 
L 239.743314 182.186478 
L 239.806735 178.409881 
L 239.933578 194.565503 
L 240.187264 179.039581 
L 240.250685 178.409881 
L 240.377528 186.173241 
L 240.44095 184.913843 
L 240.504371 184.913843 
L 240.567793 188.270908 
L 240.631214 187.222475 
L 240.758057 181.347412 
L 240.8849 193.726437 
L 241.011743 175.891883 
L 241.202007 199.181967 
L 241.265429 210.931292 
L 241.32885 210.721924 
L 241.392272 209.253159 
L 241.455693 213.029758 
L 241.519115 210.092226 
L 241.645958 188.481075 
L 241.709379 189.110773 
L 241.772801 190.579539 
L 241.836222 184.49431 
L 241.899644 185.334176 
L 241.963065 188.061541 
L 242.026487 181.347412 
L 242.15333 212.819591 
L 242.216751 210.092226 
L 242.280173 204.42733 
L 242.343594 214.07899 
L 242.407016 205.896095 
L 242.533859 177.570815 
L 243.04123 211.351624 
L 243.168073 206.315627 
L 243.294916 226.038481 
L 243.358338 220.793118 
L 243.421759 213.868823 
L 243.612024 266.952953 
L 243.738867 257.511459 
L 243.992553 229.395546 
L 244.246238 258.980225 
L 244.30966 211.771158 
L 244.373081 212.400058 
L 244.499924 247.859799 
L 244.690189 207.154695 
L 244.75361 208.203927 
L 244.880453 213.029758 
L 245.007296 207.154695 
L 245.197561 239.466738 
L 245.324404 223.311116 
L 245.451247 202.119498 
L 245.578089 235.060441 
L 245.641511 226.877547 
L 245.704932 211.980524 
L 245.831775 243.873036 
L 245.895197 236.109675 
L 245.958618 236.529207 
L 246.02204 245.761335 
L 246.339147 185.543543 
L 246.46599 236.529207 
L 246.529412 232.962776 
L 246.656255 241.984736 
L 246.973362 213.029758 
L 247.100205 229.395546 
L 247.163626 224.989249 
L 247.227048 222.261884 
L 247.417312 235.479975 
L 247.544155 209.672692 
L 247.607577 214.708688 
L 247.670998 215.337589 
L 247.73442 205.476562 
L 247.861263 236.529207 
L 247.924684 231.49401 
L 247.988106 226.038481 
L 248.114949 237.158907 
L 248.17837 233.38231 
L 248.241792 240.096438 
L 248.432056 205.266395 
L 248.495477 217.645421 
L 248.558899 211.351624 
L 248.62232 206.315627 
L 248.812585 231.913544 
L 249.002849 256.042693 
L 249.319957 232.75261 
L 249.383378 235.270607 
L 249.510221 261.70759 
L 249.573643 254.993461 
L 249.763907 230.025245 
L 249.827328 224.989249 
L 249.954171 238.417506 
L 250.017593 233.801842 
L 250.081014 235.479975 
L 250.144436 240.51597 
L 250.207857 237.368274 
L 250.271279 237.368274 
L 250.3347 243.453502 
L 250.588386 223.311116 
L 250.651808 224.150182 
L 250.715229 241.77457 
L 250.778651 240.51597 
L 250.842072 233.38231 
L 250.968915 243.662869 
L 251.032337 234.221376 
L 251.095758 238.417506 
L 251.15918 241.355038 
L 251.222601 232.75261 
L 251.286022 233.38231 
L 251.349444 241.355038 
L 251.412865 236.529207 
L 251.476287 236.319841 
L 251.60313 259.819291 
L 251.666551 255.62316 
L 251.793394 236.529207 
L 251.856816 241.77457 
L 251.920237 256.252061 
L 251.983659 254.783295 
L 252.173923 231.703378 
L 252.237345 230.654144 
L 252.300766 232.962776 
L 252.364188 231.49401 
L 252.427609 202.958564 
L 252.491031 212.819591 
L 252.617874 237.578441 
L 252.681295 237.368274 
L 252.744716 235.690141 
L 252.808138 229.605711 
L 252.871559 232.962776 
L 252.934981 240.305804 
L 253.061824 218.275121 
L 253.125245 228.136947 
L 253.188667 222.681416 
L 253.442353 168.548055 
L 253.632617 203.79763 
L 253.75946 188.270908 
L 253.886303 218.065753 
L 253.949725 210.092226 
L 254.013146 208.833627 
L 254.076568 218.485287 
L 254.139989 213.868823 
L 254.20341 200.440566 
L 254.266832 201.489798 
L 254.330253 204.42733 
L 254.457096 192.257672 
L 254.520518 210.931292 
L 254.583939 207.784393 
L 254.647361 186.173241 
L 254.710782 193.306904 
L 254.774204 215.128222 
L 254.837625 211.560992 
L 254.901047 203.588264 
L 255.02789 215.967287 
L 255.154733 204.846863 
L 255.218154 205.057028 
L 255.281576 201.699964 
L 255.408419 209.253159 
L 255.535262 192.257672 
L 255.598683 196.453803 
L 255.725526 205.896095 
L 255.852369 188.481075 
L 255.91579 190.788906 
L 256.042633 206.525794 
L 256.106055 202.53903 
L 256.359741 216.386821 
L 256.74027 174.003584 
L 256.803691 177.360649 
L 257.057377 214.918055 
L 257.247641 184.49431 
L 257.311063 187.222475 
L 257.437906 174.633284 
L 257.755013 219.534519 
L 257.818435 216.386821 
L 258.008699 182.396644 
L 258.072121 181.347412 
L 258.389228 193.096738 
L 258.516071 187.222475 
L 258.642914 185.334176 
L 258.706335 186.382609 
L 258.769757 188.900607 
L 258.8966 173.164518 
L 258.960021 176.730949 
L 259.086864 187.851375 
L 259.213707 170.437153 
L 259.277129 177.151281 
L 259.34055 188.270908 
L 259.403972 182.186478 
L 259.467393 180.088014 
L 259.530815 187.642007 
L 259.657658 162.883158 
L 259.721079 164.56209 
L 259.911343 191.627972 
L 260.165029 170.01682 
L 260.291872 158.476861 
L 260.672401 241.14567 
L 260.926087 222.681416 
L 261.05293 203.378098 
L 261.243195 238.837039 
L 261.306616 232.542444 
L 261.433459 239.466738 
L 261.560302 238.837039 
L 261.940831 201.489798 
L 262.131095 208.833627 
L 262.257938 239.047205 
L 262.32136 237.158907 
L 262.384781 227.507247 
L 262.448203 233.38231 
L 262.511624 228.346313 
L 262.701889 201.909332 
L 262.76531 204.217163 
L 262.892153 215.337589 
L 262.955574 203.16873 
L 263.018996 207.574227 
L 263.145839 239.886272 
L 263.20926 233.801842 
L 263.272682 234.640909 
L 263.336103 237.158907 
L 263.462946 206.315627 
L 263.526368 210.302392 
L 263.716632 235.270607 
L 263.780054 234.221376 
L 263.843475 224.989249 
L 263.906897 225.618947 
L 264.03374 236.948741 
L 264.097161 234.431542 
L 264.160583 236.948741 
L 264.287425 216.176655 
L 264.414268 185.334176 
L 264.731376 252.68563 
L 264.794797 249.957464 
L 264.858219 253.105162 
L 264.985062 233.801842 
L 265.048483 240.096438 
L 265.111905 242.823804 
L 265.365591 208.203927 
L 265.429012 209.672692 
L 265.555855 218.485287 
L 265.682698 198.9718 
L 265.809541 214.288355 
L 265.872962 211.771158 
L 265.936384 214.918055 
L 266.063227 234.431542 
L 266.126648 231.074477 
L 266.19007 233.591676 
L 266.253491 234.221376 
L 266.316913 228.765846 
L 266.380334 231.703378 
L 266.443756 242.194104 
L 266.507177 238.417506 
L 266.570599 229.605711 
L 266.63402 232.75261 
L 266.697442 244.083202 
L 266.760863 240.096438 
L 266.887706 212.400058 
L 267.014549 244.712101 
L 267.07797 234.851075 
L 267.141392 236.109675 
L 267.204813 243.243336 
L 267.521921 209.882859 
L 267.585342 210.931292 
L 267.648764 214.498522 
L 267.775607 185.334176 
L 267.839028 191.418604 
L 267.90245 205.476562 
L 267.965871 198.132733 
L 268.029293 185.334176 
L 268.092714 190.369372 
L 268.156136 188.270908 
L 268.409822 166.240223 
L 268.536664 183.445078 
L 268.600086 175.262183 
L 268.726929 223.940016 
L 268.853772 210.511758 
L 268.980615 219.743886 
L 269.107458 204.846863 
L 269.234301 233.38231 
L 269.361144 221.212652 
L 269.424565 226.248647 
L 269.551408 206.735161 
L 269.61483 210.092226 
L 269.678251 212.610224 
L 269.805094 187.431841 
L 269.868516 188.481075 
L 269.931937 191.418604 
L 269.995358 180.927878 
L 270.05878 183.23571 
L 270.249044 211.980524 
L 270.312466 214.07899 
L 270.439309 185.124009 
L 270.566152 216.176655 
L 270.629573 209.042993 
L 270.692995 209.253159 
L 270.756416 204.217163 
L 270.819838 188.270908 
L 270.883259 190.160005 
L 271.073524 203.588264 
L 271.200367 207.993761 
L 271.390631 216.386821 
L 271.580895 220.373585 
L 271.644317 214.498522 
L 271.77116 185.753709 
L 271.898003 217.225887 
L 271.961424 209.253159 
L 272.024846 211.771158 
L 272.088267 214.708688 
L 272.341953 188.061541 
L 272.468796 216.596987 
L 272.532218 214.918055 
L 272.595639 210.931292 
L 272.722482 220.582952 
L 272.849325 199.181967 
L 272.912746 208.833627 
L 272.976168 205.057028 
L 273.039589 189.110773 
L 273.103011 192.677204 
L 273.166432 197.503035 
L 273.229854 189.530307 
L 273.546961 232.333076 
L 273.673804 211.980524 
L 273.737226 212.819591 
L 273.800647 212.819591 
L 273.864069 213.659456 
L 273.92749 218.694653 
L 273.990912 215.547755 
L 274.054333 212.819591 
L 274.117755 213.868823 
L 274.434862 208.414093 
L 274.561705 222.051718 
L 274.625126 219.534519 
L 275.005655 204.846863 
L 275.069077 205.266395 
L 275.132498 213.239922 
L 275.19592 207.784393 
L 275.259341 202.53903 
L 275.322763 208.203927 
L 275.449606 198.132733 
L 275.576449 217.225887 
L 275.63987 211.560992 
L 275.703291 207.154695 
L 275.766713 208.833627 
L 275.893556 213.44929 
L 275.956977 208.833627 
L 276.08382 190.369372 
L 276.147242 201.699964 
L 276.274085 187.222475 
L 276.400928 221.84235 
L 276.464349 196.244435 
L 276.527771 197.922567 
L 276.591192 206.945327 
L 276.718035 180.29818 
L 276.781457 83.572212 
L 276.844878 89.447275 
L 276.971721 73.50102 
L 277.098564 53.568 
L 277.288828 85.670678 
L 277.35225 79.376083 
L 277.415671 82.313613 
L 277.479093 88.187877 
L 277.542514 82.313613 
L 277.605936 82.52298 
L 277.669357 87.558977 
L 277.7962 61.541528 
L 277.986465 100.987234 
L 278.049886 91.335574 
L 278.303572 62.800128 
L 278.430415 64.47906 
L 278.493837 59.862597 
L 278.557258 60.072763 
L 278.620679 60.492295 
L 278.874365 88.187877 
L 278.937787 87.978509 
L 279.001208 83.991746 
L 279.06463 86.299577 
L 279.128051 93.223872 
L 279.191473 90.916041 
L 279.318316 81.054214 
L 279.50858 104.973998 
L 279.572002 101.406767 
L 279.762266 115.674091 
L 279.889109 106.022431 
L 279.952531 108.540429 
L 280.015952 107.491197 
L 280.142795 103.7146 
L 280.206216 103.924766 
L 280.269638 106.652131 
L 280.523324 146.936903 
L 280.713588 130.78128 
L 280.77701 131.200814 
L 280.903853 136.23681 
L 280.967274 135.187578 
L 281.094117 137.285243 
L 281.157539 136.446177 
L 281.22096 139.593873 
L 281.347803 134.347711 
L 281.474646 159.526094 
L 281.601489 115.674091 
L 281.66491 128.053915 
L 281.728332 137.495409 
L 281.791753 135.60711 
L 281.855175 137.914943 
L 281.982018 157.218261 
L 282.045439 151.972898 
L 282.235704 131.620346 
L 282.362547 118.821789 
L 282.425968 119.031155 
L 282.552811 136.23681 
L 282.616233 131.410979 
L 282.679654 132.879744 
L 282.93334 160.785493 
L 283.250447 131.620346 
L 283.313869 134.768044 
L 283.37729 140.852473 
L 283.440712 136.23681 
L 283.504133 137.075875 
L 283.630976 156.169029 
L 283.694398 149.454901 
L 283.757819 153.441664 
L 283.884662 163.093324 
L 284.011505 157.847961 
L 284.074927 165.190989 
L 284.20177 197.083501 
L 284.582298 156.379195 
L 284.64572 162.254258 
L 284.899406 212.19069 
L 284.962827 213.029758 
L 285.08967 245.551169 
L 285.216513 210.092226 
L 285.279935 210.511758 
L 285.343356 214.708688 
L 285.406778 212.19069 
L 285.533621 202.328864 
L 285.597042 203.16873 
L 285.787306 219.743886 
L 285.850728 217.855587 
L 285.914149 215.128222 
L 286.040992 200.021032 
L 286.167835 223.940016 
L 286.294678 209.462526 
L 286.3581 211.141458 
L 286.484943 216.806355 
L 286.548364 213.659456 
L 286.611786 214.498522 
L 286.675207 213.659456 
L 286.80205 199.391333 
L 286.865472 188.900607 
L 286.928893 192.467838 
L 287.055736 234.431542 
L 287.119158 225.618947 
L 287.182579 211.771158 
L 287.246 211.980524 
L 287.309422 209.253159 
L 287.372843 200.231199 
L 287.436265 201.909332 
L 287.880215 240.305804 
L 288.007058 237.788605 
L 288.07048 237.788605 
L 288.197323 215.757121 
L 288.51443 261.497424 
L 288.577851 256.881759 
L 288.704694 263.595888 
L 288.768116 262.337288 
L 288.831537 264.434955 
L 288.95838 234.431542 
L 289.021802 234.851075 
L 289.085223 239.886272 
L 289.148645 236.319841 
L 289.212066 234.431542 
L 289.592595 260.658358 
L 289.909703 235.900307 
L 290.036545 253.734063 
L 290.099967 262.127124 
L 290.417074 236.109675 
L 290.543917 232.333076 
L 290.607339 228.765846 
L 290.734182 239.676905 
L 290.861025 234.431542 
L 290.987868 244.502735 
L 291.051289 241.355038 
L 291.178132 234.011209 
L 291.304975 241.77457 
L 291.368397 239.466738 
L 291.431818 234.640909 
L 291.495239 234.851075 
L 291.558661 234.221376 
L 291.748925 223.73065 
L 291.812347 213.029758 
L 291.875768 213.239922 
L 291.93919 218.694653 
L 292.002611 215.128222 
L 292.066033 209.042993 
L 292.192876 230.025245 
L 292.256297 224.779882 
L 292.38314 211.351624 
L 292.446562 212.19069 
L 292.573405 218.485287 
L 292.700248 208.203927 
L 292.763669 201.909332 
L 292.827091 202.748398 
L 292.890512 210.511758 
L 292.953933 206.315627 
L 293.017355 150.923666 
L 293.080776 165.611322 
L 293.144198 167.079289 
L 293.207619 163.512858 
L 293.334462 181.137246 
L 293.397884 169.597287 
L 293.461305 177.780181 
L 293.524727 193.306904 
L 293.65157 166.030856 
L 293.778413 184.074777 
L 294.032099 136.446177 
L 294.158942 162.044092 
L 294.222363 157.637795 
L 294.285785 150.923666 
L 294.666313 189.32014 
L 294.793156 157.218261 
L 294.856578 164.351924 
L 294.983421 155.329963 
L 295.110264 165.190989 
L 295.173685 164.142556 
L 295.237107 158.267495 
L 295.300528 163.932392 
L 295.427371 190.369372 
L 295.490793 189.739672 
L 295.681057 215.547755 
L 295.871321 198.762433 
L 295.934743 205.896095 
L 296.061586 194.565503 
L 296.125007 201.279632 
L 296.25185 212.19069 
L 296.378693 202.958564 
L 296.442115 203.588264 
L 296.568958 207.364861 
L 296.759222 204.42733 
L 296.886065 211.980524 
L 296.949487 208.203927 
L 297.07633 192.677204 
L 297.139751 205.476562 
L 297.203172 201.070264 
L 297.330015 181.766944 
L 297.393437 187.431841 
L 297.456858 187.012309 
L 297.52028 184.284944 
L 297.583701 185.963075 
L 297.710544 193.51707 
L 297.900809 184.284944 
L 298.027652 181.347412 
L 298.091073 184.913843 
L 298.281338 208.414093 
L 298.344759 211.560992 
L 298.535024 175.052816 
L 298.598445 180.508345 
L 298.788709 186.173241 
L 298.852131 186.173241 
L 298.915552 190.788906 
L 298.978974 188.691239 
L 299.169238 160.36516 
L 299.23266 163.512858 
L 299.296081 161.205026 
L 299.359503 160.575326 
L 299.67661 184.074777 
L 299.740032 180.29818 
L 299.930296 160.155793 
L 299.993718 160.36516 
L 300.057139 158.476861 
L 300.12056 161.414392 
L 300.183982 161.205026 
L 300.310825 154.700264 
L 300.501089 170.01682 
L 300.564511 167.079289 
L 300.691354 139.383708 
L 300.754775 139.593873 
L 300.881618 138.964175 
L 301.262147 214.918055 
L 301.325569 212.19069 
L 301.452412 198.9718 
L 301.515833 204.846863 
L 301.642676 185.124009 
L 301.706097 190.788906 
L 301.83294 215.757121 
L 301.896362 212.400058 
L 301.959783 213.44929 
L 302.023205 214.708688 
L 302.086626 214.07899 
L 302.150048 214.288355 
L 302.340312 187.222475 
L 302.403734 188.691239 
L 302.530577 181.137246 
L 302.593998 184.284944 
L 302.65742 182.606012 
L 302.720841 178.199715 
L 302.847684 205.057028 
L 302.911106 201.699964 
L 303.037948 185.334176 
L 303.10137 188.900607 
L 303.164791 185.334176 
L 303.291634 162.463626 
L 303.418477 188.481075 
L 303.481899 185.543543 
L 303.54532 177.570815 
L 303.735585 215.128222 
L 303.799006 208.203927 
L 303.925849 220.582952 
L 304.052692 209.462526 
L 304.179535 224.989249 
L 304.369799 243.453502 
L 304.496642 228.136947 
L 304.560064 231.283844 
L 304.623485 238.417506 
L 304.750328 229.395546 
L 304.81375 235.479975 
L 304.940593 210.511758 
L 305.004014 219.534519 
L 305.2577 260.44899 
L 305.321122 261.497424 
L 305.574808 236.739373 
L 305.638229 236.109675 
L 305.765072 232.333076 
L 305.891915 236.948741 
L 306.145601 214.498522 
L 306.272444 201.699964 
L 306.779816 239.257371 
L 306.97008 213.239922 
L 307.033502 223.940016 
L 307.160345 201.279632 
L 307.287187 235.690141 
L 307.350609 225.408781 
L 307.41403 210.721924 
L 307.477452 213.868823 
L 307.540873 221.632184 
L 307.731138 206.525794 
L 307.794559 206.735161 
L 307.857981 203.16873 
L 307.921402 204.636697 
L 307.984824 212.610224 
L 308.048245 206.945327 
L 308.365353 173.794216 
L 308.492196 186.802941 
L 308.555617 181.766944 
L 308.619039 172.954352 
L 308.68246 181.556778 
L 308.745881 178.409881 
L 308.809303 164.56209 
L 308.872724 173.58405 
L 308.936146 176.730949 
L 308.999567 162.463626 
L 309.062989 167.079289 
L 309.316675 207.993761 
L 309.380096 208.62346 
L 309.633782 186.802941 
L 309.697204 187.642007 
L 309.760625 193.306904 
L 309.824047 191.208438 
L 309.887468 189.739672 
L 309.95089 190.999072 
L 310.141154 182.606012 
L 310.267997 191.208438 
L 310.648526 159.316727 
L 310.83879 183.025544 
L 310.902212 176.102049 
L 310.965633 163.932392 
L 311.029055 165.611322 
L 311.219319 190.579539 
L 311.473005 162.673792 
L 311.599848 182.186478 
L 311.663269 189.530307 
L 311.726691 185.543543 
L 311.790112 181.556778 
L 311.853534 183.445078 
L 311.916955 186.382609 
L 311.980377 186.173241 
L 312.043798 183.23571 
L 312.170641 194.356136 
L 312.297484 161.624558 
L 312.360906 164.351924 
L 312.487749 186.382609 
L 312.55117 177.570815 
L 312.614592 181.556778 
L 312.678013 185.753709 
L 312.741435 184.49431 
L 312.804856 181.97711 
L 312.931699 166.450389 
L 313.185385 200.860098 
L 313.312228 211.141458 
L 313.375649 205.896095 
L 313.502492 183.86541 
L 313.692757 199.391333 
L 313.756178 211.351624 
L 313.8196 204.846863 
L 313.883021 204.42733 
L 314.136707 237.788605 
L 314.200129 235.060441 
L 314.326972 209.882859 
L 314.390393 214.498522 
L 314.453814 212.19069 
L 314.580657 208.833627 
L 314.7075 214.07899 
L 314.770922 211.560992 
L 314.834343 207.364861 
L 314.897765 208.414093 
L 315.024608 205.896095 
L 315.278294 220.373585 
L 315.341715 218.275121 
L 315.405137 210.931292 
L 315.468558 213.239922 
L 315.53198 211.771158 
L 315.658823 186.592775 
L 315.785666 212.610224 
L 315.849087 208.62346 
L 315.97593 209.672692 
L 316.293037 187.222475 
L 316.356459 188.691239 
L 316.41988 185.753709 
L 316.483302 187.431841 
L 316.546723 188.270908 
L 316.736988 169.177754 
L 316.800409 155.749497 
L 316.863831 162.254258 
L 316.927252 180.29818 
L 316.990674 176.311415 
L 317.054095 160.36516 
L 317.117517 161.624558 
L 317.180938 165.190989 
L 317.24436 157.637795 
L 317.307781 159.526094 
L 317.434624 194.356136 
L 317.561467 185.543543 
L 317.68831 156.379195 
L 317.815153 194.565503 
L 317.878574 193.51707 
L 317.941996 185.753709 
L 318.005417 187.851375 
L 318.068839 189.530307 
L 318.259103 179.039581 
L 318.385946 151.3432 
L 318.576211 189.32014 
L 319.210425 153.861198 
L 319.273847 154.91043 
L 319.40069 188.061541 
L 319.464111 186.592775 
L 319.527533 183.23571 
L 319.654376 190.369372 
L 319.781219 185.334176 
L 319.84464 184.704476 
L 319.971483 167.289455 
L 320.034905 173.794216 
L 320.161748 162.463626 
L 320.28859 195.614735 
L 320.352012 188.481075 
L 320.415433 185.124009 
L 320.605698 189.949839 
L 320.669119 186.802941 
L 320.795962 161.205026 
L 320.859384 164.981624 
L 320.922805 165.190989 
L 320.986227 169.387921 
L 321.11307 192.677204 
L 321.303334 163.302692 
L 321.366756 167.079289 
L 321.493599 188.270908 
L 321.55702 184.704476 
L 321.747284 194.14597 
L 321.874127 186.382609 
L 322.00097 209.253159 
L 322.064392 207.364861 
L 322.191235 180.717712 
L 322.318078 191.208438 
L 322.381499 188.270908 
L 322.571764 199.181967 
L 323.015714 162.673792 
L 323.079135 164.56209 
L 323.142557 163.302692 
L 323.205978 158.896395 
L 323.332821 190.369372 
L 323.396243 187.851375 
L 323.459664 181.137246 
L 323.523086 188.481075 
L 323.586507 187.642007 
L 323.71335 160.575326 
L 323.776772 163.302692 
L 323.840193 164.981624 
L 323.967036 187.431841 
L 324.030458 185.124009 
L 324.093879 180.088014 
L 324.220722 207.154695 
L 324.347565 180.29818 
L 324.474408 193.726437 
L 324.601251 188.481075 
L 324.791515 221.212652 
L 324.854937 217.436053 
L 325.172044 189.32014 
L 325.235466 201.279632 
L 325.298887 200.440566 
L 325.362309 199.601499 
L 325.42573 222.261884 
L 325.489152 207.784393 
L 325.552573 206.945327 
L 325.679416 232.542444 
L 325.933102 196.663969 
L 325.996523 203.588264 
L 326.059945 201.070264 
L 326.123366 184.913843 
L 326.186788 187.222475 
L 326.377052 216.386821 
L 326.503895 220.582952 
L 326.630738 205.266395 
L 326.757581 223.520483 
L 326.884424 206.735161 
L 326.947846 209.462526 
L 327.074689 221.212652 
L 327.13811 219.114186 
L 327.201532 226.458015 
L 327.264953 219.534519 
L 327.455217 183.86541 
L 327.518639 189.110773 
L 327.708903 220.582952 
L 327.772325 223.73065 
L 327.962589 204.846863 
L 328.089432 205.896095 
L 328.152854 202.53903 
L 328.596804 226.038481 
L 328.723647 206.315627 
L 328.787068 208.203927 
L 328.85049 209.462526 
L 328.913911 205.896095 
L 329.040754 235.690141 
L 329.104176 231.074477 
L 329.167597 227.087713 
L 329.29444 240.935504 
L 329.357862 236.319841 
L 329.421283 246.810567 
L 329.548126 214.708688 
L 329.611548 224.150182 
L 329.674969 237.368274 
L 329.738391 223.520483 
L 329.801812 226.248647 
L 329.865234 244.292569 
L 329.928655 240.51597 
L 329.992077 248.279333 
L 330.055498 271.149084 
L 330.11892 270.72955 
L 330.436027 237.158907 
L 330.499448 237.997973 
L 330.753134 265.064653 
L 331.00682 244.502735 
L 331.070242 243.873036 
L 331.197085 259.399758 
L 331.260506 257.091127 
L 331.323928 261.497424 
L 331.387349 260.238824 
L 331.450771 255.202827 
L 331.514192 259.609124 
L 331.767878 234.851075 
L 331.831299 241.14567 
L 331.894721 260.028658 
L 331.958142 259.819291 
L 332.021564 250.79733 
L 332.084985 258.350525 
L 332.148407 252.894996 
L 332.211828 235.270607 
L 332.27525 239.676905 
L 332.338671 244.922268 
L 332.465514 233.38231 
L 332.528936 240.935504 
L 332.655779 232.75261 
L 332.782622 259.609124 
L 332.846043 258.980225 
L 333.036308 236.529207 
L 333.16315 243.873036 
L 333.607101 209.253159 
L 333.733944 240.305804 
L 333.797365 238.837039 
L 333.924208 244.083202 
L 333.98763 235.690141 
L 334.051051 237.158907 
L 334.114473 241.14567 
L 334.241316 228.136947 
L 334.368159 240.305804 
L 334.621844 202.748398 
L 334.748687 235.690141 
L 334.812109 235.060441 
L 334.87553 215.547755 
L 334.938952 219.324353 
L 335.065795 240.305804 
L 335.129216 234.221376 
L 335.192638 236.109675 
L 335.256059 241.355038 
L 335.319481 237.788605 
L 335.509745 213.239922 
L 335.573167 211.771158 
L 335.636588 212.819591 
L 335.763431 218.694653 
L 335.890274 205.685929 
L 336.017117 215.757121 
L 336.080538 211.771158 
L 336.207381 241.565204 
L 336.270803 237.368274 
L 336.334224 236.948741 
L 336.397646 238.837039 
L 336.461067 235.479975 
L 336.524489 237.788605 
L 336.58791 240.935504 
L 336.841596 227.717413 
L 337.095282 212.400058 
L 337.158704 216.176655 
L 337.412389 241.355038 
L 337.602654 230.444778 
L 337.919761 201.699964 
L 338.236869 238.208139 
L 338.617398 183.86541 
L 338.744241 233.172144 
L 338.807662 228.556479 
L 338.871083 225.199415 
L 338.934505 243.243336 
L 338.997926 235.270607 
L 339.124769 202.119498 
L 339.315034 210.302392 
L 339.378455 209.672692 
L 339.441877 209.253159 
L 339.56872 213.659456 
L 339.758984 205.266395 
L 339.885827 206.525794 
L 340.076092 180.29818 
L 340.139513 186.382609 
L 340.202935 191.627972 
L 340.266356 189.739672 
L 340.393199 184.49431 
L 340.520042 189.110773 
L 340.837149 175.262183 
L 340.900571 173.58405 
L 341.090835 193.51707 
L 341.154257 190.999072 
L 341.407943 169.807453 
L 341.471364 167.499621 
L 341.598207 198.552267 
L 341.661629 195.405369 
L 341.851893 217.645421 
L 341.915314 210.721924 
L 341.978736 207.574227 
L 342.232422 181.347412 
L 342.422686 217.225887 
L 342.549529 209.462526 
L 342.676372 216.386821 
L 342.739794 221.212652 
L 343.056901 182.186478 
L 343.310587 189.530307 
L 343.43743 217.436053 
L 343.500851 214.288355 
L 343.564273 209.253159 
L 343.627694 216.806355 
L 343.691116 211.560992 
L 343.88138 162.254258 
L 344.071645 187.431841 
L 344.135066 178.199715 
L 344.198488 184.49431 
L 344.325331 218.275121 
L 344.642438 181.97711 
L 344.832702 209.672692 
L 344.896124 209.042993 
L 344.959545 210.302392 
L 345.086388 205.266395 
L 345.213231 214.07899 
L 345.276653 212.400058 
L 345.403496 220.373585 
L 345.530339 197.503035 
L 345.59376 187.851375 
L 345.847446 249.118398 
L 345.974289 241.14567 
L 346.101132 239.047205 
L 346.164553 233.801842 
L 346.227975 234.221376 
L 346.291396 234.011209 
L 346.481661 212.400058 
L 346.545082 212.610224 
L 346.608504 207.364861 
L 346.671925 208.203927 
L 346.735347 215.547755 
L 346.86219 185.124009 
L 347.179297 243.662869 
L 347.242719 242.194104 
L 347.30614 235.060441 
L 347.369562 241.984736 
L 347.496404 217.855587 
L 347.559826 226.877547 
L 347.623247 234.431542 
L 347.75009 200.650732 
L 347.876933 229.605711 
L 348.067198 202.748398 
L 348.194041 215.128222 
L 348.320884 202.958564 
L 348.384305 210.302392 
L 348.511148 190.369372 
L 348.637991 207.574227 
L 348.701413 203.588264 
L 348.764834 206.945327 
L 348.955098 181.137246 
L 349.01852 187.851375 
L 349.081941 188.900607 
L 349.208784 180.508345 
L 349.272206 184.704476 
L 349.335627 185.334176 
L 349.46247 162.673792 
L 349.589313 168.758221 
L 349.716156 159.945626 
L 349.779578 168.758221 
L 349.906421 239.257371 
L 349.969842 236.739373 
L 350.033264 236.948741 
L 350.096685 239.466738 
L 350.28695 228.765846 
L 350.413792 238.208139 
L 350.477214 234.221376 
L 350.540635 235.270607 
L 350.604057 237.788605 
L 350.7309 231.074477 
L 350.857743 240.725338 
L 350.984586 221.84235 
L 351.048007 231.703378 
L 351.111429 229.605711 
L 351.17485 208.414093 
L 351.238272 214.918055 
L 351.365115 239.466738 
L 351.428536 239.047205 
L 351.491958 243.453502 
L 351.618801 214.288355 
L 351.745644 240.305804 
L 351.809065 237.368274 
L 351.935908 215.967287 
L 351.999329 203.588264 
L 352.062751 206.105461 
L 352.44328 236.319841 
L 352.506701 233.591676 
L 352.570123 226.458015 
L 352.633544 230.654144 
L 352.696966 235.900307 
L 352.823809 216.806355 
L 352.88723 206.525794 
L 352.950652 209.042993 
L 353.014073 216.596987 
L 353.077495 215.757121 
L 353.140916 210.511758 
L 353.204337 212.19069 
L 353.267759 211.141458 
L 353.458023 196.874133 
L 353.521445 185.543543 
L 353.648288 221.212652 
L 353.711709 218.275121 
L 353.775131 215.967287 
L 353.901974 240.51597 
L 354.092238 213.029758 
L 354.15566 213.868823 
L 354.219081 210.511758 
L 354.282503 210.721924 
L 354.345924 210.721924 
L 354.409346 208.203927 
L 354.59961 216.176655 
L 354.726453 247.649633 
L 354.789874 243.243336 
L 354.853296 234.221376 
L 354.916717 235.479975 
L 354.980139 234.221376 
L 355.04356 229.395546 
L 355.106982 232.542444 
L 355.170403 234.640909 
L 355.233825 232.962776 
L 355.297246 235.479975 
L 355.487511 215.128222 
L 355.550932 217.225887 
L 355.614354 216.596987 
L 355.741197 235.270607 
L 355.804618 230.654144 
L 355.86804 233.591676 
L 355.931461 229.605711 
L 356.058304 214.918055 
L 356.121725 219.954052 
L 356.248568 207.364861 
L 356.31199 211.980524 
L 356.438833 204.217163 
L 356.502254 207.364861 
L 356.629097 191.838138 
L 356.75594 209.672692 
L 356.819362 202.328864 
L 356.882783 203.79763 
L 357.009626 209.462526 
L 357.073048 208.62346 
L 357.199891 180.508345 
L 357.263312 183.655244 
L 357.326734 185.543543 
L 357.453577 171.485586 
L 357.580419 197.713201 
L 357.643841 181.556778 
L 357.707262 182.396644 
L 357.770684 190.999072 
L 358.151213 133.508646 
L 358.214634 135.816477 
L 358.278056 133.508646 
L 358.595163 154.490898 
L 358.722006 153.231498 
L 358.785428 156.169029 
L 358.975692 126.794517 
L 359.039113 134.557878 
L 359.165956 160.155793 
L 359.292799 134.977411 
L 359.356221 139.173542 
L 359.483064 127.633583 
L 359.546485 132.03988 
L 359.609907 132.669578 
L 359.673328 127.004683 
L 359.73675 128.473449 
L 359.800171 132.250046 
L 359.863593 128.682815 
L 359.990436 156.169029 
L 360.053857 150.923666 
L 360.117279 144.209538 
L 360.307543 159.736261 
L 360.370964 159.316727 
L 360.497807 143.790004 
L 360.62465 161.205026 
L 360.688072 154.700264 
L 360.751493 158.687027 
L 360.941758 173.58405 
L 361.068601 159.106561 
L 361.132022 159.316727 
L 361.44913 176.311415 
L 361.575973 188.481075 
L 361.639394 189.739672 
L 361.702816 194.356136 
L 361.766237 190.999072 
L 361.956501 183.86541 
L 362.083344 192.88737 
L 362.273609 187.642007 
L 362.33703 188.481075 
L 362.590716 213.029758 
L 362.654138 209.042993 
L 362.780981 183.23571 
L 363.224931 214.918055 
L 363.542038 180.508345 
L 363.668881 188.061541 
L 363.732303 187.222475 
L 363.795724 180.927878 
L 363.859146 184.074777 
L 363.922567 197.083501 
L 363.985989 195.195203 
L 364.04941 191.418604 
L 364.176253 207.993761 
L 364.303096 179.878647 
L 364.366518 182.396644 
L 364.429939 180.088014 
L 364.493361 180.717712 
L 364.556782 186.173241 
L 364.620204 183.86541 
L 364.683625 185.334176 
L 364.747046 194.775669 
L 364.810468 191.838138 
L 364.873889 184.284944 
L 365.000732 201.489798 
L 365.064154 199.391333 
L 365.190997 189.530307 
L 365.31784 215.337589 
L 365.381261 214.498522 
L 365.444683 215.757121 
L 365.508104 224.359549 
L 365.571526 219.324353 
L 365.698369 210.931292 
L 365.76179 212.610224 
L 365.888633 209.462526 
L 366.015476 218.904819 
L 366.078898 209.672692 
L 366.142319 214.288355 
L 366.269162 231.074477 
L 366.459426 210.511758 
L 366.586269 213.659456 
L 366.713112 207.364861 
L 367.03022 222.681416 
L 367.093641 221.422816 
L 367.220484 206.105461 
L 367.347327 236.109675 
L 367.47417 206.945327 
L 367.601013 221.84235 
L 367.727856 210.721924 
L 367.791277 215.967287 
L 367.854699 213.44929 
L 368.044963 193.096738 
L 368.108385 196.453803 
L 368.235228 231.283844 
L 368.298649 229.815078 
L 368.552335 202.958564 
L 368.679178 206.945327 
L 368.7426 204.007796 
L 369.059707 233.38231 
L 369.123128 235.270607 
L 369.18655 230.234612 
L 369.249971 234.851075 
L 369.313393 230.654144 
L 369.376814 218.694653 
L 369.440236 223.940016 
L 369.693922 255.832527 
L 370.011029 271.149084 
L 370.137872 233.172144 
L 370.201294 233.38231 
L 370.264715 239.257371 
L 370.328137 236.109675 
L 370.391558 237.578441 
L 370.645244 271.35925 
L 370.708665 276.604613 
L 371.025773 238.208139 
L 371.089194 240.096438 
L 371.279459 265.694353 
L 371.469723 240.725338 
L 371.596566 251.636396 
L 371.723409 244.502735 
L 371.786831 245.551169 
L 371.850252 247.019933 
L 371.913673 245.551169 
L 371.977095 245.9715 
L 372.040516 245.761335 
L 372.103938 242.614436 
L 372.167359 243.243336 
L 372.230781 249.957464 
L 372.294202 248.069166 
L 372.357624 239.886272 
L 372.484467 265.274021 
L 372.547888 254.993461 
L 372.61131 236.948741 
L 372.674731 239.257371 
L 372.738153 243.243336 
L 372.801574 235.900307 
L 372.864996 236.948741 
L 372.928417 238.208139 
L 373.05526 225.618947 
L 373.118682 234.221376 
L 373.182103 228.136947 
L 373.245525 224.989249 
L 373.435789 239.466738 
L 373.49921 238.208139 
L 373.626053 209.462526 
L 373.752896 218.485287 
L 373.943161 207.154695 
L 374.006582 206.735161 
L 374.070004 211.141458 
L 374.133425 207.784393 
L 374.196847 209.882859 
L 374.32369 227.087713 
L 374.387111 218.275121 
L 374.513954 244.083202 
L 374.640797 225.199415 
L 374.704219 230.654144 
L 374.831061 210.721924 
L 374.894483 215.547755 
L 374.957904 215.967287 
L 375.021326 214.708688 
L 375.148169 194.14597 
L 375.21159 195.195203 
L 375.338433 208.414093 
L 375.465276 195.824901 
L 375.592119 215.757121 
L 375.655541 214.288355 
L 375.718962 206.735161 
L 375.845805 217.855587 
L 375.972648 210.931292 
L 376.03607 215.128222 
L 376.099491 212.819591 
L 376.162913 207.784393 
L 376.226334 209.882859 
L 376.289755 213.029758 
L 376.416598 203.79763 
L 376.48002 206.525794 
L 376.543441 208.414093 
L 376.860549 245.761335 
L 376.987392 240.305804 
L 377.050813 241.14567 
L 377.114235 239.466738 
L 377.241078 250.16763 
L 377.367921 239.257371 
L 377.431342 241.14567 
L 377.494764 238.208139 
L 377.748449 252.68563 
L 377.875292 263.595888 
L 377.938714 263.806054 
L 378.002135 266.323253 
L 378.065557 264.645121 
L 378.1924 259.189592 
L 378.255821 261.497424 
L 378.319243 259.609124 
L 378.572929 237.158907 
L 378.63635 240.51597 
L 378.699772 240.096438 
L 378.763193 239.676905 
L 378.826615 245.761335 
L 378.890036 244.292569 
L 379.0803 235.479975 
L 379.207143 229.605711 
L 379.460829 248.279333 
L 379.524251 254.573928 
L 379.587672 250.16763 
L 379.714515 220.163418 
L 379.841358 238.837039 
L 379.90478 234.431542 
L 379.968201 234.011209 
L 380.031623 237.368274 
L 380.095044 236.948741 
L 380.158466 237.158907 
L 380.285309 215.547755 
L 380.412152 216.596987 
L 380.475573 211.351624 
L 380.538994 211.980524 
L 380.602416 214.708688 
L 380.729259 209.882859 
L 380.856102 214.918055 
L 381.173209 198.552267 
L 381.300052 209.462526 
L 381.426895 189.32014 
L 381.490317 190.999072 
L 381.61716 210.302392 
L 381.744003 189.32014 
L 381.807424 190.160005 
L 382.124531 184.49431 
L 382.441639 210.511758 
L 382.50506 207.784393 
L 382.631903 196.453803 
L 382.695325 200.440566 
L 382.822168 178.620047 
L 383.012432 217.855587 
L 383.075854 214.708688 
L 383.139275 211.980524 
L 383.202697 212.819591 
L 383.32954 217.436053 
L 383.456382 188.481075 
L 383.519804 189.110773 
L 383.583225 192.257672 
L 383.710068 184.074777 
L 383.77349 188.061541 
L 383.836911 186.382609 
L 383.900333 179.248947 
L 384.027176 204.636697 
L 384.090597 198.762433 
L 384.154019 183.655244 
L 384.21744 187.012309 
L 384.280862 190.788906 
L 384.407705 165.820689 
L 384.471126 167.499621 
L 384.597969 192.467838 
L 384.661391 187.851375 
L 384.724812 184.074777 
L 384.851655 218.694653 
L 384.915076 215.337589 
L 384.978498 207.784393 
L 385.041919 210.511758 
L 385.105341 209.462526 
L 385.168762 203.588264 
L 385.232184 204.636697 
L 385.359027 222.051718 
L 385.549291 241.14567 
L 385.676134 223.73065 
L 385.802977 237.158907 
L 385.866399 231.49401 
L 385.92982 233.172144 
L 385.993242 236.319841 
L 386.120085 223.73065 
L 386.246927 236.948741 
L 386.500613 263.595888 
L 386.564035 259.399758 
L 386.627456 260.868524 
L 386.690878 257.301293 
L 386.817721 241.77457 
L 387.071407 253.734063 
L 387.19825 233.172144 
L 387.261671 241.984736 
L 387.325093 241.14567 
L 387.451936 210.931292 
L 387.769043 257.511459 
L 387.832464 258.140359 
L 387.895886 251.845764 
L 387.959307 255.202827 
L 388.022729 252.68563 
L 388.149572 238.417506 
L 388.212993 242.40427 
L 388.339836 233.38231 
L 388.466679 251.216864 
L 388.530101 246.391033 
L 388.656944 233.801842 
L 388.720365 234.640909 
L 388.783787 232.75261 
L 389.037473 211.980524 
L 389.100894 217.855587 
L 389.164315 235.270607 
L 389.227737 230.444778 
L 389.291158 217.225887 
L 389.35458 221.212652 
L 389.418001 219.954052 
L 389.544844 198.132733 
L 389.671687 209.882859 
L 389.79853 189.949839 
L 389.861952 193.51707 
L 389.925373 200.860098 
L 390.052216 184.49431 
L 390.115638 187.642007 
L 390.179059 188.691239 
L 390.305902 185.124009 
L 390.369324 190.160005 
L 390.496167 228.976013 
L 390.559588 228.765846 
L 390.623009 224.569715 
L 390.686431 224.989249 
L 390.749852 228.556479 
L 390.876695 210.931292 
L 391.003538 236.529207 
L 391.06696 227.926781 
L 391.130381 212.819591 
L 391.193803 217.855587 
L 391.257224 219.324353 
L 391.320646 211.980524 
L 391.447489 235.270607 
L 391.574332 209.462526 
L 391.637753 215.128222 
L 391.701175 215.967287 
L 391.828018 206.105461 
L 392.018282 214.708688 
L 392.145125 210.302392 
L 392.208546 211.141458 
L 392.335389 223.520483 
L 392.398811 232.542444 
L 392.462232 225.199415 
L 392.589075 197.083501 
L 392.715918 206.525794 
L 392.77934 204.636697 
L 392.906183 207.364861 
L 392.969604 206.105461 
L 393.096447 217.436053 
L 393.286712 209.462526 
L 393.350133 211.771158 
L 393.413554 209.672692 
L 393.540397 191.208438 
L 393.66724 210.092226 
L 393.730662 198.342899 
L 393.794083 200.231199 
L 393.857505 203.378098 
L 394.047769 194.356136 
L 394.111191 184.49431 
L 394.301455 211.980524 
L 394.364877 210.721924 
L 394.49172 223.520483 
L 394.555141 221.632184 
L 394.681984 208.414093 
L 394.93567 222.891582 
L 395.062513 215.547755 
L 395.316199 240.305804 
L 395.37962 243.03397 
L 395.506463 234.640909 
L 395.569885 236.948741 
L 395.696728 224.359549 
L 395.760149 224.569715 
L 395.886992 235.900307 
L 396.013835 229.815078 
L 396.077257 231.074477 
L 396.2041 234.640909 
L 396.330942 228.556479 
L 396.457785 240.305804 
L 396.521207 236.529207 
L 396.711471 224.989249 
L 396.838314 210.511758 
L 396.965157 215.128222 
L 397.028579 214.498522 
L 397.345686 197.922567 
L 397.472529 187.012309 
L 397.535951 187.851375 
L 397.726215 183.655244 
L 398.043322 152.392432 
L 398.106744 159.945626 
L 398.170165 155.539331 
L 398.233587 147.356437 
L 398.36043 158.896395 
L 398.423851 152.811966 
L 398.487273 154.071364 
" clip-path="url(#pbbb889ec4c)" style="fill: none; stroke: #1f77b4; stroke-width: 1.5; stroke-linecap: square"/>
   </g>
   <g id="patch_3">
    <path d="M 57.6 307.584 
L 57.6 41.472 
" style="fill: none; stroke: #000000; stroke-width: 0.8; stroke-linejoin: miter; stroke-linecap: square"/>
   </g>
   <g id="patch_4">
    <path d="M 414.72 307.584 
L 414.72 41.472 
" style="fill: none; stroke: #000000; stroke-width: 0.8; stroke-linejoin: miter; stroke-linecap: square"/>
   </g>
   <g id="patch_5">
    <path d="M 57.6 307.584 
L 414.72 307.584 
" style="fill: none; stroke: #000000; stroke-width: 0.8; stroke-linejoin: miter; stroke-linecap: square"/>
   </g>
   <g id="patch_6">
    <path d="M 57.6 41.472 
L 414.72 41.472 
" style="fill: none; stroke: #000000; stroke-width: 0.8; stroke-linejoin: miter; stroke-linecap: square"/>
   </g>
   <g id="legend_1">
    <g id="patch_7">
     <path d="M 354.074688 64.150125 
L 407.72 64.150125 
Q 409.72 64.150125 409.72 62.150125 
L 409.72 48.472 
Q 409.72 46.472 407.72 46.472 
L 354.074688 46.472 
Q 352.074688 46.472 352.074688 48.472 
L 352.074688 62.150125 
Q 352.074688 64.150125 354.074688 64.150125 
z
" style="fill: #ffffff; opacity: 0.8; stroke: #cccccc; stroke-linejoin: miter"/>
    </g>
    <g id="line2d_16">
     <path d="M 356.074688 54.570438 
L 366.074688 54.570438 
L 376.074688 54.570438 
" style="fill: none; stroke: #1f77b4; stroke-width: 1.5; stroke-linecap: square"/>
    </g>
    <g id="text_15">
     <!-- set2 -->
     <g transform="translate(384.074688 58.070438)scale(0.1 -0.1)">
      <defs>
       <path id="DejaVuSans-73" d="M 2834 3397 
L 2834 2853 
Q 2591 2978 2328 3040 
Q 2066 3103 1784 3103 
Q 1356 3103 1142 2972 
Q 928 2841 928 2578 
Q 928 2378 1081 2264 
Q 1234 2150 1697 2047 
L 1894 2003 
Q 2506 1872 2764 1633 
Q 3022 1394 3022 966 
Q 3022 478 2636 193 
Q 2250 -91 1575 -91 
Q 1294 -91 989 -36 
Q 684 19 347 128 
L 347 722 
Q 666 556 975 473 
Q 1284 391 1588 391 
Q 1994 391 2212 530 
Q 2431 669 2431 922 
Q 2431 1156 2273 1281 
Q 2116 1406 1581 1522 
L 1381 1569 
Q 847 1681 609 1914 
Q 372 2147 372 2553 
Q 372 3047 722 3315 
Q 1072 3584 1716 3584 
Q 2034 3584 2315 3537 
Q 2597 3491 2834 3397 
z
" transform="scale(0.015625)"/>
       <path id="DejaVuSans-65" d="M 3597 1894 
L 3597 1613 
L 953 1613 
Q 991 1019 1311 708 
Q 1631 397 2203 397 
Q 2534 397 2845 478 
Q 3156 559 3463 722 
L 3463 178 
Q 3153 47 2828 -22 
Q 2503 -91 2169 -91 
Q 1331 -91 842 396 
Q 353 884 353 1716 
Q 353 2575 817 3079 
Q 1281 3584 2069 3584 
Q 2775 3584 3186 3129 
Q 3597 2675 3597 1894 
z
M 3022 2063 
Q 3016 2534 2758 2815 
Q 2500 3097 2075 3097 
Q 1594 3097 1305 2825 
Q 1016 2553 972 2059 
L 3022 2063 
z
" transform="scale(0.015625)"/>
       <path id="DejaVuSans-74" d="M 1172 4494 
L 1172 3500 
L 2356 3500 
L 2356 3053 
L 1172 3053 
L 1172 1153 
Q 1172 725 1289 603 
Q 1406 481 1766 481 
L 2356 481 
L 2356 0 
L 1766 0 
Q 1100 0 847 248 
Q 594 497 594 1153 
L 594 3053 
L 172 3053 
L 172 3500 
L 594 3500 
L 594 4494 
L 1172 4494 
z
" transform="scale(0.015625)"/>
      </defs>
      <use xlink:href="#DejaVuSans-73"/>
      <use xlink:href="#DejaVuSans-65" x="52.099609"/>
      <use xlink:href="#DejaVuSans-74" x="113.623047"/>
      <use xlink:href="#DejaVuSans-32" x="152.832031"/>
     </g>
    </g>
   </g>
  </g>
 </g>
 <defs>
  <clipPath id="pbbb889ec4c">
   <rect x="57.6" y="41.472" width="357.12" height="266.112"/>
  </clipPath>
 </defs>
</svg>
