<?xml version="1.0" encoding="utf-8" standalone="no"?>
<!DOCTYPE svg PUBLIC "-//W3C//DTD SVG 1.1//EN"
  "http://www.w3.org/Graphics/SVG/1.1/DTD/svg11.dtd">
<svg xmlns:xlink="http://www.w3.org/1999/xlink" width="460.8pt" height="345.6pt" viewBox="0 0 460.8 345.6" xmlns="http://www.w3.org/2000/svg" version="1.1">
 <metadata>
  <rdf:RDF xmlns:dc="http://purl.org/dc/elements/1.1/" xmlns:cc="http://creativecommons.org/ns#" xmlns:rdf="http://www.w3.org/1999/02/22-rdf-syntax-ns#">
   <cc:Work>
    <dc:type rdf:resource="http://purl.org/dc/dcmitype/StillImage"/>
    <dc:date>2022-08-11T15:18:52.088727</dc:date>
    <dc:format>image/svg+xml</dc:format>
    <dc:creator>
     <cc:Agent>
      <dc:title>Matplotlib v3.5.2, https://matplotlib.org/</dc:title>
     </cc:Agent>
    </dc:creator>
   </cc:Work>
  </rdf:RDF>
 </metadata>
 <defs>
  <style type="text/css">*{stroke-linejoin: round; stroke-linecap: butt}</style>
 </defs>
 <g id="figure_1">
  <g id="patch_1">
   <path d="M 0 345.6 
L 460.8 345.6 
L 460.8 0 
L 0 0 
z
" style="fill: #ffffff"/>
  </g>
  <g id="axes_1">
   <g id="patch_2">
    <path d="M 57.6 307.584 
L 414.72 307.584 
L 414.72 41.472 
L 57.6 41.472 
z
" style="fill: #ffffff"/>
   </g>
   <g id="matplotlib.axis_1">
    <g id="xtick_1">
     <g id="line2d_1">
      <defs>
       <path id="m6ddd634562" d="M 0 0 
L 0 3.5 
" style="stroke: #000000; stroke-width: 0.8"/>
      </defs>
      <g>
       <use xlink:href="#m6ddd634562" x="73.832727" y="307.584" style="stroke: #000000; stroke-width: 0.8"/>
      </g>
     </g>
     <g id="text_1">
      <!-- 0 -->
      <g transform="translate(70.651477 322.182437)scale(0.1 -0.1)">
       <defs>
        <path id="DejaVuSans-30" d="M 2034 4250 
Q 1547 4250 1301 3770 
Q 1056 3291 1056 2328 
Q 1056 1369 1301 889 
Q 1547 409 2034 409 
Q 2525 409 2770 889 
Q 3016 1369 3016 2328 
Q 3016 3291 2770 3770 
Q 2525 4250 2034 4250 
z
M 2034 4750 
Q 2819 4750 3233 4129 
Q 3647 3509 3647 2328 
Q 3647 1150 3233 529 
Q 2819 -91 2034 -91 
Q 1250 -91 836 529 
Q 422 1150 422 2328 
Q 422 3509 836 4129 
Q 1250 4750 2034 4750 
z
" transform="scale(0.015625)"/>
       </defs>
       <use xlink:href="#DejaVuSans-30"/>
      </g>
     </g>
    </g>
    <g id="xtick_2">
     <g id="line2d_2">
      <g>
       <use xlink:href="#m6ddd634562" x="137.254205" y="307.584" style="stroke: #000000; stroke-width: 0.8"/>
      </g>
     </g>
     <g id="text_2">
      <!-- 1000 -->
      <g transform="translate(124.529205 322.182437)scale(0.1 -0.1)">
       <defs>
        <path id="DejaVuSans-31" d="M 794 531 
L 1825 531 
L 1825 4091 
L 703 3866 
L 703 4441 
L 1819 4666 
L 2450 4666 
L 2450 531 
L 3481 531 
L 3481 0 
L 794 0 
L 794 531 
z
" transform="scale(0.015625)"/>
       </defs>
       <use xlink:href="#DejaVuSans-31"/>
       <use xlink:href="#DejaVuSans-30" x="63.623047"/>
       <use xlink:href="#DejaVuSans-30" x="127.246094"/>
       <use xlink:href="#DejaVuSans-30" x="190.869141"/>
      </g>
     </g>
    </g>
    <g id="xtick_3">
     <g id="line2d_3">
      <g>
       <use xlink:href="#m6ddd634562" x="200.675683" y="307.584" style="stroke: #000000; stroke-width: 0.8"/>
      </g>
     </g>
     <g id="text_3">
      <!-- 2000 -->
      <g transform="translate(187.950683 322.182437)scale(0.1 -0.1)">
       <defs>
        <path id="DejaVuSans-32" d="M 1228 531 
L 3431 531 
L 3431 0 
L 469 0 
L 469 531 
Q 828 903 1448 1529 
Q 2069 2156 2228 2338 
Q 2531 2678 2651 2914 
Q 2772 3150 2772 3378 
Q 2772 3750 2511 3984 
Q 2250 4219 1831 4219 
Q 1534 4219 1204 4116 
Q 875 4013 500 3803 
L 500 4441 
Q 881 4594 1212 4672 
Q 1544 4750 1819 4750 
Q 2544 4750 2975 4387 
Q 3406 4025 3406 3419 
Q 3406 3131 3298 2873 
Q 3191 2616 2906 2266 
Q 2828 2175 2409 1742 
Q 1991 1309 1228 531 
z
" transform="scale(0.015625)"/>
       </defs>
       <use xlink:href="#DejaVuSans-32"/>
       <use xlink:href="#DejaVuSans-30" x="63.623047"/>
       <use xlink:href="#DejaVuSans-30" x="127.246094"/>
       <use xlink:href="#DejaVuSans-30" x="190.869141"/>
      </g>
     </g>
    </g>
    <g id="xtick_4">
     <g id="line2d_4">
      <g>
       <use xlink:href="#m6ddd634562" x="264.097161" y="307.584" style="stroke: #000000; stroke-width: 0.8"/>
      </g>
     </g>
     <g id="text_4">
      <!-- 3000 -->
      <g transform="translate(251.372161 322.182437)scale(0.1 -0.1)">
       <defs>
        <path id="DejaVuSans-33" d="M 2597 2516 
Q 3050 2419 3304 2112 
Q 3559 1806 3559 1356 
Q 3559 666 3084 287 
Q 2609 -91 1734 -91 
Q 1441 -91 1130 -33 
Q 819 25 488 141 
L 488 750 
Q 750 597 1062 519 
Q 1375 441 1716 441 
Q 2309 441 2620 675 
Q 2931 909 2931 1356 
Q 2931 1769 2642 2001 
Q 2353 2234 1838 2234 
L 1294 2234 
L 1294 2753 
L 1863 2753 
Q 2328 2753 2575 2939 
Q 2822 3125 2822 3475 
Q 2822 3834 2567 4026 
Q 2313 4219 1838 4219 
Q 1578 4219 1281 4162 
Q 984 4106 628 3988 
L 628 4550 
Q 988 4650 1302 4700 
Q 1616 4750 1894 4750 
Q 2613 4750 3031 4423 
Q 3450 4097 3450 3541 
Q 3450 3153 3228 2886 
Q 3006 2619 2597 2516 
z
" transform="scale(0.015625)"/>
       </defs>
       <use xlink:href="#DejaVuSans-33"/>
       <use xlink:href="#DejaVuSans-30" x="63.623047"/>
       <use xlink:href="#DejaVuSans-30" x="127.246094"/>
       <use xlink:href="#DejaVuSans-30" x="190.869141"/>
      </g>
     </g>
    </g>
    <g id="xtick_5">
     <g id="line2d_5">
      <g>
       <use xlink:href="#m6ddd634562" x="327.518639" y="307.584" style="stroke: #000000; stroke-width: 0.8"/>
      </g>
     </g>
     <g id="text_5">
      <!-- 4000 -->
      <g transform="translate(314.793639 322.182437)scale(0.1 -0.1)">
       <defs>
        <path id="DejaVuSans-34" d="M 2419 4116 
L 825 1625 
L 2419 1625 
L 2419 4116 
z
M 2253 4666 
L 3047 4666 
L 3047 1625 
L 3713 1625 
L 3713 1100 
L 3047 1100 
L 3047 0 
L 2419 0 
L 2419 1100 
L 313 1100 
L 313 1709 
L 2253 4666 
z
" transform="scale(0.015625)"/>
       </defs>
       <use xlink:href="#DejaVuSans-34"/>
       <use xlink:href="#DejaVuSans-30" x="63.623047"/>
       <use xlink:href="#DejaVuSans-30" x="127.246094"/>
       <use xlink:href="#DejaVuSans-30" x="190.869141"/>
      </g>
     </g>
    </g>
    <g id="xtick_6">
     <g id="line2d_6">
      <g>
       <use xlink:href="#m6ddd634562" x="390.940117" y="307.584" style="stroke: #000000; stroke-width: 0.8"/>
      </g>
     </g>
     <g id="text_6">
      <!-- 5000 -->
      <g transform="translate(378.215117 322.182437)scale(0.1 -0.1)">
       <defs>
        <path id="DejaVuSans-35" d="M 691 4666 
L 3169 4666 
L 3169 4134 
L 1269 4134 
L 1269 2991 
Q 1406 3038 1543 3061 
Q 1681 3084 1819 3084 
Q 2600 3084 3056 2656 
Q 3513 2228 3513 1497 
Q 3513 744 3044 326 
Q 2575 -91 1722 -91 
Q 1428 -91 1123 -41 
Q 819 9 494 109 
L 494 744 
Q 775 591 1075 516 
Q 1375 441 1709 441 
Q 2250 441 2565 725 
Q 2881 1009 2881 1497 
Q 2881 1984 2565 2268 
Q 2250 2553 1709 2553 
Q 1456 2553 1204 2497 
Q 953 2441 691 2322 
L 691 4666 
z
" transform="scale(0.015625)"/>
       </defs>
       <use xlink:href="#DejaVuSans-35"/>
       <use xlink:href="#DejaVuSans-30" x="63.623047"/>
       <use xlink:href="#DejaVuSans-30" x="127.246094"/>
       <use xlink:href="#DejaVuSans-30" x="190.869141"/>
      </g>
     </g>
    </g>
   </g>
   <g id="matplotlib.axis_2">
    <g id="ytick_1">
     <g id="line2d_7">
      <defs>
       <path id="m6385462f69" d="M 0 0 
L -3.5 0 
" style="stroke: #000000; stroke-width: 0.8"/>
      </defs>
      <g>
       <use xlink:href="#m6385462f69" x="57.6" y="288.985564" style="stroke: #000000; stroke-width: 0.8"/>
      </g>
     </g>
     <g id="text_7">
      <!-- 4050 -->
      <g transform="translate(25.15 292.784782)scale(0.1 -0.1)">
       <use xlink:href="#DejaVuSans-34"/>
       <use xlink:href="#DejaVuSans-30" x="63.623047"/>
       <use xlink:href="#DejaVuSans-35" x="127.246094"/>
       <use xlink:href="#DejaVuSans-30" x="190.869141"/>
      </g>
     </g>
    </g>
    <g id="ytick_2">
     <g id="line2d_8">
      <g>
       <use xlink:href="#m6385462f69" x="57.6" y="258.432198" style="stroke: #000000; stroke-width: 0.8"/>
      </g>
     </g>
     <g id="text_8">
      <!-- 4100 -->
      <g transform="translate(25.15 262.231416)scale(0.1 -0.1)">
       <use xlink:href="#DejaVuSans-34"/>
       <use xlink:href="#DejaVuSans-31" x="63.623047"/>
       <use xlink:href="#DejaVuSans-30" x="127.246094"/>
       <use xlink:href="#DejaVuSans-30" x="190.869141"/>
      </g>
     </g>
    </g>
    <g id="ytick_3">
     <g id="line2d_9">
      <g>
       <use xlink:href="#m6385462f69" x="57.6" y="227.878832" style="stroke: #000000; stroke-width: 0.8"/>
      </g>
     </g>
     <g id="text_9">
      <!-- 4150 -->
      <g transform="translate(25.15 231.67805)scale(0.1 -0.1)">
       <use xlink:href="#DejaVuSans-34"/>
       <use xlink:href="#DejaVuSans-31" x="63.623047"/>
       <use xlink:href="#DejaVuSans-35" x="127.246094"/>
       <use xlink:href="#DejaVuSans-30" x="190.869141"/>
      </g>
     </g>
    </g>
    <g id="ytick_4">
     <g id="line2d_10">
      <g>
       <use xlink:href="#m6385462f69" x="57.6" y="197.325466" style="stroke: #000000; stroke-width: 0.8"/>
      </g>
     </g>
     <g id="text_10">
      <!-- 4200 -->
      <g transform="translate(25.15 201.124685)scale(0.1 -0.1)">
       <use xlink:href="#DejaVuSans-34"/>
       <use xlink:href="#DejaVuSans-32" x="63.623047"/>
       <use xlink:href="#DejaVuSans-30" x="127.246094"/>
       <use xlink:href="#DejaVuSans-30" x="190.869141"/>
      </g>
     </g>
    </g>
    <g id="ytick_5">
     <g id="line2d_11">
      <g>
       <use xlink:href="#m6385462f69" x="57.6" y="166.7721" style="stroke: #000000; stroke-width: 0.8"/>
      </g>
     </g>
     <g id="text_11">
      <!-- 4250 -->
      <g transform="translate(25.15 170.571319)scale(0.1 -0.1)">
       <use xlink:href="#DejaVuSans-34"/>
       <use xlink:href="#DejaVuSans-32" x="63.623047"/>
       <use xlink:href="#DejaVuSans-35" x="127.246094"/>
       <use xlink:href="#DejaVuSans-30" x="190.869141"/>
      </g>
     </g>
    </g>
    <g id="ytick_6">
     <g id="line2d_12">
      <g>
       <use xlink:href="#m6385462f69" x="57.6" y="136.218734" style="stroke: #000000; stroke-width: 0.8"/>
      </g>
     </g>
     <g id="text_12">
      <!-- 4300 -->
      <g transform="translate(25.15 140.017953)scale(0.1 -0.1)">
       <use xlink:href="#DejaVuSans-34"/>
       <use xlink:href="#DejaVuSans-33" x="63.623047"/>
       <use xlink:href="#DejaVuSans-30" x="127.246094"/>
       <use xlink:href="#DejaVuSans-30" x="190.869141"/>
      </g>
     </g>
    </g>
    <g id="ytick_7">
     <g id="line2d_13">
      <g>
       <use xlink:href="#m6385462f69" x="57.6" y="105.665368" style="stroke: #000000; stroke-width: 0.8"/>
      </g>
     </g>
     <g id="text_13">
      <!-- 4350 -->
      <g transform="translate(25.15 109.464587)scale(0.1 -0.1)">
       <use xlink:href="#DejaVuSans-34"/>
       <use xlink:href="#DejaVuSans-33" x="63.623047"/>
       <use xlink:href="#DejaVuSans-35" x="127.246094"/>
       <use xlink:href="#DejaVuSans-30" x="190.869141"/>
      </g>
     </g>
    </g>
    <g id="ytick_8">
     <g id="line2d_14">
      <g>
       <use xlink:href="#m6385462f69" x="57.6" y="75.112002" style="stroke: #000000; stroke-width: 0.8"/>
      </g>
     </g>
     <g id="text_14">
      <!-- 4400 -->
      <g transform="translate(25.15 78.911221)scale(0.1 -0.1)">
       <use xlink:href="#DejaVuSans-34"/>
       <use xlink:href="#DejaVuSans-34" x="63.623047"/>
       <use xlink:href="#DejaVuSans-30" x="127.246094"/>
       <use xlink:href="#DejaVuSans-30" x="190.869141"/>
      </g>
     </g>
    </g>
    <g id="ytick_9">
     <g id="line2d_15">
      <g>
       <use xlink:href="#m6385462f69" x="57.6" y="44.558636" style="stroke: #000000; stroke-width: 0.8"/>
      </g>
     </g>
     <g id="text_15">
      <!-- 4450 -->
      <g transform="translate(25.15 48.357855)scale(0.1 -0.1)">
       <use xlink:href="#DejaVuSans-34"/>
       <use xlink:href="#DejaVuSans-34" x="63.623047"/>
       <use xlink:href="#DejaVuSans-35" x="127.246094"/>
       <use xlink:href="#DejaVuSans-30" x="190.869141"/>
      </g>
     </g>
    </g>
   </g>
   <g id="line2d_16">
    <path d="M 73.832727 242.137169 
L 74.086413 232.344278 
L 74.149835 231.325932 
L 74.213256 234.459442 
L 74.276678 233.676214 
L 74.340099 232.42275 
L 74.403521 232.971159 
L 74.657206 239.473297 
L 74.784049 231.795869 
L 74.847471 233.205978 
L 74.910892 233.597742 
L 75.101157 218.791294 
L 75.164578 220.044757 
L 75.291421 228.897178 
L 75.354843 227.173777 
L 75.608529 221.924804 
L 75.735372 224.11844 
L 75.798793 222.708331 
L 75.862215 225.293432 
L 75.989058 238.768242 
L 76.179322 222.943151 
L 76.369586 229.053824 
L 76.496429 223.726677 
L 76.559851 224.196614 
L 76.623272 223.726677 
L 76.750115 232.814513 
L 76.876958 224.11844 
L 77.130644 236.966369 
L 77.257487 233.832859 
L 77.320909 236.809724 
L 77.38433 234.616386 
L 77.511173 229.445587 
L 77.574594 225.371904 
L 77.638016 226.39025 
L 77.82828 235.086323 
L 77.955123 231.482577 
L 78.145388 240.335296 
L 78.208809 241.118524 
L 78.272231 239.238478 
L 78.335652 233.441096 
L 78.399074 235.164497 
L 78.462495 240.100178 
L 78.525917 237.358133 
L 78.589338 230.464231 
L 78.65276 234.146151 
L 78.716181 239.081832 
L 78.779603 236.41796 
L 78.843024 236.73155 
L 78.906446 245.662442 
L 78.969867 245.427324 
L 79.09671 236.183141 
L 79.350396 244.644096 
L 79.54066 241.902051 
L 79.604082 241.902051 
L 79.667503 243.86057 
L 79.730925 243.233987 
L 79.794346 239.630241 
L 79.921189 245.114033 
L 80.048032 242.058697 
L 80.111454 244.173861 
L 80.174875 242.371988 
L 80.238297 242.528634 
L 80.365139 246.837732 
L 80.428561 241.432114 
L 80.491982 242.607106 
L 80.555404 246.680788 
L 80.872511 225.450376 
L 80.935933 227.487069 
L 80.999354 236.026495 
L 81.062776 235.791377 
L 81.126197 230.150641 
L 81.316462 246.445969 
L 81.506726 242.920397 
L 81.570148 244.017215 
L 81.696991 234.224623 
L 81.760412 237.279959 
L 81.950676 242.215342 
L 82.077519 239.786887 
L 82.140941 235.55626 
L 82.204362 235.791377 
L 82.267784 236.574904 
L 82.331205 235.948023 
L 82.394627 237.906542 
L 82.458048 244.330507 
L 82.52147 242.293814 
L 82.584891 240.17865 
L 82.711734 245.819088 
L 82.96542 224.666849 
L 83.092263 237.044842 
L 83.219106 229.132296 
L 83.345949 242.371988 
L 83.40937 240.648587 
L 83.472792 237.358133 
L 83.599635 244.095687 
L 83.726478 240.570115 
L 83.853321 233.441096 
L 83.980164 242.763752 
L 84.107007 232.971159 
L 84.170428 233.676214 
L 84.297271 247.229197 
L 84.424114 232.971159 
L 84.487536 235.164497 
L 84.550957 234.773032 
L 84.614379 236.574904 
L 84.741221 247.777607 
L 84.931486 235.478086 
L 84.994907 238.14166 
L 85.058329 240.491941 
L 85.185172 227.643714 
L 85.312015 239.786887 
L 85.438858 233.28445 
L 85.502279 236.026495 
L 85.629122 230.072468 
L 85.755965 243.077043 
L 85.882808 233.441096 
L 86.009651 237.593251 
L 86.136494 234.69456 
L 86.263337 240.100178 
L 86.453601 230.542405 
L 86.517023 233.441096 
L 86.707287 237.436605 
L 86.83413 228.662359 
L 86.897552 232.266104 
L 86.960973 231.247459 
L 87.024395 230.542405 
L 87.087816 236.41796 
L 87.151238 234.616386 
L 87.214659 224.431732 
L 87.278081 227.80036 
L 87.404924 236.966369 
L 87.531767 232.971159 
L 87.595188 229.680704 
L 87.785452 246.054205 
L 87.848874 241.196996 
L 87.912295 235.242969 
L 87.975717 237.044842 
L 88.10256 242.371988 
L 88.292824 238.298306 
L 88.356246 240.256824 
L 88.419667 238.376777 
L 88.54651 231.561049 
L 88.673353 238.14166 
L 88.99046 230.150641 
L 89.117303 237.593251 
L 89.244146 233.754387 
L 89.370989 241.118524 
L 89.434411 240.256824 
L 89.561254 228.740532 
L 89.688097 238.768242 
L 89.751518 236.026495 
L 89.941783 230.777522 
L 90.005204 231.952514 
L 90.068626 239.86506 
L 90.132047 238.063188 
L 90.195469 235.55626 
L 90.25889 236.653078 
L 90.512576 246.132379 
L 90.575997 241.823579 
L 90.639419 244.957387 
L 90.70284 250.44118 
L 90.766262 246.524142 
L 90.829683 246.837732 
L 90.893105 251.537997 
L 90.956526 248.404488 
L 91.019948 246.054205 
L 91.083369 249.422834 
L 91.210212 234.929677 
L 91.273634 238.611597 
L 91.337055 243.155515 
L 91.400477 240.727059 
L 91.463898 239.473297 
L 91.52732 239.786887 
L 91.590741 240.100178 
L 91.654163 239.316651 
L 91.907848 244.095687 
L 91.97127 248.404488 
L 92.034691 247.542787 
L 92.098113 242.763752 
L 92.161534 243.077043 
L 92.288377 250.284534 
L 92.351799 250.049715 
L 92.478642 241.118524 
L 92.605485 254.985098 
L 92.859171 240.648587 
L 92.922592 241.510287 
L 92.986014 243.233987 
L 93.112857 240.805233 
L 93.176278 242.137169 
L 93.68365 229.445587 
L 93.747071 231.01264 
L 93.873914 235.55626 
L 94.000757 233.832859 
L 94.1276 240.021706 
L 94.191022 242.998869 
L 94.254443 241.04035 
L 94.508129 233.832859 
L 94.634972 244.565624 
L 94.698394 240.570115 
L 94.761815 240.883705 
L 94.825236 246.75926 
L 94.888658 245.192505 
L 95.015501 236.809724 
L 95.142344 249.579479 
L 95.205765 249.501306 
L 95.269187 248.717779 
L 95.39603 240.883705 
L 95.459451 242.058697 
L 95.649716 245.975733 
L 95.776559 244.017215 
L 95.83998 247.151024 
L 95.903402 246.994378 
L 95.966823 242.293814 
L 96.030245 243.86057 
L 96.093666 247.542787 
L 96.220509 237.201487 
L 96.28393 240.413469 
L 96.347352 244.565624 
L 96.474195 239.081832 
L 96.727881 252.791462 
L 96.918145 239.786887 
L 96.981567 241.980523 
L 97.10841 246.132379 
L 97.171831 244.800742 
L 97.298674 243.547278 
L 97.362096 244.878915 
L 97.488939 240.727059 
L 97.55236 241.432114 
L 97.679203 247.777607 
L 97.806046 239.551769 
L 97.869467 240.17865 
L 97.932889 245.349151 
L 97.99631 242.607106 
L 98.059732 240.021706 
L 98.123153 243.468806 
L 98.186575 242.685578 
L 98.249996 243.468806 
L 98.313418 243.077043 
L 98.503682 237.828369 
L 98.757368 245.58397 
L 98.82079 249.34466 
L 99.011054 239.238478 
L 99.074475 238.925186 
L 99.201318 246.915906 
L 99.26474 242.528634 
L 99.328161 235.32144 
L 99.391583 236.41796 
L 99.455004 240.021706 
L 99.518426 238.454951 
L 99.70869 234.459442 
L 99.772112 234.537914 
L 99.898955 233.597742 
L 99.962376 235.242969 
L 100.089219 230.150641 
L 100.216062 242.45046 
L 100.469748 231.169286 
L 100.596591 244.800742 
L 100.660012 240.100178 
L 100.723434 231.561049 
L 100.786855 231.639223 
L 100.850277 233.832859 
L 101.167384 221.533041 
L 101.357649 232.10916 
L 101.484492 218.94794 
L 101.611335 227.878832 
L 101.674756 224.588377 
L 101.738178 225.920313 
L 101.865021 235.869849 
L 101.928442 234.69456 
L 101.991863 231.952514 
L 102.055285 232.657569 
L 102.182128 237.671723 
L 102.308971 233.127805 
L 102.372392 233.205978 
L 102.499235 236.183141 
L 102.626078 232.030987 
L 102.752921 238.611597 
L 102.816343 235.712905 
L 102.943186 247.542787 
L 103.070029 229.680704 
L 103.13345 229.83735 
L 103.260293 235.478086 
L 103.323715 234.381268 
L 103.450557 231.247459 
L 103.640822 240.17865 
L 103.704243 238.925186 
L 103.831086 219.417877 
L 103.894508 221.141277 
L 103.957929 225.52855 
L 104.021351 222.316568 
L 104.084772 220.514694 
L 104.211615 224.196614 
L 104.275037 222.159922 
L 104.40188 232.187632 
L 104.465301 231.639223 
L 104.528723 232.187632 
L 104.592144 237.044842 
L 104.718987 230.229113 
L 104.84583 242.920397 
L 104.972673 236.183141 
L 105.099516 239.708415 
L 105.162937 239.238478 
L 105.28978 241.196996 
L 105.353202 240.100178 
L 105.480045 244.173861 
L 105.606888 240.491941 
L 105.797152 249.657951 
L 106.050838 256.551853 
L 106.177681 251.303178 
L 106.241102 256.865442 
L 106.304524 236.809724 
L 106.367945 237.906542 
L 106.431367 236.026495 
L 106.494788 236.261315 
L 106.621631 238.925186 
L 106.748474 238.298306 
L 106.938739 226.312077 
L 107.00216 228.819004 
L 107.129003 235.478086 
L 107.382689 229.524059 
L 107.509532 234.459442 
L 107.636375 231.404105 
L 107.826639 239.708415 
L 107.890061 239.316651 
L 108.016904 233.754387 
L 108.27059 244.565624 
L 108.334011 244.173861 
L 108.524276 237.749896 
L 108.587697 236.888196 
L 108.71454 246.289323 
L 108.841383 239.160006 
L 108.904805 240.648587 
L 108.968226 238.690069 
L 109.095069 245.505796 
L 109.15849 242.528634 
L 109.221912 237.201487 
L 109.285333 237.906542 
L 109.348755 236.966369 
L 109.412176 237.279959 
L 109.602441 242.842224 
L 109.729284 235.634732 
L 109.856127 241.745405 
L 110.109813 217.929295 
L 110.173234 221.141277 
L 110.236656 225.058613 
L 110.300077 219.80964 
L 110.363499 223.178268 
L 110.42692 229.83735 
L 110.490342 228.035478 
L 110.553763 224.666849 
L 110.617184 226.155431 
L 110.680606 225.136786 
L 110.744027 225.763667 
L 110.87087 229.602232 
L 110.997713 237.358133 
L 111.061135 235.399614 
L 111.124556 231.01264 
L 111.187978 232.579396 
L 111.378242 237.749896 
L 111.441664 239.786887 
L 111.568507 236.026495 
L 111.631928 237.201487 
L 111.758771 243.625452 
L 111.822193 242.607106 
L 111.949036 232.344278 
L 112.075878 242.607106 
L 112.1393 236.966369 
L 112.202721 240.17865 
L 112.266143 245.035859 
L 112.329564 242.215342 
L 112.392986 240.491941 
L 112.456407 242.137169 
L 112.58325 236.339787 
L 112.646672 240.805233 
L 112.710093 238.376777 
L 112.773515 235.791377 
L 112.900358 255.141743 
L 112.963779 248.16937 
L 113.027201 248.717779 
L 113.090622 251.61647 
L 113.217465 240.335296 
L 113.344308 249.187716 
L 113.471151 245.035859 
L 113.534572 246.367497 
L 113.661415 254.906924 
L 113.724837 253.966752 
L 113.915101 245.035859 
L 114.041944 251.381352 
L 114.105366 249.34466 
L 114.232209 242.607106 
L 114.359052 250.832943 
L 114.485895 238.298306 
L 114.549316 238.063188 
L 114.676159 228.97565 
L 114.803002 234.929677 
L 114.866423 233.127805 
L 114.993266 232.892687 
L 115.120109 236.339787 
L 115.183531 239.395123 
L 115.246952 238.846714 
L 115.373795 233.989505 
L 115.56406 236.339787 
L 115.627481 235.32144 
L 115.690903 229.759176 
L 115.754324 230.307287 
L 115.944589 235.791377 
L 116.00801 238.376777 
L 116.198275 232.187632 
L 116.261696 232.10916 
L 116.578803 246.445969 
L 116.705646 231.169286 
L 116.769068 234.067977 
L 116.832489 233.676214 
L 116.895911 230.072468 
L 116.959332 231.717695 
L 117.022754 231.952514 
L 117.149597 235.007851 
L 117.27644 231.090814 
L 117.403283 239.316651 
L 117.466704 236.261315 
L 117.530126 237.279959 
L 117.72039 242.998869 
L 117.783811 242.685578 
L 118.037497 235.242969 
L 118.100919 235.634732 
L 118.16434 235.478086 
L 118.227762 235.869849 
L 118.291183 239.395123 
L 118.354605 238.376777 
L 118.608291 235.242969 
L 118.798555 241.27517 
L 118.861977 239.630241 
L 118.98882 233.989505 
L 119.052241 235.478086 
L 119.179084 230.620877 
L 119.242505 233.362624 
L 119.305927 236.339787 
L 119.369348 235.55626 
L 119.43277 235.007851 
L 119.559613 241.196996 
L 119.749877 231.247459 
L 119.87672 237.358133 
L 120.003563 232.971159 
L 120.130406 235.007851 
L 120.193828 234.146151 
L 120.257249 234.381268 
L 120.320671 235.869849 
L 120.384092 234.69456 
L 120.510935 238.454951 
L 120.574356 237.906542 
L 120.637778 238.219834 
L 120.701199 240.256824 
L 120.828042 235.478086 
L 120.891464 239.943532 
L 120.954885 238.219834 
L 121.018307 231.639223 
L 121.14515 243.782396 
L 121.271993 229.993996 
L 121.398836 235.086323 
L 121.462257 229.053824 
L 121.525679 230.150641 
L 121.5891 233.127805 
L 121.652522 231.874341 
L 121.715943 230.072468 
L 121.842786 240.570115 
L 121.906208 239.943532 
L 122.03305 234.929677 
L 122.159893 239.708415 
L 122.286736 230.855696 
L 122.350158 232.579396 
L 122.477001 239.160006 
L 122.540422 239.160006 
L 122.603844 240.883705 
L 122.730687 233.754387 
L 122.794108 235.712905 
L 122.85753 237.279959 
L 122.984373 234.537914 
L 123.174637 240.805233 
L 123.238059 241.902051 
L 123.428323 235.712905 
L 123.555166 228.270595 
L 123.682009 237.044842 
L 123.808852 232.187632 
L 123.935695 239.00336 
L 124.062538 233.362624 
L 124.252802 240.805233 
L 124.316224 241.745405 
L 124.379645 240.491941 
L 124.506488 235.869849 
L 124.633331 239.081832 
L 124.760174 234.302796 
L 124.887017 242.215342 
L 125.01386 234.459442 
L 125.077281 235.478086 
L 125.140703 234.929677 
L 125.330967 241.823579 
L 125.394389 240.100178 
L 125.521232 237.201487 
L 125.648075 239.473297 
L 125.774918 230.385759 
L 125.901761 237.044842 
L 126.028604 232.266104 
L 126.092025 236.339787 
L 126.155447 235.712905 
L 126.218868 234.616386 
L 126.345711 243.155515 
L 126.662818 236.574904 
L 126.72624 236.183141 
L 126.853083 241.118524 
L 126.979926 236.339787 
L 127.043347 236.653078 
L 127.233612 239.160006 
L 127.297033 238.533423 
L 127.423876 236.261315 
L 127.487298 240.491941 
L 127.550719 238.846714 
L 127.614141 237.593251 
L 127.677562 240.727059 
L 127.740984 239.551769 
L 127.804405 234.146151 
L 127.867826 236.496432 
L 128.058091 240.491941 
L 128.184934 231.952514 
L 128.248355 235.399614 
L 128.375198 240.883705 
L 128.43862 240.335296 
L 128.565463 237.279959 
L 128.692306 242.293814 
L 128.755727 242.137169 
L 129.072835 232.266104 
L 129.136256 233.127805 
L 129.199677 237.123314 
L 129.263099 236.183141 
L 129.389942 240.100178 
L 129.516785 233.362624 
L 129.580206 233.441096 
L 129.707049 237.279959 
L 129.770471 236.104669 
L 129.833892 236.888196 
L 130.024157 241.04035 
L 130.151 232.266104 
L 130.277843 237.514779 
L 130.341264 236.261315 
L 130.404686 236.026495 
L 130.468107 231.717695 
L 130.531529 232.344278 
L 130.59495 239.238478 
L 130.658371 236.41796 
L 130.721793 233.676214 
L 130.785214 234.381268 
L 131.0389 242.528634 
L 131.102322 245.035859 
L 131.165743 243.782396 
L 131.229165 241.980523 
L 131.356008 244.330507 
L 131.419429 242.45046 
L 131.546272 245.58397 
L 131.736537 238.14166 
L 131.799958 236.026495 
L 131.86338 236.183141 
L 131.926801 237.828369 
L 131.990223 234.69456 
L 132.053644 235.869849 
L 132.117065 239.081832 
L 132.180487 238.925186 
L 132.243908 236.809724 
L 132.30733 237.044842 
L 132.370751 236.966369 
L 132.561016 241.823579 
L 132.624437 241.118524 
L 132.687859 238.690069 
L 132.75128 240.021706 
L 132.878123 244.565624 
L 133.068388 238.611597 
L 133.195231 245.89756 
L 133.322074 241.432114 
L 133.385495 243.233987 
L 133.512338 239.86506 
L 133.575759 240.883705 
L 133.702602 238.925186 
L 133.766024 240.413469 
L 133.829445 239.943532 
L 134.01971 236.888196 
L 134.083131 238.611597 
L 134.146553 237.514779 
L 134.273396 230.072468 
L 134.46366 235.55626 
L 134.590503 236.261315 
L 134.653925 235.32144 
L 134.780768 241.588759 
L 134.844189 239.473297 
L 134.907611 235.478086 
L 134.971032 236.809724 
L 135.034453 236.41796 
L 135.097875 234.929677 
L 135.224718 240.335296 
L 135.288139 237.749896 
L 135.414982 245.662442 
L 135.541825 235.869849 
L 135.605247 237.906542 
L 135.795511 244.644096 
L 135.858933 246.054205 
L 135.985776 237.906542 
L 136.049197 239.551769 
L 136.112619 239.316651 
L 136.17604 237.985014 
L 136.239462 239.160006 
L 136.302883 238.14166 
L 136.429726 244.017215 
L 136.493147 243.782396 
L 136.556569 239.081832 
L 136.61999 239.238478 
L 136.683412 240.961878 
L 136.746833 240.335296 
L 136.810255 238.768242 
L 136.937098 242.528634 
L 137.063941 238.768242 
L 137.317627 247.151024 
L 137.381048 245.89756 
L 137.507891 234.616386 
L 137.634734 243.468806 
L 137.698156 240.491941 
L 137.761577 236.41796 
L 137.824998 238.219834 
L 137.951841 239.316651 
L 138.078684 235.634732 
L 138.142106 236.183141 
L 138.268949 241.04035 
L 138.395792 230.934168 
L 138.459213 233.911033 
L 138.522635 240.413469 
L 138.586056 237.906542 
L 138.649478 234.146151 
L 138.712899 236.966369 
L 138.776321 233.676214 
L 138.839742 235.634732 
L 138.903164 236.574904 
L 139.030007 234.851205 
L 139.093428 235.32144 
L 139.220271 231.639223 
L 139.347114 237.749896 
L 139.410535 237.279959 
L 139.473957 232.10916 
L 139.537378 233.989505 
L 139.6008 237.828369 
L 139.664221 235.712905 
L 139.727643 232.736041 
L 139.791064 235.712905 
L 139.917907 231.01264 
L 140.04475 236.104669 
L 140.108172 234.929677 
L 140.171593 235.634732 
L 140.235015 236.809724 
L 140.298436 236.261315 
L 140.361858 236.41796 
L 140.488701 231.874341 
L 140.615544 235.242969 
L 140.678965 233.911033 
L 140.805808 238.690069 
L 140.932651 235.399614 
L 140.996072 235.712905 
L 141.059494 233.911033 
L 141.186337 239.160006 
L 141.31318 233.911033 
L 141.376601 234.616386 
L 141.440023 235.478086 
L 141.503444 234.537914 
L 141.566866 235.164497 
L 141.693709 236.653078 
L 141.820552 233.989505 
L 141.947395 237.671723 
L 142.074238 232.42275 
L 142.137659 236.888196 
L 142.20108 236.653078 
L 142.264502 231.874341 
L 142.327923 234.067977 
L 142.454766 238.14166 
L 142.518188 237.749896 
L 142.581609 238.454951 
L 142.645031 237.749896 
L 142.708452 238.14166 
L 142.898717 240.256824 
L 142.962138 240.021706 
L 143.088981 242.607106 
L 143.215824 233.911033 
L 143.342667 241.980523 
L 143.406089 237.985014 
L 143.532932 246.837732 
L 143.659774 233.362624 
L 143.723196 235.32144 
L 143.850039 237.671723 
L 144.040303 231.561049 
L 144.230568 240.021706 
L 144.293989 239.00336 
L 144.420832 221.376395 
L 144.484254 224.588377 
L 144.547675 228.270595 
L 144.611097 224.431732 
L 144.674518 224.510204 
L 144.73794 230.620877 
L 144.801361 230.307287 
L 144.864783 228.505713 
L 144.991625 236.41796 
L 145.055047 233.832859 
L 145.118468 234.616386 
L 145.18189 238.846714 
L 145.308733 232.266104 
L 145.435576 241.196996 
L 145.562419 232.736041 
L 145.689262 237.749896 
L 145.752683 235.478086 
L 145.816105 236.339787 
L 145.879526 236.966369 
L 146.006369 233.832859 
L 146.069791 235.242969 
L 146.196634 233.28445 
L 146.323477 237.985014 
L 146.450319 234.224623 
L 146.577162 239.86506 
L 146.704005 237.201487 
L 146.767427 242.137169 
L 146.830848 240.256824 
L 146.957691 239.86506 
L 147.084534 241.196996 
L 147.211377 236.653078 
L 147.33822 244.565624 
L 147.465063 235.086323 
L 147.528485 235.242969 
L 147.591906 237.514779 
L 147.655328 237.436605 
L 147.782171 234.616386 
L 147.909013 235.086323 
L 147.972435 234.616386 
L 148.035856 235.164497 
L 148.162699 237.201487 
L 148.289542 236.026495 
L 148.416385 241.823579 
L 148.479807 239.943532 
L 148.60665 235.164497 
L 148.670071 236.261315 
L 148.733493 235.242969 
L 148.860336 240.648587 
L 148.923757 239.081832 
L 149.0506 237.828369 
L 149.114022 233.519568 
L 149.177443 235.164497 
L 149.304286 243.312161 
L 149.49455 235.086323 
L 149.621393 240.648587 
L 149.684815 239.395123 
L 149.875079 236.73155 
L 149.938501 236.966369 
L 150.192187 242.528634 
L 150.31903 240.335296 
L 150.382451 244.48745 
L 150.445873 242.215342 
L 150.509294 238.063188 
L 150.572716 238.454951 
L 150.636137 239.081832 
L 150.699559 238.376777 
L 150.826401 241.823579 
L 150.889823 236.261315 
L 150.953244 236.888196 
L 151.080087 243.547278 
L 151.270352 241.196996 
L 151.333773 242.371988 
L 151.460616 240.256824 
L 151.587459 245.89756 
L 151.714302 239.86506 
L 151.777724 241.196996 
L 151.967988 237.906542 
L 152.03141 239.081832 
L 152.158252 236.574904 
L 152.221674 236.653078 
L 152.411938 238.533423 
L 152.47536 234.69456 
L 152.538781 235.948023 
L 152.602203 239.630241 
L 152.665624 237.123314 
L 152.729046 235.086323 
L 152.855889 244.095687 
L 152.982732 238.533423 
L 153.046153 240.021706 
L 153.109575 240.100178 
L 153.172996 236.496432 
L 153.236418 238.063188 
L 153.299839 239.395123 
L 153.363261 236.888196 
L 153.426682 237.044842 
L 153.490104 240.805233 
L 153.553525 239.00336 
L 153.680368 238.925186 
L 153.807211 235.634732 
L 153.870632 236.183141 
L 153.934054 235.399614 
L 154.060897 240.17865 
L 154.124318 236.574904 
L 154.251161 246.524142 
L 154.314583 241.745405 
L 154.378004 237.044842 
L 154.441426 241.196996 
L 154.504847 239.160006 
L 154.568269 235.32144 
L 154.63169 236.339787 
L 154.695112 237.514779 
L 154.758533 235.007851 
L 154.821955 236.339787 
L 155.012219 245.89756 
L 155.265905 233.832859 
L 155.329326 234.459442 
L 155.392748 237.279959 
L 155.456169 236.183141 
L 155.519591 235.55626 
L 155.583012 235.634732 
L 155.646434 236.339787 
L 155.773277 242.685578 
L 155.836698 241.27517 
L 156.026963 236.339787 
L 156.090384 237.123314 
L 156.153806 236.183141 
L 156.280649 229.367413 
L 156.470913 236.261315 
L 156.534334 235.399614 
L 156.661177 238.690069 
L 156.78802 233.989505 
L 156.914863 237.671723 
L 156.978285 236.104669 
L 157.041706 237.279959 
L 157.168549 249.814597 
L 157.358814 233.597742 
L 157.485657 238.846714 
L 157.549078 238.376777 
L 157.6125 233.362624 
L 157.675921 235.32144 
L 157.739343 237.436605 
L 157.802764 235.791377 
L 157.929607 244.565624 
L 158.05645 236.026495 
L 158.246714 245.740914 
L 158.310136 248.16937 
L 158.436979 241.353642 
L 158.5004 243.939042 
L 158.627243 238.219834 
L 158.690665 238.611597 
L 158.817508 234.69456 
L 158.944351 242.137169 
L 159.007772 240.805233 
L 159.071194 234.929677 
L 159.134615 235.242969 
L 159.32488 242.215342 
L 159.388301 243.782396 
L 159.515144 233.519568 
L 159.641987 240.413469 
L 159.76883 231.639223 
L 159.895673 237.436605 
L 159.959094 234.302796 
L 160.022516 235.242969 
L 160.085937 244.644096 
L 160.149359 244.565624 
L 160.276202 237.671723 
L 160.529888 246.210851 
L 160.656731 240.100178 
L 160.846995 245.819088 
L 160.973838 237.749896 
L 161.100681 247.151024 
L 161.227524 241.432114 
L 161.290945 244.878915 
L 161.417788 240.021706 
L 161.544631 245.192505 
L 161.671474 241.118524 
L 161.734896 244.173861 
L 162.052003 225.293432 
L 162.115425 227.487069 
L 162.178846 232.187632 
L 162.242267 230.542405 
L 162.305689 227.565541 
L 162.432532 241.902051 
L 162.495953 240.335296 
L 162.622796 238.846714 
L 162.686218 236.574904 
L 162.749639 238.846714 
L 162.876482 230.464231 
L 162.939904 232.266104 
L 163.130168 240.491941 
L 163.19359 240.335296 
L 163.257011 240.491941 
L 163.383854 230.855696 
L 163.510697 235.164497 
L 163.574119 233.989505 
L 163.63754 238.925186 
L 163.700961 237.749896 
L 163.764383 234.851205 
L 163.891226 240.570115 
L 164.144912 231.090814 
L 164.271755 238.376777 
L 164.335176 235.086323 
L 164.398598 232.187632 
L 164.588862 242.058697 
L 164.652284 238.454951 
L 164.715705 240.491941 
L 164.779127 242.920397 
L 164.842548 242.45046 
L 165.032813 236.653078 
L 165.159655 243.155515 
L 165.286498 233.362624 
L 165.34992 233.911033 
L 165.476763 244.408979 
L 165.603606 233.911033 
L 165.667027 236.73155 
L 165.79387 235.242969 
L 165.920713 247.777607 
L 166.110978 236.966369 
L 166.237821 240.413469 
L 166.364664 228.740532 
L 166.491507 240.491941 
L 166.554928 234.537914 
L 166.618349 236.496432 
L 166.681771 238.846714 
L 166.808614 232.657569 
L 166.935457 242.685578 
L 167.0623 237.279959 
L 167.125721 238.14166 
L 167.189143 238.454951 
L 167.315986 236.653078 
L 167.442829 241.510287 
L 167.633093 232.187632 
L 167.759936 237.279959 
L 167.823358 237.044842 
L 167.886779 238.768242 
L 168.013622 230.69905 
L 168.077043 236.026495 
L 168.140465 235.634732 
L 168.203886 233.519568 
L 168.267308 239.630241 
L 168.330729 238.846714 
L 168.394151 229.445587 
L 168.457572 231.247459 
L 168.584415 238.376777 
L 168.647837 237.436605 
L 168.77468 229.993996 
L 168.964944 241.902051 
L 169.028366 239.630241 
L 169.091787 234.146151 
L 169.155209 234.851205 
L 169.282052 239.395123 
L 169.472316 236.41796 
L 169.535737 237.358133 
L 169.66258 232.736041 
L 169.789423 239.00336 
L 169.852845 238.063188 
L 170.043109 235.634732 
L 170.169952 230.934168 
L 170.296795 237.123314 
L 170.360217 236.809724 
L 170.423638 234.69456 
L 170.613903 242.528634 
L 170.740746 228.427241 
L 170.867588 238.533423 
L 170.93101 237.123314 
L 171.121274 230.777522 
L 171.248117 235.791377 
L 171.37496 231.169286 
L 171.692068 241.980523 
L 171.755489 237.749896 
L 171.818911 239.708415 
L 171.882332 245.035859 
L 171.945754 243.233987 
L 172.009175 241.902051 
L 172.136018 247.464315 
L 172.389704 231.247459 
L 172.453125 233.205978 
L 172.516547 238.376777 
L 172.579968 235.399614 
L 172.64339 231.874341 
L 172.770233 237.436605 
L 172.897076 233.676214 
L 173.150762 240.805233 
L 173.214183 240.727059 
L 173.341026 235.478086 
L 173.467869 245.192505 
L 173.531291 242.763752 
L 173.658134 235.399614 
L 173.784976 246.994378 
L 174.038662 237.828369 
L 174.102084 237.436605 
L 174.292348 242.293814 
L 174.419191 243.312161 
L 174.736299 235.164497 
L 174.79972 230.307287 
L 174.863142 231.325932 
L 174.926563 235.086323 
L 174.989985 235.007851 
L 175.053406 235.791377 
L 175.180249 238.925186 
L 175.24367 237.514779 
L 175.307092 238.611597 
L 175.370513 243.390633 
L 175.433935 241.980523 
L 175.687621 232.971159 
L 175.814464 244.095687 
L 175.877885 239.708415 
L 175.941307 241.745405 
L 176.004728 245.89756 
L 176.131571 236.73155 
L 176.194993 237.201487 
L 176.385257 246.054205 
L 176.448679 246.75926 
L 176.575521 236.496432 
L 176.638943 237.749896 
L 176.702364 239.238478 
L 176.765786 237.279959 
L 176.829207 237.828369 
L 176.892629 238.063188 
L 177.019472 240.961878 
L 177.082893 239.86506 
L 177.146315 236.73155 
L 177.209736 237.906542 
L 177.273158 242.058697 
L 177.336579 240.570115 
L 177.400001 234.459442 
L 177.463422 238.611597 
L 177.526844 242.763752 
L 177.653687 235.007851 
L 177.907373 248.717779 
L 178.034215 236.653078 
L 178.097637 236.809724 
L 178.287901 242.293814 
L 178.351323 243.390633 
L 178.414744 242.763752 
L 178.66843 237.044842 
L 178.731852 237.671723 
L 178.858695 241.432114 
L 178.985538 235.791377 
L 179.048959 237.906542 
L 179.112381 242.215342 
L 179.239224 235.32144 
L 179.492909 245.740914 
L 179.619752 237.201487 
L 179.683174 239.00336 
L 179.746595 239.943532 
L 179.810017 238.063188 
L 179.873438 238.768242 
L 180.000281 246.210851 
L 180.190546 237.749896 
L 180.253967 238.298306 
L 180.38081 243.703924 
L 180.444232 240.883705 
L 180.507653 234.69456 
L 180.571075 235.634732 
L 180.697918 240.021706 
L 180.761339 239.786887 
L 180.824761 240.570115 
L 181.078446 236.73155 
L 181.141868 239.786887 
L 181.205289 239.473297 
L 181.268711 236.104669 
L 181.395554 246.837732 
L 181.458975 244.017215 
L 181.585818 241.902051 
L 181.64924 238.376777 
L 181.776083 250.363006 
L 181.902926 237.749896 
L 181.966347 238.925186 
L 182.029769 241.745405 
L 182.09319 239.943532 
L 182.220033 242.842224 
L 182.283455 241.432114 
L 182.346876 236.888196 
L 182.410297 239.86506 
L 182.53714 246.054205 
L 182.663983 236.888196 
L 182.790826 244.252333 
L 182.917669 240.100178 
L 183.044512 249.579479 
L 183.107934 249.03107 
L 183.171355 246.75926 
L 183.234777 247.072552 
L 183.36162 252.008233 
L 183.425041 250.284534 
L 183.551884 247.856079 
L 183.615306 249.814597 
L 183.678727 249.736125 
L 183.80557 242.293814 
L 183.932413 250.911415 
L 183.995834 247.856079 
L 184.122677 257.100262 
L 184.24952 240.491941 
L 184.312942 240.805233 
L 184.503206 242.371988 
L 184.630049 240.100178 
L 184.756892 244.330507 
L 184.883735 248.717779 
L 185.010578 229.680704 
L 185.074 231.952514 
L 185.137421 237.123314 
L 185.200842 233.832859 
L 185.264264 230.934168 
L 185.581371 241.666933 
L 185.708214 242.293814 
L 185.771636 245.035859 
L 185.898479 237.279959 
L 186.025322 249.579479 
L 186.152165 239.708415 
L 186.215586 241.353642 
L 186.405851 245.270679 
L 186.469272 244.565624 
L 186.532694 242.45046 
L 186.659536 248.561133 
L 186.786379 239.943532 
L 186.913222 248.482661 
L 186.976644 247.307669 
L 187.23033 252.008233 
L 187.293751 246.602614 
L 187.357173 248.091196 
L 187.420594 254.593334 
L 187.547437 239.00336 
L 187.610859 239.238478 
L 187.67428 241.196996 
L 187.801123 239.238478 
L 187.864545 241.666933 
L 187.927966 241.510287 
L 188.11823 229.915822 
L 188.181652 231.325932 
L 188.308495 237.828369 
L 188.371916 235.164497 
L 188.435338 235.634732 
L 188.498759 234.616386 
L 188.562181 231.639223 
L 188.625602 232.814513 
L 188.689024 237.514779 
L 188.752445 235.242969 
L 188.815867 230.777522 
L 188.94271 239.551769 
L 189.006131 238.454951 
L 189.132974 237.671723 
L 189.196396 234.302796 
L 189.259817 235.948023 
L 189.513503 241.902051 
L 189.767189 235.086323 
L 189.894032 245.662442 
L 189.957453 243.312161 
L 190.147718 236.574904 
L 190.274561 245.114033 
L 190.401404 234.69456 
L 190.464825 237.044842 
L 190.528247 237.201487 
L 190.591668 235.948023 
L 190.781933 244.330507 
L 190.845354 241.588759 
L 190.908776 239.395123 
L 191.035618 243.390633 
L 191.162461 237.593251 
L 191.416147 249.814597 
L 191.479569 243.390633 
L 191.54299 244.017215 
L 191.669833 249.501306 
L 191.860098 245.58397 
L 191.923519 244.408979 
L 191.986941 245.192505 
L 192.177205 247.620961 
L 192.240627 246.289323 
L 192.367469 239.786887 
L 192.494312 243.312161 
L 192.747998 235.164497 
L 192.81142 233.911033 
L 192.938263 239.86506 
L 193.001684 237.358133 
L 193.128527 228.192123 
L 193.191949 237.044842 
L 193.25537 236.809724 
L 193.318792 231.404105 
L 193.382213 235.242969 
L 193.445635 239.786887 
L 193.509056 237.985014 
L 193.699321 233.441096 
L 193.762742 231.404105 
L 193.826163 234.302796 
L 193.889585 233.519568 
L 193.953006 230.072468 
L 194.016428 230.69905 
L 194.079849 233.362624 
L 194.206692 229.83735 
L 194.270114 231.717695 
L 194.396957 226.312077 
L 194.5238 233.832859 
L 194.587221 232.657569 
L 194.714064 230.934168 
L 194.777486 231.952514 
L 194.904329 239.238478 
L 195.094593 227.80036 
L 195.158015 228.427241 
L 195.284857 233.205978 
L 195.4117 226.39025 
L 195.665386 239.160006 
L 195.728808 237.749896 
L 195.855651 230.855696 
L 196.109337 234.067977 
L 196.172758 233.832859 
L 196.23618 234.773032 
L 196.363023 244.644096 
L 196.426444 242.215342 
L 196.553287 231.325932 
L 196.68013 235.712905 
L 196.743551 234.537914 
L 196.933816 228.11395 
L 197.060659 237.593251 
L 197.187502 234.067977 
L 197.250923 235.399614 
L 197.314345 234.616386 
L 197.377766 231.561049 
L 197.441188 231.874341 
L 197.758295 245.192505 
L 197.94856 229.053824 
L 198.138824 233.049333 
L 198.202245 231.325932 
L 198.265667 231.795869 
L 198.329088 233.28445 
L 198.39251 232.42275 
L 198.455931 233.362624 
L 198.519353 237.279959 
L 198.582774 235.869849 
L 198.646196 234.616386 
L 198.773039 240.021706 
L 198.83646 239.630241 
L 198.963303 241.745405 
L 199.026725 240.570115 
L 199.153568 232.971159 
L 199.216989 234.224623 
L 199.343832 233.441096 
L 199.470675 237.671723 
L 199.534097 236.339787 
L 199.597518 236.183141 
L 199.724361 232.971159 
L 199.978047 240.021706 
L 200.10489 234.067977 
L 200.168311 236.339787 
L 200.358576 230.934168 
L 200.54884 233.519568 
L 200.612262 233.597742 
L 200.675683 238.298306 
L 200.739105 238.063188 
L 200.865948 230.620877 
L 200.99279 233.049333 
L 201.056212 232.892687 
L 201.183055 231.874341 
L 201.309898 233.441096 
L 201.436741 229.132296 
L 201.690427 234.616386 
L 201.753848 234.616386 
L 201.81727 232.971159 
L 201.880691 234.067977 
L 201.944113 233.597742 
L 202.007534 233.676214 
L 202.070956 234.381268 
L 202.197799 231.247459 
L 202.324642 237.044842 
L 202.451484 230.934168 
L 202.514906 233.597742 
L 202.578327 232.500924 
L 202.641749 229.602232 
L 202.70517 231.639223 
L 202.768592 231.639223 
L 202.832013 230.385759 
L 202.895435 231.169286 
L 203.085699 239.786887 
L 203.212542 233.989505 
L 203.275964 235.007851 
L 203.339385 238.611597 
L 203.466228 231.561049 
L 203.52965 232.892687 
L 203.719914 242.842224 
L 203.783336 241.980523 
L 203.910178 236.104669 
L 203.9736 238.14166 
L 204.037021 237.906542 
L 204.163864 236.888196 
L 204.41755 242.920397 
L 204.734658 230.385759 
L 204.861501 240.961878 
L 204.988344 234.69456 
L 205.115187 241.432114 
L 205.178608 240.648587 
L 205.24203 237.593251 
L 205.305451 239.86506 
L 205.495715 244.252333 
L 205.622558 239.551769 
L 205.749401 243.939042 
L 205.876244 236.183141 
L 205.939666 237.123314 
L 206.066509 244.565624 
L 206.256773 236.73155 
L 206.320195 235.634732 
L 206.510459 241.432114 
L 206.573881 241.04035 
L 206.637302 240.491941 
L 206.700724 236.496432 
L 206.764145 238.925186 
L 206.827566 242.842224 
L 206.954409 230.542405 
L 207.017831 235.55626 
L 207.081252 238.14166 
L 207.144674 233.676214 
L 207.208095 235.086323 
L 207.271517 239.238478 
L 207.334938 237.044842 
L 207.39836 236.261315 
L 207.525203 242.371988 
L 207.778889 236.574904 
L 207.905732 237.201487 
L 207.969153 239.473297 
L 208.032575 239.081832 
L 208.222839 235.791377 
L 208.413103 239.238478 
L 208.476525 238.768242 
L 208.539946 236.653078 
L 208.603368 236.809724 
L 208.666789 238.063188 
L 208.730211 234.69456 
L 208.793632 236.41796 
L 208.857054 241.980523 
L 208.920475 239.551769 
L 208.983897 233.049333 
L 209.047318 235.086323 
L 209.237583 238.14166 
L 209.301004 237.593251 
L 209.364426 234.851205 
L 209.427847 235.55626 
L 209.55469 241.04035 
L 209.618111 240.805233 
L 209.744954 237.201487 
L 209.871797 241.666933 
L 209.935219 241.588759 
L 209.99864 240.727059 
L 210.252326 233.911033 
L 210.315748 233.441096 
L 210.506012 237.514779 
L 210.569434 237.358133 
L 210.759698 234.146151 
L 210.886541 236.966369 
L 211.013384 236.261315 
L 211.140227 238.768242 
L 211.203648 240.727059 
L 211.330491 234.067977 
L 211.457334 239.316651 
L 211.520756 238.298306 
L 211.584177 236.966369 
L 211.647599 233.28445 
L 211.71102 233.989505 
L 211.837863 239.708415 
L 212.028128 238.063188 
L 212.218392 245.192505 
L 212.281814 243.86057 
L 212.345235 241.27517 
L 212.408657 243.077043 
L 212.472078 245.035859 
L 212.535499 242.763752 
L 212.598921 243.547278 
L 212.662342 245.662442 
L 212.97945 233.911033 
L 213.042871 232.814513 
L 213.233136 236.809724 
L 213.359979 240.335296 
L 213.486822 235.948023 
L 213.550243 236.41796 
L 213.740508 243.312161 
L 213.803929 242.371988 
L 213.867351 239.86506 
L 213.930772 240.17865 
L 214.057615 243.547278 
L 214.247879 239.86506 
L 214.374722 247.934252 
L 214.628408 239.160006 
L 214.755251 241.980523 
L 214.882094 239.00336 
L 214.945516 241.27517 
L 215.008937 240.805233 
L 215.199202 238.063188 
L 215.262623 238.768242 
L 215.326045 238.690069 
L 215.452887 233.28445 
L 215.643152 236.261315 
L 215.769995 236.653078 
L 215.833416 236.496432 
L 215.960259 243.155515 
L 216.023681 242.137169 
L 216.213945 236.574904 
L 216.277367 236.261315 
L 216.40421 242.45046 
L 216.467631 239.786887 
L 216.594474 247.699433 
L 216.721317 238.611597 
L 216.784738 240.17865 
L 217.038424 247.620961 
L 217.228689 238.063188 
L 217.355532 243.86057 
L 217.418953 243.155515 
L 217.482375 239.395123 
L 217.609218 246.75926 
L 217.672639 245.427324 
L 217.799482 240.335296 
L 217.862904 240.570115 
L 218.11659 244.408979 
L 218.243432 239.630241 
L 218.306854 241.510287 
L 218.497118 247.385843 
L 218.56054 245.740914 
L 218.687383 236.41796 
L 218.750804 237.828369 
L 218.877647 241.27517 
L 219.00449 237.985014 
L 219.131333 240.648587 
L 219.258176 238.533423 
L 219.321598 239.630241 
L 219.385019 243.077043 
L 219.448441 242.920397 
L 219.575284 236.026495 
L 219.702126 241.666933 
L 219.765548 238.846714 
L 219.828969 236.966369 
L 219.892391 239.708415 
L 219.955812 229.915822 
L 220.019234 234.851205 
L 220.082655 236.104669 
L 220.209498 229.524059 
L 220.336341 233.362624 
L 220.463184 228.270595 
L 220.590027 238.376777 
L 220.71687 231.952514 
L 220.780292 234.69456 
L 220.907135 230.072468 
L 220.970556 235.086323 
L 221.033978 233.676214 
L 221.097399 229.680704 
L 221.16082 231.404105 
L 221.224242 233.754387 
L 221.287663 232.814513 
L 221.351085 232.971159 
L 221.414506 234.851205 
L 221.477928 234.773032 
L 221.668192 230.855696 
L 221.9853 236.888196 
L 222.048721 234.773032 
L 222.112143 234.851205 
L 222.175564 235.478086 
L 222.238986 232.266104 
L 222.302407 232.892687 
L 222.365829 236.261315 
L 222.42925 235.164497 
L 222.492672 231.952514 
L 222.556093 234.067977 
L 222.619514 236.339787 
L 222.682936 233.676214 
L 222.746357 233.754387 
L 222.809779 237.828369 
L 222.8732 237.044842 
L 222.936622 231.325932 
L 223.000043 233.597742 
L 223.063465 239.473297 
L 223.126886 239.160006 
L 223.190308 233.597742 
L 223.253729 234.381268 
L 223.317151 236.653078 
L 223.380572 235.791377 
L 223.443994 235.164497 
L 223.69768 241.666933 
L 223.761101 241.666933 
L 223.887944 239.00336 
L 223.951366 241.666933 
L 224.014787 240.648587 
L 224.078208 240.100178 
L 224.205051 244.72227 
L 224.268473 243.86057 
L 224.395316 232.579396 
L 224.522159 242.607106 
L 224.58558 239.160006 
L 224.712423 245.349151 
L 224.902688 233.911033 
L 225.029531 238.925186 
L 225.219795 230.934168 
L 225.410059 236.41796 
L 225.473481 236.41796 
L 225.600324 219.417877 
L 225.663745 222.316568 
L 225.727167 225.293432 
L 225.85401 220.906458 
L 226.107696 230.150641 
L 226.171117 229.83735 
L 226.234539 229.367413 
L 226.361382 233.832859 
L 226.488225 230.464231 
L 226.615068 237.044842 
L 226.805332 231.717695 
L 226.932175 232.814513 
L 227.059018 231.404105 
L 227.122439 231.482577 
L 227.185861 231.952514 
L 227.312704 230.620877 
L 227.439547 234.146151 
L 227.502968 232.500924 
L 227.56639 232.500924 
L 227.693233 234.69456 
L 227.756654 234.302796 
L 227.820076 236.261315 
L 227.883497 236.183141 
L 227.946919 236.574904 
L 228.01034 235.791377 
L 228.073762 240.021706 
L 228.137183 239.551769 
L 228.200605 239.943532 
L 228.264026 239.395123 
L 228.327447 237.044842 
L 228.390869 237.593251 
L 228.517712 242.45046 
L 228.707976 236.496432 
L 228.771398 237.906542 
L 228.834819 240.491941 
L 228.961662 234.851205 
L 229.025084 236.888196 
L 229.151927 234.616386 
L 229.27877 239.551769 
L 229.342191 234.851205 
L 229.405613 235.32144 
L 229.595877 244.095687 
L 229.786141 237.201487 
L 229.849563 240.17865 
L 229.912984 238.376777 
L 229.976406 239.238478 
L 230.039827 242.371988 
L 230.103249 241.588759 
L 230.293513 238.454951 
L 230.356935 239.00336 
L 230.483778 245.740914 
L 230.674042 239.00336 
L 230.737464 238.611597 
L 230.800885 240.805233 
L 230.864307 240.570115 
L 230.927728 238.846714 
L 230.99115 239.00336 
L 231.054571 240.570115 
L 231.117993 238.925186 
L 231.181414 239.630241 
L 231.4351 243.233987 
L 231.498521 240.727059 
L 231.561943 241.823579 
L 231.625364 244.252333 
L 231.815629 238.925186 
L 231.942472 240.491941 
L 232.005893 239.630241 
L 232.069315 237.044842 
L 232.132736 238.846714 
L 232.259579 243.782396 
L 232.386422 242.137169 
L 232.449844 242.293814 
L 232.513265 244.800742 
L 232.640108 239.551769 
L 232.766951 246.210851 
L 232.893794 239.081832 
L 233.020637 241.980523 
L 233.401166 236.261315 
L 233.464587 239.00336 
L 233.528009 238.454951 
L 233.718273 233.832859 
L 233.845116 238.533423 
L 233.908538 236.261315 
L 234.03538 243.390633 
L 234.098802 239.943532 
L 234.162223 236.574904 
L 234.225645 240.335296 
L 234.289066 239.160006 
L 234.352488 232.266104 
L 234.415909 234.616386 
L 234.479331 238.376777 
L 234.606174 234.302796 
L 234.669595 238.533423 
L 234.733017 236.888196 
L 234.986703 233.676214 
L 235.176967 235.791377 
L 235.240389 235.55626 
L 235.30381 232.42275 
L 235.430653 240.021706 
L 235.494074 239.473297 
L 235.684339 231.482577 
L 235.811182 233.519568 
L 235.874603 233.127805 
L 236.001446 231.169286 
L 236.064868 232.579396 
L 236.128289 238.219834 
L 236.191711 217.459358 
L 236.255132 217.53783 
L 236.318554 219.966286 
L 236.381975 219.026113 
L 236.508818 216.205894 
L 236.635661 219.496349 
L 236.762504 218.477704 
L 236.889347 224.196614 
L 237.01619 229.83735 
L 237.143033 216.989421 
L 237.206454 217.067595 
L 237.269876 215.500839 
L 237.523562 201.712738 
L 237.650405 216.284366 
L 237.713826 214.560667 
L 237.840669 216.441012 
L 237.967512 209.546812 
L 238.030934 210.956922 
L 238.094355 211.427157 
L 238.157777 208.528466 
L 238.221198 212.91544 
L 238.348041 233.989505 
L 238.474884 213.934084 
L 238.538305 214.247376 
L 238.601727 214.873958 
L 238.72857 221.611513 
L 238.855413 215.500839 
L 238.918834 216.127422 
L 238.982256 215.970777 
L 239.109099 226.860486 
L 239.17252 225.058613 
L 239.235942 223.805149 
L 239.299363 225.293432 
L 239.362785 221.063104 
L 239.426206 223.413386 
L 239.489628 232.892687 
L 239.553049 232.814513 
L 239.616471 228.11395 
L 239.679892 230.464231 
L 239.870156 220.749812 
L 239.933578 225.685195 
L 239.996999 225.293432 
L 240.060421 224.275086 
L 240.123842 224.510204 
L 240.187264 224.666849 
L 240.314107 213.777141 
L 240.567793 230.307287 
L 240.694636 224.745023 
L 240.758057 226.468722 
L 240.821479 225.998487 
L 240.948322 223.178268 
L 241.011743 223.570031 
L 241.138586 226.233604 
L 241.202007 225.763667 
L 241.32885 237.985014 
L 241.392272 234.537914 
L 241.582536 224.275086 
L 241.645958 222.708331 
L 241.899644 226.39025 
L 241.963065 225.763667 
L 242.089908 231.561049 
L 242.216751 224.275086 
L 242.343594 225.763667 
L 242.407016 223.726677 
L 242.470437 224.823495 
L 242.724123 236.966369 
L 242.787544 233.911033 
L 242.850966 224.901967 
L 242.914387 231.482577 
L 242.977809 241.980523 
L 243.04123 240.805233 
L 243.104652 240.100178 
L 243.294916 249.501306 
L 243.421759 250.989588 
L 243.485181 253.339871 
L 243.612024 269.321758 
L 243.802288 254.985098 
L 243.86571 257.727143 
L 243.929131 261.017448 
L 243.992553 260.704007 
L 244.182817 252.869934 
L 244.246238 253.810106 
L 244.30966 254.358515 
L 244.436503 246.054205 
L 244.499924 239.943532 
L 244.563346 241.04035 
L 244.626767 241.432114 
L 244.75361 244.173861 
L 244.880453 237.828369 
L 245.197561 256.395207 
L 245.324404 240.883705 
L 245.451247 255.376861 
L 245.578089 240.883705 
L 245.704932 254.201869 
L 245.831775 245.975733 
L 245.895197 251.537997 
L 245.958618 249.971243 
L 246.148883 243.625452 
L 246.275726 233.362624 
L 246.402569 239.708415 
L 246.529412 231.952514 
L 246.656255 243.233987 
L 246.846519 221.846631 
L 247.036783 176.094756 
L 247.100205 176.329873 
L 247.163626 171.316018 
L 247.227048 175.076409 
L 247.417312 178.914974 
L 247.544155 173.509654 
L 247.607577 177.896628 
L 247.670998 177.818454 
L 247.73442 174.214709 
L 247.861263 184.163947 
L 247.988106 178.523509 
L 248.114949 188.629393 
L 248.305213 167.6338 
L 248.368634 166.223691 
L 248.432056 167.947092 
L 248.558899 176.329873 
L 248.62232 169.279027 
L 248.685742 169.670791 
L 248.749163 171.080901 
L 248.812585 165.831928 
L 248.876006 168.80909 
L 249.002849 179.933619 
L 249.066271 178.993446 
L 249.193114 168.4955 
L 249.256535 175.311229 
L 249.763907 98.692995 
L 249.827328 98.692995 
L 249.954171 87.881758 
L 250.017593 94.070903 
L 250.081014 92.190558 
L 250.3347 54.273055 
L 250.398122 53.568 
L 250.588386 68.531392 
L 250.651808 64.14412 
L 250.715229 66.337755 
L 250.778651 70.803201 
L 250.842072 67.904511 
L 250.905494 61.793837 
L 250.968915 62.812184 
L 251.032337 65.945992 
L 251.095758 65.554229 
L 251.15918 63.987474 
L 251.286022 67.277928 
L 251.349444 62.812184 
L 251.793394 91.95544 
L 251.983659 77.462284 
L 252.110502 85.139712 
L 252.237345 76.757229 
L 252.300766 80.752738 
L 252.364188 90.310213 
L 252.427609 291.414168 
L 252.491031 281.778072 
L 252.554452 273.552235 
L 252.617874 274.570581 
L 252.808138 283.344977 
L 252.871559 286.791927 
L 252.934981 283.815063 
L 253.061824 295.488 
L 253.125245 291.570814 
L 253.188667 288.437155 
L 253.252088 292.35434 
L 253.31551 291.257523 
L 253.632617 276.137485 
L 253.886303 281.699749 
L 253.949725 280.054522 
L 254.076568 271.201953 
L 254.330253 287.497131 
L 254.393675 285.14685 
L 254.457096 276.137485 
L 254.520518 276.215808 
L 254.647361 291.649137 
L 254.710782 290.31735 
L 254.837625 275.040667 
L 254.901047 280.838049 
L 254.964468 288.5938 
L 255.02789 284.755086 
L 255.091311 278.957854 
L 255.154733 280.367963 
L 255.281576 273.082149 
L 255.344997 275.040667 
L 255.47184 280.367963 
L 255.598683 271.98533 
L 255.725526 278.017681 
L 255.979212 259.998953 
L 256.042633 256.395207 
L 256.232898 266.031303 
L 256.423162 265.169603 
L 256.486584 266.658035 
L 256.550005 271.907008 
L 256.613427 270.575221 
L 256.676848 266.266421 
L 256.74027 268.616703 
L 256.803691 268.381585 
L 256.867113 265.012957 
L 256.993955 274.25729 
L 257.057377 266.188098 
L 257.120798 271.907008 
L 257.18422 279.114499 
L 257.311063 266.971475 
L 257.437906 275.667399 
L 257.501327 275.510753 
L 257.564749 281.699749 
L 257.62817 280.524609 
L 257.755013 268.224939 
L 257.818435 268.459908 
L 257.881856 268.616703 
L 258.008699 276.84254 
L 258.072121 272.690385 
L 258.135542 274.727376 
L 258.198964 280.681254 
L 258.262385 279.506114 
L 258.325807 271.280276 
L 258.389228 272.768708 
L 258.452649 279.897877 
L 258.516071 275.98084 
L 258.642914 257.335379 
L 258.706335 257.805317 
L 258.833178 248.091196 
L 259.086864 267.206444 
L 259.150286 266.344743 
L 259.277129 248.561133 
L 259.34055 250.832943 
L 259.467393 256.238561 
L 259.530815 254.201869 
L 259.657658 250.20636 
L 259.721079 253.731634 
L 259.847922 249.03107 
L 260.038186 256.78697 
L 260.165029 242.371988 
L 260.228451 245.270679 
L 260.291872 251.61647 
L 260.418715 240.727059 
L 260.482137 246.680788 
L 260.545558 235.869849 
L 260.60898 238.846714 
L 260.672401 241.588759 
L 260.862666 229.680704 
L 260.926087 231.952514 
L 260.989509 230.385759 
L 261.05293 229.210767 
L 261.179773 237.593251 
L 261.306616 232.657569 
L 261.370037 233.989505 
L 261.433459 231.952514 
L 261.49688 232.42275 
L 261.560302 240.335296 
L 261.623723 240.021706 
L 261.750566 232.579396 
L 261.940831 239.86506 
L 262.004252 237.201487 
L 262.067674 233.441096 
L 262.131095 236.261315 
L 262.384781 226.625368 
L 262.448203 227.957304 
L 262.575046 242.920397 
L 262.638467 236.104669 
L 262.701889 238.690069 
L 262.76531 238.298306 
L 262.828731 228.819004 
L 262.892153 233.754387 
L 262.955574 245.662442 
L 263.018996 243.86057 
L 263.082417 236.41796 
L 263.145839 238.219834 
L 263.462946 270.888512 
L 263.526368 262.349235 
L 263.653211 282.56145 
L 263.716632 282.483127 
L 263.843475 268.381585 
L 263.970318 278.644413 
L 264.097161 267.519885 
L 264.224004 279.349468 
L 264.287425 278.409444 
L 264.414268 273.787204 
L 264.604533 280.211317 
L 264.667954 279.036177 
L 264.731376 276.215808 
L 264.794797 277.234303 
L 264.858219 277.312626 
L 264.985062 265.012957 
L 265.111905 272.220448 
L 265.175326 265.561366 
L 265.302169 279.427791 
L 265.429012 255.92527 
L 265.492434 256.238561 
L 265.555855 255.533507 
L 265.682698 259.842307 
L 265.809541 252.47817 
L 265.872962 255.376861 
L 266.063227 261.174094 
L 266.19007 231.404105 
L 266.253491 234.067977 
L 266.316913 239.943532 
L 266.443756 230.150641 
L 266.570599 240.335296 
L 266.63402 239.081832 
L 266.697442 240.883705 
L 266.760863 239.943532 
L 266.824285 238.846714 
L 266.951128 250.989588 
L 267.014549 245.819088 
L 267.07797 239.86506 
L 267.204813 249.814597 
L 267.331656 237.436605 
L 267.585342 248.717779 
L 267.90245 241.118524 
L 268.029293 244.408979 
L 268.092714 240.883705 
L 268.156136 241.118524 
L 268.3464 244.800742 
L 268.409822 249.736125 
L 268.79035 227.643714 
L 268.980615 233.911033 
L 269.107458 243.077043 
L 269.297722 219.652994 
L 269.361144 221.924804 
L 269.487987 231.404105 
L 269.61483 225.371904 
L 269.678251 225.685195 
L 269.805094 234.616386 
L 269.868516 232.266104 
L 269.931937 223.491559 
L 269.995358 226.233604 
L 270.122201 237.906542 
L 270.312466 229.602232 
L 270.375887 222.08145 
L 270.50273 235.869849 
L 270.566152 232.892687 
L 270.629573 227.251951 
L 270.692995 227.878832 
L 270.819838 237.671723 
L 270.883259 234.851205 
L 270.946681 231.169286 
L 271.073524 244.48745 
L 271.263788 229.524059 
L 271.32721 231.717695 
L 271.454052 239.630241 
L 271.580895 229.524059 
L 271.644317 233.911033 
L 271.77116 223.491559 
L 271.834581 227.487069 
L 271.961424 240.883705 
L 272.278532 232.42275 
L 272.405375 231.169286 
L 272.532218 245.270679 
L 272.595639 244.72227 
L 272.659061 233.28445 
L 272.722482 236.653078 
L 272.785903 244.330507 
L 272.849325 242.920397 
L 272.912746 241.666933 
L 272.976168 243.312161 
L 273.039589 239.160006 
L 273.103011 240.100178 
L 273.166432 244.095687 
L 273.229854 243.547278 
L 273.546961 236.183141 
L 273.673804 241.980523 
L 273.864069 231.561049 
L 273.990912 234.537914 
L 274.117755 240.17865 
L 274.308019 221.454867 
L 274.37144 229.132296 
L 274.434862 229.602232 
L 274.498283 223.883323 
L 274.625126 240.727059 
L 274.688548 236.574904 
L 274.751969 231.561049 
L 274.815391 234.773032 
L 274.878812 235.634732 
L 274.942234 231.325932 
L 275.005655 233.519568 
L 275.132498 229.524059 
L 275.259341 240.256824 
L 275.513027 229.524059 
L 275.576449 226.938659 
L 275.766713 235.242969 
L 275.893556 229.915822 
L 276.020399 242.607106 
L 276.08382 237.514779 
L 276.147242 234.616386 
L 276.210663 239.473297 
L 276.337506 233.519568 
L 276.400928 238.846714 
L 276.464349 237.906542 
L 276.591192 229.993996 
L 276.718035 243.390633 
L 276.781457 219.574522 
L 276.844878 222.159922 
L 276.9083 222.238096 
L 277.035143 212.993912 
L 277.161985 219.887814 
L 277.225407 218.791294 
L 277.288828 217.77265 
L 277.35225 218.242885 
L 277.542514 222.864977 
L 277.732779 215.344194 
L 277.7962 217.929295 
L 277.859622 219.182759 
L 278.049886 205.943066 
L 278.113308 207.196531 
L 278.240151 216.832477 
L 278.303572 216.519186 
L 278.430415 214.012258 
L 278.493837 215.735957 
L 278.557258 215.500839 
L 278.620679 213.620495 
L 278.684101 213.934084 
L 278.747522 213.22903 
L 278.810944 213.385676 
L 278.937787 229.915822 
L 279.128051 214.168904 
L 279.191473 214.560667 
L 279.318316 220.906458 
L 279.445159 214.639139 
L 279.50858 217.77265 
L 279.572002 215.814131 
L 279.635423 217.53783 
L 279.698845 223.883323 
L 279.762266 220.827986 
L 279.825688 217.929295 
L 280.079373 226.233604 
L 280.206216 220.358049 
L 280.269638 224.275086 
L 280.396481 215.265722 
L 280.523324 218.94794 
L 280.586745 216.519186 
L 280.650167 220.358049 
L 280.713588 220.201403 
L 280.840431 211.270213 
L 281.157539 224.039968 
L 281.284382 216.754304 
L 281.347803 218.399531 
L 281.474646 214.560667 
L 281.538067 214.95243 
L 281.66491 220.906458 
L 281.728332 217.616004 
L 281.791753 218.085941 
L 281.855175 227.251951 
L 281.918596 224.980141 
L 281.982018 216.910949 
L 282.045439 220.514694 
L 282.108861 223.648503 
L 282.172282 219.339703 
L 282.299125 229.288941 
L 282.425968 221.768159 
L 282.48939 223.334914 
L 282.552811 221.689687 
L 282.616233 222.159922 
L 282.806497 226.468722 
L 283.123604 220.514694 
L 283.313869 229.288941 
L 283.37729 226.938659 
L 283.504133 223.021623 
L 283.567555 225.450376 
L 283.630976 223.883323 
L 283.694398 221.924804 
L 283.757819 223.100094 
L 283.884662 221.141277 
L 283.948084 221.376395 
L 284.074927 225.136786 
L 284.265191 240.883705 
L 284.455455 232.736041 
L 284.518877 235.948023 
L 284.582298 235.634732 
L 284.835984 228.740532 
L 284.899406 232.971159 
L 284.962827 231.325932 
L 285.026249 230.855696 
L 285.153092 220.593167 
L 285.216513 222.316568 
L 285.279935 225.371904 
L 285.343356 224.275086 
L 285.470199 221.924804 
L 285.597042 231.795869 
L 285.660464 230.150641 
L 285.723885 229.288941 
L 285.787306 231.090814 
L 285.914149 226.546896 
L 286.040992 229.602232 
L 286.104414 225.371904 
L 286.167835 226.076959 
L 286.294678 231.169286 
L 286.421521 230.229113 
L 286.611786 235.086323 
L 286.80205 227.017131 
L 286.865472 225.920313 
L 286.928893 226.625368 
L 286.992315 228.348769 
L 287.055736 225.215258 
L 287.119158 225.841841 
L 287.246 237.044842 
L 287.372843 226.546896 
L 287.436265 229.524059 
L 287.563108 226.546896 
L 287.689951 238.846714 
L 287.753372 236.574904 
L 287.880215 233.832859 
L 288.007058 236.183141 
L 288.133901 225.920313 
L 288.260744 232.030987 
L 288.324166 229.053824 
L 288.451009 235.712905 
L 288.577851 226.938659 
L 288.704694 237.749896 
L 288.831537 230.150641 
L 288.894959 230.307287 
L 288.95838 227.80036 
L 289.148645 238.690069 
L 289.402331 226.468722 
L 289.592595 237.044842 
L 289.719438 227.017131 
L 289.78286 227.251951 
L 289.846281 233.597742 
L 289.909703 233.049333 
L 289.973124 229.524059 
L 290.036545 231.01264 
L 290.099967 230.777522 
L 290.163388 224.431732 
L 290.22681 224.588377 
L 290.353653 233.049333 
L 290.543917 222.08145 
L 290.797603 232.814513 
L 290.987868 223.805149 
L 291.114711 234.302796 
L 291.178132 231.952514 
L 291.241554 231.01264 
L 291.304975 234.146151 
L 291.368397 231.874341 
L 291.431818 227.957304 
L 291.495239 228.819004 
L 291.558661 232.187632 
L 291.622082 231.874341 
L 291.685504 230.072468 
L 291.748925 231.247459 
L 291.812347 233.362624 
L 291.93919 220.593167 
L 292.066033 231.874341 
L 292.129454 230.150641 
L 292.192876 227.095305 
L 292.38314 234.851205 
L 292.509983 219.80964 
L 292.636826 231.090814 
L 292.700248 227.957304 
L 292.827091 224.980141 
L 292.953933 229.210767 
L 293.080776 210.64363 
L 293.144198 208.919931 
L 293.207619 209.155049 
L 293.588148 223.491559 
L 293.65157 227.80036 
L 293.778413 222.159922 
L 293.841834 226.312077 
L 293.905256 224.901967 
L 293.968677 222.316568 
L 294.032099 224.588377 
L 294.158942 215.735957 
L 294.222363 216.205894 
L 294.285785 221.533041 
L 294.349206 218.712822 
L 294.412627 215.030604 
L 294.53947 220.906458 
L 294.602892 216.049249 
L 294.666313 217.067595 
L 294.729735 219.80964 
L 294.793156 218.164413 
L 294.856578 218.712822 
L 294.919999 220.358049 
L 295.046842 217.067595 
L 295.300528 223.334914 
L 295.427371 216.519186 
L 295.554214 225.763667 
L 295.681057 221.454867 
L 295.744479 220.906458 
L 295.8079 214.560667 
L 295.871321 215.030604 
L 295.934743 220.201403 
L 295.998164 220.122931 
L 296.125007 218.712822 
L 296.188429 214.639139 
L 296.25185 215.109076 
L 296.315272 218.164413 
L 296.568958 207.823411 
L 296.632379 210.173693 
L 296.886065 218.712822 
L 297.012908 216.441012 
L 297.139751 223.883323 
L 297.203172 222.786505 
L 297.393437 219.026113 
L 297.456858 216.989421 
L 297.583701 223.883323 
L 297.647123 220.593167 
L 297.710544 222.864977 
L 297.773966 226.312077 
L 297.900809 215.892603 
L 298.027652 228.348769 
L 298.091073 227.80036 
L 298.217916 228.505713 
L 298.344759 218.791294 
L 298.408181 218.94794 
L 298.535024 221.454867 
L 298.598445 221.063104 
L 298.661866 221.768159 
L 298.788709 227.487069 
L 298.915552 217.459358 
L 299.042395 226.70384 
L 299.169238 220.122931 
L 299.23266 222.159922 
L 299.359503 217.616004 
L 299.486346 219.026113 
L 299.549767 220.201403 
L 299.67661 230.464231 
L 299.803453 217.851122 
L 299.866875 220.67134 
L 300.057139 229.132296 
L 300.183982 218.477704 
L 300.247403 221.219749 
L 300.310825 224.901967 
L 300.437668 221.298222 
L 300.501089 221.376395 
L 300.627932 228.192123 
L 300.754775 216.205894 
L 300.881618 229.367413 
L 300.94504 223.805149 
L 301.008461 219.887814 
L 301.071883 222.629859 
L 301.262147 229.759176 
L 301.325569 228.035478 
L 301.38899 222.551686 
L 301.452412 223.883323 
L 301.515833 227.173777 
L 301.642676 221.611513 
L 301.769519 230.69905 
L 301.896362 221.689687 
L 301.959783 222.708331 
L 302.023205 219.339703 
L 302.086626 219.966286 
L 302.150048 226.312077 
L 302.213469 225.763667 
L 302.340312 220.906458 
L 302.530577 227.878832 
L 302.65742 221.298222 
L 302.720841 224.588377 
L 302.784263 227.878832 
L 302.974527 221.611513 
L 303.037948 221.924804 
L 303.164791 230.777522 
L 303.228213 229.602232 
L 303.355056 225.841841 
L 303.418477 221.533041 
L 303.608742 233.519568 
L 303.735585 222.551686 
L 303.799006 222.629859 
L 303.925849 218.399531 
L 304.052692 222.786505 
L 304.116114 215.579013 
L 304.179535 216.832477 
L 304.242957 226.938659 
L 304.306378 226.39025 
L 304.369799 214.717313 
L 304.433221 215.187548 
L 304.560064 227.957304 
L 304.686907 215.892603 
L 304.877171 228.427241 
L 305.004014 225.841841 
L 305.130857 227.722186 
L 305.2577 224.745023 
L 305.321122 224.901967 
L 305.447965 223.570031 
L 305.511386 223.726677 
L 305.574808 222.159922 
L 305.701651 225.763667 
L 305.765072 222.708331 
L 305.891915 231.874341 
L 306.018758 216.519186 
L 306.082179 216.989421 
L 306.209022 220.436222 
L 306.399287 218.477704 
L 306.652973 226.39025 
L 306.779816 204.532957 
L 306.843237 205.551303 
L 306.906659 213.542321 
L 306.97008 210.486984 
L 307.033502 206.569948 
L 307.160345 217.302713 
L 307.223766 215.657485 
L 307.350609 221.298222 
L 307.41403 220.279577 
L 307.477452 220.593167 
L 307.540873 222.786505 
L 307.667716 214.639139 
L 307.794559 224.431732 
L 307.921402 212.993912 
L 308.048245 221.063104 
L 308.111667 220.514694 
L 308.175088 219.887814 
L 308.23851 220.122931 
L 308.365353 221.611513 
L 308.492196 217.380886 
L 308.555617 217.53783 
L 308.619039 219.80964 
L 308.68246 219.261231 
L 308.745881 218.399531 
L 308.809303 218.712822 
L 308.936146 223.25674 
L 308.999567 222.943151 
L 309.12641 218.63435 
L 309.189832 220.984632 
L 309.316675 230.464231 
L 309.380096 232.10916 
L 309.443518 231.717695 
L 309.570361 227.565541 
L 309.697204 235.634732 
L 309.887468 215.970777 
L 309.95089 220.122931 
L 310.077733 229.367413 
L 310.141154 224.666849 
L 310.204575 224.901967 
L 310.331418 223.648503 
L 310.39484 225.52855 
L 310.458261 224.11844 
L 310.521683 219.026113 
L 310.585104 222.003276 
L 310.711947 230.150641 
L 310.965633 218.477704 
L 311.282741 230.150641 
L 311.599848 237.201487 
L 311.663269 237.123314 
L 311.853534 231.482577 
L 311.916955 230.307287 
L 312.043798 234.616386 
L 312.170641 227.487069 
L 312.234063 229.210767 
L 312.360906 225.841841 
L 312.55117 232.579396 
L 312.678013 225.293432 
L 312.741435 226.625368 
L 312.804856 229.210767 
L 312.868278 227.722186 
L 312.99512 224.11844 
L 313.058542 225.215258 
L 313.185385 232.344278 
L 313.248806 226.782014 
L 313.312228 227.330423 
L 313.439071 232.971159 
L 313.565914 231.325932 
L 313.692757 225.136786 
L 313.883021 230.150641 
L 313.946443 231.874341 
L 314.136707 225.685195 
L 314.26355 232.814513 
L 314.453814 224.431732 
L 314.580657 223.805149 
L 314.7075 232.657569 
L 314.770922 230.934168 
L 314.897765 220.514694 
L 314.961186 226.468722 
L 315.024608 222.003276 
L 315.088029 220.044757 
L 315.214872 231.874341 
L 315.278294 226.312077 
L 315.341715 228.11395 
L 315.405137 231.795869 
L 315.53198 222.943151 
L 315.595401 226.312077 
L 315.658823 226.076959 
L 315.722244 221.063104 
L 315.785666 223.25674 
L 315.849087 229.367413 
L 315.912508 226.312077 
L 316.039351 222.708331 
L 316.102773 222.39504 
L 316.293037 223.883323 
L 316.356459 227.643714 
L 316.41988 225.920313 
L 316.483302 219.652994 
L 316.610145 230.229113 
L 316.736988 220.67134 
L 316.800409 222.159922 
L 316.863831 220.279577 
L 316.990674 225.763667 
L 317.054095 223.334914 
L 317.180938 218.399531 
L 317.307781 228.035478 
L 317.371202 223.178268 
L 317.434624 224.11844 
L 317.498045 223.570031 
L 317.68831 220.514694 
L 317.815153 219.104585 
L 317.878574 220.749812 
L 317.941996 220.436222 
L 318.005417 221.063104 
L 318.13226 229.445587 
L 318.195682 228.897178 
L 318.322525 219.417877 
L 318.385946 220.749812 
L 318.639632 197.638757 
L 318.703054 199.832393 
L 318.893318 209.860103 
L 318.956739 214.325549 
L 319.020161 211.975268 
L 319.210425 203.514611 
L 319.273847 205.473129 
L 319.337268 205.238012 
L 319.40069 205.002894 
L 319.527533 223.25674 
L 319.654376 211.740449 
L 319.717797 211.818622 
L 319.781219 209.390166 
L 319.84464 209.625284 
L 319.908062 214.560667 
L 319.971483 211.818622 
L 320.034905 210.330339 
L 320.161748 213.934084 
L 320.28859 221.846631 
L 320.352012 219.731168 
L 320.415433 219.731168 
L 320.669119 229.915822 
L 320.732541 229.524059 
L 320.795962 226.312077 
L 320.859384 229.053824 
L 321.049648 218.94794 
L 321.11307 220.122931 
L 321.366756 224.823495 
L 321.493599 216.205894 
L 321.55702 218.791294 
L 321.747284 233.28445 
L 321.874127 224.980141 
L 321.937549 226.860486 
L 322.00097 229.759176 
L 322.064392 229.367413 
L 322.127813 224.745023 
L 322.191235 226.233604 
L 322.254656 229.524059 
L 322.318078 228.035478 
L 322.381499 227.408895 
L 322.508342 242.920397 
L 322.762028 226.625368 
L 322.888871 231.639223 
L 322.952293 230.385759 
L 323.015714 229.993996 
L 323.142557 228.819004 
L 323.2694 234.067977 
L 323.396243 229.993996 
L 323.459664 232.344278 
L 323.586507 225.763667 
L 323.649929 228.583887 
L 323.903615 239.00336 
L 324.030458 229.288941 
L 324.157301 244.330507 
L 324.220722 238.298306 
L 324.284144 238.533423 
L 324.537829 247.777607 
L 324.601251 247.072552 
L 324.664672 250.832943 
L 324.791515 266.658035 
L 324.98178 257.100262 
L 325.108623 260.782479 
L 325.172044 259.842307 
L 325.42573 254.906924 
L 325.489152 256.708797 
L 325.552573 256.003742 
L 325.679416 239.160006 
L 325.742838 240.883705 
L 325.806259 245.819088 
L 325.869681 244.095687 
L 325.933102 241.823579 
L 325.996523 243.939042 
L 326.059945 241.510287 
L 326.377052 252.791462 
L 326.503895 241.04035 
L 326.630738 251.303178 
L 326.757581 239.86506 
L 326.884424 250.519652 
L 327.011267 243.782396 
L 327.13811 252.556642 
L 327.328375 242.685578 
L 327.455217 236.496432 
L 327.58206 239.943532 
L 327.708903 237.044842 
L 327.772325 238.14166 
L 327.835746 242.137169 
L 327.899168 241.27517 
L 328.026011 228.035478 
L 328.089432 228.11395 
L 328.216275 233.28445 
L 328.279697 232.10916 
L 328.343118 228.740532 
L 328.40654 230.777522 
L 328.596804 229.602232 
L 328.723647 222.551686 
L 328.85049 227.643714 
L 328.913911 224.666849 
L 329.040754 231.561049 
L 329.167597 226.155431 
L 329.29444 238.063188 
L 329.548126 221.689687 
L 329.738391 232.344278 
L 329.865234 230.464231 
L 329.992077 219.731168 
L 330.182341 232.030987 
L 330.245762 230.385759 
L 330.372605 221.689687 
L 330.436027 228.662359 
L 330.499448 228.192123 
L 330.56287 222.159922 
L 330.626291 224.588377 
L 330.689713 225.293432 
L 330.816556 212.210386 
L 331.00682 216.832477 
L 331.133663 207.901585 
L 331.197085 210.173693 
L 331.387349 222.864977 
L 331.514192 212.91544 
L 331.704456 225.998487 
L 331.767878 225.920313 
L 331.894721 220.906458 
L 331.958142 222.003276 
L 332.084985 216.675831 
L 332.148407 218.399531 
L 332.211828 218.321059 
L 332.27525 217.77265 
L 332.338671 216.127422 
L 332.528936 204.219666 
L 332.655779 210.486984 
L 332.782622 201.947558 
L 332.909465 213.22903 
L 333.099729 190.509738 
L 333.16315 194.740066 
L 333.226572 200.694094 
L 333.289993 198.343812 
L 333.480258 192.781548 
L 333.607101 209.390166 
L 333.670522 199.832393 
L 333.733944 192.311611 
L 333.797365 194.191657 
L 334.241316 219.652994 
L 334.304737 216.519186 
L 334.368159 215.030604 
L 334.43158 218.556176 
L 334.495002 218.321059 
L 334.685266 210.721804 
L 334.748687 209.625284 
L 334.812109 210.251867 
L 335.065795 221.376395 
L 335.129216 221.376395 
L 335.192638 217.067595 
L 335.256059 219.182759 
L 335.509745 233.754387 
L 335.573167 230.855696 
L 335.636588 221.768159 
L 335.70001 225.450376 
L 335.826853 238.768242 
L 335.890274 238.298306 
L 336.017117 230.307287 
L 336.14396 244.252333 
L 336.207381 240.883705 
L 336.461067 227.878832 
L 336.651332 237.123314 
L 336.778175 227.487069 
L 336.841596 228.662359 
L 336.905018 235.242969 
L 336.968439 232.814513 
L 337.158704 220.514694 
L 337.285547 218.242885 
L 337.539232 226.39025 
L 337.602654 225.763667 
L 337.666075 227.408895 
L 337.729497 232.10916 
L 337.792918 231.874341 
L 337.85634 228.505713 
L 337.919761 230.229113 
L 338.110026 237.593251 
L 338.173447 236.809724 
L 338.236869 233.362624 
L 338.363712 247.307669 
L 338.490555 229.759176 
L 338.744241 243.703924 
L 338.807662 243.939042 
L 338.934505 233.597742 
L 338.997926 233.832859 
L 339.315034 241.27517 
L 339.441877 246.367497 
L 339.505298 240.491941 
L 339.56872 242.763752 
L 339.632141 250.049715 
L 339.949249 218.477704 
L 340.01267 218.63435 
L 340.266356 242.842224 
L 340.329777 242.293814 
L 340.45662 229.993996 
L 340.646885 237.749896 
L 341.027414 225.607022 
L 341.217678 234.146151 
L 341.344521 221.298222 
L 341.407943 223.805149 
L 341.471364 232.736041 
L 341.534786 227.957304 
L 341.598207 222.159922 
L 341.851893 238.690069 
L 341.978736 228.740532 
L 342.042157 229.83735 
L 342.105579 230.307287 
L 342.169 226.546896 
L 342.232422 228.270595 
L 342.359265 237.123314 
L 342.422686 230.620877 
L 342.486108 230.777522 
L 342.549529 232.971159 
L 342.612951 229.602232 
L 342.676372 230.072468 
L 342.739794 239.86506 
L 342.803215 239.551769 
L 342.930058 229.915822 
L 343.120323 235.32144 
L 343.247165 230.69905 
L 343.310587 232.500924 
L 343.500851 227.487069 
L 343.627694 222.316568 
L 343.754537 237.123314 
L 343.817959 230.855696 
L 343.88138 231.952514 
L 343.944802 233.832859 
L 344.008223 226.39025 
L 344.071645 231.01264 
L 344.135066 242.058697 
L 344.198488 237.358133 
L 344.452174 206.648121 
L 344.579016 226.233604 
L 344.642438 226.155431 
L 344.705859 220.593167 
L 344.832702 238.376777 
L 344.896124 237.201487 
L 345.022967 225.998487 
L 345.14981 231.01264 
L 345.276653 219.496349 
L 345.403496 229.83735 
L 345.466917 228.270595 
L 345.59376 219.966286 
L 345.720603 223.961795 
L 345.784025 222.316568 
L 346.03771 217.616004 
L 346.164553 209.546812 
L 346.227975 218.556176 
L 346.291396 217.616004 
L 346.354818 209.78193 
L 346.481661 224.823495 
L 346.608504 194.348601 
L 346.671925 195.288475 
L 346.735347 195.680239 
L 346.86219 201.634266 
L 346.989033 194.113483 
L 347.242719 203.514611 
L 347.432983 182.597192 
L 347.559826 183.458892 
L 347.623247 180.951965 
L 347.75009 192.546728 
L 347.813512 191.763202 
L 347.940355 193.878366 
L 348.003776 193.800192 
L 348.130619 204.92472 
L 348.257462 195.445121 
L 348.384305 205.943066 
L 348.511148 196.385294 
L 348.701413 208.058231 
L 348.764834 206.961413 
L 348.891677 209.546812 
L 349.01852 205.316484 
L 349.081941 206.021539 
L 349.208784 210.800276 
L 349.399049 204.532957 
L 349.46247 205.551303 
L 349.589313 213.620495 
L 349.652735 210.095221 
L 349.716156 206.961413 
L 349.779578 208.763285 
L 349.906421 236.339787 
L 350.033264 238.768242 
L 350.096685 236.026495 
L 350.160107 236.966369 
L 350.28695 249.34466 
L 350.477214 227.017131 
L 350.540635 229.053824 
L 350.667478 237.828369 
L 350.7309 233.362624 
L 350.794321 233.597742 
L 350.857743 233.28445 
L 350.921164 234.773032 
L 350.984586 239.786887 
L 351.048007 238.298306 
L 351.111429 232.030987 
L 351.17485 232.42275 
L 351.301693 245.349151 
L 351.365115 245.192505 
L 351.555379 228.819004 
L 351.618801 235.007851 
L 351.745644 241.04035 
L 351.872486 237.985014 
L 351.999329 245.427324 
L 352.126172 236.104669 
L 352.253015 252.399997 
L 352.44328 237.671723 
L 352.506701 239.238478 
L 352.633544 247.934252 
L 352.760387 238.768242 
L 352.823809 242.371988 
L 352.950652 234.459442 
L 353.140916 249.579479 
L 353.267759 243.547278 
L 353.33118 247.699433 
L 353.394602 246.054205 
L 353.458023 239.00336 
L 353.521445 239.708415 
L 353.775131 253.105051 
L 353.838552 246.054205 
L 353.901974 246.994378 
L 353.965395 251.303178 
L 354.028817 250.363006 
L 354.092238 248.952897 
L 354.15566 250.989588 
L 354.282503 244.48745 
L 354.472767 248.482661 
L 354.536189 250.284534 
L 354.59961 247.385843 
L 354.726453 237.593251 
L 354.853296 245.114033 
L 355.106982 232.187632 
L 355.170403 233.597742 
L 355.297246 240.100178 
L 355.360668 235.948023 
L 355.487511 220.67134 
L 355.550932 231.795869 
L 355.614354 231.247459 
L 355.677775 222.551686 
L 355.804618 239.473297 
L 355.86804 234.381268 
L 355.931461 230.150641 
L 355.994883 232.42275 
L 356.058304 231.874341 
L 356.121725 228.583887 
L 356.185147 232.500924 
L 356.248568 231.247459 
L 356.31199 228.11395 
L 356.438833 237.436605 
L 356.565676 229.445587 
L 356.629097 231.325932 
L 356.75594 226.546896 
L 356.882783 233.989505 
L 356.946205 232.10916 
L 357.073048 226.155431 
L 357.199891 240.021706 
L 357.326734 231.325932 
L 357.390155 237.044842 
L 357.453577 233.205978 
L 357.516998 232.10916 
L 357.580419 236.809724 
L 357.643841 235.478086 
L 357.770684 226.938659 
L 357.897527 240.883705 
L 357.960948 229.288941 
L 358.02437 230.620877 
L 358.087791 229.602232 
L 358.214634 223.570031 
L 358.341477 224.588377 
L 358.404899 223.334914 
L 358.46832 224.275086 
L 358.531742 224.353558 
L 358.595163 224.745023 
L 358.722006 230.777522 
L 358.785428 228.97565 
L 358.848849 223.491559 
L 358.912271 224.275086 
L 358.975692 224.11844 
L 359.229378 201.399149 
L 359.546485 218.007767 
L 359.609907 217.380886 
L 359.800171 210.878748 
L 359.863593 210.956922 
L 359.927014 210.565158 
L 359.990436 209.46834 
L 360.117279 229.367413 
L 360.1807 222.159922 
L 360.307543 212.367031 
L 360.434386 215.030604 
L 360.497807 219.339703 
L 360.561229 216.910949 
L 360.62465 216.519186 
L 360.688072 217.224241 
L 360.751493 216.675831 
L 360.878336 227.017131 
L 360.941758 222.316568 
L 361.005179 220.906458 
L 361.068601 226.155431 
L 361.132022 225.685195 
L 361.195444 227.017131 
L 361.258865 231.874341 
L 361.322287 231.404105 
L 361.385708 229.602232 
L 361.44913 231.01264 
L 361.639394 224.11844 
L 361.702816 222.708331 
L 361.829658 228.348769 
L 361.956501 227.565541 
L 362.083344 222.08145 
L 362.146766 222.864977 
L 362.273609 237.985014 
L 362.33703 237.671723 
L 362.463873 228.740532 
L 362.527295 230.072468 
L 362.654138 232.42275 
L 362.717559 230.150641 
L 362.780981 231.639223 
L 362.844402 233.127805 
L 362.971245 231.01264 
L 363.098088 243.312161 
L 363.288352 236.888196 
L 363.351774 237.044842 
L 363.478617 247.856079 
L 363.542038 245.192505 
L 363.668881 240.727059 
L 363.859146 245.58397 
L 363.922567 242.763752 
L 364.04941 246.367497 
L 364.176253 238.925186 
L 364.239675 241.510287 
L 364.493361 250.049715 
L 364.620204 241.666933 
L 364.683625 252.164879 
L 364.747046 251.303178 
L 364.873889 238.454951 
L 364.937311 240.648587 
L 365.000732 234.381268 
L 365.064154 236.183141 
L 365.444683 263.289407 
L 365.571526 257.648671 
L 365.698369 260.782479 
L 365.76179 258.823961 
L 365.825212 259.450544 
L 365.888633 260.704007 
L 366.20574 243.390633 
L 366.269162 233.519568 
L 366.332583 236.653078 
L 366.396005 240.17865 
L 366.459426 239.238478 
L 366.522848 238.376777 
L 366.586269 241.196996 
L 366.649691 239.395123 
L 366.966798 247.464315 
L 367.093641 238.063188 
L 367.220484 245.349151 
L 367.347327 237.671723 
L 367.47417 246.524142 
L 367.601013 240.727059 
L 367.727856 248.247842 
L 368.044963 235.948023 
L 368.108385 237.279959 
L 368.171806 238.846714 
L 368.298649 232.657569 
L 368.425492 242.998869 
L 368.488914 242.293814 
L 368.679178 226.155431 
L 368.806021 238.14166 
L 368.869443 237.279959 
L 368.932864 233.597742 
L 368.996285 235.164497 
L 369.123128 232.971159 
L 369.18655 234.773032 
L 369.313393 224.745023 
L 369.376814 228.583887 
L 369.440236 231.795869 
L 369.503657 228.035478 
L 369.567079 230.307287 
L 369.6305 233.989505 
L 369.693922 231.874341 
L 369.757343 230.69905 
L 369.884186 240.648587 
L 370.137872 227.487069 
L 370.328137 238.14166 
L 370.391558 236.183141 
L 370.454979 234.616386 
L 370.581822 223.413386 
L 370.772087 237.044842 
L 370.962351 225.841841 
L 371.089194 232.187632 
L 371.152616 229.915822 
L 371.216037 231.717695 
L 371.279459 229.288941 
L 371.34288 220.044757 
L 371.406302 221.768159 
L 371.469723 225.920313 
L 371.533145 224.196614 
L 371.723409 216.754304 
L 371.786831 219.182759 
L 371.913673 230.307287 
L 371.977095 229.053824 
L 372.103938 220.827986 
L 372.230781 228.11395 
L 372.357624 232.500924 
L 372.484467 225.998487 
L 372.61131 228.740532 
L 372.674731 227.565541 
L 372.864996 231.952514 
L 373.118682 221.454867 
L 373.182103 223.805149 
L 373.245525 230.385759 
L 373.308946 228.11395 
L 373.372367 221.768159 
L 373.49921 234.773032 
L 373.689475 211.035394 
L 373.752896 216.910949 
L 373.816318 222.08145 
L 373.879739 220.201403 
L 374.070004 216.597658 
L 374.196847 234.067977 
L 374.260268 226.233604 
L 374.32369 219.026113 
L 374.387111 219.417877 
L 374.513954 225.998487 
L 374.640797 234.381268 
L 374.704219 232.42275 
L 374.831061 243.86057 
L 374.894483 239.630241 
L 374.957904 236.104669 
L 375.084747 241.588759 
L 375.275012 236.104669 
L 375.338433 232.10916 
L 375.401855 232.42275 
L 375.465276 238.768242 
L 375.528698 237.828369 
L 375.592119 236.026495 
L 375.718962 240.883705 
L 375.782384 233.911033 
L 375.845805 235.007851 
L 376.03607 246.054205 
L 376.099491 250.284534 
L 376.162913 248.717779 
L 376.289755 237.514779 
L 376.416598 255.846798 
L 376.48002 253.88828 
L 376.606863 245.035859 
L 376.733706 255.455333 
L 376.987392 241.666933 
L 377.241078 250.363006 
L 377.367921 240.727059 
L 377.431342 241.353642 
L 377.494764 248.16937 
L 377.558185 245.740914 
L 377.811871 228.897178 
L 378.319243 244.330507 
L 378.446086 239.316651 
L 378.509507 239.86506 
L 378.699772 247.620961 
L 378.763193 245.819088 
L 378.826615 241.980523 
L 378.953458 252.321524 
L 379.0803 237.671723 
L 379.207143 249.187716 
L 379.270565 247.777607 
L 379.397408 252.321524 
L 379.524251 241.04035 
L 379.587672 241.27517 
L 379.651094 241.118524 
L 379.777937 244.095687 
L 379.841358 242.058697 
L 379.968201 251.61647 
L 380.031623 250.363006 
L 380.095044 243.939042 
L 380.158466 246.602614 
L 380.221887 253.88828 
L 380.285309 249.893069 
L 380.412152 233.205978 
L 380.475573 236.574904 
L 380.602416 226.155431 
L 380.856102 248.091196 
L 380.919523 246.994378 
L 381.046366 232.42275 
L 381.236631 242.058697 
L 381.426895 234.146151 
L 381.490317 238.219834 
L 381.553738 236.653078 
L 381.61716 235.55626 
L 381.807424 239.943532 
L 381.934267 227.722186 
L 381.997688 228.819004 
L 382.06111 238.454951 
L 382.124531 235.399614 
L 382.187953 228.662359 
L 382.251374 231.404105 
L 382.441639 252.321524 
L 382.568482 241.745405 
L 382.631903 242.528634 
L 382.695325 242.920397 
L 382.758746 238.376777 
L 382.822168 239.551769 
L 382.949011 248.639307 
L 383.075854 239.708415 
L 383.139275 241.588759 
L 383.202697 240.335296 
L 383.266118 239.86506 
L 383.392961 248.639307 
L 383.519804 237.279959 
L 383.646647 242.45046 
L 383.836911 238.846714 
L 383.900333 239.316651 
L 384.090597 234.224623 
L 384.21744 229.524059 
L 384.344283 242.763752 
L 384.407705 238.219834 
L 384.471126 239.316651 
L 384.534548 239.081832 
L 384.597969 233.362624 
L 384.724812 249.736125 
L 385.105341 207.353176 
L 385.168762 209.390166 
L 385.232184 206.648121 
L 385.295605 195.366947 
L 385.359027 197.16882 
L 385.422448 205.316484 
L 385.48587 204.376311 
L 385.612713 188.237928 
L 385.739556 195.99353 
L 385.866399 187.532575 
L 386.056663 202.417793 
L 386.183506 193.565074 
L 386.310349 204.376311 
L 386.37377 202.02603 
L 386.500613 199.597275 
L 386.627456 202.495967 
L 386.754299 198.108993 
L 386.881142 208.919931 
L 386.944564 201.555794 
L 387.071407 218.085941 
L 387.19825 189.491392 
L 387.261671 190.117974 
L 387.451936 196.385294 
L 387.578779 194.661892 
L 387.832464 209.390166 
L 387.959307 187.924338 
L 388.022729 188.707865 
L 388.08615 196.228648 
L 388.149572 194.035011 
L 388.212993 191.841674 
L 388.339836 203.357667 
L 388.403258 203.279493 
L 388.466679 205.551303 
L 388.530101 205.238012 
L 388.593522 204.846248 
L 388.720365 214.717313 
L 388.783787 211.505331 
L 388.847208 208.136703 
L 388.974051 218.556176 
L 389.100894 209.703458 
L 389.291158 221.689687 
L 389.35458 222.238096 
L 389.481423 225.215258 
L 389.608266 221.689687 
L 389.79853 226.076959 
L 389.861952 225.685195 
L 389.925373 224.823495 
L 390.052216 221.924804 
L 390.179059 231.952514 
L 390.242481 228.192123 
L 390.305902 225.763667 
L 390.369324 228.035478 
L 390.432745 243.077043 
L 390.496167 241.118524 
L 390.623009 244.330507 
L 390.749852 238.846714 
L 390.876695 251.459824 
L 391.06696 229.132296 
L 391.130381 231.639223 
L 391.257224 238.846714 
L 391.320646 235.478086 
L 391.384067 236.41796 
L 391.51091 235.55626 
L 391.574332 239.238478 
L 391.637753 238.611597 
L 391.701175 232.266104 
L 391.764596 233.28445 
L 391.954861 244.957387 
L 392.145125 230.307287 
L 392.271968 242.607106 
L 392.335389 241.353642 
L 392.398811 240.335296 
L 392.462232 240.491941 
L 392.525654 241.04035 
L 392.589075 244.252333 
L 392.715918 239.238478 
L 392.842761 251.146532 
L 392.906183 247.934252 
L 393.033026 237.279959 
L 393.096447 238.533423 
L 393.22329 249.03107 
L 393.350133 238.768242 
L 393.413554 242.685578 
L 393.540397 233.676214 
L 393.730662 249.03107 
L 393.857505 241.353642 
L 393.920926 246.994378 
L 393.984348 246.445969 
L 394.047769 238.768242 
L 394.111191 239.238478 
L 394.364877 251.381352 
L 394.428298 242.607106 
L 394.49172 243.077043 
L 394.555141 249.266188 
L 394.618563 249.03107 
L 394.872248 239.630241 
L 395.125934 247.699433 
L 395.316199 234.616386 
L 395.443042 244.408979 
L 395.633306 234.146151 
L 395.760149 232.579396 
L 395.886992 239.86506 
L 395.950414 236.104669 
L 396.077257 223.021623 
L 396.140678 231.795869 
L 396.2041 230.542405 
L 396.267521 222.473214 
L 396.394364 239.551769 
L 396.457785 234.302796 
L 396.521207 228.819004 
L 396.584628 231.01264 
L 396.64805 230.229113 
L 396.711471 226.546896 
L 396.774893 230.934168 
L 396.838314 229.83735 
L 396.901736 225.293432 
L 396.965157 228.427241 
L 397.028579 234.459442 
L 397.092 229.993996 
L 397.282265 226.468722 
L 397.345686 225.841841 
L 397.472529 229.680704 
L 397.662794 222.003276 
L 397.789636 235.164497 
L 397.853058 231.482577 
L 397.916479 226.782014 
L 398.043322 230.934168 
L 398.106744 230.307287 
L 398.233587 231.01264 
L 398.36043 224.588377 
L 398.487273 236.261315 
L 398.487273 236.261315 
" clip-path="url(#pf953b24284)" style="fill: none; stroke: #1f77b4; stroke-width: 1.5; stroke-linecap: square"/>
   </g>
   <g id="patch_3">
    <path d="M 57.6 307.584 
L 57.6 41.472 
" style="fill: none; stroke: #000000; stroke-width: 0.8; stroke-linejoin: miter; stroke-linecap: square"/>
   </g>
   <g id="patch_4">
    <path d="M 414.72 307.584 
L 414.72 41.472 
" style="fill: none; stroke: #000000; stroke-width: 0.8; stroke-linejoin: miter; stroke-linecap: square"/>
   </g>
   <g id="patch_5">
    <path d="M 57.6 307.584 
L 414.72 307.584 
" style="fill: none; stroke: #000000; stroke-width: 0.8; stroke-linejoin: miter; stroke-linecap: square"/>
   </g>
   <g id="patch_6">
    <path d="M 57.6 41.472 
L 414.72 41.472 
" style="fill: none; stroke: #000000; stroke-width: 0.8; stroke-linejoin: miter; stroke-linecap: square"/>
   </g>
   <g id="legend_1">
    <g id="patch_7">
     <path d="M 354.074688 64.150125 
L 407.72 64.150125 
Q 409.72 64.150125 409.72 62.150125 
L 409.72 48.472 
Q 409.72 46.472 407.72 46.472 
L 354.074688 46.472 
Q 352.074688 46.472 352.074688 48.472 
L 352.074688 62.150125 
Q 352.074688 64.150125 354.074688 64.150125 
z
" style="fill: #ffffff; opacity: 0.8; stroke: #cccccc; stroke-linejoin: miter"/>
    </g>
    <g id="line2d_17">
     <path d="M 356.074688 54.570438 
L 366.074688 54.570438 
L 376.074688 54.570438 
" style="fill: none; stroke: #1f77b4; stroke-width: 1.5; stroke-linecap: square"/>
    </g>
    <g id="text_16">
     <!-- set1 -->
     <g transform="translate(384.074688 58.070438)scale(0.1 -0.1)">
      <defs>
       <path id="DejaVuSans-73" d="M 2834 3397 
L 2834 2853 
Q 2591 2978 2328 3040 
Q 2066 3103 1784 3103 
Q 1356 3103 1142 2972 
Q 928 2841 928 2578 
Q 928 2378 1081 2264 
Q 1234 2150 1697 2047 
L 1894 2003 
Q 2506 1872 2764 1633 
Q 3022 1394 3022 966 
Q 3022 478 2636 193 
Q 2250 -91 1575 -91 
Q 1294 -91 989 -36 
Q 684 19 347 128 
L 347 722 
Q 666 556 975 473 
Q 1284 391 1588 391 
Q 1994 391 2212 530 
Q 2431 669 2431 922 
Q 2431 1156 2273 1281 
Q 2116 1406 1581 1522 
L 1381 1569 
Q 847 1681 609 1914 
Q 372 2147 372 2553 
Q 372 3047 722 3315 
Q 1072 3584 1716 3584 
Q 2034 3584 2315 3537 
Q 2597 3491 2834 3397 
z
" transform="scale(0.015625)"/>
       <path id="DejaVuSans-65" d="M 3597 1894 
L 3597 1613 
L 953 1613 
Q 991 1019 1311 708 
Q 1631 397 2203 397 
Q 2534 397 2845 478 
Q 3156 559 3463 722 
L 3463 178 
Q 3153 47 2828 -22 
Q 2503 -91 2169 -91 
Q 1331 -91 842 396 
Q 353 884 353 1716 
Q 353 2575 817 3079 
Q 1281 3584 2069 3584 
Q 2775 3584 3186 3129 
Q 3597 2675 3597 1894 
z
M 3022 2063 
Q 3016 2534 2758 2815 
Q 2500 3097 2075 3097 
Q 1594 3097 1305 2825 
Q 1016 2553 972 2059 
L 3022 2063 
z
" transform="scale(0.015625)"/>
       <path id="DejaVuSans-74" d="M 1172 4494 
L 1172 3500 
L 2356 3500 
L 2356 3053 
L 1172 3053 
L 1172 1153 
Q 1172 725 1289 603 
Q 1406 481 1766 481 
L 2356 481 
L 2356 0 
L 1766 0 
Q 1100 0 847 248 
Q 594 497 594 1153 
L 594 3053 
L 172 3053 
L 172 3500 
L 594 3500 
L 594 4494 
L 1172 4494 
z
" transform="scale(0.015625)"/>
      </defs>
      <use xlink:href="#DejaVuSans-73"/>
      <use xlink:href="#DejaVuSans-65" x="52.099609"/>
      <use xlink:href="#DejaVuSans-74" x="113.623047"/>
      <use xlink:href="#DejaVuSans-31" x="152.832031"/>
     </g>
    </g>
   </g>
  </g>
 </g>
 <defs>
  <clipPath id="pf953b24284">
   <rect x="57.6" y="41.472" width="357.12" height="266.112"/>
  </clipPath>
 </defs>
</svg>
