<?xml version="1.0" encoding="utf-8" standalone="no"?>
<!DOCTYPE svg PUBLIC "-//W3C//DTD SVG 1.1//EN"
  "http://www.w3.org/Graphics/SVG/1.1/DTD/svg11.dtd">
<svg xmlns:xlink="http://www.w3.org/1999/xlink" width="460.8pt" height="345.6pt" viewBox="0 0 460.8 345.6" xmlns="http://www.w3.org/2000/svg" version="1.1">
 <metadata>
  <rdf:RDF xmlns:dc="http://purl.org/dc/elements/1.1/" xmlns:cc="http://creativecommons.org/ns#" xmlns:rdf="http://www.w3.org/1999/02/22-rdf-syntax-ns#">
   <cc:Work>
    <dc:type rdf:resource="http://purl.org/dc/dcmitype/StillImage"/>
    <dc:date>2022-08-11T15:18:52.605844</dc:date>
    <dc:format>image/svg+xml</dc:format>
    <dc:creator>
     <cc:Agent>
      <dc:title>Matplotlib v3.5.2, https://matplotlib.org/</dc:title>
     </cc:Agent>
    </dc:creator>
   </cc:Work>
  </rdf:RDF>
 </metadata>
 <defs>
  <style type="text/css">*{stroke-linejoin: round; stroke-linecap: butt}</style>
 </defs>
 <g id="figure_1">
  <g id="patch_1">
   <path d="M 0 345.6 
L 460.8 345.6 
L 460.8 0 
L 0 0 
z
" style="fill: #ffffff"/>
  </g>
  <g id="axes_1">
   <g id="patch_2">
    <path d="M 57.6 307.584 
L 414.72 307.584 
L 414.72 41.472 
L 57.6 41.472 
z
" style="fill: #ffffff"/>
   </g>
   <g id="matplotlib.axis_1">
    <g id="xtick_1">
     <g id="line2d_1">
      <defs>
       <path id="m4b9bc7af6d" d="M 0 0 
L 0 3.5 
" style="stroke: #000000; stroke-width: 0.8"/>
      </defs>
      <g>
       <use xlink:href="#m4b9bc7af6d" x="73.832727" y="307.584" style="stroke: #000000; stroke-width: 0.8"/>
      </g>
     </g>
     <g id="text_1">
      <!-- 0 -->
      <g transform="translate(70.651477 322.182437)scale(0.1 -0.1)">
       <defs>
        <path id="DejaVuSans-30" d="M 2034 4250 
Q 1547 4250 1301 3770 
Q 1056 3291 1056 2328 
Q 1056 1369 1301 889 
Q 1547 409 2034 409 
Q 2525 409 2770 889 
Q 3016 1369 3016 2328 
Q 3016 3291 2770 3770 
Q 2525 4250 2034 4250 
z
M 2034 4750 
Q 2819 4750 3233 4129 
Q 3647 3509 3647 2328 
Q 3647 1150 3233 529 
Q 2819 -91 2034 -91 
Q 1250 -91 836 529 
Q 422 1150 422 2328 
Q 422 3509 836 4129 
Q 1250 4750 2034 4750 
z
" transform="scale(0.015625)"/>
       </defs>
       <use xlink:href="#DejaVuSans-30"/>
      </g>
     </g>
    </g>
    <g id="xtick_2">
     <g id="line2d_2">
      <g>
       <use xlink:href="#m4b9bc7af6d" x="137.254205" y="307.584" style="stroke: #000000; stroke-width: 0.8"/>
      </g>
     </g>
     <g id="text_2">
      <!-- 1000 -->
      <g transform="translate(124.529205 322.182437)scale(0.1 -0.1)">
       <defs>
        <path id="DejaVuSans-31" d="M 794 531 
L 1825 531 
L 1825 4091 
L 703 3866 
L 703 4441 
L 1819 4666 
L 2450 4666 
L 2450 531 
L 3481 531 
L 3481 0 
L 794 0 
L 794 531 
z
" transform="scale(0.015625)"/>
       </defs>
       <use xlink:href="#DejaVuSans-31"/>
       <use xlink:href="#DejaVuSans-30" x="63.623047"/>
       <use xlink:href="#DejaVuSans-30" x="127.246094"/>
       <use xlink:href="#DejaVuSans-30" x="190.869141"/>
      </g>
     </g>
    </g>
    <g id="xtick_3">
     <g id="line2d_3">
      <g>
       <use xlink:href="#m4b9bc7af6d" x="200.675683" y="307.584" style="stroke: #000000; stroke-width: 0.8"/>
      </g>
     </g>
     <g id="text_3">
      <!-- 2000 -->
      <g transform="translate(187.950683 322.182437)scale(0.1 -0.1)">
       <defs>
        <path id="DejaVuSans-32" d="M 1228 531 
L 3431 531 
L 3431 0 
L 469 0 
L 469 531 
Q 828 903 1448 1529 
Q 2069 2156 2228 2338 
Q 2531 2678 2651 2914 
Q 2772 3150 2772 3378 
Q 2772 3750 2511 3984 
Q 2250 4219 1831 4219 
Q 1534 4219 1204 4116 
Q 875 4013 500 3803 
L 500 4441 
Q 881 4594 1212 4672 
Q 1544 4750 1819 4750 
Q 2544 4750 2975 4387 
Q 3406 4025 3406 3419 
Q 3406 3131 3298 2873 
Q 3191 2616 2906 2266 
Q 2828 2175 2409 1742 
Q 1991 1309 1228 531 
z
" transform="scale(0.015625)"/>
       </defs>
       <use xlink:href="#DejaVuSans-32"/>
       <use xlink:href="#DejaVuSans-30" x="63.623047"/>
       <use xlink:href="#DejaVuSans-30" x="127.246094"/>
       <use xlink:href="#DejaVuSans-30" x="190.869141"/>
      </g>
     </g>
    </g>
    <g id="xtick_4">
     <g id="line2d_4">
      <g>
       <use xlink:href="#m4b9bc7af6d" x="264.097161" y="307.584" style="stroke: #000000; stroke-width: 0.8"/>
      </g>
     </g>
     <g id="text_4">
      <!-- 3000 -->
      <g transform="translate(251.372161 322.182437)scale(0.1 -0.1)">
       <defs>
        <path id="DejaVuSans-33" d="M 2597 2516 
Q 3050 2419 3304 2112 
Q 3559 1806 3559 1356 
Q 3559 666 3084 287 
Q 2609 -91 1734 -91 
Q 1441 -91 1130 -33 
Q 819 25 488 141 
L 488 750 
Q 750 597 1062 519 
Q 1375 441 1716 441 
Q 2309 441 2620 675 
Q 2931 909 2931 1356 
Q 2931 1769 2642 2001 
Q 2353 2234 1838 2234 
L 1294 2234 
L 1294 2753 
L 1863 2753 
Q 2328 2753 2575 2939 
Q 2822 3125 2822 3475 
Q 2822 3834 2567 4026 
Q 2313 4219 1838 4219 
Q 1578 4219 1281 4162 
Q 984 4106 628 3988 
L 628 4550 
Q 988 4650 1302 4700 
Q 1616 4750 1894 4750 
Q 2613 4750 3031 4423 
Q 3450 4097 3450 3541 
Q 3450 3153 3228 2886 
Q 3006 2619 2597 2516 
z
" transform="scale(0.015625)"/>
       </defs>
       <use xlink:href="#DejaVuSans-33"/>
       <use xlink:href="#DejaVuSans-30" x="63.623047"/>
       <use xlink:href="#DejaVuSans-30" x="127.246094"/>
       <use xlink:href="#DejaVuSans-30" x="190.869141"/>
      </g>
     </g>
    </g>
    <g id="xtick_5">
     <g id="line2d_5">
      <g>
       <use xlink:href="#m4b9bc7af6d" x="327.518639" y="307.584" style="stroke: #000000; stroke-width: 0.8"/>
      </g>
     </g>
     <g id="text_5">
      <!-- 4000 -->
      <g transform="translate(314.793639 322.182437)scale(0.1 -0.1)">
       <defs>
        <path id="DejaVuSans-34" d="M 2419 4116 
L 825 1625 
L 2419 1625 
L 2419 4116 
z
M 2253 4666 
L 3047 4666 
L 3047 1625 
L 3713 1625 
L 3713 1100 
L 3047 1100 
L 3047 0 
L 2419 0 
L 2419 1100 
L 313 1100 
L 313 1709 
L 2253 4666 
z
" transform="scale(0.015625)"/>
       </defs>
       <use xlink:href="#DejaVuSans-34"/>
       <use xlink:href="#DejaVuSans-30" x="63.623047"/>
       <use xlink:href="#DejaVuSans-30" x="127.246094"/>
       <use xlink:href="#DejaVuSans-30" x="190.869141"/>
      </g>
     </g>
    </g>
    <g id="xtick_6">
     <g id="line2d_6">
      <g>
       <use xlink:href="#m4b9bc7af6d" x="390.940117" y="307.584" style="stroke: #000000; stroke-width: 0.8"/>
      </g>
     </g>
     <g id="text_6">
      <!-- 5000 -->
      <g transform="translate(378.215117 322.182437)scale(0.1 -0.1)">
       <defs>
        <path id="DejaVuSans-35" d="M 691 4666 
L 3169 4666 
L 3169 4134 
L 1269 4134 
L 1269 2991 
Q 1406 3038 1543 3061 
Q 1681 3084 1819 3084 
Q 2600 3084 3056 2656 
Q 3513 2228 3513 1497 
Q 3513 744 3044 326 
Q 2575 -91 1722 -91 
Q 1428 -91 1123 -41 
Q 819 9 494 109 
L 494 744 
Q 775 591 1075 516 
Q 1375 441 1709 441 
Q 2250 441 2565 725 
Q 2881 1009 2881 1497 
Q 2881 1984 2565 2268 
Q 2250 2553 1709 2553 
Q 1456 2553 1204 2497 
Q 953 2441 691 2322 
L 691 4666 
z
" transform="scale(0.015625)"/>
       </defs>
       <use xlink:href="#DejaVuSans-35"/>
       <use xlink:href="#DejaVuSans-30" x="63.623047"/>
       <use xlink:href="#DejaVuSans-30" x="127.246094"/>
       <use xlink:href="#DejaVuSans-30" x="190.869141"/>
      </g>
     </g>
    </g>
   </g>
   <g id="matplotlib.axis_2">
    <g id="ytick_1">
     <g id="line2d_7">
      <defs>
       <path id="m85c685e4df" d="M 0 0 
L -3.5 0 
" style="stroke: #000000; stroke-width: 0.8"/>
      </defs>
      <g>
       <use xlink:href="#m85c685e4df" x="57.6" y="290.690216" style="stroke: #000000; stroke-width: 0.8"/>
      </g>
     </g>
     <g id="text_7">
      <!-- 4080 -->
      <g transform="translate(25.15 294.489434)scale(0.1 -0.1)">
       <defs>
        <path id="DejaVuSans-38" d="M 2034 2216 
Q 1584 2216 1326 1975 
Q 1069 1734 1069 1313 
Q 1069 891 1326 650 
Q 1584 409 2034 409 
Q 2484 409 2743 651 
Q 3003 894 3003 1313 
Q 3003 1734 2745 1975 
Q 2488 2216 2034 2216 
z
M 1403 2484 
Q 997 2584 770 2862 
Q 544 3141 544 3541 
Q 544 4100 942 4425 
Q 1341 4750 2034 4750 
Q 2731 4750 3128 4425 
Q 3525 4100 3525 3541 
Q 3525 3141 3298 2862 
Q 3072 2584 2669 2484 
Q 3125 2378 3379 2068 
Q 3634 1759 3634 1313 
Q 3634 634 3220 271 
Q 2806 -91 2034 -91 
Q 1263 -91 848 271 
Q 434 634 434 1313 
Q 434 1759 690 2068 
Q 947 2378 1403 2484 
z
M 1172 3481 
Q 1172 3119 1398 2916 
Q 1625 2713 2034 2713 
Q 2441 2713 2670 2916 
Q 2900 3119 2900 3481 
Q 2900 3844 2670 4047 
Q 2441 4250 2034 4250 
Q 1625 4250 1398 4047 
Q 1172 3844 1172 3481 
z
" transform="scale(0.015625)"/>
       </defs>
       <use xlink:href="#DejaVuSans-34"/>
       <use xlink:href="#DejaVuSans-30" x="63.623047"/>
       <use xlink:href="#DejaVuSans-38" x="127.246094"/>
       <use xlink:href="#DejaVuSans-30" x="190.869141"/>
      </g>
     </g>
    </g>
    <g id="ytick_2">
     <g id="line2d_8">
      <g>
       <use xlink:href="#m85c685e4df" x="57.6" y="251.296159" style="stroke: #000000; stroke-width: 0.8"/>
      </g>
     </g>
     <g id="text_8">
      <!-- 4100 -->
      <g transform="translate(25.15 255.095377)scale(0.1 -0.1)">
       <use xlink:href="#DejaVuSans-34"/>
       <use xlink:href="#DejaVuSans-31" x="63.623047"/>
       <use xlink:href="#DejaVuSans-30" x="127.246094"/>
       <use xlink:href="#DejaVuSans-30" x="190.869141"/>
      </g>
     </g>
    </g>
    <g id="ytick_3">
     <g id="line2d_9">
      <g>
       <use xlink:href="#m85c685e4df" x="57.6" y="211.902102" style="stroke: #000000; stroke-width: 0.8"/>
      </g>
     </g>
     <g id="text_9">
      <!-- 4120 -->
      <g transform="translate(25.15 215.701321)scale(0.1 -0.1)">
       <use xlink:href="#DejaVuSans-34"/>
       <use xlink:href="#DejaVuSans-31" x="63.623047"/>
       <use xlink:href="#DejaVuSans-32" x="127.246094"/>
       <use xlink:href="#DejaVuSans-30" x="190.869141"/>
      </g>
     </g>
    </g>
    <g id="ytick_4">
     <g id="line2d_10">
      <g>
       <use xlink:href="#m85c685e4df" x="57.6" y="172.508045" style="stroke: #000000; stroke-width: 0.8"/>
      </g>
     </g>
     <g id="text_10">
      <!-- 4140 -->
      <g transform="translate(25.15 176.307264)scale(0.1 -0.1)">
       <use xlink:href="#DejaVuSans-34"/>
       <use xlink:href="#DejaVuSans-31" x="63.623047"/>
       <use xlink:href="#DejaVuSans-34" x="127.246094"/>
       <use xlink:href="#DejaVuSans-30" x="190.869141"/>
      </g>
     </g>
    </g>
    <g id="ytick_5">
     <g id="line2d_11">
      <g>
       <use xlink:href="#m85c685e4df" x="57.6" y="133.113988" style="stroke: #000000; stroke-width: 0.8"/>
      </g>
     </g>
     <g id="text_11">
      <!-- 4160 -->
      <g transform="translate(25.15 136.913207)scale(0.1 -0.1)">
       <defs>
        <path id="DejaVuSans-36" d="M 2113 2584 
Q 1688 2584 1439 2293 
Q 1191 2003 1191 1497 
Q 1191 994 1439 701 
Q 1688 409 2113 409 
Q 2538 409 2786 701 
Q 3034 994 3034 1497 
Q 3034 2003 2786 2293 
Q 2538 2584 2113 2584 
z
M 3366 4563 
L 3366 3988 
Q 3128 4100 2886 4159 
Q 2644 4219 2406 4219 
Q 1781 4219 1451 3797 
Q 1122 3375 1075 2522 
Q 1259 2794 1537 2939 
Q 1816 3084 2150 3084 
Q 2853 3084 3261 2657 
Q 3669 2231 3669 1497 
Q 3669 778 3244 343 
Q 2819 -91 2113 -91 
Q 1303 -91 875 529 
Q 447 1150 447 2328 
Q 447 3434 972 4092 
Q 1497 4750 2381 4750 
Q 2619 4750 2861 4703 
Q 3103 4656 3366 4563 
z
" transform="scale(0.015625)"/>
       </defs>
       <use xlink:href="#DejaVuSans-34"/>
       <use xlink:href="#DejaVuSans-31" x="63.623047"/>
       <use xlink:href="#DejaVuSans-36" x="127.246094"/>
       <use xlink:href="#DejaVuSans-30" x="190.869141"/>
      </g>
     </g>
    </g>
    <g id="ytick_6">
     <g id="line2d_12">
      <g>
       <use xlink:href="#m85c685e4df" x="57.6" y="93.719931" style="stroke: #000000; stroke-width: 0.8"/>
      </g>
     </g>
     <g id="text_12">
      <!-- 4180 -->
      <g transform="translate(25.15 97.51915)scale(0.1 -0.1)">
       <use xlink:href="#DejaVuSans-34"/>
       <use xlink:href="#DejaVuSans-31" x="63.623047"/>
       <use xlink:href="#DejaVuSans-38" x="127.246094"/>
       <use xlink:href="#DejaVuSans-30" x="190.869141"/>
      </g>
     </g>
    </g>
    <g id="ytick_7">
     <g id="line2d_13">
      <g>
       <use xlink:href="#m85c685e4df" x="57.6" y="54.325875" style="stroke: #000000; stroke-width: 0.8"/>
      </g>
     </g>
     <g id="text_13">
      <!-- 4200 -->
      <g transform="translate(25.15 58.125093)scale(0.1 -0.1)">
       <use xlink:href="#DejaVuSans-34"/>
       <use xlink:href="#DejaVuSans-32" x="63.623047"/>
       <use xlink:href="#DejaVuSans-30" x="127.246094"/>
       <use xlink:href="#DejaVuSans-30" x="190.869141"/>
      </g>
     </g>
    </g>
   </g>
   <g id="line2d_14">
    <path d="M 73.832727 187.911736 
L 73.896149 195.487591 
L 73.95957 194.982662 
L 74.086413 162.406586 
L 74.213256 200.285856 
L 74.276678 195.487591 
L 74.340099 198.77107 
L 74.466942 176.548437 
L 74.530364 182.861489 
L 74.593785 190.942271 
L 74.847471 163.16446 
L 74.974314 186.901879 
L 75.037735 178.316167 
L 75.101157 175.790563 
L 75.164578 185.892022 
L 75.291421 166.952867 
L 75.418264 194.73068 
L 75.545107 172.003116 
L 75.67195 182.861489 
L 75.735372 176.295492 
L 75.798793 181.093757 
L 75.862215 185.639077 
L 75.925636 180.841773 
L 76.052479 154.325803 
L 76.306165 175.538579 
L 76.433008 149.780483 
L 76.496429 159.881943 
L 76.559851 175.285633 
L 76.623272 172.76099 
L 76.686694 169.982439 
L 76.750115 183.619361 
L 76.813537 182.356559 
L 76.876958 169.982439 
L 76.94038 176.295492 
L 77.003801 198.266141 
L 77.067223 193.467876 
L 77.257487 173.770847 
L 77.320909 174.275777 
L 77.447752 180.841773 
L 77.638016 165.185137 
L 77.701437 170.993259 
L 77.764859 166.699923 
L 77.891702 174.275777 
L 78.018545 147.507822 
L 78.145388 182.103614 
L 78.208809 174.275777 
L 78.335652 189.427485 
L 78.399074 180.841773 
L 78.462495 184.124291 
L 78.525917 188.922556 
L 78.589338 184.882165 
L 78.716181 191.700144 
L 78.779603 183.366416 
L 78.843024 185.892022 
L 78.906446 187.659754 
L 79.160131 167.204851 
L 79.286974 184.124291 
L 79.350396 182.609505 
L 79.413817 198.518125 
L 79.477239 194.982662 
L 79.604082 172.003116 
L 79.730925 195.487591 
L 79.794346 208.871568 
L 79.857768 201.548658 
L 79.921189 182.861489 
L 79.984611 183.114434 
L 80.048032 189.427485 
L 80.111454 185.639077 
L 80.174875 187.154824 
L 80.301718 211.649157 
L 80.428561 192.205074 
L 80.491982 200.538802 
L 80.618825 179.326026 
L 80.745668 206.851853 
L 80.872511 185.892022 
L 81.062776 206.598907 
L 81.126197 202.558517 
L 81.25304 167.962725 
L 81.316462 180.588828 
L 81.443305 220.487814 
L 81.633569 177.30631 
L 81.823833 203.568374 
L 81.887255 199.023054 
L 81.950676 164.427262 
L 82.014098 170.993259 
L 82.077519 182.609505 
L 82.140941 177.30631 
L 82.204362 167.457796 
L 82.267784 170.487368 
L 82.331205 181.85163 
L 82.394627 180.335883 
L 82.52147 177.053365 
L 82.648313 145.740091 
L 82.711734 157.861266 
L 82.775156 171.75017 
L 82.838577 164.932192 
L 82.901999 161.396729 
L 83.092263 180.588828 
L 83.155685 179.074042 
L 83.219106 170.235384 
L 83.345949 193.972805 
L 83.472792 165.437119 
L 83.536213 181.85163 
L 83.599635 171.245243 
L 83.853321 139.42704 
L 83.980164 176.801381 
L 84.107007 144.477289 
L 84.170428 145.993036 
L 84.23385 146.24502 
L 84.424114 173.26592 
L 84.487536 165.185137 
L 84.550957 158.366193 
L 84.6778 188.922556 
L 84.804643 162.659531 
L 84.868064 162.912476 
L 84.931486 161.144745 
L 85.058329 193.71986 
L 85.12175 189.427485 
L 85.248593 166.699923 
L 85.375436 180.335883 
L 85.629122 173.517902 
L 85.692544 184.377236 
L 85.755965 181.093757 
L 85.882808 160.38687 
L 86.009651 175.790563 
L 86.073073 165.437119 
L 86.199915 187.406808 
L 86.263337 178.316167 
L 86.326758 178.316167 
L 86.453601 202.558517 
L 86.517023 201.043731 
L 86.580444 198.77107 
L 86.707287 183.366416 
L 86.897552 208.114655 
L 87.024395 183.366416 
L 87.087816 173.517902 
L 87.214659 184.377236 
L 87.341502 182.861489 
L 87.404924 186.144006 
L 87.531767 168.720598 
L 87.658609 202.811462 
L 87.722031 199.023054 
L 87.785452 198.266141 
L 87.848874 198.518125 
L 87.975717 159.881943 
L 88.10256 184.377236 
L 88.165981 177.30631 
L 88.292824 187.911736 
L 88.419667 175.033651 
L 88.54651 188.669611 
L 88.609932 184.377236 
L 88.863618 137.154381 
L 88.927039 137.659308 
L 89.053882 153.063962 
L 89.117303 140.689842 
L 89.307568 189.679467 
L 89.434411 167.70978 
L 89.624675 198.518125 
L 89.688097 188.922556 
L 89.751518 186.901879 
L 89.81494 197.255323 
L 89.878361 193.467876 
L 90.068626 168.214707 
L 90.132047 155.083678 
L 90.25889 188.669611 
L 90.322312 176.548437 
L 90.385733 167.204851 
L 90.449154 179.830953 
L 90.639419 133.871863 
L 90.70284 148.770624 
L 90.766262 147.507822 
L 90.893105 176.295492 
L 91.019948 143.215448 
L 91.146791 200.032911 
L 91.273634 162.406586 
L 91.337055 173.012974 
L 91.400477 177.558294 
L 91.52732 164.680208 
L 91.717584 187.659754 
L 91.907848 150.285411 
L 92.034691 181.093757 
L 92.098113 173.26592 
L 92.161534 181.093757 
L 92.224956 175.285633 
L 92.478642 150.79034 
L 92.542063 149.275554 
L 92.732328 177.053365 
L 92.795749 172.003116 
L 93.112857 160.638854 
L 93.2397 144.477289 
L 93.366542 174.022831 
L 93.429964 168.720598 
L 93.493385 174.022831 
L 93.620228 152.811017 
L 93.68365 162.659531 
L 93.810493 191.700144 
L 93.873914 188.417626 
L 94.064179 194.73068 
L 94.191022 188.669611 
L 94.317865 194.982662 
L 94.381286 177.30631 
L 94.444708 182.356559 
L 94.508129 199.275999 
L 94.571551 198.518125 
L 94.634972 185.892022 
L 94.698394 189.932413 
L 94.888658 208.871568 
L 94.952079 205.841035 
L 95.078922 196.750393 
L 95.205765 206.346923 
L 95.332608 164.932192 
L 95.39603 177.558294 
L 95.459451 204.326249 
L 95.522873 200.790786 
L 95.586294 185.639077 
L 95.713137 221.750616 
L 95.776559 220.23583 
L 95.903402 206.346923 
L 95.966823 213.164904 
L 96.093666 196.498409 
L 96.157087 203.821319 
L 96.220509 199.023054 
L 96.28393 184.882165 
L 96.347352 193.972805 
L 96.474195 209.124514 
L 96.537616 209.376496 
L 96.601038 211.144227 
L 96.791302 190.942271 
L 96.918145 203.31639 
L 96.981567 198.013195 
L 97.10841 216.952351 
L 97.362096 184.377236 
L 97.488939 206.598907 
L 97.55236 199.023054 
L 97.615781 196.245466 
L 97.742624 219.729939 
L 97.806046 213.416888 
L 97.932889 179.578971 
L 97.99631 180.083898 
L 98.059732 188.417626 
L 98.123153 186.396952 
L 98.186575 180.335883 
L 98.313418 206.346923 
L 98.440261 194.982662 
L 98.503682 195.992521 
L 98.567104 199.023054 
L 98.757368 172.2551 
L 98.82079 176.295492 
L 98.947633 204.326249 
L 99.074475 173.517902 
L 99.137897 185.387093 
L 99.201318 201.548658 
L 99.26474 191.700144 
L 99.455004 182.103614 
L 99.581847 197.508268 
L 99.70869 177.30631 
L 99.835533 202.306533 
L 99.962376 176.043508 
L 100.089219 194.982662 
L 100.216062 174.528722 
L 100.342905 194.22575 
L 100.469748 175.285633 
L 100.533169 197.255323 
L 100.596591 194.73068 
L 100.786855 174.780706 
L 100.850277 169.982439 
L 101.103963 206.346923 
L 101.230806 177.558294 
L 101.294227 183.366416 
L 101.357649 182.103614 
L 101.42107 175.033651 
L 101.611335 197.508268 
L 101.738178 172.508045 
L 101.801599 177.81124 
L 101.991863 199.780927 
L 102.118706 188.922556 
L 102.182128 189.679467 
L 102.245549 188.922556 
L 102.372392 224.78115 
L 102.435814 214.932636 
L 102.562657 192.710003 
L 102.6895 213.416888 
L 102.752921 209.881425 
L 102.879764 196.498409 
L 102.943186 206.598907 
L 103.070029 181.346703 
L 103.13345 187.406808 
L 103.196872 190.942271 
L 103.323715 176.295492 
L 103.387136 192.205074 
L 103.450557 186.649895 
L 103.513979 176.295492 
L 103.5774 178.569112 
L 103.767665 204.831176 
L 103.894508 191.447199 
L 104.021351 203.821319 
L 104.148194 168.720598 
L 104.211615 180.083898 
L 104.338458 202.811462 
L 104.528723 169.225527 
L 104.592144 178.821096 
L 104.655566 179.074042 
L 104.782408 171.245243 
L 105.036094 186.144006 
L 105.099516 186.144006 
L 105.226359 179.074042 
L 105.28978 170.235384 
L 105.353202 171.498188 
L 105.733731 203.063445 
L 105.797152 201.043731 
L 105.923995 180.588828 
L 105.987417 181.85163 
L 106.177681 205.336105 
L 106.367945 150.285411 
L 106.431367 160.38687 
L 106.621631 187.406808 
L 106.685053 205.841035 
L 106.748474 198.266141 
L 106.811896 199.275999 
L 106.875317 208.871568 
L 106.938739 204.579194 
L 107.065582 192.710003 
L 107.129003 192.458019 
L 107.192425 191.447199 
L 107.319268 184.62922 
L 107.446111 216.952351 
L 107.572954 180.841773 
L 107.636375 189.679467 
L 107.763218 173.517902 
L 107.826639 177.81124 
L 108.016904 203.31639 
L 108.143747 177.053365 
L 108.207168 177.81124 
L 108.334011 197.255323 
L 108.460854 173.012974 
L 108.587697 185.134148 
L 108.651119 179.326026 
L 108.71454 179.830953 
L 108.841383 200.285856 
L 108.968226 174.528722 
L 109.031648 182.103614 
L 109.15849 217.710224 
L 109.221912 215.437565 
L 109.348755 196.245466 
L 109.475598 208.114655 
L 109.665862 194.73068 
L 109.792705 204.326249 
L 109.856127 198.013195 
L 109.98297 217.205296 
L 110.109813 193.467876 
L 110.300077 220.23583 
L 110.363499 220.992741 
L 110.490342 224.023277 
L 110.553763 222.760473 
L 110.617184 218.468098 
L 110.744027 229.831399 
L 111.061135 168.214707 
L 111.124556 180.841773 
L 111.251399 162.912476 
L 111.378242 178.569112 
L 111.441664 175.285633 
L 111.568507 186.649895 
L 111.69535 175.033651 
L 111.822193 201.295713 
L 111.949036 180.588828 
L 112.1393 199.023054 
L 112.202721 199.527982 
L 112.329564 168.720598 
L 112.456407 187.154824 
L 112.58325 168.214707 
L 112.710093 200.032911 
L 112.773515 192.205074 
L 113.027201 176.295492 
L 113.090622 176.548437 
L 113.154044 175.033651 
L 113.217465 170.235384 
L 113.344308 183.114434 
L 113.407729 180.083898 
L 113.471151 167.962725 
L 113.534572 170.740314 
L 113.661415 207.608764 
L 113.724837 198.266141 
L 113.978523 164.174317 
L 114.105366 191.195217 
L 114.168787 181.598685 
L 114.232209 172.003116 
L 114.29563 179.074042 
L 114.359052 199.527982 
L 114.422473 192.205074 
L 114.485895 199.275999 
L 114.612738 177.558294 
L 114.676159 185.134148 
L 114.739581 198.518125 
L 114.803002 196.245466 
L 114.866423 189.427485 
L 114.929845 196.750393 
L 114.993266 192.205074 
L 115.056688 186.901879 
L 115.246952 201.043731 
L 115.373795 180.335883 
L 115.437217 182.356559 
L 115.56406 198.013195 
L 115.690903 185.639077 
L 115.754324 186.396952 
L 115.817746 183.114434 
L 115.881167 183.619361 
L 116.00801 196.245466 
L 116.134853 178.821096 
L 116.45196 203.31639 
L 116.515382 198.266141 
L 116.642225 172.508045 
L 116.705646 176.043508 
L 116.769068 178.316167 
L 116.832489 173.770847 
L 116.895911 176.295492 
L 116.959332 178.821096 
L 117.022754 169.982439 
L 117.086175 171.498188 
L 117.213018 182.609505 
L 117.27644 182.103614 
L 117.466704 190.437342 
L 117.593547 194.73068 
L 117.656969 188.164681 
L 117.72039 190.942271 
L 117.847233 181.85163 
L 117.910654 185.387093 
L 117.974076 187.659754 
L 118.037497 179.578971 
L 118.100919 180.588828 
L 118.16434 187.659754 
L 118.227762 184.62922 
L 118.418026 175.285633 
L 118.608291 162.659531 
L 118.798555 192.710003 
L 118.861977 189.679467 
L 118.98882 207.103837 
L 119.052241 203.568374 
L 119.179084 190.690287 
L 119.242505 199.527982 
L 119.305927 197.76025 
L 119.43277 184.377236 
L 119.496191 195.487591 
L 119.559613 188.922556 
L 119.623034 179.578971 
L 119.686456 181.85163 
L 119.813299 195.235607 
L 119.940142 186.649895 
L 120.066985 199.780927 
L 120.193828 175.790563 
L 120.257249 185.892022 
L 120.384092 202.306533 
L 120.510935 181.093757 
L 120.574356 182.861489 
L 120.828042 198.013195 
L 120.891464 198.266141 
L 121.018307 192.205074 
L 121.081728 187.406808 
L 121.208571 171.498188 
L 121.335414 196.245466 
L 121.462257 179.074042 
L 121.5891 187.406808 
L 121.842786 173.770847 
L 121.969629 184.62922 
L 122.03305 194.477734 
L 122.096472 189.427485 
L 122.223315 179.074042 
L 122.413579 201.548658 
L 122.477001 198.266141 
L 122.603844 173.26592 
L 122.794108 187.659754 
L 122.85753 180.083898 
L 122.920951 180.335883 
L 122.984373 179.578971 
L 123.047794 181.093757 
L 123.238059 161.396729 
L 123.30148 169.225527 
L 123.364902 172.76099 
L 123.428323 171.245243 
L 123.491744 172.003116 
L 123.935695 206.09398 
L 124.062538 171.498188 
L 124.125959 189.679467 
L 124.189381 187.659754 
L 124.316224 169.225527 
L 124.443067 179.326026 
L 124.506488 192.458019 
L 124.56991 188.922556 
L 124.823596 178.063222 
L 125.01386 200.790786 
L 125.140703 183.114434 
L 125.267546 208.619584 
L 125.521232 179.830953 
L 125.648075 206.09398 
L 125.774918 181.346703 
L 125.838339 181.598685 
L 126.028604 197.508268 
L 126.092025 201.043731 
L 126.155447 199.527982 
L 126.218868 190.942271 
L 126.28229 193.467876 
L 126.345711 195.487591 
L 126.472554 173.26592 
L 126.599397 200.285856 
L 126.72624 172.508045 
L 126.853083 197.255323 
L 126.916504 188.669611 
L 126.979926 194.73068 
L 127.043347 210.13437 
L 127.106769 207.103837 
L 127.297033 196.750393 
L 127.423876 202.811462 
L 127.487298 202.306533 
L 127.550719 207.356782 
L 127.614141 204.074265 
L 127.740984 183.366416 
L 127.804405 191.447199 
L 127.867826 189.679467 
L 127.931248 186.649895 
L 127.994669 198.77107 
L 128.058091 196.750393 
L 128.121512 188.922556 
L 128.311777 213.164904 
L 128.502041 167.962725 
L 128.565463 176.043508 
L 128.692306 193.467876 
L 128.755727 186.649895 
L 128.819149 190.437342 
L 128.88257 201.043731 
L 128.945992 196.750393 
L 129.009413 186.144006 
L 129.136256 204.074265 
L 129.389942 147.002895 
L 129.453363 142.204628 
L 129.516785 143.720377 
L 129.580206 146.74995 
L 129.707049 128.820651 
L 129.897314 172.508045 
L 129.960735 157.104352 
L 130.024157 160.133925 
L 130.151 177.30631 
L 130.214421 177.30631 
L 130.277843 179.830953 
L 130.404686 164.680208 
L 130.468107 175.033651 
L 130.531529 169.225527 
L 130.59495 157.861266 
L 130.658371 160.38687 
L 130.721793 160.891799 
L 130.848636 189.427485 
L 130.912057 180.335883 
L 130.975479 177.30631 
L 131.0389 191.700144 
L 131.102322 185.134148 
L 131.165743 165.185137 
L 131.229165 170.235384 
L 131.292586 188.922556 
L 131.356008 186.144006 
L 131.419429 183.619361 
L 131.482851 188.922556 
L 131.546272 187.406808 
L 131.609694 178.821096 
L 131.736537 199.780927 
L 131.799958 193.71986 
L 131.86338 191.700144 
L 131.926801 196.750393 
L 132.117065 170.235384 
L 132.243908 181.85163 
L 132.497594 167.457796 
L 132.624437 177.30631 
L 132.687859 170.235384 
L 132.75128 173.012974 
L 132.878123 176.295492 
L 132.941545 175.790563 
L 133.131809 155.84155 
L 133.195231 164.680208 
L 133.258652 177.053365 
L 133.322074 175.538579 
L 133.385495 175.033651 
L 133.448917 180.083898 
L 133.575759 170.740314 
L 133.639181 177.053365 
L 133.702602 172.76099 
L 133.766024 153.568891 
L 133.829445 154.831693 
L 133.956288 173.012974 
L 134.01971 170.993259 
L 134.083131 174.780706 
L 134.209974 164.680208 
L 134.527082 195.740536 
L 134.590503 195.487591 
L 134.653925 194.73068 
L 134.780768 181.85163 
L 134.844189 183.114434 
L 134.907611 190.437342 
L 135.034453 179.074042 
L 135.097875 182.356559 
L 135.161296 191.952128 
L 135.224718 186.901879 
L 135.288139 182.103614 
L 135.414982 195.740536 
L 135.478404 195.487591 
L 135.73209 188.417626 
L 135.795511 188.669611 
L 135.922354 168.214707 
L 136.049197 198.013195 
L 136.112619 194.477734 
L 136.17604 181.093757 
L 136.302883 202.811462 
L 136.366304 199.527982 
L 136.61999 179.578971 
L 136.746833 187.911736 
L 136.873676 172.508045 
L 137.063941 193.467876 
L 137.127362 193.71986 
L 137.317627 179.326026 
L 137.381048 168.720598 
L 137.507891 194.982662 
L 137.571313 187.154824 
L 137.634734 190.437342 
L 137.698156 205.084121 
L 137.761577 195.992521 
L 137.951841 182.861489 
L 138.015263 183.619361 
L 138.142106 195.992521 
L 138.205527 192.710003 
L 138.33237 205.084121 
L 138.459213 188.922556 
L 138.522635 194.73068 
L 138.586056 195.487591 
L 138.649478 199.023054 
L 138.712899 198.77107 
L 138.776321 184.124291 
L 138.903164 200.538802 
L 139.030007 186.649895 
L 139.093428 187.659754 
L 139.15685 191.195217 
L 139.347114 162.912476 
L 139.410535 175.033651 
L 139.473957 189.17454 
L 139.537378 182.103614 
L 139.6008 162.406586 
L 139.664221 166.194994 
L 139.791064 184.882165 
L 139.981329 176.043508 
L 140.171593 192.458019 
L 140.298436 173.770847 
L 140.361858 177.053365 
L 140.425279 183.366416 
L 140.488701 182.356559 
L 140.552122 174.022831 
L 140.615544 176.043508 
L 140.742386 183.619361 
L 140.805808 177.30631 
L 140.932651 191.195217 
L 141.059494 176.548437 
L 141.122915 185.892022 
L 141.186337 183.114434 
L 141.249758 176.295492 
L 141.31318 177.558294 
L 141.376601 176.043508 
L 141.440023 170.740314 
L 141.566866 191.447199 
L 141.630287 185.639077 
L 141.693709 181.346703 
L 141.820552 188.669611 
L 142.010816 178.821096 
L 142.074238 179.578971 
L 142.20108 182.356559 
L 142.264502 175.538579 
L 142.327923 178.821096 
L 142.581609 200.285856 
L 142.708452 187.659754 
L 142.835295 189.932413 
L 142.962138 206.598907 
L 143.02556 204.326249 
L 143.152403 186.901879 
L 143.279246 203.063445 
L 143.342667 196.498409 
L 143.406089 187.406808 
L 143.46951 193.21493 
L 143.532932 208.114655 
L 143.596353 198.266141 
L 143.659774 183.871346 
L 143.723196 186.901879 
L 143.786617 190.437342 
L 143.850039 189.427485 
L 143.976882 183.366416 
L 144.040303 184.377236 
L 144.103725 183.619361 
L 144.167146 174.528722 
L 144.357411 199.275999 
L 144.484254 183.114434 
L 144.611097 199.527982 
L 144.73794 181.346703 
L 144.928204 193.972805 
L 144.991625 193.972805 
L 145.118468 175.538579 
L 145.18189 184.124291 
L 145.245311 180.841773 
L 145.498997 172.76099 
L 145.62584 186.144006 
L 145.752683 168.467653 
L 145.816105 168.972582 
L 145.942948 180.841773 
L 146.006369 173.012974 
L 146.386898 205.084121 
L 146.513741 192.710003 
L 146.577162 193.21493 
L 146.704005 204.326249 
L 146.767427 203.568374 
L 146.830848 198.013195 
L 146.957691 170.487368 
L 147.021113 174.780706 
L 147.147956 166.194994 
L 147.465063 195.992521 
L 147.782171 176.295492 
L 147.845592 181.85163 
L 147.909013 179.830953 
L 147.972435 177.558294 
L 148.099278 194.22575 
L 148.289542 165.942049 
L 148.416385 162.154602 
L 148.60665 185.134148 
L 148.796914 181.346703 
L 148.923757 196.498409 
L 149.0506 177.30631 
L 149.114022 178.063222 
L 149.177443 183.114434 
L 149.240865 180.083898 
L 149.304286 179.326026 
L 149.431129 186.396952 
L 149.621393 171.75017 
L 149.811658 200.032911 
L 149.875079 193.71986 
L 150.001922 192.710003 
L 150.065344 194.22575 
L 150.192187 189.17454 
L 150.31903 201.043731 
L 150.445873 172.2551 
L 150.509294 175.538579 
L 150.572716 183.366416 
L 150.636137 179.830953 
L 150.699559 175.538579 
L 150.826401 204.579194 
L 150.889823 203.821319 
L 151.016666 190.942271 
L 151.270352 213.922779 
L 151.333773 213.164904 
L 151.587459 179.326026 
L 151.714302 202.306533 
L 151.841145 177.30631 
L 152.094831 191.195217 
L 152.221674 181.598685 
L 152.285095 182.103614 
L 152.411938 198.266141 
L 152.538781 180.841773 
L 152.602203 191.447199 
L 152.665624 186.144006 
L 152.729046 182.861489 
L 152.792467 186.901879 
L 152.91931 160.133925 
L 153.046153 180.083898 
L 153.172996 162.659531 
L 153.299839 180.588828 
L 153.426682 172.003116 
L 153.553525 176.548437 
L 153.680368 162.659531 
L 153.743789 163.669388 
L 153.870632 173.012974 
L 153.934054 172.003116 
L 154.060897 164.932192 
L 154.314583 190.437342 
L 154.568269 159.628997 
L 154.695112 178.569112 
L 154.758533 173.26592 
L 154.821955 164.427262 
L 154.885376 167.962725 
L 155.07564 222.255546 
L 155.139062 216.700367 
L 155.265905 188.417626 
L 155.392748 217.963169 
L 155.456169 213.669833 
L 155.519591 215.437565 
L 155.646434 205.589051 
L 155.773277 215.689549 
L 156.026963 185.639077 
L 156.153806 202.811462 
L 156.280649 192.205074 
L 156.34407 199.780927 
L 156.470913 185.639077 
L 156.597756 206.346923 
L 156.661177 198.013195 
L 156.724599 185.134148 
L 156.78802 189.679467 
L 156.851442 192.458019 
L 156.914863 187.659754 
L 157.041706 200.538802 
L 157.231971 168.214707 
L 157.358814 176.548437 
L 157.485657 189.17454 
L 157.6125 156.851409 
L 157.675921 167.962725 
L 157.739343 187.659754 
L 157.802764 187.406808 
L 157.866186 180.841773 
L 157.993028 195.235607 
L 158.119871 183.366416 
L 158.246714 202.053588 
L 158.373557 179.830953 
L 158.436979 181.598685 
L 158.563822 195.740536 
L 158.754086 180.841773 
L 158.817508 173.517902 
L 158.880929 177.30631 
L 159.007772 174.022831 
L 159.071194 175.538579 
L 159.198037 153.820874 
L 159.388301 183.619361 
L 159.515144 180.335883 
L 159.578565 181.85163 
L 159.641987 186.396952 
L 159.76883 178.316167 
L 159.832251 191.447199 
L 159.895673 188.164681 
L 159.959094 177.558294 
L 160.085937 189.932413 
L 160.149359 174.022831 
L 160.21278 179.830953 
L 160.276202 187.154824 
L 160.339623 179.326026 
L 160.403045 179.578971 
L 160.593309 192.458019 
L 160.783573 171.498188 
L 160.846995 174.022831 
L 160.973838 194.22575 
L 161.037259 193.467876 
L 161.100681 182.356559 
L 161.164102 183.619361 
L 161.227524 183.619361 
L 161.290945 178.063222 
L 161.354367 180.588828 
L 161.48121 212.155047 
L 161.608053 189.932413 
L 161.671474 194.22575 
L 161.734896 179.830953 
L 161.798317 180.083898 
L 161.92516 201.800642 
L 161.988582 192.205074 
L 162.052003 194.982662 
L 162.305689 208.366639 
L 162.432532 169.730457 
L 162.495953 179.326026 
L 162.622796 218.215153 
L 162.749639 173.26592 
L 162.813061 177.30631 
L 163.003325 201.043731 
L 163.066747 202.306533 
L 163.19359 168.720598 
L 163.320433 187.911736 
L 163.447276 165.942049 
L 163.510697 185.387093 
L 163.574119 179.578971 
L 163.63754 174.780706 
L 163.700961 178.569112 
L 163.827804 139.175055 
L 163.891226 154.831693 
L 163.954647 168.214707 
L 164.018069 158.114211 
L 164.08149 159.377013 
L 164.335176 184.882165 
L 164.398598 165.437119 
L 164.462019 171.498188 
L 164.525441 183.114434 
L 164.652284 158.619139 
L 164.779127 168.214707 
L 164.842548 165.185137 
L 164.969391 143.720377 
L 165.159655 182.609505 
L 165.223077 173.26592 
L 165.34992 167.457796 
L 165.413341 164.680208 
L 165.603606 183.871346 
L 165.730449 180.083898 
L 165.857292 200.790786 
L 166.110978 173.012974 
L 166.174399 178.569112 
L 166.301242 200.790786 
L 166.428085 165.185137 
L 166.554928 187.659754 
L 166.618349 187.154824 
L 166.681771 187.406808 
L 166.745192 185.639077 
L 166.808614 180.588828 
L 166.872035 189.932413 
L 166.935457 185.639077 
L 167.0623 161.649674 
L 167.189143 185.892022 
L 167.252564 175.285633 
L 167.315986 179.830953 
L 167.379407 190.437342 
L 167.442829 187.659754 
L 167.50625 186.901879 
L 167.696515 207.103837 
L 167.823358 184.882165 
L 167.886779 186.901879 
L 168.077043 210.6393 
L 168.140465 207.103837 
L 168.267308 181.093757 
L 168.330729 186.649895 
L 168.394151 193.972805 
L 168.457572 191.447199 
L 168.520994 192.205074 
L 168.584415 204.074265 
L 168.647837 199.780927 
L 168.711258 184.882165 
L 168.77468 189.932413 
L 168.901523 215.18462 
L 169.028366 200.032911 
L 169.155209 179.326026 
L 169.408894 215.689549 
L 169.472316 217.710224 
L 169.599159 198.013195 
L 169.66258 201.548658 
L 169.726002 209.629441 
L 169.789423 203.063445 
L 170.043109 152.558071 
L 170.106531 155.083678 
L 170.169952 172.2551 
L 170.233374 170.487368 
L 170.296795 157.104352 
L 170.423638 199.780927 
L 170.48706 197.508268 
L 170.550481 178.569112 
L 170.613903 181.346703 
L 170.804167 205.841035 
L 170.93101 189.427485 
L 171.057853 211.649157 
L 171.184696 172.508045 
L 171.248117 173.012974 
L 171.311539 159.124068 
L 171.438382 198.013195 
L 171.501803 189.679467 
L 171.565225 179.830953 
L 171.628646 198.266141 
L 171.692068 190.690287 
L 171.755489 158.366193 
L 171.818911 160.638854 
L 171.882332 184.377236 
L 171.945754 179.326026 
L 172.009175 181.598685 
L 172.072597 198.013195 
L 172.136018 187.154824 
L 172.19944 174.780706 
L 172.326282 219.22501 
L 172.453125 181.85163 
L 172.516547 190.437342 
L 172.579968 193.21493 
L 172.706811 177.558294 
L 172.897076 199.527982 
L 172.960497 189.679467 
L 173.08734 158.619139 
L 173.214183 190.184397 
L 173.277605 184.62922 
L 173.341026 191.700144 
L 173.721555 160.38687 
L 173.911819 183.619361 
L 174.038662 181.093757 
L 174.292348 174.528722 
L 174.419191 162.659531 
L 174.672877 184.62922 
L 174.79972 162.659531 
L 174.926563 197.003339 
L 174.989985 196.245466 
L 175.053406 193.972805 
L 175.116828 199.780927 
L 175.180249 196.750393 
L 175.24367 196.498409 
L 175.307092 199.780927 
L 175.560778 184.882165 
L 175.687621 204.579194 
L 175.751042 196.498409 
L 175.814464 183.114434 
L 175.877885 188.164681 
L 176.06815 213.164904 
L 176.131571 206.851853 
L 176.194993 191.952128 
L 176.258414 192.710003 
L 176.385257 205.084121 
L 176.5121 173.517902 
L 176.638943 209.124514 
L 176.702364 203.568374 
L 176.765786 189.427485 
L 176.95605 217.963169 
L 177.082893 201.800642 
L 177.146315 205.841035 
L 177.273158 194.22575 
L 177.336579 204.579194 
L 177.400001 199.275999 
L 177.463422 184.377236 
L 177.590265 220.23583 
L 177.653687 217.205296 
L 177.717108 206.346923 
L 177.78053 211.649157 
L 177.843951 207.103837 
L 177.970794 190.437342 
L 178.097637 202.306533 
L 178.161058 198.266141 
L 178.287901 217.963169 
L 178.351323 208.366639 
L 178.541587 182.356559 
L 178.66843 208.366639 
L 178.731852 204.326249 
L 178.795273 194.477734 
L 178.922116 221.750616 
L 179.175802 188.922556 
L 179.302645 192.205074 
L 179.366067 178.821096 
L 179.556331 194.982662 
L 179.683174 183.871346 
L 179.746595 189.17454 
L 179.873438 157.861266 
L 179.93686 158.114211 
L 180.127124 184.377236 
L 180.253967 156.34648 
L 180.317389 163.669388 
L 180.38081 181.093757 
L 180.444232 175.285633 
L 180.571075 164.932192 
L 180.634496 168.214707 
L 180.697918 178.821096 
L 180.761339 178.316167 
L 180.888182 163.16446 
L 181.015025 181.85163 
L 181.141868 163.922333 
L 181.268711 174.275777 
L 181.395554 163.417406 
L 181.522397 181.598685 
L 181.64924 163.417406 
L 181.776083 183.366416 
L 181.902926 164.174317 
L 181.966347 164.680208 
L 182.029769 157.104352 
L 182.220033 190.184397 
L 182.283455 184.882165 
L 182.346876 179.074042 
L 182.410297 180.841773 
L 182.473719 181.093757 
L 182.600562 163.16446 
L 182.727405 176.548437 
L 182.790826 175.790563 
L 182.917669 153.568891 
L 182.981091 159.124068 
L 183.171355 183.114434 
L 183.425041 175.033651 
L 183.551884 203.568374 
L 183.615306 195.740536 
L 183.742149 178.569112 
L 183.868991 199.023054 
L 183.995834 184.124291 
L 184.059256 187.406808 
L 184.122677 193.467876 
L 184.186099 189.427485 
L 184.24952 181.598685 
L 184.376363 189.427485 
L 184.503206 164.427262 
L 184.566628 180.083898 
L 184.630049 177.053365 
L 184.693471 163.417406 
L 184.756892 166.194994 
L 184.947157 191.195217 
L 185.074 180.083898 
L 185.200842 191.447199 
L 185.327685 163.16446 
L 185.51795 198.77107 
L 185.581371 196.245466 
L 185.708214 158.619139 
L 185.835057 174.022831 
L 185.898479 163.922333 
L 185.9619 164.932192 
L 186.215586 183.871346 
L 186.342429 170.487368 
L 186.405851 170.740314 
L 186.659536 178.569112 
L 186.849801 197.003339 
L 186.913222 197.508268 
L 187.166908 183.114434 
L 187.357173 207.608764 
L 187.484016 163.417406 
L 187.547437 137.912253 
L 187.610859 142.709557 
L 187.864545 182.103614 
L 187.927966 175.790563 
L 187.991388 178.316167 
L 188.054809 181.093757 
L 188.308495 157.609282 
L 188.371916 157.609282 
L 188.498759 153.063962 
L 188.625602 192.962948 
L 188.752445 159.377013 
L 188.815867 164.680208 
L 188.94271 157.104352 
L 189.132974 167.204851 
L 189.196396 185.892022 
L 189.259817 177.30631 
L 189.323239 158.619139 
L 189.38666 163.417406 
L 189.513503 181.85163 
L 189.640346 155.588605 
L 189.703767 159.628997 
L 189.767189 165.185137 
L 189.83061 161.396729 
L 189.894032 162.912476 
L 190.020875 169.982439 
L 190.147718 154.325803 
L 190.211139 154.578748 
L 190.337982 198.518125 
L 190.401404 194.22575 
L 190.464825 175.285633 
L 190.528247 181.346703 
L 190.591668 194.73068 
L 190.65509 193.467876 
L 190.781933 183.114434 
L 190.845354 183.619361 
L 190.908776 188.417626 
L 191.035618 171.498188 
L 191.162461 189.427485 
L 191.289304 165.185137 
L 191.479569 192.710003 
L 191.606412 200.285856 
L 191.669833 200.032911 
L 191.796676 192.458019 
L 191.923519 216.952351 
L 192.177205 167.70978 
L 192.240627 167.70978 
L 192.304048 186.649895 
L 192.367469 180.588828 
L 192.430891 173.770847 
L 192.557734 182.356559 
L 192.621155 178.063222 
L 192.747998 183.366416 
L 192.874841 169.477512 
L 193.001684 190.437342 
L 193.128527 170.740314 
L 193.191949 188.164681 
L 193.25537 186.396952 
L 193.318792 180.335883 
L 193.382213 187.154824 
L 193.509056 158.114211 
L 193.572478 164.932192 
L 193.635899 178.316167 
L 193.699321 168.720598 
L 193.762742 157.861266 
L 193.889585 186.144006 
L 193.953006 180.335883 
L 194.206692 164.680208 
L 194.270114 166.446978 
L 194.333535 165.437119 
L 194.396957 160.891799 
L 194.5238 170.487368 
L 194.650643 157.104352 
L 194.714064 161.144745 
L 194.904329 192.710003 
L 195.158015 167.457796 
L 195.284857 186.144006 
L 195.4117 163.922333 
L 195.475122 168.972582 
L 195.665386 219.729939 
L 195.728808 216.700367 
L 195.792229 205.841035 
L 195.855651 209.629441 
L 195.919072 216.700367 
L 195.982494 214.932636 
L 196.045915 214.932636 
L 196.109337 218.973028 
L 196.23618 206.09398 
L 196.363023 219.982885 
L 196.553287 199.275999 
L 196.616709 200.032911 
L 196.743551 214.174763 
L 196.870394 202.053588 
L 196.933816 204.074265 
L 197.060659 197.76025 
L 197.187502 203.31639 
L 197.314345 186.144006 
L 197.441188 204.326249 
L 197.504609 191.195217 
L 197.568031 198.77107 
L 197.631452 208.114655 
L 197.821717 176.043508 
L 197.885138 181.093757 
L 197.94856 185.387093 
L 198.011981 181.093757 
L 198.138824 186.649895 
L 198.202245 174.275777 
L 198.265667 176.548437 
L 198.39251 190.184397 
L 198.455931 185.639077 
L 198.582774 201.800642 
L 198.709617 188.417626 
L 198.773039 199.275999 
L 198.83646 194.982662 
L 198.899882 187.911736 
L 198.963303 189.932413 
L 199.090146 184.124291 
L 199.216989 190.942271 
L 199.280411 186.901879 
L 199.343832 188.417626 
L 199.470675 189.932413 
L 199.660939 168.720598 
L 199.724361 172.76099 
L 199.787782 165.690064 
L 200.168311 203.31639 
L 200.358576 189.932413 
L 200.421997 196.498409 
L 200.485419 195.487591 
L 200.612262 183.114434 
L 200.675683 192.205074 
L 200.802526 173.517902 
L 200.865948 176.295492 
L 200.929369 185.639077 
L 201.056212 169.730457 
L 201.183055 191.447199 
L 201.246476 188.669611 
L 201.373319 178.316167 
L 201.436741 179.326026 
L 201.563584 194.22575 
L 201.753848 174.275777 
L 202.070956 192.205074 
L 202.134377 184.62922 
L 202.197799 184.882165 
L 202.26122 186.144006 
L 202.324642 170.487368 
L 202.388063 171.245243 
L 202.514906 188.164681 
L 202.70517 179.326026 
L 202.768592 180.841773 
L 202.832013 187.154824 
L 202.895435 183.114434 
L 203.022278 167.457796 
L 203.085699 168.467653 
L 203.212542 192.458019 
L 203.339385 172.76099 
L 203.402807 174.528722 
L 203.466228 176.043508 
L 203.593071 201.295713 
L 203.656493 191.700144 
L 203.783336 124.78026 
L 203.846757 126.296008 
L 203.9736 134.628774 
L 204.163864 127.810794 
L 204.290707 129.831471 
L 204.41755 106.598979 
L 204.544393 123.518419 
L 204.671236 111.396283 
L 204.861501 135.134665 
L 204.924922 143.972359 
L 204.988344 142.709557 
L 205.115187 146.24502 
L 205.24203 121.497743 
L 205.305451 129.326541 
L 205.368872 132.356114 
L 205.559137 124.275331 
L 205.622558 127.810794 
L 205.68598 138.669165 
L 205.749401 134.88172 
L 205.812823 133.366934 
L 205.876244 135.386649 
L 206.003087 130.3364 
L 206.12993 151.043285 
L 206.193352 150.033428 
L 206.320195 131.851186 
L 206.447038 166.699923 
L 206.637302 133.366934 
L 206.700724 135.134665 
L 206.827566 153.820874 
L 207.017831 129.578525 
L 207.144674 136.649451 
L 207.271517 156.093534 
L 207.334938 151.80116 
L 207.588624 137.407324 
L 207.84231 146.497965 
L 207.905732 141.194771 
L 208.032575 155.336623 
L 208.095996 151.80116 
L 208.222839 168.972582 
L 208.28626 163.922333 
L 208.349682 163.16446 
L 208.476525 154.073819 
L 208.666789 169.477512 
L 208.730211 168.467653 
L 208.857054 152.558071 
L 208.920475 157.861266 
L 208.983897 159.377013 
L 209.047318 158.366193 
L 209.11074 159.377013 
L 209.174161 166.446978 
L 209.237583 165.942049 
L 209.301004 157.356336 
L 209.364426 157.609282 
L 209.491269 175.033651 
L 209.681533 144.730234 
L 209.744954 149.528499 
L 209.871797 165.437119 
L 209.935219 161.144745 
L 210.315748 177.053365 
L 210.569434 127.55881 
L 210.632855 126.800937 
L 210.759698 131.346257 
L 210.886541 121.497743 
L 211.076805 162.912476 
L 211.140227 152.053142 
L 211.203648 149.528499 
L 211.393913 168.214707 
L 211.457334 165.437119 
L 211.520756 155.083678 
L 211.584177 157.356336 
L 211.647599 161.649674 
L 211.774442 147.760768 
L 211.837863 179.326026 
L 211.901285 169.225527 
L 211.964706 174.528722 
L 212.028128 200.285856 
L 212.091549 190.184397 
L 212.154971 174.528722 
L 212.218392 186.396952 
L 212.281814 185.892022 
L 212.345235 164.174317 
L 212.408657 168.467653 
L 212.472078 189.932413 
L 212.535499 189.679467 
L 212.598921 188.164681 
L 212.662342 194.73068 
L 212.725764 191.447199 
L 212.789185 179.578971 
L 212.916028 207.356782 
L 212.97945 199.023054 
L 213.233136 174.275777 
L 213.296557 176.295492 
L 213.486822 190.437342 
L 213.550243 192.962948 
L 213.677086 170.235384 
L 213.803929 190.942271 
L 213.867351 186.649895 
L 213.930772 189.679467 
L 213.994193 188.669611 
L 214.184458 173.517902 
L 214.311301 163.669388 
L 214.438144 184.882165 
L 214.501565 184.62922 
L 214.564987 178.569112 
L 214.628408 179.830953 
L 214.69183 183.871346 
L 214.755251 183.619361 
L 214.818673 184.62922 
L 214.945516 161.396729 
L 215.008937 165.690064 
L 215.13578 192.205074 
L 215.199202 187.154824 
L 215.389466 171.245243 
L 215.706573 202.053588 
L 215.769995 210.13437 
L 215.960259 193.71986 
L 216.023681 192.710003 
L 216.213945 197.508268 
L 216.277367 196.498409 
L 216.40421 191.952128 
L 216.594474 201.295713 
L 216.657896 205.084121 
L 216.784738 196.750393 
L 216.84816 200.285856 
L 216.911581 201.043731 
L 216.975003 198.77107 
L 217.101846 181.85163 
L 217.165267 188.417626 
L 217.228689 201.295713 
L 217.29211 197.508268 
L 217.355532 185.387093 
L 217.545796 212.407031 
L 217.672639 201.548658 
L 217.736061 202.811462 
L 217.862904 189.679467 
L 217.926325 198.013195 
L 217.989747 192.205074 
L 218.053168 184.882165 
L 218.180011 205.841035 
L 218.243432 204.579194 
L 218.306854 205.336105 
L 218.370275 201.548658 
L 218.433697 190.184397 
L 218.497118 190.690287 
L 218.56054 190.184397 
L 218.750804 194.73068 
L 218.814226 196.498409 
L 218.941069 209.881425 
L 219.131333 191.195217 
L 219.511862 210.892245 
L 219.575284 205.841035 
L 219.638705 191.700144 
L 219.702126 194.982662 
L 219.765548 203.31639 
L 219.828969 202.558517 
L 219.955812 192.205074 
L 220.146077 209.629441 
L 220.27292 187.154824 
L 220.336341 195.235607 
L 220.399763 192.458019 
L 220.526606 171.245243 
L 220.653449 194.477734 
L 220.780292 168.467653 
L 220.843713 175.538579 
L 220.970556 194.982662 
L 221.033978 191.952128 
L 221.16082 177.558294 
L 221.351085 196.498409 
L 221.477928 181.093757 
L 221.604771 188.417626 
L 221.731614 181.346703 
L 221.858457 190.184397 
L 221.921878 180.841773 
L 221.9853 181.598685 
L 222.048721 199.527982 
L 222.112143 199.275999 
L 222.175564 190.942271 
L 222.238986 193.467876 
L 222.302407 199.023054 
L 222.42925 181.346703 
L 222.492672 184.377236 
L 222.556093 184.882165 
L 222.619514 180.335883 
L 222.746357 191.952128 
L 222.8732 189.932413 
L 223.000043 194.73068 
L 223.063465 194.22575 
L 223.190308 174.780706 
L 223.253729 181.093757 
L 223.317151 185.892022 
L 223.443994 175.285633 
L 223.570837 186.901879 
L 223.634258 184.62922 
L 223.761101 201.548658 
L 223.887944 182.103614 
L 223.951366 187.154824 
L 224.014787 187.154824 
L 224.14163 208.114655 
L 224.205051 205.084121 
L 224.331894 167.70978 
L 224.458737 197.508268 
L 224.58558 176.295492 
L 224.712423 196.750393 
L 224.775845 191.700144 
L 224.839266 181.093757 
L 224.902688 183.366416 
L 224.966109 188.164681 
L 225.092952 179.830953 
L 225.156374 184.377236 
L 225.219795 183.619361 
L 225.346638 172.508045 
L 225.473481 198.518125 
L 225.536902 194.22575 
L 225.600324 184.377236 
L 225.663745 185.134148 
L 225.790588 193.467876 
L 225.917431 178.569112 
L 226.044274 192.458019 
L 226.107696 188.417626 
L 226.171117 191.700144 
L 226.29796 177.053365 
L 226.361382 184.62922 
L 226.424803 182.609505 
L 226.551646 175.285633 
L 226.868753 186.396952 
L 226.995596 180.335883 
L 227.059018 186.396952 
L 227.122439 186.144006 
L 227.185861 181.346703 
L 227.502968 207.86171 
L 227.629811 191.447199 
L 227.693233 197.508268 
L 227.756654 203.821319 
L 227.820076 202.306533 
L 227.883497 202.558517 
L 227.946919 204.326249 
L 228.01034 197.003339 
L 228.137183 149.780483 
L 228.264026 157.104352 
L 228.327447 153.315946 
L 228.581133 180.083898 
L 228.644555 183.619361 
L 228.898241 163.669388 
L 229.025084 164.427262 
L 229.088505 158.872084 
L 229.151927 162.912476 
L 229.215348 176.801381 
L 229.27877 174.780706 
L 229.532456 140.436896 
L 229.595877 142.962503 
L 229.786141 172.76099 
L 229.849563 169.730457 
L 229.912984 161.649674 
L 229.976406 165.437119 
L 230.039827 176.043508 
L 230.103249 172.508045 
L 230.293513 160.133925 
L 230.420356 158.619139 
L 230.483778 158.619139 
L 230.610621 161.901656 
L 230.800885 145.993036 
L 230.99115 181.093757 
L 231.054571 175.538579 
L 231.181414 179.578971 
L 231.244835 177.053365 
L 231.371678 183.366416 
L 231.561943 172.76099 
L 231.625364 164.427262 
L 231.688786 164.680208 
L 231.752207 166.699923 
L 231.87905 159.377013 
L 232.069315 190.690287 
L 232.196158 168.720598 
L 232.513265 190.437342 
L 232.766951 158.366193 
L 232.893794 174.275777 
L 233.020637 157.356336 
L 233.274323 167.457796 
L 233.401166 157.104352 
L 233.59143 162.659531 
L 233.718273 152.306087 
L 233.845116 158.872084 
L 234.03538 145.235163 
L 234.098802 128.820651 
L 234.162223 133.871863 
L 234.225645 146.24502 
L 234.352488 134.123845 
L 234.415909 151.043285 
L 234.479331 149.275554 
L 234.542752 132.609059 
L 234.606174 138.164237 
L 234.669595 143.215448 
L 234.796438 128.820651 
L 234.85986 130.588382 
L 234.986703 142.457573 
L 235.050124 140.436896 
L 235.113546 141.6997 
L 235.176967 144.225305 
L 235.30381 134.123845 
L 235.494074 157.861266 
L 235.620917 151.043285 
L 235.684339 154.073819 
L 235.74776 145.993036 
L 235.811182 146.497965 
L 235.874603 146.24502 
L 236.001446 133.618918 
L 236.128289 154.325803 
L 236.255132 217.710224 
L 236.381975 173.517902 
L 236.508818 224.528204 
L 236.57224 224.276222 
L 236.635661 201.295713 
L 236.699083 207.356782 
L 236.762504 210.13437 
L 236.889347 194.982662 
L 236.952768 213.164904 
L 237.01619 208.114655 
L 237.143033 170.740314 
L 237.206454 176.043508 
L 237.333297 211.649157 
L 237.46014 177.81124 
L 237.523562 184.62922 
L 237.586983 190.942271 
L 237.650405 187.659754 
L 237.713826 187.911736 
L 237.777248 197.255323 
L 237.840669 193.467876 
L 238.030934 170.235384 
L 238.157777 187.154824 
L 238.411462 134.37679 
L 238.474884 146.74995 
L 238.538305 169.982439 
L 238.601727 168.972582 
L 238.72857 147.507822 
L 238.855413 119.225082 
L 239.109099 166.952867 
L 239.17252 171.498188 
L 239.235942 170.740314 
L 239.299363 158.872084 
L 239.489628 186.144006 
L 239.616471 168.720598 
L 239.743314 185.387093 
L 239.806735 183.619361 
L 239.996999 158.619139 
L 240.060421 175.033651 
L 240.123842 166.194994 
L 240.377528 123.518419 
L 240.504371 170.740314 
L 240.567793 186.144006 
L 240.631214 174.780706 
L 240.694636 167.204851 
L 240.821479 183.619361 
L 240.948322 169.225527 
L 241.011743 183.619361 
L 241.075165 178.316167 
L 241.138586 173.26592 
L 241.265429 181.598685 
L 241.392272 170.740314 
L 241.455693 173.26592 
L 241.519115 172.2551 
L 241.645958 169.477512 
L 241.709379 160.133925 
L 241.836222 181.346703 
L 241.963065 135.134665 
L 242.089908 186.144006 
L 242.15333 179.326026 
L 242.216751 175.538579 
L 242.343594 155.84155 
L 242.407016 161.901656 
L 242.470437 158.619139 
L 242.533859 153.063962 
L 242.660701 194.73068 
L 242.787544 175.033651 
L 242.850966 180.841773 
L 242.977809 161.649674 
L 243.104652 186.901879 
L 243.168073 178.063222 
L 243.294916 162.406586 
L 243.358338 162.406586 
L 243.485181 179.074042 
L 243.675445 147.760768 
L 243.802288 181.598685 
L 243.86571 168.467653 
L 243.992553 140.941826 
L 244.246238 176.043508 
L 244.373081 216.700367 
L 244.436503 214.427708 
L 244.626767 180.841773 
L 244.817032 191.195217 
L 244.880453 183.114434 
L 245.007296 132.104132 
L 245.070718 147.760768 
L 245.260982 187.406808 
L 245.324404 199.023054 
L 245.387825 188.669611 
L 245.451247 197.003339 
L 245.514668 224.528204 
L 245.578089 209.629441 
L 245.641511 194.22575 
L 245.704932 209.629441 
L 245.768354 203.568374 
L 245.895197 177.558294 
L 245.958618 177.81124 
L 246.02204 180.083898 
L 246.085461 174.780706 
L 246.212304 142.709557 
L 246.339147 187.154824 
L 246.783098 58.871194 
L 246.846519 53.820945 
L 246.909941 60.891871 
L 247.036783 85.134219 
L 247.163626 67.204922 
L 247.227048 73.265028 
L 247.290469 68.467725 
L 247.353891 72.002226 
L 247.480734 99.275108 
L 247.607577 67.709852 
L 247.670998 69.982511 
L 247.797841 104.831248 
L 247.861263 100.790857 
L 247.988106 73.013046 
L 248.051527 98.518197 
L 248.114949 92.710075 
L 248.17837 71.750242 
L 248.241792 75.285705 
L 248.368634 123.770403 
L 248.495477 94.224861 
L 248.749163 137.407324 
L 248.812585 144.477289 
L 249.002849 131.599202 
L 249.066271 136.649451 
L 249.129692 154.073819 
L 249.193114 150.033428 
L 249.4468 130.841327 
L 249.637064 150.79034 
L 249.763907 179.326026 
L 249.827328 178.821096 
L 249.89075 165.185137 
L 250.081014 205.841035 
L 250.144436 193.467876 
L 250.207857 187.154824 
L 250.3347 145.235163 
L 250.461543 199.275999 
L 250.524965 185.892022 
L 250.588386 181.85163 
L 250.651808 190.690287 
L 250.778651 172.76099 
L 250.968915 187.659754 
L 251.095758 185.387093 
L 251.222601 212.155047 
L 251.349444 245.74098 
L 251.476287 232.357005 
L 251.539708 236.14445 
L 251.666551 259.629406 
L 251.793394 243.468321 
L 251.920237 273.265848 
L 251.983659 269.730385 
L 252.04708 273.770775 
L 252.173923 252.558961 
L 252.237345 263.417334 
L 252.300766 259.881871 
L 252.364188 251.296159 
L 252.617874 295.488 
L 252.681295 292.205482 
L 252.744716 276.296382 
L 252.808138 285.387021 
L 252.871559 279.07397 
L 252.998402 241.447645 
L 253.061824 262.912404 
L 253.125245 254.578676 
L 253.188667 260.387281 
L 253.252088 277.053774 
L 253.31551 265.689993 
L 253.378931 258.114139 
L 253.505774 279.831364 
L 253.696039 254.326692 
L 253.822882 234.376719 
L 253.949725 264.932601 
L 254.013146 260.639744 
L 254.20341 232.10406 
L 254.266832 234.881648 
L 254.520518 274.023721 
L 254.647361 240.437788 
L 254.710782 244.730162 
L 254.774204 252.810945 
L 254.901047 235.134593 
L 255.091311 250.538284 
L 255.154733 248.013641 
L 255.281576 251.549104 
L 255.47184 227.811683 
L 255.535262 231.094201 
L 255.662104 216.195438 
L 255.788947 259.376941 
L 255.852369 258.619067 
L 255.979212 236.397395 
L 256.169476 260.892208 
L 256.232898 252.306016 
L 256.296319 257.357226 
L 256.359741 262.912404 
L 256.676848 230.841256 
L 256.74027 232.357005 
L 256.803691 242.710447 
L 256.867113 241.194699 
L 256.993955 227.558738 
L 257.057377 228.568597 
L 257.120798 228.063667 
L 257.247641 243.720305 
L 257.311063 236.14445 
L 257.437906 249.275482 
L 257.564749 228.063667 
L 257.62817 232.608987 
L 257.691592 207.86171 
L 257.755013 210.6393 
L 257.818435 238.922038 
L 257.881856 229.326469 
L 257.945278 209.881425 
L 258.072121 239.174984 
L 258.198964 225.791008 
L 258.262385 230.336328 
L 258.325807 227.811683 
L 258.452649 204.831176 
L 258.516071 222.255546 
L 258.579492 211.649157 
L 258.642914 188.417626 
L 258.769757 231.59913 
L 258.833178 228.568597 
L 258.960021 240.68977 
L 259.150286 206.09398 
L 259.277129 224.528204 
L 259.403972 203.063445 
L 259.530815 224.78115 
L 259.657658 204.326249 
L 259.721079 181.093757 
L 259.784501 185.892022 
L 259.911343 216.700367 
L 259.974765 213.164904 
L 260.101608 234.881648 
L 260.228451 206.346923 
L 260.291872 213.416888 
L 260.418715 205.336105 
L 260.482137 208.114655 
L 260.545558 170.993259 
L 260.60898 183.871346 
L 260.672401 189.679467 
L 260.735823 186.901879 
L 260.862666 177.558294 
L 260.926087 186.901879 
L 260.989509 186.396952 
L 261.116352 158.619139 
L 261.179773 170.235384 
L 261.306616 195.740536 
L 261.49688 162.659531 
L 261.623723 183.366416 
L 261.750566 170.487368 
L 261.877409 201.295713 
L 261.940831 195.992521 
L 262.004252 193.467876 
L 262.131095 174.022831 
L 262.257938 189.17454 
L 262.384781 160.638854 
L 262.638467 189.17454 
L 262.828731 168.214707 
L 262.892153 179.326026 
L 262.955574 177.81124 
L 263.018996 169.225527 
L 263.082417 175.538579 
L 263.145839 173.26592 
L 263.20926 159.377013 
L 263.272682 162.912476 
L 263.399525 183.871346 
L 263.462946 185.892022 
L 263.653211 174.275777 
L 263.716632 183.114434 
L 263.843475 156.34648 
L 263.906897 165.185137 
L 263.970318 177.81124 
L 264.097161 130.588382 
L 264.287425 175.285633 
L 264.414268 153.568891 
L 264.47769 141.194771 
L 264.731376 192.710003 
L 264.794797 187.406808 
L 264.92164 167.204851 
L 264.985062 171.498188 
L 265.111905 194.477734 
L 265.238748 157.356336 
L 265.365591 207.608764 
L 265.492434 180.841773 
L 265.555855 184.124291 
L 265.682698 162.406586 
L 265.746119 175.790563 
L 265.809541 166.952867 
L 265.872962 158.619139 
L 266.126648 201.043731 
L 266.19007 195.740536 
L 266.253491 177.558294 
L 266.316913 179.326026 
L 266.380334 181.85163 
L 266.507177 134.123845 
L 266.63402 180.588828 
L 266.697442 177.30631 
L 266.760863 188.922556 
L 266.887706 156.598464 
L 266.951128 172.76099 
L 267.014549 173.26592 
L 267.07797 163.669388 
L 267.141392 168.467653 
L 267.204813 170.993259 
L 267.268235 160.638854 
L 267.395078 180.335883 
L 267.458499 176.295492 
L 267.585342 158.872084 
L 267.648764 162.912476 
L 267.712185 162.659531 
L 267.775607 157.104352 
L 268.092714 208.619584 
L 268.156136 193.467876 
L 268.219557 178.821096 
L 268.282979 183.871346 
L 268.409822 174.780706 
L 268.663507 188.417626 
L 268.726929 166.699923 
L 268.79035 177.558294 
L 268.853772 177.81124 
L 268.917193 165.185137 
L 269.044036 222.003561 
L 269.107458 207.103837 
L 269.170879 198.013195 
L 269.234301 209.881425 
L 269.297722 204.579194 
L 269.361144 190.690287 
L 269.424565 190.942271 
L 269.487987 189.17454 
L 269.61483 181.346703 
L 269.741673 209.376496 
L 269.931937 163.417406 
L 269.995358 185.639077 
L 270.05878 177.30631 
L 270.122201 161.901656 
L 270.185623 164.174317 
L 270.375887 185.134148 
L 270.439309 186.144006 
L 270.629573 193.972805 
L 270.692995 208.114655 
L 270.756416 198.518125 
L 270.819838 186.649895 
L 270.946681 197.76025 
L 271.073524 174.528722 
L 271.200367 194.73068 
L 271.32721 171.498188 
L 271.517474 213.164904 
L 271.580895 210.6393 
L 271.77116 198.266141 
L 271.834581 198.518125 
L 271.961424 175.285633 
L 272.024846 184.62922 
L 272.088267 197.003339 
L 272.151689 190.942271 
L 272.21511 171.75017 
L 272.278532 176.801381 
L 272.341953 202.306533 
L 272.405375 196.750393 
L 272.532218 151.043285 
L 272.595639 162.912476 
L 272.722482 141.447716 
L 272.849325 169.225527 
L 272.912746 162.659531 
L 272.976168 157.356336 
L 273.103011 191.447199 
L 273.166432 180.083898 
L 273.293275 171.245243 
L 273.420118 146.24502 
L 273.546961 169.730457 
L 273.673804 154.073819 
L 273.737226 155.336623 
L 273.800647 158.619139 
L 273.864069 154.578748 
L 273.92749 141.6997 
L 273.990912 141.952646 
L 274.181176 174.275777 
L 274.308019 148.770624 
L 274.37144 157.356336 
L 274.434862 154.831693 
L 274.498283 149.528499 
L 274.561705 160.638854 
L 274.688548 125.033206 
L 274.751969 131.599202 
L 274.815391 154.325803 
L 274.878812 152.053142 
L 274.942234 139.931969 
L 275.005655 141.952646 
L 275.069077 152.053142 
L 275.19592 138.417183 
L 275.259341 147.255838 
L 275.449606 120.487886 
L 275.63987 138.92211 
L 275.703291 141.194771 
L 275.766713 139.175055 
L 275.830134 130.3364 
L 275.893556 131.599202 
L 276.08382 176.043508 
L 276.210663 159.377013 
L 276.274085 159.881943 
L 276.337506 142.204628 
L 276.400928 145.740091 
L 276.464349 163.16446 
L 276.591192 114.679762 
L 276.654614 133.366934 
L 276.844878 186.396952 
L 276.971721 134.37679 
L 277.035143 138.92211 
L 277.161985 172.508045 
L 277.225407 159.377013 
L 277.288828 169.225527 
L 277.35225 169.982439 
L 277.479093 147.760768 
L 277.605936 169.730457 
L 277.7962 143.467432 
L 277.923043 175.033651 
L 278.049886 148.517679 
L 278.113308 153.568891 
L 278.176729 147.507822 
L 278.240151 148.770624 
L 278.366994 164.680208 
L 278.557258 143.972359 
L 278.620679 153.063962 
L 278.684101 150.538356 
L 278.747522 146.24502 
L 278.810944 150.033428 
L 278.874365 145.488109 
L 279.001208 114.931746 
L 279.254894 154.831693 
L 279.381737 107.103909 
L 279.445159 116.447493 
L 279.698845 153.568891 
L 279.825688 131.346257 
L 279.889109 132.104132 
L 279.952531 147.760768 
L 280.015952 145.488109 
L 280.142795 143.467432 
L 280.206216 126.296008 
L 280.269638 127.55881 
L 280.396481 166.952867 
L 280.586745 124.78026 
L 280.650167 136.649451 
L 280.713588 135.891577 
L 280.903853 119.478027 
L 280.967274 108.618695 
L 281.157539 150.79034 
L 281.22096 149.528499 
L 281.347803 125.286151 
L 281.474646 149.275554 
L 281.728332 125.033206 
L 281.855175 144.477289 
L 281.918596 137.912253 
L 282.045439 145.235163 
L 282.172282 134.123845 
L 282.235704 143.467432 
L 282.299125 139.931969 
L 282.362547 137.407324 
L 282.425968 138.92211 
L 282.552811 110.386426 
L 282.743076 150.285411 
L 282.869918 113.41696 
L 282.93334 125.286151 
L 282.996761 139.931969 
L 283.060183 129.831471 
L 283.123604 122.507599 
L 283.250447 146.24502 
L 283.313869 139.931969 
L 283.37729 141.6997 
L 283.440712 143.215448 
L 283.504133 130.841327 
L 283.567555 138.92211 
L 283.630976 161.901656 
L 283.694398 160.38687 
L 283.757819 141.952646 
L 283.821241 143.467432 
L 284.074927 167.70978 
L 284.20177 132.356114 
L 284.265191 144.225305 
L 284.328612 161.649674 
L 284.392034 159.124068 
L 284.582298 127.052921 
L 284.772563 154.325803 
L 284.835984 152.306087 
L 284.899406 135.134665 
L 284.962827 136.649451 
L 285.026249 140.941826 
L 285.216513 112.407103 
L 285.343356 130.083455 
L 285.597042 93.972877 
L 285.660464 101.295785 
L 285.723885 109.629513 
L 285.787306 105.589122 
L 285.850728 108.618695 
L 286.104414 134.123845 
L 286.231257 118.215225 
L 286.294678 127.810794 
L 286.421521 100.537912 
L 286.484943 107.103909 
L 286.611786 128.063739 
L 286.738629 94.477806 
L 286.80205 102.05366 
L 286.865472 127.55881 
L 286.928893 127.305866 
L 287.182579 95.487663 
L 287.246 108.366711 
L 287.309422 107.861781 
L 287.436265 94.477806 
L 287.563108 113.921889 
L 287.626529 108.618695 
L 287.689951 100.790857 
L 287.753372 102.305644 
L 287.816794 106.850963 
L 287.880215 99.528053 
L 287.943637 99.780999 
L 288.07048 120.739868 
L 288.197323 83.113543 
L 288.387587 114.931746 
L 288.577851 100.537912 
L 288.641273 105.589122 
L 288.768116 77.81035 
L 288.95838 110.134442 
L 289.021802 104.073375 
L 289.085223 102.810571 
L 289.212066 107.608838 
L 289.338909 104.831248 
L 289.529174 125.79108 
L 289.656017 98.518197 
L 289.78286 117.457352 
L 289.846281 108.618695 
L 289.909703 110.134442 
L 289.973124 109.881497 
L 290.036545 99.528053 
L 290.099967 104.32632 
L 290.353653 139.175055 
L 290.480496 125.79108 
L 290.67076 152.811017 
L 290.734182 149.528499 
L 290.797603 149.275554 
L 290.924446 120.487886 
L 290.987868 128.063739 
L 291.051289 137.659308 
L 291.114711 134.88172 
L 291.241554 139.679985 
L 291.368397 126.800937 
L 291.431818 139.931969 
L 291.495239 134.37679 
L 291.558661 124.275331 
L 291.622082 127.810794 
L 291.685504 128.568669 
L 291.748925 123.265474 
L 291.812347 128.568669 
L 291.93919 152.558071 
L 292.066033 126.296008 
L 292.192876 166.699923 
L 292.256297 160.891799 
L 292.319719 143.720377 
L 292.38314 154.578748 
L 292.573405 170.993259 
L 292.636826 174.528722 
L 292.763669 155.083678 
L 292.827091 163.417406 
L 292.953933 141.952646 
L 293.017355 152.053142 
L 293.080776 144.730234 
L 293.144198 152.558071 
L 293.207619 186.901879 
L 293.271041 184.882165 
L 293.334462 164.932192 
L 293.397884 173.012974 
L 293.461305 163.417406 
L 293.524727 126.296008 
L 293.588148 133.366934 
L 293.65157 158.114211 
L 293.714991 140.184914 
L 293.778413 137.659308 
L 293.841834 159.124068 
L 293.905256 148.265697 
L 293.968677 134.37679 
L 294.032099 152.558071 
L 294.09552 149.780483 
L 294.158942 138.669165 
L 294.222363 145.740091 
L 294.349206 124.528276 
L 294.412627 134.37679 
L 294.602892 145.993036 
L 294.666313 143.972359 
L 294.793156 125.033206 
L 294.856578 130.3364 
L 294.983421 157.861266 
L 295.046842 148.770624 
L 295.173685 159.124068 
L 295.300528 142.204628 
L 295.36395 147.002895 
L 295.490793 129.578525 
L 295.554214 129.831471 
L 295.744479 153.063962 
L 295.871321 151.296231 
L 295.934743 151.80116 
L 296.061586 124.528276 
L 296.125007 125.538135 
L 296.188429 139.42704 
L 296.25185 135.386649 
L 296.315272 138.417183 
L 296.442115 155.588605 
L 296.505536 140.941826 
L 296.568958 141.194771 
L 296.759222 171.245243 
L 296.822644 171.245243 
L 296.886065 174.528722 
L 297.07633 148.517679 
L 297.203172 156.34648 
L 297.266594 154.073819 
L 297.330015 146.24502 
L 297.456858 166.952867 
L 297.583701 147.760768 
L 297.710544 162.406586 
L 297.773966 156.851409 
L 297.837387 159.881943 
L 297.96423 169.982439 
L 298.027652 169.477512 
L 298.281338 142.204628 
L 298.344759 145.488109 
L 298.408181 164.427262 
L 298.471602 160.38687 
L 298.535024 146.24502 
L 298.725288 172.2551 
L 298.978974 138.164237 
L 299.042395 144.983179 
L 299.105817 170.740314 
L 299.169238 157.609282 
L 299.23266 131.346257 
L 299.296081 147.002895 
L 299.422924 175.033651 
L 299.486346 178.569112 
L 299.549767 192.962948 
L 299.740032 148.517679 
L 299.866875 171.498188 
L 299.930296 161.396729 
L 299.993718 161.649674 
L 300.057139 168.467653 
L 300.310825 142.204628 
L 300.437668 150.285411 
L 300.564511 149.528499 
L 300.691354 168.467653 
L 300.818197 149.780483 
L 300.881618 156.34648 
L 300.94504 160.638854 
L 301.135304 121.750688 
L 301.262147 148.012752 
L 301.38899 119.478027 
L 301.452412 121.497743 
L 301.579254 130.841327 
L 301.706097 126.043062 
L 301.896362 134.628774 
L 301.959783 133.113988 
L 302.086626 118.720154 
L 302.213469 146.74995 
L 302.340312 123.518419 
L 302.530577 137.154381 
L 302.593998 136.396506 
L 302.720841 127.052921 
L 302.847684 137.659308 
L 303.037948 113.921889 
L 303.10137 115.689621 
L 303.228213 128.063739 
L 303.355056 106.346034 
L 303.418477 111.649228 
L 303.54532 128.568669 
L 303.735585 113.41696 
L 303.799006 114.426817 
L 303.925849 135.891577 
L 303.989271 133.366934 
L 304.116114 131.346257 
L 304.242957 137.407324 
L 304.433221 117.96228 
L 304.560064 120.234941 
L 304.623485 98.265251 
L 304.686907 101.800714 
L 304.750328 122.507599 
L 304.81375 122.002672 
L 304.877171 116.194548 
L 304.940593 124.528276 
L 305.004014 121.244797 
L 305.067436 104.831248 
L 305.130857 106.094052 
L 305.321122 141.6997 
L 305.384543 137.659308 
L 305.511386 123.265474 
L 305.638229 150.79034 
L 305.701651 144.730234 
L 305.828493 116.447493 
L 305.955336 153.315946 
L 306.082179 126.547992 
L 306.145601 134.88172 
L 306.272444 111.649228 
L 306.335865 120.992813 
L 306.399287 127.305866 
L 306.52613 119.225082 
L 306.652973 146.74995 
L 306.779816 133.618918 
L 306.843237 137.407324 
L 306.906659 142.709557 
L 306.97008 137.659308 
L 307.096923 98.518197 
L 307.223766 143.215448 
L 307.477452 107.103909 
L 307.540873 122.507599 
L 307.604295 119.730011 
L 307.667716 98.013267 
L 307.731138 108.113765 
L 307.794559 131.851186 
L 307.857981 123.770403 
L 307.921402 119.225082 
L 307.984824 131.599202 
L 308.048245 131.346257 
L 308.175088 111.144299 
L 308.23851 112.407103 
L 308.301931 111.144299 
L 308.428774 131.093312 
L 308.492196 127.305866 
L 308.555617 125.286151 
L 308.68246 148.012752 
L 308.745881 143.215448 
L 308.872724 121.497743 
L 308.999567 143.215448 
L 309.316675 107.861781 
L 309.443518 109.881497 
L 309.506939 114.174835 
L 309.633782 143.720377 
L 309.697204 134.628774 
L 309.760625 135.639594 
L 309.824047 137.912253 
L 310.014311 122.255617 
L 310.077733 122.507599 
L 310.141154 123.265474 
L 310.204575 121.750688 
L 310.267997 124.528276 
L 310.331418 132.861043 
L 310.458261 106.346034 
L 310.521683 116.194548 
L 310.585104 127.810794 
L 310.648526 123.265474 
L 310.711947 127.55881 
L 310.775369 125.033206 
L 310.83879 116.699478 
L 310.965633 137.154381 
L 311.092476 116.952423 
L 311.219319 133.366934 
L 311.282741 128.820651 
L 311.409584 115.437637 
L 311.536427 122.255617 
L 311.663269 104.073375 
L 311.790112 133.366934 
L 311.916955 107.103909 
L 312.10722 149.275554 
L 312.170641 140.184914 
L 312.234063 124.528276 
L 312.297484 132.609059 
L 312.360906 144.730234 
L 312.424327 140.184914 
L 312.55117 118.215225 
L 312.678013 136.144522 
L 312.741435 130.588382 
L 312.804856 117.204407 
L 312.868278 126.800937 
L 312.931699 140.184914 
L 312.99512 135.891577 
L 313.058542 125.286151 
L 313.185385 134.628774 
L 313.312228 120.487886 
L 313.439071 137.154381 
L 313.565914 117.96228 
L 313.692757 147.002895 
L 313.946443 109.881497 
L 314.009864 110.639372 
L 314.073286 125.538135 
L 314.136707 117.96228 
L 314.200129 111.649228 
L 314.326972 120.487886 
L 314.390393 113.41696 
L 314.453814 115.437637 
L 314.517236 118.215225 
L 314.580657 117.96228 
L 314.644079 115.689621 
L 314.770922 127.052921 
L 314.897765 98.518197 
L 315.024608 122.002672 
L 315.088029 120.487886 
L 315.151451 121.497743 
L 315.278294 92.457129 
L 315.341715 94.729788 
L 315.405137 113.669905 
L 315.468558 108.87164 
L 315.53198 94.477806 
L 315.595401 100.537912 
L 315.658823 116.194548 
L 315.722244 112.659085 
L 315.785666 111.902174 
L 315.849087 114.426817 
L 315.97593 97.760324 
L 316.039351 100.032983 
L 316.102773 99.023126 
L 316.166194 99.528053 
L 316.229616 110.386426 
L 316.293037 108.113765 
L 316.41988 89.932484 
L 316.546723 104.831248 
L 316.673566 137.407324 
L 316.927252 95.740608 
L 317.054095 126.547992 
L 317.180938 99.275108 
L 317.307781 133.366934 
L 317.434624 223.265402 
L 317.561467 184.377236 
L 317.624888 185.892022 
L 317.751731 230.841256 
L 317.815153 201.043731 
L 317.878574 203.063445 
L 317.941996 217.457278 
L 318.005417 211.649157 
L 318.068839 208.114655 
L 318.13226 220.23583 
L 318.195682 216.952351 
L 318.385946 194.477734 
L 318.512789 235.134593 
L 318.639632 197.003339 
L 318.703054 197.255323 
L 318.893318 212.659977 
L 318.956739 224.528204 
L 319.020161 215.942494 
L 319.147004 188.164681 
L 319.210425 191.952128 
L 319.337268 205.589051 
L 319.40069 204.831176 
L 319.527533 177.558294 
L 319.590954 156.598464 
L 319.654376 168.972582 
L 319.781219 197.003339 
L 319.908062 176.043508 
L 320.034905 144.730234 
L 320.161748 182.609505 
L 320.225169 181.346703 
L 320.352012 199.780927 
L 320.415433 198.013195 
L 320.478855 191.700144 
L 320.669119 212.911959 
L 320.795962 189.17454 
L 320.859384 195.740536 
L 320.986227 214.932636 
L 321.11307 189.427485 
L 321.176491 191.952128 
L 321.239913 208.114655 
L 321.303334 197.255323 
L 321.430177 173.012974 
L 321.493599 175.538579 
L 321.620441 158.366193 
L 321.747284 208.871568 
L 321.810706 207.103837 
L 321.874127 205.336105 
L 322.00097 212.911959 
L 322.064392 200.032911 
L 322.127813 200.538802 
L 322.191235 217.205296 
L 322.254656 211.902102 
L 322.318078 201.800642 
L 322.381499 208.619584 
L 322.444921 216.952351 
L 322.635185 201.295713 
L 322.762028 209.881425 
L 322.82545 209.376496 
L 322.888871 201.548658 
L 323.015714 222.003561 
L 323.142557 172.003116 
L 323.205978 187.911736 
L 323.332821 222.508491 
L 323.459664 190.942271 
L 323.523086 194.73068 
L 323.586507 204.579194 
L 323.649929 198.013195 
L 323.71335 193.972805 
L 323.840193 221.750616 
L 324.157301 189.679467 
L 324.284144 213.164904 
L 324.410987 185.387093 
L 324.474408 193.21493 
L 324.537829 182.609505 
L 324.601251 184.882165 
L 324.664672 196.498409 
L 324.728094 193.972805 
L 324.791515 179.578971 
L 324.854937 182.861489 
L 324.98178 224.023277 
L 325.172044 171.498188 
L 325.42573 209.376496 
L 325.489152 183.871346 
L 325.552573 187.154824 
L 325.615995 185.639077 
L 325.806259 156.851409 
L 325.869681 161.649674 
L 325.933102 156.598464 
L 325.996523 160.638854 
L 326.059945 155.336623 
L 326.186788 109.629513 
L 326.250209 124.275331 
L 326.503895 159.124068 
L 326.567317 153.315946 
L 326.630738 153.568891 
L 326.947846 190.437342 
L 327.011267 176.801381 
L 327.074689 183.871346 
L 327.201532 190.942271 
L 327.391796 159.628997 
L 327.518639 211.649157 
L 327.962589 54.072929 
L 328.026011 55.840661 
L 328.089432 53.568 
L 328.216275 77.558366 
L 328.279697 70.235456 
L 328.343118 63.66946 
L 328.40654 71.245315 
L 328.469961 63.921444 
L 328.533383 68.719709 
L 328.660226 101.295785 
L 328.787068 81.093829 
L 329.040754 104.32632 
L 329.167597 88.416737 
L 329.231019 110.891354 
L 329.29444 104.831248 
L 329.421283 79.073152 
L 329.548126 128.568669 
L 329.674969 103.3155 
L 329.801812 116.447493 
L 329.865234 116.952423 
L 329.992077 141.6997 
L 330.182341 125.033206 
L 330.245762 130.083455 
L 330.309184 148.517679 
L 330.372605 144.983179 
L 330.56287 130.3364 
L 330.626291 113.164015 
L 330.689713 118.467209 
L 330.943399 150.033428 
L 331.00682 144.983179 
L 331.070242 138.164237 
L 331.260506 173.012974 
L 331.323928 165.942049 
L 331.514192 118.972136 
L 331.577614 136.649451 
L 331.641035 156.598464 
L 331.704456 151.043285 
L 331.831299 145.488109 
L 331.958142 125.286151 
L 332.148407 154.325803 
L 332.211828 152.558071 
L 332.338671 172.003116 
L 332.528936 224.276222 
L 332.592357 218.973028 
L 332.655779 206.851853 
L 332.7192 213.922779 
L 332.846043 236.902325 
L 332.909465 222.003561 
L 332.972886 224.023277 
L 333.16315 246.497894 
L 333.226572 250.791229 
L 333.353415 231.346185 
L 333.416836 236.902325 
L 333.543679 221.497671 
L 333.733944 249.528427 
L 333.797365 282.861898 
L 333.860787 273.518311 
L 333.924208 252.558961 
L 333.98763 269.47792 
L 334.051051 264.932601 
L 334.114473 229.578454 
L 334.177894 230.336328 
L 334.241316 250.791229 
L 334.304737 239.174984 
L 334.43158 262.912404 
L 334.558423 226.295936 
L 334.685266 249.528427 
L 335.002373 207.356782 
L 335.129216 229.831399 
L 335.192638 225.791008 
L 335.382902 198.77107 
L 335.446324 203.568374 
L 335.573167 226.295936 
L 335.636588 220.23583 
L 335.70001 226.800865 
L 335.763431 222.760473 
L 335.890274 204.326249 
L 335.953696 211.902102 
L 336.080538 194.22575 
L 336.14396 195.487591 
L 336.397646 223.013418 
L 336.461067 218.973028 
L 336.841596 189.932413 
L 337.031861 238.417111 
L 337.158704 208.619584 
L 337.348968 253.821765 
L 337.412389 244.983107 
L 337.475811 246.24591 
L 337.729497 230.589274 
L 337.919761 222.255546 
L 338.046604 234.881648 
L 338.30029 223.771293 
L 338.617398 255.336551 
L 338.871083 200.538802 
L 338.934505 207.86171 
L 338.997926 235.892466 
L 339.061348 228.568597 
L 339.124769 217.205296 
L 339.251612 251.296159 
L 339.378455 228.316613 
L 339.441877 234.881648 
L 339.505298 231.59913 
L 339.632141 213.164904 
L 339.695563 232.357005 
L 339.758984 222.508491 
L 339.822406 206.598907 
L 339.949249 239.174984 
L 340.01267 236.649379 
L 340.139513 254.831622 
L 340.329777 223.013418 
L 340.45662 240.437788 
L 340.583463 222.760473 
L 340.710306 246.24591 
L 340.900571 218.468098 
L 340.963992 216.700367 
L 341.217678 253.06389 
L 341.2811 257.862155 
L 341.407943 228.568597 
L 341.471364 238.417111 
L 341.534786 239.932858 
L 341.661629 224.276222 
L 341.72505 173.012974 
L 341.788471 195.487591 
L 341.851893 200.538802 
L 342.042157 182.609505 
L 342.169 185.387093 
L 342.232422 182.609505 
L 342.295843 165.690064 
L 342.359265 168.467653 
L 342.486108 202.558517 
L 342.676372 167.457796 
L 342.803215 186.144006 
L 342.930058 162.659531 
L 343.056901 193.467876 
L 343.247165 180.083898 
L 343.310587 180.841773 
L 343.374008 187.406808 
L 343.43743 183.871346 
L 343.564273 162.154602 
L 343.691116 176.801381 
L 343.754537 171.245243 
L 343.88138 182.609505 
L 344.008223 157.861266 
L 344.071645 177.81124 
L 344.135066 175.285633 
L 344.325331 153.063962 
L 344.388752 144.477289 
L 344.642438 178.821096 
L 344.769281 163.669388 
L 344.832702 166.194994 
L 344.896124 167.204851 
L 345.022967 153.315946 
L 345.14981 163.16446 
L 345.276653 127.810794 
L 345.403496 154.325803 
L 345.466917 154.073819 
L 345.530339 155.588605 
L 345.657182 123.265474 
L 345.910868 179.578971 
L 345.974289 177.30631 
L 346.101132 147.255838 
L 346.227975 181.598685 
L 346.291396 174.275777 
L 346.418239 142.962503 
L 346.545082 179.578971 
L 346.671925 155.336623 
L 346.735347 161.396729 
L 346.798768 156.598464 
L 346.86219 140.689842 
L 346.925611 146.497965 
L 346.989033 149.528499 
L 347.115876 142.709557 
L 347.242719 176.295492 
L 347.623247 121.244797 
L 347.686669 106.094052 
L 347.876933 156.34648 
L 347.940355 163.16446 
L 348.067198 132.609059 
L 348.130619 150.79034 
L 348.194041 144.225305 
L 348.257462 133.618918 
L 348.384305 153.820874 
L 348.447727 128.820651 
L 348.511148 130.841327 
L 348.57457 144.983179 
L 348.701413 106.850963 
L 348.764834 113.669905 
L 348.828256 129.578525 
L 348.891677 125.79108 
L 348.955098 124.528276 
L 349.272206 167.70978 
L 349.335627 165.942049 
L 349.525892 145.488109 
L 349.589313 149.02357 
L 349.652735 146.74995 
L 349.716156 145.740091 
L 349.779578 151.296231 
L 349.842999 174.528722 
L 349.906421 152.053142 
L 349.969842 158.366193 
L 350.096685 162.154602 
L 350.223528 205.589051 
L 350.28695 193.972805 
L 350.350371 193.467876 
L 350.413792 200.032911 
L 350.540635 189.679467 
L 350.604057 194.22575 
L 350.7309 180.335883 
L 350.794321 181.85163 
L 350.921164 197.255323 
L 350.984586 195.740536 
L 351.111429 173.26592 
L 351.17485 178.569112 
L 351.301693 171.245243 
L 351.365115 173.517902 
L 351.491958 194.73068 
L 351.555379 191.195217 
L 351.618801 184.882165 
L 351.682222 188.669611 
L 351.809065 203.568374 
L 351.872486 211.397173 
L 351.999329 188.417626 
L 352.062751 193.972805 
L 352.126172 199.023054 
L 352.253015 171.498188 
L 352.316437 177.558294 
L 352.379858 197.003339 
L 352.44328 183.366416 
L 352.506701 168.972582 
L 352.760387 208.366639 
L 353.077495 186.901879 
L 353.204337 170.993259 
L 353.267759 174.275777 
L 353.33118 173.517902 
L 353.394602 161.649674 
L 353.458023 169.225527 
L 353.521445 190.942271 
L 353.584866 179.830953 
L 353.711709 126.800937 
L 353.775131 132.104132 
L 353.901974 117.457352 
L 354.092238 141.6997 
L 354.15566 138.417183 
L 354.282503 166.446978 
L 354.345924 162.154602 
L 354.409346 158.366193 
L 354.536189 130.588382 
L 354.59961 131.346257 
L 354.789874 152.053142 
L 354.916717 148.012752 
L 354.980139 149.275554 
L 355.04356 147.760768 
L 355.106982 134.37679 
L 355.170403 136.144522 
L 355.360668 164.932192 
L 355.487511 145.740091 
L 355.614354 157.861266 
L 355.677775 153.063962 
L 355.741197 162.154602 
L 355.86804 132.356114 
L 355.931461 139.175055 
L 355.994883 161.649674 
L 356.058304 154.831693 
L 356.121725 147.002895 
L 356.248568 167.70978 
L 356.375411 149.275554 
L 356.438833 159.124068 
L 356.502254 156.34648 
L 356.692519 141.447716 
L 356.75594 137.154381 
L 356.882783 160.891799 
L 357.009626 132.861043 
L 357.263312 186.396952 
L 357.516998 141.952646 
L 357.643841 170.993259 
L 357.770684 126.296008 
L 357.834105 139.679985 
L 358.02437 234.881648 
L 358.087791 220.740759 
L 358.214634 183.366416 
L 358.341477 237.407252 
L 358.404899 211.649157 
L 358.46832 213.669833 
L 358.531742 225.033134 
L 358.595163 218.973028 
L 358.658585 211.902102 
L 358.785428 225.538063 
L 358.912271 191.952128 
L 358.975692 197.003339 
L 359.102535 235.386577 
L 359.229378 198.518125 
L 359.292799 201.800642 
L 359.356221 208.114655 
L 359.419642 206.09398 
L 359.483064 205.841035 
L 359.546485 225.791008 
L 359.609907 221.245687 
L 359.73675 187.659754 
L 359.800171 195.487591 
L 359.863593 192.205074 
L 359.990436 199.023054 
L 360.053857 193.467876 
L 360.1807 159.628997 
L 360.244122 170.740314 
L 360.370964 191.195217 
L 360.434386 191.195217 
L 360.497807 186.396952 
L 360.62465 149.02357 
L 360.941758 199.780927 
L 361.005179 200.032911 
L 361.068601 190.184397 
L 361.132022 195.235607 
L 361.258865 206.851853 
L 361.385708 187.406808 
L 361.512551 209.124514 
L 361.575973 203.31639 
L 361.702816 182.609505 
L 361.766237 185.134148 
L 361.829658 195.740536 
L 362.146766 139.42704 
L 362.210187 147.002895 
L 362.33703 194.22575 
L 362.400452 187.659754 
L 362.463873 184.124291 
L 362.590716 195.487591 
L 362.717559 186.144006 
L 362.844402 197.255323 
L 362.907824 191.952128 
L 362.971245 192.962948 
L 363.034667 201.548658 
L 363.16151 186.901879 
L 363.415195 207.608764 
L 363.478617 202.306533 
L 363.542038 202.811462 
L 363.60546 216.447422 
L 363.732303 172.76099 
L 363.795724 185.134148 
L 363.922567 221.497671 
L 364.04941 186.649895 
L 364.112832 192.205074 
L 364.176253 202.811462 
L 364.239675 196.245466 
L 364.303096 191.447199 
L 364.429939 222.255546 
L 364.556782 205.841035 
L 364.620204 209.376496 
L 364.747046 197.76025 
L 364.873889 216.447422 
L 365.000732 193.71986 
L 365.064154 205.336105 
L 365.127575 203.063445 
L 365.190997 201.295713 
L 365.254418 205.841035 
L 365.31784 201.548658 
L 365.381261 181.093757 
L 365.444683 185.387093 
L 365.571526 222.508491 
L 365.76179 169.477512 
L 366.015476 203.31639 
L 366.078898 166.952867 
L 366.142319 170.740314 
L 366.522848 145.993036 
L 366.586269 150.285411 
L 366.649691 145.993036 
L 366.776534 103.568446 
L 366.839955 110.639372 
L 366.903377 128.063739 
L 366.966798 126.043062 
L 367.03022 128.568669 
L 367.283906 166.699923 
L 367.347327 155.588605 
L 367.410749 158.366193 
L 367.47417 181.093757 
L 367.537592 176.295492 
L 367.601013 157.104352 
L 367.664434 168.720598 
L 367.727856 170.993259 
L 367.91812 145.235163 
L 367.981542 137.407324 
L 368.108385 187.154824 
L 368.425492 75.790635 
L 368.488914 75.537689 
L 368.615757 58.61921 
L 368.679178 62.659603 
L 368.806021 85.134219 
L 368.932864 65.184246 
L 369.059707 67.709852 
L 369.249971 100.790857 
L 369.376814 81.598756 
L 369.567079 98.013267 
L 369.6305 99.275108 
L 369.757343 85.386203 
L 369.820765 103.3155 
L 369.884186 89.932484 
L 369.947608 71.750242 
L 370.011029 76.295564 
L 370.137872 127.052921 
L 370.264715 96.245538 
L 370.391558 119.982956 
L 370.454979 113.669905 
L 370.581822 144.730234 
L 370.645244 140.184914 
L 370.835508 125.538135 
L 370.962351 148.770624 
L 371.216037 116.699478 
L 371.279459 122.507599 
L 371.406302 145.235163 
L 371.469723 141.447716 
L 371.596566 155.336623 
L 371.659988 147.255838 
L 371.723409 152.811017 
L 371.913673 185.387093 
L 372.103938 136.649451 
L 372.294202 169.225527 
L 372.484467 154.831693 
L 372.547888 146.24502 
L 372.674731 179.326026 
L 372.738153 169.982439 
L 372.801574 148.012752 
L 372.864996 148.265697 
L 373.118682 209.881425 
L 373.182103 209.124514 
L 373.245525 200.285856 
L 373.435789 227.558738 
L 373.49921 219.477955 
L 373.816318 253.821765 
L 373.943161 235.892466 
L 374.006582 248.51857 
L 374.260268 192.205074 
L 374.387111 247.255766 
L 374.450533 242.962431 
L 374.513954 225.538063 
L 374.577376 238.165127 
L 374.640797 232.608987 
L 374.76764 193.467876 
L 374.831061 211.397173 
L 374.894483 205.084121 
L 375.021326 239.174984 
L 375.084747 230.841256 
L 375.148169 206.09398 
L 375.21159 220.992741 
L 375.275012 239.679913 
L 375.338433 229.326469 
L 375.401855 216.195438 
L 375.465276 223.265402 
L 375.528698 215.689549 
L 375.655541 191.952128 
L 375.782384 217.205296 
L 375.972648 187.154824 
L 376.03607 191.195217 
L 376.162913 215.942494 
L 376.226334 214.174763 
L 376.289755 222.508491 
L 376.48002 191.195217 
L 376.543441 204.831176 
L 376.606863 195.740536 
L 376.670284 181.346703 
L 376.733706 185.387093 
L 376.92397 206.598907 
L 376.987392 209.881425 
L 377.431342 177.053365 
L 377.621606 216.700367 
L 377.748449 189.427485 
L 377.875292 235.134593 
L 377.938714 231.346185 
L 378.002135 226.043952 
L 378.065557 234.376719 
L 378.128978 228.821542 
L 378.255821 215.942494 
L 378.319243 221.497671 
L 378.382664 218.468098 
L 378.446086 219.729939 
L 378.509507 218.468098 
L 378.63635 225.286079 
L 378.763193 214.932636 
L 378.826615 217.710224 
L 378.953458 233.113917 
L 379.016879 230.841256 
L 379.0803 233.871791 
L 379.207143 250.286302 
L 379.460829 193.21493 
L 379.524251 209.629441 
L 379.587672 233.619807 
L 379.651094 221.750616 
L 379.714515 211.902102 
L 379.841358 249.023498 
L 379.90478 244.478178 
L 380.031623 229.578454 
L 380.095044 228.821542 
L 380.221887 213.669833 
L 380.285309 233.366862 
L 380.34873 220.487814 
L 380.412152 199.780927 
L 380.538994 239.679913 
L 380.602416 237.912182 
L 380.729259 251.043213 
L 380.919523 216.447422 
L 381.046366 239.932858 
L 381.173209 225.033134 
L 381.236631 240.942715 
L 381.300052 236.397395 
L 381.490317 214.427708 
L 381.553738 215.942494 
L 381.807424 253.06389 
L 381.870846 249.528427 
L 381.997688 223.518348 
L 382.06111 227.053811 
L 382.124531 224.78115 
L 382.251374 210.6393 
L 382.314796 159.628997 
L 382.378217 182.103614 
L 382.441639 189.679467 
L 382.50506 186.901879 
L 382.631903 177.053365 
L 382.695325 183.366416 
L 382.885589 159.628997 
L 382.949011 165.437119 
L 383.075854 194.982662 
L 383.266118 153.568891 
L 383.392961 179.074042 
L 383.519804 160.38687 
L 383.646647 187.659754 
L 383.710068 182.861489 
L 383.963754 174.275777 
L 384.027176 172.2551 
L 384.154019 156.34648 
L 384.280862 164.174317 
L 384.344283 159.377013 
L 384.407705 166.699923 
L 384.471126 164.680208 
L 384.597969 150.79034 
L 384.661391 169.477512 
L 384.724812 167.962725 
L 384.915076 147.255838 
L 384.978498 142.204628 
L 385.232184 183.619361 
L 385.612713 156.851409 
L 385.676134 164.427262 
L 385.739556 175.285633 
L 385.866399 131.599202 
L 385.993242 164.427262 
L 386.056663 160.133925 
L 386.120085 162.406586 
L 386.246927 141.6997 
L 386.500613 182.861489 
L 386.564035 187.154824 
L 386.690878 155.84155 
L 386.817721 201.548658 
L 386.881142 192.458019 
L 387.007985 158.619139 
L 387.134828 197.255323 
L 387.261671 178.316167 
L 387.325093 181.346703 
L 387.451936 155.588605 
L 387.515357 164.174317 
L 387.578779 162.406586 
L 387.6422 155.84155 
L 387.705621 162.406586 
L 387.832464 185.639077 
L 387.895886 181.598685 
L 388.022729 156.598464 
L 388.08615 164.427262 
L 388.149572 176.043508 
L 388.276415 127.55881 
L 388.530101 193.467876 
L 388.656944 150.79034 
L 388.720365 167.457796 
L 388.783787 167.962725 
L 388.847208 156.34648 
L 388.91063 164.680208 
L 388.974051 174.275777 
L 389.037473 165.942049 
L 389.164315 188.417626 
L 389.291158 150.79034 
L 389.35458 164.932192 
L 389.418001 180.841773 
L 389.481423 174.275777 
L 389.544844 174.275777 
L 389.79853 211.902102 
L 389.861952 211.144227 
L 389.925373 213.164904 
L 390.115638 182.103614 
L 390.179059 190.437342 
L 390.242481 186.396952 
L 390.305902 184.124291 
L 390.369324 188.669611 
L 390.496167 122.255617 
L 390.559588 125.286151 
L 390.813274 167.70978 
L 390.876695 162.406586 
L 390.940117 160.638854 
L 391.003538 163.16446 
L 391.130381 143.215448 
L 391.193803 147.507822 
L 391.257224 153.063962 
L 391.384067 132.104132 
L 391.51091 170.487368 
L 391.574332 163.669388 
L 391.701175 146.497965 
L 391.764596 153.063962 
L 391.891439 134.123845 
L 392.145125 167.204851 
L 392.271968 158.619139 
L 392.462232 185.387093 
L 392.589075 152.558071 
L 392.715918 174.780706 
L 392.842761 141.194771 
L 392.969604 169.225527 
L 393.033026 157.609282 
L 393.096447 144.477289 
L 393.159869 148.517679 
L 393.350133 189.17454 
L 393.476976 168.467653 
L 393.540397 169.730457 
L 393.603819 173.770847 
L 393.66724 170.487368 
L 393.857505 154.073819 
L 393.920926 153.820874 
L 393.984348 141.447716 
L 394.047769 150.033428 
L 394.111191 175.033651 
L 394.174612 163.669388 
L 394.301455 115.942566 
L 394.364877 129.831471 
L 394.428298 122.002672 
L 394.49172 111.396283 
L 394.681984 136.901435 
L 394.745406 129.073596 
L 394.872248 160.38687 
L 394.93567 156.34648 
L 395.062513 142.204628 
L 395.189356 127.810794 
L 395.316199 144.225305 
L 395.37962 142.962503 
L 395.696728 130.083455 
L 395.886992 146.24502 
L 395.950414 159.881943 
L 396.013835 151.80116 
L 396.077257 132.356114 
L 396.140678 136.901435 
L 396.2041 152.306087 
L 396.267521 149.02357 
L 396.330942 149.275554 
L 396.457785 124.023349 
L 396.521207 127.810794 
L 396.584628 149.528499 
L 396.64805 144.730234 
L 396.711471 132.356114 
L 396.774893 139.679985 
L 396.838314 151.80116 
L 396.901736 145.235163 
L 396.965157 148.265697 
L 397.028579 159.377013 
L 397.218843 134.628774 
L 397.282265 135.386649 
L 397.345686 133.113988 
L 397.472529 156.598464 
L 397.599372 128.315723 
L 397.662794 138.164237 
L 397.853058 182.356559 
L 397.916479 174.528722 
L 398.106744 140.184914 
L 398.233587 159.124068 
L 398.36043 127.55881 
L 398.487273 162.406586 
L 398.487273 162.406586 
" clip-path="url(#pb17e80af72)" style="fill: none; stroke: #1f77b4; stroke-width: 1.5; stroke-linecap: square"/>
   </g>
   <g id="patch_3">
    <path d="M 57.6 307.584 
L 57.6 41.472 
" style="fill: none; stroke: #000000; stroke-width: 0.8; stroke-linejoin: miter; stroke-linecap: square"/>
   </g>
   <g id="patch_4">
    <path d="M 414.72 307.584 
L 414.72 41.472 
" style="fill: none; stroke: #000000; stroke-width: 0.8; stroke-linejoin: miter; stroke-linecap: square"/>
   </g>
   <g id="patch_5">
    <path d="M 57.6 307.584 
L 414.72 307.584 
" style="fill: none; stroke: #000000; stroke-width: 0.8; stroke-linejoin: miter; stroke-linecap: square"/>
   </g>
   <g id="patch_6">
    <path d="M 57.6 41.472 
L 414.72 41.472 
" style="fill: none; stroke: #000000; stroke-width: 0.8; stroke-linejoin: miter; stroke-linecap: square"/>
   </g>
   <g id="legend_1">
    <g id="patch_7">
     <path d="M 64.6 64.150125 
L 118.245312 64.150125 
Q 120.245312 64.150125 120.245312 62.150125 
L 120.245312 48.472 
Q 120.245312 46.472 118.245312 46.472 
L 64.6 46.472 
Q 62.6 46.472 62.6 48.472 
L 62.6 62.150125 
Q 62.6 64.150125 64.6 64.150125 
z
" style="fill: #ffffff; opacity: 0.8; stroke: #cccccc; stroke-linejoin: miter"/>
    </g>
    <g id="line2d_15">
     <path d="M 66.6 54.570438 
L 76.6 54.570438 
L 86.6 54.570438 
" style="fill: none; stroke: #1f77b4; stroke-width: 1.5; stroke-linecap: square"/>
    </g>
    <g id="text_14">
     <!-- set2 -->
     <g transform="translate(94.6 58.070438)scale(0.1 -0.1)">
      <defs>
       <path id="DejaVuSans-73" d="M 2834 3397 
L 2834 2853 
Q 2591 2978 2328 3040 
Q 2066 3103 1784 3103 
Q 1356 3103 1142 2972 
Q 928 2841 928 2578 
Q 928 2378 1081 2264 
Q 1234 2150 1697 2047 
L 1894 2003 
Q 2506 1872 2764 1633 
Q 3022 1394 3022 966 
Q 3022 478 2636 193 
Q 2250 -91 1575 -91 
Q 1294 -91 989 -36 
Q 684 19 347 128 
L 347 722 
Q 666 556 975 473 
Q 1284 391 1588 391 
Q 1994 391 2212 530 
Q 2431 669 2431 922 
Q 2431 1156 2273 1281 
Q 2116 1406 1581 1522 
L 1381 1569 
Q 847 1681 609 1914 
Q 372 2147 372 2553 
Q 372 3047 722 3315 
Q 1072 3584 1716 3584 
Q 2034 3584 2315 3537 
Q 2597 3491 2834 3397 
z
" transform="scale(0.015625)"/>
       <path id="DejaVuSans-65" d="M 3597 1894 
L 3597 1613 
L 953 1613 
Q 991 1019 1311 708 
Q 1631 397 2203 397 
Q 2534 397 2845 478 
Q 3156 559 3463 722 
L 3463 178 
Q 3153 47 2828 -22 
Q 2503 -91 2169 -91 
Q 1331 -91 842 396 
Q 353 884 353 1716 
Q 353 2575 817 3079 
Q 1281 3584 2069 3584 
Q 2775 3584 3186 3129 
Q 3597 2675 3597 1894 
z
M 3022 2063 
Q 3016 2534 2758 2815 
Q 2500 3097 2075 3097 
Q 1594 3097 1305 2825 
Q 1016 2553 972 2059 
L 3022 2063 
z
" transform="scale(0.015625)"/>
       <path id="DejaVuSans-74" d="M 1172 4494 
L 1172 3500 
L 2356 3500 
L 2356 3053 
L 1172 3053 
L 1172 1153 
Q 1172 725 1289 603 
Q 1406 481 1766 481 
L 2356 481 
L 2356 0 
L 1766 0 
Q 1100 0 847 248 
Q 594 497 594 1153 
L 594 3053 
L 172 3053 
L 172 3500 
L 594 3500 
L 594 4494 
L 1172 4494 
z
" transform="scale(0.015625)"/>
      </defs>
      <use xlink:href="#DejaVuSans-73"/>
      <use xlink:href="#DejaVuSans-65" x="52.099609"/>
      <use xlink:href="#DejaVuSans-74" x="113.623047"/>
      <use xlink:href="#DejaVuSans-32" x="152.832031"/>
     </g>
    </g>
   </g>
  </g>
 </g>
 <defs>
  <clipPath id="pb17e80af72">
   <rect x="57.6" y="41.472" width="357.12" height="266.112"/>
  </clipPath>
 </defs>
</svg>
