<?xml version="1.0" encoding="utf-8" standalone="no"?>
<!DOCTYPE svg PUBLIC "-//W3C//DTD SVG 1.1//EN"
  "http://www.w3.org/Graphics/SVG/1.1/DTD/svg11.dtd">
<svg xmlns:xlink="http://www.w3.org/1999/xlink" width="460.8pt" height="345.6pt" viewBox="0 0 460.8 345.6" xmlns="http://www.w3.org/2000/svg" version="1.1">
 <metadata>
  <rdf:RDF xmlns:dc="http://purl.org/dc/elements/1.1/" xmlns:cc="http://creativecommons.org/ns#" xmlns:rdf="http://www.w3.org/1999/02/22-rdf-syntax-ns#">
   <cc:Work>
    <dc:type rdf:resource="http://purl.org/dc/dcmitype/StillImage"/>
    <dc:date>2022-08-11T15:19:07.749070</dc:date>
    <dc:format>image/svg+xml</dc:format>
    <dc:creator>
     <cc:Agent>
      <dc:title>Matplotlib v3.5.2, https://matplotlib.org/</dc:title>
     </cc:Agent>
    </dc:creator>
   </cc:Work>
  </rdf:RDF>
 </metadata>
 <defs>
  <style type="text/css">*{stroke-linejoin: round; stroke-linecap: butt}</style>
 </defs>
 <g id="figure_1">
  <g id="patch_1">
   <path d="M 0 345.6 
L 460.8 345.6 
L 460.8 0 
L 0 0 
z
" style="fill: #ffffff"/>
  </g>
  <g id="axes_1">
   <g id="patch_2">
    <path d="M 57.6 307.584 
L 414.72 307.584 
L 414.72 41.472 
L 57.6 41.472 
z
" style="fill: #ffffff"/>
   </g>
   <g id="matplotlib.axis_1">
    <g id="xtick_1">
     <g id="line2d_1">
      <defs>
       <path id="m07111663a4" d="M 0 0 
L 0 3.5 
" style="stroke: #000000; stroke-width: 0.8"/>
      </defs>
      <g>
       <use xlink:href="#m07111663a4" x="73.832727" y="307.584" style="stroke: #000000; stroke-width: 0.8"/>
      </g>
     </g>
     <g id="text_1">
      <!-- 0 -->
      <g transform="translate(70.651477 322.182437)scale(0.1 -0.1)">
       <defs>
        <path id="DejaVuSans-30" d="M 2034 4250 
Q 1547 4250 1301 3770 
Q 1056 3291 1056 2328 
Q 1056 1369 1301 889 
Q 1547 409 2034 409 
Q 2525 409 2770 889 
Q 3016 1369 3016 2328 
Q 3016 3291 2770 3770 
Q 2525 4250 2034 4250 
z
M 2034 4750 
Q 2819 4750 3233 4129 
Q 3647 3509 3647 2328 
Q 3647 1150 3233 529 
Q 2819 -91 2034 -91 
Q 1250 -91 836 529 
Q 422 1150 422 2328 
Q 422 3509 836 4129 
Q 1250 4750 2034 4750 
z
" transform="scale(0.015625)"/>
       </defs>
       <use xlink:href="#DejaVuSans-30"/>
      </g>
     </g>
    </g>
    <g id="xtick_2">
     <g id="line2d_2">
      <g>
       <use xlink:href="#m07111663a4" x="137.254205" y="307.584" style="stroke: #000000; stroke-width: 0.8"/>
      </g>
     </g>
     <g id="text_2">
      <!-- 1000 -->
      <g transform="translate(124.529205 322.182437)scale(0.1 -0.1)">
       <defs>
        <path id="DejaVuSans-31" d="M 794 531 
L 1825 531 
L 1825 4091 
L 703 3866 
L 703 4441 
L 1819 4666 
L 2450 4666 
L 2450 531 
L 3481 531 
L 3481 0 
L 794 0 
L 794 531 
z
" transform="scale(0.015625)"/>
       </defs>
       <use xlink:href="#DejaVuSans-31"/>
       <use xlink:href="#DejaVuSans-30" x="63.623047"/>
       <use xlink:href="#DejaVuSans-30" x="127.246094"/>
       <use xlink:href="#DejaVuSans-30" x="190.869141"/>
      </g>
     </g>
    </g>
    <g id="xtick_3">
     <g id="line2d_3">
      <g>
       <use xlink:href="#m07111663a4" x="200.675683" y="307.584" style="stroke: #000000; stroke-width: 0.8"/>
      </g>
     </g>
     <g id="text_3">
      <!-- 2000 -->
      <g transform="translate(187.950683 322.182437)scale(0.1 -0.1)">
       <defs>
        <path id="DejaVuSans-32" d="M 1228 531 
L 3431 531 
L 3431 0 
L 469 0 
L 469 531 
Q 828 903 1448 1529 
Q 2069 2156 2228 2338 
Q 2531 2678 2651 2914 
Q 2772 3150 2772 3378 
Q 2772 3750 2511 3984 
Q 2250 4219 1831 4219 
Q 1534 4219 1204 4116 
Q 875 4013 500 3803 
L 500 4441 
Q 881 4594 1212 4672 
Q 1544 4750 1819 4750 
Q 2544 4750 2975 4387 
Q 3406 4025 3406 3419 
Q 3406 3131 3298 2873 
Q 3191 2616 2906 2266 
Q 2828 2175 2409 1742 
Q 1991 1309 1228 531 
z
" transform="scale(0.015625)"/>
       </defs>
       <use xlink:href="#DejaVuSans-32"/>
       <use xlink:href="#DejaVuSans-30" x="63.623047"/>
       <use xlink:href="#DejaVuSans-30" x="127.246094"/>
       <use xlink:href="#DejaVuSans-30" x="190.869141"/>
      </g>
     </g>
    </g>
    <g id="xtick_4">
     <g id="line2d_4">
      <g>
       <use xlink:href="#m07111663a4" x="264.097161" y="307.584" style="stroke: #000000; stroke-width: 0.8"/>
      </g>
     </g>
     <g id="text_4">
      <!-- 3000 -->
      <g transform="translate(251.372161 322.182437)scale(0.1 -0.1)">
       <defs>
        <path id="DejaVuSans-33" d="M 2597 2516 
Q 3050 2419 3304 2112 
Q 3559 1806 3559 1356 
Q 3559 666 3084 287 
Q 2609 -91 1734 -91 
Q 1441 -91 1130 -33 
Q 819 25 488 141 
L 488 750 
Q 750 597 1062 519 
Q 1375 441 1716 441 
Q 2309 441 2620 675 
Q 2931 909 2931 1356 
Q 2931 1769 2642 2001 
Q 2353 2234 1838 2234 
L 1294 2234 
L 1294 2753 
L 1863 2753 
Q 2328 2753 2575 2939 
Q 2822 3125 2822 3475 
Q 2822 3834 2567 4026 
Q 2313 4219 1838 4219 
Q 1578 4219 1281 4162 
Q 984 4106 628 3988 
L 628 4550 
Q 988 4650 1302 4700 
Q 1616 4750 1894 4750 
Q 2613 4750 3031 4423 
Q 3450 4097 3450 3541 
Q 3450 3153 3228 2886 
Q 3006 2619 2597 2516 
z
" transform="scale(0.015625)"/>
       </defs>
       <use xlink:href="#DejaVuSans-33"/>
       <use xlink:href="#DejaVuSans-30" x="63.623047"/>
       <use xlink:href="#DejaVuSans-30" x="127.246094"/>
       <use xlink:href="#DejaVuSans-30" x="190.869141"/>
      </g>
     </g>
    </g>
    <g id="xtick_5">
     <g id="line2d_5">
      <g>
       <use xlink:href="#m07111663a4" x="327.518639" y="307.584" style="stroke: #000000; stroke-width: 0.8"/>
      </g>
     </g>
     <g id="text_5">
      <!-- 4000 -->
      <g transform="translate(314.793639 322.182437)scale(0.1 -0.1)">
       <defs>
        <path id="DejaVuSans-34" d="M 2419 4116 
L 825 1625 
L 2419 1625 
L 2419 4116 
z
M 2253 4666 
L 3047 4666 
L 3047 1625 
L 3713 1625 
L 3713 1100 
L 3047 1100 
L 3047 0 
L 2419 0 
L 2419 1100 
L 313 1100 
L 313 1709 
L 2253 4666 
z
" transform="scale(0.015625)"/>
       </defs>
       <use xlink:href="#DejaVuSans-34"/>
       <use xlink:href="#DejaVuSans-30" x="63.623047"/>
       <use xlink:href="#DejaVuSans-30" x="127.246094"/>
       <use xlink:href="#DejaVuSans-30" x="190.869141"/>
      </g>
     </g>
    </g>
    <g id="xtick_6">
     <g id="line2d_6">
      <g>
       <use xlink:href="#m07111663a4" x="390.940117" y="307.584" style="stroke: #000000; stroke-width: 0.8"/>
      </g>
     </g>
     <g id="text_6">
      <!-- 5000 -->
      <g transform="translate(378.215117 322.182437)scale(0.1 -0.1)">
       <defs>
        <path id="DejaVuSans-35" d="M 691 4666 
L 3169 4666 
L 3169 4134 
L 1269 4134 
L 1269 2991 
Q 1406 3038 1543 3061 
Q 1681 3084 1819 3084 
Q 2600 3084 3056 2656 
Q 3513 2228 3513 1497 
Q 3513 744 3044 326 
Q 2575 -91 1722 -91 
Q 1428 -91 1123 -41 
Q 819 9 494 109 
L 494 744 
Q 775 591 1075 516 
Q 1375 441 1709 441 
Q 2250 441 2565 725 
Q 2881 1009 2881 1497 
Q 2881 1984 2565 2268 
Q 2250 2553 1709 2553 
Q 1456 2553 1204 2497 
Q 953 2441 691 2322 
L 691 4666 
z
" transform="scale(0.015625)"/>
       </defs>
       <use xlink:href="#DejaVuSans-35"/>
       <use xlink:href="#DejaVuSans-30" x="63.623047"/>
       <use xlink:href="#DejaVuSans-30" x="127.246094"/>
       <use xlink:href="#DejaVuSans-30" x="190.869141"/>
      </g>
     </g>
    </g>
   </g>
   <g id="matplotlib.axis_2">
    <g id="ytick_1">
     <g id="line2d_7">
      <defs>
       <path id="m8b0f85f4b5" d="M 0 0 
L -3.5 0 
" style="stroke: #000000; stroke-width: 0.8"/>
      </defs>
      <g>
       <use xlink:href="#m8b0f85f4b5" x="57.6" y="295.145339" style="stroke: #000000; stroke-width: 0.8"/>
      </g>
     </g>
     <g id="text_7">
      <!-- 3600 -->
      <g transform="translate(25.15 298.944558)scale(0.1 -0.1)">
       <defs>
        <path id="DejaVuSans-36" d="M 2113 2584 
Q 1688 2584 1439 2293 
Q 1191 2003 1191 1497 
Q 1191 994 1439 701 
Q 1688 409 2113 409 
Q 2538 409 2786 701 
Q 3034 994 3034 1497 
Q 3034 2003 2786 2293 
Q 2538 2584 2113 2584 
z
M 3366 4563 
L 3366 3988 
Q 3128 4100 2886 4159 
Q 2644 4219 2406 4219 
Q 1781 4219 1451 3797 
Q 1122 3375 1075 2522 
Q 1259 2794 1537 2939 
Q 1816 3084 2150 3084 
Q 2853 3084 3261 2657 
Q 3669 2231 3669 1497 
Q 3669 778 3244 343 
Q 2819 -91 2113 -91 
Q 1303 -91 875 529 
Q 447 1150 447 2328 
Q 447 3434 972 4092 
Q 1497 4750 2381 4750 
Q 2619 4750 2861 4703 
Q 3103 4656 3366 4563 
z
" transform="scale(0.015625)"/>
       </defs>
       <use xlink:href="#DejaVuSans-33"/>
       <use xlink:href="#DejaVuSans-36" x="63.623047"/>
       <use xlink:href="#DejaVuSans-30" x="127.246094"/>
       <use xlink:href="#DejaVuSans-30" x="190.869141"/>
      </g>
     </g>
    </g>
    <g id="ytick_2">
     <g id="line2d_8">
      <g>
       <use xlink:href="#m8b0f85f4b5" x="57.6" y="261.735718" style="stroke: #000000; stroke-width: 0.8"/>
      </g>
     </g>
     <g id="text_8">
      <!-- 3700 -->
      <g transform="translate(25.15 265.534936)scale(0.1 -0.1)">
       <defs>
        <path id="DejaVuSans-37" d="M 525 4666 
L 3525 4666 
L 3525 4397 
L 1831 0 
L 1172 0 
L 2766 4134 
L 525 4134 
L 525 4666 
z
" transform="scale(0.015625)"/>
       </defs>
       <use xlink:href="#DejaVuSans-33"/>
       <use xlink:href="#DejaVuSans-37" x="63.623047"/>
       <use xlink:href="#DejaVuSans-30" x="127.246094"/>
       <use xlink:href="#DejaVuSans-30" x="190.869141"/>
      </g>
     </g>
    </g>
    <g id="ytick_3">
     <g id="line2d_9">
      <g>
       <use xlink:href="#m8b0f85f4b5" x="57.6" y="228.326096" style="stroke: #000000; stroke-width: 0.8"/>
      </g>
     </g>
     <g id="text_9">
      <!-- 3800 -->
      <g transform="translate(25.15 232.125315)scale(0.1 -0.1)">
       <defs>
        <path id="DejaVuSans-38" d="M 2034 2216 
Q 1584 2216 1326 1975 
Q 1069 1734 1069 1313 
Q 1069 891 1326 650 
Q 1584 409 2034 409 
Q 2484 409 2743 651 
Q 3003 894 3003 1313 
Q 3003 1734 2745 1975 
Q 2488 2216 2034 2216 
z
M 1403 2484 
Q 997 2584 770 2862 
Q 544 3141 544 3541 
Q 544 4100 942 4425 
Q 1341 4750 2034 4750 
Q 2731 4750 3128 4425 
Q 3525 4100 3525 3541 
Q 3525 3141 3298 2862 
Q 3072 2584 2669 2484 
Q 3125 2378 3379 2068 
Q 3634 1759 3634 1313 
Q 3634 634 3220 271 
Q 2806 -91 2034 -91 
Q 1263 -91 848 271 
Q 434 634 434 1313 
Q 434 1759 690 2068 
Q 947 2378 1403 2484 
z
M 1172 3481 
Q 1172 3119 1398 2916 
Q 1625 2713 2034 2713 
Q 2441 2713 2670 2916 
Q 2900 3119 2900 3481 
Q 2900 3844 2670 4047 
Q 2441 4250 2034 4250 
Q 1625 4250 1398 4047 
Q 1172 3844 1172 3481 
z
" transform="scale(0.015625)"/>
       </defs>
       <use xlink:href="#DejaVuSans-33"/>
       <use xlink:href="#DejaVuSans-38" x="63.623047"/>
       <use xlink:href="#DejaVuSans-30" x="127.246094"/>
       <use xlink:href="#DejaVuSans-30" x="190.869141"/>
      </g>
     </g>
    </g>
    <g id="ytick_4">
     <g id="line2d_10">
      <g>
       <use xlink:href="#m8b0f85f4b5" x="57.6" y="194.916474" style="stroke: #000000; stroke-width: 0.8"/>
      </g>
     </g>
     <g id="text_10">
      <!-- 3900 -->
      <g transform="translate(25.15 198.715693)scale(0.1 -0.1)">
       <defs>
        <path id="DejaVuSans-39" d="M 703 97 
L 703 672 
Q 941 559 1184 500 
Q 1428 441 1663 441 
Q 2288 441 2617 861 
Q 2947 1281 2994 2138 
Q 2813 1869 2534 1725 
Q 2256 1581 1919 1581 
Q 1219 1581 811 2004 
Q 403 2428 403 3163 
Q 403 3881 828 4315 
Q 1253 4750 1959 4750 
Q 2769 4750 3195 4129 
Q 3622 3509 3622 2328 
Q 3622 1225 3098 567 
Q 2575 -91 1691 -91 
Q 1453 -91 1209 -44 
Q 966 3 703 97 
z
M 1959 2075 
Q 2384 2075 2632 2365 
Q 2881 2656 2881 3163 
Q 2881 3666 2632 3958 
Q 2384 4250 1959 4250 
Q 1534 4250 1286 3958 
Q 1038 3666 1038 3163 
Q 1038 2656 1286 2365 
Q 1534 2075 1959 2075 
z
" transform="scale(0.015625)"/>
       </defs>
       <use xlink:href="#DejaVuSans-33"/>
       <use xlink:href="#DejaVuSans-39" x="63.623047"/>
       <use xlink:href="#DejaVuSans-30" x="127.246094"/>
       <use xlink:href="#DejaVuSans-30" x="190.869141"/>
      </g>
     </g>
    </g>
    <g id="ytick_5">
     <g id="line2d_11">
      <g>
       <use xlink:href="#m8b0f85f4b5" x="57.6" y="161.506853" style="stroke: #000000; stroke-width: 0.8"/>
      </g>
     </g>
     <g id="text_11">
      <!-- 4000 -->
      <g transform="translate(25.15 165.306071)scale(0.1 -0.1)">
       <use xlink:href="#DejaVuSans-34"/>
       <use xlink:href="#DejaVuSans-30" x="63.623047"/>
       <use xlink:href="#DejaVuSans-30" x="127.246094"/>
       <use xlink:href="#DejaVuSans-30" x="190.869141"/>
      </g>
     </g>
    </g>
    <g id="ytick_6">
     <g id="line2d_12">
      <g>
       <use xlink:href="#m8b0f85f4b5" x="57.6" y="128.097231" style="stroke: #000000; stroke-width: 0.8"/>
      </g>
     </g>
     <g id="text_12">
      <!-- 4100 -->
      <g transform="translate(25.15 131.89645)scale(0.1 -0.1)">
       <use xlink:href="#DejaVuSans-34"/>
       <use xlink:href="#DejaVuSans-31" x="63.623047"/>
       <use xlink:href="#DejaVuSans-30" x="127.246094"/>
       <use xlink:href="#DejaVuSans-30" x="190.869141"/>
      </g>
     </g>
    </g>
    <g id="ytick_7">
     <g id="line2d_13">
      <g>
       <use xlink:href="#m8b0f85f4b5" x="57.6" y="94.687609" style="stroke: #000000; stroke-width: 0.8"/>
      </g>
     </g>
     <g id="text_13">
      <!-- 4200 -->
      <g transform="translate(25.15 98.486828)scale(0.1 -0.1)">
       <use xlink:href="#DejaVuSans-34"/>
       <use xlink:href="#DejaVuSans-32" x="63.623047"/>
       <use xlink:href="#DejaVuSans-30" x="127.246094"/>
       <use xlink:href="#DejaVuSans-30" x="190.869141"/>
      </g>
     </g>
    </g>
    <g id="ytick_8">
     <g id="line2d_14">
      <g>
       <use xlink:href="#m8b0f85f4b5" x="57.6" y="61.277988" style="stroke: #000000; stroke-width: 0.8"/>
      </g>
     </g>
     <g id="text_14">
      <!-- 4300 -->
      <g transform="translate(25.15 65.077207)scale(0.1 -0.1)">
       <use xlink:href="#DejaVuSans-34"/>
       <use xlink:href="#DejaVuSans-33" x="63.623047"/>
       <use xlink:href="#DejaVuSans-30" x="127.246094"/>
       <use xlink:href="#DejaVuSans-30" x="190.869141"/>
      </g>
     </g>
    </g>
   </g>
   <g id="line2d_15">
    <path d="M 73.832727 116.446767 
L 73.896149 116.36096 
L 74.022992 119.659181 
L 74.086413 118.759666 
L 74.149835 118.716762 
L 74.276678 120.173213 
L 74.530364 115.247414 
L 74.847471 116.660798 
L 74.974314 116.104025 
L 75.101157 120.044664 
L 75.164578 119.273698 
L 75.418264 115.076125 
L 75.481686 115.076125 
L 75.545107 115.290155 
L 75.608529 115.033221 
L 75.67195 115.3758 
L 75.735372 114.947576 
L 75.798793 113.662578 
L 75.862215 114.005157 
L 75.989058 115.889832 
L 76.052479 115.975476 
L 76.1159 117.945796 
L 76.179322 117.046281 
L 76.242743 114.990317 
L 76.306165 116.146929 
L 76.433008 117.431927 
L 76.559851 120.98692 
L 76.623272 120.558696 
L 76.686694 121.244017 
L 76.750115 120.944179 
L 76.876958 119.102408 
L 77.003801 114.17661 
L 77.130644 119.316438 
L 77.194066 118.97386 
L 77.257487 118.631117 
L 77.447752 114.604834 
L 77.511173 115.889832 
L 77.574594 116.146929 
L 77.638016 115.461608 
L 77.701437 116.232574 
L 77.82828 119.359342 
L 77.955123 118.202893 
L 78.081966 120.258857 
L 78.145388 120.215953 
L 78.208809 120.087568 
L 78.272231 120.130309 
L 78.462495 120.258857 
L 78.779603 122.957239 
L 78.906446 120.215953 
L 78.969867 120.729985 
L 79.033288 120.044664 
L 79.09671 120.087568 
L 79.160131 120.515792 
L 79.286974 118.417087 
L 79.413817 119.573536 
L 79.54066 117.303378 
L 79.604082 115.847091 
L 79.667503 116.061121 
L 79.857768 119.744826 
L 80.048032 117.00354 
L 80.174875 115.547253 
L 80.238297 116.532412 
L 80.301718 116.403864 
L 80.365139 116.061121 
L 80.428561 116.618057 
L 80.491982 116.446767 
L 80.682247 115.804187 
L 81.062776 125.099011 
L 81.189619 120.258857 
L 81.25304 120.344502 
L 81.316462 120.044664 
L 81.506726 115.461608 
L 81.570148 116.403864 
L 81.633569 116.746606 
L 81.823833 114.861931 
L 81.950676 115.847091 
L 82.077519 115.418704 
L 82.140941 116.01838 
L 82.267784 114.476448 
L 82.331205 115.247414 
L 82.394627 115.889832 
L 82.52147 115.033221 
L 82.584891 115.461608 
L 82.648313 115.418704 
L 82.711734 115.418704 
L 83.028842 120.301598 
L 83.092263 120.087568 
L 83.40937 113.919512 
L 83.472792 115.247414 
L 83.536213 115.589993 
L 83.599635 114.690478 
L 83.663056 114.819027 
L 83.853321 115.932736 
L 83.916742 115.632897 
L 83.980164 115.847091 
L 84.107007 115.889832 
L 84.23385 117.645957 
L 84.297271 116.104025 
L 84.360693 116.275315 
L 84.487536 120.473051 
L 84.614379 118.374183 
L 84.6778 119.359342 
L 84.741221 118.759666 
L 84.868064 115.675638 
L 84.994907 116.403864 
L 85.185172 114.433544 
L 85.248593 114.690478 
L 85.312015 114.562093 
L 85.375436 114.476448 
L 85.502279 114.690478 
L 85.692544 114.433544 
L 85.819387 115.118866 
L 86.009651 113.748223 
L 86.136494 110.150326 
L 86.199915 111.520969 
L 86.263337 111.221131 
L 86.326758 111.263871 
L 86.453601 114.304995 
L 86.580444 110.107422 
L 86.643866 111.435324 
L 86.707287 110.707099 
L 86.770709 110.664195 
L 86.897552 112.506129 
L 86.960973 111.820807 
L 87.087816 114.647738 
L 87.151238 113.234191 
L 87.214659 110.878389 
L 87.278081 112.506129 
L 87.341502 115.290155 
L 87.404924 114.519189 
L 87.468345 113.319836 
L 87.595188 115.20451 
L 87.785452 114.476448 
L 87.912295 115.547253 
L 87.975717 115.247414 
L 88.10256 114.17661 
L 88.229403 114.17661 
L 88.356246 114.476448 
L 88.419667 114.39064 
L 88.54651 115.16177 
L 88.609932 114.562093 
L 88.736775 115.589993 
L 88.800196 115.333059 
L 89.053882 115.675638 
L 89.180725 113.876771 
L 89.244146 114.262255 
L 89.434411 112.891612 
L 89.497832 111.435324 
L 89.624675 116.01838 
L 89.688097 115.118866 
L 89.751518 114.562093 
L 89.81494 116.104025 
L 89.878361 115.975476 
L 90.005204 114.947576 
L 90.132047 115.504349 
L 90.195469 115.20451 
L 90.25889 115.547253 
L 90.385733 113.876771 
L 90.449154 114.347899 
L 90.575997 115.16177 
L 90.70284 114.690478 
L 91.019948 116.789347 
L 91.083369 118.97386 
L 91.146791 118.888215 
L 91.273634 114.733382 
L 91.400477 118.674021 
L 91.463898 117.603217 
L 91.590741 115.504349 
L 91.654163 115.632897 
L 91.717584 116.489508 
L 91.781006 118.888215 
L 91.844427 118.374183 
L 91.907848 114.947576 
L 91.97127 115.118866 
L 92.161534 118.930956 
L 92.288377 119.659181 
L 92.351799 119.102408 
L 92.542063 114.819027 
L 92.668906 116.01838 
L 92.732328 115.975476 
L 92.859171 114.733382 
L 92.986014 117.860151 
L 93.049435 117.81741 
L 93.112857 117.860151 
L 93.176278 117.474668 
L 93.303121 115.333059 
L 93.366542 116.146929 
L 93.493385 114.562093 
L 93.620228 116.01838 
L 93.68365 115.504349 
L 93.810493 116.489508 
L 93.937336 114.647738 
L 94.000757 115.16177 
L 94.064179 114.861931 
L 94.1276 114.733382 
L 94.191022 115.290155 
L 94.254443 115.033221 
L 94.317865 114.947576 
L 94.381286 115.632897 
L 94.444708 115.461608 
L 94.508129 114.433544 
L 94.571551 115.16177 
L 94.761815 126.940782 
L 94.825236 126.555299 
L 95.015501 124.799173 
L 95.142344 120.130309 
L 95.269187 124.456431 
L 95.459451 119.616277 
L 95.586294 120.130309 
L 95.713137 123.299981 
L 95.776559 122.357562 
L 95.903402 119.78773 
L 95.966823 120.258857 
L 96.030245 120.044664 
L 96.093666 120.173213 
L 96.157087 120.687081 
L 96.220509 120.644341 
L 96.347352 120.301598 
L 96.410773 120.473051 
L 96.474195 120.344502 
L 96.537616 119.959019 
L 96.601038 120.087568 
L 96.791302 120.687081 
L 96.918145 119.359342 
L 96.981567 120.387243 
L 97.044988 120.173213 
L 97.171831 115.20451 
L 97.362096 118.545472 
L 97.488939 118.674021 
L 97.615781 120.98692 
L 97.742624 118.117249 
L 97.869467 120.430147 
L 97.932889 119.188053 
L 97.99631 120.00176 
L 98.059732 119.444987 
L 98.123153 115.418704 
L 98.186575 115.632897 
L 98.249996 115.418704 
L 98.440261 120.644341 
L 98.503682 119.188053 
L 98.82079 121.072564 
L 98.947633 125.869977 
L 99.011054 125.827073 
L 99.074475 125.570139 
L 99.137897 125.955622 
L 99.201318 125.655784 
L 99.328161 123.728205 
L 99.455004 124.884818 
L 99.518426 124.884818 
L 99.581847 125.313042 
L 99.70869 123.771109 
L 99.772112 125.741428 
L 99.835533 125.184656 
L 99.962376 120.301598 
L 100.152641 124.242237 
L 100.216062 123.471271 
L 100.406327 119.616277 
L 100.469748 118.716762 
L 100.596591 121.029824 
L 100.723434 120.644341 
L 100.786855 120.944179 
L 100.850277 120.901275 
L 100.913698 120.901275 
L 100.97712 120.729985 
L 101.040541 120.901275 
L 101.103963 120.858534 
L 101.294227 120.00176 
L 101.357649 120.087568 
L 101.484492 121.244017 
L 101.547913 119.573536 
L 101.611335 120.301598 
L 101.801599 125.099011 
L 101.865021 125.741428 
L 101.928442 125.484494 
L 101.991863 125.184656 
L 102.055285 125.570139 
L 102.118706 125.527235 
L 102.182128 125.184656 
L 102.245549 125.313042 
L 102.308971 125.270301 
L 102.435814 126.512395 
L 102.499235 126.041267 
L 102.562657 125.44159 
L 102.6895 126.212557 
L 102.752921 125.270301 
L 102.879764 126.983523 
L 103.006607 125.313042 
L 103.070029 125.355946 
L 103.13345 125.227397 
L 103.5774 132.937303 
L 103.704243 130.752872 
L 103.767665 131.095532 
L 103.831086 131.738032 
L 103.894508 131.56666 
L 104.084772 130.838517 
L 104.148194 130.281744 
L 104.211615 130.410211 
L 104.338458 133.665529 
L 104.465301 131.181177 
L 104.528723 132.380531 
L 104.592144 131.866499 
L 104.718987 130.795694 
L 104.909251 132.03787 
L 105.036094 131.309726 
L 105.099516 131.609564 
L 105.162937 132.166337 
L 105.28978 131.05271 
L 105.353202 131.56666 
L 105.416623 132.080692 
L 105.543466 131.095532 
L 105.606888 131.309726 
L 105.733731 130.538678 
L 105.923995 131.56666 
L 105.987417 132.123515 
L 106.11426 130.71005 
L 106.177681 131.138355 
L 106.241102 131.909321 
L 106.304524 108.715409 
L 106.367945 108.751135 
L 106.494788 108.822424 
L 106.55821 109.336456 
L 106.621631 108.008554 
L 106.685053 108.693876 
L 106.811896 105.824204 
L 106.875317 107.494685 
L 106.938739 109.978874 
L 107.00216 109.636294 
L 107.065582 109.379197 
L 107.192425 110.407261 
L 107.319268 109.721939 
L 107.382689 109.807584 
L 107.509532 110.278712 
L 107.572954 109.465005 
L 107.636375 109.507746 
L 107.763218 110.535809 
L 107.826639 110.364357 
L 107.953482 111.221131 
L 108.080325 110.064681 
L 108.207168 110.878389 
L 108.334011 109.465005 
L 108.524276 114.090965 
L 108.651119 111.263871 
L 108.71454 111.520969 
L 108.777962 111.006937 
L 109.095069 114.433544 
L 109.221912 112.720159 
L 109.285333 113.234191 
L 109.412176 111.135486 
L 109.475598 111.263871 
L 109.729284 109.679035 
L 109.856127 110.064681 
L 109.919548 109.636294 
L 109.98297 109.764843 
L 110.109813 110.707099 
L 110.363499 109.764843 
L 110.42692 109.807584 
L 110.553763 110.150326 
L 110.617184 110.150326 
L 110.744027 109.422101 
L 110.87087 109.850488 
L 110.934292 109.679035 
L 110.997713 109.465005 
L 111.061135 109.59339 
L 111.124556 109.55065 
L 111.187978 109.679035 
L 111.251399 108.908069 
L 111.314821 108.950973 
L 111.69535 131.695209 
L 111.758771 131.395371 
L 111.949036 129.981906 
L 112.075878 131.952225 
L 112.202721 131.780854 
L 112.329564 127.454814 
L 112.392986 125.655784 
L 112.456407 125.869977 
L 112.58325 125.141752 
L 112.646672 125.484494 
L 112.773515 124.413527 
L 113.027201 125.998363 
L 113.154044 123.771109 
L 113.280887 121.458211 
L 113.407729 122.828853 
L 113.471151 122.700305 
L 113.85168 118.545472 
L 113.915101 120.772889 
L 113.978523 120.344502 
L 114.105366 114.476448 
L 114.168787 115.547253 
L 114.232209 115.804187 
L 114.422473 112.805967 
L 114.485895 114.861931 
L 114.549316 114.17661 
L 114.612738 113.319836 
L 114.803002 116.403864 
L 114.866423 115.118866 
L 114.929845 115.504349 
L 114.993266 114.861931 
L 115.120109 112.420484 
L 115.183531 114.304995 
L 115.246952 113.062901 
L 115.310374 111.135486 
L 115.437217 115.118866 
L 115.500638 114.17661 
L 115.56406 113.405644 
L 115.690903 116.403864 
L 115.944589 113.662578 
L 116.071432 109.978874 
L 116.134853 110.707099 
L 116.198275 110.450164 
L 116.261696 110.407261 
L 116.388539 108.051458 
L 116.45196 109.079522 
L 116.705646 116.232574 
L 116.832489 110.107422 
L 116.959332 114.904672 
L 117.022754 113.876771 
L 117.27644 120.387243 
L 117.339861 119.701922 
L 117.593547 108.865328 
L 117.847233 114.562093 
L 118.037497 108.779683 
L 118.16434 111.006937 
L 118.227762 110.364357 
L 118.291183 111.135486 
L 118.418026 115.20451 
L 118.481448 114.690478 
L 118.544869 114.690478 
L 118.798555 115.804187 
L 118.925398 116.275315 
L 118.98882 115.761446 
L 119.052241 115.932736 
L 119.242505 120.601437 
L 119.305927 120.601437 
L 119.43277 120.173213 
L 119.496191 120.344502 
L 119.623034 117.560313 
L 119.686456 119.744826 
L 119.813299 114.39064 
L 119.87672 115.290155 
L 119.940142 116.318219 
L 120.003563 115.418704 
L 120.066985 115.975476 
L 120.193828 116.917895 
L 120.257249 115.847091 
L 120.320671 116.01838 
L 120.447514 120.473051 
L 120.574356 114.048061 
L 120.637778 116.18967 
L 120.701199 115.033221 
L 120.764621 113.062901 
L 120.828042 114.005157 
L 120.891464 114.219351 
L 121.081728 113.277095 
L 121.14515 113.791127 
L 121.335414 116.104025 
L 121.525679 117.346119 
L 121.715943 119.530632 
L 121.842786 119.059504 
L 121.906208 119.102408 
L 122.096472 114.433544 
L 122.159893 115.932736 
L 122.223315 116.660798 
L 122.286736 116.446767 
L 122.350158 115.632897 
L 122.413579 115.761446 
L 122.603844 120.81563 
L 122.85753 118.417087 
L 122.920951 119.230794 
L 122.984373 120.901275 
L 123.047794 120.087568 
L 123.174637 115.932736 
L 123.555166 124.327882 
L 123.618587 124.028043 
L 123.808852 121.158372 
L 123.872273 121.500952 
L 124.062538 114.090965 
L 124.125959 116.275315 
L 124.189381 115.675638 
L 124.252802 115.247414 
L 124.633331 120.173213 
L 124.760174 117.688861 
L 124.823596 118.716762 
L 124.887017 119.316438 
L 124.950438 119.188053 
L 125.01386 119.359342 
L 125.140703 120.858534 
L 125.267546 119.359342 
L 125.330967 119.573536 
L 125.774918 110.064681 
L 125.901761 110.193067 
L 125.965182 108.993714 
L 126.092025 111.520969 
L 126.218868 109.850488 
L 126.28229 110.278712 
L 126.472554 112.463225 
L 126.789661 107.623071 
L 127.043347 111.178227 
L 127.17019 115.547253 
L 127.233612 115.290155 
L 127.487298 120.644341 
L 127.550719 120.601437 
L 127.614141 120.044664 
L 127.677562 120.258857 
L 127.740984 120.215953 
L 127.804405 119.230794 
L 127.931248 122.143532 
L 128.058091 120.601437 
L 128.184934 124.713365 
L 128.311777 122.957239 
L 128.43862 124.841914 
L 128.502041 124.713365 
L 128.692306 121.6295 
L 128.755727 121.672241 
L 129.072835 125.013203 
L 129.136256 124.242237 
L 129.32652 126.769492 
L 129.453363 125.869977 
L 129.580206 128.22578 
L 129.707049 125.056107 
L 129.770471 125.270301 
L 129.897314 122.871594 
L 129.960735 123.985303 
L 130.024157 123.728205 
L 130.087578 123.042884 
L 130.214421 127.069168 
L 130.277843 125.741428 
L 130.341264 125.270301 
L 130.468107 129.553519 
L 130.658371 121.672241 
L 130.721793 123.42853 
L 130.785214 122.271918 
L 130.975479 120.644341 
L 131.0389 121.072564 
L 131.102322 121.115468 
L 131.165743 121.715145 
L 131.292586 124.327882 
L 131.356008 121.886435 
L 131.419429 122.914498 
L 131.482851 124.970462 
L 131.546272 123.771109 
L 131.609694 123.556916 
L 131.673115 125.61288 
L 131.736537 125.398687 
L 131.86338 120.515792 
L 131.926801 121.158372 
L 132.053644 123.342722 
L 132.243908 120.258857 
L 132.370751 122.271918 
L 132.434173 121.758049 
L 132.561016 119.959019 
L 132.814702 122.100628 
L 132.878123 121.6295 
L 132.941545 121.758049 
L 133.004966 122.44337 
L 133.131809 114.690478 
L 133.195231 116.36096 
L 133.258652 118.159989 
L 133.322074 116.832251 
L 133.448917 114.861931 
L 133.575759 120.173213 
L 133.639181 119.830471 
L 133.892867 115.247414 
L 133.956288 115.547253 
L 134.083131 114.17661 
L 134.209974 116.01838 
L 134.336817 115.547253 
L 134.400239 116.01838 
L 134.717346 113.36274 
L 134.907611 116.18967 
L 135.288139 109.850488 
L 135.414982 114.090965 
L 135.478404 113.919512 
L 135.541825 112.120645 
L 135.668668 115.461608 
L 135.73209 113.491289 
L 135.795511 113.705319 
L 135.858933 115.504349 
L 136.049197 108.908069 
L 136.112619 110.193067 
L 136.302883 115.718542 
L 136.429726 111.092582 
L 136.493147 111.949193 
L 136.556569 114.604834 
L 136.61999 113.705319 
L 136.683412 113.148546 
L 136.746833 115.333059 
L 136.810255 114.604834 
L 136.873676 112.634514 
L 136.937098 112.977256 
L 137.127362 115.290155 
L 137.190784 115.247414 
L 137.317627 116.18967 
L 137.381048 116.104025 
L 137.44447 115.547253 
L 137.507891 115.804187 
L 137.571313 115.847091 
L 137.824998 113.105805 
L 137.951841 115.076125 
L 138.078684 113.277095 
L 138.205527 117.645957 
L 138.33237 114.647738 
L 138.459213 116.01838 
L 138.522635 115.333059 
L 138.586056 116.532412 
L 138.649478 115.547253 
L 138.712899 110.364357 
L 138.776321 130.881339 
L 138.839742 130.752872 
L 138.903164 130.752872 
L 139.030007 134.993349 
L 139.093428 132.937303 
L 139.15685 133.322868 
L 139.220271 134.607784 
L 139.283692 134.051012 
L 139.347114 134.564962 
L 139.537378 139.662132 
L 139.6008 139.747776 
L 139.727643 140.518742 
L 139.917907 136.149798 
L 139.981329 137.092136 
L 140.04475 136.792297 
L 140.108172 136.749475 
L 140.171593 137.434796 
L 140.298436 135.635848 
L 140.425279 135.67867 
L 140.552122 130.538678 
L 140.615544 130.967065 
L 140.805808 132.594643 
L 141.059494 125.056107 
L 141.186337 129.339325 
L 141.249758 128.911101 
L 141.376601 131.523838 
L 141.503444 129.896179 
L 141.630287 130.324566 
L 141.75713 129.296584 
L 141.947395 131.481016 
L 142.074238 134.650688 
L 142.137659 133.237141 
L 142.391345 137.520441 
L 142.454766 138.462778 
L 142.518188 138.077295 
L 142.581609 137.905924 
L 142.645031 138.97681 
L 142.708452 138.933906 
L 142.835295 136.877942 
L 142.898717 137.17778 
L 142.962138 136.66383 
L 143.088981 139.019633 
L 143.215824 135.892782 
L 143.279246 136.406814 
L 143.406089 134.35085 
L 143.46951 135.550122 
L 143.532932 134.993349 
L 143.659774 130.324566 
L 143.723196 131.309726 
L 143.976882 137.092136 
L 144.103725 137.64899 
L 144.167146 139.362293 
L 144.230568 138.762617 
L 144.357411 134.607784 
L 144.484254 135.978509 
L 144.73794 129.853357 
L 144.801361 130.838517 
L 144.928204 134.564962 
L 144.991625 132.723191 
L 145.055047 133.751173 
L 145.118468 133.494158 
L 145.245311 128.654004 
L 145.308733 129.25368 
L 145.372154 127.968682 
L 145.435576 128.611263 
L 145.498997 131.095532 
L 145.562419 130.281744 
L 145.62584 128.482714 
L 145.689262 129.72489 
L 145.752683 131.738032 
L 145.816105 130.453034 
L 145.879526 129.296584 
L 146.006369 132.680369 
L 146.133212 130.624405 
L 146.196634 131.309726 
L 146.260055 130.881339 
L 146.323477 131.009888 
L 146.513741 135.764315 
L 146.767427 134.179479 
L 146.830848 134.179479 
L 146.957691 111.349516 
L 147.084534 110.750003 
L 147.147956 111.092582 
L 147.211377 110.921292 
L 147.274799 110.878389 
L 147.401642 109.807584 
L 147.718749 116.832251 
L 147.782171 116.618057 
L 147.909013 114.733382 
L 147.972435 115.033221 
L 148.035856 114.562093 
L 148.162699 110.193067 
L 148.226121 111.178227 
L 148.289542 113.748223 
L 148.352964 113.19145 
L 148.416385 113.19145 
L 148.479807 114.347899 
L 148.543228 114.090965 
L 148.60665 113.919512 
L 148.860336 109.636294 
L 148.923757 110.450164 
L 149.0506 116.18967 
L 149.177443 113.962416 
L 149.304286 115.333059 
L 149.367707 115.20451 
L 149.431129 115.3758 
L 149.621393 120.301598 
L 149.684815 119.959019 
L 149.811658 116.618057 
L 149.875079 118.202893 
L 149.938501 117.260475 
L 150.001922 115.333059 
L 150.065344 115.804187 
L 150.128765 115.889832 
L 150.31903 110.150326 
L 150.382451 111.906452 
L 150.445873 111.478065 
L 150.509294 110.535809 
L 150.572716 111.39242 
L 150.636137 110.792744 
L 150.699559 111.56371 
L 150.76298 113.791127 
L 150.889823 110.921292 
L 150.953244 114.219351 
L 151.016666 113.876771 
L 151.080087 110.150326 
L 151.143509 110.57855 
L 151.20693 111.692259 
L 151.333773 107.151943 
L 151.460616 109.465005 
L 151.587459 105.224528 
L 151.650881 105.824204 
L 151.714302 105.438721 
L 151.841145 102.825821 
L 151.904567 103.468402 
L 152.221674 116.703702 
L 152.285095 116.660798 
L 152.348517 116.146929 
L 152.411938 116.318219 
L 152.47536 116.789347 
L 152.538781 115.761446 
L 152.602203 116.318219 
L 152.729046 121.500952 
L 152.855889 118.331279 
L 152.982732 114.947576 
L 153.046153 115.076125 
L 153.236418 113.833867 
L 153.299839 113.19145 
L 153.616946 120.044664 
L 153.743789 116.146929 
L 153.807211 116.18967 
L 153.870632 115.932736 
L 153.997475 122.057724 
L 154.124318 118.031441 
L 154.18774 120.044664 
L 154.251161 118.845311 
L 154.378004 114.819027 
L 154.441426 116.532412 
L 154.504847 116.275315 
L 154.568269 116.318219 
L 154.63169 116.575153 
L 154.758533 113.791127 
L 154.821955 115.418704 
L 154.885376 114.304995 
L 154.948798 110.450164 
L 155.139062 115.761446 
L 155.202483 115.847091 
L 155.265905 116.618057 
L 155.392748 120.387243 
L 155.646434 114.347899 
L 155.773277 114.776286 
L 156.090384 115.632897 
L 156.153806 115.547253 
L 156.280649 117.9887 
L 156.407492 115.547253 
L 156.534334 117.089185 
L 156.661177 115.20451 
L 156.851442 116.318219 
L 156.978285 113.019997 
L 157.041706 114.133706 
L 157.295392 119.659181 
L 157.422235 117.945796 
L 157.866186 129.296584 
L 158.119871 121.80079 
L 158.183293 119.145149 
L 158.310136 126.298201 
L 158.373557 125.398687 
L 158.5004 125.184656 
L 158.627243 119.744826 
L 158.754086 121.372403 
L 158.817508 121.286758 
L 159.007772 124.927558 
L 159.198037 128.097231 
L 159.451722 135.250283 
L 159.515144 136.449636 
L 159.578565 135.550122 
L 159.641987 135.764315 
L 159.832251 141.632451 
L 159.895673 141.332613 
L 159.959094 142.060756 
L 160.149359 139.062455 
L 160.21278 139.576405 
L 160.276202 140.904226 
L 160.339623 140.047615 
L 160.466466 135.764315 
L 160.529888 136.877942 
L 160.593309 136.792297 
L 160.656731 135.935605 
L 160.720152 136.449636 
L 160.783573 136.963668 
L 160.910416 135.764315 
L 161.037259 140.090437 
L 161.100681 139.190922 
L 161.164102 138.719794 
L 161.290945 139.876244 
L 161.354367 139.876244 
L 161.417788 140.647291 
L 161.48121 140.133259 
L 161.544631 140.561565 
L 161.608053 141.975111 
L 161.734896 138.891084 
L 161.798317 139.1481 
L 162.559375 142.660433 
L 162.686218 139.662132 
L 162.876482 145.27317 
L 162.939904 144.716397 
L 163.003325 143.859704 
L 163.066747 145.744379 
L 163.130168 120.687081 
L 163.19359 120.729985 
L 163.257011 120.944179 
L 163.320433 120.729985 
L 163.447276 118.074345 
L 163.510697 119.616277 
L 163.574119 118.888215 
L 163.700961 115.504349 
L 163.764383 115.889832 
L 163.827804 115.804187 
L 164.08149 120.944179 
L 164.144912 121.115468 
L 164.271755 120.344502 
L 164.398598 119.230794 
L 164.462019 119.701922 
L 164.588862 111.221131 
L 164.652284 111.820807 
L 164.715705 113.491289 
L 164.842548 110.621454 
L 164.969391 115.3758 
L 165.032813 114.861931 
L 165.096234 113.833867 
L 165.159655 114.133706 
L 165.286498 115.632897 
L 165.413341 114.604834 
L 165.540184 115.847091 
L 165.603606 115.118866 
L 165.730449 119.145149 
L 165.857292 115.333059 
L 165.920713 115.718542 
L 165.984135 115.718542 
L 166.110978 114.262255 
L 166.174399 114.733382 
L 166.364664 109.679035 
L 166.428085 110.278712 
L 166.554928 109.250811 
L 166.681771 110.278712 
L 166.808614 106.166784 
L 166.935457 109.59339 
L 166.998878 108.351296 
L 167.0623 109.079522 
L 167.125721 108.865328 
L 167.252564 104.282109 
L 167.315986 104.496303 
L 167.442829 100.727116 
L 167.569672 104.796141 
L 167.633093 104.453562 
L 167.696515 104.667592 
L 167.823358 100.17018 
L 167.950201 104.839045 
L 168.013622 103.425498 
L 168.077043 102.397597 
L 168.330729 108.008554 
L 168.584415 122.529015 
L 168.647837 123.171433 
L 168.77468 126.512395 
L 168.838101 125.355946 
L 168.901523 125.484494 
L 168.964944 125.527235 
L 169.028366 124.970462 
L 169.155209 126.469654 
L 169.345473 120.729985 
L 169.408894 121.886435 
L 169.472316 121.201113 
L 169.535737 120.473051 
L 169.66258 121.244017 
L 169.852845 120.044664 
L 169.979688 121.715145 
L 170.106531 120.473051 
L 170.169952 120.901275 
L 170.233374 120.729985 
L 170.677324 113.833867 
L 170.740746 113.448385 
L 170.867588 114.861931 
L 170.93101 113.748223 
L 171.057853 115.418704 
L 171.184696 114.133706 
L 171.311539 126.469654 
L 171.37496 126.041267 
L 171.501803 127.369006 
L 171.565225 125.570139 
L 171.628646 125.741428 
L 171.755489 126.42675 
L 171.818911 126.383846 
L 171.882332 125.955622 
L 171.945754 126.212557 
L 172.262861 131.652387 
L 172.706811 125.013203 
L 172.833654 126.298201 
L 172.897076 125.099011 
L 172.960497 125.313042 
L 173.023919 125.741428 
L 173.150762 121.886435 
L 173.341026 125.912718 
L 173.467869 125.270301 
L 173.594712 126.812233 
L 173.721555 119.959019 
L 173.848398 123.128692 
L 173.911819 120.858534 
L 173.975241 120.901275 
L 174.038662 120.729985 
L 174.102084 121.286758 
L 174.228927 125.355946 
L 174.482613 119.659181 
L 174.546034 119.744826 
L 174.672877 118.459828 
L 174.79972 120.044664 
L 174.863142 119.573536 
L 174.926563 120.173213 
L 174.989985 120.00176 
L 175.116828 116.703702 
L 175.180249 117.603217 
L 175.307092 115.033221 
L 175.560778 119.959019 
L 175.624199 118.888215 
L 175.751042 114.562093 
L 175.814464 115.547253 
L 175.877885 115.418704 
L 175.941307 114.604834 
L 176.004728 114.690478 
L 176.06815 114.861931 
L 176.194993 115.461608 
L 176.321836 113.662578 
L 176.448679 116.789347 
L 176.575521 113.19145 
L 176.638943 110.364357 
L 176.702364 110.407261 
L 176.829207 116.403864 
L 176.892629 115.889832 
L 176.95605 115.804187 
L 177.082893 114.647738 
L 177.146315 115.290155 
L 177.209736 115.033221 
L 177.273158 114.690478 
L 177.400001 116.104025 
L 177.526844 114.776286 
L 177.78053 116.789347 
L 177.843951 115.718542 
L 177.907373 116.146929 
L 177.970794 119.0166 
L 178.034215 118.545472 
L 178.097637 116.703702 
L 178.161058 117.81741 
L 178.22448 117.603217 
L 178.287901 115.247414 
L 178.351323 115.333059 
L 178.541587 118.845311 
L 178.605009 117.945796 
L 178.66843 117.774506 
L 178.795273 121.886435 
L 178.858695 119.78773 
L 178.922116 119.959019 
L 179.048959 123.985303 
L 179.302645 114.990317 
L 179.429488 136.363992 
L 179.619752 141.503902 
L 179.683174 140.989952 
L 179.746595 141.032774 
L 179.810017 140.904226 
L 180.127124 151.22695 
L 180.253967 151.055661 
L 180.317389 152.297755 
L 180.38081 151.526789 
L 180.507653 147.671876 
L 180.571075 148.185827 
L 180.697918 150.198968 
L 181.078446 141.418257 
L 181.141868 140.775758 
L 181.332132 142.103579 
L 181.395554 142.403417 
L 181.712661 135.464477 
L 181.776083 135.550122 
L 182.029769 136.83512 
L 182.283455 135.592944 
L 182.410297 136.492459 
L 182.53714 134.8648 
L 182.600562 136.406814 
L 182.663983 135.935605 
L 182.727405 134.093834 
L 182.854248 139.276567 
L 182.981091 141.118419 
L 183.044512 141.246886 
L 183.171355 136.920764 
L 183.234777 137.863102 
L 183.298198 139.49076 
L 183.36162 138.334311 
L 183.488463 136.021331 
L 183.742149 137.734634 
L 183.80557 138.848261 
L 183.932413 134.993349 
L 183.995834 136.578104 
L 184.059256 135.592944 
L 184.122677 132.423353 
L 184.186099 132.723191 
L 184.376363 134.950526 
L 184.630049 141.846563 
L 184.693471 140.947048 
L 184.820314 141.975111 
L 184.947157 138.933906 
L 185.010578 138.97681 
L 185.137421 140.775758 
L 185.327685 138.120118 
L 185.51795 143.345754 
L 185.644793 142.617529 
L 185.708214 142.489062 
L 185.898479 140.090437 
L 185.9619 139.405115 
L 186.088743 142.060756 
L 186.152165 141.503902 
L 186.215586 140.347453 
L 186.279008 140.947048 
L 186.342429 142.403417 
L 186.405851 141.846563 
L 186.469272 140.518742 
L 186.532694 140.604387 
L 186.596115 140.732936 
L 186.659536 140.347453 
L 186.722958 141.075597 
L 186.849801 136.83512 
L 186.913222 137.349151 
L 187.166908 141.632451 
L 187.293751 139.1481 
L 187.357173 139.405115 
L 187.420594 140.818581 
L 187.547437 115.4758 
L 187.67428 115.418704 
L 187.927966 114.690478 
L 187.991388 113.833867 
L 188.054809 114.090965 
L 188.181652 119.273698 
L 188.245073 117.645957 
L 188.308495 118.202893 
L 188.371916 120.858534 
L 188.435338 120.215953 
L 188.498759 118.374183 
L 188.562181 119.0166 
L 188.625602 120.130309 
L 188.689024 119.916115 
L 188.815867 116.489508 
L 188.94271 120.858534 
L 189.006131 119.230794 
L 189.069553 120.130309 
L 189.132974 121.244017 
L 189.196396 120.687081 
L 189.513503 117.945796 
L 189.640346 122.186273 
L 189.767189 120.515792 
L 189.83061 120.81563 
L 189.894032 120.729985 
L 190.084296 121.80079 
L 190.274561 125.527235 
L 190.337982 124.113851 
L 190.401404 124.327882 
L 190.464825 124.927558 
L 190.591668 123.685464 
L 190.718511 121.072564 
L 190.781933 122.314822 
L 190.845354 122.229177 
L 190.908776 122.143532 
L 191.035618 126.983523 
L 191.09904 125.955622 
L 191.162461 125.955622 
L 191.289304 129.210939 
L 191.416147 125.655784 
L 191.479569 125.955622 
L 191.54299 125.912718 
L 191.669833 125.227397 
L 191.733255 125.44159 
L 191.796676 126.212557 
L 191.923519 123.685464 
L 191.986941 124.713365 
L 192.494312 115.804187 
L 192.81142 132.637547 
L 192.938263 130.581501 
L 193.001684 131.138355 
L 193.065106 131.609564 
L 193.191949 130.453034 
L 193.318792 136.578104 
L 193.382213 134.821978 
L 193.572478 129.596341 
L 193.635899 129.125295 
L 193.889585 125.056107 
L 193.953006 124.499335 
L 194.079849 126.855137 
L 194.143271 126.341105 
L 194.270114 127.968682 
L 194.396957 125.056107 
L 194.650643 126.169816 
L 194.840907 124.070947 
L 194.96775 121.158372 
L 195.031172 121.758049 
L 195.094593 121.586596 
L 195.284857 119.0166 
L 195.348279 116.660798 
L 195.4117 117.9887 
L 195.475122 117.517572 
L 195.538543 114.819027 
L 195.665386 120.130309 
L 195.728808 120.258857 
L 195.855651 120.729985 
L 195.982494 120.687081 
L 196.172758 119.059504 
L 196.299601 114.990317 
L 196.426444 117.346119 
L 196.553287 116.061121 
L 196.616709 116.789347 
L 196.68013 116.403864 
L 196.743551 116.36096 
L 196.870394 120.901275 
L 196.933816 120.130309 
L 197.060659 118.716762 
L 197.187502 115.3758 
L 197.250923 115.675638 
L 197.377766 115.3758 
L 197.441188 115.461608 
L 197.568031 113.791127 
L 197.758295 116.575153 
L 197.885138 120.344502 
L 198.011981 114.904672 
L 198.138824 119.616277 
L 198.202245 119.487891 
L 198.265667 119.659181 
L 198.39251 121.115468 
L 198.455931 120.772889 
L 198.519353 121.372403 
L 198.582774 120.215953 
L 198.709617 114.219351 
L 198.773039 114.39064 
L 198.899882 116.703702 
L 198.963303 116.446767 
L 199.153568 113.619674 
L 199.216989 111.221131 
L 199.280411 112.720159 
L 199.343832 115.076125 
L 199.407254 114.604834 
L 199.470675 113.962416 
L 199.597518 115.290155 
L 199.724361 114.476448 
L 199.787782 114.604834 
L 200.041468 115.932736 
L 200.168311 114.562093 
L 200.231733 115.247414 
L 200.485419 117.603217 
L 200.802526 114.090965 
L 200.865948 114.262255 
L 200.929369 114.005157 
L 201.056212 110.064681 
L 201.119633 110.964033 
L 201.183055 111.049678 
L 201.246476 110.064681 
L 201.309898 110.792744 
L 201.373319 111.049678 
L 201.436741 109.978874 
L 201.500162 110.964033 
L 201.627005 114.947576 
L 201.753848 110.107422 
L 201.81727 111.092582 
L 201.880691 111.263871 
L 201.944113 109.893229 
L 202.007534 109.936133 
L 202.197799 110.964033 
L 202.324642 109.764843 
L 202.388063 110.364357 
L 202.578327 111.263871 
L 202.641749 110.750003 
L 202.70517 111.606614 
L 202.832013 114.647738 
L 202.895435 113.876771 
L 202.958856 114.304995 
L 203.022278 114.476448 
L 203.149121 113.234191 
L 203.275964 109.850488 
L 203.339385 110.450164 
L 203.466228 114.861931 
L 203.593071 110.407261 
L 203.783336 116.575153 
L 203.910178 117.217734 
L 204.037021 115.290155 
L 204.163864 116.403864 
L 204.227286 115.547253 
L 204.290707 115.632897 
L 204.354129 115.461608 
L 204.41755 115.632897 
L 204.607815 120.130309 
L 204.671236 120.130309 
L 204.798079 121.500952 
L 204.924922 119.616277 
L 204.988344 120.473051 
L 205.051765 119.444987 
L 205.178608 114.005157 
L 205.24203 114.861931 
L 205.432294 115.804187 
L 205.495715 115.718542 
L 205.876244 119.916115 
L 205.939666 119.959019 
L 206.066509 120.558696 
L 206.12993 120.258857 
L 206.193352 120.644341 
L 206.320195 122.61466 
L 206.447038 120.901275 
L 206.573881 121.672241 
L 206.637302 121.029824 
L 206.700724 121.115468 
L 206.764145 121.458211 
L 207.144674 115.975476 
L 207.271517 120.515792 
L 207.39836 118.159989 
L 207.461781 118.80257 
L 207.588624 120.00176 
L 207.652046 119.959019 
L 207.715467 120.430147 
L 207.778889 119.659181 
L 207.969153 115.118866 
L 208.032575 115.118866 
L 208.159417 116.446767 
L 208.222839 116.403864 
L 208.413103 115.20451 
L 208.666789 119.230794 
L 208.857054 120.601437 
L 208.983897 117.346119 
L 209.047318 118.845311 
L 209.11074 120.601437 
L 209.174161 119.616277 
L 209.237583 119.659181 
L 209.301004 120.729985 
L 209.364426 120.601437 
L 209.491269 120.130309 
L 209.55469 120.173213 
L 209.681533 120.687081 
L 209.871797 119.659181 
L 209.99864 120.301598 
L 210.062062 120.00176 
L 210.125483 119.744826 
L 210.252326 120.301598 
L 210.315748 119.659181 
L 210.379169 120.087568 
L 210.506012 121.672241 
L 210.632855 120.173213 
L 210.759698 123.771109 
L 210.82312 122.529015 
L 210.886541 120.215953 
L 210.949963 120.258857 
L 211.013384 119.959019 
L 211.076805 118.97386 
L 211.140227 119.230794 
L 211.26707 118.888215 
L 211.393913 120.772889 
L 211.457334 120.044664 
L 211.520756 120.087568 
L 211.647599 121.758049 
L 211.774442 120.473051 
L 211.837863 113.277095 
L 211.901285 114.647738 
L 212.154971 109.721939 
L 212.281814 110.364357 
L 212.345235 110.964033 
L 212.472078 113.705319 
L 212.535499 113.019997 
L 212.598921 113.319836 
L 212.789185 114.304995 
L 212.916028 114.690478 
L 213.042871 112.591774 
L 213.106293 113.062901 
L 213.233136 114.133706 
L 213.296557 114.005157 
L 213.4234 111.135486 
L 213.550243 115.20451 
L 213.613665 113.876771 
L 213.677086 110.407261 
L 213.740508 110.707099 
L 213.867351 113.919512 
L 213.930772 113.491289 
L 214.121036 115.889832 
L 214.311301 109.122263 
L 214.374722 110.621454 
L 214.438144 110.750003 
L 214.628408 109.764843 
L 214.755251 114.990317 
L 214.818673 114.304995 
L 215.262623 109.122263 
L 215.389466 113.576933 
L 215.452887 112.034838 
L 215.516309 113.105805 
L 215.57973 114.562093 
L 215.706573 109.079522 
L 215.769995 110.878389 
L 215.833416 110.792744 
L 215.896838 109.507746 
L 215.960259 110.450164 
L 216.023681 111.135486 
L 216.087102 111.049678 
L 216.213945 111.349516 
L 216.467631 109.207907 
L 216.531053 109.079522 
L 216.721317 110.278712 
L 216.784738 110.492905 
L 216.84816 110.321616 
L 216.911581 109.893229 
L 217.101846 115.033221 
L 217.228689 110.193067 
L 217.29211 110.235971 
L 217.418953 115.632897 
L 217.482375 115.076125 
L 217.672639 113.876771 
L 217.736061 114.776286 
L 217.799482 114.647738 
L 217.862904 114.39064 
L 217.989747 115.675638 
L 218.053168 114.733382 
L 218.11659 114.776286 
L 218.370275 116.01838 
L 218.433697 115.247414 
L 218.497118 115.504349 
L 218.56054 116.618057 
L 218.623961 116.275315 
L 218.687383 115.504349 
L 218.814226 116.275315 
L 218.941069 114.647738 
L 219.131333 116.18967 
L 219.194755 115.932736 
L 219.258176 114.861931 
L 219.385019 121.543856 
L 219.511862 115.761446 
L 219.638705 120.729985 
L 219.702126 118.588376 
L 219.765548 119.701922 
L 219.828969 119.873375 
L 219.892391 115.589993 
L 219.955812 118.716762 
L 220.209498 122.571756 
L 220.336341 121.115468 
L 220.780292 128.354165 
L 220.843713 128.525618 
L 220.907135 129.467874 
L 221.033978 125.827073 
L 221.16082 126.469654 
L 221.224242 126.555299 
L 221.351085 128.525618 
L 221.477928 125.998363 
L 221.541349 127.369006 
L 221.604771 126.42675 
L 221.731614 124.028043 
L 221.9853 126.084008 
L 222.175564 119.78773 
L 222.238986 119.873375 
L 222.365829 121.158372 
L 222.42925 120.387243 
L 222.556093 124.456431 
L 222.619514 122.743046 
L 222.682936 120.344502 
L 222.746357 121.672241 
L 222.809779 123.42853 
L 222.936622 120.087568 
L 223.000043 120.258857 
L 223.063465 120.687081 
L 223.126886 120.215953 
L 223.253729 121.158372 
L 223.317151 119.744826 
L 223.507415 125.355946 
L 223.570837 125.141752 
L 223.634258 125.61288 
L 223.69768 125.570139 
L 223.887944 125.398687 
L 224.014787 126.084008 
L 224.14163 125.184656 
L 224.268473 128.22578 
L 224.395316 126.041267 
L 224.458737 126.084008 
L 224.522159 125.741428 
L 224.649002 126.983523 
L 224.839266 125.655784 
L 224.902688 125.698524 
L 225.092952 131.352548 
L 225.156374 131.05271 
L 225.219795 131.652387 
L 225.346638 134.993349 
L 225.536902 131.823676 
L 225.600324 131.995047 
L 225.727167 133.494158 
L 225.85401 130.581501 
L 225.917431 130.924161 
L 225.980853 130.795694 
L 226.107696 134.8648 
L 226.171117 133.53698 
L 226.234539 133.87964 
L 226.29796 133.36569 
L 226.424803 130.795694 
L 226.488225 131.695209 
L 226.551646 131.05271 
L 226.615068 131.780854 
L 226.741911 134.308028 
L 226.805332 133.494158 
L 226.932175 135.892782 
L 227.059018 131.56666 
L 227.185861 134.950526 
L 227.312704 131.309726 
L 227.376125 131.780854 
L 227.502968 130.153195 
L 227.56639 130.581501 
L 227.693233 133.922463 
L 227.820076 131.05271 
L 227.883497 131.780854 
L 227.946919 131.481016 
L 228.01034 130.795694 
L 228.137183 115.632897 
L 228.264026 115.290155 
L 228.390869 116.232574 
L 228.45429 115.889832 
L 228.517712 114.861931 
L 228.581133 114.904672 
L 228.707976 116.660798 
L 228.771398 115.247414 
L 228.898241 120.601437 
L 228.961662 120.087568 
L 229.025084 118.631117 
L 229.151927 120.430147 
L 229.27877 117.81741 
L 229.342191 115.589993 
L 229.405613 117.046281 
L 229.469034 119.487891 
L 229.532456 118.459828 
L 229.595877 118.502732 
L 229.659299 119.959019 
L 229.72272 119.916115 
L 229.786141 119.616277 
L 229.849563 120.087568 
L 229.912984 119.616277 
L 230.039827 115.20451 
L 230.103249 116.575153 
L 230.230092 121.072564 
L 230.293513 119.402083 
L 230.356935 119.744826 
L 230.420356 120.130309 
L 230.483778 119.701922 
L 230.547199 119.78773 
L 230.674042 120.087568 
L 230.800885 121.329662 
L 230.927728 120.087568 
L 230.99115 120.258857 
L 231.181414 120.044664 
L 231.308257 119.530632 
L 231.498521 114.733382 
L 231.561943 115.632897 
L 231.625364 115.847091 
L 231.752207 114.990317 
L 231.942472 116.789347 
L 232.005893 116.532412 
L 232.069315 115.761446 
L 232.132736 115.804187 
L 232.196158 116.318219 
L 232.323001 115.247414 
L 232.386422 115.847091 
L 232.513265 112.934352 
L 232.640108 114.947576 
L 232.703529 113.319836 
L 232.766951 113.619674 
L 232.830372 114.690478 
L 233.020637 110.193067 
L 233.084058 110.750003 
L 233.274323 115.804187 
L 233.337744 115.761446 
L 233.464587 116.104025 
L 233.528009 115.975476 
L 233.59143 116.104025 
L 233.654852 115.932736 
L 233.718273 114.819027 
L 233.781695 115.418704 
L 233.908538 120.601437 
L 233.971959 120.258857 
L 234.162223 115.847091 
L 234.225645 116.232574 
L 234.352488 114.733382 
L 234.542752 115.847091 
L 234.606174 115.418704 
L 234.669595 116.146929 
L 234.733017 118.845311 
L 234.796438 118.331279 
L 234.85986 115.461608 
L 234.923281 115.632897 
L 234.986703 115.675638 
L 235.050124 114.562093 
L 235.176967 120.601437 
L 235.30381 115.632897 
L 235.367232 116.232574 
L 235.430653 116.232574 
L 235.557496 115.076125 
L 235.74776 115.932736 
L 235.874603 114.819027 
L 236.191711 112.120645 
L 236.57224 124.670624 
L 236.889347 108.865328 
L 237.143033 112.249031 
L 237.333297 111.178227 
L 237.650405 120.344502 
L 237.713826 118.930956 
L 237.777248 115.761446 
L 237.840669 116.832251 
L 237.904091 117.217734 
L 237.967512 116.917895 
L 238.030934 117.860151 
L 238.157777 108.608231 
L 238.221198 110.878389 
L 238.474884 126.855137 
L 238.538305 126.726588 
L 238.601727 124.370786 
L 238.665148 125.099011 
L 239.045677 145.27317 
L 239.109099 142.103579 
L 239.362785 122.143532 
L 239.426206 122.61466 
L 239.489628 126.341105 
L 239.553049 125.955622 
L 239.679892 121.244017 
L 239.806735 108.351296 
L 239.870156 108.950973 
L 239.996999 110.492905 
L 240.123842 116.18967 
L 240.187264 115.932736 
L 240.314107 113.619674 
L 240.44095 120.344502 
L 240.504371 118.545472 
L 240.567793 118.202893 
L 240.694636 124.62772 
L 240.821479 117.132089 
L 241.138586 130.410211 
L 241.32885 120.729985 
L 241.392272 120.687081 
L 241.455693 121.415307 
L 241.519115 119.230794 
L 241.645958 111.135486 
L 241.836222 117.00354 
L 242.026487 174.956346 
L 242.089908 174.613685 
L 242.216751 184.979233 
L 242.343594 180.738837 
L 242.59728 185.92157 
L 242.850966 178.896985 
L 242.914387 179.025452 
L 242.977809 180.952949 
L 243.04123 180.567466 
L 243.104652 179.539484 
L 243.168073 180.738837 
L 243.231495 180.524644 
L 243.421759 177.397875 
L 243.675445 166.432651 
L 243.738867 166.603941 
L 243.929131 158.894034 
L 244.055974 160.393226 
L 244.246238 152.126465 
L 244.30966 105.652752 
L 244.373081 106.93775 
L 244.436503 106.124043 
L 244.626767 92.460356 
L 244.690189 94.173578 
L 244.75361 96.229542 
L 244.943875 93.145677 
L 245.007296 93.616805 
L 245.324404 106.338073 
L 245.387825 105.610011 
L 245.451247 106.895009 
L 245.831775 83.765208 
L 245.958618 90.832616 
L 246.02204 87.92004 
L 246.212304 98.585344 
L 246.275726 95.073093 
L 246.339147 96.700833 
L 246.529412 103.853885 
L 246.592833 103.682432 
L 246.656255 103.810981 
L 246.719676 105.267269 
L 246.783098 104.710496 
L 246.846519 104.7534 
L 246.973362 110.321616 
L 247.100205 104.282109 
L 247.163626 105.909849 
L 247.227048 105.695655 
L 247.544155 90.575681 
L 247.607577 90.618422 
L 247.797841 96.400995 
L 247.924684 104.539206 
L 248.051527 98.585344 
L 248.114949 100.941147 
L 248.17837 100.255825 
L 248.305213 101.15534 
L 248.685742 83.636659 
L 248.812585 90.746971 
L 248.876006 90.190198 
L 249.193114 82.694404 
L 249.256535 82.951338 
L 249.637064 91.860679 
L 249.700486 98.928087 
L 249.763907 98.414055 
L 249.827328 97.471799 
L 249.954171 107.75162 
L 250.144436 104.196464 
L 250.207857 103.639692 
L 250.3347 109.679035 
L 250.588386 98.285506 
L 250.651808 98.071476 
L 250.715229 104.924689 
L 250.778651 95.287286 
L 250.842072 115.632897 
L 251.032337 295.488 
L 251.222601 247.986386 
L 251.286022 241.94696 
L 251.349444 245.75905 
L 251.856816 217.31805 
L 251.920237 217.232405 
L 251.983659 221.815543 
L 252.04708 220.273529 
L 252.110502 216.161601 
L 252.237345 222.115299 
L 252.364188 211.064431 
L 252.427609 57.594283 
L 252.491031 60.507022 
L 252.554452 58.151219 
L 252.681295 62.434437 
L 252.808138 53.568 
L 253.125245 66.632173 
L 253.442353 102.397597 
L 253.632617 95.587124 
L 253.696039 96.957767 
L 253.75946 99.527763 
L 253.822882 98.499699 
L 253.886303 98.799538 
L 253.949725 101.412438 
L 254.330253 90.061649 
L 254.647361 106.166784 
L 254.710782 110.193067 
L 254.774204 109.807584 
L 254.901047 98.628248 
L 255.02789 103.93953 
L 255.154733 98.799538 
L 255.218154 99.099376 
L 255.408419 109.764843 
L 255.47184 110.064681 
L 255.535262 109.207907 
L 255.662104 101.412438 
L 255.852369 105.481462 
L 255.91579 112.805967 
L 255.979212 111.820807 
L 256.042633 110.492905 
L 256.106055 115.20451 
L 256.169476 115.16177 
L 256.423162 102.440338 
L 256.486584 102.440338 
L 256.74027 111.606614 
L 256.803691 110.021778 
L 256.930534 103.339853 
L 256.993955 105.567107 
L 257.057377 105.010334 
L 257.120798 103.93953 
L 257.18422 104.453562 
L 257.247641 104.539206 
L 257.374484 108.651135 
L 257.437906 106.423881 
L 257.501327 103.254208 
L 257.62817 114.776286 
L 257.691592 113.148546 
L 257.881856 104.367754 
L 258.072121 120.215953 
L 258.135542 119.188053 
L 258.262385 115.675638 
L 258.389228 120.215953 
L 258.452649 119.78773 
L 258.579492 122.057724 
L 258.642914 120.729985 
L 258.706335 121.029824 
L 258.769757 121.115468 
L 258.833178 120.215953 
L 258.8966 120.644341 
L 258.960021 122.143532 
L 259.023443 121.715145 
L 259.086864 119.744826 
L 259.213707 125.44159 
L 259.277129 123.385626 
L 259.34055 122.61466 
L 259.403972 124.028043 
L 259.530815 113.748223 
L 259.594236 114.090965 
L 259.721079 122.100628 
L 259.784501 120.644341 
L 259.847922 117.560313 
L 259.974765 130.495856 
L 260.038186 123.214337 
L 260.101608 123.257077 
L 260.228451 140.732936 
L 260.291872 133.108674 
L 260.355294 136.064153 
L 260.418715 141.118419 
L 260.482137 130.581501 
L 260.545558 148.699858 
L 260.60898 148.314375 
L 260.672401 150.327517 
L 260.799244 162.96314 
L 260.989509 154.996299 
L 261.179773 166.646763 
L 261.370037 182.580608 
L 261.433459 182.580608 
L 261.49688 184.508105 
L 261.813988 172.429254 
L 261.877409 173.542881 
L 261.940831 175.084895 
L 262.194517 164.76217 
L 262.384781 154.610735 
L 262.511624 159.108228 
L 262.575046 156.966537 
L 262.828731 138.16294 
L 262.892153 138.377133 
L 263.018996 143.688415 
L 263.082417 147.800343 
L 263.145839 146.815184 
L 263.20926 144.373737 
L 263.272682 145.144703 
L 263.399525 142.703255 
L 263.462946 144.031076 
L 263.589789 141.118419 
L 263.716632 144.373737 
L 263.780054 144.245188 
L 263.843475 145.530186 
L 263.906897 143.559866 
L 263.970318 145.230347 
L 264.224004 165.961442 
L 264.287425 165.661603 
L 264.47769 164.162493 
L 264.604533 166.346925 
L 264.731376 156.83807 
L 264.858219 162.62048 
L 265.111905 153.839769 
L 265.238748 160.393226 
L 265.429012 145.830024 
L 265.492434 148.228649 
L 265.809541 164.333783 
L 265.936384 167.417811 
L 266.063227 163.734188 
L 266.253491 155.424605 
L 266.316913 155.638717 
L 266.570599 147.971633 
L 266.697442 157.694763 
L 266.824285 153.068802 
L 266.887706 155.33896 
L 267.141392 148.871148 
L 267.204813 148.571309 
L 267.331656 151.826627 
L 267.395078 149.72784 
L 267.521921 157.437747 
L 267.585342 156.024282 
L 267.648764 151.69816 
L 267.712185 152.169288 
L 267.90245 154.824928 
L 268.092714 142.574707 
L 268.156136 146.815184 
L 268.3464 156.880893 
L 268.409822 156.623876 
L 268.536664 152.768964 
L 268.600086 155.595894 
L 268.726929 117.803054 
L 268.853772 115.632897 
L 268.917193 116.36096 
L 269.170879 113.448385 
L 269.297722 117.089185 
L 269.424565 115.033221 
L 269.551408 121.415307 
L 269.678251 117.389023 
L 269.805094 125.61288 
L 269.868516 123.985303 
L 269.995358 115.076125 
L 270.05878 118.930956 
L 270.122201 118.074345 
L 270.185623 115.718542 
L 270.312466 120.81563 
L 270.566152 116.146929 
L 270.692995 117.945796 
L 270.819838 121.758049 
L 270.946681 114.133706 
L 271.010102 115.16177 
L 271.073524 114.562093 
L 271.263788 120.044664 
L 271.454052 132.55182 
L 271.517474 127.925942 
L 271.580895 130.23884 
L 271.644317 132.294886 
L 272.088267 114.219351 
L 272.151689 115.632897 
L 272.21511 116.104025 
L 272.278532 114.17661 
L 272.595639 121.115468 
L 273.039589 112.848708 
L 273.103011 107.75162 
L 273.166432 108.865328 
L 273.229854 109.978874 
L 273.293275 107.494685 
L 273.356697 108.950973 
L 273.420118 109.936133 
L 273.546961 103.554047 
L 273.610383 105.181624 
L 273.673804 104.282109 
L 273.737226 103.211304 
L 274.181176 129.210939 
L 274.244597 130.23884 
L 274.37144 124.799173 
L 274.498283 134.650688 
L 274.561705 134.093834 
L 275.132498 109.422101 
L 275.386184 124.370786 
L 275.449606 124.413527 
L 275.576449 119.444987 
L 275.830134 124.542075 
L 275.893556 123.985303 
L 276.147242 114.090965 
L 276.274085 117.303378 
L 276.464349 113.576933 
L 276.527771 109.764843 
L 276.591192 112.20629 
L 276.718035 103.639692 
L 276.9083 126.598039 
L 277.161985 134.607784 
L 277.288828 137.349151 
L 277.35225 136.278266 
L 277.479093 125.227397 
L 277.542514 126.383846 
L 277.605936 125.570139 
L 277.732779 118.759666 
L 278.303572 131.523838 
L 278.430415 131.309726 
L 278.684101 124.327882 
L 278.810944 119.145149 
L 278.874365 119.188053 
L 278.937787 119.0166 
L 279.445159 139.405115 
L 279.572002 140.47592 
L 279.635423 141.204064 
L 279.952531 119.916115 
L 280.015952 120.81563 
L 280.206216 129.596341 
L 280.586745 107.965813 
L 280.713588 115.547253 
L 280.77701 115.16177 
L 280.840431 113.962416 
L 280.903853 115.589993 
L 281.094117 124.927558 
L 281.157539 125.184656 
L 281.22096 124.499335 
L 281.347803 121.415307 
L 281.601489 128.482714 
L 281.728332 132.723191 
L 281.855175 125.912718 
L 281.918596 125.998363 
L 282.045439 123.771109 
L 282.108861 123.856754 
L 282.235704 119.444987 
L 282.362547 125.141752 
L 282.425968 122.486111 
L 282.743076 157.523391 
L 282.806497 160.093388 
L 282.93334 154.696461 
L 282.996761 155.51025 
L 283.123604 160.607338 
L 283.440712 151.526789 
L 283.567555 154.824928 
L 283.694398 149.342357 
L 284.011505 163.819833 
L 284.265191 155.33896 
L 284.328612 155.51025 
L 284.392034 157.266376 
L 284.582298 148.485665 
L 284.64572 149.984856 
L 284.709141 149.513647 
L 284.835984 146.044218 
L 285.026249 107.194847 
L 285.343356 94.045192 
L 285.406778 95.801318 
L 285.787306 111.606614 
L 285.850728 115.589993 
L 285.914149 115.076125 
L 286.167835 103.98227 
L 286.231257 109.079522 
L 286.294678 106.338073 
L 286.421521 91.90342 
L 286.484943 94.687609 
L 286.548364 94.002288 
L 286.611786 93.017128 
L 286.80205 105.652752 
L 286.865472 104.153723 
L 286.928893 105.524366 
L 287.055736 110.321616 
L 287.119158 109.55065 
L 287.436265 120.858534 
L 287.499686 121.244017 
L 287.563108 119.102408 
L 287.626529 119.530632 
L 287.689951 121.6295 
L 287.753372 120.130309 
L 287.880215 115.418704 
L 287.943637 115.461608 
L 288.133901 106.423881 
L 288.197323 105.567107 
L 288.260744 102.95437 
L 288.324166 104.96743 
L 288.451009 115.333059 
L 288.577851 108.865328 
L 288.641273 110.407261 
L 288.831537 115.547253 
L 289.085223 104.196464 
L 289.275488 95.415835 
L 289.338909 95.629865 
L 289.465752 100.512923 
L 289.529174 99.484859 
L 289.656017 95.54422 
L 289.719438 96.358091 
L 289.846281 93.402612 
L 290.099967 102.097759 
L 290.290231 112.20629 
L 290.353653 111.006937 
L 290.417074 110.492905 
L 290.543917 120.858534 
L 290.797603 108.308392 
L 290.987868 114.17661 
L 291.178132 105.138883 
L 291.241554 105.524366 
L 291.431818 116.746606 
L 291.622082 209.39395 
L 291.812347 190.590353 
L 291.875768 188.919872 
L 291.93919 190.761724 
L 292.38314 169.473775 
L 292.573405 172.771915 
L 292.700248 175.727394 
L 292.763669 176.155699 
L 292.827091 178.126019 
L 292.953933 172.257883 
L 293.017355 79.310537 
L 293.080776 84.321981 
L 293.144198 82.6515 
L 293.207619 83.46537 
L 293.271041 85.821172 
L 293.397884 77.126188 
L 293.461305 80.038763 
L 293.524727 86.249559 
L 293.588148 85.135851 
L 293.65157 81.623599 
L 294.032099 106.338073 
L 294.09552 105.053238 
L 294.158942 105.866945 
L 294.285785 104.325013 
L 294.349206 105.310173 
L 294.602892 99.313569 
L 294.666313 99.35631 
L 294.793156 105.310173 
L 294.856578 102.483242 
L 294.919999 104.025174 
L 295.110264 112.591774 
L 295.300528 116.446767 
L 295.36395 114.562093 
L 295.490793 102.483242 
L 295.554214 105.053238 
L 295.617636 105.010334 
L 295.744479 96.957767 
L 296.061586 111.478065 
L 296.125007 112.463225 
L 296.25185 104.153723 
L 296.315272 104.796141 
L 296.378693 105.010334 
L 296.442115 103.511143 
L 296.505536 103.596788 
L 296.695801 110.535809 
L 296.886065 104.667592 
L 296.949487 104.96743 
L 297.07633 102.1405 
L 297.203172 104.453562 
L 297.266594 103.98227 
L 297.330015 105.7813 
L 297.393437 105.738559 
L 297.52028 96.615025 
L 297.583701 97.600184 
L 297.647123 100.17018 
L 297.710544 99.056635 
L 297.773966 99.227925 
L 297.900809 103.596788 
L 297.96423 103.382757 
L 298.027652 103.296949 
L 298.091073 103.682432 
L 298.281338 111.949193 
L 298.471602 105.138883 
L 298.725288 115.333059 
L 298.788709 115.975476 
L 298.915552 108.479845 
L 299.105817 117.132089 
L 299.169238 115.761446 
L 299.23266 115.076125 
L 299.296081 116.104025 
L 299.422924 106.93775 
L 299.486346 108.779683 
L 299.549767 111.56371 
L 299.67661 108.651135 
L 299.803453 119.916115 
L 299.930296 114.476448 
L 299.993718 116.832251 
L 300.057139 116.489508 
L 300.183982 112.848708 
L 300.437668 118.545472 
L 300.564511 129.553519 
L 300.627932 125.184656 
L 300.691354 125.527235 
L 300.818197 133.237141 
L 300.881618 130.024728 
L 300.94504 132.166337 
L 301.008461 130.581501 
L 301.071883 122.486111 
L 301.262147 143.559866 
L 301.38899 149.128164 
L 301.579254 139.233744 
L 301.83294 151.826627 
L 301.959783 161.506853 
L 302.023205 160.907176 
L 302.150048 167.503455 
L 302.593998 148.485665 
L 302.720841 153.582753 
L 302.784263 153.454286 
L 302.974527 149.813485 
L 303.037948 148.485665 
L 303.164791 151.098483 
L 303.481899 132.980207 
L 303.608742 135.892782 
L 303.672163 135.721493 
L 303.862428 136.578104 
L 303.925849 135.84996 
L 303.989271 137.391974 
L 304.116114 143.945349 
L 304.242957 138.762617 
L 304.369799 141.161241 
L 304.496642 133.36569 
L 304.560064 137.006491 
L 304.750328 153.839769 
L 304.81375 154.053962 
L 304.877171 155.595894 
L 304.940593 155.039122 
L 305.067436 152.940254 
L 305.130857 155.253234 
L 305.194279 155.081944 
L 305.321122 148.91397 
L 305.384543 151.612433 
L 305.447965 150.327517 
L 305.701651 143.559866 
L 305.765072 144.459381 
L 306.018758 138.591245 
L 306.589551 161.035725 
L 306.779816 149.299453 
L 306.843237 150.498807 
L 306.906659 151.483966 
L 307.096923 146.129862 
L 307.160345 146.386878 
L 307.287187 155.51025 
L 307.41403 152.21211 
L 307.477452 152.597593 
L 307.604295 144.630671 
L 307.667716 144.930509 
L 307.794559 142.917367 
L 308.048245 151.569611 
L 308.111667 152.126465 
L 308.301931 147.329216 
L 308.428774 150.113323 
L 308.492196 152.426304 
L 308.555617 151.740982 
L 308.68246 144.887687 
L 308.999567 161.806691 
L 309.12641 155.081944 
L 309.189832 159.450888 
L 309.316675 105.7813 
L 309.443518 103.554047 
L 309.506939 104.196464 
L 309.570361 104.282109 
L 309.697204 105.524366 
L 309.760625 104.581947 
L 309.887468 107.965813 
L 309.95089 105.95259 
L 310.014311 103.98227 
L 310.141154 112.034838 
L 310.204575 109.636294 
L 310.267997 107.880169 
L 310.39484 111.906452 
L 310.585104 102.483242 
L 310.711947 107.794524 
L 310.902212 101.883566 
L 311.092476 104.796141 
L 311.155898 104.581947 
L 311.219319 104.025174 
L 311.282741 105.224528 
L 311.409584 112.54887 
L 311.536427 108.436941 
L 311.726691 111.349516 
L 311.853534 107.623071 
L 311.916955 109.422101 
L 312.043798 116.275315 
L 312.297484 108.908069 
L 312.360906 110.835648 
L 312.487749 105.053238 
L 312.55117 108.308392 
L 312.614592 110.878389 
L 312.678013 108.865328 
L 312.741435 109.807584 
L 312.804856 111.863548 
L 312.868278 110.321616 
L 312.931699 109.250811 
L 312.99512 109.679035 
L 313.058542 109.893229 
L 313.121963 109.59339 
L 313.375649 111.906452 
L 313.439071 113.791127 
L 313.883021 103.339853 
L 313.946443 103.596788 
L 314.009864 105.181624 
L 314.136707 103.810981 
L 314.200129 104.539206 
L 314.326972 101.883566 
L 314.453814 110.064681 
L 314.580657 120.515792 
L 314.644079 120.087568 
L 314.7075 117.132089 
L 314.834343 120.301598 
L 314.961186 113.619674 
L 315.088029 121.543856 
L 315.151451 120.858534 
L 315.278294 115.675638 
L 315.53198 105.652752 
L 316.039351 121.372403 
L 316.229616 116.232574 
L 316.356459 120.473051 
L 316.41988 119.487891 
L 316.546723 121.6295 
L 316.610145 120.430147 
L 316.800409 113.491289 
L 316.927252 114.562093 
L 316.990674 113.534029 
L 317.117517 108.908069 
L 317.180938 111.478065 
L 317.307781 100.684212 
L 317.498045 133.922463 
L 317.561467 133.36569 
L 317.624888 131.738032 
L 317.751731 139.019633 
L 317.815153 136.621007 
L 317.878574 137.606086 
L 317.941996 136.235443 
L 318.13226 123.728205 
L 318.195682 122.871594 
L 318.322525 125.013203 
L 318.512789 120.98692 
L 318.576211 121.500952 
L 318.703054 129.125295 
L 318.766475 126.940782 
L 318.893318 130.795694 
L 319.020161 125.698524 
L 319.147004 126.212557 
L 319.210425 128.311425 
L 319.273847 125.998363 
L 319.337268 119.487891 
L 319.40069 120.98692 
L 319.654376 140.047615 
L 319.717797 140.518742 
L 319.84464 135.378832 
L 320.225169 156.709603 
L 320.478855 141.932208 
L 320.542276 132.508998 
L 320.605698 133.108674 
L 320.669119 137.820279 
L 320.732541 137.006491 
L 320.859384 131.866499 
L 320.986227 117.217734 
L 321.049648 118.074345 
L 321.11307 119.659181 
L 321.176491 118.374183 
L 321.239913 119.359342 
L 321.366756 122.828853 
L 321.493599 119.616277 
L 321.620441 127.112072 
L 321.683863 125.141752 
L 321.747284 124.456431 
L 321.874127 132.594643 
L 322.00097 127.925942 
L 322.318078 140.30463 
L 322.571764 129.339325 
L 322.635185 130.410211 
L 322.698607 129.467874 
L 322.82545 118.545472 
L 322.888871 123.085788 
L 322.952293 121.929339 
L 323.015714 122.229177 
L 323.2694 185.193426 
L 323.396243 194.488169 
L 323.523086 190.504708 
L 323.586507 190.847369 
L 323.71335 185.707376 
L 323.840193 188.577211 
L 324.030458 184.722217 
L 324.093879 184.850765 
L 324.157301 186.007215 
L 324.220722 185.793103 
L 324.284144 185.279071 
L 324.347565 185.536087 
L 324.474408 186.178586 
L 324.601251 181.595448 
L 324.854937 171.272723 
L 324.918358 172.000867 
L 325.172044 163.262979 
L 325.235466 163.348705 
L 325.42573 158.123068 
L 325.489152 104.581947 
L 325.552573 106.466622 
L 325.806259 90.018909 
L 325.869681 92.71729 
L 325.933102 94.773254 
L 325.996523 94.087933 
L 326.123366 92.974224 
L 326.186788 94.259222 
L 326.440474 106.895009 
L 326.503895 106.852105 
L 326.567317 106.380977 
L 326.630738 107.837265 
L 326.757581 101.755017 
L 326.821003 104.539206 
L 327.011267 85.649883 
L 327.074689 92.546001 
L 327.13811 93.616805 
L 327.201532 91.432292 
L 327.264953 92.331807 
L 327.391796 96.786478 
L 327.455217 94.130837 
L 327.518639 94.773254 
L 327.645482 102.783081 
L 327.708903 102.269049 
L 327.772325 99.484859 
L 327.835746 99.784698 
L 328.152854 116.36096 
L 328.216275 115.632897 
L 328.596804 102.183404 
L 328.723647 91.860679 
L 328.787068 94.730513 
L 328.85049 94.51632 
L 328.913911 94.002288 
L 329.104176 106.895009 
L 329.167597 104.068078 
L 329.231019 104.410658 
L 329.29444 105.695655 
L 329.357862 105.181624 
L 329.421283 105.481462 
L 329.484705 104.796141 
L 329.801812 90.061649 
L 329.865234 90.061649 
L 330.055498 95.030352 
L 330.245762 88.348427 
L 330.309184 89.033749 
L 330.372605 88.048589 
L 330.499448 90.746971 
L 330.56287 89.07649 
L 331.133663 111.735163 
L 331.260506 109.379197 
L 331.387349 108.693876 
L 331.514192 113.234191 
L 331.641035 108.308392 
L 331.831299 101.498083 
L 331.894721 104.924689 
L 331.958142 97.985668 
L 332.021564 112.334676 
L 332.211828 284.051648 
L 332.465514 235.778986 
L 332.528936 237.49229 
L 332.782622 223.785781 
L 333.099729 211.19298 
L 333.226572 213.50596 
L 333.289993 211.578463 
L 333.353415 212.949105 
L 333.416836 214.576764 
L 333.543679 206.524197 
L 333.607101 56.266545 
L 333.670522 61.534922 
L 333.733944 60.80686 
L 333.860787 63.719435 
L 333.98763 56.309449 
L 334.114473 64.062177 
L 334.177894 63.890724 
L 334.241316 61.79202 
L 334.621844 104.96743 
L 334.685266 101.283889 
L 334.812109 98.456959 
L 334.938952 103.682432 
L 335.065795 98.928087 
L 335.192638 105.652752 
L 335.256059 102.697273 
L 335.382902 106.209688 
L 335.509745 98.242765 
L 335.763431 109.465005 
L 335.890274 112.720159 
L 335.953696 111.520969 
L 336.080538 102.654532 
L 336.207381 105.695655 
L 336.397646 99.442118 
L 336.524489 110.750003 
L 336.58791 109.721939 
L 336.651332 110.150326 
L 336.714753 109.207907 
L 336.841596 102.397597 
L 337.031861 106.552266 
L 337.158704 115.333059 
L 337.602654 99.399214 
L 337.666075 101.498083 
L 337.919761 114.048061 
L 338.30029 99.313569 
L 338.490555 105.352914 
L 338.553976 105.095979 
L 338.680819 103.040015 
L 338.871083 113.062901 
L 339.061348 103.596788 
L 339.251612 115.547253 
L 339.315034 116.275315 
L 339.441877 112.291935 
L 339.758984 120.301598 
L 339.822406 118.331279 
L 339.885827 118.588376 
L 339.949249 120.344502 
L 340.01267 119.316438 
L 340.076092 119.0166 
L 340.139513 120.81563 
L 340.202935 120.173213 
L 340.266356 117.688861 
L 340.393199 122.61466 
L 340.520042 118.417087 
L 340.583463 119.959019 
L 340.710306 111.735163 
L 340.773728 112.120645 
L 340.900571 118.930956 
L 340.963992 117.217734 
L 341.027414 113.234191 
L 341.154257 123.899658 
L 341.2811 113.019997 
L 341.407943 127.069168 
L 341.471364 119.273698 
L 341.534786 121.586596 
L 341.598207 125.270301 
L 341.661629 114.090965 
L 341.788471 162.663302 
L 341.851893 164.890637 
L 341.978736 176.198522 
L 342.105579 168.231599 
L 342.169 170.030629 
L 342.422686 189.990676 
L 342.486108 198.385904 
L 342.549529 198.000421 
L 342.612951 196.843971 
L 342.676372 197.957598 
L 342.739794 197.48647 
L 342.930058 189.905031 
L 342.99348 190.761724 
L 343.120323 191.53269 
L 343.310587 184.893588 
L 343.500851 168.959743 
L 343.627694 171.401272 
L 343.691116 173.414414 
L 343.754537 171.058611 
L 344.008223 151.655337 
L 344.135066 153.240092 
L 344.261909 162.363545 
L 344.325331 160.735887 
L 344.515595 155.467427 
L 344.705859 151.783805 
L 344.769281 152.169288 
L 344.959545 154.268074 
L 345.022967 155.210412 
L 345.086388 152.854609 
L 345.14981 155.724443 
L 345.403496 176.841021 
L 345.530339 175.898683 
L 345.59376 176.284167 
L 345.720603 178.511502 
L 345.784025 177.440697 
L 345.910868 168.959743 
L 346.03771 172.85756 
L 346.164553 171.229901 
L 346.291396 163.605639 
L 346.418239 169.987725 
L 346.671925 154.953395 
L 346.989033 171.187078 
L 347.115876 169.987725 
L 347.242719 170.88724 
L 347.369562 166.603941 
L 347.432983 166.818134 
L 347.496404 167.674745 
L 347.623247 165.233298 
L 347.75009 156.152749 
L 347.876933 165.875797 
L 347.940355 163.048867 
L 348.003776 161.378386 
L 348.067198 163.648462 
L 348.130619 162.406368 
L 348.320884 156.324038 
L 348.384305 157.223553 
L 348.511148 161.506853 
L 348.57457 158.208713 
L 348.637991 160.607338 
L 348.701413 166.432651 
L 348.764834 164.505154 
L 348.891677 158.165891 
L 349.081941 161.035725 
L 349.145363 158.508551 
L 349.272206 148.785503 
L 349.589313 161.892336 
L 349.716156 160.007743 
L 349.779578 162.492012 
L 349.906421 108.436941 
L 350.033264 106.895009 
L 350.096685 110.450164 
L 350.160107 110.321616 
L 350.223528 110.235971 
L 350.350371 108.308392 
L 350.413792 109.336456 
L 350.477214 112.591774 
L 350.540635 111.520969 
L 350.604057 109.764843 
L 350.7309 116.275315 
L 350.857743 110.407261 
L 350.984586 119.916115 
L 351.17485 110.57855 
L 351.238272 111.221131 
L 351.365115 109.936133 
L 351.491958 112.37758 
L 351.618801 110.193067 
L 351.682222 111.221131 
L 351.809065 108.137103 
L 351.872486 109.336456 
L 351.999329 118.331279 
L 352.062751 116.489508 
L 352.126172 114.690478 
L 352.189594 115.718542 
L 352.253015 116.18967 
L 352.316437 115.847091 
L 352.379858 115.333059 
L 352.44328 115.589993 
L 352.633544 123.899658 
L 352.696966 119.659181 
L 352.760387 121.715145 
L 352.823809 125.869977 
L 352.88723 123.899658 
L 353.267759 109.293552 
L 353.33118 110.621454 
L 353.394602 110.407261 
L 353.458023 109.207907 
L 353.584866 111.263871 
L 353.648288 110.750003 
L 353.775131 116.275315 
L 353.838552 114.17661 
L 353.901974 112.506129 
L 353.965395 115.889832 
L 354.028817 114.990317 
L 354.219081 108.56549 
L 354.282503 104.453562 
L 354.345924 104.667592 
L 354.409346 106.295332 
L 354.472767 104.410658 
L 354.536189 104.881785 
L 354.59961 106.637911 
L 354.916717 97.214702 
L 355.424089 129.082391 
L 355.487511 124.413527 
L 355.550932 124.756269 
L 355.677775 131.823676 
L 355.741197 131.309726 
L 355.804618 129.125295 
L 355.931461 114.562093 
L 355.994883 116.746606 
L 356.058304 115.247414 
L 356.121725 109.250811 
L 356.185147 109.379197 
L 356.248568 108.479845 
L 356.31199 105.267269 
L 356.565676 113.319836 
L 356.692519 108.222748 
L 356.819362 108.56549 
L 356.882783 109.165167 
L 357.009626 115.20451 
L 357.073048 114.947576 
L 357.326734 109.122263 
L 357.516998 111.520969 
L 357.580419 110.278712 
L 357.707262 103.468402 
L 357.770684 107.323233 
L 357.897527 94.430675 
L 358.087791 113.962416 
L 358.214634 115.547253 
L 358.278056 120.601437 
L 358.341477 120.473051 
L 358.404899 115.761446 
L 358.46832 117.089185 
L 358.531742 118.202893 
L 358.658585 108.908069 
L 358.785428 114.904672 
L 358.912271 110.064681 
L 358.975692 110.921292 
L 359.039113 113.277095 
L 359.102535 111.735163 
L 359.165956 110.57855 
L 359.292799 116.104025 
L 359.356221 115.889832 
L 359.483064 109.336456 
L 359.927014 83.037146 
L 359.990436 84.193595 
L 360.053857 88.005685 
L 360.117279 87.834396 
L 360.1807 85.906817 
L 360.307543 89.847456 
L 360.370964 84.793272 
L 360.434386 85.307141 
L 360.688072 93.873739 
L 360.814915 95.758414 
L 360.878336 95.415835 
L 361.132022 82.437469 
L 361.44913 98.199861 
L 361.575973 93.402612 
L 361.702816 100.555664 
L 361.766237 97.086316 
L 361.829658 99.399214 
L 361.956501 112.934352 
L 362.019923 112.891612 
L 362.146766 120.772889 
L 362.463873 135.807137 
L 362.527295 134.8648 
L 362.907824 152.083643 
L 363.098088 146.986555 
L 363.224931 151.826627 
L 363.288352 150.841467 
L 363.415195 146.044218 
L 363.542038 151.69816 
L 363.60546 151.612433 
L 363.795724 149.941952 
L 363.859146 150.455984 
L 363.985989 155.167589 
L 364.04941 154.139607 
L 364.112832 153.19727 
L 364.366518 156.452587 
L 364.493361 155.167589 
L 364.556782 156.324038 
L 364.620204 155.167589 
L 364.683625 155.210412 
L 364.873889 156.923715 
L 365.064154 163.348705 
L 365.127575 164.162493 
L 365.381261 160.607338 
L 365.508104 161.763869 
L 365.634947 156.752425 
L 365.698369 158.337262 
L 365.825212 161.892336 
L 365.952055 158.551374 
L 366.015476 160.179032 
L 366.078898 131.481016 
L 366.142319 132.637547 
L 366.396005 123.257077 
L 366.522848 126.126912 
L 366.586269 125.099011 
L 366.713112 120.687081 
L 366.776534 121.886435 
L 367.093641 130.667227 
L 367.220484 129.596341 
L 367.347327 121.80079 
L 367.410749 123.771109 
L 367.601013 107.922909 
L 367.664434 114.304995 
L 367.727856 114.304995 
L 367.791277 110.278712 
L 367.854699 112.20629 
L 367.981542 118.588376 
L 368.044963 116.275315 
L 368.235228 121.929339 
L 368.298649 121.072564 
L 368.362071 121.072564 
L 368.488914 123.257077 
L 368.552335 122.100628 
L 368.679178 127.540458 
L 368.7426 127.326265 
L 368.996285 124.584979 
L 369.313393 114.090965 
L 369.440236 115.589993 
L 369.503657 115.718542 
L 369.6305 119.916115 
L 369.757343 109.764843 
L 369.884186 116.146929 
L 369.947608 115.504349 
L 370.074451 116.232574 
L 370.391558 104.667592 
L 370.518401 109.721939 
L 370.835508 90.91826 
L 371.152616 82.394565 
L 371.406302 92.417452 
L 371.533145 100.213084 
L 371.596566 100.555664 
L 371.723409 106.93775 
L 371.786831 104.7534 
L 371.850252 105.095979 
L 371.913673 105.053238 
L 371.977095 104.453562 
L 372.103938 110.707099 
L 372.230781 104.839045 
L 372.294202 105.824204 
L 372.357624 106.209688 
L 372.421045 104.839045 
L 372.484467 106.081139 
L 373.182103 157.394924 
L 373.245525 154.910573 
L 373.372367 157.566214 
L 373.49921 156.538232 
L 373.689475 159.493711 
L 373.943161 169.173937 
L 374.006582 170.116274 
L 374.133425 164.162493 
L 374.196847 130.795694 
L 374.260268 131.609564 
L 374.32369 128.268521 
L 374.387111 130.667227 
L 374.450533 131.05271 
L 374.577376 124.756269 
L 374.704219 130.795694 
L 374.831061 128.22578 
L 375.21159 155.724443 
L 375.275012 154.482268 
L 375.401855 149.342357 
L 375.465276 152.04082 
L 375.528698 151.569611 
L 375.655541 145.701557 
L 375.718962 150.198968 
L 375.782384 149.556469 
L 375.845805 145.10188 
L 375.909227 146.515345 
L 375.972648 147.286312 
L 376.03607 143.902527 
L 376.099491 146.215507 
L 376.162913 149.428002 
L 376.226334 147.757521 
L 376.48002 151.869449 
L 376.543441 150.88429 
L 376.670284 144.459381 
L 376.860549 151.912272 
L 376.987392 149.642114 
L 377.177656 157.437747 
L 377.241078 157.908875 
L 377.558185 151.312595 
L 377.875292 158.465729 
L 378.255821 146.772361 
L 378.319243 150.927112 
L 378.382664 150.327517 
L 378.446086 151.612433 
L 378.509507 156.152749 
L 378.572929 154.053962 
L 378.763193 146.60099 
L 378.890036 144.459381 
L 379.143722 146.900828 
L 379.270565 143.77406 
L 379.397408 150.070501 
L 379.651094 136.66383 
L 379.714515 139.576405 
L 379.777937 142.831722 
L 379.841358 142.317772 
L 380.221887 132.980207 
L 380.285309 134.35085 
L 380.34873 133.836818 
L 380.475573 129.896179 
L 380.538994 131.095532 
L 380.665837 125.655784 
L 380.729259 126.812233 
L 380.856102 122.657401 
L 380.919523 124.285141 
L 380.982945 124.327882 
L 381.109788 115.504349 
L 381.173209 116.403864 
L 381.363474 108.950973 
L 381.490317 111.092582 
L 381.61716 108.180007 
L 381.744003 113.36274 
L 381.870846 105.310173 
L 381.997688 118.631117 
L 382.06111 112.120645 
L 382.124531 113.105805 
L 382.187953 115.076125 
L 382.251374 107.409041 
L 382.314796 154.910573 
L 382.378217 154.696461 
L 382.568482 167.160795 
L 382.695325 163.305801 
L 382.758746 163.562817 
L 383.32954 196.758326 
L 383.392961 196.501311 
L 383.519804 190.933013 
L 383.583225 191.275674 
L 383.646647 194.788007 
L 383.710068 194.530991 
L 383.900333 190.504708 
L 384.154019 181.29561 
L 384.280862 185.793103 
L 384.344283 183.651412 
L 384.597969 165.575959 
L 384.661391 165.27612 
L 384.788233 168.017406 
L 384.851655 170.630224 
L 384.915076 170.201919 
L 385.168762 164.505154 
L 385.232184 167.160795 
L 385.295605 166.646763 
L 385.359027 165.361847 
L 385.48587 167.07515 
L 385.612713 164.376687 
L 385.676134 161.292659 
L 385.739556 162.96314 
L 385.993242 181.509803 
L 386.437192 172.557721 
L 386.500613 169.216759 
L 386.564035 170.88724 
L 386.690878 175.941506 
L 386.754299 175.17054 
L 386.881142 168.916921 
L 386.944564 171.358368 
L 387.007985 170.159096 
L 387.19825 158.037424 
L 387.451936 168.531438 
L 387.578779 173.500059 
L 387.6422 171.358368 
L 387.705621 172.386432 
L 387.769043 173.628526 
L 388.022729 167.460633 
L 388.08615 168.445793 
L 388.149572 168.617082 
L 388.276415 163.477172 
L 388.339836 163.905477 
L 388.466679 170.416112 
L 388.530101 167.289262 
L 388.593522 167.332085 
L 388.720365 174.056913 
L 388.783787 173.671348 
L 388.91063 174.913524 
L 389.35458 198.086066 
L 389.418001 195.858812 
L 389.608266 203.654363 
L 389.671687 207.295163 
L 389.735109 206.567019 
L 389.861952 201.555576 
L 390.115638 211.621285 
L 390.242481 210.164998 
L 390.305902 210.379109 
L 390.369324 210.807497 
L 390.496167 108.950973 
L 390.876695 97.814378 
L 390.940117 98.114217 
L 391.06696 101.283889 
L 391.130381 100.555664 
L 391.447489 87.234719 
L 391.51091 90.404391 
L 391.574332 90.104553 
L 391.701175 80.895374 
L 391.828018 85.735527 
L 392.018282 78.753765 
L 392.081703 78.83941 
L 392.398811 66.674914 
L 392.462232 67.146042 
L 392.589075 80.081667 
L 392.652497 77.640056 
L 392.77934 72.500228 
L 392.906183 71.04394 
L 393.033026 72.971355 
L 393.096447 73.399743 
L 393.22329 80.295697 
L 393.286712 78.111348 
L 393.350133 79.439086 
L 393.413554 80.724084 
L 393.476976 80.167311 
L 393.540397 79.524731 
L 393.794083 71.001036 
L 393.857505 71.900551 
L 393.984348 80.081667 
L 394.047769 77.126188 
L 394.111191 79.053603 
L 394.174612 84.236336 
L 394.238034 82.523114 
L 394.301455 78.196992 
L 394.364877 78.753765 
L 394.428298 79.224893 
L 394.49172 77.297477 
L 394.555141 78.368282 
L 394.681984 79.48199 
L 394.745406 83.636659 
L 394.808827 82.137631 
L 394.872248 77.126188 
L 394.93567 78.83941 
L 394.999091 79.824569 
L 395.125934 73.699581 
L 395.189356 74.556192 
L 395.443042 71.215229 
L 395.569885 81.366665 
L 395.760149 98.585344 
L 395.886992 94.173578 
L 396.013835 99.35631 
L 396.077257 94.087933 
L 396.140678 94.944544 
L 396.267521 105.567107 
L 396.330942 104.839045 
L 396.394364 106.252428 
L 396.521207 99.656149 
L 396.584628 105.395817 
L 396.64805 104.839045 
L 396.774893 96.615025 
L 396.838314 97.000508 
L 396.901736 93.745354 
L 396.965157 95.972607 
L 397.155422 111.221131 
L 397.218843 109.465005 
L 397.282265 105.395817 
L 397.345686 106.637911 
L 397.535951 109.936133 
L 397.599372 110.021778 
L 397.726215 111.306775 
L 397.916479 109.764843 
L 397.979901 109.978874 
L 398.106744 110.535809 
L 398.170165 109.721939 
L 398.297008 104.239368 
L 398.36043 108.865328 
L 398.423851 108.522586 
L 398.487273 104.667592 
L 398.487273 104.667592 
" clip-path="url(#pa65ea1b398)" style="fill: none; stroke: #1f77b4; stroke-width: 1.5; stroke-linecap: square"/>
   </g>
   <g id="patch_3">
    <path d="M 57.6 307.584 
L 57.6 41.472 
" style="fill: none; stroke: #000000; stroke-width: 0.8; stroke-linejoin: miter; stroke-linecap: square"/>
   </g>
   <g id="patch_4">
    <path d="M 414.72 307.584 
L 414.72 41.472 
" style="fill: none; stroke: #000000; stroke-width: 0.8; stroke-linejoin: miter; stroke-linecap: square"/>
   </g>
   <g id="patch_5">
    <path d="M 57.6 307.584 
L 414.72 307.584 
" style="fill: none; stroke: #000000; stroke-width: 0.8; stroke-linejoin: miter; stroke-linecap: square"/>
   </g>
   <g id="patch_6">
    <path d="M 57.6 41.472 
L 414.72 41.472 
" style="fill: none; stroke: #000000; stroke-width: 0.8; stroke-linejoin: miter; stroke-linecap: square"/>
   </g>
   <g id="legend_1">
    <g id="patch_7">
     <path d="M 354.074688 64.150125 
L 407.72 64.150125 
Q 409.72 64.150125 409.72 62.150125 
L 409.72 48.472 
Q 409.72 46.472 407.72 46.472 
L 354.074688 46.472 
Q 352.074688 46.472 352.074688 48.472 
L 352.074688 62.150125 
Q 352.074688 64.150125 354.074688 64.150125 
z
" style="fill: #ffffff; opacity: 0.8; stroke: #cccccc; stroke-linejoin: miter"/>
    </g>
    <g id="line2d_16">
     <path d="M 356.074688 54.570438 
L 366.074688 54.570438 
L 376.074688 54.570438 
" style="fill: none; stroke: #1f77b4; stroke-width: 1.5; stroke-linecap: square"/>
    </g>
    <g id="text_15">
     <!-- set1 -->
     <g transform="translate(384.074688 58.070438)scale(0.1 -0.1)">
      <defs>
       <path id="DejaVuSans-73" d="M 2834 3397 
L 2834 2853 
Q 2591 2978 2328 3040 
Q 2066 3103 1784 3103 
Q 1356 3103 1142 2972 
Q 928 2841 928 2578 
Q 928 2378 1081 2264 
Q 1234 2150 1697 2047 
L 1894 2003 
Q 2506 1872 2764 1633 
Q 3022 1394 3022 966 
Q 3022 478 2636 193 
Q 2250 -91 1575 -91 
Q 1294 -91 989 -36 
Q 684 19 347 128 
L 347 722 
Q 666 556 975 473 
Q 1284 391 1588 391 
Q 1994 391 2212 530 
Q 2431 669 2431 922 
Q 2431 1156 2273 1281 
Q 2116 1406 1581 1522 
L 1381 1569 
Q 847 1681 609 1914 
Q 372 2147 372 2553 
Q 372 3047 722 3315 
Q 1072 3584 1716 3584 
Q 2034 3584 2315 3537 
Q 2597 3491 2834 3397 
z
" transform="scale(0.015625)"/>
       <path id="DejaVuSans-65" d="M 3597 1894 
L 3597 1613 
L 953 1613 
Q 991 1019 1311 708 
Q 1631 397 2203 397 
Q 2534 397 2845 478 
Q 3156 559 3463 722 
L 3463 178 
Q 3153 47 2828 -22 
Q 2503 -91 2169 -91 
Q 1331 -91 842 396 
Q 353 884 353 1716 
Q 353 2575 817 3079 
Q 1281 3584 2069 3584 
Q 2775 3584 3186 3129 
Q 3597 2675 3597 1894 
z
M 3022 2063 
Q 3016 2534 2758 2815 
Q 2500 3097 2075 3097 
Q 1594 3097 1305 2825 
Q 1016 2553 972 2059 
L 3022 2063 
z
" transform="scale(0.015625)"/>
       <path id="DejaVuSans-74" d="M 1172 4494 
L 1172 3500 
L 2356 3500 
L 2356 3053 
L 1172 3053 
L 1172 1153 
Q 1172 725 1289 603 
Q 1406 481 1766 481 
L 2356 481 
L 2356 0 
L 1766 0 
Q 1100 0 847 248 
Q 594 497 594 1153 
L 594 3053 
L 172 3053 
L 172 3500 
L 594 3500 
L 594 4494 
L 1172 4494 
z
" transform="scale(0.015625)"/>
      </defs>
      <use xlink:href="#DejaVuSans-73"/>
      <use xlink:href="#DejaVuSans-65" x="52.099609"/>
      <use xlink:href="#DejaVuSans-74" x="113.623047"/>
      <use xlink:href="#DejaVuSans-31" x="152.832031"/>
     </g>
    </g>
   </g>
  </g>
 </g>
 <defs>
  <clipPath id="pa65ea1b398">
   <rect x="57.6" y="41.472" width="357.12" height="266.112"/>
  </clipPath>
 </defs>
</svg>
