<?xml version="1.0" encoding="utf-8" standalone="no"?>
<!DOCTYPE svg PUBLIC "-//W3C//DTD SVG 1.1//EN"
  "http://www.w3.org/Graphics/SVG/1.1/DTD/svg11.dtd">
<svg xmlns:xlink="http://www.w3.org/1999/xlink" width="460.8pt" height="345.6pt" viewBox="0 0 460.8 345.6" xmlns="http://www.w3.org/2000/svg" version="1.1">
 <metadata>
  <rdf:RDF xmlns:dc="http://purl.org/dc/elements/1.1/" xmlns:cc="http://creativecommons.org/ns#" xmlns:rdf="http://www.w3.org/1999/02/22-rdf-syntax-ns#">
   <cc:Work>
    <dc:type rdf:resource="http://purl.org/dc/dcmitype/StillImage"/>
    <dc:date>2022-08-11T15:19:08.108571</dc:date>
    <dc:format>image/svg+xml</dc:format>
    <dc:creator>
     <cc:Agent>
      <dc:title>Matplotlib v3.5.2, https://matplotlib.org/</dc:title>
     </cc:Agent>
    </dc:creator>
   </cc:Work>
  </rdf:RDF>
 </metadata>
 <defs>
  <style type="text/css">*{stroke-linejoin: round; stroke-linecap: butt}</style>
 </defs>
 <g id="figure_1">
  <g id="patch_1">
   <path d="M 0 345.6 
L 460.8 345.6 
L 460.8 0 
L 0 0 
z
" style="fill: #ffffff"/>
  </g>
  <g id="axes_1">
   <g id="patch_2">
    <path d="M 57.6 307.584 
L 414.72 307.584 
L 414.72 41.472 
L 57.6 41.472 
z
" style="fill: #ffffff"/>
   </g>
   <g id="matplotlib.axis_1">
    <g id="xtick_1">
     <g id="line2d_1">
      <defs>
       <path id="mb3f053d8c7" d="M 0 0 
L 0 3.5 
" style="stroke: #000000; stroke-width: 0.8"/>
      </defs>
      <g>
       <use xlink:href="#mb3f053d8c7" x="73.832727" y="307.584" style="stroke: #000000; stroke-width: 0.8"/>
      </g>
     </g>
     <g id="text_1">
      <!-- 0 -->
      <g transform="translate(70.651477 322.182437)scale(0.1 -0.1)">
       <defs>
        <path id="DejaVuSans-30" d="M 2034 4250 
Q 1547 4250 1301 3770 
Q 1056 3291 1056 2328 
Q 1056 1369 1301 889 
Q 1547 409 2034 409 
Q 2525 409 2770 889 
Q 3016 1369 3016 2328 
Q 3016 3291 2770 3770 
Q 2525 4250 2034 4250 
z
M 2034 4750 
Q 2819 4750 3233 4129 
Q 3647 3509 3647 2328 
Q 3647 1150 3233 529 
Q 2819 -91 2034 -91 
Q 1250 -91 836 529 
Q 422 1150 422 2328 
Q 422 3509 836 4129 
Q 1250 4750 2034 4750 
z
" transform="scale(0.015625)"/>
       </defs>
       <use xlink:href="#DejaVuSans-30"/>
      </g>
     </g>
    </g>
    <g id="xtick_2">
     <g id="line2d_2">
      <g>
       <use xlink:href="#mb3f053d8c7" x="137.254205" y="307.584" style="stroke: #000000; stroke-width: 0.8"/>
      </g>
     </g>
     <g id="text_2">
      <!-- 1000 -->
      <g transform="translate(124.529205 322.182437)scale(0.1 -0.1)">
       <defs>
        <path id="DejaVuSans-31" d="M 794 531 
L 1825 531 
L 1825 4091 
L 703 3866 
L 703 4441 
L 1819 4666 
L 2450 4666 
L 2450 531 
L 3481 531 
L 3481 0 
L 794 0 
L 794 531 
z
" transform="scale(0.015625)"/>
       </defs>
       <use xlink:href="#DejaVuSans-31"/>
       <use xlink:href="#DejaVuSans-30" x="63.623047"/>
       <use xlink:href="#DejaVuSans-30" x="127.246094"/>
       <use xlink:href="#DejaVuSans-30" x="190.869141"/>
      </g>
     </g>
    </g>
    <g id="xtick_3">
     <g id="line2d_3">
      <g>
       <use xlink:href="#mb3f053d8c7" x="200.675683" y="307.584" style="stroke: #000000; stroke-width: 0.8"/>
      </g>
     </g>
     <g id="text_3">
      <!-- 2000 -->
      <g transform="translate(187.950683 322.182437)scale(0.1 -0.1)">
       <defs>
        <path id="DejaVuSans-32" d="M 1228 531 
L 3431 531 
L 3431 0 
L 469 0 
L 469 531 
Q 828 903 1448 1529 
Q 2069 2156 2228 2338 
Q 2531 2678 2651 2914 
Q 2772 3150 2772 3378 
Q 2772 3750 2511 3984 
Q 2250 4219 1831 4219 
Q 1534 4219 1204 4116 
Q 875 4013 500 3803 
L 500 4441 
Q 881 4594 1212 4672 
Q 1544 4750 1819 4750 
Q 2544 4750 2975 4387 
Q 3406 4025 3406 3419 
Q 3406 3131 3298 2873 
Q 3191 2616 2906 2266 
Q 2828 2175 2409 1742 
Q 1991 1309 1228 531 
z
" transform="scale(0.015625)"/>
       </defs>
       <use xlink:href="#DejaVuSans-32"/>
       <use xlink:href="#DejaVuSans-30" x="63.623047"/>
       <use xlink:href="#DejaVuSans-30" x="127.246094"/>
       <use xlink:href="#DejaVuSans-30" x="190.869141"/>
      </g>
     </g>
    </g>
    <g id="xtick_4">
     <g id="line2d_4">
      <g>
       <use xlink:href="#mb3f053d8c7" x="264.097161" y="307.584" style="stroke: #000000; stroke-width: 0.8"/>
      </g>
     </g>
     <g id="text_4">
      <!-- 3000 -->
      <g transform="translate(251.372161 322.182437)scale(0.1 -0.1)">
       <defs>
        <path id="DejaVuSans-33" d="M 2597 2516 
Q 3050 2419 3304 2112 
Q 3559 1806 3559 1356 
Q 3559 666 3084 287 
Q 2609 -91 1734 -91 
Q 1441 -91 1130 -33 
Q 819 25 488 141 
L 488 750 
Q 750 597 1062 519 
Q 1375 441 1716 441 
Q 2309 441 2620 675 
Q 2931 909 2931 1356 
Q 2931 1769 2642 2001 
Q 2353 2234 1838 2234 
L 1294 2234 
L 1294 2753 
L 1863 2753 
Q 2328 2753 2575 2939 
Q 2822 3125 2822 3475 
Q 2822 3834 2567 4026 
Q 2313 4219 1838 4219 
Q 1578 4219 1281 4162 
Q 984 4106 628 3988 
L 628 4550 
Q 988 4650 1302 4700 
Q 1616 4750 1894 4750 
Q 2613 4750 3031 4423 
Q 3450 4097 3450 3541 
Q 3450 3153 3228 2886 
Q 3006 2619 2597 2516 
z
" transform="scale(0.015625)"/>
       </defs>
       <use xlink:href="#DejaVuSans-33"/>
       <use xlink:href="#DejaVuSans-30" x="63.623047"/>
       <use xlink:href="#DejaVuSans-30" x="127.246094"/>
       <use xlink:href="#DejaVuSans-30" x="190.869141"/>
      </g>
     </g>
    </g>
    <g id="xtick_5">
     <g id="line2d_5">
      <g>
       <use xlink:href="#mb3f053d8c7" x="327.518639" y="307.584" style="stroke: #000000; stroke-width: 0.8"/>
      </g>
     </g>
     <g id="text_5">
      <!-- 4000 -->
      <g transform="translate(314.793639 322.182437)scale(0.1 -0.1)">
       <defs>
        <path id="DejaVuSans-34" d="M 2419 4116 
L 825 1625 
L 2419 1625 
L 2419 4116 
z
M 2253 4666 
L 3047 4666 
L 3047 1625 
L 3713 1625 
L 3713 1100 
L 3047 1100 
L 3047 0 
L 2419 0 
L 2419 1100 
L 313 1100 
L 313 1709 
L 2253 4666 
z
" transform="scale(0.015625)"/>
       </defs>
       <use xlink:href="#DejaVuSans-34"/>
       <use xlink:href="#DejaVuSans-30" x="63.623047"/>
       <use xlink:href="#DejaVuSans-30" x="127.246094"/>
       <use xlink:href="#DejaVuSans-30" x="190.869141"/>
      </g>
     </g>
    </g>
    <g id="xtick_6">
     <g id="line2d_6">
      <g>
       <use xlink:href="#mb3f053d8c7" x="390.940117" y="307.584" style="stroke: #000000; stroke-width: 0.8"/>
      </g>
     </g>
     <g id="text_6">
      <!-- 5000 -->
      <g transform="translate(378.215117 322.182437)scale(0.1 -0.1)">
       <defs>
        <path id="DejaVuSans-35" d="M 691 4666 
L 3169 4666 
L 3169 4134 
L 1269 4134 
L 1269 2991 
Q 1406 3038 1543 3061 
Q 1681 3084 1819 3084 
Q 2600 3084 3056 2656 
Q 3513 2228 3513 1497 
Q 3513 744 3044 326 
Q 2575 -91 1722 -91 
Q 1428 -91 1123 -41 
Q 819 9 494 109 
L 494 744 
Q 775 591 1075 516 
Q 1375 441 1709 441 
Q 2250 441 2565 725 
Q 2881 1009 2881 1497 
Q 2881 1984 2565 2268 
Q 2250 2553 1709 2553 
Q 1456 2553 1204 2497 
Q 953 2441 691 2322 
L 691 4666 
z
" transform="scale(0.015625)"/>
       </defs>
       <use xlink:href="#DejaVuSans-35"/>
       <use xlink:href="#DejaVuSans-30" x="63.623047"/>
       <use xlink:href="#DejaVuSans-30" x="127.246094"/>
       <use xlink:href="#DejaVuSans-30" x="190.869141"/>
      </g>
     </g>
    </g>
   </g>
   <g id="matplotlib.axis_2">
    <g id="ytick_1">
     <g id="line2d_7">
      <defs>
       <path id="me60c4eb7b9" d="M 0 0 
L -3.5 0 
" style="stroke: #000000; stroke-width: 0.8"/>
      </defs>
      <g>
       <use xlink:href="#me60c4eb7b9" x="57.6" y="302.848727" style="stroke: #000000; stroke-width: 0.8"/>
      </g>
     </g>
     <g id="text_7">
      <!-- 3950 -->
      <g transform="translate(25.15 306.647945)scale(0.1 -0.1)">
       <defs>
        <path id="DejaVuSans-39" d="M 703 97 
L 703 672 
Q 941 559 1184 500 
Q 1428 441 1663 441 
Q 2288 441 2617 861 
Q 2947 1281 2994 2138 
Q 2813 1869 2534 1725 
Q 2256 1581 1919 1581 
Q 1219 1581 811 2004 
Q 403 2428 403 3163 
Q 403 3881 828 4315 
Q 1253 4750 1959 4750 
Q 2769 4750 3195 4129 
Q 3622 3509 3622 2328 
Q 3622 1225 3098 567 
Q 2575 -91 1691 -91 
Q 1453 -91 1209 -44 
Q 966 3 703 97 
z
M 1959 2075 
Q 2384 2075 2632 2365 
Q 2881 2656 2881 3163 
Q 2881 3666 2632 3958 
Q 2384 4250 1959 4250 
Q 1534 4250 1286 3958 
Q 1038 3666 1038 3163 
Q 1038 2656 1286 2365 
Q 1534 2075 1959 2075 
z
" transform="scale(0.015625)"/>
       </defs>
       <use xlink:href="#DejaVuSans-33"/>
       <use xlink:href="#DejaVuSans-39" x="63.623047"/>
       <use xlink:href="#DejaVuSans-35" x="127.246094"/>
       <use xlink:href="#DejaVuSans-30" x="190.869141"/>
      </g>
     </g>
    </g>
    <g id="ytick_2">
     <g id="line2d_8">
      <g>
       <use xlink:href="#me60c4eb7b9" x="57.6" y="270.952555" style="stroke: #000000; stroke-width: 0.8"/>
      </g>
     </g>
     <g id="text_8">
      <!-- 4000 -->
      <g transform="translate(25.15 274.751774)scale(0.1 -0.1)">
       <use xlink:href="#DejaVuSans-34"/>
       <use xlink:href="#DejaVuSans-30" x="63.623047"/>
       <use xlink:href="#DejaVuSans-30" x="127.246094"/>
       <use xlink:href="#DejaVuSans-30" x="190.869141"/>
      </g>
     </g>
    </g>
    <g id="ytick_3">
     <g id="line2d_9">
      <g>
       <use xlink:href="#me60c4eb7b9" x="57.6" y="239.056384" style="stroke: #000000; stroke-width: 0.8"/>
      </g>
     </g>
     <g id="text_9">
      <!-- 4050 -->
      <g transform="translate(25.15 242.855603)scale(0.1 -0.1)">
       <use xlink:href="#DejaVuSans-34"/>
       <use xlink:href="#DejaVuSans-30" x="63.623047"/>
       <use xlink:href="#DejaVuSans-35" x="127.246094"/>
       <use xlink:href="#DejaVuSans-30" x="190.869141"/>
      </g>
     </g>
    </g>
    <g id="ytick_4">
     <g id="line2d_10">
      <g>
       <use xlink:href="#me60c4eb7b9" x="57.6" y="207.160213" style="stroke: #000000; stroke-width: 0.8"/>
      </g>
     </g>
     <g id="text_10">
      <!-- 4100 -->
      <g transform="translate(25.15 210.959432)scale(0.1 -0.1)">
       <use xlink:href="#DejaVuSans-34"/>
       <use xlink:href="#DejaVuSans-31" x="63.623047"/>
       <use xlink:href="#DejaVuSans-30" x="127.246094"/>
       <use xlink:href="#DejaVuSans-30" x="190.869141"/>
      </g>
     </g>
    </g>
    <g id="ytick_5">
     <g id="line2d_11">
      <g>
       <use xlink:href="#me60c4eb7b9" x="57.6" y="175.264041" style="stroke: #000000; stroke-width: 0.8"/>
      </g>
     </g>
     <g id="text_11">
      <!-- 4150 -->
      <g transform="translate(25.15 179.06326)scale(0.1 -0.1)">
       <use xlink:href="#DejaVuSans-34"/>
       <use xlink:href="#DejaVuSans-31" x="63.623047"/>
       <use xlink:href="#DejaVuSans-35" x="127.246094"/>
       <use xlink:href="#DejaVuSans-30" x="190.869141"/>
      </g>
     </g>
    </g>
    <g id="ytick_6">
     <g id="line2d_12">
      <g>
       <use xlink:href="#me60c4eb7b9" x="57.6" y="143.36787" style="stroke: #000000; stroke-width: 0.8"/>
      </g>
     </g>
     <g id="text_12">
      <!-- 4200 -->
      <g transform="translate(25.15 147.167089)scale(0.1 -0.1)">
       <use xlink:href="#DejaVuSans-34"/>
       <use xlink:href="#DejaVuSans-32" x="63.623047"/>
       <use xlink:href="#DejaVuSans-30" x="127.246094"/>
       <use xlink:href="#DejaVuSans-30" x="190.869141"/>
      </g>
     </g>
    </g>
    <g id="ytick_7">
     <g id="line2d_13">
      <g>
       <use xlink:href="#me60c4eb7b9" x="57.6" y="111.471699" style="stroke: #000000; stroke-width: 0.8"/>
      </g>
     </g>
     <g id="text_13">
      <!-- 4250 -->
      <g transform="translate(25.15 115.270918)scale(0.1 -0.1)">
       <use xlink:href="#DejaVuSans-34"/>
       <use xlink:href="#DejaVuSans-32" x="63.623047"/>
       <use xlink:href="#DejaVuSans-35" x="127.246094"/>
       <use xlink:href="#DejaVuSans-30" x="190.869141"/>
      </g>
     </g>
    </g>
    <g id="ytick_8">
     <g id="line2d_14">
      <g>
       <use xlink:href="#me60c4eb7b9" x="57.6" y="79.575528" style="stroke: #000000; stroke-width: 0.8"/>
      </g>
     </g>
     <g id="text_14">
      <!-- 4300 -->
      <g transform="translate(25.15 83.374746)scale(0.1 -0.1)">
       <use xlink:href="#DejaVuSans-34"/>
       <use xlink:href="#DejaVuSans-33" x="63.623047"/>
       <use xlink:href="#DejaVuSans-30" x="127.246094"/>
       <use xlink:href="#DejaVuSans-30" x="190.869141"/>
      </g>
     </g>
    </g>
    <g id="ytick_9">
     <g id="line2d_15">
      <g>
       <use xlink:href="#me60c4eb7b9" x="57.6" y="47.679356" style="stroke: #000000; stroke-width: 0.8"/>
      </g>
     </g>
     <g id="text_15">
      <!-- 4350 -->
      <g transform="translate(25.15 51.478575)scale(0.1 -0.1)">
       <use xlink:href="#DejaVuSans-34"/>
       <use xlink:href="#DejaVuSans-33" x="63.623047"/>
       <use xlink:href="#DejaVuSans-35" x="127.246094"/>
       <use xlink:href="#DejaVuSans-30" x="190.869141"/>
      </g>
     </g>
    </g>
   </g>
   <g id="line2d_16">
    <path d="M 73.832727 201.598941 
L 73.95957 204.297656 
L 74.022992 203.725144 
L 74.149835 201.435411 
L 74.213256 202.007611 
L 74.340099 204.543107 
L 74.403521 202.907494 
L 74.530364 207.569194 
L 74.593785 205.361069 
L 74.657206 202.007611 
L 74.720628 203.152633 
L 74.784049 204.379577 
L 74.847471 203.561615 
L 74.910892 203.643535 
L 75.037735 201.68055 
L 75.101157 203.643535 
L 75.481686 176.245534 
L 75.545107 176.654515 
L 75.735372 182.297708 
L 75.798793 184.178461 
L 75.862215 183.442419 
L 75.925636 184.096851 
L 75.989058 187.122938 
L 76.1159 180.416643 
L 76.179322 182.869908 
L 76.306165 187.368078 
L 76.369586 187.449999 
L 76.496429 192.766131 
L 76.559851 192.03009 
L 76.623272 191.539187 
L 76.750115 192.929661 
L 76.876958 189.249142 
L 77.003801 192.929661 
L 77.067223 192.19362 
L 77.130644 191.784639 
L 77.257487 196.528259 
L 77.38433 193.338642 
L 77.447752 194.156293 
L 77.511173 193.420252 
L 77.574594 195.301316 
L 77.701437 201.598941 
L 77.764859 198.736384 
L 77.82828 200.862899 
L 77.891702 203.480005 
L 77.955123 201.926001 
L 78.018545 201.598941 
L 78.208809 203.643535 
L 78.335652 204.870167 
L 78.589338 202.416592 
L 78.716181 203.316163 
L 78.843024 202.743963 
L 78.969867 207.405664 
L 79.033288 206.17872 
L 79.160131 201.108039 
L 79.286974 206.01519 
L 79.477239 203.807065 
L 79.54066 203.725144 
L 79.667503 206.260641 
L 79.794346 202.743963 
L 79.857768 204.543107 
L 79.921189 202.416592 
L 79.984611 202.825573 
L 80.111454 209.613788 
L 80.238297 202.825573 
L 80.301718 204.216047 
L 80.365139 204.134126 
L 80.491982 202.089532 
L 80.555404 202.743963 
L 80.682247 195.383237 
L 80.745668 197.673282 
L 80.80909 203.071024 
L 80.872511 200.535527 
L 81.062776 192.19362 
L 81.189619 200.126546 
L 81.25304 197.100771 
L 81.316462 192.275229 
L 81.379883 192.438759 
L 81.443305 192.602601 
L 81.506726 191.948169 
L 81.570148 192.35715 
L 81.823833 180.416643 
L 81.887255 181.725197 
L 81.950676 173.055917 
L 82.014098 178.617189 
L 82.140941 182.951829 
L 82.204362 183.19728 
L 82.267784 183.033749 
L 82.394627 180.907234 
L 82.52147 190.476085 
L 82.584891 188.595021 
L 82.648313 184.178461 
L 82.711734 186.877487 
L 82.775156 190.312556 
L 82.838577 188.676942 
L 83.219106 181.725197 
L 83.282527 182.951829 
L 83.40937 192.929661 
L 83.472792 190.230635 
L 83.663056 183.278889 
L 83.789899 180.580174 
L 84.170428 192.766131 
L 84.297271 183.442419 
L 84.360693 184.669362 
L 84.424114 184.832893 
L 84.550957 181.970336 
L 84.741221 189.494593 
L 84.804643 188.595021 
L 84.931486 192.602601 
L 85.058329 189.004002 
L 85.185172 193.093191 
L 85.248593 192.35715 
L 85.375436 188.431491 
L 85.565701 191.048597 
L 85.755965 195.301316 
L 85.819387 194.565275 
L 86.009651 190.230635 
L 86.073073 190.803146 
L 86.136494 190.476085 
L 86.263337 189.903574 
L 86.39018 192.52068 
L 86.453601 191.784639 
L 86.517023 190.721537 
L 86.643866 192.766131 
L 86.707287 191.784639 
L 86.770709 192.766131 
L 86.83413 192.275229 
L 86.897552 190.230635 
L 86.960973 190.885067 
L 87.024395 191.866559 
L 87.087816 190.885067 
L 87.151238 191.539187 
L 87.214659 191.048597 
L 87.341502 186.959408 
L 87.531767 191.948169 
L 87.595188 191.866559 
L 87.658609 188.34957 
L 87.722031 188.431491 
L 87.785452 192.438759 
L 87.848874 191.948169 
L 87.975717 187.449999 
L 88.10256 193.338642 
L 88.165981 192.438759 
L 88.229403 191.866559 
L 88.419667 193.583782 
L 88.54651 184.914814 
L 88.609932 187.449999 
L 88.736775 192.35715 
L 88.800196 192.19362 
L 88.863618 193.256721 
L 88.927039 192.84774 
L 89.053882 192.68421 
L 89.117303 191.457578 
L 89.180725 191.948169 
L 89.370989 193.829233 
L 89.497832 192.84774 
L 89.624675 195.383237 
L 89.751518 191.375658 
L 90.005204 194.647195 
L 90.068626 184.423912 
L 90.132047 189.658123 
L 90.195469 188.922082 
L 90.25889 182.542847 
L 90.322312 183.033749 
L 90.385733 186.550427 
L 90.449154 184.914814 
L 90.512576 182.951829 
L 90.575997 183.278889 
L 90.766262 189.494593 
L 90.956526 182.706378 
L 91.019948 181.970336 
L 91.083369 182.052257 
L 91.146791 182.951829 
L 91.337055 180.743704 
L 91.400477 180.498253 
L 91.463898 180.743704 
L 91.52732 180.416643 
L 91.654163 182.788299 
L 91.717584 182.215787 
L 91.781006 180.580174 
L 91.844427 180.907234 
L 91.907848 181.643276 
L 92.034691 180.416643 
L 92.098113 182.215787 
L 92.161534 181.234295 
L 92.288377 174.037409 
L 92.351799 174.20094 
L 92.478642 172.892387 
L 92.542063 174.446079 
L 92.605485 174.20094 
L 92.732328 171.665443 
L 92.922592 178.780719 
L 92.986014 177.717617 
L 93.112857 174.36447 
L 93.2397 180.007662 
L 93.366542 173.219447 
L 93.493385 177.717617 
L 93.620228 182.052257 
L 93.747071 177.635696 
L 93.810493 180.498253 
L 93.937336 175.100511 
L 94.064179 180.171193 
L 94.254443 172.892387 
L 94.317865 170.929402 
L 94.381286 172.401484 
L 94.444708 173.791959 
L 94.508129 173.137526 
L 94.634972 171.256462 
L 94.698394 171.665443 
L 94.825236 172.237955 
L 94.888658 172.319876 
L 94.952079 172.892387 
L 95.078922 175.591102 
L 95.205765 172.237955 
L 95.332608 173.955488 
L 95.459451 171.910894 
L 95.522873 172.074424 
L 95.713137 174.609609 
L 95.776559 174.446079 
L 95.83998 174.36447 
L 95.966823 175.01859 
L 96.030245 173.219447 
L 96.157087 180.334723 
L 96.220509 176.981576 
L 96.28393 174.69153 
L 96.347352 180.171193 
L 96.410773 179.680291 
L 96.474195 173.301057 
L 96.537616 175.01859 
L 96.664459 181.397824 
L 96.791302 177.390557 
L 96.854724 178.780719 
L 96.918145 183.442419 
L 96.981567 182.869908 
L 97.044988 179.844132 
L 97.10841 181.397824 
L 97.171831 181.806806 
L 97.235253 178.69911 
L 97.298674 179.598681 
L 97.425517 183.278889 
L 97.55236 178.69911 
L 97.615781 181.561355 
L 97.679203 180.988843 
L 97.806046 171.011322 
L 97.932889 181.234295 
L 97.99631 178.780719 
L 98.059732 179.844132 
L 98.123153 181.888727 
L 98.186575 180.252802 
L 98.313418 183.033749 
L 98.757368 180.580174 
L 98.82079 180.743704 
L 99.011054 181.561355 
L 99.137897 175.427572 
L 99.201318 177.063185 
L 99.328161 183.033749 
L 99.518426 180.416643 
L 99.581847 182.052257 
L 99.772112 172.973996 
L 99.835533 173.955488 
L 99.962376 182.379318 
L 100.025798 181.806806 
L 100.089219 179.925742 
L 100.152641 181.970336 
L 100.216062 180.416643 
L 100.342905 174.037409 
L 100.406327 175.591102 
L 100.469748 174.85506 
L 100.533169 173.710038 
L 100.660012 176.572595 
L 100.786855 174.119019 
L 100.97712 179.35323 
L 101.040541 177.472166 
L 101.103963 176.327143 
L 101.167384 178.780719 
L 101.230806 177.717617 
L 101.357649 172.483405 
L 101.547913 175.01859 
L 101.674756 174.36447 
L 101.738178 175.264041 
L 101.801599 174.36447 
L 101.928442 177.717617 
L 101.991863 175.754632 
L 102.055285 174.69153 
L 102.245549 180.498253 
L 102.372392 174.20094 
L 102.499235 183.442419 
L 102.562657 182.542847 
L 102.626078 178.944249 
L 102.6895 179.271621 
L 102.752921 179.598681 
L 103.070029 172.810466 
L 103.13345 173.955488 
L 103.260293 171.011322 
L 103.387136 175.100511 
L 103.513979 171.583834 
L 103.640822 176.082004 
L 103.704243 173.873567 
L 103.831086 180.498253 
L 103.894508 179.02617 
L 104.021351 173.137526 
L 104.148194 176.082004 
L 104.40188 170.765871 
L 104.465301 171.583834 
L 104.528723 174.119019 
L 104.592144 173.710038 
L 104.655566 174.528 
L 104.782408 180.416643 
L 104.909251 171.747364 
L 105.036094 178.371738 
L 105.099516 176.245534 
L 105.162937 172.401484 
L 105.226359 173.628428 
L 105.480045 180.171193 
L 105.606888 173.137526 
L 105.797152 176.818045 
L 105.923995 183.442419 
L 106.050838 179.680291 
L 106.11426 179.762212 
L 106.177681 179.680291 
L 106.241102 180.252802 
L 106.431367 169.784379 
L 106.55821 177.063185 
L 106.621631 175.836553 
L 106.685053 175.591102 
L 106.811896 185.977916 
L 106.938739 178.126598 
L 107.129003 181.725197 
L 107.382689 182.542847 
L 107.509532 182.379318 
L 107.572954 182.869908 
L 107.699796 180.743704 
L 107.826639 182.461238 
L 107.890061 181.316216 
L 107.953482 182.052257 
L 108.27059 192.929661 
L 108.397433 188.676942 
L 108.460854 189.658123 
L 108.524276 189.249142 
L 108.587697 189.494593 
L 108.651119 190.557695 
L 108.71454 189.494593 
L 108.904805 182.215787 
L 108.968226 182.869908 
L 109.031648 182.215787 
L 109.285333 187.940589 
L 109.412176 191.457578 
L 109.539019 188.34957 
L 109.665862 192.275229 
L 109.98297 170.602341 
L 110.046391 170.11144 
L 110.173234 163.160005 
L 110.236656 164.713698 
L 110.300077 162.996163 
L 110.363499 164.468558 
L 110.490342 170.765871 
L 110.553763 168.394217 
L 110.680606 173.628428 
L 110.744027 171.583834 
L 110.807449 172.237955 
L 110.87087 172.892387 
L 110.934292 171.501913 
L 110.997713 171.992503 
L 111.061135 172.401484 
L 111.124556 171.747364 
L 111.441664 181.806806 
L 111.568507 174.85506 
L 111.69535 184.178461 
L 111.758771 180.988843 
L 111.822193 179.516761 
L 111.949036 190.639616 
L 112.012457 187.85898 
L 112.075878 182.052257 
L 112.1393 182.624768 
L 112.392986 192.602601 
L 112.456407 192.438759 
L 112.58325 200.290388 
L 112.710093 192.35715 
L 112.836936 198.081952 
L 112.963779 193.256721 
L 113.154044 199.472425 
L 113.280887 201.68055 
L 113.471151 194.728804 
L 113.534572 197.509441 
L 113.597994 202.662042 
L 113.661415 201.926001 
L 113.724837 198.245794 
L 113.788258 199.554346 
L 113.85168 202.416592 
L 113.915101 201.926001 
L 113.978523 199.717877 
L 114.041944 200.126546 
L 114.29563 202.416592 
L 114.359052 201.108039 
L 114.422473 201.271569 
L 114.485895 201.18996 
L 114.612738 203.316163 
L 114.676159 203.071024 
L 114.803002 201.68055 
L 114.929845 204.625028 
L 114.993266 203.970596 
L 115.056688 203.071024 
L 115.183531 204.870167 
L 115.310374 199.554346 
L 115.437217 205.93358 
L 115.56406 198.245794 
L 115.627481 200.617448 
L 115.690903 200.944509 
L 116.134853 160.297448 
L 116.325117 169.70277 
L 116.388539 173.137526 
L 116.45196 170.275281 
L 116.515382 170.847792 
L 116.578803 175.427572 
L 116.642225 175.345962 
L 116.769068 171.092932 
L 117.022754 185.078344 
L 117.086175 184.178461 
L 117.149597 183.68787 
L 117.27644 190.885067 
L 117.466704 182.133866 
L 117.530126 182.379318 
L 117.593547 184.423912 
L 117.656969 183.19728 
L 117.72039 183.8514 
L 117.847233 191.539187 
L 117.910654 188.02251 
L 117.974076 189.249142 
L 118.037497 193.665702 
L 118.100919 192.275229 
L 118.16434 190.394164 
L 118.291183 196.936929 
L 118.354605 194.238214 
L 118.418026 195.301316 
L 118.544869 201.84408 
L 118.608291 200.780979 
L 118.735134 204.052516 
L 118.798555 202.743963 
L 118.861977 203.480005 
L 118.925398 205.769739 
L 119.115663 200.453918 
L 119.179084 200.535527 
L 119.305927 205.442679 
L 119.369348 204.216047 
L 119.43277 203.398084 
L 119.559613 209.531867 
L 119.686456 200.862899 
L 119.749877 201.598941 
L 119.87672 208.468766 
L 119.940142 207.405664 
L 120.066985 208.959356 
L 120.130406 207.814645 
L 120.193828 208.141705 
L 120.257249 208.632296 
L 120.384092 211.658383 
L 120.510935 203.480005 
L 120.637778 217.465106 
L 120.701199 215.01153 
L 120.891464 206.914762 
L 120.954885 207.242134 
L 121.018307 206.669622 
L 121.081728 202.989103 
L 121.14515 203.480005 
L 121.208571 203.970596 
L 121.271993 199.472425 
L 121.335414 200.290388 
L 121.398836 202.089532 
L 121.652522 183.68787 
L 121.779365 197.100771 
L 121.969629 182.379318 
L 122.096472 182.052257 
L 122.223315 173.219447 
L 122.413579 161.769531 
L 122.477001 164.141186 
L 122.667265 184.260381 
L 122.730687 184.832893 
L 122.794108 186.468506 
L 122.85753 185.487325 
L 122.920951 181.316216 
L 122.984373 182.869908 
L 123.111216 192.929661 
L 123.174637 192.52068 
L 123.238059 192.35715 
L 123.30148 192.438759 
L 123.364902 192.84774 
L 123.428323 194.401744 
L 123.491744 193.502173 
L 123.808852 182.297708 
L 123.999116 195.383237 
L 124.062538 192.52068 
L 124.379645 182.052257 
L 124.443067 181.316216 
L 124.760174 194.892335 
L 124.950438 181.725197 
L 125.01386 181.970336 
L 125.077281 180.089272 
L 125.140703 180.416643 
L 125.45781 191.866559 
L 125.648075 184.505833 
L 125.711496 185.405404 
L 125.838339 192.438759 
L 125.965182 185.078344 
L 126.028604 186.632036 
L 126.28229 204.134126 
L 126.409132 202.825573 
L 126.599397 192.68421 
L 126.72624 194.074684 
L 126.853083 193.747312 
L 126.916504 193.338642 
L 126.979926 196.609869 
L 127.043347 195.955748 
L 127.106769 193.420252 
L 127.17019 195.873827 
L 127.233612 195.792218 
L 127.297033 194.074684 
L 127.360455 197.01885 
L 127.423876 196.037358 
L 127.487298 190.312556 
L 127.550719 191.212127 
L 127.614141 192.602601 
L 127.677562 191.457578 
L 127.740984 192.35715 
L 127.931248 182.379318 
L 127.994669 183.769791 
L 128.121512 183.033749 
L 128.184934 184.669362 
L 128.248355 183.68787 
L 128.311777 182.788299 
L 128.375198 184.750972 
L 128.43862 183.52434 
L 128.502041 180.416643 
L 128.565463 181.479745 
L 128.819149 187.940589 
L 128.945992 192.275229 
L 129.009413 190.394164 
L 129.136256 179.02617 
L 129.199677 179.435151 
L 129.32652 189.821653 
L 129.389942 189.658123 
L 129.516785 192.35715 
L 129.580206 190.721537 
L 129.707049 182.379318 
L 130.024157 193.829233 
L 130.151 185.078344 
L 130.214421 187.777059 
L 130.277843 192.35715 
L 130.404686 182.052257 
L 130.531529 194.565275 
L 130.59495 192.275229 
L 130.848636 178.290128 
L 130.912057 180.580174 
L 130.975479 183.933321 
L 131.102322 173.873567 
L 131.292586 181.643276 
L 131.356008 182.624768 
L 131.419429 182.133866 
L 131.546272 181.316216 
L 131.673115 172.728857 
L 131.736537 173.546507 
L 131.926801 170.02983 
L 132.053644 170.35689 
L 132.30733 172.810466 
L 132.434173 169.70277 
L 132.497594 171.174853 
L 132.561016 173.628428 
L 132.624437 172.401484 
L 132.75128 169.8663 
L 132.941545 163.405144 
L 133.068388 160.542588 
L 133.195231 164.059577 
L 133.258652 160.951569 
L 133.322074 161.03349 
L 133.448917 175.673022 
L 133.512338 174.85506 
L 133.575759 173.710038 
L 133.639181 174.69153 
L 133.702602 173.382978 
L 133.829445 179.02617 
L 133.892867 177.881147 
L 134.01971 171.256462 
L 134.209974 181.970336 
L 134.273396 177.881147 
L 134.336817 177.145105 
L 134.400239 179.108091 
L 134.527082 171.338383 
L 134.590503 173.546507 
L 134.653925 175.754632 
L 134.717346 174.282549 
L 134.844189 171.338383 
L 134.971032 172.156345 
L 135.034453 172.074424 
L 135.097875 172.156345 
L 135.224718 162.260122 
L 135.351561 171.174853 
L 135.414982 169.457319 
L 135.668668 178.944249 
L 135.795511 172.401484 
L 135.858933 172.973996 
L 135.922354 174.282549 
L 135.985776 173.710038 
L 136.049197 173.710038 
L 136.17604 173.055917 
L 136.302883 178.535579 
L 136.366304 177.963068 
L 136.429726 178.290128 
L 136.556569 180.988843 
L 136.683412 178.780719 
L 136.746833 178.944249 
L 136.810255 181.152685 
L 136.873676 180.907234 
L 136.937098 179.02617 
L 137.000519 180.171193 
L 137.063941 180.171193 
L 137.127362 178.044678 
L 137.254205 181.725197 
L 137.381048 173.464898 
L 137.507891 183.278889 
L 137.571313 181.725197 
L 137.824998 172.810466 
L 137.88842 174.446079 
L 137.951841 183.606261 
L 138.015263 182.542847 
L 138.078684 174.773451 
L 138.142106 177.145105 
L 138.268949 184.505833 
L 138.395792 173.137526 
L 138.522635 183.033749 
L 138.586056 181.152685 
L 138.649478 181.234295 
L 138.712899 184.178461 
L 138.776321 141.813866 
L 138.839742 142.141238 
L 138.903164 144.022302 
L 138.966585 143.69493 
L 139.283692 136.089064 
L 139.410535 134.37153 
L 139.473957 134.453451 
L 139.791064 130.854853 
L 139.917907 134.780511 
L 140.04475 131.999875 
L 140.108172 132.653996 
L 140.171593 133.144587 
L 140.298436 128.973788 
L 140.425279 122.512633 
L 140.552122 134.862121 
L 140.615544 133.88094 
L 140.678965 131.672504 
L 140.742386 132.326936 
L 140.805808 131.672504 
L 140.996072 123.494126 
L 141.059494 124.802679 
L 141.122915 124.720758 
L 141.186337 124.312088 
L 141.249758 122.431024 
L 141.31318 123.003535 
L 141.440023 130.445871 
L 141.503444 128.319356 
L 141.566866 128.810258 
L 141.693709 130.527481 
L 141.75713 129.055398 
L 141.947395 121.613062 
L 142.137659 123.821186 
L 142.264502 121.449531 
L 142.327923 123.412205 
L 142.391345 122.839693 
L 142.454766 123.494126 
L 142.581609 128.482886 
L 142.645031 124.148247 
L 142.708452 125.21166 
L 142.835295 133.635488 
L 142.898717 131.590894 
L 142.962138 131.917955 
L 143.088981 133.635488 
L 143.279246 130.527481 
L 143.406089 132.981056 
L 143.46951 131.917955 
L 143.659774 123.248675 
L 143.723196 123.739577 
L 143.850039 121.449531 
L 143.91346 122.512633 
L 143.976882 124.230167 
L 144.040303 123.821186 
L 144.103725 121.531141 
L 144.167146 122.267183 
L 144.357411 131.263834 
L 144.484254 132.408545 
L 144.611097 128.646417 
L 144.801361 132.326936 
L 144.928204 121.449531 
L 144.991625 123.330596 
L 145.308733 133.799019 
L 145.498997 131.018383 
L 145.62584 131.590894 
L 145.689262 131.181913 
L 145.752683 131.345443 
L 145.816105 132.163405 
L 145.879526 131.672504 
L 145.942948 131.917955 
L 146.069791 135.843613 
L 146.196634 131.508973 
L 146.260055 132.081485 
L 146.323477 130.772932 
L 146.450319 144.594503 
L 146.513741 144.022302 
L 146.577162 141.650336 
L 146.640584 142.141238 
L 146.830848 138.8697 
L 146.957691 162.505573 
L 147.021113 160.379058 
L 147.274799 169.539239 
L 147.401642 180.743704 
L 147.528485 171.092932 
L 147.718749 176.327143 
L 147.782171 174.20094 
L 147.845592 175.673022 
L 147.909013 180.252802 
L 147.972435 179.680291 
L 148.035856 180.334723 
L 148.099278 182.297708 
L 148.226121 177.963068 
L 148.352964 182.379318 
L 148.479807 178.780719 
L 148.60665 184.505833 
L 148.670071 181.888727 
L 148.733493 182.869908 
L 148.860336 194.074684 
L 148.987179 188.513101 
L 149.114022 190.721537 
L 149.177443 191.130206 
L 149.240865 192.766131 
L 149.304286 191.294048 
L 149.431129 183.033749 
L 149.49455 184.178461 
L 149.621393 182.706378 
L 149.748236 192.929661 
L 149.811658 190.312556 
L 149.875079 190.149025 
L 149.938501 194.483665 
L 150.001922 194.401744 
L 150.065344 193.093191 
L 150.192187 197.34591 
L 150.31903 193.665702 
L 150.636137 162.751024 
L 150.699559 164.141186 
L 150.76298 163.323536 
L 150.826401 159.234035 
L 150.889823 161.606001 
L 151.20693 174.446079 
L 151.270352 172.646936 
L 151.333773 171.256462 
L 151.460616 175.182121 
L 151.650881 167.167273 
L 151.714302 164.550167 
L 152.03141 177.717617 
L 152.094831 177.881147 
L 152.158252 173.955488 
L 152.221674 176.490674 
L 152.348517 181.479745 
L 152.411938 179.925742 
L 152.538781 191.375658 
L 152.602203 188.595021 
L 152.665624 181.970336 
L 152.729046 183.19728 
L 152.91931 190.149025 
L 153.109575 195.873827 
L 153.172996 198.572854 
L 153.299839 193.420252 
L 153.363261 193.665702 
L 153.490104 191.784639 
L 153.553525 191.948169 
L 153.743789 195.628377 
L 153.807211 199.881407 
L 153.870632 198.981835 
L 154.060897 190.721537 
L 154.124318 189.985495 
L 154.251161 193.502173 
L 154.314583 191.866559 
L 154.378004 192.35715 
L 154.504847 194.156293 
L 154.568269 193.992763 
L 154.695112 189.740044 
L 154.821955 192.929661 
L 154.885376 192.438759 
L 154.948798 190.721537 
L 155.139062 224.089791 
L 155.202483 223.353593 
L 155.329326 216.401848 
L 155.392748 217.955852 
L 155.519591 221.636215 
L 155.583012 221.799745 
L 155.709855 220.572958 
L 155.773277 221.227234 
L 156.153806 210.922341 
L 156.217227 210.51336 
L 156.280649 210.922341 
L 156.597756 186.468506 
L 156.724599 171.338383 
L 156.978285 184.750972 
L 157.105128 187.449999 
L 157.168549 191.784639 
L 157.231971 190.312556 
L 157.295392 183.442419 
L 157.358814 184.096851 
L 157.485657 191.866559 
L 157.549078 190.312556 
L 157.675921 193.992763 
L 157.739343 193.338642 
L 157.929607 199.226975 
L 158.05645 193.338642 
L 158.183293 200.044937 
L 158.310136 194.319823 
L 158.436979 204.788558 
L 158.627243 196.119278 
L 159.198037 214.439019 
L 159.32488 228.915021 
L 159.388301 228.097215 
L 159.641987 234.721744 
L 159.705408 235.457786 
L 159.76883 232.84068 
L 159.895673 237.17532 
L 159.959094 231.532127 
L 160.022516 233.086131 
L 160.149359 239.54713 
L 160.21278 239.87419 
L 160.339623 231.695657 
L 160.466466 239.955956 
L 160.529888 237.33885 
L 160.593309 238.811089 
L 160.656731 238.402107 
L 160.783573 232.104638 
L 160.846995 235.048961 
L 160.973838 228.097215 
L 161.037259 230.223574 
L 161.227524 233.576721 
L 161.290945 233.740407 
L 161.608053 221.963276 
L 161.671474 222.535787 
L 161.734896 223.271829 
L 161.861739 211.249401 
L 161.92516 212.394424 
L 161.988582 215.911258 
L 162.052003 213.948428 
L 162.242267 201.926001 
L 162.36911 212.312659 
L 162.622796 194.238214 
L 162.749639 193.420252 
L 163.003325 173.219447 
L 163.066747 173.137526 
L 163.130168 149.829025 
L 163.19359 155.063237 
L 163.383854 163.568675 
L 163.447276 163.405144 
L 163.574119 156.37179 
L 163.700961 169.947909 
L 163.764383 169.539239 
L 163.827804 165.613269 
L 163.891226 166.104171 
L 164.018069 171.338383 
L 164.208333 165.122679 
L 164.271755 168.312296 
L 164.335176 167.903315 
L 164.398598 161.769531 
L 164.462019 162.669103 
L 164.652284 172.973996 
L 164.969391 161.68761 
L 165.032813 161.68761 
L 165.159655 164.304716 
L 165.223077 164.304716 
L 165.286498 165.69519 
L 165.34992 165.613269 
L 165.603606 159.315956 
L 165.667027 157.925482 
L 165.920713 163.650596 
L 165.984135 163.323536 
L 166.047556 163.568675 
L 166.110978 164.632088 
L 166.237821 159.479486 
L 166.301242 162.587494 
L 166.364664 169.130258 
L 166.428085 167.658175 
L 166.491507 162.342043 
L 166.554928 162.423652 
L 166.808614 170.11144 
L 166.935457 174.69153 
L 167.0623 168.475826 
L 167.189143 162.832633 
L 167.379407 167.249194 
L 167.442829 163.732205 
L 167.50625 166.02225 
L 167.569672 173.791959 
L 167.633093 172.892387 
L 167.696515 169.130258 
L 167.759936 171.256462 
L 167.823358 172.565015 
L 167.886779 171.501913 
L 168.013622 172.973996 
L 168.267308 162.751024 
L 168.330729 163.732205 
L 168.394151 164.059577 
L 168.520994 161.68761 
L 168.584415 161.769531 
L 168.711258 163.078084 
L 168.838101 162.423652 
L 168.964944 165.286209 
L 169.028366 164.632088 
L 169.21863 161.851141 
L 169.345473 163.078084 
L 169.472316 155.144846 
L 169.535737 156.20826 
L 169.599159 156.289869 
L 169.789423 143.285949 
L 169.916266 152.609661 
L 169.979688 149.829025 
L 170.106531 153.263782 
L 170.360217 144.921874 
L 170.48706 153.100252 
L 170.550481 150.973737 
L 170.613903 151.137578 
L 170.804167 153.018642 
L 170.867588 152.773191 
L 170.994431 150.237695 
L 171.121274 159.970388 
L 171.184696 155.717358 
L 171.311539 175.01859 
L 171.37496 175.345962 
L 171.501803 170.68395 
L 171.565225 172.483405 
L 171.818911 166.758292 
L 171.945754 173.710038 
L 172.009175 172.565015 
L 172.072597 170.929402 
L 172.136018 171.174853 
L 172.19944 171.338383 
L 172.262861 170.68395 
L 172.516547 162.342043 
L 172.64339 159.397877 
L 172.833654 164.141186 
L 173.023919 159.888467 
L 173.150762 161.19702 
L 173.214183 160.86996 
L 173.404448 162.096592 
L 173.467869 161.606001 
L 173.531291 161.442471 
L 173.721555 159.397877 
L 173.911819 152.446131 
L 174.038662 162.505573 
L 174.102084 162.014982 
L 174.165505 161.19702 
L 174.228927 162.014982 
L 174.292348 161.769531 
L 174.546034 157.434892 
L 174.609456 152.446131 
L 174.672877 153.345703 
L 174.79972 164.141186 
L 174.926563 159.397877 
L 175.053406 160.542588 
L 175.116828 160.379058 
L 175.24367 162.342043 
L 175.433935 152.854801 
L 175.560778 161.524081 
L 175.624199 160.788039 
L 175.751042 161.36055 
L 175.814464 161.19702 
L 175.877885 161.278941 
L 176.06815 162.505573 
L 176.194993 167.985236 
L 176.258414 172.892387 
L 176.321836 171.174853 
L 176.385257 164.877227 
L 176.448679 166.02225 
L 176.575521 172.565015 
L 176.638943 168.721277 
L 176.702364 169.211867 
L 176.829207 174.20094 
L 176.892629 173.464898 
L 176.95605 174.037409 
L 177.146315 180.416643 
L 177.209736 180.334723 
L 177.526844 183.36081 
L 177.717108 179.35323 
L 177.78053 180.007662 
L 177.907373 182.133866 
L 177.970794 181.397824 
L 178.097637 183.442419 
L 178.161058 182.461238 
L 178.414744 173.055917 
L 178.541587 180.907234 
L 178.66843 173.219447 
L 178.731852 173.301057 
L 178.858695 178.208207 
L 178.985538 170.68395 
L 179.048959 172.156345 
L 179.112381 172.074424 
L 179.175802 171.338383 
L 179.302645 173.382978 
L 179.492909 183.36081 
L 179.556331 183.19728 
L 179.873438 177.308636 
L 180.063703 180.334723 
L 180.127124 179.762212 
L 180.38081 172.319876 
L 180.507653 178.535579 
L 180.634496 172.728857 
L 180.697918 173.955488 
L 180.824761 171.174853 
L 180.888182 172.646936 
L 181.015025 165.69519 
L 181.141868 174.609609 
L 181.268711 169.70277 
L 181.332132 171.501913 
L 181.395554 171.174853 
L 181.522397 162.669103 
L 181.585818 162.832633 
L 181.64924 165.122679 
L 181.712661 163.896046 
L 181.776083 162.505573 
L 182.029769 167.658175 
L 182.156612 172.401484 
L 182.220033 172.074424 
L 182.346876 178.780719 
L 182.473719 170.438811 
L 182.53714 171.992503 
L 182.600562 172.319876 
L 182.663983 170.847792 
L 182.790826 172.728857 
L 182.981091 169.457319 
L 183.044512 170.847792 
L 183.107934 170.19336 
L 183.234777 164.059577 
L 183.36162 172.728857 
L 183.551884 169.539239 
L 183.678727 174.69153 
L 183.742149 172.728857 
L 183.80557 170.847792 
L 183.868991 171.338383 
L 183.932413 171.501913 
L 183.995834 171.419992 
L 184.186099 169.293788 
L 184.312942 163.487065 
L 184.376363 163.814126 
L 184.439785 162.178513 
L 184.503206 162.587494 
L 184.566628 164.795619 
L 184.630049 163.977656 
L 184.693471 162.423652 
L 184.756892 162.669103 
L 184.947157 172.156345 
L 185.010578 171.665443 
L 185.074 171.747364 
L 185.200842 167.330803 
L 185.264264 167.658175 
L 185.391107 170.35689 
L 185.581371 160.297448 
L 185.644793 162.342043 
L 185.771636 164.632088 
L 185.835057 163.732205 
L 185.9619 166.513153 
L 186.088743 161.442471 
L 186.152165 162.832633 
L 186.215586 164.713698 
L 186.279008 163.896046 
L 186.342429 162.423652 
L 186.469272 165.040758 
L 186.532694 163.814126 
L 186.659536 168.884807 
L 186.786379 161.769531 
L 186.849801 164.059577 
L 186.976644 164.959148 
L 187.103487 174.36447 
L 187.293751 164.223107 
L 187.357173 164.795619 
L 187.420594 164.386637 
L 187.547437 161.851141 
L 187.610859 160.051998 
L 187.67428 160.624509 
L 187.737702 163.568675 
L 187.801123 163.405144 
L 187.864545 163.650596 
L 187.991388 176.572595 
L 188.11823 170.765871 
L 188.308495 174.282549 
L 188.371916 174.20094 
L 188.435338 174.609609 
L 188.562181 180.416643 
L 188.625602 179.35323 
L 188.689024 179.925742 
L 188.752445 182.624768 
L 188.815867 182.133866 
L 188.879288 180.988843 
L 188.94271 182.297708 
L 189.069553 173.628428 
L 189.132974 176.572595 
L 189.196396 183.033749 
L 189.259817 180.825313 
L 189.323239 177.799226 
L 189.450082 190.230635 
L 189.576924 183.442419 
L 189.640346 184.587442 
L 189.703767 184.832893 
L 189.767189 185.814385 
L 189.894032 189.658123 
L 190.020875 183.033749 
L 190.084296 184.01493 
L 190.337982 194.156293 
L 190.401404 193.829233 
L 190.591668 204.379577 
L 190.65509 202.907494 
L 190.718511 202.416592 
L 190.845354 207.732724 
L 190.908776 206.260641 
L 191.225883 179.271621 
L 191.289304 178.044678 
L 191.416147 171.174853 
L 191.479569 172.319876 
L 191.606412 174.36447 
L 191.669833 172.973996 
L 191.733255 174.773451 
L 191.860098 181.152685 
L 191.986941 172.319876 
L 192.367469 187.286468 
L 192.494312 193.583782 
L 192.557734 192.19362 
L 192.621155 193.420252 
L 192.684577 193.256721 
L 192.747998 190.885067 
L 192.81142 192.602601 
L 193.065106 201.926001 
L 193.128527 204.788558 
L 193.191949 203.807065 
L 193.25537 199.390504 
L 193.318792 200.453918 
L 193.382213 202.253061 
L 193.445635 200.780979 
L 193.572478 206.669622 
L 193.635899 203.888675 
L 193.762742 216.729064 
L 193.826163 213.294152 
L 193.889585 208.059784 
L 193.953006 209.368337 
L 194.016428 213.294152 
L 194.079849 212.639875 
L 194.206692 204.461186 
L 194.396957 215.502276 
L 194.460378 217.546871 
L 194.587221 211.576618 
L 194.650643 212.149129 
L 194.714064 212.067364 
L 194.777486 213.457682 
L 194.840907 213.375917 
L 194.96775 209.286728 
L 195.031172 212.557955 
L 195.094593 212.394424 
L 195.158015 210.34983 
L 195.221436 211.249401 
L 195.4117 213.539447 
L 195.475122 213.130466 
L 195.538543 209.531867 
L 195.601965 187.940589 
L 195.665386 188.840473 
L 195.792229 193.093191 
L 195.919072 185.977916 
L 196.109337 193.093191 
L 196.23618 191.784639 
L 196.363023 194.483665 
L 196.489866 190.312556 
L 196.616709 193.583782 
L 196.743551 189.658123 
L 196.870394 191.702718 
L 197.250923 162.260122 
L 197.314345 159.643016 
L 197.377766 161.36055 
L 197.568031 170.847792 
L 197.631452 170.02983 
L 197.758295 173.955488 
L 197.821717 173.301057 
L 197.94856 170.765871 
L 198.075403 173.955488 
L 198.265667 183.52434 
L 198.329088 182.624768 
L 198.39251 183.115359 
L 198.519353 188.104431 
L 198.646196 181.643276 
L 198.963303 194.483665 
L 199.090146 194.728804 
L 199.216989 202.089532 
L 199.280411 201.68055 
L 199.343832 202.662042 
L 199.534097 208.468766 
L 199.660939 214.030193 
L 199.724361 212.803405 
L 199.787782 212.476189 
L 199.914625 218.201147 
L 199.978047 218.037617 
L 200.10489 221.799745 
L 200.231733 219.264405 
L 200.485419 223.762575 
L 200.54884 222.863003 
L 200.675683 223.762575 
L 200.739105 223.599045 
L 200.865948 220.572958 
L 200.929369 220.654723 
L 201.183055 229.242238 
L 201.246476 227.361173 
L 201.309898 225.398344 
L 201.373319 226.706897 
L 201.500162 223.190064 
L 201.563584 223.599045 
L 201.627005 224.171556 
L 201.690427 221.636215 
L 201.753848 223.435514 
L 201.880691 232.104638 
L 202.007534 222.290492 
L 202.070956 223.517279 
L 202.26122 221.55445 
L 202.451484 211.821913 
L 202.578327 214.848 
L 202.70517 213.375917 
L 202.832013 207.569194 
L 202.958856 215.584041 
L 203.212542 203.234554 
L 203.275964 203.970596 
L 203.339385 203.888675 
L 203.593071 189.412983 
L 203.656493 190.230635 
L 203.719914 178.535579 
L 203.783336 183.278889 
L 203.846757 184.423912 
L 203.9736 194.401744 
L 204.100443 181.806806 
L 204.163864 186.877487 
L 204.227286 193.502173 
L 204.290707 192.84774 
L 204.354129 192.111699 
L 204.41755 194.074684 
L 204.480972 193.747312 
L 204.544393 192.929661 
L 204.607815 193.256721 
L 204.671236 192.929661 
L 204.924922 187.613529 
L 204.988344 184.505833 
L 205.178608 193.911154 
L 205.559137 186.877487 
L 205.622558 187.041018 
L 205.749401 192.929661 
L 205.812823 192.68421 
L 205.939666 194.810725 
L 206.256773 182.052257 
L 206.573881 193.747312 
L 206.637302 194.483665 
L 206.890988 192.111699 
L 206.954409 195.137786 
L 207.017831 195.056176 
L 207.144674 190.966676 
L 207.208095 193.093191 
L 207.271517 192.19362 
L 207.334938 191.457578 
L 207.525203 201.926001 
L 207.778889 192.19362 
L 207.84231 192.19362 
L 208.032575 191.784639 
L 208.159417 193.911154 
L 208.222839 192.438759 
L 208.28626 193.338642 
L 208.349682 194.565275 
L 208.413103 193.256721 
L 208.539946 196.85532 
L 208.666789 191.948169 
L 208.730211 193.093191 
L 208.793632 193.338642 
L 208.857054 193.093191 
L 208.983897 194.238214 
L 209.11074 190.721537 
L 209.174161 191.130206 
L 209.301004 193.01127 
L 209.364426 192.929661 
L 209.427847 192.84774 
L 209.55469 193.583782 
L 209.618111 193.420252 
L 209.744954 190.885067 
L 209.935219 199.226975 
L 209.99864 196.446339 
L 210.125483 202.007611 
L 210.315748 190.312556 
L 210.379169 192.03009 
L 210.632855 200.862899 
L 210.696277 202.253061 
L 210.886541 191.621108 
L 211.076805 198.327403 
L 211.140227 202.662042 
L 211.203648 200.535527 
L 211.26707 194.728804 
L 211.330491 197.34591 
L 211.393913 201.926001 
L 211.520756 191.294048 
L 211.584177 194.483665 
L 211.71102 202.416592 
L 211.774442 201.84408 
L 211.837863 183.033749 
L 211.901285 184.096851 
L 211.964706 183.115359 
L 212.091549 180.252802 
L 212.218392 184.178461 
L 212.408657 181.397824 
L 212.472078 181.234295 
L 212.598921 183.68787 
L 212.725764 179.35323 
L 212.789185 179.762212 
L 212.852607 180.498253 
L 213.042871 173.137526 
L 213.106293 173.301057 
L 213.169714 171.256462 
L 213.233136 172.319876 
L 213.359979 173.464898 
L 213.486822 179.925742 
L 213.613665 171.011322 
L 213.740508 174.20094 
L 213.930772 172.237955 
L 213.994193 172.319876 
L 214.057615 172.156345 
L 214.247879 168.312296 
L 214.374722 171.828973 
L 214.501565 163.814126 
L 214.628408 174.20094 
L 214.69183 170.929402 
L 214.755251 172.237955 
L 214.818673 173.137526 
L 214.882094 171.665443 
L 215.008937 174.69153 
L 215.13578 171.174853 
L 215.199202 171.256462 
L 215.262623 170.602341 
L 215.389466 179.435151 
L 215.516309 173.464898 
L 215.57973 174.20094 
L 215.706573 170.438811 
L 215.833416 173.219447 
L 216.087102 170.68395 
L 216.150524 170.765871 
L 216.340788 162.096592 
L 216.40421 162.751024 
L 216.467631 164.223107 
L 216.531053 163.896046 
L 216.594474 164.223107 
L 216.784738 171.092932 
L 216.84816 171.828973 
L 216.975003 170.19336 
L 217.038424 171.338383 
L 217.165267 167.003743 
L 217.228689 167.167273 
L 217.482375 171.828973 
L 217.545796 171.747364 
L 217.672639 173.710038 
L 217.799482 171.011322 
L 217.926325 173.464898 
L 217.989747 172.728857 
L 218.053168 172.728857 
L 218.11659 174.037409 
L 218.180011 173.791959 
L 218.243432 172.973996 
L 218.370275 174.20094 
L 218.497118 172.810466 
L 218.56054 173.219447 
L 218.623961 172.319876 
L 218.750804 175.264041 
L 218.814226 174.119019 
L 218.877647 173.791959 
L 218.941069 174.446079 
L 219.00449 172.319876 
L 219.067912 173.955488 
L 219.131333 180.007662 
L 219.194755 178.371738 
L 219.321598 171.583834 
L 219.385019 174.446079 
L 219.448441 173.301057 
L 219.575284 169.70277 
L 219.765548 172.810466 
L 219.892391 174.528 
L 219.955812 170.520421 
L 220.019234 171.747364 
L 220.082655 172.973996 
L 220.146077 172.401484 
L 220.209498 170.847792 
L 220.27292 171.665443 
L 220.336341 172.074424 
L 220.463184 169.8663 
L 220.526606 169.947909 
L 220.590027 169.293788 
L 220.653449 169.784379 
L 220.780292 171.256462 
L 220.843713 170.602341 
L 220.970556 167.249194 
L 221.097399 172.892387 
L 221.16082 171.747364 
L 221.287663 169.70277 
L 221.351085 172.319876 
L 221.541349 161.769531 
L 221.604771 162.751024 
L 221.795035 173.873567 
L 221.858457 170.68395 
L 221.921878 171.092932 
L 221.9853 171.747364 
L 222.175564 162.014982 
L 222.238986 162.342043 
L 222.365829 164.713698 
L 222.42925 164.632088 
L 222.492672 162.832633 
L 222.619514 169.048338 
L 222.682936 168.312296 
L 222.746357 163.896046 
L 222.809779 165.85872 
L 222.8732 170.68395 
L 222.936622 167.903315 
L 223.126886 163.160005 
L 223.253729 166.921822 
L 223.317151 166.267701 
L 223.380572 164.386637 
L 223.443994 164.632088 
L 223.69768 171.419992 
L 223.824523 165.36813 
L 223.951366 172.892387 
L 224.014787 171.419992 
L 224.14163 169.539239 
L 224.268473 173.464898 
L 224.331894 173.137526 
L 224.458737 171.092932 
L 224.522159 172.237955 
L 224.58558 171.583834 
L 224.649002 169.048338 
L 224.712423 169.457319 
L 224.775845 169.293788 
L 225.029531 162.423652 
L 225.156374 170.02983 
L 225.219795 167.821705 
L 225.283217 165.777111 
L 225.410059 172.074424 
L 225.473481 171.338383 
L 225.536902 171.828973 
L 225.600324 173.382978 
L 225.663745 173.055917 
L 225.790588 169.784379 
L 225.917431 171.583834 
L 225.980853 170.765871 
L 226.171117 162.832633 
L 226.361382 171.501913 
L 226.551646 174.20094 
L 226.678489 171.256462 
L 226.741911 172.319876 
L 226.805332 173.464898 
L 226.932175 170.929402 
L 226.995596 171.338383 
L 227.122439 171.910894 
L 227.249282 176.000083 
L 227.312704 174.609609 
L 227.439547 171.910894 
L 227.502968 173.219447 
L 227.629811 184.750972 
L 227.693233 182.461238 
L 227.756654 180.743704 
L 227.820076 182.542847 
L 227.883497 181.806806 
L 227.946919 180.416643 
L 228.01034 181.316216 
L 228.137183 163.732205 
L 228.200605 164.795619 
L 228.327447 174.528 
L 228.390869 173.382978 
L 228.45429 174.936981 
L 228.581133 185.078344 
L 228.707976 174.446079 
L 228.834819 183.278889 
L 228.898241 182.297708 
L 228.961662 179.435151 
L 229.025084 180.498253 
L 229.088505 182.215787 
L 229.151927 182.052257 
L 229.215348 182.215787 
L 229.27877 183.115359 
L 229.342191 182.624768 
L 229.405613 181.234295 
L 229.532456 183.68787 
L 229.659299 181.643276 
L 229.786141 184.587442 
L 229.849563 183.19728 
L 230.039827 195.056176 
L 230.103249 192.19362 
L 230.16667 191.375658 
L 230.293513 192.929661 
L 230.356935 192.35715 
L 230.420356 192.68421 
L 230.483778 193.420252 
L 230.737464 188.840473 
L 230.800885 189.331063 
L 230.927728 192.602601 
L 230.99115 192.111699 
L 231.054571 192.03009 
L 231.181414 194.647195 
L 231.308257 192.766131 
L 231.4351 195.137786 
L 231.498521 192.84774 
L 231.752207 173.546507 
L 231.815629 167.903315 
L 231.87905 171.419992 
L 231.942472 168.966728 
L 232.005893 160.706429 
L 232.069315 161.278941 
L 232.259579 170.520421 
L 232.449844 173.382978 
L 232.513265 172.565015 
L 232.640108 174.609609 
L 232.703529 171.910894 
L 232.766951 172.319876 
L 232.830372 172.892387 
L 232.893794 171.583834 
L 233.020637 181.970336 
L 233.084058 181.561355 
L 233.14748 180.498253 
L 233.274323 184.178461 
L 233.337744 181.725197 
L 233.401166 183.19728 
L 233.464587 184.342302 
L 233.528009 183.442419 
L 233.718273 193.583782 
L 233.781695 192.275229 
L 233.908538 190.312556 
L 234.289066 204.052516 
L 234.352488 203.152633 
L 234.415909 201.51702 
L 234.479331 201.68055 
L 234.542752 203.643535 
L 234.606174 203.561615 
L 234.733017 202.171452 
L 234.85986 203.643535 
L 234.923281 203.480005 
L 235.050124 203.888675 
L 235.240389 201.435411 
L 235.430653 203.071024 
L 235.494074 201.926001 
L 235.557496 202.007611 
L 235.74776 202.662042 
L 235.811182 202.416592 
L 235.874603 201.435411 
L 235.938025 201.84408 
L 236.001446 202.989103 
L 236.064868 202.253061 
L 236.128289 201.271569 
L 236.318554 288.290959 
L 236.381975 287.718447 
L 236.508818 276.513983 
L 236.57224 269.807533 
L 236.635661 272.588324 
L 236.762504 282.075255 
L 236.889347 279.131089 
L 236.952768 282.238941 
L 237.269876 249.770258 
L 237.396719 237.584301 
L 237.46014 242.327766 
L 237.713826 192.19362 
L 237.904091 136.498045 
L 238.030934 149.992556 
L 238.157777 163.568675 
L 238.221198 162.096592 
L 238.28462 165.85872 
L 238.411462 179.35323 
L 238.474884 169.048338 
L 238.538305 169.539239 
L 238.601727 176.327143 
L 238.665148 172.728857 
L 238.72857 172.810466 
L 238.982256 196.609869 
L 239.109099 193.747312 
L 239.17252 195.873827 
L 239.299363 190.639616 
L 239.362785 192.52068 
L 239.426206 190.149025 
L 239.489628 191.866559 
L 239.616471 206.833153 
L 239.679892 202.334982 
L 239.743314 202.498513 
L 239.806735 201.35349 
L 239.933578 187.777059 
L 240.060421 199.308896 
L 240.123842 191.375658 
L 240.250685 216.892595 
L 240.314107 214.193724 
L 240.377528 207.242134 
L 240.504371 231.286832 
L 240.567793 230.141809 
L 240.694636 239.3836 
L 240.758057 236.030297 
L 240.948322 228.751491 
L 241.075165 235.948532 
L 241.138586 227.851764 
L 241.202007 231.450362 
L 241.32885 243.554554 
L 241.392272 242.818513 
L 241.519115 229.978279 
L 241.645958 240.937448 
L 241.709379 238.238578 
L 241.772801 243.063808 
L 241.836222 242.491296 
L 241.899644 236.439278 
L 241.963065 240.446702 
L 242.026487 246.089895 
L 242.15333 220.818253 
L 242.216751 223.353593 
L 242.407016 250.915281 
L 242.470437 249.034216 
L 242.787544 225.807169 
L 242.850966 224.253321 
L 242.914387 226.952192 
L 243.104652 203.970596 
L 243.168073 212.966936 
L 243.231495 210.595125 
L 243.421759 182.215787 
L 243.548602 201.84408 
L 243.612024 200.699058 
L 243.802288 177.227026 
L 243.86571 176.082004 
L 244.055974 147.293529 
L 244.182817 126.520213 
L 244.246238 131.018383 
L 244.436503 191.048597 
L 244.563346 193.256721 
L 244.626767 190.721537 
L 244.75361 168.475826 
L 244.817032 173.546507 
L 244.943875 190.394164 
L 245.070718 179.435151 
L 245.134139 183.606261 
L 245.197561 194.728804 
L 245.260982 192.602601 
L 245.324404 184.423912 
L 245.387825 187.368078 
L 245.451247 196.037358 
L 245.514668 195.056176 
L 245.641511 185.977916 
L 245.768354 194.483665 
L 245.831775 192.929661 
L 245.895197 194.401744 
L 246.212304 176.245534 
L 246.46599 193.911154 
L 246.529412 191.212127 
L 246.656255 169.8663 
L 246.719676 173.219447 
L 246.846519 161.03349 
L 247.100205 184.342302 
L 247.163626 180.089272 
L 247.227048 179.680291 
L 247.353891 185.732464 
L 247.417312 179.762212 
L 247.480734 182.133866 
L 247.607577 196.364729 
L 247.73442 174.20094 
L 247.797841 175.509493 
L 248.17837 212.230894 
L 248.305213 189.740044 
L 248.368634 191.375658 
L 248.432056 192.438759 
L 248.558899 190.966676 
L 248.685742 183.933321 
L 248.812585 195.137786 
L 249.066271 184.178461 
L 249.129692 193.256721 
L 249.193114 192.766131 
L 249.319957 179.108091 
L 249.4468 185.568935 
L 249.510221 183.68787 
L 249.573643 183.933321 
L 249.637064 183.52434 
L 249.763907 170.765871 
L 249.827328 174.20094 
L 249.89075 179.435151 
L 249.954171 176.818045 
L 250.017593 169.130258 
L 250.081014 169.457319 
L 250.207857 185.078344 
L 250.3347 175.264041 
L 250.398122 180.171193 
L 250.524965 172.892387 
L 250.588386 175.01859 
L 250.778651 165.777111 
L 250.968915 125.21166 
L 251.032337 132.735917 
L 251.15918 129.791439 
L 251.286022 142.631828 
L 251.539708 130.609402 
L 251.60313 135.271102 
L 251.729973 153.918214 
L 251.793394 147.70251 
L 251.856816 149.992556 
L 251.920237 160.051998 
L 251.983659 159.315956 
L 252.04708 150.728597 
L 252.110502 151.301108 
L 252.491031 192.35715 
L 252.554452 187.613529 
L 252.681295 170.35689 
L 252.744716 175.673022 
L 252.808138 172.483405 
L 252.871559 171.092932 
L 252.934981 174.528 
L 252.998402 172.646936 
L 253.061824 173.873567 
L 253.188667 181.397824 
L 253.378931 171.910894 
L 253.632617 158.252854 
L 253.886303 150.973737 
L 254.013146 161.36055 
L 254.076568 161.278941 
L 254.20341 150.483146 
L 254.330253 162.505573 
L 254.393675 160.460979 
L 254.837625 134.535061 
L 254.964468 142.386378 
L 255.091311 126.847273 
L 255.218154 150.892127 
L 255.281576 149.256514 
L 255.47184 140.096332 
L 255.598683 151.87362 
L 255.662104 151.382718 
L 255.788947 144.267442 
L 255.979212 171.092932 
L 256.042633 164.386637 
L 256.232898 153.754684 
L 256.296319 151.628168 
L 256.423162 157.761952 
L 256.993955 131.754424 
L 257.311063 151.464639 
L 257.437906 164.059577 
L 257.501327 163.405144 
L 257.564749 158.252854 
L 257.62817 160.051998 
L 257.691592 160.788039 
L 257.881856 145.575995 
L 258.072121 172.156345 
L 258.325807 175.673022 
L 258.389228 175.509493 
L 258.452649 173.791959 
L 258.516071 173.873567 
L 258.642914 181.397824 
L 258.706335 186.795878 
L 258.833178 173.873567 
L 258.8966 175.918474 
L 259.023443 186.223366 
L 259.213707 175.182121 
L 259.34055 193.093191 
L 259.403972 189.167533 
L 259.467393 190.394164 
L 259.530815 189.821653 
L 259.594236 183.606261 
L 259.657658 188.02251 
L 259.721079 196.446339 
L 259.784501 190.557695 
L 259.847922 179.844132 
L 259.911343 179.925742 
L 260.038186 188.267961 
L 260.228451 178.780719 
L 260.291872 180.661783 
L 260.418715 188.02251 
L 260.482137 184.505833 
L 260.545558 75.486339 
L 260.60898 79.575528 
L 260.735823 96.341576 
L 260.862666 80.311569 
L 260.926087 82.356164 
L 261.05293 69.434165 
L 261.116352 70.415657 
L 261.306616 84.237228 
L 261.433459 80.475099 
L 261.49688 83.092205 
L 261.623723 79.820979 
L 261.750566 83.991777 
L 261.813988 81.865573 
L 261.877409 82.438085 
L 261.940831 83.092205 
L 262.004252 81.947182 
L 262.131095 83.583107 
L 262.194517 80.80216 
L 262.32136 92.988428 
L 262.384781 90.698383 
L 262.448203 80.22996 
L 262.511624 80.55702 
L 262.575046 89.63497 
L 262.638467 89.471439 
L 262.76531 79.493607 
L 262.955574 86.609194 
L 263.018996 86.445352 
L 263.082417 80.148039 
L 263.145839 80.80216 
L 263.272682 93.479019 
L 263.336103 86.854333 
L 263.462946 109.181653 
L 263.526368 104.110972 
L 263.716632 90.207481 
L 263.906897 80.80216 
L 264.03374 81.047611 
L 264.097161 81.293062 
L 264.224004 92.170466 
L 264.287425 91.434425 
L 264.414268 81.211141 
L 264.47769 82.928675 
L 264.604533 93.724469 
L 264.731376 77.040343 
L 264.794797 78.839486 
L 264.92164 97.977189 
L 265.048483 83.010596 
L 265.175326 94.787571 
L 265.429012 61.991829 
L 265.555855 71.805819 
L 265.619276 65.181446 
L 265.682698 67.880161 
L 265.746119 76.38591 
L 265.809541 70.906248 
L 265.872962 64.036423 
L 266.19007 84.319149 
L 266.253491 85.05519 
L 266.380334 81.783652 
L 266.570599 94.21506 
L 266.697442 74.177786 
L 266.760863 65.181446 
L 266.824285 69.188714 
L 267.141392 102.311828 
L 267.268235 87.017864 
L 267.331656 94.542121 
L 267.395078 105.910427 
L 267.458499 99.040291 
L 267.521921 88.081277 
L 267.585342 89.63497 
L 267.839028 106.809999 
L 267.90245 103.12948 
L 267.965871 99.531193 
L 268.282979 126.765352 
L 268.409822 110.899187 
L 268.473243 111.226248 
L 268.600086 122.022043 
L 268.726929 150.319616 
L 268.79035 145.248934 
L 268.853772 148.520472 
L 268.980615 165.53166 
L 269.044036 161.36055 
L 269.170879 198.245794 
L 269.234301 192.19362 
L 269.297722 179.844132 
L 269.361144 182.461238 
L 269.424565 186.386897 
L 269.551408 177.799226 
L 269.61483 181.152685 
L 269.678251 190.312556 
L 269.741673 189.085612 
L 269.805094 182.133866 
L 269.868516 187.122938 
L 269.931937 195.383237 
L 269.995358 192.68421 
L 270.05878 189.658123 
L 270.185623 196.364729 
L 270.312466 178.69911 
L 270.629573 219.34617 
L 270.692995 219.182639 
L 270.819838 211.085872 
L 270.883259 211.494853 
L 271.010102 216.647299 
L 271.073524 219.591465 
L 271.263788 203.152633 
L 271.454052 221.88151 
L 271.517474 221.55445 
L 271.580895 214.929765 
L 271.644317 218.610128 
L 271.77116 230.55079 
L 271.898003 223.68081 
L 272.024846 236.684573 
L 272.088267 231.859343 
L 272.405375 157.925482 
L 272.468796 159.806546 
L 272.532218 156.616929 
L 272.659061 138.215268 
L 272.785903 153.100252 
L 272.849325 152.20068 
L 273.039589 170.275281 
L 273.166432 156.616929 
L 273.229854 158.497993 
L 273.800647 237.911361 
L 273.864069 234.803509 
L 273.92749 219.34617 
L 273.990912 220.572958 
L 274.181176 234.394684 
L 274.308019 244.372361 
L 274.37144 243.309259 
L 274.498283 227.033957 
L 274.751969 253.041641 
L 274.815391 252.714424 
L 274.942234 267.926469 
L 275.005655 266.617915 
L 275.069077 257.130829 
L 275.132498 258.930129 
L 275.19592 266.045404 
L 275.259341 262.283276 
L 275.322763 254.677254 
L 275.386184 256.313023 
L 275.449606 262.446962 
L 275.513027 261.465469 
L 275.703291 250.179084 
L 275.830134 237.502536 
L 276.020399 252.714424 
L 276.147242 239.056384 
L 276.210663 243.227494 
L 276.274085 242.491296 
L 276.400928 233.903938 
L 276.591192 248.37994 
L 276.781457 229.324002 
L 276.9083 249.443042 
L 277.288828 226.870427 
L 277.479093 221.227234 
L 277.542514 224.253321 
L 277.605936 222.863003 
L 277.669357 219.34617 
L 277.7962 222.863003 
L 277.923043 209.286728 
L 277.986465 212.230894 
L 278.049886 216.974359 
L 278.113308 213.294152 
L 278.493837 140.750764 
L 278.747522 164.959148 
L 278.810944 163.732205 
L 278.874365 163.487065 
L 279.001208 174.119019 
L 279.128051 159.070505 
L 279.254894 162.505573 
L 279.318316 161.19702 
L 279.50858 173.791959 
L 279.825688 167.903315 
L 280.206216 185.405404 
L 280.269638 181.397824 
L 280.523324 147.293529 
L 280.586745 153.018642 
L 281.094117 196.200887 
L 281.157539 194.892335 
L 281.347803 206.505781 
L 281.411224 205.279149 
L 281.538067 201.271569 
L 281.601489 204.052516 
L 281.66491 201.18996 
L 281.728332 192.929661 
L 281.791753 197.591361 
L 281.982018 216.810829 
L 282.108861 213.375917 
L 282.172282 215.01153 
L 282.235704 214.520939 
L 282.299125 212.067364 
L 282.362547 215.338746 
L 282.48939 202.498513 
L 282.616233 213.866663 
L 282.743076 199.554346 
L 282.869918 213.948428 
L 282.93334 213.212231 
L 283.060183 224.744067 
L 283.187026 210.922341 
L 283.250447 215.747572 
L 283.440712 198.899915 
L 283.504133 203.071024 
L 283.567555 203.888675 
L 283.694398 193.256721 
L 283.757819 203.071024 
L 283.821241 202.171452 
L 283.948084 179.680291 
L 284.011505 180.498253 
L 284.138348 188.922082 
L 284.20177 188.18604 
L 284.392034 173.301057 
L 284.455455 172.237955 
L 284.772563 136.743185 
L 284.962827 155.962808 
L 285.153092 172.565015 
L 285.216513 170.35689 
L 285.343356 151.055658 
L 285.470199 173.301057 
L 285.533621 170.438811 
L 285.660464 159.152425 
L 285.787306 164.550167 
L 285.850728 163.568675 
L 285.914149 160.133918 
L 286.040992 173.546507 
L 286.104414 171.910894 
L 286.231257 162.096592 
L 286.484943 175.345962 
L 286.611786 158.579914 
L 286.675207 158.988896 
L 286.80205 150.892127 
L 287.055736 172.565015 
L 287.119158 171.583834 
L 287.246 160.951569 
L 287.309422 162.914554 
L 287.372843 162.096592 
L 287.436265 159.806546 
L 287.499686 161.278941 
L 287.753372 175.754632 
L 287.880215 183.769791 
L 288.007058 168.884807 
L 288.07048 172.810466 
L 288.133901 182.869908 
L 288.197323 179.925742 
L 288.324166 169.539239 
L 288.387587 170.438811 
L 288.768116 191.621108 
L 288.894959 179.925742 
L 288.95838 181.316216 
L 289.021802 181.561355 
L 289.275488 168.394217 
L 289.592595 192.19362 
L 289.656017 191.375658 
L 289.719438 194.156293 
L 289.78286 193.747312 
L 289.909703 179.762212 
L 289.973124 181.725197 
L 290.036545 183.278889 
L 290.099967 182.788299 
L 290.163388 182.542847 
L 290.22681 183.033749 
L 290.353653 179.762212 
L 290.417074 183.442419 
L 290.480496 182.133866 
L 290.67076 160.788039 
L 290.797603 164.304716 
L 290.861025 162.178513 
L 291.114711 179.598681 
L 291.178132 178.371738 
L 291.558661 140.750764 
L 291.622082 143.20434 
L 291.685504 143.36787 
L 291.748925 146.066897 
L 291.875768 156.044418 
L 292.129454 144.022302 
L 292.192876 145.657916 
L 292.319719 154.490725 
L 292.38314 151.055658 
L 292.446562 153.754684 
L 292.509983 162.832633 
L 292.573405 162.423652 
L 292.763669 129.70983 
L 292.890512 138.624249 
L 292.953933 136.988636 
L 293.080776 165.69519 
L 293.207619 153.509233 
L 293.271041 153.754684 
L 293.334462 158.334463 
L 293.588148 149.583574 
L 293.714991 158.579914 
L 294.222363 133.553568 
L 294.349206 139.851193 
L 294.412627 137.070557 
L 294.476049 139.687663 
L 294.602892 154.163354 
L 294.793156 141.977396 
L 294.856578 144.839953 
L 294.919999 143.776851 
L 295.173685 122.921614 
L 295.237107 127.337864 
L 295.300528 128.482886 
L 295.427371 121.449531 
L 295.554214 135.025651 
L 295.617636 133.799019 
L 295.681057 129.137319 
L 295.871321 145.248934 
L 295.934743 143.69493 
L 296.061586 131.099992 
L 296.125007 135.680083 
L 296.188429 143.122419 
L 296.25185 142.222847 
L 296.315272 139.442211 
L 296.378693 141.650336 
L 296.505536 155.226767 
L 296.568958 153.918214 
L 296.759222 141.895787 
L 296.886065 138.54264 
L 297.012908 143.20434 
L 297.07633 143.04081 
L 297.203172 139.278681 
L 297.266594 143.36787 
L 297.330015 142.87728 
L 297.583701 118.914035 
L 297.710544 124.475619 
L 298.091073 153.427312 
L 298.344759 147.947961 
L 298.408181 144.349363 
L 298.471602 146.802939 
L 298.598445 164.468558 
L 298.661866 162.751024 
L 298.725288 162.832633 
L 298.788709 163.568675 
L 298.915552 149.747104 
L 298.978974 150.892127 
L 299.169238 167.821705 
L 299.359503 176.899655 
L 299.486346 165.36813 
L 299.549767 170.68395 
L 299.613189 170.438811 
L 299.740032 161.03349 
L 299.866875 176.082004 
L 299.930296 175.427572 
L 300.247403 162.342043 
L 300.374246 170.35689 
L 300.501089 160.788039 
L 300.564511 165.122679 
L 300.627932 163.078084 
L 300.691354 159.643016 
L 300.818197 166.758292 
L 300.94504 151.546248 
L 301.071883 163.568675 
L 301.135304 115.806339 
L 301.198726 116.70591 
L 301.325569 127.092724 
L 301.38899 125.620641 
L 301.515833 126.356683 
L 301.642676 110.981108 
L 301.769519 121.694983 
L 301.83294 119.568467 
L 301.959783 117.360343 
L 302.086626 120.468039 
L 302.150048 119.895527 
L 302.276891 112.943782 
L 302.403734 118.341524 
L 302.530577 113.598214 
L 302.593998 113.434684 
L 302.720841 102.72081 
L 302.911106 114.006884 
L 302.974527 113.843353 
L 303.037948 113.679824 
L 303.164791 115.397358 
L 303.291634 111.71715 
L 303.355056 109.754165 
L 303.608742 115.642808 
L 303.735585 113.107312 
L 303.799006 116.624301 
L 303.862428 116.460459 
L 303.925849 111.144639 
L 303.989271 113.843353 
L 304.052692 123.248675 
L 304.116114 121.694983 
L 304.179535 111.798759 
L 304.242957 113.025703 
L 304.306378 124.066637 
L 304.369799 123.575735 
L 304.433221 112.616722 
L 304.496642 112.943782 
L 304.560064 119.077565 
L 304.623485 114.988376 
L 304.686907 112.04421 
L 304.81375 125.37519 
L 304.940593 117.687403 
L 305.2577 131.427364 
L 305.384543 120.795099 
L 305.511386 128.237747 
L 305.574808 123.003535 
L 305.638229 123.248675 
L 305.765072 134.126079 
L 306.018758 119.159486 
L 306.209022 101.657396 
L 306.335865 105.583055 
L 306.399287 105.092465 
L 306.52613 113.679824 
L 306.652973 122.676164 
L 306.779816 113.516293 
L 306.843237 116.37885 
L 306.906659 115.070297 
L 306.97008 113.925274 
L 307.096923 117.687403 
L 307.160345 116.869441 
L 307.350609 97.650128 
L 307.731138 133.717098 
L 307.794559 128.646417 
L 307.857981 121.122471 
L 307.921402 124.312088 
L 307.984824 127.583315 
L 308.111667 119.159486 
L 308.428774 133.308428 
L 308.492196 130.527481 
L 308.555617 129.627909 
L 308.872724 145.657916 
L 309.062989 134.535061 
L 309.189832 137.806599 
L 309.253253 174.119019 
L 309.316675 173.710038 
L 309.443518 156.453399 
L 309.570361 163.650596 
L 309.633782 162.505573 
L 309.760625 187.286468 
L 309.824047 181.152685 
L 309.887468 171.747364 
L 309.95089 173.219447 
L 310.077733 180.907234 
L 310.204575 175.591102 
L 310.331418 186.795878 
L 310.39484 181.152685 
L 310.458261 181.234295 
L 310.521683 184.914814 
L 310.585104 182.706378 
L 310.648526 179.844132 
L 310.775369 186.223366 
L 310.83879 182.379318 
L 310.902212 182.542847 
L 311.029055 194.647195 
L 311.092476 192.438759 
L 311.282741 203.316163 
L 311.536427 193.911154 
L 311.663269 193.583782 
L 311.916955 190.803146 
L 312.043798 203.970596 
L 312.10722 203.725144 
L 312.170641 197.264301 
L 312.234063 200.208467 
L 312.297484 205.85166 
L 312.360906 205.197228 
L 312.424327 202.416592 
L 312.487749 204.379577 
L 312.614592 214.848 
L 312.804856 189.740044 
L 313.185385 132.817526 
L 313.248806 134.535061 
L 313.439071 153.591154 
L 313.502492 154.654256 
L 313.629335 170.68395 
L 313.692757 170.19336 
L 313.8196 159.561407 
L 314.326972 209.531867 
L 314.390393 215.256981 
L 314.517236 202.907494 
L 314.770922 227.442938 
L 314.834343 231.941108 
L 314.897765 231.205067 
L 314.961186 229.078552 
L 315.088029 216.810829 
L 315.53198 250.34277 
L 315.595401 248.461705 
L 315.722244 238.156813 
L 315.785666 240.283172 
L 315.912508 227.115722 
L 315.97593 227.606469 
L 316.102773 238.647403 
L 316.41988 221.636215 
L 316.483302 226.052621 
L 316.610145 239.219914 
L 316.673566 232.186404 
L 316.736988 235.785002 
L 316.800409 242.000706 
L 316.863831 237.584301 
L 316.927252 229.732828 
L 316.990674 229.978279 
L 317.054095 232.186404 
L 317.117517 230.714321 
L 317.180938 231.041381 
L 317.24436 230.387104 
L 317.307781 223.84434 
L 317.498045 295.488 
L 317.751731 274.632919 
L 317.815153 275.123665 
L 317.941996 286.164599 
L 318.005417 285.428558 
L 318.13226 289.926728 
L 318.576211 241.182744 
L 318.639632 246.662406 
L 318.703054 240.773918 
L 319.083582 136.825106 
L 319.147004 139.769272 
L 319.337268 164.223107 
L 319.40069 161.933062 
L 319.527533 181.561355 
L 319.590954 179.762212 
L 319.654376 169.784379 
L 319.717797 173.464898 
L 319.781219 179.680291 
L 319.908062 171.011322 
L 320.161748 194.565275 
L 320.28859 192.438759 
L 320.352012 193.992763 
L 320.605698 183.52434 
L 320.669119 185.732464 
L 320.795962 204.052516 
L 320.922805 192.602601 
L 320.986227 194.974256 
L 321.11307 181.316216 
L 321.239913 197.427831 
L 321.303334 191.621108 
L 321.430177 216.238318 
L 321.493599 212.639875 
L 321.55702 206.914762 
L 321.810706 238.320342 
L 321.874127 242.573217 
L 321.937549 239.3836 
L 322.127813 227.361173 
L 322.254656 237.093555 
L 322.318078 227.606469 
L 322.381499 231.941108 
L 322.508342 246.33519 
L 322.571764 245.926365 
L 322.698607 235.294256 
L 322.952293 260.402212 
L 323.015714 258.030556 
L 323.079135 247.398447 
L 323.142557 250.261004 
L 323.205978 256.394787 
L 323.332821 228.260745 
L 323.396243 231.205067 
L 323.586507 264.655086 
L 323.649929 262.610492 
L 323.967036 232.349934 
L 324.093879 233.494956 
L 324.284144 209.940849 
L 324.347565 216.401848 
L 324.410987 213.048701 
L 324.537829 191.784639 
L 324.601251 191.866559 
L 324.728094 208.959356 
L 324.791515 203.643535 
L 324.918358 184.505833 
L 324.98178 184.587442 
L 325.045201 185.487325 
L 325.172044 167.330803 
L 325.362309 132.490466 
L 325.42573 136.007144 
L 325.615995 187.449999 
L 325.679416 187.940589 
L 325.742838 190.394164 
L 325.806259 189.576514 
L 325.933102 166.267701 
L 326.123366 186.223366 
L 326.186788 184.669362 
L 326.250209 180.252802 
L 326.313631 182.297708 
L 326.377052 191.457578 
L 326.440474 190.312556 
L 326.503895 182.788299 
L 326.567317 185.895995 
L 326.69416 196.282808 
L 326.821003 183.8514 
L 326.947846 194.974256 
L 327.13811 189.740044 
L 327.391796 173.137526 
L 327.645482 197.509441 
L 327.708903 193.583782 
L 327.835746 180.252802 
L 327.899168 182.297708 
L 328.026011 167.249194 
L 328.089432 169.457319 
L 328.279697 185.405404 
L 328.343118 182.297708 
L 328.40654 182.379318 
L 328.469961 186.141446 
L 328.533383 185.895995 
L 328.596804 181.152685 
L 328.660226 182.788299 
L 328.787068 197.100771 
L 328.913911 175.673022 
L 328.977333 177.799226 
L 329.357862 205.606209 
L 329.484705 188.104431 
L 329.548126 188.431491 
L 329.611548 192.929661 
L 329.801812 181.070764 
L 329.865234 182.706378 
L 329.992077 194.483665 
L 330.055498 193.665702 
L 330.11892 194.401744 
L 330.245762 183.606261 
L 330.372605 190.803146 
L 330.499448 173.055917 
L 330.689713 183.278889 
L 330.816556 177.390557 
L 330.943399 166.431232 
L 331.00682 166.921822 
L 331.133663 171.419992 
L 331.260506 159.070505 
L 331.387349 173.873567 
L 331.514192 161.278941 
L 331.577614 165.69519 
L 331.641035 164.059577 
L 331.767878 160.542588 
L 331.831299 153.591154 
L 331.894721 154.163354 
L 331.958142 153.999824 
L 332.148407 108.691063 
L 332.211828 112.534801 
L 332.338671 117.932854 
L 332.465514 125.129739 
L 332.528936 123.412205 
L 332.592357 125.293269 
L 332.7192 117.605482 
L 332.846043 135.271102 
L 332.909465 135.107572 
L 332.972886 130.36395 
L 333.036308 133.88094 
L 333.099729 142.631828 
L 333.16315 142.059317 
L 333.226572 135.925534 
L 333.289993 136.661576 
L 333.480258 158.252854 
L 333.543679 154.899706 
L 333.670522 199.554346 
L 333.733944 198.490933 
L 333.860787 181.888727 
L 333.924208 190.230635 
L 333.98763 187.531919 
L 334.051051 182.788299 
L 334.114473 184.423912 
L 334.177894 183.278889 
L 334.241316 184.423912 
L 334.304737 188.104431 
L 334.368159 186.959408 
L 334.812109 162.751024 
L 334.87553 163.650596 
L 335.065795 158.988896 
L 335.256059 174.528 
L 335.319481 170.438811 
L 335.382902 170.765871 
L 335.509745 176.409064 
L 335.573167 174.85506 
L 336.017117 140.423704 
L 336.080538 141.568726 
L 336.14396 145.657916 
L 336.270803 131.099992 
L 336.397646 162.669103 
L 336.461067 160.051998 
L 336.651332 151.055658 
L 336.841596 154.163354 
L 336.905018 153.182173 
L 336.968439 150.319616 
L 337.031861 153.836293 
L 337.158704 172.074424 
L 337.412389 152.854801 
L 337.475811 152.20068 
L 337.602654 156.20826 
L 337.85634 148.275021 
L 337.919761 142.141238 
L 337.983183 142.304768 
L 338.046604 143.04081 
L 338.173447 131.836034 
L 338.30029 143.858461 
L 338.363712 142.631828 
L 338.553976 155.880887 
L 338.680819 165.040758 
L 338.871083 155.144846 
L 338.997926 151.301108 
L 339.061348 152.527741 
L 339.251612 181.561355 
L 339.315034 180.171193 
L 339.378455 180.661783 
L 339.441877 182.461238 
L 339.632141 171.011322 
L 339.695563 174.609609 
L 339.885827 185.323483 
L 339.949249 184.587442 
L 340.076092 176.000083 
L 340.202935 191.866559 
L 340.266356 187.940589 
L 340.393199 176.409064 
L 340.520042 193.665702 
L 340.583463 189.004002 
L 340.646885 189.249142 
L 340.710306 192.03009 
L 340.773728 188.02251 
L 340.837149 189.167533 
L 340.900571 197.264301 
L 340.963992 195.301316 
L 341.090835 179.516761 
L 341.217678 189.985495 
L 341.344521 181.397824 
L 341.407943 182.461238 
L 341.534786 190.230635 
L 341.598207 195.546767 
L 341.661629 189.740044 
L 341.72505 77.203873 
L 341.788471 81.456592 
L 341.915314 96.668636 
L 342.042157 80.39349 
L 342.105579 80.884081 
L 342.232422 69.352244 
L 342.295843 71.88774 
L 342.486108 86.281822 
L 342.612951 81.702043 
L 342.930058 86.936254 
L 343.056901 80.22996 
L 343.183744 82.765145 
L 343.310587 82.519693 
L 343.374008 78.594035 
L 343.43743 80.475099 
L 343.500851 88.735398 
L 343.564273 87.672296 
L 343.627694 79.166547 
L 343.691116 80.22996 
L 343.754537 87.590375 
L 343.817959 87.099785 
L 343.944802 79.330076 
L 344.071645 91.188973 
L 344.135066 90.779992 
L 344.261909 80.22996 
L 344.325331 82.356164 
L 344.388752 91.188973 
L 344.452174 90.943522 
L 344.515595 83.664716 
L 344.642438 106.891608 
L 344.705859 102.72081 
L 344.832702 86.690804 
L 344.896124 88.081277 
L 345.022967 73.932335 
L 345.086388 78.430505 
L 345.14981 81.129531 
L 345.276653 77.776384 
L 345.403496 88.081277 
L 345.466917 86.772724 
L 345.59376 81.374671 
L 345.657182 82.683224 
L 345.784025 93.806079 
L 345.847446 89.2263 
L 345.910868 76.876501 
L 345.974289 78.266974 
L 346.101132 98.958682 
L 346.227975 84.319149 
L 346.354818 96.096125 
L 346.608504 64.854074 
L 346.735347 76.140459 
L 346.86219 66.89898 
L 346.989033 75.976929 
L 347.052454 72.869233 
L 347.30614 94.705651 
L 347.432983 101.739317 
L 347.559826 90.289402 
L 347.75009 105.174385 
L 347.813512 103.783911 
L 347.940355 80.63863 
L 348.320884 118.995956 
L 348.447727 102.638889 
L 348.511148 108.527533 
L 348.57457 118.914035 
L 348.637991 113.598214 
L 348.701413 105.337916 
L 348.764834 107.873101 
L 349.01852 124.802679 
L 349.145363 119.731997 
L 349.335627 127.910375 
L 349.46247 146.312036 
L 349.652735 132.408545 
L 349.779578 141.895787 
L 349.906421 159.479486 
L 349.969842 151.710089 
L 350.033264 156.453399 
L 350.160107 174.936981 
L 350.223528 172.565015 
L 350.350371 212.394424 
L 350.413792 207.814645 
L 350.540635 195.464846 
L 350.604057 195.628377 
L 350.7309 186.795878 
L 350.794321 188.676942 
L 350.857743 197.591361 
L 350.921164 196.936929 
L 350.984586 189.085612 
L 351.048007 192.111699 
L 351.111429 199.881407 
L 351.17485 196.609869 
L 351.238272 193.420252 
L 351.365115 202.580122 
L 351.491958 184.914814 
L 351.872486 218.937189 
L 351.999329 204.461186 
L 352.062751 205.93358 
L 352.253015 212.966936 
L 352.316437 211.004106 
L 352.44328 198.572854 
L 352.633544 218.528364 
L 352.696966 218.282912 
L 352.760387 210.677046 
L 352.88723 229.651063 
L 352.950652 228.751491 
L 353.014073 223.68081 
L 353.077495 224.171556 
L 353.204337 234.230998 
L 353.267759 230.305339 
L 353.648288 159.479486 
L 353.838552 133.553568 
L 353.901974 142.141238 
L 354.219081 165.2046 
L 354.345924 156.37179 
L 354.536189 186.632036 
L 354.980139 240.692153 
L 355.04356 239.955956 
L 355.106982 228.260745 
L 355.170403 231.859343 
L 355.360668 247.480213 
L 355.487511 258.357617 
L 355.550932 256.394787 
L 355.677775 241.182744 
L 356.121725 282.320706 
L 356.248568 269.398707 
L 356.31199 274.551153 
L 356.375411 279.785365 
L 356.502254 264.900537 
L 356.692519 280.030661 
L 356.75594 279.621835 
L 356.819362 278.313282 
L 357.009626 257.294515 
L 357.073048 260.238681 
L 357.199891 270.298279 
L 357.326734 257.53981 
L 357.390155 262.446962 
L 357.453577 259.747935 
L 357.516998 251.569558 
L 357.580419 253.123406 
L 357.770684 264.409791 
L 357.834105 260.729427 
L 357.897527 249.606728 
L 358.087791 294.343133 
L 358.341477 281.175683 
L 358.722006 290.98983 
L 359.356221 241.264509 
L 359.673328 186.550427 
L 359.73675 192.275229 
L 359.927014 204.625028 
L 360.053857 208.305236 
L 360.117279 214.520939 
L 360.1807 212.067364 
L 360.244122 204.461186 
L 360.307543 209.695398 
L 360.370964 216.320083 
L 360.497807 208.632296 
L 360.751493 223.926105 
L 360.814915 223.68081 
L 361.005179 219.5097 
L 361.068601 220.245897 
L 361.132022 222.535787 
L 361.258865 214.275489 
L 361.385708 230.959616 
L 361.639394 196.609869 
L 361.702816 192.68421 
L 361.766237 199.717877 
L 361.829658 197.591361 
L 361.89308 193.747312 
L 362.019923 209.286728 
L 362.146766 201.18996 
L 362.273609 222.208727 
L 362.33703 218.201147 
L 362.400452 221.063704 
L 362.463873 229.896514 
L 362.527295 228.424275 
L 362.654138 221.799745 
L 362.717559 222.781083 
L 362.780981 227.933685 
L 362.844402 226.461446 
L 362.907824 217.955852 
L 362.971245 220.818253 
L 363.098088 233.167896 
L 363.288352 227.688233 
L 363.415195 234.312919 
L 363.478617 232.922445 
L 363.60546 241.428195 
L 363.668881 232.268169 
L 363.732303 233.985703 
L 363.795724 238.565638 
L 363.922567 225.071128 
L 364.239675 244.127065 
L 364.366518 231.695657 
L 364.429939 234.721744 
L 364.556782 221.717981 
L 364.620204 222.290492 
L 364.683625 227.769998 
L 365.127575 198.409324 
L 365.190997 198.572854 
L 365.31784 204.870167 
L 365.634947 180.171193 
L 365.952055 146.966468 
L 366.015476 148.602082 
L 366.078898 53.568 
L 366.142319 67.30765 
L 366.332583 83.010596 
L 366.396005 86.854333 
L 366.522848 78.021524 
L 366.713112 119.241407 
L 366.839955 118.014464 
L 366.966798 132.981056 
L 367.03022 132.899447 
L 367.093641 132.817526 
L 367.537592 172.810466 
L 367.664434 174.936981 
L 367.791277 170.68395 
L 367.854699 172.156345 
L 367.91812 170.68395 
L 367.981542 173.219447 
L 368.235228 202.580122 
L 368.298649 203.152633 
L 368.425492 187.777059 
L 368.488914 192.766131 
L 368.552335 191.948169 
L 368.615757 185.895995 
L 368.679178 188.18604 
L 368.869443 212.721641 
L 368.932864 208.223315 
L 368.996285 210.104535 
L 369.059707 215.093295 
L 369.18655 202.498513 
L 369.249971 203.888675 
L 369.376814 219.01911 
L 369.503657 210.922341 
L 369.567079 211.249401 
L 369.884186 228.915021 
L 369.947608 229.078552 
L 370.074451 215.665807 
L 370.137872 218.446598 
L 370.201294 221.308999 
L 370.264715 220.000446 
L 370.328137 220.409427 
L 370.454979 212.721641 
L 370.581822 222.372257 
L 370.645244 217.138045 
L 370.708665 218.855424 
L 370.89893 225.071128 
L 370.962351 223.271829 
L 371.089194 208.059784 
L 371.152616 211.085872 
L 371.216037 214.030193 
L 371.34288 201.18996 
L 371.533145 185.814385 
L 371.723409 178.944249 
L 371.850252 153.509233 
L 371.913673 162.914554 
L 371.977095 161.278941 
L 372.167359 145.085404 
L 372.230781 147.78412 
L 372.294202 155.717358 
L 372.357624 153.672763 
L 372.421045 152.282289 
L 372.547888 163.160005 
L 372.738153 127.501705 
L 373.05526 164.059577 
L 373.182103 163.405144 
L 373.245525 164.713698 
L 373.308946 160.379058 
L 373.372367 161.278941 
L 373.49921 175.01859 
L 373.562632 173.301057 
L 373.626053 175.100511 
L 373.752896 185.078344 
L 373.879739 183.033749 
L 373.943161 184.996423 
L 374.070004 193.992763 
L 374.133425 189.167533 
L 374.260268 224.825833 
L 374.32369 223.68081 
L 374.450533 208.468766 
L 374.513954 211.004106 
L 374.640797 201.68055 
L 374.704219 202.580122 
L 374.76764 201.68055 
L 374.894483 211.494853 
L 375.21159 192.19362 
L 375.401855 184.260381 
L 375.465276 185.405404 
L 375.655541 179.844132 
L 375.782384 186.141446 
L 375.845805 184.669362 
L 375.972648 182.379318 
L 376.03607 183.68787 
L 376.099491 181.806806 
L 376.226334 172.483405 
L 376.289755 174.69153 
L 376.606863 156.289869 
L 376.733706 158.661524 
L 376.860549 148.765612 
L 377.050813 170.11144 
L 377.114235 168.066845 
L 377.177656 161.68761 
L 377.241078 162.260122 
L 377.304499 168.394217 
L 377.367921 167.494333 
L 377.558185 157.107831 
L 377.621606 158.906975 
L 377.748449 175.100511 
L 377.875292 162.669103 
L 377.938714 162.751024 
L 378.065557 161.36055 
L 378.1924 163.896046 
L 378.572929 151.301108 
L 378.699772 153.672763 
L 378.763193 151.382718 
L 378.826615 151.464639 
L 378.890036 153.918214 
L 378.953458 153.591154 
L 379.016879 151.137578 
L 379.0803 153.018642 
L 379.207143 166.104171 
L 379.333986 157.843873 
L 379.397408 160.297448 
L 379.460829 164.141186 
L 379.651094 149.420044 
L 379.714515 153.672763 
L 379.777937 154.899706 
L 379.968201 152.03715 
L 380.031623 153.836293 
L 380.095044 153.427312 
L 380.412152 142.059317 
L 380.538994 145.330855 
L 380.665837 139.523821 
L 380.79268 147.86604 
L 380.856102 145.575995 
L 380.919523 140.423704 
L 380.982945 142.87728 
L 381.109788 154.245275 
L 381.236631 144.676423 
L 381.300052 145.903055 
L 381.363474 140.996216 
L 381.490317 155.880887 
L 381.553738 149.338123 
L 381.61716 140.750764 
L 381.744003 155.799279 
L 381.807424 155.390297 
L 381.934267 148.765612 
L 382.06111 152.854801 
L 382.124531 151.791699 
L 382.251374 154.654256 
L 382.378217 144.185833 
L 382.50506 154.490725 
L 382.631903 143.04081 
L 382.695325 145.167013 
L 382.758746 144.430972 
L 382.822168 140.996216 
L 382.885589 142.304768 
L 383.075854 150.074165 
L 383.139275 148.275021 
L 383.32954 143.69493 
L 383.456382 154.981316 
L 383.519804 149.992556 
L 383.583225 142.304768 
L 383.646647 146.802939 
L 383.710068 149.420044 
L 383.836911 139.442211 
L 383.900333 142.958889 
L 383.963754 140.668844 
L 384.027176 142.468299 
L 384.090597 151.87362 
L 384.154019 149.910635 
L 384.21744 141.486806 
L 384.280862 141.895787 
L 384.344283 145.575995 
L 384.407705 143.776851 
L 384.534548 135.516553 
L 384.661391 143.36787 
L 384.724812 141.813866 
L 384.788233 142.87728 
L 384.915076 138.951621 
L 385.041919 152.446131 
L 385.105341 142.795359 
L 385.168762 148.111491 
L 385.232184 163.241615 
L 385.295605 160.788039 
L 385.422448 144.430972 
L 385.48587 145.085404 
L 385.676134 152.773191 
L 385.739556 151.87362 
L 385.802977 152.118759 
L 385.92982 153.018642 
L 386.056663 164.304716 
L 386.183506 149.992556 
L 386.437192 171.501913 
L 386.564035 160.542588 
L 386.690878 179.435151 
L 386.817721 162.096592 
L 386.944564 175.673022 
L 387.007985 166.758292 
L 387.071407 169.70277 
L 387.134828 172.810466 
L 387.19825 162.423652 
L 387.261671 163.896046 
L 387.325093 173.137526 
L 387.451936 158.170933 
L 387.578779 167.249194 
L 387.6422 163.650596 
L 387.895886 180.988843 
L 387.959307 183.769791 
L 388.149572 171.910894 
L 388.276415 183.933321 
L 388.403258 177.881147 
L 388.530101 161.769531 
L 388.847208 184.178461 
L 388.91063 183.933321 
L 389.100894 170.11144 
L 389.164315 175.509493 
L 389.227737 174.037409 
L 389.291158 172.074424 
L 389.35458 174.282549 
L 389.418001 173.464898 
L 389.481423 172.237955 
L 389.608266 182.215787 
L 389.671687 177.635696 
L 389.735109 171.665443 
L 389.79853 173.382978 
L 389.861952 175.100511 
L 390.052216 194.401744 
L 390.115638 187.286468 
L 390.179059 183.8514 
L 390.242481 185.159953 
L 390.369324 186.304976 
L 390.432745 145.903055 
L 390.496167 149.420044 
L 390.623009 149.338123 
L 390.940117 176.736124 
L 391.003538 173.546507 
L 391.130381 160.788039 
L 391.320646 174.609609 
L 391.447489 174.037409 
L 391.51091 174.85506 
L 391.574332 168.884807 
L 391.637753 170.847792 
L 391.701175 177.145105 
L 391.764596 174.282549 
L 391.828018 170.847792 
L 391.954861 175.918474 
L 392.081703 170.02983 
L 392.271968 192.438759 
L 392.335389 190.639616 
L 392.462232 197.01885 
L 392.589075 183.36081 
L 392.652497 184.096851 
L 392.77934 193.747312 
L 393.033026 178.290128 
L 393.22329 188.267961 
L 393.286712 187.368078 
L 393.350133 180.907234 
L 393.413554 183.19728 
L 393.540397 198.081952 
L 393.603819 198.000342 
L 393.730662 205.442679 
L 393.794083 204.379577 
L 394.174612 146.312036 
L 394.238034 147.129999 
L 394.364877 138.8697 
L 394.428298 140.423704 
L 394.49172 139.115151 
L 394.618563 142.304768 
L 394.681984 142.059317 
L 394.808827 154.817786 
L 394.93567 140.096332 
L 395.443042 205.442679 
L 395.506463 202.743963 
L 395.569885 206.260641 
L 395.633306 204.297656 
L 395.696728 194.728804 
L 395.760149 198.899915 
L 395.886992 212.394424 
L 395.950414 211.740148 
L 396.077257 217.301576 
L 396.140678 221.308999 
L 396.267521 201.926001 
L 396.330942 205.85166 
L 396.457785 212.312659 
L 396.711471 237.093555 
L 396.838314 218.201147 
L 396.901736 221.472529 
L 396.965157 225.316423 
L 397.092 215.175216 
L 397.409108 237.17532 
L 397.599372 212.721641 
L 397.662794 215.01153 
L 397.726215 222.535787 
L 397.789636 222.372257 
L 397.916479 211.249401 
L 398.043322 221.227234 
L 398.106744 214.68447 
L 398.170165 216.729064 
L 398.297008 221.88151 
L 398.36043 221.55445 
L 398.487273 209.531867 
L 398.487273 209.531867 
" clip-path="url(#p18ba26cee5)" style="fill: none; stroke: #1f77b4; stroke-width: 1.5; stroke-linecap: square"/>
   </g>
   <g id="patch_3">
    <path d="M 57.6 307.584 
L 57.6 41.472 
" style="fill: none; stroke: #000000; stroke-width: 0.8; stroke-linejoin: miter; stroke-linecap: square"/>
   </g>
   <g id="patch_4">
    <path d="M 414.72 307.584 
L 414.72 41.472 
" style="fill: none; stroke: #000000; stroke-width: 0.8; stroke-linejoin: miter; stroke-linecap: square"/>
   </g>
   <g id="patch_5">
    <path d="M 57.6 307.584 
L 414.72 307.584 
" style="fill: none; stroke: #000000; stroke-width: 0.8; stroke-linejoin: miter; stroke-linecap: square"/>
   </g>
   <g id="patch_6">
    <path d="M 57.6 41.472 
L 414.72 41.472 
" style="fill: none; stroke: #000000; stroke-width: 0.8; stroke-linejoin: miter; stroke-linecap: square"/>
   </g>
   <g id="legend_1">
    <g id="patch_7">
     <path d="M 64.6 64.150125 
L 118.245312 64.150125 
Q 120.245312 64.150125 120.245312 62.150125 
L 120.245312 48.472 
Q 120.245312 46.472 118.245312 46.472 
L 64.6 46.472 
Q 62.6 46.472 62.6 48.472 
L 62.6 62.150125 
Q 62.6 64.150125 64.6 64.150125 
z
" style="fill: #ffffff; opacity: 0.8; stroke: #cccccc; stroke-linejoin: miter"/>
    </g>
    <g id="line2d_17">
     <path d="M 66.6 54.570438 
L 76.6 54.570438 
L 86.6 54.570438 
" style="fill: none; stroke: #1f77b4; stroke-width: 1.5; stroke-linecap: square"/>
    </g>
    <g id="text_16">
     <!-- set2 -->
     <g transform="translate(94.6 58.070438)scale(0.1 -0.1)">
      <defs>
       <path id="DejaVuSans-73" d="M 2834 3397 
L 2834 2853 
Q 2591 2978 2328 3040 
Q 2066 3103 1784 3103 
Q 1356 3103 1142 2972 
Q 928 2841 928 2578 
Q 928 2378 1081 2264 
Q 1234 2150 1697 2047 
L 1894 2003 
Q 2506 1872 2764 1633 
Q 3022 1394 3022 966 
Q 3022 478 2636 193 
Q 2250 -91 1575 -91 
Q 1294 -91 989 -36 
Q 684 19 347 128 
L 347 722 
Q 666 556 975 473 
Q 1284 391 1588 391 
Q 1994 391 2212 530 
Q 2431 669 2431 922 
Q 2431 1156 2273 1281 
Q 2116 1406 1581 1522 
L 1381 1569 
Q 847 1681 609 1914 
Q 372 2147 372 2553 
Q 372 3047 722 3315 
Q 1072 3584 1716 3584 
Q 2034 3584 2315 3537 
Q 2597 3491 2834 3397 
z
" transform="scale(0.015625)"/>
       <path id="DejaVuSans-65" d="M 3597 1894 
L 3597 1613 
L 953 1613 
Q 991 1019 1311 708 
Q 1631 397 2203 397 
Q 2534 397 2845 478 
Q 3156 559 3463 722 
L 3463 178 
Q 3153 47 2828 -22 
Q 2503 -91 2169 -91 
Q 1331 -91 842 396 
Q 353 884 353 1716 
Q 353 2575 817 3079 
Q 1281 3584 2069 3584 
Q 2775 3584 3186 3129 
Q 3597 2675 3597 1894 
z
M 3022 2063 
Q 3016 2534 2758 2815 
Q 2500 3097 2075 3097 
Q 1594 3097 1305 2825 
Q 1016 2553 972 2059 
L 3022 2063 
z
" transform="scale(0.015625)"/>
       <path id="DejaVuSans-74" d="M 1172 4494 
L 1172 3500 
L 2356 3500 
L 2356 3053 
L 1172 3053 
L 1172 1153 
Q 1172 725 1289 603 
Q 1406 481 1766 481 
L 2356 481 
L 2356 0 
L 1766 0 
Q 1100 0 847 248 
Q 594 497 594 1153 
L 594 3053 
L 172 3053 
L 172 3500 
L 594 3500 
L 594 4494 
L 1172 4494 
z
" transform="scale(0.015625)"/>
      </defs>
      <use xlink:href="#DejaVuSans-73"/>
      <use xlink:href="#DejaVuSans-65" x="52.099609"/>
      <use xlink:href="#DejaVuSans-74" x="113.623047"/>
      <use xlink:href="#DejaVuSans-32" x="152.832031"/>
     </g>
    </g>
   </g>
  </g>
 </g>
 <defs>
  <clipPath id="p18ba26cee5">
   <rect x="57.6" y="41.472" width="357.12" height="266.112"/>
  </clipPath>
 </defs>
</svg>
