<?xml version="1.0" encoding="utf-8" standalone="no"?>
<!DOCTYPE svg PUBLIC "-//W3C//DTD SVG 1.1//EN"
  "http://www.w3.org/Graphics/SVG/1.1/DTD/svg11.dtd">
<svg xmlns:xlink="http://www.w3.org/1999/xlink" width="460.8pt" height="345.6pt" viewBox="0 0 460.8 345.6" xmlns="http://www.w3.org/2000/svg" version="1.1">
 <metadata>
  <rdf:RDF xmlns:dc="http://purl.org/dc/elements/1.1/" xmlns:cc="http://creativecommons.org/ns#" xmlns:rdf="http://www.w3.org/1999/02/22-rdf-syntax-ns#">
   <cc:Work>
    <dc:type rdf:resource="http://purl.org/dc/dcmitype/StillImage"/>
    <dc:date>2022-08-11T15:18:14.073780</dc:date>
    <dc:format>image/svg+xml</dc:format>
    <dc:creator>
     <cc:Agent>
      <dc:title>Matplotlib v3.5.2, https://matplotlib.org/</dc:title>
     </cc:Agent>
    </dc:creator>
   </cc:Work>
  </rdf:RDF>
 </metadata>
 <defs>
  <style type="text/css">*{stroke-linejoin: round; stroke-linecap: butt}</style>
 </defs>
 <g id="figure_1">
  <g id="patch_1">
   <path d="M 0 345.6 
L 460.8 345.6 
L 460.8 0 
L 0 0 
z
" style="fill: #ffffff"/>
  </g>
  <g id="axes_1">
   <g id="patch_2">
    <path d="M 57.6 307.584 
L 414.72 307.584 
L 414.72 41.472 
L 57.6 41.472 
z
" style="fill: #ffffff"/>
   </g>
   <g id="matplotlib.axis_1">
    <g id="xtick_1">
     <g id="line2d_1">
      <defs>
       <path id="m4b2663c819" d="M 0 0 
L 0 3.5 
" style="stroke: #000000; stroke-width: 0.8"/>
      </defs>
      <g>
       <use xlink:href="#m4b2663c819" x="73.832727" y="307.584" style="stroke: #000000; stroke-width: 0.8"/>
      </g>
     </g>
     <g id="text_1">
      <!-- 0 -->
      <g transform="translate(70.651477 322.182437)scale(0.1 -0.1)">
       <defs>
        <path id="DejaVuSans-30" d="M 2034 4250 
Q 1547 4250 1301 3770 
Q 1056 3291 1056 2328 
Q 1056 1369 1301 889 
Q 1547 409 2034 409 
Q 2525 409 2770 889 
Q 3016 1369 3016 2328 
Q 3016 3291 2770 3770 
Q 2525 4250 2034 4250 
z
M 2034 4750 
Q 2819 4750 3233 4129 
Q 3647 3509 3647 2328 
Q 3647 1150 3233 529 
Q 2819 -91 2034 -91 
Q 1250 -91 836 529 
Q 422 1150 422 2328 
Q 422 3509 836 4129 
Q 1250 4750 2034 4750 
z
" transform="scale(0.015625)"/>
       </defs>
       <use xlink:href="#DejaVuSans-30"/>
      </g>
     </g>
    </g>
    <g id="xtick_2">
     <g id="line2d_2">
      <g>
       <use xlink:href="#m4b2663c819" x="118.936165" y="307.584" style="stroke: #000000; stroke-width: 0.8"/>
      </g>
     </g>
     <g id="text_2">
      <!-- 500 -->
      <g transform="translate(109.392415 322.182437)scale(0.1 -0.1)">
       <defs>
        <path id="DejaVuSans-35" d="M 691 4666 
L 3169 4666 
L 3169 4134 
L 1269 4134 
L 1269 2991 
Q 1406 3038 1543 3061 
Q 1681 3084 1819 3084 
Q 2600 3084 3056 2656 
Q 3513 2228 3513 1497 
Q 3513 744 3044 326 
Q 2575 -91 1722 -91 
Q 1428 -91 1123 -41 
Q 819 9 494 109 
L 494 744 
Q 775 591 1075 516 
Q 1375 441 1709 441 
Q 2250 441 2565 725 
Q 2881 1009 2881 1497 
Q 2881 1984 2565 2268 
Q 2250 2553 1709 2553 
Q 1456 2553 1204 2497 
Q 953 2441 691 2322 
L 691 4666 
z
" transform="scale(0.015625)"/>
       </defs>
       <use xlink:href="#DejaVuSans-35"/>
       <use xlink:href="#DejaVuSans-30" x="63.623047"/>
       <use xlink:href="#DejaVuSans-30" x="127.246094"/>
      </g>
     </g>
    </g>
    <g id="xtick_3">
     <g id="line2d_3">
      <g>
       <use xlink:href="#m4b2663c819" x="164.039603" y="307.584" style="stroke: #000000; stroke-width: 0.8"/>
      </g>
     </g>
     <g id="text_3">
      <!-- 1000 -->
      <g transform="translate(151.314603 322.182437)scale(0.1 -0.1)">
       <defs>
        <path id="DejaVuSans-31" d="M 794 531 
L 1825 531 
L 1825 4091 
L 703 3866 
L 703 4441 
L 1819 4666 
L 2450 4666 
L 2450 531 
L 3481 531 
L 3481 0 
L 794 0 
L 794 531 
z
" transform="scale(0.015625)"/>
       </defs>
       <use xlink:href="#DejaVuSans-31"/>
       <use xlink:href="#DejaVuSans-30" x="63.623047"/>
       <use xlink:href="#DejaVuSans-30" x="127.246094"/>
       <use xlink:href="#DejaVuSans-30" x="190.869141"/>
      </g>
     </g>
    </g>
    <g id="xtick_4">
     <g id="line2d_4">
      <g>
       <use xlink:href="#m4b2663c819" x="209.143041" y="307.584" style="stroke: #000000; stroke-width: 0.8"/>
      </g>
     </g>
     <g id="text_4">
      <!-- 1500 -->
      <g transform="translate(196.418041 322.182437)scale(0.1 -0.1)">
       <use xlink:href="#DejaVuSans-31"/>
       <use xlink:href="#DejaVuSans-35" x="63.623047"/>
       <use xlink:href="#DejaVuSans-30" x="127.246094"/>
       <use xlink:href="#DejaVuSans-30" x="190.869141"/>
      </g>
     </g>
    </g>
    <g id="xtick_5">
     <g id="line2d_5">
      <g>
       <use xlink:href="#m4b2663c819" x="254.246479" y="307.584" style="stroke: #000000; stroke-width: 0.8"/>
      </g>
     </g>
     <g id="text_5">
      <!-- 2000 -->
      <g transform="translate(241.521479 322.182437)scale(0.1 -0.1)">
       <defs>
        <path id="DejaVuSans-32" d="M 1228 531 
L 3431 531 
L 3431 0 
L 469 0 
L 469 531 
Q 828 903 1448 1529 
Q 2069 2156 2228 2338 
Q 2531 2678 2651 2914 
Q 2772 3150 2772 3378 
Q 2772 3750 2511 3984 
Q 2250 4219 1831 4219 
Q 1534 4219 1204 4116 
Q 875 4013 500 3803 
L 500 4441 
Q 881 4594 1212 4672 
Q 1544 4750 1819 4750 
Q 2544 4750 2975 4387 
Q 3406 4025 3406 3419 
Q 3406 3131 3298 2873 
Q 3191 2616 2906 2266 
Q 2828 2175 2409 1742 
Q 1991 1309 1228 531 
z
" transform="scale(0.015625)"/>
       </defs>
       <use xlink:href="#DejaVuSans-32"/>
       <use xlink:href="#DejaVuSans-30" x="63.623047"/>
       <use xlink:href="#DejaVuSans-30" x="127.246094"/>
       <use xlink:href="#DejaVuSans-30" x="190.869141"/>
      </g>
     </g>
    </g>
    <g id="xtick_6">
     <g id="line2d_6">
      <g>
       <use xlink:href="#m4b2663c819" x="299.349916" y="307.584" style="stroke: #000000; stroke-width: 0.8"/>
      </g>
     </g>
     <g id="text_6">
      <!-- 2500 -->
      <g transform="translate(286.624916 322.182437)scale(0.1 -0.1)">
       <use xlink:href="#DejaVuSans-32"/>
       <use xlink:href="#DejaVuSans-35" x="63.623047"/>
       <use xlink:href="#DejaVuSans-30" x="127.246094"/>
       <use xlink:href="#DejaVuSans-30" x="190.869141"/>
      </g>
     </g>
    </g>
    <g id="xtick_7">
     <g id="line2d_7">
      <g>
       <use xlink:href="#m4b2663c819" x="344.453354" y="307.584" style="stroke: #000000; stroke-width: 0.8"/>
      </g>
     </g>
     <g id="text_7">
      <!-- 3000 -->
      <g transform="translate(331.728354 322.182437)scale(0.1 -0.1)">
       <defs>
        <path id="DejaVuSans-33" d="M 2597 2516 
Q 3050 2419 3304 2112 
Q 3559 1806 3559 1356 
Q 3559 666 3084 287 
Q 2609 -91 1734 -91 
Q 1441 -91 1130 -33 
Q 819 25 488 141 
L 488 750 
Q 750 597 1062 519 
Q 1375 441 1716 441 
Q 2309 441 2620 675 
Q 2931 909 2931 1356 
Q 2931 1769 2642 2001 
Q 2353 2234 1838 2234 
L 1294 2234 
L 1294 2753 
L 1863 2753 
Q 2328 2753 2575 2939 
Q 2822 3125 2822 3475 
Q 2822 3834 2567 4026 
Q 2313 4219 1838 4219 
Q 1578 4219 1281 4162 
Q 984 4106 628 3988 
L 628 4550 
Q 988 4650 1302 4700 
Q 1616 4750 1894 4750 
Q 2613 4750 3031 4423 
Q 3450 4097 3450 3541 
Q 3450 3153 3228 2886 
Q 3006 2619 2597 2516 
z
" transform="scale(0.015625)"/>
       </defs>
       <use xlink:href="#DejaVuSans-33"/>
       <use xlink:href="#DejaVuSans-30" x="63.623047"/>
       <use xlink:href="#DejaVuSans-30" x="127.246094"/>
       <use xlink:href="#DejaVuSans-30" x="190.869141"/>
      </g>
     </g>
    </g>
    <g id="xtick_8">
     <g id="line2d_8">
      <g>
       <use xlink:href="#m4b2663c819" x="389.556792" y="307.584" style="stroke: #000000; stroke-width: 0.8"/>
      </g>
     </g>
     <g id="text_8">
      <!-- 3500 -->
      <g transform="translate(376.831792 322.182437)scale(0.1 -0.1)">
       <use xlink:href="#DejaVuSans-33"/>
       <use xlink:href="#DejaVuSans-35" x="63.623047"/>
       <use xlink:href="#DejaVuSans-30" x="127.246094"/>
       <use xlink:href="#DejaVuSans-30" x="190.869141"/>
      </g>
     </g>
    </g>
   </g>
   <g id="matplotlib.axis_2">
    <g id="ytick_1">
     <g id="line2d_9">
      <defs>
       <path id="mb7e109967c" d="M 0 0 
L -3.5 0 
" style="stroke: #000000; stroke-width: 0.8"/>
      </defs>
      <g>
       <use xlink:href="#mb7e109967c" x="57.6" y="302.726595" style="stroke: #000000; stroke-width: 0.8"/>
      </g>
     </g>
     <g id="text_9">
      <!-- 4020 -->
      <g transform="translate(25.15 306.525814)scale(0.1 -0.1)">
       <defs>
        <path id="DejaVuSans-34" d="M 2419 4116 
L 825 1625 
L 2419 1625 
L 2419 4116 
z
M 2253 4666 
L 3047 4666 
L 3047 1625 
L 3713 1625 
L 3713 1100 
L 3047 1100 
L 3047 0 
L 2419 0 
L 2419 1100 
L 313 1100 
L 313 1709 
L 2253 4666 
z
" transform="scale(0.015625)"/>
       </defs>
       <use xlink:href="#DejaVuSans-34"/>
       <use xlink:href="#DejaVuSans-30" x="63.623047"/>
       <use xlink:href="#DejaVuSans-32" x="127.246094"/>
       <use xlink:href="#DejaVuSans-30" x="190.869141"/>
      </g>
     </g>
    </g>
    <g id="ytick_2">
     <g id="line2d_10">
      <g>
       <use xlink:href="#mb7e109967c" x="57.6" y="273.010446" style="stroke: #000000; stroke-width: 0.8"/>
      </g>
     </g>
     <g id="text_10">
      <!-- 4040 -->
      <g transform="translate(25.15 276.809665)scale(0.1 -0.1)">
       <use xlink:href="#DejaVuSans-34"/>
       <use xlink:href="#DejaVuSans-30" x="63.623047"/>
       <use xlink:href="#DejaVuSans-34" x="127.246094"/>
       <use xlink:href="#DejaVuSans-30" x="190.869141"/>
      </g>
     </g>
    </g>
    <g id="ytick_3">
     <g id="line2d_11">
      <g>
       <use xlink:href="#mb7e109967c" x="57.6" y="243.294297" style="stroke: #000000; stroke-width: 0.8"/>
      </g>
     </g>
     <g id="text_11">
      <!-- 4060 -->
      <g transform="translate(25.15 247.093515)scale(0.1 -0.1)">
       <defs>
        <path id="DejaVuSans-36" d="M 2113 2584 
Q 1688 2584 1439 2293 
Q 1191 2003 1191 1497 
Q 1191 994 1439 701 
Q 1688 409 2113 409 
Q 2538 409 2786 701 
Q 3034 994 3034 1497 
Q 3034 2003 2786 2293 
Q 2538 2584 2113 2584 
z
M 3366 4563 
L 3366 3988 
Q 3128 4100 2886 4159 
Q 2644 4219 2406 4219 
Q 1781 4219 1451 3797 
Q 1122 3375 1075 2522 
Q 1259 2794 1537 2939 
Q 1816 3084 2150 3084 
Q 2853 3084 3261 2657 
Q 3669 2231 3669 1497 
Q 3669 778 3244 343 
Q 2819 -91 2113 -91 
Q 1303 -91 875 529 
Q 447 1150 447 2328 
Q 447 3434 972 4092 
Q 1497 4750 2381 4750 
Q 2619 4750 2861 4703 
Q 3103 4656 3366 4563 
z
" transform="scale(0.015625)"/>
       </defs>
       <use xlink:href="#DejaVuSans-34"/>
       <use xlink:href="#DejaVuSans-30" x="63.623047"/>
       <use xlink:href="#DejaVuSans-36" x="127.246094"/>
       <use xlink:href="#DejaVuSans-30" x="190.869141"/>
      </g>
     </g>
    </g>
    <g id="ytick_4">
     <g id="line2d_12">
      <g>
       <use xlink:href="#mb7e109967c" x="57.6" y="213.578147" style="stroke: #000000; stroke-width: 0.8"/>
      </g>
     </g>
     <g id="text_12">
      <!-- 4080 -->
      <g transform="translate(25.15 217.377366)scale(0.1 -0.1)">
       <defs>
        <path id="DejaVuSans-38" d="M 2034 2216 
Q 1584 2216 1326 1975 
Q 1069 1734 1069 1313 
Q 1069 891 1326 650 
Q 1584 409 2034 409 
Q 2484 409 2743 651 
Q 3003 894 3003 1313 
Q 3003 1734 2745 1975 
Q 2488 2216 2034 2216 
z
M 1403 2484 
Q 997 2584 770 2862 
Q 544 3141 544 3541 
Q 544 4100 942 4425 
Q 1341 4750 2034 4750 
Q 2731 4750 3128 4425 
Q 3525 4100 3525 3541 
Q 3525 3141 3298 2862 
Q 3072 2584 2669 2484 
Q 3125 2378 3379 2068 
Q 3634 1759 3634 1313 
Q 3634 634 3220 271 
Q 2806 -91 2034 -91 
Q 1263 -91 848 271 
Q 434 634 434 1313 
Q 434 1759 690 2068 
Q 947 2378 1403 2484 
z
M 1172 3481 
Q 1172 3119 1398 2916 
Q 1625 2713 2034 2713 
Q 2441 2713 2670 2916 
Q 2900 3119 2900 3481 
Q 2900 3844 2670 4047 
Q 2441 4250 2034 4250 
Q 1625 4250 1398 4047 
Q 1172 3844 1172 3481 
z
" transform="scale(0.015625)"/>
       </defs>
       <use xlink:href="#DejaVuSans-34"/>
       <use xlink:href="#DejaVuSans-30" x="63.623047"/>
       <use xlink:href="#DejaVuSans-38" x="127.246094"/>
       <use xlink:href="#DejaVuSans-30" x="190.869141"/>
      </g>
     </g>
    </g>
    <g id="ytick_5">
     <g id="line2d_13">
      <g>
       <use xlink:href="#mb7e109967c" x="57.6" y="183.861998" style="stroke: #000000; stroke-width: 0.8"/>
      </g>
     </g>
     <g id="text_13">
      <!-- 4100 -->
      <g transform="translate(25.15 187.661217)scale(0.1 -0.1)">
       <use xlink:href="#DejaVuSans-34"/>
       <use xlink:href="#DejaVuSans-31" x="63.623047"/>
       <use xlink:href="#DejaVuSans-30" x="127.246094"/>
       <use xlink:href="#DejaVuSans-30" x="190.869141"/>
      </g>
     </g>
    </g>
    <g id="ytick_6">
     <g id="line2d_14">
      <g>
       <use xlink:href="#mb7e109967c" x="57.6" y="154.145848" style="stroke: #000000; stroke-width: 0.8"/>
      </g>
     </g>
     <g id="text_14">
      <!-- 4120 -->
      <g transform="translate(25.15 157.945067)scale(0.1 -0.1)">
       <use xlink:href="#DejaVuSans-34"/>
       <use xlink:href="#DejaVuSans-31" x="63.623047"/>
       <use xlink:href="#DejaVuSans-32" x="127.246094"/>
       <use xlink:href="#DejaVuSans-30" x="190.869141"/>
      </g>
     </g>
    </g>
    <g id="ytick_7">
     <g id="line2d_15">
      <g>
       <use xlink:href="#mb7e109967c" x="57.6" y="124.429699" style="stroke: #000000; stroke-width: 0.8"/>
      </g>
     </g>
     <g id="text_15">
      <!-- 4140 -->
      <g transform="translate(25.15 128.228918)scale(0.1 -0.1)">
       <use xlink:href="#DejaVuSans-34"/>
       <use xlink:href="#DejaVuSans-31" x="63.623047"/>
       <use xlink:href="#DejaVuSans-34" x="127.246094"/>
       <use xlink:href="#DejaVuSans-30" x="190.869141"/>
      </g>
     </g>
    </g>
    <g id="ytick_8">
     <g id="line2d_16">
      <g>
       <use xlink:href="#mb7e109967c" x="57.6" y="94.71355" style="stroke: #000000; stroke-width: 0.8"/>
      </g>
     </g>
     <g id="text_16">
      <!-- 4160 -->
      <g transform="translate(25.15 98.512768)scale(0.1 -0.1)">
       <use xlink:href="#DejaVuSans-34"/>
       <use xlink:href="#DejaVuSans-31" x="63.623047"/>
       <use xlink:href="#DejaVuSans-36" x="127.246094"/>
       <use xlink:href="#DejaVuSans-30" x="190.869141"/>
      </g>
     </g>
    </g>
    <g id="ytick_9">
     <g id="line2d_17">
      <g>
       <use xlink:href="#mb7e109967c" x="57.6" y="64.9974" style="stroke: #000000; stroke-width: 0.8"/>
      </g>
     </g>
     <g id="text_17">
      <!-- 4180 -->
      <g transform="translate(25.15 68.796619)scale(0.1 -0.1)">
       <use xlink:href="#DejaVuSans-34"/>
       <use xlink:href="#DejaVuSans-31" x="63.623047"/>
       <use xlink:href="#DejaVuSans-38" x="127.246094"/>
       <use xlink:href="#DejaVuSans-30" x="190.869141"/>
      </g>
     </g>
    </g>
   </g>
   <g id="line2d_18">
    <path d="M 73.832727 128.810944 
L 73.922934 122.524557 
L 74.013141 136.430786 
L 74.103348 133.763879 
L 74.193555 116.809857 
L 74.283762 120.048454 
L 74.373969 129.572712 
L 74.464175 129.001748 
L 74.554382 127.477491 
L 74.734796 149.38372 
L 74.825003 146.716811 
L 75.005417 121.572711 
L 75.095624 122.143674 
L 75.18583 121.76279 
L 75.276037 123.477128 
L 75.366244 121.572711 
L 75.456451 121.76279 
L 75.546658 122.524557 
L 75.636865 120.239257 
L 75.817279 129.572712 
L 75.997692 126.239075 
L 76.62914 125.572349 
L 76.719347 129.382632 
L 76.809554 128.049178 
L 76.899761 124.429699 
L 77.080175 136.81167 
L 77.350795 124.238895 
L 77.441002 126.144037 
L 77.621416 130.334478 
L 77.80183 129.572712 
L 77.982244 117.762428 
L 78.162657 130.334478 
L 78.252864 128.049178 
L 78.343071 123.096245 
L 78.523485 131.09697 
L 78.613692 130.334478 
L 78.884312 116.809857 
L 79.24514 138.526008 
L 79.335347 136.239981 
L 79.51576 108.428974 
L 79.696174 120.048454 
L 79.786381 116.238896 
L 79.966795 122.524557 
L 80.057002 109.952508 
L 80.147209 115.095519 
L 80.327622 128.810944 
L 80.508036 139.287774 
L 80.68845 127.477491 
L 80.778657 128.810944 
L 80.95907 123.096245 
L 81.139484 127.477491 
L 81.229691 125.763153 
L 81.319898 127.096607 
L 81.410105 137.382631 
L 81.500312 136.81167 
L 81.590519 121.953595 
L 81.680725 122.90544 
L 81.770932 132.049541 
L 81.861139 123.667933 
L 81.951346 149.764603 
L 82.041553 148.431149 
L 82.13176 150.907252 
L 82.221967 140.430424 
L 82.312174 142.335566 
L 82.40238 147.097695 
L 82.582794 138.526008 
L 82.763208 156.050991 
L 82.943622 136.239981 
L 83.033829 142.716448 
L 83.124035 142.335566 
L 83.304449 127.477491 
L 83.57507 153.003199 
L 83.755484 130.906166 
L 83.84569 132.620502 
L 83.935897 131.09697 
L 84.026104 132.430425 
L 84.206518 152.812394 
L 84.657552 130.525282 
L 84.837966 152.240706 
L 85.108587 120.620141 
L 85.289 115.095519 
L 85.469414 127.477491 
L 85.559621 126.144037 
L 85.649828 113.571987 
L 85.740035 115.667207 
L 85.830242 124.810583 
L 85.920449 121.001024 
L 86.010655 122.334479 
L 86.100862 130.906166 
L 86.191069 130.144398 
L 86.281276 125.953958 
L 86.371483 129.191828 
L 86.551897 126.524919 
L 86.642104 129.001748 
L 86.822517 125.953958 
L 86.912724 130.334478 
L 87.002931 128.810944 
L 87.093138 124.238895 
L 87.273552 129.953594 
L 87.453965 122.90544 
L 87.634379 125.191465 
L 87.724586 122.524557 
L 87.814793 124.429699 
L 88.175621 148.812031 
L 88.265827 141.573798 
L 88.446241 122.90544 
L 88.536448 126.524919 
L 88.626655 124.810583 
L 88.807069 144.049903 
L 88.897276 139.287774 
L 88.987482 127.286687 
L 89.077689 129.001748 
L 89.167896 132.23962 
L 89.258103 127.096607 
L 89.438517 146.526007 
L 89.618931 123.287049 
L 89.799344 146.716811 
L 89.889551 145.764241 
L 89.979758 150.33629 
L 90.069965 119.66757 
L 90.160172 125.763153 
L 90.340586 128.62014 
L 90.430792 127.477491 
L 90.520999 124.810583 
L 90.701413 139.287774 
L 90.79162 135.097332 
L 90.972034 151.669744 
L 91.062241 148.050265 
L 91.152447 140.621228 
L 91.332861 156.241069 
L 91.603482 143.097332 
L 91.693689 146.526007 
L 91.874102 144.240707 
L 91.964309 145.764241 
L 92.054516 149.764603 
L 92.776171 130.716086 
L 92.866378 132.811307 
L 93.046792 147.669382 
L 93.317412 131.287048 
L 93.407619 132.430425 
L 93.497826 128.810944 
L 93.588033 130.906166 
L 93.768447 149.955406 
L 93.948861 130.144398 
L 94.039067 133.953957 
L 94.219481 152.812394 
L 94.309688 135.478215 
L 94.399895 141.192916 
L 94.490102 155.098419 
L 94.670516 130.906166 
L 94.850929 152.240706 
L 94.941136 143.478214 
L 95.031343 145.764241 
L 95.211757 133.573074 
L 95.392171 149.764603 
L 95.662791 118.905804 
L 95.752998 124.048815 
L 95.933412 149.38372 
L 96.023619 147.097695 
L 96.204032 134.525645 
L 96.384446 137.763515 
L 96.655067 122.90544 
L 96.745274 127.858374 
L 96.835481 123.096245 
L 96.925687 111.666845 
L 97.015894 118.143311 
L 97.106101 132.620502 
L 97.196308 130.334478 
L 97.286515 123.477128 
L 97.376722 124.810583 
L 97.466929 121.76279 
L 97.647342 129.763516 
L 97.737549 122.715361 
L 97.827756 123.287049 
L 97.917963 129.572712 
L 98.098377 124.048815 
L 98.188584 127.477491 
L 98.278791 125.763153 
L 98.368997 127.858374 
L 98.459204 126.334841 
L 98.639618 131.858736 
L 98.729825 129.763516 
L 98.910239 131.477853 
L 99.090652 123.096245 
L 99.180859 126.334841 
L 99.361273 121.572711 
L 99.541687 130.144398 
L 99.722101 128.810944 
L 99.902514 111.857649 
L 100.082928 130.144398 
L 100.173135 126.715724 
L 100.263342 129.191828 
L 100.353549 136.239981 
L 100.89479 115.667207 
L 101.075204 128.049178 
L 101.255617 125.382269 
L 101.436031 136.620865 
L 101.616445 122.143674 
L 101.796859 127.477491 
L 101.977272 116.428973 
L 102.157686 131.09697 
L 102.3381 120.81022 
L 102.428307 121.191102 
L 102.608721 126.715724 
L 102.879341 118.905804 
L 103.149962 136.049177 
L 103.240169 132.620502 
L 103.420582 120.239257 
L 103.600996 127.668294 
L 103.78141 125.382269 
L 103.961824 155.670107 
L 104.142237 128.239257 
L 104.322651 149.002836 
L 104.412858 140.430424 
L 104.593272 152.43151 
L 104.773686 146.145123 
L 104.863892 148.812031 
L 105.044306 126.905803 
L 105.22472 134.715724 
L 105.405134 125.001387 
L 105.585548 135.478215 
L 105.765961 127.096607 
L 105.946375 130.716086 
L 106.126789 125.763153 
L 106.216996 126.144037 
L 106.307203 144.240707 
L 106.487616 122.334479 
L 106.577823 122.715361 
L 106.66803 130.144398 
L 106.758237 129.001748 
L 106.848444 127.668294 
L 106.938651 133.382995 
L 107.119064 112.619417 
L 107.209271 117.191466 
L 107.299478 117.381545 
L 107.389685 102.142587 
L 107.479892 103.095157 
L 107.660306 123.858011 
L 107.750513 120.048454 
L 107.840719 120.429336 
L 107.930926 121.381907 
L 108.11134 139.859462 
L 108.381961 123.667933 
L 108.652581 144.811669 
L 108.832995 125.001387 
L 109.013409 145.002473 
L 109.103616 143.097332 
L 109.193823 138.145124 
L 109.284029 146.907615 
L 109.374236 145.192552 
L 109.55465 123.477128 
L 109.644857 118.715 
L 109.915478 78.522021 
L 110.005684 85.570174 
L 110.186098 79.66467 
L 110.366512 100.428249 
L 110.546926 95.856199 
L 110.817546 105.762066 
L 110.907753 103.666846 
L 110.99796 104.999575 
L 111.178374 137.192553 
L 111.268581 124.620503 
L 111.358788 128.430062 
L 111.448994 145.383357 
L 111.629408 129.763516 
L 111.990236 154.526732 
L 112.170649 141.573798 
L 112.260856 150.145486 
L 112.351063 147.478577 
L 112.44127 149.38372 
L 112.531477 163.099144 
L 112.621684 161.95577 
L 112.802098 150.526369 
L 112.892304 155.670107 
L 113.072718 140.621228 
L 113.162925 146.716811 
L 113.253132 143.097332 
L 113.433546 125.191465 
L 113.523753 127.668294 
L 113.794373 148.24107 
L 113.88458 143.478214 
L 114.064994 151.098056 
L 114.155201 147.288499 
L 114.335614 155.288498 
L 114.516028 122.715361 
L 114.606235 133.382995 
L 114.696442 131.477853 
L 114.786649 124.238895 
L 115.057269 133.382995 
L 115.237683 125.191465 
L 115.418097 153.193278 
L 115.508304 146.716811 
L 115.688718 122.524557 
L 115.959338 130.144398 
L 116.049545 125.572349 
L 116.139752 126.144037 
L 116.229959 132.430425 
L 116.320166 128.62014 
L 116.410373 131.09697 
L 116.500579 147.097695 
L 116.590786 145.192552 
L 117.312441 131.477853 
L 117.402648 141.763878 
L 117.492855 140.812032 
L 117.583062 128.810944 
L 117.673269 129.001748 
L 117.763476 133.573074 
L 117.853683 129.953594 
L 118.034096 134.715724 
L 118.304717 125.953958 
L 118.485131 132.430425 
L 118.665544 126.334841 
L 118.755751 130.334478 
L 118.936165 126.905803 
L 119.116579 132.430425 
L 119.296993 121.953595 
L 119.838234 155.670107 
L 119.928441 151.098056 
L 120.108854 117.381545 
L 120.289268 138.716085 
L 120.469682 125.572349 
L 120.650096 153.955044 
L 120.830509 124.429699 
L 121.010923 153.955044 
L 121.10113 153.764965 
L 121.191337 154.717537 
L 121.371751 129.382632 
L 121.552164 148.812031 
L 121.642371 140.430424 
L 121.822785 145.002473 
L 121.912992 141.192916 
L 122.093406 150.526369 
L 122.183613 149.955406 
L 122.364026 143.478214 
L 122.54444 153.764965 
L 122.724854 130.334478 
L 122.815061 147.859461 
L 122.905268 141.954682 
L 122.995475 125.191465 
L 123.085681 126.905803 
L 123.175888 126.905803 
L 123.266095 123.858011 
L 123.446509 142.907253 
L 123.626923 119.66757 
L 123.807336 126.905803 
L 123.98775 118.905804 
L 124.168164 145.192552 
L 124.348578 124.048815 
L 124.438785 126.524919 
L 124.619198 120.620141 
L 124.799612 130.716086 
L 124.889819 127.286687 
L 124.980026 127.858374 
L 125.16044 128.430062 
L 125.340853 120.239257 
L 125.521267 127.096607 
L 125.611474 123.477128 
L 125.882095 103.285237 
L 125.972301 101.951782 
L 126.152715 116.048091 
L 126.423336 104.047729 
L 126.513543 104.999575 
L 126.60375 115.476403 
L 126.693956 113.762065 
L 126.784163 104.237807 
L 126.964577 121.953595 
L 127.054784 114.143674 
L 127.235198 131.477853 
L 127.415611 97.761342 
L 127.596025 127.477491 
L 127.686232 125.763153 
L 127.776439 119.476766 
L 127.866646 122.524557 
L 128.04706 98.713912 
L 128.227473 123.287049 
L 128.31768 102.904353 
L 128.407887 105.381182 
L 128.498094 132.430425 
L 128.588301 127.668294 
L 128.678508 118.143311 
L 128.768715 133.953957 
L 128.858921 125.572349 
L 128.949128 102.142587 
L 129.039335 110.33339 
L 129.129542 129.191828 
L 129.219749 125.572349 
L 129.309956 122.143674 
L 129.49037 141.954682 
L 129.76099 121.572711 
L 129.941404 132.23962 
L 130.121818 121.953595 
L 130.302231 130.525282 
L 130.392438 129.953594 
L 130.482645 130.716086 
L 130.572852 143.669019 
L 130.663059 128.62014 
L 130.753266 133.382995 
L 130.843473 124.048815 
L 130.93368 124.620503 
L 131.114093 138.526008 
L 131.2043 133.953957 
L 131.294507 135.478215 
L 131.474921 153.003199 
L 131.655335 140.621228 
L 131.835748 153.764965 
L 131.925955 151.288861 
L 132.106369 129.191828 
L 132.196576 147.669382 
L 132.286783 146.335927 
L 132.37699 129.572712 
L 132.467196 133.001386 
L 132.64761 144.430786 
L 133.369265 147.288499 
L 133.8203 127.858374 
L 134.000713 145.192552 
L 134.181127 125.001387 
L 134.271334 128.430062 
L 134.451748 143.097332 
L 134.632161 123.096245 
L 134.812575 140.240344 
L 134.992989 122.143674 
L 135.173403 148.24107 
L 135.26361 125.382269 
L 135.353816 126.334841 
L 135.444023 146.907615 
L 135.624437 120.620141 
L 135.714644 129.001748 
L 135.804851 133.382995 
L 135.895058 121.76279 
L 135.985265 123.287049 
L 136.075471 132.049541 
L 136.255885 122.334479 
L 136.436299 127.858374 
L 136.526506 128.049178 
L 136.616713 131.858736 
L 136.797126 127.096607 
L 136.887333 132.811307 
L 136.97754 131.667932 
L 137.157954 124.048815 
L 137.248161 123.287049 
L 137.428575 117.953232 
L 137.608988 121.953595 
L 137.699195 122.334479 
L 137.879609 127.668294 
L 137.969816 127.477491 
L 138.060023 126.524919 
L 138.15023 128.239257 
L 138.240436 125.382269 
L 138.330643 118.334116 
L 138.42085 120.048454 
L 138.601264 126.144037 
L 138.691471 126.334841 
L 138.781678 127.477491 
L 138.871885 131.287048 
L 139.052298 114.714637 
L 139.232712 134.144761 
L 139.59354 117.953232 
L 139.773953 124.429699 
L 139.954367 107.476404 
L 140.134781 130.906166 
L 140.224988 125.191465 
L 140.405402 127.286687 
L 140.585815 124.048815 
L 140.676022 124.620503 
L 140.856436 128.430062 
L 140.946643 128.049178 
L 141.03685 127.096607 
L 141.127057 129.382632 
L 141.217263 137.954319 
L 141.30747 127.858374 
L 141.397677 100.428249 
L 141.487884 101.380821 
L 141.668298 134.525645 
L 141.848712 118.143311 
L 141.938918 127.668294 
L 142.029125 125.953958 
L 142.389953 107.476404 
L 142.48016 105.952145 
L 142.660573 117.191466 
L 142.75078 118.52492 
L 142.840987 122.524557 
L 143.021401 100.237444 
L 143.111608 107.666482 
L 143.201815 127.286687 
L 143.382228 100.237444 
L 143.562642 112.238533 
L 143.652849 101.951782 
L 143.833263 125.001387 
L 144.013677 93.380095 
L 144.19409 112.810219 
L 144.374504 101.570899 
L 144.464711 102.523471 
L 144.645125 126.524919 
L 144.735332 124.429699 
L 144.915745 128.62014 
L 145.096159 117.953232 
L 145.276573 130.525282 
L 145.547193 115.095519 
L 145.727607 106.523832 
L 145.908021 127.858374 
L 146.088435 105.190379 
L 146.268848 124.429699 
L 146.449262 100.618328 
L 146.539469 103.856925 
L 146.629676 100.618328 
L 146.719883 101.190016 
L 146.81009 104.237807 
L 146.900297 133.001386 
L 147.170917 114.714637 
L 147.351331 129.572712 
L 147.441538 122.715361 
L 147.531745 124.620503 
L 147.621952 119.286686 
L 147.802365 104.999575 
L 147.892572 105.381182 
L 147.982779 106.333028 
L 148.072986 114.333753 
L 148.163193 112.428612 
L 148.2534 102.714275 
L 148.433813 116.238896 
L 148.614227 138.716085 
L 148.704434 136.049177 
L 148.794641 123.858011 
L 148.884848 124.620503 
L 149.065262 149.002836 
L 149.155468 147.097695 
L 149.335882 128.239257 
L 149.426089 129.763516 
L 149.606503 147.288499 
L 149.69671 138.716085 
L 149.786917 141.763878 
L 149.877123 159.669743 
L 149.96733 151.47894 
L 150.147744 124.810583 
L 150.237951 125.001387 
L 150.418365 90.713187 
L 150.508572 98.90399 
L 150.598778 91.665757 
L 150.688985 74.712462 
L 150.869399 107.857286 
L 150.959606 102.142587 
L 151.049813 90.903991 
L 151.230227 108.619054 
L 151.320433 99.856562 
L 151.41064 104.428612 
L 151.591054 124.810583 
L 151.681261 121.381907 
L 151.861675 127.477491 
L 151.951882 123.477128 
L 152.132295 125.191465 
L 152.222502 123.858011 
L 152.312709 126.144037 
L 152.58333 123.858011 
L 152.673537 125.001387 
L 152.763743 133.382995 
L 152.85395 132.049541 
L 152.944157 122.524557 
L 153.124571 150.526369 
L 153.214778 144.430786 
L 153.665812 125.382269 
L 153.756019 125.382269 
L 153.846226 128.239257 
L 154.02664 108.428974 
L 154.207053 132.049541 
L 154.477674 126.144037 
L 154.567881 129.953594 
L 154.658088 129.763516 
L 154.748295 124.810583 
L 154.928708 148.431149 
L 155.018915 125.953958 
L 155.109122 129.572712 
L 155.289536 127.477491 
L 155.46995 122.143674 
L 155.560157 122.90544 
L 155.74057 130.525282 
L 155.830777 126.334841 
L 156.011191 138.335203 
L 156.191605 122.524557 
L 156.281812 126.334841 
L 156.372018 126.144037 
L 156.462225 123.477128 
L 156.552432 124.620503 
L 156.732846 113.952869 
L 156.823053 117.381545 
L 157.003467 127.858374 
L 157.093673 124.429699 
L 157.18388 124.929563 
L 157.815329 128.430062 
L 157.905535 132.620502 
L 158.085949 126.715724 
L 158.266363 133.382995 
L 158.446777 127.668294 
L 158.536984 126.524919 
L 158.717397 117.57235 
L 158.807604 119.857649 
L 158.988018 131.858736 
L 159.168432 123.287049 
L 159.258639 130.144398 
L 159.348845 129.763516 
L 159.529259 127.477491 
L 159.619466 127.096607 
L 159.79988 145.002473 
L 159.980294 123.096245 
L 160.0705 125.953958 
L 160.431328 149.192915 
L 160.701949 123.096245 
L 160.792155 125.001387 
L 161.062776 127.858374 
L 161.24319 132.811307 
L 161.423604 120.048454 
L 161.604017 145.002473 
L 161.694224 143.859823 
L 162.055052 126.905803 
L 162.145259 129.191828 
L 162.235465 129.953594 
L 162.415879 127.286687 
L 162.596293 129.763516 
L 162.95712 118.905804 
L 163.047327 120.81022 
L 163.137534 152.240706 
L 163.227741 149.38372 
L 163.317948 149.573799 
L 163.408155 149.192915 
L 163.498362 151.47894 
L 163.678775 138.145124 
L 163.949396 147.669382 
L 164.220017 129.382632 
L 164.310224 130.334478 
L 164.490637 126.905803 
L 164.580844 131.287048 
L 164.761258 156.812757 
L 164.941672 117.000662 
L 165.031879 120.81022 
L 165.122085 131.477853 
L 165.212292 130.525282 
L 165.302499 129.953594 
L 165.392706 133.001386 
L 165.57312 125.953958 
L 165.753534 131.667932 
L 165.84374 127.477491 
L 166.024154 133.192191 
L 166.204568 125.001387 
L 166.384982 104.428612 
L 166.475189 107.09552 
L 166.745809 127.668294 
L 166.926223 113.762065 
L 167.106637 124.429699 
L 167.196844 117.953232 
L 167.377257 130.144398 
L 167.647878 117.381545 
L 167.828292 121.572711 
L 167.918499 118.334116 
L 168.008705 118.715 
L 168.189119 128.239257 
L 168.279326 126.905803 
L 168.369533 128.62014 
L 168.45974 128.430062 
L 168.640154 121.381907 
L 168.73036 126.715724 
L 168.910774 120.620141 
L 169.091188 127.858374 
L 169.181395 129.001748 
L 169.361809 154.717537 
L 169.542222 122.334479 
L 169.722636 128.049178 
L 169.812843 122.90544 
L 169.993257 137.192553 
L 170.17367 118.52492 
L 170.354084 134.144761 
L 170.444291 134.715724 
L 170.534498 140.621228 
L 170.624705 138.526008 
L 170.805119 125.763153 
L 171.075739 149.764603 
L 171.165946 145.574161 
L 171.34636 126.715724 
L 171.526774 143.288136 
L 171.707187 127.096607 
L 172.068015 155.670107 
L 172.248429 136.81167 
L 172.338635 141.763878 
L 172.428842 152.240706 
L 172.609256 136.049177 
L 172.699463 139.668657 
L 172.78967 147.859461 
L 172.970084 145.574161 
L 173.06029 149.955406 
L 173.150497 148.812031 
L 173.330911 145.407298 
L 173.962359 141.573798 
L 174.23298 126.524919 
L 174.413394 147.478577 
L 174.684014 129.763516 
L 174.774221 131.858736 
L 174.864428 136.81167 
L 174.954635 149.38372 
L 175.044842 143.669019 
L 175.135049 127.477491 
L 175.225256 132.430425 
L 175.405669 154.145848 
L 175.586083 133.382995 
L 175.67629 142.907253 
L 175.766497 142.144762 
L 175.856704 140.812032 
L 176.037117 150.907252 
L 176.217531 137.192553 
L 176.307738 141.192916 
L 176.397945 140.621228 
L 176.578359 140.812032 
L 176.758772 129.953594 
L 176.848979 130.144398 
L 176.939186 131.287048 
L 177.029393 135.668295 
L 177.209807 146.907615 
L 177.300014 142.907253 
L 177.480427 148.812031 
L 177.751048 127.858374 
L 177.841255 127.668294 
L 178.111876 108.809858 
L 178.292289 128.430062 
L 178.472703 121.001024 
L 178.56291 124.238895 
L 178.653117 123.667933 
L 178.743324 119.095882 
L 178.833531 119.476766 
L 178.923737 122.90544 
L 179.104151 116.809857 
L 179.374772 141.002112 
L 179.555186 129.763516 
L 179.735599 127.477491 
L 179.825806 140.621228 
L 179.916013 140.430424 
L 180.00622 133.763879 
L 180.096427 139.859462 
L 180.186634 135.668295 
L 180.276841 124.810583 
L 180.457254 132.430425 
L 180.547461 132.049541 
L 180.727875 151.288861 
L 180.908289 146.335927 
L 181.088702 141.002112 
L 181.269116 147.669382 
L 181.359323 145.002473 
L 181.539737 155.288498 
L 181.629944 153.57416 
L 181.900564 126.334841 
L 181.990771 127.286687 
L 182.171185 137.382631 
L 182.261392 133.382995 
L 182.441806 140.812032 
L 182.532012 137.192553 
L 182.622219 139.859462 
L 182.712426 135.859099 
L 182.802633 124.429699 
L 182.983047 140.240344 
L 183.163461 129.953594 
L 183.253667 131.477853 
L 183.434081 144.049903 
L 183.614495 120.429336 
L 183.794909 133.001386 
L 183.975322 129.382632 
L 184.065529 128.810944 
L 184.33615 154.717537 
L 184.606771 127.096607 
L 184.787184 132.23962 
L 184.877391 125.001387 
L 184.967598 127.477491 
L 185.148012 155.098419 
L 185.328426 149.573799 
L 185.418632 150.526369 
L 185.599046 131.477853 
L 185.77946 146.907615 
L 185.869667 143.859823 
L 186.050081 147.478577 
L 186.140287 145.002473 
L 186.410908 131.09697 
L 186.501115 131.287048 
L 186.591322 129.001748 
L 186.681529 130.334478 
L 186.861942 125.763153 
L 187.22277 137.382631 
L 187.403184 124.429699 
L 187.493391 147.859461 
L 187.673804 122.143674 
L 187.764011 125.763153 
L 187.854218 132.23962 
L 188.034632 125.763153 
L 188.124839 129.572712 
L 188.575873 103.666846 
L 188.66608 102.904353 
L 188.936701 118.905804 
L 189.026907 117.191466 
L 189.207321 125.382269 
L 189.387735 135.668295 
L 189.568149 124.048815 
L 189.748562 126.334841 
L 189.838769 125.763153 
L 190.019183 140.430424 
L 190.199597 148.812031 
L 190.380011 142.526369 
L 190.560424 146.907615 
L 190.650631 144.430786 
L 191.101666 117.381545 
L 191.191872 121.953595 
L 191.372286 113.000299 
L 191.462493 127.477491 
L 191.5527 127.096607 
L 191.642907 103.095157 
L 191.733114 103.285237 
L 191.913527 125.382269 
L 192.003734 115.667207 
L 192.364562 128.049178 
L 192.544976 125.953958 
L 192.725389 131.09697 
L 192.815596 130.716086 
L 192.99601 122.715361 
L 193.266631 152.240706 
L 193.447044 138.145124 
L 193.807872 156.431873 
L 193.898079 154.717537 
L 194.078493 143.669019 
L 194.168699 143.859823 
L 194.258906 145.383357 
L 194.349113 142.716448 
L 194.529527 123.287049 
L 194.619734 123.667933 
L 194.800148 119.476766 
L 195.070768 130.906166 
L 195.160975 129.572712 
L 195.251182 129.763516 
L 195.341389 131.858736 
L 195.431596 129.382632 
L 195.521803 133.573074 
L 195.792423 100.428249 
L 196.063044 128.239257 
L 196.243458 109.38082 
L 196.333664 121.191102 
L 196.423871 110.714274 
L 196.514078 114.714637 
L 196.604285 149.192915 
L 196.694492 139.668657 
L 196.784699 100.809133 
L 196.874906 106.714636 
L 196.965113 120.048454 
L 197.145526 105.381182 
L 197.235733 105.952145 
L 197.32594 98.142224 
L 197.506354 134.144761 
L 197.686768 100.428249 
L 198.408423 117.381545 
L 198.498629 133.001386 
L 198.76925 109.952508 
L 198.949664 130.525282 
L 199.039871 128.049178 
L 199.130078 127.477491 
L 199.310491 98.333029 
L 199.490905 136.239981 
L 199.671319 112.238533 
L 199.761526 113.762065 
L 199.851733 112.428612 
L 200.032146 131.858736 
L 200.21256 102.714275 
L 200.392974 156.050991 
L 200.573388 84.617604 
L 200.753801 119.66757 
L 200.844008 122.334479 
L 201.024422 152.812394 
L 201.204836 111.285962 
L 201.295043 113.191103 
L 201.475456 116.048091 
L 201.565663 121.001024 
L 201.65587 116.238896 
L 201.836284 149.002836 
L 202.016698 91.856562 
L 202.197111 148.812031 
L 202.287318 120.620141 
L 202.377525 124.429699 
L 202.467732 159.669743 
L 202.648146 105.571261 
L 202.738353 120.048454 
L 202.828559 118.143311 
L 202.918766 102.142587 
L 203.09918 147.669382 
L 203.279594 123.287049 
L 203.369801 125.572349 
L 203.460008 116.048091 
L 203.640421 134.525645 
L 203.730628 164.622678 
L 203.820835 157.002836 
L 203.911042 118.905804 
L 204.001249 125.572349 
L 204.091456 135.859099 
L 204.181663 113.571987 
L 204.271869 115.095519 
L 204.362076 133.573074 
L 204.452283 132.811307 
L 204.632697 123.477128 
L 204.813111 129.572712 
L 204.903318 121.381907 
L 205.083731 139.668657 
L 205.264145 107.857286 
L 205.444559 136.430786 
L 205.534766 120.239257 
L 205.624973 120.620141 
L 205.715179 128.810944 
L 205.805386 117.762428 
L 205.895593 129.953594 
L 205.9858 157.574523 
L 206.166214 101.570899 
L 206.256421 112.238533 
L 206.436834 136.239981 
L 206.527041 137.954319 
L 206.707455 114.524558 
L 206.797662 135.859099 
L 206.978076 100.809133 
L 207.068283 101.570899 
L 207.158489 107.857286 
L 207.248696 103.666846 
L 207.338903 108.047366 
L 207.519317 130.144398 
L 207.609524 131.09697 
L 207.699731 129.382632 
L 207.880144 103.856925 
L 208.060558 129.382632 
L 208.150765 126.144037 
L 208.331179 110.524195 
L 208.601799 133.192191 
L 208.692006 127.858374 
L 208.782213 103.285237 
L 208.87242 105.190379 
L 208.962627 132.620502 
L 209.052834 129.001748 
L 209.233248 110.714274 
L 209.323454 106.523832 
L 209.413661 111.476767 
L 209.503868 126.334841 
L 209.594075 125.001387 
L 209.684282 119.095882 
L 209.864696 134.715724 
L 209.954903 129.191828 
L 210.135316 108.23817 
L 210.225523 126.334841 
L 210.31573 124.620503 
L 210.405937 125.191465 
L 210.496144 147.859461 
L 210.586351 138.526008 
L 210.676558 98.523108 
L 210.766765 100.618328 
L 210.947178 149.192915 
L 211.127592 109.19074 
L 211.308006 138.716085 
L 211.398213 119.095882 
L 211.48842 120.048454 
L 211.578626 144.811669 
L 211.668833 140.621228 
L 211.75904 114.143674 
L 211.939454 127.477491 
L 212.029661 128.239257 
L 212.210075 119.476766 
L 212.300281 128.430062 
L 212.390488 122.334479 
L 212.480695 124.810583 
L 212.570902 152.43151 
L 212.661109 148.431149 
L 212.751316 120.429336 
L 212.841523 124.620503 
L 213.112143 139.859462 
L 213.20235 135.859099 
L 213.292557 118.52492 
L 213.382764 122.715361 
L 213.472971 140.621228 
L 213.563178 138.90689 
L 213.743591 116.238896 
L 213.924005 133.763879 
L 214.555453 152.43151 
L 214.735867 116.238896 
L 214.826074 140.621228 
L 214.916281 140.04954 
L 215.096695 125.191465 
L 215.186901 124.048815 
L 215.367315 139.287774 
L 215.547729 123.667933 
L 215.637936 130.144398 
L 215.81835 118.143311 
L 215.998763 148.050265 
L 216.179177 127.858374 
L 216.269384 127.286687 
L 216.359591 123.287049 
L 216.449798 125.953958 
L 216.540005 135.287411 
L 216.720418 121.76279 
L 216.900832 132.620502 
L 217.081246 118.715 
L 217.26166 147.097695 
L 217.442073 107.857286 
L 217.53228 116.048091 
L 217.622487 130.334478 
L 217.712694 123.667933 
L 217.802901 127.668294 
L 217.893108 138.716085 
L 217.983315 133.382995 
L 218.073521 118.143311 
L 218.253935 148.621953 
L 218.344142 137.001749 
L 218.524556 101.570899 
L 218.97559 135.859099 
L 219.156004 107.476404 
L 219.336418 130.716086 
L 219.516831 112.428612 
L 219.697245 118.52492 
L 219.787452 133.001386 
L 220.058073 113.952869 
L 220.14828 126.524919 
L 220.328693 120.239257 
L 220.4189 130.334478 
L 220.509107 128.239257 
L 220.599314 123.667933 
L 220.689521 135.097332 
L 220.779728 127.286687 
L 220.960141 102.142587 
L 221.140555 124.810583 
L 221.230762 125.191465 
L 221.320969 123.477128 
L 221.411176 126.144037 
L 221.501383 135.859099 
L 221.681796 116.238896 
L 221.772003 121.381907 
L 222.042624 141.002112 
L 222.132831 133.192191 
L 222.223038 115.476403 
L 222.313245 119.476766 
L 222.403451 133.953957 
L 222.583865 123.096245 
L 222.674072 125.953958 
L 222.854486 99.666483 
L 223.0349 132.430425 
L 223.395727 99.285599 
L 223.485934 107.476404 
L 223.576141 127.286687 
L 223.666348 126.524919 
L 223.846761 116.809857 
L 224.027175 120.81022 
L 224.207589 109.38082 
L 224.388003 124.238895 
L 224.568416 105.762066 
L 224.658623 107.2856 
L 224.839037 133.192191 
L 225.019451 127.858374 
L 225.109658 131.09697 
L 225.290071 104.047729 
L 225.470485 134.525645 
L 225.560692 128.62014 
L 225.650899 130.906166 
L 225.741106 136.049177 
L 225.92152 127.668294 
L 226.011726 129.191828 
L 226.19214 142.335566 
L 226.282347 144.049903 
L 226.372554 150.717174 
L 226.462761 144.049903 
L 226.552968 126.524919 
L 226.643175 127.668294 
L 226.733381 136.049177 
L 226.913795 125.191465 
L 227.094209 134.906529 
L 227.274623 121.381907 
L 227.36483 121.572711 
L 227.455037 127.286687 
L 227.545243 127.096607 
L 227.63545 124.620503 
L 227.815864 130.334478 
L 227.996278 117.000662 
L 228.086485 155.288498 
L 228.266898 127.668294 
L 228.447312 148.812031 
L 228.537519 146.526007 
L 228.627726 148.812031 
L 228.80814 126.334841 
L 228.898347 140.04954 
L 228.988553 134.33484 
L 229.07876 113.952869 
L 229.259174 134.144761 
L 229.439588 123.667933 
L 229.710208 129.001748 
L 229.980829 156.241069 
L 230.161243 124.238895 
L 230.431863 153.384082 
L 230.612277 138.335203 
L 230.792691 145.574161 
L 230.882898 132.620502 
L 230.973105 137.192553 
L 231.063312 154.145848 
L 231.243725 126.144037 
L 231.333932 127.477491 
L 231.424139 132.049541 
L 231.604553 103.666846 
L 231.69476 108.809858 
L 231.875173 95.475316 
L 232.055587 122.334479 
L 232.236001 93.189291 
L 232.416415 126.334841 
L 232.596828 104.428612 
L 232.777242 129.001748 
L 232.867449 122.334479 
L 232.957656 123.858011 
L 233.047863 128.810944 
L 233.318483 123.096245 
L 233.498897 121.572711 
L 233.589104 125.191465 
L 233.769518 137.573436 
L 233.949932 123.287049 
L 234.040138 127.286687 
L 234.130345 126.334841 
L 234.310759 157.384444 
L 234.491173 123.477128 
L 234.58138 124.238895 
L 234.761793 130.334478 
L 234.852 127.668294 
L 234.942207 129.382632 
L 235.032414 129.001748 
L 235.212828 104.237807 
L 235.393242 130.334478 
L 235.483448 129.572712 
L 235.663862 131.477853 
L 235.934483 120.620141 
L 236.02469 120.620141 
L 236.114897 128.810944 
L 236.29531 105.762066 
L 236.475724 119.095882 
L 236.565931 107.476404 
L 236.656138 109.571624 
L 236.836552 124.238895 
L 237.016965 110.524195 
L 237.197379 134.33484 
L 237.377793 92.237445 
L 237.468 105.762066 
L 237.648413 94.522745 
L 237.828827 119.476766 
L 237.919034 107.09552 
L 238.099448 125.763153 
L 238.189655 118.905804 
L 238.279862 122.90544 
L 239.001517 104.428612 
L 239.18193 128.239257 
L 239.362344 101.761703 
L 239.723172 125.763153 
L 239.903585 98.142224 
L 240.264413 133.573074 
L 240.444827 121.572711 
L 240.535033 122.90544 
L 240.715447 102.904353 
L 240.805654 105.762066 
L 240.986068 131.09697 
L 241.166482 111.476767 
L 241.256688 101.761703 
L 241.617516 137.382631 
L 241.707723 128.049178 
L 241.79793 106.904716 
L 241.888137 110.143312 
L 241.978343 118.715 
L 242.06855 114.905441 
L 242.248964 125.953958 
L 242.429378 123.287049 
L 242.609792 103.095157 
L 242.790205 132.811307 
L 242.970619 141.573798 
L 243.151033 126.144037 
L 243.24124 128.049178 
L 243.421653 138.145124 
L 243.602067 121.953595 
L 243.782481 131.667932 
L 243.962895 126.524919 
L 244.143308 117.000662 
L 244.233515 122.715361 
L 244.323722 149.002836 
L 244.504136 117.762428 
L 244.68455 132.430425 
L 244.774757 123.096245 
L 244.864963 125.382269 
L 245.045377 107.857286 
L 245.225791 124.810583 
L 245.315998 123.858011 
L 245.406205 128.239257 
L 245.496412 126.334841 
L 245.676825 92.427525 
L 245.947446 136.049177 
L 246.12786 103.095157 
L 246.308274 112.428612 
L 246.39848 102.523471 
L 246.578894 126.144037 
L 246.759308 115.286324 
L 246.849515 118.143311 
L 247.120135 98.333029 
L 247.300549 111.095883 
L 247.480963 92.808407 
L 247.57117 97.761342 
L 247.751584 80.808045 
L 247.931997 107.666482 
L 248.022204 99.666483 
L 248.112411 101.570899 
L 248.202618 100.047367 
L 248.292825 91.665757 
L 248.473239 113.000299 
L 248.563445 106.523832 
L 248.653652 108.23817 
L 248.743859 125.382269 
L 248.924273 104.999575 
L 249.01448 113.762065 
L 249.194894 96.427888 
L 249.465514 123.667933 
L 249.555721 123.287049 
L 249.736135 99.285599 
L 249.826342 104.047729 
L 249.916549 103.095157 
L 250.006755 99.285599 
L 250.096962 99.666483 
L 250.187169 104.809495 
L 250.367583 119.476766 
L 250.45779 121.572711 
L 250.547997 129.763516 
L 250.72841 90.713187 
L 251.089238 121.572711 
L 251.179445 121.001024 
L 251.359859 95.475316 
L 251.540272 125.001387 
L 251.720686 95.285238 
L 251.9011 125.953958 
L 251.991307 122.90544 
L 252.081514 126.715724 
L 252.17172 119.095882 
L 252.261927 119.476766 
L 252.352134 128.62014 
L 252.442341 93.951783 
L 252.532548 102.714275 
L 252.622755 101.761703 
L 252.712962 101.761703 
L 252.893375 117.57235 
L 253.073789 108.619054 
L 253.254203 132.23962 
L 253.434617 124.238895 
L 253.524824 129.191828 
L 253.705237 125.953958 
L 253.795444 125.382269 
L 253.885651 118.52492 
L 254.066065 130.144398 
L 254.156272 118.52492 
L 254.246479 127.477491 
L 254.336685 152.62159 
L 254.517099 139.525735 
L 255.238754 108.999936 
L 255.328961 114.143674 
L 255.419168 113.762065 
L 255.509375 117.953232 
L 255.599582 129.001748 
L 255.689789 127.096607 
L 255.779995 123.096245 
L 255.870202 126.144037 
L 255.960409 115.858012 
L 256.050616 121.76279 
L 256.140823 141.192916 
L 256.23103 137.382631 
L 256.411444 120.620141 
L 256.50165 127.858374 
L 256.591857 126.334841 
L 256.772271 124.238895 
L 256.862478 124.048815 
L 257.042892 128.239257 
L 257.133099 125.572349 
L 257.223305 127.668294 
L 257.313512 137.763515 
L 257.403719 132.430425 
L 257.493926 117.762428 
L 257.584133 121.001024 
L 257.67434 125.572349 
L 257.764547 121.191102 
L 257.94496 131.287048 
L 258.125374 107.2856 
L 258.305788 130.906166 
L 258.395995 124.238895 
L 258.486202 129.953594 
L 258.576409 129.572712 
L 258.756822 104.809495 
L 258.847029 105.190379 
L 258.937236 125.382269 
L 259.027443 123.477128 
L 259.207857 83.665033 
L 259.38827 106.714636 
L 259.568684 128.430062 
L 259.749098 102.142587 
L 259.839305 106.714636 
L 260.019719 84.23672 
L 260.200132 108.428974 
L 260.470753 88.617966 
L 260.56096 139.478578 
L 260.741374 123.287049 
L 260.83158 122.334479 
L 260.921787 129.191828 
L 261.011994 156.812757 
L 261.102201 151.288861 
L 261.192408 128.430062 
L 261.372822 143.097332 
L 261.463029 120.048454 
L 261.643442 155.670107 
L 261.823856 127.858374 
L 262.00427 156.812757 
L 262.365097 119.66757 
L 262.455304 125.001387 
L 262.635718 153.003199 
L 262.725925 144.430786 
L 262.816132 149.955406 
L 262.906339 148.431149 
L 263.086752 128.239257 
L 263.176959 132.620502 
L 263.267166 123.287049 
L 263.357373 125.382269 
L 263.44758 144.049903 
L 263.537787 140.430424 
L 263.627994 127.668294 
L 263.808407 142.526369 
L 263.898614 128.049178 
L 263.988821 129.953594 
L 264.169235 152.62159 
L 264.259442 148.621953 
L 264.439856 125.572349 
L 264.620269 160.050627 
L 264.800683 121.381907 
L 264.89089 129.191828 
L 264.981097 149.764603 
L 265.071304 149.573799 
L 265.161511 143.478214 
L 265.251717 147.288499 
L 265.341924 145.764241 
L 265.432131 139.478578 
L 265.522338 146.526007 
L 265.612545 141.382994 
L 265.702752 124.810583 
L 265.883166 145.764241 
L 266.063579 119.857649 
L 266.3342 149.002836 
L 266.424407 147.097695 
L 266.514614 154.907614 
L 266.604821 150.907252 
L 266.695027 128.810944 
L 266.785234 137.954319 
L 266.875441 160.81312 
L 267.055855 145.955045 
L 267.146062 154.336653 
L 267.236269 148.24107 
L 267.326476 126.334841 
L 267.416682 132.049541 
L 267.506889 155.860186 
L 267.597096 148.050265 
L 267.687303 122.715361 
L 267.867717 140.04954 
L 267.957924 129.191828 
L 268.138337 146.526007 
L 268.228544 133.763879 
L 268.318751 134.906529 
L 268.499165 153.003199 
L 268.589372 145.383357 
L 268.679579 152.240706 
L 268.859992 119.476766 
L 268.950199 129.953594 
L 269.040406 146.526007 
L 269.22082 126.905803 
L 269.311027 128.049178 
L 269.401234 128.810944 
L 269.581647 145.764241 
L 269.762061 98.713912 
L 269.942475 128.810944 
L 270.032682 123.096245 
L 270.122889 130.716086 
L 270.213096 129.382632 
L 270.303302 120.048454 
L 270.483716 151.098056 
L 270.66413 117.953232 
L 270.754337 119.476766 
L 270.844544 122.143674 
L 271.024957 137.001749 
L 271.115164 125.763153 
L 271.205371 126.144037 
L 271.385785 141.573798 
L 271.475992 139.859462 
L 271.566199 129.763516 
L 271.656406 134.906529 
L 271.746612 146.526007 
L 271.927026 135.478215 
L 272.10744 150.526369 
L 272.197647 141.002112 
L 272.738888 182.337739 
L 273.009509 143.859823 
L 273.189922 158.527093 
L 273.280129 145.383357 
L 273.370336 151.288861 
L 273.460543 172.051715 
L 273.640957 155.288498 
L 273.821371 181.956855 
L 274.001784 153.57416 
L 274.091991 158.527093 
L 274.272405 179.480753 
L 274.633232 146.716811 
L 274.813646 185.76714 
L 274.99406 168.813119 
L 275.084267 171.860911 
L 275.174474 170.718261 
L 275.264681 177.57561 
L 275.445094 150.907252 
L 275.625508 173.766052 
L 275.805922 142.335566 
L 275.896129 155.860186 
L 276.076542 142.335566 
L 276.166749 155.670107 
L 276.347163 150.33629 
L 276.43737 155.479303 
L 276.527577 150.33629 
L 276.617784 156.431873 
L 276.707991 173.194364 
L 276.798197 117.953232 
L 276.888404 118.905804 
L 276.978611 115.667207 
L 277.159025 102.333391 
L 277.249232 102.142587 
L 277.339439 101.380821 
L 277.429646 107.2856 
L 277.519852 105.952145 
L 277.610059 104.618691 
L 277.700266 124.429699 
L 277.790473 123.667933 
L 277.970887 81.569813 
L 278.061094 86.141862 
L 278.151301 83.855838 
L 278.331714 106.14295 
L 278.421921 104.999575 
L 278.602335 93.760979 
L 278.782749 106.14295 
L 278.872956 105.190379 
L 279.594611 105.190379 
L 279.684817 108.619054 
L 279.865231 102.523471 
L 279.955438 103.095157 
L 280.045645 102.714275 
L 280.135852 100.618328 
L 280.226059 101.570899 
L 280.316266 103.856925 
L 280.406473 102.714275 
L 280.496679 99.475678 
L 280.586886 101.761703 
L 280.857507 128.239257 
L 280.947714 126.715724 
L 281.218334 102.333391 
L 281.308541 102.714275 
L 281.398748 98.90399 
L 281.579162 122.90544 
L 281.759576 100.237444 
L 281.939989 102.523471 
L 282.21061 129.953594 
L 282.300817 122.715361 
L 282.481231 100.618328 
L 282.932265 126.334841 
L 283.022472 125.572349 
L 283.202886 96.047004 
L 283.563713 140.812032 
L 283.744127 121.191102 
L 283.834334 123.096245 
L 283.924541 128.430062 
L 284.014748 127.286687 
L 284.104954 123.477128 
L 284.195161 124.810583 
L 284.285368 128.62014 
L 284.465782 119.857649 
L 284.555989 124.238895 
L 284.736403 109.19074 
L 284.826609 116.428973 
L 285.007023 101.190016 
L 285.187437 102.904353 
L 285.458058 72.998126 
L 285.548264 75.283425 
L 285.728678 84.045915 
L 285.818885 79.283787 
L 285.999299 93.380095 
L 286.179713 76.4268 
L 286.269919 78.712825 
L 286.54054 109.19074 
L 286.901368 79.66467 
L 286.991574 78.712825 
L 287.171988 104.428612 
L 287.262195 101.190016 
L 287.442609 83.09407 
L 287.532816 85.951058 
L 287.713229 72.807321 
L 287.893643 86.903628 
L 288.074057 53.568 
L 288.164264 55.282338 
L 288.254471 59.282701 
L 288.344678 57.759167 
L 288.525091 82.331579 
L 288.705505 64.9974 
L 288.795712 67.664309 
L 288.885919 61.568726 
L 288.976126 66.330854 
L 289.156539 81.569813 
L 289.246746 81.569813 
L 289.336953 88.046278 
L 289.517367 82.522383 
L 289.607574 88.237083 
L 289.787988 78.712825 
L 289.968401 84.808408 
L 290.058608 86.712824 
L 290.239022 101.380821 
L 290.419436 81.188929 
L 290.509643 85.951058 
L 290.690056 76.616878 
L 290.87047 103.666846 
L 290.960677 98.523108 
L 291.050884 100.809133 
L 291.141091 113.762065 
L 291.321504 79.855475 
L 291.411711 86.712824 
L 291.501918 99.856562 
L 291.592125 97.952145 
L 291.772539 116.048091 
L 291.952953 90.713187 
L 292.133366 108.809858 
L 292.31378 98.713912 
L 292.494194 105.190379 
L 292.764814 108.23817 
L 292.945228 132.811307 
L 293.125642 121.572711 
L 293.215849 122.90544 
L 293.306056 129.001748 
L 293.396263 127.286687 
L 293.486469 127.668294 
L 293.666883 132.430425 
L 293.847297 155.670107 
L 294.027711 146.526007 
L 294.117918 147.478577 
L 294.298331 151.669744 
L 294.478745 146.145123 
L 294.659159 153.003199 
L 294.839573 147.097695 
L 295.019986 171.099143 
L 295.110193 168.432235 
L 295.741641 149.764603 
L 295.922055 141.763878 
L 296.192676 150.526369 
L 296.282883 149.764603 
L 296.373089 151.288861 
L 296.463296 150.33629 
L 296.553503 144.811669 
L 296.64371 149.002836 
L 296.733917 163.480028 
L 296.824124 163.099144 
L 297.004538 144.430786 
L 297.094744 155.098419 
L 297.184951 153.384082 
L 297.275158 147.859461 
L 297.455572 150.145486 
L 297.635986 147.669382 
L 297.8164 149.002836 
L 297.906606 149.573799 
L 298.177227 125.001387 
L 298.447848 134.715724 
L 298.628261 120.048454 
L 298.808675 125.763153 
L 298.898882 125.953958 
L 299.079296 137.763515 
L 299.710744 99.285599 
L 299.800951 100.999937 
L 299.891158 101.190016 
L 300.071571 109.952508 
L 300.251985 101.951782 
L 300.342192 103.476041 
L 300.612813 95.285238 
L 300.793226 81.188929 
L 300.883433 81.569813 
L 300.97364 87.665396 
L 301.063847 84.808408 
L 301.154054 158.336289 
L 301.244261 157.765327 
L 301.424675 166.337015 
L 301.514881 162.336652 
L 301.695295 177.385531 
L 301.875709 173.385168 
L 302.14633 169.384807 
L 302.236536 171.670832 
L 302.326743 169.194728 
L 302.41695 169.575611 
L 302.597364 185.386256 
L 302.777778 167.861273 
L 303.138605 179.099869 
L 303.319019 173.956856 
L 303.499433 184.052802 
L 303.679846 171.099143 
L 303.770053 173.766052 
L 303.86026 168.813119 
L 303.950467 176.242156 
L 304.040674 193.005373 
L 304.130881 189.957581 
L 304.311295 173.004286 
L 304.401501 183.861998 
L 304.581915 171.670832 
L 304.762329 191.100593 
L 304.852536 190.528907 
L 305.03295 180.433323 
L 305.123156 183.29031 
L 305.213363 196.243606 
L 305.393777 167.289585 
L 305.664398 201.006097 
L 305.844811 177.385531 
L 306.025225 197.57706 
L 306.115432 192.624489 
L 306.295846 178.909065 
L 306.386053 178.718985 
L 306.47626 177.194727 
L 306.656673 181.956855 
L 306.74688 179.099869 
L 306.837087 183.29031 
L 307.017501 200.243969 
L 307.107708 194.338827 
L 307.197915 194.910152 
L 307.288121 194.148386 
L 307.648949 199.100956 
L 307.739156 198.339189 
L 307.829363 196.624852 
L 308.009776 189.576697 
L 308.099983 196.624852 
L 308.19019 192.814931 
L 308.370604 173.004286 
L 308.551018 180.242519 
L 308.641225 191.291035 
L 308.731431 189.576697 
L 308.821638 177.385531 
L 309.002052 191.671919 
L 309.092259 186.718986 
L 309.182466 190.719711 
L 309.453086 128.430062 
L 309.543293 129.001748 
L 309.6335 149.38372 
L 309.723707 147.097695 
L 309.813914 134.906529 
L 309.994328 145.764241 
L 310.174741 125.382269 
L 310.264948 133.192191 
L 310.445362 107.666482 
L 310.625776 131.09697 
L 310.715983 124.238895 
L 310.80619 125.191465 
L 310.986603 133.001386 
L 311.07681 131.477853 
L 311.257224 124.620503 
L 311.347431 126.715724 
L 311.527845 124.620503 
L 311.618051 128.049178 
L 311.708258 127.096607 
L 311.798465 122.90544 
L 311.978879 146.907615 
L 312.159293 123.477128 
L 312.339706 146.335927 
L 312.52012 135.097332 
L 312.610327 145.383357 
L 312.700534 144.811669 
L 312.790741 140.04954 
L 312.971155 151.098056 
L 313.061361 149.192915 
L 313.151568 149.955406 
L 313.331982 175.290311 
L 313.602603 139.859462 
L 313.783016 150.145486 
L 313.873223 145.764241 
L 314.053637 172.623402 
L 314.143844 167.861273 
L 314.234051 165.194365 
L 314.414465 175.290311 
L 314.504671 170.909066 
L 314.685085 172.813481 
L 314.775292 171.480027 
L 314.955706 187.481477 
L 315.045913 185.004648 
L 315.226327 171.480027 
L 315.316533 171.289948 
L 315.587154 191.671919 
L 315.677361 189.195815 
L 315.767568 192.434048 
L 315.857775 192.243606 
L 316.038188 174.908702 
L 316.128395 176.623765 
L 316.218602 176.813844 
L 316.399016 167.289585 
L 316.489223 171.480027 
L 316.57943 170.337377 
L 316.759843 175.671194 
L 316.85005 168.051353 
L 316.940257 169.194728 
L 317.030464 178.718985 
L 317.210878 172.623402 
L 317.301085 190.910151 
L 317.391292 103.476041 
L 317.481498 107.09552 
L 317.571705 108.428974 
L 317.752119 102.333391 
L 317.842326 102.714275 
L 317.932533 101.951782 
L 318.203153 117.191466 
L 318.29336 131.858736 
L 318.383567 129.572712 
L 318.563981 92.808407 
L 318.834602 102.333391 
L 318.924808 114.714637 
L 319.015015 112.238533 
L 319.105222 101.380821 
L 319.195429 104.809495 
L 319.375843 126.524919 
L 319.556257 124.858464 
L 320.187705 123.858011 
L 320.277912 129.953594 
L 320.368118 124.048815 
L 320.458325 125.382269 
L 320.548532 125.382269 
L 320.728946 104.618691 
L 320.90936 124.429699 
L 321.089773 105.571261 
L 321.360394 131.667932 
L 321.450601 127.477491 
L 321.540808 129.953594 
L 321.631015 125.382269 
L 321.811428 104.809495 
L 321.901635 105.762066 
L 321.991842 101.190016 
L 322.172256 130.716086 
L 322.262463 121.953595 
L 322.442877 101.761703 
L 322.803704 135.478215 
L 322.893911 130.334478 
L 323.074325 111.857649 
L 323.254738 130.334478 
L 323.435152 119.476766 
L 323.615566 134.144761 
L 323.79598 105.762066 
L 324.0666 156.621952 
L 324.156807 153.764965 
L 324.337221 132.620502 
L 324.427428 134.906529 
L 324.517635 151.288861 
L 324.607842 144.621591 
L 324.698048 126.715724 
L 324.788255 127.668294 
L 324.878462 135.859099 
L 325.058876 124.238895 
L 325.149083 129.001748 
L 325.23929 128.810944 
L 325.329497 121.572711 
L 325.419703 124.238895 
L 325.50991 114.524558 
L 325.600117 115.858012 
L 325.780531 104.618691 
L 326.051152 66.14005 
L 326.231565 80.046279 
L 326.321772 79.855475 
L 326.411979 77.760255 
L 326.592393 81.760617 
L 326.6826 78.712825 
L 326.772807 79.66467 
L 326.863013 73.569087 
L 326.95322 74.521658 
L 327.133634 106.904716 
L 327.314048 77.950332 
L 327.404255 81.950695 
L 327.584668 75.47423 
L 327.855289 108.619054 
L 327.945496 97.952145 
L 328.035703 99.285599 
L 328.12591 95.856199 
L 328.306323 72.998126 
L 328.486737 89.951421 
L 328.667151 56.425713 
L 328.757358 60.044467 
L 328.937772 54.711375 
L 329.118185 74.140776 
L 329.208392 57.759167 
L 329.388806 70.902179 
L 329.479013 57.187479 
L 329.56922 66.14005 
L 329.659427 86.903628 
L 329.83984 78.712825 
L 329.930047 89.951421 
L 330.110461 85.37937 
L 330.200668 95.66612 
L 330.290875 91.665757 
L 330.381082 78.712825 
L 330.832116 108.809858 
L 331.01253 83.284149 
L 331.102737 90.1415 
L 331.28315 74.902542 
L 331.463564 111.476767 
L 331.553771 102.333391 
L 331.643978 105.190379 
L 331.734185 121.191102 
L 331.914598 77.56945 
L 332.004805 79.66467 
L 332.365633 126.144037 
L 332.546047 79.283787 
L 332.72646 107.666482 
L 332.906874 90.903991 
L 332.997081 104.237807 
L 333.087288 101.190016 
L 333.177495 96.80877 
L 333.267702 101.570899 
L 333.357909 98.523108 
L 333.448115 99.285599 
L 333.628529 124.048815 
L 333.718736 123.667933 
L 333.808943 125.191465 
L 333.989357 145.574161 
L 334.079564 141.573798 
L 334.16977 145.764241 
L 334.259977 144.240707 
L 334.350184 146.716811 
L 334.530598 160.432236 
L 334.620805 150.717174 
L 334.711012 150.907252 
L 334.891425 153.384082 
L 335.071839 151.098056 
L 335.252253 162.336652 
L 335.34246 160.432236 
L 335.432667 163.480028 
L 335.61308 177.004649 
L 336.424942 145.002473 
L 336.515149 137.382631 
L 336.605356 138.90689 
L 336.695563 150.717174 
L 336.78577 148.812031 
L 336.875977 142.144762 
L 337.05639 147.097695 
L 337.236804 137.192553 
L 337.417218 150.907252 
L 337.597632 127.096607 
L 337.778045 156.050991 
L 337.958459 130.525282 
L 338.138873 149.955406 
L 338.22908 149.192915 
L 338.409494 157.193641 
L 338.589907 151.47894 
L 338.770321 136.239981 
L 338.950735 149.38372 
L 339.221355 135.097332 
L 339.311562 127.858374 
L 339.491976 153.764965 
L 339.582183 153.384082 
L 339.762597 150.526369 
L 340.033217 123.477128 
L 340.123424 130.144398 
L 340.213631 128.239257 
L 340.394045 106.333028 
L 340.574459 128.049178 
L 340.664665 126.905803 
L 340.845079 119.095882 
L 340.935286 125.382269 
L 341.025493 121.381907 
L 341.205907 104.809495 
L 341.296114 110.905079 
L 341.38632 100.428249 
L 341.476527 102.523471 
L 341.566734 122.715361 
L 341.656941 117.762428 
L 341.747148 148.621953 
L 341.837355 145.383357 
L 342.017769 151.47894 
L 342.107975 151.098056 
L 342.288389 171.289948 
L 342.378596 171.099143 
L 342.468803 166.146935 
L 342.55901 169.384807 
L 342.649217 166.146935 
L 342.82963 153.955044 
L 343.100251 178.718985 
L 343.190458 177.194727 
L 343.461079 157.384444 
L 343.551285 157.384444 
L 343.731699 177.004649 
L 343.912113 174.146936 
L 344.092527 183.671193 
L 344.363147 169.384807 
L 344.453354 170.337377 
L 344.633768 197.196176 
L 344.723975 194.529268 
L 344.814182 172.051715 
L 344.904389 172.432598 
L 344.994595 189.195815 
L 345.175009 177.385531 
L 345.355423 200.624851 
L 345.626044 182.909427 
L 345.71625 184.242882 
L 345.806457 198.148748 
L 345.986871 171.289948 
L 346.257492 203.101318 
L 346.437905 172.051715 
L 346.618319 193.386255 
L 346.88894 168.242157 
L 346.979147 169.003923 
L 347.15956 175.290311 
L 347.339974 168.432235 
L 347.610595 195.291398 
L 347.700802 196.053164 
L 347.791009 198.720073 
L 347.881215 197.196176 
L 348.061629 202.148747 
L 348.422457 192.814931 
L 348.60287 178.338103 
L 348.693077 181.575973 
L 348.783284 177.957219 
L 348.963698 164.813481 
L 349.053905 170.528182 
L 349.144112 165.956131 
L 349.234319 168.242157 
L 349.324525 174.718622 
L 349.504939 165.575249 
L 349.77556 173.004286 
L 349.955974 130.525282 
L 350.136387 117.762428 
L 350.316801 126.524919 
L 350.497215 121.191102 
L 350.677629 117.000662 
L 350.767836 119.857649 
L 350.858042 116.809857 
L 351.038456 99.856562 
L 351.21887 122.524557 
L 351.309077 116.809857 
L 351.489491 137.573436 
L 351.760111 123.477128 
L 351.850318 118.52492 
L 351.940525 126.715724 
L 352.030732 124.810583 
L 352.120939 113.191103 
L 352.301352 124.810583 
L 352.391559 121.001024 
L 352.481766 121.953595 
L 352.571973 129.572712 
L 352.66218 127.286687 
L 352.752387 117.381545 
L 352.932801 124.620503 
L 353.113214 109.762429 
L 353.293628 126.524919 
L 353.383835 120.620141 
L 353.474042 120.81022 
L 353.564249 126.144037 
L 353.654456 125.001387 
L 353.744662 129.001748 
L 353.925076 156.241069 
L 354.015283 149.955406 
L 354.195697 109.571624 
L 354.376111 139.478578 
L 354.466317 136.620865 
L 354.556524 141.382994 
L 354.646731 154.336653 
L 354.827145 147.478577 
L 355.097766 175.099506 
L 355.187972 168.813119 
L 355.278179 151.859824 
L 355.368386 153.764965 
L 355.5488 173.004286 
L 355.909627 148.812031 
L 356.090041 173.956856 
L 356.180248 170.718261 
L 356.360662 172.242518 
L 356.721489 150.33629 
L 356.811696 152.050628 
L 356.99211 131.858736 
L 357.352937 146.526007 
L 357.443144 141.573798 
L 357.533351 143.478214 
L 357.623558 153.764965 
L 357.803972 145.574161 
L 357.894179 163.86091 
L 358.074592 137.763515 
L 358.255006 148.621953 
L 358.345213 143.097332 
L 358.525627 153.193278 
L 358.615834 146.716811 
L 358.706041 131.667932 
L 358.796247 139.859462 
L 358.976661 176.43296 
L 359.157075 124.048815 
L 359.247282 131.287048 
L 359.427696 121.953595 
L 359.608109 146.145123 
L 359.788523 131.09697 
L 360.059144 167.098781 
L 360.780799 147.288499 
L 360.871006 141.192916 
L 360.961212 126.524919 
L 361.051419 127.286687 
L 361.141626 137.192553 
L 361.32204 123.287049 
L 361.502454 133.382995 
L 361.592661 132.23962 
L 361.773074 122.334479 
L 361.953488 135.287411 
L 362.043695 133.573074 
L 362.224109 150.33629 
L 362.404522 120.81022 
L 362.584936 128.62014 
L 362.76535 152.812394 
L 362.855557 149.38372 
L 363.035971 119.095882 
L 363.126177 124.429699 
L 363.306591 151.098056 
L 363.487005 154.526732 
L 363.667419 126.334841 
L 363.757626 128.810944 
L 363.847832 133.953957 
L 363.938039 128.049178 
L 364.118453 150.33629 
L 364.20866 143.288136 
L 364.389074 122.90544 
L 364.659694 174.146936 
L 364.749901 167.670469 
L 364.930315 140.812032 
L 365.110729 161.384081 
L 365.200936 159.098782 
L 365.381349 143.097332 
L 365.471556 154.717537 
L 365.561763 152.812394 
L 365.65197 142.907253 
L 365.832384 154.145848 
L 366.012797 123.096245 
L 366.103004 262.724058 
L 366.193211 260.247592 
L 366.283418 258.9145 
L 366.463832 268.248317 
L 366.644246 240.81783 
L 366.914866 279.868159 
L 367.09528 260.628838 
L 367.185487 266.533979 
L 367.365901 257.009359 
L 367.456108 261.771488 
L 367.636521 288.630649 
L 367.726728 288.249405 
L 367.997349 251.485463 
L 368.087556 246.913413 
L 368.267969 276.058238 
L 368.358176 273.58177 
L 368.53859 253.390243 
L 368.719004 267.105305 
L 368.809211 250.34245 
L 368.989624 284.630288 
L 369.260245 240.436946 
L 369.621073 261.009722 
L 369.711279 257.390243 
L 369.801486 248.628114 
L 369.9819 270.153096 
L 370.162314 264.628838 
L 370.342728 291.297195 
L 370.432934 286.91595 
L 370.613348 272.629562 
L 370.703555 282.153821 
L 370.883969 271.867434 
L 370.974176 280.249042 
L 371.064383 279.677355 
L 371.154589 276.820367 
L 371.335003 290.154546 
L 371.605624 267.486187 
L 371.695831 268.057875 
L 371.876244 263.67663 
L 372.056658 295.488 
L 372.237072 276.820367 
L 372.327279 293.773662 
L 372.417486 287.487637 
L 372.597899 259.295384 
L 372.778313 276.058238 
L 372.958727 277.201251 
L 373.139141 242.532168 
L 373.229348 246.913413 
L 373.409761 274.534342 
L 373.770589 253.009359 
L 374.041209 266.724421 
L 374.131416 266.533979 
L 374.221623 149.38372 
L 374.31183 161.574886 
L 374.492244 173.766052 
L 374.582451 170.718261 
L 374.672658 171.480027 
L 374.762864 173.956856 
L 374.853071 171.289948 
L 375.033485 180.052439 
L 375.213899 173.004286 
L 375.304106 188.434047 
L 375.394313 188.052438 
L 375.574726 172.051715 
L 375.664933 173.385168 
L 375.845347 185.195452 
L 376.025761 160.432236 
L 376.206174 180.623401 
L 377.018036 149.764603 
L 377.19845 137.001749 
L 377.288657 148.431149 
L 377.469071 126.334841 
L 377.649484 135.097332 
L 377.739691 123.477128 
L 377.920105 143.097332 
L 378.010312 138.716085 
L 378.190726 122.715361 
L 378.280933 128.62014 
L 378.371139 142.144762 
L 378.551553 126.144037 
L 378.731967 143.669019 
L 378.822174 130.906166 
L 379.002588 158.146211 
L 379.183001 139.668657 
L 379.453622 149.955406 
L 379.543829 150.717174 
L 379.634036 153.003199 
L 379.724243 152.240706 
L 379.904656 145.002473 
L 380.08507 167.479664 
L 380.265484 155.288498 
L 380.355691 161.384081 
L 380.536104 142.526369 
L 380.716518 155.288498 
L 380.896932 126.334841 
L 380.987139 129.763516 
L 381.257759 157.002836 
L 381.438173 146.716811 
L 381.618587 153.003199 
L 381.708794 145.002473 
L 381.889208 155.098419 
L 382.069621 146.526007 
L 382.159828 160.241431 
L 382.250035 157.193641 
L 382.430449 169.003923 
L 382.520656 164.241794 
L 382.610863 153.193278 
L 382.701069 157.193641 
L 382.881483 175.48039 
L 382.97169 171.860911 
L 383.242311 153.384082 
L 383.422724 149.764603 
L 383.512931 146.907615 
L 383.603138 150.717174 
L 383.693345 165.575249 
L 383.783552 160.622315 
L 383.963966 120.239257 
L 384.234586 135.668295 
L 384.415 132.23962 
L 384.595414 149.002836 
L 384.775828 123.287049 
L 384.866035 126.334841 
L 385.046448 103.666846 
L 385.226862 128.810944 
L 385.407276 99.666483 
L 385.58769 123.287049 
L 385.768103 100.809133 
L 385.948517 126.905803 
L 386.128931 105.952145 
L 386.219138 108.428974 
L 386.399551 123.667933 
L 386.579965 95.66612 
L 386.670172 99.666483 
L 386.850586 117.953232 
L 387.031 101.761703 
L 387.211413 118.334116 
L 387.482034 101.951782 
L 387.572241 103.666846 
L 387.662448 100.999937 
L 387.842861 102.523471 
L 387.933068 103.095157 
L 388.113482 114.333753 
L 388.293896 101.951782 
L 388.384103 104.999575 
L 388.564516 95.856199 
L 388.654723 90.332304 
L 388.835137 99.475678 
L 388.925344 97.189654 
L 389.015551 97.952145 
L 389.105758 95.475316 
L 389.195965 82.522383 
L 389.286171 84.617604 
L 389.376378 97.380458 
L 389.556792 73.379008 
L 389.646999 73.759892 
L 389.827413 94.522745 
L 390.007826 89.379733 
L 390.18824 101.951782 
L 390.278447 92.618329 
L 390.368654 97.189654 
L 390.549068 208.816018 
L 390.729481 188.052438 
L 390.819688 188.052438 
L 391.000102 172.432598 
L 391.090309 179.480753 
L 391.270723 152.240706 
L 391.36093 152.812394 
L 391.451136 148.621953 
L 391.541343 137.763515 
L 391.63155 139.859462 
L 391.811964 164.05099 
L 391.902171 158.907977 
L 392.353205 179.289948 
L 392.443412 167.289585 
L 392.533619 167.670469 
L 392.623826 173.575973 
L 392.80424 167.670469 
L 392.894446 173.956856 
L 393.07486 170.909066 
L 393.165067 177.957219 
L 393.255274 177.385531 
L 393.345481 172.623402 
L 393.525895 185.576336 
L 393.706308 160.432236 
L 393.796515 161.76569 
L 394.067136 145.764241 
L 394.157343 146.335927 
L 394.24755 142.526369 
L 394.337756 144.430786 
L 394.51817 158.146211 
L 394.698584 140.240344 
L 394.878998 144.049903 
L 394.969205 143.478214 
L 395.059411 141.192916 
L 395.239825 171.860911 
L 395.330032 167.289585 
L 395.420239 161.76569 
L 395.600653 181.956855 
L 395.69086 172.051715 
L 395.781066 173.956856 
L 395.871273 173.004286 
L 395.96148 173.385168 
L 396.051687 182.719348 
L 396.232101 167.098781 
L 396.412515 185.004648 
L 396.592928 167.670469 
L 396.683135 177.766415 
L 396.773342 173.956856 
L 396.863549 175.099506 
L 396.953756 181.575973 
L 397.13417 165.00356 
L 397.224376 165.194365 
L 397.314583 174.146936 
L 397.40479 170.337377 
L 397.585204 144.621591 
L 397.946031 154.907614 
L 398.036238 150.526369 
L 398.126445 152.050628 
L 398.306859 169.765689 
L 398.397066 170.337377 
L 398.487273 175.290311 
L 398.487273 175.290311 
" clip-path="url(#pbc9312cbac)" style="fill: none; stroke: #1f77b4; stroke-width: 1.5; stroke-linecap: square"/>
   </g>
   <g id="patch_3">
    <path d="M 57.6 307.584 
L 57.6 41.472 
" style="fill: none; stroke: #000000; stroke-width: 0.8; stroke-linejoin: miter; stroke-linecap: square"/>
   </g>
   <g id="patch_4">
    <path d="M 414.72 307.584 
L 414.72 41.472 
" style="fill: none; stroke: #000000; stroke-width: 0.8; stroke-linejoin: miter; stroke-linecap: square"/>
   </g>
   <g id="patch_5">
    <path d="M 57.6 307.584 
L 414.72 307.584 
" style="fill: none; stroke: #000000; stroke-width: 0.8; stroke-linejoin: miter; stroke-linecap: square"/>
   </g>
   <g id="patch_6">
    <path d="M 57.6 41.472 
L 414.72 41.472 
" style="fill: none; stroke: #000000; stroke-width: 0.8; stroke-linejoin: miter; stroke-linecap: square"/>
   </g>
   <g id="legend_1">
    <g id="patch_7">
     <path d="M 354.074688 64.150125 
L 407.72 64.150125 
Q 409.72 64.150125 409.72 62.150125 
L 409.72 48.472 
Q 409.72 46.472 407.72 46.472 
L 354.074688 46.472 
Q 352.074688 46.472 352.074688 48.472 
L 352.074688 62.150125 
Q 352.074688 64.150125 354.074688 64.150125 
z
" style="fill: #ffffff; opacity: 0.8; stroke: #cccccc; stroke-linejoin: miter"/>
    </g>
    <g id="line2d_19">
     <path d="M 356.074688 54.570438 
L 366.074688 54.570438 
L 376.074688 54.570438 
" style="fill: none; stroke: #1f77b4; stroke-width: 1.5; stroke-linecap: square"/>
    </g>
    <g id="text_18">
     <!-- set3 -->
     <g transform="translate(384.074688 58.070438)scale(0.1 -0.1)">
      <defs>
       <path id="DejaVuSans-73" d="M 2834 3397 
L 2834 2853 
Q 2591 2978 2328 3040 
Q 2066 3103 1784 3103 
Q 1356 3103 1142 2972 
Q 928 2841 928 2578 
Q 928 2378 1081 2264 
Q 1234 2150 1697 2047 
L 1894 2003 
Q 2506 1872 2764 1633 
Q 3022 1394 3022 966 
Q 3022 478 2636 193 
Q 2250 -91 1575 -91 
Q 1294 -91 989 -36 
Q 684 19 347 128 
L 347 722 
Q 666 556 975 473 
Q 1284 391 1588 391 
Q 1994 391 2212 530 
Q 2431 669 2431 922 
Q 2431 1156 2273 1281 
Q 2116 1406 1581 1522 
L 1381 1569 
Q 847 1681 609 1914 
Q 372 2147 372 2553 
Q 372 3047 722 3315 
Q 1072 3584 1716 3584 
Q 2034 3584 2315 3537 
Q 2597 3491 2834 3397 
z
" transform="scale(0.015625)"/>
       <path id="DejaVuSans-65" d="M 3597 1894 
L 3597 1613 
L 953 1613 
Q 991 1019 1311 708 
Q 1631 397 2203 397 
Q 2534 397 2845 478 
Q 3156 559 3463 722 
L 3463 178 
Q 3153 47 2828 -22 
Q 2503 -91 2169 -91 
Q 1331 -91 842 396 
Q 353 884 353 1716 
Q 353 2575 817 3079 
Q 1281 3584 2069 3584 
Q 2775 3584 3186 3129 
Q 3597 2675 3597 1894 
z
M 3022 2063 
Q 3016 2534 2758 2815 
Q 2500 3097 2075 3097 
Q 1594 3097 1305 2825 
Q 1016 2553 972 2059 
L 3022 2063 
z
" transform="scale(0.015625)"/>
       <path id="DejaVuSans-74" d="M 1172 4494 
L 1172 3500 
L 2356 3500 
L 2356 3053 
L 1172 3053 
L 1172 1153 
Q 1172 725 1289 603 
Q 1406 481 1766 481 
L 2356 481 
L 2356 0 
L 1766 0 
Q 1100 0 847 248 
Q 594 497 594 1153 
L 594 3053 
L 172 3053 
L 172 3500 
L 594 3500 
L 594 4494 
L 1172 4494 
z
" transform="scale(0.015625)"/>
      </defs>
      <use xlink:href="#DejaVuSans-73"/>
      <use xlink:href="#DejaVuSans-65" x="52.099609"/>
      <use xlink:href="#DejaVuSans-74" x="113.623047"/>
      <use xlink:href="#DejaVuSans-33" x="152.832031"/>
     </g>
    </g>
   </g>
  </g>
 </g>
 <defs>
  <clipPath id="pbc9312cbac">
   <rect x="57.6" y="41.472" width="357.12" height="266.112"/>
  </clipPath>
 </defs>
</svg>
