<?xml version="1.0" encoding="utf-8" standalone="no"?>
<!DOCTYPE svg PUBLIC "-//W3C//DTD SVG 1.1//EN"
  "http://www.w3.org/Graphics/SVG/1.1/DTD/svg11.dtd">
<svg xmlns:xlink="http://www.w3.org/1999/xlink" width="460.8pt" height="345.6pt" viewBox="0 0 460.8 345.6" xmlns="http://www.w3.org/2000/svg" version="1.1">
 <metadata>
  <rdf:RDF xmlns:dc="http://purl.org/dc/elements/1.1/" xmlns:cc="http://creativecommons.org/ns#" xmlns:rdf="http://www.w3.org/1999/02/22-rdf-syntax-ns#">
   <cc:Work>
    <dc:type rdf:resource="http://purl.org/dc/dcmitype/StillImage"/>
    <dc:date>2022-08-11T15:18:15.535844</dc:date>
    <dc:format>image/svg+xml</dc:format>
    <dc:creator>
     <cc:Agent>
      <dc:title>Matplotlib v3.5.2, https://matplotlib.org/</dc:title>
     </cc:Agent>
    </dc:creator>
   </cc:Work>
  </rdf:RDF>
 </metadata>
 <defs>
  <style type="text/css">*{stroke-linejoin: round; stroke-linecap: butt}</style>
 </defs>
 <g id="figure_1">
  <g id="patch_1">
   <path d="M 0 345.6 
L 460.8 345.6 
L 460.8 0 
L 0 0 
z
" style="fill: #ffffff"/>
  </g>
  <g id="axes_1">
   <g id="patch_2">
    <path d="M 57.6 307.584 
L 414.72 307.584 
L 414.72 41.472 
L 57.6 41.472 
z
" style="fill: #ffffff"/>
   </g>
   <g id="matplotlib.axis_1">
    <g id="xtick_1">
     <g id="line2d_1">
      <defs>
       <path id="m4387b47e5f" d="M 0 0 
L 0 3.5 
" style="stroke: #000000; stroke-width: 0.8"/>
      </defs>
      <g>
       <use xlink:href="#m4387b47e5f" x="73.832727" y="307.584" style="stroke: #000000; stroke-width: 0.8"/>
      </g>
     </g>
     <g id="text_1">
      <!-- 0 -->
      <g transform="translate(70.651477 322.182437)scale(0.1 -0.1)">
       <defs>
        <path id="DejaVuSans-30" d="M 2034 4250 
Q 1547 4250 1301 3770 
Q 1056 3291 1056 2328 
Q 1056 1369 1301 889 
Q 1547 409 2034 409 
Q 2525 409 2770 889 
Q 3016 1369 3016 2328 
Q 3016 3291 2770 3770 
Q 2525 4250 2034 4250 
z
M 2034 4750 
Q 2819 4750 3233 4129 
Q 3647 3509 3647 2328 
Q 3647 1150 3233 529 
Q 2819 -91 2034 -91 
Q 1250 -91 836 529 
Q 422 1150 422 2328 
Q 422 3509 836 4129 
Q 1250 4750 2034 4750 
z
" transform="scale(0.015625)"/>
       </defs>
       <use xlink:href="#DejaVuSans-30"/>
      </g>
     </g>
    </g>
    <g id="xtick_2">
     <g id="line2d_2">
      <g>
       <use xlink:href="#m4387b47e5f" x="118.936165" y="307.584" style="stroke: #000000; stroke-width: 0.8"/>
      </g>
     </g>
     <g id="text_2">
      <!-- 500 -->
      <g transform="translate(109.392415 322.182437)scale(0.1 -0.1)">
       <defs>
        <path id="DejaVuSans-35" d="M 691 4666 
L 3169 4666 
L 3169 4134 
L 1269 4134 
L 1269 2991 
Q 1406 3038 1543 3061 
Q 1681 3084 1819 3084 
Q 2600 3084 3056 2656 
Q 3513 2228 3513 1497 
Q 3513 744 3044 326 
Q 2575 -91 1722 -91 
Q 1428 -91 1123 -41 
Q 819 9 494 109 
L 494 744 
Q 775 591 1075 516 
Q 1375 441 1709 441 
Q 2250 441 2565 725 
Q 2881 1009 2881 1497 
Q 2881 1984 2565 2268 
Q 2250 2553 1709 2553 
Q 1456 2553 1204 2497 
Q 953 2441 691 2322 
L 691 4666 
z
" transform="scale(0.015625)"/>
       </defs>
       <use xlink:href="#DejaVuSans-35"/>
       <use xlink:href="#DejaVuSans-30" x="63.623047"/>
       <use xlink:href="#DejaVuSans-30" x="127.246094"/>
      </g>
     </g>
    </g>
    <g id="xtick_3">
     <g id="line2d_3">
      <g>
       <use xlink:href="#m4387b47e5f" x="164.039603" y="307.584" style="stroke: #000000; stroke-width: 0.8"/>
      </g>
     </g>
     <g id="text_3">
      <!-- 1000 -->
      <g transform="translate(151.314603 322.182437)scale(0.1 -0.1)">
       <defs>
        <path id="DejaVuSans-31" d="M 794 531 
L 1825 531 
L 1825 4091 
L 703 3866 
L 703 4441 
L 1819 4666 
L 2450 4666 
L 2450 531 
L 3481 531 
L 3481 0 
L 794 0 
L 794 531 
z
" transform="scale(0.015625)"/>
       </defs>
       <use xlink:href="#DejaVuSans-31"/>
       <use xlink:href="#DejaVuSans-30" x="63.623047"/>
       <use xlink:href="#DejaVuSans-30" x="127.246094"/>
       <use xlink:href="#DejaVuSans-30" x="190.869141"/>
      </g>
     </g>
    </g>
    <g id="xtick_4">
     <g id="line2d_4">
      <g>
       <use xlink:href="#m4387b47e5f" x="209.143041" y="307.584" style="stroke: #000000; stroke-width: 0.8"/>
      </g>
     </g>
     <g id="text_4">
      <!-- 1500 -->
      <g transform="translate(196.418041 322.182437)scale(0.1 -0.1)">
       <use xlink:href="#DejaVuSans-31"/>
       <use xlink:href="#DejaVuSans-35" x="63.623047"/>
       <use xlink:href="#DejaVuSans-30" x="127.246094"/>
       <use xlink:href="#DejaVuSans-30" x="190.869141"/>
      </g>
     </g>
    </g>
    <g id="xtick_5">
     <g id="line2d_5">
      <g>
       <use xlink:href="#m4387b47e5f" x="254.246479" y="307.584" style="stroke: #000000; stroke-width: 0.8"/>
      </g>
     </g>
     <g id="text_5">
      <!-- 2000 -->
      <g transform="translate(241.521479 322.182437)scale(0.1 -0.1)">
       <defs>
        <path id="DejaVuSans-32" d="M 1228 531 
L 3431 531 
L 3431 0 
L 469 0 
L 469 531 
Q 828 903 1448 1529 
Q 2069 2156 2228 2338 
Q 2531 2678 2651 2914 
Q 2772 3150 2772 3378 
Q 2772 3750 2511 3984 
Q 2250 4219 1831 4219 
Q 1534 4219 1204 4116 
Q 875 4013 500 3803 
L 500 4441 
Q 881 4594 1212 4672 
Q 1544 4750 1819 4750 
Q 2544 4750 2975 4387 
Q 3406 4025 3406 3419 
Q 3406 3131 3298 2873 
Q 3191 2616 2906 2266 
Q 2828 2175 2409 1742 
Q 1991 1309 1228 531 
z
" transform="scale(0.015625)"/>
       </defs>
       <use xlink:href="#DejaVuSans-32"/>
       <use xlink:href="#DejaVuSans-30" x="63.623047"/>
       <use xlink:href="#DejaVuSans-30" x="127.246094"/>
       <use xlink:href="#DejaVuSans-30" x="190.869141"/>
      </g>
     </g>
    </g>
    <g id="xtick_6">
     <g id="line2d_6">
      <g>
       <use xlink:href="#m4387b47e5f" x="299.349916" y="307.584" style="stroke: #000000; stroke-width: 0.8"/>
      </g>
     </g>
     <g id="text_6">
      <!-- 2500 -->
      <g transform="translate(286.624916 322.182437)scale(0.1 -0.1)">
       <use xlink:href="#DejaVuSans-32"/>
       <use xlink:href="#DejaVuSans-35" x="63.623047"/>
       <use xlink:href="#DejaVuSans-30" x="127.246094"/>
       <use xlink:href="#DejaVuSans-30" x="190.869141"/>
      </g>
     </g>
    </g>
    <g id="xtick_7">
     <g id="line2d_7">
      <g>
       <use xlink:href="#m4387b47e5f" x="344.453354" y="307.584" style="stroke: #000000; stroke-width: 0.8"/>
      </g>
     </g>
     <g id="text_7">
      <!-- 3000 -->
      <g transform="translate(331.728354 322.182437)scale(0.1 -0.1)">
       <defs>
        <path id="DejaVuSans-33" d="M 2597 2516 
Q 3050 2419 3304 2112 
Q 3559 1806 3559 1356 
Q 3559 666 3084 287 
Q 2609 -91 1734 -91 
Q 1441 -91 1130 -33 
Q 819 25 488 141 
L 488 750 
Q 750 597 1062 519 
Q 1375 441 1716 441 
Q 2309 441 2620 675 
Q 2931 909 2931 1356 
Q 2931 1769 2642 2001 
Q 2353 2234 1838 2234 
L 1294 2234 
L 1294 2753 
L 1863 2753 
Q 2328 2753 2575 2939 
Q 2822 3125 2822 3475 
Q 2822 3834 2567 4026 
Q 2313 4219 1838 4219 
Q 1578 4219 1281 4162 
Q 984 4106 628 3988 
L 628 4550 
Q 988 4650 1302 4700 
Q 1616 4750 1894 4750 
Q 2613 4750 3031 4423 
Q 3450 4097 3450 3541 
Q 3450 3153 3228 2886 
Q 3006 2619 2597 2516 
z
" transform="scale(0.015625)"/>
       </defs>
       <use xlink:href="#DejaVuSans-33"/>
       <use xlink:href="#DejaVuSans-30" x="63.623047"/>
       <use xlink:href="#DejaVuSans-30" x="127.246094"/>
       <use xlink:href="#DejaVuSans-30" x="190.869141"/>
      </g>
     </g>
    </g>
    <g id="xtick_8">
     <g id="line2d_8">
      <g>
       <use xlink:href="#m4387b47e5f" x="389.556792" y="307.584" style="stroke: #000000; stroke-width: 0.8"/>
      </g>
     </g>
     <g id="text_8">
      <!-- 3500 -->
      <g transform="translate(376.831792 322.182437)scale(0.1 -0.1)">
       <use xlink:href="#DejaVuSans-33"/>
       <use xlink:href="#DejaVuSans-35" x="63.623047"/>
       <use xlink:href="#DejaVuSans-30" x="127.246094"/>
       <use xlink:href="#DejaVuSans-30" x="190.869141"/>
      </g>
     </g>
    </g>
   </g>
   <g id="matplotlib.axis_2">
    <g id="ytick_1">
     <g id="line2d_9">
      <defs>
       <path id="m5c21dfdb7d" d="M 0 0 
L -3.5 0 
" style="stroke: #000000; stroke-width: 0.8"/>
      </defs>
      <g>
       <use xlink:href="#m5c21dfdb7d" x="57.6" y="300.352798" style="stroke: #000000; stroke-width: 0.8"/>
      </g>
     </g>
     <g id="text_9">
      <!-- 2500 -->
      <g transform="translate(25.15 304.152017)scale(0.1 -0.1)">
       <use xlink:href="#DejaVuSans-32"/>
       <use xlink:href="#DejaVuSans-35" x="63.623047"/>
       <use xlink:href="#DejaVuSans-30" x="127.246094"/>
       <use xlink:href="#DejaVuSans-30" x="190.869141"/>
      </g>
     </g>
    </g>
    <g id="ytick_2">
     <g id="line2d_10">
      <g>
       <use xlink:href="#m5c21dfdb7d" x="57.6" y="256.737412" style="stroke: #000000; stroke-width: 0.8"/>
      </g>
     </g>
     <g id="text_10">
      <!-- 3000 -->
      <g transform="translate(25.15 260.536631)scale(0.1 -0.1)">
       <use xlink:href="#DejaVuSans-33"/>
       <use xlink:href="#DejaVuSans-30" x="63.623047"/>
       <use xlink:href="#DejaVuSans-30" x="127.246094"/>
       <use xlink:href="#DejaVuSans-30" x="190.869141"/>
      </g>
     </g>
    </g>
    <g id="ytick_3">
     <g id="line2d_11">
      <g>
       <use xlink:href="#m5c21dfdb7d" x="57.6" y="213.122026" style="stroke: #000000; stroke-width: 0.8"/>
      </g>
     </g>
     <g id="text_11">
      <!-- 3500 -->
      <g transform="translate(25.15 216.921245)scale(0.1 -0.1)">
       <use xlink:href="#DejaVuSans-33"/>
       <use xlink:href="#DejaVuSans-35" x="63.623047"/>
       <use xlink:href="#DejaVuSans-30" x="127.246094"/>
       <use xlink:href="#DejaVuSans-30" x="190.869141"/>
      </g>
     </g>
    </g>
    <g id="ytick_4">
     <g id="line2d_12">
      <g>
       <use xlink:href="#m5c21dfdb7d" x="57.6" y="169.50664" style="stroke: #000000; stroke-width: 0.8"/>
      </g>
     </g>
     <g id="text_12">
      <!-- 4000 -->
      <g transform="translate(25.15 173.305859)scale(0.1 -0.1)">
       <defs>
        <path id="DejaVuSans-34" d="M 2419 4116 
L 825 1625 
L 2419 1625 
L 2419 4116 
z
M 2253 4666 
L 3047 4666 
L 3047 1625 
L 3713 1625 
L 3713 1100 
L 3047 1100 
L 3047 0 
L 2419 0 
L 2419 1100 
L 313 1100 
L 313 1709 
L 2253 4666 
z
" transform="scale(0.015625)"/>
       </defs>
       <use xlink:href="#DejaVuSans-34"/>
       <use xlink:href="#DejaVuSans-30" x="63.623047"/>
       <use xlink:href="#DejaVuSans-30" x="127.246094"/>
       <use xlink:href="#DejaVuSans-30" x="190.869141"/>
      </g>
     </g>
    </g>
    <g id="ytick_5">
     <g id="line2d_13">
      <g>
       <use xlink:href="#m5c21dfdb7d" x="57.6" y="125.891254" style="stroke: #000000; stroke-width: 0.8"/>
      </g>
     </g>
     <g id="text_13">
      <!-- 4500 -->
      <g transform="translate(25.15 129.690473)scale(0.1 -0.1)">
       <use xlink:href="#DejaVuSans-34"/>
       <use xlink:href="#DejaVuSans-35" x="63.623047"/>
       <use xlink:href="#DejaVuSans-30" x="127.246094"/>
       <use xlink:href="#DejaVuSans-30" x="190.869141"/>
      </g>
     </g>
    </g>
    <g id="ytick_6">
     <g id="line2d_14">
      <g>
       <use xlink:href="#m5c21dfdb7d" x="57.6" y="82.275868" style="stroke: #000000; stroke-width: 0.8"/>
      </g>
     </g>
     <g id="text_14">
      <!-- 5000 -->
      <g transform="translate(25.15 86.075087)scale(0.1 -0.1)">
       <use xlink:href="#DejaVuSans-35"/>
       <use xlink:href="#DejaVuSans-30" x="63.623047"/>
       <use xlink:href="#DejaVuSans-30" x="127.246094"/>
       <use xlink:href="#DejaVuSans-30" x="190.869141"/>
      </g>
     </g>
    </g>
   </g>
   <g id="line2d_15">
    <path d="M 73.832727 159.665237 
L 73.922934 159.408017 
L 74.103348 158.345574 
L 74.193555 158.379137 
L 74.283762 158.144278 
L 74.373969 158.692282 
L 74.464175 158.56923 
L 74.554382 157.607477 
L 74.644589 157.875857 
L 74.734796 158.837652 
L 74.825003 158.737005 
L 74.91521 158.56923 
L 75.095624 158.915939 
L 75.18583 158.703441 
L 75.276037 158.759366 
L 75.456451 158.904737 
L 75.636865 158.669878 
L 75.727072 158.591592 
L 75.907485 157.171323 
L 76.087899 157.976504 
L 76.268313 157.350257 
L 76.538934 157.819974 
L 76.719347 156.433226 
L 76.899761 157.450905 
L 76.989968 157.316694 
L 77.260589 156.533874 
L 77.531209 158.02127 
L 77.621416 158.088354 
L 77.892037 157.070676 
L 77.982244 156.914103 
L 78.343071 155.717449 
L 78.433278 155.661566 
L 78.613692 156.310175 
L 78.794105 155.59444 
L 78.884312 155.963509 
L 78.974519 155.874021 
L 79.064726 155.516153 
L 79.154933 155.739853 
L 79.24514 156.265452 
L 79.335347 156.142443 
L 79.425554 155.997073 
L 79.51576 156.399663 
L 79.605967 156.3661 
L 79.696174 155.997073 
L 79.876588 156.086518 
L 79.966795 155.773373 
L 80.147209 156.209527 
L 80.327622 155.929946 
L 80.598243 156.243091 
L 80.68845 156.455588 
L 80.778657 156.198368 
L 80.95907 155.292497 
L 81.139484 156.220729 
L 81.229691 156.164805 
L 81.410105 156.399663 
L 81.500312 156.131241 
L 81.680725 156.567395 
L 81.861139 156.142443 
L 82.041553 162.080844 
L 82.221967 162.874865 
L 82.40238 162.695932 
L 82.492587 162.830121 
L 82.673001 163.501134 
L 82.763208 162.986694 
L 82.853415 163.053799 
L 83.033829 164.049116 
L 83.214242 165.849656 
L 83.484863 165.77137 
L 83.755484 166.844973 
L 84.026104 165.927942 
L 84.567345 164.160966 
L 84.657552 164.071499 
L 84.747759 164.138583 
L 84.837966 164.026755 
L 85.01838 165.983867 
L 85.108587 166.755506 
L 85.198794 166.666039 
L 85.289 166.811431 
L 85.379207 166.487105 
L 85.649828 162.024919 
L 85.740035 161.64469 
L 85.920449 160.034264 
L 86.100862 160.257921 
L 86.281276 159.96718 
L 86.551897 158.558071 
L 86.73231 159.575749 
L 86.822517 159.273806 
L 87.002931 159.676397 
L 87.183345 158.53571 
L 87.363759 160.291484 
L 87.544172 160.146114 
L 87.814793 158.636357 
L 87.995207 159.106032 
L 88.175621 158.457423 
L 88.356034 160.168475 
L 88.446241 160.045466 
L 88.536448 159.911255 
L 88.626655 160.571066 
L 88.807069 159.094872 
L 88.987482 160.179677 
L 89.167896 159.229083 
L 89.258103 158.871216 
L 89.438517 157.271971 
L 89.618931 158.121917 
L 89.709137 158.05479 
L 89.889551 158.625155 
L 89.979758 158.401499 
L 90.160172 154.934629 
L 90.340586 156.35494 
L 90.430792 156.332536 
L 90.611206 156.164805 
L 90.701413 156.3661 
L 90.79162 157.13776 
L 90.881827 156.958826 
L 91.062241 156.008232 
L 91.152447 156.064157 
L 91.332861 155.941148 
L 91.423068 155.874021 
L 91.783896 154.621484 
L 91.874102 154.655048 
L 92.054516 154.923427 
L 92.144723 154.5544 
L 92.23493 154.643846 
L 92.415344 156.120082 
L 92.595757 154.822779 
L 92.685964 154.901066 
L 92.956585 156.041795 
L 93.046792 155.997073 
L 93.227206 156.243091 
L 93.407619 156.343738 
L 93.497826 156.489109 
L 93.67824 157.484468 
L 93.768447 156.914103 
L 93.948861 154.509677 
L 94.129274 154.934629 
L 94.219481 154.800418 
L 94.399895 155.124765 
L 94.580309 154.520837 
L 94.760722 155.046479 
L 94.850929 154.778057 
L 94.941136 154.990554 
L 95.031343 155.907584 
L 95.12155 155.784575 
L 95.211757 155.303699 
L 95.392171 156.377302 
L 95.572584 155.035277 
L 95.662791 155.147126 
L 95.752998 155.482633 
L 95.933412 154.889906 
L 96.023619 155.504994 
L 96.204032 155.270135 
L 96.384446 156.35494 
L 96.56486 155.8405 
L 96.655067 155.58328 
L 96.835481 154.889906 
L 97.106101 156.35494 
L 97.196308 156.276654 
L 97.286515 155.941148 
L 97.466929 155.102361 
L 97.557136 155.236572 
L 97.737549 154.565559 
L 97.917963 155.046479 
L 98.00817 155.214211 
L 98.098377 155.8405 
L 98.188584 152.004561 
L 98.278791 152.116411 
L 98.368997 152.284143 
L 98.459204 152.026922 
L 98.910239 153.134089 
L 99.000446 153.111727 
L 99.180859 153.301863 
L 99.361273 152.910432 
L 99.541687 153.861026 
L 99.722101 153.2683 
L 99.812307 153.346586 
L 99.992721 151.926275 
L 100.082928 151.993402 
L 100.173135 152.194697 
L 100.263342 151.803266 
L 100.353549 152.23942 
L 100.533962 153.458436 
L 100.624169 152.977516 
L 100.714376 153.257098 
L 100.804583 153.01108 
L 100.89479 152.205856 
L 100.984997 152.306504 
L 101.075204 152.440715 
L 101.165411 152.049284 
L 101.255617 152.250622 
L 101.345824 151.892754 
L 101.526238 150.204021 
L 101.706652 150.863874 
L 101.887066 150.42772 
L 101.977272 149.812632 
L 102.067479 149.846153 
L 102.3381 151.926275 
L 102.518514 150.94216 
L 102.608721 150.986883 
L 102.789134 151.624332 
L 102.969548 150.875033 
L 103.059755 150.875033 
L 103.149962 151.009244 
L 103.330376 151.892754 
L 103.510789 153.738017 
L 103.600996 153.245938 
L 103.78141 152.004561 
L 103.871617 152.395992 
L 104.052031 151.792064 
L 104.142237 151.847989 
L 104.322651 152.194697 
L 104.412858 151.993402 
L 104.593272 152.776221 
L 104.773686 151.892754 
L 105.044306 153.111727 
L 105.22472 153.424872 
L 105.405134 151.579609 
L 105.585548 152.418354 
L 105.675754 152.004561 
L 105.765961 152.161134 
L 105.856168 153.313023 
L 105.946375 153.15645 
L 106.036582 151.825627 
L 106.126789 152.071688 
L 106.487616 155.538515 
L 106.66803 155.874021 
L 106.848444 155.739853 
L 107.119064 157.406182 
L 107.209271 157.070676 
L 107.299478 156.835817 
L 107.479892 157.28313 
L 107.570099 157.249609 
L 107.750513 157.663402 
L 107.840719 157.607477 
L 108.021133 157.708125 
L 108.201547 157.1266 
L 108.381961 157.607477 
L 108.562374 157.193685 
L 109.013409 159.441538 
L 109.464443 158.177842 
L 109.644857 158.737005 
L 109.915478 160.269123 
L 110.095891 159.620472 
L 110.186098 160.045466 
L 110.456719 158.490944 
L 110.637133 158.669878 
L 110.817546 159.038948 
L 110.99796 158.737005 
L 111.088167 159.20668 
L 111.268581 158.781728 
L 111.448994 159.944819 
L 111.629408 158.882375 
L 111.719615 158.714643 
L 111.809822 158.31201 
L 111.900029 158.625155 
L 111.990236 158.546869 
L 112.170649 157.104196 
L 112.260856 157.462064 
L 112.351063 157.428543 
L 112.44127 157.629838 
L 112.621684 158.647517 
L 112.802098 158.56923 
L 112.982511 158.882375 
L 113.162925 158.189001 
L 113.343339 158.770526 
L 113.433546 158.468583 
L 113.613959 158.915939 
L 113.794373 157.562754 
L 113.974787 155.874021 
L 114.064994 156.052955 
L 114.155201 155.795735 
L 114.245408 154.69977 
L 114.335614 154.733334 
L 114.516028 157.54035 
L 114.606235 157.462064 
L 114.696442 157.562754 
L 114.786649 157.070676 
L 114.967063 155.907584 
L 115.057269 156.422024 
L 115.147476 156.388461 
L 115.32789 157.271971 
L 115.418097 157.148962 
L 115.508304 156.914103 
L 115.688718 157.629838 
L 115.778924 157.406182 
L 115.869131 157.450905 
L 115.959338 157.640998 
L 116.139752 156.09772 
L 116.229959 156.757531 
L 116.320166 156.567395 
L 116.680993 154.174171 
L 116.7712 154.386626 
L 116.861407 154.789259 
L 117.041821 153.581445 
L 117.132028 154.18533 
L 117.312441 151.512482 
L 117.402648 152.082847 
L 117.492855 152.966357 
L 117.583062 152.776221 
L 117.943889 153.547881 
L 118.21451 155.012915 
L 118.394924 154.330743 
L 118.575338 154.453752 
L 118.665544 154.509677 
L 118.755751 154.789259 
L 118.936165 154.017599 
L 119.206786 154.968192 
L 119.296993 154.610325 
L 119.477406 155.963509 
L 119.567613 155.683928 
L 119.65782 155.471431 
L 119.838234 156.556235 
L 120.018648 155.203051 
L 120.199061 156.187166 
L 120.289268 155.907584 
L 120.469682 156.243091 
L 120.559889 155.706289 
L 120.650096 155.739853 
L 120.920716 157.048314 
L 121.10113 156.198368 
L 121.281544 157.685763 
L 121.461958 155.717449 
L 121.552164 155.974669 
L 121.732578 157.562754 
L 121.822785 157.327896 
L 122.003199 157.987706 
L 122.183613 157.506829 
L 122.273819 157.517989 
L 122.364026 157.260769 
L 122.454233 157.6522 
L 122.634647 162.382787 
L 122.815061 164.015574 
L 122.995475 163.366944 
L 123.175888 165.357578 
L 123.266095 165.167463 
L 123.356302 164.787234 
L 123.536716 165.301674 
L 123.626923 165.201026 
L 123.807336 167.04629 
L 124.077957 166.643678 
L 124.348578 167.896236 
L 124.528991 166.520669 
L 124.619198 166.576572 
L 124.709405 166.531849 
L 124.799612 165.827295 
L 124.889819 165.905581 
L 124.980026 166.006229 
L 125.16044 163.803098 
L 125.340853 164.507653 
L 125.43106 163.892565 
L 125.521267 164.552375 
L 125.701681 166.598955 
L 126.062508 162.740654 
L 126.242922 159.229083 
L 126.60375 155.974669 
L 126.693956 156.243091 
L 126.784163 156.209527 
L 127.054784 155.359581 
L 127.144991 154.889906 
L 127.415611 156.153603 
L 127.505818 156.10888 
L 127.686232 155.683928 
L 127.956853 156.556235 
L 128.04706 157.350257 
L 128.137266 157.070676 
L 128.31768 155.762214 
L 128.498094 156.064157 
L 128.588301 155.974669 
L 128.678508 156.164805 
L 128.949128 157.54035 
L 129.039335 157.506829 
L 129.219749 157.752848 
L 129.400163 157.160121 
L 129.580576 157.76405 
L 129.76099 157.160121 
L 129.851197 157.473266 
L 130.031611 157.160121 
L 130.121818 157.02591 
L 130.212025 156.399663 
L 130.392438 157.562754 
L 130.482645 157.372618 
L 130.572852 157.316694 
L 130.753266 154.341903 
L 130.843473 154.028758 
L 131.023886 154.565559 
L 131.114093 154.44255 
L 131.294507 154.845141 
L 131.384714 154.632686 
L 131.565128 155.158286 
L 131.745541 154.778057 
L 131.835748 155.113563 
L 132.016162 153.313023 
L 132.106369 153.391309 
L 132.286783 153.827463 
L 132.37699 153.916951 
L 132.557403 153.212375 
L 132.64761 153.447234 
L 132.828024 153.190014 
L 133.008438 155.035277 
L 133.279058 153.916951 
L 133.369265 153.648529 
L 133.549679 154.610325 
L 133.730093 153.100525 
L 133.8203 152.910432 
L 134.000713 152.026922 
L 134.09092 152.284143 
L 134.181127 152.12757 
L 134.361541 152.228218 
L 134.541955 150.136937 
L 134.722368 150.718461 
L 134.812575 150.31587 
L 134.992989 150.852672 
L 135.173403 149.767867 
L 135.353816 150.517166 
L 135.53423 151.087531 
L 135.714644 151.948636 
L 135.895058 150.517166 
L 135.985265 151.836829 
L 136.075471 151.769702 
L 136.165678 150.707302 
L 136.346092 152.194697 
L 136.436299 150.662536 
L 136.526506 150.740822 
L 136.70692 151.87035 
L 136.887333 153.682092 
L 136.97754 153.134089 
L 137.067747 152.015763 
L 137.157954 152.060486 
L 137.699195 153.659731 
L 137.789402 153.41367 
L 137.879609 153.055803 
L 138.060023 153.648529 
L 138.240436 153.033441 
L 138.42085 153.491956 
L 138.511057 153.592604 
L 138.691471 154.934629 
L 138.781678 153.961674 
L 138.962091 154.755695 
L 139.052298 154.621484 
L 139.142505 154.95699 
L 139.322919 154.69977 
L 139.413126 154.889906 
L 139.503333 154.778057 
L 139.59354 154.912268 
L 139.683746 154.800418 
L 139.773953 154.990554 
L 139.954367 155.650364 
L 140.044574 155.683928 
L 140.224988 156.477949 
L 140.315195 156.176006 
L 140.405402 156.433226 
L 140.585815 155.773373 
L 140.676022 156.064157 
L 140.856436 155.628003 
L 141.03685 156.310175 
L 141.127057 156.008232 
L 141.217263 156.164805 
L 141.30747 156.556235 
L 141.397677 156.299015 
L 141.578091 154.755695 
L 141.668298 154.968192 
L 141.848712 154.509677 
L 141.938918 154.722132 
L 142.119332 153.234736 
L 142.299746 156.310175 
L 142.389953 155.997073 
L 142.570367 154.29718 
L 142.840987 156.231889 
L 142.931194 156.10888 
L 143.111608 156.422024 
L 143.382228 155.862862 
L 143.562642 156.556235 
L 143.743056 155.773373 
L 144.013677 157.014751 
L 144.19409 158.669878 
L 144.374504 157.350257 
L 144.464711 157.853495 
L 144.554918 157.819974 
L 144.735332 157.339055 
L 145.005952 156.041795 
L 145.186366 157.372618 
L 145.36678 156.008232 
L 145.547193 157.708125 
L 145.6374 157.059474 
L 145.727607 157.093037 
L 145.817814 157.506829 
L 146.088435 155.952307 
L 146.539469 157.6522 
L 146.629676 157.148962 
L 146.719883 157.238407 
L 146.81009 157.875857 
L 146.990503 153.122929 
L 147.08071 153.078164 
L 147.261124 154.688611 
L 147.441538 153.324225 
L 147.621952 154.789259 
L 147.802365 154.107044 
L 147.892572 154.207692 
L 148.072986 154.610325 
L 148.163193 154.599123 
L 148.2534 154.744493 
L 148.433813 154.420189 
L 148.52402 154.5544 
L 148.704434 153.715613 
L 148.794641 154.017599 
L 148.884848 154.5544 
L 149.065262 153.402511 
L 149.606503 155.997073 
L 149.786917 154.520837 
L 149.877123 155.929946 
L 149.96733 155.8405 
L 150.057537 154.643846 
L 150.237951 156.254293 
L 150.328158 155.818139 
L 150.418365 155.605642 
L 150.508572 156.276654 
L 150.598778 156.131241 
L 150.688985 155.918786 
L 150.779192 156.09772 
L 150.959606 154.587921 
L 151.049813 154.632686 
L 151.230227 154.162969 
L 151.41064 155.102361 
L 151.591054 154.643846 
L 151.861675 156.052955 
L 151.951882 156.086518 
L 152.132295 155.706289 
L 152.312709 154.599123 
L 152.493123 155.628003 
L 152.673537 154.196532 
L 153.304985 156.399663 
L 153.485398 156.008232 
L 153.575605 156.332536 
L 153.936433 155.079999 
L 154.207053 153.335384 
L 154.29726 153.380149 
L 154.387467 153.044643 
L 154.567881 150.94216 
L 154.748295 152.094049 
L 154.928708 150.438879 
L 155.018915 157.38382 
L 155.109122 157.081835 
L 155.289536 155.706289 
L 155.379743 156.209527 
L 155.46995 156.153603 
L 155.830777 155.728651 
L 156.011191 156.09772 
L 156.101398 156.008232 
L 156.281812 156.35494 
L 156.462225 156.030593 
L 156.642639 156.712808 
L 156.823053 155.918786 
L 156.91326 156.164805 
L 157.093673 155.247774 
L 157.364294 155.818139 
L 157.454501 155.929946 
L 157.725122 157.28313 
L 157.905535 155.549717 
L 158.085949 156.511513 
L 158.266363 155.717449 
L 158.446777 155.907584 
L 158.717397 157.685763 
L 158.807604 157.462064 
L 159.078225 156.019434 
L 159.168432 156.131241 
L 159.348845 156.064157 
L 159.439052 156.075359 
L 159.619466 155.504994 
L 159.709673 156.019434 
L 159.79988 155.739853 
L 159.980294 154.599123 
L 160.0705 155.06884 
L 160.250914 154.285978 
L 160.341121 154.576761 
L 160.521535 155.493792 
L 160.611742 155.393144 
L 160.701949 155.572078 
L 160.882362 154.979352 
L 160.972569 155.538515 
L 161.062776 155.460229 
L 161.24319 154.587921 
L 161.333397 155.06884 
L 161.423604 154.979352 
L 161.51381 154.766897 
L 161.694224 155.359581 
L 161.784431 155.214211 
L 161.874638 154.755695 
L 161.964845 154.889906 
L 162.145259 154.610325 
L 162.325672 156.041795 
L 162.506086 155.952307 
L 162.596293 155.907584 
L 162.6865 155.706289 
L 162.866914 155.862862 
L 162.95712 155.59444 
L 163.047327 155.683928 
L 163.227741 160.716479 
L 163.317948 161.409831 
L 163.408155 161.353928 
L 163.498362 160.839488 
L 163.588569 160.861849 
L 164.039603 162.080844 
L 164.12981 161.913091 
L 164.220017 162.047281 
L 164.40043 163.769535 
L 164.580844 163.590601 
L 164.671051 163.691248 
L 164.941672 164.384622 
L 165.031879 164.362261 
L 165.302499 162.986694 
L 165.392706 163.120905 
L 165.57312 162.516998 
L 165.753534 161.465756 
L 165.933947 161.611127 
L 166.024154 161.298003 
L 166.114361 161.857166 
L 166.294775 164.35108 
L 166.475189 164.317538 
L 166.565395 164.071499 
L 166.836016 159.97834 
L 166.926223 159.97834 
L 167.106637 158.267288 
L 167.28705 159.094872 
L 167.377257 158.927098 
L 167.557671 158.636357 
L 167.738085 157.76405 
L 167.918499 158.848812 
L 168.008705 158.546869 
L 168.189119 158.860014 
L 168.279326 158.591592 
L 168.73036 159.20668 
L 169.000981 158.356776 
L 169.091188 158.56923 
L 169.181395 158.390297 
L 169.361809 157.316694 
L 169.542222 158.804089 
L 169.632429 158.580432 
L 169.722636 157.898218 
L 169.812843 158.356776 
L 169.90305 158.289649 
L 169.993257 157.428543 
L 170.17367 158.401499 
L 170.534498 155.985871 
L 170.624705 155.59444 
L 170.714912 155.929946 
L 170.895325 155.728651 
L 171.075739 156.209527 
L 171.165946 156.041795 
L 171.34636 152.373631 
L 171.526774 153.715613 
L 171.707187 153.190014 
L 171.797394 153.637369 
L 171.887601 153.592604 
L 171.977808 153.346586 
L 172.068015 153.391309 
L 172.158222 153.402511 
L 172.338635 152.910432 
L 172.519049 153.201216 
L 172.609256 153.122929 
L 172.699463 153.245938 
L 173.06029 152.105209 
L 173.240704 152.295345 
L 173.421118 151.948636 
L 173.601532 153.793899 
L 173.781945 152.12757 
L 174.323187 154.330743 
L 174.5036 153.995237 
L 174.684014 154.610325 
L 174.774221 154.319541 
L 174.954635 154.822779 
L 175.135049 152.977516 
L 175.225256 153.447234 
L 175.315462 153.402511 
L 175.405669 153.570243 
L 175.495876 154.464912 
L 175.586083 154.241255 
L 175.67629 153.100525 
L 175.766497 153.134089 
L 175.856704 153.704454 
L 176.037117 153.234736 
L 176.217531 154.095885 
L 176.397945 153.491956 
L 176.578359 153.715613 
L 176.848979 153.324225 
L 176.939186 153.861026 
L 177.029393 153.805101 
L 177.1196 153.659731 
L 177.300014 154.073523 
L 177.390221 153.916951 
L 177.570634 154.766897 
L 177.751048 154.230053 
L 177.931462 154.397828 
L 178.111876 154.230053 
L 178.292289 156.064157 
L 178.56291 154.599123 
L 178.653117 154.867545 
L 178.743324 154.789259 
L 178.923737 154.230053 
L 179.104151 154.945831 
L 179.194358 154.666207 
L 179.284565 154.744493 
L 179.464979 154.643846 
L 179.555186 154.95699 
L 179.735599 154.632686 
L 179.916013 155.258933 
L 180.00622 155.180647 
L 180.096427 155.024075 
L 180.276841 156.310175 
L 180.457254 155.639205 
L 180.547461 155.974669 
L 180.637668 155.929946 
L 180.818082 156.198368 
L 180.908289 156.09772 
L 181.178909 154.386626 
L 181.359323 154.520837 
L 181.44953 154.341903 
L 181.539737 154.643846 
L 181.720151 156.477949 
L 181.810357 156.444386 
L 182.080978 155.795735 
L 182.171185 155.605642 
L 182.261392 155.661566 
L 182.351599 155.918786 
L 182.441806 155.616801 
L 182.622219 154.330743 
L 183.073254 154.69977 
L 183.163461 154.274819 
L 183.253667 154.29718 
L 183.434081 155.493792 
L 183.614495 155.180647 
L 183.975322 154.789259 
L 184.065529 154.677409 
L 184.155736 154.95699 
L 184.245943 154.69977 
L 184.33615 154.822779 
L 184.516564 155.751012 
L 184.606771 156.019434 
L 184.696977 156.914103 
L 184.787184 156.802254 
L 184.967598 154.856343 
L 185.057805 154.95699 
L 185.238219 154.621484 
L 185.77946 155.516153 
L 185.869667 155.381985 
L 185.959874 154.778057 
L 186.050081 154.867545 
L 186.230494 155.773373 
L 186.501115 154.778057 
L 186.591322 154.263617 
L 186.681529 154.375466 
L 186.771736 154.755695 
L 186.952149 154.431391 
L 187.132563 155.650364 
L 187.312977 154.420189 
L 187.403184 154.766897 
L 187.493391 154.476114 
L 187.854218 154.979352 
L 188.034632 154.710972 
L 188.215046 156.3661 
L 188.305252 156.220729 
L 188.485666 154.677409 
L 188.575873 154.878704 
L 188.756287 155.728651 
L 188.846494 155.449069 
L 189.026907 155.616801 
L 189.117114 155.572078 
L 189.207321 155.717449 
L 189.387735 155.706289 
L 189.477942 155.985871 
L 189.658356 155.33722 
L 190.199597 157.484468 
L 190.650631 155.717449 
L 190.740838 155.572078 
L 191.101666 157.786411 
L 191.282079 157.171323 
L 191.372286 157.417341 
L 191.642907 156.019434 
L 191.733114 156.276654 
L 191.913527 155.706289 
L 192.093941 156.287813 
L 192.184148 156.422024 
L 192.364562 157.081835 
L 192.454769 157.093037 
L 192.635183 157.271971 
L 192.725389 157.305534 
L 192.815596 157.148962 
L 192.99601 155.929946 
L 193.086217 156.422024 
L 193.176424 156.343738 
L 193.447044 154.968192 
L 193.627458 155.985871 
L 193.717665 155.818139 
L 193.898079 156.321377 
L 193.988286 156.220729 
L 194.168699 157.39498 
L 194.349113 156.668042 
L 194.43932 157.238407 
L 194.529527 157.182483 
L 194.619734 156.925263 
L 194.800148 157.439703 
L 195.160975 155.33722 
L 195.341389 154.587921 
L 195.521803 154.666207 
L 195.702216 156.377302 
L 195.792423 155.706289 
L 195.88263 155.762214 
L 195.972837 155.818139 
L 196.063044 155.191849 
L 196.153251 155.415506 
L 196.243458 156.008232 
L 196.333664 155.695087 
L 196.423871 155.829298 
L 196.514078 156.220729 
L 196.694492 155.404346 
L 196.874906 156.332536 
L 197.055319 155.941148 
L 197.145526 156.321377 
L 197.235733 156.287813 
L 197.32594 156.019434 
L 197.416147 156.064157 
L 197.506354 155.918786 
L 197.686768 154.710972 
L 197.776974 154.755695 
L 198.228009 154.386626 
L 198.318216 154.587921 
L 198.408423 154.118246 
L 198.588836 152.586128 
L 198.76925 153.614965 
L 198.949664 152.865709 
L 199.400698 154.990554 
L 199.490905 154.800418 
L 199.671319 153.424872 
L 199.851733 154.923427 
L 200.122353 153.290661 
L 200.21256 153.100525 
L 200.392974 154.789259 
L 200.573388 153.872186 
L 200.663594 155.012915 
L 200.844008 152.720296 
L 201.024422 155.135924 
L 201.204836 153.905749 
L 201.385249 154.632686 
L 201.475456 154.330743 
L 201.565663 154.408987 
L 201.746077 154.69977 
L 201.836284 154.69977 
L 202.016698 154.867545 
L 202.197111 154.968192 
L 202.377525 154.710972 
L 202.557939 154.722132 
L 202.648146 154.487273 
L 202.738353 154.778057 
L 202.918766 155.773373 
L 203.008973 155.616801 
L 203.09918 156.008232 
L 203.189387 155.929946 
L 203.279594 155.33722 
L 203.460008 155.941148 
L 203.640421 154.800418 
L 203.820835 162.326883 
L 203.911042 162.539359 
L 204.001249 163.18801 
L 204.091456 163.154447 
L 204.181663 162.886046 
L 204.452283 164.429366 
L 204.54249 164.35108 
L 204.632697 164.530014 
L 204.813111 163.926107 
L 204.993524 166.073334 
L 205.083731 165.51415 
L 205.264145 166.598955 
L 205.444559 165.737828 
L 205.624973 166.699603 
L 205.895593 165.536511 
L 206.076007 165.782551 
L 206.256421 164.205688 
L 206.436834 164.474089 
L 206.617248 163.624164 
L 206.887869 166.442383 
L 206.978076 165.793731 
L 207.068283 165.905581 
L 207.158489 165.737828 
L 207.42911 160.839488 
L 207.699731 158.244926 
L 207.789938 158.669878 
L 207.880144 158.737005 
L 208.150765 158.099556 
L 208.331179 157.361416 
L 208.421386 157.484468 
L 208.692006 158.737005 
L 208.87242 157.294332 
L 208.962627 157.506829 
L 209.143041 158.468583 
L 209.323454 158.815291 
L 209.503868 157.081835 
L 209.594075 157.294332 
L 209.684282 157.663402 
L 209.954903 157.070676 
L 210.04511 157.361416 
L 210.225523 158.79293 
L 210.31573 158.043631 
L 210.405937 158.513306 
L 210.496144 158.367935 
L 210.586351 157.473266 
L 210.766765 158.558071 
L 210.947178 157.361416 
L 211.037385 157.875857 
L 211.217799 157.271971 
L 211.308006 157.54035 
L 211.48842 157.339055 
L 211.668833 157.372618 
L 211.75904 157.361416 
L 211.939454 153.078164 
L 212.029661 153.436032 
L 212.119868 154.353105 
L 212.210075 154.196532 
L 212.300281 153.995237 
L 212.480695 154.789259 
L 212.570902 154.487273 
L 212.751316 154.822779 
L 212.93173 154.364264 
L 213.021936 154.81162 
L 213.112143 154.643846 
L 213.292557 153.536679 
L 213.382764 153.536679 
L 213.653385 153.313023 
L 213.743591 153.581445 
L 213.924005 152.865709 
L 214.104419 154.934629 
L 214.194626 154.923427 
L 214.37504 153.313023 
L 214.465246 153.715613 
L 214.555453 154.688611 
L 214.64566 154.397828 
L 214.735867 153.581445 
L 214.826074 154.017599 
L 214.916281 153.995237 
L 215.006488 153.15645 
L 215.096695 153.223577 
L 215.186901 153.491956 
L 215.367315 153.212375 
L 215.457522 153.581445 
L 215.547729 153.514318 
L 215.81835 151.512482 
L 216.08897 152.295345 
L 216.179177 152.228218 
L 216.269384 151.881552 
L 216.359591 151.970998 
L 216.449798 152.250622 
L 216.630211 151.892754 
L 216.810625 153.402511 
L 216.900832 153.301863 
L 217.081246 152.228218 
L 217.26166 153.581445 
L 217.442073 151.825627 
L 217.53228 152.921592 
L 217.622487 152.854507 
L 217.712694 152.105209 
L 218.073521 153.760379 
L 218.163728 154.196532 
L 218.344142 153.134089 
L 218.524556 153.961674 
L 218.614763 153.469595 
L 218.795176 155.079999 
L 218.885383 154.901066 
L 219.065797 154.587921 
L 219.246211 154.889906 
L 219.426625 153.357745 
L 219.607038 154.621484 
L 219.787452 154.285978 
L 219.877659 154.576761 
L 219.967866 154.386626 
L 220.14828 154.889906 
L 220.328693 154.453752 
L 220.509107 155.124765 
L 220.689521 154.375466 
L 220.869935 155.024075 
L 220.960141 154.632686 
L 221.050348 154.945831 
L 221.230762 155.952307 
L 221.320969 155.874021 
L 221.501383 156.578597 
L 221.59159 156.35494 
L 221.772003 155.113563 
L 221.86221 155.471431 
L 221.952417 155.247774 
L 222.042624 154.397828 
L 222.132831 154.543198 
L 222.313245 156.410822 
L 222.493658 155.751012 
L 222.583865 155.885223 
L 222.764279 154.587921 
L 222.854486 154.643846 
L 223.125106 154.464912 
L 223.30552 153.201216 
L 223.485934 154.889906 
L 223.576141 154.632686 
L 223.666348 154.688611 
L 223.846761 154.464912 
L 224.117382 156.019434 
L 224.297796 154.81162 
L 224.47821 155.929946 
L 224.658623 154.509677 
L 224.839037 156.120082 
L 225.019451 154.476114 
L 225.290071 156.981187 
L 225.380278 156.791094 
L 225.560692 155.706289 
L 225.741106 156.433226 
L 225.831313 156.231889 
L 226.011726 155.348422 
L 226.101933 155.997073 
L 226.282347 155.303699 
L 226.462761 157.13776 
L 226.643175 155.818139 
L 226.823588 156.466747 
L 227.094209 155.974669 
L 227.274623 156.243091 
L 227.36483 156.131241 
L 227.455037 156.198368 
L 227.545243 156.064157 
L 227.725657 157.372618 
L 227.906071 156.030593 
L 227.996278 157.104196 
L 228.086485 152.75386 
L 228.176692 152.876869 
L 228.357105 153.570243 
L 228.447312 153.346586 
L 228.717933 154.03996 
L 228.988553 154.599123 
L 229.168967 154.18533 
L 229.349381 155.616801 
L 229.529795 154.599123 
L 229.710208 155.079999 
L 229.980829 154.397828 
L 230.071036 154.845141 
L 230.25145 154.218894 
L 230.702484 156.209527 
L 230.882898 155.739853 
L 231.063312 156.120082 
L 231.333932 155.717449 
L 231.424139 155.728651 
L 231.69476 157.38382 
L 231.784967 157.014751 
L 231.96538 157.361416 
L 232.145794 155.751012 
L 232.236001 155.795735 
L 232.416415 156.198368 
L 232.777242 155.628003 
L 233.13807 156.321377 
L 233.228277 156.220729 
L 233.318483 156.019434 
L 233.498897 154.218894 
L 233.589104 154.744493 
L 233.679311 156.09772 
L 233.859725 154.420189 
L 233.949932 154.520837 
L 234.040138 154.576761 
L 234.220552 154.44255 
L 234.310759 154.621484 
L 234.491173 155.806937 
L 234.58138 154.744493 
L 234.761793 156.455588 
L 234.942207 154.118246 
L 235.122621 155.8405 
L 235.303035 154.341903 
L 235.393242 154.174171 
L 235.573655 152.955155 
L 235.663862 153.01108 
L 235.844276 151.635534 
L 235.934483 152.12757 
L 236.114897 151.512482 
L 236.205103 155.079999 
L 236.29531 154.945831 
L 236.475724 153.245938 
L 236.565931 153.447234 
L 236.926758 152.675574 
L 237.107172 153.592604 
L 237.197379 153.301863 
L 237.287586 153.648529 
L 237.468 154.69977 
L 237.648413 153.905749 
L 237.73862 153.715613 
L 237.828827 153.234736 
L 238.009241 153.547881 
L 238.099448 153.15645 
L 238.189655 153.436032 
L 238.279862 153.044643 
L 238.460275 151.881552 
L 238.550482 151.769702 
L 238.730896 149.946801 
L 238.91131 150.606654 
L 239.091723 149.018611 
L 239.272137 150.42772 
L 239.452551 149.197545 
L 239.542758 149.342915 
L 239.723172 149.242268 
L 239.813378 149.443563 
L 239.993792 152.284143 
L 240.083999 151.635534 
L 240.174206 149.622497 
L 240.264413 149.924439 
L 240.35462 150.908597 
L 240.535033 148.951484 
L 240.62524 149.208704 
L 240.805654 149.219906 
L 240.895861 150.282307 
L 240.986068 150.148139 
L 241.076275 148.839677 
L 241.166482 149.074493 
L 241.346895 149.946801 
L 241.527309 150.237584 
L 241.707723 149.14162 
L 241.888137 150.68494 
L 242.06855 148.62718 
L 242.158757 149.443563 
L 242.339171 147.821956 
L 242.519585 150.31587 
L 242.699998 149.342915 
L 242.790205 149.812632 
L 242.970619 149.432361 
L 243.060826 149.958003 
L 243.151033 149.354075 
L 243.331447 147.687745 
L 243.51186 149.376479 
L 243.782481 147.866679 
L 244.143308 146.849001 
L 244.233515 146.435209 
L 244.323722 143.639352 
L 244.413929 160.503982 
L 244.594343 53.568 
L 244.864963 295.488 
L 244.95517 254.355348 
L 245.135584 284.561792 
L 245.225791 267.551792 
L 245.315998 270.582507 
L 245.496412 269.296407 
L 245.586619 268.882615 
L 245.947446 263.917169 
L 246.037653 264.297419 
L 246.849515 251.581852 
L 247.210342 246.079605 
L 247.300549 246.649949 
L 247.390756 246.571662 
L 247.661377 242.746947 
L 248.292825 225.524449 
L 248.383032 225.345515 
L 248.473239 225.904699 
L 249.01448 218.568348 
L 249.104687 218.915035 
L 249.555721 214.363382 
L 249.645928 214.240373 
L 249.736135 213.916048 
L 250.547997 203.929253 
L 250.638204 204.007539 
L 250.818617 204.566702 
L 251.179445 201.368233 
L 251.359859 200.79789 
L 251.810893 194.747639 
L 251.9011 194.960137 
L 251.991307 194.311485 
L 252.17172 192.410319 
L 252.261927 193.08131 
L 252.352134 192.387936 
L 252.532548 170.099367 
L 252.622755 170.121728 
L 252.712962 171.117045 
L 252.893375 170.423692 
L 253.073789 171.620304 
L 253.163996 170.390129 
L 253.254203 170.457234 
L 253.34441 170.859846 
L 253.524824 168.47776 
L 253.61503 169.338887 
L 253.705237 169.11523 
L 253.885651 167.885034 
L 253.975858 167.717281 
L 254.156272 165.279313 
L 254.336685 166.688422 
L 254.426892 166.431202 
L 254.517099 165.189846 
L 254.607306 165.346397 
L 254.697513 166.666039 
L 254.78772 166.54303 
L 254.877927 165.469427 
L 254.968134 165.603617 
L 255.05834 165.704265 
L 255.328961 163.825459 
L 255.870202 160.380973 
L 256.050616 159.150797 
L 256.140823 159.765885 
L 256.321237 157.115398 
L 256.411444 157.294332 
L 256.682064 158.334372 
L 256.772271 157.942983 
L 256.952685 156.254293 
L 257.133099 157.048314 
L 257.313512 156.61216 
L 257.493926 157.104196 
L 257.94496 154.565559 
L 258.125374 156.120082 
L 258.215581 155.773373 
L 258.305788 154.666207 
L 258.395995 155.035277 
L 258.576409 156.131241 
L 258.666615 156.35494 
L 258.756822 155.997073 
L 258.937236 154.375466 
L 259.027443 154.677409 
L 259.207857 154.364264 
L 259.38827 155.06884 
L 259.568684 154.196532 
L 259.658891 154.274819 
L 259.839305 154.44255 
L 259.929512 154.230053 
L 260.109925 153.458436 
L 260.290339 156.287813 
L 260.380546 155.616801 
L 260.470753 153.972833 
L 260.56096 146.379284 
L 260.651167 146.625344 
L 260.741374 146.625344 
L 260.921787 147.74367 
L 261.192408 146.513495 
L 261.282615 146.647706 
L 261.372822 147.363441 
L 261.553235 146.110904 
L 261.643442 146.446411 
L 261.823856 146.97201 
L 261.914063 148.00089 
L 262.00427 147.933806 
L 262.184684 146.535856 
L 262.27489 146.781917 
L 262.455304 145.059663 
L 262.545511 145.205033 
L 262.725925 145.037301 
L 262.996546 146.412847 
L 263.086752 146.535856 
L 263.267166 144.701795 
L 263.357373 145.350446 
L 263.537787 143.382132 
L 263.718201 144.478138 
L 263.898614 141.81645 
L 263.988821 142.44274 
L 264.079028 142.386815 
L 264.169235 141.827652 
L 264.439856 142.319731 
L 264.710476 144.030783 
L 264.89089 142.990743 
L 265.071304 144.411012 
L 265.251717 143.505141 
L 265.341924 144.299205 
L 265.522338 142.84533 
L 265.702752 144.433373 
L 265.883166 147.150944 
L 265.973372 147.005573 
L 266.063579 146.468772 
L 266.243993 147.117423 
L 266.424407 146.479974 
L 266.604821 147.475291 
L 266.695027 146.983212 
L 266.785234 147.22923 
L 266.875441 147.967369 
L 266.965648 147.821956 
L 267.146062 146.390486 
L 267.236269 146.558218 
L 267.416682 147.922604 
L 267.506889 147.698947 
L 267.687303 148.280472 
L 267.867717 146.703631 
L 268.048131 148.336396 
L 268.138337 148.11274 
L 268.318751 149.119259 
L 268.499165 146.960851 
L 268.589372 148.537692 
L 268.679579 144.466936 
L 268.769786 144.880729 
L 268.859992 145.193874 
L 269.040406 143.784765 
L 269.22082 144.455734 
L 269.311027 143.829487 
L 269.491441 145.41753 
L 269.671854 143.35977 
L 269.762061 143.784765 
L 270.032682 146.04382 
L 270.303302 145.137949 
L 270.483716 145.630028 
L 270.66413 145.171512 
L 270.754337 145.193874 
L 270.844544 145.037301 
L 271.024957 146.893724 
L 271.115164 146.602983 
L 271.205371 146.323402 
L 271.385785 148.381119 
L 271.566199 146.155627 
L 271.746612 147.564736 
L 271.927026 146.155627 
L 272.017233 146.334561 
L 272.197647 148.146303 
L 272.287854 148.00089 
L 272.378061 147.575938 
L 272.558474 148.51533 
L 272.829095 146.703631 
L 273.099716 147.967369 
L 273.280129 147.452929 
L 273.460543 147.956167 
L 273.55075 147.564736 
L 273.640957 147.866679 
L 273.821371 148.77255 
L 273.911577 148.828475 
L 274.001784 148.750189 
L 274.182198 148.135101 
L 274.272405 148.727827 
L 274.362612 148.537692 
L 274.543026 146.602983 
L 274.813646 148.135101 
L 274.903853 147.956167 
L 275.354887 150.259946 
L 275.535301 148.783752 
L 275.625508 149.387638 
L 275.896129 147.22923 
L 276.166749 144.187355 
L 276.43737 144.399852 
L 276.617784 145.372808 
L 276.707991 145.104386 
L 276.798197 157.875857 
L 276.888404 157.573914 
L 277.068818 155.672726 
L 277.159025 155.784575 
L 277.519852 154.856343 
L 277.700266 156.10888 
L 277.790473 156.075359 
L 277.970887 156.533874 
L 278.151301 155.628003 
L 278.241507 155.751012 
L 278.331714 156.120082 
L 278.872956 154.576761 
L 279.143576 155.035277 
L 279.32399 154.901066 
L 279.504404 156.209527 
L 279.684817 154.565559 
L 279.865231 156.3661 
L 280.045645 154.543198 
L 280.135852 154.532039 
L 280.586886 156.399663 
L 280.677093 156.220729 
L 280.947714 154.800418 
L 281.128128 154.789259 
L 281.308541 154.207692 
L 281.579162 155.035277 
L 281.759576 153.570243 
L 281.849783 154.476114 
L 281.939989 154.084683 
L 282.030196 153.055803 
L 282.21061 154.845141 
L 282.300817 154.308339 
L 282.391024 154.397828 
L 282.481231 155.079999 
L 282.661644 154.44255 
L 282.842058 154.979352 
L 282.932265 154.565559 
L 283.022472 155.012915 
L 283.202886 156.489109 
L 283.383299 155.963509 
L 283.65392 156.131241 
L 283.924541 154.532039 
L 284.195161 156.09772 
L 284.465782 154.688611 
L 284.555989 154.766897 
L 284.646196 155.124765 
L 284.826609 154.81162 
L 285.007023 163.165628 
L 285.09723 163.232733 
L 285.367851 162.830121 
L 285.818885 162.964332 
L 285.909092 162.897227 
L 286.179713 165.324036 
L 286.269919 165.145102 
L 286.360126 165.279313 
L 286.450333 165.055635 
L 286.54054 165.189846 
L 286.720954 166.375277 
L 286.901368 165.279313 
L 286.991574 165.279313 
L 287.171988 164.541195 
L 287.532816 163.389306 
L 287.623023 163.57942 
L 287.713229 163.892565 
L 287.803436 163.557059 
L 287.893643 164.194508 
L 288.074057 166.207524 
L 288.164264 165.659542 
L 288.254471 165.704265 
L 288.344678 165.581256 
L 288.615298 160.895413 
L 288.705505 161.499298 
L 288.976126 159.038948 
L 289.066333 160.078987 
L 289.156539 159.888894 
L 289.336953 158.748164 
L 289.517367 158.435062 
L 289.697781 158.893577 
L 289.878194 158.602794 
L 289.968401 158.737005 
L 290.148815 158.546869 
L 290.509643 160.202039 
L 290.599849 159.765885 
L 290.780263 158.379137 
L 290.87047 158.703441 
L 291.050884 157.808772 
L 291.141091 157.931781 
L 291.321504 159.475102 
L 291.501918 158.927098 
L 291.592125 159.374454 
L 291.682332 159.284966 
L 291.772539 158.893577 
L 291.862746 158.949459 
L 291.952953 159.08367 
L 292.043159 158.949459 
L 292.223573 157.640998 
L 292.31378 156.791094 
L 292.403987 156.813456 
L 292.494194 157.271971 
L 292.674608 156.533874 
L 292.855021 157.473266 
L 292.945228 157.316694 
L 293.125642 153.503158 
L 293.306056 155.214211 
L 293.396263 155.079999 
L 293.486469 154.643846 
L 293.666883 155.504994 
L 293.847297 154.789259 
L 293.937504 154.95699 
L 294.117918 154.140608 
L 294.298331 154.990554 
L 294.659159 153.637369 
L 294.749366 153.078164 
L 294.839573 153.212375 
L 295.019986 153.972833 
L 295.110193 153.279459 
L 295.2004 153.503158 
L 295.380814 155.270135 
L 295.561228 154.420189 
L 295.741641 154.341903 
L 295.922055 154.688611 
L 296.012262 154.643846 
L 296.373089 155.236572 
L 296.463296 155.079999 
L 296.553503 155.33722 
L 296.64371 156.052955 
L 296.733917 155.728651 
L 296.914331 153.391309 
L 297.094744 154.833981 
L 297.184951 154.576761 
L 297.365365 154.945831 
L 297.545779 153.547881 
L 297.726193 154.509677 
L 297.8164 153.961674 
L 297.906606 154.174171 
L 297.996813 154.990554 
L 298.08702 154.889906 
L 298.267434 154.341903 
L 298.447848 154.778057 
L 298.628261 154.666207 
L 298.718468 154.800418 
L 298.898882 154.610325 
L 298.989089 155.012915 
L 299.079296 154.912268 
L 299.169503 154.934629 
L 299.25971 155.650364 
L 299.349916 155.560919 
L 299.53033 154.5544 
L 299.620537 154.889906 
L 299.710744 154.710972 
L 299.800951 154.778057 
L 300.071571 156.668042 
L 300.161778 156.176006 
L 300.342192 154.901066 
L 300.432399 155.728651 
L 300.522606 155.415506 
L 300.612813 154.408987 
L 300.883433 155.985871 
L 300.97364 155.874021 
L 301.063847 155.795735 
L 301.154054 155.885223 
L 301.334468 156.310175 
L 301.424675 156.187166 
L 301.695295 157.238407 
L 301.785502 157.249609 
L 301.965916 158.244926 
L 302.056123 158.110715 
L 302.236536 157.506829 
L 302.597364 158.893577 
L 303.048398 156.075359 
L 303.138605 156.231889 
L 303.499433 157.741688 
L 303.58964 157.517989 
L 303.770053 157.79757 
L 303.950467 157.629838 
L 304.130881 157.573914 
L 304.221088 157.819974 
L 304.311295 157.428543 
L 304.491708 155.639205 
L 304.581915 155.896382 
L 304.762329 155.717449 
L 304.852536 156.041795 
L 305.03295 155.270135 
L 305.213363 156.679244 
L 305.30357 156.62332 
L 305.483984 156.310175 
L 305.574191 156.265452 
L 305.754605 156.76869 
L 306.115432 156.142443 
L 306.205639 156.3661 
L 306.386053 157.775209 
L 306.47626 158.714643 
L 306.566466 158.457423 
L 306.74688 157.1266 
L 306.837087 157.428543 
L 307.017501 157.003549 
L 307.288121 157.685763 
L 307.378328 157.54035 
L 307.558742 157.842336 
L 307.829363 157.093037 
L 308.009776 157.741688 
L 308.280397 157.372618 
L 308.460811 156.321377 
L 308.641225 157.674561 
L 308.731431 157.428543 
L 308.911845 157.887059 
L 309.092259 156.970028 
L 309.182466 157.327896 
L 309.272673 150.606654 
L 309.36288 150.6961 
L 309.453086 150.640175 
L 309.723707 150.919756 
L 309.813914 150.830311 
L 309.904121 151.053967 
L 310.084535 151.9822 
L 310.264948 150.360593 
L 310.355155 150.774386 
L 310.535569 152.038124 
L 310.625776 151.825627 
L 310.80619 152.205856 
L 310.986603 151.937477 
L 311.167017 151.926275 
L 311.257224 152.23942 
L 311.347431 152.026922 
L 311.437638 151.389473 
L 311.527845 151.825627 
L 311.708258 153.201216 
L 311.798465 153.201216 
L 311.978879 153.793899 
L 312.159293 153.15645 
L 312.2495 153.313023 
L 312.339706 153.178812 
L 312.429913 152.697935 
L 312.52012 152.731498 
L 312.700534 153.637369 
L 312.880948 154.599123 
L 312.971155 154.18533 
L 313.151568 154.487273 
L 313.331982 152.686776 
L 313.512396 153.178812 
L 313.602603 152.932794 
L 313.69281 152.988718 
L 313.873223 153.245938 
L 314.143844 153.033441 
L 314.324258 153.749177 
L 314.414465 153.682092 
L 314.594878 154.364264 
L 314.775292 152.988718 
L 314.865499 153.391309 
L 314.955706 153.335384 
L 315.13612 151.780904 
L 315.226327 151.847989 
L 315.40674 152.89923 
L 315.496947 152.999878 
L 315.857775 154.576761 
L 315.947982 154.5544 
L 316.128395 153.290661 
L 316.308809 154.498475 
L 316.399016 154.107044 
L 316.57943 154.833981 
L 316.85005 153.190014 
L 317.210878 151.881552 
L 317.301085 151.657895 
L 317.481498 156.410822 
L 317.661912 154.5544 
L 317.752119 154.610325 
L 317.932533 154.062321 
L 318.02274 154.230053 
L 318.112947 154.118246 
L 318.203153 154.263617 
L 318.383567 155.079999 
L 318.473774 154.330743 
L 318.654188 156.209527 
L 318.744395 155.59444 
L 318.834602 155.236572 
L 318.924808 156.052955 
L 319.015015 155.650364 
L 319.105222 154.710972 
L 319.195429 154.901066 
L 319.46605 155.628003 
L 319.646463 154.755695 
L 319.73667 154.856343 
L 319.917084 155.359581 
L 320.097498 155.918786 
L 320.277912 154.587921 
L 320.458325 156.153603 
L 320.638739 154.464912 
L 320.728946 154.599123 
L 321.17998 156.489109 
L 321.450601 155.795735 
L 321.540808 155.706289 
L 321.631015 155.874021 
L 321.811428 154.778057 
L 321.901635 155.102361 
L 322.082049 156.332536 
L 322.172256 156.142443 
L 322.35267 155.236572 
L 322.442877 155.963509 
L 322.533083 155.818139 
L 322.62329 155.135924 
L 322.803704 156.10888 
L 322.984118 155.605642 
L 323.074325 156.10888 
L 323.344945 154.095885 
L 323.435152 154.464912 
L 323.525359 154.498475 
L 323.615566 154.755695 
L 323.79598 156.131241 
L 323.976393 155.907584 
L 324.247014 156.690446 
L 324.427428 154.453752 
L 324.517635 154.621484 
L 324.698048 156.276654 
L 324.878462 156.10888 
L 325.149083 155.907584 
L 325.23929 156.008232 
L 325.419703 155.683928 
L 325.600117 163.657706 
L 325.690324 164.127402 
L 325.780531 164.105041 
L 325.870738 163.993213 
L 326.051152 162.66239 
L 326.502186 164.328719 
L 326.592393 164.09386 
L 326.772807 165.525331 
L 326.863013 165.346397 
L 326.95322 164.85434 
L 327.043427 164.99971 
L 327.223841 166.218705 
L 327.314048 166.118057 
L 327.404255 165.816114 
L 327.494462 165.872018 
L 327.584668 166.02859 
L 327.674875 165.883198 
L 328.216117 163.344561 
L 328.486737 163.970851 
L 328.667151 165.502969 
L 329.027978 162.953152 
L 329.208392 160.559906 
L 329.298599 160.325048 
L 329.479013 158.580432 
L 329.56922 158.602794 
L 329.749633 159.944819 
L 330.110461 157.450905 
L 330.200668 158.345574 
L 330.290875 158.177842 
L 330.381082 157.182483 
L 330.471288 157.417341 
L 330.561495 157.719284 
L 330.651702 157.562754 
L 330.741909 157.887059 
L 330.832116 157.741688 
L 330.922323 157.339055 
L 331.102737 159.016586 
L 331.28315 157.260769 
L 331.373357 157.316694 
L 331.553771 157.070676 
L 331.734185 155.896382 
L 331.824392 156.310175 
L 331.914598 157.428543 
L 332.004805 157.372618 
L 332.095012 156.925263 
L 332.185219 157.372618 
L 332.275426 157.350257 
L 332.365633 156.914103 
L 332.45584 157.059474 
L 332.546047 156.813456 
L 332.636254 156.131241 
L 332.72646 156.220729 
L 332.816667 156.299015 
L 332.997081 154.487273 
L 333.177495 155.706289 
L 333.267702 155.650364 
L 333.448115 156.567395 
L 333.538322 156.131241 
L 333.718736 153.190014 
L 333.808943 153.111727 
L 334.079564 154.330743 
L 334.530598 155.012915 
L 334.711012 154.565559 
L 334.801219 154.632686 
L 334.891425 154.610325 
L 335.162046 153.905749 
L 335.34246 153.134089 
L 335.432667 153.424872 
L 335.522874 154.162969 
L 335.61308 154.017599 
L 335.703287 153.122929 
L 335.793494 153.436032 
L 335.973908 155.012915 
L 336.244529 153.469595 
L 336.334735 153.52552 
L 336.424942 153.749177 
L 336.515149 153.301863 
L 336.605356 153.335384 
L 336.695563 154.274819 
L 336.78577 154.263617 
L 336.875977 153.559083 
L 336.966184 153.827463 
L 337.146597 154.778057 
L 337.327011 155.180647 
L 337.597632 153.368947 
L 337.687839 153.2683 
L 337.868252 154.498475 
L 337.958459 154.140608 
L 338.048666 153.033441 
L 338.138873 153.290661 
L 338.319287 154.285978 
L 338.409494 154.341903 
L 338.680114 154.878704 
L 338.770321 154.688611 
L 338.950735 154.878704 
L 339.131149 153.559083 
L 339.311562 155.191849 
L 339.491976 154.341903 
L 339.94301 156.332536 
L 340.213631 154.901066 
L 340.484252 155.639205 
L 340.574459 156.522672 
L 340.664665 156.444386 
L 340.935286 154.845141 
L 341.1157 155.672726 
L 341.205907 154.666207 
L 341.296114 154.923427 
L 341.476527 156.3661 
L 341.656941 156.052955 
L 341.747148 153.458436 
L 341.927562 154.912268 
L 342.017769 154.330743 
L 342.198182 156.187166 
L 342.288389 155.963509 
L 342.468803 154.856343 
L 342.82963 154.755695 
L 342.919837 154.587921 
L 343.010044 154.867545 
L 343.190458 155.818139 
L 343.821906 152.653212 
L 343.912113 152.720296 
L 344.00232 153.324225 
L 344.363147 152.116411 
L 344.453354 152.038124 
L 344.633768 152.295345 
L 344.814182 153.805101 
L 344.904389 153.570243 
L 345.175009 149.186343 
L 345.265216 150.092214 
L 345.355423 149.980364 
L 345.535837 148.716625 
L 345.806457 151.411835 
L 345.896664 150.998042 
L 346.167285 150.908597 
L 346.347699 152.038124 
L 346.437905 151.71382 
L 346.528112 151.903913 
L 346.618319 151.814468 
L 346.798733 151.221742 
L 346.979147 152.798583 
L 347.15956 153.805101 
L 347.249767 153.212375 
L 347.339974 153.301863 
L 347.430181 153.592604 
L 347.610595 153.223577 
L 347.700802 153.41367 
L 347.971422 152.876869 
L 348.151836 153.279459 
L 348.33225 152.340067 
L 348.512664 153.536679 
L 348.60287 153.15645 
L 348.783284 154.241255 
L 348.963698 152.888071 
L 349.144112 154.464912 
L 349.234319 154.408987 
L 349.324525 154.196532 
L 349.504939 154.945831 
L 349.685353 153.961674 
L 349.77556 154.722132 
L 349.955974 148.023252 
L 350.226594 149.365277 
L 350.407008 148.191026 
L 350.497215 148.414683 
L 350.677629 149.611295 
L 350.767836 149.566572 
L 350.948249 148.973845 
L 351.21887 150.807949 
L 351.309077 150.863874 
L 351.579697 149.499488 
L 351.669904 149.488286 
L 351.760111 149.309352 
L 351.940525 149.65606 
L 352.030732 149.242268 
L 352.120939 149.488286 
L 352.301352 150.875033 
L 352.391559 150.763226 
L 352.481766 150.986883 
L 352.571973 151.769702 
L 352.66218 151.624332 
L 352.752387 150.673738 
L 352.842594 150.774386 
L 352.932801 151.367112 
L 353.113214 150.394157 
L 353.383835 152.217058 
L 353.474042 152.172336 
L 353.564249 152.094049 
L 353.744662 152.194697 
L 353.925076 151.669055 
L 354.10549 150.841513 
L 354.376111 151.758543 
L 354.556524 151.378314 
L 354.736938 150.908597 
L 355.007559 152.966357 
L 355.187972 152.172336 
L 355.278179 152.026922 
L 355.458593 152.228218 
L 355.819421 151.042808 
L 356.180248 152.161134 
L 356.270455 152.12757 
L 356.360662 152.105209 
L 356.541076 154.095885 
L 356.721489 151.847989 
L 356.901903 152.429556 
L 357.082317 152.071688 
L 357.262731 152.228218 
L 357.443144 151.9822 
L 357.894179 152.552565 
L 357.984386 158.759366 
L 358.074592 158.31201 
L 358.255006 156.835817 
L 358.345213 156.656883 
L 358.43542 155.952307 
L 358.615834 156.813456 
L 358.706041 156.265452 
L 358.886454 157.741688 
L 358.976661 157.573914 
L 359.066868 157.305534 
L 359.247282 157.998908 
L 359.427696 157.294332 
L 359.608109 157.853495 
L 359.788523 157.182483 
L 359.87873 157.417341 
L 360.059144 156.578597 
L 360.149351 156.712808 
L 360.239557 156.198368 
L 360.329764 156.299015 
L 360.419971 157.339055 
L 360.510178 157.294332 
L 360.600385 157.182483 
L 360.690592 157.629838 
L 360.871006 156.35494 
L 361.051419 157.931781 
L 361.32204 156.142443 
L 361.412247 156.164805 
L 361.773074 157.842336 
L 362.133902 155.806937 
L 362.224109 155.695087 
L 362.314316 155.929946 
L 362.404522 155.628003 
L 362.584936 154.621484 
L 362.76535 155.639205 
L 362.945764 154.408987 
L 363.035971 155.057638 
L 363.216384 153.480797 
L 363.396798 154.889906 
L 363.487005 154.789259 
L 363.577212 154.610325 
L 363.667419 154.990554 
L 363.757626 154.69977 
L 363.938039 153.257098 
L 364.20866 154.487273 
L 364.479281 154.655048 
L 364.569487 154.397828 
L 364.659694 154.520837 
L 364.749901 155.024075 
L 364.840108 154.95699 
L 365.110729 152.574926 
L 365.291142 154.375466 
L 365.742177 152.709137 
L 365.922591 153.100525 
L 366.012797 152.943996 
L 366.193211 160.448057 
L 366.283418 161.029581 
L 366.554039 159.654035 
L 366.644246 159.45274 
L 366.734452 159.687599 
L 366.914866 160.403334 
L 367.005073 160.280325 
L 367.09528 160.548704 
L 367.365901 162.248597 
L 367.636521 161.38747 
L 367.726728 161.465756 
L 367.907142 162.114386 
L 368.087556 161.197356 
L 368.358176 159.888894 
L 368.448383 159.933617 
L 368.719004 158.323212 
L 368.809211 158.658719 
L 368.899418 158.613996 
L 368.989624 158.233724 
L 369.260245 160.638193 
L 369.350452 160.325048 
L 369.440659 160.548704 
L 369.530866 160.269123 
L 369.801486 155.572078 
L 369.891693 155.952307 
L 369.9819 155.560919 
L 370.072107 154.420189 
L 370.162314 154.800418 
L 370.252521 156.120082 
L 370.342728 155.739853 
L 370.523141 154.688611 
L 370.613348 154.576761 
L 370.703555 154.755695 
L 370.793762 155.661566 
L 370.883969 155.415506 
L 370.974176 154.386626 
L 371.154589 155.818139 
L 371.244796 155.538515 
L 371.42521 156.176006 
L 371.515417 155.963509 
L 371.605624 156.030593 
L 371.695831 156.589756 
L 372.327279 154.532039 
L 372.597899 156.153603 
L 372.688106 155.751012 
L 372.778313 156.142443 
L 372.958727 155.079999 
L 373.139141 155.985871 
L 373.499968 152.932794 
L 373.680382 153.52552 
L 373.770589 152.932794 
L 373.860796 153.01108 
L 374.131416 154.028758 
L 374.31183 150.494804 
L 374.492244 152.217058 
L 374.582451 152.094049 
L 374.672658 152.094049 
L 374.762864 152.295345 
L 374.943278 152.149974 
L 375.033485 152.228218 
L 375.123692 151.993402 
L 375.394313 150.919756 
L 375.75514 150.349434 
L 375.935554 149.275831 
L 376.025761 149.28699 
L 376.206174 149.611295 
L 376.296381 149.208704 
L 376.386588 149.432361 
L 376.567002 151.065169 
L 376.747416 149.376479 
L 376.837623 149.521849 
L 376.927829 149.376479 
L 377.018036 149.454765 
L 377.288657 150.550729 
L 377.559278 150.304668 
L 377.649484 150.707302 
L 377.829898 151.814468 
L 378.100519 149.231066 
L 378.190726 149.208704 
L 378.461346 150.729663 
L 378.731967 150.349434 
L 378.822174 150.42772 
L 379.002588 150.42772 
L 379.273208 151.109892 
L 379.363415 151.232901 
L 379.543829 152.082847 
L 379.724243 150.259946 
L 379.904656 152.094049 
L 379.994863 151.244103 
L 380.08507 151.35591 
L 380.175277 152.183495 
L 380.355691 151.579609 
L 380.536104 153.167652 
L 380.806725 151.959838 
L 380.896932 151.847989 
L 380.987139 151.993402 
L 381.167553 153.749177 
L 381.257759 153.626167 
L 381.52838 151.959838 
L 381.708794 153.603806 
L 381.889208 151.903913 
L 382.069621 153.559083 
L 382.159828 153.402511 
L 382.250035 153.704454 
L 382.340242 152.820944 
L 382.520656 153.346586 
L 382.610863 153.145291 
L 382.791276 153.738017 
L 382.97169 152.999878 
L 383.152104 153.984035 
L 383.332518 153.480797 
L 383.422724 153.52552 
L 383.512931 153.2683 
L 383.603138 153.514318 
L 383.693345 154.431391 
L 383.783552 154.29718 
L 384.144379 151.814468 
L 384.234586 151.9822 
L 384.415 151.21054 
L 384.775828 153.290661 
L 384.866035 153.402511 
L 385.046448 152.742658 
L 385.226862 153.089366 
L 385.317069 152.943996 
L 385.407276 153.436032 
L 385.497483 153.41367 
L 385.677896 150.293509 
L 385.85831 151.21054 
L 386.038724 150.830311 
L 386.128931 150.819109 
L 386.219138 151.076329 
L 386.399551 152.015763 
L 386.579965 152.026922 
L 386.850586 152.395992 
L 387.121206 151.825627 
L 387.211413 151.691416 
L 387.391827 152.015763 
L 387.482034 151.915115 
L 387.662448 154.341903 
L 387.842861 152.943996 
L 387.933068 153.402511 
L 388.023275 153.01108 
L 388.203689 151.937477 
L 388.47431 153.201216 
L 388.564516 152.149974 
L 388.654723 152.328908 
L 388.74493 153.391309 
L 388.925344 151.478962 
L 389.015551 152.217058 
L 389.105758 153.2683 
L 389.286171 152.362429 
L 389.376378 152.563724 
L 389.556792 151.635534 
L 389.646999 151.859191 
L 389.737206 152.183495 
L 389.827413 151.836829 
L 389.91762 152.015763 
L 390.098033 153.078164 
L 390.278447 151.646693 
L 390.368654 152.183495 
L 390.458861 155.661566 
L 390.549068 154.867545 
L 390.639275 154.95699 
L 390.729481 156.019434 
L 390.819688 155.896382 
L 390.909895 155.370783 
L 391.090309 156.131241 
L 391.180516 155.829298 
L 391.36093 156.243091 
L 391.541343 154.543198 
L 391.721757 156.533874 
L 392.082585 155.717449 
L 392.262998 156.064157 
L 392.353205 155.739853 
L 392.443412 155.918786 
L 392.533619 155.739853 
L 392.623826 154.733334 
L 392.714033 154.766897 
L 392.894446 156.690446 
L 392.984653 155.963509 
L 393.07486 156.410822 
L 393.165067 157.629838 
L 393.255274 157.13776 
L 393.345481 155.728651 
L 393.435688 155.762214 
L 393.525895 156.176006 
L 393.706308 154.610325 
L 393.886722 156.444386 
L 394.157343 156.052955 
L 394.337756 156.62332 
L 394.51817 154.95699 
L 394.698584 155.33722 
L 394.788791 155.292497 
L 394.969205 155.874021 
L 395.059411 155.683928 
L 395.239825 156.209527 
L 395.330032 155.918786 
L 395.420239 156.176006 
L 395.600653 157.294332 
L 395.871273 156.567395 
L 395.96148 156.176006 
L 396.141894 156.422024 
L 396.322308 155.818139 
L 396.412515 155.85166 
L 396.683135 156.668042 
L 396.773342 157.752848 
L 396.863549 157.696923 
L 396.953756 157.160121 
L 397.13417 158.356776 
L 397.314583 157.361416 
L 397.40479 157.708125 
L 397.494997 157.551552 
L 397.585204 157.808772 
L 397.675411 158.759366 
L 397.765618 158.457423 
L 397.946031 157.38382 
L 398.216652 157.76405 
L 398.397066 157.148962 
L 398.487273 157.260769 
L 398.487273 157.260769 
" clip-path="url(#pe28b343d8f)" style="fill: none; stroke: #1f77b4; stroke-width: 1.5; stroke-linecap: square"/>
   </g>
   <g id="patch_3">
    <path d="M 57.6 307.584 
L 57.6 41.472 
" style="fill: none; stroke: #000000; stroke-width: 0.8; stroke-linejoin: miter; stroke-linecap: square"/>
   </g>
   <g id="patch_4">
    <path d="M 414.72 307.584 
L 414.72 41.472 
" style="fill: none; stroke: #000000; stroke-width: 0.8; stroke-linejoin: miter; stroke-linecap: square"/>
   </g>
   <g id="patch_5">
    <path d="M 57.6 307.584 
L 414.72 307.584 
" style="fill: none; stroke: #000000; stroke-width: 0.8; stroke-linejoin: miter; stroke-linecap: square"/>
   </g>
   <g id="patch_6">
    <path d="M 57.6 41.472 
L 414.72 41.472 
" style="fill: none; stroke: #000000; stroke-width: 0.8; stroke-linejoin: miter; stroke-linecap: square"/>
   </g>
   <g id="legend_1">
    <g id="patch_7">
     <path d="M 354.074688 64.150125 
L 407.72 64.150125 
Q 409.72 64.150125 409.72 62.150125 
L 409.72 48.472 
Q 409.72 46.472 407.72 46.472 
L 354.074688 46.472 
Q 352.074688 46.472 352.074688 48.472 
L 352.074688 62.150125 
Q 352.074688 64.150125 354.074688 64.150125 
z
" style="fill: #ffffff; opacity: 0.8; stroke: #cccccc; stroke-linejoin: miter"/>
    </g>
    <g id="line2d_16">
     <path d="M 356.074688 54.570438 
L 366.074688 54.570438 
L 376.074688 54.570438 
" style="fill: none; stroke: #1f77b4; stroke-width: 1.5; stroke-linecap: square"/>
    </g>
    <g id="text_15">
     <!-- set3 -->
     <g transform="translate(384.074688 58.070438)scale(0.1 -0.1)">
      <defs>
       <path id="DejaVuSans-73" d="M 2834 3397 
L 2834 2853 
Q 2591 2978 2328 3040 
Q 2066 3103 1784 3103 
Q 1356 3103 1142 2972 
Q 928 2841 928 2578 
Q 928 2378 1081 2264 
Q 1234 2150 1697 2047 
L 1894 2003 
Q 2506 1872 2764 1633 
Q 3022 1394 3022 966 
Q 3022 478 2636 193 
Q 2250 -91 1575 -91 
Q 1294 -91 989 -36 
Q 684 19 347 128 
L 347 722 
Q 666 556 975 473 
Q 1284 391 1588 391 
Q 1994 391 2212 530 
Q 2431 669 2431 922 
Q 2431 1156 2273 1281 
Q 2116 1406 1581 1522 
L 1381 1569 
Q 847 1681 609 1914 
Q 372 2147 372 2553 
Q 372 3047 722 3315 
Q 1072 3584 1716 3584 
Q 2034 3584 2315 3537 
Q 2597 3491 2834 3397 
z
" transform="scale(0.015625)"/>
       <path id="DejaVuSans-65" d="M 3597 1894 
L 3597 1613 
L 953 1613 
Q 991 1019 1311 708 
Q 1631 397 2203 397 
Q 2534 397 2845 478 
Q 3156 559 3463 722 
L 3463 178 
Q 3153 47 2828 -22 
Q 2503 -91 2169 -91 
Q 1331 -91 842 396 
Q 353 884 353 1716 
Q 353 2575 817 3079 
Q 1281 3584 2069 3584 
Q 2775 3584 3186 3129 
Q 3597 2675 3597 1894 
z
M 3022 2063 
Q 3016 2534 2758 2815 
Q 2500 3097 2075 3097 
Q 1594 3097 1305 2825 
Q 1016 2553 972 2059 
L 3022 2063 
z
" transform="scale(0.015625)"/>
       <path id="DejaVuSans-74" d="M 1172 4494 
L 1172 3500 
L 2356 3500 
L 2356 3053 
L 1172 3053 
L 1172 1153 
Q 1172 725 1289 603 
Q 1406 481 1766 481 
L 2356 481 
L 2356 0 
L 1766 0 
Q 1100 0 847 248 
Q 594 497 594 1153 
L 594 3053 
L 172 3053 
L 172 3500 
L 594 3500 
L 594 4494 
L 1172 4494 
z
" transform="scale(0.015625)"/>
      </defs>
      <use xlink:href="#DejaVuSans-73"/>
      <use xlink:href="#DejaVuSans-65" x="52.099609"/>
      <use xlink:href="#DejaVuSans-74" x="113.623047"/>
      <use xlink:href="#DejaVuSans-33" x="152.832031"/>
     </g>
    </g>
   </g>
  </g>
 </g>
 <defs>
  <clipPath id="pe28b343d8f">
   <rect x="57.6" y="41.472" width="357.12" height="266.112"/>
  </clipPath>
 </defs>
</svg>
