<?xml version="1.0" encoding="utf-8" standalone="no"?>
<!DOCTYPE svg PUBLIC "-//W3C//DTD SVG 1.1//EN"
  "http://www.w3.org/Graphics/SVG/1.1/DTD/svg11.dtd">
<svg xmlns:xlink="http://www.w3.org/1999/xlink" width="460.8pt" height="345.6pt" viewBox="0 0 460.8 345.6" xmlns="http://www.w3.org/2000/svg" version="1.1">
 <metadata>
  <rdf:RDF xmlns:dc="http://purl.org/dc/elements/1.1/" xmlns:cc="http://creativecommons.org/ns#" xmlns:rdf="http://www.w3.org/1999/02/22-rdf-syntax-ns#">
   <cc:Work>
    <dc:type rdf:resource="http://purl.org/dc/dcmitype/StillImage"/>
    <dc:date>2022-08-11T15:19:10.183374</dc:date>
    <dc:format>image/svg+xml</dc:format>
    <dc:creator>
     <cc:Agent>
      <dc:title>Matplotlib v3.5.2, https://matplotlib.org/</dc:title>
     </cc:Agent>
    </dc:creator>
   </cc:Work>
  </rdf:RDF>
 </metadata>
 <defs>
  <style type="text/css">*{stroke-linejoin: round; stroke-linecap: butt}</style>
 </defs>
 <g id="figure_1">
  <g id="patch_1">
   <path d="M 0 345.6 
L 460.8 345.6 
L 460.8 0 
L 0 0 
z
" style="fill: #ffffff"/>
  </g>
  <g id="axes_1">
   <g id="patch_2">
    <path d="M 57.6 307.584 
L 414.72 307.584 
L 414.72 41.472 
L 57.6 41.472 
z
" style="fill: #ffffff"/>
   </g>
   <g id="matplotlib.axis_1">
    <g id="xtick_1">
     <g id="line2d_1">
      <defs>
       <path id="m5a6f8fc87c" d="M 0 0 
L 0 3.5 
" style="stroke: #000000; stroke-width: 0.8"/>
      </defs>
      <g>
       <use xlink:href="#m5a6f8fc87c" x="73.832727" y="307.584" style="stroke: #000000; stroke-width: 0.8"/>
      </g>
     </g>
     <g id="text_1">
      <!-- 0 -->
      <g transform="translate(70.651477 322.182437)scale(0.1 -0.1)">
       <defs>
        <path id="DejaVuSans-30" d="M 2034 4250 
Q 1547 4250 1301 3770 
Q 1056 3291 1056 2328 
Q 1056 1369 1301 889 
Q 1547 409 2034 409 
Q 2525 409 2770 889 
Q 3016 1369 3016 2328 
Q 3016 3291 2770 3770 
Q 2525 4250 2034 4250 
z
M 2034 4750 
Q 2819 4750 3233 4129 
Q 3647 3509 3647 2328 
Q 3647 1150 3233 529 
Q 2819 -91 2034 -91 
Q 1250 -91 836 529 
Q 422 1150 422 2328 
Q 422 3509 836 4129 
Q 1250 4750 2034 4750 
z
" transform="scale(0.015625)"/>
       </defs>
       <use xlink:href="#DejaVuSans-30"/>
      </g>
     </g>
    </g>
    <g id="xtick_2">
     <g id="line2d_2">
      <g>
       <use xlink:href="#m5a6f8fc87c" x="137.254205" y="307.584" style="stroke: #000000; stroke-width: 0.8"/>
      </g>
     </g>
     <g id="text_2">
      <!-- 1000 -->
      <g transform="translate(124.529205 322.182437)scale(0.1 -0.1)">
       <defs>
        <path id="DejaVuSans-31" d="M 794 531 
L 1825 531 
L 1825 4091 
L 703 3866 
L 703 4441 
L 1819 4666 
L 2450 4666 
L 2450 531 
L 3481 531 
L 3481 0 
L 794 0 
L 794 531 
z
" transform="scale(0.015625)"/>
       </defs>
       <use xlink:href="#DejaVuSans-31"/>
       <use xlink:href="#DejaVuSans-30" x="63.623047"/>
       <use xlink:href="#DejaVuSans-30" x="127.246094"/>
       <use xlink:href="#DejaVuSans-30" x="190.869141"/>
      </g>
     </g>
    </g>
    <g id="xtick_3">
     <g id="line2d_3">
      <g>
       <use xlink:href="#m5a6f8fc87c" x="200.675683" y="307.584" style="stroke: #000000; stroke-width: 0.8"/>
      </g>
     </g>
     <g id="text_3">
      <!-- 2000 -->
      <g transform="translate(187.950683 322.182437)scale(0.1 -0.1)">
       <defs>
        <path id="DejaVuSans-32" d="M 1228 531 
L 3431 531 
L 3431 0 
L 469 0 
L 469 531 
Q 828 903 1448 1529 
Q 2069 2156 2228 2338 
Q 2531 2678 2651 2914 
Q 2772 3150 2772 3378 
Q 2772 3750 2511 3984 
Q 2250 4219 1831 4219 
Q 1534 4219 1204 4116 
Q 875 4013 500 3803 
L 500 4441 
Q 881 4594 1212 4672 
Q 1544 4750 1819 4750 
Q 2544 4750 2975 4387 
Q 3406 4025 3406 3419 
Q 3406 3131 3298 2873 
Q 3191 2616 2906 2266 
Q 2828 2175 2409 1742 
Q 1991 1309 1228 531 
z
" transform="scale(0.015625)"/>
       </defs>
       <use xlink:href="#DejaVuSans-32"/>
       <use xlink:href="#DejaVuSans-30" x="63.623047"/>
       <use xlink:href="#DejaVuSans-30" x="127.246094"/>
       <use xlink:href="#DejaVuSans-30" x="190.869141"/>
      </g>
     </g>
    </g>
    <g id="xtick_4">
     <g id="line2d_4">
      <g>
       <use xlink:href="#m5a6f8fc87c" x="264.097161" y="307.584" style="stroke: #000000; stroke-width: 0.8"/>
      </g>
     </g>
     <g id="text_4">
      <!-- 3000 -->
      <g transform="translate(251.372161 322.182437)scale(0.1 -0.1)">
       <defs>
        <path id="DejaVuSans-33" d="M 2597 2516 
Q 3050 2419 3304 2112 
Q 3559 1806 3559 1356 
Q 3559 666 3084 287 
Q 2609 -91 1734 -91 
Q 1441 -91 1130 -33 
Q 819 25 488 141 
L 488 750 
Q 750 597 1062 519 
Q 1375 441 1716 441 
Q 2309 441 2620 675 
Q 2931 909 2931 1356 
Q 2931 1769 2642 2001 
Q 2353 2234 1838 2234 
L 1294 2234 
L 1294 2753 
L 1863 2753 
Q 2328 2753 2575 2939 
Q 2822 3125 2822 3475 
Q 2822 3834 2567 4026 
Q 2313 4219 1838 4219 
Q 1578 4219 1281 4162 
Q 984 4106 628 3988 
L 628 4550 
Q 988 4650 1302 4700 
Q 1616 4750 1894 4750 
Q 2613 4750 3031 4423 
Q 3450 4097 3450 3541 
Q 3450 3153 3228 2886 
Q 3006 2619 2597 2516 
z
" transform="scale(0.015625)"/>
       </defs>
       <use xlink:href="#DejaVuSans-33"/>
       <use xlink:href="#DejaVuSans-30" x="63.623047"/>
       <use xlink:href="#DejaVuSans-30" x="127.246094"/>
       <use xlink:href="#DejaVuSans-30" x="190.869141"/>
      </g>
     </g>
    </g>
    <g id="xtick_5">
     <g id="line2d_5">
      <g>
       <use xlink:href="#m5a6f8fc87c" x="327.518639" y="307.584" style="stroke: #000000; stroke-width: 0.8"/>
      </g>
     </g>
     <g id="text_5">
      <!-- 4000 -->
      <g transform="translate(314.793639 322.182437)scale(0.1 -0.1)">
       <defs>
        <path id="DejaVuSans-34" d="M 2419 4116 
L 825 1625 
L 2419 1625 
L 2419 4116 
z
M 2253 4666 
L 3047 4666 
L 3047 1625 
L 3713 1625 
L 3713 1100 
L 3047 1100 
L 3047 0 
L 2419 0 
L 2419 1100 
L 313 1100 
L 313 1709 
L 2253 4666 
z
" transform="scale(0.015625)"/>
       </defs>
       <use xlink:href="#DejaVuSans-34"/>
       <use xlink:href="#DejaVuSans-30" x="63.623047"/>
       <use xlink:href="#DejaVuSans-30" x="127.246094"/>
       <use xlink:href="#DejaVuSans-30" x="190.869141"/>
      </g>
     </g>
    </g>
    <g id="xtick_6">
     <g id="line2d_6">
      <g>
       <use xlink:href="#m5a6f8fc87c" x="390.940117" y="307.584" style="stroke: #000000; stroke-width: 0.8"/>
      </g>
     </g>
     <g id="text_6">
      <!-- 5000 -->
      <g transform="translate(378.215117 322.182437)scale(0.1 -0.1)">
       <defs>
        <path id="DejaVuSans-35" d="M 691 4666 
L 3169 4666 
L 3169 4134 
L 1269 4134 
L 1269 2991 
Q 1406 3038 1543 3061 
Q 1681 3084 1819 3084 
Q 2600 3084 3056 2656 
Q 3513 2228 3513 1497 
Q 3513 744 3044 326 
Q 2575 -91 1722 -91 
Q 1428 -91 1123 -41 
Q 819 9 494 109 
L 494 744 
Q 775 591 1075 516 
Q 1375 441 1709 441 
Q 2250 441 2565 725 
Q 2881 1009 2881 1497 
Q 2881 1984 2565 2268 
Q 2250 2553 1709 2553 
Q 1456 2553 1204 2497 
Q 953 2441 691 2322 
L 691 4666 
z
" transform="scale(0.015625)"/>
       </defs>
       <use xlink:href="#DejaVuSans-35"/>
       <use xlink:href="#DejaVuSans-30" x="63.623047"/>
       <use xlink:href="#DejaVuSans-30" x="127.246094"/>
       <use xlink:href="#DejaVuSans-30" x="190.869141"/>
      </g>
     </g>
    </g>
   </g>
   <g id="matplotlib.axis_2">
    <g id="ytick_1">
     <g id="line2d_7">
      <defs>
       <path id="mdad90d172b" d="M 0 0 
L -3.5 0 
" style="stroke: #000000; stroke-width: 0.8"/>
      </defs>
      <g>
       <use xlink:href="#mdad90d172b" x="57.6" y="277.946677" style="stroke: #000000; stroke-width: 0.8"/>
      </g>
     </g>
     <g id="text_7">
      <!-- 3950 -->
      <g transform="translate(25.15 281.745895)scale(0.1 -0.1)">
       <defs>
        <path id="DejaVuSans-39" d="M 703 97 
L 703 672 
Q 941 559 1184 500 
Q 1428 441 1663 441 
Q 2288 441 2617 861 
Q 2947 1281 2994 2138 
Q 2813 1869 2534 1725 
Q 2256 1581 1919 1581 
Q 1219 1581 811 2004 
Q 403 2428 403 3163 
Q 403 3881 828 4315 
Q 1253 4750 1959 4750 
Q 2769 4750 3195 4129 
Q 3622 3509 3622 2328 
Q 3622 1225 3098 567 
Q 2575 -91 1691 -91 
Q 1453 -91 1209 -44 
Q 966 3 703 97 
z
M 1959 2075 
Q 2384 2075 2632 2365 
Q 2881 2656 2881 3163 
Q 2881 3666 2632 3958 
Q 2384 4250 1959 4250 
Q 1534 4250 1286 3958 
Q 1038 3666 1038 3163 
Q 1038 2656 1286 2365 
Q 1534 2075 1959 2075 
z
" transform="scale(0.015625)"/>
       </defs>
       <use xlink:href="#DejaVuSans-33"/>
       <use xlink:href="#DejaVuSans-39" x="63.623047"/>
       <use xlink:href="#DejaVuSans-35" x="127.246094"/>
       <use xlink:href="#DejaVuSans-30" x="190.869141"/>
      </g>
     </g>
    </g>
    <g id="ytick_2">
     <g id="line2d_8">
      <g>
       <use xlink:href="#mdad90d172b" x="57.6" y="241.363177" style="stroke: #000000; stroke-width: 0.8"/>
      </g>
     </g>
     <g id="text_8">
      <!-- 4000 -->
      <g transform="translate(25.15 245.162396)scale(0.1 -0.1)">
       <use xlink:href="#DejaVuSans-34"/>
       <use xlink:href="#DejaVuSans-30" x="63.623047"/>
       <use xlink:href="#DejaVuSans-30" x="127.246094"/>
       <use xlink:href="#DejaVuSans-30" x="190.869141"/>
      </g>
     </g>
    </g>
    <g id="ytick_3">
     <g id="line2d_9">
      <g>
       <use xlink:href="#mdad90d172b" x="57.6" y="204.779678" style="stroke: #000000; stroke-width: 0.8"/>
      </g>
     </g>
     <g id="text_9">
      <!-- 4050 -->
      <g transform="translate(25.15 208.578897)scale(0.1 -0.1)">
       <use xlink:href="#DejaVuSans-34"/>
       <use xlink:href="#DejaVuSans-30" x="63.623047"/>
       <use xlink:href="#DejaVuSans-35" x="127.246094"/>
       <use xlink:href="#DejaVuSans-30" x="190.869141"/>
      </g>
     </g>
    </g>
    <g id="ytick_4">
     <g id="line2d_10">
      <g>
       <use xlink:href="#mdad90d172b" x="57.6" y="168.196179" style="stroke: #000000; stroke-width: 0.8"/>
      </g>
     </g>
     <g id="text_10">
      <!-- 4100 -->
      <g transform="translate(25.15 171.995398)scale(0.1 -0.1)">
       <use xlink:href="#DejaVuSans-34"/>
       <use xlink:href="#DejaVuSans-31" x="63.623047"/>
       <use xlink:href="#DejaVuSans-30" x="127.246094"/>
       <use xlink:href="#DejaVuSans-30" x="190.869141"/>
      </g>
     </g>
    </g>
    <g id="ytick_5">
     <g id="line2d_11">
      <g>
       <use xlink:href="#mdad90d172b" x="57.6" y="131.612679" style="stroke: #000000; stroke-width: 0.8"/>
      </g>
     </g>
     <g id="text_11">
      <!-- 4150 -->
      <g transform="translate(25.15 135.411898)scale(0.1 -0.1)">
       <use xlink:href="#DejaVuSans-34"/>
       <use xlink:href="#DejaVuSans-31" x="63.623047"/>
       <use xlink:href="#DejaVuSans-35" x="127.246094"/>
       <use xlink:href="#DejaVuSans-30" x="190.869141"/>
      </g>
     </g>
    </g>
    <g id="ytick_6">
     <g id="line2d_12">
      <g>
       <use xlink:href="#mdad90d172b" x="57.6" y="95.02918" style="stroke: #000000; stroke-width: 0.8"/>
      </g>
     </g>
     <g id="text_12">
      <!-- 4200 -->
      <g transform="translate(25.15 98.828399)scale(0.1 -0.1)">
       <use xlink:href="#DejaVuSans-34"/>
       <use xlink:href="#DejaVuSans-32" x="63.623047"/>
       <use xlink:href="#DejaVuSans-30" x="127.246094"/>
       <use xlink:href="#DejaVuSans-30" x="190.869141"/>
      </g>
     </g>
    </g>
    <g id="ytick_7">
     <g id="line2d_13">
      <g>
       <use xlink:href="#mdad90d172b" x="57.6" y="58.445681" style="stroke: #000000; stroke-width: 0.8"/>
      </g>
     </g>
     <g id="text_13">
      <!-- 4250 -->
      <g transform="translate(25.15 62.2449)scale(0.1 -0.1)">
       <use xlink:href="#DejaVuSans-34"/>
       <use xlink:href="#DejaVuSans-32" x="63.623047"/>
       <use xlink:href="#DejaVuSans-35" x="127.246094"/>
       <use xlink:href="#DejaVuSans-30" x="190.869141"/>
      </g>
     </g>
    </g>
   </g>
   <g id="line2d_14">
    <path d="M 73.832727 121.012753 
L 73.95957 142.118646 
L 74.022992 141.368398 
L 74.086413 138.178774 
L 74.213256 152.437051 
L 74.276678 146.808765 
L 74.340099 135.833715 
L 74.403521 138.741817 
L 74.530364 148.778701 
L 74.593785 147.46541 
L 74.720628 139.492065 
L 74.784049 140.336272 
L 74.847471 142.118646 
L 74.974314 138.554256 
L 75.164578 147.277848 
L 75.291421 133.113532 
L 75.354843 136.021634 
L 75.418264 139.304503 
L 75.481686 138.272734 
L 75.67195 137.147006 
L 75.925636 152.343448 
L 76.306165 128.986098 
L 76.433008 141.649562 
L 76.496429 139.773587 
L 76.623272 143.994622 
L 76.813537 135.740113 
L 77.003801 141.086877 
L 77.130644 139.398462 
L 77.194066 139.773587 
L 77.320909 138.554256 
L 77.447752 143.994622 
L 77.511173 142.306208 
L 77.574594 137.803651 
L 77.638016 140.336272 
L 77.701437 142.962853 
L 77.82828 137.147006 
L 77.955123 146.621203 
L 78.018545 137.147006 
L 78.081966 140.336272 
L 78.145388 153.187656 
L 78.208809 146.621203 
L 78.272231 139.023339 
L 78.399074 153.468819 
L 78.525917 137.991212 
L 78.589338 143.431937 
L 78.65276 139.023339 
L 78.779603 153.562779 
L 78.906446 131.237556 
L 78.969867 133.207491 
L 79.160131 150.561074 
L 79.223553 152.624612 
L 79.286974 151.030158 
L 79.413817 138.647858 
L 79.54066 143.80706 
L 79.604082 137.991212 
L 79.667503 140.992917 
L 79.730925 145.683394 
L 79.794346 145.401872 
L 79.857768 144.745227 
L 79.921189 140.899315 
L 79.984611 141.649562 
L 80.111454 153.281257 
L 80.174875 149.622907 
L 80.238297 154.125465 
L 80.301718 152.812174 
L 80.365139 144.182541 
L 80.428561 146.340039 
L 80.491982 147.277848 
L 80.618825 139.586025 
L 80.682247 140.524191 
L 80.80909 161.348562 
L 80.872511 156.376922 
L 80.999354 142.400167 
L 81.062776 144.651267 
L 81.126197 143.150415 
L 81.25304 139.679984 
L 81.379883 135.17707 
L 81.570148 141.743522 
L 81.633569 140.899315 
L 82.204362 183.580005 
L 82.331205 176.91995 
L 82.458048 188.270124 
L 82.584891 178.795927 
L 82.901999 206.092969 
L 82.96542 201.402671 
L 83.028842 188.082561 
L 83.092263 189.11451 
L 83.155685 194.461274 
L 83.219106 191.740911 
L 83.282527 191.834692 
L 83.40937 200.652245 
L 83.472792 195.868345 
L 83.536213 197.83828 
L 83.663056 210.689306 
L 83.726478 207.3123 
L 83.789899 208.71937 
L 83.853321 209.094673 
L 83.916742 207.593821 
L 84.170428 222.883866 
L 84.23385 218.006006 
L 84.297271 217.536923 
L 84.360693 221.289233 
L 84.424114 221.007711 
L 84.550957 222.414782 
L 84.614379 217.255581 
L 84.6778 219.037776 
L 84.741221 226.91734 
L 84.804643 225.322706 
L 84.868064 217.349361 
L 84.931486 219.225516 
L 85.058329 226.91734 
L 85.248593 206.749614 
L 85.312015 208.250466 
L 85.375436 206.843395 
L 85.502279 202.340838 
L 85.565701 207.593821 
L 85.629122 206.280531 
L 85.692544 200.089559 
L 85.755965 200.18334 
L 85.819387 202.903523 
L 85.882808 201.684192 
L 85.94623 202.903523 
L 86.073073 207.406259 
L 86.199915 202.153097 
L 86.263337 202.340838 
L 86.326758 202.997483 
L 86.39018 202.153097 
L 86.517023 203.466388 
L 86.643866 213.784792 
L 86.960973 197.556759 
L 87.024395 193.335545 
L 87.087816 194.930357 
L 87.151238 193.617066 
L 87.278081 184.142869 
L 87.341502 185.737502 
L 87.531767 196.055907 
L 87.658609 185.174638 
L 87.785452 191.459569 
L 87.912295 183.767566 
L 87.975717 187.425916 
L 88.039138 185.831283 
L 88.10256 181.985371 
L 88.229403 189.02055 
L 88.419667 174.574891 
L 88.483089 174.668671 
L 88.54651 174.950014 
L 88.609932 177.107512 
L 88.673353 174.48111 
L 88.800196 160.128874 
L 88.927039 164.256307 
L 88.99046 163.036976 
L 89.117303 170.82276 
L 89.244146 160.035272 
L 89.307568 162.755455 
L 89.434411 151.311322 
L 89.561254 166.976848 
L 89.688097 151.311322 
L 89.751518 152.906134 
L 89.81494 152.249489 
L 89.941783 145.683394 
L 90.068626 135.552551 
L 90.25889 144.745227 
L 90.322312 149.060222 
L 90.385733 148.309617 
L 90.449154 146.340039 
L 90.575997 154.125465 
L 90.639419 153.187656 
L 90.766262 154.219424 
L 90.893105 147.746932 
L 90.956526 149.904429 
L 91.019948 152.155886 
L 91.337055 140.805356 
L 91.463898 153.000093 
L 91.654163 139.961148 
L 91.717584 142.212606 
L 91.781006 146.058517 
L 91.844427 143.431937 
L 91.907848 141.180836 
L 91.97127 141.837124 
L 92.034691 141.931084 
L 92.098113 143.056812 
L 92.224956 139.492065 
L 92.288377 142.212606 
L 92.41522 129.736703 
L 92.478642 134.145301 
L 92.542063 139.867546 
L 92.668906 125.984394 
L 92.732328 127.297684 
L 92.795749 124.483542 
L 92.859171 115.947511 
L 92.922592 117.635925 
L 92.986014 126.828601 
L 93.049435 123.733294 
L 93.112857 114.071535 
L 93.176278 118.574091 
L 93.2397 128.986098 
L 93.303121 127.86037 
L 93.366542 128.892497 
L 93.493385 141.649562 
L 93.556807 138.83542 
L 93.620228 142.118646 
L 93.810493 123.826896 
L 93.873914 131.331158 
L 93.937336 130.674512 
L 94.064179 118.29257 
L 94.191022 131.987803 
L 94.254443 129.080058 
L 94.381286 117.917447 
L 94.508129 119.042817 
L 94.698394 138.83542 
L 94.761815 136.209196 
L 95.015501 126.828601 
L 95.142344 138.178774 
L 95.269187 123.170251 
L 95.39603 137.428527 
L 95.586294 134.145301 
L 95.713137 148.309617 
L 95.776559 157.502651 
L 95.83998 157.033567 
L 95.966823 146.621203 
L 96.093666 156.18936 
L 96.157087 153.468819 
L 96.28393 166.226243 
L 96.347352 164.350267 
L 96.410773 162.661853 
L 96.537616 177.201293 
L 96.601038 174.293369 
L 96.664459 171.385446 
L 96.727881 173.449162 
L 96.791302 175.981962 
L 96.854724 175.419098 
L 96.918145 174.38715 
L 97.044988 186.58171 
L 97.10841 184.987076 
L 97.171831 175.700441 
L 97.235253 176.075743 
L 97.298674 182.92336 
L 97.362096 182.454276 
L 97.425517 179.358791 
L 97.488939 181.891591 
L 97.806046 210.126442 
L 97.869467 201.777973 
L 97.932889 204.498336 
L 98.059732 215.473385 
L 98.123153 212.28394 
L 98.186575 59.571409 
L 98.249996 71.578228 
L 98.376839 59.758971 
L 98.440261 69.795854 
L 98.503682 69.045607 
L 98.567104 53.568 
L 98.630525 57.038788 
L 98.693947 70.077376 
L 98.757368 67.075671 
L 98.82079 59.758971 
L 98.884211 62.854636 
L 98.947633 69.608293 
L 99.011054 66.137504 
L 99.074475 60.321657 
L 99.137897 61.916469 
L 99.26474 69.608293 
L 99.518426 86.305587 
L 99.645269 75.142618 
L 99.962376 107.786604 
L 100.025798 105.253625 
L 100.089219 106.379354 
L 100.279484 127.95433 
L 100.342905 116.041113 
L 100.406327 118.105008 
L 100.596591 143.90102 
L 100.660012 147.934493 
L 100.786855 136.115237 
L 100.913698 154.500946 
L 100.97712 148.685098 
L 101.040541 152.155886 
L 101.484492 192.116214 
L 101.547913 195.868345 
L 101.611335 192.397557 
L 101.674756 194.461274 
L 101.801599 204.498336 
L 101.865021 202.997483 
L 101.991863 192.866641 
L 102.118706 222.22722 
L 102.245549 204.404376 
L 102.372392 229.262399 
L 102.435814 217.724664 
L 102.499235 219.882161 
L 102.6895 243.708237 
L 102.752921 231.88898 
L 102.816343 232.264282 
L 102.943186 266.221201 
L 103.070029 244.646225 
L 103.196872 266.596325 
L 103.323715 257.028346 
L 103.387136 265.939858 
L 103.513979 245.209089 
L 103.5774 250.649813 
L 103.640822 263.407058 
L 103.704243 263.125715 
L 103.767665 260.968218 
L 103.957929 288.921726 
L 104.021351 287.889958 
L 104.084772 288.827945 
L 104.148194 295.488 
L 104.211615 293.236722 
L 104.338458 279.822831 
L 104.465301 289.765934 
L 104.592144 275.601617 
L 104.718987 287.702217 
L 104.84583 281.417464 
L 105.036094 284.419169 
L 105.099516 283.481181 
L 105.162937 284.137648 
L 105.226359 284.043867 
L 105.28978 284.419169 
L 105.353202 287.420874 
L 105.480045 270.160894 
L 105.543466 277.852896 
L 105.606888 286.013803 
L 105.670309 280.385517 
L 105.733731 281.323684 
L 105.797152 284.325389 
L 105.860574 279.072405 
L 105.923995 280.948381 
L 105.987417 281.698808 
L 106.11426 269.410467 
L 106.177681 275.132534 
L 106.241102 269.129124 
L 106.304524 152.343448 
L 106.367945 158.252898 
L 106.431367 160.785519 
L 106.494788 159.566188 
L 106.55821 157.315089 
L 106.685053 161.630084 
L 106.811896 150.655034 
L 106.875317 152.249489 
L 106.938739 152.061926 
L 107.065582 164.537829 
L 107.192425 149.247784 
L 107.446111 164.443869 
L 107.509532 163.693621 
L 107.572954 163.975143 
L 107.636375 165.75716 
L 107.763218 152.343448 
L 107.890061 165.944722 
L 107.953482 153.750341 
L 108.016904 154.969672 
L 108.207168 170.82276 
L 108.460854 158.44046 
L 108.524276 159.472586 
L 108.651119 174.48111 
L 108.71454 173.074038 
L 108.968226 178.795927 
L 109.095069 154.313384 
L 109.15849 155.720276 
L 109.221912 165.944722 
L 109.285333 165.194474 
L 109.348755 161.067041 
L 109.475598 165.100515 
L 109.539019 163.224538 
L 109.665862 180.202997 
L 109.729284 176.075743 
L 109.792705 174.012026 
L 109.856127 175.700441 
L 109.919548 173.824465 
L 109.98297 174.105807 
L 110.046391 175.419098 
L 110.109813 174.012026 
L 110.236656 175.794221 
L 110.300077 174.856233 
L 110.363499 177.951719 
L 110.490342 164.350267 
L 110.553763 169.321907 
L 110.617184 176.544647 
L 110.680606 176.450866 
L 110.807449 173.824465 
L 110.87087 175.700441 
L 110.997713 165.475996 
L 111.061135 168.665262 
L 111.251399 185.925064 
L 111.378242 172.042091 
L 111.441664 167.633493 
L 111.505085 169.41551 
L 111.822193 181.422507 
L 111.885614 181.047383 
L 112.075878 164.631788 
L 112.202721 176.075743 
L 112.266143 174.293369 
L 112.329564 174.105807 
L 112.392986 176.357086 
L 112.58325 163.881184 
L 112.710093 171.385446 
L 112.773515 171.103924 
L 112.900358 159.191065 
L 112.963779 164.819351 
L 113.027201 163.599662 
L 113.090622 161.723686 
L 113.217465 181.891591 
L 113.407729 165.100515 
L 113.471151 164.443869 
L 113.597994 158.721982 
L 113.661415 160.222834 
L 113.724837 159.566188 
L 113.85168 150.185951 
L 113.978523 154.688507 
L 114.232209 174.856233 
L 114.359052 160.691917 
L 114.422473 134.708344 
L 114.485895 138.741817 
L 114.803002 158.53442 
L 114.929845 149.716867 
L 114.993266 149.904429 
L 115.056688 149.435346 
L 115.183531 152.906134 
L 115.437217 140.14871 
L 115.500638 140.055108 
L 115.56406 141.462001 
L 115.627481 140.617793 
L 115.690903 137.428527 
L 115.754324 139.304503 
L 115.817746 139.867546 
L 115.944589 131.612679 
L 116.00801 134.426822 
L 116.071432 128.423413 
L 116.134853 129.26762 
L 116.198275 136.677923 
L 116.261696 133.019573 
L 116.325117 130.017867 
L 116.45196 142.775291 
L 116.705646 129.549141 
L 116.769068 133.301094 
L 116.895911 130.299389 
L 117.086175 141.649562 
L 117.149597 143.994622 
L 117.403283 132.456887 
L 117.72039 140.524191 
L 117.783811 140.430232 
L 117.910654 138.085172 
L 118.037497 148.778701 
L 118.100919 145.776996 
L 118.16434 139.492065 
L 118.227762 141.180836 
L 118.418026 149.81047 
L 118.544869 154.688507 
L 118.608291 150.655034 
L 118.671712 152.155886 
L 118.735134 158.815941 
L 118.798555 155.438755 
L 118.861977 150.373512 
L 118.925398 153.375217 
L 118.98882 155.720276 
L 119.179084 151.499241 
L 119.242505 149.904429 
L 119.369348 154.87607 
L 119.559613 140.14871 
L 119.749877 159.003503 
L 119.940142 150.279553 
L 120.003563 147.55937 
L 120.066985 148.028453 
L 120.130406 149.81047 
L 120.257249 147.277848 
L 120.447514 153.468819 
L 120.574356 149.153824 
L 120.701199 152.343448 
L 120.764621 151.592843 
L 120.828042 154.969672 
L 120.891464 154.78211 
L 121.018307 148.778701 
L 121.14515 151.967967 
L 121.271993 146.621203 
L 121.398836 155.345153 
L 121.462257 153.750341 
L 121.525679 149.81047 
L 121.5891 150.373512 
L 121.715943 151.592843 
L 121.842786 141.462001 
L 121.906208 145.964557 
L 121.969629 150.842596 
L 122.03305 143.80706 
L 122.096472 144.839186 
L 122.159893 152.718572 
L 122.223315 147.55937 
L 122.286736 143.056812 
L 122.413579 155.157591 
L 122.477001 152.155886 
L 122.603844 183.392443 
L 122.667265 185.737502 
L 122.794108 197.462978 
L 122.85753 191.459569 
L 122.920951 191.834692 
L 123.047794 198.588707 
L 123.111216 195.586823 
L 123.174637 196.618771 
L 123.30148 197.932061 
L 123.364902 199.620475 
L 123.555166 214.722959 
L 123.682009 207.781383 
L 123.74543 210.314183 
L 123.808852 207.030956 
L 123.872273 208.62559 
L 123.999116 218.193568 
L 124.062538 216.786497 
L 124.189381 225.88557 
L 124.252802 224.853623 
L 124.316224 223.25899 
L 124.379645 227.667765 
L 124.443067 225.979351 
L 124.506488 219.506859 
L 124.56991 223.165209 
L 124.633331 230.012826 
L 124.696753 228.043068 
L 124.760174 226.260695 
L 124.823596 226.91734 
L 124.887017 225.88557 
L 125.077281 232.733187 
L 125.140703 231.326115 
L 125.267546 222.883866 
L 125.394389 237.329525 
L 125.521232 228.699714 
L 125.584653 235.265987 
L 125.711496 221.195273 
L 125.774918 224.290937 
L 126.028604 217.630883 
L 126.092025 216.880456 
L 126.155447 220.538806 
L 126.218868 219.69442 
L 126.345711 214.628999 
L 126.409132 215.754728 
L 126.535975 221.289233 
L 126.599397 221.101492 
L 126.72624 215.848509 
L 126.789661 216.223811 
L 126.979926 223.25899 
L 127.043347 221.570575 
L 127.106769 216.692716 
L 127.233612 224.290937 
L 127.360455 216.880456 
L 127.423876 218.381309 
L 127.740984 207.875164 
L 127.804405 207.124737 
L 127.931248 202.903523 
L 128.058091 208.250466 
L 128.121512 207.687602 
L 128.248355 209.000892 
L 128.311777 209.094673 
L 128.375198 206.937175 
L 128.502041 198.119624 
L 128.565463 204.592116 
L 128.628884 200.277121 
L 128.692306 196.52499 
L 128.755727 199.9956 
L 128.819149 197.65054 
L 129.072835 185.925064 
L 129.136256 190.333841 
L 129.32652 172.886298 
L 129.453363 175.512879 
L 129.516785 175.60666 
L 129.580206 174.762452 
L 129.707049 176.357086 
L 129.960735 168.665262 
L 130.024157 161.817646 
L 130.087578 164.819351 
L 130.151 168.852824 
L 130.277843 160.410396 
L 130.341264 163.224538 
L 130.404686 162.005207 
L 130.59495 147.746932 
L 130.658371 148.966262 
L 130.912057 158.159296 
L 130.975479 155.438755 
L 131.292586 165.100515 
L 131.356008 163.693621 
L 131.799958 141.55596 
L 131.86338 141.55596 
L 131.990223 138.085172 
L 132.053644 139.773587 
L 132.117065 137.991212 
L 132.30733 129.455182 
L 132.370751 130.768472 
L 132.434173 130.111827 
L 132.561016 128.610975 
L 132.624437 128.892497 
L 132.687859 128.704934 
L 132.75128 127.95433 
L 132.878123 128.892497 
L 133.004966 115.665989 
L 133.068388 116.510197 
L 133.258652 118.011049 
L 133.639181 103.096485 
L 133.702602 100.845027 
L 133.766024 102.34588 
L 133.956288 110.694349 
L 134.083131 116.88532 
L 134.146553 115.478427 
L 134.273396 120.168547 
L 134.400239 113.883616 
L 134.527082 116.697758 
L 134.590503 114.165137 
L 134.653925 114.446658 
L 134.717346 117.260802 
L 134.780768 117.073239 
L 135.097875 105.066063 
L 135.224718 118.480132 
L 135.288139 116.791718 
L 135.478404 107.505083 
L 135.605247 103.471608 
L 135.668668 103.940692 
L 135.795511 106.191792 
L 135.858933 104.503377 
L 135.922354 105.629106 
L 136.049197 108.067768 
L 136.17604 105.722708 
L 136.366304 120.262506 
L 136.556569 114.540261 
L 136.683412 127.95433 
L 136.746833 127.391644 
L 136.810255 126.453477 
L 137.000519 139.116941 
L 137.063941 138.366694 
L 137.190784 146.340039 
L 137.317627 139.586025 
L 137.571313 152.249489 
L 137.634734 156.846005 
L 137.698156 156.095401 
L 137.761577 150.655034 
L 137.824998 150.748637 
L 138.015263 155.157591 
L 138.268949 175.700441 
L 138.395792 174.105807 
L 138.459213 174.574891 
L 138.649478 187.895 
L 138.712899 186.018845 
L 138.776321 81.427549 
L 138.839742 85.367421 
L 138.966585 78.988887 
L 139.030007 81.239988 
L 139.220271 67.075671 
L 139.283692 70.827624 
L 139.347114 70.171336 
L 139.537378 61.541345 
L 139.6008 61.822509 
L 139.791064 70.921583 
L 139.854486 70.452499 
L 139.981329 76.174745 
L 140.108172 89.119373 
L 140.171593 87.149795 
L 140.425279 98.312407 
L 140.615544 109.099894 
L 140.932651 128.141892 
L 140.996072 128.610975 
L 141.249758 153.281257 
L 141.31318 150.748637 
L 141.376601 151.780405 
L 141.503444 163.881184 
L 141.566866 161.630084 
L 141.630287 161.536124 
L 141.947395 193.241764 
L 142.010816 196.33725 
L 142.074238 194.836397 
L 142.137659 196.993895 
L 142.20108 196.055907 
L 142.264502 193.804628 
L 142.391345 205.342542 
L 142.454766 203.560169 
L 142.581609 194.742616 
L 142.708452 210.407964 
L 142.771874 206.468092 
L 142.835295 209.000892 
L 142.962138 222.790085 
L 143.02556 220.069723 
L 143.088981 220.257285 
L 143.152403 221.101492 
L 143.279246 227.573985 
L 143.342667 225.322706 
L 143.406089 222.977647 
L 143.532932 238.736596 
L 143.659774 230.200565 
L 143.786617 240.894094 
L 143.91346 236.297756 
L 143.976882 237.517265 
L 144.040303 236.954401 
L 144.103725 233.671175 
L 144.167146 234.046478 
L 144.230568 238.924337 
L 144.293989 238.361473 
L 144.357411 236.954401 
L 144.547675 250.931156 
L 144.674518 249.14896 
L 144.73794 252.150665 
L 144.801361 250.27451 
L 144.928204 237.89239 
L 144.991625 246.241037 
L 145.055047 244.646225 
L 145.18189 230.106785 
L 145.308733 237.235744 
L 145.372154 235.641111 
L 145.498997 226.91734 
L 145.62584 232.733187 
L 145.752683 225.510268 
L 145.816105 228.418192 
L 145.879526 226.448435 
L 146.006369 218.850214 
L 146.069791 220.069723 
L 146.133212 219.037776 
L 146.196634 220.726368 
L 146.323477 229.262399 
L 146.386898 226.91734 
L 146.513741 215.754728 
L 146.577162 216.692716 
L 146.640584 218.943995 
L 146.830848 212.096378 
L 146.89427 160.879479 
L 146.957691 165.663557 
L 147.084534 161.723686 
L 147.147956 161.911248 
L 147.211377 162.005207 
L 147.274799 163.130936 
L 147.33822 162.943017 
L 147.401642 161.536124 
L 147.528485 154.125465 
L 147.655328 167.351971 
L 147.718749 165.475996 
L 147.845592 159.191065 
L 147.972435 166.226243 
L 148.035856 165.100515 
L 148.099278 163.599662 
L 148.162699 164.537829 
L 148.226121 164.912952 
L 148.352964 163.130936 
L 148.416385 162.192769 
L 148.796914 173.730683 
L 148.923757 161.630084 
L 148.987179 164.443869 
L 149.304286 178.233241 
L 149.367707 177.857938 
L 149.431129 177.013731 
L 149.49455 179.546531 
L 149.557972 179.171229 
L 149.684815 166.789286 
L 149.811658 175.700441 
L 149.938501 170.541238 
L 150.065344 178.0455 
L 150.192187 173.2616 
L 150.255608 180.015436 
L 150.31903 179.827874 
L 150.445873 172.792516 
L 150.509294 176.91995 
L 150.572716 176.357086 
L 150.636137 173.074038 
L 150.699559 175.419098 
L 150.76298 180.296957 
L 150.826401 178.608364 
L 150.889823 174.38715 
L 150.953244 176.075743 
L 151.016666 176.544647 
L 151.080087 173.636724 
L 151.143509 175.043796 
L 151.20693 177.295074 
L 151.397195 170.259716 
L 151.460616 173.824465 
L 151.524038 171.385446 
L 151.587459 167.07045 
L 151.777724 177.107512 
L 151.841145 177.107512 
L 151.904567 176.263305 
L 152.03141 168.571302 
L 152.094831 162.661853 
L 152.158252 165.100515 
L 152.285095 176.075743 
L 152.729046 160.316793 
L 152.792467 160.128874 
L 152.982732 163.881184 
L 153.046153 162.943017 
L 153.236418 161.911248 
L 153.299839 162.192769 
L 153.363261 162.09881 
L 153.426682 161.723686 
L 153.553525 163.975143 
L 153.680368 162.09881 
L 153.807211 165.382036 
L 154.124318 160.035272 
L 154.251161 155.345153 
L 154.378004 157.221129 
L 154.504847 155.063632 
L 154.821955 176.169524 
L 154.885376 175.231536 
L 154.948798 173.542943 
L 155.012219 139.023339 
L 155.07564 142.587729 
L 155.139062 140.055108 
L 155.202483 140.992917 
L 155.329326 152.249489 
L 155.646434 138.366694 
L 155.773277 152.718572 
L 155.90012 138.83542 
L 156.026963 143.90102 
L 156.090384 143.056812 
L 156.217227 150.279553 
L 156.280649 148.497536 
L 156.34407 151.874365 
L 156.407492 150.467115 
L 156.534334 139.492065 
L 156.597756 140.711753 
L 156.661177 137.522486 
L 157.041706 159.472586 
L 157.422235 137.991212 
L 157.549078 142.587729 
L 157.6125 140.711753 
L 157.739343 155.907838 
L 157.802764 149.716867 
L 157.929607 137.803651 
L 158.119871 141.368398 
L 158.246714 138.929379 
L 158.436979 142.400167 
L 158.563822 143.80706 
L 158.690665 152.718572 
L 158.817508 149.247784 
L 158.880929 150.842596 
L 158.944351 150.748637 
L 159.007772 150.842596 
L 159.071194 150.373512 
L 159.198037 146.996684 
L 159.32488 153.187656 
L 159.451722 149.81047 
L 159.578565 154.406986 
L 159.641987 153.375217 
L 159.832251 150.185951 
L 159.895673 151.311322 
L 159.959094 149.81047 
L 160.085937 138.178774 
L 160.149359 139.398462 
L 160.21278 141.55596 
L 160.339623 154.031862 
L 160.403045 152.53101 
L 160.529888 148.87266 
L 160.656731 150.561074 
L 160.846995 138.178774 
L 161.037259 152.155886 
L 161.164102 152.061926 
L 161.227524 153.187656 
L 161.290945 152.906134 
L 161.417788 164.725391 
L 161.48121 162.567893 
L 161.861739 147.934493 
L 161.988582 160.035272 
L 162.052003 157.502651 
L 162.178846 147.934493 
L 162.242267 151.311322 
L 162.305689 150.467115 
L 162.495953 138.83542 
L 162.559375 139.210901 
L 162.622796 139.961148 
L 162.749639 153.375217 
L 162.813061 151.12376 
L 162.876482 148.685098 
L 163.003325 163.318498 
L 163.066747 163.224538 
L 163.19359 149.998389 
L 163.320433 163.50606 
L 163.447276 155.157591 
L 163.574119 163.881184 
L 163.63754 160.597957 
L 163.700961 162.661853 
L 163.764383 166.226243 
L 163.827804 164.912952 
L 163.891226 163.224538 
L 163.954647 164.162705 
L 164.08149 171.94831 
L 164.208333 157.783815 
L 164.271755 159.941312 
L 164.335176 164.162705 
L 164.398598 162.286372 
L 164.588862 154.031862 
L 164.779127 165.006912 
L 164.842548 164.162705 
L 164.90597 163.4121 
L 164.969391 163.881184 
L 165.032813 163.50606 
L 165.096234 161.536124 
L 165.286498 169.697031 
L 165.34992 167.633493 
L 165.476763 162.661853 
L 165.730449 167.821055 
L 165.857292 160.973439 
L 166.110978 174.105807 
L 166.174399 176.91995 
L 166.237821 175.419098 
L 166.554928 151.874365 
L 166.681771 160.973439 
L 166.872035 158.628022 
L 166.935457 157.690212 
L 167.252564 163.224538 
L 167.379407 151.874365 
L 167.442829 154.969672 
L 167.569672 163.318498 
L 167.633093 160.597957 
L 167.696515 161.161001 
L 167.823358 165.194474 
L 168.013622 163.224538 
L 168.077043 163.50606 
L 168.140465 162.286372 
L 168.267308 151.405282 
L 168.394151 160.504355 
L 168.520994 151.686803 
L 168.647837 161.161001 
L 168.711258 159.003503 
L 168.77468 161.161001 
L 168.838101 167.821055 
L 168.901523 167.633493 
L 169.028366 162.661853 
L 169.091787 165.288434 
L 169.155209 164.537829 
L 169.21863 162.192769 
L 169.345473 175.512879 
L 169.408894 173.636724 
L 169.535737 171.94831 
L 169.66258 163.50606 
L 169.726002 170.82276 
L 169.789423 169.41551 
L 169.916266 161.067041 
L 170.043109 164.537829 
L 170.169952 159.191065 
L 170.296795 173.824465 
L 170.360217 169.697031 
L 170.48706 157.971734 
L 170.550481 161.161001 
L 170.677324 156.001798 
L 170.740746 161.067041 
L 170.804167 159.753751 
L 170.93101 151.311322 
L 170.994431 153.375217 
L 171.057853 152.53101 
L 171.248117 147.46541 
L 171.37496 150.373512 
L 171.501803 152.437051 
L 171.565225 152.343448 
L 171.628646 151.967967 
L 171.755489 154.969672 
L 171.882332 169.79099 
L 171.945754 167.351971 
L 172.19944 153.468819 
L 172.326282 162.286372 
L 172.389704 159.284667 
L 172.516547 154.125465 
L 172.706811 165.851119 
L 172.897076 162.380332 
L 173.023919 171.197883 
L 173.08734 169.227948 
L 173.150762 164.162705 
L 173.214183 164.725391 
L 173.277605 167.539534 
L 173.341026 166.882888 
L 173.404448 166.038682 
L 173.784976 150.467115 
L 173.848398 152.343448 
L 173.911819 149.716867 
L 174.038662 138.554256 
L 174.165505 140.992917 
L 174.228927 138.178774 
L 174.292348 138.647858 
L 174.35577 139.961148 
L 174.419191 137.897611 
L 174.482613 140.899315 
L 174.609456 153.187656 
L 174.672877 149.716867 
L 174.736299 151.030158 
L 174.79972 154.125465 
L 174.989985 138.460296 
L 175.116828 145.21431 
L 175.24367 132.83201 
L 175.370513 138.366694 
L 175.497356 128.892497 
L 175.560778 131.51872 
L 175.624199 129.549141 
L 175.687621 125.327748 
L 175.877885 141.649562 
L 176.004728 138.83542 
L 176.06815 139.492065 
L 176.194993 136.021634 
L 176.321836 141.180836 
L 176.385257 139.961148 
L 176.575521 136.771882 
L 176.638943 136.58432 
L 176.702364 138.554256 
L 176.829207 135.740113 
L 176.95605 154.87607 
L 177.082893 141.274439 
L 177.209736 154.500946 
L 177.273158 150.842596 
L 177.336579 144.463706 
L 177.400001 145.776996 
L 177.526844 153.000093 
L 177.653687 146.715162 
L 177.78053 151.686803 
L 177.907373 150.279553 
L 178.034215 151.311322 
L 178.161058 147.746932 
L 178.22448 148.403576 
L 178.287901 149.153824 
L 178.414744 146.527601 
L 178.541587 136.959444 
L 178.605009 141.274439 
L 178.858695 160.316793 
L 178.985538 154.500946 
L 179.048959 156.282962 
L 179.366067 138.741817 
L 179.429488 139.773587 
L 179.492909 137.991212 
L 179.619752 141.180836 
L 179.746595 124.671103 
L 179.873438 137.803651 
L 180.000281 125.515311 
L 180.063703 127.766767 
L 180.127124 130.393349 
L 180.253967 118.667694 
L 180.317389 122.701167 
L 180.38081 128.986098 
L 180.444232 126.359517 
L 180.507653 118.761653 
L 180.571075 119.605861 
L 180.697918 131.049994 
L 180.824761 125.515311 
L 180.888182 126.547436 
L 180.951603 123.076649 
L 181.015025 123.733294 
L 181.141868 130.674512 
L 181.205289 129.642744 
L 181.268711 130.393349 
L 181.395554 137.710048 
L 181.522397 128.704934 
L 181.585818 130.205786 
L 181.776083 140.430232 
L 181.902926 137.803651 
L 182.029769 142.118646 
L 182.09319 141.462001 
L 182.220033 138.460296 
L 182.663983 157.033567 
L 182.727405 154.406986 
L 182.854248 150.279553 
L 182.917669 150.655034 
L 182.981091 152.624612 
L 183.044512 152.437051 
L 183.171355 148.403576 
L 183.298198 151.592843 
L 183.425041 150.279553 
L 183.615306 164.068746 
L 183.678727 161.630084 
L 183.742149 160.504355 
L 184.059256 174.293369 
L 184.122677 177.107512 
L 184.186099 173.636724 
L 184.376363 187.332136 
L 184.566628 173.355381 
L 184.630049 173.636724 
L 184.693471 174.199588 
L 184.756892 174.105807 
L 184.883735 173.730683 
L 185.200842 203.466388 
L 185.264264 202.715961 
L 185.391107 200.652245 
L 185.51795 197.556759 
L 185.581371 198.963831 
L 185.708214 190.802924 
L 185.771636 192.022433 
L 185.898479 197.83828 
L 186.025322 194.461274 
L 186.279008 201.49663 
L 186.342429 202.997483 
L 186.405851 199.245173 
L 186.469272 199.432914 
L 186.532694 204.310595 
L 186.596115 202.997483 
L 186.659536 196.52499 
L 186.722958 196.993895 
L 186.913222 208.81333 
L 187.040065 202.715961 
L 187.23033 210.407964 
L 187.420594 205.342542 
L 187.484016 152.249489 
L 187.547437 154.219424 
L 187.67428 143.713458 
L 187.801123 151.874365 
L 187.927966 140.055108 
L 187.991388 141.743522 
L 188.054809 138.647858 
L 188.11823 138.929379 
L 188.245073 153.468819 
L 188.371916 140.055108 
L 188.435338 143.431937 
L 188.562181 154.688507 
L 188.689024 149.998389 
L 188.752445 149.81047 
L 188.879288 147.277848 
L 189.006131 151.405282 
L 189.132974 148.591139 
L 189.196396 151.592843 
L 189.259817 151.311322 
L 189.323239 151.405282 
L 189.450082 159.003503 
L 189.576924 150.655034 
L 189.703767 154.594548 
L 189.83061 164.162705 
L 189.894032 162.005207 
L 190.020875 165.382036 
L 190.147718 162.380332 
L 190.274561 148.309617 
L 190.401404 154.500946 
L 190.464825 153.187656 
L 190.528247 153.281257 
L 190.65509 165.194474 
L 190.718511 163.318498 
L 190.781933 162.943017 
L 190.845354 169.040386 
L 190.908776 168.102219 
L 190.972197 160.316793 
L 191.035618 161.723686 
L 191.162461 169.884593 
L 191.225883 168.758864 
L 191.289304 170.259716 
L 191.479569 161.536124 
L 191.54299 163.130936 
L 191.669833 161.254602 
L 191.796676 166.13264 
L 191.860098 163.787224 
L 191.923519 163.881184 
L 192.050362 172.323612 
L 192.240627 158.721982 
L 192.367469 174.668671 
L 192.430891 173.074038 
L 192.621155 159.284667 
L 192.684577 155.532715 
L 192.747998 155.814236 
L 192.874841 162.943017 
L 192.938263 162.755455 
L 193.065106 165.100515 
L 193.25537 157.690212 
L 193.318792 158.721982 
L 193.445635 163.599662 
L 193.509056 161.911248 
L 193.572478 162.09881 
L 193.699321 162.849415 
L 193.762742 162.47429 
L 193.889585 149.998389 
L 193.953006 150.279553 
L 194.079849 153.093696 
L 194.206692 164.443869 
L 194.333535 161.817646 
L 194.460378 164.631788 
L 194.587221 153.562779 
L 194.650643 155.251193 
L 194.714064 157.408691 
L 194.840907 149.716867 
L 194.904329 151.592843 
L 195.094593 137.240965 
L 195.348279 151.874365 
L 195.538543 157.033567 
L 195.601965 109.56862 
L 195.665386 117.541965 
L 195.792229 120.356108 
L 195.919072 133.113532 
L 195.982494 131.894201 
L 196.23618 120.825192 
L 196.363023 129.455182 
L 196.616709 117.166842 
L 196.68013 117.166842 
L 196.743551 120.450068 
L 196.806973 119.511901 
L 196.870394 116.604156 
L 196.933816 117.729885 
L 196.997237 118.667694 
L 197.187502 114.915741 
L 197.250923 114.071535 
L 197.568031 126.453477 
L 197.631452 126.359517 
L 197.694874 126.359517 
L 197.885138 115.478427 
L 197.94856 117.729885 
L 198.011981 118.386173 
L 198.138824 114.63422 
L 198.329088 128.704934 
L 198.39251 124.952625 
L 198.455931 124.20202 
L 198.582774 110.881911 
L 198.646196 116.697758 
L 198.709617 121.388235 
L 198.773039 117.823487 
L 198.899882 126.265915 
L 198.963303 119.980984 
L 199.026725 121.106713 
L 199.090146 129.549141 
L 199.153568 128.423413 
L 199.216989 127.391644 
L 199.280411 130.674512 
L 199.407254 117.448363 
L 199.534097 133.582615 
L 199.660939 127.016163 
L 199.724361 131.51872 
L 199.787782 129.455182 
L 199.851204 128.986098 
L 199.914625 135.083467 
L 199.978047 134.239261 
L 200.10489 126.453477 
L 200.168311 131.51872 
L 200.231733 130.956034 
L 200.295154 130.956034 
L 200.358576 131.425117 
L 200.421997 127.95433 
L 200.54884 135.17707 
L 200.612262 131.800242 
L 200.739105 124.483542 
L 200.99279 140.992917 
L 201.056212 139.961148 
L 201.183055 126.359517 
L 201.246476 128.704934 
L 201.373319 139.586025 
L 201.436741 135.17707 
L 201.500162 125.421708 
L 201.563584 128.423413 
L 201.690427 138.366694 
L 201.753848 136.115237 
L 201.81727 136.677923 
L 201.944113 138.83542 
L 202.070956 146.246079 
L 202.197799 133.113532 
L 202.26122 133.864136 
L 202.388063 142.869251 
L 202.514906 133.488656 
L 202.641749 142.587729 
L 202.768592 136.865841 
L 202.832013 136.49036 
L 202.958856 139.398462 
L 203.022278 136.115237 
L 203.085699 138.460296 
L 203.149121 136.677923 
L 203.212542 127.391644 
L 203.275964 132.738408 
L 203.339385 141.462001 
L 203.466228 131.51872 
L 203.593071 144.370103 
L 203.656493 139.116941 
L 203.719914 159.566188 
L 203.783336 157.971734 
L 203.910178 168.477701 
L 203.9736 166.320203 
L 204.037021 164.819351 
L 204.163864 171.010321 
L 204.227286 170.82276 
L 204.41755 161.911248 
L 204.480972 163.693621 
L 204.544393 165.006912 
L 204.671236 175.888181 
L 204.734658 175.137577 
L 204.861501 163.787224 
L 204.924922 165.663557 
L 204.988344 161.348562 
L 205.051765 165.569598 
L 205.115187 178.13946 
L 205.178608 172.698736 
L 205.24203 161.161001 
L 205.305451 167.821055 
L 205.368872 177.670376 
L 205.432294 174.668671 
L 205.495715 174.105807 
L 205.559137 180.015436 
L 205.68598 162.567893 
L 205.749401 165.75716 
L 205.812823 176.450866 
L 205.876244 175.794221 
L 205.939666 169.603072 
L 206.003087 169.79099 
L 206.066509 171.479227 
L 206.320195 164.537829 
L 206.383616 165.475996 
L 206.510459 170.072155 
L 206.637302 160.222834 
L 206.764145 179.640312 
L 206.954409 160.879479 
L 207.017831 158.815941 
L 207.144674 162.286372 
L 207.271517 148.497536 
L 207.334938 154.406986 
L 207.39836 154.219424 
L 207.525203 149.435346 
L 207.588624 149.529306 
L 207.715467 152.249489 
L 207.84231 147.277848 
L 207.905732 149.247784 
L 207.969153 153.187656 
L 208.032575 152.249489 
L 208.222839 151.21772 
L 208.28626 153.281257 
L 208.413103 166.695326 
L 208.603368 150.936198 
L 208.666789 154.125465 
L 208.793632 142.212606 
L 208.857054 145.683394 
L 208.920475 146.340039 
L 209.047318 137.240965 
L 209.174161 142.962853 
L 209.301004 152.53101 
L 209.427847 147.184246 
L 209.491269 151.592843 
L 209.618111 138.929379 
L 209.681533 145.870956 
L 209.744954 156.095401 
L 209.808376 150.373512 
L 209.871797 146.15212 
L 209.935219 151.030158 
L 209.99864 150.655034 
L 210.062062 148.778701 
L 210.252326 152.343448 
L 210.315748 152.249489 
L 210.506012 137.991212 
L 210.632855 145.870956 
L 210.696277 145.589434 
L 210.759698 141.462001 
L 210.886541 154.406986 
L 211.013384 139.492065 
L 211.076805 145.401872 
L 211.140227 146.715162 
L 211.203648 142.118646 
L 211.330491 149.529306 
L 211.457334 136.771882 
L 211.584177 146.340039 
L 211.71102 136.302798 
L 211.774442 137.240965 
L 212.028128 149.060222 
L 212.091549 148.966262 
L 212.154971 148.497536 
L 212.218392 149.153824 
L 212.281814 151.030158 
L 212.345235 150.936198 
L 212.408657 150.467115 
L 212.535499 157.971734 
L 212.662342 147.840891 
L 212.725764 151.405282 
L 212.789185 149.998389 
L 212.852607 146.340039 
L 212.916028 148.497536 
L 213.042871 154.594548 
L 213.169714 139.116941 
L 213.296557 144.651267 
L 213.359979 139.304503 
L 213.486822 152.718572 
L 213.550243 150.561074 
L 213.613665 149.81047 
L 213.677086 152.061926 
L 213.803929 146.340039 
L 213.867351 149.716867 
L 213.930772 149.341743 
L 213.994193 149.153824 
L 214.057615 152.155886 
L 214.184458 133.301094 
L 214.247879 138.647858 
L 214.311301 143.90102 
L 214.374722 140.805356 
L 214.438144 141.462001 
L 214.501565 143.431937 
L 214.69183 134.520425 
L 214.818673 128.798537 
L 214.882094 128.329453 
L 214.945516 129.830306 
L 215.072359 140.14871 
L 215.13578 137.616089 
L 215.262623 141.837124 
L 215.326045 140.055108 
L 215.452887 150.279553 
L 215.57973 134.708344 
L 215.643152 142.025044 
L 215.706573 141.649562 
L 215.769995 138.178774 
L 215.833416 140.617793 
L 215.896838 142.587729 
L 216.023681 135.833715 
L 216.150524 139.492065 
L 216.213945 134.426822 
L 216.277367 134.520425 
L 216.40421 143.713458 
L 216.721317 128.423413 
L 216.84816 138.272734 
L 217.101846 127.203725 
L 217.228689 141.180836 
L 217.29211 135.740113 
L 217.355532 128.141892 
L 217.482375 144.463706 
L 217.545796 142.306208 
L 217.672639 139.586025 
L 217.799482 146.058517 
L 217.926325 151.592843 
L 218.053168 149.341743 
L 218.180011 156.470524 
L 218.243432 153.468819 
L 218.306854 154.219424 
L 218.370275 156.658443 
L 218.433697 154.969672 
L 218.497118 151.780405 
L 218.56054 153.750341 
L 218.687383 164.631788 
L 218.941069 152.812174 
L 219.067912 157.127169 
L 219.131333 149.998389 
L 219.194755 154.688507 
L 219.258176 163.599662 
L 219.321598 162.286372 
L 219.448441 163.599662 
L 219.511862 161.817646 
L 219.638705 165.100515 
L 219.702126 163.4121 
L 219.828969 173.167819 
L 219.892391 166.601367 
L 219.955812 140.805356 
L 220.019234 141.462001 
L 220.146077 128.329453 
L 220.209498 130.017867 
L 220.27292 127.485246 
L 220.399763 113.977575 
L 220.526606 126.828601 
L 220.653449 114.165137 
L 220.71687 114.821783 
L 220.780292 116.041113 
L 220.843713 115.572387 
L 221.033978 116.88532 
L 221.097399 117.917447 
L 221.16082 116.604156 
L 221.224242 118.105008 
L 221.414506 128.423413 
L 221.541349 116.604156 
L 221.604771 119.980984 
L 221.795035 132.83201 
L 221.858457 133.770177 
L 221.921878 130.956034 
L 222.238986 143.713458 
L 222.302407 142.587729 
L 222.365829 143.619498 
L 222.492672 151.967967 
L 222.556093 150.467115 
L 222.682936 151.967967 
L 222.746357 146.246079 
L 222.809779 149.435346 
L 222.8732 159.566188 
L 222.936622 157.315089 
L 223.000043 150.091991 
L 223.126886 168.196179 
L 223.190308 164.819351 
L 223.253729 160.597957 
L 223.317151 164.162705 
L 223.380572 164.068746 
L 223.443994 159.566188 
L 223.507415 160.410396 
L 223.570837 166.038682 
L 223.634258 165.100515 
L 223.761101 154.500946 
L 223.887944 166.413805 
L 223.951366 158.815941 
L 224.014787 159.472586 
L 224.078208 165.569598 
L 224.14163 163.50606 
L 224.205051 161.911248 
L 224.268473 163.693621 
L 224.331894 162.380332 
L 224.395316 159.941312 
L 224.458737 162.380332 
L 224.522159 162.09881 
L 224.58558 162.943017 
L 224.712423 172.511174 
L 224.839266 160.504355 
L 225.029531 176.732388 
L 225.156374 159.097105 
L 225.283217 171.291665 
L 225.346638 167.914657 
L 225.473481 160.597957 
L 225.663745 177.670376 
L 225.727167 173.074038 
L 225.85401 179.640312 
L 226.044274 172.698736 
L 226.107696 171.197883 
L 226.171117 173.074038 
L 226.234539 172.135871 
L 226.488225 159.003503 
L 226.615068 170.635198 
L 226.741911 161.161001 
L 226.932175 171.103924 
L 226.995596 176.169524 
L 227.122439 161.630084 
L 227.185861 161.817646 
L 227.249282 161.067041 
L 227.56639 175.700441 
L 227.629811 176.075743 
L 227.820076 162.849415 
L 227.883497 167.07045 
L 227.946919 172.323612 
L 228.01034 165.100515 
L 228.073762 141.931084 
L 228.137183 143.056812 
L 228.264026 134.426822 
L 228.390869 149.904429 
L 228.45429 146.527601 
L 228.581133 136.771882 
L 228.644555 140.524191 
L 228.707976 139.304503 
L 228.771398 137.053403 
L 228.961662 141.931084 
L 229.025084 140.430232 
L 229.151927 144.182541 
L 229.27877 138.085172 
L 229.405613 149.904429 
L 229.469034 145.776996 
L 229.595877 133.676217 
L 229.786141 151.874365 
L 229.912984 137.428527 
L 229.976406 145.495474 
L 230.039827 144.370103 
L 230.103249 139.210901 
L 230.16667 141.368398 
L 230.230092 143.150415 
L 230.293513 138.460296 
L 230.356935 138.647858 
L 230.483778 155.438755 
L 230.610621 147.55937 
L 230.737464 155.814236 
L 230.864307 142.775291 
L 230.99115 153.187656 
L 231.117993 149.529306 
L 231.244835 152.718572 
L 231.371678 148.122055 
L 231.498521 157.033567 
L 231.625364 149.060222 
L 231.688786 152.812174 
L 231.752207 151.499241 
L 231.815629 151.21772 
L 231.942472 159.003503 
L 232.069315 150.655034 
L 232.196158 157.127169 
L 232.323001 151.780405 
L 232.449844 153.937903 
L 232.513265 151.405282 
L 232.576686 152.53101 
L 232.640108 155.814236 
L 232.703529 155.438755 
L 232.830372 150.561074 
L 232.893794 152.53101 
L 233.020637 163.787224 
L 233.337744 145.495474 
L 233.464587 158.252898 
L 233.528009 157.127169 
L 233.654852 147.840891 
L 233.718273 149.341743 
L 233.781695 151.21772 
L 233.908538 141.274439 
L 233.971959 142.775291 
L 234.098802 152.812174 
L 234.225645 141.274439 
L 234.352488 156.752046 
L 234.479331 139.961148 
L 234.606174 149.435346 
L 234.669595 149.435346 
L 234.733017 154.219424 
L 234.85986 142.962853 
L 234.923281 148.685098 
L 234.986703 153.656739 
L 235.050124 149.529306 
L 235.113546 150.185951 
L 235.176967 151.311322 
L 235.367232 139.961148 
L 235.494074 144.276143 
L 235.684339 136.58432 
L 235.74776 137.710048 
L 235.938025 156.846005 
L 236.001446 152.624612 
L 236.064868 150.936198 
L 236.128289 151.12376 
L 236.191711 122.044523 
L 236.255132 124.483542 
L 236.445397 138.366694 
L 236.508818 138.554256 
L 236.57224 136.959444 
L 236.635661 138.741817 
L 236.699083 137.897611 
L 236.762504 134.520425 
L 236.889347 142.587729 
L 236.952768 139.116941 
L 237.143033 135.552551 
L 237.269876 139.867546 
L 237.396719 127.672808 
L 237.46014 131.612679 
L 237.523562 131.425117 
L 237.713826 123.170251 
L 237.777248 123.733294 
L 237.904091 121.856961 
L 238.28462 142.775291 
L 238.348041 139.492065 
L 238.538305 126.828601 
L 238.601727 125.702873 
L 238.918834 137.803651 
L 238.982256 136.959444 
L 239.045677 130.111827 
L 239.109099 133.301094 
L 239.17252 139.210901 
L 239.235942 135.271029 
L 239.299363 129.361223 
L 239.362785 131.049994 
L 239.489628 129.549141 
L 239.616471 136.959444 
L 239.679892 129.549141 
L 239.743314 133.207491 
L 239.806735 143.338334 
L 239.870156 142.775291 
L 239.933578 138.647858 
L 239.996999 140.617793 
L 240.060421 142.400167 
L 240.123842 141.274439 
L 240.187264 140.524191 
L 240.314107 142.962853 
L 240.44095 137.897611 
L 240.567793 138.647858 
L 240.694636 137.897611 
L 240.821479 139.773587 
L 240.948322 137.616089 
L 241.075165 142.306208 
L 241.138586 140.992917 
L 241.265429 139.023339 
L 241.32885 139.210901 
L 241.519115 153.562779 
L 241.582536 150.279553 
L 241.772801 147.184246 
L 241.963065 135.458592 
L 242.089908 144.370103 
L 242.216751 152.624612 
L 242.280173 150.467115 
L 242.343594 151.405282 
L 242.407016 152.906134 
L 242.533859 149.904429 
L 242.59728 154.594548 
L 242.660701 154.219424 
L 242.724123 147.46541 
L 242.787544 147.652972 
L 242.850966 148.685098 
L 242.977809 138.83542 
L 243.168073 151.499241 
L 243.231495 151.21772 
L 243.358338 143.338334 
L 243.421759 142.962853 
L 243.485181 143.80706 
L 243.612024 151.686803 
L 243.675445 149.060222 
L 243.738867 150.467115 
L 243.802288 151.030158 
L 244.055974 145.307912 
L 244.182817 152.624612 
L 244.246238 150.561074 
L 244.499924 163.50606 
L 244.563346 164.256307 
L 244.690189 159.003503 
L 244.880453 149.060222 
L 245.007296 162.661853 
L 245.070718 161.911248 
L 245.134139 154.594548 
L 245.197561 156.282962 
L 245.324404 167.821055 
L 245.451247 153.187656 
L 245.578089 161.442165 
L 245.831775 149.435346 
L 245.895197 150.561074 
L 245.958618 156.095401 
L 246.02204 154.219424 
L 246.275726 138.647858 
L 246.339147 139.586025 
L 246.529412 147.652972 
L 246.592833 140.430232 
L 246.656255 142.775291 
L 246.719676 153.281257 
L 246.783098 150.936198 
L 246.846519 144.651267 
L 246.909941 149.247784 
L 246.973362 148.403576 
L 247.036783 142.025044 
L 247.100205 146.621203 
L 247.163626 153.281257 
L 247.227048 152.718572 
L 247.353891 154.500946 
L 247.544155 144.463706 
L 247.607577 138.272734 
L 247.670998 139.210901 
L 247.797841 140.992917 
L 247.861263 140.899315 
L 247.988106 136.58432 
L 248.051527 139.492065 
L 248.114949 137.710048 
L 248.17837 135.646153 
L 248.368634 141.743522 
L 248.432056 140.24267 
L 248.558899 127.766767 
L 248.62232 129.080058 
L 248.749163 135.646153 
L 248.876006 125.890791 
L 249.002849 140.14871 
L 249.066271 137.803651 
L 249.510221 125.515311 
L 249.637064 127.95433 
L 249.763907 125.234147 
L 249.954171 131.800242 
L 250.081014 142.869251 
L 250.207857 127.203725 
L 250.3347 140.899315 
L 250.398122 140.14871 
L 250.461543 140.430232 
L 250.524965 144.088582 
L 250.651808 139.492065 
L 250.715229 141.274439 
L 250.842072 131.049994 
L 250.968915 143.713458 
L 251.095758 124.671103 
L 251.15918 126.265915 
L 251.222601 132.644448 
L 251.286022 129.361223 
L 251.349444 127.203725 
L 251.476287 138.460296 
L 251.539708 127.86037 
L 251.60313 130.580911 
L 251.666551 140.430232 
L 251.729973 139.398462 
L 251.856816 133.957739 
L 251.983659 142.49377 
L 252.173923 127.579206 
L 252.237345 130.674512 
L 252.300766 130.862075 
L 252.364188 129.736703 
L 252.427609 131.987803 
L 252.681295 151.030158 
L 252.744716 151.780405 
L 252.934981 159.753751 
L 253.061824 175.981962 
L 253.125245 171.666967 
L 253.252088 162.47429 
L 253.31551 164.162705 
L 253.442353 156.282962 
L 253.505774 151.405282 
L 253.569196 152.343448 
L 253.632617 153.562779 
L 253.696039 149.622907 
L 253.75946 150.091991 
L 253.822882 154.125465 
L 253.886303 152.061926 
L 253.949725 148.87266 
L 254.013146 149.716867 
L 254.076568 151.21772 
L 254.139989 151.030158 
L 254.266832 149.81047 
L 254.457096 156.752046 
L 254.520518 159.941312 
L 254.583939 159.191065 
L 254.774204 150.185951 
L 254.901047 156.658443 
L 254.964468 155.251193 
L 255.218154 137.147006 
L 255.344997 145.120351 
L 255.47184 132.175365 
L 255.788947 154.031862 
L 255.91579 148.591139 
L 255.979212 153.281257 
L 256.042633 148.87266 
L 256.106055 134.989508 
L 256.169476 135.458592 
L 256.296319 148.966262 
L 256.423162 137.803651 
L 256.550005 142.775291 
L 256.613427 139.773587 
L 256.74027 146.15212 
L 256.803691 141.649562 
L 256.867113 141.743522 
L 257.120798 166.882888 
L 257.247641 147.090287 
L 257.311063 148.966262 
L 257.374484 147.277848 
L 257.437906 149.529306 
L 257.501327 156.282962 
L 257.564749 155.157591 
L 257.691592 149.247784 
L 257.755013 151.874365 
L 257.818435 151.21772 
L 257.945278 148.403576 
L 258.008699 145.495474 
L 258.135542 156.470524 
L 258.198964 154.031862 
L 258.325807 147.090287 
L 258.389228 152.53101 
L 258.579492 208.62559 
L 258.642914 203.372606 
L 258.706335 207.218519 
L 258.769757 208.81333 
L 258.833178 205.811447 
L 258.8966 209.563756 
L 258.960021 209.000892 
L 259.086864 198.119624 
L 259.213707 207.687602 
L 259.34055 197.556759 
L 259.403972 202.997483 
L 259.467393 202.903523 
L 259.721079 182.266714 
L 259.784501 182.642016 
L 259.911343 187.238355 
L 259.974765 186.206586 
L 260.038186 183.017141 
L 260.101608 184.799514 
L 260.165029 185.925064 
L 260.291872 174.574891 
L 260.355294 175.888181 
L 260.418715 176.075743 
L 260.482137 173.730683 
L 260.545558 140.992917 
L 260.60898 148.591139 
L 260.735823 158.53442 
L 260.926087 141.462001 
L 260.989509 148.028453 
L 261.05293 152.812174 
L 261.306616 130.393349 
L 261.433459 128.986098 
L 261.560302 112.758244 
L 261.623723 116.88532 
L 261.687145 114.352699 
L 261.750566 113.602452 
L 261.877409 130.862075 
L 261.940831 126.828601 
L 262.004252 126.922561 
L 262.257938 139.961148 
L 262.384781 138.272734 
L 262.448203 138.741817 
L 262.511624 139.210901 
L 262.638467 143.056812 
L 262.76531 127.95433 
L 262.892153 140.899315 
L 262.955574 138.272734 
L 263.082417 127.485246 
L 263.20926 138.272734 
L 263.336103 126.359517 
L 263.716632 152.061926 
L 263.780054 151.405282 
L 264.097161 127.579206 
L 264.224004 140.055108 
L 264.350847 121.200315 
L 264.47769 131.612679 
L 264.604533 129.080058 
L 264.667954 129.080058 
L 264.731376 131.143596 
L 264.858219 138.272734 
L 264.92164 135.927675 
L 265.048483 155.251193 
L 265.111905 149.529306 
L 265.175326 134.051698 
L 265.238748 139.492065 
L 265.302169 155.438755 
L 265.365591 148.87266 
L 265.429012 136.771882 
L 265.492434 140.336272 
L 265.555855 144.745227 
L 265.682698 133.113532 
L 265.746119 133.301094 
L 265.872962 137.616089 
L 265.999805 127.672808 
L 266.063227 128.610975 
L 266.316913 154.500946 
L 266.380334 152.624612 
L 266.443756 152.718572 
L 266.570599 161.536124 
L 266.63402 159.84771 
L 266.697442 153.375217 
L 266.760863 154.500946 
L 266.824285 159.378626 
L 266.951128 148.591139 
L 267.014549 150.936198 
L 267.07797 151.967967 
L 267.141392 145.964557 
L 267.204813 146.058517 
L 267.331656 151.874365 
L 267.395078 149.81047 
L 267.458499 150.467115 
L 267.521921 151.592843 
L 267.585342 149.341743 
L 267.648764 150.373512 
L 267.712185 149.998389 
L 267.775607 144.932789 
L 267.839028 146.058517 
L 268.092714 162.005207 
L 268.156136 159.284667 
L 268.219557 151.12376 
L 268.282979 155.532715 
L 268.3464 164.256307 
L 268.409822 160.597957 
L 268.536664 151.030158 
L 268.600086 151.21772 
L 268.663507 143.525896 
L 268.79035 152.155886 
L 268.917193 142.118646 
L 268.980615 146.433641 
L 269.044036 152.624612 
L 269.107458 148.216015 
L 269.234301 136.209196 
L 269.297722 138.366694 
L 269.424565 151.686803 
L 269.61483 138.178774 
L 269.741673 154.031862 
L 269.868516 136.115237 
L 269.995358 151.311322 
L 270.05878 140.430232 
L 270.122201 141.274439 
L 270.249044 152.906134 
L 270.312466 147.46541 
L 270.375887 149.622907 
L 270.566152 154.594548 
L 270.756416 135.927675 
L 270.883259 147.277848 
L 270.946681 139.867546 
L 271.010102 140.524191 
L 271.200367 154.594548 
L 271.263788 154.78211 
L 271.390631 137.428527 
L 271.454052 138.647858 
L 271.517474 140.524191 
L 271.580895 139.586025 
L 271.644317 137.053403 
L 271.707738 137.522486 
L 271.834581 147.746932 
L 271.961424 137.897611 
L 272.088267 153.937903 
L 272.278532 138.929379 
L 272.405375 148.591139 
L 272.722482 139.679984 
L 272.785903 143.431937 
L 272.849325 143.150415 
L 273.166432 128.798537 
L 273.293275 142.869251 
L 273.420118 134.426822 
L 273.48354 136.677923 
L 273.610383 154.313384 
L 273.673804 150.655034 
L 273.800647 138.366694 
L 273.864069 143.244375 
L 273.92749 141.086877 
L 273.990912 137.522486 
L 274.181176 153.937903 
L 274.434862 128.329453 
L 274.498283 126.547436 
L 274.625126 131.706639 
L 274.688548 128.704934 
L 274.751969 129.830306 
L 274.815391 137.053403 
L 274.878812 135.646153 
L 274.942234 127.579206 
L 275.005655 128.610975 
L 275.069077 132.363284 
L 275.132498 130.205786 
L 275.19592 127.110122 
L 275.259341 129.549141 
L 275.386184 140.055108 
L 275.449606 127.579206 
L 275.513027 128.517015 
L 275.576449 141.086877 
L 275.63987 136.58432 
L 275.703291 127.203725 
L 275.766713 129.549141 
L 275.830134 130.205786 
L 275.893556 127.579206 
L 275.956977 127.672808 
L 276.020399 131.51872 
L 276.08382 130.299389 
L 276.210663 117.635925 
L 276.337506 127.297684 
L 276.464349 140.430232 
L 276.527771 138.647858 
L 276.591192 139.586025 
L 276.654614 143.338334 
L 276.718035 142.025044 
L 276.781457 126.547436 
L 276.844878 129.549141 
L 277.035143 140.14871 
L 277.098564 142.118646 
L 277.161985 141.743522 
L 277.288828 138.366694 
L 277.35225 135.646153 
L 277.479093 143.056812 
L 277.542514 141.931084 
L 277.605936 138.085172 
L 277.669357 138.272734 
L 277.859622 140.055108 
L 277.986465 135.17707 
L 278.049886 135.927675 
L 278.113308 140.055108 
L 278.176729 137.991212 
L 278.303572 129.26762 
L 278.366994 130.862075 
L 278.430415 127.391644 
L 278.493837 128.048289 
L 278.620679 138.460296 
L 278.684101 137.334567 
L 278.874365 152.53101 
L 279.001208 137.710048 
L 279.06463 138.085172 
L 279.254894 126.171956 
L 279.318316 129.642744 
L 279.381737 128.423413 
L 279.50858 140.430232 
L 279.572002 139.961148 
L 279.762266 134.520425 
L 279.889109 140.711753 
L 279.952531 139.961148 
L 280.079373 137.240965 
L 280.142795 137.991212 
L 280.206216 139.492065 
L 280.269638 138.085172 
L 280.396481 144.745227 
L 280.459902 142.869251 
L 280.523324 139.586025 
L 280.586745 141.180836 
L 280.650167 141.837124 
L 280.77701 138.929379 
L 280.840431 140.24267 
L 280.903853 140.055108 
L 280.967274 136.677923 
L 281.030696 137.240965 
L 281.094117 141.649562 
L 281.157539 140.617793 
L 281.22096 136.302798 
L 281.284382 138.366694 
L 281.347803 143.056812 
L 281.411224 141.743522 
L 281.474646 138.272734 
L 281.538067 139.867546 
L 281.66491 147.652972 
L 281.855175 131.143596 
L 281.918596 134.801946 
L 282.172282 152.906134 
L 282.552811 134.708344 
L 282.616233 135.364989 
L 282.743076 144.651267 
L 282.869918 151.780405 
L 282.996761 151.311322 
L 283.123604 157.596253 
L 283.187026 157.408691 
L 283.37729 150.655034 
L 283.440712 150.936198 
L 283.567555 141.368398 
L 283.630976 141.743522 
L 283.757819 155.345153 
L 284.011505 140.24267 
L 284.138348 148.309617 
L 284.265191 138.460296 
L 284.328612 140.617793 
L 284.392034 139.773587 
L 284.455455 142.212606 
L 284.582298 151.12376 
L 284.64572 149.247784 
L 284.772563 162.380332 
L 284.835984 159.191065 
L 284.899406 164.068746 
L 284.962827 163.50606 
L 285.026249 163.50606 
L 285.153092 165.382036 
L 285.216513 164.256307 
L 285.279935 164.912952 
L 285.343356 166.507765 
L 285.406778 165.75716 
L 285.470199 163.975143 
L 285.533621 164.162705 
L 285.850728 176.075743 
L 285.914149 175.043796 
L 286.040992 162.755455 
L 286.104414 167.258012 
L 286.167835 166.601367 
L 286.231257 160.691917 
L 286.294678 160.879479 
L 286.3581 162.755455 
L 286.484943 158.44046 
L 286.548364 162.567893 
L 286.675207 151.592843 
L 286.738629 154.78211 
L 286.865472 151.686803 
L 286.992315 165.194474 
L 287.055736 161.817646 
L 287.119158 162.09881 
L 287.182579 162.661853 
L 287.246 160.597957 
L 287.372843 162.755455 
L 287.436265 159.660148 
L 287.499686 161.723686 
L 287.563108 163.130936 
L 287.626529 160.785519 
L 287.753372 168.477701 
L 287.880215 161.442165 
L 288.007058 165.288434 
L 288.133901 153.187656 
L 288.197323 145.401872 
L 288.260744 146.715162 
L 288.387587 151.21772 
L 288.704694 148.309617 
L 288.95838 153.468819 
L 289.021802 152.249489 
L 289.148645 138.83542 
L 289.212066 139.961148 
L 289.275488 141.837124 
L 289.338909 140.805356 
L 289.402331 140.430232 
L 289.465752 138.272734 
L 289.529174 139.961148 
L 289.656017 150.091991 
L 289.78286 139.586025 
L 289.846281 141.55596 
L 289.909703 140.617793 
L 290.036545 139.679984 
L 290.099967 138.272734 
L 290.163388 140.524191 
L 290.22681 140.055108 
L 290.353653 135.646153 
L 290.543917 149.153824 
L 290.607339 147.840891 
L 290.67076 151.21772 
L 290.734182 151.12376 
L 290.797603 146.621203 
L 290.861025 148.028453 
L 290.924446 152.343448 
L 290.987868 151.12376 
L 291.051289 151.21772 
L 291.241554 156.564484 
L 291.304975 157.033567 
L 291.431818 148.591139 
L 291.558661 159.472586 
L 291.685504 144.463706 
L 291.748925 146.527601 
L 291.875768 151.21772 
L 291.93919 151.21772 
L 292.066033 154.594548 
L 292.192876 151.12376 
L 292.256297 151.592843 
L 292.319719 151.874365 
L 292.446562 147.746932 
L 292.573405 152.155886 
L 292.700248 141.368398 
L 292.763669 145.870956 
L 292.827091 143.994622 
L 292.953933 138.929379 
L 293.017355 140.524191 
L 293.207619 152.249489 
L 293.334462 150.467115 
L 293.588148 167.914657 
L 293.65157 177.295074 
L 293.714991 172.886298 
L 293.841834 161.348562 
L 293.905256 162.47429 
L 293.968677 159.097105 
L 294.032099 159.84771 
L 294.09552 161.630084 
L 294.158942 161.161001 
L 294.222363 160.691917 
L 294.285785 159.378626 
L 294.412627 165.006912 
L 294.476049 164.819351 
L 294.602892 161.630084 
L 294.729735 162.567893 
L 294.856578 162.09881 
L 295.046842 163.50606 
L 295.173685 169.134346 
L 295.300528 159.566188 
L 295.36395 160.128874 
L 295.490793 164.350267 
L 295.554214 163.224538 
L 295.8079 149.341743 
L 295.871321 150.373512 
L 295.934743 150.279553 
L 296.061586 147.746932 
L 296.378693 165.100515 
L 296.505536 155.157591 
L 296.568958 164.068746 
L 296.632379 161.817646 
L 296.759222 138.929379 
L 296.886065 155.251193 
L 297.012908 141.180836 
L 297.07633 151.780405 
L 297.139751 151.405282 
L 297.266594 139.586025 
L 297.330015 142.400167 
L 297.393437 140.430232 
L 297.456858 138.647858 
L 297.583701 150.936198 
L 297.647123 159.003503 
L 297.710544 157.408691 
L 297.837387 149.716867 
L 297.900809 150.091991 
L 298.027652 149.247784 
L 298.154495 151.12376 
L 298.217916 150.748637 
L 298.281338 150.279553 
L 298.344759 150.561074 
L 298.408181 150.655034 
L 298.471602 151.405282 
L 298.535024 151.12376 
L 298.598445 149.716867 
L 298.788709 163.224538 
L 298.915552 151.967967 
L 298.978974 155.720276 
L 299.042395 161.254602 
L 299.105817 157.221129 
L 299.169238 154.594548 
L 299.296081 166.882888 
L 299.359503 160.879479 
L 299.422924 162.286372 
L 299.549767 170.259716 
L 299.67661 162.567893 
L 299.803453 168.665262 
L 299.930296 162.755455 
L 299.993718 163.881184 
L 300.12056 162.380332 
L 300.183982 162.47429 
L 300.310825 149.998389 
L 300.437668 162.005207 
L 300.501089 154.688507 
L 300.564511 158.53442 
L 300.627932 165.382036 
L 300.691354 164.256307 
L 300.754775 164.256307 
L 300.818197 164.912952 
L 301.071883 153.844301 
L 301.135304 144.932789 
L 301.198726 152.437051 
L 301.262147 150.655034 
L 301.38899 154.969672 
L 301.515833 143.056812 
L 301.642676 155.814236 
L 301.706097 153.844301 
L 301.83294 139.398462 
L 301.896362 139.586025 
L 301.959783 138.085172 
L 302.086626 125.046585 
L 302.150048 126.265915 
L 302.276891 123.733294 
L 302.403734 131.143596 
L 302.593998 137.803651 
L 302.720841 135.927675 
L 302.911106 141.180836 
L 302.974527 140.336272 
L 303.037948 138.178774 
L 303.164791 152.812174 
L 303.228213 147.277848 
L 303.291634 137.710048 
L 303.355056 139.304503 
L 303.54532 151.21772 
L 303.672163 136.396758 
L 303.735585 139.023339 
L 303.799006 148.685098 
L 303.862428 147.55937 
L 303.925849 137.616089 
L 303.989271 138.178774 
L 304.116114 149.247784 
L 304.179535 145.870956 
L 304.369799 161.911248 
L 304.433221 157.408691 
L 304.560064 151.030158 
L 304.623485 151.405282 
L 304.686907 150.373512 
L 304.81375 154.219424 
L 304.940593 144.932789 
L 305.067436 151.499241 
L 305.194279 148.778701 
L 305.574808 166.320203 
L 305.638229 176.91995 
L 305.701651 171.479227 
L 305.765072 164.725391 
L 305.891915 179.171229 
L 306.018758 172.604955 
L 306.082179 173.167819 
L 306.145601 172.511174 
L 306.272444 159.660148 
L 306.335865 161.442165 
L 306.399287 162.286372 
L 306.462708 152.718572 
L 306.52613 153.281257 
L 306.843237 179.077448 
L 306.906659 180.672081 
L 307.033502 175.137577 
L 307.160345 186.58171 
L 307.287187 175.512879 
L 307.350609 176.544647 
L 307.540873 169.79099 
L 307.604295 170.166115 
L 307.667716 172.042091 
L 307.794559 161.254602 
L 307.921402 176.638607 
L 308.048245 165.006912 
L 308.111667 173.2616 
L 308.175088 170.259716 
L 308.23851 165.75716 
L 308.301931 169.697031 
L 308.365353 168.665262 
L 308.428774 161.254602 
L 308.492196 163.318498 
L 308.619039 174.762452 
L 308.68246 174.668671 
L 308.745881 174.199588 
L 308.809303 174.38715 
L 308.936146 175.981962 
L 308.999567 175.137577 
L 309.062989 172.135871 
L 309.12641 172.604955 
L 309.189832 175.043796 
L 309.253253 152.155886 
L 309.316675 154.219424 
L 309.380096 154.87607 
L 309.570361 149.435346 
L 309.633782 149.247784 
L 309.697204 148.497536 
L 309.887468 135.646153 
L 310.014311 152.249489 
L 310.141154 134.708344 
L 310.204575 137.616089 
L 310.331418 155.157591 
L 310.458261 151.21772 
L 310.521683 152.437051 
L 310.648526 150.748637 
L 310.711947 151.499241 
L 310.775369 151.21772 
L 310.83879 151.405282 
L 310.965633 148.122055 
L 311.029055 148.685098 
L 311.155898 152.061926 
L 311.282741 139.586025 
L 311.346162 140.430232 
L 311.536427 153.468819 
L 311.663269 153.937903 
L 311.790112 165.475996 
L 311.853534 164.350267 
L 312.043798 138.741817 
L 312.10722 146.15212 
L 312.170641 144.745227 
L 312.297484 138.178774 
L 312.614592 153.937903 
L 312.678013 155.157591 
L 312.741435 150.842596 
L 312.804856 153.937903 
L 312.868278 156.752046 
L 312.99512 152.812174 
L 313.058542 155.251193 
L 313.121963 153.562779 
L 313.248806 148.216015 
L 313.565914 152.53101 
L 313.756178 148.591139 
L 313.883021 153.093696 
L 314.009864 147.840891 
L 314.136707 161.254602 
L 314.200129 167.258012 
L 314.26355 165.382036 
L 314.453814 150.561074 
L 314.580657 150.467115 
L 314.644079 151.686803 
L 314.770922 161.348562 
L 314.834343 158.815941 
L 314.961186 146.902724 
L 315.151451 150.185951 
L 315.278294 151.030158 
L 315.405137 151.686803 
L 315.53198 147.55937 
L 315.595401 147.934493 
L 315.658823 149.81047 
L 315.785666 138.272734 
L 315.849087 143.056812 
L 315.912508 152.624612 
L 315.97593 151.12376 
L 316.039351 147.090287 
L 316.166194 156.752046 
L 316.293037 146.621203 
L 316.356459 149.529306 
L 316.41988 152.437051 
L 316.800409 127.203725 
L 316.863831 127.485246 
L 317.180938 146.902724 
L 317.371202 134.895906 
L 317.434624 140.24267 
L 317.561467 149.247784 
L 317.624888 148.497536 
L 317.751731 154.969672 
L 317.815153 152.718572 
L 317.878574 155.063632 
L 317.941996 147.934493 
L 318.068839 112.101599 
L 318.13226 113.508492 
L 318.195682 113.977575 
L 318.259103 113.602452 
L 318.576211 129.173661 
L 318.703054 146.715162 
L 318.766475 144.182541 
L 318.829896 136.58432 
L 318.893318 138.554256 
L 318.956739 141.743522 
L 319.083582 136.771882 
L 319.147004 137.616089 
L 319.273847 144.745227 
L 319.464111 159.84771 
L 319.527533 156.001798 
L 319.654376 141.837124 
L 319.717797 147.652972 
L 319.781219 143.90102 
L 319.84464 143.713458 
L 319.971483 152.249489 
L 320.034905 150.091991 
L 320.161748 153.375217 
L 320.28859 150.561074 
L 320.352012 150.561074 
L 320.415433 151.030158 
L 320.478855 150.748637 
L 320.669119 148.87266 
L 320.795962 151.780405 
L 320.922805 145.589434 
L 321.049648 160.316793 
L 321.176491 152.249489 
L 321.366756 162.567893 
L 321.430177 161.536124 
L 321.55702 152.906134 
L 321.620441 153.562779 
L 321.683863 153.844301 
L 321.810706 148.591139 
L 321.937549 152.437051 
L 322.00097 151.874365 
L 322.127813 150.185951 
L 322.254656 154.219424 
L 322.318078 153.844301 
L 322.444921 148.591139 
L 322.508342 150.748637 
L 322.698607 166.320203 
L 322.888871 160.504355 
L 322.952293 162.09881 
L 323.142557 146.15212 
L 323.205978 148.966262 
L 323.396243 165.288434 
L 323.523086 156.470524 
L 323.649929 163.881184 
L 323.71335 163.036976 
L 323.776772 164.162705 
L 323.903615 150.091991 
L 323.967036 153.468819 
L 324.030458 156.470524 
L 324.220722 149.529306 
L 324.284144 151.592843 
L 324.410987 162.567893 
L 324.537829 149.904429 
L 324.664672 159.753751 
L 324.728094 158.628022 
L 324.791515 151.405282 
L 324.854937 152.437051 
L 324.918358 159.378626 
L 324.98178 155.251193 
L 325.045201 153.750341 
L 325.108623 157.971734 
L 325.235466 154.031862 
L 325.362309 165.006912 
L 325.42573 160.222834 
L 325.489152 168.758864 
L 325.552573 168.196179 
L 325.679416 176.91995 
L 325.742838 175.794221 
L 325.806259 171.197883 
L 325.869681 171.854529 
L 325.933102 172.417393 
L 326.123366 161.442165 
L 326.250209 172.417393 
L 326.313631 171.385446 
L 326.377052 172.042091 
L 326.503895 183.673786 
L 326.630738 169.603072 
L 326.69416 174.574891 
L 326.757581 173.824465 
L 326.821003 172.886298 
L 326.884424 177.389033 
L 327.011267 159.941312 
L 327.074689 167.258012 
L 327.13811 177.389033 
L 327.264953 159.097105 
L 327.328375 166.507765 
L 327.455217 149.716867 
L 327.518639 156.846005 
L 327.58206 160.504355 
L 327.772325 156.001798 
L 327.835746 153.000093 
L 327.899168 159.191065 
L 327.962589 158.628022 
L 328.026011 151.967967 
L 328.089432 153.468819 
L 328.152854 153.656739 
L 328.216275 152.437051 
L 328.343118 165.006912 
L 328.469961 160.691917 
L 328.533383 161.723686 
L 328.787068 147.934493 
L 328.85049 147.46541 
L 328.977333 153.093696 
L 329.104176 139.961148 
L 329.167597 140.055108 
L 329.231019 141.274439 
L 329.357862 137.522486 
L 329.548126 154.87607 
L 329.611548 148.403576 
L 329.738391 138.085172 
L 329.992077 143.713458 
L 330.11892 140.617793 
L 330.245762 147.934493 
L 330.309184 147.090287 
L 330.372605 145.870956 
L 330.499448 138.741817 
L 330.56287 139.304503 
L 330.626291 139.116941 
L 330.689713 135.927675 
L 330.753134 138.178774 
L 330.816556 139.304503 
L 330.943399 129.830306 
L 331.260506 151.405282 
L 331.387349 135.17707 
L 331.514192 143.713458 
L 331.577614 141.180836 
L 331.641035 143.056812 
L 331.767878 149.435346 
L 331.894721 147.840891 
L 332.021564 136.677923 
L 332.148407 142.118646 
L 332.211828 140.899315 
L 332.338671 130.393349 
L 332.465514 140.24267 
L 332.528936 136.302798 
L 332.592357 138.647858 
L 332.655779 142.400167 
L 332.7192 139.773587 
L 332.782622 137.710048 
L 332.846043 138.741817 
L 332.909465 139.773587 
L 332.972886 138.178774 
L 333.036308 139.116941 
L 333.16315 142.025044 
L 333.226572 140.711753 
L 333.353415 134.801946 
L 333.416836 139.116941 
L 333.480258 137.053403 
L 333.543679 127.579206 
L 333.607101 129.924265 
L 333.797365 148.591139 
L 334.114473 164.162705 
L 334.177894 166.038682 
L 334.304737 178.233241 
L 334.43158 165.100515 
L 334.495002 165.382036 
L 334.685266 160.222834 
L 334.748687 159.753751 
L 334.938952 147.746932 
L 335.002373 150.748637 
L 335.065795 150.561074 
L 335.192638 139.773587 
L 335.256059 141.180836 
L 335.382902 141.55596 
L 335.509745 151.874365 
L 335.573167 151.499241 
L 335.636588 151.405282 
L 335.763431 154.313384 
L 335.953696 137.240965 
L 336.017117 143.90102 
L 336.080538 150.748637 
L 336.14396 147.090287 
L 336.397646 126.171956 
L 336.461067 130.580911 
L 336.524489 129.455182 
L 336.651332 126.171956 
L 336.714753 128.423413 
L 336.905018 143.338334 
L 336.968439 142.775291 
L 337.031861 140.524191 
L 337.095282 140.805356 
L 337.158704 146.527601 
L 337.222125 145.21431 
L 337.348968 128.423413 
L 337.412389 138.929379 
L 337.475811 138.366694 
L 337.539232 126.641039 
L 337.602654 130.017867 
L 337.666075 141.743522 
L 337.729497 136.771882 
L 337.792918 127.86037 
L 337.85634 133.957739 
L 337.919761 139.679984 
L 338.046604 131.612679 
L 338.30029 161.254602 
L 338.427133 139.679984 
L 338.490555 141.649562 
L 338.617398 140.805356 
L 338.744241 148.778701 
L 338.807662 147.184246 
L 338.871083 150.936198 
L 338.997926 141.180836 
L 339.061348 144.839186 
L 339.124769 143.244375 
L 339.188191 138.272734 
L 339.315034 153.656739 
L 339.378455 150.842596 
L 339.441877 149.341743 
L 339.56872 152.249489 
L 339.695563 151.12376 
L 340.139513 176.450866 
L 340.266356 171.666967 
L 340.45662 175.512879 
L 340.646885 173.074038 
L 340.710306 175.137577 
L 340.773728 174.293369 
L 340.900571 159.284667 
L 340.963992 161.817646 
L 341.217678 176.357086 
L 341.407943 168.196179 
L 341.471364 169.040386 
L 341.598207 174.199588 
L 341.661629 172.229831 
L 341.72505 141.368398 
L 341.788471 148.966262 
L 341.915314 150.561074 
L 341.978736 149.998389 
L 342.105579 137.616089 
L 342.232422 144.276143 
L 342.866637 115.759949 
L 342.930058 116.416594 
L 343.056901 138.741817 
L 343.120323 138.178774 
L 343.183744 136.58432 
L 343.374008 143.619498 
L 343.500851 151.311322 
L 343.564273 148.685098 
L 343.691116 153.187656 
L 343.944802 148.87266 
L 344.008223 149.529306 
L 344.135066 159.284667 
L 344.261909 148.87266 
L 344.388752 157.408691 
L 344.515595 150.936198 
L 344.896124 181.79781 
L 344.959545 176.638607 
L 345.022967 175.512879 
L 345.086388 176.638607 
L 345.276653 162.47429 
L 345.403496 166.507765 
L 345.530339 152.437051 
L 345.657182 163.881184 
L 345.720603 160.597957 
L 345.847446 169.509469 
L 345.910868 165.663557 
L 346.03771 176.169524 
L 346.101132 173.542943 
L 346.164553 173.2616 
L 346.291396 180.5783 
L 346.418239 171.760748 
L 346.545082 182.266714 
L 346.608504 174.199588 
L 346.671925 175.888181 
L 346.735347 182.172933 
L 346.86219 165.851119 
L 346.925611 166.976848 
L 346.989033 172.229831 
L 347.052454 168.852824 
L 347.179297 160.879479 
L 347.686669 188.364083 
L 347.75009 187.238355 
L 347.813512 183.955307 
L 347.876933 184.705733 
L 347.940355 188.176343 
L 348.003776 184.799514 
L 348.130619 173.2616 
L 348.194041 178.420802 
L 348.257462 177.295074 
L 348.320884 171.760748 
L 348.384305 173.074038 
L 348.511148 181.422507 
L 348.637991 169.040386 
L 348.701413 174.856233 
L 348.764834 172.604955 
L 348.828256 166.226243 
L 348.891677 169.978552 
L 348.955098 173.918246 
L 349.01852 172.792516 
L 349.208784 176.732388 
L 349.335627 185.831283 
L 349.46247 176.169524 
L 349.525892 183.580005 
L 349.589313 183.017141 
L 349.652735 176.638607 
L 349.716156 177.389033 
L 349.779578 177.670376 
L 349.842999 144.276143 
L 349.906421 153.656739 
L 349.969842 154.969672 
L 350.096685 147.652972 
L 350.223528 151.21772 
L 350.28695 150.373512 
L 350.477214 139.773587 
L 350.604057 154.406986 
L 350.794321 136.021634 
L 350.857743 144.088582 
L 350.921164 148.685098 
L 350.984586 143.713458 
L 351.048007 145.21431 
L 351.111429 148.028453 
L 351.238272 135.833715 
L 351.301693 138.929379 
L 351.491958 146.433641 
L 351.618801 150.467115 
L 352.062751 136.115237 
L 352.253015 142.025044 
L 352.379858 149.81047 
L 352.506701 142.775291 
L 352.633544 128.798537 
L 352.696966 130.111827 
L 352.88723 129.080058 
L 352.950652 130.674512 
L 353.077495 139.304503 
L 353.140916 135.458592 
L 353.267759 140.055108 
L 353.394602 129.080058 
L 353.458023 137.240965 
L 353.521445 134.801946 
L 353.584866 126.922561 
L 353.648288 127.95433 
L 353.775131 134.239261 
L 353.901974 126.453477 
L 353.965395 129.173661 
L 354.028817 128.704934 
L 354.092238 128.235851 
L 354.15566 130.674512 
L 354.282503 115.290866 
L 354.345924 116.604156 
L 354.472767 127.672808 
L 354.536189 126.828601 
L 354.663031 120.450068 
L 354.789874 142.400167 
L 354.853296 136.49036 
L 354.916717 129.549141 
L 354.980139 130.111827 
L 355.04356 129.924265 
L 355.106982 127.203725 
L 355.170403 128.517015 
L 355.297246 140.14871 
L 355.360668 139.398462 
L 355.614354 115.947511 
L 355.677775 116.97928 
L 355.804618 118.761653 
L 355.994883 128.329453 
L 356.185147 115.853551 
L 356.248568 117.541965 
L 356.31199 118.667694 
L 356.375411 117.729885 
L 356.438833 117.917447 
L 356.502254 120.54367 
L 356.565676 119.699463 
L 356.629097 114.071535 
L 356.692519 118.29257 
L 356.75594 128.329453 
L 356.819362 124.483542 
L 356.882783 114.63422 
L 356.946205 115.478427 
L 357.009626 119.230737 
L 357.073048 117.635925 
L 357.136469 115.947511 
L 357.199891 118.011049 
L 357.263312 117.260802 
L 357.390155 106.379354 
L 357.453577 106.660875 
L 357.770684 130.393349 
L 357.834105 130.486951 
L 357.897527 129.830306 
L 358.02437 92.121435 
L 358.087791 92.496559 
L 358.151213 91.745954 
L 358.278056 99.531738 
L 358.531742 87.430959 
L 358.595163 88.556688 
L 358.658585 95.310702 
L 358.722006 94.560097 
L 358.848849 81.896633 
L 358.912271 84.335652 
L 359.102535 90.995707 
L 359.229378 87.149795 
L 359.356221 91.745954 
L 359.483064 80.864864 
L 359.546485 84.335652 
L 359.609907 81.990592 
L 359.673328 80.48974 
L 360.053857 106.942397 
L 360.244122 84.616816 
L 360.370964 86.211628 
L 360.561229 89.213333 
L 360.688072 96.905156 
L 360.751493 95.967347 
L 360.814915 96.905156 
L 360.941758 91.933516 
L 361.068601 98.875092 
L 361.258865 94.184973 
L 361.322287 95.02918 
L 361.385708 99.625697 
L 361.44913 97.561802 
L 361.512551 95.216742 
L 361.639394 102.533442 
L 361.829658 86.39919 
L 362.019923 96.154909 
L 362.146766 90.620225 
L 362.273609 100.563506 
L 362.33703 96.905156 
L 362.400452 90.901747 
L 362.463873 92.965642 
L 362.527295 96.811554 
L 362.590716 95.02918 
L 362.654138 93.153204 
L 362.717559 93.246806 
L 362.780981 94.747658 
L 362.907824 101.876797 
L 363.034667 88.744249 
L 363.224931 107.129958 
L 363.288352 106.00423 
L 363.351774 105.066063 
L 363.415195 108.067768 
L 363.478617 107.223561 
L 363.732303 95.404304 
L 363.795724 94.184973 
L 363.922567 109.944102 
L 363.985989 116.697758 
L 364.112832 106.379354 
L 364.239675 119.511901 
L 364.303096 119.324339 
L 364.366518 120.63763 
L 364.429939 118.855256 
L 364.493361 113.508492 
L 364.556782 115.009344 
L 364.620204 118.29257 
L 364.747046 106.09819 
L 364.810468 109.005935 
L 364.937311 125.796832 
L 365.000732 124.765063 
L 365.127575 113.883616 
L 365.254418 119.418299 
L 365.31784 117.823487 
L 365.444683 109.193497 
L 365.571526 117.917447 
L 365.634947 115.478427 
L 365.825212 123.076649 
L 365.952055 138.741817 
L 366.015476 135.458592 
L 366.078898 164.162705 
L 366.142319 162.005207 
L 366.20574 163.318498 
L 366.332583 171.197883 
L 366.459426 153.093696 
L 366.586269 163.130936 
L 366.649691 160.973439 
L 366.713112 159.191065 
L 366.966798 167.539534 
L 367.03022 177.670376 
L 367.093641 175.043796 
L 367.220484 159.003503 
L 367.283906 165.944722 
L 367.347327 162.661853 
L 367.410749 158.909543 
L 367.47417 161.817646 
L 367.537592 161.536124 
L 367.601013 157.408691 
L 367.727856 165.944722 
L 367.854699 152.155886 
L 367.91812 159.191065 
L 367.981542 157.221129 
L 368.044963 150.091991 
L 368.171806 166.320203 
L 368.425492 154.313384 
L 368.552335 161.911248 
L 368.615757 152.343448 
L 368.679178 154.688507 
L 368.7426 161.442165 
L 368.806021 158.346857 
L 368.869443 159.84771 
L 368.932864 165.944722 
L 368.996285 162.567893 
L 369.059707 157.877774 
L 369.123128 160.504355 
L 369.18655 163.224538 
L 369.376814 146.15212 
L 369.503657 153.937903 
L 369.6305 145.21431 
L 369.693922 149.998389 
L 369.757343 148.309617 
L 369.820765 142.118646 
L 369.884186 143.431937 
L 369.947608 143.90102 
L 370.011029 143.056812 
L 370.137872 154.87607 
L 370.201294 152.249489 
L 370.391558 141.649562 
L 370.454979 144.557665 
L 370.518401 151.780405 
L 370.581822 151.499241 
L 370.645244 145.683394 
L 370.708665 147.746932 
L 370.772087 153.844301 
L 370.835508 152.906134 
L 370.89893 152.53101 
L 370.962351 153.656739 
L 371.089194 141.086877 
L 371.152616 141.649562 
L 371.34288 149.622907 
L 371.406302 154.313384 
L 371.533145 138.460296 
L 371.659988 152.437051 
L 371.723409 150.748637 
L 371.786831 150.561074 
L 371.850252 153.562779 
L 371.977095 137.240965 
L 372.040516 141.368398 
L 372.167359 152.624612 
L 372.230781 150.185951 
L 372.357624 154.688507 
L 372.547888 150.467115 
L 372.61131 150.842596 
L 372.674731 150.842596 
L 372.738153 151.780405 
L 372.928417 141.274439 
L 373.05526 141.55596 
L 373.245525 151.780405 
L 373.308946 149.904429 
L 373.372367 148.685098 
L 373.49921 150.842596 
L 373.626053 148.028453 
L 373.752896 151.967967 
L 373.879739 146.902724 
L 373.943161 147.934493 
L 374.006582 149.716867 
L 374.133425 140.711753 
L 374.196847 142.869251 
L 374.513954 171.94831 
L 374.577376 169.884593 
L 374.76764 182.360495 
L 374.894483 190.052497 
L 375.084747 178.608364 
L 375.148169 174.856233 
L 375.21159 174.950014 
L 375.338433 181.516288 
L 375.401855 180.5783 
L 375.465276 173.824465 
L 375.528698 176.638607 
L 375.592119 186.863231 
L 375.655541 186.58171 
L 375.782384 178.795927 
L 375.845805 181.70385 
L 375.909227 180.390738 
L 375.972648 180.484519 
L 376.099491 186.675491 
L 376.162913 186.58171 
L 376.226334 186.300366 
L 376.353177 189.208291 
L 376.416598 185.831283 
L 376.543441 172.604955 
L 376.670284 185.174638 
L 376.797127 172.511174 
L 376.860549 175.325317 
L 376.987392 165.75716 
L 377.114235 173.449162 
L 377.177656 167.445574 
L 377.241078 168.758864 
L 377.621606 195.774564 
L 377.811871 186.300366 
L 377.938714 171.666967 
L 378.002135 178.420802 
L 378.065557 178.327021 
L 378.128978 170.82276 
L 378.1924 170.916362 
L 378.319243 184.799514 
L 378.446086 172.135871 
L 378.699772 183.673786 
L 378.826615 201.49663 
L 378.890036 199.714257 
L 378.953458 196.149688 
L 379.016879 197.65054 
L 379.0803 195.774564 
L 379.143722 189.489633 
L 379.207143 190.146278 
L 379.333986 199.245173 
L 379.397408 197.181636 
L 379.460829 197.932061 
L 379.524251 198.400966 
L 379.587672 197.65054 
L 379.777937 198.963831 
L 379.90478 207.687602 
L 379.968201 206.937175 
L 380.031623 204.404376 
L 380.158466 208.156686 
L 380.285309 199.9956 
L 380.475573 216.880456 
L 380.538994 210.689306 
L 380.602416 208.62559 
L 380.729259 216.786497 
L 380.79268 210.407964 
L 380.856102 213.50345 
L 380.919523 218.193568 
L 381.046366 208.81333 
L 381.109788 209.751319 
L 381.173209 210.407964 
L 381.300052 207.875164 
L 381.363474 204.96724 
L 381.490317 188.551645 
L 381.553738 191.834692 
L 381.61716 198.119624 
L 381.680581 193.710847 
L 381.744003 190.709143 
L 381.870846 198.87005 
L 382.06111 192.772859 
L 382.124531 194.17993 
L 382.187953 196.52499 
L 382.251374 193.523286 
L 382.314796 147.277848 
L 382.378217 153.093696 
L 382.441639 151.499241 
L 382.50506 152.812174 
L 382.568482 157.127169 
L 382.695325 147.840891 
L 382.822168 163.693621 
L 382.885589 160.691917 
L 383.139275 142.681689 
L 383.456382 130.111827 
L 383.583225 143.244375 
L 383.646647 142.212606 
L 383.710068 139.586025 
L 383.77349 141.274439 
L 384.090597 152.249489 
L 384.21744 148.122055 
L 384.344283 153.187656 
L 384.471126 149.247784 
L 384.597969 152.437051 
L 384.661391 151.686803 
L 384.978498 128.517015 
L 385.105341 131.143596 
L 385.168762 127.016163 
L 385.232184 130.580911 
L 385.359027 148.966262 
L 385.422448 140.711753 
L 385.48587 142.49377 
L 385.612713 151.686803 
L 385.802977 144.276143 
L 385.92982 152.53101 
L 385.993242 151.12376 
L 386.120085 135.364989 
L 386.183506 138.366694 
L 386.310349 153.656739 
L 386.37377 150.091991 
L 386.754299 175.231536 
L 386.817721 175.700441 
L 387.071407 193.147983 
L 387.134828 191.55335 
L 387.19825 183.486224 
L 387.261671 185.3622 
L 387.325093 188.270124 
L 387.388514 184.424212 
L 387.451936 185.3622 
L 387.515357 188.270124 
L 387.6422 182.266714 
L 387.705621 187.238355 
L 387.769043 186.58171 
L 387.832464 179.734093 
L 387.895886 185.174638 
L 388.022729 204.498336 
L 388.08615 203.560169 
L 388.212993 218.381309 
L 388.276415 215.848509 
L 388.403258 200.933766 
L 388.466679 204.029252 
L 388.530101 213.878573 
L 388.593522 212.940585 
L 388.656944 204.123033 
L 388.720365 206.280531 
L 388.783787 212.190159 
L 388.847208 208.62559 
L 388.91063 203.65395 
L 388.974051 205.15498 
L 389.100894 209.938881 
L 389.227737 207.406259 
L 389.418001 211.721076 
L 389.544844 203.65395 
L 389.861952 233.20227 
L 389.925373 230.66947 
L 389.988795 222.883866 
L 390.052216 223.44673 
L 390.179059 232.545625 
L 390.369324 218.56887 
L 390.432745 156.752046 
L 390.496167 163.693621 
L 390.623009 159.753751 
L 390.686431 157.971734 
L 390.813274 148.028453 
L 390.876695 150.655034 
L 390.940117 153.281257 
L 391.06696 138.178774 
L 391.193803 156.470524 
L 391.257224 153.375217 
L 391.384067 146.996684 
L 391.51091 151.686803 
L 391.574332 150.185951 
L 391.701175 161.067041 
L 391.828018 152.343448 
L 391.954861 162.943017 
L 392.145125 149.060222 
L 392.208546 153.844301 
L 392.271968 151.405282 
L 392.335389 148.87266 
L 392.398811 153.000093 
L 392.462232 149.716867 
L 392.589075 138.83542 
L 392.842761 159.284667 
L 392.969604 165.663557 
L 393.22329 148.122055 
L 393.350133 149.153824 
L 393.413554 150.842596 
L 393.540397 141.837124 
L 393.794083 162.005207 
L 393.857505 161.817646 
L 393.920926 152.53101 
L 393.984348 155.626317 
L 394.047769 166.038682 
L 394.111191 159.753751 
L 394.174612 152.249489 
L 394.301455 163.693621 
L 394.618563 152.061926 
L 394.681984 151.874365 
L 394.745406 154.688507 
L 394.808827 154.500946 
L 394.872248 149.435346 
L 394.93567 151.499241 
L 395.125934 162.192769 
L 395.252777 156.18936 
L 395.37962 175.419098 
L 395.443042 170.916362 
L 395.633306 159.003503 
L 395.696728 157.315089 
L 395.950414 165.288434 
L 396.013835 166.789286 
L 396.2041 148.591139 
L 396.267521 154.969672 
L 396.394364 162.943017 
L 396.457785 161.254602 
L 396.521207 161.911248 
L 396.584628 164.725391 
L 396.838314 150.467115 
L 396.901736 154.500946 
L 396.965157 156.18936 
L 397.092 152.437051 
L 397.155422 152.53101 
L 397.218843 151.030158 
L 397.282265 154.594548 
L 397.409108 166.976848 
L 397.535951 150.936198 
L 397.599372 152.718572 
L 397.662794 153.656739 
L 397.726215 149.904429 
L 397.789636 150.936198 
L 397.853058 149.81047 
L 397.979901 138.366694 
L 398.106744 154.594548 
L 398.170165 152.249489 
L 398.233587 149.716867 
L 398.36043 165.288434 
L 398.487273 155.814236 
L 398.487273 155.814236 
" clip-path="url(#pda8dc588d1)" style="fill: none; stroke: #1f77b4; stroke-width: 1.5; stroke-linecap: square"/>
   </g>
   <g id="patch_3">
    <path d="M 57.6 307.584 
L 57.6 41.472 
" style="fill: none; stroke: #000000; stroke-width: 0.8; stroke-linejoin: miter; stroke-linecap: square"/>
   </g>
   <g id="patch_4">
    <path d="M 414.72 307.584 
L 414.72 41.472 
" style="fill: none; stroke: #000000; stroke-width: 0.8; stroke-linejoin: miter; stroke-linecap: square"/>
   </g>
   <g id="patch_5">
    <path d="M 57.6 307.584 
L 414.72 307.584 
" style="fill: none; stroke: #000000; stroke-width: 0.8; stroke-linejoin: miter; stroke-linecap: square"/>
   </g>
   <g id="patch_6">
    <path d="M 57.6 41.472 
L 414.72 41.472 
" style="fill: none; stroke: #000000; stroke-width: 0.8; stroke-linejoin: miter; stroke-linecap: square"/>
   </g>
   <g id="legend_1">
    <g id="patch_7">
     <path d="M 354.074688 64.150125 
L 407.72 64.150125 
Q 409.72 64.150125 409.72 62.150125 
L 409.72 48.472 
Q 409.72 46.472 407.72 46.472 
L 354.074688 46.472 
Q 352.074688 46.472 352.074688 48.472 
L 352.074688 62.150125 
Q 352.074688 64.150125 354.074688 64.150125 
z
" style="fill: #ffffff; opacity: 0.8; stroke: #cccccc; stroke-linejoin: miter"/>
    </g>
    <g id="line2d_15">
     <path d="M 356.074688 54.570438 
L 366.074688 54.570438 
L 376.074688 54.570438 
" style="fill: none; stroke: #1f77b4; stroke-width: 1.5; stroke-linecap: square"/>
    </g>
    <g id="text_14">
     <!-- set3 -->
     <g transform="translate(384.074688 58.070438)scale(0.1 -0.1)">
      <defs>
       <path id="DejaVuSans-73" d="M 2834 3397 
L 2834 2853 
Q 2591 2978 2328 3040 
Q 2066 3103 1784 3103 
Q 1356 3103 1142 2972 
Q 928 2841 928 2578 
Q 928 2378 1081 2264 
Q 1234 2150 1697 2047 
L 1894 2003 
Q 2506 1872 2764 1633 
Q 3022 1394 3022 966 
Q 3022 478 2636 193 
Q 2250 -91 1575 -91 
Q 1294 -91 989 -36 
Q 684 19 347 128 
L 347 722 
Q 666 556 975 473 
Q 1284 391 1588 391 
Q 1994 391 2212 530 
Q 2431 669 2431 922 
Q 2431 1156 2273 1281 
Q 2116 1406 1581 1522 
L 1381 1569 
Q 847 1681 609 1914 
Q 372 2147 372 2553 
Q 372 3047 722 3315 
Q 1072 3584 1716 3584 
Q 2034 3584 2315 3537 
Q 2597 3491 2834 3397 
z
" transform="scale(0.015625)"/>
       <path id="DejaVuSans-65" d="M 3597 1894 
L 3597 1613 
L 953 1613 
Q 991 1019 1311 708 
Q 1631 397 2203 397 
Q 2534 397 2845 478 
Q 3156 559 3463 722 
L 3463 178 
Q 3153 47 2828 -22 
Q 2503 -91 2169 -91 
Q 1331 -91 842 396 
Q 353 884 353 1716 
Q 353 2575 817 3079 
Q 1281 3584 2069 3584 
Q 2775 3584 3186 3129 
Q 3597 2675 3597 1894 
z
M 3022 2063 
Q 3016 2534 2758 2815 
Q 2500 3097 2075 3097 
Q 1594 3097 1305 2825 
Q 1016 2553 972 2059 
L 3022 2063 
z
" transform="scale(0.015625)"/>
       <path id="DejaVuSans-74" d="M 1172 4494 
L 1172 3500 
L 2356 3500 
L 2356 3053 
L 1172 3053 
L 1172 1153 
Q 1172 725 1289 603 
Q 1406 481 1766 481 
L 2356 481 
L 2356 0 
L 1766 0 
Q 1100 0 847 248 
Q 594 497 594 1153 
L 594 3053 
L 172 3053 
L 172 3500 
L 594 3500 
L 594 4494 
L 1172 4494 
z
" transform="scale(0.015625)"/>
      </defs>
      <use xlink:href="#DejaVuSans-73"/>
      <use xlink:href="#DejaVuSans-65" x="52.099609"/>
      <use xlink:href="#DejaVuSans-74" x="113.623047"/>
      <use xlink:href="#DejaVuSans-33" x="152.832031"/>
     </g>
    </g>
   </g>
  </g>
 </g>
 <defs>
  <clipPath id="pda8dc588d1">
   <rect x="57.6" y="41.472" width="357.12" height="266.112"/>
  </clipPath>
 </defs>
</svg>
