<?xml version="1.0" encoding="utf-8" standalone="no"?>
<!DOCTYPE svg PUBLIC "-//W3C//DTD SVG 1.1//EN"
  "http://www.w3.org/Graphics/SVG/1.1/DTD/svg11.dtd">
<svg xmlns:xlink="http://www.w3.org/1999/xlink" width="460.8pt" height="345.6pt" viewBox="0 0 460.8 345.6" xmlns="http://www.w3.org/2000/svg" version="1.1">
 <metadata>
  <rdf:RDF xmlns:dc="http://purl.org/dc/elements/1.1/" xmlns:cc="http://creativecommons.org/ns#" xmlns:rdf="http://www.w3.org/1999/02/22-rdf-syntax-ns#">
   <cc:Work>
    <dc:type rdf:resource="http://purl.org/dc/dcmitype/StillImage"/>
    <dc:date>2022-08-11T15:17:06.838216</dc:date>
    <dc:format>image/svg+xml</dc:format>
    <dc:creator>
     <cc:Agent>
      <dc:title>Matplotlib v3.5.2, https://matplotlib.org/</dc:title>
     </cc:Agent>
    </dc:creator>
   </cc:Work>
  </rdf:RDF>
 </metadata>
 <defs>
  <style type="text/css">*{stroke-linejoin: round; stroke-linecap: butt}</style>
 </defs>
 <g id="figure_1">
  <g id="patch_1">
   <path d="M 0 345.6 
L 460.8 345.6 
L 460.8 0 
L 0 0 
z
" style="fill: #ffffff"/>
  </g>
  <g id="axes_1">
   <g id="patch_2">
    <path d="M 57.6 307.584 
L 414.72 307.584 
L 414.72 41.472 
L 57.6 41.472 
z
" style="fill: #ffffff"/>
   </g>
   <g id="matplotlib.axis_1">
    <g id="xtick_1">
     <g id="line2d_1">
      <defs>
       <path id="m18f8aec9c5" d="M 0 0 
L 0 3.5 
" style="stroke: #000000; stroke-width: 0.8"/>
      </defs>
      <g>
       <use xlink:href="#m18f8aec9c5" x="73.832727" y="307.584" style="stroke: #000000; stroke-width: 0.8"/>
      </g>
     </g>
     <g id="text_1">
      <!-- 0 -->
      <g transform="translate(70.651477 322.182437)scale(0.1 -0.1)">
       <defs>
        <path id="DejaVuSans-30" d="M 2034 4250 
Q 1547 4250 1301 3770 
Q 1056 3291 1056 2328 
Q 1056 1369 1301 889 
Q 1547 409 2034 409 
Q 2525 409 2770 889 
Q 3016 1369 3016 2328 
Q 3016 3291 2770 3770 
Q 2525 4250 2034 4250 
z
M 2034 4750 
Q 2819 4750 3233 4129 
Q 3647 3509 3647 2328 
Q 3647 1150 3233 529 
Q 2819 -91 2034 -91 
Q 1250 -91 836 529 
Q 422 1150 422 2328 
Q 422 3509 836 4129 
Q 1250 4750 2034 4750 
z
" transform="scale(0.015625)"/>
       </defs>
       <use xlink:href="#DejaVuSans-30"/>
      </g>
     </g>
    </g>
    <g id="xtick_2">
     <g id="line2d_2">
      <g>
       <use xlink:href="#m18f8aec9c5" x="137.266597" y="307.584" style="stroke: #000000; stroke-width: 0.8"/>
      </g>
     </g>
     <g id="text_2">
      <!-- 500 -->
      <g transform="translate(127.722847 322.182437)scale(0.1 -0.1)">
       <defs>
        <path id="DejaVuSans-35" d="M 691 4666 
L 3169 4666 
L 3169 4134 
L 1269 4134 
L 1269 2991 
Q 1406 3038 1543 3061 
Q 1681 3084 1819 3084 
Q 2600 3084 3056 2656 
Q 3513 2228 3513 1497 
Q 3513 744 3044 326 
Q 2575 -91 1722 -91 
Q 1428 -91 1123 -41 
Q 819 9 494 109 
L 494 744 
Q 775 591 1075 516 
Q 1375 441 1709 441 
Q 2250 441 2565 725 
Q 2881 1009 2881 1497 
Q 2881 1984 2565 2268 
Q 2250 2553 1709 2553 
Q 1456 2553 1204 2497 
Q 953 2441 691 2322 
L 691 4666 
z
" transform="scale(0.015625)"/>
       </defs>
       <use xlink:href="#DejaVuSans-35"/>
       <use xlink:href="#DejaVuSans-30" x="63.623047"/>
       <use xlink:href="#DejaVuSans-30" x="127.246094"/>
      </g>
     </g>
    </g>
    <g id="xtick_3">
     <g id="line2d_3">
      <g>
       <use xlink:href="#m18f8aec9c5" x="200.700467" y="307.584" style="stroke: #000000; stroke-width: 0.8"/>
      </g>
     </g>
     <g id="text_3">
      <!-- 1000 -->
      <g transform="translate(187.975467 322.182437)scale(0.1 -0.1)">
       <defs>
        <path id="DejaVuSans-31" d="M 794 531 
L 1825 531 
L 1825 4091 
L 703 3866 
L 703 4441 
L 1819 4666 
L 2450 4666 
L 2450 531 
L 3481 531 
L 3481 0 
L 794 0 
L 794 531 
z
" transform="scale(0.015625)"/>
       </defs>
       <use xlink:href="#DejaVuSans-31"/>
       <use xlink:href="#DejaVuSans-30" x="63.623047"/>
       <use xlink:href="#DejaVuSans-30" x="127.246094"/>
       <use xlink:href="#DejaVuSans-30" x="190.869141"/>
      </g>
     </g>
    </g>
    <g id="xtick_4">
     <g id="line2d_4">
      <g>
       <use xlink:href="#m18f8aec9c5" x="264.134337" y="307.584" style="stroke: #000000; stroke-width: 0.8"/>
      </g>
     </g>
     <g id="text_4">
      <!-- 1500 -->
      <g transform="translate(251.409337 322.182437)scale(0.1 -0.1)">
       <use xlink:href="#DejaVuSans-31"/>
       <use xlink:href="#DejaVuSans-35" x="63.623047"/>
       <use xlink:href="#DejaVuSans-30" x="127.246094"/>
       <use xlink:href="#DejaVuSans-30" x="190.869141"/>
      </g>
     </g>
    </g>
    <g id="xtick_5">
     <g id="line2d_5">
      <g>
       <use xlink:href="#m18f8aec9c5" x="327.568206" y="307.584" style="stroke: #000000; stroke-width: 0.8"/>
      </g>
     </g>
     <g id="text_5">
      <!-- 2000 -->
      <g transform="translate(314.843206 322.182437)scale(0.1 -0.1)">
       <defs>
        <path id="DejaVuSans-32" d="M 1228 531 
L 3431 531 
L 3431 0 
L 469 0 
L 469 531 
Q 828 903 1448 1529 
Q 2069 2156 2228 2338 
Q 2531 2678 2651 2914 
Q 2772 3150 2772 3378 
Q 2772 3750 2511 3984 
Q 2250 4219 1831 4219 
Q 1534 4219 1204 4116 
Q 875 4013 500 3803 
L 500 4441 
Q 881 4594 1212 4672 
Q 1544 4750 1819 4750 
Q 2544 4750 2975 4387 
Q 3406 4025 3406 3419 
Q 3406 3131 3298 2873 
Q 3191 2616 2906 2266 
Q 2828 2175 2409 1742 
Q 1991 1309 1228 531 
z
" transform="scale(0.015625)"/>
       </defs>
       <use xlink:href="#DejaVuSans-32"/>
       <use xlink:href="#DejaVuSans-30" x="63.623047"/>
       <use xlink:href="#DejaVuSans-30" x="127.246094"/>
       <use xlink:href="#DejaVuSans-30" x="190.869141"/>
      </g>
     </g>
    </g>
    <g id="xtick_6">
     <g id="line2d_6">
      <g>
       <use xlink:href="#m18f8aec9c5" x="391.002076" y="307.584" style="stroke: #000000; stroke-width: 0.8"/>
      </g>
     </g>
     <g id="text_6">
      <!-- 2500 -->
      <g transform="translate(378.277076 322.182437)scale(0.1 -0.1)">
       <use xlink:href="#DejaVuSans-32"/>
       <use xlink:href="#DejaVuSans-35" x="63.623047"/>
       <use xlink:href="#DejaVuSans-30" x="127.246094"/>
       <use xlink:href="#DejaVuSans-30" x="190.869141"/>
      </g>
     </g>
    </g>
   </g>
   <g id="matplotlib.axis_2">
    <g id="ytick_1">
     <g id="line2d_7">
      <defs>
       <path id="mc615f587e5" d="M 0 0 
L -3.5 0 
" style="stroke: #000000; stroke-width: 0.8"/>
      </defs>
      <g>
       <use xlink:href="#mc615f587e5" x="57.6" y="302.662058" style="stroke: #000000; stroke-width: 0.8"/>
      </g>
     </g>
     <g id="text_7">
      <!-- 4060 -->
      <g transform="translate(25.15 306.461277)scale(0.1 -0.1)">
       <defs>
        <path id="DejaVuSans-34" d="M 2419 4116 
L 825 1625 
L 2419 1625 
L 2419 4116 
z
M 2253 4666 
L 3047 4666 
L 3047 1625 
L 3713 1625 
L 3713 1100 
L 3047 1100 
L 3047 0 
L 2419 0 
L 2419 1100 
L 313 1100 
L 313 1709 
L 2253 4666 
z
" transform="scale(0.015625)"/>
        <path id="DejaVuSans-36" d="M 2113 2584 
Q 1688 2584 1439 2293 
Q 1191 2003 1191 1497 
Q 1191 994 1439 701 
Q 1688 409 2113 409 
Q 2538 409 2786 701 
Q 3034 994 3034 1497 
Q 3034 2003 2786 2293 
Q 2538 2584 2113 2584 
z
M 3366 4563 
L 3366 3988 
Q 3128 4100 2886 4159 
Q 2644 4219 2406 4219 
Q 1781 4219 1451 3797 
Q 1122 3375 1075 2522 
Q 1259 2794 1537 2939 
Q 1816 3084 2150 3084 
Q 2853 3084 3261 2657 
Q 3669 2231 3669 1497 
Q 3669 778 3244 343 
Q 2819 -91 2113 -91 
Q 1303 -91 875 529 
Q 447 1150 447 2328 
Q 447 3434 972 4092 
Q 1497 4750 2381 4750 
Q 2619 4750 2861 4703 
Q 3103 4656 3366 4563 
z
" transform="scale(0.015625)"/>
       </defs>
       <use xlink:href="#DejaVuSans-34"/>
       <use xlink:href="#DejaVuSans-30" x="63.623047"/>
       <use xlink:href="#DejaVuSans-36" x="127.246094"/>
       <use xlink:href="#DejaVuSans-30" x="190.869141"/>
      </g>
     </g>
    </g>
    <g id="ytick_2">
     <g id="line2d_8">
      <g>
       <use xlink:href="#mc615f587e5" x="57.6" y="271.575108" style="stroke: #000000; stroke-width: 0.8"/>
      </g>
     </g>
     <g id="text_8">
      <!-- 4080 -->
      <g transform="translate(25.15 275.374327)scale(0.1 -0.1)">
       <defs>
        <path id="DejaVuSans-38" d="M 2034 2216 
Q 1584 2216 1326 1975 
Q 1069 1734 1069 1313 
Q 1069 891 1326 650 
Q 1584 409 2034 409 
Q 2484 409 2743 651 
Q 3003 894 3003 1313 
Q 3003 1734 2745 1975 
Q 2488 2216 2034 2216 
z
M 1403 2484 
Q 997 2584 770 2862 
Q 544 3141 544 3541 
Q 544 4100 942 4425 
Q 1341 4750 2034 4750 
Q 2731 4750 3128 4425 
Q 3525 4100 3525 3541 
Q 3525 3141 3298 2862 
Q 3072 2584 2669 2484 
Q 3125 2378 3379 2068 
Q 3634 1759 3634 1313 
Q 3634 634 3220 271 
Q 2806 -91 2034 -91 
Q 1263 -91 848 271 
Q 434 634 434 1313 
Q 434 1759 690 2068 
Q 947 2378 1403 2484 
z
M 1172 3481 
Q 1172 3119 1398 2916 
Q 1625 2713 2034 2713 
Q 2441 2713 2670 2916 
Q 2900 3119 2900 3481 
Q 2900 3844 2670 4047 
Q 2441 4250 2034 4250 
Q 1625 4250 1398 4047 
Q 1172 3844 1172 3481 
z
" transform="scale(0.015625)"/>
       </defs>
       <use xlink:href="#DejaVuSans-34"/>
       <use xlink:href="#DejaVuSans-30" x="63.623047"/>
       <use xlink:href="#DejaVuSans-38" x="127.246094"/>
       <use xlink:href="#DejaVuSans-30" x="190.869141"/>
      </g>
     </g>
    </g>
    <g id="ytick_3">
     <g id="line2d_9">
      <g>
       <use xlink:href="#mc615f587e5" x="57.6" y="240.488157" style="stroke: #000000; stroke-width: 0.8"/>
      </g>
     </g>
     <g id="text_9">
      <!-- 4100 -->
      <g transform="translate(25.15 244.287376)scale(0.1 -0.1)">
       <use xlink:href="#DejaVuSans-34"/>
       <use xlink:href="#DejaVuSans-31" x="63.623047"/>
       <use xlink:href="#DejaVuSans-30" x="127.246094"/>
       <use xlink:href="#DejaVuSans-30" x="190.869141"/>
      </g>
     </g>
    </g>
    <g id="ytick_4">
     <g id="line2d_10">
      <g>
       <use xlink:href="#mc615f587e5" x="57.6" y="209.401207" style="stroke: #000000; stroke-width: 0.8"/>
      </g>
     </g>
     <g id="text_10">
      <!-- 4120 -->
      <g transform="translate(25.15 213.200425)scale(0.1 -0.1)">
       <use xlink:href="#DejaVuSans-34"/>
       <use xlink:href="#DejaVuSans-31" x="63.623047"/>
       <use xlink:href="#DejaVuSans-32" x="127.246094"/>
       <use xlink:href="#DejaVuSans-30" x="190.869141"/>
      </g>
     </g>
    </g>
    <g id="ytick_5">
     <g id="line2d_11">
      <g>
       <use xlink:href="#mc615f587e5" x="57.6" y="178.314256" style="stroke: #000000; stroke-width: 0.8"/>
      </g>
     </g>
     <g id="text_11">
      <!-- 4140 -->
      <g transform="translate(25.15 182.113475)scale(0.1 -0.1)">
       <use xlink:href="#DejaVuSans-34"/>
       <use xlink:href="#DejaVuSans-31" x="63.623047"/>
       <use xlink:href="#DejaVuSans-34" x="127.246094"/>
       <use xlink:href="#DejaVuSans-30" x="190.869141"/>
      </g>
     </g>
    </g>
    <g id="ytick_6">
     <g id="line2d_12">
      <g>
       <use xlink:href="#mc615f587e5" x="57.6" y="147.227306" style="stroke: #000000; stroke-width: 0.8"/>
      </g>
     </g>
     <g id="text_12">
      <!-- 4160 -->
      <g transform="translate(25.15 151.026524)scale(0.1 -0.1)">
       <use xlink:href="#DejaVuSans-34"/>
       <use xlink:href="#DejaVuSans-31" x="63.623047"/>
       <use xlink:href="#DejaVuSans-36" x="127.246094"/>
       <use xlink:href="#DejaVuSans-30" x="190.869141"/>
      </g>
     </g>
    </g>
    <g id="ytick_7">
     <g id="line2d_13">
      <g>
       <use xlink:href="#mc615f587e5" x="57.6" y="116.140355" style="stroke: #000000; stroke-width: 0.8"/>
      </g>
     </g>
     <g id="text_13">
      <!-- 4180 -->
      <g transform="translate(25.15 119.939574)scale(0.1 -0.1)">
       <use xlink:href="#DejaVuSans-34"/>
       <use xlink:href="#DejaVuSans-31" x="63.623047"/>
       <use xlink:href="#DejaVuSans-38" x="127.246094"/>
       <use xlink:href="#DejaVuSans-30" x="190.869141"/>
      </g>
     </g>
    </g>
    <g id="ytick_8">
     <g id="line2d_14">
      <g>
       <use xlink:href="#mc615f587e5" x="57.6" y="85.053404" style="stroke: #000000; stroke-width: 0.8"/>
      </g>
     </g>
     <g id="text_14">
      <!-- 4200 -->
      <g transform="translate(25.15 88.852623)scale(0.1 -0.1)">
       <use xlink:href="#DejaVuSans-34"/>
       <use xlink:href="#DejaVuSans-32" x="63.623047"/>
       <use xlink:href="#DejaVuSans-30" x="127.246094"/>
       <use xlink:href="#DejaVuSans-30" x="190.869141"/>
      </g>
     </g>
    </g>
    <g id="ytick_9">
     <g id="line2d_15">
      <g>
       <use xlink:href="#mc615f587e5" x="57.6" y="53.966454" style="stroke: #000000; stroke-width: 0.8"/>
      </g>
     </g>
     <g id="text_15">
      <!-- 4220 -->
      <g transform="translate(25.15 57.765673)scale(0.1 -0.1)">
       <use xlink:href="#DejaVuSans-34"/>
       <use xlink:href="#DejaVuSans-32" x="63.623047"/>
       <use xlink:href="#DejaVuSans-32" x="127.246094"/>
       <use xlink:href="#DejaVuSans-30" x="190.869141"/>
      </g>
     </g>
    </g>
   </g>
   <g id="line2d_16">
    <path d="M 73.832727 217.771004 
L 74.086463 210.198113 
L 74.21333 233.114873 
L 74.340198 234.111386 
L 74.593934 207.009728 
L 74.720801 216.574884 
L 74.847669 213.386499 
L 74.974537 200.034897 
L 75.101405 204.618249 
L 75.35514 228.731127 
L 75.482008 221.756296 
L 75.735743 232.71642 
L 75.862611 225.741588 
L 76.116347 239.890097 
L 76.370082 227.336161 
L 76.750685 229.129581 
L 76.877553 232.516813 
L 77.004421 225.542742 
L 77.258156 204.817856 
L 77.511892 230.324941 
L 77.638759 222.951656 
L 77.765627 223.549716 
L 77.892495 233.712932 
L 78.019363 225.144288 
L 78.14623 204.020948 
L 78.273098 207.607787 
L 78.399966 224.147776 
L 78.653701 203.821342 
L 78.907437 231.52106 
L 79.161172 220.161725 
L 79.414908 220.959389 
L 79.541776 233.31448 
L 79.668643 229.129581 
L 79.795511 205.216308 
L 79.922379 205.814368 
L 80.049247 225.741588 
L 80.176114 225.741588 
L 80.42985 209.799661 
L 80.683585 207.009728 
L 80.810453 204.219795 
L 80.937321 206.412426 
L 81.064188 210.995779 
L 81.317924 201.829075 
L 81.444792 203.622495 
L 81.698527 211.593079 
L 81.825395 202.426375 
L 81.952263 203.024435 
L 82.205998 209.999267 
L 82.459734 192.662371 
L 82.713469 212.191139 
L 82.967205 182.897607 
L 83.094072 186.684054 
L 83.474675 212.589593 
L 83.601543 208.00624 
L 83.855279 181.502643 
L 83.982146 183.694515 
L 84.235882 180.307282 
L 84.36275 183.097214 
L 84.489617 182.299549 
L 84.743353 192.263159 
L 84.870221 180.705735 
L 84.997088 180.107676 
L 85.250824 198.839536 
L 85.377692 195.850758 
L 85.631427 207.209334 
L 86.01203 177.317744 
L 86.265766 186.2856 
L 86.519501 156.394009 
L 86.773237 190.270893 
L 87.026972 160.578908 
L 87.280708 196.448058 
L 87.407575 195.651152 
L 87.534443 181.104189 
L 87.661311 181.303036 
L 87.788179 189.074774 
L 88.041914 164.962653 
L 88.168782 185.289088 
L 88.422517 145.832339 
L 88.549385 154.600589 
L 88.676253 165.361107 
L 88.803121 159.382788 
L 88.929988 158.785488 
L 89.310591 184.292574 
L 89.437459 183.694515 
L 89.564327 184.890634 
L 89.818062 182.897607 
L 89.94493 183.296061 
L 90.071798 249.854088 
L 90.198666 251.448281 
L 90.325533 249.05718 
L 90.452401 236.303258 
L 90.579269 239.093191 
L 90.959872 261.611498 
L 91.08674 266.593303 
L 91.213608 264.201824 
L 91.340475 254.038987 
L 91.467343 253.440927 
L 91.721079 277.752652 
L 91.974814 252.644021 
L 92.101682 258.024278 
L 92.22855 256.430086 
L 92.355417 252.843246 
L 92.609153 256.430086 
L 92.989756 227.336161 
L 93.116624 225.941194 
L 93.243491 203.622495 
L 93.370359 204.419402 
L 93.497227 225.941194 
L 93.624095 226.738102 
L 94.004698 211.194627 
L 94.258433 237.299771 
L 94.512169 219.564423 
L 94.639037 220.161725 
L 94.892772 232.11836 
L 95.01964 231.121847 
L 95.146508 231.321453 
L 95.400243 268.785175 
L 95.653978 269.781688 
L 95.780846 273.966587 
L 96.161449 234.111386 
L 96.288317 237.698225 
L 96.66892 257.227372 
L 96.922656 244.274602 
L 97.049524 250.651374 
L 97.176391 248.658349 
L 97.430127 229.328427 
L 97.683862 241.086217 
L 97.937598 220.759783 
L 98.064466 219.364817 
L 98.191333 221.955902 
L 98.318201 219.763271 
L 98.445069 229.727639 
L 98.571936 227.336161 
L 98.825672 201.231015 
L 98.95254 198.839536 
L 99.333143 178.71271 
L 99.586878 183.894121 
L 99.840614 170.342912 
L 100.094349 185.886388 
L 100.221217 182.897607 
L 100.474953 188.875926 
L 100.728688 172.535545 
L 100.982424 190.071286 
L 101.109291 185.089481 
L 101.236159 172.535545 
L 101.363027 171.339425 
L 101.489894 180.107676 
L 101.616762 179.111162 
L 101.870498 155.597103 
L 102.251101 177.51735 
L 102.377969 177.317744 
L 102.504836 178.314256 
L 102.758572 184.092967 
L 103.139175 171.539031 
L 103.392911 201.829075 
L 103.646646 172.137091 
L 103.900382 185.68754 
L 104.027249 180.904583 
L 104.407852 151.013751 
L 104.53472 155.397497 
L 104.661588 154.202137 
L 104.788456 155.995556 
L 105.042191 184.691027 
L 105.169059 183.495667 
L 105.422794 176.32123 
L 105.549662 178.71271 
L 105.67653 185.289088 
L 105.930265 183.894121 
L 106.057133 184.491421 
L 106.184001 181.104189 
L 106.310869 185.289088 
L 106.564604 211.194627 
L 106.81834 183.894121 
L 107.198943 251.249054 
L 107.325811 247.064156 
L 107.579546 230.324941 
L 107.706414 230.524547 
L 107.833281 231.919513 
L 108.087017 219.763271 
L 108.340752 230.723393 
L 108.594488 218.368304 
L 108.721356 212.589593 
L 108.975091 226.339648 
L 109.228827 205.216308 
L 109.355694 207.40818 
L 109.482562 205.614762 
L 109.60943 202.027923 
L 109.736298 208.6043 
L 109.990033 203.224042 
L 110.243769 221.357843 
L 110.497504 209.999267 
L 110.624372 213.586106 
L 110.878107 207.806634 
L 111.131843 210.995779 
L 111.25871 208.6043 
L 111.766181 178.912316 
L 111.893049 186.8829 
L 112.146785 212.389987 
L 112.40052 204.219795 
L 112.527388 208.205847 
L 112.654256 203.024435 
L 112.907991 177.716196 
L 113.161727 184.491421 
L 113.288594 181.702247 
L 113.54233 186.484448 
L 113.669197 182.698001 
L 113.922933 168.947946 
L 114.049801 169.944458 
L 114.303536 188.67632 
L 114.430404 206.412426 
L 114.557272 195.252698 
L 114.684139 196.049604 
L 114.811007 206.013214 
L 115.064743 187.082506 
L 115.318478 210.596567 
L 115.445346 205.415914 
L 115.699081 176.520836 
L 115.825949 185.289088 
L 116.079685 208.205847 
L 116.460288 199.039143 
L 116.587155 199.437597 
L 116.967759 205.01746 
L 117.094626 196.846512 
L 117.221494 180.705735 
L 117.348362 183.296061 
L 117.602097 204.020948 
L 117.855833 182.897607 
L 118.109568 205.814368 
L 118.363304 193.060825 
L 118.617039 209.999267 
L 118.870775 181.104189 
L 119.12451 177.51735 
L 119.251378 175.922777 
L 119.378246 179.310769 
L 119.505114 179.111162 
L 119.631981 177.317744 
L 120.139452 209.799661 
L 120.26632 209.401207 
L 120.520055 179.111162 
L 120.646923 188.07902 
L 120.900659 212.589593 
L 121.027526 209.799661 
L 121.154394 203.821342 
L 121.281262 189.872439 
L 121.40813 189.074774 
L 121.534997 207.40818 
L 121.661865 204.618249 
L 121.915601 176.122384 
L 122.042468 192.662371 
L 122.169336 193.658125 
L 122.296204 187.48096 
L 122.423072 192.263159 
L 122.549939 206.013214 
L 122.676807 203.622495 
L 122.803675 214.981072 
L 123.05741 206.81088 
L 123.184278 227.933462 
L 123.311146 229.926487 
L 123.564881 195.252698 
L 123.691749 203.622495 
L 123.945484 178.71271 
L 124.19922 211.792685 
L 124.326088 207.40818 
L 124.579823 230.922999 
L 124.706691 226.937708 
L 124.833559 218.567911 
L 124.960426 219.962877 
L 125.214162 226.738102 
L 125.467897 218.169457 
L 125.594765 233.114873 
L 125.721633 231.52106 
L 125.8485 215.179918 
L 126.102236 249.256407 
L 126.355971 223.94817 
L 126.482839 228.133068 
L 126.736575 206.81088 
L 126.99031 227.136554 
L 127.117178 218.966364 
L 127.244046 217.969851 
L 127.370913 219.165971 
L 127.624649 203.224042 
L 127.751517 208.803147 
L 127.878384 229.129581 
L 128.005252 229.727639 
L 128.258988 192.462765 
L 128.385855 201.031409 
L 128.639591 191.067799 
L 128.893326 204.419402 
L 129.020194 197.44457 
L 129.147062 198.839536 
L 129.273929 203.024435 
L 129.400797 201.031409 
L 129.654533 187.48096 
L 129.908268 213.187652 
L 130.035136 210.596567 
L 130.162004 214.781466 
L 130.415739 234.709446 
L 130.542607 223.749322 
L 130.796342 271.176654 
L 130.92321 269.582462 
L 131.050078 259.419244 
L 131.176946 261.611498 
L 131.684416 295.089548 
L 132.06502 270.578595 
L 132.191887 268.785175 
L 132.445623 278.749166 
L 132.572491 274.763494 
L 132.699358 266.991757 
L 132.826226 266.991757 
L 133.079962 275.760007 
L 133.206829 270.180142 
L 133.460565 244.871902 
L 133.587433 246.266869 
L 133.7143 244.274602 
L 133.841168 233.31448 
L 133.968036 235.904806 
L 134.221771 255.832406 
L 134.348639 261.411891 
L 134.602375 241.883124 
L 134.85611 255.433953 
L 134.982978 244.074996 
L 135.109845 244.673056 
L 135.236713 257.426599 
L 135.363581 256.430086 
L 135.490449 248.259895 
L 135.617316 251.846734 
L 135.744184 247.861441 
L 135.99792 217.969851 
L 136.124787 218.966364 
L 136.378523 199.437597 
L 136.632258 203.821342 
L 136.759126 200.234503 
L 136.885994 203.821342 
L 137.139729 232.516813 
L 137.266597 231.919513 
L 137.520333 205.216308 
L 137.774068 212.191139 
L 137.900936 205.814368 
L 138.027803 209.799661 
L 138.154671 221.556689 
L 138.281539 219.165971 
L 138.535274 203.422889 
L 138.78901 205.216308 
L 139.042745 249.654861 
L 139.296481 205.614762 
L 139.423349 219.165971 
L 139.550216 215.977584 
L 139.677084 200.632957 
L 139.93082 200.434109 
L 140.057687 201.231015 
L 140.184555 204.020948 
L 140.438291 181.901095 
L 140.692026 199.437597 
L 140.818894 196.647664 
L 141.072629 205.216308 
L 141.199497 194.654638 
L 141.326365 195.053091 
L 141.453232 204.817856 
L 141.706968 179.111162 
L 141.833836 179.908829 
L 141.960703 178.71271 
L 142.214439 149.618784 
L 142.468174 182.100701 
L 142.595042 183.097214 
L 142.72191 179.908829 
L 142.848778 181.303036 
L 142.975645 187.082506 
L 143.102513 183.097214 
L 143.229381 183.694515 
L 143.483116 207.209334 
L 143.736852 178.71271 
L 143.990587 204.618249 
L 144.244323 169.347158 
L 144.498058 185.289088 
L 144.878661 150.415692 
L 145.005529 143.839313 
L 145.259265 155.597103 
L 145.386132 150.615297 
L 145.513 157.58937 
L 145.766736 187.082506 
L 146.020471 172.734391 
L 146.274207 188.477472 
L 146.527942 176.520836 
L 146.781678 179.908829 
L 146.908545 207.806634 
L 147.035413 203.622495 
L 147.289148 226.738102 
L 147.416016 221.357843 
L 147.542884 223.350109 
L 147.796619 256.230859 
L 148.177223 243.476938 
L 148.30409 245.868416 
L 148.430958 245.469962 
L 148.684694 230.126093 
L 148.938429 239.491645 
L 149.065297 232.317966 
L 149.192165 231.719907 
L 149.319032 239.093191 
L 149.4459 239.691251 
L 149.826503 220.959389 
L 149.953371 230.723393 
L 150.080239 231.321453 
L 150.207106 224.147776 
L 150.460842 231.321453 
L 150.58771 228.332673 
L 150.714577 234.111386 
L 150.968313 255.633179 
L 151.222048 240.488157 
L 151.475784 229.528033 
L 151.602652 228.929975 
L 151.729519 229.328427 
L 152.110123 204.618249 
L 152.23699 208.205847 
L 152.490726 199.437597 
L 152.871329 227.933462 
L 152.998197 226.339648 
L 153.251932 204.020948 
L 153.505668 224.147776 
L 153.632535 222.354356 
L 153.759403 212.789198 
L 153.886271 213.586106 
L 154.140006 234.111386 
L 154.393742 226.339648 
L 154.647477 212.389987 
L 154.901213 238.096679 
L 155.154948 205.415914 
L 155.408684 224.346622 
L 155.535552 208.404694 
L 155.662419 207.40818 
L 155.916155 234.709446 
L 156.296758 205.01746 
L 156.550493 230.723393 
L 156.677361 224.546228 
L 156.804229 225.941194 
L 156.931097 229.328427 
L 157.057964 229.528033 
L 157.3117 232.71642 
L 157.438568 229.727639 
L 157.565435 230.723393 
L 157.692303 230.524547 
L 157.946039 205.814368 
L 158.072906 226.140042 
L 158.199774 228.332673 
L 158.326642 206.81088 
L 158.45351 204.817856 
L 158.707245 226.539254 
L 158.834113 222.354356 
L 158.96098 226.937708 
L 159.087848 236.701712 
L 159.214716 234.709446 
L 159.341584 230.524547 
L 159.468451 230.723393 
L 159.722187 200.632957 
L 159.849055 201.429863 
L 160.10279 223.94817 
L 160.229658 221.756296 
L 160.483393 243.078484 
L 160.737129 228.929975 
L 160.863997 233.31448 
L 161.117732 207.40818 
L 161.498335 230.922999 
L 161.625203 227.136554 
L 162.005806 203.224042 
L 162.259542 225.941194 
L 162.386409 205.814368 
L 162.513277 205.216308 
L 162.640145 223.94817 
L 162.89388 209.999267 
L 163.020748 213.386499 
L 163.274484 196.647664 
L 163.401351 201.031409 
L 163.528219 199.437597 
L 163.655087 194.256185 
L 163.781955 204.618249 
L 163.908822 205.814368 
L 164.162558 175.325476 
L 164.289426 183.894121 
L 164.543161 171.539031 
L 164.923764 184.691027 
L 165.050632 182.897607 
L 165.1775 178.71271 
L 165.304367 178.912316 
L 165.558103 181.901095 
L 165.811838 191.665859 
L 166.065574 177.118896 
L 166.192442 184.890634 
L 166.319309 184.292574 
L 166.446177 187.281354 
L 166.699913 214.781466 
L 166.953648 198.640689 
L 167.080516 199.636443 
L 167.334251 160.379302 
L 167.714855 185.886388 
L 167.96859 160.578908 
L 168.095458 158.585882 
L 168.222325 160.578908 
L 168.476061 188.07902 
L 168.602929 186.8829 
L 168.856664 154.799437 
L 168.983532 169.546006 
L 169.1104 169.546006 
L 169.237267 156.194403 
L 169.364135 158.18743 
L 169.617871 176.122384 
L 169.744738 175.325476 
L 169.998474 158.585882 
L 170.252209 174.328963 
L 170.379077 172.933997 
L 170.632813 195.850758 
L 170.886548 184.491421 
L 171.013416 192.263159 
L 171.140283 189.27438 
L 171.394019 229.129581 
L 171.647754 220.361331 
L 171.90149 231.919513 
L 172.155225 232.317966 
L 172.408961 229.528033 
L 172.535829 233.712932 
L 172.789564 218.567911 
L 173.0433 247.263382 
L 173.170167 241.883124 
L 173.423903 216.77449 
L 173.677638 230.922999 
L 173.804506 225.741588 
L 174.058242 197.843024 
L 174.311977 210.198113 
L 174.565712 199.039143 
L 174.819448 207.806634 
L 174.946316 207.806634 
L 175.073183 205.814368 
L 175.200051 199.039143 
L 175.326919 200.832563 
L 175.453787 207.806634 
L 175.580654 204.419402 
L 175.707522 204.419402 
L 175.961258 230.922999 
L 176.341861 204.618249 
L 176.595596 179.111162 
L 176.849332 183.894121 
L 176.9762 182.100701 
L 177.103067 184.491421 
L 177.356803 174.129357 
L 177.48367 180.904583 
L 177.737406 208.404694 
L 177.864274 206.21282 
L 178.118009 176.91929 
L 178.371745 195.053091 
L 178.62548 179.111162 
L 178.879216 203.422889 
L 179.132951 174.926263 
L 179.259819 180.506129 
L 179.640422 230.524547 
L 179.894158 197.245723 
L 180.147893 207.009728 
L 180.274761 201.429863 
L 180.528496 183.296061 
L 180.655364 192.861219 
L 180.782232 190.071286 
L 180.909099 175.524324 
L 181.162835 202.625981 
L 181.41657 182.299549 
L 181.670306 185.089481 
L 181.924041 176.719684 
L 182.177777 188.277866 
L 182.431512 180.506129 
L 182.55838 183.097214 
L 182.812116 170.542518 
L 183.192719 187.082506 
L 183.573322 180.307282 
L 183.827057 177.118896 
L 184.080793 184.491421 
L 184.207661 184.292574 
L 184.334528 185.68754 
L 184.588264 198.640689 
L 184.841999 175.325476 
L 184.968867 184.691027 
L 185.095735 183.495667 
L 185.222603 179.310769 
L 185.34947 183.296061 
L 185.603206 157.390522 
L 185.730074 176.32123 
L 185.856941 177.915802 
L 185.983809 160.777754 
L 186.110677 167.752586 
L 186.237544 184.491421 
L 186.364412 185.68754 
L 186.618148 174.527811 
L 186.871883 199.636443 
L 187.125619 180.506129 
L 187.252486 181.303036 
L 187.759957 206.21282 
L 187.886825 209.799661 
L 188.013693 199.836049 
L 188.140561 198.839536 
L 188.394296 233.91178 
L 188.521164 233.114873 
L 188.774899 229.328427 
L 189.028635 234.310992 
L 189.28237 226.339648 
L 189.409238 228.731127 
L 189.536106 226.140042 
L 189.662973 226.539254 
L 189.916709 231.52106 
L 190.170444 234.709446 
L 190.42418 213.784952 
L 190.677915 227.336161 
L 190.804783 226.937708 
L 190.931651 230.126093 
L 191.058519 227.933462 
L 191.185386 220.959389 
L 191.312254 221.955902 
L 191.56599 248.259895 
L 191.819725 228.531521 
L 191.946593 229.926487 
L 192.200328 222.154749 
L 192.327196 229.328427 
L 192.580931 197.644176 
L 192.834667 203.422889 
L 192.961535 190.071286 
L 193.088402 192.064311 
L 193.342138 214.781466 
L 193.595873 196.24921 
L 193.722741 199.636443 
L 193.849609 195.252698 
L 194.103344 180.107676 
L 194.35708 195.452304 
L 194.483948 195.850758 
L 194.610815 190.071286 
L 194.864551 196.647664 
L 195.118286 175.325476 
L 195.245154 180.506129 
L 195.372022 199.23799 
L 195.498889 201.429863 
L 195.752625 180.506129 
L 195.879493 176.719684 
L 196.133228 184.691027 
L 196.260096 175.72393 
L 196.386964 175.524324 
L 196.513831 183.694515 
L 196.640699 183.495667 
L 196.894435 174.926263 
L 197.14817 183.097214 
L 197.275038 181.702247 
L 197.401906 178.11465 
L 197.528773 178.71271 
L 197.782509 184.292574 
L 198.036244 185.68754 
L 198.543715 178.11465 
L 198.797451 182.698001 
L 199.051186 174.926263 
L 199.304922 181.104189 
L 199.431789 180.904583 
L 199.685525 177.915802 
L 199.812393 180.705735 
L 200.066128 163.767293 
L 200.192996 168.549492 
L 200.319864 166.158772 
L 200.446731 158.387034 
L 200.700467 181.502643 
L 200.954202 174.527811 
L 201.334805 181.502643 
L 201.461673 181.104189 
L 201.715409 172.734391 
L 201.969144 181.104189 
L 202.096012 179.709222 
L 202.22288 180.904583 
L 202.349747 180.307282 
L 202.603483 175.12587 
L 202.857218 178.11465 
L 202.984086 175.524324 
L 203.110954 168.749098 
L 203.237822 170.742125 
L 203.364689 174.926263 
L 203.87216 149.618784 
L 203.999028 149.419178 
L 204.252764 146.430399 
L 204.506499 158.387034 
L 204.760234 134.672611 
L 205.01397 146.629245 
L 205.140838 147.027699 
L 205.267705 156.593616 
L 205.394573 157.390522 
L 205.521441 150.415692 
L 205.775176 159.183942 
L 205.902044 153.803683 
L 206.028912 153.404471 
L 206.282647 155.995556 
L 206.409515 155.198649 
L 206.536383 155.397497 
L 206.663251 156.99207 
L 206.790118 160.777754 
L 206.916986 159.782001 
L 207.043854 156.792463 
L 207.297589 171.339425 
L 207.551325 159.980848 
L 207.678192 161.575421 
L 207.931928 154.799437 
L 208.185663 156.99207 
L 208.312531 155.795949 
L 208.439399 155.795949 
L 208.566267 157.190916 
L 208.693134 155.795949 
L 208.820002 151.212598 
L 208.94687 153.006017 
L 209.200605 161.973875 
L 209.454341 152.010263 
L 209.581209 156.792463 
L 209.834944 152.408717 
L 209.961812 157.788976 
L 210.08868 156.194403 
L 210.215547 149.220332 
L 210.342415 149.817632 
L 210.59615 154.799437 
L 210.849886 143.242013 
L 210.976754 146.430399 
L 211.103621 155.397497 
L 211.230489 155.597103 
L 211.357357 153.205623 
L 211.611092 157.390522 
L 211.73796 153.803683 
L 211.991696 161.575421 
L 212.118563 161.973875 
L 212.245431 153.205623 
L 212.372299 152.209111 
L 212.626034 160.578908 
L 212.87977 162.172721 
L 213.133505 156.792463 
L 213.260373 153.404471 
L 213.514108 157.390522 
L 213.767844 150.615297 
L 214.021579 136.267181 
L 214.148447 138.857508 
L 214.275315 138.459056 
L 214.52905 131.883436 
L 214.655918 129.491958 
L 215.163389 108.169011 
L 215.417125 120.325254 
L 215.67086 112.155062 
L 215.924596 106.973651 
L 216.178331 109.763584 
L 216.305199 107.770557 
L 216.558934 102.3903 
L 216.81267 105.180231 
L 216.939537 103.187206 
L 217.193273 93.024748 
L 217.320141 94.020502 
L 217.447008 92.825142 
L 217.827612 76.086307 
L 217.954479 76.285154 
L 218.46195 87.643731 
L 219.096289 60.542831 
L 219.223157 60.542831 
L 219.350025 59.147865 
L 219.60376 53.568 
L 219.730628 54.962966 
L 219.857495 54.76336 
L 219.984363 252.045961 
L 220.238099 259.618471 
L 220.491834 253.2417 
L 220.618702 252.644021 
L 220.872437 248.857574 
L 220.999305 248.060668 
L 221.126173 243.078484 
L 221.379908 249.654861 
L 221.633644 228.531521 
L 221.760512 246.068022 
L 221.887379 245.469962 
L 222.014247 234.310992 
L 222.267983 252.444794 
L 222.521718 231.919513 
L 222.648586 243.476938 
L 222.775453 239.890097 
L 222.902321 228.332673 
L 223.029189 227.933462 
L 223.156057 230.723393 
L 223.409792 226.539254 
L 223.53666 226.339648 
L 223.663528 227.336161 
L 223.917263 232.71642 
L 224.044131 231.52106 
L 224.170999 228.731127 
L 224.297866 230.723393 
L 224.424734 239.691251 
L 224.551602 239.890097 
L 224.805337 231.52106 
L 224.932205 232.916026 
L 225.185941 250.25254 
L 225.439676 244.871902 
L 225.693411 249.654861 
L 226.074015 243.676544 
L 226.200882 241.883124 
L 226.32775 242.281577 
L 226.454618 243.476938 
L 226.581486 243.27809 
L 226.708353 241.883124 
L 226.962089 254.835893 
L 227.088957 247.861441 
L 227.342692 228.929975 
L 227.46956 239.292797 
L 227.596428 238.296285 
L 227.723295 232.71642 
L 227.850163 232.516813 
L 227.977031 232.916026 
L 228.103899 199.437597 
L 228.357634 206.611274 
L 228.611369 201.031409 
L 228.738237 201.629469 
L 229.11884 217.571398 
L 229.245708 214.184164 
L 229.499444 204.419402 
L 229.626311 204.419402 
L 229.753179 202.824829 
L 229.880047 203.024435 
L 230.006915 206.013214 
L 230.26065 204.020948 
L 230.387518 204.219795 
L 230.514386 203.821342 
L 230.768121 208.803147 
L 230.894989 208.00624 
L 231.021857 208.404694 
L 231.148724 211.394233 
L 231.40246 204.419402 
L 231.656195 210.397719 
L 231.783063 208.205847 
L 232.036798 225.343136 
L 232.290534 218.368304 
L 232.417402 222.553203 
L 232.544269 220.759783 
L 232.671137 213.386499 
L 232.798005 216.176432 
L 232.924873 222.354356 
L 233.178608 203.422889 
L 233.432344 209.600813 
L 233.686079 202.227529 
L 233.812947 207.806634 
L 234.066682 225.741588 
L 234.19355 221.756296 
L 234.447286 206.412426 
L 234.701021 208.00624 
L 234.827889 208.803147 
L 234.954756 207.40818 
L 235.33536 220.959389 
L 235.462227 219.962877 
L 235.715963 205.614762 
L 235.842831 209.002753 
L 236.096566 227.136554 
L 236.223434 224.745076 
L 236.350302 226.140042 
L 236.477169 229.926487 
L 236.604037 239.093191 
L 236.857773 214.184164 
L 236.98464 219.165971 
L 237.111508 228.929975 
L 237.238376 225.941194 
L 237.492111 210.198113 
L 237.745847 235.107898 
L 237.999582 230.126093 
L 238.380185 205.01746 
L 238.507053 207.009728 
L 238.633921 204.419402 
L 238.887656 208.803147 
L 239.141392 195.053091 
L 239.26826 207.209334 
L 239.395127 205.614762 
L 239.521995 189.672833 
L 239.648863 188.277866 
L 239.775731 203.821342 
L 239.902598 204.618249 
L 240.156334 181.502643 
L 240.410069 204.219795 
L 240.663805 183.694515 
L 240.790672 178.314256 
L 241.044408 154.400983 
L 241.171276 171.339425 
L 241.298143 167.553738 
L 241.425011 158.18743 
L 241.678747 196.846512 
L 241.805614 200.832563 
L 241.932482 209.2016 
L 242.05935 203.622495 
L 242.313085 171.937485 
L 242.693689 222.752809 
L 243.20116 174.527811 
L 243.454895 215.179918 
L 243.581763 203.422889 
L 243.708631 202.625981 
L 243.835498 216.376038 
L 244.216101 182.299549 
L 244.342969 184.092967 
L 244.469837 171.737879 
L 244.596705 185.886388 
L 244.723572 181.901095 
L 244.85044 173.132845 
L 245.104176 208.00624 
L 245.357911 152.408717 
L 245.484779 158.785488 
L 245.611647 157.190916 
L 245.738514 147.625759 
L 245.99225 174.727417 
L 246.245985 155.397497 
L 246.372853 160.180454 
L 246.626589 144.038919 
L 247.007192 163.567687 
L 247.134059 160.977361 
L 247.260927 161.375815 
L 247.387795 171.539031 
L 247.514663 167.154526 
L 247.64153 151.810657 
L 247.895266 179.111162 
L 248.149001 157.58937 
L 248.275869 154.202137 
L 248.529605 122.91558 
L 248.78334 134.075309 
L 248.910208 132.28189 
L 249.037076 135.270669 
L 249.163943 128.096992 
L 249.417679 101.79224 
L 249.544547 106.375591 
L 249.798282 141.248988 
L 250.052017 126.303571 
L 250.178885 133.875703 
L 250.305753 132.082284 
L 250.432621 127.100479 
L 250.686356 142.045894 
L 250.940092 124.708999 
L 251.193827 136.865242 
L 251.320695 132.87919 
L 251.447563 132.87919 
L 251.701298 159.183942 
L 251.955034 178.11465 
L 252.208769 187.879414 
L 252.335637 178.513862 
L 252.462505 230.723393 
L 252.589372 234.50984 
L 252.71624 234.908292 
L 252.843108 234.709446 
L 253.350579 272.172787 
L 253.477446 271.375881 
L 253.604314 259.817698 
L 253.731182 262.209177 
L 253.85805 259.817698 
L 253.984917 247.263382 
L 254.111785 249.455634 
L 254.238653 260.415758 
L 254.365521 254.636666 
L 254.619256 222.752809 
L 254.872992 256.629312 
L 254.999859 248.060668 
L 255.253595 203.224042 
L 255.50733 219.962877 
L 255.761066 177.317744 
L 256.014801 207.806634 
L 256.141669 207.806634 
L 256.268537 205.614762 
L 256.395404 193.857731 
L 256.522272 200.632957 
L 256.64914 217.969851 
L 256.902875 207.209334 
L 257.156611 231.321453 
L 257.410346 215.977584 
L 257.537214 209.600813 
L 257.79095 179.310769 
L 257.917817 179.709222 
L 258.044685 181.303036 
L 258.425288 153.803683 
L 258.552156 156.99207 
L 258.805892 187.680566 
L 259.059627 193.060825 
L 259.313362 152.010263 
L 259.567098 174.129357 
L 259.820833 153.803683 
L 260.074569 169.147552 
L 260.328304 152.209111 
L 260.455172 157.987823 
L 260.708908 240.288551 
L 260.835775 239.093191 
L 261.089511 198.839536 
L 261.216379 212.191139 
L 261.470114 174.328963 
L 261.596982 178.11465 
L 261.72385 187.281354 
L 261.850717 184.691027 
L 262.104453 167.752586 
L 262.23132 175.12587 
L 262.358188 189.672833 
L 262.611924 178.314256 
L 262.865659 198.241476 
L 263.119395 178.71271 
L 263.246262 188.67632 
L 263.37313 186.8829 
L 263.499998 177.51735 
L 263.626866 179.509616 
L 263.753733 174.727417 
L 264.007469 150.814144 
L 264.134337 157.788976 
L 264.261204 157.58937 
L 264.388072 159.782001 
L 264.51494 165.759561 
L 264.768675 149.419178 
L 264.895543 157.987823 
L 265.022411 157.987823 
L 265.149278 159.782001 
L 265.276146 175.524324 
L 265.403014 176.520836 
L 265.529882 169.147552 
L 265.783617 188.875926 
L 266.037353 146.230793 
L 266.16422 160.578908 
L 266.291088 152.010263 
L 266.671691 110.958944 
L 266.798559 100.796486 
L 266.925427 112.155062 
L 267.052295 110.760096 
L 267.179162 104.383325 
L 267.432898 136.067575 
L 267.559766 157.788976 
L 267.686633 156.194403 
L 267.813501 137.662148 
L 268.067236 185.487934 
L 268.320972 150.216086 
L 268.44784 153.803683 
L 268.574707 157.58937 
L 268.701575 198.640689 
L 268.828443 190.868951 
L 268.955311 200.034897 
L 269.082178 218.966364 
L 269.335914 205.216308 
L 269.589649 255.633179 
L 269.716517 256.031633 
L 270.477724 231.321453 
L 270.604591 233.513326 
L 270.731459 232.516813 
L 270.985195 257.028145 
L 271.365798 243.476938 
L 271.492665 226.140042 
L 271.619533 226.140042 
L 271.746401 242.481184 
L 272.000136 230.126093 
L 272.253872 246.266869 
L 272.38074 243.676544 
L 272.761343 273.567753 
L 272.888211 271.375881 
L 273.141946 256.031633 
L 273.522549 240.886611 
L 273.776285 208.404694 
L 273.903153 215.777978 
L 274.03002 213.984558 
L 274.156888 195.053091 
L 274.283756 194.455791 
L 274.537491 236.901318 
L 274.664359 229.926487 
L 275.17183 167.952192 
L 275.552433 211.991533 
L 275.679301 206.412426 
L 275.933036 180.705735 
L 276.059904 181.104189 
L 276.186772 175.325476 
L 276.31364 176.122384 
L 276.694243 183.495667 
L 276.821111 267.988269 
L 276.947978 268.187496 
L 277.201714 272.970074 
L 277.328581 266.593303 
L 277.455449 269.183629 
L 277.709185 286.919356 
L 277.836052 283.332517 
L 278.089788 260.614984 
L 278.343523 294.292641 
L 278.470391 295.488 
L 278.850994 277.553425 
L 279.10473 288.513549 
L 279.358465 279.944525 
L 279.485333 282.136778 
L 279.739069 253.640154 
L 279.992804 285.922844 
L 280.246539 263.006085 
L 280.373407 273.368528 
L 280.500275 274.36504 
L 280.75401 261.212665 
L 281.007746 276.955367 
L 281.261481 255.832406 
L 281.515217 227.734615 
L 281.642085 232.71642 
L 281.768952 245.868416 
L 281.89582 246.266869 
L 282.022688 242.879636 
L 282.276423 274.36504 
L 282.403291 275.161947 
L 282.530159 274.36504 
L 282.657027 270.977429 
L 282.910762 240.886611 
L 283.291365 278.350333 
L 283.671968 248.259895 
L 283.798836 236.701712 
L 284.052572 257.426599 
L 284.179439 246.068022 
L 284.306307 245.469962 
L 284.433175 261.411891 
L 284.560043 260.017304 
L 284.813778 230.723393 
L 284.940646 229.727639 
L 285.067514 220.759783 
L 285.194381 223.94817 
L 285.448117 220.959389 
L 285.574985 233.91178 
L 285.701852 234.908292 
L 285.955588 193.459278 
L 286.082456 194.455791 
L 286.336191 178.513862 
L 286.589926 203.224042 
L 286.97053 183.495667 
L 287.224265 172.335939 
L 287.351133 173.730905 
L 287.731736 188.67632 
L 287.858604 184.691027 
L 287.985472 189.872439 
L 288.112339 188.07902 
L 288.239207 183.296061 
L 288.492943 213.586106 
L 289.127281 152.807171 
L 289.254149 156.194403 
L 289.634752 180.506129 
L 290.015355 151.212598 
L 290.142223 154.600589 
L 290.395959 177.51735 
L 290.649694 150.615297 
L 290.776562 160.379302 
L 290.90343 158.387034 
L 291.030297 151.212598 
L 291.284033 163.368841 
L 291.537768 156.593616 
L 291.664636 158.18743 
L 291.918372 165.959167 
L 292.045239 163.567687 
L 292.172107 171.737879 
L 292.425842 198.640689 
L 292.806446 209.2016 
L 292.933313 194.854244 
L 293.187049 246.266869 
L 293.313917 239.890097 
L 293.440784 225.741588 
L 293.567652 227.136554 
L 294.075123 258.423111 
L 294.328859 269.183629 
L 294.582594 243.876148 
L 294.83633 276.357686 
L 294.963197 268.585948 
L 295.216933 233.712932 
L 295.470668 260.814211 
L 295.597536 255.03512 
L 295.851271 204.419402 
L 296.105007 223.350109 
L 296.358742 188.277866 
L 296.612478 198.839536 
L 296.739346 207.40818 
L 296.866213 198.640689 
L 296.993081 174.328963 
L 297.119949 181.303036 
L 297.246817 198.640689 
L 297.500552 178.11465 
L 297.754288 201.629469 
L 298.134891 176.91929 
L 298.388626 151.013751 
L 298.515494 153.205623 
L 298.769229 130.288864 
L 298.896097 131.484224 
L 299.022965 131.08577 
L 299.149833 126.900873 
L 299.2767 131.484224 
L 299.530436 158.984336 
L 299.657304 159.980848 
L 299.911039 142.643954 
L 300.037907 144.636979 
L 300.164775 158.585882 
L 300.291642 153.604077 
L 300.41851 135.868729 
L 300.672246 159.183942 
L 300.925981 126.900873 
L 301.052849 132.082284 
L 301.179717 270.578595 
L 301.433452 285.125938 
L 301.687187 251.448281 
L 301.940923 264.201824 
L 302.194658 240.687763 
L 302.321526 242.481184 
L 302.448394 246.864929 
L 302.575262 239.691251 
L 302.702129 226.140042 
L 302.955865 253.640154 
L 303.082733 247.462609 
L 303.2096 240.488157 
L 303.336468 246.665322 
L 303.463336 245.271115 
L 303.717071 223.350109 
L 303.970807 240.687763 
L 304.224542 225.343136 
L 304.35141 225.741588 
L 304.605145 199.437597 
L 304.985749 229.528033 
L 305.112616 226.937708 
L 305.239484 211.991533 
L 305.366352 214.383012 
L 305.49322 224.546228 
L 305.620087 219.364817 
L 305.746955 219.962877 
L 305.873823 235.107898 
L 306.000691 234.111386 
L 306.127558 223.151262 
L 306.381294 248.857574 
L 306.635029 199.437597 
L 306.888765 220.959389 
L 307.396236 172.335939 
L 307.523103 181.303036 
L 307.649971 178.71271 
L 307.776839 169.546006 
L 307.903707 180.506129 
L 308.157442 217.372551 
L 308.411178 202.227529 
L 308.664913 240.488157 
L 308.791781 235.107898 
L 309.42612 175.72393 
L 309.679855 193.857731 
L 309.806723 185.68754 
L 309.933591 188.477472 
L 310.187326 250.651374 
L 310.314194 257.028145 
L 310.441061 254.238212 
L 310.694797 230.723393 
L 310.821665 228.332673 
L 310.948532 222.154749 
L 311.0754 223.549716 
L 311.202268 228.731127 
L 311.329136 227.734615 
L 311.963474 242.481184 
L 312.21721 204.419402 
L 312.470945 234.111386 
L 312.724681 227.734615 
L 312.851549 229.926487 
L 312.978416 229.129581 
L 313.105284 230.723393 
L 313.485887 254.835893 
L 313.739623 232.71642 
L 313.86649 231.719907 
L 314.120226 237.299771 
L 314.373961 202.824829 
L 314.500829 203.024435 
L 314.627697 209.002753 
L 314.754565 195.053091 
L 314.881432 195.850758 
L 315.135168 242.481184 
L 315.388903 218.368304 
L 315.642639 177.118896 
L 315.769507 175.524324 
L 315.896374 179.509616 
L 316.15011 211.991533 
L 316.403845 178.513862 
L 316.530713 182.698001 
L 316.657581 185.886388 
L 316.784448 174.727417 
L 316.911316 173.531299 
L 317.291919 186.8829 
L 317.418787 214.383012 
L 317.545655 206.21282 
L 317.79939 226.738102 
L 318.053126 195.850758 
L 318.306861 210.796173 
L 318.687465 201.231015 
L 318.814332 208.6043 
L 319.068068 235.7052 
L 319.194936 234.908292 
L 319.448671 207.40818 
L 319.829274 212.988045 
L 319.956142 217.771004 
L 320.08301 211.991533 
L 320.209877 197.843024 
L 320.336745 201.429863 
L 320.463613 212.589593 
L 320.590481 211.792685 
L 320.717348 203.224042 
L 320.844216 202.426375 
L 320.971084 207.607787 
L 321.224819 199.836049 
L 321.351687 202.824829 
L 321.478555 209.401207 
L 321.605423 209.600813 
L 321.859158 187.082506 
L 321.986026 177.51735 
L 322.239761 180.307282 
L 322.620364 173.730905 
L 323.000968 210.995779 
L 323.254703 205.415914 
L 323.508439 178.912316 
L 323.889042 221.756296 
L 324.396513 175.12587 
L 324.650248 211.991533 
L 324.903984 193.459278 
L 325.030852 207.806634 
L 325.284587 181.702247 
L 325.411455 183.296061 
L 325.538322 203.422889 
L 325.66519 191.864705 
L 325.918926 206.611274 
L 326.045793 200.434109 
L 326.299529 231.321453 
L 326.553264 176.32123 
L 326.680132 180.904583 
L 326.807 179.908829 
L 326.933868 171.737879 
L 327.187603 207.40818 
L 327.441339 179.509616 
L 327.568206 181.901095 
L 327.695074 172.734391 
L 327.821942 151.212598 
L 327.94881 158.585882 
L 328.202545 182.897607 
L 328.329413 180.904583 
L 328.583148 189.473985 
L 328.836884 176.32123 
L 329.090619 203.422889 
L 329.344355 181.104189 
L 329.471222 185.886388 
L 329.851826 153.006017 
L 329.978693 160.379302 
L 330.105561 160.578908 
L 330.232429 158.785488 
L 330.359297 159.782001 
L 330.486164 155.995556 
L 330.7399 129.491958 
L 330.993635 175.922777 
L 331.247371 146.828852 
L 331.374239 158.387034 
L 331.501106 154.600589 
L 331.627974 144.835827 
L 331.881709 160.777754 
L 332.135445 149.020726 
L 332.38918 161.176208 
L 332.642916 148.622272 
L 333.023519 187.879414 
L 333.150387 180.705735 
L 333.277255 185.089481 
L 333.404122 196.647664 
L 333.53099 187.680566 
L 333.784726 232.11836 
L 334.038461 216.77449 
L 334.545932 251.846734 
L 334.6728 249.854088 
L 334.799667 243.876148 
L 334.926535 246.466475 
L 335.180271 223.749322 
L 335.434006 254.038987 
L 335.687742 220.560935 
L 335.814609 223.350109 
L 336.068345 251.049827 
L 336.195213 241.883124 
L 336.448948 200.234503 
L 336.702684 214.781466 
L 336.956419 173.730905 
L 337.337022 212.389987 
L 337.590758 178.513862 
L 337.844493 204.419402 
L 337.971361 189.27438 
L 338.098229 192.263159 
L 338.225096 210.596567 
L 338.351964 208.6043 
L 338.478832 202.625981 
L 338.6057 204.618249 
L 338.732567 195.850758 
L 338.986303 161.176208 
L 339.113171 156.394009 
L 339.240038 156.194403 
L 339.366906 155.597103 
L 339.493774 152.807171 
L 339.620642 146.828852 
L 339.747509 149.220332 
L 340.128113 187.281354 
L 340.508716 154.999043 
L 340.762451 159.782001 
L 340.889319 160.379302 
L 341.016187 151.412204 
L 341.143054 150.615297 
L 341.269922 158.18743 
L 341.523658 144.238525 
L 341.650525 152.607565 
L 341.904261 257.825053 
L 342.031129 256.828918 
L 342.284864 230.922999 
L 342.411732 241.48467 
L 342.5386 234.111386 
L 342.792335 209.600813 
L 343.046071 219.763271 
L 343.299806 202.426375 
L 343.426674 209.2016 
L 343.680409 225.542742 
L 343.807277 222.154749 
L 344.061012 226.738102 
L 344.314748 210.198113 
L 344.441616 215.179918 
L 344.568483 209.799661 
L 344.695351 199.23799 
L 344.822219 201.829075 
L 344.949087 199.836049 
L 345.202822 170.342912 
L 345.456558 186.684054 
L 345.837161 177.118896 
L 345.964029 173.332451 
L 346.217764 179.908829 
L 346.598367 202.824829 
L 346.725235 201.031409 
L 346.97897 215.179918 
L 347.232706 177.716196 
L 347.486441 189.074774 
L 347.993912 130.48847 
L 348.247648 154.002531 
L 348.374516 149.220332 
L 348.501383 155.995556 
L 348.755119 196.049604 
L 348.881987 188.67632 
L 349.008854 172.933997 
L 349.26259 194.256185 
L 349.516325 176.91929 
L 349.643193 179.111162 
L 349.770061 177.51735 
L 349.896928 195.452304 
L 350.023796 192.064311 
L 350.277532 216.973338 
L 350.404399 209.799661 
L 350.531267 210.995779 
L 350.785003 257.825053 
L 350.91187 260.415758 
L 351.038738 252.045961 
L 351.292474 227.136554 
L 351.419341 231.919513 
L 351.546209 229.727639 
L 351.673077 230.723393 
L 351.926812 235.306746 
L 352.180548 255.03512 
L 352.434283 243.876148 
L 352.561151 242.68003 
L 352.814886 223.549716 
L 352.941754 233.114873 
L 353.068622 232.916026 
L 353.19549 230.126093 
L 353.322357 233.31448 
L 353.576093 229.727639 
L 354.083564 259.419244 
L 354.210432 259.220019 
L 354.464167 247.462609 
L 354.591035 248.060668 
L 354.717903 242.879636 
L 354.971638 204.618249 
L 355.098506 216.176432 
L 355.225374 216.176432 
L 355.352241 199.039143 
L 355.479109 199.437597 
L 355.859712 241.086217 
L 356.113448 187.082506 
L 356.367183 154.002531 
L 356.494051 163.368841 
L 356.747786 202.625981 
L 356.874654 196.049604 
L 357.001522 180.904583 
L 357.12839 179.509616 
L 357.255257 180.307282 
L 357.508993 161.375815 
L 357.635861 165.759561 
L 357.889596 179.908829 
L 358.016464 245.469962 
L 358.143332 245.071508 
L 358.397067 255.03512 
L 358.650803 243.078484 
L 358.77767 248.857574 
L 358.904538 262.607631 
L 359.031406 258.423111 
L 359.285141 232.317966 
L 359.538877 265.397563 
L 359.665744 268.785175 
L 359.792612 263.80337 
L 359.91948 252.644021 
L 360.173215 267.988269 
L 360.426951 249.654861 
L 360.680686 257.426599 
L 360.807554 243.476938 
L 360.934422 242.68003 
L 361.188157 260.614984 
L 361.441893 231.321453 
L 361.695628 251.846734 
L 361.949364 241.285063 
L 362.203099 254.038987 
L 362.329967 251.448281 
L 362.456835 240.886611 
L 362.71057 206.412426 
L 362.837438 204.817856 
L 362.964306 209.799661 
L 363.218041 208.00624 
L 363.598644 247.462609 
L 363.979248 229.129581 
L 364.106115 221.158237 
L 364.486719 251.249054 
L 364.994189 222.951656 
L 365.247925 240.687763 
L 365.50166 227.734615 
L 365.628528 234.908292 
L 365.755396 235.306746 
L 365.882264 232.71642 
L 366.009131 226.339648 
L 366.262867 152.807171 
L 366.516602 184.890634 
L 366.64347 178.513862 
L 366.897206 189.473985 
L 367.150941 149.220332 
L 367.277809 154.600589 
L 367.404677 151.810657 
L 367.531544 145.632733 
L 367.78528 159.782001 
L 367.912148 158.585882 
L 368.039015 149.419178 
L 368.292751 123.513639 
L 368.673354 136.466788 
L 368.800222 150.814144 
L 368.927089 151.810657 
L 369.053957 148.223818 
L 369.180825 150.216086 
L 369.43456 132.28189 
L 369.688296 160.977361 
L 369.815164 131.484224 
L 369.942031 127.897385 
L 370.068899 140.650928 
L 370.449502 102.589906 
L 370.703238 116.738415 
L 370.956973 115.143843 
L 371.210709 101.393786 
L 371.337576 108.767071 
L 371.591312 153.404471 
L 371.71818 134.274157 
L 371.845047 134.672611 
L 371.971915 156.99207 
L 372.098783 155.795949 
L 372.225651 148.024212 
L 372.479386 183.694515 
L 372.733122 177.118896 
L 373.240593 206.81088 
L 373.36746 209.799661 
L 373.748064 241.285063 
L 374.001799 233.91178 
L 374.128667 234.50984 
L 374.255534 200.832563 
L 374.382402 201.829075 
L 374.636138 190.868951 
L 374.889873 209.401207 
L 375.143609 231.919513 
L 375.397344 224.346622 
L 375.524212 220.560935 
L 375.65108 210.796173 
L 375.777947 210.995779 
L 376.031683 237.897831 
L 376.412286 199.437597 
L 376.666022 223.151262 
L 376.792889 216.574884 
L 377.046625 175.524324 
L 377.173492 179.111162 
L 377.30036 187.680566 
L 377.554096 174.527811 
L 377.680963 183.694515 
L 377.934699 205.614762 
L 378.188434 178.513862 
L 378.44217 202.027923 
L 378.695905 179.509616 
L 378.949641 206.412426 
L 379.58398 156.593616 
L 379.710847 153.404471 
L 379.837715 156.194403 
L 379.964583 154.999043 
L 380.218318 128.69505 
L 380.345186 131.285376 
L 380.598921 164.365353 
L 380.725789 171.737879 
L 380.852657 170.742125 
L 381.106392 154.202137 
L 381.23326 155.995556 
L 381.360128 155.995556 
L 381.486996 154.400983 
L 381.613863 149.618784 
L 381.740731 153.803683 
L 381.867599 162.372327 
L 382.121334 149.817632 
L 382.248202 154.600589 
L 382.37507 228.731127 
L 382.628805 237.698225 
L 382.882541 203.422889 
L 383.136276 214.781466 
L 383.390012 191.466253 
L 383.516879 200.832563 
L 383.643747 201.231015 
L 383.897483 172.335939 
L 384.151218 188.477472 
L 384.278086 181.702247 
L 384.404954 183.894121 
L 384.531821 202.426375 
L 384.658689 200.234503 
L 384.785557 178.912316 
L 384.912425 178.513862 
L 385.039292 188.477472 
L 385.293028 178.513862 
L 385.419896 181.901095 
L 385.546763 180.705735 
L 385.800499 153.404471 
L 385.927367 160.578908 
L 386.181102 185.68754 
L 386.30797 177.915802 
L 386.434837 158.984336 
L 386.561705 157.190916 
L 386.815441 180.904583 
L 386.942308 177.118896 
L 387.322912 196.049604 
L 387.449779 196.846512 
L 387.576647 196.647664 
L 387.830383 170.742125 
L 388.084118 186.684054 
L 388.337854 157.390522 
L 388.464721 154.999043 
L 388.718457 135.470275 
L 388.845325 135.071821 
L 389.479663 182.698001 
L 389.606531 161.774268 
L 389.733399 172.335939 
L 389.860266 197.046118 
L 389.987134 187.082506 
L 390.24087 157.788976 
L 390.367737 160.977361 
L 390.494605 182.100701 
L 390.621473 174.527811 
L 390.748341 183.894121 
L 390.875208 202.227529 
L 391.128944 180.307282 
L 391.509547 245.669569 
L 391.636415 242.08273 
L 391.89015 224.147776 
L 392.017018 225.144288 
L 392.143886 218.966364 
L 392.270753 220.161725 
L 392.397621 225.144288 
L 392.524489 222.951656 
L 392.778224 232.317966 
L 392.905092 231.121847 
L 393.03196 237.299771 
L 393.158828 235.904806 
L 393.285695 215.977584 
L 393.412563 213.586106 
L 393.539431 226.339648 
L 393.793166 217.771004 
L 394.17377 232.317966 
L 394.300637 232.71642 
L 394.427505 238.296285 
L 394.681241 261.611498 
L 394.934976 242.08273 
L 395.188711 244.673056 
L 395.315579 239.292797 
L 395.569315 209.2016 
L 395.696182 214.781466 
L 395.82305 209.999267 
L 395.949918 193.259671 
L 396.076786 200.632957 
L 396.203653 220.759783 
L 396.330521 220.759783 
L 396.584257 197.046118 
L 396.96486 147.227306 
L 397.345463 183.694515 
L 397.472331 180.904583 
L 397.726066 159.183942 
L 398.233537 153.604077 
L 398.487273 162.172721 
L 398.487273 162.172721 
" clip-path="url(#pc63fac4c66)" style="fill: none; stroke: #1f77b4; stroke-width: 1.5; stroke-linecap: square"/>
   </g>
   <g id="patch_3">
    <path d="M 57.6 307.584 
L 57.6 41.472 
" style="fill: none; stroke: #000000; stroke-width: 0.8; stroke-linejoin: miter; stroke-linecap: square"/>
   </g>
   <g id="patch_4">
    <path d="M 414.72 307.584 
L 414.72 41.472 
" style="fill: none; stroke: #000000; stroke-width: 0.8; stroke-linejoin: miter; stroke-linecap: square"/>
   </g>
   <g id="patch_5">
    <path d="M 57.6 307.584 
L 414.72 307.584 
" style="fill: none; stroke: #000000; stroke-width: 0.8; stroke-linejoin: miter; stroke-linecap: square"/>
   </g>
   <g id="patch_6">
    <path d="M 57.6 41.472 
L 414.72 41.472 
" style="fill: none; stroke: #000000; stroke-width: 0.8; stroke-linejoin: miter; stroke-linecap: square"/>
   </g>
   <g id="legend_1">
    <g id="patch_7">
     <path d="M 354.074688 64.150125 
L 407.72 64.150125 
Q 409.72 64.150125 409.72 62.150125 
L 409.72 48.472 
Q 409.72 46.472 407.72 46.472 
L 354.074688 46.472 
Q 352.074688 46.472 352.074688 48.472 
L 352.074688 62.150125 
Q 352.074688 64.150125 354.074688 64.150125 
z
" style="fill: #ffffff; opacity: 0.8; stroke: #cccccc; stroke-linejoin: miter"/>
    </g>
    <g id="line2d_17">
     <path d="M 356.074688 54.570438 
L 366.074688 54.570438 
L 376.074688 54.570438 
" style="fill: none; stroke: #1f77b4; stroke-width: 1.5; stroke-linecap: square"/>
    </g>
    <g id="text_16">
     <!-- set1 -->
     <g transform="translate(384.074688 58.070438)scale(0.1 -0.1)">
      <defs>
       <path id="DejaVuSans-73" d="M 2834 3397 
L 2834 2853 
Q 2591 2978 2328 3040 
Q 2066 3103 1784 3103 
Q 1356 3103 1142 2972 
Q 928 2841 928 2578 
Q 928 2378 1081 2264 
Q 1234 2150 1697 2047 
L 1894 2003 
Q 2506 1872 2764 1633 
Q 3022 1394 3022 966 
Q 3022 478 2636 193 
Q 2250 -91 1575 -91 
Q 1294 -91 989 -36 
Q 684 19 347 128 
L 347 722 
Q 666 556 975 473 
Q 1284 391 1588 391 
Q 1994 391 2212 530 
Q 2431 669 2431 922 
Q 2431 1156 2273 1281 
Q 2116 1406 1581 1522 
L 1381 1569 
Q 847 1681 609 1914 
Q 372 2147 372 2553 
Q 372 3047 722 3315 
Q 1072 3584 1716 3584 
Q 2034 3584 2315 3537 
Q 2597 3491 2834 3397 
z
" transform="scale(0.015625)"/>
       <path id="DejaVuSans-65" d="M 3597 1894 
L 3597 1613 
L 953 1613 
Q 991 1019 1311 708 
Q 1631 397 2203 397 
Q 2534 397 2845 478 
Q 3156 559 3463 722 
L 3463 178 
Q 3153 47 2828 -22 
Q 2503 -91 2169 -91 
Q 1331 -91 842 396 
Q 353 884 353 1716 
Q 353 2575 817 3079 
Q 1281 3584 2069 3584 
Q 2775 3584 3186 3129 
Q 3597 2675 3597 1894 
z
M 3022 2063 
Q 3016 2534 2758 2815 
Q 2500 3097 2075 3097 
Q 1594 3097 1305 2825 
Q 1016 2553 972 2059 
L 3022 2063 
z
" transform="scale(0.015625)"/>
       <path id="DejaVuSans-74" d="M 1172 4494 
L 1172 3500 
L 2356 3500 
L 2356 3053 
L 1172 3053 
L 1172 1153 
Q 1172 725 1289 603 
Q 1406 481 1766 481 
L 2356 481 
L 2356 0 
L 1766 0 
Q 1100 0 847 248 
Q 594 497 594 1153 
L 594 3053 
L 172 3053 
L 172 3500 
L 594 3500 
L 594 4494 
L 1172 4494 
z
" transform="scale(0.015625)"/>
      </defs>
      <use xlink:href="#DejaVuSans-73"/>
      <use xlink:href="#DejaVuSans-65" x="52.099609"/>
      <use xlink:href="#DejaVuSans-74" x="113.623047"/>
      <use xlink:href="#DejaVuSans-31" x="152.832031"/>
     </g>
    </g>
   </g>
  </g>
 </g>
 <defs>
  <clipPath id="pc63fac4c66">
   <rect x="57.6" y="41.472" width="357.12" height="266.112"/>
  </clipPath>
 </defs>
</svg>
