<?xml version="1.0" encoding="utf-8" standalone="no"?>
<!DOCTYPE svg PUBLIC "-//W3C//DTD SVG 1.1//EN"
  "http://www.w3.org/Graphics/SVG/1.1/DTD/svg11.dtd">
<svg xmlns:xlink="http://www.w3.org/1999/xlink" width="460.8pt" height="345.6pt" viewBox="0 0 460.8 345.6" xmlns="http://www.w3.org/2000/svg" version="1.1">
 <metadata>
  <rdf:RDF xmlns:dc="http://purl.org/dc/elements/1.1/" xmlns:cc="http://creativecommons.org/ns#" xmlns:rdf="http://www.w3.org/1999/02/22-rdf-syntax-ns#">
   <cc:Work>
    <dc:type rdf:resource="http://purl.org/dc/dcmitype/StillImage"/>
    <dc:date>2022-08-11T15:17:07.360783</dc:date>
    <dc:format>image/svg+xml</dc:format>
    <dc:creator>
     <cc:Agent>
      <dc:title>Matplotlib v3.5.2, https://matplotlib.org/</dc:title>
     </cc:Agent>
    </dc:creator>
   </cc:Work>
  </rdf:RDF>
 </metadata>
 <defs>
  <style type="text/css">*{stroke-linejoin: round; stroke-linecap: butt}</style>
 </defs>
 <g id="figure_1">
  <g id="patch_1">
   <path d="M 0 345.6 
L 460.8 345.6 
L 460.8 0 
L 0 0 
z
" style="fill: #ffffff"/>
  </g>
  <g id="axes_1">
   <g id="patch_2">
    <path d="M 57.6 307.584 
L 414.72 307.584 
L 414.72 41.472 
L 57.6 41.472 
z
" style="fill: #ffffff"/>
   </g>
   <g id="matplotlib.axis_1">
    <g id="xtick_1">
     <g id="line2d_1">
      <defs>
       <path id="m46c9b1cdb9" d="M 0 0 
L 0 3.5 
" style="stroke: #000000; stroke-width: 0.8"/>
      </defs>
      <g>
       <use xlink:href="#m46c9b1cdb9" x="73.832727" y="307.584" style="stroke: #000000; stroke-width: 0.8"/>
      </g>
     </g>
     <g id="text_1">
      <!-- 0 -->
      <g transform="translate(70.651477 322.182437)scale(0.1 -0.1)">
       <defs>
        <path id="DejaVuSans-30" d="M 2034 4250 
Q 1547 4250 1301 3770 
Q 1056 3291 1056 2328 
Q 1056 1369 1301 889 
Q 1547 409 2034 409 
Q 2525 409 2770 889 
Q 3016 1369 3016 2328 
Q 3016 3291 2770 3770 
Q 2525 4250 2034 4250 
z
M 2034 4750 
Q 2819 4750 3233 4129 
Q 3647 3509 3647 2328 
Q 3647 1150 3233 529 
Q 2819 -91 2034 -91 
Q 1250 -91 836 529 
Q 422 1150 422 2328 
Q 422 3509 836 4129 
Q 1250 4750 2034 4750 
z
" transform="scale(0.015625)"/>
       </defs>
       <use xlink:href="#DejaVuSans-30"/>
      </g>
     </g>
    </g>
    <g id="xtick_2">
     <g id="line2d_2">
      <g>
       <use xlink:href="#m46c9b1cdb9" x="137.266597" y="307.584" style="stroke: #000000; stroke-width: 0.8"/>
      </g>
     </g>
     <g id="text_2">
      <!-- 500 -->
      <g transform="translate(127.722847 322.182437)scale(0.1 -0.1)">
       <defs>
        <path id="DejaVuSans-35" d="M 691 4666 
L 3169 4666 
L 3169 4134 
L 1269 4134 
L 1269 2991 
Q 1406 3038 1543 3061 
Q 1681 3084 1819 3084 
Q 2600 3084 3056 2656 
Q 3513 2228 3513 1497 
Q 3513 744 3044 326 
Q 2575 -91 1722 -91 
Q 1428 -91 1123 -41 
Q 819 9 494 109 
L 494 744 
Q 775 591 1075 516 
Q 1375 441 1709 441 
Q 2250 441 2565 725 
Q 2881 1009 2881 1497 
Q 2881 1984 2565 2268 
Q 2250 2553 1709 2553 
Q 1456 2553 1204 2497 
Q 953 2441 691 2322 
L 691 4666 
z
" transform="scale(0.015625)"/>
       </defs>
       <use xlink:href="#DejaVuSans-35"/>
       <use xlink:href="#DejaVuSans-30" x="63.623047"/>
       <use xlink:href="#DejaVuSans-30" x="127.246094"/>
      </g>
     </g>
    </g>
    <g id="xtick_3">
     <g id="line2d_3">
      <g>
       <use xlink:href="#m46c9b1cdb9" x="200.700467" y="307.584" style="stroke: #000000; stroke-width: 0.8"/>
      </g>
     </g>
     <g id="text_3">
      <!-- 1000 -->
      <g transform="translate(187.975467 322.182437)scale(0.1 -0.1)">
       <defs>
        <path id="DejaVuSans-31" d="M 794 531 
L 1825 531 
L 1825 4091 
L 703 3866 
L 703 4441 
L 1819 4666 
L 2450 4666 
L 2450 531 
L 3481 531 
L 3481 0 
L 794 0 
L 794 531 
z
" transform="scale(0.015625)"/>
       </defs>
       <use xlink:href="#DejaVuSans-31"/>
       <use xlink:href="#DejaVuSans-30" x="63.623047"/>
       <use xlink:href="#DejaVuSans-30" x="127.246094"/>
       <use xlink:href="#DejaVuSans-30" x="190.869141"/>
      </g>
     </g>
    </g>
    <g id="xtick_4">
     <g id="line2d_4">
      <g>
       <use xlink:href="#m46c9b1cdb9" x="264.134337" y="307.584" style="stroke: #000000; stroke-width: 0.8"/>
      </g>
     </g>
     <g id="text_4">
      <!-- 1500 -->
      <g transform="translate(251.409337 322.182437)scale(0.1 -0.1)">
       <use xlink:href="#DejaVuSans-31"/>
       <use xlink:href="#DejaVuSans-35" x="63.623047"/>
       <use xlink:href="#DejaVuSans-30" x="127.246094"/>
       <use xlink:href="#DejaVuSans-30" x="190.869141"/>
      </g>
     </g>
    </g>
    <g id="xtick_5">
     <g id="line2d_5">
      <g>
       <use xlink:href="#m46c9b1cdb9" x="327.568206" y="307.584" style="stroke: #000000; stroke-width: 0.8"/>
      </g>
     </g>
     <g id="text_5">
      <!-- 2000 -->
      <g transform="translate(314.843206 322.182437)scale(0.1 -0.1)">
       <defs>
        <path id="DejaVuSans-32" d="M 1228 531 
L 3431 531 
L 3431 0 
L 469 0 
L 469 531 
Q 828 903 1448 1529 
Q 2069 2156 2228 2338 
Q 2531 2678 2651 2914 
Q 2772 3150 2772 3378 
Q 2772 3750 2511 3984 
Q 2250 4219 1831 4219 
Q 1534 4219 1204 4116 
Q 875 4013 500 3803 
L 500 4441 
Q 881 4594 1212 4672 
Q 1544 4750 1819 4750 
Q 2544 4750 2975 4387 
Q 3406 4025 3406 3419 
Q 3406 3131 3298 2873 
Q 3191 2616 2906 2266 
Q 2828 2175 2409 1742 
Q 1991 1309 1228 531 
z
" transform="scale(0.015625)"/>
       </defs>
       <use xlink:href="#DejaVuSans-32"/>
       <use xlink:href="#DejaVuSans-30" x="63.623047"/>
       <use xlink:href="#DejaVuSans-30" x="127.246094"/>
       <use xlink:href="#DejaVuSans-30" x="190.869141"/>
      </g>
     </g>
    </g>
    <g id="xtick_6">
     <g id="line2d_6">
      <g>
       <use xlink:href="#m46c9b1cdb9" x="391.002076" y="307.584" style="stroke: #000000; stroke-width: 0.8"/>
      </g>
     </g>
     <g id="text_6">
      <!-- 2500 -->
      <g transform="translate(378.277076 322.182437)scale(0.1 -0.1)">
       <use xlink:href="#DejaVuSans-32"/>
       <use xlink:href="#DejaVuSans-35" x="63.623047"/>
       <use xlink:href="#DejaVuSans-30" x="127.246094"/>
       <use xlink:href="#DejaVuSans-30" x="190.869141"/>
      </g>
     </g>
    </g>
   </g>
   <g id="matplotlib.axis_2">
    <g id="ytick_1">
     <g id="line2d_7">
      <defs>
       <path id="m4defbab55b" d="M 0 0 
L -3.5 0 
" style="stroke: #000000; stroke-width: 0.8"/>
      </defs>
      <g>
       <use xlink:href="#m4defbab55b" x="57.6" y="307.109591" style="stroke: #000000; stroke-width: 0.8"/>
      </g>
     </g>
     <g id="text_7">
      <!-- 4020 -->
      <g transform="translate(25.15 310.90881)scale(0.1 -0.1)">
       <defs>
        <path id="DejaVuSans-34" d="M 2419 4116 
L 825 1625 
L 2419 1625 
L 2419 4116 
z
M 2253 4666 
L 3047 4666 
L 3047 1625 
L 3713 1625 
L 3713 1100 
L 3047 1100 
L 3047 0 
L 2419 0 
L 2419 1100 
L 313 1100 
L 313 1709 
L 2253 4666 
z
" transform="scale(0.015625)"/>
       </defs>
       <use xlink:href="#DejaVuSans-34"/>
       <use xlink:href="#DejaVuSans-30" x="63.623047"/>
       <use xlink:href="#DejaVuSans-32" x="127.246094"/>
       <use xlink:href="#DejaVuSans-30" x="190.869141"/>
      </g>
     </g>
    </g>
    <g id="ytick_2">
     <g id="line2d_8">
      <g>
       <use xlink:href="#m4defbab55b" x="57.6" y="276.89375" style="stroke: #000000; stroke-width: 0.8"/>
      </g>
     </g>
     <g id="text_8">
      <!-- 4040 -->
      <g transform="translate(25.15 280.692969)scale(0.1 -0.1)">
       <use xlink:href="#DejaVuSans-34"/>
       <use xlink:href="#DejaVuSans-30" x="63.623047"/>
       <use xlink:href="#DejaVuSans-34" x="127.246094"/>
       <use xlink:href="#DejaVuSans-30" x="190.869141"/>
      </g>
     </g>
    </g>
    <g id="ytick_3">
     <g id="line2d_9">
      <g>
       <use xlink:href="#m4defbab55b" x="57.6" y="246.67791" style="stroke: #000000; stroke-width: 0.8"/>
      </g>
     </g>
     <g id="text_9">
      <!-- 4060 -->
      <g transform="translate(25.15 250.477129)scale(0.1 -0.1)">
       <defs>
        <path id="DejaVuSans-36" d="M 2113 2584 
Q 1688 2584 1439 2293 
Q 1191 2003 1191 1497 
Q 1191 994 1439 701 
Q 1688 409 2113 409 
Q 2538 409 2786 701 
Q 3034 994 3034 1497 
Q 3034 2003 2786 2293 
Q 2538 2584 2113 2584 
z
M 3366 4563 
L 3366 3988 
Q 3128 4100 2886 4159 
Q 2644 4219 2406 4219 
Q 1781 4219 1451 3797 
Q 1122 3375 1075 2522 
Q 1259 2794 1537 2939 
Q 1816 3084 2150 3084 
Q 2853 3084 3261 2657 
Q 3669 2231 3669 1497 
Q 3669 778 3244 343 
Q 2819 -91 2113 -91 
Q 1303 -91 875 529 
Q 447 1150 447 2328 
Q 447 3434 972 4092 
Q 1497 4750 2381 4750 
Q 2619 4750 2861 4703 
Q 3103 4656 3366 4563 
z
" transform="scale(0.015625)"/>
       </defs>
       <use xlink:href="#DejaVuSans-34"/>
       <use xlink:href="#DejaVuSans-30" x="63.623047"/>
       <use xlink:href="#DejaVuSans-36" x="127.246094"/>
       <use xlink:href="#DejaVuSans-30" x="190.869141"/>
      </g>
     </g>
    </g>
    <g id="ytick_4">
     <g id="line2d_10">
      <g>
       <use xlink:href="#m4defbab55b" x="57.6" y="216.462069" style="stroke: #000000; stroke-width: 0.8"/>
      </g>
     </g>
     <g id="text_10">
      <!-- 4080 -->
      <g transform="translate(25.15 220.261288)scale(0.1 -0.1)">
       <defs>
        <path id="DejaVuSans-38" d="M 2034 2216 
Q 1584 2216 1326 1975 
Q 1069 1734 1069 1313 
Q 1069 891 1326 650 
Q 1584 409 2034 409 
Q 2484 409 2743 651 
Q 3003 894 3003 1313 
Q 3003 1734 2745 1975 
Q 2488 2216 2034 2216 
z
M 1403 2484 
Q 997 2584 770 2862 
Q 544 3141 544 3541 
Q 544 4100 942 4425 
Q 1341 4750 2034 4750 
Q 2731 4750 3128 4425 
Q 3525 4100 3525 3541 
Q 3525 3141 3298 2862 
Q 3072 2584 2669 2484 
Q 3125 2378 3379 2068 
Q 3634 1759 3634 1313 
Q 3634 634 3220 271 
Q 2806 -91 2034 -91 
Q 1263 -91 848 271 
Q 434 634 434 1313 
Q 434 1759 690 2068 
Q 947 2378 1403 2484 
z
M 1172 3481 
Q 1172 3119 1398 2916 
Q 1625 2713 2034 2713 
Q 2441 2713 2670 2916 
Q 2900 3119 2900 3481 
Q 2900 3844 2670 4047 
Q 2441 4250 2034 4250 
Q 1625 4250 1398 4047 
Q 1172 3844 1172 3481 
z
" transform="scale(0.015625)"/>
       </defs>
       <use xlink:href="#DejaVuSans-34"/>
       <use xlink:href="#DejaVuSans-30" x="63.623047"/>
       <use xlink:href="#DejaVuSans-38" x="127.246094"/>
       <use xlink:href="#DejaVuSans-30" x="190.869141"/>
      </g>
     </g>
    </g>
    <g id="ytick_5">
     <g id="line2d_11">
      <g>
       <use xlink:href="#m4defbab55b" x="57.6" y="186.246229" style="stroke: #000000; stroke-width: 0.8"/>
      </g>
     </g>
     <g id="text_11">
      <!-- 4100 -->
      <g transform="translate(25.15 190.045447)scale(0.1 -0.1)">
       <use xlink:href="#DejaVuSans-34"/>
       <use xlink:href="#DejaVuSans-31" x="63.623047"/>
       <use xlink:href="#DejaVuSans-30" x="127.246094"/>
       <use xlink:href="#DejaVuSans-30" x="190.869141"/>
      </g>
     </g>
    </g>
    <g id="ytick_6">
     <g id="line2d_12">
      <g>
       <use xlink:href="#m4defbab55b" x="57.6" y="156.030388" style="stroke: #000000; stroke-width: 0.8"/>
      </g>
     </g>
     <g id="text_12">
      <!-- 4120 -->
      <g transform="translate(25.15 159.829607)scale(0.1 -0.1)">
       <use xlink:href="#DejaVuSans-34"/>
       <use xlink:href="#DejaVuSans-31" x="63.623047"/>
       <use xlink:href="#DejaVuSans-32" x="127.246094"/>
       <use xlink:href="#DejaVuSans-30" x="190.869141"/>
      </g>
     </g>
    </g>
    <g id="ytick_7">
     <g id="line2d_13">
      <g>
       <use xlink:href="#m4defbab55b" x="57.6" y="125.814548" style="stroke: #000000; stroke-width: 0.8"/>
      </g>
     </g>
     <g id="text_13">
      <!-- 4140 -->
      <g transform="translate(25.15 129.613766)scale(0.1 -0.1)">
       <use xlink:href="#DejaVuSans-34"/>
       <use xlink:href="#DejaVuSans-31" x="63.623047"/>
       <use xlink:href="#DejaVuSans-34" x="127.246094"/>
       <use xlink:href="#DejaVuSans-30" x="190.869141"/>
      </g>
     </g>
    </g>
    <g id="ytick_8">
     <g id="line2d_14">
      <g>
       <use xlink:href="#m4defbab55b" x="57.6" y="95.598707" style="stroke: #000000; stroke-width: 0.8"/>
      </g>
     </g>
     <g id="text_14">
      <!-- 4160 -->
      <g transform="translate(25.15 99.397926)scale(0.1 -0.1)">
       <use xlink:href="#DejaVuSans-34"/>
       <use xlink:href="#DejaVuSans-31" x="63.623047"/>
       <use xlink:href="#DejaVuSans-36" x="127.246094"/>
       <use xlink:href="#DejaVuSans-30" x="190.869141"/>
      </g>
     </g>
    </g>
    <g id="ytick_9">
     <g id="line2d_15">
      <g>
       <use xlink:href="#m4defbab55b" x="57.6" y="65.382867" style="stroke: #000000; stroke-width: 0.8"/>
      </g>
     </g>
     <g id="text_15">
      <!-- 4180 -->
      <g transform="translate(25.15 69.182085)scale(0.1 -0.1)">
       <use xlink:href="#DejaVuSans-34"/>
       <use xlink:href="#DejaVuSans-31" x="63.623047"/>
       <use xlink:href="#DejaVuSans-38" x="127.246094"/>
       <use xlink:href="#DejaVuSans-30" x="190.869141"/>
      </g>
     </g>
    </g>
   </g>
   <g id="line2d_16">
    <path d="M 73.832727 129.688166 
L 73.959595 130.269465 
L 74.340198 205.034123 
L 74.593934 189.539282 
L 74.720801 195.736997 
L 74.847669 195.543354 
L 75.101405 206.971301 
L 75.482008 171.912884 
L 75.608876 173.656049 
L 75.862611 195.930641 
L 75.989479 191.669736 
L 76.243214 198.448751 
L 76.623818 171.332321 
L 77.004421 192.8316 
L 77.131289 187.408093 
L 77.258156 187.602106 
L 77.385024 191.088435 
L 77.511892 191.475724 
L 77.638759 190.701146 
L 77.765627 188.957983 
L 78.019363 163.003047 
L 78.14623 168.233279 
L 78.273098 185.664927 
L 78.399966 184.503063 
L 78.653701 154.674511 
L 79.034305 194.187477 
L 79.28804 180.048146 
L 79.541776 192.8316 
L 79.668643 191.863011 
L 80.049247 164.552937 
L 80.302982 168.039266 
L 80.556717 149.251004 
L 80.683585 153.318634 
L 80.810453 153.512647 
L 80.937321 146.53925 
L 81.191056 213.363027 
L 81.317924 198.255107 
L 81.444792 167.651979 
L 81.698527 217.817946 
L 81.952263 142.859646 
L 82.332866 207.745876 
L 82.586601 184.30905 
L 82.713469 184.30905 
L 82.840337 193.4129 
L 83.094072 222.272864 
L 83.474675 211.426219 
L 83.728411 171.332321 
L 83.982146 187.796119 
L 84.235882 135.49896 
L 84.870221 204.840478 
L 84.997088 205.42178 
L 85.123956 198.255107 
L 85.377692 132.012631 
L 85.504559 137.823426 
L 85.631427 153.705923 
L 85.758295 151.962757 
L 85.885163 147.314564 
L 86.138898 130.463478 
L 86.265766 131.625342 
L 86.392633 128.526301 
L 86.519501 137.242126 
L 86.773237 179.27357 
L 87.15384 142.665633 
L 87.280708 128.139013 
L 87.407575 140.922468 
L 87.661311 189.539282 
L 87.915046 165.134238 
L 88.168782 180.629447 
L 88.422517 164.746212 
L 88.549385 167.651979 
L 89.183724 230.020468 
L 89.310591 223.822385 
L 89.437459 198.255107 
L 89.564327 201.93508 
L 89.691195 213.556671 
L 90.071798 158.548129 
L 90.198666 168.426555 
L 90.452401 136.080262 
L 90.706137 177.336392 
L 90.833004 165.134238 
L 90.959872 172.881474 
L 91.08674 172.688198 
L 91.213608 159.516718 
L 91.340475 159.516718 
L 91.467343 162.228471 
L 91.594211 160.485306 
L 91.847946 197.286518 
L 92.101682 192.250299 
L 92.22855 194.962422 
L 92.355417 185.084365 
L 92.482285 184.115776 
L 92.609153 195.156066 
L 92.73602 193.606545 
L 92.862888 183.921763 
L 93.116624 189.926571 
L 93.243491 181.016734 
L 93.370359 181.985322 
L 93.624095 190.701146 
L 93.87783 175.593226 
L 94.004698 179.660857 
L 94.512169 214.137604 
L 94.639037 214.331617 
L 94.892772 195.930641 
L 95.01964 194.575133 
L 95.400243 171.71961 
L 95.527111 168.813843 
L 95.780846 192.444312 
L 96.034582 179.660857 
L 96.288317 206.39 
L 96.542053 175.787239 
L 96.795788 203.097314 
L 96.922656 202.90367 
L 97.176391 194.962422 
L 97.430127 174.043338 
L 97.683862 193.025245 
L 97.937598 175.787239 
L 98.064466 183.728488 
L 98.191333 105.864421 
L 98.318201 100.247638 
L 98.445069 109.156738 
L 98.698804 132.981219 
L 98.95254 120.003753 
L 99.206275 134.724385 
L 99.333143 131.044042 
L 99.586878 112.449793 
L 99.713746 116.130135 
L 99.840614 114.774258 
L 99.967482 118.260587 
L 100.221217 132.399919 
L 100.60182 120.778328 
L 100.728688 124.458671 
L 100.982424 136.273537 
L 101.236159 102.184079 
L 101.363027 112.449793 
L 101.489894 132.787206 
L 101.74363 101.990803 
L 101.997365 135.111673 
L 102.251101 126.783136 
L 102.504836 125.039972 
L 102.758572 134.530372 
L 103.012307 117.098723 
L 103.139175 123.102794 
L 103.266043 134.530372 
L 103.519778 126.589123 
L 103.646646 127.945 
L 103.773514 125.233246 
L 104.027249 128.139013 
L 104.280985 108.576175 
L 104.53472 131.431329 
L 104.661588 127.751726 
L 104.788456 132.206644 
L 104.915323 127.945 
L 105.042191 115.355558 
L 105.169059 119.229176 
L 105.295927 129.300877 
L 105.422794 130.463478 
L 105.67653 123.877369 
L 105.930265 137.629413 
L 106.057133 129.688166 
L 106.184001 134.530372 
L 106.310869 157.580278 
L 106.437736 158.548129 
L 106.564604 164.746212 
L 106.691472 161.259883 
L 106.81834 150.60688 
L 106.945207 151.962757 
L 107.072075 158.160841 
L 107.198943 156.998977 
L 107.325811 151.381458 
L 107.452678 157.580278 
L 107.706414 183.728488 
L 107.960149 176.949103 
L 108.340752 170.363733 
L 108.848223 144.990099 
L 108.975091 149.057729 
L 109.101959 149.445016 
L 109.355694 125.039972 
L 109.60943 151.962757 
L 109.736298 146.53925 
L 109.990033 155.255813 
L 110.116901 153.125359 
L 110.243769 154.09321 
L 110.370636 156.224401 
L 110.497504 156.417677 
L 110.751239 150.60688 
L 111.004975 180.048146 
L 111.25871 165.908814 
L 111.385578 175.399213 
L 111.512446 167.457966 
L 111.639314 152.544059 
L 111.893049 149.445016 
L 112.019917 150.60688 
L 112.146785 153.705923 
L 112.527388 119.810477 
L 112.907991 126.976412 
L 113.034859 131.238055 
L 113.288594 149.832305 
L 113.415462 144.215522 
L 113.54233 144.02151 
L 113.669197 147.120551 
L 113.796065 144.796086 
L 114.049801 148.08914 
L 114.303536 126.783136 
L 114.684139 184.30905 
L 114.937875 201.741438 
L 115.064743 197.480162 
L 115.318478 207.164944 
L 115.699081 189.151258 
L 115.825949 193.4129 
L 115.952817 204.646834 
L 116.079685 206.002711 
L 116.206552 205.42178 
L 116.460288 225.952838 
L 116.840891 191.863011 
L 116.967759 197.480162 
L 117.094626 190.701146 
L 117.221494 162.809773 
L 117.348362 165.327514 
L 117.602097 210.070342 
L 117.728965 199.998272 
L 117.982701 208.908109 
L 118.109568 205.615424 
L 118.236436 207.164944 
L 118.363304 201.354149 
L 118.743907 149.638292 
L 118.997643 190.313859 
L 119.251378 161.066607 
L 119.505114 174.818651 
L 119.631981 174.237351 
L 120.012584 202.516382 
L 120.520055 181.404022 
L 120.773791 155.6431 
L 120.900659 168.426555 
L 121.154394 143.440209 
L 121.281262 148.08914 
L 121.40813 145.571399 
L 121.534997 137.823426 
L 121.788733 196.511943 
L 121.915601 194.768777 
L 122.042468 186.246229 
L 122.296204 210.263986 
L 122.423072 176.949103 
L 122.549939 102.571366 
L 122.676807 119.810477 
L 122.930542 161.841183 
L 123.184278 140.922468 
L 123.311146 142.472358 
L 123.438013 151.57547 
L 123.691749 181.597298 
L 123.945484 179.466844 
L 124.326088 146.151963 
L 124.579823 160.291293 
L 124.833559 108.382162 
L 124.960426 115.161545 
L 125.34103 169.007856 
L 125.467897 178.498256 
L 125.594765 179.079557 
L 125.721633 176.75509 
L 126.102236 121.746917 
L 126.355971 135.111673 
L 126.482839 130.075453 
L 126.609707 112.062504 
L 126.736575 113.224368 
L 126.863442 129.882178 
L 126.99031 127.751726 
L 127.117178 117.291999 
L 127.370913 150.60688 
L 127.878384 107.801598 
L 128.005252 126.976412 
L 128.258988 172.300172 
L 128.512723 145.958687 
L 128.766458 177.917693 
L 129.020194 143.05292 
L 129.273929 172.300172 
L 129.400797 175.787239 
L 129.654533 201.160505 
L 129.908268 211.619863 
L 130.162004 174.431362 
L 130.415739 206.002711 
L 130.542607 194.962422 
L 130.669475 157.580278 
L 130.796342 162.422484 
L 131.050078 133.562521 
L 131.176946 142.859646 
L 131.430681 171.138308 
L 131.684416 160.485306 
L 131.938152 131.044042 
L 132.318755 160.485306 
L 132.572491 150.800893 
L 132.699358 154.674511 
L 132.826226 154.09321 
L 132.953094 141.891056 
L 133.079962 143.05292 
L 133.206829 157.580278 
L 133.333697 155.255813 
L 133.460565 149.832305 
L 133.587433 154.09321 
L 133.841168 139.953879 
L 133.968036 153.512647 
L 134.094904 154.868524 
L 134.348639 131.431329 
L 134.602375 148.282415 
L 134.729242 141.891056 
L 134.982978 146.53925 
L 135.109845 137.629413 
L 135.236713 141.309756 
L 135.363581 155.449087 
L 135.490449 156.804964 
L 135.617316 150.800893 
L 135.871052 153.899936 
L 136.124787 128.719577 
L 136.378523 158.160841 
L 136.632258 126.783136 
L 136.759126 130.463478 
L 136.885994 138.404727 
L 137.139729 128.91359 
L 137.520333 168.233279 
L 137.774068 143.246933 
L 137.900936 148.282415 
L 138.027803 157.773554 
L 138.408407 126.395849 
L 138.535274 132.981219 
L 138.662142 129.688166 
L 138.78901 146.733263 
L 139.042745 128.91359 
L 139.296481 149.832305 
L 139.423349 152.931346 
L 139.550216 151.57547 
L 139.677084 147.701853 
L 139.803952 154.868524 
L 139.93082 152.931346 
L 140.057687 137.242126 
L 140.184555 138.404727 
L 140.311423 149.445016 
L 140.438291 149.445016 
L 140.818894 128.91359 
L 140.945761 131.431329 
L 141.199497 101.990803 
L 141.453232 130.075453 
L 141.5801 128.332289 
L 141.833836 117.291999 
L 141.960703 119.616464 
L 142.214439 126.395849 
L 142.341307 124.845959 
L 142.468174 120.197766 
L 142.595042 121.746917 
L 142.72191 130.850767 
L 142.848778 127.557713 
L 142.975645 121.35963 
L 143.229381 142.084332 
L 143.483116 124.264658 
L 143.609984 128.719577 
L 143.863719 147.314564 
L 143.990587 146.53925 
L 144.117455 149.445016 
L 144.37119 130.075453 
L 144.498058 132.012631 
L 144.624926 126.783136 
L 144.751794 114.774258 
L 145.005529 133.755796 
L 145.132397 126.008561 
L 145.386132 153.512647 
L 145.639868 121.94093 
L 145.766736 123.296807 
L 145.893603 131.625342 
L 146.274207 123.684095 
L 146.401074 123.877369 
L 146.65481 125.427259 
L 146.908545 140.147892 
L 147.035413 136.080262 
L 147.162281 127.170425 
L 147.416016 141.116481 
L 147.669752 132.593932 
L 147.796619 134.724385 
L 148.050355 129.107601 
L 148.430958 159.129431 
L 148.811561 151.962757 
L 149.065297 126.201836 
L 149.192165 128.91359 
L 149.319032 134.918398 
L 149.572768 126.008561 
L 149.699636 128.332289 
L 149.953371 119.810477 
L 150.58771 132.012631 
L 150.714577 147.895127 
L 150.841445 147.314564 
L 150.968313 127.557713 
L 151.222048 145.183373 
L 151.348916 129.882178 
L 151.475784 130.850767 
L 151.729519 160.679319 
L 151.983255 150.994169 
L 152.23699 144.02151 
L 152.363858 147.895127 
L 152.490726 144.796086 
L 152.617594 135.49896 
L 152.871329 134.530372 
L 153.125064 105.864421 
L 153.505668 125.814548 
L 153.632535 127.170425 
L 153.759403 130.463478 
L 154.013139 153.899936 
L 154.140006 147.314564 
L 154.393742 124.845959 
L 154.52061 124.458671 
L 154.647477 126.395849 
L 154.774345 118.260587 
L 154.901213 98.891761 
L 155.154948 161.64717 
L 155.408684 212.394438 
L 155.535552 206.196355 
L 155.662419 191.088435 
L 155.916155 217.043001 
L 156.16989 195.930641 
L 156.296758 196.124654 
L 156.423626 193.800189 
L 156.550493 187.214817 
L 156.677361 173.462774 
L 156.804229 176.75509 
L 156.931097 193.800189 
L 157.184832 180.048146 
L 157.438568 206.777657 
L 157.565435 211.232574 
L 157.692303 199.223697 
L 157.819171 171.71961 
L 157.946039 176.174528 
L 158.072906 204.453191 
L 158.199774 201.354149 
L 158.326642 189.539282 
L 158.45351 193.219258 
L 158.707245 184.890352 
L 158.834113 193.219258 
L 159.087848 180.822721 
L 159.468451 192.444312 
L 159.595319 205.228136 
L 159.849055 167.264691 
L 160.10279 195.543354 
L 160.229658 191.475724 
L 160.356526 192.444312 
L 160.483393 201.741438 
L 160.737129 185.664927 
L 160.990864 196.899231 
L 161.2446 184.696339 
L 161.498335 192.057023 
L 161.752071 165.714801 
L 162.005806 169.782432 
L 162.132674 166.489378 
L 162.386409 202.516382 
L 162.513277 197.092874 
L 162.640145 179.27357 
L 162.89388 197.86782 
L 163.147616 144.60281 
L 163.401351 179.854133 
L 163.528219 179.27357 
L 163.655087 172.106897 
L 163.781955 177.917693 
L 163.908822 166.102089 
L 164.03569 133.562521 
L 164.162558 131.431329 
L 164.416293 158.354854 
L 164.543161 149.638292 
L 164.923764 97.923172 
L 165.1775 133.949809 
L 165.431235 76.22988 
L 165.684971 116.904711 
L 165.938706 149.057729 
L 166.065574 155.255813 
L 166.192442 155.255813 
L 166.319309 149.445016 
L 166.573045 105.477133 
L 166.699913 104.121256 
L 166.953648 111.481203 
L 167.080516 104.895833 
L 167.207384 86.68887 
L 167.334251 92.499665 
L 167.461119 111.868491 
L 167.714855 96.954584 
L 167.96859 126.976412 
L 168.222325 110.125326 
L 168.476061 79.716211 
L 168.729796 130.850767 
L 168.856664 127.557713 
L 169.1104 102.765379 
L 169.364135 138.792015 
L 169.617871 106.445721 
L 170.252209 160.291293 
L 170.505945 175.205939 
L 170.75968 145.764674 
L 170.886548 154.868524 
L 171.013416 152.737333 
L 171.267151 145.183373 
L 171.394019 153.125359 
L 171.520887 150.219593 
L 171.647754 127.751726 
L 171.774622 130.850767 
L 172.028358 170.75102 
L 172.282093 147.314564 
L 172.535829 122.909518 
L 173.0433 149.251004 
L 173.170167 147.120551 
L 173.423903 159.516718 
L 173.677638 151.769482 
L 173.804506 153.899936 
L 174.058242 140.147892 
L 174.185109 145.571399 
L 174.311977 144.215522 
L 174.438845 140.922468 
L 174.565712 148.282415 
L 174.69258 145.958687 
L 174.946316 125.039972 
L 175.200051 150.60688 
L 175.326919 147.314564 
L 175.453787 148.476428 
L 175.580654 156.998977 
L 175.707522 157.192252 
L 175.83439 152.544059 
L 175.961258 154.09321 
L 176.088125 162.034458 
L 176.214993 158.354854 
L 176.468729 126.976412 
L 176.595596 125.814548 
L 176.722464 121.94093 
L 176.849332 123.296807 
L 176.9762 128.91359 
L 177.103067 127.364437 
L 177.356803 140.922468 
L 177.610538 132.787206 
L 177.864274 144.60281 
L 177.991141 146.345976 
L 178.118009 154.480498 
L 178.244877 152.350046 
L 178.498612 129.49489 
L 178.62548 145.571399 
L 178.752348 146.151963 
L 178.879216 130.850767 
L 179.006083 137.436139 
L 179.132951 153.125359 
L 179.259819 149.445016 
L 179.513554 125.427259 
L 179.640422 130.656754 
L 179.894158 147.120551 
L 180.147893 158.160841 
L 180.274761 155.0618 
L 180.401628 155.255813 
L 180.528496 153.125359 
L 180.655364 145.183373 
L 180.782232 147.120551 
L 181.035967 155.836375 
L 181.162835 153.318634 
L 181.289703 147.50784 
L 181.41657 148.08914 
L 181.543438 152.737333 
L 181.797174 132.012631 
L 182.050909 157.773554 
L 182.177777 155.449087 
L 182.431512 134.337096 
L 182.685248 145.764674 
L 182.812116 145.958687 
L 182.938983 142.084332 
L 183.065851 134.143083 
L 183.192719 141.116481 
L 183.319586 156.804964 
L 183.573322 147.314564 
L 183.70019 153.705923 
L 183.953925 152.350046 
L 184.080793 148.282415 
L 184.207661 140.535179 
L 184.461396 149.445016 
L 184.588264 153.512647 
L 184.715132 152.931346 
L 184.841999 142.084332 
L 184.968867 144.796086 
L 185.095735 158.160841 
L 185.34947 125.039972 
L 185.603206 158.160841 
L 185.730074 145.377386 
L 185.856941 144.796086 
L 185.983809 151.57547 
L 186.237544 126.783136 
L 186.364412 128.139013 
L 186.49128 127.557713 
L 186.618148 130.850767 
L 186.745015 139.566591 
L 186.871883 139.372578 
L 186.998751 143.05292 
L 187.125619 154.868524 
L 187.379354 152.15677 
L 187.506222 154.287223 
L 187.759957 141.116481 
L 187.886825 146.53925 
L 188.013693 146.151963 
L 188.140561 138.598003 
L 188.394296 144.02151 
L 188.521164 138.017438 
L 188.774899 156.998977 
L 188.901767 152.15677 
L 189.155503 159.904006 
L 189.28237 154.868524 
L 189.409238 154.868524 
L 189.662973 125.233246 
L 189.916709 153.705923 
L 190.170444 130.269465 
L 190.297312 132.787206 
L 190.551048 125.814548 
L 190.677915 126.008561 
L 190.804783 127.364437 
L 191.058519 139.760604 
L 191.185386 134.530372 
L 191.439122 142.859646 
L 191.56599 128.139013 
L 191.692857 130.463478 
L 191.819725 150.219593 
L 191.946593 150.994169 
L 192.073461 144.990099 
L 192.200328 146.151963 
L 192.707799 127.557713 
L 192.834667 130.075453 
L 192.961535 136.46755 
L 193.21527 126.783136 
L 193.342138 134.530372 
L 193.595873 100.634926 
L 193.722741 101.409502 
L 193.849609 108.576175 
L 194.103344 102.765379 
L 194.35708 107.994874 
L 194.737683 132.593932 
L 194.864551 133.174495 
L 194.991419 132.206644 
L 195.118286 127.945 
L 195.245154 130.850767 
L 195.372022 126.008561 
L 195.498889 105.864421 
L 195.752625 133.562521 
L 196.00636 149.638292 
L 196.133228 148.476428 
L 196.386964 141.697043 
L 196.640699 144.990099 
L 196.767567 143.05292 
L 197.021302 147.314564 
L 197.14817 147.314564 
L 197.401906 141.891056 
L 197.655641 152.737333 
L 197.782509 152.350046 
L 198.036244 150.413606 
L 198.163112 146.926538 
L 198.416847 133.949809 
L 198.797451 152.350046 
L 198.924318 150.60688 
L 199.051186 152.15677 
L 199.304922 147.701853 
L 199.431789 151.57547 
L 199.558657 150.219593 
L 199.812393 133.174495 
L 200.192996 145.571399 
L 200.319864 141.503769 
L 200.446731 141.309756 
L 200.700467 150.994169 
L 200.954202 148.08914 
L 201.08107 149.057729 
L 201.207938 147.895127 
L 201.334805 145.571399 
L 201.588541 153.125359 
L 201.842276 146.733263 
L 201.969144 150.026318 
L 202.096012 149.057729 
L 202.22288 139.179302 
L 202.349747 142.472358 
L 202.476615 152.931346 
L 202.730351 132.012631 
L 202.984086 159.129431 
L 203.237822 131.431329 
L 203.491557 156.224401 
L 203.618425 141.116481 
L 203.87216 159.129431 
L 203.999028 166.102089 
L 204.125896 166.683391 
L 204.379631 149.057729 
L 204.633367 157.580278 
L 204.760234 154.287223 
L 205.01397 168.620567 
L 205.267705 155.449087 
L 205.394573 164.552937 
L 205.521441 164.552937 
L 205.775176 150.219593 
L 205.902044 149.445016 
L 206.028912 145.764674 
L 206.15578 146.151963 
L 206.282647 144.796086 
L 206.409515 144.796086 
L 206.663251 150.800893 
L 206.790118 151.769482 
L 206.916986 154.480498 
L 207.043854 150.994169 
L 207.297589 131.818618 
L 207.551325 147.701853 
L 207.80506 140.922468 
L 208.058796 150.219593 
L 208.312531 141.503769 
L 208.566267 154.287223 
L 208.820002 145.183373 
L 208.94687 145.764674 
L 209.073738 143.634222 
L 209.200605 144.408797 
L 209.454341 150.60688 
L 209.708076 131.625342 
L 209.834944 138.792015 
L 209.961812 152.931346 
L 210.08868 145.958687 
L 210.342415 128.139013 
L 210.849886 153.125359 
L 211.103621 157.580278 
L 211.230489 150.60688 
L 211.357357 150.800893 
L 211.484225 158.160841 
L 211.611092 157.773554 
L 211.73796 153.899936 
L 211.864828 293.357548 
L 211.991696 295.488 
L 212.245431 271.470243 
L 212.499167 293.163903 
L 212.752902 281.735957 
L 212.87977 279.605504 
L 213.133505 269.920721 
L 213.387241 271.470243 
L 213.640976 284.44771 
L 213.894712 271.470243 
L 214.021579 279.024203 
L 214.275315 264.30394 
L 214.402183 272.051544 
L 214.52905 268.952502 
L 214.782786 255.006814 
L 215.036521 248.227431 
L 215.163389 251.71376 
L 215.290257 251.71376 
L 215.417125 246.290621 
L 215.543992 246.484266 
L 215.67086 248.033787 
L 215.924596 243.772512 
L 216.178331 249.002375 
L 216.432067 243.19158 
L 216.558934 243.578867 
L 216.685802 241.642059 
L 217.066405 233.119511 
L 217.320141 220.336056 
L 217.573876 227.890016 
L 217.827612 217.817946 
L 217.954479 219.367467 
L 218.081347 223.241085 
L 218.208215 220.723344 
L 218.46195 212.007151 
L 218.715686 221.885577 
L 218.842554 219.367467 
L 219.096289 211.232574 
L 219.223157 214.525261 
L 219.60376 201.160505 
L 219.730628 201.354149 
L 219.857495 197.480162 
L 219.984363 151.57547 
L 220.238099 150.219593 
L 220.364966 149.832305 
L 220.491834 150.219593 
L 220.618702 152.931346 
L 220.74557 152.544059 
L 220.872437 150.026318 
L 221.126173 157.192252 
L 221.253041 155.255813 
L 221.506776 150.026318 
L 221.760512 151.962757 
L 221.887379 152.350046 
L 222.014247 153.705923 
L 222.267983 144.796086 
L 222.521718 150.800893 
L 223.029189 143.05292 
L 223.156057 144.215522 
L 223.409792 148.08914 
L 223.53666 145.183373 
L 223.663528 138.98529 
L 223.790395 140.728455 
L 223.917263 147.701853 
L 224.170999 138.792015 
L 224.424734 150.994169 
L 224.551602 147.50784 
L 224.805337 134.530372 
L 225.059073 152.350046 
L 225.439676 142.084332 
L 225.566544 134.724385 
L 225.693411 136.273537 
L 225.820279 132.981219 
L 225.947147 125.427259 
L 226.32775 132.012631 
L 226.454618 145.183373 
L 226.581486 144.408797 
L 226.708353 132.593932 
L 226.835221 132.399919 
L 226.962089 135.692973 
L 227.088957 132.206644 
L 227.215824 132.012631 
L 227.342692 133.755796 
L 227.46956 133.368508 
L 227.850163 147.701853 
L 228.103899 150.026318 
L 228.484502 146.345976 
L 228.865105 151.188182 
L 229.11884 147.701853 
L 229.245708 149.057729 
L 229.499444 154.480498 
L 229.753179 151.381458 
L 230.006915 153.899936 
L 230.26065 147.50784 
L 230.514386 152.931346 
L 230.768121 143.634222 
L 230.894989 145.571399 
L 231.148724 134.143083 
L 231.40246 151.188182 
L 231.529328 148.476428 
L 231.656195 148.863717 
L 231.783063 150.219593 
L 231.909931 149.445016 
L 232.036798 150.413606 
L 232.290534 147.120551 
L 232.544269 150.413606 
L 232.798005 152.544059 
L 233.05174 151.962757 
L 233.178608 155.0618 
L 233.305476 154.480498 
L 233.559211 149.251004 
L 233.686079 147.120551 
L 233.812947 146.926538 
L 233.939815 148.476428 
L 234.066682 142.278345 
L 234.320418 124.071382 
L 234.827889 139.566591 
L 235.081624 153.318634 
L 235.208492 149.832305 
L 235.462227 151.57547 
L 235.715963 147.895127 
L 235.842831 149.251004 
L 235.969698 147.120551 
L 236.096566 135.692973 
L 236.350302 191.282448 
L 236.730905 231.376345 
L 236.857773 219.948399 
L 237.111508 254.425514 
L 237.238376 246.290621 
L 237.365244 230.020468 
L 237.492111 232.925866 
L 237.745847 255.587747 
L 237.999582 215.299837 
L 238.253318 228.858236 
L 238.380185 220.5297 
L 238.760789 245.709321 
L 238.887656 238.349006 
L 239.014524 217.237013 
L 239.141392 224.403318 
L 239.395127 270.502023 
L 239.521995 260.429953 
L 239.648863 264.691228 
L 239.902598 244.934744 
L 240.029466 249.583308 
L 240.156334 241.254402 
L 240.283202 221.304276 
L 240.536937 218.398877 
L 240.663805 221.885577 
L 240.790672 248.421075 
L 240.91754 247.840142 
L 241.044408 213.556671 
L 241.171276 219.173823 
L 241.298143 242.416635 
L 241.551879 231.763634 
L 241.678747 251.907405 
L 241.805614 249.583308 
L 242.05935 220.723344 
L 242.186218 226.340495 
L 242.439953 213.556671 
L 242.693689 227.308715 
L 243.074292 177.530405 
L 243.328027 172.494185 
L 243.708631 255.200458 
L 243.835498 233.506798 
L 243.962366 246.290621 
L 244.089234 273.988352 
L 244.216101 252.875993 
L 244.342969 102.184079 
L 244.469837 120.585053 
L 244.723572 175.399213 
L 244.977308 154.480498 
L 245.104176 151.381458 
L 245.231043 152.15677 
L 245.484779 198.255107 
L 245.611647 201.160505 
L 245.738514 188.376681 
L 246.119118 119.422452 
L 246.372853 154.287223 
L 246.626589 90.175199 
L 247.134059 168.620567 
L 247.260927 175.011926 
L 247.387795 175.787239 
L 247.514663 162.61576 
L 247.895266 77.391744 
L 248.022134 83.589829 
L 248.149001 100.440913 
L 248.275869 97.535885 
L 248.402737 74.486716 
L 248.529605 77.779033 
L 248.656472 90.562488 
L 248.78334 83.008528 
L 248.910208 89.787912 
L 249.163943 140.147892 
L 249.417679 114.192957 
L 249.671414 79.13491 
L 250.052017 157.773554 
L 250.178885 140.535179 
L 250.305753 138.404727 
L 250.559488 168.813843 
L 250.813224 143.827497 
L 251.193827 176.561816 
L 251.447563 197.86782 
L 251.701298 211.232574 
L 251.955034 169.976444 
L 252.208769 211.232574 
L 252.462505 196.511943 
L 252.589372 212.782096 
L 252.71624 212.200794 
L 252.843108 198.061464 
L 252.969975 210.651275 
L 253.223711 244.1598 
L 253.350579 238.155361 
L 253.731182 176.174528 
L 253.984917 196.124654 
L 254.238653 191.669736 
L 254.365521 191.669736 
L 254.619256 211.426219 
L 254.872992 198.448751 
L 254.999859 205.034123 
L 255.253595 174.043338 
L 255.380463 175.399213 
L 255.634198 165.908814 
L 255.761066 172.494185 
L 255.887933 165.134238 
L 256.014801 144.215522 
L 256.141669 142.859646 
L 256.395404 174.431362 
L 256.522272 169.007856 
L 256.64914 158.354854 
L 256.776008 157.967567 
L 257.156611 129.300877 
L 257.283479 133.949809 
L 257.79095 102.571366 
L 257.917817 99.859612 
L 258.171553 105.864421 
L 258.298421 105.28312 
L 258.552156 109.932052 
L 258.679024 107.994874 
L 258.805892 107.801598 
L 258.932759 109.932052 
L 259.186495 136.080262 
L 259.313362 131.431329 
L 259.567098 101.602777 
L 259.820833 132.593932 
L 260.074569 99.472325 
L 260.328304 113.611657 
L 260.455172 106.833009 
L 260.58204 131.625342 
L 260.835775 122.134205 
L 261.216379 161.066607 
L 261.343246 157.386265 
L 261.470114 146.926538 
L 261.596982 152.737333 
L 261.72385 147.120551 
L 261.850717 130.656754 
L 261.977585 129.688166 
L 262.104453 133.368508 
L 262.23132 131.044042 
L 262.485056 133.174495 
L 262.738791 130.075453 
L 262.992527 121.746917 
L 263.119395 126.395849 
L 263.499998 105.089846 
L 263.626866 104.508544 
L 263.753733 101.602777 
L 263.880601 101.409502 
L 264.007469 107.607585 
L 264.134337 108.188886 
L 264.261204 101.990803 
L 264.51494 131.238055 
L 264.641808 127.170425 
L 264.768675 123.102794 
L 265.022411 134.724385 
L 265.149278 130.656754 
L 265.403014 105.28312 
L 265.656749 128.719577 
L 265.783617 117.486012 
L 266.037353 125.233246 
L 266.16422 119.229176 
L 266.417956 136.46755 
L 266.544824 126.008561 
L 266.798559 139.566591 
L 266.925427 132.593932 
L 267.052295 134.724385 
L 267.179162 142.472358 
L 267.30603 136.854837 
L 267.559766 115.742847 
L 267.940369 134.337096 
L 268.067236 129.107601 
L 268.194104 128.526301 
L 268.44784 139.179302 
L 268.574707 143.440209 
L 268.701575 156.998977 
L 268.955311 140.922468 
L 269.082178 147.701853 
L 269.335914 129.688166 
L 269.589649 157.967567 
L 269.716517 148.282415 
L 269.843385 148.863717 
L 270.09712 159.904006 
L 270.350856 188.183407 
L 270.477724 188.76397 
L 270.604591 191.088435 
L 270.985195 144.02151 
L 271.112062 154.674511 
L 271.23893 152.737333 
L 271.492665 141.697043 
L 271.746401 126.395849 
L 271.873269 127.364437 
L 272.000136 129.300877 
L 272.253872 147.50784 
L 272.38074 143.634222 
L 272.507607 147.50784 
L 272.634475 156.417677 
L 273.141946 136.273537 
L 273.522549 155.255813 
L 273.649417 152.737333 
L 273.903153 128.719577 
L 274.156888 165.908814 
L 274.410623 131.818618 
L 274.537491 147.701853 
L 274.664359 144.408797 
L 274.918094 112.449793 
L 275.044962 116.130135 
L 275.298698 132.012631 
L 275.425565 129.300877 
L 275.552433 130.850767 
L 275.933036 166.877402 
L 276.059904 162.61576 
L 276.31364 141.503769 
L 276.440507 149.832305 
L 276.567375 144.796086 
L 276.694243 117.291999 
L 276.947978 220.336056 
L 277.201714 271.8579 
L 277.328581 269.920721 
L 277.455449 250.357883 
L 277.709185 290.064862 
L 277.96292 259.849022 
L 278.089788 260.429953 
L 278.343523 268.177558 
L 278.597259 239.704881 
L 278.850994 261.592186 
L 278.977862 258.299501 
L 279.10473 260.429953 
L 279.358465 282.510902 
L 279.612201 244.741102 
L 279.739069 250.745541 
L 279.865936 275.731518 
L 279.992804 272.82612 
L 280.119672 259.655378 
L 280.246539 267.015325 
L 280.373407 266.434392 
L 280.500275 258.686788 
L 280.627143 261.592186 
L 281.134614 237.768073 
L 281.261481 241.835704 
L 281.388349 263.916283 
L 281.515217 256.556335 
L 281.642085 225.565551 
L 281.768952 230.989058 
L 281.89582 249.583308 
L 282.149556 252.875993 
L 282.276423 252.101418 
L 282.530159 240.286182 
L 282.783894 232.732222 
L 283.03763 215.106192 
L 283.291365 236.218552 
L 283.545101 194.187477 
L 283.671968 196.705587 
L 283.798836 192.057023 
L 283.925704 182.565886 
L 284.179439 254.812801 
L 284.306307 254.425514 
L 284.433175 236.799484 
L 284.68691 271.664256 
L 284.813778 248.421075 
L 284.940646 152.350046 
L 285.321249 223.822385 
L 285.574985 204.259547 
L 285.701852 199.223697 
L 285.82872 202.516382 
L 286.082456 247.452854 
L 286.209323 249.970595 
L 286.336191 245.128389 
L 286.463059 226.534139 
L 286.716794 177.336392 
L 286.843662 202.322737 
L 286.97053 205.42178 
L 287.224265 137.242126 
L 287.478001 175.980515 
L 287.731736 208.714465 
L 287.985472 216.655714 
L 288.112339 210.651275 
L 288.492943 132.981219 
L 288.746678 152.544059 
L 288.873546 141.503769 
L 289.000414 120.778328 
L 289.127281 122.328218 
L 289.254149 132.206644 
L 289.381017 128.526301 
L 289.507884 132.206644 
L 289.76162 182.178598 
L 289.888488 175.011926 
L 290.269091 119.229176 
L 290.395959 138.792015 
L 290.649694 190.701146 
L 290.90343 165.521527 
L 291.157165 180.822721 
L 291.410901 150.800893 
L 291.918372 211.813507 
L 292.045239 217.430658 
L 292.298975 236.218552 
L 292.55271 192.057023 
L 292.806446 221.691564 
L 292.933313 209.876698 
L 293.060181 122.521492 
L 293.313917 132.981219 
L 293.440784 126.589123 
L 293.567652 135.886249 
L 293.948255 181.597298 
L 294.328859 126.783136 
L 294.582594 132.206644 
L 294.83633 146.926538 
L 294.963197 144.60281 
L 295.216933 171.525597 
L 295.470668 153.318634 
L 295.597536 156.030388 
L 295.724404 151.769482 
L 296.105007 132.206644 
L 296.231875 129.107601 
L 296.358742 147.895127 
L 296.48561 148.08914 
L 296.739346 116.710698 
L 296.993081 164.940225 
L 297.119949 161.453896 
L 297.373684 167.264691 
L 297.62742 141.503769 
L 297.754288 145.377386 
L 297.881155 144.408797 
L 298.134891 126.783136 
L 298.261758 127.170425 
L 298.515494 104.895833 
L 298.769229 127.945 
L 298.896097 123.490082 
L 299.149833 129.300877 
L 299.2767 124.264658 
L 299.657304 132.787206 
L 299.784171 149.251004 
L 299.911039 148.476428 
L 300.164775 123.684095 
L 300.41851 138.98529 
L 300.672246 124.652684 
L 300.925981 145.764674 
L 301.052849 145.377386 
L 301.179717 176.949103 
L 301.306584 175.980515 
L 301.56032 202.90367 
L 301.687187 207.552232 
L 301.814055 221.49792 
L 301.940923 221.885577 
L 302.067791 210.844917 
L 302.194658 216.655714 
L 302.321526 215.687125 
L 302.448394 197.092874 
L 302.575262 195.736997 
L 302.955865 210.070342 
L 303.082733 212.394438 
L 303.2096 210.844917 
L 303.336468 211.619863 
L 303.590204 193.993833 
L 303.843939 205.809067 
L 304.224542 173.268761 
L 304.35141 178.498256 
L 304.478278 177.336392 
L 304.605145 174.237351 
L 304.732013 174.818651 
L 304.858881 172.494185 
L 305.112616 193.606545 
L 305.239484 191.282448 
L 305.366352 188.570694 
L 305.620087 204.453191 
L 305.746955 199.029684 
L 306.000691 181.016734 
L 306.254426 197.092874 
L 306.761897 178.30498 
L 306.888765 193.993833 
L 307.015633 192.057023 
L 307.1425 171.525597 
L 307.269368 180.242158 
L 307.396236 197.674175 
L 307.649971 181.597298 
L 307.776839 193.219258 
L 307.903707 189.151258 
L 308.157442 164.940225 
L 308.538045 187.796119 
L 308.664913 183.147186 
L 308.918649 191.669736 
L 309.045516 175.787239 
L 309.172384 176.367803 
L 309.299252 153.125359 
L 309.42612 153.705923 
L 309.679855 130.656754 
L 309.806723 128.139013 
L 309.933591 130.463478 
L 310.187326 151.381458 
L 310.314194 150.026318 
L 310.441061 150.413606 
L 310.948532 182.953173 
L 311.0754 178.692269 
L 311.202268 179.854133 
L 311.456003 142.472358 
L 311.582871 145.764674 
L 311.709739 154.868524 
L 311.963474 138.598003 
L 312.090342 138.017438 
L 312.344078 126.783136 
L 312.597813 129.107601 
L 312.851549 137.436139 
L 312.978416 135.49896 
L 313.232152 139.953879 
L 313.485887 130.850767 
L 313.739623 144.60281 
L 313.86649 145.183373 
L 313.993358 151.57547 
L 314.120226 151.57547 
L 314.247094 147.314564 
L 314.500829 129.107601 
L 314.754565 159.904006 
L 315.0083 126.201836 
L 315.135168 145.183373 
L 315.262036 145.377386 
L 315.388903 124.071382 
L 315.515771 122.328218 
L 315.642639 129.688166 
L 315.769507 129.688166 
L 316.15011 139.372578 
L 316.276978 146.733263 
L 316.530713 179.079557 
L 316.784448 157.386265 
L 316.911316 159.904006 
L 317.038184 167.845253 
L 317.165052 155.255813 
L 317.291919 127.751726 
L 317.418787 210.844917 
L 317.545655 216.268425 
L 317.926258 257.330912 
L 318.053126 240.673471 
L 318.306861 273.988352 
L 318.560597 242.803923 
L 318.687465 254.619158 
L 318.9412 287.93404 
L 319.194936 241.835704 
L 319.448671 264.497584 
L 319.575539 252.488705 
L 319.702406 252.488705 
L 319.956142 269.33979 
L 320.08301 261.010886 
L 320.209877 234.281743 
L 320.336745 235.056319 
L 320.590481 284.641355 
L 320.717348 270.695667 
L 320.844216 271.664256 
L 320.971084 266.434392 
L 321.097952 255.394103 
L 321.224819 258.686788 
L 321.605423 220.142043 
L 321.73229 220.142043 
L 321.859158 222.660152 
L 322.112894 249.970595 
L 322.239761 224.596961 
L 322.366629 226.534139 
L 322.493497 249.583308 
L 322.620364 247.258841 
L 322.747232 240.673471 
L 323.000968 254.619158 
L 323.254703 223.435098 
L 323.381571 225.178262 
L 323.508439 221.885577 
L 323.635306 214.331617 
L 323.889042 224.209674 
L 324.142777 180.242158 
L 324.269645 180.048146 
L 324.523381 160.872594 
L 324.777116 233.894455 
L 324.903984 231.376345 
L 325.030852 214.137604 
L 325.284587 253.456926 
L 325.411455 222.660152 
L 325.538322 126.783136 
L 325.918926 200.191916 
L 326.172661 183.147186 
L 326.299529 175.399213 
L 326.426397 177.72368 
L 326.680132 224.403318 
L 326.807 228.470947 
L 326.933868 221.691564 
L 327.314471 159.516718 
L 327.568206 187.602106 
L 327.821942 121.746917 
L 328.202545 180.048146 
L 328.456281 199.029684 
L 328.583148 201.547793 
L 328.710016 196.124654 
L 329.090619 120.972341 
L 329.344355 128.719577 
L 329.471222 124.845959 
L 329.59809 107.994874 
L 329.724958 106.25171 
L 329.851826 116.130135 
L 329.978693 111.481203 
L 330.105561 117.873299 
L 330.359297 165.134238 
L 330.7399 118.647876 
L 330.866768 104.121256 
L 330.993635 121.94093 
L 331.247371 175.593226 
L 331.501106 149.445016 
L 331.754842 185.85894 
L 332.008577 149.638292 
L 332.262313 170.944296 
L 332.38918 175.205939 
L 332.642916 200.385561 
L 332.769784 202.710026 
L 332.896651 209.876698 
L 333.150387 175.399213 
L 333.404122 209.101753 
L 333.53099 193.606545 
L 333.657858 101.990803 
L 333.784726 105.089846 
L 333.911593 104.314531 
L 334.038461 101.022215 
L 334.165329 109.156738 
L 334.419064 141.116481 
L 334.545932 145.958687 
L 334.926535 99.085036 
L 335.180271 108.769449 
L 335.307138 107.026285 
L 335.434006 109.738039 
L 335.560874 115.161545 
L 335.814609 140.341166 
L 336.068345 126.008561 
L 336.195213 130.463478 
L 336.32208 130.463478 
L 336.448948 129.688166 
L 336.575816 122.328218 
L 336.829551 98.116448 
L 336.956419 108.769449 
L 337.083287 104.895833 
L 337.210155 83.589829 
L 337.337022 81.652651 
L 337.590758 131.818618 
L 337.717625 127.364437 
L 337.971361 128.526301 
L 338.225096 102.958654 
L 338.351964 108.769449 
L 338.478832 107.413572 
L 338.732567 96.760571 
L 338.859435 92.305652 
L 338.986303 81.265362 
L 339.113171 82.815252 
L 339.366906 104.895833 
L 339.493774 89.594637 
L 339.747509 102.184079 
L 339.874377 89.787912 
L 340.001245 89.787912 
L 340.381848 116.710698 
L 340.508716 120.778328 
L 340.762451 98.310461 
L 341.016187 117.873299 
L 341.269922 95.985996 
L 341.523658 109.156738 
L 341.650525 101.022215 
L 341.777393 177.530405 
L 341.904261 176.367803 
L 342.031129 177.530405 
L 342.411732 215.106192 
L 342.665467 195.736997 
L 342.792335 204.840478 
L 342.919203 199.417341 
L 343.046071 176.949103 
L 343.172938 176.561816 
L 343.426674 188.957983 
L 343.680409 194.575133 
L 343.807277 193.800189 
L 343.934145 190.507134 
L 344.18788 177.530405 
L 344.314748 177.142379 
L 344.441616 178.30498 
L 344.568483 175.399213 
L 344.822219 152.544059 
L 344.949087 153.512647 
L 345.075954 156.998977 
L 345.32969 151.188182 
L 345.456558 150.994169 
L 345.710293 163.19706 
L 345.964029 154.09321 
L 346.217764 177.142379 
L 346.4715 151.188182 
L 346.598367 153.899936 
L 346.852103 171.525597 
L 346.97897 168.426555 
L 347.105838 169.20113 
L 347.359574 150.026318 
L 347.486441 170.944296 
L 347.613309 171.525597 
L 347.740177 148.863717 
L 347.867045 153.318634 
L 347.993912 163.971637 
L 348.12078 153.705923 
L 348.247648 158.742142 
L 348.374516 174.431362 
L 348.501383 165.327514 
L 348.755119 139.760604 
L 349.135722 161.066607 
L 349.26259 153.899936 
L 349.389458 154.09321 
L 349.516325 158.935418 
L 349.643193 151.769482 
L 349.770061 152.931346 
L 349.896928 157.386265 
L 350.404399 148.08914 
L 350.531267 143.634222 
L 350.785003 156.224401 
L 351.038738 149.638292 
L 351.292474 167.070678 
L 351.546209 178.30498 
L 351.673077 176.75509 
L 351.799945 180.629447 
L 352.180548 137.436139 
L 352.307416 144.215522 
L 352.561151 122.521492 
L 352.688019 132.787206 
L 352.814886 127.170425 
L 352.941754 111.868491 
L 353.068622 115.742847 
L 353.322357 134.143083 
L 353.449225 134.143083 
L 353.576093 127.751726 
L 353.702961 133.174495 
L 353.829828 148.08914 
L 354.083564 130.075453 
L 354.337299 144.796086 
L 354.464167 144.60281 
L 354.717903 169.007856 
L 355.098506 129.882178 
L 355.352241 158.548129 
L 355.605977 120.972341 
L 355.732845 134.530372 
L 355.859712 136.080262 
L 356.113448 106.638997 
L 356.494051 128.91359 
L 356.620919 126.976412 
L 356.747786 128.91359 
L 357.12839 151.769482 
L 357.508993 140.147892 
L 357.635861 150.219593 
L 357.762728 148.08914 
L 357.889596 131.818618 
L 358.016464 222.079221 
L 358.143332 232.150921 
L 358.397067 284.44771 
L 358.523935 283.091834 
L 358.650803 260.817242 
L 358.904538 294.713424 
L 359.158273 264.110295 
L 359.285141 273.794708 
L 359.412009 293.551192 
L 359.538877 293.357548 
L 359.792612 250.164239 
L 360.046348 279.218216 
L 360.173215 270.114734 
L 360.300083 274.181997 
L 360.553819 292.388959 
L 360.680686 279.799148 
L 360.807554 252.295062 
L 360.934422 250.551896 
L 361.188157 293.938479 
L 361.441893 269.533434 
L 361.568761 269.920721 
L 361.695628 263.528996 
L 361.822496 264.497584 
L 361.949364 259.26772 
L 362.203099 239.317594 
L 362.329967 238.349006 
L 362.456835 243.19158 
L 362.583702 261.78583 
L 362.71057 260.042665 
L 362.837438 232.925866 
L 362.964306 238.349006 
L 363.091173 264.30394 
L 363.218041 261.204899 
L 363.344909 249.389664 
L 363.598644 265.272159 
L 363.85238 235.443976 
L 364.106115 240.092538 
L 364.232983 231.957278 
L 364.359851 234.669032 
L 364.486719 241.060758 
L 364.740454 196.899231 
L 364.867322 197.092874 
L 365.121057 185.85894 
L 365.374793 248.614718 
L 365.628528 222.466508 
L 365.882264 264.497584 
L 366.009131 238.930305 
L 366.135999 123.684095 
L 366.389735 179.660857 
L 366.516602 177.530405 
L 366.64347 165.908814 
L 366.770338 169.395143 
L 366.897206 161.841183 
L 367.024073 162.809773 
L 367.277809 204.259547 
L 367.404677 204.453191 
L 367.531544 198.255107 
L 367.912148 141.503769 
L 368.039015 155.6431 
L 368.165883 157.386265 
L 368.419618 90.175199 
L 368.546486 103.152667 
L 368.800222 142.084332 
L 369.053957 159.904006 
L 369.180825 159.71073 
L 369.307693 153.125359 
L 369.688296 71.968238 
L 369.942031 88.819322 
L 370.068899 77.391744 
L 370.195767 53.568 
L 370.322635 55.698454 
L 370.449502 73.518128 
L 370.57637 71.968238 
L 370.703238 76.22988 
L 370.956973 127.364437 
L 371.337576 76.035869 
L 371.464444 66.932756 
L 371.591312 82.427965 
L 371.845047 135.111673 
L 372.098783 98.310461 
L 372.352518 139.953879 
L 372.606254 118.4546 
L 373.494328 183.147186 
L 373.748064 151.769482 
L 374.001799 181.21001 
L 374.128667 166.102089 
L 374.255534 127.557713 
L 374.636138 119.616464 
L 374.763005 128.526301 
L 375.016741 159.516718 
L 375.143609 152.15677 
L 375.524212 115.355558 
L 375.777947 128.91359 
L 376.031683 133.368508 
L 376.158551 127.945 
L 376.285418 133.174495 
L 376.412286 148.282415 
L 376.539154 144.408797 
L 376.666022 131.238055 
L 377.046625 129.107601 
L 377.173492 125.233246 
L 377.30036 107.607585 
L 377.427228 107.026285 
L 377.554096 123.877369 
L 377.680963 117.486012 
L 377.807831 95.985996 
L 377.934699 99.859612 
L 378.188434 130.269465 
L 378.569038 125.814548 
L 378.822773 111.287929 
L 378.949641 122.521492 
L 379.076509 123.102794 
L 379.330244 103.34668 
L 379.457112 106.445721 
L 379.710847 93.661529 
L 379.964583 111.093916 
L 380.09145 109.544763 
L 380.345186 114.38697 
L 380.598921 103.927243 
L 380.725789 108.963462 
L 380.979525 134.337096 
L 381.106392 132.012631 
L 381.360128 109.156738 
L 381.613863 129.300877 
L 381.740731 120.003753 
L 381.867599 98.503737 
L 381.994467 103.927243 
L 382.121334 124.071382 
L 382.248202 121.35963 
L 382.37507 159.516718 
L 382.501938 144.02151 
L 382.628805 145.377386 
L 382.882541 176.949103 
L 383.009409 180.242158 
L 383.136276 176.367803 
L 383.263144 177.142379 
L 383.390012 185.084365 
L 383.643747 152.15677 
L 383.897483 162.61576 
L 384.02435 150.800893 
L 384.151218 153.705923 
L 384.278086 159.516718 
L 384.404954 156.224401 
L 384.531821 157.967567 
L 384.658689 153.899936 
L 384.785557 141.697043 
L 384.912425 144.60281 
L 385.039292 154.868524 
L 385.419896 129.688166 
L 385.673631 139.760604 
L 385.927367 145.571399 
L 386.054234 140.922468 
L 386.30797 160.291293 
L 386.561705 144.215522 
L 386.815441 156.804964 
L 386.942308 157.773554 
L 387.196044 140.147892 
L 387.449779 160.291293 
L 387.576647 152.544059 
L 387.703515 151.962757 
L 387.830383 149.638292 
L 387.95725 151.769482 
L 388.084118 165.521527 
L 388.210986 162.228471 
L 388.337854 144.215522 
L 388.464721 145.571399 
L 388.591589 155.0618 
L 388.845325 150.800893 
L 389.09906 157.773554 
L 389.352795 124.071382 
L 389.479663 127.751726 
L 389.733399 155.255813 
L 389.860266 149.057729 
L 390.114002 156.998977 
L 390.24087 149.251004 
L 390.367737 154.09321 
L 390.494605 154.287223 
L 390.621473 152.931346 
L 390.748341 149.057729 
L 390.875208 148.670441 
L 391.128944 122.521492 
L 391.382679 147.701853 
L 391.509547 129.688166 
L 391.636415 136.46755 
L 391.763283 159.129431 
L 391.89015 158.160841 
L 392.017018 158.548129 
L 392.143886 169.20113 
L 392.270753 170.363733 
L 392.397621 165.908814 
L 392.778224 129.688166 
L 392.905092 130.075453 
L 393.158828 124.071382 
L 393.285695 127.751726 
L 393.539431 117.486012 
L 393.920034 133.174495 
L 394.046902 132.399919 
L 394.17377 129.107601 
L 394.427505 152.737333 
L 394.681241 130.850767 
L 394.934976 154.480498 
L 395.061844 156.804964 
L 395.315579 177.530405 
L 395.569315 164.940225 
L 395.696182 156.417677 
L 395.949918 176.75509 
L 396.203653 145.764674 
L 396.330521 169.588419 
L 396.457389 164.16565 
L 396.584257 140.922468 
L 396.711124 139.760604 
L 396.96486 150.800893 
L 397.091728 154.09321 
L 397.218595 154.09321 
L 397.345463 155.6431 
L 397.726066 185.85894 
L 398.10667 166.489378 
L 398.233537 169.976444 
L 398.360405 165.908814 
L 398.487273 139.760604 
L 398.487273 139.760604 
" clip-path="url(#p7b9bca1e40)" style="fill: none; stroke: #1f77b4; stroke-width: 1.5; stroke-linecap: square"/>
   </g>
   <g id="patch_3">
    <path d="M 57.6 307.584 
L 57.6 41.472 
" style="fill: none; stroke: #000000; stroke-width: 0.8; stroke-linejoin: miter; stroke-linecap: square"/>
   </g>
   <g id="patch_4">
    <path d="M 414.72 307.584 
L 414.72 41.472 
" style="fill: none; stroke: #000000; stroke-width: 0.8; stroke-linejoin: miter; stroke-linecap: square"/>
   </g>
   <g id="patch_5">
    <path d="M 57.6 307.584 
L 414.72 307.584 
" style="fill: none; stroke: #000000; stroke-width: 0.8; stroke-linejoin: miter; stroke-linecap: square"/>
   </g>
   <g id="patch_6">
    <path d="M 57.6 41.472 
L 414.72 41.472 
" style="fill: none; stroke: #000000; stroke-width: 0.8; stroke-linejoin: miter; stroke-linecap: square"/>
   </g>
   <g id="legend_1">
    <g id="patch_7">
     <path d="M 64.6 64.150125 
L 118.245312 64.150125 
Q 120.245312 64.150125 120.245312 62.150125 
L 120.245312 48.472 
Q 120.245312 46.472 118.245312 46.472 
L 64.6 46.472 
Q 62.6 46.472 62.6 48.472 
L 62.6 62.150125 
Q 62.6 64.150125 64.6 64.150125 
z
" style="fill: #ffffff; opacity: 0.8; stroke: #cccccc; stroke-linejoin: miter"/>
    </g>
    <g id="line2d_17">
     <path d="M 66.6 54.570438 
L 76.6 54.570438 
L 86.6 54.570438 
" style="fill: none; stroke: #1f77b4; stroke-width: 1.5; stroke-linecap: square"/>
    </g>
    <g id="text_16">
     <!-- set2 -->
     <g transform="translate(94.6 58.070438)scale(0.1 -0.1)">
      <defs>
       <path id="DejaVuSans-73" d="M 2834 3397 
L 2834 2853 
Q 2591 2978 2328 3040 
Q 2066 3103 1784 3103 
Q 1356 3103 1142 2972 
Q 928 2841 928 2578 
Q 928 2378 1081 2264 
Q 1234 2150 1697 2047 
L 1894 2003 
Q 2506 1872 2764 1633 
Q 3022 1394 3022 966 
Q 3022 478 2636 193 
Q 2250 -91 1575 -91 
Q 1294 -91 989 -36 
Q 684 19 347 128 
L 347 722 
Q 666 556 975 473 
Q 1284 391 1588 391 
Q 1994 391 2212 530 
Q 2431 669 2431 922 
Q 2431 1156 2273 1281 
Q 2116 1406 1581 1522 
L 1381 1569 
Q 847 1681 609 1914 
Q 372 2147 372 2553 
Q 372 3047 722 3315 
Q 1072 3584 1716 3584 
Q 2034 3584 2315 3537 
Q 2597 3491 2834 3397 
z
" transform="scale(0.015625)"/>
       <path id="DejaVuSans-65" d="M 3597 1894 
L 3597 1613 
L 953 1613 
Q 991 1019 1311 708 
Q 1631 397 2203 397 
Q 2534 397 2845 478 
Q 3156 559 3463 722 
L 3463 178 
Q 3153 47 2828 -22 
Q 2503 -91 2169 -91 
Q 1331 -91 842 396 
Q 353 884 353 1716 
Q 353 2575 817 3079 
Q 1281 3584 2069 3584 
Q 2775 3584 3186 3129 
Q 3597 2675 3597 1894 
z
M 3022 2063 
Q 3016 2534 2758 2815 
Q 2500 3097 2075 3097 
Q 1594 3097 1305 2825 
Q 1016 2553 972 2059 
L 3022 2063 
z
" transform="scale(0.015625)"/>
       <path id="DejaVuSans-74" d="M 1172 4494 
L 1172 3500 
L 2356 3500 
L 2356 3053 
L 1172 3053 
L 1172 1153 
Q 1172 725 1289 603 
Q 1406 481 1766 481 
L 2356 481 
L 2356 0 
L 1766 0 
Q 1100 0 847 248 
Q 594 497 594 1153 
L 594 3053 
L 172 3053 
L 172 3500 
L 594 3500 
L 594 4494 
L 1172 4494 
z
" transform="scale(0.015625)"/>
      </defs>
      <use xlink:href="#DejaVuSans-73"/>
      <use xlink:href="#DejaVuSans-65" x="52.099609"/>
      <use xlink:href="#DejaVuSans-74" x="113.623047"/>
      <use xlink:href="#DejaVuSans-32" x="152.832031"/>
     </g>
    </g>
   </g>
  </g>
 </g>
 <defs>
  <clipPath id="p7b9bca1e40">
   <rect x="57.6" y="41.472" width="357.12" height="266.112"/>
  </clipPath>
 </defs>
</svg>
