<?xml version="1.0" encoding="utf-8" standalone="no"?>
<!DOCTYPE svg PUBLIC "-//W3C//DTD SVG 1.1//EN"
  "http://www.w3.org/Graphics/SVG/1.1/DTD/svg11.dtd">
<svg xmlns:xlink="http://www.w3.org/1999/xlink" width="460.8pt" height="345.6pt" viewBox="0 0 460.8 345.6" xmlns="http://www.w3.org/2000/svg" version="1.1">
 <metadata>
  <rdf:RDF xmlns:dc="http://purl.org/dc/elements/1.1/" xmlns:cc="http://creativecommons.org/ns#" xmlns:rdf="http://www.w3.org/1999/02/22-rdf-syntax-ns#">
   <cc:Work>
    <dc:type rdf:resource="http://purl.org/dc/dcmitype/StillImage"/>
    <dc:date>2022-08-11T15:17:07.807882</dc:date>
    <dc:format>image/svg+xml</dc:format>
    <dc:creator>
     <cc:Agent>
      <dc:title>Matplotlib v3.5.2, https://matplotlib.org/</dc:title>
     </cc:Agent>
    </dc:creator>
   </cc:Work>
  </rdf:RDF>
 </metadata>
 <defs>
  <style type="text/css">*{stroke-linejoin: round; stroke-linecap: butt}</style>
 </defs>
 <g id="figure_1">
  <g id="patch_1">
   <path d="M 0 345.6 
L 460.8 345.6 
L 460.8 0 
L 0 0 
z
" style="fill: #ffffff"/>
  </g>
  <g id="axes_1">
   <g id="patch_2">
    <path d="M 57.6 307.584 
L 414.72 307.584 
L 414.72 41.472 
L 57.6 41.472 
z
" style="fill: #ffffff"/>
   </g>
   <g id="matplotlib.axis_1">
    <g id="xtick_1">
     <g id="line2d_1">
      <defs>
       <path id="m1616f979a8" d="M 0 0 
L 0 3.5 
" style="stroke: #000000; stroke-width: 0.8"/>
      </defs>
      <g>
       <use xlink:href="#m1616f979a8" x="73.832727" y="307.584" style="stroke: #000000; stroke-width: 0.8"/>
      </g>
     </g>
     <g id="text_1">
      <!-- 0 -->
      <g transform="translate(70.651477 322.182437)scale(0.1 -0.1)">
       <defs>
        <path id="DejaVuSans-30" d="M 2034 4250 
Q 1547 4250 1301 3770 
Q 1056 3291 1056 2328 
Q 1056 1369 1301 889 
Q 1547 409 2034 409 
Q 2525 409 2770 889 
Q 3016 1369 3016 2328 
Q 3016 3291 2770 3770 
Q 2525 4250 2034 4250 
z
M 2034 4750 
Q 2819 4750 3233 4129 
Q 3647 3509 3647 2328 
Q 3647 1150 3233 529 
Q 2819 -91 2034 -91 
Q 1250 -91 836 529 
Q 422 1150 422 2328 
Q 422 3509 836 4129 
Q 1250 4750 2034 4750 
z
" transform="scale(0.015625)"/>
       </defs>
       <use xlink:href="#DejaVuSans-30"/>
      </g>
     </g>
    </g>
    <g id="xtick_2">
     <g id="line2d_2">
      <g>
       <use xlink:href="#m1616f979a8" x="137.266597" y="307.584" style="stroke: #000000; stroke-width: 0.8"/>
      </g>
     </g>
     <g id="text_2">
      <!-- 500 -->
      <g transform="translate(127.722847 322.182437)scale(0.1 -0.1)">
       <defs>
        <path id="DejaVuSans-35" d="M 691 4666 
L 3169 4666 
L 3169 4134 
L 1269 4134 
L 1269 2991 
Q 1406 3038 1543 3061 
Q 1681 3084 1819 3084 
Q 2600 3084 3056 2656 
Q 3513 2228 3513 1497 
Q 3513 744 3044 326 
Q 2575 -91 1722 -91 
Q 1428 -91 1123 -41 
Q 819 9 494 109 
L 494 744 
Q 775 591 1075 516 
Q 1375 441 1709 441 
Q 2250 441 2565 725 
Q 2881 1009 2881 1497 
Q 2881 1984 2565 2268 
Q 2250 2553 1709 2553 
Q 1456 2553 1204 2497 
Q 953 2441 691 2322 
L 691 4666 
z
" transform="scale(0.015625)"/>
       </defs>
       <use xlink:href="#DejaVuSans-35"/>
       <use xlink:href="#DejaVuSans-30" x="63.623047"/>
       <use xlink:href="#DejaVuSans-30" x="127.246094"/>
      </g>
     </g>
    </g>
    <g id="xtick_3">
     <g id="line2d_3">
      <g>
       <use xlink:href="#m1616f979a8" x="200.700467" y="307.584" style="stroke: #000000; stroke-width: 0.8"/>
      </g>
     </g>
     <g id="text_3">
      <!-- 1000 -->
      <g transform="translate(187.975467 322.182437)scale(0.1 -0.1)">
       <defs>
        <path id="DejaVuSans-31" d="M 794 531 
L 1825 531 
L 1825 4091 
L 703 3866 
L 703 4441 
L 1819 4666 
L 2450 4666 
L 2450 531 
L 3481 531 
L 3481 0 
L 794 0 
L 794 531 
z
" transform="scale(0.015625)"/>
       </defs>
       <use xlink:href="#DejaVuSans-31"/>
       <use xlink:href="#DejaVuSans-30" x="63.623047"/>
       <use xlink:href="#DejaVuSans-30" x="127.246094"/>
       <use xlink:href="#DejaVuSans-30" x="190.869141"/>
      </g>
     </g>
    </g>
    <g id="xtick_4">
     <g id="line2d_4">
      <g>
       <use xlink:href="#m1616f979a8" x="264.134337" y="307.584" style="stroke: #000000; stroke-width: 0.8"/>
      </g>
     </g>
     <g id="text_4">
      <!-- 1500 -->
      <g transform="translate(251.409337 322.182437)scale(0.1 -0.1)">
       <use xlink:href="#DejaVuSans-31"/>
       <use xlink:href="#DejaVuSans-35" x="63.623047"/>
       <use xlink:href="#DejaVuSans-30" x="127.246094"/>
       <use xlink:href="#DejaVuSans-30" x="190.869141"/>
      </g>
     </g>
    </g>
    <g id="xtick_5">
     <g id="line2d_5">
      <g>
       <use xlink:href="#m1616f979a8" x="327.568206" y="307.584" style="stroke: #000000; stroke-width: 0.8"/>
      </g>
     </g>
     <g id="text_5">
      <!-- 2000 -->
      <g transform="translate(314.843206 322.182437)scale(0.1 -0.1)">
       <defs>
        <path id="DejaVuSans-32" d="M 1228 531 
L 3431 531 
L 3431 0 
L 469 0 
L 469 531 
Q 828 903 1448 1529 
Q 2069 2156 2228 2338 
Q 2531 2678 2651 2914 
Q 2772 3150 2772 3378 
Q 2772 3750 2511 3984 
Q 2250 4219 1831 4219 
Q 1534 4219 1204 4116 
Q 875 4013 500 3803 
L 500 4441 
Q 881 4594 1212 4672 
Q 1544 4750 1819 4750 
Q 2544 4750 2975 4387 
Q 3406 4025 3406 3419 
Q 3406 3131 3298 2873 
Q 3191 2616 2906 2266 
Q 2828 2175 2409 1742 
Q 1991 1309 1228 531 
z
" transform="scale(0.015625)"/>
       </defs>
       <use xlink:href="#DejaVuSans-32"/>
       <use xlink:href="#DejaVuSans-30" x="63.623047"/>
       <use xlink:href="#DejaVuSans-30" x="127.246094"/>
       <use xlink:href="#DejaVuSans-30" x="190.869141"/>
      </g>
     </g>
    </g>
    <g id="xtick_6">
     <g id="line2d_6">
      <g>
       <use xlink:href="#m1616f979a8" x="391.002076" y="307.584" style="stroke: #000000; stroke-width: 0.8"/>
      </g>
     </g>
     <g id="text_6">
      <!-- 2500 -->
      <g transform="translate(378.277076 322.182437)scale(0.1 -0.1)">
       <use xlink:href="#DejaVuSans-32"/>
       <use xlink:href="#DejaVuSans-35" x="63.623047"/>
       <use xlink:href="#DejaVuSans-30" x="127.246094"/>
       <use xlink:href="#DejaVuSans-30" x="190.869141"/>
      </g>
     </g>
    </g>
   </g>
   <g id="matplotlib.axis_2">
    <g id="ytick_1">
     <g id="line2d_7">
      <defs>
       <path id="me7ba555374" d="M 0 0 
L -3.5 0 
" style="stroke: #000000; stroke-width: 0.8"/>
      </defs>
      <g>
       <use xlink:href="#me7ba555374" x="57.6" y="283.320389" style="stroke: #000000; stroke-width: 0.8"/>
      </g>
     </g>
     <g id="text_7">
      <!-- 4000 -->
      <g transform="translate(25.15 287.119608)scale(0.1 -0.1)">
       <defs>
        <path id="DejaVuSans-34" d="M 2419 4116 
L 825 1625 
L 2419 1625 
L 2419 4116 
z
M 2253 4666 
L 3047 4666 
L 3047 1625 
L 3713 1625 
L 3713 1100 
L 3047 1100 
L 3047 0 
L 2419 0 
L 2419 1100 
L 313 1100 
L 313 1709 
L 2253 4666 
z
" transform="scale(0.015625)"/>
       </defs>
       <use xlink:href="#DejaVuSans-34"/>
       <use xlink:href="#DejaVuSans-30" x="63.623047"/>
       <use xlink:href="#DejaVuSans-30" x="127.246094"/>
       <use xlink:href="#DejaVuSans-30" x="190.869141"/>
      </g>
     </g>
    </g>
    <g id="ytick_2">
     <g id="line2d_8">
      <g>
       <use xlink:href="#me7ba555374" x="57.6" y="227.492655" style="stroke: #000000; stroke-width: 0.8"/>
      </g>
     </g>
     <g id="text_8">
      <!-- 4050 -->
      <g transform="translate(25.15 231.291873)scale(0.1 -0.1)">
       <use xlink:href="#DejaVuSans-34"/>
       <use xlink:href="#DejaVuSans-30" x="63.623047"/>
       <use xlink:href="#DejaVuSans-35" x="127.246094"/>
       <use xlink:href="#DejaVuSans-30" x="190.869141"/>
      </g>
     </g>
    </g>
    <g id="ytick_3">
     <g id="line2d_9">
      <g>
       <use xlink:href="#me7ba555374" x="57.6" y="171.66492" style="stroke: #000000; stroke-width: 0.8"/>
      </g>
     </g>
     <g id="text_9">
      <!-- 4100 -->
      <g transform="translate(25.15 175.464139)scale(0.1 -0.1)">
       <use xlink:href="#DejaVuSans-34"/>
       <use xlink:href="#DejaVuSans-31" x="63.623047"/>
       <use xlink:href="#DejaVuSans-30" x="127.246094"/>
       <use xlink:href="#DejaVuSans-30" x="190.869141"/>
      </g>
     </g>
    </g>
    <g id="ytick_4">
     <g id="line2d_10">
      <g>
       <use xlink:href="#me7ba555374" x="57.6" y="115.837186" style="stroke: #000000; stroke-width: 0.8"/>
      </g>
     </g>
     <g id="text_10">
      <!-- 4150 -->
      <g transform="translate(25.15 119.636405)scale(0.1 -0.1)">
       <use xlink:href="#DejaVuSans-34"/>
       <use xlink:href="#DejaVuSans-31" x="63.623047"/>
       <use xlink:href="#DejaVuSans-35" x="127.246094"/>
       <use xlink:href="#DejaVuSans-30" x="190.869141"/>
      </g>
     </g>
    </g>
    <g id="ytick_5">
     <g id="line2d_11">
      <g>
       <use xlink:href="#me7ba555374" x="57.6" y="60.009452" style="stroke: #000000; stroke-width: 0.8"/>
      </g>
     </g>
     <g id="text_11">
      <!-- 4200 -->
      <g transform="translate(25.15 63.808671)scale(0.1 -0.1)">
       <use xlink:href="#DejaVuSans-34"/>
       <use xlink:href="#DejaVuSans-32" x="63.623047"/>
       <use xlink:href="#DejaVuSans-30" x="127.246094"/>
       <use xlink:href="#DejaVuSans-30" x="190.869141"/>
      </g>
     </g>
    </g>
   </g>
   <g id="line2d_12">
    <path d="M 73.832727 140.74486 
L 73.959595 122.851636 
L 74.086463 128.43441 
L 74.21333 144.753118 
L 74.467066 135.877925 
L 74.593934 144.03728 
L 74.720801 143.464827 
L 74.847669 133.587571 
L 75.101405 145.755182 
L 75.35514 135.448314 
L 75.608876 149.763439 
L 75.735743 146.041408 
L 75.989479 148.761375 
L 76.116347 147.473084 
L 76.243214 147.473084 
L 76.370082 147.90215 
L 76.49695 151.910407 
L 76.623818 149.620053 
L 76.750685 140.74486 
L 76.877553 142.033151 
L 77.004421 146.757246 
L 77.258156 138.311666 
L 77.511892 150.049664 
L 77.765627 129.293088 
L 78.019363 143.321441 
L 78.14623 142.892375 
L 78.273098 142.892375 
L 78.653701 148.188377 
L 78.780569 148.331762 
L 78.907437 149.0476 
L 79.161172 140.74486 
L 79.28804 146.900086 
L 79.541776 131.726828 
L 79.668643 136.450378 
L 79.922379 156.204891 
L 80.049247 154.630374 
L 80.42985 132.728892 
L 80.683585 147.043472 
L 80.937321 147.329698 
L 81.064188 148.761375 
L 81.317924 140.458635 
L 81.698527 148.331762 
L 81.825395 145.468955 
L 81.952263 156.491116 
L 82.205998 133.015119 
L 82.332866 131.726828 
L 82.586601 142.319377 
L 82.713469 142.892375 
L 82.840337 144.323505 
L 82.967205 143.464827 
L 83.094072 141.031087 
L 83.22094 134.303408 
L 83.474675 106.675768 
L 83.982146 92.074416 
L 84.109014 91.359123 
L 84.235882 91.501964 
L 84.36275 93.07648 
L 84.616485 91.931576 
L 84.743353 90.786126 
L 84.870221 92.074416 
L 84.997088 99.518478 
L 85.123956 98.802639 
L 85.250824 95.223995 
L 85.631427 117.841315 
L 85.885163 128.148183 
L 86.01203 129.149702 
L 86.138898 126.286895 
L 86.392633 108.536511 
L 86.519501 113.690217 
L 86.773237 103.669575 
L 87.026972 124.998604 
L 87.15384 124.998604 
L 87.407575 129.722699 
L 87.534443 127.861412 
L 87.661311 127.861412 
L 87.788179 128.004797 
L 87.915046 127.28896 
L 88.041914 128.148183 
L 88.168782 131.297216 
L 88.422517 148.045536 
L 88.549385 148.045536 
L 88.676253 148.188377 
L 88.929988 143.464827 
L 89.183724 158.781472 
L 89.437459 139.456571 
L 89.564327 148.331762 
L 89.691195 148.617989 
L 89.94493 142.892375 
L 90.325533 121.41996 
L 90.452401 127.861412 
L 90.579269 124.426152 
L 90.833004 108.536511 
L 91.213608 129.579314 
L 91.467343 121.563345 
L 91.847946 131.583442 
L 91.974814 132.013054 
L 92.101682 131.726828 
L 92.22855 139.599956 
L 92.355417 138.454506 
L 92.609153 123.280702 
L 92.73602 129.86554 
L 92.862888 130.581378 
L 93.116624 122.851636 
L 93.243491 125.428217 
L 93.370359 130.724764 
L 93.497227 131.15383 
L 93.624095 128.577249 
L 93.750962 128.43441 
L 93.87783 129.293088 
L 94.004698 127.432345 
L 94.258433 118.843379 
L 94.512169 139.886182 
L 94.892772 110.397799 
L 95.146508 113.260606 
L 95.273375 113.11722 
L 95.400243 107.534446 
L 95.527111 111.399863 
L 95.780846 128.291024 
L 95.907714 129.293088 
L 96.034582 125.571056 
L 96.288317 107.820672 
L 96.542053 128.004797 
L 96.795788 122.851636 
L 97.049524 131.726828 
L 97.303259 129.722699 
L 97.430127 129.579314 
L 97.556995 126.859347 
L 97.683862 127.432345 
L 97.81073 129.86554 
L 98.064466 104.957866 
L 98.191333 148.904214 
L 98.318201 148.045536 
L 98.445069 149.190441 
L 98.571936 147.473084 
L 98.698804 141.746925 
L 98.825672 143.178601 
L 99.079407 148.904214 
L 99.206275 150.335891 
L 99.333143 150.335891 
L 99.586878 140.888246 
L 99.713746 144.896503 
L 99.967482 125.857283 
L 100.221217 142.605603 
L 100.474953 135.305473 
L 100.728688 142.748989 
L 100.982424 121.133733 
L 101.109291 123.99654 
L 101.236159 134.875862 
L 101.363027 135.591699 
L 101.616762 126.144054 
L 101.870498 134.446249 
L 102.124233 127.861412 
L 102.251101 129.86554 
L 102.377969 134.017183 
L 102.631704 129.006862 
L 102.88544 150.479277 
L 103.139175 142.176537 
L 103.266043 142.462762 
L 103.392911 140.315249 
L 103.519778 143.464827 
L 103.646646 150.908343 
L 103.900382 127.575185 
L 104.027249 130.724764 
L 104.280985 148.475148 
L 104.407852 141.317312 
L 104.53472 142.033151 
L 104.788456 151.624182 
L 105.042191 140.60202 
L 105.549662 127.718571 
L 105.67653 127.861412 
L 105.930265 147.615925 
L 106.057133 141.746925 
L 106.184001 141.174473 
L 106.310869 150.479277 
L 106.691472 146.041408 
L 106.81834 147.043472 
L 106.945207 146.184793 
L 107.072075 143.751053 
L 107.325811 147.186857 
L 107.452678 146.327634 
L 107.579546 146.327634 
L 107.833281 123.137862 
L 107.960149 130.151766 
L 108.213885 151.19457 
L 108.340752 145.32557 
L 108.46762 146.61386 
L 108.594488 144.609732 
L 108.721356 139.026958 
L 108.975091 144.896503 
L 109.228827 123.566929 
L 109.355694 121.706186 
L 109.482562 123.99654 
L 109.736298 133.873797 
L 109.990033 122.135797 
L 110.243769 131.869669 
L 110.497504 123.710315 
L 110.751239 130.581378 
L 110.878107 128.43441 
L 111.004975 130.438537 
L 111.131843 130.438537 
L 111.25871 126.286895 
L 111.512446 136.879989 
L 111.639314 132.29928 
L 111.766181 122.851636 
L 111.893049 123.280702 
L 112.146785 139.599956 
L 112.40052 128.720635 
L 112.654256 133.301344 
L 112.907991 126.859347 
L 113.161727 145.468955 
L 113.288594 142.892375 
L 113.415462 129.149702 
L 113.54233 128.291024 
L 113.796065 153.342084 
L 114.049801 135.877925 
L 114.176668 138.024894 
L 114.303536 142.033151 
L 114.430404 153.628309 
L 114.684139 136.307537 
L 114.811007 147.473084 
L 115.064743 135.305473 
L 115.19161 147.043472 
L 115.318478 141.174473 
L 115.445346 126.573121 
L 115.699081 156.06205 
L 115.952817 141.317312 
L 116.206552 162.217276 
L 116.460288 150.479277 
L 116.714023 148.617989 
L 116.967759 138.024894 
L 117.094626 142.892375 
L 117.221494 140.888246 
L 117.348362 125.14199 
L 117.47523 123.566929 
L 117.602097 135.734539 
L 117.728965 133.730956 
L 117.855833 124.998604 
L 118.109568 147.186857 
L 118.363304 132.155894 
L 118.490172 132.871733 
L 118.617039 131.726828 
L 118.870775 127.575185 
L 119.12451 129.86554 
L 119.251378 131.583442 
L 119.505114 143.035216 
L 119.758849 121.992412 
L 120.012584 131.440056 
L 120.139452 131.297216 
L 120.26632 130.438537 
L 120.520055 141.746925 
L 120.773791 126.859347 
L 120.900659 128.577249 
L 121.027526 124.568992 
L 121.154394 124.139926 
L 121.281262 133.015119 
L 121.534997 129.293088 
L 121.661865 140.172408 
L 121.788733 141.460698 
L 122.042468 124.998604 
L 122.169336 137.166216 
L 122.296204 136.879989 
L 122.423072 125.284831 
L 122.549939 155.775279 
L 122.676807 145.468955 
L 122.930542 151.337955 
L 123.184278 139.31373 
L 123.438013 155.059986 
L 123.564881 152.053793 
L 123.945484 125.284831 
L 124.072352 109.252349 
L 124.19922 108.536511 
L 124.326088 111.399863 
L 124.579823 99.804704 
L 124.833559 89.784062 
L 125.087294 104.957866 
L 125.34103 85.919191 
L 125.594765 113.11722 
L 125.721633 111.686089 
L 125.975368 107.24822 
L 126.102236 111.686089 
L 126.355971 130.295151 
L 126.482839 132.29928 
L 126.609707 124.712378 
L 126.736575 109.538575 
L 126.863442 109.681961 
L 126.99031 127.28896 
L 127.117178 126.144054 
L 127.244046 107.534446 
L 127.370913 105.387477 
L 127.624649 132.585506 
L 127.751517 130.438537 
L 127.878384 126.000669 
L 128.13212 140.888246 
L 128.385855 127.146119 
L 128.766458 146.900086 
L 128.893326 143.464827 
L 129.020194 136.450378 
L 129.147062 139.026958 
L 129.273929 147.615925 
L 129.527665 142.176537 
L 129.7814 154.773214 
L 130.035136 136.164151 
L 130.288871 149.0476 
L 130.669475 135.734539 
L 130.796342 128.148183 
L 131.050078 131.583442 
L 131.430681 111.686089 
L 131.557549 111.686089 
L 131.938152 147.473084 
L 132.06502 141.89031 
L 132.191887 142.462762 
L 132.445623 151.767566 
L 132.699358 138.454506 
L 132.953094 150.908343 
L 133.206829 127.718571 
L 133.460565 148.475148 
L 133.7143 139.456571 
L 134.094904 176.388743 
L 134.348639 164.793856 
L 134.602375 183.259806 
L 134.85611 161.071826 
L 134.982978 175.243565 
L 135.109845 175.959403 
L 135.236713 167.94289 
L 135.363581 167.94289 
L 135.490449 166.082147 
L 135.871052 150.479277 
L 135.99792 147.615925 
L 136.124787 150.479277 
L 136.251655 150.335891 
L 136.378523 148.475148 
L 136.505391 150.335891 
L 136.632258 148.904214 
L 136.759126 145.755182 
L 137.139729 148.904214 
L 137.266597 145.32557 
L 137.393465 149.906279 
L 137.520333 161.644824 
L 137.774068 150.908343 
L 137.900936 159.640695 
L 138.154671 145.611796 
L 138.281539 159.211083 
L 138.408407 158.924857 
L 138.535274 137.882053 
L 138.662142 136.736603 
L 138.78901 147.90215 
L 139.042745 131.869669 
L 139.169613 134.875862 
L 139.423349 147.186857 
L 139.550216 146.184793 
L 139.677084 149.477212 
L 140.057687 129.579314 
L 140.184555 133.444185 
L 140.311423 132.29928 
L 140.438291 128.004797 
L 140.565158 131.583442 
L 140.818894 149.333827 
L 140.945761 144.896503 
L 141.072629 146.327634 
L 141.199497 145.468955 
L 141.453232 128.43441 
L 141.5801 128.004797 
L 141.706968 131.297216 
L 141.833836 139.170344 
L 141.960703 137.02283 
L 142.087571 124.139926 
L 142.214439 125.857283 
L 142.468174 145.039344 
L 142.72191 138.740732 
L 142.975645 143.894439 
L 143.102513 138.024894 
L 143.229381 142.462762 
L 143.356249 151.19457 
L 143.483116 150.622118 
L 143.609984 146.900086 
L 143.736852 146.757246 
L 143.863719 147.186857 
L 143.990587 149.763439 
L 144.117455 148.904214 
L 144.244323 149.477212 
L 144.37119 158.209018 
L 144.498058 157.493181 
L 144.751794 144.896503 
L 144.878661 143.321441 
L 145.005529 144.323505 
L 145.132397 149.333827 
L 145.259265 145.898023 
L 145.513 129.722699 
L 145.639868 129.293088 
L 145.766736 131.869669 
L 145.893603 131.869669 
L 146.147339 122.135797 
L 146.401074 124.855764 
L 146.527942 127.146119 
L 146.781678 122.994476 
L 146.908545 133.587571 
L 147.035413 129.149702 
L 147.162281 131.869669 
L 147.416016 127.146119 
L 147.542884 131.869669 
L 147.796619 126.144054 
L 147.923487 128.291024 
L 148.177223 123.853699 
L 148.30409 123.137862 
L 148.430958 117.268863 
L 148.557826 120.704122 
L 148.684694 132.585506 
L 148.811561 131.869669 
L 148.938429 129.006862 
L 149.065297 135.448314 
L 149.319032 126.573121 
L 149.572768 130.295151 
L 149.699636 130.438537 
L 149.953371 112.115156 
L 150.207106 131.15383 
L 150.460842 135.019246 
L 150.58771 137.166216 
L 150.841445 146.757246 
L 150.968313 138.024894 
L 151.095181 138.740732 
L 151.222048 151.480796 
L 151.475784 127.28896 
L 151.602652 129.149702 
L 151.729519 133.301344 
L 151.856387 132.585506 
L 152.110123 138.024894 
L 152.363858 126.573121 
L 152.617594 148.475148 
L 152.871329 123.137862 
L 153.125064 148.761375 
L 153.251932 142.033151 
L 153.3788 129.149702 
L 153.632535 145.755182 
L 153.886271 137.452442 
L 154.013139 135.448314 
L 154.140006 130.581378 
L 154.393742 146.327634 
L 154.52061 139.456571 
L 154.647477 143.464827 
L 154.774345 152.626245 
L 155.028081 146.47102 
L 155.281816 124.998604 
L 155.535552 150.192505 
L 155.662419 147.90215 
L 155.789287 148.188377 
L 156.043022 125.428217 
L 156.16989 127.861412 
L 156.296758 133.444185 
L 156.550493 127.002733 
L 156.804229 141.317312 
L 157.057964 120.417895 
L 157.3117 150.049664 
L 157.438568 148.617989 
L 157.565435 145.898023 
L 157.692303 150.622118 
L 157.819171 142.462762 
L 157.946039 125.857283 
L 158.072906 129.293088 
L 158.199774 140.172408 
L 158.45351 125.714442 
L 158.834113 143.035216 
L 159.087848 138.597892 
L 159.341584 148.761375 
L 159.468451 141.604084 
L 159.595319 144.753118 
L 159.722187 152.769631 
L 159.849055 147.90215 
L 159.975922 147.75931 
L 160.10279 156.348277 
L 160.229658 150.765503 
L 160.483393 129.436473 
L 160.610261 131.583442 
L 161.117732 151.337955 
L 161.371468 131.01099 
L 162.005806 146.900086 
L 162.132674 145.468955 
L 162.259542 149.477212 
L 162.386409 144.753118 
L 162.513277 133.873797 
L 162.640145 137.595828 
L 162.767013 151.624182 
L 162.89388 150.622118 
L 163.020748 136.736603 
L 163.147616 190.417369 
L 163.274484 179.251822 
L 163.528219 181.828403 
L 163.655087 175.673178 
L 163.781955 175.100724 
L 164.03569 202.012255 
L 164.162558 201.439803 
L 164.796897 173.81189 
L 165.050632 175.243565 
L 165.1775 176.674969 
L 165.304367 172.237372 
L 165.431235 174.09866 
L 165.684971 192.564611 
L 165.938706 158.065633 
L 166.192442 194.998078 
L 166.446177 180.540112 
L 166.953648 224.772961 
L 167.080516 222.625719 
L 167.334251 208.167754 
L 167.461119 212.462236 
L 167.587987 225.918138 
L 167.714855 225.918138 
L 167.96859 205.734285 
L 168.349193 229.78301 
L 168.476061 228.065379 
L 168.856664 246.53133 
L 169.1104 244.097862 
L 169.237267 249.107911 
L 169.364135 260.273457 
L 169.491003 261.132408 
L 169.617871 256.265473 
L 169.871606 276.449325 
L 170.125342 260.703069 
L 170.379077 274.874536 
L 170.632813 260.989295 
L 170.886548 267.860359 
L 171.140283 243.525137 
L 171.267151 292.195581 
L 171.520887 279.312132 
L 171.647754 283.749728 
L 172.028358 276.449325 
L 172.155225 275.590374 
L 172.282093 277.737615 
L 172.408961 282.747664 
L 172.535829 282.461438 
L 172.789564 268.576197 
L 173.0433 283.893113 
L 173.170167 281.31626 
L 173.297035 276.306212 
L 173.550771 280.027971 
L 173.677638 277.594502 
L 173.804506 278.73968 
L 173.931374 283.320389 
L 174.058242 280.171083 
L 174.311977 263.995488 
L 174.69258 284.17934 
L 174.819448 278.166954 
L 174.946316 281.745873 
L 175.073183 294.199709 
L 175.200051 295.488 
L 175.326919 283.893113 
L 175.453787 284.322453 
L 175.580654 291.909355 
L 175.83439 275.590374 
L 175.961258 277.451389 
L 176.468729 248.392345 
L 176.595596 243.811636 
L 176.849332 253.116167 
L 176.9762 249.39441 
L 177.103067 254.977183 
L 177.229935 247.81962 
L 177.356803 232.502704 
L 177.610538 235.365783 
L 177.864274 214.322979 
L 177.991141 214.752592 
L 178.118009 216.613334 
L 178.244877 215.754383 
L 178.498612 220.478478 
L 178.752348 207.738142 
L 178.879216 216.040881 
L 179.006083 213.03469 
L 179.259819 192.707723 
L 179.386687 119.845443 
L 179.513554 120.704122 
L 179.76729 110.111027 
L 179.894158 112.401382 
L 180.021025 112.401382 
L 180.147893 110.826865 
L 180.274761 112.115156 
L 180.401628 111.542704 
L 180.528496 110.111027 
L 180.782232 113.976443 
L 181.162835 110.540639 
L 181.41657 112.974379 
L 181.924041 108.536511 
L 182.050909 109.108963 
L 182.177777 106.818609 
L 182.304645 111.542704 
L 182.431512 123.280702 
L 182.55838 117.984156 
L 182.685248 104.957866 
L 182.938983 130.581378 
L 183.192719 110.684025 
L 183.319586 111.113091 
L 183.446454 113.11722 
L 183.573322 112.830993 
L 183.70019 110.254413 
L 183.827057 114.26267 
L 184.080793 129.436473 
L 184.207661 127.002733 
L 184.334528 130.295151 
L 184.461396 124.568992 
L 184.588264 109.968186 
L 184.715132 108.966122 
L 184.968867 122.70825 
L 185.095735 120.131669 
L 185.34947 128.577249 
L 185.603206 115.121348 
L 185.856941 128.148183 
L 186.110677 111.113091 
L 186.237544 111.542704 
L 186.364412 115.6938 
L 186.49128 114.835122 
L 186.618148 110.397799 
L 186.745015 110.397799 
L 186.998751 113.833058 
L 187.125619 113.403445 
L 187.252486 110.254413 
L 187.379354 111.686089 
L 187.506222 105.387477 
L 187.63309 108.536511 
L 187.759957 114.548895 
L 188.013693 95.223995 
L 188.140561 98.230187 
L 188.267428 98.230187 
L 188.521164 111.542704 
L 188.774899 102.810897 
L 188.901767 103.239963 
L 189.028635 98.373028 
L 189.155503 102.667511 
L 189.28237 111.686089 
L 189.409238 108.39367 
L 189.536106 109.108963 
L 189.662973 116.982636 
L 189.916709 101.808832 
L 190.170444 111.256477 
L 190.297312 106.675768 
L 190.551048 92.074416 
L 190.677915 94.794383 
L 190.931651 109.968186 
L 191.185386 110.397799 
L 191.439122 115.837186 
L 191.56599 108.679896 
L 191.819725 121.563345 
L 192.073461 107.105379 
L 192.200328 107.820672 
L 192.454064 118.413767 
L 192.580931 117.268863 
L 192.834667 112.401382 
L 192.961535 113.260606 
L 193.21527 123.280702 
L 193.342138 114.40551 
L 193.469006 113.403445 
L 193.595873 114.548895 
L 193.722741 111.828929 
L 193.976477 114.548895 
L 194.103344 113.833058 
L 194.230212 114.835122 
L 194.35708 113.976443 
L 194.610815 109.538575 
L 194.737683 112.544768 
L 194.864551 125.284831 
L 194.991419 124.855764 
L 195.118286 113.690217 
L 195.245154 118.699993 
L 195.372022 130.867604 
L 195.498889 128.720635 
L 195.625757 130.581378 
L 195.752625 125.14199 
L 195.879493 125.428217 
L 196.00636 130.438537 
L 196.260096 125.284831 
L 196.386964 128.291024 
L 196.513831 127.575185 
L 196.640699 125.428217 
L 196.894435 130.867604 
L 197.14817 127.718571 
L 197.401906 132.728892 
L 197.655641 129.293088 
L 198.036244 128.148183 
L 198.28998 129.006862 
L 198.416847 128.577249 
L 198.670583 125.571056 
L 198.797451 129.006862 
L 198.924318 128.577249 
L 199.051186 126.286895 
L 199.431789 128.720635 
L 199.558657 128.148183 
L 199.812393 123.710315 
L 199.93926 125.571056 
L 200.066128 125.714442 
L 200.319864 130.151766 
L 200.573599 123.99654 
L 200.700467 128.148183 
L 200.954202 112.688153 
L 201.207938 124.855764 
L 201.334805 114.691736 
L 201.461673 118.699993 
L 201.588541 129.579314 
L 201.715409 129.006862 
L 201.969144 126.573121 
L 202.096012 121.849572 
L 202.22288 121.563345 
L 202.476615 128.43441 
L 202.603483 127.861412 
L 202.730351 126.716506 
L 202.857218 127.718571 
L 202.984086 127.718571 
L 203.110954 127.28896 
L 203.237822 126.430281 
L 203.364689 127.432345 
L 203.491557 129.579314 
L 203.618425 127.575185 
L 203.745293 127.861412 
L 203.999028 112.974379 
L 204.125896 118.413767 
L 204.379631 113.11722 
L 204.633367 126.144054 
L 204.760234 122.851636 
L 205.01397 114.548895 
L 205.140838 113.976443 
L 205.394573 93.07648 
L 205.648309 98.659254 
L 205.902044 91.215737 
L 206.15578 95.510221 
L 206.282647 95.080609 
L 206.536383 91.501964 
L 206.790118 98.230187 
L 207.170722 96.512285 
L 207.297589 100.520543 
L 207.551325 111.972315 
L 207.678192 108.822736 
L 207.931928 110.540639 
L 208.058796 107.391606 
L 208.312531 111.113091 
L 208.566267 106.246156 
L 208.820002 113.403445 
L 208.94687 112.974379 
L 209.200605 116.982636 
L 209.327473 115.55096 
L 209.454341 112.258541 
L 209.581209 114.26267 
L 209.834944 124.855764 
L 210.08868 126.144054 
L 210.215547 126.286895 
L 210.469283 128.43441 
L 210.59615 127.146119 
L 210.723018 127.432345 
L 210.976754 131.440056 
L 211.230489 128.148183 
L 211.611092 130.581378 
L 211.864828 128.863476 
L 211.991696 126.573121 
L 212.118563 120.27451 
L 212.245431 120.27451 
L 212.372299 122.135797 
L 212.626034 114.548895 
L 212.87977 124.282767 
L 213.133505 129.86554 
L 213.387241 126.286895 
L 213.640976 130.438537 
L 213.894712 128.004797 
L 214.148447 133.873797 
L 214.402183 128.863476 
L 214.655918 132.29928 
L 214.782786 130.724764 
L 214.909654 132.013054 
L 215.163389 146.61386 
L 215.417125 145.039344 
L 215.67086 147.473084 
L 215.797728 146.757246 
L 215.924596 144.753118 
L 216.051463 145.755182 
L 216.178331 148.475148 
L 216.305199 148.475148 
L 216.685802 146.041408 
L 216.81267 146.184793 
L 216.939537 147.615925 
L 217.066405 146.47102 
L 217.193273 144.03728 
L 217.447008 148.904214 
L 217.573876 147.043472 
L 217.700744 147.473084 
L 217.827612 151.19457 
L 218.081347 142.319377 
L 218.335083 155.346212 
L 218.46195 148.617989 
L 218.588818 148.904214 
L 218.715686 158.065633 
L 218.842554 158.352404 
L 218.969421 157.35034 
L 219.096289 158.781472 
L 219.223157 153.628309 
L 219.350025 153.198698 
L 219.476892 163.648406 
L 219.60376 164.936697 
L 219.984363 132.442121 
L 220.111231 138.16828 
L 220.364966 131.869669 
L 220.491834 131.297216 
L 220.618702 133.015119 
L 220.872437 144.03728 
L 221.126173 127.575185 
L 221.253041 130.724764 
L 221.379908 130.008926 
L 221.506776 131.297216 
L 221.633644 130.724764 
L 221.760512 128.148183 
L 222.014247 141.031087 
L 222.267983 129.722699 
L 222.39485 134.017183 
L 222.521718 133.157958 
L 222.775453 126.716506 
L 222.902321 126.573121 
L 223.156057 132.013054 
L 223.409792 125.571056 
L 223.663528 132.155894 
L 223.917263 130.438537 
L 224.170999 136.879989 
L 224.424734 128.004797 
L 224.67847 146.327634 
L 224.932205 139.170344 
L 225.059073 138.740732 
L 225.185941 131.15383 
L 225.312808 132.585506 
L 225.439676 143.894439 
L 225.566544 143.751053 
L 225.693411 132.585506 
L 225.820279 133.015119 
L 225.947147 138.024894 
L 226.200882 133.157958 
L 226.454618 141.89031 
L 226.835221 129.006862 
L 227.088957 131.583442 
L 227.215824 128.863476 
L 227.46956 128.577249 
L 227.723295 132.29928 
L 227.850163 128.863476 
L 227.977031 129.86554 
L 228.357634 124.855764 
L 228.484502 122.135797 
L 228.738237 130.008926 
L 228.991973 127.002733 
L 229.11884 127.28896 
L 229.245708 126.716506 
L 229.372576 128.004797 
L 229.626311 116.553024 
L 229.880047 131.297216 
L 230.006915 127.718571 
L 230.133782 128.863476 
L 230.26065 134.160023 
L 230.514386 120.990347 
L 230.768121 128.148183 
L 231.148724 115.55096 
L 231.40246 127.861412 
L 231.529328 127.575185 
L 231.656195 128.148183 
L 232.036798 132.29928 
L 232.417402 131.01099 
L 232.671137 129.006862 
L 232.924873 129.293088 
L 233.432344 131.297216 
L 233.559211 128.148183 
L 233.812947 138.740732 
L 234.066682 129.86554 
L 234.320418 134.589635 
L 234.574153 128.577249 
L 234.701021 130.151766 
L 234.827889 136.593764 
L 234.954756 135.734539 
L 235.208492 126.716506 
L 235.462227 131.583442 
L 235.589095 132.013054 
L 235.715963 134.160023 
L 235.969698 133.157958 
L 236.096566 138.024894 
L 236.223434 153.342084 
L 236.477169 137.738668 
L 236.604037 148.331762 
L 236.730905 147.473084 
L 236.857773 134.160023 
L 236.98464 132.871733 
L 237.111508 134.732476 
L 237.238376 124.855764 
L 237.365244 127.432345 
L 237.492111 145.039344 
L 237.618979 143.178601 
L 237.745847 130.295151 
L 237.999582 154.9166 
L 238.253318 127.575185 
L 238.507053 166.082147 
L 238.633921 155.059986 
L 238.760789 159.497309 
L 238.887656 180.540112 
L 239.014524 179.108709 
L 239.26826 156.204891 
L 239.521995 167.084211 
L 239.648863 159.640695 
L 239.775731 161.501438 
L 239.902598 166.368374 
L 240.283202 141.317312 
L 240.536937 170.949083 
L 240.790672 155.775279 
L 240.91754 166.368374 
L 241.171276 163.935178 
L 241.298143 173.81189 
L 241.678747 126.000669 
L 242.05935 138.311666 
L 242.313085 166.940826 
L 242.439953 165.509695 
L 242.693689 153.055857 
L 242.820556 151.767566 
L 242.947424 155.489052 
L 243.074292 155.632438 
L 243.20116 146.327634 
L 243.328027 146.327634 
L 243.454895 160.7856 
L 243.581763 159.926922 
L 243.708631 145.755182 
L 243.835498 148.904214 
L 244.089234 169.23118 
L 244.216101 157.493181 
L 244.342969 157.779407 
L 244.469837 145.755182 
L 244.596705 147.90215 
L 244.723572 142.892375 
L 244.85044 131.583442 
L 244.977308 141.604084 
L 245.231043 186.552225 
L 245.484779 160.928986 
L 245.611647 160.642759 
L 245.99225 110.970251 
L 246.119118 113.260606 
L 246.245985 110.970251 
L 246.372853 113.833058 
L 246.626589 108.536511 
L 246.880324 136.593764 
L 247.134059 108.966122 
L 247.387795 129.293088 
L 247.514663 129.149702 
L 247.64153 128.43441 
L 247.768398 131.440056 
L 248.149001 151.19457 
L 248.275869 148.904214 
L 248.529605 128.43441 
L 248.78334 145.898023 
L 248.910208 139.886182 
L 249.163943 120.990347 
L 249.290811 126.716506 
L 249.544547 151.337955 
L 249.671414 146.184793 
L 249.92515 150.049664 
L 250.052017 146.327634 
L 250.178885 146.900086 
L 250.305753 148.045536 
L 250.432621 146.041408 
L 250.813224 162.646343 
L 250.940092 163.648406 
L 251.066959 168.086276 
L 251.193827 166.511759 
L 251.320695 162.07389 
L 251.57443 169.08834 
L 251.828166 142.892375 
L 252.335637 152.34002 
L 252.462505 166.511759 
L 252.71624 145.755182 
L 252.843108 149.190441 
L 253.096843 130.295151 
L 253.350579 144.03728 
L 253.477446 141.174473 
L 253.604314 144.466891 
L 253.731182 142.605603 
L 253.984917 124.139926 
L 254.365521 167.800049 
L 254.492388 159.926922 
L 254.746124 171.66492 
L 254.999859 143.321441 
L 255.253595 147.615925 
L 255.50733 124.139926 
L 255.761066 143.894439 
L 255.887933 142.605603 
L 256.014801 138.454506 
L 256.395404 160.642759 
L 256.64914 142.033151 
L 256.776008 152.482859 
L 256.902875 151.624182 
L 257.283479 127.28896 
L 257.410346 128.720635 
L 257.664082 146.041408 
L 257.79095 150.479277 
L 258.044685 167.227597 
L 258.171553 159.353924 
L 258.298421 165.080083 
L 258.425288 162.646343 
L 258.552156 148.045536 
L 258.679024 149.190441 
L 258.805892 159.497309 
L 258.932759 157.779407 
L 259.059627 151.051729 
L 259.186495 154.630374 
L 259.313362 162.646343 
L 259.44023 161.644824 
L 259.567098 162.217276 
L 259.693966 168.658728 
L 259.947701 148.475148 
L 260.074569 162.503502 
L 260.201437 160.213147 
L 260.455172 123.99654 
L 260.58204 169.08834 
L 260.708908 165.652535 
L 261.089511 147.473084 
L 261.216379 145.039344 
L 261.470114 160.213147 
L 261.596982 148.617989 
L 261.72385 147.90215 
L 261.850717 154.057922 
L 262.23132 141.174473 
L 262.358188 144.03728 
L 262.611924 164.078018 
L 262.992527 147.90215 
L 263.246262 132.871733 
L 263.37313 136.02131 
L 263.626866 160.213147 
L 263.753733 151.910407 
L 263.880601 132.155894 
L 264.007469 138.311666 
L 264.134337 154.057922 
L 264.388072 145.18273 
L 264.641808 161.644824 
L 264.895543 146.184793 
L 265.149278 169.517951 
L 265.403014 164.936697 
L 265.529882 167.94289 
L 265.910485 159.353924 
L 266.037353 164.078018 
L 266.16422 162.503502 
L 266.291088 156.204891 
L 266.544824 167.513824 
L 266.798559 158.781472 
L 266.925427 164.936697 
L 267.179162 146.041408 
L 267.30603 146.184793 
L 267.432898 143.607668 
L 267.686633 133.587571 
L 267.940369 126.859347 
L 268.067236 132.585506 
L 268.320972 162.503502 
L 268.44784 163.362181 
L 268.574707 155.489052 
L 268.701575 112.830993 
L 268.828443 110.397799 
L 268.955311 114.119284 
L 269.082178 97.51435 
L 269.209046 97.800575 
L 269.335914 116.982636 
L 269.462782 113.403445 
L 269.589649 113.690217 
L 269.716517 126.859347 
L 269.970253 106.818609 
L 270.09712 115.837186 
L 270.350856 90.929512 
L 270.731459 111.256477 
L 270.858327 114.40551 
L 270.985195 113.260606 
L 271.112062 107.820672 
L 271.23893 109.968186 
L 271.365798 109.968186 
L 271.619533 89.354996 
L 271.746401 92.647414 
L 272.000136 113.833058 
L 272.127004 109.968186 
L 272.253872 116.553024 
L 272.507607 134.446249 
L 272.634475 131.869669 
L 272.761343 126.859347 
L 272.888211 133.444185 
L 273.015078 146.757246 
L 273.141946 146.61386 
L 273.649417 122.70825 
L 273.776285 124.568992 
L 273.903153 131.726828 
L 274.156888 112.544768 
L 274.410623 135.591699 
L 274.664359 126.716506 
L 274.791227 131.440056 
L 275.044962 142.748989 
L 275.298698 120.704122 
L 275.552433 130.295151 
L 275.679301 130.295151 
L 275.806169 129.006862 
L 275.933036 124.712378 
L 276.059904 127.718571 
L 276.186772 127.432345 
L 276.31364 119.845443 
L 276.440507 122.422024 
L 276.567375 133.444185 
L 276.694243 131.15383 
L 276.821111 167.800049 
L 277.074846 144.466891 
L 277.328581 166.225533 
L 277.455449 159.211083 
L 277.582317 163.075954 
L 277.709185 156.920729 
L 277.836052 144.03728 
L 278.089788 169.517951 
L 278.343523 153.628309 
L 278.597259 171.66492 
L 278.850994 155.775279 
L 279.10473 190.274256 
L 279.231598 177.677033 
L 279.358465 179.967388 
L 279.485333 197.431546 
L 279.612201 193.137063 
L 279.865936 173.81189 
L 279.992804 179.967388 
L 280.119672 174.957339 
L 280.246539 161.644824 
L 280.373407 164.507631 
L 280.500275 175.959403 
L 280.627143 172.094533 
L 280.75401 160.499374 
L 280.880878 161.358052 
L 281.134614 183.832532 
L 281.388349 172.237372 
L 281.642085 187.697403 
L 281.768952 190.703596 
L 281.89582 197.431546 
L 282.022688 187.268063 
L 282.276423 162.646343 
L 282.403291 162.789729 
L 282.530159 161.501438 
L 282.657027 164.364245 
L 283.03763 197.574659 
L 283.291365 180.397 
L 283.418233 181.112565 
L 283.798836 180.683225 
L 283.925704 178.679097 
L 284.179439 186.409112 
L 284.306307 173.525663 
L 284.433175 173.955276 
L 284.560043 191.991886 
L 284.68691 191.419434 
L 284.813778 171.808306 
L 284.940646 217.329172 
L 285.194381 203.87327 
L 285.321249 202.155368 
L 285.448117 204.159497 
L 285.574985 212.891576 
L 285.82872 244.956813 
L 285.955588 240.232718 
L 286.209323 219.762639 
L 286.336191 212.891576 
L 286.589926 180.969452 
L 286.716794 181.255951 
L 286.843662 180.826339 
L 286.97053 182.544241 
L 287.224265 178.82221 
L 287.478001 202.58498 
L 287.731736 172.094533 
L 287.985472 191.991886 
L 288.112339 191.705659 
L 288.366075 193.709788 
L 288.492943 198.86295 
L 288.746678 222.196108 
L 288.873546 216.183995 
L 289.127281 195.857029 
L 289.254149 200.151512 
L 289.381017 208.883319 
L 289.507884 201.439803 
L 289.76162 174.813953 
L 289.888488 181.68529 
L 290.142223 217.329172 
L 290.269091 212.175737 
L 290.395959 211.889512 
L 290.522826 212.748463 
L 290.776562 197.431546 
L 291.030297 208.024641 
L 291.157165 208.740206 
L 291.664636 227.492655 
L 291.918372 205.161561 
L 292.172107 216.040881 
L 292.425842 190.560483 
L 292.55271 194.998078 
L 292.679578 194.854965 
L 292.933313 182.830467 
L 293.187049 127.002733 
L 293.313917 127.002733 
L 293.440784 124.426152 
L 293.69452 110.111027 
L 293.821388 114.978508 
L 294.075123 110.397799 
L 294.328859 123.710315 
L 294.582594 104.815025 
L 294.709462 111.542704 
L 294.963197 133.444185 
L 295.090065 127.146119 
L 295.216933 129.722699 
L 295.3438 137.166216 
L 295.470668 131.15383 
L 295.724404 114.691736 
L 295.851271 114.26267 
L 295.978139 112.688153 
L 296.105007 108.966122 
L 296.358742 120.847508 
L 296.612478 110.111027 
L 296.866213 135.734539 
L 296.993081 135.162087 
L 297.246817 114.548895 
L 297.373684 131.297216 
L 297.500552 127.861412 
L 297.62742 109.968186 
L 297.754288 110.684025 
L 297.881155 108.250284 
L 298.134891 89.927448 
L 298.642362 117.555088 
L 298.769229 111.828929 
L 298.896097 115.121348 
L 299.022965 115.121348 
L 299.149833 107.391606 
L 299.2767 106.961994 
L 299.403568 112.115156 
L 299.530436 112.115156 
L 299.657304 103.812961 
L 299.784171 104.099187 
L 299.911039 114.548895 
L 300.164775 96.655125 
L 300.291642 110.397799 
L 300.41851 107.677832 
L 300.545378 91.788191 
L 300.672246 100.663382 
L 300.799113 99.088866 
L 301.052849 69.028029 
L 301.179717 196.715708 
L 301.306584 199.292561 
L 301.56032 192.850837 
L 301.814055 186.122886 
L 302.067791 196.143256 
L 302.321526 181.255951 
L 302.448394 182.830467 
L 302.575262 181.542176 
L 302.702129 177.677033 
L 302.955865 181.542176 
L 303.2096 189.558418 
L 303.336468 184.118758 
L 303.463336 184.548369 
L 303.590204 190.131143 
L 303.843939 166.368374 
L 303.970807 170.37663 
L 304.224542 195.57053 
L 304.35141 194.854965 
L 304.478278 178.106645 
L 304.605145 177.247694 
L 304.732013 185.407048 
L 304.985749 171.66492 
L 305.239484 176.531856 
L 305.49322 172.523599 
L 305.873823 191.562547 
L 306.508162 174.09866 
L 306.761897 181.828403 
L 306.888765 177.390807 
L 307.1425 187.268063 
L 307.396236 174.671113 
L 307.523103 183.116694 
L 307.649971 178.82221 
L 307.903707 158.495245 
L 308.030574 155.059986 
L 308.411178 139.599956 
L 308.538045 138.16828 
L 308.664913 142.319377 
L 309.045516 163.791792 
L 309.172384 159.067697 
L 309.42612 143.464827 
L 309.552987 147.75931 
L 309.806723 125.857283 
L 309.933591 132.442121 
L 310.187326 131.440056 
L 310.314194 135.448314 
L 310.821665 111.256477 
L 310.948532 111.686089 
L 311.0754 126.000669 
L 311.202268 124.998604 
L 311.329136 121.133733 
L 311.456003 128.577249 
L 311.709739 113.690217 
L 311.836607 123.710315 
L 311.963474 124.282767 
L 312.21721 99.947545 
L 312.344078 98.516414 
L 313.105284 147.186857 
L 313.232152 148.331762 
L 313.35902 136.450378 
L 313.612755 157.35034 
L 313.86649 142.462762 
L 313.993358 143.607668 
L 314.247094 136.736603 
L 314.500829 150.192505 
L 314.754565 129.436473 
L 315.0083 153.628309 
L 315.262036 138.16828 
L 315.642639 144.609732 
L 315.896374 129.149702 
L 316.15011 145.039344 
L 316.276978 141.317312 
L 316.530713 132.585506 
L 316.657581 139.456571 
L 316.784448 136.879989 
L 316.911316 127.146119 
L 317.165052 147.329698 
L 317.291919 143.751053 
L 317.418787 165.652535 
L 317.672523 138.884118 
L 317.79939 150.335891 
L 317.926258 148.617989 
L 318.053126 141.746925 
L 318.179994 147.615925 
L 318.306861 145.18273 
L 318.433729 136.02131 
L 318.687465 169.660792 
L 318.814332 166.082147 
L 318.9412 157.06357 
L 319.194936 183.259806 
L 319.448671 159.783536 
L 319.702406 194.854965 
L 319.829274 180.683225 
L 319.956142 188.842579 
L 320.08301 213.320915 
L 320.209877 211.317059 
L 320.336745 195.857029 
L 320.463613 194.711852 
L 320.590481 197.431546 
L 320.971084 178.679097 
L 321.097952 184.404984 
L 321.224819 182.687354 
L 321.478555 164.364245 
L 321.73229 193.280176 
L 321.986026 179.538049 
L 322.112894 190.131143 
L 322.239761 187.411176 
L 322.366629 188.556354 
L 322.493497 194.854965 
L 322.747232 153.77115 
L 323.000968 159.211083 
L 323.127835 156.777343 
L 323.254703 158.924857 
L 323.635306 189.272192 
L 324.01591 174.241501 
L 324.142777 173.669049 
L 324.269645 180.110773 
L 324.523381 171.951147 
L 324.650248 183.116694 
L 324.777116 182.257743 
L 324.903984 163.362181 
L 325.030852 163.075954 
L 325.284587 186.981838 
L 325.792058 147.473084 
L 325.918926 147.043472 
L 326.172661 137.452442 
L 326.426397 176.102244 
L 326.680132 148.617989 
L 326.807 150.622118 
L 326.933868 140.315249 
L 327.187603 106.532382 
L 327.314471 112.544768 
L 327.695074 100.949609 
L 327.821942 90.786126 
L 328.075677 120.417895 
L 328.329413 93.792319 
L 328.583148 113.690217 
L 328.710016 107.677832 
L 329.090619 124.855764 
L 329.344355 138.311666 
L 329.59809 127.002733 
L 329.724958 118.699993 
L 329.851826 118.986219 
L 329.978693 131.15383 
L 330.105561 128.720635 
L 330.232429 110.111027 
L 330.359297 108.250284 
L 330.613032 147.75931 
L 330.7399 141.460698 
L 330.866768 129.149702 
L 331.120503 133.015119 
L 331.374239 125.714442 
L 331.501106 128.148183 
L 331.627974 127.28896 
L 331.881709 146.61386 
L 332.008577 146.327634 
L 332.135445 146.61386 
L 332.262313 153.198698 
L 332.516048 151.910407 
L 332.769784 169.23118 
L 333.023519 142.605603 
L 333.277255 145.468955 
L 333.404122 145.32557 
L 333.53099 149.0476 
L 333.784726 123.99654 
L 333.911593 125.14199 
L 334.038461 130.724764 
L 334.292197 111.113091 
L 334.545932 126.716506 
L 334.6728 123.280702 
L 334.926535 129.293088 
L 335.180271 107.964058 
L 335.560874 144.896503 
L 335.687742 138.311666 
L 335.941477 154.057922 
L 336.195213 120.990347 
L 336.32208 124.426152 
L 336.448948 131.583442 
L 336.702684 103.383349 
L 336.956419 127.146119 
L 337.210155 116.553024 
L 337.46389 132.29928 
L 337.590758 132.29928 
L 337.717625 125.284831 
L 337.844493 124.712378 
L 337.971361 135.591699 
L 338.098229 135.162087 
L 338.351964 121.992412 
L 338.6057 104.528254 
L 339.240038 150.622118 
L 339.366906 143.607668 
L 339.493774 144.323505 
L 339.620642 141.174473 
L 339.747509 129.293088 
L 339.874377 129.293088 
L 340.001245 133.730956 
L 340.25498 127.002733 
L 340.381848 132.585506 
L 340.508716 133.157958 
L 340.635584 127.718571 
L 340.889319 149.0476 
L 341.143054 129.86554 
L 341.269922 146.47102 
L 341.39679 138.16828 
L 341.650525 93.506093 
L 341.777393 180.540112 
L 341.904261 175.816017 
L 342.031129 166.797985 
L 342.157996 166.082147 
L 342.411732 174.241501 
L 342.665467 170.37663 
L 342.919203 164.65047 
L 343.046071 164.65047 
L 343.172938 163.791792 
L 343.426674 157.922793 
L 343.553542 160.928986 
L 343.807277 168.515887 
L 343.934145 164.793856 
L 344.061012 166.082147 
L 344.18788 161.071826 
L 344.441616 144.323505 
L 344.568483 146.041408 
L 344.822219 166.940826 
L 344.949087 160.7856 
L 345.075954 141.317312 
L 345.202822 146.47102 
L 345.32969 159.067697 
L 345.583425 149.477212 
L 345.837161 156.920729 
L 346.090896 156.491116 
L 346.344632 169.08834 
L 346.4715 168.372502 
L 346.598367 165.652535 
L 346.725235 168.229116 
L 346.852103 168.086276 
L 347.105838 160.213147 
L 347.232706 160.642759 
L 347.359574 157.493181 
L 347.486441 151.480796 
L 347.740177 162.217276 
L 347.867045 153.77115 
L 347.993912 157.493181 
L 348.12078 169.374565 
L 348.247648 166.511759 
L 348.628251 140.458635 
L 348.755119 140.172408 
L 348.881987 137.02283 
L 349.135722 128.004797 
L 349.26259 129.149702 
L 349.516325 162.646343 
L 349.643193 160.499374 
L 349.770061 152.053793 
L 350.023796 107.534446 
L 350.150664 109.968186 
L 350.404399 94.22193 
L 350.531267 111.399863 
L 350.658135 109.824801 
L 350.785003 105.673704 
L 350.91187 115.6938 
L 351.038738 107.964058 
L 351.165606 92.360643 
L 351.292474 92.647414 
L 351.546209 86.635028 
L 351.799945 100.806768 
L 351.926812 97.800575 
L 352.05368 107.391606 
L 352.180548 103.955802 
L 352.307416 95.366835 
L 352.434283 99.232252 
L 352.561151 99.232252 
L 352.814886 84.917126 
L 352.941754 86.062576 
L 353.449225 112.401382 
L 353.829828 116.83925 
L 354.083564 107.964058 
L 354.210432 115.6938 
L 354.337299 115.55096 
L 354.591035 105.817089 
L 354.717903 106.103316 
L 354.84477 104.099187 
L 354.971638 105.530318 
L 355.098506 108.250284 
L 355.352241 95.510221 
L 355.605977 116.83925 
L 355.859712 106.532382 
L 356.113448 117.411702 
L 356.240315 111.399863 
L 356.367183 93.07648 
L 356.494051 91.501964 
L 356.747786 110.111027 
L 356.874654 109.395734 
L 357.001522 107.534446 
L 357.12839 102.237899 
L 357.382125 112.830993 
L 357.508993 101.951673 
L 357.635861 104.528254 
L 357.762728 117.697929 
L 357.889596 109.538575 
L 358.016464 145.468955 
L 358.270199 120.704122 
L 358.523935 141.031087 
L 358.650803 132.871733 
L 358.77767 138.884118 
L 358.904538 136.307537 
L 359.031406 127.146119 
L 359.285141 151.624182 
L 359.538877 141.746925 
L 359.792612 149.333827 
L 360.046348 139.599956 
L 360.300083 170.090404 
L 360.426951 160.213147 
L 360.553819 160.355988 
L 360.680686 178.965596 
L 360.807554 180.969452 
L 361.06129 162.789729 
L 361.188157 164.936697 
L 361.315025 160.355988 
L 361.441893 150.049664 
L 361.568761 152.769631 
L 361.695628 161.215211 
L 361.822496 159.783536 
L 362.076231 152.196634 
L 362.329967 173.525663 
L 362.583702 160.642759 
L 362.964306 174.241501 
L 363.091173 177.963532 
L 363.344909 142.319377 
L 363.471777 144.180666 
L 363.598644 148.617989 
L 363.725512 146.757246 
L 363.85238 152.912472 
L 364.106115 184.548369 
L 364.232983 185.693547 
L 364.613586 168.802113 
L 364.867322 182.687354 
L 365.121057 171.235308 
L 365.374793 180.397 
L 365.50166 168.944954 
L 365.628528 168.944954 
L 365.882264 192.564611 
L 366.009131 185.550161 
L 366.262867 145.755182 
L 366.389735 142.605603 
L 366.516602 145.755182 
L 366.770338 133.444185 
L 367.024073 172.523599 
L 367.150941 162.503502 
L 367.277809 143.321441 
L 367.404677 141.746925 
L 367.531544 132.871733 
L 367.78528 108.536511 
L 367.912148 110.254413 
L 368.165883 108.250284 
L 368.419618 88.352931 
L 368.673354 110.254413 
L 368.927089 87.207481 
L 369.053957 98.802639 
L 369.307693 90.643285 
L 369.561428 107.677832 
L 369.688296 108.107443 
L 369.942031 130.151766 
L 370.068899 126.859347 
L 370.322635 108.250284 
L 370.57637 123.710315 
L 370.703238 118.270926 
L 370.956973 105.673704 
L 371.337576 130.008926 
L 371.464444 128.577249 
L 371.591312 129.722699 
L 371.71818 126.573121 
L 371.845047 120.417895 
L 372.098783 133.015119 
L 372.352518 123.99654 
L 372.606254 138.454506 
L 372.733122 142.033151 
L 372.859989 149.763439 
L 373.113725 134.017183 
L 373.36746 150.049664 
L 373.621196 124.998604 
L 373.748064 131.726828 
L 373.874931 131.726828 
L 374.001799 130.581378 
L 374.128667 132.013054 
L 374.382402 68.168806 
L 374.50927 65.305999 
L 374.636138 68.312192 
L 374.889873 56.287421 
L 375.143609 73.465354 
L 375.270476 71.174999 
L 375.524212 79.620579 
L 375.777947 53.568 
L 376.158551 91.931576 
L 376.285418 88.639157 
L 376.539154 102.381284 
L 376.792889 77.187385 
L 376.919757 83.34261 
L 377.046625 99.661318 
L 377.30036 66.021838 
L 377.427228 72.033677 
L 377.680963 91.072352 
L 377.807831 86.635028 
L 377.934699 93.362707 
L 378.188434 116.695865 
L 378.44217 94.364771 
L 378.569038 112.830993 
L 378.695905 113.976443 
L 378.949641 102.095059 
L 379.203376 85.489578 
L 379.457112 97.943416 
L 379.58398 99.804704 
L 379.837715 117.268863 
L 379.964583 114.40551 
L 380.09145 115.407574 
L 380.218318 111.542704 
L 380.345186 104.099187 
L 380.598921 108.822736 
L 380.852657 93.219866 
L 380.979525 95.510221 
L 381.106392 95.366835 
L 381.23326 90.786126 
L 381.486996 109.108963 
L 381.613863 105.95993 
L 381.740731 103.812961 
L 381.867599 115.55096 
L 381.994467 109.824801 
L 382.121334 87.923319 
L 382.248202 89.784062 
L 382.37507 208.883319 
L 382.501938 194.282241 
L 382.628805 194.425353 
L 382.755673 203.157432 
L 383.009409 199.006063 
L 383.136276 203.730158 
L 383.263144 204.30261 
L 383.516879 196.715708 
L 383.770615 199.578788 
L 384.02435 195.141192 
L 384.151218 196.429481 
L 384.404954 208.883319 
L 384.658689 193.280176 
L 384.912425 177.677033 
L 385.16616 175.100724 
L 385.293028 183.403192 
L 385.419896 205.304674 
L 385.546763 203.587045 
L 385.673631 178.82221 
L 385.800499 176.961467 
L 385.927367 189.129078 
L 386.181102 177.390807 
L 386.434837 181.68529 
L 386.561705 180.826339 
L 386.688573 177.963532 
L 386.815441 179.108709 
L 387.069176 200.867078 
L 387.196044 202.155368 
L 387.322912 198.43361 
L 387.703515 180.110773 
L 387.830383 185.83666 
L 387.95725 183.689418 
L 388.084118 177.390807 
L 388.337854 185.263935 
L 388.464721 178.249758 
L 388.591589 180.110773 
L 388.718457 190.846708 
L 388.845325 188.842579 
L 389.09906 165.652535 
L 389.225928 164.364245 
L 389.352795 164.364245 
L 389.479663 163.21934 
L 389.733399 146.61386 
L 389.860266 147.043472 
L 390.114002 170.51947 
L 390.367737 163.505566 
L 390.494605 113.260606 
L 390.621473 109.681961 
L 390.748341 113.690217 
L 391.002076 86.921255 
L 391.255812 97.084737 
L 391.382679 95.653062 
L 391.509547 99.661318 
L 391.763283 89.784062 
L 391.89015 88.495771 
L 392.017018 74.897029 
L 392.143886 74.467417 
L 392.397621 99.375093 
L 392.524489 94.364771 
L 392.651357 97.943416 
L 392.905092 90.213674 
L 393.03196 97.370964 
L 393.158828 90.786126 
L 393.412563 72.606675 
L 393.666299 74.181192 
L 393.793166 80.908869 
L 394.046902 96.941897 
L 394.17377 96.798511 
L 394.427505 112.830993 
L 394.554373 90.213674 
L 394.681241 91.64535 
L 394.808108 119.845443 
L 394.934976 121.41996 
L 395.188711 91.359123 
L 395.442447 102.237899 
L 395.696182 108.679896 
L 395.949918 90.4999 
L 396.203653 110.111027 
L 396.457389 99.518478 
L 396.584257 102.953737 
L 396.837992 113.403445 
L 397.091728 97.51435 
L 397.345463 113.260606 
L 397.472331 108.39367 
L 397.599199 108.679896 
L 397.726066 111.972315 
L 397.852934 112.115156 
L 398.10667 106.389541 
L 398.233537 107.534446 
L 398.360405 112.115156 
L 398.487273 111.256477 
L 398.487273 111.256477 
" clip-path="url(#p83ad265c17)" style="fill: none; stroke: #1f77b4; stroke-width: 1.5; stroke-linecap: square"/>
   </g>
   <g id="patch_3">
    <path d="M 57.6 307.584 
L 57.6 41.472 
" style="fill: none; stroke: #000000; stroke-width: 0.8; stroke-linejoin: miter; stroke-linecap: square"/>
   </g>
   <g id="patch_4">
    <path d="M 414.72 307.584 
L 414.72 41.472 
" style="fill: none; stroke: #000000; stroke-width: 0.8; stroke-linejoin: miter; stroke-linecap: square"/>
   </g>
   <g id="patch_5">
    <path d="M 57.6 307.584 
L 414.72 307.584 
" style="fill: none; stroke: #000000; stroke-width: 0.8; stroke-linejoin: miter; stroke-linecap: square"/>
   </g>
   <g id="patch_6">
    <path d="M 57.6 41.472 
L 414.72 41.472 
" style="fill: none; stroke: #000000; stroke-width: 0.8; stroke-linejoin: miter; stroke-linecap: square"/>
   </g>
   <g id="legend_1">
    <g id="patch_7">
     <path d="M 64.6 64.150125 
L 118.245312 64.150125 
Q 120.245312 64.150125 120.245312 62.150125 
L 120.245312 48.472 
Q 120.245312 46.472 118.245312 46.472 
L 64.6 46.472 
Q 62.6 46.472 62.6 48.472 
L 62.6 62.150125 
Q 62.6 64.150125 64.6 64.150125 
z
" style="fill: #ffffff; opacity: 0.8; stroke: #cccccc; stroke-linejoin: miter"/>
    </g>
    <g id="line2d_13">
     <path d="M 66.6 54.570438 
L 76.6 54.570438 
L 86.6 54.570438 
" style="fill: none; stroke: #1f77b4; stroke-width: 1.5; stroke-linecap: square"/>
    </g>
    <g id="text_12">
     <!-- set3 -->
     <g transform="translate(94.6 58.070438)scale(0.1 -0.1)">
      <defs>
       <path id="DejaVuSans-73" d="M 2834 3397 
L 2834 2853 
Q 2591 2978 2328 3040 
Q 2066 3103 1784 3103 
Q 1356 3103 1142 2972 
Q 928 2841 928 2578 
Q 928 2378 1081 2264 
Q 1234 2150 1697 2047 
L 1894 2003 
Q 2506 1872 2764 1633 
Q 3022 1394 3022 966 
Q 3022 478 2636 193 
Q 2250 -91 1575 -91 
Q 1294 -91 989 -36 
Q 684 19 347 128 
L 347 722 
Q 666 556 975 473 
Q 1284 391 1588 391 
Q 1994 391 2212 530 
Q 2431 669 2431 922 
Q 2431 1156 2273 1281 
Q 2116 1406 1581 1522 
L 1381 1569 
Q 847 1681 609 1914 
Q 372 2147 372 2553 
Q 372 3047 722 3315 
Q 1072 3584 1716 3584 
Q 2034 3584 2315 3537 
Q 2597 3491 2834 3397 
z
" transform="scale(0.015625)"/>
       <path id="DejaVuSans-65" d="M 3597 1894 
L 3597 1613 
L 953 1613 
Q 991 1019 1311 708 
Q 1631 397 2203 397 
Q 2534 397 2845 478 
Q 3156 559 3463 722 
L 3463 178 
Q 3153 47 2828 -22 
Q 2503 -91 2169 -91 
Q 1331 -91 842 396 
Q 353 884 353 1716 
Q 353 2575 817 3079 
Q 1281 3584 2069 3584 
Q 2775 3584 3186 3129 
Q 3597 2675 3597 1894 
z
M 3022 2063 
Q 3016 2534 2758 2815 
Q 2500 3097 2075 3097 
Q 1594 3097 1305 2825 
Q 1016 2553 972 2059 
L 3022 2063 
z
" transform="scale(0.015625)"/>
       <path id="DejaVuSans-74" d="M 1172 4494 
L 1172 3500 
L 2356 3500 
L 2356 3053 
L 1172 3053 
L 1172 1153 
Q 1172 725 1289 603 
Q 1406 481 1766 481 
L 2356 481 
L 2356 0 
L 1766 0 
Q 1100 0 847 248 
Q 594 497 594 1153 
L 594 3053 
L 172 3053 
L 172 3500 
L 594 3500 
L 594 4494 
L 1172 4494 
z
" transform="scale(0.015625)"/>
       <path id="DejaVuSans-33" d="M 2597 2516 
Q 3050 2419 3304 2112 
Q 3559 1806 3559 1356 
Q 3559 666 3084 287 
Q 2609 -91 1734 -91 
Q 1441 -91 1130 -33 
Q 819 25 488 141 
L 488 750 
Q 750 597 1062 519 
Q 1375 441 1716 441 
Q 2309 441 2620 675 
Q 2931 909 2931 1356 
Q 2931 1769 2642 2001 
Q 2353 2234 1838 2234 
L 1294 2234 
L 1294 2753 
L 1863 2753 
Q 2328 2753 2575 2939 
Q 2822 3125 2822 3475 
Q 2822 3834 2567 4026 
Q 2313 4219 1838 4219 
Q 1578 4219 1281 4162 
Q 984 4106 628 3988 
L 628 4550 
Q 988 4650 1302 4700 
Q 1616 4750 1894 4750 
Q 2613 4750 3031 4423 
Q 3450 4097 3450 3541 
Q 3450 3153 3228 2886 
Q 3006 2619 2597 2516 
z
" transform="scale(0.015625)"/>
      </defs>
      <use xlink:href="#DejaVuSans-73"/>
      <use xlink:href="#DejaVuSans-65" x="52.099609"/>
      <use xlink:href="#DejaVuSans-74" x="113.623047"/>
      <use xlink:href="#DejaVuSans-33" x="152.832031"/>
     </g>
    </g>
   </g>
  </g>
 </g>
 <defs>
  <clipPath id="p83ad265c17">
   <rect x="57.6" y="41.472" width="357.12" height="266.112"/>
  </clipPath>
 </defs>
</svg>
