<?xml version="1.0" encoding="utf-8" standalone="no"?>
<!DOCTYPE svg PUBLIC "-//W3C//DTD SVG 1.1//EN"
  "http://www.w3.org/Graphics/SVG/1.1/DTD/svg11.dtd">
<svg xmlns:xlink="http://www.w3.org/1999/xlink" width="460.8pt" height="345.6pt" viewBox="0 0 460.8 345.6" xmlns="http://www.w3.org/2000/svg" version="1.1">
 <metadata>
  <rdf:RDF xmlns:dc="http://purl.org/dc/elements/1.1/" xmlns:cc="http://creativecommons.org/ns#" xmlns:rdf="http://www.w3.org/1999/02/22-rdf-syntax-ns#">
   <cc:Work>
    <dc:type rdf:resource="http://purl.org/dc/dcmitype/StillImage"/>
    <dc:date>2022-08-11T15:18:54.166142</dc:date>
    <dc:format>image/svg+xml</dc:format>
    <dc:creator>
     <cc:Agent>
      <dc:title>Matplotlib v3.5.2, https://matplotlib.org/</dc:title>
     </cc:Agent>
    </dc:creator>
   </cc:Work>
  </rdf:RDF>
 </metadata>
 <defs>
  <style type="text/css">*{stroke-linejoin: round; stroke-linecap: butt}</style>
 </defs>
 <g id="figure_1">
  <g id="patch_1">
   <path d="M 0 345.6 
L 460.8 345.6 
L 460.8 0 
L 0 0 
z
" style="fill: #ffffff"/>
  </g>
  <g id="axes_1">
   <g id="patch_2">
    <path d="M 57.6 307.584 
L 414.72 307.584 
L 414.72 41.472 
L 57.6 41.472 
z
" style="fill: #ffffff"/>
   </g>
   <g id="matplotlib.axis_1">
    <g id="xtick_1">
     <g id="line2d_1">
      <defs>
       <path id="mc543edfc73" d="M 0 0 
L 0 3.5 
" style="stroke: #000000; stroke-width: 0.8"/>
      </defs>
      <g>
       <use xlink:href="#mc543edfc73" x="73.832727" y="307.584" style="stroke: #000000; stroke-width: 0.8"/>
      </g>
     </g>
     <g id="text_1">
      <!-- 0 -->
      <g transform="translate(70.651477 322.182437)scale(0.1 -0.1)">
       <defs>
        <path id="DejaVuSans-30" d="M 2034 4250 
Q 1547 4250 1301 3770 
Q 1056 3291 1056 2328 
Q 1056 1369 1301 889 
Q 1547 409 2034 409 
Q 2525 409 2770 889 
Q 3016 1369 3016 2328 
Q 3016 3291 2770 3770 
Q 2525 4250 2034 4250 
z
M 2034 4750 
Q 2819 4750 3233 4129 
Q 3647 3509 3647 2328 
Q 3647 1150 3233 529 
Q 2819 -91 2034 -91 
Q 1250 -91 836 529 
Q 422 1150 422 2328 
Q 422 3509 836 4129 
Q 1250 4750 2034 4750 
z
" transform="scale(0.015625)"/>
       </defs>
       <use xlink:href="#DejaVuSans-30"/>
      </g>
     </g>
    </g>
    <g id="xtick_2">
     <g id="line2d_2">
      <g>
       <use xlink:href="#mc543edfc73" x="137.254205" y="307.584" style="stroke: #000000; stroke-width: 0.8"/>
      </g>
     </g>
     <g id="text_2">
      <!-- 1000 -->
      <g transform="translate(124.529205 322.182437)scale(0.1 -0.1)">
       <defs>
        <path id="DejaVuSans-31" d="M 794 531 
L 1825 531 
L 1825 4091 
L 703 3866 
L 703 4441 
L 1819 4666 
L 2450 4666 
L 2450 531 
L 3481 531 
L 3481 0 
L 794 0 
L 794 531 
z
" transform="scale(0.015625)"/>
       </defs>
       <use xlink:href="#DejaVuSans-31"/>
       <use xlink:href="#DejaVuSans-30" x="63.623047"/>
       <use xlink:href="#DejaVuSans-30" x="127.246094"/>
       <use xlink:href="#DejaVuSans-30" x="190.869141"/>
      </g>
     </g>
    </g>
    <g id="xtick_3">
     <g id="line2d_3">
      <g>
       <use xlink:href="#mc543edfc73" x="200.675683" y="307.584" style="stroke: #000000; stroke-width: 0.8"/>
      </g>
     </g>
     <g id="text_3">
      <!-- 2000 -->
      <g transform="translate(187.950683 322.182437)scale(0.1 -0.1)">
       <defs>
        <path id="DejaVuSans-32" d="M 1228 531 
L 3431 531 
L 3431 0 
L 469 0 
L 469 531 
Q 828 903 1448 1529 
Q 2069 2156 2228 2338 
Q 2531 2678 2651 2914 
Q 2772 3150 2772 3378 
Q 2772 3750 2511 3984 
Q 2250 4219 1831 4219 
Q 1534 4219 1204 4116 
Q 875 4013 500 3803 
L 500 4441 
Q 881 4594 1212 4672 
Q 1544 4750 1819 4750 
Q 2544 4750 2975 4387 
Q 3406 4025 3406 3419 
Q 3406 3131 3298 2873 
Q 3191 2616 2906 2266 
Q 2828 2175 2409 1742 
Q 1991 1309 1228 531 
z
" transform="scale(0.015625)"/>
       </defs>
       <use xlink:href="#DejaVuSans-32"/>
       <use xlink:href="#DejaVuSans-30" x="63.623047"/>
       <use xlink:href="#DejaVuSans-30" x="127.246094"/>
       <use xlink:href="#DejaVuSans-30" x="190.869141"/>
      </g>
     </g>
    </g>
    <g id="xtick_4">
     <g id="line2d_4">
      <g>
       <use xlink:href="#mc543edfc73" x="264.097161" y="307.584" style="stroke: #000000; stroke-width: 0.8"/>
      </g>
     </g>
     <g id="text_4">
      <!-- 3000 -->
      <g transform="translate(251.372161 322.182437)scale(0.1 -0.1)">
       <defs>
        <path id="DejaVuSans-33" d="M 2597 2516 
Q 3050 2419 3304 2112 
Q 3559 1806 3559 1356 
Q 3559 666 3084 287 
Q 2609 -91 1734 -91 
Q 1441 -91 1130 -33 
Q 819 25 488 141 
L 488 750 
Q 750 597 1062 519 
Q 1375 441 1716 441 
Q 2309 441 2620 675 
Q 2931 909 2931 1356 
Q 2931 1769 2642 2001 
Q 2353 2234 1838 2234 
L 1294 2234 
L 1294 2753 
L 1863 2753 
Q 2328 2753 2575 2939 
Q 2822 3125 2822 3475 
Q 2822 3834 2567 4026 
Q 2313 4219 1838 4219 
Q 1578 4219 1281 4162 
Q 984 4106 628 3988 
L 628 4550 
Q 988 4650 1302 4700 
Q 1616 4750 1894 4750 
Q 2613 4750 3031 4423 
Q 3450 4097 3450 3541 
Q 3450 3153 3228 2886 
Q 3006 2619 2597 2516 
z
" transform="scale(0.015625)"/>
       </defs>
       <use xlink:href="#DejaVuSans-33"/>
       <use xlink:href="#DejaVuSans-30" x="63.623047"/>
       <use xlink:href="#DejaVuSans-30" x="127.246094"/>
       <use xlink:href="#DejaVuSans-30" x="190.869141"/>
      </g>
     </g>
    </g>
    <g id="xtick_5">
     <g id="line2d_5">
      <g>
       <use xlink:href="#mc543edfc73" x="327.518639" y="307.584" style="stroke: #000000; stroke-width: 0.8"/>
      </g>
     </g>
     <g id="text_5">
      <!-- 4000 -->
      <g transform="translate(314.793639 322.182437)scale(0.1 -0.1)">
       <defs>
        <path id="DejaVuSans-34" d="M 2419 4116 
L 825 1625 
L 2419 1625 
L 2419 4116 
z
M 2253 4666 
L 3047 4666 
L 3047 1625 
L 3713 1625 
L 3713 1100 
L 3047 1100 
L 3047 0 
L 2419 0 
L 2419 1100 
L 313 1100 
L 313 1709 
L 2253 4666 
z
" transform="scale(0.015625)"/>
       </defs>
       <use xlink:href="#DejaVuSans-34"/>
       <use xlink:href="#DejaVuSans-30" x="63.623047"/>
       <use xlink:href="#DejaVuSans-30" x="127.246094"/>
       <use xlink:href="#DejaVuSans-30" x="190.869141"/>
      </g>
     </g>
    </g>
    <g id="xtick_6">
     <g id="line2d_6">
      <g>
       <use xlink:href="#mc543edfc73" x="390.940117" y="307.584" style="stroke: #000000; stroke-width: 0.8"/>
      </g>
     </g>
     <g id="text_6">
      <!-- 5000 -->
      <g transform="translate(378.215117 322.182437)scale(0.1 -0.1)">
       <defs>
        <path id="DejaVuSans-35" d="M 691 4666 
L 3169 4666 
L 3169 4134 
L 1269 4134 
L 1269 2991 
Q 1406 3038 1543 3061 
Q 1681 3084 1819 3084 
Q 2600 3084 3056 2656 
Q 3513 2228 3513 1497 
Q 3513 744 3044 326 
Q 2575 -91 1722 -91 
Q 1428 -91 1123 -41 
Q 819 9 494 109 
L 494 744 
Q 775 591 1075 516 
Q 1375 441 1709 441 
Q 2250 441 2565 725 
Q 2881 1009 2881 1497 
Q 2881 1984 2565 2268 
Q 2250 2553 1709 2553 
Q 1456 2553 1204 2497 
Q 953 2441 691 2322 
L 691 4666 
z
" transform="scale(0.015625)"/>
       </defs>
       <use xlink:href="#DejaVuSans-35"/>
       <use xlink:href="#DejaVuSans-30" x="63.623047"/>
       <use xlink:href="#DejaVuSans-30" x="127.246094"/>
       <use xlink:href="#DejaVuSans-30" x="190.869141"/>
      </g>
     </g>
    </g>
   </g>
   <g id="matplotlib.axis_2">
    <g id="ytick_1">
     <g id="line2d_7">
      <defs>
       <path id="m4ab394f0b5" d="M 0 0 
L -3.5 0 
" style="stroke: #000000; stroke-width: 0.8"/>
      </defs>
      <g>
       <use xlink:href="#m4ab394f0b5" x="57.6" y="272.110678" style="stroke: #000000; stroke-width: 0.8"/>
      </g>
     </g>
     <g id="text_7">
      <!-- 3900 -->
      <g transform="translate(25.15 275.909897)scale(0.1 -0.1)">
       <defs>
        <path id="DejaVuSans-39" d="M 703 97 
L 703 672 
Q 941 559 1184 500 
Q 1428 441 1663 441 
Q 2288 441 2617 861 
Q 2947 1281 2994 2138 
Q 2813 1869 2534 1725 
Q 2256 1581 1919 1581 
Q 1219 1581 811 2004 
Q 403 2428 403 3163 
Q 403 3881 828 4315 
Q 1253 4750 1959 4750 
Q 2769 4750 3195 4129 
Q 3622 3509 3622 2328 
Q 3622 1225 3098 567 
Q 2575 -91 1691 -91 
Q 1453 -91 1209 -44 
Q 966 3 703 97 
z
M 1959 2075 
Q 2384 2075 2632 2365 
Q 2881 2656 2881 3163 
Q 2881 3666 2632 3958 
Q 2384 4250 1959 4250 
Q 1534 4250 1286 3958 
Q 1038 3666 1038 3163 
Q 1038 2656 1286 2365 
Q 1534 2075 1959 2075 
z
" transform="scale(0.015625)"/>
       </defs>
       <use xlink:href="#DejaVuSans-33"/>
       <use xlink:href="#DejaVuSans-39" x="63.623047"/>
       <use xlink:href="#DejaVuSans-30" x="127.246094"/>
       <use xlink:href="#DejaVuSans-30" x="190.869141"/>
      </g>
     </g>
    </g>
    <g id="ytick_2">
     <g id="line2d_8">
      <g>
       <use xlink:href="#m4ab394f0b5" x="57.6" y="232.642435" style="stroke: #000000; stroke-width: 0.8"/>
      </g>
     </g>
     <g id="text_8">
      <!-- 4000 -->
      <g transform="translate(25.15 236.441653)scale(0.1 -0.1)">
       <use xlink:href="#DejaVuSans-34"/>
       <use xlink:href="#DejaVuSans-30" x="63.623047"/>
       <use xlink:href="#DejaVuSans-30" x="127.246094"/>
       <use xlink:href="#DejaVuSans-30" x="190.869141"/>
      </g>
     </g>
    </g>
    <g id="ytick_3">
     <g id="line2d_9">
      <g>
       <use xlink:href="#m4ab394f0b5" x="57.6" y="193.174191" style="stroke: #000000; stroke-width: 0.8"/>
      </g>
     </g>
     <g id="text_9">
      <!-- 4100 -->
      <g transform="translate(25.15 196.97341)scale(0.1 -0.1)">
       <use xlink:href="#DejaVuSans-34"/>
       <use xlink:href="#DejaVuSans-31" x="63.623047"/>
       <use xlink:href="#DejaVuSans-30" x="127.246094"/>
       <use xlink:href="#DejaVuSans-30" x="190.869141"/>
      </g>
     </g>
    </g>
    <g id="ytick_4">
     <g id="line2d_10">
      <g>
       <use xlink:href="#m4ab394f0b5" x="57.6" y="153.705948" style="stroke: #000000; stroke-width: 0.8"/>
      </g>
     </g>
     <g id="text_10">
      <!-- 4200 -->
      <g transform="translate(25.15 157.505167)scale(0.1 -0.1)">
       <use xlink:href="#DejaVuSans-34"/>
       <use xlink:href="#DejaVuSans-32" x="63.623047"/>
       <use xlink:href="#DejaVuSans-30" x="127.246094"/>
       <use xlink:href="#DejaVuSans-30" x="190.869141"/>
      </g>
     </g>
    </g>
    <g id="ytick_5">
     <g id="line2d_11">
      <g>
       <use xlink:href="#m4ab394f0b5" x="57.6" y="114.237705" style="stroke: #000000; stroke-width: 0.8"/>
      </g>
     </g>
     <g id="text_11">
      <!-- 4300 -->
      <g transform="translate(25.15 118.036923)scale(0.1 -0.1)">
       <use xlink:href="#DejaVuSans-34"/>
       <use xlink:href="#DejaVuSans-33" x="63.623047"/>
       <use xlink:href="#DejaVuSans-30" x="127.246094"/>
       <use xlink:href="#DejaVuSans-30" x="190.869141"/>
      </g>
     </g>
    </g>
    <g id="ytick_6">
     <g id="line2d_12">
      <g>
       <use xlink:href="#m4ab394f0b5" x="57.6" y="74.769461" style="stroke: #000000; stroke-width: 0.8"/>
      </g>
     </g>
     <g id="text_12">
      <!-- 4400 -->
      <g transform="translate(25.15 78.56868)scale(0.1 -0.1)">
       <use xlink:href="#DejaVuSans-34"/>
       <use xlink:href="#DejaVuSans-34" x="63.623047"/>
       <use xlink:href="#DejaVuSans-30" x="127.246094"/>
       <use xlink:href="#DejaVuSans-30" x="190.869141"/>
      </g>
     </g>
    </g>
   </g>
   <g id="line2d_13">
    <path d="M 73.832727 152.693996 
L 73.896149 153.199876 
L 73.95957 156.590136 
L 74.022992 155.375832 
L 74.086413 153.452912 
L 74.149835 154.313196 
L 74.213256 153.25056 
L 74.276678 153.807124 
L 74.403521 158.551022 
L 74.847471 159.879221 
L 74.974314 166.102985 
L 75.101157 163.623693 
L 75.164578 166.204161 
L 75.228 165.546421 
L 75.291421 162.409197 
L 75.354843 162.763409 
L 75.481686 166.811409 
L 75.545107 161.447736 
L 75.608529 163.168112 
L 75.67195 169.948634 
L 75.735372 166.609057 
L 75.862215 155.02162 
L 75.925636 155.831221 
L 75.989058 156.539644 
L 76.1159 159.778045 
L 76.242743 158.91776 
L 76.306165 158.91776 
L 76.369586 159.069621 
L 76.496429 158.411688 
L 76.559851 159.474324 
L 76.686694 165.647597 
L 76.813537 158.513057 
L 76.876958 160.587645 
L 77.003801 159.069621 
L 77.130644 165.293385 
L 77.194066 165.242893 
L 77.320909 167.418657 
L 77.38433 166.153669 
L 77.447752 167.519833 
L 77.511173 172.023221 
L 77.574594 171.871554 
L 77.701437 162.409197 
L 77.764859 164.534469 
L 77.891702 171.82087 
L 77.955123 170.150985 
L 78.018545 170.20167 
L 78.272231 178.753058 
L 78.335652 176.83033 
L 78.399074 176.67847 
L 78.65276 179.461482 
L 78.716181 179.815694 
L 78.969867 178.44953 
L 79.033288 179.25913 
L 79.223553 189.935791 
L 79.286974 187.304639 
L 79.350396 188.012871 
L 79.54066 195.299367 
L 79.730925 200.207652 
L 79.794346 200.106476 
L 79.921189 211.036077 
L 80.048032 201.422052 
L 80.301718 212.351749 
L 80.491982 219.536974 
L 80.555404 218.474337 
L 80.618825 216.804549 
L 80.745668 224.90055 
L 80.80909 224.343986 
L 80.872511 223.83801 
L 80.935933 224.546338 
L 80.999354 223.230762 
L 81.062776 225.001822 
L 81.379883 242.863708 
L 81.506726 246.810532 
L 81.570148 249.492368 
L 81.633569 249.44178 
L 81.696991 249.492368 
L 81.887255 252.831945 
L 81.950676 213.667325 
L 82.014098 214.021537 
L 82.077519 214.578101 
L 82.204362 210.378337 
L 82.394627 202.484688 
L 82.52147 201.47264 
L 82.584891 201.725676 
L 82.711734 203.294288 
L 82.775156 200.511276 
L 82.838577 200.814804 
L 82.96542 206.937489 
L 83.092263 200.966664 
L 83.155685 204.205064 
L 83.282527 195.350052 
L 83.40937 188.265907 
L 83.536213 191.048919 
L 83.599635 189.480403 
L 83.663056 190.492355 
L 83.726478 190.897251 
L 83.853321 182.092634 
L 83.916742 183.813203 
L 83.980164 182.548215 
L 84.043585 177.235034 
L 84.107007 179.613342 
L 84.170428 184.77447 
L 84.487536 158.209336 
L 84.550957 160.233433 
L 84.6778 166.102985 
L 84.994907 153.857808 
L 85.12175 160.283924 
L 85.185172 159.120112 
L 85.312015 163.623693 
L 85.375436 161.093524 
L 85.438858 159.322657 
L 85.565701 165.242893 
L 85.629122 163.674185 
L 85.819387 159.423833 
L 85.882808 159.727361 
L 86.073073 158.209336 
L 86.199915 159.120112 
L 86.263337 157.855124 
L 86.39018 153.0987 
L 86.517023 161.1947 
L 86.83413 145.96416 
L 86.897552 147.785712 
L 86.960973 148.949523 
L 87.024395 146.014651 
L 87.151238 154.86976 
L 87.214659 150.315688 
L 87.278081 144.699171 
L 87.341502 147.482184 
L 87.404924 149.961475 
L 87.595188 142.422039 
L 87.722031 145.812299 
L 87.785452 147.127972 
L 87.912295 142.725759 
L 87.975717 146.115827 
L 88.039138 144.142415 
L 88.165981 137.918651 
L 88.292824 141.258227 
L 88.419667 140.296959 
L 88.54651 147.684535 
L 88.673353 140.853523 
L 88.736775 141.612439 
L 88.863618 139.234323 
L 88.927039 139.841379 
L 89.053882 148.494136 
L 89.117303 146.368863 
L 89.624675 53.568 
L 89.688097 54.023388 
L 89.81494 62.119388 
L 90.005204 83.523394 
L 90.132047 159.221288 
L 90.195469 158.108161 
L 90.322312 153.351736 
L 90.449154 158.614233 
L 90.512576 157.804633 
L 90.639419 151.985572 
L 90.766262 154.363688 
L 90.893105 161.093524 
L 90.956526 159.828536 
L 91.019948 159.423833 
L 91.146791 165.141525 
L 91.463898 154.212021 
L 91.52732 154.161336 
L 91.590741 155.173288 
L 91.717584 161.043033 
L 91.781006 159.626185 
L 91.844427 157.551596 
L 91.907848 159.980397 
L 91.97127 159.170796 
L 92.034691 156.48896 
L 92.098113 157.855124 
L 92.224956 160.53696 
L 92.288377 159.120112 
L 92.351799 159.170796 
L 92.41522 160.587645 
L 92.478642 160.435785 
L 92.605485 155.67936 
L 92.732328 158.715409 
L 92.795749 156.995033 
L 93.112857 165.141525 
L 93.176278 163.977905 
L 93.303121 158.361197 
L 93.366542 160.132257 
L 93.429964 160.081573 
L 93.620228 152.795172 
L 93.68365 154.566232 
L 93.747071 154.313196 
L 93.873914 151.226463 
L 93.937336 151.530184 
L 94.000757 149.303736 
L 94.064179 149.910984 
L 94.317865 158.462373 
L 94.444708 147.988063 
L 94.508129 150.922936 
L 94.571551 149.253051 
L 95.078922 148.443451 
L 95.142344 142.320863 
L 95.205765 142.371548 
L 95.269187 146.520724 
L 95.332608 145.609948 
L 95.39603 145.255736 
L 95.459451 148.696487 
L 95.522873 146.824251 
L 95.586294 139.487166 
L 95.649716 140.094415 
L 95.713137 146.824251 
L 95.776559 146.318372 
L 95.903402 138.525899 
L 96.093666 147.633851 
L 96.157087 146.318372 
L 96.220509 142.320863 
L 96.28393 144.699171 
L 96.347352 144.648487 
L 96.474195 137.564439 
L 96.601038 146.571215 
L 96.664459 144.446135 
L 96.791302 139.740202 
L 97.044988 152.997524 
L 97.171831 147.785712 
L 97.235253 148.038748 
L 97.298674 147.735027 
L 97.362096 147.836396 
L 97.488939 152.238608 
L 97.55236 146.723075 
L 97.615781 147.178463 
L 97.679203 150.568724 
L 97.742624 149.708439 
L 97.806046 150.265196 
L 97.99631 157.450421 
L 98.123153 140.954699 
L 98.249996 80.487346 
L 98.313418 81.904194 
L 98.376839 81.802825 
L 98.440261 80.537837 
L 98.630525 85.24377 
L 98.884211 79.070498 
L 98.947633 80.08245 
L 99.074475 75.275534 
L 99.137897 75.579062 
L 99.201318 77.046401 
L 99.26474 76.388661 
L 99.328161 75.427201 
L 99.455004 79.677746 
L 99.518426 78.46325 
L 99.581847 77.451298 
L 99.70869 85.547298 
L 99.772112 84.535346 
L 99.962376 80.335486 
L 100.089219 86.761795 
L 100.152641 85.547298 
L 100.216062 84.788383 
L 100.342905 92.226643 
L 100.533169 79.222358 
L 100.723434 91.669886 
L 100.786855 91.315675 
L 100.850277 91.619395 
L 100.913698 91.417043 
L 100.97712 90.860286 
L 101.040541 91.568711 
L 101.103963 91.265183 
L 101.167384 90.253231 
L 101.611335 103.712904 
L 101.738178 96.628856 
L 101.865021 103.915256 
L 101.928442 102.144196 
L 102.182128 105.483771 
L 102.308971 102.144196 
L 102.435814 110.13902 
L 102.562657 99.108147 
L 102.626078 101.688808 
L 102.752921 94.048195 
L 102.816343 94.857795 
L 102.943186 93.036243 
L 103.13345 99.361183 
L 103.513979 166.811409 
L 103.767665 210.934901 
L 104.084772 257.132981 
L 104.338458 276.057502 
L 104.592144 291.085788 
L 104.84583 295.488 
L 105.036094 287.695527 
L 105.162937 280.510303 
L 105.28978 285.317315 
L 105.353202 283.596939 
L 105.480045 272.009502 
L 105.733731 282.635575 
L 105.860574 263.559193 
L 105.923995 265.178393 
L 106.050838 279.144139 
L 106.241102 262.041169 
L 106.304524 160.688821 
L 106.367945 161.093524 
L 106.494788 154.161336 
L 106.55821 159.373149 
L 106.621631 155.578184 
L 106.685053 151.378324 
L 106.811896 160.587645 
L 106.875317 158.614233 
L 107.00216 161.296069 
L 107.065582 158.462373 
L 107.382689 171.314797 
L 107.509532 164.584961 
L 107.572954 170.505197 
L 107.636375 169.645106 
L 107.699796 164.635645 
L 107.763218 166.102985 
L 107.826639 166.406705 
L 108.334011 173.642421 
L 108.460854 160.992349 
L 108.587697 167.165621 
L 108.651119 167.064445 
L 108.71454 168.734329 
L 108.841383 165.951317 
L 108.904805 169.999318 
L 108.968226 169.898142 
L 109.031648 168.177573 
L 109.285333 173.136542 
L 109.348755 174.047318 
L 109.412176 172.023221 
L 109.475598 175.008585 
L 109.602441 186.596215 
L 109.729284 159.069621 
L 109.792705 164.028397 
L 109.98297 167.671694 
L 110.109813 166.102985 
L 110.173234 166.254845 
L 110.236656 164.230749 
L 110.363499 169.341385 
L 110.42692 165.293385 
L 110.490342 165.344069 
L 110.617184 172.933997 
L 110.680606 172.478609 
L 110.744027 171.669009 
L 110.87087 164.584961 
L 110.934292 166.052494 
L 111.124556 167.114937 
L 111.251399 161.548912 
L 111.378242 164.939173 
L 111.505085 158.816584 
L 111.69535 166.102985 
L 111.758771 164.787505 
L 111.822193 165.091033 
L 111.885614 165.091033 
L 111.949036 165.495737 
L 112.075878 172.78233 
L 112.202721 157.29856 
L 112.266143 158.578002 
L 112.646672 166.254845 
L 112.710093 166.001809 
L 112.836936 157.855124 
L 112.900358 160.132257 
L 112.963779 158.867269 
L 113.090622 156.64082 
L 113.154044 157.29856 
L 113.280887 160.587645 
L 113.344308 160.840681 
L 113.407729 164.837997 
L 113.471151 164.433293 
L 113.597994 158.209336 
L 113.85168 167.874045 
L 113.915101 166.862093 
L 113.978523 167.165621 
L 114.041944 168.278749 
L 114.168787 157.905808 
L 114.359052 167.367973 
L 114.422473 165.698281 
L 114.549316 172.78233 
L 114.676159 165.293385 
L 114.739581 166.760917 
L 114.803002 165.849949 
L 114.866423 166.760917 
L 114.929845 171.669009 
L 114.993266 171.201095 
L 115.437217 167.92473 
L 115.500638 169.999318 
L 115.56406 169.240209 
L 115.627481 165.344069 
L 115.690903 166.305337 
L 115.817746 172.832822 
L 115.881167 169.442561 
L 115.944589 169.54393 
L 116.071432 172.832822 
L 116.134853 168.835506 
L 116.261696 176.981998 
L 116.388539 162.561057 
L 116.45196 164.483785 
L 116.515382 166.356021 
L 116.769068 159.626185 
L 116.832489 160.688821 
L 116.895911 160.638136 
L 117.022754 155.122796 
L 117.086175 156.084257 
L 117.149597 153.756632 
L 117.213018 154.161336 
L 117.27644 156.590136 
L 117.403283 151.884396 
L 117.466704 153.604772 
L 117.593547 152.238608 
L 117.656969 153.807124 
L 117.783811 148.038748 
L 117.847233 150.416864 
L 117.910654 150.062651 
L 117.974076 146.874936 
L 118.037497 148.595312 
L 118.100919 150.82176 
L 118.291183 140.246275 
L 118.354605 140.650979 
L 118.481448 148.797663 
L 118.544869 146.824251 
L 118.735134 140.043923 
L 118.861977 146.77376 
L 118.98882 140.448627 
L 119.052241 140.650979 
L 119.305927 135.793378 
L 119.369348 134.022511 
L 119.43277 134.326038 
L 119.496191 134.123687 
L 119.686456 143.181147 
L 119.749877 142.320863 
L 119.87672 135.236814 
L 119.940142 136.046415 
L 120.003563 136.046415 
L 120.130406 137.159735 
L 120.384092 131.998414 
L 120.510935 142.877427 
L 120.574356 140.145099 
L 120.701199 129.721474 
L 120.764621 131.036954 
L 120.891464 137.260911 
L 120.954885 136.400627 
L 121.018307 137.716299 
L 121.081728 142.320863 
L 121.14515 142.118511 
L 121.271993 137.716299 
L 121.462257 144.395451 
L 121.5891 140.650979 
L 121.652522 141.359403 
L 121.779365 146.419548 
L 121.842786 145.356911 
L 122.286736 164.837997 
L 122.350158 165.344069 
L 122.477001 169.290894 
L 122.603844 228.493162 
L 123.047794 214.426337 
L 123.30148 219.334525 
L 123.364902 217.917774 
L 123.428323 218.018949 
L 123.555166 223.83801 
L 123.682009 220.245398 
L 123.808852 222.117538 
L 123.999116 215.944361 
L 124.125959 219.992361 
L 124.189381 219.283938 
L 124.316224 220.548926 
L 124.443067 213.616737 
L 124.506488 214.831137 
L 124.56991 215.741913 
L 124.633331 212.958901 
L 124.760174 219.435798 
L 125.077281 191.099603 
L 125.140703 191.757343 
L 125.330967 199.904028 
L 125.394389 199.246192 
L 125.521232 195.501816 
L 125.584653 196.86798 
L 125.648075 196.46318 
L 125.711496 197.121016 
L 125.838339 204.002616 
L 125.901761 203.395464 
L 125.965182 202.28224 
L 126.028604 203.09184 
L 126.092025 203.6485 
L 126.155447 203.597816 
L 126.218868 203.446052 
L 126.409132 202.079888 
L 126.535975 203.142428 
L 126.662818 202.079888 
L 126.789661 204.255652 
L 126.853083 203.749676 
L 126.916504 201.624404 
L 126.979926 202.434004 
L 127.043347 204.862901 
L 127.106769 204.609864 
L 127.360455 199.752264 
L 127.423876 199.650992 
L 127.487298 200.916076 
L 127.614141 196.716216 
L 127.740984 201.776264 
L 127.867826 193.477719 
L 127.994669 201.169016 
L 128.121512 189.025015 
L 128.184934 191.150095 
L 128.248355 194.287319 
L 128.375198 189.227367 
L 128.43862 190.745391 
L 128.502041 190.694707 
L 128.755727 184.268591 
L 128.88257 191.808027 
L 128.945992 190.694707 
L 129.009413 189.73344 
L 129.136256 192.010379 
L 129.199677 189.935791 
L 129.263099 190.087651 
L 129.32652 190.593531 
L 129.453363 184.825155 
L 129.580206 191.858519 
L 129.643628 191.605676 
L 129.707049 191.301955 
L 129.833892 182.092634 
L 130.087578 165.748773 
L 130.151 163.724869 
L 130.468107 178.247178 
L 130.531529 182.042143 
L 130.658371 176.83033 
L 130.721793 178.29767 
L 130.785214 177.589246 
L 130.912057 175.767694 
L 131.0389 178.60139 
L 131.102322 178.196494 
L 131.229165 178.29767 
L 131.292586 178.044634 
L 131.419429 183.762519 
L 131.482851 182.598706 
L 131.546272 182.446846 
L 131.673115 184.926331 
L 131.799958 181.080682 
L 132.053644 176.526609 
L 132.370751 184.875646 
L 132.497594 181.738615 
L 132.561016 182.042143 
L 132.624437 181.232542 
L 132.687859 181.434894 
L 132.75128 183.307131 
L 132.878123 177.235034 
L 132.941545 179.410991 
L 133.004966 182.194003 
L 133.131809 175.565342 
L 133.258652 179.410991 
L 133.322074 177.892967 
L 133.512338 183.104779 
L 133.639181 178.651882 
L 133.702602 178.702566 
L 133.766024 179.512167 
L 133.892867 176.931506 
L 134.01971 180.321766 
L 134.209974 176.526609 
L 134.273396 176.729154 
L 134.336817 179.056778 
L 134.400239 178.904918 
L 134.527082 174.705058 
L 134.590503 176.071222 
L 134.780768 171.669009 
L 134.907611 179.360306 
L 135.034453 173.490754 
L 135.097875 177.032682 
L 135.161296 176.880822 
L 135.668668 170.20167 
L 135.73209 164.281433 
L 135.795511 164.989857 
L 135.858933 166.558373 
L 135.922354 163.623693 
L 135.985776 164.079081 
L 136.049197 166.963269 
L 136.112619 166.507881 
L 136.17604 165.951317 
L 136.302883 167.114937 
L 136.556569 164.686136 
L 136.61999 165.091033 
L 136.683412 166.305337 
L 136.746833 165.799457 
L 136.873676 165.394561 
L 137.000519 158.462373 
L 137.063941 158.715409 
L 137.317627 164.433293 
L 137.571313 169.240209 
L 137.634734 172.175082 
L 137.698156 171.16313 
L 137.88842 166.609057 
L 137.951841 166.609057 
L 138.078684 172.681154 
L 138.205527 165.192209 
L 138.268949 169.037857 
L 138.33237 166.558373 
L 138.395792 164.230749 
L 138.522635 171.871554 
L 138.712899 164.331925 
L 138.776321 120.259117 
L 138.839742 120.765189 
L 138.903164 121.827826 
L 138.966585 121.57479 
L 139.093428 119.955589 
L 139.15685 121.220577 
L 139.220271 120.613329 
L 139.410535 117.982177 
L 139.473957 116.059256 
L 139.537378 117.830317 
L 139.6008 117.425613 
L 139.664221 115.958081 
L 139.791064 120.259117 
L 139.917907 117.020717 
L 140.04475 124.661329 
L 140.108172 124.458978 
L 140.171593 123.295165 
L 140.298436 127.292674 
L 140.361858 126.027493 
L 140.552122 121.119401 
L 140.615544 120.866365 
L 140.678965 122.333705 
L 140.742386 121.321753 
L 140.805808 118.184529 
L 140.869229 120.107257 
L 140.932651 125.875826 
L 140.996072 125.066226 
L 141.122915 118.488057 
L 141.249758 123.952905 
L 141.31318 122.991638 
L 141.376601 123.34585 
L 141.440023 123.295165 
L 141.566866 121.625281 
L 141.75713 128.05159 
L 141.820552 127.545517 
L 141.883973 128.355118 
L 141.947395 128.152766 
L 142.010816 126.331214 
L 142.074238 126.533566 
L 142.137659 126.128862 
L 142.327923 121.220577 
L 142.454766 128.152766 
L 142.518188 127.950414 
L 142.581609 127.09013 
L 142.771874 136.14759 
L 142.835295 133.71879 
L 142.898717 129.063542 
L 143.02556 141.612439 
L 143.088981 140.802839 
L 143.152403 138.778935 
L 143.279246 142.877427 
L 143.342667 142.422039 
L 143.596353 152.845663 
L 144.547675 230.567847 
L 145.118468 243.62272 
L 145.245311 239.422859 
L 145.308733 240.586671 
L 145.372154 243.572132 
L 145.435576 243.21792 
L 145.498997 241.649308 
L 145.562419 243.015471 
L 145.62584 242.711944 
L 145.752683 236.336223 
L 145.816105 236.538671 
L 145.879526 239.220507 
L 145.942948 237.449447 
L 146.069791 230.517259 
L 146.260055 244.078108 
L 146.386898 232.389399 
L 146.450319 235.324271 
L 146.513741 234.818295 
L 146.640584 242.307048 
L 146.767427 218.980313 
L 146.830848 222.47175 
L 146.89427 168.784821 
L 146.957691 168.885997 
L 147.084534 163.826045 
L 147.147956 165.495737 
L 147.274799 160.182748 
L 147.401642 166.153669 
L 147.465063 165.445245 
L 147.528485 166.760917 
L 147.591906 166.558373 
L 147.655328 163.623693 
L 147.718749 164.129573 
L 147.782171 165.495737 
L 147.845592 164.686136 
L 147.972435 166.862093 
L 148.099278 164.483785 
L 148.162699 166.457197 
L 148.226121 166.052494 
L 148.289542 165.495737 
L 148.479807 167.336367 
L 148.923757 169.948634 
L 149.0506 165.293385 
L 149.177443 167.469149 
L 149.240865 170.454706 
L 149.304286 169.442561 
L 149.367707 165.546421 
L 149.431129 165.849949 
L 149.557972 170.505197 
L 149.621393 169.847457 
L 149.748236 171.567834 
L 149.875079 169.392069 
L 150.001922 173.085858 
L 150.065344 170.302846 
L 150.192187 176.67847 
L 150.31903 169.442561 
L 150.382451 169.796773 
L 150.509294 170.555882 
L 150.572716 168.987173 
L 150.699559 161.498421 
L 150.76298 165.495737 
L 150.826401 165.293385 
L 150.889823 166.457197 
L 150.953244 170.100494 
L 151.016666 168.278749 
L 151.080087 166.558373 
L 151.20693 177.741106 
L 151.270352 176.324258 
L 151.460616 172.428118 
L 151.587459 170.657057 
L 151.714302 173.541246 
L 151.904567 165.748773 
L 151.967988 167.418657 
L 152.094831 164.483785 
L 152.158252 165.799457 
L 152.221674 167.519833 
L 152.285095 166.710233 
L 152.411938 164.281433 
L 152.538781 166.356021 
L 152.602203 164.787505 
L 152.665624 164.939173 
L 152.729046 166.710233 
L 152.792467 165.647597 
L 153.236418 171.517342 
L 153.426682 153.0987 
L 153.553525 149.556772 
L 153.616946 151.78322 
L 153.743789 144.091923 
L 153.934054 153.857808 
L 154.060897 152.997524 
L 154.504847 166.811409 
L 154.63169 166.153669 
L 154.695112 166.862093 
L 154.821955 165.597105 
L 154.948798 169.341385 
L 155.012219 178.044634 
L 155.07564 177.386894 
L 155.202483 180.271082 
L 155.329326 177.48807 
L 155.392748 177.842282 
L 155.90012 187.304639 
L 156.026963 188.771979 
L 156.153806 190.947743 
L 156.280649 189.328543 
L 156.34407 191.35264 
L 156.407492 191.251464 
L 156.470913 188.265907 
L 156.534334 188.367082 
L 156.597756 191.605676 
L 156.661177 190.947743 
L 156.724599 188.164731 
L 156.851442 194.99584 
L 156.914863 193.933107 
L 157.105128 184.015555 
L 157.168549 185.331227 
L 157.231971 185.027507 
L 157.295392 183.15527 
L 157.358814 183.458991 
L 157.422235 184.268591 
L 157.549078 182.143319 
L 157.6125 183.256446 
L 157.739343 179.410991 
L 157.802764 180.777155 
L 157.866186 180.422942 
L 157.993028 176.83033 
L 158.05645 178.44953 
L 158.119871 176.425434 
L 158.246714 183.054095 
L 158.310136 181.839791 
L 158.373557 179.765203 
L 158.436979 183.104779 
L 158.5004 182.699882 
L 158.563822 177.994142 
L 158.627243 179.208446 
L 158.690665 180.72647 
L 158.944351 171.365481 
L 159.071194 174.705058 
L 159.134615 171.011269 
L 159.198037 171.112445 
L 159.261458 172.984682 
L 159.32488 171.770185 
L 159.451722 175.413482 
L 159.641987 170.404021 
L 159.895673 173.288209 
L 160.022516 176.425434 
L 160.149359 172.78233 
L 160.276202 177.589246 
L 160.339623 177.184542 
L 160.529888 171.011269 
L 160.593309 171.264306 
L 160.656731 170.505197 
L 160.720152 171.16313 
L 160.846995 173.338894 
L 160.910416 172.478609 
L 160.973838 173.693106 
L 161.100681 179.006094 
L 161.227524 176.981998 
L 161.354367 177.842282 
L 161.48121 183.054095 
L 161.544631 181.637246 
L 161.608053 181.68793 
L 161.671474 185.078191 
L 161.798317 177.184542 
L 161.861739 180.018046 
L 161.92516 183.509482 
L 161.988582 182.801058 
L 162.052003 182.750567 
L 162.178846 178.904918 
L 162.305689 183.863694 
L 162.432532 179.714518 
L 162.686218 191.35264 
L 162.749639 190.593531 
L 162.813061 191.757343 
L 162.939904 197.070428 
L 163.003325 196.311415 
L 163.066747 196.362004 
L 163.19359 210.833725 
L 163.383854 207.797677 
L 163.510697 201.523228 
L 163.574119 202.585864 
L 163.63754 202.484688 
L 163.827804 203.6485 
L 163.954647 207.595325 
L 164.018069 205.368876 
L 164.08149 206.785629 
L 164.144912 209.771089 
L 164.208333 209.720501 
L 164.398598 208.303653 
L 164.588862 201.87744 
L 164.90597 210.378337 
L 164.969391 208.556689 
L 165.096234 202.181064 
L 165.159655 204.356828 
L 165.286498 198.790804 
L 165.413341 206.33024 
L 165.476763 203.446052 
L 165.730449 191.403131 
L 165.920713 196.86798 
L 165.984135 196.159652 
L 166.047556 196.311415 
L 166.110978 194.641531 
L 166.174399 194.843979 
L 166.491507 203.597816 
L 166.618349 198.031792 
L 166.681771 199.145016 
L 166.808614 201.928028 
L 166.998878 196.108967 
L 167.0623 196.564452 
L 167.189143 195.046427 
L 167.315986 195.40064 
L 167.379407 196.918568 
L 167.442829 196.766804 
L 167.569672 192.010379 
L 167.696515 198.841392 
L 167.950201 191.757343 
L 168.203886 183.205954 
L 168.267308 184.977015 
L 168.330729 188.316591 
L 168.394151 187.760027 
L 168.457572 184.77447 
L 168.520994 185.027507 
L 168.584415 187.405815 
L 168.647837 185.988967 
L 168.711258 183.610658 
L 168.77468 184.167415 
L 168.838101 184.116731 
L 168.901523 183.408307 
L 169.028366 184.217906 
L 169.091787 183.661343 
L 169.155209 184.167415 
L 169.535737 176.273766 
L 169.599159 176.324258 
L 169.726002 178.550706 
L 170.043109 175.767694 
L 170.169952 178.398846 
L 170.233374 179.967554 
L 170.360217 175.21113 
L 170.48706 168.936682 
L 170.740746 148.342275 
L 170.804167 145.002699 
L 170.867588 146.014651 
L 170.93101 146.6219 
L 170.994431 145.508772 
L 171.184696 153.0987 
L 171.37496 172.529294 
L 171.501803 166.710233 
L 171.628646 172.832822 
L 171.818911 165.748773 
L 171.882332 165.900633 
L 172.009175 169.240209 
L 172.072597 169.037857 
L 172.262861 171.517342 
L 172.579968 162.004493 
L 172.64339 158.91776 
L 172.770233 167.165621 
L 172.833654 164.888681 
L 172.897076 165.849949 
L 173.023919 172.630469 
L 173.150762 165.394561 
L 173.214183 165.647597 
L 173.341026 167.216305 
L 173.404448 166.760917 
L 173.467869 167.216305 
L 173.594712 170.707742 
L 173.721555 163.826045 
L 173.848398 165.698281 
L 173.911819 163.522325 
L 173.975241 163.573009 
L 174.228927 166.811409 
L 174.482613 163.927221 
L 174.672877 165.849949 
L 174.736299 166.052494 
L 174.863142 160.031081 
L 174.989985 165.344069 
L 175.116828 159.980397 
L 175.180249 160.941857 
L 175.307092 158.968445 
L 175.433935 162.965761 
L 175.497356 162.662233 
L 175.624199 158.310512 
L 175.687621 160.840681 
L 175.877885 155.867258 
L 176.258414 148.342275 
L 176.5121 142.219687 
L 176.638943 146.419548 
L 176.765786 135.084954 
L 176.829207 135.388675 
L 176.892629 136.704154 
L 177.019472 134.123687 
L 177.146315 135.844062 
L 177.590265 126.938462 
L 177.653687 123.801238 
L 177.717108 124.458978 
L 177.78053 125.926317 
L 177.843951 125.015541 
L 177.907373 123.598693 
L 178.287901 133.819966 
L 178.414744 128.05159 
L 178.731852 134.174178 
L 178.795273 133.516438 
L 178.858695 133.516438 
L 178.922116 134.477899 
L 178.985538 134.174178 
L 179.048959 134.629566 
L 179.112381 135.945239 
L 179.175802 135.540342 
L 179.302645 133.010366 
L 179.366067 169.948634 
L 179.429488 167.266797 
L 179.492909 166.659549 
L 179.556331 167.621009 
L 179.683174 165.849949 
L 179.810017 171.365481 
L 179.873438 171.061761 
L 179.93686 171.365481 
L 180.063703 168.430609 
L 180.127124 170.910094 
L 180.190546 170.35353 
L 180.253967 169.54393 
L 180.317389 171.264306 
L 180.444232 166.558373 
L 180.507653 168.430609 
L 180.634496 171.061761 
L 180.697918 171.314797 
L 180.761339 171.264306 
L 180.824761 172.78233 
L 180.951603 177.63993 
L 181.141868 172.124397 
L 181.205289 172.073906 
L 181.332132 178.044634 
L 181.395554 177.437578 
L 181.458975 177.437578 
L 181.522397 176.779646 
L 181.712661 166.507881 
L 181.839504 173.44007 
L 181.902926 172.276258 
L 181.966347 172.478609 
L 182.09319 176.729154 
L 182.220033 172.326942 
L 182.283455 173.288209 
L 182.346876 172.78233 
L 182.410297 171.922046 
L 182.53714 175.464166 
L 182.600562 174.806234 
L 182.663983 173.743597 
L 182.790826 176.729154 
L 182.917669 170.606373 
L 182.981091 171.314797 
L 183.044512 170.758233 
L 183.171355 174.705058 
L 183.234777 173.794282 
L 183.298198 171.770185 
L 183.36162 172.984682 
L 183.551884 178.550706 
L 183.932413 164.281433 
L 183.995834 165.849949 
L 184.059256 165.647597 
L 184.122677 164.180257 
L 184.186099 164.837997 
L 184.312942 164.028397 
L 184.756892 190.846567 
L 184.883735 189.480403 
L 185.391107 224.394574 
L 185.51795 221.40921 
L 185.644793 226.11495 
L 185.708214 225.406622 
L 185.771636 223.989774 
L 185.835057 224.849962 
L 185.898479 224.748786 
L 185.9619 224.799374 
L 186.025322 224.799374 
L 186.088743 224.49575 
L 186.152165 225.356034 
L 186.215586 223.989774 
L 186.342429 216.753961 
L 186.405851 217.108173 
L 186.469272 216.450337 
L 186.596115 212.048125 
L 186.722958 215.843089 
L 186.786379 215.286525 
L 186.913222 219.486386 
L 187.040065 215.235937 
L 187.103487 216.602101 
L 187.420594 209.518053 
L 187.484016 169.847457 
L 187.547437 171.517342 
L 187.610859 168.632961 
L 187.67428 169.240209 
L 187.737702 173.187034 
L 187.801123 172.529294 
L 187.864545 170.20167 
L 187.927966 170.859409 
L 188.11823 177.892967 
L 188.181652 177.79179 
L 188.245073 176.425434 
L 188.371916 180.928822 
L 188.562181 184.167415 
L 188.752445 177.437578 
L 188.94271 178.803742 
L 189.196396 176.469759 
L 189.513503 174.09781 
L 189.640346 177.741106 
L 189.703767 176.779646 
L 189.767189 177.994142 
L 189.83061 177.690422 
L 189.894032 176.67847 
L 189.957453 177.33621 
L 190.084296 177.386894 
L 190.211139 179.157955 
L 190.464825 177.48807 
L 190.718511 182.598706 
L 190.845354 176.476118 
L 190.908776 177.994142 
L 190.972197 178.247178 
L 191.035618 176.121906 
L 191.162461 177.892967 
L 191.289304 171.618518 
L 191.479569 178.14581 
L 191.54299 178.803742 
L 191.606412 178.044634 
L 191.669833 178.14581 
L 191.860098 184.572119 
L 192.050362 176.931506 
L 192.177205 177.943458 
L 192.240627 177.285718 
L 192.304048 177.842282 
L 192.430891 179.613342 
L 192.494312 178.095318 
L 192.81142 184.77447 
L 192.874841 184.875646 
L 193.001684 183.15527 
L 193.128527 188.771979 
L 193.191949 191.35264 
L 193.25537 190.745391 
L 193.382213 183.054095 
L 193.445635 183.292677 
L 193.826163 184.723979 
L 193.889585 184.167415 
L 193.953006 184.420258 
L 194.079849 184.015555 
L 194.206692 186.039459 
L 194.333535 183.96487 
L 194.396957 184.066046 
L 194.5238 188.012871 
L 194.587221 186.849058 
L 194.650643 185.078191 
L 194.714064 186.596215 
L 194.777486 186.495039 
L 194.840907 186.39367 
L 194.96775 191.706852 
L 195.031172 190.694707 
L 195.094593 193.224876 
L 195.158015 192.97184 
L 195.4117 185.128682 
L 195.538543 190.188827 
L 195.601965 163.471833 
L 195.665386 163.522325 
L 195.792229 165.597105 
L 195.982494 159.322657 
L 196.109337 166.153669 
L 196.172758 165.976563 
L 196.743551 164.230749 
L 196.870394 163.269481 
L 196.997237 168.127081 
L 197.12408 159.322657 
L 197.250923 166.963269 
L 197.314345 162.763409 
L 197.377766 163.421148 
L 197.441188 167.418657 
L 197.504609 166.305337 
L 197.631452 161.903124 
L 197.758295 165.141525 
L 197.94856 159.676869 
L 198.075403 160.688821 
L 198.138824 160.081573 
L 198.265667 160.891173 
L 198.329088 160.233433 
L 198.455931 164.837997 
L 198.519353 164.079081 
L 198.582774 163.471833 
L 198.646196 163.826045 
L 198.773039 159.626185 
L 198.899882 164.635645 
L 199.026725 160.182748 
L 199.280411 163.775361 
L 199.343832 163.168112 
L 199.470675 155.932396 
L 199.534097 156.387784 
L 199.660939 163.269481 
L 199.787782 159.525008 
L 199.914625 164.635645 
L 199.978047 163.674185 
L 200.10489 165.192209 
L 200.295154 160.53696 
L 200.358576 163.826045 
L 200.421997 163.269481 
L 200.485419 161.093524 
L 200.54884 162.763409 
L 200.612262 162.712724 
L 200.675683 160.53696 
L 200.739105 162.004493 
L 200.929369 172.883506 
L 201.056212 166.102985 
L 201.373319 171.82087 
L 201.436741 171.415973 
L 201.563584 166.254845 
L 201.690427 176.931506 
L 201.81727 171.567834 
L 201.944113 173.237718 
L 202.070956 180.06873 
L 202.134377 179.461482 
L 202.197799 180.271082 
L 202.324642 183.863694 
L 202.388063 181.789107 
L 202.451484 182.902234 
L 202.514906 185.685439 
L 202.578327 185.533579 
L 202.70517 183.256446 
L 202.832013 188.265907 
L 202.895435 191.453815 
L 202.958856 190.543039 
L 203.022278 188.569627 
L 203.149121 196.46318 
L 203.275964 202.940076 
L 203.339385 202.130476 
L 203.402807 202.788216 
L 203.52965 206.431513 
L 203.593071 205.470053 
L 203.656493 207.392877 
L 203.783336 215.590149 
L 204.227286 202.181064 
L 204.290707 203.850852 
L 204.354129 203.749676 
L 204.41755 203.193016 
L 204.480972 204.356828 
L 204.607815 202.636452 
L 204.671236 206.33024 
L 204.734658 205.419465 
L 204.798079 202.231652 
L 204.861501 202.383416 
L 204.924922 202.383416 
L 204.988344 202.788216 
L 205.051765 202.28224 
L 205.178608 195.704167 
L 205.305451 198.031792 
L 205.368872 196.86798 
L 205.495715 199.701676 
L 205.876244 190.138143 
L 206.003087 194.388688 
L 206.256773 177.48807 
L 206.320195 176.67847 
L 206.447038 178.753058 
L 206.510459 178.348354 
L 206.637302 175.615834 
L 206.764145 177.48807 
L 206.890988 176.880822 
L 207.081252 183.256446 
L 207.208095 178.500022 
L 207.271517 179.208446 
L 207.334938 179.967554 
L 207.461781 178.247178 
L 207.525203 178.651882 
L 207.778889 176.071222 
L 207.84231 176.273766 
L 207.905732 176.172398 
L 207.969153 177.48807 
L 208.032575 177.437578 
L 208.159417 172.276258 
L 208.28626 179.157955 
L 208.476525 171.669009 
L 208.539946 171.719694 
L 208.666789 171.517342 
L 208.793632 167.621009 
L 208.857054 168.987173 
L 208.920475 171.770185 
L 209.047318 164.180257 
L 209.174161 170.454706 
L 209.301004 163.876537 
L 209.364426 165.597105 
L 209.427847 164.331925 
L 209.491269 162.814093 
L 209.55469 164.331925 
L 209.618111 163.421148 
L 209.681533 162.156161 
L 209.744954 162.965761 
L 209.808376 162.004493 
L 209.935219 155.02162 
L 210.125483 159.474324 
L 210.188905 159.018936 
L 210.252326 159.474324 
L 210.379169 158.006984 
L 210.442591 158.664724 
L 210.506012 158.7659 
L 210.632855 151.884396 
L 210.82312 160.992349 
L 210.886541 159.778045 
L 211.013384 155.5275 
L 211.203648 139.841379 
L 211.26707 141.308911 
L 211.584177 134.882602 
L 211.71102 142.219687 
L 211.774442 136.906699 
L 211.901285 170.606373 
L 211.964706 170.808918 
L 212.091549 169.139033 
L 212.218392 172.023221 
L 212.345235 169.999318 
L 212.598921 172.428118 
L 212.725764 171.415973 
L 212.852607 173.187034 
L 213.042871 169.695597 
L 213.106293 169.948634 
L 213.233136 162.814093 
L 213.359979 171.466658 
L 213.486822 170.505197 
L 213.550243 172.023221 
L 213.613665 171.365481 
L 213.740508 171.82087 
L 213.867351 165.951317 
L 213.994193 173.035173 
L 214.057615 169.695597 
L 214.121036 170.302846 
L 214.184458 170.404021 
L 214.311301 164.584961 
L 214.374722 165.242893 
L 214.438144 165.495737 
L 214.501565 164.989857 
L 214.755251 166.862093 
L 214.818673 166.760917 
L 214.945516 164.989857 
L 215.008937 164.989857 
L 215.072359 164.180257 
L 215.13578 164.787505 
L 215.199202 165.242893 
L 215.452887 163.826045 
L 215.57973 165.495737 
L 215.643152 165.040349 
L 215.833416 160.132257 
L 215.896838 159.120112 
L 215.960259 159.474324 
L 216.087102 164.433293 
L 216.213945 158.513057 
L 216.340788 160.638136 
L 216.784738 155.375832 
L 216.911581 149.506088 
L 216.975003 151.530184 
L 217.038424 150.82176 
L 217.101846 147.330323 
L 217.228689 152.845663 
L 217.355532 144.901523 
L 217.482375 150.97362 
L 217.609218 146.824251 
L 217.736061 150.97362 
L 217.799482 149.354227 
L 217.862904 151.277148 
L 217.926325 151.175972 
L 217.989747 146.723075 
L 218.053168 146.824251 
L 218.11659 148.39296 
L 218.243432 141.511263 
L 218.370275 148.342275 
L 218.497118 145.306227 
L 218.687383 147.127972 
L 218.750804 147.026796 
L 218.877647 147.58336 
L 219.00449 146.419548 
L 219.067912 147.684535 
L 219.131333 147.633851 
L 219.194755 147.735027 
L 219.258176 150.113336 
L 219.321598 150.062651 
L 219.448441 146.014651 
L 219.511862 146.115827 
L 219.575284 145.913475 
L 219.702126 153.655264 
L 219.828969 145.002699 
L 219.892391 145.508772 
L 219.955812 145.96416 
L 220.27292 141.055875 
L 220.336341 141.258227 
L 220.526606 139.284815 
L 220.653449 134.730742 
L 220.71687 135.591026 
L 220.843713 134.933287 
L 220.907135 135.894554 
L 221.033978 132.706838 
L 221.097399 133.263402 
L 221.16082 134.174178 
L 221.287663 129.974318 
L 221.351085 130.885286 
L 221.541349 136.653663 
L 221.731614 127.596202 
L 221.795035 128.355118 
L 221.921878 130.63225 
L 221.9853 127.798554 
L 222.048721 128.810506 
L 222.112143 134.781427 
L 222.175564 133.21291 
L 222.238986 126.988954 
L 222.302407 127.039638 
L 222.42925 130.126178 
L 222.492672 130.176862 
L 222.619514 128.456486 
L 222.682936 128.506978 
L 222.746357 128.86119 
L 222.8732 131.13813 
L 222.936622 130.429898 
L 223.000043 130.48039 
L 223.063465 131.543026 
L 223.126886 130.935778 
L 223.190308 129.569614 
L 223.317151 132.25145 
L 223.507415 128.20345 
L 223.570837 128.658838 
L 223.634258 128.405802 
L 223.761101 134.275354 
L 223.824523 133.111542 
L 223.887944 131.745378 
L 224.014787 134.275354 
L 224.078208 132.301942 
L 224.205051 139.689711 
L 224.268473 137.10905 
L 224.331894 135.844062 
L 224.458737 141.207735 
L 224.522159 140.600487 
L 224.58558 142.118511 
L 224.649002 141.055875 
L 224.712423 141.106559 
L 224.839266 146.874936 
L 224.902688 146.874936 
L 225.156374 165.394561 
L 225.283217 169.898142 
L 225.410059 178.904918 
L 225.473481 178.500022 
L 225.727167 196.21024 
L 225.790588 196.918568 
L 225.85401 196.716216 
L 225.980853 202.788216 
L 226.044274 202.636452 
L 226.107696 202.889489 
L 226.234539 206.937489 
L 226.29796 206.279652 
L 226.424803 205.065252 
L 226.488225 205.52064 
L 226.615068 208.000125 
L 226.678489 206.8869 
L 226.805332 210.226477 
L 226.932175 202.332828 
L 227.059018 207.190525 
L 227.249282 202.535276 
L 227.312704 201.87744 
L 227.439547 213.009489 
L 227.56639 202.940076 
L 227.629811 205.723089 
L 227.820076 215.843089 
L 227.946919 206.178476 
L 228.01034 209.669913 
L 228.137183 155.325148 
L 228.200605 152.086748 
L 228.264026 152.2891 
L 228.327447 154.161336 
L 228.390869 152.795172 
L 228.45429 150.922936 
L 228.644555 158.310512 
L 228.707976 156.792488 
L 228.834819 153.0987 
L 228.898241 154.667408 
L 229.088505 159.626185 
L 229.151927 160.182748 
L 229.27877 158.209336 
L 229.342191 159.018936 
L 229.469034 156.134748 
L 229.532456 156.691312 
L 229.659299 158.361197 
L 230.103249 159.423833 
L 230.230092 156.3371 
L 230.293513 158.310512 
L 230.356935 157.905808 
L 230.420356 158.108161 
L 230.483778 159.423833 
L 230.610621 157.399736 
L 230.737464 159.727361 
L 230.800885 159.271972 
L 230.927728 160.789996 
L 231.054571 158.158845 
L 231.308257 165.141525 
L 231.371678 166.558373 
L 231.561943 159.221288 
L 231.625364 159.322657 
L 231.752207 160.334609 
L 231.87905 154.313196 
L 232.005893 159.120112 
L 232.069315 158.968445 
L 232.132736 159.879221 
L 232.196158 159.423833 
L 232.259579 159.373149 
L 232.386422 166.254845 
L 232.449844 166.153669 
L 232.640108 159.778045 
L 232.703529 160.587645 
L 232.766951 160.031081 
L 232.830372 159.373149 
L 232.893794 159.778045 
L 232.957215 159.5755 
L 233.084058 158.108161 
L 233.210901 159.322657 
L 233.274323 158.462373 
L 233.401166 160.891173 
L 233.464587 160.739312 
L 233.528009 159.423833 
L 233.59143 159.525008 
L 233.718273 158.209336 
L 233.845116 161.1947 
L 233.908538 159.676869 
L 233.971959 157.804633 
L 234.03538 158.267151 
L 234.415909 161.043033 
L 234.606174 152.542136 
L 234.669595 153.40242 
L 234.733017 153.048208 
L 234.796438 154.06016 
L 234.923281 151.580675 
L 235.050124 154.464864 
L 235.113546 154.161336 
L 235.240389 157.349245 
L 235.367232 152.744488 
L 235.494074 156.843172 
L 235.557496 156.741996 
L 235.684339 162.662233 
L 235.74776 160.53696 
L 235.811182 158.057669 
L 235.938025 161.144209 
L 236.001446 159.120112 
L 236.128289 165.495737 
L 236.191711 178.904918 
L 236.255132 177.083366 
L 236.381975 175.818378 
L 236.445397 176.223082 
L 236.508818 176.273766 
L 236.635661 170.960585 
L 236.762504 180.745549 
L 237.269876 183.15527 
L 237.523562 190.694707 
L 237.586983 189.025015 
L 237.650405 182.902234 
L 237.713826 185.229858 
L 237.840669 192.313907 
L 237.904091 188.620119 
L 237.967512 189.885107 
L 238.094355 194.084967 
L 238.28462 183.863694 
L 238.348041 185.58407 
L 238.411462 185.280543 
L 238.538305 182.750567 
L 238.665148 186.343179 
L 238.72857 185.938283 
L 238.791991 184.470942 
L 238.918834 186.747882 
L 239.109099 181.637246 
L 239.17252 177.63993 
L 239.299363 182.952918 
L 239.362785 181.789107 
L 239.489628 184.673295 
L 239.743314 182.801058 
L 239.806735 184.066046 
L 239.996999 179.967554 
L 240.123842 176.83033 
L 240.250685 182.952918 
L 240.377528 175.71701 
L 240.504371 179.056778 
L 240.567793 178.60139 
L 240.694636 183.509482 
L 240.821479 178.29767 
L 240.8849 178.348354 
L 241.011743 179.512167 
L 241.32885 172.883506 
L 241.455693 181.890282 
L 241.519115 181.586754 
L 241.772801 170.859409 
L 242.026487 177.842282 
L 242.15333 178.753058 
L 242.216751 181.232542 
L 242.280173 180.928822 
L 242.407016 168.987173 
L 242.59728 178.348354 
L 242.724123 170.859409 
L 242.850966 181.283034 
L 243.04123 171.567834 
L 243.168073 180.018046 
L 243.231495 179.613342 
L 243.421759 177.386894 
L 243.548602 182.34567 
L 243.612024 178.904918 
L 243.675445 179.613342 
L 243.86571 190.340495 
L 243.929131 190.391179 
L 244.119395 197.728264 
L 244.182817 196.766804 
L 244.373081 199.904028 
L 244.436503 198.841392 
L 244.626767 188.518943 
L 244.690189 190.391179 
L 244.817032 184.825155 
L 244.943875 190.087651 
L 245.007296 187.861203 
L 245.134139 191.200779 
L 245.197561 189.530895 
L 245.260982 189.73344 
L 245.514668 191.301955 
L 245.641511 189.075507 
L 245.768354 181.283034 
L 245.831775 182.649391 
L 245.895197 186.039459 
L 245.958618 185.634755 
L 246.148883 183.003603 
L 246.275726 179.25913 
L 246.339147 180.06873 
L 246.402569 179.461482 
L 246.46599 177.589246 
L 246.592833 189.783931 
L 246.719676 174.755742 
L 246.783098 175.05927 
L 247.100205 183.863694 
L 247.163626 183.914379 
L 247.227048 184.217906 
L 247.480734 181.789107 
L 247.607577 186.444355 
L 247.670998 185.331227 
L 247.797841 182.042143 
L 247.924684 183.15527 
L 247.988106 185.027507 
L 248.051527 184.926331 
L 248.17837 181.890282 
L 248.241792 182.446846 
L 248.305213 183.104779 
L 248.432056 189.025015 
L 248.495477 186.646707 
L 248.558899 186.292495 
L 248.62232 188.873155 
L 248.749163 176.324258 
L 248.812585 178.44953 
L 248.876006 181.080682 
L 249.002849 176.121906 
L 249.066271 178.398846 
L 249.193114 166.912585 
L 249.256535 170.302846 
L 249.319957 174.705058 
L 249.383378 171.314797 
L 249.4468 172.175082 
L 249.510221 176.476118 
L 249.637064 168.329433 
L 249.763907 176.67847 
L 249.89075 170.302846 
L 249.954171 171.922046 
L 250.017593 170.707742 
L 250.081014 170.555882 
L 250.144436 171.97273 
L 250.588386 164.837997 
L 250.651808 165.900633 
L 250.715229 169.999318 
L 250.778651 169.796773 
L 250.842072 167.165621 
L 250.968915 172.428118 
L 251.15918 159.5755 
L 251.222601 161.650281 
L 251.349444 166.001809 
L 251.412865 171.011269 
L 251.476287 169.54393 
L 251.983659 125.723966 
L 252.04708 126.483074 
L 252.110502 129.063542 
L 252.173923 126.988954 
L 252.237345 127.191305 
L 252.364188 135.084954 
L 252.491031 186.899743 
L 252.554452 188.873155 
L 252.681295 183.661343 
L 252.808138 190.340495 
L 252.871559 189.834615 
L 252.934981 190.492355 
L 252.998402 189.783931 
L 253.061824 190.644215 
L 253.188667 194.489864 
L 253.252088 194.236828 
L 253.378931 201.270288 
L 253.442353 204.812216 
L 253.822882 190.391179 
L 253.949725 197.930616 
L 254.013146 196.46318 
L 254.20341 203.749676 
L 254.266832 203.446052 
L 254.330253 204.002616 
L 254.457096 200.814804 
L 254.583939 206.8869 
L 254.647361 205.166428 
L 254.710782 203.09184 
L 254.837625 205.52064 
L 254.901047 201.523228 
L 254.964468 202.079888 
L 255.154733 207.392877 
L 255.218154 210.226477 
L 255.281576 210.074713 
L 255.408419 209.518053 
L 255.47184 209.669913 
L 255.535262 208.607277 
L 255.662104 204.205064 
L 255.788947 211.491465 
L 255.91579 201.928028 
L 255.979212 204.103888 
L 256.042633 206.735041 
L 256.106055 205.773677 
L 256.169476 206.026713 
L 256.296319 210.074713 
L 256.423162 204.154477 
L 256.550005 207.494052 
L 256.613427 209.619325 
L 256.676848 209.467464 
L 256.930534 203.2437 
L 257.057377 203.749676 
L 257.374484 205.014664 
L 257.501327 200.106476 
L 257.755013 208.910901 
L 257.818435 207.797677 
L 257.945278 195.299367 
L 258.008699 195.754852 
L 258.072121 202.535276 
L 258.135542 199.600404 
L 258.198964 195.906616 
L 258.325807 204.103888 
L 258.389228 200.308828 
L 258.452649 201.523228 
L 258.516071 203.800264 
L 258.579492 203.041252 
L 258.769757 201.928028 
L 258.833178 202.737628 
L 258.8966 202.181064 
L 258.960021 202.889489 
L 259.023443 206.785629 
L 259.086864 205.976028 
L 259.150286 201.169016 
L 259.213707 202.636452 
L 259.467393 213.110761 
L 259.594236 208.607277 
L 259.721079 210.783137 
L 259.974765 203.800264 
L 260.038186 205.621913 
L 260.101608 209.163937 
L 260.165029 208.050713 
L 260.228451 207.54464 
L 260.291872 210.175889 
L 260.482137 201.219604 
L 260.545558 176.931506 
L 260.60898 177.032682 
L 260.735823 178.348354 
L 260.799244 179.512167 
L 260.989509 170.859409 
L 261.05293 173.187034 
L 261.116352 173.288209 
L 261.243195 171.16313 
L 261.370037 178.753058 
L 261.623723 164.584961 
L 261.687145 165.495737 
L 261.877409 169.493245 
L 262.004252 166.204161 
L 262.067674 169.037857 
L 262.131095 168.835506 
L 262.257938 163.522325 
L 262.448203 165.344069 
L 262.511624 164.483785 
L 262.638467 170.100494 
L 262.701889 167.874045 
L 262.892153 157.045524 
L 263.082417 167.013761 
L 263.20926 165.698281 
L 263.272682 165.647597 
L 263.399525 158.057669 
L 263.462946 158.563548 
L 263.526368 159.525008 
L 263.589789 159.018936 
L 263.653211 158.513057 
L 263.716632 159.069621 
L 264.224004 146.419548 
L 264.287425 147.836396 
L 264.350847 152.59282 
L 264.414268 151.833712 
L 264.541111 148.089239 
L 264.604533 148.443451 
L 264.731376 156.995033 
L 264.858219 139.740202 
L 264.92164 142.169003 
L 264.985062 143.535359 
L 265.238748 118.437565 
L 265.555855 102.04302 
L 265.619276 102.599583 
L 265.746119 108.67168 
L 265.809541 105.028384 
L 265.872962 105.079068 
L 265.999805 118.639917 
L 266.063227 114.490741 
L 266.760863 165.293385 
L 266.951128 172.883506 
L 267.014549 172.681154 
L 267.07797 173.794282 
L 267.204813 179.613342 
L 267.268235 176.880822 
L 267.331656 177.083366 
L 267.395078 180.018046 
L 267.521921 172.377433 
L 267.585342 175.362798 
L 267.648764 178.044634 
L 267.712185 176.324258 
L 267.839028 178.348354 
L 267.90245 175.970046 
L 267.965871 176.981998 
L 268.092714 184.217906 
L 268.219557 176.223082 
L 268.3464 190.188827 
L 268.409822 188.822471 
L 268.473243 184.167415 
L 268.536664 184.723979 
L 268.600086 186.495039 
L 268.79035 153.0987 
L 268.853772 153.705948 
L 268.917193 157.247876 
L 268.980615 154.768584 
L 269.044036 151.226463 
L 269.361144 161.650281 
L 269.424565 163.117621 
L 269.551408 159.828536 
L 269.678251 167.570518 
L 269.741673 165.192209 
L 269.868516 159.221288 
L 269.931937 159.828536 
L 270.05878 155.831221 
L 270.122201 156.792488 
L 270.185623 153.756632 
L 270.249044 154.230906 
L 270.692995 157.551596 
L 270.756416 153.199876 
L 270.819838 153.25056 
L 270.883259 154.161336 
L 271.010102 152.542136 
L 271.073524 152.542136 
L 271.136945 151.732536 
L 271.263788 154.86976 
L 271.32721 153.705948 
L 271.707738 161.144209 
L 271.77116 160.739312 
L 271.898003 170.758233 
L 271.961424 169.898142 
L 272.21511 151.530184 
L 272.341953 153.807124 
L 272.468796 149.101384 
L 272.595639 155.122796 
L 272.659061 152.997524 
L 272.976168 165.293385 
L 273.039589 165.141525 
L 273.229854 158.614233 
L 273.293275 160.182748 
L 273.356697 159.778045 
L 273.420118 157.349245 
L 273.48354 157.9563 
L 273.546961 160.283924 
L 273.610383 159.5755 
L 273.737226 156.893856 
L 273.92749 161.1947 
L 273.990912 161.346561 
L 274.117755 159.626185 
L 274.244597 156.033572 
L 274.37144 169.139033 
L 274.434862 167.216305 
L 274.625126 156.900987 
L 275.005655 153.604772 
L 275.386184 171.466658 
L 275.449606 170.910094 
L 275.513027 170.859409 
L 275.703291 176.83033 
L 275.830134 176.577294 
L 275.956977 177.48807 
L 276.020399 180.321766 
L 276.08382 178.500022 
L 276.147242 177.133858 
L 276.274085 185.735931 
L 276.527771 176.729154 
L 276.718035 184.723979 
L 276.781457 161.548912 
L 276.844878 161.700773 
L 276.9083 164.939173 
L 276.971721 164.281433 
L 277.035143 162.004493 
L 277.098564 163.168112 
L 277.161985 163.117621 
L 277.225407 162.814093 
L 277.35225 168.057511 
L 277.859622 172.731646 
L 277.923043 176.627978 
L 277.986465 174.958094 
L 278.049886 172.225573 
L 278.176729 179.91687 
L 278.303572 170.960585 
L 278.430415 178.550706 
L 278.493837 175.565342 
L 278.557258 177.79179 
L 278.620679 180.87833 
L 278.684101 179.10727 
L 278.937787 171.213622 
L 279.001208 171.618518 
L 279.06463 171.517342 
L 279.191473 170.910094 
L 279.254894 171.061761 
L 279.381737 172.428118 
L 279.445159 172.377433 
L 279.50858 171.770185 
L 279.635423 173.187034 
L 279.762266 168.784821 
L 279.952531 171.871554 
L 280.142795 175.970046 
L 280.206216 178.702566 
L 280.333059 171.567834 
L 280.459902 177.842282 
L 280.523324 176.071222 
L 280.650167 169.442561 
L 280.713588 169.999318 
L 280.77701 172.883506 
L 280.840431 172.073906 
L 280.903853 170.35353 
L 280.967274 170.960585 
L 281.157539 171.97273 
L 281.22096 173.237718 
L 281.284382 173.136542 
L 281.411224 173.187034 
L 281.474646 171.719694 
L 281.66491 177.538754 
L 281.728332 175.818378 
L 281.791753 176.121906 
L 282.108861 182.649391 
L 282.235704 176.577294 
L 282.299125 177.538754 
L 282.362547 177.437578 
L 282.425968 177.589246 
L 282.616233 184.521627 
L 282.679654 183.307131 
L 282.743076 184.470942 
L 282.869918 190.795883 
L 282.996761 182.851742 
L 283.187026 191.959695 
L 283.313869 190.947743 
L 283.440712 197.475228 
L 283.504133 195.046427 
L 283.567555 191.605676 
L 283.821241 198.942664 
L 283.884662 199.195604 
L 283.948084 197.323464 
L 284.011505 198.689628 
L 284.138348 201.928028 
L 284.20177 201.573816 
L 284.772563 219.536974 
L 284.835984 220.144126 
L 284.899406 214.072125 
L 284.962827 215.741913 
L 285.153092 209.720501 
L 285.406778 202.181064 
L 285.660464 205.11584 
L 285.723885 204.508689 
L 285.787306 202.535276 
L 285.914149 208.101301 
L 285.977571 206.8869 
L 286.231257 201.219604 
L 286.3581 195.906616 
L 286.675207 201.118428 
L 286.865472 190.846567 
L 286.928893 191.909203 
L 287.055736 186.899743 
L 287.182579 194.287319 
L 287.309422 182.194003 
L 287.372843 182.446846 
L 287.436265 182.446846 
L 287.499686 181.586754 
L 287.626529 184.521627 
L 287.689951 184.015555 
L 287.816794 184.217906 
L 287.943637 182.092634 
L 288.07048 183.762519 
L 288.133901 183.256446 
L 288.260744 188.063555 
L 288.387587 182.952918 
L 288.451009 183.96487 
L 288.51443 185.128682 
L 288.577851 185.078191 
L 288.641273 185.331227 
L 288.768116 177.184542 
L 288.831537 178.803742 
L 288.894959 181.991458 
L 288.95838 180.372258 
L 289.021802 180.625294 
L 289.085223 183.003603 
L 289.212066 178.348354 
L 289.275488 178.753058 
L 289.402331 177.994142 
L 289.465752 179.25913 
L 289.78286 167.92473 
L 289.846281 170.049809 
L 289.909703 169.189718 
L 289.973124 164.483785 
L 290.036545 166.153669 
L 290.099967 170.252161 
L 290.163388 167.469149 
L 290.22681 164.787505 
L 290.353653 168.531785 
L 290.607339 160.941857 
L 290.67076 162.105669 
L 290.734182 165.900633 
L 290.797603 165.040349 
L 291.114711 157.9563 
L 291.178132 158.209336 
L 291.304975 157.096209 
L 291.368397 157.450421 
L 291.495239 160.233433 
L 291.558661 160.081573 
L 291.748925 152.795172 
L 291.812347 153.351736 
L 291.875768 152.542136 
L 291.93919 154.313196 
L 292.002611 159.676869 
L 292.066033 157.753948 
L 292.573405 107.558552 
L 292.700248 109.885984 
L 292.763669 108.620996 
L 292.827091 108.67168 
L 292.953933 117.931493 
L 293.080776 171.669009 
L 293.144198 173.288209 
L 293.271041 165.040349 
L 293.397884 173.389385 
L 293.461305 171.669009 
L 293.524727 170.606373 
L 293.588148 171.264306 
L 293.65157 171.112445 
L 293.968677 174.047318 
L 294.032099 177.589246 
L 294.09552 176.425434 
L 294.158942 172.175082 
L 294.222363 172.832822 
L 294.285785 173.490754 
L 294.412627 164.079081 
L 294.53947 170.555882 
L 294.602892 170.150985 
L 294.729735 173.59193 
L 294.793156 173.490754 
L 294.983421 170.707742 
L 295.046842 170.505197 
L 295.173685 172.225573 
L 295.237107 172.124397 
L 295.36395 173.642421 
L 295.681057 167.266797 
L 295.744479 167.823361 
L 295.871321 172.073906 
L 295.934743 171.264306 
L 295.998164 171.719694 
L 296.061586 171.770185 
L 296.188429 168.127081 
L 296.25185 164.281433 
L 296.315272 166.052494 
L 296.378693 171.011269 
L 296.442115 169.847457 
L 296.568958 163.319973 
L 296.759222 166.102985 
L 297.07633 159.778045 
L 297.139751 160.739312 
L 297.266594 164.433293 
L 297.393437 158.614233 
L 297.456858 160.233433 
L 297.647123 157.573181 
L 297.96423 156.235924 
L 298.091073 150.568724 
L 298.154495 151.934888 
L 298.217916 154.7179 
L 298.281338 154.06016 
L 298.344759 153.807124 
L 298.408181 155.426324 
L 298.535024 146.77376 
L 298.598445 146.874936 
L 298.661866 149.303736 
L 298.725288 147.532676 
L 298.788709 148.089239 
L 298.915552 153.604772 
L 298.978974 151.78322 
L 299.105817 154.262512 
L 299.359503 147.330323 
L 299.422924 146.672584 
L 299.613189 149.657948 
L 299.740032 146.6219 
L 299.866875 153.857808 
L 299.930296 153.149384 
L 300.057139 156.539644 
L 300.183982 151.429008 
L 300.247403 152.491452 
L 300.310825 152.947032 
L 300.437668 151.833712 
L 300.501089 150.6699 
L 300.564511 150.82176 
L 300.881618 155.223972 
L 300.94504 153.958984 
L 301.071883 145.508772 
L 301.135304 153.301052 
L 301.198726 151.833712 
L 301.325569 154.262512 
L 301.38899 153.958984 
L 301.452412 153.503596 
L 301.515833 154.161336 
L 301.642676 158.968445 
L 301.769519 156.64082 
L 301.959783 159.676869 
L 302.086626 156.893856 
L 302.213469 152.643312 
L 302.276891 153.604772 
L 302.467155 158.614233 
L 302.530577 158.158845 
L 302.593998 157.804633 
L 302.720841 160.334609 
L 302.847684 154.262512 
L 302.911106 154.515548 
L 303.037948 160.789996 
L 303.10137 160.3851 
L 303.228213 162.965761 
L 303.291634 161.144209 
L 303.481899 150.214512 
L 303.735585 159.373149 
L 303.799006 161.1947 
L 303.862428 160.941857 
L 303.989271 159.018936 
L 304.052692 158.91776 
L 304.116114 158.563548 
L 304.369799 161.093524 
L 304.433221 160.840681 
L 304.496642 161.043033 
L 304.560064 161.093524 
L 304.686907 156.084257 
L 304.750328 156.64082 
L 304.940593 160.638136 
L 305.004014 159.828536 
L 305.067436 159.018936 
L 305.130857 159.373149 
L 305.194279 159.018936 
L 305.321122 165.495737 
L 305.701651 139.133147 
L 305.765072 138.576391 
L 306.082179 126.230038 
L 307.350609 199.802852 
L 307.477452 204.002616 
L 307.540873 203.597816 
L 307.604295 202.434004 
L 307.667716 202.788216 
L 307.794559 208.050713 
L 307.857981 204.559276 
L 307.921402 205.014664 
L 307.984824 205.976028 
L 308.111667 199.549816 
L 308.175088 201.270288 
L 308.23851 200.106476 
L 308.301931 196.969252 
L 308.365353 199.195604 
L 308.428774 200.865392 
L 308.492196 198.031792 
L 308.555617 198.740216 
L 308.619039 204.356828 
L 308.68246 203.952028 
L 308.745881 200.410004 
L 308.809303 201.87744 
L 308.936146 203.547228 
L 308.999567 206.026713 
L 309.062989 204.964076 
L 309.189832 199.650992 
L 309.253253 153.25056 
L 309.316675 154.262512 
L 309.380096 151.78322 
L 309.443518 151.884396 
L 309.506939 154.86976 
L 309.570361 154.464864 
L 309.633782 151.4795 
L 309.697204 152.693996 
L 309.824047 160.283924 
L 309.887468 160.182748 
L 310.014311 159.676869 
L 310.077733 160.031081 
L 310.267997 165.597105 
L 310.331418 165.293385 
L 310.521683 159.879221 
L 310.585104 160.031081 
L 310.711947 160.789996 
L 310.83879 158.84819 
L 311.346162 158.310512 
L 311.409584 158.614233 
L 311.473005 158.411688 
L 311.536427 158.361197 
L 311.599848 158.7659 
L 311.726691 156.185433 
L 311.790112 157.045524 
L 311.916955 159.879221 
L 311.980377 158.968445 
L 312.10722 163.775361 
L 312.170641 161.296069 
L 312.234063 161.346561 
L 312.360906 166.052494 
L 312.424327 166.305337 
L 312.487749 169.037857 
L 312.678013 158.715409 
L 312.741435 159.676869 
L 312.804856 158.715409 
L 312.931699 159.980397 
L 313.058542 154.06016 
L 313.248806 162.308021 
L 313.312228 162.004493 
L 313.375649 160.739312 
L 313.439071 161.852633 
L 313.565914 165.951317 
L 313.756178 163.117621 
L 313.883021 158.968445 
L 313.946443 158.968445 
L 314.073286 158.209336 
L 314.136707 158.513057 
L 314.26355 157.602088 
L 314.390393 160.031081 
L 314.453814 159.626185 
L 314.517236 159.221288 
L 314.644079 160.334609 
L 314.770922 158.513057 
L 314.834343 159.322657 
L 315.024608 168.127081 
L 315.278294 154.992713 
L 315.595401 153.655264 
L 315.722244 160.132257 
L 315.785666 157.349245 
L 315.97593 165.091033 
L 316.039351 164.028397 
L 316.166194 161.852633 
L 316.293037 167.013761 
L 316.356459 166.052494 
L 316.41988 165.445245 
L 316.863831 173.389385 
L 316.927252 173.035173 
L 316.990674 173.136542 
L 317.117517 167.671694 
L 317.180938 168.683645 
L 317.307781 173.136542 
L 317.371202 190.290003 
L 317.434624 187.658851 
L 317.561467 192.415275 
L 317.751731 188.316591 
L 317.815153 188.923839 
L 317.941996 194.50875 
L 318.385946 196.058379 
L 318.449368 194.287319 
L 318.703054 200.207652 
L 318.766475 199.650992 
L 318.893318 195.704167 
L 319.020161 203.294288 
L 319.147004 197.475228 
L 319.273847 207.848264 
L 319.464111 189.126191 
L 319.590954 192.921155 
L 319.717797 188.923839 
L 319.908062 191.35264 
L 319.971483 190.947743 
L 320.28859 181.738615 
L 320.352012 183.813203 
L 320.415433 183.256446 
L 320.478855 182.396355 
L 320.732541 184.521627 
L 320.795962 184.977015 
L 321.049648 182.194003 
L 321.303334 172.529294 
L 321.430177 177.943458 
L 321.55702 169.847457 
L 321.810706 178.247178 
L 322.00097 171.871554 
L 322.064392 172.225573 
L 322.127813 172.326942 
L 322.254656 171.365481 
L 322.508342 165.141525 
L 322.571764 166.507881 
L 322.698607 172.124397 
L 322.82545 171.365481 
L 322.952293 163.471833 
L 323.015714 165.495737 
L 323.205978 170.859409 
L 323.2694 169.139033 
L 323.332821 170.808918 
L 323.396243 179.360306 
L 323.459664 177.842282 
L 323.586507 156.185433 
L 323.776772 166.507881 
L 323.903615 164.129573 
L 324.030458 170.707742 
L 324.220722 164.331925 
L 324.410987 171.16313 
L 324.537829 167.418657 
L 324.664672 173.085858 
L 324.728094 171.97273 
L 324.791515 171.922046 
L 325.045201 185.229858 
L 325.108623 184.622803 
L 325.172044 185.988967 
L 325.298887 192.162239 
L 325.42573 190.391179 
L 325.489152 220.498338 
L 325.552573 220.093538 
L 325.933102 205.773677 
L 325.996523 203.49664 
L 326.313631 210.125301 
L 326.377052 208.354241 
L 326.440474 209.214525 
L 326.69416 213.161349 
L 326.947846 197.070428 
L 327.011267 200.66304 
L 327.074689 206.8869 
L 327.13811 203.749676 
L 327.201532 201.270288 
L 327.264953 204.458101 
L 327.328375 204.154477 
L 327.455217 195.451228 
L 327.518639 197.475228 
L 327.58206 197.222192 
L 327.645482 197.323464 
L 327.772325 208.404925 
L 327.899168 195.704167 
L 327.962589 195.957204 
L 328.343118 210.378337 
L 328.40654 209.821677 
L 328.533383 205.773677 
L 328.596804 207.94944 
L 328.660226 207.898852 
L 328.723647 207.342289 
L 328.85049 210.074713 
L 328.913911 208.607277 
L 328.977333 209.416877 
L 329.040754 209.619325 
L 329.104176 208.961489 
L 329.231019 215.337113 
L 329.29444 212.857725 
L 329.357862 208.759041 
L 329.421283 210.783137 
L 329.484705 213.060077 
L 329.548126 211.997537 
L 329.801812 214.628689 
L 329.928655 207.038665 
L 329.992077 208.556689 
L 330.055498 210.884313 
L 330.372605 196.260828 
L 330.689713 202.889489 
L 330.816556 195.097016 
L 330.943399 204.458101 
L 331.070242 195.40064 
L 331.133663 197.070428 
L 331.197085 197.880028 
L 331.260506 196.311415 
L 331.323928 196.716216 
L 331.387349 196.766804 
L 331.704456 190.087651 
L 332.021564 197.626991 
L 332.148407 197.323464 
L 332.27525 192.415275 
L 332.402093 187.911695 
L 332.465514 188.265907 
L 332.592357 201.371464 
L 332.655779 200.308828 
L 333.16315 112.264293 
L 333.289993 116.211117 
L 333.353415 112.618505 
L 333.416836 115.097989 
L 333.543679 133.415263 
L 333.670522 180.574802 
L 333.733944 182.446846 
L 333.860787 177.032682 
L 334.051051 185.078191 
L 334.114473 184.622803 
L 334.177894 182.952918 
L 334.621844 198.183652 
L 334.685266 197.930616 
L 335.002373 183.560167 
L 335.129216 191.453815 
L 335.192638 188.923839 
L 335.382902 197.82944 
L 335.509745 196.86798 
L 335.636588 193.579088 
L 335.763431 198.284828 
L 335.826853 195.653579 
L 335.890274 196.311415 
L 335.953696 198.133064 
L 336.017117 197.070428 
L 336.080538 195.198192 
L 336.14396 196.260828 
L 336.207381 197.525816 
L 336.270803 196.362004 
L 336.58791 202.990664 
L 336.778175 201.371464 
L 336.841596 199.701676 
L 336.905018 199.752264 
L 336.968439 203.800264 
L 337.031861 201.624404 
L 337.158704 192.718803 
L 337.222125 197.67758 
L 337.285547 197.222192 
L 337.348968 195.451228 
L 337.412389 197.728264 
L 337.475811 197.323464 
L 337.539232 195.80544 
L 337.602654 196.766804 
L 337.729497 196.362004 
L 337.85634 198.23424 
L 337.919761 196.21024 
L 337.983183 196.61504 
L 338.046604 197.626991 
L 338.173447 194.135652 
L 338.553976 192.617628 
L 338.680819 187.506991 
L 338.997926 199.44864 
L 339.124769 179.360306 
L 339.188191 182.34567 
L 339.251612 186.444355 
L 339.315034 183.408307 
L 339.378455 183.762519 
L 339.441877 188.215415 
L 339.505298 186.495039 
L 339.56872 185.027507 
L 339.695563 191.251464 
L 339.949249 184.470942 
L 340.01267 184.217906 
L 340.202935 191.453815 
L 340.329777 185.381719 
L 340.583463 198.689628 
L 340.646885 201.371464 
L 340.773728 194.135652 
L 340.900571 197.82944 
L 341.090835 194.236828 
L 341.154257 193.477719 
L 341.2811 196.108967 
L 341.344521 195.046427 
L 341.407943 195.24878 
L 341.471364 198.08238 
L 341.534786 196.007791 
L 341.72505 177.285718 
L 341.851893 177.892967 
L 341.915314 178.550706 
L 341.978736 180.372258 
L 342.042157 179.10727 
L 342.105579 177.235034 
L 342.232422 184.015555 
L 342.295843 183.96487 
L 342.359265 182.851742 
L 342.422686 183.762519 
L 342.549529 190.087651 
L 342.803215 182.143319 
L 342.866637 181.333718 
L 342.99348 184.521627 
L 343.056901 183.610658 
L 343.120323 182.851742 
L 343.310587 185.128682 
L 343.500851 176.83033 
L 343.627694 179.309622 
L 343.691116 178.247178 
L 343.754537 179.006094 
L 343.88138 184.066046 
L 344.008223 171.011269 
L 344.071645 171.264306 
L 344.198488 179.613342 
L 344.261909 184.723979 
L 344.325331 183.307131 
L 344.579016 177.33621 
L 344.705859 179.006094 
L 344.769281 178.803742 
L 344.896124 179.512167 
L 345.022967 176.779646 
L 345.086388 178.29767 
L 345.213231 169.645106 
L 345.276653 170.150985 
L 345.340074 172.276258 
L 345.466917 170.20167 
L 345.657182 172.175082 
L 345.720603 171.365481 
L 345.784025 164.281433 
L 345.847446 167.013761 
L 345.910868 177.48807 
L 346.735347 82.713794 
L 346.798768 78.969322 
L 346.86219 82.865462 
L 346.925611 81.448614 
L 346.989033 74.617601 
L 347.115876 94.250547 
L 347.179297 90.050686 
L 347.242719 90.961655 
L 347.559826 141.258227 
L 347.813512 162.915269 
L 348.003776 172.073906 
L 348.130619 179.006094 
L 348.194041 176.779646 
L 348.257462 176.880822 
L 348.384305 182.851742 
L 348.447727 179.157955 
L 348.511148 181.890282 
L 348.57457 183.813203 
L 348.701413 176.981998 
L 348.764834 180.22059 
L 348.828256 179.056778 
L 348.891677 177.032682 
L 349.01852 180.169906 
L 349.081941 178.14581 
L 349.145363 179.208446 
L 349.208784 186.646707 
L 349.272206 185.685439 
L 349.335627 177.133858 
L 349.399049 177.63993 
L 349.589313 187.962379 
L 349.779578 176.880822 
L 349.906421 179.006094 
L 350.033264 176.931506 
L 350.096685 178.29767 
L 350.223528 173.237718 
L 350.413792 181.333718 
L 350.477214 181.181858 
L 350.604057 178.500022 
L 350.857743 186.191319 
L 350.921164 185.685439 
L 350.984586 184.015555 
L 351.048007 184.673295 
L 351.111429 184.622803 
L 351.17485 182.446846 
L 351.238272 183.712027 
L 351.301693 184.369767 
L 351.365115 178.651882 
L 351.428536 178.658242 
L 351.872486 178.702566 
L 351.935908 176.981998 
L 351.999329 177.63993 
L 352.062751 177.538754 
L 352.126172 176.577294 
L 352.189594 177.285718 
L 352.253015 177.994142 
L 352.379858 176.172398 
L 352.506701 179.056778 
L 352.570123 178.348354 
L 352.633544 177.892967 
L 352.696966 178.044634 
L 352.760387 178.60139 
L 352.88723 185.786615 
L 352.950652 183.712027 
L 353.014073 185.938283 
L 353.077495 193.224876 
L 353.140916 190.947743 
L 353.267759 182.649391 
L 353.33118 183.610658 
L 353.394602 183.256446 
L 353.458023 182.548215 
L 353.584866 174.198986 
L 353.648288 174.755742 
L 353.711709 177.133858 
L 353.775131 177.032682 
L 353.965395 178.29767 
L 354.092238 183.661343 
L 354.219081 188.518943 
L 354.282503 187.102095 
L 354.409346 180.72647 
L 354.472767 183.408307 
L 354.59961 178.904918 
L 354.663031 180.06873 
L 354.726453 180.524118 
L 354.853296 173.844966 
L 354.916717 175.362798 
L 354.980139 178.29767 
L 355.04356 177.892967 
L 355.106982 176.425434 
L 355.233825 179.157955 
L 355.424089 176.071222 
L 355.550932 189.530895 
L 355.614354 188.721295 
L 355.741197 175.362798 
L 355.804618 175.420805 
L 356.185147 175.767694 
L 356.248568 178.14581 
L 356.375411 174.40153 
L 356.565676 191.099603 
L 356.629097 188.468451 
L 356.692519 188.974331 
L 356.882783 193.933107 
L 357.009626 196.766804 
L 357.073048 196.21024 
L 357.136469 196.108967 
L 357.199891 198.386004 
L 357.326734 190.897251 
L 357.516998 201.523228 
L 357.580419 200.764216 
L 357.707262 195.299367 
L 357.834105 200.106476 
L 357.897527 199.954616 
L 357.960948 190.036967 
L 358.02437 190.087651 
L 358.087791 194.338003 
L 358.151213 193.831931 
L 358.278056 190.492355 
L 358.341477 190.239319 
L 358.404899 190.492355 
L 358.531742 194.938892 
L 359.039113 196.817392 
L 359.229378 195.906616 
L 359.292799 198.031792 
L 359.356221 197.67758 
L 359.419642 193.831931 
L 359.483064 194.793391 
L 359.546485 199.499228 
L 359.609907 199.347464 
L 359.673328 194.945156 
L 359.73675 196.46318 
L 359.800171 201.320876 
L 359.863593 198.133064 
L 360.053857 183.003603 
L 360.244122 183.610658 
L 360.307543 183.509482 
L 360.370964 182.952918 
L 360.434386 183.054095 
L 360.497807 184.167415 
L 360.561229 183.661343 
L 360.62465 181.839791 
L 360.688072 182.295179 
L 360.751493 183.205954 
L 360.941758 176.324258 
L 361.005179 178.095318 
L 361.132022 177.184542 
L 361.385708 183.003603 
L 361.512551 176.374942 
L 361.575973 177.133858 
L 361.639394 178.095318 
L 361.829658 169.139033 
L 361.89308 169.54393 
L 362.019923 173.187034 
L 362.146766 168.380117 
L 362.273609 172.529294 
L 362.33703 171.669009 
L 362.400452 172.124397 
L 362.717559 168.835506 
L 362.780981 170.20167 
L 362.844402 169.796773 
L 363.034667 166.052494 
L 363.098088 166.609057 
L 363.288352 171.517342 
L 363.542038 165.242893 
L 363.60546 165.394561 
L 363.732303 173.794282 
L 363.795724 172.124397 
L 363.859146 170.758233 
L 363.985989 179.309622 
L 364.04941 178.702566 
L 364.176253 169.493245 
L 364.620204 180.271082 
L 364.747046 177.083366 
L 365.064154 184.015555 
L 365.190997 182.699882 
L 365.571526 198.031792 
L 365.634947 197.475228 
L 365.698369 197.576404 
L 365.825212 204.30624 
L 365.888633 203.90144 
L 365.952055 203.49664 
L 366.015476 204.002616 
L 366.142319 236.690435 
L 366.586269 223.787422 
L 366.649691 224.293398 
L 366.776534 230.466575 
L 366.839955 229.404035 
L 366.903377 227.07641 
L 366.966798 227.683562 
L 367.093641 232.136459 
L 367.157063 229.555798 
L 367.283906 235.223095 
L 367.537592 217.512974 
L 367.601013 219.182762 
L 367.664434 223.888598 
L 367.727856 222.016362 
L 367.791277 220.85255 
L 367.854699 223.129586 
L 367.981542 213.819089 
L 368.044963 214.729962 
L 368.108385 215.488973 
L 368.171806 211.592737 
L 368.235228 212.655277 
L 368.362071 219.739325 
L 368.552335 206.735041 
L 368.615757 205.2677 
L 368.869443 211.744501 
L 368.932864 213.110761 
L 368.996285 212.604689 
L 369.123128 209.720501 
L 369.376814 214.628689 
L 369.440236 216.551513 
L 369.503657 215.387701 
L 369.567079 214.223889 
L 369.6305 214.628689 
L 369.757343 215.741913 
L 369.820765 215.438289 
L 369.947608 211.036077 
L 370.011029 212.098713 
L 370.074451 213.515561 
L 370.201294 211.238525 
L 370.264715 213.515561 
L 370.328137 213.060077 
L 370.518401 207.898852 
L 370.645244 212.199889 
L 370.962351 201.219604 
L 371.025773 201.978616 
L 371.152616 201.169016 
L 371.279459 204.0533 
L 371.34288 203.09184 
L 371.406302 200.25824 
L 371.469723 202.231652 
L 371.533145 205.52064 
L 371.659988 196.159652 
L 371.723409 197.272779 
L 371.786831 198.08238 
L 371.850252 196.817392 
L 371.977095 199.398052 
L 372.103938 196.108967 
L 372.167359 197.82944 
L 372.294202 191.808027 
L 372.357624 193.882616 
L 372.421045 195.451228 
L 372.484467 193.933107 
L 372.547888 194.894568 
L 372.61131 197.576404 
L 372.674731 197.272779 
L 372.801574 195.350052 
L 372.928417 189.176683 
L 372.991839 189.530895 
L 373.05526 189.176683 
L 373.118682 191.706852 
L 373.182103 199.347464 
L 373.245525 197.626991 
L 373.752896 89.949511 
L 373.816318 94.452899 
L 374.006582 101.081559 
L 374.133425 120.208626 
L 374.260268 162.257337 
L 374.32369 165.394561 
L 374.450533 158.614233 
L 374.577376 166.102985 
L 374.640797 165.495737 
L 374.76764 163.623693 
L 374.894483 165.445245 
L 375.084747 171.264306 
L 375.275012 178.500022 
L 375.528698 169.999318 
L 375.592119 169.54393 
L 375.972648 178.854234 
L 376.03607 178.044634 
L 376.162913 174.856918 
L 376.353177 179.309622 
L 376.416598 178.702566 
L 376.543441 179.360306 
L 376.670284 176.67847 
L 376.733706 176.931506 
L 376.797127 178.29767 
L 376.860549 177.538754 
L 376.92397 176.83033 
L 377.114235 183.610658 
L 377.177656 183.357815 
L 377.241078 183.357815 
L 377.431342 178.247178 
L 377.558185 184.116731 
L 377.748449 176.172398 
L 377.811871 178.29767 
L 377.875292 179.157955 
L 377.938714 178.702566 
L 378.128978 177.842282 
L 378.1924 178.247178 
L 378.255821 177.994142 
L 378.319243 177.285718 
L 378.446086 181.485579 
L 378.572929 177.994142 
L 378.63635 179.663834 
L 378.699772 178.753058 
L 379.143722 178.14581 
L 379.207143 176.071222 
L 379.270565 170.100494 
L 379.333986 172.175082 
L 379.397408 177.386894 
L 379.460829 177.184542 
L 379.587672 179.866379 
L 379.714515 169.341385 
L 379.777937 169.948634 
L 379.841358 173.389385 
L 379.90478 172.023221 
L 379.968201 171.871554 
L 380.095044 176.374942 
L 380.158466 175.21113 
L 380.285309 178.398846 
L 380.538994 171.517342 
L 380.602416 172.124397 
L 380.79268 178.702566 
L 380.919523 171.618518 
L 381.109788 179.91687 
L 381.236631 187.102095 
L 381.363474 180.979506 
L 381.553738 184.470942 
L 381.61716 184.369767 
L 381.744003 182.902234 
L 381.870846 184.77447 
L 381.934267 183.762519 
L 382.06111 189.075507 
L 382.251374 179.309622 
L 382.378217 109.278928 
L 382.441639 109.48128 
L 382.50506 109.127068 
L 382.631903 105.736808 
L 382.695325 107.102972 
L 382.758746 109.683632 
L 382.822168 109.278928 
L 382.949011 105.382596 
L 383.139275 110.392056 
L 383.392961 106.445232 
L 383.646647 110.746269 
L 383.710068 109.32942 
L 383.77349 110.645092 
L 383.900333 114.743777 
L 384.027176 107.102972 
L 384.090597 107.659728 
L 384.407705 116.919541 
L 384.471126 116.919541 
L 384.661391 103.105656 
L 384.851655 117.071401 
L 384.978498 118.235213 
L 385.041919 118.184529 
L 385.168762 117.121893 
L 385.232184 116.717189 
L 385.48587 124.408293 
L 385.676134 125.369754 
L 385.739556 125.420438 
L 385.866399 121.271069 
L 386.056663 122.991638 
L 386.120085 123.34585 
L 386.246927 122.586742 
L 386.310349 124.307117 
L 386.437192 121.372437 
L 386.500613 130.075686 
L 386.564035 127.798554 
L 386.690878 109.228244 
L 386.754299 111.606553 
L 387.007985 85.648474 
L 387.261671 72.340661 
L 387.515357 105.93916 
L 388.656944 255.159569 
L 388.720365 256.677593 
L 388.847208 254.754769 
L 388.91063 256.879945 
L 388.974051 256.272793 
L 389.291158 244.988883 
L 389.35458 244.83712 
L 389.481423 240.586671 
L 389.544844 243.21792 
L 389.608266 241.548132 
L 389.671687 235.324271 
L 389.735109 238.157871 
L 389.79853 244.83712 
L 389.861952 240.789119 
L 389.925373 234.413399 
L 389.988795 235.880835 
L 390.179059 239.777071 
L 390.369324 228.240222 
L 390.432745 160.283924 
L 390.496167 161.043033 
L 390.623009 159.018936 
L 390.686431 161.751457 
L 390.749852 160.891173 
L 390.813274 156.995033 
L 390.876695 158.968445 
L 391.003538 166.406705 
L 391.06696 165.091033 
L 391.130381 165.546421 
L 391.257224 165.141525 
L 391.51091 172.124397 
L 391.574332 171.719694 
L 391.701175 169.695597 
L 391.891439 171.061761 
L 391.954861 168.632961 
L 392.018282 168.860751 
L 392.462232 170.454706 
L 392.525654 165.495737 
L 392.589075 166.001809 
L 392.715918 171.011269 
L 392.77934 170.35353 
L 392.842761 170.657057 
L 392.906183 170.859409 
L 393.159869 173.794282 
L 393.350133 176.425434 
L 393.603819 182.952918 
L 393.66724 186.495039 
L 393.730662 184.723979 
L 393.920926 171.567834 
L 393.984348 172.731646 
L 394.047769 176.577294 
L 394.111191 174.755742 
L 394.238034 168.177573 
L 394.428298 172.883506 
L 394.49172 173.743597 
L 394.555141 170.808918 
L 394.618563 172.377433 
L 394.745406 178.095318 
L 394.808827 177.33621 
L 394.872248 178.348354 
L 394.999091 171.922046 
L 395.062513 173.642421 
L 395.125934 172.073906 
L 395.189356 173.187034 
L 395.252777 177.589246 
L 395.37962 164.584961 
L 395.443042 164.989857 
L 395.633306 170.35353 
L 395.823571 172.377433 
L 396.013835 170.505197 
L 396.2041 180.473434 
L 396.330942 166.659549 
L 396.394364 166.73201 
L 396.774893 167.165621 
L 396.838314 171.16313 
L 396.901736 170.100494 
L 396.965157 168.632961 
L 397.092 175.71701 
L 397.155422 175.312306 
L 397.218843 171.517342 
L 397.282265 171.82087 
L 397.409108 178.095318 
L 397.472529 176.931506 
L 397.535951 177.235034 
L 397.599372 178.14581 
L 397.662794 177.285718 
L 397.789636 183.458991 
L 397.916479 178.702566 
L 398.043322 186.39367 
L 398.106744 185.837107 
L 398.170165 188.974331 
L 398.233587 187.557483 
L 398.297008 182.244494 
L 398.36043 184.217906 
L 398.487273 189.632263 
L 398.487273 189.632263 
" clip-path="url(#pb5c267e343)" style="fill: none; stroke: #1f77b4; stroke-width: 1.5; stroke-linecap: square"/>
   </g>
   <g id="patch_3">
    <path d="M 57.6 307.584 
L 57.6 41.472 
" style="fill: none; stroke: #000000; stroke-width: 0.8; stroke-linejoin: miter; stroke-linecap: square"/>
   </g>
   <g id="patch_4">
    <path d="M 414.72 307.584 
L 414.72 41.472 
" style="fill: none; stroke: #000000; stroke-width: 0.8; stroke-linejoin: miter; stroke-linecap: square"/>
   </g>
   <g id="patch_5">
    <path d="M 57.6 307.584 
L 414.72 307.584 
" style="fill: none; stroke: #000000; stroke-width: 0.8; stroke-linejoin: miter; stroke-linecap: square"/>
   </g>
   <g id="patch_6">
    <path d="M 57.6 41.472 
L 414.72 41.472 
" style="fill: none; stroke: #000000; stroke-width: 0.8; stroke-linejoin: miter; stroke-linecap: square"/>
   </g>
   <g id="legend_1">
    <g id="patch_7">
     <path d="M 354.074688 64.150125 
L 407.72 64.150125 
Q 409.72 64.150125 409.72 62.150125 
L 409.72 48.472 
Q 409.72 46.472 407.72 46.472 
L 354.074688 46.472 
Q 352.074688 46.472 352.074688 48.472 
L 352.074688 62.150125 
Q 352.074688 64.150125 354.074688 64.150125 
z
" style="fill: #ffffff; opacity: 0.8; stroke: #cccccc; stroke-linejoin: miter"/>
    </g>
    <g id="line2d_14">
     <path d="M 356.074688 54.570438 
L 366.074688 54.570438 
L 376.074688 54.570438 
" style="fill: none; stroke: #1f77b4; stroke-width: 1.5; stroke-linecap: square"/>
    </g>
    <g id="text_13">
     <!-- set2 -->
     <g transform="translate(384.074688 58.070438)scale(0.1 -0.1)">
      <defs>
       <path id="DejaVuSans-73" d="M 2834 3397 
L 2834 2853 
Q 2591 2978 2328 3040 
Q 2066 3103 1784 3103 
Q 1356 3103 1142 2972 
Q 928 2841 928 2578 
Q 928 2378 1081 2264 
Q 1234 2150 1697 2047 
L 1894 2003 
Q 2506 1872 2764 1633 
Q 3022 1394 3022 966 
Q 3022 478 2636 193 
Q 2250 -91 1575 -91 
Q 1294 -91 989 -36 
Q 684 19 347 128 
L 347 722 
Q 666 556 975 473 
Q 1284 391 1588 391 
Q 1994 391 2212 530 
Q 2431 669 2431 922 
Q 2431 1156 2273 1281 
Q 2116 1406 1581 1522 
L 1381 1569 
Q 847 1681 609 1914 
Q 372 2147 372 2553 
Q 372 3047 722 3315 
Q 1072 3584 1716 3584 
Q 2034 3584 2315 3537 
Q 2597 3491 2834 3397 
z
" transform="scale(0.015625)"/>
       <path id="DejaVuSans-65" d="M 3597 1894 
L 3597 1613 
L 953 1613 
Q 991 1019 1311 708 
Q 1631 397 2203 397 
Q 2534 397 2845 478 
Q 3156 559 3463 722 
L 3463 178 
Q 3153 47 2828 -22 
Q 2503 -91 2169 -91 
Q 1331 -91 842 396 
Q 353 884 353 1716 
Q 353 2575 817 3079 
Q 1281 3584 2069 3584 
Q 2775 3584 3186 3129 
Q 3597 2675 3597 1894 
z
M 3022 2063 
Q 3016 2534 2758 2815 
Q 2500 3097 2075 3097 
Q 1594 3097 1305 2825 
Q 1016 2553 972 2059 
L 3022 2063 
z
" transform="scale(0.015625)"/>
       <path id="DejaVuSans-74" d="M 1172 4494 
L 1172 3500 
L 2356 3500 
L 2356 3053 
L 1172 3053 
L 1172 1153 
Q 1172 725 1289 603 
Q 1406 481 1766 481 
L 2356 481 
L 2356 0 
L 1766 0 
Q 1100 0 847 248 
Q 594 497 594 1153 
L 594 3053 
L 172 3053 
L 172 3500 
L 594 3500 
L 594 4494 
L 1172 4494 
z
" transform="scale(0.015625)"/>
      </defs>
      <use xlink:href="#DejaVuSans-73"/>
      <use xlink:href="#DejaVuSans-65" x="52.099609"/>
      <use xlink:href="#DejaVuSans-74" x="113.623047"/>
      <use xlink:href="#DejaVuSans-32" x="152.832031"/>
     </g>
    </g>
   </g>
  </g>
 </g>
 <defs>
  <clipPath id="pb5c267e343">
   <rect x="57.6" y="41.472" width="357.12" height="266.112"/>
  </clipPath>
 </defs>
</svg>
