<?xml version="1.0" encoding="utf-8" standalone="no"?>
<!DOCTYPE svg PUBLIC "-//W3C//DTD SVG 1.1//EN"
  "http://www.w3.org/Graphics/SVG/1.1/DTD/svg11.dtd">
<svg xmlns:xlink="http://www.w3.org/1999/xlink" width="460.8pt" height="345.6pt" viewBox="0 0 460.8 345.6" xmlns="http://www.w3.org/2000/svg" version="1.1">
 <metadata>
  <rdf:RDF xmlns:dc="http://purl.org/dc/elements/1.1/" xmlns:cc="http://creativecommons.org/ns#" xmlns:rdf="http://www.w3.org/1999/02/22-rdf-syntax-ns#">
   <cc:Work>
    <dc:type rdf:resource="http://purl.org/dc/dcmitype/StillImage"/>
    <dc:date>2022-08-11T15:18:54.598239</dc:date>
    <dc:format>image/svg+xml</dc:format>
    <dc:creator>
     <cc:Agent>
      <dc:title>Matplotlib v3.5.2, https://matplotlib.org/</dc:title>
     </cc:Agent>
    </dc:creator>
   </cc:Work>
  </rdf:RDF>
 </metadata>
 <defs>
  <style type="text/css">*{stroke-linejoin: round; stroke-linecap: butt}</style>
 </defs>
 <g id="figure_1">
  <g id="patch_1">
   <path d="M 0 345.6 
L 460.8 345.6 
L 460.8 0 
L 0 0 
z
" style="fill: #ffffff"/>
  </g>
  <g id="axes_1">
   <g id="patch_2">
    <path d="M 57.6 307.584 
L 414.72 307.584 
L 414.72 41.472 
L 57.6 41.472 
z
" style="fill: #ffffff"/>
   </g>
   <g id="matplotlib.axis_1">
    <g id="xtick_1">
     <g id="line2d_1">
      <defs>
       <path id="mc72f689127" d="M 0 0 
L 0 3.5 
" style="stroke: #000000; stroke-width: 0.8"/>
      </defs>
      <g>
       <use xlink:href="#mc72f689127" x="73.832727" y="307.584" style="stroke: #000000; stroke-width: 0.8"/>
      </g>
     </g>
     <g id="text_1">
      <!-- 0 -->
      <g transform="translate(70.651477 322.182437)scale(0.1 -0.1)">
       <defs>
        <path id="DejaVuSans-30" d="M 2034 4250 
Q 1547 4250 1301 3770 
Q 1056 3291 1056 2328 
Q 1056 1369 1301 889 
Q 1547 409 2034 409 
Q 2525 409 2770 889 
Q 3016 1369 3016 2328 
Q 3016 3291 2770 3770 
Q 2525 4250 2034 4250 
z
M 2034 4750 
Q 2819 4750 3233 4129 
Q 3647 3509 3647 2328 
Q 3647 1150 3233 529 
Q 2819 -91 2034 -91 
Q 1250 -91 836 529 
Q 422 1150 422 2328 
Q 422 3509 836 4129 
Q 1250 4750 2034 4750 
z
" transform="scale(0.015625)"/>
       </defs>
       <use xlink:href="#DejaVuSans-30"/>
      </g>
     </g>
    </g>
    <g id="xtick_2">
     <g id="line2d_2">
      <g>
       <use xlink:href="#mc72f689127" x="137.254205" y="307.584" style="stroke: #000000; stroke-width: 0.8"/>
      </g>
     </g>
     <g id="text_2">
      <!-- 1000 -->
      <g transform="translate(124.529205 322.182437)scale(0.1 -0.1)">
       <defs>
        <path id="DejaVuSans-31" d="M 794 531 
L 1825 531 
L 1825 4091 
L 703 3866 
L 703 4441 
L 1819 4666 
L 2450 4666 
L 2450 531 
L 3481 531 
L 3481 0 
L 794 0 
L 794 531 
z
" transform="scale(0.015625)"/>
       </defs>
       <use xlink:href="#DejaVuSans-31"/>
       <use xlink:href="#DejaVuSans-30" x="63.623047"/>
       <use xlink:href="#DejaVuSans-30" x="127.246094"/>
       <use xlink:href="#DejaVuSans-30" x="190.869141"/>
      </g>
     </g>
    </g>
    <g id="xtick_3">
     <g id="line2d_3">
      <g>
       <use xlink:href="#mc72f689127" x="200.675683" y="307.584" style="stroke: #000000; stroke-width: 0.8"/>
      </g>
     </g>
     <g id="text_3">
      <!-- 2000 -->
      <g transform="translate(187.950683 322.182437)scale(0.1 -0.1)">
       <defs>
        <path id="DejaVuSans-32" d="M 1228 531 
L 3431 531 
L 3431 0 
L 469 0 
L 469 531 
Q 828 903 1448 1529 
Q 2069 2156 2228 2338 
Q 2531 2678 2651 2914 
Q 2772 3150 2772 3378 
Q 2772 3750 2511 3984 
Q 2250 4219 1831 4219 
Q 1534 4219 1204 4116 
Q 875 4013 500 3803 
L 500 4441 
Q 881 4594 1212 4672 
Q 1544 4750 1819 4750 
Q 2544 4750 2975 4387 
Q 3406 4025 3406 3419 
Q 3406 3131 3298 2873 
Q 3191 2616 2906 2266 
Q 2828 2175 2409 1742 
Q 1991 1309 1228 531 
z
" transform="scale(0.015625)"/>
       </defs>
       <use xlink:href="#DejaVuSans-32"/>
       <use xlink:href="#DejaVuSans-30" x="63.623047"/>
       <use xlink:href="#DejaVuSans-30" x="127.246094"/>
       <use xlink:href="#DejaVuSans-30" x="190.869141"/>
      </g>
     </g>
    </g>
    <g id="xtick_4">
     <g id="line2d_4">
      <g>
       <use xlink:href="#mc72f689127" x="264.097161" y="307.584" style="stroke: #000000; stroke-width: 0.8"/>
      </g>
     </g>
     <g id="text_4">
      <!-- 3000 -->
      <g transform="translate(251.372161 322.182437)scale(0.1 -0.1)">
       <defs>
        <path id="DejaVuSans-33" d="M 2597 2516 
Q 3050 2419 3304 2112 
Q 3559 1806 3559 1356 
Q 3559 666 3084 287 
Q 2609 -91 1734 -91 
Q 1441 -91 1130 -33 
Q 819 25 488 141 
L 488 750 
Q 750 597 1062 519 
Q 1375 441 1716 441 
Q 2309 441 2620 675 
Q 2931 909 2931 1356 
Q 2931 1769 2642 2001 
Q 2353 2234 1838 2234 
L 1294 2234 
L 1294 2753 
L 1863 2753 
Q 2328 2753 2575 2939 
Q 2822 3125 2822 3475 
Q 2822 3834 2567 4026 
Q 2313 4219 1838 4219 
Q 1578 4219 1281 4162 
Q 984 4106 628 3988 
L 628 4550 
Q 988 4650 1302 4700 
Q 1616 4750 1894 4750 
Q 2613 4750 3031 4423 
Q 3450 4097 3450 3541 
Q 3450 3153 3228 2886 
Q 3006 2619 2597 2516 
z
" transform="scale(0.015625)"/>
       </defs>
       <use xlink:href="#DejaVuSans-33"/>
       <use xlink:href="#DejaVuSans-30" x="63.623047"/>
       <use xlink:href="#DejaVuSans-30" x="127.246094"/>
       <use xlink:href="#DejaVuSans-30" x="190.869141"/>
      </g>
     </g>
    </g>
    <g id="xtick_5">
     <g id="line2d_5">
      <g>
       <use xlink:href="#mc72f689127" x="327.518639" y="307.584" style="stroke: #000000; stroke-width: 0.8"/>
      </g>
     </g>
     <g id="text_5">
      <!-- 4000 -->
      <g transform="translate(314.793639 322.182437)scale(0.1 -0.1)">
       <defs>
        <path id="DejaVuSans-34" d="M 2419 4116 
L 825 1625 
L 2419 1625 
L 2419 4116 
z
M 2253 4666 
L 3047 4666 
L 3047 1625 
L 3713 1625 
L 3713 1100 
L 3047 1100 
L 3047 0 
L 2419 0 
L 2419 1100 
L 313 1100 
L 313 1709 
L 2253 4666 
z
" transform="scale(0.015625)"/>
       </defs>
       <use xlink:href="#DejaVuSans-34"/>
       <use xlink:href="#DejaVuSans-30" x="63.623047"/>
       <use xlink:href="#DejaVuSans-30" x="127.246094"/>
       <use xlink:href="#DejaVuSans-30" x="190.869141"/>
      </g>
     </g>
    </g>
    <g id="xtick_6">
     <g id="line2d_6">
      <g>
       <use xlink:href="#mc72f689127" x="390.940117" y="307.584" style="stroke: #000000; stroke-width: 0.8"/>
      </g>
     </g>
     <g id="text_6">
      <!-- 5000 -->
      <g transform="translate(378.215117 322.182437)scale(0.1 -0.1)">
       <defs>
        <path id="DejaVuSans-35" d="M 691 4666 
L 3169 4666 
L 3169 4134 
L 1269 4134 
L 1269 2991 
Q 1406 3038 1543 3061 
Q 1681 3084 1819 3084 
Q 2600 3084 3056 2656 
Q 3513 2228 3513 1497 
Q 3513 744 3044 326 
Q 2575 -91 1722 -91 
Q 1428 -91 1123 -41 
Q 819 9 494 109 
L 494 744 
Q 775 591 1075 516 
Q 1375 441 1709 441 
Q 2250 441 2565 725 
Q 2881 1009 2881 1497 
Q 2881 1984 2565 2268 
Q 2250 2553 1709 2553 
Q 1456 2553 1204 2497 
Q 953 2441 691 2322 
L 691 4666 
z
" transform="scale(0.015625)"/>
       </defs>
       <use xlink:href="#DejaVuSans-35"/>
       <use xlink:href="#DejaVuSans-30" x="63.623047"/>
       <use xlink:href="#DejaVuSans-30" x="127.246094"/>
       <use xlink:href="#DejaVuSans-30" x="190.869141"/>
      </g>
     </g>
    </g>
   </g>
   <g id="matplotlib.axis_2">
    <g id="ytick_1">
     <g id="line2d_7">
      <defs>
       <path id="m22fca80930" d="M 0 0 
L -3.5 0 
" style="stroke: #000000; stroke-width: 0.8"/>
      </defs>
      <g>
       <use xlink:href="#m22fca80930" x="57.6" y="280.253954" style="stroke: #000000; stroke-width: 0.8"/>
      </g>
     </g>
     <g id="text_7">
      <!-- 3800 -->
      <g transform="translate(25.15 284.053173)scale(0.1 -0.1)">
       <defs>
        <path id="DejaVuSans-38" d="M 2034 2216 
Q 1584 2216 1326 1975 
Q 1069 1734 1069 1313 
Q 1069 891 1326 650 
Q 1584 409 2034 409 
Q 2484 409 2743 651 
Q 3003 894 3003 1313 
Q 3003 1734 2745 1975 
Q 2488 2216 2034 2216 
z
M 1403 2484 
Q 997 2584 770 2862 
Q 544 3141 544 3541 
Q 544 4100 942 4425 
Q 1341 4750 2034 4750 
Q 2731 4750 3128 4425 
Q 3525 4100 3525 3541 
Q 3525 3141 3298 2862 
Q 3072 2584 2669 2484 
Q 3125 2378 3379 2068 
Q 3634 1759 3634 1313 
Q 3634 634 3220 271 
Q 2806 -91 2034 -91 
Q 1263 -91 848 271 
Q 434 634 434 1313 
Q 434 1759 690 2068 
Q 947 2378 1403 2484 
z
M 1172 3481 
Q 1172 3119 1398 2916 
Q 1625 2713 2034 2713 
Q 2441 2713 2670 2916 
Q 2900 3119 2900 3481 
Q 2900 3844 2670 4047 
Q 2441 4250 2034 4250 
Q 1625 4250 1398 4047 
Q 1172 3844 1172 3481 
z
" transform="scale(0.015625)"/>
       </defs>
       <use xlink:href="#DejaVuSans-33"/>
       <use xlink:href="#DejaVuSans-38" x="63.623047"/>
       <use xlink:href="#DejaVuSans-30" x="127.246094"/>
       <use xlink:href="#DejaVuSans-30" x="190.869141"/>
      </g>
     </g>
    </g>
    <g id="ytick_2">
     <g id="line2d_8">
      <g>
       <use xlink:href="#m22fca80930" x="57.6" y="247.154909" style="stroke: #000000; stroke-width: 0.8"/>
      </g>
     </g>
     <g id="text_8">
      <!-- 3900 -->
      <g transform="translate(25.15 250.954128)scale(0.1 -0.1)">
       <defs>
        <path id="DejaVuSans-39" d="M 703 97 
L 703 672 
Q 941 559 1184 500 
Q 1428 441 1663 441 
Q 2288 441 2617 861 
Q 2947 1281 2994 2138 
Q 2813 1869 2534 1725 
Q 2256 1581 1919 1581 
Q 1219 1581 811 2004 
Q 403 2428 403 3163 
Q 403 3881 828 4315 
Q 1253 4750 1959 4750 
Q 2769 4750 3195 4129 
Q 3622 3509 3622 2328 
Q 3622 1225 3098 567 
Q 2575 -91 1691 -91 
Q 1453 -91 1209 -44 
Q 966 3 703 97 
z
M 1959 2075 
Q 2384 2075 2632 2365 
Q 2881 2656 2881 3163 
Q 2881 3666 2632 3958 
Q 2384 4250 1959 4250 
Q 1534 4250 1286 3958 
Q 1038 3666 1038 3163 
Q 1038 2656 1286 2365 
Q 1534 2075 1959 2075 
z
" transform="scale(0.015625)"/>
       </defs>
       <use xlink:href="#DejaVuSans-33"/>
       <use xlink:href="#DejaVuSans-39" x="63.623047"/>
       <use xlink:href="#DejaVuSans-30" x="127.246094"/>
       <use xlink:href="#DejaVuSans-30" x="190.869141"/>
      </g>
     </g>
    </g>
    <g id="ytick_3">
     <g id="line2d_9">
      <g>
       <use xlink:href="#m22fca80930" x="57.6" y="214.055864" style="stroke: #000000; stroke-width: 0.8"/>
      </g>
     </g>
     <g id="text_9">
      <!-- 4000 -->
      <g transform="translate(25.15 217.855083)scale(0.1 -0.1)">
       <use xlink:href="#DejaVuSans-34"/>
       <use xlink:href="#DejaVuSans-30" x="63.623047"/>
       <use xlink:href="#DejaVuSans-30" x="127.246094"/>
       <use xlink:href="#DejaVuSans-30" x="190.869141"/>
      </g>
     </g>
    </g>
    <g id="ytick_4">
     <g id="line2d_10">
      <g>
       <use xlink:href="#m22fca80930" x="57.6" y="180.956819" style="stroke: #000000; stroke-width: 0.8"/>
      </g>
     </g>
     <g id="text_10">
      <!-- 4100 -->
      <g transform="translate(25.15 184.756038)scale(0.1 -0.1)">
       <use xlink:href="#DejaVuSans-34"/>
       <use xlink:href="#DejaVuSans-31" x="63.623047"/>
       <use xlink:href="#DejaVuSans-30" x="127.246094"/>
       <use xlink:href="#DejaVuSans-30" x="190.869141"/>
      </g>
     </g>
    </g>
    <g id="ytick_5">
     <g id="line2d_11">
      <g>
       <use xlink:href="#m22fca80930" x="57.6" y="147.857774" style="stroke: #000000; stroke-width: 0.8"/>
      </g>
     </g>
     <g id="text_11">
      <!-- 4200 -->
      <g transform="translate(25.15 151.656992)scale(0.1 -0.1)">
       <use xlink:href="#DejaVuSans-34"/>
       <use xlink:href="#DejaVuSans-32" x="63.623047"/>
       <use xlink:href="#DejaVuSans-30" x="127.246094"/>
       <use xlink:href="#DejaVuSans-30" x="190.869141"/>
      </g>
     </g>
    </g>
    <g id="ytick_6">
     <g id="line2d_12">
      <g>
       <use xlink:href="#m22fca80930" x="57.6" y="114.758728" style="stroke: #000000; stroke-width: 0.8"/>
      </g>
     </g>
     <g id="text_12">
      <!-- 4300 -->
      <g transform="translate(25.15 118.557947)scale(0.1 -0.1)">
       <use xlink:href="#DejaVuSans-34"/>
       <use xlink:href="#DejaVuSans-33" x="63.623047"/>
       <use xlink:href="#DejaVuSans-30" x="127.246094"/>
       <use xlink:href="#DejaVuSans-30" x="190.869141"/>
      </g>
     </g>
    </g>
    <g id="ytick_7">
     <g id="line2d_13">
      <g>
       <use xlink:href="#m22fca80930" x="57.6" y="81.659683" style="stroke: #000000; stroke-width: 0.8"/>
      </g>
     </g>
     <g id="text_13">
      <!-- 4400 -->
      <g transform="translate(25.15 85.458902)scale(0.1 -0.1)">
       <use xlink:href="#DejaVuSans-34"/>
       <use xlink:href="#DejaVuSans-34" x="63.623047"/>
       <use xlink:href="#DejaVuSans-30" x="127.246094"/>
       <use xlink:href="#DejaVuSans-30" x="190.869141"/>
      </g>
     </g>
    </g>
    <g id="ytick_8">
     <g id="line2d_14">
      <g>
       <use xlink:href="#m22fca80930" x="57.6" y="48.560638" style="stroke: #000000; stroke-width: 0.8"/>
      </g>
     </g>
     <g id="text_14">
      <!-- 4500 -->
      <g transform="translate(25.15 52.359857)scale(0.1 -0.1)">
       <use xlink:href="#DejaVuSans-34"/>
       <use xlink:href="#DejaVuSans-35" x="63.623047"/>
       <use xlink:href="#DejaVuSans-30" x="127.246094"/>
       <use xlink:href="#DejaVuSans-30" x="190.869141"/>
      </g>
     </g>
    </g>
   </g>
   <g id="line2d_15">
    <path d="M 73.832727 191.692756 
L 73.896149 193.008233 
L 74.022992 190.29243 
L 74.213256 193.432638 
L 74.403521 196.318137 
L 74.657206 208.581754 
L 74.784049 202.428774 
L 74.847471 210.576182 
L 74.910892 210.430726 
L 75.354843 209.430483 
L 75.481686 212.48576 
L 75.545107 211.170283 
L 75.608529 211.80681 
L 75.735372 216.22007 
L 75.798793 215.371341 
L 76.179322 227.84716 
L 76.306165 227.719806 
L 76.369586 227.677382 
L 76.433008 227.337906 
L 76.559851 233.660664 
L 76.623272 231.072135 
L 76.686694 233.066562 
L 76.813537 239.47425 
L 76.876958 237.394973 
L 76.94038 238.116349 
L 77.067223 241.808153 
L 77.194066 232.133066 
L 77.320909 217.068717 
L 77.511173 189.825682 
L 77.638016 183.290722 
L 78.018545 218.426619 
L 78.081966 218.384194 
L 78.145388 219.275347 
L 78.525917 243.972277 
L 78.65276 243.208478 
L 78.716181 243.929853 
L 78.906446 249.27661 
L 78.969867 248.767437 
L 79.09671 253.944496 
L 79.160131 252.416817 
L 79.223553 247.324687 
L 79.286974 248.046062 
L 79.350396 251.143764 
L 79.477239 248.215759 
L 79.604082 254.623447 
L 79.667503 252.501666 
L 79.730925 253.095767 
L 79.794346 255.81157 
L 80.111454 243.250903 
L 80.174875 242.529528 
L 80.238297 243.547954 
L 80.365139 238.964997 
L 80.428561 241.765729 
L 80.491982 240.832151 
L 80.555404 238.370895 
L 80.618825 238.667946 
L 80.745668 238.201197 
L 80.80909 237.776873 
L 80.935933 226.149783 
L 80.999354 229.332334 
L 81.062776 233.109067 
L 81.189619 222.203352 
L 81.25304 224.919155 
L 81.316462 229.332334 
L 81.379883 226.913582 
L 81.506726 219.699672 
L 81.570148 220.675673 
L 81.633569 221.015148 
L 81.760412 213.716389 
L 81.823833 215.795665 
L 81.887255 219.826944 
L 81.950676 128.252892 
L 82.014098 134.57565 
L 82.140941 125.621938 
L 82.267784 133.8967 
L 82.394627 126.21604 
L 82.458048 127.743801 
L 82.584891 125.53709 
L 82.775156 133.048052 
L 82.838577 131.690151 
L 82.901999 131.138554 
L 83.092263 136.994563 
L 83.219106 135.594157 
L 83.536213 144.46302 
L 83.663056 139.880063 
L 83.980164 154.223037 
L 84.107007 151.37988 
L 84.170428 153.459076 
L 84.23385 152.101174 
L 84.297271 149.767272 
L 84.487536 158.763489 
L 84.550957 155.962838 
L 84.741221 164.364791 
L 84.804643 163.049395 
L 84.868064 162.964546 
L 84.931486 161.139897 
L 84.994907 163.219092 
L 85.12175 170.857408 
L 85.185172 171.027105 
L 85.312015 184.393996 
L 85.375436 183.969672 
L 85.502279 184.733471 
L 85.565701 184.224299 
L 85.819387 196.021167 
L 86.009651 197.082018 
L 86.073073 197.166866 
L 86.136494 197.548766 
L 86.263337 193.94181 
L 86.326758 196.275713 
L 86.39018 195.639187 
L 86.453601 190.547057 
L 86.517023 192.286858 
L 86.580444 193.772113 
L 86.707287 187.576628 
L 86.83413 189.783258 
L 87.404924 240.619949 
L 87.468345 241.680799 
L 87.595188 259.970203 
L 87.848874 281.611856 
L 87.975717 273.506872 
L 88.10256 288.443867 
L 88.229403 278.683851 
L 88.483089 292.644844 
L 88.609932 295.488 
L 88.673353 294.809049 
L 88.99046 285.770489 
L 89.117303 287.383017 
L 89.244146 278.217102 
L 89.307568 280.21153 
L 89.370989 282.41816 
L 89.497832 278.217102 
L 89.561254 278.726275 
L 89.624675 280.338803 
L 90.005204 267.52359 
L 90.132047 270.154463 
L 90.195469 264.638009 
L 90.25889 264.93506 
L 90.322312 274.058469 
L 90.385733 269.602866 
L 90.512576 251.016491 
L 90.639419 266.75971 
L 90.893105 252.501666 
L 90.956526 256.448096 
L 91.019948 254.156618 
L 91.083369 252.204615 
L 91.146791 255.684297 
L 91.210212 253.520091 
L 91.337055 244.311753 
L 91.463898 250.337541 
L 91.52732 248.343113 
L 91.590741 248.470386 
L 91.717584 254.283971 
L 91.844427 245.033209 
L 91.97127 253.944496 
L 92.098113 242.571952 
L 92.224956 250.931562 
L 92.478642 240.917 
L 92.605485 233.533391 
L 92.668906 234.042564 
L 92.732328 235.018566 
L 92.986014 207.902803 
L 93.176278 171.790904 
L 93.2397 172.130461 
L 93.303121 174.464364 
L 93.620228 199.458345 
L 93.68365 200.052447 
L 93.810493 209.048583 
L 93.873914 208.793956 
L 93.937336 206.841953 
L 94.1276 216.814091 
L 94.191022 214.904593 
L 94.254443 214.055864 
L 94.444708 219.40262 
L 94.508129 217.450617 
L 94.571551 218.256922 
L 94.698394 226.574107 
L 94.825236 217.238496 
L 94.888658 219.360196 
L 94.952079 220.293773 
L 95.078922 218.002295 
L 95.142344 218.384194 
L 95.332608 215.201563 
L 95.459451 220.802946 
L 95.649716 216.092716 
L 95.713137 218.469043 
L 95.776559 217.917446 
L 95.903402 213.546611 
L 95.966823 215.159139 
L 96.093666 213.716389 
L 96.157087 214.268066 
L 96.28393 207.648257 
L 96.347352 208.709107 
L 96.474195 213.589116 
L 96.537616 211.934164 
L 96.664459 203.616897 
L 96.727881 205.271849 
L 96.791302 209.303209 
L 96.981567 192.668757 
L 97.044988 194.917812 
L 97.10841 196.742542 
L 97.171831 196.190864 
L 97.298674 193.305284 
L 97.362096 194.70569 
L 97.425517 193.814537 
L 97.488939 193.347708 
L 97.615781 194.663185 
L 97.742624 194.578337 
L 97.806046 194.238861 
L 97.869467 194.578337 
L 97.99631 197.888241 
L 98.123153 192.923384 
L 98.313418 182.229871 
L 98.376839 183.715046 
L 98.503682 179.726271 
L 98.567104 181.763123 
L 98.630525 182.739044 
L 98.757368 173.912605 
L 98.82079 173.95511 
L 98.884211 173.870262 
L 99.074475 167.759706 
L 99.137897 168.905405 
L 99.26474 166.65635 
L 99.328161 168.056757 
L 99.581847 162.455293 
L 99.70869 168.990253 
L 99.772112 168.183949 
L 100.089219 152.82263 
L 100.279484 158.720983 
L 100.342905 157.447931 
L 100.469748 152.058831 
L 100.596591 154.307885 
L 100.723434 151.040324 
L 100.786855 151.252527 
L 100.850277 153.628935 
L 101.230806 143.105119 
L 101.294227 145.608719 
L 101.357649 144.887425 
L 101.42107 144.420515 
L 101.484492 145.566376 
L 101.611335 140.304468 
L 101.738178 147.34852 
L 101.801599 147.051469 
L 101.865021 147.560723 
L 101.991863 142.892917 
L 102.055285 143.911423 
L 102.118706 144.760071 
L 102.499235 135.084904 
L 102.6895 137.673514 
L 102.752921 136.570159 
L 102.879764 125.876646 
L 102.943186 126.258546 
L 103.006607 126.173697 
L 103.070029 125.749292 
L 103.13345 128.380246 
L 103.196872 128.252892 
L 103.323715 123.669935 
L 103.513979 127.573942 
L 103.831086 116.031781 
L 103.957929 101.731313 
L 104.148194 53.568 
L 104.211615 56.241297 
L 104.275037 65.195009 
L 104.338458 62.436702 
L 104.40188 59.636051 
L 104.718987 100.161209 
L 104.909251 109.369467 
L 105.099516 113.570524 
L 105.226359 110.345469 
L 105.606888 126.767799 
L 105.733731 131.435605 
L 105.797152 130.6293 
L 105.923995 127.489093 
L 105.987417 127.743801 
L 106.177681 125.452241 
L 106.241102 125.876646 
L 106.304524 86.24264 
L 106.367945 90.061798 
L 106.431367 92.607903 
L 106.55821 84.375486 
L 106.621631 86.284984 
L 107.065582 118.535381 
L 107.446111 130.883846 
L 107.636375 139.413315 
L 107.763218 144.505364 
L 107.890061 141.407662 
L 107.953482 142.34132 
L 108.080325 146.075467 
L 108.143747 146.584721 
L 108.397433 156.938839 
L 108.460854 157.363082 
L 108.524276 155.283887 
L 108.587697 156.684132 
L 108.651119 156.726637 
L 108.71454 156.09003 
L 108.841383 157.702638 
L 108.968226 155.792979 
L 109.095069 162.667495 
L 109.348755 153.671278 
L 109.412176 154.180532 
L 109.539019 158.551286 
L 109.602441 158.933186 
L 109.665862 161.479291 
L 109.729284 160.800341 
L 109.919548 146.202821 
L 109.98297 147.178823 
L 110.173234 157.702638 
L 110.300077 152.058831 
L 110.363499 153.628935 
L 110.553763 141.407662 
L 110.617184 142.256471 
L 110.87087 157.61779 
L 110.997713 149.979474 
L 111.124556 155.411079 
L 111.187978 151.210183 
L 111.251399 153.883481 
L 111.758771 208.963734 
L 112.646672 255.769146 
L 112.710093 255.302398 
L 112.773515 256.151045 
L 113.027201 264.638009 
L 113.090622 264.807706 
L 113.217465 255.896419 
L 113.344308 258.4001 
L 113.534572 250.974067 
L 113.661415 248.937134 
L 113.724837 250.422389 
L 113.788258 250.082914 
L 113.915101 248.003638 
L 114.041944 248.852286 
L 114.168787 245.669735 
L 114.232209 246.815434 
L 114.359052 241.680799 
L 114.485895 157.914841 
L 114.549316 158.169387 
L 114.612738 158.127043 
L 114.803002 157.532941 
L 114.929845 157.702638 
L 115.246952 168.693202 
L 115.310374 165.086247 
L 115.373795 163.219092 
L 115.437217 173.191311 
L 115.500638 170.608842 
L 116.00801 152.949984 
L 116.071432 153.459076 
L 116.134853 152.058831 
L 116.198275 152.525579 
L 116.325117 159.272742 
L 116.388539 156.981183 
L 116.45196 157.447931 
L 116.578803 162.752344 
L 116.642225 163.049395 
L 116.769068 168.565849 
L 116.832489 164.874044 
L 116.895911 166.826048 
L 117.149597 173.361008 
L 117.27644 171.748561 
L 117.403283 180.277868 
L 117.530126 174.931112 
L 117.656969 184.733471 
L 117.72039 181.975325 
L 117.974076 166.528997 
L 118.037497 166.444148 
L 118.100919 168.438656 
L 118.227762 163.346446 
L 118.544869 188.84968 
L 118.608291 190.504633 
L 118.735134 188.255579 
L 118.98882 199.882668 
L 119.052241 202.216571 
L 119.179084 199.882668 
L 119.242505 202.174147 
L 119.305927 201.580045 
L 119.369348 201.113297 
L 119.559613 203.107725 
L 119.623034 202.471198 
L 119.749877 205.5689 
L 119.87672 200.391922 
L 119.940142 203.659402 
L 120.003563 202.046874 
L 120.066985 199.755396 
L 120.193828 205.611325 
L 120.257249 203.234997 
L 120.320671 204.083726 
L 120.384092 207.733106 
L 120.447514 205.484052 
L 120.510935 198.991516 
L 120.574356 199.118869 
L 120.637778 201.537621 
L 120.701199 200.222144 
L 120.764621 200.137295 
L 120.891464 201.707399 
L 120.954885 201.664975 
L 121.14515 205.187001 
L 121.208571 205.441627 
L 121.271993 204.592899 
L 121.398836 207.139004 
L 121.525679 199.246142 
L 121.5891 200.816246 
L 121.652522 203.107725 
L 121.779365 200.010022 
L 121.906208 203.192573 
L 122.096472 199.118869 
L 122.159893 199.670547 
L 122.350158 198.439919 
L 122.477001 201.622469 
L 122.540422 143.232473 
L 122.603844 147.815268 
L 122.730687 139.880063 
L 122.85753 144.505364 
L 122.920951 142.595866 
L 123.047794 144.293323 
L 123.111216 142.553361 
L 123.174637 142.808068 
L 123.30148 148.112319 
L 123.364902 147.603228 
L 123.428323 147.051469 
L 123.74543 157.957184 
L 123.808852 154.26538 
L 123.872273 155.071685 
L 123.935695 158.890842 
L 123.999116 156.09003 
L 124.062538 156.896334 
L 124.125959 162.582647 
L 124.189381 158.339084 
L 124.252802 151.719275 
L 124.316224 156.132535 
L 124.379645 160.545795 
L 124.443067 157.872336 
L 124.506488 158.636135 
L 124.56991 161.648989 
L 124.696753 157.278234 
L 124.760174 159.230237 
L 124.823596 158.67864 
L 124.887017 156.132535 
L 125.01386 164.15275 
L 125.077281 162.200747 
L 125.140703 156.981183 
L 125.204124 160.630643 
L 125.267546 167.462655 
L 125.330967 166.571502 
L 125.521232 161.56414 
L 125.648075 169.881406 
L 125.711496 167.335301 
L 125.774918 166.910896 
L 125.901761 174.676566 
L 125.965182 173.573211 
L 126.218868 179.004815 
L 126.28229 178.835118 
L 126.345711 177.51956 
L 126.472554 181.25387 
L 126.535975 181.041668 
L 126.599397 180.702273 
L 126.72624 183.842399 
L 126.853083 176.628408 
L 126.916504 183.672621 
L 126.979926 180.235363 
L 127.043347 175.822265 
L 127.17019 184.945674 
L 127.297033 171.239308 
L 127.550719 184.775977 
L 127.614141 182.908822 
L 127.740984 178.028814 
L 127.994669 185.327574 
L 128.121512 183.545348 
L 128.375198 196.53034 
L 128.43862 200.094871 
L 128.565463 187.02495 
L 128.628884 190.122733 
L 128.692306 196.106016 
L 128.755727 194.196437 
L 128.819149 191.82011 
L 128.945992 196.784967 
L 129.009413 196.063591 
L 129.072835 196.657613 
L 129.199677 200.561619 
L 129.32652 199.118869 
L 129.453363 200.222144 
L 129.580206 194.069164 
L 129.643628 195.554338 
L 129.707049 202.089298 
L 129.770471 200.434346 
L 129.833892 192.753687 
L 129.897314 194.70569 
L 129.960735 201.452772 
L 130.024157 199.246142 
L 130.087578 195.936238 
L 130.151 198.312565 
L 130.214421 198.312565 
L 130.341264 193.856961 
L 130.404686 195.469489 
L 130.468107 195.045166 
L 130.658371 191.480634 
L 130.721793 192.541485 
L 130.785214 191.310856 
L 130.912057 200.47677 
L 131.0389 179.471564 
L 131.102322 182.31472 
L 131.165743 192.456636 
L 131.229165 191.565483 
L 131.356008 190.29243 
L 131.482851 178.495562 
L 131.546272 184.393996 
L 131.609694 184.266723 
L 131.673115 182.951246 
L 131.736537 186.600626 
L 131.86338 175.525214 
L 131.926801 177.562066 
L 131.990223 180.447565 
L 132.053644 179.683766 
L 132.180487 178.792613 
L 132.30733 186.473353 
L 132.434173 178.665421 
L 132.561016 186.515778 
L 132.624437 182.951246 
L 132.687859 183.036095 
L 132.814702 190.29243 
L 132.941545 183.587773 
L 133.004966 185.794403 
L 133.068388 185.539776 
L 133.195231 178.453219 
L 133.258652 178.75027 
L 133.322074 181.084173 
L 133.702602 157.278234 
L 133.766024 157.532941 
L 133.892867 161.139897 
L 134.01971 172.597209 
L 134.083131 172.130461 
L 134.209974 178.919967 
L 134.273396 178.580411 
L 134.336817 177.98647 
L 134.527082 179.598918 
L 134.717346 184.436501 
L 134.780768 182.739044 
L 134.907611 177.392368 
L 135.034453 180.744616 
L 135.161296 177.98647 
L 135.288139 189.104307 
L 135.414982 179.683766 
L 135.541825 186.430929 
L 135.668668 182.611771 
L 135.73209 183.333146 
L 135.795511 182.951246 
L 135.922354 180.744616 
L 136.049197 185.454927 
L 136.112619 185.157876 
L 136.239462 179.853463 
L 136.302883 184.351572 
L 136.366304 184.054521 
L 136.429726 179.174513 
L 136.493147 179.938312 
L 136.556569 180.617263 
L 136.61999 179.217018 
L 136.683412 181.805467 
L 136.746833 181.678274 
L 136.873676 177.774268 
L 137.000519 180.490071 
L 137.063941 184.054521 
L 137.127362 183.248297 
L 137.254205 179.132169 
L 137.381048 184.139451 
L 137.571313 171.06961 
L 137.698156 172.936603 
L 137.824998 172.724563 
L 137.951841 173.488362 
L 138.078684 171.875753 
L 138.142106 173.27616 
L 138.205527 173.191311 
L 138.33237 169.287304 
L 138.459213 174.33701 
L 138.522635 173.997454 
L 138.586056 174.082464 
L 138.712899 176.373862 
L 138.839742 197.930665 
L 138.903164 197.888241 
L 139.030007 196.021167 
L 139.15685 197.845817 
L 139.220271 197.803392 
L 139.283692 196.318137 
L 139.347114 196.912239 
L 139.410535 198.058019 
L 139.537378 192.838536 
L 139.6008 194.196437 
L 139.664221 193.262859 
L 139.791064 188.382851 
L 139.917907 192.838536 
L 140.171593 188.298003 
L 140.235015 187.703901 
L 140.361858 195.00266 
L 140.425279 192.711262 
L 140.678965 183.290722 
L 140.869229 189.528631 
L 140.932651 189.019378 
L 140.996072 187.194728 
L 141.059494 187.364426 
L 141.249758 189.783258 
L 141.376601 185.369998 
L 141.503444 190.462209 
L 141.630287 182.781549 
L 141.693709 183.333146 
L 141.820552 181.381224 
L 141.883973 183.37557 
L 141.947395 182.017669 
L 142.137659 177.222509 
L 142.20108 178.538067 
L 142.327923 184.90325 
L 142.391345 183.036095 
L 142.454766 183.630197 
L 142.518188 183.4605 
L 142.581609 179.895969 
L 142.645031 180.829465 
L 142.708452 184.012097 
L 142.835295 177.51956 
L 142.898717 179.132169 
L 143.02556 173.361008 
L 143.088981 175.228163 
L 143.279246 178.495562 
L 143.596353 168.226454 
L 143.723196 173.870262 
L 143.786617 172.385006 
L 143.850039 173.148806 
L 143.91346 173.700564 
L 143.976882 172.427512 
L 144.040303 172.597209 
L 144.103725 172.172804 
L 144.420832 162.455293 
L 144.484254 163.68584 
L 144.611097 155.453584 
L 144.73794 145.608719 
L 144.801361 146.075467 
L 144.864783 148.664078 
L 144.991625 144.929769 
L 145.118468 153.798632 
L 145.18189 152.82263 
L 145.372154 164.449801 
L 145.435576 162.327939 
L 145.498997 162.794849 
L 145.62584 167.886898 
L 145.752683 161.56414 
L 145.816105 162.285596 
L 145.879526 161.267089 
L 146.006369 163.303941 
L 146.069791 162.964546 
L 146.133212 166.231946 
L 146.196634 165.934895 
L 146.260055 164.279942 
L 146.386898 165.850046 
L 146.450319 165.807703 
L 146.513741 166.571502 
L 146.767427 160.078885 
L 146.830848 160.163895 
L 146.89427 112.891574 
L 146.957691 114.376829 
L 147.021113 118.450533 
L 147.084534 117.856431 
L 147.211377 110.897227 
L 147.591906 127.743801 
L 147.718749 126.385899 
L 147.782171 126.852648 
L 148.289542 146.881772 
L 148.352964 145.736073 
L 148.479807 141.237965 
L 148.60665 143.105119 
L 148.670071 142.171461 
L 148.987179 152.101174 
L 149.0506 150.658425 
L 149.114022 146.033124 
L 149.177443 148.324522 
L 149.240865 148.494219 
L 149.304286 145.651224 
L 149.367707 147.433369 
L 149.431129 149.724928 
L 149.557972 142.001764 
L 149.684815 151.931477 
L 149.811658 139.710366 
L 149.875079 142.044269 
L 150.001922 142.850412 
L 150.128765 147.391025 
L 150.192187 146.924277 
L 150.31903 148.069976 
L 150.445873 145.057122 
L 150.509294 146.712075 
L 150.636137 143.189968 
L 150.699559 147.391025 
L 150.76298 146.712075 
L 150.826401 143.020271 
L 150.953244 148.282178 
L 151.080087 140.940914 
L 151.20693 143.699221 
L 151.333773 141.747218 
L 151.460616 151.295032 
L 151.777724 139.413315 
L 151.904567 147.688076 
L 151.967988 146.839267 
L 152.03141 146.415024 
L 152.348517 167.759706 
L 152.411938 167.42015 
L 152.538781 162.285596 
L 152.602203 163.38879 
L 153.046153 185.115452 
L 153.172996 183.290722 
L 153.616946 192.456636 
L 153.743789 188.679902 
L 153.807211 188.764832 
L 153.870632 189.655904 
L 154.060897 183.290722 
L 154.124318 184.266723 
L 154.18774 183.630197 
L 154.251161 183.715046 
L 154.378004 189.23158 
L 154.504847 185.115452 
L 154.568269 187.40685 
L 154.63169 186.303575 
L 154.695112 182.823973 
L 154.758533 184.139451 
L 154.821955 186.812829 
L 154.948798 181.720618 
L 155.012219 176.076811 
L 155.07564 177.180166 
L 155.202483 177.943965 
L 155.265905 177.562066 
L 155.329326 177.731763 
L 155.456169 178.241016 
L 155.709855 185.285149 
L 155.90012 188.552629 
L 155.963541 186.770404 
L 156.026963 187.534203 
L 156.534334 196.700118 
L 156.597756 196.487916 
L 156.724599 193.008233 
L 157.041706 196.445491 
L 157.105128 199.41592 
L 157.168549 199.118869 
L 157.231971 199.628042 
L 157.358814 202.513623 
L 157.422235 201.24057 
L 157.485657 201.622469 
L 157.739343 202.768249 
L 157.802764 201.282994 
L 157.866186 201.622469 
L 157.993028 207.181428 
L 158.119871 202.768249 
L 158.183293 204.168575 
L 158.246714 207.733106 
L 158.310136 207.139004 
L 158.754086 182.526922 
L 158.817508 183.290722 
L 159.261458 195.130014 
L 159.388301 192.49906 
L 159.641987 199.967517 
L 159.76883 201.749823 
L 159.895673 199.118869 
L 160.276202 208.369632 
L 160.403045 203.532048 
L 160.466466 205.526476 
L 160.529888 208.242278 
L 160.656731 205.823527 
L 160.720152 210.279211 
L 160.783573 209.854806 
L 160.846995 207.09658 
L 160.973838 214.055864 
L 161.037259 211.297637 
L 161.164102 204.592899 
L 161.227524 206.120578 
L 161.354367 204.210999 
L 161.417788 205.908375 
L 161.544631 203.956372 
L 161.671474 208.581754 
L 161.861739 204.295928 
L 161.988582 205.908375 
L 162.115425 200.901095 
L 162.178846 202.513623 
L 162.242267 205.144576 
L 162.305689 203.616897 
L 162.36911 200.85867 
L 162.432532 202.30142 
L 162.559375 206.841953 
L 162.686218 199.967517 
L 162.749639 201.070873 
L 162.813061 202.471198 
L 163.003325 198.439919 
L 163.066747 200.094871 
L 163.19359 142.892917 
L 163.257011 142.72322 
L 163.383854 143.741565 
L 163.447276 143.529362 
L 163.510697 144.208313 
L 163.574119 143.953767 
L 163.700961 142.256471 
L 163.827804 143.614372 
L 163.954647 148.069976 
L 164.08149 142.72322 
L 164.208333 147.688076 
L 164.398598 141.110611 
L 164.652284 148.579229 
L 164.842548 141.407662 
L 164.90597 142.213966 
L 165.032813 144.972274 
L 165.223077 147.688076 
L 165.34992 148.239673 
L 165.476763 142.935422 
L 165.667027 150.573576 
L 165.79387 147.560723 
L 165.920713 153.883481 
L 166.110978 145.354173 
L 166.174399 146.839267 
L 166.237821 149.045978 
L 166.301242 148.409371 
L 166.364664 146.499872 
L 166.428085 147.475874 
L 166.491507 149.385372 
L 166.554928 148.706422 
L 166.681771 147.221328 
L 166.745192 144.632718 
L 166.808614 145.481365 
L 166.998878 153.798632 
L 167.0623 154.392734 
L 167.189143 152.568084 
L 167.252564 153.20453 
L 167.379407 147.391025 
L 167.442829 147.73042 
L 167.50625 148.112319 
L 167.569672 147.518217 
L 167.633093 147.857774 
L 167.696515 149.088321 
L 167.759936 148.961129 
L 167.886779 147.051469 
L 167.950201 147.093974 
L 168.013622 146.754418 
L 168.077043 147.900279 
L 168.267308 158.042033 
L 168.330729 157.744982 
L 168.394151 156.684132 
L 168.584415 164.322447 
L 168.647837 161.648989 
L 168.711258 163.558648 
L 168.964944 174.888607 
L 169.028366 174.252161 
L 169.155209 171.45151 
L 169.282052 173.785413 
L 169.345473 173.106462 
L 169.408894 173.785413 
L 169.599159 177.392368 
L 169.852845 179.683766 
L 170.043109 179.004815 
L 170.106531 178.96231 
L 170.169952 177.859117 
L 170.233374 177.90146 
L 170.360217 180.320373 
L 170.48706 175.991962 
L 170.613903 179.047321 
L 170.677324 178.113662 
L 170.804167 179.386715 
L 170.93101 177.434712 
L 170.994431 178.835118 
L 171.184696 170.475508 
L 171.248117 172.469855 
L 171.311539 173.95511 
L 171.438382 171.706056 
L 171.501803 173.658059 
L 171.628646 166.613845 
L 171.755489 176.289013 
L 171.882332 167.971747 
L 171.945754 168.905405 
L 172.072597 167.03825 
L 172.136018 168.438656 
L 172.19944 168.056757 
L 172.326282 166.910896 
L 172.453125 161.521797 
L 172.516547 162.412788 
L 172.706811 163.813194 
L 172.770233 163.643497 
L 172.897076 169.54185 
L 172.960497 167.377645 
L 173.08734 161.56414 
L 173.150762 163.4738 
L 173.214183 163.38879 
L 173.277605 162.837193 
L 173.404448 166.231946 
L 173.531291 162.922041 
L 173.594712 164.110245 
L 173.721555 158.29674 
L 173.784976 160.545795 
L 173.911819 163.516143 
L 174.165505 156.302232 
L 174.419191 141.619864 
L 174.482613 140.81356 
L 174.672877 151.549578 
L 174.863142 146.754418 
L 174.989985 154.010834 
L 175.116828 148.664078 
L 175.370513 156.55694 
L 175.433935 155.962838 
L 175.560778 158.127043 
L 175.624199 157.61779 
L 175.751042 157.23589 
L 175.877885 159.569793 
L 175.941307 158.551286 
L 176.004728 156.896334 
L 176.06815 157.108536 
L 176.131571 157.320739 
L 176.321836 156.684132 
L 176.385257 156.726637 
L 176.448679 156.047686 
L 176.5121 156.514435 
L 176.638943 162.243091 
L 176.702364 162.073393 
L 176.765786 161.351938 
L 176.892629 163.261597 
L 177.019472 162.115898 
L 177.146315 163.049395 
L 177.209736 162.964546 
L 177.273158 164.06774 
L 177.400001 160.630643 
L 177.463422 161.351938 
L 177.653687 162.709839 
L 177.717108 162.922041 
L 177.843951 157.320739 
L 177.907373 159.102883 
L 177.970794 163.728345 
L 178.034215 162.582647 
L 178.097637 156.811486 
L 178.161058 157.066031 
L 178.287901 164.53465 
L 178.414744 162.285596 
L 178.478166 162.879698 
L 178.541587 162.837193 
L 178.66843 162.115898 
L 178.795273 163.558648 
L 178.858695 163.431295 
L 178.922116 162.922041 
L 179.048959 169.075102 
L 179.112381 168.438656 
L 179.302645 165.934895 
L 179.429488 191.310856 
L 179.492909 192.583909 
L 179.619752 189.146731 
L 179.683174 189.23158 
L 179.810017 192.711262 
L 179.93686 188.637478 
L 180.000281 188.84968 
L 180.063703 189.146731 
L 180.127124 187.534203 
L 180.190546 187.746406 
L 180.253967 189.104307 
L 180.317389 188.128305 
L 180.38081 187.576628 
L 180.634496 190.886532 
L 180.761339 188.255579 
L 180.951603 193.814537 
L 181.205289 182.951246 
L 181.268711 183.4605 
L 181.458975 187.364426 
L 181.522397 186.727899 
L 181.64924 184.224299 
L 181.839504 187.576628 
L 181.966347 182.611771 
L 182.09319 187.491779 
L 182.220033 184.309148 
L 182.283455 185.072947 
L 182.410297 179.471564 
L 182.53714 182.69662 
L 182.663983 177.477217 
L 182.727405 178.071319 
L 183.107934 185.921676 
L 183.615306 172.300158 
L 183.868991 177.137661 
L 184.122677 168.650697 
L 184.186099 169.584355 
L 184.312942 173.361008 
L 184.439785 169.838901 
L 184.630049 173.573211 
L 184.947157 167.080755 
L 185.074 168.311303 
L 185.200842 161.606645 
L 185.391107 150.149172 
L 185.51795 153.331884 
L 185.581371 151.676931 
L 185.835057 161.436948 
L 185.9619 167.886898 
L 186.025322 166.868553 
L 186.088743 167.547504 
L 186.152165 169.54185 
L 186.215586 169.032597 
L 186.405851 164.916549 
L 186.469272 165.001398 
L 186.596115 168.0991 
L 186.659536 167.929403 
L 186.786379 168.778051 
L 186.913222 174.591556 
L 187.040065 169.796558 
L 187.103487 171.111954 
L 187.357173 166.613845 
L 187.420594 169.669204 
L 187.547437 126.725294 
L 187.610859 127.616447 
L 187.67428 127.361901 
L 187.801123 120.232839 
L 187.864545 121.20884 
L 187.991388 126.343394 
L 188.11823 133.048052 
L 188.181652 132.241747 
L 188.245073 132.666152 
L 188.308495 132.581304 
L 188.498759 130.841503 
L 188.562181 131.605302 
L 188.815867 142.892917 
L 188.879288 145.22682 
L 188.94271 143.911423 
L 189.132974 139.158607 
L 189.196396 140.898408 
L 189.323239 138.140262 
L 189.450082 142.511017 
L 189.513503 141.110611 
L 189.640346 144.208313 
L 189.703767 143.78407 
L 189.83061 142.511017 
L 189.957453 144.250818 
L 190.084296 142.044269 
L 190.147718 142.171461 
L 190.274561 146.075467 
L 190.528247 136.86721 
L 190.591668 137.249109 
L 190.718511 142.72322 
L 190.781933 141.832067 
L 190.845354 141.916915 
L 190.908776 143.147463 
L 190.972197 142.638371 
L 191.09904 136.103411 
L 191.162461 137.121756 
L 191.352726 144.208313 
L 191.669833 140.134609 
L 191.733255 136.442805 
L 191.796676 136.739856 
L 191.986941 147.178823 
L 192.050362 145.990619 
L 192.177205 138.819213 
L 192.240627 142.511017 
L 192.304048 140.81356 
L 192.367469 136.442805 
L 192.430891 138.097757 
L 192.747998 155.835484 
L 192.938263 166.528997 
L 193.001684 165.765197 
L 193.065106 162.794849 
L 193.128527 163.303941 
L 193.635899 179.047321 
L 193.762742 173.445857 
L 194.016428 182.739044 
L 194.206692 186.388424 
L 194.270114 185.412422 
L 194.396957 181.084173 
L 194.460378 183.502924 
L 194.5238 183.036095 
L 194.650643 178.665421 
L 194.714064 178.877462 
L 194.840907 176.755761 
L 194.904329 177.943965 
L 195.221436 172.554704 
L 195.284857 171.790904 
L 195.4117 173.488362 
L 195.475122 173.148806 
L 195.538543 172.51236 
L 195.665386 179.471564 
L 195.728808 179.386715 
L 195.855651 178.198511 
L 195.919072 178.707764 
L 196.426444 194.026659 
L 196.489866 193.602335 
L 196.553287 193.093162 
L 196.68013 196.954664 
L 197.060659 197.463917 
L 197.187502 195.978662 
L 197.250923 196.572764 
L 197.314345 196.360642 
L 197.377766 196.360642 
L 197.504609 200.306993 
L 197.568031 199.034021 
L 197.631452 199.628042 
L 197.758295 204.847525 
L 197.821717 203.4472 
L 197.94856 208.666683 
L 198.011981 206.417629 
L 198.075403 207.520904 
L 198.265667 210.830808 
L 198.582774 219.275347 
L 198.646196 217.195991 
L 198.709617 217.450617 
L 198.83646 225.088852 
L 198.899882 222.967152 
L 198.963303 221.524402 
L 199.026725 223.4339 
L 199.343832 213.164711 
L 199.597518 219.105569 
L 199.787782 230.223487 
L 199.851204 230.096133 
L 199.914625 228.313908 
L 200.231733 238.837723 
L 200.295154 238.201197 
L 200.358576 237.055418 
L 200.421997 237.988995 
L 200.485419 237.776873 
L 200.54884 237.225196 
L 200.612262 237.819298 
L 200.739105 239.813725 
L 200.802526 239.219623 
L 200.929369 242.74173 
L 201.056212 236.970569 
L 201.119633 239.940998 
L 201.183055 239.346896 
L 201.246476 237.437398 
L 201.373319 241.171626 
L 201.436741 239.983422 
L 201.563584 244.86343 
L 201.690427 237.225196 
L 201.81727 237.522247 
L 201.880691 236.715942 
L 202.007534 238.498248 
L 202.134377 236.970569 
L 202.26122 239.389401 
L 202.324642 239.304472 
L 202.451484 237.182771 
L 202.514906 237.819298 
L 202.578327 238.116349 
L 202.70517 230.817589 
L 202.768592 232.17549 
L 202.832013 233.61824 
L 202.958856 228.483686 
L 203.085699 234.212342 
L 203.339385 227.380331 
L 203.466228 228.059281 
L 203.593071 223.858305 
L 203.656493 227.422755 
L 203.719914 119.978131 
L 203.783336 122.65159 
L 203.910178 120.402536 
L 204.037021 122.312034 
L 204.163864 121.293689 
L 204.290707 122.014983 
L 204.354129 120.572233 
L 204.41755 121.718094 
L 204.480972 125.834141 
L 204.544393 125.197695 
L 204.607815 120.996638 
L 204.671236 121.081486 
L 204.861501 126.513091 
L 204.924922 126.767799 
L 204.988344 125.791797 
L 205.115187 128.083195 
L 205.178608 126.59794 
L 205.305451 129.738147 
L 205.432294 122.65159 
L 205.559137 129.653299 
L 205.622558 127.573942 
L 205.68598 127.913498 
L 205.749401 132.029707 
L 205.812823 131.605302 
L 205.876244 128.380246 
L 205.939666 128.592449 
L 206.003087 128.719802 
L 206.066509 126.428243 
L 206.12993 127.828649 
L 206.193352 131.944697 
L 206.256773 131.647807 
L 206.320195 128.974348 
L 206.383616 130.077704 
L 206.510459 134.787853 
L 206.700724 130.33225 
L 206.827566 135.80636 
L 206.890988 134.193751 
L 206.954409 133.769508 
L 207.144674 140.177114 
L 207.208095 139.880063 
L 207.271517 138.904062 
L 207.588624 143.487019 
L 207.652046 144.335667 
L 207.715467 144.123464 
L 207.778889 143.232473 
L 207.905732 145.523871 
L 208.032575 140.728711 
L 208.095996 143.274817 
L 208.159417 142.850412 
L 208.222839 142.298815 
L 208.349682 146.117973 
L 208.539946 140.134609 
L 208.730211 149.215675 
L 208.793632 147.221328 
L 208.857054 147.051469 
L 209.047318 148.579229 
L 209.11074 148.664078 
L 209.174161 148.409371 
L 209.237583 147.093974 
L 209.491269 155.411079 
L 209.55469 158.890842 
L 209.618111 158.466438 
L 209.681533 156.217384 
L 209.744954 156.472091 
L 210.569434 175.652406 
L 210.696277 173.658059 
L 210.759698 171.83341 
L 210.886541 177.859117 
L 210.949963 175.39786 
L 211.013384 170.6027 
L 211.076805 172.215309 
L 211.140227 175.313011 
L 211.203648 173.827756 
L 211.26707 173.148806 
L 211.393913 176.161659 
L 211.520756 172.215309 
L 211.584177 174.294505 
L 211.71102 169.711709 
L 211.774442 171.493853 
L 211.837863 170.305649 
L 211.901285 169.626699 
L 212.091549 174.803758 
L 212.154971 172.257653 
L 212.218392 162.370444 
L 212.281814 164.237599 
L 212.345235 172.809411 
L 212.408657 170.814903 
L 212.472078 169.754053 
L 212.535499 174.421858 
L 212.598921 172.979109 
L 212.662342 171.196802 
L 212.916028 184.012097 
L 212.97945 183.37557 
L 213.042871 177.774268 
L 213.106293 178.792613 
L 213.233136 184.393996 
L 213.296557 184.224299 
L 213.359979 182.993671 
L 213.4234 183.37557 
L 213.486822 189.189156 
L 213.550243 188.976953 
L 213.613665 184.139451 
L 213.677086 186.600626 
L 213.740508 188.934529 
L 213.867351 184.351572 
L 213.994193 191.43821 
L 214.121036 184.52135 
L 214.247879 188.298003 
L 214.374722 181.63577 
L 214.501565 186.261151 
L 214.628408 176.967963 
L 214.69183 177.392368 
L 214.755251 181.338719 
L 214.882094 169.244799 
L 214.945516 170.008599 
L 215.389466 184.436501 
L 215.516309 183.078519 
L 215.643152 184.096945 
L 215.769995 183.078519 
L 215.960259 190.122733 
L 216.087102 183.969672 
L 216.213945 188.298003 
L 216.340788 184.266723 
L 216.467631 193.220435 
L 216.594474 184.012097 
L 216.657896 187.02495 
L 216.721317 189.740833 
L 216.84816 186.473353 
L 216.911581 187.237152 
L 217.038424 183.333146 
L 217.101846 184.096945 
L 217.228689 188.382851 
L 217.29211 188.000952 
L 217.418953 184.775977 
L 217.545796 188.255579 
L 217.672639 182.272215 
L 217.736061 184.224299 
L 217.799482 183.630197 
L 217.862904 183.37557 
L 217.926325 183.842399 
L 218.053168 180.744616 
L 218.11659 181.763123 
L 218.306854 184.691047 
L 218.370275 184.309148 
L 218.433697 182.145023 
L 218.497118 182.739044 
L 218.56054 185.624625 
L 218.687383 177.349863 
L 218.750804 177.689419 
L 218.814226 179.768615 
L 218.877647 178.707764 
L 219.00449 176.883115 
L 219.131333 178.580411 
L 219.258176 176.628408 
L 219.321598 177.222509 
L 219.385019 177.604409 
L 219.511862 173.445857 
L 219.575284 174.931112 
L 219.638705 178.707764 
L 219.702126 178.198511 
L 219.765548 177.010469 
L 219.892391 178.28336 
L 220.019234 208.327208 
L 220.082655 208.242278 
L 220.209498 205.441627 
L 220.336341 207.860379 
L 220.399763 207.09658 
L 220.526606 203.659402 
L 220.590027 204.932374 
L 220.653449 204.380777 
L 220.843713 199.840244 
L 220.907135 199.034021 
L 220.970556 199.458345 
L 221.033978 200.179719 
L 221.16082 197.166866 
L 221.351085 194.408639 
L 221.414506 192.88096 
L 221.541349 196.190864 
L 221.795035 188.425357 
L 221.858457 188.679902 
L 221.9853 190.504633 
L 222.175564 188.298003 
L 222.238986 186.303575 
L 222.302407 187.194728 
L 222.365829 190.250006 
L 222.42925 189.274004 
L 222.556093 182.951246 
L 222.682936 189.61348 
L 222.8732 179.598918 
L 223.000043 176.204164 
L 223.126886 179.301867 
L 223.253729 171.918258 
L 223.507415 177.816611 
L 223.634258 174.379515 
L 223.69768 177.265014 
L 223.824523 172.300158 
L 223.887944 175.143314 
L 224.205051 163.813194 
L 224.331894 167.504998 
L 224.395316 164.53465 
L 224.458737 167.165604 
L 224.522159 166.826048 
L 224.712423 159.145388 
L 224.775845 157.447931 
L 224.902688 164.619498 
L 224.966109 162.709839 
L 225.029531 160.163895 
L 225.092952 160.630643 
L 225.156374 163.346446 
L 225.219795 162.582647 
L 225.346638 157.872336 
L 225.410059 158.339084 
L 225.600324 153.119681 
L 225.663745 153.713783 
L 225.790588 150.31903 
L 225.980853 142.044269 
L 226.044274 144.632718 
L 226.107696 143.826413 
L 226.171117 140.219458 
L 226.29796 147.475874 
L 226.361382 144.887425 
L 226.424803 146.202821 
L 226.551646 153.628935 
L 226.678489 148.069976 
L 226.805332 154.095683 
L 226.932175 146.754418 
L 226.995596 147.391025 
L 227.059018 147.136318 
L 227.122439 147.221328 
L 227.185861 147.391025 
L 227.249282 147.136318 
L 227.439547 150.658425 
L 227.502968 149.852282 
L 227.56639 147.560723 
L 227.629811 148.324522 
L 227.693233 149.300524 
L 227.820076 141.916915 
L 227.883497 141.95942 
L 227.946919 141.28047 
L 228.01034 142.129118 
L 228.073762 108.266273 
L 228.137183 109.19977 
L 228.200605 112.17028 
L 228.264026 111.406319 
L 228.390869 104.87152 
L 228.707976 116.541035 
L 228.771398 117.347177 
L 228.961662 113.188625 
L 229.27877 124.348886 
L 229.342191 123.118338 
L 229.469034 130.459603 
L 229.532456 128.804651 
L 229.659299 125.367393 
L 229.849563 127.107193 
L 230.230092 133.98171 
L 230.483778 130.671805 
L 230.610621 133.1329 
L 230.737464 126.894991 
L 230.864307 134.957712 
L 230.99115 125.706949 
L 231.054571 127.107193 
L 231.117993 127.276891 
L 231.181414 127.149699 
L 231.308257 132.581304 
L 231.371678 130.6293 
L 231.4351 131.605302 
L 231.498521 133.005708 
L 231.625364 131.223402 
L 231.688786 131.902353 
L 231.752207 131.180897 
L 231.815629 131.477948 
L 231.87905 133.260254 
L 231.942472 132.878355 
L 232.005893 131.690151 
L 232.132736 134.108902 
L 232.259579 130.501947 
L 232.323001 131.138554 
L 232.386422 132.241747 
L 232.449844 131.308251 
L 232.513265 131.350756 
L 232.640108 137.121756 
L 232.766951 131.647807 
L 232.830372 131.690151 
L 232.957215 127.701295 
L 233.14748 136.442805 
L 233.210901 135.339611 
L 233.528009 149.597575 
L 233.59143 148.621573 
L 233.654852 146.924277 
L 233.718273 147.475874 
L 233.781695 147.645571 
L 233.845116 148.664078 
L 234.03538 157.702638 
L 234.098802 157.278234 
L 234.225645 162.327939 
L 234.289066 161.733837 
L 234.352488 161.436948 
L 234.479331 163.00689 
L 234.542752 162.497798 
L 234.733017 169.329648 
L 234.986703 166.698694 
L 235.050124 166.953402 
L 235.113546 167.929403 
L 235.367232 162.922041 
L 235.430653 164.110245 
L 235.494074 168.311303 
L 235.557496 167.547504 
L 235.620917 163.38879 
L 235.684339 165.001398 
L 235.74776 167.03825 
L 235.874603 162.073393 
L 236.064868 167.250453 
L 236.128289 165.552995 
L 236.191711 169.711709 
L 236.255132 168.353646 
L 236.381975 165.425803 
L 236.445397 166.528997 
L 236.508818 168.183949 
L 236.635661 162.62499 
L 237.079611 179.301867 
L 237.143033 177.137661 
L 237.206454 175.185658 
L 237.650405 186.770404 
L 237.777248 193.856961 
L 237.904091 191.310856 
L 238.030934 193.984235 
L 238.094355 193.135587 
L 238.157777 190.631906 
L 238.221198 191.141159 
L 238.28462 192.117161 
L 238.348041 190.886532 
L 238.474884 196.615188 
L 238.538305 195.936238 
L 238.665148 193.178011 
L 238.791991 194.32371 
L 238.855413 193.94181 
L 238.918834 193.305284 
L 239.17252 197.97309 
L 239.299363 192.286858 
L 239.362785 195.257287 
L 239.426206 201.707399 
L 239.489628 199.246142 
L 239.616471 188.213154 
L 239.679892 189.783258 
L 240.060421 179.386715 
L 240.187264 184.478926 
L 240.250685 183.333146 
L 240.377528 187.10988 
L 240.567793 177.010469 
L 240.821479 184.393996 
L 240.948322 186.940101 
L 241.011743 184.436501 
L 241.075165 184.90325 
L 241.32885 193.772113 
L 241.455693 196.572764 
L 241.582536 193.899386 
L 241.709379 198.609616 
L 241.772801 196.572764 
L 241.836222 195.00266 
L 241.963065 199.925093 
L 242.026487 195.427065 
L 242.089908 196.487916 
L 242.15333 201.834672 
L 242.216751 200.349498 
L 242.407016 195.511914 
L 242.470437 192.838536 
L 242.59728 197.803392 
L 242.660701 195.936238 
L 242.724123 196.997088 
L 242.850966 203.829099 
L 242.977809 200.222144 
L 243.168073 208.454481 
L 243.294916 203.319927 
L 243.421759 209.260785 
L 243.548602 198.694545 
L 243.675445 208.115006 
L 243.738867 207.690682 
L 243.86571 203.744251 
L 243.992553 206.841953 
L 244.055974 203.4472 
L 244.119395 204.253423 
L 244.246238 208.369632 
L 244.373081 112.127775 
L 244.436503 110.133428 
L 244.626767 117.432187 
L 244.75361 107.714515 
L 244.880453 110.812378 
L 245.007296 103.72566 
L 245.070718 109.19977 
L 245.134139 107.587322 
L 245.197561 103.471114 
L 245.324404 112.509674 
L 245.387825 111.151773 
L 245.514668 104.107559 
L 245.578089 104.574469 
L 245.831775 111.915572 
L 245.958618 105.210915 
L 246.02204 108.648173 
L 246.085461 107.969222 
L 246.148883 106.31427 
L 246.402569 118.026128 
L 246.46599 120.742092 
L 246.592833 112.679371 
L 246.656255 115.692225 
L 246.846519 123.797289 
L 246.909941 124.47624 
L 246.973362 121.293689 
L 247.036783 122.736439 
L 247.100205 128.040852 
L 247.163626 127.828649 
L 247.353891 119.893282 
L 247.607577 128.295398 
L 247.73442 134.193751 
L 247.861263 126.258546 
L 247.924684 126.385899 
L 248.051527 125.579595 
L 248.17837 141.747218 
L 248.241792 136.824705 
L 248.305213 132.156899 
L 248.368634 138.437313 
L 248.432056 138.394808 
L 248.495477 130.926351 
L 248.558899 131.520453 
L 248.62232 131.520453 
L 248.685742 127.786144 
L 248.812585 135.212258 
L 248.876006 134.236256 
L 249.002849 138.776708 
L 249.066271 138.225111 
L 249.193114 132.284252 
L 249.256535 134.024053 
L 249.700486 157.490436 
L 249.763907 157.066031 
L 249.827328 154.689785 
L 250.207857 170.772559 
L 250.3347 165.128752 
L 250.461543 170.220801 
L 251.032337 186.940101 
L 251.15918 189.146731 
L 251.222601 190.037804 
L 251.349444 186.133878 
L 251.476287 190.080309 
L 251.60313 188.17073 
L 251.729973 192.117161 
L 251.983659 197.039593 
L 252.110502 194.832963 
L 252.237345 198.567192 
L 252.364188 192.202009 
L 252.427609 193.347708 
L 252.491031 194.70569 
L 252.617874 191.141159 
L 252.681295 195.681611 
L 252.744716 193.305284 
L 252.808138 186.855253 
L 252.934981 200.943519 
L 252.998402 199.076445 
L 253.061824 199.161294 
L 253.125245 200.47677 
L 253.188667 194.748115 
L 253.252088 195.299711 
L 253.31551 201.155721 
L 253.378931 200.773822 
L 253.505774 204.295928 
L 253.632617 198.609616 
L 253.75946 208.030157 
L 253.822882 207.351206 
L 253.949725 207.520904 
L 254.076568 212.910165 
L 254.139989 211.297637 
L 254.266832 206.71468 
L 254.330253 209.685109 
L 254.393675 208.836381 
L 254.457096 207.563328 
L 254.583939 209.98216 
L 254.647361 207.733106 
L 254.774204 213.207135 
L 254.901047 203.4472 
L 254.964468 204.465626 
L 255.091311 207.266277 
L 255.154733 206.290356 
L 255.218154 202.598471 
L 255.281576 203.404776 
L 255.344997 203.404776 
L 255.598683 185.836827 
L 255.662104 186.940101 
L 255.788947 196.615188 
L 255.852369 193.135587 
L 255.979212 198.270141 
L 256.042633 194.70569 
L 256.106055 195.893813 
L 256.169476 198.949091 
L 256.232898 196.912239 
L 256.296319 197.633614 
L 256.486584 205.356779 
L 256.613427 203.532048 
L 256.74027 206.33278 
L 256.867113 198.439919 
L 256.930534 198.906667 
L 256.993955 201.961945 
L 257.057377 201.749823 
L 257.18422 194.111588 
L 257.247641 194.238861 
L 257.374484 199.882668 
L 257.437906 198.524767 
L 257.564749 192.286858 
L 257.755013 196.954664 
L 257.818435 201.155721 
L 257.881856 200.094871 
L 258.008699 196.360642 
L 258.135542 200.052447 
L 258.198964 199.712971 
L 258.262385 200.519195 
L 258.389228 195.00266 
L 258.452649 197.039593 
L 258.516071 196.657613 
L 258.579492 192.117161 
L 258.642914 193.814537 
L 258.706335 197.676119 
L 258.769757 197.294139 
L 258.833178 198.397494 
L 258.8966 194.917812 
L 259.023443 171.06961 
L 259.150286 185.497352 
L 259.213707 181.041668 
L 259.277129 173.615554 
L 259.34055 174.676566 
L 259.530815 183.715046 
L 259.657658 180.405222 
L 259.784501 183.545348 
L 259.974765 179.089664 
L 260.101608 181.25387 
L 260.291872 188.467781 
L 260.355294 184.393996 
L 260.418715 184.988098 
L 260.482137 185.836827 
L 260.60898 174.379515 
L 260.672401 173.233654 
L 260.735823 174.082464 
L 260.862666 172.342501 
L 260.989509 180.787122 
L 261.116352 171.324156 
L 261.179773 173.106462 
L 261.243195 173.870262 
L 261.306616 172.130461 
L 261.370037 172.851755 
L 261.433459 174.039959 
L 261.560302 169.329648 
L 261.623723 170.814903 
L 261.750566 167.547504 
L 261.877409 172.342501 
L 261.940831 171.366661 
L 262.067674 179.726271 
L 262.131095 179.386715 
L 262.257938 172.003107 
L 262.32136 172.89426 
L 262.448203 168.0991 
L 262.638467 174.506707 
L 262.828731 170.220801 
L 262.955574 175.143314 
L 263.018996 174.761415 
L 263.082417 172.427512 
L 263.145839 173.148806 
L 263.20926 178.622916 
L 263.272682 177.646914 
L 263.336103 171.366661 
L 263.399525 174.973455 
L 263.462946 180.999324 
L 263.589789 173.615554 
L 263.653211 179.471564 
L 263.716632 178.792613 
L 263.843475 171.281651 
L 263.906897 171.875753 
L 263.970318 171.239308 
L 264.224004 184.818401 
L 264.287425 183.036095 
L 264.47769 179.132169 
L 264.604533 183.036095 
L 264.731376 175.991962 
L 264.794797 177.689419 
L 264.858219 178.707764 
L 264.92164 178.622916 
L 264.985062 182.739044 
L 265.048483 181.720618 
L 265.111905 176.713418 
L 265.175326 177.604409 
L 265.238748 178.156168 
L 265.365591 172.682057 
L 265.492434 179.556412 
L 265.682698 177.98647 
L 265.746119 178.707764 
L 265.872962 183.630197 
L 266.063227 176.246508 
L 266.126648 181.508416 
L 266.19007 180.19302 
L 266.316913 173.191311 
L 266.380334 173.742908 
L 266.507177 165.552995 
L 266.63402 171.324156 
L 266.760863 166.953402 
L 267.204813 192.414212 
L 267.268235 192.838536 
L 267.331656 192.329282 
L 267.458499 188.552629 
L 267.521921 188.764832 
L 267.648764 184.436501 
L 267.712185 185.157876 
L 267.775607 184.224299 
L 267.839028 184.436501 
L 268.029293 188.425357 
L 268.092714 186.812829 
L 268.156136 186.940101 
L 268.219557 188.17073 
L 268.3464 184.733471 
L 268.409822 185.794403 
L 268.473243 184.90325 
L 268.536664 184.945674 
L 268.600086 187.449355 
L 268.726929 137.121756 
L 268.980615 126.894991 
L 269.234301 137.843211 
L 269.297722 137.376463 
L 269.424565 131.732656 
L 269.487987 133.727002 
L 269.551408 132.751001 
L 269.678251 122.057488 
L 269.741673 123.415389 
L 269.931937 134.830358 
L 269.995358 135.212258 
L 270.122201 133.472457 
L 270.185623 133.429951 
L 270.249044 131.308251 
L 270.312466 131.605302 
L 270.375887 133.048052 
L 270.439309 131.308251 
L 270.50273 132.029707 
L 270.629573 137.673514 
L 270.692995 136.655008 
L 270.756416 133.217749 
L 270.819838 134.066559 
L 270.883259 138.904062 
L 270.946681 138.649516 
L 271.010102 136.018562 
L 271.073524 138.691859 
L 271.136945 138.30996 
L 271.200367 132.07205 
L 271.263788 132.199404 
L 271.32721 136.357957 
L 271.390631 134.872701 
L 271.454052 130.926351 
L 271.517474 131.138554 
L 271.580895 133.048052 
L 271.644317 132.963203 
L 271.77116 130.756654 
L 271.898003 138.819213 
L 271.961424 137.079412 
L 272.024846 132.751001 
L 272.088267 134.745509 
L 272.151689 137.970565 
L 272.278532 125.112847 
L 272.341953 128.974348 
L 272.405375 135.466803 
L 272.468796 133.345103 
L 272.532218 133.048052 
L 272.595639 138.267616 
L 272.659061 137.461312 
L 272.722482 132.029707 
L 272.785903 133.811851 
L 272.849325 139.201113 
L 272.912746 136.273108 
L 272.976168 131.3931 
L 273.103011 141.407662 
L 273.166432 140.474165 
L 273.356697 128.083195 
L 273.420118 130.756654 
L 273.48354 136.103411 
L 273.546961 132.114555 
L 273.610383 127.192042 
L 273.737226 141.450167 
L 273.800647 140.81356 
L 273.864069 139.625517 
L 273.990912 142.850412 
L 274.117755 157.532941 
L 274.181176 154.138026 
L 274.244597 149.809777 
L 274.815391 182.272215 
L 274.878812 179.344372 
L 274.942234 180.829465 
L 275.005655 184.309148 
L 275.069077 184.012097 
L 275.132498 182.866398 
L 275.259341 187.449355 
L 275.322763 186.940101 
L 275.449606 183.37557 
L 275.576449 176.798266 
L 275.63987 178.792613 
L 275.703291 178.707764 
L 275.893556 173.997454 
L 275.956977 174.209656 
L 276.147242 180.744616 
L 276.210663 179.259361 
L 276.274085 179.598918 
L 276.337506 182.908822 
L 276.400928 181.93282 
L 276.464349 178.75027 
L 276.591192 187.534203 
L 276.844878 169.117607 
L 276.971721 168.226454 
L 277.035143 167.42015 
L 277.161985 168.226454 
L 277.225407 167.674696 
L 277.605936 179.174513 
L 277.732779 177.816611 
L 278.049886 184.794159 
L 278.366994 194.366215 
L 278.430415 193.644759 
L 278.493837 191.947383 
L 278.557258 192.329282 
L 278.684101 196.106016 
L 278.747522 195.76654 
L 279.001208 201.537621 
L 279.06463 205.441627 
L 279.128051 204.423201 
L 279.191473 202.513623 
L 279.254894 203.701827 
L 279.381737 206.460053 
L 279.445159 205.781103 
L 279.50858 205.865951 
L 279.762266 210.915737 
L 279.825688 210.109433 
L 279.889109 207.393631 
L 280.015952 215.031865 
L 280.079373 214.777239 
L 280.396481 193.984235 
L 280.586745 188.085881 
L 280.967274 200.773822 
L 281.030696 199.755396 
L 281.157539 193.093162 
L 281.284382 201.91952 
L 281.347803 200.519195 
L 281.474646 205.865951 
L 281.538067 205.229425 
L 281.601489 203.489624 
L 281.66491 204.380777 
L 282.045439 216.89902 
L 282.108861 215.668392 
L 282.172282 211.891658 
L 282.299125 218.299346 
L 282.425968 212.782811 
L 282.48939 218.214497 
L 282.552811 217.747668 
L 282.616233 214.819663 
L 282.679654 216.941445 
L 282.743076 220.123995 
L 282.806497 217.790092 
L 282.93334 211.934164 
L 282.996761 212.146285 
L 283.060183 211.764385 
L 283.187026 212.910165 
L 283.250447 211.467334 
L 283.313869 212.273639 
L 283.440712 218.553973 
L 283.567555 211.721961 
L 283.630976 212.061436 
L 283.757819 216.22007 
L 283.884662 208.327208 
L 284.011505 215.45619 
L 284.138348 206.290356 
L 284.20177 208.836381 
L 284.328612 214.01344 
L 284.455455 207.733106 
L 284.582298 209.430483 
L 284.709141 205.823527 
L 284.772563 206.417629 
L 284.835984 209.006158 
L 284.899406 115.013274 
L 284.962827 116.159135 
L 285.026249 114.631375 
L 285.08967 115.73473 
L 285.153092 117.304834 
L 285.216513 116.838086 
L 285.406778 115.098285 
L 285.533621 114.546526 
L 285.660464 116.880429 
L 285.723885 116.710732 
L 285.787306 115.692225 
L 285.850728 115.73473 
L 285.977571 118.832432 
L 286.167835 110.64252 
L 286.421521 118.747584 
L 286.548364 112.721876 
L 286.611786 113.018927 
L 286.738629 113.358322 
L 287.119158 126.385899 
L 287.246 120.190333 
L 287.436265 127.489093 
L 287.626529 129.695804 
L 287.689951 132.920698 
L 287.753372 132.581304 
L 287.880215 125.070342 
L 287.943637 126.21604 
L 288.197323 136.357957 
L 288.260744 139.201113 
L 288.324166 138.734364 
L 288.451009 136.782361 
L 288.577851 133.429951 
L 288.768116 148.324522 
L 288.831537 145.693568 
L 288.894959 143.232473 
L 289.021802 146.117973 
L 289.212066 140.898408 
L 289.275488 137.673514 
L 289.402331 143.40217 
L 289.465752 141.704713 
L 289.529174 141.407662 
L 289.656017 144.123464 
L 289.78286 140.81356 
L 289.846281 141.87441 
L 290.099967 155.877989 
L 290.67076 178.877462 
L 290.797603 184.181875 
L 290.924446 176.967963 
L 291.051289 184.012097 
L 291.114711 183.969672 
L 291.178132 184.224299 
L 291.495239 191.862534 
L 291.558661 193.305284 
L 291.685504 191.650332 
L 291.812347 194.451063 
L 291.93919 188.510205 
L 292.066033 194.578337 
L 292.192876 187.491779 
L 292.256297 189.486207 
L 292.38314 195.08759 
L 292.446562 193.262859 
L 292.509983 193.517486 
L 292.573405 194.70569 
L 292.700248 190.886532 
L 292.827091 194.451063 
L 292.953933 182.951246 
L 293.017355 186.388424 
L 293.080776 190.504633 
L 293.144198 187.576628 
L 293.207619 186.176302 
L 293.271041 189.146731 
L 293.334462 186.940101 
L 293.397884 181.211365 
L 293.461305 185.369998 
L 293.524727 192.371707 
L 293.588148 190.886532 
L 293.778413 183.248297 
L 293.841834 184.606199 
L 293.905256 189.316429 
L 293.968677 189.23158 
L 294.222363 182.145023 
L 294.285785 184.012097 
L 294.412627 190.037804 
L 294.53947 188.679902 
L 294.666313 193.644759 
L 294.793156 183.969672 
L 294.856578 185.539776 
L 294.919999 187.619052 
L 294.983421 185.879251 
L 295.046842 186.091453 
L 295.110264 188.892105 
L 295.173685 188.807256 
L 295.237107 187.322001 
L 295.300528 188.340427 
L 295.36395 187.958528 
L 295.490793 181.890315 
L 295.554214 182.441993 
L 295.681057 184.818401 
L 295.744479 183.799975 
L 296.25185 156.726637 
L 296.378693 166.741199 
L 296.442115 165.128752 
L 296.505536 163.600992 
L 296.568958 163.68584 
L 296.632379 163.898043 
L 296.759222 168.438656 
L 296.822644 167.759706 
L 296.886065 166.868553 
L 297.266594 174.294505 
L 297.330015 175.482709 
L 297.456858 173.445857 
L 297.52028 173.997454 
L 297.647123 179.641423 
L 297.773966 172.385006 
L 297.837387 172.936603 
L 297.96423 173.445857 
L 298.027652 172.89426 
L 298.154495 167.674696 
L 298.344759 173.95511 
L 298.408181 177.562066 
L 298.471602 175.610062 
L 298.535024 172.003107 
L 298.598445 174.379515 
L 298.661866 178.410713 
L 298.725288 177.562066 
L 298.788709 176.204164 
L 298.915552 178.113662 
L 298.978974 177.604409 
L 299.042395 179.089664 
L 299.169238 172.851755 
L 299.23266 174.039959 
L 299.296081 174.676566 
L 299.359503 174.167313 
L 299.486346 178.28336 
L 299.613189 166.826048 
L 299.740032 175.864608 
L 299.803453 172.215309 
L 299.866875 166.995745 
L 299.930296 169.075102 
L 300.057139 175.822265 
L 300.12056 175.143314 
L 300.247403 173.530705 
L 300.310825 173.827756 
L 300.437668 172.469855 
L 300.754775 177.265014 
L 300.818197 179.938312 
L 300.881618 178.325865 
L 300.94504 177.477217 
L 301.008461 178.453219 
L 301.071883 175.652406 
L 301.135304 184.012097 
L 301.198726 183.884824 
L 301.262147 184.012097 
L 301.325569 183.884824 
L 301.452412 182.69662 
L 301.579254 184.945674 
L 301.769519 179.42922 
L 301.83294 179.514069 
L 301.959783 177.859117 
L 302.086626 178.75027 
L 302.213469 176.670913 
L 302.593998 180.956819 
L 302.65742 185.285149 
L 302.720841 185.115452 
L 302.974527 172.89426 
L 303.10137 175.949457 
L 303.164791 174.761415 
L 303.291634 177.265014 
L 303.418477 172.215309 
L 303.54532 178.622916 
L 303.608742 177.392368 
L 303.735585 173.021614 
L 303.799006 174.506707 
L 303.862428 174.464364 
L 303.925849 173.233654 
L 303.989271 174.124807 
L 304.052692 174.888607 
L 304.179535 170.899751 
L 304.306378 173.95511 
L 304.496642 167.547504 
L 304.877171 176.543559 
L 305.004014 172.554704 
L 305.067436 173.403513 
L 305.130857 172.851755 
L 305.321122 168.438656 
L 305.447965 166.826048 
L 305.574808 169.329648 
L 305.638229 168.650697 
L 305.765072 163.516143 
L 305.891915 159.781996 
L 306.018758 163.982891 
L 306.209022 162.073393 
L 306.272444 162.073393 
L 306.399287 163.643497 
L 306.716394 157.320739 
L 306.779816 158.211892 
L 306.843237 156.85399 
L 307.160345 132.326758 
L 307.223766 136.230603 
L 307.287187 136.782361 
L 307.350609 136.018562 
L 307.794559 158.29674 
L 307.857981 158.042033 
L 307.921402 159.654642 
L 307.984824 159.442439 
L 308.23851 155.156533 
L 308.365353 157.787487 
L 308.428774 155.326231 
L 308.492196 155.70813 
L 308.68246 160.375936 
L 308.809303 158.127043 
L 308.872724 158.169387 
L 309.12641 156.132535 
L 309.189832 157.999689 
L 309.316675 128.337903 
L 309.443518 124.645937 
L 309.570361 119.68108 
L 309.760625 126.810142 
L 309.887468 132.878355 
L 310.014311 131.477948 
L 310.077733 132.156899 
L 310.141154 131.435605 
L 310.267997 125.706949 
L 310.331418 126.68295 
L 310.585104 138.522162 
L 310.648526 139.328466 
L 310.775369 136.994563 
L 310.83879 135.04256 
L 310.902212 135.297106 
L 310.965633 135.891208 
L 311.029055 134.321105 
L 311.092476 135.04256 
L 311.282741 137.249109 
L 311.346162 137.249109 
L 311.409584 136.994563 
L 311.536427 141.068267 
L 311.599848 138.097757 
L 311.663269 140.177114 
L 311.726691 140.940914 
L 311.853534 135.679006 
L 311.980377 137.588504 
L 312.043798 137.291614 
L 312.170641 132.241747 
L 312.234063 133.217749 
L 312.297484 131.223402 
L 312.360906 131.477948 
L 312.487749 139.328466 
L 312.614592 135.297106 
L 312.678013 137.715858 
L 312.741435 137.673514 
L 312.868278 125.409898 
L 312.931699 128.1257 
L 313.058542 134.236256 
L 313.121963 133.727002 
L 313.185385 136.018562 
L 313.248806 135.976057 
L 313.375649 131.859848 
L 313.439071 133.260254 
L 313.565914 127.955841 
L 313.629335 130.247401 
L 313.756178 139.243456 
L 313.946443 127.107193 
L 314.073286 133.684659 
L 314.200129 126.258546 
L 314.517236 146.033124 
L 314.644079 154.562431 
L 314.7075 159.951693 
L 314.770922 158.339084 
L 314.834343 155.241382 
L 314.897765 156.005181 
L 315.088029 165.807703 
L 315.214872 172.851755 
L 315.278294 172.51236 
L 315.405137 178.877462 
L 315.468558 177.180166 
L 315.53198 175.355516 
L 315.849087 185.794403 
L 315.912508 185.709473 
L 315.97593 186.176302 
L 316.166194 178.071319 
L 316.293037 182.017669 
L 316.41988 178.495562 
L 316.483302 178.835118 
L 316.610145 175.991962 
L 316.673566 178.453219 
L 316.736988 177.859117 
L 316.863831 172.979109 
L 316.990674 174.846263 
L 317.054095 173.106462 
L 317.117517 173.233654 
L 317.180938 174.803758 
L 317.24436 174.421858 
L 317.307781 172.554704 
L 317.434624 141.068267 
L 317.751731 133.854356 
L 317.815153 135.381955 
L 317.878574 135.509309 
L 317.941996 136.86721 
L 318.005417 141.450167 
L 318.068839 140.686368 
L 318.13226 137.673514 
L 318.259103 147.136318 
L 318.322525 141.237965 
L 318.385946 142.638371 
L 318.829896 156.047686 
L 318.956739 163.68584 
L 319.083582 162.879698 
L 319.210425 164.237599 
L 319.273847 163.982891 
L 319.527533 162.455293 
L 319.654376 167.377645 
L 319.717797 165.722692 
L 319.781219 164.195094 
L 320.225169 172.554704 
L 320.28859 171.790904 
L 320.415433 176.628408 
L 320.542276 172.045612 
L 320.669119 180.744616 
L 320.922805 155.580938 
L 321.11307 145.439022 
L 321.239913 144.46302 
L 321.430177 151.931477 
L 321.55702 151.422224 
L 321.747284 140.516509 
L 321.874127 151.634426 
L 321.937549 150.955476 
L 322.00097 151.167678 
L 322.127813 155.368736 
L 322.191235 152.865136 
L 322.254656 153.077176 
L 322.381499 159.781996 
L 322.444921 159.399934 
L 322.635185 165.213601 
L 322.698607 163.346446 
L 322.762028 163.4738 
L 322.888871 168.481 
L 323.015714 165.722692 
L 323.079135 169.244799 
L 323.142557 169.202456 
L 323.205978 165.850046 
L 323.332821 174.761415 
L 323.396243 172.639552 
L 323.586507 166.613845 
L 323.649929 163.898043 
L 323.776772 168.8629 
L 323.903615 167.123099 
L 324.030458 173.361008 
L 324.093879 172.385006 
L 324.157301 170.645205 
L 324.220722 171.281651 
L 324.347565 175.228163 
L 324.474408 167.335301 
L 324.601251 172.597209 
L 324.728094 160.630643 
L 324.854937 169.287304 
L 324.918358 168.226454 
L 325.045201 167.377645 
L 325.298887 162.540142 
L 325.42573 171.663551 
L 325.489152 127.276891 
L 325.552573 128.1257 
L 325.615995 121.336032 
L 325.679416 122.354539 
L 325.806259 131.308251 
L 325.933102 118.577886 
L 325.996523 121.845286 
L 326.059945 120.402536 
L 326.123366 111.958077 
L 326.186788 112.297472 
L 326.250209 119.723585 
L 326.313631 116.201478 
L 326.377052 109.242275 
L 326.440474 113.91008 
L 326.503895 118.747584 
L 326.69416 107.247766 
L 326.757581 108.308617 
L 326.884424 106.441462 
L 327.011267 113.485676 
L 327.13811 105.635319 
L 327.201532 111.109268 
L 327.264953 110.515327 
L 327.328375 106.908372 
L 327.645482 123.03349 
L 327.708903 120.869284 
L 327.772325 112.467331 
L 327.835746 115.946933 
L 327.899168 121.887791 
L 327.962589 117.601885 
L 328.026011 120.14799 
L 328.089432 127.319396 
L 328.152854 122.948641 
L 328.216275 119.469039 
L 328.343118 129.95035 
L 328.533383 115.862084 
L 328.913911 134.405953 
L 329.040754 125.834141 
L 329.104176 126.173697 
L 329.231019 126.894991 
L 329.357862 145.481365 
L 329.484705 132.45395 
L 329.548126 138.30996 
L 329.611548 137.376463 
L 329.674969 131.477948 
L 329.738391 133.599649 
L 329.865234 128.168044 
L 329.992077 136.400462 
L 330.055498 132.156899 
L 330.11892 132.920698 
L 330.245762 136.655008 
L 330.436027 130.289744 
L 330.753134 149.300524 
L 331.00682 168.650697 
L 331.197085 181.211365 
L 331.260506 179.938312 
L 331.387349 186.218727 
L 331.514192 176.84061 
L 331.767878 185.412422 
L 332.021564 193.008233 
L 332.084985 193.602335 
L 332.211828 197.506341 
L 332.27525 196.742542 
L 332.402093 193.94181 
L 332.465514 190.716754 
L 332.528936 190.928957 
L 332.7192 194.663185 
L 332.846043 190.377279 
L 332.972886 197.633614 
L 333.036308 195.469489 
L 333.099729 196.742542 
L 333.16315 200.349498 
L 333.289993 193.814537 
L 333.416836 198.142868 
L 333.543679 188.128305 
L 333.607101 188.722327 
L 333.670522 189.189156 
L 333.733944 185.879251 
L 333.797365 186.133878 
L 333.860787 190.928957 
L 333.924208 188.722327 
L 333.98763 180.87197 
L 334.051051 184.733471 
L 334.114473 193.55991 
L 334.177894 191.989807 
L 334.43158 184.012097 
L 334.495002 190.207582 
L 334.558423 189.910531 
L 334.621844 188.255579 
L 334.685266 190.75926 
L 334.812109 183.417995 
L 334.938952 191.565483 
L 335.002373 191.35328 
L 335.129216 188.000952 
L 335.256059 191.226008 
L 335.319481 190.207582 
L 335.446324 186.558202 
L 335.509745 187.576628 
L 335.573167 187.10988 
L 335.70001 187.703901 
L 335.763431 186.812829 
L 335.890274 189.401358 
L 336.017117 182.739044 
L 336.207381 178.75027 
L 336.270803 179.768615 
L 336.58791 156.726637 
L 336.778175 142.256471 
L 336.841596 143.529362 
L 336.968439 150.913132 
L 337.031861 149.979474 
L 337.348968 163.643497 
L 337.412389 162.879698 
L 337.475811 160.460946 
L 337.666075 168.650697 
L 337.729497 166.910896 
L 337.792918 166.995745 
L 337.919761 169.202456 
L 338.046604 166.486653 
L 338.236869 174.549212 
L 338.30029 171.960602 
L 338.427133 167.292796 
L 338.553976 173.021614 
L 338.871083 165.5955 
L 338.997926 173.27616 
L 339.124769 169.117607 
L 339.315034 173.488362 
L 339.378455 173.148806 
L 339.505298 170.899751 
L 339.632141 173.827756 
L 339.758984 165.892551 
L 340.01267 176.373862 
L 340.076092 176.119316 
L 340.202935 164.449801 
L 340.266356 166.741199 
L 340.329777 171.83341 
L 340.393199 170.857408 
L 340.45662 166.104754 
L 340.520042 167.250453 
L 340.646885 178.36837 
L 340.710306 176.883115 
L 340.773728 176.670913 
L 340.837149 178.877462 
L 340.900571 178.410713 
L 341.154257 172.087955 
L 341.2811 179.683766 
L 341.344521 178.071319 
L 341.471364 181.678274 
L 341.598207 178.835118 
L 341.661629 179.344372 
L 341.788471 173.700564 
L 341.851893 173.488362 
L 341.915314 174.464364 
L 341.978736 173.445857 
L 342.042157 173.742908 
L 342.169 178.792613 
L 342.295843 171.45151 
L 342.422686 173.148806 
L 342.676372 171.027105 
L 342.803215 171.493853 
L 342.866637 171.196802 
L 343.056901 173.021614 
L 343.120323 172.554704 
L 343.310587 182.866398 
L 343.564273 171.875753 
L 343.627694 173.403513 
L 343.754537 178.36837 
L 343.817959 178.325865 
L 343.88138 178.877462 
L 344.008223 172.597209 
L 344.135066 182.739044 
L 344.198488 182.569347 
L 344.261909 175.567557 
L 344.325331 175.694911 
L 344.388752 183.587773 
L 344.452174 182.399569 
L 344.515595 176.289013 
L 344.579016 179.895969 
L 344.642438 182.908822 
L 344.769281 177.646914 
L 344.896124 179.301867 
L 345.086388 172.045612 
L 345.403496 184.691047 
L 345.466917 184.181875 
L 345.59376 179.174513 
L 345.657182 179.344372 
L 345.720603 183.417995 
L 345.784025 182.908822 
L 345.910868 178.28336 
L 345.974289 180.065666 
L 346.101132 178.410713 
L 346.227975 183.036095 
L 346.481661 173.318503 
L 346.545082 174.294505 
L 346.671925 179.726271 
L 346.798768 177.731763 
L 346.989033 178.241016 
L 347.115876 180.19302 
L 347.369562 172.427512 
L 347.686669 142.171461 
L 347.75009 142.256471 
L 348.130619 162.073393 
L 348.447727 184.309148 
L 348.511148 186.64305 
L 348.57457 186.091453 
L 348.828256 180.320373 
L 348.955098 184.52135 
L 349.01852 183.205873 
L 349.081941 184.096945 
L 349.272206 187.279577 
L 349.335627 189.655904 
L 349.399049 188.510205 
L 349.525892 183.545348 
L 349.652735 187.237152 
L 349.716156 186.388424 
L 349.779578 190.207582 
L 350.033264 167.462655 
L 350.096685 167.377645 
L 350.28695 175.949457 
L 350.413792 184.606199 
L 350.477214 182.823973 
L 350.540635 178.28336 
L 350.604057 178.75027 
L 350.7309 184.181875 
L 350.921164 171.706056 
L 351.17485 184.224299 
L 351.365115 182.526922 
L 351.428536 179.598918 
L 351.491958 180.829465 
L 351.555379 181.720618 
L 351.618801 178.707764 
L 351.682222 180.744616 
L 351.745644 185.030522 
L 351.809065 184.775977 
L 351.872486 184.012097 
L 351.999329 179.641423 
L 352.126172 186.982526 
L 352.189594 182.526922 
L 352.253015 183.884824 
L 352.316437 184.563774 
L 352.44328 176.034467 
L 352.570123 182.272215 
L 352.696966 172.215309 
L 352.823809 178.877462 
L 352.88723 172.130461 
L 352.950652 172.51236 
L 353.077495 183.417995 
L 353.140916 181.508416 
L 353.204337 176.119316 
L 353.267759 177.095317 
L 353.33118 182.526922 
L 353.458023 163.600992 
L 353.521445 165.680349 
L 353.584866 175.058465 
L 353.648288 174.591556 
L 353.711709 171.536359 
L 353.775131 174.676566 
L 353.838552 174.167313 
L 353.965395 166.486653 
L 354.028817 172.724563 
L 354.092238 169.329648 
L 354.15566 161.733837 
L 354.282503 173.488362 
L 354.345924 169.414658 
L 354.472767 163.600992 
L 354.536189 154.859482 
L 354.59961 156.387081 
L 354.663031 165.255944 
L 354.726453 161.351938 
L 354.789874 153.925986 
L 354.916717 172.087955 
L 354.980139 167.886898 
L 355.04356 163.346446 
L 355.297246 186.261151 
L 355.424089 181.084173 
L 355.994883 219.445045 
L 356.058304 217.620395 
L 356.121725 216.941445 
L 356.185147 218.553973 
L 356.248568 217.747668 
L 356.31199 218.426619 
L 356.438833 223.476324 
L 356.629097 217.917446 
L 356.75594 211.80681 
L 356.819362 212.825235 
L 356.882783 214.522612 
L 356.946205 213.801237 
L 357.009626 212.103861 
L 357.073048 212.400912 
L 357.136469 212.443336 
L 357.199891 211.297637 
L 357.326734 217.917446 
L 357.390155 216.51704 
L 357.453577 212.528184 
L 357.516998 213.886086 
L 357.580419 215.965443 
L 357.643841 213.079862 
L 357.707262 214.480188 
L 357.770684 217.535546 
L 357.897527 203.107725 
L 357.960948 148.324522 
L 358.02437 148.367027 
L 358.151213 147.518217 
L 358.278056 146.28767 
L 358.404899 147.306177 
L 358.531742 151.676931 
L 358.595163 154.520088 
L 358.658585 154.095683 
L 358.722006 153.883481 
L 358.848849 159.272742 
L 358.912271 155.835484 
L 358.975692 158.042033 
L 359.483064 168.353646 
L 359.609907 172.639552 
L 359.673328 172.427512 
L 359.73675 171.960602 
L 359.863593 174.124807 
L 359.927014 173.318503 
L 360.244122 184.860825 
L 360.370964 182.908822 
L 361.005179 195.596762 
L 361.132022 191.013805 
L 361.258865 200.391922 
L 361.702816 150.31903 
L 361.829658 148.239673 
L 362.083344 165.043742 
L 362.146766 168.353646 
L 362.210187 168.141606 
L 362.273609 164.831701 
L 362.33703 165.850046 
L 362.527295 179.641423 
L 362.780981 188.510205 
L 362.844402 189.146731 
L 363.224931 205.738678 
L 363.351774 200.349498 
L 363.478617 204.50805 
L 363.542038 200.85867 
L 363.60546 201.325499 
L 363.668881 207.605833 
L 363.732303 206.926802 
L 363.795724 203.277422 
L 363.922567 209.515331 
L 363.985989 206.799528 
L 364.176253 198.821818 
L 364.239675 198.312565 
L 364.366518 201.028448 
L 364.429939 199.331072 
L 364.493361 199.755396 
L 364.620204 204.550474 
L 364.747046 201.452772 
L 364.810468 201.622469 
L 364.937311 205.611325 
L 365.064154 197.930665 
L 365.190997 204.550474 
L 365.31784 192.117161 
L 365.381261 195.00266 
L 365.444683 201.91952 
L 365.508104 201.749823 
L 365.634947 193.772113 
L 365.76179 198.567192 
L 365.825212 197.760968 
L 365.888633 195.808965 
L 365.952055 196.487916 
L 366.015476 200.137295 
L 366.078898 130.756654 
L 366.142319 133.260254 
L 366.20574 126.003838 
L 366.269162 126.470748 
L 366.396005 132.878355 
L 366.522848 123.330541 
L 366.586269 124.645937 
L 366.649691 124.900644 
L 366.776534 120.911789 
L 366.839955 126.97984 
L 366.903377 126.767799 
L 366.966798 120.742092 
L 367.03022 122.481893 
L 367.093641 127.913498 
L 367.157063 127.531598 
L 367.283906 121.038981 
L 367.347327 121.845286 
L 367.410749 122.397044 
L 367.47417 122.354539 
L 367.601013 129.228894 
L 367.727856 122.142337 
L 367.791277 122.566742 
L 367.981542 126.640445 
L 368.171806 133.642154 
L 368.298649 137.758363 
L 368.425492 131.350756 
L 368.615757 139.540507 
L 368.869443 148.239673 
L 368.932864 147.009126 
L 369.059707 139.964912 
L 369.123128 141.577521 
L 369.503657 163.303941 
L 369.6305 161.606645 
L 369.693922 158.720983 
L 369.757343 159.909188 
L 369.947608 175.907113 
L 370.011029 173.148806 
L 370.074451 170.008599 
L 370.201294 174.803758 
L 370.328137 168.0991 
L 370.391558 168.608354 
L 370.454979 166.995745 
L 370.518401 169.159951 
L 370.645244 163.813194 
L 370.708665 165.510652 
L 370.835508 167.844555 
L 370.962351 167.080755 
L 371.025773 168.268798 
L 371.723409 244.269328 
L 371.977095 261.879702 
L 372.103938 256.999774 
L 372.294202 264.043907 
L 372.357624 263.916634 
L 372.484467 265.529162 
L 372.61131 264.638009 
L 372.674731 265.359384 
L 372.738153 265.232111 
L 372.991839 260.394527 
L 373.118682 252.331968 
L 373.182103 253.30797 
L 373.245525 254.199042 
L 373.372367 244.651228 
L 373.435789 245.839432 
L 373.49921 249.191761 
L 373.562632 248.51281 
L 373.879739 240.577524 
L 373.943161 243.166054 
L 374.006582 242.06278 
L 374.133425 231.157064 
L 374.196847 232.599814 
L 374.260268 234.169918 
L 374.387111 227.380331 
L 374.450533 232.514965 
L 374.513954 229.417182 
L 374.577376 218.766094 
L 374.640797 222.627676 
L 374.704219 233.024138 
L 374.76764 230.393184 
L 375.021326 217.790092 
L 375.084747 219.317772 
L 375.401855 210.406484 
L 375.465276 211.849234 
L 375.592119 216.092716 
L 375.718962 214.01344 
L 375.845805 218.850943 
L 375.972648 211.467334 
L 376.03607 212.273639 
L 376.099491 214.395339 
L 376.162913 213.164711 
L 376.226334 213.079862 
L 376.289755 214.140713 
L 376.606863 207.520904 
L 376.797127 204.592899 
L 376.860549 205.102152 
L 376.987392 190.419784 
L 377.177656 167.971747 
L 377.367921 145.566376 
L 377.431342 146.712075 
L 377.621606 160.970038 
L 378.255821 189.995379 
L 378.319243 189.740833 
L 378.382664 189.486207 
L 378.509507 194.238861 
L 378.572929 193.050738 
L 378.63635 191.777685 
L 378.763193 196.403067 
L 378.826615 198.73697 
L 378.890036 197.20929 
L 379.016879 194.154012 
L 379.143722 195.76654 
L 379.207143 194.875388 
L 379.333986 189.698328 
L 379.587672 197.930665 
L 379.651094 196.360642 
L 379.714515 193.093162 
L 379.777937 194.960236 
L 379.841358 197.845817 
L 379.90478 195.936238 
L 379.968201 194.238861 
L 380.031623 196.275713 
L 380.095044 196.233289 
L 380.34873 190.589481 
L 380.412152 191.35328 
L 380.602416 195.681611 
L 380.665837 195.130014 
L 380.79268 183.078519 
L 380.856102 185.242725 
L 380.919523 192.286858 
L 380.982945 189.486207 
L 381.109788 179.386715 
L 381.236631 184.775977 
L 381.300052 182.781549 
L 381.363474 183.927248 
L 381.426895 184.733471 
L 381.490317 184.691047 
L 381.680581 183.502924 
L 381.807424 184.351572 
L 381.870846 183.927248 
L 381.997688 188.085881 
L 382.06111 187.831254 
L 382.251374 184.393996 
L 382.314796 178.707764 
L 382.378217 179.174513 
L 382.50506 180.659768 
L 382.631903 178.156168 
L 382.758746 183.75747 
L 382.885589 175.991962 
L 382.949011 178.071319 
L 383.012432 178.453219 
L 383.139275 173.148806 
L 383.202697 173.742908 
L 383.32954 171.366661 
L 383.392961 172.51236 
L 383.583225 173.870262 
L 383.710068 173.148806 
L 383.900333 180.999324 
L 384.154019 168.268798 
L 384.21744 168.396151 
L 384.407705 172.766906 
L 384.471126 174.082464 
L 384.534548 172.51236 
L 384.661391 167.802049 
L 384.788233 174.252161 
L 384.851655 171.918258 
L 384.915076 172.257653 
L 384.978498 175.610062 
L 385.105341 168.056757 
L 385.168762 171.281651 
L 385.232184 173.658059 
L 385.359027 166.528997 
L 385.48587 170.9846 
L 385.676134 167.080755 
L 385.739556 167.589847 
L 385.993242 177.943965 
L 386.056663 178.113662 
L 386.246927 172.724563 
L 386.310349 172.385006 
L 386.627456 167.377645 
L 386.690878 167.844555 
L 386.817721 169.754053 
L 387.071407 164.661842 
L 387.19825 162.115898 
L 387.325093 164.06774 
L 387.451936 162.158242 
L 387.578779 167.674696 
L 387.6422 167.080755 
L 387.895886 159.909188 
L 388.022729 152.865136 
L 388.212993 112.891574 
L 388.276415 100.415755 
L 388.339836 101.009857 
L 388.783787 137.079412 
L 388.974051 157.363082 
L 389.164315 164.576993 
L 389.227737 162.667495 
L 389.35458 163.219092 
L 389.418001 164.237599 
L 389.544844 168.353646 
L 389.608266 167.929403 
L 389.79853 175.185658 
L 389.988795 176.755761 
L 390.179059 173.700564 
L 390.242481 173.742908 
L 390.305902 174.549212 
L 390.369324 177.90146 
L 390.432745 130.247401 
L 390.496167 130.33225 
L 390.749852 122.481893 
L 391.320646 151.507234 
L 391.384067 150.913132 
L 391.51091 145.90577 
L 391.701175 158.339084 
L 391.764596 158.848337 
L 391.891439 163.134244 
L 392.018282 156.85399 
L 392.145125 160.800341 
L 392.208546 158.169387 
L 392.271968 158.423933 
L 392.398811 163.898043 
L 392.525654 162.964546 
L 392.589075 163.00689 
L 392.715918 168.778051 
L 392.77934 165.892551 
L 392.842761 166.868553 
L 392.906183 168.820556 
L 393.033026 161.733837 
L 393.159869 168.481 
L 393.22329 165.892551 
L 393.286712 161.394443 
L 393.350133 163.346446 
L 393.413554 164.407296 
L 393.476976 158.551286 
L 393.540397 158.593791 
L 393.66724 169.796558 
L 393.984348 156.09003 
L 394.047769 148.409371 
L 394.111191 149.427877 
L 394.238034 163.558648 
L 394.301455 162.030888 
L 394.364877 162.455293 
L 394.428298 161.861191 
L 394.681984 152.82263 
L 394.745406 150.488727 
L 394.93567 163.728345 
L 394.999091 161.988545 
L 395.125934 152.016326 
L 395.252777 161.351938 
L 395.316199 158.339084 
L 395.37962 155.962838 
L 395.696728 186.048948 
L 396.077257 216.050292 
L 396.584628 258.442524 
L 396.64805 258.4001 
L 396.711471 258.654726 
L 396.965157 265.656435 
L 397.092 264.93506 
L 397.155422 265.444233 
L 397.535951 253.520091 
L 397.662794 252.416817 
L 397.789636 248.640083 
L 397.853058 250.464814 
L 397.916479 250.125338 
L 398.233587 243.335751 
L 398.36043 245.966705 
L 398.487273 237.437398 
L 398.487273 237.437398 
" clip-path="url(#p4b60ddef52)" style="fill: none; stroke: #1f77b4; stroke-width: 1.5; stroke-linecap: square"/>
   </g>
   <g id="patch_3">
    <path d="M 57.6 307.584 
L 57.6 41.472 
" style="fill: none; stroke: #000000; stroke-width: 0.8; stroke-linejoin: miter; stroke-linecap: square"/>
   </g>
   <g id="patch_4">
    <path d="M 414.72 307.584 
L 414.72 41.472 
" style="fill: none; stroke: #000000; stroke-width: 0.8; stroke-linejoin: miter; stroke-linecap: square"/>
   </g>
   <g id="patch_5">
    <path d="M 57.6 307.584 
L 414.72 307.584 
" style="fill: none; stroke: #000000; stroke-width: 0.8; stroke-linejoin: miter; stroke-linecap: square"/>
   </g>
   <g id="patch_6">
    <path d="M 57.6 41.472 
L 414.72 41.472 
" style="fill: none; stroke: #000000; stroke-width: 0.8; stroke-linejoin: miter; stroke-linecap: square"/>
   </g>
   <g id="legend_1">
    <g id="patch_7">
     <path d="M 354.074688 64.150125 
L 407.72 64.150125 
Q 409.72 64.150125 409.72 62.150125 
L 409.72 48.472 
Q 409.72 46.472 407.72 46.472 
L 354.074688 46.472 
Q 352.074688 46.472 352.074688 48.472 
L 352.074688 62.150125 
Q 352.074688 64.150125 354.074688 64.150125 
z
" style="fill: #ffffff; opacity: 0.8; stroke: #cccccc; stroke-linejoin: miter"/>
    </g>
    <g id="line2d_16">
     <path d="M 356.074688 54.570438 
L 366.074688 54.570438 
L 376.074688 54.570438 
" style="fill: none; stroke: #1f77b4; stroke-width: 1.5; stroke-linecap: square"/>
    </g>
    <g id="text_15">
     <!-- set3 -->
     <g transform="translate(384.074688 58.070438)scale(0.1 -0.1)">
      <defs>
       <path id="DejaVuSans-73" d="M 2834 3397 
L 2834 2853 
Q 2591 2978 2328 3040 
Q 2066 3103 1784 3103 
Q 1356 3103 1142 2972 
Q 928 2841 928 2578 
Q 928 2378 1081 2264 
Q 1234 2150 1697 2047 
L 1894 2003 
Q 2506 1872 2764 1633 
Q 3022 1394 3022 966 
Q 3022 478 2636 193 
Q 2250 -91 1575 -91 
Q 1294 -91 989 -36 
Q 684 19 347 128 
L 347 722 
Q 666 556 975 473 
Q 1284 391 1588 391 
Q 1994 391 2212 530 
Q 2431 669 2431 922 
Q 2431 1156 2273 1281 
Q 2116 1406 1581 1522 
L 1381 1569 
Q 847 1681 609 1914 
Q 372 2147 372 2553 
Q 372 3047 722 3315 
Q 1072 3584 1716 3584 
Q 2034 3584 2315 3537 
Q 2597 3491 2834 3397 
z
" transform="scale(0.015625)"/>
       <path id="DejaVuSans-65" d="M 3597 1894 
L 3597 1613 
L 953 1613 
Q 991 1019 1311 708 
Q 1631 397 2203 397 
Q 2534 397 2845 478 
Q 3156 559 3463 722 
L 3463 178 
Q 3153 47 2828 -22 
Q 2503 -91 2169 -91 
Q 1331 -91 842 396 
Q 353 884 353 1716 
Q 353 2575 817 3079 
Q 1281 3584 2069 3584 
Q 2775 3584 3186 3129 
Q 3597 2675 3597 1894 
z
M 3022 2063 
Q 3016 2534 2758 2815 
Q 2500 3097 2075 3097 
Q 1594 3097 1305 2825 
Q 1016 2553 972 2059 
L 3022 2063 
z
" transform="scale(0.015625)"/>
       <path id="DejaVuSans-74" d="M 1172 4494 
L 1172 3500 
L 2356 3500 
L 2356 3053 
L 1172 3053 
L 1172 1153 
Q 1172 725 1289 603 
Q 1406 481 1766 481 
L 2356 481 
L 2356 0 
L 1766 0 
Q 1100 0 847 248 
Q 594 497 594 1153 
L 594 3053 
L 172 3053 
L 172 3500 
L 594 3500 
L 594 4494 
L 1172 4494 
z
" transform="scale(0.015625)"/>
      </defs>
      <use xlink:href="#DejaVuSans-73"/>
      <use xlink:href="#DejaVuSans-65" x="52.099609"/>
      <use xlink:href="#DejaVuSans-74" x="113.623047"/>
      <use xlink:href="#DejaVuSans-33" x="152.832031"/>
     </g>
    </g>
   </g>
  </g>
 </g>
 <defs>
  <clipPath id="p4b60ddef52">
   <rect x="57.6" y="41.472" width="357.12" height="266.112"/>
  </clipPath>
 </defs>
</svg>
