<?xml version="1.0" encoding="utf-8" standalone="no"?>
<!DOCTYPE svg PUBLIC "-//W3C//DTD SVG 1.1//EN"
  "http://www.w3.org/Graphics/SVG/1.1/DTD/svg11.dtd">
<svg xmlns:xlink="http://www.w3.org/1999/xlink" width="460.8pt" height="345.6pt" viewBox="0 0 460.8 345.6" xmlns="http://www.w3.org/2000/svg" version="1.1">
 <metadata>
  <rdf:RDF xmlns:dc="http://purl.org/dc/elements/1.1/" xmlns:cc="http://creativecommons.org/ns#" xmlns:rdf="http://www.w3.org/1999/02/22-rdf-syntax-ns#">
   <cc:Work>
    <dc:type rdf:resource="http://purl.org/dc/dcmitype/StillImage"/>
    <dc:date>2022-08-11T15:17:00.648082</dc:date>
    <dc:format>image/svg+xml</dc:format>
    <dc:creator>
     <cc:Agent>
      <dc:title>Matplotlib v3.5.2, https://matplotlib.org/</dc:title>
     </cc:Agent>
    </dc:creator>
   </cc:Work>
  </rdf:RDF>
 </metadata>
 <defs>
  <style type="text/css">*{stroke-linejoin: round; stroke-linecap: butt}</style>
 </defs>
 <g id="figure_1">
  <g id="patch_1">
   <path d="M 0 345.6 
L 460.8 345.6 
L 460.8 0 
L 0 0 
z
" style="fill: #ffffff"/>
  </g>
  <g id="axes_1">
   <g id="patch_2">
    <path d="M 57.6 307.584 
L 414.72 307.584 
L 414.72 41.472 
L 57.6 41.472 
z
" style="fill: #ffffff"/>
   </g>
   <g id="matplotlib.axis_1">
    <g id="xtick_1">
     <g id="line2d_1">
      <defs>
       <path id="m2016f93f1f" d="M 0 0 
L 0 3.5 
" style="stroke: #000000; stroke-width: 0.8"/>
      </defs>
      <g>
       <use xlink:href="#m2016f93f1f" x="73.832727" y="307.584" style="stroke: #000000; stroke-width: 0.8"/>
      </g>
     </g>
     <g id="text_1">
      <!-- 0 -->
      <g transform="translate(70.651477 322.182437)scale(0.1 -0.1)">
       <defs>
        <path id="DejaVuSans-30" d="M 2034 4250 
Q 1547 4250 1301 3770 
Q 1056 3291 1056 2328 
Q 1056 1369 1301 889 
Q 1547 409 2034 409 
Q 2525 409 2770 889 
Q 3016 1369 3016 2328 
Q 3016 3291 2770 3770 
Q 2525 4250 2034 4250 
z
M 2034 4750 
Q 2819 4750 3233 4129 
Q 3647 3509 3647 2328 
Q 3647 1150 3233 529 
Q 2819 -91 2034 -91 
Q 1250 -91 836 529 
Q 422 1150 422 2328 
Q 422 3509 836 4129 
Q 1250 4750 2034 4750 
z
" transform="scale(0.015625)"/>
       </defs>
       <use xlink:href="#DejaVuSans-30"/>
      </g>
     </g>
    </g>
    <g id="xtick_2">
     <g id="line2d_2">
      <g>
       <use xlink:href="#m2016f93f1f" x="137.266597" y="307.584" style="stroke: #000000; stroke-width: 0.8"/>
      </g>
     </g>
     <g id="text_2">
      <!-- 500 -->
      <g transform="translate(127.722847 322.182437)scale(0.1 -0.1)">
       <defs>
        <path id="DejaVuSans-35" d="M 691 4666 
L 3169 4666 
L 3169 4134 
L 1269 4134 
L 1269 2991 
Q 1406 3038 1543 3061 
Q 1681 3084 1819 3084 
Q 2600 3084 3056 2656 
Q 3513 2228 3513 1497 
Q 3513 744 3044 326 
Q 2575 -91 1722 -91 
Q 1428 -91 1123 -41 
Q 819 9 494 109 
L 494 744 
Q 775 591 1075 516 
Q 1375 441 1709 441 
Q 2250 441 2565 725 
Q 2881 1009 2881 1497 
Q 2881 1984 2565 2268 
Q 2250 2553 1709 2553 
Q 1456 2553 1204 2497 
Q 953 2441 691 2322 
L 691 4666 
z
" transform="scale(0.015625)"/>
       </defs>
       <use xlink:href="#DejaVuSans-35"/>
       <use xlink:href="#DejaVuSans-30" x="63.623047"/>
       <use xlink:href="#DejaVuSans-30" x="127.246094"/>
      </g>
     </g>
    </g>
    <g id="xtick_3">
     <g id="line2d_3">
      <g>
       <use xlink:href="#m2016f93f1f" x="200.700467" y="307.584" style="stroke: #000000; stroke-width: 0.8"/>
      </g>
     </g>
     <g id="text_3">
      <!-- 1000 -->
      <g transform="translate(187.975467 322.182437)scale(0.1 -0.1)">
       <defs>
        <path id="DejaVuSans-31" d="M 794 531 
L 1825 531 
L 1825 4091 
L 703 3866 
L 703 4441 
L 1819 4666 
L 2450 4666 
L 2450 531 
L 3481 531 
L 3481 0 
L 794 0 
L 794 531 
z
" transform="scale(0.015625)"/>
       </defs>
       <use xlink:href="#DejaVuSans-31"/>
       <use xlink:href="#DejaVuSans-30" x="63.623047"/>
       <use xlink:href="#DejaVuSans-30" x="127.246094"/>
       <use xlink:href="#DejaVuSans-30" x="190.869141"/>
      </g>
     </g>
    </g>
    <g id="xtick_4">
     <g id="line2d_4">
      <g>
       <use xlink:href="#m2016f93f1f" x="264.134337" y="307.584" style="stroke: #000000; stroke-width: 0.8"/>
      </g>
     </g>
     <g id="text_4">
      <!-- 1500 -->
      <g transform="translate(251.409337 322.182437)scale(0.1 -0.1)">
       <use xlink:href="#DejaVuSans-31"/>
       <use xlink:href="#DejaVuSans-35" x="63.623047"/>
       <use xlink:href="#DejaVuSans-30" x="127.246094"/>
       <use xlink:href="#DejaVuSans-30" x="190.869141"/>
      </g>
     </g>
    </g>
    <g id="xtick_5">
     <g id="line2d_5">
      <g>
       <use xlink:href="#m2016f93f1f" x="327.568206" y="307.584" style="stroke: #000000; stroke-width: 0.8"/>
      </g>
     </g>
     <g id="text_5">
      <!-- 2000 -->
      <g transform="translate(314.843206 322.182437)scale(0.1 -0.1)">
       <defs>
        <path id="DejaVuSans-32" d="M 1228 531 
L 3431 531 
L 3431 0 
L 469 0 
L 469 531 
Q 828 903 1448 1529 
Q 2069 2156 2228 2338 
Q 2531 2678 2651 2914 
Q 2772 3150 2772 3378 
Q 2772 3750 2511 3984 
Q 2250 4219 1831 4219 
Q 1534 4219 1204 4116 
Q 875 4013 500 3803 
L 500 4441 
Q 881 4594 1212 4672 
Q 1544 4750 1819 4750 
Q 2544 4750 2975 4387 
Q 3406 4025 3406 3419 
Q 3406 3131 3298 2873 
Q 3191 2616 2906 2266 
Q 2828 2175 2409 1742 
Q 1991 1309 1228 531 
z
" transform="scale(0.015625)"/>
       </defs>
       <use xlink:href="#DejaVuSans-32"/>
       <use xlink:href="#DejaVuSans-30" x="63.623047"/>
       <use xlink:href="#DejaVuSans-30" x="127.246094"/>
       <use xlink:href="#DejaVuSans-30" x="190.869141"/>
      </g>
     </g>
    </g>
    <g id="xtick_6">
     <g id="line2d_6">
      <g>
       <use xlink:href="#m2016f93f1f" x="391.002076" y="307.584" style="stroke: #000000; stroke-width: 0.8"/>
      </g>
     </g>
     <g id="text_6">
      <!-- 2500 -->
      <g transform="translate(378.277076 322.182437)scale(0.1 -0.1)">
       <use xlink:href="#DejaVuSans-32"/>
       <use xlink:href="#DejaVuSans-35" x="63.623047"/>
       <use xlink:href="#DejaVuSans-30" x="127.246094"/>
       <use xlink:href="#DejaVuSans-30" x="190.869141"/>
      </g>
     </g>
    </g>
   </g>
   <g id="matplotlib.axis_2">
    <g id="ytick_1">
     <g id="line2d_7">
      <defs>
       <path id="mdb73f4c29e" d="M 0 0 
L -3.5 0 
" style="stroke: #000000; stroke-width: 0.8"/>
      </defs>
      <g>
       <use xlink:href="#mdb73f4c29e" x="57.6" y="277.648424" style="stroke: #000000; stroke-width: 0.8"/>
      </g>
     </g>
     <g id="text_7">
      <!-- 3900 -->
      <g transform="translate(25.15 281.447642)scale(0.1 -0.1)">
       <defs>
        <path id="DejaVuSans-33" d="M 2597 2516 
Q 3050 2419 3304 2112 
Q 3559 1806 3559 1356 
Q 3559 666 3084 287 
Q 2609 -91 1734 -91 
Q 1441 -91 1130 -33 
Q 819 25 488 141 
L 488 750 
Q 750 597 1062 519 
Q 1375 441 1716 441 
Q 2309 441 2620 675 
Q 2931 909 2931 1356 
Q 2931 1769 2642 2001 
Q 2353 2234 1838 2234 
L 1294 2234 
L 1294 2753 
L 1863 2753 
Q 2328 2753 2575 2939 
Q 2822 3125 2822 3475 
Q 2822 3834 2567 4026 
Q 2313 4219 1838 4219 
Q 1578 4219 1281 4162 
Q 984 4106 628 3988 
L 628 4550 
Q 988 4650 1302 4700 
Q 1616 4750 1894 4750 
Q 2613 4750 3031 4423 
Q 3450 4097 3450 3541 
Q 3450 3153 3228 2886 
Q 3006 2619 2597 2516 
z
" transform="scale(0.015625)"/>
        <path id="DejaVuSans-39" d="M 703 97 
L 703 672 
Q 941 559 1184 500 
Q 1428 441 1663 441 
Q 2288 441 2617 861 
Q 2947 1281 2994 2138 
Q 2813 1869 2534 1725 
Q 2256 1581 1919 1581 
Q 1219 1581 811 2004 
Q 403 2428 403 3163 
Q 403 3881 828 4315 
Q 1253 4750 1959 4750 
Q 2769 4750 3195 4129 
Q 3622 3509 3622 2328 
Q 3622 1225 3098 567 
Q 2575 -91 1691 -91 
Q 1453 -91 1209 -44 
Q 966 3 703 97 
z
M 1959 2075 
Q 2384 2075 2632 2365 
Q 2881 2656 2881 3163 
Q 2881 3666 2632 3958 
Q 2384 4250 1959 4250 
Q 1534 4250 1286 3958 
Q 1038 3666 1038 3163 
Q 1038 2656 1286 2365 
Q 1534 2075 1959 2075 
z
" transform="scale(0.015625)"/>
       </defs>
       <use xlink:href="#DejaVuSans-33"/>
       <use xlink:href="#DejaVuSans-39" x="63.623047"/>
       <use xlink:href="#DejaVuSans-30" x="127.246094"/>
       <use xlink:href="#DejaVuSans-30" x="190.869141"/>
      </g>
     </g>
    </g>
    <g id="ytick_2">
     <g id="line2d_8">
      <g>
       <use xlink:href="#mdb73f4c29e" x="57.6" y="226.302134" style="stroke: #000000; stroke-width: 0.8"/>
      </g>
     </g>
     <g id="text_8">
      <!-- 4000 -->
      <g transform="translate(25.15 230.101353)scale(0.1 -0.1)">
       <defs>
        <path id="DejaVuSans-34" d="M 2419 4116 
L 825 1625 
L 2419 1625 
L 2419 4116 
z
M 2253 4666 
L 3047 4666 
L 3047 1625 
L 3713 1625 
L 3713 1100 
L 3047 1100 
L 3047 0 
L 2419 0 
L 2419 1100 
L 313 1100 
L 313 1709 
L 2253 4666 
z
" transform="scale(0.015625)"/>
       </defs>
       <use xlink:href="#DejaVuSans-34"/>
       <use xlink:href="#DejaVuSans-30" x="63.623047"/>
       <use xlink:href="#DejaVuSans-30" x="127.246094"/>
       <use xlink:href="#DejaVuSans-30" x="190.869141"/>
      </g>
     </g>
    </g>
    <g id="ytick_3">
     <g id="line2d_9">
      <g>
       <use xlink:href="#mdb73f4c29e" x="57.6" y="174.955844" style="stroke: #000000; stroke-width: 0.8"/>
      </g>
     </g>
     <g id="text_9">
      <!-- 4100 -->
      <g transform="translate(25.15 178.755063)scale(0.1 -0.1)">
       <use xlink:href="#DejaVuSans-34"/>
       <use xlink:href="#DejaVuSans-31" x="63.623047"/>
       <use xlink:href="#DejaVuSans-30" x="127.246094"/>
       <use xlink:href="#DejaVuSans-30" x="190.869141"/>
      </g>
     </g>
    </g>
    <g id="ytick_4">
     <g id="line2d_10">
      <g>
       <use xlink:href="#mdb73f4c29e" x="57.6" y="123.609554" style="stroke: #000000; stroke-width: 0.8"/>
      </g>
     </g>
     <g id="text_10">
      <!-- 4200 -->
      <g transform="translate(25.15 127.408773)scale(0.1 -0.1)">
       <use xlink:href="#DejaVuSans-34"/>
       <use xlink:href="#DejaVuSans-32" x="63.623047"/>
       <use xlink:href="#DejaVuSans-30" x="127.246094"/>
       <use xlink:href="#DejaVuSans-30" x="190.869141"/>
      </g>
     </g>
    </g>
    <g id="ytick_5">
     <g id="line2d_11">
      <g>
       <use xlink:href="#mdb73f4c29e" x="57.6" y="72.263264" style="stroke: #000000; stroke-width: 0.8"/>
      </g>
     </g>
     <g id="text_11">
      <!-- 4300 -->
      <g transform="translate(25.15 76.062483)scale(0.1 -0.1)">
       <use xlink:href="#DejaVuSans-34"/>
       <use xlink:href="#DejaVuSans-33" x="63.623047"/>
       <use xlink:href="#DejaVuSans-30" x="127.246094"/>
       <use xlink:href="#DejaVuSans-30" x="190.869141"/>
      </g>
     </g>
    </g>
   </g>
   <g id="line2d_12">
    <path d="M 73.832727 118.540863 
L 73.959595 117.684924 
L 74.086463 112.879483 
L 74.847669 53.568 
L 74.974537 54.621251 
L 75.608876 100.701287 
L 75.735743 100.437786 
L 76.116347 116.105174 
L 76.243214 115.578423 
L 76.49695 125.05768 
L 76.623818 121.634678 
L 76.750685 125.05768 
L 77.004421 133.812874 
L 77.131289 132.430686 
L 77.385024 141.44913 
L 77.638759 125.58443 
L 77.765627 126.440118 
L 78.14623 138.289378 
L 78.273098 141.778319 
L 78.526834 137.96019 
L 78.780569 146.649447 
L 79.161172 129.073371 
L 79.414908 132.957186 
L 79.668643 138.421003 
L 79.795511 135.722064 
L 80.049247 139.540192 
L 80.302982 128.217432 
L 80.556717 137.367752 
L 80.683585 137.69694 
L 80.810453 140.988317 
L 81.064188 149.677574 
L 81.825395 121.04224 
L 81.952263 224.327257 
L 82.205998 227.026197 
L 82.459734 221.496693 
L 82.586601 221.957506 
L 82.713469 224.39307 
L 83.094072 246.774837 
L 83.22094 245.392398 
L 83.474675 232.424201 
L 83.601543 233.67489 
L 83.855279 241.837646 
L 83.982146 242.035209 
L 84.109014 239.533707 
L 84.235882 242.166834 
L 84.36275 247.564713 
L 84.489617 247.63065 
L 84.616485 246.643213 
L 84.870221 257.307345 
L 84.997088 255.398407 
L 85.123956 258.163159 
L 85.377692 270.999731 
L 85.504559 272.974608 
L 85.758295 279.557488 
L 85.885163 279.689113 
L 86.01203 280.676551 
L 86.265766 272.052982 
L 86.392633 274.159483 
L 86.646369 284.099679 
L 86.773237 281.598177 
L 86.900104 284.560367 
L 87.15384 292.723123 
L 87.407575 288.444307 
L 87.661311 293.908124 
L 88.041914 284.297116 
L 88.29565 289.56337 
L 88.422517 289.431745 
L 88.549385 286.535243 
L 88.803121 295.488 
L 89.183724 283.243866 
L 89.310591 283.507116 
L 89.437459 281.927239 
L 89.564327 283.507116 
L 89.818062 289.826746 
L 89.94493 287.193619 
L 90.071798 93.328531 
L 90.325533 83.849023 
L 90.452401 84.507399 
L 90.706137 82.203334 
L 90.833004 83.322523 
L 91.08674 81.940084 
L 91.467343 83.980648 
L 91.594211 82.927397 
L 91.721079 84.507399 
L 91.847946 89.642028 
L 92.101682 83.256585 
L 92.355417 92.406905 
L 92.482285 89.181215 
L 92.609153 90.366091 
L 92.73602 93.130968 
L 92.989756 91.814467 
L 93.116624 93.525843 
L 93.370359 99.713723 
L 93.624095 89.707715 
L 93.87783 91.550967 
L 94.004698 90.695279 
L 94.131566 91.550967 
L 94.258433 90.300404 
L 94.512169 83.519835 
L 94.765904 92.80178 
L 94.892772 89.839591 
L 95.146508 102.281038 
L 95.400243 88.522839 
L 95.653978 92.735842 
L 95.780846 92.472592 
L 96.034582 101.227786 
L 96.415185 90.234466 
L 96.66892 94.381782 
L 96.922656 91.221779 
L 97.176391 92.604217 
L 97.303259 91.550967 
L 97.683862 100.240474 
L 97.937598 91.156092 
L 98.064466 93.394218 
L 98.191333 165.279024 
L 98.318201 164.949836 
L 98.571936 170.742841 
L 98.825672 161.658459 
L 99.079407 167.385526 
L 99.333143 161.06602 
L 99.586878 162.514147 
L 99.713746 161.395209 
L 99.840614 161.921708 
L 100.094349 163.699273 
L 100.221217 164.752524 
L 100.348085 164.489023 
L 100.474953 162.514147 
L 100.60182 165.081461 
L 100.728688 164.357398 
L 100.982424 145.135383 
L 101.109291 144.806446 
L 101.236159 146.84701 
L 101.489894 157.906268 
L 101.616762 156.52383 
L 101.74363 157.445455 
L 101.870498 159.551957 
L 102.251101 152.376764 
L 102.377969 154.285703 
L 102.504836 159.157082 
L 102.758572 156.853017 
L 103.012307 164.159835 
L 103.266043 153.298139 
L 103.392911 157.971956 
L 103.773514 159.486019 
L 103.900382 158.235456 
L 104.154117 155.404641 
L 104.407852 156.853017 
L 104.661588 152.442452 
L 104.788456 152.837327 
L 104.915323 152.113263 
L 105.169059 146.188634 
L 105.295927 145.135383 
L 105.422794 145.728071 
L 105.549662 147.834573 
L 105.803398 137.631002 
L 106.057133 148.953511 
L 106.184001 144.740508 
L 106.310869 94.184219 
L 106.691472 125.518493 
L 106.81834 121.371427 
L 106.945207 121.766302 
L 107.198943 123.609554 
L 107.579546 143.094819 
L 107.833281 136.051252 
L 108.087017 144.477258 
L 108.213885 139.540192 
L 108.340752 141.712381 
L 108.721356 154.614891 
L 108.848223 157.05058 
L 108.975091 155.273016 
L 109.228827 165.739837 
L 109.482562 160.144395 
L 109.60943 161.526833 
L 109.863165 145.398884 
L 110.116901 164.159835 
L 110.243769 161.131958 
L 110.497504 153.430015 
L 110.624372 153.430015 
L 110.878107 145.793759 
L 111.004975 151.718388 
L 111.131843 151.981639 
L 111.25871 146.386197 
L 111.512446 159.288707 
L 112.019917 144.214008 
L 112.146785 145.069696 
L 112.273652 147.044572 
L 112.40052 145.991322 
L 112.527388 147.90026 
L 112.654256 154.812203 
L 112.781123 155.141391 
L 113.034859 132.825561 
L 113.161727 132.167186 
L 113.415462 139.408316 
L 113.54233 139.079379 
L 113.669197 138.22344 
L 113.922933 147.373761 
L 114.049801 145.596196 
L 114.176668 141.251568 
L 114.303536 142.634007 
L 114.557272 155.009766 
L 114.684139 153.956515 
L 115.19161 136.577752 
L 115.318478 137.038565 
L 115.572214 126.374432 
L 115.825949 138.881816 
L 115.952817 139.869129 
L 116.206552 156.655455 
L 116.460288 150.401887 
L 116.587155 157.708705 
L 116.714023 156.26058 
L 116.840891 150.730825 
L 117.348362 160.671145 
L 117.728965 164.291711 
L 117.855833 162.909272 
L 117.982701 163.830898 
L 118.109568 161.197646 
L 118.363304 151.784076 
L 118.743907 158.432768 
L 118.870775 159.157082 
L 118.997643 158.169518 
L 119.251378 164.094148 
L 119.378246 163.699273 
L 119.758849 152.244889 
L 119.885717 152.179201 
L 120.012584 152.244889 
L 120.26632 156.326267 
L 120.393188 155.009766 
L 120.646923 158.367081 
L 120.900659 154.219765 
L 121.154394 155.799767 
L 121.281262 154.746516 
L 121.40813 155.470579 
L 121.661865 163.435772 
L 121.915601 157.247892 
L 122.169336 146.715385 
L 122.296204 146.057009 
L 122.423072 143.424007 
L 122.549939 97.146409 
L 122.803675 94.842344 
L 122.930542 91.287717 
L 123.05741 91.287717 
L 123.184278 92.933405 
L 123.311146 91.616904 
L 123.438013 96.093157 
L 123.691749 113.867047 
L 124.072352 95.237469 
L 124.19922 95.435033 
L 124.452955 99.384535 
L 124.579823 99.187223 
L 124.706691 98.397222 
L 124.960426 99.582098 
L 125.214162 100.635349 
L 125.34103 100.569662 
L 125.467897 101.491037 
L 126.355971 121.04224 
L 126.482839 123.280366 
L 126.863442 120.120614 
L 126.99031 120.449802 
L 127.244046 131.838248 
L 127.497781 126.176869 
L 127.751517 135.656126 
L 127.878384 134.7345 
L 128.005252 132.101498 
L 128.13212 133.154749 
L 128.258988 138.618566 
L 128.385855 138.026128 
L 128.512723 130.258247 
L 128.639591 130.850685 
L 128.893326 139.013441 
L 129.020194 137.367752 
L 129.147062 138.48669 
L 129.400797 141.119943 
L 129.527665 140.988317 
L 129.7814 139.803442 
L 129.908268 140.856693 
L 130.162004 139.342629 
L 130.415739 148.229448 
L 130.542607 143.292382 
L 130.669475 170.742841 
L 130.796342 168.504714 
L 130.92321 169.42634 
L 131.050078 168.570401 
L 131.303813 163.304147 
L 131.430681 162.580084 
L 131.557549 164.620648 
L 131.684416 169.68959 
L 131.811284 169.755277 
L 132.06502 163.106585 
L 132.445623 171.730154 
L 132.699358 170.347966 
L 132.953094 178.313159 
L 133.079962 176.601533 
L 133.206829 177.457346 
L 133.333697 181.801974 
L 133.587433 175.219094 
L 133.841168 178.444784 
L 133.968036 178.049784 
L 134.348639 171.993654 
L 134.475507 173.770968 
L 134.729242 171.269341 
L 134.85611 172.256904 
L 135.109845 166.990651 
L 135.363581 173.836655 
L 135.490449 170.347966 
L 135.617316 171.072029 
L 135.744184 177.852346 
L 135.871052 176.338283 
L 135.99792 168.109588 
L 136.124787 167.583088 
L 136.251655 172.059342 
L 136.378523 172.059342 
L 136.505391 171.072029 
L 136.632258 171.796091 
L 137.012862 163.304147 
L 137.266597 169.294464 
L 137.520333 162.382521 
L 137.6472 163.50171 
L 137.774068 163.370085 
L 137.900936 161.592521 
L 138.027803 164.094148 
L 138.281539 170.479591 
L 138.535274 155.273016 
L 138.662142 155.733829 
L 138.78901 164.094148 
L 138.915878 162.053334 
L 139.042745 163.435772 
L 139.169613 167.714713 
L 139.296481 166.003087 
L 139.423349 162.316835 
L 139.677084 166.595525 
L 139.93082 156.194642 
L 140.184555 160.53927 
L 140.311423 156.194642 
L 140.438291 156.194642 
L 140.692026 162.448459 
L 140.818894 164.159835 
L 141.072629 163.23846 
L 141.199497 169.42634 
L 141.326365 168.833902 
L 141.5801 152.244889 
L 141.706968 154.35139 
L 141.833836 153.100827 
L 141.960703 156.326267 
L 142.087571 163.76496 
L 142.214439 163.567397 
L 142.341307 161.460896 
L 142.468174 161.856022 
L 142.848778 154.417328 
L 143.102513 157.247892 
L 143.229381 156.984643 
L 143.356249 160.078708 
L 143.483116 166.069025 
L 143.609984 166.200649 
L 143.863719 156.52383 
L 144.117455 164.489023 
L 144.244323 163.370085 
L 144.37119 163.567397 
L 144.498058 164.159835 
L 144.751794 161.658459 
L 144.878661 162.185209 
L 145.005529 160.27602 
L 145.259265 154.483266 
L 145.386132 155.141391 
L 145.639868 154.417328 
L 146.020471 159.157082 
L 146.147339 164.02821 
L 146.401074 154.219765 
L 146.65481 166.200649 
L 146.781678 163.896585 
L 146.908545 136.116939 
L 147.035413 139.737504 
L 147.289148 148.821886 
L 147.416016 146.978634 
L 147.542884 147.63701 
L 147.796619 138.091815 
L 148.050355 149.611887 
L 148.177223 149.80945 
L 148.430958 145.793759 
L 148.684694 147.571073 
L 148.938429 144.279695 
L 149.065297 145.728071 
L 149.192165 145.135383 
L 149.319032 147.176197 
L 149.572768 155.009766 
L 149.826503 159.025206 
L 150.080239 157.182206 
L 150.207106 156.984643 
L 150.460842 144.674821 
L 150.58771 145.003758 
L 150.841445 155.536516 
L 150.968313 155.536516 
L 151.222048 144.477258 
L 151.348916 148.624323 
L 151.475784 148.229448 
L 151.602652 146.254572 
L 152.110123 157.379518 
L 152.23699 156.326267 
L 152.490726 147.505385 
L 152.617594 146.517821 
L 152.871329 147.90026 
L 152.998197 146.781322 
L 153.125064 149.414324 
L 153.3788 160.144395 
L 153.505668 156.392204 
L 153.759403 139.145066 
L 154.013139 147.11026 
L 154.266874 143.818882 
L 154.52061 148.16351 
L 154.774345 147.176197 
L 154.901213 147.90026 
L 155.028081 137.631002 
L 155.281816 141.119943 
L 155.662419 128.54662 
L 155.916155 122.490365 
L 156.043022 122.687928 
L 156.16989 119.857364 
L 156.296758 120.515489 
L 156.804229 143.292382 
L 156.931097 140.593442 
L 157.057964 140.461567 
L 157.3117 149.085136 
L 157.565435 145.925384 
L 157.692303 147.768636 
L 157.819171 146.912948 
L 157.946039 147.044572 
L 158.199774 155.931391 
L 158.45351 153.956515 
L 158.580377 153.364077 
L 158.834113 146.122946 
L 158.96098 147.702698 
L 159.087848 147.702698 
L 159.214716 149.545949 
L 159.468451 154.878141 
L 159.595319 155.141391 
L 159.722187 156.392204 
L 159.849055 156.457892 
L 159.975922 155.865454 
L 160.10279 154.614891 
L 160.356526 146.715385 
L 160.483393 146.386197 
L 160.610261 148.690261 
L 160.863997 154.746516 
L 160.990864 152.705702 
L 161.117732 153.100827 
L 161.2446 153.956515 
L 161.371468 150.928388 
L 161.498335 150.796763 
L 161.625203 154.154078 
L 161.752071 154.35139 
L 161.878939 156.457892 
L 162.132674 164.686586 
L 162.386409 164.225773 
L 163.020748 145.464571 
L 163.274484 167.253901 
L 163.401351 168.241214 
L 163.655087 159.354394 
L 163.908822 160.934396 
L 164.289426 173.573405 
L 164.416293 171.730154 
L 164.796897 162.250897 
L 164.923764 163.896585 
L 165.1775 172.388529 
L 165.431235 170.545278 
L 165.558103 172.520155 
L 165.811838 170.479591 
L 165.938706 171.796091 
L 166.192442 170.21609 
L 166.699913 185.81754 
L 166.953648 188.64823 
L 167.080516 186.936603 
L 167.334251 187.924042 
L 167.587987 181.209536 
L 167.841722 192.334607 
L 167.96859 188.187417 
L 168.095458 188.845667 
L 168.349193 198.1933 
L 168.602929 191.017981 
L 168.729796 190.096356 
L 168.983532 185.290915 
L 169.237267 185.751727 
L 169.364135 184.369289 
L 169.617871 188.187417 
L 169.744738 187.265791 
L 169.871606 188.91148 
L 169.998474 192.597858 
L 170.125342 191.149732 
L 170.252209 187.792416 
L 170.379077 187.989854 
L 170.505945 188.516479 
L 170.75968 184.566852 
L 171.013416 189.635668 
L 171.140283 185.883352 
L 171.267151 136.182877 
L 171.520887 130.521497 
L 171.647754 130.587435 
L 171.774622 130.98231 
L 172.028358 129.665809 
L 172.282093 133.681249 
L 172.535829 132.759623 
L 172.662696 132.957186 
L 172.789564 134.602875 
L 173.0433 139.605879 
L 173.170167 136.90694 
L 173.297035 137.236127 
L 173.423903 140.65913 
L 173.550771 140.264255 
L 173.677638 136.314501 
L 173.804506 139.145066 
L 173.931374 145.135383 
L 174.185109 138.48669 
L 174.311977 139.803442 
L 174.438845 141.119943 
L 174.819448 137.69694 
L 174.946316 137.236127 
L 175.073183 138.618566 
L 175.326919 138.091815 
L 175.453787 138.355065 
L 175.707522 136.380189 
L 175.961258 139.079379 
L 176.088125 137.96019 
L 176.214993 138.289378 
L 176.341861 141.909943 
L 176.468729 141.44913 
L 176.722464 129.534184 
L 176.9762 140.527505 
L 177.103067 139.408316 
L 177.229935 139.935067 
L 177.356803 141.119943 
L 177.610538 139.013441 
L 177.737406 138.684253 
L 177.864274 137.565315 
L 177.991141 137.43344 
L 178.244877 138.618566 
L 178.371745 137.236127 
L 178.498612 137.565315 
L 178.752348 141.317506 
L 178.879216 140.856693 
L 179.132951 139.013441 
L 179.259819 138.815878 
L 179.386687 153.034889 
L 179.640422 149.611887 
L 179.894158 155.075704 
L 180.021025 152.179201 
L 180.274761 156.392204 
L 180.401628 151.520826 
L 180.528496 152.113263 
L 180.655364 156.589767 
L 180.909099 146.649447 
L 181.162835 154.548953 
L 181.41657 151.784076 
L 181.543438 151.65245 
L 181.797174 145.662134 
L 181.924041 146.649447 
L 182.050909 146.254572 
L 182.304645 142.634007 
L 182.431512 142.765631 
L 182.685248 155.273016 
L 183.065851 156.589767 
L 183.319586 152.376764 
L 183.446454 151.191638 
L 183.70019 147.966198 
L 183.827057 147.768636 
L 183.953925 150.467575 
L 184.080793 155.668142 
L 184.207661 153.166514 
L 184.334528 144.806446 
L 184.461396 145.135383 
L 184.588264 149.941075 
L 184.841999 147.966198 
L 185.095735 154.417328 
L 185.34947 153.495702 
L 185.476338 154.285703 
L 185.603206 152.837327 
L 185.856941 148.624323 
L 185.983809 148.887824 
L 186.110677 147.242135 
L 186.237544 147.373761 
L 186.49128 154.614891 
L 186.618148 153.495702 
L 186.745015 154.483266 
L 186.871883 154.35139 
L 186.998751 151.586764 
L 187.252486 159.74952 
L 187.379354 157.182206 
L 187.506222 143.028881 
L 187.759957 146.649447 
L 188.013693 147.176197 
L 188.140561 144.674821 
L 188.394296 135.985314 
L 188.521164 137.96019 
L 188.774899 146.781322 
L 189.028635 142.436444 
L 189.28237 147.702698 
L 189.409238 146.188634 
L 189.536106 146.188634 
L 189.662973 146.583759 
L 189.789841 148.624323 
L 190.043577 156.128955 
L 190.297312 153.758952 
L 190.551048 155.733829 
L 190.931651 152.442452 
L 191.058519 152.179201 
L 191.439122 157.31383 
L 191.56599 157.445455 
L 191.819725 152.771639 
L 191.946593 153.364077 
L 192.073461 151.718388 
L 192.200328 148.558636 
L 192.580931 160.802771 
L 192.707799 160.868458 
L 192.834667 163.435772 
L 192.961535 160.407645 
L 193.21527 146.188634 
L 193.469006 148.755948 
L 193.595873 148.624323 
L 193.722741 152.179201 
L 193.976477 162.71171 
L 194.230212 143.555632 
L 194.35708 143.88482 
L 194.483948 145.135383 
L 194.610815 144.14807 
L 194.864551 146.912948 
L 194.991419 146.583759 
L 195.118286 147.505385 
L 195.372022 144.214008 
L 195.498889 145.728071 
L 195.625757 129.336621 
L 195.879493 136.512064 
L 196.133228 130.324184 
L 196.260096 130.521497 
L 196.386964 129.665809 
L 196.513831 127.296057 
L 196.767567 118.935738 
L 197.14817 130.587435 
L 197.275038 133.94475 
L 197.401906 140.856693 
L 197.528773 139.605879 
L 197.655641 135.656126 
L 197.909377 147.242135 
L 198.163112 140.790755 
L 198.416847 145.596196 
L 198.543715 145.267258 
L 198.797451 148.031885 
L 198.924318 147.834573 
L 199.178054 149.941075 
L 199.431789 141.909943 
L 199.685525 144.674821 
L 199.812393 144.214008 
L 200.066128 149.282699 
L 200.192996 145.596196 
L 200.446731 156.457892 
L 200.573599 153.956515 
L 200.827335 145.332946 
L 200.954202 146.386197 
L 201.08107 145.464571 
L 201.207938 145.728071 
L 201.461673 148.953511 
L 201.588541 146.715385 
L 201.715409 148.295386 
L 201.842276 151.455138 
L 202.096012 146.057009 
L 202.349747 153.956515 
L 202.476615 150.796763 
L 202.603483 151.060013 
L 202.857218 155.338954 
L 202.984086 154.219765 
L 203.110954 155.075704 
L 203.237822 152.771639 
L 203.491557 140.461567 
L 203.618425 142.963194 
L 203.745293 165.279024 
L 203.999028 168.241214 
L 204.252764 161.592521 
L 204.633367 172.12528 
L 204.887102 187.397416 
L 205.394573 173.112592 
L 205.775176 180.551286 
L 205.902044 179.36641 
L 206.028912 180.353848 
L 206.282647 185.751727 
L 206.409515 184.040226 
L 206.536383 185.159289 
L 206.916986 191.610419 
L 207.170722 201.813865 
L 207.424457 202.998866 
L 207.678192 205.236992 
L 208.058796 202.538053 
L 208.185663 203.459679 
L 208.439399 213.860562 
L 208.566267 209.581621 
L 208.693134 209.515808 
L 208.94687 216.822877 
L 209.073738 213.070561 
L 209.200605 213.531374 
L 209.454341 217.612752 
L 209.708076 213.333936 
L 209.834944 213.728937 
L 210.08868 217.086127 
L 210.215547 217.086127 
L 210.342415 218.60019 
L 210.59615 223.669007 
L 210.723018 224.39307 
L 210.976754 220.706692 
L 211.103621 223.076569 
L 211.230489 222.484131 
L 211.357357 220.838317 
L 211.611092 224.458882 
L 211.73796 222.286568 
L 211.864828 124.399555 
L 212.118563 122.490365 
L 212.372299 122.753866 
L 212.499167 119.791426 
L 212.626034 119.594114 
L 212.87977 125.650118 
L 213.133505 122.358741 
L 213.387241 124.070367 
L 213.640976 124.201992 
L 213.767844 123.807117 
L 213.894712 123.872804 
L 214.021579 125.189555 
L 214.148447 124.926055 
L 214.275315 122.161428 
L 214.402183 124.26793 
L 214.52905 129.994997 
L 214.655918 127.624994 
L 214.782786 121.371427 
L 215.036521 130.258247 
L 215.163389 127.888495 
L 215.417125 121.766302 
L 215.543992 122.622241 
L 215.797728 125.58443 
L 216.178331 121.634678 
L 216.305199 121.437115 
L 216.558934 125.05768 
L 216.685802 122.293053 
L 216.939537 133.94475 
L 217.066405 130.324184 
L 217.193273 121.83224 
L 217.320141 122.622241 
L 217.573876 130.389872 
L 217.827612 124.596867 
L 217.954479 124.333617 
L 218.208215 121.108177 
L 218.46195 122.293053 
L 218.588818 121.239803 
L 218.715686 122.490365 
L 218.842554 120.976302 
L 218.969421 117.092486 
L 219.096289 118.672488 
L 219.350025 124.070367 
L 219.476892 123.609554 
L 219.60376 121.108177 
L 219.730628 116.368424 
L 219.857495 116.368424 
L 219.984363 151.323263 
L 220.111231 153.100827 
L 220.238099 152.376764 
L 220.364966 155.273016 
L 220.491834 155.141391 
L 220.618702 151.520826 
L 220.872437 156.52383 
L 221.126173 147.307823 
L 221.253041 148.887824 
L 221.379908 148.953511 
L 221.506776 146.122946 
L 221.633644 146.517821 
L 221.760512 148.558636 
L 221.887379 147.702698 
L 222.141115 154.022453 
L 222.267983 153.56164 
L 222.39485 154.548953 
L 222.521718 153.82489 
L 222.775453 145.728071 
L 222.902321 147.571073 
L 223.029189 145.662134 
L 223.156057 148.953511 
L 223.282924 155.865454 
L 223.409792 156.063017 
L 223.663528 152.969202 
L 223.790395 153.627327 
L 223.917263 152.310826 
L 224.170999 146.715385 
L 224.424734 148.031885 
L 224.67847 156.063017 
L 224.805337 154.878141 
L 225.059073 146.912948 
L 225.439676 155.273016 
L 225.566544 155.470579 
L 225.820279 149.611887 
L 226.074015 155.141391 
L 226.454618 145.991322 
L 226.708353 146.84701 
L 226.835221 146.517821 
L 226.962089 147.242135 
L 227.342692 153.758952 
L 227.596428 146.122946 
L 227.850163 154.548953 
L 227.977031 153.034889 
L 228.103899 149.80945 
L 228.230766 153.82489 
L 228.484502 166.529838 
L 228.738237 162.909272 
L 228.865105 163.699273 
L 229.245708 171.532842 
L 229.372576 172.980968 
L 229.499444 172.12528 
L 229.626311 168.438776 
L 229.880047 173.17853 
L 230.133782 162.185209 
L 230.641253 165.410649 
L 230.894989 168.767964 
L 231.148724 162.448459 
L 231.275592 163.76496 
L 231.40246 162.580084 
L 231.656195 147.242135 
L 231.909931 153.56164 
L 232.036798 153.100827 
L 232.163666 150.928388 
L 232.290534 146.32051 
L 232.417402 146.057009 
L 232.544269 146.84701 
L 232.671137 140.329942 
L 232.798005 139.935067 
L 233.05174 148.755948 
L 233.178608 148.427011 
L 233.305476 151.520826 
L 233.432344 148.755948 
L 233.686079 138.289378 
L 233.812947 137.236127 
L 234.066682 140.264255 
L 234.19355 138.026128 
L 234.320418 139.935067 
L 234.574153 148.16351 
L 234.954756 131.048248 
L 235.081624 131.706373 
L 235.208492 133.483937 
L 235.462227 128.810121 
L 235.842831 138.22344 
L 236.096566 131.048248 
L 236.223434 175.548282 
L 236.477169 180.551286 
L 236.730905 171.861779 
L 236.857773 171.598529 
L 237.365244 161.790084 
L 237.745847 171.532842 
L 237.999582 188.582417 
L 238.12645 182.526162 
L 238.253318 182.131162 
L 238.507053 196.613423 
L 238.633921 188.121604 
L 238.760789 187.199978 
L 238.887656 188.64823 
L 239.014524 187.134166 
L 239.141392 189.635668 
L 239.395127 200.431552 
L 239.521995 201.41899 
L 239.648863 200.497364 
L 239.775731 201.748052 
L 239.902598 197.469236 
L 240.156334 183.447788 
L 240.410069 191.083794 
L 240.536937 190.425544 
L 240.663805 188.977292 
L 240.790672 189.240668 
L 241.044408 202.603865 
L 241.551879 184.698476 
L 242.05935 195.955173 
L 242.186218 194.243672 
L 242.439953 186.804978 
L 242.566821 187.002416 
L 242.693689 186.804978 
L 242.820556 184.895914 
L 242.947424 184.961727 
L 243.328027 198.719925 
L 243.454895 195.49436 
L 243.708631 180.485473 
L 243.835498 185.55429 
L 243.962366 183.447788 
L 244.342969 138.750191 
L 244.469837 138.947503 
L 244.596705 136.841002 
L 244.85044 131.574747 
L 245.104176 140.39588 
L 245.357911 151.455138 
L 245.484779 148.229448 
L 245.738514 139.211004 
L 245.99225 136.90694 
L 246.119118 137.367752 
L 246.753456 147.11026 
L 247.007192 139.276691 
L 247.134059 139.605879 
L 247.260927 140.790755 
L 247.387795 140.066692 
L 247.514663 142.699944 
L 247.768398 159.157082 
L 247.895266 160.671145 
L 248.149001 154.746516 
L 248.402737 162.250897 
L 248.529605 159.222769 
L 248.78334 147.966198 
L 249.037076 162.580084 
L 249.290811 155.141391 
L 249.544547 160.210333 
L 250.052017 152.903265 
L 250.305753 145.135383 
L 250.559488 148.887824 
L 250.813224 146.781322 
L 250.940092 148.492698 
L 251.193827 155.799767 
L 251.447563 146.649447 
L 251.701298 138.355065 
L 251.955034 138.48669 
L 252.081901 139.013441 
L 252.208769 140.198317 
L 252.335637 137.894252 
L 252.462505 160.868458 
L 252.589372 156.194642 
L 252.71624 156.194642 
L 252.843108 156.457892 
L 252.969975 153.890577 
L 253.223711 157.182206 
L 253.477446 153.364077 
L 253.731182 156.392204 
L 253.85805 155.207329 
L 253.984917 157.31383 
L 254.238653 164.752524 
L 254.365521 162.843334 
L 254.619256 175.087469 
L 254.746124 171.664467 
L 254.872992 172.454467 
L 254.999859 178.773847 
L 255.126727 176.075032 
L 255.253595 169.294464 
L 255.50733 172.520155 
L 255.887933 162.974959 
L 256.014801 162.053334 
L 256.268537 163.633335 
L 256.522272 166.793088 
L 256.776008 158.827894 
L 256.902875 161.06602 
L 257.029743 165.805774 
L 257.156611 165.279024 
L 257.283479 161.592521 
L 257.537214 170.874466 
L 257.917817 154.35139 
L 258.044685 155.141391 
L 258.171553 154.614891 
L 258.298421 154.944079 
L 258.552156 156.392204 
L 258.805892 153.495702 
L 259.059627 155.668142 
L 259.313362 152.310826 
L 259.693966 155.273016 
L 259.820833 153.693265 
L 259.947701 154.022453 
L 260.074569 155.865454 
L 260.201437 154.35139 
L 260.328304 149.875137 
L 260.455172 149.348637 
L 260.58204 137.104503 
L 260.835775 145.662134 
L 260.962643 144.806446 
L 261.216379 139.145066 
L 261.343246 145.069696 
L 261.470114 144.016445 
L 261.596982 136.775314 
L 261.72385 136.248564 
L 261.850717 137.828565 
L 262.104453 131.048248 
L 262.358188 138.947503 
L 262.611924 138.355065 
L 262.738791 140.593442 
L 262.865659 140.264255 
L 263.119395 132.03556 
L 263.37313 130.719059 
L 263.499998 130.784747 
L 263.626866 130.126622 
L 263.880601 138.421003 
L 264.134337 132.03556 
L 264.388072 136.64369 
L 264.641808 127.361744 
L 264.895543 132.430686 
L 265.022411 133.352061 
L 265.276146 137.894252 
L 265.529882 120.910614 
L 265.656749 123.477929 
L 265.783617 131.969874 
L 265.910485 131.443123 
L 266.037353 129.073371 
L 266.291088 133.352061 
L 266.417956 133.681249 
L 266.544824 137.170189 
L 266.671691 136.248564 
L 266.925427 126.966869 
L 267.179162 132.233123 
L 267.432898 123.280366 
L 267.686633 132.496373 
L 267.940369 131.640685 
L 268.067236 132.693936 
L 268.194104 129.402559 
L 268.320972 130.98231 
L 268.44784 138.22344 
L 268.574707 138.026128 
L 268.701575 112.352983 
L 269.082178 124.004429 
L 269.209046 121.83224 
L 269.462782 109.522168 
L 269.843385 116.894924 
L 269.970253 123.609554 
L 270.09712 122.095491 
L 270.223988 113.932734 
L 270.350856 114.85436 
L 270.477724 119.198988 
L 270.731459 104.058351 
L 270.985195 116.434361 
L 271.112062 115.446798 
L 271.23893 111.36542 
L 271.365798 115.775985 
L 271.492665 124.465242 
L 271.619533 123.543616 
L 271.873269 115.249235 
L 272.000136 114.722735 
L 272.253872 103.729414 
L 272.507607 115.446798 
L 272.634475 116.17086 
L 272.761343 116.105174 
L 273.015078 106.494041 
L 273.141946 107.284041 
L 273.268814 108.92973 
L 273.395682 107.810792 
L 273.649417 117.355736 
L 273.776285 117.092486 
L 273.903153 123.346304 
L 274.03002 123.609554 
L 274.283756 102.412662 
L 274.537491 106.823228 
L 274.664359 106.033228 
L 274.791227 107.349979 
L 275.044962 121.56899 
L 275.17183 121.239803 
L 275.425565 94.97422 
L 275.552433 94.579094 
L 275.806169 104.651039 
L 275.933036 104.651039 
L 276.186772 106.428353 
L 276.31364 108.798105 
L 276.440507 107.678916 
L 276.567375 104.387539 
L 276.694243 106.691604 
L 276.821111 131.24556 
L 276.947978 131.509061 
L 277.074846 130.587435 
L 277.455449 115.11761 
L 277.709185 109.127293 
L 277.96292 106.296729 
L 278.343523 117.750862 
L 278.597259 133.154749 
L 278.850994 128.28337 
L 279.10473 139.474254 
L 279.358465 135.458813 
L 279.739069 139.671817 
L 279.992804 147.966198 
L 280.119672 147.966198 
L 280.373407 144.477258 
L 280.627143 137.367752 
L 281.007746 140.000754 
L 281.261481 146.254572 
L 281.388349 145.003758 
L 281.642085 148.887824 
L 281.768952 146.978634 
L 282.022688 138.815878 
L 282.276423 138.552628 
L 282.403291 141.119943 
L 282.657027 148.229448 
L 282.910762 140.198317 
L 283.164497 138.22344 
L 283.291365 138.091815 
L 283.418233 137.565315 
L 283.545101 139.342629 
L 284.052572 153.890577 
L 284.306307 138.815878 
L 284.560043 140.329942 
L 284.813778 127.690932 
L 284.940646 181.012099 
L 285.067514 179.695473 
L 285.194381 180.28791 
L 285.448117 173.836655 
L 285.701852 178.642222 
L 285.955588 191.281357 
L 286.589926 179.23466 
L 286.716794 179.695473 
L 286.97053 187.331604 
L 287.097397 186.607541 
L 287.224265 186.870791 
L 287.351133 191.281357 
L 287.604868 187.265791 
L 287.731736 190.952169 
L 287.858604 190.228106 
L 287.985472 186.080915 
L 288.61981 208.396745 
L 288.746678 208.594308 
L 289.000414 206.751056 
L 289.127281 204.710367 
L 289.254149 200.497364 
L 289.381017 200.168176 
L 289.634752 211.095684 
L 289.888488 206.356056 
L 290.142223 215.177063 
L 290.522826 208.594308 
L 290.649694 208.330932 
L 290.90343 203.064678 
L 291.157165 208.133495 
L 291.284033 206.092806 
L 291.410901 207.211869 
L 291.664636 211.161622 
L 291.791504 212.346498 
L 291.918372 211.227435 
L 292.172107 202.669678 
L 292.298975 204.644555 
L 292.55271 200.168176 
L 292.806446 210.70081 
L 292.933313 205.697805 
L 293.060181 118.935738 
L 293.187049 114.85436 
L 293.313917 114.459485 
L 293.440784 115.578423 
L 293.69452 112.813545 
L 293.948255 115.841673 
L 294.201991 113.867047 
L 294.328859 113.735171 
L 294.582594 112.221107 
L 294.83633 119.462238 
L 294.963197 116.236798 
L 295.090065 116.565987 
L 295.216933 122.753866 
L 295.3438 123.411991 
L 295.470668 121.04224 
L 295.724404 127.427682 
L 295.978139 122.227115 
L 296.231875 123.543616 
L 296.48561 115.38086 
L 296.612478 115.446798 
L 296.739346 117.487612 
L 296.866213 117.224112 
L 296.993081 116.631673 
L 297.119949 117.026799 
L 297.500552 115.249235 
L 297.754288 116.960862 
L 297.881155 115.446798 
L 298.008023 118.474925 
L 298.134891 124.53118 
L 298.261758 121.371427 
L 298.515494 107.744854 
L 298.769229 115.644361 
L 299.022965 114.85436 
L 299.149833 114.985985 
L 299.2767 114.459485 
L 299.403568 114.459485 
L 299.657304 113.867047 
L 299.911039 114.722735 
L 300.037907 114.261922 
L 300.164775 113.011108 
L 300.291642 113.537859 
L 300.545378 116.434361 
L 300.672246 116.763299 
L 300.925981 113.932734 
L 301.052849 114.525172 
L 301.306584 129.994997 
L 301.433452 130.587435 
L 301.56032 132.233123 
L 301.814055 128.678245 
L 302.067791 136.446127 
L 302.321526 128.349308 
L 302.448394 131.048248 
L 302.702129 126.966869 
L 302.955865 131.574747 
L 303.082733 131.24556 
L 303.2096 131.311498 
L 303.336468 130.389872 
L 303.843939 122.490365 
L 304.097675 119.923051 
L 304.224542 123.017116 
L 304.478278 132.891499 
L 304.605145 132.562311 
L 304.732013 133.023124 
L 304.858881 132.627998 
L 305.366352 124.26793 
L 305.620087 129.468246 
L 305.746955 129.007433 
L 305.873823 131.377435 
L 306.000691 128.151745 
L 306.127558 118.60655 
L 306.254426 119.067363 
L 306.381294 125.650118 
L 306.508162 123.938742 
L 306.635029 123.807117 
L 306.888765 129.534184 
L 307.015633 128.678245 
L 307.269368 130.719059 
L 307.649971 124.465242 
L 307.776839 123.938742 
L 308.030574 121.503053 
L 308.28431 124.070367 
L 308.411178 125.452806 
L 308.664913 129.863372 
L 308.791781 128.678245 
L 309.045516 133.681249 
L 309.172384 131.706373 
L 309.42612 151.389201 
L 309.679855 157.708705 
L 309.806723 157.379518 
L 309.933591 156.589767 
L 310.187326 148.097823 
L 310.567929 157.379518 
L 310.821665 155.536516 
L 310.948532 155.865454 
L 311.0754 157.774643 
L 311.329136 153.56164 
L 311.456003 154.285703 
L 311.836607 163.896585 
L 311.963474 163.896585 
L 312.21721 168.504714 
L 312.344078 166.990651 
L 312.724681 155.141391 
L 312.851549 156.063017 
L 313.232152 167.319838 
L 313.485887 163.370085 
L 313.612755 163.106585 
L 313.86649 157.116268 
L 313.993358 158.037894 
L 314.247094 165.147399 
L 314.373961 166.134712 
L 314.500829 168.504714 
L 314.627697 167.977963 
L 314.881432 159.815207 
L 315.0083 154.614891 
L 315.135168 154.614891 
L 315.515771 162.185209 
L 315.642639 170.545278 
L 315.769507 171.203654 
L 316.15011 145.662134 
L 316.403845 152.903265 
L 316.657581 154.614891 
L 316.911316 158.564644 
L 317.165052 153.693265 
L 317.291919 154.285703 
L 317.418787 145.728071 
L 317.545655 148.229448 
L 317.672523 145.464571 
L 317.926258 128.810121 
L 318.179994 113.011108 
L 318.306861 114.064359 
L 318.433729 116.17086 
L 318.560597 112.089483 
L 319.194936 149.80945 
L 319.448671 144.082132 
L 319.702406 159.288707 
L 319.956142 152.244889 
L 320.08301 155.865454 
L 320.209877 155.799767 
L 320.336745 156.326267 
L 320.590481 166.200649 
L 320.717348 165.805774 
L 320.844216 162.974959 
L 320.971084 164.02821 
L 321.097952 162.382521 
L 321.351687 151.191638 
L 321.478555 155.865454 
L 321.605423 155.997329 
L 321.73229 155.602204 
L 321.986026 161.724396 
L 322.112894 163.040897 
L 322.239761 166.661462 
L 322.366629 165.344962 
L 322.620364 154.944079 
L 322.747232 152.969202 
L 322.8741 156.457892 
L 323.127835 164.159835 
L 323.254703 162.448459 
L 323.508439 162.580084 
L 323.635306 162.514147 
L 323.762174 162.053334 
L 324.01591 152.969202 
L 324.142777 155.799767 
L 324.396513 171.927717 
L 324.650248 164.949836 
L 325.030852 150.928388 
L 325.157719 150.33595 
L 325.411455 138.48669 
L 325.66519 119.594114 
L 325.792058 116.434361 
L 325.918926 116.236798 
L 326.172661 114.920297 
L 326.299529 119.264926 
L 326.553264 134.142062 
L 327.187603 114.722735 
L 327.314471 115.512736 
L 327.568206 118.474925 
L 327.821942 115.051923 
L 327.94881 121.305489 
L 328.075677 120.713052 
L 328.202545 115.315173 
L 328.456281 122.753866 
L 328.583148 117.750862 
L 328.710016 118.3433 
L 328.963751 130.916623 
L 329.217487 133.615562 
L 329.471222 132.233123 
L 329.59809 133.812874 
L 329.724958 132.759623 
L 329.978693 128.28337 
L 330.232429 137.828565 
L 330.486164 129.599871 
L 330.7399 137.894252 
L 330.866768 137.43344 
L 330.993635 134.273687 
L 331.120503 134.47125 
L 331.247371 133.088811 
L 331.501106 119.988989 
L 331.754842 124.926055 
L 331.881709 122.293053 
L 332.008577 122.753866 
L 332.516048 132.101498 
L 332.896651 122.556303 
L 333.023519 120.713052 
L 333.150387 122.029553 
L 333.404122 129.665809 
L 333.53099 124.596867 
L 333.657858 167.912276 
L 333.784726 165.673899 
L 334.038461 166.134712 
L 334.292197 162.053334 
L 334.419064 162.514147 
L 334.6728 168.965527 
L 334.926535 161.658459 
L 335.180271 163.435772 
L 335.434006 173.573405 
L 335.560874 170.282028 
L 335.687742 170.282028 
L 335.941477 180.222098 
L 336.068345 179.103035 
L 336.32208 184.303476 
L 336.575816 177.325721 
L 336.702684 179.62966 
L 336.829551 178.313159 
L 337.210155 169.228777 
L 337.337022 169.557965 
L 337.590758 176.864782 
L 337.717625 176.799096 
L 337.971361 170.150403 
L 338.351964 174.363406 
L 338.478832 173.375843 
L 338.732567 185.356727 
L 338.986303 169.492027 
L 339.113171 169.755277 
L 339.240038 173.441781 
L 339.620642 170.808528 
L 339.747509 171.072029 
L 340.001245 169.294464 
L 340.128113 170.413653 
L 340.25498 170.347966 
L 340.508716 164.159835 
L 340.635584 163.962523 
L 340.762451 163.435772 
L 340.889319 164.884149 
L 341.143054 171.730154 
L 341.269922 172.059342 
L 341.523658 161.790084 
L 341.650525 162.843334 
L 341.777393 107.678916 
L 341.904261 108.798105 
L 342.157996 116.368424 
L 342.284864 113.274358 
L 342.411732 107.020791 
L 342.5386 107.284041 
L 342.665467 109.258918 
L 343.046071 98.72641 
L 343.172938 99.648036 
L 343.299806 98.397222 
L 343.426674 99.187223 
L 343.680409 107.284041 
L 343.807277 107.284041 
L 343.934145 109.324856 
L 344.18788 105.901603 
L 344.314748 106.823228 
L 344.568483 101.227786 
L 344.822219 107.349979 
L 344.949087 107.876479 
L 345.202822 115.775985 
L 345.456558 107.218354 
L 345.583425 108.468917 
L 345.710293 107.810792 
L 345.837161 104.453477 
L 346.344632 116.829236 
L 346.4715 121.04224 
L 346.725235 101.820225 
L 346.97897 112.41867 
L 347.105838 110.180544 
L 347.232706 111.036232 
L 347.486441 116.829236 
L 347.613309 116.829236 
L 347.740177 118.211675 
L 347.993912 112.945421 
L 348.12078 115.183548 
L 348.247648 114.656797 
L 348.501383 107.810792 
L 348.628251 107.942417 
L 348.881987 114.393547 
L 349.008854 115.183548 
L 349.135722 118.738175 
L 349.26259 119.133301 
L 349.389458 116.368424 
L 349.516325 119.725739 
L 349.770061 129.007433 
L 350.023796 169.42634 
L 350.277532 179.103035 
L 350.404399 177.259783 
L 350.658135 170.150403 
L 350.785003 170.611216 
L 350.91187 171.796091 
L 351.165606 181.867787 
L 351.419341 170.676903 
L 351.546209 171.861779 
L 351.673077 174.363406 
L 351.926812 164.489023 
L 352.180548 172.388529 
L 352.307416 171.137716 
L 352.434283 171.335278 
L 352.688019 185.356727 
L 352.814886 185.685915 
L 353.068622 180.222098 
L 353.19549 178.97141 
L 353.449225 167.122275 
L 353.702961 182.46035 
L 353.829828 180.28791 
L 353.956696 180.419661 
L 354.083564 181.143724 
L 354.337299 175.285032 
L 354.464167 175.61422 
L 354.591035 176.93072 
L 354.84477 185.093477 
L 354.971638 185.685915 
L 355.098506 185.55429 
L 355.225374 184.698476 
L 355.605977 169.42634 
L 355.732845 170.347966 
L 356.113448 179.563847 
L 356.367183 190.952169 
L 356.620919 161.724396 
L 356.747786 162.580084 
L 357.001522 172.980968 
L 357.12839 170.874466 
L 357.255257 171.335278 
L 357.508993 175.87747 
L 357.762728 170.347966 
L 357.889596 171.006091 
L 358.016464 151.191638 
L 358.143332 153.100827 
L 358.270199 149.085136 
L 358.523935 126.110931 
L 359.031406 97.212346 
L 359.158273 97.607221 
L 359.792612 142.436444 
L 359.91948 140.461567 
L 360.046348 142.107506 
L 360.300083 159.486019 
L 360.426951 156.52383 
L 360.553819 157.708705 
L 360.807554 163.896585 
L 360.934422 165.147399 
L 361.188157 175.285032 
L 361.315025 175.61422 
L 361.568761 175.285032 
L 361.949364 161.197646 
L 362.329967 172.454467 
L 362.456835 172.980968 
L 362.583702 172.980968 
L 362.837438 181.012099 
L 363.091173 171.927717 
L 363.344909 164.357398 
L 363.471777 166.595525 
L 363.725512 174.165843 
L 363.979248 171.861779 
L 364.106115 171.730154 
L 364.486719 167.451464 
L 364.867322 171.993654 
L 365.121057 181.407099 
L 365.247925 179.893036 
L 365.628528 164.159835 
L 365.755396 162.250897 
L 366.009131 150.928388 
L 366.135999 140.461567 
L 366.389735 140.132629 
L 366.516602 135.722064 
L 366.64347 135.261251 
L 366.770338 137.762627 
L 366.897206 137.631002 
L 367.277809 153.034889 
L 367.78528 136.841002 
L 368.165883 141.975631 
L 368.292751 140.593442 
L 368.419618 140.593442 
L 368.673354 147.176197 
L 368.800222 145.135383 
L 369.053957 147.768636 
L 369.180825 145.662134 
L 369.307693 148.361073 
L 369.561428 160.868458 
L 369.815164 165.081461 
L 369.942031 164.423336 
L 370.068899 164.554961 
L 370.195767 165.871462 
L 370.322635 164.357398 
L 370.449502 161.197646 
L 370.57637 161.263584 
L 370.830106 172.190966 
L 370.956973 170.282028 
L 371.083841 170.676903 
L 371.337576 182.7236 
L 371.591312 179.498035 
L 371.845047 181.538724 
L 372.098783 168.767964 
L 372.733122 179.36641 
L 372.859989 180.090473 
L 372.986857 182.921163 
L 373.113725 183.052788 
L 373.36746 176.338283 
L 373.494328 178.049784 
L 373.748064 176.338283 
L 374.001799 185.225102 
L 374.128667 179.62966 
L 374.255534 136.314501 
L 374.50927 130.784747 
L 374.636138 130.98231 
L 374.763005 130.784747 
L 374.889873 130.192309 
L 375.016741 130.521497 
L 375.143609 131.377435 
L 375.270476 131.377435 
L 375.524212 129.929059 
L 375.65108 129.929059 
L 375.777947 131.903936 
L 376.031683 141.054005 
L 376.285418 136.577752 
L 376.539154 144.214008 
L 376.666022 144.14807 
L 376.919757 149.216761 
L 377.173492 145.859697 
L 377.427228 147.702698 
L 377.554096 146.386197 
L 377.807831 138.947503 
L 377.934699 140.000754 
L 378.188434 146.122946 
L 378.569038 144.41132 
L 378.695905 144.740508 
L 378.949641 147.63701 
L 379.076509 146.188634 
L 379.330244 154.680578 
L 379.457112 151.455138 
L 379.710847 139.145066 
L 380.09145 146.32051 
L 380.472054 145.398884 
L 380.725789 145.991322 
L 380.979525 143.950507 
L 381.106392 145.332946 
L 381.23326 144.016445 
L 381.360128 140.527505 
L 381.486996 142.239132 
L 381.740731 147.439447 
L 381.867599 147.307823 
L 381.994467 145.530509 
L 382.121334 141.317506 
L 382.248202 141.514818 
L 382.501938 147.571073 
L 382.628805 149.151074 
L 382.755673 152.837327 
L 382.882541 150.204325 
L 383.009409 144.674821 
L 383.263144 149.941075 
L 383.516879 140.329942 
L 383.643747 144.542945 
L 383.770615 143.489694 
L 383.897483 138.815878 
L 384.151218 147.966198 
L 384.278086 146.583759 
L 384.404954 146.583759 
L 384.531821 147.90026 
L 384.658689 145.003758 
L 384.785557 145.069696 
L 384.912425 145.596196 
L 385.16616 129.534184 
L 385.293028 129.929059 
L 385.800499 147.439447 
L 386.054234 146.188634 
L 386.181102 145.925384 
L 386.30797 143.687257 
L 386.434837 139.342629 
L 386.561705 138.815878 
L 386.815441 145.398884 
L 386.942308 145.991322 
L 387.069176 149.348637 
L 387.196044 146.84701 
L 387.322912 138.552628 
L 387.449779 138.552628 
L 387.576647 144.608883 
L 387.703515 144.674821 
L 387.830383 143.88482 
L 388.084118 147.176197 
L 388.210986 147.373761 
L 388.464721 146.649447 
L 388.591589 145.991322 
L 388.845325 140.264255 
L 389.09906 140.988317 
L 389.225928 138.750191 
L 389.352795 138.618566 
L 389.733399 147.966198 
L 389.987134 144.806446 
L 390.24087 155.733829 
L 390.367737 155.009766 
L 390.494605 144.938071 
L 390.748341 164.554961 
L 390.875208 166.4639 
L 391.128944 172.256904 
L 391.382679 167.780651 
L 391.763283 180.419661 
L 391.89015 180.222098 
L 392.017018 177.918159 
L 392.270753 180.880474 
L 392.524489 177.457346 
L 392.651357 178.510597 
L 393.03196 187.265791 
L 393.158828 188.055792 
L 393.412563 194.901922 
L 393.666299 187.331604 
L 393.793166 188.450667 
L 394.046902 177.918159 
L 394.300637 193.190421 
L 394.554373 188.121604 
L 394.681241 187.529041 
L 395.188711 178.97141 
L 395.442447 187.924042 
L 395.569315 187.989854 
L 395.82305 190.293918 
L 396.203653 175.021782 
L 396.330521 175.745845 
L 396.711124 181.999537 
L 396.96486 193.717046 
L 397.345463 167.583088 
L 397.472331 170.808528 
L 397.599199 170.940403 
L 397.726066 170.479591 
L 397.852934 171.203654 
L 398.10667 175.285032 
L 398.233537 173.902593 
L 398.360405 170.611216 
L 398.487273 170.940403 
L 398.487273 170.940403 
" clip-path="url(#pfd4ef4f36b)" style="fill: none; stroke: #1f77b4; stroke-width: 1.5; stroke-linecap: square"/>
   </g>
   <g id="patch_3">
    <path d="M 57.6 307.584 
L 57.6 41.472 
" style="fill: none; stroke: #000000; stroke-width: 0.8; stroke-linejoin: miter; stroke-linecap: square"/>
   </g>
   <g id="patch_4">
    <path d="M 414.72 307.584 
L 414.72 41.472 
" style="fill: none; stroke: #000000; stroke-width: 0.8; stroke-linejoin: miter; stroke-linecap: square"/>
   </g>
   <g id="patch_5">
    <path d="M 57.6 307.584 
L 414.72 307.584 
" style="fill: none; stroke: #000000; stroke-width: 0.8; stroke-linejoin: miter; stroke-linecap: square"/>
   </g>
   <g id="patch_6">
    <path d="M 57.6 41.472 
L 414.72 41.472 
" style="fill: none; stroke: #000000; stroke-width: 0.8; stroke-linejoin: miter; stroke-linecap: square"/>
   </g>
   <g id="legend_1">
    <g id="patch_7">
     <path d="M 354.074688 64.150125 
L 407.72 64.150125 
Q 409.72 64.150125 409.72 62.150125 
L 409.72 48.472 
Q 409.72 46.472 407.72 46.472 
L 354.074688 46.472 
Q 352.074688 46.472 352.074688 48.472 
L 352.074688 62.150125 
Q 352.074688 64.150125 354.074688 64.150125 
z
" style="fill: #ffffff; opacity: 0.8; stroke: #cccccc; stroke-linejoin: miter"/>
    </g>
    <g id="line2d_13">
     <path d="M 356.074688 54.570438 
L 366.074688 54.570438 
L 376.074688 54.570438 
" style="fill: none; stroke: #1f77b4; stroke-width: 1.5; stroke-linecap: square"/>
    </g>
    <g id="text_12">
     <!-- set1 -->
     <g transform="translate(384.074688 58.070438)scale(0.1 -0.1)">
      <defs>
       <path id="DejaVuSans-73" d="M 2834 3397 
L 2834 2853 
Q 2591 2978 2328 3040 
Q 2066 3103 1784 3103 
Q 1356 3103 1142 2972 
Q 928 2841 928 2578 
Q 928 2378 1081 2264 
Q 1234 2150 1697 2047 
L 1894 2003 
Q 2506 1872 2764 1633 
Q 3022 1394 3022 966 
Q 3022 478 2636 193 
Q 2250 -91 1575 -91 
Q 1294 -91 989 -36 
Q 684 19 347 128 
L 347 722 
Q 666 556 975 473 
Q 1284 391 1588 391 
Q 1994 391 2212 530 
Q 2431 669 2431 922 
Q 2431 1156 2273 1281 
Q 2116 1406 1581 1522 
L 1381 1569 
Q 847 1681 609 1914 
Q 372 2147 372 2553 
Q 372 3047 722 3315 
Q 1072 3584 1716 3584 
Q 2034 3584 2315 3537 
Q 2597 3491 2834 3397 
z
" transform="scale(0.015625)"/>
       <path id="DejaVuSans-65" d="M 3597 1894 
L 3597 1613 
L 953 1613 
Q 991 1019 1311 708 
Q 1631 397 2203 397 
Q 2534 397 2845 478 
Q 3156 559 3463 722 
L 3463 178 
Q 3153 47 2828 -22 
Q 2503 -91 2169 -91 
Q 1331 -91 842 396 
Q 353 884 353 1716 
Q 353 2575 817 3079 
Q 1281 3584 2069 3584 
Q 2775 3584 3186 3129 
Q 3597 2675 3597 1894 
z
M 3022 2063 
Q 3016 2534 2758 2815 
Q 2500 3097 2075 3097 
Q 1594 3097 1305 2825 
Q 1016 2553 972 2059 
L 3022 2063 
z
" transform="scale(0.015625)"/>
       <path id="DejaVuSans-74" d="M 1172 4494 
L 1172 3500 
L 2356 3500 
L 2356 3053 
L 1172 3053 
L 1172 1153 
Q 1172 725 1289 603 
Q 1406 481 1766 481 
L 2356 481 
L 2356 0 
L 1766 0 
Q 1100 0 847 248 
Q 594 497 594 1153 
L 594 3053 
L 172 3053 
L 172 3500 
L 594 3500 
L 594 4494 
L 1172 4494 
z
" transform="scale(0.015625)"/>
      </defs>
      <use xlink:href="#DejaVuSans-73"/>
      <use xlink:href="#DejaVuSans-65" x="52.099609"/>
      <use xlink:href="#DejaVuSans-74" x="113.623047"/>
      <use xlink:href="#DejaVuSans-31" x="152.832031"/>
     </g>
    </g>
   </g>
  </g>
 </g>
 <defs>
  <clipPath id="pfd4ef4f36b">
   <rect x="57.6" y="41.472" width="357.12" height="266.112"/>
  </clipPath>
 </defs>
</svg>
