<?xml version="1.0" encoding="utf-8" standalone="no"?>
<!DOCTYPE svg PUBLIC "-//W3C//DTD SVG 1.1//EN"
  "http://www.w3.org/Graphics/SVG/1.1/DTD/svg11.dtd">
<svg xmlns:xlink="http://www.w3.org/1999/xlink" width="460.8pt" height="345.6pt" viewBox="0 0 460.8 345.6" xmlns="http://www.w3.org/2000/svg" version="1.1">
 <metadata>
  <rdf:RDF xmlns:dc="http://purl.org/dc/elements/1.1/" xmlns:cc="http://creativecommons.org/ns#" xmlns:rdf="http://www.w3.org/1999/02/22-rdf-syntax-ns#">
   <cc:Work>
    <dc:type rdf:resource="http://purl.org/dc/dcmitype/StillImage"/>
    <dc:date>2022-08-11T15:19:06.216729</dc:date>
    <dc:format>image/svg+xml</dc:format>
    <dc:creator>
     <cc:Agent>
      <dc:title>Matplotlib v3.5.2, https://matplotlib.org/</dc:title>
     </cc:Agent>
    </dc:creator>
   </cc:Work>
  </rdf:RDF>
 </metadata>
 <defs>
  <style type="text/css">*{stroke-linejoin: round; stroke-linecap: butt}</style>
 </defs>
 <g id="figure_1">
  <g id="patch_1">
   <path d="M 0 345.6 
L 460.8 345.6 
L 460.8 0 
L 0 0 
z
" style="fill: #ffffff"/>
  </g>
  <g id="axes_1">
   <g id="patch_2">
    <path d="M 57.6 307.584 
L 414.72 307.584 
L 414.72 41.472 
L 57.6 41.472 
z
" style="fill: #ffffff"/>
   </g>
   <g id="matplotlib.axis_1">
    <g id="xtick_1">
     <g id="line2d_1">
      <defs>
       <path id="m7c5d218f2e" d="M 0 0 
L 0 3.5 
" style="stroke: #000000; stroke-width: 0.8"/>
      </defs>
      <g>
       <use xlink:href="#m7c5d218f2e" x="73.832727" y="307.584" style="stroke: #000000; stroke-width: 0.8"/>
      </g>
     </g>
     <g id="text_1">
      <!-- 0 -->
      <g transform="translate(70.651477 322.182437)scale(0.1 -0.1)">
       <defs>
        <path id="DejaVuSans-30" d="M 2034 4250 
Q 1547 4250 1301 3770 
Q 1056 3291 1056 2328 
Q 1056 1369 1301 889 
Q 1547 409 2034 409 
Q 2525 409 2770 889 
Q 3016 1369 3016 2328 
Q 3016 3291 2770 3770 
Q 2525 4250 2034 4250 
z
M 2034 4750 
Q 2819 4750 3233 4129 
Q 3647 3509 3647 2328 
Q 3647 1150 3233 529 
Q 2819 -91 2034 -91 
Q 1250 -91 836 529 
Q 422 1150 422 2328 
Q 422 3509 836 4129 
Q 1250 4750 2034 4750 
z
" transform="scale(0.015625)"/>
       </defs>
       <use xlink:href="#DejaVuSans-30"/>
      </g>
     </g>
    </g>
    <g id="xtick_2">
     <g id="line2d_2">
      <g>
       <use xlink:href="#m7c5d218f2e" x="137.254205" y="307.584" style="stroke: #000000; stroke-width: 0.8"/>
      </g>
     </g>
     <g id="text_2">
      <!-- 1000 -->
      <g transform="translate(124.529205 322.182437)scale(0.1 -0.1)">
       <defs>
        <path id="DejaVuSans-31" d="M 794 531 
L 1825 531 
L 1825 4091 
L 703 3866 
L 703 4441 
L 1819 4666 
L 2450 4666 
L 2450 531 
L 3481 531 
L 3481 0 
L 794 0 
L 794 531 
z
" transform="scale(0.015625)"/>
       </defs>
       <use xlink:href="#DejaVuSans-31"/>
       <use xlink:href="#DejaVuSans-30" x="63.623047"/>
       <use xlink:href="#DejaVuSans-30" x="127.246094"/>
       <use xlink:href="#DejaVuSans-30" x="190.869141"/>
      </g>
     </g>
    </g>
    <g id="xtick_3">
     <g id="line2d_3">
      <g>
       <use xlink:href="#m7c5d218f2e" x="200.675683" y="307.584" style="stroke: #000000; stroke-width: 0.8"/>
      </g>
     </g>
     <g id="text_3">
      <!-- 2000 -->
      <g transform="translate(187.950683 322.182437)scale(0.1 -0.1)">
       <defs>
        <path id="DejaVuSans-32" d="M 1228 531 
L 3431 531 
L 3431 0 
L 469 0 
L 469 531 
Q 828 903 1448 1529 
Q 2069 2156 2228 2338 
Q 2531 2678 2651 2914 
Q 2772 3150 2772 3378 
Q 2772 3750 2511 3984 
Q 2250 4219 1831 4219 
Q 1534 4219 1204 4116 
Q 875 4013 500 3803 
L 500 4441 
Q 881 4594 1212 4672 
Q 1544 4750 1819 4750 
Q 2544 4750 2975 4387 
Q 3406 4025 3406 3419 
Q 3406 3131 3298 2873 
Q 3191 2616 2906 2266 
Q 2828 2175 2409 1742 
Q 1991 1309 1228 531 
z
" transform="scale(0.015625)"/>
       </defs>
       <use xlink:href="#DejaVuSans-32"/>
       <use xlink:href="#DejaVuSans-30" x="63.623047"/>
       <use xlink:href="#DejaVuSans-30" x="127.246094"/>
       <use xlink:href="#DejaVuSans-30" x="190.869141"/>
      </g>
     </g>
    </g>
    <g id="xtick_4">
     <g id="line2d_4">
      <g>
       <use xlink:href="#m7c5d218f2e" x="264.097161" y="307.584" style="stroke: #000000; stroke-width: 0.8"/>
      </g>
     </g>
     <g id="text_4">
      <!-- 3000 -->
      <g transform="translate(251.372161 322.182437)scale(0.1 -0.1)">
       <defs>
        <path id="DejaVuSans-33" d="M 2597 2516 
Q 3050 2419 3304 2112 
Q 3559 1806 3559 1356 
Q 3559 666 3084 287 
Q 2609 -91 1734 -91 
Q 1441 -91 1130 -33 
Q 819 25 488 141 
L 488 750 
Q 750 597 1062 519 
Q 1375 441 1716 441 
Q 2309 441 2620 675 
Q 2931 909 2931 1356 
Q 2931 1769 2642 2001 
Q 2353 2234 1838 2234 
L 1294 2234 
L 1294 2753 
L 1863 2753 
Q 2328 2753 2575 2939 
Q 2822 3125 2822 3475 
Q 2822 3834 2567 4026 
Q 2313 4219 1838 4219 
Q 1578 4219 1281 4162 
Q 984 4106 628 3988 
L 628 4550 
Q 988 4650 1302 4700 
Q 1616 4750 1894 4750 
Q 2613 4750 3031 4423 
Q 3450 4097 3450 3541 
Q 3450 3153 3228 2886 
Q 3006 2619 2597 2516 
z
" transform="scale(0.015625)"/>
       </defs>
       <use xlink:href="#DejaVuSans-33"/>
       <use xlink:href="#DejaVuSans-30" x="63.623047"/>
       <use xlink:href="#DejaVuSans-30" x="127.246094"/>
       <use xlink:href="#DejaVuSans-30" x="190.869141"/>
      </g>
     </g>
    </g>
    <g id="xtick_5">
     <g id="line2d_5">
      <g>
       <use xlink:href="#m7c5d218f2e" x="327.518639" y="307.584" style="stroke: #000000; stroke-width: 0.8"/>
      </g>
     </g>
     <g id="text_5">
      <!-- 4000 -->
      <g transform="translate(314.793639 322.182437)scale(0.1 -0.1)">
       <defs>
        <path id="DejaVuSans-34" d="M 2419 4116 
L 825 1625 
L 2419 1625 
L 2419 4116 
z
M 2253 4666 
L 3047 4666 
L 3047 1625 
L 3713 1625 
L 3713 1100 
L 3047 1100 
L 3047 0 
L 2419 0 
L 2419 1100 
L 313 1100 
L 313 1709 
L 2253 4666 
z
" transform="scale(0.015625)"/>
       </defs>
       <use xlink:href="#DejaVuSans-34"/>
       <use xlink:href="#DejaVuSans-30" x="63.623047"/>
       <use xlink:href="#DejaVuSans-30" x="127.246094"/>
       <use xlink:href="#DejaVuSans-30" x="190.869141"/>
      </g>
     </g>
    </g>
    <g id="xtick_6">
     <g id="line2d_6">
      <g>
       <use xlink:href="#m7c5d218f2e" x="390.940117" y="307.584" style="stroke: #000000; stroke-width: 0.8"/>
      </g>
     </g>
     <g id="text_6">
      <!-- 5000 -->
      <g transform="translate(378.215117 322.182437)scale(0.1 -0.1)">
       <defs>
        <path id="DejaVuSans-35" d="M 691 4666 
L 3169 4666 
L 3169 4134 
L 1269 4134 
L 1269 2991 
Q 1406 3038 1543 3061 
Q 1681 3084 1819 3084 
Q 2600 3084 3056 2656 
Q 3513 2228 3513 1497 
Q 3513 744 3044 326 
Q 2575 -91 1722 -91 
Q 1428 -91 1123 -41 
Q 819 9 494 109 
L 494 744 
Q 775 591 1075 516 
Q 1375 441 1709 441 
Q 2250 441 2565 725 
Q 2881 1009 2881 1497 
Q 2881 1984 2565 2268 
Q 2250 2553 1709 2553 
Q 1456 2553 1204 2497 
Q 953 2441 691 2322 
L 691 4666 
z
" transform="scale(0.015625)"/>
       </defs>
       <use xlink:href="#DejaVuSans-35"/>
       <use xlink:href="#DejaVuSans-30" x="63.623047"/>
       <use xlink:href="#DejaVuSans-30" x="127.246094"/>
       <use xlink:href="#DejaVuSans-30" x="190.869141"/>
      </g>
     </g>
    </g>
   </g>
   <g id="matplotlib.axis_2">
    <g id="ytick_1">
     <g id="line2d_7">
      <defs>
       <path id="mac0bca2359" d="M 0 0 
L -3.5 0 
" style="stroke: #000000; stroke-width: 0.8"/>
      </defs>
      <g>
       <use xlink:href="#mac0bca2359" x="57.6" y="269.110136" style="stroke: #000000; stroke-width: 0.8"/>
      </g>
     </g>
     <g id="text_7">
      <!-- 4000 -->
      <g transform="translate(25.15 272.909355)scale(0.1 -0.1)">
       <use xlink:href="#DejaVuSans-34"/>
       <use xlink:href="#DejaVuSans-30" x="63.623047"/>
       <use xlink:href="#DejaVuSans-30" x="127.246094"/>
       <use xlink:href="#DejaVuSans-30" x="190.869141"/>
      </g>
     </g>
    </g>
    <g id="ytick_2">
     <g id="line2d_8">
      <g>
       <use xlink:href="#mac0bca2359" x="57.6" y="228.124554" style="stroke: #000000; stroke-width: 0.8"/>
      </g>
     </g>
     <g id="text_8">
      <!-- 4050 -->
      <g transform="translate(25.15 231.923772)scale(0.1 -0.1)">
       <use xlink:href="#DejaVuSans-34"/>
       <use xlink:href="#DejaVuSans-30" x="63.623047"/>
       <use xlink:href="#DejaVuSans-35" x="127.246094"/>
       <use xlink:href="#DejaVuSans-30" x="190.869141"/>
      </g>
     </g>
    </g>
    <g id="ytick_3">
     <g id="line2d_9">
      <g>
       <use xlink:href="#mac0bca2359" x="57.6" y="187.138971" style="stroke: #000000; stroke-width: 0.8"/>
      </g>
     </g>
     <g id="text_9">
      <!-- 4100 -->
      <g transform="translate(25.15 190.93819)scale(0.1 -0.1)">
       <use xlink:href="#DejaVuSans-34"/>
       <use xlink:href="#DejaVuSans-31" x="63.623047"/>
       <use xlink:href="#DejaVuSans-30" x="127.246094"/>
       <use xlink:href="#DejaVuSans-30" x="190.869141"/>
      </g>
     </g>
    </g>
    <g id="ytick_4">
     <g id="line2d_10">
      <g>
       <use xlink:href="#mac0bca2359" x="57.6" y="146.153389" style="stroke: #000000; stroke-width: 0.8"/>
      </g>
     </g>
     <g id="text_10">
      <!-- 4150 -->
      <g transform="translate(25.15 149.952608)scale(0.1 -0.1)">
       <use xlink:href="#DejaVuSans-34"/>
       <use xlink:href="#DejaVuSans-31" x="63.623047"/>
       <use xlink:href="#DejaVuSans-35" x="127.246094"/>
       <use xlink:href="#DejaVuSans-30" x="190.869141"/>
      </g>
     </g>
    </g>
    <g id="ytick_5">
     <g id="line2d_11">
      <g>
       <use xlink:href="#mac0bca2359" x="57.6" y="105.167807" style="stroke: #000000; stroke-width: 0.8"/>
      </g>
     </g>
     <g id="text_11">
      <!-- 4200 -->
      <g transform="translate(25.15 108.967026)scale(0.1 -0.1)">
       <use xlink:href="#DejaVuSans-34"/>
       <use xlink:href="#DejaVuSans-32" x="63.623047"/>
       <use xlink:href="#DejaVuSans-30" x="127.246094"/>
       <use xlink:href="#DejaVuSans-30" x="190.869141"/>
      </g>
     </g>
    </g>
    <g id="ytick_6">
     <g id="line2d_12">
      <g>
       <use xlink:href="#mac0bca2359" x="57.6" y="64.182225" style="stroke: #000000; stroke-width: 0.8"/>
      </g>
     </g>
     <g id="text_12">
      <!-- 4250 -->
      <g transform="translate(25.15 67.981444)scale(0.1 -0.1)">
       <use xlink:href="#DejaVuSans-34"/>
       <use xlink:href="#DejaVuSans-32" x="63.623047"/>
       <use xlink:href="#DejaVuSans-35" x="127.246094"/>
       <use xlink:href="#DejaVuSans-30" x="190.869141"/>
      </g>
     </g>
    </g>
   </g>
   <g id="line2d_13">
    <path d="M 73.832727 127.236782 
L 73.896149 130.38955 
L 74.022992 127.76231 
L 74.086413 129.443759 
L 74.213256 127.342048 
L 74.276678 129.549025 
L 74.340099 129.023497 
L 74.466942 131.966134 
L 74.530364 129.969288 
L 74.657206 143.736281 
L 74.720628 140.688778 
L 74.847471 125.555332 
L 75.037735 143.841546 
L 75.101157 144.787336 
L 75.164578 147.414576 
L 75.228 146.783783 
L 75.481686 139.742988 
L 75.67195 154.665903 
L 75.735372 157.187877 
L 75.798793 156.13722 
L 75.862215 150.987607 
L 75.925636 152.879187 
L 75.989058 151.618 
L 76.052479 142.160097 
L 76.1159 143.000622 
L 76.179322 146.678917 
L 76.242743 142.370228 
L 76.306165 143.946412 
L 76.559851 161.917229 
L 76.686694 157.398007 
L 76.750115 163.283281 
L 76.813537 160.235779 
L 76.94038 150.672209 
L 77.194066 155.821824 
L 77.257487 156.452218 
L 77.320909 156.13722 
L 77.38433 153.614846 
L 77.447752 153.824978 
L 77.511173 155.191431 
L 77.574594 154.24524 
L 77.764859 157.503273 
L 77.891702 169.588817 
L 77.955123 168.432895 
L 78.018545 167.487105 
L 78.145388 176.734877 
L 78.272231 165.70039 
L 78.335652 175.47369 
L 78.399074 174.212903 
L 78.462495 170.639473 
L 78.589338 185.667653 
L 78.716181 172.426188 
L 78.779603 175.053428 
L 79.033288 158.133667 
L 79.413817 181.569095 
L 79.54066 164.649334 
L 79.604082 170.639473 
L 79.794346 151.092872 
L 79.857768 154.035108 
L 79.921189 153.614846 
L 80.048032 164.334337 
L 80.111454 162.863019 
L 80.301718 155.296296 
L 80.428561 153.299449 
L 80.555404 158.55433 
L 80.618825 157.608139 
L 80.682247 154.140374 
L 80.745668 155.92669 
L 80.872511 156.767614 
L 80.935933 156.557483 
L 80.999354 156.662348 
L 81.126197 164.96473 
L 81.25304 154.980899 
L 81.316462 159.604985 
L 81.443305 139.847853 
L 81.506726 144.997468 
L 81.570148 156.767614 
L 81.633569 155.821824 
L 81.696991 154.24524 
L 81.823833 167.697237 
L 81.887255 166.330783 
L 82.014098 150.251947 
L 82.140941 155.191431 
L 82.267784 148.780629 
L 82.331205 148.885895 
L 82.458048 157.398007 
L 82.52147 156.662348 
L 82.584891 157.713405 
L 82.648313 157.608139 
L 82.711734 155.506427 
L 82.838577 165.910521 
L 82.96542 155.296296 
L 83.028842 159.604985 
L 83.092263 158.659195 
L 83.219106 154.876033 
L 83.282527 154.455771 
L 83.40937 157.503273 
L 83.472792 153.720112 
L 83.536213 154.035108 
L 83.599635 156.662348 
L 83.726478 143.210752 
L 83.789899 147.204446 
L 83.916742 154.876033 
L 83.980164 153.404715 
L 84.043585 154.665903 
L 84.107007 159.289989 
L 84.23385 142.054831 
L 84.360693 146.573651 
L 84.487536 142.370228 
L 84.614379 152.56379 
L 84.6778 157.503273 
L 84.741221 155.506427 
L 84.804643 154.665903 
L 84.931486 158.343798 
L 85.12175 155.401562 
L 85.185172 152.248794 
L 85.248593 153.194584 
L 85.375436 157.398007 
L 85.565701 152.248794 
L 85.629122 152.143528 
L 85.692544 152.458925 
L 85.755965 150.672209 
L 85.882808 155.821824 
L 85.94623 154.876033 
L 86.073073 157.608139 
L 86.136494 156.031956 
L 86.199915 156.662348 
L 86.263337 157.81867 
L 86.326758 153.299449 
L 86.39018 156.767614 
L 86.453601 167.802102 
L 86.517023 166.436049 
L 86.643866 155.92669 
L 86.707287 159.50012 
L 86.770709 157.398007 
L 86.83413 156.662348 
L 86.960973 166.225918 
L 87.087816 149.72642 
L 87.151238 155.086165 
L 87.214659 158.238932 
L 87.278081 156.662348 
L 87.341502 157.293143 
L 87.404924 155.296296 
L 87.468345 156.13722 
L 87.531767 161.496566 
L 87.595188 159.710251 
L 87.658609 153.089319 
L 87.722031 153.299449 
L 87.785452 153.720112 
L 87.848874 151.618 
L 87.912295 153.614846 
L 88.165981 168.853158 
L 88.292824 154.140374 
L 88.356246 158.974592 
L 88.419667 167.697237 
L 88.483089 167.276574 
L 88.54651 166.120653 
L 88.673353 171.690529 
L 88.736775 176.734877 
L 88.800196 174.002372 
L 88.863618 172.216057 
L 88.99046 181.253698 
L 89.053882 179.047121 
L 89.180725 183.250545 
L 89.244146 181.043567 
L 89.370989 185.98305 
L 89.434411 182.199488 
L 89.561254 188.084762 
L 89.688097 180.833436 
L 89.751518 181.358963 
L 89.878361 165.384993 
L 90.005204 177.155139 
L 90.068626 153.404715 
L 90.132047 163.913675 
L 90.195469 168.012233 
L 90.25889 165.174862 
L 90.322312 167.171708 
L 90.512576 181.989357 
L 90.639419 172.951716 
L 90.766262 195.861616 
L 90.829683 193.969835 
L 90.893105 184.511732 
L 90.956526 189.661345 
L 91.019948 188.715156 
L 91.146791 169.168554 
L 91.273634 182.725016 
L 91.337055 180.518039 
L 91.400477 183.145679 
L 91.463898 181.569095 
L 91.52732 179.257252 
L 91.654163 184.931994 
L 91.907848 170.95487 
L 92.034691 184.827128 
L 92.098113 179.992911 
L 92.288377 167.697237 
L 92.41522 175.789087 
L 92.542063 183.250545 
L 92.668906 177.050274 
L 92.795749 182.41002 
L 92.986014 174.212903 
L 93.049435 164.96473 
L 93.112857 166.330783 
L 93.176278 169.063289 
L 93.2397 166.856312 
L 93.303121 168.222364 
L 93.366542 170.324476 
L 93.493385 166.64618 
L 93.620228 170.219211 
L 93.810493 154.140374 
L 93.873914 156.242086 
L 94.000757 153.930244 
L 94.064179 155.821824 
L 94.1276 154.770768 
L 94.191022 153.930244 
L 94.254443 154.560637 
L 94.317865 154.980899 
L 94.381286 152.984453 
L 94.508129 156.452218 
L 94.634972 144.892202 
L 94.698394 153.930244 
L 94.761815 150.041816 
L 94.825236 139.532457 
L 94.888658 141.949565 
L 94.952079 144.471939 
L 95.015501 139.953119 
L 95.078922 141.213906 
L 95.142344 143.000622 
L 95.269187 131.125209 
L 95.332608 132.911924 
L 95.39603 135.644429 
L 95.522873 127.236782 
L 95.586294 128.182972 
L 95.649716 128.603235 
L 95.713137 132.070999 
L 95.83998 146.889048 
L 95.966823 141.8447 
L 96.030245 145.522996 
L 96.093666 143.210752 
L 96.157087 138.376535 
L 96.220509 140.057985 
L 96.28393 142.580359 
L 96.410773 127.236782 
L 96.601038 102.435301 
L 96.727881 104.642279 
L 96.854724 102.015039 
L 96.981567 112.523998 
L 97.10841 100.859117 
L 97.171831 104.85241 
L 97.298674 93.082264 
L 97.55236 107.584915 
L 97.615781 105.483204 
L 97.679203 106.954522 
L 97.742624 114.520845 
L 97.806046 110.947815 
L 98.059732 96.340297 
L 98.123153 103.066095 
L 98.249996 142.370228 
L 98.376839 139.112194 
L 98.503682 142.895756 
L 98.567104 139.007329 
L 98.757368 156.977745 
L 98.82079 152.458925 
L 98.884211 152.248794 
L 98.947633 157.503273 
L 99.011054 154.24524 
L 99.137897 140.373381 
L 99.201318 144.682071 
L 99.26474 142.580359 
L 99.328161 141.424437 
L 99.391583 145.522996 
L 99.455004 144.682071 
L 99.518426 143.841546 
L 99.581847 145.522996 
L 99.70869 137.956273 
L 99.835533 144.156543 
L 99.898955 142.685224 
L 100.089219 153.930244 
L 100.342905 139.742988 
L 100.406327 139.007329 
L 100.533169 145.733127 
L 100.596591 144.471939 
L 100.660012 145.312464 
L 100.723434 145.102333 
L 100.786855 143.105887 
L 100.850277 143.526149 
L 100.913698 143.526149 
L 100.97712 140.583513 
L 101.040541 142.054831 
L 101.103963 146.153389 
L 101.167384 145.207599 
L 101.230806 142.895756 
L 101.294227 143.420884 
L 101.357649 144.366674 
L 101.611335 128.7081 
L 101.674756 130.494816 
L 101.738178 130.179418 
L 101.928442 132.911924 
L 102.055285 140.057985 
L 102.182128 129.759156 
L 102.245549 133.647583 
L 102.562657 117.25335 
L 102.626078 117.883744 
L 102.752921 127.026651 
L 102.879764 120.616249 
L 103.13345 131.125209 
L 103.196872 131.966134 
L 103.450557 144.787336 
L 103.5774 143.105887 
L 103.640822 143.316018 
L 103.767665 137.640876 
L 103.894508 150.987607 
L 104.021351 140.373381 
L 104.148194 154.455771 
L 104.211615 143.946412 
L 104.275037 144.261809 
L 104.40188 161.601831 
L 104.592144 144.892202 
L 104.718987 158.238932 
L 104.909251 143.946412 
L 104.972673 144.997468 
L 105.099516 156.13722 
L 105.162937 153.509581 
L 105.226359 154.035108 
L 105.28978 154.560637 
L 105.353202 153.614846 
L 105.480045 163.283281 
L 105.606888 152.248794 
L 105.733731 160.235779 
L 105.797152 158.55433 
L 105.923995 172.846451 
L 106.050838 164.334337 
L 106.11426 166.225918 
L 106.177681 166.64618 
L 106.55821 150.357213 
L 106.621631 150.777475 
L 106.748474 157.083011 
L 106.811896 154.140374 
L 106.938739 162.757754 
L 107.065582 152.56379 
L 107.319268 183.35581 
L 107.382689 180.72857 
L 107.509532 167.802102 
L 107.572954 169.27342 
L 107.699796 163.07315 
L 107.890061 183.460675 
L 107.953482 183.040413 
L 108.016904 183.670807 
L 108.143747 178.836589 
L 108.207168 182.199488 
L 108.334011 168.537761 
L 108.397433 171.585663 
L 108.460854 171.270266 
L 108.524276 163.913675 
L 108.651119 185.037259 
L 108.71454 184.721863 
L 108.777962 178.10093 
L 108.841383 180.413173 
L 108.904805 182.514885 
L 109.031648 166.961577 
L 109.221912 179.887646 
L 109.412176 172.846451 
L 109.475598 171.165001 
L 109.792705 182.935147 
L 109.856127 181.148833 
L 109.98297 166.436049 
L 110.109813 175.684222 
L 110.236656 162.967884 
L 110.363499 178.521593 
L 110.42692 174.212903 
L 110.490342 171.165001 
L 110.553763 180.203042 
L 110.617184 178.836589 
L 110.744027 162.547622 
L 110.807449 171.795795 
L 110.87087 170.219211 
L 110.934292 165.910521 
L 110.997713 166.64618 
L 111.061135 166.64618 
L 111.124556 164.96473 
L 111.251399 169.693682 
L 111.314821 169.483552 
L 111.505085 166.436049 
L 111.69535 169.588817 
L 111.758771 169.483552 
L 111.822193 167.487105 
L 111.885614 167.697237 
L 112.075878 171.165001 
L 112.202721 164.334337 
L 112.266143 170.429341 
L 112.392986 159.394855 
L 112.456407 165.70039 
L 112.519829 164.96473 
L 112.710093 148.570498 
L 112.773515 148.255101 
L 112.836936 154.770768 
L 112.900358 154.665903 
L 112.963779 152.038662 
L 113.090622 159.50012 
L 113.154044 151.933397 
L 113.217465 152.669056 
L 113.344308 169.063289 
L 113.471151 141.8447 
L 113.534572 144.997468 
L 113.661415 129.969288 
L 113.788258 113.575055 
L 113.915101 118.514538 
L 113.978523 115.992163 
L 114.105366 128.603235 
L 114.232209 140.057985 
L 114.359052 125.975995 
L 114.485895 164.439203 
L 114.612738 155.296296 
L 114.676159 157.083011 
L 114.803002 153.614846 
L 114.866423 157.608139 
L 114.929845 156.347352 
L 115.056688 154.24524 
L 115.310374 157.81867 
L 115.437217 140.373381 
L 115.500638 144.156543 
L 115.627481 155.506427 
L 115.690903 154.455771 
L 115.817746 161.391701 
L 115.881167 159.815117 
L 116.00801 152.879187 
L 116.071432 159.289989 
L 116.134853 156.87288 
L 116.198275 154.24524 
L 116.261696 162.12736 
L 116.325117 161.601831 
L 116.45196 152.143528 
L 116.515382 155.92669 
L 116.705646 145.312464 
L 116.769068 147.940104 
L 117.022754 159.710251 
L 117.149597 155.086165 
L 117.213018 156.242086 
L 117.403283 153.089319 
L 117.466704 147.940104 
L 117.530126 150.041816 
L 117.593547 156.767614 
L 117.656969 155.821824 
L 117.72039 154.876033 
L 117.847233 165.490259 
L 117.974076 151.828132 
L 118.037497 155.506427 
L 118.100919 164.859465 
L 118.16434 160.340644 
L 118.227762 152.984453 
L 118.291183 157.083011 
L 118.418026 160.44591 
L 118.544869 170.009079 
L 118.608291 163.808809 
L 118.671712 167.697237 
L 118.735134 171.375132 
L 118.798555 167.487105 
L 118.861977 167.907367 
L 118.925398 169.378686 
L 119.052241 163.913675 
L 119.179084 174.633165 
L 119.305927 162.547622 
L 119.369348 166.856312 
L 119.43277 166.120653 
L 119.559613 164.018941 
L 119.686456 153.194584 
L 119.813299 175.894353 
L 119.940142 166.120653 
L 120.003563 172.636319 
L 120.066985 171.165001 
L 120.130406 166.856312 
L 120.193828 171.795795 
L 120.257249 168.222364 
L 120.384092 151.933397 
L 120.637778 167.276574 
L 120.764621 155.716558 
L 120.828042 156.767614 
L 120.891464 157.398007 
L 121.018307 153.614846 
L 121.14515 157.083011 
L 121.208571 156.347352 
L 121.335414 157.608139 
L 121.462257 151.723266 
L 121.525679 152.458925 
L 121.5891 155.191431 
L 121.652522 154.24524 
L 121.779365 138.166404 
L 121.842786 138.376535 
L 121.906208 141.003775 
L 121.969629 140.373381 
L 122.03305 137.956273 
L 122.159893 143.736281 
L 122.223315 141.949565 
L 122.286736 141.8447 
L 122.350158 147.414576 
L 122.413579 145.312464 
L 122.477001 141.739434 
L 122.540422 163.913675 
L 122.603844 159.394855 
L 122.730687 165.069996 
L 122.85753 157.923536 
L 122.984373 171.690529 
L 123.047794 168.432895 
L 123.111216 168.32763 
L 123.30148 178.731724 
L 123.364902 180.518039 
L 123.428323 179.677514 
L 123.491744 174.948562 
L 123.618587 190.817068 
L 123.74543 174.843297 
L 123.808852 178.521593 
L 123.935695 190.606936 
L 123.999116 188.925686 
L 124.062538 180.413173 
L 124.125959 181.464229 
L 124.189381 184.616597 
L 124.252802 183.670807 
L 124.316224 185.142125 
L 124.443067 175.368825 
L 124.506488 184.406466 
L 124.56991 182.725016 
L 124.633331 182.725016 
L 124.696753 193.969835 
L 124.760174 187.349103 
L 124.823596 176.419481 
L 124.887017 184.406466 
L 125.077281 190.606936 
L 125.140703 184.406466 
L 125.204124 186.193181 
L 125.267546 196.492009 
L 125.330967 193.969835 
L 125.394389 191.763057 
L 125.45781 193.969835 
L 125.521232 189.871477 
L 125.584653 191.23753 
L 125.648075 191.342595 
L 125.711496 183.565941 
L 125.774918 186.718709 
L 125.838339 194.180167 
L 125.965182 177.260405 
L 126.028604 181.779226 
L 126.092025 184.196334 
L 126.218868 178.836589 
L 126.409132 186.613444 
L 126.535975 196.176813 
L 126.662818 182.514885 
L 126.72624 184.406466 
L 126.979926 192.288385 
L 127.043347 192.393451 
L 127.106769 193.024044 
L 127.233612 180.623305 
L 127.297033 183.565941 
L 127.360455 182.830282 
L 127.423876 178.416327 
L 127.487298 180.307908 
L 127.550719 186.92884 
L 127.740984 165.805255 
L 127.867826 167.487105 
L 127.931248 169.693682 
L 128.058091 158.449064 
L 128.121512 162.442356 
L 128.184934 164.649334 
L 128.311777 156.452218 
L 128.375198 157.187877 
L 128.43862 153.194584 
L 128.502041 155.716558 
L 128.692306 171.060136 
L 129.009413 166.225918 
L 129.072835 167.171708 
L 129.199677 165.595124 
L 129.32652 169.903814 
L 129.389942 168.432895 
L 129.453363 168.747892 
L 129.516785 170.639473 
L 129.580206 169.588817 
L 129.707049 173.161847 
L 129.833892 158.028802 
L 129.897314 164.123806 
L 129.960735 170.429341 
L 130.087578 156.977745 
L 130.151 158.343798 
L 130.341264 149.306157 
L 130.404686 145.312464 
L 130.468107 147.940104 
L 130.531529 151.933397 
L 130.59495 147.729573 
L 130.721793 196.176813 
L 130.848636 184.931994 
L 130.912057 189.450814 
L 131.0389 207.2113 
L 131.102322 206.370576 
L 131.229165 196.281879 
L 131.356008 211.730321 
L 131.419429 208.052225 
L 131.546272 198.278725 
L 131.609694 198.909118 
L 131.673115 194.390297 
L 131.736537 194.915626 
L 131.926801 203.848401 
L 131.990223 202.797545 
L 132.053644 195.441154 
L 132.117065 198.383791 
L 132.180487 204.373929 
L 132.30733 194.705494 
L 132.370751 197.227668 
L 132.434173 194.390297 
L 132.561016 182.199488 
L 132.624437 184.09147 
L 132.687859 183.670807 
L 132.75128 181.358963 
L 132.814702 181.779226 
L 132.878123 182.935147 
L 133.004966 178.731724 
L 133.131809 192.288385 
L 133.258652 179.992911 
L 133.322074 182.304754 
L 133.385495 183.145679 
L 133.448917 180.097776 
L 133.512338 180.72857 
L 133.575759 181.67436 
L 133.702602 169.063289 
L 133.766024 169.903814 
L 133.956288 174.738031 
L 134.01971 172.951716 
L 134.083131 165.910521 
L 134.146553 166.856312 
L 134.209974 165.595124 
L 134.336817 147.940104 
L 134.400239 151.723266 
L 134.527082 139.532457 
L 134.590503 140.688778 
L 134.653925 143.000622 
L 134.780768 139.637723 
L 134.971032 143.000622 
L 135.034453 144.787336 
L 135.097875 144.471939 
L 135.224718 139.21746 
L 135.478404 143.631015 
L 135.541825 144.261809 
L 135.668668 136.59022 
L 135.73209 138.586666 
L 135.795511 131.440606 
L 135.858933 131.966134 
L 135.922354 141.529303 
L 135.985776 136.274823 
L 136.049197 126.816519 
L 136.112619 127.342048 
L 136.239462 129.023497 
L 136.429726 132.070999 
L 136.556569 126.186126 
L 136.683412 144.892202 
L 136.810255 134.488108 
L 136.873676 143.841546 
L 136.937098 141.949565 
L 137.063941 131.440606 
L 137.127362 132.491662 
L 137.190784 127.342048 
L 137.254205 129.233629 
L 137.317627 134.698639 
L 137.44447 124.399411 
L 137.507891 127.657444 
L 137.571313 131.966134 
L 137.634734 129.864422 
L 137.88842 107.059388 
L 138.015263 116.517691 
L 138.078684 110.002024 
L 138.142106 112.103736 
L 138.205527 117.989009 
L 138.33237 110.632418 
L 138.395792 117.778879 
L 138.459213 113.575055 
L 138.586056 102.015039 
L 138.712899 105.7982 
L 138.839742 131.125209 
L 138.903164 133.437452 
L 139.030007 123.033358 
L 139.093428 131.756003 
L 139.15685 131.230475 
L 139.220271 128.393104 
L 139.283692 130.38955 
L 139.347114 132.070999 
L 139.410535 128.497969 
L 139.537378 137.430745 
L 139.664221 113.785185 
L 139.727643 119.039666 
L 139.791064 129.969288 
L 139.854486 128.497969 
L 139.917907 127.552179 
L 139.981329 130.074553 
L 140.108172 126.08086 
L 140.235015 133.227321 
L 140.298436 129.023497 
L 140.361858 131.545871 
L 140.488701 139.532457 
L 140.552122 140.268115 
L 140.615544 144.471939 
L 140.678965 143.946412 
L 140.805808 135.644429 
L 140.932651 118.9348 
L 140.996072 125.030205 
L 141.059494 122.928093 
L 141.122915 123.24349 
L 141.249758 133.01679 
L 141.31318 130.810213 
L 141.376601 131.650737 
L 141.440023 131.125209 
L 141.566866 125.975995 
L 141.630287 127.342048 
L 141.693709 131.756003 
L 142.010816 106.954522 
L 142.327923 95.183975 
L 142.454766 103.170961 
L 142.518188 99.493065 
L 142.581609 98.967537 
L 142.645031 101.27938 
L 142.771874 93.713057 
L 142.835295 98.021747 
L 142.898717 94.868979 
L 143.088981 90.980552 
L 143.215824 88.458177 
L 143.279246 88.143181 
L 143.46951 93.292394 
L 143.596353 106.428994 
L 143.659774 105.903466 
L 143.786617 100.123458 
L 143.976882 102.645433 
L 144.103725 102.120305 
L 144.230568 106.428994 
L 144.293989 98.862271 
L 144.357411 102.120305 
L 144.484254 116.833088 
L 144.611097 101.594777 
L 144.674518 104.222016 
L 144.73794 102.750699 
L 144.864783 103.696489 
L 144.928204 101.910174 
L 145.055047 111.157946 
L 145.18189 100.963983 
L 145.308733 106.323728 
L 145.562419 94.133319 
L 145.689262 105.903466 
L 145.816105 91.926342 
L 145.879526 94.238185 
L 146.006369 90.560289 
L 146.133212 107.164653 
L 146.196634 96.865425 
L 146.260055 96.970691 
L 146.323477 105.903466 
L 146.386898 102.540567 
L 146.450319 100.228324 
L 146.513741 105.062541 
L 146.640584 86.776728 
L 146.704005 88.353312 
L 146.767427 90.980552 
L 146.830848 90.244893 
L 146.89427 130.915078 
L 146.957691 126.501523 
L 147.084534 124.819673 
L 147.147956 125.030205 
L 147.274799 122.717961 
L 147.401642 129.653891 
L 147.465063 129.023497 
L 147.591906 130.38955 
L 147.782171 138.586666 
L 147.909013 163.703543 
L 147.972435 156.767614 
L 148.035856 145.627861 
L 148.099278 147.834839 
L 148.162699 147.09918 
L 148.226121 138.166404 
L 148.289542 138.797198 
L 148.479807 167.066442 
L 148.543228 168.117499 
L 148.670071 160.340644 
L 148.733493 164.544468 
L 148.796914 170.009079 
L 148.923757 152.879187 
L 148.987179 155.191431 
L 149.0506 157.083011 
L 149.114022 154.035108 
L 149.304286 170.219211 
L 149.431129 167.276574 
L 149.49455 168.537761 
L 149.621393 155.821824 
L 149.748236 172.636319 
L 149.811658 168.747892 
L 149.938501 154.560637 
L 150.065344 168.853158 
L 150.128765 168.32763 
L 150.31903 164.123806 
L 150.445873 172.320923 
L 150.509294 159.920382 
L 150.572716 160.235779 
L 150.636137 182.304754 
L 150.699559 181.884492 
L 150.889823 135.433899 
L 150.953244 134.277977 
L 151.333773 84.780282 
L 151.397195 87.512387 
L 151.524038 74.79645 
L 151.967988 96.340297 
L 152.094831 89.088971 
L 152.285095 111.788739 
L 152.348517 110.422286 
L 152.411938 101.069249 
L 152.47536 103.381091 
L 152.665624 118.093875 
L 152.792467 101.384646 
L 152.91931 115.676766 
L 153.046153 104.326882 
L 153.109575 106.639125 
L 153.299839 101.069249 
L 153.426682 119.985856 
L 153.490104 118.724669 
L 153.553525 113.259658 
L 153.680368 117.778879 
L 153.807211 99.59793 
L 153.934054 117.883744 
L 153.997475 99.282533 
L 154.060897 102.330436 
L 154.18774 119.670459 
L 154.314583 113.785185 
L 154.378004 113.785185 
L 154.504847 134.698639 
L 154.568269 131.230475 
L 154.63169 137.851007 
L 154.758533 166.120653 
L 154.885376 149.621554 
L 154.948798 155.191431 
L 155.012219 143.736281 
L 155.07564 145.627861 
L 155.139062 145.837992 
L 155.202483 144.997468 
L 155.329326 137.220614 
L 155.392748 137.746141 
L 155.456169 139.21746 
L 155.583012 137.640876 
L 155.646434 139.322325 
L 155.709855 138.166404 
L 155.773277 139.21746 
L 155.836698 144.892202 
L 155.90012 142.054831 
L 155.963541 133.96298 
L 156.026963 136.064692 
L 156.153806 144.261809 
L 156.217227 144.577205 
L 156.280649 146.994314 
L 156.34407 145.41773 
L 156.407492 143.631015 
L 156.470913 145.102333 
L 156.534334 144.682071 
L 156.661177 136.905216 
L 156.914863 153.930244 
L 156.978285 151.828132 
L 157.041706 143.736281 
L 157.105128 144.787336 
L 157.168549 146.048123 
L 157.295392 139.007329 
L 157.358814 141.739434 
L 157.485657 132.386396 
L 157.802764 155.821824 
L 157.866186 152.774321 
L 157.929607 156.977745 
L 157.993028 156.87288 
L 158.119871 143.000622 
L 158.183293 143.631015 
L 158.246714 143.841546 
L 158.5004 157.923536 
L 158.627243 154.035108 
L 158.754086 163.808809 
L 158.817508 161.601831 
L 158.944351 168.747892 
L 159.007772 167.802102 
L 159.134615 169.27342 
L 159.198037 167.38184 
L 159.32488 169.27342 
L 159.388301 165.70039 
L 159.515144 175.999218 
L 159.578565 172.531453 
L 159.641987 172.110791 
L 159.76883 185.98305 
L 159.895673 178.311461 
L 159.959094 181.569095 
L 160.022516 180.938701 
L 160.21278 166.856312 
L 160.529888 191.868123 
L 160.593309 188.190028 
L 160.720152 178.10093 
L 160.783573 182.094623 
L 160.973838 164.544468 
L 161.037259 167.591971 
L 161.164102 174.843297 
L 161.290945 189.450814 
L 161.417788 182.725016 
L 161.48121 184.196334 
L 161.544631 183.460675 
L 161.608053 179.572248 
L 161.734896 195.861616 
L 161.798317 189.135818 
L 161.861739 180.413173 
L 161.92516 182.41002 
L 161.988582 183.776072 
L 162.052003 181.989357 
L 162.115425 182.094623 
L 162.178846 182.830282 
L 162.305689 193.339442 
L 162.432532 188.294893 
L 162.495953 193.864769 
L 162.622796 179.677514 
L 162.686218 185.667653 
L 162.749639 195.861616 
L 162.813061 192.603782 
L 162.876482 187.769365 
L 163.003325 194.705494 
L 163.066747 193.024044 
L 163.19359 154.770768 
L 163.320433 159.184723 
L 163.447276 151.933397 
L 163.510697 153.194584 
L 163.764383 167.591971 
L 163.827804 166.961577 
L 163.891226 164.859465 
L 163.954647 166.330783 
L 164.018069 169.378686 
L 164.08149 167.802102 
L 164.208333 163.493413 
L 164.271755 164.018941 
L 164.398598 156.13722 
L 164.462019 157.083011 
L 164.525441 158.764461 
L 164.652284 154.876033 
L 164.715705 158.449064 
L 164.779127 157.923536 
L 164.90597 153.930244 
L 165.032813 154.560637 
L 165.159655 159.50012 
L 165.223077 158.659195 
L 165.34992 157.923536 
L 165.540184 153.509581 
L 165.603606 153.404715 
L 165.730449 154.140374 
L 165.857292 157.923536 
L 165.920713 157.083011 
L 166.047556 162.967884 
L 166.110978 159.710251 
L 166.174399 160.971438 
L 166.237821 161.391701 
L 166.364664 151.407869 
L 166.554928 160.760906 
L 166.745192 156.347352 
L 166.935457 153.509581 
L 166.998878 154.035108 
L 167.0623 155.611693 
L 167.125721 155.401562 
L 167.252564 156.031956 
L 167.379407 155.191431 
L 167.442829 157.083011 
L 167.50625 155.92669 
L 167.569672 157.503273 
L 167.696515 165.384993 
L 167.759936 158.028802 
L 167.823358 160.130514 
L 167.886779 167.697237 
L 167.950201 162.442356 
L 168.013622 155.506427 
L 168.140465 169.903814 
L 168.267308 151.197738 
L 168.330729 153.509581 
L 168.394151 162.337491 
L 168.457572 162.232225 
L 168.647837 154.350506 
L 168.711258 159.289989 
L 168.77468 158.55433 
L 168.901523 135.013636 
L 169.028366 143.210752 
L 169.091787 141.003775 
L 169.282052 164.334337 
L 169.345473 159.289989 
L 169.408894 153.824978 
L 169.472316 154.770768 
L 169.535737 157.608139 
L 169.599159 156.662348 
L 169.66258 154.350506 
L 169.789423 162.652888 
L 169.979688 154.665903 
L 170.360217 167.802102 
L 170.423638 165.70039 
L 170.550481 173.056581 
L 170.613903 169.378686 
L 170.677324 171.270266 
L 170.740746 176.840143 
L 170.804167 173.477244 
L 170.867588 167.802102 
L 170.93101 169.063289 
L 170.994431 167.907367 
L 171.057853 163.598678 
L 171.184696 171.375132 
L 171.248117 153.089319 
L 171.311539 161.811963 
L 171.37496 166.225918 
L 171.501803 161.076304 
L 171.628646 169.063289 
L 171.818911 164.018941 
L 171.882332 168.537761 
L 172.009175 184.406466 
L 172.072597 178.731724 
L 172.136018 179.677514 
L 172.19944 177.680668 
L 172.326282 156.557483 
L 172.453125 170.324476 
L 172.516547 168.958023 
L 172.579968 169.903814 
L 172.706811 167.38184 
L 172.960497 176.419481 
L 173.08734 163.178016 
L 173.150762 167.171708 
L 173.214183 169.588817 
L 173.467869 152.984453 
L 173.531291 155.92669 
L 173.721555 166.961577 
L 173.784976 166.64618 
L 173.848398 164.859465 
L 173.975241 170.744739 
L 174.038662 169.903814 
L 174.228927 154.035108 
L 174.292348 154.455771 
L 174.482613 156.87288 
L 174.672877 154.035108 
L 174.736299 155.92669 
L 174.79972 155.821824 
L 174.926563 141.739434 
L 174.989985 142.054831 
L 175.053406 145.733127 
L 175.116828 143.210752 
L 175.180249 142.685224 
L 175.307092 154.770768 
L 175.433935 147.09918 
L 175.624199 153.824978 
L 175.687621 154.665903 
L 175.814464 144.156543 
L 175.941307 155.191431 
L 176.06815 141.8447 
L 176.258414 149.200891 
L 176.385257 143.105887 
L 176.448679 144.261809 
L 176.5121 144.366674 
L 176.765786 139.953119 
L 176.829207 141.10904 
L 177.019472 157.398007 
L 177.082893 152.038662 
L 177.146315 154.035108 
L 177.209736 158.238932 
L 177.273158 156.87288 
L 177.336579 154.876033 
L 177.400001 154.980899 
L 177.526844 158.343798 
L 177.717108 143.526149 
L 177.78053 143.946412 
L 177.970794 141.8447 
L 178.034215 142.370228 
L 178.161058 145.943258 
L 178.22448 145.627861 
L 178.287901 144.156543 
L 178.478166 127.76231 
L 178.541587 128.813366 
L 178.605009 130.810213 
L 178.731852 143.210752 
L 178.795273 140.688778 
L 178.858695 139.322325 
L 178.922116 144.471939 
L 178.985538 143.631015 
L 179.175802 126.186126 
L 179.239224 125.660598 
L 179.302645 127.867576 
L 179.366067 154.876033 
L 179.429488 153.930244 
L 179.556331 152.56379 
L 179.619752 157.083011 
L 179.683174 156.662348 
L 179.746595 151.092872 
L 179.810017 154.770768 
L 179.93686 166.540915 
L 180.063703 155.086165 
L 180.127124 158.659195 
L 180.190546 156.347352 
L 180.253967 151.092872 
L 180.317389 153.720112 
L 180.38081 154.24524 
L 180.507653 144.366674 
L 180.571075 148.04497 
L 180.634496 145.312464 
L 180.697918 143.631015 
L 180.761339 145.522996 
L 180.888182 137.115348 
L 180.951603 140.16325 
L 181.078446 143.736281 
L 181.268711 155.191431 
L 181.458975 152.984453 
L 181.585818 146.994314 
L 181.776083 155.296296 
L 181.839504 154.770768 
L 182.029769 150.672209 
L 182.156612 139.953119 
L 182.283455 147.30931 
L 182.346876 146.363521 
L 182.600562 139.637723 
L 182.727405 127.76231 
L 182.790826 128.077706 
L 182.854248 126.711654 
L 182.917669 127.342048 
L 182.981091 129.128763 
L 183.044512 128.287838 
L 183.107934 128.603235 
L 183.234777 131.440606 
L 183.36162 128.603235 
L 183.425041 130.179418 
L 183.488463 129.338894 
L 183.742149 119.670459 
L 183.868991 130.179418 
L 183.932413 124.819673 
L 183.995834 117.463482 
L 184.24952 138.481801 
L 184.312942 137.746141 
L 184.376363 135.433899 
L 184.630049 155.92669 
L 184.693471 152.879187 
L 184.883735 143.736281 
L 184.947157 146.048123 
L 185.010578 155.716558 
L 185.074 154.980899 
L 185.137421 143.210752 
L 185.200842 144.471939 
L 185.264264 156.242086 
L 185.327685 155.401562 
L 185.391107 150.041816 
L 185.454528 151.933397 
L 185.581371 166.436049 
L 185.644793 163.283281 
L 185.708214 154.140374 
L 185.771636 154.980899 
L 185.835057 160.340644 
L 185.898479 159.184723 
L 186.088743 153.404715 
L 186.215586 151.513134 
L 186.342429 154.24524 
L 186.405851 153.509581 
L 186.596115 154.876033 
L 186.659536 158.238932 
L 186.722958 158.133667 
L 186.786379 154.770768 
L 186.849801 156.977745 
L 186.913222 158.449064 
L 186.976644 155.191431 
L 187.103487 164.544468 
L 187.23033 152.984453 
L 187.293751 156.767614 
L 187.357173 158.974592 
L 187.547437 154.876033 
L 187.67428 156.13722 
L 187.737702 153.824978 
L 187.801123 154.560637 
L 188.054809 160.340644 
L 188.245073 153.930244 
L 188.562181 171.375132 
L 188.752445 161.811963 
L 188.815867 151.933397 
L 188.879288 155.296296 
L 189.069553 170.009079 
L 189.132974 174.948562 
L 189.196396 172.216057 
L 189.259817 167.276574 
L 189.323239 168.32763 
L 189.38666 170.114345 
L 189.703767 152.879187 
L 189.83061 178.206196 
L 189.894032 175.053428 
L 189.957453 167.591971 
L 190.020875 169.483552 
L 190.084296 171.585663 
L 190.211139 166.961577 
L 190.337982 180.938701 
L 190.401404 178.206196 
L 190.591668 167.171708 
L 190.65509 166.225918 
L 190.972197 180.518039 
L 191.035618 180.203042 
L 191.225883 166.540915 
L 191.289304 169.693682 
L 191.352726 167.697237 
L 191.416147 165.910521 
L 191.796676 183.040413 
L 191.923519 167.591971 
L 192.050362 184.3016 
L 192.177205 170.850004 
L 192.240627 171.90066 
L 192.367469 166.540915 
L 192.494312 181.989357 
L 192.621155 163.808809 
L 192.684577 166.015787 
L 192.747998 167.38184 
L 192.81142 165.384993 
L 192.874841 168.537761 
L 192.938263 167.38184 
L 193.001684 163.283281 
L 193.128527 170.639473 
L 193.191949 170.219211 
L 193.25537 170.114345 
L 193.382213 156.242086 
L 193.509056 170.324476 
L 193.762742 154.350506 
L 193.826163 154.665903 
L 193.953006 149.831685 
L 194.016428 153.509581 
L 194.079849 152.774321 
L 194.143271 149.93655 
L 194.206692 151.723266 
L 194.270114 155.611693 
L 194.333535 153.720112 
L 194.396957 152.984453 
L 194.5238 163.07315 
L 194.650643 143.526149 
L 194.714064 144.787336 
L 194.777486 145.837992 
L 194.96775 127.657444 
L 195.031172 128.7081 
L 195.158015 127.236782 
L 195.4117 136.59022 
L 195.538543 123.033358 
L 195.665386 143.841546 
L 195.728808 139.112194 
L 195.792229 139.637723 
L 195.919072 142.895756 
L 195.982494 142.370228 
L 196.109337 136.695086 
L 196.23618 146.048123 
L 196.363023 138.797198 
L 196.426444 145.41773 
L 196.489866 144.261809 
L 196.553287 138.797198 
L 196.616709 141.10904 
L 196.870394 155.296296 
L 196.933816 150.777475 
L 196.997237 150.567345 
L 197.12408 156.767614 
L 197.250923 152.248794 
L 197.504609 156.767614 
L 197.631452 151.303004 
L 197.758295 155.191431 
L 197.885138 145.41773 
L 198.075403 157.923536 
L 198.138824 158.133667 
L 198.202245 156.662348 
L 198.39251 179.467383 
L 198.519353 167.38184 
L 198.582774 170.219211 
L 198.646196 168.32763 
L 198.709617 165.069996 
L 199.090146 185.142125 
L 199.216989 174.843297 
L 199.343832 182.304754 
L 199.470675 185.877784 
L 199.534097 180.833436 
L 199.597518 184.827128 
L 199.660939 197.648131 
L 199.724361 194.074901 
L 199.787782 185.457522 
L 199.914625 202.692479 
L 200.041468 193.234176 
L 200.231733 203.953666 
L 200.358576 214.147429 
L 200.485419 201.116096 
L 200.612262 209.523343 
L 200.739105 199.855108 
L 200.929369 206.896103 
L 201.119633 214.042364 
L 201.183055 214.567692 
L 201.309898 204.268864 
L 201.373319 212.150783 
L 201.436741 209.103081 
L 201.563584 193.759704 
L 201.627005 193.969835 
L 201.753848 204.268864 
L 201.81727 203.848401 
L 201.880691 202.902611 
L 201.944113 206.26551 
L 202.134377 195.861616 
L 202.26122 196.281879 
L 202.388063 194.390297 
L 202.70517 181.253698 
L 202.768592 180.413173 
L 202.895435 190.922333 
L 203.022278 181.148833 
L 203.085699 184.406466 
L 203.149121 185.562787 
L 203.212542 180.203042 
L 203.275964 181.779226 
L 203.402807 198.278725 
L 203.466228 193.549573 
L 203.52965 195.546219 
L 203.593071 200.170305 
L 203.656493 196.912472 
L 203.783336 171.060136 
L 203.910178 186.508578 
L 204.037021 165.490259 
L 204.100443 182.725016 
L 204.163864 179.151986 
L 204.227286 163.808809 
L 204.290707 170.219211 
L 204.354129 177.785934 
L 204.41755 175.578956 
L 204.544393 179.887646 
L 204.607815 177.260405 
L 204.671236 179.887646 
L 204.734658 179.572248 
L 204.798079 176.840143 
L 204.861501 179.047121 
L 204.924922 177.996064 
L 205.051765 167.276574 
L 205.115187 178.416327 
L 205.178608 177.996064 
L 205.24203 166.540915 
L 205.305451 166.961577 
L 205.368872 172.005926 
L 205.495715 160.656042 
L 205.559137 163.808809 
L 205.622558 155.086165 
L 205.68598 156.452218 
L 205.749401 165.490259 
L 205.812823 160.130514 
L 205.876244 156.87288 
L 205.939666 164.649334 
L 206.003087 160.235779 
L 206.066509 151.618 
L 206.12993 155.821824 
L 206.193352 157.608139 
L 206.320195 151.618 
L 206.383616 152.669056 
L 206.573881 161.811963 
L 206.637302 159.710251 
L 206.764145 149.096026 
L 206.827566 150.882341 
L 206.954409 141.10904 
L 207.017831 144.682071 
L 207.081252 152.353659 
L 207.144674 151.197738 
L 207.208095 143.736281 
L 207.271517 144.366674 
L 207.334938 146.363521 
L 207.39836 140.16325 
L 207.461781 141.529303 
L 207.525203 145.943258 
L 207.652046 138.27167 
L 207.715467 141.003775 
L 207.778889 146.678917 
L 207.84231 146.258655 
L 207.969153 138.902063 
L 208.159417 145.41773 
L 208.28626 144.787336 
L 208.413103 138.376535 
L 208.476525 139.637723 
L 208.539946 143.841546 
L 208.603368 140.793644 
L 208.666789 140.373381 
L 208.730211 145.522996 
L 208.857054 126.08086 
L 208.920475 130.284684 
L 208.983897 134.593374 
L 209.11074 128.918231 
L 209.174161 133.437452 
L 209.237583 131.650737 
L 209.301004 131.440606 
L 209.364426 131.966134 
L 209.491269 123.138224 
L 209.618111 132.701793 
L 209.681533 130.074553 
L 209.744954 129.443759 
L 209.871797 146.048123 
L 209.935219 141.424437 
L 210.062062 127.026651 
L 210.188905 139.112194 
L 210.315748 127.236782 
L 210.442591 138.691932 
L 210.569434 130.704947 
L 210.696277 142.895756 
L 210.759698 140.057985 
L 210.886541 146.468786 
L 211.013384 141.529303 
L 211.140227 146.468786 
L 211.26707 137.536011 
L 211.330491 142.264962 
L 211.393913 139.427591 
L 211.457334 139.007329 
L 211.520756 145.102333 
L 211.647599 132.596528 
L 211.774442 151.197738 
L 211.901285 267.638817 
L 212.028128 265.747237 
L 212.154971 278.673505 
L 212.218392 278.147977 
L 212.281814 278.358108 
L 212.345235 279.303899 
L 212.408657 275.310606 
L 212.472078 275.520738 
L 212.598921 295.488 
L 212.725764 278.463174 
L 212.789185 281.510876 
L 212.916028 270.266057 
L 213.106293 278.883636 
L 213.169714 277.622449 
L 213.233136 272.473035 
L 213.296557 276.256397 
L 213.359979 282.666998 
L 213.4234 278.778571 
L 213.550243 275.310606 
L 213.677086 263.855656 
L 213.803929 279.724361 
L 213.930772 268.479542 
L 214.057615 270.266057 
L 214.121036 269.425332 
L 214.247879 265.011578 
L 214.311301 268.900004 
L 214.374722 266.482896 
L 214.438144 257.129658 
L 214.501565 257.55012 
L 214.628408 265.43204 
L 214.69183 263.750391 
L 214.882094 242.942402 
L 215.072359 254.817815 
L 215.262623 241.260953 
L 215.326045 242.416875 
L 215.389466 241.57615 
L 215.57973 220.242634 
L 215.643152 221.713952 
L 215.769995 224.131061 
L 215.896838 232.74864 
L 216.023681 225.392248 
L 216.150524 235.060483 
L 216.213945 233.484299 
L 216.277367 236.531802 
L 216.40421 229.070344 
L 216.531053 239.894701 
L 216.657896 226.863367 
L 216.721317 228.755147 
L 216.84816 224.341192 
L 216.911581 224.446457 
L 217.038424 219.506975 
L 217.101846 220.137569 
L 217.165267 220.452965 
L 217.228689 219.506975 
L 217.355532 212.571046 
L 217.418953 212.781176 
L 217.482375 211.835386 
L 217.609218 215.09322 
L 217.672639 213.516836 
L 217.736061 213.201639 
L 217.799482 215.408417 
L 217.862904 213.516836 
L 217.989747 204.794391 
L 218.11659 220.452965 
L 218.433697 192.498717 
L 218.56054 194.180167 
L 218.623961 193.759704 
L 218.687383 192.91898 
L 218.877647 202.377283 
L 219.067912 178.206196 
L 219.194755 180.413173 
L 219.258176 184.09147 
L 219.321598 196.176813 
L 219.385019 195.546219 
L 219.448441 196.176813 
L 219.511862 206.160444 
L 219.575284 201.641624 
L 219.765548 186.193181 
L 219.828969 183.670807 
L 219.892391 188.820421 
L 220.019234 150.146682 
L 220.146077 140.268115 
L 220.209498 143.316018 
L 220.336341 139.847853 
L 220.526606 147.834839 
L 220.653449 141.424437 
L 220.71687 144.051677 
L 220.843713 128.182972 
L 220.907135 135.644429 
L 220.970556 145.207599 
L 221.097399 131.33534 
L 221.224242 142.264962 
L 221.351085 137.220614 
L 221.477928 122.297699 
L 221.604771 136.169557 
L 221.668192 129.759156 
L 221.731614 130.284684 
L 221.795035 133.332187 
L 221.921878 129.128763 
L 221.9853 131.230475 
L 222.112143 125.240336 
L 222.175564 128.393104 
L 222.302407 117.568747 
L 222.365829 121.351908 
L 222.42925 128.287838 
L 222.492672 124.084414 
L 222.556093 120.406119 
L 222.619514 127.552179 
L 222.682936 125.660598 
L 222.746357 114.100583 
L 222.809779 120.090721 
L 222.8732 127.236782 
L 223.000043 110.947815 
L 223.063465 118.304407 
L 223.126886 116.727822 
L 223.253729 105.167807 
L 223.317151 104.957676 
L 223.380572 97.916481 
L 223.443994 98.336743 
L 223.507415 104.747545 
L 223.570837 100.648987 
L 223.634258 95.814769 
L 223.761101 107.269519 
L 223.824523 104.326882 
L 223.887944 105.483204 
L 224.014787 118.829534 
L 224.331894 88.458177 
L 224.458737 92.241739 
L 224.58558 88.87884 
L 224.712423 89.82463 
L 224.839266 98.021747 
L 224.966109 92.977398 
L 225.219795 103.276226 
L 225.283217 103.066095 
L 225.346638 100.648987 
L 225.473481 106.53386 
L 225.536902 104.747545 
L 225.663745 110.212156 
L 225.85401 100.123458 
L 225.980853 88.983706 
L 226.107696 100.438855 
L 226.171117 96.655293 
L 226.29796 87.722518 
L 226.361382 91.821076 
L 226.424803 90.980552 
L 226.488225 91.190682 
L 226.678489 75.216712 
L 226.741911 79.525401 
L 226.805332 81.627514 
L 226.868753 80.891855 
L 226.995596 77.633821 
L 227.122439 65.96894 
L 227.249282 80.366326 
L 227.376125 66.704599 
L 227.439547 68.280783 
L 227.502968 65.758409 
L 227.56639 67.545124 
L 227.629811 75.952372 
L 227.693233 74.270922 
L 227.883497 55.669711 
L 227.946919 53.568 
L 228.01034 59.03261 
L 228.137183 120.195987 
L 228.264026 130.810213 
L 228.390869 120.195987 
L 228.581133 130.704947 
L 228.644555 131.020343 
L 228.707976 130.600081 
L 228.771398 131.860868 
L 228.834819 131.230475 
L 228.961662 127.131917 
L 229.088505 142.79049 
L 229.151927 141.949565 
L 229.405613 117.148084 
L 229.72272 141.424437 
L 229.786141 141.634569 
L 229.912984 139.112194 
L 229.976406 139.532457 
L 230.230092 128.813366 
L 230.293513 128.287838 
L 230.420356 146.994314 
L 230.483778 143.105887 
L 230.547199 141.634569 
L 230.674042 146.783783 
L 230.800885 139.953119 
L 230.99115 156.767614 
L 231.054571 154.035108 
L 231.117993 154.665903 
L 231.244835 149.621554 
L 231.371678 156.13722 
L 231.498521 152.353659 
L 231.625364 155.821824 
L 231.752207 148.99076 
L 231.815629 149.621554 
L 231.87905 151.723266 
L 232.005893 130.179418 
L 232.069315 132.491662 
L 232.132736 133.647583 
L 232.259579 123.663752 
L 232.323001 124.714807 
L 232.449844 102.015039 
L 232.513265 103.591623 
L 232.576686 106.008732 
L 232.640108 102.120305 
L 232.703529 102.22517 
L 232.766951 106.008732 
L 232.830372 105.377938 
L 232.893794 102.22517 
L 232.957215 102.750699 
L 233.084058 117.673613 
L 233.14748 114.310714 
L 233.210901 106.53386 
L 233.274323 108.110444 
L 233.401166 119.88059 
L 233.654852 115.676766 
L 233.781695 129.549025 
L 233.971959 112.209002 
L 234.03538 120.931646 
L 234.098802 118.619403 
L 234.162223 113.995317 
L 234.225645 118.304407 
L 234.289066 114.836242 
L 234.415909 104.116751 
L 234.606174 115.887297 
L 234.733017 99.913327 
L 234.85986 116.202295 
L 234.923281 110.422286 
L 234.986703 103.170961 
L 235.113546 119.775324 
L 235.240389 100.963983 
L 235.367232 117.568747 
L 235.494074 103.381091 
L 235.557496 103.486357 
L 235.684339 112.944661 
L 235.74776 111.788739 
L 235.811182 112.523998 
L 235.938025 133.227321 
L 236.001446 129.759156 
L 236.191711 118.093875 
L 236.318554 125.240336 
L 236.445397 117.989009 
L 236.508818 118.304407 
L 236.57224 121.246643 
L 236.635661 132.491662 
L 236.699083 130.810213 
L 236.762504 122.087568 
L 236.825926 127.236782 
L 236.952768 129.233629 
L 237.079611 141.8447 
L 237.206454 123.348755 
L 237.523562 146.994314 
L 237.586983 146.468786 
L 237.713826 141.529303 
L 237.777248 142.160097 
L 237.840669 145.102333 
L 237.904091 144.471939 
L 238.030934 140.373381 
L 238.157777 146.468786 
L 238.348041 140.583513 
L 238.411462 140.688778 
L 238.538305 132.701793 
L 238.918834 157.608139 
L 238.982256 149.096026 
L 239.045677 149.72642 
L 239.17252 159.184723 
L 239.235942 153.930244 
L 239.362785 176.734877 
L 239.426206 175.47369 
L 239.489628 174.633165 
L 239.616471 182.094623 
L 239.679892 178.626458 
L 239.743314 179.362117 
L 239.806735 184.511732 
L 239.996999 164.439203 
L 240.187264 182.41002 
L 240.314107 170.429341 
L 240.44095 185.772919 
L 240.504371 181.358963 
L 240.631214 200.695833 
L 240.694636 194.495363 
L 240.758057 189.661345 
L 240.8849 211.940452 
L 240.948322 206.580907 
L 241.011743 196.071747 
L 241.075165 200.06524 
L 241.265429 212.676111 
L 241.32885 208.15729 
L 241.392272 191.027398 
L 241.455693 199.11945 
L 241.519115 217.195132 
L 241.582536 213.096573 
L 241.645958 213.201639 
L 241.709379 225.287182 
L 241.772801 218.876582 
L 241.836222 212.150783 
L 241.899644 219.822371 
L 241.963065 216.03901 
L 242.216751 200.275371 
L 242.343594 213.937298 
L 242.407016 212.571046 
L 242.470437 220.137569 
L 242.59728 201.116096 
L 242.724123 213.411771 
L 242.787544 203.63827 
L 242.850966 209.103081 
L 242.914387 220.032503 
L 242.977809 217.930791 
L 243.168073 205.950313 
L 243.231495 206.580907 
L 243.358338 199.11945 
L 243.485181 208.262356 
L 243.612024 197.543066 
L 243.738867 208.577553 
L 243.802288 208.052225 
L 243.929131 214.462626 
L 244.055974 203.323073 
L 244.182817 220.242634 
L 244.246238 217.72046 
L 244.30966 190.606936 
L 244.373081 193.864769 
L 244.436503 197.648131 
L 244.499924 197.227668 
L 244.563346 194.705494 
L 244.690189 181.464229 
L 244.817032 196.912472 
L 245.007296 181.148833 
L 245.070718 180.097776 
L 245.197561 188.505024 
L 245.260982 179.677514 
L 245.324404 180.518039 
L 245.387825 185.142125 
L 245.514668 177.890799 
L 245.641511 183.565941 
L 245.768354 180.307908 
L 245.831775 181.464229 
L 246.02204 169.168554 
L 246.148883 179.78278 
L 246.339147 167.591971 
L 246.46599 177.575802 
L 246.719676 142.580359 
L 246.783098 137.325879 
L 246.973362 147.09918 
L 247.036783 144.892202 
L 247.100205 138.586666 
L 247.227048 155.296296 
L 247.544155 129.338894 
L 247.670998 140.268115 
L 247.861263 129.653891 
L 248.114949 143.000622 
L 248.17837 142.79049 
L 248.241792 138.797198 
L 248.305213 140.478647 
L 248.368634 146.048123 
L 248.432056 141.949565 
L 248.495477 136.59022 
L 248.62232 155.296296 
L 248.685742 149.621554 
L 248.749163 142.580359 
L 248.812585 149.516288 
L 248.876006 144.471939 
L 248.939428 128.7081 
L 249.002849 135.329033 
L 249.066271 150.462079 
L 249.129692 141.319172 
L 249.193114 128.287838 
L 249.256535 129.864422 
L 249.319957 131.33534 
L 249.4468 112.73453 
L 249.573643 134.067846 
L 249.700486 124.819673 
L 249.763907 125.345201 
L 249.827328 123.033358 
L 249.954171 130.494816 
L 250.144436 112.944661 
L 250.271279 132.491662 
L 250.3347 129.443759 
L 250.398122 127.447313 
L 250.524965 138.27167 
L 250.651808 109.161099 
L 250.778651 132.28153 
L 250.842072 128.393104 
L 250.905494 127.76231 
L 251.032337 149.516288 
L 251.15918 141.634569 
L 251.222601 145.41773 
L 251.476287 172.320923 
L 251.539708 175.263559 
L 251.666551 153.299449 
L 251.793394 162.022094 
L 251.856816 158.659195 
L 251.983659 126.606389 
L 252.04708 127.131917 
L 252.110502 132.176265 
L 252.237345 109.371631 
L 252.364188 137.010482 
L 252.554452 226.232973 
L 252.681295 218.035857 
L 252.744716 223.710799 
L 252.808138 221.503821 
L 252.871559 215.303351 
L 252.998402 229.806004 
L 253.061824 223.290336 
L 253.188667 248.302148 
L 253.31551 220.558031 
L 253.378931 229.595872 
L 253.442353 224.236127 
L 253.505774 214.357561 
L 253.632617 242.52214 
L 253.696039 234.64022 
L 253.75946 230.436597 
L 253.949725 243.362865 
L 254.076568 244.413721 
L 254.139989 249.563135 
L 254.266832 230.646728 
L 254.330253 235.586011 
L 254.393675 248.407213 
L 254.457096 241.050822 
L 254.520518 231.382387 
L 254.583939 236.847198 
L 254.647361 241.260953 
L 254.774204 228.650081 
L 254.837625 235.060483 
L 254.964468 218.035857 
L 255.02789 223.395402 
L 255.091311 229.700938 
L 255.154733 225.287182 
L 255.344997 206.475841 
L 255.408419 206.896103 
L 255.598683 208.89295 
L 255.725526 222.449611 
L 255.788947 219.401909 
L 255.91579 205.319719 
L 255.979212 210.364068 
L 256.042633 206.791038 
L 256.359741 155.92669 
L 256.486584 179.151986 
L 256.613427 171.270266 
L 256.676848 171.270266 
L 256.803691 192.813914 
L 256.867113 186.403312 
L 256.930534 167.907367 
L 256.993955 172.005926 
L 257.057377 188.400158 
L 257.120798 183.250545 
L 257.18422 176.524747 
L 257.247641 189.450814 
L 257.311063 185.667653 
L 257.374484 171.165001 
L 257.437906 173.897506 
L 257.501327 175.789087 
L 257.62817 160.340644 
L 257.691592 170.429341 
L 257.755013 169.378686 
L 257.945278 155.296296 
L 258.135542 171.90066 
L 258.198964 169.798948 
L 258.325807 169.063289 
L 258.389228 166.961577 
L 258.516071 178.10093 
L 258.642914 169.483552 
L 258.706335 171.375132 
L 258.833178 169.063289 
L 258.8966 170.219211 
L 259.023443 164.7546 
L 259.34055 176.840143 
L 259.657658 147.519442 
L 259.784501 155.716558 
L 259.847922 150.041816 
L 259.911343 152.458925 
L 259.974765 158.764461 
L 260.038186 158.55433 
L 260.101608 157.503273 
L 260.165029 158.133667 
L 260.228451 158.238932 
L 260.418715 140.057985 
L 260.482137 147.519442 
L 260.545558 195.861616 
L 260.60898 190.922333 
L 260.926087 150.882341 
L 260.989509 151.092872 
L 261.05293 156.662348 
L 261.116352 156.347352 
L 261.306616 150.251947 
L 261.49688 138.061538 
L 261.623723 127.972441 
L 261.687145 129.864422 
L 261.877409 143.105887 
L 261.940831 141.213906 
L 262.004252 142.054831 
L 262.32136 174.107638 
L 262.701889 147.834839 
L 262.828731 157.398007 
L 262.892153 152.458925 
L 262.955574 153.720112 
L 263.145839 162.863019 
L 263.272682 170.639473 
L 263.336103 167.487105 
L 263.526368 190.291739 
L 263.843475 152.879187 
L 264.160583 140.688778 
L 264.287425 150.251947 
L 264.541111 131.33534 
L 264.604533 129.023497 
L 264.667954 134.593374 
L 264.794797 115.992163 
L 264.858219 118.619403 
L 264.92164 118.829534 
L 265.175326 102.960829 
L 265.429012 123.348755 
L 265.492434 121.772171 
L 265.555855 116.727822 
L 265.619276 120.090721 
L 265.682698 120.300853 
L 265.746119 116.202295 
L 265.872962 121.982302 
L 266.063227 112.419133 
L 266.19007 129.864422 
L 266.253491 126.921785 
L 266.316913 114.520845 
L 266.380334 115.151638 
L 266.443756 119.775324 
L 266.570599 104.957676 
L 266.760863 121.141778 
L 266.824285 118.9348 
L 266.887706 118.409272 
L 267.014549 106.743991 
L 267.07797 108.530706 
L 267.141392 111.473343 
L 267.268235 94.133319 
L 267.331656 96.0249 
L 267.458499 107.690181 
L 267.521921 103.276226 
L 267.585342 104.011886 
L 267.648764 105.903466 
L 267.712185 100.123458 
L 267.775607 100.543721 
L 267.839028 105.693335 
L 267.965871 93.39766 
L 268.092714 107.269519 
L 268.473243 63.866828 
L 268.536664 67.019596 
L 268.600086 64.917884 
L 268.663507 135.644429 
L 268.726929 126.501523 
L 268.79035 114.41598 
L 268.853772 118.514538 
L 268.917193 116.30756 
L 268.980615 104.326882 
L 269.044036 110.002024 
L 269.107458 121.982302 
L 269.170879 119.039666 
L 269.234301 119.144932 
L 269.297722 126.501523 
L 269.424565 107.374785 
L 269.487987 115.256504 
L 269.61483 135.329033 
L 270.05878 112.103736 
L 270.185623 116.412425 
L 270.249044 115.676766 
L 270.375887 120.090721 
L 270.439309 115.151638 
L 270.50273 116.30756 
L 270.566152 121.877437 
L 270.692995 103.801754 
L 270.756416 108.005178 
L 270.883259 109.896759 
L 271.073524 134.067846 
L 271.200367 121.141778 
L 271.263788 125.13507 
L 271.32721 123.979148 
L 271.390631 122.613096 
L 271.517474 134.383242 
L 271.644317 125.765864 
L 271.77116 128.182972 
L 271.834581 128.077706 
L 271.898003 129.233629 
L 271.961424 133.752449 
L 272.088267 121.56204 
L 272.151689 125.345201 
L 272.21511 134.067846 
L 272.278532 132.491662 
L 272.341953 127.657444 
L 272.468796 136.695086 
L 272.595639 122.192433 
L 272.912746 158.449064 
L 272.976168 160.971438 
L 273.103011 145.522996 
L 273.229854 153.614846 
L 273.293275 150.672209 
L 273.420118 156.557483 
L 273.737226 122.613096 
L 273.800647 111.05308 
L 273.864069 112.313867 
L 273.92749 117.883744 
L 274.054333 102.645433 
L 274.117755 104.116751 
L 274.244597 112.419133 
L 274.308019 117.148084 
L 274.37144 115.36177 
L 274.561705 101.069249 
L 274.625126 110.842549 
L 274.751969 88.353312 
L 274.815391 96.445163 
L 274.878812 103.801754 
L 275.005655 79.210405 
L 275.069077 80.366326 
L 275.132498 80.576458 
L 275.259341 82.573304 
L 275.322763 81.101985 
L 275.449606 106.849257 
L 275.513027 92.346605 
L 275.576449 94.448316 
L 275.63987 120.721115 
L 275.703291 116.097429 
L 275.766713 97.286088 
L 275.830134 106.743991 
L 275.893556 108.42544 
L 276.020399 90.139627 
L 276.08382 94.868979 
L 276.210663 78.054084 
L 276.337506 91.716211 
L 276.400928 87.092124 
L 276.464349 87.617653 
L 276.591192 106.954522 
L 276.654614 105.903466 
L 276.718035 103.90662 
L 276.844878 157.923536 
L 276.9083 157.503273 
L 277.161985 148.780629 
L 277.225407 149.200891 
L 277.35225 152.353659 
L 277.415671 151.303004 
L 277.542514 155.611693 
L 277.669357 158.869326 
L 277.7962 146.573651 
L 278.113308 166.225918 
L 278.176729 165.910521 
L 278.303572 159.710251 
L 278.430415 151.303004 
L 278.684101 165.490259 
L 278.747522 166.751446 
L 278.937787 163.283281 
L 279.06463 151.092872 
L 279.128051 153.509581 
L 279.191473 152.774321 
L 279.254894 151.513134 
L 279.50858 172.110791 
L 279.635423 170.219211 
L 279.762266 176.524747 
L 279.889109 168.643027 
L 279.952531 168.958023 
L 280.015952 171.165001 
L 280.142795 181.148833 
L 280.206216 180.413173 
L 280.269638 181.989357 
L 280.396481 175.894353 
L 280.459902 180.623305 
L 280.523324 180.097776 
L 280.586745 175.368825 
L 280.650167 177.050274 
L 280.713588 180.833436 
L 280.77701 180.097776 
L 280.840431 179.572248 
L 280.903853 180.413173 
L 280.967274 179.047121 
L 281.094117 183.460675 
L 281.157539 180.72857 
L 281.284382 189.55608 
L 281.411224 186.403312 
L 281.538067 205.845248 
L 281.66491 193.444507 
L 281.728332 194.495363 
L 281.791753 195.75655 
L 281.855175 193.759704 
L 281.982018 178.416327 
L 282.299125 204.58406 
L 282.362547 202.166952 
L 282.48939 193.864769 
L 282.552811 197.753196 
L 282.616233 197.543066 
L 282.806497 179.887646 
L 283.060183 196.597275 
L 283.123604 192.603782 
L 283.250447 182.304754 
L 283.313869 182.514885 
L 283.37729 178.941855 
L 283.440712 181.253698 
L 283.504133 191.868123 
L 283.567555 189.766211 
L 283.630976 181.989357 
L 283.694398 185.667653 
L 283.884662 192.603782 
L 284.011505 194.285232 
L 284.074927 197.438 
L 284.20177 181.253698 
L 284.328612 189.030552 
L 284.392034 177.365671 
L 284.455455 181.884492 
L 284.518877 195.861616 
L 284.582298 189.661345 
L 284.64572 181.358963 
L 284.772563 189.345949 
L 284.835984 183.986204 
L 284.962827 165.384993 
L 285.026249 168.32763 
L 285.279935 153.930244 
L 285.470199 166.540915 
L 285.533621 165.910521 
L 285.660464 162.967884 
L 285.787306 170.850004 
L 285.850728 168.32763 
L 285.914149 166.64618 
L 285.977571 168.747892 
L 286.040992 168.537761 
L 286.167835 164.334337 
L 286.294678 171.585663 
L 286.421521 162.232225 
L 286.548364 168.222364 
L 286.611786 162.232225 
L 286.675207 162.442356 
L 286.738629 166.225918 
L 286.80205 163.598678 
L 286.865472 163.388547 
L 287.055736 171.165001 
L 287.246 153.720112 
L 287.309422 154.350506 
L 287.372843 152.458925 
L 287.436265 153.509581 
L 287.626529 160.550776 
L 287.816794 168.958023 
L 287.880215 167.697237 
L 287.943637 169.168554 
L 288.007058 165.910521 
L 288.133901 152.879187 
L 288.197323 158.974592 
L 288.260744 158.238932 
L 288.324166 154.770768 
L 288.451009 163.283281 
L 288.577851 154.770768 
L 288.641273 157.187877 
L 288.704694 156.662348 
L 288.768116 155.821824 
L 288.894959 158.238932 
L 288.95838 157.923536 
L 289.021802 157.293143 
L 289.148645 163.388547 
L 289.212066 159.920382 
L 289.275488 160.235779 
L 289.402331 167.802102 
L 289.529174 157.713405 
L 289.656017 171.480398 
L 289.719438 168.012233 
L 289.78286 164.859465 
L 289.909703 171.270266 
L 290.036545 150.462079 
L 290.099967 152.774321 
L 290.290231 163.283281 
L 290.417074 157.083011 
L 290.543917 165.910521 
L 290.734182 154.665903 
L 290.797603 156.452218 
L 290.987868 170.850004 
L 291.114711 179.362117 
L 291.241554 165.384993 
L 291.685504 180.307908 
L 291.748925 178.311461 
L 291.812347 180.518039 
L 291.93919 187.349103 
L 292.002611 187.138971 
L 292.129454 193.759704 
L 292.192876 189.450814 
L 292.256297 192.603782 
L 292.319719 197.648131 
L 292.38314 195.75655 
L 292.446562 195.966681 
L 292.509983 197.017538 
L 292.827091 179.362117 
L 292.953933 189.240683 
L 293.017355 164.334337 
L 293.080776 168.958023 
L 293.144198 169.27342 
L 293.271041 161.811963 
L 293.397884 171.90066 
L 293.461305 169.378686 
L 293.524727 169.27342 
L 293.65157 178.941855 
L 293.714991 188.925686 
L 293.778413 188.715156 
L 293.841834 182.094623 
L 293.905256 183.881338 
L 293.968677 183.040413 
L 294.09552 166.436049 
L 294.222363 183.670807 
L 294.285785 181.464229 
L 294.349206 181.358963 
L 294.476049 182.514885 
L 294.53947 182.620151 
L 294.602892 180.623305 
L 294.666313 181.569095 
L 294.729735 184.616597 
L 294.856578 168.222364 
L 294.919999 172.951716 
L 294.983421 181.464229 
L 295.046842 176.945009 
L 295.173685 169.798948 
L 295.237107 169.378686 
L 295.36395 164.96473 
L 295.490793 179.257252 
L 295.617636 166.540915 
L 295.744479 182.830282 
L 295.8079 180.307908 
L 296.061586 164.018941 
L 296.188429 166.330783 
L 296.25185 166.961577 
L 296.315272 169.168554 
L 296.378693 167.591971 
L 296.442115 165.069996 
L 296.568958 170.95487 
L 296.695801 152.879187 
L 296.759222 153.194584 
L 296.822644 156.557483 
L 296.949487 150.357213 
L 297.07633 157.083011 
L 297.203172 152.458925 
L 297.456858 158.449064 
L 297.583701 153.824978 
L 297.710544 159.184723 
L 297.900809 150.987607 
L 297.96423 151.197738 
L 298.091073 155.92669 
L 298.217916 151.618 
L 298.281338 151.933397 
L 298.471602 142.054831 
L 298.661866 157.923536 
L 298.788709 166.540915 
L 298.852131 156.557483 
L 298.915552 157.923536 
L 298.978974 169.798948 
L 299.042395 168.747892 
L 299.105817 162.442356 
L 299.169238 164.544468 
L 299.23266 168.117499 
L 299.422924 155.506427 
L 299.486346 157.608139 
L 299.549767 157.293143 
L 299.613189 156.347352 
L 299.866875 164.649334 
L 299.930296 167.276574 
L 300.247403 143.946412 
L 300.564511 157.81867 
L 300.754775 156.557483 
L 300.881618 147.940104 
L 301.008461 139.953119 
L 301.135304 144.261809 
L 301.198726 143.000622 
L 301.325569 128.287838 
L 301.452412 139.847853 
L 301.515833 130.810213 
L 301.579254 132.911924 
L 301.706097 145.522996 
L 301.83294 138.902063 
L 301.896362 144.997468 
L 302.023205 129.233629 
L 302.086626 135.329033 
L 302.150048 140.16325 
L 302.213469 129.969288 
L 302.276891 130.600081 
L 302.340312 141.529303 
L 302.403734 139.21746 
L 302.593998 129.128763 
L 302.65742 128.287838 
L 302.720841 129.443759 
L 302.911106 144.366674 
L 303.037948 143.000622 
L 303.10137 144.051677 
L 303.291634 139.637723 
L 303.355056 139.953119 
L 303.418477 141.003775 
L 303.481899 140.89891 
L 303.608742 141.319172 
L 303.735585 139.21746 
L 303.799006 141.319172 
L 303.862428 140.688778 
L 303.925849 138.481801 
L 304.052692 142.895756 
L 304.116114 142.475093 
L 304.179535 142.370228 
L 304.560064 117.673613 
L 304.623485 117.358216 
L 304.686907 115.992163 
L 305.004014 125.660598 
L 305.130857 117.463482 
L 305.194279 127.552179 
L 305.2577 125.660598 
L 305.321122 115.466635 
L 305.384543 116.622557 
L 305.447965 116.937954 
L 305.511386 110.737684 
L 305.574808 111.893605 
L 305.638229 115.992163 
L 305.765072 106.113598 
L 306.082179 127.552179 
L 306.145601 127.552179 
L 306.335865 142.054831 
L 306.399287 141.949565 
L 306.462708 142.370228 
L 306.52613 142.264962 
L 306.652973 136.380089 
L 306.716394 138.691932 
L 306.779816 145.207599 
L 306.843237 143.946412 
L 306.97008 135.959427 
L 307.096923 143.210752 
L 307.160345 140.478647 
L 307.223766 143.105887 
L 307.41403 156.977745 
L 307.540873 153.194584 
L 307.604295 153.720112 
L 307.667716 153.089319 
L 307.921402 141.424437 
L 307.984824 142.054831 
L 308.048245 146.153389 
L 308.111667 145.837992 
L 308.175088 143.210752 
L 308.23851 144.366674 
L 308.301931 144.051677 
L 308.492196 154.980899 
L 308.555617 151.933397 
L 308.68246 156.557483 
L 308.745881 154.665903 
L 308.872724 159.394855 
L 308.936146 158.133667 
L 309.062989 150.146682 
L 309.253253 158.974592 
L 309.316675 156.557483 
L 309.506939 150.567345 
L 309.760625 158.764461 
L 309.824047 165.70039 
L 309.887468 163.703543 
L 310.014311 151.407869 
L 310.267997 174.002372 
L 310.521683 164.334337 
L 310.585104 152.984453 
L 310.648526 155.506427 
L 310.775369 167.487105 
L 310.83879 165.280128 
L 310.965633 169.903814 
L 311.029055 163.703543 
L 311.092476 164.7546 
L 311.155898 166.961577 
L 311.282741 153.614846 
L 311.346162 156.767614 
L 311.409584 155.611693 
L 311.473005 152.353659 
L 311.599848 172.005926 
L 311.663269 171.165001 
L 311.726691 167.907367 
L 311.790112 168.747892 
L 311.853534 168.643027 
L 311.980377 164.7546 
L 312.170641 182.514885 
L 312.297484 168.958023 
L 312.360906 169.588817 
L 312.424327 171.165001 
L 312.55117 168.537761 
L 312.678013 172.846451 
L 312.804856 180.623305 
L 312.931699 166.751446 
L 312.99512 167.907367 
L 313.058542 171.795795 
L 313.121963 168.958023 
L 313.185385 168.643027 
L 313.565914 205.424785 
L 313.692757 196.597275 
L 313.8196 209.103081 
L 314.073286 194.81056 
L 314.136707 195.441154 
L 314.26355 201.01103 
L 314.453814 180.72857 
L 314.517236 181.569095 
L 314.644079 189.345949 
L 314.7075 187.138971 
L 314.770922 183.460675 
L 314.961186 197.753196 
L 315.024608 194.390297 
L 315.151451 181.464229 
L 315.214872 191.23753 
L 315.278294 188.61029 
L 315.341715 179.992911 
L 315.405137 183.881338 
L 315.468558 186.193181 
L 315.658823 166.856312 
L 315.785666 170.95487 
L 315.912508 167.38184 
L 316.039351 183.35581 
L 316.102773 178.731724 
L 316.166194 182.514885 
L 316.229616 194.180167 
L 316.800409 128.393104 
L 317.054095 131.125209 
L 317.180938 144.892202 
L 317.307781 128.603235 
L 317.371202 145.312464 
L 317.434624 144.892202 
L 317.498045 147.414576 
L 317.561467 146.573651 
L 317.624888 142.160097 
L 317.68831 142.475093 
L 317.751731 143.736281 
L 317.815153 141.949565 
L 317.941996 146.153389 
L 318.068839 140.16325 
L 318.195682 151.828132 
L 318.322525 136.800351 
L 318.385946 140.688778 
L 318.766475 166.225918 
L 318.829896 164.649334 
L 318.956739 153.089319 
L 319.020161 155.296296 
L 319.083582 154.140374 
L 319.147004 150.251947 
L 319.273847 157.293143 
L 319.40069 143.631015 
L 319.464111 151.723266 
L 319.527533 147.204446 
L 319.590954 136.064692 
L 319.654376 142.685224 
L 319.717797 146.994314 
L 319.781219 140.478647 
L 319.971483 160.130514 
L 320.034905 159.289989 
L 320.161748 155.716558 
L 320.225169 157.293143 
L 320.28859 157.713405 
L 320.352012 153.089319 
L 320.415433 156.031956 
L 320.732541 172.216057 
L 320.795962 168.747892 
L 320.859384 170.744739 
L 320.922805 170.534607 
L 320.986227 167.907367 
L 321.11307 170.850004 
L 321.176491 165.595124 
L 321.239913 167.066442 
L 321.303334 172.531453 
L 321.366756 169.063289 
L 321.430177 168.012233 
L 321.683863 194.705494 
L 321.747284 191.763057 
L 321.810706 180.413173 
L 321.874127 186.718709 
L 321.937549 188.61029 
L 322.00097 180.833436 
L 322.127813 200.485502 
L 322.191235 195.336088 
L 322.318078 188.190028 
L 322.381499 190.396605 
L 322.444921 197.438 
L 322.571764 177.575802 
L 322.635185 181.67436 
L 322.762028 193.654638 
L 322.82545 193.969835 
L 322.952293 209.523343 
L 323.015714 205.529851 
L 323.079135 199.014184 
L 323.142557 200.800899 
L 323.205978 201.74669 
L 323.332821 177.365671 
L 323.459664 190.712002 
L 323.523086 183.040413 
L 323.649929 199.960174 
L 323.71335 195.651284 
L 323.967036 175.47369 
L 324.093879 194.915626 
L 324.157301 191.342595 
L 324.284144 197.017538 
L 324.347565 185.667653 
L 324.410987 187.664499 
L 324.474408 198.068393 
L 324.601251 183.040413 
L 324.664672 196.807406 
L 324.728094 191.657992 
L 324.791515 180.518039 
L 324.854937 186.92884 
L 324.918358 187.979896 
L 324.98178 177.365671 
L 325.045201 182.199488 
L 325.108623 190.606936 
L 325.235466 177.785934 
L 325.298887 182.725016 
L 325.362309 182.514885 
L 325.489152 180.413173 
L 325.552573 173.477244 
L 325.615995 176.314615 
L 325.679416 177.470537 
L 325.806259 168.537761 
L 325.869681 168.853158 
L 325.933102 166.751446 
L 325.996523 167.276574 
L 326.059945 168.958023 
L 326.123366 166.540915 
L 326.186788 166.961577 
L 326.377052 169.903814 
L 326.503895 165.70039 
L 326.567317 166.330783 
L 326.630738 172.005926 
L 326.69416 169.168554 
L 326.757581 159.920382 
L 326.821003 162.337491 
L 326.884424 170.429341 
L 326.947846 168.643027 
L 327.011267 163.913675 
L 327.074689 166.436049 
L 327.13811 168.32763 
L 327.328375 154.980899 
L 327.391796 159.710251 
L 327.455217 157.923536 
L 327.518639 153.089319 
L 327.645482 180.518039 
L 327.772325 128.287838 
L 327.835746 131.33534 
L 327.899168 131.440606 
L 327.962589 127.867576 
L 328.089432 137.851007 
L 328.152854 137.851007 
L 328.279697 149.831685 
L 328.343118 143.631015 
L 328.469961 157.503273 
L 328.533383 153.614846 
L 328.723647 142.370228 
L 328.85049 147.30931 
L 328.977333 144.787336 
L 329.167597 154.455771 
L 329.29444 150.987607 
L 329.421283 158.133667 
L 329.484705 153.404715 
L 329.611548 168.958023 
L 329.738391 156.662348 
L 329.865234 171.060136 
L 329.928655 160.760906 
L 329.992077 164.544468 
L 330.055498 172.636319 
L 330.182341 156.242086 
L 330.245762 162.547622 
L 330.309184 168.747892 
L 330.372605 164.859465 
L 330.436027 163.808809 
L 330.499448 169.168554 
L 330.626291 152.038662 
L 330.689713 153.299449 
L 330.753134 157.503273 
L 330.816556 156.452218 
L 330.943399 153.404715 
L 331.070242 161.181569 
L 331.197085 153.299449 
L 331.260506 156.031956 
L 331.323928 154.24524 
L 331.387349 150.251947 
L 331.641035 172.110791 
L 331.704456 168.432895 
L 331.831299 149.831685 
L 331.958142 165.069996 
L 332.021564 154.770768 
L 332.084985 158.449064 
L 332.148407 168.432895 
L 332.211828 167.907367 
L 332.27525 164.7546 
L 332.338671 165.069996 
L 332.655779 178.941855 
L 332.782622 163.178016 
L 332.846043 165.490259 
L 332.972886 173.58211 
L 333.099729 167.38184 
L 333.16315 170.429341 
L 333.289993 155.191431 
L 333.353415 156.452218 
L 333.480258 165.910521 
L 333.543679 172.636319 
L 333.607101 159.815117 
L 333.670522 161.601831 
L 333.797365 168.117499 
L 333.860787 167.802102 
L 333.924208 167.591971 
L 334.051051 179.151986 
L 334.114473 178.521593 
L 334.177894 166.225918 
L 334.241316 170.324476 
L 334.368159 189.030552 
L 334.621844 164.439203 
L 335.129216 184.196334 
L 335.256059 182.514885 
L 335.319481 183.565941 
L 335.446324 165.280128 
L 335.509745 166.330783 
L 335.573167 171.795795 
L 335.636588 170.850004 
L 335.953696 166.540915 
L 336.080538 173.897506 
L 336.207381 166.961577 
L 336.334224 173.58211 
L 336.651332 151.407869 
L 336.905018 168.117499 
L 337.031861 152.458925 
L 337.158704 169.483552 
L 337.285547 151.723266 
L 337.348968 153.824978 
L 337.475811 138.902063 
L 337.539232 141.424437 
L 337.792918 155.191431 
L 337.85634 151.197738 
L 337.919761 153.194584 
L 337.983183 158.238932 
L 338.046604 155.401562 
L 338.173447 143.210752 
L 338.30029 159.815117 
L 338.363712 154.980899 
L 338.427133 148.675763 
L 338.490555 149.831685 
L 338.617398 158.869326 
L 338.807662 141.319172 
L 338.871083 141.529303 
L 338.934505 144.892202 
L 338.997926 143.736281 
L 339.124769 132.491662 
L 339.315034 146.678917 
L 339.378455 150.357213 
L 339.441877 147.834839 
L 339.505298 148.885895 
L 339.56872 154.560637 
L 339.632141 151.933397 
L 339.695563 148.04497 
L 339.822406 157.713405 
L 340.01267 142.895756 
L 340.076092 143.316018 
L 340.45662 157.713405 
L 340.583463 146.048123 
L 340.837149 126.186126 
L 340.963992 139.532457 
L 341.027414 139.21746 
L 341.090835 143.000622 
L 341.217678 136.484954 
L 341.2811 140.793644 
L 341.344521 140.16325 
L 341.471364 128.077706 
L 341.534786 128.393104 
L 341.598207 128.287838 
L 341.661629 131.545871 
L 341.72505 145.627861 
L 341.788471 142.475093 
L 341.851893 138.27167 
L 341.915314 139.742988 
L 341.978736 138.902063 
L 342.042157 128.7081 
L 342.105579 128.813366 
L 342.232422 145.312464 
L 342.359265 141.213906 
L 342.486108 142.475093 
L 342.612951 134.593374 
L 342.676372 134.698639 
L 342.739794 133.647583 
L 342.803215 129.338894 
L 342.866637 131.125209 
L 342.930058 133.647583 
L 342.99348 130.915078 
L 343.120323 142.370228 
L 343.183744 138.166404 
L 343.247165 130.704947 
L 343.310587 132.911924 
L 343.500851 143.316018 
L 343.564273 145.41773 
L 343.627694 144.366674 
L 343.754537 143.420884 
L 344.008223 131.33534 
L 344.071645 131.650737 
L 344.198488 142.685224 
L 344.261909 139.637723 
L 344.325331 132.491662 
L 344.388752 137.430745 
L 344.452174 143.946412 
L 344.579016 131.860868 
L 344.642438 140.89891 
L 344.705859 139.427591 
L 344.959545 119.250196 
L 345.086388 110.422286 
L 345.14981 116.622557 
L 345.276653 101.910174 
L 345.340074 108.846103 
L 345.403496 115.36177 
L 345.466917 114.41598 
L 345.530339 114.41598 
L 345.59376 113.785185 
L 345.720603 116.622557 
L 345.847446 108.635972 
L 345.910868 110.632418 
L 346.03771 101.910174 
L 346.164553 103.486357 
L 346.227975 103.381091 
L 346.291396 105.483204 
L 346.354818 103.066095 
L 346.418239 104.957676 
L 346.671925 125.975995 
L 346.735347 130.600081 
L 346.86219 124.084414 
L 346.989033 132.701793 
L 347.052454 132.386396 
L 347.115876 131.020343 
L 347.179297 132.176265 
L 347.30614 128.077706 
L 347.432983 139.112194 
L 347.559826 126.08086 
L 347.686669 143.105887 
L 347.813512 126.816519 
L 347.940355 148.780629 
L 348.003776 144.892202 
L 348.067198 141.10904 
L 348.130619 142.580359 
L 348.194041 143.631015 
L 348.511148 139.007329 
L 348.57457 139.637723 
L 348.637991 143.316018 
L 348.701413 142.895756 
L 348.764834 139.112194 
L 348.828256 140.16325 
L 348.955098 141.634569 
L 349.081941 155.191431 
L 349.145363 154.560637 
L 349.208784 154.876033 
L 349.399049 166.120653 
L 349.46247 170.324476 
L 349.589313 164.334337 
L 349.779578 168.117499 
L 349.842999 118.514538 
L 349.906421 124.714807 
L 349.969842 126.501523 
L 350.096685 112.944661 
L 350.160107 114.941108 
L 350.223528 115.046373 
L 350.477214 131.545871 
L 350.540635 126.711654 
L 350.604057 127.972441 
L 350.857743 156.977745 
L 350.984586 142.264962 
L 351.048007 143.841546 
L 351.111429 142.895756 
L 351.17485 137.010482 
L 351.238272 137.536011 
L 351.555379 158.449064 
L 351.682222 152.353659 
L 351.745644 154.560637 
L 351.872486 139.637723 
L 351.935908 143.526149 
L 351.999329 145.102333 
L 352.062751 144.892202 
L 352.189594 160.235779 
L 352.253015 156.557483 
L 352.316437 157.713405 
L 352.379858 162.232225 
L 352.44328 159.710251 
L 352.506701 152.143528 
L 352.570123 155.611693 
L 352.696966 172.741585 
L 352.823809 164.018941 
L 352.88723 164.544468 
L 353.014073 169.168554 
L 353.204337 160.44591 
L 353.267759 162.863019 
L 353.33118 165.280128 
L 353.394602 164.334337 
L 353.521445 152.038662 
L 353.648288 170.429341 
L 353.711709 165.384993 
L 353.775131 165.069996 
L 354.15566 238.00312 
L 354.219081 228.229619 
L 354.345924 251.665047 
L 354.409346 248.302148 
L 354.472767 241.891547 
L 354.536189 245.674708 
L 354.726453 248.512279 
L 354.980139 231.907916 
L 355.106982 238.423582 
L 355.170403 233.484299 
L 355.233825 233.799496 
L 355.297246 235.480945 
L 355.360668 231.80265 
L 355.424089 232.538308 
L 355.614354 234.535155 
L 355.741197 223.18527 
L 355.804618 229.595872 
L 355.931461 205.740182 
L 355.994883 212.991508 
L 356.058304 213.621901 
L 356.31199 192.393451 
L 356.375411 196.807406 
L 356.438833 194.180167 
L 356.502254 192.18332 
L 356.629097 206.685972 
L 356.692519 196.492009 
L 356.819362 232.223112 
L 356.882783 217.825525 
L 357.073048 167.591971 
L 357.516998 75.952372 
L 357.580419 72.799603 
L 357.770684 91.400814 
L 357.897527 85.726072 
L 358.02437 148.99076 
L 358.087791 150.041816 
L 358.278056 140.688778 
L 358.341477 141.529303 
L 358.46832 148.465232 
L 358.658585 142.264962 
L 358.722006 144.051677 
L 358.785428 154.140374 
L 358.848849 152.143528 
L 358.912271 138.586666 
L 358.975692 142.370228 
L 359.102535 157.503273 
L 359.165956 156.977745 
L 359.292799 170.850004 
L 359.356221 168.958023 
L 359.419642 168.958023 
L 359.609907 153.614846 
L 359.673328 156.977745 
L 359.73675 156.87288 
L 359.800171 159.289989 
L 359.863593 166.120653 
L 359.927014 164.96473 
L 360.053857 155.506427 
L 360.117279 156.242086 
L 360.244122 148.675763 
L 360.307543 151.933397 
L 360.370964 151.407869 
L 360.434386 151.092872 
L 360.497807 152.56379 
L 360.561229 152.353659 
L 360.688072 167.591971 
L 360.814915 157.293143 
L 360.878336 162.757754 
L 360.941758 158.764461 
L 361.005179 152.984453 
L 361.068601 156.977745 
L 361.132022 157.608139 
L 361.195444 154.876033 
L 361.322287 165.805255 
L 361.512551 154.560637 
L 361.639394 158.133667 
L 361.766237 150.672209 
L 361.829658 151.618 
L 361.89308 155.296296 
L 361.956501 154.876033 
L 362.019923 154.350506 
L 362.273609 165.174862 
L 362.400452 159.920382 
L 362.463873 166.120653 
L 362.527295 161.601831 
L 362.590716 154.665903 
L 362.717559 171.165001 
L 362.844402 156.13722 
L 362.907824 156.87288 
L 362.971245 160.550776 
L 363.034667 159.710251 
L 363.16151 139.637723 
L 363.224931 144.471939 
L 363.351774 153.299449 
L 363.415195 153.509581 
L 363.542038 157.187877 
L 363.60546 155.296296 
L 363.732303 142.054831 
L 363.795724 144.156543 
L 363.985989 129.653891 
L 364.176253 132.911924 
L 364.239675 134.067846 
L 364.366518 130.38955 
L 364.429939 131.33534 
L 364.556782 126.08086 
L 364.620204 128.182972 
L 364.683625 131.125209 
L 364.747046 129.233629 
L 364.810468 128.077706 
L 365.000732 132.28153 
L 365.064154 131.230475 
L 365.127575 127.236782 
L 365.190997 130.074553 
L 365.254418 134.698639 
L 365.381261 126.816519 
L 365.444683 133.752449 
L 365.508104 128.603235 
L 365.571526 117.673613 
L 365.634947 124.18928 
L 365.698369 133.96298 
L 365.76179 131.650737 
L 365.825212 128.182972 
L 365.952055 135.329033 
L 366.015476 133.122055 
L 366.078898 185.352256 
L 366.142319 178.521593 
L 366.20574 181.043567 
L 366.269162 188.294893 
L 366.332583 185.352256 
L 366.459426 173.267113 
L 366.586269 181.464229 
L 366.649691 181.358963 
L 366.776534 177.470537 
L 366.839955 179.151986 
L 366.903377 178.731724 
L 367.03022 166.540915 
L 367.093641 168.537761 
L 367.157063 171.270266 
L 367.347327 165.910521 
L 367.47417 170.324476 
L 367.601013 155.191431 
L 367.664434 156.452218 
L 367.727856 159.50012 
L 367.854699 149.72642 
L 367.91812 151.303004 
L 368.044963 143.946412 
L 368.108385 144.471939 
L 368.235228 156.977745 
L 368.362071 121.877437 
L 368.425492 127.447313 
L 368.488914 126.501523 
L 368.552335 116.622557 
L 368.615757 121.982302 
L 368.7426 129.128763 
L 368.869443 131.545871 
L 368.932864 134.593374 
L 368.996285 134.488108 
L 369.059707 132.491662 
L 369.18655 135.749295 
L 369.313393 126.08086 
L 369.440236 132.911924 
L 369.567079 125.660598 
L 369.693922 131.545871 
L 369.757343 130.915078 
L 369.820765 130.074553 
L 369.947608 132.806658 
L 370.011029 129.969288 
L 370.074451 130.284684 
L 370.201294 140.89891 
L 370.264715 137.640876 
L 370.391558 145.207599 
L 370.518401 136.59022 
L 370.645244 144.156543 
L 370.708665 137.746141 
L 370.772087 138.481801 
L 370.835508 144.051677 
L 370.89893 141.634569 
L 370.962351 136.59022 
L 371.025773 139.322325 
L 371.089194 144.892202 
L 371.216037 125.765864 
L 371.279459 129.864422 
L 371.34288 140.16325 
L 371.406302 136.169557 
L 371.533145 129.443759 
L 371.659988 135.433899 
L 371.723409 134.488108 
L 371.786831 127.76231 
L 371.850252 128.077706 
L 371.913673 130.074553 
L 372.040516 126.501523 
L 372.230781 142.580359 
L 372.357624 135.329033 
L 372.421045 128.497969 
L 372.484467 130.915078 
L 372.61131 143.736281 
L 372.674731 141.003775 
L 372.738153 142.054831 
L 372.864996 144.156543 
L 372.991839 140.583513 
L 373.245525 154.560637 
L 373.308946 156.557483 
L 373.435789 152.458925 
L 373.49921 157.503273 
L 373.626053 151.092872 
L 373.689475 154.665903 
L 373.752896 154.035108 
L 373.816318 153.509581 
L 373.879739 150.777475 
L 374.006582 139.112194 
L 374.133425 157.923536 
L 374.196847 137.536011 
L 374.260268 149.516288 
L 374.32369 152.56379 
L 374.387111 141.8447 
L 374.450533 143.631015 
L 374.577376 156.767614 
L 374.640797 152.353659 
L 374.704219 154.560637 
L 374.76764 153.509581 
L 374.831061 158.764461 
L 374.957904 175.999218 
L 375.21159 150.882341 
L 375.275012 149.096026 
L 375.465276 169.483552 
L 375.528698 167.802102 
L 375.592119 168.117499 
L 375.845805 172.846451 
L 375.909227 172.951716 
L 376.03607 160.760906 
L 376.099491 162.337491 
L 376.162913 169.588817 
L 376.226334 168.117499 
L 376.289755 164.018941 
L 376.416598 167.487105 
L 376.543441 160.235779 
L 376.670284 170.429341 
L 376.797127 166.540915 
L 376.92397 177.680668 
L 376.987392 174.107638 
L 377.241078 151.618 
L 377.367921 165.595124 
L 377.431342 165.069996 
L 377.621606 155.296296 
L 377.748449 167.591971 
L 378.002135 145.102333 
L 378.065557 142.895756 
L 378.128978 144.471939 
L 378.255821 155.296296 
L 378.319243 150.041816 
L 378.382664 143.841546 
L 378.509507 151.197738 
L 378.699772 143.210752 
L 378.763193 143.420884 
L 378.890036 157.923536 
L 378.953458 151.933397 
L 379.016879 152.984453 
L 379.143722 150.041816 
L 379.460829 168.958023 
L 379.524251 168.643027 
L 379.587672 166.540915 
L 379.714515 150.882341 
L 379.90478 169.483552 
L 379.968201 169.588817 
L 380.031623 170.114345 
L 380.095044 169.903814 
L 380.221887 168.012233 
L 380.475573 170.009079 
L 380.538994 167.907367 
L 380.729259 153.614846 
L 380.79268 154.035108 
L 380.856102 155.821824 
L 380.919523 155.086165 
L 380.982945 154.876033 
L 381.109788 157.713405 
L 381.363474 136.380089 
L 381.426895 126.606389 
L 381.490317 128.287838 
L 381.553738 136.59022 
L 381.61716 136.484954 
L 381.680581 137.115348 
L 381.744003 139.427591 
L 381.807424 137.746141 
L 382.06111 126.816519 
L 382.187953 113.259658 
L 382.251374 118.724669 
L 382.314796 179.887646 
L 382.378217 178.206196 
L 382.441639 179.257252 
L 382.50506 176.945009 
L 382.568482 178.206196 
L 383.075854 191.973189 
L 383.202697 178.836589 
L 383.266118 179.992911 
L 383.32954 183.565941 
L 383.392961 183.040413 
L 383.456382 181.989357 
L 383.519804 183.881338 
L 383.583225 183.250545 
L 383.710068 185.247391 
L 383.836911 176.209349 
L 383.963754 183.460675 
L 384.027176 179.887646 
L 384.154019 191.763057 
L 384.280862 189.450814 
L 384.344283 187.769365 
L 384.471126 177.996064 
L 384.534548 178.10093 
L 384.597969 178.416327 
L 384.661391 177.260405 
L 384.851655 181.569095 
L 385.105341 168.222364 
L 385.232184 181.67436 
L 385.295605 176.840143 
L 385.422448 165.910521 
L 385.48587 167.802102 
L 385.676134 153.404715 
L 385.739556 154.980899 
L 385.866399 150.251947 
L 385.92982 152.143528 
L 386.056663 156.452218 
L 386.183506 155.296296 
L 386.246927 155.611693 
L 386.310349 153.720112 
L 386.437192 158.028802 
L 386.564035 140.688778 
L 386.627456 140.89891 
L 386.690878 142.79049 
L 386.754299 140.057985 
L 386.881142 147.729573 
L 386.944564 143.526149 
L 387.007985 141.634569 
L 387.134828 157.713405 
L 387.19825 155.821824 
L 387.261671 156.662348 
L 387.451936 167.697237 
L 387.578779 171.375132 
L 387.6422 167.907367 
L 387.705621 168.747892 
L 387.769043 171.690529 
L 387.895886 167.171708 
L 387.959307 173.897506 
L 388.022729 172.426188 
L 388.08615 164.7546 
L 388.149572 166.330783 
L 388.212993 171.585663 
L 388.276415 170.429341 
L 388.403258 168.853158 
L 388.466679 171.270266 
L 388.593522 181.464229 
L 388.720365 174.948562 
L 388.783787 176.104484 
L 388.847208 177.470537 
L 389.037473 165.280128 
L 389.100894 167.907367 
L 389.164315 169.798948 
L 389.227737 168.012233 
L 389.35458 175.263559 
L 389.418001 172.741585 
L 389.481423 166.225918 
L 389.608266 182.514885 
L 389.671687 179.467383 
L 389.735109 175.894353 
L 389.861952 188.925686 
L 389.925373 180.518039 
L 389.988795 185.142125 
L 390.052216 196.386943 
L 390.115638 193.234176 
L 390.305902 183.776072 
L 390.369324 182.199488 
L 390.496167 171.270266 
L 390.623009 168.537761 
L 390.749852 163.283281 
L 390.940117 168.643027 
L 391.06696 171.165001 
L 391.130381 167.38184 
L 391.193803 169.483552 
L 391.320646 181.148833 
L 391.447489 198.698987 
L 391.574332 188.294893 
L 391.637753 191.132464 
L 391.828018 179.151986 
L 392.081703 190.081608 
L 392.145125 189.135818 
L 392.271968 180.203042 
L 392.335389 185.037259 
L 392.398811 181.67436 
L 392.462232 179.151986 
L 392.525654 182.199488 
L 392.652497 169.063289 
L 392.77934 186.298046 
L 392.842761 183.145679 
L 392.906183 182.725016 
L 392.969604 184.196334 
L 393.159869 178.731724 
L 393.22329 180.203042 
L 393.286712 183.565941 
L 393.413554 178.521593 
L 393.476976 181.464229 
L 393.603819 171.690529 
L 393.66724 173.161847 
L 393.730662 172.846451 
L 393.794083 171.585663 
L 393.920926 180.203042 
L 393.984348 179.677514 
L 394.111191 165.069996 
L 394.174612 168.117499 
L 394.238034 172.846451 
L 394.364877 163.808809 
L 394.681984 198.068393 
L 394.745406 197.438 
L 394.808827 192.708848 
L 394.872248 195.020892 
L 394.999091 202.377283 
L 395.062513 200.06524 
L 395.125934 201.221161 
L 395.189356 202.587414 
L 395.252777 200.380437 
L 395.37962 205.950313 
L 395.569885 190.922333 
L 395.633306 192.288385 
L 395.696728 193.759704 
L 395.760149 192.393451 
L 395.886992 194.600429 
L 395.950414 190.712002 
L 396.013835 193.444507 
L 396.077257 201.641624 
L 396.140678 199.960174 
L 396.267521 190.396605 
L 396.394364 196.597275 
L 396.521207 181.253698 
L 396.584628 186.508578 
L 396.64805 188.190028 
L 396.838314 168.32763 
L 396.901736 167.487105 
L 396.965157 171.060136 
L 397.028579 169.168554 
L 397.092 165.069996 
L 397.218843 185.142125 
L 397.282265 178.626458 
L 397.345686 178.626458 
L 397.409108 198.909118 
L 397.472529 191.657992 
L 397.599372 152.353659 
L 397.662794 152.248794 
L 397.916479 101.804908 
L 397.979901 101.594777 
L 398.043322 102.540567 
L 398.106744 96.865425 
L 398.170165 98.231878 
L 398.36043 121.982302 
L 398.487273 108.950968 
L 398.487273 108.950968 
" clip-path="url(#p01e531e08c)" style="fill: none; stroke: #1f77b4; stroke-width: 1.5; stroke-linecap: square"/>
   </g>
   <g id="patch_3">
    <path d="M 57.6 307.584 
L 57.6 41.472 
" style="fill: none; stroke: #000000; stroke-width: 0.8; stroke-linejoin: miter; stroke-linecap: square"/>
   </g>
   <g id="patch_4">
    <path d="M 414.72 307.584 
L 414.72 41.472 
" style="fill: none; stroke: #000000; stroke-width: 0.8; stroke-linejoin: miter; stroke-linecap: square"/>
   </g>
   <g id="patch_5">
    <path d="M 57.6 307.584 
L 414.72 307.584 
" style="fill: none; stroke: #000000; stroke-width: 0.8; stroke-linejoin: miter; stroke-linecap: square"/>
   </g>
   <g id="patch_6">
    <path d="M 57.6 41.472 
L 414.72 41.472 
" style="fill: none; stroke: #000000; stroke-width: 0.8; stroke-linejoin: miter; stroke-linecap: square"/>
   </g>
   <g id="legend_1">
    <g id="patch_7">
     <path d="M 354.074688 64.150125 
L 407.72 64.150125 
Q 409.72 64.150125 409.72 62.150125 
L 409.72 48.472 
Q 409.72 46.472 407.72 46.472 
L 354.074688 46.472 
Q 352.074688 46.472 352.074688 48.472 
L 352.074688 62.150125 
Q 352.074688 64.150125 354.074688 64.150125 
z
" style="fill: #ffffff; opacity: 0.8; stroke: #cccccc; stroke-linejoin: miter"/>
    </g>
    <g id="line2d_14">
     <path d="M 356.074688 54.570438 
L 366.074688 54.570438 
L 376.074688 54.570438 
" style="fill: none; stroke: #1f77b4; stroke-width: 1.5; stroke-linecap: square"/>
    </g>
    <g id="text_13">
     <!-- set1 -->
     <g transform="translate(384.074688 58.070438)scale(0.1 -0.1)">
      <defs>
       <path id="DejaVuSans-73" d="M 2834 3397 
L 2834 2853 
Q 2591 2978 2328 3040 
Q 2066 3103 1784 3103 
Q 1356 3103 1142 2972 
Q 928 2841 928 2578 
Q 928 2378 1081 2264 
Q 1234 2150 1697 2047 
L 1894 2003 
Q 2506 1872 2764 1633 
Q 3022 1394 3022 966 
Q 3022 478 2636 193 
Q 2250 -91 1575 -91 
Q 1294 -91 989 -36 
Q 684 19 347 128 
L 347 722 
Q 666 556 975 473 
Q 1284 391 1588 391 
Q 1994 391 2212 530 
Q 2431 669 2431 922 
Q 2431 1156 2273 1281 
Q 2116 1406 1581 1522 
L 1381 1569 
Q 847 1681 609 1914 
Q 372 2147 372 2553 
Q 372 3047 722 3315 
Q 1072 3584 1716 3584 
Q 2034 3584 2315 3537 
Q 2597 3491 2834 3397 
z
" transform="scale(0.015625)"/>
       <path id="DejaVuSans-65" d="M 3597 1894 
L 3597 1613 
L 953 1613 
Q 991 1019 1311 708 
Q 1631 397 2203 397 
Q 2534 397 2845 478 
Q 3156 559 3463 722 
L 3463 178 
Q 3153 47 2828 -22 
Q 2503 -91 2169 -91 
Q 1331 -91 842 396 
Q 353 884 353 1716 
Q 353 2575 817 3079 
Q 1281 3584 2069 3584 
Q 2775 3584 3186 3129 
Q 3597 2675 3597 1894 
z
M 3022 2063 
Q 3016 2534 2758 2815 
Q 2500 3097 2075 3097 
Q 1594 3097 1305 2825 
Q 1016 2553 972 2059 
L 3022 2063 
z
" transform="scale(0.015625)"/>
       <path id="DejaVuSans-74" d="M 1172 4494 
L 1172 3500 
L 2356 3500 
L 2356 3053 
L 1172 3053 
L 1172 1153 
Q 1172 725 1289 603 
Q 1406 481 1766 481 
L 2356 481 
L 2356 0 
L 1766 0 
Q 1100 0 847 248 
Q 594 497 594 1153 
L 594 3053 
L 172 3053 
L 172 3500 
L 594 3500 
L 594 4494 
L 1172 4494 
z
" transform="scale(0.015625)"/>
      </defs>
      <use xlink:href="#DejaVuSans-73"/>
      <use xlink:href="#DejaVuSans-65" x="52.099609"/>
      <use xlink:href="#DejaVuSans-74" x="113.623047"/>
      <use xlink:href="#DejaVuSans-31" x="152.832031"/>
     </g>
    </g>
   </g>
  </g>
 </g>
 <defs>
  <clipPath id="p01e531e08c">
   <rect x="57.6" y="41.472" width="357.12" height="266.112"/>
  </clipPath>
 </defs>
</svg>
