<?xml version="1.0" encoding="utf-8" standalone="no"?>
<!DOCTYPE svg PUBLIC "-//W3C//DTD SVG 1.1//EN"
  "http://www.w3.org/Graphics/SVG/1.1/DTD/svg11.dtd">
<svg xmlns:xlink="http://www.w3.org/1999/xlink" width="460.8pt" height="345.6pt" viewBox="0 0 460.8 345.6" xmlns="http://www.w3.org/2000/svg" version="1.1">
 <metadata>
  <rdf:RDF xmlns:dc="http://purl.org/dc/elements/1.1/" xmlns:cc="http://creativecommons.org/ns#" xmlns:rdf="http://www.w3.org/1999/02/22-rdf-syntax-ns#">
   <cc:Work>
    <dc:type rdf:resource="http://purl.org/dc/dcmitype/StillImage"/>
    <dc:date>2022-08-11T15:19:06.651823</dc:date>
    <dc:format>image/svg+xml</dc:format>
    <dc:creator>
     <cc:Agent>
      <dc:title>Matplotlib v3.5.2, https://matplotlib.org/</dc:title>
     </cc:Agent>
    </dc:creator>
   </cc:Work>
  </rdf:RDF>
 </metadata>
 <defs>
  <style type="text/css">*{stroke-linejoin: round; stroke-linecap: butt}</style>
 </defs>
 <g id="figure_1">
  <g id="patch_1">
   <path d="M 0 345.6 
L 460.8 345.6 
L 460.8 0 
L 0 0 
z
" style="fill: #ffffff"/>
  </g>
  <g id="axes_1">
   <g id="patch_2">
    <path d="M 57.6 307.584 
L 414.72 307.584 
L 414.72 41.472 
L 57.6 41.472 
z
" style="fill: #ffffff"/>
   </g>
   <g id="matplotlib.axis_1">
    <g id="xtick_1">
     <g id="line2d_1">
      <defs>
       <path id="m7a8934605c" d="M 0 0 
L 0 3.5 
" style="stroke: #000000; stroke-width: 0.8"/>
      </defs>
      <g>
       <use xlink:href="#m7a8934605c" x="73.832727" y="307.584" style="stroke: #000000; stroke-width: 0.8"/>
      </g>
     </g>
     <g id="text_1">
      <!-- 0 -->
      <g transform="translate(70.651477 322.182437)scale(0.1 -0.1)">
       <defs>
        <path id="DejaVuSans-30" d="M 2034 4250 
Q 1547 4250 1301 3770 
Q 1056 3291 1056 2328 
Q 1056 1369 1301 889 
Q 1547 409 2034 409 
Q 2525 409 2770 889 
Q 3016 1369 3016 2328 
Q 3016 3291 2770 3770 
Q 2525 4250 2034 4250 
z
M 2034 4750 
Q 2819 4750 3233 4129 
Q 3647 3509 3647 2328 
Q 3647 1150 3233 529 
Q 2819 -91 2034 -91 
Q 1250 -91 836 529 
Q 422 1150 422 2328 
Q 422 3509 836 4129 
Q 1250 4750 2034 4750 
z
" transform="scale(0.015625)"/>
       </defs>
       <use xlink:href="#DejaVuSans-30"/>
      </g>
     </g>
    </g>
    <g id="xtick_2">
     <g id="line2d_2">
      <g>
       <use xlink:href="#m7a8934605c" x="137.254205" y="307.584" style="stroke: #000000; stroke-width: 0.8"/>
      </g>
     </g>
     <g id="text_2">
      <!-- 1000 -->
      <g transform="translate(124.529205 322.182437)scale(0.1 -0.1)">
       <defs>
        <path id="DejaVuSans-31" d="M 794 531 
L 1825 531 
L 1825 4091 
L 703 3866 
L 703 4441 
L 1819 4666 
L 2450 4666 
L 2450 531 
L 3481 531 
L 3481 0 
L 794 0 
L 794 531 
z
" transform="scale(0.015625)"/>
       </defs>
       <use xlink:href="#DejaVuSans-31"/>
       <use xlink:href="#DejaVuSans-30" x="63.623047"/>
       <use xlink:href="#DejaVuSans-30" x="127.246094"/>
       <use xlink:href="#DejaVuSans-30" x="190.869141"/>
      </g>
     </g>
    </g>
    <g id="xtick_3">
     <g id="line2d_3">
      <g>
       <use xlink:href="#m7a8934605c" x="200.675683" y="307.584" style="stroke: #000000; stroke-width: 0.8"/>
      </g>
     </g>
     <g id="text_3">
      <!-- 2000 -->
      <g transform="translate(187.950683 322.182437)scale(0.1 -0.1)">
       <defs>
        <path id="DejaVuSans-32" d="M 1228 531 
L 3431 531 
L 3431 0 
L 469 0 
L 469 531 
Q 828 903 1448 1529 
Q 2069 2156 2228 2338 
Q 2531 2678 2651 2914 
Q 2772 3150 2772 3378 
Q 2772 3750 2511 3984 
Q 2250 4219 1831 4219 
Q 1534 4219 1204 4116 
Q 875 4013 500 3803 
L 500 4441 
Q 881 4594 1212 4672 
Q 1544 4750 1819 4750 
Q 2544 4750 2975 4387 
Q 3406 4025 3406 3419 
Q 3406 3131 3298 2873 
Q 3191 2616 2906 2266 
Q 2828 2175 2409 1742 
Q 1991 1309 1228 531 
z
" transform="scale(0.015625)"/>
       </defs>
       <use xlink:href="#DejaVuSans-32"/>
       <use xlink:href="#DejaVuSans-30" x="63.623047"/>
       <use xlink:href="#DejaVuSans-30" x="127.246094"/>
       <use xlink:href="#DejaVuSans-30" x="190.869141"/>
      </g>
     </g>
    </g>
    <g id="xtick_4">
     <g id="line2d_4">
      <g>
       <use xlink:href="#m7a8934605c" x="264.097161" y="307.584" style="stroke: #000000; stroke-width: 0.8"/>
      </g>
     </g>
     <g id="text_4">
      <!-- 3000 -->
      <g transform="translate(251.372161 322.182437)scale(0.1 -0.1)">
       <defs>
        <path id="DejaVuSans-33" d="M 2597 2516 
Q 3050 2419 3304 2112 
Q 3559 1806 3559 1356 
Q 3559 666 3084 287 
Q 2609 -91 1734 -91 
Q 1441 -91 1130 -33 
Q 819 25 488 141 
L 488 750 
Q 750 597 1062 519 
Q 1375 441 1716 441 
Q 2309 441 2620 675 
Q 2931 909 2931 1356 
Q 2931 1769 2642 2001 
Q 2353 2234 1838 2234 
L 1294 2234 
L 1294 2753 
L 1863 2753 
Q 2328 2753 2575 2939 
Q 2822 3125 2822 3475 
Q 2822 3834 2567 4026 
Q 2313 4219 1838 4219 
Q 1578 4219 1281 4162 
Q 984 4106 628 3988 
L 628 4550 
Q 988 4650 1302 4700 
Q 1616 4750 1894 4750 
Q 2613 4750 3031 4423 
Q 3450 4097 3450 3541 
Q 3450 3153 3228 2886 
Q 3006 2619 2597 2516 
z
" transform="scale(0.015625)"/>
       </defs>
       <use xlink:href="#DejaVuSans-33"/>
       <use xlink:href="#DejaVuSans-30" x="63.623047"/>
       <use xlink:href="#DejaVuSans-30" x="127.246094"/>
       <use xlink:href="#DejaVuSans-30" x="190.869141"/>
      </g>
     </g>
    </g>
    <g id="xtick_5">
     <g id="line2d_5">
      <g>
       <use xlink:href="#m7a8934605c" x="327.518639" y="307.584" style="stroke: #000000; stroke-width: 0.8"/>
      </g>
     </g>
     <g id="text_5">
      <!-- 4000 -->
      <g transform="translate(314.793639 322.182437)scale(0.1 -0.1)">
       <defs>
        <path id="DejaVuSans-34" d="M 2419 4116 
L 825 1625 
L 2419 1625 
L 2419 4116 
z
M 2253 4666 
L 3047 4666 
L 3047 1625 
L 3713 1625 
L 3713 1100 
L 3047 1100 
L 3047 0 
L 2419 0 
L 2419 1100 
L 313 1100 
L 313 1709 
L 2253 4666 
z
" transform="scale(0.015625)"/>
       </defs>
       <use xlink:href="#DejaVuSans-34"/>
       <use xlink:href="#DejaVuSans-30" x="63.623047"/>
       <use xlink:href="#DejaVuSans-30" x="127.246094"/>
       <use xlink:href="#DejaVuSans-30" x="190.869141"/>
      </g>
     </g>
    </g>
    <g id="xtick_6">
     <g id="line2d_6">
      <g>
       <use xlink:href="#m7a8934605c" x="390.940117" y="307.584" style="stroke: #000000; stroke-width: 0.8"/>
      </g>
     </g>
     <g id="text_6">
      <!-- 5000 -->
      <g transform="translate(378.215117 322.182437)scale(0.1 -0.1)">
       <defs>
        <path id="DejaVuSans-35" d="M 691 4666 
L 3169 4666 
L 3169 4134 
L 1269 4134 
L 1269 2991 
Q 1406 3038 1543 3061 
Q 1681 3084 1819 3084 
Q 2600 3084 3056 2656 
Q 3513 2228 3513 1497 
Q 3513 744 3044 326 
Q 2575 -91 1722 -91 
Q 1428 -91 1123 -41 
Q 819 9 494 109 
L 494 744 
Q 775 591 1075 516 
Q 1375 441 1709 441 
Q 2250 441 2565 725 
Q 2881 1009 2881 1497 
Q 2881 1984 2565 2268 
Q 2250 2553 1709 2553 
Q 1456 2553 1204 2497 
Q 953 2441 691 2322 
L 691 4666 
z
" transform="scale(0.015625)"/>
       </defs>
       <use xlink:href="#DejaVuSans-35"/>
       <use xlink:href="#DejaVuSans-30" x="63.623047"/>
       <use xlink:href="#DejaVuSans-30" x="127.246094"/>
       <use xlink:href="#DejaVuSans-30" x="190.869141"/>
      </g>
     </g>
    </g>
   </g>
   <g id="matplotlib.axis_2">
    <g id="ytick_1">
     <g id="line2d_7">
      <defs>
       <path id="m98807e70a4" d="M 0 0 
L -3.5 0 
" style="stroke: #000000; stroke-width: 0.8"/>
      </defs>
      <g>
       <use xlink:href="#m98807e70a4" x="57.6" y="278.012018" style="stroke: #000000; stroke-width: 0.8"/>
      </g>
     </g>
     <g id="text_7">
      <!-- 3900 -->
      <g transform="translate(25.15 281.811237)scale(0.1 -0.1)">
       <defs>
        <path id="DejaVuSans-39" d="M 703 97 
L 703 672 
Q 941 559 1184 500 
Q 1428 441 1663 441 
Q 2288 441 2617 861 
Q 2947 1281 2994 2138 
Q 2813 1869 2534 1725 
Q 2256 1581 1919 1581 
Q 1219 1581 811 2004 
Q 403 2428 403 3163 
Q 403 3881 828 4315 
Q 1253 4750 1959 4750 
Q 2769 4750 3195 4129 
Q 3622 3509 3622 2328 
Q 3622 1225 3098 567 
Q 2575 -91 1691 -91 
Q 1453 -91 1209 -44 
Q 966 3 703 97 
z
M 1959 2075 
Q 2384 2075 2632 2365 
Q 2881 2656 2881 3163 
Q 2881 3666 2632 3958 
Q 2384 4250 1959 4250 
Q 1534 4250 1286 3958 
Q 1038 3666 1038 3163 
Q 1038 2656 1286 2365 
Q 1534 2075 1959 2075 
z
" transform="scale(0.015625)"/>
       </defs>
       <use xlink:href="#DejaVuSans-33"/>
       <use xlink:href="#DejaVuSans-39" x="63.623047"/>
       <use xlink:href="#DejaVuSans-30" x="127.246094"/>
       <use xlink:href="#DejaVuSans-30" x="190.869141"/>
      </g>
     </g>
    </g>
    <g id="ytick_2">
     <g id="line2d_8">
      <g>
       <use xlink:href="#m98807e70a4" x="57.6" y="242.327904" style="stroke: #000000; stroke-width: 0.8"/>
      </g>
     </g>
     <g id="text_8">
      <!-- 3950 -->
      <g transform="translate(25.15 246.127123)scale(0.1 -0.1)">
       <use xlink:href="#DejaVuSans-33"/>
       <use xlink:href="#DejaVuSans-39" x="63.623047"/>
       <use xlink:href="#DejaVuSans-35" x="127.246094"/>
       <use xlink:href="#DejaVuSans-30" x="190.869141"/>
      </g>
     </g>
    </g>
    <g id="ytick_3">
     <g id="line2d_9">
      <g>
       <use xlink:href="#m98807e70a4" x="57.6" y="206.64379" style="stroke: #000000; stroke-width: 0.8"/>
      </g>
     </g>
     <g id="text_9">
      <!-- 4000 -->
      <g transform="translate(25.15 210.443009)scale(0.1 -0.1)">
       <use xlink:href="#DejaVuSans-34"/>
       <use xlink:href="#DejaVuSans-30" x="63.623047"/>
       <use xlink:href="#DejaVuSans-30" x="127.246094"/>
       <use xlink:href="#DejaVuSans-30" x="190.869141"/>
      </g>
     </g>
    </g>
    <g id="ytick_4">
     <g id="line2d_10">
      <g>
       <use xlink:href="#m98807e70a4" x="57.6" y="170.959676" style="stroke: #000000; stroke-width: 0.8"/>
      </g>
     </g>
     <g id="text_10">
      <!-- 4050 -->
      <g transform="translate(25.15 174.758894)scale(0.1 -0.1)">
       <use xlink:href="#DejaVuSans-34"/>
       <use xlink:href="#DejaVuSans-30" x="63.623047"/>
       <use xlink:href="#DejaVuSans-35" x="127.246094"/>
       <use xlink:href="#DejaVuSans-30" x="190.869141"/>
      </g>
     </g>
    </g>
    <g id="ytick_5">
     <g id="line2d_11">
      <g>
       <use xlink:href="#m98807e70a4" x="57.6" y="135.275561" style="stroke: #000000; stroke-width: 0.8"/>
      </g>
     </g>
     <g id="text_11">
      <!-- 4100 -->
      <g transform="translate(25.15 139.07478)scale(0.1 -0.1)">
       <use xlink:href="#DejaVuSans-34"/>
       <use xlink:href="#DejaVuSans-31" x="63.623047"/>
       <use xlink:href="#DejaVuSans-30" x="127.246094"/>
       <use xlink:href="#DejaVuSans-30" x="190.869141"/>
      </g>
     </g>
    </g>
    <g id="ytick_6">
     <g id="line2d_12">
      <g>
       <use xlink:href="#m98807e70a4" x="57.6" y="99.591447" style="stroke: #000000; stroke-width: 0.8"/>
      </g>
     </g>
     <g id="text_12">
      <!-- 4150 -->
      <g transform="translate(25.15 103.390666)scale(0.1 -0.1)">
       <use xlink:href="#DejaVuSans-34"/>
       <use xlink:href="#DejaVuSans-31" x="63.623047"/>
       <use xlink:href="#DejaVuSans-35" x="127.246094"/>
       <use xlink:href="#DejaVuSans-30" x="190.869141"/>
      </g>
     </g>
    </g>
    <g id="ytick_7">
     <g id="line2d_13">
      <g>
       <use xlink:href="#m98807e70a4" x="57.6" y="63.907333" style="stroke: #000000; stroke-width: 0.8"/>
      </g>
     </g>
     <g id="text_13">
      <!-- 4200 -->
      <g transform="translate(25.15 67.706552)scale(0.1 -0.1)">
       <use xlink:href="#DejaVuSans-34"/>
       <use xlink:href="#DejaVuSans-32" x="63.623047"/>
       <use xlink:href="#DejaVuSans-30" x="127.246094"/>
       <use xlink:href="#DejaVuSans-30" x="190.869141"/>
      </g>
     </g>
    </g>
   </g>
   <g id="line2d_14">
    <path d="M 73.832727 117.891055 
L 73.896149 121.825369 
L 73.95957 120.086813 
L 74.022992 119.995512 
L 74.086413 122.28292 
L 74.149835 120.727315 
L 74.213256 118.622859 
L 74.403521 128.87089 
L 74.466942 127.864138 
L 74.720628 120.361414 
L 74.974314 117.067603 
L 75.164578 126.491833 
L 75.291421 117.341855 
L 75.418264 120.178463 
L 75.481686 120.361414 
L 75.608529 116.701353 
L 75.735372 127.315286 
L 75.798793 119.995512 
L 75.862215 122.008319 
L 75.925636 131.981751 
L 75.989058 130.792047 
L 76.052479 128.413339 
L 76.1159 131.6155 
L 76.242743 125.57673 
L 76.369586 132.896504 
L 76.496429 118.897459 
L 76.559851 122.19127 
L 76.623272 122.008319 
L 76.686694 118.074006 
L 76.750115 118.989108 
L 76.813537 119.35501 
L 76.94038 114.322644 
L 77.194066 123.563924 
L 77.257487 123.380973 
L 77.320909 119.812561 
L 77.38433 121.001916 
L 77.638016 136.739516 
L 77.701437 139.210048 
L 77.82828 124.753278 
L 77.891702 128.32169 
L 77.955123 129.511044 
L 78.018545 126.766433 
L 78.081966 128.047089 
L 78.272231 131.890101 
L 78.335652 131.7988 
L 78.525917 130.609097 
L 78.779603 137.654618 
L 78.843024 136.922467 
L 79.033288 129.145142 
L 79.09671 132.713553 
L 79.160131 129.785644 
L 79.286974 118.348607 
L 79.350396 121.276516 
L 79.413817 118.714508 
L 79.477239 120.636014 
L 79.604082 127.132335 
L 79.667503 127.589886 
L 79.730925 129.694343 
L 79.794346 129.328093 
L 79.857768 129.694343 
L 79.984611 132.164701 
L 80.048032 131.7988 
L 80.174875 127.864138 
L 80.301718 130.243195 
L 80.428561 126.125931 
L 80.491982 129.877294 
L 80.555404 127.315286 
L 80.682247 121.642418 
L 80.745668 123.563924 
L 80.935933 105.081365 
L 80.999354 107.826323 
L 81.062776 108.466825 
L 81.25304 106.72827 
L 81.443305 120.453063 
L 81.506726 116.518402 
L 81.570148 117.525154 
L 81.633569 120.818965 
L 81.823833 106.362369 
L 81.887255 107.460422 
L 81.950676 128.138739 
L 82.014098 127.315286 
L 82.140941 129.694343 
L 82.204362 129.145142 
L 82.267784 129.694343 
L 82.394627 128.138739 
L 82.52147 133.262754 
L 82.648313 124.936228 
L 82.711734 129.968595 
L 82.838577 121.276516 
L 82.96542 130.243195 
L 83.028842 129.236792 
L 83.092263 128.687591 
L 83.219106 120.727315 
L 83.345949 134.360459 
L 83.40937 131.890101 
L 83.536213 126.400184 
L 83.599635 126.491833 
L 83.663056 129.236792 
L 83.789899 142.77846 
L 84.043585 119.537961 
L 84.170428 134.452108 
L 84.23385 130.792047 
L 84.297271 126.491833 
L 84.424114 132.164701 
L 84.550957 128.230388 
L 84.6778 132.988154 
L 84.804643 129.328093 
L 84.868064 132.073051 
L 85.058329 117.067603 
L 85.12175 117.433504 
L 85.185172 116.427101 
L 85.312015 120.361414 
L 85.375436 118.80581 
L 85.438858 115.8779 
L 85.565701 124.478677 
L 85.692544 116.518402 
L 85.819387 133.354055 
L 85.94623 124.387376 
L 86.009651 128.047089 
L 86.326758 114.322644 
L 86.643866 122.28292 
L 86.707287 117.708105 
L 86.770709 119.812561 
L 86.83413 127.223636 
L 86.897552 124.021475 
L 86.960973 118.256957 
L 87.024395 119.720912 
L 87.151238 123.014722 
L 87.278081 131.6155 
L 87.468345 117.433504 
L 87.658609 120.910266 
L 87.722031 120.361414 
L 87.785452 118.074006 
L 87.912295 122.099969 
L 88.039138 120.178463 
L 88.10256 122.28292 
L 88.229403 118.165656 
L 88.356246 124.387376 
L 88.483089 117.433504 
L 88.54651 120.361414 
L 88.609932 120.178463 
L 88.736775 107.277122 
L 88.863618 110.205032 
L 89.053882 106.087768 
L 89.117303 105.721867 
L 89.307568 116.1525 
L 89.370989 111.028833 
L 89.434411 108.558126 
L 89.561254 117.158904 
L 89.624675 116.884652 
L 89.81494 122.55752 
L 89.878361 129.877294 
L 89.941783 126.491833 
L 90.005204 118.714508 
L 90.132047 94.193179 
L 90.322312 115.511998 
L 90.385733 115.420697 
L 90.449154 107.734673 
L 90.512576 108.558126 
L 90.639419 122.099969 
L 90.956526 105.813167 
L 91.019948 108.832726 
L 91.083369 108.924376 
L 91.146791 108.558126 
L 91.273634 113.31624 
L 91.463898 107.002871 
L 91.52732 105.264315 
L 91.654163 108.283874 
L 91.717584 105.813167 
L 91.781006 106.270719 
L 91.844427 107.277122 
L 91.907848 105.721867 
L 91.97127 106.545319 
L 92.034691 107.185821 
L 92.098113 106.362369 
L 92.224956 110.388331 
L 92.351799 108.009274 
L 92.478642 110.754232 
L 92.542063 108.832726 
L 92.605485 109.656179 
L 92.732328 120.727315 
L 92.795749 118.165656 
L 92.859171 117.616455 
L 92.922592 118.256957 
L 93.112857 98.493394 
L 93.303121 120.544365 
L 93.366542 116.793002 
L 93.493385 107.551723 
L 93.556807 109.107327 
L 93.620228 106.72827 
L 93.68365 108.649776 
L 93.810493 117.525154 
L 93.937336 109.381579 
L 94.064179 122.099969 
L 94.1276 118.80581 
L 94.254443 108.375175 
L 94.508129 128.230388 
L 94.634972 131.890101 
L 94.698394 130.700747 
L 94.952079 108.100575 
L 95.015501 109.83913 
L 95.142344 120.727315 
L 95.332608 114.871496 
L 95.459451 120.453063 
L 95.586294 116.427101 
L 95.713137 121.550768 
L 95.776559 120.453063 
L 95.903402 118.714508 
L 96.093666 114.230994 
L 96.347352 96.480587 
L 96.537616 100.048998 
L 96.601038 99.133896 
L 96.664459 96.846489 
L 96.791302 105.538916 
L 96.918145 90.258518 
L 97.171831 108.466825 
L 97.235253 107.734673 
L 97.298674 105.630217 
L 97.362096 106.81992 
L 97.615781 110.571282 
L 97.742624 106.087768 
L 97.869467 120.453063 
L 97.932889 118.074006 
L 97.99631 116.975953 
L 98.123153 121.825369 
L 98.249996 104.349213 
L 98.503682 120.086813 
L 98.567104 116.975953 
L 98.630525 114.963146 
L 98.757368 118.165656 
L 98.884211 106.72827 
L 98.947633 110.296681 
L 99.074475 117.158904 
L 99.137897 117.891055 
L 99.26474 121.734067 
L 99.328161 118.989108 
L 99.391583 119.720912 
L 99.455004 121.367817 
L 99.581847 119.537961 
L 99.645269 121.367817 
L 99.70869 120.361414 
L 99.772112 119.446311 
L 99.898955 132.164701 
L 99.962376 128.047089 
L 100.089219 119.537961 
L 100.152641 121.459467 
L 100.216062 120.453063 
L 100.279484 119.172059 
L 100.342905 119.537961 
L 100.406327 120.178463 
L 100.469748 119.995512 
L 100.533169 119.35501 
L 100.596591 120.086813 
L 100.723434 129.328093 
L 100.850277 122.099969 
L 100.97712 131.066648 
L 101.103963 115.694949 
L 101.230806 102.519357 
L 101.294227 107.460422 
L 101.42107 84.494348 
L 101.484492 85.043201 
L 101.547913 94.10153 
L 101.611335 90.624768 
L 101.674756 86.049953 
L 101.991863 107.551723 
L 102.055285 104.898414 
L 102.118706 106.63662 
L 102.435814 128.962192 
L 102.562657 124.661977 
L 102.6895 129.694343 
L 103.006607 114.322644 
L 103.070029 116.335451 
L 103.13345 116.975953 
L 103.196872 116.24415 
L 103.260293 116.884652 
L 103.450557 107.643373 
L 103.831086 127.315286 
L 104.021351 107.643373 
L 104.084772 110.296681 
L 104.148194 110.205032 
L 104.592144 79.553284 
L 104.782408 85.317801 
L 104.909251 85.226152 
L 104.972673 85.500753 
L 105.162937 88.245711 
L 105.28978 96.755187 
L 105.480045 74.795518 
L 105.606888 85.958303 
L 105.733731 81.566439 
L 105.797152 87.147658 
L 105.860574 86.415854 
L 105.923995 83.762197 
L 106.050838 98.676344 
L 106.11426 95.290884 
L 106.177681 92.180024 
L 106.241102 94.284481 
L 106.367945 128.962192 
L 106.431367 131.249599 
L 106.494788 130.517796 
L 106.55821 129.785644 
L 107.065582 138.843973 
L 107.129003 136.922467 
L 107.255846 127.772837 
L 107.382689 130.517796 
L 107.446111 129.328093 
L 107.509532 131.6155 
L 107.699796 142.137958 
L 107.763218 142.412384 
L 108.080325 124.936228 
L 108.143747 124.112776 
L 108.334011 138.935448 
L 108.397433 132.713553 
L 108.460854 134.269158 
L 108.524276 143.693388 
L 108.587697 143.052886 
L 108.651119 137.014116 
L 108.71454 137.74592 
L 108.777962 138.752497 
L 108.841383 137.92887 
L 109.031648 143.144362 
L 109.095069 140.948429 
L 109.15849 143.052886 
L 109.285333 154.855999 
L 109.412176 152.294165 
L 109.475598 155.222075 
L 109.539019 154.673048 
L 109.665862 150.281185 
L 109.792705 153.941072 
L 109.856127 153.666645 
L 109.98297 164.371879 
L 110.046391 160.986419 
L 110.173234 153.30057 
L 110.42692 165.195332 
L 110.490342 164.463355 
L 110.553763 162.358898 
L 110.617184 163.639902 
L 110.680606 164.463355 
L 110.744027 163.914328 
L 110.87087 162.541849 
L 110.997713 164.920906 
L 111.061135 162.633324 
L 111.124556 163.914328 
L 111.187978 162.633324 
L 111.441664 141.588931 
L 111.505085 144.150765 
L 111.568507 152.751543 
L 111.631928 150.64726 
L 111.69535 146.804249 
L 111.758771 149.091656 
L 112.012457 161.077894 
L 112.075878 159.613939 
L 112.1393 154.215672 
L 112.202721 154.490098 
L 112.329564 165.835834 
L 112.392986 163.639902 
L 112.58325 155.954052 
L 112.646672 158.058509 
L 112.773515 163.182351 
L 112.836936 169.404246 
L 112.900358 169.31277 
L 112.963779 162.358898 
L 113.027201 163.365302 
L 113.090622 166.659287 
L 113.217465 159.980016 
L 113.280887 161.901347 
L 113.344308 160.986419 
L 113.407729 161.077894 
L 113.471151 162.541849 
L 113.597994 155.954052 
L 113.661415 158.149985 
L 113.85168 164.737781 
L 113.915101 165.561234 
L 113.978523 163.456777 
L 114.041944 164.097279 
L 114.105366 169.03817 
L 114.168787 167.574215 
L 114.29563 162.541849 
L 114.359052 163.731377 
L 114.422473 101.695904 
L 114.485895 107.917624 
L 114.549316 107.094171 
L 114.676159 116.701353 
L 114.803002 111.303085 
L 114.929845 119.720912 
L 115.056688 117.433504 
L 115.120109 117.708105 
L 115.183531 121.550768 
L 115.246952 118.80581 
L 115.310374 117.525154 
L 115.373795 124.844928 
L 115.437217 122.831772 
L 115.500638 115.146097 
L 115.56406 116.975953 
L 115.754324 131.066648 
L 115.881167 126.674783 
L 116.00801 130.792047 
L 116.134853 126.034282 
L 116.198275 128.047089 
L 116.325117 144.05929 
L 116.388539 139.667426 
L 116.705646 161.809871 
L 116.832489 140.674003 
L 116.959332 154.032546 
L 117.086175 141.954833 
L 117.149597 145.61472 
L 117.27644 138.935448 
L 117.403283 143.876339 
L 117.530126 131.524199 
L 117.656969 142.50386 
L 117.72039 140.033501 
L 117.783811 137.562969 
L 117.910654 142.320909 
L 118.037497 138.294946 
L 118.227762 146.987199 
L 118.354605 140.033501 
L 118.418026 140.490878 
L 118.544869 144.974392 
L 118.798555 140.216452 
L 118.861977 141.405981 
L 118.98882 132.988154 
L 119.052241 138.111821 
L 119.115663 136.464916 
L 119.179084 135.183912 
L 119.305927 146.072271 
L 119.43277 139.118399 
L 119.496191 139.942026 
L 119.559613 138.02052 
L 119.686456 142.77846 
L 119.87672 127.589886 
L 120.003563 129.236792 
L 120.193828 126.674783 
L 120.257249 126.583134 
L 120.320671 127.498237 
L 120.384092 126.674783 
L 120.447514 127.406587 
L 120.510935 129.877294 
L 120.574356 129.511044 
L 120.637778 129.602694 
L 120.828042 132.805203 
L 120.891464 132.713553 
L 121.208571 115.969549 
L 121.271993 118.074006 
L 121.335414 119.720912 
L 121.462257 91.814122 
L 121.525679 92.912175 
L 121.5891 97.21239 
L 121.652522 95.840085 
L 121.842786 82.938744 
L 122.03305 97.761591 
L 122.159893 88.337361 
L 122.286736 95.199583 
L 122.350158 93.82693 
L 122.477001 85.500753 
L 122.540422 105.447266 
L 122.603844 104.623814 
L 122.85753 115.420697 
L 122.984373 106.270719 
L 123.111216 121.001916 
L 123.174637 115.603648 
L 123.238059 115.969549 
L 123.30148 119.08041 
L 123.364902 115.603648 
L 123.428323 117.250553 
L 123.491744 124.387376 
L 123.555166 122.374221 
L 123.618587 120.636014 
L 123.682009 126.125931 
L 123.74543 122.099969 
L 123.808852 115.603648 
L 123.935695 129.145142 
L 124.062538 117.525154 
L 124.125959 120.361414 
L 124.189381 119.537961 
L 124.252802 118.989108 
L 124.443067 129.785644 
L 124.633331 115.420697 
L 124.696753 120.544365 
L 124.760174 124.478677 
L 124.823596 121.459467 
L 124.950438 131.341249 
L 125.01386 125.48543 
L 125.077281 117.433504 
L 125.140703 120.727315 
L 125.267546 121.459467 
L 125.330967 127.498237 
L 125.394389 126.583134 
L 125.521232 116.24415 
L 125.584653 116.884652 
L 125.711496 113.31624 
L 125.838339 117.525154 
L 125.901761 116.884652 
L 125.965182 118.165656 
L 126.092025 114.871496 
L 126.155447 121.276516 
L 126.218868 120.544365 
L 126.28229 114.780196 
L 126.409132 126.308882 
L 126.535975 118.256957 
L 126.662818 127.315286 
L 126.789661 114.413945 
L 126.916504 119.537961 
L 126.979926 115.786599 
L 127.043347 118.439908 
L 127.106769 120.544365 
L 127.17019 119.263361 
L 127.233612 119.812561 
L 127.297033 117.799406 
L 127.360455 120.086813 
L 127.423876 129.785644 
L 127.487298 126.949384 
L 127.550719 117.341855 
L 127.614141 122.923422 
L 127.677562 125.942633 
L 127.740984 121.734067 
L 127.867826 129.236792 
L 127.994669 116.427101 
L 128.058091 118.348607 
L 128.121512 116.427101 
L 128.248355 120.544365 
L 128.311777 117.708105 
L 128.375198 118.80581 
L 128.43862 121.093565 
L 128.502041 120.269764 
L 128.628884 118.074006 
L 128.755727 121.367817 
L 128.88257 107.551723 
L 128.945992 110.022081 
L 129.263099 89.343764 
L 129.32652 90.075567 
L 129.389942 98.127492 
L 129.643628 80.285435 
L 129.707049 76.991624 
L 129.833892 94.37613 
L 129.897314 85.317801 
L 129.960735 86.781757 
L 130.024157 96.114685 
L 130.087578 95.840085 
L 130.341264 89.984266 
L 130.468107 99.866048 
L 130.658371 85.775352 
L 130.721793 84.402699 
L 130.785214 86.232904 
L 130.912057 100.048998 
L 130.975479 99.042595 
L 131.0389 95.840085 
L 131.102322 98.035842 
L 131.229165 108.283874 
L 131.292586 108.009274 
L 131.356008 105.538916 
L 131.482851 92.454624 
L 131.546272 96.114685 
L 131.673115 93.461028 
L 131.799958 107.826323 
L 131.926801 94.559081 
L 131.990223 100.6895 
L 132.053644 98.219142 
L 132.117065 98.493394 
L 132.30733 106.545319 
L 132.370751 109.656179 
L 132.434173 107.917624 
L 132.497594 104.074961 
L 132.561016 105.172665 
L 132.624437 105.264315 
L 132.687859 103.34281 
L 132.878123 112.218187 
L 132.941545 109.290278 
L 133.004966 105.721867 
L 133.068388 105.813167 
L 133.131809 107.460422 
L 133.195231 106.63662 
L 133.258652 107.002871 
L 133.385495 120.453063 
L 133.448917 116.24415 
L 133.702602 101.512953 
L 133.956288 108.466825 
L 134.01971 106.453669 
L 134.146553 95.931386 
L 134.273396 110.662583 
L 134.400239 102.336406 
L 134.653925 112.675738 
L 134.907611 100.6895 
L 134.971032 103.61741 
L 135.161296 121.367817 
L 135.478404 106.087768 
L 135.541825 107.551723 
L 135.605247 108.192225 
L 135.795511 106.362369 
L 135.858933 105.264315 
L 135.922354 105.355965 
L 135.985776 106.63662 
L 136.049197 106.179418 
L 136.239462 96.846489 
L 136.302883 97.486991 
L 136.366304 97.669941 
L 136.556569 82.389892 
L 136.61999 84.86025 
L 136.683412 84.9519 
L 136.746833 83.853846 
L 136.937098 74.337967 
L 137.000519 74.337967 
L 137.063941 75.16142 
L 137.190784 81.84104 
L 137.254205 75.801922 
L 137.317627 77.082926 
L 137.381048 80.193785 
L 137.507891 72.874012 
L 137.698156 89.160814 
L 137.761577 89.801316 
L 137.824998 87.87981 
L 137.951841 98.493394 
L 138.015263 96.938138 
L 138.078684 96.571888 
L 138.142106 100.323599 
L 138.205527 99.042595 
L 138.268949 96.114685 
L 138.649478 111.943587 
L 138.712899 106.72827 
L 138.966585 121.459467 
L 139.093428 128.962192 
L 139.220271 115.603648 
L 139.283692 119.720912 
L 139.347114 122.099969 
L 139.410535 118.897459 
L 139.537378 122.648821 
L 139.6008 119.995512 
L 139.791064 134.086207 
L 139.854486 130.151545 
L 139.917907 129.419743 
L 139.981329 129.602694 
L 140.108172 131.524199 
L 140.235015 128.59629 
L 140.488701 144.699792 
L 140.742386 130.060245 
L 140.869229 136.281965 
L 140.996072 130.060245 
L 141.059494 134.269158 
L 141.186337 128.138739 
L 141.31318 144.425366 
L 141.440023 136.831165 
L 141.503444 139.667426 
L 141.566866 137.74592 
L 141.820552 114.505595 
L 141.883973 125.851331 
L 141.947395 118.897459 
L 142.074238 95.382534 
L 142.137659 109.015677 
L 142.20108 104.349213 
L 142.264502 92.912175 
L 142.327923 96.846489 
L 142.518188 107.734673 
L 142.645031 102.336406 
L 142.962138 120.727315 
L 143.088981 119.812561 
L 143.215824 120.727315 
L 143.342667 109.198628 
L 143.406089 105.904817 
L 143.46951 110.022081 
L 143.532932 104.715463 
L 143.659774 83.762197 
L 143.723196 89.343764 
L 143.786617 89.252114 
L 143.850039 86.964707 
L 143.91346 90.89902 
L 143.976882 88.703262 
L 144.040303 82.847443 
L 144.103725 86.232904 
L 144.167146 87.696859 
L 144.230568 86.964707 
L 144.357411 100.597851 
L 144.420832 97.761591 
L 144.611097 84.677299 
L 144.674518 87.513907 
L 144.73794 87.147658 
L 144.928204 76.259473 
L 144.991625 76.076522 
L 145.055047 73.514514 
L 145.18189 58.509065 
L 145.308733 74.704217 
L 145.372154 74.337967 
L 145.435576 67.750345 
L 145.498997 69.946103 
L 145.562419 75.16142 
L 145.689262 62.077477 
L 145.752683 62.351728 
L 145.879526 72.142209 
L 146.069791 53.568 
L 146.196634 66.103439 
L 146.260055 62.99223 
L 146.323477 65.005386 
L 146.450319 77.723428 
L 146.577162 71.867609 
L 146.830848 85.13485 
L 146.957691 235.557157 
L 147.021113 233.818602 
L 147.084534 227.871307 
L 147.147956 229.152311 
L 147.211377 230.06724 
L 147.33822 226.315878 
L 147.401642 228.054258 
L 147.528485 236.289134 
L 147.655328 227.688183 
L 147.718749 230.982168 
L 147.845592 213.048635 
L 147.909013 215.885069 
L 147.972435 221.191861 
L 148.099278 213.506187 
L 148.226121 225.766851 
L 148.289542 223.204843 
L 148.352964 216.891473 
L 148.416385 216.982949 
L 148.479807 216.06802 
L 148.60665 205.911812 
L 148.670071 207.284292 
L 148.987179 215.153092 
L 149.0506 213.689137 
L 149.177443 207.558718 
L 149.304286 213.689137 
L 149.367707 212.774209 
L 149.431129 210.02925 
L 149.557972 215.976545 
L 149.684815 212.499609 
L 149.875079 216.708522 
L 150.001922 213.597662 
L 150.128765 218.081002 
L 150.255608 202.068975 
L 150.31903 205.179835 
L 150.382451 209.297273 
L 150.445873 208.016269 
L 150.636137 204.630808 
L 150.699559 206.735265 
L 150.826401 201.519949 
L 150.953244 213.872088 
L 151.080087 204.722284 
L 151.143509 204.813759 
L 151.20693 207.284292 
L 151.270352 206.186239 
L 151.397195 198.683514 
L 151.460616 199.324016 
L 151.524038 198.225963 
L 151.650881 192.46162 
L 151.714302 193.285072 
L 151.904567 179.560454 
L 151.967988 181.024408 
L 152.03141 180.841457 
L 152.221674 173.613159 
L 152.285095 175.35154 
L 152.411938 184.867246 
L 152.538781 179.743404 
L 152.665624 189.716661 
L 152.792467 175.809091 
L 152.855889 178.645525 
L 152.91931 188.161231 
L 152.982732 185.690872 
L 153.172996 173.613159 
L 153.236418 173.704634 
L 153.299839 172.972657 
L 153.363261 177.547472 
L 153.426682 191.455216 
L 153.490104 185.141846 
L 153.616946 156.319954 
L 153.680368 157.784083 
L 153.934054 119.172059 
L 154.18774 88.337361 
L 154.251161 88.703262 
L 154.378004 97.944542 
L 154.441426 95.840085 
L 154.504847 97.57864 
L 154.63169 110.022081 
L 154.695112 109.656179 
L 154.758533 104.074961 
L 154.821955 104.349213 
L 155.07564 118.256957 
L 155.139062 117.525154 
L 155.265905 121.917018 
L 155.392748 117.158904 
L 155.456169 118.256957 
L 155.646434 129.145142 
L 155.709855 127.406587 
L 155.773277 129.236792 
L 156.090384 110.388331 
L 156.153806 114.505595 
L 156.34407 123.563924 
L 156.407492 126.857735 
L 156.534334 119.35501 
L 156.597756 119.62961 
L 156.78802 116.975953 
L 156.851442 118.439908 
L 156.914863 118.074006 
L 156.978285 118.439908 
L 157.168549 122.008319 
L 157.295392 131.341249 
L 157.422235 120.818965 
L 157.485657 126.766433 
L 157.549078 124.844928 
L 157.6125 116.701353 
L 157.675921 116.884652 
L 157.739343 120.361414 
L 158.119871 106.179418 
L 158.310136 119.720912 
L 158.436979 117.982357 
L 158.5004 119.903863 
L 158.563822 118.989108 
L 158.627243 119.537961 
L 158.880929 130.243195 
L 159.007772 118.165656 
L 159.071194 119.172059 
L 159.134615 119.903863 
L 159.198037 117.341855 
L 159.261458 118.897459 
L 159.515144 128.687591 
L 159.578565 128.138739 
L 159.641987 128.962192 
L 159.705408 128.230388 
L 159.76883 129.236792 
L 159.832251 132.073051 
L 159.895673 131.890101 
L 160.022516 129.694343 
L 160.085937 130.334845 
L 160.149359 128.962192 
L 160.339623 120.178463 
L 160.466466 116.518402 
L 160.529888 119.537961 
L 160.593309 119.446311 
L 160.656731 117.982357 
L 160.720152 119.172059 
L 160.973838 130.883697 
L 161.100681 126.583134 
L 161.164102 127.955788 
L 161.227524 130.700747 
L 161.354367 124.478677 
L 161.417788 126.034282 
L 161.544631 120.544365 
L 161.608053 127.223636 
L 161.671474 127.132335 
L 161.798317 118.622859 
L 161.92516 123.198022 
L 162.115425 114.871496 
L 162.178846 118.439908 
L 162.242267 117.708105 
L 162.305689 116.975953 
L 162.495953 122.099969 
L 162.622796 130.609097 
L 162.749639 121.093565 
L 162.813061 125.66838 
L 162.876482 123.655224 
L 163.003325 115.8779 
L 163.066747 116.24415 
L 163.130168 131.249599 
L 163.19359 128.779241 
L 163.257011 131.524199 
L 163.383854 128.687591 
L 163.447276 130.792047 
L 163.574119 123.655224 
L 163.700961 132.164701 
L 163.827804 123.198022 
L 163.954647 129.877294 
L 164.018069 127.040686 
L 164.08149 128.047089 
L 164.144912 127.589886 
L 164.398598 119.08041 
L 164.525441 131.158298 
L 164.588862 129.419743 
L 164.652284 129.053841 
L 164.779127 124.387376 
L 164.842548 126.949384 
L 164.90597 133.262754 
L 164.969391 132.622253 
L 165.159655 125.11918 
L 165.223077 116.975953 
L 165.34992 133.171105 
L 165.413341 129.877294 
L 165.476763 127.315286 
L 165.540184 131.6155 
L 165.603606 131.341249 
L 165.730449 123.380973 
L 165.857292 131.890101 
L 165.920713 127.955788 
L 165.984135 128.87089 
L 166.047556 130.426146 
L 166.174399 115.694949 
L 166.237821 117.433504 
L 166.428085 108.466825 
L 166.491507 109.83913 
L 166.554928 109.747829 
L 166.618349 108.466825 
L 166.808614 117.525154 
L 166.872035 113.956743 
L 166.998878 121.825369 
L 167.0623 119.812561 
L 167.125721 118.165656 
L 167.189143 118.256957 
L 167.252564 120.727315 
L 167.442829 105.721867 
L 167.50625 108.466825 
L 167.569672 108.558126 
L 167.759936 118.80581 
L 167.886779 117.891055 
L 167.950201 118.897459 
L 168.013622 122.099969 
L 168.140465 109.56453 
L 168.203886 113.31624 
L 168.457572 128.138739 
L 168.584415 117.525154 
L 168.711258 119.812561 
L 168.77468 120.727315 
L 168.838101 123.838175 
L 168.901523 123.014722 
L 168.964944 117.525154 
L 169.028366 118.622859 
L 169.091787 123.198022 
L 169.155209 121.001916 
L 169.21863 120.086813 
L 169.345473 128.779241 
L 169.408894 122.648821 
L 169.472316 123.929825 
L 169.535737 127.864138 
L 169.66258 117.433504 
L 169.789423 125.942633 
L 169.852845 118.348607 
L 169.916266 121.825369 
L 169.979688 127.864138 
L 170.106531 118.989108 
L 170.169952 120.453063 
L 170.296795 115.8779 
L 170.423638 122.008319 
L 170.550481 119.263361 
L 170.613903 119.903863 
L 170.677324 118.897459 
L 171.057853 134.177508 
L 171.121274 130.883697 
L 171.184696 129.145142 
L 171.311539 87.147658 
L 171.438382 97.944542 
L 171.501803 97.852892 
L 171.565225 98.676344 
L 171.692068 94.924983 
L 171.818911 107.002871 
L 171.882332 104.623814 
L 172.009175 95.290884 
L 172.072597 95.931386 
L 172.136018 95.840085 
L 172.19944 94.559081 
L 172.453125 100.1403 
L 172.516547 99.408496 
L 172.706811 95.657134 
L 172.770233 96.023036 
L 172.833654 95.748435 
L 172.897076 95.565485 
L 173.023919 97.395341 
L 173.150762 94.833681 
L 173.214183 95.016632 
L 173.277605 95.382534 
L 173.404448 102.244756 
L 173.467869 98.402093 
L 173.531291 99.042595 
L 173.658134 105.447266 
L 173.784976 104.532164 
L 173.848398 105.630217 
L 173.911819 109.198628 
L 173.975241 107.551723 
L 174.292348 82.664493 
L 174.35577 88.06276 
L 174.482613 98.859296 
L 174.546034 97.669941 
L 174.672877 93.278077 
L 174.736299 93.735628 
L 174.989985 99.957349 
L 175.116828 93.186776 
L 175.24367 104.715463 
L 175.370513 92.180024 
L 175.433935 92.637575 
L 175.751042 119.446311 
L 175.877885 115.786599 
L 176.004728 106.911221 
L 176.194993 94.65073 
L 176.321836 107.826323 
L 176.385257 102.976908 
L 176.448679 95.565485 
L 176.5121 99.866048 
L 176.638943 107.460422 
L 176.702364 104.806764 
L 176.765786 104.989715 
L 176.892629 110.022081 
L 176.95605 108.924376 
L 177.082893 105.447266 
L 177.146315 105.538916 
L 177.209736 104.989715 
L 177.336579 97.395341 
L 177.463422 91.631171 
L 177.653687 97.944542 
L 177.843951 95.565485 
L 177.907373 96.023036 
L 177.970794 96.388937 
L 178.097637 92.362975 
L 178.351323 107.643373 
L 178.414744 105.355965 
L 178.478166 96.846489 
L 178.541587 98.493394 
L 178.605009 102.244756 
L 178.66843 98.767994 
L 178.731852 101.238353 
L 178.795273 105.355965 
L 178.922116 95.565485 
L 179.048959 107.826323 
L 179.112381 102.885258 
L 179.175802 104.532164 
L 179.366067 121.184867 
L 179.429488 118.165656 
L 179.619752 126.034282 
L 179.683174 131.6155 
L 179.810017 125.11918 
L 179.873438 129.694343 
L 180.000281 120.086813 
L 180.063703 122.008319 
L 180.190546 128.230388 
L 180.253967 128.138739 
L 180.317389 130.060245 
L 180.444232 138.477897 
L 180.571075 133.354055 
L 180.634496 136.007713 
L 180.761339 131.158298 
L 180.824761 132.164701 
L 181.078446 143.052886 
L 181.141868 142.412384 
L 181.268711 128.779241 
L 181.332132 131.066648 
L 181.395554 132.988154 
L 181.522397 129.328093 
L 181.585818 130.883697 
L 181.64924 130.243195 
L 181.712661 128.32169 
L 181.776083 130.334845 
L 181.902926 142.961411 
L 182.029769 134.726709 
L 182.156612 145.61472 
L 182.283455 125.11918 
L 182.473719 105.447266 
L 182.600562 93.095126 
L 182.663983 94.742032 
L 182.790826 97.669941 
L 182.854248 94.924983 
L 182.917669 96.114685 
L 183.171355 113.682142 
L 183.298198 117.433504 
L 183.551884 133.994557 
L 183.615306 132.530603 
L 183.678727 130.060245 
L 183.742149 130.243195 
L 183.868991 132.073051 
L 183.932413 131.341249 
L 183.995834 132.164701 
L 184.186099 115.969549 
L 184.24952 119.446311 
L 184.439785 124.295726 
L 184.566628 118.622859 
L 184.630049 120.453063 
L 185.010578 144.516841 
L 185.391107 116.1525 
L 185.454528 118.80581 
L 185.51795 116.884652 
L 185.771636 93.369727 
L 185.898479 97.486991 
L 186.025322 97.21239 
L 186.088743 97.669941 
L 186.152165 95.748435 
L 186.215586 96.297636 
L 186.279008 96.755187 
L 186.469272 107.368772 
L 186.659536 94.37613 
L 186.786379 98.402093 
L 186.913222 94.924983 
L 187.040065 96.938138 
L 187.103487 94.833681 
L 187.23033 99.774398 
L 187.293751 98.676344 
L 187.420594 95.931386 
L 187.547437 138.569547 
L 187.610859 137.92887 
L 187.737702 131.066648 
L 187.801123 132.988154 
L 187.927966 129.877294 
L 187.991388 130.151545 
L 188.181652 142.229433 
L 188.245073 139.210048 
L 188.308495 140.216452 
L 188.371916 137.288368 
L 188.498759 128.59629 
L 188.562181 132.439302 
L 188.625602 131.432549 
L 188.689024 131.158298 
L 188.879288 143.876339 
L 189.069553 136.099014 
L 189.196396 128.59629 
L 189.259817 128.687591 
L 189.323239 127.864138 
L 189.38666 128.962192 
L 189.513503 137.380018 
L 189.576924 130.243195 
L 189.640346 132.256002 
L 189.703767 142.137958 
L 189.767189 141.680407 
L 189.83061 137.837569 
L 189.894032 140.856954 
L 189.957453 140.582354 
L 190.020875 139.850376 
L 190.147718 154.947649 
L 190.211139 153.758121 
L 190.274561 151.92809 
L 190.337982 152.568592 
L 190.401404 153.941072 
L 190.528247 161.901347 
L 190.591668 160.894943 
L 190.65509 160.803468 
L 190.718511 160.254441 
L 190.781933 157.052105 
L 190.845354 157.692433 
L 190.972197 164.097279 
L 191.035618 162.267423 
L 191.162461 171.051151 
L 191.416147 159.888366 
L 191.479569 160.711992 
L 191.606412 165.561234 
L 191.669833 164.188928 
L 191.733255 164.55483 
L 191.796676 166.293211 
L 191.860098 165.927309 
L 191.986941 163.273826 
L 192.050362 163.365302 
L 192.113784 162.450373 
L 192.240627 157.600958 
L 192.304048 158.332935 
L 192.557734 151.013162 
L 192.621155 146.712773 
L 192.684577 149.549207 
L 192.747998 154.307147 
L 192.81142 153.483694 
L 192.938263 149.183132 
L 193.128527 159.613939 
L 193.191949 157.784083 
L 193.25537 157.875558 
L 193.382213 151.836614 
L 193.509056 166.11026 
L 193.572478 164.188928 
L 193.699321 152.477117 
L 193.889585 159.613939 
L 193.953006 160.254441 
L 194.016428 162.7248 
L 194.079849 162.633324 
L 194.143271 159.705415 
L 194.270114 167.025189 
L 194.396957 159.705415 
L 194.460378 162.175947 
L 194.5238 160.620517 
L 194.587221 159.888366 
L 194.714064 162.7248 
L 194.777486 161.626921 
L 195.031172 164.829256 
L 195.158015 158.699012 
L 195.221436 160.345917 
L 195.284857 164.097279 
L 195.4117 152.568592 
L 195.475122 156.594554 
L 195.538543 162.633324 
L 195.665386 102.519357 
L 195.728808 97.944542 
L 195.855651 111.943587 
L 195.919072 110.296681 
L 196.045915 104.532164 
L 196.172758 113.682142 
L 196.299601 106.270719 
L 196.426444 111.394734 
L 196.489866 108.649776 
L 196.616709 112.309488 
L 196.68013 111.394734 
L 196.743551 111.394734 
L 196.997237 119.62961 
L 197.060659 115.8779 
L 197.12408 116.061199 
L 197.187502 118.165656 
L 197.250923 117.341855 
L 197.377766 114.597245 
L 197.885138 131.70715 
L 198.011981 121.550768 
L 198.075403 116.610051 
L 198.138824 117.708105 
L 198.202245 120.636014 
L 198.265667 120.361414 
L 198.519353 117.433504 
L 198.582774 117.708105 
L 198.709617 105.264315 
L 198.773039 107.002871 
L 198.83646 110.296681 
L 198.899882 109.747829 
L 199.026725 112.126538 
L 199.153568 107.826323 
L 199.343832 120.544365 
L 199.470675 120.178463 
L 199.597518 112.85869 
L 199.660939 113.956743 
L 199.724361 113.590492 
L 199.787782 112.218187 
L 199.978047 118.989108 
L 200.041468 119.903863 
L 200.168311 113.956743 
L 200.295154 118.256957 
L 200.421997 116.427101 
L 200.612262 119.446311 
L 200.675683 120.544365 
L 200.802526 116.518402 
L 200.865948 121.459467 
L 200.99279 109.93078 
L 201.119633 117.616455 
L 201.246476 106.179418 
L 201.309898 110.845534 
L 201.373319 108.558126 
L 201.436741 108.283874 
L 201.753848 119.903863 
L 201.81727 118.80581 
L 201.880691 116.518402 
L 201.944113 117.067603 
L 202.007534 118.622859 
L 202.134377 113.865093 
L 202.197799 117.341855 
L 202.26122 115.694949 
L 202.388063 105.081365 
L 202.514906 109.93078 
L 202.641749 93.369727 
L 202.70517 94.010228 
L 202.768592 97.21239 
L 202.832013 96.297636 
L 202.958856 95.565485 
L 203.022278 92.912175 
L 203.149121 106.270719 
L 203.212542 105.264315 
L 203.275964 99.683097 
L 203.339385 103.708711 
L 203.402807 104.715463 
L 203.52965 93.643979 
L 203.593071 95.748435 
L 203.656493 94.37613 
L 203.719914 117.708105 
L 203.783336 117.616455 
L 203.910178 113.590492 
L 204.037021 117.891055 
L 204.163864 111.120134 
L 204.227286 119.62961 
L 204.290707 119.08041 
L 204.354129 108.832726 
L 204.41755 110.845534 
L 204.480972 120.910266 
L 204.544393 120.818965 
L 204.607815 116.610051 
L 204.671236 118.256957 
L 204.734658 120.453063 
L 204.798079 120.269764 
L 204.924922 110.022081 
L 205.051765 121.917018 
L 205.115187 121.276516 
L 205.368872 111.211784 
L 205.432294 112.492787 
L 205.622558 125.66838 
L 205.68598 126.766433 
L 205.812823 102.793957 
L 205.939666 123.106372 
L 206.066509 115.054447 
L 206.256773 121.734067 
L 206.447038 119.995512 
L 206.510459 120.178463 
L 206.573881 123.655224 
L 206.637302 123.472274 
L 206.827566 108.283874 
L 206.954409 105.996118 
L 207.017831 107.368772 
L 207.144674 116.975953 
L 207.208095 110.388331 
L 207.271517 112.035236 
L 207.334938 116.1525 
L 207.39836 111.577685 
L 207.461781 112.309488 
L 207.525203 117.067603 
L 207.652046 108.924376 
L 207.715467 117.708105 
L 207.778889 113.956743 
L 207.84231 107.185821 
L 207.905732 109.198628 
L 207.969153 109.473228 
L 208.095996 103.434459 
L 208.349682 109.83913 
L 208.413103 109.747829 
L 208.476525 108.100575 
L 208.603368 121.276516 
L 208.666789 117.799406 
L 208.730211 113.04164 
L 208.793632 116.24415 
L 208.857054 118.897459 
L 208.920475 118.074006 
L 208.983897 118.439908 
L 209.11074 121.276516 
L 209.237583 115.329048 
L 209.301004 116.427101 
L 209.364426 117.433504 
L 209.491269 121.734067 
L 209.55469 114.780196 
L 209.618111 115.694949 
L 209.681533 124.387376 
L 209.744954 120.910266 
L 209.808376 118.622859 
L 209.871797 126.766433 
L 209.935219 124.478677 
L 209.99864 116.24415 
L 210.062062 119.35501 
L 210.125483 121.459467 
L 210.252326 107.551723 
L 210.315748 107.826323 
L 210.506012 109.93078 
L 210.632855 107.094171 
L 210.696277 108.558126 
L 210.82312 97.30404 
L 210.949963 111.760637 
L 211.013384 108.558126 
L 211.076805 106.911221 
L 211.140227 108.009274 
L 211.203648 108.375175 
L 211.26707 110.754232 
L 211.330491 109.381579 
L 211.393913 107.185821 
L 211.520756 110.296681 
L 211.584177 108.832726 
L 211.647599 109.198628 
L 211.71102 108.924376 
L 211.774442 107.460422 
L 211.837863 62.90093 
L 211.901285 69.031348 
L 212.154971 87.696859 
L 212.281814 74.887168 
L 212.472078 94.467431 
L 212.598921 83.213345 
L 212.662342 86.964707 
L 212.725764 85.226152 
L 212.789185 82.664493 
L 212.852607 84.494348 
L 213.042871 96.571888 
L 213.106293 94.467431 
L 213.169714 93.369727 
L 213.296557 88.977863 
L 213.359979 97.121089 
L 213.4234 95.748435 
L 213.486822 84.402699 
L 213.550243 89.343764 
L 213.613665 99.683097 
L 213.677086 96.480587 
L 213.740508 94.65073 
L 213.803929 97.121089 
L 213.867351 94.37613 
L 213.930772 95.931386 
L 214.057615 105.447266 
L 214.121036 100.50655 
L 214.184458 101.878855 
L 214.311301 107.551723 
L 214.374722 105.630217 
L 214.501565 109.56453 
L 214.564987 108.832726 
L 214.628408 108.466825 
L 214.69183 110.022081 
L 214.755251 108.832726 
L 214.882094 98.950945 
L 215.072359 115.786599 
L 215.13578 113.04164 
L 215.262623 96.023036 
L 215.326045 98.493394 
L 215.452887 109.93078 
L 215.57973 106.270719 
L 215.643152 106.362369 
L 215.706573 102.244756 
L 215.769995 103.434459 
L 215.833416 109.473228 
L 215.896838 108.283874 
L 216.023681 103.708711 
L 216.340788 120.453063 
L 216.40421 118.439908 
L 216.467631 116.701353 
L 216.531053 120.910266 
L 216.721317 106.72827 
L 216.784738 108.649776 
L 216.84816 109.656179 
L 216.911581 113.773443 
L 216.975003 111.760637 
L 217.038424 105.172665 
L 217.101846 107.094171 
L 217.165267 110.937183 
L 217.228689 109.381579 
L 217.355532 107.734673 
L 217.418953 106.087768 
L 217.482375 107.460422 
L 217.609218 98.127492 
L 217.736061 108.649776 
L 217.799482 105.630217 
L 217.989747 94.193179 
L 218.053168 96.663538 
L 218.11659 98.493394 
L 218.180011 95.657134 
L 218.243432 97.029439 
L 218.306854 97.669941 
L 218.370275 95.382534 
L 218.497118 104.989715 
L 218.687383 93.918579 
L 219.00449 105.447266 
L 219.131333 108.649776 
L 219.194755 108.009274 
L 219.258176 106.087768 
L 219.385019 115.329048 
L 219.448441 107.277122 
L 219.511862 108.009274 
L 219.638705 121.459467 
L 219.702126 115.8779 
L 219.765548 117.982357 
L 219.828969 121.093565 
L 219.892391 117.250553 
L 220.019234 132.256002 
L 220.082655 130.334845 
L 220.146077 131.7988 
L 220.209498 141.314331 
L 220.27292 141.039905 
L 220.399763 129.328093 
L 220.463184 133.994557 
L 220.526606 130.517796 
L 220.590027 127.406587 
L 220.653449 129.511044 
L 220.780292 139.210048 
L 220.843713 138.02052 
L 220.970556 142.50386 
L 221.097399 138.752497 
L 221.16082 142.046309 
L 221.224242 141.314331 
L 221.287663 140.124977 
L 221.351085 141.039905 
L 221.477928 131.70715 
L 221.604771 143.784864 
L 221.668192 143.052886 
L 221.795035 142.412384 
L 221.858457 140.765479 
L 221.921878 141.13138 
L 221.9853 140.674003 
L 222.048721 141.039905 
L 222.112143 142.320909 
L 222.238986 137.837569 
L 222.302407 138.935448 
L 222.682936 143.418788 
L 222.746357 142.229433 
L 222.8732 128.413339 
L 223.000043 115.511998 
L 223.063465 119.720912 
L 223.126886 116.427101 
L 223.253729 104.989715 
L 223.317151 113.956743 
L 223.380572 113.865093 
L 223.507415 105.904817 
L 223.634258 112.401138 
L 223.761101 120.544365 
L 223.824523 116.061199 
L 223.887944 116.884652 
L 224.078208 129.053841 
L 224.205051 133.262754 
L 224.268473 132.164701 
L 224.331894 129.968595 
L 224.395316 130.517796 
L 224.458737 132.256002 
L 224.522159 130.426146 
L 224.775845 108.558126 
L 224.902688 120.910266 
L 224.966109 118.989108 
L 225.029531 118.256957 
L 225.092952 121.001916 
L 225.219795 107.826323 
L 225.473481 127.589886 
L 225.536902 128.687591 
L 225.790588 109.656179 
L 225.917431 116.884652 
L 226.044274 104.989715 
L 226.107696 108.009274 
L 226.361382 84.219748 
L 226.424803 86.141255 
L 226.488225 89.618365 
L 226.551646 84.677299 
L 226.615068 86.415854 
L 226.678489 95.199583 
L 226.741911 90.533118 
L 226.805332 84.677299 
L 226.995596 97.029439 
L 227.059018 95.382534 
L 227.185861 83.213345 
L 227.249282 85.043201 
L 227.376125 86.690107 
L 227.439547 86.873405 
L 227.56639 94.924983 
L 227.629811 91.814122 
L 227.693233 86.141255 
L 227.820076 98.219142 
L 227.883497 96.297636 
L 227.946919 92.729225 
L 228.01034 93.552677 
L 228.137183 181.939336 
L 228.264026 187.063352 
L 228.327447 185.873823 
L 228.390869 183.128865 
L 228.45429 184.958896 
L 228.517712 188.801733 
L 228.581133 187.520729 
L 228.644555 185.05037 
L 228.771398 194.840503 
L 228.898241 187.886805 
L 228.961662 188.527307 
L 229.088505 178.737001 
L 229.151927 180.749982 
L 229.405613 186.605801 
L 229.469034 188.069755 
L 229.532456 187.97828 
L 229.72272 178.187974 
L 229.786141 173.247083 
L 229.849563 176.083517 
L 229.912984 181.207359 
L 229.976406 179.651928 
L 230.039827 180.383906 
L 230.103249 185.141846 
L 230.230092 180.566857 
L 230.293513 187.795329 
L 230.356935 187.063352 
L 230.483778 181.024408 
L 230.610621 191.08914 
L 230.674042 189.625186 
L 230.737464 187.97828 
L 230.864307 193.651148 
L 230.927728 189.53371 
L 231.054571 199.324016 
L 231.117993 198.500564 
L 231.181414 194.932152 
L 231.244835 197.128084 
L 231.308257 197.036609 
L 231.4351 187.429253 
L 231.561943 192.46162 
L 231.625364 191.08914 
L 231.688786 193.834099 
L 231.752207 192.553095 
L 231.87905 186.331374 
L 232.005893 190.174212 
L 232.069315 188.710257 
L 232.196158 202.343401 
L 232.323001 191.180616 
L 232.386422 195.115103 
L 232.449844 195.66413 
L 232.703529 186.056774 
L 232.830372 192.73622 
L 232.957215 184.318393 
L 233.020637 186.331374 
L 233.210901 172.423631 
L 233.464587 175.900567 
L 233.528009 171.234101 
L 233.59143 173.338559 
L 233.718273 183.586416 
L 233.781695 182.213936 
L 233.845116 183.403291 
L 233.971959 179.560454 
L 234.098802 187.063352 
L 234.162223 186.971702 
L 234.352488 172.515106 
L 234.542752 180.018005 
L 234.606174 182.488363 
L 234.669595 182.030985 
L 234.796438 165.652883 
L 234.85986 166.659287 
L 234.923281 166.201736 
L 235.367232 139.210048 
L 235.430653 139.758901 
L 235.494074 145.980796 
L 235.557496 145.523245 
L 235.620917 141.588931 
L 235.74776 149.457732 
L 235.811182 145.797845 
L 235.874603 146.804249 
L 235.938025 148.81723 
L 236.001446 147.170324 
L 236.128289 152.202691 
L 236.191711 96.023036 
L 236.255132 97.57864 
L 236.318554 97.029439 
L 236.445397 106.362369 
L 236.57224 98.127492 
L 236.699083 109.56453 
L 236.762504 103.983312 
L 236.825926 107.094171 
L 236.889347 108.375175 
L 237.01619 100.231949 
L 237.143033 106.362369 
L 237.206454 104.898414 
L 237.269876 103.34281 
L 237.523562 108.741077 
L 237.586983 108.375175 
L 237.650405 104.440863 
L 237.713826 105.447266 
L 237.777248 107.551723 
L 237.904091 94.37613 
L 238.030934 112.309488 
L 238.094355 106.81992 
L 238.221198 94.467431 
L 238.28462 96.663538 
L 238.348041 95.565485 
L 238.411462 96.023036 
L 238.474884 98.219142 
L 238.538305 94.742032 
L 238.601727 95.657134 
L 238.72857 109.473228 
L 238.791991 102.061806 
L 238.855413 105.264315 
L 238.918834 112.218187 
L 239.17252 98.402093 
L 239.362785 92.729225 
L 239.679892 109.56453 
L 239.743314 106.179418 
L 239.806735 99.591447 
L 239.870156 103.068209 
L 240.060421 115.329048 
L 240.187264 105.538916 
L 240.250685 109.198628 
L 240.314107 111.577685 
L 240.377528 105.721867 
L 240.44095 108.649776 
L 240.567793 121.001916 
L 240.631214 119.903863 
L 240.758057 110.479632 
L 241.011743 120.453063 
L 241.075165 119.903863 
L 241.138586 115.054447 
L 241.202007 117.799406 
L 241.32885 126.674783 
L 241.392272 118.074006 
L 241.455693 119.995512 
L 241.519115 123.563924 
L 241.645958 108.375175 
L 241.709379 118.897459 
L 241.772801 113.590492 
L 241.836222 109.015677 
L 241.963065 117.525154 
L 242.026487 112.401138 
L 242.089908 114.230994 
L 242.216751 118.074006 
L 242.280173 114.780196 
L 242.343594 115.694949 
L 242.407016 122.648821 
L 242.470437 120.544365 
L 242.533859 117.158904 
L 242.660701 129.968595 
L 242.724123 128.50464 
L 243.104652 106.362369 
L 243.231495 90.89902 
L 243.294916 92.546274 
L 243.421759 96.480587 
L 243.548602 94.284481 
L 243.738867 108.832726 
L 243.802288 105.447266 
L 243.86571 105.630217 
L 243.992553 113.04164 
L 244.182817 97.944542 
L 244.499924 118.348607 
L 244.563346 114.963146 
L 244.626767 121.367817 
L 244.690189 120.818965 
L 244.75361 114.230994 
L 244.817032 118.165656 
L 244.880453 122.374221 
L 244.943875 119.446311 
L 245.070718 114.048044 
L 245.197561 105.447266 
L 245.260982 110.754232 
L 245.324404 109.015677 
L 245.387825 107.643373 
L 245.451247 112.492787 
L 245.514668 110.479632 
L 245.578089 102.702308 
L 245.704932 120.727315 
L 245.768354 114.688546 
L 245.895197 105.081365 
L 245.958618 104.440863 
L 246.02204 105.813167 
L 246.148883 122.374221 
L 246.212304 119.446311 
L 246.402569 94.833681 
L 246.529412 117.067603 
L 246.592833 112.85869 
L 246.656255 106.179418 
L 246.719676 109.290278 
L 246.783098 112.401138 
L 246.909941 107.185821 
L 246.973362 111.852285 
L 247.036783 110.205032 
L 247.100205 107.368772 
L 247.227048 117.525154 
L 247.353891 105.172665 
L 247.417312 109.107327 
L 247.480734 106.087768 
L 247.544155 106.362369 
L 247.607577 109.83913 
L 247.670998 108.649776 
L 247.73442 109.107327 
L 247.861263 106.911221 
L 247.988106 118.531557 
L 248.051527 109.83913 
L 248.114949 115.329048 
L 248.17837 122.923422 
L 248.305213 112.85869 
L 248.432056 120.910266 
L 248.62232 105.904817 
L 248.685742 107.185821 
L 248.812585 116.701353 
L 248.876006 113.773443 
L 248.939428 117.708105 
L 249.002849 114.963146 
L 249.066271 105.355965 
L 249.193114 129.785644 
L 249.256535 121.001916 
L 249.319957 114.048044 
L 249.573643 130.517796 
L 249.637064 129.145142 
L 249.763907 116.335451 
L 249.89075 119.903863 
L 249.954171 118.80581 
L 250.081014 121.093565 
L 250.144436 120.178463 
L 250.271279 130.334845 
L 250.3347 126.766433 
L 250.461543 117.891055 
L 250.524965 119.903863 
L 250.588386 115.603648 
L 250.651808 116.1525 
L 250.715229 118.531557 
L 250.842072 93.552677 
L 250.968915 109.107327 
L 251.032337 100.780802 
L 251.095758 106.72827 
L 251.15918 116.427101 
L 251.222601 111.303085 
L 251.412865 96.571888 
L 251.60313 119.172059 
L 251.729973 114.688546 
L 251.793394 109.198628 
L 251.856816 112.218187 
L 251.983659 119.995512 
L 252.110502 111.760637 
L 252.173923 113.04164 
L 252.237345 119.62961 
L 252.364188 109.656179 
L 252.427609 70.220703 
L 252.491031 71.044156 
L 252.744716 86.690107 
L 252.808138 82.755793 
L 252.871559 85.958303 
L 252.998402 98.402093 
L 253.252088 81.108888 
L 253.31551 84.311398 
L 253.442353 87.422258 
L 253.505774 87.696859 
L 253.569196 89.252114 
L 253.632617 88.154061 
L 253.696039 85.866654 
L 253.75946 86.964707 
L 253.949725 83.030394 
L 254.076568 85.592402 
L 254.139989 85.775352 
L 254.266832 89.252114 
L 254.457096 83.945496 
L 254.520518 85.043201 
L 254.647361 98.493394 
L 254.710782 94.467431 
L 254.837625 106.087768 
L 254.964468 96.938138 
L 255.218154 115.969549 
L 255.281576 113.407542 
L 255.408419 94.37613 
L 255.47184 98.035842 
L 255.662104 114.413945 
L 255.788947 105.904817 
L 255.852369 106.63662 
L 256.042633 111.303085 
L 256.106055 110.388331 
L 256.169476 109.747829 
L 256.296319 104.074961 
L 256.423162 126.674783 
L 256.486584 123.198022 
L 256.613427 107.643373 
L 256.74027 125.942633 
L 256.803691 133.628656 
L 256.867113 131.70715 
L 256.930534 131.341249 
L 256.993955 132.896504 
L 257.311063 116.335451 
L 257.374484 119.537961 
L 257.501327 132.988154 
L 257.564749 131.249599 
L 257.62817 130.974998 
L 257.755013 129.145142 
L 257.818435 130.609097 
L 258.262385 101.878855 
L 258.389228 94.010228 
L 258.452649 98.767994 
L 258.579492 85.866654 
L 258.642914 87.78816 
L 258.769757 93.918579 
L 258.833178 94.37613 
L 258.960021 97.57864 
L 259.023443 95.565485 
L 259.086864 95.931386 
L 259.150286 96.755187 
L 259.277129 83.396295 
L 259.34055 88.337361 
L 259.403972 99.042595 
L 259.467393 95.931386 
L 259.530815 90.167217 
L 259.594236 93.369727 
L 259.657658 93.278077 
L 259.721079 94.833681 
L 259.784501 105.904817 
L 259.847922 105.721867 
L 259.911343 98.859296 
L 259.974765 103.52576 
L 260.291872 119.62961 
L 260.355294 121.917018 
L 260.482137 109.290278 
L 260.545558 130.792047 
L 260.60898 129.328093 
L 260.672401 130.700747 
L 260.735823 129.236792 
L 260.799244 129.419743 
L 261.05293 147.444751 
L 261.49688 128.779241 
L 261.623723 142.229433 
L 261.687145 139.301524 
L 261.750566 133.537006 
L 261.877409 139.118399 
L 262.004252 129.419743 
L 262.067674 132.713553 
L 262.131095 131.066648 
L 262.194517 132.073051 
L 262.32136 141.680407 
L 262.448203 129.968595 
L 262.511624 132.164701 
L 262.638467 125.759682 
L 262.76531 138.569547 
L 262.828731 135.733112 
L 262.892153 131.158298 
L 263.018996 143.144362 
L 263.082417 142.046309 
L 263.145839 133.079455 
L 263.20926 133.354055 
L 263.272682 139.57595 
L 263.336103 138.294946 
L 263.589789 114.139694 
L 263.716632 122.831772 
L 263.843475 109.656179 
L 263.970318 122.831772 
L 264.03374 121.093565 
L 264.160583 107.826323 
L 264.287425 123.838175 
L 264.350847 116.061199 
L 264.414268 107.643373 
L 264.731376 135.641463 
L 264.92164 128.32169 
L 265.048483 132.988154 
L 265.492434 93.186776 
L 266.253491 130.060245 
L 266.380334 109.473228 
L 266.507177 118.897459 
L 266.63402 101.421304 
L 266.697442 109.198628 
L 266.760863 105.264315 
L 267.014549 81.474789 
L 267.141392 87.97111 
L 267.204813 86.141255 
L 267.458499 94.10153 
L 267.521921 93.735628 
L 267.585342 91.17362 
L 267.712185 98.767994 
L 267.839028 81.74939 
L 267.90245 87.97111 
L 267.965871 92.729225 
L 268.092714 83.579246 
L 268.156136 93.918579 
L 268.219557 89.526715 
L 268.282979 80.560036 
L 268.473243 107.002871 
L 268.536664 101.787553 
L 268.663507 95.748435 
L 268.917193 98.219142 
L 269.044036 84.219748 
L 269.107458 87.330608 
L 269.170879 89.892616 
L 269.234301 87.422258 
L 269.487987 98.950945 
L 269.551408 99.591447 
L 269.61483 90.624768 
L 269.678251 91.17362 
L 269.741673 98.767994 
L 269.805094 98.402093 
L 269.868516 98.035842 
L 269.995358 109.747829 
L 270.05878 107.917624 
L 270.122201 108.100575 
L 270.249044 109.56453 
L 270.439309 105.172665 
L 270.629573 121.550768 
L 270.756416 131.981751 
L 270.819838 124.021475 
L 270.883259 124.844928 
L 270.946681 131.7988 
L 271.010102 131.70715 
L 271.073524 133.171105 
L 271.136945 137.74592 
L 271.200367 137.105418 
L 271.263788 135.000961 
L 271.390631 150.921687 
L 271.454052 148.085252 
L 271.517474 144.242415 
L 271.644317 162.907925 
L 271.707738 159.613939 
L 271.77116 159.064913 
L 271.961424 170.044748 
L 272.024846 164.920906 
L 272.088267 169.03817 
L 272.151689 180.475381 
L 272.21511 177.638948 
L 272.278532 173.887585 
L 272.405375 185.05037 
L 272.468796 178.554049 
L 272.532218 181.390484 
L 272.785903 205.454261 
L 272.849325 203.075378 
L 272.912746 201.702899 
L 273.103011 209.937775 
L 273.166432 216.159496 
L 273.229854 215.244568 
L 273.356697 208.931197 
L 273.610383 190.540114 
L 273.673804 191.363741 
L 273.737226 189.625186 
L 273.800647 181.298834 
L 273.864069 183.403291 
L 273.990912 193.376548 
L 274.054333 191.821118 
L 274.181176 200.787971 
L 274.308019 210.852703 
L 274.37144 209.937775 
L 274.434862 211.767631 
L 274.561705 203.166854 
L 274.625126 207.467243 
L 274.751969 224.577323 
L 274.878812 212.316658 
L 275.005655 227.871307 
L 275.069077 223.662394 
L 275.132498 224.211421 
L 275.449606 260.352912 
L 275.513027 260.718988 
L 275.576449 258.706006 
L 275.63987 258.888957 
L 275.830134 283.959313 
L 275.893556 280.390901 
L 275.956977 282.129456 
L 276.147242 293.749619 
L 276.210663 292.468615 
L 276.337506 279.933524 
L 276.464349 292.56009 
L 276.591192 278.194969 
L 276.718035 295.488 
L 276.781457 106.911221 
L 276.844878 110.296681 
L 276.971721 106.270719 
L 277.161985 108.649776 
L 277.225407 107.643373 
L 277.35225 117.158904 
L 277.415671 113.590492 
L 277.479093 112.309488 
L 277.542514 115.786599 
L 277.669357 111.211784 
L 277.732779 114.505595 
L 277.859622 106.545319 
L 277.986465 110.388331 
L 278.049886 108.558126 
L 278.176729 114.322644 
L 278.430415 107.643373 
L 278.493837 106.087768 
L 278.557258 106.545319 
L 278.620679 109.015677 
L 278.684101 108.375175 
L 278.747522 105.721867 
L 278.810944 106.453669 
L 279.254894 118.989108 
L 279.445159 106.81992 
L 279.50858 108.832726 
L 279.572002 107.551723 
L 279.635423 103.708711 
L 279.698845 104.989715 
L 279.762266 107.002871 
L 279.889109 94.833681 
L 279.952531 97.486991 
L 280.079373 106.179418 
L 280.142795 105.721867 
L 280.206216 106.087768 
L 280.333059 110.022081 
L 280.459902 108.009274 
L 280.650167 116.793002 
L 280.77701 105.630217 
L 280.903853 109.015677 
L 280.967274 105.904817 
L 281.030696 107.917624 
L 281.157539 117.616455 
L 281.22096 117.525154 
L 281.284382 116.335451 
L 281.347803 118.439908 
L 281.411224 117.799406 
L 281.474646 114.048044 
L 281.538067 116.061199 
L 281.601489 119.537961 
L 281.66491 117.250553 
L 281.728332 115.786599 
L 281.855175 119.903863 
L 282.425968 105.904817 
L 282.743076 118.714508 
L 282.806497 118.622859 
L 282.869918 116.24415 
L 282.93334 116.427101 
L 282.996761 119.08041 
L 283.060183 117.433504 
L 283.123604 114.230994 
L 283.250447 120.269764 
L 283.313869 119.08041 
L 283.37729 118.074006 
L 283.440712 118.348607 
L 283.504133 118.714508 
L 283.567555 117.250553 
L 283.630976 118.165656 
L 283.694398 119.62961 
L 283.821241 104.623814 
L 283.884662 104.989715 
L 283.948084 107.917624 
L 284.011505 105.904817 
L 284.074927 105.721867 
L 284.20177 109.56453 
L 284.328612 122.099969 
L 284.392034 120.727315 
L 284.455455 117.067603 
L 284.518877 118.165656 
L 284.582298 121.642418 
L 284.64572 120.453063 
L 284.772563 106.179418 
L 284.835984 107.826323 
L 284.899406 130.426146 
L 284.962827 128.230388 
L 285.216513 137.654618 
L 285.343356 127.681188 
L 285.470199 138.294946 
L 285.597042 128.047089 
L 285.660464 130.792047 
L 285.787306 125.39378 
L 285.850728 127.223636 
L 285.977571 131.432549 
L 286.040992 130.517796 
L 286.167835 127.406587 
L 286.294678 131.432549 
L 286.3581 129.785644 
L 286.421521 130.334845 
L 286.484943 131.524199 
L 286.548364 128.779241 
L 286.611786 131.890101 
L 286.738629 142.68681 
L 286.865472 138.386422 
L 286.992315 120.453063 
L 287.119158 138.294946 
L 287.182579 132.988154 
L 287.246 129.511044 
L 287.372843 133.994557 
L 287.499686 128.962192 
L 287.626529 130.792047 
L 287.689951 130.609097 
L 287.753372 130.609097 
L 287.816794 129.785644 
L 288.007058 121.642418 
L 288.133901 119.903863 
L 288.260744 121.184867 
L 288.387587 119.35501 
L 288.51443 128.32169 
L 288.641273 118.989108 
L 288.768116 132.530603 
L 288.831537 128.413339 
L 288.894959 125.302479 
L 289.021802 130.517796 
L 289.148645 115.969549 
L 289.212066 116.427101 
L 289.275488 118.531557 
L 289.338909 116.884652 
L 289.402331 118.622859 
L 289.529174 128.047089 
L 289.592595 125.57673 
L 289.656017 121.184867 
L 289.78286 133.171105 
L 289.846281 127.132335 
L 289.909703 118.531557 
L 289.973124 122.008319 
L 290.163388 130.426146 
L 290.22681 132.164701 
L 290.290231 131.158298 
L 290.417074 125.302479 
L 290.607339 129.602694 
L 290.734182 125.302479 
L 290.861025 130.334845 
L 290.924446 129.419743 
L 290.987868 129.328093 
L 291.051289 129.419743 
L 291.178132 126.217233 
L 291.241554 127.315286 
L 291.304975 130.517796 
L 291.368397 129.694343 
L 291.431818 126.857735 
L 291.558661 131.341249 
L 291.685504 126.034282 
L 291.748925 129.968595 
L 291.812347 128.047089 
L 292.066033 115.329048 
L 292.192876 120.818965 
L 292.256297 119.446311 
L 292.319719 118.165656 
L 292.38314 119.08041 
L 292.573405 125.851331 
L 292.636826 123.106372 
L 292.700248 121.917018 
L 292.827091 133.171105 
L 292.953933 128.138739 
L 293.080776 94.284481 
L 293.144198 94.742032 
L 293.334462 107.277122 
L 293.397884 101.604254 
L 293.461305 102.976908 
L 293.588148 111.486036 
L 293.714991 107.185821 
L 293.778413 108.558126 
L 293.905256 97.761591 
L 294.032099 108.832726 
L 294.09552 107.826323 
L 294.158942 109.381579 
L 294.222363 109.107327 
L 294.476049 97.395341 
L 294.602892 106.270719 
L 294.666313 104.532164 
L 294.793156 108.649776 
L 294.919999 104.440863 
L 294.983421 106.911221 
L 295.046842 106.270719 
L 295.110264 105.355965 
L 295.237107 109.381579 
L 295.300528 107.277122 
L 295.36395 107.368772 
L 295.681057 118.531557 
L 295.871321 115.694949 
L 296.061586 94.193179 
L 296.25185 111.028833 
L 296.315272 109.93078 
L 296.505536 104.440863 
L 296.822644 109.56453 
L 296.886065 106.911221 
L 297.012908 119.903863 
L 297.07633 117.708105 
L 297.203172 104.074961 
L 297.456858 121.093565 
L 297.52028 120.361414 
L 297.583701 121.459467 
L 297.647123 120.818965 
L 297.837387 108.558126 
L 297.900809 103.800361 
L 297.96423 104.715463 
L 298.091073 110.11373 
L 298.281338 106.63662 
L 298.408181 116.335451 
L 298.471602 113.407542 
L 298.535024 112.76704 
L 298.661866 120.727315 
L 298.915552 107.826323 
L 298.978974 108.924376 
L 299.042395 110.022081 
L 299.23266 95.199583 
L 299.422924 104.806764 
L 299.486346 103.89201 
L 299.549767 104.806764 
L 299.866875 95.382534 
L 300.057139 107.734673 
L 300.12056 106.63662 
L 300.310825 104.074961 
L 300.437668 96.846489 
L 300.564511 107.277122 
L 300.627932 104.257912 
L 300.691354 105.813167 
L 300.754775 111.211784 
L 300.818197 110.754232 
L 300.881618 108.924376 
L 301.008461 118.165656 
L 301.071883 116.1525 
L 301.198726 111.211784 
L 301.325569 119.172059 
L 301.38899 118.80581 
L 301.579254 127.955788 
L 301.642676 131.341249 
L 301.83294 117.799406 
L 301.896362 119.812561 
L 301.959783 119.537961 
L 302.023205 117.982357 
L 302.213469 132.713553 
L 302.276891 129.053841 
L 302.403734 131.890101 
L 302.467155 130.609097 
L 302.65742 129.328093 
L 302.720841 129.694343 
L 302.847684 133.171105 
L 302.911106 132.347652 
L 303.037948 125.759682 
L 303.10137 125.851331 
L 303.228213 118.80581 
L 303.291634 120.269764 
L 303.418477 128.413339 
L 303.481899 126.125931 
L 303.54532 128.32169 
L 303.672163 136.739516 
L 303.799006 129.328093 
L 303.925849 134.177508 
L 303.989271 131.341249 
L 304.179535 104.898414 
L 304.242957 105.721867 
L 304.433221 91.814122 
L 304.560064 98.219142 
L 304.623485 96.023036 
L 304.940593 108.100575 
L 305.004014 106.453669 
L 305.067436 107.002871 
L 305.384543 132.439302 
L 305.511386 125.302479 
L 305.638229 133.262754 
L 306.018758 116.427101 
L 306.082179 118.531557 
L 306.209022 122.648821 
L 306.335865 117.525154 
L 306.399287 118.531557 
L 306.462708 118.439908 
L 306.52613 119.172059 
L 306.779816 134.81801 
L 306.843237 136.373614 
L 306.97008 118.897459 
L 307.033502 121.001916 
L 307.096923 121.001916 
L 307.223766 103.983312 
L 307.287187 108.832726 
L 307.350609 106.270719 
L 307.604295 83.121695 
L 307.667716 85.775352 
L 307.731138 85.683703 
L 307.794559 85.500753 
L 307.921402 87.239308 
L 307.984824 87.147658 
L 308.048245 87.605209 
L 308.23851 96.938138 
L 308.301931 95.840085 
L 308.428774 83.762197 
L 308.492196 89.069164 
L 308.555617 95.474183 
L 308.68246 85.683703 
L 308.745881 94.467431 
L 308.809303 91.17362 
L 308.872724 85.500753 
L 308.999567 99.957349 
L 309.062989 94.37613 
L 309.12641 95.016632 
L 309.189832 97.395341 
L 309.316675 165.012381 
L 309.380096 166.567811 
L 309.633782 156.960456 
L 309.697204 157.052105 
L 310.077733 165.469758 
L 310.204575 155.954052 
L 310.267997 156.777505 
L 310.331418 162.358898 
L 310.39484 161.809871 
L 310.458261 158.881962 
L 310.648526 166.11026 
L 310.775369 160.894943 
L 310.83879 161.260845 
L 310.965633 151.470713 
L 311.029055 151.745139 
L 311.282741 156.319954 
L 311.409584 151.379238 
L 311.536427 165.195332 
L 311.599848 162.175947 
L 311.790112 159.248038 
L 311.853534 159.705415 
L 311.980377 163.548427 
L 312.10722 160.162966 
L 312.234063 170.319174 
L 312.360906 161.44397 
L 312.424327 165.286808 
L 312.487749 165.195332 
L 312.55117 159.980016 
L 312.614592 160.986419 
L 312.678013 165.927309 
L 312.741435 164.829256 
L 312.804856 163.182351 
L 312.931699 171.691653 
L 313.058542 161.260845 
L 313.121963 161.809871 
L 313.312228 167.391264 
L 313.375649 169.678672 
L 313.439071 169.31277 
L 313.502492 170.044748 
L 313.565914 172.24068 
L 313.629335 171.325751 
L 313.692757 171.142627 
L 313.756178 171.874603 
L 313.946443 163.548427 
L 314.009864 164.55483 
L 314.073286 164.463355 
L 314.326972 151.745139 
L 314.390393 142.50386 
L 314.453814 145.248818 
L 314.517236 153.483694 
L 314.580657 153.30057 
L 314.644079 149.183132 
L 314.7075 149.366256 
L 314.834343 153.758121 
L 314.897765 153.30057 
L 315.024608 153.849596 
L 315.151451 142.77846 
L 315.278294 159.522464 
L 315.341715 156.960456 
L 315.468558 149.640683 
L 315.595401 154.398623 
L 315.722244 151.562189 
L 315.849087 159.430988 
L 315.912508 158.058509 
L 316.039351 167.299789 
L 316.102773 163.548427 
L 316.166194 161.626921 
L 316.41988 171.142627 
L 316.483302 168.306192 
L 316.546723 169.129645 
L 316.673566 176.358118 
L 316.927252 169.861623 
L 317.054095 176.90697 
L 317.117517 173.704634 
L 317.24436 164.005804 
L 317.307781 169.03817 
L 317.371202 107.734673 
L 317.434624 109.107327 
L 317.498045 106.179418 
L 317.561467 107.368772 
L 317.68831 110.296681 
L 317.815153 107.277122 
L 317.941996 117.158904 
L 318.005417 108.924376 
L 318.068839 109.83913 
L 318.13226 118.622859 
L 318.195682 112.401138 
L 318.259103 109.198628 
L 318.322525 119.62961 
L 318.385946 119.35501 
L 318.449368 113.132941 
L 318.576211 123.472274 
L 318.639632 119.62961 
L 318.703054 120.544365 
L 318.766475 121.642418 
L 318.893318 117.708105 
L 319.020161 121.276516 
L 319.147004 114.505595 
L 319.210425 125.210829 
L 319.273847 124.387376 
L 319.40069 106.72827 
L 319.464111 112.218187 
L 319.590954 105.081365 
L 319.654376 104.989715 
L 319.717797 95.474183 
L 319.781219 97.57864 
L 319.84464 110.388331 
L 319.908062 107.185821 
L 319.971483 95.657134 
L 320.034905 100.780802 
L 320.098326 109.381579 
L 320.161748 103.34281 
L 320.225169 95.840085 
L 320.28859 98.767994 
L 320.352012 98.950945 
L 320.415433 92.729225 
L 320.478855 92.820526 
L 320.542276 96.755187 
L 320.605698 96.297636 
L 320.669119 96.114685 
L 320.795962 97.029439 
L 320.922805 103.251508 
L 320.986227 98.493394 
L 321.176491 110.937183 
L 321.239913 109.83913 
L 321.366756 101.604254 
L 321.430177 105.172665 
L 321.493599 106.63662 
L 321.55702 103.068209 
L 321.683863 111.303085 
L 321.810706 106.545319 
L 321.937549 109.198628 
L 322.064392 104.257912 
L 322.127813 104.715463 
L 322.254656 109.93078 
L 322.318078 108.741077 
L 322.381499 108.832726 
L 322.444921 110.571282 
L 322.508342 109.473228 
L 322.571764 110.662583 
L 322.635185 114.688546 
L 322.698607 113.132941 
L 322.952293 95.657134 
L 323.015714 95.199583 
L 323.142557 100.872451 
L 323.205978 98.035842 
L 323.2694 98.493394 
L 323.332821 104.257912 
L 323.396243 103.159859 
L 323.459664 98.859296 
L 323.523086 100.963753 
L 323.776772 109.747829 
L 323.903615 105.630217 
L 324.030458 117.799406 
L 324.093879 113.682142 
L 324.220722 104.349213 
L 324.284144 110.022081 
L 324.347565 108.009274 
L 324.474408 96.388937 
L 324.601251 111.211784 
L 324.728094 95.840085 
L 324.854937 109.656179 
L 324.918358 108.375175 
L 325.045201 107.094171 
L 325.172044 119.263361 
L 325.235466 114.963146 
L 325.298887 105.081365 
L 325.362309 106.453669 
L 325.42573 108.649776 
L 325.615995 119.08041 
L 325.742838 120.544365 
L 325.869681 118.897459 
L 325.996523 131.524199 
L 326.059945 131.249599 
L 326.186788 122.19127 
L 326.250209 126.400184 
L 326.313631 123.472274 
L 326.377052 118.80581 
L 326.440474 119.62961 
L 326.567317 127.498237 
L 326.757581 119.812561 
L 326.821003 121.093565 
L 326.947846 131.341249 
L 327.074689 118.348607 
L 327.13811 119.537961 
L 327.391796 132.073051 
L 327.455217 129.785644 
L 327.58206 108.558126 
L 327.708903 129.968595 
L 327.772325 124.387376 
L 327.835746 119.995512 
L 327.899168 127.864138 
L 327.962589 127.772837 
L 328.089432 115.511998 
L 328.279697 121.367817 
L 328.343118 120.269764 
L 328.533383 114.048044 
L 328.660226 117.341855 
L 328.723647 115.969549 
L 328.85049 121.825369 
L 328.913911 119.995512 
L 328.977333 116.335451 
L 329.104176 132.164701 
L 329.167597 129.145142 
L 329.231019 126.217233 
L 329.29444 130.700747 
L 329.357862 129.419743 
L 329.421283 126.400184 
L 329.548126 131.432549 
L 329.674969 130.883697 
L 329.865234 118.531557 
L 330.055498 125.57673 
L 330.182341 131.158298 
L 330.245762 126.857735 
L 330.372605 142.50386 
L 330.436027 139.57595 
L 330.56287 129.877294 
L 330.626291 131.341249 
L 330.689713 130.243195 
L 330.816556 132.530603 
L 330.943399 130.334845 
L 331.070242 127.589886 
L 331.260506 130.609097 
L 331.323928 130.243195 
L 331.387349 131.981751 
L 331.450771 131.249599 
L 331.577614 127.772837 
L 331.641035 130.060245 
L 331.704456 129.328093 
L 331.831299 126.857735 
L 331.894721 129.328093 
L 332.021564 120.636014 
L 332.084985 123.563924 
L 332.211828 129.602694 
L 332.27525 129.694343 
L 332.338671 131.7988 
L 332.402093 130.792047 
L 332.528936 129.328093 
L 332.592357 126.674783 
L 332.655779 126.766433 
L 332.782622 136.099014 
L 332.846043 132.988154 
L 332.909465 131.432549 
L 333.036308 139.942026 
L 333.16315 136.373614 
L 333.353415 140.948429 
L 333.416836 139.484475 
L 333.543679 128.687591 
L 333.670522 85.317801 
L 333.924208 97.30404 
L 333.98763 97.029439 
L 334.051051 95.107933 
L 334.114473 96.388937 
L 334.241316 107.917624 
L 334.43158 91.631171 
L 334.495002 92.546274 
L 334.558423 93.095126 
L 334.812109 98.035842 
L 334.87553 96.938138 
L 335.065795 84.86025 
L 335.129216 86.873405 
L 335.192638 85.317801 
L 335.382902 98.950945 
L 335.446324 94.37613 
L 335.509745 95.474183 
L 335.573167 95.107933 
L 335.636588 91.17362 
L 335.763431 100.963753 
L 335.826853 100.872451 
L 336.017117 95.565485 
L 336.14396 94.467431 
L 336.270803 104.166262 
L 336.334224 109.198628 
L 336.397646 105.538916 
L 336.524489 95.107933 
L 336.58791 95.199583 
L 336.651332 93.552677 
L 336.778175 104.166262 
L 336.841596 101.970504 
L 337.031861 96.755187 
L 337.158704 93.186776 
L 337.222125 93.82693 
L 337.348968 98.493394 
L 337.475811 95.474183 
L 337.602654 109.015677 
L 337.666075 106.362369 
L 337.729497 96.663538 
L 337.792918 96.846489 
L 337.919761 108.832726 
L 337.983183 106.63662 
L 338.110026 117.250553 
L 338.427133 93.278077 
L 338.490555 94.833681 
L 338.617398 98.950945 
L 338.744241 108.009274 
L 338.871083 96.114685 
L 338.997926 107.734673 
L 339.061348 106.72827 
L 339.124769 105.904817 
L 339.188191 109.747829 
L 339.251612 108.741077 
L 339.315034 104.715463 
L 339.378455 104.898414 
L 339.632141 109.015677 
L 339.695563 108.466825 
L 339.822406 96.388937 
L 339.885827 97.21239 
L 339.949249 100.048998 
L 340.01267 98.493394 
L 340.202935 94.010228 
L 340.329777 100.048998 
L 340.45662 87.513907 
L 340.583463 100.597851 
L 340.646885 94.559081 
L 340.710306 95.657134 
L 340.773728 97.121089 
L 340.837149 94.742032 
L 340.963992 97.944542 
L 341.027414 96.480587 
L 341.154257 106.087768 
L 341.217678 105.538916 
L 341.407943 108.558126 
L 341.471364 107.643373 
L 341.534786 108.283874 
L 341.788471 125.759682 
L 342.169 135.183912 
L 342.295843 143.327312 
L 342.486108 129.877294 
L 342.549529 129.511044 
L 342.676372 133.811606 
L 342.739794 132.530603 
L 342.803215 129.968595 
L 342.866637 131.7988 
L 342.930058 131.7988 
L 342.99348 130.060245 
L 343.056901 130.609097 
L 343.120323 132.256002 
L 343.183744 131.890101 
L 343.310587 123.198022 
L 343.43743 138.752497 
L 343.564273 126.400184 
L 343.627694 128.687591 
L 343.691116 130.974998 
L 343.817959 128.59629 
L 344.071645 132.256002 
L 344.135066 129.877294 
L 344.261909 141.497456 
L 344.388752 127.132335 
L 344.452174 131.6155 
L 344.515595 133.628656 
L 344.769281 108.466825 
L 344.896124 124.478677 
L 345.022967 109.107327 
L 345.086388 114.322644 
L 345.14981 113.499192 
L 345.213231 106.179418 
L 345.276653 107.277122 
L 345.466917 119.08041 
L 345.530339 117.708105 
L 345.657182 107.734673 
L 345.974289 131.524199 
L 346.101132 126.400184 
L 346.164553 128.230388 
L 346.227975 127.132335 
L 346.354818 115.329048 
L 346.418239 117.158904 
L 346.481661 117.433504 
L 346.545082 114.597245 
L 346.608504 116.701353 
L 346.671925 118.439908 
L 346.735347 117.616455 
L 346.86219 121.276516 
L 346.925611 120.086813 
L 346.989033 117.067603 
L 347.115876 130.609097 
L 347.179297 129.419743 
L 347.242719 128.230388 
L 347.369562 135.09261 
L 347.559826 118.531557 
L 347.623247 121.917018 
L 347.686669 120.453063 
L 348.320884 83.030394 
L 348.447727 96.023036 
L 348.511148 93.095126 
L 348.57457 84.86025 
L 348.637991 88.428662 
L 348.828256 96.023036 
L 349.01852 82.755793 
L 349.081941 83.304994 
L 349.208784 88.886213 
L 349.272206 86.507156 
L 349.399049 98.676344 
L 349.46247 87.605209 
L 349.525892 88.245711 
L 349.589313 100.231949 
L 349.652735 98.950945 
L 349.716156 96.297636 
L 349.779578 104.074961 
L 349.906421 144.882743 
L 349.969842 145.980796 
L 350.033264 144.242415 
L 350.096685 145.065868 
L 350.160107 146.895724 
L 350.28695 141.771882 
L 350.350371 143.144362 
L 350.477214 141.314331 
L 350.604057 143.235837 
L 350.667478 143.144362 
L 350.921164 138.203471 
L 351.17485 146.987199 
L 351.238272 155.31355 
L 351.301693 150.55561 
L 351.491958 138.386422 
L 351.555379 130.517796 
L 351.618801 132.622253 
L 351.682222 140.307928 
L 351.745644 139.392999 
L 351.809065 140.948429 
L 351.872486 146.712773 
L 351.935908 145.431769 
L 351.999329 144.974392 
L 352.126172 154.947649 
L 352.316437 144.150765 
L 352.44328 154.947649 
L 352.506701 152.385641 
L 352.696966 157.052105 
L 352.823809 164.097279 
L 352.88723 158.51606 
L 352.950652 159.430988 
L 353.014073 166.567811 
L 353.077495 161.901347 
L 353.140916 151.836614 
L 353.204337 153.849596 
L 353.267759 160.162966 
L 353.33118 156.319954 
L 353.394602 151.745139 
L 353.521445 165.378283 
L 353.648288 151.92809 
L 353.711709 153.483694 
L 353.965395 169.861623 
L 354.219081 159.980016 
L 354.282503 159.064913 
L 354.409346 165.012381 
L 354.472767 163.822853 
L 354.59961 155.679627 
L 354.663031 158.24146 
L 354.726453 159.79689 
L 354.853296 155.954052 
L 354.916717 156.137003 
L 355.04356 151.836614 
L 355.106982 153.849596 
L 355.170403 151.745139 
L 355.233825 152.111215 
L 355.424089 163.456777 
L 355.487511 169.31277 
L 355.550932 166.933713 
L 355.614354 163.365302 
L 355.677775 165.835834 
L 355.804618 158.607536 
L 355.931461 171.417227 
L 356.058304 153.483694 
L 356.438833 199.140892 
L 356.629097 209.205798 
L 356.946205 246.262391 
L 357.009626 255.137595 
L 357.073048 252.575587 
L 357.136469 247.634696 
L 357.263312 261.908342 
L 357.326734 260.169961 
L 357.453577 255.869572 
L 357.580419 248.9157 
L 357.643841 249.281776 
L 357.834105 245.80484 
L 357.897527 239.582946 
L 358.02437 84.677299 
L 358.087791 83.670896 
L 358.214634 88.977863 
L 358.341477 83.304994 
L 358.46832 88.886213 
L 358.531742 88.06276 
L 358.595163 86.141255 
L 358.658585 86.598806 
L 358.722006 87.330608 
L 358.785428 87.056356 
L 358.912271 94.559081 
L 359.039113 82.115291 
L 359.102535 84.86025 
L 359.165956 86.324205 
L 359.229378 86.141255 
L 359.356221 96.938138 
L 359.483064 85.592402 
L 359.609907 88.794563 
L 359.673328 84.677299 
L 359.73675 86.964707 
L 359.800171 95.748435 
L 359.863593 93.918579 
L 359.927014 84.036797 
L 359.990436 84.128447 
L 360.244122 96.571888 
L 360.370964 88.245711 
L 360.497807 98.767994 
L 360.62465 89.343764 
L 360.688072 93.82693 
L 360.814915 83.396295 
L 360.878336 86.507156 
L 360.941758 88.520312 
L 361.068601 76.534073 
L 361.195444 87.696859 
L 361.258865 85.683703 
L 361.322287 84.219748 
L 361.44913 87.78816 
L 361.512551 87.330608 
L 361.575973 87.239308 
L 361.702816 96.938138 
L 361.766237 96.755187 
L 361.829658 97.30404 
L 361.956501 85.683703 
L 362.019923 87.239308 
L 362.146766 94.010228 
L 362.210187 93.278077 
L 362.400452 96.663538 
L 362.527295 93.461028 
L 362.780981 99.408496 
L 362.907824 96.205987 
L 362.971245 101.147051 
L 363.034667 99.957349 
L 363.16151 94.10153 
L 363.288352 99.408496 
L 363.415195 87.239308 
L 363.478617 94.924983 
L 363.542038 94.193179 
L 363.60546 85.13485 
L 363.668881 85.866654 
L 363.859146 96.205987 
L 363.922567 96.114685 
L 364.04941 94.833681 
L 364.176253 100.1403 
L 364.239675 97.669941 
L 364.303096 97.944542 
L 364.366518 103.52576 
L 364.429939 99.957349 
L 364.493361 94.924983 
L 364.620204 111.303085 
L 364.683625 106.72827 
L 364.747046 104.257912 
L 364.810468 106.911221 
L 364.873889 106.270719 
L 365.064154 93.82693 
L 365.190997 99.499798 
L 365.31784 95.565485 
L 365.76179 116.24415 
L 366.015476 104.715463 
L 366.078898 159.430988 
L 366.142319 155.679627 
L 366.20574 160.07149 
L 366.269162 158.699012 
L 366.332583 157.784083 
L 366.396005 161.626921 
L 366.522848 155.679627 
L 366.586269 164.829256 
L 366.649691 163.456777 
L 366.713112 152.111215 
L 366.776534 153.849596 
L 366.839955 160.437392 
L 366.966798 145.065868 
L 367.03022 148.81723 
L 367.093641 152.202691 
L 367.157063 151.562189 
L 367.347327 142.595335 
L 367.47417 150.281185 
L 367.727856 139.942026 
L 367.91812 154.215672 
L 367.981542 152.477117 
L 368.044963 148.176728 
L 368.171806 127.864138 
L 368.298649 150.098234 
L 368.362071 145.523245 
L 368.425492 139.118399 
L 368.488914 142.68681 
L 368.552335 145.157343 
L 368.679178 134.54341 
L 368.7426 136.739516 
L 368.806021 137.74592 
L 368.932864 133.537006 
L 368.996285 134.90966 
L 369.249971 126.857735 
L 369.376814 125.57673 
L 369.440236 125.851331 
L 369.503657 125.210829 
L 369.567079 123.289323 
L 369.693922 129.968595 
L 369.820765 117.708105 
L 369.947608 129.968595 
L 370.011029 122.740471 
L 370.074451 123.106372 
L 370.137872 128.32169 
L 370.201294 125.759682 
L 370.391558 116.793002 
L 370.518401 110.388331 
L 370.772087 119.172059 
L 370.835508 119.172059 
L 370.89893 120.178463 
L 370.962351 123.746874 
L 371.025773 121.276516 
L 371.089194 115.146097 
L 371.152616 116.1525 
L 371.279459 119.903863 
L 371.406302 130.609097 
L 371.533145 112.94999 
L 371.596566 116.427101 
L 371.659988 116.24415 
L 371.723409 115.511998 
L 371.850252 119.172059 
L 371.913673 116.793002 
L 371.977095 117.158904 
L 372.040516 116.884652 
L 372.103938 114.505595 
L 372.167359 115.603648 
L 372.230781 120.727315 
L 372.294202 117.250553 
L 372.357624 109.107327 
L 372.421045 114.322644 
L 372.484467 122.55752 
L 372.61131 107.094171 
L 372.738153 120.178463 
L 372.801574 116.701353 
L 372.864996 116.884652 
L 373.05526 120.818965 
L 373.182103 107.185821 
L 373.245525 107.826323 
L 373.372367 119.446311 
L 373.49921 116.061199 
L 373.626053 118.439908 
L 373.689475 117.341855 
L 373.752896 118.989108 
L 373.879739 114.871496 
L 374.006582 127.681188 
L 374.133425 113.499192 
L 374.32369 128.687591 
L 374.387111 133.354055 
L 374.450533 129.145142 
L 374.513954 131.158298 
L 374.577376 133.079455 
L 374.640797 130.060245 
L 374.831061 142.68681 
L 374.894483 137.562969 
L 375.021326 124.295726 
L 375.338433 137.74592 
L 375.401855 136.190664 
L 375.528698 128.138739 
L 375.592119 128.59629 
L 375.718962 127.223636 
L 375.909227 131.981751 
L 375.972648 131.7988 
L 376.099491 129.145142 
L 376.289755 130.517796 
L 376.416598 141.954833 
L 376.543441 135.916063 
L 376.670284 139.301524 
L 376.733706 138.752497 
L 376.797127 139.758901 
L 376.92397 144.05929 
L 377.241078 118.989108 
L 377.367921 133.537006 
L 377.494764 129.328093 
L 377.558185 130.243195 
L 377.621606 128.230388 
L 377.748449 121.276516 
L 377.811871 127.955788 
L 377.875292 127.772837 
L 378.002135 118.80581 
L 378.1924 132.256002 
L 378.255821 129.785644 
L 378.382664 117.341855 
L 378.509507 123.289323 
L 378.699772 134.452108 
L 379.0803 103.708711 
L 379.143722 106.270719 
L 379.333986 118.165656 
L 379.460829 107.185821 
L 379.587672 117.250553 
L 379.651094 115.511998 
L 379.714515 114.413945 
L 380.095044 134.360459 
L 380.221887 130.060245 
L 380.285309 131.341249 
L 380.475573 116.975953 
L 380.538994 120.636014 
L 380.602416 120.453063 
L 380.665837 119.62961 
L 380.729259 120.361414 
L 380.79268 117.891055 
L 380.919523 122.465871 
L 381.046366 107.643373 
L 381.173209 121.001916 
L 381.236631 117.158904 
L 381.300052 117.341855 
L 381.426895 120.636014 
L 381.553738 117.616455 
L 381.61716 118.074006 
L 381.807424 120.086813 
L 381.870846 120.269764 
L 381.934267 121.734067 
L 381.997688 121.093565 
L 382.06111 119.62961 
L 382.251374 130.517796 
L 382.378217 94.010228 
L 382.568482 110.022081 
L 382.631903 109.107327 
L 382.695325 105.904817 
L 382.822168 115.786599 
L 382.885589 112.035236 
L 382.949011 107.460422 
L 383.012432 108.192225 
L 383.075854 108.192225 
L 383.202697 105.904817 
L 383.392961 119.995512 
L 383.519804 118.80581 
L 383.583225 119.995512 
L 383.646647 119.720912 
L 383.710068 119.903863 
L 383.900333 117.433504 
L 383.963754 116.518402 
L 384.090597 125.48543 
L 384.21744 114.139694 
L 384.344283 118.165656 
L 384.407705 116.975953 
L 384.661391 127.040686 
L 384.724812 123.014722 
L 384.788233 123.838175 
L 384.851655 128.230388 
L 384.978498 120.269764 
L 385.105341 132.256002 
L 385.232184 114.230994 
L 385.359027 99.957349 
L 385.422448 108.832726 
L 385.48587 104.715463 
L 385.612713 90.350168 
L 385.802977 94.833681 
L 385.866399 96.388937 
L 385.92982 95.565485 
L 385.993242 96.114685 
L 386.120085 101.147051 
L 386.183506 95.657134 
L 386.246927 97.852892 
L 386.37377 108.741077 
L 386.437192 109.107327 
L 386.500613 114.505595 
L 386.564035 112.401138 
L 386.627456 107.002871 
L 386.690878 109.381579 
L 386.817721 120.727315 
L 387.134828 97.21239 
L 387.19825 97.121089 
L 387.388514 108.283874 
L 387.451936 107.185821 
L 387.578779 96.388937 
L 387.705621 109.93078 
L 387.769043 108.009274 
L 387.959307 122.831772 
L 388.339836 92.912175 
L 388.403258 93.735628 
L 388.466679 96.114685 
L 388.656944 76.442424 
L 388.720365 67.109843 
L 388.783787 68.482148 
L 388.974051 74.063715 
L 389.037473 78.180979 
L 389.100894 75.52767 
L 389.164315 74.978469 
L 389.35458 81.108888 
L 389.418001 85.226152 
L 389.671687 72.32516 
L 389.79853 75.618971 
L 389.861952 74.337967 
L 389.988795 78.36393 
L 390.052216 74.246666 
L 390.179059 85.317801 
L 390.305902 82.115291 
L 390.369324 83.487945 
L 390.432745 101.330002 
L 390.496167 100.4149 
L 390.559588 96.755187 
L 390.623009 97.121089 
L 390.686431 99.591447 
L 390.749852 98.402093 
L 390.813274 96.023036 
L 390.876695 96.388937 
L 391.003538 97.944542 
L 391.06696 99.408496 
L 391.130381 98.035842 
L 391.193803 98.127492 
L 391.257224 100.6895 
L 391.320646 99.133896 
L 391.447489 93.735628 
L 391.574332 97.395341 
L 391.637753 97.669941 
L 391.828018 111.394734 
L 391.891439 110.022081 
L 392.081703 98.035842 
L 392.271968 96.388937 
L 392.335389 97.486991 
L 392.462232 108.009274 
L 392.589075 101.695904 
L 392.715918 108.558126 
L 392.77934 105.721867 
L 392.842761 106.545319 
L 392.969604 107.643373 
L 393.033026 107.002871 
L 393.096447 107.277122 
L 393.286712 111.303085 
L 393.413554 121.642418 
L 393.476976 116.24415 
L 393.540397 116.701353 
L 393.603819 119.35501 
L 393.66724 118.165656 
L 393.794083 117.341855 
L 393.920926 119.263361 
L 393.984348 117.982357 
L 394.174612 132.164701 
L 394.301455 120.636014 
L 394.428298 132.347652 
L 394.49172 131.158298 
L 394.618563 138.752497 
L 394.745406 128.962192 
L 394.999091 141.588931 
L 395.125934 130.974998 
L 395.189356 132.805203 
L 395.316199 140.399403 
L 395.506463 130.243195 
L 395.633306 126.400184 
L 395.760149 130.974998 
L 395.886992 125.11918 
L 396.013835 135.458512 
L 396.077257 135.000961 
L 396.330942 126.674783 
L 396.394364 127.406587 
L 396.521207 138.477897 
L 396.64805 127.040686 
L 396.774893 132.073051 
L 396.838314 127.864138 
L 396.901736 131.524199 
L 397.028579 144.150765 
L 397.092 139.301524 
L 397.155422 140.765479 
L 397.218843 144.791267 
L 397.345686 140.582354 
L 397.599372 159.430988 
L 397.662794 158.24146 
L 397.726215 153.026143 
L 397.853058 166.384861 
L 397.916479 166.11026 
L 398.106744 161.901347 
L 398.233587 165.652883 
L 398.36043 156.594554 
L 398.423851 157.600958 
L 398.487273 158.24146 
L 398.487273 158.24146 
" clip-path="url(#pde4fd173bc)" style="fill: none; stroke: #1f77b4; stroke-width: 1.5; stroke-linecap: square"/>
   </g>
   <g id="patch_3">
    <path d="M 57.6 307.584 
L 57.6 41.472 
" style="fill: none; stroke: #000000; stroke-width: 0.8; stroke-linejoin: miter; stroke-linecap: square"/>
   </g>
   <g id="patch_4">
    <path d="M 414.72 307.584 
L 414.72 41.472 
" style="fill: none; stroke: #000000; stroke-width: 0.8; stroke-linejoin: miter; stroke-linecap: square"/>
   </g>
   <g id="patch_5">
    <path d="M 57.6 307.584 
L 414.72 307.584 
" style="fill: none; stroke: #000000; stroke-width: 0.8; stroke-linejoin: miter; stroke-linecap: square"/>
   </g>
   <g id="patch_6">
    <path d="M 57.6 41.472 
L 414.72 41.472 
" style="fill: none; stroke: #000000; stroke-width: 0.8; stroke-linejoin: miter; stroke-linecap: square"/>
   </g>
   <g id="legend_1">
    <g id="patch_7">
     <path d="M 354.074688 64.150125 
L 407.72 64.150125 
Q 409.72 64.150125 409.72 62.150125 
L 409.72 48.472 
Q 409.72 46.472 407.72 46.472 
L 354.074688 46.472 
Q 352.074688 46.472 352.074688 48.472 
L 352.074688 62.150125 
Q 352.074688 64.150125 354.074688 64.150125 
z
" style="fill: #ffffff; opacity: 0.8; stroke: #cccccc; stroke-linejoin: miter"/>
    </g>
    <g id="line2d_15">
     <path d="M 356.074688 54.570438 
L 366.074688 54.570438 
L 376.074688 54.570438 
" style="fill: none; stroke: #1f77b4; stroke-width: 1.5; stroke-linecap: square"/>
    </g>
    <g id="text_14">
     <!-- set2 -->
     <g transform="translate(384.074688 58.070438)scale(0.1 -0.1)">
      <defs>
       <path id="DejaVuSans-73" d="M 2834 3397 
L 2834 2853 
Q 2591 2978 2328 3040 
Q 2066 3103 1784 3103 
Q 1356 3103 1142 2972 
Q 928 2841 928 2578 
Q 928 2378 1081 2264 
Q 1234 2150 1697 2047 
L 1894 2003 
Q 2506 1872 2764 1633 
Q 3022 1394 3022 966 
Q 3022 478 2636 193 
Q 2250 -91 1575 -91 
Q 1294 -91 989 -36 
Q 684 19 347 128 
L 347 722 
Q 666 556 975 473 
Q 1284 391 1588 391 
Q 1994 391 2212 530 
Q 2431 669 2431 922 
Q 2431 1156 2273 1281 
Q 2116 1406 1581 1522 
L 1381 1569 
Q 847 1681 609 1914 
Q 372 2147 372 2553 
Q 372 3047 722 3315 
Q 1072 3584 1716 3584 
Q 2034 3584 2315 3537 
Q 2597 3491 2834 3397 
z
" transform="scale(0.015625)"/>
       <path id="DejaVuSans-65" d="M 3597 1894 
L 3597 1613 
L 953 1613 
Q 991 1019 1311 708 
Q 1631 397 2203 397 
Q 2534 397 2845 478 
Q 3156 559 3463 722 
L 3463 178 
Q 3153 47 2828 -22 
Q 2503 -91 2169 -91 
Q 1331 -91 842 396 
Q 353 884 353 1716 
Q 353 2575 817 3079 
Q 1281 3584 2069 3584 
Q 2775 3584 3186 3129 
Q 3597 2675 3597 1894 
z
M 3022 2063 
Q 3016 2534 2758 2815 
Q 2500 3097 2075 3097 
Q 1594 3097 1305 2825 
Q 1016 2553 972 2059 
L 3022 2063 
z
" transform="scale(0.015625)"/>
       <path id="DejaVuSans-74" d="M 1172 4494 
L 1172 3500 
L 2356 3500 
L 2356 3053 
L 1172 3053 
L 1172 1153 
Q 1172 725 1289 603 
Q 1406 481 1766 481 
L 2356 481 
L 2356 0 
L 1766 0 
Q 1100 0 847 248 
Q 594 497 594 1153 
L 594 3053 
L 172 3053 
L 172 3500 
L 594 3500 
L 594 4494 
L 1172 4494 
z
" transform="scale(0.015625)"/>
      </defs>
      <use xlink:href="#DejaVuSans-73"/>
      <use xlink:href="#DejaVuSans-65" x="52.099609"/>
      <use xlink:href="#DejaVuSans-74" x="113.623047"/>
      <use xlink:href="#DejaVuSans-32" x="152.832031"/>
     </g>
    </g>
   </g>
  </g>
 </g>
 <defs>
  <clipPath id="pde4fd173bc">
   <rect x="57.6" y="41.472" width="357.12" height="266.112"/>
  </clipPath>
 </defs>
</svg>
