<?xml version="1.0" encoding="utf-8" standalone="no"?>
<!DOCTYPE svg PUBLIC "-//W3C//DTD SVG 1.1//EN"
  "http://www.w3.org/Graphics/SVG/1.1/DTD/svg11.dtd">
<svg xmlns:xlink="http://www.w3.org/1999/xlink" width="460.8pt" height="345.6pt" viewBox="0 0 460.8 345.6" xmlns="http://www.w3.org/2000/svg" version="1.1">
 <metadata>
  <rdf:RDF xmlns:dc="http://purl.org/dc/elements/1.1/" xmlns:cc="http://creativecommons.org/ns#" xmlns:rdf="http://www.w3.org/1999/02/22-rdf-syntax-ns#">
   <cc:Work>
    <dc:type rdf:resource="http://purl.org/dc/dcmitype/StillImage"/>
    <dc:date>2022-08-11T15:18:19.251832</dc:date>
    <dc:format>image/svg+xml</dc:format>
    <dc:creator>
     <cc:Agent>
      <dc:title>Matplotlib v3.5.2, https://matplotlib.org/</dc:title>
     </cc:Agent>
    </dc:creator>
   </cc:Work>
  </rdf:RDF>
 </metadata>
 <defs>
  <style type="text/css">*{stroke-linejoin: round; stroke-linecap: butt}</style>
 </defs>
 <g id="figure_1">
  <g id="patch_1">
   <path d="M 0 345.6 
L 460.8 345.6 
L 460.8 0 
L 0 0 
z
" style="fill: #ffffff"/>
  </g>
  <g id="axes_1">
   <g id="patch_2">
    <path d="M 57.6 307.584 
L 414.72 307.584 
L 414.72 41.472 
L 57.6 41.472 
z
" style="fill: #ffffff"/>
   </g>
   <g id="matplotlib.axis_1">
    <g id="xtick_1">
     <g id="line2d_1">
      <defs>
       <path id="m7278b3ead4" d="M 0 0 
L 0 3.5 
" style="stroke: #000000; stroke-width: 0.8"/>
      </defs>
      <g>
       <use xlink:href="#m7278b3ead4" x="73.832727" y="307.584" style="stroke: #000000; stroke-width: 0.8"/>
      </g>
     </g>
     <g id="text_1">
      <!-- 0 -->
      <g transform="translate(70.651477 322.182437)scale(0.1 -0.1)">
       <defs>
        <path id="DejaVuSans-30" d="M 2034 4250 
Q 1547 4250 1301 3770 
Q 1056 3291 1056 2328 
Q 1056 1369 1301 889 
Q 1547 409 2034 409 
Q 2525 409 2770 889 
Q 3016 1369 3016 2328 
Q 3016 3291 2770 3770 
Q 2525 4250 2034 4250 
z
M 2034 4750 
Q 2819 4750 3233 4129 
Q 3647 3509 3647 2328 
Q 3647 1150 3233 529 
Q 2819 -91 2034 -91 
Q 1250 -91 836 529 
Q 422 1150 422 2328 
Q 422 3509 836 4129 
Q 1250 4750 2034 4750 
z
" transform="scale(0.015625)"/>
       </defs>
       <use xlink:href="#DejaVuSans-30"/>
      </g>
     </g>
    </g>
    <g id="xtick_2">
     <g id="line2d_2">
      <g>
       <use xlink:href="#m7278b3ead4" x="118.936165" y="307.584" style="stroke: #000000; stroke-width: 0.8"/>
      </g>
     </g>
     <g id="text_2">
      <!-- 500 -->
      <g transform="translate(109.392415 322.182437)scale(0.1 -0.1)">
       <defs>
        <path id="DejaVuSans-35" d="M 691 4666 
L 3169 4666 
L 3169 4134 
L 1269 4134 
L 1269 2991 
Q 1406 3038 1543 3061 
Q 1681 3084 1819 3084 
Q 2600 3084 3056 2656 
Q 3513 2228 3513 1497 
Q 3513 744 3044 326 
Q 2575 -91 1722 -91 
Q 1428 -91 1123 -41 
Q 819 9 494 109 
L 494 744 
Q 775 591 1075 516 
Q 1375 441 1709 441 
Q 2250 441 2565 725 
Q 2881 1009 2881 1497 
Q 2881 1984 2565 2268 
Q 2250 2553 1709 2553 
Q 1456 2553 1204 2497 
Q 953 2441 691 2322 
L 691 4666 
z
" transform="scale(0.015625)"/>
       </defs>
       <use xlink:href="#DejaVuSans-35"/>
       <use xlink:href="#DejaVuSans-30" x="63.623047"/>
       <use xlink:href="#DejaVuSans-30" x="127.246094"/>
      </g>
     </g>
    </g>
    <g id="xtick_3">
     <g id="line2d_3">
      <g>
       <use xlink:href="#m7278b3ead4" x="164.039603" y="307.584" style="stroke: #000000; stroke-width: 0.8"/>
      </g>
     </g>
     <g id="text_3">
      <!-- 1000 -->
      <g transform="translate(151.314603 322.182437)scale(0.1 -0.1)">
       <defs>
        <path id="DejaVuSans-31" d="M 794 531 
L 1825 531 
L 1825 4091 
L 703 3866 
L 703 4441 
L 1819 4666 
L 2450 4666 
L 2450 531 
L 3481 531 
L 3481 0 
L 794 0 
L 794 531 
z
" transform="scale(0.015625)"/>
       </defs>
       <use xlink:href="#DejaVuSans-31"/>
       <use xlink:href="#DejaVuSans-30" x="63.623047"/>
       <use xlink:href="#DejaVuSans-30" x="127.246094"/>
       <use xlink:href="#DejaVuSans-30" x="190.869141"/>
      </g>
     </g>
    </g>
    <g id="xtick_4">
     <g id="line2d_4">
      <g>
       <use xlink:href="#m7278b3ead4" x="209.143041" y="307.584" style="stroke: #000000; stroke-width: 0.8"/>
      </g>
     </g>
     <g id="text_4">
      <!-- 1500 -->
      <g transform="translate(196.418041 322.182437)scale(0.1 -0.1)">
       <use xlink:href="#DejaVuSans-31"/>
       <use xlink:href="#DejaVuSans-35" x="63.623047"/>
       <use xlink:href="#DejaVuSans-30" x="127.246094"/>
       <use xlink:href="#DejaVuSans-30" x="190.869141"/>
      </g>
     </g>
    </g>
    <g id="xtick_5">
     <g id="line2d_5">
      <g>
       <use xlink:href="#m7278b3ead4" x="254.246479" y="307.584" style="stroke: #000000; stroke-width: 0.8"/>
      </g>
     </g>
     <g id="text_5">
      <!-- 2000 -->
      <g transform="translate(241.521479 322.182437)scale(0.1 -0.1)">
       <defs>
        <path id="DejaVuSans-32" d="M 1228 531 
L 3431 531 
L 3431 0 
L 469 0 
L 469 531 
Q 828 903 1448 1529 
Q 2069 2156 2228 2338 
Q 2531 2678 2651 2914 
Q 2772 3150 2772 3378 
Q 2772 3750 2511 3984 
Q 2250 4219 1831 4219 
Q 1534 4219 1204 4116 
Q 875 4013 500 3803 
L 500 4441 
Q 881 4594 1212 4672 
Q 1544 4750 1819 4750 
Q 2544 4750 2975 4387 
Q 3406 4025 3406 3419 
Q 3406 3131 3298 2873 
Q 3191 2616 2906 2266 
Q 2828 2175 2409 1742 
Q 1991 1309 1228 531 
z
" transform="scale(0.015625)"/>
       </defs>
       <use xlink:href="#DejaVuSans-32"/>
       <use xlink:href="#DejaVuSans-30" x="63.623047"/>
       <use xlink:href="#DejaVuSans-30" x="127.246094"/>
       <use xlink:href="#DejaVuSans-30" x="190.869141"/>
      </g>
     </g>
    </g>
    <g id="xtick_6">
     <g id="line2d_6">
      <g>
       <use xlink:href="#m7278b3ead4" x="299.349916" y="307.584" style="stroke: #000000; stroke-width: 0.8"/>
      </g>
     </g>
     <g id="text_6">
      <!-- 2500 -->
      <g transform="translate(286.624916 322.182437)scale(0.1 -0.1)">
       <use xlink:href="#DejaVuSans-32"/>
       <use xlink:href="#DejaVuSans-35" x="63.623047"/>
       <use xlink:href="#DejaVuSans-30" x="127.246094"/>
       <use xlink:href="#DejaVuSans-30" x="190.869141"/>
      </g>
     </g>
    </g>
    <g id="xtick_7">
     <g id="line2d_7">
      <g>
       <use xlink:href="#m7278b3ead4" x="344.453354" y="307.584" style="stroke: #000000; stroke-width: 0.8"/>
      </g>
     </g>
     <g id="text_7">
      <!-- 3000 -->
      <g transform="translate(331.728354 322.182437)scale(0.1 -0.1)">
       <defs>
        <path id="DejaVuSans-33" d="M 2597 2516 
Q 3050 2419 3304 2112 
Q 3559 1806 3559 1356 
Q 3559 666 3084 287 
Q 2609 -91 1734 -91 
Q 1441 -91 1130 -33 
Q 819 25 488 141 
L 488 750 
Q 750 597 1062 519 
Q 1375 441 1716 441 
Q 2309 441 2620 675 
Q 2931 909 2931 1356 
Q 2931 1769 2642 2001 
Q 2353 2234 1838 2234 
L 1294 2234 
L 1294 2753 
L 1863 2753 
Q 2328 2753 2575 2939 
Q 2822 3125 2822 3475 
Q 2822 3834 2567 4026 
Q 2313 4219 1838 4219 
Q 1578 4219 1281 4162 
Q 984 4106 628 3988 
L 628 4550 
Q 988 4650 1302 4700 
Q 1616 4750 1894 4750 
Q 2613 4750 3031 4423 
Q 3450 4097 3450 3541 
Q 3450 3153 3228 2886 
Q 3006 2619 2597 2516 
z
" transform="scale(0.015625)"/>
       </defs>
       <use xlink:href="#DejaVuSans-33"/>
       <use xlink:href="#DejaVuSans-30" x="63.623047"/>
       <use xlink:href="#DejaVuSans-30" x="127.246094"/>
       <use xlink:href="#DejaVuSans-30" x="190.869141"/>
      </g>
     </g>
    </g>
    <g id="xtick_8">
     <g id="line2d_8">
      <g>
       <use xlink:href="#m7278b3ead4" x="389.556792" y="307.584" style="stroke: #000000; stroke-width: 0.8"/>
      </g>
     </g>
     <g id="text_8">
      <!-- 3500 -->
      <g transform="translate(376.831792 322.182437)scale(0.1 -0.1)">
       <use xlink:href="#DejaVuSans-33"/>
       <use xlink:href="#DejaVuSans-35" x="63.623047"/>
       <use xlink:href="#DejaVuSans-30" x="127.246094"/>
       <use xlink:href="#DejaVuSans-30" x="190.869141"/>
      </g>
     </g>
    </g>
   </g>
   <g id="matplotlib.axis_2">
    <g id="ytick_1">
     <g id="line2d_9">
      <defs>
       <path id="m9dff62b111" d="M 0 0 
L -3.5 0 
" style="stroke: #000000; stroke-width: 0.8"/>
      </defs>
      <g>
       <use xlink:href="#m9dff62b111" x="57.6" y="268.282911" style="stroke: #000000; stroke-width: 0.8"/>
      </g>
     </g>
     <g id="text_9">
      <!-- 3900 -->
      <g transform="translate(25.15 272.08213)scale(0.1 -0.1)">
       <defs>
        <path id="DejaVuSans-39" d="M 703 97 
L 703 672 
Q 941 559 1184 500 
Q 1428 441 1663 441 
Q 2288 441 2617 861 
Q 2947 1281 2994 2138 
Q 2813 1869 2534 1725 
Q 2256 1581 1919 1581 
Q 1219 1581 811 2004 
Q 403 2428 403 3163 
Q 403 3881 828 4315 
Q 1253 4750 1959 4750 
Q 2769 4750 3195 4129 
Q 3622 3509 3622 2328 
Q 3622 1225 3098 567 
Q 2575 -91 1691 -91 
Q 1453 -91 1209 -44 
Q 966 3 703 97 
z
M 1959 2075 
Q 2384 2075 2632 2365 
Q 2881 2656 2881 3163 
Q 2881 3666 2632 3958 
Q 2384 4250 1959 4250 
Q 1534 4250 1286 3958 
Q 1038 3666 1038 3163 
Q 1038 2656 1286 2365 
Q 1534 2075 1959 2075 
z
" transform="scale(0.015625)"/>
       </defs>
       <use xlink:href="#DejaVuSans-33"/>
       <use xlink:href="#DejaVuSans-39" x="63.623047"/>
       <use xlink:href="#DejaVuSans-30" x="127.246094"/>
       <use xlink:href="#DejaVuSans-30" x="190.869141"/>
      </g>
     </g>
    </g>
    <g id="ytick_2">
     <g id="line2d_10">
      <g>
       <use xlink:href="#m9dff62b111" x="57.6" y="228.245241" style="stroke: #000000; stroke-width: 0.8"/>
      </g>
     </g>
     <g id="text_10">
      <!-- 4000 -->
      <g transform="translate(25.15 232.04446)scale(0.1 -0.1)">
       <defs>
        <path id="DejaVuSans-34" d="M 2419 4116 
L 825 1625 
L 2419 1625 
L 2419 4116 
z
M 2253 4666 
L 3047 4666 
L 3047 1625 
L 3713 1625 
L 3713 1100 
L 3047 1100 
L 3047 0 
L 2419 0 
L 2419 1100 
L 313 1100 
L 313 1709 
L 2253 4666 
z
" transform="scale(0.015625)"/>
       </defs>
       <use xlink:href="#DejaVuSans-34"/>
       <use xlink:href="#DejaVuSans-30" x="63.623047"/>
       <use xlink:href="#DejaVuSans-30" x="127.246094"/>
       <use xlink:href="#DejaVuSans-30" x="190.869141"/>
      </g>
     </g>
    </g>
    <g id="ytick_3">
     <g id="line2d_11">
      <g>
       <use xlink:href="#m9dff62b111" x="57.6" y="188.20757" style="stroke: #000000; stroke-width: 0.8"/>
      </g>
     </g>
     <g id="text_11">
      <!-- 4100 -->
      <g transform="translate(25.15 192.006789)scale(0.1 -0.1)">
       <use xlink:href="#DejaVuSans-34"/>
       <use xlink:href="#DejaVuSans-31" x="63.623047"/>
       <use xlink:href="#DejaVuSans-30" x="127.246094"/>
       <use xlink:href="#DejaVuSans-30" x="190.869141"/>
      </g>
     </g>
    </g>
    <g id="ytick_4">
     <g id="line2d_12">
      <g>
       <use xlink:href="#m9dff62b111" x="57.6" y="148.1699" style="stroke: #000000; stroke-width: 0.8"/>
      </g>
     </g>
     <g id="text_12">
      <!-- 4200 -->
      <g transform="translate(25.15 151.969118)scale(0.1 -0.1)">
       <use xlink:href="#DejaVuSans-34"/>
       <use xlink:href="#DejaVuSans-32" x="63.623047"/>
       <use xlink:href="#DejaVuSans-30" x="127.246094"/>
       <use xlink:href="#DejaVuSans-30" x="190.869141"/>
      </g>
     </g>
    </g>
    <g id="ytick_5">
     <g id="line2d_13">
      <g>
       <use xlink:href="#m9dff62b111" x="57.6" y="108.132229" style="stroke: #000000; stroke-width: 0.8"/>
      </g>
     </g>
     <g id="text_13">
      <!-- 4300 -->
      <g transform="translate(25.15 111.931448)scale(0.1 -0.1)">
       <use xlink:href="#DejaVuSans-34"/>
       <use xlink:href="#DejaVuSans-33" x="63.623047"/>
       <use xlink:href="#DejaVuSans-30" x="127.246094"/>
       <use xlink:href="#DejaVuSans-30" x="190.869141"/>
      </g>
     </g>
    </g>
    <g id="ytick_6">
     <g id="line2d_14">
      <g>
       <use xlink:href="#m9dff62b111" x="57.6" y="68.094559" style="stroke: #000000; stroke-width: 0.8"/>
      </g>
     </g>
     <g id="text_14">
      <!-- 4400 -->
      <g transform="translate(25.15 71.893777)scale(0.1 -0.1)">
       <use xlink:href="#DejaVuSans-34"/>
       <use xlink:href="#DejaVuSans-34" x="63.623047"/>
       <use xlink:href="#DejaVuSans-30" x="127.246094"/>
       <use xlink:href="#DejaVuSans-30" x="190.869141"/>
      </g>
     </g>
    </g>
   </g>
   <g id="line2d_15">
    <path d="M 73.832727 210.433658 
L 73.922934 209.458326 
L 74.103348 211.819532 
L 74.283762 210.638929 
L 74.464175 202.169437 
L 74.644589 204.838648 
L 74.734796 204.479325 
L 74.825003 205.095237 
L 75.095624 197.549661 
L 75.18583 198.627628 
L 75.366244 197.908983 
L 75.456451 197.703712 
L 76.178106 185.641093 
L 76.448727 190.517458 
L 76.538934 191.800697 
L 76.899761 185.692313 
L 76.989968 187.745612 
L 77.080175 186.616425 
L 77.260589 170.960484 
L 77.441002 173.835063 
L 77.531209 170.857848 
L 77.621416 171.114535 
L 77.80183 174.040334 
L 77.982244 172.141086 
L 78.07245 172.60324 
L 78.162657 173.886479 
L 78.252864 173.321689 
L 78.523485 169.77988 
L 78.703899 164.698342 
L 78.794105 166.0328 
L 78.884312 165.724893 
L 79.064726 160.694575 
L 79.154933 160.84843 
L 79.335347 159.719243 
L 79.425554 157.255401 
L 79.605967 148.221315 
L 79.696174 148.1699 
L 79.876588 146.886661 
L 79.966795 147.194568 
L 80.057002 146.835245 
L 80.237415 149.709825 
L 80.598243 147.091932 
L 80.68845 146.937881 
L 80.868864 148.067264 
L 80.95907 148.375171 
L 81.049277 147.964629 
L 81.319898 142.780258 
L 81.500312 141.394384 
L 81.590519 141.856342 
L 81.861139 135.645225 
L 82.041553 148.323951 
L 82.13176 147.50267 
L 82.312174 143.601539 
L 82.40238 146.013965 
L 82.492587 145.911329 
L 82.763208 136.466505 
L 82.943622 142.112833 
L 83.033829 141.650875 
L 83.214242 147.50267 
L 83.394656 144.525455 
L 83.57507 152.173667 
L 83.755484 147.400034 
L 83.84569 147.656526 
L 83.935897 147.245984 
L 84.026104 148.323951 
L 84.116311 151.249751 
L 84.206518 151.095699 
L 84.296725 148.477807 
L 84.386932 150.017732 
L 84.477139 154.072914 
L 84.567345 153.508321 
L 84.747759 146.629974 
L 84.928173 148.221315 
L 85.01838 147.091932 
L 85.108587 147.297203 
L 85.198794 148.426586 
L 85.289 147.759162 
L 85.379207 149.042596 
L 85.469414 152.892312 
L 85.559621 151.86576 
L 85.740035 147.297203 
L 85.830242 148.221315 
L 86.191069 138.776491 
L 86.371483 146.835245 
L 86.46169 146.373287 
L 86.551897 144.628091 
L 86.73231 149.247867 
L 87.002931 141.137697 
L 87.183345 154.329602 
L 87.273552 153.662176 
L 87.363759 152.327718 
L 87.544172 158.436004 
L 87.905 146.168016 
L 87.995207 147.50267 
L 88.175621 153.662176 
L 88.356034 154.021499 
L 88.446241 154.791559 
L 88.626655 159.924514 
L 88.716862 159.154649 
L 88.807069 159.411336 
L 88.897276 158.897962 
L 89.167896 154.432237 
L 89.258103 152.840896 
L 89.34831 154.84278 
L 89.438517 154.637508 
L 89.528724 153.559541 
L 89.709137 158.076682 
L 89.979758 148.118484 
L 90.069965 180.816045 
L 90.160172 180.045985 
L 90.340586 182.253335 
L 90.430792 183.587794 
L 90.520999 181.123952 
L 90.701413 171.422637 
L 90.79162 172.295138 
L 91.423068 186.308322 
L 91.513275 185.846364 
L 91.693689 183.331107 
L 91.783896 185.127719 
L 92.054516 177.787415 
L 92.144723 178.968018 
L 92.23493 177.120185 
L 92.325137 177.582143 
L 92.505551 184.871033 
L 92.595757 184.51171 
L 92.685964 185.487042 
L 92.776171 185.076499 
L 92.956585 181.739961 
L 93.046792 183.63921 
L 93.136999 182.869149 
L 93.317412 178.865382 
L 93.407619 178.865382 
L 93.497826 179.892129 
L 93.588033 179.840714 
L 93.67824 179.224704 
L 93.858654 174.707759 
L 93.948861 174.810395 
L 94.129274 182.355971 
L 94.490102 179.789298 
L 94.670516 180.148621 
L 94.760722 179.892129 
L 94.850929 178.916798 
L 95.12155 171.576493 
L 95.301964 179.738078 
L 95.482377 178.968018 
L 95.572584 177.274236 
L 95.843205 169.164067 
L 95.933412 170.242034 
L 96.113826 173.475741 
L 96.294239 171.935815 
L 96.56486 174.502292 
L 96.745274 171.21717 
L 96.835481 172.65446 
L 97.015894 179.943349 
L 97.376722 172.962367 
L 97.466929 174.964251 
L 97.557136 179.738078 
L 97.737549 172.038451 
L 97.917963 176.709643 
L 98.098377 169.369338 
L 98.188584 262.841854 
L 98.278791 255.450329 
L 98.820032 223.882151 
L 99.000446 210.433658 
L 99.090652 209.663695 
L 99.271066 203.144671 
L 99.45148 206.891849 
L 99.541687 205.249288 
L 99.812307 195.445141 
L 99.992721 194.726497 
L 100.263342 202.528759 
L 100.624169 196.31774 
L 100.804583 192.211337 
L 100.89479 190.774047 
L 101.165411 179.430171 
L 101.255617 177.736194 
L 101.345824 178.300788 
L 101.436031 179.584027 
L 101.616445 177.787415 
L 101.887066 173.629792 
L 101.977272 175.477624 
L 102.067479 172.859731 
L 102.247893 162.2345 
L 102.428307 167.572726 
L 102.698927 157.665943 
L 102.789134 156.588172 
L 103.059755 140.367637 
L 103.149962 142.420936 
L 103.240169 141.856342 
L 103.420582 134.977996 
L 103.600996 138.365753 
L 104.052031 129.331667 
L 104.232444 136.928464 
L 104.322651 135.183267 
L 104.412858 135.901912 
L 104.954099 119.989479 
L 105.134513 122.093998 
L 105.22472 121.426769 
L 105.405134 123.01811 
L 105.585548 114.95916 
L 105.765961 110.596071 
L 105.856168 109.877426 
L 105.946375 110.185528 
L 106.036582 111.879309 
L 106.126789 111.571403 
L 106.216996 109.569519 
L 106.307203 190.671412 
L 106.397409 188.053519 
L 106.577823 194.007852 
L 106.848444 182.971785 
L 106.938651 183.998532 
L 107.028858 183.382522 
L 107.119064 180.969901 
L 107.209271 181.894013 
L 107.389685 187.283654 
L 107.479892 185.076499 
L 107.570099 185.538457 
L 107.840719 178.506059 
L 107.930926 179.122069 
L 108.381961 186.667645 
L 108.652581 184.409074 
L 108.832995 178.865382 
L 108.923202 179.070848 
L 109.013409 178.865382 
L 109.103616 178.352204 
L 109.193823 178.403424 
L 109.374236 173.167834 
L 109.55465 179.789298 
L 109.644857 178.300788 
L 109.825271 180.251452 
L 110.005684 171.011899 
L 110.186098 176.35032 
L 110.366512 170.755212 
L 110.456719 171.525273 
L 110.637133 164.903613 
L 110.727339 165.776113 
L 110.817546 167.264819 
L 110.99796 160.129785 
L 111.178374 165.724893 
L 111.268581 164.133552 
L 111.358788 165.724893 
L 111.448994 165.519622 
L 111.539201 166.289487 
L 111.629408 171.473857 
L 111.719615 170.755212 
L 111.900029 163.979697 
L 111.990236 166.186851 
L 112.170649 164.492875 
L 112.351063 167.316039 
L 112.44127 164.646926 
L 112.531477 165.006249 
L 112.711891 175.169717 
L 112.892304 166.289487 
L 113.072718 169.061431 
L 113.253132 165.262935 
L 113.523753 173.270469 
L 113.613959 171.16595 
L 114.064994 177.787415 
L 114.155201 174.348437 
L 114.245408 174.502292 
L 114.335614 176.863498 
L 114.425821 132.257467 
L 114.516028 135.337318 
L 114.606235 136.261234 
L 114.696442 135.74786 
L 114.876856 136.36387 
L 115.147476 133.797392 
L 115.237683 135.645225 
L 115.418097 142.3183 
L 115.598511 135.491369 
L 115.778924 142.677623 
L 115.869131 141.188917 
L 115.959338 141.804927 
L 116.139752 148.323951 
L 116.320166 147.50267 
L 116.500579 146.116601 
L 116.680993 148.426586 
L 116.7712 146.73261 
L 116.861407 148.118484 
L 117.041821 155.715476 
L 117.222234 154.226966 
L 117.402648 156.177434 
L 117.492855 157.974046 
L 117.673269 162.593822 
L 117.853683 150.890428 
L 118.034096 154.637508 
L 118.124303 152.327718 
L 118.21451 153.610957 
L 118.394924 160.283837 
L 118.575338 159.000598 
L 119.026372 163.158416 
L 119.477406 159.462556 
L 119.567613 159.205869 
L 119.748027 161.156532 
L 119.928441 159.821878 
L 120.018648 160.899846 
L 120.199061 158.692691 
L 120.289268 159.462556 
L 120.379475 159.35992 
L 120.469682 159.154649 
L 120.559889 159.35992 
L 120.650096 161.002482 
L 120.830509 167.110767 
L 121.010923 164.954833 
L 121.281544 166.905496 
L 121.371751 167.367454 
L 121.461958 168.548057 
L 121.642371 173.783647 
L 121.732578 173.835063 
L 121.822785 173.42452 
L 121.912992 173.886479 
L 122.454233 166.084216 
L 122.634647 198.781581 
L 122.724854 198.370941 
L 122.905268 196.523109 
L 123.085681 198.678946 
L 123.266095 192.827346 
L 123.446509 197.241754 
L 123.626923 194.007852 
L 123.807336 199.500226 
L 123.98775 197.190338 
L 124.168164 206.583844 
L 124.348578 197.75503 
L 124.438785 198.678946 
L 124.799612 205.095237 
L 124.980026 203.042036 
L 125.070233 203.35004 
L 125.16044 202.990718 
L 125.250646 201.91275 
L 125.521267 197.087703 
L 125.611474 195.547777 
L 125.882095 198.16567 
L 126.062508 204.479325 
L 126.152715 202.734031 
L 126.242922 199.910867 
L 126.423336 202.374708 
L 126.693956 192.057384 
L 126.784163 192.468024 
L 126.964577 201.245521 
L 127.144991 197.190338 
L 127.235198 197.447025 
L 127.325405 197.190338 
L 127.415611 197.241754 
L 127.596025 190.671412 
L 127.686232 192.057384 
L 127.866646 196.471791 
L 128.04706 202.272073 
L 128.137266 201.50211 
L 128.498094 191.390057 
L 128.588301 192.57066 
L 128.678508 192.313973 
L 128.768715 190.825463 
L 128.949128 194.675179 
L 129.039335 191.749379 
L 129.129542 193.083935 
L 129.309956 198.063035 
L 129.400163 198.524992 
L 129.49037 198.370941 
L 129.580576 196.523109 
L 129.670783 196.72838 
L 129.76099 196.31774 
L 129.941404 193.751263 
L 130.121818 190.158136 
L 130.212025 191.390057 
L 130.302231 193.39194 
L 130.663059 183.074616 
L 131.114093 179.173484 
L 131.294507 172.243918 
L 131.384714 172.346553 
L 131.565128 176.709643 
L 131.745541 185.487042 
L 131.835748 185.589677 
L 132.016162 187.232239 
L 132.467196 180.405307 
L 132.557403 178.249568 
L 132.64761 178.916798 
L 132.737817 180.867265 
L 132.918231 178.044101 
L 133.098645 181.380639 
L 133.188851 181.432054 
L 133.279058 184.51171 
L 133.369265 184.409074 
L 133.549679 178.352204 
L 133.730093 182.817929 
L 134.000713 178.044101 
L 134.181127 180.200036 
L 134.361541 176.504176 
L 134.451748 176.966134 
L 134.722368 179.892129 
L 134.812575 179.892129 
L 134.992989 177.222821 
L 135.083196 176.914914 
L 135.26361 177.684779 
L 135.53423 172.295138 
L 135.624437 171.935815 
L 135.714644 171.114535 
L 135.895058 174.553708 
L 135.985265 174.399657 
L 136.075471 174.451072 
L 136.165678 172.911147 
L 136.436299 164.646926 
L 136.526506 164.903613 
L 136.70692 166.751445 
L 136.797126 166.546174 
L 136.97754 167.675361 
L 137.157954 171.679128 
L 137.338368 166.340903 
L 137.608988 174.348437 
L 137.969816 171.114535 
L 138.060023 171.319806 
L 138.15023 175.015666 
L 138.240436 174.399657 
L 138.330643 171.781764 
L 138.42085 172.346553 
L 138.511057 170.857848 
L 138.691471 164.595706 
L 138.871885 77.847289 
L 138.962091 73.946158 
L 139.052298 78.771206 
L 139.503333 53.978738 
L 139.59354 53.568 
L 139.683746 56.493995 
L 139.773953 55.621299 
L 139.954367 61.472899 
L 140.224988 68.710568 
L 140.315195 68.351245 
L 140.405402 68.453881 
L 140.585815 72.662919 
L 141.217263 97.198895 
L 141.30747 95.504919 
L 141.487884 98.174227 
L 141.668298 90.320548 
L 141.848712 92.425068 
L 142.029125 100.535433 
L 142.119332 99.970644 
L 142.209539 100.84334 
L 142.570367 111.674038 
L 142.660573 110.544851 
L 142.840987 103.666504 
L 143.021401 113.059912 
L 143.111608 112.392683 
L 143.201815 110.647486 
L 143.292022 111.981945 
L 143.382228 116.191179 
L 143.472435 114.95916 
L 143.652849 103.307181 
L 143.833263 111.058029 
L 143.92347 109.210197 
L 144.013677 109.672154 
L 144.284297 116.755772 
L 144.554918 114.189295 
L 144.645125 115.831856 
L 145.005952 130.050312 
L 145.096159 130.614906 
L 145.276573 136.055963 
L 145.456987 134.208131 
L 145.547193 134.567453 
L 145.6374 134.516037 
L 145.998228 141.753511 
L 146.088435 141.599655 
L 146.268848 140.367637 
L 146.359055 141.240333 
L 146.449262 140.213781 
L 146.539469 140.932231 
L 146.719883 148.734493 
L 146.81009 146.73261 
L 146.900297 172.808511 
L 146.990503 172.551824 
L 147.170917 176.196269 
L 147.441538 165.98158 
L 147.531745 167.059547 
L 147.621952 166.751445 
L 147.712158 166.0328 
L 147.802365 167.829412 
L 147.982779 173.373105 
L 148.2534 165.519622 
L 148.433813 167.521506 
L 148.614227 166.0328 
L 148.884848 173.065198 
L 148.975055 172.65446 
L 149.065262 173.013783 
L 149.155468 172.757096 
L 149.426089 166.186851 
L 149.606503 168.188735 
L 149.69671 165.724893 
L 149.786917 165.827529 
L 149.877123 166.64881 
L 150.057537 165.262935 
L 150.237951 166.956717 
L 150.328158 167.162183 
L 150.418365 165.673478 
L 150.598778 159.205869 
L 150.688985 164.492875 
L 150.779192 164.287604 
L 150.869399 159.667827 
L 151.049813 165.314155 
L 151.230227 158.436004 
L 151.41064 161.823762 
L 151.681261 153.662176 
L 151.951882 161.002482 
L 152.042088 158.846547 
L 152.132295 159.513971 
L 152.222502 164.441655 
L 152.312709 164.287604 
L 152.493123 159.257285 
L 152.673537 160.745794 
L 152.944157 168.702109 
L 153.124571 165.724893 
L 153.304985 174.348437 
L 153.485398 169.523389 
L 153.665812 175.067081 
L 153.846226 171.371221 
L 153.936433 173.219054 
L 154.02664 177.736194 
L 154.116847 177.582143 
L 154.207053 173.116418 
L 154.29726 174.348437 
L 154.387467 178.095517 
L 154.477674 177.479508 
L 154.567881 178.198153 
L 154.658088 180.918681 
L 154.748295 180.507943 
L 154.928708 179.584027 
L 155.018915 206.378475 
L 155.109122 204.633279 
L 155.289536 209.663695 
L 155.379743 209.047686 
L 155.650363 201.348157 
L 155.920984 203.709363 
L 156.011191 204.376592 
L 156.101398 203.863316 
L 156.281812 200.834881 
L 156.372018 201.91275 
L 156.462225 201.861432 
L 156.642639 199.346273 
L 156.732846 198.832997 
L 157.003467 196.009735 
L 157.093673 195.445141 
L 157.18388 195.753146 
L 157.364294 191.492692 
L 157.454501 191.852015 
L 157.634915 191.492692 
L 157.725122 192.519342 
L 157.815329 192.416706 
L 158.085949 188.823579 
L 158.176156 189.388173 
L 158.266363 188.156155 
L 158.446777 180.867265 
L 158.536984 183.895896 
L 158.62719 183.536574 
L 158.717397 178.506059 
L 158.807604 178.557475 
L 158.988018 184.665761 
L 159.258639 178.968018 
L 159.348845 179.994765 
L 159.439052 179.224704 
L 159.529259 177.01755 
L 159.619466 177.479508 
L 159.709673 178.762746 
L 159.890087 172.962367 
L 159.980294 173.42452 
L 160.0705 174.553708 
L 160.701949 166.186851 
L 160.882362 160.129785 
L 160.972569 160.489108 
L 161.062776 160.386472 
L 161.24319 159.154649 
L 161.423604 164.133552 
L 161.604017 161.053897 
L 161.694224 161.875177 
L 161.874638 159.103233 
L 162.055052 161.618491 
L 162.145259 161.361804 
L 162.235465 160.283837 
L 162.325672 160.386472 
L 162.415879 160.335252 
L 162.6865 153.816228 
L 162.776707 154.996831 
L 162.866914 154.894195 
L 163.047327 153.610957 
L 163.137534 155.61284 
L 163.498362 153.918864 
L 163.678775 155.715476 
L 163.949396 147.143348 
L 164.40043 154.740144 
L 164.490637 153.405685 
L 164.580844 154.586288 
L 164.761258 161.361804 
L 164.941672 158.076682 
L 165.031879 159.052013 
L 165.122085 158.590055 
L 165.482913 161.926398 
L 165.57312 165.570842 
L 165.663327 164.800977 
L 165.84374 159.35992 
L 165.933947 159.821878 
L 166.114361 161.259168 
L 166.204568 159.97593 
L 166.294775 160.335252 
L 166.565395 164.339019 
L 166.655602 167.264819 
L 166.836016 160.899846 
L 166.926223 161.721126 
L 167.01643 163.261052 
L 167.28705 158.281953 
L 167.377257 153.918864 
L 167.557671 160.951066 
L 167.647878 158.897962 
L 167.738085 157.974046 
L 167.918499 161.464439 
L 168.098912 157.768579 
L 168.189119 158.076682 
L 168.369533 161.823762 
L 168.549947 159.513971 
L 168.73036 167.521506 
L 169.091188 158.127902 
L 169.181395 158.127902 
L 169.361809 161.721126 
L 169.452015 161.823762 
L 169.812843 166.443538 
L 169.90305 166.392123 
L 169.993257 167.47009 
L 170.083464 167.264819 
L 170.17367 166.546174 
L 170.263877 167.41887 
L 170.354084 167.367454 
L 170.444291 166.289487 
L 170.624705 166.597589 
L 170.714912 165.776113 
L 170.805119 166.238267 
L 170.895325 167.572726 
L 170.985532 166.186851 
L 171.165946 160.489108 
L 171.256153 178.146737 
L 171.34636 175.836947 
L 171.436567 176.093633 
L 171.61698 179.122069 
L 171.707187 178.916798 
L 171.887601 173.783647 
L 172.338635 185.487042 
L 172.519049 183.331107 
L 172.699463 185.230355 
L 172.879877 182.817929 
L 173.06029 185.743728 
L 173.150497 184.46049 
L 173.330911 185.692313 
L 173.421118 184.51171 
L 173.511325 184.922448 
L 173.691739 189.593445 
L 173.781945 189.490809 
L 173.872152 189.901449 
L 173.962359 189.542224 
L 174.142773 186.000416 
L 174.23298 186.872916 
L 174.323187 186.359738 
L 174.593807 183.125836 
L 174.684014 183.587794 
L 174.774221 182.407191 
L 174.954635 178.044101 
L 175.225256 181.483275 
L 175.405669 186.719061 
L 175.586083 183.228471 
L 175.946911 181.123952 
L 176.127324 178.454839 
L 176.307738 179.019433 
L 176.578359 184.922448 
L 176.939186 176.555592 
L 177.029393 173.681012 
L 177.1196 175.118302 
L 177.300014 180.816045 
L 177.570634 177.787415 
L 177.751048 179.584027 
L 177.931462 174.297021 
L 178.292289 183.279887 
L 178.382496 182.971785 
L 178.56291 179.32734 
L 178.743324 184.973668 
L 178.923737 179.686662 
L 179.104151 183.587794 
L 179.284565 177.01755 
L 179.374772 266.845621 
L 179.464979 263.355228 
L 179.555186 263.457864 
L 179.645392 264.895153 
L 179.825806 257.092891 
L 179.916013 258.273494 
L 180.00622 257.092891 
L 180.096427 252.781119 
L 180.186634 252.832437 
L 180.276841 253.859086 
L 180.727875 244.927636 
L 180.818082 244.670949 
L 180.998496 237.433378 
L 181.088702 237.997972 
L 181.269116 245.389594 
L 181.359323 244.927636 
L 181.44953 245.286959 
L 181.629944 249.393361 
L 181.810357 244.260309 
L 181.900564 245.440912 
L 182.261392 238.613981 
L 182.441806 239.127257 
L 182.532012 238.408612 
L 182.712426 241.488463 
L 182.983047 238.716617 
L 183.073254 239.229892 
L 183.253667 242.104472 
L 183.434081 230.965769 
L 183.524288 231.992321 
L 183.614495 234.302209 
L 183.704702 232.967653 
L 184.33615 207.353807 
L 185.238219 190.620094 
L 185.418632 192.621978 
L 185.599046 192.519342 
L 186.140287 177.992881 
L 186.230494 179.122069 
L 186.501115 173.578376 
L 186.591322 173.783647 
L 186.861942 165.108884 
L 186.952149 166.238267 
L 187.132563 165.314155 
L 187.22277 166.084216 
L 187.403184 161.618491 
L 187.493391 189.69608 
L 187.583597 189.234122 
L 187.764011 191.800697 
L 187.854218 191.390057 
L 188.034632 186.154271 
L 188.124839 186.462373 
L 188.215046 187.694196 
L 188.395459 184.51171 
L 188.575873 190.31209 
L 188.846494 185.076499 
L 188.936701 184.614541 
L 189.117114 182.355971 
L 189.207321 182.715293 
L 189.387735 186.205687 
L 189.477942 185.949 
L 189.568149 186.308322 
L 189.748562 185.076499 
L 189.838769 185.025084 
L 190.019183 178.454839 
L 190.10939 179.892129 
L 190.199597 179.840714 
L 190.289804 178.300788 
L 190.470217 179.481391 
L 190.560424 178.711526 
L 190.650631 178.762746 
L 190.921252 183.536574 
L 191.191872 177.01755 
L 191.372286 180.456723 
L 191.642907 173.732427 
L 191.823321 171.422637 
L 191.913527 173.42452 
L 192.093941 166.443538 
L 192.184148 168.342786 
L 192.364562 173.270469 
L 192.454769 172.038451 
L 192.635183 174.297021 
L 192.815596 179.789298 
L 192.905803 178.454839 
L 193.086217 172.243918 
L 193.266631 177.582143 
L 193.447044 172.65446 
L 193.537251 173.013783 
L 193.717665 167.47009 
L 193.898079 174.758979 
L 194.168699 170.549941 
L 194.349113 166.186851 
L 194.43932 165.776113 
L 194.529527 167.008132 
L 194.709941 172.397773 
L 194.800148 171.114535 
L 194.980561 175.990998 
L 195.070768 173.629792 
L 195.160975 174.758979 
L 195.251182 177.633559 
L 195.341389 177.428287 
L 195.431596 177.376872 
L 195.521803 178.146737 
L 195.612009 184.563126 
L 195.702216 184.049752 
L 195.88263 185.538457 
L 196.063044 186.205687 
L 196.243458 178.557475 
L 196.333664 180.354087 
L 196.514078 184.563126 
L 196.604285 185.435822 
L 196.694492 184.46049 
L 196.874906 179.532807 
L 197.055319 185.025084 
L 197.145526 183.741845 
L 197.235733 184.203803 
L 197.32594 185.589677 
L 197.596561 178.865382 
L 197.686768 179.173484 
L 197.776974 178.865382 
L 197.957388 178.146737 
L 198.047595 178.352204 
L 198.228009 180.405307 
L 198.408423 178.814162 
L 198.498629 179.532807 
L 198.679043 179.27612 
L 198.76925 181.53469 
L 198.859457 181.329223 
L 199.039871 170.190618 
L 199.220284 172.397773 
L 199.400698 169.317922 
L 199.581112 173.578376 
L 199.671319 172.808511 
L 199.761526 170.909263 
L 199.851733 171.371221 
L 200.032146 177.274236 
L 200.21256 173.270469 
L 200.302767 175.067081 
L 200.753801 166.340903 
L 200.934215 171.730544 
L 201.114629 166.392123 
L 201.204836 168.137319 
L 201.295043 167.624141 
L 201.385249 165.057664 
L 201.565663 165.930165 
L 201.65587 164.492875 
L 201.746077 164.800977 
L 202.016698 167.316039 
L 202.106904 166.956717 
L 202.197111 166.135436 
L 202.287318 166.186851 
L 202.377525 166.135436 
L 202.467732 165.673478 
L 202.557939 165.776113 
L 202.648146 166.494758 
L 202.828559 168.445422 
L 202.918766 166.905496 
L 203.09918 167.880828 
L 203.279594 164.441655 
L 203.369801 165.365571 
L 203.640421 159.411336 
L 203.730628 166.802861 
L 203.820835 166.597589 
L 204.001249 166.597589 
L 204.091456 166.135436 
L 204.271869 167.367454 
L 204.452283 163.928281 
L 204.632697 165.724893 
L 204.813111 164.236383 
L 204.993524 168.240151 
L 205.083731 167.726777 
L 205.173938 167.572726 
L 205.354352 174.297021 
L 205.534766 170.293254 
L 205.624973 170.652577 
L 205.715179 170.447305 
L 206.076007 173.835063 
L 206.256421 173.373105 
L 206.436834 171.987231 
L 206.617248 173.013783 
L 206.797662 170.498525 
L 206.978076 172.551824 
L 207.068283 172.911147 
L 207.248696 175.631675 
L 207.42911 172.911147 
L 207.609524 176.247685 
L 207.970351 166.135436 
L 208.150765 175.067081 
L 208.331179 171.114535 
L 208.511593 172.859731 
L 208.601799 173.373105 
L 208.782213 170.447305 
L 208.87242 171.268586 
L 208.962627 172.757096 
L 209.052834 172.449189 
L 209.143041 172.192502 
L 209.323454 178.608891 
L 209.413661 177.83883 
L 209.594075 171.987231 
L 209.684282 172.192502 
L 209.774489 172.089866 
L 209.954903 172.397773 
L 210.04511 172.551824 
L 210.135316 173.167834 
L 210.225523 172.551824 
L 210.31573 173.116418 
L 210.586351 179.173484 
L 210.676558 177.479508 
L 210.856971 173.219054 
L 210.947178 174.502292 
L 211.127592 172.705876 
L 211.217799 173.013783 
L 211.308006 171.987231 
L 211.398213 172.346553 
L 211.48842 173.835063 
L 211.578626 173.373105 
L 211.75904 169.933932 
L 211.849247 179.686662 
L 211.939454 179.430171 
L 212.119868 181.945233 
L 212.480695 175.426404 
L 212.841523 182.766513 
L 212.93173 186.513594 
L 213.112143 184.973668 
L 213.20235 187.026967 
L 213.292557 186.616425 
L 213.472971 181.894013 
L 213.563178 184.768397 
L 213.743591 179.32734 
L 213.924005 185.384406 
L 214.104419 177.736194 
L 214.284833 183.793065 
L 214.37504 183.947116 
L 214.465246 184.357854 
L 214.735867 182.920565 
L 214.916281 184.203803 
L 215.006488 183.279887 
L 215.186901 177.325456 
L 215.367315 180.610774 
L 215.547729 178.198153 
L 215.637936 178.865382 
L 215.728143 178.711526 
L 215.81835 179.122069 
L 215.998763 182.150504 
L 216.179177 177.941466 
L 216.269384 178.608891 
L 216.359591 178.300788 
L 216.449798 178.454839 
L 216.540005 178.865382 
L 216.810625 172.757096 
L 216.900832 173.886479 
L 217.171453 179.994765 
L 217.26166 178.762746 
L 217.622487 167.880828 
L 217.712694 166.392123 
L 217.893108 173.065198 
L 217.983315 171.884595 
L 218.073521 172.089866 
L 218.344142 173.475741 
L 218.434349 173.321689 
L 218.614763 172.295138 
L 218.795176 179.584027 
L 218.885383 178.865382 
L 219.065797 173.578376 
L 219.156004 173.167834 
L 219.246211 175.323573 
L 219.336418 180.251452 
L 219.426625 178.865382 
L 219.516831 175.272353 
L 219.697245 177.582143 
L 219.877659 170.601357 
L 219.967866 205.608513 
L 220.058073 198.114352 
L 220.14828 196.625745 
L 220.238486 198.268306 
L 220.689521 178.814162 
L 220.779728 178.968018 
L 220.869935 178.814162 
L 220.960141 176.40154 
L 221.050348 176.966134 
L 221.230762 178.557475 
L 221.320969 178.403424 
L 221.59159 172.295138 
L 221.681796 172.705876 
L 221.772003 173.167834 
L 222.223038 185.846364 
L 222.313245 185.794949 
L 222.403451 185.89778 
L 222.674072 179.635442 
L 222.944693 176.35032 
L 223.0349 176.914914 
L 223.215313 179.27612 
L 223.395727 178.095517 
L 223.666348 180.507943 
L 223.756555 184.357854 
L 223.846761 183.433938 
L 224.027175 170.601357 
L 224.207589 178.762746 
L 224.297796 176.914914 
L 224.47821 172.346553 
L 224.568416 174.399657 
L 224.658623 172.089866 
L 224.839037 163.877061 
L 225.019451 167.059547 
L 225.199865 164.339019 
L 225.380278 167.47009 
L 225.741106 159.052013 
L 225.831313 159.205869 
L 226.101933 167.47009 
L 226.19214 168.034684 
L 226.462761 165.827529 
L 226.552968 165.827529 
L 226.913795 160.643159 
L 227.004002 161.567075 
L 227.184416 166.084216 
L 227.274623 164.492875 
L 227.455037 159.821878 
L 227.545243 159.411336 
L 227.63545 158.179317 
L 227.725657 158.692691 
L 227.906071 161.464439 
L 227.996278 160.591939 
L 228.086485 177.83883 
L 228.176692 176.35032 
L 228.357105 179.584027 
L 228.80814 166.084216 
L 228.898347 165.468206 
L 228.988553 166.0328 
L 229.07876 167.316039 
L 229.168967 167.059547 
L 229.349381 165.570842 
L 229.620002 160.745794 
L 229.710208 161.156532 
L 229.800415 160.232616 
L 230.071036 167.008132 
L 230.161243 166.751445 
L 230.341657 165.827529 
L 230.612277 159.103233 
L 230.702484 160.027149 
L 230.792691 160.437888 
L 231.153518 153.35427 
L 231.514346 159.821878 
L 231.604553 158.743911 
L 231.784967 152.840896 
L 231.96538 159.052013 
L 232.145794 153.200219 
L 232.236001 155.561425 
L 232.416415 149.504554 
L 232.596828 154.534873 
L 232.777242 145.2441 
L 232.957656 149.350502 
L 233.047863 148.631858 
L 233.13807 150.582521 
L 233.228277 150.223199 
L 233.318483 149.196452 
L 233.498897 155.407569 
L 233.679311 147.861993 
L 233.859725 153.610957 
L 233.949932 152.73826 
L 234.040138 153.456905 
L 234.130345 155.099466 
L 234.310759 152.481574 
L 234.491173 161.053897 
L 234.671587 154.021499 
L 234.852 162.080449 
L 235.032414 155.818111 
L 235.212828 160.232616 
L 235.393242 158.949182 
L 235.573655 160.540523 
L 235.663862 159.667827 
L 235.934483 165.468206 
L 236.02469 165.006249 
L 236.114897 165.057664 
L 236.205103 202.528759 
L 236.29531 199.089586 
L 236.385517 199.243637 
L 236.565931 203.863316 
L 236.836552 196.471791 
L 237.107172 198.678946 
L 237.377793 192.9813 
L 237.558207 198.986951 
L 237.73862 192.621978 
L 237.919034 197.857665 
L 238.099448 190.774047 
L 238.189655 192.775931 
L 238.279862 191.749379 
L 238.460275 186.821696 
L 238.640689 187.796832 
L 238.821103 186.051635 
L 238.91131 185.127719 
L 239.001517 185.538457 
L 239.091723 189.388173 
L 239.18193 188.566893 
L 239.272137 186.154271 
L 239.452551 192.57066 
L 239.632965 182.355971 
L 239.813378 185.179135 
L 239.993792 180.405307 
L 240.174206 182.869149 
L 240.35462 180.507943 
L 240.535033 179.892129 
L 240.715447 178.095517 
L 240.805654 181.175368 
L 240.895861 181.123952 
L 240.986068 178.506059 
L 241.076275 178.660111 
L 241.256688 174.040334 
L 241.437102 178.095517 
L 241.617516 176.452956 
L 241.707723 178.865382 
L 241.79793 178.403424 
L 241.978343 170.139203 
L 242.248964 172.449189 
L 242.429378 168.240151 
L 242.609792 172.962367 
L 242.790205 169.215287 
L 242.970619 173.013783 
L 243.060826 171.21717 
L 243.24124 173.116418 
L 243.421653 170.960484 
L 243.51186 171.781764 
L 243.782481 166.905496 
L 243.962895 168.291371 
L 244.413929 154.637508 
L 244.504136 152.378938 
L 244.594343 153.918864 
L 244.774757 159.308505 
L 245.045377 148.529222 
L 245.135584 148.580638 
L 245.315998 155.66406 
L 245.496412 153.764812 
L 246.037653 161.977813 
L 246.308274 157.409452 
L 246.39848 158.281953 
L 246.578894 165.776113 
L 246.669101 160.951066 
L 246.759308 161.464439 
L 246.939722 167.008132 
L 247.120135 160.643159 
L 247.300549 161.926398 
L 247.480963 159.565192 
L 247.84179 167.932048 
L 248.022204 167.624141 
L 248.112411 165.622258 
L 248.383032 154.329602 
L 248.473239 153.251634 
L 248.743859 168.291371 
L 248.834066 166.135436 
L 248.924273 166.802861 
L 249.01448 168.445422 
L 249.194894 166.340903 
L 249.375307 159.154649 
L 249.465514 161.515855 
L 249.645928 167.264819 
L 249.736135 167.880828 
L 249.916549 176.042218 
L 250.006755 175.58026 
L 250.367583 163.209636 
L 250.45779 161.875177 
L 250.999031 173.937699 
L 251.089238 177.992881 
L 251.179445 177.633559 
L 251.359859 169.266702 
L 251.540272 172.551824 
L 251.720686 168.855964 
L 251.810893 168.394006 
L 251.9011 169.010016 
L 252.081514 171.21717 
L 252.261927 163.415103 
L 252.352134 163.928281 
L 252.532548 185.641093 
L 252.622755 187.694196 
L 252.983582 183.331107 
L 253.163996 177.582143 
L 253.34441 184.049752 
L 253.524824 187.848248 
L 253.61503 186.667645 
L 253.885651 192.673296 
L 254.066065 185.743728 
L 254.156272 187.591561 
L 254.246479 188.515477 
L 254.426892 183.895896 
L 254.517099 186.513594 
L 254.697513 182.509827 
L 255.05834 190.928099 
L 255.148547 189.080266 
L 255.328961 184.665761 
L 255.419168 185.435822 
L 255.599582 184.922448 
L 255.779995 183.844481 
L 255.960409 185.692313 
L 256.050616 184.973668 
L 256.321237 177.068965 
L 256.591857 187.026967 
L 256.682064 185.179135 
L 256.862478 183.382522 
L 257.042892 184.51171 
L 257.223305 178.506059 
L 257.313512 178.968018 
L 257.493926 177.684779 
L 257.584133 179.019433 
L 257.67434 178.968018 
L 257.764547 179.892129 
L 257.854754 179.635442 
L 258.215581 166.597589 
L 258.305788 166.905496 
L 258.486202 174.399657 
L 258.576409 173.732427 
L 258.756822 171.268586 
L 258.937236 175.374988 
L 259.027443 171.679128 
L 259.11765 172.192502 
L 259.298064 180.918681 
L 259.38827 180.610774 
L 259.478477 179.840714 
L 259.568684 180.045985 
L 259.658891 181.072732 
L 259.749098 180.302672 
L 259.839305 178.557475 
L 260.019719 182.047868 
L 260.109925 181.739961 
L 260.470753 172.038451 
L 260.56096 222.701548 
L 260.651167 222.290908 
L 260.83158 226.962002 
L 261.011994 218.646463 
L 261.102201 220.750982 
L 261.282615 214.745332 
L 261.372822 217.722547 
L 261.463029 216.849949 
L 261.643442 206.737798 
L 261.733649 206.635162 
L 261.823856 206.994485 
L 261.914063 206.327158 
L 262.094477 196.625745 
L 262.184684 197.13902 
L 262.27489 198.884315 
L 262.455304 196.933749 
L 262.545511 198.781581 
L 262.725925 206.27584 
L 262.906339 197.190338 
L 263.086752 199.192222 
L 263.357373 189.850131 
L 263.44758 191.082052 
L 263.537787 190.209454 
L 263.718201 185.538457 
L 263.898614 190.928099 
L 264.079028 184.768397 
L 264.169235 185.230355 
L 264.259442 185.076499 
L 264.349649 186.821696 
L 264.439856 186.000416 
L 264.620269 175.52904 
L 264.89089 187.591561 
L 265.161511 180.456723 
L 265.432131 170.857848 
L 265.522338 170.601357 
L 265.702752 172.038451 
L 265.883166 168.188735 
L 266.063579 175.52904 
L 266.243993 164.133552 
L 266.3342 164.698342 
L 266.424407 166.0328 
L 266.514614 165.776113 
L 266.604821 166.802861 
L 266.785234 173.835063 
L 266.965648 164.800977 
L 267.055855 164.954833 
L 267.236269 159.000598 
L 267.326476 159.462556 
L 267.597096 162.28572 
L 267.687303 161.669711 
L 267.77751 162.080449 
L 267.867717 159.308505 
L 268.048131 146.886661 
L 268.228544 147.55389 
L 268.318751 149.093816 
L 268.499165 155.407569 
L 268.589372 152.687041 
L 268.769786 187.181018 
L 268.859992 189.388173 
L 269.311027 174.553708 
L 269.401234 172.60324 
L 269.762061 179.584027 
L 269.852268 179.019433 
L 270.303302 172.243918 
L 270.573923 180.148621 
L 270.66413 178.968018 
L 270.844544 179.019433 
L 270.934751 179.584027 
L 271.024957 178.352204 
L 271.205371 171.114535 
L 271.385785 173.681012 
L 271.475992 172.962367 
L 271.566199 174.245801 
L 271.656406 174.09175 
L 271.836819 171.83318 
L 272.10744 173.732427 
L 272.197647 173.065198 
L 272.378061 167.521506 
L 272.558474 173.681012 
L 272.648681 172.859731 
L 272.829095 174.964251 
L 273.370336 166.238267 
L 273.640957 173.373105 
L 273.731164 173.270469 
L 273.911577 172.397773 
L 274.001784 172.911147 
L 274.091991 172.808511 
L 274.182198 172.089866 
L 274.272405 172.757096 
L 274.362612 171.063314 
L 274.543026 165.006249 
L 274.723439 174.758979 
L 274.813646 172.551824 
L 274.903853 173.629792 
L 275.084267 184.665761 
L 275.264681 164.954833 
L 275.445094 165.878944 
L 275.625508 164.54429 
L 275.715715 164.903613 
L 275.896129 171.987231 
L 276.076542 166.751445 
L 276.43737 172.397773 
L 276.527577 171.525273 
L 276.707991 172.911147 
L 276.798197 208.226405 
L 276.888404 204.787232 
L 277.068818 208.329041 
L 277.159025 207.559078 
L 277.249232 206.789116 
L 277.429646 200.116236 
L 277.519852 201.142787 
L 277.610059 205.454559 
L 277.700266 205.197872 
L 277.970887 197.498343 
L 278.061094 197.857665 
L 278.151301 198.781581 
L 278.331714 197.241754 
L 278.421921 198.319624 
L 278.512128 198.011619 
L 278.782749 190.620094 
L 278.872956 190.363407 
L 278.963162 189.182902 
L 279.143576 184.46049 
L 279.32399 185.127719 
L 279.414197 185.33299 
L 279.504404 186.616425 
L 279.684817 185.127719 
L 279.775024 185.179135 
L 279.865231 184.922448 
L 279.955438 186.257102 
L 280.045645 185.89778 
L 280.226059 177.222821 
L 280.406473 178.608891 
L 280.496679 176.658227 
L 280.677093 180.405307 
L 280.857507 175.990998 
L 280.947714 176.504176 
L 281.037921 178.506059 
L 281.218334 172.551824 
L 281.308541 172.808511 
L 281.398748 174.861615 
L 281.488955 174.040334 
L 281.669369 170.190618 
L 281.759576 170.703992 
L 281.849783 169.677245 
L 282.030196 165.468206 
L 282.21061 166.340903 
L 282.300817 166.443538 
L 282.391024 164.954833 
L 282.661644 152.943532 
L 282.842058 147.50267 
L 283.022472 154.380821 
L 283.112679 154.17555 
L 283.293093 155.202102 
L 283.383299 155.356153 
L 283.473506 156.896079 
L 283.65392 154.278186 
L 283.744127 154.894195 
L 283.834334 154.84278 
L 284.014748 153.200219 
L 284.285368 148.375171 
L 284.375575 147.656526 
L 284.555989 149.401918 
L 284.736403 143.036945 
L 284.826609 143.139581 
L 284.916816 149.145231 
L 285.09723 140.983646 
L 285.187437 142.831478 
L 285.367851 148.580638 
L 285.638471 138.468389 
L 285.728678 138.519804 
L 285.909092 142.574987 
L 285.999299 141.958978 
L 286.179713 148.272535 
L 286.360126 143.550123 
L 286.54054 150.736377 
L 286.720954 147.400034 
L 286.811161 147.913213 
L 286.901368 146.06538 
L 286.991574 146.784025 
L 287.171988 153.251634 
L 287.262195 149.299087 
L 287.352402 149.709825 
L 287.532816 154.740144 
L 287.713229 145.654642 
L 287.893643 150.531106 
L 287.98385 148.323951 
L 288.074057 148.375171 
L 288.164264 148.529222 
L 288.254471 148.221315 
L 288.434884 155.099466 
L 288.525091 154.278186 
L 288.615298 154.586288 
L 288.976126 145.962745 
L 289.156539 136.979879 
L 289.336953 149.709825 
L 289.517367 147.091932 
L 289.697781 150.171783 
L 289.787988 147.913213 
L 289.968401 139.803043 
L 290.148815 149.145231 
L 290.239022 148.529222 
L 290.329229 147.451255 
L 290.509643 158.897962 
L 290.599849 155.099466 
L 290.780263 142.728843 
L 290.960677 141.650875 
L 291.141091 147.297203 
L 291.231298 146.937881 
L 291.321504 145.192684 
L 291.411711 145.757278 
L 291.772539 153.970279 
L 292.223573 145.398151 
L 292.31378 145.757278 
L 292.494194 144.679506 
L 292.674608 149.761045 
L 292.945228 136.004547 
L 293.035435 163.363687 
L 293.125642 160.591939 
L 293.306056 165.314155 
L 293.666883 154.17555 
L 294.117918 169.626025 
L 294.208124 167.264819 
L 294.298331 167.983464 
L 294.478745 174.040334 
L 294.659159 168.90738 
L 294.749366 171.319806 
L 294.839573 169.523389 
L 294.929779 164.441655 
L 295.019986 165.057664 
L 295.110193 167.624141 
L 295.2004 165.570842 
L 295.290607 165.827529 
L 295.471021 173.527156 
L 295.561228 172.500409 
L 295.651434 173.116418 
L 295.741641 172.397773 
L 295.831848 170.601357 
L 295.922055 170.857848 
L 296.373089 165.262935 
L 296.553503 166.340903 
L 296.733917 166.854081 
L 296.914331 159.565192 
L 297.094744 168.496642 
L 297.275158 166.597589 
L 297.365365 168.291371 
L 297.545779 165.365571 
L 297.726193 167.829412 
L 297.906606 161.259168 
L 297.996813 158.436004 
L 298.08702 159.616607 
L 298.357641 167.264819 
L 298.447848 167.059547 
L 298.718468 158.692691 
L 298.808675 158.743911 
L 298.898882 158.53864 
L 299.079296 163.107 
L 299.169503 163.05578 
L 299.349916 159.873294 
L 299.53033 163.72301 
L 299.710744 159.205869 
L 299.981365 168.086099 
L 300.071571 166.546174 
L 300.251985 168.753329 
L 300.342192 166.084216 
L 300.432399 166.340903 
L 300.522606 171.011899 
L 300.612813 169.882712 
L 300.70302 165.878944 
L 300.883433 169.061431 
L 301.063847 159.616607 
L 301.154054 295.488 
L 301.244261 295.128678 
L 301.334468 294.871991 
L 301.424675 293.332163 
L 301.605088 288.04506 
L 301.695295 288.147793 
L 301.875709 279.421614 
L 301.965916 282.039409 
L 302.056123 281.526133 
L 302.236536 272.235361 
L 302.326743 272.594683 
L 302.41695 274.185926 
L 302.507157 272.697319 
L 302.687571 263.560499 
L 302.777778 263.714551 
L 302.867985 263.30391 
L 302.958191 264.433098 
L 303.319019 276.495814 
L 303.58964 269.360879 
L 304.040674 264.073775 
L 304.130881 264.689785 
L 304.311295 262.123307 
L 304.491708 265.049107 
L 304.762329 262.944588 
L 304.852536 263.355228 
L 304.942743 265.357112 
L 305.03295 263.611817 
L 305.213363 254.680367 
L 305.393777 260.070008 
L 305.754605 248.520763 
L 306.025225 231.581681 
L 306.115432 231.119723 
L 306.295846 228.707199 
L 306.386053 228.142605 
L 306.74688 222.855599 
L 307.017501 214.334692 
L 307.197915 217.003902 
L 307.288121 217.05522 
L 307.378328 217.568496 
L 307.648949 204.581961 
L 307.739156 203.298722 
L 307.91957 196.061151 
L 308.009776 198.473675 
L 308.099983 197.498343 
L 308.19019 195.23987 
L 308.370604 197.498343 
L 308.551018 186.103051 
L 308.731431 178.506059 
L 308.821638 178.454839 
L 309.092259 180.969901 
L 309.182466 178.454839 
L 309.272673 180.405307 
L 309.36288 180.0974 
L 309.453086 180.918681 
L 309.543293 180.045985 
L 309.813914 171.16595 
L 309.904121 171.063314 
L 309.994328 170.549941 
L 310.174741 172.397773 
L 310.355155 173.886479 
L 310.535569 171.422637 
L 310.625776 171.987231 
L 310.715983 170.755212 
L 310.896396 165.673478 
L 310.986603 167.41887 
L 311.167017 174.656344 
L 311.347431 172.705876 
L 311.437638 173.373105 
L 311.527845 172.962367 
L 311.798465 165.416986 
L 311.978879 166.546174 
L 312.069086 165.878944 
L 312.159293 165.930165 
L 312.610327 171.422637 
L 312.971155 163.825645 
L 313.151568 167.572726 
L 313.331982 161.772346 
L 313.422189 162.747678 
L 313.602603 159.513971 
L 313.69281 160.335252 
L 313.783016 159.462556 
L 313.873223 157.203986 
L 314.053637 160.745794 
L 314.234051 163.466323 
L 314.324258 163.466323 
L 314.414465 162.183084 
L 314.504671 162.490991 
L 314.685085 167.880828 
L 314.865499 160.027149 
L 314.955706 160.745794 
L 315.13612 158.436004 
L 315.316533 161.259168 
L 315.40674 159.924514 
L 315.496947 160.232616 
L 315.677361 167.008132 
L 315.947982 157.974046 
L 316.128395 152.943532 
L 316.218602 153.508321 
L 316.489223 161.259168 
L 316.57943 160.540523 
L 316.759843 161.567075 
L 316.940257 166.905496 
L 317.120671 164.698342 
L 317.391292 173.578376 
L 317.481498 171.473857 
L 317.571705 170.139203 
L 317.752119 173.527156 
L 317.932533 167.829412 
L 318.02274 164.903613 
L 318.112947 166.700225 
L 318.29336 171.884595 
L 318.473774 165.930165 
L 318.744395 173.116418 
L 318.834602 172.192502 
L 318.924808 172.089866 
L 319.105222 173.065198 
L 319.195429 171.319806 
L 319.285636 171.627908 
L 319.375843 173.475741 
L 319.646463 164.184968 
L 319.826877 167.213403 
L 319.917084 167.162183 
L 320.368118 174.194386 
L 320.458325 172.911147 
L 320.638739 176.247685 
L 320.819153 164.184968 
L 320.999567 171.319806 
L 321.089773 166.751445 
L 321.17998 166.854081 
L 321.360394 173.886479 
L 321.450601 171.83318 
L 321.540808 172.192502 
L 321.631015 172.243918 
L 321.721222 171.011899 
L 321.901635 165.262935 
L 322.082049 169.933932 
L 322.172256 166.597589 
L 322.262463 166.64881 
L 322.35267 167.932048 
L 322.442877 165.776113 
L 322.533083 166.494758 
L 322.713497 171.781764 
L 322.803704 171.781764 
L 322.984118 174.451072 
L 323.164532 167.726777 
L 323.344945 172.295138 
L 323.435152 170.498525 
L 323.525359 170.549941 
L 323.615566 171.781764 
L 323.705773 171.422637 
L 323.79598 172.500409 
L 323.976393 171.16595 
L 324.156807 176.812278 
L 324.247014 172.551824 
L 324.427428 178.506059 
L 324.607842 173.732427 
L 324.788255 179.122069 
L 324.878462 177.890246 
L 325.058876 181.123952 
L 325.149083 180.559359 
L 325.419703 171.679128 
L 325.50991 177.376872 
L 325.690324 173.167834 
L 325.780531 173.629792 
L 325.960945 180.507943 
L 326.051152 180.302672 
L 326.321772 170.703992 
L 326.502186 176.760863 
L 326.6826 171.679128 
L 326.863013 179.173484 
L 326.95322 178.608891 
L 327.133634 184.357854 
L 327.223841 184.049752 
L 327.494462 177.325456 
L 327.584668 176.863498 
L 327.765082 186.359738 
L 327.945496 182.869149 
L 328.12591 187.129603 
L 328.216117 184.51171 
L 328.306323 184.922448 
L 328.39653 186.410958 
L 328.576944 182.817929 
L 328.757358 185.589677 
L 328.847565 184.871033 
L 328.937772 186.410958 
L 329.118185 190.414823 
L 329.659427 176.555592 
L 329.749633 179.789298 
L 329.930047 190.004085 
L 330.110461 185.743728 
L 330.290875 191.954651 
L 330.651702 183.895896 
L 331.192943 200.732147 
L 331.643978 185.641093 
L 331.734185 184.306439 
L 332.004805 192.57066 
L 332.365633 199.808231 
L 332.45584 198.884315 
L 332.636254 193.237987 
L 332.72646 198.114352 
L 332.906874 191.030734 
L 333.087288 196.831114 
L 333.267702 191.441374 
L 333.357909 193.545894 
L 333.538322 183.998532 
L 333.89915 189.285538 
L 334.259977 178.762746 
L 334.350184 179.789298 
L 334.891425 191.441374 
L 335.071839 191.338739 
L 335.162046 189.952767 
L 335.252253 185.487042 
L 335.34246 186.103051 
L 335.432667 184.665761 
L 335.522874 177.83883 
L 335.61308 179.840714 
L 335.703287 185.89778 
L 335.883701 177.01755 
L 335.973908 178.557475 
L 336.244529 185.692313 
L 336.515149 177.582143 
L 336.605356 178.044101 
L 336.78577 179.378755 
L 336.966184 174.707759 
L 337.146597 178.403424 
L 337.236804 176.914914 
L 337.327011 177.530923 
L 337.507425 170.652577 
L 337.597632 172.346553 
L 337.778045 180.200036 
L 337.868252 179.32734 
L 338.048666 171.268586 
L 338.22908 174.861615 
L 338.319287 173.681012 
L 338.589907 166.905496 
L 338.680114 167.47009 
L 338.770321 166.392123 
L 338.860528 167.572726 
L 338.950735 170.652577 
L 339.040942 170.34467 
L 339.401769 158.743911 
L 339.491976 159.000598 
L 339.762597 167.162183 
L 339.94301 163.825645 
L 340.123424 167.777997 
L 340.303838 159.308505 
L 340.484252 169.626025 
L 340.664665 167.572726 
L 340.754872 168.599473 
L 340.845079 168.137319 
L 340.935286 166.751445 
L 341.025493 167.572726 
L 341.205907 171.730544 
L 341.296114 172.397773 
L 341.38632 171.011899 
L 341.566734 165.108884 
L 341.656941 165.108884 
L 341.837355 99.098143 
L 342.017769 103.974411 
L 342.198182 94.735054 
L 342.288389 98.430718 
L 342.468803 88.883259 
L 342.55901 91.347296 
L 342.649217 91.090609 
L 342.82963 82.210379 
L 342.919837 83.288346 
L 343.100251 88.677987 
L 343.461079 81.645785 
L 343.551285 81.389098 
L 343.641492 83.134295 
L 343.912113 99.251999 
L 344.092527 91.96311 
L 344.182734 93.041077 
L 344.27294 96.993624 
L 344.363147 94.735054 
L 344.543561 88.575352 
L 344.723975 91.96311 
L 344.814182 89.80737 
L 344.904389 91.039193 
L 345.084802 98.790041 
L 345.265216 95.248232 
L 345.355423 95.351063 
L 345.535837 104.898327 
L 345.626044 102.691172 
L 345.806457 93.554451 
L 346.077078 110.493435 
L 346.167285 109.415468 
L 346.347699 105.206429 
L 346.437905 105.309065 
L 346.528112 104.5392 
L 346.618319 102.485901 
L 346.708526 102.896444 
L 347.069354 109.77479 
L 347.249767 116.293815 
L 347.430181 108.748238 
L 347.610595 110.44202 
L 347.971422 123.171966 
L 348.151836 115.061796 
L 348.33225 124.968578 
L 348.512664 121.016226 
L 348.963698 137.390617 
L 349.053905 136.107183 
L 349.234319 128.92093 
L 349.504939 137.18515 
L 349.685353 144.628091 
L 349.77556 142.36952 
L 349.865767 172.089866 
L 349.955974 171.730544 
L 350.046181 174.245801 
L 350.136387 171.268586 
L 350.316801 160.643159 
L 350.407008 160.591939 
L 350.587422 159.462556 
L 350.677629 160.232616 
L 350.767836 159.719243 
L 350.948249 167.008132 
L 351.038456 164.595706 
L 351.21887 159.308505 
L 351.309077 160.027149 
L 351.489491 157.255401 
L 351.850318 170.190618 
L 351.940525 168.753329 
L 352.030732 167.008132 
L 352.120939 167.213403 
L 352.211146 167.316039 
L 352.391559 160.591939 
L 352.481766 160.951066 
L 352.571973 161.207753 
L 352.66218 160.283837 
L 352.752387 160.386472 
L 352.842594 160.386472 
L 352.932801 158.641276 
L 353.023007 159.103233 
L 353.203421 162.799094 
L 353.383835 161.926398 
L 353.564249 159.565192 
L 353.744662 167.008132 
L 353.834869 165.416986 
L 354.015283 169.933932 
L 354.195697 163.877061 
L 354.376111 165.673478 
L 354.556524 162.542407 
L 354.646731 161.926398 
L 354.736938 162.388355 
L 354.917352 167.110767 
L 355.097766 164.54429 
L 355.187972 167.932048 
L 355.278179 167.264819 
L 355.458593 163.415103 
L 355.5488 163.209636 
L 355.729214 156.023382 
L 355.909627 167.47009 
L 355.999834 165.724893 
L 356.090041 167.47009 
L 356.270455 182.509827 
L 356.450869 156.074798 
L 356.631282 158.846547 
L 356.811696 158.641276 
L 356.901903 159.000598 
L 357.082317 163.158416 
L 357.172524 161.207753 
L 357.262731 162.799094 
L 357.352937 162.28572 
L 357.443144 160.386472 
L 357.623558 165.776113 
L 357.713765 164.54429 
L 357.894179 166.0328 
L 357.984386 188.464257 
L 358.074592 184.717177 
L 358.164799 184.152388 
L 358.345213 185.487042 
L 358.43542 185.794949 
L 358.615834 177.787415 
L 358.706041 177.992881 
L 358.886454 184.51171 
L 358.976661 184.255219 
L 359.157075 172.089866 
L 359.337489 182.458606 
L 359.517902 177.428287 
L 359.698316 180.0974 
L 359.968937 172.859731 
L 360.149351 171.679128 
L 360.239557 171.525273 
L 360.329764 171.011899 
L 360.419971 171.679128 
L 360.510178 173.219054 
L 360.600385 173.116418 
L 360.690592 171.884595 
L 360.871006 176.042218 
L 361.051419 173.783647 
L 361.141626 177.171601 
L 361.231833 175.374988 
L 361.412247 164.800977 
L 361.502454 167.572726 
L 361.682867 163.517738 
L 361.863281 171.884595 
L 362.043695 168.188735 
L 362.133902 168.599473 
L 362.224109 168.496642 
L 362.494729 166.443538 
L 362.584936 167.008132 
L 362.675143 166.392123 
L 362.76535 166.546174 
L 362.945764 159.154649 
L 363.126177 164.492875 
L 363.306591 159.924514 
L 363.487005 161.002482 
L 363.577212 160.489108 
L 363.757626 152.173667 
L 363.847832 152.687041 
L 364.028246 153.456905 
L 364.118453 152.327718 
L 364.298867 146.527339 
L 364.569487 154.124135 
L 364.930315 156.742027 
L 365.200936 153.559541 
L 365.291142 153.970279 
L 365.381349 154.688924 
L 365.561763 153.200219 
L 365.65197 154.072914 
L 365.742177 153.302854 
L 365.922591 147.605306 
L 366.012797 148.118484 
L 366.103004 159.308505 
L 366.193211 158.179317 
L 366.283418 155.869527 
L 366.373625 156.331485 
L 366.554039 161.053897 
L 366.824659 151.86576 
L 366.914866 152.276302 
L 367.275694 157.05013 
L 367.456108 161.413219 
L 367.636521 158.795326 
L 367.816935 166.392123 
L 367.997349 161.464439 
L 368.177763 160.078565 
L 368.358176 168.240151 
L 368.53859 163.158416 
L 368.719004 167.521506 
L 368.899418 166.0328 
L 368.989624 166.392123 
L 369.170038 168.240151 
L 369.350452 165.108884 
L 369.440659 166.546174 
L 369.621073 174.502292 
L 369.801486 173.270469 
L 369.891693 173.681012 
L 370.072107 164.082332 
L 370.162314 164.133552 
L 370.252521 161.310388 
L 370.342728 161.618491 
L 370.523141 174.297021 
L 370.703555 166.084216 
L 370.883969 173.013783 
L 371.064383 165.878944 
L 371.154589 165.570842 
L 371.42521 174.656344 
L 371.605624 180.969901 
L 371.876244 177.325456 
L 372.056658 170.190618 
L 372.146865 173.42452 
L 372.327279 171.319806 
L 372.507693 178.249568 
L 372.597899 176.812278 
L 372.958727 183.125836 
L 373.048934 182.304555 
L 373.229348 177.479508 
L 373.319554 178.095517 
L 373.409761 177.941466 
L 373.590175 173.42452 
L 373.680382 174.451072 
L 373.860796 180.200036 
L 374.131416 172.192502 
L 374.31183 191.595328 
L 374.492244 197.960301 
L 374.943278 184.665761 
L 375.033485 185.589677 
L 375.484519 200.321507 
L 375.664933 204.633279 
L 376.206174 184.306439 
L 376.386588 192.468024 
L 376.476795 190.722729 
L 376.837623 196.625745 
L 376.927829 196.266422 
L 377.108243 191.749379 
L 377.19845 192.416706 
L 377.288657 191.595328 
L 377.378864 192.468024 
L 377.469071 190.517458 
L 377.559278 185.076499 
L 377.649484 186.872916 
L 377.739691 191.852015 
L 378.100519 183.279887 
L 378.371139 193.340623 
L 378.64176 185.179135 
L 378.731967 185.179135 
L 378.822174 184.973668 
L 378.912381 185.743728 
L 379.002588 183.741845 
L 379.183001 177.684779 
L 379.273208 179.532807 
L 379.363415 179.070848 
L 379.543829 184.717177 
L 379.634036 184.203803 
L 379.994863 170.087983 
L 380.08507 170.498525 
L 380.265484 178.968018 
L 380.355691 177.633559 
L 380.445898 173.989114 
L 380.626311 180.0974 
L 380.806725 173.886479 
L 381.077346 182.869149 
L 381.167553 186.154271 
L 381.257759 184.049752 
L 381.438173 178.454839 
L 381.618587 181.278004 
L 381.799001 184.357854 
L 381.889208 184.665761 
L 381.979414 183.947116 
L 382.159828 175.323573 
L 382.250035 175.734311 
L 382.430449 147.400034 
L 382.520656 148.683273 
L 382.610863 152.840896 
L 382.791276 140.008314 
L 382.881483 141.137697 
L 383.061897 127.432419 
L 383.152104 127.637691 
L 383.242311 129.434303 
L 383.422724 122.196829 
L 383.603138 130.51227 
L 383.693345 130.152948 
L 383.873759 128.458971 
L 384.054173 130.152948 
L 384.144379 130.152948 
L 384.324793 136.825828 
L 384.505207 149.247867 
L 384.595414 146.73261 
L 384.685621 140.983646 
L 384.775828 141.086282 
L 384.866035 142.98553 
L 384.956241 140.470272 
L 385.136655 129.331667 
L 385.317069 133.130163 
L 385.407276 131.795509 
L 385.58769 135.542589 
L 385.677896 135.645225 
L 385.948517 143.550123 
L 386.128931 172.295138 
L 386.399551 159.103233 
L 386.489758 159.719243 
L 386.670172 162.28572 
L 387.391827 142.472156 
L 387.482034 142.215665 
L 387.842861 149.761045 
L 387.933068 148.1699 
L 388.113482 142.780258 
L 388.293896 147.451255 
L 388.384103 148.375171 
L 388.564516 154.432237 
L 388.74493 143.858226 
L 388.835137 145.962745 
L 388.925344 144.268768 
L 389.105758 132.257467 
L 389.376378 145.603423 
L 389.737206 137.082515 
L 389.91762 132.411518 
L 390.007826 132.154831 
L 390.18824 139.854459 
L 390.278447 143.396267 
L 390.368654 141.702291 
L 390.549068 177.068965 
L 390.639275 178.865382 
L 391.090309 164.441655 
L 391.180516 164.800977 
L 391.36093 164.133552 
L 391.541343 171.884595 
L 391.721757 165.21152 
L 391.902171 166.186851 
L 392.082585 164.954833 
L 392.172791 165.827529 
L 392.353205 175.067081 
L 392.533619 172.141086 
L 392.623826 172.449189 
L 392.714033 173.065198 
L 393.07486 170.190618 
L 393.165067 167.008132 
L 393.255274 168.034684 
L 393.345481 170.39589 
L 393.525895 164.903613 
L 393.616101 166.084216 
L 393.886722 171.268586 
L 394.157343 164.800977 
L 394.337756 167.983464 
L 394.51817 164.492875 
L 394.608377 165.827529 
L 394.788791 160.027149 
L 394.969205 162.080449 
L 395.149618 159.719243 
L 395.239825 160.181201 
L 395.330032 159.719243 
L 395.420239 159.873294 
L 395.510446 159.770463 
L 395.600653 158.53864 
L 395.69086 160.027149 
L 395.871273 169.369338 
L 396.051687 161.515855 
L 396.141894 164.390239 
L 396.232101 163.05578 
L 396.322308 158.436004 
L 396.412515 160.643159 
L 396.502721 166.084216 
L 396.592928 165.827529 
L 396.683135 167.162183 
L 396.863549 179.532807 
L 397.043963 160.129785 
L 397.13417 160.386472 
L 397.224376 160.437888 
L 397.40479 158.179317 
L 397.675411 167.213403 
L 397.765618 166.135436 
L 397.946031 168.188735 
L 398.036238 168.086099 
L 398.216652 170.857848 
L 398.487273 166.443538 
L 398.487273 166.443538 
" clip-path="url(#p2a52c08b65)" style="fill: none; stroke: #1f77b4; stroke-width: 1.5; stroke-linecap: square"/>
   </g>
   <g id="patch_3">
    <path d="M 57.6 307.584 
L 57.6 41.472 
" style="fill: none; stroke: #000000; stroke-width: 0.8; stroke-linejoin: miter; stroke-linecap: square"/>
   </g>
   <g id="patch_4">
    <path d="M 414.72 307.584 
L 414.72 41.472 
" style="fill: none; stroke: #000000; stroke-width: 0.8; stroke-linejoin: miter; stroke-linecap: square"/>
   </g>
   <g id="patch_5">
    <path d="M 57.6 307.584 
L 414.72 307.584 
" style="fill: none; stroke: #000000; stroke-width: 0.8; stroke-linejoin: miter; stroke-linecap: square"/>
   </g>
   <g id="patch_6">
    <path d="M 57.6 41.472 
L 414.72 41.472 
" style="fill: none; stroke: #000000; stroke-width: 0.8; stroke-linejoin: miter; stroke-linecap: square"/>
   </g>
   <g id="legend_1">
    <g id="patch_7">
     <path d="M 354.074688 64.150125 
L 407.72 64.150125 
Q 409.72 64.150125 409.72 62.150125 
L 409.72 48.472 
Q 409.72 46.472 407.72 46.472 
L 354.074688 46.472 
Q 352.074688 46.472 352.074688 48.472 
L 352.074688 62.150125 
Q 352.074688 64.150125 354.074688 64.150125 
z
" style="fill: #ffffff; opacity: 0.8; stroke: #cccccc; stroke-linejoin: miter"/>
    </g>
    <g id="line2d_16">
     <path d="M 356.074688 54.570438 
L 366.074688 54.570438 
L 376.074688 54.570438 
" style="fill: none; stroke: #1f77b4; stroke-width: 1.5; stroke-linecap: square"/>
    </g>
    <g id="text_15">
     <!-- set1 -->
     <g transform="translate(384.074688 58.070438)scale(0.1 -0.1)">
      <defs>
       <path id="DejaVuSans-73" d="M 2834 3397 
L 2834 2853 
Q 2591 2978 2328 3040 
Q 2066 3103 1784 3103 
Q 1356 3103 1142 2972 
Q 928 2841 928 2578 
Q 928 2378 1081 2264 
Q 1234 2150 1697 2047 
L 1894 2003 
Q 2506 1872 2764 1633 
Q 3022 1394 3022 966 
Q 3022 478 2636 193 
Q 2250 -91 1575 -91 
Q 1294 -91 989 -36 
Q 684 19 347 128 
L 347 722 
Q 666 556 975 473 
Q 1284 391 1588 391 
Q 1994 391 2212 530 
Q 2431 669 2431 922 
Q 2431 1156 2273 1281 
Q 2116 1406 1581 1522 
L 1381 1569 
Q 847 1681 609 1914 
Q 372 2147 372 2553 
Q 372 3047 722 3315 
Q 1072 3584 1716 3584 
Q 2034 3584 2315 3537 
Q 2597 3491 2834 3397 
z
" transform="scale(0.015625)"/>
       <path id="DejaVuSans-65" d="M 3597 1894 
L 3597 1613 
L 953 1613 
Q 991 1019 1311 708 
Q 1631 397 2203 397 
Q 2534 397 2845 478 
Q 3156 559 3463 722 
L 3463 178 
Q 3153 47 2828 -22 
Q 2503 -91 2169 -91 
Q 1331 -91 842 396 
Q 353 884 353 1716 
Q 353 2575 817 3079 
Q 1281 3584 2069 3584 
Q 2775 3584 3186 3129 
Q 3597 2675 3597 1894 
z
M 3022 2063 
Q 3016 2534 2758 2815 
Q 2500 3097 2075 3097 
Q 1594 3097 1305 2825 
Q 1016 2553 972 2059 
L 3022 2063 
z
" transform="scale(0.015625)"/>
       <path id="DejaVuSans-74" d="M 1172 4494 
L 1172 3500 
L 2356 3500 
L 2356 3053 
L 1172 3053 
L 1172 1153 
Q 1172 725 1289 603 
Q 1406 481 1766 481 
L 2356 481 
L 2356 0 
L 1766 0 
Q 1100 0 847 248 
Q 594 497 594 1153 
L 594 3053 
L 172 3053 
L 172 3500 
L 594 3500 
L 594 4494 
L 1172 4494 
z
" transform="scale(0.015625)"/>
      </defs>
      <use xlink:href="#DejaVuSans-73"/>
      <use xlink:href="#DejaVuSans-65" x="52.099609"/>
      <use xlink:href="#DejaVuSans-74" x="113.623047"/>
      <use xlink:href="#DejaVuSans-31" x="152.832031"/>
     </g>
    </g>
   </g>
  </g>
 </g>
 <defs>
  <clipPath id="p2a52c08b65">
   <rect x="57.6" y="41.472" width="357.12" height="266.112"/>
  </clipPath>
 </defs>
</svg>
