<?xml version="1.0" encoding="utf-8" standalone="no"?>
<!DOCTYPE svg PUBLIC "-//W3C//DTD SVG 1.1//EN"
  "http://www.w3.org/Graphics/SVG/1.1/DTD/svg11.dtd">
<svg xmlns:xlink="http://www.w3.org/1999/xlink" width="460.8pt" height="345.6pt" viewBox="0 0 460.8 345.6" xmlns="http://www.w3.org/2000/svg" version="1.1">
 <metadata>
  <rdf:RDF xmlns:dc="http://purl.org/dc/elements/1.1/" xmlns:cc="http://creativecommons.org/ns#" xmlns:rdf="http://www.w3.org/1999/02/22-rdf-syntax-ns#">
   <cc:Work>
    <dc:type rdf:resource="http://purl.org/dc/dcmitype/StillImage"/>
    <dc:date>2022-08-11T15:17:15.896511</dc:date>
    <dc:format>image/svg+xml</dc:format>
    <dc:creator>
     <cc:Agent>
      <dc:title>Matplotlib v3.5.2, https://matplotlib.org/</dc:title>
     </cc:Agent>
    </dc:creator>
   </cc:Work>
  </rdf:RDF>
 </metadata>
 <defs>
  <style type="text/css">*{stroke-linejoin: round; stroke-linecap: butt}</style>
 </defs>
 <g id="figure_1">
  <g id="patch_1">
   <path d="M 0 345.6 
L 460.8 345.6 
L 460.8 0 
L 0 0 
z
" style="fill: #ffffff"/>
  </g>
  <g id="axes_1">
   <g id="patch_2">
    <path d="M 57.6 307.584 
L 414.72 307.584 
L 414.72 41.472 
L 57.6 41.472 
z
" style="fill: #ffffff"/>
   </g>
   <g id="matplotlib.axis_1">
    <g id="xtick_1">
     <g id="line2d_1">
      <defs>
       <path id="mb798f7bc43" d="M 0 0 
L 0 3.5 
" style="stroke: #000000; stroke-width: 0.8"/>
      </defs>
      <g>
       <use xlink:href="#mb798f7bc43" x="73.832727" y="307.584" style="stroke: #000000; stroke-width: 0.8"/>
      </g>
     </g>
     <g id="text_1">
      <!-- 0 -->
      <g transform="translate(70.651477 322.182437)scale(0.1 -0.1)">
       <defs>
        <path id="DejaVuSans-30" d="M 2034 4250 
Q 1547 4250 1301 3770 
Q 1056 3291 1056 2328 
Q 1056 1369 1301 889 
Q 1547 409 2034 409 
Q 2525 409 2770 889 
Q 3016 1369 3016 2328 
Q 3016 3291 2770 3770 
Q 2525 4250 2034 4250 
z
M 2034 4750 
Q 2819 4750 3233 4129 
Q 3647 3509 3647 2328 
Q 3647 1150 3233 529 
Q 2819 -91 2034 -91 
Q 1250 -91 836 529 
Q 422 1150 422 2328 
Q 422 3509 836 4129 
Q 1250 4750 2034 4750 
z
" transform="scale(0.015625)"/>
       </defs>
       <use xlink:href="#DejaVuSans-30"/>
      </g>
     </g>
    </g>
    <g id="xtick_2">
     <g id="line2d_2">
      <g>
       <use xlink:href="#mb798f7bc43" x="137.266597" y="307.584" style="stroke: #000000; stroke-width: 0.8"/>
      </g>
     </g>
     <g id="text_2">
      <!-- 500 -->
      <g transform="translate(127.722847 322.182437)scale(0.1 -0.1)">
       <defs>
        <path id="DejaVuSans-35" d="M 691 4666 
L 3169 4666 
L 3169 4134 
L 1269 4134 
L 1269 2991 
Q 1406 3038 1543 3061 
Q 1681 3084 1819 3084 
Q 2600 3084 3056 2656 
Q 3513 2228 3513 1497 
Q 3513 744 3044 326 
Q 2575 -91 1722 -91 
Q 1428 -91 1123 -41 
Q 819 9 494 109 
L 494 744 
Q 775 591 1075 516 
Q 1375 441 1709 441 
Q 2250 441 2565 725 
Q 2881 1009 2881 1497 
Q 2881 1984 2565 2268 
Q 2250 2553 1709 2553 
Q 1456 2553 1204 2497 
Q 953 2441 691 2322 
L 691 4666 
z
" transform="scale(0.015625)"/>
       </defs>
       <use xlink:href="#DejaVuSans-35"/>
       <use xlink:href="#DejaVuSans-30" x="63.623047"/>
       <use xlink:href="#DejaVuSans-30" x="127.246094"/>
      </g>
     </g>
    </g>
    <g id="xtick_3">
     <g id="line2d_3">
      <g>
       <use xlink:href="#mb798f7bc43" x="200.700467" y="307.584" style="stroke: #000000; stroke-width: 0.8"/>
      </g>
     </g>
     <g id="text_3">
      <!-- 1000 -->
      <g transform="translate(187.975467 322.182437)scale(0.1 -0.1)">
       <defs>
        <path id="DejaVuSans-31" d="M 794 531 
L 1825 531 
L 1825 4091 
L 703 3866 
L 703 4441 
L 1819 4666 
L 2450 4666 
L 2450 531 
L 3481 531 
L 3481 0 
L 794 0 
L 794 531 
z
" transform="scale(0.015625)"/>
       </defs>
       <use xlink:href="#DejaVuSans-31"/>
       <use xlink:href="#DejaVuSans-30" x="63.623047"/>
       <use xlink:href="#DejaVuSans-30" x="127.246094"/>
       <use xlink:href="#DejaVuSans-30" x="190.869141"/>
      </g>
     </g>
    </g>
    <g id="xtick_4">
     <g id="line2d_4">
      <g>
       <use xlink:href="#mb798f7bc43" x="264.134337" y="307.584" style="stroke: #000000; stroke-width: 0.8"/>
      </g>
     </g>
     <g id="text_4">
      <!-- 1500 -->
      <g transform="translate(251.409337 322.182437)scale(0.1 -0.1)">
       <use xlink:href="#DejaVuSans-31"/>
       <use xlink:href="#DejaVuSans-35" x="63.623047"/>
       <use xlink:href="#DejaVuSans-30" x="127.246094"/>
       <use xlink:href="#DejaVuSans-30" x="190.869141"/>
      </g>
     </g>
    </g>
    <g id="xtick_5">
     <g id="line2d_5">
      <g>
       <use xlink:href="#mb798f7bc43" x="327.568206" y="307.584" style="stroke: #000000; stroke-width: 0.8"/>
      </g>
     </g>
     <g id="text_5">
      <!-- 2000 -->
      <g transform="translate(314.843206 322.182437)scale(0.1 -0.1)">
       <defs>
        <path id="DejaVuSans-32" d="M 1228 531 
L 3431 531 
L 3431 0 
L 469 0 
L 469 531 
Q 828 903 1448 1529 
Q 2069 2156 2228 2338 
Q 2531 2678 2651 2914 
Q 2772 3150 2772 3378 
Q 2772 3750 2511 3984 
Q 2250 4219 1831 4219 
Q 1534 4219 1204 4116 
Q 875 4013 500 3803 
L 500 4441 
Q 881 4594 1212 4672 
Q 1544 4750 1819 4750 
Q 2544 4750 2975 4387 
Q 3406 4025 3406 3419 
Q 3406 3131 3298 2873 
Q 3191 2616 2906 2266 
Q 2828 2175 2409 1742 
Q 1991 1309 1228 531 
z
" transform="scale(0.015625)"/>
       </defs>
       <use xlink:href="#DejaVuSans-32"/>
       <use xlink:href="#DejaVuSans-30" x="63.623047"/>
       <use xlink:href="#DejaVuSans-30" x="127.246094"/>
       <use xlink:href="#DejaVuSans-30" x="190.869141"/>
      </g>
     </g>
    </g>
    <g id="xtick_6">
     <g id="line2d_6">
      <g>
       <use xlink:href="#mb798f7bc43" x="391.002076" y="307.584" style="stroke: #000000; stroke-width: 0.8"/>
      </g>
     </g>
     <g id="text_6">
      <!-- 2500 -->
      <g transform="translate(378.277076 322.182437)scale(0.1 -0.1)">
       <use xlink:href="#DejaVuSans-32"/>
       <use xlink:href="#DejaVuSans-35" x="63.623047"/>
       <use xlink:href="#DejaVuSans-30" x="127.246094"/>
       <use xlink:href="#DejaVuSans-30" x="190.869141"/>
      </g>
     </g>
    </g>
   </g>
   <g id="matplotlib.axis_2">
    <g id="ytick_1">
     <g id="line2d_7">
      <defs>
       <path id="ma7a7ae3a85" d="M 0 0 
L -3.5 0 
" style="stroke: #000000; stroke-width: 0.8"/>
      </defs>
      <g>
       <use xlink:href="#ma7a7ae3a85" x="57.6" y="271.524497" style="stroke: #000000; stroke-width: 0.8"/>
      </g>
     </g>
     <g id="text_7">
      <!-- 3900 -->
      <g transform="translate(25.15 275.323716)scale(0.1 -0.1)">
       <defs>
        <path id="DejaVuSans-33" d="M 2597 2516 
Q 3050 2419 3304 2112 
Q 3559 1806 3559 1356 
Q 3559 666 3084 287 
Q 2609 -91 1734 -91 
Q 1441 -91 1130 -33 
Q 819 25 488 141 
L 488 750 
Q 750 597 1062 519 
Q 1375 441 1716 441 
Q 2309 441 2620 675 
Q 2931 909 2931 1356 
Q 2931 1769 2642 2001 
Q 2353 2234 1838 2234 
L 1294 2234 
L 1294 2753 
L 1863 2753 
Q 2328 2753 2575 2939 
Q 2822 3125 2822 3475 
Q 2822 3834 2567 4026 
Q 2313 4219 1838 4219 
Q 1578 4219 1281 4162 
Q 984 4106 628 3988 
L 628 4550 
Q 988 4650 1302 4700 
Q 1616 4750 1894 4750 
Q 2613 4750 3031 4423 
Q 3450 4097 3450 3541 
Q 3450 3153 3228 2886 
Q 3006 2619 2597 2516 
z
" transform="scale(0.015625)"/>
        <path id="DejaVuSans-39" d="M 703 97 
L 703 672 
Q 941 559 1184 500 
Q 1428 441 1663 441 
Q 2288 441 2617 861 
Q 2947 1281 2994 2138 
Q 2813 1869 2534 1725 
Q 2256 1581 1919 1581 
Q 1219 1581 811 2004 
Q 403 2428 403 3163 
Q 403 3881 828 4315 
Q 1253 4750 1959 4750 
Q 2769 4750 3195 4129 
Q 3622 3509 3622 2328 
Q 3622 1225 3098 567 
Q 2575 -91 1691 -91 
Q 1453 -91 1209 -44 
Q 966 3 703 97 
z
M 1959 2075 
Q 2384 2075 2632 2365 
Q 2881 2656 2881 3163 
Q 2881 3666 2632 3958 
Q 2384 4250 1959 4250 
Q 1534 4250 1286 3958 
Q 1038 3666 1038 3163 
Q 1038 2656 1286 2365 
Q 1534 2075 1959 2075 
z
" transform="scale(0.015625)"/>
       </defs>
       <use xlink:href="#DejaVuSans-33"/>
       <use xlink:href="#DejaVuSans-39" x="63.623047"/>
       <use xlink:href="#DejaVuSans-30" x="127.246094"/>
       <use xlink:href="#DejaVuSans-30" x="190.869141"/>
      </g>
     </g>
    </g>
    <g id="ytick_2">
     <g id="line2d_8">
      <g>
       <use xlink:href="#ma7a7ae3a85" x="57.6" y="228.055793" style="stroke: #000000; stroke-width: 0.8"/>
      </g>
     </g>
     <g id="text_8">
      <!-- 4000 -->
      <g transform="translate(25.15 231.855012)scale(0.1 -0.1)">
       <defs>
        <path id="DejaVuSans-34" d="M 2419 4116 
L 825 1625 
L 2419 1625 
L 2419 4116 
z
M 2253 4666 
L 3047 4666 
L 3047 1625 
L 3713 1625 
L 3713 1100 
L 3047 1100 
L 3047 0 
L 2419 0 
L 2419 1100 
L 313 1100 
L 313 1709 
L 2253 4666 
z
" transform="scale(0.015625)"/>
       </defs>
       <use xlink:href="#DejaVuSans-34"/>
       <use xlink:href="#DejaVuSans-30" x="63.623047"/>
       <use xlink:href="#DejaVuSans-30" x="127.246094"/>
       <use xlink:href="#DejaVuSans-30" x="190.869141"/>
      </g>
     </g>
    </g>
    <g id="ytick_3">
     <g id="line2d_9">
      <g>
       <use xlink:href="#ma7a7ae3a85" x="57.6" y="184.587089" style="stroke: #000000; stroke-width: 0.8"/>
      </g>
     </g>
     <g id="text_9">
      <!-- 4100 -->
      <g transform="translate(25.15 188.386308)scale(0.1 -0.1)">
       <use xlink:href="#DejaVuSans-34"/>
       <use xlink:href="#DejaVuSans-31" x="63.623047"/>
       <use xlink:href="#DejaVuSans-30" x="127.246094"/>
       <use xlink:href="#DejaVuSans-30" x="190.869141"/>
      </g>
     </g>
    </g>
    <g id="ytick_4">
     <g id="line2d_10">
      <g>
       <use xlink:href="#ma7a7ae3a85" x="57.6" y="141.118385" style="stroke: #000000; stroke-width: 0.8"/>
      </g>
     </g>
     <g id="text_10">
      <!-- 4200 -->
      <g transform="translate(25.15 144.917604)scale(0.1 -0.1)">
       <use xlink:href="#DejaVuSans-34"/>
       <use xlink:href="#DejaVuSans-32" x="63.623047"/>
       <use xlink:href="#DejaVuSans-30" x="127.246094"/>
       <use xlink:href="#DejaVuSans-30" x="190.869141"/>
      </g>
     </g>
    </g>
    <g id="ytick_5">
     <g id="line2d_11">
      <g>
       <use xlink:href="#ma7a7ae3a85" x="57.6" y="97.649681" style="stroke: #000000; stroke-width: 0.8"/>
      </g>
     </g>
     <g id="text_11">
      <!-- 4300 -->
      <g transform="translate(25.15 101.448899)scale(0.1 -0.1)">
       <use xlink:href="#DejaVuSans-34"/>
       <use xlink:href="#DejaVuSans-33" x="63.623047"/>
       <use xlink:href="#DejaVuSans-30" x="127.246094"/>
       <use xlink:href="#DejaVuSans-30" x="190.869141"/>
      </g>
     </g>
    </g>
    <g id="ytick_6">
     <g id="line2d_12">
      <g>
       <use xlink:href="#ma7a7ae3a85" x="57.6" y="54.180977" style="stroke: #000000; stroke-width: 0.8"/>
      </g>
     </g>
     <g id="text_12">
      <!-- 4400 -->
      <g transform="translate(25.15 57.980195)scale(0.1 -0.1)">
       <use xlink:href="#DejaVuSans-34"/>
       <use xlink:href="#DejaVuSans-34" x="63.623047"/>
       <use xlink:href="#DejaVuSans-30" x="127.246094"/>
       <use xlink:href="#DejaVuSans-30" x="190.869141"/>
      </g>
     </g>
    </g>
   </g>
   <g id="line2d_13">
    <path d="M 73.832727 180.407471 
L 73.959595 185.757433 
L 74.21333 173.051115 
L 74.467066 182.525085 
L 74.593934 179.57142 
L 75.101405 191.887624 
L 75.228272 196.29021 
L 75.482008 193.670944 
L 75.735743 206.878702 
L 75.862611 204.426689 
L 75.989479 199.355305 
L 76.116347 200.804227 
L 76.243214 203.590745 
L 76.49695 201.41731 
L 76.623818 204.53812 
L 76.877553 215.23815 
L 77.004421 210.333912 
L 77.131289 211.114142 
L 77.385024 217.411585 
L 77.511892 220.532396 
L 77.765627 231.176604 
L 77.892495 229.504714 
L 78.14623 241.932349 
L 78.399966 230.284944 
L 78.526834 233.238608 
L 78.780569 246.725049 
L 79.161172 256.700565 
L 79.28804 257.369257 
L 79.414908 252.966672 
L 79.541776 253.63547 
L 79.795511 269.518208 
L 79.922379 261.827665 
L 80.176114 273.419249 
L 80.302982 267.734888 
L 80.42985 268.347971 
L 80.683585 284.230709 
L 80.810453 279.716692 
L 80.937321 281.890127 
L 81.064188 286.627112 
L 81.191056 286.849975 
L 81.317924 288.187465 
L 81.571659 295.488 
L 81.698527 294.707771 
L 81.825395 295.04217 
L 81.952263 94.194471 
L 82.07913 98.875634 
L 82.205998 118.102258 
L 82.459734 82.268381 
L 82.586601 85.055006 
L 82.713469 88.175711 
L 82.840337 87.395481 
L 82.967205 89.568916 
L 83.347808 84.163133 
L 83.601543 72.571549 
L 83.728411 78.5347 
L 83.855279 77.754471 
L 84.235882 69.395023 
L 84.36275 68.113248 
L 84.489617 69.172161 
L 84.743353 66.998726 
L 84.870221 64.8809 
L 84.997088 60.757104 
L 85.123956 61.760195 
L 85.377692 66.051244 
L 85.504559 71.234165 
L 85.631427 71.289775 
L 86.01203 61.871626 
L 86.138898 61.704373 
L 86.265766 68.949087 
L 86.392633 69.785138 
L 86.519501 67.723134 
L 86.646369 73.128917 
L 86.773237 70.620976 
L 86.900104 62.930539 
L 87.15384 69.339201 
L 87.280708 65.103974 
L 87.407575 64.602216 
L 87.534443 67.054335 
L 87.788179 58.137732 
L 88.041914 70.175252 
L 88.168782 69.840959 
L 88.422517 53.902293 
L 88.676253 66.329927 
L 88.803121 65.494089 
L 88.929988 60.701282 
L 89.056856 64.825291 
L 89.183724 72.794411 
L 89.437459 53.568 
L 89.564327 55.964297 
L 89.691195 59.698191 
L 89.818062 58.081911 
L 89.94493 60.366989 
L 90.071798 240.483428 
L 90.198666 246.334935 
L 90.452401 238.755823 
L 90.706137 250.960489 
L 90.959872 244.440183 
L 91.08674 249.73443 
L 91.340475 241.040689 
L 91.594211 256.867712 
L 91.847946 244.495899 
L 92.101682 258.149487 
L 92.355417 251.016205 
L 92.609153 253.802616 
L 92.73602 251.96358 
L 92.862888 254.861529 
L 92.989756 260.490175 
L 93.243491 253.579755 
L 93.370359 257.926625 
L 93.497227 258.260918 
L 93.750962 250.737521 
L 94.004698 254.749992 
L 94.258433 262.161958 
L 94.385301 261.939096 
L 94.639037 259.65423 
L 94.765904 259.598514 
L 94.892772 258.260918 
L 95.146508 265.951567 
L 95.400243 250.681806 
L 95.527111 252.910956 
L 95.653978 253.078209 
L 95.780846 245.666243 
L 95.907714 246.39065 
L 96.034582 253.412502 
L 96.161449 253.691185 
L 96.288317 251.573466 
L 96.542053 254.137016 
L 96.66892 253.746901 
L 97.049524 243.938638 
L 97.430127 258.372455 
L 97.556995 255.75319 
L 97.81073 245.721958 
L 97.937598 246.892196 
L 98.064466 250.514659 
L 98.191333 178.234036 
L 98.318201 171.825161 
L 98.571936 184.196974 
L 98.825672 178.568329 
L 98.95254 181.689246 
L 99.079407 182.023539 
L 99.206275 180.407471 
L 99.333143 180.29604 
L 99.460011 181.299131 
L 99.586878 181.354741 
L 99.713746 179.738673 
L 99.840614 180.630333 
L 99.967482 183.305314 
L 100.094349 182.469475 
L 100.221217 180.574512 
L 100.474953 183.02663 
L 100.60182 179.125696 
L 100.728688 180.909017 
L 100.855556 186.481841 
L 100.982424 184.419836 
L 101.109291 179.738673 
L 101.363027 181.410562 
L 101.489894 178.066783 
L 101.616762 178.456898 
L 101.870498 187.039208 
L 102.251101 177.119301 
L 102.504836 187.763615 
L 102.631704 184.977204 
L 102.758572 179.014265 
L 102.88544 181.410562 
L 103.012307 181.354741 
L 103.266043 169.428864 
L 103.519778 171.435047 
L 103.646646 171.992414 
L 103.900382 177.063692 
L 104.154117 165.249034 
L 104.53472 173.38562 
L 104.661588 180.909017 
L 104.788456 181.299131 
L 105.042191 173.106936 
L 105.169059 174.500142 
L 105.422794 166.419378 
L 105.549662 169.707335 
L 105.67653 169.707335 
L 105.930265 166.363768 
L 106.057133 166.530809 
L 106.184001 168.25852 
L 106.310869 189.04539 
L 106.437736 187.150639 
L 106.691472 180.630333 
L 106.81834 181.1877 
L 107.198943 191.441794 
L 107.579546 167.032354 
L 107.706414 164.580236 
L 107.960149 150.480924 
L 108.087017 154.270427 
L 108.213885 154.270427 
L 108.340752 146.914283 
L 108.46762 146.74703 
L 108.594488 152.096992 
L 108.848223 152.877221 
L 109.101959 163.13142 
L 109.355694 158.673119 
L 109.60943 161.013595 
L 109.736298 160.066325 
L 109.990033 167.143786 
L 110.243769 158.561688 
L 110.497504 161.961076 
L 110.624372 161.403709 
L 110.751239 165.360465 
L 110.878107 165.472108 
L 111.131843 158.673119 
L 111.385578 161.069416 
L 111.512446 161.236669 
L 111.639314 163.410104 
L 111.766181 161.682393 
L 111.893049 157.335522 
L 112.146785 160.957985 
L 112.40052 151.87413 
L 112.654256 163.18703 
L 112.781123 163.075599 
L 112.907991 164.914741 
L 113.161727 159.508958 
L 113.288594 161.570962 
L 113.54233 172.884074 
L 113.669197 171.936592 
L 113.922933 164.747489 
L 114.049801 168.815675 
L 114.303536 161.682393 
L 114.430404 156.833977 
L 114.557272 161.069416 
L 114.684139 161.180847 
L 114.811007 159.564779 
L 115.064743 162.852737 
L 115.19161 161.069416 
L 115.318478 161.738214 
L 115.572214 171.044932 
L 115.699081 168.42556 
L 115.825949 168.31413 
L 116.33342 184.977204 
L 116.460288 184.69852 
L 116.587155 182.413654 
L 116.840891 190.215734 
L 117.094626 186.426125 
L 117.348362 194.952719 
L 117.47523 196.011526 
L 117.728965 202.643369 
L 117.855833 203.312061 
L 118.236436 208.662022 
L 118.490172 220.643827 
L 118.617039 221.479772 
L 118.870775 226.718303 
L 118.997643 225.102128 
L 119.12451 228.836022 
L 119.378246 240.539143 
L 119.505114 240.984973 
L 119.758849 247.505279 
L 119.885717 244.272931 
L 120.393188 257.926625 
L 120.520055 258.372455 
L 120.646923 258.260918 
L 120.900659 261.326119 
L 121.027526 263.55527 
L 121.281262 270.911521 
L 121.40813 268.125002 
L 121.534997 270.075576 
L 121.915601 282.837503 
L 122.169336 279.99527 
L 122.423072 287.964603 
L 122.549939 109.57577 
L 122.676807 108.628288 
L 122.803675 115.984644 
L 122.930542 109.018403 
L 123.05741 95.699107 
L 123.184278 96.702199 
L 123.311146 101.662258 
L 123.564881 97.315388 
L 123.691749 100.658955 
L 123.818617 107.17926 
L 123.945484 106.622105 
L 124.19922 94.696016 
L 124.326088 100.380483 
L 124.452955 100.770598 
L 124.579823 98.207048 
L 124.706691 99.098708 
L 124.833559 99.042887 
L 124.960426 99.265748 
L 125.087294 99.990369 
L 125.594765 93.358632 
L 125.8485 98.48552 
L 125.975368 97.036704 
L 126.229104 97.761112 
L 126.355971 96.702199 
L 126.609707 99.37718 
L 126.736575 99.544432 
L 126.863442 102.944033 
L 127.117178 98.48552 
L 127.370913 106.844967 
L 127.624649 97.649681 
L 127.751517 101.049069 
L 128.005252 94.751838 
L 128.258988 96.75802 
L 128.512723 91.742352 
L 128.766458 95.364814 
L 129.020194 91.352237 
L 129.273929 93.637103 
L 129.527665 92.745443 
L 129.654533 93.135557 
L 129.7814 94.417333 
L 130.035136 88.175711 
L 130.162004 90.906513 
L 130.288871 91.129375 
L 130.415739 86.39239 
L 130.542607 88.287142 
L 130.669475 254.137016 
L 130.796342 255.697474 
L 131.050078 253.802616 
L 131.303813 257.703657 
L 131.557549 251.239067 
L 131.684416 252.688094 
L 131.938152 250.347406 
L 132.191887 253.802616 
L 132.445623 252.353695 
L 132.699358 254.415699 
L 132.826226 253.746901 
L 133.206829 247.115164 
L 133.333697 247.951109 
L 133.587433 254.415699 
L 133.841168 252.409411 
L 133.968036 253.301071 
L 134.221771 249.901576 
L 134.348639 251.740612 
L 134.602375 249.177169 
L 134.85611 254.805814 
L 135.109845 252.576557 
L 135.236713 252.855241 
L 135.490449 251.852149 
L 135.744184 253.63547 
L 135.871052 250.62609 
L 135.99792 244.830298 
L 136.124787 245.164591 
L 136.251655 247.338026 
L 136.505391 242.266748 
L 136.632258 246.056251 
L 136.759126 246.27922 
L 136.885994 244.718761 
L 137.139729 246.39065 
L 137.393465 243.994353 
L 137.774068 239.424515 
L 138.027803 247.839678 
L 138.154671 246.223504 
L 138.408407 239.090115 
L 138.535274 238.700001 
L 138.662142 239.424515 
L 138.78901 174.945866 
L 138.915878 174.110028 
L 139.042745 175.113119 
L 139.169613 175.113119 
L 139.423349 178.958444 
L 139.677084 176.506325 
L 139.803952 178.456898 
L 139.93082 178.345467 
L 140.057687 179.682851 
L 140.311423 184.69852 
L 140.438291 182.692337 
L 140.565158 183.862681 
L 140.818894 188.822528 
L 141.072629 186.426125 
L 141.199497 186.091726 
L 141.453232 188.655276 
L 141.5801 186.649093 
L 141.833836 179.905925 
L 141.960703 181.577815 
L 142.214439 180.46308 
L 142.468174 185.033025 
L 142.595042 185.311497 
L 142.848778 182.079361 
L 143.102513 189.937051 
L 143.229381 188.543845 
L 143.483116 182.023539 
L 143.609984 181.689246 
L 143.736852 179.627242 
L 143.863719 179.682851 
L 143.990587 181.076057 
L 144.244323 178.624151 
L 144.37119 181.856286 
L 144.498058 179.905925 
L 144.624926 174.165849 
L 144.751794 173.887166 
L 145.005529 181.020448 
L 145.132397 182.692337 
L 145.386132 189.37979 
L 145.639868 176.896439 
L 145.893603 178.847013 
L 146.147339 173.831344 
L 146.274207 175.670486 
L 146.401074 175.614665 
L 146.527942 173.162545 
L 146.65481 173.273977 
L 146.781678 174.332889 
L 146.908545 176.394894 
L 147.035413 175.001688 
L 147.289148 167.645544 
L 147.416016 167.868405 
L 147.542884 169.986019 
L 147.669752 176.562146 
L 147.796619 175.614665 
L 148.050355 156.611115 
L 148.177223 155.886495 
L 148.557826 139.892431 
L 148.684694 140.226724 
L 148.811561 141.898614 
L 149.065297 140.449587 
L 149.192165 141.285638 
L 149.572768 148.920465 
L 149.826503 148.697603 
L 149.953371 149.031896 
L 150.080239 148.753213 
L 150.207106 147.304397 
L 150.333974 148.196058 
L 150.58771 153.601629 
L 150.714577 151.261153 
L 150.841445 152.487107 
L 150.968313 155.886495 
L 151.222048 154.381858 
L 151.348916 159.063234 
L 151.475784 159.397527 
L 151.729519 153.211514 
L 151.983255 158.728728 
L 152.363858 161.626783 
L 152.490726 161.292278 
L 152.744461 156.945408 
L 152.998197 161.459531 
L 153.125064 161.236669 
L 153.3788 162.183939 
L 153.632535 160.679302 
L 153.759403 161.236669 
L 154.013139 168.25852 
L 154.140006 168.147089 
L 154.266874 167.311038 
L 154.647477 161.180847 
L 154.774345 162.964168 
L 154.901213 162.796915 
L 155.028081 175.94917 
L 155.154948 175.781917 
L 155.535552 169.651726 
L 155.662419 170.320524 
L 155.916155 168.369951 
L 156.296758 178.67976 
L 156.550493 174.667395 
L 156.804229 181.856286 
L 156.931097 180.686155 
L 157.057964 181.856286 
L 157.184832 181.410562 
L 157.3117 178.958444 
L 157.565435 181.577815 
L 157.819171 179.682851 
L 157.946039 180.853195 
L 158.326642 189.992766 
L 158.45351 189.49122 
L 158.580377 189.04539 
L 158.707245 189.324074 
L 158.834113 190.71728 
L 159.087848 198.129246 
L 159.214716 198.798044 
L 159.468451 197.293301 
L 159.595319 195.119866 
L 159.722187 195.900095 
L 159.975922 203.813607 
L 160.10279 202.30897 
L 160.229658 205.42978 
L 160.356526 205.151097 
L 160.483393 201.807424 
L 160.610261 203.256345 
L 160.863997 208.940706 
L 160.990864 210.333912 
L 161.2446 207.99333 
L 161.371468 208.662022 
L 161.498335 208.383445 
L 161.878939 213.789122 
L 162.005806 213.231861 
L 162.132674 210.389628 
L 162.259542 212.172948 
L 162.386409 218.358961 
L 162.513277 218.526107 
L 162.640145 213.454723 
L 162.767013 213.064715 
L 162.89388 215.906842 
L 163.020748 215.795411 
L 163.147616 167.812584 
L 163.401351 168.927106 
L 163.655087 156.666724 
L 163.908822 160.902164 
L 164.162558 152.654359 
L 164.416293 165.360465 
L 164.543161 162.629875 
L 164.796897 151.205331 
L 164.923764 153.768881 
L 165.1775 152.8214 
L 165.431235 145.85537 
L 165.558103 146.356916 
L 165.684971 148.474529 
L 165.938706 144.796457 
L 166.065574 145.298002 
L 166.319309 148.530351 
L 166.573045 147.861552 
L 166.699913 148.920465 
L 166.953648 147.750122 
L 167.080516 147.805943 
L 167.207384 147.248576 
L 167.461119 150.815217 
L 167.714855 145.576686 
L 167.841722 146.74703 
L 168.095458 151.372584 
L 168.222325 149.477833 
L 168.476061 142.288729 
L 168.729796 138.331973 
L 168.983532 142.734453 
L 169.364135 134.319396 
L 169.491003 136.660083 
L 169.617871 135.211056 
L 169.744738 135.155447 
L 169.998474 138.220542 
L 170.125342 137.607353 
L 170.252209 138.722088 
L 170.379077 137.384491 
L 170.505945 134.765332 
L 170.75968 138.554835 
L 171.013416 133.372126 
L 171.140283 135.044015 
L 171.267151 190.048588 
L 171.520887 186.649093 
L 171.774622 199.522452 
L 172.028358 193.838091 
L 172.155225 194.562604 
L 172.408961 189.435505 
L 172.662696 196.791755 
L 172.916432 194.506889 
L 173.170167 196.178779 
L 173.297035 196.011526 
L 173.423903 195.342834 
L 173.677638 200.525649 
L 173.804506 196.791755 
L 173.931374 196.401641 
L 174.185109 204.036575 
L 174.438845 194.841288 
L 174.69258 196.011526 
L 174.819448 193.392261 
L 174.946316 194.562604 
L 175.073183 197.683416 
L 175.200051 196.791755 
L 175.326919 197.404732 
L 175.580654 203.813607 
L 175.83439 197.794846 
L 175.961258 197.850668 
L 176.214993 202.699084 
L 176.341861 201.027195 
L 176.595596 193.447976 
L 176.849332 192.890715 
L 176.9762 192.333454 
L 177.229935 196.011526 
L 177.356803 194.952719 
L 177.610538 195.621411 
L 177.737406 194.451174 
L 177.864274 194.395458 
L 177.991141 194.005343 
L 178.244877 189.82562 
L 178.371745 189.937051 
L 178.62548 199.801135 
L 178.879216 187.150639 
L 179.006083 188.766813 
L 179.259819 195.454265 
L 179.386687 161.626783 
L 179.513554 163.242852 
L 179.76729 162.685484 
L 180.021025 168.25852 
L 180.147893 167.032354 
L 180.401628 167.868405 
L 180.655364 165.58354 
L 181.035967 168.704244 
L 181.162835 168.982928 
L 181.41657 165.416287 
L 181.543438 165.806401 
L 181.670306 167.979837 
L 181.924041 166.085085 
L 182.177777 173.497051 
L 182.431512 167.645544 
L 182.685248 174.611573 
L 182.812116 172.828252 
L 182.938983 173.441229 
L 183.192719 176.617756 
L 183.446454 171.490656 
L 183.70019 175.94917 
L 183.827057 175.22455 
L 183.953925 174.27728 
L 184.080793 175.503233 
L 184.207661 173.051115 
L 184.461396 165.58354 
L 184.588264 167.979837 
L 184.715132 166.029263 
L 184.841999 166.809493 
L 184.968867 173.775735 
L 185.095735 173.218367 
L 185.222603 167.143786 
L 185.34947 166.809493 
L 185.476338 168.871497 
L 185.730074 165.973654 
L 185.983809 174.667395 
L 186.237544 165.360465 
L 186.49128 168.42556 
L 186.618148 167.36686 
L 186.745015 167.645544 
L 186.871883 167.199607 
L 187.125619 165.249034 
L 187.379354 174.221459 
L 187.506222 181.912108 
L 187.63309 180.630333 
L 187.759957 175.503233 
L 187.886825 175.559055 
L 188.140561 180.853195 
L 188.267428 181.800677 
L 188.394296 180.853195 
L 188.648032 174.834435 
L 188.774899 177.509416 
L 188.901767 177.175123 
L 189.155503 171.992414 
L 189.536106 161.069416 
L 190.043577 165.416287 
L 190.170444 169.874588 
L 190.42418 166.753671 
L 190.677915 174.500142 
L 190.804783 174.723004 
L 190.931651 174.500142 
L 191.058519 175.335981 
L 191.185386 174.723004 
L 191.312254 173.329798 
L 191.56599 174.723004 
L 191.692857 174.555752 
L 191.819725 173.664091 
L 192.073461 175.22455 
L 192.327196 171.936592 
L 192.580931 174.611573 
L 192.707799 174.834435 
L 192.834667 174.221459 
L 192.961535 172.270885 
L 193.21527 175.16894 
L 193.469006 172.048023 
L 193.849609 179.459989 
L 193.976477 180.686155 
L 194.230212 173.497051 
L 194.610815 182.413654 
L 194.991419 173.441229 
L 195.245154 175.559055 
L 195.498889 173.608482 
L 195.625757 154.381858 
L 195.752625 159.063234 
L 195.879493 154.103174 
L 196.00636 154.493289 
L 196.260096 160.45644 
L 196.513831 154.771973 
L 196.767567 162.964168 
L 197.021302 159.118843 
L 197.528773 172.048023 
L 197.655641 169.874588 
L 197.782509 165.472108 
L 197.909377 169.818979 
L 198.036244 178.178214 
L 198.163112 173.664091 
L 198.28998 164.80331 
L 198.416847 168.648635 
L 198.543715 176.394894 
L 198.797451 174.611573 
L 198.924318 176.450716 
L 199.051186 176.394894 
L 199.178054 177.453807 
L 199.685525 188.488129 
L 199.812393 187.094923 
L 200.066128 193.392261 
L 200.319864 187.039208 
L 200.573599 197.014724 
L 200.700467 194.562604 
L 200.954202 202.086002 
L 201.08107 200.692796 
L 201.207938 200.63708 
L 201.334805 198.909475 
L 201.588541 206.65584 
L 201.715409 203.20063 
L 201.842276 203.702176 
L 201.969144 210.724027 
L 202.22288 202.7548 
L 202.603483 208.383445 
L 202.730351 206.990239 
L 202.857218 208.439161 
L 202.984086 212.563063 
L 203.110954 212.953178 
L 203.237822 209.888082 
L 203.491557 212.841747 
L 203.618425 209.999513 
L 203.745293 155.552202 
L 203.87216 163.855828 
L 203.999028 181.1877 
L 204.252764 148.530351 
L 204.506499 163.298673 
L 204.760234 159.620389 
L 205.01397 163.075599 
L 205.140838 165.472108 
L 205.394573 152.487107 
L 205.648309 162.462622 
L 205.775176 158.951803 
L 205.902044 159.286096 
L 206.15578 163.13142 
L 206.409515 159.73182 
L 206.536383 161.292278 
L 206.790118 154.214818 
L 207.043854 166.140694 
L 207.297589 160.45644 
L 207.424457 162.128329 
L 207.551325 161.961076 
L 207.80506 159.286096 
L 208.058796 163.91165 
L 208.185663 161.125238 
L 208.439399 169.261611 
L 208.693134 157.948499 
L 208.820002 163.075599 
L 209.073738 159.063234 
L 209.200605 162.518444 
L 209.454341 151.484015 
L 209.708076 157.781459 
L 209.961812 152.264244 
L 210.08868 155.942317 
L 210.342415 147.750122 
L 210.59615 155.886495 
L 210.723018 150.871038 
L 210.976754 155.775064 
L 211.230489 137.663175 
L 211.484225 141.954224 
L 211.611092 138.666266 
L 211.73796 140.115294 
L 211.991696 188.822528 
L 212.245431 181.299131 
L 212.499167 190.828711 
L 212.752902 183.75125 
L 212.87977 186.091726 
L 213.133505 182.747947 
L 213.387241 189.714189 
L 213.640976 187.596469 
L 213.767844 189.212643 
L 214.148447 188.488129 
L 214.402183 185.59018 
L 214.52905 186.81624 
L 214.782786 191.274541 
L 214.909654 190.494418 
L 215.163389 187.540753 
L 215.290257 188.042299 
L 215.543992 191.218826 
L 215.797728 187.317785 
L 216.051463 195.454265 
L 216.178331 194.451174 
L 216.432067 190.995963 
L 216.558934 191.60894 
L 216.939537 197.18187 
L 217.066405 196.345925 
L 217.193273 190.215734 
L 217.320141 190.048588 
L 217.447008 193.113683 
L 217.700744 185.980295 
L 217.954479 191.386078 
L 218.081347 190.940248 
L 218.208215 191.999055 
L 218.335083 191.274541 
L 218.588818 193.057862 
L 218.842554 185.813042 
L 219.096289 192.667853 
L 219.350025 197.571985 
L 219.60376 188.376698 
L 219.730628 188.488129 
L 219.857495 189.37979 
L 220.111231 171.044932 
L 220.238099 168.147089 
L 220.364966 170.766248 
L 220.491834 176.060601 
L 220.74557 166.029263 
L 220.999305 177.7881 
L 221.253041 167.701153 
L 221.506776 174.054206 
L 221.760512 169.484474 
L 221.887379 169.484474 
L 222.014247 167.812584 
L 222.141115 168.982928 
L 222.39485 173.775735 
L 222.648586 174.165849 
L 222.902321 165.639149 
L 223.156057 167.924015 
L 223.282924 165.917833 
L 223.409792 167.143786 
L 223.53666 170.82207 
L 223.663528 170.82207 
L 223.790395 168.42556 
L 224.044131 169.484474 
L 224.170999 168.035446 
L 224.424734 170.654817 
L 224.551602 169.651726 
L 224.67847 169.986019 
L 224.932205 164.190333 
L 225.185941 167.5339 
L 225.312808 165.416287 
L 225.439676 166.419378 
L 225.566544 172.159454 
L 225.693411 169.818979 
L 225.820279 161.069416 
L 225.947147 161.013595 
L 226.200882 167.979837 
L 226.454618 177.509416 
L 226.581486 174.945866 
L 226.835221 166.029263 
L 226.962089 168.31413 
L 227.088957 168.091268 
L 227.215824 166.530809 
L 227.46956 168.815675 
L 227.850163 167.701153 
L 227.977031 168.760066 
L 228.103899 170.766248 
L 228.230766 170.766248 
L 228.484502 164.80331 
L 228.738237 167.032354 
L 228.991973 169.540295 
L 229.245708 160.62348 
L 229.372576 161.125238 
L 229.753179 152.096992 
L 230.006915 153.71306 
L 230.26065 147.527259 
L 230.514386 153.100083 
L 230.894989 160.512049 
L 231.021857 158.728728 
L 231.275592 161.961076 
L 231.529328 158.283005 
L 231.783063 162.072508 
L 231.909931 160.289187 
L 232.036798 160.790733 
L 232.163666 164.023081 
L 232.417402 161.125238 
L 232.671137 165.69497 
L 232.924873 158.115752 
L 233.178608 166.252125 
L 233.305476 165.472108 
L 233.432344 161.849646 
L 233.559211 162.016898 
L 233.686079 164.524626 
L 233.939815 160.735123 
L 234.066682 167.422469 
L 234.19355 166.64224 
L 234.320418 160.902164 
L 234.574153 168.537204 
L 234.701021 164.747489 
L 234.827889 165.472108 
L 234.954756 170.654817 
L 235.208492 166.252125 
L 235.462227 168.760066 
L 235.715963 166.363768 
L 235.969698 167.143786 
L 236.096566 167.143786 
L 236.223434 171.880771 
L 236.477169 165.69497 
L 236.730905 161.51514 
L 236.857773 161.961076 
L 236.98464 160.846554 
L 237.111508 158.617298 
L 237.238376 159.564779 
L 237.492111 164.691879 
L 237.745847 159.453348 
L 237.999582 169.763157 
L 238.12645 169.651726 
L 238.380185 161.793824 
L 238.507053 163.075599 
L 238.633921 162.128329 
L 238.887656 154.827794 
L 239.014524 154.270427 
L 239.141392 154.270427 
L 239.26826 155.050657 
L 239.395127 154.716363 
L 239.521995 153.100083 
L 239.648863 153.434588 
L 239.775731 155.32934 
L 239.902598 153.490198 
L 240.029466 154.660542 
L 240.156334 160.345009 
L 240.283202 160.400618 
L 240.410069 158.227183 
L 240.536937 158.673119 
L 240.790672 153.100083 
L 241.171276 158.171573 
L 241.425011 166.698061 
L 241.678747 153.936134 
L 242.05935 165.137603 
L 242.186218 169.150181 
L 242.313085 166.753671 
L 242.439953 161.292278 
L 242.693689 167.645544 
L 242.820556 166.4752 
L 243.074292 169.986019 
L 243.20116 168.369951 
L 243.328027 170.598996 
L 243.454895 176.283463 
L 243.581763 174.778826 
L 243.835498 167.36686 
L 244.089234 168.648635 
L 244.216101 168.760066 
L 244.342969 159.397527 
L 244.596705 171.156363 
L 244.85044 157.056839 
L 245.104176 167.143786 
L 245.231043 159.174665 
L 245.357911 161.180847 
L 245.484779 168.704244 
L 245.611647 166.530809 
L 245.738514 166.586631 
L 245.865382 169.094359 
L 246.119118 158.394435 
L 246.372853 169.094359 
L 246.626589 162.518444 
L 246.753456 166.140694 
L 246.880324 165.249034 
L 247.007192 162.295369 
L 247.260927 169.595904 
L 247.514663 160.846554 
L 247.768398 167.924015 
L 247.895266 167.088176 
L 248.149001 174.945866 
L 248.402737 171.936592 
L 248.529605 175.447412 
L 248.656472 175.726095 
L 248.78334 175.113119 
L 248.910208 179.237127 
L 249.037076 179.40438 
L 249.163943 174.444321 
L 249.290811 174.723004 
L 249.417679 176.673577 
L 249.671414 173.106936 
L 249.92515 166.085085 
L 250.178885 176.060601 
L 250.305753 174.110028 
L 250.559488 168.927106 
L 250.813224 174.611573 
L 251.066959 174.555752 
L 251.320695 167.143786 
L 251.57443 173.441229 
L 251.701298 170.710639 
L 251.955034 177.063692 
L 252.208769 167.645544 
L 252.335637 175.16894 
L 252.462505 166.865314 
L 252.589372 167.812584 
L 252.71624 167.422469 
L 252.969975 169.038749 
L 253.223711 160.679302 
L 253.350579 161.682393 
L 253.477446 161.459531 
L 253.604314 159.230274 
L 253.984917 169.707335 
L 254.238653 166.586631 
L 254.492388 175.22455 
L 254.619256 172.716822 
L 254.746124 166.64224 
L 254.999859 170.710639 
L 255.126727 167.868405 
L 255.253595 170.710639 
L 255.380463 176.172032 
L 255.634198 166.029263 
L 255.761066 168.704244 
L 255.887933 167.589722 
L 256.014801 160.233365 
L 256.268537 167.255429 
L 256.522272 160.121934 
L 256.776008 167.645544 
L 256.902875 166.140694 
L 257.029743 166.920924 
L 257.283479 166.140694 
L 257.410346 168.369951 
L 257.537214 168.42556 
L 257.664082 167.311038 
L 257.79095 167.311038 
L 258.044685 166.363768 
L 258.171553 166.530809 
L 258.425288 166.363768 
L 258.552156 166.976745 
L 258.805892 167.032354 
L 258.932759 168.481382 
L 259.059627 167.5339 
L 259.186495 165.137603 
L 259.44023 165.806401 
L 259.567098 167.311038 
L 259.820833 178.568329 
L 259.947701 172.939684 
L 260.201437 159.67621 
L 260.455172 169.094359 
L 260.708908 165.639149 
L 260.835775 166.363768 
L 261.089511 170.877679 
L 261.216379 169.93041 
L 261.343246 167.868405 
L 261.470114 168.592813 
L 261.596982 165.304856 
L 261.72385 158.004321 
L 261.850717 159.843463 
L 261.977585 169.20579 
L 262.104453 170.09745 
L 262.23132 166.085085 
L 262.485056 175.726095 
L 262.611924 175.335981 
L 262.738791 176.562146 
L 262.865659 179.627242 
L 263.119395 172.048023 
L 263.499998 182.413654 
L 263.753733 176.004779 
L 263.880601 175.335981 
L 264.134337 172.661 
L 264.388072 174.555752 
L 264.51494 174.221459 
L 264.641808 174.221459 
L 264.768675 174.555752 
L 264.895543 175.94917 
L 265.022411 175.447412 
L 265.149278 172.549569 
L 265.403014 174.332889 
L 265.656749 166.363768 
L 265.783617 168.035446 
L 266.037353 164.80331 
L 266.291088 167.088176 
L 266.544824 168.035446 
L 266.798559 166.586631 
L 266.925427 169.20579 
L 267.179162 178.568329 
L 267.432898 171.044932 
L 267.559766 174.165849 
L 267.686633 173.106936 
L 267.940369 168.091268 
L 268.067236 169.038749 
L 268.320972 166.530809 
L 268.574707 169.818979 
L 269.082178 162.016898 
L 269.589649 172.438138 
L 269.843385 169.261611 
L 270.09712 180.797586 
L 270.223988 181.577815 
L 270.731459 172.159454 
L 270.858327 172.661 
L 270.985195 173.775735 
L 271.112062 172.884074 
L 271.23893 175.16894 
L 271.492665 183.528176 
L 271.746401 174.723004 
L 272.253872 181.299131 
L 272.38074 181.354741 
L 272.634475 178.958444 
L 273.015078 181.800677 
L 273.141946 181.299131 
L 273.268814 182.302223 
L 273.522549 178.624151 
L 273.649417 179.459989 
L 273.903153 184.642911 
L 274.03002 183.082452 
L 274.283756 177.00787 
L 274.410623 176.729187 
L 274.537491 173.608482 
L 274.664359 173.497051 
L 274.918094 176.952261 
L 275.044962 178.401076 
L 275.298698 174.110028 
L 275.552433 176.84083 
L 275.679301 175.335981 
L 275.933036 181.299131 
L 276.186772 172.716822 
L 276.567375 181.689246 
L 276.947978 174.890257 
L 277.201714 166.252125 
L 277.455449 168.31413 
L 277.582317 167.756975 
L 277.709185 168.927106 
L 277.96292 175.280372 
L 278.216656 179.905925 
L 278.343523 179.682851 
L 278.470391 180.240218 
L 278.850994 187.317785 
L 279.10473 181.577815 
L 279.231598 185.646002 
L 279.358465 184.029721 
L 279.485333 179.738673 
L 279.612201 181.020448 
L 279.865936 186.593378 
L 279.992804 189.212643 
L 280.246539 195.84438 
L 280.373407 194.729751 
L 281.007746 207.603216 
L 281.261481 204.983951 
L 281.515217 205.652643 
L 281.89582 214.569352 
L 282.022688 214.848035 
L 282.276423 208.662022 
L 282.657027 217.801594 
L 282.783894 221.201088 
L 282.910762 220.532396 
L 283.03763 217.801594 
L 284.179439 233.517292 
L 284.433175 224.879267 
L 284.68691 227.554247 
L 284.813778 226.885449 
L 284.940646 158.004321 
L 285.194381 174.611573 
L 285.448117 155.775064 
L 285.701852 161.849646 
L 285.955588 152.319854 
L 286.209323 167.478291 
L 286.336191 166.085085 
L 286.589926 152.598537 
L 286.843662 159.620389 
L 286.97053 158.505866 
L 287.224265 152.264244 
L 287.351133 152.933043 
L 287.478001 152.375675 
L 287.604868 150.536533 
L 287.858604 153.991743 
L 287.985472 151.818308 
L 288.112339 151.762699 
L 288.239207 153.71306 
L 288.366075 153.824703 
L 288.492943 153.65745 
L 288.746678 156.443862 
L 288.873546 155.886495 
L 289.000414 153.044474 
L 289.254149 157.837068 
L 289.381017 155.775064 
L 289.634752 159.286096 
L 289.76162 156.443862 
L 289.888488 157.335522 
L 290.015355 159.286096 
L 290.522826 146.969892 
L 290.776562 155.719455 
L 291.030297 145.576686 
L 291.284033 149.087718 
L 291.537768 146.468346 
L 291.791504 148.196058 
L 292.045239 148.530351 
L 292.172107 148.363098 
L 292.425842 145.966801 
L 292.679578 147.917374 
L 292.806446 147.137145 
L 292.933313 149.756304 
L 293.060181 194.228205 
L 293.187049 193.949628 
L 293.313917 193.28083 
L 293.567652 196.958902 
L 293.69452 196.513072 
L 293.948255 188.878244 
L 294.075123 188.265161 
L 294.455726 194.785467 
L 294.709462 195.119866 
L 294.83633 194.395458 
L 295.090065 200.748511 
L 295.216933 200.246966 
L 295.3438 200.748511 
L 295.470668 202.141717 
L 295.724404 199.522452 
L 295.978139 203.702176 
L 296.358742 194.395458 
L 296.48561 194.506889 
L 296.612478 191.274541 
L 296.739346 192.05477 
L 296.866213 194.395458 
L 296.993081 193.225114 
L 297.119949 193.893806 
L 297.246817 196.29021 
L 297.500552 194.785467 
L 297.754288 195.900095 
L 298.008023 195.398549 
L 298.134891 196.401641 
L 298.261758 194.395458 
L 298.515494 186.481841 
L 298.642362 186.370409 
L 298.769229 186.871955 
L 299.022965 189.156927 
L 299.149833 188.376698 
L 299.2767 188.488129 
L 299.403568 189.602758 
L 299.530436 189.658473 
L 299.784171 187.7079 
L 299.911039 189.101106 
L 300.037907 187.930868 
L 300.164775 188.042299 
L 300.41851 198.240677 
L 300.799113 180.184397 
L 301.052849 189.769904 
L 301.179717 162.295369 
L 301.56032 167.868405 
L 301.687187 167.924015 
L 301.814055 167.589722 
L 301.940923 167.589722 
L 302.067791 168.592813 
L 302.321526 165.026172 
L 302.702129 169.986019 
L 302.955865 173.329798 
L 303.082733 173.719913 
L 303.336468 172.326707 
L 303.590204 174.890257 
L 303.717071 172.828252 
L 303.843939 173.441229 
L 303.970807 176.283463 
L 304.097675 176.506325 
L 304.224542 175.670486 
L 304.35141 176.339284 
L 304.478278 176.060601 
L 304.605145 174.332889 
L 304.732013 174.723004 
L 304.985749 178.847013 
L 305.239484 174.945866 
L 305.49322 183.02663 
L 305.746955 174.555752 
L 305.873823 179.459989 
L 306.000691 179.961535 
L 306.254426 171.156363 
L 306.508162 167.756975 
L 306.761897 176.506325 
L 307.015633 167.5339 
L 307.269368 172.326707 
L 307.396236 168.091268 
L 307.523103 168.592813 
L 307.776839 182.079361 
L 308.030574 172.716822 
L 308.28431 175.726095 
L 308.411178 173.998596 
L 308.538045 174.27728 
L 308.664913 173.497051 
L 308.791781 171.044932 
L 308.918649 171.546478 
L 309.42612 182.9152 
L 309.552987 180.017357 
L 309.679855 180.128787 
L 309.806723 181.131879 
L 309.933591 181.076057 
L 310.187326 185.534571 
L 310.441061 180.407471 
L 310.821665 185.813042 
L 311.0754 174.388711 
L 311.329136 174.054206 
L 311.456003 173.497051 
L 311.582871 174.221459 
L 311.709739 173.998596 
L 311.836607 175.614665 
L 311.963474 179.181306 
L 312.090342 177.73249 
L 312.21721 173.38562 
L 312.344078 174.444321 
L 312.597813 181.020448 
L 312.851549 183.472567 
L 312.978416 182.357832 
L 313.105284 180.072966 
L 313.232152 180.184397 
L 313.35902 182.13497 
L 313.485887 181.633424 
L 313.612755 180.574512 
L 313.739623 182.580906 
L 313.86649 181.521993 
L 314.120226 174.110028 
L 314.500829 180.686155 
L 314.754565 173.608482 
L 315.0083 175.335981 
L 315.262036 172.716822 
L 315.642639 178.67976 
L 315.896374 174.890257 
L 316.023242 175.057509 
L 316.276978 178.066783 
L 316.403845 181.744856 
L 316.530713 180.853195 
L 316.784448 174.611573 
L 317.038184 181.800677 
L 317.165052 182.13497 
L 317.291919 178.847013 
L 317.418787 190.048588 
L 317.545655 190.215734 
L 317.79939 181.131879 
L 317.926258 182.971021 
L 318.053126 186.871955 
L 318.179994 184.977204 
L 318.306861 181.24331 
L 318.560597 189.881335 
L 318.814332 187.540753 
L 319.068068 196.903186 
L 319.321803 197.516269 
L 319.448671 199.633989 
L 319.575539 199.076622 
L 319.829274 194.339637 
L 319.956142 194.897004 
L 320.209877 190.884427 
L 320.463613 195.398549 
L 320.717348 194.228205 
L 320.844216 194.283921 
L 321.097952 194.785467 
L 321.224819 196.401641 
L 321.478555 205.652643 
L 321.73229 197.237585 
L 321.986026 202.197538 
L 322.112894 201.194341 
L 322.366629 210.333912 
L 322.493497 209.776651 
L 322.620364 211.950086 
L 322.747232 211.950086 
L 322.8741 208.494876 
L 323.000968 208.662022 
L 323.127835 210.501165 
L 323.381571 220.420859 
L 323.635306 212.953178 
L 323.889042 217.801594 
L 324.01591 216.296957 
L 324.269645 220.532396 
L 324.396513 219.362052 
L 324.523381 220.643827 
L 324.777116 226.272472 
L 325.157719 214.402205 
L 325.411455 220.810974 
L 325.538322 145.409434 
L 325.66519 146.579778 
L 325.792058 150.034987 
L 326.045793 136.3814 
L 326.299529 144.963709 
L 326.553264 137.551744 
L 326.807 150.592355 
L 326.933868 148.41892 
L 327.187603 136.882946 
L 327.568206 147.025714 
L 327.821942 139.780788 
L 328.075677 142.177298 
L 328.202545 139.279243 
L 328.456281 142.344338 
L 328.583148 137.830427 
L 328.710016 137.774606 
L 328.963751 142.065866 
L 329.090619 140.561017 
L 329.217487 141.787183 
L 329.471222 145.911192 
L 329.59809 144.294911 
L 329.851826 149.756304 
L 329.978693 149.143327 
L 330.232429 153.490198 
L 330.359297 153.155905 
L 330.993635 140.393977 
L 331.120503 140.115294 
L 331.374239 142.511591 
L 331.501106 142.288729 
L 331.627974 140.951132 
L 331.754842 141.731361 
L 331.881709 143.514682 
L 332.262313 138.276151 
L 332.38918 137.718996 
L 332.516048 138.554835 
L 332.642916 138.499013 
L 332.896651 132.14596 
L 333.150387 137.830427 
L 333.404122 132.647506 
L 333.53099 135.656992 
L 333.657858 202.086002 
L 333.784726 203.367776 
L 333.911593 201.305772 
L 334.038461 202.086002 
L 334.165329 203.590745 
L 334.292197 201.52874 
L 334.6728 192.166201 
L 334.799667 190.884427 
L 334.926535 192.834999 
L 335.180271 200.302681 
L 335.434006 196.513072 
L 335.687742 202.977662 
L 335.814609 202.810515 
L 336.068345 197.293301 
L 336.195213 194.451174 
L 336.32208 194.506889 
L 336.575816 197.906384 
L 336.829551 191.943339 
L 336.956419 191.943339 
L 337.210155 188.209446 
L 337.337022 189.992766 
L 337.46389 189.546936 
L 337.590758 186.481841 
L 337.717625 187.7079 
L 337.971361 193.225114 
L 338.098229 193.392261 
L 338.351964 188.59956 
L 338.478832 188.655276 
L 338.732567 194.17249 
L 338.986303 186.871955 
L 339.113171 187.317785 
L 339.240038 186.649093 
L 339.493774 181.800677 
L 339.620642 182.190792 
L 339.874377 184.921382 
L 340.001245 185.980295 
L 340.381848 181.020448 
L 340.508716 182.190792 
L 340.635584 180.964626 
L 340.762451 182.747947 
L 341.016187 196.401641 
L 341.39679 172.661 
L 341.650525 185.59018 
L 341.904261 165.58354 
L 342.031129 166.029263 
L 342.284864 169.540295 
L 342.411732 168.815675 
L 342.5386 167.422469 
L 342.665467 167.589722 
L 342.792335 166.586631 
L 343.046071 160.902164 
L 343.426674 173.497051 
L 343.807277 181.577815 
L 343.934145 180.29604 
L 344.18788 182.636516 
L 344.314748 180.184397 
L 344.441616 180.46308 
L 344.568483 182.525085 
L 344.822219 182.302223 
L 344.949087 183.082452 
L 345.075954 180.797586 
L 345.32969 174.388711 
L 345.456558 175.614665 
L 345.583425 178.010962 
L 345.710293 176.785009 
L 345.837161 174.27728 
L 346.090896 182.302223 
L 346.344632 177.843921 
L 346.4715 181.24331 
L 346.598367 179.515811 
L 346.725235 172.884074 
L 346.852103 172.103845 
L 346.97897 172.215276 
L 347.105838 167.5339 
L 347.232706 168.871497 
L 347.359574 174.834435 
L 347.613309 167.701153 
L 347.867045 174.054206 
L 347.993912 172.772431 
L 348.12078 173.218367 
L 348.374516 183.528176 
L 348.628251 173.273977 
L 348.881987 177.00787 
L 349.389458 167.5339 
L 349.516325 168.592813 
L 349.643193 172.995505 
L 349.770061 171.992414 
L 349.896928 187.039208 
L 350.277532 180.574512 
L 350.404399 181.299131 
L 350.531267 183.249493 
L 350.785003 195.454265 
L 350.91187 191.664655 
L 351.038738 192.834999 
L 351.292474 209.107853 
L 351.419341 210.668311 
L 351.799945 200.692796 
L 351.926812 199.74542 
L 352.180548 200.804227 
L 352.307416 200.414112 
L 352.561151 206.934418 
L 352.814886 201.974571 
L 352.941754 202.866231 
L 353.068622 202.476116 
L 353.19549 200.804227 
L 353.449225 202.420401 
L 353.702961 197.571985 
L 353.829828 198.184961 
L 354.083564 204.259437 
L 354.337299 200.915764 
L 354.464167 201.194341 
L 354.717903 194.785467 
L 354.971638 199.912567 
L 355.098506 199.020906 
L 355.225374 197.237585 
L 355.479109 188.098014 
L 355.732845 189.658473 
L 355.859712 188.15373 
L 355.98658 188.766813 
L 356.240315 193.615229 
L 356.620919 187.930868 
L 356.747786 188.543845 
L 357.001522 194.897004 
L 357.12839 194.562604 
L 357.382125 187.652185 
L 357.889596 194.506889 
L 358.016464 212.172948 
L 358.143332 210.11105 
L 358.397067 197.739131 
L 358.523935 197.683416 
L 358.650803 198.296498 
L 358.77767 197.293301 
L 358.904538 193.893806 
L 359.031406 193.503798 
L 359.158273 196.513072 
L 359.285141 196.345925 
L 359.412009 194.395458 
L 359.538877 195.398549 
L 359.792612 199.912567 
L 360.046348 194.841288 
L 360.173215 196.011526 
L 360.300083 195.621411 
L 360.680686 183.974112 
L 360.807554 183.695428 
L 361.06129 189.212643 
L 361.188157 187.930868 
L 361.441893 188.822528 
L 361.568761 188.710991 
L 361.949364 195.677233 
L 362.076231 196.011526 
L 362.203099 195.732948 
L 362.456835 192.444885 
L 362.583702 192.612032 
L 362.71057 192.556316 
L 362.837438 194.952719 
L 363.091173 203.033377 
L 363.344909 202.531832 
L 363.471777 202.7548 
L 363.725512 199.132337 
L 363.979248 207.436069 
L 364.106115 205.708464 
L 364.359851 211.838655 
L 364.613586 208.606307 
L 364.867322 215.461012 
L 364.994189 214.959466 
L 365.247925 213.56626 
L 365.374793 216.631356 
L 365.50166 215.572443 
L 365.628528 210.612596 
L 365.755396 213.064715 
L 365.882264 219.473483 
L 366.009131 217.578732 
L 366.135999 120.665807 
L 366.262867 117.210598 
L 366.389735 128.858003 
L 366.516602 126.90743 
L 366.64347 113.03098 
L 366.770338 111.470521 
L 366.897206 116.430368 
L 367.150941 110.690292 
L 367.404677 122.50495 
L 367.531544 122.059014 
L 367.78528 112.529434 
L 368.165883 122.839243 
L 368.292751 119.662716 
L 368.546486 111.303268 
L 368.673354 112.975158 
L 369.307693 98.095617 
L 369.561428 108.293995 
L 369.815164 105.563192 
L 370.068899 107.17926 
L 370.195767 103.891303 
L 370.449502 113.866818 
L 370.57637 112.640865 
L 370.703238 111.191838 
L 370.956973 114.981341 
L 371.210709 113.643956 
L 371.337576 114.034071 
L 371.464444 113.699566 
L 371.71818 104.615923 
L 371.971915 114.201323 
L 372.225651 112.139319 
L 372.352518 113.866818 
L 372.606254 111.581952 
L 372.859989 113.811209 
L 372.986857 111.191838 
L 373.113725 111.080407 
L 373.240593 114.08968 
L 373.36746 113.253842 
L 373.494328 106.733536 
L 373.621196 106.064738 
L 373.748064 112.083498 
L 373.874931 110.46743 
L 374.001799 105.786054 
L 374.128667 111.191838 
L 374.255534 184.754342 
L 374.382402 185.646002 
L 374.636138 188.655276 
L 375.016741 186.649093 
L 375.397344 177.620847 
L 375.524212 180.46308 
L 375.904815 194.952719 
L 376.031683 194.729751 
L 376.412286 202.587547 
L 376.539154 202.30897 
L 376.666022 202.197538 
L 376.919757 204.816804 
L 377.046625 204.760982 
L 377.427228 201.863139 
L 377.554096 201.974571 
L 377.680963 201.751603 
L 377.807831 201.807424 
L 378.061567 207.268817 
L 378.188434 205.151097 
L 378.44217 212.340201 
L 378.569038 211.448541 
L 378.695905 209.720936 
L 378.949641 212.061517 
L 379.076509 212.005802 
L 379.330244 213.844838 
L 379.710847 207.10167 
L 379.837715 207.045955 
L 379.964583 205.151097 
L 380.218318 205.151097 
L 380.345186 207.157386 
L 380.472054 211.727118 
L 380.725789 212.22877 
L 380.852657 214.513636 
L 381.106392 207.10167 
L 381.23326 208.160477 
L 381.360128 211.727118 
L 381.613863 226.495334 
L 381.740731 223.318808 
L 381.994467 207.770362 
L 382.248202 217.857415 
L 382.37507 172.103845 
L 382.501938 169.818979 
L 383.009409 179.738673 
L 383.263144 186.314588 
L 383.643747 178.958444 
L 383.770615 179.237127 
L 384.02435 182.9152 
L 384.151218 180.240218 
L 384.404954 181.800677 
L 384.531821 180.46308 
L 384.785557 184.642911 
L 384.912425 179.627242 
L 385.039292 179.738673 
L 385.293028 183.639607 
L 385.419896 184.865772 
L 385.546763 184.252796 
L 385.800499 178.624151 
L 385.927367 181.354741 
L 386.054234 181.689246 
L 386.181102 181.076057 
L 386.30797 181.020448 
L 386.434837 180.46308 
L 386.561705 182.469475 
L 386.815441 191.887624 
L 387.196044 184.977204 
L 387.449779 177.00787 
L 387.576647 176.060601 
L 387.703515 177.453807 
L 387.95725 182.246401 
L 388.210986 181.076057 
L 388.464721 177.89953 
L 388.718457 182.9152 
L 388.972192 193.503798 
L 389.225928 187.7079 
L 389.479663 190.048588 
L 389.733399 183.361135 
L 390.114002 179.515811 
L 390.367737 182.85959 
L 390.494605 203.089199 
L 390.621473 201.918855 
L 390.875208 196.680325 
L 391.002076 195.398549 
L 391.128944 197.460554 
L 391.382679 207.157386 
L 391.636415 183.249493 
L 391.763283 182.246401 
L 391.89015 184.69852 
L 392.017018 183.583998 
L 392.270753 173.106936 
L 392.397621 172.995505 
L 392.651357 171.212185 
L 393.03196 174.778826 
L 393.285695 181.076057 
L 393.412563 177.453807 
L 393.539431 178.178214 
L 393.666299 180.240218 
L 393.793166 179.292736 
L 394.046902 183.75125 
L 394.300637 174.611573 
L 394.554373 182.079361 
L 394.808108 181.466172 
L 394.934976 182.357832 
L 395.061844 179.181306 
L 395.315579 170.933501 
L 395.569315 174.945866 
L 395.696182 176.11621 
L 395.82305 175.391802 
L 396.076786 168.592813 
L 396.203653 171.880771 
L 396.457389 166.753671 
L 396.711124 175.559055 
L 396.96486 173.831344 
L 397.218595 175.94917 
L 397.472331 175.447412 
L 397.726066 180.964626 
L 397.979802 174.110028 
L 398.233537 182.357832 
L 398.360405 180.630333 
L 398.487273 181.354741 
L 398.487273 181.354741 
" clip-path="url(#p6591bac235)" style="fill: none; stroke: #1f77b4; stroke-width: 1.5; stroke-linecap: square"/>
   </g>
   <g id="patch_3">
    <path d="M 57.6 307.584 
L 57.6 41.472 
" style="fill: none; stroke: #000000; stroke-width: 0.8; stroke-linejoin: miter; stroke-linecap: square"/>
   </g>
   <g id="patch_4">
    <path d="M 414.72 307.584 
L 414.72 41.472 
" style="fill: none; stroke: #000000; stroke-width: 0.8; stroke-linejoin: miter; stroke-linecap: square"/>
   </g>
   <g id="patch_5">
    <path d="M 57.6 307.584 
L 414.72 307.584 
" style="fill: none; stroke: #000000; stroke-width: 0.8; stroke-linejoin: miter; stroke-linecap: square"/>
   </g>
   <g id="patch_6">
    <path d="M 57.6 41.472 
L 414.72 41.472 
" style="fill: none; stroke: #000000; stroke-width: 0.8; stroke-linejoin: miter; stroke-linecap: square"/>
   </g>
   <g id="legend_1">
    <g id="patch_7">
     <path d="M 354.074688 64.150125 
L 407.72 64.150125 
Q 409.72 64.150125 409.72 62.150125 
L 409.72 48.472 
Q 409.72 46.472 407.72 46.472 
L 354.074688 46.472 
Q 352.074688 46.472 352.074688 48.472 
L 352.074688 62.150125 
Q 352.074688 64.150125 354.074688 64.150125 
z
" style="fill: #ffffff; opacity: 0.8; stroke: #cccccc; stroke-linejoin: miter"/>
    </g>
    <g id="line2d_14">
     <path d="M 356.074688 54.570438 
L 366.074688 54.570438 
L 376.074688 54.570438 
" style="fill: none; stroke: #1f77b4; stroke-width: 1.5; stroke-linecap: square"/>
    </g>
    <g id="text_13">
     <!-- set1 -->
     <g transform="translate(384.074688 58.070438)scale(0.1 -0.1)">
      <defs>
       <path id="DejaVuSans-73" d="M 2834 3397 
L 2834 2853 
Q 2591 2978 2328 3040 
Q 2066 3103 1784 3103 
Q 1356 3103 1142 2972 
Q 928 2841 928 2578 
Q 928 2378 1081 2264 
Q 1234 2150 1697 2047 
L 1894 2003 
Q 2506 1872 2764 1633 
Q 3022 1394 3022 966 
Q 3022 478 2636 193 
Q 2250 -91 1575 -91 
Q 1294 -91 989 -36 
Q 684 19 347 128 
L 347 722 
Q 666 556 975 473 
Q 1284 391 1588 391 
Q 1994 391 2212 530 
Q 2431 669 2431 922 
Q 2431 1156 2273 1281 
Q 2116 1406 1581 1522 
L 1381 1569 
Q 847 1681 609 1914 
Q 372 2147 372 2553 
Q 372 3047 722 3315 
Q 1072 3584 1716 3584 
Q 2034 3584 2315 3537 
Q 2597 3491 2834 3397 
z
" transform="scale(0.015625)"/>
       <path id="DejaVuSans-65" d="M 3597 1894 
L 3597 1613 
L 953 1613 
Q 991 1019 1311 708 
Q 1631 397 2203 397 
Q 2534 397 2845 478 
Q 3156 559 3463 722 
L 3463 178 
Q 3153 47 2828 -22 
Q 2503 -91 2169 -91 
Q 1331 -91 842 396 
Q 353 884 353 1716 
Q 353 2575 817 3079 
Q 1281 3584 2069 3584 
Q 2775 3584 3186 3129 
Q 3597 2675 3597 1894 
z
M 3022 2063 
Q 3016 2534 2758 2815 
Q 2500 3097 2075 3097 
Q 1594 3097 1305 2825 
Q 1016 2553 972 2059 
L 3022 2063 
z
" transform="scale(0.015625)"/>
       <path id="DejaVuSans-74" d="M 1172 4494 
L 1172 3500 
L 2356 3500 
L 2356 3053 
L 1172 3053 
L 1172 1153 
Q 1172 725 1289 603 
Q 1406 481 1766 481 
L 2356 481 
L 2356 0 
L 1766 0 
Q 1100 0 847 248 
Q 594 497 594 1153 
L 594 3053 
L 172 3053 
L 172 3500 
L 594 3500 
L 594 4494 
L 1172 4494 
z
" transform="scale(0.015625)"/>
      </defs>
      <use xlink:href="#DejaVuSans-73"/>
      <use xlink:href="#DejaVuSans-65" x="52.099609"/>
      <use xlink:href="#DejaVuSans-74" x="113.623047"/>
      <use xlink:href="#DejaVuSans-31" x="152.832031"/>
     </g>
    </g>
   </g>
  </g>
 </g>
 <defs>
  <clipPath id="p6591bac235">
   <rect x="57.6" y="41.472" width="357.12" height="266.112"/>
  </clipPath>
 </defs>
</svg>
