<?xml version="1.0" encoding="utf-8" standalone="no"?>
<!DOCTYPE svg PUBLIC "-//W3C//DTD SVG 1.1//EN"
  "http://www.w3.org/Graphics/SVG/1.1/DTD/svg11.dtd">
<svg xmlns:xlink="http://www.w3.org/1999/xlink" width="460.8pt" height="345.6pt" viewBox="0 0 460.8 345.6" xmlns="http://www.w3.org/2000/svg" version="1.1">
 <metadata>
  <rdf:RDF xmlns:dc="http://purl.org/dc/elements/1.1/" xmlns:cc="http://creativecommons.org/ns#" xmlns:rdf="http://www.w3.org/1999/02/22-rdf-syntax-ns#">
   <cc:Work>
    <dc:type rdf:resource="http://purl.org/dc/dcmitype/StillImage"/>
    <dc:date>2022-08-11T15:17:16.684687</dc:date>
    <dc:format>image/svg+xml</dc:format>
    <dc:creator>
     <cc:Agent>
      <dc:title>Matplotlib v3.5.2, https://matplotlib.org/</dc:title>
     </cc:Agent>
    </dc:creator>
   </cc:Work>
  </rdf:RDF>
 </metadata>
 <defs>
  <style type="text/css">*{stroke-linejoin: round; stroke-linecap: butt}</style>
 </defs>
 <g id="figure_1">
  <g id="patch_1">
   <path d="M 0 345.6 
L 460.8 345.6 
L 460.8 0 
L 0 0 
z
" style="fill: #ffffff"/>
  </g>
  <g id="axes_1">
   <g id="patch_2">
    <path d="M 57.6 307.584 
L 414.72 307.584 
L 414.72 41.472 
L 57.6 41.472 
z
" style="fill: #ffffff"/>
   </g>
   <g id="matplotlib.axis_1">
    <g id="xtick_1">
     <g id="line2d_1">
      <defs>
       <path id="mf21c804249" d="M 0 0 
L 0 3.5 
" style="stroke: #000000; stroke-width: 0.8"/>
      </defs>
      <g>
       <use xlink:href="#mf21c804249" x="73.832727" y="307.584" style="stroke: #000000; stroke-width: 0.8"/>
      </g>
     </g>
     <g id="text_1">
      <!-- 0 -->
      <g transform="translate(70.651477 322.182437)scale(0.1 -0.1)">
       <defs>
        <path id="DejaVuSans-30" d="M 2034 4250 
Q 1547 4250 1301 3770 
Q 1056 3291 1056 2328 
Q 1056 1369 1301 889 
Q 1547 409 2034 409 
Q 2525 409 2770 889 
Q 3016 1369 3016 2328 
Q 3016 3291 2770 3770 
Q 2525 4250 2034 4250 
z
M 2034 4750 
Q 2819 4750 3233 4129 
Q 3647 3509 3647 2328 
Q 3647 1150 3233 529 
Q 2819 -91 2034 -91 
Q 1250 -91 836 529 
Q 422 1150 422 2328 
Q 422 3509 836 4129 
Q 1250 4750 2034 4750 
z
" transform="scale(0.015625)"/>
       </defs>
       <use xlink:href="#DejaVuSans-30"/>
      </g>
     </g>
    </g>
    <g id="xtick_2">
     <g id="line2d_2">
      <g>
       <use xlink:href="#mf21c804249" x="137.266597" y="307.584" style="stroke: #000000; stroke-width: 0.8"/>
      </g>
     </g>
     <g id="text_2">
      <!-- 500 -->
      <g transform="translate(127.722847 322.182437)scale(0.1 -0.1)">
       <defs>
        <path id="DejaVuSans-35" d="M 691 4666 
L 3169 4666 
L 3169 4134 
L 1269 4134 
L 1269 2991 
Q 1406 3038 1543 3061 
Q 1681 3084 1819 3084 
Q 2600 3084 3056 2656 
Q 3513 2228 3513 1497 
Q 3513 744 3044 326 
Q 2575 -91 1722 -91 
Q 1428 -91 1123 -41 
Q 819 9 494 109 
L 494 744 
Q 775 591 1075 516 
Q 1375 441 1709 441 
Q 2250 441 2565 725 
Q 2881 1009 2881 1497 
Q 2881 1984 2565 2268 
Q 2250 2553 1709 2553 
Q 1456 2553 1204 2497 
Q 953 2441 691 2322 
L 691 4666 
z
" transform="scale(0.015625)"/>
       </defs>
       <use xlink:href="#DejaVuSans-35"/>
       <use xlink:href="#DejaVuSans-30" x="63.623047"/>
       <use xlink:href="#DejaVuSans-30" x="127.246094"/>
      </g>
     </g>
    </g>
    <g id="xtick_3">
     <g id="line2d_3">
      <g>
       <use xlink:href="#mf21c804249" x="200.700467" y="307.584" style="stroke: #000000; stroke-width: 0.8"/>
      </g>
     </g>
     <g id="text_3">
      <!-- 1000 -->
      <g transform="translate(187.975467 322.182437)scale(0.1 -0.1)">
       <defs>
        <path id="DejaVuSans-31" d="M 794 531 
L 1825 531 
L 1825 4091 
L 703 3866 
L 703 4441 
L 1819 4666 
L 2450 4666 
L 2450 531 
L 3481 531 
L 3481 0 
L 794 0 
L 794 531 
z
" transform="scale(0.015625)"/>
       </defs>
       <use xlink:href="#DejaVuSans-31"/>
       <use xlink:href="#DejaVuSans-30" x="63.623047"/>
       <use xlink:href="#DejaVuSans-30" x="127.246094"/>
       <use xlink:href="#DejaVuSans-30" x="190.869141"/>
      </g>
     </g>
    </g>
    <g id="xtick_4">
     <g id="line2d_4">
      <g>
       <use xlink:href="#mf21c804249" x="264.134337" y="307.584" style="stroke: #000000; stroke-width: 0.8"/>
      </g>
     </g>
     <g id="text_4">
      <!-- 1500 -->
      <g transform="translate(251.409337 322.182437)scale(0.1 -0.1)">
       <use xlink:href="#DejaVuSans-31"/>
       <use xlink:href="#DejaVuSans-35" x="63.623047"/>
       <use xlink:href="#DejaVuSans-30" x="127.246094"/>
       <use xlink:href="#DejaVuSans-30" x="190.869141"/>
      </g>
     </g>
    </g>
    <g id="xtick_5">
     <g id="line2d_5">
      <g>
       <use xlink:href="#mf21c804249" x="327.568206" y="307.584" style="stroke: #000000; stroke-width: 0.8"/>
      </g>
     </g>
     <g id="text_5">
      <!-- 2000 -->
      <g transform="translate(314.843206 322.182437)scale(0.1 -0.1)">
       <defs>
        <path id="DejaVuSans-32" d="M 1228 531 
L 3431 531 
L 3431 0 
L 469 0 
L 469 531 
Q 828 903 1448 1529 
Q 2069 2156 2228 2338 
Q 2531 2678 2651 2914 
Q 2772 3150 2772 3378 
Q 2772 3750 2511 3984 
Q 2250 4219 1831 4219 
Q 1534 4219 1204 4116 
Q 875 4013 500 3803 
L 500 4441 
Q 881 4594 1212 4672 
Q 1544 4750 1819 4750 
Q 2544 4750 2975 4387 
Q 3406 4025 3406 3419 
Q 3406 3131 3298 2873 
Q 3191 2616 2906 2266 
Q 2828 2175 2409 1742 
Q 1991 1309 1228 531 
z
" transform="scale(0.015625)"/>
       </defs>
       <use xlink:href="#DejaVuSans-32"/>
       <use xlink:href="#DejaVuSans-30" x="63.623047"/>
       <use xlink:href="#DejaVuSans-30" x="127.246094"/>
       <use xlink:href="#DejaVuSans-30" x="190.869141"/>
      </g>
     </g>
    </g>
    <g id="xtick_6">
     <g id="line2d_6">
      <g>
       <use xlink:href="#mf21c804249" x="391.002076" y="307.584" style="stroke: #000000; stroke-width: 0.8"/>
      </g>
     </g>
     <g id="text_6">
      <!-- 2500 -->
      <g transform="translate(378.277076 322.182437)scale(0.1 -0.1)">
       <use xlink:href="#DejaVuSans-32"/>
       <use xlink:href="#DejaVuSans-35" x="63.623047"/>
       <use xlink:href="#DejaVuSans-30" x="127.246094"/>
       <use xlink:href="#DejaVuSans-30" x="190.869141"/>
      </g>
     </g>
    </g>
   </g>
   <g id="matplotlib.axis_2">
    <g id="ytick_1">
     <g id="line2d_7">
      <defs>
       <path id="m9212bbc571" d="M 0 0 
L -3.5 0 
" style="stroke: #000000; stroke-width: 0.8"/>
      </defs>
      <g>
       <use xlink:href="#m9212bbc571" x="57.6" y="300.798258" style="stroke: #000000; stroke-width: 0.8"/>
      </g>
     </g>
     <g id="text_7">
      <!-- 4000 -->
      <g transform="translate(25.15 304.597477)scale(0.1 -0.1)">
       <defs>
        <path id="DejaVuSans-34" d="M 2419 4116 
L 825 1625 
L 2419 1625 
L 2419 4116 
z
M 2253 4666 
L 3047 4666 
L 3047 1625 
L 3713 1625 
L 3713 1100 
L 3047 1100 
L 3047 0 
L 2419 0 
L 2419 1100 
L 313 1100 
L 313 1709 
L 2253 4666 
z
" transform="scale(0.015625)"/>
       </defs>
       <use xlink:href="#DejaVuSans-34"/>
       <use xlink:href="#DejaVuSans-30" x="63.623047"/>
       <use xlink:href="#DejaVuSans-30" x="127.246094"/>
       <use xlink:href="#DejaVuSans-30" x="190.869141"/>
      </g>
     </g>
    </g>
    <g id="ytick_2">
     <g id="line2d_8">
      <g>
       <use xlink:href="#m9212bbc571" x="57.6" y="252.636489" style="stroke: #000000; stroke-width: 0.8"/>
      </g>
     </g>
     <g id="text_8">
      <!-- 4050 -->
      <g transform="translate(25.15 256.435708)scale(0.1 -0.1)">
       <use xlink:href="#DejaVuSans-34"/>
       <use xlink:href="#DejaVuSans-30" x="63.623047"/>
       <use xlink:href="#DejaVuSans-35" x="127.246094"/>
       <use xlink:href="#DejaVuSans-30" x="190.869141"/>
      </g>
     </g>
    </g>
    <g id="ytick_3">
     <g id="line2d_9">
      <g>
       <use xlink:href="#m9212bbc571" x="57.6" y="204.47472" style="stroke: #000000; stroke-width: 0.8"/>
      </g>
     </g>
     <g id="text_9">
      <!-- 4100 -->
      <g transform="translate(25.15 208.273939)scale(0.1 -0.1)">
       <use xlink:href="#DejaVuSans-34"/>
       <use xlink:href="#DejaVuSans-31" x="63.623047"/>
       <use xlink:href="#DejaVuSans-30" x="127.246094"/>
       <use xlink:href="#DejaVuSans-30" x="190.869141"/>
      </g>
     </g>
    </g>
    <g id="ytick_4">
     <g id="line2d_10">
      <g>
       <use xlink:href="#m9212bbc571" x="57.6" y="156.312951" style="stroke: #000000; stroke-width: 0.8"/>
      </g>
     </g>
     <g id="text_10">
      <!-- 4150 -->
      <g transform="translate(25.15 160.112169)scale(0.1 -0.1)">
       <use xlink:href="#DejaVuSans-34"/>
       <use xlink:href="#DejaVuSans-31" x="63.623047"/>
       <use xlink:href="#DejaVuSans-35" x="127.246094"/>
       <use xlink:href="#DejaVuSans-30" x="190.869141"/>
      </g>
     </g>
    </g>
    <g id="ytick_5">
     <g id="line2d_11">
      <g>
       <use xlink:href="#m9212bbc571" x="57.6" y="108.151182" style="stroke: #000000; stroke-width: 0.8"/>
      </g>
     </g>
     <g id="text_11">
      <!-- 4200 -->
      <g transform="translate(25.15 111.9504)scale(0.1 -0.1)">
       <use xlink:href="#DejaVuSans-34"/>
       <use xlink:href="#DejaVuSans-32" x="63.623047"/>
       <use xlink:href="#DejaVuSans-30" x="127.246094"/>
       <use xlink:href="#DejaVuSans-30" x="190.869141"/>
      </g>
     </g>
    </g>
    <g id="ytick_6">
     <g id="line2d_12">
      <g>
       <use xlink:href="#m9212bbc571" x="57.6" y="59.989413" style="stroke: #000000; stroke-width: 0.8"/>
      </g>
     </g>
     <g id="text_12">
      <!-- 4250 -->
      <g transform="translate(25.15 63.788631)scale(0.1 -0.1)">
       <use xlink:href="#DejaVuSans-34"/>
       <use xlink:href="#DejaVuSans-32" x="63.623047"/>
       <use xlink:href="#DejaVuSans-35" x="127.246094"/>
       <use xlink:href="#DejaVuSans-30" x="190.869141"/>
      </g>
     </g>
    </g>
   </g>
   <g id="line2d_13">
    <path d="M 73.832727 142.358266 
L 74.086463 170.143939 
L 74.21333 169.156246 
L 74.340198 164.957142 
L 74.593934 183.728003 
L 74.720801 176.318428 
L 74.847669 161.869897 
L 74.974537 165.698381 
L 75.228272 178.911826 
L 75.35514 177.182894 
L 75.608876 166.686074 
L 75.735743 167.797464 
L 75.862611 170.143939 
L 76.116347 165.451459 
L 76.243214 168.785626 
L 76.370082 176.195201 
L 76.49695 176.93597 
L 76.750685 158.288807 
L 77.004421 166.43915 
L 77.258156 164.586992 
L 77.385024 164.340069 
L 77.511892 163.598829 
L 78.019363 183.604777 
L 78.14623 177.429817 
L 78.273098 163.228679 
L 78.399966 163.722526 
L 78.526834 168.785626 
L 78.780569 152.855086 
L 79.034305 169.526395 
L 79.161172 167.056694 
L 79.414908 172.61364 
L 79.668643 163.351906 
L 79.795511 161.74667 
L 80.176114 168.785626 
L 80.42985 166.562847 
L 80.556717 167.056694 
L 80.810453 165.451459 
L 81.064188 172.61364 
L 81.191056 170.390861 
L 81.317924 164.463296 
L 81.571659 171.255327 
L 81.825395 163.598829 
L 81.952263 211.143291 
L 82.07913 206.079955 
L 82.205998 208.673354 
L 82.459734 224.727355 
L 82.586601 216.453314 
L 82.713469 215.959468 
L 82.967205 230.901844 
L 83.22094 218.429169 
L 83.474675 231.642849 
L 83.601543 230.778383 
L 83.855279 254.365421 
L 83.982146 248.190696 
L 84.109014 230.654921 
L 84.235882 232.013469 
L 84.36275 239.052424 
L 84.489617 235.471098 
L 84.616485 235.59456 
L 84.870221 247.202769 
L 84.997088 240.904818 
L 85.123956 243.498216 
L 85.377692 260.416449 
L 85.504559 255.970657 
L 85.758295 258.317132 
L 85.885163 256.341276 
L 86.138898 267.579101 
L 86.392633 276.47045 
L 86.519501 270.048802 
L 86.646369 269.43126 
L 86.773237 274.371133 
L 86.900104 274.000513 
L 87.15384 275.852907 
L 87.280708 269.060875 
L 87.407575 271.407115 
L 87.534443 281.780474 
L 87.661311 279.681156 
L 87.788179 269.184336 
L 87.915046 271.654273 
L 88.041914 281.780474 
L 88.168782 281.780474 
L 88.549385 255.229887 
L 88.676253 257.205742 
L 88.803121 255.353349 
L 88.929988 250.04309 
L 89.056856 249.425783 
L 89.183724 256.341276 
L 89.310591 254.612345 
L 89.437459 246.462 
L 89.564327 246.585461 
L 89.691195 250.166552 
L 89.818062 248.561316 
L 89.94493 250.166552 
L 90.071798 161.499748 
L 90.325533 172.366717 
L 90.452401 173.601802 
L 90.579269 179.282446 
L 90.706137 178.294283 
L 90.833004 175.701355 
L 91.08674 185.950782 
L 91.213608 184.716166 
L 91.467343 186.074478 
L 91.721079 177.553514 
L 91.974814 183.357853 
L 92.609153 168.415006 
L 92.862888 184.469243 
L 93.116624 173.725499 
L 93.243491 167.303617 
L 93.497227 175.330735 
L 93.750962 168.909322 
L 94.131566 171.379024 
L 94.385301 166.686074 
L 94.512169 170.267635 
L 94.639037 165.204535 
L 94.765904 153.843249 
L 95.01964 167.180391 
L 95.273375 148.903375 
L 95.400243 150.632308 
L 95.527111 146.92752 
L 95.653978 135.689931 
L 95.780846 137.912709 
L 95.907714 150.014765 
L 96.034582 145.939827 
L 96.161449 133.220229 
L 96.288317 139.147795 
L 96.415185 152.855086 
L 96.542053 151.373077 
L 96.66892 152.73186 
L 96.922656 169.526395 
L 97.049524 165.821608 
L 97.176391 170.143939 
L 97.303259 163.598829 
L 97.430127 146.5569 
L 97.556995 146.063054 
L 97.683862 155.94233 
L 97.81073 155.077864 
L 98.064466 138.777175 
L 98.191333 61.471421 
L 98.318201 77.278264 
L 98.571936 61.718345 
L 98.698804 74.931789 
L 98.825672 73.944097 
L 98.95254 53.568 
L 99.079407 58.137253 
L 99.206275 75.302409 
L 99.333143 71.350699 
L 99.460011 61.718345 
L 99.586878 65.793752 
L 99.713746 74.684867 
L 99.967482 62.459114 
L 100.094349 64.558666 
L 100.221217 67.398988 
L 100.474953 79.871663 
L 100.60182 76.290102 
L 100.855556 96.666669 
L 101.109291 81.970744 
L 101.363027 100.000837 
L 101.489894 104.446394 
L 101.74363 124.946187 
L 101.870498 121.611549 
L 101.997365 123.093558 
L 102.377969 151.496774 
L 102.504836 135.813157 
L 102.631704 138.530252 
L 102.88544 164.710218 
L 103.139175 177.800437 
L 103.392911 162.240517 
L 103.646646 186.445099 
L 103.773514 178.7886 
L 103.900382 183.357853 
L 104.027249 192.990207 
L 104.154117 192.248967 
L 104.280985 198.176534 
L 104.53472 230.53146 
L 104.661588 230.407998 
L 104.915323 240.904818 
L 105.042191 236.335564 
L 105.169059 239.052424 
L 105.422794 252.266105 
L 105.549662 250.290249 
L 105.803398 236.953108 
L 106.057133 275.605984 
L 106.184001 255.229887 
L 106.310869 183.604777 
L 106.564604 194.718669 
L 106.81834 190.149886 
L 107.072075 195.830529 
L 107.325811 181.381998 
L 107.452678 183.48108 
L 107.579546 183.234156 
L 107.833281 199.658543 
L 108.087017 179.529369 
L 108.340752 192.742813 
L 108.594488 199.534846 
L 108.721356 198.547153 
L 108.848223 198.917773 
L 108.975091 201.263778 
L 109.228827 183.604777 
L 109.482562 201.510702 
L 109.60943 185.456936 
L 109.736298 187.062171 
L 109.990033 207.315041 
L 110.116901 207.932585 
L 110.497504 194.966063 
L 110.624372 191.631425 
L 110.751239 192.990207 
L 111.004975 212.748761 
L 111.131843 210.896367 
L 111.385578 214.230535 
L 111.512446 215.095001 
L 111.639314 218.429169 
L 111.893049 186.198175 
L 112.019917 188.050333 
L 112.146785 201.510702 
L 112.273652 200.523009 
L 112.40052 195.089289 
L 112.527388 200.399312 
L 112.654256 200.399312 
L 112.781123 197.92961 
L 113.034859 220.281563 
L 113.288594 212.131218 
L 113.415462 214.353997 
L 113.54233 211.884295 
L 113.669197 212.254679 
L 113.796065 213.983612 
L 113.922933 212.131218 
L 114.176668 214.477458 
L 114.303536 213.242607 
L 114.430404 160.388358 
L 115.19161 191.755121 
L 115.445346 180.146912 
L 115.572214 180.393835 
L 115.699081 179.776292 
L 115.952817 184.345546 
L 116.33342 167.55054 
L 116.460288 167.55054 
L 116.587155 167.427313 
L 116.714023 169.279472 
L 116.840891 168.168083 
L 116.967759 163.969449 
L 117.221494 167.180391 
L 117.47523 156.312951 
L 117.602097 160.017738 
L 117.728965 152.114316 
L 117.855833 153.225706 
L 117.982701 162.981287 
L 118.236436 154.213398 
L 118.490172 171.008405 
L 118.997643 153.596325 
L 119.12451 158.535729 
L 119.378246 154.584018 
L 119.631981 167.303617 
L 119.885717 172.61364 
L 120.26632 162.117291 
L 120.393188 157.42434 
L 120.520055 160.017738 
L 120.646923 165.327762 
L 120.773791 163.969449 
L 120.900659 165.080838 
L 121.027526 168.044856 
L 121.154394 167.92116 
L 121.281262 166.933467 
L 121.40813 164.833915 
L 121.661865 178.911826 
L 121.788733 174.960116 
L 121.915601 166.686074 
L 122.042468 168.909322 
L 122.296204 180.146912 
L 122.423072 180.270138 
L 122.549939 224.35697 
L 122.676807 224.480432 
L 122.803675 227.567676 
L 123.05741 243.004135 
L 123.184278 235.100714 
L 123.311146 235.59456 
L 123.438013 244.486144 
L 123.564881 244.486144 
L 123.691749 240.534198 
L 124.19922 245.844456 
L 124.579823 265.726707 
L 124.706691 256.711661 
L 124.833559 256.5882 
L 124.960426 259.922603 
L 125.087294 255.600272 
L 125.214162 257.699589 
L 125.467897 270.295726 
L 125.594765 268.443332 
L 125.721633 272.518739 
L 125.8485 280.422161 
L 126.102236 276.964297 
L 126.229104 282.768401 
L 126.355971 280.545622 
L 126.482839 272.024658 
L 126.736575 285.855646 
L 126.863442 283.262483 
L 126.99031 280.916008 
L 127.117178 281.780474 
L 127.244046 280.422161 
L 127.624649 289.436972 
L 127.751517 287.584578 
L 128.005252 276.47045 
L 128.258988 295.488 
L 128.385855 284.126949 
L 128.512723 284.126949 
L 128.639591 292.771375 
L 128.893326 274.247437 
L 129.020194 278.322844 
L 129.273929 270.913269 
L 129.400797 272.889124 
L 129.654533 268.567028 
L 129.7814 273.383205 
L 129.908268 272.271581 
L 130.162004 265.603011 
L 130.288871 267.08502 
L 130.542607 274.371133 
L 130.669475 179.158749 
L 130.92321 184.963089 
L 131.176946 191.261275 
L 131.303813 187.679714 
L 131.430681 190.520035 
L 131.557549 197.065144 
L 131.684416 196.941918 
L 131.811284 197.92961 
L 131.938152 200.399312 
L 132.06502 198.547153 
L 132.445623 182.74031 
L 132.572491 183.11046 
L 132.953094 169.403169 
L 133.079962 169.403169 
L 133.333697 164.833915 
L 133.460565 167.056694 
L 133.587433 164.710218 
L 133.841168 153.47263 
L 133.968036 153.47263 
L 134.094904 155.201561 
L 134.475507 152.36124 
L 134.602375 152.73186 
L 134.729242 152.484937 
L 134.85611 151.496774 
L 134.982978 152.73186 
L 135.109845 152.73186 
L 135.363581 135.319311 
L 135.617316 137.418863 
L 135.744184 136.80132 
L 135.871052 138.406555 
L 135.99792 134.084225 
L 136.251655 124.081721 
L 136.378523 125.56373 
L 136.632258 118.771698 
L 136.759126 115.80768 
L 137.139729 122.105866 
L 137.520333 136.924546 
L 137.6472 135.072387 
L 137.900936 141.246877 
L 138.154671 132.972836 
L 138.408407 136.677623 
L 138.535274 133.343456 
L 138.662142 133.714075 
L 138.78901 90.244786 
L 138.915878 95.431583 
L 139.169613 87.034315 
L 139.296481 89.997864 
L 139.677084 71.350699 
L 139.803952 76.290102 
L 139.93082 75.426106 
L 140.184555 66.163902 
L 140.311423 64.06482 
L 140.438291 64.434969 
L 140.818894 76.413799 
L 140.945761 75.796255 
L 141.199497 83.329528 
L 141.453232 100.370987 
L 141.5801 97.778058 
L 141.706968 100.618379 
L 141.960703 108.645028 
L 142.087571 112.473513 
L 142.341307 126.3045 
L 142.468174 126.67512 
L 142.72191 138.406555 
L 142.848778 142.23504 
L 143.102513 151.743697 
L 143.229381 152.36124 
L 143.736852 184.839392 
L 143.863719 181.505225 
L 143.990587 182.863537 
L 144.244323 198.794077 
L 144.37119 195.830529 
L 144.498058 195.706832 
L 144.751794 214.601155 
L 144.878661 213.736689 
L 145.259265 241.522126 
L 145.386132 239.54627 
L 145.513 242.386592 
L 145.639868 241.151741 
L 145.766736 238.187958 
L 146.020471 253.377493 
L 146.147339 251.031018 
L 146.401074 239.422809 
L 146.65481 260.046064 
L 146.781678 254.859267 
L 146.908545 194.842366 
L 147.035413 201.140552 
L 147.289148 195.953756 
L 147.542884 196.324375 
L 147.669752 197.806384 
L 147.796619 197.55899 
L 147.923487 195.706832 
L 148.177223 185.950782 
L 148.430958 203.36333 
L 148.557826 200.893629 
L 148.811561 192.619588 
L 149.065297 201.881321 
L 149.319032 198.423456 
L 149.572768 200.152389 
L 149.699636 199.411619 
L 149.953371 196.571298 
L 150.333974 206.821195 
L 150.460842 206.079955 
L 150.714577 211.760833 
L 150.968313 195.830529 
L 151.222048 203.486557 
L 151.348916 203.239633 
L 151.475784 206.326879 
L 151.729519 217.6884 
L 151.856387 217.194318 
L 151.983255 216.082929 
L 152.110123 219.417331 
L 152.23699 218.92325 
L 152.490726 202.622561 
L 152.744461 214.353997 
L 152.998197 207.561964 
L 153.251932 217.441242 
L 153.3788 211.143291 
L 153.505668 211.143291 
L 153.632535 220.03464 
L 153.759403 219.787717 
L 153.886271 211.019829 
L 154.013139 210.525747 
L 154.140006 215.959468 
L 154.266874 215.218463 
L 154.393742 210.896367 
L 154.52061 213.983612 
L 154.647477 220.405259 
L 154.774345 218.182246 
L 154.901213 212.625065 
L 155.028081 166.069001 
L 155.154948 170.761481 
L 155.281816 167.427313 
L 155.408684 168.661929 
L 155.662419 183.48108 
L 155.789287 179.158749 
L 155.916155 179.405672 
L 156.043022 176.442124 
L 156.16989 165.698381 
L 156.296758 165.204535 
L 156.550493 184.098622 
L 156.804229 165.821608 
L 157.057964 172.490414 
L 157.184832 171.379024 
L 157.438568 180.887681 
L 157.565435 178.541676 
L 157.692303 182.987234 
L 157.819171 181.134605 
L 158.072906 166.686074 
L 158.199774 168.29178 
L 158.326642 164.093145 
L 158.45351 168.909322 
L 158.707245 183.8517 
L 158.834113 179.899989 
L 159.087848 192.990207 
L 159.341584 182.863537 
L 159.468451 183.357853 
L 159.595319 179.158749 
L 159.849055 164.710218 
L 160.10279 170.761481 
L 160.229658 168.29178 
L 160.483393 188.297257 
L 160.863997 164.463296 
L 161.2446 169.156246 
L 161.498335 165.945304 
L 161.752071 168.785626 
L 162.005806 171.008405 
L 162.132674 172.366717 
L 162.386409 184.098622 
L 162.640145 179.529369 
L 162.767013 181.628922 
L 162.89388 181.505225 
L 163.147616 181.752147 
L 163.274484 180.517532 
L 163.528219 198.300231 
L 163.781955 187.309564 
L 164.03569 198.794077 
L 164.162558 194.471746 
L 164.416293 201.881321 
L 164.670029 197.92961 
L 164.796897 199.164697 
L 165.050632 209.414358 
L 165.304367 190.766958 
L 165.431235 193.60728 
L 165.558103 199.164697 
L 165.811838 193.113434 
L 166.065574 185.827555 
L 166.446177 200.276086 
L 166.699913 198.176534 
L 166.82678 198.794077 
L 166.953648 198.300231 
L 167.080516 195.706832 
L 167.207384 198.917773 
L 167.461119 206.450576 
L 167.841722 197.188841 
L 168.349193 203.980874 
L 168.602929 194.966063 
L 168.983532 211.390213 
L 169.1104 212.254679 
L 169.237267 215.959468 
L 169.364135 213.983612 
L 169.871606 184.716166 
L 169.998474 182.987234 
L 170.252209 194.966063 
L 170.505945 192.002045 
L 170.632813 191.878348 
L 170.75968 190.643732 
L 171.140283 197.065144 
L 171.267151 177.182894 
L 171.394019 178.294283 
L 171.647754 182.616614 
L 171.774622 183.728003 
L 171.90149 183.604777 
L 172.028358 183.11046 
L 172.155225 184.345546 
L 172.282093 187.062171 
L 172.535829 206.574271 
L 172.662696 203.36333 
L 172.789564 197.312068 
L 172.916432 199.658543 
L 173.170167 185.086315 
L 173.423903 196.694525 
L 173.804506 185.950782 
L 174.185109 201.387475 
L 174.311977 198.547153 
L 174.438845 198.917773 
L 174.565712 196.818222 
L 174.819448 208.42643 
L 174.946316 205.833032 
L 175.073183 199.164697 
L 175.200051 199.905466 
L 175.326919 203.610254 
L 175.580654 201.634399 
L 176.341861 181.134605 
L 176.468729 183.604777 
L 176.595596 180.146912 
L 176.849332 165.451459 
L 177.103067 168.661929 
L 177.229935 164.957142 
L 177.356803 165.574684 
L 177.48367 167.303617 
L 177.610538 164.586992 
L 177.737406 168.538703 
L 177.991141 184.716166 
L 178.118009 180.146912 
L 178.244877 181.875844 
L 178.371745 185.950782 
L 178.752348 165.327762 
L 178.879216 173.972423 
L 179.006083 174.219346 
L 179.259819 157.918186 
L 179.513554 167.056694 
L 179.640422 164.710218 
L 179.894158 168.909322 
L 180.147893 147.174443 
L 180.401628 164.463296 
L 180.655364 148.285832 
L 180.909099 154.707715 
L 181.162835 139.271021 
L 181.41657 152.855086 
L 181.543438 149.397221 
L 181.670306 139.394718 
L 181.797174 140.506108 
L 182.050909 155.572181 
L 182.304645 148.285832 
L 182.431512 149.644615 
L 182.55838 145.075361 
L 182.685248 145.939827 
L 182.938983 155.077864 
L 183.065851 153.719552 
L 183.192719 154.707715 
L 183.446454 164.340069 
L 183.70019 152.484937 
L 183.827057 154.460792 
L 184.080793 167.056694 
L 184.207661 167.92116 
L 184.461396 164.463296 
L 184.715132 170.143939 
L 184.841999 169.279472 
L 184.968867 165.698381 
L 185.095735 165.327762 
L 185.34947 172.98426 
L 185.603206 181.875844 
L 185.730074 182.863537 
L 185.983809 189.779266 
L 186.364412 180.887681 
L 186.49128 181.381998 
L 186.618148 183.974926 
L 186.745015 183.728003 
L 186.871883 178.541676 
L 186.998751 178.417979 
L 187.252486 182.616614 
L 187.379354 181.381998 
L 187.63309 186.074478 
L 187.886825 172.24349 
L 188.140561 182.987234 
L 188.394296 167.427313 
L 188.521164 169.650092 
L 188.648032 165.574684 
L 188.774899 165.945304 
L 189.028635 185.086315 
L 189.28237 167.427313 
L 189.409238 171.872871 
L 189.662973 186.692021 
L 189.916709 180.517532 
L 190.043577 180.270138 
L 190.170444 177.059667 
L 190.297312 176.93597 
L 190.551048 182.369691 
L 190.804783 178.664903 
L 190.931651 182.616614 
L 191.058519 182.245994 
L 191.185386 182.369691 
L 191.312254 191.384501 
L 191.439122 192.372664 
L 191.692857 181.381998 
L 191.946593 186.568324 
L 192.200328 199.164697 
L 192.327196 196.324375 
L 192.580931 200.769932 
L 192.707799 199.534846 
L 192.834667 196.818222 
L 193.088402 178.294283 
L 193.342138 186.445099 
L 193.469006 184.716166 
L 193.595873 184.839392 
L 193.849609 200.523009 
L 194.103344 197.55899 
L 194.230212 205.586109 
L 194.35708 204.351023 
L 194.483948 194.101597 
L 194.610815 195.953756 
L 194.737683 205.709806 
L 194.864551 206.697498 
L 194.991419 205.215489 
L 195.118286 207.191344 
L 195.245154 203.486557 
L 195.372022 196.077452 
L 195.498889 195.706832 
L 195.625757 127.292192 
L 195.752625 137.789012 
L 195.879493 138.900402 
L 196.00636 141.4938 
L 196.260096 158.288807 
L 196.513831 153.719552 
L 196.894435 142.111343 
L 197.14817 153.47263 
L 197.401906 146.680597 
L 197.528773 144.334122 
L 197.655641 137.295167 
L 197.782509 137.295167 
L 197.909377 141.617496 
L 198.036244 140.382411 
L 198.163112 136.554397 
L 198.416847 139.271021 
L 198.670583 134.825465 
L 198.797451 134.331618 
L 198.924318 133.220229 
L 199.558657 149.520918 
L 199.812393 149.397221 
L 200.192996 135.072387 
L 200.446731 138.900402 
L 200.573599 137.295167 
L 200.700467 133.960999 
L 200.827335 139.517945 
L 201.08107 152.484937 
L 201.588541 129.021125 
L 201.842276 142.852583 
L 201.969144 138.159633 
L 202.22288 149.273995 
L 202.349747 140.999954 
L 202.476615 142.481963 
L 202.603483 153.596325 
L 202.857218 150.756004 
L 202.984086 155.077864 
L 203.237822 137.665786 
L 203.491557 158.906349 
L 203.618425 152.73186 
L 203.745293 193.113434 
L 203.87216 191.014352 
L 204.125896 204.84534 
L 204.252764 202.005018 
L 204.379631 200.029163 
L 204.633367 208.179507 
L 204.760234 207.932585 
L 204.887102 204.721643 
L 205.140838 196.200678 
L 205.521441 205.092262 
L 205.648309 214.601155 
L 205.775176 213.612993 
L 206.028912 198.67038 
L 206.15578 201.140552 
L 206.282647 195.459909 
L 206.409515 201.016855 
L 206.536383 217.564938 
L 206.663251 210.402286 
L 206.790118 195.212986 
L 207.043854 216.947395 
L 207.297589 212.254679 
L 207.424457 220.03464 
L 207.678192 197.065144 
L 207.80506 201.263778 
L 207.931928 215.341924 
L 208.058796 214.477458 
L 208.185663 206.326879 
L 208.312531 206.574271 
L 208.439399 208.796816 
L 208.94687 199.658543 
L 209.073738 200.893629 
L 209.327473 206.944422 
L 209.581209 193.9779 
L 209.834944 219.540793 
L 210.08868 195.953756 
L 210.215547 194.842366 
L 210.342415 192.125741 
L 210.59615 196.694525 
L 210.849886 178.541676 
L 210.976754 186.321402 
L 211.103621 186.074478 
L 211.230489 180.270138 
L 211.357357 179.776292 
L 211.484225 179.899989 
L 211.73796 183.48108 
L 211.864828 167.303617 
L 211.991696 167.92116 
L 212.245431 179.282446 
L 212.372299 179.158749 
L 212.499167 178.541676 
L 212.626034 179.405672 
L 212.752902 181.875844 
L 212.87977 181.752147 
L 213.006638 181.134605 
L 213.260373 191.014352 
L 213.514108 177.67721 
L 213.640976 182.369691 
L 213.767844 180.517532 
L 213.894712 175.701355 
L 214.021579 178.541676 
L 214.275315 186.568324 
L 214.52905 166.192228 
L 214.782786 173.478106 
L 214.909654 166.43915 
L 215.163389 184.098622 
L 215.290257 181.258301 
L 215.417125 180.270138 
L 215.543992 183.234156 
L 215.797728 175.701355 
L 215.924596 180.146912 
L 216.178331 179.405672 
L 216.305199 183.357853 
L 216.558934 158.535729 
L 216.81267 172.490414 
L 216.939537 168.415006 
L 217.066405 169.279472 
L 217.193273 171.872871 
L 217.573876 160.140965 
L 217.700744 153.225706 
L 217.954479 151.99062 
L 218.081347 153.966476 
L 218.335083 167.55054 
L 218.46195 164.216372 
L 218.715686 169.773318 
L 218.842554 167.427313 
L 219.096289 180.887681 
L 219.350025 160.388358 
L 219.476892 170.020712 
L 219.60376 169.526395 
L 219.730628 164.957142 
L 219.857495 168.168083 
L 219.984363 168.415006 
L 220.111231 169.279472 
L 220.364966 151.99062 
L 220.491834 154.213398 
L 220.618702 150.879231 
L 220.872437 133.096532 
L 221.126173 150.014765 
L 221.379908 133.343456 
L 221.633644 135.813157 
L 221.760512 135.196084 
L 222.014247 135.689931 
L 222.267983 138.283329 
L 222.39485 136.554397 
L 222.521718 138.530252 
L 222.775453 150.261687 
L 222.902321 152.114316 
L 223.156057 136.554397 
L 223.282924 140.999954 
L 223.53666 156.806797 
L 223.790395 159.153272 
L 223.917263 155.448484 
L 224.044131 158.906349 
L 224.170999 166.562847 
L 224.297866 163.969449 
L 224.424734 164.957142 
L 224.551602 172.24349 
L 224.67847 170.761481 
L 224.805337 172.119794 
L 225.059073 183.11046 
L 225.185941 181.134605 
L 225.439676 183.11046 
L 225.566544 175.577658 
L 225.693411 179.776292 
L 225.820279 193.113434 
L 225.947147 190.149886 
L 226.074015 180.640759 
L 226.32775 204.47472 
L 226.581486 194.471746 
L 226.708353 199.164697 
L 226.835221 199.041 
L 226.962089 193.113434 
L 227.088957 194.224823 
L 227.215824 201.634399 
L 227.342692 200.399312 
L 227.596428 186.445099 
L 227.850163 202.128245 
L 227.977031 192.125741 
L 228.103899 169.897015 
L 228.230766 171.379024 
L 228.484502 160.017738 
L 228.738237 180.393835 
L 228.865105 175.948279 
L 228.991973 163.845752 
L 229.11884 163.104983 
L 229.245708 168.044856 
L 229.499444 163.475603 
L 229.880047 169.897015 
L 230.006915 167.92116 
L 230.26065 172.861033 
L 230.514386 164.833915 
L 230.768121 180.393835 
L 230.894989 174.960116 
L 231.148724 159.029575 
L 231.275592 166.315925 
L 231.40246 181.628922 
L 231.529328 182.987234 
L 231.783063 163.969449 
L 231.909931 174.589495 
L 232.036798 173.107956 
L 232.163666 166.315925 
L 232.417402 171.502251 
L 232.544269 165.327762 
L 232.671137 165.574684 
L 232.924873 187.679714 
L 233.178608 177.306591 
L 233.432344 188.17403 
L 233.686079 171.008405 
L 233.939815 184.716166 
L 234.066682 180.393835 
L 234.19355 179.899989 
L 234.447286 184.098622 
L 234.701021 178.04736 
L 234.954756 189.779266 
L 235.208492 179.282446 
L 235.33536 184.221849 
L 235.589095 182.122768 
L 235.842831 192.372664 
L 236.096566 181.381998 
L 236.223434 143.716579 
L 236.350302 146.92752 
L 236.604037 161.993594 
L 236.730905 165.204535 
L 236.857773 165.451459 
L 236.98464 163.351906 
L 237.111508 165.698381 
L 237.238376 164.586992 
L 237.365244 160.140965 
L 237.618979 170.761481 
L 237.872714 164.586992 
L 237.999582 164.957142 
L 238.12645 161.499748 
L 238.380185 167.180391 
L 238.633921 151.126154 
L 238.760789 156.312951 
L 238.887656 156.066027 
L 239.26826 145.198588 
L 239.395127 145.939827 
L 239.648863 143.469656 
L 239.902598 152.608163 
L 240.029466 151.99062 
L 240.156334 156.436647 
L 240.410069 171.008405 
L 240.536937 166.686074 
L 240.790672 152.73186 
L 241.044408 148.532756 
L 241.298143 154.954639 
L 241.425011 152.855086 
L 241.551879 154.090172 
L 241.678747 164.463296 
L 241.805614 163.351906 
L 241.932482 154.337095 
L 242.186218 166.315925 
L 242.439953 153.348933 
L 242.566821 155.572181 
L 242.820556 153.596325 
L 242.947424 163.104983 
L 243.074292 163.351906 
L 243.20116 153.596325 
L 243.328027 158.412502 
L 243.454895 171.749644 
L 243.581763 171.008405 
L 243.708631 165.574684 
L 243.962366 170.514558 
L 244.216101 168.044856 
L 244.469837 192.990207 
L 244.85044 199.287923 
L 244.977308 197.065144 
L 245.484779 179.282446 
L 245.738514 197.188841 
L 245.865382 196.200678 
L 245.99225 186.568324 
L 246.119118 188.791103 
L 246.372853 203.980874 
L 246.626589 184.716166 
L 246.880324 195.583135 
L 247.134059 190.396809 
L 247.260927 187.556487 
L 247.387795 179.776292 
L 247.514663 181.258301 
L 247.64153 188.54418 
L 247.895266 181.505225 
L 248.022134 178.541676 
L 248.275869 165.574684 
L 248.402737 166.809771 
L 248.78334 177.429817 
L 248.910208 167.92116 
L 249.037076 171.008405 
L 249.163943 184.839392 
L 249.290811 181.752147 
L 249.417679 173.478106 
L 249.544547 179.529369 
L 249.671414 178.417979 
L 249.798282 170.020712 
L 250.052017 184.839392 
L 250.178885 184.098622 
L 250.432621 186.445099 
L 250.813224 173.231183 
L 250.940092 165.080838 
L 251.320695 168.661929 
L 251.447563 168.538703 
L 251.701298 162.85806 
L 251.828166 166.686074 
L 252.081901 161.622974 
L 252.335637 168.785626 
L 252.462505 156.806797 
L 252.843108 181.505225 
L 252.969975 181.875844 
L 253.096843 182.863537 
L 253.477446 193.360357 
L 253.731182 214.724616 
L 253.85805 209.043973 
L 253.984917 197.92961 
L 254.111785 196.941918 
L 254.238653 199.164697 
L 254.365521 195.830529 
L 254.619256 182.369691 
L 254.872992 185.210012 
L 254.999859 180.023215 
L 255.126727 180.640759 
L 255.253595 185.950782 
L 255.50733 179.035523 
L 255.634198 180.146912 
L 255.761066 182.122768 
L 255.887933 181.875844 
L 256.014801 180.270138 
L 256.141669 180.270138 
L 256.395404 185.950782 
L 256.64914 193.60728 
L 256.776008 192.619588 
L 257.029743 182.122768 
L 257.156611 180.764455 
L 257.410346 189.28542 
L 257.537214 187.43279 
L 257.917817 165.821608 
L 258.044685 163.598829 
L 258.298421 174.095649 
L 258.552156 157.05372 
L 258.805892 168.044856 
L 258.932759 171.008405 
L 259.186495 185.827555 
L 259.44023 178.664903 
L 259.567098 184.839392 
L 259.693966 179.035523 
L 259.820833 160.758507 
L 259.947701 161.376051 
L 260.074569 178.7886 
L 260.201437 179.158749 
L 260.455172 164.463296 
L 260.58204 168.661929 
L 260.962643 191.755121 
L 261.216379 176.689048 
L 261.343246 169.279472 
L 261.596982 184.221849 
L 261.850717 165.451459 
L 261.977585 163.845752 
L 262.104453 154.707715 
L 262.358188 152.855086 
L 262.611924 131.491297 
L 262.738791 136.924546 
L 262.992527 132.602686 
L 263.246262 155.324788 
L 263.37313 150.014765 
L 263.499998 150.138462 
L 263.753733 159.894041 
L 264.007469 167.303617 
L 264.134337 166.562847 
L 264.261204 165.080838 
L 264.51494 166.315925 
L 264.768675 171.379024 
L 265.022411 151.496774 
L 265.276146 168.538703 
L 265.403014 165.080838 
L 265.656749 150.879231 
L 265.910485 165.080838 
L 266.16422 149.397221 
L 266.544824 168.538703 
L 266.671691 170.761481 
L 266.925427 183.234156 
L 267.052295 182.369691 
L 267.30603 167.427313 
L 267.432898 164.833915 
L 267.686633 151.002928 
L 267.940369 167.427313 
L 268.194104 142.605189 
L 268.44784 156.312951 
L 268.574707 153.596325 
L 268.828443 180.640759 
L 268.955311 183.357853 
L 269.209046 170.143939 
L 269.462782 183.974926 
L 269.843385 162.364214 
L 269.970253 165.204535 
L 270.223988 182.74031 
L 270.477724 166.069001 
L 270.604591 164.957142 
L 270.858327 185.827555 
L 271.112062 162.240517 
L 271.365798 182.245994 
L 271.492665 167.92116 
L 271.619533 169.032549 
L 271.746401 183.8517 
L 271.873269 184.345546 
L 272.000136 177.182894 
L 272.507607 186.568324 
L 272.634475 179.405672 
L 272.888211 161.993594 
L 273.141946 176.93597 
L 273.268814 167.180391 
L 273.395682 168.044856 
L 273.649417 184.345546 
L 273.776285 186.568324 
L 273.903153 186.815248 
L 274.156888 163.969449 
L 274.410623 168.044856 
L 274.537491 166.809771 
L 274.664359 163.475603 
L 274.791227 164.093145 
L 275.044962 177.553514 
L 275.298698 164.586992 
L 275.552433 185.703858 
L 275.806169 165.945304 
L 275.933036 165.945304 
L 276.186772 178.664903 
L 276.440507 173.972423 
L 276.567375 173.972423 
L 276.694243 169.156246 
L 276.821111 149.644615 
L 276.947978 153.596325 
L 277.201714 167.056694 
L 277.328581 167.55054 
L 277.455449 170.143939 
L 277.582317 169.650092 
L 277.709185 168.168083 
L 277.96292 161.622974 
L 278.089788 164.586992 
L 278.216656 171.379024 
L 278.343523 169.897015 
L 278.470391 164.833915 
L 278.597259 165.080838 
L 278.977862 167.427313 
L 279.231598 161.005431 
L 279.358465 161.993594 
L 279.485333 167.427313 
L 279.612201 164.710218 
L 279.865936 153.225706 
L 279.992804 155.324788 
L 280.119672 150.756004 
L 280.246539 151.620471 
L 280.500275 165.327762 
L 280.627143 163.845752 
L 281.007746 183.8517 
L 281.261481 164.340069 
L 281.388349 164.833915 
L 281.515217 160.635282 
L 281.642085 149.273995 
L 281.768952 149.150299 
L 281.89582 153.719552 
L 282.022688 152.114316 
L 282.276423 167.92116 
L 282.403291 167.303617 
L 282.657027 160.758507 
L 282.783894 160.140965 
L 283.03763 168.29178 
L 283.291365 165.945304 
L 283.418233 163.722526 
L 283.545101 164.710218 
L 283.671968 166.686074 
L 283.798836 164.833915 
L 283.925704 167.797464 
L 284.052572 173.601802 
L 284.306307 166.809771 
L 284.560043 169.773318 
L 284.813778 165.945304 
L 284.940646 199.041 
L 285.067514 198.300231 
L 285.194381 198.300231 
L 285.448117 200.769932 
L 285.574985 199.287923 
L 285.701852 200.152389 
L 285.82872 202.251941 
L 285.955588 201.263778 
L 286.082456 198.917773 
L 286.209323 199.164697 
L 286.589926 213.612993 
L 286.716794 211.884295 
L 286.843662 214.848078 
L 286.97053 213.489531 
L 287.224265 197.312068 
L 287.351133 203.239633 
L 287.478001 202.375167 
L 287.604868 194.595442 
L 287.731736 194.842366 
L 287.858604 197.312068 
L 287.985472 191.878348 
L 288.112339 191.631425 
L 288.239207 197.065144 
L 288.492943 182.616614 
L 288.61981 186.815248 
L 288.873546 182.74031 
L 289.127281 200.523009 
L 289.254149 196.077452 
L 289.381017 196.447602 
L 289.507884 197.188841 
L 289.634752 194.471746 
L 289.888488 197.312068 
L 290.015355 193.23713 
L 290.269091 197.806384 
L 290.395959 194.718669 
L 290.649694 204.84534 
L 290.90343 195.583135 
L 291.157165 200.646706 
L 291.284033 195.706832 
L 291.537768 174.466269 
L 291.664636 176.195201 
L 291.791504 181.875844 
L 291.918372 182.122768 
L 292.172107 180.764455 
L 292.298975 180.270138 
L 292.55271 178.294283 
L 292.679578 179.529369 
L 292.933313 183.357853 
L 293.060181 168.044856 
L 293.440784 183.48108 
L 293.567652 181.381998 
L 293.69452 181.134605 
L 293.821388 185.456936 
L 294.328859 216.453314 
L 294.455726 210.649209 
L 294.582594 195.953756 
L 294.709462 195.459909 
L 294.83633 196.941918 
L 294.963197 192.495891 
L 295.090065 193.484054 
L 295.216933 195.830529 
L 295.470668 194.595442 
L 295.597536 192.86651 
L 295.724404 195.336212 
L 295.851271 200.276086 
L 295.978139 200.029163 
L 296.231875 195.830529 
L 296.48561 197.065144 
L 296.739346 196.447602 
L 296.866213 197.806384 
L 296.993081 196.818222 
L 297.119949 198.300231 
L 297.373684 205.709806 
L 297.62742 193.113434 
L 297.754288 193.854203 
L 298.008023 199.411619 
L 298.134891 197.92961 
L 298.515494 181.258301 
L 298.642362 179.653066 
L 298.769229 181.011378 
L 298.896097 180.887681 
L 299.149833 177.553514 
L 299.530436 191.631425 
L 299.784171 200.399312 
L 300.037907 187.309564 
L 300.164775 199.041 
L 300.291642 196.077452 
L 300.545378 165.945304 
L 300.799113 187.43279 
L 301.052849 168.909322 
L 301.179717 173.848726 
L 301.306584 183.728003 
L 301.433452 181.381998 
L 301.687187 187.062171 
L 301.940923 171.379024 
L 302.194658 188.17403 
L 302.321526 185.580632 
L 302.575262 166.562847 
L 302.702129 166.809771 
L 302.828997 164.833915 
L 303.082733 147.66876 
L 303.2096 149.273995 
L 303.463336 145.939827 
L 303.590204 148.656453 
L 303.843939 161.74667 
L 304.097675 164.463296 
L 304.35141 161.993594 
L 304.478278 163.845752 
L 304.732013 168.909322 
L 304.858881 167.797464 
L 304.985749 164.957142 
L 305.239484 184.221849 
L 305.49322 164.340069 
L 305.620087 166.43915 
L 306.000691 182.122768 
L 306.127558 175.701355 
L 306.254426 162.611136 
L 306.381294 166.069001 
L 306.508162 178.7886 
L 306.635029 177.306591 
L 306.761897 164.216372 
L 306.888765 164.957142 
L 307.015633 177.924133 
L 307.1425 179.529369 
L 307.269368 175.083812 
L 307.649971 196.200678 
L 308.030574 181.875844 
L 308.157442 182.369691 
L 308.28431 181.011378 
L 308.538045 186.074478 
L 308.791781 173.848726 
L 309.045516 182.493387 
L 309.172384 179.158749 
L 309.42612 186.074478 
L 309.552987 186.938944 
L 309.806723 180.393835 
L 310.187326 178.541676 
L 310.314194 174.095649 
L 310.567929 161.622974 
L 310.821665 183.48108 
L 311.0754 160.388358 
L 311.202268 164.216372 
L 311.456003 187.309564 
L 311.582871 182.245994 
L 311.709739 182.122768 
L 311.836607 183.728003 
L 311.963474 181.628922 
L 312.090342 181.505225 
L 312.21721 182.493387 
L 312.344078 182.122768 
L 312.470945 182.369691 
L 312.724681 178.04736 
L 312.851549 178.7886 
L 313.105284 183.234156 
L 313.232152 177.67721 
L 313.35902 166.809771 
L 313.485887 167.92116 
L 313.739623 182.863537 
L 313.993358 185.703858 
L 314.120226 185.703858 
L 314.373961 200.893629 
L 314.500829 199.411619 
L 314.881432 165.698381 
L 315.0083 175.453962 
L 315.135168 173.601802 
L 315.262036 165.821608 
L 315.388903 164.957142 
L 315.769507 183.48108 
L 315.896374 180.517532 
L 316.15011 187.309564 
L 316.276978 181.628922 
L 316.530713 189.408646 
L 316.784448 184.221849 
L 316.911316 187.43279 
L 317.038184 185.210012 
L 317.291919 178.171057 
L 317.418787 160.635282 
L 317.79939 179.529369 
L 317.926258 178.541676 
L 318.179994 187.062171 
L 318.306861 184.098622 
L 318.433729 187.185868 
L 318.560597 177.800437 
L 318.814332 130.626831 
L 319.068068 133.096532 
L 319.194936 132.602686 
L 319.829274 153.102009 
L 320.08301 176.195201 
L 320.209877 172.861033 
L 320.336745 162.85806 
L 320.590481 169.650092 
L 320.844216 163.104983 
L 320.971084 164.216372 
L 321.097952 167.427313 
L 321.605423 193.484054 
L 321.73229 188.420953 
L 321.859158 171.132102 
L 321.986026 169.773318 
L 322.112894 177.429817 
L 322.239761 172.490414 
L 322.366629 172.24349 
L 322.620364 183.48108 
L 322.747232 180.640759 
L 323.000968 184.963089 
L 323.254703 181.258301 
L 323.381571 181.258301 
L 323.508439 181.875844 
L 323.635306 181.505225 
L 324.01591 179.035523 
L 324.142777 182.616614 
L 324.269645 182.863537 
L 324.396513 175.207038 
L 324.523381 174.713192 
L 324.777116 194.101597 
L 325.030852 183.48108 
L 325.284587 197.065144 
L 325.411455 197.065144 
L 325.538322 205.215489 
L 325.66519 204.47472 
L 325.792058 207.932585 
L 325.918926 215.959468 
L 326.045793 214.477458 
L 326.172661 208.42643 
L 326.426397 210.031901 
L 326.680132 196.324375 
L 326.807 195.583135 
L 327.060735 210.031901 
L 327.187603 208.673354 
L 327.314471 209.53782 
L 327.568206 224.850817 
L 327.821942 206.326879 
L 327.94881 212.872223 
L 328.202545 210.649209 
L 328.329413 216.57701 
L 328.456281 208.796816 
L 328.583148 193.60728 
L 328.836884 216.57701 
L 329.090619 192.495891 
L 329.217487 202.251941 
L 329.471222 180.146912 
L 329.724958 194.34852 
L 329.851826 189.779266 
L 329.978693 191.878348 
L 330.232429 184.469243 
L 330.359297 192.619588 
L 330.486164 191.878348 
L 330.613032 183.11046 
L 330.866768 185.333709 
L 330.993635 183.728003 
L 331.247371 200.276086 
L 331.501106 194.595442 
L 331.627974 195.953756 
L 332.008577 179.653066 
L 332.262313 177.182894 
L 332.516048 184.592469 
L 332.769784 167.303617 
L 332.896651 167.427313 
L 333.023519 169.032549 
L 333.277255 164.093145 
L 333.404122 169.650092 
L 333.53099 181.134605 
L 333.657858 154.090172 
L 333.911593 173.972423 
L 334.165329 184.716166 
L 334.292197 182.493387 
L 334.419064 186.568324 
L 334.545932 198.176534 
L 334.6728 199.164697 
L 334.799667 201.634399 
L 335.053403 217.6884 
L 335.307138 200.399312 
L 335.434006 200.769932 
L 335.687742 194.34852 
L 335.941477 193.360357 
L 336.32208 177.553514 
L 336.448948 181.505225 
L 336.575816 181.258301 
L 336.829551 167.056694 
L 337.083287 169.403169 
L 337.210155 169.403169 
L 337.46389 182.987234 
L 337.717625 182.369691 
L 337.971361 186.198175 
L 338.098229 181.258301 
L 338.351964 163.722526 
L 338.6057 181.505225 
L 338.732567 176.689048 
L 339.113171 149.397221 
L 339.240038 149.150299 
L 339.366906 154.954639 
L 339.493774 153.47263 
L 339.620642 149.273995 
L 339.747509 149.150299 
L 339.874377 152.114316 
L 340.25498 171.749644 
L 340.381848 171.008405 
L 340.508716 168.044856 
L 340.635584 168.415006 
L 340.762451 175.948279 
L 340.889319 174.219346 
L 341.143054 152.114316 
L 341.269922 165.945304 
L 341.39679 165.204535 
L 341.523658 149.767841 
L 341.650525 154.213398 
L 341.904261 179.158749 
L 342.157996 181.258301 
L 342.284864 180.517532 
L 342.5386 164.216372 
L 342.792335 172.98426 
L 342.919203 168.785626 
L 343.046071 168.661929 
L 343.426674 152.237543 
L 343.553542 154.584018 
L 343.934145 137.789012 
L 344.061012 135.443007 
L 344.18788 136.307474 
L 344.441616 165.698381 
L 344.568483 164.957142 
L 344.695351 162.85806 
L 345.075954 172.119794 
L 345.202822 181.999071 
L 345.32969 182.245994 
L 345.456558 178.7886 
L 345.710293 184.716166 
L 345.964029 182.493387 
L 346.090896 182.122768 
L 346.217764 179.035523 
L 346.344632 179.899989 
L 346.598367 192.742813 
L 346.852103 179.035523 
L 347.105838 190.273112 
L 347.359574 181.752147 
L 348.12078 222.381115 
L 348.374516 214.107074 
L 348.501383 215.589082 
L 348.881987 196.941918 
L 349.135722 202.251941 
L 349.389458 183.728003 
L 349.643193 198.794077 
L 349.770061 194.471746 
L 349.896928 172.98426 
L 350.150664 187.062171 
L 350.404399 177.429817 
L 350.658135 182.122768 
L 350.785003 181.011378 
L 351.165606 167.056694 
L 351.419341 186.321402 
L 351.546209 180.393835 
L 351.799945 162.117291 
L 352.05368 178.7886 
L 352.180548 172.24349 
L 352.434283 177.924133 
L 352.688019 161.869897 
L 353.19549 175.824582 
L 353.449225 181.134605 
L 353.829828 172.61364 
L 353.956696 163.598829 
L 354.083564 163.475603 
L 354.210432 164.216372 
L 354.337299 162.240517 
L 354.591035 166.069001 
L 354.717903 170.020712 
L 354.971638 180.270138 
L 355.098506 177.059667 
L 355.225374 171.008405 
L 355.479109 152.608163 
L 355.605977 154.337095 
L 355.98658 152.978783 
L 356.113448 155.077864 
L 356.367183 166.43915 
L 356.494051 161.376051 
L 356.747786 167.427313 
L 356.874654 153.719552 
L 357.001522 152.978783 
L 357.12839 163.722526 
L 357.255257 160.511585 
L 357.382125 150.138462 
L 357.508993 151.496774 
L 357.635861 159.523892 
L 357.762728 159.770815 
L 357.889596 152.978783 
L 358.016464 106.422249 
L 358.143332 104.323168 
L 358.270199 104.817014 
L 358.397067 103.828851 
L 358.650803 114.078748 
L 358.904538 106.175326 
L 359.031406 104.570091 
L 359.158273 98.148208 
L 359.285141 99.630217 
L 359.412009 108.521802 
L 359.538877 107.533639 
L 359.792612 90.86233 
L 359.91948 94.073271 
L 360.173215 101.729769 
L 360.300083 102.841159 
L 360.553819 97.778058 
L 360.680686 103.211308 
L 360.807554 103.828851 
L 361.06129 89.504017 
L 361.188157 94.073271 
L 361.441893 89.010171 
L 361.695628 106.669173 
L 361.822496 106.299023 
L 361.949364 107.163019 
L 362.203099 123.834799 
L 362.329967 115.43706 
L 362.583702 94.44342 
L 363.091173 99.259597 
L 363.218041 100.494684 
L 363.471777 110.620883 
L 363.598644 109.386268 
L 363.725512 110.620883 
L 363.979248 104.075774 
L 364.232983 113.214282 
L 364.486719 108.274878 
L 364.613586 107.039792 
L 364.740454 108.151182 
L 364.867322 114.202445 
L 365.121057 108.398105 
L 365.374793 118.030459 
L 365.628528 97.530665 
L 365.755396 96.789895 
L 366.009131 108.521802 
L 366.135999 199.164697 
L 366.262867 196.324375 
L 366.389735 198.053307 
L 366.64347 208.42643 
L 366.897206 184.592469 
L 367.150941 197.806384 
L 367.404677 192.619588 
L 367.912148 203.610254 
L 368.039015 216.947395 
L 368.165883 213.489531 
L 368.292751 193.60728 
L 368.419618 192.372664 
L 368.546486 201.510702 
L 368.800222 192.248967 
L 368.927089 196.077452 
L 369.053957 195.706832 
L 369.180825 190.273112 
L 369.43456 201.510702 
L 369.688296 183.357853 
L 369.815164 192.619588 
L 369.942031 190.026189 
L 370.068899 180.640759 
L 370.322635 202.005018 
L 370.449502 195.089289 
L 370.57637 195.459909 
L 370.703238 192.990207 
L 370.830106 186.198175 
L 371.083841 196.200678 
L 371.210709 183.604777 
L 371.337576 186.692021 
L 371.464444 195.583135 
L 371.591312 191.508198 
L 371.71818 193.484054 
L 371.845047 201.510702 
L 372.098783 190.890655 
L 372.352518 197.92961 
L 372.733122 175.453962 
L 372.986857 185.703858 
L 373.240593 174.219346 
L 373.36746 180.517532 
L 373.494328 178.294283 
L 373.621196 170.143939 
L 373.874931 172.490414 
L 374.001799 171.379024 
L 374.128667 179.776292 
L 374.255534 171.132102 
L 374.763005 206.821195 
L 374.889873 209.414358 
L 375.016741 206.697498 
L 375.270476 215.712544 
L 375.65108 233.248319 
L 375.904815 225.09774 
L 376.158551 213.242607 
L 376.285418 213.366069 
L 376.539154 222.010495 
L 376.666022 220.775645 
L 376.792889 211.884295 
L 376.919757 215.589082 
L 377.046625 229.049685 
L 377.173492 228.679066 
L 377.30036 218.799789 
L 377.427228 218.429169 
L 377.554096 222.257418 
L 377.680963 220.528721 
L 377.807831 220.652183 
L 378.061567 228.802528 
L 378.188434 228.679066 
L 378.315302 228.308681 
L 378.569038 232.136931 
L 378.695905 227.691138 
L 378.949641 210.278825 
L 379.203376 226.826672 
L 379.457112 210.155363 
L 379.58398 213.86015 
L 379.837715 201.263778 
L 379.964583 210.896367 
L 380.09145 211.390213 
L 380.218318 203.486557 
L 380.345186 205.215489 
L 380.598921 214.353997 
L 380.725789 218.799789 
L 380.979525 240.657895 
L 381.106392 240.781357 
L 381.486996 228.308681 
L 381.740731 209.043973 
L 381.867599 217.935323 
L 381.994467 217.811861 
L 382.121334 207.932585 
L 382.248202 208.05581 
L 382.37507 176.93597 
L 382.501938 184.592469 
L 382.628805 182.493387 
L 382.755673 184.221849 
L 382.882541 189.902492 
L 383.136276 177.67721 
L 383.390012 198.547153 
L 383.516879 194.595442 
L 383.770615 183.357853 
L 384.151218 167.180391 
L 384.278086 167.92116 
L 384.404954 165.204535 
L 384.658689 154.337095 
L 384.912425 171.625948 
L 385.039292 170.267635 
L 385.16616 166.809771 
L 385.419896 173.107956 
L 385.800499 183.11046 
L 385.927367 183.48108 
L 386.181102 178.04736 
L 386.434837 184.716166 
L 386.688573 179.529369 
L 386.942308 183.728003 
L 387.069176 182.74031 
L 387.322912 169.156246 
L 387.449779 166.43915 
L 387.703515 152.237543 
L 387.95725 155.695408 
L 388.084118 150.261687 
L 388.210986 154.954639 
L 388.464721 179.158749 
L 388.591589 168.29178 
L 388.718457 170.637785 
L 388.845325 182.369691 
L 388.972192 182.74031 
L 389.352795 172.98426 
L 389.606531 183.8517 
L 389.733399 181.999071 
L 389.987134 161.252824 
L 390.114002 165.204535 
L 390.24087 184.221849 
L 390.367737 185.333709 
L 390.494605 189.408646 
L 390.621473 198.547153 
L 390.748341 197.065144 
L 391.128944 184.345546 
L 391.255812 177.924133 
L 391.509547 184.839392 
L 391.763283 164.957142 
L 392.017018 189.038026 
L 392.397621 176.565821 
L 392.651357 182.74031 
L 392.778224 180.764455 
L 393.03196 195.089289 
L 393.285695 183.604777 
L 393.539431 197.55899 
L 393.920034 179.282446 
L 394.046902 185.580632 
L 394.300637 179.035523 
L 394.427505 184.469243 
L 394.554373 180.146912 
L 394.808108 165.821608 
L 395.061844 182.987234 
L 395.188711 184.221849 
L 395.442447 199.905466 
L 395.569315 201.140552 
L 395.696182 196.324375 
L 395.949918 178.664903 
L 396.076786 178.04736 
L 396.203653 178.294283 
L 396.330521 179.405672 
L 396.457389 181.628922 
L 396.711124 169.773318 
L 397.218595 196.324375 
L 397.345463 196.077452 
L 397.472331 183.8517 
L 397.599199 187.926636 
L 397.726066 201.634399 
L 397.979802 183.48108 
L 398.233537 198.547153 
L 398.487273 190.643732 
L 398.487273 190.643732 
" clip-path="url(#pa0254621fb)" style="fill: none; stroke: #1f77b4; stroke-width: 1.5; stroke-linecap: square"/>
   </g>
   <g id="patch_3">
    <path d="M 57.6 307.584 
L 57.6 41.472 
" style="fill: none; stroke: #000000; stroke-width: 0.8; stroke-linejoin: miter; stroke-linecap: square"/>
   </g>
   <g id="patch_4">
    <path d="M 414.72 307.584 
L 414.72 41.472 
" style="fill: none; stroke: #000000; stroke-width: 0.8; stroke-linejoin: miter; stroke-linecap: square"/>
   </g>
   <g id="patch_5">
    <path d="M 57.6 307.584 
L 414.72 307.584 
" style="fill: none; stroke: #000000; stroke-width: 0.8; stroke-linejoin: miter; stroke-linecap: square"/>
   </g>
   <g id="patch_6">
    <path d="M 57.6 41.472 
L 414.72 41.472 
" style="fill: none; stroke: #000000; stroke-width: 0.8; stroke-linejoin: miter; stroke-linecap: square"/>
   </g>
   <g id="legend_1">
    <g id="patch_7">
     <path d="M 354.074688 64.150125 
L 407.72 64.150125 
Q 409.72 64.150125 409.72 62.150125 
L 409.72 48.472 
Q 409.72 46.472 407.72 46.472 
L 354.074688 46.472 
Q 352.074688 46.472 352.074688 48.472 
L 352.074688 62.150125 
Q 352.074688 64.150125 354.074688 64.150125 
z
" style="fill: #ffffff; opacity: 0.8; stroke: #cccccc; stroke-linejoin: miter"/>
    </g>
    <g id="line2d_14">
     <path d="M 356.074688 54.570438 
L 366.074688 54.570438 
L 376.074688 54.570438 
" style="fill: none; stroke: #1f77b4; stroke-width: 1.5; stroke-linecap: square"/>
    </g>
    <g id="text_13">
     <!-- set3 -->
     <g transform="translate(384.074688 58.070438)scale(0.1 -0.1)">
      <defs>
       <path id="DejaVuSans-73" d="M 2834 3397 
L 2834 2853 
Q 2591 2978 2328 3040 
Q 2066 3103 1784 3103 
Q 1356 3103 1142 2972 
Q 928 2841 928 2578 
Q 928 2378 1081 2264 
Q 1234 2150 1697 2047 
L 1894 2003 
Q 2506 1872 2764 1633 
Q 3022 1394 3022 966 
Q 3022 478 2636 193 
Q 2250 -91 1575 -91 
Q 1294 -91 989 -36 
Q 684 19 347 128 
L 347 722 
Q 666 556 975 473 
Q 1284 391 1588 391 
Q 1994 391 2212 530 
Q 2431 669 2431 922 
Q 2431 1156 2273 1281 
Q 2116 1406 1581 1522 
L 1381 1569 
Q 847 1681 609 1914 
Q 372 2147 372 2553 
Q 372 3047 722 3315 
Q 1072 3584 1716 3584 
Q 2034 3584 2315 3537 
Q 2597 3491 2834 3397 
z
" transform="scale(0.015625)"/>
       <path id="DejaVuSans-65" d="M 3597 1894 
L 3597 1613 
L 953 1613 
Q 991 1019 1311 708 
Q 1631 397 2203 397 
Q 2534 397 2845 478 
Q 3156 559 3463 722 
L 3463 178 
Q 3153 47 2828 -22 
Q 2503 -91 2169 -91 
Q 1331 -91 842 396 
Q 353 884 353 1716 
Q 353 2575 817 3079 
Q 1281 3584 2069 3584 
Q 2775 3584 3186 3129 
Q 3597 2675 3597 1894 
z
M 3022 2063 
Q 3016 2534 2758 2815 
Q 2500 3097 2075 3097 
Q 1594 3097 1305 2825 
Q 1016 2553 972 2059 
L 3022 2063 
z
" transform="scale(0.015625)"/>
       <path id="DejaVuSans-74" d="M 1172 4494 
L 1172 3500 
L 2356 3500 
L 2356 3053 
L 1172 3053 
L 1172 1153 
Q 1172 725 1289 603 
Q 1406 481 1766 481 
L 2356 481 
L 2356 0 
L 1766 0 
Q 1100 0 847 248 
Q 594 497 594 1153 
L 594 3053 
L 172 3053 
L 172 3500 
L 594 3500 
L 594 4494 
L 1172 4494 
z
" transform="scale(0.015625)"/>
       <path id="DejaVuSans-33" d="M 2597 2516 
Q 3050 2419 3304 2112 
Q 3559 1806 3559 1356 
Q 3559 666 3084 287 
Q 2609 -91 1734 -91 
Q 1441 -91 1130 -33 
Q 819 25 488 141 
L 488 750 
Q 750 597 1062 519 
Q 1375 441 1716 441 
Q 2309 441 2620 675 
Q 2931 909 2931 1356 
Q 2931 1769 2642 2001 
Q 2353 2234 1838 2234 
L 1294 2234 
L 1294 2753 
L 1863 2753 
Q 2328 2753 2575 2939 
Q 2822 3125 2822 3475 
Q 2822 3834 2567 4026 
Q 2313 4219 1838 4219 
Q 1578 4219 1281 4162 
Q 984 4106 628 3988 
L 628 4550 
Q 988 4650 1302 4700 
Q 1616 4750 1894 4750 
Q 2613 4750 3031 4423 
Q 3450 4097 3450 3541 
Q 3450 3153 3228 2886 
Q 3006 2619 2597 2516 
z
" transform="scale(0.015625)"/>
      </defs>
      <use xlink:href="#DejaVuSans-73"/>
      <use xlink:href="#DejaVuSans-65" x="52.099609"/>
      <use xlink:href="#DejaVuSans-74" x="113.623047"/>
      <use xlink:href="#DejaVuSans-33" x="152.832031"/>
     </g>
    </g>
   </g>
  </g>
 </g>
 <defs>
  <clipPath id="pa0254621fb">
   <rect x="57.6" y="41.472" width="357.12" height="266.112"/>
  </clipPath>
 </defs>
</svg>
