<?xml version="1.0" encoding="utf-8" standalone="no"?>
<!DOCTYPE svg PUBLIC "-//W3C//DTD SVG 1.1//EN"
  "http://www.w3.org/Graphics/SVG/1.1/DTD/svg11.dtd">
<svg xmlns:xlink="http://www.w3.org/1999/xlink" width="460.8pt" height="345.6pt" viewBox="0 0 460.8 345.6" xmlns="http://www.w3.org/2000/svg" version="1.1">
 <metadata>
  <rdf:RDF xmlns:dc="http://purl.org/dc/elements/1.1/" xmlns:cc="http://creativecommons.org/ns#" xmlns:rdf="http://www.w3.org/1999/02/22-rdf-syntax-ns#">
   <cc:Work>
    <dc:type rdf:resource="http://purl.org/dc/dcmitype/StillImage"/>
    <dc:date>2022-08-11T15:19:05.108476</dc:date>
    <dc:format>image/svg+xml</dc:format>
    <dc:creator>
     <cc:Agent>
      <dc:title>Matplotlib v3.5.2, https://matplotlib.org/</dc:title>
     </cc:Agent>
    </dc:creator>
   </cc:Work>
  </rdf:RDF>
 </metadata>
 <defs>
  <style type="text/css">*{stroke-linejoin: round; stroke-linecap: butt}</style>
 </defs>
 <g id="figure_1">
  <g id="patch_1">
   <path d="M 0 345.6 
L 460.8 345.6 
L 460.8 0 
L 0 0 
z
" style="fill: #ffffff"/>
  </g>
  <g id="axes_1">
   <g id="patch_2">
    <path d="M 57.6 307.584 
L 414.72 307.584 
L 414.72 41.472 
L 57.6 41.472 
z
" style="fill: #ffffff"/>
   </g>
   <g id="matplotlib.axis_1">
    <g id="xtick_1">
     <g id="line2d_1">
      <defs>
       <path id="m2abafef201" d="M 0 0 
L 0 3.5 
" style="stroke: #000000; stroke-width: 0.8"/>
      </defs>
      <g>
       <use xlink:href="#m2abafef201" x="73.832727" y="307.584" style="stroke: #000000; stroke-width: 0.8"/>
      </g>
     </g>
     <g id="text_1">
      <!-- 0 -->
      <g transform="translate(70.651477 322.182437)scale(0.1 -0.1)">
       <defs>
        <path id="DejaVuSans-30" d="M 2034 4250 
Q 1547 4250 1301 3770 
Q 1056 3291 1056 2328 
Q 1056 1369 1301 889 
Q 1547 409 2034 409 
Q 2525 409 2770 889 
Q 3016 1369 3016 2328 
Q 3016 3291 2770 3770 
Q 2525 4250 2034 4250 
z
M 2034 4750 
Q 2819 4750 3233 4129 
Q 3647 3509 3647 2328 
Q 3647 1150 3233 529 
Q 2819 -91 2034 -91 
Q 1250 -91 836 529 
Q 422 1150 422 2328 
Q 422 3509 836 4129 
Q 1250 4750 2034 4750 
z
" transform="scale(0.015625)"/>
       </defs>
       <use xlink:href="#DejaVuSans-30"/>
      </g>
     </g>
    </g>
    <g id="xtick_2">
     <g id="line2d_2">
      <g>
       <use xlink:href="#m2abafef201" x="137.254205" y="307.584" style="stroke: #000000; stroke-width: 0.8"/>
      </g>
     </g>
     <g id="text_2">
      <!-- 1000 -->
      <g transform="translate(124.529205 322.182437)scale(0.1 -0.1)">
       <defs>
        <path id="DejaVuSans-31" d="M 794 531 
L 1825 531 
L 1825 4091 
L 703 3866 
L 703 4441 
L 1819 4666 
L 2450 4666 
L 2450 531 
L 3481 531 
L 3481 0 
L 794 0 
L 794 531 
z
" transform="scale(0.015625)"/>
       </defs>
       <use xlink:href="#DejaVuSans-31"/>
       <use xlink:href="#DejaVuSans-30" x="63.623047"/>
       <use xlink:href="#DejaVuSans-30" x="127.246094"/>
       <use xlink:href="#DejaVuSans-30" x="190.869141"/>
      </g>
     </g>
    </g>
    <g id="xtick_3">
     <g id="line2d_3">
      <g>
       <use xlink:href="#m2abafef201" x="200.675683" y="307.584" style="stroke: #000000; stroke-width: 0.8"/>
      </g>
     </g>
     <g id="text_3">
      <!-- 2000 -->
      <g transform="translate(187.950683 322.182437)scale(0.1 -0.1)">
       <defs>
        <path id="DejaVuSans-32" d="M 1228 531 
L 3431 531 
L 3431 0 
L 469 0 
L 469 531 
Q 828 903 1448 1529 
Q 2069 2156 2228 2338 
Q 2531 2678 2651 2914 
Q 2772 3150 2772 3378 
Q 2772 3750 2511 3984 
Q 2250 4219 1831 4219 
Q 1534 4219 1204 4116 
Q 875 4013 500 3803 
L 500 4441 
Q 881 4594 1212 4672 
Q 1544 4750 1819 4750 
Q 2544 4750 2975 4387 
Q 3406 4025 3406 3419 
Q 3406 3131 3298 2873 
Q 3191 2616 2906 2266 
Q 2828 2175 2409 1742 
Q 1991 1309 1228 531 
z
" transform="scale(0.015625)"/>
       </defs>
       <use xlink:href="#DejaVuSans-32"/>
       <use xlink:href="#DejaVuSans-30" x="63.623047"/>
       <use xlink:href="#DejaVuSans-30" x="127.246094"/>
       <use xlink:href="#DejaVuSans-30" x="190.869141"/>
      </g>
     </g>
    </g>
    <g id="xtick_4">
     <g id="line2d_4">
      <g>
       <use xlink:href="#m2abafef201" x="264.097161" y="307.584" style="stroke: #000000; stroke-width: 0.8"/>
      </g>
     </g>
     <g id="text_4">
      <!-- 3000 -->
      <g transform="translate(251.372161 322.182437)scale(0.1 -0.1)">
       <defs>
        <path id="DejaVuSans-33" d="M 2597 2516 
Q 3050 2419 3304 2112 
Q 3559 1806 3559 1356 
Q 3559 666 3084 287 
Q 2609 -91 1734 -91 
Q 1441 -91 1130 -33 
Q 819 25 488 141 
L 488 750 
Q 750 597 1062 519 
Q 1375 441 1716 441 
Q 2309 441 2620 675 
Q 2931 909 2931 1356 
Q 2931 1769 2642 2001 
Q 2353 2234 1838 2234 
L 1294 2234 
L 1294 2753 
L 1863 2753 
Q 2328 2753 2575 2939 
Q 2822 3125 2822 3475 
Q 2822 3834 2567 4026 
Q 2313 4219 1838 4219 
Q 1578 4219 1281 4162 
Q 984 4106 628 3988 
L 628 4550 
Q 988 4650 1302 4700 
Q 1616 4750 1894 4750 
Q 2613 4750 3031 4423 
Q 3450 4097 3450 3541 
Q 3450 3153 3228 2886 
Q 3006 2619 2597 2516 
z
" transform="scale(0.015625)"/>
       </defs>
       <use xlink:href="#DejaVuSans-33"/>
       <use xlink:href="#DejaVuSans-30" x="63.623047"/>
       <use xlink:href="#DejaVuSans-30" x="127.246094"/>
       <use xlink:href="#DejaVuSans-30" x="190.869141"/>
      </g>
     </g>
    </g>
    <g id="xtick_5">
     <g id="line2d_5">
      <g>
       <use xlink:href="#m2abafef201" x="327.518639" y="307.584" style="stroke: #000000; stroke-width: 0.8"/>
      </g>
     </g>
     <g id="text_5">
      <!-- 4000 -->
      <g transform="translate(314.793639 322.182437)scale(0.1 -0.1)">
       <defs>
        <path id="DejaVuSans-34" d="M 2419 4116 
L 825 1625 
L 2419 1625 
L 2419 4116 
z
M 2253 4666 
L 3047 4666 
L 3047 1625 
L 3713 1625 
L 3713 1100 
L 3047 1100 
L 3047 0 
L 2419 0 
L 2419 1100 
L 313 1100 
L 313 1709 
L 2253 4666 
z
" transform="scale(0.015625)"/>
       </defs>
       <use xlink:href="#DejaVuSans-34"/>
       <use xlink:href="#DejaVuSans-30" x="63.623047"/>
       <use xlink:href="#DejaVuSans-30" x="127.246094"/>
       <use xlink:href="#DejaVuSans-30" x="190.869141"/>
      </g>
     </g>
    </g>
    <g id="xtick_6">
     <g id="line2d_6">
      <g>
       <use xlink:href="#m2abafef201" x="390.940117" y="307.584" style="stroke: #000000; stroke-width: 0.8"/>
      </g>
     </g>
     <g id="text_6">
      <!-- 5000 -->
      <g transform="translate(378.215117 322.182437)scale(0.1 -0.1)">
       <defs>
        <path id="DejaVuSans-35" d="M 691 4666 
L 3169 4666 
L 3169 4134 
L 1269 4134 
L 1269 2991 
Q 1406 3038 1543 3061 
Q 1681 3084 1819 3084 
Q 2600 3084 3056 2656 
Q 3513 2228 3513 1497 
Q 3513 744 3044 326 
Q 2575 -91 1722 -91 
Q 1428 -91 1123 -41 
Q 819 9 494 109 
L 494 744 
Q 775 591 1075 516 
Q 1375 441 1709 441 
Q 2250 441 2565 725 
Q 2881 1009 2881 1497 
Q 2881 1984 2565 2268 
Q 2250 2553 1709 2553 
Q 1456 2553 1204 2497 
Q 953 2441 691 2322 
L 691 4666 
z
" transform="scale(0.015625)"/>
       </defs>
       <use xlink:href="#DejaVuSans-35"/>
       <use xlink:href="#DejaVuSans-30" x="63.623047"/>
       <use xlink:href="#DejaVuSans-30" x="127.246094"/>
       <use xlink:href="#DejaVuSans-30" x="190.869141"/>
      </g>
     </g>
    </g>
   </g>
   <g id="matplotlib.axis_2">
    <g id="ytick_1">
     <g id="line2d_7">
      <defs>
       <path id="ma26033f553" d="M 0 0 
L -3.5 0 
" style="stroke: #000000; stroke-width: 0.8"/>
      </defs>
      <g>
       <use xlink:href="#ma26033f553" x="57.6" y="256.440676" style="stroke: #000000; stroke-width: 0.8"/>
      </g>
     </g>
     <g id="text_7">
      <!-- 4050 -->
      <g transform="translate(25.15 260.239895)scale(0.1 -0.1)">
       <use xlink:href="#DejaVuSans-34"/>
       <use xlink:href="#DejaVuSans-30" x="63.623047"/>
       <use xlink:href="#DejaVuSans-35" x="127.246094"/>
       <use xlink:href="#DejaVuSans-30" x="190.869141"/>
      </g>
     </g>
    </g>
    <g id="ytick_2">
     <g id="line2d_8">
      <g>
       <use xlink:href="#ma26033f553" x="57.6" y="200.247211" style="stroke: #000000; stroke-width: 0.8"/>
      </g>
     </g>
     <g id="text_8">
      <!-- 4100 -->
      <g transform="translate(25.15 204.04643)scale(0.1 -0.1)">
       <use xlink:href="#DejaVuSans-34"/>
       <use xlink:href="#DejaVuSans-31" x="63.623047"/>
       <use xlink:href="#DejaVuSans-30" x="127.246094"/>
       <use xlink:href="#DejaVuSans-30" x="190.869141"/>
      </g>
     </g>
    </g>
    <g id="ytick_3">
     <g id="line2d_9">
      <g>
       <use xlink:href="#ma26033f553" x="57.6" y="144.053746" style="stroke: #000000; stroke-width: 0.8"/>
      </g>
     </g>
     <g id="text_9">
      <!-- 4150 -->
      <g transform="translate(25.15 147.852965)scale(0.1 -0.1)">
       <use xlink:href="#DejaVuSans-34"/>
       <use xlink:href="#DejaVuSans-31" x="63.623047"/>
       <use xlink:href="#DejaVuSans-35" x="127.246094"/>
       <use xlink:href="#DejaVuSans-30" x="190.869141"/>
      </g>
     </g>
    </g>
    <g id="ytick_4">
     <g id="line2d_10">
      <g>
       <use xlink:href="#ma26033f553" x="57.6" y="87.860281" style="stroke: #000000; stroke-width: 0.8"/>
      </g>
     </g>
     <g id="text_10">
      <!-- 4200 -->
      <g transform="translate(25.15 91.6595)scale(0.1 -0.1)">
       <use xlink:href="#DejaVuSans-34"/>
       <use xlink:href="#DejaVuSans-32" x="63.623047"/>
       <use xlink:href="#DejaVuSans-30" x="127.246094"/>
       <use xlink:href="#DejaVuSans-30" x="190.869141"/>
      </g>
     </g>
    </g>
   </g>
   <g id="line2d_11">
    <path d="M 73.832727 159.326955 
L 73.896149 158.174001 
L 74.022992 174.600162 
L 74.086413 168.54839 
L 74.149835 168.980815 
L 74.276678 175.608791 
L 74.403521 166.531132 
L 74.530364 154.860012 
L 74.657206 176.040669 
L 74.720628 173.447209 
L 74.784049 172.294804 
L 74.847471 177.91415 
L 74.910892 176.473095 
L 74.974314 170.997525 
L 75.037735 172.150479 
L 75.101157 175.608791 
L 75.481686 160.047482 
L 75.735372 180.651387 
L 75.989058 156.87727 
L 76.052479 157.021595 
L 76.1159 160.047482 
L 76.242743 156.012966 
L 76.306165 160.335583 
L 76.369586 157.309697 
L 76.433008 153.419506 
L 76.496429 153.707608 
L 76.623272 154.716237 
L 76.750115 145.638577 
L 76.876958 171.718052 
L 76.94038 170.997525 
L 77.067223 154.571912 
L 77.130644 156.445393 
L 77.257487 143.045117 
L 77.320909 151.257924 
L 77.38433 147.943937 
L 77.447752 137.425771 
L 77.511173 143.333219 
L 77.574594 155.148114 
L 77.638016 151.257924 
L 77.764859 135.84094 
L 77.82828 137.425771 
L 77.955123 145.638577 
L 78.018545 137.137669 
L 78.081966 142.900792 
L 78.145388 159.18263 
L 78.208809 148.664464 
L 78.272231 139.010602 
L 78.399074 160.911786 
L 78.462495 153.419506 
L 78.525917 154.716237 
L 78.589338 155.580541 
L 78.65276 153.995709 
L 78.716181 155.292439 
L 78.779603 154.428135 
L 78.906446 154.860012 
L 79.160131 140.884083 
L 79.223553 144.91805 
L 79.350396 138.722501 
L 79.477239 163.217145 
L 79.54066 162.784718 
L 79.667503 145.926679 
L 79.730925 157.597799 
L 79.794346 156.301068 
L 80.048032 139.587354 
L 80.111454 156.301068 
L 80.174875 156.156743 
L 80.238297 139.154927 
L 80.301718 140.884083 
L 80.428561 160.479359 
L 80.618825 151.257924 
L 80.682247 152.98708 
L 80.745668 161.056111 
L 80.80909 160.335583 
L 80.935933 154.139485 
L 81.062776 157.742122 
L 81.189619 137.858197 
L 81.25304 140.163556 
L 81.379883 163.217145 
L 81.570148 146.21478 
L 81.633569 150.969823 
L 81.760412 158.606426 
L 82.014098 151.546025 
L 82.458048 163.217145 
L 82.584891 155.580541 
L 82.711734 168.980815 
L 82.838577 156.58917 
L 82.96542 171.718052 
L 83.092263 166.243031 
L 83.219106 156.87727 
L 83.345949 159.326955 
L 83.40937 162.352841 
L 83.472792 160.623684 
L 83.663056 150.681722 
L 83.726478 136.705244 
L 83.789899 139.875455 
L 83.853321 146.935308 
L 83.916742 139.73113 
L 83.980164 139.875455 
L 84.043585 147.223408 
L 84.107007 142.036488 
L 84.170428 143.621319 
L 84.23385 150.537396 
L 84.360693 139.875455 
L 84.424114 156.301068 
L 84.487536 155.868641 
L 84.614379 133.679357 
L 84.6778 144.198071 
L 84.741221 141.604062 
L 84.804643 138.146298 
L 84.931486 158.894528 
L 85.058329 135.84094 
L 85.185172 157.742122 
L 85.438858 138.866826 
L 85.565701 139.298703 
L 85.629122 139.010602 
L 85.755965 154.139485 
L 85.882808 140.163556 
L 86.136494 161.920415 
L 86.199915 154.860012 
L 86.263337 156.87727 
L 86.326758 171.286175 
L 86.39018 164.513874 
L 86.453601 147.80016 
L 86.517023 150.537396 
L 86.580444 156.733495 
L 86.643866 154.28381 
L 86.707287 153.995709 
L 86.83413 152.122776 
L 86.897552 158.318326 
L 86.960973 155.580541 
L 87.024395 140.451657 
L 87.087816 141.02786 
L 87.151238 152.122776 
L 87.214659 147.223408 
L 87.278081 139.154927 
L 87.341502 141.315961 
L 87.404924 142.900792 
L 87.595188 140.019231 
L 87.722031 144.053746 
L 87.848874 138.578725 
L 87.975717 155.724866 
L 88.10256 139.298703 
L 88.229403 168.404065 
L 88.292824 163.505246 
L 88.356246 156.58917 
L 88.419667 158.030224 
L 88.54651 160.047482 
L 88.673353 141.892712 
L 88.736775 148.088262 
L 88.800196 159.758832 
L 88.927039 141.315961 
L 89.053882 160.191258 
L 89.117303 159.758832 
L 89.244146 155.148114 
L 89.307568 160.911786 
L 89.370989 155.580541 
L 89.434411 136.849569 
L 89.497832 138.146298 
L 89.561254 152.698979 
L 89.624675 146.791531 
L 89.688097 134.976087 
L 89.751518 137.281446 
L 89.878361 142.32459 
L 89.941783 141.02786 
L 90.005204 141.892712 
L 90.068626 167.251659 
L 90.132047 155.148114 
L 90.195469 152.842755 
L 90.385733 159.903157 
L 90.512576 155.580541 
L 90.639419 161.056111 
L 90.766262 144.486173 
L 90.956526 101.692434 
L 91.019948 102.412961 
L 91.210212 105.871275 
L 91.337055 98.522772 
L 91.463898 107.599882 
L 91.590741 99.819501 
L 91.654163 101.692434 
L 91.717584 105.871275 
L 91.844427 91.606695 
L 91.97127 104.718321 
L 92.034691 103.854017 
L 92.098113 106.447477 
L 92.161534 105.72695 
L 92.224956 107.02368 
L 92.288377 113.651654 
L 92.351799 110.337667 
L 92.41522 101.980536 
L 92.542063 120.567731 
L 92.605485 114.80406 
L 92.732328 117.974271 
L 92.795749 109.90524 
L 92.859171 113.795979 
L 92.922592 124.746022 
L 92.986014 119.847204 
L 93.049435 114.227858 
L 93.303121 142.468915 
L 93.429964 117.398069 
L 93.493385 125.898976 
L 93.556807 143.909421 
L 93.620228 141.315961 
L 93.68365 136.273365 
L 93.747071 142.32459 
L 93.810493 140.884083 
L 93.873914 138.722501 
L 93.937336 142.757016 
L 94.000757 142.180813 
L 94.064179 141.02786 
L 94.1276 144.053746 
L 94.254443 133.24748 
L 94.381286 157.021595 
L 94.508129 140.451657 
L 94.634972 160.911786 
L 94.761815 142.900792 
L 94.825236 143.765645 
L 94.952079 156.87727 
L 95.015501 150.969823 
L 95.078922 154.716237 
L 95.142344 156.301068 
L 95.205765 150.249295 
L 95.39603 171.429951 
L 95.522873 153.419506 
L 95.649716 160.335583 
L 95.776559 147.079633 
L 95.903402 176.473095 
L 95.966823 174.311513 
L 96.030245 165.378178 
L 96.093666 167.107334 
L 96.220509 175.464466 
L 96.347352 160.191258 
L 96.474195 177.049298 
L 96.537616 168.980815 
L 96.601038 171.718052 
L 96.664459 178.634129 
L 96.727881 173.73531 
L 96.791302 170.565648 
L 96.918145 182.524868 
L 97.044988 167.395436 
L 97.171831 193.619236 
L 97.235253 192.034405 
L 97.298674 190.305249 
L 97.55236 198.950481 
L 97.615781 193.763561 
L 97.679203 195.060291 
L 97.869467 211.053753 
L 97.99631 204.425502 
L 98.123153 213.070735 
L 98.249996 174.600162 
L 98.313418 173.879635 
L 98.440261 165.522503 
L 98.503682 169.412694 
L 98.567104 168.404065 
L 98.693947 158.462101 
L 98.82079 178.922779 
L 98.884211 177.193623 
L 98.947633 169.700794 
L 99.011054 174.167736 
L 99.074475 178.346027 
L 99.201318 165.95493 
L 99.26474 155.724866 
L 99.328161 156.012966 
L 99.391583 161.056111 
L 99.518426 149.09689 
L 99.581847 157.742122 
L 99.645269 156.156743 
L 99.70869 154.716237 
L 99.835533 173.303433 
L 99.962376 151.834127 
L 100.025798 159.18263 
L 100.089219 156.156743 
L 100.152641 156.301068 
L 100.216062 166.963559 
L 100.279484 163.07282 
L 100.342905 153.275181 
L 100.406327 158.894528 
L 100.469748 165.234402 
L 100.596591 156.58917 
L 100.660012 158.174001 
L 100.786855 152.554654 
L 100.97712 160.335583 
L 101.040541 159.326955 
L 101.167384 155.580541 
L 101.230806 155.868641 
L 101.294227 156.012966 
L 101.357649 155.004338 
L 101.484492 160.335583 
L 101.674756 151.546025 
L 101.801599 175.752567 
L 101.928442 155.148114 
L 101.991863 162.352841 
L 102.055285 159.18263 
L 102.118706 153.131405 
L 102.308971 169.557019 
L 102.435814 153.995709 
L 102.562657 164.658199 
L 102.626078 163.793347 
L 102.752921 172.294804 
L 102.879764 162.929043 
L 102.943186 165.666828 
L 103.070029 180.363285 
L 103.196872 161.632313 
L 103.260293 163.07282 
L 103.323715 165.95493 
L 103.387136 174.023411 
L 103.450557 168.115963 
L 103.704243 139.010602 
L 103.831086 162.640942 
L 103.894508 141.604062 
L 103.957929 144.486173 
L 104.021351 159.903157 
L 104.084772 152.698979 
L 104.148194 147.367733 
L 104.275037 157.165372 
L 104.338458 145.494802 
L 104.40188 145.638577 
L 104.465301 157.885899 
L 104.528723 153.275181 
L 104.592144 138.290075 
L 104.655566 139.587354 
L 104.718987 143.333219 
L 104.782408 140.163556 
L 104.909251 157.885899 
L 104.972673 151.546025 
L 105.036094 152.554654 
L 105.099516 153.995709 
L 105.226359 145.494802 
L 105.416623 153.707608 
L 105.543466 149.817418 
L 105.606888 152.122776 
L 105.670309 151.69035 
L 105.733731 150.39362 
L 105.860574 158.174001 
L 105.987417 144.341848 
L 106.11426 152.698979 
L 106.241102 149.961194 
L 106.367945 174.455838 
L 106.431367 173.879635 
L 106.494788 169.700794 
L 106.621631 176.040669 
L 106.685053 171.429951 
L 106.748474 173.303433 
L 106.875317 169.989444 
L 107.00216 179.066556 
L 107.129003 172.582905 
L 107.192425 173.591534 
L 107.255846 171.862377 
L 107.382689 176.32877 
L 107.446111 175.464466 
L 107.509532 174.167736 
L 107.636375 164.658199 
L 107.763218 179.066556 
L 107.890061 157.453473 
L 107.953482 164.225773 
L 108.016904 173.879635 
L 108.080325 171.14185 
L 108.27059 150.969823 
L 108.397433 156.301068 
L 108.460854 155.148114 
L 108.587697 159.47073 
L 108.651119 157.453473 
L 108.71454 159.326955 
L 108.777962 158.174001 
L 108.841383 152.842755 
L 108.904805 155.292439 
L 108.968226 160.191258 
L 109.031648 158.174001 
L 109.095069 156.445393 
L 109.15849 159.47073 
L 109.285333 154.428135 
L 109.412176 173.014782 
L 109.539019 156.301068 
L 109.665862 159.326955 
L 109.792705 152.98708 
L 109.856127 149.240666 
L 109.98297 156.87727 
L 110.046391 151.834127 
L 110.173234 173.159108 
L 110.236656 164.658199 
L 110.300077 154.716237 
L 110.363499 157.165372 
L 110.807449 153.995709 
L 110.87087 159.903157 
L 110.997713 135.984715 
L 111.124556 151.546025 
L 111.251399 139.298703 
L 111.441664 152.842755 
L 111.505085 159.18263 
L 111.568507 153.707608 
L 111.631928 155.292439 
L 111.69535 160.767461 
L 111.758771 157.597799 
L 111.885614 161.056111 
L 111.949036 153.419506 
L 112.012457 157.309697 
L 112.075878 168.692166 
L 112.1393 160.623684 
L 112.202721 156.445393 
L 112.266143 172.006154 
L 112.329564 171.14185 
L 112.392986 155.580541 
L 112.456407 158.750751 
L 112.58325 175.608791 
L 112.773515 157.453473 
L 112.900358 174.455838 
L 113.027201 157.597799 
L 113.154044 181.083812 
L 113.217465 178.778454 
L 113.280887 176.040669 
L 113.344308 177.6255 
L 113.471151 175.320141 
L 113.534572 175.896892 
L 113.661415 190.593349 
L 113.788258 167.827863 
L 113.85168 177.337398 
L 113.915101 192.46683 
L 113.978523 181.804341 
L 114.041944 175.320141 
L 114.168787 196.788899 
L 114.422473 162.06474 
L 114.485895 177.337398 
L 114.549316 173.447209 
L 114.612738 176.32877 
L 114.676159 185.694531 
L 114.739581 180.651387 
L 114.803002 178.490352 
L 114.866423 182.956745 
L 114.929845 180.939487 
L 115.183531 171.574276 
L 115.373795 195.204067 
L 115.437217 192.46683 
L 115.56406 193.619236 
L 115.817746 188.720417 
L 115.944589 183.10107 
L 116.071432 194.195438 
L 116.134853 191.746303 
L 116.261696 188.432316 
L 116.388539 197.077548 
L 116.515382 175.608791 
L 116.578803 180.651387 
L 116.705646 188.576091 
L 116.769068 184.685902 
L 116.895911 171.862377 
L 117.022754 178.202252 
L 117.086175 178.057927 
L 117.213018 160.047482 
L 117.339861 175.608791 
L 117.403283 174.743939 
L 117.466704 196.500797 
L 117.530126 191.601978 
L 117.593547 168.404065 
L 117.656969 175.320141 
L 117.72039 172.43858 
L 117.783811 150.537396 
L 117.847233 154.860012 
L 117.910654 163.361469 
L 118.037497 149.817418 
L 118.16434 167.827863 
L 118.418026 141.460286 
L 118.544869 157.742122 
L 118.608291 155.868641 
L 118.671712 156.87727 
L 118.735134 156.301068 
L 118.798555 151.978452 
L 118.861977 153.995709 
L 118.98882 158.462101 
L 119.052241 157.021595 
L 119.115663 160.623684 
L 119.179084 174.023411 
L 119.242505 169.989444 
L 119.369348 140.595434 
L 119.559613 167.972188 
L 119.686456 138.290075 
L 119.813299 155.724866 
L 119.87672 154.571912 
L 119.940142 155.148114 
L 120.003563 153.707608 
L 120.130406 171.574276 
L 120.257249 153.419506 
L 120.320671 157.021595 
L 120.384092 156.58917 
L 120.510935 158.030224 
L 120.637778 154.28381 
L 120.828042 158.462101 
L 120.954885 151.546025 
L 121.018307 149.09689 
L 121.081728 150.826047 
L 121.208571 159.47073 
L 121.335414 153.419506 
L 121.398836 154.139485 
L 121.525679 161.344212 
L 121.652522 150.969823 
L 121.779365 162.784718 
L 121.906208 150.249295 
L 122.03305 172.726681 
L 122.096472 171.862377 
L 122.223315 149.528768 
L 122.286736 153.851384 
L 122.413579 170.709423 
L 122.477001 160.335583 
L 122.603844 175.176365 
L 122.667265 176.473095 
L 122.730687 175.176365 
L 122.85753 190.305249 
L 122.984373 173.014782 
L 123.111216 189.440945 
L 123.174637 188.576091 
L 123.238059 186.270733 
L 123.364902 174.743939 
L 123.428323 183.10107 
L 123.491744 181.660016 
L 123.618587 172.871006 
L 123.682009 174.600162 
L 123.808852 181.948116 
L 123.935695 171.574276 
L 124.189381 184.253475 
L 124.379645 155.292439 
L 124.443067 162.784718 
L 124.56991 172.43858 
L 124.696753 161.344212 
L 124.823596 176.473095 
L 124.950438 164.370098 
L 125.01386 175.896892 
L 125.077281 167.684086 
L 125.140703 156.156743 
L 125.267546 171.14185 
L 125.330967 159.18263 
L 125.394389 160.623684 
L 125.584653 173.303433 
L 125.711496 178.346027 
L 125.838339 170.853748 
L 125.901761 175.464466 
L 125.965182 174.888264 
L 126.155447 167.972188 
L 126.345711 177.481724 
L 126.535975 163.649571 
L 126.72624 179.498981 
L 126.853083 169.989444 
L 126.916504 172.582905 
L 126.979926 176.616871 
L 127.043347 173.73531 
L 127.233612 171.14185 
L 127.360455 158.318326 
L 127.550719 176.184994 
L 127.677562 158.030224 
L 127.804405 165.522503 
L 127.867826 161.056111 
L 127.994669 172.150479 
L 128.058091 166.386807 
L 128.184934 176.32877 
L 128.311777 155.868641 
L 128.43862 176.616871 
L 128.502041 176.32877 
L 128.628884 154.139485 
L 128.88257 183.821598 
L 128.945992 195.204067 
L 129.072835 167.539761 
L 129.136256 175.464466 
L 129.199677 172.294804 
L 129.263099 155.724866 
L 129.32652 164.801976 
L 129.389942 183.533497 
L 129.453363 169.989444 
L 129.516785 152.122776 
L 129.580206 162.352841 
L 129.770471 183.965374 
L 129.833892 181.948116 
L 129.897314 174.311513 
L 129.960735 175.752567 
L 130.024157 176.184994 
L 130.087578 169.557019 
L 130.151 172.871006 
L 130.214421 178.922779 
L 130.341264 157.885899 
L 130.404686 158.030224 
L 130.468107 164.801976 
L 130.531529 162.640942 
L 130.848636 137.137669 
L 130.975479 169.845119 
L 131.0389 165.378178 
L 131.165743 135.120413 
L 131.292586 163.505246 
L 131.419429 139.010602 
L 131.482851 143.045117 
L 131.609694 163.505246 
L 131.673115 157.742122 
L 131.799958 142.180813 
L 131.926801 174.455838 
L 132.117065 156.012966 
L 132.30733 158.174001 
L 132.370751 156.012966 
L 132.497594 149.528768 
L 132.624437 158.174001 
L 132.687859 157.165372 
L 132.814702 152.698979 
L 132.941545 171.14185 
L 133.068388 142.468915 
L 133.195231 162.784718 
L 133.322074 139.443029 
L 133.448917 160.191258 
L 133.512338 157.453473 
L 133.639181 136.417142 
L 133.702602 140.595434 
L 133.829445 162.208516 
L 133.892867 161.487988 
L 133.956288 158.318326 
L 134.01971 164.946301 
L 134.083131 164.081448 
L 134.273396 155.724866 
L 134.400239 172.871006 
L 134.46366 164.946301 
L 134.527082 159.903157 
L 134.590503 170.133221 
L 134.653925 163.937672 
L 134.717346 149.673093 
L 134.780768 152.842755 
L 134.907611 173.591534 
L 135.034453 153.275181 
L 135.097875 163.505246 
L 135.161296 179.787083 
L 135.224718 172.43858 
L 135.351561 133.823682 
L 135.414982 142.32459 
L 135.478404 159.47073 
L 135.541825 152.98708 
L 135.605247 135.120413 
L 135.668668 142.180813 
L 135.73209 159.615055 
L 135.795511 159.47073 
L 135.858933 157.597799 
L 135.922354 160.623684 
L 135.985776 158.174001 
L 136.112619 160.623684 
L 136.239462 130.221593 
L 136.366304 168.54839 
L 136.493147 146.935308 
L 136.556569 161.056111 
L 136.61999 156.445393 
L 136.683412 155.148114 
L 136.746833 164.081448 
L 136.810255 157.742122 
L 136.873676 152.554654 
L 137.000519 159.758832 
L 137.127362 150.826047 
L 137.254205 165.810605 
L 137.317627 163.361469 
L 137.44447 152.842755 
L 137.507891 157.165372 
L 137.634734 149.961194 
L 137.824998 160.191258 
L 137.88842 158.030224 
L 137.951841 156.445393 
L 138.015263 157.021595 
L 138.078684 158.462101 
L 138.268949 148.232037 
L 138.395792 157.165372 
L 138.459213 150.826047 
L 138.522635 151.834127 
L 138.586056 161.344212 
L 138.649478 160.623684 
L 138.712899 154.428135 
L 138.776321 176.32877 
L 138.839742 173.447209 
L 138.966585 178.634129 
L 139.093428 157.021595 
L 139.15685 166.098705 
L 139.220271 180.50761 
L 139.347114 159.903157 
L 139.473957 191.458201 
L 139.537378 184.685902 
L 139.664221 173.303433 
L 139.727643 178.346027 
L 139.791064 176.905521 
L 139.917907 170.709423 
L 139.981329 173.159108 
L 140.108172 164.801976 
L 140.235015 177.193623 
L 140.298436 175.320141 
L 140.361858 171.286175 
L 140.488701 178.346027 
L 140.552122 176.32877 
L 140.742386 169.557019 
L 140.805808 170.421323 
L 140.932651 186.126957 
L 141.059494 169.268917 
L 141.122915 172.43858 
L 141.186337 178.778454 
L 141.249758 176.616871 
L 141.31318 173.879635 
L 141.376601 174.167736 
L 141.566866 189.29662 
L 141.693709 173.591534 
L 141.820552 195.924595 
L 141.947395 173.591534 
L 142.137659 190.017147 
L 142.20108 191.169552 
L 142.327923 170.853748 
L 142.454766 199.382907 
L 142.645031 168.980815 
L 142.835295 197.653751 
L 142.898717 191.313878 
L 142.962138 185.982632 
L 143.088981 191.89008 
L 143.279246 183.677273 
L 143.342667 174.743939 
L 143.406089 179.930859 
L 143.46951 191.025776 
L 143.532932 190.881451 
L 143.596353 191.601978 
L 143.659774 196.645122 
L 143.786617 175.752567 
L 143.850039 178.490352 
L 143.976882 195.492168 
L 144.103725 167.539761 
L 144.167146 172.294804 
L 144.230568 177.049298 
L 144.293989 173.591534 
L 144.357411 173.447209 
L 144.484254 160.047482 
L 144.611097 177.337398 
L 144.674518 175.176365 
L 144.73794 175.896892 
L 144.801361 178.634129 
L 145.18189 158.894528 
L 145.245311 169.557019 
L 145.308733 166.963559 
L 145.372154 152.122776 
L 145.435576 156.87727 
L 145.562419 174.600162 
L 145.752683 154.860012 
L 145.816105 161.344212 
L 145.879526 173.73531 
L 145.942948 165.234402 
L 146.006369 149.817418 
L 146.069791 155.868641 
L 146.133212 166.098705 
L 146.196634 157.453473 
L 146.260055 161.632313 
L 146.323477 173.303433 
L 146.386898 166.098705 
L 146.450319 161.920415 
L 146.577162 167.827863 
L 146.640584 161.056111 
L 146.704005 162.352841 
L 146.89427 195.924595 
L 147.021113 169.557019 
L 147.147956 203.273098 
L 147.274799 170.565648 
L 147.401642 191.025776 
L 147.465063 178.490352 
L 147.528485 179.642758 
L 147.655328 196.212696 
L 147.782171 176.905521 
L 147.845592 179.642758 
L 147.972435 190.305249 
L 148.099278 172.43858 
L 148.162699 173.591534 
L 148.226121 178.202252 
L 148.289542 176.761196 
L 148.479807 174.167736 
L 148.543228 174.600162 
L 148.670071 177.049298 
L 148.860336 173.447209 
L 148.923757 173.879635 
L 148.987179 177.337398 
L 149.0506 177.049298 
L 149.114022 169.268917 
L 149.177443 169.557019 
L 149.304286 185.982632 
L 149.431129 171.574276 
L 149.49455 176.040669 
L 149.557972 175.176365 
L 149.684815 171.574276 
L 149.811658 179.210881 
L 149.875079 177.769825 
L 149.938501 173.591534 
L 150.065344 189.152843 
L 150.128765 188.287991 
L 150.255608 167.827863 
L 150.382451 179.354656 
L 150.445873 174.023411 
L 150.509294 164.658199 
L 150.572716 169.124592 
L 150.636137 177.769825 
L 150.699559 175.176365 
L 150.76298 173.447209 
L 150.826401 180.219508 
L 150.889823 178.057927 
L 150.953244 172.006154 
L 151.016666 173.858782 
L 151.397195 184.974003 
L 151.460616 193.907337 
L 151.714302 171.14185 
L 151.777724 172.006154 
L 151.904567 176.040669 
L 151.967988 175.608791 
L 152.221674 203.416873 
L 152.348517 165.522503 
L 152.47536 196.212696 
L 152.602203 166.531132 
L 152.729046 196.357021 
L 152.792467 189.008518 
L 152.855889 174.455838 
L 152.91931 181.228137 
L 152.982732 192.322505 
L 153.046153 182.092441 
L 153.109575 184.109699 
L 153.172996 194.051662 
L 153.299839 178.057927 
L 153.363261 181.804341 
L 153.426682 181.228137 
L 153.616946 198.374278 
L 153.743789 190.161472 
L 153.870632 208.171917 
L 153.934054 206.154659 
L 154.124318 189.729045 
L 154.251161 208.460018 
L 154.314583 204.713604 
L 154.441426 182.524868 
L 154.568269 214.943942 
L 154.695112 187.423687 
L 154.758533 191.458201 
L 154.821955 193.043034 
L 154.885376 187.999889 
L 154.948798 195.348392 
L 155.07564 174.455838 
L 155.202483 175.464466 
L 155.265905 174.311513 
L 155.456169 191.169552 
L 155.709855 168.54839 
L 155.963541 178.202252 
L 156.026963 178.346027 
L 156.153806 174.023411 
L 156.280649 186.703159 
L 156.534334 170.133221 
L 156.661177 176.616871 
L 156.724599 173.447209 
L 156.851442 191.169552 
L 156.914863 186.847484 
L 156.978285 173.73531 
L 157.041706 176.184994 
L 157.105128 181.804341 
L 157.358814 167.107334 
L 157.422235 168.836492 
L 157.485657 179.354656 
L 157.549078 176.761196 
L 157.675921 152.98708 
L 157.802764 177.049298 
L 157.929607 164.658199 
L 158.05645 175.320141 
L 158.119871 173.303433 
L 158.183293 177.91415 
L 158.246714 175.464466 
L 158.310136 171.429951 
L 158.436979 177.193623 
L 158.5004 173.591534 
L 158.563822 175.176365 
L 158.627243 177.91415 
L 158.690665 176.761196 
L 158.754086 174.600162 
L 158.817508 176.040669 
L 158.880929 176.473095 
L 158.944351 172.871006 
L 159.007772 173.303433 
L 159.071194 175.896892 
L 159.198037 166.819234 
L 159.32488 176.616871 
L 159.388301 172.150479 
L 159.451722 173.014782 
L 159.578565 178.057927 
L 159.705408 175.752567 
L 159.832251 171.286175 
L 159.895673 171.574276 
L 160.022516 178.202252 
L 160.149359 159.615055 
L 160.276202 177.481724 
L 160.339623 173.303433 
L 160.466466 178.057927 
L 160.529888 170.709423 
L 160.593309 176.473095 
L 160.656731 197.509426 
L 160.720152 194.195438 
L 160.783573 174.167736 
L 160.846995 178.778454 
L 160.910416 185.694531 
L 160.973838 175.320141 
L 161.037259 178.202252 
L 161.100681 185.694531 
L 161.227524 170.133221 
L 161.354367 178.922779 
L 161.48121 170.997525 
L 161.608053 193.331134 
L 161.671474 187.711788 
L 161.798317 173.879635 
L 161.988582 188.576091 
L 162.052003 189.008518 
L 162.178846 177.193623 
L 162.242267 181.083812 
L 162.305689 184.397801 
L 162.432532 169.268917 
L 162.559375 191.169552 
L 162.622796 189.29662 
L 162.749639 172.43858 
L 162.876482 185.262104 
L 162.939904 183.677273 
L 163.003325 179.642758 
L 163.066747 187.135585 
L 163.130168 160.623684 
L 163.19359 165.810605 
L 163.383854 172.726681 
L 163.574119 178.057927 
L 163.63754 176.616871 
L 163.700961 172.006154 
L 163.764383 173.591534 
L 163.891226 178.634129 
L 164.018069 175.896892 
L 164.08149 178.634129 
L 164.144912 178.202252 
L 164.208333 174.023411 
L 164.271755 174.311513 
L 164.335176 175.176365 
L 164.462019 160.911786 
L 164.588862 178.346027 
L 164.90597 157.165372 
L 164.969391 159.18263 
L 165.032813 158.750751 
L 165.159655 150.969823 
L 165.476763 165.090077 
L 165.603606 156.87727 
L 165.667027 161.199887 
L 165.730449 158.462101 
L 165.79387 156.012966 
L 165.984135 163.649571 
L 166.047556 170.997525 
L 166.110978 168.115963 
L 166.174399 157.885899 
L 166.237821 162.06474 
L 166.301242 170.709423 
L 166.364664 165.378178 
L 166.428085 159.758832 
L 166.491507 163.361469 
L 166.554928 162.496617 
L 166.681771 153.995709 
L 166.872035 161.199887 
L 166.935457 160.047482 
L 167.0623 162.208516 
L 167.125721 159.18263 
L 167.189143 160.047482 
L 167.252564 170.565648 
L 167.315986 169.700794 
L 167.379407 159.615055 
L 167.442829 166.963559 
L 167.50625 181.371914 
L 167.569672 173.879635 
L 167.696515 158.174001 
L 167.759936 159.758832 
L 167.886779 154.28381 
L 168.013622 159.47073 
L 168.267308 151.69035 
L 168.330729 157.885899 
L 168.394151 156.156743 
L 168.520994 140.739759 
L 168.584415 151.546025 
L 168.647837 149.09689 
L 168.711258 138.001973 
L 168.77468 142.32459 
L 168.901523 157.165372 
L 169.028366 152.98708 
L 169.155209 157.742122 
L 169.282052 151.546025 
L 169.408894 175.03204 
L 169.472316 170.997525 
L 169.599159 158.606426 
L 169.66258 162.208516 
L 169.726002 160.191258 
L 169.789423 157.453473 
L 169.852845 159.47073 
L 169.916266 158.174001 
L 170.043109 150.537396 
L 170.233374 159.18263 
L 170.296795 161.344212 
L 170.360217 158.750751 
L 170.423638 161.487988 
L 170.48706 172.43858 
L 170.550481 169.268917 
L 170.677324 147.079633 
L 170.804167 157.021595 
L 170.93101 150.681722 
L 171.057853 155.868641 
L 171.121274 153.563283 
L 171.184696 156.301068 
L 171.311539 147.943937 
L 171.37496 143.621319 
L 171.438382 146.647206 
L 171.501803 150.537396 
L 171.628646 138.290075 
L 171.755489 160.191258 
L 171.882332 148.376362 
L 172.009175 159.18263 
L 172.072597 156.87727 
L 172.136018 153.851384 
L 172.19944 153.995709 
L 172.326282 159.903157 
L 172.389704 159.038853 
L 172.453125 156.156743 
L 172.516547 158.174001 
L 172.579968 159.615055 
L 172.64339 158.894528 
L 172.706811 158.606426 
L 172.770233 158.750751 
L 172.833654 160.335583 
L 172.897076 159.615055 
L 173.023919 153.995709 
L 173.08734 155.724866 
L 173.150762 153.851384 
L 173.214183 155.868641 
L 173.341026 169.700794 
L 173.467869 153.419506 
L 173.594712 169.412694 
L 173.658134 164.513874 
L 173.721555 159.47073 
L 173.784976 160.479359 
L 173.848398 160.479359 
L 174.102084 157.021595 
L 174.165505 160.623684 
L 174.228927 159.326955 
L 174.292348 159.47073 
L 174.419191 173.447209 
L 174.482613 173.159108 
L 174.609456 157.021595 
L 174.736299 171.286175 
L 174.79972 160.191258 
L 174.863142 161.344212 
L 174.926563 171.286175 
L 174.989985 164.658199 
L 175.053406 163.217145 
L 175.116828 175.752567 
L 175.180249 173.159108 
L 175.24367 170.709423 
L 175.307092 177.481724 
L 175.433935 159.18263 
L 175.560778 177.769825 
L 175.814464 159.758832 
L 175.941307 166.098705 
L 176.06815 176.32877 
L 176.321836 156.733495 
L 176.448679 159.758832 
L 176.5121 160.479359 
L 176.575521 162.640942 
L 176.638943 159.47073 
L 176.765786 146.359106 
L 176.829207 158.750751 
L 176.892629 155.724866 
L 176.95605 149.817418 
L 177.082893 164.801976 
L 177.146315 156.445393 
L 177.209736 156.58917 
L 177.273158 155.868641 
L 177.336579 152.266553 
L 177.463422 159.326955 
L 177.526844 156.733495 
L 177.653687 137.713872 
L 177.717108 140.595434 
L 177.78053 145.2067 
L 177.843951 143.477544 
L 177.970794 111.634398 
L 178.034215 112.066823 
L 178.097637 126.331403 
L 178.161058 116.245115 
L 178.22448 99.675176 
L 178.351323 128.492437 
L 178.414744 124.16982 
L 178.478166 122.008787 
L 178.541587 126.475179 
L 178.605009 125.754651 
L 178.731852 123.305516 
L 178.795273 123.88172 
L 178.858695 125.610876 
L 178.922116 123.161191 
L 178.985538 124.890347 
L 179.048959 135.984715 
L 179.112381 134.976087 
L 179.175802 126.619504 
L 179.302645 141.892712 
L 179.366067 178.634129 
L 179.429488 176.32877 
L 179.492909 179.354656 
L 179.556331 178.057927 
L 179.619752 172.871006 
L 179.683174 174.455838 
L 179.746595 177.481724 
L 179.810017 177.193623 
L 179.873438 171.429951 
L 179.93686 176.473095 
L 180.000281 194.195438 
L 180.063703 190.017147 
L 180.127124 176.905521 
L 180.253967 201.543942 
L 180.444232 170.277546 
L 180.507653 172.294804 
L 180.571075 173.73531 
L 180.634496 171.14185 
L 180.697918 172.726681 
L 180.761339 176.905521 
L 180.824761 175.896892 
L 180.888182 174.455838 
L 181.015025 181.948116 
L 181.268711 169.412694 
L 181.395554 178.778454 
L 181.522397 166.963559 
L 181.64924 176.905521 
L 181.712661 174.888264 
L 181.776083 175.752567 
L 181.966347 158.750751 
L 182.156612 175.464466 
L 182.220033 176.761196 
L 182.410297 168.54839 
L 182.53714 171.718052 
L 182.600562 171.718052 
L 182.663983 174.023411 
L 182.790826 163.217145 
L 182.917669 181.083812 
L 182.981091 177.91415 
L 183.044512 175.752567 
L 183.171355 179.498981 
L 183.298198 172.150479 
L 183.36162 173.447209 
L 183.488463 177.6255 
L 183.615306 174.023411 
L 183.678727 175.320141 
L 183.742149 174.888264 
L 183.80557 172.150479 
L 183.868991 175.464466 
L 183.995834 197.797527 
L 184.122677 184.253475 
L 184.24952 194.627865 
L 184.376363 184.685902 
L 184.503206 194.051662 
L 184.883735 170.709423 
L 185.010578 177.91415 
L 185.074 175.608791 
L 185.200842 178.346027 
L 185.264264 171.429951 
L 185.391107 193.186809 
L 185.454528 185.838855 
L 185.51795 171.14185 
L 185.581371 174.167736 
L 185.644793 176.616871 
L 185.708214 172.871006 
L 185.771636 175.03204 
L 185.898479 168.836492 
L 186.088743 177.337398 
L 186.215586 175.608791 
L 186.279008 180.075185 
L 186.342429 179.210881 
L 186.469272 172.726681 
L 186.532694 174.167736 
L 186.659536 186.270733 
L 186.786379 172.150479 
L 187.040065 186.558834 
L 187.166908 174.167736 
L 187.23033 179.354656 
L 187.293751 175.464466 
L 187.484016 165.810605 
L 187.547437 170.853748 
L 187.610859 164.801976 
L 187.67428 165.522503 
L 187.864545 172.43858 
L 187.991388 166.531132 
L 188.11823 176.040669 
L 188.181652 173.447209 
L 188.245073 174.888264 
L 188.308495 177.769825 
L 188.435338 173.447209 
L 188.498759 175.752567 
L 188.625602 169.124592 
L 188.752445 177.481724 
L 188.815867 171.862377 
L 188.879288 172.43858 
L 188.94271 174.888264 
L 189.069553 169.989444 
L 189.196396 160.047482 
L 189.259817 169.989444 
L 189.323239 166.386807 
L 189.450082 148.808789 
L 189.513503 157.021595 
L 189.576924 151.546025 
L 189.703767 140.019231 
L 189.894032 157.597799 
L 190.147718 152.98708 
L 190.211139 152.266553 
L 190.337982 159.903157 
L 190.464825 152.842755 
L 190.591668 158.606426 
L 190.65509 158.174001 
L 190.718511 158.174001 
L 190.845354 160.479359 
L 190.972197 151.114148 
L 191.035618 151.257924 
L 191.162461 152.410878 
L 191.289304 161.056111 
L 191.352726 160.767461 
L 191.416147 155.580541 
L 191.479569 155.724866 
L 191.733255 164.184616 
L 191.986941 170.853748 
L 192.113784 155.868641 
L 192.177205 157.165372 
L 192.240627 159.038853 
L 192.304048 156.445393 
L 192.367469 156.733495 
L 192.430891 159.18263 
L 192.557734 155.724866 
L 192.621155 161.487988 
L 192.684577 161.199887 
L 192.747998 153.851384 
L 192.81142 157.021595 
L 192.874841 165.378178 
L 192.938263 161.920415 
L 193.001684 154.716237 
L 193.065106 155.004338 
L 193.191949 168.260288 
L 193.25537 166.675457 
L 193.318792 161.632313 
L 193.382213 164.801976 
L 193.509056 172.294804 
L 193.572478 168.980815 
L 193.635899 169.412694 
L 193.699321 169.845119 
L 193.826163 178.634129 
L 193.953006 152.698979 
L 194.016428 156.301068 
L 194.079849 161.056111 
L 194.143271 155.436764 
L 194.206692 158.174001 
L 194.396957 174.743939 
L 194.460378 178.778454 
L 194.5238 177.91415 
L 194.587221 171.429951 
L 194.650643 176.040669 
L 194.714064 184.109699 
L 194.777486 179.210881 
L 194.840907 173.014782 
L 194.904329 176.040669 
L 195.031172 174.600162 
L 195.094593 183.389172 
L 195.158015 182.092441 
L 195.221436 173.591534 
L 195.284857 173.879635 
L 195.348279 177.049298 
L 195.4117 176.761196 
L 195.538543 158.606426 
L 195.601965 144.486173 
L 195.665386 156.733495 
L 195.728808 151.114148 
L 195.792229 145.926679 
L 195.919072 160.335583 
L 195.982494 160.767461 
L 196.045915 169.845119 
L 196.23618 142.036488 
L 196.299601 142.180813 
L 196.426444 174.888264 
L 196.489866 170.853748 
L 196.553287 155.004338 
L 196.616709 159.18263 
L 196.68013 160.623684 
L 196.743551 152.554654 
L 196.870394 188.720417 
L 196.997237 137.713872 
L 197.060659 142.468915 
L 197.250923 172.582905 
L 197.314345 172.871006 
L 197.504609 156.012966 
L 197.631452 184.685902 
L 197.758295 145.638577 
L 197.821717 153.419506 
L 197.94856 158.318326 
L 198.011981 175.03204 
L 198.075403 173.303433 
L 198.202245 133.391255 
L 198.329088 166.098705 
L 198.455931 142.757016 
L 198.519353 145.062375 
L 198.646196 175.608791 
L 198.773039 151.257924 
L 198.899882 163.07282 
L 198.963303 144.053746 
L 199.026725 144.629948 
L 199.090146 157.309697 
L 199.153568 156.58917 
L 199.216989 157.453473 
L 199.280411 156.012966 
L 199.343832 142.036488 
L 199.407254 144.053746 
L 199.470675 163.07282 
L 199.534097 155.580541 
L 199.597518 145.062375 
L 199.660939 152.554654 
L 199.787782 137.281446 
L 199.914625 161.920415 
L 199.978047 141.748387 
L 200.041468 155.580541 
L 200.10489 172.006154 
L 200.168311 157.885899 
L 200.231733 158.894528 
L 200.295154 165.090077 
L 200.421997 151.114148 
L 200.485419 160.767461 
L 200.54884 150.969823 
L 200.612262 156.301068 
L 200.675683 176.761196 
L 200.802526 138.290075 
L 200.865948 145.494802 
L 200.99279 160.479359 
L 201.119633 153.707608 
L 201.183055 156.156743 
L 201.246476 174.888264 
L 201.309898 174.455838 
L 201.500162 152.122776 
L 201.627005 190.161472 
L 201.753848 131.950749 
L 201.880691 177.337398 
L 201.944113 148.232037 
L 202.007534 167.539761 
L 202.070956 182.380543 
L 202.197799 146.935308 
L 202.324642 171.574276 
L 202.388063 153.995709 
L 202.451484 157.309697 
L 202.514906 171.429951 
L 202.578327 164.513874 
L 202.641749 151.978452 
L 202.768592 178.922779 
L 202.832013 168.836492 
L 202.895435 157.742122 
L 202.958856 158.750751 
L 203.022278 155.148114 
L 203.085699 157.742122 
L 203.212542 192.322505 
L 203.402807 152.554654 
L 203.52965 180.219508 
L 203.656493 146.647206 
L 203.719914 184.542126 
L 203.783336 172.582905 
L 203.846757 163.649571 
L 203.9736 174.023411 
L 204.037021 173.591534 
L 204.227286 178.202252 
L 204.480972 170.421323 
L 204.607815 189.729045 
L 204.671236 182.092441 
L 204.798079 159.615055 
L 204.861501 162.208516 
L 204.988344 178.057927 
L 205.115187 157.742122 
L 205.24203 168.692166 
L 205.305451 161.920415 
L 205.432294 182.668644 
L 205.559137 133.823682 
L 205.622558 151.402249 
L 205.68598 164.801976 
L 205.749401 150.826047 
L 205.812823 154.428135 
L 205.939666 171.14185 
L 206.12993 142.036488 
L 206.256773 180.219508 
L 206.383616 145.638577 
L 206.510459 165.234402 
L 206.573881 154.28381 
L 206.700724 173.447209 
L 206.827566 155.148114 
L 207.017831 164.225773 
L 207.144674 167.684086 
L 207.271517 151.402249 
L 207.334938 157.885899 
L 207.39836 160.335583 
L 207.461781 152.698979 
L 207.588624 180.795712 
L 207.715467 148.376362 
L 207.778889 156.58917 
L 207.84231 168.260288 
L 207.905732 163.07282 
L 207.969153 157.742122 
L 208.032575 161.056111 
L 208.095996 166.386807 
L 208.222839 150.826047 
L 208.349682 165.666828 
L 208.476525 150.969823 
L 208.539946 153.563283 
L 208.603368 148.808789 
L 208.730211 166.386807 
L 208.857054 148.232037 
L 208.920475 169.989444 
L 208.983897 167.827863 
L 209.047318 143.477544 
L 209.11074 151.114148 
L 209.174161 169.845119 
L 209.301004 136.12904 
L 209.427847 155.292439 
L 209.491269 152.122776 
L 209.618111 174.167736 
L 209.744954 149.384991 
L 209.871797 169.268917 
L 209.935219 167.972188 
L 209.99864 166.243031 
L 210.188905 178.778454 
L 210.379169 153.995709 
L 210.442591 160.767461 
L 210.569434 149.240666 
L 210.696277 176.184994 
L 210.82312 152.698979 
L 210.886541 167.972188 
L 210.949963 164.513874 
L 211.013384 155.436764 
L 211.076805 159.903157 
L 211.140227 164.658199 
L 211.203648 164.513874 
L 211.330491 151.978452 
L 211.393913 159.758832 
L 211.457334 157.021595 
L 211.520756 139.443029 
L 211.584177 140.451657 
L 211.71102 161.776089 
L 211.774442 154.571912 
L 211.837863 159.615055 
L 211.901285 168.260288 
L 211.964706 164.946301 
L 212.028128 149.384991 
L 212.091549 156.301068 
L 212.154971 170.997525 
L 212.218392 166.531132 
L 212.281814 163.793347 
L 212.345235 167.107334 
L 212.472078 152.842755 
L 212.598921 175.896892 
L 212.662342 172.006154 
L 212.725764 158.030224 
L 212.789185 158.606426 
L 212.916028 181.516239 
L 213.042871 157.021595 
L 213.169714 188.720417 
L 213.296557 163.649571 
L 213.4234 175.320141 
L 213.486822 173.879635 
L 213.677086 160.479359 
L 213.803929 168.54839 
L 213.930772 179.642758 
L 214.057615 161.056111 
L 214.184458 178.202252 
L 214.438144 152.98708 
L 214.628408 177.769825 
L 214.69183 169.989444 
L 214.755251 157.885899 
L 214.882094 174.743939 
L 214.945516 154.28381 
L 215.008937 164.081448 
L 215.072359 187.135585 
L 215.13578 174.023411 
L 215.199202 164.513874 
L 215.326045 175.176365 
L 215.389466 171.286175 
L 215.516309 179.787083 
L 215.643152 155.292439 
L 215.769995 198.086177 
L 215.896838 152.410878 
L 216.150524 195.060291 
L 216.277367 152.122776 
L 216.340788 163.937672 
L 216.40421 171.862377 
L 216.594474 162.640942 
L 216.721317 159.903157 
L 216.784738 159.758832 
L 216.84816 163.937672 
L 216.911581 163.505246 
L 216.975003 151.257924 
L 217.038424 160.047482 
L 217.101846 177.049298 
L 217.165267 167.251659 
L 217.355532 155.004338 
L 217.418953 154.571912 
L 217.672639 169.989444 
L 217.736061 174.600162 
L 217.862904 153.563283 
L 217.989747 172.150479 
L 218.053168 156.445393 
L 218.11659 157.885899 
L 218.180011 162.208516 
L 218.306854 152.842755 
L 218.433697 173.591534 
L 218.56054 151.402249 
L 218.623961 164.801976 
L 218.687383 161.487988 
L 218.750804 144.629948 
L 218.814226 153.851384 
L 218.877647 165.810605 
L 218.941069 157.021595 
L 219.00449 150.969823 
L 219.131333 167.684086 
L 219.194755 154.716237 
L 219.258176 155.436764 
L 219.321598 160.623684 
L 219.385019 152.122776 
L 219.448441 153.131405 
L 219.702126 174.311513 
L 219.828969 151.834127 
L 219.892391 167.539761 
L 219.955812 157.453473 
L 220.019234 158.030224 
L 220.082655 157.885899 
L 220.336341 151.978452 
L 220.399763 156.156743 
L 220.463184 152.410878 
L 220.526606 155.004338 
L 220.590027 162.208516 
L 220.653449 158.318326 
L 220.71687 154.428135 
L 220.780292 156.733495 
L 220.907135 163.217145 
L 221.033978 145.350477 
L 221.097399 152.266553 
L 221.16082 155.580541 
L 221.224242 140.019231 
L 221.287663 142.612691 
L 221.351085 160.191258 
L 221.414506 157.453473 
L 221.477928 153.131405 
L 221.541349 160.335583 
L 221.604771 158.030224 
L 221.668192 152.122776 
L 221.731614 156.301068 
L 221.795035 158.174001 
L 221.858457 153.851384 
L 221.921878 157.742122 
L 221.9853 156.445393 
L 222.048721 146.791531 
L 222.175564 173.73531 
L 222.302407 149.09689 
L 222.365829 152.122776 
L 222.42925 149.09689 
L 222.556093 156.87727 
L 222.619514 146.21478 
L 222.746357 187.567463 
L 222.8732 136.561467 
L 223.000043 165.522503 
L 223.063465 156.445393 
L 223.190308 175.320141 
L 223.380572 154.28381 
L 223.443994 162.640942 
L 223.570837 177.049298 
L 223.69768 153.419506 
L 223.761101 156.156743 
L 223.824523 170.277546 
L 223.887944 168.692166 
L 223.951366 165.522503 
L 224.014787 179.210881 
L 224.078208 175.608791 
L 224.14163 156.58917 
L 224.205051 163.649571 
L 224.268473 181.948116 
L 224.331894 180.219508 
L 224.522159 157.309697 
L 224.649002 179.066556 
L 224.712423 167.539761 
L 224.839266 184.974003 
L 224.902688 160.335583 
L 224.966109 167.684086 
L 225.029531 185.982632 
L 225.092952 176.184994 
L 225.156374 168.980815 
L 225.219795 172.006154 
L 225.410059 161.344212 
L 225.473481 152.98708 
L 225.663745 172.294804 
L 225.727167 176.616871 
L 225.85401 156.445393 
L 225.980853 188.576091 
L 226.044274 159.903157 
L 226.107696 162.929043 
L 226.171117 176.616871 
L 226.234539 167.827863 
L 226.29796 166.819234 
L 226.361382 175.03204 
L 226.488225 150.969823 
L 226.551646 151.402249 
L 226.678489 189.008518 
L 226.741911 185.406429 
L 226.932175 158.894528 
L 226.995596 157.453473 
L 227.122439 190.737674 
L 227.249282 161.344212 
L 227.312704 168.404065 
L 227.376125 164.370098 
L 227.439547 166.243031 
L 227.502968 193.619236 
L 227.56639 193.186809 
L 227.629811 167.827863 
L 227.693233 169.124592 
L 227.946919 190.305249 
L 228.01034 174.455838 
L 228.073762 181.804341 
L 228.200605 194.77219 
L 228.327447 179.066556 
L 228.390869 193.907337 
L 228.45429 184.397801 
L 228.517712 174.311513 
L 228.581133 188.144214 
L 228.644555 183.244847 
L 228.707976 171.286175 
L 228.834819 198.229953 
L 228.961662 173.014782 
L 229.088505 189.008518 
L 229.151927 186.847484 
L 229.27877 174.888264 
L 229.342191 180.939487 
L 229.405613 178.922779 
L 229.469034 171.286175 
L 229.532456 176.040669 
L 229.595877 190.449574 
L 229.659299 190.161472 
L 229.786141 152.554654 
L 229.912984 192.610607 
L 230.039827 165.810605 
L 230.103249 183.389172 
L 230.230092 146.935308 
L 230.356935 178.202252 
L 230.420356 164.370098 
L 230.547199 177.337398 
L 230.610621 160.911786 
L 230.674042 165.522503 
L 230.737464 172.006154 
L 230.800885 164.946301 
L 230.864307 167.251659 
L 230.927728 175.896892 
L 230.99115 173.73531 
L 231.054571 170.277546 
L 231.181414 177.6255 
L 231.308257 163.505246 
L 231.371678 172.006154 
L 231.4351 178.202252 
L 231.625364 152.554654 
L 231.688786 158.750751 
L 231.752207 177.049298 
L 231.815629 172.43858 
L 231.87905 159.038853 
L 231.942472 162.496617 
L 232.005893 160.623684 
L 232.069315 151.69035 
L 232.196158 169.78311 
L 232.576686 173.73531 
L 232.640108 179.498981 
L 232.766951 157.742122 
L 232.830372 168.692166 
L 232.957215 155.148114 
L 233.020637 158.750751 
L 233.084058 152.698979 
L 233.210901 176.616871 
L 233.337744 151.114148 
L 233.464587 183.821598 
L 233.59143 134.544209 
L 233.718273 185.550206 
L 233.845116 143.045117 
L 234.03538 166.531132 
L 234.098802 171.574276 
L 234.225645 144.341848 
L 234.289066 150.249295 
L 234.415909 184.542126 
L 234.542752 130.797795 
L 234.669595 168.980815 
L 234.733017 167.684086 
L 234.85986 149.961194 
L 234.923281 155.004338 
L 235.050124 176.616871 
L 235.30381 154.571912 
L 235.430653 172.43858 
L 235.620917 150.969823 
L 235.74776 170.277546 
L 235.874603 150.105519 
L 236.001446 165.090077 
L 236.064868 144.341848 
L 236.128289 150.249295 
L 236.318554 191.601978 
L 236.381975 186.847484 
L 236.445397 187.999889 
L 236.699083 199.526684 
L 236.825926 189.58472 
L 237.079611 196.500797 
L 237.206454 209.324596 
L 237.269876 196.212696 
L 237.333297 200.679638 
L 237.396719 210.909428 
L 237.523562 193.043034 
L 237.586983 209.036495 
L 237.650405 208.604068 
L 237.777248 176.32877 
L 237.904091 207.307338 
L 237.967512 192.17818 
L 238.030934 202.696894 
L 238.094355 222.436496 
L 238.157777 208.892444 
L 238.221198 188.720417 
L 238.28462 189.29662 
L 238.411462 212.494533 
L 238.474884 204.569827 
L 238.538305 183.677273 
L 238.601727 185.118328 
L 238.665148 198.374278 
L 238.72857 195.348392 
L 238.918834 171.862377 
L 238.982256 173.591534 
L 239.045677 172.871006 
L 239.17252 190.737674 
L 239.235942 180.219508 
L 239.299363 185.838855 
L 239.426206 208.748393 
L 239.489628 208.460018 
L 239.679892 227.047213 
L 239.806735 230.217151 
L 239.870156 237.277277 
L 239.933578 236.412699 
L 239.996999 227.335315 
L 240.060421 229.064471 
L 240.123842 227.191264 
L 240.250685 207.451389 
L 240.504371 217.249301 
L 240.567793 201.25584 
L 240.631214 202.984996 
L 240.694636 223.301074 
L 240.758057 218.546031 
L 240.821479 207.595714 
L 240.948322 220.275188 
L 241.075165 207.883815 
L 241.202007 211.918056 
L 241.265429 209.324596 
L 241.392272 193.043034 
L 241.582536 212.782635 
L 241.709379 197.941852 
L 241.772801 202.984996 
L 241.899644 227.335315 
L 242.089908 193.474911 
L 242.280173 206.731136 
L 242.343594 209.468646 
L 242.533859 182.668644 
L 242.850966 221.427867 
L 242.914387 220.419238 
L 243.104652 203.705523 
L 243.231495 217.105251 
L 243.358338 186.847484 
L 243.421759 189.152843 
L 243.485181 196.788899 
L 243.548602 194.627865 
L 243.612024 189.729045 
L 243.675445 191.313878 
L 243.802288 207.163288 
L 243.929131 189.729045 
L 243.992553 202.408245 
L 244.055974 197.077548 
L 244.119395 182.380543 
L 244.182817 189.872822 
L 244.246238 200.391536 
L 244.30966 139.587354 
L 244.373081 152.410878 
L 244.626767 174.888264 
L 244.880453 150.681722 
L 244.943875 157.021595 
L 245.007296 169.268917 
L 245.070718 161.199887 
L 245.134139 153.707608 
L 245.260982 172.871006 
L 245.324404 168.404065 
L 245.387825 165.522503 
L 245.451247 168.260288 
L 245.704932 157.885899 
L 245.768354 156.58917 
L 245.895197 162.06474 
L 245.958618 161.199887 
L 246.085461 135.84094 
L 246.212304 157.309697 
L 246.275726 149.528768 
L 246.339147 142.180813 
L 246.402569 147.223408 
L 246.592833 158.894528 
L 246.719676 144.91805 
L 246.783098 154.860012 
L 246.846519 151.978452 
L 246.973362 132.526952 
L 247.227048 155.580541 
L 247.353891 145.638577 
L 247.544155 163.361469 
L 247.607577 160.911786 
L 247.73442 137.713872 
L 247.797841 141.460286 
L 247.924684 139.154927 
L 247.988106 150.826047 
L 248.051527 147.223408 
L 248.114949 134.687986 
L 248.17837 137.713872 
L 248.241792 141.172185 
L 248.305213 134.256109 
L 248.368634 137.858197 
L 248.432056 146.503429 
L 248.558899 119.847204 
L 248.685742 157.309697 
L 248.749163 149.673093 
L 248.812585 131.518323 
L 248.876006 136.561467 
L 248.939428 142.32459 
L 249.066271 131.806424 
L 249.129692 136.993344 
L 249.193114 134.832311 
L 249.256535 135.120413 
L 249.319957 139.154927 
L 249.4468 132.238851 
L 249.510221 140.595434 
L 249.573643 134.399884 
L 249.700486 103.13349 
L 249.763907 108.320409 
L 250.017593 127.628133 
L 250.144436 117.253744 
L 250.271279 124.16982 
L 250.3347 119.559102 
L 250.651808 142.900792 
L 250.715229 144.198071 
L 250.968915 135.696615 
L 251.032337 135.264736 
L 251.095758 133.968007 
L 251.222601 124.602247 
L 251.349444 144.774273 
L 251.412865 144.053746 
L 251.476287 140.307332 
L 251.60313 148.952565 
L 251.856816 137.713872 
L 251.920237 139.443029 
L 251.983659 139.73113 
L 252.300766 120.712056 
L 252.364188 130.94212 
L 252.427609 167.827863 
L 252.491031 159.326955 
L 252.554452 150.249295 
L 252.617874 156.733495 
L 252.744716 173.014782 
L 252.871559 151.257924 
L 252.934981 161.632313 
L 252.998402 168.980815 
L 253.125245 151.69035 
L 253.188667 173.014782 
L 253.252088 172.006154 
L 253.31551 157.309697 
L 253.378931 163.937672 
L 253.505774 178.490352 
L 253.632617 169.124592 
L 253.696039 171.286175 
L 253.822882 186.558834 
L 253.949725 169.989444 
L 254.076568 191.169552 
L 254.139989 180.651387 
L 254.20341 168.115963 
L 254.330253 190.737674 
L 254.520518 180.651387 
L 254.583939 181.804341 
L 254.647361 187.855564 
L 254.774204 172.582905 
L 254.901047 198.806156 
L 255.091311 173.159108 
L 255.154733 176.184994 
L 255.281576 186.415058 
L 255.344997 184.685902 
L 255.47184 195.348392 
L 255.535262 189.008518 
L 255.662104 209.324596 
L 255.788947 187.711788 
L 255.91579 205.434406 
L 256.042633 184.542126 
L 256.169476 202.984996 
L 256.296319 190.449574 
L 256.423162 205.722507 
L 256.486584 203.128773 
L 256.613427 190.593349 
L 256.803691 198.374278 
L 256.930534 176.473095 
L 257.057377 205.866558 
L 257.120798 192.17818 
L 257.247641 242.608523 
L 257.311063 226.903163 
L 257.374484 207.595714 
L 257.437906 216.528774 
L 257.501327 224.165377 
L 257.62817 215.52042 
L 257.691592 219.55466 
L 257.755013 218.690082 
L 257.881856 212.638584 
L 258.072121 191.458201 
L 258.262385 213.21506 
L 258.325807 209.036495 
L 258.389228 204.281727 
L 258.452649 205.866558 
L 258.516071 207.595714 
L 258.642914 201.832042 
L 258.769757 213.647213 
L 258.8966 183.10107 
L 259.023443 214.511791 
L 259.150286 184.542126 
L 259.213707 188.864193 
L 259.34055 193.907337 
L 259.467393 176.761196 
L 259.594236 197.077548 
L 259.657658 194.051662 
L 259.721079 195.780819 
L 259.784501 200.967738 
L 259.911343 180.075185 
L 259.974765 185.118328 
L 260.038186 192.034405 
L 260.101608 185.694531 
L 260.165029 186.558834 
L 260.228451 194.339763 
L 260.291872 190.305249 
L 260.355294 188.576091 
L 260.482137 193.763561 
L 260.60898 150.681722 
L 260.735823 165.95493 
L 260.862666 147.512058 
L 260.989509 159.615055 
L 261.05293 151.257924 
L 261.179773 164.801976 
L 261.243195 157.885899 
L 261.306616 161.776089 
L 261.433459 182.956745 
L 261.560302 157.885899 
L 261.623723 158.318326 
L 261.687145 162.208516 
L 261.813988 151.978452 
L 262.131095 167.827863 
L 262.448203 156.445393 
L 262.575046 163.649571 
L 262.701889 175.03204 
L 262.828731 157.165372 
L 262.955574 181.948116 
L 263.20926 131.662099 
L 263.272682 136.417142 
L 263.399525 161.920415 
L 263.589789 157.021595 
L 263.653211 159.326955 
L 263.716632 158.894528 
L 263.780054 157.453473 
L 263.843475 158.318326 
L 263.906897 160.335583 
L 264.03374 148.952565 
L 264.160583 182.092441 
L 264.224004 178.202252 
L 264.414268 162.06474 
L 264.667954 181.660016 
L 264.731376 181.228137 
L 264.858219 160.479359 
L 264.92164 161.487988 
L 265.048483 178.057927 
L 265.111905 175.03204 
L 265.175326 176.761196 
L 265.238748 177.193623 
L 265.365591 186.415058 
L 265.492434 175.03204 
L 265.555855 175.464466 
L 265.619276 179.787083 
L 265.682698 195.204067 
L 265.746119 192.46683 
L 265.872962 169.268917 
L 265.936384 173.447209 
L 265.999805 166.531132 
L 266.063227 169.700794 
L 266.126648 178.634129 
L 266.19007 174.600162 
L 266.253491 169.124592 
L 266.380334 176.040669 
L 266.443756 172.006154 
L 266.570599 187.567463 
L 266.697442 170.277546 
L 266.824285 177.337398 
L 266.887706 170.421323 
L 266.951128 172.294804 
L 267.014549 175.608791 
L 267.141392 170.133221 
L 267.268235 193.331134 
L 267.331656 186.415058 
L 267.395078 177.769825 
L 267.458499 179.642758 
L 267.521921 182.236218 
L 267.648764 167.827863 
L 267.712185 173.447209 
L 267.839028 189.152843 
L 267.965871 181.804341 
L 268.092714 187.567463 
L 268.219557 181.516239 
L 268.282979 188.576091 
L 268.409822 172.006154 
L 268.473243 177.049298 
L 268.536664 177.337398 
L 268.663507 168.54839 
L 268.726929 169.557019 
L 268.853772 165.810605 
L 269.107458 176.32877 
L 269.234301 169.989444 
L 269.297722 172.150479 
L 269.424565 182.812969 
L 269.487987 182.524868 
L 269.61483 168.980815 
L 269.678251 171.862377 
L 269.741673 174.600162 
L 269.805094 170.277546 
L 269.868516 170.709423 
L 269.931937 176.616871 
L 269.995358 174.455838 
L 270.05878 167.251659 
L 270.122201 172.006154 
L 270.185623 181.371914 
L 270.312466 155.148114 
L 270.375887 159.903157 
L 270.439309 174.888264 
L 270.50273 166.098705 
L 270.566152 148.664464 
L 270.629573 155.004338 
L 270.692995 168.54839 
L 270.756416 159.326955 
L 270.819838 156.156743 
L 270.883259 168.980815 
L 270.946681 161.487988 
L 271.010102 151.546025 
L 271.136945 177.91415 
L 271.263788 156.301068 
L 271.32721 155.580541 
L 271.390631 152.410878 
L 271.517474 167.684086 
L 271.644317 152.698979 
L 271.707738 154.428135 
L 271.834581 161.632313 
L 272.024846 155.724866 
L 272.088267 149.673093 
L 272.21511 158.606426 
L 272.278532 149.240666 
L 272.341953 154.716237 
L 272.468796 176.32877 
L 272.595639 154.860012 
L 272.785903 168.671862 
L 273.166432 173.73531 
L 273.229854 170.997525 
L 273.293275 175.752567 
L 273.356697 174.888264 
L 273.48354 155.004338 
L 273.610383 171.718052 
L 273.673804 169.700794 
L 273.737226 168.54839 
L 273.864069 163.07282 
L 273.990912 164.946301 
L 274.117755 173.014782 
L 274.181176 168.54839 
L 274.308019 172.294804 
L 274.37144 170.421323 
L 274.434862 176.473095 
L 274.498283 172.006154 
L 274.561705 171.14185 
L 274.625126 179.354656 
L 274.751969 158.606426 
L 274.878812 177.049298 
L 274.942234 175.176365 
L 275.005655 177.049298 
L 275.132498 155.292439 
L 275.19592 163.505246 
L 275.259341 179.930859 
L 275.322763 172.006154 
L 275.386184 158.606426 
L 275.513027 189.729045 
L 275.576449 189.152843 
L 275.63987 190.305249 
L 275.766713 170.565648 
L 275.830134 176.616871 
L 275.893556 179.498981 
L 275.956977 174.023411 
L 276.08382 187.855564 
L 276.147242 168.260288 
L 276.210663 170.277546 
L 276.274085 183.965374 
L 276.337506 175.176365 
L 276.400928 177.481724 
L 276.464349 196.212696 
L 276.527771 190.449574 
L 276.718035 156.445393 
L 276.9083 195.060291 
L 276.971721 194.339763 
L 277.035143 196.212696 
L 277.161985 207.739765 
L 277.225407 206.154659 
L 277.288828 209.901073 
L 277.35225 207.019237 
L 277.479093 193.763561 
L 277.669357 214.511791 
L 277.859622 210.045124 
L 277.986465 217.681727 
L 278.113308 211.341853 
L 278.176729 217.393352 
L 278.240151 213.503162 
L 278.303572 203.561198 
L 278.366994 205.578456 
L 278.493837 210.909428 
L 278.557258 210.333224 
L 278.684101 229.208522 
L 278.810944 209.756748 
L 278.874365 216.817149 
L 278.937787 215.087993 
L 279.128051 204.569827 
L 279.191473 203.273098 
L 279.254894 211.197803 
L 279.318316 206.875187 
L 279.50858 186.99126 
L 279.698845 191.601978 
L 279.762266 192.034405 
L 279.825688 195.060291 
L 279.952531 212.782635 
L 280.015952 210.909428 
L 280.079373 214.36774 
L 280.206216 231.801982 
L 280.269638 230.505252 
L 280.459902 246.498714 
L 280.523324 245.490085 
L 280.586745 246.066561 
L 280.650167 245.201983 
L 280.77701 221.571917 
L 280.840431 226.903163 
L 280.903853 229.352573 
L 280.967274 219.55466 
L 281.030696 219.842761 
L 281.094117 222.292446 
L 281.157539 213.791264 
L 281.22096 217.105251 
L 281.284382 230.793353 
L 281.347803 226.326686 
L 281.411224 217.105251 
L 281.538067 229.928775 
L 281.728332 207.883815 
L 281.791753 211.341853 
L 281.855175 218.11388 
L 281.918596 216.9612 
L 281.982018 213.647213 
L 282.045439 215.52042 
L 282.172282 224.597804 
L 282.235704 222.580546 
L 282.299125 217.825778 
L 282.425968 233.675189 
L 282.48939 228.632045 
L 282.552811 219.266559 
L 282.616233 226.759113 
L 282.679654 224.309428 
L 282.743076 212.494533 
L 282.806497 216.240673 
L 282.869918 217.969829 
L 282.996761 200.967738 
L 283.060183 204.569827 
L 283.187026 200.102886 
L 283.313869 204.569827 
L 283.504133 225.029957 
L 283.630976 223.012699 
L 283.694398 225.750484 
L 283.821241 211.774006 
L 283.884662 213.935313 
L 284.011505 206.010608 
L 284.074927 207.595714 
L 284.20177 189.152843 
L 284.392034 213.359111 
L 284.518877 189.440945 
L 284.582298 194.627865 
L 284.64572 208.892444 
L 284.709141 203.8493 
L 284.899406 158.318326 
L 284.962827 161.056111 
L 285.026249 161.776089 
L 285.216513 190.017147 
L 285.343356 188.432316 
L 285.470199 175.320141 
L 285.533621 179.642758 
L 285.597042 190.017147 
L 285.660464 185.694531 
L 285.723885 178.634129 
L 285.850728 191.89008 
L 285.914149 190.305249 
L 285.977571 189.58472 
L 286.167835 175.03204 
L 286.294678 176.616871 
L 286.3581 178.346027 
L 286.421521 175.176365 
L 286.484943 175.464466 
L 286.548364 179.210881 
L 286.675207 156.301068 
L 286.80205 171.429951 
L 286.928893 154.571912 
L 287.055736 158.318326 
L 287.182579 178.634129 
L 287.309422 161.632313 
L 287.372843 170.133221 
L 287.436265 164.225773 
L 287.499686 151.834127 
L 287.563108 154.428135 
L 287.626529 158.894528 
L 287.689951 156.012966 
L 287.753372 155.868641 
L 287.880215 159.18263 
L 287.943637 158.894528 
L 288.07048 176.184994 
L 288.133901 173.303433 
L 288.324166 154.571912 
L 288.51443 143.765645 
L 288.577851 152.266553 
L 288.641273 151.114148 
L 288.704694 141.02786 
L 288.768116 142.180813 
L 288.831537 146.647206 
L 288.95838 136.417142 
L 289.021802 143.765645 
L 289.085223 142.180813 
L 289.148645 136.993344 
L 289.275488 161.056111 
L 289.338909 154.860012 
L 289.402331 138.722501 
L 289.465752 139.298703 
L 289.529174 144.486173 
L 289.656017 136.993344 
L 289.719438 139.587354 
L 289.78286 137.713872 
L 289.973124 133.679357 
L 290.036545 135.696615 
L 290.099967 143.621319 
L 290.290231 114.372183 
L 290.353653 119.559102 
L 290.417074 119.703427 
L 290.480496 117.253744 
L 290.607339 135.264736 
L 290.67076 135.120413 
L 290.734182 125.034672 
L 290.797603 132.238851 
L 290.861025 135.984715 
L 290.924446 122.152562 
L 290.987868 124.890347 
L 291.178132 148.232037 
L 291.304975 160.047482 
L 291.495239 140.451657 
L 291.558661 143.333219 
L 291.622082 143.189442 
L 291.812347 138.001973 
L 291.875768 140.019231 
L 292.066033 158.318326 
L 292.192876 153.563283 
L 292.256297 155.868641 
L 292.319719 155.004338 
L 292.446562 136.849569 
L 292.573405 157.742122 
L 292.700248 135.120413 
L 292.763669 144.198071 
L 292.827091 140.595434 
L 292.890512 134.976087 
L 292.953933 138.866826 
L 293.017355 177.769825 
L 293.080776 170.709423 
L 293.207619 156.87727 
L 293.334462 185.550206 
L 293.461305 156.156743 
L 293.524727 165.522503 
L 293.588148 175.608791 
L 293.65157 172.43858 
L 293.714991 171.286175 
L 293.778413 175.03204 
L 293.841834 173.879635 
L 293.905256 172.294804 
L 294.09552 179.930859 
L 294.222363 171.429951 
L 294.349206 192.898709 
L 294.412627 190.881451 
L 294.476049 181.804341 
L 294.53947 186.847484 
L 294.602892 193.763561 
L 294.729735 175.320141 
L 294.856578 196.357021 
L 294.983421 180.795712 
L 295.110264 193.907337 
L 295.173685 190.737674 
L 295.300528 178.634129 
L 295.490793 192.46683 
L 295.554214 194.339763 
L 295.617636 189.729045 
L 295.744479 175.320141 
L 295.871321 187.423687 
L 295.934743 183.677273 
L 296.061586 192.322505 
L 296.125007 191.169552 
L 296.25185 211.629955 
L 296.378693 189.58472 
L 296.505536 207.019237 
L 296.695801 185.118328 
L 296.759222 193.043034 
L 296.822644 192.610607 
L 296.886065 191.458201 
L 297.012908 194.48354 
L 297.07633 193.619236 
L 297.203172 176.616871 
L 297.330015 193.186809 
L 297.456858 171.718052 
L 297.52028 172.871006 
L 297.710544 178.634129 
L 297.837387 215.52042 
L 297.900809 212.782635 
L 298.027652 190.161472 
L 298.091073 197.653751 
L 298.154495 196.06892 
L 298.217916 195.060291 
L 298.281338 201.543942 
L 298.344759 200.102886 
L 298.471602 191.313878 
L 298.598445 174.600162 
L 298.661866 176.473095 
L 298.725288 173.014782 
L 298.852131 192.610607 
L 298.915552 182.812969 
L 298.978974 170.133221 
L 299.105817 189.29662 
L 299.23266 174.167736 
L 299.296081 186.847484 
L 299.359503 184.974003 
L 299.486346 169.412694 
L 299.613189 179.787083 
L 299.803453 171.718052 
L 299.866875 173.303433 
L 300.057139 156.012966 
L 300.12056 162.208516 
L 300.310825 175.03204 
L 300.374246 176.616871 
L 300.564511 151.834127 
L 300.691354 172.150479 
L 300.754775 156.87727 
L 300.818197 160.767461 
L 300.881618 170.853748 
L 300.94504 166.963559 
L 301.008461 166.243031 
L 301.071883 174.455838 
L 301.135304 168.692166 
L 301.198726 164.513874 
L 301.262147 172.871006 
L 301.325569 171.286175 
L 301.452412 152.266553 
L 301.579254 160.191258 
L 301.642676 153.995709 
L 301.769519 176.473095 
L 301.83294 174.023411 
L 301.896362 167.395436 
L 302.023205 192.754932 
L 302.213469 169.268917 
L 302.276891 169.700794 
L 302.340312 172.582905 
L 302.467155 161.344212 
L 302.593998 178.057927 
L 302.65742 172.726681 
L 302.784263 185.262104 
L 302.911106 172.294804 
L 302.974527 180.795712 
L 303.037948 178.346027 
L 303.10137 173.014782 
L 303.228213 193.331134 
L 303.291634 189.008518 
L 303.355056 187.567463 
L 303.54532 201.832042 
L 303.735585 165.090077 
L 303.799006 169.124592 
L 303.862428 166.963559 
L 303.989271 190.593349 
L 304.116114 171.14185 
L 304.242957 190.161472 
L 304.306378 185.838855 
L 304.369799 191.746303 
L 304.433221 190.305249 
L 304.560064 175.752567 
L 304.750328 197.221325 
L 304.81375 193.331134 
L 304.877171 194.051662 
L 304.940593 200.679638 
L 305.004014 198.229953 
L 305.067436 188.576091 
L 305.130857 190.161472 
L 305.2577 209.468646 
L 305.384543 191.746303 
L 305.447965 193.763561 
L 305.511386 196.357021 
L 305.574808 193.619236 
L 305.765072 211.774006 
L 305.891915 211.053753 
L 305.955336 212.350482 
L 306.082179 208.748393 
L 306.272444 212.494533 
L 306.335865 209.180545 
L 306.399287 209.612697 
L 306.462708 211.774006 
L 306.589551 190.737674 
L 306.652973 198.086177 
L 306.716394 211.197803 
L 306.779816 203.8493 
L 306.843237 195.924595 
L 306.97008 214.36774 
L 307.033502 201.832042 
L 307.096923 203.273098 
L 307.160345 220.85139 
L 307.223766 219.122508 
L 307.350609 207.883815 
L 307.41403 206.731136 
L 307.477452 203.273098 
L 307.604295 211.774006 
L 307.667716 204.857929 
L 307.794559 224.165377 
L 307.857981 231.801982 
L 307.921402 226.759113 
L 307.984824 221.571917 
L 308.048245 224.885906 
L 308.111667 227.191264 
L 308.301931 219.122508 
L 308.492196 235.548121 
L 308.555617 229.640674 
L 308.619039 225.606433 
L 308.68246 225.894535 
L 308.809303 228.92042 
L 308.872724 228.343944 
L 308.936146 227.623416 
L 309.062989 216.9612 
L 309.12641 218.546031 
L 309.189832 224.597804 
L 309.253253 155.580541 
L 309.316675 157.021595 
L 309.380096 154.428135 
L 309.570361 170.853748 
L 309.697204 167.827863 
L 309.824047 169.700794 
L 309.95089 174.600162 
L 310.014311 174.167736 
L 310.141154 176.184994 
L 310.204575 173.159108 
L 310.267997 173.447209 
L 310.331418 174.455838 
L 310.39484 169.557019 
L 310.458261 171.14185 
L 310.521683 178.634129 
L 310.585104 178.346027 
L 310.711947 168.115963 
L 310.83879 178.346027 
L 310.965633 169.845119 
L 311.029055 177.769825 
L 311.092476 174.743939 
L 311.155898 160.479359 
L 311.219319 162.784718 
L 311.282741 174.888264 
L 311.346162 174.455838 
L 311.409584 169.268917 
L 311.473005 171.718052 
L 311.599848 175.896892 
L 311.790112 171.429951 
L 311.853534 173.159108 
L 311.916955 171.286175 
L 311.980377 166.098705 
L 312.10722 183.389172 
L 312.234063 159.615055 
L 312.297484 170.565648 
L 312.360906 180.939487 
L 312.424327 173.879635 
L 312.487749 172.150479 
L 312.55117 178.202252 
L 312.678013 167.107334 
L 312.804856 174.167736 
L 312.931699 164.513874 
L 313.121963 179.066556 
L 313.312228 172.43858 
L 313.375649 173.611838 
L 313.756178 180.651387 
L 313.8196 187.135585 
L 313.946443 169.124592 
L 314.009864 174.311513 
L 314.073286 174.600162 
L 314.136707 173.591534 
L 314.200129 177.769825 
L 314.326972 171.286175 
L 314.390393 172.582905 
L 314.453814 173.159108 
L 314.517236 171.574276 
L 314.644079 180.219508 
L 314.770922 163.649571 
L 314.834343 170.133221 
L 314.897765 177.049298 
L 314.961186 173.014782 
L 315.151451 168.115963 
L 315.278294 173.879635 
L 315.405137 167.251659 
L 315.53198 177.481724 
L 315.595401 176.616871 
L 315.722244 150.681722 
L 315.785666 157.597799 
L 316.166194 187.855564 
L 316.356459 171.14185 
L 316.483302 174.167736 
L 316.546723 172.726681 
L 316.673566 177.91415 
L 316.800409 159.18263 
L 316.927252 180.50761 
L 316.990674 173.591534 
L 317.054095 177.481724 
L 317.117517 186.415058 
L 317.24436 156.156743 
L 317.307781 140.019231 
L 317.498045 205.290081 
L 317.751731 215.66447 
L 317.878574 232.954661 
L 318.068839 206.731136 
L 318.259103 243.184725 
L 318.322525 231.657931 
L 318.385946 225.462108 
L 318.512789 244.769832 
L 318.576211 241.455844 
L 318.639632 233.819239 
L 318.703054 238.429957 
L 318.766475 237.277277 
L 318.956739 215.952571 
L 319.020161 218.690082 
L 319.273847 238.862109 
L 319.40069 217.825778 
L 319.464111 228.632045 
L 319.527533 227.191264 
L 319.654376 223.156749 
L 319.717797 213.503162 
L 319.781219 214.655842 
L 319.84464 224.021328 
L 319.908062 218.401981 
L 320.098326 193.474911 
L 320.161748 197.077548 
L 320.225169 205.434406 
L 320.28859 199.238582 
L 320.352012 204.137402 
L 320.478855 225.894535 
L 320.542276 226.182635 
L 320.859384 277.188906 
L 320.922805 275.604075 
L 321.049648 295.488 
L 321.11307 290.444857 
L 321.366756 261.771921 
L 321.430177 261.483546 
L 321.493599 265.806162 
L 321.620441 253.991267 
L 321.683863 258.457934 
L 321.747284 254.999896 
L 321.810706 255.432047 
L 321.874127 262.636499 
L 321.937549 258.601985 
L 322.00097 252.550486 
L 322.127813 271.713885 
L 322.318078 243.184725 
L 322.381499 246.642763 
L 322.444921 247.651392 
L 322.508342 246.354663 
L 322.571764 247.795443 
L 322.635185 247.651392 
L 322.698607 244.049303 
L 322.82545 252.11806 
L 322.952293 246.210612 
L 323.015714 260.475192 
L 323.079135 258.746036 
L 323.142557 246.210612 
L 323.205978 251.541857 
L 323.2694 252.550486 
L 323.332821 244.481456 
L 323.396243 249.812701 
L 323.459664 247.939494 
L 323.586507 222.292446 
L 323.649929 227.623416 
L 323.71335 226.614788 
L 323.776772 225.750484 
L 323.840193 227.479366 
L 323.967036 246.066561 
L 324.093879 264.365382 
L 324.157301 262.204073 
L 324.220722 264.797533 
L 324.284144 264.509432 
L 324.537829 243.040675 
L 324.601251 243.184725 
L 324.664672 248.660021 
L 324.791515 229.640674 
L 324.98178 259.754663 
L 325.108623 236.26865 
L 325.172044 237.853481 
L 325.298887 245.92251 
L 325.362309 237.133228 
L 325.42573 239.150485 
L 325.489152 157.597799 
L 325.552573 167.827863 
L 325.679416 172.582905 
L 325.806259 197.221325 
L 325.933102 190.017147 
L 325.996523 194.627865 
L 326.123366 175.320141 
L 326.250209 186.703159 
L 326.313631 177.337398 
L 326.377052 182.092441 
L 326.440474 193.331134 
L 326.503895 192.610607 
L 326.821003 169.557019 
L 326.947846 182.812969 
L 327.011267 177.193623 
L 327.074689 173.73531 
L 327.13811 177.481724 
L 327.264953 153.563283 
L 327.328375 156.58917 
L 327.391796 170.709423 
L 327.455217 168.115963 
L 327.518639 156.012966 
L 327.58206 160.191258 
L 327.772325 177.6255 
L 327.835746 177.049298 
L 327.899168 170.997525 
L 327.962589 171.862377 
L 328.026011 172.294804 
L 328.152854 154.716237 
L 328.216275 159.903157 
L 328.279697 159.038853 
L 328.343118 158.894528 
L 328.469961 176.905521 
L 328.533383 173.447209 
L 328.660226 193.763561 
L 328.723647 188.287991 
L 328.913911 172.871006 
L 329.104176 164.081448 
L 329.231019 173.879635 
L 329.548126 154.139485 
L 329.611548 161.776089 
L 329.674969 159.18263 
L 329.738391 150.537396 
L 329.865234 177.337398 
L 329.928655 172.43858 
L 330.055498 152.98708 
L 330.11892 162.496617 
L 330.182341 158.174001 
L 330.245762 151.834127 
L 330.309184 152.266553 
L 330.372605 150.39362 
L 330.499448 153.131405 
L 330.56287 141.892712 
L 330.626291 148.376362 
L 330.689713 168.836492 
L 330.879977 114.660283 
L 330.943399 122.440664 
L 331.070242 116.677541 
L 331.197085 136.849569 
L 331.260506 133.823682 
L 331.323928 119.991529 
L 331.387349 122.729314 
L 331.450771 127.051382 
L 331.514192 117.398069 
L 331.577614 119.415326 
L 331.831299 153.995709 
L 331.894721 157.021595 
L 332.021564 143.189442 
L 332.084985 145.782902 
L 332.211828 150.39362 
L 332.402093 138.146298 
L 332.528936 156.445393 
L 332.592357 155.004338 
L 332.7192 161.199887 
L 332.782622 157.309697 
L 332.846043 158.318326 
L 332.909465 162.496617 
L 333.036308 134.976087 
L 333.16315 158.318326 
L 333.289993 136.273365 
L 333.353415 144.198071 
L 333.416836 138.4344 
L 333.480258 133.823682 
L 333.543679 135.84094 
L 333.607101 201.976367 
L 333.670522 192.46683 
L 333.797365 173.879635 
L 333.924208 216.817149 
L 334.051051 175.464466 
L 334.114473 185.982632 
L 334.177894 196.357021 
L 334.241316 191.169552 
L 334.304737 190.881451 
L 334.685266 210.621326 
L 334.812109 199.526684 
L 334.938952 216.384723 
L 335.002373 210.765377 
L 335.065795 207.451389 
L 335.192638 224.021328 
L 335.319481 205.290081 
L 335.446324 230.0731 
L 335.573167 209.612697 
L 335.70001 229.208522 
L 335.763431 228.055842 
L 335.890274 210.045124 
L 335.953696 215.66447 
L 336.080538 228.776095 
L 336.14396 228.487994 
L 336.207381 226.470737 
L 336.334224 204.569827 
L 336.461067 225.750484 
L 336.524489 215.66447 
L 336.841596 248.22787 
L 336.968439 222.724597 
L 337.095282 245.057932 
L 337.222125 219.987086 
L 337.285547 220.131137 
L 337.348968 230.937404 
L 337.412389 230.0731 
L 337.475811 223.589175 
L 337.539232 226.759113 
L 337.602654 236.989177 
L 337.666075 235.980548 
L 337.792918 218.11388 
L 337.85634 227.479366 
L 337.919761 226.903163 
L 338.046604 205.434406 
L 338.173447 213.647213 
L 338.236869 209.612697 
L 338.363712 251.109431 
L 338.427133 273.298716 
L 338.490555 267.102893 
L 338.617398 242.176097 
L 338.680819 250.533228 
L 338.744241 246.066561 
L 338.807662 243.472827 
L 338.871083 247.795443 
L 338.997926 235.692446 
L 339.188191 208.027866 
L 339.251612 209.756748 
L 339.315034 207.163288 
L 339.441877 228.199893 
L 339.56872 205.722507 
L 339.695563 227.767467 
L 339.758984 218.25793 
L 339.822406 219.266559 
L 339.885827 231.36983 
L 339.949249 228.92042 
L 340.076092 197.653751 
L 340.202935 220.131137 
L 340.393199 196.788899 
L 340.45662 202.840671 
L 340.520042 207.307338 
L 340.646885 185.694531 
L 340.710306 190.593349 
L 340.900571 203.561198 
L 340.963992 199.526684 
L 341.154257 166.243031 
L 341.217678 181.804341 
L 341.2811 178.346027 
L 341.344521 163.649571 
L 341.407943 171.429951 
L 341.471364 181.516239 
L 341.534786 174.167736 
L 341.598207 169.268917 
L 341.661629 174.023411 
L 341.851893 197.221325 
L 341.915314 196.212696 
L 342.042157 169.124592 
L 342.169 189.729045 
L 342.232422 175.464466 
L 342.295843 178.634129 
L 342.422686 198.66238 
L 342.486108 197.653751 
L 342.676372 215.232044 
L 343.056901 169.700794 
L 343.120323 173.303433 
L 343.247165 192.898709 
L 343.310587 188.576091 
L 343.374008 192.610607 
L 343.500851 178.202252 
L 343.627694 195.348392 
L 343.691116 189.872822 
L 343.754537 190.305249 
L 343.88138 196.500797 
L 343.944802 191.025776 
L 344.008223 192.322505 
L 344.135066 215.232044 
L 344.325331 151.546025 
L 344.452174 159.038853 
L 344.579016 180.795712 
L 344.642438 171.718052 
L 344.705859 175.176365 
L 344.769281 185.838855 
L 344.832702 179.642758 
L 344.896124 177.6255 
L 344.959545 189.729045 
L 345.022967 186.270733 
L 345.086388 172.006154 
L 345.14981 175.320141 
L 345.340074 194.339763 
L 345.403496 193.474911 
L 345.466917 191.313878 
L 345.530339 196.933224 
L 345.59376 195.924595 
L 345.657182 186.99126 
L 345.720603 191.169552 
L 345.847446 200.967738 
L 345.910868 200.102886 
L 346.164553 191.025776 
L 346.227975 190.161472 
L 346.354818 207.595714 
L 346.418239 204.425502 
L 346.545082 204.713604 
L 346.671925 195.348392 
L 346.798768 206.154659 
L 346.86219 204.713604 
L 346.989033 211.197803 
L 347.179297 185.982632 
L 347.242719 189.729045 
L 347.30614 194.627865 
L 347.432983 187.279362 
L 347.559826 200.823413 
L 347.686669 184.830227 
L 347.75009 203.128773 
L 347.813512 202.840671 
L 347.940355 187.999889 
L 348.003776 190.593349 
L 348.067198 187.423687 
L 348.194041 193.763561 
L 348.257462 189.872822 
L 348.447727 213.647213 
L 348.511148 205.866558 
L 348.57457 207.163288 
L 348.637991 208.748393 
L 348.764834 195.636494 
L 348.828256 201.25584 
L 348.891677 198.374278 
L 348.955098 196.357021 
L 349.081941 214.079364 
L 349.272206 201.543942 
L 349.46247 213.791264 
L 349.652735 192.322505 
L 349.716156 196.645122 
L 349.779578 192.610607 
L 349.842999 154.28381 
L 349.906421 156.156743 
L 350.160107 177.769825 
L 350.223528 171.862377 
L 350.28695 169.268917 
L 350.604057 177.481724 
L 350.667478 175.896892 
L 350.794321 166.819234 
L 350.857743 171.429951 
L 350.984586 156.012966 
L 351.111429 185.118328 
L 351.17485 178.202252 
L 351.238272 168.115963 
L 351.301693 170.565648 
L 351.428536 177.337398 
L 351.491958 175.03204 
L 351.555379 168.692166 
L 351.618801 171.286175 
L 351.682222 167.395436 
L 351.745644 153.707608 
L 351.809065 153.851384 
L 351.872486 164.658199 
L 351.935908 158.894528 
L 351.999329 151.978452 
L 352.126172 172.871006 
L 352.189594 168.260288 
L 352.253015 173.73531 
L 352.316437 171.14185 
L 352.379858 159.326955 
L 352.44328 167.972188 
L 352.506701 169.989444 
L 352.570123 154.571912 
L 352.696966 186.703159 
L 352.760387 170.133221 
L 352.823809 152.122776 
L 352.88723 162.06474 
L 352.950652 170.565648 
L 353.014073 169.845119 
L 353.077495 170.709423 
L 353.140916 169.557019 
L 353.267759 149.961194 
L 353.33118 154.28381 
L 353.394602 156.87727 
L 353.521445 146.359106 
L 353.711709 176.473095 
L 353.901974 155.724866 
L 354.409346 175.608791 
L 354.536189 147.512058 
L 354.59961 150.681722 
L 354.663031 155.292439 
L 354.726453 150.105519 
L 354.853296 156.445393 
L 354.980139 142.180813 
L 355.106982 154.716237 
L 355.170403 154.716237 
L 355.233825 164.658199 
L 355.360668 139.154927 
L 355.487511 165.090077 
L 355.550932 157.453473 
L 355.614354 152.842755 
L 355.677775 154.860012 
L 355.741197 153.995709 
L 355.86804 155.724866 
L 355.994883 153.707608 
L 356.058304 154.28381 
L 356.185147 167.972188 
L 356.31199 139.298703 
L 356.438833 161.056111 
L 356.502254 151.69035 
L 356.819362 196.645122 
L 356.946205 172.726681 
L 357.009626 175.752567 
L 357.199891 188.144214 
L 357.263312 184.253475 
L 357.390155 164.370098 
L 357.516998 180.363285 
L 357.580419 174.888264 
L 357.707262 195.780819 
L 357.897527 136.273365 
L 358.087791 232.378459 
L 358.214634 226.759113 
L 358.341477 233.098712 
L 358.46832 252.550486 
L 358.658585 222.436496 
L 358.722006 229.784724 
L 358.912271 260.907343 
L 359.039113 233.242763 
L 359.165956 265.22996 
L 359.229378 253.847216 
L 359.292799 241.023417 
L 359.356221 245.92251 
L 359.419642 247.363292 
L 359.483064 233.098712 
L 359.546485 234.107341 
L 359.609907 254.135317 
L 359.673328 253.991267 
L 359.73675 237.70943 
L 359.863593 263.212702 
L 359.990436 228.199893 
L 360.117279 247.219241 
L 360.307543 224.165377 
L 360.370964 232.81061 
L 360.434386 245.057932 
L 360.62465 214.36774 
L 360.688072 215.376095 
L 360.814915 230.649303 
L 360.941758 216.9612 
L 361.068601 238.429957 
L 361.132022 236.412699 
L 361.195444 232.090083 
L 361.258865 235.11597 
L 361.44913 257.161203 
L 361.512551 254.135317 
L 361.575973 243.472827 
L 361.639394 251.253481 
L 361.702816 268.399896 
L 361.766237 259.034136 
L 362.019923 223.156749 
L 362.146766 246.498714 
L 362.273609 221.427867 
L 362.463873 229.784724 
L 362.527295 224.021328 
L 362.654138 205.290081 
L 362.717559 216.9612 
L 363.098088 169.557019 
L 363.16151 177.91415 
L 363.224931 172.150479 
L 363.351774 157.453473 
L 363.415195 159.47073 
L 363.542038 153.275181 
L 363.60546 158.174001 
L 363.732303 134.832311 
L 363.859146 123.161191 
L 363.922567 124.314145 
L 363.985989 124.026043 
L 364.176253 116.101339 
L 364.303096 103.277265 
L 364.429939 119.991529 
L 364.493361 118.406697 
L 364.556782 120.135305 
L 364.683625 159.326955 
L 364.747046 151.546025 
L 364.810468 148.088262 
L 364.873889 158.462101 
L 365.000732 143.621319 
L 365.064154 150.39362 
L 365.190997 133.823682 
L 365.254418 141.748387 
L 365.31784 142.900792 
L 365.381261 130.94212 
L 365.508104 160.047482 
L 365.571526 156.012966 
L 365.634947 142.468915 
L 365.698369 148.520139 
L 365.76179 156.445393 
L 365.952055 135.84094 
L 366.142319 199.094257 
L 366.269162 185.406429 
L 366.396005 196.357021 
L 366.649691 170.709423 
L 366.713112 172.294804 
L 366.776534 179.066556 
L 366.903377 167.972188 
L 366.966798 176.761196 
L 367.03022 175.896892 
L 367.157063 155.436764 
L 367.220484 159.038853 
L 367.283906 161.199887 
L 367.410749 138.290075 
L 367.47417 141.460286 
L 367.537592 145.782902 
L 367.854699 97.226041 
L 367.91812 99.963278 
L 367.981542 97.657919 
L 368.108385 82.961462 
L 368.235228 85.554922 
L 368.298649 84.546294 
L 368.362071 86.995977 
L 368.488914 103.997793 
L 368.615757 84.113867 
L 368.679178 89.301337 
L 368.7426 89.157012 
L 368.806021 83.105238 
L 368.869443 85.410597 
L 368.996285 105.438848 
L 369.059707 93.335303 
L 369.123128 93.912054 
L 369.249971 112.2106 
L 369.376814 105.438848 
L 369.503657 103.277265 
L 369.567079 105.006422 
L 369.693922 97.657919 
L 369.947608 112.2106 
L 370.074451 102.557286 
L 370.137872 103.709692 
L 370.264715 121.432035 
L 370.328137 114.660283 
L 370.454979 138.578725 
L 370.518401 131.662099 
L 370.581822 117.398069 
L 370.645244 121.432035 
L 370.708665 125.034672 
L 370.772087 121.432035 
L 370.835508 121.864462 
L 370.962351 125.178449 
L 371.152616 121.000158 
L 371.279459 145.494802 
L 371.34288 140.019231 
L 371.469723 116.821317 
L 371.533145 125.466551 
L 371.596566 123.88172 
L 371.659988 120.27963 
L 372.040516 155.292439 
L 372.103938 138.578725 
L 372.230781 175.896892 
L 372.294202 170.853748 
L 372.357624 166.675457 
L 372.484467 181.660016 
L 372.738153 168.260288 
L 372.801574 172.871006 
L 372.928417 147.079633 
L 372.991839 157.165372 
L 373.05526 168.692166 
L 373.118682 161.776089 
L 373.182103 164.370098 
L 373.308946 187.135585 
L 373.372367 174.023411 
L 373.435789 176.905521 
L 373.49921 185.982632 
L 373.626053 171.429951 
L 373.752896 186.703159 
L 373.879739 172.43858 
L 373.943161 176.616871 
L 374.006582 172.582905 
L 374.133425 186.99126 
L 374.196847 224.453753 
L 374.260268 219.41061 
L 374.387111 192.034405 
L 374.513954 215.66447 
L 374.640797 202.120144 
L 374.704219 206.154659 
L 374.831061 187.279362 
L 374.894483 193.907337 
L 375.021326 209.468646 
L 375.148169 203.705523 
L 375.275012 212.926684 
L 375.401855 193.043034 
L 375.528698 213.647213 
L 375.592119 211.918056 
L 375.655541 200.102886 
L 375.718962 208.027866 
L 375.782384 222.148121 
L 375.909227 198.086177 
L 375.972648 206.298709 
L 376.03607 210.477275 
L 376.099491 203.416873 
L 376.226334 215.232044 
L 376.353177 208.315967 
L 376.416598 215.376095 
L 376.48002 211.774006 
L 376.543441 191.89008 
L 376.606863 192.322505 
L 376.733706 218.25793 
L 376.860549 185.550206 
L 377.050813 203.993625 
L 377.177656 195.060291 
L 377.367921 211.629955 
L 377.431342 231.513881 
L 377.494764 223.012699 
L 377.685028 207.019237 
L 377.748449 206.731136 
L 377.811871 208.171917 
L 377.938714 219.41061 
L 378.128978 200.535313 
L 378.255821 208.604068 
L 378.382664 186.558834 
L 378.446086 192.610607 
L 378.509507 194.48354 
L 378.699772 184.397801 
L 378.890036 174.743939 
L 379.016879 211.918056 
L 379.0803 196.933224 
L 379.143722 165.95493 
L 379.207143 172.006154 
L 379.270565 184.974003 
L 379.397408 152.410878 
L 379.460829 160.191258 
L 379.524251 158.750751 
L 379.651094 141.460286 
L 379.777937 116.38944 
L 379.841358 126.331403 
L 379.90478 125.754651 
L 379.968201 122.152562 
L 380.221887 140.307332 
L 380.285309 139.154927 
L 380.34873 123.161191 
L 380.412152 123.88172 
L 380.538994 161.344212 
L 380.665837 112.643027 
L 380.79268 142.036488 
L 380.982945 121.720685 
L 381.046366 126.042753 
L 381.109788 125.034672 
L 381.173209 119.703427 
L 381.236631 119.847204 
L 381.363474 127.340032 
L 381.490317 150.105519 
L 381.553738 144.629948 
L 381.680581 108.176633 
L 381.744003 117.253744 
L 381.807424 139.875455 
L 381.870846 131.373998 
L 381.934267 112.066823 
L 381.997688 119.847204 
L 382.314796 149.240666 
L 382.378217 133.391255 
L 382.441639 139.154927 
L 382.50506 139.154927 
L 382.631903 113.507329 
L 382.758746 124.026043 
L 382.885589 100.107603 
L 382.949011 106.735578 
L 383.012432 124.16982 
L 383.075854 123.88172 
L 383.32954 104.285894 
L 383.392961 106.879355 
L 383.456382 103.854017 
L 383.646647 85.122496 
L 383.77349 106.015051 
L 383.836911 104.142118 
L 384.090597 85.266821 
L 384.154019 95.784987 
L 384.21744 94.05583 
L 384.280862 89.445112 
L 384.407705 102.989165 
L 384.534548 77.918319 
L 384.661391 111.922498 
L 384.724812 109.473363 
L 384.915076 53.568 
L 384.978498 57.313864 
L 385.105341 92.615324 
L 385.168762 87.715956 
L 385.232184 84.113867 
L 385.359027 88.148383 
L 385.422448 87.715956 
L 385.549291 104.285894 
L 385.676134 87.284079 
L 385.739556 90.741843 
L 385.802977 85.987348 
L 385.866399 89.877539 
L 385.993242 109.761465 
L 386.056663 101.980536 
L 386.120085 106.447477 
L 386.183506 105.438848 
L 386.310349 97.226041 
L 386.437192 118.694799 
L 386.500613 114.660283 
L 386.564035 105.438848 
L 386.627456 110.337667 
L 386.817721 122.296887 
L 387.071407 143.045117 
L 387.19825 127.340032 
L 387.325093 145.782902 
L 387.451936 133.53558 
L 387.515357 143.909421 
L 387.578779 143.621319 
L 387.769043 119.991529 
L 387.832464 119.415326 
L 387.959307 131.806424 
L 388.022729 122.729314 
L 388.149572 150.969823 
L 388.212993 138.4344 
L 388.276415 140.739759 
L 388.339836 162.208516 
L 388.403258 149.817418 
L 388.466679 128.780538 
L 388.593522 154.716237 
L 388.656944 138.001973 
L 388.720365 140.451657 
L 388.783787 147.512058 
L 388.847208 134.832311 
L 388.91063 139.443029 
L 389.100894 165.378178 
L 389.164315 175.608791 
L 389.227737 169.124592 
L 389.291158 155.004338 
L 389.35458 160.911786 
L 389.418001 168.836492 
L 389.544844 148.952565 
L 389.671687 176.040669 
L 389.735109 175.03204 
L 389.861952 167.539761 
L 389.925373 169.557019 
L 390.052216 196.788899 
L 390.115638 188.720417 
L 390.179059 169.124592 
L 390.242481 172.006154 
L 390.305902 192.46683 
L 390.369324 190.305249 
L 390.432745 173.879635 
L 390.496167 181.228137 
L 390.559588 190.161472 
L 390.623009 189.440945 
L 390.686431 190.737674 
L 390.813274 185.550206 
L 390.940117 190.737674 
L 391.003538 185.118328 
L 391.06696 189.152843 
L 391.130381 193.331134 
L 391.193803 188.864193 
L 391.257224 190.449574 
L 391.320646 191.746303 
L 391.447489 170.421323 
L 391.51091 172.294804 
L 391.574332 163.217145 
L 391.637753 165.810605 
L 391.701175 181.516239 
L 391.764596 169.845119 
L 391.828018 153.707608 
L 391.891439 164.370098 
L 391.954861 172.871006 
L 392.018282 170.709423 
L 392.081703 172.006154 
L 392.208546 181.660016 
L 392.335389 150.537396 
L 392.462232 193.474911 
L 392.589075 149.817418 
L 392.715918 179.930859 
L 392.77934 174.455838 
L 392.842761 175.320141 
L 392.969604 170.853748 
L 393.033026 183.389172 
L 393.096447 179.787083 
L 393.159869 162.352841 
L 393.22329 170.709423 
L 393.286712 188.144214 
L 393.350133 178.490352 
L 393.413554 163.649571 
L 393.476976 168.692166 
L 393.603819 183.10107 
L 393.794083 171.718052 
L 394.047769 159.615055 
L 394.111191 163.505246 
L 394.238034 192.17818 
L 394.301455 188.287991 
L 394.428298 198.518055 
L 394.49172 182.380543 
L 394.555141 182.709802 
L 394.93567 184.685902 
L 394.999091 198.374278 
L 395.062513 191.169552 
L 395.189356 172.294804 
L 395.316199 174.743939 
L 395.37962 174.600162 
L 395.506463 156.733495 
L 395.633306 174.455838 
L 395.696728 167.251659 
L 395.760149 169.845119 
L 395.823571 179.498981 
L 395.950414 158.030224 
L 396.140678 182.524868 
L 396.267521 174.023411 
L 396.330942 174.167736 
L 396.394364 175.608791 
L 396.457785 171.14185 
L 396.584628 180.363285 
L 396.64805 174.455838 
L 396.711471 178.634129 
L 396.774893 184.974003 
L 396.901736 169.557019 
L 396.965157 173.014782 
L 397.028579 178.634129 
L 397.155422 173.879635 
L 397.409108 212.062381 
L 397.535951 183.677273 
L 397.599372 187.999889 
L 397.726215 203.993625 
L 397.789636 204.569827 
L 397.853058 210.189174 
L 397.979901 185.838855 
L 398.233587 216.528774 
L 398.297008 227.191264 
L 398.487273 175.176365 
L 398.487273 175.176365 
" clip-path="url(#pbb7728c5f8)" style="fill: none; stroke: #1f77b4; stroke-width: 1.5; stroke-linecap: square"/>
   </g>
   <g id="patch_3">
    <path d="M 57.6 307.584 
L 57.6 41.472 
" style="fill: none; stroke: #000000; stroke-width: 0.8; stroke-linejoin: miter; stroke-linecap: square"/>
   </g>
   <g id="patch_4">
    <path d="M 414.72 307.584 
L 414.72 41.472 
" style="fill: none; stroke: #000000; stroke-width: 0.8; stroke-linejoin: miter; stroke-linecap: square"/>
   </g>
   <g id="patch_5">
    <path d="M 57.6 307.584 
L 414.72 307.584 
" style="fill: none; stroke: #000000; stroke-width: 0.8; stroke-linejoin: miter; stroke-linecap: square"/>
   </g>
   <g id="patch_6">
    <path d="M 57.6 41.472 
L 414.72 41.472 
" style="fill: none; stroke: #000000; stroke-width: 0.8; stroke-linejoin: miter; stroke-linecap: square"/>
   </g>
   <g id="legend_1">
    <g id="patch_7">
     <path d="M 64.6 64.150125 
L 118.245312 64.150125 
Q 120.245312 64.150125 120.245312 62.150125 
L 120.245312 48.472 
Q 120.245312 46.472 118.245312 46.472 
L 64.6 46.472 
Q 62.6 46.472 62.6 48.472 
L 62.6 62.150125 
Q 62.6 64.150125 64.6 64.150125 
z
" style="fill: #ffffff; opacity: 0.8; stroke: #cccccc; stroke-linejoin: miter"/>
    </g>
    <g id="line2d_12">
     <path d="M 66.6 54.570438 
L 76.6 54.570438 
L 86.6 54.570438 
" style="fill: none; stroke: #1f77b4; stroke-width: 1.5; stroke-linecap: square"/>
    </g>
    <g id="text_11">
     <!-- set2 -->
     <g transform="translate(94.6 58.070438)scale(0.1 -0.1)">
      <defs>
       <path id="DejaVuSans-73" d="M 2834 3397 
L 2834 2853 
Q 2591 2978 2328 3040 
Q 2066 3103 1784 3103 
Q 1356 3103 1142 2972 
Q 928 2841 928 2578 
Q 928 2378 1081 2264 
Q 1234 2150 1697 2047 
L 1894 2003 
Q 2506 1872 2764 1633 
Q 3022 1394 3022 966 
Q 3022 478 2636 193 
Q 2250 -91 1575 -91 
Q 1294 -91 989 -36 
Q 684 19 347 128 
L 347 722 
Q 666 556 975 473 
Q 1284 391 1588 391 
Q 1994 391 2212 530 
Q 2431 669 2431 922 
Q 2431 1156 2273 1281 
Q 2116 1406 1581 1522 
L 1381 1569 
Q 847 1681 609 1914 
Q 372 2147 372 2553 
Q 372 3047 722 3315 
Q 1072 3584 1716 3584 
Q 2034 3584 2315 3537 
Q 2597 3491 2834 3397 
z
" transform="scale(0.015625)"/>
       <path id="DejaVuSans-65" d="M 3597 1894 
L 3597 1613 
L 953 1613 
Q 991 1019 1311 708 
Q 1631 397 2203 397 
Q 2534 397 2845 478 
Q 3156 559 3463 722 
L 3463 178 
Q 3153 47 2828 -22 
Q 2503 -91 2169 -91 
Q 1331 -91 842 396 
Q 353 884 353 1716 
Q 353 2575 817 3079 
Q 1281 3584 2069 3584 
Q 2775 3584 3186 3129 
Q 3597 2675 3597 1894 
z
M 3022 2063 
Q 3016 2534 2758 2815 
Q 2500 3097 2075 3097 
Q 1594 3097 1305 2825 
Q 1016 2553 972 2059 
L 3022 2063 
z
" transform="scale(0.015625)"/>
       <path id="DejaVuSans-74" d="M 1172 4494 
L 1172 3500 
L 2356 3500 
L 2356 3053 
L 1172 3053 
L 1172 1153 
Q 1172 725 1289 603 
Q 1406 481 1766 481 
L 2356 481 
L 2356 0 
L 1766 0 
Q 1100 0 847 248 
Q 594 497 594 1153 
L 594 3053 
L 172 3053 
L 172 3500 
L 594 3500 
L 594 4494 
L 1172 4494 
z
" transform="scale(0.015625)"/>
      </defs>
      <use xlink:href="#DejaVuSans-73"/>
      <use xlink:href="#DejaVuSans-65" x="52.099609"/>
      <use xlink:href="#DejaVuSans-74" x="113.623047"/>
      <use xlink:href="#DejaVuSans-32" x="152.832031"/>
     </g>
    </g>
   </g>
  </g>
 </g>
 <defs>
  <clipPath id="pbb7728c5f8">
   <rect x="57.6" y="41.472" width="357.12" height="266.112"/>
  </clipPath>
 </defs>
</svg>
