<?xml version="1.0" encoding="utf-8" standalone="no"?>
<!DOCTYPE svg PUBLIC "-//W3C//DTD SVG 1.1//EN"
  "http://www.w3.org/Graphics/SVG/1.1/DTD/svg11.dtd">
<svg xmlns:xlink="http://www.w3.org/1999/xlink" width="460.8pt" height="345.6pt" viewBox="0 0 460.8 345.6" xmlns="http://www.w3.org/2000/svg" version="1.1">
 <metadata>
  <rdf:RDF xmlns:dc="http://purl.org/dc/elements/1.1/" xmlns:cc="http://creativecommons.org/ns#" xmlns:rdf="http://www.w3.org/1999/02/22-rdf-syntax-ns#">
   <cc:Work>
    <dc:type rdf:resource="http://purl.org/dc/dcmitype/StillImage"/>
    <dc:date>2022-08-11T20:38:52.283262</dc:date>
    <dc:format>image/svg+xml</dc:format>
    <dc:creator>
     <cc:Agent>
      <dc:title>Matplotlib v3.5.2, https://matplotlib.org/</dc:title>
     </cc:Agent>
    </dc:creator>
   </cc:Work>
  </rdf:RDF>
 </metadata>
 <defs>
  <style type="text/css">*{stroke-linejoin: round; stroke-linecap: butt}</style>
 </defs>
 <g id="figure_1">
  <g id="patch_1">
   <path d="M 0 345.6 
L 460.8 345.6 
L 460.8 0 
L 0 0 
z
" style="fill: #ffffff"/>
  </g>
  <g id="axes_1">
   <g id="patch_2">
    <path d="M 57.6 307.584 
L 414.72 307.584 
L 414.72 41.472 
L 57.6 41.472 
z
" style="fill: #ffffff"/>
   </g>
   <g id="matplotlib.axis_1">
    <g id="xtick_1">
     <g id="line2d_1">
      <defs>
       <path id="m2ce426ecfe" d="M 0 0 
L 0 3.5 
" style="stroke: #000000; stroke-width: 0.8"/>
      </defs>
      <g>
       <use xlink:href="#m2ce426ecfe" x="73.832727" y="307.584" style="stroke: #000000; stroke-width: 0.8"/>
      </g>
     </g>
     <g id="text_1">
      <!-- 0 -->
      <g transform="translate(70.651477 322.182437)scale(0.1 -0.1)">
       <defs>
        <path id="DejaVuSans-30" d="M 2034 4250 
Q 1547 4250 1301 3770 
Q 1056 3291 1056 2328 
Q 1056 1369 1301 889 
Q 1547 409 2034 409 
Q 2525 409 2770 889 
Q 3016 1369 3016 2328 
Q 3016 3291 2770 3770 
Q 2525 4250 2034 4250 
z
M 2034 4750 
Q 2819 4750 3233 4129 
Q 3647 3509 3647 2328 
Q 3647 1150 3233 529 
Q 2819 -91 2034 -91 
Q 1250 -91 836 529 
Q 422 1150 422 2328 
Q 422 3509 836 4129 
Q 1250 4750 2034 4750 
z
" transform="scale(0.015625)"/>
       </defs>
       <use xlink:href="#DejaVuSans-30"/>
      </g>
     </g>
    </g>
    <g id="xtick_2">
     <g id="line2d_2">
      <g>
       <use xlink:href="#m2ce426ecfe" x="124.71902" y="307.584" style="stroke: #000000; stroke-width: 0.8"/>
      </g>
     </g>
     <g id="text_2">
      <!-- 50 -->
      <g transform="translate(118.35652 322.182437)scale(0.1 -0.1)">
       <defs>
        <path id="DejaVuSans-35" d="M 691 4666 
L 3169 4666 
L 3169 4134 
L 1269 4134 
L 1269 2991 
Q 1406 3038 1543 3061 
Q 1681 3084 1819 3084 
Q 2600 3084 3056 2656 
Q 3513 2228 3513 1497 
Q 3513 744 3044 326 
Q 2575 -91 1722 -91 
Q 1428 -91 1123 -41 
Q 819 9 494 109 
L 494 744 
Q 775 591 1075 516 
Q 1375 441 1709 441 
Q 2250 441 2565 725 
Q 2881 1009 2881 1497 
Q 2881 1984 2565 2268 
Q 2250 2553 1709 2553 
Q 1456 2553 1204 2497 
Q 953 2441 691 2322 
L 691 4666 
z
" transform="scale(0.015625)"/>
       </defs>
       <use xlink:href="#DejaVuSans-35"/>
       <use xlink:href="#DejaVuSans-30" x="63.623047"/>
      </g>
     </g>
    </g>
    <g id="xtick_3">
     <g id="line2d_3">
      <g>
       <use xlink:href="#m2ce426ecfe" x="175.605312" y="307.584" style="stroke: #000000; stroke-width: 0.8"/>
      </g>
     </g>
     <g id="text_3">
      <!-- 100 -->
      <g transform="translate(166.061562 322.182437)scale(0.1 -0.1)">
       <defs>
        <path id="DejaVuSans-31" d="M 794 531 
L 1825 531 
L 1825 4091 
L 703 3866 
L 703 4441 
L 1819 4666 
L 2450 4666 
L 2450 531 
L 3481 531 
L 3481 0 
L 794 0 
L 794 531 
z
" transform="scale(0.015625)"/>
       </defs>
       <use xlink:href="#DejaVuSans-31"/>
       <use xlink:href="#DejaVuSans-30" x="63.623047"/>
       <use xlink:href="#DejaVuSans-30" x="127.246094"/>
      </g>
     </g>
    </g>
    <g id="xtick_4">
     <g id="line2d_4">
      <g>
       <use xlink:href="#m2ce426ecfe" x="226.491604" y="307.584" style="stroke: #000000; stroke-width: 0.8"/>
      </g>
     </g>
     <g id="text_4">
      <!-- 150 -->
      <g transform="translate(216.947854 322.182437)scale(0.1 -0.1)">
       <use xlink:href="#DejaVuSans-31"/>
       <use xlink:href="#DejaVuSans-35" x="63.623047"/>
       <use xlink:href="#DejaVuSans-30" x="127.246094"/>
      </g>
     </g>
    </g>
    <g id="xtick_5">
     <g id="line2d_5">
      <g>
       <use xlink:href="#m2ce426ecfe" x="277.377897" y="307.584" style="stroke: #000000; stroke-width: 0.8"/>
      </g>
     </g>
     <g id="text_5">
      <!-- 200 -->
      <g transform="translate(267.834147 322.182437)scale(0.1 -0.1)">
       <defs>
        <path id="DejaVuSans-32" d="M 1228 531 
L 3431 531 
L 3431 0 
L 469 0 
L 469 531 
Q 828 903 1448 1529 
Q 2069 2156 2228 2338 
Q 2531 2678 2651 2914 
Q 2772 3150 2772 3378 
Q 2772 3750 2511 3984 
Q 2250 4219 1831 4219 
Q 1534 4219 1204 4116 
Q 875 4013 500 3803 
L 500 4441 
Q 881 4594 1212 4672 
Q 1544 4750 1819 4750 
Q 2544 4750 2975 4387 
Q 3406 4025 3406 3419 
Q 3406 3131 3298 2873 
Q 3191 2616 2906 2266 
Q 2828 2175 2409 1742 
Q 1991 1309 1228 531 
z
" transform="scale(0.015625)"/>
       </defs>
       <use xlink:href="#DejaVuSans-32"/>
       <use xlink:href="#DejaVuSans-30" x="63.623047"/>
       <use xlink:href="#DejaVuSans-30" x="127.246094"/>
      </g>
     </g>
    </g>
    <g id="xtick_6">
     <g id="line2d_6">
      <g>
       <use xlink:href="#m2ce426ecfe" x="328.264189" y="307.584" style="stroke: #000000; stroke-width: 0.8"/>
      </g>
     </g>
     <g id="text_6">
      <!-- 250 -->
      <g transform="translate(318.720439 322.182437)scale(0.1 -0.1)">
       <use xlink:href="#DejaVuSans-32"/>
       <use xlink:href="#DejaVuSans-35" x="63.623047"/>
       <use xlink:href="#DejaVuSans-30" x="127.246094"/>
      </g>
     </g>
    </g>
    <g id="xtick_7">
     <g id="line2d_7">
      <g>
       <use xlink:href="#m2ce426ecfe" x="379.150482" y="307.584" style="stroke: #000000; stroke-width: 0.8"/>
      </g>
     </g>
     <g id="text_7">
      <!-- 300 -->
      <g transform="translate(369.606732 322.182437)scale(0.1 -0.1)">
       <defs>
        <path id="DejaVuSans-33" d="M 2597 2516 
Q 3050 2419 3304 2112 
Q 3559 1806 3559 1356 
Q 3559 666 3084 287 
Q 2609 -91 1734 -91 
Q 1441 -91 1130 -33 
Q 819 25 488 141 
L 488 750 
Q 750 597 1062 519 
Q 1375 441 1716 441 
Q 2309 441 2620 675 
Q 2931 909 2931 1356 
Q 2931 1769 2642 2001 
Q 2353 2234 1838 2234 
L 1294 2234 
L 1294 2753 
L 1863 2753 
Q 2328 2753 2575 2939 
Q 2822 3125 2822 3475 
Q 2822 3834 2567 4026 
Q 2313 4219 1838 4219 
Q 1578 4219 1281 4162 
Q 984 4106 628 3988 
L 628 4550 
Q 988 4650 1302 4700 
Q 1616 4750 1894 4750 
Q 2613 4750 3031 4423 
Q 3450 4097 3450 3541 
Q 3450 3153 3228 2886 
Q 3006 2619 2597 2516 
z
" transform="scale(0.015625)"/>
       </defs>
       <use xlink:href="#DejaVuSans-33"/>
       <use xlink:href="#DejaVuSans-30" x="63.623047"/>
       <use xlink:href="#DejaVuSans-30" x="127.246094"/>
      </g>
     </g>
    </g>
   </g>
   <g id="matplotlib.axis_2">
    <g id="ytick_1">
     <g id="line2d_8">
      <defs>
       <path id="m1e0d78986c" d="M 0 0 
L -3.5 0 
" style="stroke: #000000; stroke-width: 0.8"/>
      </defs>
      <g>
       <use xlink:href="#m1e0d78986c" x="57.6" y="292.078932" style="stroke: #000000; stroke-width: 0.8"/>
      </g>
     </g>
     <g id="text_8">
      <!-- 50 -->
      <g transform="translate(37.875 295.878151)scale(0.1 -0.1)">
       <use xlink:href="#DejaVuSans-35"/>
       <use xlink:href="#DejaVuSans-30" x="63.623047"/>
      </g>
     </g>
    </g>
    <g id="ytick_2">
     <g id="line2d_9">
      <g>
       <use xlink:href="#m1e0d78986c" x="57.6" y="260.888871" style="stroke: #000000; stroke-width: 0.8"/>
      </g>
     </g>
     <g id="text_9">
      <!-- 55 -->
      <g transform="translate(37.875 264.68809)scale(0.1 -0.1)">
       <use xlink:href="#DejaVuSans-35"/>
       <use xlink:href="#DejaVuSans-35" x="63.623047"/>
      </g>
     </g>
    </g>
    <g id="ytick_3">
     <g id="line2d_10">
      <g>
       <use xlink:href="#m1e0d78986c" x="57.6" y="229.69881" style="stroke: #000000; stroke-width: 0.8"/>
      </g>
     </g>
     <g id="text_10">
      <!-- 60 -->
      <g transform="translate(37.875 233.498029)scale(0.1 -0.1)">
       <defs>
        <path id="DejaVuSans-36" d="M 2113 2584 
Q 1688 2584 1439 2293 
Q 1191 2003 1191 1497 
Q 1191 994 1439 701 
Q 1688 409 2113 409 
Q 2538 409 2786 701 
Q 3034 994 3034 1497 
Q 3034 2003 2786 2293 
Q 2538 2584 2113 2584 
z
M 3366 4563 
L 3366 3988 
Q 3128 4100 2886 4159 
Q 2644 4219 2406 4219 
Q 1781 4219 1451 3797 
Q 1122 3375 1075 2522 
Q 1259 2794 1537 2939 
Q 1816 3084 2150 3084 
Q 2853 3084 3261 2657 
Q 3669 2231 3669 1497 
Q 3669 778 3244 343 
Q 2819 -91 2113 -91 
Q 1303 -91 875 529 
Q 447 1150 447 2328 
Q 447 3434 972 4092 
Q 1497 4750 2381 4750 
Q 2619 4750 2861 4703 
Q 3103 4656 3366 4563 
z
" transform="scale(0.015625)"/>
       </defs>
       <use xlink:href="#DejaVuSans-36"/>
       <use xlink:href="#DejaVuSans-30" x="63.623047"/>
      </g>
     </g>
    </g>
    <g id="ytick_4">
     <g id="line2d_11">
      <g>
       <use xlink:href="#m1e0d78986c" x="57.6" y="198.508749" style="stroke: #000000; stroke-width: 0.8"/>
      </g>
     </g>
     <g id="text_11">
      <!-- 65 -->
      <g transform="translate(37.875 202.307968)scale(0.1 -0.1)">
       <use xlink:href="#DejaVuSans-36"/>
       <use xlink:href="#DejaVuSans-35" x="63.623047"/>
      </g>
     </g>
    </g>
    <g id="ytick_5">
     <g id="line2d_12">
      <g>
       <use xlink:href="#m1e0d78986c" x="57.6" y="167.318688" style="stroke: #000000; stroke-width: 0.8"/>
      </g>
     </g>
     <g id="text_12">
      <!-- 70 -->
      <g transform="translate(37.875 171.117907)scale(0.1 -0.1)">
       <defs>
        <path id="DejaVuSans-37" d="M 525 4666 
L 3525 4666 
L 3525 4397 
L 1831 0 
L 1172 0 
L 2766 4134 
L 525 4134 
L 525 4666 
z
" transform="scale(0.015625)"/>
       </defs>
       <use xlink:href="#DejaVuSans-37"/>
       <use xlink:href="#DejaVuSans-30" x="63.623047"/>
      </g>
     </g>
    </g>
    <g id="ytick_6">
     <g id="line2d_13">
      <g>
       <use xlink:href="#m1e0d78986c" x="57.6" y="136.128627" style="stroke: #000000; stroke-width: 0.8"/>
      </g>
     </g>
     <g id="text_13">
      <!-- 75 -->
      <g transform="translate(37.875 139.927846)scale(0.1 -0.1)">
       <use xlink:href="#DejaVuSans-37"/>
       <use xlink:href="#DejaVuSans-35" x="63.623047"/>
      </g>
     </g>
    </g>
    <g id="ytick_7">
     <g id="line2d_14">
      <g>
       <use xlink:href="#m1e0d78986c" x="57.6" y="104.938566" style="stroke: #000000; stroke-width: 0.8"/>
      </g>
     </g>
     <g id="text_14">
      <!-- 80 -->
      <g transform="translate(37.875 108.737785)scale(0.1 -0.1)">
       <defs>
        <path id="DejaVuSans-38" d="M 2034 2216 
Q 1584 2216 1326 1975 
Q 1069 1734 1069 1313 
Q 1069 891 1326 650 
Q 1584 409 2034 409 
Q 2484 409 2743 651 
Q 3003 894 3003 1313 
Q 3003 1734 2745 1975 
Q 2488 2216 2034 2216 
z
M 1403 2484 
Q 997 2584 770 2862 
Q 544 3141 544 3541 
Q 544 4100 942 4425 
Q 1341 4750 2034 4750 
Q 2731 4750 3128 4425 
Q 3525 4100 3525 3541 
Q 3525 3141 3298 2862 
Q 3072 2584 2669 2484 
Q 3125 2378 3379 2068 
Q 3634 1759 3634 1313 
Q 3634 634 3220 271 
Q 2806 -91 2034 -91 
Q 1263 -91 848 271 
Q 434 634 434 1313 
Q 434 1759 690 2068 
Q 947 2378 1403 2484 
z
M 1172 3481 
Q 1172 3119 1398 2916 
Q 1625 2713 2034 2713 
Q 2441 2713 2670 2916 
Q 2900 3119 2900 3481 
Q 2900 3844 2670 4047 
Q 2441 4250 2034 4250 
Q 1625 4250 1398 4047 
Q 1172 3844 1172 3481 
z
" transform="scale(0.015625)"/>
       </defs>
       <use xlink:href="#DejaVuSans-38"/>
       <use xlink:href="#DejaVuSans-30" x="63.623047"/>
      </g>
     </g>
    </g>
    <g id="ytick_8">
     <g id="line2d_15">
      <g>
       <use xlink:href="#m1e0d78986c" x="57.6" y="73.748505" style="stroke: #000000; stroke-width: 0.8"/>
      </g>
     </g>
     <g id="text_15">
      <!-- 85 -->
      <g transform="translate(37.875 77.547724)scale(0.1 -0.1)">
       <use xlink:href="#DejaVuSans-38"/>
       <use xlink:href="#DejaVuSans-35" x="63.623047"/>
      </g>
     </g>
    </g>
    <g id="ytick_9">
     <g id="line2d_16">
      <g>
       <use xlink:href="#m1e0d78986c" x="57.6" y="42.558445" style="stroke: #000000; stroke-width: 0.8"/>
      </g>
     </g>
     <g id="text_16">
      <!-- 90 -->
      <g transform="translate(37.875 46.357663)scale(0.1 -0.1)">
       <defs>
        <path id="DejaVuSans-39" d="M 703 97 
L 703 672 
Q 941 559 1184 500 
Q 1428 441 1663 441 
Q 2288 441 2617 861 
Q 2947 1281 2994 2138 
Q 2813 1869 2534 1725 
Q 2256 1581 1919 1581 
Q 1219 1581 811 2004 
Q 403 2428 403 3163 
Q 403 3881 828 4315 
Q 1253 4750 1959 4750 
Q 2769 4750 3195 4129 
Q 3622 3509 3622 2328 
Q 3622 1225 3098 567 
Q 2575 -91 1691 -91 
Q 1453 -91 1209 -44 
Q 966 3 703 97 
z
M 1959 2075 
Q 2384 2075 2632 2365 
Q 2881 2656 2881 3163 
Q 2881 3666 2632 3958 
Q 2384 4250 1959 4250 
Q 1534 4250 1286 3958 
Q 1038 3666 1038 3163 
Q 1038 2656 1286 2365 
Q 1534 2075 1959 2075 
z
" transform="scale(0.015625)"/>
       </defs>
       <use xlink:href="#DejaVuSans-39"/>
       <use xlink:href="#DejaVuSans-30" x="63.623047"/>
      </g>
     </g>
    </g>
   </g>
   <g id="line2d_17">
    <path d="M 73.832727 287.640362 
L 74.850453 288.387995 
L 75.868179 288.249553 
L 76.885905 291.140892 
L 77.903631 286.434693 
L 78.921357 283.471269 
L 80.956808 286.560814 
L 81.974534 291.787049 
L 82.99226 291.740843 
L 84.009986 287.841627 
L 85.027712 284.391554 
L 86.045437 283.61744 
L 87.063163 287.222104 
L 88.080889 289.322282 
L 89.098615 295.022107 
L 90.116341 295.488 
L 91.134067 294.5742 
L 92.151793 293.41203 
L 93.169518 291.563318 
L 94.187244 288.116796 
L 95.20497 286.446543 
L 97.240422 289.456799 
L 98.258148 292.908844 
L 99.275873 291.281455 
L 100.293599 292.98972 
L 101.311325 290.215986 
L 102.329051 292.150445 
L 103.346777 288.693233 
L 104.364503 289.27642 
L 105.382229 290.476458 
L 106.399954 294.60885 
L 107.41768 294.083212 
L 108.435406 292.044801 
L 109.453132 284.051444 
L 110.470858 282.398007 
L 111.488584 282.226893 
L 112.506309 286.715897 
L 113.524035 291.898417 
L 114.541761 288.847222 
L 115.559487 290.469648 
L 116.577213 291.124668 
L 117.594939 292.207517 
L 118.612665 292.505033 
L 119.63039 291.591822 
L 120.648116 290.512465 
L 121.665842 287.514832 
L 122.683568 287.077142 
L 123.701294 284.846582 
L 124.71902 285.700148 
L 125.736746 289.565281 
L 126.754471 289.309921 
L 127.772197 293.945992 
L 128.789923 292.781741 
L 129.807649 289.151451 
L 130.825375 288.8329 
L 131.843101 292.710622 
L 132.860826 292.609645 
L 133.878552 293.849715 
L 134.896278 291.307509 
L 135.914004 285.544882 
L 136.93173 284.22791 
L 137.949456 285.116522 
L 138.967182 227.191894 
L 139.984907 229.354639 
L 141.002633 229.244783 
L 142.020359 229.437927 
L 143.038085 231.171884 
L 144.055811 228.346255 
L 145.073537 230.343822 
L 146.091262 235.658642 
L 147.108988 237.096603 
L 148.126714 235.527616 
L 149.14444 237.39377 
L 150.162166 235.520509 
L 151.179892 235.203307 
L 152.197618 233.184679 
L 153.215343 233.000445 
L 154.233069 237.567355 
L 155.250795 237.178884 
L 156.268521 233.751312 
L 157.286247 233.215145 
L 158.303973 233.39462 
L 159.321698 234.267021 
L 160.339424 233.499997 
L 161.35715 234.208841 
L 162.374876 235.263275 
L 163.392602 235.071871 
L 164.410328 234.043513 
L 165.428054 236.138381 
L 166.445779 232.096827 
L 167.463505 233.056755 
L 168.481231 233.441132 
L 169.498957 235.178588 
L 170.516683 238.151909 
L 171.534409 239.322652 
L 172.552135 235.417233 
L 173.56986 230.838137 
L 174.587586 234.131116 
L 175.605312 235.747178 
L 176.623038 235.839441 
L 177.640764 232.881944 
L 178.65849 237.752824 
L 180.693941 239.58372 
L 181.711667 237.489853 
L 182.729393 231.543487 
L 183.747119 230.498749 
L 184.764845 232.751464 
L 185.782571 236.282211 
L 186.800296 237.925516 
L 187.818022 233.577664 
L 188.835748 233.920413 
L 189.853474 231.161777 
L 190.8712 232.292581 
L 192.906651 232.415119 
L 193.924377 235.545528 
L 194.942103 240.09437 
L 195.959829 236.550313 
L 196.977555 231.6578 
L 197.995281 236.077754 
L 199.013007 235.903319 
L 200.030732 232.66397 
L 201.048458 228.79013 
L 202.066184 231.751027 
L 203.08391 236.15036 
L 204.101636 162.895399 
L 205.119362 162.399417 
L 206.137087 165.530043 
L 207.154813 160.574569 
L 208.172539 160.6836 
L 209.190265 161.692283 
L 210.207991 166.089605 
L 211.225717 165.882204 
L 212.243443 166.026401 
L 213.261168 164.357786 
L 214.278894 163.05465 
L 215.29662 167.138852 
L 216.314346 162.873198 
L 217.332072 160.340813 
L 218.349798 163.387156 
L 219.367524 170.40319 
L 220.385249 171.99949 
L 221.402975 169.547819 
L 222.420701 169.959293 
L 223.438427 169.10453 
L 224.456153 170.281308 
L 225.473879 168.707121 
L 226.491604 171.707533 
L 227.50933 171.857795 
L 228.527056 171.604357 
L 229.544782 169.31203 
L 230.562508 164.347622 
L 231.580234 169.060158 
L 232.59796 167.687904 
L 233.615685 164.526497 
L 234.633411 165.663687 
L 235.651137 163.466305 
L 236.668863 167.111224 
L 237.686589 168.720476 
L 238.704315 167.730984 
L 239.72204 170.200946 
L 240.739766 171.822297 
L 241.757492 168.590703 
L 242.775218 162.316853 
L 243.792944 163.974157 
L 244.81067 166.38545 
L 246.846121 168.242632 
L 247.863847 168.673884 
L 248.881573 171.203545 
L 249.899299 169.107519 
L 250.917025 161.152894 
L 251.934751 159.187518 
L 252.952476 160.559907 
L 253.970202 163.479825 
L 254.987928 164.001891 
L 256.005654 161.726342 
L 257.02338 162.774466 
L 258.041106 165.772329 
L 259.058832 166.883431 
L 260.076557 168.185206 
L 261.094283 170.703997 
L 262.112009 169.71543 
L 263.129735 164.373643 
L 264.147461 161.680117 
L 265.165187 160.701522 
L 266.182913 166.233577 
L 267.200638 167.891278 
L 268.218364 164.392976 
L 269.23609 104.192747 
L 270.253816 105.621067 
L 271.271542 108.235604 
L 272.289268 112.531885 
L 273.306993 116.267336 
L 274.324719 115.255397 
L 276.360171 104.871356 
L 277.377897 104.849367 
L 278.395623 108.099819 
L 279.413349 113.151301 
L 280.431074 111.738044 
L 281.4488 114.678565 
L 282.466526 116.161661 
L 283.484252 114.311781 
L 284.501978 108.34498 
L 285.519704 112.21796 
L 286.537429 115.464093 
L 287.555155 117.456933 
L 288.572881 115.677188 
L 289.590607 108.444846 
L 290.608333 109.925499 
L 291.626059 114.511801 
L 292.643785 115.147828 
L 293.66151 115.458144 
L 294.679236 109.782573 
L 295.696962 107.951288 
L 296.714688 109.876032 
L 297.732414 115.908862 
L 298.75014 115.592199 
L 299.767865 117.985859 
L 300.785591 114.915905 
L 301.803317 110.617088 
L 303.838769 112.305983 
L 304.856495 111.491144 
L 305.874221 113.40639 
L 306.891946 113.46913 
L 307.909672 114.587203 
L 308.927398 110.415978 
L 309.945124 107.322295 
L 310.96285 106.329069 
L 311.980576 111.521986 
L 312.998302 114.359411 
L 314.016027 109.006431 
L 315.033753 109.807917 
L 317.069205 108.019004 
L 318.086931 113.8045 
L 319.104657 113.973958 
L 320.122382 110.127519 
L 321.140108 113.071079 
L 322.157834 108.593434 
L 323.17556 108.841252 
L 324.193286 109.8828 
L 325.211012 105.94635 
L 326.228738 103.734204 
L 327.246463 107.714611 
L 328.264189 115.158105 
L 329.281915 113.946792 
L 330.299641 111.796491 
L 331.317367 111.053362 
L 332.335093 107.195419 
L 333.352818 109.533523 
L 334.370544 96.831648 
L 335.38827 93.171163 
L 336.405996 93.471507 
L 338.441448 80.865233 
L 339.459174 78.900299 
L 340.476899 76.214344 
L 341.494625 74.25768 
L 342.512351 76.9328 
L 343.530077 78.565625 
L 344.547803 75.195299 
L 345.565529 70.206362 
L 346.583254 72.041565 
L 347.60098 73.295376 
L 348.618706 70.765783 
L 349.636432 67.816558 
L 350.654158 68.050855 
L 351.671884 69.762539 
L 352.68961 67.622882 
L 353.707335 63.665015 
L 354.725061 58.894964 
L 355.742787 62.248859 
L 356.760513 63.74973 
L 357.778239 60.353233 
L 358.795965 64.001398 
L 359.813691 59.236105 
L 360.831416 59.166863 
L 361.849142 63.278352 
L 362.866868 59.964183 
L 363.884594 55.960617 
L 364.90232 55.681508 
L 365.920046 56.705109 
L 366.937771 57.267028 
L 367.955497 59.713526 
L 368.973223 59.911341 
L 369.990949 59.162623 
L 371.008675 60.861345 
L 372.026401 64.159231 
L 373.044127 64.080326 
L 374.061852 64.214424 
L 375.079578 62.917682 
L 376.097304 60.399159 
L 377.11503 55.887938 
L 378.132756 55.942222 
L 379.150482 61.090462 
L 380.168207 62.985679 
L 381.185933 59.371928 
L 382.203659 63.253609 
L 383.221385 62.697192 
L 384.239111 56.535757 
L 385.256837 53.568 
L 386.274563 53.632425 
L 387.292288 56.070732 
L 388.310014 60.094198 
L 389.32774 60.634479 
L 390.345466 64.119885 
L 391.363192 66.194697 
L 393.398643 56.755831 
L 394.416369 61.007496 
L 395.434095 63.660915 
L 396.451821 60.904833 
L 397.469547 57.449753 
L 398.487273 60.192438 
L 398.487273 60.192438 
" clip-path="url(#pf3adb5902c)" style="fill: none; stroke: #1f77b4; stroke-width: 1.5; stroke-linecap: square"/>
   </g>
   <g id="patch_3">
    <path d="M 57.6 307.584 
L 57.6 41.472 
" style="fill: none; stroke: #000000; stroke-width: 0.8; stroke-linejoin: miter; stroke-linecap: square"/>
   </g>
   <g id="patch_4">
    <path d="M 414.72 307.584 
L 414.72 41.472 
" style="fill: none; stroke: #000000; stroke-width: 0.8; stroke-linejoin: miter; stroke-linecap: square"/>
   </g>
   <g id="patch_5">
    <path d="M 57.6 307.584 
L 414.72 307.584 
" style="fill: none; stroke: #000000; stroke-width: 0.8; stroke-linejoin: miter; stroke-linecap: square"/>
   </g>
   <g id="patch_6">
    <path d="M 57.6 41.472 
L 414.72 41.472 
" style="fill: none; stroke: #000000; stroke-width: 0.8; stroke-linejoin: miter; stroke-linecap: square"/>
   </g>
   <g id="legend_1">
    <g id="patch_7">
     <path d="M 64.6 64.150125 
L 118.245312 64.150125 
Q 120.245312 64.150125 120.245312 62.150125 
L 120.245312 48.472 
Q 120.245312 46.472 118.245312 46.472 
L 64.6 46.472 
Q 62.6 46.472 62.6 48.472 
L 62.6 62.150125 
Q 62.6 64.150125 64.6 64.150125 
z
" style="fill: #ffffff; opacity: 0.8; stroke: #cccccc; stroke-linejoin: miter"/>
    </g>
    <g id="line2d_18">
     <path d="M 66.6 54.570438 
L 76.6 54.570438 
L 86.6 54.570438 
" style="fill: none; stroke: #1f77b4; stroke-width: 1.5; stroke-linecap: square"/>
    </g>
    <g id="text_17">
     <!-- set3 -->
     <g transform="translate(94.6 58.070438)scale(0.1 -0.1)">
      <defs>
       <path id="DejaVuSans-73" d="M 2834 3397 
L 2834 2853 
Q 2591 2978 2328 3040 
Q 2066 3103 1784 3103 
Q 1356 3103 1142 2972 
Q 928 2841 928 2578 
Q 928 2378 1081 2264 
Q 1234 2150 1697 2047 
L 1894 2003 
Q 2506 1872 2764 1633 
Q 3022 1394 3022 966 
Q 3022 478 2636 193 
Q 2250 -91 1575 -91 
Q 1294 -91 989 -36 
Q 684 19 347 128 
L 347 722 
Q 666 556 975 473 
Q 1284 391 1588 391 
Q 1994 391 2212 530 
Q 2431 669 2431 922 
Q 2431 1156 2273 1281 
Q 2116 1406 1581 1522 
L 1381 1569 
Q 847 1681 609 1914 
Q 372 2147 372 2553 
Q 372 3047 722 3315 
Q 1072 3584 1716 3584 
Q 2034 3584 2315 3537 
Q 2597 3491 2834 3397 
z
" transform="scale(0.015625)"/>
       <path id="DejaVuSans-65" d="M 3597 1894 
L 3597 1613 
L 953 1613 
Q 991 1019 1311 708 
Q 1631 397 2203 397 
Q 2534 397 2845 478 
Q 3156 559 3463 722 
L 3463 178 
Q 3153 47 2828 -22 
Q 2503 -91 2169 -91 
Q 1331 -91 842 396 
Q 353 884 353 1716 
Q 353 2575 817 3079 
Q 1281 3584 2069 3584 
Q 2775 3584 3186 3129 
Q 3597 2675 3597 1894 
z
M 3022 2063 
Q 3016 2534 2758 2815 
Q 2500 3097 2075 3097 
Q 1594 3097 1305 2825 
Q 1016 2553 972 2059 
L 3022 2063 
z
" transform="scale(0.015625)"/>
       <path id="DejaVuSans-74" d="M 1172 4494 
L 1172 3500 
L 2356 3500 
L 2356 3053 
L 1172 3053 
L 1172 1153 
Q 1172 725 1289 603 
Q 1406 481 1766 481 
L 2356 481 
L 2356 0 
L 1766 0 
Q 1100 0 847 248 
Q 594 497 594 1153 
L 594 3053 
L 172 3053 
L 172 3500 
L 594 3500 
L 594 4494 
L 1172 4494 
z
" transform="scale(0.015625)"/>
      </defs>
      <use xlink:href="#DejaVuSans-73"/>
      <use xlink:href="#DejaVuSans-65" x="52.099609"/>
      <use xlink:href="#DejaVuSans-74" x="113.623047"/>
      <use xlink:href="#DejaVuSans-33" x="152.832031"/>
     </g>
    </g>
   </g>
  </g>
 </g>
 <defs>
  <clipPath id="pf3adb5902c">
   <rect x="57.6" y="41.472" width="357.12" height="266.112"/>
  </clipPath>
 </defs>
</svg>
