<?xml version="1.0" encoding="utf-8" standalone="no"?>
<!DOCTYPE svg PUBLIC "-//W3C//DTD SVG 1.1//EN"
  "http://www.w3.org/Graphics/SVG/1.1/DTD/svg11.dtd">
<svg xmlns:xlink="http://www.w3.org/1999/xlink" width="460.8pt" height="345.6pt" viewBox="0 0 460.8 345.6" xmlns="http://www.w3.org/2000/svg" version="1.1">
 <metadata>
  <rdf:RDF xmlns:dc="http://purl.org/dc/elements/1.1/" xmlns:cc="http://creativecommons.org/ns#" xmlns:rdf="http://www.w3.org/1999/02/22-rdf-syntax-ns#">
   <cc:Work>
    <dc:type rdf:resource="http://purl.org/dc/dcmitype/StillImage"/>
    <dc:date>2022-08-11T15:17:14.347161</dc:date>
    <dc:format>image/svg+xml</dc:format>
    <dc:creator>
     <cc:Agent>
      <dc:title>Matplotlib v3.5.2, https://matplotlib.org/</dc:title>
     </cc:Agent>
    </dc:creator>
   </cc:Work>
  </rdf:RDF>
 </metadata>
 <defs>
  <style type="text/css">*{stroke-linejoin: round; stroke-linecap: butt}</style>
 </defs>
 <g id="figure_1">
  <g id="patch_1">
   <path d="M 0 345.6 
L 460.8 345.6 
L 460.8 0 
L 0 0 
z
" style="fill: #ffffff"/>
  </g>
  <g id="axes_1">
   <g id="patch_2">
    <path d="M 57.6 307.584 
L 414.72 307.584 
L 414.72 41.472 
L 57.6 41.472 
z
" style="fill: #ffffff"/>
   </g>
   <g id="matplotlib.axis_1">
    <g id="xtick_1">
     <g id="line2d_1">
      <defs>
       <path id="m7a827f912f" d="M 0 0 
L 0 3.5 
" style="stroke: #000000; stroke-width: 0.8"/>
      </defs>
      <g>
       <use xlink:href="#m7a827f912f" x="73.832727" y="307.584" style="stroke: #000000; stroke-width: 0.8"/>
      </g>
     </g>
     <g id="text_1">
      <!-- 0 -->
      <g transform="translate(70.651477 322.182437)scale(0.1 -0.1)">
       <defs>
        <path id="DejaVuSans-30" d="M 2034 4250 
Q 1547 4250 1301 3770 
Q 1056 3291 1056 2328 
Q 1056 1369 1301 889 
Q 1547 409 2034 409 
Q 2525 409 2770 889 
Q 3016 1369 3016 2328 
Q 3016 3291 2770 3770 
Q 2525 4250 2034 4250 
z
M 2034 4750 
Q 2819 4750 3233 4129 
Q 3647 3509 3647 2328 
Q 3647 1150 3233 529 
Q 2819 -91 2034 -91 
Q 1250 -91 836 529 
Q 422 1150 422 2328 
Q 422 3509 836 4129 
Q 1250 4750 2034 4750 
z
" transform="scale(0.015625)"/>
       </defs>
       <use xlink:href="#DejaVuSans-30"/>
      </g>
     </g>
    </g>
    <g id="xtick_2">
     <g id="line2d_2">
      <g>
       <use xlink:href="#m7a827f912f" x="137.266597" y="307.584" style="stroke: #000000; stroke-width: 0.8"/>
      </g>
     </g>
     <g id="text_2">
      <!-- 500 -->
      <g transform="translate(127.722847 322.182437)scale(0.1 -0.1)">
       <defs>
        <path id="DejaVuSans-35" d="M 691 4666 
L 3169 4666 
L 3169 4134 
L 1269 4134 
L 1269 2991 
Q 1406 3038 1543 3061 
Q 1681 3084 1819 3084 
Q 2600 3084 3056 2656 
Q 3513 2228 3513 1497 
Q 3513 744 3044 326 
Q 2575 -91 1722 -91 
Q 1428 -91 1123 -41 
Q 819 9 494 109 
L 494 744 
Q 775 591 1075 516 
Q 1375 441 1709 441 
Q 2250 441 2565 725 
Q 2881 1009 2881 1497 
Q 2881 1984 2565 2268 
Q 2250 2553 1709 2553 
Q 1456 2553 1204 2497 
Q 953 2441 691 2322 
L 691 4666 
z
" transform="scale(0.015625)"/>
       </defs>
       <use xlink:href="#DejaVuSans-35"/>
       <use xlink:href="#DejaVuSans-30" x="63.623047"/>
       <use xlink:href="#DejaVuSans-30" x="127.246094"/>
      </g>
     </g>
    </g>
    <g id="xtick_3">
     <g id="line2d_3">
      <g>
       <use xlink:href="#m7a827f912f" x="200.700467" y="307.584" style="stroke: #000000; stroke-width: 0.8"/>
      </g>
     </g>
     <g id="text_3">
      <!-- 1000 -->
      <g transform="translate(187.975467 322.182437)scale(0.1 -0.1)">
       <defs>
        <path id="DejaVuSans-31" d="M 794 531 
L 1825 531 
L 1825 4091 
L 703 3866 
L 703 4441 
L 1819 4666 
L 2450 4666 
L 2450 531 
L 3481 531 
L 3481 0 
L 794 0 
L 794 531 
z
" transform="scale(0.015625)"/>
       </defs>
       <use xlink:href="#DejaVuSans-31"/>
       <use xlink:href="#DejaVuSans-30" x="63.623047"/>
       <use xlink:href="#DejaVuSans-30" x="127.246094"/>
       <use xlink:href="#DejaVuSans-30" x="190.869141"/>
      </g>
     </g>
    </g>
    <g id="xtick_4">
     <g id="line2d_4">
      <g>
       <use xlink:href="#m7a827f912f" x="264.134337" y="307.584" style="stroke: #000000; stroke-width: 0.8"/>
      </g>
     </g>
     <g id="text_4">
      <!-- 1500 -->
      <g transform="translate(251.409337 322.182437)scale(0.1 -0.1)">
       <use xlink:href="#DejaVuSans-31"/>
       <use xlink:href="#DejaVuSans-35" x="63.623047"/>
       <use xlink:href="#DejaVuSans-30" x="127.246094"/>
       <use xlink:href="#DejaVuSans-30" x="190.869141"/>
      </g>
     </g>
    </g>
    <g id="xtick_5">
     <g id="line2d_5">
      <g>
       <use xlink:href="#m7a827f912f" x="327.568206" y="307.584" style="stroke: #000000; stroke-width: 0.8"/>
      </g>
     </g>
     <g id="text_5">
      <!-- 2000 -->
      <g transform="translate(314.843206 322.182437)scale(0.1 -0.1)">
       <defs>
        <path id="DejaVuSans-32" d="M 1228 531 
L 3431 531 
L 3431 0 
L 469 0 
L 469 531 
Q 828 903 1448 1529 
Q 2069 2156 2228 2338 
Q 2531 2678 2651 2914 
Q 2772 3150 2772 3378 
Q 2772 3750 2511 3984 
Q 2250 4219 1831 4219 
Q 1534 4219 1204 4116 
Q 875 4013 500 3803 
L 500 4441 
Q 881 4594 1212 4672 
Q 1544 4750 1819 4750 
Q 2544 4750 2975 4387 
Q 3406 4025 3406 3419 
Q 3406 3131 3298 2873 
Q 3191 2616 2906 2266 
Q 2828 2175 2409 1742 
Q 1991 1309 1228 531 
z
" transform="scale(0.015625)"/>
       </defs>
       <use xlink:href="#DejaVuSans-32"/>
       <use xlink:href="#DejaVuSans-30" x="63.623047"/>
       <use xlink:href="#DejaVuSans-30" x="127.246094"/>
       <use xlink:href="#DejaVuSans-30" x="190.869141"/>
      </g>
     </g>
    </g>
    <g id="xtick_6">
     <g id="line2d_6">
      <g>
       <use xlink:href="#m7a827f912f" x="391.002076" y="307.584" style="stroke: #000000; stroke-width: 0.8"/>
      </g>
     </g>
     <g id="text_6">
      <!-- 2500 -->
      <g transform="translate(378.277076 322.182437)scale(0.1 -0.1)">
       <use xlink:href="#DejaVuSans-32"/>
       <use xlink:href="#DejaVuSans-35" x="63.623047"/>
       <use xlink:href="#DejaVuSans-30" x="127.246094"/>
       <use xlink:href="#DejaVuSans-30" x="190.869141"/>
      </g>
     </g>
    </g>
   </g>
   <g id="matplotlib.axis_2">
    <g id="ytick_1">
     <g id="line2d_7">
      <defs>
       <path id="m8583d95162" d="M 0 0 
L -3.5 0 
" style="stroke: #000000; stroke-width: 0.8"/>
      </defs>
      <g>
       <use xlink:href="#m8583d95162" x="57.6" y="289.692278" style="stroke: #000000; stroke-width: 0.8"/>
      </g>
     </g>
     <g id="text_7">
      <!-- 3900 -->
      <g transform="translate(25.15 293.491497)scale(0.1 -0.1)">
       <defs>
        <path id="DejaVuSans-33" d="M 2597 2516 
Q 3050 2419 3304 2112 
Q 3559 1806 3559 1356 
Q 3559 666 3084 287 
Q 2609 -91 1734 -91 
Q 1441 -91 1130 -33 
Q 819 25 488 141 
L 488 750 
Q 750 597 1062 519 
Q 1375 441 1716 441 
Q 2309 441 2620 675 
Q 2931 909 2931 1356 
Q 2931 1769 2642 2001 
Q 2353 2234 1838 2234 
L 1294 2234 
L 1294 2753 
L 1863 2753 
Q 2328 2753 2575 2939 
Q 2822 3125 2822 3475 
Q 2822 3834 2567 4026 
Q 2313 4219 1838 4219 
Q 1578 4219 1281 4162 
Q 984 4106 628 3988 
L 628 4550 
Q 988 4650 1302 4700 
Q 1616 4750 1894 4750 
Q 2613 4750 3031 4423 
Q 3450 4097 3450 3541 
Q 3450 3153 3228 2886 
Q 3006 2619 2597 2516 
z
" transform="scale(0.015625)"/>
        <path id="DejaVuSans-39" d="M 703 97 
L 703 672 
Q 941 559 1184 500 
Q 1428 441 1663 441 
Q 2288 441 2617 861 
Q 2947 1281 2994 2138 
Q 2813 1869 2534 1725 
Q 2256 1581 1919 1581 
Q 1219 1581 811 2004 
Q 403 2428 403 3163 
Q 403 3881 828 4315 
Q 1253 4750 1959 4750 
Q 2769 4750 3195 4129 
Q 3622 3509 3622 2328 
Q 3622 1225 3098 567 
Q 2575 -91 1691 -91 
Q 1453 -91 1209 -44 
Q 966 3 703 97 
z
M 1959 2075 
Q 2384 2075 2632 2365 
Q 2881 2656 2881 3163 
Q 2881 3666 2632 3958 
Q 2384 4250 1959 4250 
Q 1534 4250 1286 3958 
Q 1038 3666 1038 3163 
Q 1038 2656 1286 2365 
Q 1534 2075 1959 2075 
z
" transform="scale(0.015625)"/>
       </defs>
       <use xlink:href="#DejaVuSans-33"/>
       <use xlink:href="#DejaVuSans-39" x="63.623047"/>
       <use xlink:href="#DejaVuSans-30" x="127.246094"/>
       <use xlink:href="#DejaVuSans-30" x="190.869141"/>
      </g>
     </g>
    </g>
    <g id="ytick_2">
     <g id="line2d_8">
      <g>
       <use xlink:href="#m8583d95162" x="57.6" y="233.881115" style="stroke: #000000; stroke-width: 0.8"/>
      </g>
     </g>
     <g id="text_8">
      <!-- 4000 -->
      <g transform="translate(25.15 237.680333)scale(0.1 -0.1)">
       <defs>
        <path id="DejaVuSans-34" d="M 2419 4116 
L 825 1625 
L 2419 1625 
L 2419 4116 
z
M 2253 4666 
L 3047 4666 
L 3047 1625 
L 3713 1625 
L 3713 1100 
L 3047 1100 
L 3047 0 
L 2419 0 
L 2419 1100 
L 313 1100 
L 313 1709 
L 2253 4666 
z
" transform="scale(0.015625)"/>
       </defs>
       <use xlink:href="#DejaVuSans-34"/>
       <use xlink:href="#DejaVuSans-30" x="63.623047"/>
       <use xlink:href="#DejaVuSans-30" x="127.246094"/>
       <use xlink:href="#DejaVuSans-30" x="190.869141"/>
      </g>
     </g>
    </g>
    <g id="ytick_3">
     <g id="line2d_9">
      <g>
       <use xlink:href="#m8583d95162" x="57.6" y="178.069951" style="stroke: #000000; stroke-width: 0.8"/>
      </g>
     </g>
     <g id="text_9">
      <!-- 4100 -->
      <g transform="translate(25.15 181.86917)scale(0.1 -0.1)">
       <use xlink:href="#DejaVuSans-34"/>
       <use xlink:href="#DejaVuSans-31" x="63.623047"/>
       <use xlink:href="#DejaVuSans-30" x="127.246094"/>
       <use xlink:href="#DejaVuSans-30" x="190.869141"/>
      </g>
     </g>
    </g>
    <g id="ytick_4">
     <g id="line2d_10">
      <g>
       <use xlink:href="#m8583d95162" x="57.6" y="122.258788" style="stroke: #000000; stroke-width: 0.8"/>
      </g>
     </g>
     <g id="text_10">
      <!-- 4200 -->
      <g transform="translate(25.15 126.058007)scale(0.1 -0.1)">
       <use xlink:href="#DejaVuSans-34"/>
       <use xlink:href="#DejaVuSans-32" x="63.623047"/>
       <use xlink:href="#DejaVuSans-30" x="127.246094"/>
       <use xlink:href="#DejaVuSans-30" x="190.869141"/>
      </g>
     </g>
    </g>
    <g id="ytick_5">
     <g id="line2d_11">
      <g>
       <use xlink:href="#m8583d95162" x="57.6" y="66.447625" style="stroke: #000000; stroke-width: 0.8"/>
      </g>
     </g>
     <g id="text_11">
      <!-- 4300 -->
      <g transform="translate(25.15 70.246844)scale(0.1 -0.1)">
       <use xlink:href="#DejaVuSans-34"/>
       <use xlink:href="#DejaVuSans-33" x="63.623047"/>
       <use xlink:href="#DejaVuSans-30" x="127.246094"/>
       <use xlink:href="#DejaVuSans-30" x="190.869141"/>
      </g>
     </g>
    </g>
   </g>
   <g id="line2d_12">
    <path d="M 73.832727 158.607716 
L 73.959595 158.464373 
L 74.21333 163.97409 
L 74.340198 162.47144 
L 74.467066 162.399768 
L 74.593934 164.618044 
L 74.720801 164.832786 
L 75.101405 156.675581 
L 75.228272 156.604182 
L 75.482008 158.106832 
L 75.608876 157.89209 
L 75.735743 158.249903 
L 75.862611 158.965256 
L 76.116347 158.035161 
L 76.370082 164.618044 
L 76.49695 163.330136 
L 76.750685 159.680882 
L 77.131289 156.318041 
L 77.258156 156.675581 
L 77.385024 156.246369 
L 77.511892 156.818652 
L 77.638759 156.103299 
L 77.765627 153.956695 
L 77.892495 154.528977 
L 78.019363 157.534277 
L 78.273098 157.820418 
L 78.399966 161.11186 
L 78.526834 159.60921 
L 78.653701 156.174698 
L 78.907437 159.108599 
L 79.034305 160.253436 
L 79.28804 166.192093 
L 79.414908 165.47674 
L 79.541776 166.621578 
L 79.668643 166.120694 
L 79.922379 163.043994 
L 80.176114 154.815391 
L 80.42985 163.401535 
L 80.683585 162.256698 
L 80.810453 160.396507 
L 81.064188 155.530744 
L 81.317924 158.106832 
L 81.444792 156.961995 
L 81.571659 158.249903 
L 81.825395 163.473206 
L 81.952263 157.605949 
L 82.205998 156.890324 
L 82.332866 157.89209 
L 82.586601 155.316274 
L 82.840337 157.677348 
L 83.094072 156.246369 
L 83.22094 156.961995 
L 83.474675 156.890324 
L 83.855279 162.900651 
L 83.982146 163.544606 
L 84.109014 165.047256 
L 84.235882 164.689716 
L 84.36275 162.972323 
L 84.489617 163.687949 
L 84.616485 162.399768 
L 84.870221 154.385907 
L 85.123956 157.176465 
L 85.250824 155.673814 
L 85.377692 155.888557 
L 85.631427 157.74902 
L 85.758295 157.74902 
L 85.885163 157.248136 
L 86.01203 157.605949 
L 86.138898 157.534277 
L 86.265766 157.677348 
L 86.519501 160.610977 
L 86.646369 158.035161 
L 86.773237 158.321302 
L 87.026972 165.333669 
L 87.280708 161.827486 
L 87.407575 163.473206 
L 87.534443 162.47144 
L 87.788179 157.319535 
L 88.041914 158.536044 
L 88.422517 155.244603 
L 88.549385 155.673814 
L 88.803121 155.316274 
L 88.929988 155.673814 
L 89.183724 155.602415 
L 89.437459 155.244603 
L 89.691195 156.38944 
L 89.94493 155.459345 
L 90.198666 157.033394 
L 90.325533 156.532511 
L 90.452401 157.105066 
L 90.706137 154.314507 
L 91.08674 156.461112 
L 91.340475 155.673814 
L 91.721079 158.464373 
L 91.847946 157.74902 
L 91.974814 159.179998 
L 92.101682 162.829253 
L 92.22855 162.686182 
L 92.482285 155.745486 
L 92.73602 162.328369 
L 93.116624 157.033394 
L 93.243491 157.248136 
L 93.370359 158.679115 
L 93.497227 162.686182 
L 93.624095 161.827486 
L 93.750962 156.103299 
L 93.87783 156.38944 
L 94.131566 162.328369 
L 94.258433 162.757581 
L 94.512169 163.97409 
L 94.639037 163.043994 
L 95.01964 155.888557 
L 95.146508 157.74902 
L 95.273375 157.89209 
L 95.400243 157.820418 
L 95.527111 157.176465 
L 95.653978 155.745486 
L 95.907714 160.96879 
L 96.034582 160.897391 
L 96.161449 160.96879 
L 96.288317 160.324836 
L 96.542053 156.747253 
L 96.66892 158.106832 
L 96.922656 155.459345 
L 97.049524 157.820418 
L 97.176391 157.89209 
L 97.303259 157.033394 
L 97.556995 158.679115 
L 97.81073 155.602415 
L 97.937598 156.461112 
L 98.064466 155.960228 
L 98.191333 157.248136 
L 98.318201 156.890324 
L 98.445069 159.108599 
L 98.698804 165.619811 
L 98.825672 163.187065 
L 98.95254 163.759348 
L 99.079407 165.190327 
L 99.333143 165.047256 
L 99.460011 166.335164 
L 99.713746 174.349298 
L 99.840614 174.277626 
L 99.967482 173.848415 
L 100.094349 174.492369 
L 100.221217 173.991485 
L 100.474953 170.771443 
L 100.728688 172.703577 
L 100.855556 172.703577 
L 100.982424 173.41893 
L 101.236159 170.843115 
L 101.363027 174.134556 
L 101.489894 173.204461 
L 101.74363 165.047256 
L 101.997365 168.982651 
L 102.124233 171.630139 
L 102.251101 170.342231 
L 102.504836 164.260231 
L 102.631704 163.902418 
L 102.758572 162.399768 
L 102.88544 163.687949 
L 103.012307 166.263765 
L 103.266043 165.619811 
L 103.392911 166.120694 
L 103.646646 166.049023 
L 103.773514 165.762881 
L 103.900382 166.049023 
L 104.027249 165.977623 
L 104.280985 164.618044 
L 104.407852 164.546372 
L 104.53472 164.689716 
L 104.661588 166.549906 
L 104.788456 166.621578 
L 104.915323 163.83102 
L 105.042191 165.047256 
L 105.295927 172.345764 
L 105.549662 174.134556 
L 105.803398 173.204461 
L 105.930265 173.848415 
L 106.057133 173.776743 
L 106.184001 173.204461 
L 106.310869 145.692391 
L 106.691472 145.871161 
L 106.81834 146.729857 
L 106.945207 144.511582 
L 107.072075 145.656419 
L 107.198943 144.297112 
L 107.325811 140.8626 
L 107.579546 147.803023 
L 107.706414 147.230741 
L 107.833281 146.801257 
L 108.087017 148.518649 
L 108.340752 147.373812 
L 108.46762 147.516882 
L 108.721356 148.303907 
L 108.848223 146.9446 
L 108.975091 147.015999 
L 109.101959 148.59032 
L 109.228827 148.733391 
L 109.355694 148.446978 
L 109.60943 149.878229 
L 109.863165 147.946367 
L 110.116901 149.305674 
L 110.370636 146.9446 
L 110.751239 154.67232 
L 111.004975 149.949627 
L 111.131843 150.379112 
L 111.25871 149.520416 
L 111.766181 155.101532 
L 111.893049 155.244603 
L 112.019917 152.454044 
L 112.146785 152.382373 
L 112.273652 153.241069 
L 112.527388 149.735158 
L 112.654256 149.949627 
L 113.034859 148.017766 
L 113.161727 147.30214 
L 113.288594 147.946367 
L 113.415462 147.946367 
L 113.54233 147.230741 
L 113.669197 147.445483 
L 113.922933 149.019532 
L 114.303536 147.731624 
L 114.557272 155.960228 
L 114.811007 153.38414 
L 114.937875 155.101532 
L 115.064743 158.536044 
L 115.19161 158.536044 
L 115.318478 156.38944 
L 115.445346 157.033394 
L 115.572214 155.960228 
L 115.699081 152.096232 
L 115.825949 151.881762 
L 115.952817 155.02986 
L 116.206552 149.735158 
L 116.460288 156.38944 
L 116.714023 153.527483 
L 116.967759 158.536044 
L 117.221494 156.246369 
L 117.348362 156.818652 
L 117.728965 147.803023 
L 117.855833 149.019532 
L 118.109568 148.518649 
L 118.236436 147.230741 
L 118.363304 144.583253 
L 118.743907 149.377345 
L 118.997643 158.249903 
L 119.251378 148.017766 
L 119.505114 156.031627 
L 119.631981 154.314507 
L 119.885717 159.39474 
L 120.012584 160.396507 
L 120.139452 165.190327 
L 120.26632 164.045489 
L 120.520055 156.38944 
L 120.773791 145.942833 
L 121.154394 155.459345 
L 121.281262 155.459345 
L 121.661865 145.799762 
L 121.915601 149.520416 
L 122.042468 148.446978 
L 122.169336 149.735158 
L 122.676807 165.905952 
L 123.05741 163.258465 
L 123.184278 161.899157 
L 123.311146 163.258465 
L 123.438013 166.049023 
L 123.564881 164.689716 
L 123.818617 157.74902 
L 124.19922 165.691209 
L 124.326088 166.621578 
L 124.579823 171.773209 
L 124.706691 171.272326 
L 124.960426 166.764648 
L 125.087294 166.478507 
L 125.214162 167.05079 
L 125.594765 154.67232 
L 125.721633 158.321302 
L 125.975368 156.604182 
L 126.355971 160.396507 
L 126.482839 159.537811 
L 126.736575 164.832786 
L 126.99031 160.682648 
L 127.244046 163.401535 
L 127.370913 163.187065 
L 127.497781 163.473206 
L 127.751517 165.977623 
L 128.005252 163.473206 
L 128.13212 163.83102 
L 128.512723 157.033394 
L 128.639591 158.536044 
L 129.020194 147.946367 
L 129.147062 150.16437 
L 129.400797 146.157302 
L 129.654533 150.379112 
L 129.908268 147.588554 
L 130.162004 149.162603 
L 130.415739 151.953161 
L 130.542607 149.949627 
L 130.796342 170.270832 
L 131.050078 167.480274 
L 131.303813 165.619811 
L 131.430681 166.335164 
L 131.557549 166.406835 
L 131.684416 167.408602 
L 131.811284 171.630139 
L 131.938152 171.773209 
L 132.06502 167.694743 
L 132.191887 169.412136 
L 132.318755 172.846648 
L 132.572491 170.485301 
L 132.699358 173.919814 
L 132.826226 173.562001 
L 133.079962 165.405068 
L 133.206829 166.478507 
L 133.333697 169.913019 
L 133.460565 170.127489 
L 133.7143 165.261998 
L 133.841168 164.975857 
L 134.094904 168.338697 
L 134.221771 167.480274 
L 134.348639 164.761115 
L 134.475507 164.474973 
L 134.602375 165.619811 
L 134.729242 165.405068 
L 134.982978 168.052556 
L 135.109845 167.265531 
L 135.236713 167.480274 
L 135.363581 168.625111 
L 135.617316 155.673814 
L 135.871052 161.469673 
L 136.251655 155.960228 
L 136.505391 164.832786 
L 136.632258 164.260231 
L 137.012862 156.890324 
L 137.139729 156.604182 
L 137.266597 157.105066 
L 137.520333 154.815391 
L 137.774068 157.89209 
L 137.900936 157.176465 
L 138.027803 157.105066 
L 138.154671 157.89209 
L 138.408407 155.172931 
L 138.535274 155.459345 
L 138.662142 154.815391 
L 138.78901 182.720836 
L 139.042745 182.50623 
L 139.296481 189.589997 
L 139.423349 186.155349 
L 139.550216 186.799439 
L 139.677084 188.945907 
L 139.803952 188.015812 
L 139.93082 188.874371 
L 140.184555 196.244415 
L 140.438291 197.532323 
L 140.692026 198.820231 
L 141.072629 191.521859 
L 141.199497 193.096044 
L 141.453232 192.523626 
L 141.5801 193.668463 
L 141.833836 190.663299 
L 141.960703 191.879671 
L 142.087571 190.734834 
L 142.341307 182.148417 
L 142.848778 185.58293 
L 143.356249 172.989718 
L 143.609984 180.144884 
L 143.736852 179.429531 
L 143.990587 183.794139 
L 144.244323 181.075115 
L 144.37119 181.790741 
L 144.498058 181.790741 
L 144.751794 180.073485 
L 145.132397 183.722603 
L 145.259265 188.802836 
L 145.386132 189.017578 
L 145.513 186.656232 
L 145.766736 193.453857 
L 145.893603 193.096044 
L 146.020471 193.811534 
L 146.147339 195.385719 
L 146.401074 194.455488 
L 146.527942 196.244415 
L 146.65481 196.172744 
L 146.781678 193.31065 
L 146.908545 150.593582 
L 147.289148 149.091204 
L 147.416016 149.663486 
L 147.669752 149.305674 
L 147.923487 147.516882 
L 148.557826 159.25167 
L 148.684694 158.893857 
L 148.938429 155.745486 
L 149.065297 156.246369 
L 149.192165 155.459345 
L 149.4459 148.160836 
L 149.572768 149.806557 
L 149.699636 154.099766 
L 149.826503 153.16967 
L 149.953371 153.16967 
L 150.080239 155.101532 
L 150.333974 154.385907 
L 150.460842 152.954928 
L 150.714577 148.160836 
L 150.841445 147.230741 
L 150.968313 148.59032 
L 151.222048 158.178232 
L 151.475784 154.457578 
L 151.729519 156.747253 
L 151.856387 156.532511 
L 151.983255 156.818652 
L 152.363858 165.047256 
L 152.490726 164.474973 
L 152.744461 158.893857 
L 152.871329 161.541345 
L 152.998197 159.967023 
L 153.125064 156.747253 
L 153.3788 157.677348 
L 153.759403 148.089437 
L 153.886271 151.023066 
L 154.013139 150.307441 
L 154.140006 148.733391 
L 154.266874 150.16437 
L 154.393742 149.162603 
L 154.52061 150.450511 
L 154.647477 154.171437 
L 154.901213 149.377345 
L 155.154948 156.675581 
L 155.535552 158.893857 
L 155.789287 165.190327 
L 156.043022 159.823952 
L 156.296758 155.101532 
L 156.423626 155.172931 
L 156.677361 156.031627 
L 157.057964 156.961995 
L 157.184832 157.248136 
L 157.3117 157.105066 
L 157.565435 161.183532 
L 157.819171 157.105066 
L 157.946039 159.537811 
L 158.072906 159.680882 
L 158.326642 156.532511 
L 158.707245 158.392973 
L 158.96098 152.883256 
L 159.468451 161.040461 
L 159.595319 163.97409 
L 159.849055 161.11186 
L 160.737129 180.073485 
L 161.117732 172.846648 
L 161.371468 163.115394 
L 161.625203 175.064651 
L 161.878939 173.347531 
L 162.005806 173.204461 
L 162.259542 164.117161 
L 162.386409 166.764648 
L 162.513277 166.836047 
L 162.640145 166.692976 
L 162.89388 172.488835 
L 163.020748 172.774976 
L 163.147616 165.691209 
L 163.274484 165.762881 
L 163.401351 166.120694 
L 163.528219 165.762881 
L 163.781955 161.326602 
L 163.908822 163.902418 
L 164.03569 162.686182 
L 164.289426 157.033394 
L 164.416293 157.677348 
L 164.543161 157.534277 
L 164.923764 164.403302 
L 165.1775 166.406835 
L 165.431235 165.118927 
L 165.558103 163.330136 
L 165.684971 163.258465 
L 165.811838 164.045489 
L 166.065574 149.878229 
L 166.192442 150.879996 
L 166.319309 153.670554 
L 166.573045 148.876462 
L 166.82678 156.818652 
L 166.953648 155.960228 
L 167.080516 154.242836 
L 167.207384 154.743719 
L 167.461119 157.248136 
L 167.587987 155.530744 
L 167.714855 155.530744 
L 167.96859 157.605949 
L 168.095458 156.38944 
L 168.349193 163.115394 
L 168.602929 156.747253 
L 168.729796 157.391207 
L 168.856664 157.391207 
L 168.983532 155.101532 
L 169.1104 154.958462 
L 169.237267 155.745486 
L 169.617871 147.30214 
L 169.744738 148.303907 
L 169.998474 146.586787 
L 170.252209 148.303907 
L 170.505945 141.434883 
L 170.75968 147.159069 
L 170.886548 145.084137 
L 171.013416 146.300645 
L 171.140283 145.942833 
L 171.394019 175.351065 
L 171.520887 174.635439 
L 171.647754 176.853442 
L 171.774622 176.853442 
L 171.90149 173.848415 
L 172.028358 174.134556 
L 172.155225 175.207722 
L 172.282093 175.279393 
L 172.408961 175.207722 
L 172.535829 174.492369 
L 172.662696 174.921581 
L 173.170167 184.00888 
L 173.297035 184.00888 
L 173.550771 180.502697 
L 173.804506 174.850181 
L 173.931374 175.708605 
L 174.185109 172.918047 
L 174.438845 175.064651 
L 174.565712 173.06139 
L 174.69258 173.41893 
L 174.819448 174.134556 
L 175.073183 167.694743 
L 175.326919 174.062884 
L 175.453787 174.420697 
L 175.580654 174.062884 
L 175.707522 173.347531 
L 175.961258 175.923347 
L 176.214993 164.474973 
L 176.341861 169.412136 
L 176.468729 169.769948 
L 176.595596 165.977623 
L 176.722464 166.049023 
L 176.849332 165.762881 
L 176.9762 166.692976 
L 177.229935 173.490602 
L 177.737406 163.97409 
L 177.864274 164.117161 
L 178.118009 161.970557 
L 178.371745 164.618044 
L 178.498612 163.83102 
L 178.62548 164.832786 
L 178.752348 164.546372 
L 179.006083 159.036928 
L 179.132951 160.539578 
L 179.259819 158.249903 
L 179.386687 190.94944 
L 179.513554 191.879671 
L 179.894158 200.465952 
L 180.021025 199.607392 
L 180.147893 199.678928 
L 180.274761 199.464185 
L 180.909099 216.708418 
L 181.035967 215.849858 
L 181.162835 216.422277 
L 181.289703 218.497209 
L 181.41657 217.209301 
L 181.670306 210.769625 
L 181.797174 211.628185 
L 182.050909 214.991162 
L 182.431512 207.478183 
L 182.55838 207.191906 
L 182.938983 199.249579 
L 183.192719 201.324648 
L 183.319586 201.467719 
L 183.446454 201.968602 
L 183.573322 199.535721 
L 183.827057 191.092511 
L 184.080793 190.377022 
L 184.207661 190.520092 
L 184.588264 192.094278 
L 184.715132 192.666696 
L 185.222603 190.591627 
L 185.476338 192.094278 
L 185.730074 189.375255 
L 185.856941 191.951207 
L 185.983809 191.164046 
L 186.110677 188.087346 
L 186.237544 190.520092 
L 186.49128 199.678928 
L 186.745015 200.036604 
L 186.998751 192.809767 
L 187.252486 197.102975 
L 187.379354 195.171113 
L 187.506222 157.033394 
L 187.886825 156.890324 
L 188.394296 155.673814 
L 188.521164 154.242836 
L 188.648032 154.67232 
L 188.901767 163.330136 
L 189.028635 160.610977 
L 189.155503 161.541345 
L 189.28237 165.977623 
L 189.409238 164.904185 
L 189.536106 161.827486 
L 189.789841 164.761115 
L 189.916709 164.403302 
L 190.170444 158.679115 
L 190.42418 165.977623 
L 190.551048 163.258465 
L 190.804783 166.621578 
L 191.185386 163.97409 
L 191.312254 163.902418 
L 191.56599 161.11186 
L 191.819725 168.195627 
L 192.073461 165.405068 
L 192.200328 165.905952 
L 192.327196 165.762881 
L 192.707799 167.551673 
L 193.088402 173.776743 
L 193.21527 171.415669 
L 193.342138 171.773209 
L 193.469006 172.774976 
L 193.722741 170.700044 
L 193.976477 166.335164 
L 194.103344 168.410369 
L 194.35708 168.124227 
L 194.610815 176.209488 
L 194.737683 174.492369 
L 194.864551 174.492369 
L 195.118286 179.930414 
L 195.372022 173.991485 
L 195.498889 174.492369 
L 195.625757 163.902418 
L 196.00636 165.762881 
L 196.386964 165.691209 
L 196.513831 164.832786 
L 196.640699 164.832786 
L 196.767567 162.972323 
L 197.021302 156.174698 
L 197.275038 160.110093 
L 197.401906 157.963489 
L 197.528773 157.963489 
L 197.655641 159.179998 
L 197.909377 158.464373 
L 198.163112 166.049023 
L 198.543715 162.399768 
L 198.797451 156.818652 
L 198.924318 157.319535 
L 199.178054 156.818652 
L 199.304922 156.961995 
L 199.558657 154.171437 
L 199.93926 158.822185 
L 200.192996 165.118927 
L 200.446731 156.031627 
L 200.700467 163.902418 
L 200.827335 163.687949 
L 200.954202 163.97409 
L 201.08107 166.263765 
L 201.207938 166.406835 
L 201.334805 165.834553 
L 201.461673 166.836047 
L 201.588541 164.904185 
L 201.842276 154.88679 
L 201.969144 155.172931 
L 202.22288 159.036928 
L 202.349747 158.607716 
L 202.603483 157.462878 
L 202.857218 149.878229 
L 203.110954 156.318041 
L 203.237822 155.530744 
L 203.364689 154.457578 
L 203.618425 156.675581 
L 203.745293 157.033394 
L 203.999028 159.752553 
L 204.125896 159.895624 
L 204.379631 156.675581 
L 204.633367 158.536044 
L 204.760234 157.105066 
L 204.887102 157.248136 
L 205.01397 156.961995 
L 205.140838 157.248136 
L 205.394573 164.761115 
L 205.648309 164.761115 
L 205.902044 167.05079 
L 206.15578 163.902418 
L 206.282647 165.333669 
L 206.409515 163.616277 
L 206.663251 154.528977 
L 206.916986 156.818652 
L 207.043854 156.747253 
L 207.170722 157.534277 
L 207.297589 157.391207 
L 207.931928 164.260231 
L 208.185663 164.474973 
L 208.312531 165.405068 
L 208.439399 165.47674 
L 208.566267 164.975857 
L 208.693134 165.619811 
L 208.94687 168.911252 
L 209.200605 166.049023 
L 209.327473 167.265531 
L 209.454341 167.336931 
L 209.581209 166.263765 
L 209.708076 166.406835 
L 209.834944 166.97939 
L 209.961812 165.261998 
L 210.08868 161.827486 
L 210.215547 162.113627 
L 210.342415 162.900651 
L 210.59615 157.820418 
L 210.849886 165.405068 
L 211.103621 161.469673 
L 211.484225 164.546372 
L 211.611092 164.474973 
L 211.73796 165.261998 
L 211.864828 153.312741 
L 211.991696 155.602415 
L 212.245431 152.740186 
L 212.499167 147.373812 
L 212.87977 149.448744 
L 213.133505 154.028094 
L 213.260373 152.883256 
L 213.387241 153.38414 
L 213.640976 154.528977 
L 214.021579 155.673814 
L 214.275315 152.167903 
L 214.402183 152.954928 
L 214.52905 154.743719 
L 214.655918 154.743719 
L 214.782786 154.528977 
L 215.036521 149.735158 
L 215.163389 151.953161 
L 215.290257 156.532511 
L 215.417125 154.314507 
L 215.543992 148.518649 
L 215.67086 149.019532 
L 215.924596 154.385907 
L 216.051463 153.670554 
L 216.305199 156.318041 
L 216.432067 157.677348 
L 216.558934 154.385907 
L 216.81267 146.372045 
L 216.939537 148.876462 
L 217.066405 149.091204 
L 217.447008 147.445483 
L 217.700744 156.174698 
L 218.081347 152.239302 
L 218.335083 146.872928 
L 218.46195 148.59032 
L 218.715686 146.372045 
L 218.969421 153.813624 
L 219.096289 151.237536 
L 219.350025 155.459345 
L 219.60376 146.300645 
L 219.730628 149.305674 
L 219.857495 149.162603 
L 220.111231 164.403302 
L 220.238099 163.759348 
L 220.491834 168.839581 
L 220.618702 166.478507 
L 220.74557 166.406835 
L 221.253041 173.347531 
L 221.887379 180.359626 
L 222.014247 178.427764 
L 222.141115 174.277626 
L 222.521718 175.494136 
L 222.648586 178.642506 
L 222.775453 178.785577 
L 222.902321 174.921581 
L 223.029189 174.563767 
L 223.156057 176.853442 
L 223.282924 175.279393 
L 223.53666 171.272326 
L 224.044131 174.706838 
L 224.424734 164.188832 
L 224.551602 164.331903 
L 224.805337 166.478507 
L 224.932205 165.190327 
L 225.185941 171.987952 
L 225.439676 165.118927 
L 225.693411 170.270832 
L 225.947147 164.689716 
L 226.074015 164.975857 
L 226.200882 165.691209 
L 226.32775 164.904185 
L 226.581486 166.478507 
L 226.708353 164.117161 
L 227.088957 173.490602 
L 227.215824 173.132789 
L 227.342692 173.919814 
L 227.46956 173.848415 
L 227.596428 173.633673 
L 227.723295 173.705344 
L 227.850163 173.562001 
L 227.977031 173.991485 
L 228.103899 157.534277 
L 228.484502 156.675581 
L 228.738237 158.249903 
L 228.865105 157.677348 
L 228.991973 155.960228 
L 229.11884 156.031627 
L 229.372576 158.965256 
L 229.499444 156.604182 
L 229.753179 165.548139 
L 229.880047 164.689716 
L 230.006915 162.256698 
L 230.26065 165.261998 
L 230.514386 160.897391 
L 230.641253 157.176465 
L 230.894989 163.687949 
L 231.021857 161.970557 
L 231.148724 162.042228 
L 231.275592 164.474973 
L 231.40246 164.403302 
L 231.529328 163.902418 
L 231.656195 164.689716 
L 231.783063 163.902418 
L 232.036798 156.532511 
L 232.163666 158.822185 
L 232.290534 165.619811 
L 232.417402 166.335164 
L 232.544269 163.544606 
L 232.798005 164.761115 
L 232.924873 164.045489 
L 233.178608 164.474973 
L 233.305476 164.689716 
L 233.559211 166.764648 
L 233.812947 164.689716 
L 233.939815 164.975857 
L 234.19355 164.832786 
L 234.447286 164.260231 
L 234.574153 163.759348 
L 234.954756 155.745486 
L 235.208492 157.605949 
L 235.33536 156.246369 
L 235.462227 156.174698 
L 235.715963 158.750787 
L 235.842831 159.179998 
L 235.969698 158.750787 
L 236.096566 157.462878 
L 236.223434 151.380878 
L 236.350302 155.673814 
L 236.604037 167.909486 
L 236.730905 164.904185 
L 236.98464 172.345764 
L 237.111508 166.263765 
L 237.238376 166.478507 
L 237.365244 164.403302 
L 237.618979 145.942833 
L 237.745847 148.375578 
L 237.872714 147.946367 
L 238.12645 151.595348 
L 238.380185 150.307441 
L 238.507053 149.806557 
L 238.633921 152.740186 
L 238.760789 159.39474 
L 239.014524 157.74902 
L 239.141392 165.118927 
L 239.26826 162.757581 
L 239.395127 157.462878 
L 239.648863 159.895624 
L 239.775731 159.39474 
L 239.902598 160.96879 
L 240.156334 145.513349 
L 240.283202 149.305674 
L 240.663805 171.987952 
L 240.790672 175.995019 
L 240.91754 175.780277 
L 241.044408 171.844881 
L 241.171276 173.06139 
L 241.425011 186.37009 
L 241.678747 197.317581 
L 241.932482 206.762558 
L 242.05935 201.467719 
L 242.313085 185.296788 
L 242.439953 179.858743 
L 242.566821 168.124227 
L 242.693689 168.911252 
L 242.820556 175.136322 
L 242.947424 174.492369 
L 243.20116 166.621578 
L 243.454895 145.084137 
L 243.835498 148.661719 
L 244.089234 158.178232 
L 244.216101 157.74902 
L 244.342969 140.576186 
L 244.469837 142.722791 
L 244.596705 141.363483 
L 244.85044 125.836371 
L 244.977308 118.538135 
L 245.231043 124.834604 
L 245.484779 120.469997 
L 245.611647 119.682972 
L 245.738514 120.469997 
L 245.99225 129.485625 
L 246.119118 131.059674 
L 246.372853 141.721024 
L 246.499721 140.504787 
L 246.626589 142.651391 
L 246.880324 129.199484 
L 247.007192 132.920137 
L 247.134059 126.122512 
L 247.387795 104.012789 
L 247.514663 115.103622 
L 247.64153 115.818976 
L 247.768398 110.953485 
L 247.895266 116.749343 
L 248.022134 128.340788 
L 248.149001 128.77 
L 248.275869 122.902742 
L 248.402737 125.621901 
L 248.656472 135.639024 
L 248.78334 137.571158 
L 248.910208 137.284745 
L 249.037076 137.499487 
L 249.163943 139.932232 
L 249.290811 139.002137 
L 249.417679 139.073809 
L 249.671414 148.375578 
L 249.92515 138.286511 
L 250.052017 141.005671 
L 250.178885 140.647858 
L 250.813224 115.389764 
L 250.940092 115.461163 
L 251.193827 117.89418 
L 251.57443 138.715996 
L 251.701298 129.485625 
L 251.828166 128.77 
L 251.955034 132.705395 
L 252.081901 131.560558 
L 252.335637 133.063208 
L 252.462505 60.293953 
L 252.589372 65.159717 
L 252.71624 61.224321 
L 252.843108 68.165017 
L 252.969975 68.379487 
L 253.223711 53.568 
L 253.604314 67.163251 
L 253.731182 65.803671 
L 254.238653 111.812181 
L 254.492388 135.138413 
L 254.872992 123.761438 
L 255.126727 130.344322 
L 255.253595 128.626929 
L 255.380463 129.127812 
L 255.50733 133.492692 
L 255.761066 124.548463 
L 255.887933 126.194184 
L 256.014801 124.548463 
L 256.141669 115.318092 
L 256.268537 114.531068 
L 256.64914 133.421021 
L 257.029743 148.160836 
L 257.156611 147.516882 
L 257.410346 128.841671 
L 257.537214 136.998603 
L 257.664082 137.714229 
L 257.917817 129.127812 
L 258.044685 129.628696 
L 258.298421 147.445483 
L 258.425288 147.445483 
L 258.552156 147.946367 
L 258.679024 146.515116 
L 258.932759 133.492692 
L 259.059627 136.640791 
L 259.186495 134.279717 
L 259.313362 140.290045 
L 259.44023 152.525716 
L 259.693966 148.661719 
L 259.820833 156.532511 
L 259.947701 156.461112 
L 260.201437 143.510087 
L 260.455172 135.209812 
L 260.58204 212.486881 
L 260.708908 211.842927 
L 260.835775 215.205904 
L 261.089511 236.31386 
L 261.343246 224.00679 
L 261.470114 223.005159 
L 261.850717 242.467395 
L 262.104453 268.655721 
L 262.23132 269.085069 
L 262.358188 269.085069 
L 262.485056 272.304975 
L 262.611924 268.870463 
L 262.865659 258.352184 
L 263.119395 252.127114 
L 263.37313 256.563393 
L 263.499998 253.271951 
L 263.753733 244.113116 
L 263.880601 239.31916 
L 264.134337 222.718882 
L 264.261204 222.361069 
L 264.51494 229.874184 
L 264.641808 226.296465 
L 265.022411 197.389253 
L 265.149278 194.884836 
L 265.276146 195.242648 
L 265.403014 198.319348 
L 265.656749 210.984231 
L 265.783617 209.33851 
L 265.910485 205.260044 
L 266.037353 206.547952 
L 266.291088 202.469486 
L 266.417956 204.687625 
L 266.671691 199.821998 
L 266.925427 205.260044 
L 267.052295 205.045302 
L 267.179162 207.191906 
L 267.30603 203.900464 
L 267.432898 206.691022 
L 267.813501 238.961348 
L 267.940369 241.322558 
L 268.067236 240.821674 
L 268.320972 238.746742 
L 268.44784 238.317393 
L 268.574707 241.894977 
L 268.701575 162.686182 
L 269.082178 157.248136 
L 269.209046 158.464373 
L 269.335914 157.319535 
L 269.462782 158.178232 
L 269.716517 153.598882 
L 269.970253 159.680882 
L 270.223988 156.246369 
L 270.477724 166.907719 
L 270.731459 160.181765 
L 270.985195 173.919814 
L 271.112062 171.200927 
L 271.365798 156.318041 
L 271.492665 162.757581 
L 271.619533 161.326602 
L 271.746401 157.391207 
L 272.000136 165.905952 
L 272.507607 158.106832 
L 272.761343 161.11186 
L 273.015078 167.480274 
L 273.268814 154.743719 
L 273.395682 156.461112 
L 273.522549 155.459345 
L 273.649417 157.605949 
L 274.03002 170.556973 
L 274.156888 184.080416 
L 274.283756 185.511394 
L 274.410623 177.78381 
L 274.664359 185.082183 
L 274.791227 180.645904 
L 274.918094 180.574232 
L 275.044962 176.638973 
L 275.298698 162.47144 
L 275.552433 154.88679 
L 275.806169 158.035161 
L 275.933036 154.815391 
L 276.440507 164.260231 
L 276.567375 166.406835 
L 276.694243 164.331903 
L 276.821111 159.036928 
L 277.201714 181.218322 
L 277.328581 180.932045 
L 277.455449 183.579532 
L 277.709185 190.80637 
L 277.836052 193.525392 
L 277.96292 191.736465 
L 278.216656 173.27586 
L 278.343523 175.207722 
L 278.470391 173.848415 
L 278.724127 162.47144 
L 278.850994 165.047256 
L 279.10473 173.204461 
L 279.231598 172.059623 
L 279.739069 183.507997 
L 279.865936 183.794139 
L 279.992804 183.436462 
L 280.119672 183.436462 
L 280.500275 175.780277 
L 280.880878 163.115394 
L 281.007746 163.187065 
L 281.134614 162.900651 
L 281.261481 168.338697 
L 281.515217 181.146787 
L 281.642085 176.782043 
L 281.768952 180.788974 
L 282.022688 194.598695 
L 282.276423 197.460788 
L 282.530159 199.965069 
L 282.657027 193.382186 
L 282.910762 176.424231 
L 283.164497 164.403302 
L 283.291365 165.905952 
L 283.545101 180.001814 
L 283.671968 180.574232 
L 284.052572 164.331903 
L 284.179439 164.331903 
L 284.433175 144.440183 
L 284.68691 157.105066 
L 284.813778 156.461112 
L 284.940646 156.961995 
L 285.067514 154.242836 
L 285.321249 138.859066 
L 285.448117 138.429582 
L 285.82872 121.185622 
L 286.336191 132.490925 
L 286.589926 146.157302 
L 286.843662 157.176465 
L 286.97053 156.318041 
L 287.351133 138.215113 
L 287.478001 137.785628 
L 287.604868 146.300645 
L 287.731736 141.721024 
L 287.985472 117.607767 
L 288.112339 122.258788 
L 288.366075 119.46823 
L 288.746678 140.576186 
L 288.873546 138.072042 
L 289.000414 140.361717 
L 289.254149 148.375578 
L 289.381017 147.087671 
L 289.634752 157.033394 
L 289.76162 156.031627 
L 289.888488 159.179998 
L 290.015355 165.977623 
L 290.142223 166.621578 
L 290.269091 163.043994 
L 290.395959 163.759348 
L 290.522826 167.265531 
L 290.649694 164.761115 
L 290.90343 156.890324 
L 291.030297 156.961995 
L 291.284033 142.436649 
L 291.410901 141.864367 
L 291.537768 140.433116 
L 291.664636 136.068508 
L 291.791504 139.431349 
L 292.045239 156.747253 
L 292.298975 145.942833 
L 292.806446 157.105066 
L 292.933313 153.16967 
L 293.060181 96.57121 
L 293.187049 104.942884 
L 293.313917 102.152326 
L 293.440784 103.511905 
L 293.567652 107.447301 
L 293.821388 92.922228 
L 293.948255 97.787719 
L 294.075123 108.162926 
L 294.201991 106.302464 
L 294.328859 100.435206 
L 295.090065 141.721024 
L 295.216933 139.574692 
L 295.3438 140.933999 
L 295.597536 138.358183 
L 295.724404 140.003904 
L 296.231875 129.986508 
L 296.358742 130.057908 
L 296.612478 140.003904 
L 296.739346 135.281484 
L 296.866213 137.857299 
L 297.119949 149.448744 
L 297.62742 158.607716 
L 297.754288 155.459345 
L 298.008023 135.281484 
L 298.134891 139.574692 
L 298.261758 139.50302 
L 298.515494 126.051113 
L 298.896097 149.091204 
L 299.022965 148.375578 
L 299.2767 151.953161 
L 299.530436 138.072042 
L 299.784171 139.50302 
L 299.911039 136.998603 
L 300.037907 137.141674 
L 300.41851 148.733391 
L 300.799113 138.930465 
L 300.925981 139.431349 
L 301.052849 136.35465 
L 301.179717 193.883069 
L 301.687187 213.20237 
L 302.067791 196.673627 
L 302.448394 208.551486 
L 302.828997 233.881115 
L 302.955865 232.879348 
L 303.2096 243.89851 
L 303.590204 229.731113 
L 303.717071 232.378464 
L 303.843939 227.799115 
L 304.097675 212.129068 
L 304.224542 214.991162 
L 304.35141 220.643813 
L 304.478278 220.429207 
L 304.732013 215.42051 
L 304.858881 214.347208 
L 304.985749 212.129068 
L 305.239484 216.493811 
L 305.873823 186.22702 
L 306.127558 191.092511 
L 306.254426 190.80637 
L 306.635029 192.237348 
L 306.761897 191.020975 
L 306.888765 193.596928 
L 307.1425 204.544418 
L 307.396236 195.886603 
L 307.649971 199.893533 
L 307.903707 186.870974 
L 308.030574 192.952974 
L 308.28431 220.071395 
L 308.538045 221.430974 
L 308.664913 224.00679 
L 308.791781 223.076695 
L 309.045516 219.570511 
L 309.172384 223.434371 
L 309.299252 142.651391 
L 309.679855 137.070275 
L 310.060458 139.50302 
L 310.187326 140.361717 
L 310.314194 138.787395 
L 310.441061 140.504787 
L 310.567929 144.440183 
L 310.821665 137.785628 
L 311.0754 151.237536 
L 311.329136 144.297112 
L 311.582871 151.023066 
L 311.963474 135.281484 
L 312.21721 144.154042 
L 312.470945 136.139907 
L 312.597813 134.279717 
L 312.978416 139.145208 
L 313.105284 138.787395 
L 313.232152 137.857299 
L 313.35902 139.860833 
L 313.612755 152.096232 
L 313.86649 145.227208 
L 314.120226 149.234274 
L 314.247094 150.092698 
L 314.373961 148.303907 
L 314.500829 143.867628 
L 314.627697 146.872928 
L 314.881432 158.321302 
L 315.0083 154.88679 
L 315.135168 156.818652 
L 315.388903 146.014232 
L 315.515771 149.234274 
L 315.642639 145.942833 
L 315.769507 139.574692 
L 316.023242 149.305674 
L 316.15011 145.942833 
L 316.276978 147.516882 
L 316.403845 150.951394 
L 316.657581 146.586787 
L 316.911316 147.659953 
L 317.038184 147.159069 
L 317.165052 148.160836 
L 317.291919 150.307441 
L 317.545655 178.713906 
L 317.672523 187.801069 
L 317.79939 186.870974 
L 317.926258 184.151951 
L 318.179994 196.315951 
L 318.306861 192.309019 
L 318.433729 193.954604 
L 318.560597 191.66493 
L 318.814332 171.272326 
L 318.9412 170.771443 
L 319.068068 169.340464 
L 319.321803 172.918047 
L 319.575539 168.338697 
L 319.702406 166.192093 
L 319.829274 167.05079 
L 320.08301 179.787343 
L 320.209877 176.138089 
L 320.463613 182.577765 
L 320.717348 174.062884 
L 320.971084 174.921581 
L 321.097952 178.427764 
L 321.224819 174.563767 
L 321.351687 163.687949 
L 321.478555 166.192093 
L 321.73229 186.513161 
L 322.112894 198.820231 
L 322.239761 191.092511 
L 322.366629 190.233951 
L 323.127835 225.867253 
L 323.254703 220.071395 
L 323.381571 208.050602 
L 323.508439 208.050602 
L 323.635306 201.181441 
L 323.762174 185.439859 
L 323.889042 186.441626 
L 324.01591 194.312417 
L 324.142777 192.952974 
L 324.396513 184.366557 
L 324.650248 159.895624 
L 324.903984 163.97409 
L 325.030852 161.827486 
L 325.157719 163.473206 
L 325.284587 168.69651 
L 325.411455 169.269065 
L 325.538322 138.787395 
L 325.66519 141.935766 
L 325.918926 128.55553 
L 326.172661 114.459669 
L 326.426397 122.401859 
L 326.807 119.396558 
L 326.933868 121.543162 
L 327.314471 136.49772 
L 327.441339 142.651391 
L 327.568206 142.57972 
L 327.695074 141.792695 
L 327.821942 144.225441 
L 328.075677 134.064975 
L 328.202545 138.715996 
L 328.329413 129.914837 
L 328.456281 109.593905 
L 328.583148 107.16116 
L 328.836884 120.469997 
L 328.963751 116.820743 
L 329.090619 118.323392 
L 329.344355 125.764972 
L 329.471222 121.328693 
L 329.59809 122.401859 
L 329.851826 135.782367 
L 329.978693 134.923671 
L 330.105561 130.27265 
L 330.232429 130.773533 
L 330.866768 158.464373 
L 330.993635 157.248136 
L 331.374239 145.942833 
L 331.627974 139.288278 
L 331.754842 134.7806 
L 332.008577 117.536368 
L 332.135445 122.33046 
L 332.262313 121.972647 
L 332.38918 121.11395 
L 332.769784 142.651391 
L 332.896651 137.928971 
L 333.023519 138.501254 
L 333.150387 140.647858 
L 333.277255 139.789162 
L 333.404122 140.290045 
L 333.53099 139.145208 
L 333.657858 58.07595 
L 333.784726 66.876837 
L 333.911593 65.6606 
L 334.165329 70.526091 
L 334.419064 58.147622 
L 334.6728 71.098646 
L 334.799667 70.812232 
L 334.926535 67.306321 
L 335.434006 116.606 
L 335.687742 139.431349 
L 335.941477 129.342555 
L 336.068345 128.55553 
L 336.32208 137.284745 
L 336.575816 129.342555 
L 336.829551 140.576186 
L 336.956419 135.639024 
L 337.210155 141.506554 
L 337.46389 128.197717 
L 337.717625 140.433116 
L 338.225096 152.382373 
L 338.351964 150.379112 
L 338.6057 135.567625 
L 338.859435 140.647858 
L 339.240038 130.201251 
L 339.493774 149.091204 
L 339.620642 147.373812 
L 339.747509 148.089437 
L 339.874377 146.515116 
L 340.128113 135.138413 
L 340.25498 137.642558 
L 340.381848 135.925438 
L 340.508716 142.078836 
L 340.762451 156.747253 
L 340.889319 153.16967 
L 341.016187 153.813624 
L 341.143054 150.236041 
L 341.523658 134.494187 
L 341.650525 130.129579 
L 341.777393 234.525069 
L 341.904261 235.812977 
L 342.031129 239.533766 
L 342.284864 258.423719 
L 342.5386 245.114883 
L 342.665467 248.120183 
L 343.046071 264.076371 
L 343.299806 295.488 
L 343.426674 294.844046 
L 343.553542 292.912184 
L 343.680409 294.772511 
L 343.807277 293.985486 
L 344.18788 281.320604 
L 344.441616 283.538743 
L 344.568483 284.039626 
L 344.695351 281.034326 
L 345.075954 266.079905 
L 345.32969 246.331255 
L 345.456558 247.404558 
L 345.710293 253.772834 
L 345.837161 249.837439 
L 346.217764 219.355905 
L 346.344632 217.424043 
L 346.4715 218.139533 
L 346.598367 220.071395 
L 346.852103 235.31223 
L 346.97897 232.593207 
L 347.105838 226.010324 
L 347.232706 225.867253 
L 347.740177 217.638649 
L 347.867045 218.282603 
L 347.993912 220.715348 
L 348.12078 220.071395 
L 348.374516 223.362836 
L 348.501383 219.42744 
L 348.628251 224.221532 
L 349.008854 257.207347 
L 349.135722 259.497022 
L 349.389458 257.922836 
L 349.643193 259.711627 
L 349.770061 262.28758 
L 349.896928 146.515116 
L 350.277532 142.651391 
L 350.404399 148.59032 
L 350.658135 148.232508 
L 350.785003 147.30214 
L 350.91187 145.012465 
L 351.038738 146.729857 
L 351.165606 152.167903 
L 351.419341 147.445483 
L 351.673077 158.321302 
L 351.799945 149.091204 
L 351.926812 148.518649 
L 352.180548 164.403302 
L 352.561151 148.80479 
L 352.688019 149.878229 
L 352.941754 147.731624 
L 353.068622 151.595348 
L 353.19549 151.81009 
L 353.322357 148.160836 
L 353.449225 148.160836 
L 353.576093 149.878229 
L 353.702961 148.232508 
L 353.829828 144.726324 
L 353.956696 146.729857 
L 354.210432 161.755814 
L 354.464167 155.673814 
L 354.717903 158.178232 
L 354.971638 156.747253 
L 355.098506 157.176465 
L 355.479109 171.057856 
L 355.605977 163.97409 
L 355.732845 167.408602 
L 355.859712 174.349298 
L 356.367183 159.680882 
L 356.620919 146.801257 
L 356.747786 146.658186 
L 356.874654 148.876462 
L 357.001522 148.518649 
L 357.12839 146.515116 
L 357.382125 149.949627 
L 357.508993 149.091204 
L 357.762728 158.321302 
L 357.889596 154.815391 
L 358.016464 145.012465 
L 358.143332 147.874695 
L 358.397067 155.530744 
L 358.523935 157.105066 
L 358.650803 165.548139 
L 358.77767 165.333669 
L 358.904538 157.462878 
L 359.158273 161.541345 
L 359.412009 146.014232 
L 359.665744 156.031627 
L 359.91948 147.946367 
L 360.046348 149.377345 
L 360.173215 153.312741 
L 360.426951 148.80479 
L 360.680686 158.035161 
L 360.807554 157.677348 
L 360.934422 154.600648 
L 361.441893 129.628696 
L 361.568761 127.696834 
L 361.695628 123.904509 
L 361.949364 102.796552 
L 362.076231 104.728415 
L 362.203099 111.096555 
L 362.329967 110.810414 
L 362.456835 107.590371 
L 362.71057 114.173255 
L 362.837438 105.730181 
L 362.964306 106.588605 
L 363.218041 114.602739 
L 363.598644 121.757905 
L 363.725512 124.047579 
L 363.85238 123.475297 
L 364.106115 112.098322 
L 364.359851 101.794786 
L 364.740454 122.831343 
L 364.867322 123.832837 
L 364.994189 128.126045 
L 365.247925 120.112184 
L 365.50166 132.061441 
L 365.628528 126.265855 
L 365.755396 130.129579 
L 366.262867 185.654601 
L 366.64347 171.773209 
L 366.770338 169.984418 
L 367.024073 174.77851 
L 367.150941 173.06139 
L 367.404677 165.691209 
L 367.531544 167.694743 
L 367.658412 172.059623 
L 367.78528 172.417163 
L 367.912148 174.277626 
L 368.165883 182.36316 
L 368.419618 180.574232 
L 368.673354 167.551673 
L 368.800222 170.843115 
L 368.927089 163.902418 
L 369.180825 144.368511 
L 369.307693 155.02986 
L 369.43456 155.02986 
L 369.561428 148.303907 
L 369.688296 151.523949 
L 369.815164 161.469673 
L 369.942031 162.185298 
L 370.068899 158.321302 
L 370.449502 167.766415 
L 370.57637 166.335164 
L 370.703238 166.335164 
L 370.830106 169.913019 
L 370.956973 169.984418 
L 371.083841 168.052556 
L 371.337576 177.139856 
L 371.464444 176.782043 
L 371.71818 174.134556 
L 372.098783 169.412136 
L 372.606254 154.67232 
L 372.733122 157.820418 
L 372.859989 157.176465 
L 372.986857 157.391207 
L 373.113725 164.331903 
L 373.240593 164.403302 
L 373.494328 147.445483 
L 373.748064 158.106832 
L 373.874931 157.033394 
L 374.128667 158.249903 
L 374.255534 182.577765 
L 374.382402 183.937345 
L 374.50927 178.356092 
L 374.763005 183.007113 
L 375.016741 172.488835 
L 375.270476 182.577765 
L 375.524212 178.284694 
L 376.158551 218.067997 
L 376.285418 224.221532 
L 376.412286 222.146463 
L 376.666022 213.560183 
L 376.792889 218.067997 
L 376.919757 217.280837 
L 377.173492 207.478183 
L 377.30036 214.991162 
L 377.427228 213.91786 
L 377.554096 206.476416 
L 377.807831 210.125535 
L 377.934699 204.472883 
L 378.188434 213.703253 
L 378.315302 210.912695 
L 378.44217 212.272138 
L 378.569038 215.706651 
L 378.695905 215.492045 
L 378.822773 217.78172 
L 378.949641 216.135999 
L 379.076509 206.476416 
L 379.203376 205.403114 
L 379.457112 217.352371 
L 379.58398 217.853255 
L 379.837715 214.06093 
L 380.09145 226.940555 
L 380.218318 227.083626 
L 380.345186 227.87065 
L 380.472054 225.867253 
L 380.725789 219.856788 
L 380.852657 219.355905 
L 380.979525 216.851488 
L 381.23326 225.294835 
L 381.360128 225.223163 
L 381.486996 225.366369 
L 381.613863 228.800882 
L 381.740731 225.795717 
L 381.867599 219.928324 
L 381.994467 221.073162 
L 382.121334 219.069628 
L 382.248202 209.767858 
L 382.37507 222.861953 
L 382.501938 222.504276 
L 382.882541 243.326091 
L 383.136276 236.886279 
L 383.263144 237.315627 
L 383.770615 266.938465 
L 384.02435 282.32237 
L 384.404954 292.769113 
L 384.531821 292.339765 
L 384.785557 283.037859 
L 384.912425 283.610278 
L 385.039292 289.477672 
L 385.16616 289.048324 
L 385.419896 283.109395 
L 385.546763 282.32237 
L 386.054234 266.938465 
L 386.30797 274.451579 
L 386.434837 270.87386 
L 386.815441 243.89851 
L 387.069176 240.17772 
L 387.322912 244.75707 
L 387.449779 249.121813 
L 387.576647 248.406324 
L 388.084118 238.889812 
L 388.210986 243.326091 
L 388.337854 242.467395 
L 388.464721 240.320927 
L 388.718457 243.183021 
L 388.972192 238.675207 
L 389.09906 233.523302 
L 389.225928 236.31386 
L 389.606531 265.149673 
L 389.733399 267.296277 
L 389.860266 265.507486 
L 390.114002 259.854834 
L 390.24087 259.067674 
L 390.367737 260.140976 
L 390.494605 148.983833 
L 391.002076 135.782367 
L 391.255812 130.27265 
L 391.382679 127.482092 
L 391.509547 127.982975 
L 391.763283 133.27795 
L 391.89015 132.061441 
L 392.143886 122.401859 
L 392.270753 122.044046 
L 392.524489 109.808648 
L 392.651357 115.103622 
L 392.778224 114.602739 
L 393.03196 99.218697 
L 393.285695 107.30423 
L 393.666299 95.641114 
L 393.793166 95.784185 
L 394.427505 75.463253 
L 394.554373 76.250278 
L 394.808108 97.85939 
L 394.934976 93.780651 
L 395.061844 85.623719 
L 395.188711 85.194507 
L 395.442447 82.761762 
L 395.569315 85.981532 
L 395.696182 85.981532 
L 395.82305 86.697158 
L 396.076786 98.216931 
L 396.203653 94.567949 
L 396.457389 98.932556 
L 396.711124 96.929022 
L 396.96486 85.337578 
L 397.091728 84.908366 
L 397.218595 82.69009 
L 397.345463 84.192741 
L 397.599199 97.85939 
L 397.726066 92.922228 
L 397.852934 96.141998 
L 397.979802 104.799813 
L 398.10667 101.937856 
L 398.233537 94.711019 
L 398.487273 96.428139 
L 398.487273 96.428139 
" clip-path="url(#paa7b50bdaf)" style="fill: none; stroke: #1f77b4; stroke-width: 1.5; stroke-linecap: square"/>
   </g>
   <g id="patch_3">
    <path d="M 57.6 307.584 
L 57.6 41.472 
" style="fill: none; stroke: #000000; stroke-width: 0.8; stroke-linejoin: miter; stroke-linecap: square"/>
   </g>
   <g id="patch_4">
    <path d="M 414.72 307.584 
L 414.72 41.472 
" style="fill: none; stroke: #000000; stroke-width: 0.8; stroke-linejoin: miter; stroke-linecap: square"/>
   </g>
   <g id="patch_5">
    <path d="M 57.6 307.584 
L 414.72 307.584 
" style="fill: none; stroke: #000000; stroke-width: 0.8; stroke-linejoin: miter; stroke-linecap: square"/>
   </g>
   <g id="patch_6">
    <path d="M 57.6 41.472 
L 414.72 41.472 
" style="fill: none; stroke: #000000; stroke-width: 0.8; stroke-linejoin: miter; stroke-linecap: square"/>
   </g>
   <g id="legend_1">
    <g id="patch_7">
     <path d="M 354.074688 64.150125 
L 407.72 64.150125 
Q 409.72 64.150125 409.72 62.150125 
L 409.72 48.472 
Q 409.72 46.472 407.72 46.472 
L 354.074688 46.472 
Q 352.074688 46.472 352.074688 48.472 
L 352.074688 62.150125 
Q 352.074688 64.150125 354.074688 64.150125 
z
" style="fill: #ffffff; opacity: 0.8; stroke: #cccccc; stroke-linejoin: miter"/>
    </g>
    <g id="line2d_13">
     <path d="M 356.074688 54.570438 
L 366.074688 54.570438 
L 376.074688 54.570438 
" style="fill: none; stroke: #1f77b4; stroke-width: 1.5; stroke-linecap: square"/>
    </g>
    <g id="text_12">
     <!-- set1 -->
     <g transform="translate(384.074688 58.070438)scale(0.1 -0.1)">
      <defs>
       <path id="DejaVuSans-73" d="M 2834 3397 
L 2834 2853 
Q 2591 2978 2328 3040 
Q 2066 3103 1784 3103 
Q 1356 3103 1142 2972 
Q 928 2841 928 2578 
Q 928 2378 1081 2264 
Q 1234 2150 1697 2047 
L 1894 2003 
Q 2506 1872 2764 1633 
Q 3022 1394 3022 966 
Q 3022 478 2636 193 
Q 2250 -91 1575 -91 
Q 1294 -91 989 -36 
Q 684 19 347 128 
L 347 722 
Q 666 556 975 473 
Q 1284 391 1588 391 
Q 1994 391 2212 530 
Q 2431 669 2431 922 
Q 2431 1156 2273 1281 
Q 2116 1406 1581 1522 
L 1381 1569 
Q 847 1681 609 1914 
Q 372 2147 372 2553 
Q 372 3047 722 3315 
Q 1072 3584 1716 3584 
Q 2034 3584 2315 3537 
Q 2597 3491 2834 3397 
z
" transform="scale(0.015625)"/>
       <path id="DejaVuSans-65" d="M 3597 1894 
L 3597 1613 
L 953 1613 
Q 991 1019 1311 708 
Q 1631 397 2203 397 
Q 2534 397 2845 478 
Q 3156 559 3463 722 
L 3463 178 
Q 3153 47 2828 -22 
Q 2503 -91 2169 -91 
Q 1331 -91 842 396 
Q 353 884 353 1716 
Q 353 2575 817 3079 
Q 1281 3584 2069 3584 
Q 2775 3584 3186 3129 
Q 3597 2675 3597 1894 
z
M 3022 2063 
Q 3016 2534 2758 2815 
Q 2500 3097 2075 3097 
Q 1594 3097 1305 2825 
Q 1016 2553 972 2059 
L 3022 2063 
z
" transform="scale(0.015625)"/>
       <path id="DejaVuSans-74" d="M 1172 4494 
L 1172 3500 
L 2356 3500 
L 2356 3053 
L 1172 3053 
L 1172 1153 
Q 1172 725 1289 603 
Q 1406 481 1766 481 
L 2356 481 
L 2356 0 
L 1766 0 
Q 1100 0 847 248 
Q 594 497 594 1153 
L 594 3053 
L 172 3053 
L 172 3500 
L 594 3500 
L 594 4494 
L 1172 4494 
z
" transform="scale(0.015625)"/>
      </defs>
      <use xlink:href="#DejaVuSans-73"/>
      <use xlink:href="#DejaVuSans-65" x="52.099609"/>
      <use xlink:href="#DejaVuSans-74" x="113.623047"/>
      <use xlink:href="#DejaVuSans-31" x="152.832031"/>
     </g>
    </g>
   </g>
  </g>
 </g>
 <defs>
  <clipPath id="paa7b50bdaf">
   <rect x="57.6" y="41.472" width="357.12" height="266.112"/>
  </clipPath>
 </defs>
</svg>
