<?xml version="1.0" encoding="utf-8" standalone="no"?>
<!DOCTYPE svg PUBLIC "-//W3C//DTD SVG 1.1//EN"
  "http://www.w3.org/Graphics/SVG/1.1/DTD/svg11.dtd">
<svg xmlns:xlink="http://www.w3.org/1999/xlink" width="460.8pt" height="345.6pt" viewBox="0 0 460.8 345.6" xmlns="http://www.w3.org/2000/svg" version="1.1">
 <metadata>
  <rdf:RDF xmlns:dc="http://purl.org/dc/elements/1.1/" xmlns:cc="http://creativecommons.org/ns#" xmlns:rdf="http://www.w3.org/1999/02/22-rdf-syntax-ns#">
   <cc:Work>
    <dc:type rdf:resource="http://purl.org/dc/dcmitype/StillImage"/>
    <dc:date>2022-08-11T15:17:15.225358</dc:date>
    <dc:format>image/svg+xml</dc:format>
    <dc:creator>
     <cc:Agent>
      <dc:title>Matplotlib v3.5.2, https://matplotlib.org/</dc:title>
     </cc:Agent>
    </dc:creator>
   </cc:Work>
  </rdf:RDF>
 </metadata>
 <defs>
  <style type="text/css">*{stroke-linejoin: round; stroke-linecap: butt}</style>
 </defs>
 <g id="figure_1">
  <g id="patch_1">
   <path d="M 0 345.6 
L 460.8 345.6 
L 460.8 0 
L 0 0 
z
" style="fill: #ffffff"/>
  </g>
  <g id="axes_1">
   <g id="patch_2">
    <path d="M 57.6 307.584 
L 414.72 307.584 
L 414.72 41.472 
L 57.6 41.472 
z
" style="fill: #ffffff"/>
   </g>
   <g id="matplotlib.axis_1">
    <g id="xtick_1">
     <g id="line2d_1">
      <defs>
       <path id="m393d56dc3f" d="M 0 0 
L 0 3.5 
" style="stroke: #000000; stroke-width: 0.8"/>
      </defs>
      <g>
       <use xlink:href="#m393d56dc3f" x="73.832727" y="307.584" style="stroke: #000000; stroke-width: 0.8"/>
      </g>
     </g>
     <g id="text_1">
      <!-- 0 -->
      <g transform="translate(70.651477 322.182437)scale(0.1 -0.1)">
       <defs>
        <path id="DejaVuSans-30" d="M 2034 4250 
Q 1547 4250 1301 3770 
Q 1056 3291 1056 2328 
Q 1056 1369 1301 889 
Q 1547 409 2034 409 
Q 2525 409 2770 889 
Q 3016 1369 3016 2328 
Q 3016 3291 2770 3770 
Q 2525 4250 2034 4250 
z
M 2034 4750 
Q 2819 4750 3233 4129 
Q 3647 3509 3647 2328 
Q 3647 1150 3233 529 
Q 2819 -91 2034 -91 
Q 1250 -91 836 529 
Q 422 1150 422 2328 
Q 422 3509 836 4129 
Q 1250 4750 2034 4750 
z
" transform="scale(0.015625)"/>
       </defs>
       <use xlink:href="#DejaVuSans-30"/>
      </g>
     </g>
    </g>
    <g id="xtick_2">
     <g id="line2d_2">
      <g>
       <use xlink:href="#m393d56dc3f" x="137.266597" y="307.584" style="stroke: #000000; stroke-width: 0.8"/>
      </g>
     </g>
     <g id="text_2">
      <!-- 500 -->
      <g transform="translate(127.722847 322.182437)scale(0.1 -0.1)">
       <defs>
        <path id="DejaVuSans-35" d="M 691 4666 
L 3169 4666 
L 3169 4134 
L 1269 4134 
L 1269 2991 
Q 1406 3038 1543 3061 
Q 1681 3084 1819 3084 
Q 2600 3084 3056 2656 
Q 3513 2228 3513 1497 
Q 3513 744 3044 326 
Q 2575 -91 1722 -91 
Q 1428 -91 1123 -41 
Q 819 9 494 109 
L 494 744 
Q 775 591 1075 516 
Q 1375 441 1709 441 
Q 2250 441 2565 725 
Q 2881 1009 2881 1497 
Q 2881 1984 2565 2268 
Q 2250 2553 1709 2553 
Q 1456 2553 1204 2497 
Q 953 2441 691 2322 
L 691 4666 
z
" transform="scale(0.015625)"/>
       </defs>
       <use xlink:href="#DejaVuSans-35"/>
       <use xlink:href="#DejaVuSans-30" x="63.623047"/>
       <use xlink:href="#DejaVuSans-30" x="127.246094"/>
      </g>
     </g>
    </g>
    <g id="xtick_3">
     <g id="line2d_3">
      <g>
       <use xlink:href="#m393d56dc3f" x="200.700467" y="307.584" style="stroke: #000000; stroke-width: 0.8"/>
      </g>
     </g>
     <g id="text_3">
      <!-- 1000 -->
      <g transform="translate(187.975467 322.182437)scale(0.1 -0.1)">
       <defs>
        <path id="DejaVuSans-31" d="M 794 531 
L 1825 531 
L 1825 4091 
L 703 3866 
L 703 4441 
L 1819 4666 
L 2450 4666 
L 2450 531 
L 3481 531 
L 3481 0 
L 794 0 
L 794 531 
z
" transform="scale(0.015625)"/>
       </defs>
       <use xlink:href="#DejaVuSans-31"/>
       <use xlink:href="#DejaVuSans-30" x="63.623047"/>
       <use xlink:href="#DejaVuSans-30" x="127.246094"/>
       <use xlink:href="#DejaVuSans-30" x="190.869141"/>
      </g>
     </g>
    </g>
    <g id="xtick_4">
     <g id="line2d_4">
      <g>
       <use xlink:href="#m393d56dc3f" x="264.134337" y="307.584" style="stroke: #000000; stroke-width: 0.8"/>
      </g>
     </g>
     <g id="text_4">
      <!-- 1500 -->
      <g transform="translate(251.409337 322.182437)scale(0.1 -0.1)">
       <use xlink:href="#DejaVuSans-31"/>
       <use xlink:href="#DejaVuSans-35" x="63.623047"/>
       <use xlink:href="#DejaVuSans-30" x="127.246094"/>
       <use xlink:href="#DejaVuSans-30" x="190.869141"/>
      </g>
     </g>
    </g>
    <g id="xtick_5">
     <g id="line2d_5">
      <g>
       <use xlink:href="#m393d56dc3f" x="327.568206" y="307.584" style="stroke: #000000; stroke-width: 0.8"/>
      </g>
     </g>
     <g id="text_5">
      <!-- 2000 -->
      <g transform="translate(314.843206 322.182437)scale(0.1 -0.1)">
       <defs>
        <path id="DejaVuSans-32" d="M 1228 531 
L 3431 531 
L 3431 0 
L 469 0 
L 469 531 
Q 828 903 1448 1529 
Q 2069 2156 2228 2338 
Q 2531 2678 2651 2914 
Q 2772 3150 2772 3378 
Q 2772 3750 2511 3984 
Q 2250 4219 1831 4219 
Q 1534 4219 1204 4116 
Q 875 4013 500 3803 
L 500 4441 
Q 881 4594 1212 4672 
Q 1544 4750 1819 4750 
Q 2544 4750 2975 4387 
Q 3406 4025 3406 3419 
Q 3406 3131 3298 2873 
Q 3191 2616 2906 2266 
Q 2828 2175 2409 1742 
Q 1991 1309 1228 531 
z
" transform="scale(0.015625)"/>
       </defs>
       <use xlink:href="#DejaVuSans-32"/>
       <use xlink:href="#DejaVuSans-30" x="63.623047"/>
       <use xlink:href="#DejaVuSans-30" x="127.246094"/>
       <use xlink:href="#DejaVuSans-30" x="190.869141"/>
      </g>
     </g>
    </g>
    <g id="xtick_6">
     <g id="line2d_6">
      <g>
       <use xlink:href="#m393d56dc3f" x="391.002076" y="307.584" style="stroke: #000000; stroke-width: 0.8"/>
      </g>
     </g>
     <g id="text_6">
      <!-- 2500 -->
      <g transform="translate(378.277076 322.182437)scale(0.1 -0.1)">
       <use xlink:href="#DejaVuSans-32"/>
       <use xlink:href="#DejaVuSans-35" x="63.623047"/>
       <use xlink:href="#DejaVuSans-30" x="127.246094"/>
       <use xlink:href="#DejaVuSans-30" x="190.869141"/>
      </g>
     </g>
    </g>
   </g>
   <g id="matplotlib.axis_2">
    <g id="ytick_1">
     <g id="line2d_7">
      <defs>
       <path id="m52411e364e" d="M 0 0 
L -3.5 0 
" style="stroke: #000000; stroke-width: 0.8"/>
      </defs>
      <g>
       <use xlink:href="#m52411e364e" x="57.6" y="296.725202" style="stroke: #000000; stroke-width: 0.8"/>
      </g>
     </g>
     <g id="text_7">
      <!-- 3400 -->
      <g transform="translate(25.15 300.524421)scale(0.1 -0.1)">
       <defs>
        <path id="DejaVuSans-33" d="M 2597 2516 
Q 3050 2419 3304 2112 
Q 3559 1806 3559 1356 
Q 3559 666 3084 287 
Q 2609 -91 1734 -91 
Q 1441 -91 1130 -33 
Q 819 25 488 141 
L 488 750 
Q 750 597 1062 519 
Q 1375 441 1716 441 
Q 2309 441 2620 675 
Q 2931 909 2931 1356 
Q 2931 1769 2642 2001 
Q 2353 2234 1838 2234 
L 1294 2234 
L 1294 2753 
L 1863 2753 
Q 2328 2753 2575 2939 
Q 2822 3125 2822 3475 
Q 2822 3834 2567 4026 
Q 2313 4219 1838 4219 
Q 1578 4219 1281 4162 
Q 984 4106 628 3988 
L 628 4550 
Q 988 4650 1302 4700 
Q 1616 4750 1894 4750 
Q 2613 4750 3031 4423 
Q 3450 4097 3450 3541 
Q 3450 3153 3228 2886 
Q 3006 2619 2597 2516 
z
" transform="scale(0.015625)"/>
        <path id="DejaVuSans-34" d="M 2419 4116 
L 825 1625 
L 2419 1625 
L 2419 4116 
z
M 2253 4666 
L 3047 4666 
L 3047 1625 
L 3713 1625 
L 3713 1100 
L 3047 1100 
L 3047 0 
L 2419 0 
L 2419 1100 
L 313 1100 
L 313 1709 
L 2253 4666 
z
" transform="scale(0.015625)"/>
       </defs>
       <use xlink:href="#DejaVuSans-33"/>
       <use xlink:href="#DejaVuSans-34" x="63.623047"/>
       <use xlink:href="#DejaVuSans-30" x="127.246094"/>
       <use xlink:href="#DejaVuSans-30" x="190.869141"/>
      </g>
     </g>
    </g>
    <g id="ytick_2">
     <g id="line2d_8">
      <g>
       <use xlink:href="#m52411e364e" x="57.6" y="244.562762" style="stroke: #000000; stroke-width: 0.8"/>
      </g>
     </g>
     <g id="text_8">
      <!-- 3600 -->
      <g transform="translate(25.15 248.361981)scale(0.1 -0.1)">
       <defs>
        <path id="DejaVuSans-36" d="M 2113 2584 
Q 1688 2584 1439 2293 
Q 1191 2003 1191 1497 
Q 1191 994 1439 701 
Q 1688 409 2113 409 
Q 2538 409 2786 701 
Q 3034 994 3034 1497 
Q 3034 2003 2786 2293 
Q 2538 2584 2113 2584 
z
M 3366 4563 
L 3366 3988 
Q 3128 4100 2886 4159 
Q 2644 4219 2406 4219 
Q 1781 4219 1451 3797 
Q 1122 3375 1075 2522 
Q 1259 2794 1537 2939 
Q 1816 3084 2150 3084 
Q 2853 3084 3261 2657 
Q 3669 2231 3669 1497 
Q 3669 778 3244 343 
Q 2819 -91 2113 -91 
Q 1303 -91 875 529 
Q 447 1150 447 2328 
Q 447 3434 972 4092 
Q 1497 4750 2381 4750 
Q 2619 4750 2861 4703 
Q 3103 4656 3366 4563 
z
" transform="scale(0.015625)"/>
       </defs>
       <use xlink:href="#DejaVuSans-33"/>
       <use xlink:href="#DejaVuSans-36" x="63.623047"/>
       <use xlink:href="#DejaVuSans-30" x="127.246094"/>
       <use xlink:href="#DejaVuSans-30" x="190.869141"/>
      </g>
     </g>
    </g>
    <g id="ytick_3">
     <g id="line2d_9">
      <g>
       <use xlink:href="#m52411e364e" x="57.6" y="192.400322" style="stroke: #000000; stroke-width: 0.8"/>
      </g>
     </g>
     <g id="text_9">
      <!-- 3800 -->
      <g transform="translate(25.15 196.19954)scale(0.1 -0.1)">
       <defs>
        <path id="DejaVuSans-38" d="M 2034 2216 
Q 1584 2216 1326 1975 
Q 1069 1734 1069 1313 
Q 1069 891 1326 650 
Q 1584 409 2034 409 
Q 2484 409 2743 651 
Q 3003 894 3003 1313 
Q 3003 1734 2745 1975 
Q 2488 2216 2034 2216 
z
M 1403 2484 
Q 997 2584 770 2862 
Q 544 3141 544 3541 
Q 544 4100 942 4425 
Q 1341 4750 2034 4750 
Q 2731 4750 3128 4425 
Q 3525 4100 3525 3541 
Q 3525 3141 3298 2862 
Q 3072 2584 2669 2484 
Q 3125 2378 3379 2068 
Q 3634 1759 3634 1313 
Q 3634 634 3220 271 
Q 2806 -91 2034 -91 
Q 1263 -91 848 271 
Q 434 634 434 1313 
Q 434 1759 690 2068 
Q 947 2378 1403 2484 
z
M 1172 3481 
Q 1172 3119 1398 2916 
Q 1625 2713 2034 2713 
Q 2441 2713 2670 2916 
Q 2900 3119 2900 3481 
Q 2900 3844 2670 4047 
Q 2441 4250 2034 4250 
Q 1625 4250 1398 4047 
Q 1172 3844 1172 3481 
z
" transform="scale(0.015625)"/>
       </defs>
       <use xlink:href="#DejaVuSans-33"/>
       <use xlink:href="#DejaVuSans-38" x="63.623047"/>
       <use xlink:href="#DejaVuSans-30" x="127.246094"/>
       <use xlink:href="#DejaVuSans-30" x="190.869141"/>
      </g>
     </g>
    </g>
    <g id="ytick_4">
     <g id="line2d_10">
      <g>
       <use xlink:href="#m52411e364e" x="57.6" y="140.237881" style="stroke: #000000; stroke-width: 0.8"/>
      </g>
     </g>
     <g id="text_10">
      <!-- 4000 -->
      <g transform="translate(25.15 144.0371)scale(0.1 -0.1)">
       <use xlink:href="#DejaVuSans-34"/>
       <use xlink:href="#DejaVuSans-30" x="63.623047"/>
       <use xlink:href="#DejaVuSans-30" x="127.246094"/>
       <use xlink:href="#DejaVuSans-30" x="190.869141"/>
      </g>
     </g>
    </g>
    <g id="ytick_5">
     <g id="line2d_11">
      <g>
       <use xlink:href="#m52411e364e" x="57.6" y="88.075441" style="stroke: #000000; stroke-width: 0.8"/>
      </g>
     </g>
     <g id="text_11">
      <!-- 4200 -->
      <g transform="translate(25.15 91.87466)scale(0.1 -0.1)">
       <use xlink:href="#DejaVuSans-34"/>
       <use xlink:href="#DejaVuSans-32" x="63.623047"/>
       <use xlink:href="#DejaVuSans-30" x="127.246094"/>
       <use xlink:href="#DejaVuSans-30" x="190.869141"/>
      </g>
     </g>
    </g>
   </g>
   <g id="line2d_12">
    <path d="M 73.832727 103.991735 
L 74.086463 104.794165 
L 74.340198 109.241345 
L 74.593934 107.034501 
L 74.847669 108.539138 
L 74.974537 108.271704 
L 75.228272 111.31447 
L 75.35514 110.812967 
L 75.482008 110.779474 
L 75.608876 111.88296 
L 75.735743 111.080402 
L 75.989479 108.238211 
L 76.243214 110.34483 
L 76.49695 111.816101 
L 76.750685 110.712616 
L 76.877553 110.679123 
L 77.004421 110.98005 
L 77.131289 110.411688 
L 77.385024 107.368794 
L 77.638759 108.472279 
L 77.892495 108.371928 
L 78.273098 107.469146 
L 78.399966 107.067867 
L 78.526834 107.26857 
L 78.780569 106.566364 
L 79.034305 108.238211 
L 79.28804 106.532871 
L 79.414908 107.134853 
L 79.541776 106.967643 
L 79.668643 106.332295 
L 79.795511 106.466012 
L 79.922379 106.76694 
L 80.049247 106.700081 
L 80.556717 107.903918 
L 80.683585 107.669849 
L 80.937321 106.098226 
L 81.064188 106.532871 
L 81.191056 106.131719 
L 81.444792 104.058593 
L 81.825395 108.472279 
L 81.952263 113.855734 
L 82.07913 114.323871 
L 82.332866 112.417955 
L 82.586601 112.986317 
L 82.967205 111.648891 
L 83.22094 112.718883 
L 83.347808 112.250745 
L 83.601543 112.618531 
L 83.728411 112.484814 
L 83.982146 113.053176 
L 84.235882 112.351097 
L 84.36275 112.551673 
L 84.616485 112.117028 
L 84.997088 112.451321 
L 85.123956 113.153528 
L 85.250824 112.886093 
L 85.504559 111.973632 
L 86.265766 110.712616 
L 86.519501 112.250745 
L 86.646369 112.083535 
L 87.026972 112.250745 
L 87.280708 112.016677 
L 87.407575 112.384463 
L 87.661311 110.712616 
L 87.788179 111.14726 
L 88.041914 112.618531 
L 88.168782 111.615398 
L 88.422517 107.870425 
L 88.676253 108.405421 
L 89.056856 103.657314 
L 89.310591 104.927882 
L 89.691195 103.724173 
L 89.94493 101.416978 
L 90.198666 110.110761 
L 90.325533 110.712616 
L 90.452401 109.943551 
L 90.706137 107.602863 
L 90.959872 108.071001 
L 91.213608 107.636356 
L 91.721079 109.140993 
L 91.847946 108.672855 
L 92.101682 112.050042 
L 92.355417 108.773207 
L 92.73602 111.749115 
L 92.862888 112.183887 
L 93.116624 111.013543 
L 93.243491 111.14726 
L 93.497227 111.983184 
L 93.750962 109.44192 
L 93.87783 109.77634 
L 94.004698 109.709482 
L 94.258433 109.174486 
L 94.385301 108.940417 
L 94.512169 108.97391 
L 94.639037 108.840065 
L 94.765904 107.970776 
L 95.01964 108.338562 
L 95.146508 108.137859 
L 95.400243 108.238211 
L 95.907714 108.171352 
L 96.034582 108.438914 
L 96.161449 108.137859 
L 96.288317 107.43578 
L 96.415185 107.636356 
L 96.542053 108.371928 
L 96.795788 106.867291 
L 96.922656 107.134853 
L 97.176391 108.371928 
L 97.430127 107.168218 
L 97.556995 108.137859 
L 97.683862 108.037635 
L 97.937598 104.526731 
L 98.064466 105.864157 
L 98.318201 110.645757 
L 98.571936 111.48168 
L 98.825672 108.071001 
L 99.079407 109.910058 
L 99.206275 108.672855 
L 99.460011 111.682256 
L 99.713746 107.870425 
L 99.840614 108.63949 
L 100.094349 111.047036 
L 100.348085 110.645757 
L 100.474953 111.548539 
L 100.60182 111.515046 
L 100.728688 111.013543 
L 100.855556 111.047036 
L 101.236159 108.271704 
L 101.363027 108.104494 
L 101.489894 108.204845 
L 101.74363 109.60913 
L 101.870498 109.040769 
L 101.997365 109.207979 
L 102.124233 108.672855 
L 102.251101 107.536004 
L 102.504836 109.274837 
L 102.758572 107.402287 
L 103.012307 108.171352 
L 103.266043 107.703215 
L 103.519778 108.572631 
L 103.773514 107.970776 
L 103.900382 108.137859 
L 104.154117 106.833798 
L 104.280985 107.368794 
L 104.407852 106.93415 
L 104.661588 104.660448 
L 104.915323 107.469146 
L 105.295927 104.894517 
L 105.422794 104.660448 
L 105.549662 104.994741 
L 105.67653 104.894517 
L 105.930265 103.891383 
L 106.184001 105.095093 
L 106.310869 109.107627 
L 106.437736 109.207979 
L 106.564604 107.602863 
L 106.691472 107.770073 
L 106.81834 108.706348 
L 106.945207 108.672855 
L 107.198943 110.645757 
L 107.452678 112.384463 
L 107.833281 111.280977 
L 107.960149 111.448187 
L 108.087017 111.214119 
L 108.213885 111.214119 
L 108.721356 109.040769 
L 108.848223 109.174486 
L 109.228827 112.551673 
L 109.355694 112.217252 
L 109.60943 110.277971 
L 109.736298 111.548539 
L 109.863165 111.347963 
L 109.990033 110.177619 
L 110.243769 111.582032 
L 110.370636 110.98005 
L 110.497504 111.280977 
L 110.624372 112.016677 
L 110.751239 111.88296 
L 111.004975 112.351097 
L 111.25871 111.916325 
L 111.512446 112.284111 
L 111.639314 112.718883 
L 111.893049 112.351097 
L 112.019917 113.588172 
L 112.146785 113.454455 
L 112.273652 112.451321 
L 112.527388 115.92886 
L 112.654256 115.76165 
L 112.781123 114.424223 
L 112.907991 115.494151 
L 113.288594 138.833532 
L 113.669197 283.651163 
L 113.796065 277.298068 
L 114.049801 295.488 
L 114.176668 291.776456 
L 114.303536 291.676168 
L 114.430404 100.781631 
L 114.557272 104.225676 
L 114.684139 103.85789 
L 114.811007 103.958242 
L 115.064743 108.472279 
L 115.19161 107.067867 
L 115.445346 108.672855 
L 115.572214 107.536004 
L 115.699081 108.438914 
L 115.952817 113.688524 
L 116.079685 113.454455 
L 116.33342 116.363504 
L 116.587155 111.582032 
L 116.714023 111.916325 
L 116.840891 113.053176 
L 117.094626 112.652024 
L 117.221494 112.819107 
L 117.348362 112.351097 
L 117.602097 113.722017 
L 117.855833 111.916325 
L 117.982701 111.648891 
L 118.109568 110.110761 
L 118.236436 110.779474 
L 118.363304 112.919459 
L 118.617039 108.405421 
L 118.743907 108.739841 
L 118.870775 108.071001 
L 119.12451 104.693814 
L 119.251378 104.727307 
L 119.378246 103.85789 
L 119.631981 106.466012 
L 119.885717 104.326028 
L 120.012584 104.927882 
L 120.139452 104.259169 
L 120.26632 102.88825 
L 120.393188 103.22267 
L 120.646923 104.660448 
L 120.900659 104.693814 
L 121.154394 104.493238 
L 121.40813 103.991735 
L 121.661865 105.028234 
L 121.788733 104.326028 
L 121.915601 104.392886 
L 122.042468 103.958242 
L 122.169336 103.991735 
L 122.423072 108.906924 
L 122.549939 115.92886 
L 122.930542 112.117028 
L 123.05741 112.317604 
L 123.184278 112.183887 
L 123.438013 109.44192 
L 123.691749 112.150394 
L 123.945484 110.812967 
L 124.19922 110.679123 
L 124.452955 113.220386 
L 124.579823 112.51818 
L 124.706691 110.779474 
L 124.960426 111.548539 
L 125.214162 108.371928 
L 125.34103 109.943551 
L 125.467897 109.375062 
L 125.594765 109.60913 
L 125.721633 112.183887 
L 126.102236 108.778046 
L 126.863442 108.004142 
L 127.117178 111.949818 
L 127.244046 112.150394 
L 127.370913 112.886093 
L 127.497781 112.718883 
L 127.751517 110.812967 
L 127.878384 111.414822 
L 128.258988 108.137859 
L 128.639591 109.241345 
L 128.766458 109.107627 
L 129.020194 104.727307 
L 129.147062 104.459745 
L 129.273929 103.22267 
L 129.527665 98.775491 
L 129.654533 98.474436 
L 129.908268 100.313493 
L 130.035136 99.912342 
L 130.162004 100.280128 
L 130.288871 100.179776 
L 130.542607 96.90294 
L 130.669475 111.113894 
L 130.796342 111.916325 
L 130.92321 111.615398 
L 131.430681 107.970776 
L 131.684416 108.204845 
L 131.811284 108.572631 
L 131.938152 108.071001 
L 132.06502 108.271704 
L 132.318755 111.715749 
L 132.445623 110.98005 
L 132.572491 111.381329 
L 132.699358 113.153528 
L 132.826226 113.053176 
L 133.079962 111.548539 
L 133.333697 113.922592 
L 133.460565 113.822241 
L 133.7143 112.986317 
L 133.841168 113.487948 
L 133.968036 115.19316 
L 134.094904 115.126302 
L 134.221771 112.886093 
L 134.348639 113.354103 
L 134.475507 115.260083 
L 134.729242 112.150394 
L 134.85611 112.919459 
L 134.982978 112.785741 
L 135.109845 112.819107 
L 135.236713 113.387596 
L 135.617316 111.715749 
L 135.744184 112.217252 
L 135.99792 115.594503 
L 136.124787 114.357237 
L 136.251655 115.126302 
L 136.378523 116.898564 
L 136.505391 116.931993 
L 136.885994 112.284111 
L 137.139729 114.658164 
L 137.393465 113.220386 
L 137.520333 113.922592 
L 137.6472 115.427293 
L 137.900936 112.451321 
L 138.154671 116.430427 
L 138.408407 111.983184 
L 138.662142 113.086669 
L 138.78901 109.174486 
L 138.915878 108.706348 
L 139.042745 109.241345 
L 139.169613 110.51204 
L 139.296481 109.274837 
L 139.423349 106.733574 
L 139.550216 107.001008 
L 139.677084 108.405421 
L 139.803952 108.371928 
L 140.057687 109.876692 
L 140.311423 108.271704 
L 140.438291 108.97391 
L 140.565158 108.773207 
L 140.692026 108.271704 
L 140.945761 111.31447 
L 141.072629 110.812967 
L 141.199497 108.472279 
L 141.326365 109.207979 
L 141.453232 110.645757 
L 141.960703 104.794165 
L 142.341307 108.505772 
L 142.468174 109.074134 
L 142.595042 108.338562 
L 142.848778 104.493238 
L 143.102513 108.438914 
L 143.356249 104.426379 
L 143.483116 105.095093 
L 143.609984 104.794165 
L 143.736852 105.061727 
L 143.863719 106.867291 
L 143.990587 107.034501 
L 144.117455 106.332295 
L 144.244323 106.466012 
L 144.498058 106.131719 
L 144.624926 106.265436 
L 144.878661 103.991735 
L 145.005529 104.660448 
L 145.259265 103.590456 
L 145.386132 104.861024 
L 145.513 104.961375 
L 145.766736 104.158818 
L 145.893603 104.259169 
L 146.020471 103.791032 
L 146.147339 104.392886 
L 146.274207 104.292662 
L 146.401074 101.885116 
L 146.527942 101.918609 
L 146.65481 104.459745 
L 146.781678 104.493238 
L 147.035413 104.259169 
L 147.289148 102.687674 
L 147.416016 104.593589 
L 147.542884 104.727307 
L 147.669752 104.0251 
L 148.050355 109.241345 
L 148.430958 107.335429 
L 148.557826 107.469146 
L 148.684694 107.43578 
L 148.938429 106.76694 
L 149.192165 105.931016 
L 149.4459 104.660448 
L 149.826503 108.8067 
L 150.080239 103.824525 
L 150.207106 104.058593 
L 150.333974 105.295796 
L 150.460842 104.660448 
L 150.58771 104.894517 
L 150.714577 105.596723 
L 150.841445 105.596723 
L 151.095181 107.26857 
L 151.348916 106.633222 
L 151.475784 106.800433 
L 151.602652 107.168218 
L 151.729519 106.76694 
L 151.856387 105.39602 
L 152.110123 108.438914 
L 152.23699 108.271704 
L 152.363858 108.037635 
L 152.490726 108.071001 
L 152.744461 110.846333 
L 152.871329 110.612264 
L 152.998197 110.177619 
L 153.251932 112.886093 
L 153.3788 110.98005 
L 153.505668 111.949818 
L 153.759403 116.998852 
L 153.886271 118.971626 
L 154.140006 151.941001 
L 154.266874 146.624406 
L 154.393742 132.747872 
L 154.52061 131.209742 
L 154.647477 134.35286 
L 154.774345 132.781301 
L 154.901213 133.884786 
L 155.028081 91.519486 
L 155.281816 95.364811 
L 155.408684 96.334452 
L 155.662419 100.748265 
L 155.789287 99.611414 
L 155.916155 99.678273 
L 156.043022 100.179776 
L 156.16989 99.577921 
L 156.550493 104.593589 
L 156.677361 104.560096 
L 156.804229 106.499505 
L 156.931097 106.566364 
L 157.184832 103.189177 
L 157.3117 104.192311 
L 157.565435 108.171352 
L 157.692303 108.338562 
L 157.946039 107.770073 
L 158.072906 107.903918 
L 158.199774 108.505772 
L 158.326642 108.238211 
L 158.45351 107.402287 
L 158.707245 107.43578 
L 158.834113 107.335429 
L 159.087848 108.371928 
L 159.214716 108.204845 
L 159.468451 106.532871 
L 159.595319 105.830792 
L 159.849055 106.93415 
L 159.975922 106.666715 
L 160.10279 107.134853 
L 160.229658 108.071001 
L 160.483393 104.459745 
L 160.737129 106.064733 
L 160.863997 104.225676 
L 161.117732 107.770073 
L 161.371468 104.392886 
L 161.625203 108.171352 
L 161.752071 107.469146 
L 162.386409 109.140993 
L 162.513277 109.876692 
L 162.767013 107.736708 
L 163.147616 115.694791 
L 163.274484 115.76165 
L 163.401351 114.992585 
L 163.655087 111.682256 
L 163.781955 112.919459 
L 163.908822 112.8526 
L 164.03569 111.582032 
L 164.289426 115.427293 
L 164.543161 113.487948 
L 164.796897 114.792009 
L 165.050632 115.19316 
L 165.304367 112.016677 
L 165.558103 113.153528 
L 165.811838 112.083535 
L 166.065574 112.551673 
L 166.319309 113.053176 
L 166.699913 111.7253 
L 167.461119 108.171352 
L 167.841722 111.749115 
L 167.96859 112.68539 
L 168.095458 112.68539 
L 168.349193 111.782608 
L 168.476061 112.484814 
L 168.602929 112.384463 
L 168.856664 108.071001 
L 168.983532 108.271704 
L 169.237267 110.946684 
L 169.364135 110.177619 
L 169.617871 106.666715 
L 169.744738 106.198578 
L 169.998474 102.955108 
L 170.252209 99.310487 
L 170.505945 101.818257 
L 170.886548 98.675139 
L 171.140283 95.130742 
L 171.267151 104.426379 
L 171.394019 104.292662 
L 171.520887 105.295796 
L 171.647754 105.39602 
L 171.90149 103.490104 
L 172.155225 103.85789 
L 172.535829 101.68454 
L 172.916432 103.289528 
L 173.0433 102.721039 
L 173.170167 103.122318 
L 173.297035 104.660448 
L 173.423903 104.560096 
L 173.550771 102.787898 
L 173.677638 102.787898 
L 173.931374 104.894517 
L 174.185109 104.426379 
L 174.311977 104.225676 
L 174.438845 104.359521 
L 174.565712 104.961375 
L 174.69258 104.961375 
L 174.946316 104.526731 
L 175.073183 104.426379 
L 175.453787 103.657314 
L 175.580654 103.657314 
L 175.83439 104.292662 
L 175.961258 104.058593 
L 176.088125 104.259169 
L 176.214993 104.091959 
L 176.341861 104.192311 
L 176.595596 107.335429 
L 176.722464 106.800433 
L 176.9762 108.137859 
L 177.229935 106.800433 
L 177.356803 106.76694 
L 177.48367 104.560096 
L 177.610538 104.426379 
L 177.737406 106.231943 
L 177.991141 104.091959 
L 178.244877 108.204845 
L 178.498612 107.201711 
L 178.879216 108.63949 
L 179.132951 106.098226 
L 179.259819 106.800433 
L 179.386687 108.840065 
L 179.513554 108.572631 
L 179.76729 110.077268 
L 180.021025 107.903918 
L 180.274761 108.63949 
L 180.528496 108.071001 
L 180.655364 108.706348 
L 180.782232 108.572631 
L 180.909099 107.903918 
L 181.162835 108.739841 
L 181.289703 108.438914 
L 181.41657 108.873558 
L 181.797174 111.88296 
L 182.050909 112.618531 
L 182.177777 112.819107 
L 182.55838 107.903918 
L 182.685248 108.739841 
L 182.938983 110.812967 
L 183.065851 110.812967 
L 183.192719 110.144126 
L 183.446454 107.402287 
L 183.70019 109.174486 
L 183.953925 107.836932 
L 184.080793 106.800433 
L 184.207661 107.168218 
L 184.334528 107.970776 
L 184.461396 107.937284 
L 184.588264 108.171352 
L 184.715132 108.706348 
L 184.841999 108.63949 
L 184.968867 108.204845 
L 185.095735 108.371928 
L 185.222603 108.238211 
L 185.476338 106.700081 
L 185.603206 107.469146 
L 185.856941 104.660448 
L 186.110677 109.040769 
L 186.237544 108.104494 
L 186.364412 108.238211 
L 186.49128 109.408555 
L 186.618148 108.8067 
L 186.871883 109.508906 
L 186.998751 108.97391 
L 187.252486 110.712616 
L 187.379354 109.107627 
L 187.506222 104.560096 
L 187.759957 104.626955 
L 187.886825 103.958242 
L 188.140561 104.660448 
L 188.267428 104.459745 
L 188.394296 105.462879 
L 188.648032 109.274837 
L 189.028635 107.636356 
L 189.155503 107.636356 
L 189.28237 108.104494 
L 189.409238 106.93415 
L 189.536106 104.125452 
L 189.662973 104.660448 
L 189.789841 106.967643 
L 190.043577 103.657314 
L 190.297312 109.274837 
L 190.42418 109.408555 
L 190.804783 107.803566 
L 190.931651 108.739841 
L 191.185386 107.235077 
L 191.439122 108.271704 
L 191.56599 108.238211 
L 191.692857 108.572631 
L 191.946593 110.010409 
L 192.200328 111.916325 
L 192.454064 110.879826 
L 192.707799 112.384463 
L 192.834667 112.117028 
L 192.961535 112.451321 
L 193.088402 112.150394 
L 193.21527 112.585038 
L 193.469006 114.624799 
L 193.595873 114.55794 
L 193.849609 116.162928 
L 193.976477 114.123168 
L 194.103344 114.022944 
L 194.483948 127.197271 
L 194.864551 202.79938 
L 194.991419 192.46718 
L 195.118286 192.433751 
L 195.245154 195.643728 
L 195.498889 190.561264 
L 195.625757 105.496372 
L 195.752625 108.405421 
L 195.879493 108.137859 
L 196.00636 108.873558 
L 196.260096 112.986317 
L 196.386964 111.247612 
L 196.513831 111.648891 
L 196.640699 112.451321 
L 196.767567 112.050042 
L 196.894435 112.417955 
L 197.14817 114.758516 
L 197.275038 113.722017 
L 197.528773 115.427293 
L 197.782509 111.849467 
L 197.909377 112.016677 
L 198.163112 113.120162 
L 198.28998 113.01981 
L 198.416847 112.585038 
L 198.543715 112.819107 
L 198.670583 113.354103 
L 198.797451 113.187021 
L 199.051186 112.618531 
L 199.431789 111.949818 
L 199.685525 112.652024 
L 199.812393 111.749115 
L 200.319864 104.426379 
L 200.446731 104.259169 
L 200.573599 104.760672 
L 200.700467 104.760672 
L 200.827335 104.526731 
L 200.954202 104.058593 
L 201.08107 104.091959 
L 201.207938 104.794165 
L 201.461673 103.322894 
L 201.715409 104.192311 
L 201.842276 103.924749 
L 202.096012 105.161951 
L 202.22288 104.760672 
L 202.476615 104.794165 
L 202.603483 104.0251 
L 202.857218 106.231943 
L 203.110954 104.125452 
L 203.364689 104.794165 
L 203.618425 108.171352 
L 203.745293 116.965423 
L 203.999028 116.931993 
L 204.252764 115.694791 
L 204.379631 116.463856 
L 204.633367 112.51818 
L 204.887102 115.694791 
L 205.01397 114.457589 
L 205.140838 114.524447 
L 205.267705 114.825374 
L 205.394573 114.089802 
L 205.648309 116.396997 
L 205.902044 113.755382 
L 206.028912 114.022944 
L 206.282647 112.083535 
L 206.536383 112.986317 
L 206.663251 112.417955 
L 206.916986 115.19316 
L 207.170722 112.618531 
L 208.058796 111.816101 
L 208.439399 114.691657 
L 208.566267 114.22352 
L 208.820002 112.551673 
L 209.073738 114.190154 
L 209.327473 111.648891 
L 209.581209 111.347963 
L 209.708076 111.749115 
L 209.834944 112.8526 
L 209.961812 112.484814 
L 210.215547 108.672855 
L 210.342415 108.405421 
L 210.469283 108.63949 
L 210.849886 102.988601 
L 211.103621 104.426379 
L 211.230489 103.958242 
L 211.357357 104.125452 
L 211.484225 103.924749 
L 211.611092 102.955108 
L 211.73796 102.988601 
L 211.864828 111.214119 
L 212.118563 111.548539 
L 212.245431 111.280977 
L 212.499167 108.204845 
L 212.626034 108.539138 
L 212.87977 107.836932 
L 213.006638 108.438914 
L 213.133505 108.438914 
L 213.260373 107.970776 
L 213.514108 110.846333 
L 213.640976 109.709482 
L 213.767844 110.077268 
L 213.894712 112.8526 
L 214.021579 111.749115 
L 214.148447 109.207979 
L 214.52905 111.782608 
L 214.655918 111.916325 
L 214.782786 111.849467 
L 214.909654 111.080402 
L 215.036521 111.247612 
L 215.163389 112.117028 
L 215.290257 111.280977 
L 215.543992 107.970776 
L 215.67086 108.472279 
L 215.924596 107.870425 
L 216.051463 108.071001 
L 216.178331 107.703215 
L 216.305199 107.903918 
L 216.432067 107.870425 
L 216.685802 107.034501 
L 216.81267 107.001008 
L 217.193273 108.238211 
L 217.320141 108.037635 
L 217.573876 109.007276 
L 217.700744 108.305069 
L 217.827612 108.605997 
L 218.081347 104.961375 
L 218.208215 105.89765 
L 218.335083 107.836932 
L 218.588818 106.298802 
L 218.842554 107.803566 
L 218.969421 107.803566 
L 219.096289 106.399154 
L 219.223157 106.399154 
L 219.350025 108.338562 
L 219.476892 107.201711 
L 219.60376 103.891383 
L 219.730628 103.724173 
L 219.857495 105.028234 
L 219.984363 115.19316 
L 220.111231 114.55794 
L 220.364966 116.998852 
L 220.74557 111.849467 
L 220.872437 113.086669 
L 221.126173 112.752248 
L 221.253041 113.588172 
L 221.379908 113.521313 
L 221.506776 112.618531 
L 221.633644 112.752248 
L 222.014247 115.995718 
L 222.141115 116.062577 
L 222.39485 115.393863 
L 222.648586 116.196358 
L 222.775453 114.858867 
L 223.029189 111.849467 
L 223.156057 113.086669 
L 223.282924 112.585038 
L 223.409792 112.8526 
L 223.53666 114.624799 
L 223.663528 114.056309 
L 223.917263 111.849467 
L 224.297866 113.187021 
L 224.551602 111.816101 
L 224.67847 111.949818 
L 224.805337 112.117028 
L 224.932205 111.983184 
L 225.439676 112.083535 
L 225.566544 112.016677 
L 225.693411 112.317604 
L 225.820279 112.150394 
L 225.947147 111.047036 
L 226.074015 110.946684 
L 226.200882 111.14726 
L 226.454618 107.770073 
L 226.708353 111.648891 
L 226.962089 109.007276 
L 227.088957 109.341696 
L 227.342692 108.338562 
L 227.46956 108.63949 
L 227.596428 107.770073 
L 227.723295 107.703215 
L 227.977031 109.040769 
L 228.103899 111.715749 
L 228.230766 111.31447 
L 228.484502 109.040769 
L 228.738237 112.016677 
L 228.865105 111.88296 
L 228.991973 111.983184 
L 229.245708 115.995718 
L 229.626311 112.384463 
L 229.880047 112.919459 
L 230.006915 112.819107 
L 230.133782 112.317604 
L 230.387518 112.451321 
L 230.641253 111.682256 
L 230.768121 111.816101 
L 231.021857 115.828508 
L 231.275592 111.648891 
L 231.40246 112.117028 
L 231.529328 113.120162 
L 231.783063 111.88296 
L 231.909931 112.718883 
L 232.036798 112.752248 
L 232.163666 112.250745 
L 232.417402 113.554806 
L 232.544269 112.68539 
L 232.671137 113.086669 
L 232.798005 115.360434 
L 232.924873 114.892233 
L 233.05174 112.68539 
L 233.178608 113.788875 
L 233.305476 116.162928 
L 233.432344 116.129499 
L 233.559211 115.694791 
L 233.939815 116.831642 
L 234.066682 116.096006 
L 234.19355 116.296646 
L 234.320418 118.202625 
L 234.447286 118.336342 
L 234.574153 117.333208 
L 234.827889 121.044752 
L 235.081624 119.841043 
L 235.33536 128.701972 
L 235.462227 124.488861 
L 235.715963 109.174486 
L 236.096566 102.955108 
L 236.223434 57.881462 
L 236.350302 62.763285 
L 236.477169 62.462358 
L 236.604037 67.043255 
L 236.857773 79.047366 
L 236.98464 75.703544 
L 237.238376 80.485144 
L 237.365244 78.646086 
L 237.999582 96.702365 
L 238.12645 96.501662 
L 238.380185 91.252052 
L 239.014524 115.962289 
L 239.141392 115.293512 
L 239.26826 113.454455 
L 239.395127 113.822241 
L 239.521995 113.722017 
L 239.775731 109.207979 
L 239.902598 110.110761 
L 240.029466 108.438914 
L 240.156334 108.505772 
L 240.283202 111.31447 
L 240.410069 111.113894 
L 240.663805 107.335429 
L 240.790672 106.098226 
L 241.171276 99.343852 
L 241.425011 105.195444 
L 241.678747 101.383613 
L 241.932482 104.125452 
L 242.05935 103.088825 
L 242.313085 104.626955 
L 242.566821 101.918609 
L 243.074292 109.375062 
L 243.328027 107.903918 
L 243.454895 107.770073 
L 243.962366 102.15255 
L 244.089234 104.426379 
L 244.216101 109.675989 
L 244.342969 144.71849 
L 244.469837 144.51785 
L 244.596705 142.946291 
L 244.85044 134.085362 
L 244.977308 133.817864 
L 245.104176 132.045729 
L 245.231043 131.911948 
L 245.357911 134.653851 
L 245.484779 134.620358 
L 245.738514 132.647584 
L 245.865382 131.711309 
L 245.99225 129.805393 
L 246.245985 134.653851 
L 246.499721 127.565057 
L 246.626589 128.668542 
L 246.753456 129.303826 
L 246.880324 125.826351 
L 247.134059 127.331052 
L 247.260927 123.251659 
L 247.387795 124.020724 
L 247.514663 128.534762 
L 248.149001 115.647035 
L 248.656472 108.672855 
L 248.910208 111.88296 
L 249.163943 118.837909 
L 249.290811 117.166062 
L 249.417679 112.284111 
L 249.544547 112.718883 
L 249.671414 115.795079 
L 249.798282 115.427293 
L 250.178885 104.158818 
L 250.559488 112.150394 
L 250.940092 100.881982 
L 251.066959 98.641646 
L 251.447563 82.992914 
L 251.57443 83.3607 
L 251.955034 86.202891 
L 252.081901 85.433826 
L 252.335637 78.077597 
L 252.462505 128.367551 
L 252.71624 130.908815 
L 252.843108 129.638183 
L 253.223711 119.038549 
L 253.350579 119.071978 
L 253.604314 112.317604 
L 253.731182 112.150394 
L 253.984917 109.77634 
L 254.111785 112.68539 
L 254.238653 112.8526 
L 254.365521 113.387596 
L 254.619256 119.239124 
L 254.872992 113.621665 
L 255.253595 118.135703 
L 255.50733 111.749115 
L 255.761066 113.187021 
L 255.887933 113.253879 
L 256.141669 115.694791 
L 256.776008 108.305069 
L 256.902875 109.140993 
L 257.029743 109.274837 
L 257.156611 107.201711 
L 257.283479 107.536004 
L 257.664082 113.788875 
L 257.79095 113.989451 
L 257.917817 111.749115 
L 258.044685 112.785741 
L 258.171553 115.326941 
L 258.679024 108.672855 
L 258.805892 110.144126 
L 258.932759 113.287245 
L 259.059627 113.220386 
L 259.313362 108.605997 
L 259.44023 108.238211 
L 259.567098 108.906924 
L 259.820833 106.131719 
L 260.074569 112.183887 
L 260.328304 103.991735 
L 260.455172 107.870425 
L 260.58204 147.895037 
L 260.708908 147.360041 
L 260.962643 150.937867 
L 261.089511 148.463526 
L 261.343246 142.110368 
L 261.470114 142.478217 
L 261.72385 139.268177 
L 261.977585 144.618202 
L 262.23132 136.626626 
L 262.485056 136.325698 
L 262.611924 135.824131 
L 262.992527 139.636027 
L 263.246262 148.831312 
L 263.37313 148.563814 
L 263.880601 139.335099 
L 264.007469 140.104101 
L 264.261204 142.946291 
L 264.388072 141.274444 
L 264.641808 134.453212 
L 264.768675 135.656921 
L 264.895543 139.401958 
L 265.022411 139.803173 
L 265.276146 134.486641 
L 265.403014 134.419783 
L 265.656749 132.814794 
L 265.783617 131.744738 
L 265.910485 131.945378 
L 266.16422 134.018504 
L 266.671691 127.43134 
L 266.798559 127.197271 
L 267.052295 122.081315 
L 267.30603 128.80226 
L 267.559766 125.792922 
L 267.686633 126.227567 
L 267.813501 124.756359 
L 268.067236 126.628846 
L 268.194104 123.853513 
L 268.320972 123.552586 
L 268.44784 126.160708 
L 268.574707 125.291355 
L 268.828443 115.293512 
L 268.955311 114.22352 
L 269.209046 115.795079 
L 269.335914 116.029147 
L 269.589649 121.412602 
L 269.843385 129.069758 
L 269.970253 128.367551 
L 270.223988 126.194138 
L 270.477724 123.853513 
L 270.604591 123.519157 
L 270.985195 121.880739 
L 271.112062 119.874472 
L 271.23893 120.108541 
L 271.619533 128.467903 
L 271.746401 128.200405 
L 272.000136 119.94133 
L 272.253872 124.589149 
L 272.38074 123.1848 
L 272.507607 123.218229 
L 272.761343 121.111674 
L 273.015078 126.929773 
L 273.141946 126.09385 
L 273.395682 127.197271 
L 273.649417 123.385376 
L 273.903153 130.373819 
L 274.03002 130.30696 
L 274.283756 127.26413 
L 274.537491 131.343523 
L 274.664359 130.13975 
L 274.791227 130.106321 
L 275.044962 138.331966 
L 275.17183 133.617288 
L 275.298698 133.516937 
L 275.552433 148.864741 
L 275.679301 152.375709 
L 276.059904 268.470568 
L 276.186772 259.141502 
L 276.31364 260.679632 
L 276.440507 267.701504 
L 276.694243 262.919904 
L 276.821111 68.848946 
L 276.947978 72.560426 
L 277.074846 72.694271 
L 277.201714 74.633552 
L 277.455449 83.661755 
L 277.582317 81.956415 
L 277.709185 83.728613 
L 277.836052 82.558269 
L 277.96292 78.712945 
L 278.089788 81.889556 
L 278.343523 89.580078 
L 278.470391 89.580078 
L 278.724127 93.592612 
L 278.977862 87.072307 
L 279.485333 99.9792 
L 279.612201 101.651047 
L 279.739069 100.514196 
L 279.865936 100.748265 
L 279.992804 101.416978 
L 280.246539 98.374212 
L 280.373407 98.775491 
L 280.627143 95.030391 
L 280.75401 95.565387 
L 281.007746 99.678273 
L 281.134614 98.507929 
L 281.388349 95.966666 
L 281.515217 96.535155 
L 281.768952 94.729463 
L 282.022688 99.042925 
L 282.149556 98.775491 
L 282.276423 98.842349 
L 282.403291 100.447338 
L 282.530159 100.213269 
L 282.657027 99.243501 
L 282.783894 99.511063 
L 282.910762 98.507929 
L 283.164497 94.027257 
L 283.418233 100.079552 
L 283.545101 99.64478 
L 283.798836 95.9333 
L 283.925704 96.836082 
L 284.052572 96.367945 
L 284.179439 96.769223 
L 284.306307 99.778497 
L 284.433175 99.577921 
L 284.560043 95.832948 
L 284.68691 96.234227 
L 284.813778 100.112917 
L 284.940646 130.808527 
L 285.067514 131.443811 
L 285.194381 129.604754 
L 285.448117 123.920372 
L 285.574985 124.956935 
L 285.701852 124.689437 
L 285.82872 123.519157 
L 286.082456 124.656008 
L 286.209323 124.020724 
L 286.463059 125.525424 
L 286.589926 123.318517 
L 286.716794 123.652874 
L 286.843662 126.528494 
L 286.97053 125.726 
L 287.097397 123.084449 
L 287.224265 123.01759 
L 287.478001 122.148237 
L 287.604868 125.057287 
L 287.731736 124.622578 
L 287.858604 121.245391 
L 287.985472 121.847246 
L 288.112339 123.117878 
L 288.366075 117.533848 
L 289.254149 112.652024 
L 289.507884 117.166062 
L 289.634752 116.363504 
L 289.888488 116.931993 
L 290.142223 115.494151 
L 290.395959 117.400067 
L 290.776562 111.983184 
L 290.90343 112.752248 
L 291.030297 114.491082 
L 291.157165 114.323871 
L 291.537768 103.523597 
L 291.664636 104.994741 
L 291.791504 103.991735 
L 292.045239 94.094243 
L 292.298975 96.200734 
L 292.425842 94.829815 
L 292.55271 95.832948 
L 292.679578 94.930166 
L 292.806446 91.285418 
L 292.933313 91.1517 
L 293.060181 118.169132 
L 293.313917 121.646671 
L 293.440784 120.409468 
L 293.69452 115.76165 
L 293.821388 116.296646 
L 293.948255 117.600707 
L 294.075123 116.330075 
L 294.328859 112.150394 
L 294.455726 111.949818 
L 294.582594 112.150394 
L 294.83633 112.752248 
L 294.963197 114.658164 
L 295.090065 118.670699 
L 295.216933 118.971626 
L 295.470668 111.48168 
L 295.597536 112.51818 
L 295.851271 117.43356 
L 296.231875 112.585038 
L 296.358742 112.652024 
L 296.48561 112.51818 
L 296.739346 117.767917 
L 296.866213 115.059443 
L 297.119949 107.536004 
L 297.246817 108.97391 
L 297.500552 107.703215 
L 297.62742 108.037635 
L 297.881155 106.566364 
L 298.261758 110.445054 
L 298.388626 113.086669 
L 298.515494 113.387596 
L 298.769229 116.029147 
L 299.403568 106.566364 
L 299.657304 108.238211 
L 299.911039 107.569497 
L 300.037907 108.271704 
L 300.164775 109.843199 
L 300.291642 107.970776 
L 300.41851 104.091959 
L 300.545378 104.626955 
L 300.672246 105.997875 
L 300.925981 100.313493 
L 301.052849 103.423246 
L 301.179717 117.567277 
L 301.306584 117.299779 
L 301.56032 119.339476 
L 301.940923 115.795079 
L 302.067791 117.032281 
L 302.194658 116.096006 
L 302.321526 116.062577 
L 302.575262 121.011323 
L 302.828997 115.427293 
L 302.955865 118.704128 
L 303.082733 118.403201 
L 303.2096 116.062577 
L 303.336468 116.029147 
L 303.463336 116.664495 
L 303.590204 118.236054 
L 303.970807 125.692571 
L 304.35141 120.409468 
L 304.605145 121.078245 
L 304.858881 125.257926 
L 305.239484 115.092936 
L 305.49322 116.396997 
L 305.746955 115.059443 
L 306.127558 116.731354 
L 306.254426 116.631002 
L 306.381294 116.162928 
L 306.508162 116.162928 
L 306.635029 116.463856 
L 306.888765 118.001985 
L 307.015633 119.239124 
L 307.1425 118.904768 
L 307.396236 117.26635 
L 307.649971 112.250745 
L 307.903707 118.637269 
L 308.030574 115.995718 
L 308.157442 115.694791 
L 308.28431 117.299779 
L 308.411178 116.463856 
L 308.538045 116.898564 
L 308.664913 115.56101 
L 308.791781 112.652024 
L 309.045516 116.664495 
L 309.172384 115.059443 
L 309.42612 105.161951 
L 309.552987 104.158818 
L 309.679855 104.526731 
L 309.933591 103.423246 
L 310.060458 103.824525 
L 310.187326 105.195444 
L 310.441061 112.919459 
L 310.694797 110.98005 
L 310.948532 112.652024 
L 311.202268 108.238211 
L 311.329136 108.071001 
L 311.456003 108.371928 
L 311.709739 106.867291 
L 311.836607 107.736708 
L 312.21721 114.022944 
L 312.344078 114.524447 
L 312.597813 108.906924 
L 312.851549 113.287245 
L 313.105284 111.080402 
L 313.35902 111.648891 
L 313.612755 114.591306 
L 313.993358 113.421089 
L 314.247094 111.715749 
L 314.754565 117.901634 
L 314.881432 117.767917 
L 315.0083 117.734488 
L 315.135168 118.536982 
L 315.262036 118.470123 
L 315.388903 119.339476 
L 315.642639 124.455368 
L 315.769507 121.746958 
L 315.896374 121.746958 
L 316.15011 130.173179 
L 316.276978 132.747872 
L 316.657581 199.355335 
L 316.784448 189.725341 
L 316.911316 190.96248 
L 317.038184 198.21842 
L 317.291919 196.680291 
L 317.418787 53.568 
L 317.545655 57.78111 
L 317.672523 57.379831 
L 317.79939 62.094572 
L 318.053126 74.06519 
L 318.179994 70.621145 
L 318.433729 76.138316 
L 318.560597 74.031697 
L 318.687465 76.740171 
L 318.9412 88.409861 
L 319.068068 90.215425 
L 319.321803 94.22796 
L 319.575539 88.343003 
L 319.956142 104.961375 
L 320.209877 112.986317 
L 320.463613 111.247612 
L 320.590481 112.585038 
L 320.717348 111.280977 
L 320.844216 107.937284 
L 320.971084 107.569497 
L 321.224819 104.794165 
L 321.478555 109.040769 
L 321.605423 108.840065 
L 321.859158 104.326028 
L 321.986026 103.757666 
L 322.112894 102.018833 
L 322.239761 98.140143 
L 322.366629 98.842349 
L 322.620364 104.727307 
L 322.747232 101.751399 
L 322.8741 101.885116 
L 323.000968 104.158818 
L 323.127835 103.356387 
L 323.254703 101.784764 
L 323.381571 103.189177 
L 323.508439 103.189177 
L 323.762174 99.042925 
L 324.01591 101.116051 
L 324.269645 104.727307 
L 324.396513 101.951974 
L 324.523381 101.717906 
L 324.777116 107.134853 
L 325.030852 103.724173 
L 325.157719 101.483837 
L 325.284587 102.420112 
L 325.411455 105.596723 
L 325.538322 146.05598 
L 325.66519 145.220057 
L 326.299529 131.611021 
L 326.426397 131.042596 
L 326.553264 132.848223 
L 326.680132 132.580725 
L 326.807 130.47417 
L 326.933868 130.708175 
L 327.060735 131.209742 
L 327.187603 129.136616 
L 327.314471 130.072891 
L 327.441339 133.048799 
L 327.695074 125.124145 
L 327.821942 126.495065 
L 327.94881 128.166976 
L 328.075677 126.528494 
L 328.329413 129.136616 
L 328.456281 124.72293 
L 328.583148 125.458502 
L 328.710016 129.270397 
L 329.217487 115.522805 
L 329.851826 107.235077 
L 329.978693 108.238211 
L 330.359297 116.664495 
L 330.486164 115.72822 
L 330.7399 110.98005 
L 330.866768 113.655158 
L 330.993635 113.253879 
L 331.247371 102.754532 
L 331.374239 102.219536 
L 331.754842 109.207979 
L 332.008577 99.377345 
L 332.135445 98.340719 
L 332.38918 88.844506 
L 332.642916 82.190484 
L 332.896651 83.561403 
L 333.023519 83.226983 
L 333.150387 85.166391 
L 333.277255 83.929189 
L 333.53099 77.475743 
L 333.657858 123.318517 
L 334.038461 127.197271 
L 334.799667 111.280977 
L 334.926535 110.946684 
L 335.180271 107.970776 
L 335.434006 112.016677 
L 335.560874 111.782608 
L 335.814609 118.269484 
L 336.068345 111.14726 
L 336.32208 116.564144 
L 336.448948 116.463856 
L 336.702684 111.080402 
L 336.956419 113.354103 
L 337.083287 113.253879 
L 337.337022 115.527581 
L 337.46389 114.691657 
L 337.971361 107.201711 
L 338.098229 107.168218 
L 338.351964 103.322894 
L 338.478832 104.426379 
L 338.986303 113.521313 
L 339.113171 111.715749 
L 339.240038 112.117028 
L 339.366906 115.092936 
L 339.747509 107.970776 
L 339.874377 108.63949 
L 340.001245 108.204845 
L 340.25498 110.244478 
L 340.508716 104.225676 
L 340.762451 104.493238 
L 341.016187 102.15255 
L 341.269922 106.098226 
L 341.523658 99.64478 
L 341.650525 103.590456 
L 341.777393 150.369442 
L 341.904261 148.129106 
L 342.157996 153.111281 
L 342.5386 142.912862 
L 342.665467 143.615068 
L 342.919203 142.344436 
L 343.046071 143.982854 
L 343.172938 143.748785 
L 343.426674 138.900391 
L 343.553542 139.669456 
L 343.807277 143.013213 
L 343.934145 142.678793 
L 344.061012 142.879433 
L 344.314748 147.627539 
L 344.568483 152.074718 
L 344.949087 145.788482 
L 345.075954 144.818841 
L 345.456558 148.731024 
L 345.583425 147.861608 
L 345.837161 139.201318 
L 345.964029 140.63916 
L 346.090896 144.450992 
L 346.217764 144.216923 
L 346.4715 138.532541 
L 346.725235 137.796969 
L 346.97897 135.89099 
L 347.105838 136.091629 
L 347.359574 139.502246 
L 347.740177 131.544162 
L 347.867045 132.112588 
L 347.993912 132.012236 
L 348.247648 128.200405 
L 348.501383 133.450078 
L 348.755119 130.607887 
L 348.881987 130.708175 
L 349.008854 128.701972 
L 349.26259 128.902611 
L 349.389458 126.09385 
L 349.516325 125.89321 
L 349.643193 127.59855 
L 349.770061 126.428206 
L 350.023796 110.010409 
L 350.150664 107.803566 
L 350.404399 110.879826 
L 350.531267 111.715749 
L 351.038738 124.756359 
L 351.165606 123.786655 
L 351.292474 120.777254 
L 351.419341 121.111674 
L 351.546209 120.944464 
L 352.05368 115.828508 
L 352.307416 115.260083 
L 352.434283 116.731354 
L 352.814886 125.090716 
L 352.941754 125.090716 
L 353.19549 117.600707 
L 353.449225 118.938197 
L 353.576093 116.931993 
L 353.702961 116.831642 
L 353.829828 117.166062 
L 353.956696 117.09914 
L 354.210432 121.579748 
L 354.337299 120.710395 
L 354.464167 120.743825 
L 354.591035 121.613241 
L 354.84477 118.302913 
L 355.225374 124.856647 
L 355.479109 121.011323 
L 355.605977 121.746958 
L 355.732845 125.057287 
L 355.98658 123.920372 
L 356.240315 132.313227 
L 356.367183 128.267263 
L 356.494051 127.999765 
L 356.874654 146.524118 
L 357.255257 264.290887 
L 357.382125 256.065242 
L 357.508993 256.031813 
L 357.635861 263.421471 
L 357.889596 258.606506 
L 358.016464 87.005449 
L 358.143332 91.017983 
L 358.397067 91.920765 
L 358.523935 96.367945 
L 358.650803 96.73573 
L 358.904538 91.586345 
L 359.158273 92.990757 
L 359.285141 93.692964 
L 359.792612 101.68454 
L 359.91948 101.483837 
L 360.046348 98.407577 
L 360.173215 98.374212 
L 360.807554 115.092936 
L 360.934422 115.594503 
L 361.188157 120.676966 
L 361.315025 119.372905 
L 361.441893 116.296646 
L 361.568761 116.798212 
L 361.695628 118.43663 
L 361.822496 117.600707 
L 361.949364 117.801346 
L 362.076231 120.30918 
L 362.203099 119.606974 
L 362.583702 112.150394 
L 362.837438 110.913191 
L 362.964306 112.551673 
L 363.344909 125.558854 
L 363.471777 128.066624 
L 363.725512 135.857561 
L 363.85238 135.690414 
L 363.979248 137.295403 
L 364.106115 140.906658 
L 364.359851 139.067601 
L 364.740454 145.821911 
L 364.867322 145.788482 
L 364.994189 144.551343 
L 365.50166 150.670369 
L 365.628528 150.46973 
L 365.755396 147.56068 
L 366.009131 151.606644 
L 366.135999 119.97476 
L 366.262867 119.573545 
L 366.389735 118.236054 
L 366.64347 106.432647 
L 366.770338 107.870425 
L 366.897206 106.967643 
L 367.024073 103.456611 
L 367.150941 103.289528 
L 367.277809 104.861024 
L 367.404677 104.626955 
L 367.658412 102.587322 
L 368.039015 104.326028 
L 368.292751 100.046059 
L 368.419618 100.480703 
L 368.673354 97.270727 
L 368.800222 99.544428 
L 368.927089 99.276994 
L 369.053957 93.826681 
L 369.180825 94.428536 
L 369.307693 98.207002 
L 369.688296 89.647064 
L 370.449502 83.026407 
L 370.703238 84.531044 
L 370.956973 89.011716 
L 371.210709 86.637663 
L 371.591312 89.680429 
L 371.971915 83.293841 
L 372.225651 84.564537 
L 372.352518 84.330468 
L 372.606254 77.375391 
L 372.733122 77.275167 
L 372.859989 76.807029 
L 373.240593 66.307683 
L 373.494328 67.611744 
L 373.621196 66.508258 
L 373.748064 67.544885 
L 373.874931 66.942903 
L 374.128667 58.416458 
L 374.255534 80.317934 
L 374.382402 79.849796 
L 374.50927 80.017006 
L 374.636138 79.916654 
L 374.889873 75.302393 
L 375.143609 77.442377 
L 375.270476 75.870754 
L 375.397344 76.740171 
L 375.524212 80.317934 
L 375.777947 78.779804 
L 376.031683 85.366967 
L 376.158551 87.506952 
L 376.285418 94.696098 
L 376.412286 95.164235 
L 376.539154 88.409861 
L 376.666022 87.975089 
L 376.919757 96.535155 
L 377.046625 96.635379 
L 377.30036 95.130742 
L 377.427228 96.067017 
L 377.554096 95.799455 
L 377.807831 98.039791 
L 378.822773 93.392037 
L 378.949641 91.586345 
L 379.076509 91.419135 
L 379.58398 99.9792 
L 379.710847 100.012566 
L 379.964583 101.784764 
L 380.09145 100.781631 
L 380.345186 95.532021 
L 380.472054 95.297952 
L 380.725789 97.036658 
L 381.106392 95.197601 
L 381.360128 98.942574 
L 381.486996 98.842349 
L 381.613863 98.541422 
L 381.867599 100.848489 
L 382.121334 96.200734 
L 382.248202 99.009432 
L 382.37507 160.768501 
L 382.628805 158.661945 
L 382.755673 158.494735 
L 383.136276 147.39347 
L 383.263144 148.831312 
L 383.516879 142.846003 
L 383.643747 142.946291 
L 383.897483 137.195051 
L 384.02435 137.997545 
L 384.151218 139.368528 
L 384.278086 137.562901 
L 384.404954 137.562901 
L 384.912425 146.791616 
L 385.16616 154.549123 
L 385.419896 155.986901 
L 385.546763 155.619115 
L 385.673631 155.853184 
L 385.927367 164.245976 
L 386.054234 164.179117 
L 386.181102 163.911619 
L 386.30797 164.613762 
L 386.434837 162.841627 
L 386.561705 163.410052 
L 386.815441 169.295009 
L 387.069176 166.686887 
L 387.196044 167.221884 
L 387.322912 167.155025 
L 387.449779 165.850964 
L 387.576647 166.419389 
L 387.703515 168.425657 
L 387.95725 166.55317 
L 388.084118 167.957519 
L 388.210986 166.519741 
L 388.464721 162.574129 
L 388.591589 162.640987 
L 388.845325 156.655678 
L 389.09906 161.838493 
L 389.352795 155.953472 
L 389.479663 156.58882 
L 389.606531 155.685974 
L 390.367737 140.171023 
L 390.621473 125.023857 
L 390.875208 121.780388 
L 391.002076 120.208829 
L 391.128944 120.14197 
L 391.255812 120.576678 
L 391.382679 119.94133 
L 391.636415 131.711309 
L 391.89015 126.561987 
L 392.017018 126.829485 
L 392.397621 123.519157 
L 392.651357 122.014456 
L 392.905092 118.369772 
L 393.158828 122.081315 
L 393.285695 122.750092 
L 393.412563 125.191004 
L 393.539431 124.254793 
L 393.793166 116.296646 
L 393.920034 118.470123 
L 394.046902 118.637269 
L 394.17377 115.995718 
L 394.300637 116.196358 
L 394.427505 117.232921 
L 394.554373 116.430427 
L 394.681241 117.567277 
L 394.808108 120.14197 
L 395.061844 119.239124 
L 395.188711 120.34261 
L 395.442447 118.302913 
L 395.696182 122.649804 
L 395.82305 122.114808 
L 396.076786 120.944464 
L 396.203653 121.044752 
L 396.457389 119.707262 
L 396.584257 120.576678 
L 396.837992 126.662275 
L 396.96486 124.990428 
L 397.091728 126.729134 
L 397.345463 135.556633 
L 397.472331 139.067601 
L 397.852934 217.177481 
L 398.10667 205.073146 
L 398.233537 209.152475 
L 398.487273 200.592474 
L 398.487273 200.592474 
" clip-path="url(#pc9ff591227)" style="fill: none; stroke: #1f77b4; stroke-width: 1.5; stroke-linecap: square"/>
   </g>
   <g id="patch_3">
    <path d="M 57.6 307.584 
L 57.6 41.472 
" style="fill: none; stroke: #000000; stroke-width: 0.8; stroke-linejoin: miter; stroke-linecap: square"/>
   </g>
   <g id="patch_4">
    <path d="M 414.72 307.584 
L 414.72 41.472 
" style="fill: none; stroke: #000000; stroke-width: 0.8; stroke-linejoin: miter; stroke-linecap: square"/>
   </g>
   <g id="patch_5">
    <path d="M 57.6 307.584 
L 414.72 307.584 
" style="fill: none; stroke: #000000; stroke-width: 0.8; stroke-linejoin: miter; stroke-linecap: square"/>
   </g>
   <g id="patch_6">
    <path d="M 57.6 41.472 
L 414.72 41.472 
" style="fill: none; stroke: #000000; stroke-width: 0.8; stroke-linejoin: miter; stroke-linecap: square"/>
   </g>
   <g id="legend_1">
    <g id="patch_7">
     <path d="M 64.6 64.150125 
L 118.245312 64.150125 
Q 120.245312 64.150125 120.245312 62.150125 
L 120.245312 48.472 
Q 120.245312 46.472 118.245312 46.472 
L 64.6 46.472 
Q 62.6 46.472 62.6 48.472 
L 62.6 62.150125 
Q 62.6 64.150125 64.6 64.150125 
z
" style="fill: #ffffff; opacity: 0.8; stroke: #cccccc; stroke-linejoin: miter"/>
    </g>
    <g id="line2d_13">
     <path d="M 66.6 54.570438 
L 76.6 54.570438 
L 86.6 54.570438 
" style="fill: none; stroke: #1f77b4; stroke-width: 1.5; stroke-linecap: square"/>
    </g>
    <g id="text_12">
     <!-- set3 -->
     <g transform="translate(94.6 58.070438)scale(0.1 -0.1)">
      <defs>
       <path id="DejaVuSans-73" d="M 2834 3397 
L 2834 2853 
Q 2591 2978 2328 3040 
Q 2066 3103 1784 3103 
Q 1356 3103 1142 2972 
Q 928 2841 928 2578 
Q 928 2378 1081 2264 
Q 1234 2150 1697 2047 
L 1894 2003 
Q 2506 1872 2764 1633 
Q 3022 1394 3022 966 
Q 3022 478 2636 193 
Q 2250 -91 1575 -91 
Q 1294 -91 989 -36 
Q 684 19 347 128 
L 347 722 
Q 666 556 975 473 
Q 1284 391 1588 391 
Q 1994 391 2212 530 
Q 2431 669 2431 922 
Q 2431 1156 2273 1281 
Q 2116 1406 1581 1522 
L 1381 1569 
Q 847 1681 609 1914 
Q 372 2147 372 2553 
Q 372 3047 722 3315 
Q 1072 3584 1716 3584 
Q 2034 3584 2315 3537 
Q 2597 3491 2834 3397 
z
" transform="scale(0.015625)"/>
       <path id="DejaVuSans-65" d="M 3597 1894 
L 3597 1613 
L 953 1613 
Q 991 1019 1311 708 
Q 1631 397 2203 397 
Q 2534 397 2845 478 
Q 3156 559 3463 722 
L 3463 178 
Q 3153 47 2828 -22 
Q 2503 -91 2169 -91 
Q 1331 -91 842 396 
Q 353 884 353 1716 
Q 353 2575 817 3079 
Q 1281 3584 2069 3584 
Q 2775 3584 3186 3129 
Q 3597 2675 3597 1894 
z
M 3022 2063 
Q 3016 2534 2758 2815 
Q 2500 3097 2075 3097 
Q 1594 3097 1305 2825 
Q 1016 2553 972 2059 
L 3022 2063 
z
" transform="scale(0.015625)"/>
       <path id="DejaVuSans-74" d="M 1172 4494 
L 1172 3500 
L 2356 3500 
L 2356 3053 
L 1172 3053 
L 1172 1153 
Q 1172 725 1289 603 
Q 1406 481 1766 481 
L 2356 481 
L 2356 0 
L 1766 0 
Q 1100 0 847 248 
Q 594 497 594 1153 
L 594 3053 
L 172 3053 
L 172 3500 
L 594 3500 
L 594 4494 
L 1172 4494 
z
" transform="scale(0.015625)"/>
      </defs>
      <use xlink:href="#DejaVuSans-73"/>
      <use xlink:href="#DejaVuSans-65" x="52.099609"/>
      <use xlink:href="#DejaVuSans-74" x="113.623047"/>
      <use xlink:href="#DejaVuSans-33" x="152.832031"/>
     </g>
    </g>
   </g>
  </g>
 </g>
 <defs>
  <clipPath id="pc9ff591227">
   <rect x="57.6" y="41.472" width="357.12" height="266.112"/>
  </clipPath>
 </defs>
</svg>
