<?xml version="1.0" encoding="utf-8" standalone="no"?>
<!DOCTYPE svg PUBLIC "-//W3C//DTD SVG 1.1//EN"
  "http://www.w3.org/Graphics/SVG/1.1/DTD/svg11.dtd">
<svg xmlns:xlink="http://www.w3.org/1999/xlink" width="460.8pt" height="345.6pt" viewBox="0 0 460.8 345.6" xmlns="http://www.w3.org/2000/svg" version="1.1">
 <metadata>
  <rdf:RDF xmlns:dc="http://purl.org/dc/elements/1.1/" xmlns:cc="http://creativecommons.org/ns#" xmlns:rdf="http://www.w3.org/1999/02/22-rdf-syntax-ns#">
   <cc:Work>
    <dc:type rdf:resource="http://purl.org/dc/dcmitype/StillImage"/>
    <dc:date>2022-08-11T15:17:11.438507</dc:date>
    <dc:format>image/svg+xml</dc:format>
    <dc:creator>
     <cc:Agent>
      <dc:title>Matplotlib v3.5.2, https://matplotlib.org/</dc:title>
     </cc:Agent>
    </dc:creator>
   </cc:Work>
  </rdf:RDF>
 </metadata>
 <defs>
  <style type="text/css">*{stroke-linejoin: round; stroke-linecap: butt}</style>
 </defs>
 <g id="figure_1">
  <g id="patch_1">
   <path d="M 0 345.6 
L 460.8 345.6 
L 460.8 0 
L 0 0 
z
" style="fill: #ffffff"/>
  </g>
  <g id="axes_1">
   <g id="patch_2">
    <path d="M 57.6 307.584 
L 414.72 307.584 
L 414.72 41.472 
L 57.6 41.472 
z
" style="fill: #ffffff"/>
   </g>
   <g id="matplotlib.axis_1">
    <g id="xtick_1">
     <g id="line2d_1">
      <defs>
       <path id="mf26d958651" d="M 0 0 
L 0 3.5 
" style="stroke: #000000; stroke-width: 0.8"/>
      </defs>
      <g>
       <use xlink:href="#mf26d958651" x="73.832727" y="307.584" style="stroke: #000000; stroke-width: 0.8"/>
      </g>
     </g>
     <g id="text_1">
      <!-- 0 -->
      <g transform="translate(70.651477 322.182437)scale(0.1 -0.1)">
       <defs>
        <path id="DejaVuSans-30" d="M 2034 4250 
Q 1547 4250 1301 3770 
Q 1056 3291 1056 2328 
Q 1056 1369 1301 889 
Q 1547 409 2034 409 
Q 2525 409 2770 889 
Q 3016 1369 3016 2328 
Q 3016 3291 2770 3770 
Q 2525 4250 2034 4250 
z
M 2034 4750 
Q 2819 4750 3233 4129 
Q 3647 3509 3647 2328 
Q 3647 1150 3233 529 
Q 2819 -91 2034 -91 
Q 1250 -91 836 529 
Q 422 1150 422 2328 
Q 422 3509 836 4129 
Q 1250 4750 2034 4750 
z
" transform="scale(0.015625)"/>
       </defs>
       <use xlink:href="#DejaVuSans-30"/>
      </g>
     </g>
    </g>
    <g id="xtick_2">
     <g id="line2d_2">
      <g>
       <use xlink:href="#mf26d958651" x="137.266597" y="307.584" style="stroke: #000000; stroke-width: 0.8"/>
      </g>
     </g>
     <g id="text_2">
      <!-- 500 -->
      <g transform="translate(127.722847 322.182437)scale(0.1 -0.1)">
       <defs>
        <path id="DejaVuSans-35" d="M 691 4666 
L 3169 4666 
L 3169 4134 
L 1269 4134 
L 1269 2991 
Q 1406 3038 1543 3061 
Q 1681 3084 1819 3084 
Q 2600 3084 3056 2656 
Q 3513 2228 3513 1497 
Q 3513 744 3044 326 
Q 2575 -91 1722 -91 
Q 1428 -91 1123 -41 
Q 819 9 494 109 
L 494 744 
Q 775 591 1075 516 
Q 1375 441 1709 441 
Q 2250 441 2565 725 
Q 2881 1009 2881 1497 
Q 2881 1984 2565 2268 
Q 2250 2553 1709 2553 
Q 1456 2553 1204 2497 
Q 953 2441 691 2322 
L 691 4666 
z
" transform="scale(0.015625)"/>
       </defs>
       <use xlink:href="#DejaVuSans-35"/>
       <use xlink:href="#DejaVuSans-30" x="63.623047"/>
       <use xlink:href="#DejaVuSans-30" x="127.246094"/>
      </g>
     </g>
    </g>
    <g id="xtick_3">
     <g id="line2d_3">
      <g>
       <use xlink:href="#mf26d958651" x="200.700467" y="307.584" style="stroke: #000000; stroke-width: 0.8"/>
      </g>
     </g>
     <g id="text_3">
      <!-- 1000 -->
      <g transform="translate(187.975467 322.182437)scale(0.1 -0.1)">
       <defs>
        <path id="DejaVuSans-31" d="M 794 531 
L 1825 531 
L 1825 4091 
L 703 3866 
L 703 4441 
L 1819 4666 
L 2450 4666 
L 2450 531 
L 3481 531 
L 3481 0 
L 794 0 
L 794 531 
z
" transform="scale(0.015625)"/>
       </defs>
       <use xlink:href="#DejaVuSans-31"/>
       <use xlink:href="#DejaVuSans-30" x="63.623047"/>
       <use xlink:href="#DejaVuSans-30" x="127.246094"/>
       <use xlink:href="#DejaVuSans-30" x="190.869141"/>
      </g>
     </g>
    </g>
    <g id="xtick_4">
     <g id="line2d_4">
      <g>
       <use xlink:href="#mf26d958651" x="264.134337" y="307.584" style="stroke: #000000; stroke-width: 0.8"/>
      </g>
     </g>
     <g id="text_4">
      <!-- 1500 -->
      <g transform="translate(251.409337 322.182437)scale(0.1 -0.1)">
       <use xlink:href="#DejaVuSans-31"/>
       <use xlink:href="#DejaVuSans-35" x="63.623047"/>
       <use xlink:href="#DejaVuSans-30" x="127.246094"/>
       <use xlink:href="#DejaVuSans-30" x="190.869141"/>
      </g>
     </g>
    </g>
    <g id="xtick_5">
     <g id="line2d_5">
      <g>
       <use xlink:href="#mf26d958651" x="327.568206" y="307.584" style="stroke: #000000; stroke-width: 0.8"/>
      </g>
     </g>
     <g id="text_5">
      <!-- 2000 -->
      <g transform="translate(314.843206 322.182437)scale(0.1 -0.1)">
       <defs>
        <path id="DejaVuSans-32" d="M 1228 531 
L 3431 531 
L 3431 0 
L 469 0 
L 469 531 
Q 828 903 1448 1529 
Q 2069 2156 2228 2338 
Q 2531 2678 2651 2914 
Q 2772 3150 2772 3378 
Q 2772 3750 2511 3984 
Q 2250 4219 1831 4219 
Q 1534 4219 1204 4116 
Q 875 4013 500 3803 
L 500 4441 
Q 881 4594 1212 4672 
Q 1544 4750 1819 4750 
Q 2544 4750 2975 4387 
Q 3406 4025 3406 3419 
Q 3406 3131 3298 2873 
Q 3191 2616 2906 2266 
Q 2828 2175 2409 1742 
Q 1991 1309 1228 531 
z
" transform="scale(0.015625)"/>
       </defs>
       <use xlink:href="#DejaVuSans-32"/>
       <use xlink:href="#DejaVuSans-30" x="63.623047"/>
       <use xlink:href="#DejaVuSans-30" x="127.246094"/>
       <use xlink:href="#DejaVuSans-30" x="190.869141"/>
      </g>
     </g>
    </g>
    <g id="xtick_6">
     <g id="line2d_6">
      <g>
       <use xlink:href="#mf26d958651" x="391.002076" y="307.584" style="stroke: #000000; stroke-width: 0.8"/>
      </g>
     </g>
     <g id="text_6">
      <!-- 2500 -->
      <g transform="translate(378.277076 322.182437)scale(0.1 -0.1)">
       <use xlink:href="#DejaVuSans-32"/>
       <use xlink:href="#DejaVuSans-35" x="63.623047"/>
       <use xlink:href="#DejaVuSans-30" x="127.246094"/>
       <use xlink:href="#DejaVuSans-30" x="190.869141"/>
      </g>
     </g>
    </g>
   </g>
   <g id="matplotlib.axis_2">
    <g id="ytick_1">
     <g id="line2d_7">
      <defs>
       <path id="ma1e5e68c7a" d="M 0 0 
L -3.5 0 
" style="stroke: #000000; stroke-width: 0.8"/>
      </defs>
      <g>
       <use xlink:href="#ma1e5e68c7a" x="57.6" y="282.843974" style="stroke: #000000; stroke-width: 0.8"/>
      </g>
     </g>
     <g id="text_7">
      <!-- 4050 -->
      <g transform="translate(25.15 286.643193)scale(0.1 -0.1)">
       <defs>
        <path id="DejaVuSans-34" d="M 2419 4116 
L 825 1625 
L 2419 1625 
L 2419 4116 
z
M 2253 4666 
L 3047 4666 
L 3047 1625 
L 3713 1625 
L 3713 1100 
L 3047 1100 
L 3047 0 
L 2419 0 
L 2419 1100 
L 313 1100 
L 313 1709 
L 2253 4666 
z
" transform="scale(0.015625)"/>
       </defs>
       <use xlink:href="#DejaVuSans-34"/>
       <use xlink:href="#DejaVuSans-30" x="63.623047"/>
       <use xlink:href="#DejaVuSans-35" x="127.246094"/>
       <use xlink:href="#DejaVuSans-30" x="190.869141"/>
      </g>
     </g>
    </g>
    <g id="ytick_2">
     <g id="line2d_8">
      <g>
       <use xlink:href="#ma1e5e68c7a" x="57.6" y="249.969829" style="stroke: #000000; stroke-width: 0.8"/>
      </g>
     </g>
     <g id="text_8">
      <!-- 4075 -->
      <g transform="translate(25.15 253.769048)scale(0.1 -0.1)">
       <defs>
        <path id="DejaVuSans-37" d="M 525 4666 
L 3525 4666 
L 3525 4397 
L 1831 0 
L 1172 0 
L 2766 4134 
L 525 4134 
L 525 4666 
z
" transform="scale(0.015625)"/>
       </defs>
       <use xlink:href="#DejaVuSans-34"/>
       <use xlink:href="#DejaVuSans-30" x="63.623047"/>
       <use xlink:href="#DejaVuSans-37" x="127.246094"/>
       <use xlink:href="#DejaVuSans-35" x="190.869141"/>
      </g>
     </g>
    </g>
    <g id="ytick_3">
     <g id="line2d_9">
      <g>
       <use xlink:href="#ma1e5e68c7a" x="57.6" y="217.095684" style="stroke: #000000; stroke-width: 0.8"/>
      </g>
     </g>
     <g id="text_9">
      <!-- 4100 -->
      <g transform="translate(25.15 220.894903)scale(0.1 -0.1)">
       <use xlink:href="#DejaVuSans-34"/>
       <use xlink:href="#DejaVuSans-31" x="63.623047"/>
       <use xlink:href="#DejaVuSans-30" x="127.246094"/>
       <use xlink:href="#DejaVuSans-30" x="190.869141"/>
      </g>
     </g>
    </g>
    <g id="ytick_4">
     <g id="line2d_10">
      <g>
       <use xlink:href="#ma1e5e68c7a" x="57.6" y="184.221539" style="stroke: #000000; stroke-width: 0.8"/>
      </g>
     </g>
     <g id="text_10">
      <!-- 4125 -->
      <g transform="translate(25.15 188.020757)scale(0.1 -0.1)">
       <use xlink:href="#DejaVuSans-34"/>
       <use xlink:href="#DejaVuSans-31" x="63.623047"/>
       <use xlink:href="#DejaVuSans-32" x="127.246094"/>
       <use xlink:href="#DejaVuSans-35" x="190.869141"/>
      </g>
     </g>
    </g>
    <g id="ytick_5">
     <g id="line2d_11">
      <g>
       <use xlink:href="#ma1e5e68c7a" x="57.6" y="151.347394" style="stroke: #000000; stroke-width: 0.8"/>
      </g>
     </g>
     <g id="text_11">
      <!-- 4150 -->
      <g transform="translate(25.15 155.146612)scale(0.1 -0.1)">
       <use xlink:href="#DejaVuSans-34"/>
       <use xlink:href="#DejaVuSans-31" x="63.623047"/>
       <use xlink:href="#DejaVuSans-35" x="127.246094"/>
       <use xlink:href="#DejaVuSans-30" x="190.869141"/>
      </g>
     </g>
    </g>
    <g id="ytick_6">
     <g id="line2d_12">
      <g>
       <use xlink:href="#ma1e5e68c7a" x="57.6" y="118.473249" style="stroke: #000000; stroke-width: 0.8"/>
      </g>
     </g>
     <g id="text_12">
      <!-- 4175 -->
      <g transform="translate(25.15 122.272467)scale(0.1 -0.1)">
       <use xlink:href="#DejaVuSans-34"/>
       <use xlink:href="#DejaVuSans-31" x="63.623047"/>
       <use xlink:href="#DejaVuSans-37" x="127.246094"/>
       <use xlink:href="#DejaVuSans-35" x="190.869141"/>
      </g>
     </g>
    </g>
    <g id="ytick_7">
     <g id="line2d_13">
      <g>
       <use xlink:href="#ma1e5e68c7a" x="57.6" y="85.599103" style="stroke: #000000; stroke-width: 0.8"/>
      </g>
     </g>
     <g id="text_13">
      <!-- 4200 -->
      <g transform="translate(25.15 89.398322)scale(0.1 -0.1)">
       <use xlink:href="#DejaVuSans-34"/>
       <use xlink:href="#DejaVuSans-32" x="63.623047"/>
       <use xlink:href="#DejaVuSans-30" x="127.246094"/>
       <use xlink:href="#DejaVuSans-30" x="190.869141"/>
      </g>
     </g>
    </g>
    <g id="ytick_8">
     <g id="line2d_14">
      <g>
       <use xlink:href="#ma1e5e68c7a" x="57.6" y="52.724958" style="stroke: #000000; stroke-width: 0.8"/>
      </g>
     </g>
     <g id="text_14">
      <!-- 4225 -->
      <g transform="translate(25.15 56.524177)scale(0.1 -0.1)">
       <use xlink:href="#DejaVuSans-34"/>
       <use xlink:href="#DejaVuSans-32" x="63.623047"/>
       <use xlink:href="#DejaVuSans-32" x="127.246094"/>
       <use xlink:href="#DejaVuSans-35" x="190.869141"/>
      </g>
     </g>
    </g>
   </g>
   <g id="line2d_15">
    <path d="M 73.832727 169.722885 
L 74.593934 170.734792 
L 74.847669 166.520224 
L 74.974537 163.65401 
L 75.228272 168.880485 
L 75.35514 162.642745 
L 75.482008 149.830174 
L 75.608876 149.998398 
L 75.735743 163.65401 
L 75.862611 165.003006 
L 75.989479 159.102353 
L 76.370082 171.577835 
L 76.49695 171.240746 
L 76.750685 161.968567 
L 76.877553 166.183136 
L 77.004421 165.003006 
L 77.131289 166.351359 
L 77.258156 179.163929 
L 77.385024 178.82684 
L 77.638759 160.619573 
L 77.765627 161.799702 
L 77.892495 164.328186 
L 78.14623 181.693054 
L 78.526834 146.96396 
L 78.780569 163.991097 
L 79.034305 142.075215 
L 79.28804 171.914922 
L 79.541776 164.497052 
L 79.668643 166.183136 
L 79.795511 166.351359 
L 79.922379 157.248046 
L 80.049247 158.428177 
L 80.176114 171.914922 
L 80.42985 143.761299 
L 80.683585 170.565927 
L 80.810453 164.328186 
L 81.064188 169.554661 
L 81.191056 160.113618 
L 81.444792 186.244711 
L 81.698527 155.393738 
L 81.825395 167.363265 
L 81.952263 192.650675 
L 82.205998 183.715585 
L 82.332866 187.593065 
L 82.459734 187.76193 
L 82.713469 194.504982 
L 82.967205 181.524189 
L 83.22094 189.110283 
L 83.347808 186.918889 
L 83.601543 196.191066 
L 83.855279 182.872543 
L 84.109014 193.662582 
L 84.235882 189.110283 
L 84.36275 175.960625 
L 84.489617 176.466579 
L 84.616485 188.773195 
L 84.743353 189.447372 
L 84.870221 186.750023 
L 84.997088 191.302322 
L 85.250824 185.738758 
L 85.377692 188.099018 
L 85.758295 157.079181 
L 85.885163 157.079181 
L 86.01203 164.497052 
L 86.138898 163.65401 
L 86.265766 145.952695 
L 86.392633 146.96396 
L 86.519501 169.89175 
L 86.646369 162.473879 
L 86.773237 139.714955 
L 87.026972 146.626871 
L 87.15384 130.273911 
L 87.280708 132.128861 
L 87.407575 146.96396 
L 87.534443 146.795737 
L 87.788179 154.381831 
L 88.041914 139.714955 
L 88.168782 145.78383 
L 88.422517 162.979832 
L 88.676253 145.109653 
L 88.929988 152.864613 
L 89.056856 162.810967 
L 89.183724 163.485786 
L 89.310591 148.144091 
L 89.564327 159.439442 
L 89.691195 149.998398 
L 89.94493 166.520224 
L 90.071798 193.493718 
L 90.198666 185.907623 
L 90.325533 185.570534 
L 90.452401 187.76193 
L 90.579269 182.367232 
L 90.706137 181.861278 
L 90.833004 188.942061 
L 91.08674 170.734792 
L 91.340475 193.324852 
L 91.594211 182.704319 
L 91.721079 187.76193 
L 91.847946 186.412934 
L 91.974814 183.547362 
L 92.22855 187.255976 
L 92.482285 180.850012 
L 92.609153 193.156629 
L 92.73602 193.324852 
L 92.862888 180.34406 
L 92.989756 179.501017 
L 93.116624 189.785102 
L 93.370359 185.570534 
L 93.497227 194.673847 
L 93.624095 195.179801 
L 93.750962 182.872543 
L 93.87783 182.872543 
L 94.004698 187.424841 
L 94.258433 166.688447 
L 94.512169 181.693054 
L 94.639037 180.175194 
L 94.892772 190.459279 
L 95.146508 185.401669 
L 95.273375 186.244711 
L 95.400243 188.267883 
L 95.527111 185.06458 
L 95.653978 185.570534 
L 95.780846 195.348025 
L 95.907714 194.842712 
L 96.034582 192.650675 
L 96.161449 195.179801 
L 96.415185 191.133457 
L 96.542053 192.650675 
L 96.795788 182.704319 
L 97.049524 192.650675 
L 97.176391 186.075846 
L 97.303259 190.627502 
L 97.556995 209.171859 
L 97.81073 199.394369 
L 98.064466 200.911588 
L 98.191333 163.991097 
L 98.318201 164.665917 
L 98.445069 170.060615 
L 98.698804 152.02157 
L 98.95254 168.374531 
L 99.079407 167.194402 
L 99.206275 164.328186 
L 99.333143 158.259311 
L 99.460011 145.446741 
L 99.586878 144.772565 
L 99.840614 169.217574 
L 100.094349 147.807002 
L 100.348085 167.025536 
L 100.474953 157.248046 
L 100.60182 161.630836 
L 100.728688 160.282484 
L 100.855556 149.661309 
L 100.982424 158.596399 
L 101.109291 159.608307 
L 101.236159 147.975867 
L 101.489894 157.079181 
L 101.74363 144.435476 
L 101.870498 146.12156 
L 101.997365 144.603699 
L 102.251101 165.508317 
L 102.504836 146.12156 
L 102.631704 148.144091 
L 102.758572 155.561962 
L 102.88544 154.887785 
L 103.012307 152.696389 
L 103.266043 169.722885 
L 103.646646 161.630836 
L 103.773514 159.945395 
L 104.027249 170.565927 
L 104.280985 161.799702 
L 104.407852 163.316921 
L 104.53472 163.148056 
L 104.661588 163.316921 
L 104.788456 169.048708 
L 104.915323 169.048708 
L 105.042191 168.880485 
L 105.295927 193.324852 
L 105.549662 165.677182 
L 105.803398 171.240746 
L 105.930265 165.846047 
L 106.057133 168.543396 
L 106.310869 188.267883 
L 106.437736 187.087753 
L 106.564604 180.512924 
L 106.691472 182.030143 
L 106.81834 182.198366 
L 106.945207 182.030143 
L 107.198943 190.459279 
L 107.452678 183.378497 
L 107.579546 185.401669 
L 107.706414 183.378497 
L 107.833281 184.221539 
L 107.960149 188.773195 
L 108.213885 183.547362 
L 108.46762 191.639409 
L 108.594488 187.424841 
L 108.721356 190.122191 
L 108.848223 189.616237 
L 108.975091 185.738758 
L 109.101959 186.750023 
L 109.228827 184.727493 
L 109.355694 187.087753 
L 109.482562 193.99967 
L 109.736298 162.136791 
L 109.863165 163.316921 
L 110.116901 182.198366 
L 110.370636 161.630836 
L 110.497504 161.125525 
L 110.624372 165.003006 
L 110.751239 165.003006 
L 110.878107 166.351359 
L 111.131843 172.083146 
L 111.25871 167.868578 
L 111.385578 167.700354 
L 111.512446 169.217574 
L 111.766181 175.455314 
L 111.893049 168.543396 
L 112.019917 172.083146 
L 112.146785 180.175194 
L 112.40052 161.125525 
L 112.654256 181.018236 
L 112.781123 169.89175 
L 112.907991 171.914922 
L 113.034859 181.524189 
L 113.161727 182.030143 
L 113.415462 168.543396 
L 113.54233 168.374531 
L 113.669197 166.351359 
L 113.796065 167.194402 
L 113.922933 165.677182 
L 114.049801 161.630836 
L 114.176668 171.577835 
L 114.303536 170.638481 
L 114.430404 158.861575 
L 115.19161 162.473879 
L 115.445346 159.102353 
L 115.699081 138.871912 
L 115.825949 145.109653 
L 115.952817 138.534824 
L 116.079685 122.856682 
L 116.206552 124.879212 
L 116.33342 131.791772 
L 116.460288 122.01364 
L 116.587155 122.350728 
L 116.840891 148.312956 
L 116.967759 145.446741 
L 117.221494 129.936822 
L 117.348362 134.320256 
L 117.47523 144.26661 
L 117.728965 131.622907 
L 117.855833 145.952695 
L 117.982701 144.603699 
L 118.236436 123.699082 
L 118.617039 148.818909 
L 118.743907 147.301049 
L 119.12451 124.542123 
L 119.251378 123.530858 
L 119.378246 118.979203 
L 119.505114 118.810337 
L 119.631981 125.048078 
L 119.758849 124.205036 
L 119.885717 131.791772 
L 120.012584 146.96396 
L 120.26632 123.361993 
L 120.520055 150.167263 
L 120.646923 134.48912 
L 120.773791 132.803037 
L 120.900659 140.052042 
L 121.154394 126.059343 
L 121.40813 149.998398 
L 121.534997 148.818909 
L 121.661865 151.684482 
L 121.915601 139.040777 
L 122.169336 151.516259 
L 122.423072 139.88382 
L 122.676807 145.615606 
L 122.803675 135.837475 
L 122.930542 138.871912 
L 123.05741 148.144091 
L 123.184278 144.772565 
L 123.311146 137.017605 
L 123.564881 145.109653 
L 123.818617 136.680516 
L 124.072352 147.132826 
L 124.19922 145.78383 
L 124.579823 124.542123 
L 124.706691 131.454041 
L 124.833559 129.599734 
L 124.960426 122.181862 
L 125.087294 122.687816 
L 125.214162 124.373901 
L 125.34103 122.181862 
L 125.594765 124.879212 
L 125.8485 106.166632 
L 125.975368 109.032204 
L 126.102236 104.986502 
L 126.229104 89.476583 
L 126.355971 95.040146 
L 126.482839 108.358028 
L 126.863442 77.33819 
L 127.117178 96.051412 
L 127.244046 96.557366 
L 127.370913 91.162667 
L 127.497781 92.342798 
L 127.624649 91.330891 
L 127.751517 84.924927 
L 127.878384 85.430238 
L 128.005252 85.430238 
L 128.13212 89.645448 
L 128.385855 105.154725 
L 128.512723 102.289153 
L 128.639591 104.986502 
L 128.766458 103.974595 
L 128.893326 98.748761 
L 129.147062 111.898419 
L 129.400797 100.771934 
L 129.527665 103.132195 
L 129.654533 112.404374 
L 129.7814 112.909685 
L 129.908268 109.20107 
L 130.035136 110.212335 
L 130.162004 106.166632 
L 130.288871 107.009675 
L 130.415739 120.83351 
L 130.542607 117.293118 
L 130.796342 211.700985 
L 130.92321 206.643376 
L 131.050078 186.918889 
L 131.176946 184.895715 
L 131.303813 192.145363 
L 131.430681 189.953326 
L 131.557549 184.390404 
L 131.811284 205.295022 
L 131.938152 202.765895 
L 132.191887 184.895715 
L 132.445623 208.666548 
L 132.699358 182.704319 
L 132.826226 191.470544 
L 132.953094 208.497683 
L 133.206829 206.137421 
L 133.460565 223.164881 
L 133.7143 200.911588 
L 133.841168 207.486417 
L 133.968036 219.961898 
L 134.094904 215.746688 
L 134.221771 205.295022 
L 134.348639 205.800333 
L 134.475507 209.509589 
L 134.602375 206.980463 
L 134.85611 209.171859 
L 134.982978 206.306287 
L 135.236713 213.892381 
L 135.363581 213.218205 
L 135.617316 224.682099 
L 135.744184 225.693685 
L 135.99792 228.391035 
L 136.124787 226.873495 
L 136.505391 234.122821 
L 136.632258 233.448324 
L 136.885994 219.624168 
L 137.139729 238.843343 
L 137.393465 226.199318 
L 137.520333 228.391035 
L 137.6472 227.379449 
L 137.774068 227.547992 
L 138.027803 251.824136 
L 138.154671 251.655591 
L 138.408407 234.965864 
L 138.662142 250.306918 
L 138.78901 139.040777 
L 138.915878 140.895085 
L 139.042745 141.063949 
L 139.296481 116.787164 
L 139.550216 141.906349 
L 139.677084 136.343429 
L 139.803952 122.181862 
L 139.93082 120.496421 
L 140.057687 123.699082 
L 140.184555 123.361993 
L 140.311423 124.710989 
L 140.438291 123.699082 
L 140.565158 121.339462 
L 140.692026 121.170598 
L 140.945761 118.810337 
L 141.072629 119.147425 
L 141.199497 124.879212 
L 141.326365 121.339462 
L 141.453232 113.415639 
L 141.706968 132.634172 
L 142.341307 105.32359 
L 142.468174 105.997767 
L 142.595042 104.986502 
L 142.72191 108.526893 
L 142.848778 118.979203 
L 142.975645 120.159333 
L 143.229381 102.289153 
L 143.356249 111.392465 
L 143.609984 100.097757 
L 143.863719 128.419604 
L 144.117455 104.480549 
L 144.244323 109.369935 
L 144.37119 108.358028 
L 144.498058 108.358028 
L 144.624926 116.956029 
L 144.751794 114.258681 
L 144.878661 102.120288 
L 145.005529 101.446111 
L 145.132397 103.132195 
L 145.259265 102.289153 
L 145.386132 109.369935 
L 145.639868 101.614975 
L 145.893603 122.181862 
L 146.147339 98.411673 
L 146.401074 109.032204 
L 146.65481 99.422938 
L 146.781678 108.189804 
L 146.908545 180.850012 
L 147.035413 183.88445 
L 147.162281 163.316921 
L 147.289148 168.880485 
L 147.416016 184.390404 
L 147.542884 174.94936 
L 147.669752 178.995705 
L 147.796619 194.336759 
L 148.050355 179.669882 
L 148.177223 188.773195 
L 148.30409 186.412934 
L 148.430958 181.524189 
L 148.684694 193.662582 
L 148.938429 183.715585 
L 149.192165 197.034108 
L 149.4459 186.5818 
L 149.572768 187.593065 
L 149.699636 188.267883 
L 149.826503 184.558628 
L 149.953371 184.558628 
L 150.080239 188.436107 
L 150.207106 180.681147 
L 150.460842 159.608307 
L 150.58771 173.095053 
L 150.841445 159.608307 
L 151.095181 184.052673 
L 151.348916 159.77653 
L 151.602652 183.041408 
L 151.856387 178.489751 
L 151.983255 181.524189 
L 152.110123 187.76193 
L 152.363858 180.006971 
L 152.871329 166.014271 
L 152.998197 172.5891 
L 153.125064 188.773195 
L 153.251932 186.244711 
L 153.505668 162.979832 
L 153.759403 180.850012 
L 154.393742 154.381831 
L 154.52061 166.520224 
L 154.647477 189.785102 
L 155.028081 166.568379 
L 155.789287 169.89175 
L 155.916155 168.543396 
L 156.16989 146.626871 
L 156.423626 151.178528 
L 156.677361 147.807002 
L 156.931097 150.673217 
L 157.057964 150.167263 
L 157.184832 154.213607 
L 157.438568 168.543396 
L 157.565435 171.071881 
L 157.692303 168.880485 
L 157.946039 159.102353 
L 158.072906 163.65401 
L 158.199774 162.473879 
L 158.326642 157.416268 
L 158.580377 169.217574 
L 158.707245 167.194402 
L 158.834113 158.259311 
L 158.96098 157.753357 
L 159.214716 167.531489 
L 159.468451 167.868578 
L 159.722187 142.24408 
L 159.849055 145.446741 
L 159.975922 153.033478 
L 160.229658 137.354694 
L 160.483393 166.014271 
L 160.737129 159.945395 
L 160.863997 168.71162 
L 160.990864 160.95666 
L 161.117732 146.289784 
L 161.371468 173.769231 
L 161.625203 147.807002 
L 161.878939 170.734792 
L 162.005806 166.688447 
L 162.132674 166.520224 
L 162.386409 163.148056 
L 162.513277 171.408969 
L 162.640145 172.252011 
L 162.89388 163.65401 
L 163.020748 166.014271 
L 163.147616 191.976498 
L 163.401351 183.88445 
L 163.655087 182.030143 
L 163.908822 184.727493 
L 164.03569 184.052673 
L 164.162558 180.850012 
L 164.289426 181.187101 
L 164.416293 184.221539 
L 164.543161 182.198366 
L 164.670029 184.052673 
L 164.796897 193.156629 
L 164.923764 187.76193 
L 165.050632 172.5891 
L 165.304367 186.5818 
L 165.558103 163.991097 
L 165.811838 172.757965 
L 166.065574 170.228839 
L 166.192442 170.397704 
L 166.319309 171.071881 
L 166.573045 161.125525 
L 166.699913 165.846047 
L 166.82678 162.642745 
L 167.080516 141.906349 
L 167.334251 164.159963 
L 167.587987 153.875878 
L 167.714855 162.136791 
L 167.96859 151.010305 
L 168.222325 163.65401 
L 168.349193 159.102353 
L 168.602929 162.979832 
L 168.729796 162.642745 
L 168.856664 171.240746 
L 168.983532 171.408969 
L 169.237267 159.271218 
L 169.491003 165.508317 
L 169.617871 169.554661 
L 169.871606 161.968567 
L 170.125342 164.83414 
L 170.379077 164.159963 
L 170.632813 166.351359 
L 170.886548 161.799702 
L 171.013416 167.025536 
L 171.140283 163.65401 
L 171.267151 204.45198 
L 171.774622 181.187101 
L 171.90149 186.244711 
L 172.028358 181.018236 
L 172.155225 169.89175 
L 172.282093 173.769231 
L 172.408961 181.187101 
L 172.535829 181.861278 
L 172.789564 191.639409 
L 173.0433 184.052673 
L 173.423903 188.604972 
L 173.550771 183.715585 
L 173.677638 183.378497 
L 173.804506 192.81954 
L 173.931374 191.639409 
L 174.058242 178.82684 
L 174.185109 180.175194 
L 174.311977 192.81954 
L 174.438845 192.81954 
L 174.565712 187.087753 
L 174.69258 191.639409 
L 174.946316 205.63211 
L 175.073183 201.248676 
L 175.326919 188.436107 
L 175.453787 190.290414 
L 175.707522 185.06458 
L 175.83439 190.627502 
L 175.961258 190.796368 
L 176.088125 189.616237 
L 176.341861 206.643376 
L 176.468729 204.620202 
L 176.595596 198.551327 
L 176.849332 204.45198 
L 176.9762 201.585765 
L 177.229935 207.317552 
L 177.356803 206.137421 
L 177.610538 207.99237 
L 177.864274 198.720193 
L 177.991141 198.720193 
L 178.244877 202.59703 
L 178.371745 200.237411 
L 178.498612 203.440072 
L 178.62548 210.014901 
L 178.752348 208.497683 
L 178.879216 205.63211 
L 179.006083 207.149328 
L 179.132951 207.149328 
L 179.259819 205.63211 
L 179.386687 149.998398 
L 179.513554 151.684482 
L 179.76729 145.109653 
L 180.274761 150.504352 
L 180.401628 150.167263 
L 180.782232 142.075215 
L 180.909099 143.592434 
L 181.035967 146.458649 
L 181.162835 146.12156 
L 181.289703 145.446741 
L 181.543438 150.673217 
L 181.670306 149.830174 
L 181.797174 150.673217 
L 182.050909 145.78383 
L 182.177777 149.324221 
L 182.304645 149.661309 
L 182.55838 145.446741 
L 182.812116 146.795737 
L 182.938983 146.458649 
L 183.192719 142.412304 
L 183.446454 148.312956 
L 183.573322 147.807002 
L 183.70019 148.818909 
L 183.827057 148.818909 
L 183.953925 149.324221 
L 184.080793 148.144091 
L 184.207661 145.446741 
L 184.334528 149.998398 
L 184.588264 165.171228 
L 184.841999 156.910957 
L 185.095735 169.385796 
L 185.222603 168.543396 
L 185.603206 153.707655 
L 185.730074 147.638778 
L 185.856941 148.650044 
L 186.49128 188.099018 
L 186.618148 178.657975 
L 186.745015 158.091088 
L 186.998751 168.205665 
L 187.252486 157.248046 
L 187.506222 170.565927 
L 187.759957 161.799702 
L 187.886825 169.048708 
L 188.013693 168.880485 
L 188.140561 165.677182 
L 188.394296 170.903015 
L 188.521164 169.217574 
L 188.648032 169.385796 
L 189.028635 187.76193 
L 189.155503 183.715585 
L 189.28237 168.037443 
L 189.409238 166.520224 
L 189.662973 195.179801 
L 189.916709 178.152664 
L 190.043577 177.309621 
L 190.170444 175.118225 
L 190.297312 170.060615 
L 190.42418 171.071881 
L 190.677915 191.807633 
L 191.058519 162.810967 
L 191.312254 189.279148 
L 191.439122 182.367232 
L 191.56599 168.543396 
L 191.692857 167.868578 
L 191.819725 168.71162 
L 191.946593 171.071881 
L 192.200328 192.145363 
L 192.454064 180.006971 
L 192.834667 188.436107 
L 192.961535 189.279148 
L 193.088402 191.133457 
L 193.21527 187.593065 
L 193.342138 180.681147 
L 193.469006 181.355323 
L 193.722741 186.918889 
L 193.849609 184.390404 
L 194.103344 186.412934 
L 194.230212 181.018236 
L 194.35708 183.210273 
L 194.483948 182.535454 
L 194.737683 158.428177 
L 194.991419 172.5891 
L 195.245154 167.363265 
L 195.372022 167.868578 
L 195.498889 167.121847 
L 195.625757 159.680219 
L 196.386964 155.056007 
L 196.640699 170.228839 
L 196.894435 163.316921 
L 197.021302 167.194402 
L 197.14817 163.485786 
L 197.401906 141.569262 
L 197.655641 171.577835 
L 197.782509 157.416268 
L 197.909377 164.159963 
L 198.036244 178.82684 
L 198.163112 173.095053 
L 198.416847 146.795737 
L 198.670583 169.722885 
L 198.797451 152.864613 
L 198.924318 163.991097 
L 199.051186 186.5818 
L 199.304922 141.569262 
L 199.431789 144.26661 
L 199.812393 170.734792 
L 199.93926 167.700354 
L 200.066128 167.363265 
L 200.192996 172.420876 
L 200.446731 137.860647 
L 200.573599 144.435476 
L 200.700467 142.918258 
L 200.827335 149.155998 
L 201.08107 166.520224 
L 201.207938 166.857313 
L 201.334805 168.374531 
L 201.588541 139.546731 
L 201.842276 186.918889 
L 201.969144 174.780494 
L 202.096012 143.761299 
L 202.22288 140.557997 
L 202.476615 168.037443 
L 202.603483 159.608307 
L 202.857218 174.612272 
L 203.110954 160.282484 
L 203.237822 174.443407 
L 203.364689 168.71162 
L 203.491557 149.998398 
L 203.745293 177.140756 
L 203.87216 159.271218 
L 203.999028 161.968567 
L 204.125896 180.681147 
L 204.252764 178.657975 
L 204.379631 169.217574 
L 204.633367 184.052673 
L 204.887102 160.282484 
L 205.01397 183.715585 
L 205.140838 181.355323 
L 205.267705 165.677182 
L 205.521441 180.34406 
L 205.648309 162.473879 
L 205.775176 162.810967 
L 205.902044 172.420876 
L 206.028912 165.340093 
L 206.15578 166.857313 
L 206.282647 164.328186 
L 206.409515 164.328186 
L 206.536383 182.872543 
L 206.663251 180.34406 
L 206.790118 158.933488 
L 206.916986 159.77653 
L 207.043854 168.374531 
L 207.424457 163.485786 
L 207.551325 166.520224 
L 207.678192 165.171228 
L 207.931928 139.209001 
L 208.185663 152.527524 
L 208.312531 147.469914 
L 208.439399 149.998398 
L 208.566267 156.910957 
L 208.693134 152.527524 
L 208.820002 143.08648 
L 209.073738 167.363265 
L 209.327473 140.72622 
L 209.581209 157.079181 
L 209.708076 158.596399 
L 209.834944 156.742092 
L 209.961812 146.289784 
L 210.08868 153.707655 
L 210.215547 168.71162 
L 210.342415 168.71162 
L 210.723018 154.044743 
L 210.849886 152.864613 
L 210.976754 148.818909 
L 211.103621 153.033478 
L 211.230489 162.979832 
L 211.357357 157.248046 
L 211.484225 157.416268 
L 211.611092 172.420876 
L 211.73796 167.700354 
L 211.991696 181.693054 
L 212.118563 184.727493 
L 212.372299 168.543396 
L 212.499167 171.071881 
L 212.752902 150.673217 
L 213.006638 189.447372 
L 213.133505 183.378497 
L 213.260373 168.543396 
L 213.387241 173.263276 
L 213.514108 186.5818 
L 213.640976 180.850012 
L 213.894712 162.473879 
L 214.021579 167.700354 
L 214.275315 183.88445 
L 214.402183 183.210273 
L 214.655918 192.313587 
L 214.909654 166.857313 
L 215.036521 167.531489 
L 215.417125 185.738758 
L 215.543992 181.524189 
L 215.67086 189.110283 
L 215.797728 188.773195 
L 216.051463 161.125525 
L 216.305199 181.861278 
L 216.558934 168.037443 
L 216.81267 194.673847 
L 217.066405 166.183136 
L 217.320141 195.010936 
L 217.573876 179.501017 
L 217.700744 181.693054 
L 217.954479 191.976498 
L 218.081347 182.535454 
L 218.335083 188.267883 
L 218.46195 171.577835 
L 218.588818 179.838105 
L 218.715686 206.306287 
L 218.969421 177.815575 
L 219.223157 193.156629 
L 219.350025 179.838105 
L 219.476892 179.838105 
L 219.60376 184.895715 
L 219.730628 183.88445 
L 219.857495 185.570534 
L 219.984363 163.485786 
L 220.111231 166.014271 
L 220.238099 188.436107 
L 220.364966 186.918889 
L 220.491834 153.370566 
L 220.618702 153.201701 
L 220.74557 178.657975 
L 220.872437 181.018236 
L 221.253041 166.688447 
L 221.379908 165.003006 
L 221.506776 170.565927 
L 221.633644 168.71162 
L 221.760512 169.217574 
L 221.887379 172.757965 
L 222.141115 163.65401 
L 222.39485 183.210273 
L 222.648586 156.573227 
L 222.902321 186.244711 
L 223.029189 181.355323 
L 223.156057 164.83414 
L 223.282924 163.148056 
L 223.53666 181.524189 
L 223.790395 156.067916 
L 224.044131 171.071881 
L 224.170999 169.722885 
L 224.297866 167.700354 
L 224.424734 169.048708 
L 224.551602 167.025536 
L 224.805337 174.275183 
L 224.932205 166.688447 
L 225.185941 194.336759 
L 225.439676 158.428177 
L 225.693411 184.727493 
L 225.820279 184.221539 
L 225.947147 186.5818 
L 226.200882 167.025536 
L 226.454618 176.972533 
L 226.581486 175.792403 
L 226.835221 191.807633 
L 227.088957 210.183766 
L 227.342692 161.125525 
L 227.596428 195.853977 
L 227.723295 185.907623 
L 227.850163 186.412934 
L 227.977031 196.191066 
L 228.230766 164.328186 
L 228.357634 164.159963 
L 228.484502 164.328186 
L 228.738237 175.960625 
L 228.865105 165.003006 
L 228.991973 168.71162 
L 229.11884 179.163929 
L 229.372576 162.810967 
L 229.499444 181.018236 
L 229.626311 182.198366 
L 229.880047 162.473879 
L 230.26065 188.267883 
L 230.514386 158.259311 
L 230.768121 188.942061 
L 230.894989 182.030143 
L 231.021857 166.520224 
L 231.148724 164.83414 
L 231.275592 171.914922 
L 231.40246 168.205665 
L 231.529328 156.742092 
L 231.656195 158.933488 
L 231.909931 181.355323 
L 232.163666 158.933488 
L 232.290534 172.252011 
L 232.544269 159.77653 
L 232.798005 190.122191 
L 233.05174 157.248046 
L 233.178608 173.938095 
L 233.305476 173.938095 
L 233.432344 179.501017 
L 233.559211 196.022201 
L 233.686079 184.558628 
L 233.812947 160.450707 
L 233.939815 160.619573 
L 234.066682 169.385796 
L 234.19355 169.722885 
L 234.447286 176.803668 
L 234.701021 168.205665 
L 234.827889 169.217574 
L 234.954756 167.025536 
L 235.208492 172.420876 
L 235.33536 167.194402 
L 235.462227 167.025536 
L 235.715963 155.89905 
L 235.969698 179.163929 
L 236.096566 178.128265 
L 236.223434 129.936822 
L 236.98464 144.098388 
L 237.238376 128.25138 
L 237.365244 142.24408 
L 237.618979 123.361993 
L 237.872714 139.714955 
L 237.999582 128.419604 
L 238.12645 132.634172 
L 238.253318 131.959995 
L 238.380185 115.269946 
L 238.507053 121.676551 
L 238.760789 153.538789 
L 239.014524 123.530858 
L 239.141392 131.116952 
L 239.26826 127.576562 
L 239.395127 116.112987 
L 239.648863 141.401038 
L 239.775731 135.33152 
L 239.902598 136.680516 
L 240.029466 136.00634 
L 240.156334 121.676551 
L 240.283202 125.554032 
L 240.410069 137.18647 
L 240.536937 138.366601 
L 240.663805 142.581169 
L 240.790672 136.174563 
L 240.91754 118.642114 
L 241.044408 121.001733 
L 241.171276 127.239473 
L 241.298143 124.373901 
L 241.425011 126.059343 
L 241.932482 144.26661 
L 242.186218 127.576562 
L 242.313085 132.465948 
L 242.439953 147.469914 
L 242.566821 147.807002 
L 242.693689 133.308991 
L 242.820556 132.634172 
L 242.947424 135.33152 
L 243.074292 131.791772 
L 243.20116 137.523559 
L 243.328027 150.673217 
L 243.454895 148.144091 
L 243.581763 142.075215 
L 243.835498 151.853348 
L 244.089234 145.78383 
L 244.216101 143.929523 
L 244.342969 187.424841 
L 244.469837 189.447372 
L 244.596705 188.267883 
L 244.723572 182.030143 
L 244.85044 183.210273 
L 244.977308 189.279148 
L 245.231043 181.018236 
L 245.357911 184.558628 
L 245.738514 161.293749 
L 245.99225 188.436107 
L 246.245985 163.822875 
L 246.499721 188.436107 
L 246.753456 161.799702 
L 247.007192 164.328186 
L 247.260927 172.420876 
L 247.387795 168.374531 
L 247.514663 170.565927 
L 247.64153 170.060615 
L 248.022134 143.761299 
L 248.275869 137.523559 
L 248.529605 147.132826 
L 248.656472 138.871912 
L 248.78334 141.232173 
L 248.910208 149.324221 
L 249.037076 141.401038 
L 249.163943 140.557997 
L 249.290811 151.178528 
L 249.544547 124.036812 
L 249.798282 146.458649 
L 249.92515 136.680516 
L 250.178885 159.608307 
L 250.432621 123.867947 
L 250.813224 163.991097 
L 250.940092 160.282484 
L 251.193827 143.761299 
L 251.320695 144.94143 
L 251.57443 162.473879 
L 251.828166 147.807002 
L 251.955034 150.841439 
L 252.081901 144.435476 
L 252.208769 144.772565 
L 252.335637 146.795737 
L 252.589372 194.167894 
L 252.843108 160.619573 
L 253.096843 183.378497 
L 253.350579 157.753357 
L 253.604314 168.037443 
L 253.731182 171.408969 
L 253.984917 195.853977 
L 254.238653 172.5891 
L 254.492388 180.850012 
L 254.619256 182.367232 
L 254.999859 189.953326 
L 255.126727 193.324852 
L 255.380463 179.501017 
L 255.634198 198.888416 
L 255.761066 195.179801 
L 255.887933 183.041408 
L 256.014801 181.861278 
L 256.141669 189.616237 
L 256.268537 188.267883 
L 256.395404 185.06458 
L 256.522272 188.604972 
L 256.776008 185.06458 
L 256.902875 189.616237 
L 257.029743 187.76193 
L 257.156611 190.627502 
L 257.283479 205.126156 
L 257.410346 203.271849 
L 257.537214 195.010936 
L 257.79095 211.026809 
L 258.044685 206.81224 
L 258.171553 205.126156 
L 258.298421 200.068547 
L 258.425288 202.091719 
L 258.679024 212.544027 
L 258.932759 208.160594 
L 259.059627 220.130121 
L 259.186495 218.44468 
L 259.44023 194.842712 
L 259.693966 209.846678 
L 259.820833 221.816206 
L 259.947701 219.961898 
L 260.074569 211.363896 
L 260.328304 218.275814 
L 260.455172 214.229469 
L 260.708908 159.608307 
L 260.962643 168.543396 
L 261.089511 161.630836 
L 261.343246 174.612272 
L 261.470114 164.159963 
L 261.596982 164.83414 
L 261.72385 168.374531 
L 261.977585 148.312956 
L 262.23132 171.914922 
L 262.485056 158.596399 
L 262.738791 171.914922 
L 262.865659 164.83414 
L 262.992527 150.167263 
L 263.119395 153.707655 
L 263.246262 163.316921 
L 263.37313 164.159963 
L 263.626866 168.374531 
L 263.753733 162.642745 
L 263.880601 165.171228 
L 264.007469 161.968567 
L 264.134337 148.481178 
L 264.261204 146.96396 
L 264.388072 147.807002 
L 264.51494 142.412304 
L 264.641808 145.78383 
L 264.768675 153.370566 
L 265.022411 150.336128 
L 265.149278 151.684482 
L 265.403014 139.88382 
L 265.656749 174.275183 
L 265.910485 166.351359 
L 266.037353 168.71162 
L 266.291088 154.71892 
L 266.544824 174.443407 
L 266.798559 161.125525 
L 266.925427 163.485786 
L 267.052295 163.65401 
L 267.30603 165.508317 
L 267.559766 167.700354 
L 267.813501 188.773195 
L 268.067236 164.328186 
L 268.194104 165.171228 
L 268.320972 165.171228 
L 268.44784 163.316921 
L 268.574707 166.688447 
L 268.701575 185.232804 
L 268.828443 182.872543 
L 268.955311 172.252011 
L 269.209046 178.82684 
L 269.335914 173.432142 
L 269.589649 198.720193 
L 269.843385 183.210273 
L 269.970253 186.918889 
L 270.223988 205.800333 
L 270.604591 174.94936 
L 270.731459 183.041408 
L 270.858327 202.59703 
L 270.985195 203.608937 
L 271.23893 184.052673 
L 271.492665 204.957291 
L 271.746401 193.830805 
L 271.873269 200.911588 
L 272.000136 198.382462 
L 272.127004 181.018236 
L 272.253872 180.175194 
L 272.38074 187.087753 
L 272.507607 185.738758 
L 272.634475 186.750023 
L 273.015078 185.570534 
L 273.141946 185.232804 
L 273.395682 209.846678 
L 273.649417 183.715585 
L 273.903153 205.63211 
L 274.03002 203.440072 
L 274.156888 208.497683 
L 274.410623 177.140756 
L 274.664359 204.45198 
L 275.044962 188.099018 
L 275.17183 188.267883 
L 275.298698 185.232804 
L 275.425565 190.627502 
L 275.552433 204.45198 
L 275.679301 197.708286 
L 275.933036 160.788436 
L 276.186772 182.367232 
L 276.31364 184.390404 
L 276.440507 182.198366 
L 276.567375 171.914922 
L 276.694243 171.842368 
L 276.821111 111.392465 
L 277.582317 127.576562 
L 277.836052 107.514986 
L 277.96292 118.979203 
L 278.089788 118.473249 
L 278.343523 104.480549 
L 278.470391 106.334856 
L 278.597259 103.469284 
L 278.850994 107.514986 
L 278.977862 99.591803 
L 279.10473 102.626241 
L 279.358465 132.297083 
L 279.612201 104.480549 
L 279.739069 108.695117 
L 279.992804 103.637506 
L 280.246539 127.576562 
L 280.627143 115.101722 
L 280.880878 105.32359 
L 281.134614 125.385166 
L 281.261481 125.554032 
L 281.642085 104.817636 
L 281.768952 107.683852 
L 281.89582 107.177897 
L 282.022688 109.20107 
L 282.276423 121.676551 
L 282.530159 134.657344 
L 282.657027 132.634172 
L 282.783894 123.024905 
L 282.910762 126.228208 
L 283.03763 139.714955 
L 283.164497 139.040777 
L 283.418233 122.519593 
L 283.545101 127.239473 
L 283.671968 122.519593 
L 283.798836 125.722254 
L 284.052572 146.626871 
L 284.179439 139.209001 
L 284.433175 150.673217 
L 284.68691 141.738127 
L 284.813778 143.929523 
L 284.940646 213.049339 
L 285.321249 202.765895 
L 285.448117 204.283115 
L 285.574985 207.149328 
L 285.701852 206.137421 
L 285.82872 206.137421 
L 285.955588 201.922854 
L 286.209323 186.075846 
L 286.336191 185.232804 
L 286.589926 201.75463 
L 286.843662 182.030143 
L 287.097397 201.248676 
L 287.351133 178.82684 
L 287.604868 186.5818 
L 287.858604 190.627502 
L 287.985472 189.110283 
L 288.112339 190.459279 
L 288.492943 166.688447 
L 288.61981 167.700354 
L 288.873546 159.102353 
L 289.000414 167.700354 
L 289.127281 161.630836 
L 289.254149 141.738127 
L 289.381017 144.94143 
L 289.507884 167.700354 
L 289.634752 161.125525 
L 289.76162 147.301049 
L 289.888488 159.439442 
L 290.015355 159.439442 
L 290.142223 143.929523 
L 290.395959 154.044743 
L 290.522826 145.952695 
L 290.776562 169.385796 
L 291.030297 138.02887 
L 291.284033 158.933488 
L 291.537768 169.89175 
L 291.791504 160.113618 
L 292.045239 168.880485 
L 292.298975 162.642745 
L 292.425842 164.497052 
L 292.679578 154.213607 
L 292.806446 158.428177 
L 292.933313 156.573227 
L 293.060181 190.965233 
L 293.187049 192.145363 
L 293.313917 195.51689 
L 293.567652 179.163929 
L 293.69452 185.06458 
L 293.821388 182.704319 
L 293.948255 166.014271 
L 294.075123 163.991097 
L 294.328859 187.76193 
L 294.455726 186.075846 
L 294.709462 191.302322 
L 294.83633 188.604972 
L 294.963197 188.942061 
L 295.216933 190.965233 
L 295.3438 189.447372 
L 295.470668 190.796368 
L 295.724404 212.375162 
L 295.978139 186.5818 
L 296.105007 193.830805 
L 296.231875 208.329459 
L 296.358742 202.428806 
L 296.48561 188.099018 
L 296.612478 191.976498 
L 296.739346 204.45198 
L 296.866213 202.259941 
L 297.119949 187.930153 
L 297.246817 188.267883 
L 297.373684 186.244711 
L 297.754288 205.969198 
L 297.881155 205.969198 
L 298.134891 211.869851 
L 298.261758 208.497683 
L 298.388626 210.520855 
L 298.515494 218.106949 
L 298.642362 215.409599 
L 298.769229 208.83477 
L 299.022965 222.996016 
L 299.149833 218.781768 
L 299.2767 219.118856 
L 299.403568 221.479117 
L 299.530436 216.926818 
L 299.784171 221.479117 
L 300.037907 205.969198 
L 300.164775 205.63211 
L 300.291642 211.195031 
L 300.545378 231.425472 
L 300.799113 225.356275 
L 300.925981 226.70495 
L 301.052849 226.367863 
L 301.306584 173.938095 
L 301.433452 165.171228 
L 301.56032 167.868578 
L 301.814055 160.788436 
L 301.940923 168.543396 
L 302.067791 167.025536 
L 302.321526 162.473879 
L 302.575262 140.72622 
L 302.828997 166.014271 
L 303.336468 150.673217 
L 303.463336 146.96396 
L 303.590204 146.96396 
L 303.717071 148.144091 
L 303.843939 146.289784 
L 304.224542 165.171228 
L 304.732013 138.366601 
L 304.985749 142.749392 
L 305.112616 137.860647 
L 305.239484 140.052042 
L 305.366352 148.312956 
L 305.620087 127.576562 
L 305.873823 146.289784 
L 306.000691 131.454041 
L 306.127558 135.33152 
L 306.254426 151.516259 
L 306.381294 152.190435 
L 306.508162 148.144091 
L 306.635029 149.830174 
L 306.761897 147.975867 
L 306.888765 149.998398 
L 307.1425 162.642745 
L 307.396236 143.592434 
L 307.523103 144.772565 
L 307.649971 141.063949 
L 307.903707 160.619573 
L 308.157442 149.998398 
L 308.411178 171.408969 
L 308.664913 146.458649 
L 308.791781 151.853348 
L 308.918649 149.493087 
L 309.045516 142.075215 
L 309.172384 150.673217 
L 309.299252 206.137421 
L 309.552987 183.88445 
L 309.806723 203.77716 
L 309.933591 204.789067 
L 310.187326 212.206939 
L 310.441061 206.81224 
L 310.567929 210.68972 
L 310.694797 211.026809 
L 310.948532 218.612903 
L 311.202268 188.267883 
L 311.456003 220.973163 
L 311.582871 217.601638 
L 311.709739 206.47451 
L 311.836607 206.980463 
L 311.963474 213.387069 
L 312.21721 207.65464 
L 312.470945 222.996016 
L 312.597813 215.409599 
L 312.851549 188.942061 
L 313.105284 206.47451 
L 313.35902 196.69702 
L 313.612755 206.47451 
L 313.739623 205.63211 
L 314.120226 211.869851 
L 314.373961 208.160594 
L 314.627697 223.164881 
L 314.754565 220.130121 
L 315.0083 203.271849 
L 315.262036 209.340724 
L 315.515771 213.555292 
L 315.769507 204.114891 
L 316.15011 213.387069 
L 316.276978 212.206939 
L 316.530713 181.524189 
L 316.657581 183.041408 
L 317.038184 193.830805 
L 317.291919 187.64122 
L 317.418787 83.504018 
L 318.179994 90.15076 
L 318.306861 80.37327 
L 318.433729 79.530229 
L 318.687465 86.779234 
L 319.068068 61.828272 
L 319.321803 88.127588 
L 319.575539 53.568 
L 319.702406 62.334225 
L 319.829274 90.656713 
L 319.956142 93.691152 
L 320.209877 60.817007 
L 320.336745 68.403101 
L 320.590481 62.334225 
L 320.844216 90.824937 
L 320.971084 85.767969 
L 321.351687 62.166001 
L 321.605423 83.238842 
L 321.73229 83.238842 
L 321.986026 101.277246 
L 322.239761 74.97793 
L 322.366629 87.790499 
L 322.620364 85.936192 
L 322.8741 103.806371 
L 323.127835 108.863982 
L 323.381571 103.300418 
L 323.635306 109.369935 
L 323.762174 110.044113 
L 324.269645 98.917627 
L 324.396513 103.974595 
L 324.523381 118.810337 
L 324.650248 116.450076 
L 324.777116 106.672586 
L 325.030852 129.262645 
L 325.284587 93.185198 
L 325.411455 101.446111 
L 325.538322 214.904288 
L 325.792058 187.593065 
L 326.045793 192.81954 
L 326.172661 200.742723 
L 326.299529 199.225504 
L 326.553264 183.547362 
L 326.680132 182.367232 
L 326.933868 169.89175 
L 327.187603 190.290414 
L 327.441339 164.328186 
L 327.695074 190.965233 
L 327.94881 158.091088 
L 328.202545 170.903015 
L 328.456281 168.205665 
L 328.583148 171.071881 
L 328.710016 168.71162 
L 328.963751 141.569262 
L 329.090619 149.998398 
L 329.217487 139.377866 
L 329.344355 119.147425 
L 329.471222 125.891119 
L 329.59809 138.871912 
L 329.851826 116.112987 
L 330.105561 129.7686 
L 330.359297 122.181862 
L 330.486164 127.07125 
L 330.613032 126.565297 
L 330.7399 119.484514 
L 330.993635 123.361993 
L 331.120503 114.258681 
L 331.374239 140.72622 
L 331.627974 102.963329 
L 332.008577 141.738127 
L 332.135445 141.063949 
L 332.38918 122.181862 
L 332.642916 136.00634 
L 332.769784 134.826209 
L 333.023519 126.228208 
L 333.277255 131.959995 
L 333.404122 129.936822 
L 333.53099 130.273911 
L 333.657858 162.136791 
L 333.784726 165.003006 
L 333.911593 165.171228 
L 334.165329 156.742092 
L 334.292197 163.485786 
L 334.419064 159.439442 
L 334.545932 138.197736 
L 334.6728 137.691781 
L 334.926535 163.316921 
L 335.053403 161.293749 
L 335.180271 168.037443 
L 335.307138 167.868578 
L 335.434006 163.485786 
L 335.687742 165.003006 
L 335.814609 167.531489 
L 336.068345 161.799702 
L 336.32208 195.010936 
L 336.575816 160.450707 
L 336.702684 168.880485 
L 336.829551 186.412934 
L 336.956419 184.390404 
L 337.210155 163.65401 
L 337.46389 180.512924 
L 337.717625 165.003006 
L 337.844493 165.003006 
L 337.971361 163.822875 
L 338.098229 164.159963 
L 338.351964 175.960625 
L 338.478832 183.041408 
L 338.732567 180.681147 
L 338.986303 184.221539 
L 339.113171 183.88445 
L 339.240038 183.041408 
L 339.366906 184.558628 
L 339.493774 188.267883 
L 339.620642 187.255976 
L 339.747509 183.88445 
L 340.25498 190.796368 
L 340.381848 189.953326 
L 340.508716 186.412934 
L 340.762451 164.665917 
L 340.889319 169.89175 
L 341.143054 193.830805 
L 341.39679 185.232804 
L 341.523658 187.424841 
L 341.650525 184.390404 
L 341.777393 188.436107 
L 342.157996 166.351359 
L 342.411732 163.65401 
L 342.792335 170.397704 
L 342.919203 170.565927 
L 343.172938 157.922223 
L 343.426674 170.397704 
L 343.553542 170.734792 
L 343.807277 167.363265 
L 343.934145 168.71162 
L 344.18788 158.091088 
L 344.314748 159.77653 
L 344.695351 170.228839 
L 344.822219 172.083146 
L 345.075954 169.217574 
L 345.202822 163.991097 
L 345.456558 150.504352 
L 345.583425 149.661309 
L 345.710293 143.761299 
L 345.964029 163.148056 
L 346.217764 141.906349 
L 346.344632 164.665917 
L 346.4715 167.194402 
L 346.598367 144.098388 
L 346.725235 147.301049 
L 346.97897 170.228839 
L 347.105838 165.340093 
L 347.359574 171.071881 
L 347.486441 166.520224 
L 347.613309 170.228839 
L 347.740177 177.64671 
L 347.993912 157.753357 
L 348.12078 157.922223 
L 348.374516 169.385796 
L 348.628251 184.558628 
L 348.755119 185.907623 
L 349.008854 192.482452 
L 349.26259 183.210273 
L 349.389458 187.087753 
L 349.643193 177.309621 
L 349.896928 209.846678 
L 350.150664 180.850012 
L 350.404399 207.65464 
L 350.531267 198.720193 
L 350.785003 217.095684 
L 350.91187 205.295022 
L 351.038738 205.126156 
L 351.292474 221.647341 
L 351.419341 222.996016 
L 351.546209 232.942692 
L 351.673077 222.153293 
L 351.799945 201.417541 
L 351.926812 211.026809 
L 352.05368 233.111235 
L 352.180548 233.111235 
L 352.307416 223.839057 
L 352.434283 224.34501 
L 352.688019 228.896667 
L 352.814886 227.547992 
L 352.941754 227.716536 
L 353.068622 232.099649 
L 353.19549 226.536406 
L 353.449225 201.248676 
L 353.702961 215.072512 
L 353.829828 206.306287 
L 353.956696 206.81224 
L 354.210432 224.007602 
L 354.464167 215.241377 
L 354.717903 232.437058 
L 355.098506 226.199318 
L 355.352241 231.088383 
L 355.605977 209.171859 
L 355.732845 211.195031 
L 355.98658 223.670513 
L 356.494051 207.99237 
L 356.620919 211.700985 
L 356.747786 229.570845 
L 356.874654 224.682099 
L 357.12839 183.88445 
L 357.255257 184.895715 
L 357.635861 213.049339 
L 357.762728 195.179801 
L 357.889596 196.0466 
L 358.143332 207.269397 
L 358.77767 215.578464 
L 358.904538 204.45198 
L 359.158273 225.187732 
L 359.412009 205.463245 
L 359.538877 212.881116 
L 359.792612 197.877151 
L 360.046348 231.088383 
L 360.173215 210.183766 
L 360.300083 208.329459 
L 360.426951 228.728122 
L 360.553819 226.70495 
L 360.680686 218.275814 
L 360.807554 222.490382 
L 361.06129 201.417541 
L 361.188157 207.823505 
L 361.441893 229.908253 
L 361.568761 225.862229 
L 361.695628 229.233756 
L 361.822496 222.827471 
L 361.949364 203.946026 
L 362.203099 233.111235 
L 362.456835 206.643376 
L 362.583702 222.658927 
L 362.837438 199.394369 
L 362.964306 200.574499 
L 363.218041 182.535454 
L 363.598644 218.949991 
L 363.725512 213.555292 
L 363.85238 202.93476 
L 364.106115 209.003635 
L 364.232983 205.126156 
L 364.359851 208.666548 
L 364.486719 201.248676 
L 364.613586 182.367232 
L 364.740454 181.861278 
L 365.121057 209.509589 
L 365.247925 205.63211 
L 365.374793 185.738758 
L 365.50166 190.965233 
L 365.628528 204.957291 
L 365.882264 178.657975 
L 366.009131 182.198366 
L 366.135999 264.636706 
L 366.389735 237.494668 
L 366.64347 252.667179 
L 366.770338 250.981415 
L 367.150941 227.379449 
L 367.277809 231.425472 
L 367.404677 229.908253 
L 367.531544 224.007602 
L 367.78528 234.291365 
L 368.039015 207.317552 
L 368.292751 226.030774 
L 368.546486 204.283115 
L 368.673354 211.869851 
L 368.927089 205.295022 
L 369.053957 211.363896 
L 369.307693 188.604972 
L 369.43456 189.110283 
L 369.561428 190.627502 
L 369.942031 149.324221 
L 370.068899 153.538789 
L 370.195767 155.393738 
L 370.449502 126.902384 
L 370.703238 151.684482 
L 370.956973 132.634172 
L 371.083841 143.08648 
L 371.210709 139.546731 
L 371.337576 121.001733 
L 371.464444 121.001733 
L 371.591312 125.048078 
L 371.71818 122.687816 
L 371.971915 149.998398 
L 372.225651 112.572596 
L 372.352518 114.258681 
L 372.606254 158.091088 
L 372.733122 157.248046 
L 372.986857 122.350728 
L 373.240593 146.96396 
L 373.494328 140.052042 
L 373.621196 141.063949 
L 373.874931 126.734162 
L 374.128667 142.075215 
L 374.255534 209.003635 
L 374.382402 210.520855 
L 374.636138 187.76193 
L 374.763005 187.930153 
L 375.016741 208.83477 
L 375.270476 180.850012 
L 375.524212 211.53212 
L 375.65108 204.114891 
L 375.904815 220.804298 
L 376.031683 209.171859 
L 376.539154 231.256928 
L 376.666022 224.850643 
L 376.792889 233.785733 
L 376.919757 255.533072 
L 377.173492 228.391035 
L 377.427228 249.63274 
L 377.680963 250.644326 
L 377.807831 238.843343 
L 377.934699 244.57513 
L 378.061567 265.98538 
L 378.315302 243.732089 
L 378.44217 244.238041 
L 378.569038 244.912219 
L 378.822773 268.68273 
L 379.076509 253.678765 
L 379.330244 280.315168 
L 379.58398 264.973794 
L 379.710847 272.054577 
L 379.964583 264.468162 
L 380.218318 288.238672 
L 380.472054 268.851274 
L 380.598921 281.663843 
L 380.852657 266.491334 
L 381.106392 282.67543 
L 381.360128 261.602268 
L 381.486996 263.119487 
L 381.613863 266.828423 
L 381.867599 291.61052 
L 381.994467 282.000932 
L 382.121334 280.989667 
L 382.248202 295.488 
L 382.37507 144.94143 
L 382.628805 121.339462 
L 382.755673 126.228208 
L 383.009409 116.281853 
L 383.263144 131.959995 
L 383.390012 128.25138 
L 383.643747 112.235508 
L 383.897483 123.193771 
L 384.02435 127.576562 
L 384.151218 142.24408 
L 384.404954 121.844775 
L 384.658689 151.516259 
L 384.912425 130.611641 
L 385.16616 151.347394 
L 385.293028 144.94143 
L 385.419896 148.144091 
L 385.546763 169.385796 
L 385.673631 168.037443 
L 385.800499 144.098388 
L 385.927367 146.96396 
L 386.054234 169.217574 
L 386.181102 164.665917 
L 386.30797 146.96396 
L 386.434837 153.370566 
L 386.561705 170.228839 
L 386.815441 160.788436 
L 387.069176 193.324852 
L 387.196044 179.332794 
L 387.322912 183.041408 
L 387.576647 212.712251 
L 387.703515 202.259941 
L 387.95725 222.658927 
L 388.084118 210.857944 
L 388.210986 215.072512 
L 388.337854 239.854608 
L 388.464721 233.279779 
L 388.591589 207.486417 
L 388.718457 207.65464 
L 389.09906 251.149959 
L 389.225928 246.597982 
L 389.352795 248.789698 
L 389.606531 275.763513 
L 389.860266 242.214869 
L 390.114002 253.847308 
L 390.24087 246.429437 
L 390.367737 257.724788 
L 390.621473 193.662582 
L 390.748341 176.297714 
L 391.002076 209.846678 
L 391.128944 200.911588 
L 391.255812 205.126156 
L 391.382679 222.321517 
L 391.509547 218.612903 
L 391.636415 218.275814 
L 391.763283 231.088383 
L 391.89015 229.4023 
L 392.017018 231.256928 
L 392.143886 243.563544 
L 392.397621 220.46721 
L 392.651357 248.789698 
L 392.905092 241.709237 
L 393.158828 253.172811 
L 393.412563 245.923805 
L 393.539431 258.904919 
L 393.666299 260.085049 
L 393.920034 228.053625 
L 394.17377 254.858895 
L 394.554373 228.391035 
L 394.681241 233.954278 
L 394.808108 231.425472 
L 394.934976 225.356275 
L 395.188711 244.406586 
L 395.442447 218.612903 
L 395.696182 228.391035 
L 396.457389 190.122191 
L 396.584257 205.800333 
L 396.711124 206.980463 
L 396.96486 162.136791 
L 397.091728 172.083146 
L 397.218595 168.543396 
L 397.345463 168.374531 
L 397.472331 173.938095 
L 397.852934 121.339462 
L 398.233537 134.151391 
L 398.360405 116.618942 
L 398.487273 115.173635 
L 398.487273 115.173635 
" clip-path="url(#pfeebc4637d)" style="fill: none; stroke: #1f77b4; stroke-width: 1.5; stroke-linecap: square"/>
   </g>
   <g id="patch_3">
    <path d="M 57.6 307.584 
L 57.6 41.472 
" style="fill: none; stroke: #000000; stroke-width: 0.8; stroke-linejoin: miter; stroke-linecap: square"/>
   </g>
   <g id="patch_4">
    <path d="M 414.72 307.584 
L 414.72 41.472 
" style="fill: none; stroke: #000000; stroke-width: 0.8; stroke-linejoin: miter; stroke-linecap: square"/>
   </g>
   <g id="patch_5">
    <path d="M 57.6 307.584 
L 414.72 307.584 
" style="fill: none; stroke: #000000; stroke-width: 0.8; stroke-linejoin: miter; stroke-linecap: square"/>
   </g>
   <g id="patch_6">
    <path d="M 57.6 41.472 
L 414.72 41.472 
" style="fill: none; stroke: #000000; stroke-width: 0.8; stroke-linejoin: miter; stroke-linecap: square"/>
   </g>
   <g id="legend_1">
    <g id="patch_7">
     <path d="M 354.074688 64.150125 
L 407.72 64.150125 
Q 409.72 64.150125 409.72 62.150125 
L 409.72 48.472 
Q 409.72 46.472 407.72 46.472 
L 354.074688 46.472 
Q 352.074688 46.472 352.074688 48.472 
L 352.074688 62.150125 
Q 352.074688 64.150125 354.074688 64.150125 
z
" style="fill: #ffffff; opacity: 0.8; stroke: #cccccc; stroke-linejoin: miter"/>
    </g>
    <g id="line2d_16">
     <path d="M 356.074688 54.570438 
L 366.074688 54.570438 
L 376.074688 54.570438 
" style="fill: none; stroke: #1f77b4; stroke-width: 1.5; stroke-linecap: square"/>
    </g>
    <g id="text_15">
     <!-- set1 -->
     <g transform="translate(384.074688 58.070438)scale(0.1 -0.1)">
      <defs>
       <path id="DejaVuSans-73" d="M 2834 3397 
L 2834 2853 
Q 2591 2978 2328 3040 
Q 2066 3103 1784 3103 
Q 1356 3103 1142 2972 
Q 928 2841 928 2578 
Q 928 2378 1081 2264 
Q 1234 2150 1697 2047 
L 1894 2003 
Q 2506 1872 2764 1633 
Q 3022 1394 3022 966 
Q 3022 478 2636 193 
Q 2250 -91 1575 -91 
Q 1294 -91 989 -36 
Q 684 19 347 128 
L 347 722 
Q 666 556 975 473 
Q 1284 391 1588 391 
Q 1994 391 2212 530 
Q 2431 669 2431 922 
Q 2431 1156 2273 1281 
Q 2116 1406 1581 1522 
L 1381 1569 
Q 847 1681 609 1914 
Q 372 2147 372 2553 
Q 372 3047 722 3315 
Q 1072 3584 1716 3584 
Q 2034 3584 2315 3537 
Q 2597 3491 2834 3397 
z
" transform="scale(0.015625)"/>
       <path id="DejaVuSans-65" d="M 3597 1894 
L 3597 1613 
L 953 1613 
Q 991 1019 1311 708 
Q 1631 397 2203 397 
Q 2534 397 2845 478 
Q 3156 559 3463 722 
L 3463 178 
Q 3153 47 2828 -22 
Q 2503 -91 2169 -91 
Q 1331 -91 842 396 
Q 353 884 353 1716 
Q 353 2575 817 3079 
Q 1281 3584 2069 3584 
Q 2775 3584 3186 3129 
Q 3597 2675 3597 1894 
z
M 3022 2063 
Q 3016 2534 2758 2815 
Q 2500 3097 2075 3097 
Q 1594 3097 1305 2825 
Q 1016 2553 972 2059 
L 3022 2063 
z
" transform="scale(0.015625)"/>
       <path id="DejaVuSans-74" d="M 1172 4494 
L 1172 3500 
L 2356 3500 
L 2356 3053 
L 1172 3053 
L 1172 1153 
Q 1172 725 1289 603 
Q 1406 481 1766 481 
L 2356 481 
L 2356 0 
L 1766 0 
Q 1100 0 847 248 
Q 594 497 594 1153 
L 594 3053 
L 172 3053 
L 172 3500 
L 594 3500 
L 594 4494 
L 1172 4494 
z
" transform="scale(0.015625)"/>
      </defs>
      <use xlink:href="#DejaVuSans-73"/>
      <use xlink:href="#DejaVuSans-65" x="52.099609"/>
      <use xlink:href="#DejaVuSans-74" x="113.623047"/>
      <use xlink:href="#DejaVuSans-31" x="152.832031"/>
     </g>
    </g>
   </g>
  </g>
 </g>
 <defs>
  <clipPath id="pfeebc4637d">
   <rect x="57.6" y="41.472" width="357.12" height="266.112"/>
  </clipPath>
 </defs>
</svg>
