<?xml version="1.0" encoding="utf-8" standalone="no"?>
<!DOCTYPE svg PUBLIC "-//W3C//DTD SVG 1.1//EN"
  "http://www.w3.org/Graphics/SVG/1.1/DTD/svg11.dtd">
<svg xmlns:xlink="http://www.w3.org/1999/xlink" width="460.8pt" height="345.6pt" viewBox="0 0 460.8 345.6" xmlns="http://www.w3.org/2000/svg" version="1.1">
 <metadata>
  <rdf:RDF xmlns:dc="http://purl.org/dc/elements/1.1/" xmlns:cc="http://creativecommons.org/ns#" xmlns:rdf="http://www.w3.org/1999/02/22-rdf-syntax-ns#">
   <cc:Work>
    <dc:type rdf:resource="http://purl.org/dc/dcmitype/StillImage"/>
    <dc:date>2022-08-11T15:17:12.236687</dc:date>
    <dc:format>image/svg+xml</dc:format>
    <dc:creator>
     <cc:Agent>
      <dc:title>Matplotlib v3.5.2, https://matplotlib.org/</dc:title>
     </cc:Agent>
    </dc:creator>
   </cc:Work>
  </rdf:RDF>
 </metadata>
 <defs>
  <style type="text/css">*{stroke-linejoin: round; stroke-linecap: butt}</style>
 </defs>
 <g id="figure_1">
  <g id="patch_1">
   <path d="M 0 345.6 
L 460.8 345.6 
L 460.8 0 
L 0 0 
z
" style="fill: #ffffff"/>
  </g>
  <g id="axes_1">
   <g id="patch_2">
    <path d="M 57.6 307.584 
L 414.72 307.584 
L 414.72 41.472 
L 57.6 41.472 
z
" style="fill: #ffffff"/>
   </g>
   <g id="matplotlib.axis_1">
    <g id="xtick_1">
     <g id="line2d_1">
      <defs>
       <path id="m93730a2aaf" d="M 0 0 
L 0 3.5 
" style="stroke: #000000; stroke-width: 0.8"/>
      </defs>
      <g>
       <use xlink:href="#m93730a2aaf" x="73.832727" y="307.584" style="stroke: #000000; stroke-width: 0.8"/>
      </g>
     </g>
     <g id="text_1">
      <!-- 0 -->
      <g transform="translate(70.651477 322.182437)scale(0.1 -0.1)">
       <defs>
        <path id="DejaVuSans-30" d="M 2034 4250 
Q 1547 4250 1301 3770 
Q 1056 3291 1056 2328 
Q 1056 1369 1301 889 
Q 1547 409 2034 409 
Q 2525 409 2770 889 
Q 3016 1369 3016 2328 
Q 3016 3291 2770 3770 
Q 2525 4250 2034 4250 
z
M 2034 4750 
Q 2819 4750 3233 4129 
Q 3647 3509 3647 2328 
Q 3647 1150 3233 529 
Q 2819 -91 2034 -91 
Q 1250 -91 836 529 
Q 422 1150 422 2328 
Q 422 3509 836 4129 
Q 1250 4750 2034 4750 
z
" transform="scale(0.015625)"/>
       </defs>
       <use xlink:href="#DejaVuSans-30"/>
      </g>
     </g>
    </g>
    <g id="xtick_2">
     <g id="line2d_2">
      <g>
       <use xlink:href="#m93730a2aaf" x="137.266597" y="307.584" style="stroke: #000000; stroke-width: 0.8"/>
      </g>
     </g>
     <g id="text_2">
      <!-- 500 -->
      <g transform="translate(127.722847 322.182437)scale(0.1 -0.1)">
       <defs>
        <path id="DejaVuSans-35" d="M 691 4666 
L 3169 4666 
L 3169 4134 
L 1269 4134 
L 1269 2991 
Q 1406 3038 1543 3061 
Q 1681 3084 1819 3084 
Q 2600 3084 3056 2656 
Q 3513 2228 3513 1497 
Q 3513 744 3044 326 
Q 2575 -91 1722 -91 
Q 1428 -91 1123 -41 
Q 819 9 494 109 
L 494 744 
Q 775 591 1075 516 
Q 1375 441 1709 441 
Q 2250 441 2565 725 
Q 2881 1009 2881 1497 
Q 2881 1984 2565 2268 
Q 2250 2553 1709 2553 
Q 1456 2553 1204 2497 
Q 953 2441 691 2322 
L 691 4666 
z
" transform="scale(0.015625)"/>
       </defs>
       <use xlink:href="#DejaVuSans-35"/>
       <use xlink:href="#DejaVuSans-30" x="63.623047"/>
       <use xlink:href="#DejaVuSans-30" x="127.246094"/>
      </g>
     </g>
    </g>
    <g id="xtick_3">
     <g id="line2d_3">
      <g>
       <use xlink:href="#m93730a2aaf" x="200.700467" y="307.584" style="stroke: #000000; stroke-width: 0.8"/>
      </g>
     </g>
     <g id="text_3">
      <!-- 1000 -->
      <g transform="translate(187.975467 322.182437)scale(0.1 -0.1)">
       <defs>
        <path id="DejaVuSans-31" d="M 794 531 
L 1825 531 
L 1825 4091 
L 703 3866 
L 703 4441 
L 1819 4666 
L 2450 4666 
L 2450 531 
L 3481 531 
L 3481 0 
L 794 0 
L 794 531 
z
" transform="scale(0.015625)"/>
       </defs>
       <use xlink:href="#DejaVuSans-31"/>
       <use xlink:href="#DejaVuSans-30" x="63.623047"/>
       <use xlink:href="#DejaVuSans-30" x="127.246094"/>
       <use xlink:href="#DejaVuSans-30" x="190.869141"/>
      </g>
     </g>
    </g>
    <g id="xtick_4">
     <g id="line2d_4">
      <g>
       <use xlink:href="#m93730a2aaf" x="264.134337" y="307.584" style="stroke: #000000; stroke-width: 0.8"/>
      </g>
     </g>
     <g id="text_4">
      <!-- 1500 -->
      <g transform="translate(251.409337 322.182437)scale(0.1 -0.1)">
       <use xlink:href="#DejaVuSans-31"/>
       <use xlink:href="#DejaVuSans-35" x="63.623047"/>
       <use xlink:href="#DejaVuSans-30" x="127.246094"/>
       <use xlink:href="#DejaVuSans-30" x="190.869141"/>
      </g>
     </g>
    </g>
    <g id="xtick_5">
     <g id="line2d_5">
      <g>
       <use xlink:href="#m93730a2aaf" x="327.568206" y="307.584" style="stroke: #000000; stroke-width: 0.8"/>
      </g>
     </g>
     <g id="text_5">
      <!-- 2000 -->
      <g transform="translate(314.843206 322.182437)scale(0.1 -0.1)">
       <defs>
        <path id="DejaVuSans-32" d="M 1228 531 
L 3431 531 
L 3431 0 
L 469 0 
L 469 531 
Q 828 903 1448 1529 
Q 2069 2156 2228 2338 
Q 2531 2678 2651 2914 
Q 2772 3150 2772 3378 
Q 2772 3750 2511 3984 
Q 2250 4219 1831 4219 
Q 1534 4219 1204 4116 
Q 875 4013 500 3803 
L 500 4441 
Q 881 4594 1212 4672 
Q 1544 4750 1819 4750 
Q 2544 4750 2975 4387 
Q 3406 4025 3406 3419 
Q 3406 3131 3298 2873 
Q 3191 2616 2906 2266 
Q 2828 2175 2409 1742 
Q 1991 1309 1228 531 
z
" transform="scale(0.015625)"/>
       </defs>
       <use xlink:href="#DejaVuSans-32"/>
       <use xlink:href="#DejaVuSans-30" x="63.623047"/>
       <use xlink:href="#DejaVuSans-30" x="127.246094"/>
       <use xlink:href="#DejaVuSans-30" x="190.869141"/>
      </g>
     </g>
    </g>
    <g id="xtick_6">
     <g id="line2d_6">
      <g>
       <use xlink:href="#m93730a2aaf" x="391.002076" y="307.584" style="stroke: #000000; stroke-width: 0.8"/>
      </g>
     </g>
     <g id="text_6">
      <!-- 2500 -->
      <g transform="translate(378.277076 322.182437)scale(0.1 -0.1)">
       <use xlink:href="#DejaVuSans-32"/>
       <use xlink:href="#DejaVuSans-35" x="63.623047"/>
       <use xlink:href="#DejaVuSans-30" x="127.246094"/>
       <use xlink:href="#DejaVuSans-30" x="190.869141"/>
      </g>
     </g>
    </g>
   </g>
   <g id="matplotlib.axis_2">
    <g id="ytick_1">
     <g id="line2d_7">
      <defs>
       <path id="m95a63ceed4" d="M 0 0 
L -3.5 0 
" style="stroke: #000000; stroke-width: 0.8"/>
      </defs>
      <g>
       <use xlink:href="#m95a63ceed4" x="57.6" y="307.118883" style="stroke: #000000; stroke-width: 0.8"/>
      </g>
     </g>
     <g id="text_7">
      <!-- 4020 -->
      <g transform="translate(25.15 310.918102)scale(0.1 -0.1)">
       <defs>
        <path id="DejaVuSans-34" d="M 2419 4116 
L 825 1625 
L 2419 1625 
L 2419 4116 
z
M 2253 4666 
L 3047 4666 
L 3047 1625 
L 3713 1625 
L 3713 1100 
L 3047 1100 
L 3047 0 
L 2419 0 
L 2419 1100 
L 313 1100 
L 313 1709 
L 2253 4666 
z
" transform="scale(0.015625)"/>
       </defs>
       <use xlink:href="#DejaVuSans-34"/>
       <use xlink:href="#DejaVuSans-30" x="63.623047"/>
       <use xlink:href="#DejaVuSans-32" x="127.246094"/>
       <use xlink:href="#DejaVuSans-30" x="190.869141"/>
      </g>
     </g>
    </g>
    <g id="ytick_2">
     <g id="line2d_8">
      <g>
       <use xlink:href="#m95a63ceed4" x="57.6" y="276.878883" style="stroke: #000000; stroke-width: 0.8"/>
      </g>
     </g>
     <g id="text_8">
      <!-- 4040 -->
      <g transform="translate(25.15 280.678102)scale(0.1 -0.1)">
       <use xlink:href="#DejaVuSans-34"/>
       <use xlink:href="#DejaVuSans-30" x="63.623047"/>
       <use xlink:href="#DejaVuSans-34" x="127.246094"/>
       <use xlink:href="#DejaVuSans-30" x="190.869141"/>
      </g>
     </g>
    </g>
    <g id="ytick_3">
     <g id="line2d_9">
      <g>
       <use xlink:href="#m95a63ceed4" x="57.6" y="246.638883" style="stroke: #000000; stroke-width: 0.8"/>
      </g>
     </g>
     <g id="text_9">
      <!-- 4060 -->
      <g transform="translate(25.15 250.438102)scale(0.1 -0.1)">
       <defs>
        <path id="DejaVuSans-36" d="M 2113 2584 
Q 1688 2584 1439 2293 
Q 1191 2003 1191 1497 
Q 1191 994 1439 701 
Q 1688 409 2113 409 
Q 2538 409 2786 701 
Q 3034 994 3034 1497 
Q 3034 2003 2786 2293 
Q 2538 2584 2113 2584 
z
M 3366 4563 
L 3366 3988 
Q 3128 4100 2886 4159 
Q 2644 4219 2406 4219 
Q 1781 4219 1451 3797 
Q 1122 3375 1075 2522 
Q 1259 2794 1537 2939 
Q 1816 3084 2150 3084 
Q 2853 3084 3261 2657 
Q 3669 2231 3669 1497 
Q 3669 778 3244 343 
Q 2819 -91 2113 -91 
Q 1303 -91 875 529 
Q 447 1150 447 2328 
Q 447 3434 972 4092 
Q 1497 4750 2381 4750 
Q 2619 4750 2861 4703 
Q 3103 4656 3366 4563 
z
" transform="scale(0.015625)"/>
       </defs>
       <use xlink:href="#DejaVuSans-34"/>
       <use xlink:href="#DejaVuSans-30" x="63.623047"/>
       <use xlink:href="#DejaVuSans-36" x="127.246094"/>
       <use xlink:href="#DejaVuSans-30" x="190.869141"/>
      </g>
     </g>
    </g>
    <g id="ytick_4">
     <g id="line2d_10">
      <g>
       <use xlink:href="#m95a63ceed4" x="57.6" y="216.398883" style="stroke: #000000; stroke-width: 0.8"/>
      </g>
     </g>
     <g id="text_10">
      <!-- 4080 -->
      <g transform="translate(25.15 220.198102)scale(0.1 -0.1)">
       <defs>
        <path id="DejaVuSans-38" d="M 2034 2216 
Q 1584 2216 1326 1975 
Q 1069 1734 1069 1313 
Q 1069 891 1326 650 
Q 1584 409 2034 409 
Q 2484 409 2743 651 
Q 3003 894 3003 1313 
Q 3003 1734 2745 1975 
Q 2488 2216 2034 2216 
z
M 1403 2484 
Q 997 2584 770 2862 
Q 544 3141 544 3541 
Q 544 4100 942 4425 
Q 1341 4750 2034 4750 
Q 2731 4750 3128 4425 
Q 3525 4100 3525 3541 
Q 3525 3141 3298 2862 
Q 3072 2584 2669 2484 
Q 3125 2378 3379 2068 
Q 3634 1759 3634 1313 
Q 3634 634 3220 271 
Q 2806 -91 2034 -91 
Q 1263 -91 848 271 
Q 434 634 434 1313 
Q 434 1759 690 2068 
Q 947 2378 1403 2484 
z
M 1172 3481 
Q 1172 3119 1398 2916 
Q 1625 2713 2034 2713 
Q 2441 2713 2670 2916 
Q 2900 3119 2900 3481 
Q 2900 3844 2670 4047 
Q 2441 4250 2034 4250 
Q 1625 4250 1398 4047 
Q 1172 3844 1172 3481 
z
" transform="scale(0.015625)"/>
       </defs>
       <use xlink:href="#DejaVuSans-34"/>
       <use xlink:href="#DejaVuSans-30" x="63.623047"/>
       <use xlink:href="#DejaVuSans-38" x="127.246094"/>
       <use xlink:href="#DejaVuSans-30" x="190.869141"/>
      </g>
     </g>
    </g>
    <g id="ytick_5">
     <g id="line2d_11">
      <g>
       <use xlink:href="#m95a63ceed4" x="57.6" y="186.158883" style="stroke: #000000; stroke-width: 0.8"/>
      </g>
     </g>
     <g id="text_11">
      <!-- 4100 -->
      <g transform="translate(25.15 189.958102)scale(0.1 -0.1)">
       <use xlink:href="#DejaVuSans-34"/>
       <use xlink:href="#DejaVuSans-31" x="63.623047"/>
       <use xlink:href="#DejaVuSans-30" x="127.246094"/>
       <use xlink:href="#DejaVuSans-30" x="190.869141"/>
      </g>
     </g>
    </g>
    <g id="ytick_6">
     <g id="line2d_12">
      <g>
       <use xlink:href="#m95a63ceed4" x="57.6" y="155.918883" style="stroke: #000000; stroke-width: 0.8"/>
      </g>
     </g>
     <g id="text_12">
      <!-- 4120 -->
      <g transform="translate(25.15 159.718102)scale(0.1 -0.1)">
       <use xlink:href="#DejaVuSans-34"/>
       <use xlink:href="#DejaVuSans-31" x="63.623047"/>
       <use xlink:href="#DejaVuSans-32" x="127.246094"/>
       <use xlink:href="#DejaVuSans-30" x="190.869141"/>
      </g>
     </g>
    </g>
    <g id="ytick_7">
     <g id="line2d_13">
      <g>
       <use xlink:href="#m95a63ceed4" x="57.6" y="125.678883" style="stroke: #000000; stroke-width: 0.8"/>
      </g>
     </g>
     <g id="text_13">
      <!-- 4140 -->
      <g transform="translate(25.15 129.478102)scale(0.1 -0.1)">
       <use xlink:href="#DejaVuSans-34"/>
       <use xlink:href="#DejaVuSans-31" x="63.623047"/>
       <use xlink:href="#DejaVuSans-34" x="127.246094"/>
       <use xlink:href="#DejaVuSans-30" x="190.869141"/>
      </g>
     </g>
    </g>
    <g id="ytick_8">
     <g id="line2d_14">
      <g>
       <use xlink:href="#m95a63ceed4" x="57.6" y="95.438883" style="stroke: #000000; stroke-width: 0.8"/>
      </g>
     </g>
     <g id="text_14">
      <!-- 4160 -->
      <g transform="translate(25.15 99.238102)scale(0.1 -0.1)">
       <use xlink:href="#DejaVuSans-34"/>
       <use xlink:href="#DejaVuSans-31" x="63.623047"/>
       <use xlink:href="#DejaVuSans-36" x="127.246094"/>
       <use xlink:href="#DejaVuSans-30" x="190.869141"/>
      </g>
     </g>
    </g>
    <g id="ytick_9">
     <g id="line2d_15">
      <g>
       <use xlink:href="#m95a63ceed4" x="57.6" y="65.198883" style="stroke: #000000; stroke-width: 0.8"/>
      </g>
     </g>
     <g id="text_15">
      <!-- 4180 -->
      <g transform="translate(25.15 68.998102)scale(0.1 -0.1)">
       <use xlink:href="#DejaVuSans-34"/>
       <use xlink:href="#DejaVuSans-31" x="63.623047"/>
       <use xlink:href="#DejaVuSans-38" x="127.246094"/>
       <use xlink:href="#DejaVuSans-30" x="190.869141"/>
      </g>
     </g>
    </g>
   </g>
   <g id="line2d_16">
    <path d="M 73.832727 130.137363 
L 73.959595 123.740156 
L 74.086463 137.891531 
L 74.21333 135.17761 
L 74.340198 117.924715 
L 74.467066 121.220403 
L 74.593934 130.912559 
L 74.720801 130.331531 
L 74.847669 128.780403 
L 75.101405 151.072805 
L 75.228272 148.358883 
L 75.482008 122.771531 
L 75.608876 123.352559 
L 75.735743 122.964961 
L 75.862611 124.70952 
L 75.989479 122.771531 
L 76.116347 122.964961 
L 76.243214 123.740156 
L 76.370082 121.41457 
L 76.623818 130.912559 
L 76.750685 127.61761 
L 77.765627 126.841676 
L 77.892495 130.719129 
L 78.019363 129.362168 
L 78.14623 125.678883 
L 78.399966 138.279129 
L 78.780569 125.484715 
L 79.161172 131.687754 
L 79.414908 130.912559 
L 79.668643 118.894078 
L 79.922379 131.687754 
L 80.049247 129.362168 
L 80.176114 124.321922 
L 80.42985 132.463688 
L 80.556717 131.687754 
L 80.683585 127.811039 
L 80.937321 117.924715 
L 81.191056 126.454078 
L 81.317924 129.749766 
L 81.444792 140.023688 
L 81.571659 137.697363 
L 81.825395 109.39609 
L 81.952263 151.460403 
L 82.07913 150.103442 
L 82.205998 152.623195 
L 82.332866 141.961676 
L 82.459734 143.900403 
L 82.586601 148.746481 
L 82.713469 140.217117 
L 82.840337 140.023688 
L 83.094072 157.85761 
L 83.347808 137.697363 
L 83.474675 144.288 
L 83.601543 143.900403 
L 83.728411 129.362168 
L 83.855279 128.780403 
L 84.109014 152.235598 
L 84.235882 154.75609 
L 84.489617 132.26952 
L 84.616485 134.014078 
L 84.743353 132.463688 
L 84.870221 133.820649 
L 85.123956 154.561922 
L 85.377692 144.09457 
L 85.504559 145.063195 
L 85.758295 131.881922 
L 86.01203 153.980156 
L 86.265766 121.995598 
L 86.392633 121.802168 
L 86.646369 116.180156 
L 86.773237 120.445207 
L 86.900104 128.780403 
L 87.026972 127.423442 
L 87.15384 114.629766 
L 87.280708 116.761922 
L 87.407575 126.066481 
L 87.534443 122.189766 
L 87.661311 123.546727 
L 87.788179 132.26952 
L 87.915046 131.494324 
L 88.041914 127.230012 
L 88.168782 130.524961 
L 88.422517 127.811039 
L 88.549385 130.331531 
L 88.803121 127.230012 
L 88.929988 131.687754 
L 89.056856 130.137363 
L 89.183724 125.484715 
L 89.437459 131.300156 
L 89.691195 124.127754 
L 89.94493 126.454078 
L 90.071798 120.832805 
L 90.325533 129.362168 
L 90.452401 129.943195 
L 90.579269 128.780403 
L 90.706137 126.066481 
L 90.959872 140.798883 
L 91.08674 136.53457 
L 91.340475 153.399129 
L 91.467343 149.715844 
L 91.594211 142.155844 
L 91.847946 158.051039 
L 91.974814 154.367754 
L 92.22855 144.675598 
L 92.355417 148.164715 
L 92.609153 145.839129 
L 92.73602 147.38952 
L 92.862888 151.460403 
L 93.87783 132.07609 
L 94.004698 134.208246 
L 94.258433 149.328246 
L 94.639037 132.657117 
L 94.765904 133.820649 
L 94.892772 130.137363 
L 95.01964 132.26952 
L 95.273375 151.65457 
L 95.527111 131.494324 
L 95.653978 135.371039 
L 95.907714 154.561922 
L 96.034582 136.922168 
L 96.161449 142.73761 
L 96.288317 156.888246 
L 96.542053 132.26952 
L 96.66892 153.011531 
L 96.795788 153.980156 
L 96.922656 145.063195 
L 97.049524 147.38952 
L 97.303259 134.983442 
L 97.556995 151.460403 
L 97.81073 129.749766 
L 97.937598 120.05761 
L 98.191333 128.780403 
L 98.318201 127.035844 
L 98.445069 129.168 
L 98.571936 127.61761 
L 98.825672 133.238883 
L 98.95254 131.106727 
L 99.206275 132.851285 
L 99.460011 124.321922 
L 99.586878 127.61761 
L 99.840614 122.771531 
L 100.094349 131.494324 
L 100.348085 130.137363 
L 100.60182 112.885207 
L 100.855556 131.494324 
L 100.982424 128.005207 
L 101.109291 130.524961 
L 101.236159 137.697363 
L 101.363027 134.401676 
L 101.616762 126.648246 
L 101.74363 125.097117 
L 101.997365 116.761922 
L 102.251101 129.362168 
L 102.504836 126.648246 
L 102.758572 138.084961 
L 103.012307 123.352559 
L 103.266043 128.780403 
L 103.519778 117.537117 
L 103.773514 132.463688 
L 104.027249 121.995598 
L 104.154117 122.383195 
L 104.407852 128.005207 
L 104.788456 120.05761 
L 105.169059 137.503195 
L 105.295927 134.014078 
L 105.549662 121.41457 
L 105.803398 128.97457 
L 106.057133 126.648246 
L 106.310869 145.839129 
L 106.564604 123.546727 
L 106.691472 123.934324 
L 106.81834 131.494324 
L 107.072075 128.97457 
L 107.198943 134.790012 
L 107.452678 113.660403 
L 107.579546 118.313051 
L 107.706414 118.506481 
L 107.833281 102.998883 
L 107.960149 103.968246 
L 108.213885 125.097117 
L 108.340752 121.220403 
L 108.46762 121.608 
L 108.594488 122.577363 
L 108.848223 141.380649 
L 109.228827 124.903688 
L 109.60943 146.420156 
L 109.863165 126.260649 
L 110.116901 146.614324 
L 110.243769 144.675598 
L 110.370636 139.63609 
L 110.497504 148.553051 
L 110.624372 146.807754 
L 110.878107 124.70952 
L 111.004975 119.863442 
L 111.25871 80.513051 
L 111.385578 78.961922 
L 111.512446 86.134324 
L 111.639314 84.195598 
L 111.766181 80.124715 
L 112.019917 101.254324 
L 112.273652 96.601676 
L 112.654256 106.682168 
L 112.781123 104.550012 
L 112.907991 105.906235 
L 113.161727 138.666727 
L 113.288594 125.873051 
L 113.415462 129.749766 
L 113.54233 147.001922 
L 113.796065 131.106727 
L 113.922933 136.340403 
L 114.049801 135.371039 
L 114.303536 156.306481 
L 114.430404 126.066481 
L 114.557272 123.934324 
L 114.684139 134.790012 
L 114.811007 132.851285 
L 114.937875 125.484715 
L 115.318478 134.790012 
L 115.572214 126.454078 
L 115.699081 136.340403 
L 115.825949 154.94952 
L 115.952817 148.358883 
L 116.206552 123.740156 
L 116.587155 131.494324 
L 116.714023 126.841676 
L 116.840891 127.423442 
L 116.967759 133.820649 
L 117.094626 129.943195 
L 117.221494 132.463688 
L 117.348362 148.746481 
L 118.490172 132.851285 
L 118.617039 143.318637 
L 118.743907 142.350012 
L 118.870775 130.137363 
L 118.997643 130.331531 
L 119.12451 134.983442 
L 119.251378 131.300156 
L 119.378246 132.851285 
L 119.505114 136.146235 
L 119.758849 127.423442 
L 119.885717 127.230012 
L 120.139452 133.820649 
L 120.26632 128.198637 
L 120.393188 127.61761 
L 120.520055 131.687754 
L 120.773791 128.198637 
L 121.027526 133.820649 
L 121.281262 123.159129 
L 121.534997 132.657117 
L 121.661865 134.208246 
L 122.042468 157.470012 
L 122.169336 152.817363 
L 122.423072 118.506481 
L 122.549939 155.531285 
L 122.803675 131.687754 
L 122.930542 149.521676 
L 123.05741 143.512805 
L 123.184278 126.454078 
L 123.311146 128.198637 
L 123.438013 128.198637 
L 123.564881 125.097117 
L 123.818617 144.482168 
L 124.072352 120.832805 
L 124.326088 128.198637 
L 124.579823 120.05761 
L 124.833559 146.807754 
L 125.087294 125.291285 
L 125.214162 127.811039 
L 125.34103 125.873051 
L 125.467897 121.802168 
L 125.721633 132.07609 
L 125.8485 128.586235 
L 126.102236 129.749766 
L 126.229104 129.749766 
L 126.482839 121.41457 
L 126.736575 128.392805 
L 126.863442 124.70952 
L 127.244046 104.161676 
L 127.370913 102.804715 
L 127.624649 117.14952 
L 128.005252 104.93761 
L 128.13212 105.906235 
L 128.258988 116.567754 
L 128.385855 114.823195 
L 128.512723 105.131039 
L 128.766458 123.159129 
L 128.893326 115.211531 
L 129.147062 132.851285 
L 129.400797 98.540403 
L 129.654533 128.780403 
L 129.7814 127.035844 
L 129.908268 120.638637 
L 130.035136 123.740156 
L 130.288871 99.509766 
L 130.542607 124.51609 
L 130.796342 134.790012 
L 130.92321 125.291285 
L 131.050078 125.873051 
L 131.303813 140.023688 
L 131.430681 135.371039 
L 131.557549 136.922168 
L 131.811284 154.75609 
L 132.06502 142.155844 
L 132.318755 155.531285 
L 132.445623 153.011531 
L 132.699358 130.524961 
L 132.826226 149.328246 
L 132.953094 147.971285 
L 133.079962 130.912559 
L 133.206829 134.401676 
L 133.460565 146.032559 
L 134.475507 148.940649 
L 134.729242 137.309766 
L 134.85611 137.503195 
L 134.982978 135.17761 
L 135.109845 129.168 
L 135.363581 146.807754 
L 135.617316 126.260649 
L 135.744184 129.749766 
L 135.99792 144.675598 
L 136.251655 124.321922 
L 136.505391 141.768246 
L 136.759126 123.352559 
L 137.012862 149.910012 
L 137.139729 126.648246 
L 137.266597 127.61761 
L 137.393465 148.553051 
L 137.6472 121.802168 
L 137.900936 134.790012 
L 138.027803 122.964961 
L 138.154671 124.51609 
L 138.281539 133.433051 
L 138.535274 123.546727 
L 138.662142 128.392805 
L 138.78901 128.780403 
L 138.915878 132.657117 
L 139.169613 115.792559 
L 139.423349 135.565207 
L 139.93082 119.088246 
L 140.057687 125.097117 
L 140.184555 125.678883 
L 140.311423 109.007754 
L 140.438291 108.426727 
L 140.692026 132.26952 
L 140.818894 126.454078 
L 140.945761 128.392805 
L 141.072629 128.586235 
L 141.326365 125.291285 
L 141.453232 125.873051 
L 141.706968 129.749766 
L 141.833836 129.362168 
L 141.960703 128.392805 
L 142.087571 130.719129 
L 142.214439 139.441922 
L 142.341307 129.168 
L 142.468174 101.254324 
L 142.595042 102.223688 
L 142.848778 135.952805 
L 142.975645 119.863442 
L 143.102513 119.281676 
L 143.229381 128.97457 
L 143.356249 127.230012 
L 143.609984 119.475844 
L 143.736852 116.180156 
L 143.990587 106.875598 
L 144.244323 118.313051 
L 144.37119 119.670012 
L 144.498058 123.740156 
L 144.624926 116.180156 
L 144.751794 101.060156 
L 144.878661 108.620156 
L 145.005529 128.586235 
L 145.259265 101.060156 
L 145.513 113.272805 
L 145.639868 102.804715 
L 145.893603 126.260649 
L 146.147339 94.081922 
L 146.401074 113.85457 
L 146.65481 102.417117 
L 146.781678 103.386481 
L 146.908545 134.401676 
L 147.289148 115.792559 
L 147.542884 130.912559 
L 147.669752 123.934324 
L 147.796619 125.873051 
L 147.923487 120.445207 
L 148.050355 106.875598 
L 148.177223 105.906235 
L 148.30409 106.29457 
L 148.430958 107.263195 
L 148.557826 115.404961 
L 148.684694 113.466235 
L 148.811561 103.580649 
L 148.938429 108.232559 
L 149.319032 140.217117 
L 149.4459 137.503195 
L 149.572768 125.097117 
L 149.699636 125.873051 
L 149.953371 150.685207 
L 150.080239 148.746481 
L 150.333974 129.555598 
L 150.460842 131.106727 
L 150.714577 148.940649 
L 150.841445 140.217117 
L 150.968313 143.318637 
L 151.095181 161.540156 
L 151.222048 153.204961 
L 151.348916 128.392805 
L 151.475784 126.066481 
L 151.602652 126.260649 
L 151.856387 91.368 
L 151.983255 99.703195 
L 152.110123 92.337363 
L 152.23699 75.085207 
L 152.490726 108.814324 
L 152.617594 102.998883 
L 152.744461 91.562168 
L 152.998197 109.58952 
L 153.125064 100.672559 
L 153.251932 105.325207 
L 153.505668 126.066481 
L 153.632535 122.577363 
L 153.886271 128.780403 
L 154.013139 124.70952 
L 154.140006 126.454078 
L 154.266874 126.454078 
L 154.393742 125.097117 
L 154.52061 127.423442 
L 154.647477 126.648246 
L 154.774345 126.648246 
L 154.901213 125.097117 
L 155.154948 130.912559 
L 155.281816 130.137363 
L 155.535552 126.454078 
L 155.662419 123.352559 
L 155.789287 124.127754 
L 156.043022 131.881922 
L 156.16989 127.61761 
L 156.423626 139.82952 
L 156.677361 123.740156 
L 156.804229 127.61761 
L 156.931097 127.423442 
L 157.057964 124.70952 
L 157.184832 125.873051 
L 157.438568 115.017363 
L 157.565435 118.506481 
L 157.819171 129.168 
L 157.946039 125.678883 
L 158.96098 129.749766 
L 159.087848 134.014078 
L 159.341584 128.005207 
L 159.468451 134.595844 
L 159.595319 134.790012 
L 159.849055 128.97457 
L 159.975922 127.811039 
L 160.229658 118.700649 
L 160.356526 121.026235 
L 160.610261 133.238883 
L 160.737129 125.291285 
L 160.863997 124.51609 
L 160.990864 131.494324 
L 161.117732 131.106727 
L 161.371468 128.780403 
L 161.498335 128.392805 
L 161.752071 146.614324 
L 162.005806 124.321922 
L 162.259542 132.26952 
L 162.640145 150.878637 
L 163.020748 124.321922 
L 163.147616 153.980156 
L 163.274484 151.072805 
L 163.401351 151.266235 
L 163.528219 150.878637 
L 163.655087 153.204961 
L 163.908822 139.63609 
L 164.289426 149.328246 
L 164.543161 131.106727 
L 164.670029 130.719129 
L 164.796897 131.687754 
L 165.050632 128.198637 
L 165.1775 132.657117 
L 165.431235 158.632805 
L 165.684971 118.118883 
L 165.811838 121.995598 
L 165.938706 132.851285 
L 166.192442 131.300156 
L 166.319309 134.401676 
L 166.573045 127.230012 
L 166.82678 133.044715 
L 166.953648 128.780403 
L 167.207384 134.595844 
L 167.461119 126.260649 
L 167.714855 105.325207 
L 167.841722 108.039129 
L 168.222325 128.97457 
L 168.476061 114.823195 
L 168.602929 124.51609 
L 168.729796 125.678883 
L 168.856664 119.088246 
L 169.1104 131.494324 
L 169.491003 118.506481 
L 169.744738 122.771531 
L 169.871606 119.475844 
L 169.998474 119.863442 
L 170.252209 129.555598 
L 170.379077 128.198637 
L 170.505945 129.943195 
L 170.632813 129.749766 
L 170.75968 122.577363 
L 170.886548 122.577363 
L 171.013416 128.005207 
L 171.140283 124.127754 
L 171.267151 131.300156 
L 171.394019 128.005207 
L 171.647754 144.869766 
L 171.90149 128.392805 
L 172.155225 141.961676 
L 172.282093 146.032559 
L 172.408961 157.470012 
L 172.662696 138.279129 
L 172.789564 143.318637 
L 172.916432 153.980156 
L 173.0433 148.746481 
L 173.170167 137.503195 
L 173.297035 141.186481 
L 173.423903 149.521676 
L 173.677638 147.19609 
L 173.804506 151.65457 
L 173.931374 150.491039 
L 174.185109 147.026285 
L 175.073183 143.125207 
L 175.453787 127.811039 
L 175.707522 149.134078 
L 176.088125 131.106727 
L 176.214993 133.238883 
L 176.341861 138.279129 
L 176.468729 151.072805 
L 176.595596 145.257363 
L 176.722464 128.780403 
L 176.849332 133.820649 
L 177.103067 155.918883 
L 177.356803 134.790012 
L 177.48367 144.482168 
L 177.737406 142.350012 
L 177.991141 152.623195 
L 178.244877 138.666727 
L 178.371745 142.73761 
L 178.498612 142.155844 
L 178.752348 142.350012 
L 179.006083 131.300156 
L 179.132951 131.494324 
L 179.259819 132.657117 
L 179.386687 142.543442 
L 179.513554 131.494324 
L 179.640422 131.106727 
L 179.894158 128.780403 
L 180.021025 142.155844 
L 180.147893 141.961676 
L 180.274761 135.17761 
L 180.401628 141.380649 
L 180.528496 137.115598 
L 180.655364 126.066481 
L 180.909099 133.820649 
L 181.035967 133.433051 
L 181.289703 153.011531 
L 181.543438 147.971285 
L 181.797174 142.543442 
L 182.050909 149.328246 
L 182.177777 146.614324 
L 182.431512 157.081676 
L 182.55838 155.337117 
L 182.938983 127.61761 
L 183.065851 128.586235 
L 183.192719 138.860156 
L 183.319586 138.860156 
L 183.446454 134.790012 
L 183.70019 142.350012 
L 183.827057 138.666727 
L 183.953925 141.380649 
L 184.080793 137.309766 
L 184.207661 125.678883 
L 184.461396 141.768246 
L 184.715132 131.300156 
L 184.841999 132.851285 
L 184.968867 144.288 
L 185.095735 145.644961 
L 185.34947 121.608 
L 185.603206 134.401676 
L 185.730074 130.719129 
L 185.856941 130.719129 
L 185.983809 130.137363 
L 186.364412 156.500649 
L 186.745015 128.392805 
L 186.998751 133.626481 
L 187.125619 126.260649 
L 187.252486 128.780403 
L 187.506222 149.521676 
L 187.759957 123.352559 
L 188.013693 133.626481 
L 188.267428 127.035844 
L 188.394296 130.912559 
L 189.028635 104.550012 
L 189.155503 103.774078 
L 189.536106 120.05761 
L 189.662973 118.313051 
L 189.916709 126.648246 
L 190.170444 137.115598 
L 190.42418 125.291285 
L 190.677915 127.61761 
L 190.804783 127.035844 
L 190.931651 131.687754 
L 191.185386 149.910012 
L 191.312254 150.491039 
L 191.56599 144.09457 
L 191.819725 148.553051 
L 191.946593 146.032559 
L 192.580931 118.506481 
L 192.707799 123.159129 
L 192.961535 114.048 
L 193.088402 128.780403 
L 193.21527 128.392805 
L 193.342138 103.968246 
L 193.469006 104.161676 
L 193.595873 125.678883 
L 193.722741 126.648246 
L 193.849609 116.761922 
L 194.35708 129.362168 
L 194.610815 127.230012 
L 194.864551 132.463688 
L 194.991419 132.07609 
L 195.245154 123.934324 
L 195.498889 153.592559 
L 195.752625 101.254324 
L 195.879493 101.254324 
L 196.133228 129.555598 
L 196.260096 129.555598 
L 196.386964 112.110012 
L 196.513831 110.364715 
L 196.640699 122.383195 
L 196.767567 111.721676 
L 196.894435 115.792559 
L 197.021302 150.878637 
L 197.14817 141.186481 
L 197.275038 101.641922 
L 197.401906 107.651531 
L 197.528773 121.220403 
L 197.782509 106.29457 
L 197.909377 106.875598 
L 198.036244 98.928 
L 198.28998 135.565207 
L 198.543715 101.254324 
L 199.558657 118.506481 
L 199.685525 134.401676 
L 200.066128 110.946481 
L 200.319864 131.881922 
L 200.446731 129.362168 
L 200.573599 128.780403 
L 200.827335 99.122168 
L 201.08107 137.697363 
L 201.334805 113.272805 
L 201.461673 114.823195 
L 201.588541 113.466235 
L 201.715409 120.05761 
L 201.842276 133.238883 
L 202.096012 103.580649 
L 202.349747 157.85761 
L 202.603483 85.164961 
L 202.857218 120.832805 
L 202.984086 123.546727 
L 203.237822 154.561922 
L 203.491557 112.303442 
L 203.618425 114.242168 
L 203.745293 166.580403 
L 203.87216 158.826235 
L 203.999028 120.05761 
L 204.252764 137.309766 
L 204.379631 114.629766 
L 204.506499 116.180156 
L 204.633367 134.983442 
L 204.760234 134.208246 
L 205.01397 124.70952 
L 205.267705 130.912559 
L 205.394573 122.577363 
L 205.648309 141.186481 
L 205.902044 108.814324 
L 206.15578 137.891531 
L 206.282647 121.41457 
L 206.409515 121.802168 
L 206.536383 130.137363 
L 206.663251 118.894078 
L 206.790118 131.300156 
L 206.916986 159.408 
L 207.170722 102.417117 
L 207.678192 139.441922 
L 207.80506 117.924715 
L 207.931928 115.599129 
L 208.058796 137.309766 
L 208.312531 101.641922 
L 208.439399 102.417117 
L 208.566267 108.814324 
L 208.693134 104.550012 
L 208.820002 109.007754 
L 209.073738 131.494324 
L 209.200605 132.463688 
L 209.327473 130.719129 
L 209.581209 104.743442 
L 209.834944 130.719129 
L 209.961812 127.423442 
L 210.215547 111.528246 
L 210.59615 134.595844 
L 210.723018 129.168 
L 210.849886 104.161676 
L 210.976754 106.100403 
L 211.103621 134.014078 
L 211.230489 130.331531 
L 211.357357 113.078637 
L 211.484225 111.721676 
L 211.611092 107.457363 
L 211.73796 112.49761 
L 211.864828 127.811039 
L 212.118563 129.555598 
L 212.372299 120.638637 
L 212.499167 129.749766 
L 212.626034 123.546727 
L 212.752902 126.066481 
L 212.87977 154.174324 
L 213.006638 150.103442 
L 213.133505 121.608 
L 213.640976 141.380649 
L 213.767844 137.309766 
L 213.894712 119.670012 
L 214.021579 123.934324 
L 214.148447 142.155844 
L 214.275315 140.411285 
L 214.52905 117.343688 
L 214.782786 135.17761 
L 215.67086 154.174324 
L 215.924596 117.343688 
L 216.051463 142.155844 
L 216.178331 141.574078 
L 216.305199 126.454078 
L 216.432067 126.454078 
L 216.558934 125.291285 
L 216.81267 140.798883 
L 217.066405 124.903688 
L 217.193273 131.494324 
L 217.447008 119.281676 
L 217.700744 149.715844 
L 217.954479 129.168 
L 218.081347 128.586235 
L 218.208215 124.51609 
L 218.335083 127.230012 
L 218.46195 136.728 
L 218.715686 122.964961 
L 218.969421 134.014078 
L 219.223157 119.863442 
L 219.476892 148.746481 
L 219.730628 108.814324 
L 219.857495 117.14952 
L 219.984363 116.761922 
L 220.111231 115.017363 
L 220.238099 127.811039 
L 220.491834 121.41457 
L 220.618702 131.687754 
L 220.74557 129.555598 
L 220.872437 124.903688 
L 220.999305 136.53457 
L 221.126173 128.586235 
L 221.253041 105.518637 
L 221.379908 102.998883 
L 221.633644 126.066481 
L 221.760512 126.454078 
L 221.887379 124.70952 
L 222.014247 127.423442 
L 222.141115 137.309766 
L 222.267983 130.524961 
L 222.39485 117.343688 
L 222.902321 142.543442 
L 223.029189 134.595844 
L 223.156057 116.567754 
L 223.282924 120.638637 
L 223.409792 135.371039 
L 223.663528 124.321922 
L 223.790395 127.230012 
L 224.044131 100.479129 
L 224.297866 133.820649 
L 224.424734 126.648246 
L 224.551602 127.423442 
L 224.805337 100.091531 
L 224.932205 108.426727 
L 225.059073 128.586235 
L 225.185941 127.811039 
L 225.439676 117.924715 
L 225.693411 121.995598 
L 225.947147 110.364715 
L 226.200882 125.484715 
L 226.454618 106.682168 
L 226.581486 108.232559 
L 226.835221 134.595844 
L 227.088957 129.168 
L 227.215824 132.463688 
L 227.46956 104.93761 
L 227.723295 135.952805 
L 227.850163 129.943195 
L 227.977031 132.26952 
L 228.103899 157.081676 
L 228.357634 128.97457 
L 228.611369 150.491039 
L 228.738237 148.164715 
L 228.865105 150.491039 
L 229.11884 127.61761 
L 229.245708 141.574078 
L 229.372576 135.758637 
L 229.499444 115.017363 
L 229.753179 135.565207 
L 230.006915 124.903688 
L 230.26065 128.780403 
L 230.387518 130.331531 
L 230.768121 158.051039 
L 231.021857 125.484715 
L 231.148724 134.208246 
L 231.40246 155.143688 
L 231.656195 139.82952 
L 231.783063 147.19609 
L 231.909931 147.19609 
L 232.036798 134.014078 
L 232.163666 138.666727 
L 232.290534 155.918883 
L 232.417402 147.001922 
L 232.544269 127.423442 
L 232.671137 128.780403 
L 232.798005 133.433051 
L 233.05174 104.550012 
L 233.178608 109.783688 
L 233.432344 96.214078 
L 233.686079 123.546727 
L 233.939815 93.887754 
L 234.19355 127.61761 
L 234.447286 105.325207 
L 234.701021 130.331531 
L 234.827889 123.546727 
L 234.954756 125.097117 
L 235.081624 130.137363 
L 235.462227 124.321922 
L 235.715963 122.771531 
L 235.842831 126.454078 
L 235.969698 138.084961 
L 236.096566 139.054324 
L 236.350302 106.682168 
L 236.604037 120.251039 
L 236.730905 108.426727 
L 236.857773 110.558883 
L 237.111508 125.484715 
L 237.365244 111.528246 
L 237.618979 135.758637 
L 237.872714 92.919129 
L 237.999582 106.682168 
L 238.253318 95.244715 
L 238.507053 120.638637 
L 238.633921 108.039129 
L 238.887656 127.035844 
L 239.014524 120.05761 
L 239.141392 124.127754 
L 240.156334 105.325207 
L 240.410069 129.555598 
L 240.663805 102.611285 
L 240.790672 110.753051 
L 240.91754 110.364715 
L 241.171276 127.035844 
L 241.425011 98.928 
L 241.932482 134.983442 
L 242.186218 122.771531 
L 242.313085 124.127754 
L 242.566821 103.774078 
L 242.693689 106.682168 
L 242.947424 132.463688 
L 243.074292 125.873051 
L 243.328027 102.611285 
L 243.835498 138.860156 
L 243.962366 129.362168 
L 244.089234 107.844961 
L 244.216101 111.140649 
L 244.342969 150.685207 
L 244.596705 118.894078 
L 244.723572 132.463688 
L 244.85044 133.820649 
L 244.977308 124.321922 
L 245.104176 126.648246 
L 245.357911 108.814324 
L 245.611647 126.066481 
L 245.738514 125.097117 
L 245.865382 129.555598 
L 245.99225 127.61761 
L 246.245985 93.112559 
L 246.626589 137.503195 
L 246.880324 103.968246 
L 247.134059 113.466235 
L 247.260927 103.386481 
L 247.514663 127.423442 
L 247.64153 116.761922 
L 247.768398 116.374324 
L 247.895266 119.281676 
L 248.149001 100.284961 
L 248.275869 99.122168 
L 248.529605 112.110012 
L 248.656472 94.857117 
L 248.78334 93.500156 
L 248.910208 98.540403 
L 249.163943 81.288246 
L 249.417679 108.620156 
L 249.544547 100.479129 
L 249.671414 102.417117 
L 249.798282 100.866727 
L 249.92515 92.337363 
L 250.178885 114.048 
L 250.305753 107.457363 
L 250.432621 109.201922 
L 250.559488 126.648246 
L 250.813224 105.906235 
L 250.940092 114.823195 
L 251.066959 109.007754 
L 251.193827 97.183442 
L 251.57443 124.903688 
L 251.701298 124.51609 
L 251.955034 100.091531 
L 252.081901 104.93761 
L 252.208769 103.968246 
L 252.462505 94.663688 
L 252.589372 103.580649 
L 252.71624 102.611285 
L 252.843108 102.611285 
L 253.096843 118.700649 
L 253.350579 109.58952 
L 253.604314 133.626481 
L 253.85805 125.484715 
L 253.984917 130.524961 
L 254.238653 127.230012 
L 254.365521 126.648246 
L 254.492388 119.670012 
L 254.746124 131.494324 
L 254.872992 119.670012 
L 254.999859 128.780403 
L 255.126727 154.367754 
L 255.380463 141.041039 
L 256.395404 109.977117 
L 256.522272 115.211531 
L 256.64914 114.823195 
L 256.776008 119.088246 
L 256.902875 130.331531 
L 257.029743 128.392805 
L 257.156611 124.321922 
L 257.283479 127.423442 
L 257.410346 116.95609 
L 257.537214 122.964961 
L 257.664082 142.73761 
L 257.79095 138.860156 
L 257.917817 122.577363 
L 258.044685 121.802168 
L 258.171553 129.168 
L 258.552156 125.484715 
L 258.679024 125.291285 
L 258.932759 129.555598 
L 259.059627 126.841676 
L 259.186495 128.97457 
L 259.313362 139.247754 
L 259.44023 133.820649 
L 259.567098 118.894078 
L 259.820833 126.841676 
L 259.947701 122.383195 
L 260.074569 132.07609 
L 260.201437 132.657117 
L 260.328304 109.977117 
L 260.455172 108.232559 
L 260.58204 140.993051 
L 260.708908 126.260649 
L 260.962643 123.546727 
L 261.089511 130.524961 
L 261.216379 158.632805 
L 261.343246 153.011531 
L 261.470114 129.749766 
L 261.596982 143.125207 
L 261.72385 144.675598 
L 261.850717 121.220403 
L 262.104453 157.470012 
L 262.358188 129.168 
L 262.611924 158.632805 
L 263.119395 120.832805 
L 263.246262 126.260649 
L 263.499998 154.75609 
L 263.626866 146.032559 
L 263.753733 151.65457 
L 263.880601 150.103442 
L 264.134337 129.555598 
L 264.261204 134.014078 
L 264.388072 124.51609 
L 264.51494 126.648246 
L 264.641808 145.644961 
L 264.768675 141.961676 
L 264.895543 128.97457 
L 265.149278 144.09457 
L 265.276146 129.362168 
L 265.403014 131.300156 
L 265.656749 154.367754 
L 265.783617 150.29761 
L 266.037353 126.841676 
L 266.291088 161.927754 
L 266.417956 148.940649 
L 266.544824 122.577363 
L 266.671691 130.524961 
L 266.798559 151.460403 
L 266.925427 151.266235 
L 267.052295 145.063195 
L 267.179162 148.940649 
L 267.30603 147.38952 
L 267.432898 140.993051 
L 267.559766 148.164715 
L 267.686633 142.931039 
L 267.813501 126.066481 
L 268.067236 147.38952 
L 268.320972 121.026235 
L 268.701575 153.980156 
L 268.828443 142.543442 
L 268.955311 120.638637 
L 269.209046 148.164715 
L 269.462782 128.198637 
L 269.716517 130.137363 
L 269.843385 146.226727 
L 269.970253 147.38952 
L 270.223988 99.509766 
L 270.477724 130.137363 
L 270.604591 124.321922 
L 270.731459 132.07609 
L 270.858327 130.719129 
L 270.985195 121.220403 
L 271.23893 152.817363 
L 271.492665 119.088246 
L 271.746401 123.352559 
L 272.000136 138.472559 
L 272.127004 127.035844 
L 272.253872 127.423442 
L 272.507607 143.125207 
L 272.634475 141.380649 
L 272.761343 131.106727 
L 272.888211 136.340403 
L 273.015078 148.164715 
L 273.268814 136.922168 
L 273.395682 152.235598 
L 273.522549 152.235598 
L 273.649417 142.543442 
L 274.156888 164.641676 
L 274.410623 184.607754 
L 274.791227 145.451531 
L 275.044962 160.377363 
L 275.17183 147.001922 
L 275.298698 153.011531 
L 275.425565 174.140403 
L 275.552433 168.519129 
L 275.679301 157.081676 
L 275.933036 184.220156 
L 276.186772 155.337117 
L 276.31364 160.377363 
L 276.567375 181.700403 
L 276.694243 174.528 
L 276.821111 119.088246 
L 276.947978 120.05761 
L 277.074846 116.761922 
L 277.328581 103.193051 
L 277.455449 102.998883 
L 277.582317 102.223688 
L 277.709185 108.232559 
L 277.96292 105.518637 
L 278.089788 125.678883 
L 278.216656 124.903688 
L 278.470391 82.063442 
L 278.597259 86.71609 
L 278.724127 84.389766 
L 278.977862 107.069766 
L 279.10473 105.906235 
L 279.358465 94.46952 
L 279.612201 107.069766 
L 279.739069 106.100403 
L 280.75401 106.100403 
L 280.880878 109.58952 
L 281.134614 103.386481 
L 281.261481 103.968246 
L 281.388349 103.580649 
L 281.515217 101.447754 
L 281.642085 102.417117 
L 281.768952 104.743442 
L 281.89582 103.580649 
L 282.022688 100.284961 
L 282.149556 102.611285 
L 282.530159 129.555598 
L 282.657027 128.005207 
L 283.03763 103.193051 
L 283.164497 103.580649 
L 283.291365 99.703195 
L 283.545101 124.127754 
L 283.798836 101.060156 
L 284.052572 103.386481 
L 284.179439 110.364715 
L 284.433175 131.300156 
L 284.560043 123.934324 
L 284.813778 101.447754 
L 284.940646 108.039129 
L 285.067514 102.02952 
L 285.321249 103.774078 
L 285.701852 73.340649 
L 285.82872 75.666235 
L 286.082456 84.583195 
L 286.209323 79.737117 
L 286.463059 94.081922 
L 286.716794 76.829766 
L 286.843662 79.15609 
L 287.224265 110.171285 
L 287.731736 80.124715 
L 287.858604 79.15609 
L 287.985472 87.491285 
L 288.112339 105.325207 
L 288.239207 102.02952 
L 288.366075 84.195598 
L 288.492943 83.61457 
L 288.61981 86.521922 
L 288.873546 73.146481 
L 289.127281 87.491285 
L 289.381017 53.568 
L 289.507884 55.312559 
L 289.634752 59.383442 
L 289.76162 57.833051 
L 290.015355 82.838637 
L 290.269091 65.198883 
L 290.395959 67.912805 
L 290.522826 61.709766 
L 290.649694 66.555844 
L 290.90343 82.063442 
L 291.030297 82.063442 
L 291.157165 88.654078 
L 291.410901 83.032805 
L 291.537768 88.848246 
L 291.791504 79.15609 
L 292.045239 85.359129 
L 292.172107 87.297117 
L 292.298975 101.060156 
L 292.425842 102.223688 
L 292.679578 81.675844 
L 292.806446 86.521922 
L 292.933313 78.380156 
L 293.060181 122.771531 
L 293.187049 122.771531 
L 293.313917 124.127754 
L 293.440784 130.331531 
L 293.567652 128.586235 
L 293.69452 128.97457 
L 293.948255 133.820649 
L 294.201991 157.470012 
L 294.455726 148.164715 
L 294.709462 150.878637 
L 294.83633 153.399129 
L 295.090065 147.777117 
L 295.3438 154.75609 
L 295.597536 148.746481 
L 295.851271 173.171039 
L 295.978139 170.457117 
L 296.866213 151.460403 
L 297.119949 143.318637 
L 297.500552 152.235598 
L 297.62742 151.460403 
L 297.754288 153.011531 
L 297.881155 152.042168 
L 298.008023 146.420156 
L 298.134891 150.685207 
L 298.261758 165.41761 
L 298.388626 165.030012 
L 298.515494 147.971285 
L 298.642362 146.032559 
L 298.769229 156.888246 
L 298.896097 155.143688 
L 299.022965 149.521676 
L 299.2767 151.848 
L 299.403568 149.521676 
L 299.530436 149.328246 
L 299.784171 150.685207 
L 299.911039 151.266235 
L 300.291642 126.260649 
L 300.672246 136.146235 
L 300.925981 121.220403 
L 301.052849 126.066481 
L 301.179717 160.183195 
L 301.306584 159.602168 
L 301.56032 168.324961 
L 301.687187 164.254078 
L 301.940923 179.568246 
L 302.194658 175.497363 
L 302.575262 171.426481 
L 302.702129 173.752805 
L 302.828997 171.233051 
L 302.955865 171.620649 
L 303.2096 187.710012 
L 303.463336 169.87609 
L 303.590204 172.201676 
L 303.717071 172.008246 
L 303.843939 174.33457 
L 303.970807 181.312805 
L 304.224542 176.079129 
L 304.478278 186.353051 
L 304.732013 173.171039 
L 304.858881 175.884961 
L 304.985749 170.844715 
L 305.112616 178.404715 
L 305.239484 195.463442 
L 305.366352 192.361922 
L 305.49322 176.466727 
L 305.620087 175.109766 
L 305.746955 186.158883 
L 305.873823 182.088 
L 306.000691 173.752805 
L 306.254426 193.525084 
L 306.381294 192.943319 
L 306.508162 189.45457 
L 306.635029 182.669766 
L 306.761897 185.577117 
L 306.888765 198.75876 
L 307.1425 169.294324 
L 307.523103 203.605207 
L 307.776839 179.568246 
L 308.030574 200.115721 
L 308.157442 195.075844 
L 308.411178 181.118637 
L 308.538045 180.925207 
L 308.664913 179.374078 
L 308.918649 184.220156 
L 309.045516 181.312805 
L 309.172384 185.577117 
L 309.42612 149.910012 
L 309.552987 129.749766 
L 309.679855 130.331531 
L 309.806723 151.072805 
L 309.933591 148.746481 
L 310.060458 136.340403 
L 310.314194 147.38952 
L 310.567929 126.648246 
L 310.694797 134.595844 
L 310.948532 108.620156 
L 311.202268 132.463688 
L 311.329136 125.484715 
L 311.456003 126.454078 
L 311.709739 134.401676 
L 311.836607 132.851285 
L 312.090342 125.873051 
L 312.21721 128.005207 
L 312.470945 125.873051 
L 312.597813 129.362168 
L 312.724681 128.392805 
L 312.851549 124.127754 
L 313.105284 148.553051 
L 313.35902 124.70952 
L 313.612755 147.971285 
L 313.739623 137.309766 
L 313.86649 136.53457 
L 313.993358 147.001922 
L 314.120226 146.420156 
L 314.247094 141.574078 
L 314.500829 152.817363 
L 314.627697 150.878637 
L 314.754565 151.65457 
L 315.0083 177.43609 
L 315.388903 141.380649 
L 315.642639 151.848 
L 315.769507 147.38952 
L 316.023242 174.722168 
L 316.276978 167.162168 
L 316.403845 176.660156 
L 316.530713 177.43609 
L 316.657581 172.97761 
L 316.784448 174.915598 
L 316.911316 174.915598 
L 317.038184 173.558637 
L 317.291919 189.842168 
L 317.418787 104.355844 
L 317.672523 109.39609 
L 317.79939 103.580649 
L 317.926258 103.193051 
L 318.053126 103.580649 
L 318.179994 102.804715 
L 318.560597 118.313051 
L 318.687465 133.238883 
L 318.814332 130.912559 
L 319.068068 93.500156 
L 319.194936 97.37761 
L 319.321803 96.990012 
L 319.448671 103.193051 
L 319.575539 115.792559 
L 319.702406 113.272805 
L 319.829274 102.223688 
L 319.956142 105.712805 
L 320.209877 127.811039 
L 320.336745 126.260649 
L 321.351687 125.097117 
L 321.478555 131.300156 
L 321.605423 125.291285 
L 321.73229 126.648246 
L 321.859158 126.648246 
L 322.112894 105.518637 
L 322.366629 125.678883 
L 322.620364 106.488 
L 322.747232 114.242168 
L 323.000968 133.044715 
L 323.127835 128.780403 
L 323.254703 131.300156 
L 323.381571 126.648246 
L 323.635306 105.712805 
L 323.762174 106.682168 
L 323.889042 102.02952 
L 324.142777 132.07609 
L 324.269645 123.159129 
L 324.396513 103.386481 
L 324.523381 102.611285 
L 324.777116 117.924715 
L 325.030852 136.922168 
L 325.157719 131.687754 
L 325.411455 112.885207 
L 325.66519 116.95609 
L 325.918926 105.518637 
L 326.299529 66.361676 
L 326.553264 80.513051 
L 326.680132 80.318883 
L 326.807 78.186727 
L 327.060735 82.25761 
L 327.187603 79.15609 
L 327.314471 80.124715 
L 327.441339 73.921676 
L 327.568206 74.891039 
L 327.821942 107.844961 
L 328.075677 78.380156 
L 328.202545 82.451039 
L 328.456281 75.860403 
L 328.583148 85.940156 
L 328.836884 109.58952 
L 328.963751 98.73457 
L 329.090619 100.091531 
L 329.217487 96.601676 
L 329.471222 73.340649 
L 329.59809 90.398637 
L 329.724958 90.592805 
L 329.978693 56.47609 
L 330.105561 60.158637 
L 330.359297 54.731531 
L 330.486164 72.758883 
L 330.613032 74.503442 
L 330.7399 57.833051 
L 330.993635 71.207754 
L 331.120503 57.251285 
L 331.247371 66.361676 
L 331.374239 87.491285 
L 331.627974 79.15609 
L 331.754842 90.592805 
L 332.008577 85.940156 
L 332.135445 96.408246 
L 332.262313 92.337363 
L 332.38918 79.15609 
L 332.516048 86.327754 
L 332.642916 100.866727 
L 332.769784 101.254324 
L 333.023519 109.783688 
L 333.277255 83.808 
L 333.404122 90.786235 
L 333.53099 84.777363 
L 333.657858 125.291285 
L 333.784726 124.903688 
L 333.911593 126.454078 
L 334.165329 147.19609 
L 334.292197 143.125207 
L 334.419064 147.38952 
L 334.545932 145.839129 
L 334.6728 148.358883 
L 334.799667 162.31609 
L 334.926535 162.31609 
L 335.053403 152.429766 
L 335.180271 152.623195 
L 335.307138 154.94952 
L 335.434006 155.143688 
L 335.560874 154.367754 
L 335.687742 152.817363 
L 335.941477 164.254078 
L 336.068345 162.31609 
L 336.195213 165.41761 
L 336.448948 179.180649 
L 337.590758 146.614324 
L 337.717625 138.860156 
L 337.844493 140.411285 
L 337.971361 152.429766 
L 338.098229 150.491039 
L 338.225096 143.706235 
L 338.351964 148.358883 
L 338.478832 148.746481 
L 338.732567 138.666727 
L 338.859435 152.235598 
L 338.986303 152.623195 
L 339.240038 128.392805 
L 339.493774 157.85761 
L 339.747509 131.881922 
L 340.001245 151.65457 
L 340.128113 150.878637 
L 340.381848 159.020403 
L 340.635584 153.204961 
L 340.889319 137.697363 
L 341.143054 151.072805 
L 341.523658 136.53457 
L 341.650525 129.168 
L 341.777393 150.29761 
L 341.904261 147.001922 
L 342.157996 153.204961 
L 342.284864 152.817363 
L 342.5386 173.365207 
L 342.665467 173.171039 
L 342.792335 168.131531 
L 342.919203 171.426481 
L 343.046071 168.131531 
L 343.172938 156.306481 
L 343.299806 155.724715 
L 343.680409 180.925207 
L 343.807277 179.374078 
L 344.18788 159.21457 
L 344.314748 159.21457 
L 344.568483 179.180649 
L 344.822219 176.272559 
L 345.075954 185.964715 
L 345.202822 181.700403 
L 345.456558 171.426481 
L 345.583425 172.395844 
L 345.710293 181.506235 
L 345.837161 199.728123 
L 345.964029 197.014201 
L 346.090896 174.140403 
L 346.217764 174.528 
L 346.344632 191.586727 
L 346.598367 179.568246 
L 346.852103 203.21724 
L 347.232706 185.18952 
L 347.359574 186.546481 
L 347.486441 200.697487 
L 347.740177 173.365207 
L 348.12078 205.737363 
L 348.374516 174.140403 
L 348.628251 195.851039 
L 349.008854 170.263688 
L 349.135722 171.038883 
L 349.389458 177.43609 
L 349.643193 170.457117 
L 349.770061 184.220156 
L 349.896928 136.340403 
L 350.023796 131.881922 
L 350.150664 120.251039 
L 350.277532 118.894078 
L 350.531267 127.811039 
L 350.785003 122.383195 
L 351.038738 118.118883 
L 351.165606 121.026235 
L 351.292474 117.924715 
L 351.419341 102.417117 
L 351.546209 100.672559 
L 351.799945 123.740156 
L 351.926812 117.924715 
L 352.180548 139.054324 
L 352.434283 130.524961 
L 352.688019 119.670012 
L 352.814886 128.005207 
L 352.941754 126.066481 
L 353.068622 114.242168 
L 353.19549 118.118883 
L 353.322357 126.066481 
L 353.449225 122.189766 
L 353.576093 123.159129 
L 353.702961 130.912559 
L 353.829828 128.586235 
L 353.956696 118.506481 
L 354.083564 121.026235 
L 354.210432 125.873051 
L 354.464167 110.753051 
L 354.717903 127.811039 
L 354.84477 121.802168 
L 354.971638 121.995598 
L 355.098506 127.423442 
L 355.225374 126.260649 
L 355.352241 130.331531 
L 355.605977 158.051039 
L 355.732845 151.65457 
L 355.98658 110.558883 
L 356.240315 140.993051 
L 356.367183 138.084961 
L 356.494051 142.931039 
L 356.620919 156.113051 
L 356.874654 149.134078 
L 357.255257 177.241922 
L 357.382125 170.844715 
L 357.508993 153.592559 
L 357.635861 155.531285 
L 357.762728 173.365207 
L 357.889596 175.109766 
L 358.143332 139.247754 
L 358.397067 150.29761 
L 358.523935 144.675598 
L 358.77767 154.94952 
L 358.904538 148.358883 
L 359.031406 133.044715 
L 359.158273 141.380649 
L 359.285141 175.497363 
L 359.412009 178.598883 
L 359.665744 125.291285 
L 359.792612 132.657117 
L 360.046348 123.159129 
L 360.300083 147.777117 
L 360.426951 132.851285 
L 360.553819 132.463688 
L 360.934422 169.100156 
L 361.949364 148.940649 
L 362.076231 142.73761 
L 362.203099 127.811039 
L 362.329967 128.586235 
L 362.456835 138.666727 
L 362.71057 124.51609 
L 362.964306 134.790012 
L 363.091173 133.626481 
L 363.344909 123.546727 
L 363.598644 136.728 
L 363.725512 134.983442 
L 363.979248 152.042168 
L 364.232983 121.995598 
L 364.486719 129.943195 
L 364.740454 154.561922 
L 364.867322 151.072805 
L 365.121057 120.251039 
L 365.247925 125.678883 
L 365.50166 152.817363 
L 365.755396 156.306481 
L 366.009131 127.61761 
L 366.135999 266.411162 
L 366.389735 262.534447 
L 366.516602 271.839006 
L 366.64347 272.032805 
L 366.897206 244.11876 
L 367.277809 283.857487 
L 367.531544 264.279006 
L 367.658412 270.288246 
L 367.78528 266.992559 
L 367.912148 260.595721 
L 368.039015 265.441799 
L 368.292751 292.774447 
L 368.419618 292.386481 
L 368.800222 254.974447 
L 368.927089 250.321799 
L 369.180825 279.980403 
L 369.307693 277.460279 
L 369.561428 256.912805 
L 369.688296 270.288246 
L 369.815164 270.869643 
L 369.942031 253.811285 
L 370.068899 265.441799 
L 370.195767 288.703565 
L 370.57637 243.731162 
L 371.083841 264.666604 
L 371.210709 260.983319 
L 371.337576 252.066727 
L 371.591312 273.971162 
L 371.71818 268.737487 
L 371.845047 268.34952 
L 372.098783 295.488 
L 372.225651 291.02952 
L 372.352518 277.460279 
L 372.479386 276.491285 
L 372.606254 286.183442 
L 372.859989 275.715721 
L 372.986857 284.245084 
L 373.113725 283.663319 
L 373.240593 280.755967 
L 373.494328 294.325207 
L 373.748064 271.839006 
L 373.874931 271.25724 
L 374.001799 271.839006 
L 374.128667 268.737487 
L 374.255534 151.072805 
L 374.50927 175.497363 
L 374.636138 175.884961 
L 374.763005 172.783442 
L 374.889873 173.558637 
L 375.016741 176.079129 
L 375.143609 173.365207 
L 375.397344 182.282168 
L 375.524212 175.497363 
L 375.65108 175.109766 
L 375.777947 190.811531 
L 375.904815 190.423195 
L 376.158551 174.140403 
L 376.285418 175.497363 
L 376.539154 187.515844 
L 376.792889 162.31609 
L 377.046625 182.863195 
L 378.188434 151.460403 
L 378.44217 138.472559 
L 378.569038 150.103442 
L 378.822773 127.61761 
L 378.949641 135.952805 
L 379.076509 136.53457 
L 379.203376 124.70952 
L 379.457112 144.675598 
L 379.58398 140.217117 
L 379.837715 123.934324 
L 379.964583 129.943195 
L 380.09145 143.706235 
L 380.345186 127.423442 
L 380.598921 145.257363 
L 380.725789 132.26952 
L 380.979525 159.989766 
L 381.23326 141.186481 
L 381.486996 150.29761 
L 381.867599 154.75609 
L 381.994467 153.980156 
L 382.248202 146.614324 
L 382.501938 171.038883 
L 382.628805 166.192805 
L 382.755673 154.94952 
L 382.882541 159.020403 
L 383.136276 177.62952 
L 383.263144 173.946235 
L 383.643747 155.143688 
L 383.897483 151.460403 
L 384.02435 148.553051 
L 384.151218 152.429766 
L 384.278086 167.549766 
L 384.404954 162.50952 
L 384.658689 121.41457 
L 385.039292 137.115598 
L 385.16616 133.626481 
L 385.293028 133.626481 
L 385.546763 150.685207 
L 385.800499 124.51609 
L 385.927367 127.61761 
L 386.054234 119.863442 
L 386.181102 104.550012 
L 386.434837 130.137363 
L 386.688573 100.479129 
L 386.942308 124.51609 
L 387.196044 101.641922 
L 387.449779 128.198637 
L 387.703515 106.875598 
L 387.830383 109.39609 
L 387.95725 124.321922 
L 388.084118 124.903688 
L 388.337854 96.408246 
L 388.464721 100.479129 
L 388.718457 119.088246 
L 388.972192 102.611285 
L 389.225928 119.475844 
L 389.606531 102.804715 
L 389.733399 104.550012 
L 389.860266 101.83609 
L 390.114002 103.386481 
L 390.24087 103.968246 
L 390.367737 113.85457 
L 390.494605 207.288123 
L 390.621473 211.552805 
L 390.875208 190.423195 
L 391.002076 190.423195 
L 391.255812 174.528 
L 391.382679 181.700403 
L 391.636415 153.980156 
L 391.763283 154.561922 
L 391.89015 150.29761 
L 392.017018 139.247754 
L 392.143886 141.380649 
L 392.397621 165.998637 
L 392.524489 160.764961 
L 393.03196 179.180649 
L 393.158828 181.506235 
L 393.285695 169.294324 
L 393.412563 169.681922 
L 393.539431 175.691531 
L 393.666299 169.681922 
L 393.793166 169.681922 
L 393.920034 176.079129 
L 394.17377 172.97761 
L 394.300637 180.150012 
L 394.427505 179.568246 
L 394.554373 174.722168 
L 394.808108 187.903442 
L 395.061844 162.31609 
L 395.188711 163.673051 
L 395.315579 158.051039 
L 395.442447 147.38952 
L 395.569315 147.38952 
L 395.696182 147.971285 
L 395.82305 144.09457 
L 395.949918 146.032559 
L 396.203653 159.989766 
L 396.457389 141.768246 
L 396.711124 145.644961 
L 396.837992 145.063195 
L 396.96486 142.73761 
L 397.218595 173.946235 
L 397.472331 163.673051 
L 397.726066 184.220156 
L 397.852934 174.140403 
L 397.979802 176.079129 
L 398.10667 175.109766 
L 398.233537 175.497363 
L 398.360405 184.99609 
L 398.487273 177.43609 
L 398.487273 177.43609 
" clip-path="url(#pffa895a9b3)" style="fill: none; stroke: #1f77b4; stroke-width: 1.5; stroke-linecap: square"/>
   </g>
   <g id="patch_3">
    <path d="M 57.6 307.584 
L 57.6 41.472 
" style="fill: none; stroke: #000000; stroke-width: 0.8; stroke-linejoin: miter; stroke-linecap: square"/>
   </g>
   <g id="patch_4">
    <path d="M 414.72 307.584 
L 414.72 41.472 
" style="fill: none; stroke: #000000; stroke-width: 0.8; stroke-linejoin: miter; stroke-linecap: square"/>
   </g>
   <g id="patch_5">
    <path d="M 57.6 307.584 
L 414.72 307.584 
" style="fill: none; stroke: #000000; stroke-width: 0.8; stroke-linejoin: miter; stroke-linecap: square"/>
   </g>
   <g id="patch_6">
    <path d="M 57.6 41.472 
L 414.72 41.472 
" style="fill: none; stroke: #000000; stroke-width: 0.8; stroke-linejoin: miter; stroke-linecap: square"/>
   </g>
   <g id="legend_1">
    <g id="patch_7">
     <path d="M 354.074688 64.150125 
L 407.72 64.150125 
Q 409.72 64.150125 409.72 62.150125 
L 409.72 48.472 
Q 409.72 46.472 407.72 46.472 
L 354.074688 46.472 
Q 352.074688 46.472 352.074688 48.472 
L 352.074688 62.150125 
Q 352.074688 64.150125 354.074688 64.150125 
z
" style="fill: #ffffff; opacity: 0.8; stroke: #cccccc; stroke-linejoin: miter"/>
    </g>
    <g id="line2d_17">
     <path d="M 356.074688 54.570438 
L 366.074688 54.570438 
L 376.074688 54.570438 
" style="fill: none; stroke: #1f77b4; stroke-width: 1.5; stroke-linecap: square"/>
    </g>
    <g id="text_16">
     <!-- set3 -->
     <g transform="translate(384.074688 58.070438)scale(0.1 -0.1)">
      <defs>
       <path id="DejaVuSans-73" d="M 2834 3397 
L 2834 2853 
Q 2591 2978 2328 3040 
Q 2066 3103 1784 3103 
Q 1356 3103 1142 2972 
Q 928 2841 928 2578 
Q 928 2378 1081 2264 
Q 1234 2150 1697 2047 
L 1894 2003 
Q 2506 1872 2764 1633 
Q 3022 1394 3022 966 
Q 3022 478 2636 193 
Q 2250 -91 1575 -91 
Q 1294 -91 989 -36 
Q 684 19 347 128 
L 347 722 
Q 666 556 975 473 
Q 1284 391 1588 391 
Q 1994 391 2212 530 
Q 2431 669 2431 922 
Q 2431 1156 2273 1281 
Q 2116 1406 1581 1522 
L 1381 1569 
Q 847 1681 609 1914 
Q 372 2147 372 2553 
Q 372 3047 722 3315 
Q 1072 3584 1716 3584 
Q 2034 3584 2315 3537 
Q 2597 3491 2834 3397 
z
" transform="scale(0.015625)"/>
       <path id="DejaVuSans-65" d="M 3597 1894 
L 3597 1613 
L 953 1613 
Q 991 1019 1311 708 
Q 1631 397 2203 397 
Q 2534 397 2845 478 
Q 3156 559 3463 722 
L 3463 178 
Q 3153 47 2828 -22 
Q 2503 -91 2169 -91 
Q 1331 -91 842 396 
Q 353 884 353 1716 
Q 353 2575 817 3079 
Q 1281 3584 2069 3584 
Q 2775 3584 3186 3129 
Q 3597 2675 3597 1894 
z
M 3022 2063 
Q 3016 2534 2758 2815 
Q 2500 3097 2075 3097 
Q 1594 3097 1305 2825 
Q 1016 2553 972 2059 
L 3022 2063 
z
" transform="scale(0.015625)"/>
       <path id="DejaVuSans-74" d="M 1172 4494 
L 1172 3500 
L 2356 3500 
L 2356 3053 
L 1172 3053 
L 1172 1153 
Q 1172 725 1289 603 
Q 1406 481 1766 481 
L 2356 481 
L 2356 0 
L 1766 0 
Q 1100 0 847 248 
Q 594 497 594 1153 
L 594 3053 
L 172 3053 
L 172 3500 
L 594 3500 
L 594 4494 
L 1172 4494 
z
" transform="scale(0.015625)"/>
       <path id="DejaVuSans-33" d="M 2597 2516 
Q 3050 2419 3304 2112 
Q 3559 1806 3559 1356 
Q 3559 666 3084 287 
Q 2609 -91 1734 -91 
Q 1441 -91 1130 -33 
Q 819 25 488 141 
L 488 750 
Q 750 597 1062 519 
Q 1375 441 1716 441 
Q 2309 441 2620 675 
Q 2931 909 2931 1356 
Q 2931 1769 2642 2001 
Q 2353 2234 1838 2234 
L 1294 2234 
L 1294 2753 
L 1863 2753 
Q 2328 2753 2575 2939 
Q 2822 3125 2822 3475 
Q 2822 3834 2567 4026 
Q 2313 4219 1838 4219 
Q 1578 4219 1281 4162 
Q 984 4106 628 3988 
L 628 4550 
Q 988 4650 1302 4700 
Q 1616 4750 1894 4750 
Q 2613 4750 3031 4423 
Q 3450 4097 3450 3541 
Q 3450 3153 3228 2886 
Q 3006 2619 2597 2516 
z
" transform="scale(0.015625)"/>
      </defs>
      <use xlink:href="#DejaVuSans-73"/>
      <use xlink:href="#DejaVuSans-65" x="52.099609"/>
      <use xlink:href="#DejaVuSans-74" x="113.623047"/>
      <use xlink:href="#DejaVuSans-33" x="152.832031"/>
     </g>
    </g>
   </g>
  </g>
 </g>
 <defs>
  <clipPath id="pffa895a9b3">
   <rect x="57.6" y="41.472" width="357.12" height="266.112"/>
  </clipPath>
 </defs>
</svg>
