<?xml version="1.0" encoding="utf-8" standalone="no"?>
<!DOCTYPE svg PUBLIC "-//W3C//DTD SVG 1.1//EN"
  "http://www.w3.org/Graphics/SVG/1.1/DTD/svg11.dtd">
<svg xmlns:xlink="http://www.w3.org/1999/xlink" width="460.8pt" height="345.6pt" viewBox="0 0 460.8 345.6" xmlns="http://www.w3.org/2000/svg" version="1.1">
 <metadata>
  <rdf:RDF xmlns:dc="http://purl.org/dc/elements/1.1/" xmlns:cc="http://creativecommons.org/ns#" xmlns:rdf="http://www.w3.org/1999/02/22-rdf-syntax-ns#">
   <cc:Work>
    <dc:type rdf:resource="http://purl.org/dc/dcmitype/StillImage"/>
    <dc:date>2022-08-11T20:38:50.538894</dc:date>
    <dc:format>image/svg+xml</dc:format>
    <dc:creator>
     <cc:Agent>
      <dc:title>Matplotlib v3.5.2, https://matplotlib.org/</dc:title>
     </cc:Agent>
    </dc:creator>
   </cc:Work>
  </rdf:RDF>
 </metadata>
 <defs>
  <style type="text/css">*{stroke-linejoin: round; stroke-linecap: butt}</style>
 </defs>
 <g id="figure_1">
  <g id="patch_1">
   <path d="M 0 345.6 
L 460.8 345.6 
L 460.8 0 
L 0 0 
z
" style="fill: #ffffff"/>
  </g>
  <g id="axes_1">
   <g id="patch_2">
    <path d="M 57.6 307.584 
L 414.72 307.584 
L 414.72 41.472 
L 57.6 41.472 
z
" style="fill: #ffffff"/>
   </g>
   <g id="matplotlib.axis_1">
    <g id="xtick_1">
     <g id="line2d_1">
      <defs>
       <path id="mfe8ab55c29" d="M 0 0 
L 0 3.5 
" style="stroke: #000000; stroke-width: 0.8"/>
      </defs>
      <g>
       <use xlink:href="#mfe8ab55c29" x="73.832727" y="307.584" style="stroke: #000000; stroke-width: 0.8"/>
      </g>
     </g>
     <g id="text_1">
      <!-- 0 -->
      <g transform="translate(70.651477 322.182437)scale(0.1 -0.1)">
       <defs>
        <path id="DejaVuSans-30" d="M 2034 4250 
Q 1547 4250 1301 3770 
Q 1056 3291 1056 2328 
Q 1056 1369 1301 889 
Q 1547 409 2034 409 
Q 2525 409 2770 889 
Q 3016 1369 3016 2328 
Q 3016 3291 2770 3770 
Q 2525 4250 2034 4250 
z
M 2034 4750 
Q 2819 4750 3233 4129 
Q 3647 3509 3647 2328 
Q 3647 1150 3233 529 
Q 2819 -91 2034 -91 
Q 1250 -91 836 529 
Q 422 1150 422 2328 
Q 422 3509 836 4129 
Q 1250 4750 2034 4750 
z
" transform="scale(0.015625)"/>
       </defs>
       <use xlink:href="#DejaVuSans-30"/>
      </g>
     </g>
    </g>
    <g id="xtick_2">
     <g id="line2d_2">
      <g>
       <use xlink:href="#mfe8ab55c29" x="124.71902" y="307.584" style="stroke: #000000; stroke-width: 0.8"/>
      </g>
     </g>
     <g id="text_2">
      <!-- 50 -->
      <g transform="translate(118.35652 322.182437)scale(0.1 -0.1)">
       <defs>
        <path id="DejaVuSans-35" d="M 691 4666 
L 3169 4666 
L 3169 4134 
L 1269 4134 
L 1269 2991 
Q 1406 3038 1543 3061 
Q 1681 3084 1819 3084 
Q 2600 3084 3056 2656 
Q 3513 2228 3513 1497 
Q 3513 744 3044 326 
Q 2575 -91 1722 -91 
Q 1428 -91 1123 -41 
Q 819 9 494 109 
L 494 744 
Q 775 591 1075 516 
Q 1375 441 1709 441 
Q 2250 441 2565 725 
Q 2881 1009 2881 1497 
Q 2881 1984 2565 2268 
Q 2250 2553 1709 2553 
Q 1456 2553 1204 2497 
Q 953 2441 691 2322 
L 691 4666 
z
" transform="scale(0.015625)"/>
       </defs>
       <use xlink:href="#DejaVuSans-35"/>
       <use xlink:href="#DejaVuSans-30" x="63.623047"/>
      </g>
     </g>
    </g>
    <g id="xtick_3">
     <g id="line2d_3">
      <g>
       <use xlink:href="#mfe8ab55c29" x="175.605312" y="307.584" style="stroke: #000000; stroke-width: 0.8"/>
      </g>
     </g>
     <g id="text_3">
      <!-- 100 -->
      <g transform="translate(166.061562 322.182437)scale(0.1 -0.1)">
       <defs>
        <path id="DejaVuSans-31" d="M 794 531 
L 1825 531 
L 1825 4091 
L 703 3866 
L 703 4441 
L 1819 4666 
L 2450 4666 
L 2450 531 
L 3481 531 
L 3481 0 
L 794 0 
L 794 531 
z
" transform="scale(0.015625)"/>
       </defs>
       <use xlink:href="#DejaVuSans-31"/>
       <use xlink:href="#DejaVuSans-30" x="63.623047"/>
       <use xlink:href="#DejaVuSans-30" x="127.246094"/>
      </g>
     </g>
    </g>
    <g id="xtick_4">
     <g id="line2d_4">
      <g>
       <use xlink:href="#mfe8ab55c29" x="226.491604" y="307.584" style="stroke: #000000; stroke-width: 0.8"/>
      </g>
     </g>
     <g id="text_4">
      <!-- 150 -->
      <g transform="translate(216.947854 322.182437)scale(0.1 -0.1)">
       <use xlink:href="#DejaVuSans-31"/>
       <use xlink:href="#DejaVuSans-35" x="63.623047"/>
       <use xlink:href="#DejaVuSans-30" x="127.246094"/>
      </g>
     </g>
    </g>
    <g id="xtick_5">
     <g id="line2d_5">
      <g>
       <use xlink:href="#mfe8ab55c29" x="277.377897" y="307.584" style="stroke: #000000; stroke-width: 0.8"/>
      </g>
     </g>
     <g id="text_5">
      <!-- 200 -->
      <g transform="translate(267.834147 322.182437)scale(0.1 -0.1)">
       <defs>
        <path id="DejaVuSans-32" d="M 1228 531 
L 3431 531 
L 3431 0 
L 469 0 
L 469 531 
Q 828 903 1448 1529 
Q 2069 2156 2228 2338 
Q 2531 2678 2651 2914 
Q 2772 3150 2772 3378 
Q 2772 3750 2511 3984 
Q 2250 4219 1831 4219 
Q 1534 4219 1204 4116 
Q 875 4013 500 3803 
L 500 4441 
Q 881 4594 1212 4672 
Q 1544 4750 1819 4750 
Q 2544 4750 2975 4387 
Q 3406 4025 3406 3419 
Q 3406 3131 3298 2873 
Q 3191 2616 2906 2266 
Q 2828 2175 2409 1742 
Q 1991 1309 1228 531 
z
" transform="scale(0.015625)"/>
       </defs>
       <use xlink:href="#DejaVuSans-32"/>
       <use xlink:href="#DejaVuSans-30" x="63.623047"/>
       <use xlink:href="#DejaVuSans-30" x="127.246094"/>
      </g>
     </g>
    </g>
    <g id="xtick_6">
     <g id="line2d_6">
      <g>
       <use xlink:href="#mfe8ab55c29" x="328.264189" y="307.584" style="stroke: #000000; stroke-width: 0.8"/>
      </g>
     </g>
     <g id="text_6">
      <!-- 250 -->
      <g transform="translate(318.720439 322.182437)scale(0.1 -0.1)">
       <use xlink:href="#DejaVuSans-32"/>
       <use xlink:href="#DejaVuSans-35" x="63.623047"/>
       <use xlink:href="#DejaVuSans-30" x="127.246094"/>
      </g>
     </g>
    </g>
    <g id="xtick_7">
     <g id="line2d_7">
      <g>
       <use xlink:href="#mfe8ab55c29" x="379.150482" y="307.584" style="stroke: #000000; stroke-width: 0.8"/>
      </g>
     </g>
     <g id="text_7">
      <!-- 300 -->
      <g transform="translate(369.606732 322.182437)scale(0.1 -0.1)">
       <defs>
        <path id="DejaVuSans-33" d="M 2597 2516 
Q 3050 2419 3304 2112 
Q 3559 1806 3559 1356 
Q 3559 666 3084 287 
Q 2609 -91 1734 -91 
Q 1441 -91 1130 -33 
Q 819 25 488 141 
L 488 750 
Q 750 597 1062 519 
Q 1375 441 1716 441 
Q 2309 441 2620 675 
Q 2931 909 2931 1356 
Q 2931 1769 2642 2001 
Q 2353 2234 1838 2234 
L 1294 2234 
L 1294 2753 
L 1863 2753 
Q 2328 2753 2575 2939 
Q 2822 3125 2822 3475 
Q 2822 3834 2567 4026 
Q 2313 4219 1838 4219 
Q 1578 4219 1281 4162 
Q 984 4106 628 3988 
L 628 4550 
Q 988 4650 1302 4700 
Q 1616 4750 1894 4750 
Q 2613 4750 3031 4423 
Q 3450 4097 3450 3541 
Q 3450 3153 3228 2886 
Q 3006 2619 2597 2516 
z
" transform="scale(0.015625)"/>
       </defs>
       <use xlink:href="#DejaVuSans-33"/>
       <use xlink:href="#DejaVuSans-30" x="63.623047"/>
       <use xlink:href="#DejaVuSans-30" x="127.246094"/>
      </g>
     </g>
    </g>
   </g>
   <g id="matplotlib.axis_2">
    <g id="ytick_1">
     <g id="line2d_8">
      <defs>
       <path id="m332cf56cdb" d="M 0 0 
L -3.5 0 
" style="stroke: #000000; stroke-width: 0.8"/>
      </defs>
      <g>
       <use xlink:href="#m332cf56cdb" x="57.6" y="279.508224" style="stroke: #000000; stroke-width: 0.8"/>
      </g>
     </g>
     <g id="text_8">
      <!-- 3.5 -->
      <g transform="translate(34.696875 283.307443)scale(0.1 -0.1)">
       <defs>
        <path id="DejaVuSans-2e" d="M 684 794 
L 1344 794 
L 1344 0 
L 684 0 
L 684 794 
z
" transform="scale(0.015625)"/>
       </defs>
       <use xlink:href="#DejaVuSans-33"/>
       <use xlink:href="#DejaVuSans-2e" x="63.623047"/>
       <use xlink:href="#DejaVuSans-35" x="95.410156"/>
      </g>
     </g>
    </g>
    <g id="ytick_2">
     <g id="line2d_9">
      <g>
       <use xlink:href="#m332cf56cdb" x="57.6" y="249.17931" style="stroke: #000000; stroke-width: 0.8"/>
      </g>
     </g>
     <g id="text_9">
      <!-- 4.0 -->
      <g transform="translate(34.696875 252.978529)scale(0.1 -0.1)">
       <defs>
        <path id="DejaVuSans-34" d="M 2419 4116 
L 825 1625 
L 2419 1625 
L 2419 4116 
z
M 2253 4666 
L 3047 4666 
L 3047 1625 
L 3713 1625 
L 3713 1100 
L 3047 1100 
L 3047 0 
L 2419 0 
L 2419 1100 
L 313 1100 
L 313 1709 
L 2253 4666 
z
" transform="scale(0.015625)"/>
       </defs>
       <use xlink:href="#DejaVuSans-34"/>
       <use xlink:href="#DejaVuSans-2e" x="63.623047"/>
       <use xlink:href="#DejaVuSans-30" x="95.410156"/>
      </g>
     </g>
    </g>
    <g id="ytick_3">
     <g id="line2d_10">
      <g>
       <use xlink:href="#m332cf56cdb" x="57.6" y="218.850396" style="stroke: #000000; stroke-width: 0.8"/>
      </g>
     </g>
     <g id="text_10">
      <!-- 4.5 -->
      <g transform="translate(34.696875 222.649614)scale(0.1 -0.1)">
       <use xlink:href="#DejaVuSans-34"/>
       <use xlink:href="#DejaVuSans-2e" x="63.623047"/>
       <use xlink:href="#DejaVuSans-35" x="95.410156"/>
      </g>
     </g>
    </g>
    <g id="ytick_4">
     <g id="line2d_11">
      <g>
       <use xlink:href="#m332cf56cdb" x="57.6" y="188.521481" style="stroke: #000000; stroke-width: 0.8"/>
      </g>
     </g>
     <g id="text_11">
      <!-- 5.0 -->
      <g transform="translate(34.696875 192.3207)scale(0.1 -0.1)">
       <use xlink:href="#DejaVuSans-35"/>
       <use xlink:href="#DejaVuSans-2e" x="63.623047"/>
       <use xlink:href="#DejaVuSans-30" x="95.410156"/>
      </g>
     </g>
    </g>
    <g id="ytick_5">
     <g id="line2d_12">
      <g>
       <use xlink:href="#m332cf56cdb" x="57.6" y="158.192567" style="stroke: #000000; stroke-width: 0.8"/>
      </g>
     </g>
     <g id="text_12">
      <!-- 5.5 -->
      <g transform="translate(34.696875 161.991786)scale(0.1 -0.1)">
       <use xlink:href="#DejaVuSans-35"/>
       <use xlink:href="#DejaVuSans-2e" x="63.623047"/>
       <use xlink:href="#DejaVuSans-35" x="95.410156"/>
      </g>
     </g>
    </g>
    <g id="ytick_6">
     <g id="line2d_13">
      <g>
       <use xlink:href="#m332cf56cdb" x="57.6" y="127.863652" style="stroke: #000000; stroke-width: 0.8"/>
      </g>
     </g>
     <g id="text_13">
      <!-- 6.0 -->
      <g transform="translate(34.696875 131.662871)scale(0.1 -0.1)">
       <defs>
        <path id="DejaVuSans-36" d="M 2113 2584 
Q 1688 2584 1439 2293 
Q 1191 2003 1191 1497 
Q 1191 994 1439 701 
Q 1688 409 2113 409 
Q 2538 409 2786 701 
Q 3034 994 3034 1497 
Q 3034 2003 2786 2293 
Q 2538 2584 2113 2584 
z
M 3366 4563 
L 3366 3988 
Q 3128 4100 2886 4159 
Q 2644 4219 2406 4219 
Q 1781 4219 1451 3797 
Q 1122 3375 1075 2522 
Q 1259 2794 1537 2939 
Q 1816 3084 2150 3084 
Q 2853 3084 3261 2657 
Q 3669 2231 3669 1497 
Q 3669 778 3244 343 
Q 2819 -91 2113 -91 
Q 1303 -91 875 529 
Q 447 1150 447 2328 
Q 447 3434 972 4092 
Q 1497 4750 2381 4750 
Q 2619 4750 2861 4703 
Q 3103 4656 3366 4563 
z
" transform="scale(0.015625)"/>
       </defs>
       <use xlink:href="#DejaVuSans-36"/>
       <use xlink:href="#DejaVuSans-2e" x="63.623047"/>
       <use xlink:href="#DejaVuSans-30" x="95.410156"/>
      </g>
     </g>
    </g>
    <g id="ytick_7">
     <g id="line2d_14">
      <g>
       <use xlink:href="#m332cf56cdb" x="57.6" y="97.534738" style="stroke: #000000; stroke-width: 0.8"/>
      </g>
     </g>
     <g id="text_14">
      <!-- 6.5 -->
      <g transform="translate(34.696875 101.333957)scale(0.1 -0.1)">
       <use xlink:href="#DejaVuSans-36"/>
       <use xlink:href="#DejaVuSans-2e" x="63.623047"/>
       <use xlink:href="#DejaVuSans-35" x="95.410156"/>
      </g>
     </g>
    </g>
    <g id="ytick_8">
     <g id="line2d_15">
      <g>
       <use xlink:href="#m332cf56cdb" x="57.6" y="67.205824" style="stroke: #000000; stroke-width: 0.8"/>
      </g>
     </g>
     <g id="text_15">
      <!-- 7.0 -->
      <g transform="translate(34.696875 71.005042)scale(0.1 -0.1)">
       <defs>
        <path id="DejaVuSans-37" d="M 525 4666 
L 3525 4666 
L 3525 4397 
L 1831 0 
L 1172 0 
L 2766 4134 
L 525 4134 
L 525 4666 
z
" transform="scale(0.015625)"/>
       </defs>
       <use xlink:href="#DejaVuSans-37"/>
       <use xlink:href="#DejaVuSans-2e" x="63.623047"/>
       <use xlink:href="#DejaVuSans-30" x="95.410156"/>
      </g>
     </g>
    </g>
   </g>
   <g id="line2d_16">
    <path d="M 73.832727 183.571805 
L 75.868179 238.462552 
L 76.885905 241.664144 
L 77.903631 249.826429 
L 78.921357 249.219448 
L 79.939082 248.982789 
L 80.956808 253.698538 
L 81.974534 245.206215 
L 82.99226 247.566485 
L 84.009986 254.590019 
L 85.027712 252.43098 
L 86.045437 259.256965 
L 87.063163 275.026633 
L 88.080889 263.296874 
L 89.098615 278.60391 
L 90.116341 284.488684 
L 91.134067 272.10611 
L 92.151793 264.159117 
L 93.169518 269.747759 
L 94.187244 279.773339 
L 96.222696 272.213124 
L 97.240422 281.947541 
L 98.258148 277.972434 
L 99.275873 283.033086 
L 100.293599 265.289355 
L 101.311325 283.887566 
L 102.329051 288.790475 
L 103.346777 280.003617 
L 104.364503 289.377525 
L 105.382229 285.071055 
L 106.399954 271.636035 
L 107.41768 267.272865 
L 108.435406 285.632336 
L 109.453132 285.773005 
L 111.488584 295.097653 
L 112.506309 272.440044 
L 113.524035 295.261972 
L 114.541761 272.578145 
L 115.559487 286.277929 
L 116.577213 268.122433 
L 117.594939 272.704737 
L 118.612665 290.927088 
L 119.63039 277.296936 
L 121.665842 268.215433 
L 122.683568 290.962696 
L 123.701294 286.409333 
L 125.736746 295.488 
L 126.754471 277.275482 
L 127.772197 268.158667 
L 128.789923 286.335211 
L 129.807649 286.31202 
L 130.825375 277.188015 
L 131.843101 286.25944 
L 133.878552 286.199962 
L 134.896278 277.069395 
L 135.914004 281.585601 
L 136.93173 281.551359 
L 137.949456 276.966783 
L 138.967182 137.136593 
L 139.984907 154.152175 
L 141.002633 148.242748 
L 142.020359 155.327603 
L 143.038085 158.19212 
L 144.055811 174.968097 
L 145.073537 178.392251 
L 146.091262 173.040123 
L 147.108988 177.138563 
L 148.126714 197.197966 
L 149.14444 176.404428 
L 150.162166 182.839752 
L 151.179892 193.733453 
L 153.215343 196.912693 
L 154.233069 189.114849 
L 155.250795 194.706119 
L 156.268521 182.044016 
L 157.286247 196.586908 
L 158.303973 201.941203 
L 159.321698 193.557547 
L 160.339424 194.18603 
L 161.35715 203.833924 
L 162.374876 199.766625 
L 163.392602 213.847449 
L 164.410328 200.581903 
L 165.428054 205.467537 
L 166.445779 192.113605 
L 167.463505 206.017852 
L 168.481231 188.043323 
L 169.498957 210.983552 
L 170.516683 206.601855 
L 171.534409 188.548236 
L 172.552135 202.318509 
L 173.56986 188.773514 
L 174.587586 211.606046 
L 175.605312 198.028567 
L 176.623038 198.085409 
L 177.640764 207.228631 
L 178.65849 189.064755 
L 179.676215 216.384336 
L 180.693941 198.201669 
L 181.711667 207.307082 
L 182.729393 202.757369 
L 184.764845 211.836811 
L 185.782571 198.171192 
L 186.800296 207.247663 
L 187.818022 211.770679 
L 188.835748 198.092657 
L 189.853474 188.960663 
L 190.8712 202.572389 
L 191.888926 197.984107 
L 192.906651 197.942779 
L 193.924377 202.448651 
L 196.977555 202.307532 
L 197.995281 211.356185 
L 199.013007 197.656913 
L 200.030732 202.153878 
L 201.048458 215.74852 
L 203.08391 206.540514 
L 204.101636 217.977706 
L 205.119362 195.542466 
L 206.137087 195.531641 
L 207.154813 173.674083 
L 208.172539 187.759808 
L 209.190265 178.73746 
L 210.207991 178.407292 
L 211.225717 163.986502 
L 212.243443 167.279814 
L 213.261168 146.352672 
L 214.278894 143.498104 
L 215.29662 158.93366 
L 216.314346 151.747977 
L 217.332072 135.634495 
L 218.349798 133.39311 
L 219.367524 140.535854 
L 220.385249 143.485477 
L 221.402975 132.864325 
L 222.420701 136.016528 
L 223.438427 121.095183 
L 224.456153 124.49499 
L 225.473879 137.112578 
L 226.491604 131.641907 
L 227.50933 117.165026 
L 228.527056 130.05193 
L 229.544782 115.712101 
L 230.562508 110.534484 
L 231.580234 123.61231 
L 232.59796 118.544859 
L 233.615685 136.270071 
L 234.633411 135.838212 
L 236.668863 107.782627 
L 237.686589 125.646164 
L 238.704315 107.141469 
L 239.72204 111.407068 
L 240.739766 111.144381 
L 241.757492 129.097859 
L 243.792944 119.560447 
L 244.81067 123.91164 
L 245.828396 105.528335 
L 247.863847 114.286665 
L 248.881573 132.327472 
L 249.899299 113.981425 
L 250.917025 113.839757 
L 251.934751 109.155046 
L 252.952476 118.123982 
L 253.970202 113.449953 
L 254.987928 122.428457 
L 256.005654 104.114987 
L 257.02338 126.749178 
L 258.041106 108.442582 
L 259.058832 117.434918 
L 260.076557 112.781845 
L 261.094283 117.229778 
L 262.112009 112.581123 
L 263.129735 103.385 
L 264.147461 107.838559 
L 265.165187 116.842953 
L 266.182913 103.101999 
L 267.200638 107.559592 
L 268.218364 125.666267 
L 269.23609 97.073595 
L 270.253816 108.808438 
L 271.271542 106.215026 
L 272.289268 98.663583 
L 273.306993 104.965676 
L 274.324719 120.531007 
L 275.342445 108.985349 
L 276.360171 111.289124 
L 277.377897 132.010112 
L 278.395623 128.586611 
L 279.413349 116.121314 
L 280.431074 126.360675 
L 281.4488 113.796453 
L 282.466526 123.901357 
L 283.484252 120.256487 
L 284.501978 125.580623 
L 285.519704 112.545567 
L 286.537429 122.22215 
L 287.555155 118.193802 
L 288.572881 123.207899 
L 289.590607 123.616424 
L 290.608333 142.168189 
L 291.626059 133.374371 
L 292.643785 142.735893 
L 293.66151 142.967955 
L 294.679236 134.06986 
L 295.696962 143.340241 
L 297.732414 134.508509 
L 298.75014 125.510573 
L 299.767865 125.593 
L 300.785591 121.109887 
L 301.803317 139.358504 
L 302.821043 116.649656 
L 303.838769 125.774129 
L 304.856495 125.789183 
L 305.874221 134.893331 
L 306.891946 134.890237 
L 307.909672 121.231436 
L 308.927398 116.664378 
L 309.945124 130.288462 
L 310.96285 130.258977 
L 311.980576 125.67518 
L 314.016027 134.692026 
L 315.033753 125.546854 
L 316.051479 134.595814 
L 317.069205 134.543219 
L 318.086931 116.290692 
L 319.104657 134.430547 
L 321.140108 134.309545 
L 322.157834 138.795778 
L 323.17556 125.083165 
L 324.193286 143.214567 
L 325.211012 143.147415 
L 326.228738 124.881832 
L 327.246463 120.263288 
L 328.264189 133.841221 
L 329.281915 120.122348 
L 330.299641 129.149457 
L 331.317367 133.626597 
L 332.335093 142.652507 
L 333.352818 124.381883 
L 334.370544 53.568 
L 335.38827 60.024013 
L 336.405996 74.396824 
L 337.423722 61.310212 
L 338.441448 71.052562 
L 339.459174 67.212787 
L 340.476899 67.996414 
L 341.494625 82.508667 
L 342.512351 65.263545 
L 343.530077 61.107347 
L 344.547803 66.072604 
L 345.565529 75.570412 
L 346.583254 66.848133 
L 347.60098 62.644185 
L 348.618706 81.146233 
L 349.636432 76.84974 
L 350.654158 63.389843 
L 351.671884 68.113285 
L 352.68961 68.264625 
L 353.707335 86.590826 
L 355.742787 68.584554 
L 356.760513 64.100109 
L 357.778239 68.697532 
L 358.795965 86.930649 
L 359.813691 68.756472 
L 360.831416 64.218751 
L 361.849142 68.769139 
L 362.866868 77.85939 
L 363.884594 68.743926 
L 365.920046 86.886542 
L 366.937771 73.201928 
L 367.955497 64.061271 
L 368.973223 73.113137 
L 369.990949 68.512685 
L 371.008675 77.556401 
L 373.044127 59.239175 
L 374.061852 63.724246 
L 375.079578 59.108149 
L 377.11503 68.066835 
L 378.132756 86.191396 
L 379.150482 67.919649 
L 380.168207 72.393143 
L 381.185933 67.766664 
L 382.203659 81.33637 
L 383.221385 76.707683 
L 384.239111 76.627395 
L 385.256837 67.44759 
L 386.274563 71.91504 
L 387.292288 67.283135 
L 388.310014 76.298631 
L 389.32774 58.017554 
L 390.345466 67.032005 
L 391.363192 71.496674 
L 392.380918 66.862268 
L 393.398643 75.875513 
L 394.416369 57.592409 
L 396.451821 75.617396 
L 397.469547 66.432169 
L 398.487273 70.894737 
L 398.487273 70.894737 
" clip-path="url(#pcbc0cd1ca4)" style="fill: none; stroke: #1f77b4; stroke-width: 1.5; stroke-linecap: square"/>
   </g>
   <g id="patch_3">
    <path d="M 57.6 307.584 
L 57.6 41.472 
" style="fill: none; stroke: #000000; stroke-width: 0.8; stroke-linejoin: miter; stroke-linecap: square"/>
   </g>
   <g id="patch_4">
    <path d="M 414.72 307.584 
L 414.72 41.472 
" style="fill: none; stroke: #000000; stroke-width: 0.8; stroke-linejoin: miter; stroke-linecap: square"/>
   </g>
   <g id="patch_5">
    <path d="M 57.6 307.584 
L 414.72 307.584 
" style="fill: none; stroke: #000000; stroke-width: 0.8; stroke-linejoin: miter; stroke-linecap: square"/>
   </g>
   <g id="patch_6">
    <path d="M 57.6 41.472 
L 414.72 41.472 
" style="fill: none; stroke: #000000; stroke-width: 0.8; stroke-linejoin: miter; stroke-linecap: square"/>
   </g>
   <g id="legend_1">
    <g id="patch_7">
     <path d="M 64.6 64.150125 
L 118.245312 64.150125 
Q 120.245312 64.150125 120.245312 62.150125 
L 120.245312 48.472 
Q 120.245312 46.472 118.245312 46.472 
L 64.6 46.472 
Q 62.6 46.472 62.6 48.472 
L 62.6 62.150125 
Q 62.6 64.150125 64.6 64.150125 
z
" style="fill: #ffffff; opacity: 0.8; stroke: #cccccc; stroke-linejoin: miter"/>
    </g>
    <g id="line2d_17">
     <path d="M 66.6 54.570438 
L 76.6 54.570438 
L 86.6 54.570438 
" style="fill: none; stroke: #1f77b4; stroke-width: 1.5; stroke-linecap: square"/>
    </g>
    <g id="text_16">
     <!-- set1 -->
     <g transform="translate(94.6 58.070438)scale(0.1 -0.1)">
      <defs>
       <path id="DejaVuSans-73" d="M 2834 3397 
L 2834 2853 
Q 2591 2978 2328 3040 
Q 2066 3103 1784 3103 
Q 1356 3103 1142 2972 
Q 928 2841 928 2578 
Q 928 2378 1081 2264 
Q 1234 2150 1697 2047 
L 1894 2003 
Q 2506 1872 2764 1633 
Q 3022 1394 3022 966 
Q 3022 478 2636 193 
Q 2250 -91 1575 -91 
Q 1294 -91 989 -36 
Q 684 19 347 128 
L 347 722 
Q 666 556 975 473 
Q 1284 391 1588 391 
Q 1994 391 2212 530 
Q 2431 669 2431 922 
Q 2431 1156 2273 1281 
Q 2116 1406 1581 1522 
L 1381 1569 
Q 847 1681 609 1914 
Q 372 2147 372 2553 
Q 372 3047 722 3315 
Q 1072 3584 1716 3584 
Q 2034 3584 2315 3537 
Q 2597 3491 2834 3397 
z
" transform="scale(0.015625)"/>
       <path id="DejaVuSans-65" d="M 3597 1894 
L 3597 1613 
L 953 1613 
Q 991 1019 1311 708 
Q 1631 397 2203 397 
Q 2534 397 2845 478 
Q 3156 559 3463 722 
L 3463 178 
Q 3153 47 2828 -22 
Q 2503 -91 2169 -91 
Q 1331 -91 842 396 
Q 353 884 353 1716 
Q 353 2575 817 3079 
Q 1281 3584 2069 3584 
Q 2775 3584 3186 3129 
Q 3597 2675 3597 1894 
z
M 3022 2063 
Q 3016 2534 2758 2815 
Q 2500 3097 2075 3097 
Q 1594 3097 1305 2825 
Q 1016 2553 972 2059 
L 3022 2063 
z
" transform="scale(0.015625)"/>
       <path id="DejaVuSans-74" d="M 1172 4494 
L 1172 3500 
L 2356 3500 
L 2356 3053 
L 1172 3053 
L 1172 1153 
Q 1172 725 1289 603 
Q 1406 481 1766 481 
L 2356 481 
L 2356 0 
L 1766 0 
Q 1100 0 847 248 
Q 594 497 594 1153 
L 594 3053 
L 172 3053 
L 172 3500 
L 594 3500 
L 594 4494 
L 1172 4494 
z
" transform="scale(0.015625)"/>
      </defs>
      <use xlink:href="#DejaVuSans-73"/>
      <use xlink:href="#DejaVuSans-65" x="52.099609"/>
      <use xlink:href="#DejaVuSans-74" x="113.623047"/>
      <use xlink:href="#DejaVuSans-31" x="152.832031"/>
     </g>
    </g>
   </g>
  </g>
 </g>
 <defs>
  <clipPath id="pcbc0cd1ca4">
   <rect x="57.6" y="41.472" width="357.12" height="266.112"/>
  </clipPath>
 </defs>
</svg>
