<?xml version="1.0" encoding="utf-8" standalone="no"?>
<!DOCTYPE svg PUBLIC "-//W3C//DTD SVG 1.1//EN"
  "http://www.w3.org/Graphics/SVG/1.1/DTD/svg11.dtd">
<svg xmlns:xlink="http://www.w3.org/1999/xlink" width="460.8pt" height="345.6pt" viewBox="0 0 460.8 345.6" xmlns="http://www.w3.org/2000/svg" version="1.1">
 <metadata>
  <rdf:RDF xmlns:dc="http://purl.org/dc/elements/1.1/" xmlns:cc="http://creativecommons.org/ns#" xmlns:rdf="http://www.w3.org/1999/02/22-rdf-syntax-ns#">
   <cc:Work>
    <dc:type rdf:resource="http://purl.org/dc/dcmitype/StillImage"/>
    <dc:date>2022-08-11T20:38:50.679739</dc:date>
    <dc:format>image/svg+xml</dc:format>
    <dc:creator>
     <cc:Agent>
      <dc:title>Matplotlib v3.5.2, https://matplotlib.org/</dc:title>
     </cc:Agent>
    </dc:creator>
   </cc:Work>
  </rdf:RDF>
 </metadata>
 <defs>
  <style type="text/css">*{stroke-linejoin: round; stroke-linecap: butt}</style>
 </defs>
 <g id="figure_1">
  <g id="patch_1">
   <path d="M 0 345.6 
L 460.8 345.6 
L 460.8 0 
L 0 0 
z
" style="fill: #ffffff"/>
  </g>
  <g id="axes_1">
   <g id="patch_2">
    <path d="M 57.6 307.584 
L 414.72 307.584 
L 414.72 41.472 
L 57.6 41.472 
z
" style="fill: #ffffff"/>
   </g>
   <g id="matplotlib.axis_1">
    <g id="xtick_1">
     <g id="line2d_1">
      <defs>
       <path id="mfef8c6716e" d="M 0 0 
L 0 3.5 
" style="stroke: #000000; stroke-width: 0.8"/>
      </defs>
      <g>
       <use xlink:href="#mfef8c6716e" x="73.832727" y="307.584" style="stroke: #000000; stroke-width: 0.8"/>
      </g>
     </g>
     <g id="text_1">
      <!-- 0 -->
      <g transform="translate(70.651477 322.182437)scale(0.1 -0.1)">
       <defs>
        <path id="DejaVuSans-30" d="M 2034 4250 
Q 1547 4250 1301 3770 
Q 1056 3291 1056 2328 
Q 1056 1369 1301 889 
Q 1547 409 2034 409 
Q 2525 409 2770 889 
Q 3016 1369 3016 2328 
Q 3016 3291 2770 3770 
Q 2525 4250 2034 4250 
z
M 2034 4750 
Q 2819 4750 3233 4129 
Q 3647 3509 3647 2328 
Q 3647 1150 3233 529 
Q 2819 -91 2034 -91 
Q 1250 -91 836 529 
Q 422 1150 422 2328 
Q 422 3509 836 4129 
Q 1250 4750 2034 4750 
z
" transform="scale(0.015625)"/>
       </defs>
       <use xlink:href="#DejaVuSans-30"/>
      </g>
     </g>
    </g>
    <g id="xtick_2">
     <g id="line2d_2">
      <g>
       <use xlink:href="#mfef8c6716e" x="124.71902" y="307.584" style="stroke: #000000; stroke-width: 0.8"/>
      </g>
     </g>
     <g id="text_2">
      <!-- 50 -->
      <g transform="translate(118.35652 322.182437)scale(0.1 -0.1)">
       <defs>
        <path id="DejaVuSans-35" d="M 691 4666 
L 3169 4666 
L 3169 4134 
L 1269 4134 
L 1269 2991 
Q 1406 3038 1543 3061 
Q 1681 3084 1819 3084 
Q 2600 3084 3056 2656 
Q 3513 2228 3513 1497 
Q 3513 744 3044 326 
Q 2575 -91 1722 -91 
Q 1428 -91 1123 -41 
Q 819 9 494 109 
L 494 744 
Q 775 591 1075 516 
Q 1375 441 1709 441 
Q 2250 441 2565 725 
Q 2881 1009 2881 1497 
Q 2881 1984 2565 2268 
Q 2250 2553 1709 2553 
Q 1456 2553 1204 2497 
Q 953 2441 691 2322 
L 691 4666 
z
" transform="scale(0.015625)"/>
       </defs>
       <use xlink:href="#DejaVuSans-35"/>
       <use xlink:href="#DejaVuSans-30" x="63.623047"/>
      </g>
     </g>
    </g>
    <g id="xtick_3">
     <g id="line2d_3">
      <g>
       <use xlink:href="#mfef8c6716e" x="175.605312" y="307.584" style="stroke: #000000; stroke-width: 0.8"/>
      </g>
     </g>
     <g id="text_3">
      <!-- 100 -->
      <g transform="translate(166.061562 322.182437)scale(0.1 -0.1)">
       <defs>
        <path id="DejaVuSans-31" d="M 794 531 
L 1825 531 
L 1825 4091 
L 703 3866 
L 703 4441 
L 1819 4666 
L 2450 4666 
L 2450 531 
L 3481 531 
L 3481 0 
L 794 0 
L 794 531 
z
" transform="scale(0.015625)"/>
       </defs>
       <use xlink:href="#DejaVuSans-31"/>
       <use xlink:href="#DejaVuSans-30" x="63.623047"/>
       <use xlink:href="#DejaVuSans-30" x="127.246094"/>
      </g>
     </g>
    </g>
    <g id="xtick_4">
     <g id="line2d_4">
      <g>
       <use xlink:href="#mfef8c6716e" x="226.491604" y="307.584" style="stroke: #000000; stroke-width: 0.8"/>
      </g>
     </g>
     <g id="text_4">
      <!-- 150 -->
      <g transform="translate(216.947854 322.182437)scale(0.1 -0.1)">
       <use xlink:href="#DejaVuSans-31"/>
       <use xlink:href="#DejaVuSans-35" x="63.623047"/>
       <use xlink:href="#DejaVuSans-30" x="127.246094"/>
      </g>
     </g>
    </g>
    <g id="xtick_5">
     <g id="line2d_5">
      <g>
       <use xlink:href="#mfef8c6716e" x="277.377897" y="307.584" style="stroke: #000000; stroke-width: 0.8"/>
      </g>
     </g>
     <g id="text_5">
      <!-- 200 -->
      <g transform="translate(267.834147 322.182437)scale(0.1 -0.1)">
       <defs>
        <path id="DejaVuSans-32" d="M 1228 531 
L 3431 531 
L 3431 0 
L 469 0 
L 469 531 
Q 828 903 1448 1529 
Q 2069 2156 2228 2338 
Q 2531 2678 2651 2914 
Q 2772 3150 2772 3378 
Q 2772 3750 2511 3984 
Q 2250 4219 1831 4219 
Q 1534 4219 1204 4116 
Q 875 4013 500 3803 
L 500 4441 
Q 881 4594 1212 4672 
Q 1544 4750 1819 4750 
Q 2544 4750 2975 4387 
Q 3406 4025 3406 3419 
Q 3406 3131 3298 2873 
Q 3191 2616 2906 2266 
Q 2828 2175 2409 1742 
Q 1991 1309 1228 531 
z
" transform="scale(0.015625)"/>
       </defs>
       <use xlink:href="#DejaVuSans-32"/>
       <use xlink:href="#DejaVuSans-30" x="63.623047"/>
       <use xlink:href="#DejaVuSans-30" x="127.246094"/>
      </g>
     </g>
    </g>
    <g id="xtick_6">
     <g id="line2d_6">
      <g>
       <use xlink:href="#mfef8c6716e" x="328.264189" y="307.584" style="stroke: #000000; stroke-width: 0.8"/>
      </g>
     </g>
     <g id="text_6">
      <!-- 250 -->
      <g transform="translate(318.720439 322.182437)scale(0.1 -0.1)">
       <use xlink:href="#DejaVuSans-32"/>
       <use xlink:href="#DejaVuSans-35" x="63.623047"/>
       <use xlink:href="#DejaVuSans-30" x="127.246094"/>
      </g>
     </g>
    </g>
    <g id="xtick_7">
     <g id="line2d_7">
      <g>
       <use xlink:href="#mfef8c6716e" x="379.150482" y="307.584" style="stroke: #000000; stroke-width: 0.8"/>
      </g>
     </g>
     <g id="text_7">
      <!-- 300 -->
      <g transform="translate(369.606732 322.182437)scale(0.1 -0.1)">
       <defs>
        <path id="DejaVuSans-33" d="M 2597 2516 
Q 3050 2419 3304 2112 
Q 3559 1806 3559 1356 
Q 3559 666 3084 287 
Q 2609 -91 1734 -91 
Q 1441 -91 1130 -33 
Q 819 25 488 141 
L 488 750 
Q 750 597 1062 519 
Q 1375 441 1716 441 
Q 2309 441 2620 675 
Q 2931 909 2931 1356 
Q 2931 1769 2642 2001 
Q 2353 2234 1838 2234 
L 1294 2234 
L 1294 2753 
L 1863 2753 
Q 2328 2753 2575 2939 
Q 2822 3125 2822 3475 
Q 2822 3834 2567 4026 
Q 2313 4219 1838 4219 
Q 1578 4219 1281 4162 
Q 984 4106 628 3988 
L 628 4550 
Q 988 4650 1302 4700 
Q 1616 4750 1894 4750 
Q 2613 4750 3031 4423 
Q 3450 4097 3450 3541 
Q 3450 3153 3228 2886 
Q 3006 2619 2597 2516 
z
" transform="scale(0.015625)"/>
       </defs>
       <use xlink:href="#DejaVuSans-33"/>
       <use xlink:href="#DejaVuSans-30" x="63.623047"/>
       <use xlink:href="#DejaVuSans-30" x="127.246094"/>
      </g>
     </g>
    </g>
   </g>
   <g id="matplotlib.axis_2">
    <g id="ytick_1">
     <g id="line2d_8">
      <defs>
       <path id="m6572b3773f" d="M 0 0 
L -3.5 0 
" style="stroke: #000000; stroke-width: 0.8"/>
      </defs>
      <g>
       <use xlink:href="#m6572b3773f" x="57.6" y="289.884205" style="stroke: #000000; stroke-width: 0.8"/>
      </g>
     </g>
     <g id="text_8">
      <!-- 3 -->
      <g transform="translate(44.2375 293.683423)scale(0.1 -0.1)">
       <use xlink:href="#DejaVuSans-33"/>
      </g>
     </g>
    </g>
    <g id="ytick_2">
     <g id="line2d_9">
      <g>
       <use xlink:href="#m6572b3773f" x="57.6" y="244.826907" style="stroke: #000000; stroke-width: 0.8"/>
      </g>
     </g>
     <g id="text_9">
      <!-- 4 -->
      <g transform="translate(44.2375 248.626126)scale(0.1 -0.1)">
       <defs>
        <path id="DejaVuSans-34" d="M 2419 4116 
L 825 1625 
L 2419 1625 
L 2419 4116 
z
M 2253 4666 
L 3047 4666 
L 3047 1625 
L 3713 1625 
L 3713 1100 
L 3047 1100 
L 3047 0 
L 2419 0 
L 2419 1100 
L 313 1100 
L 313 1709 
L 2253 4666 
z
" transform="scale(0.015625)"/>
       </defs>
       <use xlink:href="#DejaVuSans-34"/>
      </g>
     </g>
    </g>
    <g id="ytick_3">
     <g id="line2d_10">
      <g>
       <use xlink:href="#m6572b3773f" x="57.6" y="199.769609" style="stroke: #000000; stroke-width: 0.8"/>
      </g>
     </g>
     <g id="text_10">
      <!-- 5 -->
      <g transform="translate(44.2375 203.568828)scale(0.1 -0.1)">
       <use xlink:href="#DejaVuSans-35"/>
      </g>
     </g>
    </g>
    <g id="ytick_4">
     <g id="line2d_11">
      <g>
       <use xlink:href="#m6572b3773f" x="57.6" y="154.712312" style="stroke: #000000; stroke-width: 0.8"/>
      </g>
     </g>
     <g id="text_11">
      <!-- 6 -->
      <g transform="translate(44.2375 158.51153)scale(0.1 -0.1)">
       <defs>
        <path id="DejaVuSans-36" d="M 2113 2584 
Q 1688 2584 1439 2293 
Q 1191 2003 1191 1497 
Q 1191 994 1439 701 
Q 1688 409 2113 409 
Q 2538 409 2786 701 
Q 3034 994 3034 1497 
Q 3034 2003 2786 2293 
Q 2538 2584 2113 2584 
z
M 3366 4563 
L 3366 3988 
Q 3128 4100 2886 4159 
Q 2644 4219 2406 4219 
Q 1781 4219 1451 3797 
Q 1122 3375 1075 2522 
Q 1259 2794 1537 2939 
Q 1816 3084 2150 3084 
Q 2853 3084 3261 2657 
Q 3669 2231 3669 1497 
Q 3669 778 3244 343 
Q 2819 -91 2113 -91 
Q 1303 -91 875 529 
Q 447 1150 447 2328 
Q 447 3434 972 4092 
Q 1497 4750 2381 4750 
Q 2619 4750 2861 4703 
Q 3103 4656 3366 4563 
z
" transform="scale(0.015625)"/>
       </defs>
       <use xlink:href="#DejaVuSans-36"/>
      </g>
     </g>
    </g>
    <g id="ytick_5">
     <g id="line2d_12">
      <g>
       <use xlink:href="#m6572b3773f" x="57.6" y="109.655014" style="stroke: #000000; stroke-width: 0.8"/>
      </g>
     </g>
     <g id="text_12">
      <!-- 7 -->
      <g transform="translate(44.2375 113.454233)scale(0.1 -0.1)">
       <defs>
        <path id="DejaVuSans-37" d="M 525 4666 
L 3525 4666 
L 3525 4397 
L 1831 0 
L 1172 0 
L 2766 4134 
L 525 4134 
L 525 4666 
z
" transform="scale(0.015625)"/>
       </defs>
       <use xlink:href="#DejaVuSans-37"/>
      </g>
     </g>
    </g>
    <g id="ytick_6">
     <g id="line2d_13">
      <g>
       <use xlink:href="#m6572b3773f" x="57.6" y="64.597716" style="stroke: #000000; stroke-width: 0.8"/>
      </g>
     </g>
     <g id="text_13">
      <!-- 8 -->
      <g transform="translate(44.2375 68.396935)scale(0.1 -0.1)">
       <defs>
        <path id="DejaVuSans-38" d="M 2034 2216 
Q 1584 2216 1326 1975 
Q 1069 1734 1069 1313 
Q 1069 891 1326 650 
Q 1584 409 2034 409 
Q 2484 409 2743 651 
Q 3003 894 3003 1313 
Q 3003 1734 2745 1975 
Q 2488 2216 2034 2216 
z
M 1403 2484 
Q 997 2584 770 2862 
Q 544 3141 544 3541 
Q 544 4100 942 4425 
Q 1341 4750 2034 4750 
Q 2731 4750 3128 4425 
Q 3525 4100 3525 3541 
Q 3525 3141 3298 2862 
Q 3072 2584 2669 2484 
Q 3125 2378 3379 2068 
Q 3634 1759 3634 1313 
Q 3634 634 3220 271 
Q 2806 -91 2034 -91 
Q 1263 -91 848 271 
Q 434 634 434 1313 
Q 434 1759 690 2068 
Q 947 2378 1403 2484 
z
M 1172 3481 
Q 1172 3119 1398 2916 
Q 1625 2713 2034 2713 
Q 2441 2713 2670 2916 
Q 2900 3119 2900 3481 
Q 2900 3844 2670 4047 
Q 2441 4250 2034 4250 
Q 1625 4250 1398 4047 
Q 1172 3844 1172 3481 
z
" transform="scale(0.015625)"/>
       </defs>
       <use xlink:href="#DejaVuSans-38"/>
      </g>
     </g>
    </g>
   </g>
   <g id="line2d_14">
    <path d="M 73.832727 53.568 
L 74.850453 129.428293 
L 75.868179 139.672797 
L 76.885905 154.610895 
L 77.903631 163.827947 
L 79.939082 198.374879 
L 80.956808 190.098069 
L 81.974534 216.724453 
L 82.99226 222.772887 
L 84.009986 218.970465 
L 85.027712 228.472719 
L 86.045437 244.445985 
L 87.063163 239.751533 
L 89.098615 255.713619 
L 90.116341 262.549528 
L 91.134067 262.449744 
L 92.151793 258.683084 
L 93.169518 261.390956 
L 94.187244 260.435441 
L 95.20497 259.206596 
L 96.222696 274.62389 
L 97.240422 283.070393 
L 98.258148 284.602809 
L 99.275873 272.45902 
L 100.293599 287.168586 
L 101.311325 274.780844 
L 102.329051 268.996978 
L 104.364503 277.401518 
L 105.382229 271.33787 
L 106.399954 285.474505 
L 107.41768 279.267569 
L 108.435406 286.517062 
L 110.470858 287.342092 
L 111.488584 291.066519 
L 112.506309 281.23495 
L 113.524035 281.506321 
L 114.541761 278.367107 
L 116.577213 278.766203 
L 117.594939 289.068669 
L 118.612665 294.839114 
L 119.63039 282.580949 
L 120.648116 292.829083 
L 121.665842 279.407652 
L 122.683568 295.19826 
L 123.701294 295.259403 
L 124.71902 279.622338 
L 125.736746 279.673746 
L 126.754471 289.85468 
L 127.772197 289.890226 
L 128.789923 283.160461 
L 130.825375 276.442097 
L 131.843101 295.488 
L 132.860826 289.980129 
L 133.878552 289.984504 
L 134.896278 283.226807 
L 135.914004 293.362479 
L 136.93173 295.486998 
L 137.949456 289.970655 
L 138.967182 165.317556 
L 139.984907 206.073902 
L 141.002633 196.753194 
L 142.020359 213.616523 
L 143.038085 203.872654 
L 144.055811 221.50519 
L 145.073537 219.246569 
L 146.091262 234.303171 
L 147.108988 236.299705 
L 148.126714 238.768136 
L 149.14444 237.975437 
L 150.162166 250.612399 
L 151.179892 249.613735 
L 152.197618 234.936478 
L 153.215343 247.081874 
L 154.233069 245.440321 
L 155.250795 253.599991 
L 156.268521 254.928129 
L 157.286247 249.379246 
L 158.303973 257.230572 
L 159.321698 258.206315 
L 160.339424 248.931608 
L 161.35715 266.588185 
L 162.374876 260.502297 
L 163.392602 267.869563 
L 164.410328 258.274857 
L 165.428054 255.378693 
L 166.445779 262.565512 
L 167.463505 256.185922 
L 168.481231 263.280061 
L 169.498957 253.439637 
L 170.516683 260.462012 
L 171.534409 253.936102 
L 172.552135 254.140869 
L 173.56986 257.699908 
L 174.587586 264.615916 
L 175.605312 264.753419 
L 176.623038 261.493824 
L 177.640764 251.459651 
L 178.65849 254.928269 
L 179.676215 268.521891 
L 180.693941 255.069597 
L 181.711667 265.262061 
L 182.729393 265.307387 
L 183.747119 255.206532 
L 184.764845 272.132622 
L 185.782571 258.638372 
L 186.800296 272.172531 
L 187.818022 255.287667 
L 188.835748 268.811688 
L 189.853474 251.91774 
L 190.8712 265.433619 
L 191.888926 262.049561 
L 192.906651 251.903818 
L 193.924377 251.893197 
L 194.942103 258.638687 
L 195.959829 268.76125 
L 196.977555 258.606035 
L 197.995281 261.966221 
L 199.013007 258.56621 
L 200.030732 265.302654 
L 201.048458 261.899919 
L 202.066184 251.737434 
L 203.08391 265.228996 
L 204.101636 222.797823 
L 205.119362 229.107296 
L 206.137087 237.040053 
L 207.154813 248.109189 
L 208.172539 235.645327 
L 209.190265 240.175701 
L 210.207991 251.574588 
L 211.225717 236.058756 
L 212.243443 237.570036 
L 213.261168 241.629944 
L 214.278894 255.86152 
L 215.29662 239.654425 
L 216.314346 247.068582 
L 217.332072 257.815929 
L 218.349798 244.84771 
L 219.367524 255.457504 
L 220.385249 255.83322 
L 221.402975 259.567398 
L 222.420701 242.991959 
L 223.438427 250.03818 
L 224.456153 253.671681 
L 225.473879 247.135131 
L 227.50933 254.253937 
L 228.527056 254.403263 
L 229.544782 264.67177 
L 230.562508 264.785225 
L 231.580234 261.503693 
L 232.59796 248.070204 
L 233.615685 265.037972 
L 234.633411 265.098371 
L 235.651137 251.631952 
L 236.668863 251.673836 
L 237.686589 261.845632 
L 238.704315 265.25168 
L 239.72204 244.996263 
L 243.792944 258.543624 
L 244.81067 245.023645 
L 245.828396 251.77615 
L 246.846121 251.767106 
L 247.863847 258.514011 
L 248.881573 244.982759 
L 249.899299 244.966569 
L 250.917025 248.327767 
L 251.934751 248.307958 
L 252.952476 265.183104 
L 254.987928 258.377848 
L 256.005654 258.352798 
L 257.02338 251.568164 
L 258.041106 248.161938 
L 259.058832 261.651403 
L 260.076557 254.864371 
L 261.094283 264.973184 
L 262.112009 248.047044 
L 263.129735 261.534065 
L 264.147461 251.365542 
L 265.165187 258.093091 
L 266.182913 244.544483 
L 267.200638 244.512729 
L 268.218364 264.756459 
L 269.23609 220.596445 
L 270.253816 217.713075 
L 271.271542 228.719505 
L 273.306993 236.942282 
L 274.324719 224.276244 
L 275.342445 235.347707 
L 276.360171 219.474518 
L 277.377897 220.595769 
L 278.395623 231.231894 
L 279.413349 238.514041 
L 280.431074 228.880942 
L 281.4488 222.601758 
L 282.466526 233.184469 
L 283.484252 233.583915 
L 284.501978 230.546254 
L 285.519704 240.953634 
L 286.537429 227.690299 
L 287.555155 244.815257 
L 288.572881 228.122171 
L 289.590607 238.438389 
L 290.608333 231.833996 
L 291.626059 235.345398 
L 292.643785 232.079475 
L 293.66151 225.420527 
L 294.679236 242.402622 
L 295.696962 235.716762 
L 296.714688 242.53632 
L 297.732414 242.58673 
L 298.75014 235.869227 
L 299.767865 242.660748 
L 300.785591 229.16926 
L 301.803317 235.946888 
L 302.821043 246.097824 
L 303.838769 229.209014 
L 304.856495 246.108386 
L 305.874221 246.106999 
L 306.891946 239.343197 
L 307.909672 246.093153 
L 308.927398 246.081423 
L 309.945124 239.308331 
L 310.96285 229.153464 
L 312.998302 229.113089 
L 314.016027 232.469423 
L 315.033753 225.686266 
L 316.051479 245.936053 
L 317.069205 225.632987 
L 318.086931 245.880337 
L 319.104657 232.333682 
L 320.122382 239.061884 
L 321.140108 239.03066 
L 322.157834 235.619394 
L 323.17556 245.724649 
L 324.193286 245.691412 
L 325.211012 232.140448 
L 326.228738 238.864784 
L 327.246463 225.312904 
L 328.264189 245.553607 
L 329.281915 238.759582 
L 330.299641 242.103135 
L 331.317367 231.929217 
L 332.335093 238.651531 
L 333.352818 228.477132 
L 334.370544 180.487401 
L 335.38827 188.683052 
L 336.405996 199.379988 
L 337.423722 193.058972 
L 338.441448 190.178289 
L 339.459174 183.967178 
L 340.476899 191.328209 
L 341.494625 205.507659 
L 342.512351 206.235227 
L 343.530077 196.409561 
L 345.565529 190.296681 
L 346.583254 204.113555 
L 347.60098 197.631586 
L 348.618706 201.25726 
L 349.636432 208.223692 
L 350.654158 194.866241 
L 351.671884 201.77415 
L 352.68961 201.906543 
L 353.707335 191.884327 
L 354.725061 202.121177 
L 355.742787 202.20405 
L 356.760513 205.651487 
L 357.778239 202.32784 
L 358.795965 202.374336 
L 359.813691 195.652876 
L 361.849142 202.460718 
L 362.866868 195.715783 
L 364.90232 209.242413 
L 365.920046 205.860293 
L 366.937771 195.715129 
L 367.955497 209.22105 
L 368.973223 195.689011 
L 369.990949 195.670962 
L 371.008675 188.891467 
L 372.026401 202.385206 
L 373.044127 205.738761 
L 374.061852 195.573062 
L 375.079578 205.681298 
L 376.097304 198.891391 
L 377.11503 195.479299 
L 378.132756 195.445175 
L 379.150482 192.030561 
L 380.168207 195.373472 
L 381.185933 208.853315 
L 382.203659 208.815108 
L 383.221385 195.258939 
L 384.239111 201.977862 
L 385.256837 195.178974 
L 386.274563 201.896717 
L 387.292288 188.338175 
L 390.345466 188.211597 
L 391.363192 194.927296 
L 392.380918 208.401297 
L 393.398643 198.219953 
L 394.416369 204.934858 
L 395.434095 201.511658 
L 396.451821 208.226157 
L 397.469547 198.043997 
L 398.487273 194.620275 
L 398.487273 194.620275 
" clip-path="url(#p441b99b81f)" style="fill: none; stroke: #1f77b4; stroke-width: 1.5; stroke-linecap: square"/>
   </g>
   <g id="patch_3">
    <path d="M 57.6 307.584 
L 57.6 41.472 
" style="fill: none; stroke: #000000; stroke-width: 0.8; stroke-linejoin: miter; stroke-linecap: square"/>
   </g>
   <g id="patch_4">
    <path d="M 414.72 307.584 
L 414.72 41.472 
" style="fill: none; stroke: #000000; stroke-width: 0.8; stroke-linejoin: miter; stroke-linecap: square"/>
   </g>
   <g id="patch_5">
    <path d="M 57.6 307.584 
L 414.72 307.584 
" style="fill: none; stroke: #000000; stroke-width: 0.8; stroke-linejoin: miter; stroke-linecap: square"/>
   </g>
   <g id="patch_6">
    <path d="M 57.6 41.472 
L 414.72 41.472 
" style="fill: none; stroke: #000000; stroke-width: 0.8; stroke-linejoin: miter; stroke-linecap: square"/>
   </g>
   <g id="legend_1">
    <g id="patch_7">
     <path d="M 354.074688 64.150125 
L 407.72 64.150125 
Q 409.72 64.150125 409.72 62.150125 
L 409.72 48.472 
Q 409.72 46.472 407.72 46.472 
L 354.074688 46.472 
Q 352.074688 46.472 352.074688 48.472 
L 352.074688 62.150125 
Q 352.074688 64.150125 354.074688 64.150125 
z
" style="fill: #ffffff; opacity: 0.8; stroke: #cccccc; stroke-linejoin: miter"/>
    </g>
    <g id="line2d_15">
     <path d="M 356.074688 54.570438 
L 366.074688 54.570438 
L 376.074688 54.570438 
" style="fill: none; stroke: #1f77b4; stroke-width: 1.5; stroke-linecap: square"/>
    </g>
    <g id="text_14">
     <!-- set2 -->
     <g transform="translate(384.074688 58.070438)scale(0.1 -0.1)">
      <defs>
       <path id="DejaVuSans-73" d="M 2834 3397 
L 2834 2853 
Q 2591 2978 2328 3040 
Q 2066 3103 1784 3103 
Q 1356 3103 1142 2972 
Q 928 2841 928 2578 
Q 928 2378 1081 2264 
Q 1234 2150 1697 2047 
L 1894 2003 
Q 2506 1872 2764 1633 
Q 3022 1394 3022 966 
Q 3022 478 2636 193 
Q 2250 -91 1575 -91 
Q 1294 -91 989 -36 
Q 684 19 347 128 
L 347 722 
Q 666 556 975 473 
Q 1284 391 1588 391 
Q 1994 391 2212 530 
Q 2431 669 2431 922 
Q 2431 1156 2273 1281 
Q 2116 1406 1581 1522 
L 1381 1569 
Q 847 1681 609 1914 
Q 372 2147 372 2553 
Q 372 3047 722 3315 
Q 1072 3584 1716 3584 
Q 2034 3584 2315 3537 
Q 2597 3491 2834 3397 
z
" transform="scale(0.015625)"/>
       <path id="DejaVuSans-65" d="M 3597 1894 
L 3597 1613 
L 953 1613 
Q 991 1019 1311 708 
Q 1631 397 2203 397 
Q 2534 397 2845 478 
Q 3156 559 3463 722 
L 3463 178 
Q 3153 47 2828 -22 
Q 2503 -91 2169 -91 
Q 1331 -91 842 396 
Q 353 884 353 1716 
Q 353 2575 817 3079 
Q 1281 3584 2069 3584 
Q 2775 3584 3186 3129 
Q 3597 2675 3597 1894 
z
M 3022 2063 
Q 3016 2534 2758 2815 
Q 2500 3097 2075 3097 
Q 1594 3097 1305 2825 
Q 1016 2553 972 2059 
L 3022 2063 
z
" transform="scale(0.015625)"/>
       <path id="DejaVuSans-74" d="M 1172 4494 
L 1172 3500 
L 2356 3500 
L 2356 3053 
L 1172 3053 
L 1172 1153 
Q 1172 725 1289 603 
Q 1406 481 1766 481 
L 2356 481 
L 2356 0 
L 1766 0 
Q 1100 0 847 248 
Q 594 497 594 1153 
L 594 3053 
L 172 3053 
L 172 3500 
L 594 3500 
L 594 4494 
L 1172 4494 
z
" transform="scale(0.015625)"/>
      </defs>
      <use xlink:href="#DejaVuSans-73"/>
      <use xlink:href="#DejaVuSans-65" x="52.099609"/>
      <use xlink:href="#DejaVuSans-74" x="113.623047"/>
      <use xlink:href="#DejaVuSans-32" x="152.832031"/>
     </g>
    </g>
   </g>
  </g>
 </g>
 <defs>
  <clipPath id="p441b99b81f">
   <rect x="57.6" y="41.472" width="357.12" height="266.112"/>
  </clipPath>
 </defs>
</svg>
