<?xml version="1.0" encoding="utf-8" standalone="no"?>
<!DOCTYPE svg PUBLIC "-//W3C//DTD SVG 1.1//EN"
  "http://www.w3.org/Graphics/SVG/1.1/DTD/svg11.dtd">
<svg xmlns:xlink="http://www.w3.org/1999/xlink" width="460.8pt" height="345.6pt" viewBox="0 0 460.8 345.6" xmlns="http://www.w3.org/2000/svg" version="1.1">
 <metadata>
  <rdf:RDF xmlns:dc="http://purl.org/dc/elements/1.1/" xmlns:cc="http://creativecommons.org/ns#" xmlns:rdf="http://www.w3.org/1999/02/22-rdf-syntax-ns#">
   <cc:Work>
    <dc:type rdf:resource="http://purl.org/dc/dcmitype/StillImage"/>
    <dc:date>2022-08-11T20:38:49.982231</dc:date>
    <dc:format>image/svg+xml</dc:format>
    <dc:creator>
     <cc:Agent>
      <dc:title>Matplotlib v3.5.2, https://matplotlib.org/</dc:title>
     </cc:Agent>
    </dc:creator>
   </cc:Work>
  </rdf:RDF>
 </metadata>
 <defs>
  <style type="text/css">*{stroke-linejoin: round; stroke-linecap: butt}</style>
 </defs>
 <g id="figure_1">
  <g id="patch_1">
   <path d="M 0 345.6 
L 460.8 345.6 
L 460.8 0 
L 0 0 
z
" style="fill: #ffffff"/>
  </g>
  <g id="axes_1">
   <g id="patch_2">
    <path d="M 57.6 307.584 
L 414.72 307.584 
L 414.72 41.472 
L 57.6 41.472 
z
" style="fill: #ffffff"/>
   </g>
   <g id="matplotlib.axis_1">
    <g id="xtick_1">
     <g id="line2d_1">
      <defs>
       <path id="m146b881367" d="M 0 0 
L 0 3.5 
" style="stroke: #000000; stroke-width: 0.8"/>
      </defs>
      <g>
       <use xlink:href="#m146b881367" x="73.832727" y="307.584" style="stroke: #000000; stroke-width: 0.8"/>
      </g>
     </g>
     <g id="text_1">
      <!-- 0 -->
      <g transform="translate(70.651477 322.182437)scale(0.1 -0.1)">
       <defs>
        <path id="DejaVuSans-30" d="M 2034 4250 
Q 1547 4250 1301 3770 
Q 1056 3291 1056 2328 
Q 1056 1369 1301 889 
Q 1547 409 2034 409 
Q 2525 409 2770 889 
Q 3016 1369 3016 2328 
Q 3016 3291 2770 3770 
Q 2525 4250 2034 4250 
z
M 2034 4750 
Q 2819 4750 3233 4129 
Q 3647 3509 3647 2328 
Q 3647 1150 3233 529 
Q 2819 -91 2034 -91 
Q 1250 -91 836 529 
Q 422 1150 422 2328 
Q 422 3509 836 4129 
Q 1250 4750 2034 4750 
z
" transform="scale(0.015625)"/>
       </defs>
       <use xlink:href="#DejaVuSans-30"/>
      </g>
     </g>
    </g>
    <g id="xtick_2">
     <g id="line2d_2">
      <g>
       <use xlink:href="#m146b881367" x="124.71902" y="307.584" style="stroke: #000000; stroke-width: 0.8"/>
      </g>
     </g>
     <g id="text_2">
      <!-- 50 -->
      <g transform="translate(118.35652 322.182437)scale(0.1 -0.1)">
       <defs>
        <path id="DejaVuSans-35" d="M 691 4666 
L 3169 4666 
L 3169 4134 
L 1269 4134 
L 1269 2991 
Q 1406 3038 1543 3061 
Q 1681 3084 1819 3084 
Q 2600 3084 3056 2656 
Q 3513 2228 3513 1497 
Q 3513 744 3044 326 
Q 2575 -91 1722 -91 
Q 1428 -91 1123 -41 
Q 819 9 494 109 
L 494 744 
Q 775 591 1075 516 
Q 1375 441 1709 441 
Q 2250 441 2565 725 
Q 2881 1009 2881 1497 
Q 2881 1984 2565 2268 
Q 2250 2553 1709 2553 
Q 1456 2553 1204 2497 
Q 953 2441 691 2322 
L 691 4666 
z
" transform="scale(0.015625)"/>
       </defs>
       <use xlink:href="#DejaVuSans-35"/>
       <use xlink:href="#DejaVuSans-30" x="63.623047"/>
      </g>
     </g>
    </g>
    <g id="xtick_3">
     <g id="line2d_3">
      <g>
       <use xlink:href="#m146b881367" x="175.605312" y="307.584" style="stroke: #000000; stroke-width: 0.8"/>
      </g>
     </g>
     <g id="text_3">
      <!-- 100 -->
      <g transform="translate(166.061562 322.182437)scale(0.1 -0.1)">
       <defs>
        <path id="DejaVuSans-31" d="M 794 531 
L 1825 531 
L 1825 4091 
L 703 3866 
L 703 4441 
L 1819 4666 
L 2450 4666 
L 2450 531 
L 3481 531 
L 3481 0 
L 794 0 
L 794 531 
z
" transform="scale(0.015625)"/>
       </defs>
       <use xlink:href="#DejaVuSans-31"/>
       <use xlink:href="#DejaVuSans-30" x="63.623047"/>
       <use xlink:href="#DejaVuSans-30" x="127.246094"/>
      </g>
     </g>
    </g>
    <g id="xtick_4">
     <g id="line2d_4">
      <g>
       <use xlink:href="#m146b881367" x="226.491604" y="307.584" style="stroke: #000000; stroke-width: 0.8"/>
      </g>
     </g>
     <g id="text_4">
      <!-- 150 -->
      <g transform="translate(216.947854 322.182437)scale(0.1 -0.1)">
       <use xlink:href="#DejaVuSans-31"/>
       <use xlink:href="#DejaVuSans-35" x="63.623047"/>
       <use xlink:href="#DejaVuSans-30" x="127.246094"/>
      </g>
     </g>
    </g>
    <g id="xtick_5">
     <g id="line2d_5">
      <g>
       <use xlink:href="#m146b881367" x="277.377897" y="307.584" style="stroke: #000000; stroke-width: 0.8"/>
      </g>
     </g>
     <g id="text_5">
      <!-- 200 -->
      <g transform="translate(267.834147 322.182437)scale(0.1 -0.1)">
       <defs>
        <path id="DejaVuSans-32" d="M 1228 531 
L 3431 531 
L 3431 0 
L 469 0 
L 469 531 
Q 828 903 1448 1529 
Q 2069 2156 2228 2338 
Q 2531 2678 2651 2914 
Q 2772 3150 2772 3378 
Q 2772 3750 2511 3984 
Q 2250 4219 1831 4219 
Q 1534 4219 1204 4116 
Q 875 4013 500 3803 
L 500 4441 
Q 881 4594 1212 4672 
Q 1544 4750 1819 4750 
Q 2544 4750 2975 4387 
Q 3406 4025 3406 3419 
Q 3406 3131 3298 2873 
Q 3191 2616 2906 2266 
Q 2828 2175 2409 1742 
Q 1991 1309 1228 531 
z
" transform="scale(0.015625)"/>
       </defs>
       <use xlink:href="#DejaVuSans-32"/>
       <use xlink:href="#DejaVuSans-30" x="63.623047"/>
       <use xlink:href="#DejaVuSans-30" x="127.246094"/>
      </g>
     </g>
    </g>
    <g id="xtick_6">
     <g id="line2d_6">
      <g>
       <use xlink:href="#m146b881367" x="328.264189" y="307.584" style="stroke: #000000; stroke-width: 0.8"/>
      </g>
     </g>
     <g id="text_6">
      <!-- 250 -->
      <g transform="translate(318.720439 322.182437)scale(0.1 -0.1)">
       <use xlink:href="#DejaVuSans-32"/>
       <use xlink:href="#DejaVuSans-35" x="63.623047"/>
       <use xlink:href="#DejaVuSans-30" x="127.246094"/>
      </g>
     </g>
    </g>
    <g id="xtick_7">
     <g id="line2d_7">
      <g>
       <use xlink:href="#m146b881367" x="379.150482" y="307.584" style="stroke: #000000; stroke-width: 0.8"/>
      </g>
     </g>
     <g id="text_7">
      <!-- 300 -->
      <g transform="translate(369.606732 322.182437)scale(0.1 -0.1)">
       <defs>
        <path id="DejaVuSans-33" d="M 2597 2516 
Q 3050 2419 3304 2112 
Q 3559 1806 3559 1356 
Q 3559 666 3084 287 
Q 2609 -91 1734 -91 
Q 1441 -91 1130 -33 
Q 819 25 488 141 
L 488 750 
Q 750 597 1062 519 
Q 1375 441 1716 441 
Q 2309 441 2620 675 
Q 2931 909 2931 1356 
Q 2931 1769 2642 2001 
Q 2353 2234 1838 2234 
L 1294 2234 
L 1294 2753 
L 1863 2753 
Q 2328 2753 2575 2939 
Q 2822 3125 2822 3475 
Q 2822 3834 2567 4026 
Q 2313 4219 1838 4219 
Q 1578 4219 1281 4162 
Q 984 4106 628 3988 
L 628 4550 
Q 988 4650 1302 4700 
Q 1616 4750 1894 4750 
Q 2613 4750 3031 4423 
Q 3450 4097 3450 3541 
Q 3450 3153 3228 2886 
Q 3006 2619 2597 2516 
z
" transform="scale(0.015625)"/>
       </defs>
       <use xlink:href="#DejaVuSans-33"/>
       <use xlink:href="#DejaVuSans-30" x="63.623047"/>
       <use xlink:href="#DejaVuSans-30" x="127.246094"/>
      </g>
     </g>
    </g>
   </g>
   <g id="matplotlib.axis_2">
    <g id="ytick_1">
     <g id="line2d_8">
      <defs>
       <path id="md76010d3cd" d="M 0 0 
L -3.5 0 
" style="stroke: #000000; stroke-width: 0.8"/>
      </defs>
      <g>
       <use xlink:href="#md76010d3cd" x="57.6" y="298.253938" style="stroke: #000000; stroke-width: 0.8"/>
      </g>
     </g>
     <g id="text_8">
      <!-- 3.0 -->
      <g transform="translate(34.696875 302.053157)scale(0.1 -0.1)">
       <defs>
        <path id="DejaVuSans-2e" d="M 684 794 
L 1344 794 
L 1344 0 
L 684 0 
L 684 794 
z
" transform="scale(0.015625)"/>
       </defs>
       <use xlink:href="#DejaVuSans-33"/>
       <use xlink:href="#DejaVuSans-2e" x="63.623047"/>
       <use xlink:href="#DejaVuSans-30" x="95.410156"/>
      </g>
     </g>
    </g>
    <g id="ytick_2">
     <g id="line2d_9">
      <g>
       <use xlink:href="#md76010d3cd" x="57.6" y="262.243811" style="stroke: #000000; stroke-width: 0.8"/>
      </g>
     </g>
     <g id="text_9">
      <!-- 3.5 -->
      <g transform="translate(34.696875 266.04303)scale(0.1 -0.1)">
       <use xlink:href="#DejaVuSans-33"/>
       <use xlink:href="#DejaVuSans-2e" x="63.623047"/>
       <use xlink:href="#DejaVuSans-35" x="95.410156"/>
      </g>
     </g>
    </g>
    <g id="ytick_3">
     <g id="line2d_10">
      <g>
       <use xlink:href="#md76010d3cd" x="57.6" y="226.233685" style="stroke: #000000; stroke-width: 0.8"/>
      </g>
     </g>
     <g id="text_10">
      <!-- 4.0 -->
      <g transform="translate(34.696875 230.032904)scale(0.1 -0.1)">
       <defs>
        <path id="DejaVuSans-34" d="M 2419 4116 
L 825 1625 
L 2419 1625 
L 2419 4116 
z
M 2253 4666 
L 3047 4666 
L 3047 1625 
L 3713 1625 
L 3713 1100 
L 3047 1100 
L 3047 0 
L 2419 0 
L 2419 1100 
L 313 1100 
L 313 1709 
L 2253 4666 
z
" transform="scale(0.015625)"/>
       </defs>
       <use xlink:href="#DejaVuSans-34"/>
       <use xlink:href="#DejaVuSans-2e" x="63.623047"/>
       <use xlink:href="#DejaVuSans-30" x="95.410156"/>
      </g>
     </g>
    </g>
    <g id="ytick_4">
     <g id="line2d_11">
      <g>
       <use xlink:href="#md76010d3cd" x="57.6" y="190.223558" style="stroke: #000000; stroke-width: 0.8"/>
      </g>
     </g>
     <g id="text_11">
      <!-- 4.5 -->
      <g transform="translate(34.696875 194.022777)scale(0.1 -0.1)">
       <use xlink:href="#DejaVuSans-34"/>
       <use xlink:href="#DejaVuSans-2e" x="63.623047"/>
       <use xlink:href="#DejaVuSans-35" x="95.410156"/>
      </g>
     </g>
    </g>
    <g id="ytick_5">
     <g id="line2d_12">
      <g>
       <use xlink:href="#md76010d3cd" x="57.6" y="154.213432" style="stroke: #000000; stroke-width: 0.8"/>
      </g>
     </g>
     <g id="text_12">
      <!-- 5.0 -->
      <g transform="translate(34.696875 158.012651)scale(0.1 -0.1)">
       <use xlink:href="#DejaVuSans-35"/>
       <use xlink:href="#DejaVuSans-2e" x="63.623047"/>
       <use xlink:href="#DejaVuSans-30" x="95.410156"/>
      </g>
     </g>
    </g>
    <g id="ytick_6">
     <g id="line2d_13">
      <g>
       <use xlink:href="#md76010d3cd" x="57.6" y="118.203305" style="stroke: #000000; stroke-width: 0.8"/>
      </g>
     </g>
     <g id="text_13">
      <!-- 5.5 -->
      <g transform="translate(34.696875 122.002524)scale(0.1 -0.1)">
       <use xlink:href="#DejaVuSans-35"/>
       <use xlink:href="#DejaVuSans-2e" x="63.623047"/>
       <use xlink:href="#DejaVuSans-35" x="95.410156"/>
      </g>
     </g>
    </g>
    <g id="ytick_7">
     <g id="line2d_14">
      <g>
       <use xlink:href="#md76010d3cd" x="57.6" y="82.193179" style="stroke: #000000; stroke-width: 0.8"/>
      </g>
     </g>
     <g id="text_14">
      <!-- 6.0 -->
      <g transform="translate(34.696875 85.992398)scale(0.1 -0.1)">
       <defs>
        <path id="DejaVuSans-36" d="M 2113 2584 
Q 1688 2584 1439 2293 
Q 1191 2003 1191 1497 
Q 1191 994 1439 701 
Q 1688 409 2113 409 
Q 2538 409 2786 701 
Q 3034 994 3034 1497 
Q 3034 2003 2786 2293 
Q 2538 2584 2113 2584 
z
M 3366 4563 
L 3366 3988 
Q 3128 4100 2886 4159 
Q 2644 4219 2406 4219 
Q 1781 4219 1451 3797 
Q 1122 3375 1075 2522 
Q 1259 2794 1537 2939 
Q 1816 3084 2150 3084 
Q 2853 3084 3261 2657 
Q 3669 2231 3669 1497 
Q 3669 778 3244 343 
Q 2819 -91 2113 -91 
Q 1303 -91 875 529 
Q 447 1150 447 2328 
Q 447 3434 972 4092 
Q 1497 4750 2381 4750 
Q 2619 4750 2861 4703 
Q 3103 4656 3366 4563 
z
" transform="scale(0.015625)"/>
       </defs>
       <use xlink:href="#DejaVuSans-36"/>
       <use xlink:href="#DejaVuSans-2e" x="63.623047"/>
       <use xlink:href="#DejaVuSans-30" x="95.410156"/>
      </g>
     </g>
    </g>
    <g id="ytick_8">
     <g id="line2d_15">
      <g>
       <use xlink:href="#md76010d3cd" x="57.6" y="46.183052" style="stroke: #000000; stroke-width: 0.8"/>
      </g>
     </g>
     <g id="text_15">
      <!-- 6.5 -->
      <g transform="translate(34.696875 49.982271)scale(0.1 -0.1)">
       <use xlink:href="#DejaVuSans-36"/>
       <use xlink:href="#DejaVuSans-2e" x="63.623047"/>
       <use xlink:href="#DejaVuSans-35" x="95.410156"/>
      </g>
     </g>
    </g>
   </g>
   <g id="line2d_16">
    <path d="M 73.832727 188.65139 
L 74.850453 205.859754 
L 75.868179 232.256275 
L 76.885905 209.069034 
L 77.903631 213.377799 
L 78.921357 223.479195 
L 79.939082 239.421802 
L 80.956808 234.236906 
L 81.974534 240.377396 
L 82.99226 248.600351 
L 84.009986 235.352497 
L 86.045437 273.340848 
L 87.063163 265.075934 
L 88.080889 278.175591 
L 89.098615 253.156828 
L 90.116341 270.966015 
L 92.151793 273.873989 
L 93.169518 264.323977 
L 95.20497 266.434717 
L 96.222696 288.914348 
L 97.240422 273.48366 
L 98.258148 279.586013 
L 100.293599 280.769775 
L 102.329051 281.703609 
L 103.346777 287.494393 
L 104.364503 282.438703 
L 105.382229 261.140028 
L 106.399954 277.616512 
L 107.41768 267.053554 
L 108.435406 272.666603 
L 109.453132 272.852662 
L 110.470858 294.622081 
L 111.488584 289.3636 
L 112.506309 294.88992 
L 113.524035 284.195258 
L 114.541761 278.887412 
L 115.559487 262.763365 
L 116.577213 279.036654 
L 117.594939 279.094835 
L 118.612665 262.939004 
L 119.63039 273.782285 
L 120.648116 268.413404 
L 121.665842 273.840751 
L 122.683568 273.860476 
L 123.701294 263.071696 
L 125.736746 263.08602 
L 126.754471 284.693124 
L 127.772197 273.887586 
L 128.789923 295.488 
L 130.825375 273.862391 
L 131.843101 295.455153 
L 132.860826 268.432202 
L 134.896278 279.199227 
L 135.914004 273.777409 
L 137.949456 273.732991 
L 138.967182 122.187252 
L 139.984907 137.007712 
L 141.002633 124.60885 
L 142.020359 138.441397 
L 143.038085 131.058494 
L 144.055811 156.397504 
L 145.073537 144.277551 
L 146.091262 154.146457 
L 147.108988 159.031655 
L 148.126714 182.867622 
L 149.14444 152.796558 
L 150.162166 176.660941 
L 151.179892 173.409731 
L 152.197618 180.814296 
L 153.215343 166.419544 
L 154.233069 173.384601 
L 155.250795 169.239228 
L 156.268521 197.43645 
L 157.286247 176.911921 
L 158.303973 177.8867 
L 159.321698 173.353175 
L 160.339424 201.126018 
L 161.35715 190.994117 
L 162.374876 191.585488 
L 164.410328 181.788521 
L 165.428054 182.20685 
L 166.445779 171.772016 
L 167.463505 193.701363 
L 168.481231 183.181921 
L 169.498957 194.233794 
L 170.516683 183.648836 
L 172.552135 194.805766 
L 173.56986 189.545598 
L 174.587586 178.863524 
L 175.605312 173.564787 
L 176.623038 179.052833 
L 177.640764 200.730839 
L 178.65849 184.585062 
L 179.676215 200.836627 
L 180.693941 195.471579 
L 181.711667 195.498617 
L 182.729393 184.714169 
L 183.747119 179.323667 
L 184.764845 195.532448 
L 185.782571 184.727542 
L 186.800296 206.326292 
L 187.818022 206.314078 
L 188.835748 195.494444 
L 190.8712 184.646838 
L 191.888926 200.824193 
L 192.906651 195.392641 
L 193.924377 200.761591 
L 194.942103 179.12067 
L 195.959829 195.288343 
L 196.977555 189.848111 
L 197.995281 206.012314 
L 199.013007 178.962894 
L 200.030732 200.525825 
L 201.048458 184.276939 
L 202.066184 200.436104 
L 203.08391 189.58672 
L 204.101636 224.263223 
L 205.119362 181.439892 
L 207.154813 160.914714 
L 209.190265 172.366152 
L 210.207991 161.190135 
L 212.243443 148.016328 
L 213.261168 128.589669 
L 214.278894 136.022456 
L 215.29662 111.156283 
L 216.314346 129.651208 
L 217.332072 126.742941 
L 218.349798 102.494659 
L 219.367524 132.600494 
L 220.385249 130.720156 
L 221.402975 118.128485 
L 222.420701 100.284118 
L 223.438427 98.7913 
L 224.456153 113.650031 
L 226.491604 89.764665 
L 227.50933 115.807162 
L 228.527056 109.521 
L 230.562508 107.991693 
L 231.580234 101.932216 
L 232.59796 106.737604 
L 233.615685 95.393023 
L 234.633411 111.103861 
L 235.651137 83.644855 
L 236.668863 104.838569 
L 237.686589 99.059745 
L 238.704315 98.71386 
L 239.72204 92.994489 
L 241.757492 103.234151 
L 242.775218 97.582174 
L 243.792944 102.7513 
L 244.81067 91.732036 
L 245.828396 113.136357 
L 246.846121 91.341472 
L 247.863847 91.164254 
L 248.881573 96.398943 
L 249.899299 80.036869 
L 250.917025 112.296813 
L 251.934751 79.746001 
L 252.952476 79.610995 
L 253.970202 90.28502 
L 254.987928 111.767449 
L 256.005654 100.845573 
L 257.02338 100.731041 
L 258.041106 106.021884 
L 259.058832 100.513142 
L 260.076557 89.605972 
L 261.094283 100.307645 
L 262.112009 84.004202 
L 264.147461 94.615887 
L 265.165187 83.719942 
L 266.182913 99.833182 
L 267.200638 78.137211 
L 268.218364 88.851626 
L 269.23609 73.03388 
L 270.253816 81.584406 
L 271.271542 73.122708 
L 272.289268 80.380319 
L 273.306993 93.28347 
L 274.324719 100.980493 
L 275.342445 103.495691 
L 276.360171 90.045484 
L 277.377897 120.068478 
L 278.395623 99.818162 
L 279.413349 122.84753 
L 280.431074 108.016365 
L 281.4488 103.920683 
L 282.466526 115.937469 
L 283.484252 106.227355 
L 284.501978 107.166321 
L 285.519704 118.716164 
L 286.537429 108.618322 
L 287.555155 114.657452 
L 288.572881 115.228303 
L 289.590607 104.929346 
L 290.608333 121.573741 
L 291.626059 105.750177 
L 292.643785 106.081293 
L 293.66151 127.981934 
L 294.679236 122.837598 
L 295.696962 123.0605 
L 296.714688 112.449017 
L 298.75014 112.751112 
L 299.767865 107.466492 
L 300.785591 123.76871 
L 301.803317 102.242537 
L 302.821043 113.109532 
L 303.838769 134.76527 
L 304.856495 113.196101 
L 305.874221 134.827707 
L 306.891946 113.236989 
L 307.909672 124.046248 
L 308.927398 107.839682 
L 309.945124 113.231823 
L 310.96285 102.412808 
L 311.980576 118.595482 
L 312.998302 123.969827 
L 314.016027 134.740945 
L 315.033753 118.500212 
L 316.051479 113.058699 
L 317.069205 113.015283 
L 318.086931 123.771838 
L 319.104657 102.11653 
L 320.122382 123.670909 
L 321.140108 123.617 
L 324.193286 107.239611 
L 325.211012 123.383468 
L 326.228738 117.919964 
L 327.246463 134.061383 
L 328.264189 117.792651 
L 329.281915 112.326028 
L 330.299641 112.260089 
L 331.317367 122.996438 
L 332.335093 112.126036 
L 333.352818 133.664142 
L 334.370544 53.568 
L 335.38827 82.858448 
L 336.405996 72.934996 
L 337.423722 84.423613 
L 338.441448 85.20688 
L 339.459174 69.863818 
L 340.476899 70.813252 
L 341.494625 55.653844 
L 342.512351 83.811055 
L 343.530077 84.296855 
L 344.547803 57.802108 
L 345.565529 90.704139 
L 346.583254 69.563983 
L 348.618706 81.17692 
L 349.636432 81.496144 
L 350.654158 76.336996 
L 351.671884 60.358174 
L 352.68961 76.761439 
L 353.707335 76.933446 
L 354.725061 82.480266 
L 355.742787 77.19835 
L 356.760513 88.097453 
L 357.778239 82.772045 
L 358.795965 72.030494 
L 360.831416 82.912872 
L 361.849142 82.933137 
L 362.866868 77.540635 
L 363.884594 66.73668 
L 364.90232 72.128576 
L 365.920046 66.709729 
L 366.937771 66.685289 
L 367.955497 72.055978 
L 368.973223 88.223976 
L 369.990949 93.583823 
L 371.008675 71.931512 
L 372.026401 82.684234 
L 373.044127 88.031771 
L 374.061852 82.572965 
L 376.097304 60.843742 
L 377.11503 71.581504 
L 378.132756 71.514099 
L 380.168207 92.979825 
L 381.185933 82.104213 
L 382.203659 65.8257 
L 383.221385 92.758099 
L 384.239111 76.477231 
L 385.256837 81.80144 
L 386.274563 76.321712 
L 387.292288 87.045733 
L 388.310014 76.162953 
L 389.32774 81.484077 
L 390.345466 70.600057 
L 391.363192 70.518546 
L 392.380918 92.042636 
L 393.398643 64.952626 
L 394.416369 64.869825 
L 395.434095 80.991232 
L 396.451821 80.907767 
L 397.469547 70.020981 
L 398.487273 69.936976 
L 398.487273 69.936976 
" clip-path="url(#pc2c108cd77)" style="fill: none; stroke: #1f77b4; stroke-width: 1.5; stroke-linecap: square"/>
   </g>
   <g id="patch_3">
    <path d="M 57.6 307.584 
L 57.6 41.472 
" style="fill: none; stroke: #000000; stroke-width: 0.8; stroke-linejoin: miter; stroke-linecap: square"/>
   </g>
   <g id="patch_4">
    <path d="M 414.72 307.584 
L 414.72 41.472 
" style="fill: none; stroke: #000000; stroke-width: 0.8; stroke-linejoin: miter; stroke-linecap: square"/>
   </g>
   <g id="patch_5">
    <path d="M 57.6 307.584 
L 414.72 307.584 
" style="fill: none; stroke: #000000; stroke-width: 0.8; stroke-linejoin: miter; stroke-linecap: square"/>
   </g>
   <g id="patch_6">
    <path d="M 57.6 41.472 
L 414.72 41.472 
" style="fill: none; stroke: #000000; stroke-width: 0.8; stroke-linejoin: miter; stroke-linecap: square"/>
   </g>
   <g id="legend_1">
    <g id="patch_7">
     <path d="M 64.6 64.150125 
L 118.245312 64.150125 
Q 120.245312 64.150125 120.245312 62.150125 
L 120.245312 48.472 
Q 120.245312 46.472 118.245312 46.472 
L 64.6 46.472 
Q 62.6 46.472 62.6 48.472 
L 62.6 62.150125 
Q 62.6 64.150125 64.6 64.150125 
z
" style="fill: #ffffff; opacity: 0.8; stroke: #cccccc; stroke-linejoin: miter"/>
    </g>
    <g id="line2d_17">
     <path d="M 66.6 54.570438 
L 76.6 54.570438 
L 86.6 54.570438 
" style="fill: none; stroke: #1f77b4; stroke-width: 1.5; stroke-linecap: square"/>
    </g>
    <g id="text_16">
     <!-- set1 -->
     <g transform="translate(94.6 58.070438)scale(0.1 -0.1)">
      <defs>
       <path id="DejaVuSans-73" d="M 2834 3397 
L 2834 2853 
Q 2591 2978 2328 3040 
Q 2066 3103 1784 3103 
Q 1356 3103 1142 2972 
Q 928 2841 928 2578 
Q 928 2378 1081 2264 
Q 1234 2150 1697 2047 
L 1894 2003 
Q 2506 1872 2764 1633 
Q 3022 1394 3022 966 
Q 3022 478 2636 193 
Q 2250 -91 1575 -91 
Q 1294 -91 989 -36 
Q 684 19 347 128 
L 347 722 
Q 666 556 975 473 
Q 1284 391 1588 391 
Q 1994 391 2212 530 
Q 2431 669 2431 922 
Q 2431 1156 2273 1281 
Q 2116 1406 1581 1522 
L 1381 1569 
Q 847 1681 609 1914 
Q 372 2147 372 2553 
Q 372 3047 722 3315 
Q 1072 3584 1716 3584 
Q 2034 3584 2315 3537 
Q 2597 3491 2834 3397 
z
" transform="scale(0.015625)"/>
       <path id="DejaVuSans-65" d="M 3597 1894 
L 3597 1613 
L 953 1613 
Q 991 1019 1311 708 
Q 1631 397 2203 397 
Q 2534 397 2845 478 
Q 3156 559 3463 722 
L 3463 178 
Q 3153 47 2828 -22 
Q 2503 -91 2169 -91 
Q 1331 -91 842 396 
Q 353 884 353 1716 
Q 353 2575 817 3079 
Q 1281 3584 2069 3584 
Q 2775 3584 3186 3129 
Q 3597 2675 3597 1894 
z
M 3022 2063 
Q 3016 2534 2758 2815 
Q 2500 3097 2075 3097 
Q 1594 3097 1305 2825 
Q 1016 2553 972 2059 
L 3022 2063 
z
" transform="scale(0.015625)"/>
       <path id="DejaVuSans-74" d="M 1172 4494 
L 1172 3500 
L 2356 3500 
L 2356 3053 
L 1172 3053 
L 1172 1153 
Q 1172 725 1289 603 
Q 1406 481 1766 481 
L 2356 481 
L 2356 0 
L 1766 0 
Q 1100 0 847 248 
Q 594 497 594 1153 
L 594 3053 
L 172 3053 
L 172 3500 
L 594 3500 
L 594 4494 
L 1172 4494 
z
" transform="scale(0.015625)"/>
      </defs>
      <use xlink:href="#DejaVuSans-73"/>
      <use xlink:href="#DejaVuSans-65" x="52.099609"/>
      <use xlink:href="#DejaVuSans-74" x="113.623047"/>
      <use xlink:href="#DejaVuSans-31" x="152.832031"/>
     </g>
    </g>
   </g>
  </g>
 </g>
 <defs>
  <clipPath id="pc2c108cd77">
   <rect x="57.6" y="41.472" width="357.12" height="266.112"/>
  </clipPath>
 </defs>
</svg>
