<?xml version="1.0" encoding="utf-8" standalone="no"?>
<!DOCTYPE svg PUBLIC "-//W3C//DTD SVG 1.1//EN"
  "http://www.w3.org/Graphics/SVG/1.1/DTD/svg11.dtd">
<svg xmlns:xlink="http://www.w3.org/1999/xlink" width="460.8pt" height="345.6pt" viewBox="0 0 460.8 345.6" xmlns="http://www.w3.org/2000/svg" version="1.1">
 <metadata>
  <rdf:RDF xmlns:dc="http://purl.org/dc/elements/1.1/" xmlns:cc="http://creativecommons.org/ns#" xmlns:rdf="http://www.w3.org/1999/02/22-rdf-syntax-ns#">
   <cc:Work>
    <dc:type rdf:resource="http://purl.org/dc/dcmitype/StillImage"/>
    <dc:date>2022-08-11T15:18:55.337433</dc:date>
    <dc:format>image/svg+xml</dc:format>
    <dc:creator>
     <cc:Agent>
      <dc:title>Matplotlib v3.5.2, https://matplotlib.org/</dc:title>
     </cc:Agent>
    </dc:creator>
   </cc:Work>
  </rdf:RDF>
 </metadata>
 <defs>
  <style type="text/css">*{stroke-linejoin: round; stroke-linecap: butt}</style>
 </defs>
 <g id="figure_1">
  <g id="patch_1">
   <path d="M 0 345.6 
L 460.8 345.6 
L 460.8 0 
L 0 0 
z
" style="fill: #ffffff"/>
  </g>
  <g id="axes_1">
   <g id="patch_2">
    <path d="M 57.6 307.584 
L 414.72 307.584 
L 414.72 41.472 
L 57.6 41.472 
z
" style="fill: #ffffff"/>
   </g>
   <g id="matplotlib.axis_1">
    <g id="xtick_1">
     <g id="line2d_1">
      <defs>
       <path id="m7474aea9a6" d="M 0 0 
L 0 3.5 
" style="stroke: #000000; stroke-width: 0.8"/>
      </defs>
      <g>
       <use xlink:href="#m7474aea9a6" x="73.832727" y="307.584" style="stroke: #000000; stroke-width: 0.8"/>
      </g>
     </g>
     <g id="text_1">
      <!-- 0 -->
      <g transform="translate(70.651477 322.182437)scale(0.1 -0.1)">
       <defs>
        <path id="DejaVuSans-30" d="M 2034 4250 
Q 1547 4250 1301 3770 
Q 1056 3291 1056 2328 
Q 1056 1369 1301 889 
Q 1547 409 2034 409 
Q 2525 409 2770 889 
Q 3016 1369 3016 2328 
Q 3016 3291 2770 3770 
Q 2525 4250 2034 4250 
z
M 2034 4750 
Q 2819 4750 3233 4129 
Q 3647 3509 3647 2328 
Q 3647 1150 3233 529 
Q 2819 -91 2034 -91 
Q 1250 -91 836 529 
Q 422 1150 422 2328 
Q 422 3509 836 4129 
Q 1250 4750 2034 4750 
z
" transform="scale(0.015625)"/>
       </defs>
       <use xlink:href="#DejaVuSans-30"/>
      </g>
     </g>
    </g>
    <g id="xtick_2">
     <g id="line2d_2">
      <g>
       <use xlink:href="#m7474aea9a6" x="137.254205" y="307.584" style="stroke: #000000; stroke-width: 0.8"/>
      </g>
     </g>
     <g id="text_2">
      <!-- 1000 -->
      <g transform="translate(124.529205 322.182437)scale(0.1 -0.1)">
       <defs>
        <path id="DejaVuSans-31" d="M 794 531 
L 1825 531 
L 1825 4091 
L 703 3866 
L 703 4441 
L 1819 4666 
L 2450 4666 
L 2450 531 
L 3481 531 
L 3481 0 
L 794 0 
L 794 531 
z
" transform="scale(0.015625)"/>
       </defs>
       <use xlink:href="#DejaVuSans-31"/>
       <use xlink:href="#DejaVuSans-30" x="63.623047"/>
       <use xlink:href="#DejaVuSans-30" x="127.246094"/>
       <use xlink:href="#DejaVuSans-30" x="190.869141"/>
      </g>
     </g>
    </g>
    <g id="xtick_3">
     <g id="line2d_3">
      <g>
       <use xlink:href="#m7474aea9a6" x="200.675683" y="307.584" style="stroke: #000000; stroke-width: 0.8"/>
      </g>
     </g>
     <g id="text_3">
      <!-- 2000 -->
      <g transform="translate(187.950683 322.182437)scale(0.1 -0.1)">
       <defs>
        <path id="DejaVuSans-32" d="M 1228 531 
L 3431 531 
L 3431 0 
L 469 0 
L 469 531 
Q 828 903 1448 1529 
Q 2069 2156 2228 2338 
Q 2531 2678 2651 2914 
Q 2772 3150 2772 3378 
Q 2772 3750 2511 3984 
Q 2250 4219 1831 4219 
Q 1534 4219 1204 4116 
Q 875 4013 500 3803 
L 500 4441 
Q 881 4594 1212 4672 
Q 1544 4750 1819 4750 
Q 2544 4750 2975 4387 
Q 3406 4025 3406 3419 
Q 3406 3131 3298 2873 
Q 3191 2616 2906 2266 
Q 2828 2175 2409 1742 
Q 1991 1309 1228 531 
z
" transform="scale(0.015625)"/>
       </defs>
       <use xlink:href="#DejaVuSans-32"/>
       <use xlink:href="#DejaVuSans-30" x="63.623047"/>
       <use xlink:href="#DejaVuSans-30" x="127.246094"/>
       <use xlink:href="#DejaVuSans-30" x="190.869141"/>
      </g>
     </g>
    </g>
    <g id="xtick_4">
     <g id="line2d_4">
      <g>
       <use xlink:href="#m7474aea9a6" x="264.097161" y="307.584" style="stroke: #000000; stroke-width: 0.8"/>
      </g>
     </g>
     <g id="text_4">
      <!-- 3000 -->
      <g transform="translate(251.372161 322.182437)scale(0.1 -0.1)">
       <defs>
        <path id="DejaVuSans-33" d="M 2597 2516 
Q 3050 2419 3304 2112 
Q 3559 1806 3559 1356 
Q 3559 666 3084 287 
Q 2609 -91 1734 -91 
Q 1441 -91 1130 -33 
Q 819 25 488 141 
L 488 750 
Q 750 597 1062 519 
Q 1375 441 1716 441 
Q 2309 441 2620 675 
Q 2931 909 2931 1356 
Q 2931 1769 2642 2001 
Q 2353 2234 1838 2234 
L 1294 2234 
L 1294 2753 
L 1863 2753 
Q 2328 2753 2575 2939 
Q 2822 3125 2822 3475 
Q 2822 3834 2567 4026 
Q 2313 4219 1838 4219 
Q 1578 4219 1281 4162 
Q 984 4106 628 3988 
L 628 4550 
Q 988 4650 1302 4700 
Q 1616 4750 1894 4750 
Q 2613 4750 3031 4423 
Q 3450 4097 3450 3541 
Q 3450 3153 3228 2886 
Q 3006 2619 2597 2516 
z
" transform="scale(0.015625)"/>
       </defs>
       <use xlink:href="#DejaVuSans-33"/>
       <use xlink:href="#DejaVuSans-30" x="63.623047"/>
       <use xlink:href="#DejaVuSans-30" x="127.246094"/>
       <use xlink:href="#DejaVuSans-30" x="190.869141"/>
      </g>
     </g>
    </g>
    <g id="xtick_5">
     <g id="line2d_5">
      <g>
       <use xlink:href="#m7474aea9a6" x="327.518639" y="307.584" style="stroke: #000000; stroke-width: 0.8"/>
      </g>
     </g>
     <g id="text_5">
      <!-- 4000 -->
      <g transform="translate(314.793639 322.182437)scale(0.1 -0.1)">
       <defs>
        <path id="DejaVuSans-34" d="M 2419 4116 
L 825 1625 
L 2419 1625 
L 2419 4116 
z
M 2253 4666 
L 3047 4666 
L 3047 1625 
L 3713 1625 
L 3713 1100 
L 3047 1100 
L 3047 0 
L 2419 0 
L 2419 1100 
L 313 1100 
L 313 1709 
L 2253 4666 
z
" transform="scale(0.015625)"/>
       </defs>
       <use xlink:href="#DejaVuSans-34"/>
       <use xlink:href="#DejaVuSans-30" x="63.623047"/>
       <use xlink:href="#DejaVuSans-30" x="127.246094"/>
       <use xlink:href="#DejaVuSans-30" x="190.869141"/>
      </g>
     </g>
    </g>
    <g id="xtick_6">
     <g id="line2d_6">
      <g>
       <use xlink:href="#m7474aea9a6" x="390.940117" y="307.584" style="stroke: #000000; stroke-width: 0.8"/>
      </g>
     </g>
     <g id="text_6">
      <!-- 5000 -->
      <g transform="translate(378.215117 322.182437)scale(0.1 -0.1)">
       <defs>
        <path id="DejaVuSans-35" d="M 691 4666 
L 3169 4666 
L 3169 4134 
L 1269 4134 
L 1269 2991 
Q 1406 3038 1543 3061 
Q 1681 3084 1819 3084 
Q 2600 3084 3056 2656 
Q 3513 2228 3513 1497 
Q 3513 744 3044 326 
Q 2575 -91 1722 -91 
Q 1428 -91 1123 -41 
Q 819 9 494 109 
L 494 744 
Q 775 591 1075 516 
Q 1375 441 1709 441 
Q 2250 441 2565 725 
Q 2881 1009 2881 1497 
Q 2881 1984 2565 2268 
Q 2250 2553 1709 2553 
Q 1456 2553 1204 2497 
Q 953 2441 691 2322 
L 691 4666 
z
" transform="scale(0.015625)"/>
       </defs>
       <use xlink:href="#DejaVuSans-35"/>
       <use xlink:href="#DejaVuSans-30" x="63.623047"/>
       <use xlink:href="#DejaVuSans-30" x="127.246094"/>
       <use xlink:href="#DejaVuSans-30" x="190.869141"/>
      </g>
     </g>
    </g>
   </g>
   <g id="matplotlib.axis_2">
    <g id="ytick_1">
     <g id="line2d_7">
      <defs>
       <path id="m526705e116" d="M 0 0 
L -3.5 0 
" style="stroke: #000000; stroke-width: 0.8"/>
      </defs>
      <g>
       <use xlink:href="#m526705e116" x="57.6" y="278.598897" style="stroke: #000000; stroke-width: 0.8"/>
      </g>
     </g>
     <g id="text_7">
      <!-- 4000 -->
      <g transform="translate(25.15 282.398116)scale(0.1 -0.1)">
       <use xlink:href="#DejaVuSans-34"/>
       <use xlink:href="#DejaVuSans-30" x="63.623047"/>
       <use xlink:href="#DejaVuSans-30" x="127.246094"/>
       <use xlink:href="#DejaVuSans-30" x="190.869141"/>
      </g>
     </g>
    </g>
    <g id="ytick_2">
     <g id="line2d_8">
      <g>
       <use xlink:href="#m526705e116" x="57.6" y="248.104767" style="stroke: #000000; stroke-width: 0.8"/>
      </g>
     </g>
     <g id="text_8">
      <!-- 4050 -->
      <g transform="translate(25.15 251.903986)scale(0.1 -0.1)">
       <use xlink:href="#DejaVuSans-34"/>
       <use xlink:href="#DejaVuSans-30" x="63.623047"/>
       <use xlink:href="#DejaVuSans-35" x="127.246094"/>
       <use xlink:href="#DejaVuSans-30" x="190.869141"/>
      </g>
     </g>
    </g>
    <g id="ytick_3">
     <g id="line2d_9">
      <g>
       <use xlink:href="#m526705e116" x="57.6" y="217.610637" style="stroke: #000000; stroke-width: 0.8"/>
      </g>
     </g>
     <g id="text_9">
      <!-- 4100 -->
      <g transform="translate(25.15 221.409856)scale(0.1 -0.1)">
       <use xlink:href="#DejaVuSans-34"/>
       <use xlink:href="#DejaVuSans-31" x="63.623047"/>
       <use xlink:href="#DejaVuSans-30" x="127.246094"/>
       <use xlink:href="#DejaVuSans-30" x="190.869141"/>
      </g>
     </g>
    </g>
    <g id="ytick_4">
     <g id="line2d_10">
      <g>
       <use xlink:href="#m526705e116" x="57.6" y="187.116507" style="stroke: #000000; stroke-width: 0.8"/>
      </g>
     </g>
     <g id="text_10">
      <!-- 4150 -->
      <g transform="translate(25.15 190.915726)scale(0.1 -0.1)">
       <use xlink:href="#DejaVuSans-34"/>
       <use xlink:href="#DejaVuSans-31" x="63.623047"/>
       <use xlink:href="#DejaVuSans-35" x="127.246094"/>
       <use xlink:href="#DejaVuSans-30" x="190.869141"/>
      </g>
     </g>
    </g>
    <g id="ytick_5">
     <g id="line2d_11">
      <g>
       <use xlink:href="#m526705e116" x="57.6" y="156.622377" style="stroke: #000000; stroke-width: 0.8"/>
      </g>
     </g>
     <g id="text_11">
      <!-- 4200 -->
      <g transform="translate(25.15 160.421596)scale(0.1 -0.1)">
       <use xlink:href="#DejaVuSans-34"/>
       <use xlink:href="#DejaVuSans-32" x="63.623047"/>
       <use xlink:href="#DejaVuSans-30" x="127.246094"/>
       <use xlink:href="#DejaVuSans-30" x="190.869141"/>
      </g>
     </g>
    </g>
    <g id="ytick_6">
     <g id="line2d_12">
      <g>
       <use xlink:href="#m526705e116" x="57.6" y="126.128247" style="stroke: #000000; stroke-width: 0.8"/>
      </g>
     </g>
     <g id="text_12">
      <!-- 4250 -->
      <g transform="translate(25.15 129.927465)scale(0.1 -0.1)">
       <use xlink:href="#DejaVuSans-34"/>
       <use xlink:href="#DejaVuSans-32" x="63.623047"/>
       <use xlink:href="#DejaVuSans-35" x="127.246094"/>
       <use xlink:href="#DejaVuSans-30" x="190.869141"/>
      </g>
     </g>
    </g>
    <g id="ytick_7">
     <g id="line2d_13">
      <g>
       <use xlink:href="#m526705e116" x="57.6" y="95.634116" style="stroke: #000000; stroke-width: 0.8"/>
      </g>
     </g>
     <g id="text_13">
      <!-- 4300 -->
      <g transform="translate(25.15 99.433335)scale(0.1 -0.1)">
       <use xlink:href="#DejaVuSans-34"/>
       <use xlink:href="#DejaVuSans-33" x="63.623047"/>
       <use xlink:href="#DejaVuSans-30" x="127.246094"/>
       <use xlink:href="#DejaVuSans-30" x="190.869141"/>
      </g>
     </g>
    </g>
    <g id="ytick_8">
     <g id="line2d_14">
      <g>
       <use xlink:href="#m526705e116" x="57.6" y="65.139986" style="stroke: #000000; stroke-width: 0.8"/>
      </g>
     </g>
     <g id="text_14">
      <!-- 4350 -->
      <g transform="translate(25.15 68.939205)scale(0.1 -0.1)">
       <use xlink:href="#DejaVuSans-34"/>
       <use xlink:href="#DejaVuSans-33" x="63.623047"/>
       <use xlink:href="#DejaVuSans-35" x="127.246094"/>
       <use xlink:href="#DejaVuSans-30" x="190.869141"/>
      </g>
     </g>
    </g>
   </g>
   <g id="line2d_15">
    <path d="M 73.832727 190.009578 
L 73.95957 182.425056 
L 74.086413 192.980671 
L 74.213256 183.128744 
L 74.276678 187.116507 
L 74.466942 196.030084 
L 74.593785 194.622708 
L 74.657206 200.799854 
L 74.720628 200.408851 
L 74.784049 194.779051 
L 74.910892 205.178323 
L 74.974314 203.14558 
L 75.037735 202.598234 
L 75.164578 204.943959 
L 75.228 204.787319 
L 75.481686 191.651615 
L 75.608529 196.733772 
L 75.798793 181.408685 
L 76.1159 116.823665 
L 76.179322 114.165257 
L 76.242743 115.650654 
L 76.369586 115.41629 
L 76.496429 126.988276 
L 76.94038 175.935227 
L 77.003801 175.309859 
L 77.38433 194.544686 
L 77.511173 192.667987 
L 77.638016 189.071228 
L 77.82828 199.157817 
L 77.891702 197.203095 
L 77.955123 193.371675 
L 78.081966 205.725669 
L 78.145388 205.256643 
L 78.208809 201.816226 
L 78.272231 202.441892 
L 78.525917 204.474635 
L 78.65276 211.511811 
L 78.843024 201.816226 
L 78.969867 208.61874 
L 79.033288 206.038651 
L 79.09671 201.112538 
L 79.286974 214.795886 
L 79.477239 206.742338 
L 79.54066 205.021981 
L 79.604082 205.100301 
L 79.667503 207.289684 
L 79.794346 199.783185 
L 79.921189 213.31019 
L 80.048032 202.754576 
L 80.111454 205.569327 
L 80.174875 205.100301 
L 80.238297 200.174189 
L 80.301718 201.3472 
L 80.428561 205.491305 
L 80.555404 204.00561 
L 80.745668 205.647647 
L 80.80909 205.569327 
L 80.935933 204.00561 
L 81.062776 212.919186 
L 81.189619 200.877877 
L 81.25304 206.194993 
L 81.316462 214.092198 
L 81.379883 209.322428 
L 81.443305 202.676256 
L 81.506726 203.458264 
L 81.570148 203.301922 
L 81.633569 200.252508 
L 81.696991 201.503542 
L 81.823833 204.552955 
L 81.887255 204.161951 
L 81.950676 200.486873 
L 82.014098 204.318293 
L 82.077519 202.519914 
L 82.267784 195.326396 
L 82.394627 194.310025 
L 82.584891 202.989238 
L 82.648313 202.050888 
L 82.838577 194.622708 
L 83.092263 204.943959 
L 83.155685 204.865639 
L 83.345949 202.754576 
L 83.472792 206.038651 
L 83.599635 203.379944 
L 83.663056 206.273015 
L 83.726478 205.491305 
L 83.916742 201.3472 
L 83.980164 201.503542 
L 84.043585 204.865639 
L 84.107007 203.223602 
L 84.170428 198.454129 
L 84.23385 201.034218 
L 84.297271 205.882011 
L 84.360693 205.412985 
L 84.614379 202.519914 
L 84.741221 206.038651 
L 84.868064 200.330531 
L 84.931486 202.12891 
L 84.994907 204.630977 
L 85.185172 198.375809 
L 85.312015 203.92729 
L 85.438858 202.20723 
L 85.502279 202.519914 
L 85.629122 209.791751 
L 85.692544 207.68039 
L 85.819387 203.14558 
L 85.94623 209.55709 
L 86.073073 204.318293 
L 86.136494 205.100301 
L 86.199915 205.100301 
L 86.643866 216.750607 
L 87.087816 172.729471 
L 87.151238 173.276817 
L 87.341502 176.482573 
L 87.468345 187.585533 
L 87.531767 186.178157 
L 87.595188 186.881845 
L 87.785452 195.170054 
L 87.912295 191.495273 
L 87.975717 191.807957 
L 88.039138 194.388047 
L 88.10256 194.310025 
L 88.229403 190.16592 
L 88.419667 203.849267 
L 88.483089 200.486873 
L 88.609932 183.988774 
L 88.673353 185.318128 
L 88.736775 186.725503 
L 88.863618 195.404716 
L 88.927039 192.746307 
L 88.99046 192.276983 
L 89.117303 200.956197 
L 89.244146 194.85737 
L 89.434411 203.770947 
L 89.561254 205.021981 
L 89.688097 204.00561 
L 89.81494 198.688493 
L 89.878361 199.626843 
L 89.941783 200.799854 
L 90.005204 195.952062 
L 90.132047 214.873908 
L 90.195469 213.31019 
L 90.322312 206.742338 
L 90.385733 210.104436 
L 90.449154 208.462398 
L 90.575997 201.581564 
L 90.639419 201.972568 
L 90.893105 205.882011 
L 91.019948 193.293653 
L 91.210212 180.079331 
L 91.273634 180.157651 
L 91.590741 197.828464 
L 91.654163 194.075363 
L 91.717584 192.276983 
L 91.844427 205.882011 
L 91.907848 205.178323 
L 91.97127 203.379944 
L 92.161534 211.511811 
L 92.224956 211.355469 
L 92.351799 204.083631 
L 92.478642 207.524049 
L 92.542063 205.100301 
L 92.605485 205.882011 
L 92.668906 207.836732 
L 92.795749 203.458264 
L 92.859171 203.536286 
L 92.922592 204.396613 
L 93.049435 194.544686 
L 93.112857 195.404716 
L 93.303121 203.692925 
L 93.366542 204.865639 
L 93.493385 201.972568 
L 93.620228 209.55709 
L 93.747071 202.754576 
L 93.873914 210.573462 
L 93.937336 203.06726 
L 94.000757 203.301922 
L 94.1276 213.857536 
L 94.191022 212.919186 
L 94.254443 212.606503 
L 94.381286 210.104436 
L 94.508129 214.013878 
L 94.761815 222.302088 
L 94.952079 213.153849 
L 95.015501 214.24854 
L 95.205765 215.812258 
L 95.269187 219.487336 
L 95.332608 219.252675 
L 95.459451 211.120807 
L 95.586294 219.252675 
L 95.713137 205.100301 
L 95.83998 215.733938 
L 96.157087 201.503542 
L 96.28393 205.334665 
L 96.347352 205.256643 
L 96.474195 203.14558 
L 96.601038 206.038651 
L 96.791302 211.902815 
L 96.981567 203.92729 
L 97.044988 205.178323 
L 97.10841 205.100301 
L 97.298674 197.750441 
L 97.425517 202.598234 
L 97.488939 202.519914 
L 97.615781 199.705163 
L 97.679203 204.083631 
L 97.742624 203.379944 
L 97.806046 198.845133 
L 97.99631 211.746473 
L 98.059732 209.869773 
L 98.440261 193.528017 
L 98.503682 194.622708 
L 98.630525 203.301922 
L 98.693947 201.581564 
L 98.757368 202.363572 
L 98.884211 203.379944 
L 99.011054 214.873908 
L 99.074475 207.915052 
L 99.137897 210.729803 
L 99.201318 222.927605 
L 99.26474 220.738221 
L 99.328161 212.059157 
L 99.391583 213.779216 
L 99.455004 215.421254 
L 99.518426 213.701194 
L 99.70869 220.66005 
L 99.772112 219.565358 
L 99.835533 216.046919 
L 99.898955 216.124942 
L 99.962376 218.157983 
L 100.089219 210.808123 
L 100.152641 212.059157 
L 100.216062 213.857536 
L 100.279484 213.779216 
L 100.342905 213.31019 
L 100.469748 211.042785 
L 100.596591 218.861671 
L 100.723434 211.980837 
L 100.786855 213.31019 
L 100.850277 214.795886 
L 100.97712 211.433491 
L 101.103963 218.783351 
L 101.167384 216.906949 
L 101.230806 213.31019 
L 101.294227 213.779216 
L 101.357649 212.762845 
L 101.42107 208.149714 
L 101.484492 208.775082 
L 101.547913 213.544852 
L 101.611335 210.339097 
L 101.738178 200.643512 
L 101.865021 205.725669 
L 101.991863 202.598234 
L 102.055285 206.038651 
L 102.118706 205.491305 
L 102.182128 203.301922 
L 102.308971 211.042785 
L 102.435814 204.709297 
L 102.499235 206.585699 
L 102.562657 205.725669 
L 102.816343 202.050888 
L 103.006607 204.161951 
L 103.070029 204.00561 
L 103.13345 203.458264 
L 103.196872 201.816226 
L 103.260293 202.363572 
L 103.323715 202.598234 
L 103.450557 210.495439 
L 103.513979 210.417119 
L 103.704243 194.310025 
L 103.831086 200.956197 
L 103.957929 191.964299 
L 104.021351 192.120641 
L 104.084772 192.276983 
L 104.275037 203.536286 
L 104.338458 203.14558 
L 104.465301 195.63908 
L 104.592144 204.552955 
L 104.655566 201.737906 
L 104.718987 202.519914 
L 104.782408 204.552955 
L 104.84583 204.318293 
L 104.909251 204.240271 
L 105.28978 192.433325 
L 105.353202 194.231705 
L 105.480045 202.519914 
L 105.543466 199.157817 
L 105.670309 206.585699 
L 105.733731 203.379944 
L 105.797152 201.034218 
L 105.860574 202.754576 
L 105.987417 202.20723 
L 106.050838 203.223602 
L 106.11426 202.598234 
L 106.241102 203.14558 
L 106.304524 211.042785 
L 106.367945 208.071394 
L 106.494788 202.20723 
L 106.621631 204.00561 
L 106.748474 202.363572 
L 107.00216 205.412985 
L 107.065582 204.083631 
L 107.192425 212.997506 
L 107.255846 210.886145 
L 107.319268 204.709297 
L 107.382689 205.256643 
L 107.446111 205.334665 
L 107.509532 201.737906 
L 107.572954 202.754576 
L 107.636375 204.865639 
L 107.763218 200.174189 
L 107.890061 204.865639 
L 108.016904 199.861505 
L 108.080325 200.721534 
L 108.143747 202.519914 
L 108.27059 196.108404 
L 108.397433 201.737906 
L 108.587697 192.355303 
L 108.968226 205.803989 
L 109.095069 201.503542 
L 109.285333 206.038651 
L 109.412176 201.581564 
L 109.475598 202.441892 
L 109.539019 205.334665 
L 109.602441 204.240271 
L 109.729284 200.252508 
L 109.856127 204.240271 
L 109.919548 204.00561 
L 109.98297 202.989238 
L 110.046391 203.14558 
L 110.173234 202.12891 
L 110.300077 207.446026 
L 110.363499 204.474635 
L 110.42692 205.803989 
L 110.490342 211.120807 
L 110.553763 209.009744 
L 110.680606 203.06726 
L 110.744027 203.223602 
L 110.934292 199.705163 
L 111.061135 205.803989 
L 111.187978 214.17022 
L 111.568507 193.606337 
L 111.631928 195.873742 
L 111.758771 202.363572 
L 111.822193 201.425222 
L 111.885614 200.486873 
L 111.949036 202.754576 
L 112.012457 201.659884 
L 112.075878 200.565193 
L 112.202721 205.803989 
L 112.329564 200.877877 
L 112.456407 211.902815 
L 112.58325 203.770947 
L 112.646672 204.161951 
L 112.710093 203.14558 
L 112.773515 203.614606 
L 112.836936 206.038651 
L 112.900358 205.256643 
L 113.027201 208.775082 
L 113.090622 206.89868 
L 113.344308 200.877877 
L 113.471151 203.536286 
L 113.597994 202.12891 
L 113.661415 202.285252 
L 113.85168 197.984805 
L 113.915101 195.092032 
L 113.978523 197.203095 
L 114.041944 199.705163 
L 114.105366 198.063125 
L 114.232209 188.836566 
L 114.359052 176.169889 
L 114.549316 131.288723 
L 114.676159 138.638582 
L 114.803002 135.823832 
L 115.120109 156.544057 
L 115.183531 155.293023 
L 115.310374 157.482406 
L 115.373795 155.058659 
L 115.437217 157.091403 
L 115.56406 166.552624 
L 115.627481 166.239642 
L 115.817746 163.033887 
L 115.944589 154.902317 
L 116.00801 156.466035 
L 116.071432 154.354972 
L 116.198275 163.112206 
L 116.261696 159.984474 
L 116.515382 134.572798 
L 116.578803 142.313661 
L 117.149597 169.914721 
L 117.213018 170.383746 
L 117.593547 205.412985 
L 117.656969 206.351335 
L 117.783811 201.894546 
L 117.910654 214.013878 
L 117.974076 213.153849 
L 118.037497 211.355469 
L 118.100919 212.762845 
L 118.16434 212.293819 
L 118.291183 210.964465 
L 118.354605 211.355469 
L 118.481448 213.935558 
L 118.544869 210.182457 
L 118.608291 212.997506 
L 118.671712 219.252675 
L 118.735134 217.454295 
L 118.798555 212.371841 
L 118.861977 214.24854 
L 118.925398 218.627009 
L 118.98882 218.079663 
L 119.052241 214.24854 
L 119.115663 214.404882 
L 119.242505 224.413151 
L 119.369348 196.499408 
L 119.43277 198.454129 
L 119.496191 199.861505 
L 119.686456 191.729638 
L 119.749877 194.231705 
L 119.87672 204.630977 
L 120.193828 191.885979 
L 120.257249 196.499408 
L 120.320671 195.170054 
L 120.384092 194.622708 
L 120.510935 206.116673 
L 120.764621 194.622708 
L 120.828042 193.606337 
L 120.891464 194.231705 
L 120.954885 195.482738 
L 121.018307 195.092032 
L 121.14515 196.57743 
L 121.271993 193.371675 
L 121.335414 195.170054 
L 121.398836 194.935392 
L 121.462257 195.561058 
L 121.525679 194.935392 
L 121.5891 195.170054 
L 121.715943 202.676256 
L 121.842786 192.902649 
L 121.906208 198.219467 
L 121.969629 196.968434 
L 122.03305 193.528017 
L 122.096472 194.310025 
L 122.159893 194.231705 
L 122.223315 191.651615 
L 122.286736 193.371675 
L 122.413579 204.787319 
L 122.477001 202.363572 
L 122.603844 243.178804 
L 122.730687 240.520395 
L 122.85753 242.553287 
L 122.984373 241.224083 
L 123.111216 246.228217 
L 123.174637 245.133525 
L 123.30148 244.508008 
L 123.428323 239.269361 
L 123.491744 240.598566 
L 123.618587 245.837213 
L 123.682009 249.590314 
L 123.74543 247.088247 
L 123.872273 238.487353 
L 123.935695 238.956528 
L 123.999116 240.129391 
L 124.125959 236.063457 
L 124.252802 241.458595 
L 124.379645 236.923636 
L 124.443067 238.643696 
L 124.760174 228.244423 
L 124.823596 229.339114 
L 124.950438 236.37629 
L 125.01386 235.750773 
L 125.140703 232.388527 
L 125.204124 233.248706 
L 125.267546 236.767145 
L 125.330967 235.828944 
L 125.45781 230.902981 
L 125.521232 231.059323 
L 125.584653 230.199293 
L 125.648075 231.059323 
L 125.774918 225.586013 
L 125.838339 228.479085 
L 125.901761 233.796052 
L 125.965182 231.606668 
L 126.028604 227.384393 
L 126.092025 228.322743 
L 126.218868 234.108736 
L 126.789661 213.544852 
L 126.853083 213.622875 
L 127.043347 219.878042 
L 127.106769 219.643678 
L 127.233612 228.94826 
L 127.297033 226.636036 
L 127.677562 212.762845 
L 127.740984 214.013878 
L 127.804405 215.890577 
L 127.867826 215.18689 
L 127.931248 213.857536 
L 128.121512 222.067426 
L 128.184934 220.894563 
L 128.375198 224.960497 
L 128.565463 220.190875 
L 128.628884 221.676571 
L 128.692306 222.849433 
L 128.819149 219.096332 
L 129.009413 224.178638 
L 129.072835 223.240288 
L 129.136256 220.425537 
L 129.199677 220.738221 
L 129.32652 223.943976 
L 129.389942 223.553121 
L 129.453363 224.569493 
L 129.516785 223.005775 
L 129.580206 223.943976 
L 129.643628 228.08808 
L 129.707049 226.993389 
L 129.833892 221.129225 
L 130.087578 229.260943 
L 130.214421 232.388527 
L 130.277843 230.668319 
L 130.404686 222.067426 
L 130.531529 229.260943 
L 130.59495 223.553121 
L 130.721793 184.61444 
L 130.848636 179.766647 
L 130.975479 183.988774 
L 131.0389 183.207064 
L 131.102322 181.87771 
L 131.229165 175.075197 
L 131.292586 178.20293 
L 131.356008 178.046588 
L 131.419429 176.873576 
L 131.546272 184.379778 
L 131.673115 172.885814 
L 131.799958 184.223436 
L 131.86338 183.128744 
L 132.053644 185.396447 
L 132.180487 195.952062 
L 132.30733 190.556924 
L 132.624437 203.849267 
L 132.687859 204.161951 
L 132.941545 198.532151 
L 133.068388 203.92729 
L 133.131809 202.832598 
L 133.195231 202.050888 
L 133.322074 204.318293 
L 133.385495 202.441892 
L 133.448917 203.536286 
L 133.512338 203.458264 
L 133.575759 201.26888 
L 133.766024 175.075197 
L 133.829445 181.486707 
L 133.892867 185.943793 
L 133.956288 183.363406 
L 134.083131 180.470335 
L 134.209974 184.067094 
L 134.273396 183.363406 
L 134.336817 183.988774 
L 134.400239 186.021815 
L 134.46366 185.865473 
L 134.590503 181.95603 
L 134.717346 185.318128 
L 135.034453 171.556758 
L 135.097875 175.309859 
L 135.224718 182.268715 
L 135.288139 182.034053 
L 135.414982 185.630812 
L 135.541825 182.89438 
L 135.668668 186.490841 
L 135.73209 186.256477 
L 135.795511 183.910752 
L 135.858933 184.927124 
L 135.922354 186.490841 
L 135.985776 183.363406 
L 136.049197 184.379778 
L 136.17604 194.622708 
L 136.302883 183.75441 
L 136.429726 196.65575 
L 136.61999 185.474469 
L 136.683412 186.021815 
L 136.810255 180.157651 
L 136.937098 185.709131 
L 137.127362 182.73774 
L 137.254205 191.885979 
L 137.381048 186.412819 
L 137.44447 193.606337 
L 137.507891 190.634946 
L 137.571313 184.379778 
L 137.698156 193.919021 
L 137.824998 183.832432 
L 137.951841 187.507511 
L 138.015263 186.881845 
L 138.078684 188.054856 
L 138.205527 185.083466 
L 138.268949 190.400582 
L 138.33237 189.774916 
L 138.395792 185.318128 
L 138.522635 197.594099 
L 138.649478 185.161786 
L 138.712899 186.334499 
L 138.776321 204.00561 
L 138.839742 201.581564 
L 138.966585 199.235839 
L 139.030007 194.85737 
L 139.093428 195.482738 
L 139.220271 204.943959 
L 139.283692 204.709297 
L 139.6008 224.413151 
L 139.727643 209.713432 
L 139.791064 218.93999 
L 139.917907 197.750441 
L 140.04475 201.816226 
L 140.108172 199.001475 
L 140.171593 199.783185 
L 140.361858 204.709297 
L 140.425279 203.614606 
L 140.488701 205.100301 
L 140.552122 209.948093 
L 140.615544 208.69706 
L 140.742386 201.034218 
L 140.932651 205.725669 
L 140.996072 203.458264 
L 141.059494 204.709297 
L 141.186337 213.075529 
L 141.31318 204.630977 
L 141.440023 214.717566 
L 141.503444 214.482904 
L 141.566866 210.495439 
L 141.630287 212.059157 
L 141.75713 219.174355 
L 142.074238 209.713432 
L 142.137659 212.762845 
L 142.20108 212.137477 
L 142.327923 206.664019 
L 142.454766 214.092198 
L 142.518188 211.980837 
L 142.581609 210.964465 
L 142.708452 216.203262 
L 142.771874 213.38851 
L 142.835295 214.013878 
L 142.898717 216.203262 
L 143.02556 212.684525 
L 143.152403 215.03025 
L 143.215824 213.857536 
L 143.279246 214.17022 
L 143.406089 212.606503 
L 143.532932 215.03025 
L 143.596353 214.326562 
L 143.659774 214.639544 
L 143.723196 214.561224 
L 143.850039 211.042785 
L 143.976882 214.873908 
L 144.040303 218.314325 
L 144.103725 217.375975 
L 144.230568 212.059157 
L 144.293989 212.293819 
L 144.357411 211.277149 
L 144.420832 213.075529 
L 144.484254 211.824495 
L 144.611097 203.301922 
L 144.864783 210.573462 
L 144.928204 207.446026 
L 145.055047 193.762679 
L 145.18189 199.235839 
L 145.308733 193.371675 
L 145.435576 204.083631 
L 145.498997 203.849267 
L 145.62584 194.388047 
L 145.752683 196.733772 
L 145.816105 196.499408 
L 145.879526 193.840999 
L 145.942948 195.326396 
L 146.069791 205.647647 
L 146.196634 201.581564 
L 146.260055 203.92729 
L 146.323477 203.458264 
L 146.450319 201.112538 
L 146.577162 202.598234 
L 146.704005 201.503542 
L 146.767427 201.894546 
L 146.830848 201.425222 
L 146.89427 219.252675 
L 146.957691 219.174355 
L 147.084534 210.651781 
L 147.147956 211.668153 
L 147.33822 202.441892 
L 147.465063 208.931424 
L 147.655328 203.458264 
L 147.718749 205.334665 
L 147.782171 204.00561 
L 147.909013 191.02595 
L 147.972435 194.701028 
L 148.099278 182.89438 
L 148.162699 187.585533 
L 148.226121 193.606337 
L 148.289542 189.30589 
L 148.352964 188.211199 
L 148.479807 195.170054 
L 148.60665 189.931258 
L 148.670071 190.634946 
L 148.796914 193.762679 
L 148.860336 193.293653 
L 148.987179 196.65575 
L 149.177443 192.667987 
L 149.240865 193.371675 
L 149.431129 200.565193 
L 149.557972 204.865639 
L 149.684815 200.330531 
L 149.748236 202.12891 
L 149.875079 211.824495 
L 150.001922 203.14558 
L 150.128765 210.651781 
L 150.255608 204.240271 
L 150.382451 208.540718 
L 150.509294 204.240271 
L 150.572716 204.709297 
L 150.699559 210.026116 
L 150.76298 209.869773 
L 150.826401 212.215499 
L 150.889823 211.902815 
L 150.953244 210.808123 
L 151.080087 215.577596 
L 151.270352 208.149714 
L 151.333773 203.692925 
L 151.397195 203.849267 
L 151.460616 204.474635 
L 151.524038 203.223602 
L 151.841145 214.952228 
L 151.904567 214.482904 
L 152.03141 203.14558 
L 152.094831 195.404716 
L 152.158252 195.482738 
L 152.285095 199.157817 
L 152.411938 194.85737 
L 152.47536 195.482738 
L 152.538781 196.65575 
L 152.665624 192.980671 
L 152.792467 203.614606 
L 152.91931 195.326396 
L 153.046153 204.943959 
L 153.236418 193.606337 
L 153.299839 191.729638 
L 153.363261 192.355303 
L 153.490104 194.622708 
L 153.616946 192.355303 
L 153.743789 201.659884 
L 153.807211 200.721534 
L 153.870632 197.43746 
L 153.997475 200.799854 
L 154.124318 194.935392 
L 154.18774 195.7174 
L 154.441426 193.371675 
L 154.63169 196.030084 
L 154.695112 199.001475 
L 154.758533 197.124776 
L 154.948798 179.844967 
L 155.012219 196.108404 
L 155.07564 192.276983 
L 155.139062 192.980671 
L 155.265905 196.499408 
L 155.392748 192.355303 
L 155.456169 193.215333 
L 155.646434 203.692925 
L 155.773277 202.050888 
L 155.836698 203.06726 
L 155.90012 202.910918 
L 155.963541 201.816226 
L 156.026963 202.598234 
L 156.217227 208.227736 
L 156.280649 206.664019 
L 156.407492 209.009744 
L 156.661177 193.371675 
L 156.78802 205.178323 
L 157.295392 153.26028 
L 157.485657 147.786821 
L 157.549078 146.535788 
L 157.6125 148.412487 
L 158.119871 184.145414 
L 158.246714 183.441428 
L 158.310136 183.832432 
L 158.373557 183.363406 
L 158.563822 194.231705 
L 158.627243 191.104269 
L 158.690665 192.980671 
L 158.817508 185.396447 
L 159.007772 195.79572 
L 159.071194 194.779051 
L 159.134615 194.388047 
L 159.261458 205.412985 
L 159.32488 204.240271 
L 159.388301 201.503542 
L 159.451722 204.161951 
L 159.515144 202.910918 
L 159.578565 198.610471 
L 159.641987 199.939825 
L 159.76883 204.709297 
L 159.832251 203.770947 
L 159.895673 204.161951 
L 159.959094 203.849267 
L 160.022516 202.20723 
L 160.149359 206.507677 
L 160.276202 198.063125 
L 160.403045 209.088064 
L 160.466466 208.384078 
L 160.656731 203.14558 
L 160.720152 202.519914 
L 160.783573 204.396613 
L 160.846995 202.832598 
L 160.973838 193.762679 
L 161.100681 206.507677 
L 161.227524 200.956197 
L 161.290945 201.972568 
L 161.417788 193.997341 
L 161.48121 196.186426 
L 161.608053 200.721534 
L 161.671474 201.112538 
L 161.734896 202.285252 
L 161.798317 201.581564 
L 161.92516 203.614606 
L 162.052003 201.659884 
L 162.242267 204.709297 
L 162.36911 201.972568 
L 162.495953 206.742338 
L 162.559375 204.630977 
L 162.622796 202.519914 
L 162.686218 203.14558 
L 162.813061 202.285252 
L 162.939904 203.614606 
L 163.066747 212.528183 
L 163.130168 200.486873 
L 163.19359 201.894546 
L 163.257011 201.3472 
L 163.383854 193.449995 
L 163.447276 194.231705 
L 163.510697 194.153682 
L 163.574119 193.293653 
L 163.764383 197.124776 
L 163.827804 196.499408 
L 164.08149 193.371675 
L 164.271755 204.787319 
L 164.398598 203.614606 
L 164.462019 202.832598 
L 164.525441 203.06726 
L 164.588862 204.474635 
L 164.715705 201.112538 
L 164.779127 201.503542 
L 164.842548 201.816226 
L 164.90597 201.581564 
L 165.096234 199.470501 
L 165.223077 202.989238 
L 165.34992 193.137013 
L 165.413341 196.030084 
L 165.540184 204.318293 
L 165.603606 201.894546 
L 165.667027 203.14558 
L 165.730449 203.223602 
L 165.857292 200.096167 
L 165.920713 202.598234 
L 165.984135 201.737906 
L 166.047556 199.314159 
L 166.174399 204.865639 
L 166.364664 194.388047 
L 166.554928 203.770947 
L 166.681771 201.190858 
L 166.808614 209.635112 
L 166.872035 208.69706 
L 166.998878 202.12891 
L 167.125721 209.791751 
L 167.252564 204.161951 
L 167.315986 204.709297 
L 167.379407 205.412985 
L 167.696515 214.561224 
L 167.759936 213.23187 
L 167.823358 215.577596 
L 168.267308 182.581399 
L 168.330729 183.75441 
L 168.394151 184.53612 
L 168.520994 183.519748 
L 168.711258 195.013712 
L 168.77468 193.606337 
L 168.838101 191.885979 
L 168.964944 203.14558 
L 169.028366 199.392479 
L 169.091787 191.807957 
L 169.155209 193.762679 
L 169.21863 198.532151 
L 169.282052 197.359438 
L 169.408894 192.042619 
L 169.472316 194.231705 
L 169.599159 206.429357 
L 169.789423 191.885979 
L 170.043109 197.828464 
L 170.169952 195.092032 
L 170.296795 205.725669 
L 170.360217 203.14558 
L 170.423638 200.799854 
L 170.740746 209.400748 
L 170.994431 199.626843 
L 171.121274 203.849267 
L 171.184696 197.906784 
L 171.311539 213.857536 
L 171.438382 201.581564 
L 171.501803 202.12891 
L 171.628646 204.552955 
L 171.818911 192.042619 
L 172.009175 199.939825 
L 172.453125 174.449829 
L 172.579968 182.347034 
L 172.64339 180.392015 
L 172.770233 187.820195 
L 172.833654 186.334499 
L 172.897076 182.972402 
L 173.023919 195.952062 
L 173.08734 194.779051 
L 173.150762 194.310025 
L 173.404448 200.330531 
L 173.531291 192.980671 
L 173.594712 194.231705 
L 173.658134 195.248374 
L 173.721555 193.840999 
L 173.784976 194.310025 
L 173.848398 196.499408 
L 173.911819 195.7174 
L 173.975241 192.667987 
L 174.038662 192.902649 
L 174.102084 193.684359 
L 174.228927 184.770782 
L 174.292348 185.239808 
L 174.419191 192.980671 
L 174.482613 192.824329 
L 174.609456 193.606337 
L 174.672877 193.293653 
L 174.79972 196.499408 
L 174.926563 191.729638 
L 175.053406 196.57743 
L 175.180249 191.104269 
L 175.370513 204.318293 
L 175.497356 193.997341 
L 175.624199 202.832598 
L 175.687621 202.598234 
L 175.814464 204.552955 
L 175.941307 212.215499 
L 176.004728 210.495439 
L 176.131571 201.972568 
L 176.258414 204.474635 
L 176.385257 202.910918 
L 176.5121 206.585699 
L 176.638943 201.737906 
L 176.765786 206.742338 
L 176.892629 193.293653 
L 177.019472 204.474635 
L 177.082893 203.614606 
L 177.336579 192.667987 
L 177.400001 191.182292 
L 177.526844 195.7174 
L 177.590265 194.701028 
L 177.717108 193.137013 
L 177.78053 194.779051 
L 177.907373 203.614606 
L 177.970794 202.676256 
L 178.097637 195.482738 
L 178.161058 195.873742 
L 178.22448 197.984805 
L 178.478166 190.713266 
L 178.541587 190.869608 
L 178.605009 194.701028 
L 178.731852 184.53612 
L 178.795273 187.507511 
L 178.858695 196.499408 
L 178.922116 193.293653 
L 178.985538 186.881845 
L 179.239224 202.285252 
L 179.619752 191.807957 
L 179.683174 192.042619 
L 179.873438 198.219467 
L 180.127124 205.491305 
L 180.190546 205.412985 
L 180.253967 203.223602 
L 180.38081 214.795886 
L 180.444232 214.404882 
L 180.634496 208.61874 
L 180.697918 206.507677 
L 180.888182 214.24854 
L 181.015025 203.536286 
L 181.078446 206.742338 
L 181.141868 211.042785 
L 181.268711 200.486873 
L 181.332132 204.083631 
L 181.395554 203.849267 
L 181.458975 202.676256 
L 181.522397 204.474635 
L 181.585818 203.770947 
L 181.64924 202.285252 
L 181.776083 212.997506 
L 181.839504 210.573462 
L 181.902926 201.425222 
L 181.966347 204.396613 
L 182.029769 211.980837 
L 182.09319 207.75871 
L 182.156612 203.06726 
L 182.283455 215.18689 
L 182.410297 210.026116 
L 182.473719 210.886145 
L 182.600562 202.519914 
L 182.663983 203.614606 
L 182.727405 206.116673 
L 182.790826 205.021981 
L 182.917669 202.363572 
L 183.044512 205.256643 
L 183.107934 204.240271 
L 183.171355 203.223602 
L 183.298198 206.585699 
L 183.36162 204.787319 
L 183.488463 210.104436 
L 183.615306 204.00561 
L 183.678727 204.865639 
L 183.742149 204.552955 
L 183.80557 203.223602 
L 183.932413 204.396613 
L 184.059256 201.425222 
L 184.186099 205.725669 
L 184.24952 205.021981 
L 184.376363 202.910918 
L 184.693471 215.499574 
L 184.756892 211.120807 
L 184.883735 201.894546 
L 185.074 203.536286 
L 185.200842 192.042619 
L 185.264264 194.231705 
L 185.391107 204.630977 
L 185.454528 203.92729 
L 185.51795 205.803989 
L 185.644793 201.581564 
L 185.771636 207.211364 
L 185.898479 202.832598 
L 186.025322 207.68039 
L 186.152165 202.989238 
L 186.215586 204.709297 
L 186.279008 203.849267 
L 186.469272 194.153682 
L 186.849801 206.742338 
L 187.040065 202.285252 
L 187.103487 203.379944 
L 187.166908 203.849267 
L 187.23033 203.458264 
L 187.357173 205.256643 
L 187.420594 204.787319 
L 187.484016 211.355469 
L 187.547437 206.89868 
L 187.610859 199.939825 
L 187.67428 200.174189 
L 187.801123 205.021981 
L 187.927966 202.676256 
L 188.054809 204.943959 
L 188.181652 209.55709 
L 188.245073 205.021981 
L 188.308495 207.367706 
L 188.371916 212.762845 
L 188.435338 212.684525 
L 188.689024 200.643512 
L 188.752445 202.754576 
L 188.815867 204.865639 
L 188.94271 198.610471 
L 189.006131 201.112538 
L 189.069553 204.474635 
L 189.196396 194.231705 
L 189.259817 196.890412 
L 189.323239 200.252508 
L 189.450082 193.371675 
L 189.576924 196.57743 
L 189.767189 191.964299 
L 190.147718 204.943959 
L 190.274561 202.910918 
L 190.337982 204.083631 
L 190.464825 207.993372 
L 190.591668 202.20723 
L 190.718511 204.709297 
L 190.845354 201.034218 
L 190.908776 201.737906 
L 191.09904 204.630977 
L 191.162461 205.256643 
L 191.225883 205.100301 
L 191.352726 202.989238 
L 191.479569 206.89868 
L 191.54299 205.178323 
L 191.733255 212.137477 
L 192.113784 199.939825 
L 192.177205 202.363572 
L 192.304048 215.733938 
L 192.367469 214.952228 
L 192.557734 205.412985 
L 192.747998 194.310025 
L 192.938263 203.06726 
L 193.065106 200.565193 
L 193.191949 202.676256 
L 193.25537 201.3472 
L 193.382213 204.630977 
L 193.445635 201.972568 
L 193.509056 202.754576 
L 193.572478 205.647647 
L 193.635899 205.491305 
L 193.826163 203.849267 
L 193.889585 202.910918 
L 194.143271 209.088064 
L 194.206692 208.227736 
L 194.333535 204.474635 
L 194.396957 204.709297 
L 194.587221 199.783185 
L 194.650643 201.190858 
L 194.714064 200.643512 
L 194.96775 193.762679 
L 195.031172 194.075363 
L 195.094593 195.7174 
L 195.158015 194.622708 
L 195.221436 194.935392 
L 195.284857 196.343066 
L 195.538543 183.363406 
L 195.728808 144.581067 
L 195.855651 157.248043 
L 195.982494 147.63048 
L 196.23618 163.972237 
L 196.299601 165.066928 
L 196.363023 163.815894 
L 196.426444 164.050556 
L 196.553287 163.424891 
L 196.68013 167.803657 
L 196.806973 176.091569 
L 196.933816 172.65145 
L 196.997237 174.527851 
L 197.12408 166.161619 
L 197.187502 166.630645 
L 197.250923 166.005278 
L 197.377766 176.013547 
L 197.441188 172.104104 
L 197.568031 165.14495 
L 197.758295 167.177991 
L 198.138824 176.482573 
L 198.265667 180.157651 
L 198.39251 179.844967 
L 198.519353 196.030084 
L 198.582774 194.388047 
L 198.709617 202.910918 
L 198.83646 202.20723 
L 198.899882 201.816226 
L 198.963303 200.017847 
L 199.090146 207.211364 
L 199.153568 205.334665 
L 199.216989 204.474635 
L 199.280411 208.384078 
L 199.343832 206.664019 
L 199.407254 203.92729 
L 199.470675 204.161951 
L 199.534097 205.491305 
L 199.660939 210.729803 
L 199.724361 206.664019 
L 199.787782 208.540718 
L 199.851204 215.890577 
L 199.914625 214.952228 
L 199.978047 210.026116 
L 200.041468 211.433491 
L 200.10489 214.404882 
L 200.168311 212.528183 
L 200.231733 210.182457 
L 200.295154 211.433491 
L 200.421997 216.515945 
L 200.54884 204.787319 
L 200.612262 207.75871 
L 200.739105 213.935558 
L 200.865948 208.61874 
L 200.929369 210.026116 
L 201.056212 214.17022 
L 201.119633 212.528183 
L 201.246476 214.404882 
L 201.373319 211.746473 
L 201.436741 212.215499 
L 201.563584 208.384078 
L 201.690427 214.952228 
L 202.007534 202.989238 
L 202.070956 206.429357 
L 202.26122 212.371841 
L 202.324642 213.857536 
L 202.451484 211.042785 
L 202.641749 214.24854 
L 202.70517 214.24854 
L 202.768592 212.919186 
L 202.895435 216.750607 
L 203.022278 211.590131 
L 203.085699 215.890577 
L 203.149121 215.577596 
L 203.212542 213.544852 
L 203.275964 214.17022 
L 203.339385 213.857536 
L 203.402807 211.590131 
L 203.593071 218.314325 
L 203.656493 215.10857 
L 203.846757 201.425222 
L 203.9736 194.779051 
L 204.037021 198.141445 
L 204.100443 197.828464 
L 204.163864 195.482738 
L 204.290707 202.598234 
L 204.41755 194.85737 
L 204.480972 196.108404 
L 204.607815 191.182292 
L 204.671236 193.449995 
L 204.734658 192.667987 
L 204.798079 191.260612 
L 204.924922 195.170054 
L 205.051765 193.058991 
L 205.115187 193.528017 
L 205.24203 195.561058 
L 205.368872 186.334499 
L 205.432294 189.30589 
L 205.495715 189.462232 
L 205.622558 184.770782 
L 205.68598 186.334499 
L 205.749401 184.379778 
L 205.812823 184.69276 
L 205.876244 184.849102 
L 205.939666 180.939361 
L 206.003087 181.017681 
L 206.12993 186.412819 
L 206.193352 184.770782 
L 206.256773 184.927124 
L 206.320195 184.927124 
L 206.383616 184.145414 
L 206.510459 186.178157 
L 206.637302 181.643347 
L 206.700724 184.223436 
L 206.764145 183.910752 
L 206.890988 176.873576 
L 206.954409 177.889948 
L 207.081252 185.552789 
L 207.144674 185.239808 
L 207.208095 181.799689 
L 207.271517 182.112373 
L 207.334938 185.239808 
L 207.39836 184.458098 
L 207.525203 180.157651 
L 207.588624 180.783019 
L 207.652046 182.425056 
L 207.715467 182.190395 
L 207.778889 182.581399 
L 207.84231 183.910752 
L 207.969153 181.096001 
L 208.032575 181.721369 
L 208.095996 181.87771 
L 208.159417 182.503376 
L 208.28626 186.881845 
L 208.349682 185.709131 
L 208.413103 186.960165 
L 208.920475 167.256311 
L 208.983897 170.383746 
L 209.174161 176.169889 
L 209.301004 180.157651 
L 209.427847 175.935227 
L 209.55469 180.313993 
L 209.681533 175.935227 
L 209.744954 176.873576 
L 209.808376 176.560892 
L 209.871797 175.622543 
L 209.935219 176.560892 
L 209.99864 175.935227 
L 210.062062 173.980505 
L 210.188905 182.190395 
L 210.315748 175.231539 
L 210.379169 177.18626 
L 210.442591 175.935227 
L 210.506012 177.108238 
L 210.632855 184.145414 
L 210.696277 181.017681 
L 210.759698 182.190395 
L 210.82312 184.223436 
L 210.886541 182.972402 
L 210.949963 181.95603 
L 211.393913 189.540254 
L 211.584177 184.770782 
L 211.71102 186.960165 
L 211.774442 185.161786 
L 211.837863 209.713432 
L 211.901285 206.429357 
L 212.091549 204.161951 
L 212.154971 203.92729 
L 212.218392 204.396613 
L 212.281814 204.083631 
L 212.408657 196.421088 
L 212.535499 203.614606 
L 212.725764 198.532151 
L 212.852607 194.466367 
L 212.916028 195.482738 
L 212.97945 194.85737 
L 213.042871 194.779051 
L 213.106293 195.013712 
L 213.169714 193.215333 
L 213.233136 193.684359 
L 213.359979 205.412985 
L 213.486822 199.626843 
L 213.613665 206.585699 
L 213.677086 204.318293 
L 213.740508 204.709297 
L 213.803929 205.647647 
L 213.867351 204.00561 
L 213.930772 204.943959 
L 213.994193 206.351335 
L 214.121036 196.343066 
L 214.184458 200.252508 
L 214.247879 198.845133 
L 214.311301 193.762679 
L 214.374722 197.281118 
L 214.438144 200.174189 
L 214.564987 193.371675 
L 214.628408 194.85737 
L 214.945516 190.400582 
L 215.072359 193.919021 
L 215.13578 193.058991 
L 215.199202 192.276983 
L 215.262623 192.511645 
L 215.389466 193.762679 
L 215.452887 192.980671 
L 215.516309 193.137013 
L 215.57973 194.85737 
L 215.643152 194.231705 
L 215.769995 190.009578 
L 215.960259 195.013712 
L 216.023681 194.935392 
L 216.150524 192.824329 
L 216.213945 193.058991 
L 216.594474 196.812092 
L 216.721317 195.170054 
L 216.784738 195.404716 
L 216.84816 196.421088 
L 216.911581 196.108404 
L 216.975003 195.170054 
L 217.101846 199.079497 
L 217.165267 195.326396 
L 217.228689 195.404716 
L 217.29211 200.096167 
L 217.355532 198.141445 
L 217.482375 191.573295 
L 217.609218 195.482738 
L 217.672639 195.170054 
L 217.862904 190.713266 
L 217.989747 185.083466 
L 218.11659 193.762679 
L 218.243432 184.067094 
L 218.306854 187.038187 
L 218.433697 194.85737 
L 218.687383 186.803823 
L 218.750804 185.474469 
L 218.877647 194.388047 
L 219.067912 185.083466 
L 219.131333 185.787153 
L 219.258176 189.383912 
L 219.385019 183.285086 
L 219.448441 187.663853 
L 219.511862 187.116507 
L 219.575284 184.067094 
L 219.702126 194.622708 
L 219.828969 184.61444 
L 219.892391 187.116507 
L 219.955812 203.849267 
L 220.019234 200.486873 
L 220.146077 194.388047 
L 220.336341 199.470501 
L 220.463184 203.614606 
L 220.526606 203.536286 
L 220.590027 201.816226 
L 220.653449 203.692925 
L 220.780292 214.013878 
L 220.843713 201.894546 
L 220.907135 204.161951 
L 220.970556 213.622875 
L 221.033978 207.055023 
L 221.097399 199.470501 
L 221.16082 203.849267 
L 221.224242 206.194993 
L 221.287663 204.709297 
L 221.351085 204.083631 
L 221.414506 205.021981 
L 221.541349 210.808123 
L 221.668192 204.787319 
L 221.731614 208.775082 
L 221.795035 207.915052 
L 221.921878 203.379944 
L 222.112143 206.742338 
L 222.175564 205.412985 
L 222.238986 205.021981 
L 222.365829 215.18689 
L 222.42925 212.450161 
L 222.492672 204.083631 
L 222.556093 205.725669 
L 222.619514 214.013878 
L 222.682936 210.964465 
L 222.746357 203.223602 
L 222.809779 208.071394 
L 222.8732 215.890577 
L 222.936622 213.544852 
L 223.000043 211.511811 
L 223.063465 213.31019 
L 223.126886 212.371841 
L 223.507415 202.285252 
L 223.570837 202.676256 
L 223.634258 205.569327 
L 223.69768 205.100301 
L 223.761101 205.412985 
L 224.014787 212.997506 
L 224.14163 204.318293 
L 224.205051 205.647647 
L 224.268473 205.491305 
L 224.331894 203.06726 
L 224.458737 207.915052 
L 224.522159 206.976703 
L 224.649002 203.770947 
L 224.775845 205.647647 
L 224.902688 200.486873 
L 224.966109 201.581564 
L 225.219795 210.339097 
L 225.346638 203.770947 
L 225.410059 205.882011 
L 225.473481 205.569327 
L 225.536902 204.630977 
L 225.600324 208.540718 
L 225.663745 207.993372 
L 225.790588 201.26888 
L 225.85401 204.00561 
L 225.917431 203.92729 
L 225.980853 204.396613 
L 226.044274 206.038651 
L 226.107696 205.725669 
L 226.234539 201.659884 
L 226.361382 208.775082 
L 226.488225 202.754576 
L 226.615068 211.355469 
L 226.741911 202.910918 
L 226.868753 207.915052 
L 226.995596 202.754576 
L 227.122439 203.223602 
L 227.249282 212.059157 
L 227.376125 208.540718 
L 227.439547 213.38851 
L 227.502968 212.997506 
L 227.629811 209.948093 
L 227.756654 212.371841 
L 227.883497 206.351335 
L 227.946919 209.400748 
L 228.01034 208.306056 
L 228.073762 237.627324 
L 228.137183 235.594283 
L 228.264026 230.433806 
L 228.390869 232.779531 
L 228.517712 226.133359 
L 228.581133 226.602534 
L 228.707976 230.981152 
L 228.834819 228.244423 
L 228.961662 231.997673 
L 229.342191 221.441909 
L 229.405613 223.865805 
L 229.469034 223.162117 
L 229.532456 221.129225 
L 229.595877 222.223917 
L 229.659299 223.943976 
L 229.72272 223.631292 
L 229.849563 222.223917 
L 229.912984 222.5366 
L 230.230092 215.812258 
L 230.293513 218.627009 
L 230.420356 212.762845 
L 230.547199 224.413151 
L 230.610621 221.989254 
L 230.674042 222.145597 
L 230.737464 224.022296 
L 230.864307 221.285567 
L 231.054571 224.022296 
L 231.181414 216.984971 
L 231.244835 218.157983 
L 231.308257 221.129225 
L 231.4351 211.746473 
L 231.498521 213.153849 
L 231.561943 215.733938 
L 231.625364 214.952228 
L 231.688786 213.23187 
L 231.815629 221.754742 
L 231.87905 219.956362 
L 231.942472 218.079663 
L 232.005893 221.207396 
L 232.069315 220.66005 
L 232.132736 219.096332 
L 232.259579 223.162117 
L 232.449844 215.577596 
L 232.576686 213.38851 
L 232.640108 213.075529 
L 232.703529 211.355469 
L 232.766951 211.668153 
L 232.957215 216.984971 
L 233.020637 215.655916 
L 233.084058 214.717566 
L 233.210901 204.787319 
L 233.274323 201.190858 
L 233.337744 202.754576 
L 233.528009 205.412985 
L 233.654852 202.285252 
L 233.718273 204.240271 
L 233.781695 203.379944 
L 233.845116 201.190858 
L 233.971959 205.491305 
L 234.03538 203.92729 
L 234.098802 203.458264 
L 234.162223 205.334665 
L 234.225645 205.178323 
L 234.289066 204.709297 
L 234.352488 205.803989 
L 234.479331 202.989238 
L 234.542752 204.083631 
L 234.606174 204.630977 
L 234.669595 203.536286 
L 234.733017 204.240271 
L 234.796438 204.318293 
L 234.85986 202.598234 
L 234.923281 203.692925 
L 234.986703 203.458264 
L 235.113546 193.997341 
L 235.176967 194.85737 
L 235.240389 195.326396 
L 235.367232 194.153682 
L 235.430653 194.622708 
L 235.494074 194.153682 
L 235.620917 190.713266 
L 235.811182 192.824329 
L 235.874603 192.980671 
L 236.128289 184.927124 
L 236.255132 259.44239 
L 236.381975 273.985618 
L 236.445397 271.249037 
L 236.57224 264.602866 
L 236.699083 270.076175 
L 236.762504 267.104933 
L 236.889347 271.718213 
L 237.01619 266.792249 
L 237.079611 269.763491 
L 237.143033 269.137826 
L 237.206454 266.557587 
L 237.269876 266.635758 
L 237.333297 268.6688 
L 237.396719 268.121454 
L 237.523562 264.211862 
L 237.586983 264.915699 
L 237.840669 248.964797 
L 237.904091 246.697392 
L 237.967512 247.166418 
L 238.094355 250.763177 
L 238.221198 224.882326 
L 238.665148 130.507013 
L 238.72857 124.564529 
L 238.791991 130.037689 
L 238.918834 167.725337 
L 238.982256 167.334333 
L 239.045677 165.692296 
L 239.109099 167.099969 
L 239.299363 185.552789 
L 239.362785 183.207064 
L 239.426206 183.363406 
L 239.489628 184.067094 
L 239.553049 182.581399 
L 239.743314 197.124776 
L 239.806735 194.466367 
L 239.870156 195.170054 
L 239.996999 186.100135 
L 240.123842 194.075363 
L 240.187264 193.684359 
L 240.250685 194.544686 
L 240.314107 192.355303 
L 240.377528 192.589667 
L 240.504371 205.178323 
L 240.631214 197.281118 
L 240.8849 203.692925 
L 240.948322 202.363572 
L 241.138586 214.873908 
L 241.202007 210.495439 
L 241.265429 212.684525 
L 241.32885 216.046919 
L 241.455693 204.787319 
L 241.582536 215.264912 
L 241.645958 213.153849 
L 241.836222 202.285252 
L 242.026487 205.256643 
L 242.15333 198.375809 
L 242.280173 206.116673 
L 242.533859 193.919021 
L 242.787544 196.499408 
L 243.04123 203.770947 
L 243.231495 194.779051 
L 243.294916 196.108404 
L 243.421759 202.285252 
L 243.485181 199.861505 
L 243.548602 193.840999 
L 243.612024 197.124776 
L 243.675445 204.474635 
L 243.738867 202.12891 
L 243.86571 192.824329 
L 243.929131 194.231705 
L 244.055974 192.355303 
L 244.246238 195.561058 
L 244.30966 192.042619 
L 244.373081 193.528017 
L 244.690189 186.256477 
L 244.817032 195.63908 
L 244.943875 193.371675 
L 245.007296 195.326396 
L 245.070718 194.622708 
L 245.134139 192.433325 
L 245.197561 193.293653 
L 245.260982 195.7174 
L 245.324404 193.997341 
L 245.387825 195.170054 
L 245.514668 205.569327 
L 245.641511 202.989238 
L 245.704932 203.536286 
L 245.895197 200.956197 
L 246.02204 201.659884 
L 246.148883 195.092032 
L 246.212304 196.733772 
L 246.402569 201.034218 
L 246.529412 194.701028 
L 246.656255 203.223602 
L 246.719676 202.519914 
L 246.783098 202.910918 
L 246.846519 201.737906 
L 246.973362 191.964299 
L 247.100205 205.725669 
L 247.163626 201.034218 
L 247.227048 194.85737 
L 247.290469 199.470501 
L 247.353891 201.425222 
L 247.544155 193.606337 
L 247.607577 195.63908 
L 247.73442 205.256643 
L 247.797841 199.392479 
L 247.861263 199.939825 
L 247.988106 204.709297 
L 248.051527 204.474635 
L 248.241792 202.20723 
L 248.495477 205.100301 
L 248.62232 209.948093 
L 248.749163 204.161951 
L 249.002849 217.532317 
L 249.4468 172.495108 
L 249.510221 174.215167 
L 249.573643 175.935227 
L 249.89075 192.198961 
L 249.954171 194.466367 
L 250.017593 191.885979 
L 250.081014 192.589667 
L 250.207857 202.676256 
L 250.271279 194.310025 
L 250.3347 194.466367 
L 250.398122 203.301922 
L 250.461543 201.26888 
L 250.524965 194.466367 
L 250.588386 198.219467 
L 250.778651 213.075529 
L 250.905494 196.890412 
L 251.095758 181.721369 
L 251.476287 200.017847 
L 251.60313 192.902649 
L 251.856816 209.322428 
L 251.920237 209.635112 
L 252.04708 206.116673 
L 252.173923 199.079497 
L 252.237345 200.486873 
L 252.300766 200.252508 
L 252.364188 194.701028 
L 252.427609 215.421254 
L 252.491031 214.873908 
L 252.554452 214.24854 
L 252.617874 214.561224 
L 252.934981 202.363572 
L 252.998402 202.285252 
L 253.252088 207.75871 
L 253.31551 204.318293 
L 253.569196 169.289055 
L 253.632617 166.396282 
L 253.75946 172.807791 
L 253.822882 172.104104 
L 254.076568 180.470335 
L 254.20341 195.013712 
L 254.266832 194.935392 
L 254.330253 192.198961 
L 254.393675 193.371675 
L 254.457096 193.449995 
L 254.520518 191.338634 
L 254.583939 192.276983 
L 254.647361 194.310025 
L 254.774204 188.602202 
L 254.837625 189.931258 
L 255.091311 202.441892 
L 255.154733 201.894546 
L 255.408419 186.021815 
L 255.535262 193.528017 
L 255.598683 191.729638 
L 255.662104 192.902649 
L 255.725526 194.701028 
L 255.788947 193.684359 
L 255.91579 192.355303 
L 256.106055 203.14558 
L 256.296319 190.634946 
L 256.359741 195.561058 
L 256.486584 205.412985 
L 256.550005 202.285252 
L 256.613427 202.832598 
L 256.676848 203.692925 
L 256.74027 203.223602 
L 256.867113 202.285252 
L 256.993955 206.194993 
L 257.057377 203.849267 
L 257.18422 214.24854 
L 257.247641 212.762845 
L 257.374484 200.330531 
L 257.501327 204.865639 
L 257.564749 204.474635 
L 257.62817 205.021981 
L 257.691592 204.787319 
L 257.755013 202.832598 
L 257.818435 204.240271 
L 257.881856 208.540718 
L 257.945278 207.68039 
L 258.072121 201.190858 
L 258.198964 204.474635 
L 258.452649 200.643512 
L 258.579492 191.885979 
L 258.706335 200.721534 
L 258.769757 194.388047 
L 258.833178 196.812092 
L 258.960021 205.256643 
L 259.023443 204.787319 
L 259.086864 205.100301 
L 259.213707 212.371841 
L 259.34055 200.565193 
L 259.403972 204.709297 
L 259.467393 206.976703 
L 259.594236 193.449995 
L 259.657658 195.873742 
L 259.784501 191.729638 
L 259.911343 193.137013 
L 259.974765 192.433325 
L 260.038186 195.170054 
L 260.101608 193.762679 
L 260.165029 191.02595 
L 260.291872 202.285252 
L 260.355294 201.3472 
L 260.418715 203.692925 
L 260.482137 202.910918 
L 260.545558 186.960165 
L 260.60898 187.663853 
L 260.799244 184.301756 
L 260.862666 186.021815 
L 260.989509 193.528017 
L 261.05293 193.137013 
L 261.116352 194.622708 
L 261.179773 193.137013 
L 261.243195 193.997341 
L 261.370037 206.038651 
L 261.49688 198.219467 
L 261.623723 206.976703 
L 261.877409 197.750441 
L 262.004252 205.178323 
L 262.067674 203.92729 
L 262.32136 196.030084 
L 262.448203 191.885979 
L 262.511624 191.964299 
L 262.638467 193.840999 
L 262.76531 183.67609 
L 262.892153 197.984805 
L 262.955574 197.750441 
L 263.082417 194.388047 
L 263.20926 202.989238 
L 263.336103 192.980671 
L 263.462946 205.100301 
L 263.526368 202.910918 
L 263.716632 199.001475 
L 263.843475 192.902649 
L 263.970318 196.812092 
L 264.097161 185.083466 
L 264.224004 197.828464 
L 264.287425 193.919021 
L 264.350847 193.371675 
L 264.414268 197.046754 
L 264.47769 195.326396 
L 264.541111 193.762679 
L 264.667954 201.659884 
L 264.794797 195.170054 
L 264.92164 197.124776 
L 264.985062 195.79572 
L 265.175326 165.692296 
L 265.302169 169.914721 
L 265.492434 175.622543 
L 265.619276 170.071063 
L 265.809541 186.960165 
L 265.872962 183.207064 
L 265.999805 170.305724 
L 266.126648 174.918855 
L 266.19007 174.606171 
L 266.316913 169.523717 
L 266.380334 165.22327 
L 266.443756 167.334333 
L 266.570599 176.951896 
L 266.697442 174.449829 
L 266.760863 174.997175 
L 266.824285 173.824163 
L 267.204813 186.881845 
L 267.331656 176.951896 
L 267.395078 177.26458 
L 267.458499 182.581399 
L 267.521921 180.861339 
L 267.585342 173.746141 
L 267.648764 174.527851 
L 267.775607 186.960165 
L 267.839028 185.865473 
L 267.90245 183.75441 
L 268.029293 188.054856 
L 268.156136 181.252343 
L 268.219557 182.89438 
L 268.536664 194.622708 
L 268.600086 194.075363 
L 268.663507 240.989421 
L 268.726929 236.845465 
L 268.917193 228.08808 
L 269.044036 234.030565 
L 269.170879 231.606668 
L 269.297722 233.170535 
L 269.424565 230.902981 
L 269.551408 247.635592 
L 269.61483 241.302253 
L 269.678251 231.059323 
L 269.741673 232.388527 
L 269.805094 234.421569 
L 269.868516 230.590148 
L 269.931937 232.935873 
L 269.995358 237.158149 
L 270.122201 231.215665 
L 270.249044 239.11287 
L 270.375887 229.026431 
L 270.439309 229.260943 
L 270.50273 230.981152 
L 270.946681 217.297953 
L 271.136945 231.528498 
L 271.263788 229.88646 
L 271.390631 233.483219 
L 271.517474 232.075844 
L 271.644317 233.248706 
L 271.77116 226.758876 
L 271.834581 227.931739 
L 271.898003 231.450327 
L 272.024846 220.816392 
L 272.088267 223.005775 
L 272.21511 229.573776 
L 272.468796 225.19501 
L 272.659061 233.092215 
L 272.722482 231.450327 
L 272.785903 232.466698 
L 272.849325 233.796052 
L 272.912746 233.483219 
L 273.039589 231.059323 
L 273.229854 222.145597 
L 273.293275 222.302088 
L 273.48354 240.129391 
L 273.610383 234.734252 
L 273.737226 227.853568 
L 273.864069 213.23187 
L 273.92749 214.873908 
L 274.117755 223.47495 
L 274.181176 223.396631 
L 274.244597 222.927605 
L 274.308019 223.787634 
L 274.434862 220.112704 
L 274.561705 227.853568 
L 274.688548 221.207396 
L 274.815391 232.935873 
L 274.878812 230.746639 
L 275.005655 223.162117 
L 275.069077 223.553121 
L 275.322763 231.997673 
L 275.513027 236.532632 
L 275.576449 235.516111 
L 275.703291 221.051054 
L 275.766713 223.631292 
L 275.830134 224.960497 
L 275.893556 222.927605 
L 276.020399 229.417285 
L 276.08382 226.446044 
L 276.210663 221.129225 
L 276.274085 222.223917 
L 276.400928 216.750607 
L 276.464349 218.392645 
L 276.718035 209.088064 
L 276.844878 221.911084 
L 277.035143 224.256809 
L 277.161985 218.470667 
L 277.288828 223.318459 
L 277.35225 222.380259 
L 277.415671 223.005775 
L 277.479093 222.927605 
L 277.542514 221.754742 
L 277.605936 224.33498 
L 277.669357 224.100467 
L 277.732779 223.083946 
L 277.859622 227.306222 
L 277.986465 223.47495 
L 278.049886 224.804155 
L 278.176729 223.162117 
L 278.240151 224.100467 
L 278.366994 214.013878 
L 278.430415 215.343232 
L 278.493837 218.314325 
L 278.620679 214.24854 
L 278.684101 216.984971 
L 278.874365 199.705163 
L 279.254894 172.416788 
L 279.318316 168.351003 
L 279.381737 168.429025 
L 279.572002 176.873576 
L 279.825688 185.396447 
L 279.889109 187.194827 
L 279.952531 185.943793 
L 280.015952 185.865473 
L 280.079373 186.178157 
L 280.142795 187.351169 
L 280.269638 195.952062 
L 280.333059 194.388047 
L 280.586745 190.16592 
L 280.77701 196.108404 
L 280.903853 192.902649 
L 281.030696 203.379944 
L 281.094117 202.050888 
L 281.22096 195.952062 
L 281.411224 200.174189 
L 281.538067 204.318293 
L 281.601489 203.458264 
L 281.66491 203.301922 
L 281.728332 204.240271 
L 281.855175 203.06726 
L 281.918596 204.161951 
L 282.045439 199.548821 
L 282.235704 205.021981 
L 282.48939 201.3472 
L 282.616233 202.910918 
L 282.679654 201.112538 
L 282.743076 202.050888 
L 282.869918 205.021981 
L 282.996761 203.692925 
L 283.250447 202.050888 
L 283.37729 203.692925 
L 283.440712 202.676256 
L 283.504133 203.14558 
L 283.567555 203.692925 
L 283.630976 203.458264 
L 283.694398 203.536286 
L 283.757819 203.458264 
L 284.011505 206.351335 
L 284.138348 202.20723 
L 284.265191 208.853402 
L 284.328612 206.507677 
L 284.392034 203.06726 
L 284.455455 204.083631 
L 284.518877 204.865639 
L 284.709141 203.692925 
L 284.835984 207.289684 
L 284.899406 201.503542 
L 284.962827 202.20723 
L 285.153092 200.174189 
L 285.279935 194.310025 
L 285.343356 195.248374 
L 285.470199 198.375809 
L 285.597042 205.256643 
L 285.723885 199.470501 
L 285.850728 204.787319 
L 285.914149 202.519914 
L 285.977571 203.692925 
L 286.167835 207.524049 
L 286.294678 202.989238 
L 286.421521 205.725669 
L 286.548364 203.458264 
L 286.611786 204.240271 
L 286.675207 204.00561 
L 286.80205 202.363572 
L 286.865472 202.989238 
L 286.928893 204.318293 
L 286.992315 204.083631 
L 287.119158 201.659884 
L 287.309422 206.116673 
L 287.372843 206.038651 
L 287.626529 203.458264 
L 287.689951 205.021981 
L 287.753372 204.630977 
L 287.816794 203.14558 
L 287.880215 204.083631 
L 287.943637 204.396613 
L 288.133901 202.519914 
L 288.197323 202.832598 
L 288.324166 209.166086 
L 288.451009 203.458264 
L 288.577851 214.639544 
L 288.768116 204.552955 
L 288.894959 212.293819 
L 289.148645 207.289684 
L 289.275488 212.371841 
L 289.338909 210.339097 
L 289.592595 215.264912 
L 290.163388 188.523882 
L 290.290231 193.919021 
L 290.353653 193.137013 
L 290.480496 197.750441 
L 290.543917 196.890412 
L 290.607339 196.57743 
L 290.734182 204.943959 
L 290.797603 201.894546 
L 290.861025 195.170054 
L 290.924446 197.046754 
L 290.987868 203.458264 
L 291.051289 201.034218 
L 291.114711 192.980671 
L 291.178132 194.701028 
L 291.368397 204.630977 
L 291.431818 203.379944 
L 291.558661 191.807957 
L 291.622082 193.684359 
L 291.685504 193.215333 
L 291.812347 201.581564 
L 291.875768 199.079497 
L 291.93919 195.013712 
L 292.066033 204.161951 
L 292.129454 201.894546 
L 292.192876 199.861505 
L 292.319719 204.552955 
L 292.38314 204.474635 
L 292.446562 203.614606 
L 292.573405 210.260777 
L 292.763669 201.737906 
L 292.827091 201.972568 
L 292.890512 201.581564 
L 292.953933 197.124776 
L 293.080776 211.199127 
L 293.207619 201.894546 
L 293.271041 202.989238 
L 293.397884 203.92729 
L 293.461305 202.910918 
L 293.588148 193.293653 
L 293.65157 196.499408 
L 293.778413 205.256643 
L 294.158942 182.89438 
L 294.285785 184.458098 
L 294.349206 184.849102 
L 294.53947 194.075363 
L 294.602892 191.495273 
L 294.666313 190.400582 
L 294.793156 196.499408 
L 294.856578 196.264746 
L 294.983421 200.721534 
L 295.046842 199.157817 
L 295.110264 199.079497 
L 295.173685 203.301922 
L 295.237107 200.877877 
L 295.300528 195.952062 
L 295.36395 199.392479 
L 295.427371 198.923155 
L 295.490793 194.779051 
L 295.617636 205.647647 
L 295.681057 203.770947 
L 295.871321 198.532151 
L 295.998164 193.215333 
L 296.315272 195.873742 
L 296.378693 195.482738 
L 296.568958 203.06726 
L 296.632379 200.408851 
L 296.695801 198.766813 
L 296.822644 202.598234 
L 296.886065 197.046754 
L 296.949487 198.141445 
L 297.07633 205.412985 
L 297.139751 202.285252 
L 297.203172 202.676256 
L 297.330015 203.849267 
L 297.393437 203.614606 
L 297.456858 203.536286 
L 297.52028 205.803989 
L 297.583701 205.647647 
L 297.647123 205.960331 
L 297.773966 214.24854 
L 297.900809 204.083631 
L 297.96423 204.161951 
L 298.027652 207.289684 
L 298.091073 206.273015 
L 298.154495 205.647647 
L 298.217916 209.791751 
L 298.281338 209.166086 
L 298.344759 203.14558 
L 298.408181 205.100301 
L 298.471602 214.17022 
L 298.535024 213.153849 
L 298.661866 200.956197 
L 298.788709 206.194993 
L 298.852131 204.240271 
L 298.915552 204.396613 
L 298.978974 204.00561 
L 299.169238 201.034218 
L 299.422924 203.458264 
L 299.486346 202.910918 
L 299.549767 203.536286 
L 299.67661 206.89868 
L 299.866875 203.536286 
L 299.930296 204.943959 
L 299.993718 208.931424 
L 300.057139 207.133044 
L 300.183982 202.20723 
L 300.247403 202.363572 
L 300.310825 201.034218 
L 300.374246 201.26888 
L 300.437668 202.20723 
L 300.564511 197.750441 
L 300.627932 202.050888 
L 300.691354 201.425222 
L 300.754775 195.63908 
L 300.818197 199.392479 
L 300.881618 206.038651 
L 300.94504 204.865639 
L 301.008461 204.787319 
L 301.071883 205.178323 
L 301.262147 201.425222 
L 301.38899 195.7174 
L 301.452412 196.65575 
L 301.579254 203.223602 
L 301.642676 200.799854 
L 301.706097 202.519914 
L 301.83294 202.910918 
L 301.959783 207.915052 
L 302.023205 203.379944 
L 302.086626 206.351335 
L 302.213469 214.482904 
L 302.276891 213.857536 
L 302.467155 202.598234 
L 302.530577 206.273015 
L 302.593998 211.120807 
L 302.65742 210.964465 
L 302.784263 204.161951 
L 302.911106 206.194993 
L 302.974527 203.379944 
L 303.037948 203.458264 
L 303.228213 205.334665 
L 303.291634 205.647647 
L 303.418477 202.363572 
L 303.54532 213.701194 
L 303.608742 211.511811 
L 303.672163 204.318293 
L 303.735585 207.133044 
L 303.799006 212.528183 
L 303.925849 204.865639 
L 304.052692 215.10857 
L 304.116114 209.713432 
L 304.179535 211.590131 
L 304.242957 213.38851 
L 304.369799 204.396613 
L 304.496642 211.902815 
L 304.560064 210.495439 
L 304.686907 204.083631 
L 304.81375 211.824495 
L 304.940593 205.569327 
L 305.004014 211.668153 
L 305.067436 211.120807 
L 305.130857 206.585699 
L 305.194279 208.384078 
L 305.2577 211.902815 
L 305.321122 210.964465 
L 305.574808 206.273015 
L 305.765072 202.519914 
L 305.828493 203.223602 
L 305.891915 204.943959 
L 305.955336 203.849267 
L 306.018758 204.161951 
L 306.082179 205.412985 
L 306.209022 202.754576 
L 306.272444 203.692925 
L 306.399287 211.746473 
L 306.462708 211.511811 
L 306.652973 203.301922 
L 306.779816 204.161951 
L 306.843237 203.92729 
L 306.97008 198.610471 
L 307.096923 205.647647 
L 307.160345 203.301922 
L 307.287187 209.166086 
L 307.41403 201.3472 
L 307.540873 210.808123 
L 307.667716 204.161951 
L 307.731138 204.865639 
L 307.794559 205.569327 
L 307.857981 205.178323 
L 307.984824 203.692925 
L 308.048245 204.787319 
L 308.175088 196.421088 
L 308.23851 197.359438 
L 308.365353 204.318293 
L 308.492196 203.06726 
L 308.619039 205.569327 
L 308.68246 205.100301 
L 308.745881 202.910918 
L 308.809303 203.692925 
L 308.999567 207.211364 
L 309.253253 214.561224 
L 309.316675 213.31019 
L 309.443518 204.474635 
L 309.570361 212.606503 
L 309.633782 210.808123 
L 309.697204 210.573462 
L 309.760625 213.153849 
L 309.824047 213.075529 
L 309.887468 213.23187 
L 309.95089 214.404882 
L 310.014311 213.153849 
L 310.077733 214.639544 
L 310.141154 218.93999 
L 310.204575 217.766979 
L 310.331418 213.153849 
L 310.39484 212.450161 
L 310.458261 208.61874 
L 310.521683 209.948093 
L 310.585104 211.902815 
L 310.711947 209.244406 
L 310.83879 214.24854 
L 310.965633 205.960331 
L 311.092476 212.371841 
L 311.219319 202.754576 
L 311.346162 204.787319 
L 311.536427 202.12891 
L 311.599848 202.910918 
L 311.726691 209.869773 
L 311.790112 206.82036 
L 311.853534 207.211364 
L 311.916955 212.762845 
L 311.980377 212.528183 
L 312.043798 209.088064 
L 312.10722 211.199127 
L 312.170641 214.17022 
L 312.234063 211.980837 
L 312.360906 203.770947 
L 312.487749 209.948093 
L 312.614592 202.832598 
L 312.741435 213.075529 
L 312.804856 211.668153 
L 313.058542 203.536286 
L 313.185385 209.47877 
L 313.248806 207.836732 
L 313.312228 206.194993 
L 313.439071 212.762845 
L 313.502492 212.371841 
L 313.565914 211.355469 
L 313.8196 204.161951 
L 313.883021 203.458264 
L 314.073286 214.952228 
L 314.136707 213.153849 
L 314.200129 213.622875 
L 314.26355 213.23187 
L 314.453814 202.598234 
L 314.517236 204.396613 
L 314.580657 203.849267 
L 314.644079 203.770947 
L 314.770922 206.742338 
L 314.834343 205.725669 
L 315.151451 213.779216 
L 315.278294 206.038651 
L 315.405137 213.38851 
L 315.468558 210.886145 
L 315.53198 211.746473 
L 315.595401 213.23187 
L 315.658823 211.120807 
L 315.722244 211.746473 
L 315.785666 213.622875 
L 315.849087 213.075529 
L 315.912508 212.919186 
L 316.039351 213.544852 
L 316.102773 213.38851 
L 316.546723 208.61874 
L 316.610145 209.088064 
L 316.736988 203.536286 
L 316.800409 204.083631 
L 316.990674 206.429357 
L 317.054095 206.194993 
L 317.117517 203.92729 
L 317.180938 204.396613 
L 317.24436 204.240271 
L 317.307781 202.285252 
L 317.498045 283.837694 
L 317.624888 295.488 
L 317.751731 284.775894 
L 317.878574 292.360416 
L 318.005417 288.450824 
L 318.068839 288.216311 
L 318.195682 285.479582 
L 318.259103 286.652445 
L 318.322525 286.105099 
L 318.576211 284.30672 
L 319.083582 259.129556 
L 319.147004 257.096664 
L 319.210425 258.347698 
L 319.273847 265.384725 
L 319.337268 254.907281 
L 319.717797 77.493981 
L 319.908062 53.568 
L 319.971483 55.053398 
L 320.161748 90.39532 
L 320.225169 88.753282 
L 320.28859 87.033223 
L 320.605698 121.593138 
L 320.859384 145.363074 
L 320.922805 150.445231 
L 320.986227 148.881513 
L 321.176491 143.877379 
L 321.366756 158.420756 
L 321.430177 156.622377 
L 321.493599 153.338302 
L 321.683863 166.708965 
L 321.747284 162.721203 
L 321.874127 164.675924 
L 321.937549 163.424891 
L 322.508342 186.725503 
L 322.635185 182.659718 
L 322.82545 193.215333 
L 322.952293 181.174023 
L 323.015714 183.128744 
L 323.205978 185.943793 
L 323.2694 181.565027 
L 323.332821 183.207064 
L 323.459664 193.919021 
L 323.586507 184.770782 
L 323.649929 185.083466 
L 323.71335 182.034053 
L 323.776772 182.659718 
L 323.840193 186.178157 
L 323.903615 185.474469 
L 323.967036 186.490841 
L 324.157301 194.622708 
L 324.220722 195.561058 
L 324.284144 195.248374 
L 324.347565 193.371675 
L 324.410987 193.919021 
L 324.664672 197.359438 
L 324.728094 193.606337 
L 324.791515 195.561058 
L 324.854937 200.017847 
L 324.918358 198.297787 
L 325.045201 194.701028 
L 325.108623 194.153682 
L 325.172044 192.433325 
L 325.235466 192.824329 
L 325.42573 195.092032 
L 325.489152 212.997506 
L 325.552573 212.919186 
L 325.615995 212.841164 
L 325.679416 213.466532 
L 325.742838 212.606503 
L 325.869681 209.55709 
L 326.123366 217.923321 
L 326.186788 218.236303 
L 326.313631 212.215499 
L 326.440474 220.972883 
L 326.503895 219.565358 
L 326.567317 218.783351 
L 326.69416 232.857702 
L 326.757581 230.511977 
L 326.884424 221.754742 
L 327.011267 228.08808 
L 327.074689 226.758876 
L 327.201532 225.116839 
L 327.264953 223.709463 
L 327.328375 224.178638 
L 327.391796 224.491322 
L 327.518639 221.676571 
L 327.58206 223.240288 
L 327.645482 222.614771 
L 327.708903 220.738221 
L 327.772325 220.894563 
L 327.899168 224.178638 
L 327.962589 223.47495 
L 328.026011 225.586013 
L 328.152854 212.841164 
L 328.216275 215.499574 
L 328.279697 224.178638 
L 328.343118 219.409016 
L 328.40654 211.199127 
L 328.469961 213.075529 
L 328.533383 215.733938 
L 328.723647 208.775082 
L 328.85049 214.639544 
L 329.040754 211.590131 
L 329.104176 212.293819 
L 329.231019 218.470667 
L 329.357862 211.590131 
L 329.421283 215.812258 
L 329.484705 214.482904 
L 329.548126 214.482904 
L 329.674969 223.396631 
L 329.738391 222.771114 
L 329.865234 222.223917 
L 329.992077 226.055188 
L 330.055498 222.302088 
L 330.11892 224.022296 
L 330.182341 233.483219 
L 330.689713 164.36324 
L 331.133663 192.824329 
L 331.260506 193.840999 
L 331.450771 201.112538 
L 331.514192 201.581564 
L 331.577614 203.223602 
L 331.641035 202.285252 
L 331.704456 199.001475 
L 331.767878 201.26888 
L 331.958142 217.688957 
L 332.084985 190.478604 
L 332.211828 173.276817 
L 332.27525 174.136847 
L 332.592357 187.272849 
L 332.655779 189.853236 
L 332.782622 185.083466 
L 332.972886 200.799854 
L 333.036308 200.252508 
L 333.16315 204.474635 
L 333.353415 191.573295 
L 333.416836 193.528017 
L 333.543679 186.803823 
L 333.670522 192.120641 
L 333.733944 192.355303 
L 333.860787 187.351169 
L 334.114473 182.034053 
L 334.177894 182.347034 
L 334.304737 185.005443 
L 334.368159 183.988774 
L 334.43158 188.836566 
L 334.495002 186.725503 
L 334.748687 134.260114 
L 334.812109 131.445065 
L 335.382902 177.577264 
L 335.446324 175.387881 
L 335.509745 173.746141 
L 335.573167 178.280952 
L 335.636588 178.046588 
L 335.70001 174.449829 
L 335.826853 180.079331 
L 335.890274 176.717234 
L 335.953696 179.140982 
L 336.017117 184.145414 
L 336.080538 182.659718 
L 336.14396 183.519748 
L 336.334224 191.260612 
L 336.397646 190.478604 
L 336.524489 180.079331 
L 336.58791 181.565027 
L 336.778175 183.910752 
L 337.031861 186.960165 
L 337.348968 204.943959 
L 337.475811 194.935392 
L 337.539232 198.845133 
L 337.666075 212.528183 
L 337.729497 205.725669 
L 337.792918 207.602368 
L 337.85634 210.573462 
L 337.919761 209.322428 
L 337.983183 207.602368 
L 338.236869 215.577596 
L 338.363712 225.19501 
L 338.427133 221.911084 
L 338.553976 211.668153 
L 338.617398 212.919186 
L 338.807662 217.454295 
L 338.871083 217.375975 
L 338.934505 212.762845 
L 338.997926 214.404882 
L 339.061348 219.330696 
L 339.124769 217.454295 
L 339.251612 211.199127 
L 339.378455 221.363738 
L 339.505298 215.733938 
L 339.56872 217.297953 
L 339.695563 209.55709 
L 339.758984 210.573462 
L 339.885827 213.075529 
L 340.01267 211.668153 
L 340.393199 233.014044 
L 340.520042 212.293819 
L 340.583463 212.919186 
L 340.646885 216.437923 
L 340.773728 211.746473 
L 340.837149 213.153849 
L 340.900571 212.841164 
L 340.963992 212.684525 
L 341.027414 212.841164 
L 341.090835 211.120807 
L 341.154257 212.997506 
L 341.217678 219.252675 
L 341.2811 217.219633 
L 341.344521 212.997506 
L 341.471364 225.27333 
L 341.534786 221.989254 
L 341.598207 222.223917 
L 341.661629 223.083946 
L 341.851893 214.795886 
L 341.915314 214.873908 
L 341.978736 213.857536 
L 342.042157 215.421254 
L 342.169 223.865805 
L 342.232422 221.754742 
L 342.295843 224.33498 
L 342.359265 222.927605 
L 342.422686 221.129225 
L 342.549529 240.911249 
L 342.676372 220.738221 
L 342.803215 241.92777 
L 342.930058 231.215665 
L 342.99348 234.421569 
L 343.056901 231.450327 
L 343.120323 232.075844 
L 343.247165 239.347532 
L 343.374008 230.902981 
L 343.43743 232.623189 
L 343.500851 230.82481 
L 343.691116 221.129225 
L 343.817959 229.88646 
L 343.944802 219.252675 
L 344.008223 222.302088 
L 344.135066 234.890595 
L 344.198488 234.343249 
L 344.261909 230.902981 
L 344.325331 232.779531 
L 344.388752 238.25284 
L 344.452174 235.594283 
L 344.515595 229.808289 
L 344.642438 244.273496 
L 344.705859 242.318774 
L 344.769281 240.442075 
L 344.832702 243.569808 
L 344.959545 236.298119 
L 345.022967 238.487353 
L 345.086388 241.067592 
L 345.276653 229.495457 
L 345.403496 237.158149 
L 345.466917 235.281598 
L 345.530339 235.672602 
L 345.59376 241.302253 
L 345.657182 241.067592 
L 345.720603 238.018179 
L 345.847446 244.820842 
L 345.974289 242.084112 
L 346.03771 243.569808 
L 346.101132 242.631458 
L 346.418239 237.001807 
L 346.671925 245.133525 
L 346.86219 235.907115 
L 346.989033 253.108902 
L 347.052454 247.870255 
L 347.179297 227.853568 
L 347.369562 235.43794 
L 347.559826 229.495457 
L 347.75009 234.812423 
L 347.813512 233.014044 
L 347.876933 233.639561 
L 348.003776 231.684839 
L 348.320884 243.022462 
L 348.384305 241.693109 
L 348.511148 233.014044 
L 348.57457 233.483219 
L 348.637991 233.639561 
L 348.764834 232.466698 
L 348.828256 229.339114 
L 348.891677 232.466698 
L 348.955098 241.693109 
L 349.01852 240.754907 
L 349.081941 233.639561 
L 349.145363 238.018179 
L 349.208784 243.569808 
L 349.335627 229.730118 
L 349.399049 231.684839 
L 349.779578 243.100633 
L 349.842999 255.68914 
L 349.906421 254.516426 
L 350.033264 241.380424 
L 350.096685 242.7878 
L 350.160107 247.322909 
L 350.223528 246.306388 
L 350.28695 244.977183 
L 350.413792 248.964797 
L 350.540635 240.833078 
L 350.604057 243.178804 
L 350.7309 260.615252 
L 350.794321 256.080143 
L 350.857743 245.524529 
L 350.921164 245.6027 
L 350.984586 246.931904 
L 351.048007 242.005941 
L 351.111429 243.80432 
L 351.17485 249.199459 
L 351.238272 245.6027 
L 351.301693 242.162283 
L 351.428536 250.215831 
L 351.618801 237.783665 
L 351.682222 240.754907 
L 351.745644 238.878357 
L 351.872486 234.108736 
L 351.935908 234.577911 
L 352.126172 223.240288 
L 352.379858 239.738387 
L 352.506701 243.178804 
L 352.570123 243.100633 
L 352.823809 245.993704 
L 352.950652 240.129391 
L 353.014073 241.849599 
L 353.077495 246.853733 
L 353.140916 243.335146 
L 353.204337 236.923636 
L 353.267759 240.676737 
L 353.394602 253.578076 
L 353.521445 251.310522 
L 353.711709 253.578076 
L 353.965395 265.462896 
L 354.028817 266.948591 
L 354.15566 264.446524 
L 354.219081 264.759208 
L 354.409346 256.70566 
L 354.472767 256.080143 
L 354.536189 259.36407 
L 354.663031 276.722347 
L 354.726453 274.845796 
L 355.04356 243.647979 
L 355.106982 248.182938 
L 355.360668 257.487519 
L 355.424089 253.890761 
L 355.487511 255.298285 
L 355.550932 255.610969 
L 355.614354 253.578076 
L 355.741197 261.631624 
L 355.86804 252.09253 
L 355.994883 258.034865 
L 356.058304 257.487519 
L 356.248568 249.355801 
L 356.375411 258.034865 
L 356.438833 257.409348 
L 356.502254 256.080143 
L 356.565676 256.862003 
L 356.692519 260.615252 
L 357.009626 246.619221 
L 357.073048 244.508008 
L 357.199891 248.026596 
L 357.326734 240.833078 
L 357.390155 241.145912 
L 357.453577 241.771429 
L 357.770684 229.495457 
L 357.897527 210.339097 
L 358.214634 230.981152 
L 358.341477 219.721701 
L 358.404899 224.804155 
L 358.46832 230.746639 
L 358.531742 229.88646 
L 358.595163 231.684839 
L 358.658585 230.433806 
L 358.722006 227.306222 
L 358.785428 229.651947 
L 358.848849 228.791769 
L 358.912271 224.569493 
L 359.039113 233.952394 
L 359.102535 231.919353 
L 359.165956 231.528498 
L 359.229378 230.355635 
L 359.356221 222.067426 
L 359.419642 223.553121 
L 359.483064 221.441909 
L 359.609907 213.544852 
L 359.73675 218.783351 
L 359.863593 214.17022 
L 359.990436 178.515614 
L 360.307543 93.132049 
L 360.370964 90.082636 
L 360.434386 90.39532 
L 360.561229 97.979841 
L 361.068601 167.647315 
L 361.385708 183.441428 
L 361.512551 191.416954 
L 361.575973 190.713266 
L 361.702816 184.61444 
L 361.766237 185.161786 
L 361.956501 196.108404 
L 362.083344 194.935392 
L 362.273609 206.194993 
L 362.33703 203.614606 
L 362.400452 202.441892 
L 362.463873 203.14558 
L 362.527295 203.301922 
L 362.590716 203.06726 
L 362.717559 210.339097 
L 362.780981 213.779216 
L 362.844402 213.466532 
L 362.971245 210.417119 
L 363.034667 210.964465 
L 363.098088 213.38851 
L 363.224931 206.89868 
L 363.415195 216.046919 
L 363.668881 211.902815 
L 363.732303 211.902815 
L 363.795724 212.919186 
L 363.922567 207.68039 
L 364.04941 215.9686 
L 364.176253 212.450161 
L 364.239675 213.857536 
L 364.366518 205.334665 
L 364.429939 207.133044 
L 364.556782 210.886145 
L 364.620204 210.495439 
L 364.747046 214.795886 
L 364.873889 212.059157 
L 364.937311 212.215499 
L 365.000732 212.997506 
L 365.064154 212.215499 
L 365.127575 212.528183 
L 365.190997 214.795886 
L 365.254418 213.466532 
L 365.31784 209.713432 
L 365.381261 211.511811 
L 365.444683 216.672288 
L 365.508104 215.499574 
L 365.76179 202.910918 
L 365.825212 200.877877 
L 365.952055 207.446026 
L 366.078898 202.910918 
L 366.20574 204.865639 
L 366.332583 202.676256 
L 366.396005 203.14558 
L 366.459426 202.598234 
L 366.522848 203.06726 
L 366.713112 206.585699 
L 366.776534 206.585699 
L 366.839955 206.116673 
L 366.966798 203.06726 
L 367.283906 215.343232 
L 367.347327 214.17022 
L 367.410749 214.326562 
L 367.537592 213.466532 
L 367.601013 213.622875 
L 367.664434 212.215499 
L 367.727856 212.450161 
L 367.791277 212.762845 
L 367.854699 211.902815 
L 367.981542 213.31019 
L 368.108385 210.651781 
L 368.171806 214.795886 
L 368.298649 202.20723 
L 368.362071 206.742338 
L 368.425492 215.343232 
L 368.488914 213.31019 
L 368.552335 209.635112 
L 368.615757 211.902815 
L 368.679178 211.433491 
L 368.7426 208.69706 
L 368.869443 212.684525 
L 368.996285 202.832598 
L 369.059707 204.318293 
L 369.123128 205.412985 
L 369.313393 200.408851 
L 369.440236 205.803989 
L 369.503657 205.256643 
L 369.6305 202.20723 
L 369.757343 206.273015 
L 369.884186 202.598234 
L 369.947608 203.301922 
L 370.137872 204.865639 
L 370.201294 204.474635 
L 370.328137 202.12891 
L 370.391558 202.989238 
L 370.518401 201.425222 
L 370.581822 204.709297 
L 370.645244 203.92729 
L 370.708665 202.519914 
L 370.772087 208.69706 
L 371.216037 150.288889 
L 371.279459 156.075031 
L 371.659988 175.622543 
L 371.723409 174.840535 
L 371.913673 185.630812 
L 371.977095 183.441428 
L 372.040516 180.470335 
L 372.103938 181.87771 
L 372.167359 185.552789 
L 372.230781 183.832432 
L 372.294202 178.359272 
L 372.357624 180.157651 
L 372.547888 197.359438 
L 372.61131 193.215333 
L 372.801574 169.680058 
L 372.864996 171.087434 
L 372.991839 183.832432 
L 373.05526 182.73774 
L 373.118682 180.157651 
L 373.245525 188.836566 
L 373.308946 186.334499 
L 373.372367 183.598068 
L 373.562632 196.499408 
L 373.626053 196.421088 
L 373.689475 196.57743 
L 373.752896 197.359438 
L 373.879739 192.589667 
L 373.943161 188.914886 
L 374.006582 190.009578 
L 374.070004 194.231705 
L 374.133425 191.338634 
L 374.196847 224.804155 
L 374.260268 224.491322 
L 374.450533 216.984971 
L 374.513954 220.347218 
L 374.577376 218.314325 
L 374.76764 209.47877 
L 374.831061 209.713432 
L 374.894483 213.23187 
L 374.957904 212.997506 
L 375.021326 213.153849 
L 375.084747 211.120807 
L 375.338433 168.038021 
L 375.401855 168.351003 
L 375.718962 194.466367 
L 375.782384 192.980671 
L 375.845805 190.24424 
L 375.972648 202.12891 
L 376.03607 200.643512 
L 376.099491 200.096167 
L 376.162913 203.614606 
L 376.226334 203.301922 
L 376.289755 202.285252 
L 376.353177 203.692925 
L 376.48002 193.919021 
L 376.543441 195.404716 
L 376.606863 196.65575 
L 376.670284 193.606337 
L 376.797127 202.050888 
L 376.860549 198.219467 
L 376.92397 192.824329 
L 376.987392 193.528017 
L 377.050813 193.371675 
L 377.177656 187.976537 
L 377.494764 193.137013 
L 377.621606 191.260612 
L 377.811871 195.092032 
L 377.875292 195.092032 
L 377.938714 195.482738 
L 378.065557 191.885979 
L 378.128978 192.433325 
L 378.319243 197.906784 
L 378.446086 194.310025 
L 378.763193 204.161951 
L 378.890036 206.273015 
L 379.143722 200.330531 
L 379.207143 197.124776 
L 379.270565 199.235839 
L 379.397408 203.223602 
L 379.587672 201.425222 
L 379.714515 204.396613 
L 379.841358 193.371675 
L 379.968201 204.552955 
L 380.095044 194.310025 
L 380.158466 194.544686 
L 380.34873 191.573295 
L 380.475573 195.873742 
L 380.602416 191.495273 
L 380.856102 198.375809 
L 380.982945 202.050888 
L 381.109788 192.120641 
L 381.173209 193.997341 
L 381.236631 195.248374 
L 381.363474 188.680225 
L 381.61716 192.902649 
L 381.744003 190.791586 
L 381.807424 194.466367 
L 381.870846 194.231705 
L 381.934267 191.729638 
L 382.06111 202.12891 
L 382.124531 201.425222 
L 382.251374 197.51578 
L 382.314796 205.334665 
L 382.378217 203.770947 
L 382.568482 200.643512 
L 382.631903 200.877877 
L 382.695325 204.00561 
L 382.758746 203.92729 
L 382.822168 202.832598 
L 382.885589 204.787319 
L 382.949011 204.552955 
L 383.012432 204.943959 
L 383.139275 215.9686 
L 383.202697 211.120807 
L 383.266118 213.544852 
L 383.392961 225.898847 
L 383.583225 213.075529 
L 383.710068 217.141611 
L 383.836911 219.721701 
L 383.963754 213.075529 
L 384.027176 213.153849 
L 384.090597 214.326562 
L 384.21744 208.071394 
L 384.280862 208.853402 
L 384.407705 214.092198 
L 384.534548 207.75871 
L 384.597969 208.462398 
L 384.724812 222.223917 
L 384.851655 211.590131 
L 384.915076 212.684525 
L 384.978498 216.124942 
L 385.041919 215.18689 
L 385.105341 211.355469 
L 385.168762 214.013878 
L 385.232184 220.347218 
L 385.295605 220.034384 
L 385.422448 215.264912 
L 385.48587 215.10857 
L 385.612713 211.668153 
L 385.739556 215.890577 
L 385.866399 204.474635 
L 385.92982 209.322428 
L 385.993242 215.499574 
L 386.056663 211.511811 
L 386.120085 210.104436 
L 386.183506 215.733938 
L 386.246927 215.577596 
L 386.310349 212.606503 
L 386.437192 217.688957 
L 386.564035 213.075529 
L 386.627456 214.17022 
L 386.690878 214.092198 
L 386.944564 209.713432 
L 387.071407 214.404882 
L 387.19825 211.355469 
L 387.261671 213.153849 
L 387.388514 209.713432 
L 387.451936 210.339097 
L 387.578779 218.314325 
L 387.6422 216.750607 
L 387.769043 199.392479 
L 387.832464 199.705163 
L 387.959307 202.989238 
L 388.149572 193.606337 
L 388.339836 204.00561 
L 388.403258 202.989238 
L 388.466679 204.00561 
L 388.530101 203.301922 
L 388.593522 201.972568 
L 388.847208 211.120807 
L 388.91063 213.701194 
L 388.974051 213.38851 
L 389.100894 208.853402 
L 389.164315 209.635112 
L 389.227737 210.260777 
L 389.418001 203.14558 
L 389.79853 216.281283 
L 389.925373 210.182457 
L 389.988795 210.964465 
L 390.305902 223.396631 
L 390.369324 223.083946 
L 390.496167 218.627009 
L 390.623009 211.668153 
L 390.749852 213.622875 
L 390.813274 213.153849 
L 390.940117 213.935558 
L 391.193803 211.511811 
L 391.320646 223.787634 
L 391.384067 223.083946 
L 391.51091 211.902815 
L 391.574332 213.544852 
L 391.637753 213.075529 
L 391.764596 213.701194 
L 391.891439 211.824495 
L 392.018282 215.655916 
L 392.145125 211.746473 
L 392.208546 212.762845 
L 392.271968 213.38851 
L 392.335389 211.355469 
L 392.398811 212.059157 
L 392.462232 214.013878 
L 392.715918 203.06726 
L 393.096447 217.610637 
L 393.22329 214.092198 
L 393.350133 220.738221 
L 393.540397 213.075529 
L 393.66724 219.956362 
L 393.794083 210.729803 
L 393.857505 214.013878 
L 393.920926 217.688957 
L 393.984348 215.264912 
L 394.047769 213.701194 
L 394.111191 214.092198 
L 394.301455 212.137477 
L 394.555141 219.330696 
L 394.618563 221.52008 
L 394.745406 212.762845 
L 394.808827 215.18689 
L 394.872248 214.013878 
L 394.93567 210.339097 
L 394.999091 210.808123 
L 395.062513 211.277149 
L 395.125934 211.120807 
L 395.252777 224.413151 
L 395.316199 222.067426 
L 395.569885 201.26888 
L 395.633306 198.141445 
L 395.886992 210.104436 
L 396.013835 203.770947 
L 396.077257 205.100301 
L 396.2041 206.038651 
L 396.330942 212.293819 
L 396.457785 205.256643 
L 396.584628 214.717566 
L 396.711471 210.495439 
L 396.965157 215.733938 
L 397.092 212.919186 
L 397.155422 214.326562 
L 397.218843 215.18689 
L 397.409108 209.55709 
L 397.535951 202.598234 
L 397.599372 205.256643 
L 397.662794 205.021981 
L 397.726215 204.474635 
L 397.789636 205.960331 
L 397.853058 205.569327 
L 397.916479 203.692925 
L 397.979901 204.474635 
L 398.043322 206.273015 
L 398.106744 205.803989 
L 398.170165 206.194993 
L 398.233587 207.524049 
L 398.423851 185.630812 
L 398.487273 177.889948 
L 398.487273 177.889948 
" clip-path="url(#p05c04b60a8)" style="fill: none; stroke: #1f77b4; stroke-width: 1.5; stroke-linecap: square"/>
   </g>
   <g id="patch_3">
    <path d="M 57.6 307.584 
L 57.6 41.472 
" style="fill: none; stroke: #000000; stroke-width: 0.8; stroke-linejoin: miter; stroke-linecap: square"/>
   </g>
   <g id="patch_4">
    <path d="M 414.72 307.584 
L 414.72 41.472 
" style="fill: none; stroke: #000000; stroke-width: 0.8; stroke-linejoin: miter; stroke-linecap: square"/>
   </g>
   <g id="patch_5">
    <path d="M 57.6 307.584 
L 414.72 307.584 
" style="fill: none; stroke: #000000; stroke-width: 0.8; stroke-linejoin: miter; stroke-linecap: square"/>
   </g>
   <g id="patch_6">
    <path d="M 57.6 41.472 
L 414.72 41.472 
" style="fill: none; stroke: #000000; stroke-width: 0.8; stroke-linejoin: miter; stroke-linecap: square"/>
   </g>
   <g id="legend_1">
    <g id="patch_7">
     <path d="M 354.074688 64.150125 
L 407.72 64.150125 
Q 409.72 64.150125 409.72 62.150125 
L 409.72 48.472 
Q 409.72 46.472 407.72 46.472 
L 354.074688 46.472 
Q 352.074688 46.472 352.074688 48.472 
L 352.074688 62.150125 
Q 352.074688 64.150125 354.074688 64.150125 
z
" style="fill: #ffffff; opacity: 0.8; stroke: #cccccc; stroke-linejoin: miter"/>
    </g>
    <g id="line2d_16">
     <path d="M 356.074688 54.570438 
L 366.074688 54.570438 
L 376.074688 54.570438 
" style="fill: none; stroke: #1f77b4; stroke-width: 1.5; stroke-linecap: square"/>
    </g>
    <g id="text_15">
     <!-- set1 -->
     <g transform="translate(384.074688 58.070438)scale(0.1 -0.1)">
      <defs>
       <path id="DejaVuSans-73" d="M 2834 3397 
L 2834 2853 
Q 2591 2978 2328 3040 
Q 2066 3103 1784 3103 
Q 1356 3103 1142 2972 
Q 928 2841 928 2578 
Q 928 2378 1081 2264 
Q 1234 2150 1697 2047 
L 1894 2003 
Q 2506 1872 2764 1633 
Q 3022 1394 3022 966 
Q 3022 478 2636 193 
Q 2250 -91 1575 -91 
Q 1294 -91 989 -36 
Q 684 19 347 128 
L 347 722 
Q 666 556 975 473 
Q 1284 391 1588 391 
Q 1994 391 2212 530 
Q 2431 669 2431 922 
Q 2431 1156 2273 1281 
Q 2116 1406 1581 1522 
L 1381 1569 
Q 847 1681 609 1914 
Q 372 2147 372 2553 
Q 372 3047 722 3315 
Q 1072 3584 1716 3584 
Q 2034 3584 2315 3537 
Q 2597 3491 2834 3397 
z
" transform="scale(0.015625)"/>
       <path id="DejaVuSans-65" d="M 3597 1894 
L 3597 1613 
L 953 1613 
Q 991 1019 1311 708 
Q 1631 397 2203 397 
Q 2534 397 2845 478 
Q 3156 559 3463 722 
L 3463 178 
Q 3153 47 2828 -22 
Q 2503 -91 2169 -91 
Q 1331 -91 842 396 
Q 353 884 353 1716 
Q 353 2575 817 3079 
Q 1281 3584 2069 3584 
Q 2775 3584 3186 3129 
Q 3597 2675 3597 1894 
z
M 3022 2063 
Q 3016 2534 2758 2815 
Q 2500 3097 2075 3097 
Q 1594 3097 1305 2825 
Q 1016 2553 972 2059 
L 3022 2063 
z
" transform="scale(0.015625)"/>
       <path id="DejaVuSans-74" d="M 1172 4494 
L 1172 3500 
L 2356 3500 
L 2356 3053 
L 1172 3053 
L 1172 1153 
Q 1172 725 1289 603 
Q 1406 481 1766 481 
L 2356 481 
L 2356 0 
L 1766 0 
Q 1100 0 847 248 
Q 594 497 594 1153 
L 594 3053 
L 172 3053 
L 172 3500 
L 594 3500 
L 594 4494 
L 1172 4494 
z
" transform="scale(0.015625)"/>
      </defs>
      <use xlink:href="#DejaVuSans-73"/>
      <use xlink:href="#DejaVuSans-65" x="52.099609"/>
      <use xlink:href="#DejaVuSans-74" x="113.623047"/>
      <use xlink:href="#DejaVuSans-31" x="152.832031"/>
     </g>
    </g>
   </g>
  </g>
 </g>
 <defs>
  <clipPath id="p05c04b60a8">
   <rect x="57.6" y="41.472" width="357.12" height="266.112"/>
  </clipPath>
 </defs>
</svg>
