<?xml version="1.0" encoding="utf-8" standalone="no"?>
<!DOCTYPE svg PUBLIC "-//W3C//DTD SVG 1.1//EN"
  "http://www.w3.org/Graphics/SVG/1.1/DTD/svg11.dtd">
<svg xmlns:xlink="http://www.w3.org/1999/xlink" width="460.8pt" height="345.6pt" viewBox="0 0 460.8 345.6" xmlns="http://www.w3.org/2000/svg" version="1.1">
 <metadata>
  <rdf:RDF xmlns:dc="http://purl.org/dc/elements/1.1/" xmlns:cc="http://creativecommons.org/ns#" xmlns:rdf="http://www.w3.org/1999/02/22-rdf-syntax-ns#">
   <cc:Work>
    <dc:type rdf:resource="http://purl.org/dc/dcmitype/StillImage"/>
    <dc:date>2022-08-11T15:18:55.787547</dc:date>
    <dc:format>image/svg+xml</dc:format>
    <dc:creator>
     <cc:Agent>
      <dc:title>Matplotlib v3.5.2, https://matplotlib.org/</dc:title>
     </cc:Agent>
    </dc:creator>
   </cc:Work>
  </rdf:RDF>
 </metadata>
 <defs>
  <style type="text/css">*{stroke-linejoin: round; stroke-linecap: butt}</style>
 </defs>
 <g id="figure_1">
  <g id="patch_1">
   <path d="M 0 345.6 
L 460.8 345.6 
L 460.8 0 
L 0 0 
z
" style="fill: #ffffff"/>
  </g>
  <g id="axes_1">
   <g id="patch_2">
    <path d="M 57.6 307.584 
L 414.72 307.584 
L 414.72 41.472 
L 57.6 41.472 
z
" style="fill: #ffffff"/>
   </g>
   <g id="matplotlib.axis_1">
    <g id="xtick_1">
     <g id="line2d_1">
      <defs>
       <path id="m4b2a4a9747" d="M 0 0 
L 0 3.5 
" style="stroke: #000000; stroke-width: 0.8"/>
      </defs>
      <g>
       <use xlink:href="#m4b2a4a9747" x="73.832727" y="307.584" style="stroke: #000000; stroke-width: 0.8"/>
      </g>
     </g>
     <g id="text_1">
      <!-- 0 -->
      <g transform="translate(70.651477 322.182437)scale(0.1 -0.1)">
       <defs>
        <path id="DejaVuSans-30" d="M 2034 4250 
Q 1547 4250 1301 3770 
Q 1056 3291 1056 2328 
Q 1056 1369 1301 889 
Q 1547 409 2034 409 
Q 2525 409 2770 889 
Q 3016 1369 3016 2328 
Q 3016 3291 2770 3770 
Q 2525 4250 2034 4250 
z
M 2034 4750 
Q 2819 4750 3233 4129 
Q 3647 3509 3647 2328 
Q 3647 1150 3233 529 
Q 2819 -91 2034 -91 
Q 1250 -91 836 529 
Q 422 1150 422 2328 
Q 422 3509 836 4129 
Q 1250 4750 2034 4750 
z
" transform="scale(0.015625)"/>
       </defs>
       <use xlink:href="#DejaVuSans-30"/>
      </g>
     </g>
    </g>
    <g id="xtick_2">
     <g id="line2d_2">
      <g>
       <use xlink:href="#m4b2a4a9747" x="137.254205" y="307.584" style="stroke: #000000; stroke-width: 0.8"/>
      </g>
     </g>
     <g id="text_2">
      <!-- 1000 -->
      <g transform="translate(124.529205 322.182437)scale(0.1 -0.1)">
       <defs>
        <path id="DejaVuSans-31" d="M 794 531 
L 1825 531 
L 1825 4091 
L 703 3866 
L 703 4441 
L 1819 4666 
L 2450 4666 
L 2450 531 
L 3481 531 
L 3481 0 
L 794 0 
L 794 531 
z
" transform="scale(0.015625)"/>
       </defs>
       <use xlink:href="#DejaVuSans-31"/>
       <use xlink:href="#DejaVuSans-30" x="63.623047"/>
       <use xlink:href="#DejaVuSans-30" x="127.246094"/>
       <use xlink:href="#DejaVuSans-30" x="190.869141"/>
      </g>
     </g>
    </g>
    <g id="xtick_3">
     <g id="line2d_3">
      <g>
       <use xlink:href="#m4b2a4a9747" x="200.675683" y="307.584" style="stroke: #000000; stroke-width: 0.8"/>
      </g>
     </g>
     <g id="text_3">
      <!-- 2000 -->
      <g transform="translate(187.950683 322.182437)scale(0.1 -0.1)">
       <defs>
        <path id="DejaVuSans-32" d="M 1228 531 
L 3431 531 
L 3431 0 
L 469 0 
L 469 531 
Q 828 903 1448 1529 
Q 2069 2156 2228 2338 
Q 2531 2678 2651 2914 
Q 2772 3150 2772 3378 
Q 2772 3750 2511 3984 
Q 2250 4219 1831 4219 
Q 1534 4219 1204 4116 
Q 875 4013 500 3803 
L 500 4441 
Q 881 4594 1212 4672 
Q 1544 4750 1819 4750 
Q 2544 4750 2975 4387 
Q 3406 4025 3406 3419 
Q 3406 3131 3298 2873 
Q 3191 2616 2906 2266 
Q 2828 2175 2409 1742 
Q 1991 1309 1228 531 
z
" transform="scale(0.015625)"/>
       </defs>
       <use xlink:href="#DejaVuSans-32"/>
       <use xlink:href="#DejaVuSans-30" x="63.623047"/>
       <use xlink:href="#DejaVuSans-30" x="127.246094"/>
       <use xlink:href="#DejaVuSans-30" x="190.869141"/>
      </g>
     </g>
    </g>
    <g id="xtick_4">
     <g id="line2d_4">
      <g>
       <use xlink:href="#m4b2a4a9747" x="264.097161" y="307.584" style="stroke: #000000; stroke-width: 0.8"/>
      </g>
     </g>
     <g id="text_4">
      <!-- 3000 -->
      <g transform="translate(251.372161 322.182437)scale(0.1 -0.1)">
       <defs>
        <path id="DejaVuSans-33" d="M 2597 2516 
Q 3050 2419 3304 2112 
Q 3559 1806 3559 1356 
Q 3559 666 3084 287 
Q 2609 -91 1734 -91 
Q 1441 -91 1130 -33 
Q 819 25 488 141 
L 488 750 
Q 750 597 1062 519 
Q 1375 441 1716 441 
Q 2309 441 2620 675 
Q 2931 909 2931 1356 
Q 2931 1769 2642 2001 
Q 2353 2234 1838 2234 
L 1294 2234 
L 1294 2753 
L 1863 2753 
Q 2328 2753 2575 2939 
Q 2822 3125 2822 3475 
Q 2822 3834 2567 4026 
Q 2313 4219 1838 4219 
Q 1578 4219 1281 4162 
Q 984 4106 628 3988 
L 628 4550 
Q 988 4650 1302 4700 
Q 1616 4750 1894 4750 
Q 2613 4750 3031 4423 
Q 3450 4097 3450 3541 
Q 3450 3153 3228 2886 
Q 3006 2619 2597 2516 
z
" transform="scale(0.015625)"/>
       </defs>
       <use xlink:href="#DejaVuSans-33"/>
       <use xlink:href="#DejaVuSans-30" x="63.623047"/>
       <use xlink:href="#DejaVuSans-30" x="127.246094"/>
       <use xlink:href="#DejaVuSans-30" x="190.869141"/>
      </g>
     </g>
    </g>
    <g id="xtick_5">
     <g id="line2d_5">
      <g>
       <use xlink:href="#m4b2a4a9747" x="327.518639" y="307.584" style="stroke: #000000; stroke-width: 0.8"/>
      </g>
     </g>
     <g id="text_5">
      <!-- 4000 -->
      <g transform="translate(314.793639 322.182437)scale(0.1 -0.1)">
       <defs>
        <path id="DejaVuSans-34" d="M 2419 4116 
L 825 1625 
L 2419 1625 
L 2419 4116 
z
M 2253 4666 
L 3047 4666 
L 3047 1625 
L 3713 1625 
L 3713 1100 
L 3047 1100 
L 3047 0 
L 2419 0 
L 2419 1100 
L 313 1100 
L 313 1709 
L 2253 4666 
z
" transform="scale(0.015625)"/>
       </defs>
       <use xlink:href="#DejaVuSans-34"/>
       <use xlink:href="#DejaVuSans-30" x="63.623047"/>
       <use xlink:href="#DejaVuSans-30" x="127.246094"/>
       <use xlink:href="#DejaVuSans-30" x="190.869141"/>
      </g>
     </g>
    </g>
    <g id="xtick_6">
     <g id="line2d_6">
      <g>
       <use xlink:href="#m4b2a4a9747" x="390.940117" y="307.584" style="stroke: #000000; stroke-width: 0.8"/>
      </g>
     </g>
     <g id="text_6">
      <!-- 5000 -->
      <g transform="translate(378.215117 322.182437)scale(0.1 -0.1)">
       <defs>
        <path id="DejaVuSans-35" d="M 691 4666 
L 3169 4666 
L 3169 4134 
L 1269 4134 
L 1269 2991 
Q 1406 3038 1543 3061 
Q 1681 3084 1819 3084 
Q 2600 3084 3056 2656 
Q 3513 2228 3513 1497 
Q 3513 744 3044 326 
Q 2575 -91 1722 -91 
Q 1428 -91 1123 -41 
Q 819 9 494 109 
L 494 744 
Q 775 591 1075 516 
Q 1375 441 1709 441 
Q 2250 441 2565 725 
Q 2881 1009 2881 1497 
Q 2881 1984 2565 2268 
Q 2250 2553 1709 2553 
Q 1456 2553 1204 2497 
Q 953 2441 691 2322 
L 691 4666 
z
" transform="scale(0.015625)"/>
       </defs>
       <use xlink:href="#DejaVuSans-35"/>
       <use xlink:href="#DejaVuSans-30" x="63.623047"/>
       <use xlink:href="#DejaVuSans-30" x="127.246094"/>
       <use xlink:href="#DejaVuSans-30" x="190.869141"/>
      </g>
     </g>
    </g>
   </g>
   <g id="matplotlib.axis_2">
    <g id="ytick_1">
     <g id="line2d_7">
      <defs>
       <path id="m71d5be32da" d="M 0 0 
L -3.5 0 
" style="stroke: #000000; stroke-width: 0.8"/>
      </defs>
      <g>
       <use xlink:href="#m71d5be32da" x="57.6" y="263.848644" style="stroke: #000000; stroke-width: 0.8"/>
      </g>
     </g>
     <g id="text_7">
      <!-- 4050 -->
      <g transform="translate(25.15 267.647863)scale(0.1 -0.1)">
       <use xlink:href="#DejaVuSans-34"/>
       <use xlink:href="#DejaVuSans-30" x="63.623047"/>
       <use xlink:href="#DejaVuSans-35" x="127.246094"/>
       <use xlink:href="#DejaVuSans-30" x="190.869141"/>
      </g>
     </g>
    </g>
    <g id="ytick_2">
     <g id="line2d_8">
      <g>
       <use xlink:href="#m71d5be32da" x="57.6" y="216.389495" style="stroke: #000000; stroke-width: 0.8"/>
      </g>
     </g>
     <g id="text_8">
      <!-- 4100 -->
      <g transform="translate(25.15 220.188714)scale(0.1 -0.1)">
       <use xlink:href="#DejaVuSans-34"/>
       <use xlink:href="#DejaVuSans-31" x="63.623047"/>
       <use xlink:href="#DejaVuSans-30" x="127.246094"/>
       <use xlink:href="#DejaVuSans-30" x="190.869141"/>
      </g>
     </g>
    </g>
    <g id="ytick_3">
     <g id="line2d_9">
      <g>
       <use xlink:href="#m71d5be32da" x="57.6" y="168.930346" style="stroke: #000000; stroke-width: 0.8"/>
      </g>
     </g>
     <g id="text_9">
      <!-- 4150 -->
      <g transform="translate(25.15 172.729565)scale(0.1 -0.1)">
       <use xlink:href="#DejaVuSans-34"/>
       <use xlink:href="#DejaVuSans-31" x="63.623047"/>
       <use xlink:href="#DejaVuSans-35" x="127.246094"/>
       <use xlink:href="#DejaVuSans-30" x="190.869141"/>
      </g>
     </g>
    </g>
    <g id="ytick_4">
     <g id="line2d_10">
      <g>
       <use xlink:href="#m71d5be32da" x="57.6" y="121.471197" style="stroke: #000000; stroke-width: 0.8"/>
      </g>
     </g>
     <g id="text_10">
      <!-- 4200 -->
      <g transform="translate(25.15 125.270416)scale(0.1 -0.1)">
       <use xlink:href="#DejaVuSans-34"/>
       <use xlink:href="#DejaVuSans-32" x="63.623047"/>
       <use xlink:href="#DejaVuSans-30" x="127.246094"/>
       <use xlink:href="#DejaVuSans-30" x="190.869141"/>
      </g>
     </g>
    </g>
    <g id="ytick_5">
     <g id="line2d_11">
      <g>
       <use xlink:href="#m71d5be32da" x="57.6" y="74.012048" style="stroke: #000000; stroke-width: 0.8"/>
      </g>
     </g>
     <g id="text_11">
      <!-- 4250 -->
      <g transform="translate(25.15 77.811267)scale(0.1 -0.1)">
       <use xlink:href="#DejaVuSans-34"/>
       <use xlink:href="#DejaVuSans-32" x="63.623047"/>
       <use xlink:href="#DejaVuSans-35" x="127.246094"/>
       <use xlink:href="#DejaVuSans-30" x="190.869141"/>
      </g>
     </g>
    </g>
   </g>
   <g id="line2d_12">
    <path d="M 73.832727 193.755097 
L 73.95957 209.209908 
L 74.086413 193.511775 
L 74.149835 195.093593 
L 74.213256 195.336913 
L 74.340099 190.46957 
L 74.403521 191.564745 
L 74.530364 188.035898 
L 74.593785 193.755097 
L 74.657206 191.929958 
L 74.910892 167.469958 
L 75.037735 178.908817 
L 75.101157 175.014757 
L 75.164578 172.581085 
L 75.228 177.692213 
L 75.291421 176.231825 
L 75.418264 160.04705 
L 75.67195 189.009182 
L 75.798793 179.639244 
L 75.862215 180.369207 
L 75.925636 181.342953 
L 75.989058 180.369207 
L 76.1159 182.802878 
L 76.369586 178.422176 
L 76.496429 182.92477 
L 76.623272 180.125885 
L 76.750115 180.369207 
L 76.813537 181.707703 
L 76.876958 177.692213 
L 76.94038 177.813642 
L 77.067223 191.199532 
L 77.130644 181.829595 
L 77.194066 184.8718 
L 77.320909 201.421788 
L 77.38433 195.215485 
L 77.447752 197.771049 
L 77.511173 202.151751 
L 77.574594 199.230974 
L 77.638016 194.120309 
L 77.701437 195.093593 
L 77.891702 207.992841 
L 78.081966 195.702126 
L 78.145388 196.31066 
L 78.272231 205.80249 
L 78.399074 194.120309 
L 78.462495 196.31066 
L 78.525917 193.998417 
L 78.65276 213.590611 
L 78.716181 204.828743 
L 78.779603 195.945447 
L 78.843024 199.230974 
L 78.906446 195.458805 
L 79.033288 207.871412 
L 79.286974 167.348529 
L 79.350396 166.861423 
L 79.413817 178.300284 
L 79.477239 173.919582 
L 79.54066 163.94111 
L 79.604082 169.173667 
L 79.667503 172.824406 
L 79.730925 171.972552 
L 79.794346 169.416988 
L 79.857768 169.782201 
L 80.048032 184.019946 
L 80.238297 179.03071 
L 80.428561 169.173667 
L 80.555404 169.660309 
L 80.618825 169.416988 
L 80.745668 181.099168 
L 80.80909 180.491098 
L 80.999354 197.040622 
L 81.062776 194.485059 
L 81.25304 180.003993 
L 81.379883 191.808066 
L 81.443305 189.252502 
L 81.570148 180.247314 
L 81.823833 193.268454 
L 81.887255 189.374394 
L 82.140941 212.860648 
L 82.204362 210.669834 
L 82.394627 194.972164 
L 82.52147 209.69655 
L 82.584891 209.574658 
L 82.648313 212.252114 
L 82.711734 208.722804 
L 82.838577 192.781813 
L 82.901999 195.702126 
L 83.028842 191.808066 
L 83.155685 211.278367 
L 83.282527 190.46957 
L 83.40937 200.326612 
L 83.472792 196.432089 
L 83.536213 202.638392 
L 83.599635 201.299896 
L 83.663056 195.580697 
L 83.789899 213.590611 
L 83.853321 208.236162 
L 83.980164 202.638392 
L 84.043585 203.246926 
L 84.107007 205.559169 
L 84.23385 197.892477 
L 84.360693 207.140987 
L 84.424114 203.246926 
L 84.550957 190.104357 
L 84.741221 209.818442 
L 84.868064 200.326612 
L 84.994907 211.886902 
L 85.058329 210.305084 
L 85.248593 195.945447 
L 85.312015 197.283943 
L 85.438858 189.861036 
L 85.565701 197.162514 
L 85.629122 195.824018 
L 85.692544 195.093593 
L 85.755965 197.162514 
L 85.94623 178.300284 
L 86.009651 180.247314 
L 86.199915 197.162514 
L 86.263337 191.686174 
L 86.326758 187.914006 
L 86.39018 189.739144 
L 86.580444 200.569933 
L 86.643866 198.744332 
L 86.83413 180.491098 
L 86.897552 179.274031 
L 86.960973 180.491098 
L 87.214659 196.919194 
L 87.341502 178.787389 
L 87.468345 188.279219 
L 87.531767 181.829595 
L 87.658609 195.945447 
L 87.722031 192.173279 
L 87.848874 194.120309 
L 88.10256 164.062539 
L 88.165981 168.808454 
L 88.229403 175.988504 
L 88.292824 173.311048 
L 88.356246 165.279607 
L 88.419667 166.374782 
L 88.54651 183.046199 
L 88.673353 167.59185 
L 88.863618 187.914006 
L 88.927039 187.792114 
L 89.244146 178.544068 
L 89.370989 190.46957 
L 89.434411 189.617715 
L 89.688097 194.972164 
L 89.751518 195.336913 
L 89.878361 204.098781 
L 89.941783 201.543217 
L 90.005204 197.162514 
L 90.132047 151.650396 
L 90.195469 155.787777 
L 90.25889 168.808454 
L 90.322312 161.872188 
L 90.385733 147.147802 
L 90.449154 150.920433 
L 90.512576 151.041862 
L 90.575997 141.428604 
L 90.70284 170.999268 
L 90.766262 161.385547 
L 90.829683 147.147802 
L 90.893105 154.20596 
L 90.956526 166.374782 
L 91.019948 158.464769 
L 91.083369 145.809305 
L 91.146791 146.052626 
L 91.273634 167.713278 
L 91.337055 164.427752 
L 91.400477 158.10002 
L 91.52732 171.364018 
L 91.654163 161.872188 
L 91.717584 165.64482 
L 91.844427 160.898905 
L 91.907848 165.158178 
L 91.97127 164.914394 
L 92.034691 162.115509 
L 92.161534 168.565133 
L 92.288377 143.618954 
L 92.351799 151.893717 
L 92.41522 169.173667 
L 92.478642 159.925158 
L 92.542063 145.565985 
L 92.668906 181.707703 
L 92.795749 152.745571 
L 92.859171 157.856699 
L 92.922592 155.422564 
L 93.049435 144.592238 
L 93.303121 210.548405 
L 93.429964 241.701119 
L 93.493385 241.335905 
L 93.556807 243.161275 
L 93.747071 220.161663 
L 93.810493 221.987265 
L 93.873914 224.90781 
L 94.064179 205.193956 
L 94.1276 207.871412 
L 94.317865 221.743944 
L 94.444708 218.945059 
L 94.571551 229.653725 
L 94.634972 229.288744 
L 94.888658 219.431701 
L 95.142344 239.754089 
L 95.332608 222.473906 
L 95.459451 226.246306 
L 95.649716 222.717459 
L 95.776559 207.262879 
L 96.030245 224.055955 
L 96.093666 223.934295 
L 96.220509 208.479483 
L 96.28393 213.468719 
L 96.347352 219.066487 
L 96.410773 215.172427 
L 96.537616 207.262879 
L 96.664459 210.913618 
L 96.727881 212.008794 
L 96.791302 211.521688 
L 96.854724 208.358054 
L 96.918145 211.278367 
L 96.981567 220.405216 
L 97.044988 217.971313 
L 97.171831 206.654344 
L 97.235253 211.278367 
L 97.298674 210.669834 
L 97.362096 209.331337 
L 97.488939 212.495435 
L 97.615781 209.331337 
L 97.679203 210.305084 
L 97.869467 214.564357 
L 97.932889 213.955823 
L 98.059732 203.976889 
L 98.123153 206.167703 
L 98.249996 183.776624 
L 98.376839 180.003993 
L 98.503682 182.072915 
L 98.630525 175.501399 
L 98.693947 176.840359 
L 98.82079 180.612527 
L 98.884211 180.97774 
L 99.074475 195.945447 
L 99.137897 195.945447 
L 99.26474 177.935535 
L 99.328161 183.168091 
L 99.455004 201.056575 
L 99.518426 195.702126 
L 99.581847 198.014369 
L 99.645269 197.771049 
L 99.772112 190.104357 
L 99.835533 195.945447 
L 99.898955 194.606951 
L 99.962376 189.982928 
L 100.025798 192.173279 
L 100.152641 188.157327 
L 100.216062 193.268454 
L 100.342905 181.099168 
L 100.596591 201.056575 
L 100.660012 204.463994 
L 100.786855 192.781813 
L 100.97712 196.919194 
L 101.167384 191.321425 
L 101.230806 194.36363 
L 101.357649 205.80249 
L 101.484492 193.389883 
L 101.547913 193.511775 
L 101.611335 189.861036 
L 101.674756 190.956211 
L 101.738178 193.998417 
L 101.801599 192.659921 
L 101.865021 193.511775 
L 101.928442 195.945447 
L 101.991863 195.336913 
L 102.118706 188.157327 
L 102.245549 196.432089 
L 102.499235 148.121548 
L 102.752921 89.83161 
L 102.816343 88.736434 
L 103.387136 167.226637 
L 103.450557 165.64482 
L 103.513979 165.766249 
L 103.640822 184.385159 
L 103.704243 180.97774 
L 103.767665 182.802878 
L 103.894508 194.241738 
L 103.957929 193.025134 
L 104.021351 199.9614 
L 104.084772 198.014369 
L 104.148194 194.241738 
L 104.275037 210.669834 
L 104.338458 208.236162 
L 104.40188 207.384307 
L 104.465301 209.088016 
L 104.528723 208.479483 
L 104.592144 208.601375 
L 104.655566 209.939871 
L 104.718987 209.69655 
L 104.84583 206.897665 
L 105.036094 228.55855 
L 105.099516 220.526877 
L 105.226359 204.220672 
L 105.416623 214.320573 
L 105.480045 212.373543 
L 105.733731 208.479483 
L 105.860574 218.945059 
L 105.923995 212.738756 
L 105.987417 213.31253 
L 106.241102 215.607161 
L 106.367945 164.792965 
L 106.431367 164.914394 
L 106.55821 183.776624 
L 106.621631 178.056963 
L 106.685053 179.03071 
L 106.748474 182.316236 
L 106.875317 167.83517 
L 107.00216 177.327 
L 107.065582 174.893329 
L 107.129003 178.787389 
L 107.192425 178.422176 
L 107.255846 176.597038 
L 107.319268 181.099168 
L 107.572954 161.872188 
L 107.636375 164.427752 
L 107.763218 179.639244 
L 108.016904 164.427752 
L 108.080325 164.914394 
L 108.207168 168.078491 
L 108.334011 163.089255 
L 108.397433 165.64482 
L 108.460854 163.575898 
L 108.587697 174.041474 
L 108.651119 172.459193 
L 108.777962 160.290371 
L 108.968226 166.131462 
L 109.095069 158.221448 
L 109.348755 177.692213 
L 109.412176 174.650008 
L 109.475598 175.136649 
L 109.539019 175.014757 
L 109.665862 162.480722 
L 109.919548 179.274031 
L 110.046391 168.321813 
L 110.173234 181.707703 
L 110.300077 172.337765 
L 110.363499 180.125885 
L 110.42692 179.882564 
L 110.490342 173.676261 
L 110.553763 173.919582 
L 110.617184 173.676261 
L 110.680606 169.904093 
L 110.744027 170.512163 
L 110.807449 169.416988 
L 110.87087 162.602614 
L 110.934292 164.427752 
L 111.061135 179.517352 
L 111.441664 170.877377 
L 111.505085 166.253353 
L 111.631928 180.369207 
L 111.69535 179.760672 
L 111.822193 173.798153 
L 111.949036 165.401499 
L 112.075878 170.268842 
L 112.202721 161.99408 
L 112.329564 167.956599 
L 112.392986 165.401499 
L 112.519829 174.650008 
L 112.58325 171.851123 
L 112.646672 171.364018 
L 112.710093 178.544068 
L 112.773515 173.798153 
L 112.836936 167.713278 
L 112.963779 178.908817 
L 113.090622 161.750759 
L 113.154044 165.279607 
L 113.280887 159.073303 
L 113.407729 163.69779 
L 113.471151 163.210684 
L 113.534572 164.062539 
L 113.724837 168.687025 
L 113.788258 168.321813 
L 113.915101 156.15299 
L 114.041944 173.919582 
L 114.105366 167.226637 
L 114.168787 168.930346 
L 114.232209 178.178855 
L 114.29563 174.650008 
L 114.359052 162.724043 
L 114.485895 239.388876 
L 114.549316 240.727603 
L 114.676159 226.002986 
L 114.739581 230.140367 
L 114.803002 231.844076 
L 114.929845 224.90781 
L 114.993266 225.516344 
L 115.183531 219.431701 
L 115.246952 219.553593 
L 115.310374 221.500391 
L 115.437217 212.860648 
L 115.500638 208.358054 
L 115.56406 208.966587 
L 115.754324 221.622283 
L 115.817746 218.458417 
L 116.00801 203.368819 
L 116.071432 205.315848 
L 116.261696 227.098161 
L 116.578803 192.781813 
L 116.642225 193.025134 
L 116.769068 179.639244 
L 116.832489 182.438128 
L 116.895911 181.951023 
L 116.959332 177.448429 
L 117.022754 179.395923 
L 117.086175 182.68145 
L 117.149597 181.099168 
L 117.530126 160.04705 
L 117.593547 164.062539 
L 117.656969 168.078491 
L 117.783811 154.327388 
L 117.910654 170.268842 
L 117.974076 162.359293 
L 118.037497 166.739995 
L 118.100919 176.109933 
L 118.16434 170.999268 
L 118.227762 163.575898 
L 118.291183 165.158178 
L 118.544869 182.559557 
L 118.671712 173.554369 
L 118.798555 181.707703 
L 118.861977 179.882564 
L 118.925398 174.041474 
L 118.98882 176.353253 
L 119.052241 179.882564 
L 119.115663 174.041474 
L 119.179084 178.300284 
L 119.242505 193.876989 
L 119.305927 189.982928 
L 119.43277 179.395923 
L 119.496191 179.517352 
L 119.623034 196.31066 
L 119.749877 144.470809 
L 119.813299 150.068579 
L 119.940142 139.968215 
L 120.130406 156.761523 
L 120.193828 162.724043 
L 120.447514 150.3119 
L 120.574356 163.210684 
L 120.637778 169.29556 
L 120.701199 167.226637 
L 120.764621 164.914394 
L 120.828042 165.522927 
L 120.891464 164.792965 
L 121.018307 161.385547 
L 121.081728 162.967363 
L 121.208571 160.898905 
L 121.335414 168.078491 
L 121.462257 182.194344 
L 121.525679 179.274031 
L 121.652522 185.723655 
L 121.842786 176.718467 
L 121.906208 177.327 
L 122.096472 157.856699 
L 122.223315 160.412263 
L 122.413579 169.052238 
L 122.477001 168.687025 
L 122.540422 180.491098 
L 122.603844 179.274031 
L 122.730687 190.956211 
L 122.794108 197.283943 
L 122.85753 192.538029 
L 122.920951 180.491098 
L 122.984373 181.22106 
L 123.111216 196.432089 
L 123.174637 192.781813 
L 123.238059 194.850272 
L 123.30148 192.051387 
L 123.491744 170.025522 
L 123.74543 188.887753 
L 123.872273 176.597038 
L 123.999116 193.755097 
L 124.062538 187.427364 
L 124.125959 189.861036 
L 124.189381 196.06734 
L 124.252802 194.120309 
L 124.316224 193.755097 
L 124.443067 199.230974 
L 124.56991 191.321425 
L 124.696753 197.892477 
L 124.823596 192.173279 
L 124.950438 195.702126 
L 125.140703 173.18962 
L 125.204124 177.813642 
L 125.330967 192.538029 
L 125.45781 181.342953 
L 125.584653 196.06734 
L 125.965182 180.003993 
L 126.028604 179.03071 
L 126.155447 184.019946 
L 126.218868 180.855848 
L 126.28229 183.046199 
L 126.345711 190.590998 
L 126.409132 185.723655 
L 126.472554 178.300284 
L 126.535975 178.422176 
L 126.599397 179.639244 
L 126.789661 193.511775 
L 126.916504 192.659921 
L 126.979926 190.956211 
L 127.043347 191.078104 
L 127.17019 210.183192 
L 127.233612 203.733568 
L 127.360455 191.442853 
L 127.423876 194.241738 
L 127.487298 193.633668 
L 127.614141 194.120309 
L 127.740984 204.220672 
L 127.804405 199.9614 
L 127.867826 189.495823 
L 127.931248 191.442853 
L 127.994669 199.109545 
L 128.058091 196.675873 
L 128.121512 193.268454 
L 128.184934 195.215485 
L 128.375198 204.707315 
L 128.43862 205.072527 
L 128.502041 203.368819 
L 128.628884 187.792114 
L 128.692306 188.157327 
L 128.819149 194.728843 
L 128.88257 194.36363 
L 128.945992 189.495823 
L 129.009413 190.104357 
L 129.136256 196.432089 
L 129.263099 192.294707 
L 129.453363 197.892477 
L 129.580206 190.834782 
L 129.707049 195.215485 
L 129.770471 193.389883 
L 129.833892 193.755097 
L 130.404686 216.146174 
L 130.468107 215.050999 
L 130.59495 210.913618 
L 130.658371 183.168091 
L 130.721793 193.633668 
L 130.785214 192.659921 
L 130.912057 174.528116 
L 131.0389 182.194344 
L 131.102322 181.586274 
L 131.165743 180.612527 
L 131.292586 196.31066 
L 131.356008 192.173279 
L 131.419429 187.305472 
L 131.546272 193.389883 
L 131.609694 190.104357 
L 131.736537 199.474757 
L 131.799958 195.824018 
L 131.86338 197.162514 
L 131.926801 206.167703 
L 131.990223 203.976889 
L 132.053644 195.215485 
L 132.117065 195.580697 
L 132.180487 198.987653 
L 132.243908 197.405836 
L 132.370751 194.485059 
L 132.497594 201.665109 
L 132.561016 197.283943 
L 132.624437 192.781813 
L 132.75128 210.669834 
L 132.814702 206.654344 
L 132.878123 202.273643 
L 132.941545 202.516964 
L 133.068388 211.156939 
L 133.131809 204.707315 
L 133.258652 240.849264 
L 133.448917 171.851123 
L 133.512338 172.702514 
L 133.639181 166.253353 
L 133.892867 189.009182 
L 134.01971 216.267603 
L 134.083131 214.320573 
L 134.209974 229.288744 
L 134.590503 195.458805 
L 134.653925 193.511775 
L 134.717346 196.31066 
L 134.780768 194.972164 
L 134.844189 190.71289 
L 134.907611 193.146562 
L 135.224718 223.325761 
L 135.351561 211.400259 
L 135.414982 211.765473 
L 135.478404 209.331337 
L 135.795511 227.341713 
L 135.922354 223.325761 
L 136.049197 233.669446 
L 136.17604 223.934295 
L 136.239462 223.447422 
L 136.366304 204.828743 
L 136.493147 216.876137 
L 136.61999 206.289132 
L 136.746833 217.24135 
L 136.937098 209.088016 
L 137.000519 211.400259 
L 137.063941 213.712502 
L 137.190784 207.262879 
L 137.317627 227.706695 
L 137.381048 225.272792 
L 137.44447 220.161663 
L 137.571313 240.11907 
L 137.634734 236.833543 
L 137.761577 222.595798 
L 137.824998 225.881325 
L 137.88842 223.569314 
L 137.951841 220.892089 
L 138.078684 225.881325 
L 138.142106 225.638004 
L 138.205527 224.177616 
L 138.268949 224.542829 
L 138.522635 228.80187 
L 138.649478 214.320573 
L 138.712899 215.537641 
L 138.776321 180.247314 
L 138.839742 181.22106 
L 139.030007 177.205108 
L 139.15685 177.692213 
L 139.347114 181.586274 
L 139.473957 180.734419 
L 139.727643 196.675873 
L 139.854486 181.829595 
L 139.917907 187.427364 
L 140.108172 204.463994 
L 140.171593 211.278367 
L 140.298436 194.120309 
L 140.361858 199.718079 
L 140.425279 207.506199 
L 140.552122 192.903242 
L 140.615544 195.458805 
L 140.678965 196.188768 
L 140.742386 195.336913 
L 140.805808 196.188768 
L 140.869229 195.824018 
L 140.932651 194.728843 
L 140.996072 195.336913 
L 141.249758 213.103969 
L 141.376601 201.665109 
L 141.440023 204.463994 
L 141.503444 206.167703 
L 141.75713 177.813642 
L 141.820552 177.935535 
L 142.20108 193.755097 
L 142.264502 192.659921 
L 142.391345 196.31066 
L 142.518188 198.866224 
L 142.581609 198.744332 
L 142.708452 191.929958 
L 142.771874 193.146562 
L 142.835295 193.998417 
L 143.088981 155.301135 
L 143.342667 109.180483 
L 143.406089 106.016384 
L 144.230568 190.46957 
L 144.547675 200.20472 
L 144.611097 207.74952 
L 144.674518 207.627628 
L 144.73794 204.220672 
L 144.864783 219.553593 
L 144.928204 214.442465 
L 144.991625 212.252114 
L 145.055047 212.982076 
L 145.118468 212.617327 
L 145.245311 216.389495 
L 145.372154 210.426512 
L 145.498997 228.436889 
L 145.562419 227.219821 
L 145.689262 228.680209 
L 145.816105 206.654344 
L 145.942948 220.161663 
L 146.069791 207.262879 
L 146.196634 217.971313 
L 146.323477 208.358054 
L 146.450319 212.495435 
L 146.640584 205.976291 
L 146.830848 202.586484 
L 146.957691 163.089255 
L 147.021113 162.602614 
L 147.211377 181.22106 
L 147.401642 179.882564 
L 147.591906 175.501399 
L 147.909013 183.533304 
L 148.035856 179.517352 
L 148.162699 161.628867 
L 148.226121 165.279607 
L 148.352964 179.152139 
L 148.416385 178.056963 
L 148.479807 180.369207 
L 148.60665 164.427752 
L 148.670071 166.374782 
L 148.796914 180.734419 
L 148.860336 177.205108 
L 148.923757 177.692213 
L 148.987179 179.882564 
L 149.114022 176.353253 
L 149.240865 183.046199 
L 149.367707 163.210684 
L 149.431129 165.401499 
L 149.49455 170.512163 
L 149.557972 170.147414 
L 149.621393 164.914394 
L 149.684815 167.59185 
L 149.875079 181.342953 
L 149.938501 184.993229 
L 150.255608 145.809305 
L 150.31903 151.163755 
L 150.382451 154.44928 
L 150.509294 145.687413 
L 150.572716 149.824794 
L 150.636137 147.634444 
L 150.699559 146.66116 
L 150.826401 148.729618 
L 150.889823 147.147802 
L 151.016666 156.15299 
L 151.080087 154.570709 
L 151.143509 155.057815 
L 151.20693 157.248166 
L 151.333773 151.650396 
L 151.397195 152.988892 
L 151.460616 151.041862 
L 151.524038 151.528504 
L 151.714302 163.575898 
L 151.777724 162.602614 
L 151.841145 162.967363 
L 151.967988 172.215873 
L 152.094831 160.412263 
L 152.348517 179.760672 
L 152.47536 165.279607 
L 152.538781 166.131462 
L 152.602203 169.416988 
L 152.855889 159.073303 
L 152.91931 159.560409 
L 153.046153 164.792965 
L 153.109575 164.184431 
L 153.172996 164.427752 
L 153.236418 166.739995 
L 153.299839 166.131462 
L 153.363261 161.020334 
L 153.426682 163.819218 
L 153.553525 181.099168 
L 153.680368 172.459193 
L 153.743789 179.03071 
L 153.807211 178.908817 
L 153.870632 175.745183 
L 154.314583 196.797302 
L 154.378004 193.633668 
L 154.504847 173.676261 
L 154.63169 194.606951 
L 154.758533 186.332189 
L 154.821955 192.903242 
L 154.885376 191.442853 
L 155.012219 180.003993 
L 155.139062 199.596186 
L 155.265905 185.966975 
L 155.329326 186.332189 
L 155.646434 178.056963 
L 155.709855 180.369207 
L 155.773277 180.247314 
L 155.963541 174.771437 
L 156.090384 162.115509 
L 156.217227 170.147414 
L 156.34407 162.602614 
L 156.407492 163.94111 
L 156.470913 166.131462 
L 156.597756 156.15299 
L 156.661177 158.34334 
L 156.851442 180.612527 
L 156.914863 181.099168 
L 157.041706 165.64482 
L 157.168549 177.448429 
L 157.231971 175.501399 
L 157.295392 174.041474 
L 157.358814 175.136649 
L 157.422235 174.041474 
L 157.549078 165.158178 
L 157.6125 167.83517 
L 157.675921 178.056963 
L 157.739343 177.692213 
L 157.866186 170.634056 
L 157.993028 178.544068 
L 158.119871 166.618103 
L 158.246714 182.559557 
L 158.373557 173.798153 
L 158.5004 182.68145 
L 158.563822 182.194344 
L 158.690665 183.411412 
L 158.817508 181.951023 
L 158.880929 182.802878 
L 158.944351 181.951023 
L 159.071194 195.945447 
L 159.134615 193.755097 
L 159.261458 186.332189 
L 159.388301 194.120309 
L 159.451722 193.755097 
L 159.578565 179.03071 
L 159.76883 187.427364 
L 159.832251 198.987653 
L 159.959094 180.369207 
L 160.022516 183.898053 
L 160.085937 182.68145 
L 160.149359 184.749908 
L 160.21278 193.268454 
L 160.276202 187.670685 
L 160.466466 164.792965 
L 160.529888 163.69779 
L 160.593309 167.226637 
L 160.656731 165.64482 
L 160.720152 162.359293 
L 160.783573 164.427752 
L 160.846995 165.522927 
L 160.910416 163.94111 
L 160.973838 164.671073 
L 161.037259 163.69779 
L 161.100681 164.062539 
L 161.227524 179.152139 
L 161.290945 177.448429 
L 161.354367 176.597038 
L 161.417788 177.692213 
L 161.608053 161.142226 
L 161.671474 163.819218 
L 161.734896 164.306323 
L 161.798317 161.020334 
L 162.178846 185.237013 
L 162.36911 177.570321 
L 162.432532 178.178855 
L 162.559375 182.68145 
L 162.622796 181.951023 
L 162.749639 177.08368 
L 162.876482 182.92477 
L 163.066747 180.734419 
L 163.320433 203.612139 
L 163.574119 178.300284 
L 163.764383 196.31066 
L 163.954647 194.241738 
L 164.08149 180.855848 
L 164.335176 198.135798 
L 164.398598 196.188768 
L 164.462019 190.226249 
L 164.525441 190.71289 
L 164.652284 193.998417 
L 164.715705 193.511775 
L 164.842548 189.374394 
L 164.969391 198.014369 
L 165.032813 196.553981 
L 165.223077 194.241738 
L 165.413341 193.025134 
L 165.603606 196.553981 
L 165.730449 182.194344 
L 165.79387 187.062151 
L 165.920713 201.178004 
L 165.984135 192.903242 
L 166.047556 193.389883 
L 166.174399 199.109545 
L 166.618349 189.617715 
L 166.745192 193.146562 
L 166.808614 192.659921 
L 166.872035 193.025134 
L 166.935457 190.71289 
L 167.125721 176.109933 
L 167.189143 176.353253 
L 167.379407 195.336913 
L 167.50625 178.544068 
L 167.759936 196.31066 
L 167.823358 197.405836 
L 168.013622 178.787389 
L 168.077043 180.855848 
L 168.140465 183.776624 
L 168.267308 179.882564 
L 168.394151 197.527728 
L 168.520994 176.718467 
L 168.584415 180.97774 
L 168.647837 184.019946 
L 168.711258 181.829595 
L 168.901523 183.411412 
L 168.964944 190.104357 
L 169.028366 189.739144 
L 169.282052 165.036286 
L 169.408894 171.364018 
L 169.599159 164.427752 
L 169.726002 175.501399 
L 169.852845 161.507438 
L 169.916266 167.348529 
L 170.043109 182.92477 
L 170.169952 177.327 
L 170.233374 179.03071 
L 170.360217 173.554369 
L 170.423638 175.501399 
L 170.550481 182.194344 
L 170.613903 177.813642 
L 170.677324 180.855848 
L 170.740746 190.834782 
L 170.804167 188.887753 
L 170.867588 180.369207 
L 170.93101 184.263267 
L 171.057853 193.268454 
L 171.121274 191.078104 
L 171.184696 193.755097 
L 171.248117 155.057815 
L 171.311539 156.031098 
L 171.438382 168.200384 
L 171.565225 148.121548 
L 171.628646 153.597426 
L 171.692068 154.570709 
L 171.755489 146.174519 
L 171.882332 165.279607 
L 171.945754 159.073303 
L 172.009175 149.703365 
L 172.072597 154.570709 
L 172.136018 166.253353 
L 172.19944 161.872188 
L 172.262861 151.650396 
L 172.326282 156.15299 
L 172.453125 169.53888 
L 172.579968 163.332577 
L 172.706811 173.43294 
L 172.770233 166.739995 
L 172.833654 168.930346 
L 172.897076 171.48591 
L 172.960497 164.184431 
L 173.023919 165.401499 
L 173.08734 171.364018 
L 173.150762 166.131462 
L 173.214183 167.469958 
L 173.341026 178.056963 
L 173.467869 163.454469 
L 173.531291 166.861423 
L 173.594712 175.623292 
L 173.658134 173.798153 
L 173.721555 167.226637 
L 173.848398 184.385159 
L 173.911819 178.056963 
L 173.975241 175.258078 
L 174.038662 179.882564 
L 174.102084 179.639244 
L 174.228927 170.390734 
L 174.35577 190.834782 
L 174.609456 229.532064 
L 174.672877 226.611519 
L 174.736299 230.505579 
L 174.79972 227.828356 
L 174.926563 216.998029 
L 175.053406 221.378731 
L 175.180249 212.982076 
L 175.24367 214.685786 
L 175.497356 225.394452 
L 175.560778 223.812635 
L 175.624199 224.90781 
L 175.751042 230.383919 
L 176.06815 220.526877 
L 176.321836 236.955204 
L 176.448679 224.299276 
L 176.5121 224.90781 
L 176.575521 226.368198 
L 176.638943 225.638004 
L 176.702364 224.66449 
L 176.765786 224.90781 
L 176.829207 226.246306 
L 176.95605 213.833931 
L 177.019472 216.267603 
L 177.146315 226.976501 
L 177.336579 224.90781 
L 177.400001 225.02947 
L 177.463422 224.299276 
L 177.78053 207.262879 
L 177.907373 210.548405 
L 177.970794 209.69655 
L 178.034215 210.061763 
L 178.161058 224.90781 
L 178.22448 219.553593 
L 178.287901 207.992841 
L 178.351323 209.088016 
L 178.414744 213.103969 
L 178.478166 211.035047 
L 178.541587 208.358054 
L 178.66843 216.511387 
L 178.731852 215.172427 
L 178.795273 212.008794 
L 178.922116 216.998029 
L 178.985538 213.712502 
L 179.112381 219.553593 
L 179.239224 203.976889 
L 179.302645 209.088016 
L 179.429488 178.178855 
L 179.492909 177.205108 
L 179.556331 178.665497 
L 179.619752 177.813642 
L 179.746595 170.512163 
L 179.93686 179.639244 
L 180.063703 175.745183 
L 180.317389 188.765861 
L 180.444232 173.18962 
L 180.507653 179.639244 
L 180.634496 196.675873 
L 180.824761 192.903242 
L 180.951603 178.665497 
L 181.015025 188.887753 
L 181.078446 188.279219 
L 181.141868 179.03071 
L 181.205289 184.263267 
L 181.268711 188.765861 
L 181.332132 184.8718 
L 181.395554 186.57551 
L 181.458975 185.480334 
L 181.522397 179.639244 
L 181.585818 183.533304 
L 181.776083 196.31066 
L 181.839504 195.215485 
L 181.966347 178.178855 
L 182.220033 192.903242 
L 182.346876 180.247314 
L 182.410297 183.533304 
L 182.53714 195.945447 
L 182.727405 178.056963 
L 182.790826 179.517352 
L 182.854248 179.152139 
L 182.917669 176.961788 
L 182.981091 177.448429 
L 183.107934 180.612527 
L 183.298198 174.893329 
L 183.425041 181.707703 
L 183.932413 117.820458 
L 183.995834 115.99532 
L 184.122677 121.349305 
L 184.24952 135.830834 
L 184.312942 131.449668 
L 184.376363 136.682689 
L 184.566628 163.332577 
L 184.630049 163.454469 
L 184.693471 163.089255 
L 184.947157 170.025522 
L 185.010578 175.988504 
L 185.074 172.459193 
L 185.137421 174.041474 
L 185.200842 183.411412 
L 185.264264 180.855848 
L 185.327685 175.623292 
L 185.454528 183.898053 
L 185.51795 181.22106 
L 185.581371 182.194344 
L 185.644793 183.776624 
L 185.771636 180.734419 
L 185.835057 187.184043 
L 185.898479 186.696938 
L 185.9619 179.395923 
L 186.025322 184.019946 
L 186.215586 199.230974 
L 186.279008 195.458805 
L 186.405851 174.650008 
L 186.469272 177.327 
L 186.596115 191.808066 
L 186.722958 177.935535 
L 186.786379 182.072915 
L 186.849801 182.92477 
L 186.913222 179.274031 
L 187.040065 186.453618 
L 187.103487 182.559557 
L 187.166908 182.594317 
L 187.420594 182.733358 
L 187.484016 183.654732 
L 187.610859 167.59185 
L 187.737702 185.115121 
L 187.801123 180.734419 
L 187.864545 178.544068 
L 187.927966 181.099168 
L 188.054809 175.866612 
L 188.11823 177.205108 
L 188.245073 176.961788 
L 188.435338 179.882564 
L 188.498759 179.517352 
L 188.625602 180.734419 
L 188.752445 166.253353 
L 188.879288 185.115121 
L 188.94271 184.141838 
L 189.196396 170.999268 
L 189.259817 172.824406 
L 189.323239 179.274031 
L 189.38666 176.961788 
L 189.513503 166.00957 
L 189.640346 177.327 
L 189.703767 174.771437 
L 189.83061 182.802878 
L 189.957453 162.967363 
L 190.020875 164.549645 
L 190.084296 168.200384 
L 190.147718 166.496674 
L 190.274561 159.438516 
L 190.464825 180.491098 
L 190.591668 177.570321 
L 190.718511 181.707703 
L 190.845354 174.406224 
L 190.972197 179.882564 
L 191.035618 181.099168 
L 191.09904 189.252502 
L 191.162461 187.305472 
L 191.225883 181.951023 
L 191.352726 194.850272 
L 191.416147 192.294707 
L 191.479569 193.146562 
L 191.54299 196.06734 
L 191.606412 194.606951 
L 192.050362 178.665497 
L 192.113784 179.639244 
L 192.177205 182.559557 
L 192.240627 181.099168 
L 192.367469 184.749908 
L 192.494312 177.692213 
L 192.557734 178.908817 
L 192.684577 177.08368 
L 192.81142 181.099168 
L 192.874841 180.612527 
L 193.128527 174.893329 
L 193.191949 175.623292 
L 193.25537 179.882564 
L 193.382213 163.089255 
L 193.445635 167.348529 
L 193.509056 177.327 
L 193.572478 175.501399 
L 193.635899 172.337765 
L 193.762742 178.300284 
L 193.826163 177.935535 
L 193.889585 181.829595 
L 193.953006 180.734419 
L 194.016428 178.908817 
L 194.079849 183.289983 
L 194.143271 183.168091 
L 194.270114 177.692213 
L 194.333535 179.639244 
L 194.396957 178.544068 
L 194.460378 178.178855 
L 194.5238 178.422176 
L 194.650643 179.03071 
L 194.714064 180.734419 
L 194.840907 189.131074 
L 194.904329 188.035898 
L 194.96775 189.131074 
L 195.094593 175.014757 
L 195.158015 180.369207 
L 195.221436 192.173279 
L 195.284857 186.81883 
L 195.348279 182.316236 
L 195.475122 190.956211 
L 195.538543 180.97774 
L 195.665386 212.373543 
L 195.728808 213.590611 
L 196.045915 195.093593 
L 196.172758 201.786537 
L 196.299601 195.824018 
L 196.363023 195.824018 
L 196.426444 194.120309 
L 196.553287 195.824018 
L 196.68013 192.4166 
L 196.743551 192.781813 
L 196.806973 194.606951 
L 196.870394 193.511775 
L 196.933816 188.765861 
L 196.997237 189.131074 
L 197.060659 190.347678 
L 197.187502 175.988504 
L 197.250923 180.612527 
L 197.441188 200.326612 
L 197.694874 193.268454 
L 197.758295 195.215485 
L 197.821717 194.36363 
L 197.885138 193.268454 
L 198.011981 198.25769 
L 198.138824 192.781813 
L 198.202245 196.432089 
L 198.265667 194.728843 
L 198.329088 191.808066 
L 198.39251 193.633668 
L 198.519353 190.590998 
L 198.582774 193.755097 
L 198.646196 193.389883 
L 198.709617 191.686174 
L 198.83646 196.188768 
L 198.963303 189.739144 
L 199.090146 196.31066 
L 199.153568 191.929958 
L 199.216989 194.36363 
L 199.280411 198.501012 
L 199.343832 197.040622 
L 199.597518 202.273643 
L 199.660939 207.262879 
L 199.724361 204.585423 
L 199.914625 194.972164 
L 199.978047 201.908429 
L 200.041468 201.056575 
L 200.10489 192.173279 
L 200.168311 196.432089 
L 200.231733 201.908429 
L 200.295154 196.675873 
L 200.421997 208.601375 
L 200.54884 191.929958 
L 200.612262 195.215485 
L 200.675683 191.199532 
L 200.802526 203.125497 
L 200.929369 174.893329 
L 200.99279 179.760672 
L 201.056212 177.813642 
L 201.119633 171.364018 
L 201.246476 180.97774 
L 201.309898 178.056963 
L 201.373319 178.787389 
L 201.436741 179.882564 
L 201.500162 179.395923 
L 201.627005 177.327 
L 201.690427 177.935535 
L 201.81727 182.92477 
L 201.880691 180.97774 
L 201.944113 181.099168 
L 202.007534 182.68145 
L 202.324642 164.914394 
L 202.388063 166.496674 
L 202.514906 180.855848 
L 202.578327 176.840359 
L 202.768592 196.31066 
L 202.832013 194.850272 
L 203.022278 182.194344 
L 203.149121 187.792114 
L 203.339385 177.692213 
L 203.593071 198.135798 
L 203.783336 181.342953 
L 203.910178 196.432089 
L 203.9736 194.241738 
L 204.163864 178.544068 
L 204.354129 191.078104 
L 204.41755 190.71289 
L 204.607815 175.258078 
L 204.671236 176.961788 
L 204.861501 186.210296 
L 204.924922 193.876989 
L 205.051765 175.014757 
L 205.115187 179.760672 
L 205.178608 183.898053 
L 205.24203 180.734419 
L 205.305451 181.707703 
L 205.368872 181.829595 
L 205.432294 178.178855 
L 205.559137 195.215485 
L 205.622558 192.4166 
L 205.749401 178.908817 
L 205.812823 182.92477 
L 205.876244 181.22106 
L 205.939666 179.03071 
L 206.003087 180.97774 
L 206.12993 192.051387 
L 206.320195 178.056963 
L 206.383616 180.247314 
L 206.510459 192.659921 
L 206.573881 189.739144 
L 206.637302 187.427364 
L 206.827566 193.633668 
L 206.954409 184.263267 
L 207.017831 187.792114 
L 207.081252 185.966975 
L 207.144674 180.369207 
L 207.208095 181.951023 
L 207.271517 184.019946 
L 207.334938 181.586274 
L 207.39836 182.802878 
L 207.461781 183.898053 
L 207.588624 182.072915 
L 207.715467 165.522927 
L 207.778889 170.755485 
L 207.84231 182.316236 
L 207.905732 182.072915 
L 207.969153 178.300284 
L 208.032575 180.491098 
L 208.159417 180.734419 
L 208.349682 197.892477 
L 208.603368 178.422176 
L 208.666789 178.665497 
L 208.857054 184.385159 
L 208.920475 189.739144 
L 209.047318 178.178855 
L 209.11074 181.464382 
L 209.174161 182.802878 
L 209.237583 179.517352 
L 209.301004 181.464382 
L 209.427847 191.929958 
L 209.491269 189.495823 
L 209.618111 194.606951 
L 209.808376 177.327 
L 209.99864 180.247314 
L 210.062062 178.908817 
L 210.125483 174.771437 
L 210.188905 175.379971 
L 210.315748 182.92477 
L 210.442591 175.623292 
L 210.632855 183.289983 
L 210.696277 182.194344 
L 210.759698 182.802878 
L 210.82312 183.533304 
L 210.949963 177.448429 
L 211.013384 177.935535 
L 211.076805 181.586274 
L 211.140227 181.342953 
L 211.203648 181.707703 
L 211.330491 193.511775 
L 211.393913 192.4166 
L 211.520756 189.252502 
L 211.584177 189.495823 
L 211.71102 194.972164 
L 211.837863 189.252502 
L 211.964706 191.686174 
L 212.091549 189.861036 
L 212.218392 180.125885 
L 212.408657 193.633668 
L 212.535499 192.051387 
L 212.662342 197.649157 
L 212.725764 197.040622 
L 212.852607 194.120309 
L 213.042871 195.824018 
L 213.106293 194.241738 
L 213.169714 194.485059 
L 213.233136 197.405836 
L 213.296557 196.553981 
L 213.550243 190.46957 
L 213.677086 195.945447 
L 213.740508 193.025134 
L 213.803929 194.485059 
L 213.867351 197.771049 
L 214.057615 189.739144 
L 214.121036 190.590998 
L 214.247879 192.903242 
L 214.311301 191.442853 
L 214.438144 208.966587 
L 214.755251 177.08368 
L 214.882094 176.353253 
L 214.945516 177.448429 
L 215.072359 191.321425 
L 215.13578 202.760284 
L 215.199202 200.082828 
L 215.262623 197.649157 
L 215.326045 205.80249 
L 215.389466 202.395072 
L 215.452887 191.929958 
L 215.516309 193.389883 
L 215.769995 201.178004 
L 215.833416 199.596186 
L 215.960259 211.886902 
L 216.023681 207.627628 
L 216.087102 207.992841 
L 216.277367 220.161663 
L 216.40421 209.818442 
L 216.467631 218.336526 
L 216.531053 215.780962 
L 216.594474 206.289132 
L 216.657896 207.262879 
L 216.721317 211.400259 
L 216.784738 210.791726 
L 216.84816 210.426512 
L 216.975003 212.008794 
L 217.101846 206.775773 
L 217.228689 210.548405 
L 217.29211 209.45323 
L 217.418953 211.035047 
L 217.545796 204.707315 
L 217.672639 211.886902 
L 217.736061 209.939871 
L 217.799482 210.061763 
L 217.926325 212.008794 
L 217.989747 211.64358 
L 218.053168 208.479483 
L 218.11659 208.966587 
L 218.180011 212.008794 
L 218.243432 210.183192 
L 218.306854 207.019558 
L 218.370275 208.479483 
L 218.433697 209.574658 
L 218.497118 209.209908 
L 218.56054 209.331337 
L 218.623961 210.426512 
L 218.750804 221.01375 
L 218.941069 203.733568 
L 219.00449 206.411024 
L 219.067912 209.331337 
L 219.131333 208.966587 
L 219.194755 208.479483 
L 219.321598 213.225398 
L 219.448441 209.209908 
L 219.575284 211.886902 
L 219.828969 200.082828 
L 219.892391 204.342101 
L 220.019234 152.380358 
L 220.082655 151.650396 
L 220.209498 152.502251 
L 220.336341 151.041862 
L 220.399763 148.121548 
L 220.463184 150.3119 
L 220.526606 159.073303 
L 220.590027 158.829983 
L 220.653449 152.502251 
L 220.907135 166.496674 
L 220.970556 164.671073 
L 221.033978 157.248166 
L 221.097399 160.898905 
L 221.16082 169.782201 
L 221.224242 169.660309 
L 221.351085 164.184431 
L 221.414506 165.158178 
L 221.541349 163.454469 
L 221.668192 165.64482 
L 221.795035 162.967363 
L 221.858457 163.575898 
L 221.9853 166.253353 
L 222.048721 163.575898 
L 222.112143 164.306323 
L 222.42925 176.840359 
L 222.556093 161.872188 
L 222.619514 163.575898 
L 222.809779 167.226637 
L 222.8732 168.078491 
L 222.936622 164.549645 
L 223.000043 165.158178 
L 223.126886 175.866612 
L 223.253729 165.522927 
L 223.317151 166.983316 
L 223.380572 165.401499 
L 223.507415 172.215873 
L 223.634258 163.69779 
L 223.761101 168.930346 
L 223.887944 158.221448 
L 223.951366 161.750759 
L 224.014787 168.078491 
L 224.331894 134.005232 
L 224.458737 135.58705 
L 224.522159 130.476386 
L 224.58558 131.936774 
L 225.346638 166.739995 
L 225.473481 165.036286 
L 225.536902 165.64482 
L 225.663745 168.443705 
L 225.727167 168.565133 
L 225.85401 180.855848 
L 225.980853 173.067728 
L 226.107696 178.665497 
L 226.234539 173.067728 
L 226.29796 173.311048 
L 226.424803 180.855848 
L 226.488225 177.205108 
L 226.551646 171.242589 
L 226.615068 175.136649 
L 226.678489 181.586274 
L 226.741911 181.22106 
L 226.868753 184.993229 
L 226.995596 165.036286 
L 227.122439 175.136649 
L 227.185861 166.00957 
L 227.249282 166.131462 
L 227.312704 176.353253 
L 227.376125 175.745183 
L 227.439547 169.29556 
L 227.502968 170.512163 
L 227.629811 177.692213 
L 227.693233 172.946299 
L 227.756654 174.093382 
L 228.073762 180.003993 
L 228.200605 168.808454 
L 228.327447 179.760672 
L 228.390869 176.961788 
L 228.517712 181.464382 
L 228.644555 174.406224 
L 228.834819 177.448429 
L 229.025084 181.586274 
L 229.088505 183.533304 
L 229.151927 182.194344 
L 229.342191 168.930346 
L 229.469034 182.559557 
L 229.532456 179.03071 
L 229.595877 178.665497 
L 229.659299 179.03071 
L 229.786141 164.549645 
L 229.849563 165.888141 
L 229.912984 169.416988 
L 229.976406 168.687025 
L 230.039827 164.914394 
L 230.103249 166.253353 
L 230.16667 169.660309 
L 230.230092 166.131462 
L 230.293513 167.469958 
L 230.356935 176.840359 
L 230.420356 174.650008 
L 230.483778 165.158178 
L 230.547199 165.522927 
L 230.737464 170.512163 
L 230.864307 161.507438 
L 231.054571 183.654732 
L 231.117993 179.760672 
L 231.181414 174.041474 
L 231.244835 176.597038 
L 231.308257 178.908817 
L 231.4351 165.766249 
L 231.688786 178.665497 
L 231.752207 178.178855 
L 231.815629 178.300284 
L 231.87905 180.369207 
L 232.005893 176.231825 
L 232.196158 179.517352 
L 232.259579 179.395923 
L 232.386422 180.855848 
L 232.513265 178.544068 
L 232.703529 179.395923 
L 232.766951 179.274031 
L 232.893794 189.252502 
L 232.957215 189.009182 
L 233.084058 180.97774 
L 233.14748 184.019946 
L 233.210901 181.951023 
L 233.274323 179.639244 
L 233.464587 191.321425 
L 233.654852 181.22106 
L 233.718273 182.438128 
L 234.03538 175.988504 
L 234.162223 190.590998 
L 234.225645 189.739144 
L 234.352488 179.152139 
L 234.479331 190.347678 
L 234.542752 180.612527 
L 234.606174 182.92477 
L 234.669595 197.040622 
L 234.733017 193.146562 
L 234.796438 180.369207 
L 234.85986 186.57551 
L 234.923281 193.146562 
L 235.050124 177.448429 
L 235.176967 194.241738 
L 235.240389 192.294707 
L 235.30381 189.617715 
L 235.430653 193.511775 
L 235.494074 192.781813 
L 235.557496 195.458805 
L 235.684339 184.385159 
L 235.811182 198.987653 
L 235.938025 191.564745 
L 236.001446 196.432089 
L 236.128289 180.491098 
L 236.191711 103.704605 
L 236.255132 117.090495 
L 236.318554 125.000044 
L 236.381975 120.132701 
L 236.445397 116.60339 
L 236.508818 118.550421 
L 236.57224 119.646059 
L 236.762504 106.990131 
L 236.825926 107.476773 
L 236.889347 108.085307 
L 237.01619 124.513403 
L 237.079611 123.053014 
L 237.269876 98.715369 
L 237.650405 133.883803 
L 237.777248 122.20116 
L 238.030934 147.391122 
L 238.094355 150.433328 
L 238.221198 146.66116 
L 238.474884 151.407075 
L 238.601727 150.798541 
L 238.72857 147.269693 
L 238.855413 152.502251 
L 238.982256 149.581473 
L 239.17252 153.110784 
L 239.299363 146.41784 
L 239.426206 169.660309 
L 239.553049 156.882952 
L 239.679892 174.528116 
L 239.743314 165.036286 
L 239.806735 166.00957 
L 239.933578 178.178855 
L 239.996999 172.459193 
L 240.060421 174.893329 
L 240.123842 175.988504 
L 240.187264 175.866612 
L 240.314107 189.982928 
L 240.44095 178.908817 
L 240.567793 182.68145 
L 240.8849 175.379971 
L 241.011743 199.109545 
L 241.075165 194.120309 
L 241.265429 181.342953 
L 241.32885 181.707703 
L 241.455693 197.527728 
L 241.645958 190.104357 
L 241.709379 191.078104 
L 241.772801 195.458805 
L 241.899644 189.131074 
L 241.963065 191.321425 
L 242.089908 177.205108 
L 242.216751 195.580697 
L 242.280173 191.321425 
L 242.407016 208.358054 
L 242.470437 204.220672 
L 242.59728 194.36363 
L 242.660701 196.675873 
L 242.977809 179.395923 
L 243.231495 205.80249 
L 243.294916 208.722804 
L 243.421759 221.865604 
L 243.548602 209.818442 
L 243.675445 225.151131 
L 244.055974 206.654344 
L 244.182817 194.36363 
L 244.246238 200.326612 
L 244.30966 224.299276 
L 244.373081 220.648537 
L 244.499924 227.950015 
L 244.563346 223.690974 
L 244.626767 224.542829 
L 244.690189 224.177616 
L 244.75361 220.892089 
L 244.817032 222.230586 
L 245.007296 226.368198 
L 245.070718 226.611519 
L 245.324404 216.998029 
L 245.514668 228.80187 
L 245.641511 213.833931 
L 245.704932 219.431701 
L 245.768354 226.85484 
L 245.831775 223.812635 
L 245.895197 224.055955 
L 245.958618 225.759665 
L 246.02204 221.257071 
L 246.085461 223.934295 
L 246.148883 229.653725 
L 246.212304 226.611519 
L 246.339147 223.812635 
L 246.46599 223.2041 
L 246.592833 221.743944 
L 246.783098 225.638004 
L 246.909941 208.358054 
L 246.973362 215.537641 
L 247.036783 229.410405 
L 247.100205 226.368198 
L 247.163626 218.579846 
L 247.227048 222.595798 
L 247.353891 229.897046 
L 247.544155 212.495435 
L 247.607577 218.458417 
L 247.670998 215.294319 
L 247.73442 206.775773 
L 247.797841 207.74952 
L 247.861263 211.64358 
L 247.924684 211.278367 
L 248.051527 208.844696 
L 248.114949 210.548405 
L 248.305213 192.4166 
L 248.368634 193.025134 
L 248.432056 195.458805 
L 248.558899 212.373543 
L 248.749163 194.606951 
L 249.002849 211.64358 
L 249.193114 191.686174 
L 249.256535 193.146562 
L 249.383378 194.606951 
L 249.510221 198.866224 
L 249.573643 197.405836 
L 249.637064 189.131074 
L 249.700486 189.495823 
L 249.827328 198.014369 
L 249.89075 193.025134 
L 249.954171 193.268454 
L 250.144436 195.458805 
L 250.207857 194.850272 
L 250.3347 178.787389 
L 250.398122 179.882564 
L 250.461543 184.506587 
L 250.524965 182.92477 
L 250.588386 180.247314 
L 250.651808 182.072915 
L 250.715229 183.411412 
L 250.778651 180.125885 
L 250.842072 181.707703 
L 250.905494 191.808066 
L 250.968915 191.321425 
L 251.032337 183.411412 
L 251.095758 187.427364 
L 251.222601 198.866224 
L 251.349444 187.548792 
L 251.412865 187.792114 
L 251.476287 190.590998 
L 251.539708 189.495823 
L 251.60313 190.347678 
L 251.729973 196.797302 
L 251.793394 196.188768 
L 251.856816 193.876989 
L 251.920237 195.093593 
L 251.983659 199.839508 
L 252.04708 197.527728 
L 252.110502 195.458805 
L 252.300766 206.289132 
L 252.364188 208.601375 
L 252.427609 146.539268 
L 252.491031 146.66116 
L 252.617874 153.840747 
L 252.744716 137.047438 
L 252.808138 147.513015 
L 252.871559 142.645207 
L 252.934981 129.137888 
L 253.061824 158.34334 
L 253.125245 149.338153 
L 253.188667 147.756336 
L 253.252088 162.237401 
L 253.31551 161.750759 
L 253.442353 145.200772 
L 253.569196 153.962639 
L 253.632617 153.475533 
L 253.696039 154.814494 
L 253.75946 154.692601 
L 253.822882 153.840747 
L 253.949725 148.729618 
L 254.076568 154.084068 
L 254.20341 149.824794 
L 254.266832 152.137037 
L 254.330253 151.285183 
L 254.393675 147.269693 
L 254.457096 147.391122 
L 254.520518 151.041862 
L 254.647361 135.100408 
L 254.710782 135.343728 
L 254.837625 152.380358 
L 254.901047 148.486298 
L 254.964468 152.137037 
L 255.02789 163.454469 
L 255.091311 162.724043 
L 255.154733 159.925158 
L 255.281576 180.491098 
L 255.408419 173.067728 
L 255.852369 247.78553 
L 255.979212 226.124646 
L 256.042633 227.706695 
L 256.106055 238.05038 
L 256.169476 234.764621 
L 256.296319 221.257071 
L 256.359741 223.934295 
L 256.486584 209.088016 
L 256.613427 223.325761 
L 256.676848 221.500391 
L 256.867113 226.85484 
L 256.930534 240.849264 
L 256.993955 238.902234 
L 257.120798 216.876137 
L 257.18422 226.976501 
L 257.247641 226.124646 
L 257.311063 223.082441 
L 257.374484 225.02947 
L 257.437906 224.786149 
L 257.564749 217.727991 
L 257.691592 209.574658 
L 257.945278 226.124646 
L 258.072121 207.019558 
L 258.135542 207.140987 
L 258.198964 212.008794 
L 258.262385 208.601375 
L 258.325807 208.236162 
L 258.516071 220.648537 
L 258.769757 205.80249 
L 258.833178 207.384307 
L 258.960021 204.463994 
L 259.023443 207.506199 
L 259.086864 205.680597 
L 259.150286 202.760284 
L 259.213707 203.976889 
L 259.403972 217.606563 
L 259.530815 200.448041 
L 259.657658 210.305084 
L 259.721079 201.543217 
L 259.784501 203.490247 
L 259.847922 212.617327 
L 259.911343 212.252114 
L 259.974765 207.384307 
L 260.038186 208.722804 
L 260.101608 208.966587 
L 260.165029 205.923919 
L 260.291872 212.495435 
L 260.60898 179.517352 
L 260.735823 173.43294 
L 260.862666 183.898053 
L 260.989509 176.718467 
L 261.116352 183.654732 
L 261.179773 178.787389 
L 261.243195 180.734419 
L 261.370037 195.580697 
L 261.433459 193.389883 
L 261.49688 197.771049 
L 261.560302 196.919194 
L 261.623723 187.548792 
L 261.687145 188.765861 
L 261.750566 199.9614 
L 261.813988 199.596186 
L 261.877409 196.188768 
L 262.004252 206.654344 
L 262.131095 189.009182 
L 262.194517 198.379583 
L 262.257938 194.728843 
L 262.32136 185.966975 
L 262.384781 191.564745 
L 262.448203 192.538029 
L 262.575046 177.448429 
L 262.701889 179.517352 
L 262.76531 178.908817 
L 262.828731 180.369207 
L 263.018996 198.622904 
L 263.145839 181.707703 
L 263.20926 182.072915 
L 263.272682 182.194344 
L 263.336103 182.802878 
L 263.399525 182.438128 
L 263.462946 180.247314 
L 263.526368 182.802878 
L 263.653211 205.437277 
L 263.716632 201.056575 
L 263.843475 179.03071 
L 263.906897 179.395923 
L 264.03374 170.877377 
L 264.160583 182.194344 
L 264.224004 180.491098 
L 264.350847 185.480334 
L 264.47769 178.544068 
L 264.604533 195.215485 
L 265.175326 128.772676 
L 265.492434 137.047438 
L 265.809541 179.517352 
L 265.936384 174.406224 
L 266.126648 180.734419 
L 266.253491 167.469958 
L 266.316913 173.067728 
L 266.380334 184.019946 
L 266.443756 180.003993 
L 266.507177 174.771437 
L 266.63402 182.802878 
L 266.697442 177.327 
L 266.824285 196.432089 
L 266.887706 194.485059 
L 266.951128 186.81883 
L 267.014549 191.199532 
L 267.07797 196.432089 
L 267.141392 194.241738 
L 267.204813 192.903242 
L 267.331656 209.574658 
L 267.395078 207.506199 
L 267.585342 174.528116 
L 267.648764 182.802878 
L 267.712185 197.405836 
L 267.775607 194.485059 
L 267.839028 187.184043 
L 267.965871 198.501012 
L 268.029293 196.553981 
L 268.092714 194.485059 
L 268.156136 195.945447 
L 268.219557 196.919194 
L 268.409822 194.780751 
L 268.600086 193.946509 
L 268.79035 173.919582 
L 268.917193 191.564745 
L 268.980615 184.8718 
L 269.044036 181.464382 
L 269.107458 187.305472 
L 269.234301 177.327 
L 269.297722 180.612527 
L 269.361144 179.274031 
L 269.424565 183.168091 
L 269.551408 196.919194 
L 269.61483 192.659921 
L 269.678251 194.972164 
L 269.741673 196.675873 
L 269.931937 175.014757 
L 269.995358 181.342953 
L 270.05878 189.739144 
L 270.122201 187.062151 
L 270.185623 183.046199 
L 270.249044 186.332189 
L 270.312466 185.358442 
L 270.375887 176.961788 
L 270.439309 177.570321 
L 270.566152 182.802878 
L 270.629573 182.194344 
L 270.756416 196.06734 
L 270.819838 190.46957 
L 270.883259 182.072915 
L 271.010102 198.014369 
L 271.136945 179.760672 
L 271.200367 181.342953 
L 271.263788 182.68145 
L 271.454052 165.158178 
L 271.517474 172.824406 
L 271.707738 191.686174 
L 271.77116 184.8718 
L 271.834581 182.194344 
L 271.898003 190.71289 
L 271.961424 185.845083 
L 272.024846 178.665497 
L 272.151689 192.173279 
L 272.21511 190.956211 
L 272.278532 195.215485 
L 272.405375 181.829595 
L 272.532218 195.945447 
L 272.595639 192.051387 
L 272.659061 190.347678 
L 272.785903 196.31066 
L 272.849325 194.120309 
L 272.912746 194.850272 
L 272.976168 194.485059 
L 273.039589 192.538029 
L 273.103011 194.36363 
L 273.166432 191.199532 
L 273.229854 182.194344 
L 273.293275 184.263267 
L 273.420118 197.040622 
L 273.48354 194.485059 
L 273.546961 197.649157 
L 273.673804 187.305472 
L 273.737226 191.321425 
L 273.800647 194.606951 
L 273.864069 192.659921 
L 273.92749 193.025134 
L 274.117755 199.9614 
L 274.244597 193.389883 
L 274.308019 193.998417 
L 274.37144 194.241738 
L 274.434862 193.146562 
L 274.561705 180.125885 
L 274.688548 191.686174 
L 274.751969 189.009182 
L 274.815391 187.670685 
L 274.878812 191.564745 
L 275.005655 181.342953 
L 275.069077 184.749908 
L 275.259341 193.025134 
L 275.322763 197.527728 
L 275.386184 197.162514 
L 275.449606 193.755097 
L 275.513027 195.215485 
L 275.576449 194.850272 
L 275.703291 188.279219 
L 275.830134 196.31066 
L 276.210663 177.205108 
L 276.274085 177.570321 
L 276.400928 182.68145 
L 276.527771 176.840359 
L 276.654614 186.088867 
L 276.718035 178.422176 
L 276.781457 178.665497 
L 276.9083 187.184043 
L 277.035143 181.22106 
L 277.161985 186.57551 
L 277.288828 180.003993 
L 277.35225 182.316236 
L 277.415671 181.099168 
L 277.479093 181.22106 
L 277.542514 183.776624 
L 277.605936 182.92477 
L 277.732779 174.771437 
L 277.859622 163.819218 
L 278.049886 180.247314 
L 278.240151 178.300284 
L 278.366994 166.861423 
L 278.493837 181.707703 
L 278.557258 180.734419 
L 278.684101 183.898053 
L 278.810944 178.908817 
L 279.06463 182.92477 
L 279.191473 179.03071 
L 279.254894 180.734419 
L 279.318316 179.639244 
L 279.381737 178.544068 
L 279.50858 180.369207 
L 279.635423 179.274031 
L 279.762266 180.125885 
L 279.889109 177.813642 
L 280.015952 182.194344 
L 280.142795 176.109933 
L 280.269638 190.71289 
L 280.333059 185.480334 
L 280.396481 181.342953 
L 280.523324 193.268454 
L 280.650167 180.855848 
L 280.713588 182.559557 
L 280.840431 195.093593 
L 280.903853 191.442853 
L 280.967274 189.131074 
L 281.22096 194.485059 
L 281.411224 180.247314 
L 281.474646 180.247314 
L 281.601489 194.241738 
L 281.66491 192.538029 
L 281.855175 184.993229 
L 281.918596 187.670685 
L 281.982018 195.824018 
L 282.045439 194.120309 
L 282.48939 178.787389 
L 282.552811 180.369207 
L 282.616233 179.760672 
L 282.679654 179.274031 
L 282.743076 180.97774 
L 282.806497 178.908817 
L 282.869918 180.247314 
L 282.996761 198.25769 
L 283.060183 194.728843 
L 283.123604 189.252502 
L 283.187026 191.078104 
L 283.250447 189.861036 
L 283.37729 177.205108 
L 283.504133 180.734419 
L 283.567555 177.448429 
L 283.694398 188.400647 
L 283.757819 186.696938 
L 283.821241 182.316236 
L 283.948084 198.135798 
L 284.011505 196.797302 
L 284.074927 192.173279 
L 284.138348 192.538029 
L 284.328612 197.649157 
L 284.518877 192.173279 
L 284.582298 193.268454 
L 284.64572 194.850272 
L 284.709141 194.728843 
L 284.835984 192.659921 
L 285.026249 213.103969 
L 285.08967 211.521688 
L 285.279935 198.135798 
L 285.343356 199.109545 
L 285.470199 208.966587 
L 285.533621 208.844696 
L 285.597042 205.437277 
L 285.660464 207.140987 
L 285.723885 210.305084 
L 285.850728 200.082828 
L 285.914149 202.151751 
L 286.104414 210.548405 
L 286.231257 203.368819 
L 286.3581 210.669834 
L 286.421521 206.897665 
L 286.484943 208.844696 
L 286.548364 210.669834 
L 286.611786 207.140987 
L 286.675207 207.384307 
L 286.738629 211.400259 
L 286.80205 209.818442 
L 286.865472 207.019558 
L 286.928893 207.627628 
L 287.055736 208.844696 
L 287.182579 204.342101 
L 287.309422 211.035047 
L 287.372843 207.992841 
L 287.499686 193.876989 
L 287.626529 211.521688 
L 287.689951 208.966587 
L 287.753372 206.167703 
L 287.880215 210.791726 
L 287.943637 210.183192 
L 288.007058 211.035047 
L 288.387587 199.230974 
L 288.451009 201.178004 
L 288.577851 207.019558 
L 288.641273 206.167703 
L 288.704694 206.532452 
L 288.831537 193.389883 
L 288.894959 195.093593 
L 288.95838 195.824018 
L 289.021802 194.606951 
L 289.148645 202.395072 
L 289.275488 193.268454 
L 289.529174 209.574658 
L 289.592595 206.775773 
L 289.719438 193.998417 
L 289.78286 194.606951 
L 289.846281 193.146562 
L 289.973124 198.014369 
L 290.036545 194.241738 
L 290.163388 203.368819 
L 290.22681 199.839508 
L 290.290231 193.876989 
L 290.353653 195.945447 
L 290.417074 197.162514 
L 290.480496 195.336913 
L 290.607339 199.109545 
L 290.734182 195.215485 
L 290.797603 197.405836 
L 290.924446 184.263267 
L 290.987868 188.157327 
L 291.051289 193.268454 
L 291.178132 180.612527 
L 291.241554 182.802878 
L 291.368397 187.670685 
L 291.431818 186.940259 
L 291.495239 187.792114 
L 291.558661 190.46957 
L 291.685504 185.480334 
L 291.812347 194.728843 
L 291.875768 191.199532 
L 291.93919 193.876989 
L 292.002611 193.511775 
L 292.066033 191.199532 
L 292.129454 191.442853 
L 292.192876 190.956211 
L 292.509983 196.675873 
L 292.636826 193.511775 
L 292.763669 197.283943 
L 292.953933 196.432089 
L 293.080776 173.18962 
L 293.207619 178.544068 
L 293.334462 163.819218 
L 293.397884 170.634056 
L 293.461305 167.713278 
L 293.524727 161.507438 
L 293.65157 180.97774 
L 293.778413 164.306323 
L 293.905256 179.639244 
L 294.032099 166.739995 
L 294.158942 180.855848 
L 294.222363 180.369207 
L 294.285785 177.08368 
L 294.349206 179.152139 
L 294.412627 181.707703 
L 294.53947 177.935535 
L 294.666313 182.68145 
L 294.793156 178.422176 
L 294.983421 181.829595 
L 295.046842 181.951023 
L 295.173685 183.776624 
L 295.300528 179.760672 
L 295.36395 181.829595 
L 295.427371 181.707703 
L 295.490793 179.517352 
L 295.554214 180.125885 
L 295.744479 186.332189 
L 295.871321 194.36363 
L 295.998164 187.548792 
L 296.315272 228.55855 
L 296.378693 226.002986 
L 296.442115 225.151131 
L 296.505536 228.80187 
L 296.568958 226.611519 
L 296.822644 217.119458 
L 296.886065 217.363242 
L 296.949487 219.066487 
L 297.07633 214.320573 
L 297.203172 226.611519 
L 297.266594 224.177616 
L 297.330015 223.2041 
L 297.456858 227.098161 
L 297.647123 225.638004 
L 297.773966 225.759665 
L 297.837387 226.85484 
L 297.900809 224.90781 
L 297.96423 226.246306 
L 298.027652 234.034659 
L 298.091073 233.669446 
L 298.217916 224.055955 
L 298.281338 227.219821 
L 298.344759 226.85484 
L 298.408181 225.881325 
L 298.471602 226.489859 
L 298.535024 226.611519 
L 298.661866 221.378731 
L 298.725288 222.717459 
L 299.042395 234.277979 
L 299.23266 226.002986 
L 299.296081 226.489859 
L 299.422924 223.447422 
L 299.549767 218.458417 
L 299.613189 220.040234 
L 299.740032 215.415748 
L 299.930296 226.246306 
L 299.993718 225.638004 
L 300.057139 222.473906 
L 300.12056 222.595798 
L 300.183982 226.002986 
L 300.247403 224.420937 
L 300.310825 219.18838 
L 300.374246 219.431701 
L 300.501089 224.786149 
L 300.691354 219.18838 
L 300.754775 217.727991 
L 300.818197 221.13541 
L 300.881618 219.310272 
L 301.008461 209.69655 
L 301.071883 213.34729 
L 301.262147 181.099168 
L 301.325569 182.438128 
L 301.38899 181.464382 
L 301.452412 181.586274 
L 301.515833 184.019946 
L 301.579254 181.586274 
L 301.706097 189.374394 
L 301.769519 186.453618 
L 301.83294 185.966975 
L 301.959783 196.432089 
L 302.023205 193.633668 
L 302.086626 195.336913 
L 302.150048 194.606951 
L 302.213469 189.009182 
L 302.276891 190.226249 
L 302.403734 207.871412 
L 302.467155 206.654344 
L 302.593998 198.379583 
L 302.65742 191.929958 
L 302.720841 193.389883 
L 302.784263 197.771049 
L 302.847684 196.432089 
L 302.911106 194.36363 
L 302.974527 195.580697 
L 303.037948 195.458805 
L 303.10137 193.998417 
L 303.164791 194.728843 
L 303.291634 191.686174 
L 303.355056 191.808066 
L 303.418477 193.755097 
L 303.54532 204.585423 
L 303.672163 193.389883 
L 303.735585 195.580697 
L 303.799006 192.903242 
L 303.862428 193.633668 
L 303.925849 202.273643 
L 303.989271 201.056575 
L 304.052692 193.755097 
L 304.116114 197.405836 
L 304.242957 207.871412 
L 304.306378 207.627628 
L 304.623485 182.072915 
L 304.877171 193.633668 
L 305.004014 190.71289 
L 305.130857 196.432089 
L 305.321122 190.104357 
L 305.638229 166.496674 
L 305.765072 163.332577 
L 305.828493 163.332577 
L 305.955336 170.512163 
L 306.018758 168.565133 
L 306.082179 165.279607 
L 306.399287 189.982928 
L 306.462708 185.237013 
L 306.52613 188.522539 
L 306.589551 195.093593 
L 306.652973 193.633668 
L 306.716394 192.173279 
L 306.779816 194.120309 
L 306.906659 192.173279 
L 306.97008 195.093593 
L 307.033502 194.36363 
L 307.096923 192.294707 
L 307.160345 193.146562 
L 307.287187 196.188768 
L 307.350609 195.336913 
L 307.41403 195.824018 
L 307.604295 197.405836 
L 307.667716 197.771049 
L 307.731138 195.093593 
L 307.794559 195.580697 
L 307.921402 210.183192 
L 307.984824 209.088016 
L 308.175088 191.078104 
L 308.365353 198.622904 
L 308.428774 194.606951 
L 308.492196 196.553981 
L 308.555617 200.569933 
L 308.68246 193.998417 
L 308.745881 196.675873 
L 308.809303 196.188768 
L 308.936146 193.789857 
L 309.189832 193.442255 
L 309.380096 179.639244 
L 309.506939 196.188768 
L 309.570361 193.389883 
L 309.697204 190.956211 
L 309.824047 181.951023 
L 309.887468 185.845083 
L 309.95089 182.559557 
L 310.014311 182.92477 
L 310.141154 189.982928 
L 310.204575 186.453618 
L 310.267997 186.81883 
L 310.331418 187.914006 
L 310.521683 180.003993 
L 310.711947 196.188768 
L 310.775369 194.728843 
L 310.83879 194.850272 
L 310.965633 178.300284 
L 311.029055 179.274031 
L 311.092476 187.062151 
L 311.155898 185.845083 
L 311.219319 180.612527 
L 311.282741 180.97774 
L 311.409584 183.533304 
L 311.473005 183.046199 
L 311.599848 184.263267 
L 311.790112 177.813642 
L 311.853534 180.491098 
L 311.916955 177.813642 
L 312.043798 167.105208 
L 312.234063 179.760672 
L 312.487749 185.480334 
L 312.614592 178.300284 
L 312.868278 194.36363 
L 312.931699 192.294707 
L 312.99512 192.538029 
L 313.058542 194.972164 
L 313.121963 194.485059 
L 313.185385 195.215485 
L 313.248806 197.771049 
L 313.312228 196.31066 
L 313.375649 194.606951 
L 313.502492 196.06734 
L 313.565914 194.36363 
L 313.629335 194.850272 
L 313.692757 196.06734 
L 313.756178 194.606951 
L 313.883021 188.643968 
L 314.009864 192.903242 
L 314.073286 193.146562 
L 314.136707 191.442853 
L 314.26355 180.97774 
L 314.390393 192.4166 
L 314.453814 188.400647 
L 314.580657 193.998417 
L 314.834343 185.601763 
L 314.961186 182.802878 
L 315.024608 182.92477 
L 315.088029 182.559557 
L 315.151451 180.97774 
L 315.278294 182.802878 
L 315.341715 180.612527 
L 315.405137 180.855848 
L 315.468558 184.506587 
L 315.53198 184.019946 
L 315.595401 183.046199 
L 315.722244 188.157327 
L 315.785666 187.305472 
L 315.849087 190.46957 
L 315.912508 188.887753 
L 315.97593 184.385159 
L 316.102773 192.051387 
L 316.229616 187.914006 
L 316.293037 192.173279 
L 316.356459 189.009182 
L 316.41988 185.723655 
L 316.546723 194.485059 
L 316.610145 192.903242 
L 316.736988 190.347678 
L 316.863831 180.003993 
L 316.990674 196.553981 
L 317.117517 190.104357 
L 317.24436 195.702126 
L 317.307781 189.982928 
L 317.371202 115.143465 
L 317.434624 128.286034 
L 317.498045 133.761911 
L 317.624888 115.630106 
L 317.68831 119.767488 
L 317.751731 120.254129 
L 317.941996 103.947926 
L 318.005417 103.826033 
L 318.13226 106.259705 
L 318.195682 109.667124 
L 318.259103 109.180483 
L 318.449368 78.757963 
L 318.512789 84.355732 
L 318.703054 103.339392 
L 318.766475 103.2175 
L 318.829896 105.894956 
L 318.956739 94.456096 
L 319.210425 133.761911 
L 319.273847 132.544844 
L 319.40069 119.037525 
L 319.654376 132.544844 
L 319.717797 130.719706 
L 319.84464 134.978979 
L 319.971483 128.772676 
L 320.098326 134.370446 
L 320.161748 132.666736 
L 320.225169 133.761911 
L 320.352012 138.142614 
L 320.478855 128.164143 
L 320.605698 152.015608 
L 320.732541 135.100408 
L 320.859384 156.761523 
L 320.922805 150.433328 
L 320.986227 151.285183 
L 321.049648 157.978128 
L 321.11307 155.909669 
L 321.239913 149.460045 
L 321.303334 149.338153 
L 321.430177 163.089255 
L 321.493599 159.925158 
L 321.620441 149.824794 
L 321.683863 150.3119 
L 321.937549 139.116361 
L 322.064392 135.100408 
L 322.191235 155.422564 
L 322.254656 151.163755 
L 322.318078 143.740383 
L 322.381499 147.02591 
L 322.444921 145.809305 
L 322.508342 148.851511 
L 322.635185 167.348529 
L 322.82545 148.97294 
L 322.952293 155.422564 
L 323.079135 149.824794 
L 323.142557 154.935923 
L 323.205978 151.650396 
L 323.2694 146.782589 
L 323.332821 149.824794 
L 323.459664 156.882952 
L 323.586507 169.53888 
L 323.649929 168.565133 
L 323.776772 159.925158 
L 323.840193 163.210684 
L 324.157301 146.052626 
L 324.220722 149.338153 
L 324.347565 163.089255 
L 324.410987 161.142226 
L 324.537829 178.787389 
L 324.601251 173.18962 
L 324.664672 163.089255 
L 324.728094 164.792965 
L 324.918358 177.813642 
L 324.98178 174.041474 
L 325.045201 174.162902 
L 325.108623 178.178855 
L 325.235466 146.052626 
L 325.298887 146.904481 
L 325.42573 138.385934 
L 325.615995 191.686174 
L 325.679416 195.336913 
L 325.806259 187.548792 
L 325.869681 188.887753 
L 325.996523 183.776624 
L 326.059945 185.723655 
L 326.250209 181.464382 
L 326.440474 161.99408 
L 326.567317 160.777012 
L 326.69416 178.665497 
L 326.821003 157.856699 
L 326.884424 161.99408 
L 326.947846 168.200384 
L 327.011267 165.279607 
L 327.13811 164.914394 
L 327.201532 160.777012 
L 327.264953 162.724043 
L 327.328375 168.808454 
L 327.391796 167.956599 
L 327.518639 160.168479 
L 327.645482 163.089255 
L 327.772325 159.316624 
L 327.899168 161.263655 
L 327.962589 163.94111 
L 328.089432 149.946687 
L 328.216275 169.904093 
L 328.279697 167.348529 
L 328.40654 160.898905 
L 328.533383 167.83517 
L 328.596804 165.766249 
L 328.723647 147.999656 
L 328.787068 150.920433 
L 328.85049 149.338153 
L 328.977333 129.745959 
L 329.104176 146.904481 
L 329.167597 144.71413 
L 329.231019 144.105596 
L 329.29444 144.592238 
L 329.421283 124.878616 
L 329.484705 125.000044 
L 329.611548 127.190859 
L 329.738391 135.830834 
L 329.801812 134.127125 
L 329.865234 131.449668 
L 329.928655 133.031949 
L 329.992077 134.127125 
L 330.11892 145.200772 
L 330.182341 144.71413 
L 330.372605 119.767488 
L 330.626291 128.650784 
L 330.689713 135.100408 
L 330.879977 117.94235 
L 330.943399 122.566373 
L 331.070242 117.090495 
L 331.133663 118.18567 
L 331.197085 120.254129 
L 331.260506 119.88938 
L 331.323928 119.88938 
L 331.387349 120.010809 
L 331.514192 105.043102 
L 331.704456 92.143853 
L 331.767878 89.22354 
L 331.894721 93.360921 
L 332.021564 88.979755 
L 332.084985 91.535319 
L 332.148407 91.291998 
L 332.211828 90.074931 
L 332.402093 107.233452 
L 332.465514 105.773064 
L 332.655779 94.820846 
L 332.782622 91.77864 
L 332.909465 106.50349 
L 332.972886 103.826033 
L 333.036308 103.947926 
L 333.16315 114.656359 
L 333.226572 113.561184 
L 333.480258 119.280846 
L 333.543679 116.968603 
L 333.607101 75.107224 
L 333.670522 77.662787 
L 333.733944 89.83161 
L 333.797365 86.667975 
L 333.860787 77.054253 
L 333.924208 78.636071 
L 334.051051 79.609818 
L 334.177894 89.466861 
L 334.241316 88.1279 
L 334.43158 98.593477 
L 334.495002 106.138276 
L 334.558423 102.852751 
L 334.685266 91.291998 
L 334.748687 92.265745 
L 334.938952 109.910444 
L 335.065795 92.265745 
L 335.129216 99.080119 
L 335.192638 109.302374 
L 335.319481 86.911297 
L 335.446324 110.032337 
L 335.509745 97.984944 
L 335.573167 98.228264 
L 335.70001 109.423803 
L 335.763431 107.598666 
L 335.890274 89.953502 
L 336.207381 130.476386 
L 336.270803 131.084919 
L 336.334224 135.2223 
L 336.524489 153.475533 
L 336.651332 168.443705 
L 337.158704 295.488 
L 337.285547 252.288124 
L 337.348968 259.832924 
L 337.539232 271.150123 
L 337.729497 260.319565 
L 337.792918 256.547165 
L 337.919761 280.155079 
L 337.983183 277.234534 
L 338.110026 255.208669 
L 338.173447 260.441226 
L 338.236869 271.150123 
L 338.363712 252.166464 
L 338.490555 264.457178 
L 338.553976 261.414741 
L 338.680819 266.038995 
L 338.871083 249.367579 
L 339.124769 262.631809 
L 339.188191 257.885894 
L 339.315034 237.441845 
L 339.441877 247.78553 
L 339.505298 244.378112 
L 339.632141 257.642341 
L 339.695563 257.034039 
L 339.885827 249.245919 
L 340.076092 234.277979 
L 340.139513 231.844076 
L 340.266356 238.2937 
L 340.329777 233.912767 
L 340.393199 234.39964 
L 340.520042 249.367579 
L 340.646885 228.071676 
L 340.710306 233.426124 
L 340.773728 242.917954 
L 340.837149 237.198525 
L 340.900571 234.886282 
L 340.963992 241.092585 
L 341.027414 239.754089 
L 341.154257 223.812635 
L 341.217678 224.542829 
L 341.2811 228.315229 
L 341.344521 225.638004 
L 341.407943 225.272792 
L 341.471364 229.653725 
L 341.598207 207.506199 
L 341.661629 217.119458 
L 341.788471 114.656359 
L 341.851893 107.720094 
L 341.915314 112.831222 
L 342.042157 124.878616 
L 342.105579 121.83641 
L 342.169 122.566373 
L 342.359265 136.92601 
L 342.422686 134.613766 
L 342.676372 153.110784 
L 342.803215 134.613766 
L 343.120323 168.078491 
L 343.247165 149.581473 
L 343.310587 152.623679 
L 343.374008 165.64482 
L 343.43743 163.819218 
L 343.500851 156.761523 
L 343.564273 163.210684 
L 343.627694 161.628867 
L 343.754537 147.634444 
L 343.817959 150.433328 
L 343.944802 147.02591 
L 344.198488 174.893329 
L 344.325331 161.020334 
L 344.579016 173.311048 
L 344.705859 171.48591 
L 344.832702 196.31066 
L 344.896124 195.702126 
L 345.022967 179.274031 
L 345.086388 181.951023 
L 345.213231 172.824406 
L 345.276653 175.501399 
L 345.340074 179.517352 
L 345.403496 177.813642 
L 345.466917 178.544068 
L 345.530339 182.802878 
L 345.59376 180.491098 
L 345.657182 179.152139 
L 345.784025 193.389883 
L 346.354818 67.562424 
L 346.671925 104.556459 
L 346.989033 154.570709 
L 347.179297 167.83517 
L 347.242719 168.321813 
L 347.369562 179.639244 
L 347.432983 177.327 
L 347.496404 180.491098 
L 347.623247 192.294707 
L 347.686669 190.71289 
L 347.813512 198.379583 
L 347.876933 195.824018 
L 348.003776 212.860648 
L 348.067198 209.574658 
L 348.130619 205.680597 
L 348.257462 211.400259 
L 348.320884 209.331337 
L 348.384305 209.45323 
L 348.57457 225.759665 
L 348.764834 188.035898 
L 348.828256 197.162514 
L 348.891677 209.939871 
L 348.955098 206.289132 
L 349.01852 201.056575 
L 349.145363 215.172427 
L 349.272206 205.315848 
L 349.399049 209.69655 
L 349.779578 201.299896 
L 349.842999 265.06548 
L 349.906421 258.494196 
L 349.969842 254.113493 
L 350.096685 274.55731 
L 350.160107 270.419929 
L 350.223528 269.446414 
L 350.28695 269.689735 
L 350.413792 259.22439 
L 350.477214 261.04976 
L 350.540635 259.589603 
L 350.667478 273.097153 
L 350.7309 272.123639 
L 350.794321 269.446414 
L 350.857743 270.054948 
L 350.921164 271.880086 
L 350.984586 268.351238 
L 351.111429 247.78553 
L 351.238272 263.726984 
L 351.301693 263.361771 
L 351.365115 263.605323 
L 351.428536 267.986026 
L 351.491958 265.674014 
L 351.555379 257.27736 
L 351.618801 257.764233 
L 351.809065 274.43565 
L 351.872486 273.705455 
L 352.062751 264.94382 
L 352.126172 268.594559 
L 352.189594 272.366959 
L 352.633544 244.500004 
L 352.760387 252.531445 
L 352.88723 260.441226 
L 353.014073 252.653105 
L 353.077495 256.912379 
L 353.204337 244.864985 
L 353.267759 248.272404 
L 353.458023 255.33033 
L 353.584866 253.748281 
L 353.711709 258.129214 
L 353.838552 252.288124 
L 353.965395 256.668826 
L 354.092238 248.150511 
L 354.15566 250.097773 
L 354.282503 254.843688 
L 354.472767 252.288124 
L 354.536189 252.409784 
L 354.663031 262.023274 
L 354.726453 261.536633 
L 354.853296 251.922911 
L 354.916717 256.547165 
L 354.980139 255.33033 
L 355.04356 253.383299 
L 355.170403 263.970305 
L 355.233825 263.240111 
L 355.360668 265.917335 
L 355.741197 249.73256 
L 355.804618 250.584415 
L 355.931461 260.319565 
L 355.994883 255.695311 
L 356.058304 258.737749 
L 356.121725 259.711263 
L 356.185147 255.57365 
L 356.31199 264.700499 
L 356.375411 261.29308 
L 356.502254 272.61028 
L 356.565676 268.594559 
L 356.629097 266.89085 
L 356.692519 270.54159 
L 356.819362 261.414741 
L 356.882783 262.388256 
L 357.073048 268.472899 
L 357.136469 270.054948 
L 357.199891 269.324753 
L 357.326734 264.578839 
L 357.390155 260.441226 
L 357.516998 272.001978 
L 357.580419 271.393444 
L 357.707262 260.197905 
L 357.834105 274.43565 
L 357.897527 262.99679 
L 357.960948 190.226249 
L 358.02437 198.622904 
L 358.087791 208.844696 
L 358.214634 191.564745 
L 358.278056 194.241738 
L 358.341477 196.31066 
L 358.595163 179.517352 
L 358.722006 192.4166 
L 358.785428 188.887753 
L 359.039113 159.925158 
L 359.102535 165.64482 
L 359.229378 178.787389 
L 359.292799 177.692213 
L 359.356221 177.692213 
L 359.419642 178.665497 
L 359.546485 164.062539 
L 359.800171 195.580697 
L 359.863593 191.199532 
L 359.990436 177.813642 
L 360.1807 187.548792 
L 360.244122 187.427364 
L 360.307543 183.654732 
L 360.434386 189.617715 
L 360.561229 179.152139 
L 360.62465 188.157327 
L 360.688072 185.845083 
L 360.751493 178.787389 
L 360.814915 179.274031 
L 360.941758 189.617715 
L 361.068601 177.935535 
L 361.195444 196.919194 
L 361.322287 185.601763 
L 361.44913 212.860648 
L 361.575973 194.606951 
L 361.702816 202.760284 
L 361.766237 193.633668 
L 361.829658 194.606951 
L 362.019923 199.839508 
L 362.083344 200.448041 
L 362.146766 195.336913 
L 362.210187 195.945447 
L 362.273609 196.432089 
L 362.463873 189.617715 
L 362.527295 184.263267 
L 362.590716 186.81883 
L 362.717559 193.633668 
L 362.780981 200.934683 
L 362.844402 195.824018 
L 362.907824 191.321425 
L 362.971245 197.405836 
L 363.034667 193.998417 
L 363.098088 194.36363 
L 363.16151 202.638392 
L 363.415195 164.427752 
L 363.478617 168.078491 
L 363.542038 176.353253 
L 363.60546 172.946299 
L 363.668881 173.311048 
L 363.732303 178.300284 
L 363.859146 168.200384 
L 364.112832 184.506587 
L 364.176253 192.538029 
L 364.239675 190.590998 
L 364.366518 179.274031 
L 364.429939 181.707703 
L 364.556782 170.634056 
L 364.683625 179.882564 
L 364.747046 176.231825 
L 364.810468 176.353253 
L 364.873889 182.072915 
L 364.937311 181.951023 
L 365.000732 180.491098 
L 365.127575 195.093593 
L 365.31784 178.665497 
L 365.444683 191.321425 
L 365.508104 196.31066 
L 365.634947 188.279219 
L 365.698369 196.919194 
L 365.76179 191.686174 
L 365.888633 178.787389 
L 366.269162 199.352866 
L 366.332583 196.31066 
L 366.522848 178.787389 
L 366.713112 191.808066 
L 366.776534 189.495823 
L 367.03022 166.00957 
L 367.093641 166.374782 
L 367.283906 187.305472 
L 367.410749 174.893329 
L 367.47417 178.300284 
L 367.537592 180.003993 
L 367.601013 178.300284 
L 367.727856 180.97774 
L 367.791277 177.813642 
L 367.91812 192.051387 
L 367.981542 189.739144 
L 368.108385 179.152139 
L 368.171806 180.125885 
L 368.235228 178.178855 
L 368.298649 178.665497 
L 368.362071 180.612527 
L 368.488914 178.056963 
L 368.552335 178.665497 
L 368.679178 164.427752 
L 368.806021 184.8718 
L 368.869443 182.559557 
L 368.932864 177.205108 
L 368.996285 178.422176 
L 369.123128 182.559557 
L 369.376814 175.258078 
L 369.503657 162.967363 
L 369.567079 163.210684 
L 369.820765 178.056963 
L 369.884186 175.501399 
L 370.011029 159.925158 
L 370.074451 160.04705 
L 370.137872 159.681838 
L 370.264715 168.200384 
L 370.391558 166.983316 
L 370.454979 168.808454 
L 370.518401 168.321813 
L 370.581822 167.59185 
L 370.708665 182.072915 
L 370.772087 177.327 
L 370.89893 160.655584 
L 370.962351 161.020334 
L 371.025773 160.290371 
L 371.152616 165.401499 
L 371.216037 163.332577 
L 371.279459 163.69779 
L 371.34288 166.374782 
L 371.469723 160.290371 
L 371.596566 165.888141 
L 371.659988 163.210684 
L 371.786831 168.200384 
L 371.850252 166.374782 
L 371.913673 164.184431 
L 371.977095 166.00957 
L 372.040516 164.306323 
L 372.167359 144.71413 
L 372.230781 146.052626 
L 372.294202 148.486298 
L 372.357624 147.269693 
L 372.421045 147.269693 
L 372.484467 147.02591 
L 372.738153 151.528504 
L 372.801574 149.094832 
L 372.864996 150.798541 
L 372.991839 167.469958 
L 373.05526 165.036286 
L 373.118682 160.412263 
L 373.182103 161.628867 
L 373.245525 163.575898 
L 373.372367 159.80373 
L 373.49921 165.64482 
L 373.562632 164.062539 
L 373.626053 164.914394 
L 373.752896 172.094444 
L 373.816318 170.999268 
L 373.943161 177.327 
L 374.006582 176.961788 
L 374.070004 177.692213 
L 374.133425 180.003993 
L 374.196847 187.792114 
L 374.260268 173.067728 
L 374.387111 203.976889 
L 374.450533 191.442853 
L 374.513954 183.533304 
L 374.577376 193.633668 
L 374.704219 179.274031 
L 374.831061 203.612139 
L 374.894483 189.861036 
L 374.957904 190.590998 
L 375.021326 197.283943 
L 375.21159 172.094444 
L 375.275012 185.115121 
L 375.338433 205.680597 
L 375.401855 197.649157 
L 375.465276 180.734419 
L 375.528698 187.184043 
L 375.592119 203.003605 
L 375.655541 196.06734 
L 375.718962 178.422176 
L 375.782384 182.92477 
L 375.845805 197.771049 
L 375.909227 195.824018 
L 375.972648 191.199532 
L 376.03607 196.432089 
L 376.099491 194.850272 
L 376.162913 188.279219 
L 376.226334 190.104357 
L 376.289755 193.268454 
L 376.416598 176.718467 
L 376.48002 179.882564 
L 376.543441 193.633668 
L 376.606863 189.495823 
L 376.670284 180.369207 
L 376.797127 196.919194 
L 376.860549 188.765861 
L 376.92397 190.834782 
L 376.987392 194.485059 
L 377.114235 173.43294 
L 377.177656 174.771437 
L 377.431342 255.938863 
L 377.621606 287.213238 
L 377.811871 271.880086 
L 377.938714 250.827735 
L 378.065557 268.107686 
L 378.255821 237.563506 
L 378.382664 281.371916 
L 378.446086 272.853601 
L 378.509507 251.314609 
L 378.572929 256.425505 
L 378.63635 265.552354 
L 378.699772 260.806439 
L 378.826615 267.134171 
L 378.953458 251.80125 
L 379.016879 253.991834 
L 379.270565 267.621044 
L 379.333986 262.023274 
L 379.460829 250.462754 
L 379.524251 251.80125 
L 379.651094 250.827735 
L 379.714515 251.55793 
L 379.90478 236.468331 
L 379.968201 240.362391 
L 380.031623 238.05038 
L 380.095044 237.320186 
L 380.221887 254.721795 
L 380.34873 242.674634 
L 380.412152 247.420549 
L 380.475573 246.325373 
L 380.602416 240.24073 
L 380.665837 239.145555 
L 380.729259 240.727603 
L 380.856102 246.690355 
L 380.919523 243.648149 
L 380.982945 244.01313 
L 381.109788 256.790718 
L 381.173209 252.044803 
L 381.300052 240.605943 
L 381.426895 246.447034 
L 381.553738 243.526489 
L 381.61716 246.447034 
L 381.680581 245.8385 
L 381.807424 236.103349 
L 381.870846 240.484051 
L 381.934267 239.145555 
L 382.06111 243.526489 
L 382.251374 222.83912 
L 382.314796 160.777012 
L 382.378217 161.142226 
L 382.441639 157.734807 
L 382.50506 159.925158 
L 382.568482 164.792965 
L 382.631903 164.062539 
L 382.758746 160.290371 
L 383.012432 164.427752 
L 383.202697 178.665497 
L 383.266118 178.056963 
L 383.392961 158.34334 
L 383.456382 166.131462 
L 383.583225 182.802878 
L 383.646647 177.813642 
L 383.710068 183.289983 
L 383.77349 179.03071 
L 383.836911 163.819218 
L 383.900333 167.105208 
L 383.963754 180.855848 
L 384.027176 178.544068 
L 384.090597 172.459193 
L 384.154019 176.961788 
L 384.471126 163.454469 
L 384.534548 163.94111 
L 384.724812 182.802878 
L 384.788233 181.707703 
L 384.851655 171.972552 
L 384.915076 172.337765 
L 384.978498 179.152139 
L 385.041919 178.178855 
L 385.105341 176.597038 
L 385.168762 178.178855 
L 385.295605 167.956599 
L 385.422448 184.8718 
L 385.48587 180.734419 
L 385.802977 162.967363 
L 385.92982 167.105208 
L 386.056663 177.813642 
L 386.120085 176.597038 
L 386.183506 168.443705 
L 386.246927 168.808454 
L 386.37377 185.723655 
L 386.627456 126.460433 
L 386.881142 53.568 
L 386.944564 54.663175 
L 387.071407 72.308338 
L 387.451936 150.798541 
L 387.578779 152.623679 
L 387.832464 168.443705 
L 387.895886 169.660309 
L 388.149572 186.088867 
L 388.212993 186.453618 
L 388.276415 178.178855 
L 388.339836 183.776624 
L 388.403258 195.580697 
L 388.466679 194.728843 
L 388.530101 192.051387 
L 388.593522 196.31066 
L 388.656944 196.188768 
L 388.720365 192.781813 
L 388.783787 194.36363 
L 388.847208 195.702126 
L 388.91063 193.998417 
L 388.974051 194.606951 
L 389.164315 210.791726 
L 389.227737 204.463994 
L 389.35458 178.787389 
L 389.481423 197.771049 
L 389.544844 194.850272 
L 389.608266 191.686174 
L 389.671687 193.876989 
L 389.735109 194.972164 
L 389.861952 188.887753 
L 389.988795 195.458805 
L 390.052216 192.659921 
L 390.115638 192.851333 
L 390.369324 193.616056 
L 390.559588 165.401499 
L 390.686431 184.385159 
L 390.813274 178.178855 
L 390.876695 180.612527 
L 391.003538 174.162902 
L 391.257224 181.586274 
L 391.384067 175.623292 
L 391.447489 177.327 
L 391.51091 179.760672 
L 391.701175 161.99408 
L 391.891439 182.072915 
L 391.954861 178.300284 
L 392.018282 180.734419 
L 392.081703 175.866612 
L 392.145125 161.872188 
L 392.208546 162.967363 
L 392.335389 176.718467 
L 392.398811 173.919582 
L 392.462232 175.379971 
L 392.525654 177.448429 
L 392.589075 175.988504 
L 392.652497 176.353253 
L 392.77934 181.707703 
L 392.906183 167.469958 
L 392.969604 168.687025 
L 393.033026 174.893329 
L 393.096447 170.999268 
L 393.22329 160.898905 
L 393.413554 181.22106 
L 393.476976 179.517352 
L 393.540397 175.014757 
L 393.603819 177.570321 
L 393.66724 180.855848 
L 393.794083 161.142226 
L 393.920926 177.935535 
L 393.984348 176.353253 
L 394.111191 179.152139 
L 394.174612 177.692213 
L 394.238034 178.665497 
L 394.555141 183.533304 
L 394.745406 176.840359 
L 394.872248 182.802878 
L 394.999091 165.401499 
L 395.125934 180.369207 
L 395.189356 178.908817 
L 395.252777 179.03071 
L 395.316199 180.369207 
L 395.37962 174.284795 
L 395.443042 174.528116 
L 395.506463 180.003993 
L 395.633306 169.782201 
L 395.760149 182.559557 
L 395.886992 176.961788 
L 395.950414 180.734419 
L 396.077257 172.459193 
L 396.140678 177.692213 
L 396.2041 177.327 
L 396.330942 161.628867 
L 396.64805 177.205108 
L 396.711471 177.935535 
L 396.774893 177.205108 
L 396.901736 178.908817 
L 396.965157 177.935535 
L 397.092 182.92477 
L 397.218843 175.501399 
L 397.282265 177.813642 
L 397.345686 179.03071 
L 397.472529 167.713278 
L 397.599372 179.760672 
L 397.662794 178.422176 
L 397.789636 180.247314 
L 397.916479 178.665497 
L 398.043322 168.687025 
L 398.170165 181.707703 
L 398.233587 176.961788 
L 398.297008 177.08368 
L 398.423851 180.612527 
L 398.487273 176.597038 
L 398.487273 176.597038 
" clip-path="url(#pd80ff73474)" style="fill: none; stroke: #1f77b4; stroke-width: 1.5; stroke-linecap: square"/>
   </g>
   <g id="patch_3">
    <path d="M 57.6 307.584 
L 57.6 41.472 
" style="fill: none; stroke: #000000; stroke-width: 0.8; stroke-linejoin: miter; stroke-linecap: square"/>
   </g>
   <g id="patch_4">
    <path d="M 414.72 307.584 
L 414.72 41.472 
" style="fill: none; stroke: #000000; stroke-width: 0.8; stroke-linejoin: miter; stroke-linecap: square"/>
   </g>
   <g id="patch_5">
    <path d="M 57.6 307.584 
L 414.72 307.584 
" style="fill: none; stroke: #000000; stroke-width: 0.8; stroke-linejoin: miter; stroke-linecap: square"/>
   </g>
   <g id="patch_6">
    <path d="M 57.6 41.472 
L 414.72 41.472 
" style="fill: none; stroke: #000000; stroke-width: 0.8; stroke-linejoin: miter; stroke-linecap: square"/>
   </g>
   <g id="legend_1">
    <g id="patch_7">
     <path d="M 64.6 64.150125 
L 118.245312 64.150125 
Q 120.245312 64.150125 120.245312 62.150125 
L 120.245312 48.472 
Q 120.245312 46.472 118.245312 46.472 
L 64.6 46.472 
Q 62.6 46.472 62.6 48.472 
L 62.6 62.150125 
Q 62.6 64.150125 64.6 64.150125 
z
" style="fill: #ffffff; opacity: 0.8; stroke: #cccccc; stroke-linejoin: miter"/>
    </g>
    <g id="line2d_13">
     <path d="M 66.6 54.570438 
L 76.6 54.570438 
L 86.6 54.570438 
" style="fill: none; stroke: #1f77b4; stroke-width: 1.5; stroke-linecap: square"/>
    </g>
    <g id="text_12">
     <!-- set2 -->
     <g transform="translate(94.6 58.070438)scale(0.1 -0.1)">
      <defs>
       <path id="DejaVuSans-73" d="M 2834 3397 
L 2834 2853 
Q 2591 2978 2328 3040 
Q 2066 3103 1784 3103 
Q 1356 3103 1142 2972 
Q 928 2841 928 2578 
Q 928 2378 1081 2264 
Q 1234 2150 1697 2047 
L 1894 2003 
Q 2506 1872 2764 1633 
Q 3022 1394 3022 966 
Q 3022 478 2636 193 
Q 2250 -91 1575 -91 
Q 1294 -91 989 -36 
Q 684 19 347 128 
L 347 722 
Q 666 556 975 473 
Q 1284 391 1588 391 
Q 1994 391 2212 530 
Q 2431 669 2431 922 
Q 2431 1156 2273 1281 
Q 2116 1406 1581 1522 
L 1381 1569 
Q 847 1681 609 1914 
Q 372 2147 372 2553 
Q 372 3047 722 3315 
Q 1072 3584 1716 3584 
Q 2034 3584 2315 3537 
Q 2597 3491 2834 3397 
z
" transform="scale(0.015625)"/>
       <path id="DejaVuSans-65" d="M 3597 1894 
L 3597 1613 
L 953 1613 
Q 991 1019 1311 708 
Q 1631 397 2203 397 
Q 2534 397 2845 478 
Q 3156 559 3463 722 
L 3463 178 
Q 3153 47 2828 -22 
Q 2503 -91 2169 -91 
Q 1331 -91 842 396 
Q 353 884 353 1716 
Q 353 2575 817 3079 
Q 1281 3584 2069 3584 
Q 2775 3584 3186 3129 
Q 3597 2675 3597 1894 
z
M 3022 2063 
Q 3016 2534 2758 2815 
Q 2500 3097 2075 3097 
Q 1594 3097 1305 2825 
Q 1016 2553 972 2059 
L 3022 2063 
z
" transform="scale(0.015625)"/>
       <path id="DejaVuSans-74" d="M 1172 4494 
L 1172 3500 
L 2356 3500 
L 2356 3053 
L 1172 3053 
L 1172 1153 
Q 1172 725 1289 603 
Q 1406 481 1766 481 
L 2356 481 
L 2356 0 
L 1766 0 
Q 1100 0 847 248 
Q 594 497 594 1153 
L 594 3053 
L 172 3053 
L 172 3500 
L 594 3500 
L 594 4494 
L 1172 4494 
z
" transform="scale(0.015625)"/>
      </defs>
      <use xlink:href="#DejaVuSans-73"/>
      <use xlink:href="#DejaVuSans-65" x="52.099609"/>
      <use xlink:href="#DejaVuSans-74" x="113.623047"/>
      <use xlink:href="#DejaVuSans-32" x="152.832031"/>
     </g>
    </g>
   </g>
  </g>
 </g>
 <defs>
  <clipPath id="pd80ff73474">
   <rect x="57.6" y="41.472" width="357.12" height="266.112"/>
  </clipPath>
 </defs>
</svg>
