<?xml version="1.0" encoding="utf-8" standalone="no"?>
<!DOCTYPE svg PUBLIC "-//W3C//DTD SVG 1.1//EN"
  "http://www.w3.org/Graphics/SVG/1.1/DTD/svg11.dtd">
<svg xmlns:xlink="http://www.w3.org/1999/xlink" width="460.8pt" height="345.6pt" viewBox="0 0 460.8 345.6" xmlns="http://www.w3.org/2000/svg" version="1.1">
 <metadata>
  <rdf:RDF xmlns:dc="http://purl.org/dc/elements/1.1/" xmlns:cc="http://creativecommons.org/ns#" xmlns:rdf="http://www.w3.org/1999/02/22-rdf-syntax-ns#">
   <cc:Work>
    <dc:type rdf:resource="http://purl.org/dc/dcmitype/StillImage"/>
    <dc:date>2022-08-11T15:18:07.502892</dc:date>
    <dc:format>image/svg+xml</dc:format>
    <dc:creator>
     <cc:Agent>
      <dc:title>Matplotlib v3.5.2, https://matplotlib.org/</dc:title>
     </cc:Agent>
    </dc:creator>
   </cc:Work>
  </rdf:RDF>
 </metadata>
 <defs>
  <style type="text/css">*{stroke-linejoin: round; stroke-linecap: butt}</style>
 </defs>
 <g id="figure_1">
  <g id="patch_1">
   <path d="M 0 345.6 
L 460.8 345.6 
L 460.8 0 
L 0 0 
z
" style="fill: #ffffff"/>
  </g>
  <g id="axes_1">
   <g id="patch_2">
    <path d="M 57.6 307.584 
L 414.72 307.584 
L 414.72 41.472 
L 57.6 41.472 
z
" style="fill: #ffffff"/>
   </g>
   <g id="matplotlib.axis_1">
    <g id="xtick_1">
     <g id="line2d_1">
      <defs>
       <path id="m92c38e6c2b" d="M 0 0 
L 0 3.5 
" style="stroke: #000000; stroke-width: 0.8"/>
      </defs>
      <g>
       <use xlink:href="#m92c38e6c2b" x="73.832727" y="307.584" style="stroke: #000000; stroke-width: 0.8"/>
      </g>
     </g>
     <g id="text_1">
      <!-- 0 -->
      <g transform="translate(70.651477 322.182437)scale(0.1 -0.1)">
       <defs>
        <path id="DejaVuSans-30" d="M 2034 4250 
Q 1547 4250 1301 3770 
Q 1056 3291 1056 2328 
Q 1056 1369 1301 889 
Q 1547 409 2034 409 
Q 2525 409 2770 889 
Q 3016 1369 3016 2328 
Q 3016 3291 2770 3770 
Q 2525 4250 2034 4250 
z
M 2034 4750 
Q 2819 4750 3233 4129 
Q 3647 3509 3647 2328 
Q 3647 1150 3233 529 
Q 2819 -91 2034 -91 
Q 1250 -91 836 529 
Q 422 1150 422 2328 
Q 422 3509 836 4129 
Q 1250 4750 2034 4750 
z
" transform="scale(0.015625)"/>
       </defs>
       <use xlink:href="#DejaVuSans-30"/>
      </g>
     </g>
    </g>
    <g id="xtick_2">
     <g id="line2d_2">
      <g>
       <use xlink:href="#m92c38e6c2b" x="118.936165" y="307.584" style="stroke: #000000; stroke-width: 0.8"/>
      </g>
     </g>
     <g id="text_2">
      <!-- 500 -->
      <g transform="translate(109.392415 322.182437)scale(0.1 -0.1)">
       <defs>
        <path id="DejaVuSans-35" d="M 691 4666 
L 3169 4666 
L 3169 4134 
L 1269 4134 
L 1269 2991 
Q 1406 3038 1543 3061 
Q 1681 3084 1819 3084 
Q 2600 3084 3056 2656 
Q 3513 2228 3513 1497 
Q 3513 744 3044 326 
Q 2575 -91 1722 -91 
Q 1428 -91 1123 -41 
Q 819 9 494 109 
L 494 744 
Q 775 591 1075 516 
Q 1375 441 1709 441 
Q 2250 441 2565 725 
Q 2881 1009 2881 1497 
Q 2881 1984 2565 2268 
Q 2250 2553 1709 2553 
Q 1456 2553 1204 2497 
Q 953 2441 691 2322 
L 691 4666 
z
" transform="scale(0.015625)"/>
       </defs>
       <use xlink:href="#DejaVuSans-35"/>
       <use xlink:href="#DejaVuSans-30" x="63.623047"/>
       <use xlink:href="#DejaVuSans-30" x="127.246094"/>
      </g>
     </g>
    </g>
    <g id="xtick_3">
     <g id="line2d_3">
      <g>
       <use xlink:href="#m92c38e6c2b" x="164.039603" y="307.584" style="stroke: #000000; stroke-width: 0.8"/>
      </g>
     </g>
     <g id="text_3">
      <!-- 1000 -->
      <g transform="translate(151.314603 322.182437)scale(0.1 -0.1)">
       <defs>
        <path id="DejaVuSans-31" d="M 794 531 
L 1825 531 
L 1825 4091 
L 703 3866 
L 703 4441 
L 1819 4666 
L 2450 4666 
L 2450 531 
L 3481 531 
L 3481 0 
L 794 0 
L 794 531 
z
" transform="scale(0.015625)"/>
       </defs>
       <use xlink:href="#DejaVuSans-31"/>
       <use xlink:href="#DejaVuSans-30" x="63.623047"/>
       <use xlink:href="#DejaVuSans-30" x="127.246094"/>
       <use xlink:href="#DejaVuSans-30" x="190.869141"/>
      </g>
     </g>
    </g>
    <g id="xtick_4">
     <g id="line2d_4">
      <g>
       <use xlink:href="#m92c38e6c2b" x="209.143041" y="307.584" style="stroke: #000000; stroke-width: 0.8"/>
      </g>
     </g>
     <g id="text_4">
      <!-- 1500 -->
      <g transform="translate(196.418041 322.182437)scale(0.1 -0.1)">
       <use xlink:href="#DejaVuSans-31"/>
       <use xlink:href="#DejaVuSans-35" x="63.623047"/>
       <use xlink:href="#DejaVuSans-30" x="127.246094"/>
       <use xlink:href="#DejaVuSans-30" x="190.869141"/>
      </g>
     </g>
    </g>
    <g id="xtick_5">
     <g id="line2d_5">
      <g>
       <use xlink:href="#m92c38e6c2b" x="254.246479" y="307.584" style="stroke: #000000; stroke-width: 0.8"/>
      </g>
     </g>
     <g id="text_5">
      <!-- 2000 -->
      <g transform="translate(241.521479 322.182437)scale(0.1 -0.1)">
       <defs>
        <path id="DejaVuSans-32" d="M 1228 531 
L 3431 531 
L 3431 0 
L 469 0 
L 469 531 
Q 828 903 1448 1529 
Q 2069 2156 2228 2338 
Q 2531 2678 2651 2914 
Q 2772 3150 2772 3378 
Q 2772 3750 2511 3984 
Q 2250 4219 1831 4219 
Q 1534 4219 1204 4116 
Q 875 4013 500 3803 
L 500 4441 
Q 881 4594 1212 4672 
Q 1544 4750 1819 4750 
Q 2544 4750 2975 4387 
Q 3406 4025 3406 3419 
Q 3406 3131 3298 2873 
Q 3191 2616 2906 2266 
Q 2828 2175 2409 1742 
Q 1991 1309 1228 531 
z
" transform="scale(0.015625)"/>
       </defs>
       <use xlink:href="#DejaVuSans-32"/>
       <use xlink:href="#DejaVuSans-30" x="63.623047"/>
       <use xlink:href="#DejaVuSans-30" x="127.246094"/>
       <use xlink:href="#DejaVuSans-30" x="190.869141"/>
      </g>
     </g>
    </g>
    <g id="xtick_6">
     <g id="line2d_6">
      <g>
       <use xlink:href="#m92c38e6c2b" x="299.349916" y="307.584" style="stroke: #000000; stroke-width: 0.8"/>
      </g>
     </g>
     <g id="text_6">
      <!-- 2500 -->
      <g transform="translate(286.624916 322.182437)scale(0.1 -0.1)">
       <use xlink:href="#DejaVuSans-32"/>
       <use xlink:href="#DejaVuSans-35" x="63.623047"/>
       <use xlink:href="#DejaVuSans-30" x="127.246094"/>
       <use xlink:href="#DejaVuSans-30" x="190.869141"/>
      </g>
     </g>
    </g>
    <g id="xtick_7">
     <g id="line2d_7">
      <g>
       <use xlink:href="#m92c38e6c2b" x="344.453354" y="307.584" style="stroke: #000000; stroke-width: 0.8"/>
      </g>
     </g>
     <g id="text_7">
      <!-- 3000 -->
      <g transform="translate(331.728354 322.182437)scale(0.1 -0.1)">
       <defs>
        <path id="DejaVuSans-33" d="M 2597 2516 
Q 3050 2419 3304 2112 
Q 3559 1806 3559 1356 
Q 3559 666 3084 287 
Q 2609 -91 1734 -91 
Q 1441 -91 1130 -33 
Q 819 25 488 141 
L 488 750 
Q 750 597 1062 519 
Q 1375 441 1716 441 
Q 2309 441 2620 675 
Q 2931 909 2931 1356 
Q 2931 1769 2642 2001 
Q 2353 2234 1838 2234 
L 1294 2234 
L 1294 2753 
L 1863 2753 
Q 2328 2753 2575 2939 
Q 2822 3125 2822 3475 
Q 2822 3834 2567 4026 
Q 2313 4219 1838 4219 
Q 1578 4219 1281 4162 
Q 984 4106 628 3988 
L 628 4550 
Q 988 4650 1302 4700 
Q 1616 4750 1894 4750 
Q 2613 4750 3031 4423 
Q 3450 4097 3450 3541 
Q 3450 3153 3228 2886 
Q 3006 2619 2597 2516 
z
" transform="scale(0.015625)"/>
       </defs>
       <use xlink:href="#DejaVuSans-33"/>
       <use xlink:href="#DejaVuSans-30" x="63.623047"/>
       <use xlink:href="#DejaVuSans-30" x="127.246094"/>
       <use xlink:href="#DejaVuSans-30" x="190.869141"/>
      </g>
     </g>
    </g>
    <g id="xtick_8">
     <g id="line2d_8">
      <g>
       <use xlink:href="#m92c38e6c2b" x="389.556792" y="307.584" style="stroke: #000000; stroke-width: 0.8"/>
      </g>
     </g>
     <g id="text_8">
      <!-- 3500 -->
      <g transform="translate(376.831792 322.182437)scale(0.1 -0.1)">
       <use xlink:href="#DejaVuSans-33"/>
       <use xlink:href="#DejaVuSans-35" x="63.623047"/>
       <use xlink:href="#DejaVuSans-30" x="127.246094"/>
       <use xlink:href="#DejaVuSans-30" x="190.869141"/>
      </g>
     </g>
    </g>
   </g>
   <g id="matplotlib.axis_2">
    <g id="ytick_1">
     <g id="line2d_9">
      <defs>
       <path id="mcaa8178b74" d="M 0 0 
L -3.5 0 
" style="stroke: #000000; stroke-width: 0.8"/>
      </defs>
      <g>
       <use xlink:href="#mcaa8178b74" x="57.6" y="272.128832" style="stroke: #000000; stroke-width: 0.8"/>
      </g>
     </g>
     <g id="text_9">
      <!-- 4000 -->
      <g transform="translate(25.15 275.92805)scale(0.1 -0.1)">
       <defs>
        <path id="DejaVuSans-34" d="M 2419 4116 
L 825 1625 
L 2419 1625 
L 2419 4116 
z
M 2253 4666 
L 3047 4666 
L 3047 1625 
L 3713 1625 
L 3713 1100 
L 3047 1100 
L 3047 0 
L 2419 0 
L 2419 1100 
L 313 1100 
L 313 1709 
L 2253 4666 
z
" transform="scale(0.015625)"/>
       </defs>
       <use xlink:href="#DejaVuSans-34"/>
       <use xlink:href="#DejaVuSans-30" x="63.623047"/>
       <use xlink:href="#DejaVuSans-30" x="127.246094"/>
       <use xlink:href="#DejaVuSans-30" x="190.869141"/>
      </g>
     </g>
    </g>
    <g id="ytick_2">
     <g id="line2d_10">
      <g>
       <use xlink:href="#mcaa8178b74" x="57.6" y="233.689729" style="stroke: #000000; stroke-width: 0.8"/>
      </g>
     </g>
     <g id="text_10">
      <!-- 4100 -->
      <g transform="translate(25.15 237.488948)scale(0.1 -0.1)">
       <use xlink:href="#DejaVuSans-34"/>
       <use xlink:href="#DejaVuSans-31" x="63.623047"/>
       <use xlink:href="#DejaVuSans-30" x="127.246094"/>
       <use xlink:href="#DejaVuSans-30" x="190.869141"/>
      </g>
     </g>
    </g>
    <g id="ytick_3">
     <g id="line2d_11">
      <g>
       <use xlink:href="#mcaa8178b74" x="57.6" y="195.250627" style="stroke: #000000; stroke-width: 0.8"/>
      </g>
     </g>
     <g id="text_11">
      <!-- 4200 -->
      <g transform="translate(25.15 199.049846)scale(0.1 -0.1)">
       <use xlink:href="#DejaVuSans-34"/>
       <use xlink:href="#DejaVuSans-32" x="63.623047"/>
       <use xlink:href="#DejaVuSans-30" x="127.246094"/>
       <use xlink:href="#DejaVuSans-30" x="190.869141"/>
      </g>
     </g>
    </g>
    <g id="ytick_4">
     <g id="line2d_12">
      <g>
       <use xlink:href="#mcaa8178b74" x="57.6" y="156.811525" style="stroke: #000000; stroke-width: 0.8"/>
      </g>
     </g>
     <g id="text_12">
      <!-- 4300 -->
      <g transform="translate(25.15 160.610744)scale(0.1 -0.1)">
       <use xlink:href="#DejaVuSans-34"/>
       <use xlink:href="#DejaVuSans-33" x="63.623047"/>
       <use xlink:href="#DejaVuSans-30" x="127.246094"/>
       <use xlink:href="#DejaVuSans-30" x="190.869141"/>
      </g>
     </g>
    </g>
    <g id="ytick_5">
     <g id="line2d_13">
      <g>
       <use xlink:href="#mcaa8178b74" x="57.6" y="118.372423" style="stroke: #000000; stroke-width: 0.8"/>
      </g>
     </g>
     <g id="text_13">
      <!-- 4400 -->
      <g transform="translate(25.15 122.171641)scale(0.1 -0.1)">
       <use xlink:href="#DejaVuSans-34"/>
       <use xlink:href="#DejaVuSans-34" x="63.623047"/>
       <use xlink:href="#DejaVuSans-30" x="127.246094"/>
       <use xlink:href="#DejaVuSans-30" x="190.869141"/>
      </g>
     </g>
    </g>
    <g id="ytick_6">
     <g id="line2d_14">
      <g>
       <use xlink:href="#mcaa8178b74" x="57.6" y="79.93332" style="stroke: #000000; stroke-width: 0.8"/>
      </g>
     </g>
     <g id="text_14">
      <!-- 4500 -->
      <g transform="translate(25.15 83.732539)scale(0.1 -0.1)">
       <use xlink:href="#DejaVuSans-34"/>
       <use xlink:href="#DejaVuSans-35" x="63.623047"/>
       <use xlink:href="#DejaVuSans-30" x="127.246094"/>
       <use xlink:href="#DejaVuSans-30" x="190.869141"/>
      </g>
     </g>
    </g>
    <g id="ytick_7">
     <g id="line2d_15">
      <g>
       <use xlink:href="#mcaa8178b74" x="57.6" y="41.494218" style="stroke: #000000; stroke-width: 0.8"/>
      </g>
     </g>
     <g id="text_15">
      <!-- 4600 -->
      <g transform="translate(25.15 45.293437)scale(0.1 -0.1)">
       <defs>
        <path id="DejaVuSans-36" d="M 2113 2584 
Q 1688 2584 1439 2293 
Q 1191 2003 1191 1497 
Q 1191 994 1439 701 
Q 1688 409 2113 409 
Q 2538 409 2786 701 
Q 3034 994 3034 1497 
Q 3034 2003 2786 2293 
Q 2538 2584 2113 2584 
z
M 3366 4563 
L 3366 3988 
Q 3128 4100 2886 4159 
Q 2644 4219 2406 4219 
Q 1781 4219 1451 3797 
Q 1122 3375 1075 2522 
Q 1259 2794 1537 2939 
Q 1816 3084 2150 3084 
Q 2853 3084 3261 2657 
Q 3669 2231 3669 1497 
Q 3669 778 3244 343 
Q 2819 -91 2113 -91 
Q 1303 -91 875 529 
Q 447 1150 447 2328 
Q 447 3434 972 4092 
Q 1497 4750 2381 4750 
Q 2619 4750 2861 4703 
Q 3103 4656 3366 4563 
z
" transform="scale(0.015625)"/>
       </defs>
       <use xlink:href="#DejaVuSans-34"/>
       <use xlink:href="#DejaVuSans-36" x="63.623047"/>
       <use xlink:href="#DejaVuSans-30" x="127.246094"/>
       <use xlink:href="#DejaVuSans-30" x="190.869141"/>
      </g>
     </g>
    </g>
   </g>
   <g id="line2d_16">
    <path d="M 73.832727 269.812632 
L 73.922934 270.748928 
L 74.013141 270.354683 
L 74.103348 270.946097 
L 74.283762 274.790008 
L 74.464175 266.905018 
L 74.554382 268.876335 
L 74.644589 266.313697 
L 74.734796 267.496432 
L 74.825003 272.276638 
L 75.095624 256.95036 
L 75.276037 262.17408 
L 75.817279 271.931662 
L 75.907485 270.798291 
L 76.087899 271.981025 
L 76.178106 270.502584 
L 76.268313 270.995366 
L 76.35852 272.128832 
L 76.62914 260.104319 
L 76.719347 260.597101 
L 76.809554 259.11866 
L 77.080175 264.785987 
L 77.260589 259.611442 
L 77.350795 260.399932 
L 77.441002 263.061107 
L 77.711623 254.289184 
L 77.80183 255.22548 
L 77.892037 255.126943 
L 78.07245 253.451332 
L 78.162657 254.387722 
L 78.252864 253.944208 
L 78.433278 252.465767 
L 78.703899 243.545943 
L 78.794105 244.580777 
L 78.884312 243.447311 
L 79.064726 236.449443 
L 79.154933 237.53364 
L 79.24514 236.055198 
L 79.335347 230.437233 
L 79.51576 239.702033 
L 79.696174 230.240158 
L 79.786381 230.683671 
L 79.966795 230.634309 
L 80.057002 231.521336 
L 80.237415 230.042894 
L 80.327622 230.929922 
L 80.508036 230.38787 
L 80.68845 230.880747 
L 80.95907 232.309826 
L 81.049277 232.211288 
L 81.139484 232.654801 
L 81.229691 231.96485 
L 81.590519 214.765791 
L 81.680725 210.37983 
L 81.770932 214.07584 
L 81.861139 210.823343 
L 81.951346 193.821549 
L 82.041553 194.462137 
L 82.40238 208.260799 
L 82.492587 208.753676 
L 82.582794 208.014361 
L 82.673001 208.457875 
L 82.763208 206.486745 
L 82.853415 206.880896 
L 83.033829 213.090274 
L 83.214242 205.451817 
L 83.394656 206.68382 
L 83.57507 206.634457 
L 83.84569 211.907634 
L 84.026104 217.821212 
L 84.116311 217.574961 
L 84.206518 217.032723 
L 84.477139 222.157999 
L 84.657552 232.063387 
L 84.747759 228.662991 
L 85.289 239.702033 
L 85.379207 242.264577 
L 85.469414 240.983305 
L 85.559621 241.525356 
L 85.740035 249.558153 
L 85.830242 249.804591 
L 85.920449 248.621856 
L 86.100862 241.032574 
L 86.281276 251.430839 
L 86.46169 242.609553 
L 86.642104 251.430839 
L 86.73231 246.847708 
L 86.912724 252.317866 
L 87.093138 248.671125 
L 87.273552 250.395911 
L 87.453965 243.890919 
L 87.634379 250.839519 
L 87.814793 245.418629 
L 87.995207 251.085863 
L 88.085414 250.198836 
L 88.175621 246.404194 
L 88.265827 249.213177 
L 88.356034 258.625877 
L 88.446241 258.231632 
L 88.626655 247.636198 
L 88.807069 255.126943 
L 88.987482 248.671125 
L 89.077689 249.755322 
L 89.438517 239.159888 
L 89.528724 235.808854 
L 89.709137 245.862143 
L 89.979758 233.788267 
L 90.069965 280.752948 
L 90.160172 278.53538 
L 90.250379 276.366987 
L 90.430792 282.921341 
L 90.611206 275.923473 
L 90.701413 276.761232 
L 90.881827 277.648259 
L 91.062241 288.5394 
L 91.152447 287.997255 
L 91.332861 283.315586 
L 91.513275 282.23139 
L 91.783896 288.736476 
L 91.874102 288.736476 
L 92.054516 284.449052 
L 92.144723 286.173931 
L 92.325137 293.566045 
L 92.505551 287.701642 
L 92.595757 290.017842 
L 92.685964 292.728287 
L 92.866378 287.750911 
L 93.046792 290.756969 
L 93.317412 287.307303 
L 93.497826 287.947986 
L 93.67824 290.8556 
L 93.858654 283.562024 
L 93.948861 285.631786 
L 94.129274 281.097924 
L 94.219481 282.330021 
L 94.309688 283.512756 
L 94.399895 283.217048 
L 94.490102 283.414124 
L 94.941136 278.633918 
L 95.12155 270.995366 
L 95.211757 271.093904 
L 95.301964 270.256145 
L 95.392171 270.65039 
L 95.482377 271.931662 
L 95.662791 268.087752 
L 95.843205 270.157608 
L 96.113826 265.328038 
L 96.294239 266.116528 
L 96.474653 263.603253 
L 96.56486 266.80648 
L 96.655067 263.652521 
L 96.835481 254.289184 
L 97.015894 261.336322 
L 97.196308 258.33017 
L 97.286515 257.245973 
L 97.557136 249.06537 
L 97.647342 249.361077 
L 97.827756 242.461747 
L 97.917963 243.200967 
L 98.00817 241.968964 
L 98.098377 236.646612 
L 98.278791 212.745298 
L 98.368997 213.780226 
L 98.459204 213.583151 
L 98.639618 202.692009 
L 98.820032 207.718748 
L 98.910239 206.979433 
L 99.271066 195.053552 
L 99.361273 196.729068 
L 99.541687 194.905651 
L 99.631894 196.285555 
L 99.812307 187.562807 
L 99.902514 188.548372 
L 99.992721 189.238324 
L 100.443756 175.094686 
L 100.533962 174.257021 
L 100.714376 169.673797 
L 100.89479 161.098949 
L 100.984997 161.739538 
L 101.075204 160.359822 
L 101.165411 157.255039 
L 101.255617 158.339141 
L 101.345824 157.79709 
L 101.706652 143.160764 
L 101.796859 146.018921 
L 101.887066 144.589842 
L 102.157686 132.466698 
L 102.3381 135.177142 
L 102.698927 116.943344 
L 102.789134 117.879546 
L 103.059755 108.220596 
L 103.510789 88.656069 
L 103.600996 89.19812 
L 103.78141 92.10564 
L 104.052031 86.586213 
L 104.322651 78.306978 
L 104.412858 80.228934 
L 104.503065 79.736245 
L 104.863892 69.387155 
L 104.954099 69.33798 
L 105.044306 70.668521 
L 105.134513 69.140717 
L 105.314927 60.960207 
L 105.405134 62.340111 
L 105.495341 65.444707 
L 105.675754 56.426345 
L 105.765961 57.806249 
L 105.856168 59.530941 
L 106.036582 53.568 
L 106.126789 53.568 
L 106.216996 54.060877 
L 106.397409 159.719045 
L 106.487616 159.176994 
L 106.577823 159.374069 
L 106.758237 163.267342 
L 106.848444 163.168804 
L 107.028858 156.663624 
L 107.119064 157.698552 
L 107.209271 163.661493 
L 107.299478 162.57739 
L 107.389685 158.191429 
L 107.570099 165.928424 
L 107.660306 163.562955 
L 107.750513 163.760218 
L 107.840719 166.026962 
L 108.11134 164.499345 
L 108.201547 165.829886 
L 108.291754 169.328821 
L 108.381961 168.491156 
L 108.472168 165.682173 
L 108.742788 172.236528 
L 108.923202 178.051569 
L 109.013409 178.002394 
L 109.193823 183.472458 
L 109.284029 183.718896 
L 109.464443 189.977638 
L 109.644857 187.020755 
L 109.825271 189.681837 
L 109.915478 189.238324 
L 110.095891 191.012378 
L 110.186098 188.00632 
L 110.276305 189.435399 
L 110.366512 194.757751 
L 110.546926 191.653155 
L 110.727339 196.039117 
L 110.817546 194.462137 
L 110.99796 201.657082 
L 111.088167 199.390151 
L 111.358788 206.585282 
L 111.448994 206.289481 
L 111.629408 204.367526 
L 111.900029 213.977302 
L 112.080443 207.422947 
L 112.260856 211.217682 
L 112.351063 212.351148 
L 112.531477 218.954678 
L 112.711891 212.104709 
L 112.892304 219.693992 
L 112.982511 218.806965 
L 113.072718 219.00404 
L 113.253132 227.036837 
L 113.433546 218.314088 
L 113.613959 227.33245 
L 113.794373 218.85614 
L 113.974787 226.445423 
L 114.155201 224.326392 
L 114.245408 225.36132 
L 114.335614 224.079954 
L 114.425821 187.957145 
L 114.516028 189.977638 
L 114.606235 189.5833 
L 114.696442 187.85842 
L 114.876856 189.829738 
L 115.057269 187.464269 
L 115.237683 189.189149 
L 115.32789 189.041248 
L 115.418097 190.273252 
L 115.508304 189.386224 
L 115.688718 182.634793 
L 115.778924 183.37392 
L 116.229959 193.476573 
L 116.320166 193.378035 
L 116.410373 190.125351 
L 116.590786 193.870723 
L 116.680993 190.815303 
L 116.7712 191.751693 
L 116.861407 195.595603 
L 116.951614 194.856288 
L 117.132028 189.189149 
L 117.222234 189.139786 
L 117.312441 188.597734 
L 117.402648 187.217831 
L 117.492855 187.759882 
L 117.583062 189.189149 
L 117.673269 188.991885 
L 117.943889 187.957145 
L 118.124303 189.8791 
L 118.21451 189.090423 
L 118.304717 189.189149 
L 118.485131 189.484762 
L 118.575338 189.336861 
L 118.665544 188.893348 
L 118.755751 188.991885 
L 118.936165 190.91384 
L 119.026372 190.66759 
L 119.206786 186.774317 
L 119.387199 188.696272 
L 119.567613 187.85842 
L 119.748027 189.139786 
L 119.838234 187.957145 
L 119.928441 188.203396 
L 120.108854 196.33473 
L 120.379475 192.786621 
L 120.469682 191.406717 
L 120.740303 198.798924 
L 120.920716 200.917955 
L 121.010923 199.981565 
L 121.10113 201.016492 
L 121.281544 207.47231 
L 121.461958 206.68382 
L 121.732578 213.238175 
L 122.003199 218.85614 
L 122.093406 218.461989 
L 122.273819 214.765791 
L 122.54444 218.806965 
L 122.634647 218.018475 
L 122.724854 219.546092 
L 122.905268 212.991737 
L 123.085681 220.433119 
L 123.356302 213.336713 
L 123.536716 214.026664 
L 123.626923 214.07584 
L 123.71713 213.780226 
L 124.077957 206.979433 
L 124.258371 208.063724 
L 124.528991 208.063724 
L 124.619198 207.817286 
L 124.799612 208.063724 
L 124.980026 204.909765 
L 125.16044 211.414758 
L 125.250646 210.330655 
L 125.340853 209.197189 
L 125.521267 212.597586 
L 125.701681 211.266857 
L 125.882095 213.583151 
L 125.972301 213.090274 
L 126.062508 211.858271 
L 126.242922 214.568716 
L 126.333129 214.815154 
L 126.513543 220.236044 
L 126.964577 212.696124 
L 127.144991 217.91975 
L 127.325405 210.478367 
L 127.415611 212.646761 
L 127.596025 206.486745 
L 127.686232 208.556412 
L 127.866646 205.353279 
L 128.04706 206.486745 
L 128.407887 200.228003 
L 128.588301 205.993868 
L 128.678508 202.790547 
L 128.768715 203.381961 
L 128.858921 206.338844 
L 128.949128 205.993868 
L 129.039335 206.437382 
L 129.129542 207.718748 
L 129.309956 204.712502 
L 129.400163 206.388019 
L 129.580576 199.045175 
L 129.76099 203.184886 
L 129.941404 201.11503 
L 130.121818 200.129465 
L 130.302231 202.741372 
L 130.482645 201.706444 
L 130.572852 201.706444 
L 130.753266 194.412775 
L 131.023886 195.644966 
L 131.2043 188.351296 
L 131.294507 188.844173 
L 131.565128 195.743504 
L 131.655335 201.164393 
L 131.835748 197.172582 
L 132.016162 200.080102 
L 132.106369 195.644966 
L 132.196576 196.236192 
L 132.286783 199.883027 
L 132.37699 199.833664 
L 132.467196 200.030927 
L 132.557403 200.770054 
L 132.64761 199.242438 
L 132.737817 200.375903 
L 132.918231 206.83172 
L 133.008438 205.648892 
L 133.098645 205.944505 
L 133.188851 206.782358 
L 133.369265 212.646761 
L 133.459472 212.104709 
L 133.549679 211.217682 
L 133.730093 215.455743 
L 133.910506 212.646761 
L 134.000713 213.238175 
L 134.09092 212.351148 
L 134.181127 212.745298 
L 134.271334 214.470178 
L 134.451748 212.794661 
L 134.541955 213.829589 
L 134.632161 213.583151 
L 134.722368 212.646761 
L 134.992989 214.864517 
L 135.173403 219.349016 
L 135.26361 218.363451 
L 135.353816 218.461989 
L 135.53423 219.693992 
L 135.714644 217.032723 
L 135.804851 217.91975 
L 135.985265 216.638571 
L 136.075471 219.989605 
L 136.165678 218.757602 
L 136.255885 214.667254 
L 136.436299 218.117013 
L 136.616713 213.336713 
L 136.887333 218.215551 
L 136.97754 217.229985 
L 137.067747 217.772037 
L 137.248161 221.813023 
L 137.428575 217.032723 
L 137.518781 217.772037 
L 137.608988 218.363451 
L 137.699195 217.180623 
L 137.789402 217.772037 
L 137.969816 219.546092 
L 138.060023 218.905502 
L 138.240436 219.102578 
L 138.330643 218.757602 
L 138.42085 219.201116 
L 138.511057 219.102578 
L 138.601264 219.299654 
L 138.691471 218.954678 
L 138.781678 224.720543 
L 138.871885 224.129317 
L 139.052298 223.242101 
L 139.232712 220.975171 
L 139.413126 225.065519 
L 139.59354 222.453612 
L 139.683746 222.897126 
L 139.86416 219.693992 
L 140.044574 223.439365 
L 140.134781 222.453612 
L 140.315195 225.36132 
L 140.405402 224.57283 
L 140.495608 224.966981 
L 140.585815 224.819081 
L 140.676022 225.755471 
L 140.766229 229.155867 
L 140.856436 228.761716 
L 140.946643 224.917806 
L 141.03685 225.016344 
L 141.127057 227.036837 
L 141.30747 224.277029 
L 141.487884 229.20523 
L 141.578091 228.860254 
L 141.848712 232.605626 
L 141.938918 232.506901 
L 142.119332 230.929922 
L 142.209539 231.274898 
L 142.299746 230.092257 
L 142.48016 234.626119 
L 142.660573 229.057329 
L 142.931194 238.371398 
L 143.021401 237.33647 
L 143.201815 230.634309 
L 143.292022 231.17636 
L 143.382228 234.872557 
L 143.472435 234.527581 
L 143.562642 232.309826 
L 143.743056 234.478219 
L 143.92347 231.669236 
L 144.013677 231.669236 
L 144.19409 234.379681 
L 144.464711 237.33647 
L 144.554918 236.597343 
L 144.645125 236.794419 
L 144.735332 238.075691 
L 144.915745 232.556264 
L 145.096159 237.927884 
L 145.186366 237.385833 
L 145.276573 236.646612 
L 145.36678 236.794419 
L 145.456987 236.203099 
L 145.727607 240.934036 
L 145.817814 240.047009 
L 145.908021 241.032574 
L 146.088435 243.447311 
L 146.178642 241.771795 
L 146.268848 241.919601 
L 146.539469 245.073654 
L 146.629676 246.847708 
L 146.719883 244.876484 
L 146.81009 245.073654 
L 146.990503 224.523468 
L 147.08071 222.897126 
L 147.261124 231.915675 
L 147.441538 229.747281 
L 147.621952 231.127185 
L 147.712158 230.042894 
L 147.892572 232.654801 
L 148.163193 228.860254 
L 148.2534 229.007967 
L 148.343607 228.564453 
L 148.52402 230.929922 
L 148.704434 225.558395 
L 148.884848 232.260651 
L 149.065262 228.022402 
L 149.155468 229.796456 
L 149.245675 229.500843 
L 149.335882 226.248347 
L 149.426089 226.445423 
L 149.606503 231.669236 
L 149.69671 231.028647 
L 149.786917 231.472161 
L 149.96733 230.289333 
L 150.147744 232.605626 
L 150.237951 230.880747 
L 150.418365 232.950602 
L 150.508572 231.669236 
L 150.688985 233.886805 
L 150.869399 229.303768 
L 151.049813 231.767774 
L 151.14002 230.732846 
L 151.230227 230.880747 
L 151.41064 229.352943 
L 151.591054 231.077822 
L 151.681261 231.32426 
L 151.861675 240.047009 
L 152.132295 232.605626 
L 152.222502 232.851877 
L 152.402916 236.301636 
L 152.58333 229.303768 
L 152.763743 232.162113 
L 152.85395 230.929922 
L 152.944157 231.619874 
L 153.214778 228.515278 
L 153.395192 224.375567 
L 153.485398 225.854008 
L 153.665812 223.932053 
L 153.756019 226.839761 
L 154.116847 221.665122 
L 154.387467 216.737109 
L 154.477674 215.603644 
L 154.658088 219.841705 
L 154.838502 218.708427 
L 154.928708 218.166188 
L 155.109122 237.090126 
L 155.199329 237.188664 
L 155.289536 235.95666 
L 155.46995 237.53364 
L 155.650363 230.979284 
L 155.74057 231.570699 
L 155.830777 231.274898 
L 155.920984 231.767774 
L 156.011191 234.281143 
L 156.101398 232.90124 
L 156.191605 229.20523 
L 156.281812 229.303768 
L 156.552432 232.654801 
L 156.823053 238.223591 
L 157.003467 236.991588 
L 157.18388 241.771795 
L 157.364294 240.244084 
L 157.454501 241.229743 
L 157.544708 239.899109 
L 157.815329 230.240158 
L 157.995742 229.20523 
L 158.176156 230.634309 
L 158.266363 230.535771 
L 158.35657 231.127185 
L 158.536984 225.706296 
L 158.717397 234.675294 
L 159.078225 226.938299 
L 159.168432 224.769906 
L 159.258639 225.213419 
L 159.348845 226.248347 
L 159.619466 222.897126 
L 159.79988 217.673499 
L 160.0705 221.221609 
L 160.160707 220.285406 
L 160.431328 213.188812 
L 160.521535 213.632326 
L 160.701949 220.236044 
L 161.062776 213.533788 
L 161.24319 217.624137 
L 161.333397 212.597586 
L 161.51381 219.841705 
L 161.604017 217.91975 
L 161.694224 217.328523 
L 162.325672 226.346885 
L 162.415879 227.036837 
L 162.866914 214.07584 
L 162.95712 215.702181 
L 163.047327 214.568716 
L 163.227741 196.285555 
L 163.678775 208.605775 
L 163.768982 212.49886 
L 163.859189 211.562658 
L 163.949396 207.965186 
L 164.039603 209.246364 
L 164.12981 213.533788 
L 164.220017 212.25261 
L 164.40043 204.515427 
L 164.580844 209.788415 
L 164.671051 208.162262 
L 164.851465 212.843836 
L 164.941672 211.513295 
L 165.031879 209.837778 
L 165.302499 220.285406 
L 165.392706 218.757602 
L 165.84374 229.796456 
L 165.933947 229.550206 
L 166.114361 232.605626 
L 166.204568 232.063387 
L 166.294775 231.17636 
L 166.565395 238.568567 
L 166.655602 237.090126 
L 166.926223 244.43297 
L 167.01643 243.69375 
L 167.106637 243.053067 
L 167.196844 243.989457 
L 167.377257 236.153736 
L 167.557671 243.053067 
L 167.647878 241.476088 
L 167.828292 244.137263 
L 167.918499 241.919601 
L 168.098912 243.398043 
L 168.189119 242.855991 
L 168.279326 244.186532 
L 168.45974 237.53364 
L 168.549947 241.525356 
L 168.640154 239.84984 
L 168.73036 235.858123 
L 168.910774 241.229743 
L 169.000981 237.188664 
L 169.181395 243.890919 
L 169.271602 242.708091 
L 169.361809 240.736867 
L 169.452015 242.116771 
L 169.632429 249.163908 
L 169.812843 241.032574 
L 169.993257 243.743019 
L 170.083464 241.525356 
L 170.17367 242.067502 
L 170.263877 241.131112 
L 170.444291 235.217346 
L 170.624705 240.293353 
L 170.805119 235.217346 
L 170.895325 238.814912 
L 170.985532 236.74515 
L 171.165946 229.599381 
L 171.256153 262.568325 
L 171.34636 260.79427 
L 171.436567 257.788119 
L 171.61698 262.223349 
L 171.797394 251.184495 
L 171.977808 255.176212 
L 172.068015 255.42265 
L 172.338635 270.502584 
L 172.519049 262.075542 
L 172.609256 262.469787 
L 172.879877 268.728435 
L 173.06029 270.305414 
L 173.240704 264.243842 
L 173.330911 265.870184 
L 173.511325 270.946097 
L 173.601532 269.418387 
L 173.781945 270.748928 
L 173.872152 270.009707 
L 173.962359 270.748928 
L 174.052566 269.960438 
L 174.23298 266.757211 
L 174.413394 269.418387 
L 174.5036 269.615462 
L 174.593807 268.876335 
L 174.864428 265.081694 
L 175.044842 263.948229 
L 175.135049 263.997497 
L 175.225256 263.70179 
L 175.315462 262.96257 
L 175.495876 258.231632 
L 175.67629 261.089883 
L 175.766497 260.991346 
L 175.856704 260.64637 
L 175.946911 259.217197 
L 176.127324 264.539549 
L 176.307738 254.239822 
L 176.488152 259.069391 
L 176.578359 256.408215 
L 176.668566 258.576608 
L 176.758772 257.837388 
L 176.848979 251.923622 
L 176.939186 252.416498 
L 177.029393 255.964701 
L 177.300014 248.966832 
L 177.480427 248.917564 
L 177.660841 247.981173 
L 177.841255 253.747039 
L 178.021669 247.291222 
L 178.202082 249.410346 
L 178.472703 247.439122 
L 178.56291 248.27688 
L 178.653117 247.981173 
L 178.923737 239.357057 
L 179.013944 236.695881 
L 179.104151 237.040857 
L 179.194358 238.026422 
L 179.284565 236.892957 
L 179.374772 215.997795 
L 179.464979 219.546092 
L 179.555186 218.85614 
L 179.825806 206.338844 
L 179.916013 208.063724 
L 180.00622 212.942562 
L 180.096427 212.351148 
L 180.276841 207.373772 
L 180.367047 207.47231 
L 180.457254 205.944505 
L 180.547461 206.437382 
L 180.637668 207.718748 
L 180.727875 207.521485 
L 180.818082 207.225872 
L 180.998496 205.057478 
L 181.178909 206.930258 
L 181.359323 205.500992 
L 181.629944 198.158147 
L 181.810357 199.587414 
L 181.900564 199.735126 
L 182.171185 195.201264 
L 182.261392 195.842041 
L 182.441806 195.398528 
L 182.532012 196.236192 
L 182.622219 195.644966 
L 182.89284 189.5833 
L 183.073254 190.322614 
L 183.343874 182.141917 
L 183.524288 189.435399 
L 184.065529 172.039265 
L 184.155736 170.708724 
L 184.245943 171.152238 
L 184.606771 158.437867 
L 184.696977 157.846453 
L 184.787184 161.098949 
L 184.877391 160.753973 
L 184.967598 158.930555 
L 185.057805 159.66987 
L 185.328426 158.191429 
L 185.508839 149.222242 
L 185.689253 152.474738 
L 185.869667 146.068284 
L 185.959874 146.166821 
L 186.140287 143.012863 
L 186.230494 143.554914 
L 186.320701 142.9635 
L 186.501115 136.458508 
L 186.681529 139.809542 
L 186.861942 130.594105 
L 186.952149 130.692643 
L 187.042356 129.904153 
L 187.132563 128.080736 
L 187.312977 130.052054 
L 187.403184 129.017126 
L 187.493391 190.618227 
L 187.583597 189.780375 
L 187.764011 184.16241 
L 187.944425 188.646909 
L 188.034632 187.316369 
L 188.215046 189.435399 
L 188.305252 188.351296 
L 188.395459 188.79481 
L 188.575873 191.160279 
L 188.66608 190.963203 
L 188.756287 190.421152 
L 188.936701 188.400659 
L 189.117114 189.780375 
L 189.207321 188.055683 
L 189.297528 188.449834 
L 189.387735 189.780375 
L 189.568149 188.301934 
L 189.658356 188.400659 
L 189.748562 188.203396 
L 189.928976 193.525747 
L 190.199597 200.375903 
L 190.289804 200.17864 
L 190.380011 199.242438 
L 190.560424 199.932389 
L 190.740838 196.581168 
L 190.831045 197.911709 
L 190.921252 200.96713 
L 191.101666 197.074044 
L 191.282079 202.297858 
L 191.462493 195.053552 
L 191.642907 202.889085 
L 191.733114 201.065855 
L 191.823321 201.361468 
L 191.913527 200.622154 
L 192.003734 200.868592 
L 192.184148 205.451817 
L 192.274355 202.396396 
L 192.454769 208.704313 
L 192.544976 207.521485 
L 192.635183 205.993868 
L 192.725389 206.388019 
L 192.905803 213.28735 
L 192.99601 212.646761 
L 193.176424 205.698255 
L 193.266631 208.014361 
L 193.356838 207.718748 
L 193.447044 208.014361 
L 193.627458 212.942562 
L 193.807872 209.59134 
L 193.988286 212.794661 
L 194.168699 211.611833 
L 194.349113 214.568716 
L 194.43932 214.273103 
L 194.529527 213.533788 
L 194.709941 214.174565 
L 194.800148 214.026664 
L 195.070768 211.661196 
L 195.341389 219.79253 
L 195.521803 212.49886 
L 195.702216 256.80246 
L 195.792423 256.063239 
L 195.88263 253.254256 
L 195.972837 254.535529 
L 196.063044 257.640218 
L 196.243458 253.845577 
L 196.333664 255.471919 
L 196.423871 255.22548 
L 196.514078 254.781967 
L 196.604285 256.260408 
L 196.784699 249.311808 
L 196.874906 249.952398 
L 196.965113 249.85386 
L 197.055319 248.178343 
L 197.235733 251.578739 
L 197.416147 258.625877 
L 197.506354 257.54168 
L 197.596561 253.845577 
L 197.686768 254.48626 
L 197.776974 256.112508 
L 197.867181 255.274749 
L 197.957388 256.260408 
L 198.047595 258.970853 
L 198.137802 258.527339 
L 198.318216 247.389853 
L 198.408423 247.586929 
L 198.498629 249.213177 
L 198.679043 246.798439 
L 198.76925 248.375418 
L 199.220284 243.053067 
L 199.310491 243.644481 
L 199.490905 241.919601 
L 199.671319 243.792287 
L 199.851733 241.37755 
L 200.032146 242.708091 
L 200.392974 236.104467 
L 200.483181 236.646612 
L 200.663594 241.081843 
L 201.114629 235.513147 
L 201.295043 240.884767 
L 201.385249 240.638329 
L 201.475456 241.623988 
L 201.565663 240.391891 
L 201.65587 235.611684 
L 201.746077 235.858123 
L 201.836284 238.765643 
L 202.016698 236.203099 
L 202.106904 238.420667 
L 202.197111 238.075691 
L 202.377525 235.710222 
L 202.467732 236.449443 
L 202.648146 240.441254 
L 202.738353 237.977153 
L 202.828559 238.026422 
L 202.918766 240.391891 
L 203.189387 235.611684 
L 203.279594 233.394116 
L 203.460008 225.311957 
L 203.550214 227.923864 
L 203.640421 227.825326 
L 203.730628 184.01451 
L 203.820835 184.31031 
L 204.001249 189.189149 
L 204.091456 188.449834 
L 204.181663 188.696272 
L 204.452283 194.314237 
L 204.54249 194.3636 
L 204.722904 197.517558 
L 204.813111 196.729068 
L 204.993524 191.899593 
L 205.173938 196.729068 
L 205.354352 194.412775 
L 205.534766 201.213568 
L 205.624973 199.340975 
L 205.715179 200.474441 
L 205.895593 208.063724 
L 205.9858 205.845968 
L 206.346628 211.266857 
L 206.527041 212.942562 
L 206.707455 220.334581 
L 206.797662 217.476236 
L 206.887869 219.053215 
L 207.068283 225.213419 
L 207.248696 223.143564 
L 207.42911 225.459858 
L 207.519317 225.804834 
L 207.789938 232.999777 
L 207.970351 224.622005 
L 208.150765 232.309826 
L 208.240972 229.944357 
L 208.421386 235.907391 
L 208.511593 229.895182 
L 208.601799 231.718412 
L 208.692006 236.350905 
L 208.962627 231.817137 
L 209.052834 229.796456 
L 209.143041 232.063387 
L 209.233248 231.225723 
L 209.323454 228.662991 
L 209.413661 230.190795 
L 209.594075 225.213419 
L 209.774489 232.999777 
L 209.954903 228.515278 
L 210.225523 237.927884 
L 210.405937 230.683671 
L 210.586351 231.866312 
L 210.947178 225.804834 
L 211.127592 228.367378 
L 211.308006 223.882878 
L 211.48842 230.486408 
L 211.75904 222.108636 
L 211.939454 243.053067 
L 212.029661 243.348774 
L 212.119868 242.855991 
L 212.210075 243.053067 
L 212.480695 234.379681 
L 212.751316 244.383702 
L 212.93173 250.888788 
L 213.112143 246.404194 
L 213.20235 247.882636 
L 213.292557 246.995609 
L 213.382764 247.685466 
L 213.472971 250.888788 
L 213.563178 250.790156 
L 213.653385 248.818932 
L 213.743591 249.361077 
L 213.833798 248.671125 
L 213.924005 249.607422 
L 214.104419 256.161777 
L 214.284833 248.424687 
L 214.465246 258.034463 
L 214.555453 257.147436 
L 214.735867 247.784098 
L 214.916281 254.683429 
L 215.096695 248.079711 
L 215.186901 248.424687 
L 215.277108 248.572588 
L 215.457522 252.515036 
L 215.637936 248.030442 
L 215.81835 250.149567 
L 215.908556 248.917564 
L 215.998763 249.311808 
L 216.08897 249.114639 
L 216.179177 248.424687 
L 216.269384 248.671125 
L 216.359591 249.656784 
L 216.449798 249.558153 
L 216.540005 248.030442 
L 216.630211 248.671125 
L 216.720418 250.346642 
L 216.991039 242.215308 
L 217.081246 243.151699 
L 217.171453 242.954529 
L 217.26166 242.855991 
L 217.53228 239.307788 
L 217.712694 238.026422 
L 217.802901 237.632177 
L 217.983315 236.252367 
L 218.073521 237.237933 
L 218.163728 237.090126 
L 218.253935 237.090126 
L 218.434349 238.913543 
L 218.524556 237.237933 
L 218.614763 232.654801 
L 218.70497 232.704164 
L 218.795176 237.730809 
L 218.885383 237.287201 
L 218.97559 232.014212 
L 219.065797 232.654801 
L 219.246211 238.026422 
L 219.336418 237.385833 
L 219.607038 227.184737 
L 219.697245 231.422798 
L 219.787452 231.17636 
L 219.967866 224.671368 
L 220.058073 224.769906 
L 220.509107 213.780226 
L 220.689521 216.441496 
L 220.869935 212.006172 
L 220.960141 213.28735 
L 221.230762 206.338844 
L 221.411176 210.724806 
L 221.59159 205.500992 
L 221.772003 208.802851 
L 221.86221 206.289481 
L 221.952417 207.077971 
L 222.042624 206.880896 
L 222.223038 199.735126 
L 222.313245 200.671516 
L 222.403451 200.326541 
L 222.674072 193.57511 
L 222.764279 192.096669 
L 222.854486 192.343107 
L 223.0349 195.004189 
L 223.125106 195.102726 
L 223.215313 194.708576 
L 223.395727 187.907783 
L 223.576141 189.5833 
L 223.936968 177.164541 
L 224.117382 182.338993 
L 224.388003 171.99009 
L 224.47821 171.201601 
L 224.568416 171.398676 
L 224.839037 163.562955 
L 225.290071 152.031225 
L 225.380278 153.756104 
L 225.560692 152.524101 
L 225.650899 151.242735 
L 225.741106 146.758235 
L 225.831313 147.152387 
L 225.92152 150.158632 
L 226.101933 141.632959 
L 226.282347 144.096966 
L 226.462761 140.05598 
L 226.552968 141.830223 
L 226.733381 133.994502 
L 226.913795 138.331101 
L 227.094209 128.67215 
L 227.184416 131.382595 
L 227.274623 131.185519 
L 227.455037 124.729702 
L 227.545243 124.187651 
L 227.63545 121.082867 
L 227.725657 122.659847 
L 227.815864 126.94727 
L 227.996278 124.335363 
L 228.086485 183.22602 
L 228.176692 182.634793 
L 228.266898 180.860551 
L 228.447312 185.295876 
L 228.627726 181.649041 
L 228.80814 183.669534 
L 228.898347 182.881044 
L 229.07876 184.063872 
L 229.349381 180.072062 
L 229.439588 176.47459 
L 229.620002 181.501328 
L 229.800415 175.981713 
L 229.980829 183.817434 
L 230.071036 183.37392 
L 230.161243 181.649041 
L 230.341657 185.197338 
L 230.431863 184.605924 
L 230.52207 182.683969 
L 230.612277 183.718896 
L 230.792691 189.8791 
L 230.973105 188.745635 
L 231.243725 195.497065 
L 231.333932 193.920086 
L 231.424139 193.180771 
L 231.604553 197.074044 
L 231.69476 194.610038 
L 231.875173 199.636589 
L 232.055587 191.899593 
L 232.236001 196.384092 
L 232.326208 196.679706 
L 232.596828 199.784489 
L 232.687035 200.129465 
L 232.867449 196.827606 
L 233.047863 205.59953 
L 233.13807 205.451817 
L 233.228277 204.761865 
L 233.318483 204.81104 
L 233.498897 208.260799 
L 233.589104 208.211436 
L 233.769518 204.860403 
L 233.859725 207.028796 
L 233.949932 206.83172 
L 234.040138 206.979433 
L 234.130345 210.675631 
L 234.220552 210.52773 
L 234.400966 206.388019 
L 234.671587 209.492803 
L 234.761793 208.802851 
L 234.942207 213.731051 
L 235.122621 211.562658 
L 235.212828 213.681688 
L 235.393242 206.979433 
L 235.483448 207.324409 
L 235.573655 207.077971 
L 235.754069 213.336713 
L 235.844276 213.188812 
L 235.934483 212.006172 
L 236.02469 213.336713 
L 236.114897 213.139637 
L 236.29531 232.063387 
L 236.385517 232.260651 
L 236.475724 226.346885 
L 236.565931 227.086012 
L 236.656138 230.38787 
L 236.836552 223.63644 
L 236.926758 225.065519 
L 237.016965 224.523468 
L 237.107172 223.242101 
L 237.197379 225.854008 
L 237.287586 224.178492 
L 237.377793 219.546092 
L 237.558207 226.001909 
L 237.73862 223.094389 
L 238.279862 236.301636 
L 238.460275 229.352943 
L 238.640689 237.435102 
L 238.730896 237.139395 
L 239.001517 225.558395 
L 239.091723 226.790399 
L 239.272137 224.57283 
L 239.452551 225.755471 
L 239.542758 228.860254 
L 239.723172 225.854008 
L 239.903585 230.584946 
L 239.993792 227.874501 
L 240.174206 231.225723 
L 240.264413 228.564453 
L 240.805654 240.736867 
L 240.986068 235.118808 
L 241.076275 235.759491 
L 241.256688 238.174323 
L 241.437102 235.02027 
L 241.527309 237.237933 
L 241.617516 236.74515 
L 241.707723 234.034705 
L 241.888137 237.730809 
L 241.978343 235.217346 
L 242.06855 235.414515 
L 242.158757 238.765643 
L 242.339171 232.90124 
L 242.429378 234.231781 
L 242.519585 238.519299 
L 242.609792 237.780078 
L 242.790205 231.669236 
L 242.970619 240.490523 
L 243.151033 236.005929 
L 243.24124 236.991588 
L 243.692274 247.044877 
L 243.872688 246.552001 
L 244.053102 236.74515 
L 244.233515 246.946246 
L 244.413929 228.416741 
L 244.774757 234.872557 
L 244.95517 231.422798 
L 245.045377 235.315977 
L 245.135584 235.217346 
L 245.225791 231.422798 
L 245.315998 231.619874 
L 245.406205 233.591191 
L 245.586619 222.256537 
L 245.767032 226.051272 
L 245.947446 222.453612 
L 246.12786 226.987474 
L 246.308274 224.277029 
L 246.488687 232.063387 
L 246.669101 224.819081 
L 246.939722 236.252367 
L 247.120135 230.732846 
L 247.210342 231.32426 
L 247.300549 231.028647 
L 247.390756 229.944357 
L 247.57117 231.817137 
L 247.661377 229.45148 
L 247.751584 231.422798 
L 247.931997 236.892957 
L 248.022204 235.808854 
L 248.112411 237.139395 
L 248.383032 247.981173 
L 248.563445 236.74515 
L 248.653652 239.159888 
L 248.743859 238.716374 
L 248.834066 236.794419 
L 249.01448 242.264577 
L 249.194894 235.611684 
L 249.2851 238.27286 
L 249.645928 236.055198 
L 249.916549 229.057329 
L 250.096962 232.704164 
L 250.277376 228.465915 
L 250.547997 229.500843 
L 250.638204 229.106692 
L 250.818617 237.582909 
L 250.999031 229.500843 
L 251.179445 232.999777 
L 251.269652 232.605626 
L 251.450065 237.829347 
L 251.630479 226.051272 
L 251.720686 229.20523 
L 251.810893 228.515278 
L 251.9011 223.340827 
L 251.991307 225.164056 
L 252.081514 231.472161 
L 252.17172 231.274898 
L 252.442341 225.164056 
L 252.622755 226.100447 
L 252.712962 223.63644 
L 252.803169 224.030591 
L 252.893375 224.966981 
L 252.983582 223.734978 
L 253.254203 232.506901 
L 253.524824 249.755322 
L 253.705237 244.137263 
L 253.795444 243.792287 
L 253.975858 240.490523 
L 254.066065 241.476088 
L 254.246479 246.404194 
L 254.426892 241.870332 
L 254.517099 242.264577 
L 254.697513 246.059218 
L 254.78772 246.059218 
L 254.968134 249.656784 
L 255.05834 249.311808 
L 255.238754 252.860012 
L 255.328961 251.529377 
L 255.419168 251.972984 
L 255.599582 258.477977 
L 255.689789 257.590949 
L 255.870202 259.512904 
L 255.960409 257.344605 
L 256.140823 258.33017 
L 256.23103 257.73885 
L 256.411444 262.272618 
L 256.591857 258.33017 
L 256.952685 268.531359 
L 257.133099 264.785987 
L 257.313512 274.592838 
L 257.493926 265.42667 
L 257.584133 265.771552 
L 257.764547 270.009707 
L 257.854754 268.235652 
L 258.035167 259.512904 
L 258.215581 265.032425 
L 258.305788 264.63818 
L 258.395995 264.194573 
L 258.576409 257.985194 
L 258.666615 258.477977 
L 258.756822 259.562173 
L 258.847029 258.280901 
L 259.027443 263.652521 
L 259.207857 250.297373 
L 259.38827 257.147436 
L 259.568684 252.662842 
L 259.839305 258.576608 
L 260.109925 245.467898 
L 260.200132 246.00995 
L 260.380546 252.022253 
L 260.470753 246.946246 
L 260.56096 229.254405 
L 260.651167 235.118808 
L 260.921787 222.552337 
L 261.011994 223.242101 
L 261.192408 232.309826 
L 261.372822 225.262782 
L 261.463029 225.804834 
L 261.553235 225.706296 
L 261.643442 226.445423 
L 261.914063 234.724657 
L 262.094477 223.784341 
L 262.184684 225.755471 
L 262.365097 232.851877 
L 262.545511 231.028647 
L 262.725925 230.831384 
L 262.816132 229.99372 
L 262.906339 230.683671 
L 262.996546 230.634309 
L 263.176959 222.502975 
L 263.627994 237.237933 
L 263.718201 236.991588 
L 263.898614 234.724657 
L 264.169235 230.979284 
L 264.259442 231.32426 
L 264.349649 230.634309 
L 264.530062 218.166188 
L 264.710476 226.741036 
L 264.981097 212.893199 
L 265.071304 213.780226 
L 265.161511 214.864517 
L 265.341924 208.999926 
L 265.432131 212.548223 
L 265.522338 210.823343 
L 265.702752 198.453948 
L 265.883166 202.05142 
L 266.063579 200.474441 
L 266.153786 202.494934 
L 266.3342 190.371789 
L 266.424407 191.801056 
L 266.514614 194.560675 
L 266.695027 186.82368 
L 266.785234 186.626417 
L 266.965648 181.205527 
L 267.055855 180.564938 
L 267.236269 176.671665 
L 267.326476 176.967466 
L 267.506889 170.758087 
L 267.597096 172.827755 
L 267.77751 170.610187 
L 267.867717 173.419169 
L 268.318751 159.324894 
L 268.499165 157.698552 
L 268.589372 158.487042 
L 268.679579 236.991588 
L 268.769786 234.182606 
L 268.859992 228.120939 
L 269.22082 237.730809 
L 269.401234 223.932053 
L 269.491441 226.198984 
L 269.581647 229.007967 
L 269.762061 222.798588 
L 269.852268 224.622005 
L 269.942475 222.798588 
L 270.122889 217.13126 
L 270.303302 218.363451 
L 270.393509 217.032723 
L 270.573923 223.784341 
L 270.754337 216.490671 
L 271.024957 224.622005 
L 271.205371 219.546092 
L 271.385785 226.248347 
L 271.566199 222.798588 
L 271.746612 225.065519 
L 271.927026 225.952546 
L 272.017233 226.001909 
L 272.10744 224.769906 
L 272.287854 216.983547 
L 272.468267 228.318203 
L 272.648681 218.264726 
L 272.738888 218.609702 
L 272.829095 219.398191 
L 272.919302 218.905502 
L 273.099716 215.30803 
L 273.189922 215.406568 
L 273.280129 218.264726 
L 273.370336 218.06765 
L 273.460543 217.279161 
L 273.55075 219.349016 
L 273.640957 219.102578 
L 273.731164 217.427061 
L 273.911577 222.157999 
L 274.001784 220.482482 
L 274.272405 212.25261 
L 274.452819 210.034854 
L 274.543026 211.119145 
L 274.633232 209.295727 
L 274.723439 204.761865 
L 274.903853 210.52773 
L 275.084267 202.347034 
L 275.264681 208.260799 
L 275.445094 200.917955 
L 275.625508 207.127334 
L 275.896129 196.581168 
L 276.076542 200.228003 
L 276.256956 192.490819 
L 276.347163 196.926144 
L 276.617784 191.554617 
L 276.707991 187.316369 
L 276.888404 273.213028 
L 276.978611 272.326001 
L 277.068818 269.418387 
L 277.249232 272.769515 
L 277.429646 265.032425 
L 277.519852 265.623745 
L 277.610059 264.194573 
L 277.700266 266.165797 
L 277.790473 270.748928 
L 277.970887 263.307546 
L 278.151301 271.143173 
L 278.241507 270.05907 
L 278.331714 268.974873 
L 278.782749 283.414124 
L 278.872956 283.315586 
L 279.143576 276.21918 
L 279.233783 277.106207 
L 279.414197 274.937814 
L 279.775024 262.420518 
L 279.955438 270.65039 
L 280.045645 270.502584 
L 280.135852 269.467656 
L 280.226059 270.404046 
L 280.316266 270.305414 
L 280.406473 270.256145 
L 280.586886 272.227369 
L 280.7673 269.073411 
L 280.947714 264.046766 
L 281.128128 267.299262 
L 281.218334 267.102187 
L 281.398748 267.890677 
L 281.579162 261.434859 
L 281.849783 264.441011 
L 281.939989 263.70179 
L 282.120403 257.837388 
L 282.391024 261.829104 
L 282.481231 264.49028 
L 282.661644 254.387722 
L 282.751851 255.570456 
L 282.842058 257.098167 
L 283.112679 254.48626 
L 283.293093 253.894939 
L 283.473506 257.985194 
L 283.563713 257.54168 
L 283.65392 256.211139 
L 283.834334 259.710074 
L 283.924541 259.365098 
L 284.104954 265.229501 
L 284.195161 263.70179 
L 284.375575 255.126943 
L 284.465782 255.373287 
L 284.646196 247.389853 
L 284.736403 249.706053 
L 284.826609 247.685466 
L 285.007023 180.860551 
L 285.09723 182.683969 
L 285.277644 190.322614 
L 285.367851 191.160279 
L 285.728678 198.503123 
L 285.818885 198.010434 
L 285.909092 198.651023 
L 285.999299 201.460006 
L 286.179713 193.870723 
L 286.360126 202.741372 
L 286.450333 200.671516 
L 286.54054 201.016492 
L 286.630747 205.698255 
L 286.720954 205.008303 
L 286.901368 199.439513 
L 287.171988 209.295727 
L 287.262195 209.295727 
L 287.623023 220.236044 
L 287.803436 223.537902 
L 287.893643 223.390002 
L 288.164264 230.437233 
L 288.254471 230.38787 
L 288.795712 244.630046 
L 288.885919 242.954529 
L 288.976126 244.137263 
L 289.066333 243.743019 
L 289.156539 240.736867 
L 289.246746 241.279012 
L 289.517367 246.207119 
L 289.607574 245.566436 
L 289.697781 243.496674 
L 289.878194 246.552001 
L 289.968401 246.354925 
L 290.058608 249.410346 
L 290.148815 248.818932 
L 290.239022 244.383702 
L 290.329229 244.975022 
L 290.599849 249.755322 
L 290.690056 248.621856 
L 290.780263 244.827215 
L 290.87047 246.946246 
L 290.960677 252.860012 
L 291.050884 252.613573 
L 291.141091 248.227612 
L 291.231298 248.572588 
L 291.411711 252.810743 
L 291.501918 250.888788 
L 291.682332 254.092015 
L 291.772539 253.155719 
L 291.862746 251.036594 
L 291.952953 251.184495 
L 292.043159 249.558153 
L 292.223573 243.151699 
L 292.403987 248.769663 
L 292.494194 245.615705 
L 292.584401 246.108487 
L 292.674608 245.664974 
L 292.855021 239.800571 
L 292.945228 240.293353 
L 293.035435 282.37929 
L 293.125642 281.245825 
L 293.306056 275.627766 
L 293.486469 280.605142 
L 293.666883 274.642201 
L 294.117918 294.995124 
L 294.298331 287.750911 
L 294.478745 289.722135 
L 294.568952 289.377159 
L 294.659159 288.046524 
L 294.749366 288.933645 
L 294.839573 291.249845 
L 295.019986 283.562024 
L 295.110193 285.28681 
L 295.2004 290.313455 
L 295.290607 289.869941 
L 295.471021 286.765252 
L 295.651434 291.841165 
L 295.741641 295.488 
L 295.922055 291.496189 
L 296.102469 295.389462 
L 296.282883 293.319607 
L 296.373089 293.911021 
L 296.553503 288.490131 
L 296.64371 288.687207 
L 296.824124 288.5394 
L 296.914331 289.771404 
L 297.094744 282.37929 
L 297.184951 283.956269 
L 297.275158 286.666714 
L 297.455572 282.872073 
L 297.635986 287.997255 
L 297.726193 286.420276 
L 297.906606 291.64409 
L 298.08702 280.506604 
L 298.177227 281.048655 
L 298.357641 282.132852 
L 298.447848 284.153345 
L 298.628261 275.430691 
L 298.718468 276.662694 
L 298.808675 278.53538 
L 298.898882 277.746891 
L 299.169503 271.43888 
L 299.25971 273.213028 
L 299.440123 268.33419 
L 299.620537 272.227369 
L 299.800951 268.925604 
L 299.981365 270.108339 
L 300.161778 265.968721 
L 300.251985 267.052918 
L 300.342192 266.757211 
L 300.522606 264.835256 
L 300.612813 263.849597 
L 300.793226 255.570456 
L 300.97364 255.816895 
L 301.063847 253.402063 
L 301.244261 224.720543 
L 301.605088 216.835647 
L 301.785502 224.671368 
L 302.14633 207.422947 
L 302.326743 214.864517 
L 302.41695 213.386075 
L 302.597364 207.965186 
L 302.777778 198.651023 
L 302.958191 204.860403 
L 303.319019 189.829738 
L 303.499433 190.815303 
L 303.86026 182.486893 
L 303.950467 181.895479 
L 304.040674 182.634793 
L 304.130881 182.536068 
L 304.311295 182.19128 
L 304.491708 177.755956 
L 304.672122 170.610187 
L 304.762329 172.137803 
L 304.852536 171.349313 
L 305.03295 156.910063 
L 305.213363 158.634942 
L 305.30357 159.472607 
L 305.393777 158.240603 
L 305.574191 142.569349 
L 305.664398 142.864962 
L 305.754605 144.096966 
L 306.47626 119.702964 
L 306.566466 121.230768 
L 306.74688 123.004823 
L 306.837087 122.265696 
L 307.017501 117.140419 
L 307.107708 118.32306 
L 307.288121 105.608689 
L 307.378328 108.171233 
L 307.468535 107.777082 
L 307.648949 99.645748 
L 307.739156 99.941361 
L 307.91957 93.436369 
L 308.099983 96.935303 
L 308.280397 88.803969 
L 308.370604 89.001045 
L 308.460811 91.563589 
L 308.821638 77.863465 
L 308.911845 75.15302 
L 309.002052 75.448821 
L 309.092259 75.497996 
L 309.182466 76.385023 
L 309.272673 176.62249 
L 309.36288 176.031076 
L 309.543293 166.371938 
L 309.723707 171.84219 
L 309.813914 170.462286 
L 309.904121 172.039265 
L 309.994328 171.201601 
L 310.084535 169.082383 
L 310.264948 170.955163 
L 310.355155 170.166673 
L 310.535569 173.714782 
L 310.715983 163.710855 
L 310.896396 171.448039 
L 311.07681 163.464417 
L 311.257224 171.84219 
L 311.347431 168.688231 
L 311.618051 170.9058 
L 311.798465 178.741521 
L 311.888672 178.100932 
L 312.069086 182.141917 
L 312.2495 176.819566 
L 312.339706 181.550503 
L 312.429913 181.304065 
L 312.52012 177.016641 
L 312.610327 178.59362 
L 312.700534 183.176845 
L 312.790741 182.634793 
L 312.880948 180.860551 
L 313.061361 184.359486 
L 313.151568 182.388355 
L 313.241775 183.817434 
L 313.422189 190.026813 
L 313.602603 186.478704 
L 313.873223 190.66759 
L 314.053637 192.293744 
L 314.324258 198.651023 
L 314.414465 198.946637 
L 314.594878 200.96713 
L 314.685085 201.213568 
L 314.775292 201.854345 
L 314.955706 198.453948 
L 315.226327 202.149958 
L 315.40674 200.326541 
L 315.587154 208.457875 
L 315.767568 201.854345 
L 315.857775 204.958941 
L 316.038188 201.262931 
L 316.218602 208.950751 
L 316.308809 206.83172 
L 316.399016 207.767923 
L 316.669637 212.843836 
L 316.85005 205.59953 
L 317.030464 214.07584 
L 317.120671 213.878764 
L 317.210878 211.710371 
L 317.301085 206.338844 
L 317.391292 183.176845 
L 317.481498 187.365731 
L 317.571705 187.217831 
L 317.661912 185.591489 
L 317.752119 189.189149 
L 317.842326 188.154221 
L 317.932533 181.796941 
L 318.02274 183.22602 
L 318.112947 185.936465 
L 318.203153 182.092555 
L 318.29336 182.634793 
L 318.383567 186.774317 
L 318.563981 180.515575 
L 318.654188 181.698403 
L 318.744395 183.866797 
L 318.834602 182.930407 
L 318.924808 184.211773 
L 319.105222 192.885158 
L 319.285636 188.00632 
L 319.46605 196.729068 
L 319.646463 193.082234 
L 319.826877 198.700199 
L 320.007291 195.152089 
L 320.187705 190.618227 
L 320.638739 198.010434 
L 320.819153 194.807113 
L 320.90936 195.743504 
L 320.999567 198.256685 
L 321.17998 193.772186 
L 321.270187 195.29999 
L 321.360394 196.33473 
L 321.450601 195.989754 
L 321.631015 198.651023 
L 321.721222 197.172582 
L 321.901635 202.593472 
L 321.991842 202.149958 
L 322.172256 194.905651 
L 322.262463 195.349165 
L 322.442877 200.671516 
L 322.62329 188.351296 
L 322.713497 191.948768 
L 322.803704 189.287686 
L 322.893911 183.275383 
L 323.074325 198.453948 
L 323.254738 187.464269 
L 323.435152 195.891216 
L 323.525359 192.392282 
L 323.79598 198.552486 
L 323.886187 198.108972 
L 324.337221 208.112899 
L 324.427428 207.965186 
L 324.698048 219.891068 
L 324.788255 217.722674 
L 324.878462 213.780226 
L 324.968669 214.618079 
L 325.058876 218.117013 
L 325.23929 206.092406 
L 325.50991 231.028647 
L 325.600117 229.402305 
L 325.780531 236.252367 
L 325.960945 238.026422 
L 326.141358 234.379681 
L 326.231565 236.794419 
L 326.411979 230.240158 
L 326.502186 232.556264 
L 326.592393 230.732846 
L 326.6826 223.537902 
L 326.772807 223.734978 
L 326.863013 227.874501 
L 326.95322 226.494785 
L 327.133634 222.256537 
L 327.314048 223.143564 
L 327.404255 224.769906 
L 327.494462 224.622005 
L 327.584668 224.277029 
L 327.765082 225.952546 
L 327.855289 226.149809 
L 328.035703 227.677426 
L 328.216117 224.277029 
L 328.306323 224.868444 
L 328.39653 224.326392 
L 328.486737 221.615947 
L 328.667151 226.987474 
L 328.757358 224.868444 
L 328.847565 222.897126 
L 329.027978 226.593323 
L 329.208392 232.753339 
L 329.298599 229.697919 
L 329.388806 231.373436 
L 329.479013 238.125054 
L 329.56922 236.74515 
L 329.749633 228.712354 
L 329.83984 228.761716 
L 330.020254 223.094389 
L 330.110461 226.54396 
L 330.290875 216.88501 
L 330.381082 218.018475 
L 330.471288 218.905502 
L 330.561495 218.511164 
L 330.651702 219.250478 
L 330.832116 215.110767 
L 330.922323 216.293595 
L 331.102737 212.055347 
L 331.192943 214.125202 
L 331.373357 205.993868 
L 331.553771 212.794661 
L 331.734185 209.837778 
L 331.914598 212.400323 
L 332.095012 217.870575 
L 332.275426 212.006172 
L 332.45584 217.229985 
L 332.636254 217.969112 
L 332.816667 210.823343 
L 332.997081 212.696124 
L 333.087288 211.513295 
L 333.177495 211.759733 
L 333.448115 217.574961 
L 333.89915 205.106841 
L 333.989357 209.394265 
L 334.079564 208.4087 
L 334.259977 198.848099 
L 334.620805 221.813023 
L 334.711012 220.925995 
L 334.981632 212.597586 
L 335.162046 213.386075 
L 335.252253 210.675631 
L 335.432667 219.349016 
L 335.61308 201.90352 
L 335.973908 209.147827 
L 336.154322 207.767923 
L 336.334735 212.991737 
L 336.515149 204.02255 
L 336.695563 216.441496 
L 336.875977 206.190944 
L 337.05639 215.800719 
L 337.236804 212.745298 
L 337.417218 206.979433 
L 337.507425 208.4087 
L 337.687839 211.31622 
L 337.868252 207.965186 
L 337.958459 210.52773 
L 338.138873 224.277029 
L 338.22908 221.665122 
L 338.319287 214.470178 
L 338.409494 215.258668 
L 338.4997 223.094389 
L 338.589907 222.010098 
L 338.680114 217.476236 
L 338.860528 219.693992 
L 338.950735 220.334581 
L 339.040942 225.262782 
L 339.131149 223.784341 
L 339.221355 218.659064 
L 339.401769 228.022402 
L 339.582183 218.806965 
L 339.67239 219.64463 
L 339.762597 219.546092 
L 339.852804 220.038968 
L 340.033217 223.932053 
L 340.123424 223.981416 
L 340.213631 223.48854 
L 340.394045 218.117013 
L 340.664665 225.459858 
L 340.754872 224.917806 
L 340.935286 231.866312 
L 341.025493 231.718412 
L 341.296114 222.256537 
L 341.38632 223.390002 
L 341.566734 228.662991 
L 341.656941 226.445423 
L 341.837355 233.344753 
L 342.198182 223.48854 
L 342.378596 226.001909 
L 342.739424 218.806965 
L 342.82963 220.482482 
L 343.010044 226.100447 
L 343.190458 220.038968 
L 343.280665 216.589209 
L 343.551285 223.932053 
L 343.731699 228.367378 
L 344.00232 222.404437 
L 344.092527 224.868444 
L 344.27294 218.117013 
L 344.453354 225.410495 
L 344.543561 223.981416 
L 344.633768 225.262782 
L 344.814182 232.309826 
L 344.994595 230.141432 
L 345.175009 233.196853 
L 345.355423 228.564453 
L 345.44563 231.225723 
L 345.71625 216.934185 
L 345.896664 224.523468 
L 345.986871 226.149809 
L 346.077078 224.326392 
L 346.167285 219.201116 
L 346.347699 225.213419 
L 346.437905 223.242101 
L 346.528112 223.784341 
L 346.618319 225.755471 
L 346.798733 220.72892 
L 346.88894 225.952546 
L 346.979147 224.769906 
L 347.069354 222.059461 
L 347.430181 229.599381 
L 347.610595 226.149809 
L 347.791009 230.338696 
L 347.971422 226.642498 
L 348.151836 224.030591 
L 348.33225 228.712354 
L 348.422457 226.396248 
L 348.693077 231.472161 
L 348.873491 236.301636 
L 348.963698 235.562416 
L 349.144112 241.131112 
L 349.324525 235.069633 
L 349.595146 243.989457 
L 349.685353 243.496674 
L 349.77556 243.644481 
L 349.955974 249.804591 
L 350.046181 242.855991 
L 350.136387 244.580777 
L 350.226594 249.410346 
L 350.316801 247.734829 
L 350.407008 248.178343 
L 350.497215 250.543812 
L 350.677629 247.389853 
L 350.858042 253.155719 
L 351.038456 246.699901 
L 351.128663 248.523319 
L 351.309077 243.69375 
L 351.489491 249.163908 
L 351.669904 252.90928 
L 351.850318 252.367229 
L 351.940525 252.860012 
L 352.030732 252.761474 
L 352.301352 251.972984 
L 352.391559 252.958549 
L 352.571973 258.33017 
L 352.752387 258.872315 
L 353.023007 262.272618 
L 353.383835 257.886656 
L 353.474042 260.695639 
L 353.564249 267.003649 
L 353.654456 266.067259 
L 353.834869 251.430839 
L 354.015283 254.781967 
L 354.285904 248.769663 
L 354.466317 255.324018 
L 354.646731 252.90928 
L 354.736938 256.01397 
L 354.917352 248.818932 
L 355.097766 256.999629 
L 355.187972 256.01397 
L 355.368386 259.611442 
L 355.729214 247.044877 
L 355.819421 247.241953 
L 355.999834 255.767532 
L 356.180248 241.574719 
L 356.360662 244.383702 
L 356.450869 242.609553 
L 356.631282 244.087995 
L 356.811696 239.899109 
L 356.99211 236.153736 
L 357.172524 237.681446 
L 357.352937 225.311957 
L 357.443144 226.396248 
L 357.533351 229.20523 
L 357.623558 228.564453 
L 357.713765 229.845819 
L 357.803972 227.529525 
L 357.894179 221.468047 
L 358.074592 257.492412 
L 358.164799 257.147436 
L 358.255006 254.732698 
L 358.43542 259.365098 
L 358.615834 252.662842 
L 358.706041 252.17006 
L 358.796247 249.508884 
L 358.886454 250.740887 
L 358.976661 254.092015 
L 359.157075 247.439122 
L 359.247282 248.720394 
L 359.427696 252.367229 
L 359.517902 251.825084 
L 359.788523 262.223349 
L 360.239557 257.985194 
L 360.419971 259.217197 
L 360.510178 260.05505 
L 360.600385 258.280901 
L 360.780799 252.613573 
L 360.871006 253.303525 
L 360.961212 250.445274 
L 361.051419 250.888788 
L 361.231833 256.161777 
L 361.502454 252.219329 
L 361.592661 252.515036 
L 361.682867 252.022253 
L 361.863281 248.523319 
L 362.043695 248.868201 
L 362.224109 248.572588 
L 362.404522 246.157756 
L 362.494729 246.404194 
L 362.584936 246.552001 
L 362.855557 236.942226 
L 363.035971 237.829347 
L 363.487005 220.186681 
L 363.667419 230.584946 
L 363.847832 223.439365 
L 364.028246 229.402305 
L 364.118453 228.170302 
L 364.298867 230.437233 
L 364.389074 229.747281 
L 364.569487 225.706296 
L 364.749901 229.20523 
L 364.840108 227.48035 
L 365.020522 231.866312 
L 365.110729 228.367378 
L 365.200936 229.500843 
L 365.291142 233.344753 
L 365.65197 223.587077 
L 365.832384 207.373772 
L 365.922591 212.646761 
L 366.193211 204.564789 
L 366.373625 213.731051 
L 366.463832 213.928127 
L 366.824659 222.059461 
L 367.005073 217.722674 
L 367.185487 225.36132 
L 367.365901 215.997795 
L 367.546314 220.285406 
L 367.726728 215.997795 
L 367.816935 217.082085 
L 367.997349 221.320146 
L 368.087556 220.58102 
L 368.267969 226.54396 
L 368.358176 226.297522 
L 368.719004 236.400174 
L 368.899418 234.379681 
L 369.079831 241.673257 
L 369.170038 242.116771 
L 369.350452 250.149567 
L 369.440659 247.685466 
L 369.530866 250.839519 
L 369.711279 262.814763 
L 369.891693 264.835256 
L 369.9819 264.49028 
L 370.072107 265.032425 
L 370.162314 264.391742 
L 370.252521 260.991346 
L 370.342728 261.040615 
L 370.432934 263.751059 
L 370.523141 263.011838 
L 370.703555 267.052918 
L 370.883969 260.05505 
L 370.974176 262.469787 
L 371.154589 259.365098 
L 371.244796 264.046766 
L 371.515417 259.167928 
L 371.695831 251.923622 
L 371.786038 254.289184 
L 371.966451 246.74917 
L 372.056658 248.326149 
L 372.146865 251.135132 
L 372.237072 250.494543 
L 372.417486 247.192684 
L 372.597899 253.747039 
L 372.778313 244.630046 
L 372.958727 247.981173 
L 373.680382 231.077822 
L 373.860796 236.892957 
L 374.131416 228.662991 
L 374.31183 275.923473 
L 374.402037 274.543569 
L 374.492244 274.839277 
L 374.582451 276.21918 
L 374.762864 268.432728 
L 374.853071 268.580628 
L 375.033485 275.627766 
L 375.304106 284.350514 
L 375.484519 275.430691 
L 375.664933 277.352646 
L 375.75514 277.056939 
L 375.935554 282.37929 
L 376.025761 282.034314 
L 376.206174 273.065128 
L 376.476795 277.993235 
L 376.657209 275.627766 
L 376.837623 281.738607 
L 377.108243 271.192535 
L 377.288657 277.500452 
L 377.469071 269.073411 
L 377.559278 270.206877 
L 377.739691 273.311566 
L 377.829898 275.036446 
L 378.010312 266.313697 
L 378.100519 268.482091 
L 378.190726 267.890677 
L 378.551553 260.942077 
L 378.731967 267.74287 
L 378.912381 261.040615 
L 379.002588 262.37125 
L 379.092794 266.362966 
L 379.273208 257.295242 
L 379.363415 258.133095 
L 379.453622 257.886656 
L 379.543829 254.436991 
L 379.634036 254.929773 
L 379.724243 255.866163 
L 379.814449 253.599232 
L 379.994863 254.732698 
L 380.265484 245.960681 
L 380.355691 244.679409 
L 380.445898 244.876484 
L 380.536104 244.186532 
L 380.626311 241.968964 
L 380.806725 246.995609 
L 380.987139 235.315977 
L 381.167553 238.27286 
L 381.257759 237.139395 
L 381.347966 236.104467 
L 381.52838 237.435102 
L 381.618587 236.892957 
L 381.889208 227.578888 
L 381.979414 229.648744 
L 382.069621 230.486408 
L 382.250035 222.552337 
L 382.430449 232.309826 
L 382.520656 231.817137 
L 382.791276 223.340827 
L 382.881483 222.70005 
L 382.97169 225.213419 
L 383.061897 224.030591 
L 383.422724 211.661196 
L 383.603138 214.913692 
L 383.783552 207.324409 
L 383.963966 196.187017 
L 384.144379 202.05142 
L 384.415 192.490819 
L 384.595414 180.072062 
L 384.685621 182.338993 
L 384.775828 180.219962 
L 384.956241 169.870872 
L 385.046448 168.983845 
L 385.136655 170.9058 
L 385.226862 169.821697 
L 385.317069 166.667738 
L 385.497483 169.723159 
L 385.677896 159.620507 
L 385.768103 160.606072 
L 386.038724 153.95318 
L 386.309345 139.021052 
L 386.399551 140.351781 
L 386.489758 141.386521 
L 386.579965 139.858905 
L 386.760379 126.109606 
L 386.850586 126.257318 
L 386.940793 128.770688 
L 387.121206 124.631164 
L 387.211413 125.370291 
L 387.391827 112.409482 
L 387.572241 114.47915 
L 387.662448 112.409482 
L 387.842861 113.887923 
L 387.933068 113.493584 
L 388.023275 113.592122 
L 388.203689 111.71953 
L 388.293896 112.705095 
L 388.47431 105.313075 
L 388.654723 107.530644 
L 388.835137 100.335699 
L 388.925344 101.616878 
L 389.015551 101.469165 
L 389.195965 101.173364 
L 389.376378 102.208292 
L 389.556792 101.074827 
L 389.646999 102.503905 
L 389.737206 100.286337 
L 389.91762 94.274033 
L 390.007826 95.358324 
L 390.098033 95.210423 
L 390.278447 95.752475 
L 390.368654 97.083016 
L 390.458861 166.766276 
L 390.549068 165.386373 
L 390.639275 163.415242 
L 390.819688 164.203732 
L 390.909895 164.30227 
L 391.000102 165.435735 
L 391.090309 163.51378 
L 391.180516 159.029093 
L 391.270723 159.965483 
L 391.451136 166.2734 
L 391.541343 162.971729 
L 391.721757 166.4213 
L 391.902171 163.612318 
L 392.082585 167.20979 
L 392.353205 178.199469 
L 392.443412 177.263079 
L 392.533619 176.326689 
L 392.623826 176.573127 
L 392.80424 175.6861 
L 392.984653 177.263079 
L 393.255274 182.338993 
L 393.345481 181.599866 
L 393.616101 189.8791 
L 393.706308 188.400659 
L 393.796515 188.548372 
L 393.886722 191.948768 
L 393.976929 191.751693 
L 394.067136 190.371789 
L 394.24755 200.277365 
L 394.427963 186.675779 
L 394.608377 193.180771 
L 394.698584 192.835795 
L 395.059411 196.778244 
L 395.239825 200.277365 
L 395.330032 200.17864 
L 395.510446 205.353279 
L 395.600653 207.275234 
L 395.69086 207.077971 
L 395.781066 208.112899 
L 395.96148 214.963055 
L 396.051687 214.273103 
L 396.141894 212.351148 
L 396.232101 212.49886 
L 396.412515 212.153884 
L 396.592928 215.899257 
L 396.683135 213.829589 
L 396.863549 218.363451 
L 397.043963 212.548223 
L 397.224376 218.708427 
L 397.314583 217.624137 
L 397.494997 219.201116 
L 397.585204 216.786472 
L 397.675411 217.279161 
L 397.765618 220.72892 
L 397.855825 217.870575 
L 397.946031 209.739241 
L 398.036238 210.921881 
L 398.216652 219.595454 
L 398.397066 215.653006 
L 398.487273 210.823343 
L 398.487273 210.823343 
" clip-path="url(#p3e6cf3685d)" style="fill: none; stroke: #1f77b4; stroke-width: 1.5; stroke-linecap: square"/>
   </g>
   <g id="patch_3">
    <path d="M 57.6 307.584 
L 57.6 41.472 
" style="fill: none; stroke: #000000; stroke-width: 0.8; stroke-linejoin: miter; stroke-linecap: square"/>
   </g>
   <g id="patch_4">
    <path d="M 414.72 307.584 
L 414.72 41.472 
" style="fill: none; stroke: #000000; stroke-width: 0.8; stroke-linejoin: miter; stroke-linecap: square"/>
   </g>
   <g id="patch_5">
    <path d="M 57.6 307.584 
L 414.72 307.584 
" style="fill: none; stroke: #000000; stroke-width: 0.8; stroke-linejoin: miter; stroke-linecap: square"/>
   </g>
   <g id="patch_6">
    <path d="M 57.6 41.472 
L 414.72 41.472 
" style="fill: none; stroke: #000000; stroke-width: 0.8; stroke-linejoin: miter; stroke-linecap: square"/>
   </g>
   <g id="legend_1">
    <g id="patch_7">
     <path d="M 354.074688 64.150125 
L 407.72 64.150125 
Q 409.72 64.150125 409.72 62.150125 
L 409.72 48.472 
Q 409.72 46.472 407.72 46.472 
L 354.074688 46.472 
Q 352.074688 46.472 352.074688 48.472 
L 352.074688 62.150125 
Q 352.074688 64.150125 354.074688 64.150125 
z
" style="fill: #ffffff; opacity: 0.8; stroke: #cccccc; stroke-linejoin: miter"/>
    </g>
    <g id="line2d_17">
     <path d="M 356.074688 54.570438 
L 366.074688 54.570438 
L 376.074688 54.570438 
" style="fill: none; stroke: #1f77b4; stroke-width: 1.5; stroke-linecap: square"/>
    </g>
    <g id="text_16">
     <!-- set1 -->
     <g transform="translate(384.074688 58.070438)scale(0.1 -0.1)">
      <defs>
       <path id="DejaVuSans-73" d="M 2834 3397 
L 2834 2853 
Q 2591 2978 2328 3040 
Q 2066 3103 1784 3103 
Q 1356 3103 1142 2972 
Q 928 2841 928 2578 
Q 928 2378 1081 2264 
Q 1234 2150 1697 2047 
L 1894 2003 
Q 2506 1872 2764 1633 
Q 3022 1394 3022 966 
Q 3022 478 2636 193 
Q 2250 -91 1575 -91 
Q 1294 -91 989 -36 
Q 684 19 347 128 
L 347 722 
Q 666 556 975 473 
Q 1284 391 1588 391 
Q 1994 391 2212 530 
Q 2431 669 2431 922 
Q 2431 1156 2273 1281 
Q 2116 1406 1581 1522 
L 1381 1569 
Q 847 1681 609 1914 
Q 372 2147 372 2553 
Q 372 3047 722 3315 
Q 1072 3584 1716 3584 
Q 2034 3584 2315 3537 
Q 2597 3491 2834 3397 
z
" transform="scale(0.015625)"/>
       <path id="DejaVuSans-65" d="M 3597 1894 
L 3597 1613 
L 953 1613 
Q 991 1019 1311 708 
Q 1631 397 2203 397 
Q 2534 397 2845 478 
Q 3156 559 3463 722 
L 3463 178 
Q 3153 47 2828 -22 
Q 2503 -91 2169 -91 
Q 1331 -91 842 396 
Q 353 884 353 1716 
Q 353 2575 817 3079 
Q 1281 3584 2069 3584 
Q 2775 3584 3186 3129 
Q 3597 2675 3597 1894 
z
M 3022 2063 
Q 3016 2534 2758 2815 
Q 2500 3097 2075 3097 
Q 1594 3097 1305 2825 
Q 1016 2553 972 2059 
L 3022 2063 
z
" transform="scale(0.015625)"/>
       <path id="DejaVuSans-74" d="M 1172 4494 
L 1172 3500 
L 2356 3500 
L 2356 3053 
L 1172 3053 
L 1172 1153 
Q 1172 725 1289 603 
Q 1406 481 1766 481 
L 2356 481 
L 2356 0 
L 1766 0 
Q 1100 0 847 248 
Q 594 497 594 1153 
L 594 3053 
L 172 3053 
L 172 3500 
L 594 3500 
L 594 4494 
L 1172 4494 
z
" transform="scale(0.015625)"/>
      </defs>
      <use xlink:href="#DejaVuSans-73"/>
      <use xlink:href="#DejaVuSans-65" x="52.099609"/>
      <use xlink:href="#DejaVuSans-74" x="113.623047"/>
      <use xlink:href="#DejaVuSans-31" x="152.832031"/>
     </g>
    </g>
   </g>
  </g>
 </g>
 <defs>
  <clipPath id="p3e6cf3685d">
   <rect x="57.6" y="41.472" width="357.12" height="266.112"/>
  </clipPath>
 </defs>
</svg>
