<?xml version="1.0" encoding="utf-8" standalone="no"?>
<!DOCTYPE svg PUBLIC "-//W3C//DTD SVG 1.1//EN"
  "http://www.w3.org/Graphics/SVG/1.1/DTD/svg11.dtd">
<svg xmlns:xlink="http://www.w3.org/1999/xlink" width="460.8pt" height="345.6pt" viewBox="0 0 460.8 345.6" xmlns="http://www.w3.org/2000/svg" version="1.1">
 <metadata>
  <rdf:RDF xmlns:dc="http://purl.org/dc/elements/1.1/" xmlns:cc="http://creativecommons.org/ns#" xmlns:rdf="http://www.w3.org/1999/02/22-rdf-syntax-ns#">
   <cc:Work>
    <dc:type rdf:resource="http://purl.org/dc/dcmitype/StillImage"/>
    <dc:date>2022-08-11T15:18:07.871974</dc:date>
    <dc:format>image/svg+xml</dc:format>
    <dc:creator>
     <cc:Agent>
      <dc:title>Matplotlib v3.5.2, https://matplotlib.org/</dc:title>
     </cc:Agent>
    </dc:creator>
   </cc:Work>
  </rdf:RDF>
 </metadata>
 <defs>
  <style type="text/css">*{stroke-linejoin: round; stroke-linecap: butt}</style>
 </defs>
 <g id="figure_1">
  <g id="patch_1">
   <path d="M 0 345.6 
L 460.8 345.6 
L 460.8 0 
L 0 0 
z
" style="fill: #ffffff"/>
  </g>
  <g id="axes_1">
   <g id="patch_2">
    <path d="M 57.6 307.584 
L 414.72 307.584 
L 414.72 41.472 
L 57.6 41.472 
z
" style="fill: #ffffff"/>
   </g>
   <g id="matplotlib.axis_1">
    <g id="xtick_1">
     <g id="line2d_1">
      <defs>
       <path id="m2a9623e6bc" d="M 0 0 
L 0 3.5 
" style="stroke: #000000; stroke-width: 0.8"/>
      </defs>
      <g>
       <use xlink:href="#m2a9623e6bc" x="73.832727" y="307.584" style="stroke: #000000; stroke-width: 0.8"/>
      </g>
     </g>
     <g id="text_1">
      <!-- 0 -->
      <g transform="translate(70.651477 322.182437)scale(0.1 -0.1)">
       <defs>
        <path id="DejaVuSans-30" d="M 2034 4250 
Q 1547 4250 1301 3770 
Q 1056 3291 1056 2328 
Q 1056 1369 1301 889 
Q 1547 409 2034 409 
Q 2525 409 2770 889 
Q 3016 1369 3016 2328 
Q 3016 3291 2770 3770 
Q 2525 4250 2034 4250 
z
M 2034 4750 
Q 2819 4750 3233 4129 
Q 3647 3509 3647 2328 
Q 3647 1150 3233 529 
Q 2819 -91 2034 -91 
Q 1250 -91 836 529 
Q 422 1150 422 2328 
Q 422 3509 836 4129 
Q 1250 4750 2034 4750 
z
" transform="scale(0.015625)"/>
       </defs>
       <use xlink:href="#DejaVuSans-30"/>
      </g>
     </g>
    </g>
    <g id="xtick_2">
     <g id="line2d_2">
      <g>
       <use xlink:href="#m2a9623e6bc" x="118.936165" y="307.584" style="stroke: #000000; stroke-width: 0.8"/>
      </g>
     </g>
     <g id="text_2">
      <!-- 500 -->
      <g transform="translate(109.392415 322.182437)scale(0.1 -0.1)">
       <defs>
        <path id="DejaVuSans-35" d="M 691 4666 
L 3169 4666 
L 3169 4134 
L 1269 4134 
L 1269 2991 
Q 1406 3038 1543 3061 
Q 1681 3084 1819 3084 
Q 2600 3084 3056 2656 
Q 3513 2228 3513 1497 
Q 3513 744 3044 326 
Q 2575 -91 1722 -91 
Q 1428 -91 1123 -41 
Q 819 9 494 109 
L 494 744 
Q 775 591 1075 516 
Q 1375 441 1709 441 
Q 2250 441 2565 725 
Q 2881 1009 2881 1497 
Q 2881 1984 2565 2268 
Q 2250 2553 1709 2553 
Q 1456 2553 1204 2497 
Q 953 2441 691 2322 
L 691 4666 
z
" transform="scale(0.015625)"/>
       </defs>
       <use xlink:href="#DejaVuSans-35"/>
       <use xlink:href="#DejaVuSans-30" x="63.623047"/>
       <use xlink:href="#DejaVuSans-30" x="127.246094"/>
      </g>
     </g>
    </g>
    <g id="xtick_3">
     <g id="line2d_3">
      <g>
       <use xlink:href="#m2a9623e6bc" x="164.039603" y="307.584" style="stroke: #000000; stroke-width: 0.8"/>
      </g>
     </g>
     <g id="text_3">
      <!-- 1000 -->
      <g transform="translate(151.314603 322.182437)scale(0.1 -0.1)">
       <defs>
        <path id="DejaVuSans-31" d="M 794 531 
L 1825 531 
L 1825 4091 
L 703 3866 
L 703 4441 
L 1819 4666 
L 2450 4666 
L 2450 531 
L 3481 531 
L 3481 0 
L 794 0 
L 794 531 
z
" transform="scale(0.015625)"/>
       </defs>
       <use xlink:href="#DejaVuSans-31"/>
       <use xlink:href="#DejaVuSans-30" x="63.623047"/>
       <use xlink:href="#DejaVuSans-30" x="127.246094"/>
       <use xlink:href="#DejaVuSans-30" x="190.869141"/>
      </g>
     </g>
    </g>
    <g id="xtick_4">
     <g id="line2d_4">
      <g>
       <use xlink:href="#m2a9623e6bc" x="209.143041" y="307.584" style="stroke: #000000; stroke-width: 0.8"/>
      </g>
     </g>
     <g id="text_4">
      <!-- 1500 -->
      <g transform="translate(196.418041 322.182437)scale(0.1 -0.1)">
       <use xlink:href="#DejaVuSans-31"/>
       <use xlink:href="#DejaVuSans-35" x="63.623047"/>
       <use xlink:href="#DejaVuSans-30" x="127.246094"/>
       <use xlink:href="#DejaVuSans-30" x="190.869141"/>
      </g>
     </g>
    </g>
    <g id="xtick_5">
     <g id="line2d_5">
      <g>
       <use xlink:href="#m2a9623e6bc" x="254.246479" y="307.584" style="stroke: #000000; stroke-width: 0.8"/>
      </g>
     </g>
     <g id="text_5">
      <!-- 2000 -->
      <g transform="translate(241.521479 322.182437)scale(0.1 -0.1)">
       <defs>
        <path id="DejaVuSans-32" d="M 1228 531 
L 3431 531 
L 3431 0 
L 469 0 
L 469 531 
Q 828 903 1448 1529 
Q 2069 2156 2228 2338 
Q 2531 2678 2651 2914 
Q 2772 3150 2772 3378 
Q 2772 3750 2511 3984 
Q 2250 4219 1831 4219 
Q 1534 4219 1204 4116 
Q 875 4013 500 3803 
L 500 4441 
Q 881 4594 1212 4672 
Q 1544 4750 1819 4750 
Q 2544 4750 2975 4387 
Q 3406 4025 3406 3419 
Q 3406 3131 3298 2873 
Q 3191 2616 2906 2266 
Q 2828 2175 2409 1742 
Q 1991 1309 1228 531 
z
" transform="scale(0.015625)"/>
       </defs>
       <use xlink:href="#DejaVuSans-32"/>
       <use xlink:href="#DejaVuSans-30" x="63.623047"/>
       <use xlink:href="#DejaVuSans-30" x="127.246094"/>
       <use xlink:href="#DejaVuSans-30" x="190.869141"/>
      </g>
     </g>
    </g>
    <g id="xtick_6">
     <g id="line2d_6">
      <g>
       <use xlink:href="#m2a9623e6bc" x="299.349916" y="307.584" style="stroke: #000000; stroke-width: 0.8"/>
      </g>
     </g>
     <g id="text_6">
      <!-- 2500 -->
      <g transform="translate(286.624916 322.182437)scale(0.1 -0.1)">
       <use xlink:href="#DejaVuSans-32"/>
       <use xlink:href="#DejaVuSans-35" x="63.623047"/>
       <use xlink:href="#DejaVuSans-30" x="127.246094"/>
       <use xlink:href="#DejaVuSans-30" x="190.869141"/>
      </g>
     </g>
    </g>
    <g id="xtick_7">
     <g id="line2d_7">
      <g>
       <use xlink:href="#m2a9623e6bc" x="344.453354" y="307.584" style="stroke: #000000; stroke-width: 0.8"/>
      </g>
     </g>
     <g id="text_7">
      <!-- 3000 -->
      <g transform="translate(331.728354 322.182437)scale(0.1 -0.1)">
       <defs>
        <path id="DejaVuSans-33" d="M 2597 2516 
Q 3050 2419 3304 2112 
Q 3559 1806 3559 1356 
Q 3559 666 3084 287 
Q 2609 -91 1734 -91 
Q 1441 -91 1130 -33 
Q 819 25 488 141 
L 488 750 
Q 750 597 1062 519 
Q 1375 441 1716 441 
Q 2309 441 2620 675 
Q 2931 909 2931 1356 
Q 2931 1769 2642 2001 
Q 2353 2234 1838 2234 
L 1294 2234 
L 1294 2753 
L 1863 2753 
Q 2328 2753 2575 2939 
Q 2822 3125 2822 3475 
Q 2822 3834 2567 4026 
Q 2313 4219 1838 4219 
Q 1578 4219 1281 4162 
Q 984 4106 628 3988 
L 628 4550 
Q 988 4650 1302 4700 
Q 1616 4750 1894 4750 
Q 2613 4750 3031 4423 
Q 3450 4097 3450 3541 
Q 3450 3153 3228 2886 
Q 3006 2619 2597 2516 
z
" transform="scale(0.015625)"/>
       </defs>
       <use xlink:href="#DejaVuSans-33"/>
       <use xlink:href="#DejaVuSans-30" x="63.623047"/>
       <use xlink:href="#DejaVuSans-30" x="127.246094"/>
       <use xlink:href="#DejaVuSans-30" x="190.869141"/>
      </g>
     </g>
    </g>
    <g id="xtick_8">
     <g id="line2d_8">
      <g>
       <use xlink:href="#m2a9623e6bc" x="389.556792" y="307.584" style="stroke: #000000; stroke-width: 0.8"/>
      </g>
     </g>
     <g id="text_8">
      <!-- 3500 -->
      <g transform="translate(376.831792 322.182437)scale(0.1 -0.1)">
       <use xlink:href="#DejaVuSans-33"/>
       <use xlink:href="#DejaVuSans-35" x="63.623047"/>
       <use xlink:href="#DejaVuSans-30" x="127.246094"/>
       <use xlink:href="#DejaVuSans-30" x="190.869141"/>
      </g>
     </g>
    </g>
   </g>
   <g id="matplotlib.axis_2">
    <g id="ytick_1">
     <g id="line2d_9">
      <defs>
       <path id="m0b2c14d6e4" d="M 0 0 
L -3.5 0 
" style="stroke: #000000; stroke-width: 0.8"/>
      </defs>
      <g>
       <use xlink:href="#m0b2c14d6e4" x="57.6" y="305.96835" style="stroke: #000000; stroke-width: 0.8"/>
      </g>
     </g>
     <g id="text_9">
      <!-- 3900 -->
      <g transform="translate(25.15 309.767568)scale(0.1 -0.1)">
       <defs>
        <path id="DejaVuSans-39" d="M 703 97 
L 703 672 
Q 941 559 1184 500 
Q 1428 441 1663 441 
Q 2288 441 2617 861 
Q 2947 1281 2994 2138 
Q 2813 1869 2534 1725 
Q 2256 1581 1919 1581 
Q 1219 1581 811 2004 
Q 403 2428 403 3163 
Q 403 3881 828 4315 
Q 1253 4750 1959 4750 
Q 2769 4750 3195 4129 
Q 3622 3509 3622 2328 
Q 3622 1225 3098 567 
Q 2575 -91 1691 -91 
Q 1453 -91 1209 -44 
Q 966 3 703 97 
z
M 1959 2075 
Q 2384 2075 2632 2365 
Q 2881 2656 2881 3163 
Q 2881 3666 2632 3958 
Q 2384 4250 1959 4250 
Q 1534 4250 1286 3958 
Q 1038 3666 1038 3163 
Q 1038 2656 1286 2365 
Q 1534 2075 1959 2075 
z
" transform="scale(0.015625)"/>
       </defs>
       <use xlink:href="#DejaVuSans-33"/>
       <use xlink:href="#DejaVuSans-39" x="63.623047"/>
       <use xlink:href="#DejaVuSans-30" x="127.246094"/>
       <use xlink:href="#DejaVuSans-30" x="190.869141"/>
      </g>
     </g>
    </g>
    <g id="ytick_2">
     <g id="line2d_10">
      <g>
       <use xlink:href="#m0b2c14d6e4" x="57.6" y="257.309838" style="stroke: #000000; stroke-width: 0.8"/>
      </g>
     </g>
     <g id="text_10">
      <!-- 4000 -->
      <g transform="translate(25.15 261.109056)scale(0.1 -0.1)">
       <defs>
        <path id="DejaVuSans-34" d="M 2419 4116 
L 825 1625 
L 2419 1625 
L 2419 4116 
z
M 2253 4666 
L 3047 4666 
L 3047 1625 
L 3713 1625 
L 3713 1100 
L 3047 1100 
L 3047 0 
L 2419 0 
L 2419 1100 
L 313 1100 
L 313 1709 
L 2253 4666 
z
" transform="scale(0.015625)"/>
       </defs>
       <use xlink:href="#DejaVuSans-34"/>
       <use xlink:href="#DejaVuSans-30" x="63.623047"/>
       <use xlink:href="#DejaVuSans-30" x="127.246094"/>
       <use xlink:href="#DejaVuSans-30" x="190.869141"/>
      </g>
     </g>
    </g>
    <g id="ytick_3">
     <g id="line2d_11">
      <g>
       <use xlink:href="#m0b2c14d6e4" x="57.6" y="208.651326" style="stroke: #000000; stroke-width: 0.8"/>
      </g>
     </g>
     <g id="text_11">
      <!-- 4100 -->
      <g transform="translate(25.15 212.450544)scale(0.1 -0.1)">
       <use xlink:href="#DejaVuSans-34"/>
       <use xlink:href="#DejaVuSans-31" x="63.623047"/>
       <use xlink:href="#DejaVuSans-30" x="127.246094"/>
       <use xlink:href="#DejaVuSans-30" x="190.869141"/>
      </g>
     </g>
    </g>
    <g id="ytick_4">
     <g id="line2d_12">
      <g>
       <use xlink:href="#m0b2c14d6e4" x="57.6" y="159.992814" style="stroke: #000000; stroke-width: 0.8"/>
      </g>
     </g>
     <g id="text_12">
      <!-- 4200 -->
      <g transform="translate(25.15 163.792032)scale(0.1 -0.1)">
       <use xlink:href="#DejaVuSans-34"/>
       <use xlink:href="#DejaVuSans-32" x="63.623047"/>
       <use xlink:href="#DejaVuSans-30" x="127.246094"/>
       <use xlink:href="#DejaVuSans-30" x="190.869141"/>
      </g>
     </g>
    </g>
    <g id="ytick_5">
     <g id="line2d_13">
      <g>
       <use xlink:href="#m0b2c14d6e4" x="57.6" y="111.334302" style="stroke: #000000; stroke-width: 0.8"/>
      </g>
     </g>
     <g id="text_13">
      <!-- 4300 -->
      <g transform="translate(25.15 115.133521)scale(0.1 -0.1)">
       <use xlink:href="#DejaVuSans-34"/>
       <use xlink:href="#DejaVuSans-33" x="63.623047"/>
       <use xlink:href="#DejaVuSans-30" x="127.246094"/>
       <use xlink:href="#DejaVuSans-30" x="190.869141"/>
      </g>
     </g>
    </g>
    <g id="ytick_6">
     <g id="line2d_14">
      <g>
       <use xlink:href="#m0b2c14d6e4" x="57.6" y="62.67579" style="stroke: #000000; stroke-width: 0.8"/>
      </g>
     </g>
     <g id="text_14">
      <!-- 4400 -->
      <g transform="translate(25.15 66.475009)scale(0.1 -0.1)">
       <use xlink:href="#DejaVuSans-34"/>
       <use xlink:href="#DejaVuSans-34" x="63.623047"/>
       <use xlink:href="#DejaVuSans-30" x="127.246094"/>
       <use xlink:href="#DejaVuSans-30" x="190.869141"/>
      </g>
     </g>
    </g>
   </g>
   <g id="line2d_15">
    <path d="M 73.832727 152.194859 
L 73.922934 146.892555 
L 74.013141 147.142025 
L 74.103348 150.822538 
L 74.193555 148.576833 
L 74.373969 139.281822 
L 74.554382 137.722278 
L 74.734796 145.956686 
L 75.005417 137.659792 
L 75.456451 147.640964 
L 75.636865 153.255463 
L 75.727072 148.015407 
L 75.817279 148.202391 
L 75.907485 153.504933 
L 75.997692 153.442684 
L 76.087899 149.82442 
L 76.268313 151.758406 
L 76.448727 146.580599 
L 76.538934 146.830068 
L 76.62914 145.831951 
L 76.809554 154.00411 
L 76.899761 152.257346 
L 76.989968 145.831951 
L 77.080175 148.140142 
L 77.260589 153.879375 
L 77.441002 151.94539 
L 77.531209 153.567419 
L 77.711623 159.119431 
L 77.80183 157.622374 
L 77.892037 159.181918 
L 77.982244 158.745227 
L 78.07245 159.306653 
L 78.162657 166.667678 
L 78.252864 166.168738 
L 78.433278 157.185683 
L 78.523485 162.238518 
L 78.613692 161.115666 
L 78.974519 152.569302 
L 79.24514 160.491991 
L 79.335347 158.93221 
L 79.425554 155.376432 
L 79.51576 155.87561 
L 79.876588 169.849251 
L 79.966795 169.41256 
L 80.147209 159.618609 
L 80.417829 168.102487 
L 80.598243 165.295356 
L 80.68845 166.230987 
L 80.868864 158.495519 
L 81.049277 168.726399 
L 81.139484 168.352194 
L 81.319898 161.115666 
L 81.590519 168.539178 
L 81.680725 165.482578 
L 81.770932 165.794296 
L 81.861139 168.788885 
L 81.951346 70.723214 
L 82.041553 73.031405 
L 82.13176 75.089888 
L 82.312174 91.434206 
L 82.582794 76.587182 
L 83.214242 94.054353 
L 83.304449 93.18097 
L 83.394656 89.625193 
L 83.57507 103.162143 
L 83.755484 96.549527 
L 83.935897 109.275581 
L 84.116311 105.719803 
L 84.747759 126.431033 
L 84.928173 133.417854 
L 85.198794 134.790175 
L 85.379207 138.15897 
L 85.469414 136.53694 
L 85.559621 137.03588 
L 85.740035 145.956686 
L 85.830242 143.773231 
L 85.920449 145.270525 
L 86.100862 158.495519 
L 86.191069 153.068242 
L 86.281276 154.128845 
L 86.551897 167.042121 
L 86.642104 166.917386 
L 86.73231 162.113783 
L 86.912724 175.900441 
L 87.002931 174.340898 
L 87.093138 173.716985 
L 87.273552 188.189803 
L 87.363759 180.891027 
L 87.453965 183.947865 
L 87.544172 192.307007 
L 87.634379 191.55836 
L 87.724586 190.497994 
L 87.905 198.170976 
L 87.995207 195.800537 
L 88.085414 196.112493 
L 88.265827 201.290063 
L 88.356034 200.853371 
L 88.716862 213.080486 
L 88.807069 212.643795 
L 88.987482 206.46787 
L 89.258103 220.940689 
L 89.34831 222.562718 
L 89.438517 220.691219 
L 89.528724 222.06366 
L 89.618931 228.800891 
L 89.709137 228.489054 
L 89.799344 224.558953 
L 89.889551 226.430452 
L 89.979758 230.859612 
L 90.160172 218.258293 
L 90.250379 222.749821 
L 90.340586 232.793479 
L 90.430792 232.169567 
L 90.611206 224.62132 
L 90.701413 223.68557 
L 90.79162 221.190277 
L 90.972034 229.237583 
L 91.152447 216.511529 
L 91.513275 232.107199 
L 91.603482 233.042949 
L 91.693689 230.173332 
L 91.783896 232.044832 
L 91.964309 242.275593 
L 92.054516 237.9088 
L 92.23493 244.20946 
L 92.325137 241.464578 
L 92.415344 244.084725 
L 92.505551 250.011061 
L 92.685964 241.527064 
L 92.866378 255.313603 
L 92.956585 247.827724 
L 93.046792 249.512002 
L 93.136999 257.621794 
L 93.317412 255.064014 
L 93.407619 262.425277 
L 93.497826 261.9261 
L 93.67824 255.188868 
L 93.768447 255.126501 
L 93.858654 254.876912 
L 94.219481 264.670982 
L 94.309688 263.735232 
L 94.399895 266.854438 
L 94.490102 277.397036 
L 94.580309 276.461286 
L 94.670516 267.790187 
L 94.760722 269.474466 
L 94.850929 273.965993 
L 95.031343 268.413981 
L 95.12155 270.722172 
L 95.211757 270.035892 
L 95.301964 268.289246 
L 95.482377 273.529302 
L 95.662791 271.720289 
L 96.023619 280.07955 
L 96.113826 278.083316 
L 96.294239 284.196754 
L 96.384446 282.761946 
L 96.474653 282.699578 
L 96.56486 284.259121 
L 96.745274 281.888682 
L 96.835481 282.20052 
L 96.925687 281.888682 
L 97.106101 295.488 
L 97.286515 282.8868 
L 97.376722 284.50871 
L 97.466929 282.8868 
L 97.557136 275.837493 
L 97.647342 276.523654 
L 97.827756 285.319725 
L 97.917963 283.635328 
L 98.098377 292.244178 
L 98.278791 84.197915 
L 98.459204 82.825356 
L 98.639618 74.528462 
L 98.729825 76.961387 
L 98.820032 76.399961 
L 98.910239 70.099302 
L 99.000446 70.847949 
L 99.090652 75.027639 
L 99.271066 63.923377 
L 99.45148 71.222154 
L 99.631894 68.726979 
L 99.812307 72.844183 
L 99.902514 72.407492 
L 100.082928 61.927143 
L 100.263342 66.418789 
L 100.353549 65.794876 
L 100.533962 74.590948 
L 100.624169 73.717566 
L 100.714376 72.220271 
L 100.804583 73.655079 
L 100.984997 72.469978 
L 101.165411 85.008811 
L 101.345824 80.39243 
L 101.436031 83.885959 
L 101.526238 83.698738 
L 101.616445 82.076708 
L 101.887066 91.12225 
L 102.067479 89.437971 
L 102.518514 108.027994 
L 102.698927 104.347481 
L 102.879341 115.950683 
L 103.059755 106.842655 
L 103.330376 118.8203 
L 103.510789 114.515875 
L 103.691203 121.12849 
L 103.78141 124.621782 
L 103.871617 123.561416 
L 103.961824 120.317357 
L 104.052031 121.752165 
L 104.142237 125.307943 
L 104.322651 121.253226 
L 104.412858 128.115311 
L 104.503065 126.992459 
L 104.593272 121.939386 
L 104.773686 131.234398 
L 104.863892 130.672971 
L 104.954099 130.984928 
L 105.22472 138.720396 
L 105.314927 138.782644 
L 105.495341 133.72981 
L 105.585548 135.913028 
L 105.675754 141.340305 
L 105.856168 135.351602 
L 106.036582 147.266759 
L 106.126789 142.837599 
L 106.216996 145.208039 
L 106.307203 138.283705 
L 106.397409 139.468805 
L 106.577823 147.391495 
L 106.758237 136.661675 
L 106.848444 139.718513 
L 106.938651 139.219335 
L 107.028858 136.599189 
L 107.209271 144.896083 
L 107.299478 142.962335 
L 107.389685 145.208039 
L 107.479892 152.881258 
L 107.570099 150.947272 
L 107.750513 142.712865 
L 107.840719 144.459629 
L 108.021133 142.400908 
L 108.381961 152.881258 
L 108.562374 150.448333 
L 108.742788 157.310418 
L 108.923202 151.695919 
L 109.013409 152.943507 
L 109.193823 151.820655 
L 109.284029 154.191331 
L 109.374236 153.879375 
L 109.464443 154.565536 
L 109.644857 159.680858 
L 109.915478 158.43327 
L 110.005684 158.495519 
L 110.095891 160.928445 
L 110.276305 157.622374 
L 110.456719 170.909855 
L 110.637133 165.732047 
L 110.727339 168.414443 
L 110.907753 156.37455 
L 111.088167 169.537295 
L 111.178374 167.416326 
L 111.268581 164.858665 
L 111.448994 176.524115 
L 111.629408 166.168738 
L 111.719615 168.040238 
L 111.900029 160.429505 
L 112.351063 177.709454 
L 112.531477 174.153676 
L 112.621684 175.713219 
L 112.711891 175.089545 
L 112.802098 175.276528 
L 112.982511 181.764409 
L 113.162925 181.140497 
L 113.343339 165.669561 
L 113.523753 181.015762 
L 113.613959 179.206749 
L 113.704166 175.401263 
L 113.88458 182.138614 
L 113.974787 182.013879 
L 114.155201 184.010114 
L 114.335614 180.080131 
L 114.516028 190.685215 
L 114.606235 189.375142 
L 114.696442 190.560243 
L 114.876856 196.237228 
L 115.057269 189.624612 
L 115.147476 189.312656 
L 115.237683 189.936568 
L 115.418097 197.672036 
L 115.598511 192.556478 
L 115.778924 196.985875 
L 115.959338 195.23911 
L 116.229959 205.157796 
L 116.410373 202.28818 
L 116.500579 204.596371 
L 116.590786 203.91021 
L 116.7712 201.103079 
L 116.861407 200.291945 
L 117.041821 196.299476 
L 117.222234 199.605784 
L 117.312441 198.98211 
L 117.492855 200.853371 
L 117.673269 197.85902 
L 117.763476 200.416918 
L 117.943889 197.547301 
L 118.034096 198.295711 
L 118.21451 204.783592 
L 118.304717 204.596371 
L 118.485131 198.670154 
L 118.575338 198.482932 
L 118.755751 204.970813 
L 118.936165 195.862785 
L 119.026372 197.11061 
L 119.116579 201.851726 
L 119.206786 201.040593 
L 119.387199 197.734285 
L 119.477406 197.734285 
L 119.567613 198.295711 
L 119.65782 197.235345 
L 119.748027 198.233462 
L 119.838234 201.78924 
L 119.928441 201.415035 
L 120.018648 199.48105 
L 120.289268 205.781709 
L 120.379475 205.594488 
L 120.469682 204.783592 
L 120.740303 198.170976 
L 120.920716 205.594488 
L 121.10113 202.475401 
L 121.281544 205.220283 
L 121.371751 204.222166 
L 121.552164 198.98211 
L 121.732578 205.095548 
L 121.822785 204.034944 
L 122.003199 207.653208 
L 122.183613 197.235345 
L 122.364026 204.034944 
L 122.54444 197.297594 
L 122.634647 197.983992 
L 122.905268 205.282769 
L 123.085681 201.53977 
L 123.356302 204.034944 
L 123.536716 217.260176 
L 123.626923 217.197808 
L 123.71713 216.761117 
L 123.807336 217.696867 
L 123.98775 211.396207 
L 124.168164 217.634381 
L 124.348578 211.396207 
L 124.438785 213.267588 
L 124.528991 212.519059 
L 124.889819 204.970813 
L 124.980026 206.717578 
L 125.16044 214.577661 
L 125.340853 213.142853 
L 125.611474 213.330075 
L 125.791888 210.959516 
L 126.242922 197.983992 
L 126.333129 198.482932 
L 126.423336 198.295711 
L 126.513543 200.416918 
L 126.60375 205.220283 
L 126.693956 202.974578 
L 126.784163 197.172859 
L 126.964577 202.787357 
L 127.144991 196.798654 
L 127.235198 199.106845 
L 127.415611 198.545418 
L 127.505818 198.545418 
L 127.686232 189.936568 
L 127.776439 194.864668 
L 127.866646 193.18039 
L 127.956853 188.127317 
L 128.137266 190.622729 
L 128.227473 187.565891 
L 128.498094 200.853371 
L 128.678508 196.174742 
L 128.768715 196.237228 
L 129.039335 188.564008 
L 129.219749 198.919623 
L 129.309956 197.983992 
L 129.580576 189.749347 
L 129.76099 191.496111 
L 129.851197 191.30889 
L 129.941404 191.870316 
L 130.031611 191.246642 
L 130.212025 192.244759 
L 130.392438 186.443039 
L 130.572852 190.123552 
L 130.753266 210.023648 
L 131.023886 220.628851 
L 131.2043 213.267588 
L 131.294507 213.392442 
L 131.565128 209.961399 
L 131.925955 198.233462 
L 132.016162 197.172859 
L 132.106369 197.85902 
L 132.196576 197.484815 
L 132.286783 196.549184 
L 132.467196 201.53977 
L 132.557403 200.603902 
L 132.64761 196.985875 
L 132.737817 197.422329 
L 132.828024 198.98211 
L 132.918231 198.108727 
L 133.008438 198.358197 
L 133.098645 199.418801 
L 133.279058 196.673919 
L 133.459472 199.48105 
L 133.549679 196.923389 
L 133.639886 197.672036 
L 133.730093 200.291945 
L 133.910506 197.547301 
L 134.09092 201.415035 
L 134.361541 194.116258 
L 134.541955 194.864668 
L 134.722368 188.938451 
L 134.902782 196.112493 
L 134.992989 195.613315 
L 135.173403 198.607667 
L 135.26361 198.420446 
L 135.353816 198.233462 
L 135.444023 199.605784 
L 135.624437 197.297594 
L 135.714644 197.983992 
L 135.895058 196.361963 
L 136.075471 202.600136 
L 136.255885 197.484815 
L 136.346092 197.484815 
L 136.436299 197.172859 
L 136.616713 202.101196 
L 136.797126 196.424211 
L 136.887333 196.174742 
L 136.97754 194.739933 
L 137.157954 197.36008 
L 137.248161 196.361963 
L 137.428575 197.235345 
L 137.518781 196.985875 
L 137.699195 200.042475 
L 137.879609 194.802419 
L 137.969816 197.60955 
L 138.15023 189.187921 
L 138.330643 197.172859 
L 138.42085 195.176624 
L 138.511057 194.303242 
L 138.601264 196.736167 
L 138.691471 196.361963 
L 138.871885 189.187921 
L 138.962091 189.624612 
L 139.052298 192.120024 
L 139.142505 191.932803 
L 139.322919 188.75123 
L 139.413126 190.497994 
L 139.59354 189.312656 
L 139.683746 189.749347 
L 140.044574 184.384556 
L 140.224988 188.25229 
L 140.405402 181.577188 
L 140.585815 185.070717 
L 140.766229 177.77194 
L 140.856436 178.832306 
L 140.946643 181.701923 
L 141.03685 181.514939 
L 141.127057 180.953513 
L 141.217263 181.514939 
L 141.30747 181.202983 
L 141.397677 181.389967 
L 141.487884 181.889144 
L 141.578091 180.39185 
L 141.668298 182.013879 
L 141.758505 186.38079 
L 141.848712 185.569657 
L 141.938918 181.95163 
L 142.029125 182.013879 
L 142.209539 183.323952 
L 142.299746 183.261466 
L 142.389953 181.639674 
L 142.931194 192.868434 
L 143.201815 189.000699 
L 143.292022 189.250407 
L 143.382228 190.747464 
L 143.652849 180.703806 
L 143.92347 182.887262 
L 144.103883 182.138614 
L 144.464711 184.259583 
L 144.645125 181.826658 
L 144.735332 181.95163 
L 144.825538 180.891027 
L 144.915745 181.015762 
L 145.005952 182.076366 
L 145.186366 175.837955 
L 145.36678 181.389967 
L 145.456987 180.641557 
L 145.6374 179.393732 
L 145.817814 184.0726 
L 146.088435 172.219928 
L 146.268848 176.274646 
L 146.449262 172.282177 
L 146.629676 175.46375 
L 146.719883 173.280294 
L 146.81009 173.34278 
L 146.990503 187.815599 
L 147.08071 188.875965 
L 147.351331 181.140497 
L 147.441538 182.70004 
L 147.531745 182.388322 
L 147.621952 181.514939 
L 147.892572 184.571539 
L 148.072986 194.802419 
L 148.343607 182.076366 
L 148.433813 182.076366 
L 148.52402 181.889144 
L 148.614227 184.197335 
L 148.704434 183.698157 
L 148.794641 181.452453 
L 148.975055 185.569657 
L 149.155468 181.514939 
L 149.245675 182.762526 
L 149.426089 181.078248 
L 149.606503 183.760643 
L 149.69671 182.263349 
L 149.877123 186.318304 
L 150.057537 181.514939 
L 150.237951 184.197335 
L 150.328158 182.575305 
L 150.508572 183.511174 
L 150.598778 182.637791 
L 150.688985 183.074482 
L 150.779192 184.509291 
L 150.869399 183.635909 
L 150.959606 184.32207 
L 151.14002 190.685215 
L 151.230227 190.435508 
L 151.320433 189.125435 
L 151.500847 183.760643 
L 151.681261 191.683333 
L 151.861675 189.312656 
L 152.042088 191.121669 
L 152.222502 189.125435 
L 152.402916 190.373259 
L 152.58333 189.811833 
L 152.673537 188.813716 
L 152.763743 189.687098 
L 152.944157 192.556478 
L 153.124571 189.375142 
L 153.214778 190.373259 
L 153.395192 189.375142 
L 153.575605 195.925271 
L 153.936433 186.942217 
L 154.116847 191.05942 
L 154.29726 188.065069 
L 154.387467 189.375142 
L 154.477674 189.312656 
L 154.567881 189.437391 
L 154.658088 191.121669 
L 154.748295 190.373259 
L 154.838502 187.940334 
L 154.928708 188.065069 
L 155.109122 173.654736 
L 155.199329 174.09119 
L 155.289536 173.093073 
L 155.650363 159.368901 
L 155.74057 159.556123 
L 156.011191 168.663912 
L 156.191605 159.119431 
L 156.462225 168.91362 
L 156.642639 167.915503 
L 156.823053 171.03459 
L 157.003467 166.854899 
L 157.18388 174.153676 
L 157.364294 172.094955 
L 157.454501 173.904206 
L 157.725122 167.229104 
L 157.815329 168.788885 
L 158.085949 174.964572 
L 158.266363 171.346546 
L 158.446777 175.089545 
L 158.62719 172.344663 
L 158.717397 174.153676 
L 158.897811 183.261466 
L 159.078225 178.645322 
L 159.348845 182.138614 
L 159.529259 180.641557 
L 159.709673 181.577188 
L 159.79988 181.265232 
L 160.0705 175.339015 
L 160.431328 181.764409 
L 160.521535 181.826658 
L 160.611742 181.577188 
L 160.701949 179.768175 
L 160.792155 180.267115 
L 160.972569 183.074482 
L 161.062776 182.949747 
L 161.152983 183.448687 
L 161.333397 181.389967 
L 161.51381 182.887262 
L 161.694224 189.187921 
L 161.784431 187.753113 
L 161.964845 188.75123 
L 162.055052 186.87973 
L 162.145259 187.877847 
L 162.235465 190.622729 
L 162.415879 188.189803 
L 162.506086 188.50176 
L 162.6865 189.499877 
L 162.776707 188.813716 
L 162.866914 189.312656 
L 162.95712 189.250407 
L 163.047327 189.499877 
L 163.137534 120.691799 
L 163.227741 120.941269 
L 163.498362 132.295001 
L 163.768982 120.067887 
L 163.859189 121.315474 
L 163.949396 119.381726 
L 164.039603 119.943152 
L 164.12981 122.126607 
L 164.220017 120.878783 
L 164.310224 121.066004 
L 164.40043 121.689917 
L 164.580844 117.135784 
L 164.761258 125.931855 
L 164.941672 120.255108 
L 165.122085 134.353484 
L 165.302499 119.943152 
L 165.482913 129.050942 
L 165.57312 128.489516 
L 165.663327 130.298529 
L 166.024154 143.08707 
L 166.114361 145.208039 
L 166.204568 144.646613 
L 166.294775 144.958569 
L 166.475189 146.518112 
L 166.655602 144.334656 
L 166.836016 143.897966 
L 166.926223 144.646613 
L 167.106637 151.820655 
L 167.28705 163.735813 
L 167.467464 151.820655 
L 167.557671 153.941624 
L 167.828292 167.603547 
L 168.008705 165.794296 
L 168.279326 173.467515 
L 168.369533 174.902323 
L 168.549947 173.716985 
L 168.73036 176.39938 
L 168.820567 176.773823 
L 169.000981 183.199218 
L 169.181395 181.577188 
L 169.361809 183.573422 
L 169.452015 182.70004 
L 169.542222 180.641557 
L 169.632429 182.637791 
L 169.812843 189.375142 
L 169.993257 190.373259 
L 170.17367 184.758761 
L 170.444291 198.170976 
L 170.534498 197.60955 
L 170.624705 195.98752 
L 170.714912 196.736167 
L 170.805119 200.416918 
L 170.895325 200.104962 
L 170.985532 195.675802 
L 171.075739 196.923389 
L 171.165946 205.594488 
L 171.256153 203.972696 
L 171.34636 204.471635 
L 171.526774 221.814071 
L 171.61698 221.502115 
L 171.707187 214.203338 
L 171.797394 215.07672 
L 171.887601 218.13344 
L 172.068015 212.331957 
L 172.158222 217.509646 
L 172.338635 212.207103 
L 172.519049 212.394325 
L 172.609256 211.708045 
L 172.699463 213.205221 
L 172.78967 216.573896 
L 172.879877 215.575779 
L 172.970084 212.394325 
L 173.150497 221.315012 
L 173.240704 219.568248 
L 173.330911 217.634381 
L 173.601532 225.744172 
L 173.781945 229.29995 
L 173.962359 226.929511 
L 174.323187 236.848315 
L 174.413394 235.725463 
L 174.5036 231.358671 
L 174.684014 235.288772 
L 174.864428 225.681805 
L 174.954635 226.742289 
L 175.044842 226.49282 
L 175.135049 226.555187 
L 175.225256 227.678039 
L 175.67629 247.141444 
L 175.766497 246.642385 
L 175.946911 240.404094 
L 176.037117 240.71605 
L 176.127324 243.336077 
L 176.307738 239.343609 
L 176.488152 242.026123 
L 176.578359 239.593198 
L 176.758772 242.275593 
L 176.939186 238.59508 
L 177.209807 252.256884 
L 177.390221 248.326782 
L 177.480427 248.63862 
L 177.660841 256.374088 
L 177.751048 254.128265 
L 177.841255 247.827724 
L 177.931462 248.014826 
L 178.202082 254.627324 
L 178.292289 256.56119 
L 178.472703 253.379736 
L 178.653117 253.566839 
L 178.743324 249.262414 
L 178.833531 250.884443 
L 178.923737 255.87503 
L 179.104151 250.198163 
L 179.284565 255.251236 
L 179.374772 139.219335 
L 179.464979 139.406557 
L 179.645392 145.14579 
L 179.825806 135.975514 
L 179.916013 136.848896 
L 180.00622 138.283705 
L 180.096427 134.790175 
L 180.186634 135.039645 
L 180.276841 138.283705 
L 180.457254 130.361015 
L 180.727875 136.599189 
L 180.818082 135.476336 
L 180.908289 131.109663 
L 180.998496 131.795824 
L 181.088702 135.039645 
L 181.269116 126.243811 
L 181.44953 131.733338 
L 181.629944 128.614251 
L 181.900564 138.782644 
L 181.990771 136.848896 
L 182.080978 136.911145 
L 182.171185 137.160852 
L 182.261392 138.033997 
L 182.351599 141.901731 
L 182.441806 141.028586 
L 182.532012 138.782644 
L 182.622219 141.964217 
L 182.712426 141.590012 
L 182.89284 136.474454 
L 183.073254 139.344071 
L 183.253667 145.956686 
L 183.343874 144.209922 
L 183.434081 144.958569 
L 183.524288 146.892555 
L 183.704702 153.692154 
L 183.794909 146.767582 
L 183.885116 148.763817 
L 183.975322 158.745227 
L 184.065529 157.809358 
L 184.245943 149.637199 
L 184.516564 155.189449 
L 184.787184 149.699685 
L 184.877391 152.756523 
L 184.967598 159.618609 
L 185.057805 159.244167 
L 185.238219 150.760289 
L 185.328426 154.752758 
L 185.508839 151.695919 
L 185.599046 153.692154 
L 185.77946 149.637199 
L 186.050081 152.132611 
L 186.230494 150.760289 
L 186.410908 153.629668 
L 186.501115 152.631551 
L 186.681529 146.580599 
L 186.771736 147.952921 
L 186.861942 152.694037 
L 187.042356 145.457746 
L 187.22277 150.635316 
L 187.312977 148.202391 
L 187.403184 150.760289 
L 187.583597 163.985283 
L 187.764011 169.350311 
L 187.944425 165.170621 
L 188.034632 167.229104 
L 188.124839 166.792413 
L 188.215046 164.73393 
L 188.305252 164.796179 
L 188.485666 168.102487 
L 188.575873 166.792413 
L 188.756287 170.847368 
L 189.026907 167.104369 
L 189.568149 174.465632 
L 189.658356 174.777589 
L 189.748562 173.405029 
L 189.928976 176.773823 
L 190.10939 175.21428 
L 190.289804 182.138614 
L 190.560424 175.027058 
L 190.650631 176.586602 
L 190.740838 180.516822 
L 190.831045 179.580954 
L 190.921252 176.212397 
L 191.101666 182.263349 
L 191.282079 179.89291 
L 191.372286 180.204866 
L 191.5527 174.652854 
L 191.733114 186.443039 
L 191.913527 180.891027 
L 192.003734 181.764409 
L 192.093941 183.011996 
L 192.184148 181.078248 
L 192.274355 183.011996 
L 192.454769 189.749347 
L 192.544976 188.875965 
L 192.725389 190.061303 
L 193.086217 187.753113 
L 193.176424 189.000699 
L 193.266631 188.25229 
L 193.356838 189.125435 
L 193.807872 197.235345 
L 193.898079 194.989403 
L 193.988286 195.176624 
L 194.168699 197.172859 
L 194.258906 197.297594 
L 194.349113 196.361963 
L 194.529527 186.942217 
L 194.709941 192.556478 
L 194.800148 189.375142 
L 194.890354 190.560243 
L 195.070768 199.106845 
L 195.160975 198.358197 
L 195.251182 198.857137 
L 195.431596 196.736167 
L 195.521803 197.297594 
L 195.612009 181.514939 
L 195.702216 182.70004 
L 195.972837 179.955396 
L 196.153251 175.46375 
L 196.243458 175.401263 
L 196.423871 173.779471 
L 196.604285 179.206749 
L 196.784699 174.652854 
L 196.874906 175.027058 
L 197.145526 181.701923 
L 197.235733 181.452453 
L 197.416147 184.821247 
L 197.506354 184.384556 
L 197.596561 182.513057 
L 197.686768 183.011996 
L 197.776974 185.694392 
L 197.867181 184.696275 
L 197.957388 181.95163 
L 198.047595 182.45057 
L 198.137802 182.263349 
L 198.228009 180.516822 
L 198.318216 180.891027 
L 198.588836 184.821247 
L 198.859457 180.142379 
L 199.039871 183.573422 
L 199.130078 183.199218 
L 199.220284 181.577188 
L 199.310491 182.013879 
L 199.490905 192.369494 
L 199.671319 182.949747 
L 199.851733 189.125435 
L 199.941939 188.50176 
L 200.032146 189.499877 
L 200.21256 188.813716 
L 200.302767 190.435508 
L 200.483181 188.25229 
L 200.573388 189.000699 
L 200.753801 187.316422 
L 200.844008 188.314539 
L 201.024422 190.685215 
L 201.114629 188.439274 
L 201.295043 191.184155 
L 201.385249 189.749347 
L 201.475456 191.808068 
L 201.565663 197.048124 
L 201.65587 195.05189 
L 201.836284 188.626495 
L 201.926491 190.123552 
L 202.016698 189.998817 
L 202.106904 190.435508 
L 202.377525 197.734285 
L 202.467732 197.172859 
L 202.648146 191.55836 
L 202.738353 193.305125 
L 202.828559 197.547301 
L 202.918766 197.422329 
L 203.008973 197.235345 
L 203.09918 199.293828 
L 203.189387 198.857137 
L 203.369801 196.112493 
L 203.460008 195.800537 
L 203.640421 193.929037 
L 203.820835 62.613304 
L 204.091456 66.169319 
L 204.271869 62.051877 
L 204.362076 62.363834 
L 204.54249 61.740159 
L 204.722904 66.169319 
L 204.813111 64.609538 
L 204.903318 65.046229 
L 204.993524 68.851715 
L 205.083731 68.165554 
L 205.173938 66.294054 
L 205.354352 76.399961 
L 205.534766 68.539758 
L 205.715179 74.34124 
L 205.805386 70.660728 
L 205.9858 77.647548 
L 206.076007 74.965153 
L 206.166214 77.460565 
L 206.346628 84.509634 
L 206.527041 91.995632 
L 206.617248 90.997515 
L 206.707455 89.999398 
L 206.887869 100.853952 
L 207.068283 93.243219 
L 207.248696 99.356895 
L 207.338903 98.296291 
L 207.42911 98.483513 
L 207.609524 99.356895 
L 207.880144 115.57624 
L 207.970351 113.26805 
L 208.060558 112.706624 
L 208.240972 113.330536 
L 208.421386 122.812769 
L 208.511593 120.816534 
L 208.601799 122.001635 
L 208.782213 129.674854 
L 208.87242 128.115311 
L 208.962627 131.296884 
L 209.052834 131.047176 
L 209.143041 129.300412 
L 209.323454 137.098366 
L 209.413661 137.03588 
L 209.594075 141.090835 
L 209.684282 140.030231 
L 209.864696 143.835717 
L 209.954903 143.710982 
L 210.04511 143.586247 
L 210.135316 143.024821 
L 210.225523 144.085187 
L 210.405937 158.807475 
L 210.676558 150.573067 
L 211.127592 165.856782 
L 211.217799 165.607312 
L 211.398213 169.16309 
L 211.48842 168.539178 
L 211.578626 168.975869 
L 211.75904 167.790768 
L 211.849247 205.96893 
L 211.939454 205.781709 
L 212.210075 215.700514 
L 212.300281 212.76853 
L 212.390488 213.454809 
L 212.480695 215.014353 
L 212.661109 212.144736 
L 212.751316 212.706162 
L 212.841523 211.832899 
L 212.93173 212.76853 
L 213.112143 203.91021 
L 213.20235 206.904561 
L 213.292557 213.454809 
L 213.382764 213.205221 
L 213.472971 211.770412 
L 213.653385 221.12791 
L 213.743591 220.067306 
L 213.833798 215.763 
L 214.284833 228.613789 
L 214.465246 219.817836 
L 214.64566 227.615672 
L 214.735867 222.06366 
L 214.916281 234.914449 
L 215.006488 230.797245 
L 215.096695 227.241348 
L 215.277108 233.978699 
L 215.457522 226.305598 
L 215.637936 228.11473 
L 215.81835 227.241348 
L 216.359591 238.158389 
L 216.630211 241.277476 
L 216.720418 240.466461 
L 216.900832 235.039184 
L 217.081246 239.905035 
L 217.171453 239.967402 
L 217.351866 243.398445 
L 217.442073 241.589432 
L 217.53228 242.400328 
L 217.802901 247.4534 
L 217.893108 247.079077 
L 218.073521 244.334195 
L 218.163728 245.519533 
L 218.253935 249.012943 
L 218.434349 246.018592 
L 218.614763 248.950576 
L 218.70497 246.08096 
L 218.885383 251.445869 
L 219.065797 245.831371 
L 219.246211 248.451518 
L 219.336418 246.642385 
L 219.516831 247.765237 
L 219.607038 246.08096 
L 219.787452 247.640503 
L 219.877659 247.266179 
L 220.058073 130.298529 
L 220.14828 130.361015 
L 220.238486 132.981162 
L 220.328693 132.544471 
L 220.599314 123.49893 
L 220.689521 123.24946 
L 220.779728 122.126607 
L 220.960141 122.812769 
L 221.140555 120.379843 
L 221.320969 122.001635 
L 221.411176 121.315474 
L 221.59159 113.954449 
L 221.681796 115.451506 
L 221.772003 114.203919 
L 221.952417 105.532819 
L 222.042624 105.345598 
L 222.403451 112.332419 
L 222.583865 109.899494 
L 222.674072 110.710389 
L 222.764279 108.464685 
L 222.854486 109.213332 
L 222.944693 114.266405 
L 223.125106 109.026111 
L 223.215313 114.016697 
L 223.395727 104.908907 
L 223.485934 108.027994 
L 223.576141 110.148963 
L 223.756555 106.655672 
L 223.846761 106.281229 
L 223.936968 108.277464 
L 224.117382 114.827831 
L 224.388003 110.460919 
L 224.47821 111.271815 
L 224.568416 115.014815 
L 224.658623 113.891962 
L 224.839037 105.220863 
L 225.019451 107.716038 
L 225.109658 105.78229 
L 225.199865 105.969273 
L 225.290071 106.71792 
L 225.380278 105.532819 
L 225.560692 108.901376 
L 225.650899 107.840772 
L 225.741106 105.78229 
L 225.92152 110.772875 
L 226.101933 108.651906 
L 226.19214 113.081066 
L 226.372554 106.281229 
L 226.552968 115.202036 
L 226.733381 112.706624 
L 226.823588 116.387374 
L 226.913795 116.075418 
L 227.094209 112.644375 
L 227.274623 107.154612 
L 227.455037 115.014815 
L 227.63545 106.281229 
L 227.815864 114.141432 
L 227.906071 111.334302 
L 227.996278 113.891962 
L 228.176692 168.851134 
L 228.266898 171.907972 
L 228.357105 170.535412 
L 228.537519 165.856782 
L 228.627726 167.790768 
L 228.717933 167.54106 
L 228.898347 164.671444 
L 229.07876 169.911738 
L 229.259174 175.276528 
L 229.439588 167.229104 
L 229.529795 168.227222 
L 229.710208 167.229104 
L 229.890622 169.16309 
L 229.980829 168.102487 
L 230.071036 168.601664 
L 230.161243 172.594133 
L 230.25145 171.783237 
L 230.341657 167.104369 
L 230.52207 170.972103 
L 230.612277 165.669561 
L 230.702484 166.792413 
L 230.882898 173.654736 
L 230.973105 171.284059 
L 231.153518 172.843603 
L 231.243725 171.159324 
L 231.424139 175.588485 
L 231.514346 170.847368 
L 231.604553 171.096838 
L 231.69476 175.962689 
L 231.875173 170.909855 
L 232.055587 173.716985 
L 232.145794 173.779471 
L 232.326208 182.824775 
L 232.506622 177.958924 
L 232.957656 183.011996 
L 233.047863 181.577188 
L 233.228277 187.503643 
L 233.318483 184.945982 
L 233.40869 186.38079 
L 233.498897 190.872199 
L 233.679311 181.202983 
L 233.769518 182.2011 
L 233.859725 184.197335 
L 233.949932 182.824775 
L 234.040138 184.259583 
L 234.220552 189.437391 
L 234.400966 187.628378 
L 234.491173 187.877847 
L 234.671587 189.312656 
L 234.761793 187.877847 
L 234.942207 191.496111 
L 235.212828 181.889144 
L 235.663862 189.562126 
L 235.754069 191.371377 
L 235.934483 186.817482 
L 236.114897 188.75123 
L 236.29531 150.822538 
L 236.565931 143.024821 
L 236.746345 145.39526 
L 236.926758 142.088952 
L 237.107172 146.767582 
L 237.377793 136.474454 
L 237.468 137.160852 
L 237.648413 146.330891 
L 237.828827 141.278056 
L 238.009241 145.707216 
L 238.189655 142.712865 
L 238.460275 154.00411 
L 238.550482 152.631551 
L 238.730896 144.085187 
L 238.821103 144.334656 
L 238.91131 143.523761 
L 239.001517 144.022938 
L 239.18193 153.005993 
L 239.362344 145.083304 
L 239.452551 144.709099 
L 239.542758 145.582482 
L 239.723172 151.134494 
L 239.813378 151.321715 
L 239.993792 154.378315 
L 240.264413 161.365136 
L 240.35462 159.930327 
L 240.444827 160.180035 
L 240.535033 159.556123 
L 240.715447 154.440802 
L 240.805654 158.807475 
L 240.895861 158.745227 
L 240.986068 157.559888 
L 241.076275 161.115666 
L 241.166482 159.680858 
L 241.256688 155.376432 
L 241.437102 164.234752 
L 241.617516 160.741461 
L 241.707723 161.115666 
L 241.978343 167.603547 
L 242.06855 166.542943 
L 242.248964 168.91362 
L 242.339171 168.851134 
L 242.519585 167.104369 
L 242.880412 174.153676 
L 242.970619 173.34278 
L 243.151033 176.025175 
L 243.24124 175.588485 
L 243.421653 182.388322 
L 243.692274 177.397498 
L 243.962895 180.703806 
L 244.143308 192.806185 
L 244.233515 189.187921 
L 244.323722 166.044003 
L 244.413929 167.229104 
L 244.594343 176.461867 
L 244.774757 175.650971 
L 244.864963 173.218045 
L 245.045377 158.620491 
L 245.225791 167.603547 
L 245.315998 166.230987 
L 245.406205 166.418208 
L 245.586619 173.529764 
L 245.767032 155.813123 
L 245.947446 167.977751 
L 246.12786 157.934093 
L 246.308274 169.287825 
L 246.488687 153.255463 
L 246.669101 159.930327 
L 246.759308 159.805592 
L 246.939722 165.420091 
L 247.029929 164.671444 
L 247.210342 172.344663 
L 247.300549 172.282177 
L 247.480963 176.898558 
L 247.57117 176.025175 
L 247.931997 166.979634 
L 248.022204 167.042121 
L 248.292825 171.783237 
L 248.473239 181.327718 
L 248.653652 173.966455 
L 248.743859 174.839837 
L 248.924273 177.023293 
L 249.01448 181.140497 
L 249.194894 172.157442 
L 249.2851 179.580954 
L 249.375307 178.707571 
L 249.465514 172.531647 
L 249.555721 175.775706 
L 249.645928 175.650971 
L 249.736135 171.408795 
L 249.916549 182.2011 
L 250.006755 181.452453 
L 250.096962 181.389967 
L 250.277376 182.824775 
L 250.547997 180.641557 
L 250.638204 177.896675 
L 250.818617 167.229104 
L 250.999031 176.337132 
L 251.179445 175.339015 
L 251.359859 167.416326 
L 251.450065 171.907972 
L 251.630479 166.60543 
L 251.720686 172.656619 
L 251.9011 158.183801 
L 252.081514 177.335249 
L 252.261927 169.973986 
L 252.352134 171.97022 
L 252.442341 204.097431 
L 252.532548 203.660739 
L 252.803169 225.120379 
L 253.073789 215.950102 
L 253.163996 214.515294 
L 253.34441 222.500232 
L 253.61503 205.407504 
L 253.705237 206.592605 
L 254.066065 221.190277 
L 254.336685 223.311247 
L 254.426892 220.379263 
L 254.517099 221.564601 
L 254.607306 225.182746 
L 254.697513 223.93504 
L 254.78772 224.184629 
L 254.877927 229.29995 
L 254.968134 227.678039 
L 255.148547 218.507763 
L 255.238754 220.815954 
L 255.328961 220.004939 
L 255.419168 222.936923 
L 255.509375 231.545774 
L 255.599582 230.2357 
L 255.689789 224.558953 
L 255.870202 232.793479 
L 256.050616 224.683687 
L 256.140823 223.997526 
L 256.23103 221.814071 
L 256.411444 229.362436 
L 256.50165 228.738524 
L 256.591857 228.676157 
L 256.682064 229.98623 
L 256.862478 240.404094 
L 256.952685 238.220756 
L 257.133099 225.307481 
L 257.223305 226.305598 
L 257.313512 229.799009 
L 257.403719 229.175215 
L 257.493926 228.800891 
L 257.584133 231.109082 
L 257.764547 228.925745 
L 257.854754 231.732876 
L 258.035167 225.058012 
L 258.215581 234.602492 
L 258.395995 231.109082 
L 258.576409 235.413507 
L 258.666615 233.354905 
L 258.847029 228.551422 
L 258.937236 229.362436 
L 259.11765 227.553304 
L 259.298064 229.674274 
L 259.478477 235.163919 
L 259.568684 230.485289 
L 259.658891 230.672391 
L 259.749098 232.668626 
L 259.929512 226.430452 
L 260.019719 226.929511 
L 260.109925 229.05048 
L 260.290339 226.243231 
L 260.470753 231.795362 
L 260.651167 100.417261 
L 260.83158 110.336184 
L 261.011994 101.165908 
L 261.192408 108.776641 
L 261.372822 108.09048 
L 261.463029 108.651906 
L 261.553235 108.027994 
L 261.643442 105.907024 
L 261.733649 106.281229 
L 261.914063 110.835124 
L 262.094477 107.029877 
L 262.365097 108.83889 
L 262.635718 107.778524 
L 262.725925 109.026111 
L 262.906339 120.816534 
L 263.086752 113.642492 
L 263.808407 129.674854 
L 263.898614 127.42915 
L 263.988821 127.865604 
L 264.079028 132.295001 
L 264.169235 131.671089 
L 264.349649 126.368547 
L 264.439856 125.80712 
L 264.530062 128.115311 
L 264.710476 136.911145 
L 264.800683 136.037763 
L 264.981097 137.784527 
L 265.161511 146.518112 
L 265.251717 143.336539 
L 265.432131 133.792058 
L 265.702752 145.270525 
L 265.792959 143.586247 
L 265.883166 144.521878 
L 266.063579 153.879375 
L 266.3342 152.382081 
L 266.604821 154.440802 
L 266.695027 153.629668 
L 266.875441 150.947272 
L 266.965648 151.758406 
L 267.146062 150.198625 
L 267.326476 155.126963 
L 267.416682 155.189449 
L 267.597096 160.491991 
L 267.957924 152.756523 
L 268.138337 153.31795 
L 268.228544 152.007876 
L 268.408958 160.616726 
L 268.499165 159.431387 
L 268.589372 158.121314 
L 268.679579 153.442684 
L 268.859992 159.493636 
L 268.950199 156.873727 
L 269.040406 150.510581 
L 269.130613 151.259229 
L 269.22082 156.187566 
L 269.311027 156.000345 
L 269.401234 152.631551 
L 269.852268 162.550474 
L 269.942475 161.302887 
L 270.032682 162.675209 
L 270.213096 168.227222 
L 270.393509 165.357842 
L 270.483716 167.416326 
L 270.573923 166.667678 
L 270.66413 164.858665 
L 270.844544 171.159324 
L 271.024957 165.295356 
L 271.205371 172.781354 
L 271.295578 171.907972 
L 271.475992 175.525998 
L 271.656406 173.716985 
L 271.836819 164.609195 
L 272.10744 172.843603 
L 272.197647 171.907972 
L 272.378061 164.110018 
L 272.558474 170.161207 
L 272.648681 164.858665 
L 272.738888 166.917386 
L 272.919302 173.654736 
L 273.189922 169.911738 
L 273.370336 166.168738 
L 273.55075 171.658264 
L 273.640957 169.475046 
L 273.821371 176.337132 
L 273.911577 175.650971 
L 274.001784 174.403146 
L 274.182198 167.291591 
L 274.272405 174.153676 
L 274.362612 174.028941 
L 274.452819 166.979634 
L 274.633232 184.0726 
L 274.813646 171.284059 
L 275.084267 179.456219 
L 275.264681 182.076366 
L 275.354887 182.325835 
L 275.445094 181.452453 
L 275.535301 181.764409 
L 275.625508 180.579071 
L 275.715715 174.09119 
L 275.805922 175.775706 
L 275.896129 181.701923 
L 275.986336 178.333366 
L 276.076542 179.393732 
L 276.166749 184.197335 
L 276.256956 181.701923 
L 276.347163 183.074482 
L 276.43737 187.254173 
L 276.707991 182.263349 
L 276.888404 153.629668 
L 276.978611 151.072007 
L 277.068818 151.321715 
L 277.159025 150.011642 
L 277.429646 142.525643 
L 277.519852 143.211804 
L 277.700266 152.943507 
L 277.970887 142.837599 
L 278.241507 153.005993 
L 278.331714 151.009759 
L 278.512128 154.690271 
L 278.692542 152.631551 
L 278.782749 152.694037 
L 278.963162 150.323598 
L 279.143576 157.372667 
L 279.233783 156.37455 
L 279.414197 151.820655 
L 279.504404 151.883141 
L 279.594611 151.072007 
L 279.684817 153.380198 
L 279.865231 160.117549 
L 280.045645 151.44645 
L 280.226059 158.370784 
L 280.406473 155.314184 
L 280.586886 160.491991 
L 280.7673 158.620491 
L 280.857507 159.306653 
L 281.037921 163.36137 
L 281.128128 162.238518 
L 281.308541 157.809358 
L 281.398748 159.805592 
L 281.488955 158.93221 
L 281.579162 159.992814 
L 281.669369 163.236635 
L 281.759576 161.490108 
L 281.849783 157.310418 
L 282.030196 160.242283 
L 282.120403 158.869962 
L 282.300817 164.172504 
L 282.571438 159.618609 
L 282.661644 159.930327 
L 282.842058 162.301004 
L 283.112679 157.372667 
L 283.202886 157.74711 
L 283.473506 168.102487 
L 283.563713 165.981517 
L 283.744127 167.977751 
L 283.834334 165.23287 
L 283.924541 165.732047 
L 284.014748 169.724516 
L 284.104954 169.537295 
L 284.285368 167.166855 
L 284.465782 166.917386 
L 284.555989 166.730164 
L 284.646196 167.042121 
L 284.736403 168.227222 
L 284.826609 171.159324 
L 285.007023 62.863011 
L 285.277644 72.968918 
L 285.367851 71.097419 
L 285.548264 63.861128 
L 285.638471 63.112481 
L 285.728678 61.178495 
L 285.909092 62.551055 
L 285.999299 60.305351 
L 286.179713 63.861128 
L 286.360126 53.568 
L 286.54054 67.35442 
L 286.720954 58.558586 
L 286.901368 75.776049 
L 287.081781 60.055643 
L 287.352402 71.346888 
L 287.893643 86.630841 
L 287.98385 87.254516 
L 288.074057 86.69309 
L 288.254471 93.056235 
L 288.344678 92.993749 
L 288.525091 88.814059 
L 288.885919 100.292526 
L 289.066333 111.708507 
L 289.246746 104.596951 
L 289.607574 115.825948 
L 289.787988 117.822183 
L 290.058608 129.425384 
L 290.148815 132.045294 
L 290.329229 129.799589 
L 290.509643 142.650378 
L 290.599849 142.58813 
L 290.690056 143.461512 
L 290.780263 146.830068 
L 290.87047 146.705334 
L 290.960677 147.204273 
L 291.141091 152.257346 
L 291.231298 152.569302 
L 291.321504 151.196743 
L 291.411711 151.695919 
L 291.682332 161.115666 
L 291.772539 159.181918 
L 291.952953 153.31795 
L 292.31378 175.401263 
L 292.494194 170.473163 
L 292.674608 179.768175 
L 292.764814 175.713219 
L 292.855021 177.896675 
L 292.945228 186.193569 
L 293.125642 212.207103 
L 293.396263 230.2357 
L 293.576676 220.316895 
L 293.666883 222.375497 
L 293.75709 219.817836 
L 293.847297 220.19216 
L 293.937504 224.933158 
L 294.027711 223.872673 
L 294.208124 214.078603 
L 294.929779 230.984347 
L 295.019986 229.237583 
L 295.110193 230.422921 
L 295.290607 237.035418 
L 295.380814 238.096021 
L 295.561228 243.648034 
L 295.741641 237.347374 
L 295.831848 241.402211 
L 296.012262 234.789714 
L 296.192676 240.840785 
L 296.282883 238.906917 
L 296.463296 246.580018 
L 296.64371 237.784065 
L 296.733917 239.842667 
L 296.914331 239.031653 
L 297.004538 240.591315 
L 297.545779 262.674748 
L 297.726193 256.935514 
L 297.8164 257.060249 
L 297.996813 255.438338 
L 298.177227 256.062132 
L 298.447848 262.300424 
L 298.538055 261.239939 
L 298.808675 262.799482 
L 298.989089 272.281715 
L 299.25971 268.039657 
L 299.440123 277.584257 
L 299.53033 276.773242 
L 299.620537 270.28548 
L 299.800951 278.644742 
L 299.981365 273.778891 
L 300.161778 279.019066 
L 300.251985 276.58614 
L 300.432399 279.268536 
L 300.612813 276.149449 
L 300.793226 287.378327 
L 300.883433 286.879268 
L 301.063847 285.007769 
L 301.244261 92.869014 
L 301.334468 91.060001 
L 301.424675 92.182853 
L 301.514881 91.746162 
L 301.695295 87.192267 
L 301.785502 88.003163 
L 301.965916 86.568355 
L 302.236536 78.520931 
L 302.326743 79.082356 
L 302.507157 80.454916 
L 302.687571 74.590948 
L 302.867985 83.698738 
L 303.048398 74.466213 
L 303.138605 76.150491 
L 303.228812 75.152374 
L 303.409226 70.473744 
L 303.679846 83.698738 
L 303.770053 82.825356 
L 303.86026 82.887842 
L 303.950467 83.698738 
L 304.130881 89.874663 
L 304.311295 85.008811 
L 304.491708 86.880311 
L 304.581915 85.882194 
L 304.672122 86.755576 
L 304.852536 83.823473 
L 305.03295 89.937149 
L 305.213363 90.685559 
L 305.30357 89.874663 
L 305.483984 99.23216 
L 305.574191 94.241336 
L 305.664398 94.740514 
L 305.754605 104.40973 
L 305.844811 103.598834 
L 306.025225 91.12225 
L 306.295846 108.58942 
L 306.47626 98.10907 
L 306.74688 106.780407 
L 306.837087 106.655672 
L 307.017501 105.595068 
L 307.288121 109.587537 
L 307.468535 106.780407 
L 307.648949 113.517758 
L 307.739156 112.831596 
L 307.829363 113.081066 
L 307.91957 114.39114 
L 308.009776 113.143315 
L 308.099983 115.950683 
L 308.280397 123.7484 
L 308.460811 118.508343 
L 308.551018 119.506461 
L 308.641225 122.750283 
L 308.731431 122.563299 
L 308.821638 121.565182 
L 309.002052 124.309826 
L 309.092259 125.370429 
L 309.182466 129.050942 
L 309.272673 142.899848 
L 309.36288 142.400908 
L 309.453086 143.08707 
L 309.543293 146.455863 
L 309.6335 143.897966 
L 309.723707 135.913028 
L 309.813914 137.659792 
L 309.904121 144.459629 
L 309.994328 142.525643 
L 310.174741 136.162735 
L 310.264948 136.474454 
L 310.445362 140.092718 
L 310.535569 138.782644 
L 310.715983 145.956686 
L 310.80619 144.085187 
L 310.896396 141.153322 
L 311.347431 152.569302 
L 311.527845 145.270525 
L 311.708258 152.756523 
L 311.888672 147.142025 
L 312.069086 152.756523 
L 312.159293 150.323598 
L 312.2495 150.697803 
L 312.339706 151.758406 
L 312.429913 150.885024 
L 312.610327 151.758406 
L 312.700534 150.573067 
L 312.790741 150.822538 
L 312.880948 152.194859 
L 312.971155 150.011642 
L 313.061361 150.573067 
L 313.151568 153.941624 
L 313.331982 145.39526 
L 313.512396 155.189449 
L 313.69281 149.138259 
L 314.053637 159.680858 
L 314.143844 159.431387 
L 314.234051 158.246049 
L 314.414465 168.164973 
L 314.594878 164.546709 
L 314.685085 165.482578 
L 314.775292 165.045886 
L 314.955706 166.792413 
L 315.045913 166.168738 
L 315.226327 176.087662 
L 315.40674 167.354077 
L 315.587154 176.649088 
L 315.767568 172.781354 
L 315.947982 176.898558 
L 316.128395 174.465632 
L 316.308809 166.854899 
L 316.399016 167.728282 
L 316.489223 167.977751 
L 316.57943 166.293473 
L 317.030464 183.199218 
L 317.210878 179.705688 
L 317.301085 180.017645 
L 317.391292 180.82854 
L 317.481498 178.957041 
L 317.571705 179.268997 
L 317.752119 183.947865 
L 317.842326 182.263349 
L 317.932533 183.011996 
L 318.02274 181.140497 
L 318.112947 181.389967 
L 318.203153 188.564008 
L 318.29336 187.940334 
L 318.383567 180.329601 
L 318.473774 180.579071 
L 318.563981 180.703806 
L 318.654188 176.39938 
L 318.834602 182.824775 
L 318.924808 181.452453 
L 319.105222 190.123552 
L 319.285636 180.267115 
L 319.46605 188.75123 
L 319.646463 184.883496 
L 319.73667 189.811833 
L 319.826877 188.50176 
L 319.917084 181.078248 
L 320.007291 182.138614 
L 320.097498 184.571539 
L 320.187705 183.698157 
L 320.368118 191.496111 
L 320.548532 187.628378 
L 320.638739 188.50176 
L 320.819153 184.571539 
L 321.089773 190.80995 
L 321.17998 198.233462 
L 321.270187 197.484815 
L 321.360394 190.123552 
L 321.450601 190.685215 
L 321.631015 195.675802 
L 321.811428 188.938451 
L 321.901635 191.30889 
L 321.991842 198.545418 
L 322.172256 190.373259 
L 322.262463 192.494229 
L 322.35267 191.932803 
L 322.442877 189.811833 
L 322.62329 199.293828 
L 322.713497 197.235345 
L 322.803704 198.545418 
L 322.984118 188.50176 
L 323.074325 190.248524 
L 323.164532 192.993168 
L 323.344945 191.30889 
L 323.435152 192.182273 
L 323.615566 190.310773 
L 323.705773 190.685215 
L 323.886187 186.567774 
L 324.0666 190.186038 
L 324.156807 190.310773 
L 324.337221 197.921506 
L 324.517635 194.490463 
L 324.698048 198.670154 
L 324.788255 197.235345 
L 324.968669 198.857137 
L 325.058876 195.98752 
L 325.23929 204.409387 
L 325.329497 202.101196 
L 325.419703 198.295711 
L 325.600117 237.035418 
L 325.690324 237.097786 
L 325.780531 236.473992 
L 325.960945 242.400328 
L 326.141358 231.982464 
L 326.321772 234.165801 
L 326.411979 232.356788 
L 326.502186 233.47964 
L 326.772807 239.593198 
L 326.95322 225.182746 
L 327.133634 236.224522 
L 327.314048 225.931393 
L 327.494462 232.606258 
L 327.674875 226.742289 
L 327.855289 229.923863 
L 327.945496 229.736641 
L 328.12591 227.366083 
L 328.216117 228.800891 
L 328.486737 240.903152 
L 328.667151 231.046715 
L 328.757358 231.670508 
L 328.937772 229.29995 
L 329.118185 221.439747 
L 329.298599 231.982464 
L 329.479013 224.184629 
L 329.659427 234.477757 
L 329.83984 222.375497 
L 329.930047 223.68557 
L 330.110461 229.362436 
L 330.381082 218.258293 
L 330.471288 221.938806 
L 330.561495 221.751704 
L 330.651702 217.759235 
L 330.741909 221.12791 
L 330.832116 219.817836 
L 330.922323 212.394325 
L 331.01253 213.018118 
L 331.102737 216.885852 
L 331.28315 211.084251 
L 331.373357 213.953868 
L 331.463564 213.454809 
L 331.553771 211.770412 
L 331.643978 213.330075 
L 331.734185 212.643795 
L 331.914598 203.598253 
L 332.095012 205.594488 
L 332.185219 204.721106 
L 332.275426 205.469753 
L 332.365633 204.222166 
L 332.546047 190.622729 
L 332.816667 203.161562 
L 332.997081 188.377025 
L 333.087288 190.123552 
L 333.177495 200.104962 
L 333.267702 196.736167 
L 333.357909 188.25229 
L 333.448115 189.562126 
L 333.538322 192.93092 
L 333.718736 201.78924 
L 333.989357 214.577661 
L 334.350184 202.03871 
L 334.440391 201.602019 
L 334.530598 204.097431 
L 335.071839 182.076366 
L 335.252253 191.55836 
L 335.34246 189.687098 
L 335.522874 195.800537 
L 335.703287 187.628378 
L 335.883701 194.240994 
L 336.334735 181.764409 
L 336.515149 183.261466 
L 336.695563 191.433625 
L 336.875977 180.641557 
L 337.05639 186.443039 
L 337.327011 173.84172 
L 337.417218 175.276528 
L 337.597632 181.514939 
L 337.687839 180.82854 
L 337.868252 187.877847 
L 337.958459 185.132966 
L 338.048666 188.127317 
L 338.138873 187.004465 
L 338.319287 170.847368 
L 338.4997 175.900441 
L 338.680114 166.355959 
L 338.860528 174.902323 
L 338.950735 172.219928 
L 339.040942 172.718868 
L 339.221355 168.476929 
L 339.582183 182.887262 
L 339.762597 174.278411 
L 339.94301 176.649088 
L 340.123424 174.839837 
L 340.303838 175.339015 
L 340.394045 172.781354 
L 340.484252 175.089545 
L 340.574459 181.452453 
L 340.664665 179.768175 
L 340.754872 174.153676 
L 340.845079 174.839837 
L 340.935286 178.208631 
L 341.025493 176.586602 
L 341.205907 172.032707 
L 341.38632 176.960807 
L 341.476527 173.904206 
L 341.566734 174.09119 
L 341.656941 176.461867 
L 341.747148 174.715102 
L 341.837355 167.665795 
L 342.017769 178.582836 
L 342.198182 165.357842 
L 342.378596 180.142379 
L 342.55901 166.230987 
L 342.739424 172.594133 
L 342.919837 164.359487 
L 343.100251 169.287825 
L 343.370872 163.049652 
L 343.551285 166.106252 
L 343.821906 157.247932 
L 344.00232 170.098721 
L 344.092527 168.726399 
L 344.182734 167.853017 
L 344.27294 170.161207 
L 344.363147 168.663912 
L 344.453354 169.287825 
L 344.543561 173.84172 
L 344.633768 173.093073 
L 344.723975 170.473163 
L 344.814182 171.408795 
L 344.994595 175.962689 
L 345.084802 174.09119 
L 345.175009 174.715102 
L 345.265216 179.89291 
L 345.355423 178.582836 
L 345.44563 173.405029 
L 345.71625 176.524115 
L 345.986871 190.186038 
L 346.167285 180.516822 
L 346.347699 189.562126 
L 346.528112 176.149911 
L 346.618319 176.39938 
L 346.798733 183.011996 
L 346.88894 181.452453 
L 347.15956 185.132966 
L 347.339974 192.244759 
L 347.520388 188.189803 
L 347.610595 187.877847 
L 347.791009 188.439274 
L 348.151836 181.389967 
L 348.242043 179.768175 
L 348.33225 180.080131 
L 348.60287 184.010114 
L 348.783284 182.325835 
L 348.873491 183.199218 
L 349.053905 174.216162 
L 349.234319 183.386439 
L 349.324525 182.263349 
L 349.504939 175.962689 
L 349.595146 177.958924 
L 349.77556 174.340898 
L 349.865767 197.796771 
L 349.955974 195.73805 
L 350.046181 198.233462 
L 350.226594 190.310773 
L 350.407008 196.112493 
L 350.587422 186.131083 
L 350.858042 193.42986 
L 351.038456 197.11061 
L 351.21887 191.371377 
L 351.399284 199.980227 
L 351.579697 193.679567 
L 351.760111 196.985875 
L 351.850318 196.424211 
L 351.940525 196.923389 
L 352.030732 196.860903 
L 352.120939 191.870316 
L 352.211146 191.932803 
L 352.301352 199.418801 
L 352.481766 189.687098 
L 352.66218 199.48105 
L 353.023007 188.813716 
L 353.203421 190.934686 
L 353.293628 188.314539 
L 353.474042 191.121669 
L 353.654456 188.875965 
L 353.744662 190.310773 
L 353.834869 189.375142 
L 353.925076 189.936568 
L 354.015283 191.745582 
L 354.195697 189.499877 
L 354.285904 189.998817 
L 354.376111 189.749347 
L 354.556524 181.389967 
L 354.736938 190.248524 
L 354.827145 188.626495 
L 355.097766 198.420446 
L 355.187972 196.424211 
L 355.368386 187.503643 
L 355.5488 191.121669 
L 355.639007 189.437391 
L 355.819421 191.371377 
L 355.909627 189.063186 
L 355.999834 189.437391 
L 356.090041 189.687098 
L 356.180248 189.375142 
L 356.360662 191.55836 
L 356.450869 191.496111 
L 356.631282 197.172859 
L 356.721489 194.240994 
L 356.901903 182.263349 
L 357.082317 191.30889 
L 357.172524 188.75123 
L 357.262731 189.000699 
L 357.352937 191.995051 
L 357.533351 187.690626 
L 357.713765 191.371377 
L 357.894179 184.384556 
L 358.074592 144.459629 
L 358.164799 146.642847 
L 358.255006 146.081421 
L 358.43542 141.652261 
L 358.525627 141.46504 
L 358.706041 138.221218 
L 358.886454 147.453981 
L 359.247282 137.347836 
L 359.427696 144.958569 
L 359.517902 143.149556 
L 359.698316 147.204273 
L 359.87873 141.46504 
L 359.968937 141.590012 
L 360.239557 151.134494 
L 360.329764 149.200508 
L 360.510178 140.9661 
L 360.600385 143.897966 
L 360.690592 143.648495 
L 360.780799 141.652261 
L 361.051419 147.703451 
L 361.231833 142.650378 
L 361.412247 146.206156 
L 361.502454 142.650378 
L 361.592661 143.399026 
L 361.773074 154.25358 
L 361.953488 150.261111 
L 362.133902 151.009759 
L 362.314316 153.692154 
L 362.494729 151.383963 
L 362.584936 153.692154 
L 362.675143 153.442684 
L 362.76535 150.822538 
L 362.855557 151.072007 
L 363.035971 150.385846 
L 363.216384 153.567419 
L 363.306591 152.007876 
L 363.396798 154.25358 
L 363.487005 154.00411 
L 363.577212 149.699685 
L 363.667419 152.070124 
L 363.847832 159.244167 
L 363.938039 160.616726 
L 364.028246 165.856782 
L 364.118453 164.172504 
L 364.20866 157.435153 
L 364.298867 157.622374 
L 364.479281 159.930327 
L 364.659694 168.539178 
L 364.749901 166.230987 
L 364.930315 168.476929 
L 365.020522 168.164973 
L 365.200936 177.023293 
L 365.291142 175.588485 
L 365.381349 171.221811 
L 365.832384 184.134848 
L 365.922591 181.889144 
L 366.012797 180.766292 
L 366.103004 111.271815 
L 366.193211 114.827831 
L 366.463832 126.555768 
L 366.554039 125.682386 
L 366.734452 111.646258 
L 366.914866 113.642492 
L 367.005073 113.642492 
L 367.275694 122.500812 
L 367.365901 122.188856 
L 367.546314 117.19827 
L 367.726728 122.251343 
L 367.907142 119.755931 
L 368.087556 125.994342 
L 368.267969 122.188856 
L 368.448383 128.552002 
L 368.53859 128.115311 
L 368.809211 134.104014 
L 369.350452 150.136376 
L 369.440659 148.951038 
L 369.621073 144.209922 
L 369.711279 143.835717 
L 369.891693 152.007876 
L 369.9819 151.321715 
L 370.072107 150.822538 
L 370.252521 167.54106 
L 370.432934 158.620491 
L 370.703555 168.102487 
L 370.793762 168.352194 
L 370.974176 165.669561 
L 371.154589 175.775706 
L 371.244796 172.968338 
L 371.42521 175.900441 
L 371.515417 176.274646 
L 371.695831 184.945982 
L 371.786038 180.891027 
L 371.876244 182.949747 
L 372.056658 190.80995 
L 372.146865 188.002583 
L 372.327279 193.929037 
L 372.507693 189.375142 
L 372.778313 199.169093 
L 372.86852 198.108727 
L 372.958727 197.983992 
L 373.139141 190.248524 
L 373.229348 194.427977 
L 373.409761 208.401856 
L 373.590175 203.161562 
L 373.680382 205.656974 
L 373.770589 212.893384 
L 373.860796 211.957634 
L 373.951003 207.029296 
L 374.131416 218.195926 
L 374.221623 228.988113 
L 374.31183 228.177098 
L 374.582451 248.763355 
L 374.762864 238.407859 
L 374.853071 239.717932 
L 375.033485 236.099668 
L 375.123692 239.593198 
L 375.213899 237.784065 
L 375.394313 231.109082 
L 375.484519 231.670508 
L 375.845347 237.784065 
L 375.935554 238.407859 
L 376.115968 245.581901 
L 376.296381 240.528947 
L 376.476795 245.519533 
L 376.567002 246.580018 
L 376.657209 250.759708 
L 376.837623 241.6518 
L 376.927829 243.835136 
L 377.018036 248.888209 
L 377.19845 246.517651 
L 377.378864 255.937397 
L 377.469071 249.3249 
L 377.559278 250.51012 
L 377.649484 255.001647 
L 377.739691 252.755942 
L 377.920105 243.772769 
L 378.010312 244.646151 
L 378.461346 256.436455 
L 378.64176 266.667216 
L 378.912381 251.632972 
L 379.002588 252.381619 
L 379.183001 253.75406 
L 379.273208 253.442104 
L 379.453622 256.623677 
L 379.543829 253.691692 
L 379.634036 253.816428 
L 379.724243 255.438338 
L 379.814449 254.502588 
L 379.904656 254.627324 
L 380.175277 266.230525 
L 380.355691 262.737115 
L 380.445898 263.173806 
L 380.536104 262.487645 
L 380.716518 263.672865 
L 380.896932 260.179454 
L 380.987139 261.738998 
L 381.167553 271.720289 
L 381.257759 270.347848 
L 381.438173 260.990469 
L 381.618587 266.292893 
L 381.799001 261.801365 
L 381.889208 264.795717 
L 381.979414 264.670982 
L 382.069621 262.175689 
L 382.159828 262.425277 
L 382.250035 262.86185 
L 382.430449 78.520931 
L 382.520656 80.205446 
L 382.610863 84.696855 
L 382.701069 83.199798 
L 382.791276 78.458682 
L 382.881483 78.520931 
L 382.97169 80.704386 
L 383.061897 79.456799 
L 383.242311 82.950091 
L 383.422724 71.03517 
L 383.693345 79.519048 
L 383.783552 80.080474 
L 383.873759 77.710035 
L 383.963966 77.83477 
L 384.054173 80.766872 
L 384.234586 78.208975 
L 384.324793 79.89349 
L 384.415 78.208975 
L 384.505207 79.207092 
L 384.866035 92.307588 
L 384.956241 91.060001 
L 385.046448 91.621427 
L 385.58769 104.035525 
L 385.677896 101.165908 
L 385.768103 102.039291 
L 385.85831 107.529054 
L 385.948517 106.530937 
L 386.038724 105.220863 
L 386.128931 108.027994 
L 386.219138 107.217098 
L 386.309345 107.778524 
L 386.579965 120.816534 
L 386.670172 123.24946 
L 386.760379 122.064122 
L 386.850586 122.999752 
L 386.940793 128.17756 
L 387.031 127.179443 
L 387.121206 121.253226 
L 387.211413 121.440209 
L 387.482034 137.098366 
L 387.572241 136.911145 
L 387.662448 134.977397 
L 387.933068 147.640964 
L 388.203689 143.08707 
L 388.47431 148.140142 
L 388.654723 152.132611 
L 388.835137 140.654144 
L 389.015551 152.257346 
L 389.105758 152.007876 
L 389.195965 151.758406 
L 389.376378 159.992814 
L 389.466585 157.996579 
L 389.556792 158.059066 
L 389.737206 158.68274 
L 389.91762 161.240401 
L 390.007826 157.622374 
L 390.18824 165.420091 
L 390.278447 164.172504 
L 390.368654 162.924917 
L 390.549068 136.599189 
L 390.729481 139.468805 
L 390.909895 126.992459 
L 391.090309 136.661675 
L 391.180516 127.054707 
L 391.270723 128.801472 
L 391.36093 137.597306 
L 391.541343 135.16438 
L 391.63155 143.211804 
L 391.721757 142.338422 
L 391.811964 136.474454 
L 391.902171 137.223101 
L 391.992378 139.344071 
L 392.082585 137.160852 
L 392.172791 137.223101 
L 392.353205 145.14579 
L 392.533619 140.217453 
L 392.623826 145.332774 
L 392.714033 145.083304 
L 392.80424 143.523761 
L 392.984653 152.881258 
L 393.165067 147.453981 
L 393.345481 151.695919 
L 393.435688 150.448333 
L 393.525895 150.510581 
L 393.616101 150.822538 
L 393.796515 153.567419 
L 393.886722 152.818772 
L 393.976929 153.068242 
L 394.24755 159.493636 
L 394.427963 152.881258 
L 394.788791 168.040238 
L 394.969205 160.990931 
L 395.330032 170.909855 
L 395.420239 168.601664 
L 395.600653 178.083896 
L 395.69086 177.272763 
L 395.96148 172.094955 
L 396.051687 173.280294 
L 396.412515 184.634026 
L 396.683135 176.274646 
L 396.773342 178.27088 
L 397.043963 190.248524 
L 397.224376 189.375142 
L 397.314583 189.562126 
L 397.494997 176.898558 
L 397.585204 179.268997 
L 397.765618 188.688743 
L 397.855825 186.318304 
L 397.946031 189.000699 
L 398.216652 204.721106 
L 398.487273 208.401856 
L 398.487273 208.401856 
" clip-path="url(#p3fb99f5f55)" style="fill: none; stroke: #1f77b4; stroke-width: 1.5; stroke-linecap: square"/>
   </g>
   <g id="patch_3">
    <path d="M 57.6 307.584 
L 57.6 41.472 
" style="fill: none; stroke: #000000; stroke-width: 0.8; stroke-linejoin: miter; stroke-linecap: square"/>
   </g>
   <g id="patch_4">
    <path d="M 414.72 307.584 
L 414.72 41.472 
" style="fill: none; stroke: #000000; stroke-width: 0.8; stroke-linejoin: miter; stroke-linecap: square"/>
   </g>
   <g id="patch_5">
    <path d="M 57.6 307.584 
L 414.72 307.584 
" style="fill: none; stroke: #000000; stroke-width: 0.8; stroke-linejoin: miter; stroke-linecap: square"/>
   </g>
   <g id="patch_6">
    <path d="M 57.6 41.472 
L 414.72 41.472 
" style="fill: none; stroke: #000000; stroke-width: 0.8; stroke-linejoin: miter; stroke-linecap: square"/>
   </g>
   <g id="legend_1">
    <g id="patch_7">
     <path d="M 354.074688 64.150125 
L 407.72 64.150125 
Q 409.72 64.150125 409.72 62.150125 
L 409.72 48.472 
Q 409.72 46.472 407.72 46.472 
L 354.074688 46.472 
Q 352.074688 46.472 352.074688 48.472 
L 352.074688 62.150125 
Q 352.074688 64.150125 354.074688 64.150125 
z
" style="fill: #ffffff; opacity: 0.8; stroke: #cccccc; stroke-linejoin: miter"/>
    </g>
    <g id="line2d_16">
     <path d="M 356.074688 54.570438 
L 366.074688 54.570438 
L 376.074688 54.570438 
" style="fill: none; stroke: #1f77b4; stroke-width: 1.5; stroke-linecap: square"/>
    </g>
    <g id="text_15">
     <!-- set2 -->
     <g transform="translate(384.074688 58.070438)scale(0.1 -0.1)">
      <defs>
       <path id="DejaVuSans-73" d="M 2834 3397 
L 2834 2853 
Q 2591 2978 2328 3040 
Q 2066 3103 1784 3103 
Q 1356 3103 1142 2972 
Q 928 2841 928 2578 
Q 928 2378 1081 2264 
Q 1234 2150 1697 2047 
L 1894 2003 
Q 2506 1872 2764 1633 
Q 3022 1394 3022 966 
Q 3022 478 2636 193 
Q 2250 -91 1575 -91 
Q 1294 -91 989 -36 
Q 684 19 347 128 
L 347 722 
Q 666 556 975 473 
Q 1284 391 1588 391 
Q 1994 391 2212 530 
Q 2431 669 2431 922 
Q 2431 1156 2273 1281 
Q 2116 1406 1581 1522 
L 1381 1569 
Q 847 1681 609 1914 
Q 372 2147 372 2553 
Q 372 3047 722 3315 
Q 1072 3584 1716 3584 
Q 2034 3584 2315 3537 
Q 2597 3491 2834 3397 
z
" transform="scale(0.015625)"/>
       <path id="DejaVuSans-65" d="M 3597 1894 
L 3597 1613 
L 953 1613 
Q 991 1019 1311 708 
Q 1631 397 2203 397 
Q 2534 397 2845 478 
Q 3156 559 3463 722 
L 3463 178 
Q 3153 47 2828 -22 
Q 2503 -91 2169 -91 
Q 1331 -91 842 396 
Q 353 884 353 1716 
Q 353 2575 817 3079 
Q 1281 3584 2069 3584 
Q 2775 3584 3186 3129 
Q 3597 2675 3597 1894 
z
M 3022 2063 
Q 3016 2534 2758 2815 
Q 2500 3097 2075 3097 
Q 1594 3097 1305 2825 
Q 1016 2553 972 2059 
L 3022 2063 
z
" transform="scale(0.015625)"/>
       <path id="DejaVuSans-74" d="M 1172 4494 
L 1172 3500 
L 2356 3500 
L 2356 3053 
L 1172 3053 
L 1172 1153 
Q 1172 725 1289 603 
Q 1406 481 1766 481 
L 2356 481 
L 2356 0 
L 1766 0 
Q 1100 0 847 248 
Q 594 497 594 1153 
L 594 3053 
L 172 3053 
L 172 3500 
L 594 3500 
L 594 4494 
L 1172 4494 
z
" transform="scale(0.015625)"/>
      </defs>
      <use xlink:href="#DejaVuSans-73"/>
      <use xlink:href="#DejaVuSans-65" x="52.099609"/>
      <use xlink:href="#DejaVuSans-74" x="113.623047"/>
      <use xlink:href="#DejaVuSans-32" x="152.832031"/>
     </g>
    </g>
   </g>
  </g>
 </g>
 <defs>
  <clipPath id="p3fb99f5f55">
   <rect x="57.6" y="41.472" width="357.12" height="266.112"/>
  </clipPath>
 </defs>
</svg>
