<?xml version="1.0" encoding="utf-8" standalone="no"?>
<!DOCTYPE svg PUBLIC "-//W3C//DTD SVG 1.1//EN"
  "http://www.w3.org/Graphics/SVG/1.1/DTD/svg11.dtd">
<svg xmlns:xlink="http://www.w3.org/1999/xlink" width="460.8pt" height="345.6pt" viewBox="0 0 460.8 345.6" xmlns="http://www.w3.org/2000/svg" version="1.1">
 <metadata>
  <rdf:RDF xmlns:dc="http://purl.org/dc/elements/1.1/" xmlns:cc="http://creativecommons.org/ns#" xmlns:rdf="http://www.w3.org/1999/02/22-rdf-syntax-ns#">
   <cc:Work>
    <dc:type rdf:resource="http://purl.org/dc/dcmitype/StillImage"/>
    <dc:date>2022-08-11T15:18:08.269120</dc:date>
    <dc:format>image/svg+xml</dc:format>
    <dc:creator>
     <cc:Agent>
      <dc:title>Matplotlib v3.5.2, https://matplotlib.org/</dc:title>
     </cc:Agent>
    </dc:creator>
   </cc:Work>
  </rdf:RDF>
 </metadata>
 <defs>
  <style type="text/css">*{stroke-linejoin: round; stroke-linecap: butt}</style>
 </defs>
 <g id="figure_1">
  <g id="patch_1">
   <path d="M 0 345.6 
L 460.8 345.6 
L 460.8 0 
L 0 0 
z
" style="fill: #ffffff"/>
  </g>
  <g id="axes_1">
   <g id="patch_2">
    <path d="M 57.6 307.584 
L 414.72 307.584 
L 414.72 41.472 
L 57.6 41.472 
z
" style="fill: #ffffff"/>
   </g>
   <g id="matplotlib.axis_1">
    <g id="xtick_1">
     <g id="line2d_1">
      <defs>
       <path id="mb8a5e11dd7" d="M 0 0 
L 0 3.5 
" style="stroke: #000000; stroke-width: 0.8"/>
      </defs>
      <g>
       <use xlink:href="#mb8a5e11dd7" x="73.832727" y="307.584" style="stroke: #000000; stroke-width: 0.8"/>
      </g>
     </g>
     <g id="text_1">
      <!-- 0 -->
      <g transform="translate(70.651477 322.182437)scale(0.1 -0.1)">
       <defs>
        <path id="DejaVuSans-30" d="M 2034 4250 
Q 1547 4250 1301 3770 
Q 1056 3291 1056 2328 
Q 1056 1369 1301 889 
Q 1547 409 2034 409 
Q 2525 409 2770 889 
Q 3016 1369 3016 2328 
Q 3016 3291 2770 3770 
Q 2525 4250 2034 4250 
z
M 2034 4750 
Q 2819 4750 3233 4129 
Q 3647 3509 3647 2328 
Q 3647 1150 3233 529 
Q 2819 -91 2034 -91 
Q 1250 -91 836 529 
Q 422 1150 422 2328 
Q 422 3509 836 4129 
Q 1250 4750 2034 4750 
z
" transform="scale(0.015625)"/>
       </defs>
       <use xlink:href="#DejaVuSans-30"/>
      </g>
     </g>
    </g>
    <g id="xtick_2">
     <g id="line2d_2">
      <g>
       <use xlink:href="#mb8a5e11dd7" x="118.936165" y="307.584" style="stroke: #000000; stroke-width: 0.8"/>
      </g>
     </g>
     <g id="text_2">
      <!-- 500 -->
      <g transform="translate(109.392415 322.182437)scale(0.1 -0.1)">
       <defs>
        <path id="DejaVuSans-35" d="M 691 4666 
L 3169 4666 
L 3169 4134 
L 1269 4134 
L 1269 2991 
Q 1406 3038 1543 3061 
Q 1681 3084 1819 3084 
Q 2600 3084 3056 2656 
Q 3513 2228 3513 1497 
Q 3513 744 3044 326 
Q 2575 -91 1722 -91 
Q 1428 -91 1123 -41 
Q 819 9 494 109 
L 494 744 
Q 775 591 1075 516 
Q 1375 441 1709 441 
Q 2250 441 2565 725 
Q 2881 1009 2881 1497 
Q 2881 1984 2565 2268 
Q 2250 2553 1709 2553 
Q 1456 2553 1204 2497 
Q 953 2441 691 2322 
L 691 4666 
z
" transform="scale(0.015625)"/>
       </defs>
       <use xlink:href="#DejaVuSans-35"/>
       <use xlink:href="#DejaVuSans-30" x="63.623047"/>
       <use xlink:href="#DejaVuSans-30" x="127.246094"/>
      </g>
     </g>
    </g>
    <g id="xtick_3">
     <g id="line2d_3">
      <g>
       <use xlink:href="#mb8a5e11dd7" x="164.039603" y="307.584" style="stroke: #000000; stroke-width: 0.8"/>
      </g>
     </g>
     <g id="text_3">
      <!-- 1000 -->
      <g transform="translate(151.314603 322.182437)scale(0.1 -0.1)">
       <defs>
        <path id="DejaVuSans-31" d="M 794 531 
L 1825 531 
L 1825 4091 
L 703 3866 
L 703 4441 
L 1819 4666 
L 2450 4666 
L 2450 531 
L 3481 531 
L 3481 0 
L 794 0 
L 794 531 
z
" transform="scale(0.015625)"/>
       </defs>
       <use xlink:href="#DejaVuSans-31"/>
       <use xlink:href="#DejaVuSans-30" x="63.623047"/>
       <use xlink:href="#DejaVuSans-30" x="127.246094"/>
       <use xlink:href="#DejaVuSans-30" x="190.869141"/>
      </g>
     </g>
    </g>
    <g id="xtick_4">
     <g id="line2d_4">
      <g>
       <use xlink:href="#mb8a5e11dd7" x="209.143041" y="307.584" style="stroke: #000000; stroke-width: 0.8"/>
      </g>
     </g>
     <g id="text_4">
      <!-- 1500 -->
      <g transform="translate(196.418041 322.182437)scale(0.1 -0.1)">
       <use xlink:href="#DejaVuSans-31"/>
       <use xlink:href="#DejaVuSans-35" x="63.623047"/>
       <use xlink:href="#DejaVuSans-30" x="127.246094"/>
       <use xlink:href="#DejaVuSans-30" x="190.869141"/>
      </g>
     </g>
    </g>
    <g id="xtick_5">
     <g id="line2d_5">
      <g>
       <use xlink:href="#mb8a5e11dd7" x="254.246479" y="307.584" style="stroke: #000000; stroke-width: 0.8"/>
      </g>
     </g>
     <g id="text_5">
      <!-- 2000 -->
      <g transform="translate(241.521479 322.182437)scale(0.1 -0.1)">
       <defs>
        <path id="DejaVuSans-32" d="M 1228 531 
L 3431 531 
L 3431 0 
L 469 0 
L 469 531 
Q 828 903 1448 1529 
Q 2069 2156 2228 2338 
Q 2531 2678 2651 2914 
Q 2772 3150 2772 3378 
Q 2772 3750 2511 3984 
Q 2250 4219 1831 4219 
Q 1534 4219 1204 4116 
Q 875 4013 500 3803 
L 500 4441 
Q 881 4594 1212 4672 
Q 1544 4750 1819 4750 
Q 2544 4750 2975 4387 
Q 3406 4025 3406 3419 
Q 3406 3131 3298 2873 
Q 3191 2616 2906 2266 
Q 2828 2175 2409 1742 
Q 1991 1309 1228 531 
z
" transform="scale(0.015625)"/>
       </defs>
       <use xlink:href="#DejaVuSans-32"/>
       <use xlink:href="#DejaVuSans-30" x="63.623047"/>
       <use xlink:href="#DejaVuSans-30" x="127.246094"/>
       <use xlink:href="#DejaVuSans-30" x="190.869141"/>
      </g>
     </g>
    </g>
    <g id="xtick_6">
     <g id="line2d_6">
      <g>
       <use xlink:href="#mb8a5e11dd7" x="299.349916" y="307.584" style="stroke: #000000; stroke-width: 0.8"/>
      </g>
     </g>
     <g id="text_6">
      <!-- 2500 -->
      <g transform="translate(286.624916 322.182437)scale(0.1 -0.1)">
       <use xlink:href="#DejaVuSans-32"/>
       <use xlink:href="#DejaVuSans-35" x="63.623047"/>
       <use xlink:href="#DejaVuSans-30" x="127.246094"/>
       <use xlink:href="#DejaVuSans-30" x="190.869141"/>
      </g>
     </g>
    </g>
    <g id="xtick_7">
     <g id="line2d_7">
      <g>
       <use xlink:href="#mb8a5e11dd7" x="344.453354" y="307.584" style="stroke: #000000; stroke-width: 0.8"/>
      </g>
     </g>
     <g id="text_7">
      <!-- 3000 -->
      <g transform="translate(331.728354 322.182437)scale(0.1 -0.1)">
       <defs>
        <path id="DejaVuSans-33" d="M 2597 2516 
Q 3050 2419 3304 2112 
Q 3559 1806 3559 1356 
Q 3559 666 3084 287 
Q 2609 -91 1734 -91 
Q 1441 -91 1130 -33 
Q 819 25 488 141 
L 488 750 
Q 750 597 1062 519 
Q 1375 441 1716 441 
Q 2309 441 2620 675 
Q 2931 909 2931 1356 
Q 2931 1769 2642 2001 
Q 2353 2234 1838 2234 
L 1294 2234 
L 1294 2753 
L 1863 2753 
Q 2328 2753 2575 2939 
Q 2822 3125 2822 3475 
Q 2822 3834 2567 4026 
Q 2313 4219 1838 4219 
Q 1578 4219 1281 4162 
Q 984 4106 628 3988 
L 628 4550 
Q 988 4650 1302 4700 
Q 1616 4750 1894 4750 
Q 2613 4750 3031 4423 
Q 3450 4097 3450 3541 
Q 3450 3153 3228 2886 
Q 3006 2619 2597 2516 
z
" transform="scale(0.015625)"/>
       </defs>
       <use xlink:href="#DejaVuSans-33"/>
       <use xlink:href="#DejaVuSans-30" x="63.623047"/>
       <use xlink:href="#DejaVuSans-30" x="127.246094"/>
       <use xlink:href="#DejaVuSans-30" x="190.869141"/>
      </g>
     </g>
    </g>
    <g id="xtick_8">
     <g id="line2d_8">
      <g>
       <use xlink:href="#mb8a5e11dd7" x="389.556792" y="307.584" style="stroke: #000000; stroke-width: 0.8"/>
      </g>
     </g>
     <g id="text_8">
      <!-- 3500 -->
      <g transform="translate(376.831792 322.182437)scale(0.1 -0.1)">
       <use xlink:href="#DejaVuSans-33"/>
       <use xlink:href="#DejaVuSans-35" x="63.623047"/>
       <use xlink:href="#DejaVuSans-30" x="127.246094"/>
       <use xlink:href="#DejaVuSans-30" x="190.869141"/>
      </g>
     </g>
    </g>
   </g>
   <g id="matplotlib.axis_2">
    <g id="ytick_1">
     <g id="line2d_9">
      <defs>
       <path id="m2ed039f6f0" d="M 0 0 
L -3.5 0 
" style="stroke: #000000; stroke-width: 0.8"/>
      </defs>
      <g>
       <use xlink:href="#m2ed039f6f0" x="57.6" y="304.473642" style="stroke: #000000; stroke-width: 0.8"/>
      </g>
     </g>
     <g id="text_9">
      <!-- 3900 -->
      <g transform="translate(25.15 308.272861)scale(0.1 -0.1)">
       <defs>
        <path id="DejaVuSans-39" d="M 703 97 
L 703 672 
Q 941 559 1184 500 
Q 1428 441 1663 441 
Q 2288 441 2617 861 
Q 2947 1281 2994 2138 
Q 2813 1869 2534 1725 
Q 2256 1581 1919 1581 
Q 1219 1581 811 2004 
Q 403 2428 403 3163 
Q 403 3881 828 4315 
Q 1253 4750 1959 4750 
Q 2769 4750 3195 4129 
Q 3622 3509 3622 2328 
Q 3622 1225 3098 567 
Q 2575 -91 1691 -91 
Q 1453 -91 1209 -44 
Q 966 3 703 97 
z
M 1959 2075 
Q 2384 2075 2632 2365 
Q 2881 2656 2881 3163 
Q 2881 3666 2632 3958 
Q 2384 4250 1959 4250 
Q 1534 4250 1286 3958 
Q 1038 3666 1038 3163 
Q 1038 2656 1286 2365 
Q 1534 2075 1959 2075 
z
" transform="scale(0.015625)"/>
       </defs>
       <use xlink:href="#DejaVuSans-33"/>
       <use xlink:href="#DejaVuSans-39" x="63.623047"/>
       <use xlink:href="#DejaVuSans-30" x="127.246094"/>
       <use xlink:href="#DejaVuSans-30" x="190.869141"/>
      </g>
     </g>
    </g>
    <g id="ytick_2">
     <g id="line2d_10">
      <g>
       <use xlink:href="#m2ed039f6f0" x="57.6" y="250.560051" style="stroke: #000000; stroke-width: 0.8"/>
      </g>
     </g>
     <g id="text_10">
      <!-- 4000 -->
      <g transform="translate(25.15 254.35927)scale(0.1 -0.1)">
       <defs>
        <path id="DejaVuSans-34" d="M 2419 4116 
L 825 1625 
L 2419 1625 
L 2419 4116 
z
M 2253 4666 
L 3047 4666 
L 3047 1625 
L 3713 1625 
L 3713 1100 
L 3047 1100 
L 3047 0 
L 2419 0 
L 2419 1100 
L 313 1100 
L 313 1709 
L 2253 4666 
z
" transform="scale(0.015625)"/>
       </defs>
       <use xlink:href="#DejaVuSans-34"/>
       <use xlink:href="#DejaVuSans-30" x="63.623047"/>
       <use xlink:href="#DejaVuSans-30" x="127.246094"/>
       <use xlink:href="#DejaVuSans-30" x="190.869141"/>
      </g>
     </g>
    </g>
    <g id="ytick_3">
     <g id="line2d_11">
      <g>
       <use xlink:href="#m2ed039f6f0" x="57.6" y="196.646459" style="stroke: #000000; stroke-width: 0.8"/>
      </g>
     </g>
     <g id="text_11">
      <!-- 4100 -->
      <g transform="translate(25.15 200.445678)scale(0.1 -0.1)">
       <use xlink:href="#DejaVuSans-34"/>
       <use xlink:href="#DejaVuSans-31" x="63.623047"/>
       <use xlink:href="#DejaVuSans-30" x="127.246094"/>
       <use xlink:href="#DejaVuSans-30" x="190.869141"/>
      </g>
     </g>
    </g>
    <g id="ytick_4">
     <g id="line2d_12">
      <g>
       <use xlink:href="#m2ed039f6f0" x="57.6" y="142.732867" style="stroke: #000000; stroke-width: 0.8"/>
      </g>
     </g>
     <g id="text_12">
      <!-- 4200 -->
      <g transform="translate(25.15 146.532086)scale(0.1 -0.1)">
       <use xlink:href="#DejaVuSans-34"/>
       <use xlink:href="#DejaVuSans-32" x="63.623047"/>
       <use xlink:href="#DejaVuSans-30" x="127.246094"/>
       <use xlink:href="#DejaVuSans-30" x="190.869141"/>
      </g>
     </g>
    </g>
    <g id="ytick_5">
     <g id="line2d_13">
      <g>
       <use xlink:href="#m2ed039f6f0" x="57.6" y="88.819276" style="stroke: #000000; stroke-width: 0.8"/>
      </g>
     </g>
     <g id="text_13">
      <!-- 4300 -->
      <g transform="translate(25.15 92.618495)scale(0.1 -0.1)">
       <use xlink:href="#DejaVuSans-34"/>
       <use xlink:href="#DejaVuSans-33" x="63.623047"/>
       <use xlink:href="#DejaVuSans-30" x="127.246094"/>
       <use xlink:href="#DejaVuSans-30" x="190.869141"/>
      </g>
     </g>
    </g>
   </g>
   <g id="line2d_14">
    <path d="M 73.832727 237.703713 
L 74.013141 249.315932 
L 74.193555 233.418266 
L 74.554382 249.661447 
L 74.734796 230.238733 
L 74.825003 230.79169 
L 75.005417 239.915539 
L 75.18583 229.547571 
L 75.276037 231.068234 
L 75.366244 235.077136 
L 75.456451 234.31687 
L 75.546658 230.446174 
L 75.636865 230.930028 
L 75.817279 235.146239 
L 75.907485 235.699196 
L 75.997692 235.422783 
L 76.087899 235.491887 
L 76.178106 235.491887 
L 76.268313 232.174147 
L 76.35852 233.28006 
L 76.448727 239.846436 
L 76.538934 239.017067 
L 76.719347 229.824115 
L 76.899761 236.736006 
L 77.260589 220.008972 
L 77.621416 225.953287 
L 77.711623 224.709168 
L 77.892037 229.271158 
L 78.07245 224.018005 
L 78.162657 225.400331 
L 78.252864 224.501859 
L 78.433278 220.354619 
L 78.613692 219.456015 
L 78.794105 216.41482 
L 78.974519 219.801662 
L 79.335347 208.880738 
L 79.425554 211.783726 
L 79.51576 207.429177 
L 79.696174 194.572839 
L 79.786381 194.918486 
L 79.966795 188.421214 
L 80.237415 192.222807 
L 80.417829 189.527127 
L 80.598243 193.95078 
L 80.68845 192.844866 
L 80.778657 194.434633 
L 81.049277 205.632102 
L 81.139484 206.530574 
L 81.229691 209.5719 
L 81.319898 208.880738 
L 81.410105 209.502797 
L 81.590519 230.515278 
L 82.041553 195.955164 
L 82.13176 193.674367 
L 82.312174 200.793699 
L 82.40238 200.793699 
L 82.582794 205.701205 
L 82.673001 201.139215 
L 82.763208 201.415758 
L 83.033829 214.617612 
L 83.214242 209.295357 
L 83.394656 218.695749 
L 83.484863 214.617612 
L 83.57507 216.069173 
L 83.665277 224.225315 
L 83.755484 223.050298 
L 83.84569 217.589836 
L 84.206518 226.920994 
L 84.296725 227.0592 
L 84.386932 226.990097 
L 84.657552 233.763913 
L 84.837966 230.653484 
L 85.01838 233.694811 
L 85.198794 230.377071 
L 85.289 229.616674 
L 85.469414 223.119401 
L 85.559621 224.294417 
L 85.740035 232.86531 
L 85.830242 230.79169 
L 86.191069 239.362582 
L 86.281276 239.984642 
L 86.46169 238.04936 
L 86.551897 240.122979 
L 86.642104 239.431685 
L 86.822517 232.796207 
L 86.912724 233.556473 
L 87.093138 240.606833 
L 87.273552 232.796207 
L 87.363759 237.288962 
L 87.544172 250.214404 
L 87.634379 247.034871 
L 87.814793 259.614796 
L 87.905 256.98822 
L 87.995207 257.610279 
L 88.085414 260.789812 
L 88.265827 254.154334 
L 88.446241 259.407355 
L 88.626655 256.504367 
L 88.807069 265.835525 
L 88.987482 264.245758 
L 89.167896 267.010672 
L 89.258103 265.628215 
L 89.438517 268.392998 
L 89.528724 265.904628 
L 89.618931 267.010672 
L 89.799344 273.784357 
L 89.889551 271.848944 
L 89.979758 273.784357 
L 90.160172 267.840042 
L 90.340586 262.103035 
L 90.881827 273.577048 
L 90.972034 271.157781 
L 91.152447 274.337314 
L 91.423068 264.176655 
L 91.513275 266.595922 
L 91.603482 266.181172 
L 91.693689 267.494394 
L 91.783896 272.402031 
L 91.874102 271.77984 
L 92.144723 263.554595 
L 92.23493 266.595922 
L 92.415344 274.130004 
L 92.505551 271.848944 
L 92.685964 273.922563 
L 92.866378 271.295987 
L 93.046792 273.300503 
L 93.136999 274.821167 
L 93.317412 264.867949 
L 93.407619 267.909144 
L 93.497826 274.406417 
L 93.67824 263.070742 
L 93.768447 266.042966 
L 93.858654 264.245758 
L 93.948861 259.6839 
L 94.129274 266.526819 
L 94.309688 259.960312 
L 94.490102 265.697318 
L 94.580309 262.379579 
L 94.760722 267.010672 
L 94.941136 262.794329 
L 95.031343 265.351671 
L 95.12155 262.794329 
L 95.301964 253.117524 
L 95.752998 265.490009 
L 95.933412 254.430746 
L 96.023619 254.361644 
L 96.204032 245.168692 
L 96.384446 255.882307 
L 96.56486 245.514339 
L 96.745274 238.325772 
L 96.925687 247.173209 
L 97.106101 241.505305 
L 97.286515 248.279121 
L 97.376722 247.173209 
L 97.466929 247.380518 
L 97.557136 247.242311 
L 98.00817 237.980257 
L 98.098377 244.131881 
L 98.188584 138.378187 
L 98.278791 142.940309 
L 98.459204 133.678122 
L 98.549411 135.406094 
L 98.729825 141.765161 
L 98.910239 142.525426 
L 99.271066 152.409672 
L 99.361273 149.160905 
L 99.541687 139.829747 
L 99.631894 145.843166 
L 99.812307 137.410743 
L 99.902514 138.516656 
L 99.992721 138.723834 
L 100.353549 123.517463 
L 100.443756 124.761583 
L 100.533962 123.586698 
L 100.624169 123.655669 
L 100.714376 123.448492 
L 100.804583 118.609958 
L 100.89479 119.923312 
L 101.075204 128.424969 
L 101.345824 115.154012 
L 101.526238 117.435073 
L 101.706652 107.135945 
L 101.796859 107.965445 
L 101.887066 104.924119 
L 101.977272 97.804787 
L 102.067479 99.947641 
L 102.157686 107.689033 
L 102.247893 105.753619 
L 102.428307 97.735815 
L 102.518514 98.012228 
L 102.698927 100.846113 
L 102.879341 89.994423 
L 102.969548 93.035487 
L 103.059755 92.690103 
L 103.149962 92.275221 
L 103.240169 93.864988 
L 103.510789 83.842535 
L 103.78141 90.547248 
L 103.961824 82.045591 
L 104.052031 84.603064 
L 104.142237 91.860602 
L 104.322651 79.833765 
L 104.503065 88.888511 
L 104.593272 81.561738 
L 104.683479 82.183797 
L 104.773686 87.160275 
L 104.863892 83.91177 
L 104.954099 86.192831 
L 105.044306 93.312163 
L 105.134513 90.75469 
L 105.22472 84.948448 
L 105.314927 85.916155 
L 105.405134 88.473629 
L 105.585548 83.151504 
L 105.765961 91.238543 
L 105.856168 89.441336 
L 105.946375 89.164923 
L 106.036582 94.348841 
L 106.126789 93.381134 
L 106.216996 89.303129 
L 106.307203 197.959813 
L 106.397409 195.194899 
L 106.487616 188.766862 
L 106.577823 189.941746 
L 106.66803 193.95078 
L 106.938651 185.6563 
L 107.028858 184.827062 
L 107.119064 188.006332 
L 107.299478 196.439018 
L 107.479892 192.0846 
L 107.570099 192.430247 
L 107.750513 199.756889 
L 107.840719 197.061078 
L 107.930926 192.153572 
L 108.291754 200.793699 
L 108.472168 194.227192 
L 108.652581 203.212834 
L 108.832995 193.881545 
L 109.013409 201.761274 
L 109.193823 194.227192 
L 109.284029 195.886193 
L 109.464443 189.734568 
L 109.55465 191.531512 
L 109.735064 184.757827 
L 109.825271 187.038888 
L 110.005684 176.117701 
L 110.095891 176.808995 
L 110.186098 174.113316 
L 110.456719 161.118771 
L 110.637133 154.967146 
L 110.727339 150.128612 
L 110.907753 158.561298 
L 111.088167 151.372994 
L 111.178374 152.893526 
L 111.629408 134.300182 
L 111.719615 133.747357 
L 111.990236 122.065903 
L 112.170649 127.319056 
L 112.621684 108.03468 
L 112.711891 107.135945 
L 112.802098 109.278799 
L 112.982511 104.371293 
L 113.162925 100.638673 
L 113.253132 102.919734 
L 113.343339 102.781527 
L 113.613959 91.929574 
L 113.704166 92.275221 
L 113.794373 90.961867 
L 113.88458 91.100337 
L 113.974787 92.897281 
L 114.064994 92.137015 
L 114.155201 89.994423 
L 114.335614 95.731166 
L 114.516028 183.651915 
L 114.606235 185.103475 
L 114.786649 183.306268 
L 115.147476 187.799155 
L 115.32789 183.098826 
L 115.418097 183.859356 
L 115.508304 185.587328 
L 115.778924 175.979495 
L 115.959338 182.614973 
L 116.049545 176.463348 
L 116.139752 177.845937 
L 116.320166 185.310653 
L 116.500579 183.306268 
L 116.680993 189.043274 
L 116.7712 188.075567 
L 116.951614 182.753442 
L 117.132028 185.518094 
L 117.402648 191.462541 
L 117.492855 193.881545 
L 117.583062 193.536161 
L 117.763476 190.079952 
L 117.853683 191.738953 
L 117.943889 191.324335 
L 118.034096 192.015366 
L 118.124303 194.503868 
L 118.21451 194.088986 
L 118.304717 190.63304 
L 118.394924 191.185865 
L 118.485131 194.365398 
L 118.575338 192.70666 
L 118.665544 188.974039 
L 118.845958 192.0846 
L 119.026372 183.928327 
L 119.116579 185.379887 
L 119.387199 183.306268 
L 119.567613 188.974039 
L 119.65782 188.490186 
L 119.838234 183.790121 
L 120.018648 192.70666 
L 120.199061 180.887 
L 120.379475 185.449122 
L 120.469682 183.375502 
L 120.650096 184.550387 
L 120.740303 183.859356 
L 120.830509 184.550387 
L 121.010923 186.900419 
L 121.191337 184.066533 
L 121.281544 185.725534 
L 121.371751 185.379887 
L 121.461958 185.03424 
L 121.642371 191.462541 
L 121.822785 185.03424 
L 121.912992 185.449122 
L 122.183613 199.065595 
L 122.273819 198.166991 
L 122.724854 174.873581 
L 122.815061 175.564876 
L 122.905268 174.80461 
L 122.995475 176.532583 
L 123.085681 182.684208 
L 123.175888 182.200354 
L 123.266095 176.325142 
L 123.356302 178.675174 
L 123.536716 185.932976 
L 123.626923 184.481415 
L 123.807336 185.518094 
L 123.98775 185.103475 
L 124.258371 185.103475 
L 124.348578 185.449122 
L 124.528991 185.03424 
L 124.619198 185.794506 
L 124.709405 184.481415 
L 124.889819 175.979495 
L 125.070233 177.154642 
L 125.340853 172.869196 
L 125.521267 168.099897 
L 125.611474 168.58375 
L 125.791888 165.749864 
L 125.882095 166.095512 
L 126.062508 157.731797 
L 126.423336 165.196776 
L 126.513543 167.339631 
L 126.60375 164.782158 
L 126.693956 165.05857 
L 126.784163 167.063218 
L 126.964577 156.556912 
L 127.144991 161.118771 
L 127.325405 157.662826 
L 127.415611 158.284885 
L 127.596025 150.474259 
L 127.686232 151.856585 
L 127.866646 146.603695 
L 127.956853 148.469874 
L 128.04706 151.027347 
L 128.227473 149.437581 
L 128.588301 151.234525 
L 128.858921 144.806487 
L 128.949128 145.0829 
L 129.129542 142.041573 
L 129.219749 142.318249 
L 129.580576 146.53446 
L 129.76099 143.700574 
L 129.851197 144.530075 
L 129.941404 142.871074 
L 130.031611 143.700574 
L 130.121818 145.981635 
L 130.302231 142.249014 
L 130.392438 143.769546 
L 130.482645 143.424162 
L 130.572852 143.285956 
L 130.663059 149.23014 
L 130.753266 148.538845 
L 130.93368 141.626954 
L 131.114093 149.852199 
L 131.2043 149.160905 
L 131.384714 152.824291 
L 131.474921 151.995054 
L 131.565128 150.336053 
L 131.745541 154.690733 
L 132.016162 150.543494 
L 132.106369 151.165553 
L 132.196576 150.266818 
L 132.37699 155.381765 
L 132.557403 149.160905 
L 132.828024 151.787613 
L 133.008438 157.939238 
L 133.098645 155.796647 
L 133.188851 156.764354 
L 133.279058 155.658177 
L 133.369265 150.958113 
L 133.459472 152.547879 
L 133.549679 157.870266 
L 133.639886 156.833325 
L 133.910506 152.409672 
L 134.09092 154.897911 
L 134.271334 149.23014 
L 134.361541 151.372994 
L 134.541955 148.746286 
L 134.632161 151.787613 
L 134.722368 151.234525 
L 134.812575 148.60808 
L 134.902782 148.746286 
L 135.353816 157.662826 
L 135.444023 155.865618 
L 135.53423 157.040766 
L 135.624437 159.943624 
L 135.804851 150.336053 
L 135.895058 151.165553 
L 136.075471 159.943624 
L 136.165678 160.012858 
L 136.255885 161.256977 
L 136.346092 160.704152 
L 136.526506 155.727412 
L 136.70692 158.008473 
L 136.797126 157.178972 
L 137.067747 160.980565 
L 137.157954 160.289271 
L 137.338368 157.455385 
L 137.428575 158.561298 
L 137.699195 164.782158 
L 137.879609 166.302689 
L 137.969816 167.477837 
L 138.15023 165.957305 
L 138.330643 168.169131 
L 138.511057 166.579365 
L 138.601264 167.201425 
L 138.691471 172.592784 
L 138.781678 168.514515 
L 138.871885 169.067603 
L 138.962091 168.307338 
L 139.052298 170.242751 
L 139.232712 178.813381 
L 139.413126 175.634111 
L 139.683746 184.066533 
L 139.86416 187.660948 
L 140.044574 182.546001 
L 140.134781 183.306268 
L 140.315195 186.485801 
L 140.405402 186.001947 
L 140.585815 183.444473 
L 140.766229 185.103475 
L 140.946643 178.744409 
L 141.127057 184.896034 
L 141.30747 178.95185 
L 141.487884 183.237296 
L 141.578091 182.131383 
L 141.758505 184.965269 
L 141.938918 176.25617 
L 142.119332 184.550387 
L 142.299746 175.495641 
L 142.389953 178.122349 
L 142.48016 175.910523 
L 142.570367 177.776702 
L 142.75078 183.098826 
L 142.931194 185.310653 
L 143.111608 177.154642 
L 143.201815 185.241681 
L 143.292022 184.41218 
L 143.382228 174.597169 
L 143.472435 175.979495 
L 143.652849 183.790121 
L 143.743056 183.237296 
L 143.833263 185.241681 
L 144.013677 181.647529 
L 144.103883 182.96062 
L 144.284297 188.075567 
L 144.464711 183.098826 
L 144.554918 183.168061 
L 144.645125 184.965269 
L 144.735332 184.550387 
L 144.915745 180.610588 
L 145.096159 183.029855 
L 145.186366 180.818029 
L 145.36678 183.859356 
L 145.456987 181.370854 
L 145.547193 181.647529 
L 145.6374 185.449122 
L 145.817814 180.126735 
L 145.998228 185.379887 
L 146.088435 184.066533 
L 146.178642 184.20474 
L 146.268848 184.550387 
L 146.449262 181.785736 
L 146.629676 184.757827 
L 146.81009 181.578295 
L 146.990503 168.58375 
L 147.08071 169.82787 
L 147.170917 169.482222 
L 147.351331 166.786543 
L 147.441538 168.099897 
L 147.621952 165.611658 
L 147.892572 170.795577 
L 148.072986 166.924749 
L 148.2534 167.685278 
L 148.52402 165.88807 
L 148.704434 165.127805 
L 148.794641 165.68063 
L 148.884848 168.099897 
L 148.975055 167.961691 
L 149.155468 165.334983 
L 149.245675 167.339631 
L 149.335882 166.51013 
L 149.426089 167.408602 
L 149.606503 176.740023 
L 149.786917 174.251522 
L 149.877123 173.975109 
L 150.057537 166.51013 
L 150.147744 169.897104 
L 150.328158 166.095512 
L 150.508572 174.044344 
L 150.779192 166.579365 
L 150.869399 165.542423 
L 150.959606 166.440895 
L 151.049813 169.620429 
L 151.14002 168.652985 
L 151.230227 166.164483 
L 151.681261 176.670789 
L 151.771468 176.601554 
L 151.951882 174.389728 
L 152.042088 176.463348 
L 152.132295 176.394376 
L 152.222502 177.085407 
L 152.312709 181.785736 
L 152.402916 181.440089 
L 152.493123 176.670789 
L 152.58333 178.536968 
L 152.763743 184.965269 
L 152.85395 183.997562 
L 152.944157 184.20474 
L 153.124571 185.172446 
L 153.214778 184.481415 
L 153.485398 191.047659 
L 153.665812 189.457893 
L 153.846226 194.365398 
L 154.29726 187.246066 
L 154.567881 192.153572 
L 154.658088 192.430247 
L 154.748295 192.222807 
L 154.838502 192.430247 
L 154.928708 193.743338 
L 155.199329 209.710107 
L 155.379743 190.909453 
L 155.830777 209.364591 
L 156.011191 196.23184 
L 156.101398 197.544931 
L 156.191605 201.553965 
L 156.372018 198.650844 
L 156.462225 200.655361 
L 156.552432 199.895095 
L 156.642639 193.121279 
L 156.732846 193.95078 
L 156.91326 205.493764 
L 157.003467 205.977617 
L 157.18388 202.037818 
L 157.364294 206.876221 
L 157.454501 200.309846 
L 157.544708 201.139215 
L 157.725122 209.15715 
L 157.905535 201.208318 
L 158.085949 206.530574 
L 158.266363 200.655361 
L 158.35657 202.590775 
L 158.536984 199.13483 
L 158.717397 202.176025 
L 158.897811 200.862802 
L 159.078225 206.530574 
L 159.258639 201.415758 
L 159.348845 207.705721 
L 159.439052 207.221868 
L 159.529259 201.761274 
L 159.619466 201.899612 
L 159.709673 201.346656 
L 159.79988 197.890578 
L 159.890087 198.927388 
L 159.980294 201.899612 
L 160.160707 200.724596 
L 160.250914 200.862802 
L 160.431328 191.738953 
L 160.521535 192.153572 
L 160.611742 194.918486 
L 160.701949 192.361013 
L 160.882362 186.001947 
L 160.972569 187.522742 
L 161.152983 183.029855 
L 161.24319 183.928327 
L 161.333397 183.444473 
L 161.51381 186.209388 
L 161.694224 183.444473 
L 161.784431 184.965269 
L 161.874638 184.827062 
L 161.964845 183.237296 
L 162.055052 184.827062 
L 162.325672 194.918486 
L 162.415879 191.738953 
L 162.506086 191.808188 
L 162.776707 209.15715 
L 162.866914 207.843928 
L 163.137534 186.485801 
L 163.227741 186.624007 
L 163.317948 184.135768 
L 163.408155 184.688593 
L 163.588569 192.361013 
L 163.768982 193.052307 
L 163.949396 190.771246 
L 164.039603 193.32872 
L 164.220017 200.517155 
L 164.40043 193.743338 
L 164.490637 201.346656 
L 164.580844 199.964199 
L 164.671051 193.536161 
L 164.761258 196.8539 
L 164.941672 205.493764 
L 165.031879 203.005525 
L 165.212292 205.010042 
L 165.302499 202.659878 
L 165.57312 211.645521 
L 165.663327 210.60871 
L 165.753534 210.885123 
L 165.933947 217.105982 
L 166.114361 208.535091 
L 166.294775 211.161667 
L 166.384982 210.124857 
L 166.475189 211.645521 
L 166.655602 201.208318 
L 166.745809 203.074628 
L 166.926223 210.677814 
L 167.01643 209.295357 
L 167.28705 219.525118 
L 167.377257 218.557543 
L 167.467464 218.903058 
L 167.647878 220.561928 
L 167.828292 217.244189 
L 167.918499 219.732559 
L 168.008705 216.207379 
L 168.098912 207.843928 
L 168.189119 209.710107 
L 168.279326 215.79276 
L 168.45974 208.189443 
L 168.73036 221.944385 
L 168.820567 220.907575 
L 168.910774 223.188505 
L 169.091188 232.24325 
L 169.181395 232.450559 
L 169.271602 232.24325 
L 169.452015 231.344647 
L 169.632429 233.90212 
L 169.812843 229.063717 
L 169.993257 235.35368 
L 170.083464 230.860793 
L 170.263877 235.008033 
L 170.444291 230.100527 
L 170.624705 232.312354 
L 170.714912 232.24325 
L 170.805119 231.482985 
L 170.985532 236.321387 
L 171.075739 235.906637 
L 171.165946 234.593282 
L 171.34636 222.013489 
L 171.526774 217.175086 
L 171.61698 218.557543 
L 171.797394 222.981195 
L 171.887601 224.363521 
L 171.977808 227.681392 
L 172.068015 226.575478 
L 172.158222 222.773754 
L 172.338635 226.368038 
L 172.609256 219.456015 
L 172.78967 217.313292 
L 172.970084 221.253222 
L 173.240704 214.825054 
L 173.691739 227.335745 
L 173.781945 225.953287 
L 173.872152 222.220798 
L 173.962359 222.566445 
L 174.052566 223.534152 
L 174.23298 217.313292 
L 174.323187 218.073689 
L 174.413394 217.313292 
L 174.5036 215.239672 
L 174.684014 220.14731 
L 174.864428 214.272097 
L 174.954635 219.663456 
L 175.044842 219.386912 
L 175.225256 214.3412 
L 175.315462 214.410303 
L 175.495876 211.85283 
L 175.586083 213.09708 
L 175.766497 212.060271 
L 175.946911 216.760335 
L 176.037117 215.032363 
L 176.217531 219.663456 
L 176.668566 209.502797 
L 176.758772 212.405786 
L 176.848979 219.110499 
L 176.939186 217.797146 
L 177.1196 208.396884 
L 177.209807 208.949841 
L 177.390221 199.273035 
L 177.570634 207.982134 
L 177.751048 200.171639 
L 177.841255 200.724596 
L 177.931462 200.517155 
L 178.021669 200.931905 
L 178.111876 202.314362 
L 178.292289 199.273035 
L 178.472703 201.968715 
L 178.56291 200.378949 
L 178.743324 201.070111 
L 178.833531 200.862802 
L 178.923737 202.798084 
L 179.104151 193.812573 
L 179.284565 202.798084 
L 179.374772 162.501097 
L 179.464979 168.099897 
L 179.555186 165.68063 
L 179.735599 157.178972 
L 179.825806 162.501097 
L 179.916013 162.293919 
L 180.096427 160.704152 
L 180.186634 160.634918 
L 180.367047 167.547072 
L 180.457254 167.408602 
L 180.637668 159.874652 
L 180.727875 159.667211 
L 180.818082 161.256977 
L 180.908289 159.943624 
L 181.088702 154.137646 
L 181.269116 157.801032 
L 181.44953 151.096318 
L 181.539737 151.30376 
L 181.720151 150.05964 
L 181.900564 154.759705 
L 182.080978 150.889141 
L 182.351599 159.943624 
L 182.532012 148.400639 
L 182.712426 154.137646 
L 182.983047 141.557719 
L 183.073254 141.350542 
L 183.163461 139.138716 
L 183.253667 139.691541 
L 183.434081 142.940309 
L 183.524288 142.456455 
L 183.704702 133.678122 
L 183.885116 144.806487 
L 184.065529 131.53553 
L 184.33615 141.073866 
L 184.606771 130.913471 
L 184.696977 132.434003 
L 184.787184 132.848621 
L 184.967598 135.682507 
L 185.148012 131.53553 
L 185.238219 132.019384 
L 185.328426 133.747357 
L 185.508839 126.005702 
L 185.599046 126.420584 
L 185.869667 135.820976 
L 185.959874 134.85327 
L 186.140287 125.038258 
L 186.320701 132.572209 
L 186.501115 126.005702 
L 186.681529 132.364768 
L 186.771736 132.848621 
L 186.952149 136.373801 
L 187.042356 133.194268 
L 187.22277 122.964638 
L 187.312977 124.692611 
L 187.403184 123.86311 
L 187.583597 185.863741 
L 187.673804 183.098826 
L 187.854218 188.55942 
L 188.034632 182.753442 
L 188.124839 183.997562 
L 188.305252 182.407795 
L 188.485666 189.596099 
L 188.66608 183.375502 
L 188.846494 186.071182 
L 188.936701 183.237296 
L 189.026907 184.343209 
L 189.207321 193.190514 
L 189.297528 193.190514 
L 189.387735 192.914101 
L 189.568149 190.149187 
L 189.658356 190.702012 
L 189.748562 190.218421 
L 189.928976 184.619622 
L 190.10939 193.536161 
L 190.289804 192.015366 
L 190.380011 194.227192 
L 190.470217 191.946395 
L 190.650631 183.168061 
L 190.740838 186.071182 
L 190.921252 181.301882 
L 191.101666 183.721149 
L 191.5527 164.574716 
L 191.642907 167.754249 
L 191.733114 169.067603 
L 191.913527 162.846744 
L 192.093941 168.998369 
L 192.184148 168.721956 
L 192.274355 165.88807 
L 192.364562 166.095512 
L 192.454769 164.367539 
L 192.725389 152.271467 
L 192.99601 146.603695 
L 193.086217 142.318249 
L 193.176424 142.594661 
L 193.266631 143.700574 
L 193.447044 146.396254 
L 193.627458 140.590276 
L 193.717665 139.829747 
L 193.898079 129.530882 
L 193.988286 133.401709 
L 194.349113 124.830817 
L 194.529527 126.835202 
L 194.619734 125.383642 
L 194.890354 115.56863 
L 195.070768 118.26431 
L 195.160975 118.471751 
L 195.341389 117.987898 
L 195.521803 119.992283 
L 195.702216 226.851891 
L 195.792423 232.86531 
L 195.88263 230.307837 
L 195.972837 223.534152 
L 196.063044 223.741461 
L 196.243458 229.271158 
L 196.423871 231.20644 
L 196.604285 226.160728 
L 196.784699 232.035941 
L 196.965113 225.331228 
L 197.145526 228.925511 
L 197.32594 223.948902 
L 197.506354 233.48737 
L 197.596561 229.893218 
L 197.867181 239.846436 
L 198.047595 234.247767 
L 198.137802 234.040326 
L 198.318216 235.284577 
L 198.408423 235.077136 
L 198.588836 240.053876 
L 198.76925 238.187566 
L 198.949664 238.947832 
L 199.039871 237.841919 
L 199.130078 234.178664 
L 199.220284 234.593282 
L 199.310491 240.261186 
L 199.400698 238.533213 
L 199.490905 234.040326 
L 199.671319 240.053876 
L 199.851733 230.16963 
L 200.032146 238.533213 
L 200.302767 230.446174 
L 200.392974 227.750495 
L 200.844008 234.247767 
L 201.024422 231.62119 
L 201.204836 239.500789 
L 201.385249 226.368038 
L 201.565663 231.759397 
L 201.65587 225.538669 
L 201.746077 225.607772 
L 201.926491 229.409364 
L 202.016698 230.58438 
L 202.106904 229.824115 
L 202.287318 225.400331 
L 202.467732 230.515278 
L 202.557939 229.478468 
L 202.648146 228.579864 
L 202.828559 236.528696 
L 202.918766 236.321387 
L 203.09918 231.482985 
L 203.369801 242.611218 
L 203.460008 241.989159 
L 203.640421 229.685777 
L 203.820835 166.164483 
L 204.001249 169.82787 
L 204.091456 167.823484 
L 204.181663 168.998369 
L 204.362076 178.675174 
L 204.54249 172.523549 
L 204.722904 178.606203 
L 204.813111 177.016436 
L 204.903318 177.50029 
L 205.083731 184.688593 
L 205.173938 184.757827 
L 205.264145 182.200354 
L 205.354352 184.20474 
L 205.444559 192.568454 
L 205.534766 192.499219 
L 205.624973 185.379887 
L 205.805386 191.600747 
L 205.895593 190.218421 
L 206.166214 187.384272 
L 206.346628 194.158221 
L 206.436834 193.743338 
L 206.527041 194.849252 
L 206.707455 192.775631 
L 206.797662 194.434633 
L 206.978076 191.185865 
L 207.068283 191.600747 
L 207.158489 193.052307 
L 207.338903 190.63304 
L 207.519317 195.471311 
L 207.699731 202.936422 
L 207.880144 198.374432 
L 208.060558 202.521672 
L 208.150765 199.273035 
L 208.331179 204.871704 
L 208.421386 202.245127 
L 208.511593 202.383465 
L 208.601799 204.664395 
L 208.782213 199.825992 
L 208.962627 200.931905 
L 209.052834 199.13483 
L 209.143041 200.033301 
L 209.413661 209.018944 
L 209.503868 207.982134 
L 209.774489 210.60871 
L 209.864696 210.81602 
L 210.04511 208.189443 
L 210.135316 210.746917 
L 210.225523 210.19396 
L 210.31573 207.705721 
L 210.586351 215.930966 
L 210.676558 214.3412 
L 210.856971 217.935352 
L 211.037385 215.37801 
L 211.217799 219.179603 
L 211.398213 214.686716 
L 211.48842 216.276482 
L 211.578626 218.833956 
L 211.668833 218.073689 
L 211.75904 218.280999 
L 211.939454 211.23077 
L 212.119868 209.295357 
L 212.300281 219.110499 
L 212.390488 218.350102 
L 212.480695 218.764852 
L 212.570902 223.395946 
L 212.661109 221.045782 
L 212.751316 215.37801 
L 212.93173 222.082591 
L 213.112143 217.03688 
L 213.20235 219.386912 
L 213.382764 217.520733 
L 213.563178 225.607772 
L 213.833798 215.654423 
L 213.924005 215.79276 
L 214.37504 226.713685 
L 214.465246 224.640065 
L 214.555453 226.229831 
L 214.64566 225.676875 
L 214.826074 218.48844 
L 214.916281 226.575478 
L 215.006488 225.607772 
L 215.096695 220.769369 
L 215.277108 227.888701 
L 215.367315 222.773754 
L 215.547729 229.063717 
L 215.728143 223.326711 
L 215.81835 228.648967 
L 215.908556 227.404848 
L 215.998763 221.737076 
L 216.08897 222.635548 
L 216.449798 232.796207 
L 216.540005 233.072751 
L 216.720418 231.344647 
L 216.810625 232.519794 
L 216.900832 231.8285 
L 217.081246 226.506244 
L 217.171453 230.58438 
L 217.26166 230.16963 
L 217.351866 231.20644 
L 217.53228 239.708229 
L 217.712694 230.031424 
L 217.802901 231.552087 
L 217.983315 227.404848 
L 218.073521 230.860793 
L 218.253935 227.266641 
L 218.344142 230.58438 
L 218.434349 229.824115 
L 218.524556 225.815081 
L 218.795176 233.210957 
L 218.97559 231.482985 
L 219.065797 229.340261 
L 219.156004 230.860793 
L 219.246211 234.52418 
L 219.336418 233.625708 
L 219.426625 231.137337 
L 219.607038 233.48737 
L 219.697245 229.063717 
L 219.787452 231.41375 
L 219.877659 237.772815 
L 219.967866 153.308145 
L 220.058073 159.805417 
L 220.14828 158.97618 
L 220.238486 154.552264 
L 220.689521 159.943624 
L 220.869935 158.630533 
L 221.050348 161.326212 
L 221.140555 160.980565 
L 221.320969 149.852199 
L 221.501383 156.211265 
L 221.681796 148.262433 
L 221.86221 151.92582 
L 222.042624 148.538845 
L 222.132831 148.953727 
L 222.403451 142.179779 
L 222.493658 142.732867 
L 222.583865 141.350542 
L 222.764279 144.46084 
L 222.854486 142.940309 
L 222.944693 144.115193 
L 223.0349 142.663633 
L 223.125106 135.267889 
L 223.215313 136.650214 
L 223.30552 143.769546 
L 223.485934 131.189883 
L 223.576141 131.673737 
L 223.666348 130.014735 
L 223.756555 130.08397 
L 223.846761 133.678122 
L 224.027175 130.152942 
L 224.117382 133.678122 
L 224.297796 124.692611 
L 224.388003 127.042643 
L 224.47821 127.111878 
L 224.568416 122.480785 
L 224.658623 123.793876 
L 224.74883 123.724904 
L 224.929244 117.020191 
L 225.019451 121.651284 
L 225.199865 115.637865 
L 225.290071 116.32916 
L 225.380278 116.32916 
L 225.470485 116.743779 
L 225.560692 116.19069 
L 225.831313 106.375679 
L 225.92152 109.762653 
L 226.011726 108.65674 
L 226.19214 103.403587 
L 226.282347 104.5095 
L 226.462761 101.537408 
L 226.552968 101.81382 
L 226.643175 99.878406 
L 226.823588 105.891825 
L 227.004002 98.703522 
L 227.184416 101.260995 
L 227.455037 98.28864 
L 227.545243 98.357875 
L 227.725657 100.569701 
L 227.815864 98.979934 
L 227.996278 90.892895 
L 228.086485 183.513708 
L 228.176692 183.237296 
L 228.266898 182.753442 
L 228.357105 181.578295 
L 228.447312 181.647529 
L 228.537519 182.96062 
L 228.627726 182.269589 
L 228.898347 176.325142 
L 229.07876 187.93736 
L 229.259174 174.251522 
L 229.349381 175.150257 
L 229.439588 177.707467 
L 229.620002 174.527934 
L 229.710208 174.942816 
L 229.890622 177.292849 
L 230.161243 173.491256 
L 230.341657 165.88807 
L 230.612277 167.270396 
L 230.702484 168.445544 
L 230.882898 167.063218 
L 230.973105 167.339631 
L 231.063312 163.883685 
L 231.243725 151.234525 
L 231.424139 157.662826 
L 231.604553 150.819906 
L 231.69476 153.239173 
L 231.784967 152.75532 
L 231.96538 142.318249 
L 232.055587 142.525426 
L 232.145794 142.456455 
L 232.236001 141.004895 
L 232.326208 141.350542 
L 232.506622 140.175394 
L 232.687035 144.737252 
L 232.867449 140.797454 
L 232.957656 141.765161 
L 233.13807 132.848621 
L 233.228277 133.678122 
L 233.318483 133.194268 
L 233.40869 131.051677 
L 233.498897 131.328089 
L 233.859725 125.729289 
L 234.040138 129.461911 
L 234.130345 128.563175 
L 234.400966 123.171816 
L 234.491173 123.379257 
L 234.58138 124.830817 
L 234.761793 123.724904 
L 235.032414 125.93673 
L 235.122621 125.660318 
L 235.212828 124.139523 
L 235.393242 117.158397 
L 235.663862 119.646899 
L 235.844276 126.55879 
L 236.02469 124.277729 
L 236.114897 124.48517 
L 236.29531 223.119401 
L 236.385517 231.344647 
L 236.475724 229.271158 
L 236.565931 218.903058 
L 236.656138 219.456015 
L 236.746345 223.879799 
L 236.836552 222.151695 
L 237.016965 230.515278 
L 237.197379 221.460532 
L 237.287586 222.635548 
L 237.377793 222.290033 
L 237.558207 214.410303 
L 237.73862 232.934413 
L 237.919034 218.903058 
L 238.099448 234.93893 
L 238.279862 228.303452 
L 238.460275 237.4273 
L 238.550482 236.874344 
L 238.730896 231.20644 
L 238.821103 232.105044 
L 238.91131 231.482985 
L 239.001517 233.556473 
L 239.18193 240.053876 
L 239.362344 239.915539 
L 239.452551 238.187566 
L 239.632965 228.234348 
L 239.723172 228.856408 
L 239.903585 239.224376 
L 240.083999 232.105044 
L 240.264413 238.878729 
L 240.35462 235.284577 
L 240.535033 239.500789 
L 240.715447 233.694811 
L 240.805654 236.528696 
L 240.895861 232.727104 
L 240.986068 232.934413 
L 241.166482 240.261186 
L 241.346895 237.841919 
L 241.437102 235.630092 
L 241.79793 240.192083 
L 241.888137 239.570023 
L 241.978343 237.288962 
L 242.06855 240.537598 
L 242.158757 238.325772 
L 242.248964 233.210957 
L 242.429378 238.325772 
L 242.519585 233.556473 
L 242.699998 242.818659 
L 242.790205 236.943446 
L 242.880412 238.325772 
L 242.970619 243.855469 
L 243.151033 236.113946 
L 243.331447 248.07168 
L 243.602067 238.740522 
L 243.692274 241.920055 
L 243.962895 258.301442 
L 244.053102 259.200046 
L 244.233515 241.436202 
L 244.413929 148.538845 
L 244.504136 144.46084 
L 244.95517 159.59824 
L 245.135584 152.824291 
L 245.225791 153.377379 
L 245.406205 164.160098 
L 245.586619 155.381765 
L 245.767032 168.445544 
L 245.857239 163.468804 
L 245.947446 164.090863 
L 246.037653 167.754249 
L 246.218067 166.026277 
L 246.39848 169.275045 
L 246.488687 167.270396 
L 246.939722 178.191321 
L 247.029929 177.362083 
L 247.210342 172.316108 
L 247.390756 173.491256 
L 247.480963 173.076637 
L 247.751584 159.667211 
L 247.931997 169.344016 
L 248.022204 167.063218 
L 248.202618 177.50029 
L 248.292825 176.186936 
L 248.383032 177.016436 
L 248.563445 183.721149 
L 248.743859 177.50029 
L 248.924273 184.965269 
L 249.01448 183.651915 
L 249.104687 184.066533 
L 249.194894 185.518094 
L 249.375307 181.992913 
L 249.555721 186.347594 
L 249.645928 185.03424 
L 249.916549 201.139215 
L 250.096962 199.273035 
L 250.277376 203.489379 
L 250.367583 201.968715 
L 250.547997 204.871704 
L 250.72841 199.273035 
L 250.818617 203.143732 
L 250.999031 197.890578 
L 251.179445 210.746917 
L 251.359859 201.139215 
L 251.450065 206.599677 
L 251.540272 205.908514 
L 251.720686 200.102404 
L 251.991307 211.23077 
L 252.17172 213.235287 
L 252.261927 213.30439 
L 252.712962 196.577224 
L 252.803169 199.342139 
L 253.163996 218.073689 
L 253.34441 205.908514 
L 253.524824 221.184119 
L 253.885651 202.245127 
L 253.975858 199.480345 
L 254.156272 207.221868 
L 254.336685 199.549448 
L 254.517099 202.037818 
L 254.607306 205.839411 
L 254.697513 203.765791 
L 254.968134 177.569261 
L 255.148547 182.269589 
L 255.328961 172.454578 
L 255.599582 186.001947 
L 255.689789 185.449122 
L 255.960409 172.73099 
L 256.050616 173.422021 
L 256.140823 174.458963 
L 256.321237 181.440089 
L 256.411444 179.159028 
L 256.50165 179.228262 
L 256.682064 186.209388 
L 256.772271 186.209388 
L 257.042892 193.121279 
L 257.133099 193.121279 
L 257.223305 191.185865 
L 257.313512 194.503868 
L 257.493926 204.180541 
L 257.67434 192.844866 
L 258.035167 206.876221 
L 258.125374 205.632102 
L 258.215581 198.581873 
L 258.305788 198.78905 
L 258.395995 202.659878 
L 258.576409 199.895095 
L 258.847029 207.705721 
L 259.11765 199.480345 
L 259.298064 210.60871 
L 259.478477 205.770308 
L 259.839305 217.175086 
L 259.929512 217.105982 
L 260.019719 219.386912 
L 260.109925 219.110499 
L 260.290339 211.023461 
L 260.470753 220.008972 
L 260.56096 160.634918 
L 260.651167 169.482222 
L 260.741374 167.616044 
L 260.83158 163.330597 
L 261.011994 168.998369 
L 261.102201 168.099897 
L 261.192408 168.445544 
L 261.282615 168.169131 
L 261.372822 168.445544 
L 261.643442 176.947202 
L 261.733649 176.601554 
L 261.914063 173.836903 
L 262.094477 178.398762 
L 262.184684 175.495641 
L 262.365097 182.407795 
L 262.545511 171.832255 
L 262.725925 175.150257 
L 262.996546 176.808995 
L 263.267166 186.900419 
L 263.357373 186.624007 
L 263.44758 187.453507 
L 263.627994 194.711045 
L 264.079028 183.306268 
L 264.169235 185.172446 
L 264.259442 182.891649 
L 264.349649 184.066533 
L 264.530062 189.872774 
L 264.710476 188.351979 
L 264.89089 181.992913 
L 264.981097 186.347594 
L 265.071304 185.449122 
L 265.161511 177.707467 
L 265.251717 178.536968 
L 265.341924 185.6563 
L 265.432131 184.066533 
L 265.522338 182.338561 
L 265.612545 189.112509 
L 265.702752 188.835833 
L 265.792959 183.098826 
L 265.883166 185.172446 
L 266.063579 191.669719 
L 266.153786 189.457893 
L 266.3342 190.840481 
L 266.604821 181.370854 
L 266.695027 182.062148 
L 266.875441 185.449122 
L 266.965648 184.619622 
L 267.055855 187.177095 
L 267.146062 186.071182 
L 267.236269 181.094441 
L 267.416682 200.171639 
L 267.687303 184.550387 
L 267.77751 185.518094 
L 267.957924 180.818029 
L 268.138337 183.237296 
L 268.228544 182.684208 
L 268.408958 185.241681 
L 268.589372 180.057763 
L 268.769786 157.317179 
L 268.859992 156.556912 
L 269.040406 169.20581 
L 269.22082 156.142031 
L 269.311027 156.695119 
L 269.852268 160.634918 
L 269.942475 159.943624 
L 270.303302 168.169131 
L 270.393509 167.547072 
L 270.483716 165.68063 
L 270.66413 173.56049 
L 270.844544 164.989599 
L 271.024957 175.634111 
L 271.115164 174.735375 
L 271.205371 174.80461 
L 271.295578 179.988528 
L 271.385785 178.744409 
L 271.475992 168.58375 
L 271.566199 168.929398 
L 271.656406 175.564876 
L 271.836819 163.330597 
L 272.017233 166.786543 
L 272.10744 168.099897 
L 272.287854 177.50029 
L 272.468267 175.219229 
L 272.738888 165.473452 
L 272.919302 169.620429 
L 273.099716 157.731797 
L 273.189922 161.395183 
L 273.370336 173.35305 
L 273.460543 169.551457 
L 273.640957 177.914908 
L 273.731164 176.186936 
L 273.821371 174.527934 
L 274.091991 178.536968 
L 274.182198 177.016436 
L 274.272405 171.832255 
L 274.362612 173.836903 
L 274.543026 182.062148 
L 274.633232 174.458963 
L 274.723439 174.597169 
L 274.813646 181.923942 
L 274.903853 179.850322 
L 275.084267 169.966076 
L 275.264681 181.301882 
L 275.535301 176.325142 
L 275.715715 184.619622 
L 275.805922 184.20474 
L 276.076542 171.27943 
L 276.347163 178.813381 
L 276.527577 176.394376 
L 276.707991 183.444473 
L 276.888404 243.440719 
L 276.978611 246.689355 
L 277.159025 229.962321 
L 277.339439 239.846436 
L 277.429646 234.247767 
L 277.519852 235.491887 
L 277.610059 242.887762 
L 277.700266 241.574408 
L 277.790473 236.943446 
L 277.970887 239.984642 
L 278.151301 233.349163 
L 278.331714 241.850952 
L 278.512128 226.368038 
L 278.692542 244.477529 
L 278.872956 232.519794 
L 279.053369 240.952348 
L 279.233783 234.385973 
L 279.32399 236.321387 
L 279.504404 239.708229 
L 279.594611 239.639126 
L 279.775024 240.399392 
L 279.865231 241.712746 
L 279.955438 240.883246 
L 280.316266 227.335745 
L 280.496679 229.201923 
L 280.586886 227.128435 
L 280.677093 228.441657 
L 280.857507 237.772815 
L 281.037921 232.035941 
L 281.128128 233.833017 
L 281.218334 233.141854 
L 281.488955 227.0592 
L 281.579162 226.022391 
L 281.669369 226.506244 
L 281.759576 227.612157 
L 281.939989 231.41375 
L 282.120403 226.782788 
L 282.300817 216.691232 
L 282.391024 219.041396 
L 282.481231 218.211896 
L 282.661644 214.548509 
L 282.751851 213.09708 
L 282.932265 207.774824 
L 283.022472 206.530574 
L 283.112679 206.599677 
L 283.293093 211.714623 
L 283.383299 210.263063 
L 283.563713 211.161667 
L 283.65392 209.848313 
L 283.744127 211.161667 
L 284.014748 219.870765 
L 284.104954 218.972162 
L 284.195161 216.898673 
L 284.285368 219.110499 
L 284.555989 236.183049 
L 284.826609 214.617612 
L 284.916816 169.82787 
L 285.007023 171.348664 
L 285.187437 168.238103 
L 285.548264 183.721149 
L 285.728678 180.748794 
L 285.909092 194.711045 
L 285.999299 192.361013 
L 286.089506 185.587328 
L 286.269919 196.300812 
L 286.360126 192.983073 
L 286.450333 189.80354 
L 286.811161 201.623068 
L 286.991574 201.346656 
L 287.081781 201.830509 
L 287.623023 216.691232 
L 287.803436 220.14731 
L 288.074057 211.161667 
L 288.254471 216.207379 
L 288.434884 200.931905 
L 288.615298 218.557543 
L 288.705505 218.48844 
L 288.795712 216.898673 
L 289.246746 231.897603 
L 289.42716 230.999131 
L 289.517367 231.41375 
L 289.607574 229.75488 
L 289.787988 233.694811 
L 289.968401 225.262124 
L 290.058608 230.238733 
L 290.148815 229.75488 
L 290.239022 227.404848 
L 290.419436 240.399392 
L 290.509643 239.293479 
L 290.599849 239.639126 
L 290.780263 241.989159 
L 291.050884 254.430746 
L 291.231298 246.343708 
L 291.411711 253.739584 
L 291.501918 251.043904 
L 291.592125 251.80417 
L 291.682332 257.748486 
L 291.772539 255.605763 
L 291.862746 249.10849 
L 292.043159 259.545693 
L 292.223573 249.937991 
L 292.403987 257.057323 
L 292.584401 248.486431 
L 292.764814 264.245758 
L 292.945228 256.158719 
L 293.125642 270.397515 
L 293.215849 269.360705 
L 293.396263 263.623698 
L 293.576676 267.770938 
L 293.75709 277.655053 
L 293.937504 271.226884 
L 294.117918 275.374124 
L 294.568952 262.379579 
L 294.749366 271.434325 
L 294.839573 269.360705 
L 294.929779 263.83114 
L 295.110193 274.47552 
L 295.2004 273.231401 
L 295.290607 273.646151 
L 295.471021 276.894787 
L 295.651434 275.097711 
L 295.922055 272.471135 
L 296.012262 271.848944 
L 296.192676 276.410933 
L 296.463296 272.678444 
L 296.64371 262.241373 
L 296.824124 267.840042 
L 296.914331 265.490009 
L 297.094744 274.337314 
L 297.184951 272.747547 
L 297.275158 270.12097 
L 297.455572 274.060901 
L 297.545779 270.950471 
L 297.726193 274.821167 
L 297.8164 273.784357 
L 297.906606 274.406417 
L 297.996813 275.857977 
L 298.08702 275.097711 
L 298.357641 267.632732 
L 298.628261 274.47552 
L 298.718468 274.337314 
L 298.898882 264.729611 
L 298.989089 265.766421 
L 299.079296 265.973863 
L 299.169503 261.895726 
L 299.25971 263.969345 
L 299.349916 271.019574 
L 299.440123 270.259308 
L 299.620537 257.195529 
L 299.800951 265.144362 
L 299.981365 254.707291 
L 300.071571 255.260247 
L 300.161778 261.273666 
L 300.251985 260.928019 
L 300.342192 258.508883 
L 300.70302 265.904628 
L 300.883433 252.080714 
L 301.063847 264.038449 
L 301.154054 149.575787 
L 301.244261 151.856585 
L 301.514881 141.903367 
L 301.605088 142.663633 
L 301.695295 142.456455 
L 301.785502 141.834395 
L 301.875709 139.829747 
L 301.965916 140.3136 
L 302.14633 143.493133 
L 302.41695 137.825362 
L 302.507157 134.369416 
L 302.597364 134.645829 
L 302.687571 134.161975 
L 302.777778 131.880914 
L 302.867985 133.263503 
L 302.958191 131.811943 
L 303.138605 124.623376 
L 303.228812 125.383642 
L 303.319019 123.517463 
L 303.499433 125.522111 
L 303.58964 121.236666 
L 303.770053 124.969024 
L 303.86026 123.932345 
L 303.950467 123.724904 
L 304.491708 115.222983 
L 304.672122 107.135945 
L 304.762329 109.831624 
L 304.942743 99.671229 
L 305.03295 101.81382 
L 305.123156 103.679999 
L 305.483984 97.804787 
L 305.664398 101.952027 
L 305.844811 89.925189 
L 306.205639 97.942993 
L 306.386053 90.616483 
L 306.47626 91.307514 
L 306.566466 90.547248 
L 306.74688 92.137015 
L 307.017501 81.83815 
L 307.197915 83.981005 
L 307.468535 77.760145 
L 307.648949 84.395624 
L 307.739156 84.049976 
L 307.829363 80.663002 
L 307.91957 81.008649 
L 308.099983 84.810242 
L 308.19019 83.91177 
L 308.460811 78.658617 
L 308.731431 83.08227 
L 308.821638 82.46021 
L 308.911845 82.667651 
L 309.002052 83.635358 
L 309.182466 82.46021 
L 309.36288 185.172446 
L 309.453086 182.407795 
L 309.543293 182.476767 
L 309.6335 186.762213 
L 309.813914 176.947202 
L 309.994328 182.546001 
L 310.084535 180.679823 
L 310.264948 185.794506 
L 310.445362 182.684208 
L 310.625776 183.721149 
L 310.715983 183.098826 
L 310.896396 186.416829 
L 310.986603 184.757827 
L 311.07681 185.241681 
L 311.167017 190.840481 
L 311.257224 189.80354 
L 311.437638 182.200354 
L 311.527845 185.241681 
L 311.708258 183.029855 
L 311.888672 187.453507 
L 311.978879 185.932976 
L 312.069086 182.338561 
L 312.159293 183.651915 
L 312.2495 183.029855 
L 312.429913 169.136575 
L 312.52012 169.482222 
L 312.700534 163.468804 
L 312.790741 164.574716 
L 312.880948 166.993984 
L 313.241775 159.045151 
L 313.602603 141.004895 
L 313.69281 137.825362 
L 313.96343 150.405287 
L 314.143844 141.834395 
L 314.234051 145.013928 
L 314.324258 142.663633 
L 314.504671 134.507622 
L 314.685085 128.978057 
L 314.865499 124.208757 
L 314.955706 124.070552 
L 315.045913 122.895403 
L 315.13612 124.899789 
L 315.226327 124.416199 
L 315.587154 109.209564 
L 315.677361 106.306707 
L 315.857775 109.900859 
L 315.947982 109.624447 
L 316.128395 92.551634 
L 316.308809 102.228439 
L 316.489223 90.339807 
L 316.669637 84.948448 
L 316.85005 92.137015 
L 316.940257 87.920804 
L 317.030464 88.05901 
L 317.210878 92.137015 
L 317.301085 91.031102 
L 317.481498 176.463348 
L 317.571705 179.297234 
L 317.752119 175.150257 
L 317.842326 175.011788 
L 317.932533 174.527934 
L 318.203153 185.932976 
L 318.29336 185.6563 
L 318.473774 175.426669 
L 318.563981 176.117701 
L 318.654188 175.288464 
L 318.744395 171.348664 
L 318.924808 182.338561 
L 319.015015 180.126735 
L 319.105222 175.910523 
L 319.195429 179.159028 
L 319.375843 188.213773 
L 319.46605 183.651915 
L 319.556257 185.449122 
L 319.73667 192.499219 
L 319.826877 191.324335 
L 320.007291 182.476767 
L 320.097498 185.103475 
L 320.277912 194.020014 
L 320.368118 191.531512 
L 320.458325 191.600747 
L 320.638739 194.434633 
L 320.819153 185.449122 
L 320.90936 185.587328 
L 321.089773 197.061078 
L 321.270187 186.969654 
L 321.450601 202.176025 
L 321.631015 188.905067 
L 321.811428 194.849252 
L 321.991842 191.185865 
L 322.262463 188.697627 
L 322.35267 190.494834 
L 322.442877 195.333105 
L 322.533083 193.674367 
L 322.713497 183.444473 
L 322.893911 187.591713 
L 322.984118 186.347594 
L 323.164532 181.232647 
L 323.254738 186.347594 
L 323.344945 183.790121 
L 323.435152 176.048729 
L 323.615566 187.177095 
L 323.705773 184.550387 
L 323.79598 183.098826 
L 324.0666 190.909453 
L 324.156807 195.40234 
L 324.337221 191.946395 
L 324.607842 197.061078 
L 324.698048 196.646459 
L 324.788255 193.812573 
L 324.878462 196.370047 
L 325.149083 218.48844 
L 325.23929 217.313292 
L 325.419703 196.024399 
L 325.600117 142.041573 
L 325.690324 139.415128 
L 325.870738 143.00928 
L 325.960945 141.212335 
L 326.141358 144.253399 
L 326.321772 139.276922 
L 326.411979 140.244629 
L 326.502186 145.774194 
L 326.592393 143.285956 
L 326.6826 133.401709 
L 326.772807 135.129682 
L 326.863013 142.732867 
L 327.043427 132.503237 
L 327.223841 139.829747 
L 327.314048 136.097389 
L 327.494462 138.723834 
L 327.674875 132.710415 
L 327.765082 134.85327 
L 327.945496 132.986828 
L 328.035703 134.438388 
L 328.12591 134.300182 
L 328.216117 135.337123 
L 328.306323 134.023769 
L 328.486737 124.139523 
L 328.576944 126.55879 
L 328.757358 117.504044 
L 328.847565 118.609958 
L 328.937772 117.365838 
L 329.027978 112.872951 
L 329.118185 114.324511 
L 329.388806 122.204109 
L 329.56922 126.074936 
L 329.749633 125.038258 
L 329.930047 116.32916 
L 330.020254 117.158397 
L 330.110461 119.785105 
L 330.290875 116.398131 
L 330.381082 117.918663 
L 330.471288 117.435073 
L 330.561495 115.914278 
L 330.741909 117.365838 
L 330.832116 114.600924 
L 330.922323 115.637865 
L 331.102737 126.282378 
L 331.28315 118.679192 
L 331.373357 121.513078 
L 331.553771 118.679192 
L 331.643978 123.171816 
L 331.734185 121.167431 
L 331.824392 114.531952 
L 332.004805 120.199724 
L 332.095012 117.918663 
L 332.185219 116.951219 
L 332.365633 120.061517 
L 332.45584 117.227632 
L 332.546047 118.955605 
L 332.636254 123.102845 
L 332.816667 113.080392 
L 332.997081 128.563175 
L 333.177495 115.983513 
L 333.357909 128.286763 
L 333.538322 121.513078 
L 333.718736 132.434003 
L 333.808943 130.222176 
L 333.89915 123.932345 
L 333.989357 125.038258 
L 334.350184 143.769546 
L 334.530598 138.171009 
L 334.711012 144.530075 
L 335.071839 131.328089 
L 335.34246 143.493133 
L 335.522874 139.345893 
L 335.703287 140.866688 
L 335.883701 148.400639 
L 336.064115 139.069481 
L 336.244529 143.769546 
L 336.334735 143.354927 
L 336.424942 141.350542 
L 336.515149 142.38722 
L 336.695563 150.474259 
L 336.966184 144.737252 
L 337.236804 139.898981 
L 337.327011 140.728482 
L 337.507425 138.793069 
L 337.687839 148.60808 
L 337.778045 148.193461 
L 337.958459 144.115193 
L 338.138873 147.432932 
L 338.319287 152.824291 
L 338.409494 148.953727 
L 338.4997 149.921434 
L 338.589907 156.695119 
L 338.680114 156.211265 
L 338.860528 149.368346 
L 338.950735 152.13326 
L 339.040942 150.958113 
L 339.131149 151.165553 
L 339.221355 156.695119 
L 339.311562 156.487678 
L 339.491976 148.193461 
L 339.67239 153.377379 
L 339.762597 153.308145 
L 339.94301 155.312793 
L 340.123424 160.012858 
L 340.213631 157.178972 
L 340.303838 149.783228 
L 340.394045 149.852199 
L 340.574459 158.699504 
L 340.664665 153.930204 
L 340.935286 161.602625 
L 341.1157 167.339631 
L 341.296114 170.104282 
L 341.476527 157.455385 
L 341.747148 174.527934 
L 342.107975 181.440089 
L 342.198182 184.619622 
L 342.288389 184.41218 
L 342.55901 186.900419 
L 342.82963 194.227192 
L 343.010044 189.734568 
L 343.100251 190.356628 
L 343.280665 194.296427 
L 343.370872 193.674367 
L 343.551285 194.158221 
L 343.641492 192.914101 
L 343.821906 182.062148 
L 344.00232 194.711045 
L 344.092527 192.70666 
L 344.182734 190.218421 
L 344.453354 197.752372 
L 344.543561 198.512638 
L 344.633768 197.614166 
L 344.814182 202.245127 
L 344.994595 194.918486 
L 345.084802 195.678752 
L 345.355423 190.218421 
L 345.44563 189.665334 
L 345.626044 194.158221 
L 345.71625 193.881545 
L 345.806457 193.812573 
L 345.896664 193.536161 
L 345.986871 192.775631 
L 346.077078 192.914101 
L 346.257492 200.448052 
L 346.528112 187.177095 
L 346.708526 195.056693 
L 346.798733 195.056693 
L 346.88894 194.572839 
L 347.069354 200.171639 
L 347.249767 194.434633 
L 347.430181 201.623068 
L 347.700802 195.886193 
L 347.791009 196.370047 
L 347.881215 192.0846 
L 347.971422 193.259485 
L 348.061629 199.203932 
L 348.151836 197.544931 
L 348.242043 198.512638 
L 348.33225 203.765791 
L 348.422457 201.484862 
L 348.512664 202.728981 
L 348.60287 212.26758 
L 348.693077 210.332166 
L 348.873491 199.411242 
L 348.963698 203.696688 
L 349.144112 200.033301 
L 349.324525 205.977617 
L 349.414732 205.010042 
L 349.595146 211.161667 
L 349.77556 206.876221 
L 349.955974 169.551457 
L 350.046181 164.436511 
L 350.226594 173.007403 
L 350.407008 164.367539 
L 350.497215 165.473452 
L 350.587422 161.326212 
L 350.767836 167.547072 
L 350.858042 165.473452 
L 351.038456 172.177902 
L 351.128663 169.067603 
L 351.489491 177.016436 
L 351.579697 177.845937 
L 351.669904 174.873581 
L 351.850318 182.96062 
L 352.030732 176.117701 
L 352.211146 184.066533 
L 352.301352 184.550387 
L 352.481766 186.762213 
L 352.66218 183.928327 
L 352.842594 186.900419 
L 353.023007 175.979495 
L 353.203421 179.090056 
L 353.474042 189.80354 
L 353.564249 188.628655 
L 353.744662 186.278359 
L 353.925076 176.325142 
L 354.10549 186.693241 
L 354.285904 171.417636 
L 354.556524 188.283008 
L 354.646731 188.351979 
L 354.827145 192.775631 
L 354.917352 191.87716 
L 355.097766 204.042335 
L 355.278179 196.23184 
L 355.5488 199.13483 
L 355.729214 211.507314 
L 355.909627 199.618683 
L 355.999834 202.659878 
L 356.090041 204.733498 
L 356.180248 200.171639 
L 356.270455 204.456954 
L 356.450869 218.626646 
L 356.541076 218.280999 
L 356.721489 215.032363 
L 356.901903 224.709168 
L 357.082317 217.03688 
L 357.172524 217.382395 
L 357.262731 217.03688 
L 357.352937 217.382395 
L 357.533351 226.368038 
L 357.623558 225.193021 
L 357.803972 236.252152 
L 357.894179 235.630092 
L 357.984386 214.548509 
L 358.164799 227.888701 
L 358.345213 224.018005 
L 358.43542 226.990097 
L 358.615834 218.073689 
L 358.796247 228.579864 
L 358.886454 226.022391 
L 359.066868 215.585319 
L 359.157075 217.382395 
L 359.337489 210.746917 
L 359.517902 221.184119 
L 359.608109 218.626646 
L 359.698316 220.838472 
L 359.87873 232.24325 
L 360.149351 234.593282 
L 360.329764 240.537598 
L 360.600385 227.266641 
L 360.780799 226.920994 
L 361.051419 217.866249 
L 361.141626 218.833956 
L 361.32204 212.47489 
L 361.502454 200.862802 
L 361.682867 212.751433 
L 361.863281 198.30546 
L 362.043695 210.055754 
L 362.224109 198.927388 
L 362.314316 204.249644 
L 362.494729 197.752372 
L 362.584936 201.968715 
L 362.675143 200.378949 
L 362.76535 193.536161 
L 362.855557 194.711045 
L 363.035971 203.489379 
L 363.667419 180.679823 
L 363.847832 168.860163 
L 363.938039 166.440895 
L 364.028246 156.2805 
L 364.118453 157.109738 
L 364.20866 161.188006 
L 364.298867 157.939238 
L 364.389074 158.284885 
L 364.569487 159.874652 
L 364.749901 178.467997 
L 364.840108 175.150257 
L 364.930315 175.634111 
L 365.110729 184.619622 
L 365.200936 183.859356 
L 365.381349 194.434633 
L 365.471556 192.983073 
L 365.65197 205.079145 
L 365.742177 211.714623 
L 365.832384 210.470504 
L 366.012797 188.697627 
L 366.103004 195.955164 
L 366.193211 189.319686 
L 366.283418 189.665334 
L 366.373625 193.881545 
L 366.463832 191.531512 
L 366.554039 194.503868 
L 366.644246 201.830509 
L 366.734452 200.931905 
L 366.824659 199.618683 
L 367.005073 200.448052 
L 367.185487 209.226253 
L 367.365901 201.139215 
L 367.456108 205.770308 
L 367.636521 200.309846 
L 367.816935 212.820537 
L 367.997349 205.908514 
L 368.177763 214.548509 
L 368.267969 209.295357 
L 368.358176 211.368976 
L 368.628797 221.806179 
L 368.719004 222.082591 
L 368.809211 218.695749 
L 368.899418 219.179603 
L 368.989624 219.317809 
L 369.079831 217.382395 
L 369.170038 219.110499 
L 369.260245 217.175086 
L 369.440659 208.880738 
L 369.530866 209.364591 
L 369.621073 205.839411 
L 369.711279 208.12034 
L 369.891693 216.41482 
L 369.9819 216.069173 
L 370.162314 226.368038 
L 370.252521 226.229831 
L 370.432934 228.026907 
L 370.613348 226.022391 
L 370.793762 221.944385 
L 370.883969 224.985712 
L 370.974176 224.709168 
L 371.064383 220.008972 
L 371.154589 221.114884 
L 371.335003 229.409364 
L 371.42521 224.847374 
L 371.515417 226.851891 
L 371.695831 241.850952 
L 371.786038 236.943446 
L 371.876244 238.671419 
L 371.966451 246.758458 
L 372.056658 245.237795 
L 372.146865 240.952348 
L 372.327279 245.168692 
L 372.417486 241.228893 
L 372.597899 250.560051 
L 372.688106 247.864371 
L 372.86852 250.629154 
L 372.958727 248.901181 
L 373.139141 256.919117 
L 373.229348 256.089616 
L 373.409761 252.702774 
L 373.499968 253.532274 
L 373.680382 259.269149 
L 373.770589 257.333867 
L 373.951003 262.310476 
L 374.131416 256.78091 
L 374.221623 273.85346 
L 374.31183 272.81665 
L 374.492244 266.319378 
L 374.582451 263.347286 
L 374.762864 275.166814 
L 374.853071 274.47552 
L 374.943278 277.032993 
L 375.033485 276.065286 
L 375.123692 271.987281 
L 375.304106 281.940499 
L 375.574726 264.798714 
L 375.75514 263.416389 
L 375.935554 268.254792 
L 376.115968 263.347286 
L 376.206174 264.937052 
L 376.476795 278.691863 
L 376.567002 275.443227 
L 376.927829 286.709799 
L 377.018036 291.893848 
L 377.19845 284.84362 
L 377.378864 291.409995 
L 377.469071 289.543684 
L 377.649484 292.101158 
L 377.829898 283.530266 
L 377.920105 291.064348 
L 378.010312 290.580494 
L 378.100519 287.262755 
L 378.280933 291.479098 
L 378.551553 288.368668 
L 378.731967 290.926141 
L 378.912381 289.198169 
L 379.002588 289.267272 
L 379.273208 293.345277 
L 379.543829 284.912723 
L 379.814449 295.488 
L 380.08507 281.664087 
L 380.175277 280.903689 
L 380.265484 278.138906 
L 380.536104 282.493456 
L 380.806725 275.235917 
L 380.987139 272.056384 
L 381.077346 277.032993 
L 381.167553 276.618243 
L 381.347966 268.600307 
L 381.618587 281.31844 
L 381.708794 280.627276 
L 381.799001 281.594983 
L 381.889208 279.935982 
L 382.069621 271.295987 
L 382.250035 273.991667 
L 382.340242 116.881985 
L 382.430449 124.830817 
L 382.520656 123.517463 
L 382.610863 116.467366 
L 382.791276 122.895403 
L 382.881483 117.642251 
L 382.97169 119.577665 
L 383.152104 126.766231 
L 383.242311 125.522111 
L 383.422724 128.770616 
L 383.603138 117.158397 
L 383.693345 119.50843 
L 383.783552 122.065903 
L 383.963966 114.393746 
L 384.054173 116.605572 
L 384.324793 103.403587 
L 384.415 98.426846 
L 384.505207 100.777142 
L 384.685621 109.762653 
L 384.866035 98.28864 
L 385.046448 109.140593 
L 385.136655 107.965445 
L 385.317069 101.399202 
L 385.407276 101.744585 
L 385.677896 86.676684 
L 385.768103 82.114563 
L 385.85831 82.252769 
L 385.948517 81.354297 
L 386.128931 71.401079 
L 386.309345 74.926259 
L 386.579965 62.899158 
L 386.760379 68.221546 
L 386.940793 58.613712 
L 387.031 59.374242 
L 387.121206 65.318425 
L 387.211413 64.350718 
L 387.30162 63.106599 
L 387.391827 66.631779 
L 387.572241 61.655039 
L 387.752655 67.392046 
L 387.842861 64.55816 
L 388.023275 66.769986 
L 388.203689 61.586068 
L 388.293896 60.272714 
L 388.47431 53.568 
L 388.654723 64.350718 
L 388.74493 63.452246 
L 388.925344 68.981812 
L 389.015551 65.042013 
L 389.105758 65.594838 
L 389.195965 72.09211 
L 389.286171 70.917226 
L 389.376378 63.797894 
L 389.466585 64.696366 
L 389.556792 67.392046 
L 389.737206 62.48454 
L 390.18824 75.410113 
L 390.368654 68.08334 
L 390.458861 170.519164 
L 390.549068 166.026277 
L 390.639275 160.082092 
L 390.729481 164.229069 
L 390.819688 164.021892 
L 391.000102 148.193461 
L 391.090309 152.064025 
L 391.180516 148.815521 
L 391.270723 151.718378 
L 391.451136 159.736445 
L 391.63155 166.786543 
L 391.811964 161.188006 
L 391.992378 166.924749 
L 392.082585 167.270396 
L 392.172791 168.376309 
L 392.262998 166.095512 
L 392.353205 167.547072 
L 392.443412 171.141224 
L 392.623826 159.045151 
L 392.714033 160.289271 
L 392.80424 165.88807 
L 392.984653 162.708538 
L 393.07486 170.03531 
L 393.165067 164.920364 
L 393.345481 151.441966 
L 393.435688 154.483293 
L 393.616101 141.212335 
L 393.706308 142.456455 
L 393.796515 142.318249 
L 393.886722 142.318249 
L 393.976929 143.769546 
L 394.067136 143.700574 
L 394.24755 139.276922 
L 394.51817 116.674544 
L 394.608377 121.513078 
L 394.698584 123.24105 
L 394.878998 106.997738 
L 395.059411 117.435073 
L 395.239825 110.177271 
L 395.330032 110.453947 
L 395.420239 111.144978 
L 395.600653 108.311093 
L 395.69086 108.587505 
L 396.051687 90.339807 
L 396.141894 92.759075 
L 396.322308 101.81382 
L 396.502721 90.13263 
L 396.592928 90.616483 
L 396.773342 80.179149 
L 396.863549 80.939678 
L 397.043963 85.501536 
L 397.314583 72.783405 
L 397.494997 78.105792 
L 397.675411 73.751112 
L 397.855825 64.212512 
L 398.036238 70.364137 
L 398.216652 64.143541 
L 398.397066 76.101144 
L 398.487273 75.202671 
L 398.487273 75.202671 
" clip-path="url(#p541c9b2234)" style="fill: none; stroke: #1f77b4; stroke-width: 1.5; stroke-linecap: square"/>
   </g>
   <g id="patch_3">
    <path d="M 57.6 307.584 
L 57.6 41.472 
" style="fill: none; stroke: #000000; stroke-width: 0.8; stroke-linejoin: miter; stroke-linecap: square"/>
   </g>
   <g id="patch_4">
    <path d="M 414.72 307.584 
L 414.72 41.472 
" style="fill: none; stroke: #000000; stroke-width: 0.8; stroke-linejoin: miter; stroke-linecap: square"/>
   </g>
   <g id="patch_5">
    <path d="M 57.6 307.584 
L 414.72 307.584 
" style="fill: none; stroke: #000000; stroke-width: 0.8; stroke-linejoin: miter; stroke-linecap: square"/>
   </g>
   <g id="patch_6">
    <path d="M 57.6 41.472 
L 414.72 41.472 
" style="fill: none; stroke: #000000; stroke-width: 0.8; stroke-linejoin: miter; stroke-linecap: square"/>
   </g>
   <g id="legend_1">
    <g id="patch_7">
     <path d="M 64.6 64.150125 
L 118.245312 64.150125 
Q 120.245312 64.150125 120.245312 62.150125 
L 120.245312 48.472 
Q 120.245312 46.472 118.245312 46.472 
L 64.6 46.472 
Q 62.6 46.472 62.6 48.472 
L 62.6 62.150125 
Q 62.6 64.150125 64.6 64.150125 
z
" style="fill: #ffffff; opacity: 0.8; stroke: #cccccc; stroke-linejoin: miter"/>
    </g>
    <g id="line2d_15">
     <path d="M 66.6 54.570438 
L 76.6 54.570438 
L 86.6 54.570438 
" style="fill: none; stroke: #1f77b4; stroke-width: 1.5; stroke-linecap: square"/>
    </g>
    <g id="text_14">
     <!-- set3 -->
     <g transform="translate(94.6 58.070438)scale(0.1 -0.1)">
      <defs>
       <path id="DejaVuSans-73" d="M 2834 3397 
L 2834 2853 
Q 2591 2978 2328 3040 
Q 2066 3103 1784 3103 
Q 1356 3103 1142 2972 
Q 928 2841 928 2578 
Q 928 2378 1081 2264 
Q 1234 2150 1697 2047 
L 1894 2003 
Q 2506 1872 2764 1633 
Q 3022 1394 3022 966 
Q 3022 478 2636 193 
Q 2250 -91 1575 -91 
Q 1294 -91 989 -36 
Q 684 19 347 128 
L 347 722 
Q 666 556 975 473 
Q 1284 391 1588 391 
Q 1994 391 2212 530 
Q 2431 669 2431 922 
Q 2431 1156 2273 1281 
Q 2116 1406 1581 1522 
L 1381 1569 
Q 847 1681 609 1914 
Q 372 2147 372 2553 
Q 372 3047 722 3315 
Q 1072 3584 1716 3584 
Q 2034 3584 2315 3537 
Q 2597 3491 2834 3397 
z
" transform="scale(0.015625)"/>
       <path id="DejaVuSans-65" d="M 3597 1894 
L 3597 1613 
L 953 1613 
Q 991 1019 1311 708 
Q 1631 397 2203 397 
Q 2534 397 2845 478 
Q 3156 559 3463 722 
L 3463 178 
Q 3153 47 2828 -22 
Q 2503 -91 2169 -91 
Q 1331 -91 842 396 
Q 353 884 353 1716 
Q 353 2575 817 3079 
Q 1281 3584 2069 3584 
Q 2775 3584 3186 3129 
Q 3597 2675 3597 1894 
z
M 3022 2063 
Q 3016 2534 2758 2815 
Q 2500 3097 2075 3097 
Q 1594 3097 1305 2825 
Q 1016 2553 972 2059 
L 3022 2063 
z
" transform="scale(0.015625)"/>
       <path id="DejaVuSans-74" d="M 1172 4494 
L 1172 3500 
L 2356 3500 
L 2356 3053 
L 1172 3053 
L 1172 1153 
Q 1172 725 1289 603 
Q 1406 481 1766 481 
L 2356 481 
L 2356 0 
L 1766 0 
Q 1100 0 847 248 
Q 594 497 594 1153 
L 594 3053 
L 172 3053 
L 172 3500 
L 594 3500 
L 594 4494 
L 1172 4494 
z
" transform="scale(0.015625)"/>
      </defs>
      <use xlink:href="#DejaVuSans-73"/>
      <use xlink:href="#DejaVuSans-65" x="52.099609"/>
      <use xlink:href="#DejaVuSans-74" x="113.623047"/>
      <use xlink:href="#DejaVuSans-33" x="152.832031"/>
     </g>
    </g>
   </g>
  </g>
 </g>
 <defs>
  <clipPath id="p541c9b2234">
   <rect x="57.6" y="41.472" width="357.12" height="266.112"/>
  </clipPath>
 </defs>
</svg>
