<?xml version="1.0" encoding="utf-8" standalone="no"?>
<!DOCTYPE svg PUBLIC "-//W3C//DTD SVG 1.1//EN"
  "http://www.w3.org/Graphics/SVG/1.1/DTD/svg11.dtd">
<svg xmlns:xlink="http://www.w3.org/1999/xlink" width="460.8pt" height="345.6pt" viewBox="0 0 460.8 345.6" xmlns="http://www.w3.org/2000/svg" version="1.1">
 <metadata>
  <rdf:RDF xmlns:dc="http://purl.org/dc/elements/1.1/" xmlns:cc="http://creativecommons.org/ns#" xmlns:rdf="http://www.w3.org/1999/02/22-rdf-syntax-ns#">
   <cc:Work>
    <dc:type rdf:resource="http://purl.org/dc/dcmitype/StillImage"/>
    <dc:date>2022-08-11T15:18:01.093796</dc:date>
    <dc:format>image/svg+xml</dc:format>
    <dc:creator>
     <cc:Agent>
      <dc:title>Matplotlib v3.5.2, https://matplotlib.org/</dc:title>
     </cc:Agent>
    </dc:creator>
   </cc:Work>
  </rdf:RDF>
 </metadata>
 <defs>
  <style type="text/css">*{stroke-linejoin: round; stroke-linecap: butt}</style>
 </defs>
 <g id="figure_1">
  <g id="patch_1">
   <path d="M 0 345.6 
L 460.8 345.6 
L 460.8 0 
L 0 0 
z
" style="fill: #ffffff"/>
  </g>
  <g id="axes_1">
   <g id="patch_2">
    <path d="M 57.6 307.584 
L 414.72 307.584 
L 414.72 41.472 
L 57.6 41.472 
z
" style="fill: #ffffff"/>
   </g>
   <g id="matplotlib.axis_1">
    <g id="xtick_1">
     <g id="line2d_1">
      <defs>
       <path id="mc7eb06e0f0" d="M 0 0 
L 0 3.5 
" style="stroke: #000000; stroke-width: 0.8"/>
      </defs>
      <g>
       <use xlink:href="#mc7eb06e0f0" x="73.832727" y="307.584" style="stroke: #000000; stroke-width: 0.8"/>
      </g>
     </g>
     <g id="text_1">
      <!-- 0 -->
      <g transform="translate(70.651477 322.182437)scale(0.1 -0.1)">
       <defs>
        <path id="DejaVuSans-30" d="M 2034 4250 
Q 1547 4250 1301 3770 
Q 1056 3291 1056 2328 
Q 1056 1369 1301 889 
Q 1547 409 2034 409 
Q 2525 409 2770 889 
Q 3016 1369 3016 2328 
Q 3016 3291 2770 3770 
Q 2525 4250 2034 4250 
z
M 2034 4750 
Q 2819 4750 3233 4129 
Q 3647 3509 3647 2328 
Q 3647 1150 3233 529 
Q 2819 -91 2034 -91 
Q 1250 -91 836 529 
Q 422 1150 422 2328 
Q 422 3509 836 4129 
Q 1250 4750 2034 4750 
z
" transform="scale(0.015625)"/>
       </defs>
       <use xlink:href="#DejaVuSans-30"/>
      </g>
     </g>
    </g>
    <g id="xtick_2">
     <g id="line2d_2">
      <g>
       <use xlink:href="#mc7eb06e0f0" x="118.936165" y="307.584" style="stroke: #000000; stroke-width: 0.8"/>
      </g>
     </g>
     <g id="text_2">
      <!-- 500 -->
      <g transform="translate(109.392415 322.182437)scale(0.1 -0.1)">
       <defs>
        <path id="DejaVuSans-35" d="M 691 4666 
L 3169 4666 
L 3169 4134 
L 1269 4134 
L 1269 2991 
Q 1406 3038 1543 3061 
Q 1681 3084 1819 3084 
Q 2600 3084 3056 2656 
Q 3513 2228 3513 1497 
Q 3513 744 3044 326 
Q 2575 -91 1722 -91 
Q 1428 -91 1123 -41 
Q 819 9 494 109 
L 494 744 
Q 775 591 1075 516 
Q 1375 441 1709 441 
Q 2250 441 2565 725 
Q 2881 1009 2881 1497 
Q 2881 1984 2565 2268 
Q 2250 2553 1709 2553 
Q 1456 2553 1204 2497 
Q 953 2441 691 2322 
L 691 4666 
z
" transform="scale(0.015625)"/>
       </defs>
       <use xlink:href="#DejaVuSans-35"/>
       <use xlink:href="#DejaVuSans-30" x="63.623047"/>
       <use xlink:href="#DejaVuSans-30" x="127.246094"/>
      </g>
     </g>
    </g>
    <g id="xtick_3">
     <g id="line2d_3">
      <g>
       <use xlink:href="#mc7eb06e0f0" x="164.039603" y="307.584" style="stroke: #000000; stroke-width: 0.8"/>
      </g>
     </g>
     <g id="text_3">
      <!-- 1000 -->
      <g transform="translate(151.314603 322.182437)scale(0.1 -0.1)">
       <defs>
        <path id="DejaVuSans-31" d="M 794 531 
L 1825 531 
L 1825 4091 
L 703 3866 
L 703 4441 
L 1819 4666 
L 2450 4666 
L 2450 531 
L 3481 531 
L 3481 0 
L 794 0 
L 794 531 
z
" transform="scale(0.015625)"/>
       </defs>
       <use xlink:href="#DejaVuSans-31"/>
       <use xlink:href="#DejaVuSans-30" x="63.623047"/>
       <use xlink:href="#DejaVuSans-30" x="127.246094"/>
       <use xlink:href="#DejaVuSans-30" x="190.869141"/>
      </g>
     </g>
    </g>
    <g id="xtick_4">
     <g id="line2d_4">
      <g>
       <use xlink:href="#mc7eb06e0f0" x="209.143041" y="307.584" style="stroke: #000000; stroke-width: 0.8"/>
      </g>
     </g>
     <g id="text_4">
      <!-- 1500 -->
      <g transform="translate(196.418041 322.182437)scale(0.1 -0.1)">
       <use xlink:href="#DejaVuSans-31"/>
       <use xlink:href="#DejaVuSans-35" x="63.623047"/>
       <use xlink:href="#DejaVuSans-30" x="127.246094"/>
       <use xlink:href="#DejaVuSans-30" x="190.869141"/>
      </g>
     </g>
    </g>
    <g id="xtick_5">
     <g id="line2d_5">
      <g>
       <use xlink:href="#mc7eb06e0f0" x="254.246479" y="307.584" style="stroke: #000000; stroke-width: 0.8"/>
      </g>
     </g>
     <g id="text_5">
      <!-- 2000 -->
      <g transform="translate(241.521479 322.182437)scale(0.1 -0.1)">
       <defs>
        <path id="DejaVuSans-32" d="M 1228 531 
L 3431 531 
L 3431 0 
L 469 0 
L 469 531 
Q 828 903 1448 1529 
Q 2069 2156 2228 2338 
Q 2531 2678 2651 2914 
Q 2772 3150 2772 3378 
Q 2772 3750 2511 3984 
Q 2250 4219 1831 4219 
Q 1534 4219 1204 4116 
Q 875 4013 500 3803 
L 500 4441 
Q 881 4594 1212 4672 
Q 1544 4750 1819 4750 
Q 2544 4750 2975 4387 
Q 3406 4025 3406 3419 
Q 3406 3131 3298 2873 
Q 3191 2616 2906 2266 
Q 2828 2175 2409 1742 
Q 1991 1309 1228 531 
z
" transform="scale(0.015625)"/>
       </defs>
       <use xlink:href="#DejaVuSans-32"/>
       <use xlink:href="#DejaVuSans-30" x="63.623047"/>
       <use xlink:href="#DejaVuSans-30" x="127.246094"/>
       <use xlink:href="#DejaVuSans-30" x="190.869141"/>
      </g>
     </g>
    </g>
    <g id="xtick_6">
     <g id="line2d_6">
      <g>
       <use xlink:href="#mc7eb06e0f0" x="299.349916" y="307.584" style="stroke: #000000; stroke-width: 0.8"/>
      </g>
     </g>
     <g id="text_6">
      <!-- 2500 -->
      <g transform="translate(286.624916 322.182437)scale(0.1 -0.1)">
       <use xlink:href="#DejaVuSans-32"/>
       <use xlink:href="#DejaVuSans-35" x="63.623047"/>
       <use xlink:href="#DejaVuSans-30" x="127.246094"/>
       <use xlink:href="#DejaVuSans-30" x="190.869141"/>
      </g>
     </g>
    </g>
    <g id="xtick_7">
     <g id="line2d_7">
      <g>
       <use xlink:href="#mc7eb06e0f0" x="344.453354" y="307.584" style="stroke: #000000; stroke-width: 0.8"/>
      </g>
     </g>
     <g id="text_7">
      <!-- 3000 -->
      <g transform="translate(331.728354 322.182437)scale(0.1 -0.1)">
       <defs>
        <path id="DejaVuSans-33" d="M 2597 2516 
Q 3050 2419 3304 2112 
Q 3559 1806 3559 1356 
Q 3559 666 3084 287 
Q 2609 -91 1734 -91 
Q 1441 -91 1130 -33 
Q 819 25 488 141 
L 488 750 
Q 750 597 1062 519 
Q 1375 441 1716 441 
Q 2309 441 2620 675 
Q 2931 909 2931 1356 
Q 2931 1769 2642 2001 
Q 2353 2234 1838 2234 
L 1294 2234 
L 1294 2753 
L 1863 2753 
Q 2328 2753 2575 2939 
Q 2822 3125 2822 3475 
Q 2822 3834 2567 4026 
Q 2313 4219 1838 4219 
Q 1578 4219 1281 4162 
Q 984 4106 628 3988 
L 628 4550 
Q 988 4650 1302 4700 
Q 1616 4750 1894 4750 
Q 2613 4750 3031 4423 
Q 3450 4097 3450 3541 
Q 3450 3153 3228 2886 
Q 3006 2619 2597 2516 
z
" transform="scale(0.015625)"/>
       </defs>
       <use xlink:href="#DejaVuSans-33"/>
       <use xlink:href="#DejaVuSans-30" x="63.623047"/>
       <use xlink:href="#DejaVuSans-30" x="127.246094"/>
       <use xlink:href="#DejaVuSans-30" x="190.869141"/>
      </g>
     </g>
    </g>
    <g id="xtick_8">
     <g id="line2d_8">
      <g>
       <use xlink:href="#mc7eb06e0f0" x="389.556792" y="307.584" style="stroke: #000000; stroke-width: 0.8"/>
      </g>
     </g>
     <g id="text_8">
      <!-- 3500 -->
      <g transform="translate(376.831792 322.182437)scale(0.1 -0.1)">
       <use xlink:href="#DejaVuSans-33"/>
       <use xlink:href="#DejaVuSans-35" x="63.623047"/>
       <use xlink:href="#DejaVuSans-30" x="127.246094"/>
       <use xlink:href="#DejaVuSans-30" x="190.869141"/>
      </g>
     </g>
    </g>
   </g>
   <g id="matplotlib.axis_2">
    <g id="ytick_1">
     <g id="line2d_9">
      <defs>
       <path id="m520b83b14c" d="M 0 0 
L -3.5 0 
" style="stroke: #000000; stroke-width: 0.8"/>
      </defs>
      <g>
       <use xlink:href="#m520b83b14c" x="57.6" y="287.910822" style="stroke: #000000; stroke-width: 0.8"/>
      </g>
     </g>
     <g id="text_9">
      <!-- 4050 -->
      <g transform="translate(25.15 291.710041)scale(0.1 -0.1)">
       <defs>
        <path id="DejaVuSans-34" d="M 2419 4116 
L 825 1625 
L 2419 1625 
L 2419 4116 
z
M 2253 4666 
L 3047 4666 
L 3047 1625 
L 3713 1625 
L 3713 1100 
L 3047 1100 
L 3047 0 
L 2419 0 
L 2419 1100 
L 313 1100 
L 313 1709 
L 2253 4666 
z
" transform="scale(0.015625)"/>
       </defs>
       <use xlink:href="#DejaVuSans-34"/>
       <use xlink:href="#DejaVuSans-30" x="63.623047"/>
       <use xlink:href="#DejaVuSans-35" x="127.246094"/>
       <use xlink:href="#DejaVuSans-30" x="190.869141"/>
      </g>
     </g>
    </g>
    <g id="ytick_2">
     <g id="line2d_10">
      <g>
       <use xlink:href="#m520b83b14c" x="57.6" y="252.307508" style="stroke: #000000; stroke-width: 0.8"/>
      </g>
     </g>
     <g id="text_10">
      <!-- 4100 -->
      <g transform="translate(25.15 256.106727)scale(0.1 -0.1)">
       <use xlink:href="#DejaVuSans-34"/>
       <use xlink:href="#DejaVuSans-31" x="63.623047"/>
       <use xlink:href="#DejaVuSans-30" x="127.246094"/>
       <use xlink:href="#DejaVuSans-30" x="190.869141"/>
      </g>
     </g>
    </g>
    <g id="ytick_3">
     <g id="line2d_11">
      <g>
       <use xlink:href="#m520b83b14c" x="57.6" y="216.704194" style="stroke: #000000; stroke-width: 0.8"/>
      </g>
     </g>
     <g id="text_11">
      <!-- 4150 -->
      <g transform="translate(25.15 220.503412)scale(0.1 -0.1)">
       <use xlink:href="#DejaVuSans-34"/>
       <use xlink:href="#DejaVuSans-31" x="63.623047"/>
       <use xlink:href="#DejaVuSans-35" x="127.246094"/>
       <use xlink:href="#DejaVuSans-30" x="190.869141"/>
      </g>
     </g>
    </g>
    <g id="ytick_4">
     <g id="line2d_12">
      <g>
       <use xlink:href="#m520b83b14c" x="57.6" y="181.10088" style="stroke: #000000; stroke-width: 0.8"/>
      </g>
     </g>
     <g id="text_12">
      <!-- 4200 -->
      <g transform="translate(25.15 184.900098)scale(0.1 -0.1)">
       <use xlink:href="#DejaVuSans-34"/>
       <use xlink:href="#DejaVuSans-32" x="63.623047"/>
       <use xlink:href="#DejaVuSans-30" x="127.246094"/>
       <use xlink:href="#DejaVuSans-30" x="190.869141"/>
      </g>
     </g>
    </g>
    <g id="ytick_5">
     <g id="line2d_13">
      <g>
       <use xlink:href="#m520b83b14c" x="57.6" y="145.497565" style="stroke: #000000; stroke-width: 0.8"/>
      </g>
     </g>
     <g id="text_13">
      <!-- 4250 -->
      <g transform="translate(25.15 149.296784)scale(0.1 -0.1)">
       <use xlink:href="#DejaVuSans-34"/>
       <use xlink:href="#DejaVuSans-32" x="63.623047"/>
       <use xlink:href="#DejaVuSans-35" x="127.246094"/>
       <use xlink:href="#DejaVuSans-30" x="190.869141"/>
      </g>
     </g>
    </g>
    <g id="ytick_6">
     <g id="line2d_14">
      <g>
       <use xlink:href="#m520b83b14c" x="57.6" y="109.894251" style="stroke: #000000; stroke-width: 0.8"/>
      </g>
     </g>
     <g id="text_14">
      <!-- 4300 -->
      <g transform="translate(25.15 113.69347)scale(0.1 -0.1)">
       <use xlink:href="#DejaVuSans-34"/>
       <use xlink:href="#DejaVuSans-33" x="63.623047"/>
       <use xlink:href="#DejaVuSans-30" x="127.246094"/>
       <use xlink:href="#DejaVuSans-30" x="190.869141"/>
      </g>
     </g>
    </g>
    <g id="ytick_7">
     <g id="line2d_15">
      <g>
       <use xlink:href="#m520b83b14c" x="57.6" y="74.290937" style="stroke: #000000; stroke-width: 0.8"/>
      </g>
     </g>
     <g id="text_15">
      <!-- 4350 -->
      <g transform="translate(25.15 78.090156)scale(0.1 -0.1)">
       <use xlink:href="#DejaVuSans-34"/>
       <use xlink:href="#DejaVuSans-33" x="63.623047"/>
       <use xlink:href="#DejaVuSans-35" x="127.246094"/>
       <use xlink:href="#DejaVuSans-30" x="190.869141"/>
      </g>
     </g>
    </g>
   </g>
   <g id="line2d_16">
    <path d="M 73.832727 233.31919 
L 74.193555 221.907701 
L 74.283762 220.72104 
L 74.373969 224.372466 
L 74.554382 221.999144 
L 74.644589 222.638195 
L 75.005417 230.215026 
L 75.18583 221.26865 
L 75.366244 223.368342 
L 75.636865 206.114642 
L 75.727072 207.575281 
L 75.907485 217.890855 
L 76.35852 209.766068 
L 76.538934 212.322274 
L 76.62914 210.679098 
L 76.719347 213.691472 
L 76.899761 229.393437 
L 77.170382 210.952729 
L 77.260589 212.687347 
L 77.441002 218.073392 
L 77.621416 211.865759 
L 77.711623 212.413368 
L 77.80183 211.865759 
L 77.982244 222.455659 
L 78.162657 212.322274 
L 78.433278 225.285497 
L 78.523485 227.293746 
L 78.703899 223.64232 
L 78.794105 227.111209 
L 79.154933 213.782914 
L 79.24514 214.969575 
L 79.425554 224.463908 
L 79.51576 225.10296 
L 79.696174 220.903577 
L 79.876588 231.128056 
L 79.966795 231.219498 
L 80.057002 232.132181 
L 80.147209 229.941395 
L 80.237415 223.185805 
L 80.327622 225.194055 
L 80.417829 230.945519 
L 80.508036 227.750261 
L 80.598243 219.716916 
L 80.778657 229.758858 
L 80.868864 226.654694 
L 80.95907 227.020115 
L 81.049277 237.427131 
L 81.139484 237.153152 
L 81.319898 226.381063 
L 81.680725 236.240469 
L 81.861139 234.597293 
L 82.13176 230.580447 
L 82.221967 225.65057 
L 82.312174 225.924548 
L 82.40238 226.837578 
L 82.492587 226.107085 
L 82.582794 228.389313 
L 82.673001 235.875049 
L 82.853415 231.036962 
L 83.033829 237.609667 
L 83.394656 212.961326 
L 83.57507 227.385188 
L 83.755484 218.164834 
L 83.935897 233.59282 
L 84.116311 227.750261 
L 84.296725 235.601418 
L 84.477139 231.493129 
L 84.657552 223.185805 
L 84.837966 234.049336 
L 85.01838 222.638195 
L 85.108587 223.459784 
L 85.289 239.252844 
L 85.469414 222.638195 
L 85.559621 225.194055 
L 85.649828 224.737887 
L 85.740035 226.837578 
L 85.920449 239.891895 
L 86.191069 225.559475 
L 86.371483 231.402034 
L 86.551897 216.430215 
L 86.73231 230.580447 
L 86.912724 223.003268 
L 87.002931 226.198527 
L 87.183345 219.260401 
L 87.363759 234.414409 
L 87.544172 223.185805 
L 87.724586 228.02424 
L 87.905 224.646445 
L 88.085414 230.945519 
L 88.356034 219.80801 
L 88.626655 227.567725 
L 88.716862 227.841703 
L 88.897276 217.617224 
L 88.987482 221.816607 
L 89.167896 219.80801 
L 89.258103 226.654694 
L 89.34831 224.55535 
L 89.438517 212.687347 
L 89.528724 216.612752 
L 89.709137 227.293746 
L 89.889551 222.638195 
L 89.979758 218.803885 
L 90.069965 230.671541 
L 90.160172 228.571849 
L 90.250379 225.65057 
L 90.340586 226.928673 
L 90.701413 237.97474 
L 90.79162 232.953769 
L 90.972034 242.995712 
L 91.062241 238.431255 
L 91.152447 238.796676 
L 91.242654 244.273815 
L 91.423068 237.883646 
L 91.513275 241.80905 
L 91.693689 224.920423 
L 91.874102 234.505851 
L 92.054516 230.215026 
L 92.23493 230.945519 
L 92.325137 230.032489 
L 92.685964 235.601418 
L 92.776171 240.622389 
L 92.866378 239.618264 
L 92.956585 234.049336 
L 93.046792 234.414409 
L 93.227206 242.813175 
L 93.317412 242.539544 
L 93.497826 232.132181 
L 93.67824 248.290662 
L 94.039067 231.584571 
L 94.219481 234.597293 
L 94.399895 231.767108 
L 94.490102 233.31919 
L 94.670516 229.393437 
L 94.760722 230.39791 
L 95.211757 218.529907 
L 95.301964 220.355967 
L 95.482377 225.65057 
L 95.662791 223.64232 
L 95.752998 225.833106 
L 95.933412 234.323314 
L 96.384446 223.64232 
L 96.56486 236.149027 
L 96.655067 231.493129 
L 96.745274 231.85855 
L 96.835481 238.705234 
L 96.925687 236.879521 
L 97.106101 227.111209 
L 97.286515 241.991587 
L 97.376722 241.900493 
L 97.466929 240.987462 
L 97.647342 231.85855 
L 97.737549 233.227747 
L 98.00817 237.792203 
L 98.188584 233.958241 
L 98.278791 234.870924 
L 98.368997 234.414409 
L 98.639618 228.298219 
L 98.820032 230.854077 
L 98.910239 231.584571 
L 99.090652 241.717956 
L 99.271066 230.306468 
L 99.45148 229.576321 
L 99.541687 232.223623 
L 99.631894 238.887771 
L 99.812307 225.376938 
L 99.902514 226.654694 
L 99.992721 230.854077 
L 100.353549 224.372466 
L 100.443756 224.463908 
L 100.624169 223.368342 
L 100.714376 225.285497 
L 100.89479 219.351495 
L 101.075204 233.684262 
L 101.255617 225.833106 
L 101.345824 225.742012 
L 101.436031 220.538504 
L 101.616445 236.423006 
L 101.796859 220.995019 
L 101.887066 221.086114 
L 101.977272 223.64232 
L 102.157686 217.890855 
L 102.247893 217.982297 
L 102.3381 215.517532 
L 102.428307 209.309552 
L 102.518514 212.778789 
L 102.698927 221.633723 
L 102.879341 206.297178 
L 103.059755 216.704194 
L 103.149962 212.869883 
L 103.240169 214.421966 
L 103.420582 226.01599 
L 103.510789 224.646445 
L 103.600996 221.451186 
L 103.691203 222.272774 
L 103.871617 228.115682 
L 104.052031 222.820732 
L 104.142237 222.911826 
L 104.322651 226.381063 
L 104.503065 221.542629 
L 104.683479 229.210901 
L 104.773686 225.833106 
L 104.954099 239.618264 
L 105.134513 218.803885 
L 105.22472 218.986422 
L 105.405134 225.559475 
L 105.675754 220.629598 
L 105.946375 231.036962 
L 106.036582 229.576321 
L 106.216996 206.844788 
L 106.397409 228.389313 
L 106.487616 226.198527 
L 106.577823 226.472157 
L 106.758237 229.576321 
L 106.938651 228.845828 
L 107.119064 221.177556 
L 107.209271 214.878481 
L 107.299478 217.79976 
L 107.479892 225.559475 
L 107.570099 223.733414 
L 107.660306 224.55535 
L 107.840719 218.621349 
L 108.021133 224.372466 
L 108.201547 220.812135 
L 108.472168 230.489004 
L 108.562374 230.032489 
L 108.742788 223.550878 
L 109.103616 236.149027 
L 109.193823 235.692512 
L 109.284029 230.489004 
L 109.374236 230.671541 
L 109.55465 227.202651 
L 109.735064 238.157624 
L 109.915478 229.849953 
L 110.005684 231.584571 
L 110.095891 229.302343 
L 110.276305 237.244594 
L 110.637133 227.293746 
L 110.727339 227.659167 
L 110.99796 234.140778 
L 111.178374 225.742012 
L 111.358788 232.862675 
L 111.719615 205.110169 
L 111.809822 208.853037 
L 111.900029 213.417841 
L 111.990236 207.301303 
L 112.170649 218.986422 
L 112.260856 216.886731 
L 112.351063 212.961326 
L 112.44127 214.695944 
L 112.531477 213.508935 
L 112.621684 214.239429 
L 112.802098 218.712443 
L 112.982511 227.750261 
L 113.072718 225.468033 
L 113.162925 220.355967 
L 113.253132 222.18168 
L 113.433546 228.02424 
L 113.523753 228.206776 
L 113.613959 230.580447 
L 113.794373 226.198527 
L 113.88458 227.567725 
L 114.064994 235.05346 
L 114.155201 233.866799 
L 114.335614 221.907701 
L 114.425821 229.758858 
L 114.516028 228.845828 
L 114.606235 228.571849 
L 114.786649 217.982297 
L 114.967063 224.920423 
L 115.147476 222.72929 
L 115.237683 222.546753 
L 115.418097 226.5636 
L 115.508304 230.123931 
L 115.598511 229.484879 
L 115.778924 223.824857 
L 116.049545 226.5636 
L 116.139752 225.376938 
L 116.229959 218.895327 
L 116.320166 219.534031 
L 116.500579 225.285497 
L 116.590786 225.924548 
L 116.680993 228.93727 
L 116.951614 221.725165 
L 117.041821 221.633723 
L 117.312441 228.115682 
L 117.492855 238.340161 
L 117.673269 220.538504 
L 117.763476 223.916299 
L 117.853683 223.459784 
L 117.943889 219.260401 
L 118.304717 225.011518 
L 118.485131 220.447062 
L 118.665544 230.032489 
L 118.755751 226.472157 
L 118.845958 227.659167 
L 119.116579 234.323314 
L 119.206786 233.958241 
L 119.567613 225.285497 
L 119.65782 225.742012 
L 119.748027 225.559475 
L 119.838234 226.01599 
L 119.928441 230.123931 
L 120.379475 225.285497 
L 120.559889 229.941395 
L 120.650096 232.314718 
L 120.740303 230.39791 
L 120.920716 223.824857 
L 121.010923 225.559475 
L 121.10113 223.916299 
L 121.191337 219.899452 
L 121.371751 226.5636 
L 121.461958 225.65057 
L 121.552164 225.011518 
L 121.732578 232.223623 
L 121.822785 228.845828 
L 122.003199 220.629598 
L 122.183613 227.750261 
L 122.364026 222.638195 
L 122.454233 224.098835 
L 122.634647 231.85855 
L 122.815061 223.550878 
L 122.905268 225.833106 
L 122.995475 227.659167 
L 123.175888 224.463908 
L 123.356302 231.036962 
L 123.536716 233.045211 
L 123.807336 225.833106 
L 123.98775 217.160709 
L 124.168164 227.385188 
L 124.348578 221.725165 
L 124.528991 229.667416 
L 124.709405 223.094363 
L 124.980026 231.767108 
L 125.070233 232.862675 
L 125.16044 231.402034 
L 125.340853 226.01599 
L 125.521267 229.758858 
L 125.701681 224.189929 
L 125.882095 233.410284 
L 126.062508 224.372466 
L 126.152715 225.559475 
L 126.242922 224.920423 
L 126.513543 232.953769 
L 126.60375 230.945519 
L 126.784163 227.567725 
L 126.964577 230.215026 
L 127.144991 219.625473 
L 127.325405 227.385188 
L 127.505818 221.816607 
L 127.596025 226.5636 
L 127.686232 225.833106 
L 127.776439 224.55535 
L 127.956853 234.505851 
L 128.227473 227.111209 
L 128.31768 227.659167 
L 128.498094 226.381063 
L 128.678508 232.132181 
L 128.858921 226.5636 
L 128.949128 226.928673 
L 129.219749 229.849953 
L 129.309956 229.119806 
L 129.49037 226.472157 
L 129.580576 231.402034 
L 129.76099 228.02424 
L 129.851197 231.676013 
L 129.941404 230.306468 
L 130.031611 224.007393 
L 130.302231 231.219498 
L 130.392438 231.402034 
L 130.572852 221.451186 
L 130.663059 226.654694 
L 130.753266 223.459784 
L 130.843473 224.281372 
L 131.114093 232.771232 
L 131.2043 233.775357 
L 131.294507 236.696984 
L 131.474921 233.136653 
L 131.655335 235.875049 
L 131.745541 233.684262 
L 131.925955 237.335688 
L 132.106369 228.754386 
L 132.196576 228.663291 
L 132.286783 226.198527 
L 132.37699 226.381063 
L 132.467196 228.298219 
L 132.557403 224.646445 
L 132.64761 226.01599 
L 132.737817 229.758858 
L 132.828024 229.576321 
L 132.918231 227.111209 
L 133.008438 227.385188 
L 133.098645 227.293746 
L 133.369265 232.953769 
L 133.459472 232.132181 
L 133.549679 229.302343 
L 133.639886 230.854077 
L 133.8203 236.149027 
L 134.09092 229.210901 
L 134.271334 237.701109 
L 134.451748 232.497601 
L 134.541955 234.597293 
L 134.722368 230.671541 
L 134.812575 231.85855 
L 134.992989 229.576321 
L 135.083196 231.310592 
L 135.173403 230.762983 
L 135.444023 227.202651 
L 135.53423 229.210901 
L 135.624437 227.932798 
L 135.804851 219.260401 
L 136.075471 225.65057 
L 136.255885 226.472157 
L 136.346092 225.376938 
L 136.526506 232.680138 
L 136.616713 230.215026 
L 136.70692 225.559475 
L 136.797126 227.111209 
L 136.887333 226.654694 
L 136.97754 224.920423 
L 137.157954 231.219498 
L 137.248161 228.206776 
L 137.428575 237.427131 
L 137.608988 226.01599 
L 138.060023 237.883646 
L 138.240436 228.389313 
L 138.330643 230.306468 
L 138.42085 230.032489 
L 138.511057 228.480755 
L 138.601264 229.849953 
L 138.691471 228.663291 
L 138.781678 223.459784 
L 138.962091 226.837578 
L 139.142505 224.828981 
L 139.232712 225.376938 
L 139.413126 221.086114 
L 139.59354 228.206776 
L 139.683746 227.659167 
L 139.773953 221.633723 
L 139.954367 228.298219 
L 140.044574 225.833106 
L 140.134781 222.364216 
L 140.224988 225.833106 
L 140.405402 220.355967 
L 140.585815 226.289621 
L 140.676022 224.920423 
L 140.856436 227.111209 
L 140.946643 226.472157 
L 141.03685 226.654694 
L 141.217263 221.360092 
L 141.397677 225.285497 
L 141.487884 223.733414 
L 141.668298 229.302343 
L 141.848712 225.468033 
L 141.938918 225.833106 
L 142.029125 223.733414 
L 142.209539 229.849953 
L 142.389953 223.733414 
L 142.48016 224.55535 
L 142.570367 225.559475 
L 142.660573 224.463908 
L 142.931194 226.928673 
L 143.111608 223.824857 
L 143.292022 228.115682 
L 143.472435 221.999144 
L 143.562642 227.202651 
L 143.652849 226.928673 
L 143.743056 221.360092 
L 144.013677 228.663291 
L 144.103883 228.206776 
L 144.19409 229.028364 
L 144.284297 228.206776 
L 144.374504 228.663291 
L 144.464711 230.580447 
L 144.554918 230.123931 
L 144.645125 231.128056 
L 144.735332 230.854077 
L 144.915745 233.866799 
L 145.096159 223.733414 
L 145.276573 233.136653 
L 145.36678 228.480755 
L 145.547193 238.796676 
L 145.727607 223.094363 
L 145.998228 228.115682 
L 146.268848 220.995019 
L 146.539469 230.854077 
L 146.629676 229.667416 
L 146.81009 209.127016 
L 146.990503 230.671541 
L 147.170917 232.223623 
L 147.351331 226.928673 
L 147.531745 236.149027 
L 147.712158 225.10296 
L 147.802365 225.285497 
L 147.892572 227.932798 
L 147.982779 227.841703 
L 148.163193 224.55535 
L 148.2534 225.194055 
L 148.343607 225.10296 
L 148.433813 224.55535 
L 148.52402 225.194055 
L 148.704434 227.567725 
L 148.884848 226.198527 
L 149.065262 232.953769 
L 149.335882 225.194055 
L 149.426089 226.472157 
L 149.516296 225.285497 
L 149.69671 231.584571 
L 150.057537 223.277247 
L 150.147744 225.194055 
L 150.328158 234.688388 
L 150.598778 225.10296 
L 150.688985 227.020115 
L 150.779192 231.584571 
L 151.14002 227.020115 
L 151.230227 227.293746 
L 151.591054 233.775357 
L 151.771468 231.219498 
L 151.861675 236.057932 
L 152.042088 228.571849 
L 152.132295 229.028364 
L 152.222502 229.758858 
L 152.312709 228.93727 
L 152.493123 232.953769 
L 152.58333 226.472157 
L 152.673537 227.202651 
L 152.85395 234.962366 
L 153.034364 233.227747 
L 153.124571 232.223623 
L 153.214778 233.59282 
L 153.395192 231.128056 
L 153.575605 237.701109 
L 153.756019 230.671541 
L 153.846226 232.223623 
L 154.116847 228.389313 
L 154.207053 229.758858 
L 154.387467 226.837578 
L 154.477674 226.928673 
L 154.748295 229.119806 
L 154.838502 224.646445 
L 154.928708 226.107085 
L 155.018915 237.701109 
L 155.379743 223.64232 
L 155.46995 224.372466 
L 155.560157 227.659167 
L 155.74057 225.65057 
L 155.830777 225.742012 
L 155.920984 226.5636 
L 156.101398 233.958241 
L 156.191605 232.314718 
L 156.372018 227.293746 
L 156.462225 226.5636 
L 156.552432 227.47663 
L 156.642639 226.381063 
L 156.823053 218.438812 
L 157.093673 226.472157 
L 157.18388 225.468033 
L 157.364294 229.302343 
L 157.544708 223.824857 
L 157.725122 228.115682 
L 157.815329 226.289621 
L 157.905535 227.659167 
L 158.085949 242.265565 
L 158.35657 223.368342 
L 158.536984 229.484879 
L 158.62719 228.93727 
L 158.717397 223.094363 
L 158.897811 227.841703 
L 158.988018 225.924548 
L 159.168432 236.149027 
L 159.348845 226.198527 
L 159.619466 237.518573 
L 159.709673 240.34841 
L 159.890087 232.40616 
L 159.980294 235.418881 
L 160.160707 228.754386 
L 160.250914 229.210901 
L 160.431328 224.646445 
L 160.611742 233.31919 
L 160.701949 231.767108 
L 160.792155 224.920423 
L 160.882362 225.285497 
L 161.152983 233.410284 
L 161.24319 235.236345 
L 161.423604 223.277247 
L 161.604017 231.310592 
L 161.784431 221.086114 
L 161.964845 227.841703 
L 162.055052 224.189929 
L 162.145259 225.285497 
L 162.235465 236.240469 
L 162.325672 236.149027 
L 162.506086 228.115682 
L 162.596293 230.489004 
L 162.6865 228.93727 
L 162.866914 238.066182 
L 163.047327 230.945519 
L 163.137534 231.402034 
L 163.227741 231.219498 
L 163.317948 231.402034 
L 163.498362 220.173083 
L 163.678775 225.194055 
L 163.768982 223.824857 
L 163.859189 229.576321 
L 163.949396 228.206776 
L 164.039603 224.828981 
L 164.220017 231.493129 
L 164.310224 228.754386 
L 164.40043 230.032489 
L 164.580844 220.447062 
L 164.761258 228.93727 
L 164.941672 221.725165 
L 165.212292 233.227747 
L 165.302499 229.028364 
L 165.482913 234.231872 
L 165.57312 233.684262 
L 165.84374 226.928673 
L 166.024154 234.505851 
L 166.204568 223.094363 
L 166.294775 223.733414 
L 166.475189 235.966491 
L 166.655602 223.733414 
L 166.745809 227.020115 
L 166.926223 225.285497 
L 167.106637 239.891895 
L 167.377257 227.293746 
L 167.557671 231.310592 
L 167.738085 217.708318 
L 167.918499 231.402034 
L 168.008705 224.463908 
L 168.189119 229.484879 
L 168.369533 222.272774 
L 168.549947 233.958241 
L 168.73036 227.659167 
L 168.820567 228.663291 
L 168.910774 229.028364 
L 169.091188 226.928673 
L 169.271602 232.588696 
L 169.542222 221.725165 
L 169.722636 227.659167 
L 169.812843 227.385188 
L 169.90305 229.393437 
L 170.083464 219.990546 
L 170.17367 226.198527 
L 170.263877 225.742012 
L 170.354084 223.277247 
L 170.444291 230.39791 
L 170.534498 229.484879 
L 170.624705 218.529907 
L 170.714912 220.629598 
L 170.895325 228.93727 
L 170.985532 227.841703 
L 171.165946 219.168958 
L 171.256153 225.924548 
L 171.436567 220.538504 
L 171.887601 233.136653 
L 171.977808 228.206776 
L 172.068015 230.489004 
L 172.158222 236.696984 
L 172.338635 233.045211 
L 172.519049 239.526822 
L 172.879877 220.629598 
L 172.970084 222.911826 
L 173.06029 228.93727 
L 173.240704 221.360092 
L 173.421118 227.841703 
L 173.601532 223.459784 
L 173.962359 231.767108 
L 174.052566 231.676013 
L 174.23298 225.559475 
L 174.413394 236.879521 
L 174.684014 225.468033 
L 174.864428 238.979213 
L 175.135049 230.306468 
L 175.315462 227.841703 
L 175.586083 233.501726 
L 175.766497 234.688388 
L 176.037117 230.762983 
L 176.127324 231.219498 
L 176.307738 219.534031 
L 176.397945 220.72104 
L 176.488152 225.10296 
L 176.578359 225.011518 
L 176.668566 225.924548 
L 176.848979 229.576321 
L 176.939186 227.932798 
L 177.029393 229.210901 
L 177.1196 234.77983 
L 177.209807 233.136653 
L 177.300014 229.302343 
L 177.390221 231.128056 
L 177.570634 222.638195 
L 177.751048 235.601418 
L 177.841255 230.489004 
L 178.021669 237.701109 
L 178.202082 227.020115 
L 178.292289 227.567725 
L 178.472703 236.423006 
L 178.653117 238.705234 
L 178.833531 226.746136 
L 178.923737 228.206776 
L 179.013944 229.941395 
L 179.104151 227.659167 
L 179.374772 230.032489 
L 179.555186 237.518573 
L 179.735599 227.567725 
L 179.916013 230.762983 
L 180.00622 228.571849 
L 180.096427 229.393437 
L 180.276841 238.066182 
L 180.547461 228.206776 
L 180.637668 228.845828 
L 180.818082 235.144903 
L 180.998496 224.646445 
L 181.088702 225.742012 
L 181.269116 230.854077 
L 181.359323 230.580447 
L 181.44953 231.493129 
L 181.539737 229.758858 
L 181.629944 230.762983 
L 181.810357 227.020115 
L 181.900564 230.580447 
L 181.990771 230.215026 
L 182.080978 226.289621 
L 182.261392 238.796676 
L 182.441806 234.414409 
L 182.532012 233.045211 
L 182.622219 228.93727 
L 182.802633 242.904617 
L 182.983047 228.206776 
L 183.073254 229.576321 
L 183.163461 232.862675 
L 183.253667 230.762983 
L 183.343874 231.767108 
L 183.434081 234.140778 
L 183.524288 232.497601 
L 183.614495 227.202651 
L 183.885116 237.883646 
L 184.065529 227.202651 
L 184.245943 235.783954 
L 184.426357 230.945519 
L 184.606771 241.991587 
L 184.696977 241.352535 
L 184.787184 238.705234 
L 184.877391 239.070307 
L 185.057805 244.821772 
L 185.328426 239.983337 
L 185.418632 242.265565 
L 185.508839 242.174123 
L 185.689253 233.501726 
L 185.869667 243.543669 
L 185.959874 239.983337 
L 186.140287 250.755426 
L 186.320701 231.402034 
L 186.410908 231.767108 
L 186.591322 233.59282 
L 186.681529 233.59282 
L 186.861942 230.945519 
L 187.042356 235.875049 
L 187.22277 240.987462 
L 187.403184 218.803885 
L 187.493391 231.310592 
L 187.583597 229.667416 
L 187.673804 229.941395 
L 187.764011 232.223623 
L 187.944425 229.941395 
L 188.034632 232.771232 
L 188.124839 232.588696 
L 188.395459 219.077864 
L 188.485666 220.72104 
L 188.66608 228.298219 
L 188.756287 225.194055 
L 188.846494 225.742012 
L 188.936701 224.55535 
L 189.026907 221.086114 
L 189.117114 222.455659 
L 189.207321 227.932798 
L 189.387735 220.081988 
L 189.568149 230.306468 
L 189.658356 229.028364 
L 189.838769 228.115682 
L 189.928976 224.189929 
L 190.380011 233.045211 
L 190.470217 230.489004 
L 190.560424 232.041086 
L 190.740838 225.10296 
L 190.921252 237.427131 
L 191.282079 226.837578 
L 191.462493 236.788079 
L 191.642907 224.646445 
L 191.823321 227.567725 
L 191.913527 226.107085 
L 192.184148 235.875049 
L 192.364562 230.123931 
L 192.544976 234.77983 
L 192.725389 228.02424 
L 193.086217 242.265565 
L 193.176424 234.77983 
L 193.266631 235.509975 
L 193.447044 241.900493 
L 193.537251 238.705234 
L 193.627458 239.43538 
L 193.807872 235.966491 
L 194.168699 239.709359 
L 194.258906 238.157624 
L 194.43932 230.580447 
L 194.619734 234.688388 
L 194.890354 227.567725 
L 195.070768 223.733414 
L 195.251182 230.671541 
L 195.341389 227.750261 
L 195.521803 217.069267 
L 195.702216 229.849953 
L 195.792423 228.206776 
L 195.972837 220.173083 
L 196.153251 222.546753 
L 196.243458 221.999144 
L 196.333664 223.916299 
L 196.423871 223.64232 
L 196.514078 224.737887 
L 196.694492 236.240469 
L 196.784699 233.410284 
L 196.965113 220.72104 
L 197.145526 225.833106 
L 197.32594 222.364216 
L 197.506354 216.978173 
L 197.686768 228.02424 
L 197.867181 223.916299 
L 197.957388 225.468033 
L 198.047595 224.55535 
L 198.137802 220.995019 
L 198.228009 221.360092 
L 198.679043 236.879521 
L 198.949664 218.073392 
L 199.220284 222.72929 
L 199.310491 220.72104 
L 199.400698 221.26865 
L 199.490905 223.003268 
L 199.581112 221.999144 
L 199.671319 223.094363 
L 199.761526 227.659167 
L 199.941939 224.55535 
L 200.122353 230.854077 
L 200.21256 230.39791 
L 200.392974 232.862675 
L 200.483181 231.493129 
L 200.663594 222.638195 
L 200.753801 224.098835 
L 200.844008 223.824857 
L 200.934215 223.185805 
L 201.114629 228.115682 
L 201.475456 222.638195 
L 201.746077 229.210901 
L 201.836284 230.854077 
L 202.016698 223.916299 
L 202.106904 226.5636 
L 202.377525 220.264525 
L 202.557939 223.094363 
L 202.738353 223.368342 
L 202.828559 228.845828 
L 202.918766 228.571849 
L 203.09918 219.899452 
L 203.279594 222.72929 
L 203.369801 222.546753 
L 203.550214 221.360092 
L 203.640421 223.094363 
L 203.730628 234.140778 
L 203.820835 233.136653 
L 204.001249 226.289621 
L 204.091456 228.663291 
L 204.181663 228.389313 
L 204.362076 227.202651 
L 204.722904 234.231872 
L 204.903318 229.941395 
L 204.993524 228.845828 
L 205.173938 219.625473 
L 205.354352 231.949644 
L 205.534766 224.646445 
L 205.715179 232.497601 
L 205.805386 231.584571 
L 205.895593 228.02424 
L 206.256421 235.783954 
L 206.436834 230.306468 
L 206.617248 235.418881 
L 206.797662 226.381063 
L 206.887869 227.47663 
L 207.068283 236.149027 
L 207.338903 227.020115 
L 207.42911 225.742012 
L 207.699731 232.497601 
L 207.880144 231.402034 
L 207.970351 226.746136 
L 208.150765 234.140778 
L 208.331179 219.80801 
L 208.511593 228.663291 
L 208.601799 223.459784 
L 208.692006 225.10296 
L 208.782213 229.941395 
L 208.962627 226.472157 
L 209.143041 233.59282 
L 209.503868 226.837578 
L 209.594075 227.020115 
L 209.684282 227.567725 
L 209.774489 230.215026 
L 209.864696 229.758858 
L 210.135316 225.924548 
L 210.31573 229.758858 
L 210.405937 229.941395 
L 210.496144 229.393437 
L 210.586351 226.928673 
L 210.676558 227.111209 
L 210.766765 228.571849 
L 210.856971 224.646445 
L 210.947178 226.654694 
L 211.037385 233.136653 
L 211.127592 230.306468 
L 211.217799 222.72929 
L 211.48842 227.385188 
L 211.578626 228.663291 
L 211.668833 228.02424 
L 211.75904 224.828981 
L 211.849247 230.489004 
L 212.029661 228.93727 
L 212.119868 228.571849 
L 212.390488 236.879521 
L 212.480695 235.327439 
L 212.570902 232.314718 
L 212.751316 236.696984 
L 212.841523 234.049336 
L 212.93173 234.962366 
L 213.021936 237.427131 
L 213.20235 228.206776 
L 213.292557 228.754386 
L 213.382764 227.750261 
L 213.563178 222.455659 
L 213.743591 226.928673 
L 213.833798 227.111209 
L 214.014212 231.219498 
L 214.194626 226.107085 
L 214.284833 226.654694 
L 214.555453 234.688388 
L 214.64566 233.59282 
L 214.735867 230.671541 
L 214.826074 231.036962 
L 215.006488 234.962366 
L 215.277108 230.671541 
L 215.457522 240.074431 
L 215.637936 236.605542 
L 215.728143 234.962366 
L 215.81835 229.849953 
L 215.998763 233.136653 
L 216.179177 229.667416 
L 216.269384 232.314718 
L 216.359591 231.767108 
L 216.630211 228.571849 
L 216.720418 229.393437 
L 216.810625 229.302343 
L 216.991039 223.003268 
L 217.171453 225.742012 
L 217.351866 226.928673 
L 217.442073 226.928673 
L 217.53228 226.746136 
L 217.712694 234.505851 
L 217.802901 233.31919 
L 217.983315 228.206776 
L 218.163728 226.472157 
L 218.344142 233.684262 
L 218.434349 230.580447 
L 218.614763 239.800801 
L 218.795176 229.210901 
L 219.246211 239.709359 
L 219.516831 228.571849 
L 219.697245 235.327439 
L 219.787452 234.505851 
L 219.877659 230.123931 
L 219.967866 219.077864 
L 220.14828 226.289621 
L 220.328693 218.621349 
L 220.509107 223.094363 
L 220.689521 217.160709 
L 220.869935 228.93727 
L 221.050348 221.451186 
L 221.140555 224.646445 
L 221.320969 219.260401 
L 221.411176 225.10296 
L 221.501383 223.459784 
L 221.59159 218.803885 
L 221.772003 223.550878 
L 221.86221 222.455659 
L 221.952417 222.638195 
L 222.042624 224.828981 
L 222.132831 224.737887 
L 222.403451 220.173083 
L 222.583865 221.542629 
L 222.674072 221.907701 
L 222.854486 227.202651 
L 222.944693 224.737887 
L 223.0349 224.828981 
L 223.125106 225.559475 
L 223.215313 221.816607 
L 223.30552 222.546753 
L 223.395727 226.472157 
L 223.485934 225.194055 
L 223.576141 221.451186 
L 223.756555 226.5636 
L 223.846761 223.459784 
L 223.936968 223.550878 
L 224.027175 228.298219 
L 224.117382 227.385188 
L 224.207589 220.72104 
L 224.297796 223.368342 
L 224.388003 230.215026 
L 224.47821 229.849953 
L 224.568416 223.368342 
L 224.658623 224.281372 
L 224.74883 226.928673 
L 224.929244 225.194055 
L 225.109658 229.484879 
L 225.199865 230.215026 
L 225.380278 232.771232 
L 225.560692 229.667416 
L 225.650899 232.771232 
L 225.831313 230.945519 
L 226.011726 236.331564 
L 226.101933 235.327439 
L 226.282347 222.18168 
L 226.462761 233.866799 
L 226.552968 229.849953 
L 226.733381 237.062058 
L 227.004002 223.733414 
L 227.184416 229.576321 
L 227.455037 220.264525 
L 227.63545 225.833106 
L 227.815864 226.654694 
L 227.996278 206.844788 
L 228.086485 230.854077 
L 228.176692 230.306468 
L 228.266898 230.762983 
L 228.357105 230.123931 
L 228.447312 227.385188 
L 228.537519 228.02424 
L 228.717933 233.684262 
L 228.988553 226.746136 
L 229.168967 231.402034 
L 229.349381 224.828981 
L 229.439588 227.202651 
L 229.620002 224.55535 
L 229.800415 230.306468 
L 229.890622 224.828981 
L 229.980829 225.376938 
L 230.25145 235.601418 
L 230.52207 227.567725 
L 230.612277 231.036962 
L 230.702484 228.93727 
L 230.792691 229.941395 
L 230.882898 233.59282 
L 230.973105 232.680138 
L 231.063312 230.489004 
L 231.153518 231.676013 
L 231.243725 229.028364 
L 231.333932 229.667416 
L 231.514346 237.518573 
L 231.69476 230.762983 
L 231.875173 229.210901 
L 231.96538 231.767108 
L 232.055587 231.493129 
L 232.145794 229.484879 
L 232.236001 229.667416 
L 232.326208 231.493129 
L 232.416415 229.576321 
L 232.867449 234.597293 
L 232.957656 231.676013 
L 233.13807 235.783954 
L 233.40869 229.576321 
L 233.589104 231.402034 
L 233.679311 230.39791 
L 233.769518 227.385188 
L 234.040138 235.236345 
L 234.130345 233.866799 
L 234.220552 233.31919 
L 234.310759 233.501726 
L 234.400966 236.423006 
L 234.58138 230.306468 
L 234.761793 238.066182 
L 234.942207 229.758858 
L 235.122621 233.136653 
L 235.212828 231.584571 
L 235.303035 227.750261 
L 235.393242 228.02424 
L 235.483448 228.845828 
L 235.663862 226.472157 
L 235.754069 229.667416 
L 235.844276 229.028364 
L 236.114897 223.64232 
L 236.205103 204.562559 
L 236.29531 204.654001 
L 236.385517 207.48384 
L 236.656138 203.10192 
L 236.836552 206.93623 
L 237.016965 205.749221 
L 237.197379 212.413368 
L 237.377793 218.986422 
L 237.558207 204.01495 
L 237.648413 204.106044 
L 237.73862 202.280331 
L 238.009241 186.213293 
L 238.099448 186.213293 
L 238.279862 203.193362 
L 238.370068 201.184765 
L 238.550482 203.375899 
L 238.730896 195.342205 
L 238.91131 197.533339 
L 239.001517 194.155544 
L 239.091723 199.267609 
L 239.272137 223.824857 
L 239.452551 200.454618 
L 239.632965 201.549837 
L 239.813378 209.400994 
L 239.993792 202.280331 
L 240.083999 203.010478 
L 240.174206 202.827941 
L 240.35462 215.517532 
L 240.444827 213.417841 
L 240.535033 211.957201 
L 240.62524 213.691472 
L 240.715447 208.761942 
L 240.805654 211.500686 
L 240.895861 222.546753 
L 240.986068 222.455659 
L 241.076275 216.978173 
L 241.166482 219.716916 
L 241.437102 208.39687 
L 241.527309 214.147987 
L 241.617516 213.691472 
L 241.707723 212.504811 
L 241.79793 212.778789 
L 241.888137 212.961326 
L 242.06855 200.271735 
L 242.429378 219.534031 
L 242.609792 213.05242 
L 242.699998 215.061017 
L 242.790205 214.51306 
L 242.970619 211.226707 
L 243.060826 211.683222 
L 243.24124 214.787039 
L 243.331447 214.239429 
L 243.51186 228.480755 
L 243.962895 210.679098 
L 244.053102 212.139738 
L 244.143308 211.683222 
L 244.233515 214.147987 
L 244.323722 247.560515 
L 244.413929 244.73033 
L 244.594343 230.762983 
L 244.68455 232.041086 
L 244.774757 232.497601 
L 244.95517 235.692512 
L 245.045377 233.684262 
L 245.135584 228.298219 
L 245.496412 245.095403 
L 245.586619 249.933838 
L 245.767032 231.85855 
L 245.947446 248.747177 
L 246.12786 231.85855 
L 246.308274 247.377978 
L 246.488687 237.792203 
L 246.578894 244.273815 
L 246.939722 235.05346 
L 247.120135 223.094363 
L 247.300549 230.489004 
L 247.480963 221.451186 
L 247.661377 234.597293 
L 247.931997 209.674973 
L 248.202618 156.361096 
L 248.292825 156.635075 
L 248.383032 150.792515 
L 248.563445 156.726169 
L 248.743859 159.647449 
L 248.924273 153.348722 
L 249.01448 158.460788 
L 249.104687 158.369693 
L 249.194894 154.17031 
L 249.375307 165.763987 
L 249.555721 159.191281 
L 249.736135 170.967495 
L 250.006755 146.50169 
L 250.096962 144.858514 
L 250.187169 146.866763 
L 250.367583 156.635075 
L 250.45779 148.418845 
L 250.547997 148.87536 
L 250.638204 150.518537 
L 250.72841 144.401999 
L 250.818617 147.871235 
L 250.999031 160.834458 
L 251.089238 159.738891 
L 251.269652 147.505814 
L 251.359859 155.448066 
L 251.540272 111.811406 
L 251.9011 66.987737 
L 251.991307 68.722356 
L 252.261927 59.684538 
L 252.352134 53.568 
L 252.442341 290.740834 
L 252.532548 279.512056 
L 252.622755 269.926628 
L 252.712962 271.11329 
L 252.893375 275.67792 
L 253.073789 285.354615 
L 253.163996 281.885726 
L 253.34441 295.488 
L 253.434617 290.92337 
L 253.524824 287.27177 
L 253.61503 291.8364 
L 253.705237 290.558297 
L 254.066065 274.126011 
L 254.156272 272.939176 
L 254.426892 278.5992 
L 254.517099 279.420788 
L 254.607306 277.503632 
L 254.78772 267.187885 
L 255.148547 286.176378 
L 255.238754 283.437635 
L 255.328961 272.939176 
L 255.419168 273.030445 
L 255.599582 291.014639 
L 255.689789 289.46273 
L 255.870202 271.661073 
L 256.050616 287.454307 
L 256.50165 269.378845 
L 256.591857 271.661073 
L 256.772271 277.86888 
L 256.952685 268.100742 
L 257.133099 275.130137 
L 257.313512 265.179462 
L 257.403719 261.801667 
L 257.584133 249.933838 
L 257.854754 261.162615 
L 258.125374 260.158491 
L 258.215581 261.892936 
L 258.305788 268.009474 
L 258.395995 266.457565 
L 258.486202 261.436594 
L 258.576409 264.175337 
L 258.666615 263.901358 
L 258.756822 259.975954 
L 258.937236 270.748217 
L 259.027443 261.345326 
L 259.207857 276.408239 
L 259.38827 262.258182 
L 259.568684 272.391393 
L 259.658891 272.208856 
L 259.749098 279.420788 
L 259.839305 278.051416 
L 260.019719 263.718822 
L 260.200132 264.175337 
L 260.380546 273.760765 
L 260.470753 268.92233 
L 260.56096 226.01599 
L 260.651167 229.484879 
L 260.741374 232.680138 
L 261.011994 218.803885 
L 261.102201 221.451186 
L 261.282615 218.256275 
L 261.463029 228.02424 
L 261.643442 222.272774 
L 261.733649 223.824857 
L 261.823856 221.451186 
L 261.914063 221.999144 
L 262.00427 231.219498 
L 262.094477 230.854077 
L 262.27489 222.18168 
L 262.455304 227.47663 
L 262.545511 230.671541 
L 262.725925 223.185805 
L 262.816132 226.472157 
L 263.176959 215.243554 
L 263.267166 216.795636 
L 263.44758 234.231872 
L 263.537787 226.289621 
L 263.627994 229.302343 
L 263.718201 228.845828 
L 263.808407 217.79976 
L 263.898614 223.550878 
L 263.988821 237.427131 
L 264.079028 235.327439 
L 264.169235 226.654694 
L 264.259442 228.754386 
L 264.710476 266.822638 
L 264.800683 256.871964 
L 264.981097 280.424913 
L 265.071304 280.333644 
L 265.251717 263.901358 
L 265.432131 275.860456 
L 265.612545 262.897234 
L 265.792959 276.682045 
L 265.883166 275.586652 
L 266.063579 270.200433 
L 266.3342 277.686343 
L 266.424407 276.316972 
L 266.514614 273.030445 
L 266.695027 274.308548 
L 266.875441 259.975954 
L 267.055855 268.37472 
L 267.146062 260.615006 
L 267.326476 276.773313 
L 267.506889 249.386228 
L 267.597096 249.751301 
L 267.687303 248.929713 
L 267.867717 253.950684 
L 268.048131 245.369382 
L 268.408958 255.502593 
L 268.769786 217.525782 
L 268.859992 216.430215 
L 269.130613 223.733414 
L 269.311027 234.414409 
L 269.581647 207.118766 
L 269.671854 209.766068 
L 269.852268 220.812135 
L 270.032682 213.782914 
L 270.122889 214.147987 
L 270.213096 216.978173 
L 270.303302 224.55535 
L 270.393509 221.816607 
L 270.483716 211.59178 
L 270.573923 214.787039 
L 270.754337 228.389313 
L 271.024957 218.712443 
L 271.115164 209.948604 
L 271.295578 226.01599 
L 271.475992 215.9737 
L 271.566199 216.704194 
L 271.746612 228.115682 
L 271.927026 220.538504 
L 272.10744 236.057932 
L 272.378061 218.621349 
L 272.468267 221.177556 
L 272.648681 230.39791 
L 272.829095 218.621349 
L 272.919302 223.733414 
L 273.099716 211.59178 
L 273.189922 216.247679 
L 273.370336 231.85855 
L 273.640957 224.828981 
L 273.731164 224.920423 
L 273.911577 220.812135 
L 274.001784 220.538504 
L 274.182198 236.970616 
L 274.272405 236.331564 
L 274.362612 223.003268 
L 274.452819 226.928673 
L 274.543026 235.875049 
L 274.633232 234.231872 
L 274.723439 232.771232 
L 274.813646 234.688388 
L 274.903853 229.849953 
L 274.99406 230.945519 
L 275.084267 235.601418 
L 275.174474 234.962366 
L 275.625508 226.381063 
L 275.805922 233.136653 
L 276.076542 220.995019 
L 276.256956 224.463908 
L 276.43737 231.036962 
L 276.527577 225.833106 
L 276.707991 209.218458 
L 276.798197 207.027324 
L 276.978611 210.13114 
L 277.159025 199.359052 
L 277.339439 207.392398 
L 277.429646 206.114642 
L 277.519852 204.927633 
L 277.610059 205.47559 
L 277.88068 210.861634 
L 277.970887 208.853037 
L 278.151301 202.097795 
L 278.331714 206.570809 
L 278.602335 191.142822 
L 278.692542 192.603462 
L 278.872956 203.832066 
L 278.963162 203.466993 
L 279.143576 200.545713 
L 279.233783 202.55431 
L 279.32399 202.280331 
L 279.414197 200.089198 
L 279.504404 200.454618 
L 279.594611 199.63303 
L 279.684817 199.815567 
L 279.865231 219.077864 
L 280.045645 200.910786 
L 280.135852 200.72825 
L 280.226059 201.184765 
L 280.406473 208.579406 
L 280.586886 201.276207 
L 280.677093 204.927633 
L 280.7673 202.645405 
L 280.857507 204.654001 
L 280.947714 212.048296 
L 281.128128 205.110169 
L 281.488955 214.787039 
L 281.669369 207.940355 
L 281.759576 212.504811 
L 281.939989 202.006353 
L 282.120403 206.297178 
L 282.21061 203.466993 
L 282.300817 207.940355 
L 282.391024 207.757818 
L 282.571438 197.350454 
L 283.022472 212.230832 
L 283.202886 203.740971 
L 283.293093 205.658127 
L 283.473506 201.184765 
L 283.563713 201.64128 
L 283.744127 208.579406 
L 283.834334 204.745096 
L 283.924541 205.292706 
L 284.014748 215.9737 
L 284.104954 213.326399 
L 284.195161 203.923508 
L 284.375575 211.774664 
L 284.465782 206.753693 
L 284.646196 218.34737 
L 284.826609 209.583531 
L 284.916816 222.638195 
L 285.007023 220.72104 
L 285.09723 220.173083 
L 285.277644 208.214333 
L 285.458058 213.782914 
L 285.548264 212.504811 
L 285.728678 209.766068 
L 285.909092 221.26865 
L 286.089506 218.34737 
L 286.179713 220.447062 
L 286.360126 215.152111 
L 286.54054 218.712443 
L 286.630747 213.782914 
L 286.720954 214.604503 
L 286.901368 220.538504 
L 287.081781 219.442937 
L 287.352402 225.10296 
L 287.623023 215.700069 
L 287.713229 214.421966 
L 287.803436 215.243554 
L 287.893643 217.251803 
L 287.98385 213.600377 
L 288.074057 214.330524 
L 288.254471 227.385188 
L 288.434884 215.152111 
L 288.525091 218.621349 
L 288.705505 215.152111 
L 288.885919 229.484879 
L 289.156539 223.64232 
L 289.336953 226.381063 
L 289.517367 214.421966 
L 289.697781 221.542629 
L 289.787988 218.073392 
L 289.968401 225.833106 
L 290.148815 215.608627 
L 290.329229 228.206776 
L 290.509643 219.351495 
L 290.599849 219.534031 
L 290.690056 216.612752 
L 290.960677 229.302343 
L 291.321504 215.061017 
L 291.592125 227.385188 
L 291.772539 215.700069 
L 291.862746 215.9737 
L 291.952953 223.368342 
L 292.043159 222.72929 
L 292.133366 218.621349 
L 292.223573 220.355967 
L 292.31378 220.081988 
L 292.403987 212.687347 
L 292.494194 212.869883 
L 292.674608 222.72929 
L 293.125642 196.620309 
L 293.215849 194.611711 
L 293.306056 194.88569 
L 293.486469 201.184765 
L 293.666883 206.753693 
L 293.75709 206.205736 
L 293.937504 216.612752 
L 294.117918 210.040046 
L 294.208124 214.878481 
L 294.388538 210.222583 
L 294.478745 212.869883 
L 294.659159 202.55431 
L 294.749366 203.10192 
L 294.839573 209.309552 
L 295.019986 201.732374 
L 295.2004 208.579406 
L 295.290607 202.919383 
L 295.380814 204.106044 
L 295.471021 207.301303 
L 295.561228 205.384148 
L 295.651434 206.023199 
L 295.741641 207.940355 
L 295.922055 204.106044 
L 296.192676 210.952729 
L 296.282883 211.409244 
L 296.463296 203.466993 
L 296.64371 214.239429 
L 296.824124 209.218458 
L 296.914331 208.579406 
L 297.004538 201.184765 
L 297.094744 201.732374 
L 297.184951 207.757818 
L 297.275158 207.666376 
L 297.365365 207.209861 
L 297.455572 206.023199 
L 297.545779 201.276207 
L 297.635986 201.823816 
L 297.726193 205.384148 
L 298.08702 193.333955 
L 298.267434 199.541588 
L 298.357641 197.715875 
L 298.538055 206.023199 
L 298.718468 203.375899 
L 298.898882 212.048296 
L 298.989089 210.770192 
L 299.169503 206.479714 
L 299.25971 206.388272 
L 299.349916 204.01495 
L 299.53033 212.048296 
L 299.620537 208.214333 
L 299.800951 214.878481 
L 299.981365 202.736847 
L 300.161778 217.251803 
L 300.251985 216.612752 
L 300.432399 217.434688 
L 300.612813 206.114642 
L 300.70302 206.297178 
L 300.883433 209.218458 
L 300.97364 208.761942 
L 301.063847 209.583531 
L 301.244261 216.978173 
L 301.334468 218.895327 
L 301.424675 216.886731 
L 301.514881 210.496562 
L 301.605088 212.048296 
L 301.695295 215.882605 
L 301.875709 209.400994 
L 302.056123 219.990546 
L 302.236536 209.492089 
L 302.326743 210.679098 
L 302.41695 206.753693 
L 302.507157 207.48384 
L 302.597364 214.878481 
L 302.687571 214.239429 
L 302.867985 208.579406 
L 303.138605 216.704194 
L 303.319019 209.035921 
L 303.499433 216.704194 
L 303.770053 209.400994 
L 303.86026 209.766068 
L 304.040674 220.081988 
L 304.311295 214.330524 
L 304.401501 209.309552 
L 304.672122 223.277247 
L 304.852536 210.496562 
L 304.942743 210.587655 
L 305.123156 205.658127 
L 305.30357 210.770192 
L 305.393777 202.371426 
L 305.483984 203.832066 
L 305.574191 215.608627 
L 305.664398 214.969575 
L 305.754605 201.367301 
L 305.844811 201.915258 
L 306.025225 216.795636 
L 306.205639 202.736847 
L 306.47626 217.343245 
L 306.656673 214.330524 
L 306.837087 216.521657 
L 307.017501 213.05242 
L 307.107708 213.235304 
L 307.288121 211.683222 
L 307.378328 211.865759 
L 307.468535 210.040046 
L 307.648949 214.239429 
L 307.739156 210.679098 
L 307.91957 221.360092 
L 308.099983 203.466993 
L 308.19019 204.01495 
L 308.370604 208.031449 
L 308.641225 205.749221 
L 309.002052 214.969575 
L 309.182466 189.499646 
L 309.36288 219.716916 
L 309.453086 221.633723 
L 309.543293 221.177556 
L 309.723707 216.339121 
L 309.904121 225.742012 
L 310.174741 202.827941 
L 310.445362 218.438812 
L 310.535569 212.961326 
L 310.625776 213.235304 
L 310.80619 211.774664 
L 310.896396 213.965451 
L 310.986603 212.322274 
L 311.07681 206.388272 
L 311.167017 209.85751 
L 311.347431 219.351495 
L 311.708258 205.749221 
L 311.978879 216.156584 
L 312.069086 216.704194 
L 312.339706 221.816607 
L 312.429913 221.177556 
L 312.52012 223.003268 
L 312.610327 227.567725 
L 312.700534 227.47663 
L 312.880948 222.272774 
L 313.061361 219.534031 
L 313.241775 224.55535 
L 313.422189 216.247679 
L 313.512396 218.256275 
L 313.69281 214.330524 
L 313.96343 222.18168 
L 314.143844 213.691472 
L 314.234051 215.243554 
L 314.324258 218.256275 
L 314.594878 212.322274 
L 314.685085 213.600377 
L 314.865499 221.907701 
L 314.955706 215.42609 
L 315.045913 216.065142 
L 315.226327 222.638195 
L 315.40674 220.72104 
L 315.587154 213.508935 
L 315.767568 219.168958 
L 315.857775 219.351495 
L 315.947982 221.360092 
L 316.218602 214.147987 
L 316.399016 222.455659 
L 316.669637 212.687347 
L 316.85005 211.957201 
L 317.030464 222.272774 
L 317.120671 220.264525 
L 317.301085 208.122891 
L 317.481498 212.322274 
L 317.571705 211.683222 
L 317.661912 208.944479 
L 317.752119 209.583531 
L 318.02274 206.479714 
L 318.112947 208.39687 
L 318.203153 208.031449 
L 318.29336 208.761942 
L 318.383567 211.59178 
L 318.473774 218.529907 
L 318.563981 217.890855 
L 318.744395 206.844788 
L 318.834602 208.39687 
L 319.195429 181.465952 
L 319.285636 184.022159 
L 319.46605 194.88569 
L 319.556257 195.707278 
L 319.646463 200.910786 
L 319.826877 193.059977 
L 320.007291 188.312984 
L 320.097498 190.595212 
L 320.187705 190.321234 
L 320.277912 190.047255 
L 320.458325 211.318149 
L 320.638739 197.898412 
L 320.728946 197.989506 
L 320.819153 195.159668 
L 320.90936 195.433647 
L 320.999567 201.184765 
L 321.17998 196.255236 
L 321.360394 200.454618 
L 321.540808 209.674973 
L 321.721222 207.209861 
L 321.811428 210.13114 
L 321.901635 207.940355 
L 321.991842 210.952729 
L 322.082049 219.077864 
L 322.172256 218.621349 
L 322.262463 214.878481 
L 322.35267 218.073392 
L 322.62329 206.297178 
L 322.713497 207.666376 
L 322.803704 208.761942 
L 323.074325 213.143862 
L 323.254738 203.10192 
L 323.344945 206.114642 
L 323.615566 223.003268 
L 323.79598 213.326399 
L 323.976393 218.895327 
L 324.0666 218.438812 
L 324.156807 213.05242 
L 324.337221 218.621349 
L 324.427428 216.886731 
L 324.517635 216.156584 
L 324.698048 234.231872 
L 325.058876 215.243554 
L 325.23929 221.086114 
L 325.419703 219.168958 
L 325.50991 250.299258 
L 325.600117 249.47767 
L 325.780531 229.849953 
L 325.870738 231.85855 
L 325.960945 237.609667 
L 326.141358 232.953769 
L 326.231565 235.418881 
L 326.321772 232.588696 
L 326.411979 235.418881 
L 326.502186 242.448102 
L 326.592393 240.987462 
L 326.6826 240.34841 
L 326.772807 245.734455 
L 326.95322 232.041086 
L 327.133634 244.000184 
L 327.314048 230.671541 
L 327.494462 243.087154 
L 327.674875 235.236345 
L 327.855289 245.460824 
L 328.12591 233.958241 
L 328.306323 226.746136 
L 328.486737 230.762983 
L 328.667151 227.385188 
L 328.757358 228.663291 
L 328.847565 233.31919 
L 328.937772 232.314718 
L 329.118185 216.886731 
L 329.208392 216.978173 
L 329.388806 223.003268 
L 329.479013 221.633723 
L 329.56922 217.708318 
L 329.659427 220.081988 
L 329.749633 219.625473 
L 329.83984 219.534031 
L 329.930047 218.712443 
L 330.110461 210.496562 
L 330.290875 216.430215 
L 330.381082 212.961326 
L 330.561495 220.995019 
L 330.741909 214.695944 
L 330.922323 228.571849 
L 331.28315 209.492089 
L 331.463564 218.164834 
L 331.553771 221.907701 
L 331.824392 214.695944 
L 331.914598 207.209861 
L 332.185219 221.542629 
L 332.275426 219.625473 
L 332.45584 209.492089 
L 332.546047 217.617224 
L 332.636254 217.069267 
L 332.72646 210.040046 
L 332.906874 213.691472 
L 333.087288 198.446022 
L 333.267702 203.649529 
L 333.357909 203.832066 
L 333.718736 184.022159 
L 333.808943 175.25832 
L 333.989357 180.918343 
L 334.530598 207.118766 
L 334.711012 201.732374 
L 334.801219 205.840663 
L 334.891425 205.566685 
L 335.162046 196.711403 
L 335.252253 195.433647 
L 335.34246 196.163794 
L 335.61308 206.388272 
L 335.793494 209.127016 
L 335.883701 204.106044 
L 335.973908 206.570809 
L 336.154322 214.787039 
L 336.244529 217.434688 
L 336.334735 223.550878 
L 336.424942 220.173083 
L 336.515149 209.583531 
L 336.605356 213.874356 
L 336.78577 229.393437 
L 336.875977 228.845828 
L 337.05639 219.534031 
L 337.236804 235.783954 
L 337.687839 216.704194 
L 337.958459 227.47663 
L 338.138873 216.247679 
L 338.22908 217.617224 
L 338.319287 225.285497 
L 338.409494 222.455659 
L 338.680114 208.122891 
L 338.860528 205.47559 
L 339.221355 214.969575 
L 339.311562 214.239429 
L 339.401769 216.156584 
L 339.491976 221.633723 
L 339.582183 221.360092 
L 339.67239 217.434688 
L 339.852804 222.546753 
L 339.94301 221.086114 
L 340.033217 228.02424 
L 340.123424 227.111209 
L 340.213631 223.094363 
L 340.394045 239.344286 
L 340.574459 218.895327 
L 340.845079 230.489004 
L 341.025493 235.418881 
L 341.205907 223.368342 
L 341.296114 223.64232 
L 341.566734 228.206776 
L 341.656941 228.115682 
L 341.747148 223.733414 
L 341.927562 229.302343 
L 342.107975 217.708318 
L 342.288389 219.534031 
L 342.378596 215.152111 
L 342.468803 217.160709 
L 342.649217 227.47663 
L 342.739424 219.899452 
L 342.82963 220.081988 
L 342.919837 222.638195 
L 343.010044 218.712443 
L 343.100251 219.260401 
L 343.190458 230.671541 
L 343.280665 230.306468 
L 343.461079 219.077864 
L 343.641492 225.376938 
L 343.731699 225.376938 
L 343.912113 219.990546 
L 344.00232 222.090238 
L 344.27294 216.247679 
L 344.453354 210.222583 
L 344.633768 227.47663 
L 344.723975 220.173083 
L 344.814182 221.451186 
L 344.904389 223.64232 
L 344.994595 214.969575 
L 345.084802 220.355967 
L 345.175009 233.227747 
L 345.44563 213.326399 
L 345.626044 191.964411 
L 345.806457 214.787039 
L 345.896664 214.695944 
L 345.986871 208.214333 
L 346.167285 228.93727 
L 346.257492 227.567725 
L 346.437905 214.51306 
L 346.618319 220.355967 
L 346.798733 206.93623 
L 346.979147 218.986422 
L 347.069354 217.160709 
L 347.249767 207.48384 
L 347.430181 212.139738 
L 347.520388 210.222583 
L 347.881215 204.745096 
L 348.061629 195.342205 
L 348.151836 205.840663 
L 348.242043 204.745096 
L 348.33225 195.616184 
L 348.512664 213.143862 
L 348.693077 177.63199 
L 348.783284 178.727209 
L 348.873491 179.183724 
L 349.053905 186.121851 
L 349.234319 177.358011 
L 349.504939 187.308512 
L 349.595146 188.312984 
L 349.685353 181.557394 
L 349.77556 164.851304 
L 349.955974 226.5636 
L 350.136387 229.393437 
L 350.226594 226.198527 
L 350.316801 227.293746 
L 350.497215 241.717956 
L 350.767836 215.700069 
L 350.858042 218.073392 
L 351.038456 228.298219 
L 351.128663 223.094363 
L 351.21887 223.368342 
L 351.309077 223.003268 
L 351.399284 224.737887 
L 351.489491 230.580447 
L 351.579697 228.845828 
L 351.669904 221.542629 
L 351.760111 221.999144 
L 351.940525 237.062058 
L 352.030732 236.879521 
L 352.301352 217.79976 
L 352.571973 232.041086 
L 352.752387 228.480755 
L 352.932801 237.153152 
L 353.113214 226.289621 
L 353.293628 245.278287 
L 353.564249 228.115682 
L 353.654456 229.941395 
L 353.834869 240.074431 
L 354.015283 229.393437 
L 354.10549 233.59282 
L 354.285904 224.372466 
L 354.556524 241.991587 
L 354.736938 234.962366 
L 354.827145 239.800801 
L 354.917352 237.883646 
L 355.007559 229.667416 
L 355.097766 230.489004 
L 355.458593 246.099876 
L 355.5488 237.883646 
L 355.639007 238.979213 
L 355.729214 244.000184 
L 355.819421 242.904617 
L 355.909627 241.261441 
L 355.999834 243.634763 
L 356.180248 236.057932 
L 356.360662 240.530947 
L 356.450869 240.713483 
L 356.541076 242.813175 
L 356.631282 239.43538 
L 356.811696 228.02424 
L 356.99211 236.788079 
L 357.262731 224.828981 
L 357.352937 221.725165 
L 357.443144 223.368342 
L 357.623558 230.945519 
L 357.713765 226.107085 
L 357.894179 208.305427 
L 358.074592 219.899452 
L 358.164799 218.712443 
L 358.345213 211.683222 
L 358.525627 212.869883 
L 358.615834 211.409244 
L 358.796247 212.596253 
L 358.886454 213.05242 
L 359.066868 220.081988 
L 359.157075 217.982297 
L 359.247282 211.59178 
L 359.337489 212.504811 
L 359.427696 212.322274 
L 359.788523 185.847872 
L 360.059144 201.184765 
L 360.149351 199.267609 
L 360.239557 205.201611 
L 360.329764 204.471117 
L 360.600385 196.894287 
L 360.690592 196.985381 
L 360.780799 196.528867 
L 360.871006 195.250763 
L 361.051419 218.438812 
L 361.32204 198.628558 
L 361.502454 201.732374 
L 361.592661 206.753693 
L 361.773074 203.466993 
L 361.863281 204.288581 
L 361.953488 203.649529 
L 362.133902 215.700069 
L 362.314316 208.579406 
L 362.404522 214.695944 
L 362.494729 214.147987 
L 362.584936 215.700069 
L 362.675143 221.360092 
L 362.76535 220.812135 
L 362.855557 218.712443 
L 362.945764 220.355967 
L 363.216384 212.322274 
L 363.306591 210.679098 
L 363.396798 212.504811 
L 363.487005 217.251803 
L 363.577212 216.156584 
L 363.667419 216.339121 
L 363.847832 209.948604 
L 363.938039 210.861634 
L 364.118453 228.480755 
L 364.20866 228.115682 
L 364.389074 217.708318 
L 364.659694 221.999144 
L 364.749901 219.351495 
L 364.930315 222.820732 
L 365.110729 220.355967 
L 365.291142 234.688388 
L 365.561763 227.202651 
L 365.65197 227.385188 
L 365.832384 239.983337 
L 366.012797 232.862675 
L 366.103004 244.456351 
L 366.193211 243.817647 
L 366.373625 223.277247 
L 366.463832 226.928673 
L 366.554039 231.036962 
L 366.734452 228.93727 
L 366.824659 232.223623 
L 366.914866 230.123931 
L 367.005073 232.041086 
L 367.09528 236.970616 
L 367.185487 236.788079 
L 367.275694 236.970616 
L 367.365901 239.526822 
L 367.546314 228.571849 
L 367.726728 237.062058 
L 367.907142 228.115682 
L 368.087556 238.431255 
L 368.267969 231.676013 
L 368.448383 240.439852 
L 368.899418 226.107085 
L 369.079831 229.484879 
L 369.260245 222.272774 
L 369.440659 234.323314 
L 369.530866 233.501726 
L 369.711279 217.069267 
L 369.801486 214.695944 
L 369.9819 228.663291 
L 370.072107 227.659167 
L 370.162314 223.368342 
L 370.252521 225.194055 
L 370.432934 222.638195 
L 370.523141 224.737887 
L 370.703555 213.05242 
L 370.883969 221.26865 
L 370.974176 216.886731 
L 371.154589 223.824857 
L 371.335003 219.990546 
L 371.515417 231.584571 
L 371.876244 216.247679 
L 372.146865 228.663291 
L 372.237072 226.381063 
L 372.327279 224.55535 
L 372.507693 211.500686 
L 372.778313 227.385188 
L 373.048934 214.330524 
L 373.229348 221.725165 
L 373.319554 219.077864 
L 373.409761 221.177556 
L 373.499968 218.34737 
L 373.590175 207.575281 
L 373.680382 209.583531 
L 373.770589 214.421966 
L 374.041209 207.209861 
L 374.131416 203.740971 
L 374.221623 223.916299 
L 374.402037 206.388272 
L 374.492244 206.844788 
L 374.672658 214.51306 
L 374.853071 224.281372 
L 374.943278 221.999144 
L 375.123692 235.327439 
L 375.304106 226.289621 
L 375.484519 232.680138 
L 375.574726 227.750261 
L 375.664933 228.845828 
L 375.845347 221.633723 
L 375.935554 221.999144 
L 376.025761 229.393437 
L 376.115968 228.298219 
L 376.206174 226.198527 
L 376.386588 231.85855 
L 376.476795 223.733414 
L 376.567002 225.011518 
L 376.747416 235.966491 
L 376.837623 237.883646 
L 376.927829 242.813175 
L 377.018036 240.987462 
L 377.19845 227.932798 
L 377.378864 249.294786 
L 377.469071 247.012558 
L 377.649484 236.696984 
L 377.829898 248.838619 
L 378.190726 232.771232 
L 378.280933 234.962366 
L 378.461346 241.535072 
L 378.551553 242.904617 
L 378.731967 231.676013 
L 378.822174 232.40616 
L 378.912381 240.34841 
L 379.092794 231.493129 
L 379.363415 217.890855 
L 379.724243 230.580447 
L 379.814449 229.576321 
L 379.904656 228.571849 
L 380.08507 235.875049 
L 380.175277 234.231872 
L 380.265484 230.032489 
L 380.355691 230.671541 
L 380.626311 239.709359 
L 380.806725 233.136653 
L 380.987139 245.186845 
L 381.167553 228.115682 
L 381.347966 241.535072 
L 381.438173 239.891895 
L 381.618587 245.186845 
L 381.799001 232.041086 
L 381.889208 232.314718 
L 381.979414 232.132181 
L 382.159828 235.601418 
L 382.250035 233.227747 
L 382.520656 245.186845 
L 382.701069 232.862675 
L 382.791276 233.775357 
L 382.881483 234.231872 
L 382.97169 228.93727 
L 383.061897 230.306468 
L 383.242311 240.89602 
L 383.422724 230.489004 
L 383.512931 232.680138 
L 383.693345 230.671541 
L 383.873759 240.89602 
L 384.054173 227.659167 
L 384.234586 233.684262 
L 384.505207 229.484879 
L 384.595414 230.032489 
L 384.775828 227.567725 
L 385.046448 218.621349 
L 385.226862 234.049336 
L 385.317069 228.754386 
L 385.407276 230.032489 
L 385.497483 229.758858 
L 385.58769 223.094363 
L 385.768103 242.174123 
L 385.948517 217.708318 
L 386.038724 218.256275 
L 386.128931 216.978173 
L 386.309345 192.785998 
L 386.399551 195.159668 
L 386.489758 191.964411 
L 386.579965 178.818652 
L 386.670172 180.918343 
L 386.760379 190.412676 
L 386.850586 189.317109 
L 387.031 170.511327 
L 387.211413 179.548797 
L 387.391827 169.689391 
L 387.662448 187.034881 
L 387.842861 176.71896 
L 388.023275 189.317109 
L 388.293896 183.74818 
L 388.47431 187.125976 
L 388.654723 182.01391 
L 388.835137 194.611711 
L 388.925344 186.030409 
L 389.105758 205.292706 
L 389.286171 171.971967 
L 389.376378 172.702113 
L 389.646999 180.005313 
L 389.827413 177.997063 
L 390.18824 195.159668 
L 390.368654 170.145906 
L 390.458861 234.414409 
L 390.549068 232.132181 
L 390.729481 235.875049 
L 390.909895 229.484879 
L 391.090309 244.182721 
L 391.36093 218.164834 
L 391.451136 221.086114 
L 391.63155 229.484879 
L 391.721757 225.559475 
L 391.811964 226.654694 
L 391.992378 225.65057 
L 392.082585 229.941395 
L 392.172791 229.210901 
L 392.262998 221.816607 
L 392.353205 223.003268 
L 392.533619 235.692512 
L 392.623826 236.605542 
L 392.80424 224.55535 
L 392.894446 219.534031 
L 393.07486 233.866799 
L 393.255274 231.219498 
L 393.345481 231.402034 
L 393.435688 232.041086 
L 393.525895 235.783954 
L 393.706308 229.941395 
L 393.886722 243.817647 
L 394.067136 233.045211 
L 394.157343 227.659167 
L 394.24755 229.119806 
L 394.427963 241.352535 
L 394.608377 229.393437 
L 394.698584 233.958241 
L 394.878998 223.459784 
L 395.149618 241.352535 
L 395.330032 232.40616 
L 395.420239 238.979213 
L 395.510446 238.340161 
L 395.600653 229.393437 
L 395.69086 229.941395 
L 396.051687 244.091278 
L 396.141894 233.866799 
L 396.232101 234.414409 
L 396.322308 241.626514 
L 396.412515 241.352535 
L 396.683135 230.945519 
L 396.773342 230.39791 
L 397.043963 239.526822 
L 397.13417 239.800801 
L 397.40479 224.55535 
L 397.585204 235.966491 
L 397.855825 224.007393 
L 398.036238 222.18168 
L 398.216652 230.671541 
L 398.306859 226.289621 
L 398.487273 211.044171 
L 398.487273 211.044171 
" clip-path="url(#p7e3102d2fe)" style="fill: none; stroke: #1f77b4; stroke-width: 1.5; stroke-linecap: square"/>
   </g>
   <g id="patch_3">
    <path d="M 57.6 307.584 
L 57.6 41.472 
" style="fill: none; stroke: #000000; stroke-width: 0.8; stroke-linejoin: miter; stroke-linecap: square"/>
   </g>
   <g id="patch_4">
    <path d="M 414.72 307.584 
L 414.72 41.472 
" style="fill: none; stroke: #000000; stroke-width: 0.8; stroke-linejoin: miter; stroke-linecap: square"/>
   </g>
   <g id="patch_5">
    <path d="M 57.6 307.584 
L 414.72 307.584 
" style="fill: none; stroke: #000000; stroke-width: 0.8; stroke-linejoin: miter; stroke-linecap: square"/>
   </g>
   <g id="patch_6">
    <path d="M 57.6 41.472 
L 414.72 41.472 
" style="fill: none; stroke: #000000; stroke-width: 0.8; stroke-linejoin: miter; stroke-linecap: square"/>
   </g>
   <g id="legend_1">
    <g id="patch_7">
     <path d="M 354.074688 64.150125 
L 407.72 64.150125 
Q 409.72 64.150125 409.72 62.150125 
L 409.72 48.472 
Q 409.72 46.472 407.72 46.472 
L 354.074688 46.472 
Q 352.074688 46.472 352.074688 48.472 
L 352.074688 62.150125 
Q 352.074688 64.150125 354.074688 64.150125 
z
" style="fill: #ffffff; opacity: 0.8; stroke: #cccccc; stroke-linejoin: miter"/>
    </g>
    <g id="line2d_17">
     <path d="M 356.074688 54.570438 
L 366.074688 54.570438 
L 376.074688 54.570438 
" style="fill: none; stroke: #1f77b4; stroke-width: 1.5; stroke-linecap: square"/>
    </g>
    <g id="text_16">
     <!-- set1 -->
     <g transform="translate(384.074688 58.070438)scale(0.1 -0.1)">
      <defs>
       <path id="DejaVuSans-73" d="M 2834 3397 
L 2834 2853 
Q 2591 2978 2328 3040 
Q 2066 3103 1784 3103 
Q 1356 3103 1142 2972 
Q 928 2841 928 2578 
Q 928 2378 1081 2264 
Q 1234 2150 1697 2047 
L 1894 2003 
Q 2506 1872 2764 1633 
Q 3022 1394 3022 966 
Q 3022 478 2636 193 
Q 2250 -91 1575 -91 
Q 1294 -91 989 -36 
Q 684 19 347 128 
L 347 722 
Q 666 556 975 473 
Q 1284 391 1588 391 
Q 1994 391 2212 530 
Q 2431 669 2431 922 
Q 2431 1156 2273 1281 
Q 2116 1406 1581 1522 
L 1381 1569 
Q 847 1681 609 1914 
Q 372 2147 372 2553 
Q 372 3047 722 3315 
Q 1072 3584 1716 3584 
Q 2034 3584 2315 3537 
Q 2597 3491 2834 3397 
z
" transform="scale(0.015625)"/>
       <path id="DejaVuSans-65" d="M 3597 1894 
L 3597 1613 
L 953 1613 
Q 991 1019 1311 708 
Q 1631 397 2203 397 
Q 2534 397 2845 478 
Q 3156 559 3463 722 
L 3463 178 
Q 3153 47 2828 -22 
Q 2503 -91 2169 -91 
Q 1331 -91 842 396 
Q 353 884 353 1716 
Q 353 2575 817 3079 
Q 1281 3584 2069 3584 
Q 2775 3584 3186 3129 
Q 3597 2675 3597 1894 
z
M 3022 2063 
Q 3016 2534 2758 2815 
Q 2500 3097 2075 3097 
Q 1594 3097 1305 2825 
Q 1016 2553 972 2059 
L 3022 2063 
z
" transform="scale(0.015625)"/>
       <path id="DejaVuSans-74" d="M 1172 4494 
L 1172 3500 
L 2356 3500 
L 2356 3053 
L 1172 3053 
L 1172 1153 
Q 1172 725 1289 603 
Q 1406 481 1766 481 
L 2356 481 
L 2356 0 
L 1766 0 
Q 1100 0 847 248 
Q 594 497 594 1153 
L 594 3053 
L 172 3053 
L 172 3500 
L 594 3500 
L 594 4494 
L 1172 4494 
z
" transform="scale(0.015625)"/>
      </defs>
      <use xlink:href="#DejaVuSans-73"/>
      <use xlink:href="#DejaVuSans-65" x="52.099609"/>
      <use xlink:href="#DejaVuSans-74" x="113.623047"/>
      <use xlink:href="#DejaVuSans-31" x="152.832031"/>
     </g>
    </g>
   </g>
  </g>
 </g>
 <defs>
  <clipPath id="p7e3102d2fe">
   <rect x="57.6" y="41.472" width="357.12" height="266.112"/>
  </clipPath>
 </defs>
</svg>
