<?xml version="1.0" encoding="utf-8" standalone="no"?>
<!DOCTYPE svg PUBLIC "-//W3C//DTD SVG 1.1//EN"
  "http://www.w3.org/Graphics/SVG/1.1/DTD/svg11.dtd">
<svg xmlns:xlink="http://www.w3.org/1999/xlink" width="460.8pt" height="345.6pt" viewBox="0 0 460.8 345.6" xmlns="http://www.w3.org/2000/svg" version="1.1">
 <metadata>
  <rdf:RDF xmlns:dc="http://purl.org/dc/elements/1.1/" xmlns:cc="http://creativecommons.org/ns#" xmlns:rdf="http://www.w3.org/1999/02/22-rdf-syntax-ns#">
   <cc:Work>
    <dc:type rdf:resource="http://purl.org/dc/dcmitype/StillImage"/>
    <dc:date>2022-08-11T15:18:02.049100</dc:date>
    <dc:format>image/svg+xml</dc:format>
    <dc:creator>
     <cc:Agent>
      <dc:title>Matplotlib v3.5.2, https://matplotlib.org/</dc:title>
     </cc:Agent>
    </dc:creator>
   </cc:Work>
  </rdf:RDF>
 </metadata>
 <defs>
  <style type="text/css">*{stroke-linejoin: round; stroke-linecap: butt}</style>
 </defs>
 <g id="figure_1">
  <g id="patch_1">
   <path d="M 0 345.6 
L 460.8 345.6 
L 460.8 0 
L 0 0 
z
" style="fill: #ffffff"/>
  </g>
  <g id="axes_1">
   <g id="patch_2">
    <path d="M 57.6 307.584 
L 414.72 307.584 
L 414.72 41.472 
L 57.6 41.472 
z
" style="fill: #ffffff"/>
   </g>
   <g id="matplotlib.axis_1">
    <g id="xtick_1">
     <g id="line2d_1">
      <defs>
       <path id="m6d1762f893" d="M 0 0 
L 0 3.5 
" style="stroke: #000000; stroke-width: 0.8"/>
      </defs>
      <g>
       <use xlink:href="#m6d1762f893" x="73.832727" y="307.584" style="stroke: #000000; stroke-width: 0.8"/>
      </g>
     </g>
     <g id="text_1">
      <!-- 0 -->
      <g transform="translate(70.651477 322.182437)scale(0.1 -0.1)">
       <defs>
        <path id="DejaVuSans-30" d="M 2034 4250 
Q 1547 4250 1301 3770 
Q 1056 3291 1056 2328 
Q 1056 1369 1301 889 
Q 1547 409 2034 409 
Q 2525 409 2770 889 
Q 3016 1369 3016 2328 
Q 3016 3291 2770 3770 
Q 2525 4250 2034 4250 
z
M 2034 4750 
Q 2819 4750 3233 4129 
Q 3647 3509 3647 2328 
Q 3647 1150 3233 529 
Q 2819 -91 2034 -91 
Q 1250 -91 836 529 
Q 422 1150 422 2328 
Q 422 3509 836 4129 
Q 1250 4750 2034 4750 
z
" transform="scale(0.015625)"/>
       </defs>
       <use xlink:href="#DejaVuSans-30"/>
      </g>
     </g>
    </g>
    <g id="xtick_2">
     <g id="line2d_2">
      <g>
       <use xlink:href="#m6d1762f893" x="118.936165" y="307.584" style="stroke: #000000; stroke-width: 0.8"/>
      </g>
     </g>
     <g id="text_2">
      <!-- 500 -->
      <g transform="translate(109.392415 322.182437)scale(0.1 -0.1)">
       <defs>
        <path id="DejaVuSans-35" d="M 691 4666 
L 3169 4666 
L 3169 4134 
L 1269 4134 
L 1269 2991 
Q 1406 3038 1543 3061 
Q 1681 3084 1819 3084 
Q 2600 3084 3056 2656 
Q 3513 2228 3513 1497 
Q 3513 744 3044 326 
Q 2575 -91 1722 -91 
Q 1428 -91 1123 -41 
Q 819 9 494 109 
L 494 744 
Q 775 591 1075 516 
Q 1375 441 1709 441 
Q 2250 441 2565 725 
Q 2881 1009 2881 1497 
Q 2881 1984 2565 2268 
Q 2250 2553 1709 2553 
Q 1456 2553 1204 2497 
Q 953 2441 691 2322 
L 691 4666 
z
" transform="scale(0.015625)"/>
       </defs>
       <use xlink:href="#DejaVuSans-35"/>
       <use xlink:href="#DejaVuSans-30" x="63.623047"/>
       <use xlink:href="#DejaVuSans-30" x="127.246094"/>
      </g>
     </g>
    </g>
    <g id="xtick_3">
     <g id="line2d_3">
      <g>
       <use xlink:href="#m6d1762f893" x="164.039603" y="307.584" style="stroke: #000000; stroke-width: 0.8"/>
      </g>
     </g>
     <g id="text_3">
      <!-- 1000 -->
      <g transform="translate(151.314603 322.182437)scale(0.1 -0.1)">
       <defs>
        <path id="DejaVuSans-31" d="M 794 531 
L 1825 531 
L 1825 4091 
L 703 3866 
L 703 4441 
L 1819 4666 
L 2450 4666 
L 2450 531 
L 3481 531 
L 3481 0 
L 794 0 
L 794 531 
z
" transform="scale(0.015625)"/>
       </defs>
       <use xlink:href="#DejaVuSans-31"/>
       <use xlink:href="#DejaVuSans-30" x="63.623047"/>
       <use xlink:href="#DejaVuSans-30" x="127.246094"/>
       <use xlink:href="#DejaVuSans-30" x="190.869141"/>
      </g>
     </g>
    </g>
    <g id="xtick_4">
     <g id="line2d_4">
      <g>
       <use xlink:href="#m6d1762f893" x="209.143041" y="307.584" style="stroke: #000000; stroke-width: 0.8"/>
      </g>
     </g>
     <g id="text_4">
      <!-- 1500 -->
      <g transform="translate(196.418041 322.182437)scale(0.1 -0.1)">
       <use xlink:href="#DejaVuSans-31"/>
       <use xlink:href="#DejaVuSans-35" x="63.623047"/>
       <use xlink:href="#DejaVuSans-30" x="127.246094"/>
       <use xlink:href="#DejaVuSans-30" x="190.869141"/>
      </g>
     </g>
    </g>
    <g id="xtick_5">
     <g id="line2d_5">
      <g>
       <use xlink:href="#m6d1762f893" x="254.246479" y="307.584" style="stroke: #000000; stroke-width: 0.8"/>
      </g>
     </g>
     <g id="text_5">
      <!-- 2000 -->
      <g transform="translate(241.521479 322.182437)scale(0.1 -0.1)">
       <defs>
        <path id="DejaVuSans-32" d="M 1228 531 
L 3431 531 
L 3431 0 
L 469 0 
L 469 531 
Q 828 903 1448 1529 
Q 2069 2156 2228 2338 
Q 2531 2678 2651 2914 
Q 2772 3150 2772 3378 
Q 2772 3750 2511 3984 
Q 2250 4219 1831 4219 
Q 1534 4219 1204 4116 
Q 875 4013 500 3803 
L 500 4441 
Q 881 4594 1212 4672 
Q 1544 4750 1819 4750 
Q 2544 4750 2975 4387 
Q 3406 4025 3406 3419 
Q 3406 3131 3298 2873 
Q 3191 2616 2906 2266 
Q 2828 2175 2409 1742 
Q 1991 1309 1228 531 
z
" transform="scale(0.015625)"/>
       </defs>
       <use xlink:href="#DejaVuSans-32"/>
       <use xlink:href="#DejaVuSans-30" x="63.623047"/>
       <use xlink:href="#DejaVuSans-30" x="127.246094"/>
       <use xlink:href="#DejaVuSans-30" x="190.869141"/>
      </g>
     </g>
    </g>
    <g id="xtick_6">
     <g id="line2d_6">
      <g>
       <use xlink:href="#m6d1762f893" x="299.349916" y="307.584" style="stroke: #000000; stroke-width: 0.8"/>
      </g>
     </g>
     <g id="text_6">
      <!-- 2500 -->
      <g transform="translate(286.624916 322.182437)scale(0.1 -0.1)">
       <use xlink:href="#DejaVuSans-32"/>
       <use xlink:href="#DejaVuSans-35" x="63.623047"/>
       <use xlink:href="#DejaVuSans-30" x="127.246094"/>
       <use xlink:href="#DejaVuSans-30" x="190.869141"/>
      </g>
     </g>
    </g>
    <g id="xtick_7">
     <g id="line2d_7">
      <g>
       <use xlink:href="#m6d1762f893" x="344.453354" y="307.584" style="stroke: #000000; stroke-width: 0.8"/>
      </g>
     </g>
     <g id="text_7">
      <!-- 3000 -->
      <g transform="translate(331.728354 322.182437)scale(0.1 -0.1)">
       <defs>
        <path id="DejaVuSans-33" d="M 2597 2516 
Q 3050 2419 3304 2112 
Q 3559 1806 3559 1356 
Q 3559 666 3084 287 
Q 2609 -91 1734 -91 
Q 1441 -91 1130 -33 
Q 819 25 488 141 
L 488 750 
Q 750 597 1062 519 
Q 1375 441 1716 441 
Q 2309 441 2620 675 
Q 2931 909 2931 1356 
Q 2931 1769 2642 2001 
Q 2353 2234 1838 2234 
L 1294 2234 
L 1294 2753 
L 1863 2753 
Q 2328 2753 2575 2939 
Q 2822 3125 2822 3475 
Q 2822 3834 2567 4026 
Q 2313 4219 1838 4219 
Q 1578 4219 1281 4162 
Q 984 4106 628 3988 
L 628 4550 
Q 988 4650 1302 4700 
Q 1616 4750 1894 4750 
Q 2613 4750 3031 4423 
Q 3450 4097 3450 3541 
Q 3450 3153 3228 2886 
Q 3006 2619 2597 2516 
z
" transform="scale(0.015625)"/>
       </defs>
       <use xlink:href="#DejaVuSans-33"/>
       <use xlink:href="#DejaVuSans-30" x="63.623047"/>
       <use xlink:href="#DejaVuSans-30" x="127.246094"/>
       <use xlink:href="#DejaVuSans-30" x="190.869141"/>
      </g>
     </g>
    </g>
    <g id="xtick_8">
     <g id="line2d_8">
      <g>
       <use xlink:href="#m6d1762f893" x="389.556792" y="307.584" style="stroke: #000000; stroke-width: 0.8"/>
      </g>
     </g>
     <g id="text_8">
      <!-- 3500 -->
      <g transform="translate(376.831792 322.182437)scale(0.1 -0.1)">
       <use xlink:href="#DejaVuSans-33"/>
       <use xlink:href="#DejaVuSans-35" x="63.623047"/>
       <use xlink:href="#DejaVuSans-30" x="127.246094"/>
       <use xlink:href="#DejaVuSans-30" x="190.869141"/>
      </g>
     </g>
    </g>
   </g>
   <g id="matplotlib.axis_2">
    <g id="ytick_1">
     <g id="line2d_9">
      <defs>
       <path id="mf8cb12a60b" d="M 0 0 
L -3.5 0 
" style="stroke: #000000; stroke-width: 0.8"/>
      </defs>
      <g>
       <use xlink:href="#mf8cb12a60b" x="57.6" y="281.219439" style="stroke: #000000; stroke-width: 0.8"/>
      </g>
     </g>
     <g id="text_9">
      <!-- 4080 -->
      <g transform="translate(25.15 285.018657)scale(0.1 -0.1)">
       <defs>
        <path id="DejaVuSans-34" d="M 2419 4116 
L 825 1625 
L 2419 1625 
L 2419 4116 
z
M 2253 4666 
L 3047 4666 
L 3047 1625 
L 3713 1625 
L 3713 1100 
L 3047 1100 
L 3047 0 
L 2419 0 
L 2419 1100 
L 313 1100 
L 313 1709 
L 2253 4666 
z
" transform="scale(0.015625)"/>
        <path id="DejaVuSans-38" d="M 2034 2216 
Q 1584 2216 1326 1975 
Q 1069 1734 1069 1313 
Q 1069 891 1326 650 
Q 1584 409 2034 409 
Q 2484 409 2743 651 
Q 3003 894 3003 1313 
Q 3003 1734 2745 1975 
Q 2488 2216 2034 2216 
z
M 1403 2484 
Q 997 2584 770 2862 
Q 544 3141 544 3541 
Q 544 4100 942 4425 
Q 1341 4750 2034 4750 
Q 2731 4750 3128 4425 
Q 3525 4100 3525 3541 
Q 3525 3141 3298 2862 
Q 3072 2584 2669 2484 
Q 3125 2378 3379 2068 
Q 3634 1759 3634 1313 
Q 3634 634 3220 271 
Q 2806 -91 2034 -91 
Q 1263 -91 848 271 
Q 434 634 434 1313 
Q 434 1759 690 2068 
Q 947 2378 1403 2484 
z
M 1172 3481 
Q 1172 3119 1398 2916 
Q 1625 2713 2034 2713 
Q 2441 2713 2670 2916 
Q 2900 3119 2900 3481 
Q 2900 3844 2670 4047 
Q 2441 4250 2034 4250 
Q 1625 4250 1398 4047 
Q 1172 3844 1172 3481 
z
" transform="scale(0.015625)"/>
       </defs>
       <use xlink:href="#DejaVuSans-34"/>
       <use xlink:href="#DejaVuSans-30" x="63.623047"/>
       <use xlink:href="#DejaVuSans-38" x="127.246094"/>
       <use xlink:href="#DejaVuSans-30" x="190.869141"/>
      </g>
     </g>
    </g>
    <g id="ytick_2">
     <g id="line2d_10">
      <g>
       <use xlink:href="#mf8cb12a60b" x="57.6" y="247.493299" style="stroke: #000000; stroke-width: 0.8"/>
      </g>
     </g>
     <g id="text_10">
      <!-- 4100 -->
      <g transform="translate(25.15 251.292518)scale(0.1 -0.1)">
       <use xlink:href="#DejaVuSans-34"/>
       <use xlink:href="#DejaVuSans-31" x="63.623047"/>
       <use xlink:href="#DejaVuSans-30" x="127.246094"/>
       <use xlink:href="#DejaVuSans-30" x="190.869141"/>
      </g>
     </g>
    </g>
    <g id="ytick_3">
     <g id="line2d_11">
      <g>
       <use xlink:href="#mf8cb12a60b" x="57.6" y="213.76716" style="stroke: #000000; stroke-width: 0.8"/>
      </g>
     </g>
     <g id="text_11">
      <!-- 4120 -->
      <g transform="translate(25.15 217.566379)scale(0.1 -0.1)">
       <use xlink:href="#DejaVuSans-34"/>
       <use xlink:href="#DejaVuSans-31" x="63.623047"/>
       <use xlink:href="#DejaVuSans-32" x="127.246094"/>
       <use xlink:href="#DejaVuSans-30" x="190.869141"/>
      </g>
     </g>
    </g>
    <g id="ytick_4">
     <g id="line2d_12">
      <g>
       <use xlink:href="#mf8cb12a60b" x="57.6" y="180.041021" style="stroke: #000000; stroke-width: 0.8"/>
      </g>
     </g>
     <g id="text_12">
      <!-- 4140 -->
      <g transform="translate(25.15 183.84024)scale(0.1 -0.1)">
       <use xlink:href="#DejaVuSans-34"/>
       <use xlink:href="#DejaVuSans-31" x="63.623047"/>
       <use xlink:href="#DejaVuSans-34" x="127.246094"/>
       <use xlink:href="#DejaVuSans-30" x="190.869141"/>
      </g>
     </g>
    </g>
    <g id="ytick_5">
     <g id="line2d_13">
      <g>
       <use xlink:href="#mf8cb12a60b" x="57.6" y="146.314882" style="stroke: #000000; stroke-width: 0.8"/>
      </g>
     </g>
     <g id="text_13">
      <!-- 4160 -->
      <g transform="translate(25.15 150.114101)scale(0.1 -0.1)">
       <defs>
        <path id="DejaVuSans-36" d="M 2113 2584 
Q 1688 2584 1439 2293 
Q 1191 2003 1191 1497 
Q 1191 994 1439 701 
Q 1688 409 2113 409 
Q 2538 409 2786 701 
Q 3034 994 3034 1497 
Q 3034 2003 2786 2293 
Q 2538 2584 2113 2584 
z
M 3366 4563 
L 3366 3988 
Q 3128 4100 2886 4159 
Q 2644 4219 2406 4219 
Q 1781 4219 1451 3797 
Q 1122 3375 1075 2522 
Q 1259 2794 1537 2939 
Q 1816 3084 2150 3084 
Q 2853 3084 3261 2657 
Q 3669 2231 3669 1497 
Q 3669 778 3244 343 
Q 2819 -91 2113 -91 
Q 1303 -91 875 529 
Q 447 1150 447 2328 
Q 447 3434 972 4092 
Q 1497 4750 2381 4750 
Q 2619 4750 2861 4703 
Q 3103 4656 3366 4563 
z
" transform="scale(0.015625)"/>
       </defs>
       <use xlink:href="#DejaVuSans-34"/>
       <use xlink:href="#DejaVuSans-31" x="63.623047"/>
       <use xlink:href="#DejaVuSans-36" x="127.246094"/>
       <use xlink:href="#DejaVuSans-30" x="190.869141"/>
      </g>
     </g>
    </g>
    <g id="ytick_6">
     <g id="line2d_14">
      <g>
       <use xlink:href="#mf8cb12a60b" x="57.6" y="112.588743" style="stroke: #000000; stroke-width: 0.8"/>
      </g>
     </g>
     <g id="text_14">
      <!-- 4180 -->
      <g transform="translate(25.15 116.387962)scale(0.1 -0.1)">
       <use xlink:href="#DejaVuSans-34"/>
       <use xlink:href="#DejaVuSans-31" x="63.623047"/>
       <use xlink:href="#DejaVuSans-38" x="127.246094"/>
       <use xlink:href="#DejaVuSans-30" x="190.869141"/>
      </g>
     </g>
    </g>
    <g id="ytick_7">
     <g id="line2d_15">
      <g>
       <use xlink:href="#mf8cb12a60b" x="57.6" y="78.862604" style="stroke: #000000; stroke-width: 0.8"/>
      </g>
     </g>
     <g id="text_15">
      <!-- 4200 -->
      <g transform="translate(25.15 82.661823)scale(0.1 -0.1)">
       <use xlink:href="#DejaVuSans-34"/>
       <use xlink:href="#DejaVuSans-32" x="63.623047"/>
       <use xlink:href="#DejaVuSans-30" x="127.246094"/>
       <use xlink:href="#DejaVuSans-30" x="190.869141"/>
      </g>
     </g>
    </g>
    <g id="ytick_8">
     <g id="line2d_16">
      <g>
       <use xlink:href="#mf8cb12a60b" x="57.6" y="45.136465" style="stroke: #000000; stroke-width: 0.8"/>
      </g>
     </g>
     <g id="text_16">
      <!-- 4220 -->
      <g transform="translate(25.15 48.935684)scale(0.1 -0.1)">
       <use xlink:href="#DejaVuSans-34"/>
       <use xlink:href="#DejaVuSans-32" x="63.623047"/>
       <use xlink:href="#DejaVuSans-32" x="127.246094"/>
       <use xlink:href="#DejaVuSans-30" x="190.869141"/>
      </g>
     </g>
    </g>
   </g>
   <g id="line2d_17">
    <path d="M 73.832727 169.66381 
L 74.013141 181.122135 
L 74.103348 178.959908 
L 74.283762 186.0946 
L 74.464175 174.203995 
L 74.644589 192.148177 
L 74.734796 189.553669 
L 74.91521 194.309583 
L 75.005417 181.770968 
L 75.095624 182.635529 
L 75.18583 188.904838 
L 75.366244 157.773207 
L 75.817279 212.037214 
L 75.997692 173.122881 
L 76.087899 180.689855 
L 76.35852 208.578144 
L 76.538934 185.445767 
L 76.62914 188.472556 
L 76.719347 194.526135 
L 76.809554 186.959161 
L 76.989968 193.01274 
L 77.080175 182.635529 
L 77.170382 183.500092 
L 77.260589 189.985951 
L 77.350795 186.742609 
L 77.531209 193.877301 
L 77.621416 186.0946 
L 77.711623 190.634784 
L 77.80183 203.822231 
L 77.982244 193.228468 
L 78.07245 193.228468 
L 78.162657 192.363907 
L 78.343071 201.660003 
L 78.523485 193.661572 
L 78.613692 197.336372 
L 79.064726 177.878793 
L 79.335347 198.849767 
L 79.425554 204.903344 
L 79.51576 201.011994 
L 79.605967 191.282793 
L 79.696174 197.336372 
L 79.786381 194.309583 
L 79.876588 179.824469 
L 79.966795 184.796933 
L 80.057002 199.93088 
L 80.147209 198.849767 
L 80.237415 185.230037 
L 80.327622 185.878048 
L 80.417829 199.066319 
L 80.508036 195.174144 
L 80.598243 166.420471 
L 80.68845 170.312644 
L 80.778657 199.714328 
L 80.868864 194.309583 
L 80.95907 165.555908 
L 81.049277 171.826039 
L 81.139484 184.364653 
L 81.319898 176.581951 
L 81.410105 183.500092 
L 81.500312 182.418977 
L 81.590519 177.230784 
L 81.680725 177.446513 
L 81.861139 171.826039 
L 82.041553 208.362415 
L 82.221967 196.47181 
L 82.312174 191.499346 
L 82.40238 193.44502 
L 82.492587 191.931627 
L 82.673001 201.660003 
L 82.763208 187.391443 
L 82.853415 188.040275 
L 82.943622 206.84902 
L 83.033829 202.525388 
L 83.124035 189.769399 
L 83.304449 204.903344 
L 83.394656 204.038783 
L 83.57507 220.6853 
L 83.755484 183.716643 
L 83.935897 201.227723 
L 84.296725 183.500092 
L 84.567345 187.607995 
L 84.747759 196.904091 
L 85.01838 181.770968 
L 85.108587 181.770968 
L 85.198794 195.174144 
L 85.289 192.363907 
L 85.379207 171.177205 
L 85.559621 186.742609 
L 85.740035 174.419724 
L 85.920449 184.796933 
L 86.100862 200.14661 
L 86.371483 191.282793 
L 86.46169 193.661572 
L 86.551897 199.066319 
L 86.642104 194.309583 
L 86.822517 166.853573 
L 86.912724 167.069302 
L 87.002931 175.933119 
L 87.363759 157.340925 
L 87.453965 158.205488 
L 87.634379 175.933119 
L 87.724586 174.419724 
L 87.814793 170.960653 
L 87.995207 177.014232 
L 88.265827 167.069302 
L 88.356034 156.259812 
L 88.446241 160.367715 
L 88.626655 180.689855 
L 88.716862 179.60874 
L 88.897276 168.582697 
L 88.987482 168.366968 
L 89.167896 156.908645 
L 89.258103 157.556654 
L 89.34831 144.369206 
L 89.438517 146.09833 
L 89.528724 156.04326 
L 89.709137 147.828277 
L 89.889551 157.556654 
L 89.979758 158.637768 
L 90.069965 174.203995 
L 90.160172 156.259812 
L 90.430792 179.824469 
L 90.611206 159.935433 
L 90.701413 160.151162 
L 90.881827 171.392934 
L 91.062241 177.446513 
L 91.242654 171.392934 
L 91.332861 172.474048 
L 91.603482 192.148177 
L 91.783896 169.014979 
L 91.874102 170.528373 
L 92.054516 197.120643 
L 92.23493 174.852005 
L 92.325137 182.20325 
L 92.415344 177.663066 
L 92.505551 165.77246 
L 92.685964 176.149671 
L 92.776171 172.474048 
L 92.866378 174.203995 
L 93.046792 173.339434 
L 93.136999 180.689855 
L 93.227206 177.230784 
L 93.317412 168.799249 
L 93.407619 170.096092 
L 93.497826 177.878793 
L 93.67824 166.420471 
L 93.858654 189.985951 
L 94.039067 173.987443 
L 94.219481 188.904838 
L 94.399895 163.826785 
L 94.580309 175.717389 
L 94.670516 172.6906 
L 94.941136 178.095345 
L 95.12155 188.040275 
L 95.301964 176.149671 
L 95.482377 182.635529 
L 95.572584 178.959908 
L 95.752998 157.556654 
L 95.933412 171.177205 
L 96.113826 165.555908 
L 96.294239 167.285855 
L 96.384446 165.555908 
L 96.474653 167.718136 
L 96.655067 164.042513 
L 96.745274 175.285108 
L 96.925687 153.881856 
L 97.106101 179.17646 
L 97.286515 147.395996 
L 97.466929 163.826785 
L 97.557136 158.85432 
L 97.737549 179.392188 
L 97.917963 165.123628 
L 98.278791 187.607995 
L 98.459204 183.067811 
L 98.549411 171.826039 
L 98.639618 173.122881 
L 98.910239 194.526135 
L 99.000446 206.416739 
L 99.180859 189.553669 
L 99.45148 218.523072 
L 99.722101 207.497854 
L 99.902514 217.226231 
L 99.992721 214.415994 
L 100.082928 206.632468 
L 100.263342 227.819993 
L 100.443756 206.632468 
L 100.533962 219.171906 
L 100.714376 208.794697 
L 100.89479 219.820739 
L 100.984997 206.416739 
L 101.075204 213.334879 
L 101.255617 233.008186 
L 101.436031 210.091537 
L 101.616445 216.361668 
L 101.706652 211.389205 
L 101.796859 215.929389 
L 101.887066 227.387711 
L 102.067479 210.30809 
L 102.247893 228.900283 
L 102.428307 207.930134 
L 102.518514 209.011247 
L 102.608721 213.983713 
L 102.698927 205.335626 
L 102.789134 209.011247 
L 102.879341 227.819993 
L 102.969548 222.847529 
L 103.059755 211.389205 
L 103.240169 219.604187 
L 103.420582 199.066319 
L 103.871617 224.576651 
L 104.052031 214.415994 
L 104.142237 221.766414 
L 104.232444 221.334134 
L 104.322651 217.658511 
L 104.412858 218.956176 
L 104.503065 215.064003 
L 104.593272 217.658511 
L 104.773686 235.602694 
L 104.954099 210.30809 
L 105.044306 212.253766 
L 105.134513 224.360923 
L 105.22472 221.982143 
L 105.314927 210.524642 
L 105.405134 211.389205 
L 105.495341 221.766414 
L 105.675754 214.415994 
L 105.856168 228.468002 
L 105.946375 221.117582 
L 106.036582 226.306598 
L 106.126789 225.441214 
L 106.397409 180.473303 
L 106.487616 179.392188 
L 106.577823 173.122881 
L 106.66803 175.500837 
L 106.758237 174.419724 
L 106.848444 160.799996 
L 107.028858 170.096092 
L 107.209271 158.205488 
L 107.479892 185.230037 
L 107.570099 190.634784 
L 107.750513 174.203995 
L 107.930926 191.067064 
L 108.11134 195.607248 
L 108.291754 176.365398 
L 108.472168 187.175714 
L 108.652581 179.60874 
L 108.742788 182.851259 
L 108.832995 181.554416 
L 108.923202 170.528373 
L 109.013409 170.744925 
L 109.103616 173.771715 
L 109.193823 171.392934 
L 109.284029 175.285108 
L 109.374236 194.958415 
L 109.464443 192.796188 
L 109.55465 178.311075 
L 109.735064 196.904091 
L 109.915478 172.474048 
L 110.005684 176.365398 
L 110.095891 169.447258 
L 110.276305 183.716643 
L 110.366512 180.905583 
L 110.546926 183.067811 
L 110.637133 170.528373 
L 110.817546 181.337864 
L 110.99796 164.691347 
L 111.088167 166.637023 
L 111.178374 171.609487 
L 111.268581 168.582697 
L 111.358788 156.692093 
L 111.448994 157.988936 
L 111.629408 181.122135 
L 111.809822 172.906329 
L 111.900029 178.959908 
L 112.080443 162.529118 
L 112.170649 164.907899 
L 112.260856 163.826785 
L 112.44127 179.17646 
L 112.621684 149.557401 
L 112.711891 154.529865 
L 112.892304 167.069302 
L 112.982511 167.285855 
L 113.162925 159.718881 
L 113.343339 144.584935 
L 113.613959 159.718881 
L 113.794373 175.500837 
L 113.974787 151.287346 
L 114.155201 162.313391 
L 114.245408 153.233022 
L 114.425821 174.636276 
L 114.606235 194.741863 
L 114.786649 181.986698 
L 114.876856 186.742609 
L 115.057269 183.067811 
L 115.237683 199.066319 
L 115.418097 184.581206 
L 115.508304 191.931627 
L 115.598511 188.472556 
L 115.778924 178.959908 
L 115.869131 179.60874 
L 116.049545 168.366968 
L 116.320166 202.95767 
L 116.410373 199.93088 
L 116.590786 188.256004 
L 116.951614 197.985204 
L 117.402648 188.689108 
L 117.492855 189.769399 
L 117.583062 189.337117 
L 117.853683 192.796188 
L 118.034096 183.500092 
L 118.124303 186.310328 
L 118.304717 196.687539 
L 118.485131 185.013485 
L 118.575338 191.931627 
L 118.665544 190.850512 
L 118.755751 186.742609 
L 119.026372 197.768652 
L 119.296993 181.770968 
L 119.387199 189.769399 
L 119.477406 188.472556 
L 119.65782 183.932372 
L 119.838234 190.418232 
L 119.928441 205.767907 
L 120.018648 203.605679 
L 120.199061 186.310328 
L 120.289268 195.390696 
L 120.469682 179.17646 
L 120.559889 191.067064 
L 120.740303 184.581206 
L 120.830509 189.769399 
L 120.920716 185.445767 
L 121.010923 186.0946 
L 121.10113 191.282793 
L 121.281544 165.123628 
L 121.461958 193.877301 
L 121.642371 173.555163 
L 122.003199 186.310328 
L 122.183613 180.905583 
L 122.273819 181.770968 
L 122.364026 181.122135 
L 122.454233 185.662319 
L 122.634647 205.984459 
L 122.815061 194.309583 
L 122.995475 206.416739 
L 123.085681 194.093854 
L 123.266095 207.713582 
L 123.356302 203.173397 
L 123.446509 196.03953 
L 123.626923 201.011994 
L 123.71713 200.795442 
L 123.807336 198.849767 
L 123.98775 189.769399 
L 124.168164 213.118327 
L 124.348578 178.095345 
L 124.528991 191.067064 
L 124.619198 183.500092 
L 124.709405 184.796933 
L 124.980026 173.987443 
L 125.16044 178.311075 
L 125.340853 192.148177 
L 125.611474 180.041021 
L 125.791888 194.309583 
L 125.972301 183.500092 
L 126.152715 193.228468 
L 126.242922 193.228468 
L 126.333129 194.309583 
L 126.513543 185.878048 
L 126.693956 204.686792 
L 126.784163 203.38995 
L 126.964577 192.148177 
L 127.054784 196.687539 
L 127.144991 207.281302 
L 127.325405 184.364653 
L 127.415611 188.040275 
L 127.505818 191.282793 
L 127.776439 183.716643 
L 127.866646 178.095345 
L 127.956853 180.257574 
L 128.137266 191.067064 
L 128.227473 189.12139 
L 128.407887 180.473303 
L 128.588301 199.282047 
L 128.768715 182.418977 
L 128.858921 181.770968 
L 129.039335 165.34018 
L 129.219749 187.175714 
L 129.309956 185.878048 
L 129.400163 187.175714 
L 129.851197 171.392934 
L 129.941404 171.177205 
L 130.031611 179.824469 
L 130.121818 177.230784 
L 130.212025 171.392934 
L 130.392438 177.230784 
L 130.482645 175.285108 
L 130.663059 182.635529 
L 130.843473 176.581951 
L 131.023886 188.904838 
L 131.2043 172.25832 
L 131.294507 173.771715 
L 131.565128 188.040275 
L 131.745541 176.581951 
L 132.106369 188.472556 
L 132.196576 187.823723 
L 132.37699 179.824469 
L 132.467196 179.824469 
L 132.64761 187.391443 
L 132.828024 181.986698 
L 132.918231 186.310328 
L 133.008438 183.500092 
L 133.188851 170.312644 
L 133.369265 177.230784 
L 133.459472 176.798503 
L 133.549679 177.230784 
L 133.730093 194.526135 
L 133.910506 172.474048 
L 134.09092 181.554416 
L 134.271334 170.096092 
L 134.451748 189.12139 
L 134.632161 179.824469 
L 134.812575 201.227723 
L 134.992989 168.582697 
L 135.173403 182.635529 
L 135.353816 174.419724 
L 135.53423 184.364653 
L 135.624437 186.0946 
L 135.714644 192.363907 
L 135.804851 189.553669 
L 135.895058 178.527627 
L 136.165678 193.01274 
L 136.346092 180.257574 
L 136.436299 179.392188 
L 136.616713 187.607995 
L 136.70692 183.932372 
L 136.797126 185.662319 
L 136.97754 180.041021 
L 137.067747 186.959161 
L 137.157954 186.52688 
L 137.248161 183.28354 
L 137.338368 192.363907 
L 137.518781 177.014232 
L 137.699195 194.093854 
L 137.879609 166.420471 
L 138.060023 188.040275 
L 138.240436 176.149671 
L 138.42085 189.12139 
L 138.511057 180.689855 
L 138.601264 183.500092 
L 138.691471 194.526135 
L 138.781678 193.877301 
L 138.962091 185.013485 
L 139.052298 187.607995 
L 139.232712 181.122135 
L 139.322919 181.554416 
L 139.413126 184.364653 
L 139.59354 205.552178 
L 139.773953 198.417486 
L 140.044574 218.090792 
L 140.315195 204.686792 
L 140.585815 209.659258 
L 140.676022 198.200933 
L 140.766229 200.579712 
L 140.946643 210.740371 
L 141.03685 204.254512 
L 141.127057 208.794697 
L 141.30747 205.552178 
L 141.397677 211.389205 
L 141.487884 207.930134 
L 141.578091 200.14661 
L 141.758505 211.389205 
L 141.848712 210.091537 
L 142.119332 204.038783 
L 142.48016 215.929389 
L 142.570367 211.389205 
L 142.660573 212.686047 
L 142.840987 232.143625 
L 143.021401 208.794697 
L 143.201815 220.6853 
L 143.292022 208.578144 
L 143.382228 213.76716 
L 143.472435 229.981396 
L 143.92347 204.038783 
L 144.013677 202.308836 
L 144.19409 216.145116 
L 144.284297 211.604932 
L 144.464711 222.630977 
L 144.645125 204.903344 
L 144.825538 209.011247 
L 144.915745 205.119074 
L 145.186366 207.930134 
L 145.36678 222.630977 
L 145.6374 197.985204 
L 145.817814 207.065573 
L 145.998228 191.715075 
L 146.178642 200.795442 
L 146.268848 198.634038 
L 146.449262 210.740371 
L 146.539469 205.767907 
L 146.719883 210.091537 
L 146.900297 191.715075 
L 146.990503 194.309583 
L 147.170917 174.636276 
L 147.351331 187.391443 
L 147.441538 175.068557 
L 147.621952 186.959161 
L 147.712158 180.689855 
L 147.802365 185.013485 
L 147.892572 197.120643 
L 147.982779 192.363907 
L 148.072986 192.796188 
L 148.163193 196.47181 
L 148.343607 181.770968 
L 148.614227 193.44502 
L 148.704434 191.282793 
L 148.884848 176.798503 
L 149.065262 186.959161 
L 149.155468 178.744179 
L 149.335882 189.769399 
L 149.516296 166.637023 
L 149.606503 170.960653 
L 149.877123 181.770968 
L 149.96733 197.985204 
L 150.057537 192.580459 
L 150.147744 179.17646 
L 150.328158 191.499346 
L 150.508572 179.392188 
L 150.598778 180.689855 
L 150.779192 170.744925 
L 150.869399 172.906329 
L 151.049813 190.418232 
L 151.230227 171.826039 
L 151.320433 175.933119 
L 151.41064 174.203995 
L 151.681261 159.502329 
L 151.771468 162.529118 
L 151.861675 170.960653 
L 151.951882 167.069302 
L 152.042088 167.933864 
L 152.222502 179.824469 
L 152.312709 171.177205 
L 152.402916 171.609487 
L 152.493123 173.771715 
L 152.58333 164.907899 
L 153.034364 181.554416 
L 153.214778 161.448005 
L 153.395192 174.419724 
L 153.485398 171.609487 
L 153.575605 170.312644 
L 153.756019 177.014232 
L 153.936433 164.474794 
L 154.116847 178.527627 
L 154.207053 170.960653 
L 154.29726 176.149671 
L 154.387467 189.12139 
L 154.567881 165.123628 
L 154.928708 177.878793 
L 155.018915 162.313391 
L 155.199329 184.796933 
L 155.289536 179.60874 
L 155.379743 170.312644 
L 155.46995 170.744925 
L 155.560157 170.312644 
L 155.650363 167.285855 
L 155.830777 184.148924 
L 155.920984 181.554416 
L 156.101398 186.310328 
L 156.191605 172.041768 
L 156.281812 172.25832 
L 156.372018 183.067811 
L 156.552432 152.800741 
L 157.003467 198.200933 
L 157.18388 162.096839 
L 157.544708 193.228468 
L 157.815329 177.014232 
L 158.176156 191.715075 
L 158.35657 172.25832 
L 158.536984 181.337864 
L 158.717397 180.257574 
L 158.897811 175.500837 
L 159.078225 191.499346 
L 159.348845 179.17646 
L 159.529259 187.823723 
L 159.619466 187.391443 
L 159.709673 188.040275 
L 159.79988 185.445767 
L 159.890087 178.744179 
L 160.0705 183.716643 
L 160.250914 172.041768 
L 160.611742 196.03953 
L 160.792155 180.473303 
L 160.882362 188.472556 
L 160.972569 181.770968 
L 161.062776 164.691347 
L 161.24319 183.067811 
L 161.333397 180.041021 
L 161.423604 174.419724 
L 161.51381 174.852005 
L 161.694224 181.986698 
L 161.874638 156.259812 
L 161.964845 179.392188 
L 162.055052 177.014232 
L 162.145259 156.04326 
L 162.325672 170.960653 
L 162.596293 165.123628 
L 162.6865 164.259065 
L 162.776707 165.34018 
L 162.95712 160.151162 
L 163.047327 169.447258 
L 163.227741 204.471065 
L 163.317948 202.093107 
L 163.498362 189.553669 
L 163.588569 195.822978 
L 163.678775 191.282793 
L 163.859189 197.985204 
L 163.949396 185.662319 
L 164.039603 186.310328 
L 164.220017 205.984459 
L 164.40043 188.256004 
L 164.761258 208.794697 
L 164.941672 178.744179 
L 165.122085 194.526135 
L 165.212292 187.175714 
L 165.302499 188.689108 
L 165.392706 185.878048 
L 165.57312 172.25832 
L 165.753534 183.716643 
L 165.84374 183.28354 
L 165.933947 184.148924 
L 166.024154 187.175714 
L 166.114361 185.013485 
L 166.204568 177.230784 
L 166.294775 181.122135 
L 166.384982 195.174144 
L 166.475189 191.067064 
L 166.565395 174.419724 
L 166.745809 183.932372 
L 166.836016 177.878793 
L 167.377257 197.336372 
L 167.467464 196.904091 
L 167.557671 187.823723 
L 167.647878 189.553669 
L 167.738085 203.173397 
L 167.828292 197.120643 
L 168.008705 165.555908 
L 168.189119 188.904838 
L 168.279326 185.445767 
L 168.549947 170.096092 
L 168.640154 173.987443 
L 168.820567 184.581206 
L 168.910774 183.716643 
L 169.000981 185.662319 
L 169.181395 191.499346 
L 169.271602 185.445767 
L 169.361809 187.607995 
L 169.452015 183.932372 
L 169.632429 169.87954 
L 169.812843 199.282047 
L 169.90305 199.714328 
L 170.083464 177.014232 
L 170.263877 180.905583 
L 170.444291 174.203995 
L 170.534498 173.555163 
L 170.714912 181.554416 
L 170.895325 173.987443 
L 171.075739 180.257574 
L 171.165946 180.473303 
L 171.34636 167.069302 
L 171.436567 169.66381 
L 171.61698 189.337117 
L 171.797394 165.77246 
L 172.158222 191.715075 
L 172.248429 191.282793 
L 172.428842 180.473303 
L 172.609256 183.716643 
L 172.78967 199.93088 
L 172.970084 170.096092 
L 173.06029 174.636276 
L 173.240704 199.714328 
L 173.601532 174.636276 
L 173.781945 170.312644 
L 173.872152 170.528373 
L 173.962359 172.474048 
L 174.052566 180.041021 
L 174.142773 178.311075 
L 174.23298 176.798503 
L 174.323187 186.0946 
L 174.413394 181.986698 
L 174.5036 169.014979 
L 174.593807 172.906329 
L 174.684014 181.770968 
L 174.864428 164.907899 
L 175.044842 186.0946 
L 175.225256 174.419724 
L 175.405669 187.175714 
L 175.586083 170.744925 
L 175.67629 177.446513 
L 175.766497 176.798503 
L 175.946911 173.771715 
L 176.037117 173.771715 
L 176.217531 186.52688 
L 176.307738 185.230037 
L 176.488152 177.230784 
L 176.668566 192.580459 
L 176.758772 190.202503 
L 176.848979 179.60874 
L 176.939186 180.473303 
L 177.1196 187.607995 
L 177.209807 186.742609 
L 177.390221 180.473303 
L 177.570634 182.418977 
L 177.751048 188.040275 
L 177.841255 185.878048 
L 177.931462 188.904838 
L 178.111876 175.717389 
L 178.292289 196.687539 
L 178.472703 169.231531 
L 178.653117 178.311075 
L 178.743324 174.419724 
L 178.833531 178.959908 
L 179.013944 191.499346 
L 179.194358 178.095345 
L 179.374772 197.336372 
L 179.825806 179.824469 
L 180.00622 186.959161 
L 180.186634 205.552178 
L 180.367047 188.689108 
L 180.547461 214.199442 
L 180.727875 210.956923 
L 180.908289 202.525388 
L 181.088702 217.442782 
L 181.178909 214.848274 
L 181.269116 205.552178 
L 181.44953 217.226231 
L 181.629944 195.390696 
L 181.720151 208.145863 
L 181.810357 205.335626 
L 181.900564 200.795442 
L 182.080978 210.740371 
L 182.171185 199.282047 
L 182.261392 201.011994 
L 182.441806 221.549862 
L 182.622219 204.686792 
L 182.712426 206.632468 
L 182.802633 206.416739 
L 182.89284 203.38995 
L 183.073254 214.848274 
L 183.253667 204.254512 
L 183.434081 225.874317 
L 183.614495 199.282047 
L 183.794909 207.497854 
L 183.885116 198.849767 
L 184.065529 221.982143 
L 184.155736 215.929389 
L 184.245943 205.767907 
L 184.33615 207.065573 
L 184.426357 212.686047 
L 184.606771 196.904091 
L 185.057805 216.577398 
L 185.238219 202.525388 
L 185.328426 207.281302 
L 185.418632 204.903344 
L 185.599046 210.30809 
L 185.689253 203.605679 
L 185.77946 207.281302 
L 185.959874 224.576651 
L 186.230494 201.876555 
L 186.410908 210.524642 
L 186.591322 199.498599 
L 186.681529 208.794697 
L 186.771736 207.930134 
L 186.861942 205.767907 
L 187.042356 214.415994 
L 187.132563 207.065573 
L 187.22277 209.226976 
L 187.312977 207.065573 
L 187.493391 185.662319 
L 187.583597 183.067811 
L 187.764011 165.123628 
L 187.854218 169.447258 
L 187.944425 177.014232 
L 188.034632 167.285855 
L 188.215046 179.17646 
L 188.305252 168.150416 
L 188.395459 169.014979 
L 188.575873 186.959161 
L 188.756287 197.768652 
L 188.936701 177.014232 
L 189.207321 198.417486 
L 189.297528 199.93088 
L 189.477942 182.20325 
L 189.658356 190.202503 
L 189.748562 180.473303 
L 189.838769 181.337864 
L 189.928976 184.581206 
L 190.10939 172.041768 
L 190.199597 174.419724 
L 190.470217 180.689855 
L 190.560424 197.985204 
L 190.650631 194.526135 
L 190.740838 174.419724 
L 190.921252 202.95767 
L 191.191872 171.826039 
L 191.282079 171.392934 
L 191.462493 188.904838 
L 191.5527 187.823723 
L 191.823321 178.744179 
L 192.003734 183.067811 
L 192.184148 161.881109 
L 192.274355 164.474794 
L 192.364562 169.014979 
L 192.454769 167.285855 
L 192.544976 158.85432 
L 192.635183 162.313391 
L 192.815596 181.986698 
L 192.905803 172.041768 
L 192.99601 173.987443 
L 193.086217 179.824469 
L 193.266631 167.501584 
L 193.356838 169.447258 
L 193.447044 164.907899 
L 193.627458 181.770968 
L 193.807872 150.422785 
L 193.988286 172.041768 
L 194.078493 169.231531 
L 194.168699 172.041768 
L 194.258906 169.87954 
L 194.43932 162.096839 
L 194.529527 159.935433 
L 194.980561 182.635529 
L 195.160975 166.204741 
L 195.251182 166.420471 
L 195.341389 170.960653 
L 195.431596 166.204741 
L 195.521803 167.718136 
L 195.792423 192.148177 
L 195.88263 191.499346 
L 195.972837 192.148177 
L 196.153251 197.336372 
L 196.333664 190.202503 
L 196.423871 192.363907 
L 196.604285 191.067064 
L 196.694492 190.202503 
L 196.784699 178.959908 
L 196.874906 180.041021 
L 196.965113 187.391443 
L 197.145526 165.34018 
L 197.596561 195.822978 
L 197.867181 183.067811 
L 198.137802 201.876555 
L 198.318216 188.689108 
L 198.408423 193.228468 
L 198.498629 190.418232 
L 198.588836 183.500092 
L 198.76925 191.499346 
L 198.859457 188.040275 
L 199.039871 191.499346 
L 199.130078 186.52688 
L 199.310491 191.715075 
L 199.400698 190.418232 
L 199.581112 192.363907 
L 199.671319 185.445767 
L 199.851733 188.904838 
L 199.941939 187.607995 
L 200.122353 194.526135 
L 200.21256 193.228468 
L 200.483181 177.446513 
L 200.663594 184.581206 
L 200.844008 175.068557 
L 201.114629 193.44502 
L 201.204836 191.931627 
L 201.295043 185.230037 
L 201.385249 186.742609 
L 201.475456 191.282793 
L 201.65587 174.852005 
L 201.746077 189.337117 
L 201.836284 187.391443 
L 201.926491 182.635529 
L 202.016698 184.796933 
L 202.197111 175.068557 
L 202.287318 181.986698 
L 202.467732 163.177952 
L 202.648146 188.040275 
L 202.828559 168.582697 
L 203.008973 177.663066 
L 203.189387 179.824469 
L 203.369801 173.339434 
L 203.730628 196.687539 
L 203.820835 210.30809 
L 204.001249 193.01274 
L 204.181663 209.226976 
L 204.271869 200.795442 
L 204.362076 202.093107 
L 204.452283 206.416739 
L 204.632697 193.44502 
L 204.813111 201.011994 
L 204.993524 198.200933 
L 205.083731 192.148177 
L 205.173938 193.661572 
L 205.354352 210.091537 
L 205.534766 189.553669 
L 205.715179 194.309583 
L 205.895593 185.445767 
L 205.9858 185.662319 
L 206.166214 174.636276 
L 206.256421 176.149671 
L 206.436834 191.067064 
L 206.617248 182.20325 
L 206.797662 187.823723 
L 206.887869 189.769399 
L 206.978076 197.985204 
L 207.068283 193.661572 
L 207.158489 182.635529 
L 207.338903 198.417486 
L 207.519317 188.256004 
L 207.609524 189.985951 
L 207.699731 190.202503 
L 207.789938 192.148177 
L 207.970351 204.038783 
L 208.150765 188.472556 
L 208.331179 203.38995 
L 208.511593 181.770968 
L 208.601799 182.20325 
L 208.782213 193.01274 
L 209.143041 178.959908 
L 209.323454 196.687539 
L 209.413661 192.148177 
L 209.503868 185.013485 
L 209.594075 187.175714 
L 209.684282 200.14661 
L 209.774489 198.849767 
L 209.864696 185.878048 
L 209.954903 186.959161 
L 210.04511 187.175714 
L 210.225523 168.366968 
L 210.405937 188.689108 
L 210.496144 189.769399 
L 210.586351 193.661572 
L 210.766765 181.122135 
L 210.856971 184.364653 
L 210.947178 182.851259 
L 211.037385 177.663066 
L 211.127592 178.744179 
L 211.217799 190.418232 
L 211.308006 186.52688 
L 211.398213 173.771715 
L 211.48842 175.500837 
L 211.668833 186.959161 
L 211.75904 186.52688 
L 211.849247 188.040275 
L 211.939454 192.148177 
L 212.119868 177.878793 
L 212.300281 185.013485 
L 212.480695 178.311075 
L 212.751316 196.687539 
L 212.93173 173.555163 
L 213.112143 194.741863 
L 213.20235 191.499346 
L 213.292557 193.228468 
L 213.382764 200.579712 
L 213.563178 183.067811 
L 213.653385 183.28354 
L 213.833798 199.066319 
L 214.014212 187.607995 
L 214.104419 193.44502 
L 214.284833 175.500837 
L 214.37504 175.933119 
L 214.465246 177.878793 
L 214.555453 175.500837 
L 214.64566 178.311075 
L 214.826074 194.741863 
L 214.916281 191.499346 
L 215.096695 182.851259 
L 215.277108 178.311075 
L 215.367315 178.095345 
L 215.547729 172.474048 
L 215.637936 188.904838 
L 215.728143 187.175714 
L 215.81835 179.17646 
L 215.998763 201.660003 
L 216.179177 167.501584 
L 216.359591 183.716643 
L 216.540005 175.500837 
L 216.900832 189.985951 
L 217.081246 180.473303 
L 217.26166 196.255257 
L 217.351866 192.580459 
L 217.53228 178.095345 
L 217.712694 190.202503 
L 217.893108 181.337864 
L 218.073521 187.607995 
L 218.253935 170.960653 
L 218.344142 173.339434 
L 218.524556 188.256004 
L 218.70497 177.014232 
L 218.795176 186.310328 
L 218.885383 183.500092 
L 218.97559 168.582697 
L 219.065797 170.096092 
L 219.336418 179.392188 
L 219.426625 177.230784 
L 219.516831 179.17646 
L 219.607038 187.391443 
L 219.697245 186.310328 
L 219.787452 185.013485 
L 219.877659 191.931627 
L 219.967866 184.148924 
L 220.058073 192.148177 
L 220.238486 177.446513 
L 220.328693 177.878793 
L 220.4189 185.230037 
L 220.599314 181.986698 
L 220.779728 200.795442 
L 220.869935 194.309583 
L 220.960141 194.526135 
L 221.140555 209.87581 
L 221.320969 201.011994 
L 221.411176 205.335626 
L 221.59159 191.282793 
L 221.772003 198.417486 
L 221.952417 182.20325 
L 222.313245 189.12139 
L 222.403451 181.554416 
L 222.493658 186.742609 
L 222.583865 200.14661 
L 222.674072 198.417486 
L 222.764279 189.337117 
L 222.854486 192.796188 
L 222.944693 200.579712 
L 223.125106 192.148177 
L 223.30552 198.849767 
L 223.395727 195.174144 
L 223.485934 196.255257 
L 223.666348 210.30809 
L 223.846761 202.741118 
L 224.027175 223.279809 
L 224.207589 204.903344 
L 224.297796 207.930134 
L 224.388003 210.30809 
L 224.47821 202.95767 
L 224.568416 205.119074 
L 224.658623 217.442782 
L 224.74883 216.79395 
L 224.929244 199.282047 
L 225.019451 199.282047 
L 225.109658 194.526135 
L 225.199865 197.120643 
L 225.380278 204.254512 
L 225.470485 204.471065 
L 225.560692 214.848274 
L 225.650899 212.253766 
L 225.741106 200.795442 
L 225.831313 202.741118 
L 225.92152 208.145863 
L 226.101933 197.768652 
L 226.19214 201.660003 
L 226.282347 198.417486 
L 226.462761 217.226231 
L 226.552968 215.064003 
L 226.733381 196.687539 
L 226.913795 207.281302 
L 227.094209 194.093854 
L 227.274623 197.985204 
L 227.36483 191.067064 
L 227.545243 212.902599 
L 227.63545 210.956923 
L 227.725657 202.95767 
L 227.906071 210.091537 
L 228.086485 200.363162 
L 228.357105 189.985951 
L 228.537519 189.12139 
L 228.627726 180.689855 
L 228.717933 184.148924 
L 228.80814 191.931627 
L 228.898347 189.769399 
L 228.988553 190.418232 
L 229.07876 201.011994 
L 229.259174 194.958415 
L 229.349381 196.03953 
L 229.439588 194.958415 
L 229.529795 191.282793 
L 229.710208 195.390696 
L 229.800415 196.03953 
L 229.890622 197.768652 
L 230.071036 180.257574 
L 230.341657 192.363907 
L 230.431863 191.715075 
L 230.702484 176.581951 
L 230.882898 177.663066 
L 230.973105 179.17646 
L 231.153518 203.38995 
L 231.333932 182.20325 
L 231.514346 196.687539 
L 231.69476 178.311075 
L 231.784967 182.418977 
L 231.96538 172.474048 
L 232.145794 186.310328 
L 232.236001 181.554416 
L 232.326208 182.20325 
L 232.867449 166.204741 
L 232.957656 167.285855 
L 233.13807 171.177205 
L 233.228277 171.392934 
L 233.40869 180.041021 
L 233.589104 172.6906 
L 233.679311 180.257574 
L 233.769518 178.744179 
L 233.949932 169.014979 
L 234.040138 170.744925 
L 234.220552 178.959908 
L 234.400966 153.881856 
L 234.58138 175.068557 
L 234.671587 168.582697 
L 234.852 173.555163 
L 234.942207 172.906329 
L 235.032414 171.609487 
L 235.122621 165.34018 
L 235.212828 165.988189 
L 235.393242 177.878793 
L 235.483448 178.527627 
L 235.573655 180.257574 
L 235.754069 169.66381 
L 235.934483 166.853573 
L 236.02469 167.718136 
L 236.114897 173.555163 
L 236.205103 199.93088 
L 236.29531 199.282047 
L 236.475724 217.009679 
L 236.565931 215.280555 
L 236.836552 191.282793 
L 237.016965 208.794697 
L 237.107172 207.065573 
L 237.197379 209.443528 
L 237.287586 205.119074 
L 237.377793 190.418232 
L 237.468 194.526135 
L 237.558207 205.335626 
L 237.73862 173.555163 
L 237.828827 175.068557 
L 238.189655 235.819246 
L 238.279862 222.198695 
L 238.460275 176.798503 
L 238.730896 216.79395 
L 238.91131 198.634038 
L 239.001517 186.52688 
L 239.091723 188.472556 
L 239.272137 201.660003 
L 239.542758 174.636276 
L 239.723172 201.227723 
L 239.993792 237.54837 
L 240.174206 225.225485 
L 240.264413 227.387711 
L 240.35462 233.224738 
L 240.444827 227.171159 
L 240.535033 227.603441 
L 240.62524 235.386142 
L 240.715447 233.440467 
L 241.076275 204.903344 
L 241.256688 216.145116 
L 241.437102 200.795442 
L 241.527309 203.822231 
L 241.617516 201.876555 
L 241.79793 223.279809 
L 241.888137 218.739624 
L 241.978343 202.741118 
L 242.06855 205.984459 
L 242.248964 177.878793 
L 242.339171 186.52688 
L 242.429378 194.093854 
L 242.519585 189.337117 
L 242.609792 193.661572 
L 242.699998 204.254512 
L 242.790205 202.95767 
L 242.880412 201.011994 
L 243.060826 167.933864 
L 243.24124 197.120643 
L 243.421653 179.60874 
L 243.51186 178.744179 
L 243.602067 179.392188 
L 243.782481 195.822978 
L 243.872688 186.310328 
L 244.053102 199.93088 
L 244.323722 148.90939 
L 244.504136 179.17646 
L 244.594343 177.014232 
L 244.68455 180.689855 
L 244.864963 164.259065 
L 245.045377 190.850512 
L 245.225791 162.313391 
L 245.406205 175.068557 
L 245.586619 167.718136 
L 245.676825 173.555163 
L 245.857239 201.444275 
L 245.947446 197.120643 
L 246.12786 178.527627 
L 246.218067 186.742609 
L 246.308274 183.500092 
L 246.488687 157.773207 
L 246.578894 157.988936 
L 246.669101 149.990504 
L 246.759308 153.665304 
L 246.849515 165.34018 
L 247.029929 158.85432 
L 247.210342 165.555908 
L 247.390756 153.01647 
L 247.57117 185.230037 
L 247.661377 177.230784 
L 247.751584 157.773207 
L 247.931997 165.34018 
L 248.022204 165.34018 
L 248.112411 169.87954 
L 248.292825 187.391443 
L 248.383032 183.28354 
L 248.563445 198.417486 
L 248.743859 175.933119 
L 248.924273 197.985204 
L 249.01448 189.553669 
L 249.194894 149.557401 
L 249.375307 185.013485 
L 249.465514 181.337864 
L 249.555721 183.716643 
L 249.736135 152.584189 
L 249.916549 198.200933 
L 250.006755 189.337117 
L 250.096962 169.66381 
L 250.187169 172.474048 
L 250.367583 206.84902 
L 250.638204 177.446513 
L 250.908824 184.796933 
L 250.999031 180.041021 
L 251.179445 192.580459 
L 251.359859 157.988936 
L 251.450065 161.664557 
L 251.540272 161.448005 
L 251.630479 161.015724 
L 251.810893 180.257574 
L 251.9011 179.824469 
L 252.17172 160.151162 
L 252.261927 162.313391 
L 252.442341 192.363907 
L 252.532548 178.311075 
L 252.803169 199.066319 
L 252.983582 183.067811 
L 253.073789 197.985204 
L 253.163996 197.120643 
L 253.254203 180.473303 
L 253.434617 231.279064 
L 253.524824 228.900283 
L 253.795444 180.905583 
L 253.975858 209.226976 
L 254.066065 205.984459 
L 254.246479 188.256004 
L 254.426892 226.306598 
L 254.517099 223.495538 
L 254.78772 197.552924 
L 254.968134 184.364653 
L 255.05834 190.418232 
L 255.238754 210.524642 
L 255.328961 206.84902 
L 255.509375 225.225485 
L 255.689789 196.904091 
L 255.779995 200.795442 
L 255.870202 199.93088 
L 255.960409 185.230037 
L 256.140823 206.416739 
L 256.23103 205.552178 
L 256.411444 177.230784 
L 256.591857 200.795442 
L 256.772271 178.959908 
L 256.862478 184.364653 
L 256.952685 176.365398 
L 257.042892 180.041021 
L 257.223305 205.335626 
L 257.313512 203.605679 
L 257.403719 204.686792 
L 257.584133 215.064003 
L 257.67434 204.254512 
L 257.764547 209.226976 
L 257.854754 221.117582 
L 258.035167 196.904091 
L 258.125374 203.822231 
L 258.486202 217.658511 
L 258.666615 207.065573 
L 258.847029 181.122135 
L 259.11765 215.712837 
L 259.298064 181.337864 
L 259.38827 186.959161 
L 259.478477 201.227723 
L 259.658891 183.500092 
L 259.839305 195.607248 
L 260.019719 171.177205 
L 260.200132 201.444275 
L 260.380546 193.01274 
L 260.470753 209.011247 
L 260.56096 169.447258 
L 260.741374 185.878048 
L 260.921787 158.205488 
L 261.102201 199.93088 
L 261.192408 199.066319 
L 261.282615 197.120643 
L 261.372822 203.822231 
L 261.553235 184.581206 
L 261.914063 211.389205 
L 262.094477 188.040275 
L 262.184684 189.337117 
L 262.365097 220.901853 
L 262.545511 185.662319 
L 262.635718 192.363907 
L 262.725925 185.013485 
L 262.816132 192.580459 
L 262.906339 214.848274 
L 263.086752 171.177205 
L 263.267166 213.118327 
L 263.44758 193.44502 
L 263.627994 211.172652 
L 263.808407 171.609487 
L 263.898614 176.581951 
L 264.079028 206.84902 
L 264.169235 204.038783 
L 264.349649 218.307345 
L 264.530062 208.145863 
L 264.620269 209.659258 
L 264.800683 197.985204 
L 264.981097 204.903344 
L 265.071304 193.228468 
L 265.161511 197.120643 
L 265.251717 216.361668 
L 265.432131 184.364653 
L 265.612545 219.388458 
L 265.792959 191.499346 
L 265.883166 196.03953 
L 266.153786 224.576651 
L 266.424407 202.093107 
L 266.695027 209.011247 
L 266.875441 196.687539 
L 266.965648 202.093107 
L 267.146062 218.523072 
L 267.416682 183.932372 
L 267.597096 214.631722 
L 267.77751 191.499346 
L 267.957924 213.76716 
L 268.048131 206.416739 
L 268.138337 207.930134 
L 268.228544 212.686047 
L 268.499165 202.95767 
L 268.589372 184.581206 
L 268.679579 185.013485 
L 268.859992 169.014979 
L 269.040406 153.665304 
L 269.130613 157.773207 
L 269.22082 156.692093 
L 269.401234 151.287346 
L 269.491441 153.01647 
L 269.942475 194.741863 
L 270.032682 194.526135 
L 270.122889 174.636276 
L 270.213096 181.554416 
L 270.303302 204.903344 
L 270.393509 202.525388 
L 270.573923 178.527627 
L 270.66413 180.905583 
L 270.754337 177.878793 
L 270.844544 178.311075 
L 270.934751 180.257574 
L 271.024957 184.796933 
L 271.205371 179.60874 
L 271.385785 158.85432 
L 271.475992 165.123628 
L 271.746612 191.499346 
L 271.836819 194.741863 
L 272.017233 174.419724 
L 272.10744 185.230037 
L 272.287854 179.60874 
L 272.378061 188.689108 
L 272.468267 187.607995 
L 272.648681 173.987443 
L 272.829095 173.339434 
L 272.919302 182.418977 
L 273.280129 167.069302 
L 273.460543 143.504645 
L 273.640957 172.906329 
L 273.731164 155.610978 
L 273.821371 156.476364 
L 273.911577 181.122135 
L 274.001784 178.527627 
L 274.091991 172.474048 
L 274.272405 189.769399 
L 274.362612 175.068557 
L 274.543026 187.607995 
L 274.723439 177.446513 
L 274.813646 183.28354 
L 274.99406 136.369953 
L 275.174474 170.096092 
L 275.445094 141.342418 
L 275.625508 151.93618 
L 275.805922 130.316374 
L 276.166749 179.60874 
L 276.347163 157.124373 
L 276.43737 162.529118 
L 276.617784 143.720374 
L 276.707991 165.988189 
L 276.798197 128.802979 
L 276.888404 137.234514 
L 276.978611 157.340925 
L 277.068818 156.908645 
L 277.339439 135.28884 
L 277.429646 126.641576 
L 277.700266 148.90939 
L 277.790473 146.747164 
L 277.970887 129.019531 
L 278.061094 132.046321 
L 278.151301 142.20698 
L 278.331714 119.723436 
L 278.782749 168.799249 
L 279.053369 126.857305 
L 279.32399 156.692093 
L 279.594611 135.937671 
L 279.684817 136.369953 
L 279.865231 143.288093 
L 279.955438 142.20698 
L 280.135852 137.234514 
L 280.316266 154.314136 
L 280.406473 165.555908 
L 280.496679 164.259065 
L 280.586886 165.77246 
L 280.677093 161.232276 
L 280.857507 146.531435 
L 280.947714 154.529865 
L 281.037921 153.665304 
L 281.128128 154.746417 
L 281.218334 159.502329 
L 281.669369 137.018786 
L 281.849783 148.692838 
L 282.030196 130.100646 
L 282.120403 132.046321 
L 282.21061 128.587252 
L 282.300817 132.046321 
L 282.481231 148.692838 
L 282.571438 136.802234 
L 282.661644 137.666795 
L 282.842058 120.803726 
L 282.932265 129.235261 
L 283.112679 113.885586 
L 283.473506 132.694332 
L 283.65392 97.887902 
L 283.834334 123.182506 
L 283.924541 107.83283 
L 284.104954 115.398981 
L 284.195161 113.669857 
L 284.285368 114.102138 
L 284.555989 117.777759 
L 284.646196 116.912375 
L 284.736403 110.858796 
L 284.826609 111.291901 
L 285.09723 164.474794 
L 285.277644 156.692093 
L 285.367851 161.881109 
L 285.458058 157.773207 
L 285.548264 162.313391 
L 285.638471 161.881109 
L 285.818885 138.964461 
L 285.999299 155.610978 
L 286.089506 148.477111 
L 286.269919 166.420471 
L 286.360126 166.204741 
L 286.450333 174.636276 
L 286.54054 172.906329 
L 286.720954 148.477111 
L 286.901368 164.042513 
L 287.081781 145.882601 
L 287.171988 143.504645 
L 287.262195 137.666795 
L 287.352402 139.829024 
L 287.442609 150.638514 
L 287.532816 149.557401 
L 287.623023 143.936926 
L 287.713229 145.01804 
L 287.803436 147.395996 
L 287.893643 146.747164 
L 287.98385 144.584935 
L 288.074057 146.314882 
L 288.164264 151.070794 
L 288.254471 146.747164 
L 288.434884 133.559716 
L 288.525091 131.18176 
L 288.795712 160.151162 
L 288.885919 155.395251 
L 288.976126 153.881856 
L 289.156539 161.015724 
L 289.336953 150.638514 
L 289.517367 170.312644 
L 289.607574 164.259065 
L 289.787988 129.668365 
L 290.148815 161.664557 
L 290.329229 132.26205 
L 290.509643 172.906329 
L 290.690056 143.072364 
L 290.780263 143.504645 
L 290.960677 168.366968 
L 291.141091 156.908645 
L 291.321504 157.773207 
L 291.501918 167.933864 
L 291.592125 157.988936 
L 291.682332 160.151162 
L 291.772539 158.422038 
L 291.952953 135.28884 
L 292.133366 142.423532 
L 292.31378 145.233769 
L 292.494194 143.720374 
L 292.674608 149.341672 
L 292.855021 138.747909 
L 292.945228 145.01804 
L 293.125642 137.234514 
L 293.396263 146.09833 
L 293.576676 138.747909 
L 293.75709 150.855067 
L 293.847297 145.233769 
L 294.027711 162.74567 
L 294.117918 161.881109 
L 294.208124 162.529118 
L 294.478745 143.072364 
L 294.659159 159.070049 
L 294.749366 157.124373 
L 294.839573 146.09833 
L 295.019986 177.446513 
L 295.110193 174.852005 
L 295.471021 145.882601 
L 295.561228 143.288093 
L 295.651434 145.882601 
L 295.831848 168.150416 
L 296.012262 158.205488 
L 296.192676 167.718136 
L 296.373089 156.04326 
L 296.463296 161.015724 
L 296.64371 150.638514 
L 296.824124 167.285855 
L 297.004538 144.152654 
L 297.184951 157.556654 
L 297.275158 155.178699 
L 297.545779 146.747164 
L 297.8164 161.448005 
L 297.996813 155.178699 
L 298.177227 167.501584 
L 298.267434 153.233022 
L 298.357641 157.124373 
L 298.538055 173.122881 
L 298.718468 154.529865 
L 298.989089 173.339434 
L 299.079296 168.799249 
L 299.349916 157.556654 
L 299.53033 161.664557 
L 299.620537 161.881109 
L 299.710744 169.66381 
L 299.891158 140.910137 
L 299.981365 142.639259 
L 300.161778 157.124373 
L 300.342192 145.882601 
L 300.432399 148.692838 
L 300.612813 138.532181 
L 300.793226 153.449575 
L 300.883433 143.936926 
L 301.154054 157.340925 
L 301.244261 166.853573 
L 301.514881 131.829769 
L 301.875709 158.637768 
L 301.965916 159.070049 
L 302.14633 144.584935 
L 302.326743 164.691347 
L 302.41695 164.042513 
L 302.687571 151.503898 
L 302.777778 153.233022 
L 302.958191 173.987443 
L 303.138605 155.395251 
L 303.228812 155.395251 
L 303.319019 153.881856 
L 303.499433 176.149671 
L 303.679846 140.045576 
L 303.86026 173.987443 
L 304.040674 167.069302 
L 304.130881 177.014232 
L 304.221088 173.339434 
L 304.491708 149.341672 
L 304.672122 173.987443 
L 304.762329 173.555163 
L 304.852536 175.068557 
L 305.03295 166.853573 
L 305.213363 182.418977 
L 305.574191 156.476364 
L 305.664398 153.01647 
L 305.844811 172.6906 
L 306.025225 153.665304 
L 306.115432 158.205488 
L 306.205639 166.853573 
L 306.386053 147.395996 
L 306.74688 181.554416 
L 306.837087 178.311075 
L 307.197915 155.610978 
L 307.378328 166.420471 
L 307.468535 156.476364 
L 307.648949 174.419724 
L 308.009776 156.259812 
L 308.19019 184.148924 
L 308.370604 162.313391 
L 308.551018 173.987443 
L 308.641225 167.501584 
L 308.731431 169.231531 
L 308.821638 175.068557 
L 309.36288 134.640829 
L 309.453086 139.829024 
L 309.6335 135.721119 
L 309.723707 136.586505 
L 309.904121 123.614786 
L 310.174741 128.3707 
L 310.355155 142.855811 
L 310.445362 142.855811 
L 310.625776 151.93618 
L 310.715983 145.450321 
L 310.80619 146.747164 
L 310.986603 164.691347 
L 311.347431 129.668365 
L 311.618051 139.396742 
L 311.888672 125.128181 
L 311.978879 128.15497 
L 312.069086 126.857305 
L 312.2495 138.964461 
L 312.429913 151.287346 
L 312.52012 145.450321 
L 312.610327 146.09833 
L 312.700534 145.666049 
L 312.790741 140.045576 
L 312.880948 140.910137 
L 312.971155 137.666795 
L 313.061361 130.100646 
L 313.241775 137.451066 
L 313.331982 130.748655 
L 313.512396 144.801488 
L 313.69281 127.938418 
L 313.783016 138.964461 
L 313.873223 138.747909 
L 314.053637 122.317121 
L 314.234051 142.20698 
L 314.414465 120.371444 
L 314.685085 140.910137 
L 314.775292 142.639259 
L 314.865499 149.990504 
L 314.955706 148.477111 
L 315.13612 134.640829 
L 315.226327 134.640829 
L 315.40674 141.99125 
L 315.587154 117.128927 
L 315.767568 127.721866 
L 315.947982 114.534419 
L 316.128395 126.641576 
L 316.308809 109.129672 
L 316.489223 125.128181 
L 316.57943 114.966699 
L 316.759843 144.152654 
L 316.940257 124.262797 
L 317.030464 130.532926 
L 317.210878 121.669112 
L 317.301085 137.018786 
L 317.481498 233.657019 
L 317.661912 251.168921 
L 317.752119 249.655528 
L 317.932533 230.63023 
L 318.02274 221.766414 
L 318.203153 244.46651 
L 318.29336 243.817676 
L 318.473774 235.386142 
L 318.563981 222.415247 
L 318.654188 227.819993 
L 318.744395 241.656273 
L 318.924808 205.552178 
L 319.015015 210.740371 
L 319.375843 268.46386 
L 319.646463 204.254512 
L 319.826877 242.520836 
L 320.097498 226.954607 
L 320.187705 213.550608 
L 320.277912 215.064003 
L 320.458325 227.819993 
L 320.638739 210.091537 
L 320.90936 225.874317 
L 321.089773 256.357116 
L 321.17998 260.897298 
L 321.360394 249.871255 
L 321.540808 260.465018 
L 321.631015 250.520089 
L 321.721222 254.41144 
L 321.811428 268.896553 
L 322.262463 230.413678 
L 322.442877 248.574413 
L 322.803704 231.711343 
L 322.893911 239.278317 
L 322.984118 257.222088 
L 323.074325 254.41144 
L 323.254738 229.765669 
L 323.344945 224.360923 
L 323.435152 211.389205 
L 323.615566 221.334134 
L 323.705773 218.956176 
L 323.886187 228.252274 
L 324.247014 189.553669 
L 324.427428 225.657766 
L 324.607842 197.768652 
L 324.788255 201.660003 
L 324.968669 212.902599 
L 325.058876 202.308836 
L 325.149083 202.741118 
L 325.23929 208.145863 
L 325.419703 186.52688 
L 325.50991 53.568 
L 325.600117 79.727165 
L 325.690324 89.239815 
L 325.780531 81.457112 
L 325.960945 95.509122 
L 326.051152 89.024086 
L 326.231565 118.642322 
L 326.411979 84.699631 
L 326.592393 113.021025 
L 326.6826 108.91312 
L 326.772807 109.994235 
L 327.043427 146.747164 
L 327.133634 144.369206 
L 327.314048 122.965954 
L 327.494462 130.748655 
L 327.584668 118.42577 
L 327.674875 119.506883 
L 327.765082 121.020278 
L 327.855289 110.643067 
L 327.945496 112.805295 
L 328.035703 133.559716 
L 328.12591 133.127434 
L 328.216117 122.750225 
L 328.39653 141.774698 
L 328.576944 131.397489 
L 328.757358 159.935433 
L 328.847565 154.962969 
L 328.937772 139.613294 
L 329.749633 185.878048 
L 329.930047 174.636276 
L 330.110461 195.822978 
L 330.200668 188.472556 
L 330.381082 153.01647 
L 330.561495 183.500092 
L 330.651702 179.824469 
L 330.741909 188.904838 
L 330.922323 166.637023 
L 331.102737 203.173397 
L 331.192943 199.714328 
L 331.28315 183.28354 
L 331.373357 186.959161 
L 331.553771 213.983713 
L 331.643978 206.84902 
L 331.734185 212.253766 
L 331.824392 209.87581 
L 331.914598 195.174144 
L 332.004805 198.849767 
L 332.095012 214.415994 
L 332.185219 213.550608 
L 332.275426 217.226231 
L 332.365633 216.79395 
L 332.546047 194.309583 
L 332.816667 204.038783 
L 332.906874 206.632468 
L 333.087288 212.686047 
L 333.177495 210.524642 
L 333.538322 221.766414 
L 333.628529 258.086649 
L 333.718736 238.845213 
L 333.808943 243.169667 
L 333.989357 261.978413 
L 334.079564 250.087808 
L 334.16977 252.249211 
L 334.259977 261.978413 
L 334.440391 243.169667 
L 334.620805 289.218692 
L 334.711012 284.030087 
L 334.981632 254.843721 
L 335.162046 276.679254 
L 335.252253 273.869017 
L 335.432667 255.708694 
L 335.703287 295.488 
L 335.793494 287.056465 
L 336.154322 266.518184 
L 336.244529 268.24772 
L 336.424942 282.084411 
L 336.515149 275.382412 
L 336.605356 279.706044 
L 336.695563 293.110044 
L 336.78577 289.002553 
L 336.966184 269.328833 
L 337.05639 269.112694 
L 337.146597 260.897298 
L 337.236804 264.57251 
L 337.417218 280.787157 
L 337.597632 252.682316 
L 337.778045 282.732833 
L 337.958459 258.086649 
L 338.048666 261.54572 
L 338.22908 248.574413 
L 338.4997 281.003298 
L 338.589907 278.192649 
L 338.770321 286.191902 
L 338.950735 274.73358 
L 339.131149 281.435579 
L 339.401769 271.49065 
L 339.491976 274.949719 
L 339.67239 289.867114 
L 340.033217 261.113439 
L 340.123424 265.221342 
L 340.303838 284.894648 
L 340.484252 255.708694 
L 340.664665 271.058368 
L 340.845079 244.898791 
L 340.935286 248.357861 
L 341.025493 256.357116 
L 341.205907 244.898791 
L 341.38632 258.519342 
L 341.476527 250.735818 
L 341.566734 251.38465 
L 341.656941 272.571763 
L 341.747148 202.525388 
L 341.837355 209.87581 
L 341.927562 208.578144 
L 342.107975 193.877301 
L 342.468803 226.738879 
L 342.55901 234.521581 
L 342.739424 206.200187 
L 342.919837 241.656273 
L 343.010044 239.926326 
L 343.100251 240.142878 
L 343.190458 241.007441 
L 343.370872 216.577398 
L 343.551285 243.601949 
L 343.731699 218.307345 
L 343.821906 220.253019 
L 343.912113 208.578144 
L 344.00232 217.226231 
L 344.092527 239.061765 
L 344.27294 198.200933 
L 344.453354 232.575906 
L 344.633768 213.118327 
L 344.723975 229.765669 
L 344.814182 228.468002 
L 344.994595 201.011994 
L 345.265216 225.441214 
L 345.355423 229.549117 
L 345.44563 241.223993 
L 345.626044 232.360177 
L 345.71625 235.602694 
L 345.806457 233.008186 
L 345.896664 222.847529 
L 346.077078 237.116089 
L 346.167285 231.279064 
L 346.257492 217.658511 
L 346.347699 223.71209 
L 346.437905 242.737386 
L 346.618319 210.740371 
L 346.708526 216.577398 
L 346.798733 234.521581 
L 346.979147 214.631722 
L 347.069354 217.009679 
L 347.339974 239.494046 
L 347.430181 236.683809 
L 347.610595 220.6853 
L 347.700802 221.117582 
L 347.881215 231.062511 
L 348.061629 218.739624 
L 348.242043 240.791712 
L 348.33225 237.764922 
L 348.60287 214.848274 
L 348.783284 239.494046 
L 348.963698 221.549862 
L 349.144112 238.412931 
L 349.234319 232.792458 
L 349.414732 237.54837 
L 349.685353 222.198695 
L 349.955974 163.610233 
L 350.046181 168.799249 
L 350.136387 164.907899 
L 350.316801 151.719628 
L 350.407008 148.692838 
L 350.587422 155.395251 
L 350.677629 152.800741 
L 350.767836 157.340925 
L 350.948249 177.014232 
L 351.128663 194.093854 
L 351.309077 169.231531 
L 351.489491 202.741118 
L 351.579697 197.552924 
L 351.850318 165.77246 
L 351.940525 170.096092 
L 352.120939 186.742609 
L 352.211146 187.175714 
L 352.571973 161.015724 
L 352.66218 164.474794 
L 353.023007 200.795442 
L 353.203421 180.905583 
L 353.293628 187.823723 
L 353.474042 177.014232 
L 353.654456 185.445767 
L 353.744662 184.581206 
L 354.015283 166.637023 
L 354.195697 177.663066 
L 354.376111 167.069302 
L 354.466317 168.366968 
L 354.646731 140.910137 
L 354.827145 166.853573 
L 355.007559 153.881856 
L 355.187972 169.014979 
L 355.278179 166.853573 
L 355.458593 175.933119 
L 355.5488 162.529118 
L 355.639007 164.691347 
L 355.729214 169.231531 
L 355.909627 164.259065 
L 355.999834 174.636276 
L 356.180248 130.532926 
L 356.270455 135.721119 
L 356.360662 158.85432 
L 356.450869 153.665304 
L 356.631282 132.046321 
L 356.721489 139.613294 
L 356.811696 136.369953 
L 356.901903 121.884839 
L 356.99211 127.289585 
L 357.352937 176.365398 
L 357.533351 146.747164 
L 357.623558 151.070794 
L 357.713765 148.90939 
L 357.803972 140.693585 
L 358.255006 218.739624 
L 358.43542 212.037214 
L 358.615834 194.958415 
L 358.796247 223.928642 
L 359.066868 210.091537 
L 359.157075 199.066319 
L 359.337489 220.253019 
L 359.517902 185.878048 
L 359.608109 186.52688 
L 359.968937 243.169667 
L 360.059144 230.63023 
L 360.239557 188.472556 
L 360.510178 223.279809 
L 360.780799 194.309583 
L 360.961212 214.199442 
L 361.051419 211.389205 
L 361.231833 192.363907 
L 361.412247 211.821484 
L 361.502454 205.119074 
L 361.773074 234.738133 
L 361.863281 224.144371 
L 362.133902 236.899536 
L 362.224109 236.251527 
L 362.314316 234.305851 
L 362.404522 238.197204 
L 362.494729 237.764922 
L 362.855557 214.199442 
L 363.035971 225.657766 
L 363.216384 217.226231 
L 363.306591 220.036467 
L 363.396798 211.389205 
L 363.577212 247.493299 
L 363.667419 236.467257 
L 363.757626 217.442782 
L 363.847832 226.090046 
L 364.028246 198.849767 
L 364.118453 205.984459 
L 364.20866 210.740371 
L 364.298867 209.443528 
L 364.479281 213.334879 
L 364.659694 208.362415 
L 364.840108 183.28354 
L 365.020522 213.76716 
L 365.200936 194.958415 
L 365.381349 191.715075 
L 365.561763 204.254512 
L 365.742177 188.040275 
L 365.832384 192.796188 
L 366.012797 184.148924 
L 366.103004 191.282793 
L 366.283418 218.956176 
L 366.373625 211.604932 
L 366.463832 212.686047 
L 366.554039 209.87581 
L 366.644246 197.985204 
L 366.824659 218.523072 
L 367.005073 184.148924 
L 367.185487 205.119074 
L 367.365901 196.47181 
L 367.546314 215.929389 
L 367.636521 222.630977 
L 367.907142 189.553669 
L 367.997349 191.499346 
L 368.087556 193.228468 
L 368.358176 170.960653 
L 368.448383 162.096839 
L 368.53859 163.610233 
L 368.628797 172.041768 
L 368.809211 162.9614 
L 368.989624 169.447258 
L 369.170038 154.529865 
L 369.350452 177.446513 
L 369.440659 174.203995 
L 369.621073 150.855067 
L 370.162314 180.041021 
L 370.342728 185.230037 
L 370.523141 166.853573 
L 370.703555 184.581206 
L 370.793762 176.798503 
L 370.974176 136.586505 
L 371.154589 166.637023 
L 371.244796 159.286601 
L 371.335003 166.420471 
L 371.515417 139.613294 
L 371.605624 148.692838 
L 371.786038 176.149671 
L 371.966451 144.152654 
L 372.146865 179.392188 
L 372.327279 165.34018 
L 372.417486 171.392934 
L 372.597899 157.988936 
L 372.688106 170.960653 
L 372.778313 166.637023 
L 372.958727 172.906329 
L 373.139141 145.666049 
L 373.229348 148.90939 
L 373.319554 149.341672 
L 373.409761 145.450321 
L 373.499968 146.747164 
L 373.590175 153.881856 
L 373.770589 147.395996 
L 373.860796 154.097584 
L 373.951003 152.800741 
L 374.041209 144.152654 
L 374.131416 151.93618 
L 374.221623 151.070794 
L 374.31183 137.883348 
L 374.492244 157.556654 
L 374.582451 166.420471 
L 374.762864 148.260558 
L 374.943278 163.394504 
L 375.033485 152.151909 
L 375.304106 186.0946 
L 375.664933 157.988936 
L 375.845347 173.987443 
L 376.025761 151.93618 
L 376.115968 161.881109 
L 376.296381 194.741863 
L 376.476795 172.906329 
L 376.567002 172.906329 
L 376.747416 160.367715 
L 376.837623 163.826785 
L 377.018036 180.689855 
L 377.108243 176.798503 
L 377.19845 177.230784 
L 377.288657 190.202503 
L 377.469071 167.285855 
L 377.559278 170.744925 
L 377.649484 178.527627 
L 377.829898 157.773207 
L 378.010312 186.959161 
L 378.190726 156.908645 
L 378.371139 185.013485 
L 378.551553 158.85432 
L 378.64176 161.664557 
L 378.822174 140.477856 
L 379.092794 166.853573 
L 379.183001 166.420471 
L 379.363415 174.203995 
L 379.543829 162.313391 
L 379.724243 177.230784 
L 379.904656 158.422038 
L 379.994863 159.935433 
L 380.265484 184.148924 
L 380.355691 183.500092 
L 380.626311 159.718881 
L 380.716518 163.826785 
L 380.896932 182.635529 
L 381.077346 153.233022 
L 381.257759 173.771715 
L 381.438173 147.179443 
L 381.618587 161.664557 
L 381.799001 149.773953 
L 381.979414 164.691347 
L 382.069621 152.151909 
L 382.159828 152.368461 
L 382.430449 192.580459 
L 382.610863 186.959161 
L 382.701069 176.149671 
L 382.791276 183.500092 
L 383.061897 214.848274 
L 383.152104 209.011247 
L 383.242311 194.309583 
L 383.332518 196.687539 
L 383.512931 222.415247 
L 383.603138 222.415247 
L 383.783552 220.6853 
L 383.963966 204.471065 
L 384.144379 232.143625 
L 384.324793 203.38995 
L 384.415 206.84902 
L 384.505207 197.985204 
L 384.595414 204.038783 
L 384.685621 228.468002 
L 384.866035 188.689108 
L 384.956241 200.363162 
L 385.046448 217.875063 
L 385.226862 203.173397 
L 385.407276 223.928642 
L 385.58769 185.662319 
L 385.85831 212.686047 
L 385.948517 214.415994 
L 386.038724 219.388458 
L 386.219138 210.091537 
L 386.399551 226.522327 
L 386.489758 220.468748 
L 386.579965 212.037214 
L 386.670172 215.712837 
L 386.760379 212.686047 
L 386.850586 198.200933 
L 386.940793 199.282047 
L 387.031 222.198695 
L 387.121206 219.388458 
L 387.211413 198.634038 
L 387.30162 201.660003 
L 387.391827 221.549862 
L 387.572241 191.931627 
L 387.933068 223.063256 
L 388.023275 223.279809 
L 388.293896 204.903344 
L 388.47431 218.523072 
L 388.654723 207.713582 
L 388.835137 231.062511 
L 388.925344 230.846782 
L 389.195965 202.093107 
L 389.376378 231.279064 
L 389.556792 213.550608 
L 389.737206 229.333387 
L 389.91762 218.307345 
L 390.007826 226.954607 
L 390.278447 212.902599 
L 390.368654 202.308836 
L 390.549068 154.529865 
L 390.819688 143.936926 
L 391.000102 137.451066 
L 391.180516 143.072364 
L 391.270723 140.693585 
L 391.36093 145.233769 
L 391.541343 160.583444 
L 391.721757 178.959908 
L 391.811964 174.419724 
L 391.902171 161.232276 
L 392.082585 192.580459 
L 392.443412 159.935433 
L 392.533619 164.042513 
L 392.623826 173.987443 
L 392.714033 173.771715 
L 392.80424 176.798503 
L 392.894446 175.068557 
L 392.984653 171.177205 
L 393.165067 157.988936 
L 393.345481 172.474048 
L 393.435688 179.60874 
L 393.616101 197.768652 
L 393.796515 178.959908 
L 393.886722 186.310328 
L 394.067136 171.177205 
L 394.337756 179.17646 
L 394.51817 165.123628 
L 394.698584 175.068557 
L 394.788791 169.014979 
L 394.878998 169.66381 
L 394.969205 171.392934 
L 395.059411 166.637023 
L 395.239825 138.747909 
L 395.420239 157.773207 
L 395.510446 153.881856 
L 395.600653 152.800741 
L 395.69086 164.691347 
L 395.781066 163.394504 
L 395.871273 156.692093 
L 396.051687 175.717389 
L 396.232101 159.502329 
L 396.412515 162.529118 
L 396.502721 162.529118 
L 396.592928 167.718136 
L 396.773342 132.478602 
L 396.863549 134.640829 
L 397.043963 153.233022 
L 397.224376 134.856558 
L 397.314583 138.0999 
L 397.40479 136.369953 
L 397.494997 121.669112 
L 397.585204 126.641576 
L 397.855825 162.74567 
L 397.946031 167.501584 
L 398.126445 147.179443 
L 398.216652 149.990504 
L 398.397066 142.639259 
L 398.487273 156.692093 
L 398.487273 156.692093 
" clip-path="url(#p129197141f)" style="fill: none; stroke: #1f77b4; stroke-width: 1.5; stroke-linecap: square"/>
   </g>
   <g id="patch_3">
    <path d="M 57.6 307.584 
L 57.6 41.472 
" style="fill: none; stroke: #000000; stroke-width: 0.8; stroke-linejoin: miter; stroke-linecap: square"/>
   </g>
   <g id="patch_4">
    <path d="M 414.72 307.584 
L 414.72 41.472 
" style="fill: none; stroke: #000000; stroke-width: 0.8; stroke-linejoin: miter; stroke-linecap: square"/>
   </g>
   <g id="patch_5">
    <path d="M 57.6 307.584 
L 414.72 307.584 
" style="fill: none; stroke: #000000; stroke-width: 0.8; stroke-linejoin: miter; stroke-linecap: square"/>
   </g>
   <g id="patch_6">
    <path d="M 57.6 41.472 
L 414.72 41.472 
" style="fill: none; stroke: #000000; stroke-width: 0.8; stroke-linejoin: miter; stroke-linecap: square"/>
   </g>
   <g id="legend_1">
    <g id="patch_7">
     <path d="M 354.074688 64.150125 
L 407.72 64.150125 
Q 409.72 64.150125 409.72 62.150125 
L 409.72 48.472 
Q 409.72 46.472 407.72 46.472 
L 354.074688 46.472 
Q 352.074688 46.472 352.074688 48.472 
L 352.074688 62.150125 
Q 352.074688 64.150125 354.074688 64.150125 
z
" style="fill: #ffffff; opacity: 0.8; stroke: #cccccc; stroke-linejoin: miter"/>
    </g>
    <g id="line2d_18">
     <path d="M 356.074688 54.570438 
L 366.074688 54.570438 
L 376.074688 54.570438 
" style="fill: none; stroke: #1f77b4; stroke-width: 1.5; stroke-linecap: square"/>
    </g>
    <g id="text_17">
     <!-- set3 -->
     <g transform="translate(384.074688 58.070438)scale(0.1 -0.1)">
      <defs>
       <path id="DejaVuSans-73" d="M 2834 3397 
L 2834 2853 
Q 2591 2978 2328 3040 
Q 2066 3103 1784 3103 
Q 1356 3103 1142 2972 
Q 928 2841 928 2578 
Q 928 2378 1081 2264 
Q 1234 2150 1697 2047 
L 1894 2003 
Q 2506 1872 2764 1633 
Q 3022 1394 3022 966 
Q 3022 478 2636 193 
Q 2250 -91 1575 -91 
Q 1294 -91 989 -36 
Q 684 19 347 128 
L 347 722 
Q 666 556 975 473 
Q 1284 391 1588 391 
Q 1994 391 2212 530 
Q 2431 669 2431 922 
Q 2431 1156 2273 1281 
Q 2116 1406 1581 1522 
L 1381 1569 
Q 847 1681 609 1914 
Q 372 2147 372 2553 
Q 372 3047 722 3315 
Q 1072 3584 1716 3584 
Q 2034 3584 2315 3537 
Q 2597 3491 2834 3397 
z
" transform="scale(0.015625)"/>
       <path id="DejaVuSans-65" d="M 3597 1894 
L 3597 1613 
L 953 1613 
Q 991 1019 1311 708 
Q 1631 397 2203 397 
Q 2534 397 2845 478 
Q 3156 559 3463 722 
L 3463 178 
Q 3153 47 2828 -22 
Q 2503 -91 2169 -91 
Q 1331 -91 842 396 
Q 353 884 353 1716 
Q 353 2575 817 3079 
Q 1281 3584 2069 3584 
Q 2775 3584 3186 3129 
Q 3597 2675 3597 1894 
z
M 3022 2063 
Q 3016 2534 2758 2815 
Q 2500 3097 2075 3097 
Q 1594 3097 1305 2825 
Q 1016 2553 972 2059 
L 3022 2063 
z
" transform="scale(0.015625)"/>
       <path id="DejaVuSans-74" d="M 1172 4494 
L 1172 3500 
L 2356 3500 
L 2356 3053 
L 1172 3053 
L 1172 1153 
Q 1172 725 1289 603 
Q 1406 481 1766 481 
L 2356 481 
L 2356 0 
L 1766 0 
Q 1100 0 847 248 
Q 594 497 594 1153 
L 594 3053 
L 172 3053 
L 172 3500 
L 594 3500 
L 594 4494 
L 1172 4494 
z
" transform="scale(0.015625)"/>
      </defs>
      <use xlink:href="#DejaVuSans-73"/>
      <use xlink:href="#DejaVuSans-65" x="52.099609"/>
      <use xlink:href="#DejaVuSans-74" x="113.623047"/>
      <use xlink:href="#DejaVuSans-33" x="152.832031"/>
     </g>
    </g>
   </g>
  </g>
 </g>
 <defs>
  <clipPath id="p129197141f">
   <rect x="57.6" y="41.472" width="357.12" height="266.112"/>
  </clipPath>
 </defs>
</svg>
