<?xml version="1.0" encoding="utf-8" standalone="no"?>
<!DOCTYPE svg PUBLIC "-//W3C//DTD SVG 1.1//EN"
  "http://www.w3.org/Graphics/SVG/1.1/DTD/svg11.dtd">
<svg xmlns:xlink="http://www.w3.org/1999/xlink" width="460.8pt" height="345.6pt" viewBox="0 0 460.8 345.6" xmlns="http://www.w3.org/2000/svg" version="1.1">
 <metadata>
  <rdf:RDF xmlns:dc="http://purl.org/dc/elements/1.1/" xmlns:cc="http://creativecommons.org/ns#" xmlns:rdf="http://www.w3.org/1999/02/22-rdf-syntax-ns#">
   <cc:Work>
    <dc:type rdf:resource="http://purl.org/dc/dcmitype/StillImage"/>
    <dc:date>2022-08-11T15:18:02.760258</dc:date>
    <dc:format>image/svg+xml</dc:format>
    <dc:creator>
     <cc:Agent>
      <dc:title>Matplotlib v3.5.2, https://matplotlib.org/</dc:title>
     </cc:Agent>
    </dc:creator>
   </cc:Work>
  </rdf:RDF>
 </metadata>
 <defs>
  <style type="text/css">*{stroke-linejoin: round; stroke-linecap: butt}</style>
 </defs>
 <g id="figure_1">
  <g id="patch_1">
   <path d="M 0 345.6 
L 460.8 345.6 
L 460.8 0 
L 0 0 
z
" style="fill: #ffffff"/>
  </g>
  <g id="axes_1">
   <g id="patch_2">
    <path d="M 57.6 307.584 
L 414.72 307.584 
L 414.72 41.472 
L 57.6 41.472 
z
" style="fill: #ffffff"/>
   </g>
   <g id="matplotlib.axis_1">
    <g id="xtick_1">
     <g id="line2d_1">
      <defs>
       <path id="m2a0e8e102e" d="M 0 0 
L 0 3.5 
" style="stroke: #000000; stroke-width: 0.8"/>
      </defs>
      <g>
       <use xlink:href="#m2a0e8e102e" x="73.832727" y="307.584" style="stroke: #000000; stroke-width: 0.8"/>
      </g>
     </g>
     <g id="text_1">
      <!-- 0 -->
      <g transform="translate(70.651477 322.182437)scale(0.1 -0.1)">
       <defs>
        <path id="DejaVuSans-30" d="M 2034 4250 
Q 1547 4250 1301 3770 
Q 1056 3291 1056 2328 
Q 1056 1369 1301 889 
Q 1547 409 2034 409 
Q 2525 409 2770 889 
Q 3016 1369 3016 2328 
Q 3016 3291 2770 3770 
Q 2525 4250 2034 4250 
z
M 2034 4750 
Q 2819 4750 3233 4129 
Q 3647 3509 3647 2328 
Q 3647 1150 3233 529 
Q 2819 -91 2034 -91 
Q 1250 -91 836 529 
Q 422 1150 422 2328 
Q 422 3509 836 4129 
Q 1250 4750 2034 4750 
z
" transform="scale(0.015625)"/>
       </defs>
       <use xlink:href="#DejaVuSans-30"/>
      </g>
     </g>
    </g>
    <g id="xtick_2">
     <g id="line2d_2">
      <g>
       <use xlink:href="#m2a0e8e102e" x="118.936165" y="307.584" style="stroke: #000000; stroke-width: 0.8"/>
      </g>
     </g>
     <g id="text_2">
      <!-- 500 -->
      <g transform="translate(109.392415 322.182437)scale(0.1 -0.1)">
       <defs>
        <path id="DejaVuSans-35" d="M 691 4666 
L 3169 4666 
L 3169 4134 
L 1269 4134 
L 1269 2991 
Q 1406 3038 1543 3061 
Q 1681 3084 1819 3084 
Q 2600 3084 3056 2656 
Q 3513 2228 3513 1497 
Q 3513 744 3044 326 
Q 2575 -91 1722 -91 
Q 1428 -91 1123 -41 
Q 819 9 494 109 
L 494 744 
Q 775 591 1075 516 
Q 1375 441 1709 441 
Q 2250 441 2565 725 
Q 2881 1009 2881 1497 
Q 2881 1984 2565 2268 
Q 2250 2553 1709 2553 
Q 1456 2553 1204 2497 
Q 953 2441 691 2322 
L 691 4666 
z
" transform="scale(0.015625)"/>
       </defs>
       <use xlink:href="#DejaVuSans-35"/>
       <use xlink:href="#DejaVuSans-30" x="63.623047"/>
       <use xlink:href="#DejaVuSans-30" x="127.246094"/>
      </g>
     </g>
    </g>
    <g id="xtick_3">
     <g id="line2d_3">
      <g>
       <use xlink:href="#m2a0e8e102e" x="164.039603" y="307.584" style="stroke: #000000; stroke-width: 0.8"/>
      </g>
     </g>
     <g id="text_3">
      <!-- 1000 -->
      <g transform="translate(151.314603 322.182437)scale(0.1 -0.1)">
       <defs>
        <path id="DejaVuSans-31" d="M 794 531 
L 1825 531 
L 1825 4091 
L 703 3866 
L 703 4441 
L 1819 4666 
L 2450 4666 
L 2450 531 
L 3481 531 
L 3481 0 
L 794 0 
L 794 531 
z
" transform="scale(0.015625)"/>
       </defs>
       <use xlink:href="#DejaVuSans-31"/>
       <use xlink:href="#DejaVuSans-30" x="63.623047"/>
       <use xlink:href="#DejaVuSans-30" x="127.246094"/>
       <use xlink:href="#DejaVuSans-30" x="190.869141"/>
      </g>
     </g>
    </g>
    <g id="xtick_4">
     <g id="line2d_4">
      <g>
       <use xlink:href="#m2a0e8e102e" x="209.143041" y="307.584" style="stroke: #000000; stroke-width: 0.8"/>
      </g>
     </g>
     <g id="text_4">
      <!-- 1500 -->
      <g transform="translate(196.418041 322.182437)scale(0.1 -0.1)">
       <use xlink:href="#DejaVuSans-31"/>
       <use xlink:href="#DejaVuSans-35" x="63.623047"/>
       <use xlink:href="#DejaVuSans-30" x="127.246094"/>
       <use xlink:href="#DejaVuSans-30" x="190.869141"/>
      </g>
     </g>
    </g>
    <g id="xtick_5">
     <g id="line2d_5">
      <g>
       <use xlink:href="#m2a0e8e102e" x="254.246479" y="307.584" style="stroke: #000000; stroke-width: 0.8"/>
      </g>
     </g>
     <g id="text_5">
      <!-- 2000 -->
      <g transform="translate(241.521479 322.182437)scale(0.1 -0.1)">
       <defs>
        <path id="DejaVuSans-32" d="M 1228 531 
L 3431 531 
L 3431 0 
L 469 0 
L 469 531 
Q 828 903 1448 1529 
Q 2069 2156 2228 2338 
Q 2531 2678 2651 2914 
Q 2772 3150 2772 3378 
Q 2772 3750 2511 3984 
Q 2250 4219 1831 4219 
Q 1534 4219 1204 4116 
Q 875 4013 500 3803 
L 500 4441 
Q 881 4594 1212 4672 
Q 1544 4750 1819 4750 
Q 2544 4750 2975 4387 
Q 3406 4025 3406 3419 
Q 3406 3131 3298 2873 
Q 3191 2616 2906 2266 
Q 2828 2175 2409 1742 
Q 1991 1309 1228 531 
z
" transform="scale(0.015625)"/>
       </defs>
       <use xlink:href="#DejaVuSans-32"/>
       <use xlink:href="#DejaVuSans-30" x="63.623047"/>
       <use xlink:href="#DejaVuSans-30" x="127.246094"/>
       <use xlink:href="#DejaVuSans-30" x="190.869141"/>
      </g>
     </g>
    </g>
    <g id="xtick_6">
     <g id="line2d_6">
      <g>
       <use xlink:href="#m2a0e8e102e" x="299.349916" y="307.584" style="stroke: #000000; stroke-width: 0.8"/>
      </g>
     </g>
     <g id="text_6">
      <!-- 2500 -->
      <g transform="translate(286.624916 322.182437)scale(0.1 -0.1)">
       <use xlink:href="#DejaVuSans-32"/>
       <use xlink:href="#DejaVuSans-35" x="63.623047"/>
       <use xlink:href="#DejaVuSans-30" x="127.246094"/>
       <use xlink:href="#DejaVuSans-30" x="190.869141"/>
      </g>
     </g>
    </g>
    <g id="xtick_7">
     <g id="line2d_7">
      <g>
       <use xlink:href="#m2a0e8e102e" x="344.453354" y="307.584" style="stroke: #000000; stroke-width: 0.8"/>
      </g>
     </g>
     <g id="text_7">
      <!-- 3000 -->
      <g transform="translate(331.728354 322.182437)scale(0.1 -0.1)">
       <defs>
        <path id="DejaVuSans-33" d="M 2597 2516 
Q 3050 2419 3304 2112 
Q 3559 1806 3559 1356 
Q 3559 666 3084 287 
Q 2609 -91 1734 -91 
Q 1441 -91 1130 -33 
Q 819 25 488 141 
L 488 750 
Q 750 597 1062 519 
Q 1375 441 1716 441 
Q 2309 441 2620 675 
Q 2931 909 2931 1356 
Q 2931 1769 2642 2001 
Q 2353 2234 1838 2234 
L 1294 2234 
L 1294 2753 
L 1863 2753 
Q 2328 2753 2575 2939 
Q 2822 3125 2822 3475 
Q 2822 3834 2567 4026 
Q 2313 4219 1838 4219 
Q 1578 4219 1281 4162 
Q 984 4106 628 3988 
L 628 4550 
Q 988 4650 1302 4700 
Q 1616 4750 1894 4750 
Q 2613 4750 3031 4423 
Q 3450 4097 3450 3541 
Q 3450 3153 3228 2886 
Q 3006 2619 2597 2516 
z
" transform="scale(0.015625)"/>
       </defs>
       <use xlink:href="#DejaVuSans-33"/>
       <use xlink:href="#DejaVuSans-30" x="63.623047"/>
       <use xlink:href="#DejaVuSans-30" x="127.246094"/>
       <use xlink:href="#DejaVuSans-30" x="190.869141"/>
      </g>
     </g>
    </g>
    <g id="xtick_8">
     <g id="line2d_8">
      <g>
       <use xlink:href="#m2a0e8e102e" x="389.556792" y="307.584" style="stroke: #000000; stroke-width: 0.8"/>
      </g>
     </g>
     <g id="text_8">
      <!-- 3500 -->
      <g transform="translate(376.831792 322.182437)scale(0.1 -0.1)">
       <use xlink:href="#DejaVuSans-33"/>
       <use xlink:href="#DejaVuSans-35" x="63.623047"/>
       <use xlink:href="#DejaVuSans-30" x="127.246094"/>
       <use xlink:href="#DejaVuSans-30" x="190.869141"/>
      </g>
     </g>
    </g>
   </g>
   <g id="matplotlib.axis_2">
    <g id="ytick_1">
     <g id="line2d_9">
      <defs>
       <path id="md1464323d4" d="M 0 0 
L -3.5 0 
" style="stroke: #000000; stroke-width: 0.8"/>
      </defs>
      <g>
       <use xlink:href="#md1464323d4" x="57.6" y="279.956031" style="stroke: #000000; stroke-width: 0.8"/>
      </g>
     </g>
     <g id="text_9">
      <!-- 3900 -->
      <g transform="translate(25.15 283.75525)scale(0.1 -0.1)">
       <defs>
        <path id="DejaVuSans-39" d="M 703 97 
L 703 672 
Q 941 559 1184 500 
Q 1428 441 1663 441 
Q 2288 441 2617 861 
Q 2947 1281 2994 2138 
Q 2813 1869 2534 1725 
Q 2256 1581 1919 1581 
Q 1219 1581 811 2004 
Q 403 2428 403 3163 
Q 403 3881 828 4315 
Q 1253 4750 1959 4750 
Q 2769 4750 3195 4129 
Q 3622 3509 3622 2328 
Q 3622 1225 3098 567 
Q 2575 -91 1691 -91 
Q 1453 -91 1209 -44 
Q 966 3 703 97 
z
M 1959 2075 
Q 2384 2075 2632 2365 
Q 2881 2656 2881 3163 
Q 2881 3666 2632 3958 
Q 2384 4250 1959 4250 
Q 1534 4250 1286 3958 
Q 1038 3666 1038 3163 
Q 1038 2656 1286 2365 
Q 1534 2075 1959 2075 
z
" transform="scale(0.015625)"/>
       </defs>
       <use xlink:href="#DejaVuSans-33"/>
       <use xlink:href="#DejaVuSans-39" x="63.623047"/>
       <use xlink:href="#DejaVuSans-30" x="127.246094"/>
       <use xlink:href="#DejaVuSans-30" x="190.869141"/>
      </g>
     </g>
    </g>
    <g id="ytick_2">
     <g id="line2d_10">
      <g>
       <use xlink:href="#md1464323d4" x="57.6" y="235.25155" style="stroke: #000000; stroke-width: 0.8"/>
      </g>
     </g>
     <g id="text_10">
      <!-- 4000 -->
      <g transform="translate(25.15 239.050769)scale(0.1 -0.1)">
       <defs>
        <path id="DejaVuSans-34" d="M 2419 4116 
L 825 1625 
L 2419 1625 
L 2419 4116 
z
M 2253 4666 
L 3047 4666 
L 3047 1625 
L 3713 1625 
L 3713 1100 
L 3047 1100 
L 3047 0 
L 2419 0 
L 2419 1100 
L 313 1100 
L 313 1709 
L 2253 4666 
z
" transform="scale(0.015625)"/>
       </defs>
       <use xlink:href="#DejaVuSans-34"/>
       <use xlink:href="#DejaVuSans-30" x="63.623047"/>
       <use xlink:href="#DejaVuSans-30" x="127.246094"/>
       <use xlink:href="#DejaVuSans-30" x="190.869141"/>
      </g>
     </g>
    </g>
    <g id="ytick_3">
     <g id="line2d_11">
      <g>
       <use xlink:href="#md1464323d4" x="57.6" y="190.547069" style="stroke: #000000; stroke-width: 0.8"/>
      </g>
     </g>
     <g id="text_11">
      <!-- 4100 -->
      <g transform="translate(25.15 194.346288)scale(0.1 -0.1)">
       <use xlink:href="#DejaVuSans-34"/>
       <use xlink:href="#DejaVuSans-31" x="63.623047"/>
       <use xlink:href="#DejaVuSans-30" x="127.246094"/>
       <use xlink:href="#DejaVuSans-30" x="190.869141"/>
      </g>
     </g>
    </g>
    <g id="ytick_4">
     <g id="line2d_12">
      <g>
       <use xlink:href="#md1464323d4" x="57.6" y="145.842588" style="stroke: #000000; stroke-width: 0.8"/>
      </g>
     </g>
     <g id="text_12">
      <!-- 4200 -->
      <g transform="translate(25.15 149.641807)scale(0.1 -0.1)">
       <use xlink:href="#DejaVuSans-34"/>
       <use xlink:href="#DejaVuSans-32" x="63.623047"/>
       <use xlink:href="#DejaVuSans-30" x="127.246094"/>
       <use xlink:href="#DejaVuSans-30" x="190.869141"/>
      </g>
     </g>
    </g>
    <g id="ytick_5">
     <g id="line2d_13">
      <g>
       <use xlink:href="#md1464323d4" x="57.6" y="101.138108" style="stroke: #000000; stroke-width: 0.8"/>
      </g>
     </g>
     <g id="text_13">
      <!-- 4300 -->
      <g transform="translate(25.15 104.937326)scale(0.1 -0.1)">
       <use xlink:href="#DejaVuSans-34"/>
       <use xlink:href="#DejaVuSans-33" x="63.623047"/>
       <use xlink:href="#DejaVuSans-30" x="127.246094"/>
       <use xlink:href="#DejaVuSans-30" x="190.869141"/>
      </g>
     </g>
    </g>
    <g id="ytick_6">
     <g id="line2d_14">
      <g>
       <use xlink:href="#md1464323d4" x="57.6" y="56.433627" style="stroke: #000000; stroke-width: 0.8"/>
      </g>
     </g>
     <g id="text_14">
      <!-- 4400 -->
      <g transform="translate(25.15 60.232846)scale(0.1 -0.1)">
       <use xlink:href="#DejaVuSans-34"/>
       <use xlink:href="#DejaVuSans-34" x="63.623047"/>
       <use xlink:href="#DejaVuSans-30" x="127.246094"/>
       <use xlink:href="#DejaVuSans-30" x="190.869141"/>
      </g>
     </g>
    </g>
   </g>
   <g id="line2d_15">
    <path d="M 73.832727 141.429549 
L 73.922934 140.684329 
L 74.013141 136.500487 
L 74.554382 84.861137 
L 74.644589 85.778146 
L 75.366244 138.79312 
L 75.456451 139.308924 
L 75.546658 138.85031 
L 75.727072 147.103394 
L 75.817279 144.123169 
L 76.35852 161.374558 
L 76.538934 147.562008 
L 76.62914 148.30701 
L 76.989968 161.661164 
L 77.170382 158.336923 
L 77.350795 165.902196 
L 77.621416 150.599643 
L 77.982244 158.738128 
L 78.07245 156.388306 
L 78.252864 159.712547 
L 78.433278 149.854423 
L 78.703899 158.107725 
L 78.974519 168.538626 
L 79.605967 143.034152 
L 79.786381 150.198438 
L 79.876588 146.186385 
L 79.966795 148.24982 
L 80.057002 152.892057 
L 80.147209 152.204464 
L 80.237415 150.828841 
L 80.327622 154.038483 
L 80.417829 153.064065 
L 80.598243 145.040178 
L 80.68845 149.682634 
L 80.778657 149.05223 
L 80.868864 149.338618 
L 81.229691 157.018709 
L 81.319898 153.293263 
L 81.410105 154.840893 
L 81.590519 160.285541 
L 81.680725 160.170942 
L 81.861139 158.107725 
L 82.041553 235.30885 
L 82.13176 235.881953 
L 82.312174 231.067708 
L 82.40238 231.468913 
L 82.492587 233.589429 
L 82.763208 253.076043 
L 82.853415 251.872427 
L 83.033829 240.581708 
L 83.124035 241.670616 
L 83.394656 248.9495 
L 83.484863 246.771576 
L 83.755484 253.821154 
L 83.84569 252.961444 
L 84.026104 262.246137 
L 84.116311 260.584125 
L 84.206518 262.991248 
L 84.386932 274.167368 
L 84.477139 275.886788 
L 84.657552 281.618151 
L 84.747759 281.73275 
L 84.837966 282.59246 
L 85.01838 275.084377 
L 85.108587 276.918396 
L 85.289 285.572795 
L 85.379207 283.394871 
L 85.649828 293.080769 
L 85.740035 291.18945 
L 85.830242 289.355432 
L 86.010655 294.112486 
L 86.281276 285.744693 
L 86.46169 290.32974 
L 86.551897 290.215141 
L 86.642104 287.693311 
L 86.822517 295.488 
L 87.093138 284.827684 
L 87.183345 285.056882 
L 87.273552 283.681368 
L 87.363759 285.056882 
L 87.544172 290.559048 
L 87.724586 287.521413 
L 87.814793 289.240833 
L 87.995207 287.062908 
L 88.085414 288.896927 
L 88.175621 288.037217 
L 88.265827 284.082573 
L 88.446241 287.808019 
L 88.626655 283.45217 
L 88.716862 284.197172 
L 88.987482 274.511274 
L 89.167896 275.084377 
L 89.258103 275.256276 
L 89.438517 274.339266 
L 89.618931 276.459891 
L 89.889551 275.256276 
L 89.979758 275.714889 
L 90.160172 113.345836 
L 90.250379 111.225211 
L 90.340586 111.798424 
L 90.520999 109.792398 
L 90.611206 110.766815 
L 90.79162 109.5632 
L 91.062241 111.33981 
L 91.152447 110.422801 
L 91.242654 111.798424 
L 91.332861 116.268872 
L 91.513275 110.709407 
L 91.693689 118.676103 
L 91.783896 115.867666 
L 91.874102 116.899275 
L 91.964309 119.306506 
L 92.144723 118.160299 
L 92.23493 119.650303 
L 92.415344 125.037761 
L 92.595757 116.326062 
L 92.776171 117.930883 
L 92.866378 117.185881 
L 92.956585 117.930883 
L 93.046792 116.842085 
L 93.227206 110.938605 
L 93.407619 119.0199 
L 93.497826 116.440879 
L 93.67824 127.272985 
L 93.858654 115.294454 
L 93.948861 117.185881 
L 94.309688 126.355975 
L 94.580309 116.784676 
L 94.760722 120.395523 
L 94.941136 117.644277 
L 95.031343 118.446687 
L 95.12155 118.847892 
L 95.211757 117.930883 
L 95.482377 125.496375 
L 95.662791 117.587087 
L 95.752998 119.535704 
L 95.843205 116.670077 
L 96.113826 81.880692 
L 96.294239 53.568 
L 96.384446 57.121438 
L 96.474653 56.147021 
L 96.835481 73.39841 
L 97.015894 91.968014 
L 97.106101 94.088639 
L 97.376722 106.812172 
L 97.917963 124.808563 
L 98.00817 122.917135 
L 98.098377 117.071282 
L 98.188584 182.121977 
L 98.278791 181.835371 
L 98.459204 186.879032 
L 98.639618 178.969744 
L 98.820032 183.955996 
L 99.000446 178.453939 
L 99.180859 179.714746 
L 99.271066 178.740546 
L 99.361273 179.198941 
L 99.631894 181.663582 
L 99.722101 181.434165 
L 99.812307 179.714746 
L 99.902514 181.94997 
L 99.992721 181.319567 
L 100.263342 164.297594 
L 100.353549 166.074204 
L 100.533962 175.702912 
L 100.624169 174.499296 
L 100.714376 175.301706 
L 100.804583 177.135725 
L 101.075204 170.888667 
L 101.165411 172.550678 
L 101.255617 176.791928 
L 101.345824 175.932109 
L 101.436031 174.785902 
L 101.616445 181.147559 
L 101.796859 171.690859 
L 101.977272 176.104117 
L 102.067479 176.218715 
L 102.157686 177.078316 
L 102.428307 173.524878 
L 102.608721 174.785902 
L 103.240169 164.583982 
L 103.330376 165.100004 
L 103.420582 166.934023 
L 103.600996 158.050317 
L 103.78141 167.908223 
L 103.871617 164.240185 
L 103.961824 167.793624 
L 104.052031 176.104117 
L 104.232444 166.074204 
L 104.412858 174.384697 
L 104.503065 173.754294 
L 104.683479 173.181081 
L 104.773686 170.372644 
L 104.863892 172.550678 
L 104.954099 177.651529 
L 105.044306 177.021126 
L 105.134513 177.193134 
L 105.22472 180.97577 
L 105.405134 173.926083 
L 105.495341 175.473714 
L 105.585548 174.613895 
L 105.675754 171.805676 
L 105.856168 177.479522 
L 105.946375 176.963717 
L 106.126789 179.542957 
L 106.216996 178.855145 
L 106.307203 120.223516 
L 106.397409 131.91544 
L 106.577823 147.5046 
L 106.66803 143.893971 
L 106.758237 144.237767 
L 106.938651 145.842588 
L 107.209271 162.807371 
L 107.299478 159.311341 
L 107.389685 156.674912 
L 107.570099 164.010987 
L 107.660306 159.712547 
L 107.750513 161.603756 
L 108.021133 172.837285 
L 108.11134 174.95791 
L 108.201547 173.410279 
L 108.381961 182.523183 
L 108.562374 177.651529 
L 108.652581 178.855145 
L 108.832995 164.813398 
L 109.013409 181.147559 
L 109.103616 178.511348 
L 109.284029 171.805676 
L 109.374236 171.805676 
L 109.55465 165.157194 
L 109.735064 170.544652 
L 109.825271 165.672999 
L 110.005684 176.906527 
L 110.095891 173.123891 
L 110.276305 164.526791 
L 110.366512 163.781789 
L 110.456719 164.526791 
L 110.546926 166.246211 
L 110.637133 165.329202 
L 110.727339 166.991213 
L 110.907753 173.29568 
L 111.178374 153.293263 
L 111.358788 159.597729 
L 111.448994 159.311341 
L 111.539201 158.566121 
L 111.719615 166.532818 
L 111.809822 164.985187 
L 111.900029 161.202551 
L 111.990236 162.406166 
L 112.080443 162.06237 
L 112.351063 154.726076 
L 112.44127 154.726076 
L 112.531477 158.795319 
L 112.621684 157.419914 
L 112.711891 157.534513 
L 112.892304 167.048622 
L 112.982511 166.475409 
L 113.162925 168.481435 
L 113.343339 172.378671 
L 113.523753 166.704607 
L 113.613959 167.679025 
L 113.794373 164.469383 
L 113.974787 168.825232 
L 114.155201 166.532818 
L 114.245408 172.550678 
L 114.335614 171.977465 
L 114.425821 170.315454 
L 114.516028 173.181081 
L 114.606235 172.264072 
L 114.967063 157.133308 
L 115.057269 157.534513 
L 115.237683 148.24982 
L 115.688718 174.613895 
L 115.869131 169.169247 
L 115.959338 175.530904 
L 116.049545 174.270098 
L 116.139752 169.455635 
L 116.590786 179.198941 
L 116.7712 181.262376 
L 116.861407 180.058761 
L 116.951614 180.861171 
L 117.041821 178.568538 
L 117.222234 170.372644 
L 117.492855 176.161307 
L 117.583062 176.791928 
L 117.673269 175.932109 
L 117.853683 181.090369 
L 117.943889 180.746572 
L 118.21451 170.77385 
L 118.394924 170.77385 
L 118.575338 174.327288 
L 118.665544 173.181081 
L 118.845958 176.104117 
L 119.026372 172.493269 
L 119.206786 173.868893 
L 119.296993 172.951883 
L 119.387199 173.582287 
L 119.567613 180.517156 
L 119.748027 175.129699 
L 120.018648 165.386392 
L 120.199061 161.947771 
L 120.289268 165.214603 
L 120.469682 160.285541 
L 120.650096 166.303402 
L 120.830509 162.979379 
L 121.191337 159.081925 
L 121.281544 159.368532 
L 121.552164 164.469383 
L 121.642371 162.635364 
L 121.912992 166.934023 
L 122.003199 166.704607 
L 122.093406 167.564426 
L 122.183613 170.945857 
L 122.273819 170.831258 
L 122.364026 167.105812 
L 122.454233 169.914249 
L 122.634647 121.885527 
L 122.724854 120.79651 
L 122.905268 117.701686 
L 122.995475 119.134499 
L 123.085681 117.988292 
L 123.175888 121.885527 
L 123.356302 137.360306 
L 123.626923 121.140525 
L 123.71713 121.312533 
L 123.897543 124.751154 
L 123.98775 124.579365 
L 124.077957 123.891553 
L 124.619198 126.585173 
L 125.340853 145.555982 
L 125.611474 142.804954 
L 125.701681 143.09156 
L 125.882095 153.006874 
L 126.062508 148.077813 
L 126.242922 156.330897 
L 126.333129 155.528487 
L 126.423336 153.236072 
L 126.513543 154.153082 
L 126.60375 158.910136 
L 126.693956 158.394332 
L 126.784163 151.631251 
L 126.87437 152.147055 
L 127.054784 159.253933 
L 127.144991 157.821119 
L 127.415611 161.087951 
L 127.505818 160.973352 
L 127.686232 159.941744 
L 127.776439 160.858754 
L 127.956853 159.540539 
L 128.137266 167.277819 
L 128.31768 159.655138 
L 128.498094 167.277819 
L 128.588301 166.017013 
L 129.039335 171.690859 
L 129.219749 172.378671 
L 129.400163 164.927997 
L 129.49037 165.787597 
L 129.580576 166.819206 
L 129.670783 166.418219 
L 130.121818 173.467688 
L 130.392438 174.155499 
L 130.572852 175.530904 
L 130.663059 186.879032 
L 130.753266 184.930414 
L 130.843473 185.732824 
L 130.93368 184.987604 
L 131.2043 179.772154 
L 131.294507 181.548764 
L 131.474921 186.019213 
L 131.655335 180.23055 
L 131.925955 187.738632 
L 132.106369 186.535235 
L 132.286783 193.470105 
L 132.37699 191.979883 
L 132.467196 192.724994 
L 132.557403 196.50763 
L 132.737817 190.776267 
L 132.828024 192.20908 
L 132.918231 193.584704 
L 133.008438 193.240798 
L 133.279058 187.968049 
L 133.369265 189.515461 
L 133.549679 187.337427 
L 133.639886 188.197246 
L 133.8203 183.612199 
L 134.000713 189.572651 
L 134.09092 186.535235 
L 134.181127 187.165638 
L 134.271334 193.0689 
L 134.361541 191.750685 
L 134.541955 184.128003 
L 134.722368 188.025239 
L 134.812575 187.165638 
L 134.902782 187.796041 
L 135.173403 180.402557 
L 135.353816 185.618007 
L 135.53423 179.600147 
L 135.624437 180.574565 
L 135.714644 180.459966 
L 135.804851 178.912335 
L 136.075471 186.649834 
L 136.255885 173.410279 
L 136.346092 173.811484 
L 136.436299 175.874919 
L 136.616713 164.412192 
L 136.797126 149.682634 
L 136.97754 153.236072 
L 137.157954 150.656833 
L 137.879609 173.29568 
L 137.969816 173.926083 
L 138.060023 173.29568 
L 138.15023 174.785902 
L 138.240436 174.671303 
L 138.330643 173.868893 
L 138.511057 174.95791 
L 138.691471 166.36081 
L 138.781678 181.090369 
L 138.871885 179.31354 
L 138.962091 180.517156 
L 139.052298 184.242602 
L 139.232712 179.542957 
L 139.322919 181.548764 
L 139.413126 183.268184 
L 139.59354 174.212689 
L 139.773953 177.995326 
L 139.954367 174.212689 
L 140.224988 181.147559 
L 140.405402 180.345367 
L 140.495608 185.732824 
L 140.585815 185.21702 
L 140.766229 170.77385 
L 140.856436 172.607868 
L 140.946643 171.51907 
L 141.03685 174.327288 
L 141.127057 180.803763 
L 141.217263 180.631755 
L 141.668298 172.665277 
L 141.848712 175.129699 
L 141.938918 174.900501 
L 142.209539 182.924388 
L 142.389953 174.499296 
L 142.570367 181.434165 
L 142.660573 180.459966 
L 142.75078 180.631755 
L 142.840987 181.147559 
L 143.021401 178.969744 
L 143.111608 179.428358 
L 143.382228 172.722686 
L 143.562642 172.894475 
L 143.652849 172.665277 
L 143.92347 176.791928 
L 144.013677 181.03296 
L 144.19409 172.493269 
L 144.374504 182.924388 
L 144.464711 180.918362 
L 144.554918 181.090369 
L 144.735332 187.452244 
L 144.915745 186.535235 
L 145.276573 188.483853 
L 145.36678 186.19122 
L 145.456987 187.280237 
L 145.547193 191.40667 
L 145.6374 189.63006 
L 145.727607 185.446218 
L 145.817814 185.675416 
L 145.998228 187.337427 
L 146.178642 180.861171 
L 146.359055 187.051039 
L 146.539469 181.892779 
L 146.719883 187.91064 
L 146.81009 186.936222 
L 146.900297 156.732102 
L 146.990503 159.884336 
L 147.170917 167.793624 
L 147.261124 166.188802 
L 147.351331 166.762015 
L 147.531745 158.451522 
L 147.802365 168.653443 
L 147.982779 165.157194 
L 148.163193 166.704607 
L 148.343607 163.83898 
L 148.433813 165.100004 
L 148.52402 164.583982 
L 148.614227 166.36081 
L 148.884848 174.671303 
L 148.975055 176.677111 
L 149.245675 174.900501 
L 149.426089 164.182995 
L 149.516296 164.469383 
L 149.786917 173.639695 
L 149.96733 164.010987 
L 150.057537 167.621616 
L 150.147744 167.277819 
L 150.237951 165.5584 
L 150.598778 175.244298 
L 150.688985 174.327288 
L 150.959606 165.787597 
L 151.14002 166.991213 
L 151.230227 166.017013 
L 151.320433 168.309428 
L 151.500847 177.651529 
L 151.591054 174.384697 
L 151.771468 159.368532 
L 151.951882 166.303402 
L 152.132295 163.437775 
L 152.312709 167.220411 
L 152.493123 166.36081 
L 152.58333 166.991213 
L 152.763743 159.196524 
L 152.85395 160.22835 
L 153.034364 165.042595 
L 153.304985 164.010987 
L 153.575605 176.963717 
L 153.756019 173.23849 
L 154.116847 180.746572 
L 154.207053 180.517156 
L 154.387467 172.951883 
L 154.567881 182.293985 
L 154.658088 176.906527 
L 154.838502 186.477826 
L 154.928708 182.179386 
L 155.018915 158.050317 
L 155.109122 160.457549 
L 155.199329 161.087951 
L 155.560157 145.78518 
L 155.830777 142.575756 
L 155.920984 143.148751 
L 156.281812 162.979379 
L 156.462225 160.514739 
L 156.642639 168.022821 
L 156.823053 165.271793 
L 156.91326 166.876614 
L 157.003467 166.131612 
L 157.093673 166.246211 
L 157.274087 173.983491 
L 157.544708 171.748267 
L 157.725122 165.443801 
L 158.35657 174.384697 
L 158.446777 174.441887 
L 158.62719 172.837285 
L 158.897811 165.672999 
L 159.168432 172.951883 
L 159.258639 171.175055 
L 159.348845 171.51907 
L 159.439052 172.264072 
L 159.619466 169.513043 
L 159.79988 172.607868 
L 159.890087 174.441887 
L 160.0705 181.606173 
L 160.250914 181.204968 
L 160.701949 164.870588 
L 160.792155 166.418219 
L 160.972569 174.0409 
L 161.062776 170.888667 
L 161.152983 171.289654 
L 161.24319 173.524878 
L 161.333397 173.123891 
L 161.423604 172.034874 
L 161.604017 173.754294 
L 161.694224 171.690859 
L 161.784431 171.920275 
L 161.874638 173.353088 
L 161.964845 172.951883 
L 162.145259 178.912335 
L 162.235465 178.625947 
L 162.325672 179.428358 
L 162.415879 182.179386 
L 162.506086 181.204968 
L 162.596293 178.568538 
L 162.6865 178.683138 
L 162.866914 181.204968 
L 163.047327 176.276124 
L 163.227741 183.841397 
L 163.317948 184.700998 
L 163.498362 176.963717 
L 163.678775 178.339341 
L 163.949396 189.343453 
L 164.039603 187.738632 
L 164.310224 179.485548 
L 164.40043 180.918362 
L 164.580844 188.311845 
L 164.761258 186.707024 
L 164.851465 188.426444 
L 165.031879 186.649834 
L 165.122085 187.796041 
L 165.302499 186.420418 
L 165.663327 200.00377 
L 165.84374 202.4683 
L 165.933947 200.978078 
L 166.114361 201.837788 
L 166.294775 195.991826 
L 166.475189 205.677833 
L 166.565395 202.067095 
L 166.655602 202.640199 
L 166.836016 210.778685 
L 167.106637 203.729107 
L 167.28705 199.545265 
L 167.377257 199.831871 
L 167.467464 199.94647 
L 167.557671 198.742854 
L 167.738085 202.067095 
L 167.828292 201.264685 
L 167.918499 202.697498 
L 168.008705 205.907031 
L 168.098912 204.646225 
L 168.189119 201.723189 
L 168.279326 201.895088 
L 168.369533 202.353592 
L 168.549947 198.914862 
L 168.73036 203.328011 
L 168.910774 194.730911 
L 169.000981 195.819928 
L 169.181395 199.201359 
L 169.271602 199.831871 
L 169.361809 201.780489 
L 169.452015 201.723189 
L 169.542222 201.60859 
L 169.722636 202.5256 
L 169.812843 201.551291 
L 169.993257 199.029461 
L 170.083464 199.258659 
L 170.263877 197.023435 
L 170.354084 196.908836 
L 170.444291 197.653947 
L 170.624705 201.493883 
L 170.714912 200.691581 
L 170.895325 202.640199 
L 170.985532 201.150086 
L 171.165946 202.4683 
L 171.34636 153.637277 
L 171.436567 151.860449 
L 171.526774 151.917858 
L 171.61698 152.261654 
L 171.797394 151.115447 
L 171.977808 154.611477 
L 172.158222 153.809066 
L 172.248429 153.981074 
L 172.338635 155.413888 
L 172.519049 159.769737 
L 172.609256 157.419914 
L 172.699463 157.70652 
L 172.78967 160.686746 
L 172.879877 160.34295 
L 172.970084 156.90411 
L 173.150497 164.583982 
L 173.240704 162.406166 
L 173.330911 158.795319 
L 173.511325 161.087951 
L 173.781945 158.107725 
L 173.872152 157.70652 
L 173.962359 158.910136 
L 174.052566 158.738128 
L 174.142773 158.451522 
L 174.23298 158.68072 
L 174.413394 156.9613 
L 174.593807 159.311341 
L 174.684014 158.336923 
L 174.774221 158.62353 
L 174.864428 161.775763 
L 174.954635 161.374558 
L 175.135049 151.000848 
L 175.315462 160.572147 
L 175.405669 159.597729 
L 175.586083 161.087951 
L 175.766497 159.253933 
L 175.856704 158.967326 
L 176.037117 157.87831 
L 176.217531 158.910136 
L 176.307738 157.70652 
L 176.397945 157.993126 
L 176.578359 161.259959 
L 176.668566 160.858754 
L 176.848979 159.253933 
L 176.939186 159.081925 
L 177.209807 149.568035 
L 177.390221 135.927274 
L 177.480427 135.984683 
L 177.660841 138.85031 
L 177.751048 138.735711 
L 177.841255 139.022317 
L 178.021669 142.403749 
L 178.292289 150.886249 
L 178.382496 150.02643 
L 178.653117 159.196524 
L 178.743324 155.815093 
L 178.833531 156.330897 
L 179.013944 159.139334 
L 179.194358 159.941744 
L 179.284565 159.311341 
L 179.374772 171.461661 
L 179.464979 170.258045 
L 179.555186 168.481435 
L 179.735599 173.23849 
L 179.825806 170.716659 
L 180.00622 174.384697 
L 180.096427 170.143447 
L 180.186634 170.659251 
L 180.276841 174.556704 
L 180.457254 165.902196 
L 180.637668 172.779876 
L 180.818082 170.372644 
L 180.908289 170.258045 
L 181.088702 165.042595 
L 181.178909 165.902196 
L 181.269116 165.5584 
L 181.44953 162.406166 
L 181.539737 162.520765 
L 181.810357 173.754294 
L 181.990771 174.556704 
L 182.261392 169.85684 
L 182.441806 167.048622 
L 182.532012 166.876614 
L 182.712426 173.754294 
L 182.802633 171.57626 
L 182.89284 164.297594 
L 182.983047 164.583982 
L 183.073254 168.768042 
L 183.253667 167.048622 
L 183.434081 172.665277 
L 183.614495 171.862866 
L 183.704702 172.550678 
L 184.155736 166.418219 
L 184.245943 166.532818 
L 184.426357 172.837285 
L 184.516564 171.862866 
L 184.606771 172.722686 
L 184.696977 172.607868 
L 184.787184 170.200855 
L 184.967598 177.307733 
L 185.148012 173.467688 
L 185.328426 180.574565 
L 185.508839 178.396531 
L 185.689253 179.428358 
L 185.959874 173.754294 
L 186.050081 173.524878 
L 186.140287 174.270098 
L 186.320701 179.027152 
L 186.501115 180.345367 
L 186.681529 173.009074 
L 186.771736 173.123891 
L 186.952149 175.244298 
L 187.22277 173.29568 
L 187.312977 173.926083 
L 187.403184 174.95791 
L 187.493391 162.749963 
L 187.583597 164.813398 
L 187.764011 166.188802 
L 187.854218 166.36081 
L 188.034632 159.48313 
L 188.124839 156.617503 
L 188.215046 158.336923 
L 188.395459 166.017013 
L 188.575873 162.234159 
L 188.756287 166.819206 
L 188.936701 165.500991 
L 189.026907 165.845006 
L 189.117114 167.621616 
L 189.297528 174.155499 
L 189.477942 172.092064 
L 189.658356 173.811484 
L 189.928976 170.945857 
L 190.019183 170.716659 
L 190.380011 175.301706 
L 190.831045 167.564426 
L 191.101666 178.224742 
L 191.191872 178.281932 
L 191.282079 180.517156 
L 191.372286 177.880727 
L 191.5527 165.500991 
L 191.913527 170.716659 
L 192.093941 179.886753 
L 192.274355 163.208576 
L 192.364562 163.495183 
L 192.454769 164.583982 
L 192.544976 163.724381 
L 192.725389 166.131612 
L 192.815596 165.845006 
L 192.905803 166.647416 
L 193.086217 163.781789 
L 193.266631 167.048622 
L 193.356838 166.704607 
L 193.447044 166.188802 
L 193.627458 167.048622 
L 193.717665 166.762015 
L 193.898079 172.378671 
L 193.988286 172.32148 
L 194.529527 179.31354 
L 194.619734 177.995326 
L 194.800148 180.23055 
L 194.890354 179.714746 
L 195.160975 174.556704 
L 195.251182 173.582287 
L 195.431596 176.562512 
L 195.521803 174.155499 
L 195.612009 150.828841 
L 195.702216 154.095673 
L 195.792423 157.076117 
L 195.972837 151.68866 
L 196.063044 151.860449 
L 196.153251 151.115447 
L 196.333664 145.040178 
L 196.423871 141.773346 
L 196.874906 160.858754 
L 196.965113 159.769737 
L 197.055319 156.330897 
L 197.235733 166.418219 
L 197.416147 160.801345 
L 197.596561 164.985187 
L 197.686768 164.698799 
L 198.137802 168.768042 
L 198.318216 161.775763 
L 198.498629 164.182995 
L 198.588836 163.781789 
L 198.76925 168.194829 
L 198.859457 164.985187 
L 199.039871 174.441887 
L 199.130078 172.264072 
L 199.310491 164.755989 
L 199.400698 165.672999 
L 199.490905 164.870588 
L 199.581112 165.100004 
L 199.761526 167.908223 
L 199.851733 165.959605 
L 200.032146 170.086256 
L 200.21256 165.386392 
L 200.392974 172.264072 
L 200.483181 169.513043 
L 200.573388 169.742241 
L 200.753801 173.467688 
L 200.844008 172.493269 
L 200.934215 173.23849 
L 201.024422 171.232463 
L 201.204836 160.514739 
L 201.475456 165.329202 
L 201.65587 161.661164 
L 201.836284 165.730407 
L 202.016698 163.552373 
L 202.197111 164.985187 
L 202.377525 164.125586 
L 202.557939 166.418219 
L 202.648146 166.36081 
L 202.738353 166.131612 
L 202.828559 165.386392 
L 203.008973 168.309428 
L 203.09918 166.074204 
L 203.279594 173.983491 
L 203.369801 172.722686 
L 203.460008 170.487462 
L 203.640421 171.805676 
L 203.820835 183.726798 
L 203.911042 184.700998 
L 204.091456 178.912335 
L 204.362076 188.082648 
L 204.54249 201.379284 
L 204.903318 188.942248 
L 205.173938 195.418723 
L 205.264145 194.387114 
L 205.354352 195.246824 
L 205.534766 199.94647 
L 205.624973 198.456357 
L 205.895593 201.723189 
L 206.346628 214.962636 
L 206.527041 216.911253 
L 206.797662 214.56143 
L 206.887869 215.36384 
L 207.068283 224.419336 
L 207.248696 220.63659 
L 207.42911 226.998465 
L 207.519317 223.731524 
L 207.609524 224.132729 
L 207.789938 227.686168 
L 207.970351 223.960831 
L 208.060558 224.304737 
L 208.240972 227.227663 
L 208.331179 227.227663 
L 208.511593 231.239607 
L 208.692006 233.589429 
L 208.87242 230.379897 
L 208.962627 232.443223 
L 209.052834 231.927418 
L 209.143041 230.494496 
L 209.323454 233.646729 
L 209.503868 230.953 
L 209.594075 231.354205 
L 209.684282 230.494496 
L 209.774489 231.182307 
L 209.954903 234.907644 
L 210.04511 232.901727 
L 210.135316 234.506439 
L 210.225523 239.263493 
L 210.405937 233.188224 
L 210.586351 230.035991 
L 210.766765 232.099316 
L 210.947178 228.545878 
L 211.127592 232.443223 
L 211.308006 233.130925 
L 211.48842 234.39184 
L 211.75904 225.279046 
L 211.939454 145.555982 
L 212.029661 144.86817 
L 212.210075 145.097587 
L 212.390488 142.346558 
L 212.570902 147.619199 
L 212.751316 144.753572 
L 212.93173 146.243794 
L 213.112143 146.358393 
L 213.20235 146.014596 
L 213.292557 146.071786 
L 213.382764 147.218212 
L 213.472971 146.988796 
L 213.563178 144.581782 
L 213.653385 146.415801 
L 213.743591 151.402053 
L 213.833798 149.338618 
L 213.924005 143.893971 
L 214.104419 151.631251 
L 214.194626 149.568035 
L 214.37504 144.237767 
L 214.465246 144.982987 
L 214.64566 147.562008 
L 214.916281 144.123169 
L 215.006488 143.951161 
L 215.186901 147.103394 
L 215.277108 144.696381 
L 215.457522 154.840893 
L 215.547729 151.68866 
L 215.637936 144.295176 
L 215.728143 144.982987 
L 215.908556 151.74585 
L 216.08897 146.702189 
L 216.179177 146.472991 
L 216.359591 143.664773 
L 216.540005 144.696381 
L 216.630211 143.779372 
L 216.720418 144.86817 
L 216.810625 143.549956 
L 216.900832 140.168525 
L 216.991039 141.544148 
L 217.171453 146.243794 
L 217.26166 145.842588 
L 217.53228 139.538122 
L 217.622487 141.142943 
L 217.893108 131.514235 
L 217.983315 125.324367 
L 218.073521 126.298785 
L 218.163728 131.456826 
L 218.253935 131.227628 
L 218.344142 130.253429 
L 218.434349 133.69205 
L 218.614763 130.19602 
L 218.795176 147.390001 
L 218.97559 140.512539 
L 219.156004 152.548261 
L 219.336418 146.58759 
L 219.516831 151.459244 
L 219.607038 151.058039 
L 219.697245 151.803259 
L 219.787452 150.370445 
L 219.877659 145.670581 
L 220.058073 171.51907 
L 220.14828 170.888667 
L 220.238486 173.410279 
L 220.328693 173.29568 
L 220.4189 170.143447 
L 220.599314 174.499296 
L 220.779728 166.475409 
L 220.960141 167.908223 
L 221.050348 165.443801 
L 221.140555 165.787597 
L 221.230762 167.564426 
L 221.320969 166.819206 
L 221.501383 172.32148 
L 221.59159 171.920275 
L 221.681796 172.779876 
L 221.772003 172.149473 
L 221.952417 165.100004 
L 222.042624 166.704607 
L 222.132831 165.042595 
L 222.403451 174.09809 
L 222.583865 171.404471 
L 222.674072 171.977465 
L 222.764279 170.831258 
L 222.944693 165.959605 
L 223.125106 167.105812 
L 223.30552 174.09809 
L 223.395727 173.066482 
L 223.576141 166.131612 
L 223.846761 173.410279 
L 223.936968 173.582287 
L 224.117382 168.481435 
L 224.207589 170.200855 
L 224.297796 173.29568 
L 224.568416 165.329202 
L 224.74883 166.074204 
L 224.839037 165.787597 
L 224.929244 166.418219 
L 225.199865 172.092064 
L 225.380278 165.443801 
L 225.560692 172.779876 
L 225.650899 171.461661 
L 225.741106 171.51907 
L 225.92152 174.441887 
L 226.011726 174.499296 
L 226.101933 174.900501 
L 226.282347 177.708938 
L 226.462761 180.918362 
L 226.643175 174.155499 
L 226.733381 178.281932 
L 226.913795 173.811484 
L 227.004002 177.938136 
L 227.094209 177.651529 
L 227.184416 171.690859 
L 227.274623 172.092064 
L 227.36483 174.212689 
L 227.63545 171.862866 
L 227.996278 178.281932 
L 228.086485 168.653443 
L 228.357105 183.210994 
L 228.447312 181.892779 
L 228.537519 180.058761 
L 228.627726 180.746572 
L 228.898347 187.566843 
L 228.988553 188.82765 
L 229.07876 188.082648 
L 229.168967 184.873005 
L 229.349381 188.999657 
L 229.529795 179.428358 
L 229.620002 180.17336 
L 229.890622 182.236576 
L 230.071036 185.159612 
L 230.25145 179.657555 
L 230.341657 180.803763 
L 230.431863 179.772154 
L 230.612277 166.418219 
L 230.792691 171.920275 
L 230.882898 171.51907 
L 231.424139 160.056343 
L 231.604553 167.736215 
L 231.69476 167.449827 
L 231.784967 170.143447 
L 231.875173 167.736215 
L 232.055587 158.62353 
L 232.145794 157.70652 
L 232.326208 160.34295 
L 232.416415 158.394332 
L 232.506622 160.056343 
L 232.687035 167.220411 
L 232.957656 152.319063 
L 233.047863 152.892057 
L 233.13807 154.439688 
L 233.318483 150.370445 
L 233.589104 158.566121 
L 233.769518 152.319063 
L 233.859725 153.121474 
L 233.949932 157.87831 
L 234.040138 157.70652 
L 234.220552 151.402053 
L 234.400966 156.674912 
L 234.491173 155.9871 
L 234.671587 163.666972 
L 234.761793 162.692773 
L 234.942207 160.858754 
L 235.032414 163.437775 
L 235.122621 163.380584 
L 235.212828 160.744155 
L 235.393242 163.724381 
L 235.573655 157.133308 
L 235.754069 161.603756 
L 235.844276 161.718354 
L 236.02469 167.564426 
L 236.114897 164.64139 
L 236.29531 194.845619 
L 236.385517 195.418723 
L 236.565931 187.853231 
L 236.656138 187.624034 
L 237.016965 179.084343 
L 237.287586 187.566843 
L 237.468 202.411001 
L 237.648413 196.794237 
L 237.828827 209.40317 
L 238.009241 201.207385 
L 238.099448 202.4683 
L 238.189655 201.150086 
L 238.279862 203.328011 
L 238.550482 213.587121 
L 238.640689 212.784711 
L 238.730896 213.873618 
L 238.821103 210.148281 
L 239.001517 197.940553 
L 239.18193 204.588816 
L 239.362344 202.754798 
L 239.452551 202.984105 
L 239.632965 214.618729 
L 239.993792 199.029461 
L 240.35462 208.830067 
L 240.444827 207.339954 
L 240.62524 200.863479 
L 240.715447 201.035378 
L 240.805654 200.863479 
L 240.895861 199.201359 
L 240.986068 199.258659 
L 241.256688 211.237189 
L 241.346895 208.428862 
L 241.527309 195.361423 
L 241.617516 199.774572 
L 241.707723 197.940553 
L 241.888137 182.637781 
L 242.158757 201.436583 
L 242.248964 200.233076 
L 242.429378 194.845619 
L 242.609792 201.092787 
L 242.790205 193.871201 
L 242.970619 193.0116 
L 243.151033 195.418723 
L 243.331447 206.652142 
L 243.421653 204.359619 
L 243.51186 206.079038 
L 243.602067 211.065291 
L 243.782481 201.895088 
L 243.962895 209.001965 
L 244.143308 204.073013 
L 244.233515 204.302319 
L 244.323722 159.024735 
L 244.413929 159.196524 
L 244.68455 152.777458 
L 244.864963 160.457549 
L 245.045377 170.086256 
L 245.496412 157.419914 
L 245.586619 157.821119 
L 246.037653 166.303402 
L 246.218067 159.48313 
L 246.308274 159.769737 
L 246.39848 160.801345 
L 246.488687 160.170942 
L 246.578894 162.463575 
L 246.849515 178.110143 
L 247.029929 172.951883 
L 247.210342 179.485548 
L 247.300549 176.849119 
L 247.480963 167.048622 
L 247.661377 179.772154 
L 247.84179 173.29568 
L 248.022204 177.708938 
L 248.383032 171.347063 
L 248.563445 164.583982 
L 248.743859 167.851032 
L 248.924273 166.017013 
L 249.01448 167.507017 
L 249.194894 173.868893 
L 249.555721 158.68072 
L 249.736135 158.795319 
L 249.916549 160.285541 
L 250.096962 155.9871 
L 250.277376 159.48313 
L 250.45779 158.164916 
L 250.638204 159.081925 
L 250.72841 158.910136 
L 250.818617 159.597729 
L 250.999031 161.317149 
L 251.179445 153.981074 
L 251.269652 156.330897 
L 251.450065 150.714242 
L 251.540272 153.006874 
L 251.720686 160.22835 
L 251.9011 159.368532 
L 251.991307 159.941744 
L 252.17172 154.153082 
L 252.261927 155.700494 
L 252.352134 154.611477 
L 252.442341 178.281932 
L 252.532548 174.212689 
L 252.622755 174.212689 
L 252.712962 174.441887 
L 252.803169 172.206663 
L 252.983582 175.072509 
L 253.163996 171.748267 
L 253.34441 174.384697 
L 253.434617 173.353088 
L 253.524824 175.187107 
L 253.705237 181.663582 
L 253.795444 180.001352 
L 253.975858 190.661668 
L 254.066065 187.681442 
L 254.156272 188.369254 
L 254.246479 193.871201 
L 254.336685 191.521487 
L 254.426892 185.618007 
L 254.517099 186.821623 
L 254.607306 188.426444 
L 254.968134 179.31354 
L 255.328961 183.440192 
L 255.509375 176.505322 
L 255.689789 182.580591 
L 255.779995 182.121977 
L 255.870202 178.912335 
L 256.050616 186.993631 
L 256.321237 172.607868 
L 256.411444 173.29568 
L 256.50165 172.837285 
L 256.591857 173.123891 
L 256.772271 174.384697 
L 256.952685 171.862866 
L 257.133099 173.754294 
L 257.313512 170.831258 
L 257.584133 173.410279 
L 257.67434 172.034874 
L 257.764547 172.32148 
L 257.854754 173.926083 
L 257.94496 172.607868 
L 258.125374 168.252237 
L 258.215581 168.13742 
L 258.486202 161.603756 
L 258.666615 154.783485 
L 258.847029 158.62353 
L 258.937236 159.139334 
L 259.027443 160.629556 
L 259.207857 157.87831 
L 259.38827 164.870588 
L 259.478477 160.686746 
L 259.568684 161.431748 
L 259.749098 173.811484 
L 259.839305 171.805676 
L 260.109925 175.473714 
L 260.380546 165.500991 
L 260.470753 166.819206 
L 260.56096 157.591922 
L 260.741374 165.042595 
L 260.83158 164.297594 
L 261.011994 159.368532 
L 261.102201 164.526791 
L 261.192408 163.609782 
L 261.372822 156.846701 
L 261.463029 158.222325 
L 261.643442 152.319063 
L 261.823856 159.196524 
L 261.914063 158.852727 
L 262.00427 158.68072 
L 262.094477 160.629556 
L 262.184684 160.34295 
L 262.455304 152.319063 
L 262.725925 151.516652 
L 262.906339 158.738128 
L 262.996546 156.560095 
L 263.086752 153.178664 
L 263.267166 157.190716 
L 263.44758 149.109421 
L 263.808407 156.502904 
L 263.898614 158.279515 
L 264.079028 143.492765 
L 264.169235 145.727989 
L 264.259442 153.121474 
L 264.349649 152.66286 
L 264.439856 150.599643 
L 264.800683 157.649112 
L 264.89089 156.846701 
L 265.071304 148.765624 
L 265.251717 153.350671 
L 265.432131 145.555982 
L 265.612545 153.579869 
L 265.702752 153.121474 
L 265.792959 152.834867 
L 265.883166 153.751876 
L 265.973372 150.886249 
L 266.063579 152.261654 
L 266.153786 158.566121 
L 266.243993 158.394332 
L 266.3342 158.68072 
L 266.514614 166.418219 
L 266.604821 160.34295 
L 266.785234 168.596034 
L 266.875441 166.074204 
L 266.965648 164.755989 
L 267.055855 165.329202 
L 267.146062 163.380584 
L 267.236269 165.271793 
L 267.416682 172.550678 
L 267.506889 169.570452 
L 267.597096 169.971439 
L 267.687303 173.123891 
L 267.867717 165.5584 
L 267.957924 166.017013 
L 268.048131 167.220411 
L 268.138337 167.163221 
L 268.228544 166.934023 
L 268.408958 170.028848 
L 268.589372 165.730407 
L 268.679579 136.042091 
L 268.769786 140.225933 
L 268.950199 146.186385 
L 269.040406 144.295176 
L 269.22082 133.577451 
L 269.491441 139.996517 
L 269.581647 145.842588 
L 269.671854 144.524374 
L 269.762061 137.417497 
L 269.852268 138.219907 
L 269.942475 142.002543 
L 270.122889 128.820397 
L 270.303302 139.59553 
L 270.393509 138.735711 
L 270.483716 135.182273 
L 270.66413 146.58759 
L 270.754337 145.78518 
L 270.934751 138.563703 
L 271.024957 138.105308 
L 271.205371 128.534009 
L 271.475992 139.366114 
L 271.566199 139.308924 
L 271.746612 130.941022 
L 271.836819 131.628834 
L 271.927026 133.061647 
L 272.017233 132.087448 
L 272.197647 140.397722 
L 272.287854 140.168525 
L 272.468267 145.842588 
L 272.648681 127.387583 
L 272.829095 131.227628 
L 272.919302 130.539817 
L 273.009509 131.686242 
L 273.189922 144.065978 
L 273.280129 143.779372 
L 273.55075 120.567313 
L 273.731164 129.336419 
L 273.821371 129.336419 
L 274.001784 130.883832 
L 274.091991 132.947049 
L 274.182198 131.97263 
L 274.272405 129.107003 
L 274.452819 133.864058 
L 274.633232 128.075395 
L 274.723439 130.883832 
L 274.903853 129.39361 
L 275.084267 139.194325 
L 275.174474 137.417497 
L 275.354887 138.621112 
L 275.445094 138.907719 
L 275.625508 145.097587 
L 275.805922 138.678302 
L 275.986336 146.472991 
L 276.076542 145.326784 
L 276.256956 139.480713 
L 276.347163 144.065978 
L 276.527577 138.219907 
L 276.617784 140.970935 
L 276.707991 139.423523 
L 276.888404 152.720268 
L 276.978611 151.917858 
L 277.339439 134.379862 
L 277.610059 130.769233 
L 277.970887 146.931605 
L 278.061094 154.153082 
L 278.241507 149.911831 
L 278.421921 159.655138 
L 278.602335 156.159108 
L 278.872956 159.827146 
L 279.143576 167.048622 
L 279.32399 164.010987 
L 279.504404 157.821119 
L 279.775024 160.113534 
L 279.955438 165.5584 
L 280.045645 164.469383 
L 280.226059 167.851032 
L 280.316266 166.188802 
L 280.496679 159.081925 
L 280.677093 158.852727 
L 280.7673 161.087951 
L 280.947714 167.277819 
L 281.218334 159.139334 
L 281.488955 157.993126 
L 281.579162 159.540539 
L 281.939989 172.206663 
L 282.120403 159.081925 
L 282.21061 159.769737 
L 282.300817 160.40014 
L 282.481231 149.396027 
L 282.751851 160.285541 
L 282.932265 157.70652 
L 283.022472 158.508931 
L 283.112679 158.394332 
L 283.202886 157.821119 
L 283.293093 159.540539 
L 283.383299 158.967326 
L 283.563713 152.548261 
L 283.834334 162.92197 
L 283.924541 166.017013 
L 284.014748 164.698799 
L 284.195161 171.51907 
L 284.375575 164.870588 
L 284.555989 168.194829 
L 284.826609 164.469383 
L 284.916816 195.819928 
L 285.007023 194.673612 
L 285.09723 195.189415 
L 285.277644 189.572651 
L 285.458058 193.756602 
L 285.638471 204.760824 
L 286.089506 194.272406 
L 286.179713 194.673612 
L 286.360126 201.321984 
L 286.450333 200.691581 
L 286.54054 200.920779 
L 286.630747 204.760824 
L 286.811161 201.264685 
L 286.901368 204.474218 
L 286.991574 203.843814 
L 287.081781 200.233076 
L 287.532816 219.662281 
L 287.623023 219.834288 
L 287.893643 216.452748 
L 288.074057 212.498104 
L 288.254471 222.012104 
L 288.434884 217.885562 
L 288.615298 225.565543 
L 288.885919 219.834288 
L 288.976126 219.604982 
L 289.156539 215.019935 
L 289.336953 219.433084 
L 289.42716 217.656364 
L 289.517367 218.630673 
L 289.697781 222.069512 
L 289.787988 223.101121 
L 289.878194 222.126812 
L 290.058608 214.676029 
L 290.148815 216.395449 
L 290.329229 212.498104 
L 290.509643 221.668308 
L 290.690056 214.045626 
L 290.87047 217.885562 
L 290.960677 217.083151 
L 291.141091 220.178085 
L 291.231298 218.802571 
L 291.321504 219.490383 
L 291.411711 222.069512 
L 291.501918 221.725607 
L 291.862746 215.478439 
L 291.952953 213.816319 
L 292.043159 213.930918 
L 292.133366 212.89931 
L 292.223573 213.529713 
L 292.403987 218.745272 
L 292.494194 217.312458 
L 292.674608 218.687972 
L 292.855021 216.223441 
L 292.945228 216.223441 
L 293.125642 138.219907 
L 293.215849 137.87611 
L 293.306056 138.85031 
L 293.486469 136.443078 
L 293.666883 139.079508 
L 293.937504 137.245489 
L 294.117918 135.927274 
L 294.298331 142.231741 
L 294.388538 139.423523 
L 294.478745 139.710129 
L 294.659159 145.670581 
L 294.749366 143.607364 
L 294.929779 149.166829 
L 295.110193 144.638973 
L 295.290607 145.78518 
L 295.471021 138.678302 
L 295.561228 138.735711 
L 295.651434 140.512539 
L 295.741641 140.283124 
L 295.831848 139.767319 
L 295.922055 140.111334 
L 296.192676 138.563703 
L 296.373089 140.053926 
L 296.463296 138.735711 
L 296.64371 146.644999 
L 296.733917 143.893971 
L 296.914331 132.030039 
L 297.094744 138.907719 
L 297.275158 138.219907 
L 297.365365 138.334506 
L 297.545779 137.87611 
L 297.726193 137.360306 
L 297.906606 138.105308 
L 297.996813 137.704103 
L 298.08702 136.615086 
L 298.177227 137.0737 
L 298.357641 139.59553 
L 298.447848 139.881918 
L 298.628261 137.417497 
L 298.718468 137.933301 
L 298.808675 136.271289 
L 299.25971 114.320254 
L 299.53033 118.332089 
L 299.620537 118.389497 
L 299.710744 119.363697 
L 300.071571 130.482626 
L 300.161778 129.680216 
L 300.251985 131.571643 
L 300.432399 139.652721 
L 300.612813 137.417497 
L 300.793226 139.251515 
L 300.883433 138.391914 
L 300.97364 138.907719 
L 301.063847 138.506513 
L 301.244261 151.402053 
L 301.334468 151.917858 
L 301.424675 153.350671 
L 301.605088 150.255628 
L 301.785502 157.018709 
L 301.965916 149.96924 
L 302.056123 152.319063 
L 302.236536 148.765624 
L 302.41695 152.777458 
L 302.687571 151.74585 
L 303.138605 143.492765 
L 303.228812 142.632946 
L 303.679846 154.038483 
L 303.770053 153.694468 
L 304.130881 146.415801 
L 304.311295 150.943439 
L 304.401501 150.542234 
L 304.491708 152.605669 
L 304.581915 149.797232 
L 304.672122 141.486739 
L 304.762329 141.887945 
L 304.852536 147.619199 
L 305.03295 146.014596 
L 305.213363 151.000848 
L 305.30357 150.255628 
L 305.483984 152.032456 
L 305.844811 146.129195 
L 306.025225 144.00857 
L 306.47626 151.287454 
L 306.566466 150.255628 
L 306.74688 154.611477 
L 306.837087 152.892057 
L 306.927294 153.694468 
L 307.107708 160.514739 
L 307.197915 158.336923 
L 307.378328 161.087951 
L 307.468535 160.744155 
L 307.739156 157.133308 
L 307.91957 161.489157 
L 308.009776 163.495183 
L 308.099983 163.323176 
L 308.19019 164.125586 
L 308.280397 166.303402 
L 308.370604 164.182995 
L 308.551018 157.935718 
L 308.731431 163.896388 
L 309.182466 158.394332 
L 309.453086 174.556704 
L 309.543293 175.530904 
L 309.6335 175.244298 
L 309.723707 174.556704 
L 309.904121 167.163221 
L 310.174741 175.244298 
L 310.355155 173.639695 
L 310.445362 173.926083 
L 310.535569 175.588312 
L 310.715983 171.920275 
L 310.80619 172.550678 
L 311.07681 180.918362 
L 311.167017 180.918362 
L 311.347431 184.930414 
L 311.437638 183.612199 
L 311.708258 173.29568 
L 311.798465 174.09809 
L 312.069086 183.898806 
L 312.2495 180.459966 
L 312.339706 180.23055 
L 312.52012 175.0151 
L 312.610327 175.817511 
L 312.790741 182.007378 
L 312.880948 182.866979 
L 312.971155 184.930414 
L 313.061361 184.4718 
L 313.241775 177.364923 
L 313.422189 172.837285 
L 313.873223 187.280237 
L 314.143844 165.042595 
L 314.414465 172.206663 
L 314.504671 172.837285 
L 314.685085 176.276124 
L 314.865499 172.034874 
L 314.955706 172.550678 
L 315.045913 174.441887 
L 315.226327 172.837285 
L 315.40674 173.983491 
L 315.496947 173.410279 
L 315.767568 180.287959 
L 315.947982 182.465774 
L 316.038188 181.262376 
L 316.128395 181.434165 
L 316.218602 183.096395 
L 316.308809 182.351175 
L 316.399016 180.631755 
L 316.57943 183.898806 
L 316.759843 180.345367 
L 316.85005 180.345367 
L 316.940257 180.918362 
L 317.120671 187.509435 
L 317.301085 181.606173 
L 317.391292 165.100004 
L 317.481498 167.277819 
L 317.571705 164.870588 
L 317.932533 136.615086 
L 318.112947 139.366114 
L 318.203153 135.812676 
L 318.654188 168.653443 
L 318.744395 165.500991 
L 318.834602 163.666972 
L 319.015015 176.906527 
L 319.195429 170.77385 
L 319.285636 173.926083 
L 319.375843 173.868893 
L 319.46605 174.327288 
L 319.646463 182.924388 
L 319.73667 182.580591 
L 319.826877 180.115951 
L 319.917084 181.03296 
L 320.007291 179.600147 
L 320.187705 169.85684 
L 320.368118 174.0409 
L 320.458325 173.696885 
L 320.638739 179.027152 
L 320.728946 180.17336 
L 320.819153 183.325593 
L 320.90936 182.179386 
L 321.17998 171.404471 
L 321.450601 181.147559 
L 321.540808 179.657555 
L 321.631015 179.714746 
L 321.811428 179.714746 
L 321.901635 179.31354 
L 322.082049 171.404471 
L 322.172256 173.868893 
L 322.35267 187.91064 
L 322.533083 181.835371 
L 322.803704 169.627642 
L 322.893911 169.111838 
L 323.074325 158.795319 
L 323.164532 161.947771 
L 323.344945 172.32148 
L 323.525359 167.163221 
L 323.705773 173.811484 
L 323.886187 168.13742 
L 323.976393 168.252237 
L 324.156807 163.323176 
L 324.427428 170.716659 
L 324.517635 174.728493 
L 324.607842 172.779876 
L 324.788255 183.783989 
L 324.968669 172.149473 
L 325.149083 182.981796 
L 325.329497 178.969744 
L 325.419703 179.657555 
L 325.600117 142.346558 
L 325.780531 139.423523 
L 325.960945 138.277315 
L 326.141358 150.198438 
L 326.231565 155.012682 
L 326.6826 138.105308 
L 326.863013 140.283124 
L 326.95322 141.37214 
L 327.133634 138.391914 
L 327.223841 143.836562 
L 327.314048 143.320758 
L 327.404255 138.621112 
L 327.584668 145.097587 
L 327.674875 140.741737 
L 327.765082 141.257541 
L 327.945496 152.204464 
L 328.12591 154.554287 
L 328.306323 153.350671 
L 328.39653 154.726076 
L 328.486737 153.809066 
L 328.667151 149.911831 
L 328.847565 158.222325 
L 329.027978 151.058039 
L 329.208392 158.279515 
L 329.298599 157.87831 
L 329.388806 155.127281 
L 329.479013 155.299289 
L 329.56922 154.095673 
L 329.749633 142.690355 
L 329.930047 146.988796 
L 330.020254 144.696381 
L 330.110461 145.097587 
L 330.471288 153.236072 
L 330.832116 143.320758 
L 330.922323 144.466965 
L 331.102737 151.115447 
L 331.192943 146.702189 
L 331.28315 147.390001 
L 331.463564 154.210272 
L 331.553771 152.376253 
L 331.643978 152.490852 
L 331.734185 153.522678 
L 331.824392 152.720268 
L 331.914598 153.522678 
L 332.095012 159.024735 
L 332.546047 151.230046 
L 332.636254 152.032456 
L 332.816667 159.998935 
L 332.906874 159.769737 
L 332.997081 160.744155 
L 333.177495 165.271793 
L 333.357909 158.508931 
L 333.538322 160.858754 
L 333.628529 184.41461 
L 333.718736 182.465774 
L 333.89915 182.866979 
L 334.079564 179.31354 
L 334.16977 179.714746 
L 334.350184 185.331619 
L 334.530598 178.969744 
L 334.711012 180.517156 
L 334.891425 189.343453 
L 335.071839 186.477826 
L 335.252253 195.132116 
L 335.34246 194.157807 
L 335.522874 198.685555 
L 335.703287 192.610395 
L 335.793494 194.616312 
L 335.883701 193.470105 
L 336.154322 185.560817 
L 336.244529 185.847424 
L 336.424942 192.20908 
L 336.515149 192.15189 
L 336.695563 186.363227 
L 336.966184 190.031265 
L 337.05639 189.171446 
L 337.236804 199.602564 
L 337.417218 185.790015 
L 337.507425 186.019213 
L 337.597632 189.228855 
L 337.687839 188.541043 
L 337.868252 186.936222 
L 337.958459 187.165638 
L 338.138873 185.618007 
L 338.22908 186.592425 
L 338.319287 186.535235 
L 338.4997 181.147559 
L 338.589907 180.97577 
L 338.680114 180.517156 
L 338.770321 181.778181 
L 339.040942 188.025239 
L 339.221355 179.084343 
L 339.311562 180.001352 
L 339.401769 179.542957 
L 339.67239 160.113534 
L 339.852804 151.402053 
L 340.033217 153.694468 
L 340.484252 173.696885 
L 340.574459 171.862866 
L 340.664665 166.532818 
L 340.935286 182.924388 
L 341.025493 182.236576 
L 341.1157 183.210994 
L 341.296114 186.649834 
L 341.476527 180.058761 
L 341.566734 180.861171 
L 341.656941 180.001352 
L 341.747148 131.97263 
L 341.837355 132.947049 
L 342.017769 139.538122 
L 342.198182 131.399636 
L 342.288389 131.628834 
L 342.378596 133.348254 
L 342.649217 124.17816 
L 342.739424 124.98057 
L 342.82963 123.891553 
L 342.919837 124.579365 
L 343.100251 131.628834 
L 343.190458 131.628834 
L 343.280665 133.405662 
L 343.461079 130.425218 
L 343.551285 131.227628 
L 343.731699 126.355975 
L 343.912113 131.686242 
L 344.00232 132.144638 
L 344.182734 139.022317 
L 344.363147 131.571643 
L 344.453354 132.660442 
L 344.543561 132.087448 
L 344.633768 129.164412 
L 344.994595 139.939327 
L 345.084802 143.607364 
L 345.265216 126.871779 
L 345.44563 136.099282 
L 345.535837 134.150664 
L 345.626044 134.895666 
L 345.806457 139.939327 
L 345.896664 139.939327 
L 345.986871 141.142943 
L 346.167285 136.557896 
L 346.257492 138.506513 
L 346.347699 138.0479 
L 346.528112 132.087448 
L 346.618319 132.202047 
L 346.798733 137.818702 
L 346.88894 138.506513 
L 347.069354 141.945353 
L 347.15956 139.538122 
L 347.249767 142.461157 
L 347.430181 150.542234 
L 347.520388 149.510626 
L 347.700802 158.222325 
L 347.881215 157.305315 
L 348.061629 160.629556 
L 348.33225 156.330897 
L 348.693077 163.724381 
L 348.783284 159.597729 
L 348.873491 160.572147 
L 348.963698 164.412192 
L 349.144112 156.617503 
L 349.324525 161.546565 
L 349.414732 160.22835 
L 349.595146 166.590008 
L 349.77556 159.311341 
L 349.955974 185.732824 
L 350.136387 194.157807 
L 350.226594 192.552987 
L 350.407008 186.363227 
L 350.497215 186.764433 
L 350.587422 187.796041 
L 350.767836 196.56493 
L 350.948249 186.821623 
L 351.038456 187.853231 
L 351.128663 190.031265 
L 351.309077 181.434165 
L 351.489491 188.311845 
L 351.579697 187.222828 
L 351.669904 187.394836 
L 351.940525 199.889171 
L 352.120939 195.132116 
L 352.211146 194.043209 
L 352.391559 183.726798 
L 352.571973 197.080843 
L 352.66218 195.189415 
L 352.752387 195.304124 
L 352.842594 195.934527 
L 353.023007 190.833675 
L 353.113214 191.120282 
L 353.203421 192.266489 
L 353.474042 199.889171 
L 353.564249 199.774572 
L 353.654456 199.029461 
L 353.925076 185.732824 
L 354.015283 186.535235 
L 354.285904 194.559013 
L 354.466317 204.474218 
L 354.646731 179.027152 
L 354.736938 179.772154 
L 354.917352 188.82765 
L 355.007559 186.993631 
L 355.097766 187.394836 
L 355.278179 191.34948 
L 355.458593 186.535235 
L 355.5488 187.108229 
L 355.639007 188.942248 
L 355.819421 185.962022 
L 355.909627 186.305819 
L 355.999834 186.707024 
L 356.090041 186.19122 
L 356.360662 193.240798 
L 356.631282 200.920779 
L 356.721489 202.238994 
L 356.811696 202.009796 
L 356.99211 199.717272 
L 357.082317 200.290376 
L 357.262731 201.723189 
L 357.443144 193.183499 
L 357.623558 198.341649 
L 357.713765 197.310041 
L 357.803972 201.207385 
L 357.894179 199.373366 
L 357.984386 169.85684 
L 358.074592 171.51907 
L 358.164799 168.022821 
L 358.525627 129.39361 
L 358.706041 122.859945 
L 358.796247 123.203742 
L 359.247282 162.234159 
L 359.337489 160.514739 
L 359.427696 161.947771 
L 359.608109 177.078316 
L 359.698316 174.499296 
L 359.788523 175.530904 
L 359.968937 180.918362 
L 360.059144 182.007378 
L 360.329764 191.120282 
L 360.510178 190.833675 
L 360.780799 178.568538 
L 361.141626 188.82765 
L 361.231833 188.82765 
L 361.412247 195.819928 
L 361.773074 181.319567 
L 361.863281 183.268184 
L 362.043695 189.859258 
L 362.224109 187.853231 
L 362.314316 187.738632 
L 362.584936 184.013405 
L 362.855557 187.968049 
L 363.035971 196.163834 
L 363.126177 194.845619 
L 363.396798 181.147559 
L 363.487005 179.485548 
L 363.667419 169.627642 
L 363.757626 171.060456 
L 363.938039 181.548764 
L 364.118453 178.740546 
L 364.20866 180.287959 
L 364.389074 177.708938 
L 364.479281 179.944162 
L 364.659694 171.977465 
L 364.749901 172.436079 
L 364.840108 173.29568 
L 364.930315 172.722686 
L 365.110729 181.778181 
L 365.200936 180.574565 
L 365.291142 180.631755 
L 365.381349 182.351175 
L 365.471556 182.179386 
L 365.561763 180.459966 
L 365.65197 181.204968 
L 365.832384 186.420418 
L 366.012797 179.428358 
L 366.193211 160.34295 
L 366.283418 160.22835 
L 366.463832 155.9871 
L 366.734452 162.520765 
L 366.914866 171.461661 
L 367.275694 157.362505 
L 367.546314 161.832953 
L 367.726728 160.629556 
L 367.907142 166.36081 
L 367.997349 164.583982 
L 368.177763 166.876614 
L 368.267969 165.042595 
L 368.358176 167.392418 
L 368.628797 180.345367 
L 368.719004 181.94997 
L 368.809211 181.376975 
L 368.899418 181.491574 
L 368.989624 182.637781 
L 369.170038 178.568538 
L 369.260245 178.625947 
L 369.440659 188.139838 
L 369.530866 186.477826 
L 369.621073 186.821623 
L 369.801486 197.310041 
L 369.9819 194.501713 
L 370.162314 196.278433 
L 370.342728 185.159612 
L 370.974176 197.482048 
L 371.064383 197.596647 
L 371.244796 191.750685 
L 371.335003 193.240798 
L 371.515417 191.750685 
L 371.695831 199.487965 
L 371.876244 192.782293 
L 372.056658 197.883144 
L 372.146865 195.418723 
L 372.327279 199.889171 
L 372.507693 197.997852 
L 372.597899 200.863479 
L 372.688106 200.462274 
L 372.86852 198.22705 
L 373.139141 193.0116 
L 373.229348 193.470105 
L 373.319554 193.298098 
L 373.590175 201.723189 
L 373.680382 201.436583 
L 373.860796 202.181694 
L 374.041209 200.576873 
L 374.131416 200.233076 
L 374.31183 153.751876 
L 374.402037 152.089647 
L 374.492244 152.261654 
L 374.582451 152.089647 
L 374.672658 151.573842 
L 374.762864 151.860449 
L 374.943278 152.605669 
L 375.123692 151.344645 
L 375.213899 151.344645 
L 375.304106 153.064065 
L 375.484519 161.030543 
L 375.664933 157.133308 
L 375.845347 163.781789 
L 375.935554 163.724381 
L 376.115968 168.13742 
L 376.296381 165.214603 
L 376.476795 166.819206 
L 376.567002 165.672999 
L 376.747416 159.196524 
L 376.837623 160.113534 
L 377.018036 165.443801 
L 377.288657 163.953578 
L 377.378864 164.240185 
L 377.559278 166.762015 
L 377.649484 165.500991 
L 377.829898 172.894475 
L 377.920105 170.086256 
L 378.100519 159.368532 
L 378.371139 165.615808 
L 378.64176 164.813398 
L 378.822174 165.329202 
L 379.002588 163.552373 
L 379.092794 164.755989 
L 379.183001 163.609782 
L 379.273208 160.572147 
L 379.363415 162.06237 
L 379.543829 166.590008 
L 379.634036 166.475409 
L 379.724243 164.927997 
L 379.814449 161.259959 
L 379.904656 161.431748 
L 379.994863 159.081925 
L 380.445898 107.557174 
L 380.536104 108.416993 
L 380.716518 115.695659 
L 380.896932 123.604947 
L 380.987139 126.355975 
L 381.257759 140.340532 
L 381.438173 153.46527 
L 381.618587 159.42594 
L 381.708794 159.998935 
L 381.889208 165.500991 
L 382.069621 165.157194 
L 382.250035 166.074204 
L 382.340242 165.959605 
L 382.520656 168.08023 
L 382.610863 171.289654 
L 382.791276 164.182995 
L 382.881483 166.246211 
L 382.97169 168.768042 
L 383.152104 160.40014 
L 383.242311 164.068177 
L 383.332518 163.151168 
L 383.422724 159.081925 
L 383.603138 167.048622 
L 383.693345 165.845006 
L 383.783552 165.845006 
L 383.873759 166.991213 
L 383.963966 164.469383 
L 384.054173 164.526791 
L 384.144379 164.985187 
L 384.324793 151.000848 
L 384.415 151.344645 
L 384.775828 166.590008 
L 385.136655 163.323176 
L 385.317069 159.081925 
L 385.497483 164.813398 
L 385.58769 165.329202 
L 385.677896 168.252237 
L 385.768103 166.074204 
L 385.948517 158.852727 
L 386.128931 164.182995 
L 386.219138 163.495183 
L 386.399551 166.36081 
L 386.489758 166.532818 
L 386.670172 165.902196 
L 386.760379 165.329202 
L 386.940793 160.34295 
L 387.031 160.686746 
L 387.121206 160.973352 
L 387.30162 158.910136 
L 387.572241 167.048622 
L 387.752655 164.297594 
L 387.933068 173.811484 
L 388.023275 173.181081 
L 388.113482 172.264072 
L 388.293896 180.689163 
L 388.384103 179.027152 
L 388.47431 179.370949 
L 388.654723 180.459966 
L 388.74493 180.631755 
L 388.925344 175.932109 
L 389.195965 184.643808 
L 389.286171 184.185194 
L 389.466585 183.783989 
L 389.646999 180.861171 
L 389.737206 178.740546 
L 389.827413 180.402557 
L 389.91762 184.357201 
L 390.007826 183.669389 
L 390.098033 180.97577 
L 390.18824 181.147559 
L 390.278447 181.147559 
L 390.368654 179.600147 
L 390.458861 164.412192 
L 390.729481 183.153586 
L 390.909895 188.197246 
L 391.090309 184.300011 
L 391.36093 195.304124 
L 391.451136 195.132116 
L 391.541343 193.126199 
L 391.721757 195.705329 
L 391.902171 192.724994 
L 391.992378 193.642003 
L 392.533619 207.913057 
L 392.984653 193.126199 
L 393.165067 206.422944 
L 393.525895 199.14406 
L 393.616101 198.169751 
L 393.796515 194.043209 
L 394.067136 201.895088 
L 394.24755 203.901114 
L 394.51817 190.604478 
L 394.608377 191.234881 
L 394.878998 196.679638 
L 395.059411 206.881449 
L 395.330032 184.128003 
L 395.510446 187.051039 
L 395.600653 186.649834 
L 395.69086 187.280237 
L 395.871273 190.833675 
L 395.96148 189.63006 
L 396.051687 186.764433 
L 396.141894 187.051039 
L 396.232101 188.197246 
L 396.322308 187.509435 
L 396.502721 184.4718 
L 396.592928 184.586399 
L 396.953756 190.719077 
L 397.13417 195.762628 
L 397.224376 195.590621 
L 397.314583 195.017517 
L 397.494997 197.940553 
L 397.585204 196.622338 
L 397.675411 197.310041 
L 397.765618 199.94647 
L 397.946031 193.126199 
L 398.036238 194.329706 
L 398.126445 195.246824 
L 398.216652 193.183499 
L 398.397066 197.195442 
L 398.487273 193.985909 
L 398.487273 193.985909 
" clip-path="url(#p5e30b80d46)" style="fill: none; stroke: #1f77b4; stroke-width: 1.5; stroke-linecap: square"/>
   </g>
   <g id="patch_3">
    <path d="M 57.6 307.584 
L 57.6 41.472 
" style="fill: none; stroke: #000000; stroke-width: 0.8; stroke-linejoin: miter; stroke-linecap: square"/>
   </g>
   <g id="patch_4">
    <path d="M 414.72 307.584 
L 414.72 41.472 
" style="fill: none; stroke: #000000; stroke-width: 0.8; stroke-linejoin: miter; stroke-linecap: square"/>
   </g>
   <g id="patch_5">
    <path d="M 57.6 307.584 
L 414.72 307.584 
" style="fill: none; stroke: #000000; stroke-width: 0.8; stroke-linejoin: miter; stroke-linecap: square"/>
   </g>
   <g id="patch_6">
    <path d="M 57.6 41.472 
L 414.72 41.472 
" style="fill: none; stroke: #000000; stroke-width: 0.8; stroke-linejoin: miter; stroke-linecap: square"/>
   </g>
   <g id="legend_1">
    <g id="patch_7">
     <path d="M 354.074688 64.150125 
L 407.72 64.150125 
Q 409.72 64.150125 409.72 62.150125 
L 409.72 48.472 
Q 409.72 46.472 407.72 46.472 
L 354.074688 46.472 
Q 352.074688 46.472 352.074688 48.472 
L 352.074688 62.150125 
Q 352.074688 64.150125 354.074688 64.150125 
z
" style="fill: #ffffff; opacity: 0.8; stroke: #cccccc; stroke-linejoin: miter"/>
    </g>
    <g id="line2d_16">
     <path d="M 356.074688 54.570438 
L 366.074688 54.570438 
L 376.074688 54.570438 
" style="fill: none; stroke: #1f77b4; stroke-width: 1.5; stroke-linecap: square"/>
    </g>
    <g id="text_15">
     <!-- set1 -->
     <g transform="translate(384.074688 58.070438)scale(0.1 -0.1)">
      <defs>
       <path id="DejaVuSans-73" d="M 2834 3397 
L 2834 2853 
Q 2591 2978 2328 3040 
Q 2066 3103 1784 3103 
Q 1356 3103 1142 2972 
Q 928 2841 928 2578 
Q 928 2378 1081 2264 
Q 1234 2150 1697 2047 
L 1894 2003 
Q 2506 1872 2764 1633 
Q 3022 1394 3022 966 
Q 3022 478 2636 193 
Q 2250 -91 1575 -91 
Q 1294 -91 989 -36 
Q 684 19 347 128 
L 347 722 
Q 666 556 975 473 
Q 1284 391 1588 391 
Q 1994 391 2212 530 
Q 2431 669 2431 922 
Q 2431 1156 2273 1281 
Q 2116 1406 1581 1522 
L 1381 1569 
Q 847 1681 609 1914 
Q 372 2147 372 2553 
Q 372 3047 722 3315 
Q 1072 3584 1716 3584 
Q 2034 3584 2315 3537 
Q 2597 3491 2834 3397 
z
" transform="scale(0.015625)"/>
       <path id="DejaVuSans-65" d="M 3597 1894 
L 3597 1613 
L 953 1613 
Q 991 1019 1311 708 
Q 1631 397 2203 397 
Q 2534 397 2845 478 
Q 3156 559 3463 722 
L 3463 178 
Q 3153 47 2828 -22 
Q 2503 -91 2169 -91 
Q 1331 -91 842 396 
Q 353 884 353 1716 
Q 353 2575 817 3079 
Q 1281 3584 2069 3584 
Q 2775 3584 3186 3129 
Q 3597 2675 3597 1894 
z
M 3022 2063 
Q 3016 2534 2758 2815 
Q 2500 3097 2075 3097 
Q 1594 3097 1305 2825 
Q 1016 2553 972 2059 
L 3022 2063 
z
" transform="scale(0.015625)"/>
       <path id="DejaVuSans-74" d="M 1172 4494 
L 1172 3500 
L 2356 3500 
L 2356 3053 
L 1172 3053 
L 1172 1153 
Q 1172 725 1289 603 
Q 1406 481 1766 481 
L 2356 481 
L 2356 0 
L 1766 0 
Q 1100 0 847 248 
Q 594 497 594 1153 
L 594 3053 
L 172 3053 
L 172 3500 
L 594 3500 
L 594 4494 
L 1172 4494 
z
" transform="scale(0.015625)"/>
      </defs>
      <use xlink:href="#DejaVuSans-73"/>
      <use xlink:href="#DejaVuSans-65" x="52.099609"/>
      <use xlink:href="#DejaVuSans-74" x="113.623047"/>
      <use xlink:href="#DejaVuSans-31" x="152.832031"/>
     </g>
    </g>
   </g>
  </g>
 </g>
 <defs>
  <clipPath id="p5e30b80d46">
   <rect x="57.6" y="41.472" width="357.12" height="266.112"/>
  </clipPath>
 </defs>
</svg>
