<?xml version="1.0" encoding="utf-8" standalone="no"?>
<!DOCTYPE svg PUBLIC "-//W3C//DTD SVG 1.1//EN"
  "http://www.w3.org/Graphics/SVG/1.1/DTD/svg11.dtd">
<svg xmlns:xlink="http://www.w3.org/1999/xlink" width="460.8pt" height="345.6pt" viewBox="0 0 460.8 345.6" xmlns="http://www.w3.org/2000/svg" version="1.1">
 <metadata>
  <rdf:RDF xmlns:dc="http://purl.org/dc/elements/1.1/" xmlns:cc="http://creativecommons.org/ns#" xmlns:rdf="http://www.w3.org/1999/02/22-rdf-syntax-ns#">
   <cc:Work>
    <dc:type rdf:resource="http://purl.org/dc/dcmitype/StillImage"/>
    <dc:date>2022-08-11T15:18:03.198869</dc:date>
    <dc:format>image/svg+xml</dc:format>
    <dc:creator>
     <cc:Agent>
      <dc:title>Matplotlib v3.5.2, https://matplotlib.org/</dc:title>
     </cc:Agent>
    </dc:creator>
   </cc:Work>
  </rdf:RDF>
 </metadata>
 <defs>
  <style type="text/css">*{stroke-linejoin: round; stroke-linecap: butt}</style>
 </defs>
 <g id="figure_1">
  <g id="patch_1">
   <path d="M 0 345.6 
L 460.8 345.6 
L 460.8 0 
L 0 0 
z
" style="fill: #ffffff"/>
  </g>
  <g id="axes_1">
   <g id="patch_2">
    <path d="M 57.6 307.584 
L 414.72 307.584 
L 414.72 41.472 
L 57.6 41.472 
z
" style="fill: #ffffff"/>
   </g>
   <g id="matplotlib.axis_1">
    <g id="xtick_1">
     <g id="line2d_1">
      <defs>
       <path id="m2f12b380e6" d="M 0 0 
L 0 3.5 
" style="stroke: #000000; stroke-width: 0.8"/>
      </defs>
      <g>
       <use xlink:href="#m2f12b380e6" x="73.832727" y="307.584" style="stroke: #000000; stroke-width: 0.8"/>
      </g>
     </g>
     <g id="text_1">
      <!-- 0 -->
      <g transform="translate(70.651477 322.182437)scale(0.1 -0.1)">
       <defs>
        <path id="DejaVuSans-30" d="M 2034 4250 
Q 1547 4250 1301 3770 
Q 1056 3291 1056 2328 
Q 1056 1369 1301 889 
Q 1547 409 2034 409 
Q 2525 409 2770 889 
Q 3016 1369 3016 2328 
Q 3016 3291 2770 3770 
Q 2525 4250 2034 4250 
z
M 2034 4750 
Q 2819 4750 3233 4129 
Q 3647 3509 3647 2328 
Q 3647 1150 3233 529 
Q 2819 -91 2034 -91 
Q 1250 -91 836 529 
Q 422 1150 422 2328 
Q 422 3509 836 4129 
Q 1250 4750 2034 4750 
z
" transform="scale(0.015625)"/>
       </defs>
       <use xlink:href="#DejaVuSans-30"/>
      </g>
     </g>
    </g>
    <g id="xtick_2">
     <g id="line2d_2">
      <g>
       <use xlink:href="#m2f12b380e6" x="118.936165" y="307.584" style="stroke: #000000; stroke-width: 0.8"/>
      </g>
     </g>
     <g id="text_2">
      <!-- 500 -->
      <g transform="translate(109.392415 322.182437)scale(0.1 -0.1)">
       <defs>
        <path id="DejaVuSans-35" d="M 691 4666 
L 3169 4666 
L 3169 4134 
L 1269 4134 
L 1269 2991 
Q 1406 3038 1543 3061 
Q 1681 3084 1819 3084 
Q 2600 3084 3056 2656 
Q 3513 2228 3513 1497 
Q 3513 744 3044 326 
Q 2575 -91 1722 -91 
Q 1428 -91 1123 -41 
Q 819 9 494 109 
L 494 744 
Q 775 591 1075 516 
Q 1375 441 1709 441 
Q 2250 441 2565 725 
Q 2881 1009 2881 1497 
Q 2881 1984 2565 2268 
Q 2250 2553 1709 2553 
Q 1456 2553 1204 2497 
Q 953 2441 691 2322 
L 691 4666 
z
" transform="scale(0.015625)"/>
       </defs>
       <use xlink:href="#DejaVuSans-35"/>
       <use xlink:href="#DejaVuSans-30" x="63.623047"/>
       <use xlink:href="#DejaVuSans-30" x="127.246094"/>
      </g>
     </g>
    </g>
    <g id="xtick_3">
     <g id="line2d_3">
      <g>
       <use xlink:href="#m2f12b380e6" x="164.039603" y="307.584" style="stroke: #000000; stroke-width: 0.8"/>
      </g>
     </g>
     <g id="text_3">
      <!-- 1000 -->
      <g transform="translate(151.314603 322.182437)scale(0.1 -0.1)">
       <defs>
        <path id="DejaVuSans-31" d="M 794 531 
L 1825 531 
L 1825 4091 
L 703 3866 
L 703 4441 
L 1819 4666 
L 2450 4666 
L 2450 531 
L 3481 531 
L 3481 0 
L 794 0 
L 794 531 
z
" transform="scale(0.015625)"/>
       </defs>
       <use xlink:href="#DejaVuSans-31"/>
       <use xlink:href="#DejaVuSans-30" x="63.623047"/>
       <use xlink:href="#DejaVuSans-30" x="127.246094"/>
       <use xlink:href="#DejaVuSans-30" x="190.869141"/>
      </g>
     </g>
    </g>
    <g id="xtick_4">
     <g id="line2d_4">
      <g>
       <use xlink:href="#m2f12b380e6" x="209.143041" y="307.584" style="stroke: #000000; stroke-width: 0.8"/>
      </g>
     </g>
     <g id="text_4">
      <!-- 1500 -->
      <g transform="translate(196.418041 322.182437)scale(0.1 -0.1)">
       <use xlink:href="#DejaVuSans-31"/>
       <use xlink:href="#DejaVuSans-35" x="63.623047"/>
       <use xlink:href="#DejaVuSans-30" x="127.246094"/>
       <use xlink:href="#DejaVuSans-30" x="190.869141"/>
      </g>
     </g>
    </g>
    <g id="xtick_5">
     <g id="line2d_5">
      <g>
       <use xlink:href="#m2f12b380e6" x="254.246479" y="307.584" style="stroke: #000000; stroke-width: 0.8"/>
      </g>
     </g>
     <g id="text_5">
      <!-- 2000 -->
      <g transform="translate(241.521479 322.182437)scale(0.1 -0.1)">
       <defs>
        <path id="DejaVuSans-32" d="M 1228 531 
L 3431 531 
L 3431 0 
L 469 0 
L 469 531 
Q 828 903 1448 1529 
Q 2069 2156 2228 2338 
Q 2531 2678 2651 2914 
Q 2772 3150 2772 3378 
Q 2772 3750 2511 3984 
Q 2250 4219 1831 4219 
Q 1534 4219 1204 4116 
Q 875 4013 500 3803 
L 500 4441 
Q 881 4594 1212 4672 
Q 1544 4750 1819 4750 
Q 2544 4750 2975 4387 
Q 3406 4025 3406 3419 
Q 3406 3131 3298 2873 
Q 3191 2616 2906 2266 
Q 2828 2175 2409 1742 
Q 1991 1309 1228 531 
z
" transform="scale(0.015625)"/>
       </defs>
       <use xlink:href="#DejaVuSans-32"/>
       <use xlink:href="#DejaVuSans-30" x="63.623047"/>
       <use xlink:href="#DejaVuSans-30" x="127.246094"/>
       <use xlink:href="#DejaVuSans-30" x="190.869141"/>
      </g>
     </g>
    </g>
    <g id="xtick_6">
     <g id="line2d_6">
      <g>
       <use xlink:href="#m2f12b380e6" x="299.349916" y="307.584" style="stroke: #000000; stroke-width: 0.8"/>
      </g>
     </g>
     <g id="text_6">
      <!-- 2500 -->
      <g transform="translate(286.624916 322.182437)scale(0.1 -0.1)">
       <use xlink:href="#DejaVuSans-32"/>
       <use xlink:href="#DejaVuSans-35" x="63.623047"/>
       <use xlink:href="#DejaVuSans-30" x="127.246094"/>
       <use xlink:href="#DejaVuSans-30" x="190.869141"/>
      </g>
     </g>
    </g>
    <g id="xtick_7">
     <g id="line2d_7">
      <g>
       <use xlink:href="#m2f12b380e6" x="344.453354" y="307.584" style="stroke: #000000; stroke-width: 0.8"/>
      </g>
     </g>
     <g id="text_7">
      <!-- 3000 -->
      <g transform="translate(331.728354 322.182437)scale(0.1 -0.1)">
       <defs>
        <path id="DejaVuSans-33" d="M 2597 2516 
Q 3050 2419 3304 2112 
Q 3559 1806 3559 1356 
Q 3559 666 3084 287 
Q 2609 -91 1734 -91 
Q 1441 -91 1130 -33 
Q 819 25 488 141 
L 488 750 
Q 750 597 1062 519 
Q 1375 441 1716 441 
Q 2309 441 2620 675 
Q 2931 909 2931 1356 
Q 2931 1769 2642 2001 
Q 2353 2234 1838 2234 
L 1294 2234 
L 1294 2753 
L 1863 2753 
Q 2328 2753 2575 2939 
Q 2822 3125 2822 3475 
Q 2822 3834 2567 4026 
Q 2313 4219 1838 4219 
Q 1578 4219 1281 4162 
Q 984 4106 628 3988 
L 628 4550 
Q 988 4650 1302 4700 
Q 1616 4750 1894 4750 
Q 2613 4750 3031 4423 
Q 3450 4097 3450 3541 
Q 3450 3153 3228 2886 
Q 3006 2619 2597 2516 
z
" transform="scale(0.015625)"/>
       </defs>
       <use xlink:href="#DejaVuSans-33"/>
       <use xlink:href="#DejaVuSans-30" x="63.623047"/>
       <use xlink:href="#DejaVuSans-30" x="127.246094"/>
       <use xlink:href="#DejaVuSans-30" x="190.869141"/>
      </g>
     </g>
    </g>
    <g id="xtick_8">
     <g id="line2d_8">
      <g>
       <use xlink:href="#m2f12b380e6" x="389.556792" y="307.584" style="stroke: #000000; stroke-width: 0.8"/>
      </g>
     </g>
     <g id="text_8">
      <!-- 3500 -->
      <g transform="translate(376.831792 322.182437)scale(0.1 -0.1)">
       <use xlink:href="#DejaVuSans-33"/>
       <use xlink:href="#DejaVuSans-35" x="63.623047"/>
       <use xlink:href="#DejaVuSans-30" x="127.246094"/>
       <use xlink:href="#DejaVuSans-30" x="190.869141"/>
      </g>
     </g>
    </g>
   </g>
   <g id="matplotlib.axis_2">
    <g id="ytick_1">
     <g id="line2d_9">
      <defs>
       <path id="m53d3d8960f" d="M 0 0 
L -3.5 0 
" style="stroke: #000000; stroke-width: 0.8"/>
      </defs>
      <g>
       <use xlink:href="#m53d3d8960f" x="57.6" y="289.529414" style="stroke: #000000; stroke-width: 0.8"/>
      </g>
     </g>
     <g id="text_9">
      <!-- 4000 -->
      <g transform="translate(25.15 293.328633)scale(0.1 -0.1)">
       <defs>
        <path id="DejaVuSans-34" d="M 2419 4116 
L 825 1625 
L 2419 1625 
L 2419 4116 
z
M 2253 4666 
L 3047 4666 
L 3047 1625 
L 3713 1625 
L 3713 1100 
L 3047 1100 
L 3047 0 
L 2419 0 
L 2419 1100 
L 313 1100 
L 313 1709 
L 2253 4666 
z
" transform="scale(0.015625)"/>
       </defs>
       <use xlink:href="#DejaVuSans-34"/>
       <use xlink:href="#DejaVuSans-30" x="63.623047"/>
       <use xlink:href="#DejaVuSans-30" x="127.246094"/>
       <use xlink:href="#DejaVuSans-30" x="190.869141"/>
      </g>
     </g>
    </g>
    <g id="ytick_2">
     <g id="line2d_10">
      <g>
       <use xlink:href="#m53d3d8960f" x="57.6" y="231.432848" style="stroke: #000000; stroke-width: 0.8"/>
      </g>
     </g>
     <g id="text_10">
      <!-- 4100 -->
      <g transform="translate(25.15 235.232067)scale(0.1 -0.1)">
       <use xlink:href="#DejaVuSans-34"/>
       <use xlink:href="#DejaVuSans-31" x="63.623047"/>
       <use xlink:href="#DejaVuSans-30" x="127.246094"/>
       <use xlink:href="#DejaVuSans-30" x="190.869141"/>
      </g>
     </g>
    </g>
    <g id="ytick_3">
     <g id="line2d_11">
      <g>
       <use xlink:href="#m53d3d8960f" x="57.6" y="173.336283" style="stroke: #000000; stroke-width: 0.8"/>
      </g>
     </g>
     <g id="text_11">
      <!-- 4200 -->
      <g transform="translate(25.15 177.135502)scale(0.1 -0.1)">
       <use xlink:href="#DejaVuSans-34"/>
       <use xlink:href="#DejaVuSans-32" x="63.623047"/>
       <use xlink:href="#DejaVuSans-30" x="127.246094"/>
       <use xlink:href="#DejaVuSans-30" x="190.869141"/>
      </g>
     </g>
    </g>
    <g id="ytick_4">
     <g id="line2d_12">
      <g>
       <use xlink:href="#m53d3d8960f" x="57.6" y="115.239717" style="stroke: #000000; stroke-width: 0.8"/>
      </g>
     </g>
     <g id="text_12">
      <!-- 4300 -->
      <g transform="translate(25.15 119.038936)scale(0.1 -0.1)">
       <use xlink:href="#DejaVuSans-34"/>
       <use xlink:href="#DejaVuSans-33" x="63.623047"/>
       <use xlink:href="#DejaVuSans-30" x="127.246094"/>
       <use xlink:href="#DejaVuSans-30" x="190.869141"/>
      </g>
     </g>
    </g>
    <g id="ytick_5">
     <g id="line2d_13">
      <g>
       <use xlink:href="#m53d3d8960f" x="57.6" y="57.143152" style="stroke: #000000; stroke-width: 0.8"/>
      </g>
     </g>
     <g id="text_13">
      <!-- 4400 -->
      <g transform="translate(25.15 60.94237)scale(0.1 -0.1)">
       <use xlink:href="#DejaVuSans-34"/>
       <use xlink:href="#DejaVuSans-34" x="63.623047"/>
       <use xlink:href="#DejaVuSans-30" x="127.246094"/>
       <use xlink:href="#DejaVuSans-30" x="190.869141"/>
      </g>
     </g>
    </g>
   </g>
   <g id="line2d_14">
    <path d="M 73.832727 171.846707 
L 73.922934 172.591353 
L 74.013141 177.581757 
L 74.193555 172.963818 
L 74.283762 174.230142 
L 74.373969 172.665959 
L 74.464175 173.485212 
L 74.644589 180.468147 
L 75.276037 182.423232 
L 75.456451 191.584505 
L 75.636865 187.935031 
L 75.727072 191.733434 
L 75.817279 190.765253 
L 75.907485 186.147313 
L 75.997692 186.668707 
L 76.178106 192.627293 
L 76.268313 184.73206 
L 76.35852 187.264424 
L 76.448727 197.245233 
L 76.538934 192.329435 
L 76.719347 175.27293 
L 76.899761 177.507434 
L 77.080175 182.274304 
L 77.260589 181.00798 
L 77.350795 181.00798 
L 77.441002 181.231516 
L 77.621416 180.26305 
L 77.711623 181.827232 
L 77.892037 190.914182 
L 78.07245 180.412263 
L 78.162657 183.46602 
L 78.343071 181.231516 
L 78.523485 190.392788 
L 78.613692 190.318465 
L 78.794105 193.521151 
L 78.884312 191.659111 
L 78.974519 193.670081 
L 79.064726 200.29899 
L 79.154933 200.075738 
L 79.335347 186.147313 
L 79.425554 189.275677 
L 79.605967 200.001131 
L 79.696174 197.543091 
L 79.786381 197.617697 
L 80.147209 210.205192 
L 80.327622 207.151434 
L 80.417829 208.790223 
L 80.508036 208.045293 
L 80.778657 211.769374 
L 81.139484 209.758404 
L 81.229691 210.950121 
L 81.500312 226.66598 
L 81.590519 222.79297 
L 81.680725 223.835475 
L 81.861139 229.794343 
L 82.041553 262.119778 
L 82.13176 262.93903 
L 82.312174 256.757051 
L 82.582794 245.137738 
L 82.763208 243.64802 
L 82.853415 244.020485 
L 83.033829 246.329454 
L 83.124035 242.232909 
L 83.214242 242.679697 
L 83.394656 251.692182 
L 83.57507 242.903232 
L 83.665277 247.670101 
L 83.755484 243.94602 
L 84.026104 224.207939 
L 84.206518 228.304484 
L 84.296725 225.995657 
L 84.477139 228.081233 
L 84.657552 215.12099 
L 84.747759 217.653637 
L 84.837966 215.791596 
L 84.928173 207.970686 
L 85.108587 219.068605 
L 85.469414 186.966566 
L 85.559621 179.965192 
L 85.830242 191.584505 
L 86.281276 173.559819 
L 86.46169 183.018949 
L 86.551897 181.305838 
L 86.73231 187.935031 
L 86.912724 181.60398 
L 87.093138 190.318465 
L 87.453965 181.75291 
L 87.544172 182.199697 
L 87.814793 179.965192 
L 87.995207 181.305838 
L 88.085414 179.443798 
L 88.265827 172.442424 
L 88.446241 184.359596 
L 88.897276 161.940506 
L 88.987482 164.621798 
L 89.077689 166.334909 
L 89.167896 162.014828 
L 89.34831 175.049394 
L 89.528724 160.078465 
L 89.709137 167.824484 
L 89.979758 156.726565 
L 90.160172 181.454767 
L 90.250379 179.816263 
L 90.430792 172.814889 
L 90.611206 180.561192 
L 90.701413 179.369475 
L 90.881827 170.803919 
L 91.062241 174.304464 
L 91.242654 184.210666 
L 91.423068 181.75291 
L 91.603482 190.169252 
L 91.964309 177.358222 
L 92.144723 174.006606 
L 92.23493 175.496181 
L 92.415344 184.136344 
L 92.595757 178.99701 
L 92.685964 182.572162 
L 92.776171 181.380444 
L 92.866378 177.432829 
L 93.136999 183.391414 
L 93.227206 181.305838 
L 93.317412 181.380444 
L 93.407619 183.46602 
L 93.497826 183.242485 
L 93.67824 176.241111 
L 93.858654 180.710121 
L 93.948861 178.177758 
L 94.219481 188.232889 
L 94.309688 187.413637 
L 94.399895 190.169252 
L 94.490102 188.456425 
L 94.670516 180.188727 
L 94.760722 182.795698 
L 94.850929 182.721091 
L 95.12155 171.995637 
L 95.211757 174.602606 
L 95.301964 174.230142 
L 95.482377 169.686525 
L 95.572584 170.133596 
L 95.662791 166.856303 
L 95.752998 167.750162 
L 96.113826 180.337657 
L 96.294239 164.919656 
L 96.384446 169.239737 
L 96.56486 166.664823 
L 97.106101 165.962444 
L 97.196308 165.58998 
L 97.286515 156.577637 
L 97.376722 156.652243 
L 97.466929 162.759758 
L 97.557136 161.419112 
L 97.647342 160.897718 
L 97.737549 165.962444 
L 97.827756 163.206545 
L 97.917963 152.406484 
L 98.00817 153.300343 
L 98.098377 163.206545 
L 98.278791 65.559778 
L 98.368997 67.645354 
L 98.459204 67.496141 
L 98.549411 65.634101 
L 98.820032 72.561152 
L 99.090652 64.665919 
L 99.180859 63.474202 
L 99.271066 64.963778 
L 99.45148 57.888082 
L 99.541687 58.334869 
L 99.631894 60.494768 
L 99.812307 58.111333 
L 99.992721 64.368061 
L 100.173135 61.090768 
L 100.353549 73.007939 
L 100.533962 69.656323 
L 100.714376 65.336243 
L 100.89479 74.795657 
L 101.075204 71.890829 
L 101.255617 82.839819 
L 101.526238 63.697738 
L 101.796859 82.020282 
L 101.887066 81.498889 
L 101.977272 81.94596 
L 102.067479 81.648101 
L 102.157686 80.828565 
L 102.247893 81.871354 
L 102.3381 81.424566 
L 102.428307 79.93499 
L 103.059755 99.747394 
L 103.240169 89.319799 
L 103.420582 100.045252 
L 103.510789 97.438283 
L 103.871617 102.35408 
L 104.052031 97.438283 
L 104.232444 109.206525 
L 104.412858 92.969273 
L 104.503065 96.76796 
L 104.683479 85.521111 
L 104.773686 86.712828 
L 104.954099 84.031536 
L 105.22472 93.341737 
L 105.675754 172.442424 
L 106.216996 277.910101 
L 106.307203 183.61495 
L 106.397409 184.210666 
L 106.577823 174.006606 
L 106.66803 181.678303 
L 106.848444 169.910061 
L 107.028858 183.46602 
L 107.119064 180.561192 
L 107.299478 184.508808 
L 107.389685 180.337657 
L 107.840719 199.256202 
L 108.021133 189.35 
L 108.11134 198.064485 
L 108.201547 196.798445 
L 108.291754 189.424606 
L 108.562374 193.362861 
L 109.193823 202.682424 
L 109.374236 184.061737 
L 109.55465 193.148687 
L 109.644857 192.999757 
L 109.735064 195.457798 
L 109.915478 191.361253 
L 110.005684 197.319839 
L 110.095891 197.17091 
L 110.186098 194.638262 
L 110.366512 199.181879 
L 110.456719 199.03295 
L 110.637133 203.278424 
L 110.727339 200.29899 
L 110.817546 204.693393 
L 110.99796 221.750182 
L 111.178374 181.231516 
L 111.358788 192.403757 
L 111.448994 192.478363 
L 111.539201 193.893617 
L 111.719615 191.584505 
L 111.809822 191.808041 
L 111.900029 188.828606 
L 112.080443 196.351373 
L 112.170649 190.392788 
L 112.260856 190.467394 
L 112.44127 201.639636 
L 112.621684 199.777596 
L 112.802098 189.35 
L 112.982511 191.882364 
L 113.162925 193.07408 
L 113.343339 184.88099 
L 113.523753 189.871394 
L 113.704166 180.85905 
L 113.974787 191.584505 
L 114.064994 189.648142 
L 114.155201 190.094929 
L 114.245408 190.094929 
L 114.425821 190.988788 
L 114.606235 201.416384 
L 114.786649 190.392788 
L 114.876856 192.55297 
L 114.967063 191.21204 
L 115.057269 192.55297 
L 115.147476 199.777596 
L 115.237683 199.088833 
L 115.869131 194.266081 
L 115.959338 197.319839 
L 116.049545 196.202444 
L 116.139752 190.467394 
L 116.229959 191.882364 
L 116.410373 201.490707 
L 116.500579 196.500303 
L 116.590786 196.649516 
L 116.7712 201.490707 
L 116.861407 195.606728 
L 117.041821 207.598222 
L 117.222234 186.370849 
L 117.312441 189.20107 
L 117.402648 191.95697 
L 117.763476 182.050768 
L 117.853683 183.61495 
L 117.943889 183.540343 
L 118.124303 175.421859 
L 118.21451 176.837112 
L 118.304717 173.410889 
L 118.394924 174.006606 
L 118.485131 177.581757 
L 118.665544 170.65499 
L 118.755751 173.187353 
L 118.936165 171.176384 
L 119.026372 173.485212 
L 119.206786 164.994263 
L 119.296993 168.494808 
L 119.387199 167.973414 
L 119.477406 163.281152 
L 119.65782 169.090808 
L 119.928441 153.523879 
L 120.018648 154.119596 
L 120.199061 166.111374 
L 120.559889 153.226021 
L 120.740303 163.132222 
L 120.920716 153.821737 
L 121.010923 154.119596 
L 121.281544 151.36398 
L 121.461958 144.362607 
L 121.552164 144.809394 
L 121.642371 144.511536 
L 121.912992 157.84396 
L 122.003199 156.577637 
L 122.183613 146.15004 
L 122.364026 147.341758 
L 122.454233 147.788829 
L 122.634647 283.421758 
L 123.266095 262.715636 
L 123.536716 269.791475 
L 123.626923 269.940404 
L 123.71713 267.85497 
L 123.807336 268.003899 
L 123.98775 276.569455 
L 124.168164 271.281192 
L 124.348578 274.036949 
L 124.619198 264.950142 
L 124.799612 270.908727 
L 124.889819 269.86594 
L 125.070233 271.72798 
L 125.250646 261.523919 
L 125.43106 264.652141 
L 125.521267 260.555596 
L 125.701681 270.089475 
L 126.152715 228.379091 
L 126.242922 229.347272 
L 126.513543 241.339051 
L 126.60375 240.370727 
L 126.784163 234.859071 
L 126.87437 236.87004 
L 126.964577 236.274182 
L 127.054784 237.242505 
L 127.235198 247.372101 
L 127.415611 244.839737 
L 127.596025 246.850849 
L 127.686232 246.776242 
L 127.776439 246.552849 
L 127.956853 244.839737 
L 128.04706 244.541879 
L 128.227473 246.105919 
L 128.407887 244.541879 
L 128.588301 247.744565 
L 128.678508 246.999778 
L 128.768715 243.871414 
L 128.858921 245.063131 
L 128.949128 248.638425 
L 129.039335 248.265959 
L 129.219749 245.435596 
L 129.309956 244.243879 
L 129.49037 240.966586 
L 129.580576 242.828768 
L 129.76099 236.646646 
L 129.941404 244.09495 
L 130.121818 231.879636 
L 130.302231 243.201091 
L 130.663059 207.37497 
L 130.753266 209.534868 
L 130.843473 208.49208 
L 131.023886 205.810788 
L 131.2043 209.98194 
L 131.294507 209.38594 
L 131.474921 209.534868 
L 131.565128 209.162404 
L 131.745541 217.57903 
L 131.925955 215.642383 
L 132.106369 219.292141 
L 132.196576 217.653637 
L 132.37699 210.726586 
L 132.467196 210.950121 
L 132.64761 206.927898 
L 132.828024 210.50305 
L 132.918231 210.50305 
L 133.098645 219.217535 
L 133.279058 214.599879 
L 133.369265 215.046667 
L 133.459472 213.854949 
L 133.549679 214.152808 
L 133.639886 216.908707 
L 133.8203 207.970686 
L 133.910506 211.173657 
L 134.000713 215.270202 
L 134.181127 205.51293 
L 134.361541 211.173657 
L 134.451748 208.939152 
L 134.722368 216.610849 
L 134.902782 210.056262 
L 134.992989 210.130869 
L 135.083196 211.322586 
L 135.26361 207.523899 
L 135.444023 212.514303 
L 135.714644 206.927898 
L 135.804851 207.226041 
L 135.895058 210.652263 
L 135.985265 210.428727 
L 136.165678 204.246606 
L 136.255885 206.257576 
L 136.526506 199.777596 
L 136.70692 211.099051 
L 136.887333 202.459172 
L 136.97754 207.672828 
L 137.067747 207.449292 
L 137.789402 197.617697 
L 137.879609 188.903212 
L 137.969816 189.946 
L 138.060023 192.254828 
L 138.15023 187.935031 
L 138.240436 188.605354 
L 138.330643 192.850829 
L 138.42085 192.180505 
L 138.511057 191.361253 
L 138.691471 193.07408 
L 138.781678 124.103131 
L 138.871885 124.848061 
L 138.962091 126.412243 
L 139.052298 126.039778 
L 139.232712 123.656344 
L 139.322919 125.518384 
L 139.503333 123.805273 
L 139.59354 124.103131 
L 139.773953 117.92101 
L 139.86416 120.52798 
L 139.954367 119.932263 
L 140.044574 117.772081 
L 140.224988 124.103131 
L 140.405402 119.336263 
L 140.585815 130.583111 
L 140.676022 130.285253 
L 140.766229 128.572141 
L 140.946643 134.456404 
L 141.03685 132.594081 
L 141.217263 125.890849 
L 141.397677 124.99699 
L 141.487884 127.156889 
L 141.578091 125.667313 
L 141.668298 121.049374 
L 141.758505 123.879596 
L 141.848712 132.370829 
L 141.938918 131.179111 
L 142.119332 121.496161 
L 142.299746 129.540323 
L 142.389953 128.125354 
L 142.48016 128.646748 
L 142.570367 128.572141 
L 142.75078 126.114101 
L 143.021401 135.573515 
L 143.111608 134.828585 
L 143.201815 136.020303 
L 143.292022 135.722445 
L 143.382228 133.041152 
L 143.472435 133.33901 
L 143.562642 132.743293 
L 143.833263 125.518384 
L 144.013677 135.722445 
L 144.103883 135.424586 
L 144.19409 134.158263 
L 144.464711 147.490687 
L 144.645125 137.063091 
L 144.825538 155.534849 
L 144.915745 154.343131 
L 145.005952 151.36398 
L 145.186366 157.396889 
L 145.276573 156.726565 
L 145.6374 172.069959 
L 146.81009 275.377737 
L 146.900297 195.532121 
L 146.990503 195.68105 
L 147.170917 188.232889 
L 147.261124 190.690646 
L 147.441538 182.87002 
L 147.621952 191.659111 
L 147.712158 190.616323 
L 147.802365 192.55297 
L 147.892572 192.254828 
L 147.982779 187.935031 
L 148.072986 188.679676 
L 148.163193 190.690646 
L 148.2534 189.498929 
L 148.343607 190.467394 
L 148.433813 192.701899 
L 148.614227 189.20107 
L 148.704434 192.105899 
L 148.794641 191.510182 
L 148.884848 190.690646 
L 149.065262 192.850829 
L 149.786917 197.245233 
L 149.96733 190.392788 
L 150.057537 191.286647 
L 150.237951 197.990162 
L 150.328158 196.500303 
L 150.418365 190.765253 
L 150.508572 191.21204 
L 150.688985 198.064485 
L 150.779192 197.096303 
L 150.959606 199.628667 
L 151.14002 196.42598 
L 151.320433 201.863172 
L 151.41064 197.766627 
L 151.591054 207.151434 
L 151.771468 196.500303 
L 152.042088 198.139091 
L 152.132295 195.829979 
L 152.312709 184.806667 
L 152.402916 190.690646 
L 152.493123 190.392788 
L 152.58333 192.105899 
L 152.673537 197.468768 
L 152.85395 192.254828 
L 153.034364 208.715616 
L 153.575605 198.28802 
L 153.756019 202.533495 
L 154.02664 191.063111 
L 154.116847 193.521151 
L 154.29726 189.20107 
L 154.477674 193.670081 
L 154.567881 192.478363 
L 154.748295 188.903212 
L 154.928708 191.95697 
L 155.018915 209.162404 
L 155.109122 208.194222 
L 155.289536 212.439697 
L 155.46995 208.343152 
L 155.560157 208.864546 
L 155.650363 210.950121 
L 155.830777 217.39294 
L 156.462225 224.952869 
L 156.642639 228.155556 
L 156.823053 225.772121 
L 156.91326 228.751556 
L 157.003467 228.602627 
L 157.093673 224.207939 
L 157.18388 224.356868 
L 157.274087 229.124021 
L 157.364294 228.155556 
L 157.454501 224.05901 
L 157.634915 234.114283 
L 157.725122 232.549959 
L 157.995742 217.951495 
L 158.085949 219.888142 
L 158.176156 219.441071 
L 158.266363 216.685171 
L 158.35657 217.132243 
L 158.446777 218.32396 
L 158.62719 215.195596 
L 158.717397 216.834101 
L 158.897811 211.173657 
L 158.988018 213.184627 
L 159.078225 212.663233 
L 159.258639 207.37497 
L 159.348845 209.758404 
L 159.439052 206.77897 
L 159.529259 209.609475 
L 159.619466 216.536242 
L 159.79988 211.695051 
L 159.890087 216.610849 
L 159.980294 216.014848 
L 160.0705 209.088081 
L 160.250914 213.11002 
L 160.611742 199.330808 
L 160.792155 204.246606 
L 160.882362 198.809414 
L 160.972569 198.958343 
L 161.062776 201.714242 
L 161.152983 199.926525 
L 161.333397 205.289394 
L 161.604017 197.915555 
L 161.964845 202.16103 
L 162.145259 206.77897 
L 162.325672 201.416384 
L 162.506086 208.49208 
L 162.596293 207.896364 
L 162.866914 198.809414 
L 162.95712 199.181879 
L 163.047327 198.064485 
L 163.227741 257.427374 
L 163.498362 252.958364 
L 163.678775 243.722485 
L 163.768982 245.286666 
L 163.859189 245.137738 
L 164.12981 246.850849 
L 164.310224 252.660505 
L 164.40043 249.383212 
L 164.580844 255.863192 
L 164.671051 255.788727 
L 164.761258 254.745939 
L 164.851465 255.118404 
L 164.941672 253.703151 
L 165.212292 244.243879 
L 165.663327 256.757051 
L 165.753534 254.075616 
L 165.933947 244.690808 
L 166.024154 247.893495 
L 166.204568 239.700404 
L 166.384982 250.798323 
L 166.836016 228.825878 
L 166.926223 231.060384 
L 167.106637 236.87004 
L 167.377257 233.592747 
L 167.467464 233.890747 
L 167.647878 238.359758 
L 167.738085 238.136364 
L 167.918499 246.776242 
L 168.098912 238.583151 
L 168.189119 240.221798 
L 168.369533 244.318343 
L 168.640154 235.752788 
L 168.73036 236.423253 
L 168.910774 234.188747 
L 169.000981 234.486606 
L 169.091188 234.710141 
L 169.181395 236.944505 
L 169.271602 236.721111 
L 169.452015 229.719738 
L 169.632429 239.774869 
L 169.812843 233.369495 
L 169.90305 232.922424 
L 170.354084 216.759778 
L 170.534498 224.282546 
L 170.624705 223.463293 
L 170.714912 219.068605 
L 170.805119 219.441071 
L 170.895325 222.941899 
L 171.075739 217.355495 
L 171.165946 218.17503 
L 171.256153 193.967939 
L 171.34636 199.181879 
L 171.436567 201.043919 
L 171.61698 192.478363 
L 171.797394 201.490707 
L 172.068015 191.063111 
L 172.158222 191.286647 
L 172.338635 196.202444 
L 172.428842 195.904586 
L 172.699463 199.554344 
L 172.78967 197.245233 
L 172.879877 191.808041 
L 172.970084 192.329435 
L 173.06029 194.266081 
L 173.240704 181.00798 
L 173.421118 193.148687 
L 173.511325 189.797071 
L 173.601532 191.21204 
L 173.781945 201.192848 
L 173.962359 190.541717 
L 174.052566 190.914182 
L 174.23298 193.223293 
L 174.323187 192.55297 
L 174.413394 193.223293 
L 174.593807 198.362626 
L 174.774221 188.232889 
L 174.954635 190.988788 
L 175.044842 187.785818 
L 175.135049 187.860424 
L 175.405669 192.329435 
L 175.495876 192.627293 
L 175.856704 188.381818 
L 176.037117 191.063111 
L 176.217531 191.510182 
L 176.397945 182.646768 
L 176.578359 190.467394 
L 176.758772 182.572162 
L 176.848979 183.987414 
L 177.029393 181.082586 
L 177.209807 186.966566 
L 177.300014 186.519778 
L 177.480427 180.114121 
L 177.570634 183.838485 
L 177.751048 178.092656 
L 178.382496 165.44105 
L 178.472703 162.4619 
L 178.56291 163.876868 
L 178.743324 156.428707 
L 178.833531 159.482465 
L 178.923737 162.610828 
L 179.104151 145.926504 
L 179.194358 146.373576 
L 179.284565 148.309939 
L 179.374772 197.245233 
L 179.464979 193.297616 
L 179.555186 192.403757 
L 179.645392 193.81901 
L 179.825806 191.21204 
L 180.00622 199.330808 
L 180.096427 198.883737 
L 180.186634 199.330808 
L 180.367047 195.010727 
L 180.457254 198.660485 
L 180.547461 197.841232 
L 180.637668 196.649516 
L 180.727875 199.181879 
L 180.908289 192.254828 
L 181.178909 198.883737 
L 181.269116 199.256202 
L 181.359323 199.181879 
L 181.44953 201.416384 
L 181.629944 208.566687 
L 181.810357 200.969313 
L 181.990771 200.373596 
L 182.171185 209.162404 
L 182.441806 207.300364 
L 182.712426 192.180505 
L 182.89284 202.384566 
L 182.983047 200.671455 
L 183.073254 200.969313 
L 183.253667 207.226041 
L 183.434081 200.746061 
L 183.524288 202.16103 
L 183.704702 200.150061 
L 183.885116 205.364 
L 183.975322 204.395535 
L 184.065529 202.831353 
L 184.245943 207.226041 
L 184.426357 198.213414 
L 184.516564 199.256202 
L 184.606771 198.436949 
L 184.787184 204.246606 
L 184.877391 202.90596 
L 184.967598 199.926525 
L 185.057805 201.714242 
L 185.328426 209.907333 
L 185.599046 197.915555 
L 185.689253 200.001131 
L 185.869667 188.903212 
L 185.959874 191.21204 
L 186.050081 190.914182 
L 186.140287 188.754283 
L 186.230494 189.722465 
L 186.410908 188.530748 
L 187.042356 228.006626 
L 187.22277 225.995657 
L 187.403184 238.210828 
L 187.493391 197.096303 
L 187.583597 199.554344 
L 187.673804 195.308585 
L 187.764011 196.202444 
L 187.854218 202.012101 
L 187.944425 201.043919 
L 188.034632 197.617697 
L 188.124839 198.585879 
L 188.395459 208.939152 
L 188.485666 208.790223 
L 188.575873 206.77897 
L 188.66608 208.566687 
L 188.936701 217.504708 
L 189.026907 218.17503 
L 189.297528 208.268829 
L 189.477942 209.758404 
L 189.568149 210.279798 
L 189.838769 207.542622 
L 190.380011 203.352747 
L 190.560424 208.715616 
L 190.650631 207.300364 
L 190.740838 209.088081 
L 190.831045 208.64101 
L 190.921252 207.151434 
L 191.101666 208.194222 
L 191.191872 208.194222 
L 191.372286 210.801192 
L 191.733114 208.343152 
L 191.823321 210.726586 
L 191.913527 210.50305 
L 192.093941 215.865919 
L 192.274355 206.853576 
L 192.454769 209.460546 
L 192.544976 206.332182 
L 192.725389 208.939152 
L 192.905803 199.703273 
L 193.086217 209.088081 
L 193.176424 209.311333 
L 193.266631 210.279798 
L 193.356838 209.162404 
L 193.447044 209.311333 
L 193.717665 218.770747 
L 193.988286 207.523899 
L 194.078493 208.715616 
L 194.168699 209.013474 
L 194.258906 208.045293 
L 194.349113 208.864546 
L 194.529527 211.471515 
L 194.619734 209.23701 
L 194.800148 216.312707 
L 194.890354 215.940525 
L 194.980561 216.387313 
L 195.160975 219.217535 
L 195.341389 216.685171 
L 195.431596 218.994283 
L 195.521803 224.952869 
L 195.612009 187.711495 
L 195.702216 187.785818 
L 195.88263 190.839859 
L 196.153251 181.60398 
L 196.333664 191.659111 
L 197.235733 188.828606 
L 197.416147 187.413637 
L 197.596561 194.563939 
L 197.776974 181.60398 
L 197.957388 192.850829 
L 198.047595 186.668707 
L 198.137802 187.636888 
L 198.228009 193.521151 
L 198.318216 191.882364 
L 198.498629 185.402384 
L 198.679043 190.169252 
L 198.859457 184.88099 
L 198.949664 182.125374 
L 199.039871 182.721091 
L 199.130078 183.61495 
L 199.220284 182.721091 
L 199.400698 183.912808 
L 199.490905 182.944626 
L 199.671319 189.722465 
L 199.761526 188.605354 
L 199.851733 187.711495 
L 199.941939 188.232889 
L 200.122353 182.050768 
L 200.302767 189.424606 
L 200.483181 182.87002 
L 200.573388 184.061737 
L 200.663594 183.242485 
L 200.753801 184.657738 
L 200.844008 188.158282 
L 200.934215 187.264424 
L 201.114629 176.613576 
L 201.204836 177.283899 
L 201.385249 187.413637 
L 201.565663 181.901838 
L 201.746077 189.424606 
L 201.836284 188.009354 
L 202.016698 190.243859 
L 202.287318 183.391414 
L 202.377525 188.232889 
L 202.467732 187.413637 
L 202.557939 184.210666 
L 202.648146 186.668707 
L 202.738353 186.5941 
L 202.828559 183.391414 
L 202.918766 185.551596 
L 203.189387 201.565313 
L 203.369801 191.584505 
L 203.640421 197.021697 
L 203.820835 264.428748 
L 204.001249 259.885273 
L 204.091456 258.693556 
L 204.362076 246.478384 
L 204.452283 244.690808 
L 204.54249 247.148707 
L 204.632697 246.999778 
L 204.722904 246.180383 
L 204.813111 247.893495 
L 204.993524 245.361131 
L 205.083731 250.798323 
L 205.173938 249.457677 
L 205.264145 244.765272 
L 205.354352 244.988667 
L 205.444559 244.988667 
L 205.534766 245.584525 
L 205.624973 244.839737 
L 205.805386 235.156929 
L 205.9858 238.583151 
L 206.076007 236.87004 
L 206.256421 241.041192 
L 206.346628 238.657616 
L 206.527041 230.166525 
L 206.617248 231.060384 
L 206.797662 226.963838 
L 206.978076 233.220566 
L 207.248696 214.450666 
L 207.42911 207.151434 
L 207.609524 210.205192 
L 207.699731 209.609475 
L 207.880144 205.587252 
L 208.060558 208.343152 
L 208.240972 207.449292 
L 208.511593 216.834101 
L 208.692006 209.832727 
L 208.87242 211.992909 
L 209.052834 209.460546 
L 209.143041 210.056262 
L 209.413661 207.226041 
L 209.503868 206.257576 
L 209.594075 206.555717 
L 209.684282 206.406505 
L 209.774489 208.343152 
L 209.864696 208.268829 
L 210.04511 200.671455 
L 210.225523 210.801192 
L 210.496144 199.777596 
L 210.586351 199.852202 
L 210.766765 199.554344 
L 210.856971 197.841232 
L 210.947178 193.81901 
L 211.127592 199.926525 
L 211.308006 188.754283 
L 211.48842 197.990162 
L 211.668833 188.307212 
L 211.75904 190.839859 
L 211.939454 198.213414 
L 212.029661 198.511556 
L 212.210075 196.053515 
L 212.390488 200.29899 
L 212.570902 197.319839 
L 212.751316 198.585879 
L 212.841523 198.958343 
L 212.93173 200.89499 
L 213.112143 199.405131 
L 213.292557 202.012101 
L 213.563178 196.872767 
L 213.653385 197.245233 
L 213.833798 186.743313 
L 214.014212 199.479737 
L 214.104419 199.330808 
L 214.194626 198.064485 
L 214.284833 200.29899 
L 214.37504 199.330808 
L 214.465246 199.554344 
L 214.555453 200.001131 
L 214.735867 191.361253 
L 214.916281 201.788565 
L 215.006488 196.872767 
L 215.096695 197.766627 
L 215.186901 197.915555 
L 215.367315 189.35 
L 215.547729 190.690646 
L 215.637936 189.946 
L 215.81835 191.882364 
L 215.908556 191.435576 
L 215.998763 192.701899 
L 216.08897 192.55297 
L 216.269384 189.946 
L 216.359591 189.946 
L 216.449798 188.754283 
L 216.630211 190.318465 
L 216.720418 189.722465 
L 216.810625 190.020323 
L 216.900832 189.573535 
L 216.991039 188.232889 
L 217.171453 190.690646 
L 217.26166 190.020323 
L 217.442073 182.87002 
L 217.53228 182.795698 
L 217.622487 181.305838 
L 217.712694 181.827232 
L 217.893108 189.126748 
L 218.073521 180.412263 
L 218.253935 183.540343 
L 218.885383 175.794324 
L 219.065797 167.154162 
L 219.156004 170.133596 
L 219.246211 169.090808 
L 219.336418 163.951475 
L 219.516831 172.069959 
L 219.697245 160.376324 
L 219.877659 169.314344 
L 220.058073 159.929252 
L 220.328693 154.939132 
L 220.4189 154.715596 
L 220.509107 155.013455 
L 220.779728 152.108626 
L 220.960141 145.405111 
L 221.050348 146.671434 
L 221.230762 145.703253 
L 221.320969 147.118222 
L 221.501383 142.42596 
L 221.59159 143.245212 
L 221.681796 144.585858 
L 221.86221 138.403737 
L 221.952417 139.744667 
L 222.223038 148.235616 
L 222.313245 145.107252 
L 222.493658 134.903192 
L 222.764279 139.372202 
L 222.854486 135.201051 
L 222.944693 136.690626 
L 223.0349 145.479717 
L 223.125106 143.170889 
L 223.215313 134.009333 
L 223.30552 134.08394 
L 223.485934 138.627273 
L 223.576141 138.701879 
L 223.756555 136.169516 
L 223.846761 136.243839 
L 223.936968 136.765233 
L 224.117382 140.116848 
L 224.207589 139.074344 
L 224.297796 139.148667 
L 224.388003 140.712848 
L 224.47821 139.81899 
L 224.568416 137.80802 
L 224.74883 141.755636 
L 225.019451 135.797051 
L 225.109658 136.467374 
L 225.199865 136.094909 
L 225.380278 144.734788 
L 225.560692 141.010707 
L 225.741106 144.734788 
L 225.831313 141.829959 
L 226.011726 152.704627 
L 226.19214 147.043899 
L 226.372554 154.939132 
L 226.462761 154.045273 
L 226.552968 156.279778 
L 226.643175 154.715596 
L 226.733381 154.790202 
L 226.913795 163.281152 
L 227.004002 163.281152 
L 227.36483 190.541717 
L 227.455037 192.55297 
L 227.545243 197.17091 
L 227.725657 210.428727 
L 227.815864 209.832727 
L 227.996278 226.740303 
L 228.176692 175.719717 
L 228.266898 170.952849 
L 228.357105 171.250707 
L 228.447312 174.006606 
L 228.627726 169.239737 
L 228.898347 180.114121 
L 229.168967 172.442424 
L 229.620002 182.87002 
L 229.800415 179.965192 
L 229.890622 181.156909 
L 229.980829 179.890869 
L 230.071036 176.911435 
L 230.161243 177.730687 
L 230.341657 180.188727 
L 230.973105 181.75291 
L 231.153518 177.209293 
L 231.243725 180.114121 
L 231.333932 179.518404 
L 231.424139 179.816263 
L 231.514346 181.75291 
L 231.69476 178.773475 
L 231.875173 182.199697 
L 231.96538 181.529374 
L 232.145794 183.763879 
L 232.326208 179.890869 
L 232.596828 189.20107 
L 232.777242 192.254828 
L 233.047863 181.454767 
L 233.13807 181.60398 
L 233.318483 183.093556 
L 233.498897 174.230142 
L 233.679311 181.305838 
L 233.769518 181.082586 
L 233.859725 182.423232 
L 234.040138 181.678303 
L 234.220552 191.808041 
L 234.310759 191.659111 
L 234.58138 182.274304 
L 234.671587 183.46602 
L 234.852 181.678303 
L 234.942207 182.274304 
L 235.032414 181.976161 
L 235.212828 179.816263 
L 235.393242 181.60398 
L 235.483448 180.337657 
L 235.663862 183.912808 
L 235.754069 183.689272 
L 235.844276 181.75291 
L 235.934483 181.901838 
L 236.02469 181.380444 
L 236.114897 179.965192 
L 236.205103 210.428727 
L 236.29531 207.747435 
L 236.475724 205.885394 
L 236.565931 206.481111 
L 236.656138 206.555717 
L 236.836552 198.734808 
L 237.016965 213.138104 
L 237.73862 216.685171 
L 237.828827 218.919677 
L 237.919034 218.547211 
L 238.009241 220.260323 
L 238.099448 227.78309 
L 238.189655 225.325334 
L 238.279862 216.312707 
L 238.370068 219.738929 
L 238.550482 230.166525 
L 238.640689 224.729333 
L 238.730896 226.591373 
L 238.91131 232.773495 
L 239.18193 217.727959 
L 239.272137 220.260323 
L 239.362344 219.813535 
L 239.542758 216.089455 
L 239.723172 221.377717 
L 239.813378 220.781717 
L 239.903585 218.621818 
L 240.083999 221.973434 
L 240.174206 220.260323 
L 240.264413 220.334929 
L 240.444827 208.566687 
L 240.62524 216.387313 
L 240.715447 214.674202 
L 240.895861 218.919677 
L 241.256688 216.163777 
L 241.346895 218.025818 
L 241.617516 211.992909 
L 241.79793 207.37497 
L 241.978343 216.387313 
L 242.158757 205.736182 
L 242.339171 210.652263 
L 242.429378 209.98194 
L 242.609792 217.206565 
L 242.790205 209.534868 
L 242.880412 209.609475 
L 243.060826 211.322586 
L 243.24124 204.097677 
L 243.331447 204.246606 
L 243.421653 204.544464 
L 243.51186 201.565313 
L 243.692274 214.823131 
L 243.782481 214.376343 
L 244.143308 198.585879 
L 244.233515 202.086707 
L 244.413929 241.339051 
L 244.504136 239.774869 
L 244.774757 224.580404 
L 244.864963 227.336303 
L 245.045377 219.143212 
L 245.225791 226.889515 
L 245.315998 223.612222 
L 245.496412 228.52802 
L 245.586619 226.069979 
L 245.676825 226.368122 
L 245.767032 227.112768 
L 245.857239 226.591373 
L 246.037653 228.67695 
L 246.218067 225.399656 
L 246.39848 213.929272 
L 246.488687 215.940525 
L 246.578894 220.930646 
L 246.669101 220.334929 
L 246.939722 216.461919 
L 247.120135 210.950121 
L 247.210342 212.141839 
L 247.300549 211.24798 
L 247.390756 208.49208 
L 247.57117 226.442444 
L 247.751584 204.321212 
L 247.84179 204.768 
L 248.202618 215.865919 
L 248.383032 217.802566 
L 248.473239 218.249353 
L 248.743859 215.270202 
L 248.834066 214.674202 
L 249.01448 221.526646 
L 249.104687 219.888142 
L 249.2851 215.046667 
L 249.465514 216.685171 
L 249.555721 219.441071 
L 249.645928 219.292141 
L 249.826342 214.823131 
L 250.006755 216.610849 
L 250.187169 225.325334 
L 250.367583 221.303111 
L 250.45779 225.101798 
L 250.638204 206.63004 
L 250.72841 209.758404 
L 250.818617 213.631414 
L 250.999031 206.332182 
L 251.089238 209.683798 
L 251.269652 192.776222 
L 251.450065 204.246606 
L 251.540272 199.256202 
L 251.630479 200.522525 
L 251.720686 206.853576 
L 251.9011 194.861798 
L 252.081514 207.151434 
L 252.261927 197.766627 
L 252.352134 200.150061 
L 252.532548 222.19697 
L 252.622755 225.101798 
L 252.803169 217.430101 
L 252.983582 227.261696 
L 253.073789 226.517051 
L 253.163996 227.485232 
L 253.254203 226.442444 
L 253.34441 227.708768 
L 253.524824 233.369495 
L 253.61503 232.997031 
L 253.705237 236.050788 
L 253.885651 248.563818 
L 254.066065 237.540505 
L 254.156272 239.030081 
L 254.246479 237.838364 
L 254.426892 227.336303 
L 254.607306 238.434222 
L 254.697513 236.274182 
L 254.968134 246.999778 
L 255.05834 246.552849 
L 255.148547 247.372101 
L 255.328961 242.679697 
L 255.509375 251.617717 
L 255.689789 246.031455 
L 255.870202 249.606606 
L 255.960409 243.722485 
L 256.050616 244.541879 
L 256.23103 251.245252 
L 256.321237 252.362505 
L 256.411444 256.533515 
L 256.50165 256.310121 
L 256.682064 255.490727 
L 256.772271 255.714263 
L 256.862478 254.150081 
L 257.042892 247.670101 
L 257.223305 258.395555 
L 257.403719 244.318343 
L 257.584133 251.394182 
L 257.67434 249.979071 
L 257.764547 250.351536 
L 257.94496 256.310121 
L 258.125374 247.595637 
L 258.215581 249.010748 
L 258.395995 255.639798 
L 258.486202 255.416262 
L 258.576409 253.554222 
L 258.666615 254.075616 
L 258.756822 252.139111 
L 258.847029 246.25499 
L 258.937236 246.627313 
L 259.478477 248.861818 
L 259.658891 241.637051 
L 260.019719 254.59701 
L 260.109925 252.958364 
L 260.290339 234.56107 
L 260.380546 235.231535 
L 260.470753 245.212202 
L 260.56096 207.523899 
L 260.651167 207.672828 
L 260.83158 209.609475 
L 260.921787 211.322586 
L 261.192408 198.585879 
L 261.372822 202.16103 
L 261.553235 199.03295 
L 261.733649 210.205192 
L 262.094477 189.35 
L 262.184684 190.690646 
L 262.455304 196.574909 
L 262.635718 191.733434 
L 262.725925 195.904586 
L 262.816132 195.606728 
L 262.996546 187.785818 
L 263.267166 190.467394 
L 263.357373 189.20107 
L 263.44758 191.584505 
L 263.537787 197.468768 
L 263.627994 194.191475 
L 263.808407 180.039798 
L 263.898614 178.252081 
L 263.988821 181.827232 
L 264.169235 192.925151 
L 264.259442 189.424606 
L 264.349649 190.988788 
L 264.439856 190.914182 
L 264.620269 179.74194 
L 264.800683 181.901838 
L 264.89089 181.156909 
L 264.981097 180.412263 
L 265.071304 181.231516 
L 265.612545 167.377697 
L 265.702752 166.707374 
L 265.792959 162.610828 
L 265.883166 164.696404 
L 265.973372 171.697778 
L 266.063579 170.580384 
L 266.243993 165.068586 
L 266.3342 165.58998 
L 266.514614 178.177758 
L 266.695027 152.778949 
L 266.785234 156.354101 
L 266.875441 158.365354 
L 267.055855 134.158263 
L 267.146062 132.892223 
L 267.326476 114.718323 
L 267.416682 118.740546 
L 267.687303 97.289354 
L 267.77751 98.108606 
L 267.957924 107.046626 
L 268.048131 101.683757 
L 268.138337 101.758364 
L 268.318751 121.719697 
L 268.408958 115.612182 
L 268.589372 137.733414 
L 268.679579 182.423232 
L 268.769786 179.816263 
L 268.859992 172.442424 
L 268.950199 173.336283 
L 269.040406 178.549939 
L 269.22082 169.686525 
L 269.491441 184.210666 
L 269.581647 183.167879 
L 269.762061 187.190101 
L 269.942475 182.348626 
L 270.122889 193.744687 
L 270.213096 190.243859 
L 270.393509 181.454767 
L 270.483716 182.348626 
L 270.66413 176.464647 
L 270.754337 177.879616 
L 270.844544 173.410889 
L 270.934751 174.109013 
L 271.566199 178.99701 
L 271.656406 172.591353 
L 271.746612 172.665959 
L 271.836819 174.006606 
L 272.017233 171.623172 
L 272.10744 171.623172 
L 272.197647 170.431455 
L 272.378061 175.049394 
L 272.468267 173.336283 
L 272.648681 179.071333 
L 272.738888 178.475616 
L 272.829095 178.40101 
L 273.009509 184.285273 
L 273.099716 183.689272 
L 273.280129 198.436949 
L 273.370336 197.17091 
L 273.640957 171.697778 
L 273.731164 170.133596 
L 273.911577 173.485212 
L 274.091991 166.558445 
L 274.272405 175.421859 
L 274.362612 172.293495 
L 274.543026 179.816263 
L 274.633232 177.805293 
L 274.813646 190.392788 
L 274.903853 190.169252 
L 275.174474 180.561192 
L 275.264681 182.87002 
L 275.354887 182.274304 
L 275.445094 178.699152 
L 275.535301 179.592727 
L 275.625508 183.018949 
L 275.715715 181.976161 
L 275.896129 178.028828 
L 276.076542 183.987414 
L 276.256956 184.583131 
L 276.43737 182.050768 
L 276.617784 176.762505 
L 276.707991 185.328061 
L 276.798197 184.88099 
L 276.888404 185.104525 
L 276.978611 189.871394 
L 277.068818 188.903212 
L 277.159025 185.551596 
L 277.249232 187.264424 
L 277.339439 187.190101 
L 277.429646 186.743313 
L 277.610059 194.461533 
L 278.241507 199.479737 
L 278.331714 201.341778 
L 278.421921 207.077111 
L 278.602335 200.596848 
L 278.782749 211.918303 
L 278.963162 198.734808 
L 279.143576 209.907333 
L 279.233783 205.51293 
L 279.414197 213.333555 
L 279.684817 203.129496 
L 279.865231 199.107273 
L 279.955438 199.703273 
L 280.045645 199.554344 
L 280.226059 198.660485 
L 280.316266 198.883737 
L 280.496679 200.89499 
L 280.586886 200.820384 
L 280.677093 199.926525 
L 280.857507 202.012101 
L 281.037921 195.532121 
L 281.218334 199.852202 
L 281.308541 200.075738 
L 281.579162 206.108646 
L 281.669369 210.130869 
L 281.849783 199.628667 
L 282.030196 208.864546 
L 282.21061 201.267455 
L 282.300817 196.500303 
L 282.391024 197.319839 
L 282.481231 201.565313 
L 282.661644 197.841232 
L 282.751851 198.734808 
L 282.842058 199.256202 
L 282.932265 199.107273 
L 283.112679 202.086707 
L 283.202886 201.937778 
L 283.383299 202.012101 
L 283.473506 199.852202 
L 283.563713 202.16103 
L 283.744127 208.417758 
L 283.834334 205.885394 
L 283.924541 206.332182 
L 284.104954 209.088081 
L 284.195161 210.279798 
L 284.375575 215.940525 
L 284.555989 207.002505 
L 284.646196 208.417758 
L 284.736403 208.268829 
L 284.826609 208.49208 
L 285.007023 264.652141 
L 285.187437 258.395555 
L 285.367851 251.766646 
L 285.548264 245.510061 
L 285.638471 244.690808 
L 285.999299 249.010748 
L 286.089506 248.117031 
L 286.179713 245.212202 
L 286.360126 253.405293 
L 286.450333 251.617717 
L 286.54054 249.830141 
L 286.630747 251.021859 
L 286.811161 243.275555 
L 286.991574 235.454929 
L 287.171988 238.061757 
L 287.262195 237.61497 
L 287.442609 243.126626 
L 287.713229 228.006626 
L 287.803436 229.570808 
L 287.98385 222.19697 
L 288.164264 233.071353 
L 288.344678 215.270202 
L 288.434884 215.642383 
L 288.525091 215.642383 
L 288.615298 214.376343 
L 288.795712 218.696424 
L 288.885919 217.951495 
L 289.066333 218.249353 
L 289.246746 215.12099 
L 289.42716 217.57903 
L 289.517367 216.834101 
L 289.697781 223.910081 
L 289.878194 216.387313 
L 290.058608 219.59 
L 290.148815 219.515677 
L 290.239022 219.888142 
L 290.419436 207.896364 
L 290.509643 210.279798 
L 290.599849 214.97206 
L 290.690056 212.588626 
L 290.780263 212.961091 
L 290.87047 216.461919 
L 291.050884 209.609475 
L 291.141091 210.205192 
L 291.321504 209.088081 
L 291.411711 210.950121 
L 291.862746 194.266081 
L 291.952953 197.394161 
L 292.043159 196.128122 
L 292.133366 189.20107 
L 292.223573 191.659111 
L 292.31378 197.69202 
L 292.494194 189.648142 
L 292.674608 195.159656 
L 292.855021 189.35 
L 292.945228 187.711495 
L 293.125642 199.777596 
L 293.215849 202.16103 
L 293.396263 190.020323 
L 293.576676 202.309959 
L 293.75709 198.213414 
L 293.847297 199.181879 
L 293.937504 198.958343 
L 294.117918 199.703273 
L 294.298331 200.596848 
L 294.478745 208.49208 
L 294.568952 206.77897 
L 294.659159 200.522525 
L 294.749366 201.490707 
L 294.839573 202.459172 
L 295.019986 188.605354 
L 295.2004 198.139091 
L 295.290607 197.543091 
L 295.380814 199.107273 
L 295.471021 202.608101 
L 295.561228 202.459172 
L 295.831848 198.362626 
L 295.922055 198.064485 
L 296.102469 200.596848 
L 296.192676 200.447919 
L 296.373089 202.682424 
L 296.463296 200.89499 
L 296.553503 196.42598 
L 296.64371 196.872767 
L 296.733917 197.468768 
L 296.824124 193.297616 
L 296.914331 194.116868 
L 297.094744 200.373596 
L 297.184951 199.181879 
L 297.365365 199.926525 
L 297.455572 198.436949 
L 297.635986 188.903212 
L 297.726193 191.510182 
L 297.8164 198.809414 
L 297.906606 197.096303 
L 298.08702 187.48796 
L 298.357641 191.584505 
L 298.447848 189.871394 
L 298.628261 183.46602 
L 298.718468 183.46602 
L 298.808675 182.274304 
L 298.898882 183.689272 
L 299.079296 189.126748 
L 299.25971 180.561192 
L 299.349916 182.944626 
L 299.53033 179.422522 
L 300.071571 177.060363 
L 300.251985 168.718344 
L 300.342192 170.729313 
L 300.432399 174.825858 
L 300.612813 173.485212 
L 300.70302 175.868647 
L 300.883433 163.132222 
L 300.97364 163.281152 
L 301.154054 172.740282 
L 301.244261 170.580384 
L 301.424675 174.155535 
L 301.605088 173.038425 
L 301.695295 174.006606 
L 301.875709 181.082586 
L 302.056123 177.656364 
L 302.236536 182.050768 
L 302.326743 182.125374 
L 302.41695 180.85905 
L 302.687571 171.772101 
L 302.867985 175.421859 
L 303.048398 180.561192 
L 303.228812 179.369475 
L 303.409226 183.093556 
L 303.58964 174.155535 
L 303.679846 174.528 
L 303.86026 183.763879 
L 303.950467 183.167879 
L 304.130881 186.966566 
L 304.221088 184.285273 
L 304.491708 168.19695 
L 304.762329 180.784444 
L 304.852536 181.678303 
L 304.942743 184.359596 
L 305.03295 183.987414 
L 305.213363 181.156909 
L 305.30357 181.00798 
L 305.393777 180.486586 
L 305.664398 183.689272 
L 305.754605 184.210666 
L 305.844811 183.838485 
L 306.025225 184.210666 
L 306.205639 176.837112 
L 306.295846 177.656364 
L 306.566466 183.540343 
L 306.656673 182.348626 
L 306.74688 181.156909 
L 306.837087 181.678303 
L 306.927294 181.156909 
L 307.107708 190.690646 
L 307.288121 170.65499 
L 307.378328 171.846707 
L 307.468535 171.697778 
L 307.648949 151.885374 
L 307.739156 151.065838 
L 308.19019 132.892223 
L 308.551018 152.704627 
L 308.641225 154.640989 
L 309.182466 191.510182 
L 309.272673 172.665959 
L 309.36288 174.155535 
L 309.453086 170.506061 
L 309.543293 170.65499 
L 309.6335 175.049394 
L 309.723707 174.453394 
L 309.813914 170.05899 
L 309.904121 171.846707 
L 310.084535 183.018949 
L 310.174741 182.87002 
L 310.355155 182.125374 
L 310.445362 182.646768 
L 310.715983 190.839859 
L 310.80619 190.392788 
L 311.07681 182.423232 
L 311.167017 182.646768 
L 311.347431 183.763879 
L 311.527845 180.905573 
L 312.2495 180.114121 
L 312.339706 180.561192 
L 312.52012 180.188727 
L 312.610327 180.784444 
L 312.790741 176.986041 
L 312.880948 178.252081 
L 313.061361 182.423232 
L 313.151568 181.082586 
L 313.331982 188.158282 
L 313.422189 184.508808 
L 313.512396 184.583131 
L 313.69281 191.510182 
L 313.783016 191.882364 
L 313.873223 195.904586 
L 314.143844 180.710121 
L 314.234051 182.125374 
L 314.324258 180.710121 
L 314.504671 182.572162 
L 314.685085 173.857677 
L 314.955706 185.998384 
L 315.045913 185.551596 
L 315.13612 183.689272 
L 315.226327 185.328061 
L 315.40674 191.361253 
L 315.496947 190.169252 
L 315.587154 190.988788 
L 315.857775 181.082586 
L 315.947982 181.082586 
L 316.128395 179.965192 
L 316.218602 180.412263 
L 316.399016 179.071333 
L 316.57943 182.646768 
L 316.759843 181.454767 
L 316.940257 183.093556 
L 317.120671 180.412263 
L 317.210878 181.60398 
L 317.301085 187.115494 
L 317.391292 227.187374 
L 317.481498 223.314364 
L 317.661912 230.315737 
L 317.932533 224.282546 
L 318.02274 225.176404 
L 318.203153 233.397296 
L 318.834602 235.678323 
L 318.924808 233.071353 
L 319.285636 241.78598 
L 319.375843 240.966586 
L 319.556257 235.156929 
L 319.73667 246.329454 
L 319.917084 237.763899 
L 320.097498 253.032828 
L 320.368118 225.474263 
L 320.548532 231.060384 
L 320.728946 225.176404 
L 320.819153 227.634162 
L 320.90936 227.485232 
L 320.999567 228.751556 
L 321.089773 228.155556 
L 321.17998 224.952869 
L 321.270187 226.069979 
L 321.360394 223.984687 
L 321.540808 214.599879 
L 321.631015 217.653637 
L 321.811428 215.568061 
L 322.082049 218.398283 
L 322.262463 219.366748 
L 322.35267 218.17503 
L 322.442877 215.270202 
L 322.533083 216.312707 
L 322.62329 215.270202 
L 322.893911 201.937778 
L 322.984118 201.043919 
L 323.164532 209.013474 
L 323.344945 197.096303 
L 323.705773 209.460546 
L 323.976393 200.075738 
L 324.156807 200.746061 
L 324.337221 199.330808 
L 324.698048 190.169252 
L 324.788255 192.180505 
L 324.968669 200.447919 
L 325.149083 199.330808 
L 325.329497 187.711495 
L 325.419703 190.690646 
L 325.50991 271.653515 
L 325.600117 271.057656 
L 325.960945 253.703151 
L 326.051152 253.554222 
L 326.231565 246.627313 
L 326.592393 254.894868 
L 326.6826 256.384586 
L 326.772807 253.777616 
L 326.95322 257.427374 
L 327.043427 255.788727 
L 327.223841 260.853596 
L 327.584668 237.16804 
L 327.765082 251.617717 
L 327.855289 246.999778 
L 327.945496 243.350162 
L 328.035703 248.042566 
L 328.12591 247.595637 
L 328.306323 234.784606 
L 328.39653 237.763899 
L 328.486737 237.391434 
L 328.576944 237.540505 
L 328.757358 253.852222 
L 328.937772 235.156929 
L 329.027978 235.529394 
L 329.56922 256.757051 
L 329.659427 255.937656 
L 329.83984 249.979071 
L 329.930047 253.181757 
L 330.020254 253.107293 
L 330.110461 252.28804 
L 330.290875 256.310121 
L 330.381082 254.150081 
L 330.561495 255.639798 
L 330.651702 254.671475 
L 330.832116 264.056283 
L 331.01253 254.373475 
L 331.102737 257.352909 
L 331.192943 260.704525 
L 331.28315 259.140485 
L 331.643978 263.013495 
L 331.824392 251.841111 
L 331.914598 254.075616 
L 332.004805 257.501838 
L 332.45584 235.976323 
L 332.636254 243.722485 
L 332.72646 241.860444 
L 332.816667 242.828768 
L 332.906874 245.733596 
L 333.087288 234.263212 
L 333.267702 248.042566 
L 333.448115 234.710141 
L 333.538322 237.16804 
L 333.628529 210.205192 
L 333.718736 212.886768 
L 333.808943 215.642383 
L 333.989357 207.672828 
L 334.259977 219.515677 
L 334.350184 218.845354 
L 334.440391 216.387313 
L 335.071839 238.806687 
L 335.162046 238.434222 
L 335.522874 219.292141 
L 335.61308 217.281172 
L 335.793494 228.900485 
L 335.883701 225.176404 
L 335.973908 228.453414 
L 336.154322 238.285293 
L 336.334735 236.87004 
L 336.515149 232.028849 
L 336.695563 238.955616 
L 336.78577 235.082464 
L 336.875977 236.050788 
L 336.966184 238.732222 
L 337.146597 234.412141 
L 337.327011 237.838364 
L 337.417218 236.125252 
L 337.507425 238.359758 
L 337.687839 244.467272 
L 337.778045 244.765272 
L 337.868252 245.882525 
L 338.138873 243.499091 
L 338.22908 241.041192 
L 338.319287 241.115657 
L 338.409494 247.074243 
L 338.4997 243.871414 
L 338.680114 230.762525 
L 338.770321 238.061757 
L 338.860528 237.391434 
L 338.950735 234.784606 
L 339.040942 238.136364 
L 339.131149 237.540505 
L 339.221355 235.306 
L 339.311562 236.721111 
L 339.401769 236.497718 
L 339.491976 236.125252 
L 339.67239 238.881152 
L 339.762597 235.901859 
L 339.852804 236.497718 
L 339.94301 237.987293 
L 340.123424 232.848101 
L 340.664665 230.613596 
L 340.845079 223.090828 
L 341.296114 240.668727 
L 341.476527 211.099051 
L 341.656941 221.526646 
L 341.747148 208.045293 
L 341.837355 209.088081 
L 341.927562 208.939152 
L 342.017769 209.907333 
L 342.107975 212.588626 
L 342.288389 207.970686 
L 342.468803 217.951495 
L 342.55901 217.876889 
L 342.649217 216.238384 
L 342.739424 217.57903 
L 342.919837 226.889515 
L 343.190458 216.312707 
L 343.370872 214.003879 
L 343.551285 218.696424 
L 343.731699 216.238384 
L 344.00232 219.59 
L 344.27294 207.37497 
L 344.453354 211.024444 
L 344.543561 209.460546 
L 344.633768 210.577656 
L 344.814182 218.025818 
L 344.994595 198.809414 
L 345.084802 199.181879 
L 345.175009 202.533495 
L 345.355423 218.994283 
L 345.806457 208.119616 
L 345.986871 210.577656 
L 346.077078 210.279798 
L 346.257492 211.322586 
L 346.437905 207.300364 
L 346.528112 209.534868 
L 346.708526 196.798445 
L 346.798733 197.543091 
L 346.88894 200.671455 
L 347.069354 197.617697 
L 347.15956 198.585879 
L 347.249767 197.915555 
L 347.339974 200.522525 
L 347.430181 199.330808 
L 347.520388 188.903212 
L 347.610595 192.925151 
L 347.700802 208.343152 
L 347.881215 175.794324 
L 347.971422 179.667333 
L 348.061629 179.220546 
L 348.33225 136.690626 
L 348.873491 68.837071 
L 348.963698 63.325273 
L 349.053905 69.060323 
L 349.144112 66.974747 
L 349.234319 56.919616 
L 349.414732 85.81897 
L 349.504939 79.636848 
L 349.595146 80.977778 
L 349.77556 115.239717 
L 349.955974 210.577656 
L 350.136387 207.523899 
L 350.226594 209.534868 
L 350.407008 202.086707 
L 350.677629 214.003879 
L 350.767836 213.780343 
L 350.948249 209.832727 
L 351.309077 221.154182 
L 351.399284 220.409536 
L 351.489491 217.951495 
L 351.579697 218.919677 
L 351.669904 218.845354 
L 351.760111 215.642383 
L 351.940525 218.472889 
L 352.030732 210.056262 
L 352.120939 210.065624 
L 352.752387 210.130869 
L 352.842594 207.598222 
L 352.932801 208.566687 
L 353.023007 208.417758 
L 353.113214 207.002505 
L 353.293628 209.088081 
L 353.474042 206.406505 
L 353.654456 210.652263 
L 353.744662 209.609475 
L 353.834869 208.939152 
L 353.925076 209.162404 
L 354.015283 209.98194 
L 354.195697 220.558465 
L 354.285904 217.504708 
L 354.376111 220.781717 
L 354.466317 231.507455 
L 354.556524 228.155556 
L 354.736938 215.940525 
L 354.827145 217.355495 
L 355.007559 215.791596 
L 355.187972 203.501677 
L 355.278179 204.321212 
L 355.368386 207.821758 
L 355.458593 207.672828 
L 355.729214 209.534868 
L 355.819421 211.769374 
L 356.090041 224.580404 
L 356.180248 222.494828 
L 356.360662 213.11002 
L 356.450869 217.057636 
L 356.631282 210.428727 
L 356.811696 212.812161 
L 356.99211 202.980566 
L 357.172524 209.534868 
L 357.262731 208.939152 
L 357.352937 206.77897 
L 357.533351 210.801192 
L 357.803972 206.257576 
L 358.164799 233.145959 
L 358.255006 232.40103 
L 358.43542 227.485232 
L 358.525627 227.112768 
L 358.615834 227.485232 
L 358.796247 234.030457 
L 359.517902 236.795576 
L 359.788523 235.454929 
L 359.87873 238.583151 
L 359.968937 238.061757 
L 360.059144 232.40103 
L 360.149351 233.816283 
L 360.239557 240.743192 
L 360.329764 240.519798 
L 360.419971 234.039677 
L 360.510178 236.274182 
L 360.600385 243.424626 
L 360.690592 238.732222 
L 360.871006 217.504708 
L 360.961212 216.461919 
L 361.231833 217.355495 
L 361.32204 217.206565 
L 361.412247 216.387313 
L 361.502454 216.536242 
L 361.592661 218.17503 
L 361.682867 217.430101 
L 361.773074 214.748809 
L 361.953488 216.759778 
L 362.224109 206.63004 
L 362.314316 209.23701 
L 362.494729 207.896364 
L 362.855557 216.461919 
L 363.035971 206.704647 
L 363.126177 207.821758 
L 363.216384 209.23701 
L 363.396798 200.89499 
L 363.487005 196.053515 
L 363.577212 196.649516 
L 363.757626 202.012101 
L 363.938039 194.936404 
L 364.118453 201.043919 
L 364.20866 199.777596 
L 364.298867 200.447919 
L 364.569487 197.69202 
L 364.749901 195.606728 
L 364.840108 197.617697 
L 364.930315 197.021697 
L 365.110729 192.105899 
L 365.200936 191.510182 
L 365.291142 192.329435 
L 365.561763 199.554344 
L 365.742177 195.383192 
L 365.832384 194.936404 
L 365.922591 190.318465 
L 366.012797 190.541717 
L 366.193211 295.488 
L 366.463832 286.326586 
L 366.644246 279.995677 
L 366.824659 276.49499 
L 366.914866 277.239778 
L 367.09528 286.326586 
L 367.275694 281.336323 
L 367.365901 282.23004 
L 367.546314 288.784627 
L 367.636521 284.985939 
L 367.816935 293.328101 
L 368.177763 267.259111 
L 368.267969 269.71701 
L 368.358176 276.643919 
L 368.53859 272.174909 
L 368.628797 275.526667 
L 368.809211 261.821777 
L 368.899418 263.162566 
L 368.989624 264.279818 
L 369.079831 258.544626 
L 369.170038 260.108667 
L 369.350452 270.536262 
L 369.621073 251.394182 
L 369.711279 249.234283 
L 369.9819 257.054909 
L 370.162314 260.779131 
L 370.252521 260.034202 
L 370.432934 255.788727 
L 370.613348 261.300383 
L 370.703555 261.225919 
L 370.883969 265.843858 
L 371.064383 262.417636 
L 371.335003 264.652141 
L 371.42521 264.205212 
L 371.605624 257.725232 
L 371.695831 259.289414 
L 371.786038 261.37499 
L 371.966451 258.023232 
L 372.056658 261.37499 
L 372.146865 260.704525 
L 372.417486 253.107293 
L 372.597899 259.438343 
L 373.048934 243.275555 
L 373.139141 244.392808 
L 373.319554 243.201091 
L 373.499968 247.446707 
L 373.590175 246.031455 
L 373.680382 241.860444 
L 373.860796 249.606606 
L 374.041209 235.827394 
L 374.131416 237.465899 
L 374.221623 181.380444 
L 374.31183 185.923778 
L 374.402037 190.541717 
L 374.582451 180.561192 
L 374.762864 191.584505 
L 374.853071 190.690646 
L 375.033485 187.935031 
L 375.213899 190.616323 
L 375.484519 199.181879 
L 375.75514 209.832727 
L 376.025761 199.03295 
L 376.206174 196.649516 
L 376.747416 210.354121 
L 376.927829 206.853576 
L 377.018036 204.470142 
L 377.288657 211.024444 
L 377.378864 210.130869 
L 377.559278 211.099051 
L 377.739691 207.151434 
L 377.829898 207.523899 
L 377.920105 209.534868 
L 378.100519 207.37497 
L 378.371139 217.355495 
L 378.551553 216.983314 
L 378.822174 209.460546 
L 379.002588 218.100424 
L 379.273208 206.406505 
L 379.453622 210.801192 
L 379.814449 208.864546 
L 379.904656 209.460546 
L 379.994863 209.088081 
L 380.08507 208.045293 
L 380.265484 214.227415 
L 380.445898 209.088081 
L 380.536104 211.545838 
L 380.716518 210.077538 
L 381.257759 209.311333 
L 381.347966 206.257576 
L 381.438173 197.468768 
L 381.52838 200.522525 
L 381.618587 208.194222 
L 381.708794 207.896364 
L 381.799001 209.088081 
L 381.889208 211.84398 
L 382.069621 196.351373 
L 382.159828 197.245233 
L 382.250035 202.309959 
L 382.430449 107.940485 
L 382.520656 108.238343 
L 382.610863 107.71695 
L 382.791276 102.726546 
L 382.97169 108.536202 
L 383.061897 107.940485 
L 383.242311 102.205151 
L 383.512931 109.57899 
L 383.603138 107.865879 
L 383.693345 109.057596 
L 383.873759 103.769334 
L 384.144379 109.951455 
L 384.234586 110.100384 
L 384.324793 108.014808 
L 384.415 109.951455 
L 384.595414 115.984647 
L 384.775828 104.737515 
L 384.866035 105.557051 
L 385.226862 117.101758 
L 385.407276 119.187334 
L 385.677896 98.853536 
L 385.948517 119.410869 
L 386.128931 121.12398 
L 386.219138 121.049374 
L 386.309345 120.602586 
L 386.489758 118.889475 
L 386.760379 127.678283 
L 386.940793 131.179111 
L 387.031 130.583111 
L 387.211413 131.700505 
L 387.391827 125.592707 
L 387.572241 127.752889 
L 387.752655 128.646748 
L 387.933068 127.529354 
L 388.023275 130.061717 
L 388.203689 125.741919 
L 388.293896 138.55295 
L 388.384103 135.201051 
L 388.564516 107.865879 
L 388.654723 111.366707 
L 388.925344 79.785777 
L 389.376378 53.568 
L 389.646999 87.829939 
L 390.368654 208.417758 
L 390.458861 183.018949 
L 390.549068 184.136344 
L 390.729481 181.156909 
L 390.819688 185.179132 
L 390.909895 183.912808 
L 391.000102 178.177758 
L 391.090309 181.082586 
L 391.270723 192.031576 
L 391.36093 190.094929 
L 391.451136 190.765253 
L 391.63155 190.169252 
L 391.902171 199.256202 
L 391.992378 200.447919 
L 392.082585 199.852202 
L 392.262998 196.872767 
L 392.533619 198.883737 
L 392.623826 195.308585 
L 392.714033 195.643889 
L 393.345481 197.990162 
L 393.435688 190.690646 
L 393.525895 191.435576 
L 393.706308 198.809414 
L 393.796515 197.841232 
L 394.067136 199.628667 
L 394.24755 200.447919 
L 394.51817 206.257576 
L 394.608377 206.77897 
L 394.969205 216.387313 
L 395.059411 221.601253 
L 395.149618 218.994283 
L 395.420239 199.628667 
L 395.510446 201.341778 
L 395.600653 207.002505 
L 395.69086 204.321212 
L 395.871273 194.638262 
L 396.141894 201.565313 
L 396.232101 202.831353 
L 396.322308 198.511556 
L 396.412515 200.820384 
L 396.592928 209.23701 
L 396.683135 208.119616 
L 396.773342 209.609475 
L 396.953756 200.150061 
L 397.043963 202.682424 
L 397.13417 200.373596 
L 397.224376 202.012101 
L 397.314583 208.49208 
L 397.494997 189.35 
L 397.585204 189.946 
L 397.765618 195.68105 
L 398.036238 200.150061 
L 398.126445 200.820384 
L 398.397066 198.064485 
L 398.487273 203.129496 
L 398.487273 203.129496 
" clip-path="url(#p4040331494)" style="fill: none; stroke: #1f77b4; stroke-width: 1.5; stroke-linecap: square"/>
   </g>
   <g id="patch_3">
    <path d="M 57.6 307.584 
L 57.6 41.472 
" style="fill: none; stroke: #000000; stroke-width: 0.8; stroke-linejoin: miter; stroke-linecap: square"/>
   </g>
   <g id="patch_4">
    <path d="M 414.72 307.584 
L 414.72 41.472 
" style="fill: none; stroke: #000000; stroke-width: 0.8; stroke-linejoin: miter; stroke-linecap: square"/>
   </g>
   <g id="patch_5">
    <path d="M 57.6 307.584 
L 414.72 307.584 
" style="fill: none; stroke: #000000; stroke-width: 0.8; stroke-linejoin: miter; stroke-linecap: square"/>
   </g>
   <g id="patch_6">
    <path d="M 57.6 41.472 
L 414.72 41.472 
" style="fill: none; stroke: #000000; stroke-width: 0.8; stroke-linejoin: miter; stroke-linecap: square"/>
   </g>
   <g id="legend_1">
    <g id="patch_7">
     <path d="M 64.6 302.584 
L 118.245312 302.584 
Q 120.245312 302.584 120.245312 300.584 
L 120.245312 286.905875 
Q 120.245312 284.905875 118.245312 284.905875 
L 64.6 284.905875 
Q 62.6 284.905875 62.6 286.905875 
L 62.6 300.584 
Q 62.6 302.584 64.6 302.584 
z
" style="fill: #ffffff; opacity: 0.8; stroke: #cccccc; stroke-linejoin: miter"/>
    </g>
    <g id="line2d_15">
     <path d="M 66.6 293.004312 
L 76.6 293.004312 
L 86.6 293.004312 
" style="fill: none; stroke: #1f77b4; stroke-width: 1.5; stroke-linecap: square"/>
    </g>
    <g id="text_14">
     <!-- set2 -->
     <g transform="translate(94.6 296.504312)scale(0.1 -0.1)">
      <defs>
       <path id="DejaVuSans-73" d="M 2834 3397 
L 2834 2853 
Q 2591 2978 2328 3040 
Q 2066 3103 1784 3103 
Q 1356 3103 1142 2972 
Q 928 2841 928 2578 
Q 928 2378 1081 2264 
Q 1234 2150 1697 2047 
L 1894 2003 
Q 2506 1872 2764 1633 
Q 3022 1394 3022 966 
Q 3022 478 2636 193 
Q 2250 -91 1575 -91 
Q 1294 -91 989 -36 
Q 684 19 347 128 
L 347 722 
Q 666 556 975 473 
Q 1284 391 1588 391 
Q 1994 391 2212 530 
Q 2431 669 2431 922 
Q 2431 1156 2273 1281 
Q 2116 1406 1581 1522 
L 1381 1569 
Q 847 1681 609 1914 
Q 372 2147 372 2553 
Q 372 3047 722 3315 
Q 1072 3584 1716 3584 
Q 2034 3584 2315 3537 
Q 2597 3491 2834 3397 
z
" transform="scale(0.015625)"/>
       <path id="DejaVuSans-65" d="M 3597 1894 
L 3597 1613 
L 953 1613 
Q 991 1019 1311 708 
Q 1631 397 2203 397 
Q 2534 397 2845 478 
Q 3156 559 3463 722 
L 3463 178 
Q 3153 47 2828 -22 
Q 2503 -91 2169 -91 
Q 1331 -91 842 396 
Q 353 884 353 1716 
Q 353 2575 817 3079 
Q 1281 3584 2069 3584 
Q 2775 3584 3186 3129 
Q 3597 2675 3597 1894 
z
M 3022 2063 
Q 3016 2534 2758 2815 
Q 2500 3097 2075 3097 
Q 1594 3097 1305 2825 
Q 1016 2553 972 2059 
L 3022 2063 
z
" transform="scale(0.015625)"/>
       <path id="DejaVuSans-74" d="M 1172 4494 
L 1172 3500 
L 2356 3500 
L 2356 3053 
L 1172 3053 
L 1172 1153 
Q 1172 725 1289 603 
Q 1406 481 1766 481 
L 2356 481 
L 2356 0 
L 1766 0 
Q 1100 0 847 248 
Q 594 497 594 1153 
L 594 3053 
L 172 3053 
L 172 3500 
L 594 3500 
L 594 4494 
L 1172 4494 
z
" transform="scale(0.015625)"/>
      </defs>
      <use xlink:href="#DejaVuSans-73"/>
      <use xlink:href="#DejaVuSans-65" x="52.099609"/>
      <use xlink:href="#DejaVuSans-74" x="113.623047"/>
      <use xlink:href="#DejaVuSans-32" x="152.832031"/>
     </g>
    </g>
   </g>
  </g>
 </g>
 <defs>
  <clipPath id="p4040331494">
   <rect x="57.6" y="41.472" width="357.12" height="266.112"/>
  </clipPath>
 </defs>
</svg>
