<?xml version="1.0" encoding="utf-8" standalone="no"?>
<!DOCTYPE svg PUBLIC "-//W3C//DTD SVG 1.1//EN"
  "http://www.w3.org/Graphics/SVG/1.1/DTD/svg11.dtd">
<svg xmlns:xlink="http://www.w3.org/1999/xlink" width="460.8pt" height="345.6pt" viewBox="0 0 460.8 345.6" xmlns="http://www.w3.org/2000/svg" version="1.1">
 <metadata>
  <rdf:RDF xmlns:dc="http://purl.org/dc/elements/1.1/" xmlns:cc="http://creativecommons.org/ns#" xmlns:rdf="http://www.w3.org/1999/02/22-rdf-syntax-ns#">
   <cc:Work>
    <dc:type rdf:resource="http://purl.org/dc/dcmitype/StillImage"/>
    <dc:date>2022-08-11T20:38:47.972085</dc:date>
    <dc:format>image/svg+xml</dc:format>
    <dc:creator>
     <cc:Agent>
      <dc:title>Matplotlib v3.5.2, https://matplotlib.org/</dc:title>
     </cc:Agent>
    </dc:creator>
   </cc:Work>
  </rdf:RDF>
 </metadata>
 <defs>
  <style type="text/css">*{stroke-linejoin: round; stroke-linecap: butt}</style>
 </defs>
 <g id="figure_1">
  <g id="patch_1">
   <path d="M 0 345.6 
L 460.8 345.6 
L 460.8 0 
L 0 0 
z
" style="fill: #ffffff"/>
  </g>
  <g id="axes_1">
   <g id="patch_2">
    <path d="M 57.6 307.584 
L 414.72 307.584 
L 414.72 41.472 
L 57.6 41.472 
z
" style="fill: #ffffff"/>
   </g>
   <g id="matplotlib.axis_1">
    <g id="xtick_1">
     <g id="line2d_1">
      <defs>
       <path id="mf8fb008bae" d="M 0 0 
L 0 3.5 
" style="stroke: #000000; stroke-width: 0.8"/>
      </defs>
      <g>
       <use xlink:href="#mf8fb008bae" x="73.832727" y="307.584" style="stroke: #000000; stroke-width: 0.8"/>
      </g>
     </g>
     <g id="text_1">
      <!-- 0 -->
      <g transform="translate(70.651477 322.182437)scale(0.1 -0.1)">
       <defs>
        <path id="DejaVuSans-30" d="M 2034 4250 
Q 1547 4250 1301 3770 
Q 1056 3291 1056 2328 
Q 1056 1369 1301 889 
Q 1547 409 2034 409 
Q 2525 409 2770 889 
Q 3016 1369 3016 2328 
Q 3016 3291 2770 3770 
Q 2525 4250 2034 4250 
z
M 2034 4750 
Q 2819 4750 3233 4129 
Q 3647 3509 3647 2328 
Q 3647 1150 3233 529 
Q 2819 -91 2034 -91 
Q 1250 -91 836 529 
Q 422 1150 422 2328 
Q 422 3509 836 4129 
Q 1250 4750 2034 4750 
z
" transform="scale(0.015625)"/>
       </defs>
       <use xlink:href="#DejaVuSans-30"/>
      </g>
     </g>
    </g>
    <g id="xtick_2">
     <g id="line2d_2">
      <g>
       <use xlink:href="#mf8fb008bae" x="124.71902" y="307.584" style="stroke: #000000; stroke-width: 0.8"/>
      </g>
     </g>
     <g id="text_2">
      <!-- 50 -->
      <g transform="translate(118.35652 322.182437)scale(0.1 -0.1)">
       <defs>
        <path id="DejaVuSans-35" d="M 691 4666 
L 3169 4666 
L 3169 4134 
L 1269 4134 
L 1269 2991 
Q 1406 3038 1543 3061 
Q 1681 3084 1819 3084 
Q 2600 3084 3056 2656 
Q 3513 2228 3513 1497 
Q 3513 744 3044 326 
Q 2575 -91 1722 -91 
Q 1428 -91 1123 -41 
Q 819 9 494 109 
L 494 744 
Q 775 591 1075 516 
Q 1375 441 1709 441 
Q 2250 441 2565 725 
Q 2881 1009 2881 1497 
Q 2881 1984 2565 2268 
Q 2250 2553 1709 2553 
Q 1456 2553 1204 2497 
Q 953 2441 691 2322 
L 691 4666 
z
" transform="scale(0.015625)"/>
       </defs>
       <use xlink:href="#DejaVuSans-35"/>
       <use xlink:href="#DejaVuSans-30" x="63.623047"/>
      </g>
     </g>
    </g>
    <g id="xtick_3">
     <g id="line2d_3">
      <g>
       <use xlink:href="#mf8fb008bae" x="175.605312" y="307.584" style="stroke: #000000; stroke-width: 0.8"/>
      </g>
     </g>
     <g id="text_3">
      <!-- 100 -->
      <g transform="translate(166.061562 322.182437)scale(0.1 -0.1)">
       <defs>
        <path id="DejaVuSans-31" d="M 794 531 
L 1825 531 
L 1825 4091 
L 703 3866 
L 703 4441 
L 1819 4666 
L 2450 4666 
L 2450 531 
L 3481 531 
L 3481 0 
L 794 0 
L 794 531 
z
" transform="scale(0.015625)"/>
       </defs>
       <use xlink:href="#DejaVuSans-31"/>
       <use xlink:href="#DejaVuSans-30" x="63.623047"/>
       <use xlink:href="#DejaVuSans-30" x="127.246094"/>
      </g>
     </g>
    </g>
    <g id="xtick_4">
     <g id="line2d_4">
      <g>
       <use xlink:href="#mf8fb008bae" x="226.491604" y="307.584" style="stroke: #000000; stroke-width: 0.8"/>
      </g>
     </g>
     <g id="text_4">
      <!-- 150 -->
      <g transform="translate(216.947854 322.182437)scale(0.1 -0.1)">
       <use xlink:href="#DejaVuSans-31"/>
       <use xlink:href="#DejaVuSans-35" x="63.623047"/>
       <use xlink:href="#DejaVuSans-30" x="127.246094"/>
      </g>
     </g>
    </g>
    <g id="xtick_5">
     <g id="line2d_5">
      <g>
       <use xlink:href="#mf8fb008bae" x="277.377897" y="307.584" style="stroke: #000000; stroke-width: 0.8"/>
      </g>
     </g>
     <g id="text_5">
      <!-- 200 -->
      <g transform="translate(267.834147 322.182437)scale(0.1 -0.1)">
       <defs>
        <path id="DejaVuSans-32" d="M 1228 531 
L 3431 531 
L 3431 0 
L 469 0 
L 469 531 
Q 828 903 1448 1529 
Q 2069 2156 2228 2338 
Q 2531 2678 2651 2914 
Q 2772 3150 2772 3378 
Q 2772 3750 2511 3984 
Q 2250 4219 1831 4219 
Q 1534 4219 1204 4116 
Q 875 4013 500 3803 
L 500 4441 
Q 881 4594 1212 4672 
Q 1544 4750 1819 4750 
Q 2544 4750 2975 4387 
Q 3406 4025 3406 3419 
Q 3406 3131 3298 2873 
Q 3191 2616 2906 2266 
Q 2828 2175 2409 1742 
Q 1991 1309 1228 531 
z
" transform="scale(0.015625)"/>
       </defs>
       <use xlink:href="#DejaVuSans-32"/>
       <use xlink:href="#DejaVuSans-30" x="63.623047"/>
       <use xlink:href="#DejaVuSans-30" x="127.246094"/>
      </g>
     </g>
    </g>
    <g id="xtick_6">
     <g id="line2d_6">
      <g>
       <use xlink:href="#mf8fb008bae" x="328.264189" y="307.584" style="stroke: #000000; stroke-width: 0.8"/>
      </g>
     </g>
     <g id="text_6">
      <!-- 250 -->
      <g transform="translate(318.720439 322.182437)scale(0.1 -0.1)">
       <use xlink:href="#DejaVuSans-32"/>
       <use xlink:href="#DejaVuSans-35" x="63.623047"/>
       <use xlink:href="#DejaVuSans-30" x="127.246094"/>
      </g>
     </g>
    </g>
    <g id="xtick_7">
     <g id="line2d_7">
      <g>
       <use xlink:href="#mf8fb008bae" x="379.150482" y="307.584" style="stroke: #000000; stroke-width: 0.8"/>
      </g>
     </g>
     <g id="text_7">
      <!-- 300 -->
      <g transform="translate(369.606732 322.182437)scale(0.1 -0.1)">
       <defs>
        <path id="DejaVuSans-33" d="M 2597 2516 
Q 3050 2419 3304 2112 
Q 3559 1806 3559 1356 
Q 3559 666 3084 287 
Q 2609 -91 1734 -91 
Q 1441 -91 1130 -33 
Q 819 25 488 141 
L 488 750 
Q 750 597 1062 519 
Q 1375 441 1716 441 
Q 2309 441 2620 675 
Q 2931 909 2931 1356 
Q 2931 1769 2642 2001 
Q 2353 2234 1838 2234 
L 1294 2234 
L 1294 2753 
L 1863 2753 
Q 2328 2753 2575 2939 
Q 2822 3125 2822 3475 
Q 2822 3834 2567 4026 
Q 2313 4219 1838 4219 
Q 1578 4219 1281 4162 
Q 984 4106 628 3988 
L 628 4550 
Q 988 4650 1302 4700 
Q 1616 4750 1894 4750 
Q 2613 4750 3031 4423 
Q 3450 4097 3450 3541 
Q 3450 3153 3228 2886 
Q 3006 2619 2597 2516 
z
" transform="scale(0.015625)"/>
       </defs>
       <use xlink:href="#DejaVuSans-33"/>
       <use xlink:href="#DejaVuSans-30" x="63.623047"/>
       <use xlink:href="#DejaVuSans-30" x="127.246094"/>
      </g>
     </g>
    </g>
   </g>
   <g id="matplotlib.axis_2">
    <g id="ytick_1">
     <g id="line2d_8">
      <defs>
       <path id="m82f9402888" d="M 0 0 
L -3.5 0 
" style="stroke: #000000; stroke-width: 0.8"/>
      </defs>
      <g>
       <use xlink:href="#m82f9402888" x="57.6" y="280.35764" style="stroke: #000000; stroke-width: 0.8"/>
      </g>
     </g>
     <g id="text_8">
      <!-- 4 -->
      <g transform="translate(44.2375 284.156859)scale(0.1 -0.1)">
       <defs>
        <path id="DejaVuSans-34" d="M 2419 4116 
L 825 1625 
L 2419 1625 
L 2419 4116 
z
M 2253 4666 
L 3047 4666 
L 3047 1625 
L 3713 1625 
L 3713 1100 
L 3047 1100 
L 3047 0 
L 2419 0 
L 2419 1100 
L 313 1100 
L 313 1709 
L 2253 4666 
z
" transform="scale(0.015625)"/>
       </defs>
       <use xlink:href="#DejaVuSans-34"/>
      </g>
     </g>
    </g>
    <g id="ytick_2">
     <g id="line2d_9">
      <g>
       <use xlink:href="#m82f9402888" x="57.6" y="247.67483" style="stroke: #000000; stroke-width: 0.8"/>
      </g>
     </g>
     <g id="text_9">
      <!-- 6 -->
      <g transform="translate(44.2375 251.474048)scale(0.1 -0.1)">
       <defs>
        <path id="DejaVuSans-36" d="M 2113 2584 
Q 1688 2584 1439 2293 
Q 1191 2003 1191 1497 
Q 1191 994 1439 701 
Q 1688 409 2113 409 
Q 2538 409 2786 701 
Q 3034 994 3034 1497 
Q 3034 2003 2786 2293 
Q 2538 2584 2113 2584 
z
M 3366 4563 
L 3366 3988 
Q 3128 4100 2886 4159 
Q 2644 4219 2406 4219 
Q 1781 4219 1451 3797 
Q 1122 3375 1075 2522 
Q 1259 2794 1537 2939 
Q 1816 3084 2150 3084 
Q 2853 3084 3261 2657 
Q 3669 2231 3669 1497 
Q 3669 778 3244 343 
Q 2819 -91 2113 -91 
Q 1303 -91 875 529 
Q 447 1150 447 2328 
Q 447 3434 972 4092 
Q 1497 4750 2381 4750 
Q 2619 4750 2861 4703 
Q 3103 4656 3366 4563 
z
" transform="scale(0.015625)"/>
       </defs>
       <use xlink:href="#DejaVuSans-36"/>
      </g>
     </g>
    </g>
    <g id="ytick_3">
     <g id="line2d_10">
      <g>
       <use xlink:href="#m82f9402888" x="57.6" y="214.992019" style="stroke: #000000; stroke-width: 0.8"/>
      </g>
     </g>
     <g id="text_10">
      <!-- 8 -->
      <g transform="translate(44.2375 218.791238)scale(0.1 -0.1)">
       <defs>
        <path id="DejaVuSans-38" d="M 2034 2216 
Q 1584 2216 1326 1975 
Q 1069 1734 1069 1313 
Q 1069 891 1326 650 
Q 1584 409 2034 409 
Q 2484 409 2743 651 
Q 3003 894 3003 1313 
Q 3003 1734 2745 1975 
Q 2488 2216 2034 2216 
z
M 1403 2484 
Q 997 2584 770 2862 
Q 544 3141 544 3541 
Q 544 4100 942 4425 
Q 1341 4750 2034 4750 
Q 2731 4750 3128 4425 
Q 3525 4100 3525 3541 
Q 3525 3141 3298 2862 
Q 3072 2584 2669 2484 
Q 3125 2378 3379 2068 
Q 3634 1759 3634 1313 
Q 3634 634 3220 271 
Q 2806 -91 2034 -91 
Q 1263 -91 848 271 
Q 434 634 434 1313 
Q 434 1759 690 2068 
Q 947 2378 1403 2484 
z
M 1172 3481 
Q 1172 3119 1398 2916 
Q 1625 2713 2034 2713 
Q 2441 2713 2670 2916 
Q 2900 3119 2900 3481 
Q 2900 3844 2670 4047 
Q 2441 4250 2034 4250 
Q 1625 4250 1398 4047 
Q 1172 3844 1172 3481 
z
" transform="scale(0.015625)"/>
       </defs>
       <use xlink:href="#DejaVuSans-38"/>
      </g>
     </g>
    </g>
    <g id="ytick_4">
     <g id="line2d_11">
      <g>
       <use xlink:href="#m82f9402888" x="57.6" y="182.309209" style="stroke: #000000; stroke-width: 0.8"/>
      </g>
     </g>
     <g id="text_11">
      <!-- 10 -->
      <g transform="translate(37.875 186.108427)scale(0.1 -0.1)">
       <use xlink:href="#DejaVuSans-31"/>
       <use xlink:href="#DejaVuSans-30" x="63.623047"/>
      </g>
     </g>
    </g>
    <g id="ytick_5">
     <g id="line2d_12">
      <g>
       <use xlink:href="#m82f9402888" x="57.6" y="149.626398" style="stroke: #000000; stroke-width: 0.8"/>
      </g>
     </g>
     <g id="text_12">
      <!-- 12 -->
      <g transform="translate(37.875 153.425617)scale(0.1 -0.1)">
       <use xlink:href="#DejaVuSans-31"/>
       <use xlink:href="#DejaVuSans-32" x="63.623047"/>
      </g>
     </g>
    </g>
    <g id="ytick_6">
     <g id="line2d_13">
      <g>
       <use xlink:href="#m82f9402888" x="57.6" y="116.943588" style="stroke: #000000; stroke-width: 0.8"/>
      </g>
     </g>
     <g id="text_13">
      <!-- 14 -->
      <g transform="translate(37.875 120.742807)scale(0.1 -0.1)">
       <use xlink:href="#DejaVuSans-31"/>
       <use xlink:href="#DejaVuSans-34" x="63.623047"/>
      </g>
     </g>
    </g>
    <g id="ytick_7">
     <g id="line2d_14">
      <g>
       <use xlink:href="#m82f9402888" x="57.6" y="84.260777" style="stroke: #000000; stroke-width: 0.8"/>
      </g>
     </g>
     <g id="text_14">
      <!-- 16 -->
      <g transform="translate(37.875 88.059996)scale(0.1 -0.1)">
       <use xlink:href="#DejaVuSans-31"/>
       <use xlink:href="#DejaVuSans-36" x="63.623047"/>
      </g>
     </g>
    </g>
    <g id="ytick_8">
     <g id="line2d_15">
      <g>
       <use xlink:href="#m82f9402888" x="57.6" y="51.577967" style="stroke: #000000; stroke-width: 0.8"/>
      </g>
     </g>
     <g id="text_15">
      <!-- 18 -->
      <g transform="translate(37.875 55.377186)scale(0.1 -0.1)">
       <use xlink:href="#DejaVuSans-31"/>
       <use xlink:href="#DejaVuSans-38" x="63.623047"/>
      </g>
     </g>
    </g>
   </g>
   <g id="line2d_16">
    <path d="M 73.832727 130.00312 
L 74.850453 167.698183 
L 75.868179 168.361337 
L 76.885905 174.2851 
L 77.903631 173.298195 
L 79.939082 187.140209 
L 80.956808 191.018084 
L 81.974534 196.595532 
L 82.99226 196.70929 
L 84.009986 198.171331 
L 85.027712 205.670905 
L 86.045437 206.919909 
L 87.063163 209.227432 
L 88.080889 208.864496 
L 89.098615 213.124581 
L 90.116341 214.584709 
L 91.134067 211.066942 
L 92.151793 218.457002 
L 93.169518 219.597904 
L 94.187244 221.843261 
L 95.20497 220.295236 
L 96.222696 217.414837 
L 97.240422 219.346366 
L 98.258148 219.985986 
L 99.275873 218.106581 
L 100.293599 218.616199 
L 102.329051 226.824375 
L 103.346777 219.827524 
L 104.364503 225.047298 
L 105.382229 221.652949 
L 107.41768 227.026995 
L 108.435406 222.320017 
L 109.453132 227.39476 
L 111.488584 222.777315 
L 112.506309 225.345246 
L 113.524035 229.123874 
L 114.541761 221.858708 
L 115.559487 221.935229 
L 116.577213 226.903481 
L 117.594939 226.959737 
L 118.612665 222.104991 
L 119.63039 227.04739 
L 120.648116 227.080468 
L 121.665842 224.656154 
L 122.683568 229.579937 
L 123.701294 229.596338 
L 124.71902 224.705872 
L 125.736746 222.262633 
L 126.754471 225.94385 
L 127.772197 222.268234 
L 128.789923 223.492173 
L 129.807649 227.164752 
L 130.825375 225.932607 
L 131.843101 227.149609 
L 132.860826 223.462339 
L 133.878552 227.127044 
L 134.896278 227.113445 
L 136.93173 224.631179 
L 137.949456 225.839588 
L 138.967182 119.540778 
L 139.984907 153.62662 
L 141.002633 164.08399 
L 142.020359 160.184852 
L 143.038085 166.49084 
L 144.055811 168.308964 
L 145.073537 177.879052 
L 146.091262 185.432188 
L 147.108988 183.654447 
L 148.126714 187.443464 
L 149.14444 192.580764 
L 150.162166 191.499543 
L 151.179892 198.875015 
L 152.197618 198.729769 
L 153.215343 200.816484 
L 154.233069 206.300616 
L 155.250795 207.759184 
L 156.268521 210.367884 
L 157.286247 206.725936 
L 158.303973 206.639671 
L 159.321698 211.334678 
L 160.339424 214.687512 
L 161.35715 210.579947 
L 162.374876 210.058703 
L 163.392602 210.696759 
L 164.410328 212.492608 
L 165.428054 210.549452 
L 166.445779 213.451857 
L 167.463505 211.400868 
L 168.481231 219.109717 
L 169.498957 212.071872 
L 170.516683 213.57838 
L 171.534409 212.601476 
L 172.552135 212.821268 
L 173.56986 219.143172 
L 174.587586 220.539532 
L 175.605312 218.238458 
L 176.623038 218.370163 
L 177.640764 219.710921 
L 178.65849 214.908743 
L 179.676215 221.123668 
L 180.693941 221.19862 
L 181.711667 217.586065 
L 182.729393 218.866358 
L 183.747119 221.363673 
L 184.764845 214.048449 
L 185.782571 218.982377 
L 187.818022 219.027493 
L 188.835748 217.816717 
L 189.853474 219.052706 
L 191.888926 216.610722 
L 193.924377 221.50953 
L 194.942103 216.601298 
L 195.959829 217.81879 
L 196.977555 220.259822 
L 197.995281 216.570978 
L 199.013007 216.55729 
L 200.030732 214.090905 
L 201.048458 215.300004 
L 202.066184 218.959118 
L 203.08391 216.489135 
L 204.101636 53.568 
L 205.119362 94.933855 
L 206.137087 108.394481 
L 207.154813 119.358097 
L 208.172539 124.734056 
L 209.190265 132.5088 
L 210.207991 131.719821 
L 212.243443 151.148079 
L 213.261168 149.459035 
L 214.278894 155.262948 
L 215.29662 157.284182 
L 216.314346 160.377506 
L 217.332072 164.487351 
L 218.349798 165.87172 
L 219.367524 165.681048 
L 220.385249 172.407909 
L 221.402975 170.461042 
L 222.420701 170.811977 
L 223.438427 178.36501 
L 224.456153 173.510444 
L 225.473879 174.638101 
L 226.491604 180.534634 
L 227.50933 178.964341 
L 229.544782 185.377868 
L 230.562508 179.88519 
L 231.580234 179.223806 
L 232.59796 183.401086 
L 233.615685 182.619648 
L 235.651137 188.26812 
L 236.668863 184.902231 
L 237.686589 186.4026 
L 238.704315 181.742525 
L 239.72204 181.95595 
L 240.739766 188.271609 
L 241.757492 187.21058 
L 242.775218 187.354451 
L 243.792944 188.705278 
L 244.81067 183.911384 
L 245.828396 187.681784 
L 246.846121 185.310785 
L 247.863847 187.83023 
L 248.881573 184.210913 
L 249.899299 184.258784 
L 250.917025 185.523627 
L 251.934751 185.555134 
L 252.952476 184.35411 
L 253.970202 185.598091 
L 256.005654 185.618736 
L 257.02338 190.524521 
L 259.058832 183.16602 
L 260.076557 190.512209 
L 261.094283 188.050674 
L 262.112009 186.812162 
L 263.129735 186.79694 
L 264.147461 184.328432 
L 266.182913 186.739662 
L 267.200638 189.168554 
L 268.218364 185.468079 
L 269.23609 100.475525 
L 270.253816 136.907182 
L 271.271542 141.854922 
L 272.289268 148.966938 
L 273.306993 151.499179 
L 274.324719 153.311933 
L 275.342445 156.750357 
L 276.360171 161.848651 
L 277.377897 169.872099 
L 278.395623 174.883049 
L 280.431074 177.706128 
L 281.4488 180.175461 
L 282.466526 181.252089 
L 283.484252 185.786273 
L 284.501978 187.589837 
L 285.519704 184.142222 
L 286.537429 190.423969 
L 287.555155 189.229454 
L 288.572881 194.041828 
L 289.590607 193.830623 
L 290.608333 194.728451 
L 291.626059 197.970717 
L 292.643785 196.220062 
L 293.66151 199.305519 
L 295.696962 200.376186 
L 297.732414 198.768746 
L 298.75014 197.89453 
L 300.785591 200.934769 
L 301.803317 201.179637 
L 302.821043 197.718775 
L 303.838769 195.457603 
L 304.856495 198.075728 
L 305.874221 198.222023 
L 307.909672 203.363612 
L 308.927398 197.331981 
L 309.945124 196.189425 
L 311.980576 201.223358 
L 312.998302 197.597376 
L 314.016027 198.865232 
L 315.033753 201.350995 
L 316.051479 198.927435 
L 317.069205 198.948903 
L 318.086931 201.416045 
L 319.104657 197.750198 
L 321.140108 197.759257 
L 322.157834 202.660643 
L 323.17556 197.753984 
L 324.193286 203.874905 
L 325.211012 198.962807 
L 327.246463 201.38799 
L 329.281915 198.903323 
L 330.299641 201.335488 
L 331.317367 196.412687 
L 332.335093 196.391112 
L 333.352818 200.045281 
L 334.370544 295.488 
L 335.38827 224.88406 
L 336.405996 217.269598 
L 337.423722 206.51674 
L 338.441448 201.008131 
L 339.459174 193.566462 
L 340.476899 182.877688 
L 341.494625 173.773412 
L 342.512351 161.271545 
L 343.530077 154.796027 
L 344.547803 151.753214 
L 345.565529 147.666893 
L 346.583254 138.924233 
L 347.60098 134.171243 
L 348.618706 128.156381 
L 349.636432 123.939681 
L 350.654158 125.4998 
L 351.671884 120.366678 
L 352.68961 118.659986 
L 353.707335 115.893932 
L 354.725061 108.334921 
L 355.742787 107.606134 
L 356.760513 108.822011 
L 357.778239 106.835073 
L 358.795965 103.907542 
L 359.813691 100.480616 
L 360.831416 98.707854 
L 361.849142 95.240948 
L 362.866868 92.751636 
L 363.884594 94.105641 
L 364.90232 98.318468 
L 365.920046 97.497445 
L 366.937771 98.528682 
L 367.955497 94.456174 
L 368.973223 97.995565 
L 369.990949 94.754377 
L 371.008675 96.41822 
L 372.026401 92.53989 
L 373.044127 93.522509 
L 374.061852 90.282047 
L 375.079578 85.591659 
L 376.097304 91.960774 
L 377.11503 91.118968 
L 378.132756 88.306667 
L 379.150482 95.331099 
L 380.168207 91.671585 
L 381.185933 90.456117 
L 382.203659 85.84048 
L 383.221385 84.549213 
L 384.239111 88.251984 
L 385.256837 92.530721 
L 386.274563 88.316603 
L 387.292288 90.443154 
L 388.310014 89.636241 
L 389.32774 82.62987 
L 390.345466 92.038362 
L 391.363192 91.92718 
L 392.380918 82.551841 
L 393.398643 82.94966 
L 394.416369 86.951829 
L 395.434095 89.390353 
L 396.451821 86.044296 
L 397.469547 86.824392 
L 398.487273 87.780593 
L 398.487273 87.780593 
" clip-path="url(#p623bb891af)" style="fill: none; stroke: #1f77b4; stroke-width: 1.5; stroke-linecap: square"/>
   </g>
   <g id="patch_3">
    <path d="M 57.6 307.584 
L 57.6 41.472 
" style="fill: none; stroke: #000000; stroke-width: 0.8; stroke-linejoin: miter; stroke-linecap: square"/>
   </g>
   <g id="patch_4">
    <path d="M 414.72 307.584 
L 414.72 41.472 
" style="fill: none; stroke: #000000; stroke-width: 0.8; stroke-linejoin: miter; stroke-linecap: square"/>
   </g>
   <g id="patch_5">
    <path d="M 57.6 307.584 
L 414.72 307.584 
" style="fill: none; stroke: #000000; stroke-width: 0.8; stroke-linejoin: miter; stroke-linecap: square"/>
   </g>
   <g id="patch_6">
    <path d="M 57.6 41.472 
L 414.72 41.472 
" style="fill: none; stroke: #000000; stroke-width: 0.8; stroke-linejoin: miter; stroke-linecap: square"/>
   </g>
   <g id="legend_1">
    <g id="patch_7">
     <path d="M 354.074688 64.150125 
L 407.72 64.150125 
Q 409.72 64.150125 409.72 62.150125 
L 409.72 48.472 
Q 409.72 46.472 407.72 46.472 
L 354.074688 46.472 
Q 352.074688 46.472 352.074688 48.472 
L 352.074688 62.150125 
Q 352.074688 64.150125 354.074688 64.150125 
z
" style="fill: #ffffff; opacity: 0.8; stroke: #cccccc; stroke-linejoin: miter"/>
    </g>
    <g id="line2d_17">
     <path d="M 356.074688 54.570438 
L 366.074688 54.570438 
L 376.074688 54.570438 
" style="fill: none; stroke: #1f77b4; stroke-width: 1.5; stroke-linecap: square"/>
    </g>
    <g id="text_16">
     <!-- set3 -->
     <g transform="translate(384.074688 58.070438)scale(0.1 -0.1)">
      <defs>
       <path id="DejaVuSans-73" d="M 2834 3397 
L 2834 2853 
Q 2591 2978 2328 3040 
Q 2066 3103 1784 3103 
Q 1356 3103 1142 2972 
Q 928 2841 928 2578 
Q 928 2378 1081 2264 
Q 1234 2150 1697 2047 
L 1894 2003 
Q 2506 1872 2764 1633 
Q 3022 1394 3022 966 
Q 3022 478 2636 193 
Q 2250 -91 1575 -91 
Q 1294 -91 989 -36 
Q 684 19 347 128 
L 347 722 
Q 666 556 975 473 
Q 1284 391 1588 391 
Q 1994 391 2212 530 
Q 2431 669 2431 922 
Q 2431 1156 2273 1281 
Q 2116 1406 1581 1522 
L 1381 1569 
Q 847 1681 609 1914 
Q 372 2147 372 2553 
Q 372 3047 722 3315 
Q 1072 3584 1716 3584 
Q 2034 3584 2315 3537 
Q 2597 3491 2834 3397 
z
" transform="scale(0.015625)"/>
       <path id="DejaVuSans-65" d="M 3597 1894 
L 3597 1613 
L 953 1613 
Q 991 1019 1311 708 
Q 1631 397 2203 397 
Q 2534 397 2845 478 
Q 3156 559 3463 722 
L 3463 178 
Q 3153 47 2828 -22 
Q 2503 -91 2169 -91 
Q 1331 -91 842 396 
Q 353 884 353 1716 
Q 353 2575 817 3079 
Q 1281 3584 2069 3584 
Q 2775 3584 3186 3129 
Q 3597 2675 3597 1894 
z
M 3022 2063 
Q 3016 2534 2758 2815 
Q 2500 3097 2075 3097 
Q 1594 3097 1305 2825 
Q 1016 2553 972 2059 
L 3022 2063 
z
" transform="scale(0.015625)"/>
       <path id="DejaVuSans-74" d="M 1172 4494 
L 1172 3500 
L 2356 3500 
L 2356 3053 
L 1172 3053 
L 1172 1153 
Q 1172 725 1289 603 
Q 1406 481 1766 481 
L 2356 481 
L 2356 0 
L 1766 0 
Q 1100 0 847 248 
Q 594 497 594 1153 
L 594 3053 
L 172 3053 
L 172 3500 
L 594 3500 
L 594 4494 
L 1172 4494 
z
" transform="scale(0.015625)"/>
      </defs>
      <use xlink:href="#DejaVuSans-73"/>
      <use xlink:href="#DejaVuSans-65" x="52.099609"/>
      <use xlink:href="#DejaVuSans-74" x="113.623047"/>
      <use xlink:href="#DejaVuSans-33" x="152.832031"/>
     </g>
    </g>
   </g>
  </g>
 </g>
 <defs>
  <clipPath id="p623bb891af">
   <rect x="57.6" y="41.472" width="357.12" height="266.112"/>
  </clipPath>
 </defs>
</svg>
