<?xml version="1.0" encoding="utf-8" standalone="no"?>
<!DOCTYPE svg PUBLIC "-//W3C//DTD SVG 1.1//EN"
  "http://www.w3.org/Graphics/SVG/1.1/DTD/svg11.dtd">
<svg xmlns:xlink="http://www.w3.org/1999/xlink" width="460.8pt" height="345.6pt" viewBox="0 0 460.8 345.6" xmlns="http://www.w3.org/2000/svg" version="1.1">
 <metadata>
  <rdf:RDF xmlns:dc="http://purl.org/dc/elements/1.1/" xmlns:cc="http://creativecommons.org/ns#" xmlns:rdf="http://www.w3.org/1999/02/22-rdf-syntax-ns#">
   <cc:Work>
    <dc:type rdf:resource="http://purl.org/dc/dcmitype/StillImage"/>
    <dc:date>2022-08-11T20:38:48.144086</dc:date>
    <dc:format>image/svg+xml</dc:format>
    <dc:creator>
     <cc:Agent>
      <dc:title>Matplotlib v3.5.2, https://matplotlib.org/</dc:title>
     </cc:Agent>
    </dc:creator>
   </cc:Work>
  </rdf:RDF>
 </metadata>
 <defs>
  <style type="text/css">*{stroke-linejoin: round; stroke-linecap: butt}</style>
 </defs>
 <g id="figure_1">
  <g id="patch_1">
   <path d="M 0 345.6 
L 460.8 345.6 
L 460.8 0 
L 0 0 
z
" style="fill: #ffffff"/>
  </g>
  <g id="axes_1">
   <g id="patch_2">
    <path d="M 57.6 307.584 
L 414.72 307.584 
L 414.72 41.472 
L 57.6 41.472 
z
" style="fill: #ffffff"/>
   </g>
   <g id="matplotlib.axis_1">
    <g id="xtick_1">
     <g id="line2d_1">
      <defs>
       <path id="m9f72388492" d="M 0 0 
L 0 3.5 
" style="stroke: #000000; stroke-width: 0.8"/>
      </defs>
      <g>
       <use xlink:href="#m9f72388492" x="73.832727" y="307.584" style="stroke: #000000; stroke-width: 0.8"/>
      </g>
     </g>
     <g id="text_1">
      <!-- 0 -->
      <g transform="translate(70.651477 322.182437)scale(0.1 -0.1)">
       <defs>
        <path id="DejaVuSans-30" d="M 2034 4250 
Q 1547 4250 1301 3770 
Q 1056 3291 1056 2328 
Q 1056 1369 1301 889 
Q 1547 409 2034 409 
Q 2525 409 2770 889 
Q 3016 1369 3016 2328 
Q 3016 3291 2770 3770 
Q 2525 4250 2034 4250 
z
M 2034 4750 
Q 2819 4750 3233 4129 
Q 3647 3509 3647 2328 
Q 3647 1150 3233 529 
Q 2819 -91 2034 -91 
Q 1250 -91 836 529 
Q 422 1150 422 2328 
Q 422 3509 836 4129 
Q 1250 4750 2034 4750 
z
" transform="scale(0.015625)"/>
       </defs>
       <use xlink:href="#DejaVuSans-30"/>
      </g>
     </g>
    </g>
    <g id="xtick_2">
     <g id="line2d_2">
      <g>
       <use xlink:href="#m9f72388492" x="124.71902" y="307.584" style="stroke: #000000; stroke-width: 0.8"/>
      </g>
     </g>
     <g id="text_2">
      <!-- 50 -->
      <g transform="translate(118.35652 322.182437)scale(0.1 -0.1)">
       <defs>
        <path id="DejaVuSans-35" d="M 691 4666 
L 3169 4666 
L 3169 4134 
L 1269 4134 
L 1269 2991 
Q 1406 3038 1543 3061 
Q 1681 3084 1819 3084 
Q 2600 3084 3056 2656 
Q 3513 2228 3513 1497 
Q 3513 744 3044 326 
Q 2575 -91 1722 -91 
Q 1428 -91 1123 -41 
Q 819 9 494 109 
L 494 744 
Q 775 591 1075 516 
Q 1375 441 1709 441 
Q 2250 441 2565 725 
Q 2881 1009 2881 1497 
Q 2881 1984 2565 2268 
Q 2250 2553 1709 2553 
Q 1456 2553 1204 2497 
Q 953 2441 691 2322 
L 691 4666 
z
" transform="scale(0.015625)"/>
       </defs>
       <use xlink:href="#DejaVuSans-35"/>
       <use xlink:href="#DejaVuSans-30" x="63.623047"/>
      </g>
     </g>
    </g>
    <g id="xtick_3">
     <g id="line2d_3">
      <g>
       <use xlink:href="#m9f72388492" x="175.605312" y="307.584" style="stroke: #000000; stroke-width: 0.8"/>
      </g>
     </g>
     <g id="text_3">
      <!-- 100 -->
      <g transform="translate(166.061562 322.182437)scale(0.1 -0.1)">
       <defs>
        <path id="DejaVuSans-31" d="M 794 531 
L 1825 531 
L 1825 4091 
L 703 3866 
L 703 4441 
L 1819 4666 
L 2450 4666 
L 2450 531 
L 3481 531 
L 3481 0 
L 794 0 
L 794 531 
z
" transform="scale(0.015625)"/>
       </defs>
       <use xlink:href="#DejaVuSans-31"/>
       <use xlink:href="#DejaVuSans-30" x="63.623047"/>
       <use xlink:href="#DejaVuSans-30" x="127.246094"/>
      </g>
     </g>
    </g>
    <g id="xtick_4">
     <g id="line2d_4">
      <g>
       <use xlink:href="#m9f72388492" x="226.491604" y="307.584" style="stroke: #000000; stroke-width: 0.8"/>
      </g>
     </g>
     <g id="text_4">
      <!-- 150 -->
      <g transform="translate(216.947854 322.182437)scale(0.1 -0.1)">
       <use xlink:href="#DejaVuSans-31"/>
       <use xlink:href="#DejaVuSans-35" x="63.623047"/>
       <use xlink:href="#DejaVuSans-30" x="127.246094"/>
      </g>
     </g>
    </g>
    <g id="xtick_5">
     <g id="line2d_5">
      <g>
       <use xlink:href="#m9f72388492" x="277.377897" y="307.584" style="stroke: #000000; stroke-width: 0.8"/>
      </g>
     </g>
     <g id="text_5">
      <!-- 200 -->
      <g transform="translate(267.834147 322.182437)scale(0.1 -0.1)">
       <defs>
        <path id="DejaVuSans-32" d="M 1228 531 
L 3431 531 
L 3431 0 
L 469 0 
L 469 531 
Q 828 903 1448 1529 
Q 2069 2156 2228 2338 
Q 2531 2678 2651 2914 
Q 2772 3150 2772 3378 
Q 2772 3750 2511 3984 
Q 2250 4219 1831 4219 
Q 1534 4219 1204 4116 
Q 875 4013 500 3803 
L 500 4441 
Q 881 4594 1212 4672 
Q 1544 4750 1819 4750 
Q 2544 4750 2975 4387 
Q 3406 4025 3406 3419 
Q 3406 3131 3298 2873 
Q 3191 2616 2906 2266 
Q 2828 2175 2409 1742 
Q 1991 1309 1228 531 
z
" transform="scale(0.015625)"/>
       </defs>
       <use xlink:href="#DejaVuSans-32"/>
       <use xlink:href="#DejaVuSans-30" x="63.623047"/>
       <use xlink:href="#DejaVuSans-30" x="127.246094"/>
      </g>
     </g>
    </g>
    <g id="xtick_6">
     <g id="line2d_6">
      <g>
       <use xlink:href="#m9f72388492" x="328.264189" y="307.584" style="stroke: #000000; stroke-width: 0.8"/>
      </g>
     </g>
     <g id="text_6">
      <!-- 250 -->
      <g transform="translate(318.720439 322.182437)scale(0.1 -0.1)">
       <use xlink:href="#DejaVuSans-32"/>
       <use xlink:href="#DejaVuSans-35" x="63.623047"/>
       <use xlink:href="#DejaVuSans-30" x="127.246094"/>
      </g>
     </g>
    </g>
    <g id="xtick_7">
     <g id="line2d_7">
      <g>
       <use xlink:href="#m9f72388492" x="379.150482" y="307.584" style="stroke: #000000; stroke-width: 0.8"/>
      </g>
     </g>
     <g id="text_7">
      <!-- 300 -->
      <g transform="translate(369.606732 322.182437)scale(0.1 -0.1)">
       <defs>
        <path id="DejaVuSans-33" d="M 2597 2516 
Q 3050 2419 3304 2112 
Q 3559 1806 3559 1356 
Q 3559 666 3084 287 
Q 2609 -91 1734 -91 
Q 1441 -91 1130 -33 
Q 819 25 488 141 
L 488 750 
Q 750 597 1062 519 
Q 1375 441 1716 441 
Q 2309 441 2620 675 
Q 2931 909 2931 1356 
Q 2931 1769 2642 2001 
Q 2353 2234 1838 2234 
L 1294 2234 
L 1294 2753 
L 1863 2753 
Q 2328 2753 2575 2939 
Q 2822 3125 2822 3475 
Q 2822 3834 2567 4026 
Q 2313 4219 1838 4219 
Q 1578 4219 1281 4162 
Q 984 4106 628 3988 
L 628 4550 
Q 988 4650 1302 4700 
Q 1616 4750 1894 4750 
Q 2613 4750 3031 4423 
Q 3450 4097 3450 3541 
Q 3450 3153 3228 2886 
Q 3006 2619 2597 2516 
z
" transform="scale(0.015625)"/>
       </defs>
       <use xlink:href="#DejaVuSans-33"/>
       <use xlink:href="#DejaVuSans-30" x="63.623047"/>
       <use xlink:href="#DejaVuSans-30" x="127.246094"/>
      </g>
     </g>
    </g>
   </g>
   <g id="matplotlib.axis_2">
    <g id="ytick_1">
     <g id="line2d_8">
      <defs>
       <path id="m08501c1274" d="M 0 0 
L -3.5 0 
" style="stroke: #000000; stroke-width: 0.8"/>
      </defs>
      <g>
       <use xlink:href="#m08501c1274" x="57.6" y="276.75006" style="stroke: #000000; stroke-width: 0.8"/>
      </g>
     </g>
     <g id="text_8">
      <!-- 10 -->
      <g transform="translate(37.875 280.549279)scale(0.1 -0.1)">
       <use xlink:href="#DejaVuSans-31"/>
       <use xlink:href="#DejaVuSans-30" x="63.623047"/>
      </g>
     </g>
    </g>
    <g id="ytick_2">
     <g id="line2d_9">
      <g>
       <use xlink:href="#m08501c1274" x="57.6" y="224.886494" style="stroke: #000000; stroke-width: 0.8"/>
      </g>
     </g>
     <g id="text_9">
      <!-- 15 -->
      <g transform="translate(37.875 228.685713)scale(0.1 -0.1)">
       <use xlink:href="#DejaVuSans-31"/>
       <use xlink:href="#DejaVuSans-35" x="63.623047"/>
      </g>
     </g>
    </g>
    <g id="ytick_3">
     <g id="line2d_10">
      <g>
       <use xlink:href="#m08501c1274" x="57.6" y="173.022929" style="stroke: #000000; stroke-width: 0.8"/>
      </g>
     </g>
     <g id="text_10">
      <!-- 20 -->
      <g transform="translate(37.875 176.822148)scale(0.1 -0.1)">
       <use xlink:href="#DejaVuSans-32"/>
       <use xlink:href="#DejaVuSans-30" x="63.623047"/>
      </g>
     </g>
    </g>
    <g id="ytick_4">
     <g id="line2d_11">
      <g>
       <use xlink:href="#m08501c1274" x="57.6" y="121.159363" style="stroke: #000000; stroke-width: 0.8"/>
      </g>
     </g>
     <g id="text_11">
      <!-- 25 -->
      <g transform="translate(37.875 124.958582)scale(0.1 -0.1)">
       <use xlink:href="#DejaVuSans-32"/>
       <use xlink:href="#DejaVuSans-35" x="63.623047"/>
      </g>
     </g>
    </g>
    <g id="ytick_5">
     <g id="line2d_12">
      <g>
       <use xlink:href="#m08501c1274" x="57.6" y="69.295798" style="stroke: #000000; stroke-width: 0.8"/>
      </g>
     </g>
     <g id="text_12">
      <!-- 30 -->
      <g transform="translate(37.875 73.095016)scale(0.1 -0.1)">
       <use xlink:href="#DejaVuSans-33"/>
       <use xlink:href="#DejaVuSans-30" x="63.623047"/>
      </g>
     </g>
    </g>
   </g>
   <g id="line2d_13">
    <path d="M 73.832727 75.216781 
L 74.850453 115.803578 
L 75.868179 129.100118 
L 76.885905 156.351527 
L 77.903631 165.508653 
L 78.921357 178.22898 
L 79.939082 189.272427 
L 80.956808 197.824345 
L 81.974534 210.690834 
L 82.99226 216.846105 
L 84.009986 221.594932 
L 85.027712 224.017054 
L 86.045437 228.213158 
L 87.063163 231.351802 
L 88.080889 232.545247 
L 89.098615 232.627856 
L 90.116341 236.615969 
L 91.134067 239.233616 
L 92.151793 239.743543 
L 93.169518 240.855166 
L 94.187244 243.428315 
L 95.20497 245.060084 
L 96.222696 243.262472 
L 97.240422 243.017272 
L 98.258148 246.168971 
L 99.275873 244.458421 
L 100.293599 244.29946 
L 101.311325 246.27229 
L 102.329051 247.251808 
L 103.346777 246.262885 
L 104.364503 245.963547 
L 105.382229 247.44103 
L 106.399954 246.836103 
L 107.41768 250.096664 
L 108.435406 251.519057 
L 109.453132 249.195642 
L 110.470858 250.053126 
L 111.488584 248.816811 
L 112.506309 249.718166 
L 114.541761 250.446526 
L 115.559487 252.347135 
L 116.577213 250.212656 
L 117.594939 252.451937 
L 118.612665 251.838398 
L 119.63039 249.977476 
L 120.648116 252.256322 
L 121.665842 251.809634 
L 122.683568 250.156768 
L 123.701294 252.418896 
L 124.71902 250.094746 
L 125.736746 252.492035 
L 126.754471 250.587054 
L 127.772197 252.786862 
L 128.789923 250.362293 
L 129.807649 251.024637 
L 130.825375 249.935458 
L 131.843101 252.732097 
L 132.860826 252.356446 
L 133.878552 253.83058 
L 134.896278 254.476968 
L 135.914004 251.463041 
L 136.93173 253.240993 
L 137.949456 252.542239 
L 138.967182 53.568 
L 139.984907 96.913036 
L 141.002633 115.034438 
L 142.020359 145.796242 
L 143.038085 161.538182 
L 144.055811 174.775972 
L 146.091262 195.509264 
L 147.108988 203.190384 
L 149.14444 213.613466 
L 150.162166 221.115066 
L 151.179892 224.601729 
L 152.197618 229.099888 
L 153.215343 229.176225 
L 154.233069 233.590473 
L 155.250795 234.724992 
L 157.286247 237.364898 
L 158.303973 240.392346 
L 159.321698 239.427409 
L 160.339424 241.147322 
L 161.35715 240.575131 
L 162.374876 240.660883 
L 163.392602 242.623152 
L 164.410328 244.000042 
L 165.428054 243.500713 
L 166.445779 246.779992 
L 167.463505 245.387558 
L 168.481231 246.579739 
L 169.498957 247.275767 
L 170.516683 246.19291 
L 171.534409 245.730033 
L 172.552135 248.639327 
L 173.56986 246.930158 
L 174.587586 249.734066 
L 175.605312 248.019465 
L 176.623038 250.592854 
L 177.640764 248.411022 
L 178.65849 247.616806 
L 180.693941 247.300893 
L 181.711667 250.252357 
L 182.729393 248.481927 
L 183.747119 251.098538 
L 184.764845 250.776889 
L 185.782571 252.309126 
L 186.800296 249.78371 
L 187.818022 248.575898 
L 188.835748 251.025334 
L 189.853474 250.42907 
L 190.8712 251.800707 
L 191.888926 249.288851 
L 192.906651 251.40168 
L 193.924377 249.136659 
L 194.942103 250.007643 
L 195.959829 248.909915 
L 196.977555 248.501586 
L 197.995281 251.422513 
L 199.013007 249.312281 
L 200.030732 249.933297 
L 201.048458 251.925816 
L 202.066184 249.871972 
L 203.08391 249.015462 
L 204.101636 295.488 
L 205.119362 244.59232 
L 206.137087 237.618288 
L 207.154813 233.349041 
L 208.172539 226.18005 
L 209.190265 220.581656 
L 210.207991 210.582382 
L 211.225717 204.211308 
L 212.243443 192.163016 
L 213.261168 183.575739 
L 214.278894 167.781336 
L 216.314346 145.726085 
L 217.332072 140.062655 
L 218.349798 139.123429 
L 221.402975 120.108139 
L 222.420701 110.445264 
L 223.438427 105.35687 
L 224.456153 101.653551 
L 225.473879 102.545275 
L 226.491604 102.016734 
L 227.50933 94.434655 
L 228.527056 92.864583 
L 229.544782 87.851034 
L 230.562508 87.077075 
L 231.580234 86.479392 
L 232.59796 80.72995 
L 233.615685 78.867982 
L 234.633411 79.65951 
L 235.651137 82.398824 
L 236.668863 82.969859 
L 237.686589 81.843883 
L 238.704315 78.007726 
L 239.72204 77.448369 
L 241.757492 74.103619 
L 242.775218 75.032015 
L 243.792944 70.922622 
L 244.81067 65.966984 
L 245.828396 63.035309 
L 246.846121 61.562385 
L 247.863847 61.575627 
L 248.881573 66.900901 
L 249.899299 69.786445 
L 250.917025 66.614092 
L 251.934751 68.473574 
L 252.952476 63.081182 
L 253.970202 63.353453 
L 254.987928 64.436566 
L 256.005654 65.14103 
L 257.02338 62.287767 
L 258.041106 64.699412 
L 259.058832 67.764889 
L 260.076557 65.765785 
L 261.094283 72.115096 
L 262.112009 70.596136 
L 263.129735 68.833768 
L 264.147461 69.41376 
L 265.165187 67.490457 
L 266.182913 70.360664 
L 267.200638 64.029883 
L 268.218364 66.544411 
L 269.23609 61.467273 
L 270.253816 102.014455 
L 271.271542 118.877382 
L 272.289268 145.618994 
L 273.306993 164.724784 
L 274.324719 172.265948 
L 275.342445 188.12982 
L 276.360171 193.070295 
L 277.377897 205.289399 
L 278.395623 214.742283 
L 279.413349 221.955723 
L 281.4488 228.958932 
L 282.466526 231.948487 
L 283.484252 237.579425 
L 284.501978 238.045013 
L 285.519704 240.745546 
L 286.537429 244.373742 
L 287.555155 243.808523 
L 288.572881 245.957014 
L 289.590607 245.726362 
L 290.608333 247.743063 
L 291.626059 247.491035 
L 292.643785 250.977573 
L 293.66151 249.924671 
L 294.679236 251.607848 
L 295.696962 251.097733 
L 296.714688 254.200388 
L 297.732414 253.965151 
L 298.75014 254.024886 
L 299.767865 254.466999 
L 300.785591 256.610436 
L 301.803317 257.610287 
L 302.821043 256.353482 
L 303.838769 254.731958 
L 304.856495 255.736199 
L 305.874221 256.194463 
L 306.891946 258.053214 
L 307.909672 255.804419 
L 308.927398 254.79031 
L 309.945124 254.370589 
L 310.96285 254.183843 
L 311.980576 255.702222 
L 312.998302 255.017257 
L 314.016027 258.055937 
L 315.033753 257.727004 
L 316.051479 259.351069 
L 317.069205 259.872772 
L 318.086931 256.578856 
L 319.104657 258.983414 
L 320.122382 256.661406 
L 321.140108 258.855715 
L 322.157834 258.163994 
L 323.17556 256.605829 
L 324.193286 257.438281 
L 325.211012 257.751572 
L 326.228738 259.327148 
L 327.246463 256.550415 
L 328.264189 255.743194 
L 329.281915 258.518374 
L 330.299641 259.719801 
L 331.317367 260.169897 
L 332.335093 258.74042 
L 333.352818 256.848975 
L 334.370544 60.864537 
L 335.38827 97.101125 
L 336.405996 117.471561 
L 337.423722 145.878073 
L 338.441448 162.229331 
L 340.476899 181.278428 
L 341.494625 191.657527 
L 342.512351 197.627107 
L 343.530077 205.621102 
L 344.547803 208.313309 
L 345.565529 210.617782 
L 346.583254 215.980597 
L 347.60098 220.113687 
L 348.618706 225.810116 
L 349.636432 230.850575 
L 350.654158 231.674731 
L 351.671884 230.702374 
L 352.68961 233.768927 
L 353.707335 234.039682 
L 354.725061 235.537453 
L 355.742787 239.651492 
L 356.760513 238.845249 
L 357.778239 240.148025 
L 358.795965 240.559852 
L 359.813691 239.93102 
L 360.831416 243.00036 
L 362.866868 242.626112 
L 363.884594 242.001728 
L 364.90232 241.923677 
L 365.920046 245.143463 
L 367.955497 246.344693 
L 368.973223 244.993415 
L 369.990949 246.842706 
L 372.026401 246.868296 
L 373.044127 245.743986 
L 375.079578 245.54421 
L 376.097304 246.136688 
L 377.11503 247.464361 
L 378.132756 247.94293 
L 379.150482 246.448397 
L 380.168207 244.587447 
L 381.185933 246.065551 
L 382.203659 247.99501 
L 383.221385 246.600834 
L 384.239111 247.633231 
L 385.256837 244.98013 
L 386.274563 248.062243 
L 387.292288 245.126602 
L 388.310014 247.80341 
L 389.32774 246.518544 
L 390.345466 248.018255 
L 391.363192 245.252991 
L 392.380918 244.51332 
L 393.398643 246.315249 
L 394.416369 246.408858 
L 395.434095 246.212925 
L 396.451821 245.158294 
L 397.469547 247.587439 
L 398.487273 246.241699 
L 398.487273 246.241699 
" clip-path="url(#pe8a2da30be)" style="fill: none; stroke: #1f77b4; stroke-width: 1.5; stroke-linecap: square"/>
   </g>
   <g id="patch_3">
    <path d="M 57.6 307.584 
L 57.6 41.472 
" style="fill: none; stroke: #000000; stroke-width: 0.8; stroke-linejoin: miter; stroke-linecap: square"/>
   </g>
   <g id="patch_4">
    <path d="M 414.72 307.584 
L 414.72 41.472 
" style="fill: none; stroke: #000000; stroke-width: 0.8; stroke-linejoin: miter; stroke-linecap: square"/>
   </g>
   <g id="patch_5">
    <path d="M 57.6 307.584 
L 414.72 307.584 
" style="fill: none; stroke: #000000; stroke-width: 0.8; stroke-linejoin: miter; stroke-linecap: square"/>
   </g>
   <g id="patch_6">
    <path d="M 57.6 41.472 
L 414.72 41.472 
" style="fill: none; stroke: #000000; stroke-width: 0.8; stroke-linejoin: miter; stroke-linecap: square"/>
   </g>
   <g id="legend_1">
    <g id="patch_7">
     <path d="M 354.074688 64.150125 
L 407.72 64.150125 
Q 409.72 64.150125 409.72 62.150125 
L 409.72 48.472 
Q 409.72 46.472 407.72 46.472 
L 354.074688 46.472 
Q 352.074688 46.472 352.074688 48.472 
L 352.074688 62.150125 
Q 352.074688 64.150125 354.074688 64.150125 
z
" style="fill: #ffffff; opacity: 0.8; stroke: #cccccc; stroke-linejoin: miter"/>
    </g>
    <g id="line2d_14">
     <path d="M 356.074688 54.570438 
L 366.074688 54.570438 
L 376.074688 54.570438 
" style="fill: none; stroke: #1f77b4; stroke-width: 1.5; stroke-linecap: square"/>
    </g>
    <g id="text_13">
     <!-- set1 -->
     <g transform="translate(384.074688 58.070438)scale(0.1 -0.1)">
      <defs>
       <path id="DejaVuSans-73" d="M 2834 3397 
L 2834 2853 
Q 2591 2978 2328 3040 
Q 2066 3103 1784 3103 
Q 1356 3103 1142 2972 
Q 928 2841 928 2578 
Q 928 2378 1081 2264 
Q 1234 2150 1697 2047 
L 1894 2003 
Q 2506 1872 2764 1633 
Q 3022 1394 3022 966 
Q 3022 478 2636 193 
Q 2250 -91 1575 -91 
Q 1294 -91 989 -36 
Q 684 19 347 128 
L 347 722 
Q 666 556 975 473 
Q 1284 391 1588 391 
Q 1994 391 2212 530 
Q 2431 669 2431 922 
Q 2431 1156 2273 1281 
Q 2116 1406 1581 1522 
L 1381 1569 
Q 847 1681 609 1914 
Q 372 2147 372 2553 
Q 372 3047 722 3315 
Q 1072 3584 1716 3584 
Q 2034 3584 2315 3537 
Q 2597 3491 2834 3397 
z
" transform="scale(0.015625)"/>
       <path id="DejaVuSans-65" d="M 3597 1894 
L 3597 1613 
L 953 1613 
Q 991 1019 1311 708 
Q 1631 397 2203 397 
Q 2534 397 2845 478 
Q 3156 559 3463 722 
L 3463 178 
Q 3153 47 2828 -22 
Q 2503 -91 2169 -91 
Q 1331 -91 842 396 
Q 353 884 353 1716 
Q 353 2575 817 3079 
Q 1281 3584 2069 3584 
Q 2775 3584 3186 3129 
Q 3597 2675 3597 1894 
z
M 3022 2063 
Q 3016 2534 2758 2815 
Q 2500 3097 2075 3097 
Q 1594 3097 1305 2825 
Q 1016 2553 972 2059 
L 3022 2063 
z
" transform="scale(0.015625)"/>
       <path id="DejaVuSans-74" d="M 1172 4494 
L 1172 3500 
L 2356 3500 
L 2356 3053 
L 1172 3053 
L 1172 1153 
Q 1172 725 1289 603 
Q 1406 481 1766 481 
L 2356 481 
L 2356 0 
L 1766 0 
Q 1100 0 847 248 
Q 594 497 594 1153 
L 594 3053 
L 172 3053 
L 172 3500 
L 594 3500 
L 594 4494 
L 1172 4494 
z
" transform="scale(0.015625)"/>
      </defs>
      <use xlink:href="#DejaVuSans-73"/>
      <use xlink:href="#DejaVuSans-65" x="52.099609"/>
      <use xlink:href="#DejaVuSans-74" x="113.623047"/>
      <use xlink:href="#DejaVuSans-31" x="152.832031"/>
     </g>
    </g>
   </g>
  </g>
 </g>
 <defs>
  <clipPath id="pe8a2da30be">
   <rect x="57.6" y="41.472" width="357.12" height="266.112"/>
  </clipPath>
 </defs>
</svg>
