<?xml version="1.0" encoding="utf-8" standalone="no"?>
<!DOCTYPE svg PUBLIC "-//W3C//DTD SVG 1.1//EN"
  "http://www.w3.org/Graphics/SVG/1.1/DTD/svg11.dtd">
<svg xmlns:xlink="http://www.w3.org/1999/xlink" width="460.8pt" height="345.6pt" viewBox="0 0 460.8 345.6" xmlns="http://www.w3.org/2000/svg" version="1.1">
 <metadata>
  <rdf:RDF xmlns:dc="http://purl.org/dc/elements/1.1/" xmlns:cc="http://creativecommons.org/ns#" xmlns:rdf="http://www.w3.org/1999/02/22-rdf-syntax-ns#">
   <cc:Work>
    <dc:type rdf:resource="http://purl.org/dc/dcmitype/StillImage"/>
    <dc:date>2022-08-11T20:38:51.543380</dc:date>
    <dc:format>image/svg+xml</dc:format>
    <dc:creator>
     <cc:Agent>
      <dc:title>Matplotlib v3.5.2, https://matplotlib.org/</dc:title>
     </cc:Agent>
    </dc:creator>
   </cc:Work>
  </rdf:RDF>
 </metadata>
 <defs>
  <style type="text/css">*{stroke-linejoin: round; stroke-linecap: butt}</style>
 </defs>
 <g id="figure_1">
  <g id="patch_1">
   <path d="M 0 345.6 
L 460.8 345.6 
L 460.8 0 
L 0 0 
z
" style="fill: #ffffff"/>
  </g>
  <g id="axes_1">
   <g id="patch_2">
    <path d="M 57.6 307.584 
L 414.72 307.584 
L 414.72 41.472 
L 57.6 41.472 
z
" style="fill: #ffffff"/>
   </g>
   <g id="matplotlib.axis_1">
    <g id="xtick_1">
     <g id="line2d_1">
      <defs>
       <path id="m951b9eb14c" d="M 0 0 
L 0 3.5 
" style="stroke: #000000; stroke-width: 0.8"/>
      </defs>
      <g>
       <use xlink:href="#m951b9eb14c" x="73.832727" y="307.584" style="stroke: #000000; stroke-width: 0.8"/>
      </g>
     </g>
     <g id="text_1">
      <!-- 0 -->
      <g transform="translate(70.651477 322.182437)scale(0.1 -0.1)">
       <defs>
        <path id="DejaVuSans-30" d="M 2034 4250 
Q 1547 4250 1301 3770 
Q 1056 3291 1056 2328 
Q 1056 1369 1301 889 
Q 1547 409 2034 409 
Q 2525 409 2770 889 
Q 3016 1369 3016 2328 
Q 3016 3291 2770 3770 
Q 2525 4250 2034 4250 
z
M 2034 4750 
Q 2819 4750 3233 4129 
Q 3647 3509 3647 2328 
Q 3647 1150 3233 529 
Q 2819 -91 2034 -91 
Q 1250 -91 836 529 
Q 422 1150 422 2328 
Q 422 3509 836 4129 
Q 1250 4750 2034 4750 
z
" transform="scale(0.015625)"/>
       </defs>
       <use xlink:href="#DejaVuSans-30"/>
      </g>
     </g>
    </g>
    <g id="xtick_2">
     <g id="line2d_2">
      <g>
       <use xlink:href="#m951b9eb14c" x="124.71902" y="307.584" style="stroke: #000000; stroke-width: 0.8"/>
      </g>
     </g>
     <g id="text_2">
      <!-- 50 -->
      <g transform="translate(118.35652 322.182437)scale(0.1 -0.1)">
       <defs>
        <path id="DejaVuSans-35" d="M 691 4666 
L 3169 4666 
L 3169 4134 
L 1269 4134 
L 1269 2991 
Q 1406 3038 1543 3061 
Q 1681 3084 1819 3084 
Q 2600 3084 3056 2656 
Q 3513 2228 3513 1497 
Q 3513 744 3044 326 
Q 2575 -91 1722 -91 
Q 1428 -91 1123 -41 
Q 819 9 494 109 
L 494 744 
Q 775 591 1075 516 
Q 1375 441 1709 441 
Q 2250 441 2565 725 
Q 2881 1009 2881 1497 
Q 2881 1984 2565 2268 
Q 2250 2553 1709 2553 
Q 1456 2553 1204 2497 
Q 953 2441 691 2322 
L 691 4666 
z
" transform="scale(0.015625)"/>
       </defs>
       <use xlink:href="#DejaVuSans-35"/>
       <use xlink:href="#DejaVuSans-30" x="63.623047"/>
      </g>
     </g>
    </g>
    <g id="xtick_3">
     <g id="line2d_3">
      <g>
       <use xlink:href="#m951b9eb14c" x="175.605312" y="307.584" style="stroke: #000000; stroke-width: 0.8"/>
      </g>
     </g>
     <g id="text_3">
      <!-- 100 -->
      <g transform="translate(166.061562 322.182437)scale(0.1 -0.1)">
       <defs>
        <path id="DejaVuSans-31" d="M 794 531 
L 1825 531 
L 1825 4091 
L 703 3866 
L 703 4441 
L 1819 4666 
L 2450 4666 
L 2450 531 
L 3481 531 
L 3481 0 
L 794 0 
L 794 531 
z
" transform="scale(0.015625)"/>
       </defs>
       <use xlink:href="#DejaVuSans-31"/>
       <use xlink:href="#DejaVuSans-30" x="63.623047"/>
       <use xlink:href="#DejaVuSans-30" x="127.246094"/>
      </g>
     </g>
    </g>
    <g id="xtick_4">
     <g id="line2d_4">
      <g>
       <use xlink:href="#m951b9eb14c" x="226.491604" y="307.584" style="stroke: #000000; stroke-width: 0.8"/>
      </g>
     </g>
     <g id="text_4">
      <!-- 150 -->
      <g transform="translate(216.947854 322.182437)scale(0.1 -0.1)">
       <use xlink:href="#DejaVuSans-31"/>
       <use xlink:href="#DejaVuSans-35" x="63.623047"/>
       <use xlink:href="#DejaVuSans-30" x="127.246094"/>
      </g>
     </g>
    </g>
    <g id="xtick_5">
     <g id="line2d_5">
      <g>
       <use xlink:href="#m951b9eb14c" x="277.377897" y="307.584" style="stroke: #000000; stroke-width: 0.8"/>
      </g>
     </g>
     <g id="text_5">
      <!-- 200 -->
      <g transform="translate(267.834147 322.182437)scale(0.1 -0.1)">
       <defs>
        <path id="DejaVuSans-32" d="M 1228 531 
L 3431 531 
L 3431 0 
L 469 0 
L 469 531 
Q 828 903 1448 1529 
Q 2069 2156 2228 2338 
Q 2531 2678 2651 2914 
Q 2772 3150 2772 3378 
Q 2772 3750 2511 3984 
Q 2250 4219 1831 4219 
Q 1534 4219 1204 4116 
Q 875 4013 500 3803 
L 500 4441 
Q 881 4594 1212 4672 
Q 1544 4750 1819 4750 
Q 2544 4750 2975 4387 
Q 3406 4025 3406 3419 
Q 3406 3131 3298 2873 
Q 3191 2616 2906 2266 
Q 2828 2175 2409 1742 
Q 1991 1309 1228 531 
z
" transform="scale(0.015625)"/>
       </defs>
       <use xlink:href="#DejaVuSans-32"/>
       <use xlink:href="#DejaVuSans-30" x="63.623047"/>
       <use xlink:href="#DejaVuSans-30" x="127.246094"/>
      </g>
     </g>
    </g>
    <g id="xtick_6">
     <g id="line2d_6">
      <g>
       <use xlink:href="#m951b9eb14c" x="328.264189" y="307.584" style="stroke: #000000; stroke-width: 0.8"/>
      </g>
     </g>
     <g id="text_6">
      <!-- 250 -->
      <g transform="translate(318.720439 322.182437)scale(0.1 -0.1)">
       <use xlink:href="#DejaVuSans-32"/>
       <use xlink:href="#DejaVuSans-35" x="63.623047"/>
       <use xlink:href="#DejaVuSans-30" x="127.246094"/>
      </g>
     </g>
    </g>
    <g id="xtick_7">
     <g id="line2d_7">
      <g>
       <use xlink:href="#m951b9eb14c" x="379.150482" y="307.584" style="stroke: #000000; stroke-width: 0.8"/>
      </g>
     </g>
     <g id="text_7">
      <!-- 300 -->
      <g transform="translate(369.606732 322.182437)scale(0.1 -0.1)">
       <defs>
        <path id="DejaVuSans-33" d="M 2597 2516 
Q 3050 2419 3304 2112 
Q 3559 1806 3559 1356 
Q 3559 666 3084 287 
Q 2609 -91 1734 -91 
Q 1441 -91 1130 -33 
Q 819 25 488 141 
L 488 750 
Q 750 597 1062 519 
Q 1375 441 1716 441 
Q 2309 441 2620 675 
Q 2931 909 2931 1356 
Q 2931 1769 2642 2001 
Q 2353 2234 1838 2234 
L 1294 2234 
L 1294 2753 
L 1863 2753 
Q 2328 2753 2575 2939 
Q 2822 3125 2822 3475 
Q 2822 3834 2567 4026 
Q 2313 4219 1838 4219 
Q 1578 4219 1281 4162 
Q 984 4106 628 3988 
L 628 4550 
Q 988 4650 1302 4700 
Q 1616 4750 1894 4750 
Q 2613 4750 3031 4423 
Q 3450 4097 3450 3541 
Q 3450 3153 3228 2886 
Q 3006 2619 2597 2516 
z
" transform="scale(0.015625)"/>
       </defs>
       <use xlink:href="#DejaVuSans-33"/>
       <use xlink:href="#DejaVuSans-30" x="63.623047"/>
       <use xlink:href="#DejaVuSans-30" x="127.246094"/>
      </g>
     </g>
    </g>
   </g>
   <g id="matplotlib.axis_2">
    <g id="ytick_1">
     <g id="line2d_8">
      <defs>
       <path id="mda941b730b" d="M 0 0 
L -3.5 0 
" style="stroke: #000000; stroke-width: 0.8"/>
      </defs>
      <g>
       <use xlink:href="#mda941b730b" x="57.6" y="279.469545" style="stroke: #000000; stroke-width: 0.8"/>
      </g>
     </g>
     <g id="text_8">
      <!-- 15.0 -->
      <g transform="translate(28.334375 283.268764)scale(0.1 -0.1)">
       <defs>
        <path id="DejaVuSans-2e" d="M 684 794 
L 1344 794 
L 1344 0 
L 684 0 
L 684 794 
z
" transform="scale(0.015625)"/>
       </defs>
       <use xlink:href="#DejaVuSans-31"/>
       <use xlink:href="#DejaVuSans-35" x="63.623047"/>
       <use xlink:href="#DejaVuSans-2e" x="127.246094"/>
       <use xlink:href="#DejaVuSans-30" x="159.033203"/>
      </g>
     </g>
    </g>
    <g id="ytick_2">
     <g id="line2d_9">
      <g>
       <use xlink:href="#mda941b730b" x="57.6" y="245.098141" style="stroke: #000000; stroke-width: 0.8"/>
      </g>
     </g>
     <g id="text_9">
      <!-- 17.5 -->
      <g transform="translate(28.334375 248.89736)scale(0.1 -0.1)">
       <defs>
        <path id="DejaVuSans-37" d="M 525 4666 
L 3525 4666 
L 3525 4397 
L 1831 0 
L 1172 0 
L 2766 4134 
L 525 4134 
L 525 4666 
z
" transform="scale(0.015625)"/>
       </defs>
       <use xlink:href="#DejaVuSans-31"/>
       <use xlink:href="#DejaVuSans-37" x="63.623047"/>
       <use xlink:href="#DejaVuSans-2e" x="127.246094"/>
       <use xlink:href="#DejaVuSans-35" x="159.033203"/>
      </g>
     </g>
    </g>
    <g id="ytick_3">
     <g id="line2d_10">
      <g>
       <use xlink:href="#mda941b730b" x="57.6" y="210.726737" style="stroke: #000000; stroke-width: 0.8"/>
      </g>
     </g>
     <g id="text_10">
      <!-- 20.0 -->
      <g transform="translate(28.334375 214.525956)scale(0.1 -0.1)">
       <use xlink:href="#DejaVuSans-32"/>
       <use xlink:href="#DejaVuSans-30" x="63.623047"/>
       <use xlink:href="#DejaVuSans-2e" x="127.246094"/>
       <use xlink:href="#DejaVuSans-30" x="159.033203"/>
      </g>
     </g>
    </g>
    <g id="ytick_4">
     <g id="line2d_11">
      <g>
       <use xlink:href="#mda941b730b" x="57.6" y="176.355333" style="stroke: #000000; stroke-width: 0.8"/>
      </g>
     </g>
     <g id="text_11">
      <!-- 22.5 -->
      <g transform="translate(28.334375 180.154552)scale(0.1 -0.1)">
       <use xlink:href="#DejaVuSans-32"/>
       <use xlink:href="#DejaVuSans-32" x="63.623047"/>
       <use xlink:href="#DejaVuSans-2e" x="127.246094"/>
       <use xlink:href="#DejaVuSans-35" x="159.033203"/>
      </g>
     </g>
    </g>
    <g id="ytick_5">
     <g id="line2d_12">
      <g>
       <use xlink:href="#mda941b730b" x="57.6" y="141.983929" style="stroke: #000000; stroke-width: 0.8"/>
      </g>
     </g>
     <g id="text_12">
      <!-- 25.0 -->
      <g transform="translate(28.334375 145.783148)scale(0.1 -0.1)">
       <use xlink:href="#DejaVuSans-32"/>
       <use xlink:href="#DejaVuSans-35" x="63.623047"/>
       <use xlink:href="#DejaVuSans-2e" x="127.246094"/>
       <use xlink:href="#DejaVuSans-30" x="159.033203"/>
      </g>
     </g>
    </g>
    <g id="ytick_6">
     <g id="line2d_13">
      <g>
       <use xlink:href="#mda941b730b" x="57.6" y="107.612525" style="stroke: #000000; stroke-width: 0.8"/>
      </g>
     </g>
     <g id="text_13">
      <!-- 27.5 -->
      <g transform="translate(28.334375 111.411744)scale(0.1 -0.1)">
       <use xlink:href="#DejaVuSans-32"/>
       <use xlink:href="#DejaVuSans-37" x="63.623047"/>
       <use xlink:href="#DejaVuSans-2e" x="127.246094"/>
       <use xlink:href="#DejaVuSans-35" x="159.033203"/>
      </g>
     </g>
    </g>
    <g id="ytick_7">
     <g id="line2d_14">
      <g>
       <use xlink:href="#mda941b730b" x="57.6" y="73.241121" style="stroke: #000000; stroke-width: 0.8"/>
      </g>
     </g>
     <g id="text_14">
      <!-- 30.0 -->
      <g transform="translate(28.334375 77.04034)scale(0.1 -0.1)">
       <use xlink:href="#DejaVuSans-33"/>
       <use xlink:href="#DejaVuSans-30" x="63.623047"/>
       <use xlink:href="#DejaVuSans-2e" x="127.246094"/>
       <use xlink:href="#DejaVuSans-30" x="159.033203"/>
      </g>
     </g>
    </g>
   </g>
   <g id="line2d_15">
    <path d="M 73.832727 272.002119 
L 74.850453 281.388041 
L 75.868179 279.578221 
L 76.885905 282.899343 
L 77.903631 285.276147 
L 78.921357 287.091086 
L 79.939082 288.242134 
L 80.956808 287.632254 
L 81.974534 285.701159 
L 82.99226 284.966557 
L 84.009986 287.045881 
L 85.027712 285.601099 
L 86.045437 287.336701 
L 87.063163 290.558413 
L 88.080889 288.600802 
L 89.098615 291.716696 
L 90.116341 292.951503 
L 92.151793 294.395786 
L 93.169518 295.350104 
L 94.187244 291.586593 
L 95.20497 293.502069 
L 96.222696 290.930073 
L 97.240422 291.970477 
L 98.258148 292.195542 
L 99.275873 290.543777 
L 100.293599 289.845511 
L 101.311325 291.592102 
L 102.329051 293.865032 
L 103.346777 294.811769 
L 104.364503 291.168889 
L 105.382229 292.121712 
L 106.399954 290.056559 
L 107.41768 289.194324 
L 108.435406 290.891599 
L 109.453132 292.074228 
L 110.470858 290.722148 
L 111.488584 293.863205 
L 112.506309 295.321357 
L 113.524035 293.653822 
L 114.541761 295.466244 
L 115.559487 293.819456 
L 116.577213 293.159252 
L 117.594939 290.491803 
L 118.612665 291.788627 
L 119.63039 289.853969 
L 120.648116 288.692763 
L 121.665842 292.524651 
L 122.683568 292.101637 
L 123.701294 293.874899 
L 124.71902 290.955433 
L 125.736746 291.681133 
L 126.754471 294.083908 
L 127.772197 292.874864 
L 128.789923 294.567822 
L 129.807649 295.488 
L 130.825375 291.837346 
L 131.843101 290.360649 
L 132.860826 291.755682 
L 133.878552 293.81108 
L 134.896278 291.161864 
L 135.914004 291.751423 
L 136.93173 293.65077 
L 137.949456 293.091483 
L 138.967182 246.719878 
L 139.984907 253.493569 
L 141.002633 255.073009 
L 142.020359 253.843133 
L 143.038085 255.943524 
L 144.055811 255.761238 
L 145.073537 254.182506 
L 146.091262 255.619137 
L 147.108988 258.470304 
L 149.14444 260.969422 
L 150.162166 259.85014 
L 151.179892 259.189104 
L 152.197618 257.552346 
L 153.215343 261.20973 
L 154.233069 263.160891 
L 155.250795 259.795365 
L 156.268521 258.137999 
L 157.286247 257.03139 
L 158.303973 256.762426 
L 159.321698 261.222733 
L 160.339424 262.925992 
L 161.35715 263.665513 
L 162.374876 259.95186 
L 163.392602 260.556434 
L 164.410328 261.307797 
L 165.428054 259.424603 
L 166.445779 260.820508 
L 167.463505 263.679478 
L 168.481231 263.072812 
L 169.498957 262.130501 
L 170.516683 259.398564 
L 171.534409 262.132071 
L 172.552135 264.130998 
L 173.56986 265.355242 
L 174.587586 261.208024 
L 175.605312 263.428704 
L 176.623038 262.512513 
L 177.640764 262.405296 
L 178.65849 263.823338 
L 179.676215 262.944108 
L 180.693941 264.756058 
L 181.711667 265.664007 
L 182.729393 263.733747 
L 183.747119 260.600442 
L 186.800296 261.921557 
L 187.818022 259.345006 
L 188.835748 262.309367 
L 189.853474 262.10103 
L 190.8712 264.176088 
L 191.888926 260.749797 
L 192.906651 263.42023 
L 193.924377 264.117188 
L 194.942103 262.201703 
L 195.959829 261.206478 
L 196.977555 258.613035 
L 197.995281 257.290022 
L 199.013007 260.703664 
L 200.030732 260.980595 
L 201.048458 258.592266 
L 202.066184 257.211995 
L 203.08391 259.219827 
L 204.101636 260.279586 
L 205.119362 251.457287 
L 206.137087 245.266523 
L 207.154813 241.935516 
L 208.172539 243.839321 
L 209.190265 242.42496 
L 210.207991 242.896242 
L 211.225717 242.318827 
L 212.243443 241.602652 
L 213.261168 238.577265 
L 214.278894 238.896935 
L 215.29662 234.305177 
L 216.314346 231.589986 
L 217.332072 232.625924 
L 218.349798 230.991167 
L 219.367524 234.101533 
L 220.385249 235.475718 
L 221.402975 233.938617 
L 222.420701 232.683126 
L 223.438427 233.521544 
L 224.456153 234.004939 
L 225.473879 231.803139 
L 226.491604 229.119371 
L 227.50933 231.994912 
L 228.527056 232.646015 
L 229.544782 233.031105 
L 231.580234 230.113423 
L 232.59796 229.149178 
L 233.615685 227.180448 
L 235.651137 224.892955 
L 236.668863 224.164946 
L 237.686589 227.834701 
L 238.704315 230.276883 
L 239.72204 228.950906 
L 240.739766 228.439704 
L 241.757492 228.582695 
L 242.775218 228.387114 
L 243.792944 227.824689 
L 244.81067 229.452458 
L 245.828396 226.758509 
L 246.846121 224.927171 
L 247.863847 226.523111 
L 248.881573 227.123646 
L 249.899299 225.24392 
L 250.917025 228.406578 
L 251.934751 227.875778 
L 252.952476 225.208103 
L 253.970202 223.744487 
L 254.987928 227.763828 
L 256.005654 229.924688 
L 257.02338 228.971392 
L 258.041106 227.833447 
L 259.058832 225.65807 
L 260.076557 228.511249 
L 261.094283 225.669393 
L 262.112009 223.903393 
L 263.129735 223.542167 
L 264.147461 222.843231 
L 265.165187 224.66616 
L 266.182913 223.904255 
L 267.200638 227.752419 
L 268.218364 227.603862 
L 269.23609 204.735734 
L 270.253816 206.811478 
L 271.271542 208.460044 
L 272.289268 207.626621 
L 273.306993 209.624041 
L 274.324719 210.86138 
L 275.342445 213.151733 
L 277.377897 216.268251 
L 278.395623 216.473513 
L 279.413349 215.167338 
L 280.431074 214.839275 
L 281.4488 212.400955 
L 282.466526 215.652625 
L 283.484252 215.359873 
L 284.501978 215.315466 
L 285.519704 213.282375 
L 286.537429 215.779479 
L 287.555155 213.388011 
L 288.572881 216.220174 
L 289.590607 217.553708 
L 290.608333 214.14358 
L 291.626059 212.131186 
L 292.643785 211.701355 
L 293.66151 210.993155 
L 294.679236 212.501095 
L 295.696962 211.161855 
L 296.714688 214.620572 
L 297.732414 214.27156 
L 298.75014 216.192057 
L 299.767865 213.363665 
L 300.785591 211.747456 
L 301.803317 212.884503 
L 302.821043 212.033971 
L 303.838769 213.187166 
L 304.856495 215.962082 
L 306.891946 214.752197 
L 308.927398 217.872409 
L 309.945124 216.408513 
L 310.96285 217.669196 
L 311.980576 217.933921 
L 312.998302 215.884946 
L 314.016027 212.770481 
L 315.033753 215.987359 
L 316.051479 213.287144 
L 317.069205 213.925154 
L 318.086931 213.855374 
L 319.104657 216.440208 
L 320.122382 213.434112 
L 321.140108 211.864347 
L 322.157834 210.698937 
L 323.17556 212.032258 
L 324.193286 215.036064 
L 325.211012 216.277707 
L 326.228738 212.688968 
L 327.246463 211.578433 
L 328.264189 212.91735 
L 329.281915 213.811985 
L 330.299641 213.657539 
L 331.317367 213.705466 
L 332.335093 212.074712 
L 333.352818 215.481116 
L 334.370544 54.844628 
L 335.38827 53.568 
L 336.405996 57.63009 
L 337.423722 59.348893 
L 338.441448 55.287394 
L 339.459174 55.996692 
L 340.476899 59.079135 
L 341.494625 55.717645 
L 342.512351 61.259867 
L 343.530077 63.159873 
L 344.547803 65.495452 
L 345.565529 63.484071 
L 346.583254 64.758992 
L 347.60098 63.803966 
L 348.618706 63.778965 
L 349.636432 61.806625 
L 350.654158 64.390559 
L 351.671884 61.800406 
L 352.68961 62.657199 
L 353.707335 65.109656 
L 354.725061 64.075842 
L 355.742787 65.417419 
L 356.760513 61.381541 
L 357.778239 66.009804 
L 358.795965 67.805383 
L 359.813691 68.901028 
L 360.831416 66.545395 
L 361.849142 64.740178 
L 362.866868 63.214321 
L 364.90232 60.867065 
L 365.920046 61.898553 
L 366.937771 62.464096 
L 367.955497 61.387499 
L 368.973223 65.084598 
L 369.990949 65.164126 
L 371.008675 62.983774 
L 372.026401 65.770102 
L 373.044127 62.991641 
L 374.061852 63.354355 
L 375.079578 65.361455 
L 376.097304 64.917718 
L 377.11503 65.808858 
L 378.132756 61.460833 
L 379.150482 65.854001 
L 380.168207 62.958762 
L 381.185933 60.496093 
L 382.203659 62.445925 
L 383.221385 63.090676 
L 384.239111 64.725326 
L 385.256837 66.762564 
L 386.274563 63.688787 
L 387.292288 61.769354 
L 388.310014 60.401666 
L 389.32774 63.324071 
L 390.345466 61.615378 
L 391.363192 61.290245 
L 392.380918 60.288995 
L 393.398643 59.869139 
L 394.416369 56.366734 
L 395.434095 58.780276 
L 396.451821 57.56182 
L 397.469547 59.046855 
L 398.487273 62.19501 
L 398.487273 62.19501 
" clip-path="url(#pc452fd4c1e)" style="fill: none; stroke: #1f77b4; stroke-width: 1.5; stroke-linecap: square"/>
   </g>
   <g id="patch_3">
    <path d="M 57.6 307.584 
L 57.6 41.472 
" style="fill: none; stroke: #000000; stroke-width: 0.8; stroke-linejoin: miter; stroke-linecap: square"/>
   </g>
   <g id="patch_4">
    <path d="M 414.72 307.584 
L 414.72 41.472 
" style="fill: none; stroke: #000000; stroke-width: 0.8; stroke-linejoin: miter; stroke-linecap: square"/>
   </g>
   <g id="patch_5">
    <path d="M 57.6 307.584 
L 414.72 307.584 
" style="fill: none; stroke: #000000; stroke-width: 0.8; stroke-linejoin: miter; stroke-linecap: square"/>
   </g>
   <g id="patch_6">
    <path d="M 57.6 41.472 
L 414.72 41.472 
" style="fill: none; stroke: #000000; stroke-width: 0.8; stroke-linejoin: miter; stroke-linecap: square"/>
   </g>
   <g id="legend_1">
    <g id="patch_7">
     <path d="M 64.6 64.150125 
L 118.245312 64.150125 
Q 120.245312 64.150125 120.245312 62.150125 
L 120.245312 48.472 
Q 120.245312 46.472 118.245312 46.472 
L 64.6 46.472 
Q 62.6 46.472 62.6 48.472 
L 62.6 62.150125 
Q 62.6 64.150125 64.6 64.150125 
z
" style="fill: #ffffff; opacity: 0.8; stroke: #cccccc; stroke-linejoin: miter"/>
    </g>
    <g id="line2d_16">
     <path d="M 66.6 54.570438 
L 76.6 54.570438 
L 86.6 54.570438 
" style="fill: none; stroke: #1f77b4; stroke-width: 1.5; stroke-linecap: square"/>
    </g>
    <g id="text_15">
     <!-- set1 -->
     <g transform="translate(94.6 58.070438)scale(0.1 -0.1)">
      <defs>
       <path id="DejaVuSans-73" d="M 2834 3397 
L 2834 2853 
Q 2591 2978 2328 3040 
Q 2066 3103 1784 3103 
Q 1356 3103 1142 2972 
Q 928 2841 928 2578 
Q 928 2378 1081 2264 
Q 1234 2150 1697 2047 
L 1894 2003 
Q 2506 1872 2764 1633 
Q 3022 1394 3022 966 
Q 3022 478 2636 193 
Q 2250 -91 1575 -91 
Q 1294 -91 989 -36 
Q 684 19 347 128 
L 347 722 
Q 666 556 975 473 
Q 1284 391 1588 391 
Q 1994 391 2212 530 
Q 2431 669 2431 922 
Q 2431 1156 2273 1281 
Q 2116 1406 1581 1522 
L 1381 1569 
Q 847 1681 609 1914 
Q 372 2147 372 2553 
Q 372 3047 722 3315 
Q 1072 3584 1716 3584 
Q 2034 3584 2315 3537 
Q 2597 3491 2834 3397 
z
" transform="scale(0.015625)"/>
       <path id="DejaVuSans-65" d="M 3597 1894 
L 3597 1613 
L 953 1613 
Q 991 1019 1311 708 
Q 1631 397 2203 397 
Q 2534 397 2845 478 
Q 3156 559 3463 722 
L 3463 178 
Q 3153 47 2828 -22 
Q 2503 -91 2169 -91 
Q 1331 -91 842 396 
Q 353 884 353 1716 
Q 353 2575 817 3079 
Q 1281 3584 2069 3584 
Q 2775 3584 3186 3129 
Q 3597 2675 3597 1894 
z
M 3022 2063 
Q 3016 2534 2758 2815 
Q 2500 3097 2075 3097 
Q 1594 3097 1305 2825 
Q 1016 2553 972 2059 
L 3022 2063 
z
" transform="scale(0.015625)"/>
       <path id="DejaVuSans-74" d="M 1172 4494 
L 1172 3500 
L 2356 3500 
L 2356 3053 
L 1172 3053 
L 1172 1153 
Q 1172 725 1289 603 
Q 1406 481 1766 481 
L 2356 481 
L 2356 0 
L 1766 0 
Q 1100 0 847 248 
Q 594 497 594 1153 
L 594 3053 
L 172 3053 
L 172 3500 
L 594 3500 
L 594 4494 
L 1172 4494 
z
" transform="scale(0.015625)"/>
      </defs>
      <use xlink:href="#DejaVuSans-73"/>
      <use xlink:href="#DejaVuSans-65" x="52.099609"/>
      <use xlink:href="#DejaVuSans-74" x="113.623047"/>
      <use xlink:href="#DejaVuSans-31" x="152.832031"/>
     </g>
    </g>
   </g>
  </g>
 </g>
 <defs>
  <clipPath id="pc452fd4c1e">
   <rect x="57.6" y="41.472" width="357.12" height="266.112"/>
  </clipPath>
 </defs>
</svg>
