<?xml version="1.0" encoding="utf-8" standalone="no"?>
<!DOCTYPE svg PUBLIC "-//W3C//DTD SVG 1.1//EN"
  "http://www.w3.org/Graphics/SVG/1.1/DTD/svg11.dtd">
<svg xmlns:xlink="http://www.w3.org/1999/xlink" width="460.8pt" height="345.6pt" viewBox="0 0 460.8 345.6" xmlns="http://www.w3.org/2000/svg" version="1.1">
 <metadata>
  <rdf:RDF xmlns:dc="http://purl.org/dc/elements/1.1/" xmlns:cc="http://creativecommons.org/ns#" xmlns:rdf="http://www.w3.org/1999/02/22-rdf-syntax-ns#">
   <cc:Work>
    <dc:type rdf:resource="http://purl.org/dc/dcmitype/StillImage"/>
    <dc:date>2022-08-11T20:38:51.678942</dc:date>
    <dc:format>image/svg+xml</dc:format>
    <dc:creator>
     <cc:Agent>
      <dc:title>Matplotlib v3.5.2, https://matplotlib.org/</dc:title>
     </cc:Agent>
    </dc:creator>
   </cc:Work>
  </rdf:RDF>
 </metadata>
 <defs>
  <style type="text/css">*{stroke-linejoin: round; stroke-linecap: butt}</style>
 </defs>
 <g id="figure_1">
  <g id="patch_1">
   <path d="M 0 345.6 
L 460.8 345.6 
L 460.8 0 
L 0 0 
z
" style="fill: #ffffff"/>
  </g>
  <g id="axes_1">
   <g id="patch_2">
    <path d="M 57.6 307.584 
L 414.72 307.584 
L 414.72 41.472 
L 57.6 41.472 
z
" style="fill: #ffffff"/>
   </g>
   <g id="matplotlib.axis_1">
    <g id="xtick_1">
     <g id="line2d_1">
      <defs>
       <path id="m8282b147df" d="M 0 0 
L 0 3.5 
" style="stroke: #000000; stroke-width: 0.8"/>
      </defs>
      <g>
       <use xlink:href="#m8282b147df" x="73.832727" y="307.584" style="stroke: #000000; stroke-width: 0.8"/>
      </g>
     </g>
     <g id="text_1">
      <!-- 0 -->
      <g transform="translate(70.651477 322.182437)scale(0.1 -0.1)">
       <defs>
        <path id="DejaVuSans-30" d="M 2034 4250 
Q 1547 4250 1301 3770 
Q 1056 3291 1056 2328 
Q 1056 1369 1301 889 
Q 1547 409 2034 409 
Q 2525 409 2770 889 
Q 3016 1369 3016 2328 
Q 3016 3291 2770 3770 
Q 2525 4250 2034 4250 
z
M 2034 4750 
Q 2819 4750 3233 4129 
Q 3647 3509 3647 2328 
Q 3647 1150 3233 529 
Q 2819 -91 2034 -91 
Q 1250 -91 836 529 
Q 422 1150 422 2328 
Q 422 3509 836 4129 
Q 1250 4750 2034 4750 
z
" transform="scale(0.015625)"/>
       </defs>
       <use xlink:href="#DejaVuSans-30"/>
      </g>
     </g>
    </g>
    <g id="xtick_2">
     <g id="line2d_2">
      <g>
       <use xlink:href="#m8282b147df" x="124.71902" y="307.584" style="stroke: #000000; stroke-width: 0.8"/>
      </g>
     </g>
     <g id="text_2">
      <!-- 50 -->
      <g transform="translate(118.35652 322.182437)scale(0.1 -0.1)">
       <defs>
        <path id="DejaVuSans-35" d="M 691 4666 
L 3169 4666 
L 3169 4134 
L 1269 4134 
L 1269 2991 
Q 1406 3038 1543 3061 
Q 1681 3084 1819 3084 
Q 2600 3084 3056 2656 
Q 3513 2228 3513 1497 
Q 3513 744 3044 326 
Q 2575 -91 1722 -91 
Q 1428 -91 1123 -41 
Q 819 9 494 109 
L 494 744 
Q 775 591 1075 516 
Q 1375 441 1709 441 
Q 2250 441 2565 725 
Q 2881 1009 2881 1497 
Q 2881 1984 2565 2268 
Q 2250 2553 1709 2553 
Q 1456 2553 1204 2497 
Q 953 2441 691 2322 
L 691 4666 
z
" transform="scale(0.015625)"/>
       </defs>
       <use xlink:href="#DejaVuSans-35"/>
       <use xlink:href="#DejaVuSans-30" x="63.623047"/>
      </g>
     </g>
    </g>
    <g id="xtick_3">
     <g id="line2d_3">
      <g>
       <use xlink:href="#m8282b147df" x="175.605312" y="307.584" style="stroke: #000000; stroke-width: 0.8"/>
      </g>
     </g>
     <g id="text_3">
      <!-- 100 -->
      <g transform="translate(166.061562 322.182437)scale(0.1 -0.1)">
       <defs>
        <path id="DejaVuSans-31" d="M 794 531 
L 1825 531 
L 1825 4091 
L 703 3866 
L 703 4441 
L 1819 4666 
L 2450 4666 
L 2450 531 
L 3481 531 
L 3481 0 
L 794 0 
L 794 531 
z
" transform="scale(0.015625)"/>
       </defs>
       <use xlink:href="#DejaVuSans-31"/>
       <use xlink:href="#DejaVuSans-30" x="63.623047"/>
       <use xlink:href="#DejaVuSans-30" x="127.246094"/>
      </g>
     </g>
    </g>
    <g id="xtick_4">
     <g id="line2d_4">
      <g>
       <use xlink:href="#m8282b147df" x="226.491604" y="307.584" style="stroke: #000000; stroke-width: 0.8"/>
      </g>
     </g>
     <g id="text_4">
      <!-- 150 -->
      <g transform="translate(216.947854 322.182437)scale(0.1 -0.1)">
       <use xlink:href="#DejaVuSans-31"/>
       <use xlink:href="#DejaVuSans-35" x="63.623047"/>
       <use xlink:href="#DejaVuSans-30" x="127.246094"/>
      </g>
     </g>
    </g>
    <g id="xtick_5">
     <g id="line2d_5">
      <g>
       <use xlink:href="#m8282b147df" x="277.377897" y="307.584" style="stroke: #000000; stroke-width: 0.8"/>
      </g>
     </g>
     <g id="text_5">
      <!-- 200 -->
      <g transform="translate(267.834147 322.182437)scale(0.1 -0.1)">
       <defs>
        <path id="DejaVuSans-32" d="M 1228 531 
L 3431 531 
L 3431 0 
L 469 0 
L 469 531 
Q 828 903 1448 1529 
Q 2069 2156 2228 2338 
Q 2531 2678 2651 2914 
Q 2772 3150 2772 3378 
Q 2772 3750 2511 3984 
Q 2250 4219 1831 4219 
Q 1534 4219 1204 4116 
Q 875 4013 500 3803 
L 500 4441 
Q 881 4594 1212 4672 
Q 1544 4750 1819 4750 
Q 2544 4750 2975 4387 
Q 3406 4025 3406 3419 
Q 3406 3131 3298 2873 
Q 3191 2616 2906 2266 
Q 2828 2175 2409 1742 
Q 1991 1309 1228 531 
z
" transform="scale(0.015625)"/>
       </defs>
       <use xlink:href="#DejaVuSans-32"/>
       <use xlink:href="#DejaVuSans-30" x="63.623047"/>
       <use xlink:href="#DejaVuSans-30" x="127.246094"/>
      </g>
     </g>
    </g>
    <g id="xtick_6">
     <g id="line2d_6">
      <g>
       <use xlink:href="#m8282b147df" x="328.264189" y="307.584" style="stroke: #000000; stroke-width: 0.8"/>
      </g>
     </g>
     <g id="text_6">
      <!-- 250 -->
      <g transform="translate(318.720439 322.182437)scale(0.1 -0.1)">
       <use xlink:href="#DejaVuSans-32"/>
       <use xlink:href="#DejaVuSans-35" x="63.623047"/>
       <use xlink:href="#DejaVuSans-30" x="127.246094"/>
      </g>
     </g>
    </g>
    <g id="xtick_7">
     <g id="line2d_7">
      <g>
       <use xlink:href="#m8282b147df" x="379.150482" y="307.584" style="stroke: #000000; stroke-width: 0.8"/>
      </g>
     </g>
     <g id="text_7">
      <!-- 300 -->
      <g transform="translate(369.606732 322.182437)scale(0.1 -0.1)">
       <defs>
        <path id="DejaVuSans-33" d="M 2597 2516 
Q 3050 2419 3304 2112 
Q 3559 1806 3559 1356 
Q 3559 666 3084 287 
Q 2609 -91 1734 -91 
Q 1441 -91 1130 -33 
Q 819 25 488 141 
L 488 750 
Q 750 597 1062 519 
Q 1375 441 1716 441 
Q 2309 441 2620 675 
Q 2931 909 2931 1356 
Q 2931 1769 2642 2001 
Q 2353 2234 1838 2234 
L 1294 2234 
L 1294 2753 
L 1863 2753 
Q 2328 2753 2575 2939 
Q 2822 3125 2822 3475 
Q 2822 3834 2567 4026 
Q 2313 4219 1838 4219 
Q 1578 4219 1281 4162 
Q 984 4106 628 3988 
L 628 4550 
Q 988 4650 1302 4700 
Q 1616 4750 1894 4750 
Q 2613 4750 3031 4423 
Q 3450 4097 3450 3541 
Q 3450 3153 3228 2886 
Q 3006 2619 2597 2516 
z
" transform="scale(0.015625)"/>
       </defs>
       <use xlink:href="#DejaVuSans-33"/>
       <use xlink:href="#DejaVuSans-30" x="63.623047"/>
       <use xlink:href="#DejaVuSans-30" x="127.246094"/>
      </g>
     </g>
    </g>
   </g>
   <g id="matplotlib.axis_2">
    <g id="ytick_1">
     <g id="line2d_8">
      <defs>
       <path id="m85fdf2770f" d="M 0 0 
L -3.5 0 
" style="stroke: #000000; stroke-width: 0.8"/>
      </defs>
      <g>
       <use xlink:href="#m85fdf2770f" x="57.6" y="293.216102" style="stroke: #000000; stroke-width: 0.8"/>
      </g>
     </g>
     <g id="text_8">
      <!-- 12 -->
      <g transform="translate(37.875 297.015321)scale(0.1 -0.1)">
       <use xlink:href="#DejaVuSans-31"/>
       <use xlink:href="#DejaVuSans-32" x="63.623047"/>
      </g>
     </g>
    </g>
    <g id="ytick_2">
     <g id="line2d_9">
      <g>
       <use xlink:href="#m85fdf2770f" x="57.6" y="263.521979" style="stroke: #000000; stroke-width: 0.8"/>
      </g>
     </g>
     <g id="text_9">
      <!-- 14 -->
      <g transform="translate(37.875 267.321198)scale(0.1 -0.1)">
       <defs>
        <path id="DejaVuSans-34" d="M 2419 4116 
L 825 1625 
L 2419 1625 
L 2419 4116 
z
M 2253 4666 
L 3047 4666 
L 3047 1625 
L 3713 1625 
L 3713 1100 
L 3047 1100 
L 3047 0 
L 2419 0 
L 2419 1100 
L 313 1100 
L 313 1709 
L 2253 4666 
z
" transform="scale(0.015625)"/>
       </defs>
       <use xlink:href="#DejaVuSans-31"/>
       <use xlink:href="#DejaVuSans-34" x="63.623047"/>
      </g>
     </g>
    </g>
    <g id="ytick_3">
     <g id="line2d_10">
      <g>
       <use xlink:href="#m85fdf2770f" x="57.6" y="233.827856" style="stroke: #000000; stroke-width: 0.8"/>
      </g>
     </g>
     <g id="text_10">
      <!-- 16 -->
      <g transform="translate(37.875 237.627075)scale(0.1 -0.1)">
       <defs>
        <path id="DejaVuSans-36" d="M 2113 2584 
Q 1688 2584 1439 2293 
Q 1191 2003 1191 1497 
Q 1191 994 1439 701 
Q 1688 409 2113 409 
Q 2538 409 2786 701 
Q 3034 994 3034 1497 
Q 3034 2003 2786 2293 
Q 2538 2584 2113 2584 
z
M 3366 4563 
L 3366 3988 
Q 3128 4100 2886 4159 
Q 2644 4219 2406 4219 
Q 1781 4219 1451 3797 
Q 1122 3375 1075 2522 
Q 1259 2794 1537 2939 
Q 1816 3084 2150 3084 
Q 2853 3084 3261 2657 
Q 3669 2231 3669 1497 
Q 3669 778 3244 343 
Q 2819 -91 2113 -91 
Q 1303 -91 875 529 
Q 447 1150 447 2328 
Q 447 3434 972 4092 
Q 1497 4750 2381 4750 
Q 2619 4750 2861 4703 
Q 3103 4656 3366 4563 
z
" transform="scale(0.015625)"/>
       </defs>
       <use xlink:href="#DejaVuSans-31"/>
       <use xlink:href="#DejaVuSans-36" x="63.623047"/>
      </g>
     </g>
    </g>
    <g id="ytick_4">
     <g id="line2d_11">
      <g>
       <use xlink:href="#m85fdf2770f" x="57.6" y="204.133733" style="stroke: #000000; stroke-width: 0.8"/>
      </g>
     </g>
     <g id="text_11">
      <!-- 18 -->
      <g transform="translate(37.875 207.932951)scale(0.1 -0.1)">
       <defs>
        <path id="DejaVuSans-38" d="M 2034 2216 
Q 1584 2216 1326 1975 
Q 1069 1734 1069 1313 
Q 1069 891 1326 650 
Q 1584 409 2034 409 
Q 2484 409 2743 651 
Q 3003 894 3003 1313 
Q 3003 1734 2745 1975 
Q 2488 2216 2034 2216 
z
M 1403 2484 
Q 997 2584 770 2862 
Q 544 3141 544 3541 
Q 544 4100 942 4425 
Q 1341 4750 2034 4750 
Q 2731 4750 3128 4425 
Q 3525 4100 3525 3541 
Q 3525 3141 3298 2862 
Q 3072 2584 2669 2484 
Q 3125 2378 3379 2068 
Q 3634 1759 3634 1313 
Q 3634 634 3220 271 
Q 2806 -91 2034 -91 
Q 1263 -91 848 271 
Q 434 634 434 1313 
Q 434 1759 690 2068 
Q 947 2378 1403 2484 
z
M 1172 3481 
Q 1172 3119 1398 2916 
Q 1625 2713 2034 2713 
Q 2441 2713 2670 2916 
Q 2900 3119 2900 3481 
Q 2900 3844 2670 4047 
Q 2441 4250 2034 4250 
Q 1625 4250 1398 4047 
Q 1172 3844 1172 3481 
z
" transform="scale(0.015625)"/>
       </defs>
       <use xlink:href="#DejaVuSans-31"/>
       <use xlink:href="#DejaVuSans-38" x="63.623047"/>
      </g>
     </g>
    </g>
    <g id="ytick_5">
     <g id="line2d_12">
      <g>
       <use xlink:href="#m85fdf2770f" x="57.6" y="174.43961" style="stroke: #000000; stroke-width: 0.8"/>
      </g>
     </g>
     <g id="text_12">
      <!-- 20 -->
      <g transform="translate(37.875 178.238828)scale(0.1 -0.1)">
       <use xlink:href="#DejaVuSans-32"/>
       <use xlink:href="#DejaVuSans-30" x="63.623047"/>
      </g>
     </g>
    </g>
    <g id="ytick_6">
     <g id="line2d_13">
      <g>
       <use xlink:href="#m85fdf2770f" x="57.6" y="144.745486" style="stroke: #000000; stroke-width: 0.8"/>
      </g>
     </g>
     <g id="text_13">
      <!-- 22 -->
      <g transform="translate(37.875 148.544705)scale(0.1 -0.1)">
       <use xlink:href="#DejaVuSans-32"/>
       <use xlink:href="#DejaVuSans-32" x="63.623047"/>
      </g>
     </g>
    </g>
    <g id="ytick_7">
     <g id="line2d_14">
      <g>
       <use xlink:href="#m85fdf2770f" x="57.6" y="115.051363" style="stroke: #000000; stroke-width: 0.8"/>
      </g>
     </g>
     <g id="text_14">
      <!-- 24 -->
      <g transform="translate(37.875 118.850582)scale(0.1 -0.1)">
       <use xlink:href="#DejaVuSans-32"/>
       <use xlink:href="#DejaVuSans-34" x="63.623047"/>
      </g>
     </g>
    </g>
    <g id="ytick_8">
     <g id="line2d_15">
      <g>
       <use xlink:href="#m85fdf2770f" x="57.6" y="85.35724" style="stroke: #000000; stroke-width: 0.8"/>
      </g>
     </g>
     <g id="text_15">
      <!-- 26 -->
      <g transform="translate(37.875 89.156459)scale(0.1 -0.1)">
       <use xlink:href="#DejaVuSans-32"/>
       <use xlink:href="#DejaVuSans-36" x="63.623047"/>
      </g>
     </g>
    </g>
    <g id="ytick_9">
     <g id="line2d_16">
      <g>
       <use xlink:href="#m85fdf2770f" x="57.6" y="55.663117" style="stroke: #000000; stroke-width: 0.8"/>
      </g>
     </g>
     <g id="text_16">
      <!-- 28 -->
      <g transform="translate(37.875 59.462335)scale(0.1 -0.1)">
       <use xlink:href="#DejaVuSans-32"/>
       <use xlink:href="#DejaVuSans-38" x="63.623047"/>
      </g>
     </g>
    </g>
   </g>
   <g id="line2d_17">
    <path d="M 73.832727 212.958255 
L 74.850453 239.643966 
L 75.868179 246.117787 
L 76.885905 246.453193 
L 77.903631 248.196989 
L 78.921357 255.704375 
L 79.939082 256.460854 
L 80.956808 261.545457 
L 81.974534 264.387854 
L 82.99226 267.796175 
L 84.009986 270.561759 
L 85.027712 270.800876 
L 86.045437 276.678406 
L 87.063163 275.506332 
L 88.080889 280.15933 
L 89.098615 282.912821 
L 90.116341 280.381541 
L 91.134067 284.657027 
L 92.151793 282.307143 
L 93.169518 286.332206 
L 94.187244 283.890284 
L 95.20497 283.026479 
L 96.222696 285.118104 
L 97.240422 286.514379 
L 98.258148 289.939212 
L 99.275873 287.097485 
L 100.293599 285.903082 
L 101.311325 289.802694 
L 102.329051 287.184161 
L 103.346777 288.851521 
L 104.364503 287.293803 
L 105.382229 291.085509 
L 106.399954 292.83928 
L 107.41768 293.912192 
L 108.435406 289.918217 
L 109.453132 292.681538 
L 110.470858 291.51904 
L 111.488584 290.967965 
L 112.506309 293.127224 
L 113.524035 294.03811 
L 115.559487 295.082183 
L 116.577213 293.326794 
L 117.594939 292.357002 
L 118.612665 293.987463 
L 119.63039 290.121573 
L 120.648116 288.559933 
L 121.665842 287.961906 
L 122.683568 287.502351 
L 123.701294 291.878286 
L 124.71902 289.208218 
L 125.736746 287.931259 
L 126.754471 289.856085 
L 127.772197 292.82837 
L 128.789923 293.985819 
L 129.807649 294.821745 
L 130.825375 293.188893 
L 131.843101 292.573169 
L 132.860826 294.352354 
L 133.878552 295.042858 
L 134.896278 295.488 
L 135.914004 291.271486 
L 136.93173 289.213689 
L 137.949456 292.521925 
L 138.967182 240.25618 
L 139.984907 251.728298 
L 142.020359 251.076423 
L 144.055811 256.067067 
L 145.073537 255.63029 
L 146.091262 258.490271 
L 147.108988 260.921034 
L 148.126714 259.907918 
L 149.14444 260.26402 
L 150.162166 263.205436 
L 151.179892 266.942175 
L 152.197618 269.440372 
L 153.215343 271.138133 
L 154.233069 269.698198 
L 155.250795 269.458219 
L 156.268521 271.874649 
L 157.286247 270.675922 
L 158.303973 273.110269 
L 159.321698 274.307842 
L 160.339424 272.372244 
L 161.35715 269.87855 
L 162.374876 270.479038 
L 163.392602 271.349933 
L 164.410328 269.832395 
L 165.428054 273.250982 
L 166.445779 270.442833 
L 167.463505 271.697708 
L 168.481231 269.857382 
L 169.498957 271.119082 
L 170.516683 269.514185 
L 171.534409 270.970694 
L 172.552135 274.292189 
L 173.56986 273.497265 
L 174.587586 275.271827 
L 175.605312 273.93355 
L 176.623038 275.521754 
L 177.640764 275.937812 
L 178.65849 274.296164 
L 179.676215 271.474419 
L 180.693941 269.487599 
L 181.711667 271.306935 
L 182.729393 269.789032 
L 183.747119 273.026232 
L 184.764845 274.494883 
L 185.782571 272.997285 
L 186.800296 270.025914 
L 187.818022 273.726705 
L 188.835748 273.16773 
L 189.853474 275.373983 
L 190.8712 274.155779 
L 191.888926 273.546894 
L 192.906651 274.854565 
L 193.924377 271.514684 
L 194.942103 273.958279 
L 195.959829 273.357276 
L 196.977555 275.153339 
L 197.995281 273.694212 
L 199.013007 275.199485 
L 200.030732 273.864793 
L 201.048458 270.634346 
L 203.08391 268.245332 
L 204.101636 212.273357 
L 205.119362 212.147412 
L 207.154813 213.78943 
L 208.172539 211.527786 
L 209.190265 215.575507 
L 210.207991 215.780391 
L 211.225717 213.592346 
L 212.243443 217.135437 
L 213.261168 214.035735 
L 214.278894 214.741194 
L 215.29662 213.29468 
L 216.314346 213.15819 
L 217.332072 217.008526 
L 218.349798 215.071628 
L 219.367524 213.665516 
L 220.385249 215.749973 
L 221.402975 216.672762 
L 222.420701 219.311018 
L 223.438427 218.071362 
L 224.456153 217.760603 
L 225.473879 217.726134 
L 226.491604 220.333972 
L 227.50933 221.39591 
L 228.527056 217.407351 
L 229.544782 217.296155 
L 230.562508 217.465337 
L 231.580234 215.780651 
L 232.59796 216.548702 
L 234.633411 216.755853 
L 235.651137 219.721814 
L 236.668863 221.429785 
L 237.686589 219.74208 
L 238.704315 216.589449 
L 239.72204 214.625 
L 240.739766 216.445716 
L 241.757492 214.559624 
L 242.775218 213.404524 
L 243.792944 215.371027 
L 244.81067 214.56967 
L 245.828396 218.753076 
L 246.846121 220.84219 
L 247.863847 217.097299 
L 248.881573 219.952605 
L 249.899299 218.850321 
L 250.917025 220.061066 
L 251.934751 220.506384 
L 253.970202 218.048256 
L 254.987928 217.982976 
L 256.005654 215.53617 
L 257.02338 218.651798 
L 258.041106 217.561327 
L 259.058832 215.039308 
L 260.076557 218.677589 
L 261.094283 217.989195 
L 262.112009 219.418154 
L 263.129735 217.754795 
L 264.147461 217.643826 
L 265.165187 217.047406 
L 266.182913 218.76173 
L 267.200638 219.563459 
L 268.218364 215.491486 
L 269.23609 188.450086 
L 270.253816 186.630938 
L 271.271542 189.360418 
L 272.289268 191.120369 
L 273.306993 190.445865 
L 274.324719 188.254769 
L 275.342445 191.420741 
L 276.360171 192.622376 
L 277.377897 193.631712 
L 278.395623 191.719574 
L 279.413349 193.291718 
L 280.431074 190.224006 
L 281.4488 193.032314 
L 282.466526 189.833113 
L 283.484252 187.927687 
L 284.501978 189.784753 
L 285.519704 192.899033 
L 286.537429 192.452195 
L 287.555155 189.889116 
L 288.572881 193.297017 
L 289.590607 190.687136 
L 291.626059 191.064366 
L 292.643785 189.44018 
L 293.66151 188.431263 
L 294.679236 190.344789 
L 295.696962 193.663558 
L 296.714688 194.965973 
L 297.732414 195.8525 
L 298.75014 192.039933 
L 299.767865 192.036845 
L 300.785591 194.051507 
L 301.803317 195.375932 
L 302.821043 191.770037 
L 303.838769 192.222025 
L 304.856495 192.042645 
L 305.874221 192.12739 
L 306.891946 194.176866 
L 307.909672 194.636858 
L 308.927398 190.250479 
L 309.945124 190.290355 
L 310.96285 188.734718 
L 311.980576 187.51266 
L 312.998302 189.110072 
L 314.016027 188.170107 
L 315.033753 189.709352 
L 316.051479 187.694302 
L 317.069205 188.740584 
L 318.086931 189.950741 
L 319.104657 190.140433 
L 322.157834 191.482381 
L 323.17556 193.475674 
L 324.193286 192.065689 
L 325.211012 189.153723 
L 326.228738 192.511027 
L 327.246463 193.919326 
L 328.264189 194.472138 
L 329.281915 189.934218 
L 330.299641 187.493113 
L 331.317367 189.161364 
L 332.335093 189.892004 
L 333.352818 192.29732 
L 334.370544 55.298382 
L 335.38827 56.610153 
L 336.405996 58.315621 
L 337.423722 55.838103 
L 338.441448 57.401268 
L 339.459174 56.610643 
L 340.476899 53.568 
L 341.494625 57.233162 
L 342.512351 56.060659 
L 343.530077 57.908119 
L 344.547803 58.229661 
L 345.565529 57.878106 
L 346.583254 55.452926 
L 347.60098 55.814068 
L 348.618706 60.652395 
L 349.636432 62.271399 
L 350.654158 60.307437 
L 351.671884 63.086845 
L 352.68961 61.339775 
L 353.707335 58.080067 
L 354.725061 60.283583 
L 355.742787 63.535587 
L 356.760513 62.601693 
L 357.778239 61.390153 
L 358.795965 62.073528 
L 359.813691 60.017681 
L 360.831416 57.206261 
L 361.849142 55.702748 
L 362.866868 58.235945 
L 363.884594 61.718305 
L 364.90232 58.814261 
L 365.920046 58.902732 
L 366.937771 60.377443 
L 367.955497 56.665847 
L 368.973223 57.207028 
L 369.990949 60.632633 
L 371.008675 56.75617 
L 372.026401 54.50487 
L 373.044127 58.629896 
L 374.061852 58.224204 
L 375.079578 57.11545 
L 376.097304 59.873345 
L 377.11503 62.157352 
L 378.132756 63.407753 
L 379.150482 61.432685 
L 380.168207 62.429578 
L 381.185933 58.16522 
L 382.203659 56.790603 
L 383.221385 56.974852 
L 384.239111 59.590799 
L 385.256837 61.432361 
L 386.274563 59.746202 
L 387.292288 56.890346 
L 388.310014 57.982643 
L 389.32774 56.762964 
L 390.345466 57.719487 
L 391.363192 56.74054 
L 392.380918 58.483602 
L 393.398643 59.263887 
L 394.416369 58.361056 
L 395.434095 58.991108 
L 396.451821 54.741783 
L 397.469547 55.978067 
L 398.487273 59.517336 
L 398.487273 59.517336 
" clip-path="url(#p2fbef337b0)" style="fill: none; stroke: #1f77b4; stroke-width: 1.5; stroke-linecap: square"/>
   </g>
   <g id="patch_3">
    <path d="M 57.6 307.584 
L 57.6 41.472 
" style="fill: none; stroke: #000000; stroke-width: 0.8; stroke-linejoin: miter; stroke-linecap: square"/>
   </g>
   <g id="patch_4">
    <path d="M 414.72 307.584 
L 414.72 41.472 
" style="fill: none; stroke: #000000; stroke-width: 0.8; stroke-linejoin: miter; stroke-linecap: square"/>
   </g>
   <g id="patch_5">
    <path d="M 57.6 307.584 
L 414.72 307.584 
" style="fill: none; stroke: #000000; stroke-width: 0.8; stroke-linejoin: miter; stroke-linecap: square"/>
   </g>
   <g id="patch_6">
    <path d="M 57.6 41.472 
L 414.72 41.472 
" style="fill: none; stroke: #000000; stroke-width: 0.8; stroke-linejoin: miter; stroke-linecap: square"/>
   </g>
   <g id="legend_1">
    <g id="patch_7">
     <path d="M 64.6 64.150125 
L 118.245312 64.150125 
Q 120.245312 64.150125 120.245312 62.150125 
L 120.245312 48.472 
Q 120.245312 46.472 118.245312 46.472 
L 64.6 46.472 
Q 62.6 46.472 62.6 48.472 
L 62.6 62.150125 
Q 62.6 64.150125 64.6 64.150125 
z
" style="fill: #ffffff; opacity: 0.8; stroke: #cccccc; stroke-linejoin: miter"/>
    </g>
    <g id="line2d_18">
     <path d="M 66.6 54.570438 
L 76.6 54.570438 
L 86.6 54.570438 
" style="fill: none; stroke: #1f77b4; stroke-width: 1.5; stroke-linecap: square"/>
    </g>
    <g id="text_17">
     <!-- set2 -->
     <g transform="translate(94.6 58.070438)scale(0.1 -0.1)">
      <defs>
       <path id="DejaVuSans-73" d="M 2834 3397 
L 2834 2853 
Q 2591 2978 2328 3040 
Q 2066 3103 1784 3103 
Q 1356 3103 1142 2972 
Q 928 2841 928 2578 
Q 928 2378 1081 2264 
Q 1234 2150 1697 2047 
L 1894 2003 
Q 2506 1872 2764 1633 
Q 3022 1394 3022 966 
Q 3022 478 2636 193 
Q 2250 -91 1575 -91 
Q 1294 -91 989 -36 
Q 684 19 347 128 
L 347 722 
Q 666 556 975 473 
Q 1284 391 1588 391 
Q 1994 391 2212 530 
Q 2431 669 2431 922 
Q 2431 1156 2273 1281 
Q 2116 1406 1581 1522 
L 1381 1569 
Q 847 1681 609 1914 
Q 372 2147 372 2553 
Q 372 3047 722 3315 
Q 1072 3584 1716 3584 
Q 2034 3584 2315 3537 
Q 2597 3491 2834 3397 
z
" transform="scale(0.015625)"/>
       <path id="DejaVuSans-65" d="M 3597 1894 
L 3597 1613 
L 953 1613 
Q 991 1019 1311 708 
Q 1631 397 2203 397 
Q 2534 397 2845 478 
Q 3156 559 3463 722 
L 3463 178 
Q 3153 47 2828 -22 
Q 2503 -91 2169 -91 
Q 1331 -91 842 396 
Q 353 884 353 1716 
Q 353 2575 817 3079 
Q 1281 3584 2069 3584 
Q 2775 3584 3186 3129 
Q 3597 2675 3597 1894 
z
M 3022 2063 
Q 3016 2534 2758 2815 
Q 2500 3097 2075 3097 
Q 1594 3097 1305 2825 
Q 1016 2553 972 2059 
L 3022 2063 
z
" transform="scale(0.015625)"/>
       <path id="DejaVuSans-74" d="M 1172 4494 
L 1172 3500 
L 2356 3500 
L 2356 3053 
L 1172 3053 
L 1172 1153 
Q 1172 725 1289 603 
Q 1406 481 1766 481 
L 2356 481 
L 2356 0 
L 1766 0 
Q 1100 0 847 248 
Q 594 497 594 1153 
L 594 3053 
L 172 3053 
L 172 3500 
L 594 3500 
L 594 4494 
L 1172 4494 
z
" transform="scale(0.015625)"/>
      </defs>
      <use xlink:href="#DejaVuSans-73"/>
      <use xlink:href="#DejaVuSans-65" x="52.099609"/>
      <use xlink:href="#DejaVuSans-74" x="113.623047"/>
      <use xlink:href="#DejaVuSans-32" x="152.832031"/>
     </g>
    </g>
   </g>
  </g>
 </g>
 <defs>
  <clipPath id="p2fbef337b0">
   <rect x="57.6" y="41.472" width="357.12" height="266.112"/>
  </clipPath>
 </defs>
</svg>
