<?xml version="1.0" encoding="utf-8" standalone="no"?>
<!DOCTYPE svg PUBLIC "-//W3C//DTD SVG 1.1//EN"
  "http://www.w3.org/Graphics/SVG/1.1/DTD/svg11.dtd">
<svg xmlns:xlink="http://www.w3.org/1999/xlink" width="460.8pt" height="345.6pt" viewBox="0 0 460.8 345.6" xmlns="http://www.w3.org/2000/svg" version="1.1">
 <metadata>
  <rdf:RDF xmlns:dc="http://purl.org/dc/elements/1.1/" xmlns:cc="http://creativecommons.org/ns#" xmlns:rdf="http://www.w3.org/1999/02/22-rdf-syntax-ns#">
   <cc:Work>
    <dc:type rdf:resource="http://purl.org/dc/dcmitype/StillImage"/>
    <dc:date>2022-08-11T20:38:51.819872</dc:date>
    <dc:format>image/svg+xml</dc:format>
    <dc:creator>
     <cc:Agent>
      <dc:title>Matplotlib v3.5.2, https://matplotlib.org/</dc:title>
     </cc:Agent>
    </dc:creator>
   </cc:Work>
  </rdf:RDF>
 </metadata>
 <defs>
  <style type="text/css">*{stroke-linejoin: round; stroke-linecap: butt}</style>
 </defs>
 <g id="figure_1">
  <g id="patch_1">
   <path d="M 0 345.6 
L 460.8 345.6 
L 460.8 0 
L 0 0 
z
" style="fill: #ffffff"/>
  </g>
  <g id="axes_1">
   <g id="patch_2">
    <path d="M 57.6 307.584 
L 414.72 307.584 
L 414.72 41.472 
L 57.6 41.472 
z
" style="fill: #ffffff"/>
   </g>
   <g id="matplotlib.axis_1">
    <g id="xtick_1">
     <g id="line2d_1">
      <defs>
       <path id="m75609d50d3" d="M 0 0 
L 0 3.5 
" style="stroke: #000000; stroke-width: 0.8"/>
      </defs>
      <g>
       <use xlink:href="#m75609d50d3" x="73.832727" y="307.584" style="stroke: #000000; stroke-width: 0.8"/>
      </g>
     </g>
     <g id="text_1">
      <!-- 0 -->
      <g transform="translate(70.651477 322.182437)scale(0.1 -0.1)">
       <defs>
        <path id="DejaVuSans-30" d="M 2034 4250 
Q 1547 4250 1301 3770 
Q 1056 3291 1056 2328 
Q 1056 1369 1301 889 
Q 1547 409 2034 409 
Q 2525 409 2770 889 
Q 3016 1369 3016 2328 
Q 3016 3291 2770 3770 
Q 2525 4250 2034 4250 
z
M 2034 4750 
Q 2819 4750 3233 4129 
Q 3647 3509 3647 2328 
Q 3647 1150 3233 529 
Q 2819 -91 2034 -91 
Q 1250 -91 836 529 
Q 422 1150 422 2328 
Q 422 3509 836 4129 
Q 1250 4750 2034 4750 
z
" transform="scale(0.015625)"/>
       </defs>
       <use xlink:href="#DejaVuSans-30"/>
      </g>
     </g>
    </g>
    <g id="xtick_2">
     <g id="line2d_2">
      <g>
       <use xlink:href="#m75609d50d3" x="124.71902" y="307.584" style="stroke: #000000; stroke-width: 0.8"/>
      </g>
     </g>
     <g id="text_2">
      <!-- 50 -->
      <g transform="translate(118.35652 322.182437)scale(0.1 -0.1)">
       <defs>
        <path id="DejaVuSans-35" d="M 691 4666 
L 3169 4666 
L 3169 4134 
L 1269 4134 
L 1269 2991 
Q 1406 3038 1543 3061 
Q 1681 3084 1819 3084 
Q 2600 3084 3056 2656 
Q 3513 2228 3513 1497 
Q 3513 744 3044 326 
Q 2575 -91 1722 -91 
Q 1428 -91 1123 -41 
Q 819 9 494 109 
L 494 744 
Q 775 591 1075 516 
Q 1375 441 1709 441 
Q 2250 441 2565 725 
Q 2881 1009 2881 1497 
Q 2881 1984 2565 2268 
Q 2250 2553 1709 2553 
Q 1456 2553 1204 2497 
Q 953 2441 691 2322 
L 691 4666 
z
" transform="scale(0.015625)"/>
       </defs>
       <use xlink:href="#DejaVuSans-35"/>
       <use xlink:href="#DejaVuSans-30" x="63.623047"/>
      </g>
     </g>
    </g>
    <g id="xtick_3">
     <g id="line2d_3">
      <g>
       <use xlink:href="#m75609d50d3" x="175.605312" y="307.584" style="stroke: #000000; stroke-width: 0.8"/>
      </g>
     </g>
     <g id="text_3">
      <!-- 100 -->
      <g transform="translate(166.061562 322.182437)scale(0.1 -0.1)">
       <defs>
        <path id="DejaVuSans-31" d="M 794 531 
L 1825 531 
L 1825 4091 
L 703 3866 
L 703 4441 
L 1819 4666 
L 2450 4666 
L 2450 531 
L 3481 531 
L 3481 0 
L 794 0 
L 794 531 
z
" transform="scale(0.015625)"/>
       </defs>
       <use xlink:href="#DejaVuSans-31"/>
       <use xlink:href="#DejaVuSans-30" x="63.623047"/>
       <use xlink:href="#DejaVuSans-30" x="127.246094"/>
      </g>
     </g>
    </g>
    <g id="xtick_4">
     <g id="line2d_4">
      <g>
       <use xlink:href="#m75609d50d3" x="226.491604" y="307.584" style="stroke: #000000; stroke-width: 0.8"/>
      </g>
     </g>
     <g id="text_4">
      <!-- 150 -->
      <g transform="translate(216.947854 322.182437)scale(0.1 -0.1)">
       <use xlink:href="#DejaVuSans-31"/>
       <use xlink:href="#DejaVuSans-35" x="63.623047"/>
       <use xlink:href="#DejaVuSans-30" x="127.246094"/>
      </g>
     </g>
    </g>
    <g id="xtick_5">
     <g id="line2d_5">
      <g>
       <use xlink:href="#m75609d50d3" x="277.377897" y="307.584" style="stroke: #000000; stroke-width: 0.8"/>
      </g>
     </g>
     <g id="text_5">
      <!-- 200 -->
      <g transform="translate(267.834147 322.182437)scale(0.1 -0.1)">
       <defs>
        <path id="DejaVuSans-32" d="M 1228 531 
L 3431 531 
L 3431 0 
L 469 0 
L 469 531 
Q 828 903 1448 1529 
Q 2069 2156 2228 2338 
Q 2531 2678 2651 2914 
Q 2772 3150 2772 3378 
Q 2772 3750 2511 3984 
Q 2250 4219 1831 4219 
Q 1534 4219 1204 4116 
Q 875 4013 500 3803 
L 500 4441 
Q 881 4594 1212 4672 
Q 1544 4750 1819 4750 
Q 2544 4750 2975 4387 
Q 3406 4025 3406 3419 
Q 3406 3131 3298 2873 
Q 3191 2616 2906 2266 
Q 2828 2175 2409 1742 
Q 1991 1309 1228 531 
z
" transform="scale(0.015625)"/>
       </defs>
       <use xlink:href="#DejaVuSans-32"/>
       <use xlink:href="#DejaVuSans-30" x="63.623047"/>
       <use xlink:href="#DejaVuSans-30" x="127.246094"/>
      </g>
     </g>
    </g>
    <g id="xtick_6">
     <g id="line2d_6">
      <g>
       <use xlink:href="#m75609d50d3" x="328.264189" y="307.584" style="stroke: #000000; stroke-width: 0.8"/>
      </g>
     </g>
     <g id="text_6">
      <!-- 250 -->
      <g transform="translate(318.720439 322.182437)scale(0.1 -0.1)">
       <use xlink:href="#DejaVuSans-32"/>
       <use xlink:href="#DejaVuSans-35" x="63.623047"/>
       <use xlink:href="#DejaVuSans-30" x="127.246094"/>
      </g>
     </g>
    </g>
    <g id="xtick_7">
     <g id="line2d_7">
      <g>
       <use xlink:href="#m75609d50d3" x="379.150482" y="307.584" style="stroke: #000000; stroke-width: 0.8"/>
      </g>
     </g>
     <g id="text_7">
      <!-- 300 -->
      <g transform="translate(369.606732 322.182437)scale(0.1 -0.1)">
       <defs>
        <path id="DejaVuSans-33" d="M 2597 2516 
Q 3050 2419 3304 2112 
Q 3559 1806 3559 1356 
Q 3559 666 3084 287 
Q 2609 -91 1734 -91 
Q 1441 -91 1130 -33 
Q 819 25 488 141 
L 488 750 
Q 750 597 1062 519 
Q 1375 441 1716 441 
Q 2309 441 2620 675 
Q 2931 909 2931 1356 
Q 2931 1769 2642 2001 
Q 2353 2234 1838 2234 
L 1294 2234 
L 1294 2753 
L 1863 2753 
Q 2328 2753 2575 2939 
Q 2822 3125 2822 3475 
Q 2822 3834 2567 4026 
Q 2313 4219 1838 4219 
Q 1578 4219 1281 4162 
Q 984 4106 628 3988 
L 628 4550 
Q 988 4650 1302 4700 
Q 1616 4750 1894 4750 
Q 2613 4750 3031 4423 
Q 3450 4097 3450 3541 
Q 3450 3153 3228 2886 
Q 3006 2619 2597 2516 
z
" transform="scale(0.015625)"/>
       </defs>
       <use xlink:href="#DejaVuSans-33"/>
       <use xlink:href="#DejaVuSans-30" x="63.623047"/>
       <use xlink:href="#DejaVuSans-30" x="127.246094"/>
      </g>
     </g>
    </g>
   </g>
   <g id="matplotlib.axis_2">
    <g id="ytick_1">
     <g id="line2d_8">
      <defs>
       <path id="mc1c09ce720" d="M 0 0 
L -3.5 0 
" style="stroke: #000000; stroke-width: 0.8"/>
      </defs>
      <g>
       <use xlink:href="#mc1c09ce720" x="57.6" y="297.949059" style="stroke: #000000; stroke-width: 0.8"/>
      </g>
     </g>
     <g id="text_8">
      <!-- 20 -->
      <g transform="translate(37.875 301.748278)scale(0.1 -0.1)">
       <use xlink:href="#DejaVuSans-32"/>
       <use xlink:href="#DejaVuSans-30" x="63.623047"/>
      </g>
     </g>
    </g>
    <g id="ytick_2">
     <g id="line2d_9">
      <g>
       <use xlink:href="#mc1c09ce720" x="57.6" y="254.816731" style="stroke: #000000; stroke-width: 0.8"/>
      </g>
     </g>
     <g id="text_9">
      <!-- 30 -->
      <g transform="translate(37.875 258.61595)scale(0.1 -0.1)">
       <use xlink:href="#DejaVuSans-33"/>
       <use xlink:href="#DejaVuSans-30" x="63.623047"/>
      </g>
     </g>
    </g>
    <g id="ytick_3">
     <g id="line2d_10">
      <g>
       <use xlink:href="#mc1c09ce720" x="57.6" y="211.684404" style="stroke: #000000; stroke-width: 0.8"/>
      </g>
     </g>
     <g id="text_10">
      <!-- 40 -->
      <g transform="translate(37.875 215.483623)scale(0.1 -0.1)">
       <defs>
        <path id="DejaVuSans-34" d="M 2419 4116 
L 825 1625 
L 2419 1625 
L 2419 4116 
z
M 2253 4666 
L 3047 4666 
L 3047 1625 
L 3713 1625 
L 3713 1100 
L 3047 1100 
L 3047 0 
L 2419 0 
L 2419 1100 
L 313 1100 
L 313 1709 
L 2253 4666 
z
" transform="scale(0.015625)"/>
       </defs>
       <use xlink:href="#DejaVuSans-34"/>
       <use xlink:href="#DejaVuSans-30" x="63.623047"/>
      </g>
     </g>
    </g>
    <g id="ytick_4">
     <g id="line2d_11">
      <g>
       <use xlink:href="#mc1c09ce720" x="57.6" y="168.552076" style="stroke: #000000; stroke-width: 0.8"/>
      </g>
     </g>
     <g id="text_11">
      <!-- 50 -->
      <g transform="translate(37.875 172.351295)scale(0.1 -0.1)">
       <use xlink:href="#DejaVuSans-35"/>
       <use xlink:href="#DejaVuSans-30" x="63.623047"/>
      </g>
     </g>
    </g>
    <g id="ytick_5">
     <g id="line2d_12">
      <g>
       <use xlink:href="#mc1c09ce720" x="57.6" y="125.419749" style="stroke: #000000; stroke-width: 0.8"/>
      </g>
     </g>
     <g id="text_12">
      <!-- 60 -->
      <g transform="translate(37.875 129.218967)scale(0.1 -0.1)">
       <defs>
        <path id="DejaVuSans-36" d="M 2113 2584 
Q 1688 2584 1439 2293 
Q 1191 2003 1191 1497 
Q 1191 994 1439 701 
Q 1688 409 2113 409 
Q 2538 409 2786 701 
Q 3034 994 3034 1497 
Q 3034 2003 2786 2293 
Q 2538 2584 2113 2584 
z
M 3366 4563 
L 3366 3988 
Q 3128 4100 2886 4159 
Q 2644 4219 2406 4219 
Q 1781 4219 1451 3797 
Q 1122 3375 1075 2522 
Q 1259 2794 1537 2939 
Q 1816 3084 2150 3084 
Q 2853 3084 3261 2657 
Q 3669 2231 3669 1497 
Q 3669 778 3244 343 
Q 2819 -91 2113 -91 
Q 1303 -91 875 529 
Q 447 1150 447 2328 
Q 447 3434 972 4092 
Q 1497 4750 2381 4750 
Q 2619 4750 2861 4703 
Q 3103 4656 3366 4563 
z
" transform="scale(0.015625)"/>
       </defs>
       <use xlink:href="#DejaVuSans-36"/>
       <use xlink:href="#DejaVuSans-30" x="63.623047"/>
      </g>
     </g>
    </g>
    <g id="ytick_6">
     <g id="line2d_13">
      <g>
       <use xlink:href="#mc1c09ce720" x="57.6" y="82.287421" style="stroke: #000000; stroke-width: 0.8"/>
      </g>
     </g>
     <g id="text_13">
      <!-- 70 -->
      <g transform="translate(37.875 86.08664)scale(0.1 -0.1)">
       <defs>
        <path id="DejaVuSans-37" d="M 525 4666 
L 3525 4666 
L 3525 4397 
L 1831 0 
L 1172 0 
L 2766 4134 
L 525 4134 
L 525 4666 
z
" transform="scale(0.015625)"/>
       </defs>
       <use xlink:href="#DejaVuSans-37"/>
       <use xlink:href="#DejaVuSans-30" x="63.623047"/>
      </g>
     </g>
    </g>
   </g>
   <g id="line2d_14">
    <path d="M 73.832727 294.330957 
L 74.850453 293.642211 
L 76.885905 294.40786 
L 77.903631 294.050845 
L 78.921357 294.883533 
L 79.939082 294.114392 
L 80.956808 295.004946 
L 81.974534 294.424273 
L 82.99226 294.815219 
L 84.009986 294.40928 
L 85.027712 294.607499 
L 87.063163 294.749597 
L 88.080889 295.488 
L 89.098615 294.569979 
L 90.116341 295.36028 
L 91.134067 294.127395 
L 92.151793 293.533554 
L 93.169518 294.51344 
L 95.20497 294.764065 
L 96.222696 294.478711 
L 97.240422 293.915811 
L 98.258148 293.730548 
L 99.275873 294.886458 
L 101.311325 295.35376 
L 102.329051 295.062728 
L 103.346777 294.565893 
L 104.364503 294.592737 
L 105.382229 293.56839 
L 106.399954 293.429317 
L 107.41768 294.331686 
L 108.435406 294.261899 
L 109.453132 294.402419 
L 110.470858 293.7924 
L 111.488584 293.514297 
L 112.506309 293.645772 
L 113.524035 293.386725 
L 114.541761 294.539838 
L 115.559487 295.107903 
L 116.577213 294.749029 
L 117.594939 294.030556 
L 118.612665 294.348823 
L 119.63039 293.851847 
L 121.665842 294.561202 
L 122.683568 293.791666 
L 123.701294 293.739776 
L 124.71902 294.426201 
L 125.736746 293.685154 
L 126.754471 293.959615 
L 127.772197 294.73488 
L 128.789923 294.470072 
L 129.807649 293.688762 
L 130.825375 294.587147 
L 131.843101 295.003376 
L 132.860826 294.856566 
L 133.878552 293.700686 
L 134.896278 293.967092 
L 135.914004 294.437664 
L 136.93173 293.644704 
L 137.949456 293.965147 
L 138.967182 233.424785 
L 139.984907 233.401264 
L 141.002633 235.532832 
L 142.020359 236.84636 
L 143.038085 236.306729 
L 144.055811 236.02828 
L 145.073537 237.901975 
L 146.091262 236.706289 
L 147.108988 238.339427 
L 148.126714 238.127345 
L 149.14444 236.651105 
L 150.162166 235.707626 
L 151.179892 237.808066 
L 152.197618 237.810146 
L 153.215343 236.354887 
L 154.233069 237.708297 
L 155.250795 236.838139 
L 156.268521 236.447224 
L 157.286247 237.443097 
L 158.303973 236.959784 
L 159.321698 239.613959 
L 161.35715 239.347649 
L 162.374876 241.223381 
L 163.392602 239.738709 
L 164.410328 238.796176 
L 165.428054 238.991785 
L 166.445779 236.534316 
L 167.463505 236.313027 
L 168.481231 236.721657 
L 169.498957 238.365294 
L 170.516683 235.356358 
L 171.534409 236.178797 
L 172.552135 236.646698 
L 173.56986 234.441778 
L 174.587586 234.812225 
L 175.605312 236.172786 
L 177.640764 237.433009 
L 178.65849 238.402008 
L 179.676215 239.031233 
L 180.693941 238.444759 
L 182.729393 236.164324 
L 183.747119 236.541022 
L 184.764845 236.274981 
L 185.782571 236.943523 
L 186.800296 236.527669 
L 187.818022 237.426408 
L 188.835748 235.302515 
L 189.853474 235.470755 
L 190.8712 237.975042 
L 192.906651 235.73964 
L 193.924377 236.205521 
L 194.942103 237.365901 
L 195.959829 234.928209 
L 196.977555 235.280576 
L 197.995281 234.961567 
L 199.013007 235.330463 
L 200.030732 234.192332 
L 201.048458 233.838111 
L 202.066184 235.050453 
L 203.08391 236.516162 
L 204.101636 144.38702 
L 205.119362 145.450367 
L 206.137087 144.144705 
L 207.154813 144.368258 
L 208.172539 145.395838 
L 209.190265 143.460285 
L 210.207991 145.796614 
L 211.225717 146.744037 
L 212.243443 143.999338 
L 213.261168 143.733177 
L 214.278894 144.168131 
L 215.29662 145.316076 
L 216.314346 145.908668 
L 217.332072 146.156546 
L 218.349798 143.95754 
L 219.367524 145.196996 
L 220.385249 147.024554 
L 221.402975 146.716817 
L 222.420701 146.052084 
L 223.438427 146.549841 
L 224.456153 145.204286 
L 225.473879 145.258119 
L 226.491604 143.875476 
L 227.50933 144.843779 
L 228.527056 146.391686 
L 229.544782 143.607706 
L 230.562508 143.734727 
L 231.580234 145.885903 
L 232.59796 144.668482 
L 233.615685 146.250899 
L 234.633411 146.443766 
L 235.651137 145.750661 
L 236.668863 146.537587 
L 237.686589 146.634508 
L 238.704315 146.904068 
L 240.739766 147.165171 
L 241.757492 146.582348 
L 242.775218 145.201847 
L 243.792944 144.171224 
L 244.81067 146.378797 
L 245.828396 147.010402 
L 246.846121 147.856412 
L 247.863847 149.099 
L 248.881573 147.697748 
L 249.899299 145.267635 
L 250.917025 145.354556 
L 251.934751 143.658492 
L 252.952476 144.967441 
L 253.970202 143.131651 
L 254.987928 145.212491 
L 256.005654 143.891199 
L 257.02338 144.592991 
L 258.041106 143.258452 
L 259.058832 142.706595 
L 260.076557 142.515025 
L 261.094283 144.719328 
L 262.112009 144.32972 
L 263.129735 144.067605 
L 264.147461 145.245081 
L 265.165187 143.765946 
L 266.182913 143.255193 
L 267.200638 143.793031 
L 268.218364 145.051821 
L 269.23609 95.119335 
L 270.253816 93.907122 
L 271.271542 96.77505 
L 272.289268 96.332802 
L 273.306993 96.441345 
L 274.324719 94.665024 
L 275.342445 95.308564 
L 276.360171 97.116467 
L 277.377897 97.494074 
L 278.395623 96.916918 
L 279.413349 99.785509 
L 280.431074 99.334295 
L 281.4488 101.303118 
L 282.466526 98.570554 
L 283.484252 95.00789 
L 284.501978 95.161553 
L 285.519704 97.799772 
L 286.537429 98.54839 
L 287.555155 99.051826 
L 288.572881 99.865026 
L 289.590607 99.484616 
L 290.608333 97.162463 
L 291.626059 96.540881 
L 292.643785 94.883977 
L 293.66151 95.177967 
L 294.679236 95.803922 
L 295.696962 94.138277 
L 296.714688 95.890846 
L 297.732414 100.815893 
L 298.75014 99.199842 
L 299.767865 95.431643 
L 300.785591 95.327951 
L 301.803317 98.707624 
L 302.821043 100.723267 
L 303.838769 100.949926 
L 304.856495 99.436658 
L 305.874221 95.960447 
L 306.891946 93.466001 
L 307.909672 95.25411 
L 308.927398 94.163196 
L 309.945124 94.499247 
L 310.96285 95.37901 
L 311.980576 99.406061 
L 312.998302 99.037372 
L 314.016027 98.02301 
L 315.033753 92.983988 
L 316.051479 93.573873 
L 317.069205 95.69797 
L 319.104657 94.769627 
L 320.122382 97.626124 
L 321.140108 96.066971 
L 322.157834 96.117959 
L 323.17556 98.078117 
L 324.193286 96.162903 
L 325.211012 93.925593 
L 326.228738 94.782192 
L 327.246463 92.409246 
L 328.264189 94.739856 
L 329.281915 98.766872 
L 330.299641 97.233823 
L 331.317367 92.254802 
L 332.335093 91.515477 
L 333.352818 93.362736 
L 334.370544 85.508295 
L 335.38827 82.66458 
L 336.405996 82.373396 
L 338.441448 77.011035 
L 339.459174 75.392795 
L 340.476899 74.277474 
L 341.494625 75.243332 
L 342.512351 73.980535 
L 343.530077 70.881845 
L 344.547803 70.038093 
L 345.565529 68.224181 
L 346.583254 69.706792 
L 347.60098 64.881364 
L 348.618706 65.255865 
L 349.636432 68.141245 
L 350.654158 68.397955 
L 351.671884 65.166503 
L 352.68961 63.867527 
L 353.707335 63.429534 
L 354.725061 63.65317 
L 355.742787 63.375851 
L 356.760513 60.555757 
L 357.778239 60.156043 
L 358.795965 63.610947 
L 359.813691 64.089393 
L 360.831416 60.657431 
L 361.849142 60.515491 
L 362.866868 60.140385 
L 363.884594 60.646977 
L 364.90232 58.191663 
L 365.920046 57.526721 
L 366.937771 57.000638 
L 367.955497 57.777729 
L 369.990949 60.565028 
L 371.008675 58.854819 
L 372.026401 59.643072 
L 373.044127 57.305233 
L 374.061852 58.765403 
L 375.079578 55.96238 
L 376.097304 56.48242 
L 377.11503 55.62184 
L 378.132756 54.998902 
L 379.150482 55.714976 
L 380.168207 58.81764 
L 381.185933 58.770633 
L 382.203659 57.647585 
L 383.221385 57.415824 
L 384.239111 54.489579 
L 385.256837 55.459238 
L 386.274563 56.202486 
L 387.292288 55.009216 
L 388.310014 54.859591 
L 389.32774 57.656963 
L 390.345466 59.662385 
L 391.363192 60.942667 
L 392.380918 60.866619 
L 393.398643 57.221399 
L 394.416369 54.729884 
L 395.434095 56.989703 
L 396.451821 54.804988 
L 397.469547 53.568 
L 398.487273 53.669382 
L 398.487273 53.669382 
" clip-path="url(#p188824fc26)" style="fill: none; stroke: #1f77b4; stroke-width: 1.5; stroke-linecap: square"/>
   </g>
   <g id="patch_3">
    <path d="M 57.6 307.584 
L 57.6 41.472 
" style="fill: none; stroke: #000000; stroke-width: 0.8; stroke-linejoin: miter; stroke-linecap: square"/>
   </g>
   <g id="patch_4">
    <path d="M 414.72 307.584 
L 414.72 41.472 
" style="fill: none; stroke: #000000; stroke-width: 0.8; stroke-linejoin: miter; stroke-linecap: square"/>
   </g>
   <g id="patch_5">
    <path d="M 57.6 307.584 
L 414.72 307.584 
" style="fill: none; stroke: #000000; stroke-width: 0.8; stroke-linejoin: miter; stroke-linecap: square"/>
   </g>
   <g id="patch_6">
    <path d="M 57.6 41.472 
L 414.72 41.472 
" style="fill: none; stroke: #000000; stroke-width: 0.8; stroke-linejoin: miter; stroke-linecap: square"/>
   </g>
   <g id="legend_1">
    <g id="patch_7">
     <path d="M 64.6 64.150125 
L 118.245312 64.150125 
Q 120.245312 64.150125 120.245312 62.150125 
L 120.245312 48.472 
Q 120.245312 46.472 118.245312 46.472 
L 64.6 46.472 
Q 62.6 46.472 62.6 48.472 
L 62.6 62.150125 
Q 62.6 64.150125 64.6 64.150125 
z
" style="fill: #ffffff; opacity: 0.8; stroke: #cccccc; stroke-linejoin: miter"/>
    </g>
    <g id="line2d_15">
     <path d="M 66.6 54.570438 
L 76.6 54.570438 
L 86.6 54.570438 
" style="fill: none; stroke: #1f77b4; stroke-width: 1.5; stroke-linecap: square"/>
    </g>
    <g id="text_14">
     <!-- set3 -->
     <g transform="translate(94.6 58.070438)scale(0.1 -0.1)">
      <defs>
       <path id="DejaVuSans-73" d="M 2834 3397 
L 2834 2853 
Q 2591 2978 2328 3040 
Q 2066 3103 1784 3103 
Q 1356 3103 1142 2972 
Q 928 2841 928 2578 
Q 928 2378 1081 2264 
Q 1234 2150 1697 2047 
L 1894 2003 
Q 2506 1872 2764 1633 
Q 3022 1394 3022 966 
Q 3022 478 2636 193 
Q 2250 -91 1575 -91 
Q 1294 -91 989 -36 
Q 684 19 347 128 
L 347 722 
Q 666 556 975 473 
Q 1284 391 1588 391 
Q 1994 391 2212 530 
Q 2431 669 2431 922 
Q 2431 1156 2273 1281 
Q 2116 1406 1581 1522 
L 1381 1569 
Q 847 1681 609 1914 
Q 372 2147 372 2553 
Q 372 3047 722 3315 
Q 1072 3584 1716 3584 
Q 2034 3584 2315 3537 
Q 2597 3491 2834 3397 
z
" transform="scale(0.015625)"/>
       <path id="DejaVuSans-65" d="M 3597 1894 
L 3597 1613 
L 953 1613 
Q 991 1019 1311 708 
Q 1631 397 2203 397 
Q 2534 397 2845 478 
Q 3156 559 3463 722 
L 3463 178 
Q 3153 47 2828 -22 
Q 2503 -91 2169 -91 
Q 1331 -91 842 396 
Q 353 884 353 1716 
Q 353 2575 817 3079 
Q 1281 3584 2069 3584 
Q 2775 3584 3186 3129 
Q 3597 2675 3597 1894 
z
M 3022 2063 
Q 3016 2534 2758 2815 
Q 2500 3097 2075 3097 
Q 1594 3097 1305 2825 
Q 1016 2553 972 2059 
L 3022 2063 
z
" transform="scale(0.015625)"/>
       <path id="DejaVuSans-74" d="M 1172 4494 
L 1172 3500 
L 2356 3500 
L 2356 3053 
L 1172 3053 
L 1172 1153 
Q 1172 725 1289 603 
Q 1406 481 1766 481 
L 2356 481 
L 2356 0 
L 1766 0 
Q 1100 0 847 248 
Q 594 497 594 1153 
L 594 3053 
L 172 3053 
L 172 3500 
L 594 3500 
L 594 4494 
L 1172 4494 
z
" transform="scale(0.015625)"/>
      </defs>
      <use xlink:href="#DejaVuSans-73"/>
      <use xlink:href="#DejaVuSans-65" x="52.099609"/>
      <use xlink:href="#DejaVuSans-74" x="113.623047"/>
      <use xlink:href="#DejaVuSans-33" x="152.832031"/>
     </g>
    </g>
   </g>
  </g>
 </g>
 <defs>
  <clipPath id="p188824fc26">
   <rect x="57.6" y="41.472" width="357.12" height="266.112"/>
  </clipPath>
 </defs>
</svg>
