<?xml version="1.0" encoding="utf-8" standalone="no"?>
<!DOCTYPE svg PUBLIC "-//W3C//DTD SVG 1.1//EN"
  "http://www.w3.org/Graphics/SVG/1.1/DTD/svg11.dtd">
<svg xmlns:xlink="http://www.w3.org/1999/xlink" width="460.8pt" height="345.6pt" viewBox="0 0 460.8 345.6" xmlns="http://www.w3.org/2000/svg" version="1.1">
 <metadata>
  <rdf:RDF xmlns:dc="http://purl.org/dc/elements/1.1/" xmlns:cc="http://creativecommons.org/ns#" xmlns:rdf="http://www.w3.org/1999/02/22-rdf-syntax-ns#">
   <cc:Work>
    <dc:type rdf:resource="http://purl.org/dc/dcmitype/StillImage"/>
    <dc:date>2022-08-11T20:38:48.825585</dc:date>
    <dc:format>image/svg+xml</dc:format>
    <dc:creator>
     <cc:Agent>
      <dc:title>Matplotlib v3.5.2, https://matplotlib.org/</dc:title>
     </cc:Agent>
    </dc:creator>
   </cc:Work>
  </rdf:RDF>
 </metadata>
 <defs>
  <style type="text/css">*{stroke-linejoin: round; stroke-linecap: butt}</style>
 </defs>
 <g id="figure_1">
  <g id="patch_1">
   <path d="M 0 345.6 
L 460.8 345.6 
L 460.8 0 
L 0 0 
z
" style="fill: #ffffff"/>
  </g>
  <g id="axes_1">
   <g id="patch_2">
    <path d="M 57.6 307.584 
L 414.72 307.584 
L 414.72 41.472 
L 57.6 41.472 
z
" style="fill: #ffffff"/>
   </g>
   <g id="matplotlib.axis_1">
    <g id="xtick_1">
     <g id="line2d_1">
      <defs>
       <path id="m737d90e7bb" d="M 0 0 
L 0 3.5 
" style="stroke: #000000; stroke-width: 0.8"/>
      </defs>
      <g>
       <use xlink:href="#m737d90e7bb" x="73.832727" y="307.584" style="stroke: #000000; stroke-width: 0.8"/>
      </g>
     </g>
     <g id="text_1">
      <!-- 0 -->
      <g transform="translate(70.651477 322.182437)scale(0.1 -0.1)">
       <defs>
        <path id="DejaVuSans-30" d="M 2034 4250 
Q 1547 4250 1301 3770 
Q 1056 3291 1056 2328 
Q 1056 1369 1301 889 
Q 1547 409 2034 409 
Q 2525 409 2770 889 
Q 3016 1369 3016 2328 
Q 3016 3291 2770 3770 
Q 2525 4250 2034 4250 
z
M 2034 4750 
Q 2819 4750 3233 4129 
Q 3647 3509 3647 2328 
Q 3647 1150 3233 529 
Q 2819 -91 2034 -91 
Q 1250 -91 836 529 
Q 422 1150 422 2328 
Q 422 3509 836 4129 
Q 1250 4750 2034 4750 
z
" transform="scale(0.015625)"/>
       </defs>
       <use xlink:href="#DejaVuSans-30"/>
      </g>
     </g>
    </g>
    <g id="xtick_2">
     <g id="line2d_2">
      <g>
       <use xlink:href="#m737d90e7bb" x="124.71902" y="307.584" style="stroke: #000000; stroke-width: 0.8"/>
      </g>
     </g>
     <g id="text_2">
      <!-- 50 -->
      <g transform="translate(118.35652 322.182437)scale(0.1 -0.1)">
       <defs>
        <path id="DejaVuSans-35" d="M 691 4666 
L 3169 4666 
L 3169 4134 
L 1269 4134 
L 1269 2991 
Q 1406 3038 1543 3061 
Q 1681 3084 1819 3084 
Q 2600 3084 3056 2656 
Q 3513 2228 3513 1497 
Q 3513 744 3044 326 
Q 2575 -91 1722 -91 
Q 1428 -91 1123 -41 
Q 819 9 494 109 
L 494 744 
Q 775 591 1075 516 
Q 1375 441 1709 441 
Q 2250 441 2565 725 
Q 2881 1009 2881 1497 
Q 2881 1984 2565 2268 
Q 2250 2553 1709 2553 
Q 1456 2553 1204 2497 
Q 953 2441 691 2322 
L 691 4666 
z
" transform="scale(0.015625)"/>
       </defs>
       <use xlink:href="#DejaVuSans-35"/>
       <use xlink:href="#DejaVuSans-30" x="63.623047"/>
      </g>
     </g>
    </g>
    <g id="xtick_3">
     <g id="line2d_3">
      <g>
       <use xlink:href="#m737d90e7bb" x="175.605312" y="307.584" style="stroke: #000000; stroke-width: 0.8"/>
      </g>
     </g>
     <g id="text_3">
      <!-- 100 -->
      <g transform="translate(166.061562 322.182437)scale(0.1 -0.1)">
       <defs>
        <path id="DejaVuSans-31" d="M 794 531 
L 1825 531 
L 1825 4091 
L 703 3866 
L 703 4441 
L 1819 4666 
L 2450 4666 
L 2450 531 
L 3481 531 
L 3481 0 
L 794 0 
L 794 531 
z
" transform="scale(0.015625)"/>
       </defs>
       <use xlink:href="#DejaVuSans-31"/>
       <use xlink:href="#DejaVuSans-30" x="63.623047"/>
       <use xlink:href="#DejaVuSans-30" x="127.246094"/>
      </g>
     </g>
    </g>
    <g id="xtick_4">
     <g id="line2d_4">
      <g>
       <use xlink:href="#m737d90e7bb" x="226.491604" y="307.584" style="stroke: #000000; stroke-width: 0.8"/>
      </g>
     </g>
     <g id="text_4">
      <!-- 150 -->
      <g transform="translate(216.947854 322.182437)scale(0.1 -0.1)">
       <use xlink:href="#DejaVuSans-31"/>
       <use xlink:href="#DejaVuSans-35" x="63.623047"/>
       <use xlink:href="#DejaVuSans-30" x="127.246094"/>
      </g>
     </g>
    </g>
    <g id="xtick_5">
     <g id="line2d_5">
      <g>
       <use xlink:href="#m737d90e7bb" x="277.377897" y="307.584" style="stroke: #000000; stroke-width: 0.8"/>
      </g>
     </g>
     <g id="text_5">
      <!-- 200 -->
      <g transform="translate(267.834147 322.182437)scale(0.1 -0.1)">
       <defs>
        <path id="DejaVuSans-32" d="M 1228 531 
L 3431 531 
L 3431 0 
L 469 0 
L 469 531 
Q 828 903 1448 1529 
Q 2069 2156 2228 2338 
Q 2531 2678 2651 2914 
Q 2772 3150 2772 3378 
Q 2772 3750 2511 3984 
Q 2250 4219 1831 4219 
Q 1534 4219 1204 4116 
Q 875 4013 500 3803 
L 500 4441 
Q 881 4594 1212 4672 
Q 1544 4750 1819 4750 
Q 2544 4750 2975 4387 
Q 3406 4025 3406 3419 
Q 3406 3131 3298 2873 
Q 3191 2616 2906 2266 
Q 2828 2175 2409 1742 
Q 1991 1309 1228 531 
z
" transform="scale(0.015625)"/>
       </defs>
       <use xlink:href="#DejaVuSans-32"/>
       <use xlink:href="#DejaVuSans-30" x="63.623047"/>
       <use xlink:href="#DejaVuSans-30" x="127.246094"/>
      </g>
     </g>
    </g>
    <g id="xtick_6">
     <g id="line2d_6">
      <g>
       <use xlink:href="#m737d90e7bb" x="328.264189" y="307.584" style="stroke: #000000; stroke-width: 0.8"/>
      </g>
     </g>
     <g id="text_6">
      <!-- 250 -->
      <g transform="translate(318.720439 322.182437)scale(0.1 -0.1)">
       <use xlink:href="#DejaVuSans-32"/>
       <use xlink:href="#DejaVuSans-35" x="63.623047"/>
       <use xlink:href="#DejaVuSans-30" x="127.246094"/>
      </g>
     </g>
    </g>
    <g id="xtick_7">
     <g id="line2d_7">
      <g>
       <use xlink:href="#m737d90e7bb" x="379.150482" y="307.584" style="stroke: #000000; stroke-width: 0.8"/>
      </g>
     </g>
     <g id="text_7">
      <!-- 300 -->
      <g transform="translate(369.606732 322.182437)scale(0.1 -0.1)">
       <defs>
        <path id="DejaVuSans-33" d="M 2597 2516 
Q 3050 2419 3304 2112 
Q 3559 1806 3559 1356 
Q 3559 666 3084 287 
Q 2609 -91 1734 -91 
Q 1441 -91 1130 -33 
Q 819 25 488 141 
L 488 750 
Q 750 597 1062 519 
Q 1375 441 1716 441 
Q 2309 441 2620 675 
Q 2931 909 2931 1356 
Q 2931 1769 2642 2001 
Q 2353 2234 1838 2234 
L 1294 2234 
L 1294 2753 
L 1863 2753 
Q 2328 2753 2575 2939 
Q 2822 3125 2822 3475 
Q 2822 3834 2567 4026 
Q 2313 4219 1838 4219 
Q 1578 4219 1281 4162 
Q 984 4106 628 3988 
L 628 4550 
Q 988 4650 1302 4700 
Q 1616 4750 1894 4750 
Q 2613 4750 3031 4423 
Q 3450 4097 3450 3541 
Q 3450 3153 3228 2886 
Q 3006 2619 2597 2516 
z
" transform="scale(0.015625)"/>
       </defs>
       <use xlink:href="#DejaVuSans-33"/>
       <use xlink:href="#DejaVuSans-30" x="63.623047"/>
       <use xlink:href="#DejaVuSans-30" x="127.246094"/>
      </g>
     </g>
    </g>
   </g>
   <g id="matplotlib.axis_2">
    <g id="ytick_1">
     <g id="line2d_8">
      <defs>
       <path id="m9ff0b514a1" d="M 0 0 
L -3.5 0 
" style="stroke: #000000; stroke-width: 0.8"/>
      </defs>
      <g>
       <use xlink:href="#m9ff0b514a1" x="57.6" y="307.1456" style="stroke: #000000; stroke-width: 0.8"/>
      </g>
     </g>
     <g id="text_8">
      <!-- 10 -->
      <g transform="translate(37.875 310.944818)scale(0.1 -0.1)">
       <use xlink:href="#DejaVuSans-31"/>
       <use xlink:href="#DejaVuSans-30" x="63.623047"/>
      </g>
     </g>
    </g>
    <g id="ytick_2">
     <g id="line2d_9">
      <g>
       <use xlink:href="#m9ff0b514a1" x="57.6" y="257.930645" style="stroke: #000000; stroke-width: 0.8"/>
      </g>
     </g>
     <g id="text_9">
      <!-- 20 -->
      <g transform="translate(37.875 261.729863)scale(0.1 -0.1)">
       <use xlink:href="#DejaVuSans-32"/>
       <use xlink:href="#DejaVuSans-30" x="63.623047"/>
      </g>
     </g>
    </g>
    <g id="ytick_3">
     <g id="line2d_10">
      <g>
       <use xlink:href="#m9ff0b514a1" x="57.6" y="208.715689" style="stroke: #000000; stroke-width: 0.8"/>
      </g>
     </g>
     <g id="text_10">
      <!-- 30 -->
      <g transform="translate(37.875 212.514908)scale(0.1 -0.1)">
       <use xlink:href="#DejaVuSans-33"/>
       <use xlink:href="#DejaVuSans-30" x="63.623047"/>
      </g>
     </g>
    </g>
    <g id="ytick_4">
     <g id="line2d_11">
      <g>
       <use xlink:href="#m9ff0b514a1" x="57.6" y="159.500734" style="stroke: #000000; stroke-width: 0.8"/>
      </g>
     </g>
     <g id="text_11">
      <!-- 40 -->
      <g transform="translate(37.875 163.299953)scale(0.1 -0.1)">
       <defs>
        <path id="DejaVuSans-34" d="M 2419 4116 
L 825 1625 
L 2419 1625 
L 2419 4116 
z
M 2253 4666 
L 3047 4666 
L 3047 1625 
L 3713 1625 
L 3713 1100 
L 3047 1100 
L 3047 0 
L 2419 0 
L 2419 1100 
L 313 1100 
L 313 1709 
L 2253 4666 
z
" transform="scale(0.015625)"/>
       </defs>
       <use xlink:href="#DejaVuSans-34"/>
       <use xlink:href="#DejaVuSans-30" x="63.623047"/>
      </g>
     </g>
    </g>
    <g id="ytick_5">
     <g id="line2d_12">
      <g>
       <use xlink:href="#m9ff0b514a1" x="57.6" y="110.285779" style="stroke: #000000; stroke-width: 0.8"/>
      </g>
     </g>
     <g id="text_12">
      <!-- 50 -->
      <g transform="translate(37.875 114.084998)scale(0.1 -0.1)">
       <use xlink:href="#DejaVuSans-35"/>
       <use xlink:href="#DejaVuSans-30" x="63.623047"/>
      </g>
     </g>
    </g>
    <g id="ytick_6">
     <g id="line2d_13">
      <g>
       <use xlink:href="#m9ff0b514a1" x="57.6" y="61.070824" style="stroke: #000000; stroke-width: 0.8"/>
      </g>
     </g>
     <g id="text_13">
      <!-- 60 -->
      <g transform="translate(37.875 64.870043)scale(0.1 -0.1)">
       <defs>
        <path id="DejaVuSans-36" d="M 2113 2584 
Q 1688 2584 1439 2293 
Q 1191 2003 1191 1497 
Q 1191 994 1439 701 
Q 1688 409 2113 409 
Q 2538 409 2786 701 
Q 3034 994 3034 1497 
Q 3034 2003 2786 2293 
Q 2538 2584 2113 2584 
z
M 3366 4563 
L 3366 3988 
Q 3128 4100 2886 4159 
Q 2644 4219 2406 4219 
Q 1781 4219 1451 3797 
Q 1122 3375 1075 2522 
Q 1259 2794 1537 2939 
Q 1816 3084 2150 3084 
Q 2853 3084 3261 2657 
Q 3669 2231 3669 1497 
Q 3669 778 3244 343 
Q 2819 -91 2113 -91 
Q 1303 -91 875 529 
Q 447 1150 447 2328 
Q 447 3434 972 4092 
Q 1497 4750 2381 4750 
Q 2619 4750 2861 4703 
Q 3103 4656 3366 4563 
z
" transform="scale(0.015625)"/>
       </defs>
       <use xlink:href="#DejaVuSans-36"/>
       <use xlink:href="#DejaVuSans-30" x="63.623047"/>
      </g>
     </g>
    </g>
   </g>
   <g id="line2d_14">
    <path d="M 73.832727 228.367825 
L 74.850453 245.760239 
L 75.868179 251.810764 
L 76.885905 259.595522 
L 77.903631 265.436528 
L 78.921357 269.167642 
L 81.974534 278.379564 
L 82.99226 279.243984 
L 84.009986 280.398562 
L 85.027712 282.2427 
L 87.063163 285.155795 
L 88.080889 285.660296 
L 89.098615 287.80947 
L 90.116341 289.150935 
L 91.134067 288.622305 
L 92.151793 290.147836 
L 93.169518 289.573656 
L 94.187244 290.444341 
L 95.20497 291.71985 
L 96.222696 292.359134 
L 97.240422 291.338961 
L 98.258148 292.62472 
L 99.275873 291.908013 
L 100.293599 291.818079 
L 101.311325 293.268105 
L 102.329051 293.113453 
L 103.346777 293.887101 
L 104.364503 293.659199 
L 105.382229 294.39429 
L 106.399954 293.938222 
L 107.41768 294.538123 
L 108.435406 294.828763 
L 109.453132 294.314999 
L 110.470858 294.891893 
L 111.488584 294.424589 
L 112.506309 294.312535 
L 113.524035 295.031726 
L 114.541761 293.818139 
L 115.559487 294.083548 
L 116.577213 294.229768 
L 117.594939 295.097077 
L 118.612665 295.428103 
L 119.63039 294.867685 
L 120.648116 295.488 
L 121.665842 294.182417 
L 122.683568 293.547935 
L 123.701294 293.290767 
L 124.71902 294.734648 
L 125.736746 293.859557 
L 126.754471 293.487365 
L 127.772197 294.003601 
L 128.789923 294.986654 
L 129.807649 294.66051 
L 130.825375 295.306939 
L 131.843101 294.82641 
L 132.860826 295.287065 
L 133.878552 294.817766 
L 134.896278 293.890721 
L 135.914004 294.934007 
L 136.93173 294.582265 
L 137.949456 294.453601 
L 138.967182 233.148383 
L 139.984907 250.199789 
L 141.002633 255.332344 
L 142.020359 262.216203 
L 144.055811 269.841345 
L 147.108988 278.707526 
L 148.126714 278.673772 
L 150.162166 281.35792 
L 151.179892 282.572786 
L 153.215343 286.074147 
L 154.233069 285.88105 
L 155.250795 286.586937 
L 156.268521 286.44546 
L 157.286247 286.887743 
L 158.303973 288.777192 
L 159.321698 288.435051 
L 160.339424 289.329042 
L 161.35715 289.857737 
L 162.374876 290.865347 
L 163.392602 290.850714 
L 164.410328 291.836152 
L 165.428054 291.676009 
L 166.445779 292.486572 
L 167.463505 292.18458 
L 168.481231 291.420357 
L 169.498957 291.122088 
L 171.534409 290.846855 
L 172.552135 291.575576 
L 173.56986 291.14521 
L 174.587586 291.17911 
L 175.605312 291.915133 
L 176.623038 292.160022 
L 177.640764 293.131724 
L 178.65849 292.164562 
L 179.676215 293.213315 
L 180.693941 292.175535 
L 181.711667 291.797181 
L 182.729393 293.172423 
L 183.747119 293.687342 
L 184.764845 292.471192 
L 185.782571 292.826861 
L 186.800296 293.610157 
L 187.818022 293.14596 
L 188.835748 293.751046 
L 189.853474 294.0105 
L 190.8712 294.081422 
L 191.888926 293.436771 
L 192.906651 293.9065 
L 193.924377 293.363118 
L 194.942103 293.917299 
L 195.959829 294.153804 
L 196.977555 292.828887 
L 197.995281 292.29609 
L 199.013007 293.517659 
L 200.030732 292.415989 
L 201.048458 291.920831 
L 202.066184 292.517569 
L 203.08391 292.061816 
L 204.101636 169.180666 
L 205.119362 183.661 
L 206.137087 187.822608 
L 209.190265 214.709114 
L 210.207991 219.178405 
L 214.278894 243.122828 
L 215.29662 246.254854 
L 216.314346 250.130431 
L 217.332072 253.390403 
L 218.349798 255.659062 
L 219.367524 256.146973 
L 220.385249 257.562686 
L 222.420701 258.723655 
L 223.438427 260.828738 
L 224.456153 261.577188 
L 225.473879 262.042495 
L 226.491604 261.848655 
L 227.50933 263.492008 
L 228.527056 263.16037 
L 229.544782 264.70657 
L 230.562508 264.164382 
L 231.580234 265.410935 
L 232.59796 264.518349 
L 233.615685 264.400226 
L 234.633411 265.979521 
L 235.651137 266.004802 
L 236.668863 266.932673 
L 237.686589 266.763934 
L 238.704315 266.759611 
L 239.72204 266.077194 
L 240.739766 267.143088 
L 241.757492 266.810674 
L 242.775218 266.029582 
L 243.792944 267.178089 
L 245.828396 268.011367 
L 246.846121 268.248344 
L 247.863847 267.537941 
L 248.881573 266.430508 
L 249.899299 265.882244 
L 250.917025 266.46685 
L 251.934751 267.655175 
L 252.952476 268.055948 
L 253.970202 267.709859 
L 254.987928 267.498228 
L 256.005654 267.98404 
L 257.02338 268.308903 
L 258.041106 267.645568 
L 259.058832 268.267238 
L 260.076557 267.048818 
L 261.094283 268.015482 
L 262.112009 268.277709 
L 263.129735 266.864199 
L 264.147461 267.13153 
L 265.165187 267.204094 
L 267.200638 266.074783 
L 268.218364 266.595539 
L 269.23609 113.468528 
L 270.253816 127.510763 
L 271.271542 131.208444 
L 272.289268 143.974713 
L 273.306993 151.470484 
L 274.324719 160.124421 
L 275.342445 165.514667 
L 276.360171 175.548132 
L 277.377897 183.24064 
L 278.395623 188.16484 
L 280.431074 203.277771 
L 281.4488 206.918392 
L 282.466526 212.906078 
L 283.484252 216.381389 
L 285.519704 225.085789 
L 287.555155 232.461632 
L 288.572881 234.030301 
L 289.590607 237.294999 
L 290.608333 239.244848 
L 291.626059 242.52255 
L 292.643785 243.336658 
L 293.66151 245.577188 
L 294.679236 246.913615 
L 295.696962 247.510034 
L 296.714688 249.546115 
L 300.785591 251.892758 
L 301.803317 252.383819 
L 304.856495 253.168622 
L 305.874221 254.208575 
L 306.891946 254.073018 
L 308.927398 253.99817 
L 309.945124 254.958374 
L 310.96285 254.866603 
L 311.980576 254.147506 
L 312.998302 255.073075 
L 314.016027 254.101075 
L 316.051479 253.532358 
L 317.069205 254.763882 
L 318.086931 254.56119 
L 319.104657 254.93077 
L 320.122382 254.152959 
L 321.140108 255.267013 
L 322.157834 255.026765 
L 323.17556 255.601772 
L 324.193286 255.892472 
L 325.211012 254.695679 
L 326.228738 254.790456 
L 327.246463 254.030562 
L 328.264189 254.298729 
L 329.281915 253.853649 
L 330.299641 255.414942 
L 331.317367 255.165889 
L 332.335093 255.684349 
L 333.352818 256.06895 
L 334.370544 53.568 
L 335.38827 69.253368 
L 336.405996 76.595043 
L 337.423722 90.00485 
L 338.441448 97.102445 
L 339.459174 102.168242 
L 340.476899 101.578796 
L 341.494625 103.435713 
L 342.512351 106.371576 
L 343.530077 114.338433 
L 344.547803 119.894353 
L 345.565529 118.760903 
L 346.583254 121.699318 
L 347.60098 127.530355 
L 348.618706 129.005501 
L 349.636432 127.461441 
L 350.654158 130.599388 
L 351.671884 137.152063 
L 352.68961 138.44408 
L 353.707335 137.020155 
L 354.725061 138.905278 
L 355.742787 143.062947 
L 356.760513 146.507153 
L 357.778239 148.719239 
L 358.795965 149.582204 
L 359.813691 151.510806 
L 360.831416 154.21159 
L 361.849142 155.450099 
L 362.866868 156.236658 
L 363.884594 157.265141 
L 364.90232 159.696669 
L 365.920046 160.256885 
L 366.937771 158.844673 
L 367.955497 161.662948 
L 368.973223 160.200664 
L 369.990949 159.573064 
L 371.008675 160.07187 
L 372.026401 159.44377 
L 373.044127 161.363749 
L 374.061852 162.813462 
L 375.079578 164.540025 
L 376.097304 162.831629 
L 377.11503 165.824156 
L 378.132756 165.201776 
L 379.150482 165.374978 
L 380.168207 166.82546 
L 381.185933 166.215654 
L 382.203659 165.269352 
L 383.221385 166.260724 
L 384.239111 163.632135 
L 385.256837 163.244576 
L 386.274563 164.001554 
L 387.292288 165.151731 
L 388.310014 163.919426 
L 389.32774 164.839587 
L 390.345466 164.531263 
L 391.363192 164.819142 
L 392.380918 167.858427 
L 393.398643 168.501167 
L 395.434095 165.735596 
L 396.451821 167.449708 
L 397.469547 169.821666 
L 398.487273 170.04479 
L 398.487273 170.04479 
" clip-path="url(#p94c2997328)" style="fill: none; stroke: #1f77b4; stroke-width: 1.5; stroke-linecap: square"/>
   </g>
   <g id="patch_3">
    <path d="M 57.6 307.584 
L 57.6 41.472 
" style="fill: none; stroke: #000000; stroke-width: 0.8; stroke-linejoin: miter; stroke-linecap: square"/>
   </g>
   <g id="patch_4">
    <path d="M 414.72 307.584 
L 414.72 41.472 
" style="fill: none; stroke: #000000; stroke-width: 0.8; stroke-linejoin: miter; stroke-linecap: square"/>
   </g>
   <g id="patch_5">
    <path d="M 57.6 307.584 
L 414.72 307.584 
" style="fill: none; stroke: #000000; stroke-width: 0.8; stroke-linejoin: miter; stroke-linecap: square"/>
   </g>
   <g id="patch_6">
    <path d="M 57.6 41.472 
L 414.72 41.472 
" style="fill: none; stroke: #000000; stroke-width: 0.8; stroke-linejoin: miter; stroke-linecap: square"/>
   </g>
   <g id="legend_1">
    <g id="patch_7">
     <path d="M 354.074688 64.150125 
L 407.72 64.150125 
Q 409.72 64.150125 409.72 62.150125 
L 409.72 48.472 
Q 409.72 46.472 407.72 46.472 
L 354.074688 46.472 
Q 352.074688 46.472 352.074688 48.472 
L 352.074688 62.150125 
Q 352.074688 64.150125 354.074688 64.150125 
z
" style="fill: #ffffff; opacity: 0.8; stroke: #cccccc; stroke-linejoin: miter"/>
    </g>
    <g id="line2d_15">
     <path d="M 356.074688 54.570438 
L 366.074688 54.570438 
L 376.074688 54.570438 
" style="fill: none; stroke: #1f77b4; stroke-width: 1.5; stroke-linecap: square"/>
    </g>
    <g id="text_14">
     <!-- set2 -->
     <g transform="translate(384.074688 58.070438)scale(0.1 -0.1)">
      <defs>
       <path id="DejaVuSans-73" d="M 2834 3397 
L 2834 2853 
Q 2591 2978 2328 3040 
Q 2066 3103 1784 3103 
Q 1356 3103 1142 2972 
Q 928 2841 928 2578 
Q 928 2378 1081 2264 
Q 1234 2150 1697 2047 
L 1894 2003 
Q 2506 1872 2764 1633 
Q 3022 1394 3022 966 
Q 3022 478 2636 193 
Q 2250 -91 1575 -91 
Q 1294 -91 989 -36 
Q 684 19 347 128 
L 347 722 
Q 666 556 975 473 
Q 1284 391 1588 391 
Q 1994 391 2212 530 
Q 2431 669 2431 922 
Q 2431 1156 2273 1281 
Q 2116 1406 1581 1522 
L 1381 1569 
Q 847 1681 609 1914 
Q 372 2147 372 2553 
Q 372 3047 722 3315 
Q 1072 3584 1716 3584 
Q 2034 3584 2315 3537 
Q 2597 3491 2834 3397 
z
" transform="scale(0.015625)"/>
       <path id="DejaVuSans-65" d="M 3597 1894 
L 3597 1613 
L 953 1613 
Q 991 1019 1311 708 
Q 1631 397 2203 397 
Q 2534 397 2845 478 
Q 3156 559 3463 722 
L 3463 178 
Q 3153 47 2828 -22 
Q 2503 -91 2169 -91 
Q 1331 -91 842 396 
Q 353 884 353 1716 
Q 353 2575 817 3079 
Q 1281 3584 2069 3584 
Q 2775 3584 3186 3129 
Q 3597 2675 3597 1894 
z
M 3022 2063 
Q 3016 2534 2758 2815 
Q 2500 3097 2075 3097 
Q 1594 3097 1305 2825 
Q 1016 2553 972 2059 
L 3022 2063 
z
" transform="scale(0.015625)"/>
       <path id="DejaVuSans-74" d="M 1172 4494 
L 1172 3500 
L 2356 3500 
L 2356 3053 
L 1172 3053 
L 1172 1153 
Q 1172 725 1289 603 
Q 1406 481 1766 481 
L 2356 481 
L 2356 0 
L 1766 0 
Q 1100 0 847 248 
Q 594 497 594 1153 
L 594 3053 
L 172 3053 
L 172 3500 
L 594 3500 
L 594 4494 
L 1172 4494 
z
" transform="scale(0.015625)"/>
      </defs>
      <use xlink:href="#DejaVuSans-73"/>
      <use xlink:href="#DejaVuSans-65" x="52.099609"/>
      <use xlink:href="#DejaVuSans-74" x="113.623047"/>
      <use xlink:href="#DejaVuSans-32" x="152.832031"/>
     </g>
    </g>
   </g>
  </g>
 </g>
 <defs>
  <clipPath id="p94c2997328">
   <rect x="57.6" y="41.472" width="357.12" height="266.112"/>
  </clipPath>
 </defs>
</svg>
